# generated by vox_to_obj_exporter
# scale=0.1 center=false ground=false y_up=true

mtllib Fight_106.mtl
usemtl palette

# normals
vn -1 0 0
vn 1 0 0
vn 0 1 0
vn 0 -1 0
vn 0 0 1
vn 0 0 -1

# texcoords
vt 0.189453125 0.5

# verts
v 18.2 7.2 -2.6
v 18.2 7.1 -2.6
v 18.2 7.1 -2.5
v 18.2 7.2 -2.5
v 18.2 7.2 -2.6
v 18.2 7.2 -2.5
v 18.3 7.2 -2.5
v 18.3 7.2 -2.6
v 18.2 7.2 -2.5
v 18.2 7.1 -2.5
v 18.3 7.1 -2.5
v 18.3 7.2 -2.5
v 18.3 7.2 -2.6
v 18.3 7.1 -2.6
v 18.2 7.1 -2.6
v 18.2 7.2 -2.6
v 18.3 7.2 -2.6
v 18.3 7.2 -2.5
v 18.4 7.2 -2.5
v 18.4 7.2 -2.6
v 18.3 7.2 -2.5
v 18.3 7.1 -2.5
v 18.4 7.1 -2.5
v 18.4 7.2 -2.5
v 18.4 7.2 -2.6
v 18.4 7.1 -2.6
v 18.3 7.1 -2.6
v 18.3 7.2 -2.6
v 18.4 7.2 -2.6
v 18.4 7.2 -2.5
v 18.5 7.2 -2.5
v 18.5 7.2 -2.6
v 18.4 7.2 -2.5
v 18.4 7.1 -2.5
v 18.5 7.1 -2.5
v 18.5 7.2 -2.5
v 18.5 7.2 -2.6
v 18.5 7.1 -2.6
v 18.4 7.1 -2.6
v 18.4 7.2 -2.6
v 18.5 7.2 -2.6
v 18.5 7.2 -2.5
v 18.6 7.2 -2.5
v 18.6 7.2 -2.6
v 18.5 7.1 -2.5
v 18.5 7.1 -2.6
v 18.6 7.1 -2.6
v 18.6 7.1 -2.5
v 18.5 7.2 -2.5
v 18.5 7.1 -2.5
v 18.6 7.1 -2.5
v 18.6 7.2 -2.5
v 18.6 7.2 -2.6
v 18.6 7.1 -2.6
v 18.5 7.1 -2.6
v 18.5 7.2 -2.6
v 18.6 7.2 -2.6
v 18.6 7.2 -2.5
v 18.7 7.2 -2.5
v 18.7 7.2 -2.6
v 18.6 7.1 -2.5
v 18.6 7.1 -2.6
v 18.7 7.1 -2.6
v 18.7 7.1 -2.5
v 18.6 7.2 -2.5
v 18.6 7.1 -2.5
v 18.7 7.1 -2.5
v 18.7 7.2 -2.5
v 18.7 7.2 -2.6
v 18.7 7.1 -2.6
v 18.6 7.1 -2.6
v 18.6 7.2 -2.6
v 18.7 7.2 -2.6
v 18.7 7.2 -2.5
v 18.8 7.2 -2.5
v 18.8 7.2 -2.6
v 18.7 7.1 -2.5
v 18.7 7.1 -2.6
v 18.8 7.1 -2.6
v 18.8 7.1 -2.5
v 18.7 7.2 -2.5
v 18.7 7.1 -2.5
v 18.8 7.1 -2.5
v 18.8 7.2 -2.5
v 18.8 7.2 -2.6
v 18.8 7.1 -2.6
v 18.7 7.1 -2.6
v 18.7 7.2 -2.6
v 18.9 7.2 -2.5
v 18.9 7.1 -2.5
v 18.9 7.1 -2.6
v 18.9 7.2 -2.6
v 18.8 7.2 -2.6
v 18.8 7.2 -2.5
v 18.9 7.2 -2.5
v 18.9 7.2 -2.6
v 18.8 7.1 -2.5
v 18.8 7.1 -2.6
v 18.9 7.1 -2.6
v 18.9 7.1 -2.5
v 18.8 7.2 -2.5
v 18.8 7.1 -2.5
v 18.9 7.1 -2.5
v 18.9 7.2 -2.5
v 18.9 7.2 -2.6
v 18.9 7.1 -2.6
v 18.8 7.1 -2.6
v 18.8 7.2 -2.6
v 17.9 7.1 -2.6
v 17.9 7 -2.6
v 17.9 7 -2.5
v 17.9 7.1 -2.5
v 17.9 7.1 -2.6
v 17.9 7.1 -2.5
v 18 7.1 -2.5
v 18 7.1 -2.6
v 17.9 7.1 -2.5
v 17.9 7 -2.5
v 18 7 -2.5
v 18 7.1 -2.5
v 18 7.1 -2.6
v 18 7 -2.6
v 17.9 7 -2.6
v 17.9 7.1 -2.6
v 18 7.1 -2.6
v 18 7.1 -2.5
v 18.1 7.1 -2.5
v 18.1 7.1 -2.6
v 18 7.1 -2.5
v 18 7 -2.5
v 18.1 7 -2.5
v 18.1 7.1 -2.5
v 18.1 7.1 -2.6
v 18.1 7 -2.6
v 18 7 -2.6
v 18 7.1 -2.6
v 18.1 7.1 -2.6
v 18.1 7.1 -2.5
v 18.2 7.1 -2.5
v 18.2 7.1 -2.6
v 18.1 7.1 -2.5
v 18.1 7 -2.5
v 18.2 7 -2.5
v 18.2 7.1 -2.5
v 18.2 7.1 -2.6
v 18.2 7 -2.6
v 18.1 7 -2.6
v 18.1 7.1 -2.6
v 18.2 7.1 -2.5
v 18.2 7 -2.5
v 18.3 7 -2.5
v 18.3 7.1 -2.5
v 18.3 7.1 -2.6
v 18.3 7 -2.6
v 18.2 7 -2.6
v 18.2 7.1 -2.6
v 18.3 7.1 -2.5
v 18.3 7 -2.5
v 18.4 7 -2.5
v 18.4 7.1 -2.5
v 18.4 7.1 -2.6
v 18.4 7 -2.6
v 18.3 7 -2.6
v 18.3 7.1 -2.6
v 18.5 7.1 -2.5
v 18.5 7 -2.5
v 18.5 7 -2.6
v 18.5 7.1 -2.6
v 18.4 7 -2.5
v 18.4 7 -2.6
v 18.5 7 -2.6
v 18.5 7 -2.5
v 18.4 7.1 -2.5
v 18.4 7 -2.5
v 18.5 7 -2.5
v 18.5 7.1 -2.5
v 18.5 7.1 -2.6
v 18.5 7 -2.6
v 18.4 7 -2.6
v 18.4 7.1 -2.6
v 17.6 7 -2.6
v 17.6 6.9 -2.6
v 17.6 6.9 -2.5
v 17.6 7 -2.5
v 17.6 7 -2.6
v 17.6 7 -2.5
v 17.7 7 -2.5
v 17.7 7 -2.6
v 17.6 7 -2.5
v 17.6 6.9 -2.5
v 17.7 6.9 -2.5
v 17.7 7 -2.5
v 17.7 7 -2.6
v 17.7 6.9 -2.6
v 17.6 6.9 -2.6
v 17.6 7 -2.6
v 17.7 7 -2.6
v 17.7 7 -2.5
v 17.8 7 -2.5
v 17.8 7 -2.6
v 17.7 7 -2.5
v 17.7 6.9 -2.5
v 17.8 6.9 -2.5
v 17.8 7 -2.5
v 17.8 7 -2.6
v 17.8 6.9 -2.6
v 17.7 6.9 -2.6
v 17.7 7 -2.6
v 17.8 7 -2.6
v 17.8 7 -2.5
v 17.9 7 -2.5
v 17.9 7 -2.6
v 17.8 7 -2.5
v 17.8 6.9 -2.5
v 17.9 6.9 -2.5
v 17.9 7 -2.5
v 17.9 7 -2.6
v 17.9 6.9 -2.6
v 17.8 6.9 -2.6
v 17.8 7 -2.6
v 17.9 7 -2.5
v 17.9 6.9 -2.5
v 18 6.9 -2.5
v 18 7 -2.5
v 18 7 -2.6
v 18 6.9 -2.6
v 17.9 6.9 -2.6
v 17.9 7 -2.6
v 18 7 -2.5
v 18 6.9 -2.5
v 18.1 6.9 -2.5
v 18.1 7 -2.5
v 18.1 7 -2.6
v 18.1 6.9 -2.6
v 18 6.9 -2.6
v 18 7 -2.6
v 18.1 7 -2.5
v 18.1 6.9 -2.5
v 18.2 6.9 -2.5
v 18.2 7 -2.5
v 18.2 7 -2.6
v 18.2 6.9 -2.6
v 18.1 6.9 -2.6
v 18.1 7 -2.6
v 18.2 7 -2.5
v 18.2 6.9 -2.5
v 18.3 6.9 -2.5
v 18.3 7 -2.5
v 18.3 7 -2.6
v 18.3 6.9 -2.6
v 18.2 6.9 -2.6
v 18.2 7 -2.6
v 18.4 7 -2.5
v 18.4 6.9 -2.5
v 18.4 6.9 -2.6
v 18.4 7 -2.6
v 18.3 7 -2.5
v 18.3 6.9 -2.5
v 18.4 6.9 -2.5
v 18.4 7 -2.5
v 18.4 7 -2.6
v 18.4 6.9 -2.6
v 18.3 6.9 -2.6
v 18.3 7 -2.6
v 17.5 6.9 -2.6
v 17.5 6.8 -2.6
v 17.5 6.8 -2.5
v 17.5 6.9 -2.5
v 17.5 6.9 -2.6
v 17.5 6.9 -2.5
v 17.6 6.9 -2.5
v 17.6 6.9 -2.6
v 17.5 6.9 -2.5
v 17.5 6.8 -2.5
v 17.6 6.8 -2.5
v 17.6 6.9 -2.5
v 17.6 6.9 -2.6
v 17.6 6.8 -2.6
v 17.5 6.8 -2.6
v 17.5 6.9 -2.6
v 17.6 6.9 -2.5
v 17.6 6.8 -2.5
v 17.7 6.8 -2.5
v 17.7 6.9 -2.5
v 17.7 6.9 -2.6
v 17.7 6.8 -2.6
v 17.6 6.8 -2.6
v 17.6 6.9 -2.6
v 17.7 6.9 -2.5
v 17.7 6.8 -2.5
v 17.8 6.8 -2.5
v 17.8 6.9 -2.5
v 17.8 6.9 -2.6
v 17.8 6.8 -2.6
v 17.7 6.8 -2.6
v 17.7 6.9 -2.6
v 17.8 6.9 -2.5
v 17.8 6.8 -2.5
v 17.9 6.8 -2.5
v 17.9 6.9 -2.5
v 17.9 6.9 -2.6
v 17.9 6.8 -2.6
v 17.8 6.8 -2.6
v 17.8 6.9 -2.6
v 17.9 6.9 -2.5
v 17.9 6.8 -2.5
v 18 6.8 -2.5
v 18 6.9 -2.5
v 18 6.9 -2.6
v 18 6.8 -2.6
v 17.9 6.8 -2.6
v 17.9 6.9 -2.6
v 18 6.9 -2.5
v 18 6.8 -2.5
v 18.1 6.8 -2.5
v 18.1 6.9 -2.5
v 18.1 6.9 -2.6
v 18.1 6.8 -2.6
v 18 6.8 -2.6
v 18 6.9 -2.6
v 18.1 6.9 -2.5
v 18.1 6.8 -2.5
v 18.2 6.8 -2.5
v 18.2 6.9 -2.5
v 18.2 6.9 -2.6
v 18.2 6.8 -2.6
v 18.1 6.8 -2.6
v 18.1 6.9 -2.6
v 18.2 6.9 -2.5
v 18.2 6.8 -2.5
v 18.3 6.8 -2.5
v 18.3 6.9 -2.5
v 18.3 6.9 -2.6
v 18.3 6.8 -2.6
v 18.2 6.8 -2.6
v 18.2 6.9 -2.6
v 18.3 6.9 -2.5
v 18.3 6.8 -2.5
v 18.4 6.8 -2.5
v 18.4 6.9 -2.5
v 18.4 6.9 -2.6
v 18.4 6.8 -2.6
v 18.3 6.8 -2.6
v 18.3 6.9 -2.6
v 18.4 6.9 -2.6
v 18.4 6.9 -2.5
v 18.5 6.9 -2.5
v 18.5 6.9 -2.6
v 18.4 6.9 -2.5
v 18.4 6.8 -2.5
v 18.5 6.8 -2.5
v 18.5 6.9 -2.5
v 18.5 6.9 -2.6
v 18.5 6.8 -2.6
v 18.4 6.8 -2.6
v 18.4 6.9 -2.6
v 18.5 6.9 -2.6
v 18.5 6.9 -2.5
v 18.6 6.9 -2.5
v 18.6 6.9 -2.6
v 18.5 6.9 -2.5
v 18.5 6.8 -2.5
v 18.6 6.8 -2.5
v 18.6 6.9 -2.5
v 18.6 6.9 -2.6
v 18.6 6.8 -2.6
v 18.5 6.8 -2.6
v 18.5 6.9 -2.6
v 18.6 6.9 -2.6
v 18.6 6.9 -2.5
v 18.7 6.9 -2.5
v 18.7 6.9 -2.6
v 18.6 6.9 -2.5
v 18.6 6.8 -2.5
v 18.7 6.8 -2.5
v 18.7 6.9 -2.5
v 18.7 6.9 -2.6
v 18.7 6.8 -2.6
v 18.6 6.8 -2.6
v 18.6 6.9 -2.6
v 18.7 6.9 -2.6
v 18.7 6.9 -2.5
v 18.8 6.9 -2.5
v 18.8 6.9 -2.6
v 18.7 6.9 -2.5
v 18.7 6.8 -2.5
v 18.8 6.8 -2.5
v 18.8 6.9 -2.5
v 18.8 6.9 -2.6
v 18.8 6.8 -2.6
v 18.7 6.8 -2.6
v 18.7 6.9 -2.6
v 18.8 6.9 -2.6
v 18.8 6.9 -2.5
v 18.9 6.9 -2.5
v 18.9 6.9 -2.6
v 18.8 6.9 -2.5
v 18.8 6.8 -2.5
v 18.9 6.8 -2.5
v 18.9 6.9 -2.5
v 18.9 6.9 -2.6
v 18.9 6.8 -2.6
v 18.8 6.8 -2.6
v 18.8 6.9 -2.6
v 18.9 6.9 -2.6
v 18.9 6.9 -2.5
v 19 6.9 -2.5
v 19 6.9 -2.6
v 18.9 6.9 -2.5
v 18.9 6.8 -2.5
v 19 6.8 -2.5
v 19 6.9 -2.5
v 19 6.9 -2.6
v 19 6.8 -2.6
v 18.9 6.8 -2.6
v 18.9 6.9 -2.6
v 19 6.9 -2.6
v 19 6.9 -2.5
v 19.1 6.9 -2.5
v 19.1 6.9 -2.6
v 19 6.9 -2.5
v 19 6.8 -2.5
v 19.1 6.8 -2.5
v 19.1 6.9 -2.5
v 19.1 6.9 -2.6
v 19.1 6.8 -2.6
v 19 6.8 -2.6
v 19 6.9 -2.6
v 19.2 6.9 -2.5
v 19.2 6.8 -2.5
v 19.2 6.8 -2.6
v 19.2 6.9 -2.6
v 19.1 6.9 -2.6
v 19.1 6.9 -2.5
v 19.2 6.9 -2.5
v 19.2 6.9 -2.6
v 19.1 6.9 -2.5
v 19.1 6.8 -2.5
v 19.2 6.8 -2.5
v 19.2 6.9 -2.5
v 19.2 6.9 -2.6
v 19.2 6.8 -2.6
v 19.1 6.8 -2.6
v 19.1 6.9 -2.6
v 17.3 6.8 -2.6
v 17.3 6.7 -2.6
v 17.3 6.7 -2.5
v 17.3 6.8 -2.5
v 17.3 6.8 -2.6
v 17.3 6.8 -2.5
v 17.4 6.8 -2.5
v 17.4 6.8 -2.6
v 17.3 6.8 -2.5
v 17.3 6.7 -2.5
v 17.4 6.7 -2.5
v 17.4 6.8 -2.5
v 17.4 6.8 -2.6
v 17.4 6.7 -2.6
v 17.3 6.7 -2.6
v 17.3 6.8 -2.6
v 17.4 6.8 -2.6
v 17.4 6.8 -2.5
v 17.5 6.8 -2.5
v 17.5 6.8 -2.6
v 17.4 6.8 -2.5
v 17.4 6.7 -2.5
v 17.5 6.7 -2.5
v 17.5 6.8 -2.5
v 17.5 6.8 -2.6
v 17.5 6.7 -2.6
v 17.4 6.7 -2.6
v 17.4 6.8 -2.6
v 17.5 6.8 -2.5
v 17.5 6.7 -2.5
v 17.6 6.7 -2.5
v 17.6 6.8 -2.5
v 17.6 6.8 -2.6
v 17.6 6.7 -2.6
v 17.5 6.7 -2.6
v 17.5 6.8 -2.6
v 17.6 6.8 -2.5
v 17.6 6.7 -2.5
v 17.7 6.7 -2.5
v 17.7 6.8 -2.5
v 17.7 6.8 -2.6
v 17.7 6.7 -2.6
v 17.6 6.7 -2.6
v 17.6 6.8 -2.6
v 17.7 6.8 -2.5
v 17.7 6.7 -2.5
v 17.8 6.7 -2.5
v 17.8 6.8 -2.5
v 17.8 6.8 -2.6
v 17.8 6.7 -2.6
v 17.7 6.7 -2.6
v 17.7 6.8 -2.6
v 17.8 6.8 -2.5
v 17.8 6.7 -2.5
v 17.9 6.7 -2.5
v 17.9 6.8 -2.5
v 17.9 6.8 -2.6
v 17.9 6.7 -2.6
v 17.8 6.7 -2.6
v 17.8 6.8 -2.6
v 17.9 6.8 -2.5
v 17.9 6.7 -2.5
v 18 6.7 -2.5
v 18 6.8 -2.5
v 18 6.8 -2.6
v 18 6.7 -2.6
v 17.9 6.7 -2.6
v 17.9 6.8 -2.6
v 18 6.8 -2.5
v 18 6.7 -2.5
v 18.1 6.7 -2.5
v 18.1 6.8 -2.5
v 18.1 6.8 -2.6
v 18.1 6.7 -2.6
v 18 6.7 -2.6
v 18 6.8 -2.6
v 18.1 6.8 -2.5
v 18.1 6.7 -2.5
v 18.2 6.7 -2.5
v 18.2 6.8 -2.5
v 18.2 6.8 -2.6
v 18.2 6.7 -2.6
v 18.1 6.7 -2.6
v 18.1 6.8 -2.6
v 18.2 6.8 -2.5
v 18.2 6.7 -2.5
v 18.3 6.7 -2.5
v 18.3 6.8 -2.5
v 18.3 6.8 -2.6
v 18.3 6.7 -2.6
v 18.2 6.7 -2.6
v 18.2 6.8 -2.6
v 18.3 6.7 -2.5
v 18.3 6.7 -2.6
v 18.4 6.7 -2.6
v 18.4 6.7 -2.5
v 18.3 6.8 -2.5
v 18.3 6.7 -2.5
v 18.4 6.7 -2.5
v 18.4 6.8 -2.5
v 18.4 6.8 -2.6
v 18.4 6.7 -2.6
v 18.3 6.7 -2.6
v 18.3 6.8 -2.6
v 18.4 6.7 -2.5
v 18.4 6.7 -2.6
v 18.5 6.7 -2.6
v 18.5 6.7 -2.5
v 18.4 6.8 -2.5
v 18.4 6.7 -2.5
v 18.5 6.7 -2.5
v 18.5 6.8 -2.5
v 18.5 6.8 -2.6
v 18.5 6.7 -2.6
v 18.4 6.7 -2.6
v 18.4 6.8 -2.6
v 18.5 6.7 -2.5
v 18.5 6.7 -2.6
v 18.6 6.7 -2.6
v 18.6 6.7 -2.5
v 18.5 6.8 -2.5
v 18.5 6.7 -2.5
v 18.6 6.7 -2.5
v 18.6 6.8 -2.5
v 18.6 6.8 -2.6
v 18.6 6.7 -2.6
v 18.5 6.7 -2.6
v 18.5 6.8 -2.6
v 18.6 6.7 -2.5
v 18.6 6.7 -2.6
v 18.7 6.7 -2.6
v 18.7 6.7 -2.5
v 18.6 6.8 -2.5
v 18.6 6.7 -2.5
v 18.7 6.7 -2.5
v 18.7 6.8 -2.5
v 18.7 6.8 -2.6
v 18.7 6.7 -2.6
v 18.6 6.7 -2.6
v 18.6 6.8 -2.6
v 18.7 6.7 -2.5
v 18.7 6.7 -2.6
v 18.8 6.7 -2.6
v 18.8 6.7 -2.5
v 18.7 6.8 -2.5
v 18.7 6.7 -2.5
v 18.8 6.7 -2.5
v 18.8 6.8 -2.5
v 18.8 6.8 -2.6
v 18.8 6.7 -2.6
v 18.7 6.7 -2.6
v 18.7 6.8 -2.6
v 18.8 6.7 -2.5
v 18.8 6.7 -2.6
v 18.9 6.7 -2.6
v 18.9 6.7 -2.5
v 18.8 6.8 -2.5
v 18.8 6.7 -2.5
v 18.9 6.7 -2.5
v 18.9 6.8 -2.5
v 18.9 6.8 -2.6
v 18.9 6.7 -2.6
v 18.8 6.7 -2.6
v 18.8 6.8 -2.6
v 18.9 6.7 -2.5
v 18.9 6.7 -2.6
v 19 6.7 -2.6
v 19 6.7 -2.5
v 18.9 6.8 -2.5
v 18.9 6.7 -2.5
v 19 6.7 -2.5
v 19 6.8 -2.5
v 19 6.8 -2.6
v 19 6.7 -2.6
v 18.9 6.7 -2.6
v 18.9 6.8 -2.6
v 19 6.7 -2.5
v 19 6.7 -2.6
v 19.1 6.7 -2.6
v 19.1 6.7 -2.5
v 19 6.8 -2.5
v 19 6.7 -2.5
v 19.1 6.7 -2.5
v 19.1 6.8 -2.5
v 19.1 6.8 -2.6
v 19.1 6.7 -2.6
v 19 6.7 -2.6
v 19 6.8 -2.6
v 19.1 6.7 -2.5
v 19.1 6.7 -2.6
v 19.2 6.7 -2.6
v 19.2 6.7 -2.5
v 19.1 6.8 -2.5
v 19.1 6.7 -2.5
v 19.2 6.7 -2.5
v 19.2 6.8 -2.5
v 19.2 6.8 -2.6
v 19.2 6.7 -2.6
v 19.1 6.7 -2.6
v 19.1 6.8 -2.6
v 19.2 6.8 -2.6
v 19.2 6.8 -2.5
v 19.3 6.8 -2.5
v 19.3 6.8 -2.6
v 19.2 6.7 -2.5
v 19.2 6.7 -2.6
v 19.3 6.7 -2.6
v 19.3 6.7 -2.5
v 19.2 6.8 -2.5
v 19.2 6.7 -2.5
v 19.3 6.7 -2.5
v 19.3 6.8 -2.5
v 19.3 6.8 -2.6
v 19.3 6.7 -2.6
v 19.2 6.7 -2.6
v 19.2 6.8 -2.6
v 19.3 6.8 -2.6
v 19.3 6.8 -2.5
v 19.4 6.8 -2.5
v 19.4 6.8 -2.6
v 19.3 6.7 -2.5
v 19.3 6.7 -2.6
v 19.4 6.7 -2.6
v 19.4 6.7 -2.5
v 19.3 6.8 -2.5
v 19.3 6.7 -2.5
v 19.4 6.7 -2.5
v 19.4 6.8 -2.5
v 19.4 6.8 -2.6
v 19.4 6.7 -2.6
v 19.3 6.7 -2.6
v 19.3 6.8 -2.6
v 19.4 6.8 -2.6
v 19.4 6.8 -2.5
v 19.5 6.8 -2.5
v 19.5 6.8 -2.6
v 19.4 6.7 -2.5
v 19.4 6.7 -2.6
v 19.5 6.7 -2.6
v 19.5 6.7 -2.5
v 19.4 6.8 -2.5
v 19.4 6.7 -2.5
v 19.5 6.7 -2.5
v 19.5 6.8 -2.5
v 19.5 6.8 -2.6
v 19.5 6.7 -2.6
v 19.4 6.7 -2.6
v 19.4 6.8 -2.6
v 19.5 6.8 -2.6
v 19.5 6.8 -2.5
v 19.6 6.8 -2.5
v 19.6 6.8 -2.6
v 19.5 6.7 -2.5
v 19.5 6.7 -2.6
v 19.6 6.7 -2.6
v 19.6 6.7 -2.5
v 19.5 6.8 -2.5
v 19.5 6.7 -2.5
v 19.6 6.7 -2.5
v 19.6 6.8 -2.5
v 19.6 6.8 -2.6
v 19.6 6.7 -2.6
v 19.5 6.7 -2.6
v 19.5 6.8 -2.6
v 19.7 6.8 -2.5
v 19.7 6.7 -2.5
v 19.7 6.7 -2.6
v 19.7 6.8 -2.6
v 19.6 6.8 -2.6
v 19.6 6.8 -2.5
v 19.7 6.8 -2.5
v 19.7 6.8 -2.6
v 19.6 6.7 -2.5
v 19.6 6.7 -2.6
v 19.7 6.7 -2.6
v 19.7 6.7 -2.5
v 19.6 6.8 -2.5
v 19.6 6.7 -2.5
v 19.7 6.7 -2.5
v 19.7 6.8 -2.5
v 19.7 6.8 -2.6
v 19.7 6.7 -2.6
v 19.6 6.7 -2.6
v 19.6 6.8 -2.6
v 19.8 6.8 -2.6
v 19.8 6.7 -2.6
v 19.8 6.7 -2.5
v 19.8 6.8 -2.5
v 19.9 6.8 -2.5
v 19.9 6.7 -2.5
v 19.9 6.7 -2.6
v 19.9 6.8 -2.6
v 19.8 6.8 -2.6
v 19.8 6.8 -2.5
v 19.9 6.8 -2.5
v 19.9 6.8 -2.6
v 19.8 6.7 -2.5
v 19.8 6.7 -2.6
v 19.9 6.7 -2.6
v 19.9 6.7 -2.5
v 19.8 6.8 -2.5
v 19.8 6.7 -2.5
v 19.9 6.7 -2.5
v 19.9 6.8 -2.5
v 19.9 6.8 -2.6
v 19.9 6.7 -2.6
v 19.8 6.7 -2.6
v 19.8 6.8 -2.6
v 17.2 6.7 -2.6
v 17.2 6.6 -2.6
v 17.2 6.6 -2.5
v 17.2 6.7 -2.5
v 17.2 6.7 -2.6
v 17.2 6.7 -2.5
v 17.3 6.7 -2.5
v 17.3 6.7 -2.6
v 17.2 6.7 -2.5
v 17.2 6.6 -2.5
v 17.3 6.6 -2.5
v 17.3 6.7 -2.5
v 17.3 6.7 -2.6
v 17.3 6.6 -2.6
v 17.2 6.6 -2.6
v 17.2 6.7 -2.6
v 17.3 6.7 -2.5
v 17.3 6.6 -2.5
v 17.4 6.6 -2.5
v 17.4 6.7 -2.5
v 17.4 6.7 -2.6
v 17.4 6.6 -2.6
v 17.3 6.6 -2.6
v 17.3 6.7 -2.6
v 17.4 6.7 -2.5
v 17.4 6.6 -2.5
v 17.5 6.6 -2.5
v 17.5 6.7 -2.5
v 17.5 6.7 -2.6
v 17.5 6.6 -2.6
v 17.4 6.6 -2.6
v 17.4 6.7 -2.6
v 17.5 6.7 -2.5
v 17.5 6.6 -2.5
v 17.6 6.6 -2.5
v 17.6 6.7 -2.5
v 17.6 6.7 -2.6
v 17.6 6.6 -2.6
v 17.5 6.6 -2.6
v 17.5 6.7 -2.6
v 17.6 6.7 -2.5
v 17.6 6.6 -2.5
v 17.7 6.6 -2.5
v 17.7 6.7 -2.5
v 17.7 6.7 -2.6
v 17.7 6.6 -2.6
v 17.6 6.6 -2.6
v 17.6 6.7 -2.6
v 17.7 6.7 -2.5
v 17.7 6.6 -2.5
v 17.8 6.6 -2.5
v 17.8 6.7 -2.5
v 17.8 6.7 -2.6
v 17.8 6.6 -2.6
v 17.7 6.6 -2.6
v 17.7 6.7 -2.6
v 17.8 6.7 -2.5
v 17.8 6.6 -2.5
v 17.9 6.6 -2.5
v 17.9 6.7 -2.5
v 17.9 6.7 -2.6
v 17.9 6.6 -2.6
v 17.8 6.6 -2.6
v 17.8 6.7 -2.6
v 17.9 6.6 -2.5
v 17.9 6.6 -2.6
v 18 6.6 -2.6
v 18 6.6 -2.5
v 17.9 6.7 -2.5
v 17.9 6.6 -2.5
v 18 6.6 -2.5
v 18 6.7 -2.5
v 18 6.7 -2.6
v 18 6.6 -2.6
v 17.9 6.6 -2.6
v 17.9 6.7 -2.6
v 18 6.6 -2.5
v 18 6.6 -2.6
v 18.1 6.6 -2.6
v 18.1 6.6 -2.5
v 18 6.7 -2.5
v 18 6.6 -2.5
v 18.1 6.6 -2.5
v 18.1 6.7 -2.5
v 18.1 6.7 -2.6
v 18.1 6.6 -2.6
v 18 6.6 -2.6
v 18 6.7 -2.6
v 18.1 6.6 -2.5
v 18.1 6.6 -2.6
v 18.2 6.6 -2.6
v 18.2 6.6 -2.5
v 18.1 6.7 -2.5
v 18.1 6.6 -2.5
v 18.2 6.6 -2.5
v 18.2 6.7 -2.5
v 18.2 6.7 -2.6
v 18.2 6.6 -2.6
v 18.1 6.6 -2.6
v 18.1 6.7 -2.6
v 18.3 6.7 -2.5
v 18.3 6.6 -2.5
v 18.3 6.6 -2.6
v 18.3 6.7 -2.6
v 18.2 6.6 -2.5
v 18.2 6.6 -2.6
v 18.3 6.6 -2.6
v 18.3 6.6 -2.5
v 18.2 6.7 -2.5
v 18.2 6.6 -2.5
v 18.3 6.6 -2.5
v 18.3 6.7 -2.5
v 18.3 6.7 -2.6
v 18.3 6.6 -2.6
v 18.2 6.6 -2.6
v 18.2 6.7 -2.6
v 17.1 6.6 -2.6
v 17.1 6.5 -2.6
v 17.1 6.5 -2.5
v 17.1 6.6 -2.5
v 17.1 6.6 -2.6
v 17.1 6.6 -2.5
v 17.2 6.6 -2.5
v 17.2 6.6 -2.6
v 17.1 6.6 -2.5
v 17.1 6.5 -2.5
v 17.2 6.5 -2.5
v 17.2 6.6 -2.5
v 17.2 6.6 -2.6
v 17.2 6.5 -2.6
v 17.1 6.5 -2.6
v 17.1 6.6 -2.6
v 17.2 6.6 -2.5
v 17.2 6.5 -2.5
v 17.3 6.5 -2.5
v 17.3 6.6 -2.5
v 17.3 6.6 -2.6
v 17.3 6.5 -2.6
v 17.2 6.5 -2.6
v 17.2 6.6 -2.6
v 17.3 6.6 -2.5
v 17.3 6.5 -2.5
v 17.4 6.5 -2.5
v 17.4 6.6 -2.5
v 17.4 6.6 -2.6
v 17.4 6.5 -2.6
v 17.3 6.5 -2.6
v 17.3 6.6 -2.6
v 17.4 6.6 -2.5
v 17.4 6.5 -2.5
v 17.5 6.5 -2.5
v 17.5 6.6 -2.5
v 17.5 6.6 -2.6
v 17.5 6.5 -2.6
v 17.4 6.5 -2.6
v 17.4 6.6 -2.6
v 17.5 6.6 -2.5
v 17.5 6.5 -2.5
v 17.6 6.5 -2.5
v 17.6 6.6 -2.5
v 17.6 6.6 -2.6
v 17.6 6.5 -2.6
v 17.5 6.5 -2.6
v 17.5 6.6 -2.6
v 17.6 6.6 -2.5
v 17.6 6.5 -2.5
v 17.7 6.5 -2.5
v 17.7 6.6 -2.5
v 17.7 6.6 -2.6
v 17.7 6.5 -2.6
v 17.6 6.5 -2.6
v 17.6 6.6 -2.6
v 17.7 6.5 -2.5
v 17.7 6.5 -2.6
v 17.8 6.5 -2.6
v 17.8 6.5 -2.5
v 17.7 6.6 -2.5
v 17.7 6.5 -2.5
v 17.8 6.5 -2.5
v 17.8 6.6 -2.5
v 17.8 6.6 -2.6
v 17.8 6.5 -2.6
v 17.7 6.5 -2.6
v 17.7 6.6 -2.6
v 17.9 6.6 -2.5
v 17.9 6.5 -2.5
v 17.9 6.5 -2.6
v 17.9 6.6 -2.6
v 17.8 6.5 -2.5
v 17.8 6.5 -2.6
v 17.9 6.5 -2.6
v 17.9 6.5 -2.5
v 17.8 6.6 -2.5
v 17.8 6.5 -2.5
v 17.9 6.5 -2.5
v 17.9 6.6 -2.5
v 17.9 6.6 -2.6
v 17.9 6.5 -2.6
v 17.8 6.5 -2.6
v 17.8 6.6 -2.6
v 17 6.5 -2.6
v 17 6.4 -2.6
v 17 6.4 -2.5
v 17 6.5 -2.5
v 17 6.5 -2.6
v 17 6.5 -2.5
v 17.1 6.5 -2.5
v 17.1 6.5 -2.6
v 17 6.5 -2.5
v 17 6.4 -2.5
v 17.1 6.4 -2.5
v 17.1 6.5 -2.5
v 17.1 6.5 -2.6
v 17.1 6.4 -2.6
v 17 6.4 -2.6
v 17 6.5 -2.6
v 17.1 6.5 -2.5
v 17.1 6.4 -2.5
v 17.2 6.4 -2.5
v 17.2 6.5 -2.5
v 17.2 6.5 -2.6
v 17.2 6.4 -2.6
v 17.1 6.4 -2.6
v 17.1 6.5 -2.6
v 17.2 6.5 -2.5
v 17.2 6.4 -2.5
v 17.3 6.4 -2.5
v 17.3 6.5 -2.5
v 17.3 6.5 -2.6
v 17.3 6.4 -2.6
v 17.2 6.4 -2.6
v 17.2 6.5 -2.6
v 17.3 6.5 -2.5
v 17.3 6.4 -2.5
v 17.4 6.4 -2.5
v 17.4 6.5 -2.5
v 17.4 6.5 -2.6
v 17.4 6.4 -2.6
v 17.3 6.4 -2.6
v 17.3 6.5 -2.6
v 17.4 6.4 -2.5
v 17.4 6.4 -2.6
v 17.5 6.4 -2.6
v 17.5 6.4 -2.5
v 17.4 6.5 -2.5
v 17.4 6.4 -2.5
v 17.5 6.4 -2.5
v 17.5 6.5 -2.5
v 17.5 6.5 -2.6
v 17.5 6.4 -2.6
v 17.4 6.4 -2.6
v 17.4 6.5 -2.6
v 17.5 6.4 -2.5
v 17.5 6.4 -2.6
v 17.6 6.4 -2.6
v 17.6 6.4 -2.5
v 17.5 6.5 -2.5
v 17.5 6.4 -2.5
v 17.6 6.4 -2.5
v 17.6 6.5 -2.5
v 17.6 6.5 -2.6
v 17.6 6.4 -2.6
v 17.5 6.4 -2.6
v 17.5 6.5 -2.6
v 17.7 6.5 -2.5
v 17.7 6.4 -2.5
v 17.7 6.4 -2.6
v 17.7 6.5 -2.6
v 17.6 6.4 -2.5
v 17.6 6.4 -2.6
v 17.7 6.4 -2.6
v 17.7 6.4 -2.5
v 17.6 6.5 -2.5
v 17.6 6.4 -2.5
v 17.7 6.4 -2.5
v 17.7 6.5 -2.5
v 17.7 6.5 -2.6
v 17.7 6.4 -2.6
v 17.6 6.4 -2.6
v 17.6 6.5 -2.6
v 16.9 6.4 -2.6
v 16.9 6.3 -2.6
v 16.9 6.3 -2.5
v 16.9 6.4 -2.5
v 16.9 6.4 -2.6
v 16.9 6.4 -2.5
v 17 6.4 -2.5
v 17 6.4 -2.6
v 16.9 6.4 -2.5
v 16.9 6.3 -2.5
v 17 6.3 -2.5
v 17 6.4 -2.5
v 17 6.4 -2.6
v 17 6.3 -2.6
v 16.9 6.3 -2.6
v 16.9 6.4 -2.6
v 17 6.4 -2.5
v 17 6.3 -2.5
v 17.1 6.3 -2.5
v 17.1 6.4 -2.5
v 17.1 6.4 -2.6
v 17.1 6.3 -2.6
v 17 6.3 -2.6
v 17 6.4 -2.6
v 17.1 6.4 -2.5
v 17.1 6.3 -2.5
v 17.2 6.3 -2.5
v 17.2 6.4 -2.5
v 17.2 6.4 -2.6
v 17.2 6.3 -2.6
v 17.1 6.3 -2.6
v 17.1 6.4 -2.6
v 17.2 6.4 -2.5
v 17.2 6.3 -2.5
v 17.3 6.3 -2.5
v 17.3 6.4 -2.5
v 17.3 6.4 -2.6
v 17.3 6.3 -2.6
v 17.2 6.3 -2.6
v 17.2 6.4 -2.6
v 17.4 6.4 -2.5
v 17.4 6.3 -2.5
v 17.4 6.3 -2.6
v 17.4 6.4 -2.6
v 17.3 6.3 -2.5
v 17.3 6.3 -2.6
v 17.4 6.3 -2.6
v 17.4 6.3 -2.5
v 17.3 6.4 -2.5
v 17.3 6.3 -2.5
v 17.4 6.3 -2.5
v 17.4 6.4 -2.5
v 17.4 6.4 -2.6
v 17.4 6.3 -2.6
v 17.3 6.3 -2.6
v 17.3 6.4 -2.6
v 27.7 6.4 -2.6
v 27.7 6.3 -2.6
v 27.7 6.3 -2.5
v 27.7 6.4 -2.5
v 27.8 6.4 -2.5
v 27.8 6.3 -2.5
v 27.8 6.3 -2.6
v 27.8 6.4 -2.6
v 27.7 6.4 -2.6
v 27.7 6.4 -2.5
v 27.8 6.4 -2.5
v 27.8 6.4 -2.6
v 27.7 6.3 -2.5
v 27.7 6.3 -2.6
v 27.8 6.3 -2.6
v 27.8 6.3 -2.5
v 27.7 6.4 -2.5
v 27.7 6.3 -2.5
v 27.8 6.3 -2.5
v 27.8 6.4 -2.5
v 27.8 6.4 -2.6
v 27.8 6.3 -2.6
v 27.7 6.3 -2.6
v 27.7 6.4 -2.6
v 16.8 6.3 -2.6
v 16.8 6.2 -2.6
v 16.8 6.2 -2.5
v 16.8 6.3 -2.5
v 16.8 6.3 -2.6
v 16.8 6.3 -2.5
v 16.9 6.3 -2.5
v 16.9 6.3 -2.6
v 16.8 6.3 -2.5
v 16.8 6.2 -2.5
v 16.9 6.2 -2.5
v 16.9 6.3 -2.5
v 16.9 6.3 -2.6
v 16.9 6.2 -2.6
v 16.8 6.2 -2.6
v 16.8 6.3 -2.6
v 16.9 6.3 -2.5
v 16.9 6.2 -2.5
v 17 6.2 -2.5
v 17 6.3 -2.5
v 17 6.3 -2.6
v 17 6.2 -2.6
v 16.9 6.2 -2.6
v 16.9 6.3 -2.6
v 17 6.3 -2.5
v 17 6.2 -2.5
v 17.1 6.2 -2.5
v 17.1 6.3 -2.5
v 17.1 6.3 -2.6
v 17.1 6.2 -2.6
v 17 6.2 -2.6
v 17 6.3 -2.6
v 17.1 6.2 -2.5
v 17.1 6.2 -2.6
v 17.2 6.2 -2.6
v 17.2 6.2 -2.5
v 17.1 6.3 -2.5
v 17.1 6.2 -2.5
v 17.2 6.2 -2.5
v 17.2 6.3 -2.5
v 17.2 6.3 -2.6
v 17.2 6.2 -2.6
v 17.1 6.2 -2.6
v 17.1 6.3 -2.6
v 17.3 6.3 -2.5
v 17.3 6.2 -2.5
v 17.3 6.2 -2.6
v 17.3 6.3 -2.6
v 17.2 6.2 -2.5
v 17.2 6.2 -2.6
v 17.3 6.2 -2.6
v 17.3 6.2 -2.5
v 17.2 6.3 -2.5
v 17.2 6.2 -2.5
v 17.3 6.2 -2.5
v 17.3 6.3 -2.5
v 17.3 6.3 -2.6
v 17.3 6.2 -2.6
v 17.2 6.2 -2.6
v 17.2 6.3 -2.6
v 27.8 6.3 -2.6
v 27.8 6.2 -2.6
v 27.8 6.2 -2.5
v 27.8 6.3 -2.5
v 27.9 6.3 -2.5
v 27.9 6.2 -2.5
v 27.9 6.2 -2.6
v 27.9 6.3 -2.6
v 27.8 6.3 -2.6
v 27.8 6.3 -2.5
v 27.9 6.3 -2.5
v 27.9 6.3 -2.6
v 27.8 6.3 -2.5
v 27.8 6.2 -2.5
v 27.9 6.2 -2.5
v 27.9 6.3 -2.5
v 27.9 6.3 -2.6
v 27.9 6.2 -2.6
v 27.8 6.2 -2.6
v 27.8 6.3 -2.6
v 16.8 6.2 -2.6
v 16.8 6.1 -2.6
v 16.8 6.1 -2.5
v 16.8 6.2 -2.5
v 16.8 6.2 -2.5
v 16.8 6.1 -2.5
v 16.9 6.1 -2.5
v 16.9 6.2 -2.5
v 16.9 6.2 -2.6
v 16.9 6.1 -2.6
v 16.8 6.1 -2.6
v 16.8 6.2 -2.6
v 16.9 6.2 -2.5
v 16.9 6.1 -2.5
v 17 6.1 -2.5
v 17 6.2 -2.5
v 17 6.2 -2.6
v 17 6.1 -2.6
v 16.9 6.1 -2.6
v 16.9 6.2 -2.6
v 17.1 6.2 -2.5
v 17.1 6.1 -2.5
v 17.1 6.1 -2.6
v 17.1 6.2 -2.6
v 17 6.1 -2.5
v 17 6.1 -2.6
v 17.1 6.1 -2.6
v 17.1 6.1 -2.5
v 17 6.2 -2.5
v 17 6.1 -2.5
v 17.1 6.1 -2.5
v 17.1 6.2 -2.5
v 17.1 6.2 -2.6
v 17.1 6.1 -2.6
v 17 6.1 -2.6
v 17 6.2 -2.6
v 27.8 6.2 -2.6
v 27.8 6.1 -2.6
v 27.8 6.1 -2.5
v 27.8 6.2 -2.5
v 27.8 6.2 -2.5
v 27.8 6.1 -2.5
v 27.9 6.1 -2.5
v 27.9 6.2 -2.5
v 27.9 6.2 -2.6
v 27.9 6.1 -2.6
v 27.8 6.1 -2.6
v 27.8 6.2 -2.6
v 28 6.2 -2.5
v 28 6.1 -2.5
v 28 6.1 -2.6
v 28 6.2 -2.6
v 27.9 6.2 -2.6
v 27.9 6.2 -2.5
v 28 6.2 -2.5
v 28 6.2 -2.6
v 27.9 6.2 -2.5
v 27.9 6.1 -2.5
v 28 6.1 -2.5
v 28 6.2 -2.5
v 28 6.2 -2.6
v 28 6.1 -2.6
v 27.9 6.1 -2.6
v 27.9 6.2 -2.6
v 16.7 6.1 -2.6
v 16.7 6 -2.6
v 16.7 6 -2.5
v 16.7 6.1 -2.5
v 16.7 6.1 -2.6
v 16.7 6.1 -2.5
v 16.8 6.1 -2.5
v 16.8 6.1 -2.6
v 16.7 6.1 -2.5
v 16.7 6 -2.5
v 16.8 6 -2.5
v 16.8 6.1 -2.5
v 16.8 6.1 -2.6
v 16.8 6 -2.6
v 16.7 6 -2.6
v 16.7 6.1 -2.6
v 16.8 6.1 -2.5
v 16.8 6 -2.5
v 16.9 6 -2.5
v 16.9 6.1 -2.5
v 16.9 6.1 -2.6
v 16.9 6 -2.6
v 16.8 6 -2.6
v 16.8 6.1 -2.6
v 17 6.1 -2.5
v 17 6 -2.5
v 17 6 -2.6
v 17 6.1 -2.6
v 16.9 6 -2.5
v 16.9 6 -2.6
v 17 6 -2.6
v 17 6 -2.5
v 16.9 6.1 -2.5
v 16.9 6 -2.5
v 17 6 -2.5
v 17 6.1 -2.5
v 17 6.1 -2.6
v 17 6 -2.6
v 16.9 6 -2.6
v 16.9 6.1 -2.6
v 27.8 6.1 -2.6
v 27.8 6 -2.6
v 27.8 6 -2.5
v 27.8 6.1 -2.5
v 27.8 6 -2.5
v 27.8 6 -2.6
v 27.9 6 -2.6
v 27.9 6 -2.5
v 27.8 6.1 -2.5
v 27.8 6 -2.5
v 27.9 6 -2.5
v 27.9 6.1 -2.5
v 27.9 6.1 -2.6
v 27.9 6 -2.6
v 27.8 6 -2.6
v 27.8 6.1 -2.6
v 28 6.1 -2.5
v 28 6 -2.5
v 28 6 -2.6
v 28 6.1 -2.6
v 27.9 6.1 -2.5
v 27.9 6 -2.5
v 28 6 -2.5
v 28 6.1 -2.5
v 28 6.1 -2.6
v 28 6 -2.6
v 27.9 6 -2.6
v 27.9 6.1 -2.6
v 16.7 6 -2.6
v 16.7 5.9 -2.6
v 16.7 5.9 -2.5
v 16.7 6 -2.5
v 16.7 6 -2.5
v 16.7 5.9 -2.5
v 16.8 5.9 -2.5
v 16.8 6 -2.5
v 16.8 6 -2.6
v 16.8 5.9 -2.6
v 16.7 5.9 -2.6
v 16.7 6 -2.6
v 16.9 6 -2.5
v 16.9 5.9 -2.5
v 16.9 5.9 -2.6
v 16.9 6 -2.6
v 16.8 5.9 -2.5
v 16.8 5.9 -2.6
v 16.9 5.9 -2.6
v 16.9 5.9 -2.5
v 16.8 6 -2.5
v 16.8 5.9 -2.5
v 16.9 5.9 -2.5
v 16.9 6 -2.5
v 16.9 6 -2.6
v 16.9 5.9 -2.6
v 16.8 5.9 -2.6
v 16.8 6 -2.6
v 27.9 6 -2.6
v 27.9 5.9 -2.6
v 27.9 5.9 -2.5
v 27.9 6 -2.5
v 27.9 6 -2.5
v 27.9 5.9 -2.5
v 28 5.9 -2.5
v 28 6 -2.5
v 28 6 -2.6
v 28 5.9 -2.6
v 27.9 5.9 -2.6
v 27.9 6 -2.6
v 28.1 6 -2.5
v 28.1 5.9 -2.5
v 28.1 5.9 -2.6
v 28.1 6 -2.6
v 28 6 -2.6
v 28 6 -2.5
v 28.1 6 -2.5
v 28.1 6 -2.6
v 28 6 -2.5
v 28 5.9 -2.5
v 28.1 5.9 -2.5
v 28.1 6 -2.5
v 28.1 6 -2.6
v 28.1 5.9 -2.6
v 28 5.9 -2.6
v 28 6 -2.6
v 16.6 5.9 -2.6
v 16.6 5.8 -2.6
v 16.6 5.8 -2.5
v 16.6 5.9 -2.5
v 16.6 5.9 -2.6
v 16.6 5.9 -2.5
v 16.7 5.9 -2.5
v 16.7 5.9 -2.6
v 16.6 5.9 -2.5
v 16.6 5.8 -2.5
v 16.7 5.8 -2.5
v 16.7 5.9 -2.5
v 16.7 5.9 -2.6
v 16.7 5.8 -2.6
v 16.6 5.8 -2.6
v 16.6 5.9 -2.6
v 16.8 5.9 -2.5
v 16.8 5.8 -2.5
v 16.8 5.8 -2.6
v 16.8 5.9 -2.6
v 16.7 5.9 -2.5
v 16.7 5.8 -2.5
v 16.8 5.8 -2.5
v 16.8 5.9 -2.5
v 16.8 5.9 -2.6
v 16.8 5.8 -2.6
v 16.7 5.8 -2.6
v 16.7 5.9 -2.6
v 27.9 5.9 -2.6
v 27.9 5.8 -2.6
v 27.9 5.8 -2.5
v 27.9 5.9 -2.5
v 27.9 5.9 -2.5
v 27.9 5.8 -2.5
v 28 5.8 -2.5
v 28 5.9 -2.5
v 28 5.9 -2.6
v 28 5.8 -2.6
v 27.9 5.8 -2.6
v 27.9 5.9 -2.6
v 28.1 5.9 -2.5
v 28.1 5.8 -2.5
v 28.1 5.8 -2.6
v 28.1 5.9 -2.6
v 28 5.9 -2.5
v 28 5.8 -2.5
v 28.1 5.8 -2.5
v 28.1 5.9 -2.5
v 28.1 5.9 -2.6
v 28.1 5.8 -2.6
v 28 5.8 -2.6
v 28 5.9 -2.6
v 16.6 5.8 -2.6
v 16.6 5.7 -2.6
v 16.6 5.7 -2.5
v 16.6 5.8 -2.5
v 16.6 5.8 -2.5
v 16.6 5.7 -2.5
v 16.7 5.7 -2.5
v 16.7 5.8 -2.5
v 16.7 5.8 -2.6
v 16.7 5.7 -2.6
v 16.6 5.7 -2.6
v 16.6 5.8 -2.6
v 16.8 5.8 -2.5
v 16.8 5.7 -2.5
v 16.8 5.7 -2.6
v 16.8 5.8 -2.6
v 16.7 5.7 -2.5
v 16.7 5.7 -2.6
v 16.8 5.7 -2.6
v 16.8 5.7 -2.5
v 16.7 5.8 -2.5
v 16.7 5.7 -2.5
v 16.8 5.7 -2.5
v 16.8 5.8 -2.5
v 16.8 5.8 -2.6
v 16.8 5.7 -2.6
v 16.7 5.7 -2.6
v 16.7 5.8 -2.6
v 27.9 5.8 -2.6
v 27.9 5.7 -2.6
v 27.9 5.7 -2.5
v 27.9 5.8 -2.5
v 27.9 5.8 -2.5
v 27.9 5.7 -2.5
v 28 5.7 -2.5
v 28 5.8 -2.5
v 28 5.8 -2.6
v 28 5.7 -2.6
v 27.9 5.7 -2.6
v 27.9 5.8 -2.6
v 28 5.8 -2.5
v 28 5.7 -2.5
v 28.1 5.7 -2.5
v 28.1 5.8 -2.5
v 28.1 5.8 -2.6
v 28.1 5.7 -2.6
v 28 5.7 -2.6
v 28 5.8 -2.6
v 28.2 5.8 -2.5
v 28.2 5.7 -2.5
v 28.2 5.7 -2.6
v 28.2 5.8 -2.6
v 28.1 5.8 -2.6
v 28.1 5.8 -2.5
v 28.2 5.8 -2.5
v 28.2 5.8 -2.6
v 28.1 5.8 -2.5
v 28.1 5.7 -2.5
v 28.2 5.7 -2.5
v 28.2 5.8 -2.5
v 28.2 5.8 -2.6
v 28.2 5.7 -2.6
v 28.1 5.7 -2.6
v 28.1 5.8 -2.6
v 16.6 5.7 -2.6
v 16.6 5.6 -2.6
v 16.6 5.6 -2.5
v 16.6 5.7 -2.5
v 16.7 5.7 -2.5
v 16.7 5.6 -2.5
v 16.7 5.6 -2.6
v 16.7 5.7 -2.6
v 16.6 5.7 -2.5
v 16.6 5.6 -2.5
v 16.7 5.6 -2.5
v 16.7 5.7 -2.5
v 16.7 5.7 -2.6
v 16.7 5.6 -2.6
v 16.6 5.6 -2.6
v 16.6 5.7 -2.6
v 27.9 5.7 -2.6
v 27.9 5.6 -2.6
v 27.9 5.6 -2.5
v 27.9 5.7 -2.5
v 27.9 5.7 -2.5
v 27.9 5.6 -2.5
v 28 5.6 -2.5
v 28 5.7 -2.5
v 28 5.7 -2.6
v 28 5.6 -2.6
v 27.9 5.6 -2.6
v 27.9 5.7 -2.6
v 28 5.7 -2.5
v 28 5.6 -2.5
v 28.1 5.6 -2.5
v 28.1 5.7 -2.5
v 28.1 5.7 -2.6
v 28.1 5.6 -2.6
v 28 5.6 -2.6
v 28 5.7 -2.6
v 28.2 5.7 -2.5
v 28.2 5.6 -2.5
v 28.2 5.6 -2.6
v 28.2 5.7 -2.6
v 28.1 5.7 -2.5
v 28.1 5.6 -2.5
v 28.2 5.6 -2.5
v 28.2 5.7 -2.5
v 28.2 5.7 -2.6
v 28.2 5.6 -2.6
v 28.1 5.6 -2.6
v 28.1 5.7 -2.6
v 16.6 5.6 -2.6
v 16.6 5.5 -2.6
v 16.6 5.5 -2.5
v 16.6 5.6 -2.5
v 16.7 5.6 -2.5
v 16.7 5.5 -2.5
v 16.7 5.5 -2.6
v 16.7 5.6 -2.6
v 16.6 5.6 -2.5
v 16.6 5.5 -2.5
v 16.7 5.5 -2.5
v 16.7 5.6 -2.5
v 16.7 5.6 -2.6
v 16.7 5.5 -2.6
v 16.6 5.5 -2.6
v 16.6 5.6 -2.6
v 27.9 5.6 -2.6
v 27.9 5.5 -2.6
v 27.9 5.5 -2.5
v 27.9 5.6 -2.5
v 27.9 5.6 -2.5
v 27.9 5.5 -2.5
v 28 5.5 -2.5
v 28 5.6 -2.5
v 28 5.6 -2.6
v 28 5.5 -2.6
v 27.9 5.5 -2.6
v 27.9 5.6 -2.6
v 28 5.6 -2.5
v 28 5.5 -2.5
v 28.1 5.5 -2.5
v 28.1 5.6 -2.5
v 28.1 5.6 -2.6
v 28.1 5.5 -2.6
v 28 5.5 -2.6
v 28 5.6 -2.6
v 28.2 5.6 -2.5
v 28.2 5.5 -2.5
v 28.2 5.5 -2.6
v 28.2 5.6 -2.6
v 28.1 5.6 -2.5
v 28.1 5.5 -2.5
v 28.2 5.5 -2.5
v 28.2 5.6 -2.5
v 28.2 5.6 -2.6
v 28.2 5.5 -2.6
v 28.1 5.5 -2.6
v 28.1 5.6 -2.6
v 16.6 5.5 -2.6
v 16.6 5.4 -2.6
v 16.6 5.4 -2.5
v 16.6 5.5 -2.5
v 16.7 5.5 -2.5
v 16.7 5.4 -2.5
v 16.7 5.4 -2.6
v 16.7 5.5 -2.6
v 16.6 5.5 -2.5
v 16.6 5.4 -2.5
v 16.7 5.4 -2.5
v 16.7 5.5 -2.5
v 16.7 5.5 -2.6
v 16.7 5.4 -2.6
v 16.6 5.4 -2.6
v 16.6 5.5 -2.6
v 27.9 5.5 -2.6
v 27.9 5.4 -2.6
v 27.9 5.4 -2.5
v 27.9 5.5 -2.5
v 27.9 5.5 -2.5
v 27.9 5.4 -2.5
v 28 5.4 -2.5
v 28 5.5 -2.5
v 28 5.5 -2.6
v 28 5.4 -2.6
v 27.9 5.4 -2.6
v 27.9 5.5 -2.6
v 28 5.5 -2.5
v 28 5.4 -2.5
v 28.1 5.4 -2.5
v 28.1 5.5 -2.5
v 28.1 5.5 -2.6
v 28.1 5.4 -2.6
v 28 5.4 -2.6
v 28 5.5 -2.6
v 28.1 5.5 -2.5
v 28.1 5.4 -2.5
v 28.2 5.4 -2.5
v 28.2 5.5 -2.5
v 28.2 5.5 -2.6
v 28.2 5.4 -2.6
v 28.1 5.4 -2.6
v 28.1 5.5 -2.6
v 28.3 5.5 -2.5
v 28.3 5.4 -2.5
v 28.3 5.4 -2.6
v 28.3 5.5 -2.6
v 28.2 5.5 -2.6
v 28.2 5.5 -2.5
v 28.3 5.5 -2.5
v 28.3 5.5 -2.6
v 28.2 5.5 -2.5
v 28.2 5.4 -2.5
v 28.3 5.4 -2.5
v 28.3 5.5 -2.5
v 28.3 5.5 -2.6
v 28.3 5.4 -2.6
v 28.2 5.4 -2.6
v 28.2 5.5 -2.6
v 16.6 5.4 -2.6
v 16.6 5.3 -2.6
v 16.6 5.3 -2.5
v 16.6 5.4 -2.5
v 16.7 5.4 -2.5
v 16.7 5.3 -2.5
v 16.7 5.3 -2.6
v 16.7 5.4 -2.6
v 16.6 5.4 -2.5
v 16.6 5.3 -2.5
v 16.7 5.3 -2.5
v 16.7 5.4 -2.5
v 16.7 5.4 -2.6
v 16.7 5.3 -2.6
v 16.6 5.3 -2.6
v 16.6 5.4 -2.6
v 27.9 5.4 -2.6
v 27.9 5.3 -2.6
v 27.9 5.3 -2.5
v 27.9 5.4 -2.5
v 27.9 5.4 -2.5
v 27.9 5.3 -2.5
v 28 5.3 -2.5
v 28 5.4 -2.5
v 28 5.4 -2.6
v 28 5.3 -2.6
v 27.9 5.3 -2.6
v 27.9 5.4 -2.6
v 28 5.4 -2.5
v 28 5.3 -2.5
v 28.1 5.3 -2.5
v 28.1 5.4 -2.5
v 28.1 5.4 -2.6
v 28.1 5.3 -2.6
v 28 5.3 -2.6
v 28 5.4 -2.6
v 28.1 5.4 -2.5
v 28.1 5.3 -2.5
v 28.2 5.3 -2.5
v 28.2 5.4 -2.5
v 28.2 5.4 -2.6
v 28.2 5.3 -2.6
v 28.1 5.3 -2.6
v 28.1 5.4 -2.6
v 28.3 5.4 -2.5
v 28.3 5.3 -2.5
v 28.3 5.3 -2.6
v 28.3 5.4 -2.6
v 28.2 5.4 -2.5
v 28.2 5.3 -2.5
v 28.3 5.3 -2.5
v 28.3 5.4 -2.5
v 28.3 5.4 -2.6
v 28.3 5.3 -2.6
v 28.2 5.3 -2.6
v 28.2 5.4 -2.6
v 16.6 5.3 -2.6
v 16.6 5.2 -2.6
v 16.6 5.2 -2.5
v 16.6 5.3 -2.5
v 16.7 5.3 -2.5
v 16.7 5.2 -2.5
v 16.7 5.2 -2.6
v 16.7 5.3 -2.6
v 16.6 5.2 -2.5
v 16.6 5.2 -2.6
v 16.7 5.2 -2.6
v 16.7 5.2 -2.5
v 16.6 5.3 -2.5
v 16.6 5.2 -2.5
v 16.7 5.2 -2.5
v 16.7 5.3 -2.5
v 16.7 5.3 -2.6
v 16.7 5.2 -2.6
v 16.6 5.2 -2.6
v 16.6 5.3 -2.6
v 27.8 5.3 -2.6
v 27.8 5.2 -2.6
v 27.8 5.2 -2.5
v 27.8 5.3 -2.5
v 27.8 5.3 -2.6
v 27.8 5.3 -2.5
v 27.9 5.3 -2.5
v 27.9 5.3 -2.6
v 27.8 5.3 -2.5
v 27.8 5.2 -2.5
v 27.9 5.2 -2.5
v 27.9 5.3 -2.5
v 27.9 5.3 -2.6
v 27.9 5.2 -2.6
v 27.8 5.2 -2.6
v 27.8 5.3 -2.6
v 27.9 5.3 -2.5
v 27.9 5.2 -2.5
v 28 5.2 -2.5
v 28 5.3 -2.5
v 28 5.3 -2.6
v 28 5.2 -2.6
v 27.9 5.2 -2.6
v 27.9 5.3 -2.6
v 28 5.3 -2.5
v 28 5.2 -2.5
v 28.1 5.2 -2.5
v 28.1 5.3 -2.5
v 28.1 5.3 -2.6
v 28.1 5.2 -2.6
v 28 5.2 -2.6
v 28 5.3 -2.6
v 28.1 5.3 -2.5
v 28.1 5.2 -2.5
v 28.2 5.2 -2.5
v 28.2 5.3 -2.5
v 28.2 5.3 -2.6
v 28.2 5.2 -2.6
v 28.1 5.2 -2.6
v 28.1 5.3 -2.6
v 28.3 5.3 -2.5
v 28.3 5.2 -2.5
v 28.3 5.2 -2.6
v 28.3 5.3 -2.6
v 28.2 5.3 -2.5
v 28.2 5.2 -2.5
v 28.3 5.2 -2.5
v 28.3 5.3 -2.5
v 28.3 5.3 -2.6
v 28.3 5.2 -2.6
v 28.2 5.2 -2.6
v 28.2 5.3 -2.6
v 27.8 5.2 -2.6
v 27.8 5.1 -2.6
v 27.8 5.1 -2.5
v 27.8 5.2 -2.5
v 27.8 5.2 -2.5
v 27.8 5.1 -2.5
v 27.9 5.1 -2.5
v 27.9 5.2 -2.5
v 27.9 5.2 -2.6
v 27.9 5.1 -2.6
v 27.8 5.1 -2.6
v 27.8 5.2 -2.6
v 27.9 5.2 -2.5
v 27.9 5.1 -2.5
v 28 5.1 -2.5
v 28 5.2 -2.5
v 28 5.2 -2.6
v 28 5.1 -2.6
v 27.9 5.1 -2.6
v 27.9 5.2 -2.6
v 28 5.2 -2.5
v 28 5.1 -2.5
v 28.1 5.1 -2.5
v 28.1 5.2 -2.5
v 28.1 5.2 -2.6
v 28.1 5.1 -2.6
v 28 5.1 -2.6
v 28 5.2 -2.6
v 28.1 5.2 -2.5
v 28.1 5.1 -2.5
v 28.2 5.1 -2.5
v 28.2 5.2 -2.5
v 28.2 5.2 -2.6
v 28.2 5.1 -2.6
v 28.1 5.1 -2.6
v 28.1 5.2 -2.6
v 28.3 5.2 -2.5
v 28.3 5.1 -2.5
v 28.3 5.1 -2.6
v 28.3 5.2 -2.6
v 28.2 5.2 -2.5
v 28.2 5.1 -2.5
v 28.3 5.1 -2.5
v 28.3 5.2 -2.5
v 28.3 5.2 -2.6
v 28.3 5.1 -2.6
v 28.2 5.1 -2.6
v 28.2 5.2 -2.6
v 27.8 5.1 -2.6
v 27.8 5 -2.6
v 27.8 5 -2.5
v 27.8 5.1 -2.5
v 27.8 5.1 -2.5
v 27.8 5 -2.5
v 27.9 5 -2.5
v 27.9 5.1 -2.5
v 27.9 5.1 -2.6
v 27.9 5 -2.6
v 27.8 5 -2.6
v 27.8 5.1 -2.6
v 27.9 5.1 -2.5
v 27.9 5 -2.5
v 28 5 -2.5
v 28 5.1 -2.5
v 28 5.1 -2.6
v 28 5 -2.6
v 27.9 5 -2.6
v 27.9 5.1 -2.6
v 28 5.1 -2.5
v 28 5 -2.5
v 28.1 5 -2.5
v 28.1 5.1 -2.5
v 28.1 5.1 -2.6
v 28.1 5 -2.6
v 28 5 -2.6
v 28 5.1 -2.6
v 28.1 5.1 -2.5
v 28.1 5 -2.5
v 28.2 5 -2.5
v 28.2 5.1 -2.5
v 28.2 5.1 -2.6
v 28.2 5 -2.6
v 28.1 5 -2.6
v 28.1 5.1 -2.6
v 28.3 5.1 -2.5
v 28.3 5 -2.5
v 28.3 5 -2.6
v 28.3 5.1 -2.6
v 28.2 5.1 -2.5
v 28.2 5 -2.5
v 28.3 5 -2.5
v 28.3 5.1 -2.5
v 28.3 5.1 -2.6
v 28.3 5 -2.6
v 28.2 5 -2.6
v 28.2 5.1 -2.6
v 16.7 5 -2.6
v 16.7 4.9 -2.6
v 16.7 4.9 -2.5
v 16.7 5 -2.5
v 16.8 5 -2.5
v 16.8 4.9 -2.5
v 16.8 4.9 -2.6
v 16.8 5 -2.6
v 16.7 5 -2.6
v 16.7 5 -2.5
v 16.8 5 -2.5
v 16.8 5 -2.6
v 16.7 4.9 -2.5
v 16.7 4.9 -2.6
v 16.8 4.9 -2.6
v 16.8 4.9 -2.5
v 16.7 5 -2.5
v 16.7 4.9 -2.5
v 16.8 4.9 -2.5
v 16.8 5 -2.5
v 16.8 5 -2.6
v 16.8 4.9 -2.6
v 16.7 4.9 -2.6
v 16.7 5 -2.6
v 27.7 5 -2.6
v 27.7 4.9 -2.6
v 27.7 4.9 -2.5
v 27.7 5 -2.5
v 27.7 5 -2.6
v 27.7 5 -2.5
v 27.8 5 -2.5
v 27.8 5 -2.6
v 27.7 5 -2.5
v 27.7 4.9 -2.5
v 27.8 4.9 -2.5
v 27.8 5 -2.5
v 27.8 5 -2.6
v 27.8 4.9 -2.6
v 27.7 4.9 -2.6
v 27.7 5 -2.6
v 27.8 5 -2.5
v 27.8 4.9 -2.5
v 27.9 4.9 -2.5
v 27.9 5 -2.5
v 27.9 5 -2.6
v 27.9 4.9 -2.6
v 27.8 4.9 -2.6
v 27.8 5 -2.6
v 27.9 5 -2.5
v 27.9 4.9 -2.5
v 28 4.9 -2.5
v 28 5 -2.5
v 28 5 -2.6
v 28 4.9 -2.6
v 27.9 4.9 -2.6
v 27.9 5 -2.6
v 28 5 -2.5
v 28 4.9 -2.5
v 28.1 4.9 -2.5
v 28.1 5 -2.5
v 28.1 5 -2.6
v 28.1 4.9 -2.6
v 28 4.9 -2.6
v 28 5 -2.6
v 28.1 5 -2.5
v 28.1 4.9 -2.5
v 28.2 4.9 -2.5
v 28.2 5 -2.5
v 28.2 5 -2.6
v 28.2 4.9 -2.6
v 28.1 4.9 -2.6
v 28.1 5 -2.6
v 28.3 5 -2.5
v 28.3 4.9 -2.5
v 28.3 4.9 -2.6
v 28.3 5 -2.6
v 28.2 5 -2.5
v 28.2 4.9 -2.5
v 28.3 4.9 -2.5
v 28.3 5 -2.5
v 28.3 5 -2.6
v 28.3 4.9 -2.6
v 28.2 4.9 -2.6
v 28.2 5 -2.6
v 27.6 4.9 -2.6
v 27.6 4.8 -2.6
v 27.6 4.8 -2.5
v 27.6 4.9 -2.5
v 27.6 4.9 -2.6
v 27.6 4.9 -2.5
v 27.7 4.9 -2.5
v 27.7 4.9 -2.6
v 27.6 4.9 -2.5
v 27.6 4.8 -2.5
v 27.7 4.8 -2.5
v 27.7 4.9 -2.5
v 27.7 4.9 -2.6
v 27.7 4.8 -2.6
v 27.6 4.8 -2.6
v 27.6 4.9 -2.6
v 27.7 4.9 -2.5
v 27.7 4.8 -2.5
v 27.8 4.8 -2.5
v 27.8 4.9 -2.5
v 27.8 4.9 -2.6
v 27.8 4.8 -2.6
v 27.7 4.8 -2.6
v 27.7 4.9 -2.6
v 27.8 4.9 -2.5
v 27.8 4.8 -2.5
v 27.9 4.8 -2.5
v 27.9 4.9 -2.5
v 27.9 4.9 -2.6
v 27.9 4.8 -2.6
v 27.8 4.8 -2.6
v 27.8 4.9 -2.6
v 27.9 4.9 -2.5
v 27.9 4.8 -2.5
v 28 4.8 -2.5
v 28 4.9 -2.5
v 28 4.9 -2.6
v 28 4.8 -2.6
v 27.9 4.8 -2.6
v 27.9 4.9 -2.6
v 28 4.9 -2.5
v 28 4.8 -2.5
v 28.1 4.8 -2.5
v 28.1 4.9 -2.5
v 28.1 4.9 -2.6
v 28.1 4.8 -2.6
v 28 4.8 -2.6
v 28 4.9 -2.6
v 28.1 4.9 -2.5
v 28.1 4.8 -2.5
v 28.2 4.8 -2.5
v 28.2 4.9 -2.5
v 28.2 4.9 -2.6
v 28.2 4.8 -2.6
v 28.1 4.8 -2.6
v 28.1 4.9 -2.6
v 28.2 4.9 -2.5
v 28.2 4.8 -2.5
v 28.3 4.8 -2.5
v 28.3 4.9 -2.5
v 28.3 4.9 -2.6
v 28.3 4.8 -2.6
v 28.2 4.8 -2.6
v 28.2 4.9 -2.6
v 28.4 4.9 -2.5
v 28.4 4.8 -2.5
v 28.4 4.8 -2.6
v 28.4 4.9 -2.6
v 28.3 4.9 -2.6
v 28.3 4.9 -2.5
v 28.4 4.9 -2.5
v 28.4 4.9 -2.6
v 28.3 4.9 -2.5
v 28.3 4.8 -2.5
v 28.4 4.8 -2.5
v 28.4 4.9 -2.5
v 28.4 4.9 -2.6
v 28.4 4.8 -2.6
v 28.3 4.8 -2.6
v 28.3 4.9 -2.6
v 27.6 4.8 -2.6
v 27.6 4.7 -2.6
v 27.6 4.7 -2.5
v 27.6 4.8 -2.5
v 27.6 4.8 -2.5
v 27.6 4.7 -2.5
v 27.7 4.7 -2.5
v 27.7 4.8 -2.5
v 27.7 4.8 -2.6
v 27.7 4.7 -2.6
v 27.6 4.7 -2.6
v 27.6 4.8 -2.6
v 27.7 4.8 -2.5
v 27.7 4.7 -2.5
v 27.8 4.7 -2.5
v 27.8 4.8 -2.5
v 27.8 4.8 -2.6
v 27.8 4.7 -2.6
v 27.7 4.7 -2.6
v 27.7 4.8 -2.6
v 27.8 4.8 -2.5
v 27.8 4.7 -2.5
v 27.9 4.7 -2.5
v 27.9 4.8 -2.5
v 27.9 4.8 -2.6
v 27.9 4.7 -2.6
v 27.8 4.7 -2.6
v 27.8 4.8 -2.6
v 27.9 4.8 -2.5
v 27.9 4.7 -2.5
v 28 4.7 -2.5
v 28 4.8 -2.5
v 28 4.8 -2.6
v 28 4.7 -2.6
v 27.9 4.7 -2.6
v 27.9 4.8 -2.6
v 28 4.7 -2.5
v 28 4.7 -2.6
v 28.1 4.7 -2.6
v 28.1 4.7 -2.5
v 28 4.8 -2.5
v 28 4.7 -2.5
v 28.1 4.7 -2.5
v 28.1 4.8 -2.5
v 28.1 4.8 -2.6
v 28.1 4.7 -2.6
v 28 4.7 -2.6
v 28 4.8 -2.6
v 28.1 4.8 -2.5
v 28.1 4.7 -2.5
v 28.2 4.7 -2.5
v 28.2 4.8 -2.5
v 28.2 4.8 -2.6
v 28.2 4.7 -2.6
v 28.1 4.7 -2.6
v 28.1 4.8 -2.6
v 28.2 4.8 -2.5
v 28.2 4.7 -2.5
v 28.3 4.7 -2.5
v 28.3 4.8 -2.5
v 28.3 4.8 -2.6
v 28.3 4.7 -2.6
v 28.2 4.7 -2.6
v 28.2 4.8 -2.6
v 28.4 4.8 -2.5
v 28.4 4.7 -2.5
v 28.4 4.7 -2.6
v 28.4 4.8 -2.6
v 28.3 4.8 -2.5
v 28.3 4.7 -2.5
v 28.4 4.7 -2.5
v 28.4 4.8 -2.5
v 28.4 4.8 -2.6
v 28.4 4.7 -2.6
v 28.3 4.7 -2.6
v 28.3 4.8 -2.6
v 27.5 4.7 -2.6
v 27.5 4.6 -2.6
v 27.5 4.6 -2.5
v 27.5 4.7 -2.5
v 27.5 4.7 -2.6
v 27.5 4.7 -2.5
v 27.6 4.7 -2.5
v 27.6 4.7 -2.6
v 27.5 4.7 -2.5
v 27.5 4.6 -2.5
v 27.6 4.6 -2.5
v 27.6 4.7 -2.5
v 27.6 4.7 -2.6
v 27.6 4.6 -2.6
v 27.5 4.6 -2.6
v 27.5 4.7 -2.6
v 27.6 4.7 -2.5
v 27.6 4.6 -2.5
v 27.7 4.6 -2.5
v 27.7 4.7 -2.5
v 27.7 4.7 -2.6
v 27.7 4.6 -2.6
v 27.6 4.6 -2.6
v 27.6 4.7 -2.6
v 27.7 4.7 -2.5
v 27.7 4.6 -2.5
v 27.8 4.6 -2.5
v 27.8 4.7 -2.5
v 27.8 4.7 -2.6
v 27.8 4.6 -2.6
v 27.7 4.6 -2.6
v 27.7 4.7 -2.6
v 27.8 4.6 -2.5
v 27.8 4.6 -2.6
v 27.9 4.6 -2.6
v 27.9 4.6 -2.5
v 27.8 4.7 -2.5
v 27.8 4.6 -2.5
v 27.9 4.6 -2.5
v 27.9 4.7 -2.5
v 27.9 4.7 -2.6
v 27.9 4.6 -2.6
v 27.8 4.6 -2.6
v 27.8 4.7 -2.6
v 28 4.7 -2.5
v 28 4.6 -2.5
v 28 4.6 -2.6
v 28 4.7 -2.6
v 27.9 4.6 -2.5
v 27.9 4.6 -2.6
v 28 4.6 -2.6
v 28 4.6 -2.5
v 27.9 4.7 -2.5
v 27.9 4.6 -2.5
v 28 4.6 -2.5
v 28 4.7 -2.5
v 28 4.7 -2.6
v 28 4.6 -2.6
v 27.9 4.6 -2.6
v 27.9 4.7 -2.6
v 28.1 4.7 -2.6
v 28.1 4.6 -2.6
v 28.1 4.6 -2.5
v 28.1 4.7 -2.5
v 28.1 4.7 -2.5
v 28.1 4.6 -2.5
v 28.2 4.6 -2.5
v 28.2 4.7 -2.5
v 28.2 4.7 -2.6
v 28.2 4.6 -2.6
v 28.1 4.6 -2.6
v 28.1 4.7 -2.6
v 28.2 4.7 -2.5
v 28.2 4.6 -2.5
v 28.3 4.6 -2.5
v 28.3 4.7 -2.5
v 28.3 4.7 -2.6
v 28.3 4.6 -2.6
v 28.2 4.6 -2.6
v 28.2 4.7 -2.6
v 28.4 4.7 -2.5
v 28.4 4.6 -2.5
v 28.4 4.6 -2.6
v 28.4 4.7 -2.6
v 28.3 4.7 -2.5
v 28.3 4.6 -2.5
v 28.4 4.6 -2.5
v 28.4 4.7 -2.5
v 28.4 4.7 -2.6
v 28.4 4.6 -2.6
v 28.3 4.6 -2.6
v 28.3 4.7 -2.6
v 27.4 4.6 -2.6
v 27.4 4.5 -2.6
v 27.4 4.5 -2.5
v 27.4 4.6 -2.5
v 27.4 4.6 -2.6
v 27.4 4.6 -2.5
v 27.5 4.6 -2.5
v 27.5 4.6 -2.6
v 27.4 4.6 -2.5
v 27.4 4.5 -2.5
v 27.5 4.5 -2.5
v 27.5 4.6 -2.5
v 27.5 4.6 -2.6
v 27.5 4.5 -2.6
v 27.4 4.5 -2.6
v 27.4 4.6 -2.6
v 27.5 4.6 -2.5
v 27.5 4.5 -2.5
v 27.6 4.5 -2.5
v 27.6 4.6 -2.5
v 27.6 4.6 -2.6
v 27.6 4.5 -2.6
v 27.5 4.5 -2.6
v 27.5 4.6 -2.6
v 27.6 4.6 -2.5
v 27.6 4.5 -2.5
v 27.7 4.5 -2.5
v 27.7 4.6 -2.5
v 27.7 4.6 -2.6
v 27.7 4.5 -2.6
v 27.6 4.5 -2.6
v 27.6 4.6 -2.6
v 27.8 4.6 -2.5
v 27.8 4.5 -2.5
v 27.8 4.5 -2.6
v 27.8 4.6 -2.6
v 27.7 4.5 -2.5
v 27.7 4.5 -2.6
v 27.8 4.5 -2.6
v 27.8 4.5 -2.5
v 27.7 4.6 -2.5
v 27.7 4.5 -2.5
v 27.8 4.5 -2.5
v 27.8 4.6 -2.5
v 27.8 4.6 -2.6
v 27.8 4.5 -2.6
v 27.7 4.5 -2.6
v 27.7 4.6 -2.6
v 28.1 4.6 -2.6
v 28.1 4.5 -2.6
v 28.1 4.5 -2.5
v 28.1 4.6 -2.5
v 28.1 4.5 -2.5
v 28.1 4.5 -2.6
v 28.2 4.5 -2.6
v 28.2 4.5 -2.5
v 28.1 4.6 -2.5
v 28.1 4.5 -2.5
v 28.2 4.5 -2.5
v 28.2 4.6 -2.5
v 28.2 4.6 -2.6
v 28.2 4.5 -2.6
v 28.1 4.5 -2.6
v 28.1 4.6 -2.6
v 28.2 4.6 -2.5
v 28.2 4.5 -2.5
v 28.3 4.5 -2.5
v 28.3 4.6 -2.5
v 28.3 4.6 -2.6
v 28.3 4.5 -2.6
v 28.2 4.5 -2.6
v 28.2 4.6 -2.6
v 28.4 4.6 -2.5
v 28.4 4.5 -2.5
v 28.4 4.5 -2.6
v 28.4 4.6 -2.6
v 28.3 4.6 -2.5
v 28.3 4.5 -2.5
v 28.4 4.5 -2.5
v 28.4 4.6 -2.5
v 28.4 4.6 -2.6
v 28.4 4.5 -2.6
v 28.3 4.5 -2.6
v 28.3 4.6 -2.6
v 27.2 4.5 -2.6
v 27.2 4.4 -2.6
v 27.2 4.4 -2.5
v 27.2 4.5 -2.5
v 27.2 4.5 -2.6
v 27.2 4.5 -2.5
v 27.3 4.5 -2.5
v 27.3 4.5 -2.6
v 27.2 4.5 -2.5
v 27.2 4.4 -2.5
v 27.3 4.4 -2.5
v 27.3 4.5 -2.5
v 27.3 4.5 -2.6
v 27.3 4.4 -2.6
v 27.2 4.4 -2.6
v 27.2 4.5 -2.6
v 27.3 4.5 -2.6
v 27.3 4.5 -2.5
v 27.4 4.5 -2.5
v 27.4 4.5 -2.6
v 27.3 4.5 -2.5
v 27.3 4.4 -2.5
v 27.4 4.4 -2.5
v 27.4 4.5 -2.5
v 27.4 4.5 -2.6
v 27.4 4.4 -2.6
v 27.3 4.4 -2.6
v 27.3 4.5 -2.6
v 27.4 4.5 -2.5
v 27.4 4.4 -2.5
v 27.5 4.4 -2.5
v 27.5 4.5 -2.5
v 27.5 4.5 -2.6
v 27.5 4.4 -2.6
v 27.4 4.4 -2.6
v 27.4 4.5 -2.6
v 27.5 4.4 -2.5
v 27.5 4.4 -2.6
v 27.6 4.4 -2.6
v 27.6 4.4 -2.5
v 27.5 4.5 -2.5
v 27.5 4.4 -2.5
v 27.6 4.4 -2.5
v 27.6 4.5 -2.5
v 27.6 4.5 -2.6
v 27.6 4.4 -2.6
v 27.5 4.4 -2.6
v 27.5 4.5 -2.6
v 27.7 4.5 -2.5
v 27.7 4.4 -2.5
v 27.7 4.4 -2.6
v 27.7 4.5 -2.6
v 27.6 4.4 -2.5
v 27.6 4.4 -2.6
v 27.7 4.4 -2.6
v 27.7 4.4 -2.5
v 27.6 4.5 -2.5
v 27.6 4.4 -2.5
v 27.7 4.4 -2.5
v 27.7 4.5 -2.5
v 27.7 4.5 -2.6
v 27.7 4.4 -2.6
v 27.6 4.4 -2.6
v 27.6 4.5 -2.6
v 28.2 4.5 -2.6
v 28.2 4.4 -2.6
v 28.2 4.4 -2.5
v 28.2 4.5 -2.5
v 28.2 4.5 -2.5
v 28.2 4.4 -2.5
v 28.3 4.4 -2.5
v 28.3 4.5 -2.5
v 28.3 4.5 -2.6
v 28.3 4.4 -2.6
v 28.2 4.4 -2.6
v 28.2 4.5 -2.6
v 28.4 4.5 -2.5
v 28.4 4.4 -2.5
v 28.4 4.4 -2.6
v 28.4 4.5 -2.6
v 28.3 4.5 -2.5
v 28.3 4.4 -2.5
v 28.4 4.4 -2.5
v 28.4 4.5 -2.5
v 28.4 4.5 -2.6
v 28.4 4.4 -2.6
v 28.3 4.4 -2.6
v 28.3 4.5 -2.6
v 27 4.4 -2.6
v 27 4.3 -2.6
v 27 4.3 -2.5
v 27 4.4 -2.5
v 27 4.4 -2.6
v 27 4.4 -2.5
v 27.1 4.4 -2.5
v 27.1 4.4 -2.6
v 27 4.4 -2.5
v 27 4.3 -2.5
v 27.1 4.3 -2.5
v 27.1 4.4 -2.5
v 27.1 4.4 -2.6
v 27.1 4.3 -2.6
v 27 4.3 -2.6
v 27 4.4 -2.6
v 27.1 4.4 -2.6
v 27.1 4.4 -2.5
v 27.2 4.4 -2.5
v 27.2 4.4 -2.6
v 27.1 4.4 -2.5
v 27.1 4.3 -2.5
v 27.2 4.3 -2.5
v 27.2 4.4 -2.5
v 27.2 4.4 -2.6
v 27.2 4.3 -2.6
v 27.1 4.3 -2.6
v 27.1 4.4 -2.6
v 27.2 4.3 -2.5
v 27.2 4.3 -2.6
v 27.3 4.3 -2.6
v 27.3 4.3 -2.5
v 27.2 4.4 -2.5
v 27.2 4.3 -2.5
v 27.3 4.3 -2.5
v 27.3 4.4 -2.5
v 27.3 4.4 -2.6
v 27.3 4.3 -2.6
v 27.2 4.3 -2.6
v 27.2 4.4 -2.6
v 27.3 4.3 -2.5
v 27.3 4.3 -2.6
v 27.4 4.3 -2.6
v 27.4 4.3 -2.5
v 27.3 4.4 -2.5
v 27.3 4.3 -2.5
v 27.4 4.3 -2.5
v 27.4 4.4 -2.5
v 27.4 4.4 -2.6
v 27.4 4.3 -2.6
v 27.3 4.3 -2.6
v 27.3 4.4 -2.6
v 27.5 4.4 -2.5
v 27.5 4.3 -2.5
v 27.5 4.3 -2.6
v 27.5 4.4 -2.6
v 27.4 4.3 -2.5
v 27.4 4.3 -2.6
v 27.5 4.3 -2.6
v 27.5 4.3 -2.5
v 27.4 4.4 -2.5
v 27.4 4.3 -2.5
v 27.5 4.3 -2.5
v 27.5 4.4 -2.5
v 27.5 4.4 -2.6
v 27.5 4.3 -2.6
v 27.4 4.3 -2.6
v 27.4 4.4 -2.6
v 28.2 4.4 -2.6
v 28.2 4.3 -2.6
v 28.2 4.3 -2.5
v 28.2 4.4 -2.5
v 28.2 4.4 -2.5
v 28.2 4.3 -2.5
v 28.3 4.3 -2.5
v 28.3 4.4 -2.5
v 28.3 4.4 -2.6
v 28.3 4.3 -2.6
v 28.2 4.3 -2.6
v 28.2 4.4 -2.6
v 28.4 4.4 -2.5
v 28.4 4.3 -2.5
v 28.4 4.3 -2.6
v 28.4 4.4 -2.6
v 28.3 4.4 -2.5
v 28.3 4.3 -2.5
v 28.4 4.3 -2.5
v 28.4 4.4 -2.5
v 28.4 4.4 -2.6
v 28.4 4.3 -2.6
v 28.3 4.3 -2.6
v 28.3 4.4 -2.6
v 26.7 4.3 -2.6
v 26.7 4.2 -2.6
v 26.7 4.2 -2.5
v 26.7 4.3 -2.5
v 26.7 4.3 -2.6
v 26.7 4.3 -2.5
v 26.8 4.3 -2.5
v 26.8 4.3 -2.6
v 26.7 4.3 -2.5
v 26.7 4.2 -2.5
v 26.8 4.2 -2.5
v 26.8 4.3 -2.5
v 26.8 4.3 -2.6
v 26.8 4.2 -2.6
v 26.7 4.2 -2.6
v 26.7 4.3 -2.6
v 26.8 4.3 -2.6
v 26.8 4.3 -2.5
v 26.9 4.3 -2.5
v 26.9 4.3 -2.6
v 26.8 4.2 -2.5
v 26.8 4.2 -2.6
v 26.9 4.2 -2.6
v 26.9 4.2 -2.5
v 26.8 4.3 -2.5
v 26.8 4.2 -2.5
v 26.9 4.2 -2.5
v 26.9 4.3 -2.5
v 26.9 4.3 -2.6
v 26.9 4.2 -2.6
v 26.8 4.2 -2.6
v 26.8 4.3 -2.6
v 26.9 4.3 -2.6
v 26.9 4.3 -2.5
v 27 4.3 -2.5
v 27 4.3 -2.6
v 26.9 4.2 -2.5
v 26.9 4.2 -2.6
v 27 4.2 -2.6
v 27 4.2 -2.5
v 26.9 4.3 -2.5
v 26.9 4.2 -2.5
v 27 4.2 -2.5
v 27 4.3 -2.5
v 27 4.3 -2.6
v 27 4.2 -2.6
v 26.9 4.2 -2.6
v 26.9 4.3 -2.6
v 27 4.2 -2.5
v 27 4.2 -2.6
v 27.1 4.2 -2.6
v 27.1 4.2 -2.5
v 27 4.3 -2.5
v 27 4.2 -2.5
v 27.1 4.2 -2.5
v 27.1 4.3 -2.5
v 27.1 4.3 -2.6
v 27.1 4.2 -2.6
v 27 4.2 -2.6
v 27 4.3 -2.6
v 27.2 4.3 -2.5
v 27.2 4.2 -2.5
v 27.2 4.2 -2.6
v 27.2 4.3 -2.6
v 27.1 4.2 -2.5
v 27.1 4.2 -2.6
v 27.2 4.2 -2.6
v 27.2 4.2 -2.5
v 27.1 4.3 -2.5
v 27.1 4.2 -2.5
v 27.2 4.2 -2.5
v 27.2 4.3 -2.5
v 27.2 4.3 -2.6
v 27.2 4.2 -2.6
v 27.1 4.2 -2.6
v 27.1 4.3 -2.6
v 28.2 4.3 -2.6
v 28.2 4.2 -2.6
v 28.2 4.2 -2.5
v 28.2 4.3 -2.5
v 28.2 4.3 -2.5
v 28.2 4.2 -2.5
v 28.3 4.2 -2.5
v 28.3 4.3 -2.5
v 28.3 4.3 -2.6
v 28.3 4.2 -2.6
v 28.2 4.2 -2.6
v 28.2 4.3 -2.6
v 28.4 4.3 -2.5
v 28.4 4.2 -2.5
v 28.4 4.2 -2.6
v 28.4 4.3 -2.6
v 28.3 4.3 -2.5
v 28.3 4.2 -2.5
v 28.4 4.2 -2.5
v 28.4 4.3 -2.5
v 28.4 4.3 -2.6
v 28.4 4.2 -2.6
v 28.3 4.2 -2.6
v 28.3 4.3 -2.6
v 26.1 4.2 -2.6
v 26.1 4.1 -2.6
v 26.1 4.1 -2.5
v 26.1 4.2 -2.5
v 26.2 4.2 -2.5
v 26.2 4.1 -2.5
v 26.2 4.1 -2.6
v 26.2 4.2 -2.6
v 26.1 4.2 -2.6
v 26.1 4.2 -2.5
v 26.2 4.2 -2.5
v 26.2 4.2 -2.6
v 26.1 4.1 -2.5
v 26.1 4.1 -2.6
v 26.2 4.1 -2.6
v 26.2 4.1 -2.5
v 26.1 4.2 -2.5
v 26.1 4.1 -2.5
v 26.2 4.1 -2.5
v 26.2 4.2 -2.5
v 26.2 4.2 -2.6
v 26.2 4.1 -2.6
v 26.1 4.1 -2.6
v 26.1 4.2 -2.6
v 26.4 4.2 -2.6
v 26.4 4.1 -2.6
v 26.4 4.1 -2.5
v 26.4 4.2 -2.5
v 26.4 4.2 -2.6
v 26.4 4.2 -2.5
v 26.5 4.2 -2.5
v 26.5 4.2 -2.6
v 26.4 4.1 -2.5
v 26.4 4.1 -2.6
v 26.5 4.1 -2.6
v 26.5 4.1 -2.5
v 26.4 4.2 -2.5
v 26.4 4.1 -2.5
v 26.5 4.1 -2.5
v 26.5 4.2 -2.5
v 26.5 4.2 -2.6
v 26.5 4.1 -2.6
v 26.4 4.1 -2.6
v 26.4 4.2 -2.6
v 26.5 4.2 -2.6
v 26.5 4.2 -2.5
v 26.6 4.2 -2.5
v 26.6 4.2 -2.6
v 26.5 4.1 -2.5
v 26.5 4.1 -2.6
v 26.6 4.1 -2.6
v 26.6 4.1 -2.5
v 26.5 4.2 -2.5
v 26.5 4.1 -2.5
v 26.6 4.1 -2.5
v 26.6 4.2 -2.5
v 26.6 4.2 -2.6
v 26.6 4.1 -2.6
v 26.5 4.1 -2.6
v 26.5 4.2 -2.6
v 26.6 4.2 -2.6
v 26.6 4.2 -2.5
v 26.7 4.2 -2.5
v 26.7 4.2 -2.6
v 26.6 4.1 -2.5
v 26.6 4.1 -2.6
v 26.7 4.1 -2.6
v 26.7 4.1 -2.5
v 26.6 4.2 -2.5
v 26.6 4.1 -2.5
v 26.7 4.1 -2.5
v 26.7 4.2 -2.5
v 26.7 4.2 -2.6
v 26.7 4.1 -2.6
v 26.6 4.1 -2.6
v 26.6 4.2 -2.6
v 26.8 4.2 -2.5
v 26.8 4.1 -2.5
v 26.8 4.1 -2.6
v 26.8 4.2 -2.6
v 26.7 4.1 -2.5
v 26.7 4.1 -2.6
v 26.8 4.1 -2.6
v 26.8 4.1 -2.5
v 26.7 4.2 -2.5
v 26.7 4.1 -2.5
v 26.8 4.1 -2.5
v 26.8 4.2 -2.5
v 26.8 4.2 -2.6
v 26.8 4.1 -2.6
v 26.7 4.1 -2.6
v 26.7 4.2 -2.6
v 28.2 4.2 -2.6
v 28.2 4.1 -2.6
v 28.2 4.1 -2.5
v 28.2 4.2 -2.5
v 28.2 4.2 -2.5
v 28.2 4.1 -2.5
v 28.3 4.1 -2.5
v 28.3 4.2 -2.5
v 28.3 4.2 -2.6
v 28.3 4.1 -2.6
v 28.2 4.1 -2.6
v 28.2 4.2 -2.6
v 28.4 4.2 -2.5
v 28.4 4.1 -2.5
v 28.4 4.1 -2.6
v 28.4 4.2 -2.6
v 28.3 4.1 -2.5
v 28.3 4.1 -2.6
v 28.4 4.1 -2.6
v 28.4 4.1 -2.5
v 28.3 4.2 -2.5
v 28.3 4.1 -2.5
v 28.4 4.1 -2.5
v 28.4 4.2 -2.5
v 28.4 4.2 -2.6
v 28.4 4.1 -2.6
v 28.3 4.1 -2.6
v 28.3 4.2 -2.6
v 28.2 4.1 -2.6
v 28.2 4 -2.6
v 28.2 4 -2.5
v 28.2 4.1 -2.5
v 28.3 4.1 -2.5
v 28.3 4 -2.5
v 28.3 4 -2.6
v 28.3 4.1 -2.6
v 28.2 4.1 -2.5
v 28.2 4 -2.5
v 28.3 4 -2.5
v 28.3 4.1 -2.5
v 28.3 4.1 -2.6
v 28.3 4 -2.6
v 28.2 4 -2.6
v 28.2 4.1 -2.6
v 28.2 4 -2.6
v 28.2 3.9 -2.6
v 28.2 3.9 -2.5
v 28.2 4 -2.5
v 28.3 4 -2.5
v 28.3 3.9 -2.5
v 28.3 3.9 -2.6
v 28.3 4 -2.6
v 28.2 3.9 -2.5
v 28.2 3.9 -2.6
v 28.3 3.9 -2.6
v 28.3 3.9 -2.5
v 28.2 4 -2.5
v 28.2 3.9 -2.5
v 28.3 3.9 -2.5
v 28.3 4 -2.5
v 28.3 4 -2.6
v 28.3 3.9 -2.6
v 28.2 3.9 -2.6
v 28.2 4 -2.6
v 28.2 3.7 -2.6
v 28.2 3.6 -2.6
v 28.2 3.6 -2.5
v 28.2 3.7 -2.5
v 28.3 3.7 -2.5
v 28.3 3.6 -2.5
v 28.3 3.6 -2.6
v 28.3 3.7 -2.6
v 28.2 3.7 -2.6
v 28.2 3.7 -2.5
v 28.3 3.7 -2.5
v 28.3 3.7 -2.6
v 28.2 3.6 -2.5
v 28.2 3.6 -2.6
v 28.3 3.6 -2.6
v 28.3 3.6 -2.5
v 28.2 3.7 -2.5
v 28.2 3.6 -2.5
v 28.3 3.6 -2.5
v 28.3 3.7 -2.5
v 28.3 3.7 -2.6
v 28.3 3.6 -2.6
v 28.2 3.6 -2.6
v 28.2 3.7 -2.6

# faces
f 1/1/1 2/1/1 3/1/1 4/1/1
f 5/1/3 6/1/3 7/1/3 8/1/3
f 9/1/5 10/1/5 11/1/5 12/1/5
f 13/1/6 14/1/6 15/1/6 16/1/6
f 17/1/3 18/1/3 19/1/3 20/1/3
f 21/1/5 22/1/5 23/1/5 24/1/5
f 25/1/6 26/1/6 27/1/6 28/1/6
f 29/1/3 30/1/3 31/1/3 32/1/3
f 33/1/5 34/1/5 35/1/5 36/1/5
f 37/1/6 38/1/6 39/1/6 40/1/6
f 41/1/3 42/1/3 43/1/3 44/1/3
f 45/1/4 46/1/4 47/1/4 48/1/4
f 49/1/5 50/1/5 51/1/5 52/1/5
f 53/1/6 54/1/6 55/1/6 56/1/6
f 57/1/3 58/1/3 59/1/3 60/1/3
f 61/1/4 62/1/4 63/1/4 64/1/4
f 65/1/5 66/1/5 67/1/5 68/1/5
f 69/1/6 70/1/6 71/1/6 72/1/6
f 73/1/3 74/1/3 75/1/3 76/1/3
f 77/1/4 78/1/4 79/1/4 80/1/4
f 81/1/5 82/1/5 83/1/5 84/1/5
f 85/1/6 86/1/6 87/1/6 88/1/6
f 89/1/2 90/1/2 91/1/2 92/1/2
f 93/1/3 94/1/3 95/1/3 96/1/3
f 97/1/4 98/1/4 99/1/4 100/1/4
f 101/1/5 102/1/5 103/1/5 104/1/5
f 105/1/6 106/1/6 107/1/6 108/1/6
f 109/1/1 110/1/1 111/1/1 112/1/1
f 113/1/3 114/1/3 115/1/3 116/1/3
f 117/1/5 118/1/5 119/1/5 120/1/5
f 121/1/6 122/1/6 123/1/6 124/1/6
f 125/1/3 126/1/3 127/1/3 128/1/3
f 129/1/5 130/1/5 131/1/5 132/1/5
f 133/1/6 134/1/6 135/1/6 136/1/6
f 137/1/3 138/1/3 139/1/3 140/1/3
f 141/1/5 142/1/5 143/1/5 144/1/5
f 145/1/6 146/1/6 147/1/6 148/1/6
f 149/1/5 150/1/5 151/1/5 152/1/5
f 153/1/6 154/1/6 155/1/6 156/1/6
f 157/1/5 158/1/5 159/1/5 160/1/5
f 161/1/6 162/1/6 163/1/6 164/1/6
f 165/1/2 166/1/2 167/1/2 168/1/2
f 169/1/4 170/1/4 171/1/4 172/1/4
f 173/1/5 174/1/5 175/1/5 176/1/5
f 177/1/6 178/1/6 179/1/6 180/1/6
f 181/1/1 182/1/1 183/1/1 184/1/1
f 185/1/3 186/1/3 187/1/3 188/1/3
f 189/1/5 190/1/5 191/1/5 192/1/5
f 193/1/6 194/1/6 195/1/6 196/1/6
f 197/1/3 198/1/3 199/1/3 200/1/3
f 201/1/5 202/1/5 203/1/5 204/1/5
f 205/1/6 206/1/6 207/1/6 208/1/6
f 209/1/3 210/1/3 211/1/3 212/1/3
f 213/1/5 214/1/5 215/1/5 216/1/5
f 217/1/6 218/1/6 219/1/6 220/1/6
f 221/1/5 222/1/5 223/1/5 224/1/5
f 225/1/6 226/1/6 227/1/6 228/1/6
f 229/1/5 230/1/5 231/1/5 232/1/5
f 233/1/6 234/1/6 235/1/6 236/1/6
f 237/1/5 238/1/5 239/1/5 240/1/5
f 241/1/6 242/1/6 243/1/6 244/1/6
f 245/1/5 246/1/5 247/1/5 248/1/5
f 249/1/6 250/1/6 251/1/6 252/1/6
f 253/1/2 254/1/2 255/1/2 256/1/2
f 257/1/5 258/1/5 259/1/5 260/1/5
f 261/1/6 262/1/6 263/1/6 264/1/6
f 265/1/1 266/1/1 267/1/1 268/1/1
f 269/1/3 270/1/3 271/1/3 272/1/3
f 273/1/5 274/1/5 275/1/5 276/1/5
f 277/1/6 278/1/6 279/1/6 280/1/6
f 281/1/5 282/1/5 283/1/5 284/1/5
f 285/1/6 286/1/6 287/1/6 288/1/6
f 289/1/5 290/1/5 291/1/5 292/1/5
f 293/1/6 294/1/6 295/1/6 296/1/6
f 297/1/5 298/1/5 299/1/5 300/1/5
f 301/1/6 302/1/6 303/1/6 304/1/6
f 305/1/5 306/1/5 307/1/5 308/1/5
f 309/1/6 310/1/6 311/1/6 312/1/6
f 313/1/5 314/1/5 315/1/5 316/1/5
f 317/1/6 318/1/6 319/1/6 320/1/6
f 321/1/5 322/1/5 323/1/5 324/1/5
f 325/1/6 326/1/6 327/1/6 328/1/6
f 329/1/5 330/1/5 331/1/5 332/1/5
f 333/1/6 334/1/6 335/1/6 336/1/6
f 337/1/5 338/1/5 339/1/5 340/1/5
f 341/1/6 342/1/6 343/1/6 344/1/6
f 345/1/3 346/1/3 347/1/3 348/1/3
f 349/1/5 350/1/5 351/1/5 352/1/5
f 353/1/6 354/1/6 355/1/6 356/1/6
f 357/1/3 358/1/3 359/1/3 360/1/3
f 361/1/5 362/1/5 363/1/5 364/1/5
f 365/1/6 366/1/6 367/1/6 368/1/6
f 369/1/3 370/1/3 371/1/3 372/1/3
f 373/1/5 374/1/5 375/1/5 376/1/5
f 377/1/6 378/1/6 379/1/6 380/1/6
f 381/1/3 382/1/3 383/1/3 384/1/3
f 385/1/5 386/1/5 387/1/5 388/1/5
f 389/1/6 390/1/6 391/1/6 392/1/6
f 393/1/3 394/1/3 395/1/3 396/1/3
f 397/1/5 398/1/5 399/1/5 400/1/5
f 401/1/6 402/1/6 403/1/6 404/1/6
f 405/1/3 406/1/3 407/1/3 408/1/3
f 409/1/5 410/1/5 411/1/5 412/1/5
f 413/1/6 414/1/6 415/1/6 416/1/6
f 417/1/3 418/1/3 419/1/3 420/1/3
f 421/1/5 422/1/5 423/1/5 424/1/5
f 425/1/6 426/1/6 427/1/6 428/1/6
f 429/1/2 430/1/2 431/1/2 432/1/2
f 433/1/3 434/1/3 435/1/3 436/1/3
f 437/1/5 438/1/5 439/1/5 440/1/5
f 441/1/6 442/1/6 443/1/6 444/1/6
f 445/1/1 446/1/1 447/1/1 448/1/1
f 449/1/3 450/1/3 451/1/3 452/1/3
f 453/1/5 454/1/5 455/1/5 456/1/5
f 457/1/6 458/1/6 459/1/6 460/1/6
f 461/1/3 462/1/3 463/1/3 464/1/3
f 465/1/5 466/1/5 467/1/5 468/1/5
f 469/1/6 470/1/6 471/1/6 472/1/6
f 473/1/5 474/1/5 475/1/5 476/1/5
f 477/1/6 478/1/6 479/1/6 480/1/6
f 481/1/5 482/1/5 483/1/5 484/1/5
f 485/1/6 486/1/6 487/1/6 488/1/6
f 489/1/5 490/1/5 491/1/5 492/1/5
f 493/1/6 494/1/6 495/1/6 496/1/6
f 497/1/5 498/1/5 499/1/5 500/1/5
f 501/1/6 502/1/6 503/1/6 504/1/6
f 505/1/5 506/1/5 507/1/5 508/1/5
f 509/1/6 510/1/6 511/1/6 512/1/6
f 513/1/5 514/1/5 515/1/5 516/1/5
f 517/1/6 518/1/6 519/1/6 520/1/6
f 521/1/5 522/1/5 523/1/5 524/1/5
f 525/1/6 526/1/6 527/1/6 528/1/6
f 529/1/5 530/1/5 531/1/5 532/1/5
f 533/1/6 534/1/6 535/1/6 536/1/6
f 537/1/4 538/1/4 539/1/4 540/1/4
f 541/1/5 542/1/5 543/1/5 544/1/5
f 545/1/6 546/1/6 547/1/6 548/1/6
f 549/1/4 550/1/4 551/1/4 552/1/4
f 553/1/5 554/1/5 555/1/5 556/1/5
f 557/1/6 558/1/6 559/1/6 560/1/6
f 561/1/4 562/1/4 563/1/4 564/1/4
f 565/1/5 566/1/5 567/1/5 568/1/5
f 569/1/6 570/1/6 571/1/6 572/1/6
f 573/1/4 574/1/4 575/1/4 576/1/4
f 577/1/5 578/1/5 579/1/5 580/1/5
f 581/1/6 582/1/6 583/1/6 584/1/6
f 585/1/4 586/1/4 587/1/4 588/1/4
f 589/1/5 590/1/5 591/1/5 592/1/5
f 593/1/6 594/1/6 595/1/6 596/1/6
f 597/1/4 598/1/4 599/1/4 600/1/4
f 601/1/5 602/1/5 603/1/5 604/1/5
f 605/1/6 606/1/6 607/1/6 608/1/6
f 609/1/4 610/1/4 611/1/4 612/1/4
f 613/1/5 614/1/5 615/1/5 616/1/5
f 617/1/6 618/1/6 619/1/6 620/1/6
f 621/1/4 622/1/4 623/1/4 624/1/4
f 625/1/5 626/1/5 627/1/5 628/1/5
f 629/1/6 630/1/6 631/1/6 632/1/6
f 633/1/4 634/1/4 635/1/4 636/1/4
f 637/1/5 638/1/5 639/1/5 640/1/5
f 641/1/6 642/1/6 643/1/6 644/1/6
f 645/1/3 646/1/3 647/1/3 648/1/3
f 649/1/4 650/1/4 651/1/4 652/1/4
f 653/1/5 654/1/5 655/1/5 656/1/5
f 657/1/6 658/1/6 659/1/6 660/1/6
f 661/1/3 662/1/3 663/1/3 664/1/3
f 665/1/4 666/1/4 667/1/4 668/1/4
f 669/1/5 670/1/5 671/1/5 672/1/5
f 673/1/6 674/1/6 675/1/6 676/1/6
f 677/1/3 678/1/3 679/1/3 680/1/3
f 681/1/4 682/1/4 683/1/4 684/1/4
f 685/1/5 686/1/5 687/1/5 688/1/5
f 689/1/6 690/1/6 691/1/6 692/1/6
f 693/1/3 694/1/3 695/1/3 696/1/3
f 697/1/4 698/1/4 699/1/4 700/1/4
f 701/1/5 702/1/5 703/1/5 704/1/5
f 705/1/6 706/1/6 707/1/6 708/1/6
f 709/1/2 710/1/2 711/1/2 712/1/2
f 713/1/3 714/1/3 715/1/3 716/1/3
f 717/1/4 718/1/4 719/1/4 720/1/4
f 721/1/5 722/1/5 723/1/5 724/1/5
f 725/1/6 726/1/6 727/1/6 728/1/6
f 729/1/1 730/1/1 731/1/1 732/1/1
f 733/1/2 734/1/2 735/1/2 736/1/2
f 737/1/3 738/1/3 739/1/3 740/1/3
f 741/1/4 742/1/4 743/1/4 744/1/4
f 745/1/5 746/1/5 747/1/5 748/1/5
f 749/1/6 750/1/6 751/1/6 752/1/6
f 753/1/1 754/1/1 755/1/1 756/1/1
f 757/1/3 758/1/3 759/1/3 760/1/3
f 761/1/5 762/1/5 763/1/5 764/1/5
f 765/1/6 766/1/6 767/1/6 768/1/6
f 769/1/5 770/1/5 771/1/5 772/1/5
f 773/1/6 774/1/6 775/1/6 776/1/6
f 777/1/5 778/1/5 779/1/5 780/1/5
f 781/1/6 782/1/6 783/1/6 784/1/6
f 785/1/5 786/1/5 787/1/5 788/1/5
f 789/1/6 790/1/6 791/1/6 792/1/6
f 793/1/5 794/1/5 795/1/5 796/1/5
f 797/1/6 798/1/6 799/1/6 800/1/6
f 801/1/5 802/1/5 803/1/5 804/1/5
f 805/1/6 806/1/6 807/1/6 808/1/6
f 809/1/5 810/1/5 811/1/5 812/1/5
f 813/1/6 814/1/6 815/1/6 816/1/6
f 817/1/4 818/1/4 819/1/4 820/1/4
f 821/1/5 822/1/5 823/1/5 824/1/5
f 825/1/6 826/1/6 827/1/6 828/1/6
f 829/1/4 830/1/4 831/1/4 832/1/4
f 833/1/5 834/1/5 835/1/5 836/1/5
f 837/1/6 838/1/6 839/1/6 840/1/6
f 841/1/4 842/1/4 843/1/4 844/1/4
f 845/1/5 846/1/5 847/1/5 848/1/5
f 849/1/6 850/1/6 851/1/6 852/1/6
f 853/1/2 854/1/2 855/1/2 856/1/2
f 857/1/4 858/1/4 859/1/4 860/1/4
f 861/1/5 862/1/5 863/1/5 864/1/5
f 865/1/6 866/1/6 867/1/6 868/1/6
f 869/1/1 870/1/1 871/1/1 872/1/1
f 873/1/3 874/1/3 875/1/3 876/1/3
f 877/1/5 878/1/5 879/1/5 880/1/5
f 881/1/6 882/1/6 883/1/6 884/1/6
f 885/1/5 886/1/5 887/1/5 888/1/5
f 889/1/6 890/1/6 891/1/6 892/1/6
f 893/1/5 894/1/5 895/1/5 896/1/5
f 897/1/6 898/1/6 899/1/6 900/1/6
f 901/1/5 902/1/5 903/1/5 904/1/5
f 905/1/6 906/1/6 907/1/6 908/1/6
f 909/1/5 910/1/5 911/1/5 912/1/5
f 913/1/6 914/1/6 915/1/6 916/1/6
f 917/1/5 918/1/5 919/1/5 920/1/5
f 921/1/6 922/1/6 923/1/6 924/1/6
f 925/1/4 926/1/4 927/1/4 928/1/4
f 929/1/5 930/1/5 931/1/5 932/1/5
f 933/1/6 934/1/6 935/1/6 936/1/6
f 937/1/2 938/1/2 939/1/2 940/1/2
f 941/1/4 942/1/4 943/1/4 944/1/4
f 945/1/5 946/1/5 947/1/5 948/1/5
f 949/1/6 950/1/6 951/1/6 952/1/6
f 953/1/1 954/1/1 955/1/1 956/1/1
f 957/1/3 958/1/3 959/1/3 960/1/3
f 961/1/5 962/1/5 963/1/5 964/1/5
f 965/1/6 966/1/6 967/1/6 968/1/6
f 969/1/5 970/1/5 971/1/5 972/1/5
f 973/1/6 974/1/6 975/1/6 976/1/6
f 977/1/5 978/1/5 979/1/5 980/1/5
f 981/1/6 982/1/6 983/1/6 984/1/6
f 985/1/5 986/1/5 987/1/5 988/1/5
f 989/1/6 990/1/6 991/1/6 992/1/6
f 993/1/4 994/1/4 995/1/4 996/1/4
f 997/1/5 998/1/5 999/1/5 1000/1/5
f 1001/1/6 1002/1/6 1003/1/6 1004/1/6
f 1005/1/4 1006/1/4 1007/1/4 1008/1/4
f 1009/1/5 1010/1/5 1011/1/5 1012/1/5
f 1013/1/6 1014/1/6 1015/1/6 1016/1/6
f 1017/1/2 1018/1/2 1019/1/2 1020/1/2
f 1021/1/4 1022/1/4 1023/1/4 1024/1/4
f 1025/1/5 1026/1/5 1027/1/5 1028/1/5
f 1029/1/6 1030/1/6 1031/1/6 1032/1/6
f 1033/1/1 1034/1/1 1035/1/1 1036/1/1
f 1037/1/3 1038/1/3 1039/1/3 1040/1/3
f 1041/1/5 1042/1/5 1043/1/5 1044/1/5
f 1045/1/6 1046/1/6 1047/1/6 1048/1/6
f 1049/1/5 1050/1/5 1051/1/5 1052/1/5
f 1053/1/6 1054/1/6 1055/1/6 1056/1/6
f 1057/1/5 1058/1/5 1059/1/5 1060/1/5
f 1061/1/6 1062/1/6 1063/1/6 1064/1/6
f 1065/1/5 1066/1/5 1067/1/5 1068/1/5
f 1069/1/6 1070/1/6 1071/1/6 1072/1/6
f 1073/1/2 1074/1/2 1075/1/2 1076/1/2
f 1077/1/4 1078/1/4 1079/1/4 1080/1/4
f 1081/1/5 1082/1/5 1083/1/5 1084/1/5
f 1085/1/6 1086/1/6 1087/1/6 1088/1/6
f 1089/1/1 1090/1/1 1091/1/1 1092/1/1
f 1093/1/2 1094/1/2 1095/1/2 1096/1/2
f 1097/1/3 1098/1/3 1099/1/3 1100/1/3
f 1101/1/4 1102/1/4 1103/1/4 1104/1/4
f 1105/1/5 1106/1/5 1107/1/5 1108/1/5
f 1109/1/6 1110/1/6 1111/1/6 1112/1/6
f 1113/1/1 1114/1/1 1115/1/1 1116/1/1
f 1117/1/3 1118/1/3 1119/1/3 1120/1/3
f 1121/1/5 1122/1/5 1123/1/5 1124/1/5
f 1125/1/6 1126/1/6 1127/1/6 1128/1/6
f 1129/1/5 1130/1/5 1131/1/5 1132/1/5
f 1133/1/6 1134/1/6 1135/1/6 1136/1/6
f 1137/1/5 1138/1/5 1139/1/5 1140/1/5
f 1141/1/6 1142/1/6 1143/1/6 1144/1/6
f 1145/1/4 1146/1/4 1147/1/4 1148/1/4
f 1149/1/5 1150/1/5 1151/1/5 1152/1/5
f 1153/1/6 1154/1/6 1155/1/6 1156/1/6
f 1157/1/2 1158/1/2 1159/1/2 1160/1/2
f 1161/1/4 1162/1/4 1163/1/4 1164/1/4
f 1165/1/5 1166/1/5 1167/1/5 1168/1/5
f 1169/1/6 1170/1/6 1171/1/6 1172/1/6
f 1173/1/1 1174/1/1 1175/1/1 1176/1/1
f 1177/1/2 1178/1/2 1179/1/2 1180/1/2
f 1181/1/3 1182/1/3 1183/1/3 1184/1/3
f 1185/1/5 1186/1/5 1187/1/5 1188/1/5
f 1189/1/6 1190/1/6 1191/1/6 1192/1/6
f 1193/1/1 1194/1/1 1195/1/1 1196/1/1
f 1197/1/5 1198/1/5 1199/1/5 1200/1/5
f 1201/1/6 1202/1/6 1203/1/6 1204/1/6
f 1205/1/5 1206/1/5 1207/1/5 1208/1/5
f 1209/1/6 1210/1/6 1211/1/6 1212/1/6
f 1213/1/2 1214/1/2 1215/1/2 1216/1/2
f 1217/1/4 1218/1/4 1219/1/4 1220/1/4
f 1221/1/5 1222/1/5 1223/1/5 1224/1/5
f 1225/1/6 1226/1/6 1227/1/6 1228/1/6
f 1229/1/1 1230/1/1 1231/1/1 1232/1/1
f 1233/1/5 1234/1/5 1235/1/5 1236/1/5
f 1237/1/6 1238/1/6 1239/1/6 1240/1/6
f 1241/1/2 1242/1/2 1243/1/2 1244/1/2
f 1245/1/3 1246/1/3 1247/1/3 1248/1/3
f 1249/1/5 1250/1/5 1251/1/5 1252/1/5
f 1253/1/6 1254/1/6 1255/1/6 1256/1/6
f 1257/1/1 1258/1/1 1259/1/1 1260/1/1
f 1261/1/3 1262/1/3 1263/1/3 1264/1/3
f 1265/1/5 1266/1/5 1267/1/5 1268/1/5
f 1269/1/6 1270/1/6 1271/1/6 1272/1/6
f 1273/1/5 1274/1/5 1275/1/5 1276/1/5
f 1277/1/6 1278/1/6 1279/1/6 1280/1/6
f 1281/1/2 1282/1/2 1283/1/2 1284/1/2
f 1285/1/4 1286/1/4 1287/1/4 1288/1/4
f 1289/1/5 1290/1/5 1291/1/5 1292/1/5
f 1293/1/6 1294/1/6 1295/1/6 1296/1/6
f 1297/1/1 1298/1/1 1299/1/1 1300/1/1
f 1301/1/4 1302/1/4 1303/1/4 1304/1/4
f 1305/1/5 1306/1/5 1307/1/5 1308/1/5
f 1309/1/6 1310/1/6 1311/1/6 1312/1/6
f 1313/1/2 1314/1/2 1315/1/2 1316/1/2
f 1317/1/5 1318/1/5 1319/1/5 1320/1/5
f 1321/1/6 1322/1/6 1323/1/6 1324/1/6
f 1325/1/1 1326/1/1 1327/1/1 1328/1/1
f 1329/1/5 1330/1/5 1331/1/5 1332/1/5
f 1333/1/6 1334/1/6 1335/1/6 1336/1/6
f 1337/1/2 1338/1/2 1339/1/2 1340/1/2
f 1341/1/4 1342/1/4 1343/1/4 1344/1/4
f 1345/1/5 1346/1/5 1347/1/5 1348/1/5
f 1349/1/6 1350/1/6 1351/1/6 1352/1/6
f 1353/1/1 1354/1/1 1355/1/1 1356/1/1
f 1357/1/5 1358/1/5 1359/1/5 1360/1/5
f 1361/1/6 1362/1/6 1363/1/6 1364/1/6
f 1365/1/2 1366/1/2 1367/1/2 1368/1/2
f 1369/1/3 1370/1/3 1371/1/3 1372/1/3
f 1373/1/5 1374/1/5 1375/1/5 1376/1/5
f 1377/1/6 1378/1/6 1379/1/6 1380/1/6
f 1381/1/1 1382/1/1 1383/1/1 1384/1/1
f 1385/1/3 1386/1/3 1387/1/3 1388/1/3
f 1389/1/5 1390/1/5 1391/1/5 1392/1/5
f 1393/1/6 1394/1/6 1395/1/6 1396/1/6
f 1397/1/2 1398/1/2 1399/1/2 1400/1/2
f 1401/1/5 1402/1/5 1403/1/5 1404/1/5
f 1405/1/6 1406/1/6 1407/1/6 1408/1/6
f 1409/1/1 1410/1/1 1411/1/1 1412/1/1
f 1413/1/5 1414/1/5 1415/1/5 1416/1/5
f 1417/1/6 1418/1/6 1419/1/6 1420/1/6
f 1421/1/2 1422/1/2 1423/1/2 1424/1/2
f 1425/1/5 1426/1/5 1427/1/5 1428/1/5
f 1429/1/6 1430/1/6 1431/1/6 1432/1/6
f 1433/1/1 1434/1/1 1435/1/1 1436/1/1
f 1437/1/5 1438/1/5 1439/1/5 1440/1/5
f 1441/1/6 1442/1/6 1443/1/6 1444/1/6
f 1445/1/2 1446/1/2 1447/1/2 1448/1/2
f 1449/1/4 1450/1/4 1451/1/4 1452/1/4
f 1453/1/5 1454/1/5 1455/1/5 1456/1/5
f 1457/1/6 1458/1/6 1459/1/6 1460/1/6
f 1461/1/1 1462/1/1 1463/1/1 1464/1/1
f 1465/1/5 1466/1/5 1467/1/5 1468/1/5
f 1469/1/6 1470/1/6 1471/1/6 1472/1/6
f 1473/1/5 1474/1/5 1475/1/5 1476/1/5
f 1477/1/6 1478/1/6 1479/1/6 1480/1/6
f 1481/1/2 1482/1/2 1483/1/2 1484/1/2
f 1485/1/3 1486/1/3 1487/1/3 1488/1/3
f 1489/1/5 1490/1/5 1491/1/5 1492/1/5
f 1493/1/6 1494/1/6 1495/1/6 1496/1/6
f 1497/1/1 1498/1/1 1499/1/1 1500/1/1
f 1501/1/2 1502/1/2 1503/1/2 1504/1/2
f 1505/1/5 1506/1/5 1507/1/5 1508/1/5
f 1509/1/6 1510/1/6 1511/1/6 1512/1/6
f 1513/1/1 1514/1/1 1515/1/1 1516/1/1
f 1517/1/5 1518/1/5 1519/1/5 1520/1/5
f 1521/1/6 1522/1/6 1523/1/6 1524/1/6
f 1525/1/5 1526/1/5 1527/1/5 1528/1/5
f 1529/1/6 1530/1/6 1531/1/6 1532/1/6
f 1533/1/2 1534/1/2 1535/1/2 1536/1/2
f 1537/1/5 1538/1/5 1539/1/5 1540/1/5
f 1541/1/6 1542/1/6 1543/1/6 1544/1/6
f 1545/1/1 1546/1/1 1547/1/1 1548/1/1
f 1549/1/2 1550/1/2 1551/1/2 1552/1/2
f 1553/1/5 1554/1/5 1555/1/5 1556/1/5
f 1557/1/6 1558/1/6 1559/1/6 1560/1/6
f 1561/1/1 1562/1/1 1563/1/1 1564/1/1
f 1565/1/5 1566/1/5 1567/1/5 1568/1/5
f 1569/1/6 1570/1/6 1571/1/6 1572/1/6
f 1573/1/5 1574/1/5 1575/1/5 1576/1/5
f 1577/1/6 1578/1/6 1579/1/6 1580/1/6
f 1581/1/2 1582/1/2 1583/1/2 1584/1/2
f 1585/1/5 1586/1/5 1587/1/5 1588/1/5
f 1589/1/6 1590/1/6 1591/1/6 1592/1/6
f 1593/1/1 1594/1/1 1595/1/1 1596/1/1
f 1597/1/2 1598/1/2 1599/1/2 1600/1/2
f 1601/1/5 1602/1/5 1603/1/5 1604/1/5
f 1605/1/6 1606/1/6 1607/1/6 1608/1/6
f 1609/1/1 1610/1/1 1611/1/1 1612/1/1
f 1613/1/5 1614/1/5 1615/1/5 1616/1/5
f 1617/1/6 1618/1/6 1619/1/6 1620/1/6
f 1621/1/5 1622/1/5 1623/1/5 1624/1/5
f 1625/1/6 1626/1/6 1627/1/6 1628/1/6
f 1629/1/5 1630/1/5 1631/1/5 1632/1/5
f 1633/1/6 1634/1/6 1635/1/6 1636/1/6
f 1637/1/2 1638/1/2 1639/1/2 1640/1/2
f 1641/1/3 1642/1/3 1643/1/3 1644/1/3
f 1645/1/5 1646/1/5 1647/1/5 1648/1/5
f 1649/1/6 1650/1/6 1651/1/6 1652/1/6
f 1653/1/1 1654/1/1 1655/1/1 1656/1/1
f 1657/1/2 1658/1/2 1659/1/2 1660/1/2
f 1661/1/5 1662/1/5 1663/1/5 1664/1/5
f 1665/1/6 1666/1/6 1667/1/6 1668/1/6
f 1669/1/1 1670/1/1 1671/1/1 1672/1/1
f 1673/1/5 1674/1/5 1675/1/5 1676/1/5
f 1677/1/6 1678/1/6 1679/1/6 1680/1/6
f 1681/1/5 1682/1/5 1683/1/5 1684/1/5
f 1685/1/6 1686/1/6 1687/1/6 1688/1/6
f 1689/1/5 1690/1/5 1691/1/5 1692/1/5
f 1693/1/6 1694/1/6 1695/1/6 1696/1/6
f 1697/1/2 1698/1/2 1699/1/2 1700/1/2
f 1701/1/5 1702/1/5 1703/1/5 1704/1/5
f 1705/1/6 1706/1/6 1707/1/6 1708/1/6
f 1709/1/1 1710/1/1 1711/1/1 1712/1/1
f 1713/1/2 1714/1/2 1715/1/2 1716/1/2
f 1717/1/4 1718/1/4 1719/1/4 1720/1/4
f 1721/1/5 1722/1/5 1723/1/5 1724/1/5
f 1725/1/6 1726/1/6 1727/1/6 1728/1/6
f 1729/1/1 1730/1/1 1731/1/1 1732/1/1
f 1733/1/3 1734/1/3 1735/1/3 1736/1/3
f 1737/1/5 1738/1/5 1739/1/5 1740/1/5
f 1741/1/6 1742/1/6 1743/1/6 1744/1/6
f 1745/1/5 1746/1/5 1747/1/5 1748/1/5
f 1749/1/6 1750/1/6 1751/1/6 1752/1/6
f 1753/1/5 1754/1/5 1755/1/5 1756/1/5
f 1757/1/6 1758/1/6 1759/1/6 1760/1/6
f 1761/1/5 1762/1/5 1763/1/5 1764/1/5
f 1765/1/6 1766/1/6 1767/1/6 1768/1/6
f 1769/1/2 1770/1/2 1771/1/2 1772/1/2
f 1773/1/5 1774/1/5 1775/1/5 1776/1/5
f 1777/1/6 1778/1/6 1779/1/6 1780/1/6
f 1781/1/1 1782/1/1 1783/1/1 1784/1/1
f 1785/1/5 1786/1/5 1787/1/5 1788/1/5
f 1789/1/6 1790/1/6 1791/1/6 1792/1/6
f 1793/1/5 1794/1/5 1795/1/5 1796/1/5
f 1797/1/6 1798/1/6 1799/1/6 1800/1/6
f 1801/1/5 1802/1/5 1803/1/5 1804/1/5
f 1805/1/6 1806/1/6 1807/1/6 1808/1/6
f 1809/1/5 1810/1/5 1811/1/5 1812/1/5
f 1813/1/6 1814/1/6 1815/1/6 1816/1/6
f 1817/1/2 1818/1/2 1819/1/2 1820/1/2
f 1821/1/5 1822/1/5 1823/1/5 1824/1/5
f 1825/1/6 1826/1/6 1827/1/6 1828/1/6
f 1829/1/1 1830/1/1 1831/1/1 1832/1/1
f 1833/1/5 1834/1/5 1835/1/5 1836/1/5
f 1837/1/6 1838/1/6 1839/1/6 1840/1/6
f 1841/1/5 1842/1/5 1843/1/5 1844/1/5
f 1845/1/6 1846/1/6 1847/1/6 1848/1/6
f 1849/1/5 1850/1/5 1851/1/5 1852/1/5
f 1853/1/6 1854/1/6 1855/1/6 1856/1/6
f 1857/1/5 1858/1/5 1859/1/5 1860/1/5
f 1861/1/6 1862/1/6 1863/1/6 1864/1/6
f 1865/1/2 1866/1/2 1867/1/2 1868/1/2
f 1869/1/5 1870/1/5 1871/1/5 1872/1/5
f 1873/1/6 1874/1/6 1875/1/6 1876/1/6
f 1877/1/1 1878/1/1 1879/1/1 1880/1/1
f 1881/1/2 1882/1/2 1883/1/2 1884/1/2
f 1885/1/3 1886/1/3 1887/1/3 1888/1/3
f 1889/1/4 1890/1/4 1891/1/4 1892/1/4
f 1893/1/5 1894/1/5 1895/1/5 1896/1/5
f 1897/1/6 1898/1/6 1899/1/6 1900/1/6
f 1901/1/1 1902/1/1 1903/1/1 1904/1/1
f 1905/1/3 1906/1/3 1907/1/3 1908/1/3
f 1909/1/5 1910/1/5 1911/1/5 1912/1/5
f 1913/1/6 1914/1/6 1915/1/6 1916/1/6
f 1917/1/5 1918/1/5 1919/1/5 1920/1/5
f 1921/1/6 1922/1/6 1923/1/6 1924/1/6
f 1925/1/5 1926/1/5 1927/1/5 1928/1/5
f 1929/1/6 1930/1/6 1931/1/6 1932/1/6
f 1933/1/5 1934/1/5 1935/1/5 1936/1/5
f 1937/1/6 1938/1/6 1939/1/6 1940/1/6
f 1941/1/5 1942/1/5 1943/1/5 1944/1/5
f 1945/1/6 1946/1/6 1947/1/6 1948/1/6
f 1949/1/2 1950/1/2 1951/1/2 1952/1/2
f 1953/1/5 1954/1/5 1955/1/5 1956/1/5
f 1957/1/6 1958/1/6 1959/1/6 1960/1/6
f 1961/1/1 1962/1/1 1963/1/1 1964/1/1
f 1965/1/3 1966/1/3 1967/1/3 1968/1/3
f 1969/1/5 1970/1/5 1971/1/5 1972/1/5
f 1973/1/6 1974/1/6 1975/1/6 1976/1/6
f 1977/1/5 1978/1/5 1979/1/5 1980/1/5
f 1981/1/6 1982/1/6 1983/1/6 1984/1/6
f 1985/1/5 1986/1/5 1987/1/5 1988/1/5
f 1989/1/6 1990/1/6 1991/1/6 1992/1/6
f 1993/1/5 1994/1/5 1995/1/5 1996/1/5
f 1997/1/6 1998/1/6 1999/1/6 2000/1/6
f 2001/1/5 2002/1/5 2003/1/5 2004/1/5
f 2005/1/6 2006/1/6 2007/1/6 2008/1/6
f 2009/1/5 2010/1/5 2011/1/5 2012/1/5
f 2013/1/6 2014/1/6 2015/1/6 2016/1/6
f 2017/1/5 2018/1/5 2019/1/5 2020/1/5
f 2021/1/6 2022/1/6 2023/1/6 2024/1/6
f 2025/1/2 2026/1/2 2027/1/2 2028/1/2
f 2029/1/3 2030/1/3 2031/1/3 2032/1/3
f 2033/1/5 2034/1/5 2035/1/5 2036/1/5
f 2037/1/6 2038/1/6 2039/1/6 2040/1/6
f 2041/1/1 2042/1/1 2043/1/1 2044/1/1
f 2045/1/5 2046/1/5 2047/1/5 2048/1/5
f 2049/1/6 2050/1/6 2051/1/6 2052/1/6
f 2053/1/5 2054/1/5 2055/1/5 2056/1/5
f 2057/1/6 2058/1/6 2059/1/6 2060/1/6
f 2061/1/5 2062/1/5 2063/1/5 2064/1/5
f 2065/1/6 2066/1/6 2067/1/6 2068/1/6
f 2069/1/5 2070/1/5 2071/1/5 2072/1/5
f 2073/1/6 2074/1/6 2075/1/6 2076/1/6
f 2077/1/4 2078/1/4 2079/1/4 2080/1/4
f 2081/1/5 2082/1/5 2083/1/5 2084/1/5
f 2085/1/6 2086/1/6 2087/1/6 2088/1/6
f 2089/1/5 2090/1/5 2091/1/5 2092/1/5
f 2093/1/6 2094/1/6 2095/1/6 2096/1/6
f 2097/1/5 2098/1/5 2099/1/5 2100/1/5
f 2101/1/6 2102/1/6 2103/1/6 2104/1/6
f 2105/1/2 2106/1/2 2107/1/2 2108/1/2
f 2109/1/5 2110/1/5 2111/1/5 2112/1/5
f 2113/1/6 2114/1/6 2115/1/6 2116/1/6
f 2117/1/1 2118/1/1 2119/1/1 2120/1/1
f 2121/1/3 2122/1/3 2123/1/3 2124/1/3
f 2125/1/5 2126/1/5 2127/1/5 2128/1/5
f 2129/1/6 2130/1/6 2131/1/6 2132/1/6
f 2133/1/5 2134/1/5 2135/1/5 2136/1/5
f 2137/1/6 2138/1/6 2139/1/6 2140/1/6
f 2141/1/5 2142/1/5 2143/1/5 2144/1/5
f 2145/1/6 2146/1/6 2147/1/6 2148/1/6
f 2149/1/4 2150/1/4 2151/1/4 2152/1/4
f 2153/1/5 2154/1/5 2155/1/5 2156/1/5
f 2157/1/6 2158/1/6 2159/1/6 2160/1/6
f 2161/1/2 2162/1/2 2163/1/2 2164/1/2
f 2165/1/4 2166/1/4 2167/1/4 2168/1/4
f 2169/1/5 2170/1/5 2171/1/5 2172/1/5
f 2173/1/6 2174/1/6 2175/1/6 2176/1/6
f 2177/1/1 2178/1/1 2179/1/1 2180/1/1
f 2181/1/5 2182/1/5 2183/1/5 2184/1/5
f 2185/1/6 2186/1/6 2187/1/6 2188/1/6
f 2189/1/5 2190/1/5 2191/1/5 2192/1/5
f 2193/1/6 2194/1/6 2195/1/6 2196/1/6
f 2197/1/2 2198/1/2 2199/1/2 2200/1/2
f 2201/1/5 2202/1/5 2203/1/5 2204/1/5
f 2205/1/6 2206/1/6 2207/1/6 2208/1/6
f 2209/1/1 2210/1/1 2211/1/1 2212/1/1
f 2213/1/3 2214/1/3 2215/1/3 2216/1/3
f 2217/1/5 2218/1/5 2219/1/5 2220/1/5
f 2221/1/6 2222/1/6 2223/1/6 2224/1/6
f 2225/1/5 2226/1/5 2227/1/5 2228/1/5
f 2229/1/6 2230/1/6 2231/1/6 2232/1/6
f 2233/1/5 2234/1/5 2235/1/5 2236/1/5
f 2237/1/6 2238/1/6 2239/1/6 2240/1/6
f 2241/1/2 2242/1/2 2243/1/2 2244/1/2
f 2245/1/4 2246/1/4 2247/1/4 2248/1/4
f 2249/1/5 2250/1/5 2251/1/5 2252/1/5
f 2253/1/6 2254/1/6 2255/1/6 2256/1/6
f 2257/1/1 2258/1/1 2259/1/1 2260/1/1
f 2261/1/4 2262/1/4 2263/1/4 2264/1/4
f 2265/1/5 2266/1/5 2267/1/5 2268/1/5
f 2269/1/6 2270/1/6 2271/1/6 2272/1/6
f 2273/1/5 2274/1/5 2275/1/5 2276/1/5
f 2277/1/6 2278/1/6 2279/1/6 2280/1/6
f 2281/1/2 2282/1/2 2283/1/2 2284/1/2
f 2285/1/5 2286/1/5 2287/1/5 2288/1/5
f 2289/1/6 2290/1/6 2291/1/6 2292/1/6
f 2293/1/1 2294/1/1 2295/1/1 2296/1/1
f 2297/1/3 2298/1/3 2299/1/3 2300/1/3
f 2301/1/5 2302/1/5 2303/1/5 2304/1/5
f 2305/1/6 2306/1/6 2307/1/6 2308/1/6
f 2309/1/3 2310/1/3 2311/1/3 2312/1/3
f 2313/1/5 2314/1/5 2315/1/5 2316/1/5
f 2317/1/6 2318/1/6 2319/1/6 2320/1/6
f 2321/1/5 2322/1/5 2323/1/5 2324/1/5
f 2325/1/6 2326/1/6 2327/1/6 2328/1/6
f 2329/1/4 2330/1/4 2331/1/4 2332/1/4
f 2333/1/5 2334/1/5 2335/1/5 2336/1/5
f 2337/1/6 2338/1/6 2339/1/6 2340/1/6
f 2341/1/2 2342/1/2 2343/1/2 2344/1/2
f 2345/1/4 2346/1/4 2347/1/4 2348/1/4
f 2349/1/5 2350/1/5 2351/1/5 2352/1/5
f 2353/1/6 2354/1/6 2355/1/6 2356/1/6
f 2357/1/1 2358/1/1 2359/1/1 2360/1/1
f 2361/1/5 2362/1/5 2363/1/5 2364/1/5
f 2365/1/6 2366/1/6 2367/1/6 2368/1/6
f 2369/1/2 2370/1/2 2371/1/2 2372/1/2
f 2373/1/5 2374/1/5 2375/1/5 2376/1/5
f 2377/1/6 2378/1/6 2379/1/6 2380/1/6
f 2381/1/1 2382/1/1 2383/1/1 2384/1/1
f 2385/1/3 2386/1/3 2387/1/3 2388/1/3
f 2389/1/5 2390/1/5 2391/1/5 2392/1/5
f 2393/1/6 2394/1/6 2395/1/6 2396/1/6
f 2397/1/3 2398/1/3 2399/1/3 2400/1/3
f 2401/1/5 2402/1/5 2403/1/5 2404/1/5
f 2405/1/6 2406/1/6 2407/1/6 2408/1/6
f 2409/1/4 2410/1/4 2411/1/4 2412/1/4
f 2413/1/5 2414/1/5 2415/1/5 2416/1/5
f 2417/1/6 2418/1/6 2419/1/6 2420/1/6
f 2421/1/4 2422/1/4 2423/1/4 2424/1/4
f 2425/1/5 2426/1/5 2427/1/5 2428/1/5
f 2429/1/6 2430/1/6 2431/1/6 2432/1/6
f 2433/1/2 2434/1/2 2435/1/2 2436/1/2
f 2437/1/4 2438/1/4 2439/1/4 2440/1/4
f 2441/1/5 2442/1/5 2443/1/5 2444/1/5
f 2445/1/6 2446/1/6 2447/1/6 2448/1/6
f 2449/1/1 2450/1/1 2451/1/1 2452/1/1
f 2453/1/5 2454/1/5 2455/1/5 2456/1/5
f 2457/1/6 2458/1/6 2459/1/6 2460/1/6
f 2461/1/2 2462/1/2 2463/1/2 2464/1/2
f 2465/1/5 2466/1/5 2467/1/5 2468/1/5
f 2469/1/6 2470/1/6 2471/1/6 2472/1/6
f 2473/1/1 2474/1/1 2475/1/1 2476/1/1
f 2477/1/3 2478/1/3 2479/1/3 2480/1/3
f 2481/1/5 2482/1/5 2483/1/5 2484/1/5
f 2485/1/6 2486/1/6 2487/1/6 2488/1/6
f 2489/1/3 2490/1/3 2491/1/3 2492/1/3
f 2493/1/4 2494/1/4 2495/1/4 2496/1/4
f 2497/1/5 2498/1/5 2499/1/5 2500/1/5
f 2501/1/6 2502/1/6 2503/1/6 2504/1/6
f 2505/1/3 2506/1/3 2507/1/3 2508/1/3
f 2509/1/4 2510/1/4 2511/1/4 2512/1/4
f 2513/1/5 2514/1/5 2515/1/5 2516/1/5
f 2517/1/6 2518/1/6 2519/1/6 2520/1/6
f 2521/1/4 2522/1/4 2523/1/4 2524/1/4
f 2525/1/5 2526/1/5 2527/1/5 2528/1/5
f 2529/1/6 2530/1/6 2531/1/6 2532/1/6
f 2533/1/2 2534/1/2 2535/1/2 2536/1/2
f 2537/1/4 2538/1/4 2539/1/4 2540/1/4
f 2541/1/5 2542/1/5 2543/1/5 2544/1/5
f 2545/1/6 2546/1/6 2547/1/6 2548/1/6
f 2549/1/1 2550/1/1 2551/1/1 2552/1/1
f 2553/1/5 2554/1/5 2555/1/5 2556/1/5
f 2557/1/6 2558/1/6 2559/1/6 2560/1/6
f 2561/1/2 2562/1/2 2563/1/2 2564/1/2
f 2565/1/5 2566/1/5 2567/1/5 2568/1/5
f 2569/1/6 2570/1/6 2571/1/6 2572/1/6
f 2573/1/1 2574/1/1 2575/1/1 2576/1/1
f 2577/1/2 2578/1/2 2579/1/2 2580/1/2
f 2581/1/3 2582/1/3 2583/1/3 2584/1/3
f 2585/1/4 2586/1/4 2587/1/4 2588/1/4
f 2589/1/5 2590/1/5 2591/1/5 2592/1/5
f 2593/1/6 2594/1/6 2595/1/6 2596/1/6
f 2597/1/1 2598/1/1 2599/1/1 2600/1/1
f 2601/1/3 2602/1/3 2603/1/3 2604/1/3
f 2605/1/4 2606/1/4 2607/1/4 2608/1/4
f 2609/1/5 2610/1/5 2611/1/5 2612/1/5
f 2613/1/6 2614/1/6 2615/1/6 2616/1/6
f 2617/1/3 2618/1/3 2619/1/3 2620/1/3
f 2621/1/4 2622/1/4 2623/1/4 2624/1/4
f 2625/1/5 2626/1/5 2627/1/5 2628/1/5
f 2629/1/6 2630/1/6 2631/1/6 2632/1/6
f 2633/1/3 2634/1/3 2635/1/3 2636/1/3
f 2637/1/4 2638/1/4 2639/1/4 2640/1/4
f 2641/1/5 2642/1/5 2643/1/5 2644/1/5
f 2645/1/6 2646/1/6 2647/1/6 2648/1/6
f 2649/1/2 2650/1/2 2651/1/2 2652/1/2
f 2653/1/4 2654/1/4 2655/1/4 2656/1/4
f 2657/1/5 2658/1/5 2659/1/5 2660/1/5
f 2661/1/6 2662/1/6 2663/1/6 2664/1/6
f 2665/1/1 2666/1/1 2667/1/1 2668/1/1
f 2669/1/5 2670/1/5 2671/1/5 2672/1/5
f 2673/1/6 2674/1/6 2675/1/6 2676/1/6
f 2677/1/2 2678/1/2 2679/1/2 2680/1/2
f 2681/1/4 2682/1/4 2683/1/4 2684/1/4
f 2685/1/5 2686/1/5 2687/1/5 2688/1/5
f 2689/1/6 2690/1/6 2691/1/6 2692/1/6
f 2693/1/1 2694/1/1 2695/1/1 2696/1/1
f 2697/1/2 2698/1/2 2699/1/2 2700/1/2
f 2701/1/5 2702/1/5 2703/1/5 2704/1/5
f 2705/1/6 2706/1/6 2707/1/6 2708/1/6
f 2709/1/1 2710/1/1 2711/1/1 2712/1/1
f 2713/1/2 2714/1/2 2715/1/2 2716/1/2
f 2717/1/4 2718/1/4 2719/1/4 2720/1/4
f 2721/1/5 2722/1/5 2723/1/5 2724/1/5
f 2725/1/6 2726/1/6 2727/1/6 2728/1/6
f 2729/1/1 2730/1/1 2731/1/1 2732/1/1
f 2733/1/2 2734/1/2 2735/1/2 2736/1/2
f 2737/1/3 2738/1/3 2739/1/3 2740/1/3
f 2741/1/4 2742/1/4 2743/1/4 2744/1/4
f 2745/1/5 2746/1/5 2747/1/5 2748/1/5
f 2749/1/6 2750/1/6 2751/1/6 2752/1/6

