# generated by vox_to_obj_exporter
# scale=0.1 center=false ground=false y_up=true

mtllib Fight_209.mtl
usemtl palette

# normals
vn -1 0 0
vn 1 0 0
vn 0 1 0
vn 0 -1 0
vn 0 0 1
vn 0 0 -1

# texcoords
vt 0.224609375 0.5

# verts
v 14.6 11.7 -2.6
v 14.6 11.6 -2.6
v 14.6 11.6 -2.5
v 14.6 11.7 -2.5
v 14.7 11.7 -2.5
v 14.7 11.6 -2.5
v 14.7 11.6 -2.6
v 14.7 11.7 -2.6
v 14.6 11.7 -2.6
v 14.6 11.7 -2.5
v 14.7 11.7 -2.5
v 14.7 11.7 -2.6
v 14.6 11.6 -2.5
v 14.6 11.6 -2.6
v 14.7 11.6 -2.6
v 14.7 11.6 -2.5
v 14.6 11.7 -2.5
v 14.6 11.6 -2.5
v 14.7 11.6 -2.5
v 14.7 11.7 -2.5
v 14.7 11.7 -2.6
v 14.7 11.6 -2.6
v 14.6 11.6 -2.6
v 14.6 11.7 -2.6
v 14.9 11.6 -2.6
v 14.9 11.5 -2.6
v 14.9 11.5 -2.5
v 14.9 11.6 -2.5
v 14.9 11.6 -2.6
v 14.9 11.6 -2.5
v 15 11.6 -2.5
v 15 11.6 -2.6
v 14.9 11.5 -2.5
v 14.9 11.5 -2.6
v 15 11.5 -2.6
v 15 11.5 -2.5
v 14.9 11.6 -2.5
v 14.9 11.5 -2.5
v 15 11.5 -2.5
v 15 11.6 -2.5
v 15 11.6 -2.6
v 15 11.5 -2.6
v 14.9 11.5 -2.6
v 14.9 11.6 -2.6
v 15 11.6 -2.6
v 15 11.6 -2.5
v 15.1 11.6 -2.5
v 15.1 11.6 -2.6
v 15 11.5 -2.5
v 15 11.5 -2.6
v 15.1 11.5 -2.6
v 15.1 11.5 -2.5
v 15 11.6 -2.5
v 15 11.5 -2.5
v 15.1 11.5 -2.5
v 15.1 11.6 -2.5
v 15.1 11.6 -2.6
v 15.1 11.5 -2.6
v 15 11.5 -2.6
v 15 11.6 -2.6
v 15.1 11.6 -2.6
v 15.1 11.6 -2.5
v 15.2 11.6 -2.5
v 15.2 11.6 -2.6
v 15.1 11.6 -2.5
v 15.1 11.5 -2.5
v 15.2 11.5 -2.5
v 15.2 11.6 -2.5
v 15.2 11.6 -2.6
v 15.2 11.5 -2.6
v 15.1 11.5 -2.6
v 15.1 11.6 -2.6
v 15.3 11.6 -2.5
v 15.3 11.5 -2.5
v 15.3 11.5 -2.6
v 15.3 11.6 -2.6
v 15.2 11.6 -2.6
v 15.2 11.6 -2.5
v 15.3 11.6 -2.5
v 15.3 11.6 -2.6
v 15.2 11.6 -2.5
v 15.2 11.5 -2.5
v 15.3 11.5 -2.5
v 15.3 11.6 -2.5
v 15.3 11.6 -2.6
v 15.3 11.5 -2.6
v 15.2 11.5 -2.6
v 15.2 11.6 -2.6
v 15.1 11.5 -2.6
v 15.1 11.4 -2.6
v 15.1 11.4 -2.5
v 15.1 11.5 -2.5
v 15.1 11.4 -2.5
v 15.1 11.4 -2.6
v 15.2 11.4 -2.6
v 15.2 11.4 -2.5
v 15.1 11.5 -2.5
v 15.1 11.4 -2.5
v 15.2 11.4 -2.5
v 15.2 11.5 -2.5
v 15.2 11.5 -2.6
v 15.2 11.4 -2.6
v 15.1 11.4 -2.6
v 15.1 11.5 -2.6
v 15.2 11.4 -2.5
v 15.2 11.4 -2.6
v 15.3 11.4 -2.6
v 15.3 11.4 -2.5
v 15.2 11.5 -2.5
v 15.2 11.4 -2.5
v 15.3 11.4 -2.5
v 15.3 11.5 -2.5
v 15.3 11.5 -2.6
v 15.3 11.4 -2.6
v 15.2 11.4 -2.6
v 15.2 11.5 -2.6
v 15.3 11.5 -2.6
v 15.3 11.5 -2.5
v 15.4 11.5 -2.5
v 15.4 11.5 -2.6
v 15.3 11.4 -2.5
v 15.3 11.4 -2.6
v 15.4 11.4 -2.6
v 15.4 11.4 -2.5
v 15.3 11.5 -2.5
v 15.3 11.4 -2.5
v 15.4 11.4 -2.5
v 15.4 11.5 -2.5
v 15.4 11.5 -2.6
v 15.4 11.4 -2.6
v 15.3 11.4 -2.6
v 15.3 11.5 -2.6
v 15.4 11.5 -2.6
v 15.4 11.5 -2.5
v 15.5 11.5 -2.5
v 15.5 11.5 -2.6
v 15.4 11.5 -2.5
v 15.4 11.4 -2.5
v 15.5 11.4 -2.5
v 15.5 11.5 -2.5
v 15.5 11.5 -2.6
v 15.5 11.4 -2.6
v 15.4 11.4 -2.6
v 15.4 11.5 -2.6
v 15.5 11.5 -2.6
v 15.5 11.5 -2.5
v 15.6 11.5 -2.5
v 15.6 11.5 -2.6
v 15.5 11.5 -2.5
v 15.5 11.4 -2.5
v 15.6 11.4 -2.5
v 15.6 11.5 -2.5
v 15.6 11.5 -2.6
v 15.6 11.4 -2.6
v 15.5 11.4 -2.6
v 15.5 11.5 -2.6
v 15.6 11.5 -2.6
v 15.6 11.5 -2.5
v 15.7 11.5 -2.5
v 15.7 11.5 -2.6
v 15.6 11.5 -2.5
v 15.6 11.4 -2.5
v 15.7 11.4 -2.5
v 15.7 11.5 -2.5
v 15.7 11.5 -2.6
v 15.7 11.4 -2.6
v 15.6 11.4 -2.6
v 15.6 11.5 -2.6
v 15.8 11.5 -2.5
v 15.8 11.4 -2.5
v 15.8 11.4 -2.6
v 15.8 11.5 -2.6
v 15.7 11.5 -2.6
v 15.7 11.5 -2.5
v 15.8 11.5 -2.5
v 15.8 11.5 -2.6
v 15.7 11.5 -2.5
v 15.7 11.4 -2.5
v 15.8 11.4 -2.5
v 15.8 11.5 -2.5
v 15.8 11.5 -2.6
v 15.8 11.4 -2.6
v 15.7 11.4 -2.6
v 15.7 11.5 -2.6
v 15.4 11.4 -2.6
v 15.4 11.3 -2.6
v 15.4 11.3 -2.5
v 15.4 11.4 -2.5
v 15.4 11.3 -2.5
v 15.4 11.3 -2.6
v 15.5 11.3 -2.6
v 15.5 11.3 -2.5
v 15.4 11.4 -2.5
v 15.4 11.3 -2.5
v 15.5 11.3 -2.5
v 15.5 11.4 -2.5
v 15.5 11.4 -2.6
v 15.5 11.3 -2.6
v 15.4 11.3 -2.6
v 15.4 11.4 -2.6
v 15.5 11.3 -2.5
v 15.5 11.3 -2.6
v 15.6 11.3 -2.6
v 15.6 11.3 -2.5
v 15.5 11.4 -2.5
v 15.5 11.3 -2.5
v 15.6 11.3 -2.5
v 15.6 11.4 -2.5
v 15.6 11.4 -2.6
v 15.6 11.3 -2.6
v 15.5 11.3 -2.6
v 15.5 11.4 -2.6
v 15.6 11.4 -2.5
v 15.6 11.3 -2.5
v 15.7 11.3 -2.5
v 15.7 11.4 -2.5
v 15.7 11.4 -2.6
v 15.7 11.3 -2.6
v 15.6 11.3 -2.6
v 15.6 11.4 -2.6
v 15.7 11.4 -2.5
v 15.7 11.3 -2.5
v 15.8 11.3 -2.5
v 15.8 11.4 -2.5
v 15.8 11.4 -2.6
v 15.8 11.3 -2.6
v 15.7 11.3 -2.6
v 15.7 11.4 -2.6
v 15.9 11.4 -2.5
v 15.9 11.3 -2.5
v 15.9 11.3 -2.6
v 15.9 11.4 -2.6
v 15.8 11.4 -2.6
v 15.8 11.4 -2.5
v 15.9 11.4 -2.5
v 15.9 11.4 -2.6
v 15.8 11.4 -2.5
v 15.8 11.3 -2.5
v 15.9 11.3 -2.5
v 15.9 11.4 -2.5
v 15.9 11.4 -2.6
v 15.9 11.3 -2.6
v 15.8 11.3 -2.6
v 15.8 11.4 -2.6
v 14.8 11.3 -2.6
v 14.8 11.2 -2.6
v 14.8 11.2 -2.5
v 14.8 11.3 -2.5
v 14.9 11.3 -2.5
v 14.9 11.2 -2.5
v 14.9 11.2 -2.6
v 14.9 11.3 -2.6
v 14.8 11.3 -2.6
v 14.8 11.3 -2.5
v 14.9 11.3 -2.5
v 14.9 11.3 -2.6
v 14.8 11.2 -2.5
v 14.8 11.2 -2.6
v 14.9 11.2 -2.6
v 14.9 11.2 -2.5
v 14.8 11.3 -2.5
v 14.8 11.2 -2.5
v 14.9 11.2 -2.5
v 14.9 11.3 -2.5
v 14.9 11.3 -2.6
v 14.9 11.2 -2.6
v 14.8 11.2 -2.6
v 14.8 11.3 -2.6
v 15.6 11.3 -2.6
v 15.6 11.2 -2.6
v 15.6 11.2 -2.5
v 15.6 11.3 -2.5
v 15.6 11.3 -2.5
v 15.6 11.2 -2.5
v 15.7 11.2 -2.5
v 15.7 11.3 -2.5
v 15.7 11.3 -2.6
v 15.7 11.2 -2.6
v 15.6 11.2 -2.6
v 15.6 11.3 -2.6
v 15.7 11.3 -2.5
v 15.7 11.2 -2.5
v 15.8 11.2 -2.5
v 15.8 11.3 -2.5
v 15.8 11.3 -2.6
v 15.8 11.2 -2.6
v 15.7 11.2 -2.6
v 15.7 11.3 -2.6
v 15.9 11.3 -2.5
v 15.9 11.2 -2.5
v 15.9 11.2 -2.6
v 15.9 11.3 -2.6
v 15.8 11.3 -2.5
v 15.8 11.2 -2.5
v 15.9 11.2 -2.5
v 15.9 11.3 -2.5
v 15.9 11.3 -2.6
v 15.9 11.2 -2.6
v 15.8 11.2 -2.6
v 15.8 11.3 -2.6
v 14.5 11.2 -2.6
v 14.5 11.1 -2.6
v 14.5 11.1 -2.5
v 14.5 11.2 -2.5
v 14.6 11.2 -2.5
v 14.6 11.1 -2.5
v 14.6 11.1 -2.6
v 14.6 11.2 -2.6
v 14.5 11.2 -2.6
v 14.5 11.2 -2.5
v 14.6 11.2 -2.5
v 14.6 11.2 -2.6
v 14.5 11.1 -2.5
v 14.5 11.1 -2.6
v 14.6 11.1 -2.6
v 14.6 11.1 -2.5
v 14.5 11.2 -2.5
v 14.5 11.1 -2.5
v 14.6 11.1 -2.5
v 14.6 11.2 -2.5
v 14.6 11.2 -2.6
v 14.6 11.1 -2.6
v 14.5 11.1 -2.6
v 14.5 11.2 -2.6
v 15.4 11.2 -2.6
v 15.4 11.1 -2.6
v 15.4 11.1 -2.5
v 15.4 11.2 -2.5
v 15.5 11.2 -2.5
v 15.5 11.1 -2.5
v 15.5 11.1 -2.6
v 15.5 11.2 -2.6
v 15.4 11.2 -2.6
v 15.4 11.2 -2.5
v 15.5 11.2 -2.5
v 15.5 11.2 -2.6
v 15.4 11.1 -2.5
v 15.4 11.1 -2.6
v 15.5 11.1 -2.6
v 15.5 11.1 -2.5
v 15.4 11.2 -2.5
v 15.4 11.1 -2.5
v 15.5 11.1 -2.5
v 15.5 11.2 -2.5
v 15.5 11.2 -2.6
v 15.5 11.1 -2.6
v 15.4 11.1 -2.6
v 15.4 11.2 -2.6
v 15.6 11.2 -2.6
v 15.6 11.1 -2.6
v 15.6 11.1 -2.5
v 15.6 11.2 -2.5
v 15.6 11.2 -2.5
v 15.6 11.1 -2.5
v 15.7 11.1 -2.5
v 15.7 11.2 -2.5
v 15.7 11.2 -2.6
v 15.7 11.1 -2.6
v 15.6 11.1 -2.6
v 15.6 11.2 -2.6
v 15.7 11.2 -2.5
v 15.7 11.1 -2.5
v 15.8 11.1 -2.5
v 15.8 11.2 -2.5
v 15.8 11.2 -2.6
v 15.8 11.1 -2.6
v 15.7 11.1 -2.6
v 15.7 11.2 -2.6
v 15.9 11.2 -2.5
v 15.9 11.1 -2.5
v 15.9 11.1 -2.6
v 15.9 11.2 -2.6
v 15.8 11.1 -2.5
v 15.8 11.1 -2.6
v 15.9 11.1 -2.6
v 15.9 11.1 -2.5
v 15.8 11.2 -2.5
v 15.8 11.1 -2.5
v 15.9 11.1 -2.5
v 15.9 11.2 -2.5
v 15.9 11.2 -2.6
v 15.9 11.1 -2.6
v 15.8 11.1 -2.6
v 15.8 11.2 -2.6
v 14.4 11.1 -2.6
v 14.4 11 -2.6
v 14.4 11 -2.5
v 14.4 11.1 -2.5
v 14.5 11.1 -2.5
v 14.5 11 -2.5
v 14.5 11 -2.6
v 14.5 11.1 -2.6
v 14.4 11.1 -2.6
v 14.4 11.1 -2.5
v 14.5 11.1 -2.5
v 14.5 11.1 -2.6
v 14.4 11 -2.5
v 14.4 11 -2.6
v 14.5 11 -2.6
v 14.5 11 -2.5
v 14.4 11.1 -2.5
v 14.4 11 -2.5
v 14.5 11 -2.5
v 14.5 11.1 -2.5
v 14.5 11.1 -2.6
v 14.5 11 -2.6
v 14.4 11 -2.6
v 14.4 11.1 -2.6
v 15.5 11.1 -2.6
v 15.5 11 -2.6
v 15.5 11 -2.5
v 15.5 11.1 -2.5
v 15.5 11.1 -2.6
v 15.5 11.1 -2.5
v 15.6 11.1 -2.5
v 15.6 11.1 -2.6
v 15.5 11.1 -2.5
v 15.5 11 -2.5
v 15.6 11 -2.5
v 15.6 11.1 -2.5
v 15.6 11.1 -2.6
v 15.6 11 -2.6
v 15.5 11 -2.6
v 15.5 11.1 -2.6
v 15.6 11.1 -2.5
v 15.6 11 -2.5
v 15.7 11 -2.5
v 15.7 11.1 -2.5
v 15.7 11.1 -2.6
v 15.7 11 -2.6
v 15.6 11 -2.6
v 15.6 11.1 -2.6
v 15.8 11.1 -2.5
v 15.8 11 -2.5
v 15.8 11 -2.6
v 15.8 11.1 -2.6
v 15.7 11 -2.5
v 15.7 11 -2.6
v 15.8 11 -2.6
v 15.8 11 -2.5
v 15.7 11.1 -2.5
v 15.7 11 -2.5
v 15.8 11 -2.5
v 15.8 11.1 -2.5
v 15.8 11.1 -2.6
v 15.8 11 -2.6
v 15.7 11 -2.6
v 15.7 11.1 -2.6
v 15.2 11 -2.6
v 15.2 10.9 -2.6
v 15.2 10.9 -2.5
v 15.2 11 -2.5
v 15.3 11 -2.5
v 15.3 10.9 -2.5
v 15.3 10.9 -2.6
v 15.3 11 -2.6
v 15.2 11 -2.6
v 15.2 11 -2.5
v 15.3 11 -2.5
v 15.3 11 -2.6
v 15.2 11 -2.5
v 15.2 10.9 -2.5
v 15.3 10.9 -2.5
v 15.3 11 -2.5
v 15.3 11 -2.6
v 15.3 10.9 -2.6
v 15.2 10.9 -2.6
v 15.2 11 -2.6
v 15.4 11 -2.6
v 15.4 10.9 -2.6
v 15.4 10.9 -2.5
v 15.4 11 -2.5
v 15.4 11 -2.6
v 15.4 11 -2.5
v 15.5 11 -2.5
v 15.5 11 -2.6
v 15.4 11 -2.5
v 15.4 10.9 -2.5
v 15.5 10.9 -2.5
v 15.5 11 -2.5
v 15.5 11 -2.6
v 15.5 10.9 -2.6
v 15.4 10.9 -2.6
v 15.4 11 -2.6
v 15.5 11 -2.5
v 15.5 10.9 -2.5
v 15.6 10.9 -2.5
v 15.6 11 -2.5
v 15.6 11 -2.6
v 15.6 10.9 -2.6
v 15.5 10.9 -2.6
v 15.5 11 -2.6
v 15.7 11 -2.5
v 15.7 10.9 -2.5
v 15.7 10.9 -2.6
v 15.7 11 -2.6
v 15.6 11 -2.5
v 15.6 10.9 -2.5
v 15.7 10.9 -2.5
v 15.7 11 -2.5
v 15.7 11 -2.6
v 15.7 10.9 -2.6
v 15.6 10.9 -2.6
v 15.6 11 -2.6
v 14.6 10.9 -2.6
v 14.6 10.8 -2.6
v 14.6 10.8 -2.5
v 14.6 10.9 -2.5
v 14.6 10.9 -2.6
v 14.6 10.9 -2.5
v 14.7 10.9 -2.5
v 14.7 10.9 -2.6
v 14.6 10.9 -2.5
v 14.6 10.8 -2.5
v 14.7 10.8 -2.5
v 14.7 10.9 -2.5
v 14.7 10.9 -2.6
v 14.7 10.8 -2.6
v 14.6 10.8 -2.6
v 14.6 10.9 -2.6
v 14.7 10.9 -2.6
v 14.7 10.9 -2.5
v 14.8 10.9 -2.5
v 14.8 10.9 -2.6
v 14.7 10.9 -2.5
v 14.7 10.8 -2.5
v 14.8 10.8 -2.5
v 14.8 10.9 -2.5
v 14.8 10.9 -2.6
v 14.8 10.8 -2.6
v 14.7 10.8 -2.6
v 14.7 10.9 -2.6
v 14.8 10.9 -2.6
v 14.8 10.9 -2.5
v 14.9 10.9 -2.5
v 14.9 10.9 -2.6
v 14.8 10.9 -2.5
v 14.8 10.8 -2.5
v 14.9 10.8 -2.5
v 14.9 10.9 -2.5
v 14.9 10.9 -2.6
v 14.9 10.8 -2.6
v 14.8 10.8 -2.6
v 14.8 10.9 -2.6
v 14.9 10.9 -2.6
v 14.9 10.9 -2.5
v 15 10.9 -2.5
v 15 10.9 -2.6
v 14.9 10.9 -2.5
v 14.9 10.8 -2.5
v 15 10.8 -2.5
v 15 10.9 -2.5
v 15 10.9 -2.6
v 15 10.8 -2.6
v 14.9 10.8 -2.6
v 14.9 10.9 -2.6
v 15 10.9 -2.6
v 15 10.9 -2.5
v 15.1 10.9 -2.5
v 15.1 10.9 -2.6
v 15 10.9 -2.5
v 15 10.8 -2.5
v 15.1 10.8 -2.5
v 15.1 10.9 -2.5
v 15.1 10.9 -2.6
v 15.1 10.8 -2.6
v 15 10.8 -2.6
v 15 10.9 -2.6
v 15.1 10.9 -2.6
v 15.1 10.9 -2.5
v 15.2 10.9 -2.5
v 15.2 10.9 -2.6
v 15.1 10.9 -2.5
v 15.1 10.8 -2.5
v 15.2 10.8 -2.5
v 15.2 10.9 -2.5
v 15.2 10.9 -2.6
v 15.2 10.8 -2.6
v 15.1 10.8 -2.6
v 15.1 10.9 -2.6
v 15.2 10.9 -2.5
v 15.2 10.8 -2.5
v 15.3 10.8 -2.5
v 15.3 10.9 -2.5
v 15.3 10.9 -2.6
v 15.3 10.8 -2.6
v 15.2 10.8 -2.6
v 15.2 10.9 -2.6
v 15.3 10.9 -2.6
v 15.3 10.9 -2.5
v 15.4 10.9 -2.5
v 15.4 10.9 -2.6
v 15.3 10.9 -2.5
v 15.3 10.8 -2.5
v 15.4 10.8 -2.5
v 15.4 10.9 -2.5
v 15.4 10.9 -2.6
v 15.4 10.8 -2.6
v 15.3 10.8 -2.6
v 15.3 10.9 -2.6
v 15.4 10.9 -2.5
v 15.4 10.8 -2.5
v 15.5 10.8 -2.5
v 15.5 10.9 -2.5
v 15.5 10.9 -2.6
v 15.5 10.8 -2.6
v 15.4 10.8 -2.6
v 15.4 10.9 -2.6
v 15.5 10.9 -2.5
v 15.5 10.8 -2.5
v 15.6 10.8 -2.5
v 15.6 10.9 -2.5
v 15.6 10.9 -2.6
v 15.6 10.8 -2.6
v 15.5 10.8 -2.6
v 15.5 10.9 -2.6
v 15.7 10.9 -2.5
v 15.7 10.8 -2.5
v 15.7 10.8 -2.6
v 15.7 10.9 -2.6
v 15.6 10.9 -2.5
v 15.6 10.8 -2.5
v 15.7 10.8 -2.5
v 15.7 10.9 -2.5
v 15.7 10.9 -2.6
v 15.7 10.8 -2.6
v 15.6 10.8 -2.6
v 15.6 10.9 -2.6
v 13.7 10.8 -2.6
v 13.7 10.7 -2.6
v 13.7 10.7 -2.5
v 13.7 10.8 -2.5
v 13.7 10.8 -2.6
v 13.7 10.8 -2.5
v 13.8 10.8 -2.5
v 13.8 10.8 -2.6
v 13.7 10.7 -2.5
v 13.7 10.7 -2.6
v 13.8 10.7 -2.6
v 13.8 10.7 -2.5
v 13.7 10.8 -2.5
v 13.7 10.7 -2.5
v 13.8 10.7 -2.5
v 13.8 10.8 -2.5
v 13.8 10.8 -2.6
v 13.8 10.7 -2.6
v 13.7 10.7 -2.6
v 13.7 10.8 -2.6
v 13.9 10.8 -2.5
v 13.9 10.7 -2.5
v 13.9 10.7 -2.6
v 13.9 10.8 -2.6
v 13.8 10.8 -2.6
v 13.8 10.8 -2.5
v 13.9 10.8 -2.5
v 13.9 10.8 -2.6
v 13.8 10.7 -2.5
v 13.8 10.7 -2.6
v 13.9 10.7 -2.6
v 13.9 10.7 -2.5
v 13.8 10.8 -2.5
v 13.8 10.7 -2.5
v 13.9 10.7 -2.5
v 13.9 10.8 -2.5
v 13.9 10.8 -2.6
v 13.9 10.7 -2.6
v 13.8 10.7 -2.6
v 13.8 10.8 -2.6
v 14.1 10.8 -2.6
v 14.1 10.7 -2.6
v 14.1 10.7 -2.5
v 14.1 10.8 -2.5
v 14.1 10.8 -2.6
v 14.1 10.8 -2.5
v 14.2 10.8 -2.5
v 14.2 10.8 -2.6
v 14.1 10.7 -2.5
v 14.1 10.7 -2.6
v 14.2 10.7 -2.6
v 14.2 10.7 -2.5
v 14.1 10.8 -2.5
v 14.1 10.7 -2.5
v 14.2 10.7 -2.5
v 14.2 10.8 -2.5
v 14.2 10.8 -2.6
v 14.2 10.7 -2.6
v 14.1 10.7 -2.6
v 14.1 10.8 -2.6
v 14.2 10.8 -2.6
v 14.2 10.8 -2.5
v 14.3 10.8 -2.5
v 14.3 10.8 -2.6
v 14.2 10.7 -2.5
v 14.2 10.7 -2.6
v 14.3 10.7 -2.6
v 14.3 10.7 -2.5
v 14.2 10.8 -2.5
v 14.2 10.7 -2.5
v 14.3 10.7 -2.5
v 14.3 10.8 -2.5
v 14.3 10.8 -2.6
v 14.3 10.7 -2.6
v 14.2 10.7 -2.6
v 14.2 10.8 -2.6
v 14.3 10.8 -2.6
v 14.3 10.8 -2.5
v 14.4 10.8 -2.5
v 14.4 10.8 -2.6
v 14.3 10.8 -2.5
v 14.3 10.7 -2.5
v 14.4 10.7 -2.5
v 14.4 10.8 -2.5
v 14.4 10.8 -2.6
v 14.4 10.7 -2.6
v 14.3 10.7 -2.6
v 14.3 10.8 -2.6
v 14.4 10.8 -2.6
v 14.4 10.8 -2.5
v 14.5 10.8 -2.5
v 14.5 10.8 -2.6
v 14.4 10.7 -2.5
v 14.4 10.7 -2.6
v 14.5 10.7 -2.6
v 14.5 10.7 -2.5
v 14.4 10.8 -2.5
v 14.4 10.7 -2.5
v 14.5 10.7 -2.5
v 14.5 10.8 -2.5
v 14.5 10.8 -2.6
v 14.5 10.7 -2.6
v 14.4 10.7 -2.6
v 14.4 10.8 -2.6
v 14.5 10.8 -2.6
v 14.5 10.8 -2.5
v 14.6 10.8 -2.5
v 14.6 10.8 -2.6
v 14.5 10.7 -2.5
v 14.5 10.7 -2.6
v 14.6 10.7 -2.6
v 14.6 10.7 -2.5
v 14.5 10.8 -2.5
v 14.5 10.7 -2.5
v 14.6 10.7 -2.5
v 14.6 10.8 -2.5
v 14.6 10.8 -2.6
v 14.6 10.7 -2.6
v 14.5 10.7 -2.6
v 14.5 10.8 -2.6
v 14.6 10.7 -2.5
v 14.6 10.7 -2.6
v 14.7 10.7 -2.6
v 14.7 10.7 -2.5
v 14.6 10.8 -2.5
v 14.6 10.7 -2.5
v 14.7 10.7 -2.5
v 14.7 10.8 -2.5
v 14.7 10.8 -2.6
v 14.7 10.7 -2.6
v 14.6 10.7 -2.6
v 14.6 10.8 -2.6
v 14.7 10.7 -2.5
v 14.7 10.7 -2.6
v 14.8 10.7 -2.6
v 14.8 10.7 -2.5
v 14.7 10.8 -2.5
v 14.7 10.7 -2.5
v 14.8 10.7 -2.5
v 14.8 10.8 -2.5
v 14.8 10.8 -2.6
v 14.8 10.7 -2.6
v 14.7 10.7 -2.6
v 14.7 10.8 -2.6
v 14.8 10.7 -2.5
v 14.8 10.7 -2.6
v 14.9 10.7 -2.6
v 14.9 10.7 -2.5
v 14.8 10.8 -2.5
v 14.8 10.7 -2.5
v 14.9 10.7 -2.5
v 14.9 10.8 -2.5
v 14.9 10.8 -2.6
v 14.9 10.7 -2.6
v 14.8 10.7 -2.6
v 14.8 10.8 -2.6
v 14.9 10.7 -2.5
v 14.9 10.7 -2.6
v 15 10.7 -2.6
v 15 10.7 -2.5
v 14.9 10.8 -2.5
v 14.9 10.7 -2.5
v 15 10.7 -2.5
v 15 10.8 -2.5
v 15 10.8 -2.6
v 15 10.7 -2.6
v 14.9 10.7 -2.6
v 14.9 10.8 -2.6
v 15 10.7 -2.5
v 15 10.7 -2.6
v 15.1 10.7 -2.6
v 15.1 10.7 -2.5
v 15 10.8 -2.5
v 15 10.7 -2.5
v 15.1 10.7 -2.5
v 15.1 10.8 -2.5
v 15.1 10.8 -2.6
v 15.1 10.7 -2.6
v 15 10.7 -2.6
v 15 10.8 -2.6
v 15.1 10.7 -2.5
v 15.1 10.7 -2.6
v 15.2 10.7 -2.6
v 15.2 10.7 -2.5
v 15.1 10.8 -2.5
v 15.1 10.7 -2.5
v 15.2 10.7 -2.5
v 15.2 10.8 -2.5
v 15.2 10.8 -2.6
v 15.2 10.7 -2.6
v 15.1 10.7 -2.6
v 15.1 10.8 -2.6
v 15.2 10.7 -2.5
v 15.2 10.7 -2.6
v 15.3 10.7 -2.6
v 15.3 10.7 -2.5
v 15.2 10.8 -2.5
v 15.2 10.7 -2.5
v 15.3 10.7 -2.5
v 15.3 10.8 -2.5
v 15.3 10.8 -2.6
v 15.3 10.7 -2.6
v 15.2 10.7 -2.6
v 15.2 10.8 -2.6
v 15.3 10.7 -2.5
v 15.3 10.7 -2.6
v 15.4 10.7 -2.6
v 15.4 10.7 -2.5
v 15.3 10.8 -2.5
v 15.3 10.7 -2.5
v 15.4 10.7 -2.5
v 15.4 10.8 -2.5
v 15.4 10.8 -2.6
v 15.4 10.7 -2.6
v 15.3 10.7 -2.6
v 15.3 10.8 -2.6
v 15.4 10.7 -2.5
v 15.4 10.7 -2.6
v 15.5 10.7 -2.6
v 15.5 10.7 -2.5
v 15.4 10.8 -2.5
v 15.4 10.7 -2.5
v 15.5 10.7 -2.5
v 15.5 10.8 -2.5
v 15.5 10.8 -2.6
v 15.5 10.7 -2.6
v 15.4 10.7 -2.6
v 15.4 10.8 -2.6
v 15.5 10.7 -2.5
v 15.5 10.7 -2.6
v 15.6 10.7 -2.6
v 15.6 10.7 -2.5
v 15.5 10.8 -2.5
v 15.5 10.7 -2.5
v 15.6 10.7 -2.5
v 15.6 10.8 -2.5
v 15.6 10.8 -2.6
v 15.6 10.7 -2.6
v 15.5 10.7 -2.6
v 15.5 10.8 -2.6
v 15.7 10.8 -2.5
v 15.7 10.7 -2.5
v 15.7 10.7 -2.6
v 15.7 10.8 -2.6
v 15.6 10.8 -2.5
v 15.6 10.7 -2.5
v 15.7 10.7 -2.5
v 15.7 10.8 -2.5
v 15.7 10.8 -2.6
v 15.7 10.7 -2.6
v 15.6 10.7 -2.6
v 15.6 10.8 -2.6
v 14.3 10.7 -2.6
v 14.3 10.6 -2.6
v 14.3 10.6 -2.5
v 14.3 10.7 -2.5
v 14.4 10.7 -2.5
v 14.4 10.6 -2.5
v 14.4 10.6 -2.6
v 14.4 10.7 -2.6
v 14.3 10.6 -2.5
v 14.3 10.6 -2.6
v 14.4 10.6 -2.6
v 14.4 10.6 -2.5
v 14.3 10.7 -2.5
v 14.3 10.6 -2.5
v 14.4 10.6 -2.5
v 14.4 10.7 -2.5
v 14.4 10.7 -2.6
v 14.4 10.6 -2.6
v 14.3 10.6 -2.6
v 14.3 10.7 -2.6
v 15.6 10.7 -2.6
v 15.6 10.6 -2.6
v 15.6 10.6 -2.5
v 15.6 10.7 -2.5
v 15.7 10.7 -2.5
v 15.7 10.6 -2.5
v 15.7 10.6 -2.6
v 15.7 10.7 -2.6
v 15.6 10.6 -2.5
v 15.6 10.6 -2.6
v 15.7 10.6 -2.6
v 15.7 10.6 -2.5
v 15.6 10.7 -2.5
v 15.6 10.6 -2.5
v 15.7 10.6 -2.5
v 15.7 10.7 -2.5
v 15.7 10.7 -2.6
v 15.7 10.6 -2.6
v 15.6 10.6 -2.6
v 15.6 10.7 -2.6
v 15.5 10.6 -2.6
v 15.5 10.5 -2.6
v 15.5 10.5 -2.5
v 15.5 10.6 -2.5
v 15.6 10.6 -2.5
v 15.6 10.5 -2.5
v 15.6 10.5 -2.6
v 15.6 10.6 -2.6
v 15.5 10.6 -2.6
v 15.5 10.6 -2.5
v 15.6 10.6 -2.5
v 15.6 10.6 -2.6
v 15.5 10.5 -2.5
v 15.5 10.5 -2.6
v 15.6 10.5 -2.6
v 15.6 10.5 -2.5
v 15.5 10.6 -2.5
v 15.5 10.5 -2.5
v 15.6 10.5 -2.5
v 15.6 10.6 -2.5
v 15.6 10.6 -2.6
v 15.6 10.5 -2.6
v 15.5 10.5 -2.6
v 15.5 10.6 -2.6
v 14.6 10.5 -2.6
v 14.6 10.4 -2.6
v 14.6 10.4 -2.5
v 14.6 10.5 -2.5
v 14.7 10.5 -2.5
v 14.7 10.4 -2.5
v 14.7 10.4 -2.6
v 14.7 10.5 -2.6
v 14.6 10.5 -2.6
v 14.6 10.5 -2.5
v 14.7 10.5 -2.5
v 14.7 10.5 -2.6
v 14.6 10.4 -2.5
v 14.6 10.4 -2.6
v 14.7 10.4 -2.6
v 14.7 10.4 -2.5
v 14.6 10.5 -2.5
v 14.6 10.4 -2.5
v 14.7 10.4 -2.5
v 14.7 10.5 -2.5
v 14.7 10.5 -2.6
v 14.7 10.4 -2.6
v 14.6 10.4 -2.6
v 14.6 10.5 -2.6
v 15.2 10.5 -2.6
v 15.2 10.4 -2.6
v 15.2 10.4 -2.5
v 15.2 10.5 -2.5
v 15.3 10.5 -2.5
v 15.3 10.4 -2.5
v 15.3 10.4 -2.6
v 15.3 10.5 -2.6
v 15.2 10.5 -2.6
v 15.2 10.5 -2.5
v 15.3 10.5 -2.5
v 15.3 10.5 -2.6
v 15.2 10.4 -2.5
v 15.2 10.4 -2.6
v 15.3 10.4 -2.6
v 15.3 10.4 -2.5
v 15.2 10.5 -2.5
v 15.2 10.4 -2.5
v 15.3 10.4 -2.5
v 15.3 10.5 -2.5
v 15.3 10.5 -2.6
v 15.3 10.4 -2.6
v 15.2 10.4 -2.6
v 15.2 10.5 -2.6
v 15.6 10.5 -2.6
v 15.6 10.4 -2.6
v 15.6 10.4 -2.5
v 15.6 10.5 -2.5
v 15.6 10.5 -2.6
v 15.6 10.5 -2.5
v 15.7 10.5 -2.5
v 15.7 10.5 -2.6
v 15.6 10.5 -2.5
v 15.6 10.4 -2.5
v 15.7 10.4 -2.5
v 15.7 10.5 -2.5
v 15.7 10.5 -2.6
v 15.7 10.4 -2.6
v 15.6 10.4 -2.6
v 15.6 10.5 -2.6
v 15.8 10.5 -2.5
v 15.8 10.4 -2.5
v 15.8 10.4 -2.6
v 15.8 10.5 -2.6
v 15.7 10.5 -2.6
v 15.7 10.5 -2.5
v 15.8 10.5 -2.5
v 15.8 10.5 -2.6
v 15.7 10.5 -2.5
v 15.7 10.4 -2.5
v 15.8 10.4 -2.5
v 15.8 10.5 -2.5
v 15.8 10.5 -2.6
v 15.8 10.4 -2.6
v 15.7 10.4 -2.6
v 15.7 10.5 -2.6
v 15.5 10.4 -2.6
v 15.5 10.3 -2.6
v 15.5 10.3 -2.5
v 15.5 10.4 -2.5
v 15.5 10.4 -2.6
v 15.5 10.4 -2.5
v 15.6 10.4 -2.5
v 15.6 10.4 -2.6
v 15.5 10.4 -2.5
v 15.5 10.3 -2.5
v 15.6 10.3 -2.5
v 15.6 10.4 -2.5
v 15.6 10.4 -2.6
v 15.6 10.3 -2.6
v 15.5 10.3 -2.6
v 15.5 10.4 -2.6
v 15.6 10.4 -2.5
v 15.6 10.3 -2.5
v 15.7 10.3 -2.5
v 15.7 10.4 -2.5
v 15.7 10.4 -2.6
v 15.7 10.3 -2.6
v 15.6 10.3 -2.6
v 15.6 10.4 -2.6
v 15.7 10.4 -2.5
v 15.7 10.3 -2.5
v 15.8 10.3 -2.5
v 15.8 10.4 -2.5
v 15.8 10.4 -2.6
v 15.8 10.3 -2.6
v 15.7 10.3 -2.6
v 15.7 10.4 -2.6
v 15.9 10.4 -2.5
v 15.9 10.3 -2.5
v 15.9 10.3 -2.6
v 15.9 10.4 -2.6
v 15.8 10.4 -2.6
v 15.8 10.4 -2.5
v 15.9 10.4 -2.5
v 15.9 10.4 -2.6
v 15.8 10.4 -2.5
v 15.8 10.3 -2.5
v 15.9 10.3 -2.5
v 15.9 10.4 -2.5
v 15.9 10.4 -2.6
v 15.9 10.3 -2.6
v 15.8 10.3 -2.6
v 15.8 10.4 -2.6
v 15.3 10.3 -2.6
v 15.3 10.2 -2.6
v 15.3 10.2 -2.5
v 15.3 10.3 -2.5
v 15.3 10.3 -2.6
v 15.3 10.3 -2.5
v 15.4 10.3 -2.5
v 15.4 10.3 -2.6
v 15.3 10.3 -2.5
v 15.3 10.2 -2.5
v 15.4 10.2 -2.5
v 15.4 10.3 -2.5
v 15.4 10.3 -2.6
v 15.4 10.2 -2.6
v 15.3 10.2 -2.6
v 15.3 10.3 -2.6
v 15.4 10.3 -2.6
v 15.4 10.3 -2.5
v 15.5 10.3 -2.5
v 15.5 10.3 -2.6
v 15.4 10.3 -2.5
v 15.4 10.2 -2.5
v 15.5 10.2 -2.5
v 15.5 10.3 -2.5
v 15.5 10.3 -2.6
v 15.5 10.2 -2.6
v 15.4 10.2 -2.6
v 15.4 10.3 -2.6
v 15.5 10.3 -2.5
v 15.5 10.2 -2.5
v 15.6 10.2 -2.5
v 15.6 10.3 -2.5
v 15.6 10.3 -2.6
v 15.6 10.2 -2.6
v 15.5 10.2 -2.6
v 15.5 10.3 -2.6
v 15.6 10.3 -2.5
v 15.6 10.2 -2.5
v 15.7 10.2 -2.5
v 15.7 10.3 -2.5
v 15.7 10.3 -2.6
v 15.7 10.2 -2.6
v 15.6 10.2 -2.6
v 15.6 10.3 -2.6
v 15.7 10.3 -2.5
v 15.7 10.2 -2.5
v 15.8 10.2 -2.5
v 15.8 10.3 -2.5
v 15.8 10.3 -2.6
v 15.8 10.2 -2.6
v 15.7 10.2 -2.6
v 15.7 10.3 -2.6
v 15.9 10.3 -2.5
v 15.9 10.2 -2.5
v 15.9 10.2 -2.6
v 15.9 10.3 -2.6
v 15.8 10.2 -2.5
v 15.8 10.2 -2.6
v 15.9 10.2 -2.6
v 15.9 10.2 -2.5
v 15.8 10.3 -2.5
v 15.8 10.2 -2.5
v 15.9 10.2 -2.5
v 15.9 10.3 -2.5
v 15.9 10.3 -2.6
v 15.9 10.2 -2.6
v 15.8 10.2 -2.6
v 15.8 10.3 -2.6
v 14.3 10.2 -2.6
v 14.3 10.1 -2.6
v 14.3 10.1 -2.5
v 14.3 10.2 -2.5
v 14.4 10.2 -2.5
v 14.4 10.1 -2.5
v 14.4 10.1 -2.6
v 14.4 10.2 -2.6
v 14.3 10.2 -2.6
v 14.3 10.2 -2.5
v 14.4 10.2 -2.5
v 14.4 10.2 -2.6
v 14.3 10.1 -2.5
v 14.3 10.1 -2.6
v 14.4 10.1 -2.6
v 14.4 10.1 -2.5
v 14.3 10.2 -2.5
v 14.3 10.1 -2.5
v 14.4 10.1 -2.5
v 14.4 10.2 -2.5
v 14.4 10.2 -2.6
v 14.4 10.1 -2.6
v 14.3 10.1 -2.6
v 14.3 10.2 -2.6
v 15 10.2 -2.6
v 15 10.1 -2.6
v 15 10.1 -2.5
v 15 10.2 -2.5
v 15 10.2 -2.6
v 15 10.2 -2.5
v 15.1 10.2 -2.5
v 15.1 10.2 -2.6
v 15 10.2 -2.5
v 15 10.1 -2.5
v 15.1 10.1 -2.5
v 15.1 10.2 -2.5
v 15.1 10.2 -2.6
v 15.1 10.1 -2.6
v 15 10.1 -2.6
v 15 10.2 -2.6
v 15.1 10.2 -2.6
v 15.1 10.2 -2.5
v 15.2 10.2 -2.5
v 15.2 10.2 -2.6
v 15.1 10.2 -2.5
v 15.1 10.1 -2.5
v 15.2 10.1 -2.5
v 15.2 10.2 -2.5
v 15.2 10.2 -2.6
v 15.2 10.1 -2.6
v 15.1 10.1 -2.6
v 15.1 10.2 -2.6
v 15.2 10.2 -2.6
v 15.2 10.2 -2.5
v 15.3 10.2 -2.5
v 15.3 10.2 -2.6
v 15.2 10.2 -2.5
v 15.2 10.1 -2.5
v 15.3 10.1 -2.5
v 15.3 10.2 -2.5
v 15.3 10.2 -2.6
v 15.3 10.1 -2.6
v 15.2 10.1 -2.6
v 15.2 10.2 -2.6
v 15.3 10.2 -2.5
v 15.3 10.1 -2.5
v 15.4 10.1 -2.5
v 15.4 10.2 -2.5
v 15.4 10.2 -2.6
v 15.4 10.1 -2.6
v 15.3 10.1 -2.6
v 15.3 10.2 -2.6
v 15.4 10.1 -2.5
v 15.4 10.1 -2.6
v 15.5 10.1 -2.6
v 15.5 10.1 -2.5
v 15.4 10.2 -2.5
v 15.4 10.1 -2.5
v 15.5 10.1 -2.5
v 15.5 10.2 -2.5
v 15.5 10.2 -2.6
v 15.5 10.1 -2.6
v 15.4 10.1 -2.6
v 15.4 10.2 -2.6
v 15.5 10.1 -2.5
v 15.5 10.1 -2.6
v 15.6 10.1 -2.6
v 15.6 10.1 -2.5
v 15.5 10.2 -2.5
v 15.5 10.1 -2.5
v 15.6 10.1 -2.5
v 15.6 10.2 -2.5
v 15.6 10.2 -2.6
v 15.6 10.1 -2.6
v 15.5 10.1 -2.6
v 15.5 10.2 -2.6
v 15.6 10.1 -2.5
v 15.6 10.1 -2.6
v 15.7 10.1 -2.6
v 15.7 10.1 -2.5
v 15.6 10.2 -2.5
v 15.6 10.1 -2.5
v 15.7 10.1 -2.5
v 15.7 10.2 -2.5
v 15.7 10.2 -2.6
v 15.7 10.1 -2.6
v 15.6 10.1 -2.6
v 15.6 10.2 -2.6
v 15.8 10.2 -2.5
v 15.8 10.1 -2.5
v 15.8 10.1 -2.6
v 15.8 10.2 -2.6
v 15.7 10.1 -2.5
v 15.7 10.1 -2.6
v 15.8 10.1 -2.6
v 15.8 10.1 -2.5
v 15.7 10.2 -2.5
v 15.7 10.1 -2.5
v 15.8 10.1 -2.5
v 15.8 10.2 -2.5
v 15.8 10.2 -2.6
v 15.8 10.1 -2.6
v 15.7 10.1 -2.6
v 15.7 10.2 -2.6
v 14.8 10.1 -2.6
v 14.8 10 -2.6
v 14.8 10 -2.5
v 14.8 10.1 -2.5
v 14.8 10.1 -2.6
v 14.8 10.1 -2.5
v 14.9 10.1 -2.5
v 14.9 10.1 -2.6
v 14.8 10.1 -2.5
v 14.8 10 -2.5
v 14.9 10 -2.5
v 14.9 10.1 -2.5
v 14.9 10.1 -2.6
v 14.9 10 -2.6
v 14.8 10 -2.6
v 14.8 10.1 -2.6
v 14.9 10.1 -2.6
v 14.9 10.1 -2.5
v 15 10.1 -2.5
v 15 10.1 -2.6
v 14.9 10.1 -2.5
v 14.9 10 -2.5
v 15 10 -2.5
v 15 10.1 -2.5
v 15 10.1 -2.6
v 15 10 -2.6
v 14.9 10 -2.6
v 14.9 10.1 -2.6
v 15 10.1 -2.5
v 15 10 -2.5
v 15.1 10 -2.5
v 15.1 10.1 -2.5
v 15.1 10.1 -2.6
v 15.1 10 -2.6
v 15 10 -2.6
v 15 10.1 -2.6
v 15.1 10 -2.5
v 15.1 10 -2.6
v 15.2 10 -2.6
v 15.2 10 -2.5
v 15.1 10.1 -2.5
v 15.1 10 -2.5
v 15.2 10 -2.5
v 15.2 10.1 -2.5
v 15.2 10.1 -2.6
v 15.2 10 -2.6
v 15.1 10 -2.6
v 15.1 10.1 -2.6
v 15.2 10 -2.5
v 15.2 10 -2.6
v 15.3 10 -2.6
v 15.3 10 -2.5
v 15.2 10.1 -2.5
v 15.2 10 -2.5
v 15.3 10 -2.5
v 15.3 10.1 -2.5
v 15.3 10.1 -2.6
v 15.3 10 -2.6
v 15.2 10 -2.6
v 15.2 10.1 -2.6
v 15.4 10.1 -2.5
v 15.4 10 -2.5
v 15.4 10 -2.6
v 15.4 10.1 -2.6
v 15.3 10 -2.5
v 15.3 10 -2.6
v 15.4 10 -2.6
v 15.4 10 -2.5
v 15.3 10.1 -2.5
v 15.3 10 -2.5
v 15.4 10 -2.5
v 15.4 10.1 -2.5
v 15.4 10.1 -2.6
v 15.4 10 -2.6
v 15.3 10 -2.6
v 15.3 10.1 -2.6
v 14.3 10 -2.6
v 14.3 9.9 -2.6
v 14.3 9.9 -2.5
v 14.3 10 -2.5
v 14.4 10 -2.5
v 14.4 9.9 -2.5
v 14.4 9.9 -2.6
v 14.4 10 -2.6
v 14.3 10 -2.6
v 14.3 10 -2.5
v 14.4 10 -2.5
v 14.4 10 -2.6
v 14.3 9.9 -2.5
v 14.3 9.9 -2.6
v 14.4 9.9 -2.6
v 14.4 9.9 -2.5
v 14.3 10 -2.5
v 14.3 9.9 -2.5
v 14.4 9.9 -2.5
v 14.4 10 -2.5
v 14.4 10 -2.6
v 14.4 9.9 -2.6
v 14.3 9.9 -2.6
v 14.3 10 -2.6
v 14.7 10 -2.6
v 14.7 9.9 -2.6
v 14.7 9.9 -2.5
v 14.7 10 -2.5
v 14.7 10 -2.6
v 14.7 10 -2.5
v 14.8 10 -2.5
v 14.8 10 -2.6
v 14.7 10 -2.5
v 14.7 9.9 -2.5
v 14.8 9.9 -2.5
v 14.8 10 -2.5
v 14.8 10 -2.6
v 14.8 9.9 -2.6
v 14.7 9.9 -2.6
v 14.7 10 -2.6
v 14.8 9.9 -2.5
v 14.8 9.9 -2.6
v 14.9 9.9 -2.6
v 14.9 9.9 -2.5
v 14.8 10 -2.5
v 14.8 9.9 -2.5
v 14.9 9.9 -2.5
v 14.9 10 -2.5
v 14.9 10 -2.6
v 14.9 9.9 -2.6
v 14.8 9.9 -2.6
v 14.8 10 -2.6
v 14.9 9.9 -2.5
v 14.9 9.9 -2.6
v 15 9.9 -2.6
v 15 9.9 -2.5
v 14.9 10 -2.5
v 14.9 9.9 -2.5
v 15 9.9 -2.5
v 15 10 -2.5
v 15 10 -2.6
v 15 9.9 -2.6
v 14.9 9.9 -2.6
v 14.9 10 -2.6
v 15.1 10 -2.5
v 15.1 9.9 -2.5
v 15.1 9.9 -2.6
v 15.1 10 -2.6
v 15 9.9 -2.5
v 15 9.9 -2.6
v 15.1 9.9 -2.6
v 15.1 9.9 -2.5
v 15 10 -2.5
v 15 9.9 -2.5
v 15.1 9.9 -2.5
v 15.1 10 -2.5
v 15.1 10 -2.6
v 15.1 9.9 -2.6
v 15 9.9 -2.6
v 15 10 -2.6
v 14.5 9.9 -2.6
v 14.5 9.8 -2.6
v 14.5 9.8 -2.5
v 14.5 9.9 -2.5
v 14.5 9.9 -2.6
v 14.5 9.9 -2.5
v 14.6 9.9 -2.5
v 14.6 9.9 -2.6
v 14.5 9.8 -2.5
v 14.5 9.8 -2.6
v 14.6 9.8 -2.6
v 14.6 9.8 -2.5
v 14.5 9.9 -2.5
v 14.5 9.8 -2.5
v 14.6 9.8 -2.5
v 14.6 9.9 -2.5
v 14.6 9.9 -2.6
v 14.6 9.8 -2.6
v 14.5 9.8 -2.6
v 14.5 9.9 -2.6
v 14.6 9.9 -2.6
v 14.6 9.9 -2.5
v 14.7 9.9 -2.5
v 14.7 9.9 -2.6
v 14.6 9.8 -2.5
v 14.6 9.8 -2.6
v 14.7 9.8 -2.6
v 14.7 9.8 -2.5
v 14.6 9.9 -2.5
v 14.6 9.8 -2.5
v 14.7 9.8 -2.5
v 14.7 9.9 -2.5
v 14.7 9.9 -2.6
v 14.7 9.8 -2.6
v 14.6 9.8 -2.6
v 14.6 9.9 -2.6
v 14.8 9.9 -2.5
v 14.8 9.8 -2.5
v 14.8 9.8 -2.6
v 14.8 9.9 -2.6
v 14.7 9.8 -2.5
v 14.7 9.8 -2.6
v 14.8 9.8 -2.6
v 14.8 9.8 -2.5
v 14.7 9.9 -2.5
v 14.7 9.8 -2.5
v 14.8 9.8 -2.5
v 14.8 9.9 -2.5
v 14.8 9.9 -2.6
v 14.8 9.8 -2.6
v 14.7 9.8 -2.6
v 14.7 9.9 -2.6
v 14.2 9.8 -2.6
v 14.2 9.7 -2.6
v 14.2 9.7 -2.5
v 14.2 9.8 -2.5
v 14.2 9.8 -2.6
v 14.2 9.8 -2.5
v 14.3 9.8 -2.5
v 14.3 9.8 -2.6
v 14.2 9.7 -2.5
v 14.2 9.7 -2.6
v 14.3 9.7 -2.6
v 14.3 9.7 -2.5
v 14.2 9.8 -2.5
v 14.2 9.7 -2.5
v 14.3 9.7 -2.5
v 14.3 9.8 -2.5
v 14.3 9.8 -2.6
v 14.3 9.7 -2.6
v 14.2 9.7 -2.6
v 14.2 9.8 -2.6
v 14.3 9.8 -2.6
v 14.3 9.8 -2.5
v 14.4 9.8 -2.5
v 14.4 9.8 -2.6
v 14.3 9.7 -2.5
v 14.3 9.7 -2.6
v 14.4 9.7 -2.6
v 14.4 9.7 -2.5
v 14.3 9.8 -2.5
v 14.3 9.7 -2.5
v 14.4 9.7 -2.5
v 14.4 9.8 -2.5
v 14.4 9.8 -2.6
v 14.4 9.7 -2.6
v 14.3 9.7 -2.6
v 14.3 9.8 -2.6
v 14.5 9.8 -2.5
v 14.5 9.7 -2.5
v 14.5 9.7 -2.6
v 14.5 9.8 -2.6
v 14.4 9.8 -2.6
v 14.4 9.8 -2.5
v 14.5 9.8 -2.5
v 14.5 9.8 -2.6
v 14.4 9.7 -2.5
v 14.4 9.7 -2.6
v 14.5 9.7 -2.6
v 14.5 9.7 -2.5
v 14.4 9.8 -2.5
v 14.4 9.7 -2.5
v 14.5 9.7 -2.5
v 14.5 9.8 -2.5
v 14.5 9.8 -2.6
v 14.5 9.7 -2.6
v 14.4 9.7 -2.6
v 14.4 9.8 -2.6
v 14.1 9.7 -2.6
v 14.1 9.6 -2.6
v 14.1 9.6 -2.5
v 14.1 9.7 -2.5
v 14.2 9.7 -2.5
v 14.2 9.6 -2.5
v 14.2 9.6 -2.6
v 14.2 9.7 -2.6
v 14.1 9.7 -2.6
v 14.1 9.7 -2.5
v 14.2 9.7 -2.5
v 14.2 9.7 -2.6
v 14.1 9.6 -2.5
v 14.1 9.6 -2.6
v 14.2 9.6 -2.6
v 14.2 9.6 -2.5
v 14.1 9.7 -2.5
v 14.1 9.6 -2.5
v 14.2 9.6 -2.5
v 14.2 9.7 -2.5
v 14.2 9.7 -2.6
v 14.2 9.6 -2.6
v 14.1 9.6 -2.6
v 14.1 9.7 -2.6

# faces
f 1/1/1 2/1/1 3/1/1 4/1/1
f 5/1/2 6/1/2 7/1/2 8/1/2
f 9/1/3 10/1/3 11/1/3 12/1/3
f 13/1/4 14/1/4 15/1/4 16/1/4
f 17/1/5 18/1/5 19/1/5 20/1/5
f 21/1/6 22/1/6 23/1/6 24/1/6
f 25/1/1 26/1/1 27/1/1 28/1/1
f 29/1/3 30/1/3 31/1/3 32/1/3
f 33/1/4 34/1/4 35/1/4 36/1/4
f 37/1/5 38/1/5 39/1/5 40/1/5
f 41/1/6 42/1/6 43/1/6 44/1/6
f 45/1/3 46/1/3 47/1/3 48/1/3
f 49/1/4 50/1/4 51/1/4 52/1/4
f 53/1/5 54/1/5 55/1/5 56/1/5
f 57/1/6 58/1/6 59/1/6 60/1/6
f 61/1/3 62/1/3 63/1/3 64/1/3
f 65/1/5 66/1/5 67/1/5 68/1/5
f 69/1/6 70/1/6 71/1/6 72/1/6
f 73/1/2 74/1/2 75/1/2 76/1/2
f 77/1/3 78/1/3 79/1/3 80/1/3
f 81/1/5 82/1/5 83/1/5 84/1/5
f 85/1/6 86/1/6 87/1/6 88/1/6
f 89/1/1 90/1/1 91/1/1 92/1/1
f 93/1/4 94/1/4 95/1/4 96/1/4
f 97/1/5 98/1/5 99/1/5 100/1/5
f 101/1/6 102/1/6 103/1/6 104/1/6
f 105/1/4 106/1/4 107/1/4 108/1/4
f 109/1/5 110/1/5 111/1/5 112/1/5
f 113/1/6 114/1/6 115/1/6 116/1/6
f 117/1/3 118/1/3 119/1/3 120/1/3
f 121/1/4 122/1/4 123/1/4 124/1/4
f 125/1/5 126/1/5 127/1/5 128/1/5
f 129/1/6 130/1/6 131/1/6 132/1/6
f 133/1/3 134/1/3 135/1/3 136/1/3
f 137/1/5 138/1/5 139/1/5 140/1/5
f 141/1/6 142/1/6 143/1/6 144/1/6
f 145/1/3 146/1/3 147/1/3 148/1/3
f 149/1/5 150/1/5 151/1/5 152/1/5
f 153/1/6 154/1/6 155/1/6 156/1/6
f 157/1/3 158/1/3 159/1/3 160/1/3
f 161/1/5 162/1/5 163/1/5 164/1/5
f 165/1/6 166/1/6 167/1/6 168/1/6
f 169/1/2 170/1/2 171/1/2 172/1/2
f 173/1/3 174/1/3 175/1/3 176/1/3
f 177/1/5 178/1/5 179/1/5 180/1/5
f 181/1/6 182/1/6 183/1/6 184/1/6
f 185/1/1 186/1/1 187/1/1 188/1/1
f 189/1/4 190/1/4 191/1/4 192/1/4
f 193/1/5 194/1/5 195/1/5 196/1/5
f 197/1/6 198/1/6 199/1/6 200/1/6
f 201/1/4 202/1/4 203/1/4 204/1/4
f 205/1/5 206/1/5 207/1/5 208/1/5
f 209/1/6 210/1/6 211/1/6 212/1/6
f 213/1/5 214/1/5 215/1/5 216/1/5
f 217/1/6 218/1/6 219/1/6 220/1/6
f 221/1/5 222/1/5 223/1/5 224/1/5
f 225/1/6 226/1/6 227/1/6 228/1/6
f 229/1/2 230/1/2 231/1/2 232/1/2
f 233/1/3 234/1/3 235/1/3 236/1/3
f 237/1/5 238/1/5 239/1/5 240/1/5
f 241/1/6 242/1/6 243/1/6 244/1/6
f 245/1/1 246/1/1 247/1/1 248/1/1
f 249/1/2 250/1/2 251/1/2 252/1/2
f 253/1/3 254/1/3 255/1/3 256/1/3
f 257/1/4 258/1/4 259/1/4 260/1/4
f 261/1/5 262/1/5 263/1/5 264/1/5
f 265/1/6 266/1/6 267/1/6 268/1/6
f 269/1/1 270/1/1 271/1/1 272/1/1
f 273/1/5 274/1/5 275/1/5 276/1/5
f 277/1/6 278/1/6 279/1/6 280/1/6
f 281/1/5 282/1/5 283/1/5 284/1/5
f 285/1/6 286/1/6 287/1/6 288/1/6
f 289/1/2 290/1/2 291/1/2 292/1/2
f 293/1/5 294/1/5 295/1/5 296/1/5
f 297/1/6 298/1/6 299/1/6 300/1/6
f 301/1/1 302/1/1 303/1/1 304/1/1
f 305/1/2 306/1/2 307/1/2 308/1/2
f 309/1/3 310/1/3 311/1/3 312/1/3
f 313/1/4 314/1/4 315/1/4 316/1/4
f 317/1/5 318/1/5 319/1/5 320/1/5
f 321/1/6 322/1/6 323/1/6 324/1/6
f 325/1/1 326/1/1 327/1/1 328/1/1
f 329/1/2 330/1/2 331/1/2 332/1/2
f 333/1/3 334/1/3 335/1/3 336/1/3
f 337/1/4 338/1/4 339/1/4 340/1/4
f 341/1/5 342/1/5 343/1/5 344/1/5
f 345/1/6 346/1/6 347/1/6 348/1/6
f 349/1/1 350/1/1 351/1/1 352/1/1
f 353/1/5 354/1/5 355/1/5 356/1/5
f 357/1/6 358/1/6 359/1/6 360/1/6
f 361/1/5 362/1/5 363/1/5 364/1/5
f 365/1/6 366/1/6 367/1/6 368/1/6
f 369/1/2 370/1/2 371/1/2 372/1/2
f 373/1/4 374/1/4 375/1/4 376/1/4
f 377/1/5 378/1/5 379/1/5 380/1/5
f 381/1/6 382/1/6 383/1/6 384/1/6
f 385/1/1 386/1/1 387/1/1 388/1/1
f 389/1/2 390/1/2 391/1/2 392/1/2
f 393/1/3 394/1/3 395/1/3 396/1/3
f 397/1/4 398/1/4 399/1/4 400/1/4
f 401/1/5 402/1/5 403/1/5 404/1/5
f 405/1/6 406/1/6 407/1/6 408/1/6
f 409/1/1 410/1/1 411/1/1 412/1/1
f 413/1/3 414/1/3 415/1/3 416/1/3
f 417/1/5 418/1/5 419/1/5 420/1/5
f 421/1/6 422/1/6 423/1/6 424/1/6
f 425/1/5 426/1/5 427/1/5 428/1/5
f 429/1/6 430/1/6 431/1/6 432/1/6
f 433/1/2 434/1/2 435/1/2 436/1/2
f 437/1/4 438/1/4 439/1/4 440/1/4
f 441/1/5 442/1/5 443/1/5 444/1/5
f 445/1/6 446/1/6 447/1/6 448/1/6
f 449/1/1 450/1/1 451/1/1 452/1/1
f 453/1/2 454/1/2 455/1/2 456/1/2
f 457/1/3 458/1/3 459/1/3 460/1/3
f 461/1/5 462/1/5 463/1/5 464/1/5
f 465/1/6 466/1/6 467/1/6 468/1/6
f 469/1/1 470/1/1 471/1/1 472/1/1
f 473/1/3 474/1/3 475/1/3 476/1/3
f 477/1/5 478/1/5 479/1/5 480/1/5
f 481/1/6 482/1/6 483/1/6 484/1/6
f 485/1/5 486/1/5 487/1/5 488/1/5
f 489/1/6 490/1/6 491/1/6 492/1/6
f 493/1/2 494/1/2 495/1/2 496/1/2
f 497/1/5 498/1/5 499/1/5 500/1/5
f 501/1/6 502/1/6 503/1/6 504/1/6
f 505/1/1 506/1/1 507/1/1 508/1/1
f 509/1/3 510/1/3 511/1/3 512/1/3
f 513/1/5 514/1/5 515/1/5 516/1/5
f 517/1/6 518/1/6 519/1/6 520/1/6
f 521/1/3 522/1/3 523/1/3 524/1/3
f 525/1/5 526/1/5 527/1/5 528/1/5
f 529/1/6 530/1/6 531/1/6 532/1/6
f 533/1/3 534/1/3 535/1/3 536/1/3
f 537/1/5 538/1/5 539/1/5 540/1/5
f 541/1/6 542/1/6 543/1/6 544/1/6
f 545/1/3 546/1/3 547/1/3 548/1/3
f 549/1/5 550/1/5 551/1/5 552/1/5
f 553/1/6 554/1/6 555/1/6 556/1/6
f 557/1/3 558/1/3 559/1/3 560/1/3
f 561/1/5 562/1/5 563/1/5 564/1/5
f 565/1/6 566/1/6 567/1/6 568/1/6
f 569/1/3 570/1/3 571/1/3 572/1/3
f 573/1/5 574/1/5 575/1/5 576/1/5
f 577/1/6 578/1/6 579/1/6 580/1/6
f 581/1/5 582/1/5 583/1/5 584/1/5
f 585/1/6 586/1/6 587/1/6 588/1/6
f 589/1/3 590/1/3 591/1/3 592/1/3
f 593/1/5 594/1/5 595/1/5 596/1/5
f 597/1/6 598/1/6 599/1/6 600/1/6
f 601/1/5 602/1/5 603/1/5 604/1/5
f 605/1/6 606/1/6 607/1/6 608/1/6
f 609/1/5 610/1/5 611/1/5 612/1/5
f 613/1/6 614/1/6 615/1/6 616/1/6
f 617/1/2 618/1/2 619/1/2 620/1/2
f 621/1/5 622/1/5 623/1/5 624/1/5
f 625/1/6 626/1/6 627/1/6 628/1/6
f 629/1/1 630/1/1 631/1/1 632/1/1
f 633/1/3 634/1/3 635/1/3 636/1/3
f 637/1/4 638/1/4 639/1/4 640/1/4
f 641/1/5 642/1/5 643/1/5 644/1/5
f 645/1/6 646/1/6 647/1/6 648/1/6
f 649/1/2 650/1/2 651/1/2 652/1/2
f 653/1/3 654/1/3 655/1/3 656/1/3
f 657/1/4 658/1/4 659/1/4 660/1/4
f 661/1/5 662/1/5 663/1/5 664/1/5
f 665/1/6 666/1/6 667/1/6 668/1/6
f 669/1/1 670/1/1 671/1/1 672/1/1
f 673/1/3 674/1/3 675/1/3 676/1/3
f 677/1/4 678/1/4 679/1/4 680/1/4
f 681/1/5 682/1/5 683/1/5 684/1/5
f 685/1/6 686/1/6 687/1/6 688/1/6
f 689/1/3 690/1/3 691/1/3 692/1/3
f 693/1/4 694/1/4 695/1/4 696/1/4
f 697/1/5 698/1/5 699/1/5 700/1/5
f 701/1/6 702/1/6 703/1/6 704/1/6
f 705/1/3 706/1/3 707/1/3 708/1/3
f 709/1/5 710/1/5 711/1/5 712/1/5
f 713/1/6 714/1/6 715/1/6 716/1/6
f 717/1/3 718/1/3 719/1/3 720/1/3
f 721/1/4 722/1/4 723/1/4 724/1/4
f 725/1/5 726/1/5 727/1/5 728/1/5
f 729/1/6 730/1/6 731/1/6 732/1/6
f 733/1/3 734/1/3 735/1/3 736/1/3
f 737/1/4 738/1/4 739/1/4 740/1/4
f 741/1/5 742/1/5 743/1/5 744/1/5
f 745/1/6 746/1/6 747/1/6 748/1/6
f 749/1/4 750/1/4 751/1/4 752/1/4
f 753/1/5 754/1/5 755/1/5 756/1/5
f 757/1/6 758/1/6 759/1/6 760/1/6
f 761/1/4 762/1/4 763/1/4 764/1/4
f 765/1/5 766/1/5 767/1/5 768/1/5
f 769/1/6 770/1/6 771/1/6 772/1/6
f 773/1/4 774/1/4 775/1/4 776/1/4
f 777/1/5 778/1/5 779/1/5 780/1/5
f 781/1/6 782/1/6 783/1/6 784/1/6
f 785/1/4 786/1/4 787/1/4 788/1/4
f 789/1/5 790/1/5 791/1/5 792/1/5
f 793/1/6 794/1/6 795/1/6 796/1/6
f 797/1/4 798/1/4 799/1/4 800/1/4
f 801/1/5 802/1/5 803/1/5 804/1/5
f 805/1/6 806/1/6 807/1/6 808/1/6
f 809/1/4 810/1/4 811/1/4 812/1/4
f 813/1/5 814/1/5 815/1/5 816/1/5
f 817/1/6 818/1/6 819/1/6 820/1/6
f 821/1/4 822/1/4 823/1/4 824/1/4
f 825/1/5 826/1/5 827/1/5 828/1/5
f 829/1/6 830/1/6 831/1/6 832/1/6
f 833/1/4 834/1/4 835/1/4 836/1/4
f 837/1/5 838/1/5 839/1/5 840/1/5
f 841/1/6 842/1/6 843/1/6 844/1/6
f 845/1/4 846/1/4 847/1/4 848/1/4
f 849/1/5 850/1/5 851/1/5 852/1/5
f 853/1/6 854/1/6 855/1/6 856/1/6
f 857/1/4 858/1/4 859/1/4 860/1/4
f 861/1/5 862/1/5 863/1/5 864/1/5
f 865/1/6 866/1/6 867/1/6 868/1/6
f 869/1/2 870/1/2 871/1/2 872/1/2
f 873/1/5 874/1/5 875/1/5 876/1/5
f 877/1/6 878/1/6 879/1/6 880/1/6
f 881/1/1 882/1/1 883/1/1 884/1/1
f 885/1/2 886/1/2 887/1/2 888/1/2
f 889/1/4 890/1/4 891/1/4 892/1/4
f 893/1/5 894/1/5 895/1/5 896/1/5
f 897/1/6 898/1/6 899/1/6 900/1/6
f 901/1/1 902/1/1 903/1/1 904/1/1
f 905/1/2 906/1/2 907/1/2 908/1/2
f 909/1/4 910/1/4 911/1/4 912/1/4
f 913/1/5 914/1/5 915/1/5 916/1/5
f 917/1/6 918/1/6 919/1/6 920/1/6
f 921/1/1 922/1/1 923/1/1 924/1/1
f 925/1/2 926/1/2 927/1/2 928/1/2
f 929/1/3 930/1/3 931/1/3 932/1/3
f 933/1/4 934/1/4 935/1/4 936/1/4
f 937/1/5 938/1/5 939/1/5 940/1/5
f 941/1/6 942/1/6 943/1/6 944/1/6
f 945/1/1 946/1/1 947/1/1 948/1/1
f 949/1/2 950/1/2 951/1/2 952/1/2
f 953/1/3 954/1/3 955/1/3 956/1/3
f 957/1/4 958/1/4 959/1/4 960/1/4
f 961/1/5 962/1/5 963/1/5 964/1/5
f 965/1/6 966/1/6 967/1/6 968/1/6
f 969/1/1 970/1/1 971/1/1 972/1/1
f 973/1/2 974/1/2 975/1/2 976/1/2
f 977/1/3 978/1/3 979/1/3 980/1/3
f 981/1/4 982/1/4 983/1/4 984/1/4
f 985/1/5 986/1/5 987/1/5 988/1/5
f 989/1/6 990/1/6 991/1/6 992/1/6
f 993/1/1 994/1/1 995/1/1 996/1/1
f 997/1/3 998/1/3 999/1/3 1000/1/3
f 1001/1/5 1002/1/5 1003/1/5 1004/1/5
f 1005/1/6 1006/1/6 1007/1/6 1008/1/6
f 1009/1/2 1010/1/2 1011/1/2 1012/1/2
f 1013/1/3 1014/1/3 1015/1/3 1016/1/3
f 1017/1/5 1018/1/5 1019/1/5 1020/1/5
f 1021/1/6 1022/1/6 1023/1/6 1024/1/6
f 1025/1/1 1026/1/1 1027/1/1 1028/1/1
f 1029/1/3 1030/1/3 1031/1/3 1032/1/3
f 1033/1/5 1034/1/5 1035/1/5 1036/1/5
f 1037/1/6 1038/1/6 1039/1/6 1040/1/6
f 1041/1/5 1042/1/5 1043/1/5 1044/1/5
f 1045/1/6 1046/1/6 1047/1/6 1048/1/6
f 1049/1/5 1050/1/5 1051/1/5 1052/1/5
f 1053/1/6 1054/1/6 1055/1/6 1056/1/6
f 1057/1/2 1058/1/2 1059/1/2 1060/1/2
f 1061/1/3 1062/1/3 1063/1/3 1064/1/3
f 1065/1/5 1066/1/5 1067/1/5 1068/1/5
f 1069/1/6 1070/1/6 1071/1/6 1072/1/6
f 1073/1/1 1074/1/1 1075/1/1 1076/1/1
f 1077/1/3 1078/1/3 1079/1/3 1080/1/3
f 1081/1/5 1082/1/5 1083/1/5 1084/1/5
f 1085/1/6 1086/1/6 1087/1/6 1088/1/6
f 1089/1/3 1090/1/3 1091/1/3 1092/1/3
f 1093/1/5 1094/1/5 1095/1/5 1096/1/5
f 1097/1/6 1098/1/6 1099/1/6 1100/1/6
f 1101/1/5 1102/1/5 1103/1/5 1104/1/5
f 1105/1/6 1106/1/6 1107/1/6 1108/1/6
f 1109/1/5 1110/1/5 1111/1/5 1112/1/5
f 1113/1/6 1114/1/6 1115/1/6 1116/1/6
f 1117/1/5 1118/1/5 1119/1/5 1120/1/5
f 1121/1/6 1122/1/6 1123/1/6 1124/1/6
f 1125/1/2 1126/1/2 1127/1/2 1128/1/2
f 1129/1/4 1130/1/4 1131/1/4 1132/1/4
f 1133/1/5 1134/1/5 1135/1/5 1136/1/5
f 1137/1/6 1138/1/6 1139/1/6 1140/1/6
f 1141/1/1 1142/1/1 1143/1/1 1144/1/1
f 1145/1/2 1146/1/2 1147/1/2 1148/1/2
f 1149/1/3 1150/1/3 1151/1/3 1152/1/3
f 1153/1/4 1154/1/4 1155/1/4 1156/1/4
f 1157/1/5 1158/1/5 1159/1/5 1160/1/5
f 1161/1/6 1162/1/6 1163/1/6 1164/1/6
f 1165/1/1 1166/1/1 1167/1/1 1168/1/1
f 1169/1/3 1170/1/3 1171/1/3 1172/1/3
f 1173/1/5 1174/1/5 1175/1/5 1176/1/5
f 1177/1/6 1178/1/6 1179/1/6 1180/1/6
f 1181/1/3 1182/1/3 1183/1/3 1184/1/3
f 1185/1/5 1186/1/5 1187/1/5 1188/1/5
f 1189/1/6 1190/1/6 1191/1/6 1192/1/6
f 1193/1/3 1194/1/3 1195/1/3 1196/1/3
f 1197/1/5 1198/1/5 1199/1/5 1200/1/5
f 1201/1/6 1202/1/6 1203/1/6 1204/1/6
f 1205/1/5 1206/1/5 1207/1/5 1208/1/5
f 1209/1/6 1210/1/6 1211/1/6 1212/1/6
f 1213/1/4 1214/1/4 1215/1/4 1216/1/4
f 1217/1/5 1218/1/5 1219/1/5 1220/1/5
f 1221/1/6 1222/1/6 1223/1/6 1224/1/6
f 1225/1/4 1226/1/4 1227/1/4 1228/1/4
f 1229/1/5 1230/1/5 1231/1/5 1232/1/5
f 1233/1/6 1234/1/6 1235/1/6 1236/1/6
f 1237/1/4 1238/1/4 1239/1/4 1240/1/4
f 1241/1/5 1242/1/5 1243/1/5 1244/1/5
f 1245/1/6 1246/1/6 1247/1/6 1248/1/6
f 1249/1/2 1250/1/2 1251/1/2 1252/1/2
f 1253/1/4 1254/1/4 1255/1/4 1256/1/4
f 1257/1/5 1258/1/5 1259/1/5 1260/1/5
f 1261/1/6 1262/1/6 1263/1/6 1264/1/6
f 1265/1/1 1266/1/1 1267/1/1 1268/1/1
f 1269/1/3 1270/1/3 1271/1/3 1272/1/3
f 1273/1/5 1274/1/5 1275/1/5 1276/1/5
f 1277/1/6 1278/1/6 1279/1/6 1280/1/6
f 1281/1/3 1282/1/3 1283/1/3 1284/1/3
f 1285/1/5 1286/1/5 1287/1/5 1288/1/5
f 1289/1/6 1290/1/6 1291/1/6 1292/1/6
f 1293/1/5 1294/1/5 1295/1/5 1296/1/5
f 1297/1/6 1298/1/6 1299/1/6 1300/1/6
f 1301/1/4 1302/1/4 1303/1/4 1304/1/4
f 1305/1/5 1306/1/5 1307/1/5 1308/1/5
f 1309/1/6 1310/1/6 1311/1/6 1312/1/6
f 1313/1/4 1314/1/4 1315/1/4 1316/1/4
f 1317/1/5 1318/1/5 1319/1/5 1320/1/5
f 1321/1/6 1322/1/6 1323/1/6 1324/1/6
f 1325/1/2 1326/1/2 1327/1/2 1328/1/2
f 1329/1/4 1330/1/4 1331/1/4 1332/1/4
f 1333/1/5 1334/1/5 1335/1/5 1336/1/5
f 1337/1/6 1338/1/6 1339/1/6 1340/1/6
f 1341/1/1 1342/1/1 1343/1/1 1344/1/1
f 1345/1/2 1346/1/2 1347/1/2 1348/1/2
f 1349/1/3 1350/1/3 1351/1/3 1352/1/3
f 1353/1/4 1354/1/4 1355/1/4 1356/1/4
f 1357/1/5 1358/1/5 1359/1/5 1360/1/5
f 1361/1/6 1362/1/6 1363/1/6 1364/1/6
f 1365/1/1 1366/1/1 1367/1/1 1368/1/1
f 1369/1/3 1370/1/3 1371/1/3 1372/1/3
f 1373/1/5 1374/1/5 1375/1/5 1376/1/5
f 1377/1/6 1378/1/6 1379/1/6 1380/1/6
f 1381/1/4 1382/1/4 1383/1/4 1384/1/4
f 1385/1/5 1386/1/5 1387/1/5 1388/1/5
f 1389/1/6 1390/1/6 1391/1/6 1392/1/6
f 1393/1/4 1394/1/4 1395/1/4 1396/1/4
f 1397/1/5 1398/1/5 1399/1/5 1400/1/5
f 1401/1/6 1402/1/6 1403/1/6 1404/1/6
f 1405/1/2 1406/1/2 1407/1/2 1408/1/2
f 1409/1/4 1410/1/4 1411/1/4 1412/1/4
f 1413/1/5 1414/1/5 1415/1/5 1416/1/5
f 1417/1/6 1418/1/6 1419/1/6 1420/1/6
f 1421/1/1 1422/1/1 1423/1/1 1424/1/1
f 1425/1/3 1426/1/3 1427/1/3 1428/1/3
f 1429/1/4 1430/1/4 1431/1/4 1432/1/4
f 1433/1/5 1434/1/5 1435/1/5 1436/1/5
f 1437/1/6 1438/1/6 1439/1/6 1440/1/6
f 1441/1/3 1442/1/3 1443/1/3 1444/1/3
f 1445/1/4 1446/1/4 1447/1/4 1448/1/4
f 1449/1/5 1450/1/5 1451/1/5 1452/1/5
f 1453/1/6 1454/1/6 1455/1/6 1456/1/6
f 1457/1/2 1458/1/2 1459/1/2 1460/1/2
f 1461/1/4 1462/1/4 1463/1/4 1464/1/4
f 1465/1/5 1466/1/5 1467/1/5 1468/1/5
f 1469/1/6 1470/1/6 1471/1/6 1472/1/6
f 1473/1/1 1474/1/1 1475/1/1 1476/1/1
f 1477/1/3 1478/1/3 1479/1/3 1480/1/3
f 1481/1/4 1482/1/4 1483/1/4 1484/1/4
f 1485/1/5 1486/1/5 1487/1/5 1488/1/5
f 1489/1/6 1490/1/6 1491/1/6 1492/1/6
f 1493/1/3 1494/1/3 1495/1/3 1496/1/3
f 1497/1/4 1498/1/4 1499/1/4 1500/1/4
f 1501/1/5 1502/1/5 1503/1/5 1504/1/5
f 1505/1/6 1506/1/6 1507/1/6 1508/1/6
f 1509/1/2 1510/1/2 1511/1/2 1512/1/2
f 1513/1/3 1514/1/3 1515/1/3 1516/1/3
f 1517/1/4 1518/1/4 1519/1/4 1520/1/4
f 1521/1/5 1522/1/5 1523/1/5 1524/1/5
f 1525/1/6 1526/1/6 1527/1/6 1528/1/6
f 1529/1/1 1530/1/1 1531/1/1 1532/1/1
f 1533/1/2 1534/1/2 1535/1/2 1536/1/2
f 1537/1/3 1538/1/3 1539/1/3 1540/1/3
f 1541/1/4 1542/1/4 1543/1/4 1544/1/4
f 1545/1/5 1546/1/5 1547/1/5 1548/1/5
f 1549/1/6 1550/1/6 1551/1/6 1552/1/6

