# generated by vox_to_obj_exporter --round
# scale=0.1 center=false ground=false y_up=true
# welded, edge-relaxed, smooth vertex normals

mtllib Fight_755.mtl
usemtl palette

# verts
v 2.32167 4.27833 -2.57833
v 2.32167 4.22167 -2.57833
v 2.32167 4.22167 -2.52167
v 2.32167 4.27833 -2.52167
v 2.4 4.3 -2.513
v 2.4 4.3 -2.587
v 2.4 4.21625 -2.58375
v 2.4 4.21625 -2.51625
v 2.31625 4.5 -2.58375
v 2.32167 4.42167 -2.57833
v 2.32167 4.42167 -2.52167
v 2.31625 4.5 -2.51625
v 2.38375 4.5 -2.51625
v 2.4 4.4 -2.513
v 2.4 4.4 -2.587
v 2.38375 4.5 -2.58375
v 2.32167 4.57833 -2.57833
v 2.32167 4.57833 -2.52167
v 2.4 4.6 -2.513
v 2.4 4.6 -2.587
v 2.5 4.21625 -2.58375
v 2.5 4.21625 -2.51625
v 2.5 4.3 -2.513
v 2.5 4.3 -2.587
v 2.47833 4.37833 -2.52167
v 2.47833 4.37833 -2.57833
v 2.42167 4.67833 -2.57833
v 2.42167 4.67833 -2.52167
v 2.47833 4.67833 -2.52167
v 2.47833 4.62167 -2.52167
v 2.47833 4.62167 -2.57833
v 2.47833 4.67833 -2.57833
v 2.57833 4.27833 -2.52167
v 2.57833 4.22167 -2.52167
v 2.57833 4.22167 -2.57833
v 2.57833 4.27833 -2.57833
v 2.91625 4.6 -2.58375
v 2.92167 4.52167 -2.57833
v 2.92167 4.52167 -2.52167
v 2.91625 4.6 -2.51625
v 2.98375 4.6 -2.51625
v 3 4.5 -2.513
v 3 4.5 -2.587
v 2.98375 4.6 -2.58375
v 2.92167 4.67833 -2.57833
v 2.92167 4.67833 -2.52167
v 2.97833 4.67833 -2.52167
v 2.97833 4.67833 -2.57833
v 3.02167 4.42167 -2.57833
v 3.02167 4.42167 -2.52167
v 3.07833 4.47833 -2.52167
v 3.1 4.4 -2.513
v 3.1 4.4 -2.587
v 3.07833 4.47833 -2.57833
v 3.12167 4.32167 -2.57833
v 3.12167 4.32167 -2.52167
v 3.2 4.38375 -2.51625
v 3.2 4.38375 -2.58375
v 3.2 4.31625 -2.58375
v 3.2 4.31625 -2.51625
v 3.27833 4.37833 -2.52167
v 3.27833 4.32167 -2.52167
v 3.27833 4.32167 -2.57833
v 3.27833 4.37833 -2.57833
v 3.42167 4.27833 -2.57833
v 3.42167 4.22167 -2.57833
v 3.42167 4.22167 -2.52167
v 3.42167 4.27833 -2.52167
v 3.5 4.28375 -2.51625
v 3.5 4.28375 -2.58375
v 3.5 4.21625 -2.58375
v 3.5 4.21625 -2.51625
v 3.6 4.28375 -2.51625
v 3.6 4.28375 -2.58375
v 3.6 4.21625 -2.58375
v 3.6 4.21625 -2.51625
v 3.7 4.28375 -2.51625
v 3.7 4.28375 -2.58375
v 3.7 4.21625 -2.58375
v 3.7 4.21625 -2.51625
v 3.8 4.3 -2.513
v 3.8 4.3 -2.587
v 3.8 4.21625 -2.58375
v 3.8 4.21625 -2.51625
v 3.9 4.21625 -2.58375
v 3.9 4.21625 -2.51625
v 3.9 4.3 -2.5
v 3.9 4.3 -2.6
v 3.82167 4.37833 -2.57833
v 3.82167 4.37833 -2.52167
v 3.9 4.38375 -2.51625
v 3.9 4.38375 -2.58375
v 4 4.21625 -2.58375
v 4 4.21625 -2.51625
v 4 4.3 -2.487
v 4 4.3 -2.6
v 4 4.387 -2.5
v 4 4.38375 -2.58375
v 4.02167 4.32167 -2.42167
v 4.02167 4.37833 -2.42167
v 4.1 4.38375 -2.41625
v 4.1 4.413 -2.5
v 4.07833 4.27833 -2.47833
v 4.1 4.3 -2.413
v 4.1 4.21625 -2.58375
v 4.1 4.213 -2.5
v 4.1 4.3 -2.6
v 4.1 4.4 -2.587
v 4.12167 4.22167 -2.42167
v 4.2 4.2 -2.5
v 4.2 4.21625 -2.41625
v 4.2 4.3 -2.4
v 4.2 4.4 -2.413
v 4.17833 4.42167 -2.47833
v 4.2 4.21625 -2.58375
v 4.2 4.3 -2.613
v 4.2 4.4 -2.613
v 4.12167 4.47833 -2.57833
v 4.12167 4.47833 -2.52167
v 4.2 4.487 -2.5
v 4.2 4.48375 -2.58375
v 4.3 4.2 -2.5
v 4.3 4.21625 -2.41625
v 4.3 4.3 -2.4
v 4.3 4.4 -2.4
v 4.22167 4.47833 -2.42167
v 4.3 4.48375 -2.41625
v 4.3 4.5 -2.5
v 4.3 4.21625 -2.58375
v 4.3 4.28375 -2.61625
v 4.3 4.48375 -2.58375
v 4.3 4.41625 -2.61625
v 4.22167 4.37833 -2.67833
v 4.22167 4.32167 -2.67833
v 4.3 4.38375 -2.68375
v 4.3 4.31625 -2.68375
v 4.4 4.2 -2.5
v 4.4 4.21625 -2.41625
v 4.4 4.3 -2.4
v 4.4 4.4 -2.4
v 4.4 4.48375 -2.41625
v 4.4 4.5 -2.5
v 4.4 4.21625 -2.58375
v 4.4 4.28375 -2.61625
v 4.4 4.48375 -2.58375
v 4.4 4.41625 -2.61625
v 4.4 4.38375 -2.68375
v 4.4 4.31625 -2.68375
v 4.5 4.2 -2.5
v 4.5 4.21625 -2.41625
v 4.5 4.3 -2.4
v 4.5 4.4 -2.4
v 4.5 4.48375 -2.41625
v 4.5 4.5 -2.5
v 4.5 4.21625 -2.58375
v 4.5 4.28375 -2.61625
v 4.5 4.48375 -2.58375
v 4.5 4.41625 -2.61625
v 4.5 4.38375 -2.68375
v 4.5 4.31625 -2.68375
v 4.6 4.2 -2.5
v 4.6 4.21625 -2.41625
v 4.6 4.3 -2.4
v 4.6 4.4 -2.4
v 4.6 4.48375 -2.41625
v 4.6 4.513 -2.5
v 4.6 4.21625 -2.58375
v 4.6 4.28375 -2.61625
v 4.6 4.5 -2.6
v 4.57833 4.42167 -2.62167
v 4.6 4.4 -2.687
v 4.6 4.31625 -2.68375
v 4.7 4.2 -2.5
v 4.7 4.21625 -2.41625
v 4.7 4.3 -2.4
v 4.7 4.4 -2.4
v 4.7 4.48375 -2.41625
v 4.7 4.51625 -2.48375
v 4.7 4.21625 -2.58375
v 4.7 4.28375 -2.61625
v 4.62167 4.57833 -2.57833
v 4.62167 4.57833 -2.52167
v 4.7 4.6 -2.513
v 4.7 4.6 -2.587
v 4.7 4.5 -2.613
v 4.62167 4.97833 -2.57833
v 4.62167 4.92167 -2.57833
v 4.62167 4.92167 -2.52167
v 4.62167 4.97833 -2.52167
v 4.67833 4.97833 -2.52167
v 4.7 4.9 -2.513
v 4.7 4.9 -2.587
v 4.67833 4.97833 -2.57833
v 4.7 4.31625 -2.68375
v 4.7 4.4 -2.687
v 4.62167 4.47833 -2.67833
v 4.72167 4.42167 -2.62167
v 4.67833 4.47833 -2.67833
v 4.78375 4.3 -2.41625
v 4.77833 4.22167 -2.42167
v 4.8 4.213 -2.5
v 4.81625 4.3 -2.48375
v 4.78375 4.4 -2.41625
v 4.813 4.4 -2.5
v 4.77833 4.47833 -2.42167
v 4.787 4.5 -2.5
v 4.8 4.21625 -2.58375
v 4.8 4.3 -2.613
v 4.8 4.4 -2.6
v 4.78375 4.5 -2.58375
v 4.8 4.6 -2.513
v 4.8 4.6 -2.587
v 4.71625 4.7 -2.58375
v 4.71625 4.7 -2.51625
v 4.8 4.7 -2.5
v 4.8 4.7 -2.6
v 4.71625 4.8 -2.58375
v 4.71625 4.8 -2.51625
v 4.8 4.8 -2.513
v 4.8 4.8 -2.587
v 4.77833 4.87833 -2.52167
v 4.77833 4.87833 -2.57833
v 4.77833 4.32167 -2.67833
v 4.77833 4.37833 -2.67833
v 4.9 4.21625 -2.58375
v 4.9 4.21625 -2.51625
v 4.9 4.3 -2.513
v 4.9 4.3 -2.587
v 4.87833 4.37833 -2.52167
v 4.87833 4.37833 -2.57833
v 4.9 4.7 -2.513
v 4.87833 4.62167 -2.52167
v 4.87833 4.62167 -2.57833
v 4.9 4.7 -2.587
v 4.9 4.8 -2.513
v 4.9 4.8 -2.587
v 5 4.28375 -2.51625
v 5 4.28375 -2.58375
v 5 4.21625 -2.58375
v 5 4.21625 -2.51625
v 5 4.8 -2.513
v 4.97833 4.72167 -2.52167
v 4.97833 4.72167 -2.57833
v 5 4.8 -2.587
v 4.92167 4.87833 -2.57833
v 4.92167 4.87833 -2.52167
v 5 4.88375 -2.51625
v 5 4.88375 -2.58375
v 5.1 4.3 -2.513
v 5.07833 4.22167 -2.52167
v 5.07833 4.22167 -2.57833
v 5.1 4.3 -2.587
v 5.1 4.9 -2.513
v 5.07833 4.82167 -2.52167
v 5.07833 4.82167 -2.57833
v 5.1 4.9 -2.587
v 5.02167 6.17833 -2.57833
v 5.02167 6.12167 -2.57833
v 5.02167 6.12167 -2.52167
v 5.02167 6.17833 -2.52167
v 5.1 6.18375 -2.51625
v 5.1 6.18375 -2.58375
v 5.1 6.11625 -2.58375
v 5.1 6.11625 -2.51625
v 5.12167 4.37833 -2.57833
v 5.12167 4.37833 -2.52167
v 5.2 4.38375 -2.51625
v 5.2 4.38375 -2.58375
v 5.2 4.3 -2.587
v 5.2 4.3 -2.513
v 5.12167 4.97833 -2.57833
v 5.12167 4.97833 -2.52167
v 5.17833 4.97833 -2.52167
v 5.17833 4.92167 -2.52167
v 5.17833 4.92167 -2.57833
v 5.17833 4.97833 -2.57833
v 5.2 6.18375 -2.51625
v 5.2 6.18375 -2.58375
v 5.2 6.11625 -2.58375
v 5.2 6.11625 -2.51625
v 5.22167 4.22167 -2.57833
v 5.22167 4.22167 -2.52167
v 5.3 4.21625 -2.58375
v 5.3 4.21625 -2.51625
v 5.3 4.3 -2.5
v 5.3 4.3 -2.6
v 5.3 4.4 -2.513
v 5.3 4.4 -2.587
v 5.27833 6.17833 -2.52167
v 5.3 6.1 -2.513
v 5.3 6.1 -2.587
v 5.27833 6.17833 -2.57833
v 5.4 4.21625 -2.58375
v 5.4 4.21625 -2.51625
v 5.4 4.3 -2.513
v 5.4 4.3 -2.587
v 5.4 4.4 -2.513
v 5.4 4.4 -2.587
v 5.32167 4.47833 -2.57833
v 5.32167 4.47833 -2.52167
v 5.4 4.5 -2.513
v 5.4 4.5 -2.587
v 5.32167 6.02167 -2.57833
v 5.32167 6.02167 -2.52167
v 5.37833 6.07833 -2.52167
v 5.37833 6.02167 -2.52167
v 5.37833 6.02167 -2.57833
v 5.37833 6.07833 -2.57833
v 5.5 4.3 -2.513
v 5.5 4.3 -2.587
v 5.5 4.21625 -2.58375
v 5.5 4.21625 -2.51625
v 5.48375 4.5 -2.51625
v 5.5 4.4 -2.513
v 5.5 4.4 -2.587
v 5.48375 4.5 -2.58375
v 5.42167 4.57833 -2.57833
v 5.42167 4.57833 -2.52167
v 5.47833 4.57833 -2.52167
v 5.47833 4.57833 -2.57833
v 5.6 4.21625 -2.58375
v 5.6 4.21625 -2.51625
v 5.6 4.3 -2.5
v 5.6 4.3 -2.6
v 5.6 4.38375 -2.51625
v 5.6 4.38375 -2.58375
v 5.7 4.21625 -2.58375
v 5.7 4.213 -2.5
v 5.68375 4.3 -2.48375
v 5.7 4.3 -2.6
v 5.7 4.4 -2.5
v 5.7 4.4 -2.587
v 5.72167 4.22167 -2.42167
v 5.71625 4.3 -2.41625
v 5.8 4.2 -2.5
v 5.8 4.21625 -2.41625
v 5.8 4.3 -2.4
v 5.72167 4.37833 -2.42167
v 5.8 4.38375 -2.41625
v 5.8 4.41625 -2.48375
v 5.8 4.21625 -2.58375
v 5.8 4.3 -2.6
v 5.8 4.4 -2.6
v 5.72167 4.47833 -2.57833
v 5.72167 4.47833 -2.52167
v 5.8 4.48375 -2.51625
v 5.8 4.48375 -2.58375
v 5.9 4.2 -2.5
v 5.9 4.21625 -2.41625
v 5.9 4.3 -2.4
v 5.9 4.38375 -2.41625
v 5.9 4.41625 -2.48375
v 5.9 4.21625 -2.58375
v 5.9 4.3 -2.6
v 5.9 4.4 -2.6
v 5.9 4.48375 -2.51625
v 5.9 4.48375 -2.58375
v 5.98375 4.3 -2.41625
v 5.97833 4.22167 -2.42167
v 6 4.213 -2.5
v 6.01625 4.3 -2.48375
v 5.97833 4.37833 -2.42167
v 6 4.4 -2.5
v 6 4.21625 -2.58375
v 6 4.3 -2.6
v 6 4.4 -2.587
v 5.97833 4.47833 -2.52167
v 5.97833 4.47833 -2.57833
v 6.1 4.21625 -2.58375
v 6.1 4.21625 -2.51625
v 6.1 4.3 -2.5
v 6.1 4.3 -2.6
v 6.1 4.38375 -2.51625
v 6.1 4.38375 -2.58375
v 6.2 4.21625 -2.58375
v 6.2 4.21625 -2.51625
v 6.2 4.3 -2.513
v 6.2 4.3 -2.587
v 6.17833 4.37833 -2.52167
v 6.17833 4.37833 -2.57833
v 6.3 4.28375 -2.51625
v 6.3 4.28375 -2.58375
v 6.3 4.21625 -2.58375
v 6.3 4.21625 -2.51625
v 6.4 4.28375 -2.51625
v 6.4 4.28375 -2.58375
v 6.4 4.21625 -2.58375
v 6.4 4.21625 -2.51625
v 6.5 4.28375 -2.51625
v 6.5 4.28375 -2.58375
v 6.5 4.21625 -2.58375
v 6.5 4.21625 -2.51625
v 6.57833 4.27833 -2.52167
v 6.57833 4.22167 -2.52167
v 6.57833 4.22167 -2.57833
v 6.57833 4.27833 -2.57833
v 10.82167 4.47833 -2.57833
v 10.82167 4.42167 -2.57833
v 10.82167 4.42167 -2.52167
v 10.82167 4.47833 -2.52167
v 10.9 4.48375 -2.51625
v 10.9 4.48375 -2.58375
v 10.9 4.41625 -2.58375
v 10.9 4.41625 -2.51625
v 11 4.48375 -2.51625
v 11 4.48375 -2.58375
v 11 4.41625 -2.58375
v 11 4.41625 -2.51625
v 11.1 4.48375 -2.51625
v 11.1 4.48375 -2.58375
v 11.1 4.41625 -2.58375
v 11.1 4.41625 -2.51625
v 11.2 4.5 -2.513
v 11.2 4.5 -2.587
v 11.2 4.41625 -2.58375
v 11.2 4.41625 -2.51625
v 11.3 4.41625 -2.58375
v 11.3 4.41625 -2.51625
v 11.3 4.5 -2.5
v 11.3 4.5 -2.6
v 11.22167 4.57833 -2.57833
v 11.22167 4.57833 -2.52167
v 11.3 4.6 -2.513
v 11.3 4.6 -2.587
v 11.21625 4.9 -2.58375
v 11.22167 4.82167 -2.57833
v 11.22167 4.82167 -2.52167
v 11.21625 4.9 -2.51625
v 11.28375 4.9 -2.51625
v 11.3 4.8 -2.513
v 11.3 4.8 -2.587
v 11.28375 4.9 -2.58375
v 11.22167 4.97833 -2.57833
v 11.22167 4.97833 -2.52167
v 11.27833 4.97833 -2.52167
v 11.27833 4.97833 -2.57833
v 11.4 4.41625 -2.58375
v 11.4 4.41625 -2.51625
v 11.4 4.5 -2.5
v 11.4 4.5 -2.6
v 11.4 4.6 -2.513
v 11.4 4.6 -2.587
v 11.31625 4.7 -2.58375
v 11.31625 4.7 -2.51625
v 11.38375 4.7 -2.51625
v 11.38375 4.7 -2.58375
v 11.37833 4.77833 -2.52167
v 11.37833 4.77833 -2.57833
v 11.5 4.5 -2.513
v 11.47833 4.42167 -2.52167
v 11.47833 4.42167 -2.57833
v 11.5 4.5 -2.587
v 11.5 4.58375 -2.51625
v 11.5 4.58375 -2.58375
v 11.57833 4.57833 -2.52167
v 11.6 4.5 -2.513
v 11.6 4.5 -2.587
v 11.57833 4.57833 -2.57833
v 11.62167 4.42167 -2.57833
v 11.62167 4.42167 -2.52167
v 11.7 4.5 -2.513
v 11.7 4.5 -2.587
v 11.7 4.41625 -2.58375
v 11.7 4.41625 -2.51625
v 11.8 4.41625 -2.58375
v 11.8 4.41625 -2.51625
v 11.8 4.5 -2.5
v 11.8 4.5 -2.6
v 11.72167 4.57833 -2.57833
v 11.72167 4.57833 -2.52167
v 11.8 4.58375 -2.51625
v 11.8 4.58375 -2.58375
v 11.9 4.41625 -2.58375
v 11.9 4.41625 -2.51625
v 11.9 4.5 -2.513
v 11.9 4.5 -2.587
v 11.87833 4.57833 -2.52167
v 11.87833 4.57833 -2.57833
v 12 4.5 -2.513
v 12 4.5 -2.587
v 12 4.41625 -2.58375
v 12 4.41625 -2.51625
v 12.1 4.41625 -2.58375
v 12.1 4.41625 -2.51625
v 12.1 4.5 -2.5
v 12.1 4.5 -2.6
v 12.02167 4.57833 -2.57833
v 12.02167 4.57833 -2.52167
v 12.1 4.58375 -2.51625
v 12.1 4.58375 -2.58375
v 12.2 4.5 -2.513
v 12.17833 4.42167 -2.52167
v 12.17833 4.42167 -2.57833
v 12.2 4.5 -2.587
v 12.2 4.58375 -2.51625
v 12.2 4.58375 -2.58375
v 12.3 4.6 -2.513
v 12.3 4.6 -2.587
v 12.3 4.51625 -2.58375
v 12.3 4.51625 -2.51625
v 12.4 4.51625 -2.58375
v 12.4 4.51625 -2.51625
v 12.4 4.6 -2.513
v 12.4 4.6 -2.587
v 12.32167 4.67833 -2.57833
v 12.32167 4.67833 -2.52167
v 12.37833 4.67833 -2.52167
v 12.37833 4.67833 -2.57833
v 12.5 4.6 -2.5
v 12.5 4.6 -2.587
v 12.5 4.51625 -2.58375
v 12.5 4.51625 -2.51625
v 12.41625 5 -2.58375
v 12.42167 4.92167 -2.57833
v 12.42167 4.92167 -2.52167
v 12.41625 5 -2.51625
v 12.5 4.9 -2.587
v 12.5 4.9 -2.513
v 12.5 5 -2.513
v 12.5 5 -2.587
v 12.42167 5.07833 -2.57833
v 12.42167 5.07833 -2.52167
v 12.5 5.1 -2.513
v 12.5 5.1 -2.587
v 12.5 4.7 -2.5
v 12.52167 4.62167 -2.42167
v 12.51625 4.7 -2.41625
v 12.57833 4.57833 -2.47833
v 12.6 4.6 -2.413
v 12.6 4.7 -2.4
v 12.513 4.8 -2.5
v 12.52167 4.77833 -2.42167
v 12.6 4.8 -2.413
v 12.57833 4.82167 -2.47833
v 12.6 4.51625 -2.58375
v 12.6 4.513 -2.5
v 12.6 4.6 -2.613
v 12.51625 4.7 -2.58375
v 12.58375 4.7 -2.61625
v 12.51625 4.8 -2.58375
v 12.6 4.8 -2.613
v 12.6 4.9 -2.5
v 12.6 4.9 -2.587
v 12.57833 4.97833 -2.52167
v 12.57833 4.97833 -2.57833
v 12.52167 5.17833 -2.57833
v 12.52167 5.17833 -2.52167
v 12.57833 5.17833 -2.52167
v 12.57833 5.12167 -2.52167
v 12.57833 5.12167 -2.57833
v 12.57833 5.17833 -2.57833
v 12.62167 4.52167 -2.42167
v 12.7 4.5 -2.5
v 12.7 4.51625 -2.41625
v 12.7 4.6 -2.4
v 12.7 4.7 -2.4
v 12.7 4.8 -2.413
v 12.62167 4.87833 -2.42167
v 12.67833 4.87833 -2.42167
v 12.72167 4.82167 -2.47833
v 12.7 4.887 -2.5
v 12.7 4.51625 -2.58375
v 12.7 4.58375 -2.61625
v 12.7 4.88375 -2.58375
v 12.7 4.81625 -2.61625
v 12.61625 4.7 -2.68375
v 12.62167 4.62167 -2.67833
v 12.7 4.61625 -2.68375
v 12.7 4.7 -2.7
v 12.62167 4.77833 -2.67833
v 12.7 4.78375 -2.68375
v 12.8 4.5 -2.5
v 12.8 4.51625 -2.41625
v 12.8 4.6 -2.4
v 12.8 4.7 -2.4
v 12.8 4.78375 -2.41625
v 12.8 4.813 -2.5
v 12.8 4.51625 -2.58375
v 12.8 4.58375 -2.61625
v 12.77833 4.87833 -2.52167
v 12.8 4.8 -2.6
v 12.77833 4.87833 -2.57833
v 12.8 4.61625 -2.68375
v 12.8 4.7 -2.687
v 12.82167 4.72167 -2.62167
v 12.77833 4.77833 -2.67833
v 12.9 4.5 -2.5
v 12.9 4.51625 -2.41625
v 12.9 4.6 -2.4
v 12.9 4.7 -2.4
v 12.9 4.78375 -2.41625
v 12.9 4.8 -2.5
v 12.9 4.51625 -2.58375
v 12.9 4.58375 -2.61625
v 12.9 4.78375 -2.58375
v 12.9 4.71625 -2.61625
v 12.9 4.68375 -2.68375
v 12.9 4.61625 -2.68375
v 13 4.5 -2.5
v 13 4.51625 -2.41625
v 13 4.6 -2.4
v 13 4.7 -2.413
v 12.97833 4.77833 -2.42167
v 13.02167 4.72167 -2.47833
v 13 4.787 -2.5
v 13 4.51625 -2.58375
v 13 4.6 -2.613
v 13 4.78375 -2.58375
v 13 4.7 -2.613
v 12.97833 4.62167 -2.67833
v 12.97833 4.67833 -2.67833
v 13.08375 4.6 -2.41625
v 13.07833 4.52167 -2.42167
v 13.1 4.513 -2.5
v 13.11625 4.6 -2.48375
v 13.07833 4.67833 -2.42167
v 13.1 4.7 -2.5
v 13.1 4.51625 -2.58375
v 13.1 4.6 -2.6
v 13.1 4.7 -2.587
v 13.07833 4.77833 -2.52167
v 13.07833 4.77833 -2.57833
v 13.2 4.51625 -2.58375
v 13.2 4.51625 -2.51625
v 13.2 4.6 -2.5
v 13.2 4.6 -2.6
v 13.2 4.68375 -2.51625
v 13.2 4.68375 -2.58375
v 13.3 4.51625 -2.58375
v 13.3 4.51625 -2.51625
v 13.3 4.6 -2.513
v 13.3 4.6 -2.587
v 13.27833 4.67833 -2.52167
v 13.27833 4.67833 -2.57833
v 13.4 4.58375 -2.51625
v 13.4 4.58375 -2.58375
v 13.4 4.51625 -2.58375
v 13.4 4.51625 -2.51625
v 13.47833 4.57833 -2.52167
v 13.47833 4.52167 -2.52167
v 13.47833 4.52167 -2.57833
v 13.47833 4.57833 -2.57833
v 13.71625 5.2 -2.58375
v 13.72167 5.12167 -2.57833
v 13.72167 5.12167 -2.52167
v 13.71625 5.2 -2.51625
v 13.78375 5.2 -2.51625
v 13.77833 5.12167 -2.52167
v 13.77833 5.12167 -2.57833
v 13.78375 5.2 -2.58375
v 13.72167 5.27833 -2.57833
v 13.72167 5.27833 -2.52167
v 13.8 5.3 -2.513
v 13.8 5.3 -2.587
v 13.82167 5.37833 -2.57833
v 13.82167 5.37833 -2.52167
v 13.9 5.4 -2.513
v 13.87833 5.32167 -2.52167
v 13.87833 5.32167 -2.57833
v 13.9 5.4 -2.587
v 13.91625 4.7 -2.58375
v 13.92167 4.62167 -2.57833
v 13.92167 4.62167 -2.52167
v 13.91625 4.7 -2.51625
v 14 4.61625 -2.58375
v 14 4.61625 -2.51625
v 14 4.7 -2.513
v 14 4.7 -2.587
v 13.92167 4.77833 -2.57833
v 13.92167 4.77833 -2.52167
v 13.97833 4.77833 -2.52167
v 13.97833 4.77833 -2.57833
v 13.92167 5.47833 -2.57833
v 13.92167 5.47833 -2.52167
v 13.97833 5.47833 -2.52167
v 13.97833 5.42167 -2.52167
v 13.97833 5.42167 -2.57833
v 13.97833 5.47833 -2.57833
v 14.02167 4.47833 -2.57833
v 14.02167 4.42167 -2.57833
v 14.02167 4.42167 -2.52167
v 14.02167 4.47833 -2.52167
v 14.1 4.5 -2.513
v 14.1 4.5 -2.587
v 14.1 4.41625 -2.58375
v 14.1 4.41625 -2.51625
v 14.07833 4.67833 -2.52167
v 14.1 4.6 -2.513
v 14.1 4.6 -2.587
v 14.07833 4.67833 -2.57833
v 14.2 4.41625 -2.58375
v 14.2 4.41625 -2.51625
v 14.2 4.5 -2.5
v 14.2 4.5 -2.6
v 14.2 4.58375 -2.51625
v 14.2 4.58375 -2.58375
v 14.3 4.41625 -2.58375
v 14.3 4.41625 -2.51625
v 14.3 4.5 -2.513
v 14.3 4.5 -2.587
v 14.27833 4.57833 -2.52167
v 14.27833 4.57833 -2.57833
v 14.4 4.5 -2.513
v 14.4 4.5 -2.587
v 14.4 4.41625 -2.58375
v 14.4 4.41625 -2.51625
v 14.5 4.41625 -2.58375
v 14.5 4.41625 -2.51625
v 14.5 4.5 -2.5
v 14.5 4.5 -2.6
v 14.42167 4.57833 -2.57833
v 14.42167 4.57833 -2.52167
v 14.5 4.6 -2.513
v 14.5 4.6 -2.587
v 14.6 4.4 -2.587
v 14.6 4.4 -2.513
v 14.6 4.5 -2.5
v 14.6 4.5 -2.6
v 14.6 4.6 -2.5
v 14.6 4.6 -2.6
v 14.52167 4.67833 -2.57833
v 14.52167 4.67833 -2.52167
v 14.6 4.7 -2.513
v 14.6 4.7 -2.587
v 14.62167 4.32167 -2.57833
v 14.62167 4.32167 -2.52167
v 14.7 4.4 -2.513
v 14.67833 4.32167 -2.52167
v 14.67833 4.32167 -2.57833
v 14.7 4.4 -2.587
v 14.7 4.5 -2.513
v 14.7 4.5 -2.587
v 14.68375 4.6 -2.51625
v 14.68375 4.6 -2.58375
v 14.7 4.7 -2.513
v 14.7 4.7 -2.587
v 14.62167 4.77833 -2.57833
v 14.62167 4.77833 -2.52167
v 14.7 4.78375 -2.51625
v 14.7 4.78375 -2.58375
v 14.8 4.48375 -2.51625
v 14.8 4.48375 -2.58375
v 14.8 4.4 -2.587
v 14.8 4.4 -2.513
v 14.77833 4.77833 -2.52167
v 14.77833 4.72167 -2.52167
v 14.77833 4.72167 -2.57833
v 14.77833 4.77833 -2.57833
v 14.82167 4.32167 -2.57833
v 14.82167 4.32167 -2.52167
v 14.9 4.31625 -2.58375
v 14.9 4.31625 -2.51625
v 14.9 4.4 -2.5
v 14.9 4.4 -2.6
v 14.9 4.48375 -2.51625
v 14.9 4.48375 -2.58375
v 15 4.4 -2.513
v 14.97833 4.32167 -2.52167
v 14.97833 4.32167 -2.57833
v 15 4.4 -2.587
v 15 4.48375 -2.51625
v 15 4.48375 -2.58375
v 15.07833 4.47833 -2.52167
v 15.1 4.4 -2.513
v 15.1 4.4 -2.587
v 15.07833 4.47833 -2.57833
v 15.12167 4.32167 -2.57833
v 15.12167 4.32167 -2.52167
v 15.2 4.4 -2.513
v 15.2 4.4 -2.587
v 15.2 4.31625 -2.58375
v 15.2 4.31625 -2.51625
v 15.3 4.4 -2.513
v 15.27833 4.32167 -2.52167
v 15.27833 4.32167 -2.57833
v 15.3 4.4 -2.587
v 15.22167 4.47833 -2.57833
v 15.22167 4.47833 -2.52167
v 15.3 4.48375 -2.51625
v 15.3 4.48375 -2.58375
v 15.37833 4.47833 -2.52167
v 15.37833 4.42167 -2.52167
v 15.37833 4.42167 -2.57833
v 15.37833 4.47833 -2.57833

# texcoords
vt 0.14648 0.5
vt 0.15039 0.5
vt 0.1582 0.5
vt 0.1543 0.5

# normals
vn -1 0 -0
vn -0.2666 0.9638 -0
vn -0.069 -0.9976 -0
vn -0.0345 -0.9994 -0
vn -0.0871 -0.0231 0.9959
vn -0.0436 -0.0309 0.9986
vn -0.0107 -0.0022 0.9999
vn -0.0107 -0.0022 -0.9999
vn -0.0436 -0.0309 -0.9986
vn -0.0871 -0.0231 -0.9959
vn -0.9976 -0.069 -0
vn 1 0 -0
vn 0.9871 0.1604 -0
vn -0.2666 -0.9638 -0
vn -0.0622 0 0.9981
vn -0.0622 -0.0197 0.9979
vn -0.0035 0.0178 0.9998
vn -0.0622 0 -0.9981
vn -0.0035 0.0178 -0.9998
vn -0.0622 -0.0197 -0.9979
vn -0.9976 0.069 -0
vn 0.9871 -0.1604 -0
vn -0.7071 0.7071 -0
vn -0.0622 0.0197 0.9979
vn -0.0035 0.0375 0.9993
vn -0.0035 0.0375 -0.9993
vn -0.0622 0.0197 -0.9979
vn 0.0345 -0.9994 -0
vn 0.0436 -0.0309 0.9986
vn 0.0475 -0.0022 0.9989
vn 0.0475 -0.0022 -0.9989
vn 0.0436 -0.0309 -0.9986
vn 0.7071 0.7071 -0
vn 0.2666 0.9638 -0
vn 0.0552 0.0552 0.997
vn 0.0552 0.0552 -0.997
vn -0.9638 0.2666 -0
vn 0 1 -0
vn 0.2666 -0.9638 -0
vn 0.069 -0.9976 -0
vn 0.0871 -0.0231 0.9959
vn 0.0871 -0.0231 -0.9959
vn 0.9934 0.1148 -0
vn -0.7071 -0.7071 -0
vn -0.0312 0.0247 0.9992
vn -0.0311 -0.0098 0.9995
vn -0.0312 0.0247 -0.9992
vn -0.0311 -0.0098 -0.9995
vn 0.9976 0.069 -0
vn 0 0.069 0.9976
vn 0 0.069 -0.9976
vn 0.9638 0.2666 -0
vn 0 0 1
vn -0.0098 -0.0311 0.9995
vn 0 0 -1
vn -0.0098 -0.0311 -0.9995
vn -0.9638 -0.2666 -0
vn 0.1604 0.9871 -0
vn 0.1148 0.9934 -0
vn 0 -1 -0
vn -0.0197 -0.0622 0.9979
vn 0.0247 -0.0312 0.9992
vn 0.0247 -0.0312 -0.9992
vn -0.0197 -0.0622 -0.9979
vn 0.069 0.9976 -0
vn 0.069 0 0.9976
vn 0.069 0 -0.9976
vn -0.069 0.9976 -0
vn -0.0345 0.9994 -0
vn -0.069 0 0.9976
vn -0.0345 0 0.9994
vn -0.0345 0 -0.9994
vn -0.069 0 -0.9976
vn -0.0805 0.9968 -0
vn -0.0073 -0.0107 0.9999
vn -0.0073 -0.0107 -0.9999
vn -0.1604 0.9871 -0
vn -0.0395 -0.0685 0.9969
vn -0.0622 0.0094 0.998
vn -0.0622 0.0094 -0.998
vn -0.0395 -0.0685 -0.9969
vn -0.0637 -0.189 0.9799
vn -0.0964 -0.0115 0.9953
vn -0.0433 0.0126 -0.999
vn -0.0323 -0.1531 -0.9877
vn -0.0418 0.9991 -0.0107
vn -0.1063 0.1649 0.9806
vn -0.1258 0.166 0.9781
vn -0.0532 0.178 -0.9826
vn -0.1063 0.1649 -0.9806
vn -0.0073 -0.9999 -0.0107
vn -0.1199 -0.3021 0.9457
vn -0.1879 -0.3682 0.9106
vn -0.0073 -0.0085 -0.9999
vn 0 -0.1905 -0.9817
vn -0.1343 0.9899 0.0447
vn -0.1115 0.9921 -0.0574
vn -0.1317 -0.1492 0.98
vn -0.1453 0.1671 0.9752
vn -0.0144 0.1739 -0.9847
vn -0.9577 0.0259 0.2865
vn -0.1754 0.9532 0.2464
vn -0.1762 0.9394 0.2941
vn -0.2337 0.8952 0.3796
vn -0.2854 -0.8774 0.3856
vn -0.1899 -0.5359 0.8226
vn -0.5099 -0.5909 0.6252
vn -0.5019 -0.5443 0.6722
vn -0.0871 0.0231 0.9959
vn -0.0943 -0.0182 0.9954
vn -0.0875 0.0554 0.9946
vn -0.0395 -0.9969 -0.0685
vn -0.0622 -0.998 0.0094
vn -0.4696 -0.6696 0.5754
vn -0.0719 -0.0589 -0.9957
vn -0.0313 -0.2263 -0.9735
vn -0.1898 0.9674 0.1679
vn -0.2072 0.9739 -0.0927
vn -0.1325 0.1566 -0.9787
vn -0.5941 -0.381 0.7085
vn -0.8796 -0.3363 0.3363
vn -0.6363 -0.663 0.3943
vn -0.1063 -0.9806 0.1649
vn -0.1044 -0.9559 0.2745
vn -0.0433 -0.999 0.0126
vn -0.0532 -0.9826 0.178
vn -0.1606 -0.2641 0.951
vn -0.1063 -0.1649 0.9806
vn -0.0532 -0.178 0.9826
vn -0.0653 -0.0512 0.9966
vn -0.4696 0.5754 0.6696
vn -0.5099 0.6252 0.5909
vn -0.0863 0.1059 0.9906
vn -0.0323 -0.9877 -0.1531
vn -0.1189 -0.4119 -0.9035
vn -0.0543 -0.3202 -0.9458
vn -0.1389 0.2317 -0.9628
vn -0.1018 -0.1958 -0.9754
vn -0.9577 0.2865 -0.0259
vn -0.0871 0.9959 -0.0231
vn -0.0866 0.9962 0.0089
vn -0.0759 0.9947 -0.0693
vn -0.2854 0.3856 0.8774
vn -0.2302 0.8168 0.529
vn -0.5019 0.6722 0.5443
vn -0.111 0.3134 -0.9431
vn -0.148 0.4364 -0.8875
vn -0.1754 0.2464 -0.9532
vn 0 -0.9817 0.1905
vn 0 -0.1905 0.9817
vn -0.0163 -0.0796 0.9967
vn -0.0429 0.1055 0.9935
vn -0.6363 0.3943 0.663
vn -0.5941 0.7085 0.381
vn -0.8796 0.3363 0.3363
vn -0.1545 0.9539 0.2571
vn -0.1063 0.9806 0.1649
vn -0.0532 0.9826 0.178
vn -0.0433 0.999 0.0126
vn -0.1223 0.3484 0.9293
vn -0.0532 0.178 0.9826
vn -0.0415 -0.8851 -0.4635
vn -0.0129 -0.7826 -0.6224
vn -0.047 -0.7024 -0.7102
vn -0.0411 -0.6144 -0.7879
vn -0.0239 0.8936 -0.4481
vn -0.0169 0.6644 -0.7472
vn -0.047 0.7024 -0.7102
vn -0.9492 0 -0.3148
vn -0.1297 0.9106 -0.3925
vn -0.127 0.5554 -0.8218
vn -0.065 0.9079 -0.4141
vn -0.086 -0.56 -0.824
vn -0.1297 -0.9106 -0.3925
vn -0.065 -0.9079 -0.4141
vn 0 -0.0957 0.9954
vn 0 0.0957 0.9954
vn 0 0.9817 0.1905
vn 0 0.1905 0.9817
vn 0 -0.7919 -0.6106
vn 0 -0.7071 -0.7071
vn -0.0314 0.7936 -0.6076
vn 0 0.7919 -0.6106
vn 0 0.7071 -0.7071
vn 0 0.901 -0.4338
vn 0 -0.901 -0.4338
vn -0.0313 0.9735 0.2263
vn -0.0557 0.9981 0.0272
vn -0.0884 0.7832 -0.6154
vn -0.0766 0.7002 -0.7098
vn -0.0543 0.9458 0.3202
vn -0.1248 0.9084 0.3989
vn -0.017 0.4871 0.8732
vn -0.0904 0.982 0.1659
vn -0.1245 0.8534 -0.5061
vn -0.3276 0.6928 -0.6424
vn -0.4511 0.6149 -0.6469
vn -0.5749 0.6971 -0.4285
vn -0.0048 0.0166 -0.9999
vn -0.0073 -0.0301 -0.9995
vn 0.0433 -0.999 0.0126
vn 0.0532 -0.9826 0.178
vn 0.068 -0.1635 0.9842
vn 0.0821 -0.0821 0.9932
vn 0.0821 0.0821 0.9932
vn -0.0314 0.6568 0.7534
vn 0.0455 0.7648 0.6427
vn 0.0134 0.6753 0.7374
vn 0.074 0.6261 0.7762
vn 0.0314 -0.7936 -0.6076
vn 0.047 -0.7024 -0.7102
vn -0.6988 0.7152 -0.0137
vn -0.9321 0.3053 -0.1947
vn -0.9571 0.2887 -0.024
vn -0.1767 0.341 0.9233
vn -0.1041 0.8144 0.5709
vn -0.0549 0.1754 0.983
vn -0.0272 0.1119 -0.9933
vn 0.0859 0.4343 -0.8967
vn -0.3572 0.5639 -0.7446
vn -0.1486 0.2722 -0.9507
vn -0.0552 0.0552 0.997
vn -0.0083 0.0469 0.9989
vn -0.0552 0.0552 -0.997
vn -0.0083 0.0469 -0.9989
vn 0.065 -0.9079 -0.4141
vn 0.0291 0.0161 -0.9994
vn -0.8792 0.3128 -0.3595
vn -0.64 0.3701 -0.6734
vn 0.4957 0.2133 -0.8419
vn 0.573 0.5174 -0.6356
vn 0.6524 0.6384 -0.4085
vn 0.8774 0.2854 -0.3856
vn -0.024 0.9571 -0.2887
vn -0.1386 0.736 -0.6626
vn -0.0984 0.7008 -0.7066
vn 0 0.11 -0.9939
vn 0.7648 -0.0455 0.6427
vn 0.921 -0.1668 0.352
vn 0.6529 -0.1684 0.7385
vn 0.6802 -0.0216 0.7327
vn 0.0622 -0.998 0.0094
vn 0.1063 -0.9806 0.1649
vn 0.1357 -0.1357 0.9814
vn 0.1635 -0.068 0.9842
vn 0.645 0.1044 0.757
vn 0.8958 0.1713 0.4101
vn 0.6261 -0.074 0.7762
vn 0.4703 0.0682 0.8799
vn 0.9532 0.1754 0.2464
vn 0.9431 0.111 0.3134
vn 0.9954 0.0825 0.0478
vn 0.1668 0.921 0.352
vn 0.1529 0.6441 0.7495
vn 0.068 0.1635 0.9842
vn 0.1357 0.1357 0.9814
vn 0.0239 -0.8936 -0.4481
vn 0.0395 -0.9969 -0.0685
vn 0.1617 -0.3742 -0.9131
vn 0.0866 -0.2849 -0.9546
vn 0.0169 -0.6644 -0.7472
vn 0.9719 0.1478 0.1834
vn 0.8592 0.4274 -0.2813
vn 0.998 0.0337 -0.0541
vn 0.2382 0.1488 -0.9597
vn 0.5508 0.3699 -0.7482
vn 0.3374 0.2394 -0.9104
vn 0.989 -0.1463 -0.0204
vn 0.0511 0.0132 0.9986
vn 0.0688 -0.0263 -0.9973
vn -0.9968 0.0805 -0
vn -0.9871 0.1604 -0
vn -0.1019 0.0115 0.9947
vn -0.0007 -0.0121 0.9999
vn -0.0007 -0.0121 -0.9999
vn -0.1019 0.0115 -0.9947
vn -0.9968 -0.0805 -0
vn -0.0386 0.0516 0.9979
vn -0.0041 0.0561 0.9984
vn -0.0041 0.0561 -0.9984
vn -0.0386 0.0516 -0.9979
vn -0.9871 -0.1604 -0
vn 0.0385 0.0385 0.9985
vn 0.0385 0.0385 -0.9985
vn 0.7347 0.1697 -0.6568
vn 0.7008 0.0984 -0.7066
vn 0.9571 0.024 -0.2887
vn 0.5423 0.5999 -0.5882
vn 0.3128 0.8792 -0.3595
vn 0.1297 -0.9106 -0.3925
vn 0.1101 -0.5386 -0.8354
vn 0.0073 -0.9999 -0.0107
vn 0.1285 -0.0777 0.9887
vn 0.2023 0.0076 0.9793
vn 0.1399 -0.0209 -0.9899
vn 0.0709 -0.1058 -0.9919
vn 0.7152 0.6988 -0.0137
vn 0.3053 0.9321 -0.1947
vn 0.2887 0.9571 -0.024
vn 0.8115 0.1455 0.5659
vn 0.341 0.1767 0.9233
vn 0.2722 0.1486 -0.9507
vn 0.4052 -0.1139 -0.9071
vn 0.7071 -0.7071 -0
vn 0.0855 -0.0422 0.9954
vn 0.0855 -0.0422 -0.9954
vn 0.1357 -0.1357 -0.9814
vn 0.0292 0.0291 0.9991
vn 0.0292 0.0291 -0.9991
vn 0.0171 -0.0419 0.999
vn 0.0171 -0.0419 -0.999
vn 0.0552 -0.0552 0.997
vn 0.0204 -0.0054 0.9998
vn 0.0204 -0.0054 -0.9998
vn 0.0552 -0.0552 -0.997
vn -0.1148 0.9934 -0
vn -0.0326 0.0776 0.9964
vn 0.003 0.0196 0.9998
vn 0.003 0.0196 -0.9998
vn -0.0326 0.0776 -0.9964
vn 0.9638 -0.2666 -0
vn 0.0197 -0.0622 0.9979
vn -0.0065 0.0077 0.9999
vn -0.0065 0.0077 -0.9999
vn 0.0197 -0.0622 -0.9979
vn 0.0385 -0.0385 0.9985
vn 0.0469 0.0083 0.9989
vn 0.0469 0.0083 -0.9989
vn 0.0385 -0.0385 -0.9985
vn -0.0761 0.0001 0.9971
vn -0.0602 0.0827 0.9948
vn -0.0602 0.0827 -0.9948
vn -0.0761 0.0001 -0.9971
vn 0.0345 0.9994 -0
vn -0.0805 -0.9968 -0
vn 0.0098 0.0311 0.9995
vn 0.0098 0.0311 -0.9995
vn -0.021 -0.1407 0.9898
vn -0.0164 -0.0323 0.9993
vn -0.0164 -0.0323 -0.9993
vn -0.021 -0.1407 -0.9898
vn -0.1063 -0.1649 -0.9806
vn -0.0261 0.0694 0.9972
vn -0.0261 0.0694 -0.9972
vn -0.1604 -0.9871 -0
vn 0.0375 0.0035 0.9993
vn 0.0197 0.0622 0.9979
vn 0.0197 0.0622 -0.9979
vn 0.0375 0.0035 -0.9993
vn 0.0323 -0.0772 0.9965
vn 0.0432 -0.0299 0.9986
vn 0.0432 -0.0299 -0.9986
vn 0.0323 -0.0772 -0.9965
vn 0.0091 0.0459 0.9989
vn 0.0091 0.0459 -0.9989
vn -0.0048 0.0534 0.9986
vn -0.0048 0.0534 -0.9986
vn -0.0323 -0.0772 0.9965
vn -0.0354 -0.0221 0.9991
vn -0.0354 -0.0221 -0.9991
vn -0.0323 -0.0772 -0.9965
vn -0.0119 0.0529 0.9985
vn 0.0204 0.0524 0.9984
vn 0.0204 0.0524 -0.9984
vn -0.0119 0.0529 -0.9985
vn 0.0231 0.0871 0.9959
vn 0.0231 0.0871 -0.9959
vn -0.1196 -0.1581 0.9802
vn -0.1184 -0.0102 0.9929
vn -0.034 -0.0153 -0.9993
vn -0.1147 0.1381 0.9838
vn -0.0351 0.1227 -0.9918
vn -0.6254 -0.2095 0.7517
vn -0.4889 -0.0686 0.8696
vn -0.0237 -0.0403 -0.9989
vn -0.1609 0.9694 0.1853
vn -0.4866 0.0543 0.872
vn -0.4184 0.48 0.7711
vn -0.0667 0.1291 -0.9894
vn -0.7652 -0.0802 0.6387
vn -0.921 -0.1668 0.352
vn -0.9318 -0.0056 0.3629
vn -0.137 0 0.9906
vn -0.1357 -0.1357 0.9814
vn -0.068 -0.1635 0.9842
vn -0.6725 0.2943 0.6791
vn -0.768 0.0667 0.637
vn -0.7575 0.0478 0.6511
vn -0.6078 0.1681 0.7761
vn -0.1942 0.7239 0.662
vn -0.1681 0.6078 0.7761
vn -0.0831 0.6114 0.7869
vn -0.0839 0.7046 0.7046
vn -0.5001 0.5001 0.7069
vn -0.4544 0.0595 0.8888
vn -0.0163 -0.0796 -0.9967
vn -0.0429 0.1055 -0.9935
vn -0.9588 0.2152 0.1855
vn -0.1558 0.3642 0.9182
vn -0.0782 0.4005 0.913
vn 0.0831 0.6114 0.7869
vn 0.0839 0.7046 0.7046
vn 0.0323 -0.9877 -0.1531
vn 0.0163 -0.0796 -0.9967
vn 0.0429 0.1055 -0.9935
vn 0.0782 0.4005 0.913
vn 0.0532 0.178 -0.9826
vn 0.9318 -0.0056 0.3629
vn 0.6254 -0.2095 0.7517
vn 0.7652 -0.0802 0.6387
vn 0.137 0 0.9906
vn 0.6078 0.1681 0.7761
vn 0.7575 0.0478 0.6511
vn 0.768 0.0667 0.637
vn 0.6725 0.2943 0.6791
vn 0.1681 0.6078 0.7761
vn 0.1942 0.7239 0.662
vn 0.4544 0.0595 0.8888
vn 0.5001 0.5001 0.7069
vn 0.0237 -0.0403 -0.9989
vn 0.0667 0.1291 -0.9894
vn 0.9588 0.2152 0.1855
vn 0.4184 0.48 0.7711
vn 0.1558 0.3642 0.9182
vn 0.1063 0.1649 -0.9806
vn 0.4889 -0.0686 0.8696
vn 0.1196 -0.1581 0.9802
vn 0.1351 0.0093 0.9908
vn 0.0506 0.0041 -0.9987
vn 0.0323 -0.1531 -0.9877
vn 0.1609 0.9694 0.1853
vn 0.4866 0.0543 0.872
vn 0.1468 0.1762 0.9733
vn 0.0676 0.1612 -0.9846
vn 0.0395 -0.0685 0.9969
vn 0.0622 0.0094 0.998
vn 0.0622 0.0094 -0.998
vn 0.0395 -0.0685 -0.9969
vn 0.1063 0.1649 0.9806
vn 0.0805 0.9968 -0
vn 0.0073 -0.0107 0.9999
vn 0.0073 -0.0107 -0.9999
vn 0.0345 0 0.9994
vn 0.0345 0 -0.9994
vn -0.072 -0.0004 0.9974
vn -0.072 -0.0004 -0.9974
vn -0.0323 -0.1531 0.9877
vn -0.0507 -0.0104 0.9987
vn -0.0507 -0.0104 -0.9987
vn -0.1357 0.1357 0.9814
vn -0.0454 0.0994 0.994
vn -0.0454 0.0994 -0.994
vn -0.1357 0.1357 -0.9814
vn 0.0532 -0.178 0.9826
vn 0.0491 -0.0351 0.9982
vn 0.0491 -0.0351 -0.9982
vn 0.0532 -0.178 -0.9826
vn 0.0293 0.0832 0.9961
vn 0.0293 0.0832 -0.9961
vn 0.0311 0.0261 0.9992
vn 0.0311 0.0261 -0.9992
vn 0.0622 0.0197 0.9979
vn 0.0622 0.0197 -0.9979
vn 0.1063 -0.1649 0.9806
vn 0.0761 0.0001 0.9971
vn 0.0761 0.0001 -0.9971
vn 0.1063 -0.1649 -0.9806
vn 0.0602 0.0827 0.9948
vn 0.0602 0.0827 -0.9948
vn 0.0326 0.0776 0.9964
vn 0.0326 0.0776 -0.9964
vn -0.0326 -0.0776 0.9964
vn -0.0485 -0.0965 0.9941
vn -0.0683 -0.0094 0.9976
vn -0.0683 -0.0094 -0.9976
vn -0.0485 -0.0965 -0.9941
vn -0.0326 -0.0776 -0.9964
vn 0 -0.1156 0.9933
vn -0 0.0251 0.9997
vn 0 0.0251 -0.9997
vn 0 -0.1156 -0.9933
vn -0 0.1659 0.9861
vn 0 0.1659 -0.9861
vn 0.0574 0.0036 0.9983
vn 0.0574 0.0036 -0.9983
vn -0.0574 0.0036 0.9983
vn -0.0574 0.0036 -0.9983
vn 0.021 -0.1407 0.9898
vn 0.021 -0.1407 -0.9898
vn -0.021 0.1407 0.9898
vn -0.021 0.1407 -0.9898
vn 0.0573 -0.0166 0.9982
vn 0.0573 -0.0166 -0.9982
vn 0.0323 0.0578 0.9978
vn 0.0323 0.0578 -0.9978
vn 0.1604 -0.9871 -0
vn 0.0805 -0.9968 -0
vn 0 -0.0194 0.9998
vn 0 0.0238 0.9997
vn 0 0.0238 -0.9997
vn 0 -0.0194 -0.9998
vn -0.0216 -0.0148 0.9997
vn 0 0.0108 -0.9999
vn 0 -0.0388 -0.9992
vn 0 0.11 0.9939
vn -0.1515 -0.1949 0.9691
vn -0.1541 -0.0769 -0.9851
vn -0.0636 -0.1144 -0.9914
vn -0.0777 -0 0.997
vn -0.0776 -0.0326 0.9964
vn -0.1053 0.0953 0.9899
vn -0.0551 0.0399 0.9977
vn -0.0335 0.0184 -0.9993
vn -0.06 0.0408 -0.9974
vn -0.0776 -0.0326 -0.9964
vn -0.0777 -0 -0.997
vn -0.0776 0.0326 0.9964
vn -0.0113 0.044 0.999
vn -0.0113 0.044 -0.999
vn -0.0776 0.0326 -0.9964
vn -0.9974 0.0548 0.0475
vn -0.9973 0.0231 0.07
vn -0.972 -0.0366 0.2323
vn -0.9793 0.035 0.1992
vn -0.3128 -0.8792 0.3595
vn -0.3024 -0.6338 0.7119
vn -0.5437 -0.5659 0.6198
vn -0.5133 -0.5456 0.6625
vn -0.1659 0 0.9861
vn -0.1649 -0.1063 0.9806
vn -0.3401 -0.1881 0.9214
vn -0.0994 0.0162 0.9949
vn -0.9999 0.0082 0.0099
vn -0.9806 0.1063 0.1649
vn -0.3173 0.6073 0.7283
vn -0.3363 0.8796 0.3363
vn -0.6608 0.6483 0.3783
vn -0.5556 0.5354 0.6361
vn -0.1649 0.1063 0.9806
vn -0.2943 0.1855 0.9375
vn -0.2287 -0.472 0.8514
vn -0.6213 -0.3385 0.7067
vn -0.3623 -0.3775 -0.8522
vn -0.0866 -0.2849 -0.9546
vn -0.9918 0.0733 -0.1049
vn -0.9921 0.0821 -0.0944
vn -0.6897 0.0125 -0.724
vn -0.3926 -0.1935 -0.8991
vn -0.3539 0.0229 -0.935
vn -0.9968 -0.0412 -0.0683
vn -0.401 0.1677 -0.9006
vn -0.2689 0.0729 -0.9604
vn -0.989 -0.1463 -0.0204
vn -0.4226 0.2383 0.8744
vn -0.0342 0.1632 -0.986
vn -0.1185 0.159 0.9801
vn -0.0096 0.1195 0.9928
vn -0.5366 -0.5225 0.6627
vn -0.1806 -0.3384 0.9235
vn -0.0429 -0.1055 0.9935
vn -0.1122 -0.1122 0.9873
vn -0.009 0.0556 0.9984
vn -0.0552 0.1154 0.9918
vn 0.0096 0.132 0.9912
vn -0.6171 0.2844 0.7337
vn -0.5456 0.5133 0.6625
vn -0.8792 0.3128 0.3595
vn 0.8796 0.3363 0.3363
vn 0.5941 0.7085 0.381
vn 0.5099 0.6252 0.5909
vn 0.6363 0.3943 0.663
vn 0.1138 0.9898 0.0858
vn 0.0812 0.9785 0.1895
vn 0.1685 0.9426 0.2885
vn -0.0239 -0.8936 -0.4481
vn -0.0169 -0.6644 -0.7472
vn -0.1749 -0.4089 -0.8957
vn 0.145 0.9893 -0.0188
vn 0.105 0.9932 0.0495
vn 0.1161 0.993 -0.0209
vn 0.0782 0.3481 -0.9342
vn 0.05 0.6929 -0.7193
vn -0.1849 0.3859 -0.9038
vn -0.7413 -0.0514 -0.6692
vn -0.5988 -0.1519 -0.7863
vn -0.5056 -0.1179 -0.8547
vn -0.1101 -0.5386 -0.8354
vn -0.1519 -0.5988 -0.7863
vn -0.0994 -0.7293 -0.677
vn -0.0256 0.0126 -0.9996
vn -0.0577 -0.5923 -0.8037
vn -0.4847 -0.4847 -0.7281
vn -0.448 -0.0492 -0.8927
vn -0.5988 0.1519 -0.7863
vn -0.7413 0.0514 -0.6692
vn -0.5292 0.1005 -0.8425
vn -0.1519 0.5988 -0.7863
vn -0.071 0.6785 -0.7312
vn -0.001 0.6166 -0.7872
vn -0.06 0.4566 -0.8876
vn -0.448 0.0492 -0.8927
vn -0.4847 0.4847 -0.7281
vn 0.0072 0.0872 0.9962
vn 0.0912 0.7918 0.604
vn 0.1903 0.909 0.3708
vn 0.0144 0.1739 0.9847
vn -0.0314 -0.7936 -0.6076
vn 0.9571 0.2887 -0.024
vn 0.9321 0.3053 -0.1947
vn 0.0871 0.9959 -0.0231
vn 0.4921 0.6715 0.5541
vn 0.1899 0.8226 0.5359
vn 0.2854 0.3856 0.8774
vn 0.1558 0.3642 -0.9182
vn 0.3516 0.6872 -0.6358
vn 0.0241 -0.7178 -0.6959
vn 0.0228 -0.5612 -0.8274
vn -0.0267 -0.4317 -0.9016
vn 0.5581 0.5446 -0.626
vn 0.4511 0.6149 -0.6469
vn 0.5749 0.6971 -0.4285
vn 0.5869 0.698 -0.4104
vn 0.05 0.753 -0.6561
vn 0.46 0.5626 -0.6869
vn 0.1501 0.6202 -0.77
vn 0.0898 0.2677 -0.9593
vn 0.0163 -0.0796 0.9967
vn 0.0429 0.1055 0.9935
vn 0.1199 0.9457 0.3021
vn 0.0846 0.9733 0.2136
vn 0.0988 0.9943 0.0396
vn 0.0777 0.4806 0.8735
vn 0.0532 0.178 0.9826
vn 0.0129 -0.7826 -0.6224
vn 0.174 0.7325 -0.6581
vn 0.135 0.979 0.153
vn 0.1217 0.7825 -0.6106
vn 0.1342 0.6459 -0.7516
vn 0.1246 0.6927 -0.7103
vn 0.4488 0.5588 -0.6973
vn 0.1297 0.9106 -0.3925
vn 0.0418 -0.0107 -0.9991
vn 0.0923 -0.0392 0.995
vn 0.1122 0.1122 0.9873
vn 0.5366 0.5225 0.6627
vn 0.5599 0.5859 0.5859
vn 0.6483 0.3783 0.6608
vn 0.1063 0.9806 0.1649
vn 0.1633 0.9519 0.2591
vn 0.1806 0.3384 0.9235
vn 0.0415 -0.8851 -0.4635
vn 0.1189 -0.4119 -0.9035
vn 0.0411 -0.6144 -0.7879
vn 0.11 0.9846 -0.1355
vn 0.0866 0.9962 0.0089
vn 0.0759 0.9947 -0.0693
vn 0.111 0.3134 -0.9431
vn 0.148 0.4364 -0.8875
vn 0.9492 0 -0.3148
vn 0.127 0.5554 -0.8218
vn 0.086 -0.56 -0.824
vn 0.1515 -0.0148 0.9884
vn 0.5626 0.46 0.6869
vn 0.7627 0.0362 0.6457
vn 0.6485 0.4448 0.6178
vn 0.5133 0.5456 0.6625
vn 0.698 0.5869 0.4104
vn 0.5982 0.594 0.5379
vn 0.3401 0.1881 0.9214
vn 0.4636 0.0481 0.8847
vn 0.6202 0.1501 0.77
vn 0.0719 -0.0589 -0.9957
vn 0.0313 -0.2263 -0.9735
vn 0.0543 -0.3202 -0.9458
vn 0.1325 0.1566 -0.9787
vn 0.1018 -0.1958 -0.9754
vn 0.1389 0.2317 -0.9628
vn 0.8275 0.4907 0.2729
vn 0.5133 0.6625 0.5456
vn 0.4978 0.4549 0.7384
vn 0.3128 0.3595 0.8792
vn 0.1754 0.2464 -0.9532
vn 0.2416 0.9529 0.1836
vn 0.0418 -0.0107 0.9991
vn 0.9934 -0.1148 -0
vn 0.9976 -0.069 -0
vn -0.0312 -0.0247 0.9992
vn 0 -0.069 0.9976
vn -0.0312 -0.0247 -0.9992
vn 0 -0.069 -0.9976
vn -0.0311 0.0098 0.9995
vn -0.0311 0.0098 -0.9995
vn 0.0276 0.0276 0.9992
vn 0.0276 0.0276 -0.9992
vn -0.1148 -0.9934 -0
vn -0.0392 0.016 0.9991
vn -0.0552 -0.0552 0.997
vn -0.0083 -0.0083 0.9999
vn -0.0133 0.0236 0.9996
vn -0.0133 0.0236 -0.9996
vn -0.0083 -0.0083 -0.9999
vn -0.0552 -0.0552 -0.997
vn -0.0392 0.016 -0.9991
vn -0.0231 0.0871 0.9959
vn -0.0231 0.0871 -0.9959
vn -0.0759 -0.0693 0.9947
vn -0.0645 -0.0169 0.9978
vn -0.0645 -0.0169 -0.9978
vn -0.0759 -0.0693 -0.9947
vn -0.0014 0.0633 0.998
vn -0.0014 0.0633 -0.998
vn 0.0164 0.0056 0.9998
vn 0.0164 0.0056 -0.9998
vn 0.0326 0.1269 0.9914
vn 0.0326 0.1269 -0.9914
vn -0.0672 -0.0062 0.9977
vn -0.0672 -0.0062 -0.9977
vn -0.0466 -0.1363 0.9896
vn -0.074 -0.0182 0.9971
vn -0.074 -0.0182 -0.9971
vn -0.0466 -0.1363 -0.9896
vn -0.1122 0.1122 0.9873
vn -0.1122 0.1122 -0.9873
vn 0.012 -0.1108 0.9938
vn 0.0323 -0.0323 0.999
vn 0.0323 -0.0323 -0.999
vn 0.012 -0.1108 -0.9938
vn 0.0113 0.0682 0.9976
vn 0.0113 0.0682 -0.9976
vn -0.0269 0.0853 0.996
vn -0.0269 0.0853 -0.996
vn 0 -0.11 0.9939
vn 0.0275 -0.0524 0.9982
vn 0.0275 -0.0524 -0.9982
vn 0 -0.11 -0.9939
vn 0.0801 -0.0061 0.9968
vn 0.0801 -0.0061 -0.9968
vn 0.1227 0.0351 0.9918
vn 0.1227 0.0351 -0.9918
vn 0.0476 0.0474 0.9977
vn 0.0476 0.0474 -0.9977
vn 0.0273 0.0504 0.9984
vn 0.0273 0.0504 -0.9984
vn -0.0514 -0.0107 0.9986
vn -0.0234 0.0667 0.9975
vn -0.0234 0.0667 -0.9975
vn -0.0514 -0.0107 -0.9986
vn 0.0871 0.0231 0.9959
vn 0.0871 0.0231 -0.9959
vn 0 -0.1659 0.9861
vn 0 -0.0251 0.9997
vn 0 -0.0251 -0.9997
vn 0 -0.1659 -0.9861
vn 0 0.1156 0.9933
vn 0 0.1156 -0.9933
vn 0.0683 0.0094 0.9976
vn 0.0683 0.0094 -0.9976
vn 0.0485 0.0965 0.9941
vn 0.0485 0.0965 -0.9941
vn 0 -0.0777 0.997
vn -0.0109 -0.026 0.9996
vn -0.0109 -0.026 -0.9996
vn 0 -0.0777 -0.997
vn 0.0326 -0.0776 0.9964
vn 0.0291 0.0077 0.9995
vn 0.0291 0.0077 -0.9995
vn 0.0326 -0.0776 -0.9964

# faces
f 1/1/1 2/1/1 3/1/1
f 1/1/1 3/1/1 4/1/1
f 1/1/2 4/1/2 5/1/2
f 1/1/2 5/1/2 6/1/2
f 2/1/3 7/1/4 8/1/4
f 2/1/3 8/1/4 3/1/3
f 4/1/5 3/1/5 8/1/6
f 4/1/5 8/1/6 5/1/7
f 7/1/9 2/1/10 1/1/10
f 7/1/9 1/1/10 6/1/8
f 10/2/11 11/2/11 12/2/1
f 10/2/11 12/2/1 9/2/1
f 14/2/13 15/2/13 16/2/12
f 14/2/13 16/2/12 13/2/12
f 10/2/14 15/2/14 14/2/14
f 10/2/14 14/2/14 11/2/14
f 11/2/16 14/2/17 13/2/15
f 11/2/16 13/2/15 12/2/15
f 16/2/18 15/2/19 10/2/20
f 16/2/18 10/2/20 9/2/18
f 17/2/21 9/2/1 12/2/1
f 17/2/21 12/2/1 18/2/21
f 19/2/22 13/2/12 16/2/12
f 19/2/22 16/2/12 20/2/22
f 17/2/2 18/2/2 19/2/23
f 17/2/2 19/2/23 20/2/23
f 18/2/24 12/2/15 13/2/15
f 18/2/24 13/2/15 19/2/25
f 16/2/18 9/2/18 17/2/27
f 16/2/18 17/2/27 20/2/26
f 8/1/4 7/1/4 21/1/28
f 8/1/4 21/1/28 22/1/28
f 5/1/7 8/1/6 22/1/29
f 5/1/7 22/1/29 23/1/30
f 24/1/31 21/1/32 7/1/9
f 24/1/31 7/1/9 6/1/8
f 15/2/1 6/2/1 5/2/1
f 15/2/1 5/2/1 14/2/1
f 23/2/33 24/2/33 26/2/33
f 23/2/33 26/2/33 25/2/33
f 14/2/34 25/2/33 26/2/33
f 14/2/34 26/2/33 15/2/34
f 5/2/7 23/2/30 25/2/35
f 5/2/7 25/2/35 14/2/17
f 26/2/36 24/2/31 6/2/8
f 26/2/36 6/2/8 15/2/19
f 27/2/37 20/2/23 19/2/23
f 27/2/37 19/2/23 28/2/37
f 29/2/12 30/2/12 31/2/12
f 29/2/12 31/2/12 32/2/12
f 27/2/38 28/2/38 29/2/38
f 27/2/38 29/2/38 32/2/38
f 19/2/39 20/2/39 31/2/39
f 19/2/39 31/2/39 30/2/39
f 28/2/35 19/2/25 30/2/35
f 28/2/35 30/2/35 29/2/35
f 31/2/36 20/2/26 27/2/36
f 31/2/36 27/2/36 32/2/36
f 33/1/12 34/1/12 35/1/12
f 33/1/12 35/1/12 36/1/12
f 23/1/33 33/1/34 36/1/34
f 23/1/33 36/1/34 24/1/33
f 22/1/28 21/1/28 35/1/40
f 22/1/28 35/1/40 34/1/40
f 22/1/29 34/1/41 33/1/41
f 22/1/29 33/1/41 23/1/30
f 36/1/42 35/1/42 21/1/32
f 36/1/42 21/1/32 24/1/31
f 38/1/11 39/1/11 40/1/1
f 38/1/11 40/1/1 37/1/1
f 42/1/13 43/1/13 44/1/43
f 42/1/13 44/1/43 41/1/43
f 38/1/14 43/1/44 42/1/44
f 38/1/14 42/1/44 39/1/14
f 39/1/16 42/1/46 41/1/45
f 39/1/16 41/1/45 40/1/45
f 44/1/47 43/1/48 38/1/20
f 44/1/47 38/1/20 37/1/47
f 45/1/21 37/1/1 40/1/1
f 45/1/21 40/1/1 46/1/21
f 41/1/43 44/1/43 48/1/49
f 41/1/43 48/1/49 47/1/49
f 45/1/38 46/1/38 47/1/38
f 45/1/38 47/1/38 48/1/38
f 40/1/45 41/1/45 47/1/50
f 40/1/45 47/1/50 46/1/50
f 48/1/51 44/1/47 37/1/47
f 48/1/51 37/1/47 45/1/51
f 49/2/44 50/2/44 42/2/44
f 49/2/44 42/2/44 43/2/44
f 52/2/52 53/2/52 54/2/33
f 52/2/52 54/2/33 51/2/33
f 42/2/34 51/2/33 54/2/33
f 42/2/34 54/2/33 43/2/34
f 49/2/44 53/2/44 52/2/44
f 49/2/44 52/2/44 50/2/44
f 50/2/53 52/2/54 51/2/53
f 50/2/53 51/2/53 42/2/46
f 54/2/55 53/2/56 49/2/55
f 54/2/55 49/2/55 43/2/48
f 55/3/57 56/3/57 52/3/44
f 55/3/57 52/3/44 53/3/44
f 52/3/58 57/3/59 58/3/59
f 52/3/58 58/3/59 53/3/58
f 55/3/3 59/3/60 60/3/60
f 55/3/3 60/3/60 56/3/3
f 56/3/61 60/3/62 57/3/62
f 56/3/61 57/3/62 52/3/54
f 58/3/63 59/3/63 55/3/64
f 58/3/63 55/3/64 53/3/56
f 61/2/12 62/2/12 63/2/12
f 61/2/12 63/2/12 64/2/12
f 57/2/59 61/2/65 64/2/65
f 57/2/59 64/2/65 58/2/59
f 60/2/60 59/2/60 63/2/40
f 60/2/60 63/2/40 62/2/40
f 60/2/62 62/2/66 61/2/66
f 60/2/62 61/2/66 57/2/62
f 64/2/67 63/2/67 59/2/63
f 64/2/67 59/2/63 58/2/63
f 65/1/1 66/1/1 67/1/1
f 65/1/1 67/1/1 68/1/1
f 65/1/68 68/1/68 69/1/69
f 65/1/68 69/1/69 70/1/69
f 66/1/3 71/1/4 72/1/4
f 66/1/3 72/1/4 67/1/3
f 68/1/70 67/1/70 72/1/71
f 68/1/70 72/1/71 69/1/71
f 71/1/72 66/1/73 65/1/73
f 71/1/72 65/1/73 70/1/72
f 70/1/69 69/1/69 73/1/38
f 70/1/69 73/1/38 74/1/38
f 72/1/4 71/1/4 75/1/60
f 72/1/4 75/1/60 76/1/60
f 69/1/71 72/1/71 76/1/53
f 69/1/71 76/1/53 73/1/53
f 74/1/55 75/1/55 71/1/72
f 74/1/55 71/1/72 70/1/72
f 74/2/38 73/2/38 77/2/74
f 74/2/38 77/2/74 78/2/74
f 76/2/60 75/2/60 79/2/60
f 76/2/60 79/2/60 80/2/60
f 73/2/53 76/2/53 80/2/75
f 73/2/53 80/2/75 77/2/75
f 78/2/76 79/2/76 75/2/55
f 78/2/76 75/2/55 74/2/55
f 78/3/74 77/3/74 81/3/77
f 78/3/74 81/3/77 82/3/77
f 80/3/60 79/3/60 83/3/60
f 80/3/60 83/3/60 84/3/60
f 77/3/75 80/3/75 84/3/78
f 77/3/75 84/3/78 81/3/79
f 83/3/81 79/3/76 78/3/76
f 83/3/81 78/3/76 82/3/80
f 84/2/60 83/2/60 85/2/60
f 84/2/60 85/2/60 86/2/60
f 81/2/79 84/2/78 86/2/82
f 81/2/79 86/2/82 87/2/83
f 85/2/85 83/2/81 82/2/80
f 85/2/85 82/2/80 88/2/84
f 89/1/37 82/1/37 81/1/37
f 89/1/37 81/1/37 90/1/37
f 89/1/68 90/1/68 91/1/86
f 89/1/68 91/1/86 92/1/86
f 90/1/87 81/1/79 87/1/83
f 90/1/87 87/1/83 91/1/88
f 88/1/84 82/1/80 89/1/90
f 88/1/84 89/1/90 92/1/89
f 86/1/60 85/1/60 93/1/91
f 86/1/60 93/1/91 94/1/91
f 87/1/83 86/1/82 94/1/92
f 87/1/83 94/1/92 95/1/93
f 96/1/94 93/1/95 85/1/85
f 96/1/94 85/1/85 88/1/84
f 91/1/86 97/1/96 98/1/97
f 91/1/86 98/1/97 92/1/86
f 87/1/83 95/1/98 97/1/99
f 87/1/83 97/1/99 91/1/88
f 98/1/100 96/1/94 88/1/84
f 98/1/100 88/1/84 92/1/89
f 95/1/101 99/1/101 100/1/101
f 95/1/101 100/1/101 97/1/101
f 100/1/102 101/1/103 102/1/104
f 100/1/102 102/1/104 97/1/96
f 99/1/105 95/1/106 103/1/107
f 99/1/105 103/1/107 104/1/108
f 99/1/109 104/1/110 101/1/111
f 99/1/109 101/1/111 100/1/109
f 94/1/91 93/1/91 105/1/112
f 94/1/91 105/1/112 106/1/113
f 94/1/92 106/1/114 103/1/107
f 94/1/92 103/1/107 95/1/93
f 107/1/115 105/1/116 93/1/95
f 107/1/115 93/1/95 96/1/94
f 97/1/96 102/1/117 108/1/118
f 97/1/96 108/1/118 98/1/97
f 107/1/115 96/1/94 98/1/100
f 107/1/115 98/1/100 108/1/119
f 103/1/107 106/1/120 109/1/121
f 103/1/107 109/1/121 104/1/122
f 109/1/123 106/1/124 110/1/125
f 109/1/123 110/1/125 111/1/126
f 109/1/128 111/1/129 112/1/130
f 109/1/128 112/1/130 104/1/127
f 101/1/103 113/1/131 114/1/132
f 101/1/103 114/1/132 102/1/104
f 101/1/111 104/1/110 112/1/130
f 101/1/111 112/1/130 113/1/133
f 106/1/113 105/1/112 115/1/134
f 106/1/113 115/1/134 110/1/125
f 115/1/136 105/1/116 107/1/115
f 115/1/136 107/1/115 116/1/135
f 117/1/137 116/1/138 107/1/115
f 117/1/137 107/1/115 108/1/119
f 118/2/139 108/2/139 102/2/139
f 118/2/139 102/2/139 119/2/139
f 119/2/140 120/2/141 121/2/142
f 119/2/140 121/2/142 118/2/140
f 119/2/143 102/2/144 114/2/132
f 119/2/143 114/2/132 120/2/145
f 117/2/147 108/2/119 118/2/148
f 117/2/147 118/2/148 121/2/146
f 111/1/126 110/1/125 122/1/60
f 111/1/126 122/1/60 123/1/149
f 112/1/130 111/1/129 123/1/150
f 112/1/130 123/1/150 124/1/151
f 112/2/130 124/2/151 125/2/152
f 112/2/130 125/2/152 113/2/133
f 114/2/132 113/2/154 126/2/155
f 114/2/132 126/2/155 120/2/153
f 126/2/157 127/2/158 128/2/159
f 126/2/157 128/2/159 120/2/156
f 126/2/87 113/2/160 125/2/152
f 126/2/87 125/2/152 127/2/161
f 110/1/125 115/1/162 129/1/163
f 110/1/125 129/1/163 122/1/60
f 130/1/164 129/1/163 115/1/165
f 130/1/164 115/1/165 116/1/135
f 120/2/141 128/2/159 131/2/166
f 120/2/141 131/2/166 121/2/142
f 132/2/168 117/2/147 121/2/146
f 132/2/168 121/2/146 131/2/167
f 133/2/169 134/2/169 116/2/169
f 133/2/169 116/2/169 117/2/169
f 133/2/170 117/2/171 132/2/168
f 133/2/170 132/2/168 135/2/172
f 134/2/174 136/2/175 130/2/164
f 134/2/174 130/2/164 116/2/173
f 136/2/72 134/2/73 133/2/73
f 136/2/72 133/2/73 135/2/72
f 123/2/149 122/2/60 137/2/60
f 123/2/149 137/2/60 138/2/149
f 124/2/151 123/2/150 138/2/150
f 124/2/151 138/2/150 139/2/176
f 125/2/152 124/2/151 139/2/176
f 125/2/152 139/2/176 140/2/177
f 128/3/159 127/3/158 141/3/178
f 128/3/159 141/3/178 142/3/38
f 127/3/161 125/3/152 140/3/177
f 127/3/161 140/3/177 141/3/179
f 122/2/60 129/2/163 143/2/180
f 122/2/60 143/2/180 137/2/60
f 144/2/181 143/2/180 129/2/163
f 144/2/181 129/2/163 130/2/164
f 131/3/182 128/3/159 142/3/38
f 131/3/182 142/3/38 145/3/183
f 145/3/183 146/3/184 132/3/168
f 145/3/183 132/3/168 131/3/182
f 135/2/172 132/2/168 146/2/184
f 135/2/172 146/2/184 147/2/185
f 130/2/164 136/2/175 148/2/186
f 130/2/164 148/2/186 144/2/181
f 147/2/55 148/2/55 136/2/72
f 147/2/55 136/2/72 135/2/72
f 138/3/149 137/3/60 149/3/60
f 138/3/149 149/3/60 150/3/149
f 139/3/176 138/3/150 150/3/150
f 139/3/176 150/3/150 151/3/176
f 140/3/177 139/3/176 151/3/176
f 140/3/177 151/3/176 152/3/177
f 142/3/38 141/3/178 153/3/187
f 142/3/38 153/3/187 154/3/188
f 141/3/179 140/3/177 152/3/177
f 141/3/179 152/3/177 153/3/179
f 137/3/60 143/3/180 155/3/180
f 137/3/60 155/3/180 149/3/60
f 156/3/181 155/3/180 143/3/180
f 156/3/181 143/3/180 144/3/181
f 145/3/183 142/3/38 154/3/188
f 145/3/183 154/3/188 157/3/189
f 157/3/189 158/3/190 146/3/184
f 157/3/189 146/3/184 145/3/183
f 147/3/185 146/3/184 158/3/190
f 147/3/185 158/3/190 159/3/172
f 144/3/181 148/3/186 160/3/186
f 144/3/181 160/3/186 156/3/181
f 159/3/76 160/3/76 148/3/55
f 159/3/76 148/3/55 147/3/55
f 150/4/149 149/4/60 161/4/60
f 150/4/149 161/4/60 162/4/149
f 151/4/176 150/4/150 162/4/150
f 151/4/176 162/4/150 163/4/176
f 152/3/177 151/3/176 163/3/176
f 152/3/177 163/3/176 164/3/177
f 154/2/188 153/2/187 165/2/191
f 154/2/188 165/2/191 166/2/192
f 153/2/179 152/2/177 164/2/177
f 153/2/179 164/2/177 165/2/193
f 149/4/60 155/4/180 167/4/180
f 149/4/60 167/4/180 161/4/60
f 168/4/181 167/4/180 155/4/180
f 168/4/181 155/4/180 156/4/181
f 157/2/189 154/2/188 166/2/194
f 157/2/189 166/2/194 169/2/195
f 170/2/197 158/2/190 157/2/189
f 170/2/197 157/2/189 169/2/196
f 159/3/172 158/3/190 170/3/197
f 159/3/172 170/3/197 171/3/198
f 156/3/181 160/3/186 172/3/186
f 156/3/181 172/3/186 168/3/181
f 172/3/200 160/3/76 159/3/76
f 172/3/200 159/3/76 171/3/199
f 162/4/149 161/4/60 173/4/201
f 162/4/149 173/4/201 174/4/202
f 163/4/176 162/4/150 174/4/203
f 163/4/176 174/4/203 175/4/204
f 164/3/177 163/3/176 175/3/204
f 164/3/177 175/3/204 176/3/205
f 165/2/206 177/2/207 178/2/208
f 165/2/206 178/2/208 166/2/192
f 165/2/193 164/2/177 176/2/205
f 165/2/193 176/2/205 177/2/209
f 161/4/60 167/4/180 179/4/210
f 161/4/60 179/4/210 173/4/201
f 180/4/211 179/4/210 167/4/180
f 180/4/211 167/4/180 168/4/181
f 181/1/212 169/1/213 166/1/214
f 181/1/212 166/1/214 182/1/212
f 181/1/212 182/1/212 183/1/2
f 181/1/212 183/1/2 184/1/2
f 182/1/215 166/1/216 178/1/208
f 182/1/215 178/1/208 183/1/217
f 185/1/219 169/1/220 181/1/221
f 185/1/219 181/1/221 184/1/218
f 186/2/1 187/2/1 188/2/1
f 186/2/1 188/2/1 189/2/1
f 191/2/33 192/2/33 193/2/52
f 191/2/33 193/2/52 190/2/52
f 186/2/38 189/2/38 190/2/38
f 186/2/38 190/2/38 193/2/38
f 187/2/14 192/2/14 191/2/14
f 187/2/14 191/2/14 188/2/14
f 188/2/222 191/2/223 190/2/222
f 188/2/222 190/2/222 189/2/222
f 193/2/224 192/2/225 187/2/224
f 193/2/224 187/2/224 186/2/224
f 168/3/181 172/3/186 194/3/226
f 168/3/181 194/3/226 180/3/211
f 195/3/227 194/3/32 172/3/200
f 195/3/227 172/3/200 171/3/199
f 196/2/228 171/2/198 170/2/197
f 196/2/228 170/2/197 169/2/229
f 197/2/231 195/2/232 198/2/233
f 197/2/231 198/2/233 185/2/230
f 196/2/234 169/2/235 185/2/236
f 196/2/234 185/2/236 198/2/234
f 198/2/237 195/2/227 171/2/199
f 198/2/237 171/2/199 196/2/237
f 200/3/239 201/3/240 202/3/241
f 200/3/239 202/3/241 199/3/238
f 173/3/201 201/3/242 200/3/243
f 173/3/201 200/3/243 174/3/202
f 175/3/204 174/3/203 200/3/244
f 175/3/204 200/3/244 199/3/245
f 203/2/246 199/2/238 202/2/241
f 203/2/246 202/2/241 204/2/247
f 176/2/205 175/2/204 199/2/248
f 176/2/205 199/2/248 203/2/249
f 205/2/250 203/2/251 204/2/247
f 205/2/250 204/2/247 206/2/252
f 178/2/208 177/2/207 205/2/253
f 178/2/208 205/2/253 206/2/254
f 176/2/205 203/2/249 205/2/256
f 176/2/205 205/2/256 177/2/255
f 179/3/257 207/3/258 201/3/242
f 179/3/257 201/3/242 173/3/201
f 207/3/260 179/3/261 180/3/211
f 207/3/260 180/3/211 208/3/259
f 204/2/262 209/2/263 210/2/264
f 204/2/262 210/2/264 206/2/252
f 210/2/265 209/2/266 197/2/231
f 210/2/265 197/2/231 185/2/267
f 211/1/268 206/1/252 210/1/264
f 211/1/268 210/1/264 212/1/268
f 183/1/217 178/1/208 206/1/254
f 183/1/217 206/1/254 211/1/269
f 210/1/265 185/1/267 184/1/218
f 210/1/265 184/1/218 212/1/270
f 213/1/271 184/1/272 183/1/272
f 213/1/271 183/1/272 214/1/271
f 214/1/273 183/1/217 211/1/269
f 214/1/273 211/1/269 215/1/274
f 212/1/270 184/1/218 213/1/276
f 212/1/270 213/1/276 216/1/275
f 217/1/277 213/1/271 214/1/271
f 217/1/277 214/1/271 218/1/277
f 214/1/273 215/1/274 219/1/279
f 214/1/273 219/1/279 218/1/278
f 220/1/280 216/1/275 213/1/276
f 220/1/280 213/1/276 217/1/281
f 217/1/277 218/1/277 191/1/282
f 217/1/277 191/1/282 192/1/282
f 219/1/52 220/1/52 222/1/33
f 219/1/52 222/1/33 221/1/33
f 191/1/33 221/1/33 222/1/33
f 191/1/33 222/1/33 192/1/33
f 218/1/278 219/1/279 221/1/283
f 218/1/278 221/1/283 191/1/223
f 222/1/284 220/1/280 217/1/281
f 222/1/284 217/1/281 192/1/225
f 208/2/286 223/2/287 224/2/287
f 208/2/286 224/2/287 209/2/285
f 197/2/231 209/2/288 224/2/289
f 197/2/231 224/2/289 195/2/232
f 180/2/211 194/2/226 223/2/290
f 180/2/211 223/2/290 208/2/291
f 224/2/42 223/2/42 194/2/32
f 224/2/42 194/2/32 195/2/227
f 207/3/258 225/3/292 226/3/292
f 207/3/258 226/3/292 201/3/242
f 202/3/241 201/3/240 226/3/293
f 202/3/241 226/3/293 227/3/294
f 228/3/295 225/3/296 207/3/260
f 228/3/295 207/3/260 208/3/259
f 227/2/52 228/2/52 230/2/297
f 227/2/52 230/2/297 229/2/297
f 204/2/299 229/2/297 230/2/297
f 204/2/299 230/2/297 209/2/298
f 202/2/241 227/2/294 229/2/301
f 202/2/241 229/2/301 204/2/300
f 230/2/302 228/2/295 208/2/303
f 230/2/302 208/2/303 209/2/266
f 231/2/304 232/2/304 233/2/304
f 231/2/304 233/2/304 234/2/304
f 211/2/39 212/2/39 233/2/304
f 211/2/39 233/2/304 232/2/304
f 215/2/274 211/2/269 232/2/244
f 215/2/274 232/2/244 231/2/305
f 233/2/307 212/2/270 216/2/275
f 233/2/307 216/2/275 234/2/306
f 220/1/38 219/1/38 235/1/38
f 220/1/38 235/1/38 236/1/38
f 219/1/279 215/1/274 231/1/305
f 219/1/279 231/1/305 235/1/308
f 234/1/306 216/1/275 220/1/280
f 234/1/306 220/1/280 236/1/309
f 227/3/58 237/3/38 238/3/38
f 227/3/58 238/3/38 228/3/58
f 226/3/292 225/3/292 239/3/28
f 226/3/292 239/3/28 240/3/28
f 226/3/293 240/3/310 237/3/310
f 226/3/293 237/3/310 227/3/294
f 238/3/311 239/3/311 225/3/296
f 238/3/311 225/3/296 228/3/295
f 241/2/304 242/2/304 243/2/304
f 241/2/304 243/2/304 244/2/304
f 231/2/304 234/2/304 243/2/304
f 231/2/304 243/2/304 242/2/304
f 235/2/308 231/2/305 242/2/312
f 235/2/308 242/2/312 241/2/313
f 243/2/315 234/2/306 236/2/309
f 243/2/315 236/2/309 244/2/314
f 245/1/37 236/1/37 235/1/37
f 245/1/37 235/1/37 246/1/37
f 245/1/68 246/1/68 247/1/316
f 245/1/68 247/1/316 248/1/316
f 246/1/317 235/1/308 241/1/313
f 246/1/317 241/1/313 247/1/318
f 244/1/314 236/1/309 245/1/320
f 244/1/314 245/1/320 248/1/319
f 249/3/321 250/3/321 251/3/321
f 249/3/321 251/3/321 252/3/321
f 238/3/38 237/3/38 249/3/77
f 238/3/38 249/3/77 252/3/77
f 240/3/28 239/3/28 251/3/40
f 240/3/28 251/3/40 250/3/40
f 237/3/310 240/3/310 250/3/322
f 237/3/310 250/3/322 249/3/323
f 251/3/325 239/3/311 238/3/311
f 251/3/325 238/3/311 252/3/324
f 253/2/304 254/2/304 255/2/304
f 253/2/304 255/2/304 256/2/304
f 248/2/316 247/2/316 253/2/77
f 248/2/316 253/2/77 256/2/77
f 241/2/304 244/2/304 255/2/304
f 241/2/304 255/2/304 254/2/304
f 247/2/318 241/2/313 254/2/326
f 247/2/318 254/2/326 253/2/327
f 255/2/329 244/2/314 248/2/319
f 255/2/329 248/2/319 256/2/328
f 257/2/1 258/2/1 259/2/1
f 257/2/1 259/2/1 260/2/1
f 257/2/68 260/2/68 261/2/69
f 257/2/68 261/2/69 262/2/69
f 258/2/3 263/2/4 264/2/4
f 258/2/3 264/2/4 259/2/3
f 260/2/70 259/2/70 264/2/71
f 260/2/70 264/2/71 261/2/71
f 263/2/72 258/2/73 257/2/73
f 263/2/72 257/2/73 262/2/72
f 265/3/37 252/3/37 249/3/37
f 265/3/37 249/3/37 266/3/37
f 265/3/68 266/3/68 267/3/316
f 265/3/68 267/3/316 268/3/316
f 249/3/60 252/3/60 269/3/60
f 249/3/60 269/3/60 270/3/60
f 266/3/317 249/3/323 270/3/330
f 266/3/317 270/3/330 267/3/331
f 269/3/333 252/3/324 265/3/320
f 269/3/333 265/3/320 268/3/332
f 271/1/37 256/1/37 253/1/37
f 271/1/37 253/1/37 272/1/37
f 273/1/12 274/1/12 275/1/12
f 273/1/12 275/1/12 276/1/12
f 271/1/38 272/1/38 273/1/38
f 271/1/38 273/1/38 276/1/38
f 253/1/304 256/1/304 275/1/39
f 253/1/304 275/1/39 274/1/39
f 272/1/35 253/1/327 274/1/35
f 272/1/35 274/1/35 273/1/35
f 275/1/36 256/1/328 271/1/36
f 275/1/36 271/1/36 276/1/36
f 262/2/69 261/2/69 277/2/334
f 262/2/69 277/2/334 278/2/334
f 264/2/4 263/2/4 279/2/335
f 264/2/4 279/2/335 280/2/335
f 261/2/71 264/2/71 280/2/336
f 261/2/71 280/2/336 277/2/336
f 278/2/337 279/2/337 263/2/72
f 278/2/337 263/2/72 262/2/72
f 281/2/57 282/2/57 270/2/57
f 281/2/57 270/2/57 269/2/57
f 281/2/3 283/2/4 284/2/4
f 281/2/3 284/2/4 282/2/3
f 282/2/128 284/2/338 285/2/339
f 282/2/128 285/2/339 270/2/330
f 286/2/340 283/2/341 281/2/342
f 286/2/340 281/2/342 269/2/333
f 268/2/316 267/2/316 287/2/77
f 268/2/316 287/2/77 288/2/77
f 267/2/331 270/2/330 285/2/339
f 267/2/331 285/2/339 287/2/343
f 286/2/340 269/2/333 268/2/332
f 286/2/340 268/2/332 288/2/344
f 290/2/33 291/2/33 292/2/52
f 290/2/33 292/2/52 289/2/52
f 277/2/334 289/2/65 292/2/65
f 277/2/334 292/2/65 278/2/334
f 279/2/335 291/2/345 290/2/345
f 279/2/335 290/2/345 280/2/335
f 280/2/336 290/2/346 289/2/347
f 280/2/336 289/2/347 277/2/336
f 292/2/348 291/2/349 279/2/337
f 292/2/348 279/2/337 278/2/337
f 284/1/4 283/1/4 293/1/60
f 284/1/4 293/1/60 294/1/60
f 284/1/338 294/1/350 295/1/351
f 284/1/338 295/1/351 285/1/339
f 296/1/352 293/1/353 283/1/341
f 296/1/352 283/1/341 286/1/340
f 297/2/12 295/2/12 296/2/12
f 297/2/12 296/2/12 298/2/12
f 287/2/343 285/2/339 295/2/351
f 287/2/343 295/2/351 297/2/354
f 296/2/352 286/2/340 288/2/344
f 296/2/352 288/2/344 298/2/355
f 299/1/23 288/1/37 287/1/37
f 299/1/23 287/1/37 300/1/23
f 299/1/23 300/1/23 301/1/23
f 299/1/23 301/1/23 302/1/23
f 300/1/222 287/1/343 297/1/354
f 300/1/222 297/1/354 301/1/356
f 298/1/355 288/1/344 299/1/224
f 298/1/355 299/1/224 302/1/357
f 303/2/57 304/2/57 290/2/57
f 303/2/57 290/2/57 291/2/57
f 305/2/12 306/2/12 307/2/12
f 305/2/12 307/2/12 308/2/12
f 290/2/33 305/2/34 308/2/34
f 290/2/33 308/2/34 291/2/33
f 304/2/60 303/2/60 307/2/60
f 304/2/60 307/2/60 306/2/60
f 304/2/312 306/2/312 305/2/312
f 304/2/312 305/2/312 290/2/346
f 308/2/315 307/2/315 303/2/315
f 308/2/315 303/2/315 291/2/349
f 296/2/38 295/2/38 309/2/38
f 296/2/38 309/2/38 310/2/38
f 294/2/60 293/2/60 311/2/60
f 294/2/60 311/2/60 312/2/60
f 295/2/351 294/2/350 312/2/358
f 295/2/351 312/2/358 309/2/359
f 310/2/360 311/2/361 293/2/353
f 310/2/360 293/2/353 296/2/352
f 314/2/13 315/2/13 316/2/43
f 314/2/13 316/2/43 313/2/43
f 297/2/60 298/2/60 315/2/60
f 297/2/60 315/2/60 314/2/60
f 297/2/354 314/2/362 313/2/363
f 297/2/354 313/2/363 301/2/356
f 316/2/364 315/2/365 298/2/355
f 316/2/364 298/2/355 302/2/357
f 317/1/37 302/1/23 301/1/23
f 317/1/37 301/1/23 318/1/37
f 313/1/43 316/1/43 320/1/49
f 313/1/43 320/1/49 319/1/49
f 317/1/38 318/1/38 319/1/38
f 317/1/38 319/1/38 320/1/38
f 318/1/366 301/1/356 313/1/363
f 318/1/366 313/1/363 319/1/366
f 316/1/364 302/1/357 317/1/367
f 316/1/364 317/1/367 320/1/367
f 312/2/60 311/2/60 321/2/91
f 312/2/60 321/2/91 322/2/91
f 309/2/359 312/2/358 322/2/368
f 309/2/359 322/2/368 323/2/369
f 321/2/85 311/2/361 310/2/360
f 321/2/85 310/2/360 324/2/370
f 315/3/1 310/3/1 309/3/1
f 315/3/1 309/3/1 314/3/1
f 314/3/58 325/3/38 326/3/38
f 314/3/58 326/3/38 315/3/58
f 309/3/359 323/3/369 325/3/371
f 309/3/359 325/3/371 314/3/362
f 326/3/372 324/3/370 310/3/360
f 326/3/372 310/3/360 315/3/365
f 322/1/91 321/1/91 327/1/112
f 322/1/91 327/1/112 328/1/113
f 322/1/368 328/1/373 329/1/374
f 322/1/368 329/1/374 323/1/369
f 330/1/375 327/1/95 321/1/85
f 330/1/375 321/1/85 324/1/370
f 325/2/38 331/2/376 332/2/77
f 325/2/38 332/2/77 326/2/38
f 325/2/371 323/2/369 329/2/377
f 325/2/371 329/2/377 331/2/378
f 330/2/375 324/2/370 326/2/372
f 330/2/375 326/2/372 332/2/379
f 329/2/380 328/2/373 333/2/381
f 329/2/380 333/2/381 334/2/382
f 333/2/123 328/2/113 335/2/125
f 333/2/123 335/2/125 336/2/126
f 333/2/384 336/2/385 337/2/70
f 333/2/384 337/2/70 334/2/383
f 329/3/387 334/3/388 338/3/389
f 329/3/387 338/3/389 331/3/386
f 338/3/391 339/3/392 340/3/393
f 338/3/391 340/3/393 331/3/390
f 338/3/394 334/3/395 337/3/70
f 338/3/394 337/3/70 339/3/392
f 328/2/113 327/2/112 341/2/134
f 328/2/113 341/2/134 335/2/125
f 342/2/396 341/2/95 327/2/95
f 342/2/396 327/2/95 330/2/375
f 343/3/397 342/3/396 330/3/375
f 343/3/397 330/3/375 332/3/379
f 332/3/37 331/3/398 345/3/37
f 332/3/37 345/3/37 344/3/37
f 344/3/68 345/3/68 346/3/69
f 344/3/68 346/3/69 347/3/69
f 345/3/399 331/3/378 340/3/393
f 345/3/399 340/3/393 346/3/400
f 343/3/397 332/3/379 344/3/90
f 343/3/397 344/3/90 347/3/89
f 336/2/126 335/2/125 348/2/201
f 336/2/126 348/2/201 349/2/202
f 337/2/70 336/2/385 349/2/203
f 337/2/70 349/2/203 350/2/66
f 340/3/393 339/3/392 351/3/401
f 340/3/393 351/3/401 352/3/402
f 339/3/392 337/3/70 350/3/66
f 339/3/392 350/3/66 351/3/401
f 335/2/125 341/2/134 353/2/403
f 335/2/125 353/2/403 348/2/201
f 354/2/404 353/2/95 341/2/95
f 354/2/404 341/2/95 342/2/396
f 355/3/405 354/3/404 342/3/396
f 355/3/405 342/3/396 343/3/397
f 347/2/69 346/2/69 356/2/334
f 347/2/69 356/2/334 357/2/334
f 346/2/400 340/2/393 352/2/402
f 346/2/400 352/2/402 356/2/406
f 357/2/407 355/2/405 343/2/397
f 357/2/407 343/2/397 347/2/89
f 359/1/239 360/1/409 361/1/410
f 359/1/239 361/1/410 358/1/408
f 348/1/201 360/1/242 359/1/243
f 348/1/201 359/1/243 349/1/202
f 350/1/66 349/1/203 359/1/244
f 350/1/66 359/1/244 358/1/411
f 362/2/412 358/2/413 361/2/414
f 362/2/412 361/2/414 363/2/415
f 352/2/402 351/2/401 362/2/416
f 352/2/402 362/2/416 363/2/417
f 350/2/66 358/2/418 362/2/419
f 350/2/66 362/2/419 351/2/401
f 353/1/403 364/1/258 360/1/242
f 353/1/403 360/1/242 348/1/201
f 365/1/420 364/1/95 353/1/95
f 365/1/420 353/1/95 354/1/404
f 365/2/420 354/2/404 355/2/405
f 365/2/420 355/2/405 366/2/421
f 367/1/52 363/1/422 366/1/52
f 367/1/52 366/1/52 368/1/52
f 356/1/334 367/1/65 368/1/65
f 356/1/334 368/1/65 357/1/334
f 352/1/402 363/1/423 367/1/424
f 352/1/402 367/1/424 356/1/406
f 368/1/425 366/1/421 355/1/405
f 368/1/425 355/1/405 357/1/407
f 364/2/258 369/2/292 370/2/292
f 364/2/258 370/2/292 360/2/242
f 361/2/426 360/2/409 370/2/427
f 361/2/426 370/2/427 371/2/428
f 372/2/429 369/2/430 364/2/95
f 372/2/429 364/2/95 365/2/420
f 366/2/58 363/2/431 373/2/59
f 366/2/58 373/2/59 374/2/59
f 361/2/432 371/2/428 373/2/433
f 361/2/432 373/2/433 363/2/423
f 374/2/434 372/2/429 365/2/420
f 374/2/434 365/2/420 366/2/421
f 370/1/292 369/1/292 375/1/60
f 370/1/292 375/1/60 376/1/60
f 370/1/427 376/1/435 377/1/436
f 370/1/427 377/1/436 371/1/428
f 378/1/437 375/1/438 369/1/430
f 378/1/437 369/1/430 372/1/429
f 377/2/52 378/2/52 380/2/52
f 377/2/52 380/2/52 379/2/52
f 373/2/59 379/2/65 380/2/65
f 373/2/59 380/2/65 374/2/59
f 371/2/428 377/2/436 379/2/439
f 371/2/428 379/2/439 373/2/433
f 380/2/425 378/2/437 372/2/429
f 380/2/425 372/2/429 374/2/434
f 377/1/58 381/1/440 382/1/440
f 377/1/58 382/1/440 378/1/58
f 376/1/60 375/1/60 383/1/60
f 376/1/60 383/1/60 384/1/60
f 376/1/435 384/1/441 381/1/441
f 376/1/435 381/1/441 377/1/436
f 382/1/442 383/1/442 375/1/438
f 382/1/442 375/1/438 378/1/437
f 382/1/440 381/1/440 385/1/38
f 382/1/440 385/1/38 386/1/38
f 384/1/60 383/1/60 387/1/60
f 384/1/60 387/1/60 388/1/60
f 381/1/441 384/1/441 388/1/53
f 381/1/441 388/1/53 385/1/53
f 386/1/55 387/1/55 383/1/442
f 386/1/55 383/1/442 382/1/442
f 386/1/38 385/1/38 389/1/334
f 386/1/38 389/1/334 390/1/334
f 388/1/60 387/1/60 391/1/28
f 388/1/60 391/1/28 392/1/28
f 385/1/53 388/1/53 392/1/443
f 385/1/53 392/1/443 389/1/443
f 390/1/444 391/1/444 387/1/55
f 390/1/444 387/1/55 386/1/55
f 393/1/12 394/1/12 395/1/12
f 393/1/12 395/1/12 396/1/12
f 389/1/334 393/1/65 396/1/65
f 389/1/334 396/1/65 390/1/334
f 392/1/28 391/1/28 395/1/40
f 392/1/28 395/1/40 394/1/40
f 392/1/443 394/1/66 393/1/66
f 392/1/443 393/1/66 389/1/443
f 396/1/67 395/1/67 391/1/444
f 396/1/67 391/1/444 390/1/444
f 397/1/1 398/1/1 399/1/1
f 397/1/1 399/1/1 400/1/1
f 397/1/68 400/1/68 401/1/69
f 397/1/68 401/1/69 402/1/69
f 398/1/3 403/1/4 404/1/4
f 398/1/3 404/1/4 399/1/3
f 400/1/70 399/1/70 404/1/71
f 400/1/70 404/1/71 401/1/71
f 403/1/72 398/1/73 397/1/73
f 403/1/72 397/1/73 402/1/72
f 402/1/69 401/1/69 405/1/38
f 402/1/69 405/1/38 406/1/38
f 404/1/4 403/1/4 407/1/60
f 404/1/4 407/1/60 408/1/60
f 401/1/71 404/1/71 408/1/53
f 401/1/71 408/1/53 405/1/53
f 406/1/55 407/1/55 403/1/72
f 406/1/55 403/1/72 402/1/72
f 406/2/38 405/2/38 409/2/74
f 406/2/38 409/2/74 410/2/74
f 408/2/60 407/2/60 411/2/60
f 408/2/60 411/2/60 412/2/60
f 405/2/53 408/2/53 412/2/75
f 405/2/53 412/2/75 409/2/75
f 410/2/76 411/2/76 407/2/55
f 410/2/76 407/2/55 406/2/55
f 410/3/74 409/3/74 413/3/77
f 410/3/74 413/3/77 414/3/77
f 412/3/60 411/3/60 415/3/60
f 412/3/60 415/3/60 416/3/60
f 409/3/75 412/3/75 416/3/78
f 409/3/75 416/3/78 413/3/445
f 415/3/81 411/3/76 410/3/76
f 415/3/81 410/3/76 414/3/446
f 416/3/60 415/3/60 417/3/60
f 416/3/60 417/3/60 418/3/60
f 413/3/445 416/3/78 418/3/447
f 413/3/445 418/3/447 419/3/448
f 417/3/85 415/3/81 414/3/446
f 417/3/85 414/3/446 420/3/449
f 421/2/23 414/2/37 413/2/37
f 421/2/23 413/2/37 422/2/23
f 421/2/23 422/2/23 423/2/2
f 421/2/23 423/2/2 424/2/2
f 422/2/450 413/2/445 419/2/448
f 422/2/450 419/2/448 423/2/451
f 420/2/449 414/2/446 421/2/453
f 420/2/449 421/2/453 424/2/452
f 426/1/11 427/1/11 428/1/1
f 426/1/11 428/1/1 425/1/1
f 430/1/13 431/1/13 432/1/43
f 430/1/13 432/1/43 429/1/43
f 426/1/14 431/1/14 430/1/14
f 426/1/14 430/1/14 427/1/14
f 427/1/16 430/1/53 429/1/45
f 427/1/16 429/1/45 428/1/45
f 432/1/47 431/1/55 426/1/20
f 432/1/47 426/1/20 425/1/47
f 433/1/21 425/1/1 428/1/1
f 433/1/21 428/1/1 434/1/21
f 429/1/43 432/1/43 436/1/49
f 429/1/43 436/1/49 435/1/49
f 433/1/38 434/1/38 435/1/38
f 433/1/38 435/1/38 436/1/38
f 434/1/50 428/1/45 429/1/45
f 434/1/50 429/1/45 435/1/50
f 436/1/51 432/1/47 425/1/47
f 436/1/51 425/1/47 433/1/51
f 418/4/60 417/4/60 437/4/28
f 418/4/60 437/4/28 438/4/28
f 419/4/448 418/4/447 438/4/454
f 419/4/448 438/4/454 439/4/455
f 440/4/456 437/4/457 417/4/85
f 440/4/456 417/4/85 420/4/449
f 423/3/451 419/3/448 439/3/455
f 423/3/451 439/3/455 441/3/458
f 442/3/459 440/3/456 420/3/449
f 442/3/459 420/3/449 424/3/452
f 443/1/1 424/1/272 423/1/272
f 443/1/1 423/1/272 444/1/1
f 441/1/13 442/1/13 446/1/43
f 441/1/13 446/1/43 445/1/43
f 444/1/460 423/1/451 441/1/458
f 444/1/460 441/1/458 445/1/460
f 446/1/461 442/1/459 424/1/452
f 446/1/461 424/1/452 443/1/461
f 443/1/1 444/1/1 430/1/282
f 443/1/1 430/1/282 431/1/282
f 445/1/43 446/1/43 448/1/49
f 445/1/43 448/1/49 447/1/49
f 430/1/34 447/1/34 448/1/34
f 430/1/34 448/1/34 431/1/34
f 444/1/460 445/1/460 447/1/462
f 444/1/460 447/1/462 430/1/53
f 448/1/463 446/1/461 443/1/461
f 448/1/463 443/1/461 431/1/55
f 449/3/321 450/3/321 451/3/321
f 449/3/321 451/3/321 452/3/321
f 438/3/28 437/3/28 451/3/40
f 438/3/28 451/3/40 450/3/40
f 439/3/455 438/3/454 450/3/464
f 439/3/455 450/3/464 449/3/465
f 451/3/467 437/3/457 440/3/456
f 451/3/467 440/3/456 452/3/466
f 441/2/58 453/2/59 454/2/59
f 441/2/58 454/2/59 442/2/58
f 439/2/455 449/2/465 453/2/468
f 439/2/455 453/2/468 441/2/458
f 454/2/469 452/2/466 440/2/456
f 454/2/469 440/2/456 442/2/459
f 456/2/52 457/2/52 458/2/52
f 456/2/52 458/2/52 455/2/52
f 453/2/59 455/2/65 458/2/65
f 453/2/59 458/2/65 454/2/59
f 449/2/60 452/2/60 457/2/60
f 449/2/60 457/2/60 456/2/60
f 449/2/465 456/2/53 455/2/470
f 449/2/465 455/2/470 453/2/468
f 458/2/471 457/2/55 452/2/466
f 458/2/471 452/2/466 454/2/469
f 459/3/57 460/3/57 456/3/57
f 459/3/57 456/3/57 457/3/57
f 457/3/38 456/3/38 461/3/38
f 457/3/38 461/3/38 462/3/38
f 459/3/3 463/3/4 464/3/4
f 459/3/3 464/3/4 460/3/3
f 460/3/472 464/3/473 461/3/474
f 460/3/472 461/3/474 456/3/53
f 462/3/475 463/3/476 459/3/477
f 462/3/475 459/3/477 457/3/55
f 464/4/4 463/4/4 465/4/60
f 464/4/4 465/4/60 466/4/60
f 461/4/474 464/4/473 466/4/478
f 461/4/474 466/4/478 467/4/479
f 465/4/481 463/4/476 462/4/475
f 465/4/481 462/4/475 468/4/480
f 469/3/37 462/3/37 461/3/37
f 469/3/37 461/3/37 470/3/37
f 469/3/68 470/3/68 471/3/38
f 469/3/68 471/3/38 472/3/38
f 470/3/87 461/3/474 467/3/479
f 470/3/87 467/3/479 471/3/482
f 468/3/480 462/3/475 469/3/90
f 468/3/480 469/3/90 472/3/483
f 466/4/60 465/4/60 473/4/60
f 466/4/60 473/4/60 474/4/60
f 466/4/478 474/4/350 475/4/484
f 466/4/478 475/4/484 467/4/479
f 476/4/485 473/4/353 465/4/481
f 476/4/485 465/4/481 468/4/480
f 475/3/52 476/3/52 478/3/52
f 475/3/52 478/3/52 477/3/52
f 471/3/38 477/3/65 478/3/65
f 471/3/38 478/3/65 472/3/38
f 467/3/479 475/3/484 477/3/439
f 467/3/479 477/3/439 471/3/482
f 478/3/425 476/3/485 468/3/480
f 478/3/425 468/3/480 472/3/483
f 476/3/38 475/3/38 479/3/38
f 476/3/38 479/3/38 480/3/38
f 474/3/60 473/3/60 481/3/60
f 474/3/60 481/3/60 482/3/60
f 475/3/484 474/3/350 482/3/358
f 475/3/484 482/3/358 479/3/486
f 480/3/487 481/3/361 473/3/353
f 480/3/487 473/3/353 476/3/485
f 482/4/60 481/4/60 483/4/28
f 482/4/60 483/4/28 484/4/28
f 479/4/486 482/4/358 484/4/488
f 479/4/486 484/4/488 485/4/53
f 483/4/489 481/4/361 480/4/487
f 483/4/489 480/4/487 486/4/55
f 487/3/37 480/3/37 479/3/37
f 487/3/37 479/3/37 488/3/37
f 487/3/68 488/3/68 489/3/69
f 487/3/68 489/3/69 490/3/69
f 488/3/87 479/3/486 485/3/53
f 488/3/87 485/3/53 489/3/490
f 486/3/55 480/3/487 487/3/90
f 486/3/55 487/3/90 490/3/491
f 491/3/321 492/3/321 493/3/321
f 491/3/321 493/3/321 494/3/321
f 484/3/28 483/3/28 493/3/40
f 484/3/28 493/3/40 492/3/40
f 485/3/53 484/3/488 492/3/464
f 485/3/53 492/3/464 491/3/492
f 493/3/467 483/3/489 486/3/55
f 493/3/467 486/3/55 494/3/493
f 490/2/69 489/2/69 495/2/74
f 490/2/69 495/2/74 496/2/74
f 489/2/490 485/2/53 491/2/492
f 489/2/490 491/2/492 495/2/494
f 494/2/493 486/2/55 490/2/491
f 494/2/493 490/2/491 496/2/495
f 496/3/74 495/3/74 497/3/77
f 496/3/74 497/3/77 498/3/77
f 491/3/496 494/3/496 499/3/497
f 491/3/496 499/3/497 500/3/497
f 495/3/494 491/3/492 500/3/498
f 495/3/494 500/3/498 497/3/499
f 499/3/501 494/3/493 496/3/495
f 499/3/501 496/3/495 498/3/500
f 500/2/497 499/2/497 501/2/60
f 500/2/497 501/2/60 502/2/60
f 497/2/499 500/2/498 502/2/358
f 497/2/499 502/2/358 503/2/502
f 504/2/503 501/2/504 499/2/501
f 504/2/503 499/2/501 498/2/500
f 505/1/37 498/1/37 497/1/37
f 505/1/37 497/1/37 506/1/37
f 503/1/52 504/1/52 508/1/52
f 503/1/52 508/1/52 507/1/52
f 505/1/38 506/1/38 507/1/38
f 505/1/38 507/1/38 508/1/38
f 506/1/505 497/1/499 503/1/502
f 506/1/505 503/1/502 507/1/505
f 508/1/237 504/1/503 498/1/500
f 508/1/237 498/1/500 505/1/237
f 503/3/38 509/3/38 510/3/38
f 503/3/38 510/3/38 504/3/38
f 502/3/60 501/3/60 511/3/91
f 502/3/60 511/3/91 512/3/91
f 503/3/502 502/3/358 512/3/506
f 503/3/502 512/3/506 509/3/506
f 510/3/507 511/3/508 501/3/504
f 510/3/507 501/3/504 504/3/503
f 514/3/11 515/3/11 516/3/1
f 514/3/11 516/3/1 513/3/1
f 514/3/14 517/3/14 518/3/14
f 514/3/14 518/3/14 515/3/14
f 515/3/510 518/3/511 519/3/512
f 515/3/510 519/3/512 516/3/509
f 520/3/513 517/3/514 514/3/515
f 520/3/513 514/3/515 513/3/516
f 521/2/21 513/2/1 516/2/1
f 521/2/21 516/2/1 522/2/21
f 523/2/12 519/2/12 520/2/12
f 523/2/12 520/2/12 524/2/12
f 521/2/2 522/2/2 523/2/23
f 521/2/2 523/2/23 524/2/23
f 522/2/517 516/2/509 519/2/512
f 522/2/517 519/2/512 523/2/518
f 520/2/513 513/2/516 521/2/520
f 520/2/513 521/2/520 524/2/519
f 525/4/521 509/4/522 526/4/523
f 525/4/521 526/4/523 527/4/524
f 526/4/525 509/4/526 528/4/527
f 526/4/525 528/4/527 529/4/528
f 526/4/530 529/4/531 530/4/532
f 526/4/530 530/4/532 527/4/529
f 525/4/521 527/4/524 532/4/534
f 525/4/521 532/4/534 531/4/533
f 532/4/536 533/4/537 534/4/538
f 532/4/536 534/4/538 531/4/535
f 532/4/539 527/4/529 530/4/532
f 532/4/539 530/4/532 533/4/540
f 512/3/91 511/3/91 535/3/112
f 512/3/91 535/3/112 536/3/113
f 512/3/506 536/3/542 528/3/527
f 512/3/506 528/3/527 509/3/541
f 535/3/544 511/3/508 510/3/507
f 535/3/544 510/3/507 537/3/543
f 538/4/545 510/4/546 509/4/522
f 538/4/545 509/4/522 525/4/521
f 539/4/547 537/4/548 510/4/507
f 539/4/547 510/4/507 538/4/549
f 538/4/545 525/4/521 531/4/533
f 538/4/545 531/4/533 540/4/550
f 539/4/547 538/4/549 540/4/552
f 539/4/547 540/4/552 541/4/551
f 540/3/550 531/3/533 518/3/553
f 540/3/550 518/3/553 517/3/553
f 518/3/511 531/3/535 534/3/538
f 518/3/511 534/3/538 542/3/554
f 543/3/555 541/3/551 540/3/552
f 543/3/555 540/3/552 517/3/514
f 544/2/33 542/2/52 543/2/52
f 544/2/33 543/2/52 545/2/33
f 519/2/34 544/2/33 545/2/33
f 519/2/34 545/2/33 520/2/34
f 518/2/511 542/2/556 544/2/557
f 518/2/511 544/2/557 519/2/512
f 545/2/36 543/2/555 517/2/514
f 545/2/36 517/2/514 520/2/513
f 546/2/37 524/2/23 523/2/23
f 546/2/37 523/2/23 547/2/37
f 548/2/12 549/2/12 550/2/12
f 548/2/12 550/2/12 551/2/12
f 546/2/38 547/2/38 548/2/38
f 546/2/38 548/2/38 551/2/38
f 523/2/39 524/2/39 550/2/39
f 523/2/39 550/2/39 549/2/39
f 547/2/35 523/2/518 549/2/35
f 547/2/35 549/2/35 548/2/35
f 550/2/36 524/2/519 546/2/36
f 550/2/36 546/2/36 551/2/36
f 528/4/527 536/4/542 552/4/121
f 528/4/527 552/4/121 529/4/558
f 552/4/123 536/4/113 553/4/125
f 552/4/123 553/4/125 554/4/126
f 552/4/128 554/4/129 555/4/560
f 552/4/128 555/4/560 529/4/559
f 530/4/532 529/4/561 555/4/560
f 530/4/532 555/4/560 556/4/562
f 533/3/563 530/3/532 556/3/562
f 533/3/563 556/3/562 557/3/564
f 534/2/538 533/2/566 558/2/567
f 534/2/538 558/2/567 542/2/565
f 559/2/568 557/2/569 560/2/570
f 559/2/568 560/2/570 561/2/571
f 558/2/573 559/2/573 561/2/574
f 558/2/573 561/2/574 542/2/572
f 558/2/505 533/2/563 557/2/564
f 558/2/505 557/2/564 559/2/505
f 536/4/113 535/4/112 562/4/575
f 536/4/113 562/4/575 553/4/125
f 563/4/164 562/4/576 535/4/544
f 563/4/164 535/4/544 537/4/577
f 542/2/572 561/2/579 564/2/580
f 542/2/572 564/2/580 543/2/578
f 565/2/582 541/2/583 543/2/555
f 565/2/582 543/2/555 564/2/581
f 567/4/585 537/4/586 539/4/547
f 567/4/585 539/4/547 566/4/584
f 567/4/588 568/4/589 563/4/164
f 567/4/588 563/4/164 537/4/587
f 569/4/590 568/4/591 567/4/592
f 569/4/590 567/4/592 566/4/593
f 570/3/594 566/3/595 539/3/547
f 570/3/594 539/3/547 541/3/596
f 570/3/597 541/3/598 565/3/582
f 570/3/597 565/3/582 571/3/599
f 569/3/590 566/3/601 570/3/602
f 569/3/590 570/3/602 571/3/600
f 554/4/126 553/4/125 572/4/60
f 554/4/126 572/4/60 573/4/149
f 555/4/560 554/4/129 573/4/150
f 555/4/560 573/4/150 574/4/176
f 556/3/562 555/3/560 574/3/176
f 556/3/562 574/3/176 575/3/603
f 560/2/570 557/2/569 576/2/604
f 560/2/570 576/2/604 577/2/605
f 556/2/562 575/2/603 576/2/606
f 556/2/562 576/2/606 557/2/564
f 553/4/125 562/4/607 578/4/180
f 553/4/125 578/4/180 572/4/60
f 579/4/181 578/4/180 562/4/607
f 579/4/181 562/4/607 563/4/164
f 577/1/608 581/1/609 582/1/608
f 577/1/608 582/1/608 580/1/608
f 564/1/580 561/1/579 580/1/610
f 564/1/580 580/1/610 582/1/610
f 560/1/570 577/1/612 580/1/613
f 560/1/570 580/1/613 561/1/611
f 582/1/614 581/1/615 565/1/582
f 582/1/614 565/1/582 564/1/581
f 563/3/164 568/3/591 583/3/616
f 563/3/164 583/3/616 579/3/181
f 584/3/437 583/3/617 568/3/618
f 584/3/437 568/3/618 569/3/590
f 585/2/620 584/2/621 586/2/622
f 585/2/620 586/2/622 581/2/619
f 565/2/582 581/2/615 586/2/624
f 565/2/582 586/2/624 571/2/623
f 586/2/625 584/2/626 569/2/590
f 586/2/625 569/2/590 571/2/599
f 573/3/149 572/3/60 587/3/60
f 573/3/149 587/3/60 588/3/149
f 574/3/176 573/3/150 588/3/150
f 574/3/176 588/3/150 589/3/627
f 575/2/603 574/2/176 589/2/627
f 575/2/603 589/2/627 590/2/628
f 576/1/629 591/1/630 592/1/631
f 576/1/629 592/1/631 577/1/605
f 576/1/632 575/1/603 590/1/628
f 576/1/632 590/1/628 591/1/633
f 572/3/60 578/3/180 593/3/634
f 572/3/60 593/3/634 587/3/60
f 594/3/211 593/3/634 578/3/180
f 594/3/211 578/3/180 579/3/181
f 577/1/636 592/1/631 595/1/637
f 577/1/636 595/1/637 581/1/635
f 595/1/638 596/1/639 585/1/620
f 595/1/638 585/1/620 581/1/615
f 585/2/620 596/2/639 597/2/641
f 585/2/620 597/2/641 584/2/640
f 579/2/181 583/2/616 598/2/226
f 579/2/181 598/2/226 594/2/211
f 597/2/642 598/2/642 583/2/438
f 597/2/642 583/2/438 584/2/437
f 588/2/149 587/2/60 599/2/201
f 588/2/149 599/2/201 600/2/202
f 589/2/627 588/2/150 600/2/203
f 589/2/627 600/2/203 601/2/643
f 590/1/628 589/1/627 601/1/643
f 590/1/628 601/1/643 602/1/644
f 603/2/568 602/2/645 604/2/646
f 603/2/568 604/2/646 605/2/647
f 592/2/631 591/2/630 603/2/648
f 592/2/631 603/2/648 605/2/649
f 590/2/628 602/2/650 603/2/439
f 590/2/628 603/2/439 591/2/633
f 587/2/60 593/2/634 606/2/651
f 587/2/60 606/2/651 599/2/201
f 606/2/653 593/2/634 594/2/211
f 606/2/653 594/2/211 607/2/652
f 595/2/654 592/2/631 605/2/655
f 595/2/654 605/2/655 608/2/656
f 608/2/657 609/2/658 596/2/639
f 608/2/657 596/2/639 595/2/638
f 607/1/659 610/1/659 611/1/659
f 607/1/659 611/1/659 609/1/659
f 596/1/639 609/1/660 611/1/641
f 596/1/639 611/1/641 597/1/641
f 594/1/211 598/1/226 610/1/290
f 594/1/211 610/1/290 607/1/661
f 611/1/67 610/1/67 598/1/642
f 611/1/67 598/1/642 597/1/642
f 613/1/239 614/1/409 615/1/410
f 613/1/239 615/1/410 612/1/408
f 599/1/201 614/1/242 613/1/243
f 599/1/201 613/1/243 600/1/202
f 601/1/643 600/1/203 613/1/244
f 601/1/643 613/1/244 612/1/662
f 616/2/663 612/2/664 615/2/414
f 616/2/663 615/2/414 617/2/665
f 604/2/646 602/2/666 616/2/667
f 604/2/646 616/2/667 617/2/668
f 601/2/643 612/2/670 616/2/671
f 601/2/643 616/2/671 602/2/669
f 606/1/403 618/1/258 614/1/242
f 606/1/403 614/1/242 599/1/201
f 619/1/672 618/1/673 606/1/674
f 619/1/672 606/1/674 607/1/652
f 619/2/672 607/2/676 609/2/677
f 619/2/672 609/2/677 620/2/675
f 621/2/52 617/2/678 620/2/52
f 621/2/52 620/2/52 622/2/52
f 608/2/656 605/2/655 621/2/610
f 608/2/656 621/2/610 622/2/610
f 604/2/646 617/2/680 621/2/681
f 604/2/646 621/2/681 605/2/679
f 622/2/682 620/2/675 609/2/658
f 622/2/682 609/2/658 608/2/657
f 618/1/258 623/1/292 624/1/292
f 618/1/258 624/1/292 614/1/242
f 615/1/426 614/1/409 624/1/427
f 615/1/426 624/1/427 625/1/428
f 626/1/429 623/1/430 618/1/673
f 626/1/429 618/1/673 619/1/672
f 620/1/58 617/1/683 627/1/59
f 620/1/58 627/1/59 628/1/59
f 615/1/432 625/1/428 627/1/433
f 615/1/432 627/1/433 617/1/680
f 628/1/434 626/1/429 619/1/672
f 628/1/434 619/1/672 620/1/675
f 624/1/292 623/1/292 629/1/60
f 624/1/292 629/1/60 630/1/60
f 624/1/427 630/1/435 631/1/436
f 624/1/427 631/1/436 625/1/428
f 632/1/437 629/1/438 623/1/430
f 632/1/437 623/1/430 626/1/429
f 631/1/52 632/1/52 634/1/52
f 631/1/52 634/1/52 633/1/52
f 627/1/59 633/1/65 634/1/65
f 627/1/59 634/1/65 628/1/59
f 625/1/428 631/1/436 633/1/439
f 625/1/428 633/1/439 627/1/433
f 634/1/425 632/1/437 626/1/429
f 634/1/425 626/1/429 628/1/434
f 631/1/58 635/1/59 636/1/59
f 631/1/58 636/1/59 632/1/58
f 630/1/60 629/1/60 637/1/28
f 630/1/60 637/1/28 638/1/28
f 630/1/435 638/1/684 635/1/684
f 630/1/435 635/1/684 631/1/436
f 636/1/642 637/1/642 629/1/438
f 636/1/642 629/1/438 632/1/437
f 639/1/12 640/1/12 641/1/12
f 639/1/12 641/1/12 642/1/12
f 635/1/59 639/1/65 642/1/65
f 635/1/59 642/1/65 636/1/59
f 638/1/28 637/1/28 641/1/40
f 638/1/28 641/1/40 640/1/40
f 638/1/684 640/1/66 639/1/66
f 638/1/684 639/1/66 635/1/684
f 642/1/67 641/1/67 637/1/642
f 642/1/67 637/1/642 636/1/642
f 644/2/11 645/2/11 646/2/1
f 644/2/11 646/2/1 643/2/1
f 647/2/685 648/2/686 649/2/686
f 647/2/685 649/2/686 650/2/685
f 645/2/60 644/2/60 649/2/60
f 645/2/60 649/2/60 648/2/60
f 646/2/687 645/2/688 648/2/688
f 646/2/687 648/2/688 647/2/687
f 649/2/690 644/2/690 643/2/689
f 649/2/690 643/2/689 650/2/689
f 651/3/21 643/3/1 646/3/1
f 651/3/21 646/3/1 652/3/21
f 653/3/22 647/3/685 650/3/685
f 653/3/22 650/3/685 654/3/22
f 651/3/2 652/3/2 653/3/23
f 651/3/2 653/3/23 654/3/23
f 652/3/24 646/3/687 647/3/687
f 652/3/24 647/3/687 653/3/691
f 650/3/689 643/3/689 651/3/27
f 650/3/689 651/3/27 654/3/692
f 655/2/23 654/2/23 653/2/23
f 655/2/23 653/2/23 656/2/23
f 657/2/304 658/2/304 659/2/304
f 657/2/304 659/2/304 660/2/304
f 655/2/23 656/2/23 657/2/23
f 655/2/23 657/2/23 660/2/23
f 653/2/39 654/2/39 659/2/304
f 653/2/39 659/2/304 658/2/304
f 656/2/53 653/2/691 658/2/53
f 656/2/53 658/2/53 657/2/693
f 659/2/55 654/2/692 655/2/55
f 659/2/55 655/2/55 660/2/694
f 662/1/11 663/1/11 664/1/1
f 662/1/11 664/1/1 661/1/1
f 662/1/3 665/1/695 666/1/695
f 662/1/3 666/1/695 663/1/3
f 663/1/697 666/1/698 667/1/699
f 663/1/697 667/1/699 664/1/696
f 668/1/700 665/1/701 662/1/702
f 668/1/700 662/1/702 661/1/703
f 669/1/21 661/1/1 664/1/1
f 669/1/21 664/1/1 670/1/21
f 667/1/33 668/1/33 672/1/52
f 667/1/33 672/1/52 671/1/52
f 669/1/38 670/1/38 671/1/38
f 669/1/38 671/1/38 672/1/38
f 664/1/696 667/1/699 671/1/704
f 664/1/696 671/1/704 670/1/704
f 672/1/705 668/1/700 661/1/703
f 672/1/705 661/1/703 669/1/705
f 673/1/37 660/1/23 657/1/23
f 673/1/37 657/1/23 674/1/37
f 675/1/12 676/1/12 677/1/12
f 675/1/12 677/1/12 678/1/12
f 673/1/38 674/1/38 675/1/38
f 673/1/38 675/1/38 678/1/38
f 657/1/304 660/1/304 677/1/39
f 657/1/304 677/1/39 676/1/39
f 674/1/35 657/1/693 676/1/35
f 674/1/35 676/1/35 675/1/35
f 677/1/36 660/1/694 673/1/36
f 677/1/36 673/1/36 678/1/36
f 679/2/1 680/2/1 681/2/1
f 679/2/1 681/2/1 682/2/1
f 679/2/2 682/2/2 683/2/2
f 679/2/2 683/2/2 684/2/2
f 680/2/3 685/2/4 686/2/4
f 680/2/3 686/2/4 681/2/3
f 682/2/5 681/2/5 686/2/706
f 682/2/5 686/2/706 683/2/707
f 685/2/709 680/2/10 679/2/10
f 685/2/709 679/2/10 684/2/708
f 688/2/52 689/2/52 690/2/33
f 688/2/52 690/2/33 687/2/33
f 667/2/33 687/2/33 690/2/33
f 667/2/33 690/2/33 668/2/33
f 665/2/695 689/2/345 688/2/345
f 665/2/695 688/2/345 666/2/695
f 666/2/698 688/2/710 687/2/283
f 666/2/698 687/2/283 667/2/699
f 690/2/284 689/2/711 665/2/701
f 690/2/284 665/2/701 668/2/700
f 686/3/4 685/3/4 691/3/60
f 686/3/4 691/3/60 692/3/60
f 683/3/707 686/3/706 692/3/478
f 683/3/707 692/3/478 693/3/712
f 691/3/481 685/3/709 684/3/708
f 691/3/481 684/3/708 694/3/713
f 689/3/1 684/3/1 683/3/1
f 689/3/1 683/3/1 688/3/1
f 688/3/58 695/3/59 696/3/59
f 688/3/58 696/3/59 689/3/58
f 683/3/707 693/3/712 695/3/714
f 683/3/707 695/3/714 688/3/710
f 696/3/715 694/3/713 684/3/708
f 696/3/715 684/3/708 689/3/711
f 692/4/60 691/4/60 697/4/60
f 692/4/60 697/4/60 698/4/60
f 692/4/478 698/4/350 699/4/484
f 692/4/478 699/4/484 693/4/712
f 700/4/485 697/4/353 691/4/481
f 700/4/485 691/4/481 694/4/713
f 699/3/52 700/3/52 702/3/52
f 699/3/52 702/3/52 701/3/52
f 695/3/59 701/3/65 702/3/65
f 695/3/59 702/3/65 696/3/59
f 693/3/712 699/3/484 701/3/439
f 693/3/712 701/3/439 695/3/714
f 702/3/425 700/3/485 694/3/713
f 702/3/425 694/3/713 696/3/715
f 700/4/38 699/4/38 703/4/38
f 700/4/38 703/4/38 704/4/38
f 698/4/60 697/4/60 705/4/60
f 698/4/60 705/4/60 706/4/60
f 699/4/484 698/4/350 706/4/358
f 699/4/484 706/4/358 703/4/716
f 704/4/717 705/4/361 697/4/353
f 704/4/717 697/4/353 700/4/485
f 706/4/60 705/4/60 707/4/335
f 706/4/60 707/4/335 708/4/335
f 703/4/716 706/4/358 708/4/718
f 703/4/716 708/4/718 709/4/719
f 707/4/721 705/4/361 704/4/717
f 707/4/721 704/4/717 710/4/720
f 711/4/23 704/4/37 703/4/37
f 711/4/23 703/4/37 712/4/23
f 711/4/23 712/4/23 713/4/23
f 711/4/23 713/4/23 714/4/23
f 712/4/450 703/4/716 709/4/719
f 712/4/450 709/4/719 713/4/722
f 710/4/720 704/4/717 711/4/453
f 710/4/720 711/4/453 714/4/723
f 707/4/335 715/4/345 716/4/345
f 707/4/335 716/4/345 708/4/335
f 708/4/718 716/4/724 717/4/725
f 708/4/718 717/4/725 709/4/719
f 718/4/726 715/4/727 707/4/721
f 718/4/726 707/4/721 710/4/720
f 709/3/719 717/3/725 719/3/728
f 709/3/719 719/3/728 713/3/722
f 720/3/729 718/3/726 710/3/720
f 720/3/729 710/3/720 714/3/723
f 721/2/23 714/2/23 713/2/23
f 721/2/23 713/2/23 722/2/23
f 721/2/23 722/2/23 723/2/23
f 721/2/23 723/2/23 724/2/23
f 722/2/450 713/2/722 719/2/728
f 722/2/450 719/2/728 723/2/730
f 720/2/729 714/2/723 721/2/453
f 720/2/729 721/2/453 724/2/731
f 725/3/57 726/3/57 716/3/57
f 725/3/57 716/3/57 715/3/57
f 727/3/321 728/3/321 729/3/321
f 727/3/321 729/3/321 730/3/321
f 726/3/60 725/3/60 729/3/60
f 726/3/60 729/3/60 728/3/60
f 716/3/724 726/3/732 728/3/732
f 716/3/724 728/3/732 727/3/733
f 729/3/735 725/3/735 715/3/727
f 729/3/735 715/3/727 730/3/734
f 716/3/724 727/3/733 731/3/736
f 716/3/724 731/3/736 717/3/725
f 732/3/737 730/3/734 715/3/727
f 732/3/737 715/3/727 718/3/726
f 731/2/13 732/2/13 734/2/12
f 731/2/13 734/2/12 733/2/12
f 717/2/725 731/2/736 733/2/738
f 717/2/725 733/2/738 719/2/728
f 734/2/739 732/2/737 718/2/726
f 734/2/739 718/2/726 720/2/729
f 735/1/22 733/1/12 734/1/12
f 735/1/22 734/1/12 736/1/22
f 723/1/730 719/1/728 733/1/738
f 723/1/730 733/1/738 735/1/740
f 734/1/739 720/1/729 724/1/731
f 734/1/739 724/1/731 736/1/741
f 737/1/37 724/1/23 723/1/23
f 737/1/37 723/1/23 738/1/37
f 737/1/68 738/1/68 739/1/38
f 737/1/68 739/1/38 740/1/38
f 738/1/317 723/1/730 735/1/740
f 738/1/317 735/1/740 739/1/742
f 736/1/741 724/1/731 737/1/320
f 736/1/741 737/1/320 740/1/743
f 731/2/58 741/2/440 742/2/440
f 731/2/58 742/2/440 732/2/58
f 727/2/60 730/2/60 743/2/60
f 727/2/60 743/2/60 744/2/60
f 727/2/733 744/2/744 741/2/745
f 727/2/733 741/2/745 731/2/736
f 742/2/746 743/2/747 730/2/734
f 742/2/746 730/2/734 732/2/737
f 745/1/12 746/1/12 747/1/12
f 745/1/12 747/1/12 748/1/12
f 739/1/38 745/1/65 748/1/65
f 739/1/38 748/1/65 740/1/38
f 735/1/39 736/1/39 747/1/39
f 735/1/39 747/1/39 746/1/39
f 739/1/742 735/1/740 746/1/748
f 739/1/742 746/1/748 745/1/748
f 747/1/749 736/1/741 740/1/743
f 747/1/749 740/1/743 748/1/749
f 749/1/57 750/1/57 744/1/57
f 749/1/57 744/1/57 743/1/57
f 749/1/3 751/1/60 752/1/60
f 749/1/3 752/1/60 750/1/3
f 750/1/128 752/1/750 753/1/751
f 750/1/128 753/1/751 744/1/744
f 754/1/752 751/1/753 749/1/342
f 754/1/752 749/1/342 743/1/747
f 742/1/440 741/1/440 755/1/38
f 742/1/440 755/1/38 756/1/38
f 744/1/744 753/1/751 755/1/754
f 744/1/744 755/1/754 741/1/745
f 756/1/755 754/1/752 743/1/747
f 756/1/755 743/1/747 742/1/746
f 757/2/321 758/2/321 759/2/321
f 757/2/321 759/2/321 760/2/321
f 752/2/60 751/2/60 759/2/40
f 752/2/60 759/2/40 758/2/40
f 753/2/751 752/2/750 758/2/464
f 753/2/751 758/2/464 757/2/756
f 759/2/467 751/2/753 754/2/752
f 759/2/467 754/2/752 760/2/757
f 756/1/38 755/1/38 761/1/334
f 756/1/38 761/1/334 762/1/334
f 755/1/754 753/1/751 757/1/756
f 755/1/754 757/1/756 761/1/758
f 760/1/757 754/1/752 756/1/755
f 760/1/757 756/1/755 762/1/759
f 764/1/52 765/1/52 766/1/52
f 764/1/52 766/1/52 763/1/52
f 761/1/334 763/1/65 766/1/65
f 761/1/334 766/1/65 762/1/334
f 757/1/60 760/1/60 765/1/60
f 757/1/60 765/1/60 764/1/60
f 757/1/756 764/1/53 763/1/470
f 757/1/756 763/1/470 761/1/758
f 766/1/471 765/1/55 760/1/757
f 766/1/471 760/1/757 762/1/759
f 767/1/57 768/1/57 764/1/57
f 767/1/57 764/1/57 765/1/57
f 765/1/38 764/1/38 769/1/38
f 765/1/38 769/1/38 770/1/38
f 767/1/3 771/1/60 772/1/60
f 767/1/3 772/1/60 768/1/3
f 768/1/472 772/1/760 769/1/761
f 768/1/472 769/1/761 764/1/53
f 770/1/762 771/1/763 767/1/477
f 770/1/762 767/1/477 765/1/55
f 773/1/304 774/1/321 775/1/321
f 773/1/304 775/1/321 776/1/304
f 772/1/60 771/1/60 775/1/40
f 772/1/60 775/1/40 774/1/40
f 769/1/761 772/1/760 774/1/764
f 769/1/761 774/1/764 773/1/765
f 775/1/767 771/1/763 770/1/762
f 775/1/767 770/1/762 776/1/766
f 777/1/37 770/1/37 769/1/37
f 777/1/37 769/1/37 778/1/37
f 777/1/68 778/1/68 779/1/38
f 777/1/68 779/1/38 780/1/38
f 778/1/317 769/1/761 773/1/765
f 778/1/317 773/1/765 779/1/742
f 776/1/766 770/1/762 777/1/320
f 776/1/766 777/1/320 780/1/743
f 781/1/12 782/1/12 783/1/12
f 781/1/12 783/1/12 784/1/12
f 779/1/38 781/1/65 784/1/65
f 779/1/38 784/1/65 780/1/38
f 773/1/304 776/1/304 783/1/39
f 773/1/304 783/1/39 782/1/39
f 779/1/742 773/1/765 782/1/748
f 779/1/742 782/1/748 781/1/748
f 783/1/749 776/1/766 780/1/743
f 783/1/749 780/1/743 784/1/749

