# generated by vox_to_obj_exporter
# scale=0.1 center=false ground=false y_up=true

mtllib Fight_010.mtl
usemtl palette

# normals
vn -1 0 0
vn 1 0 0
vn 0 1 0
vn 0 -1 0
vn 0 0 1
vn 0 0 -1

# texcoords
vt 0.185546875 0.5

# verts
v 3.7 12.7 -2.6
v 3.7 12.6 -2.6
v 3.7 12.6 -2.5
v 3.7 12.7 -2.5
v 3.8 12.7 -2.5
v 3.8 12.6 -2.5
v 3.8 12.6 -2.6
v 3.8 12.7 -2.6
v 3.7 12.7 -2.6
v 3.7 12.7 -2.5
v 3.8 12.7 -2.5
v 3.8 12.7 -2.6
v 3.7 12.7 -2.5
v 3.7 12.6 -2.5
v 3.8 12.6 -2.5
v 3.8 12.7 -2.5
v 3.8 12.7 -2.6
v 3.8 12.6 -2.6
v 3.7 12.6 -2.6
v 3.7 12.7 -2.6
v 3.4 12.6 -2.6
v 3.4 12.5 -2.6
v 3.4 12.5 -2.5
v 3.4 12.6 -2.5
v 3.5 12.6 -2.5
v 3.5 12.5 -2.5
v 3.5 12.5 -2.6
v 3.5 12.6 -2.6
v 3.4 12.6 -2.6
v 3.4 12.6 -2.5
v 3.5 12.6 -2.5
v 3.5 12.6 -2.6
v 3.4 12.5 -2.5
v 3.4 12.5 -2.6
v 3.5 12.5 -2.6
v 3.5 12.5 -2.5
v 3.4 12.6 -2.5
v 3.4 12.5 -2.5
v 3.5 12.5 -2.5
v 3.5 12.6 -2.5
v 3.5 12.6 -2.6
v 3.5 12.5 -2.6
v 3.4 12.5 -2.6
v 3.4 12.6 -2.6
v 3.7 12.6 -2.6
v 3.7 12.5 -2.6
v 3.7 12.5 -2.5
v 3.7 12.6 -2.5
v 3.7 12.5 -2.5
v 3.7 12.5 -2.6
v 3.8 12.5 -2.6
v 3.8 12.5 -2.5
v 3.7 12.6 -2.5
v 3.7 12.5 -2.5
v 3.8 12.5 -2.5
v 3.8 12.6 -2.5
v 3.8 12.6 -2.6
v 3.8 12.5 -2.6
v 3.7 12.5 -2.6
v 3.7 12.6 -2.6
v 3.8 12.6 -2.6
v 3.8 12.6 -2.5
v 3.9 12.6 -2.5
v 3.9 12.6 -2.6
v 3.8 12.5 -2.5
v 3.8 12.5 -2.6
v 3.9 12.5 -2.6
v 3.9 12.5 -2.5
v 3.8 12.6 -2.5
v 3.8 12.5 -2.5
v 3.9 12.5 -2.5
v 3.9 12.6 -2.5
v 3.9 12.6 -2.6
v 3.9 12.5 -2.6
v 3.8 12.5 -2.6
v 3.8 12.6 -2.6
v 3.9 12.6 -2.6
v 3.9 12.6 -2.5
v 4 12.6 -2.5
v 4 12.6 -2.6
v 3.9 12.6 -2.5
v 3.9 12.5 -2.5
v 4 12.5 -2.5
v 4 12.6 -2.5
v 4 12.6 -2.6
v 4 12.5 -2.6
v 3.9 12.5 -2.6
v 3.9 12.6 -2.6
v 4 12.6 -2.6
v 4 12.6 -2.5
v 4.1 12.6 -2.5
v 4.1 12.6 -2.6
v 4 12.6 -2.5
v 4 12.5 -2.5
v 4.1 12.5 -2.5
v 4.1 12.6 -2.5
v 4.1 12.6 -2.6
v 4.1 12.5 -2.6
v 4 12.5 -2.6
v 4 12.6 -2.6
v 4.1 12.6 -2.6
v 4.1 12.6 -2.5
v 4.2 12.6 -2.5
v 4.2 12.6 -2.6
v 4.1 12.6 -2.5
v 4.1 12.5 -2.5
v 4.2 12.5 -2.5
v 4.2 12.6 -2.5
v 4.2 12.6 -2.6
v 4.2 12.5 -2.6
v 4.1 12.5 -2.6
v 4.1 12.6 -2.6
v 4.3 12.6 -2.5
v 4.3 12.5 -2.5
v 4.3 12.5 -2.6
v 4.3 12.6 -2.6
v 4.2 12.6 -2.6
v 4.2 12.6 -2.5
v 4.3 12.6 -2.5
v 4.3 12.6 -2.6
v 4.2 12.6 -2.5
v 4.2 12.5 -2.5
v 4.3 12.5 -2.5
v 4.3 12.6 -2.5
v 4.3 12.6 -2.6
v 4.3 12.5 -2.6
v 4.2 12.5 -2.6
v 4.2 12.6 -2.6
v 3.9 12.5 -2.6
v 3.9 12.4 -2.6
v 3.9 12.4 -2.5
v 3.9 12.5 -2.5
v 3.9 12.4 -2.5
v 3.9 12.4 -2.6
v 4 12.4 -2.6
v 4 12.4 -2.5
v 3.9 12.5 -2.5
v 3.9 12.4 -2.5
v 4 12.4 -2.5
v 4 12.5 -2.5
v 4 12.5 -2.6
v 4 12.4 -2.6
v 3.9 12.4 -2.6
v 3.9 12.5 -2.6
v 4 12.5 -2.5
v 4 12.4 -2.5
v 4.1 12.4 -2.5
v 4.1 12.5 -2.5
v 4.1 12.5 -2.6
v 4.1 12.4 -2.6
v 4 12.4 -2.6
v 4 12.5 -2.6
v 4.1 12.5 -2.5
v 4.1 12.4 -2.5
v 4.2 12.4 -2.5
v 4.2 12.5 -2.5
v 4.2 12.5 -2.6
v 4.2 12.4 -2.6
v 4.1 12.4 -2.6
v 4.1 12.5 -2.6
v 4.2 12.5 -2.5
v 4.2 12.4 -2.5
v 4.3 12.4 -2.5
v 4.3 12.5 -2.5
v 4.3 12.5 -2.6
v 4.3 12.4 -2.6
v 4.2 12.4 -2.6
v 4.2 12.5 -2.6
v 4.3 12.5 -2.6
v 4.3 12.5 -2.5
v 4.4 12.5 -2.5
v 4.4 12.5 -2.6
v 4.3 12.5 -2.5
v 4.3 12.4 -2.5
v 4.4 12.4 -2.5
v 4.4 12.5 -2.5
v 4.4 12.5 -2.6
v 4.4 12.4 -2.6
v 4.3 12.4 -2.6
v 4.3 12.5 -2.6
v 4.4 12.5 -2.6
v 4.4 12.5 -2.5
v 4.5 12.5 -2.5
v 4.5 12.5 -2.6
v 4.4 12.5 -2.5
v 4.4 12.4 -2.5
v 4.5 12.4 -2.5
v 4.5 12.5 -2.5
v 4.5 12.5 -2.6
v 4.5 12.4 -2.6
v 4.4 12.4 -2.6
v 4.4 12.5 -2.6
v 4.5 12.5 -2.6
v 4.5 12.5 -2.5
v 4.6 12.5 -2.5
v 4.6 12.5 -2.6
v 4.5 12.5 -2.5
v 4.5 12.4 -2.5
v 4.6 12.4 -2.5
v 4.6 12.5 -2.5
v 4.6 12.5 -2.6
v 4.6 12.4 -2.6
v 4.5 12.4 -2.6
v 4.5 12.5 -2.6
v 4.7 12.5 -2.5
v 4.7 12.4 -2.5
v 4.7 12.4 -2.6
v 4.7 12.5 -2.6
v 4.6 12.5 -2.6
v 4.6 12.5 -2.5
v 4.7 12.5 -2.5
v 4.7 12.5 -2.6
v 4.6 12.5 -2.5
v 4.6 12.4 -2.5
v 4.7 12.4 -2.5
v 4.7 12.5 -2.5
v 4.7 12.5 -2.6
v 4.7 12.4 -2.6
v 4.6 12.4 -2.6
v 4.6 12.5 -2.6
v 4 12.4 -2.6
v 4 12.3 -2.6
v 4 12.3 -2.5
v 4 12.4 -2.5
v 4 12.3 -2.5
v 4 12.3 -2.6
v 4.1 12.3 -2.6
v 4.1 12.3 -2.5
v 4 12.4 -2.5
v 4 12.3 -2.5
v 4.1 12.3 -2.5
v 4.1 12.4 -2.5
v 4.1 12.4 -2.6
v 4.1 12.3 -2.6
v 4 12.3 -2.6
v 4 12.4 -2.6
v 4.1 12.4 -2.5
v 4.1 12.3 -2.5
v 4.2 12.3 -2.5
v 4.2 12.4 -2.5
v 4.2 12.4 -2.6
v 4.2 12.3 -2.6
v 4.1 12.3 -2.6
v 4.1 12.4 -2.6
v 4.2 12.4 -2.5
v 4.2 12.3 -2.5
v 4.3 12.3 -2.5
v 4.3 12.4 -2.5
v 4.3 12.4 -2.6
v 4.3 12.3 -2.6
v 4.2 12.3 -2.6
v 4.2 12.4 -2.6
v 4.3 12.4 -2.5
v 4.3 12.3 -2.5
v 4.4 12.3 -2.5
v 4.4 12.4 -2.5
v 4.4 12.4 -2.6
v 4.4 12.3 -2.6
v 4.3 12.3 -2.6
v 4.3 12.4 -2.6
v 4.4 12.4 -2.5
v 4.4 12.3 -2.5
v 4.5 12.3 -2.5
v 4.5 12.4 -2.5
v 4.5 12.4 -2.6
v 4.5 12.3 -2.6
v 4.4 12.3 -2.6
v 4.4 12.4 -2.6
v 4.5 12.4 -2.5
v 4.5 12.3 -2.5
v 4.6 12.3 -2.5
v 4.6 12.4 -2.5
v 4.6 12.4 -2.6
v 4.6 12.3 -2.6
v 4.5 12.3 -2.6
v 4.5 12.4 -2.6
v 4.6 12.4 -2.5
v 4.6 12.3 -2.5
v 4.7 12.3 -2.5
v 4.7 12.4 -2.5
v 4.7 12.4 -2.6
v 4.7 12.3 -2.6
v 4.6 12.3 -2.6
v 4.6 12.4 -2.6
v 4.7 12.4 -2.6
v 4.7 12.4 -2.5
v 4.8 12.4 -2.5
v 4.8 12.4 -2.6
v 4.7 12.3 -2.5
v 4.7 12.3 -2.6
v 4.8 12.3 -2.6
v 4.8 12.3 -2.5
v 4.7 12.4 -2.5
v 4.7 12.3 -2.5
v 4.8 12.3 -2.5
v 4.8 12.4 -2.5
v 4.8 12.4 -2.6
v 4.8 12.3 -2.6
v 4.7 12.3 -2.6
v 4.7 12.4 -2.6
v 4.8 12.4 -2.6
v 4.8 12.4 -2.5
v 4.9 12.4 -2.5
v 4.9 12.4 -2.6
v 4.8 12.3 -2.5
v 4.8 12.3 -2.6
v 4.9 12.3 -2.6
v 4.9 12.3 -2.5
v 4.8 12.4 -2.5
v 4.8 12.3 -2.5
v 4.9 12.3 -2.5
v 4.9 12.4 -2.5
v 4.9 12.4 -2.6
v 4.9 12.3 -2.6
v 4.8 12.3 -2.6
v 4.8 12.4 -2.6
v 4.9 12.4 -2.6
v 4.9 12.4 -2.5
v 5 12.4 -2.5
v 5 12.4 -2.6
v 4.9 12.3 -2.5
v 4.9 12.3 -2.6
v 5 12.3 -2.6
v 5 12.3 -2.5
v 4.9 12.4 -2.5
v 4.9 12.3 -2.5
v 5 12.3 -2.5
v 5 12.4 -2.5
v 5 12.4 -2.6
v 5 12.3 -2.6
v 4.9 12.3 -2.6
v 4.9 12.4 -2.6
v 5 12.4 -2.6
v 5 12.4 -2.5
v 5.1 12.4 -2.5
v 5.1 12.4 -2.6
v 5 12.3 -2.5
v 5 12.3 -2.6
v 5.1 12.3 -2.6
v 5.1 12.3 -2.5
v 5 12.4 -2.5
v 5 12.3 -2.5
v 5.1 12.3 -2.5
v 5.1 12.4 -2.5
v 5.1 12.4 -2.6
v 5.1 12.3 -2.6
v 5 12.3 -2.6
v 5 12.4 -2.6
v 5.2 12.4 -2.5
v 5.2 12.3 -2.5
v 5.2 12.3 -2.6
v 5.2 12.4 -2.6
v 5.1 12.4 -2.6
v 5.1 12.4 -2.5
v 5.2 12.4 -2.5
v 5.2 12.4 -2.6
v 5.1 12.3 -2.5
v 5.1 12.3 -2.6
v 5.2 12.3 -2.6
v 5.2 12.3 -2.5
v 5.1 12.4 -2.5
v 5.1 12.3 -2.5
v 5.2 12.3 -2.5
v 5.2 12.4 -2.5
v 5.2 12.4 -2.6
v 5.2 12.3 -2.6
v 5.1 12.3 -2.6
v 5.1 12.4 -2.6
v 4.1 12.3 -2.6
v 4.1 12.2 -2.6
v 4.1 12.2 -2.5
v 4.1 12.3 -2.5
v 4.1 12.3 -2.5
v 4.1 12.2 -2.5
v 4.2 12.2 -2.5
v 4.2 12.3 -2.5
v 4.2 12.3 -2.6
v 4.2 12.2 -2.6
v 4.1 12.2 -2.6
v 4.1 12.3 -2.6
v 4.2 12.3 -2.5
v 4.2 12.2 -2.5
v 4.3 12.2 -2.5
v 4.3 12.3 -2.5
v 4.3 12.3 -2.6
v 4.3 12.2 -2.6
v 4.2 12.2 -2.6
v 4.2 12.3 -2.6
v 4.3 12.3 -2.5
v 4.3 12.2 -2.5
v 4.4 12.2 -2.5
v 4.4 12.3 -2.5
v 4.4 12.3 -2.6
v 4.4 12.2 -2.6
v 4.3 12.2 -2.6
v 4.3 12.3 -2.6
v 4.4 12.3 -2.5
v 4.4 12.2 -2.5
v 4.5 12.2 -2.5
v 4.5 12.3 -2.5
v 4.5 12.3 -2.6
v 4.5 12.2 -2.6
v 4.4 12.2 -2.6
v 4.4 12.3 -2.6
v 4.5 12.3 -2.5
v 4.5 12.2 -2.5
v 4.6 12.2 -2.5
v 4.6 12.3 -2.5
v 4.6 12.3 -2.6
v 4.6 12.2 -2.6
v 4.5 12.2 -2.6
v 4.5 12.3 -2.6
v 4.7 12.3 -2.5
v 4.7 12.2 -2.5
v 4.7 12.2 -2.6
v 4.7 12.3 -2.6
v 4.6 12.2 -2.5
v 4.6 12.2 -2.6
v 4.7 12.2 -2.6
v 4.7 12.2 -2.5
v 4.6 12.3 -2.5
v 4.6 12.2 -2.5
v 4.7 12.2 -2.5
v 4.7 12.3 -2.5
v 4.7 12.3 -2.6
v 4.7 12.2 -2.6
v 4.6 12.2 -2.6
v 4.6 12.3 -2.6
v 4.1 12.2 -2.6
v 4.1 12.1 -2.6
v 4.1 12.1 -2.5
v 4.1 12.2 -2.5
v 4.1 12.1 -2.5
v 4.1 12.1 -2.6
v 4.2 12.1 -2.6
v 4.2 12.1 -2.5
v 4.1 12.2 -2.5
v 4.1 12.1 -2.5
v 4.2 12.1 -2.5
v 4.2 12.2 -2.5
v 4.2 12.2 -2.6
v 4.2 12.1 -2.6
v 4.1 12.1 -2.6
v 4.1 12.2 -2.6
v 4.2 12.2 -2.5
v 4.2 12.1 -2.5
v 4.3 12.1 -2.5
v 4.3 12.2 -2.5
v 4.3 12.2 -2.6
v 4.3 12.1 -2.6
v 4.2 12.1 -2.6
v 4.2 12.2 -2.6
v 4.3 12.2 -2.5
v 4.3 12.1 -2.5
v 4.4 12.1 -2.5
v 4.4 12.2 -2.5
v 4.4 12.2 -2.6
v 4.4 12.1 -2.6
v 4.3 12.1 -2.6
v 4.3 12.2 -2.6
v 4.4 12.2 -2.5
v 4.4 12.1 -2.5
v 4.5 12.1 -2.5
v 4.5 12.2 -2.5
v 4.5 12.2 -2.6
v 4.5 12.1 -2.6
v 4.4 12.1 -2.6
v 4.4 12.2 -2.6
v 4.6 12.2 -2.5
v 4.6 12.1 -2.5
v 4.6 12.1 -2.6
v 4.6 12.2 -2.6
v 4.5 12.2 -2.5
v 4.5 12.1 -2.5
v 4.6 12.1 -2.5
v 4.6 12.2 -2.5
v 4.6 12.2 -2.6
v 4.6 12.1 -2.6
v 4.5 12.1 -2.6
v 4.5 12.2 -2.6
v 4.2 12.1 -2.6
v 4.2 12 -2.6
v 4.2 12 -2.5
v 4.2 12.1 -2.5
v 4.2 12.1 -2.5
v 4.2 12 -2.5
v 4.3 12 -2.5
v 4.3 12.1 -2.5
v 4.3 12.1 -2.6
v 4.3 12 -2.6
v 4.2 12 -2.6
v 4.2 12.1 -2.6
v 4.3 12 -2.5
v 4.3 12 -2.6
v 4.4 12 -2.6
v 4.4 12 -2.5
v 4.3 12.1 -2.5
v 4.3 12 -2.5
v 4.4 12 -2.5
v 4.4 12.1 -2.5
v 4.4 12.1 -2.6
v 4.4 12 -2.6
v 4.3 12 -2.6
v 4.3 12.1 -2.6
v 4.4 12 -2.5
v 4.4 12 -2.6
v 4.5 12 -2.6
v 4.5 12 -2.5
v 4.4 12.1 -2.5
v 4.4 12 -2.5
v 4.5 12 -2.5
v 4.5 12.1 -2.5
v 4.5 12.1 -2.6
v 4.5 12 -2.6
v 4.4 12 -2.6
v 4.4 12.1 -2.6
v 4.5 12 -2.5
v 4.5 12 -2.6
v 4.6 12 -2.6
v 4.6 12 -2.5
v 4.5 12.1 -2.5
v 4.5 12 -2.5
v 4.6 12 -2.5
v 4.6 12.1 -2.5
v 4.6 12.1 -2.6
v 4.6 12 -2.6
v 4.5 12 -2.6
v 4.5 12.1 -2.6
v 4.7 12.1 -2.5
v 4.7 12 -2.5
v 4.7 12 -2.6
v 4.7 12.1 -2.6
v 4.6 12.1 -2.6
v 4.6 12.1 -2.5
v 4.7 12.1 -2.5
v 4.7 12.1 -2.6
v 4.6 12 -2.5
v 4.6 12 -2.6
v 4.7 12 -2.6
v 4.7 12 -2.5
v 4.6 12.1 -2.5
v 4.6 12 -2.5
v 4.7 12 -2.5
v 4.7 12.1 -2.5
v 4.7 12.1 -2.6
v 4.7 12 -2.6
v 4.6 12 -2.6
v 4.6 12.1 -2.6
v 4.2 12 -2.6
v 4.2 11.9 -2.6
v 4.2 11.9 -2.5
v 4.2 12 -2.5
v 4.3 12 -2.5
v 4.3 11.9 -2.5
v 4.3 11.9 -2.6
v 4.3 12 -2.6
v 4.2 11.9 -2.5
v 4.2 11.9 -2.6
v 4.3 11.9 -2.6
v 4.3 11.9 -2.5
v 4.2 12 -2.5
v 4.2 11.9 -2.5
v 4.3 11.9 -2.5
v 4.3 12 -2.5
v 4.3 12 -2.6
v 4.3 11.9 -2.6
v 4.2 11.9 -2.6
v 4.2 12 -2.6

# faces
f 1/1/1 2/1/1 3/1/1 4/1/1
f 5/1/2 6/1/2 7/1/2 8/1/2
f 9/1/3 10/1/3 11/1/3 12/1/3
f 13/1/5 14/1/5 15/1/5 16/1/5
f 17/1/6 18/1/6 19/1/6 20/1/6
f 21/1/1 22/1/1 23/1/1 24/1/1
f 25/1/2 26/1/2 27/1/2 28/1/2
f 29/1/3 30/1/3 31/1/3 32/1/3
f 33/1/4 34/1/4 35/1/4 36/1/4
f 37/1/5 38/1/5 39/1/5 40/1/5
f 41/1/6 42/1/6 43/1/6 44/1/6
f 45/1/1 46/1/1 47/1/1 48/1/1
f 49/1/4 50/1/4 51/1/4 52/1/4
f 53/1/5 54/1/5 55/1/5 56/1/5
f 57/1/6 58/1/6 59/1/6 60/1/6
f 61/1/3 62/1/3 63/1/3 64/1/3
f 65/1/4 66/1/4 67/1/4 68/1/4
f 69/1/5 70/1/5 71/1/5 72/1/5
f 73/1/6 74/1/6 75/1/6 76/1/6
f 77/1/3 78/1/3 79/1/3 80/1/3
f 81/1/5 82/1/5 83/1/5 84/1/5
f 85/1/6 86/1/6 87/1/6 88/1/6
f 89/1/3 90/1/3 91/1/3 92/1/3
f 93/1/5 94/1/5 95/1/5 96/1/5
f 97/1/6 98/1/6 99/1/6 100/1/6
f 101/1/3 102/1/3 103/1/3 104/1/3
f 105/1/5 106/1/5 107/1/5 108/1/5
f 109/1/6 110/1/6 111/1/6 112/1/6
f 113/1/2 114/1/2 115/1/2 116/1/2
f 117/1/3 118/1/3 119/1/3 120/1/3
f 121/1/5 122/1/5 123/1/5 124/1/5
f 125/1/6 126/1/6 127/1/6 128/1/6
f 129/1/1 130/1/1 131/1/1 132/1/1
f 133/1/4 134/1/4 135/1/4 136/1/4
f 137/1/5 138/1/5 139/1/5 140/1/5
f 141/1/6 142/1/6 143/1/6 144/1/6
f 145/1/5 146/1/5 147/1/5 148/1/5
f 149/1/6 150/1/6 151/1/6 152/1/6
f 153/1/5 154/1/5 155/1/5 156/1/5
f 157/1/6 158/1/6 159/1/6 160/1/6
f 161/1/5 162/1/5 163/1/5 164/1/5
f 165/1/6 166/1/6 167/1/6 168/1/6
f 169/1/3 170/1/3 171/1/3 172/1/3
f 173/1/5 174/1/5 175/1/5 176/1/5
f 177/1/6 178/1/6 179/1/6 180/1/6
f 181/1/3 182/1/3 183/1/3 184/1/3
f 185/1/5 186/1/5 187/1/5 188/1/5
f 189/1/6 190/1/6 191/1/6 192/1/6
f 193/1/3 194/1/3 195/1/3 196/1/3
f 197/1/5 198/1/5 199/1/5 200/1/5
f 201/1/6 202/1/6 203/1/6 204/1/6
f 205/1/2 206/1/2 207/1/2 208/1/2
f 209/1/3 210/1/3 211/1/3 212/1/3
f 213/1/5 214/1/5 215/1/5 216/1/5
f 217/1/6 218/1/6 219/1/6 220/1/6
f 221/1/1 222/1/1 223/1/1 224/1/1
f 225/1/4 226/1/4 227/1/4 228/1/4
f 229/1/5 230/1/5 231/1/5 232/1/5
f 233/1/6 234/1/6 235/1/6 236/1/6
f 237/1/5 238/1/5 239/1/5 240/1/5
f 241/1/6 242/1/6 243/1/6 244/1/6
f 245/1/5 246/1/5 247/1/5 248/1/5
f 249/1/6 250/1/6 251/1/6 252/1/6
f 253/1/5 254/1/5 255/1/5 256/1/5
f 257/1/6 258/1/6 259/1/6 260/1/6
f 261/1/5 262/1/5 263/1/5 264/1/5
f 265/1/6 266/1/6 267/1/6 268/1/6
f 269/1/5 270/1/5 271/1/5 272/1/5
f 273/1/6 274/1/6 275/1/6 276/1/6
f 277/1/5 278/1/5 279/1/5 280/1/5
f 281/1/6 282/1/6 283/1/6 284/1/6
f 285/1/3 286/1/3 287/1/3 288/1/3
f 289/1/4 290/1/4 291/1/4 292/1/4
f 293/1/5 294/1/5 295/1/5 296/1/5
f 297/1/6 298/1/6 299/1/6 300/1/6
f 301/1/3 302/1/3 303/1/3 304/1/3
f 305/1/4 306/1/4 307/1/4 308/1/4
f 309/1/5 310/1/5 311/1/5 312/1/5
f 313/1/6 314/1/6 315/1/6 316/1/6
f 317/1/3 318/1/3 319/1/3 320/1/3
f 321/1/4 322/1/4 323/1/4 324/1/4
f 325/1/5 326/1/5 327/1/5 328/1/5
f 329/1/6 330/1/6 331/1/6 332/1/6
f 333/1/3 334/1/3 335/1/3 336/1/3
f 337/1/4 338/1/4 339/1/4 340/1/4
f 341/1/5 342/1/5 343/1/5 344/1/5
f 345/1/6 346/1/6 347/1/6 348/1/6
f 349/1/2 350/1/2 351/1/2 352/1/2
f 353/1/3 354/1/3 355/1/3 356/1/3
f 357/1/4 358/1/4 359/1/4 360/1/4
f 361/1/5 362/1/5 363/1/5 364/1/5
f 365/1/6 366/1/6 367/1/6 368/1/6
f 369/1/1 370/1/1 371/1/1 372/1/1
f 373/1/5 374/1/5 375/1/5 376/1/5
f 377/1/6 378/1/6 379/1/6 380/1/6
f 381/1/5 382/1/5 383/1/5 384/1/5
f 385/1/6 386/1/6 387/1/6 388/1/6
f 389/1/5 390/1/5 391/1/5 392/1/5
f 393/1/6 394/1/6 395/1/6 396/1/6
f 397/1/5 398/1/5 399/1/5 400/1/5
f 401/1/6 402/1/6 403/1/6 404/1/6
f 405/1/5 406/1/5 407/1/5 408/1/5
f 409/1/6 410/1/6 411/1/6 412/1/6
f 413/1/2 414/1/2 415/1/2 416/1/2
f 417/1/4 418/1/4 419/1/4 420/1/4
f 421/1/5 422/1/5 423/1/5 424/1/5
f 425/1/6 426/1/6 427/1/6 428/1/6
f 429/1/1 430/1/1 431/1/1 432/1/1
f 433/1/4 434/1/4 435/1/4 436/1/4
f 437/1/5 438/1/5 439/1/5 440/1/5
f 441/1/6 442/1/6 443/1/6 444/1/6
f 445/1/5 446/1/5 447/1/5 448/1/5
f 449/1/6 450/1/6 451/1/6 452/1/6
f 453/1/5 454/1/5 455/1/5 456/1/5
f 457/1/6 458/1/6 459/1/6 460/1/6
f 461/1/5 462/1/5 463/1/5 464/1/5
f 465/1/6 466/1/6 467/1/6 468/1/6
f 469/1/2 470/1/2 471/1/2 472/1/2
f 473/1/5 474/1/5 475/1/5 476/1/5
f 477/1/6 478/1/6 479/1/6 480/1/6
f 481/1/1 482/1/1 483/1/1 484/1/1
f 485/1/5 486/1/5 487/1/5 488/1/5
f 489/1/6 490/1/6 491/1/6 492/1/6
f 493/1/4 494/1/4 495/1/4 496/1/4
f 497/1/5 498/1/5 499/1/5 500/1/5
f 501/1/6 502/1/6 503/1/6 504/1/6
f 505/1/4 506/1/4 507/1/4 508/1/4
f 509/1/5 510/1/5 511/1/5 512/1/5
f 513/1/6 514/1/6 515/1/6 516/1/6
f 517/1/4 518/1/4 519/1/4 520/1/4
f 521/1/5 522/1/5 523/1/5 524/1/5
f 525/1/6 526/1/6 527/1/6 528/1/6
f 529/1/2 530/1/2 531/1/2 532/1/2
f 533/1/3 534/1/3 535/1/3 536/1/3
f 537/1/4 538/1/4 539/1/4 540/1/4
f 541/1/5 542/1/5 543/1/5 544/1/5
f 545/1/6 546/1/6 547/1/6 548/1/6
f 549/1/1 550/1/1 551/1/1 552/1/1
f 553/1/2 554/1/2 555/1/2 556/1/2
f 557/1/4 558/1/4 559/1/4 560/1/4
f 561/1/5 562/1/5 563/1/5 564/1/5
f 565/1/6 566/1/6 567/1/6 568/1/6

