# generated by vox_to_obj_exporter
# scale=0.1 center=false ground=false y_up=true

mtllib Fight_026.mtl
usemtl palette

# normals
vn -1 0 0
vn 1 0 0
vn 0 1 0
vn 0 -1 0
vn 0 0 1
vn 0 0 -1

# texcoords
vt 0.236328125 0.5

# verts
v 9.9 12.6 -2.6
v 9.9 12.5 -2.6
v 9.9 12.5 -2.5
v 9.9 12.6 -2.5
v 9.9 12.6 -2.6
v 9.9 12.6 -2.5
v 10 12.6 -2.5
v 10 12.6 -2.6
v 9.9 12.5 -2.5
v 9.9 12.5 -2.6
v 10 12.5 -2.6
v 10 12.5 -2.5
v 9.9 12.6 -2.5
v 9.9 12.5 -2.5
v 10 12.5 -2.5
v 10 12.6 -2.5
v 10 12.6 -2.6
v 10 12.5 -2.6
v 9.9 12.5 -2.6
v 9.9 12.6 -2.6
v 10 12.6 -2.6
v 10 12.6 -2.5
v 10.1 12.6 -2.5
v 10.1 12.6 -2.6
v 10 12.5 -2.5
v 10 12.5 -2.6
v 10.1 12.5 -2.6
v 10.1 12.5 -2.5
v 10 12.6 -2.5
v 10 12.5 -2.5
v 10.1 12.5 -2.5
v 10.1 12.6 -2.5
v 10.1 12.6 -2.6
v 10.1 12.5 -2.6
v 10 12.5 -2.6
v 10 12.6 -2.6
v 10.1 12.6 -2.6
v 10.1 12.6 -2.5
v 10.2 12.6 -2.5
v 10.2 12.6 -2.6
v 10.1 12.5 -2.5
v 10.1 12.5 -2.6
v 10.2 12.5 -2.6
v 10.2 12.5 -2.5
v 10.1 12.6 -2.5
v 10.1 12.5 -2.5
v 10.2 12.5 -2.5
v 10.2 12.6 -2.5
v 10.2 12.6 -2.6
v 10.2 12.5 -2.6
v 10.1 12.5 -2.6
v 10.1 12.6 -2.6
v 10.2 12.6 -2.6
v 10.2 12.6 -2.5
v 10.3 12.6 -2.5
v 10.3 12.6 -2.6
v 10.2 12.5 -2.5
v 10.2 12.5 -2.6
v 10.3 12.5 -2.6
v 10.3 12.5 -2.5
v 10.2 12.6 -2.5
v 10.2 12.5 -2.5
v 10.3 12.5 -2.5
v 10.3 12.6 -2.5
v 10.3 12.6 -2.6
v 10.3 12.5 -2.6
v 10.2 12.5 -2.6
v 10.2 12.6 -2.6
v 10.3 12.6 -2.6
v 10.3 12.6 -2.5
v 10.4 12.6 -2.5
v 10.4 12.6 -2.6
v 10.3 12.5 -2.5
v 10.3 12.5 -2.6
v 10.4 12.5 -2.6
v 10.4 12.5 -2.5
v 10.3 12.6 -2.5
v 10.3 12.5 -2.5
v 10.4 12.5 -2.5
v 10.4 12.6 -2.5
v 10.4 12.6 -2.6
v 10.4 12.5 -2.6
v 10.3 12.5 -2.6
v 10.3 12.6 -2.6
v 10.4 12.6 -2.6
v 10.4 12.6 -2.5
v 10.5 12.6 -2.5
v 10.5 12.6 -2.6
v 10.4 12.5 -2.5
v 10.4 12.5 -2.6
v 10.5 12.5 -2.6
v 10.5 12.5 -2.5
v 10.4 12.6 -2.5
v 10.4 12.5 -2.5
v 10.5 12.5 -2.5
v 10.5 12.6 -2.5
v 10.5 12.6 -2.6
v 10.5 12.5 -2.6
v 10.4 12.5 -2.6
v 10.4 12.6 -2.6
v 10.5 12.6 -2.6
v 10.5 12.6 -2.5
v 10.6 12.6 -2.5
v 10.6 12.6 -2.6
v 10.5 12.5 -2.5
v 10.5 12.5 -2.6
v 10.6 12.5 -2.6
v 10.6 12.5 -2.5
v 10.5 12.6 -2.5
v 10.5 12.5 -2.5
v 10.6 12.5 -2.5
v 10.6 12.6 -2.5
v 10.6 12.6 -2.6
v 10.6 12.5 -2.6
v 10.5 12.5 -2.6
v 10.5 12.6 -2.6
v 10.6 12.6 -2.6
v 10.6 12.6 -2.5
v 10.7 12.6 -2.5
v 10.7 12.6 -2.6
v 10.6 12.5 -2.5
v 10.6 12.5 -2.6
v 10.7 12.5 -2.6
v 10.7 12.5 -2.5
v 10.6 12.6 -2.5
v 10.6 12.5 -2.5
v 10.7 12.5 -2.5
v 10.7 12.6 -2.5
v 10.7 12.6 -2.6
v 10.7 12.5 -2.6
v 10.6 12.5 -2.6
v 10.6 12.6 -2.6
v 10.7 12.6 -2.6
v 10.7 12.6 -2.5
v 10.8 12.6 -2.5
v 10.8 12.6 -2.6
v 10.7 12.5 -2.5
v 10.7 12.5 -2.6
v 10.8 12.5 -2.6
v 10.8 12.5 -2.5
v 10.7 12.6 -2.5
v 10.7 12.5 -2.5
v 10.8 12.5 -2.5
v 10.8 12.6 -2.5
v 10.8 12.6 -2.6
v 10.8 12.5 -2.6
v 10.7 12.5 -2.6
v 10.7 12.6 -2.6
v 10.8 12.6 -2.6
v 10.8 12.6 -2.5
v 10.9 12.6 -2.5
v 10.9 12.6 -2.6
v 10.8 12.5 -2.5
v 10.8 12.5 -2.6
v 10.9 12.5 -2.6
v 10.9 12.5 -2.5
v 10.8 12.6 -2.5
v 10.8 12.5 -2.5
v 10.9 12.5 -2.5
v 10.9 12.6 -2.5
v 10.9 12.6 -2.6
v 10.9 12.5 -2.6
v 10.8 12.5 -2.6
v 10.8 12.6 -2.6
v 10.9 12.6 -2.6
v 10.9 12.6 -2.5
v 11 12.6 -2.5
v 11 12.6 -2.6
v 10.9 12.5 -2.5
v 10.9 12.5 -2.6
v 11 12.5 -2.6
v 11 12.5 -2.5
v 10.9 12.6 -2.5
v 10.9 12.5 -2.5
v 11 12.5 -2.5
v 11 12.6 -2.5
v 11 12.6 -2.6
v 11 12.5 -2.6
v 10.9 12.5 -2.6
v 10.9 12.6 -2.6
v 11 12.6 -2.6
v 11 12.6 -2.5
v 11.1 12.6 -2.5
v 11.1 12.6 -2.6
v 11 12.5 -2.5
v 11 12.5 -2.6
v 11.1 12.5 -2.6
v 11.1 12.5 -2.5
v 11 12.6 -2.5
v 11 12.5 -2.5
v 11.1 12.5 -2.5
v 11.1 12.6 -2.5
v 11.1 12.6 -2.6
v 11.1 12.5 -2.6
v 11 12.5 -2.6
v 11 12.6 -2.6
v 11.1 12.6 -2.6
v 11.1 12.6 -2.5
v 11.2 12.6 -2.5
v 11.2 12.6 -2.6
v 11.1 12.5 -2.5
v 11.1 12.5 -2.6
v 11.2 12.5 -2.6
v 11.2 12.5 -2.5
v 11.1 12.6 -2.5
v 11.1 12.5 -2.5
v 11.2 12.5 -2.5
v 11.2 12.6 -2.5
v 11.2 12.6 -2.6
v 11.2 12.5 -2.6
v 11.1 12.5 -2.6
v 11.1 12.6 -2.6
v 11.2 12.6 -2.6
v 11.2 12.6 -2.5
v 11.3 12.6 -2.5
v 11.3 12.6 -2.6
v 11.2 12.5 -2.5
v 11.2 12.5 -2.6
v 11.3 12.5 -2.6
v 11.3 12.5 -2.5
v 11.2 12.6 -2.5
v 11.2 12.5 -2.5
v 11.3 12.5 -2.5
v 11.3 12.6 -2.5
v 11.3 12.6 -2.6
v 11.3 12.5 -2.6
v 11.2 12.5 -2.6
v 11.2 12.6 -2.6
v 11.3 12.6 -2.6
v 11.3 12.6 -2.5
v 11.4 12.6 -2.5
v 11.4 12.6 -2.6
v 11.3 12.5 -2.5
v 11.3 12.5 -2.6
v 11.4 12.5 -2.6
v 11.4 12.5 -2.5
v 11.3 12.6 -2.5
v 11.3 12.5 -2.5
v 11.4 12.5 -2.5
v 11.4 12.6 -2.5
v 11.4 12.6 -2.6
v 11.4 12.5 -2.6
v 11.3 12.5 -2.6
v 11.3 12.6 -2.6
v 11.4 12.6 -2.6
v 11.4 12.6 -2.5
v 11.5 12.6 -2.5
v 11.5 12.6 -2.6
v 11.4 12.5 -2.5
v 11.4 12.5 -2.6
v 11.5 12.5 -2.6
v 11.5 12.5 -2.5
v 11.4 12.6 -2.5
v 11.4 12.5 -2.5
v 11.5 12.5 -2.5
v 11.5 12.6 -2.5
v 11.5 12.6 -2.6
v 11.5 12.5 -2.6
v 11.4 12.5 -2.6
v 11.4 12.6 -2.6
v 11.5 12.6 -2.6
v 11.5 12.6 -2.5
v 11.6 12.6 -2.5
v 11.6 12.6 -2.6
v 11.5 12.5 -2.5
v 11.5 12.5 -2.6
v 11.6 12.5 -2.6
v 11.6 12.5 -2.5
v 11.5 12.6 -2.5
v 11.5 12.5 -2.5
v 11.6 12.5 -2.5
v 11.6 12.6 -2.5
v 11.6 12.6 -2.6
v 11.6 12.5 -2.6
v 11.5 12.5 -2.6
v 11.5 12.6 -2.6
v 11.6 12.6 -2.6
v 11.6 12.6 -2.5
v 11.7 12.6 -2.5
v 11.7 12.6 -2.6
v 11.6 12.5 -2.5
v 11.6 12.5 -2.6
v 11.7 12.5 -2.6
v 11.7 12.5 -2.5
v 11.6 12.6 -2.5
v 11.6 12.5 -2.5
v 11.7 12.5 -2.5
v 11.7 12.6 -2.5
v 11.7 12.6 -2.6
v 11.7 12.5 -2.6
v 11.6 12.5 -2.6
v 11.6 12.6 -2.6
v 11.7 12.6 -2.6
v 11.7 12.6 -2.5
v 11.8 12.6 -2.5
v 11.8 12.6 -2.6
v 11.7 12.5 -2.5
v 11.7 12.5 -2.6
v 11.8 12.5 -2.6
v 11.8 12.5 -2.5
v 11.7 12.6 -2.5
v 11.7 12.5 -2.5
v 11.8 12.5 -2.5
v 11.8 12.6 -2.5
v 11.8 12.6 -2.6
v 11.8 12.5 -2.6
v 11.7 12.5 -2.6
v 11.7 12.6 -2.6
v 11.8 12.6 -2.6
v 11.8 12.6 -2.5
v 11.9 12.6 -2.5
v 11.9 12.6 -2.6
v 11.8 12.5 -2.5
v 11.8 12.5 -2.6
v 11.9 12.5 -2.6
v 11.9 12.5 -2.5
v 11.8 12.6 -2.5
v 11.8 12.5 -2.5
v 11.9 12.5 -2.5
v 11.9 12.6 -2.5
v 11.9 12.6 -2.6
v 11.9 12.5 -2.6
v 11.8 12.5 -2.6
v 11.8 12.6 -2.6
v 11.9 12.6 -2.6
v 11.9 12.6 -2.5
v 12 12.6 -2.5
v 12 12.6 -2.6
v 11.9 12.5 -2.5
v 11.9 12.5 -2.6
v 12 12.5 -2.6
v 12 12.5 -2.5
v 11.9 12.6 -2.5
v 11.9 12.5 -2.5
v 12 12.5 -2.5
v 12 12.6 -2.5
v 12 12.6 -2.6
v 12 12.5 -2.6
v 11.9 12.5 -2.6
v 11.9 12.6 -2.6
v 12 12.6 -2.6
v 12 12.6 -2.5
v 12.1 12.6 -2.5
v 12.1 12.6 -2.6
v 12 12.5 -2.5
v 12 12.5 -2.6
v 12.1 12.5 -2.6
v 12.1 12.5 -2.5
v 12 12.6 -2.5
v 12 12.5 -2.5
v 12.1 12.5 -2.5
v 12.1 12.6 -2.5
v 12.1 12.6 -2.6
v 12.1 12.5 -2.6
v 12 12.5 -2.6
v 12 12.6 -2.6
v 12.1 12.6 -2.6
v 12.1 12.6 -2.5
v 12.2 12.6 -2.5
v 12.2 12.6 -2.6
v 12.1 12.5 -2.5
v 12.1 12.5 -2.6
v 12.2 12.5 -2.6
v 12.2 12.5 -2.5
v 12.1 12.6 -2.5
v 12.1 12.5 -2.5
v 12.2 12.5 -2.5
v 12.2 12.6 -2.5
v 12.2 12.6 -2.6
v 12.2 12.5 -2.6
v 12.1 12.5 -2.6
v 12.1 12.6 -2.6
v 12.2 12.6 -2.6
v 12.2 12.6 -2.5
v 12.3 12.6 -2.5
v 12.3 12.6 -2.6
v 12.2 12.5 -2.5
v 12.2 12.5 -2.6
v 12.3 12.5 -2.6
v 12.3 12.5 -2.5
v 12.2 12.6 -2.5
v 12.2 12.5 -2.5
v 12.3 12.5 -2.5
v 12.3 12.6 -2.5
v 12.3 12.6 -2.6
v 12.3 12.5 -2.6
v 12.2 12.5 -2.6
v 12.2 12.6 -2.6
v 12.3 12.6 -2.6
v 12.3 12.6 -2.5
v 12.4 12.6 -2.5
v 12.4 12.6 -2.6
v 12.3 12.5 -2.5
v 12.3 12.5 -2.6
v 12.4 12.5 -2.6
v 12.4 12.5 -2.5
v 12.3 12.6 -2.5
v 12.3 12.5 -2.5
v 12.4 12.5 -2.5
v 12.4 12.6 -2.5
v 12.4 12.6 -2.6
v 12.4 12.5 -2.6
v 12.3 12.5 -2.6
v 12.3 12.6 -2.6
v 12.4 12.6 -2.6
v 12.4 12.6 -2.5
v 12.5 12.6 -2.5
v 12.5 12.6 -2.6
v 12.4 12.5 -2.5
v 12.4 12.5 -2.6
v 12.5 12.5 -2.6
v 12.5 12.5 -2.5
v 12.4 12.6 -2.5
v 12.4 12.5 -2.5
v 12.5 12.5 -2.5
v 12.5 12.6 -2.5
v 12.5 12.6 -2.6
v 12.5 12.5 -2.6
v 12.4 12.5 -2.6
v 12.4 12.6 -2.6
v 12.5 12.6 -2.6
v 12.5 12.6 -2.5
v 12.6 12.6 -2.5
v 12.6 12.6 -2.6
v 12.5 12.5 -2.5
v 12.5 12.5 -2.6
v 12.6 12.5 -2.6
v 12.6 12.5 -2.5
v 12.5 12.6 -2.5
v 12.5 12.5 -2.5
v 12.6 12.5 -2.5
v 12.6 12.6 -2.5
v 12.6 12.6 -2.6
v 12.6 12.5 -2.6
v 12.5 12.5 -2.6
v 12.5 12.6 -2.6
v 12.6 12.6 -2.6
v 12.6 12.6 -2.5
v 12.7 12.6 -2.5
v 12.7 12.6 -2.6
v 12.6 12.5 -2.5
v 12.6 12.5 -2.6
v 12.7 12.5 -2.6
v 12.7 12.5 -2.5
v 12.6 12.6 -2.5
v 12.6 12.5 -2.5
v 12.7 12.5 -2.5
v 12.7 12.6 -2.5
v 12.7 12.6 -2.6
v 12.7 12.5 -2.6
v 12.6 12.5 -2.6
v 12.6 12.6 -2.6
v 12.7 12.6 -2.6
v 12.7 12.6 -2.5
v 12.8 12.6 -2.5
v 12.8 12.6 -2.6
v 12.7 12.5 -2.5
v 12.7 12.5 -2.6
v 12.8 12.5 -2.6
v 12.8 12.5 -2.5
v 12.7 12.6 -2.5
v 12.7 12.5 -2.5
v 12.8 12.5 -2.5
v 12.8 12.6 -2.5
v 12.8 12.6 -2.6
v 12.8 12.5 -2.6
v 12.7 12.5 -2.6
v 12.7 12.6 -2.6
v 12.8 12.6 -2.6
v 12.8 12.6 -2.5
v 12.9 12.6 -2.5
v 12.9 12.6 -2.6
v 12.8 12.5 -2.5
v 12.8 12.5 -2.6
v 12.9 12.5 -2.6
v 12.9 12.5 -2.5
v 12.8 12.6 -2.5
v 12.8 12.5 -2.5
v 12.9 12.5 -2.5
v 12.9 12.6 -2.5
v 12.9 12.6 -2.6
v 12.9 12.5 -2.6
v 12.8 12.5 -2.6
v 12.8 12.6 -2.6
v 12.9 12.6 -2.6
v 12.9 12.6 -2.5
v 13 12.6 -2.5
v 13 12.6 -2.6
v 12.9 12.5 -2.5
v 12.9 12.5 -2.6
v 13 12.5 -2.6
v 13 12.5 -2.5
v 12.9 12.6 -2.5
v 12.9 12.5 -2.5
v 13 12.5 -2.5
v 13 12.6 -2.5
v 13 12.6 -2.6
v 13 12.5 -2.6
v 12.9 12.5 -2.6
v 12.9 12.6 -2.6
v 13 12.6 -2.6
v 13 12.6 -2.5
v 13.1 12.6 -2.5
v 13.1 12.6 -2.6
v 13 12.5 -2.5
v 13 12.5 -2.6
v 13.1 12.5 -2.6
v 13.1 12.5 -2.5
v 13 12.6 -2.5
v 13 12.5 -2.5
v 13.1 12.5 -2.5
v 13.1 12.6 -2.5
v 13.1 12.6 -2.6
v 13.1 12.5 -2.6
v 13 12.5 -2.6
v 13 12.6 -2.6
v 13.1 12.6 -2.6
v 13.1 12.6 -2.5
v 13.2 12.6 -2.5
v 13.2 12.6 -2.6
v 13.1 12.5 -2.5
v 13.1 12.5 -2.6
v 13.2 12.5 -2.6
v 13.2 12.5 -2.5
v 13.1 12.6 -2.5
v 13.1 12.5 -2.5
v 13.2 12.5 -2.5
v 13.2 12.6 -2.5
v 13.2 12.6 -2.6
v 13.2 12.5 -2.6
v 13.1 12.5 -2.6
v 13.1 12.6 -2.6
v 13.2 12.6 -2.6
v 13.2 12.6 -2.5
v 13.3 12.6 -2.5
v 13.3 12.6 -2.6
v 13.2 12.5 -2.5
v 13.2 12.5 -2.6
v 13.3 12.5 -2.6
v 13.3 12.5 -2.5
v 13.2 12.6 -2.5
v 13.2 12.5 -2.5
v 13.3 12.5 -2.5
v 13.3 12.6 -2.5
v 13.3 12.6 -2.6
v 13.3 12.5 -2.6
v 13.2 12.5 -2.6
v 13.2 12.6 -2.6
v 13.3 12.6 -2.6
v 13.3 12.6 -2.5
v 13.4 12.6 -2.5
v 13.4 12.6 -2.6
v 13.3 12.5 -2.5
v 13.3 12.5 -2.6
v 13.4 12.5 -2.6
v 13.4 12.5 -2.5
v 13.3 12.6 -2.5
v 13.3 12.5 -2.5
v 13.4 12.5 -2.5
v 13.4 12.6 -2.5
v 13.4 12.6 -2.6
v 13.4 12.5 -2.6
v 13.3 12.5 -2.6
v 13.3 12.6 -2.6
v 13.4 12.6 -2.6
v 13.4 12.6 -2.5
v 13.5 12.6 -2.5
v 13.5 12.6 -2.6
v 13.4 12.5 -2.5
v 13.4 12.5 -2.6
v 13.5 12.5 -2.6
v 13.5 12.5 -2.5
v 13.4 12.6 -2.5
v 13.4 12.5 -2.5
v 13.5 12.5 -2.5
v 13.5 12.6 -2.5
v 13.5 12.6 -2.6
v 13.5 12.5 -2.6
v 13.4 12.5 -2.6
v 13.4 12.6 -2.6
v 13.5 12.6 -2.6
v 13.5 12.6 -2.5
v 13.6 12.6 -2.5
v 13.6 12.6 -2.6
v 13.5 12.5 -2.5
v 13.5 12.5 -2.6
v 13.6 12.5 -2.6
v 13.6 12.5 -2.5
v 13.5 12.6 -2.5
v 13.5 12.5 -2.5
v 13.6 12.5 -2.5
v 13.6 12.6 -2.5
v 13.6 12.6 -2.6
v 13.6 12.5 -2.6
v 13.5 12.5 -2.6
v 13.5 12.6 -2.6
v 13.6 12.6 -2.6
v 13.6 12.6 -2.5
v 13.7 12.6 -2.5
v 13.7 12.6 -2.6
v 13.6 12.5 -2.5
v 13.6 12.5 -2.6
v 13.7 12.5 -2.6
v 13.7 12.5 -2.5
v 13.6 12.6 -2.5
v 13.6 12.5 -2.5
v 13.7 12.5 -2.5
v 13.7 12.6 -2.5
v 13.7 12.6 -2.6
v 13.7 12.5 -2.6
v 13.6 12.5 -2.6
v 13.6 12.6 -2.6
v 13.7 12.6 -2.6
v 13.7 12.6 -2.5
v 13.8 12.6 -2.5
v 13.8 12.6 -2.6
v 13.7 12.5 -2.5
v 13.7 12.5 -2.6
v 13.8 12.5 -2.6
v 13.8 12.5 -2.5
v 13.7 12.6 -2.5
v 13.7 12.5 -2.5
v 13.8 12.5 -2.5
v 13.8 12.6 -2.5
v 13.8 12.6 -2.6
v 13.8 12.5 -2.6
v 13.7 12.5 -2.6
v 13.7 12.6 -2.6
v 13.8 12.6 -2.6
v 13.8 12.6 -2.5
v 13.9 12.6 -2.5
v 13.9 12.6 -2.6
v 13.8 12.5 -2.5
v 13.8 12.5 -2.6
v 13.9 12.5 -2.6
v 13.9 12.5 -2.5
v 13.8 12.6 -2.5
v 13.8 12.5 -2.5
v 13.9 12.5 -2.5
v 13.9 12.6 -2.5
v 13.9 12.6 -2.6
v 13.9 12.5 -2.6
v 13.8 12.5 -2.6
v 13.8 12.6 -2.6
v 13.9 12.6 -2.6
v 13.9 12.6 -2.5
v 14 12.6 -2.5
v 14 12.6 -2.6
v 13.9 12.5 -2.5
v 13.9 12.5 -2.6
v 14 12.5 -2.6
v 14 12.5 -2.5
v 13.9 12.6 -2.5
v 13.9 12.5 -2.5
v 14 12.5 -2.5
v 14 12.6 -2.5
v 14 12.6 -2.6
v 14 12.5 -2.6
v 13.9 12.5 -2.6
v 13.9 12.6 -2.6
v 14 12.6 -2.6
v 14 12.6 -2.5
v 14.1 12.6 -2.5
v 14.1 12.6 -2.6
v 14 12.5 -2.5
v 14 12.5 -2.6
v 14.1 12.5 -2.6
v 14.1 12.5 -2.5
v 14 12.6 -2.5
v 14 12.5 -2.5
v 14.1 12.5 -2.5
v 14.1 12.6 -2.5
v 14.1 12.6 -2.6
v 14.1 12.5 -2.6
v 14 12.5 -2.6
v 14 12.6 -2.6
v 14.1 12.6 -2.6
v 14.1 12.6 -2.5
v 14.2 12.6 -2.5
v 14.2 12.6 -2.6
v 14.1 12.5 -2.5
v 14.1 12.5 -2.6
v 14.2 12.5 -2.6
v 14.2 12.5 -2.5
v 14.1 12.6 -2.5
v 14.1 12.5 -2.5
v 14.2 12.5 -2.5
v 14.2 12.6 -2.5
v 14.2 12.6 -2.6
v 14.2 12.5 -2.6
v 14.1 12.5 -2.6
v 14.1 12.6 -2.6
v 14.2 12.6 -2.6
v 14.2 12.6 -2.5
v 14.3 12.6 -2.5
v 14.3 12.6 -2.6
v 14.2 12.5 -2.5
v 14.2 12.5 -2.6
v 14.3 12.5 -2.6
v 14.3 12.5 -2.5
v 14.2 12.6 -2.5
v 14.2 12.5 -2.5
v 14.3 12.5 -2.5
v 14.3 12.6 -2.5
v 14.3 12.6 -2.6
v 14.3 12.5 -2.6
v 14.2 12.5 -2.6
v 14.2 12.6 -2.6
v 14.3 12.6 -2.6
v 14.3 12.6 -2.5
v 14.4 12.6 -2.5
v 14.4 12.6 -2.6
v 14.3 12.5 -2.5
v 14.3 12.5 -2.6
v 14.4 12.5 -2.6
v 14.4 12.5 -2.5
v 14.3 12.6 -2.5
v 14.3 12.5 -2.5
v 14.4 12.5 -2.5
v 14.4 12.6 -2.5
v 14.4 12.6 -2.6
v 14.4 12.5 -2.6
v 14.3 12.5 -2.6
v 14.3 12.6 -2.6
v 14.4 12.6 -2.6
v 14.4 12.6 -2.5
v 14.5 12.6 -2.5
v 14.5 12.6 -2.6
v 14.4 12.5 -2.5
v 14.4 12.5 -2.6
v 14.5 12.5 -2.6
v 14.5 12.5 -2.5
v 14.4 12.6 -2.5
v 14.4 12.5 -2.5
v 14.5 12.5 -2.5
v 14.5 12.6 -2.5
v 14.5 12.6 -2.6
v 14.5 12.5 -2.6
v 14.4 12.5 -2.6
v 14.4 12.6 -2.6
v 14.5 12.6 -2.6
v 14.5 12.6 -2.5
v 14.6 12.6 -2.5
v 14.6 12.6 -2.6
v 14.5 12.5 -2.5
v 14.5 12.5 -2.6
v 14.6 12.5 -2.6
v 14.6 12.5 -2.5
v 14.5 12.6 -2.5
v 14.5 12.5 -2.5
v 14.6 12.5 -2.5
v 14.6 12.6 -2.5
v 14.6 12.6 -2.6
v 14.6 12.5 -2.6
v 14.5 12.5 -2.6
v 14.5 12.6 -2.6
v 14.6 12.6 -2.6
v 14.6 12.6 -2.5
v 14.7 12.6 -2.5
v 14.7 12.6 -2.6
v 14.6 12.5 -2.5
v 14.6 12.5 -2.6
v 14.7 12.5 -2.6
v 14.7 12.5 -2.5
v 14.6 12.6 -2.5
v 14.6 12.5 -2.5
v 14.7 12.5 -2.5
v 14.7 12.6 -2.5
v 14.7 12.6 -2.6
v 14.7 12.5 -2.6
v 14.6 12.5 -2.6
v 14.6 12.6 -2.6
v 14.7 12.6 -2.6
v 14.7 12.6 -2.5
v 14.8 12.6 -2.5
v 14.8 12.6 -2.6
v 14.7 12.5 -2.5
v 14.7 12.5 -2.6
v 14.8 12.5 -2.6
v 14.8 12.5 -2.5
v 14.7 12.6 -2.5
v 14.7 12.5 -2.5
v 14.8 12.5 -2.5
v 14.8 12.6 -2.5
v 14.8 12.6 -2.6
v 14.8 12.5 -2.6
v 14.7 12.5 -2.6
v 14.7 12.6 -2.6
v 14.8 12.6 -2.6
v 14.8 12.6 -2.5
v 14.9 12.6 -2.5
v 14.9 12.6 -2.6
v 14.8 12.5 -2.5
v 14.8 12.5 -2.6
v 14.9 12.5 -2.6
v 14.9 12.5 -2.5
v 14.8 12.6 -2.5
v 14.8 12.5 -2.5
v 14.9 12.5 -2.5
v 14.9 12.6 -2.5
v 14.9 12.6 -2.6
v 14.9 12.5 -2.6
v 14.8 12.5 -2.6
v 14.8 12.6 -2.6
v 14.9 12.6 -2.6
v 14.9 12.6 -2.5
v 15 12.6 -2.5
v 15 12.6 -2.6
v 14.9 12.5 -2.5
v 14.9 12.5 -2.6
v 15 12.5 -2.6
v 15 12.5 -2.5
v 14.9 12.6 -2.5
v 14.9 12.5 -2.5
v 15 12.5 -2.5
v 15 12.6 -2.5
v 15 12.6 -2.6
v 15 12.5 -2.6
v 14.9 12.5 -2.6
v 14.9 12.6 -2.6
v 15 12.6 -2.6
v 15 12.6 -2.5
v 15.1 12.6 -2.5
v 15.1 12.6 -2.6
v 15 12.5 -2.5
v 15 12.5 -2.6
v 15.1 12.5 -2.6
v 15.1 12.5 -2.5
v 15 12.6 -2.5
v 15 12.5 -2.5
v 15.1 12.5 -2.5
v 15.1 12.6 -2.5
v 15.1 12.6 -2.6
v 15.1 12.5 -2.6
v 15 12.5 -2.6
v 15 12.6 -2.6
v 15.1 12.6 -2.6
v 15.1 12.6 -2.5
v 15.2 12.6 -2.5
v 15.2 12.6 -2.6
v 15.1 12.5 -2.5
v 15.1 12.5 -2.6
v 15.2 12.5 -2.6
v 15.2 12.5 -2.5
v 15.1 12.6 -2.5
v 15.1 12.5 -2.5
v 15.2 12.5 -2.5
v 15.2 12.6 -2.5
v 15.2 12.6 -2.6
v 15.2 12.5 -2.6
v 15.1 12.5 -2.6
v 15.1 12.6 -2.6
v 15.2 12.6 -2.6
v 15.2 12.6 -2.5
v 15.3 12.6 -2.5
v 15.3 12.6 -2.6
v 15.2 12.5 -2.5
v 15.2 12.5 -2.6
v 15.3 12.5 -2.6
v 15.3 12.5 -2.5
v 15.2 12.6 -2.5
v 15.2 12.5 -2.5
v 15.3 12.5 -2.5
v 15.3 12.6 -2.5
v 15.3 12.6 -2.6
v 15.3 12.5 -2.6
v 15.2 12.5 -2.6
v 15.2 12.6 -2.6
v 15.3 12.6 -2.6
v 15.3 12.6 -2.5
v 15.4 12.6 -2.5
v 15.4 12.6 -2.6
v 15.3 12.5 -2.5
v 15.3 12.5 -2.6
v 15.4 12.5 -2.6
v 15.4 12.5 -2.5
v 15.3 12.6 -2.5
v 15.3 12.5 -2.5
v 15.4 12.5 -2.5
v 15.4 12.6 -2.5
v 15.4 12.6 -2.6
v 15.4 12.5 -2.6
v 15.3 12.5 -2.6
v 15.3 12.6 -2.6
v 15.4 12.6 -2.6
v 15.4 12.6 -2.5
v 15.5 12.6 -2.5
v 15.5 12.6 -2.6
v 15.4 12.5 -2.5
v 15.4 12.5 -2.6
v 15.5 12.5 -2.6
v 15.5 12.5 -2.5
v 15.4 12.6 -2.5
v 15.4 12.5 -2.5
v 15.5 12.5 -2.5
v 15.5 12.6 -2.5
v 15.5 12.6 -2.6
v 15.5 12.5 -2.6
v 15.4 12.5 -2.6
v 15.4 12.6 -2.6
v 15.5 12.6 -2.6
v 15.5 12.6 -2.5
v 15.6 12.6 -2.5
v 15.6 12.6 -2.6
v 15.5 12.5 -2.5
v 15.5 12.5 -2.6
v 15.6 12.5 -2.6
v 15.6 12.5 -2.5
v 15.5 12.6 -2.5
v 15.5 12.5 -2.5
v 15.6 12.5 -2.5
v 15.6 12.6 -2.5
v 15.6 12.6 -2.6
v 15.6 12.5 -2.6
v 15.5 12.5 -2.6
v 15.5 12.6 -2.6
v 15.6 12.6 -2.6
v 15.6 12.6 -2.5
v 15.7 12.6 -2.5
v 15.7 12.6 -2.6
v 15.6 12.5 -2.5
v 15.6 12.5 -2.6
v 15.7 12.5 -2.6
v 15.7 12.5 -2.5
v 15.6 12.6 -2.5
v 15.6 12.5 -2.5
v 15.7 12.5 -2.5
v 15.7 12.6 -2.5
v 15.7 12.6 -2.6
v 15.7 12.5 -2.6
v 15.6 12.5 -2.6
v 15.6 12.6 -2.6
v 15.7 12.6 -2.6
v 15.7 12.6 -2.5
v 15.8 12.6 -2.5
v 15.8 12.6 -2.6
v 15.7 12.5 -2.5
v 15.7 12.5 -2.6
v 15.8 12.5 -2.6
v 15.8 12.5 -2.5
v 15.7 12.6 -2.5
v 15.7 12.5 -2.5
v 15.8 12.5 -2.5
v 15.8 12.6 -2.5
v 15.8 12.6 -2.6
v 15.8 12.5 -2.6
v 15.7 12.5 -2.6
v 15.7 12.6 -2.6
v 15.8 12.6 -2.6
v 15.8 12.6 -2.5
v 15.9 12.6 -2.5
v 15.9 12.6 -2.6
v 15.8 12.5 -2.5
v 15.8 12.5 -2.6
v 15.9 12.5 -2.6
v 15.9 12.5 -2.5
v 15.8 12.6 -2.5
v 15.8 12.5 -2.5
v 15.9 12.5 -2.5
v 15.9 12.6 -2.5
v 15.9 12.6 -2.6
v 15.9 12.5 -2.6
v 15.8 12.5 -2.6
v 15.8 12.6 -2.6
v 15.9 12.6 -2.6
v 15.9 12.6 -2.5
v 16 12.6 -2.5
v 16 12.6 -2.6
v 15.9 12.5 -2.5
v 15.9 12.5 -2.6
v 16 12.5 -2.6
v 16 12.5 -2.5
v 15.9 12.6 -2.5
v 15.9 12.5 -2.5
v 16 12.5 -2.5
v 16 12.6 -2.5
v 16 12.6 -2.6
v 16 12.5 -2.6
v 15.9 12.5 -2.6
v 15.9 12.6 -2.6
v 16 12.6 -2.6
v 16 12.6 -2.5
v 16.1 12.6 -2.5
v 16.1 12.6 -2.6
v 16 12.5 -2.5
v 16 12.5 -2.6
v 16.1 12.5 -2.6
v 16.1 12.5 -2.5
v 16 12.6 -2.5
v 16 12.5 -2.5
v 16.1 12.5 -2.5
v 16.1 12.6 -2.5
v 16.1 12.6 -2.6
v 16.1 12.5 -2.6
v 16 12.5 -2.6
v 16 12.6 -2.6
v 16.1 12.6 -2.6
v 16.1 12.6 -2.5
v 16.2 12.6 -2.5
v 16.2 12.6 -2.6
v 16.1 12.5 -2.5
v 16.1 12.5 -2.6
v 16.2 12.5 -2.6
v 16.2 12.5 -2.5
v 16.1 12.6 -2.5
v 16.1 12.5 -2.5
v 16.2 12.5 -2.5
v 16.2 12.6 -2.5
v 16.2 12.6 -2.6
v 16.2 12.5 -2.6
v 16.1 12.5 -2.6
v 16.1 12.6 -2.6
v 16.2 12.6 -2.6
v 16.2 12.6 -2.5
v 16.3 12.6 -2.5
v 16.3 12.6 -2.6
v 16.2 12.5 -2.5
v 16.2 12.5 -2.6
v 16.3 12.5 -2.6
v 16.3 12.5 -2.5
v 16.2 12.6 -2.5
v 16.2 12.5 -2.5
v 16.3 12.5 -2.5
v 16.3 12.6 -2.5
v 16.3 12.6 -2.6
v 16.3 12.5 -2.6
v 16.2 12.5 -2.6
v 16.2 12.6 -2.6
v 16.3 12.6 -2.6
v 16.3 12.6 -2.5
v 16.4 12.6 -2.5
v 16.4 12.6 -2.6
v 16.3 12.5 -2.5
v 16.3 12.5 -2.6
v 16.4 12.5 -2.6
v 16.4 12.5 -2.5
v 16.3 12.6 -2.5
v 16.3 12.5 -2.5
v 16.4 12.5 -2.5
v 16.4 12.6 -2.5
v 16.4 12.6 -2.6
v 16.4 12.5 -2.6
v 16.3 12.5 -2.6
v 16.3 12.6 -2.6
v 16.4 12.6 -2.6
v 16.4 12.6 -2.5
v 16.5 12.6 -2.5
v 16.5 12.6 -2.6
v 16.4 12.5 -2.5
v 16.4 12.5 -2.6
v 16.5 12.5 -2.6
v 16.5 12.5 -2.5
v 16.4 12.6 -2.5
v 16.4 12.5 -2.5
v 16.5 12.5 -2.5
v 16.5 12.6 -2.5
v 16.5 12.6 -2.6
v 16.5 12.5 -2.6
v 16.4 12.5 -2.6
v 16.4 12.6 -2.6
v 16.6 12.6 -2.5
v 16.6 12.5 -2.5
v 16.6 12.5 -2.6
v 16.6 12.6 -2.6
v 16.5 12.6 -2.6
v 16.5 12.6 -2.5
v 16.6 12.6 -2.5
v 16.6 12.6 -2.6
v 16.5 12.5 -2.5
v 16.5 12.5 -2.6
v 16.6 12.5 -2.6
v 16.6 12.5 -2.5
v 16.5 12.6 -2.5
v 16.5 12.5 -2.5
v 16.6 12.5 -2.5
v 16.6 12.6 -2.5
v 16.6 12.6 -2.6
v 16.6 12.5 -2.6
v 16.5 12.5 -2.6
v 16.5 12.6 -2.6
v 30.8 11.9 -2.6
v 30.8 11.8 -2.6
v 30.8 11.8 -2.5
v 30.8 11.9 -2.5
v 30.8 11.9 -2.6
v 30.8 11.9 -2.5
v 30.9 11.9 -2.5
v 30.9 11.9 -2.6
v 30.8 11.8 -2.5
v 30.8 11.8 -2.6
v 30.9 11.8 -2.6
v 30.9 11.8 -2.5
v 30.8 11.9 -2.5
v 30.8 11.8 -2.5
v 30.9 11.8 -2.5
v 30.9 11.9 -2.5
v 30.9 11.9 -2.6
v 30.9 11.8 -2.6
v 30.8 11.8 -2.6
v 30.8 11.9 -2.6
v 30.9 11.9 -2.6
v 30.9 11.9 -2.5
v 31 11.9 -2.5
v 31 11.9 -2.6
v 30.9 11.8 -2.5
v 30.9 11.8 -2.6
v 31 11.8 -2.6
v 31 11.8 -2.5
v 30.9 11.9 -2.5
v 30.9 11.8 -2.5
v 31 11.8 -2.5
v 31 11.9 -2.5
v 31 11.9 -2.6
v 31 11.8 -2.6
v 30.9 11.8 -2.6
v 30.9 11.9 -2.6
v 31 11.9 -2.6
v 31 11.9 -2.5
v 31.1 11.9 -2.5
v 31.1 11.9 -2.6
v 31 11.8 -2.5
v 31 11.8 -2.6
v 31.1 11.8 -2.6
v 31.1 11.8 -2.5
v 31 11.9 -2.5
v 31 11.8 -2.5
v 31.1 11.8 -2.5
v 31.1 11.9 -2.5
v 31.1 11.9 -2.6
v 31.1 11.8 -2.6
v 31 11.8 -2.6
v 31 11.9 -2.6
v 31.1 11.9 -2.6
v 31.1 11.9 -2.5
v 31.2 11.9 -2.5
v 31.2 11.9 -2.6
v 31.1 11.8 -2.5
v 31.1 11.8 -2.6
v 31.2 11.8 -2.6
v 31.2 11.8 -2.5
v 31.1 11.9 -2.5
v 31.1 11.8 -2.5
v 31.2 11.8 -2.5
v 31.2 11.9 -2.5
v 31.2 11.9 -2.6
v 31.2 11.8 -2.6
v 31.1 11.8 -2.6
v 31.1 11.9 -2.6
v 31.2 11.9 -2.6
v 31.2 11.9 -2.5
v 31.3 11.9 -2.5
v 31.3 11.9 -2.6
v 31.2 11.8 -2.5
v 31.2 11.8 -2.6
v 31.3 11.8 -2.6
v 31.3 11.8 -2.5
v 31.2 11.9 -2.5
v 31.2 11.8 -2.5
v 31.3 11.8 -2.5
v 31.3 11.9 -2.5
v 31.3 11.9 -2.6
v 31.3 11.8 -2.6
v 31.2 11.8 -2.6
v 31.2 11.9 -2.6
v 31.3 11.9 -2.6
v 31.3 11.9 -2.5
v 31.4 11.9 -2.5
v 31.4 11.9 -2.6
v 31.3 11.8 -2.5
v 31.3 11.8 -2.6
v 31.4 11.8 -2.6
v 31.4 11.8 -2.5
v 31.3 11.9 -2.5
v 31.3 11.8 -2.5
v 31.4 11.8 -2.5
v 31.4 11.9 -2.5
v 31.4 11.9 -2.6
v 31.4 11.8 -2.6
v 31.3 11.8 -2.6
v 31.3 11.9 -2.6
v 31.4 11.9 -2.6
v 31.4 11.9 -2.5
v 31.5 11.9 -2.5
v 31.5 11.9 -2.6
v 31.4 11.8 -2.5
v 31.4 11.8 -2.6
v 31.5 11.8 -2.6
v 31.5 11.8 -2.5
v 31.4 11.9 -2.5
v 31.4 11.8 -2.5
v 31.5 11.8 -2.5
v 31.5 11.9 -2.5
v 31.5 11.9 -2.6
v 31.5 11.8 -2.6
v 31.4 11.8 -2.6
v 31.4 11.9 -2.6
v 31.5 11.9 -2.6
v 31.5 11.9 -2.5
v 31.6 11.9 -2.5
v 31.6 11.9 -2.6
v 31.5 11.8 -2.5
v 31.5 11.8 -2.6
v 31.6 11.8 -2.6
v 31.6 11.8 -2.5
v 31.5 11.9 -2.5
v 31.5 11.8 -2.5
v 31.6 11.8 -2.5
v 31.6 11.9 -2.5
v 31.6 11.9 -2.6
v 31.6 11.8 -2.6
v 31.5 11.8 -2.6
v 31.5 11.9 -2.6
v 31.6 11.9 -2.6
v 31.6 11.9 -2.5
v 31.7 11.9 -2.5
v 31.7 11.9 -2.6
v 31.6 11.8 -2.5
v 31.6 11.8 -2.6
v 31.7 11.8 -2.6
v 31.7 11.8 -2.5
v 31.6 11.9 -2.5
v 31.6 11.8 -2.5
v 31.7 11.8 -2.5
v 31.7 11.9 -2.5
v 31.7 11.9 -2.6
v 31.7 11.8 -2.6
v 31.6 11.8 -2.6
v 31.6 11.9 -2.6
v 31.7 11.9 -2.6
v 31.7 11.9 -2.5
v 31.8 11.9 -2.5
v 31.8 11.9 -2.6
v 31.7 11.8 -2.5
v 31.7 11.8 -2.6
v 31.8 11.8 -2.6
v 31.8 11.8 -2.5
v 31.7 11.9 -2.5
v 31.7 11.8 -2.5
v 31.8 11.8 -2.5
v 31.8 11.9 -2.5
v 31.8 11.9 -2.6
v 31.8 11.8 -2.6
v 31.7 11.8 -2.6
v 31.7 11.9 -2.6
v 31.8 11.9 -2.6
v 31.8 11.9 -2.5
v 31.9 11.9 -2.5
v 31.9 11.9 -2.6
v 31.8 11.8 -2.5
v 31.8 11.8 -2.6
v 31.9 11.8 -2.6
v 31.9 11.8 -2.5
v 31.8 11.9 -2.5
v 31.8 11.8 -2.5
v 31.9 11.8 -2.5
v 31.9 11.9 -2.5
v 31.9 11.9 -2.6
v 31.9 11.8 -2.6
v 31.8 11.8 -2.6
v 31.8 11.9 -2.6
v 32 11.9 -2.5
v 32 11.8 -2.5
v 32 11.8 -2.6
v 32 11.9 -2.6
v 31.9 11.9 -2.6
v 31.9 11.9 -2.5
v 32 11.9 -2.5
v 32 11.9 -2.6
v 31.9 11.8 -2.5
v 31.9 11.8 -2.6
v 32 11.8 -2.6
v 32 11.8 -2.5
v 31.9 11.9 -2.5
v 31.9 11.8 -2.5
v 32 11.8 -2.5
v 32 11.9 -2.5
v 32 11.9 -2.6
v 32 11.8 -2.6
v 31.9 11.8 -2.6
v 31.9 11.9 -2.6
v 9 10.8 -2.6
v 9 10.7 -2.6
v 9 10.7 -2.5
v 9 10.8 -2.5
v 9 10.8 -2.6
v 9 10.8 -2.5
v 9.1 10.8 -2.5
v 9.1 10.8 -2.6
v 9 10.7 -2.5
v 9 10.7 -2.6
v 9.1 10.7 -2.6
v 9.1 10.7 -2.5
v 9 10.8 -2.5
v 9 10.7 -2.5
v 9.1 10.7 -2.5
v 9.1 10.8 -2.5
v 9.1 10.8 -2.6
v 9.1 10.7 -2.6
v 9 10.7 -2.6
v 9 10.8 -2.6
v 9.1 10.8 -2.6
v 9.1 10.8 -2.5
v 9.2 10.8 -2.5
v 9.2 10.8 -2.6
v 9.1 10.7 -2.5
v 9.1 10.7 -2.6
v 9.2 10.7 -2.6
v 9.2 10.7 -2.5
v 9.1 10.8 -2.5
v 9.1 10.7 -2.5
v 9.2 10.7 -2.5
v 9.2 10.8 -2.5
v 9.2 10.8 -2.6
v 9.2 10.7 -2.6
v 9.1 10.7 -2.6
v 9.1 10.8 -2.6
v 9.2 10.8 -2.6
v 9.2 10.8 -2.5
v 9.3 10.8 -2.5
v 9.3 10.8 -2.6
v 9.2 10.7 -2.5
v 9.2 10.7 -2.6
v 9.3 10.7 -2.6
v 9.3 10.7 -2.5
v 9.2 10.8 -2.5
v 9.2 10.7 -2.5
v 9.3 10.7 -2.5
v 9.3 10.8 -2.5
v 9.3 10.8 -2.6
v 9.3 10.7 -2.6
v 9.2 10.7 -2.6
v 9.2 10.8 -2.6
v 9.3 10.8 -2.6
v 9.3 10.8 -2.5
v 9.4 10.8 -2.5
v 9.4 10.8 -2.6
v 9.3 10.7 -2.5
v 9.3 10.7 -2.6
v 9.4 10.7 -2.6
v 9.4 10.7 -2.5
v 9.3 10.8 -2.5
v 9.3 10.7 -2.5
v 9.4 10.7 -2.5
v 9.4 10.8 -2.5
v 9.4 10.8 -2.6
v 9.4 10.7 -2.6
v 9.3 10.7 -2.6
v 9.3 10.8 -2.6
v 9.4 10.8 -2.6
v 9.4 10.8 -2.5
v 9.5 10.8 -2.5
v 9.5 10.8 -2.6
v 9.4 10.7 -2.5
v 9.4 10.7 -2.6
v 9.5 10.7 -2.6
v 9.5 10.7 -2.5
v 9.4 10.8 -2.5
v 9.4 10.7 -2.5
v 9.5 10.7 -2.5
v 9.5 10.8 -2.5
v 9.5 10.8 -2.6
v 9.5 10.7 -2.6
v 9.4 10.7 -2.6
v 9.4 10.8 -2.6
v 9.5 10.8 -2.6
v 9.5 10.8 -2.5
v 9.6 10.8 -2.5
v 9.6 10.8 -2.6
v 9.5 10.7 -2.5
v 9.5 10.7 -2.6
v 9.6 10.7 -2.6
v 9.6 10.7 -2.5
v 9.5 10.8 -2.5
v 9.5 10.7 -2.5
v 9.6 10.7 -2.5
v 9.6 10.8 -2.5
v 9.6 10.8 -2.6
v 9.6 10.7 -2.6
v 9.5 10.7 -2.6
v 9.5 10.8 -2.6
v 9.6 10.8 -2.6
v 9.6 10.8 -2.5
v 9.7 10.8 -2.5
v 9.7 10.8 -2.6
v 9.6 10.7 -2.5
v 9.6 10.7 -2.6
v 9.7 10.7 -2.6
v 9.7 10.7 -2.5
v 9.6 10.8 -2.5
v 9.6 10.7 -2.5
v 9.7 10.7 -2.5
v 9.7 10.8 -2.5
v 9.7 10.8 -2.6
v 9.7 10.7 -2.6
v 9.6 10.7 -2.6
v 9.6 10.8 -2.6
v 9.8 10.8 -2.5
v 9.8 10.7 -2.5
v 9.8 10.7 -2.6
v 9.8 10.8 -2.6
v 9.7 10.8 -2.6
v 9.7 10.8 -2.5
v 9.8 10.8 -2.5
v 9.8 10.8 -2.6
v 9.7 10.7 -2.5
v 9.7 10.7 -2.6
v 9.8 10.7 -2.6
v 9.8 10.7 -2.5
v 9.7 10.8 -2.5
v 9.7 10.7 -2.5
v 9.8 10.7 -2.5
v 9.8 10.8 -2.5
v 9.8 10.8 -2.6
v 9.8 10.7 -2.6
v 9.7 10.7 -2.6
v 9.7 10.8 -2.6

# faces
f 1/1/1 2/1/1 3/1/1 4/1/1
f 5/1/3 6/1/3 7/1/3 8/1/3
f 9/1/4 10/1/4 11/1/4 12/1/4
f 13/1/5 14/1/5 15/1/5 16/1/5
f 17/1/6 18/1/6 19/1/6 20/1/6
f 21/1/3 22/1/3 23/1/3 24/1/3
f 25/1/4 26/1/4 27/1/4 28/1/4
f 29/1/5 30/1/5 31/1/5 32/1/5
f 33/1/6 34/1/6 35/1/6 36/1/6
f 37/1/3 38/1/3 39/1/3 40/1/3
f 41/1/4 42/1/4 43/1/4 44/1/4
f 45/1/5 46/1/5 47/1/5 48/1/5
f 49/1/6 50/1/6 51/1/6 52/1/6
f 53/1/3 54/1/3 55/1/3 56/1/3
f 57/1/4 58/1/4 59/1/4 60/1/4
f 61/1/5 62/1/5 63/1/5 64/1/5
f 65/1/6 66/1/6 67/1/6 68/1/6
f 69/1/3 70/1/3 71/1/3 72/1/3
f 73/1/4 74/1/4 75/1/4 76/1/4
f 77/1/5 78/1/5 79/1/5 80/1/5
f 81/1/6 82/1/6 83/1/6 84/1/6
f 85/1/3 86/1/3 87/1/3 88/1/3
f 89/1/4 90/1/4 91/1/4 92/1/4
f 93/1/5 94/1/5 95/1/5 96/1/5
f 97/1/6 98/1/6 99/1/6 100/1/6
f 101/1/3 102/1/3 103/1/3 104/1/3
f 105/1/4 106/1/4 107/1/4 108/1/4
f 109/1/5 110/1/5 111/1/5 112/1/5
f 113/1/6 114/1/6 115/1/6 116/1/6
f 117/1/3 118/1/3 119/1/3 120/1/3
f 121/1/4 122/1/4 123/1/4 124/1/4
f 125/1/5 126/1/5 127/1/5 128/1/5
f 129/1/6 130/1/6 131/1/6 132/1/6
f 133/1/3 134/1/3 135/1/3 136/1/3
f 137/1/4 138/1/4 139/1/4 140/1/4
f 141/1/5 142/1/5 143/1/5 144/1/5
f 145/1/6 146/1/6 147/1/6 148/1/6
f 149/1/3 150/1/3 151/1/3 152/1/3
f 153/1/4 154/1/4 155/1/4 156/1/4
f 157/1/5 158/1/5 159/1/5 160/1/5
f 161/1/6 162/1/6 163/1/6 164/1/6
f 165/1/3 166/1/3 167/1/3 168/1/3
f 169/1/4 170/1/4 171/1/4 172/1/4
f 173/1/5 174/1/5 175/1/5 176/1/5
f 177/1/6 178/1/6 179/1/6 180/1/6
f 181/1/3 182/1/3 183/1/3 184/1/3
f 185/1/4 186/1/4 187/1/4 188/1/4
f 189/1/5 190/1/5 191/1/5 192/1/5
f 193/1/6 194/1/6 195/1/6 196/1/6
f 197/1/3 198/1/3 199/1/3 200/1/3
f 201/1/4 202/1/4 203/1/4 204/1/4
f 205/1/5 206/1/5 207/1/5 208/1/5
f 209/1/6 210/1/6 211/1/6 212/1/6
f 213/1/3 214/1/3 215/1/3 216/1/3
f 217/1/4 218/1/4 219/1/4 220/1/4
f 221/1/5 222/1/5 223/1/5 224/1/5
f 225/1/6 226/1/6 227/1/6 228/1/6
f 229/1/3 230/1/3 231/1/3 232/1/3
f 233/1/4 234/1/4 235/1/4 236/1/4
f 237/1/5 238/1/5 239/1/5 240/1/5
f 241/1/6 242/1/6 243/1/6 244/1/6
f 245/1/3 246/1/3 247/1/3 248/1/3
f 249/1/4 250/1/4 251/1/4 252/1/4
f 253/1/5 254/1/5 255/1/5 256/1/5
f 257/1/6 258/1/6 259/1/6 260/1/6
f 261/1/3 262/1/3 263/1/3 264/1/3
f 265/1/4 266/1/4 267/1/4 268/1/4
f 269/1/5 270/1/5 271/1/5 272/1/5
f 273/1/6 274/1/6 275/1/6 276/1/6
f 277/1/3 278/1/3 279/1/3 280/1/3
f 281/1/4 282/1/4 283/1/4 284/1/4
f 285/1/5 286/1/5 287/1/5 288/1/5
f 289/1/6 290/1/6 291/1/6 292/1/6
f 293/1/3 294/1/3 295/1/3 296/1/3
f 297/1/4 298/1/4 299/1/4 300/1/4
f 301/1/5 302/1/5 303/1/5 304/1/5
f 305/1/6 306/1/6 307/1/6 308/1/6
f 309/1/3 310/1/3 311/1/3 312/1/3
f 313/1/4 314/1/4 315/1/4 316/1/4
f 317/1/5 318/1/5 319/1/5 320/1/5
f 321/1/6 322/1/6 323/1/6 324/1/6
f 325/1/3 326/1/3 327/1/3 328/1/3
f 329/1/4 330/1/4 331/1/4 332/1/4
f 333/1/5 334/1/5 335/1/5 336/1/5
f 337/1/6 338/1/6 339/1/6 340/1/6
f 341/1/3 342/1/3 343/1/3 344/1/3
f 345/1/4 346/1/4 347/1/4 348/1/4
f 349/1/5 350/1/5 351/1/5 352/1/5
f 353/1/6 354/1/6 355/1/6 356/1/6
f 357/1/3 358/1/3 359/1/3 360/1/3
f 361/1/4 362/1/4 363/1/4 364/1/4
f 365/1/5 366/1/5 367/1/5 368/1/5
f 369/1/6 370/1/6 371/1/6 372/1/6
f 373/1/3 374/1/3 375/1/3 376/1/3
f 377/1/4 378/1/4 379/1/4 380/1/4
f 381/1/5 382/1/5 383/1/5 384/1/5
f 385/1/6 386/1/6 387/1/6 388/1/6
f 389/1/3 390/1/3 391/1/3 392/1/3
f 393/1/4 394/1/4 395/1/4 396/1/4
f 397/1/5 398/1/5 399/1/5 400/1/5
f 401/1/6 402/1/6 403/1/6 404/1/6
f 405/1/3 406/1/3 407/1/3 408/1/3
f 409/1/4 410/1/4 411/1/4 412/1/4
f 413/1/5 414/1/5 415/1/5 416/1/5
f 417/1/6 418/1/6 419/1/6 420/1/6
f 421/1/3 422/1/3 423/1/3 424/1/3
f 425/1/4 426/1/4 427/1/4 428/1/4
f 429/1/5 430/1/5 431/1/5 432/1/5
f 433/1/6 434/1/6 435/1/6 436/1/6
f 437/1/3 438/1/3 439/1/3 440/1/3
f 441/1/4 442/1/4 443/1/4 444/1/4
f 445/1/5 446/1/5 447/1/5 448/1/5
f 449/1/6 450/1/6 451/1/6 452/1/6
f 453/1/3 454/1/3 455/1/3 456/1/3
f 457/1/4 458/1/4 459/1/4 460/1/4
f 461/1/5 462/1/5 463/1/5 464/1/5
f 465/1/6 466/1/6 467/1/6 468/1/6
f 469/1/3 470/1/3 471/1/3 472/1/3
f 473/1/4 474/1/4 475/1/4 476/1/4
f 477/1/5 478/1/5 479/1/5 480/1/5
f 481/1/6 482/1/6 483/1/6 484/1/6
f 485/1/3 486/1/3 487/1/3 488/1/3
f 489/1/4 490/1/4 491/1/4 492/1/4
f 493/1/5 494/1/5 495/1/5 496/1/5
f 497/1/6 498/1/6 499/1/6 500/1/6
f 501/1/3 502/1/3 503/1/3 504/1/3
f 505/1/4 506/1/4 507/1/4 508/1/4
f 509/1/5 510/1/5 511/1/5 512/1/5
f 513/1/6 514/1/6 515/1/6 516/1/6
f 517/1/3 518/1/3 519/1/3 520/1/3
f 521/1/4 522/1/4 523/1/4 524/1/4
f 525/1/5 526/1/5 527/1/5 528/1/5
f 529/1/6 530/1/6 531/1/6 532/1/6
f 533/1/3 534/1/3 535/1/3 536/1/3
f 537/1/4 538/1/4 539/1/4 540/1/4
f 541/1/5 542/1/5 543/1/5 544/1/5
f 545/1/6 546/1/6 547/1/6 548/1/6
f 549/1/3 550/1/3 551/1/3 552/1/3
f 553/1/4 554/1/4 555/1/4 556/1/4
f 557/1/5 558/1/5 559/1/5 560/1/5
f 561/1/6 562/1/6 563/1/6 564/1/6
f 565/1/3 566/1/3 567/1/3 568/1/3
f 569/1/4 570/1/4 571/1/4 572/1/4
f 573/1/5 574/1/5 575/1/5 576/1/5
f 577/1/6 578/1/6 579/1/6 580/1/6
f 581/1/3 582/1/3 583/1/3 584/1/3
f 585/1/4 586/1/4 587/1/4 588/1/4
f 589/1/5 590/1/5 591/1/5 592/1/5
f 593/1/6 594/1/6 595/1/6 596/1/6
f 597/1/3 598/1/3 599/1/3 600/1/3
f 601/1/4 602/1/4 603/1/4 604/1/4
f 605/1/5 606/1/5 607/1/5 608/1/5
f 609/1/6 610/1/6 611/1/6 612/1/6
f 613/1/3 614/1/3 615/1/3 616/1/3
f 617/1/4 618/1/4 619/1/4 620/1/4
f 621/1/5 622/1/5 623/1/5 624/1/5
f 625/1/6 626/1/6 627/1/6 628/1/6
f 629/1/3 630/1/3 631/1/3 632/1/3
f 633/1/4 634/1/4 635/1/4 636/1/4
f 637/1/5 638/1/5 639/1/5 640/1/5
f 641/1/6 642/1/6 643/1/6 644/1/6
f 645/1/3 646/1/3 647/1/3 648/1/3
f 649/1/4 650/1/4 651/1/4 652/1/4
f 653/1/5 654/1/5 655/1/5 656/1/5
f 657/1/6 658/1/6 659/1/6 660/1/6
f 661/1/3 662/1/3 663/1/3 664/1/3
f 665/1/4 666/1/4 667/1/4 668/1/4
f 669/1/5 670/1/5 671/1/5 672/1/5
f 673/1/6 674/1/6 675/1/6 676/1/6
f 677/1/3 678/1/3 679/1/3 680/1/3
f 681/1/4 682/1/4 683/1/4 684/1/4
f 685/1/5 686/1/5 687/1/5 688/1/5
f 689/1/6 690/1/6 691/1/6 692/1/6
f 693/1/3 694/1/3 695/1/3 696/1/3
f 697/1/4 698/1/4 699/1/4 700/1/4
f 701/1/5 702/1/5 703/1/5 704/1/5
f 705/1/6 706/1/6 707/1/6 708/1/6
f 709/1/3 710/1/3 711/1/3 712/1/3
f 713/1/4 714/1/4 715/1/4 716/1/4
f 717/1/5 718/1/5 719/1/5 720/1/5
f 721/1/6 722/1/6 723/1/6 724/1/6
f 725/1/3 726/1/3 727/1/3 728/1/3
f 729/1/4 730/1/4 731/1/4 732/1/4
f 733/1/5 734/1/5 735/1/5 736/1/5
f 737/1/6 738/1/6 739/1/6 740/1/6
f 741/1/3 742/1/3 743/1/3 744/1/3
f 745/1/4 746/1/4 747/1/4 748/1/4
f 749/1/5 750/1/5 751/1/5 752/1/5
f 753/1/6 754/1/6 755/1/6 756/1/6
f 757/1/3 758/1/3 759/1/3 760/1/3
f 761/1/4 762/1/4 763/1/4 764/1/4
f 765/1/5 766/1/5 767/1/5 768/1/5
f 769/1/6 770/1/6 771/1/6 772/1/6
f 773/1/3 774/1/3 775/1/3 776/1/3
f 777/1/4 778/1/4 779/1/4 780/1/4
f 781/1/5 782/1/5 783/1/5 784/1/5
f 785/1/6 786/1/6 787/1/6 788/1/6
f 789/1/3 790/1/3 791/1/3 792/1/3
f 793/1/4 794/1/4 795/1/4 796/1/4
f 797/1/5 798/1/5 799/1/5 800/1/5
f 801/1/6 802/1/6 803/1/6 804/1/6
f 805/1/3 806/1/3 807/1/3 808/1/3
f 809/1/4 810/1/4 811/1/4 812/1/4
f 813/1/5 814/1/5 815/1/5 816/1/5
f 817/1/6 818/1/6 819/1/6 820/1/6
f 821/1/3 822/1/3 823/1/3 824/1/3
f 825/1/4 826/1/4 827/1/4 828/1/4
f 829/1/5 830/1/5 831/1/5 832/1/5
f 833/1/6 834/1/6 835/1/6 836/1/6
f 837/1/3 838/1/3 839/1/3 840/1/3
f 841/1/4 842/1/4 843/1/4 844/1/4
f 845/1/5 846/1/5 847/1/5 848/1/5
f 849/1/6 850/1/6 851/1/6 852/1/6
f 853/1/3 854/1/3 855/1/3 856/1/3
f 857/1/4 858/1/4 859/1/4 860/1/4
f 861/1/5 862/1/5 863/1/5 864/1/5
f 865/1/6 866/1/6 867/1/6 868/1/6
f 869/1/3 870/1/3 871/1/3 872/1/3
f 873/1/4 874/1/4 875/1/4 876/1/4
f 877/1/5 878/1/5 879/1/5 880/1/5
f 881/1/6 882/1/6 883/1/6 884/1/6
f 885/1/3 886/1/3 887/1/3 888/1/3
f 889/1/4 890/1/4 891/1/4 892/1/4
f 893/1/5 894/1/5 895/1/5 896/1/5
f 897/1/6 898/1/6 899/1/6 900/1/6
f 901/1/3 902/1/3 903/1/3 904/1/3
f 905/1/4 906/1/4 907/1/4 908/1/4
f 909/1/5 910/1/5 911/1/5 912/1/5
f 913/1/6 914/1/6 915/1/6 916/1/6
f 917/1/3 918/1/3 919/1/3 920/1/3
f 921/1/4 922/1/4 923/1/4 924/1/4
f 925/1/5 926/1/5 927/1/5 928/1/5
f 929/1/6 930/1/6 931/1/6 932/1/6
f 933/1/3 934/1/3 935/1/3 936/1/3
f 937/1/4 938/1/4 939/1/4 940/1/4
f 941/1/5 942/1/5 943/1/5 944/1/5
f 945/1/6 946/1/6 947/1/6 948/1/6
f 949/1/3 950/1/3 951/1/3 952/1/3
f 953/1/4 954/1/4 955/1/4 956/1/4
f 957/1/5 958/1/5 959/1/5 960/1/5
f 961/1/6 962/1/6 963/1/6 964/1/6
f 965/1/3 966/1/3 967/1/3 968/1/3
f 969/1/4 970/1/4 971/1/4 972/1/4
f 973/1/5 974/1/5 975/1/5 976/1/5
f 977/1/6 978/1/6 979/1/6 980/1/6
f 981/1/3 982/1/3 983/1/3 984/1/3
f 985/1/4 986/1/4 987/1/4 988/1/4
f 989/1/5 990/1/5 991/1/5 992/1/5
f 993/1/6 994/1/6 995/1/6 996/1/6
f 997/1/3 998/1/3 999/1/3 1000/1/3
f 1001/1/4 1002/1/4 1003/1/4 1004/1/4
f 1005/1/5 1006/1/5 1007/1/5 1008/1/5
f 1009/1/6 1010/1/6 1011/1/6 1012/1/6
f 1013/1/3 1014/1/3 1015/1/3 1016/1/3
f 1017/1/4 1018/1/4 1019/1/4 1020/1/4
f 1021/1/5 1022/1/5 1023/1/5 1024/1/5
f 1025/1/6 1026/1/6 1027/1/6 1028/1/6
f 1029/1/3 1030/1/3 1031/1/3 1032/1/3
f 1033/1/4 1034/1/4 1035/1/4 1036/1/4
f 1037/1/5 1038/1/5 1039/1/5 1040/1/5
f 1041/1/6 1042/1/6 1043/1/6 1044/1/6
f 1045/1/3 1046/1/3 1047/1/3 1048/1/3
f 1049/1/4 1050/1/4 1051/1/4 1052/1/4
f 1053/1/5 1054/1/5 1055/1/5 1056/1/5
f 1057/1/6 1058/1/6 1059/1/6 1060/1/6
f 1061/1/2 1062/1/2 1063/1/2 1064/1/2
f 1065/1/3 1066/1/3 1067/1/3 1068/1/3
f 1069/1/4 1070/1/4 1071/1/4 1072/1/4
f 1073/1/5 1074/1/5 1075/1/5 1076/1/5
f 1077/1/6 1078/1/6 1079/1/6 1080/1/6
f 1081/1/1 1082/1/1 1083/1/1 1084/1/1
f 1085/1/3 1086/1/3 1087/1/3 1088/1/3
f 1089/1/4 1090/1/4 1091/1/4 1092/1/4
f 1093/1/5 1094/1/5 1095/1/5 1096/1/5
f 1097/1/6 1098/1/6 1099/1/6 1100/1/6
f 1101/1/3 1102/1/3 1103/1/3 1104/1/3
f 1105/1/4 1106/1/4 1107/1/4 1108/1/4
f 1109/1/5 1110/1/5 1111/1/5 1112/1/5
f 1113/1/6 1114/1/6 1115/1/6 1116/1/6
f 1117/1/3 1118/1/3 1119/1/3 1120/1/3
f 1121/1/4 1122/1/4 1123/1/4 1124/1/4
f 1125/1/5 1126/1/5 1127/1/5 1128/1/5
f 1129/1/6 1130/1/6 1131/1/6 1132/1/6
f 1133/1/3 1134/1/3 1135/1/3 1136/1/3
f 1137/1/4 1138/1/4 1139/1/4 1140/1/4
f 1141/1/5 1142/1/5 1143/1/5 1144/1/5
f 1145/1/6 1146/1/6 1147/1/6 1148/1/6
f 1149/1/3 1150/1/3 1151/1/3 1152/1/3
f 1153/1/4 1154/1/4 1155/1/4 1156/1/4
f 1157/1/5 1158/1/5 1159/1/5 1160/1/5
f 1161/1/6 1162/1/6 1163/1/6 1164/1/6
f 1165/1/3 1166/1/3 1167/1/3 1168/1/3
f 1169/1/4 1170/1/4 1171/1/4 1172/1/4
f 1173/1/5 1174/1/5 1175/1/5 1176/1/5
f 1177/1/6 1178/1/6 1179/1/6 1180/1/6
f 1181/1/3 1182/1/3 1183/1/3 1184/1/3
f 1185/1/4 1186/1/4 1187/1/4 1188/1/4
f 1189/1/5 1190/1/5 1191/1/5 1192/1/5
f 1193/1/6 1194/1/6 1195/1/6 1196/1/6
f 1197/1/3 1198/1/3 1199/1/3 1200/1/3
f 1201/1/4 1202/1/4 1203/1/4 1204/1/4
f 1205/1/5 1206/1/5 1207/1/5 1208/1/5
f 1209/1/6 1210/1/6 1211/1/6 1212/1/6
f 1213/1/3 1214/1/3 1215/1/3 1216/1/3
f 1217/1/4 1218/1/4 1219/1/4 1220/1/4
f 1221/1/5 1222/1/5 1223/1/5 1224/1/5
f 1225/1/6 1226/1/6 1227/1/6 1228/1/6
f 1229/1/3 1230/1/3 1231/1/3 1232/1/3
f 1233/1/4 1234/1/4 1235/1/4 1236/1/4
f 1237/1/5 1238/1/5 1239/1/5 1240/1/5
f 1241/1/6 1242/1/6 1243/1/6 1244/1/6
f 1245/1/3 1246/1/3 1247/1/3 1248/1/3
f 1249/1/4 1250/1/4 1251/1/4 1252/1/4
f 1253/1/5 1254/1/5 1255/1/5 1256/1/5
f 1257/1/6 1258/1/6 1259/1/6 1260/1/6
f 1261/1/2 1262/1/2 1263/1/2 1264/1/2
f 1265/1/3 1266/1/3 1267/1/3 1268/1/3
f 1269/1/4 1270/1/4 1271/1/4 1272/1/4
f 1273/1/5 1274/1/5 1275/1/5 1276/1/5
f 1277/1/6 1278/1/6 1279/1/6 1280/1/6
f 1281/1/1 1282/1/1 1283/1/1 1284/1/1
f 1285/1/3 1286/1/3 1287/1/3 1288/1/3
f 1289/1/4 1290/1/4 1291/1/4 1292/1/4
f 1293/1/5 1294/1/5 1295/1/5 1296/1/5
f 1297/1/6 1298/1/6 1299/1/6 1300/1/6
f 1301/1/3 1302/1/3 1303/1/3 1304/1/3
f 1305/1/4 1306/1/4 1307/1/4 1308/1/4
f 1309/1/5 1310/1/5 1311/1/5 1312/1/5
f 1313/1/6 1314/1/6 1315/1/6 1316/1/6
f 1317/1/3 1318/1/3 1319/1/3 1320/1/3
f 1321/1/4 1322/1/4 1323/1/4 1324/1/4
f 1325/1/5 1326/1/5 1327/1/5 1328/1/5
f 1329/1/6 1330/1/6 1331/1/6 1332/1/6
f 1333/1/3 1334/1/3 1335/1/3 1336/1/3
f 1337/1/4 1338/1/4 1339/1/4 1340/1/4
f 1341/1/5 1342/1/5 1343/1/5 1344/1/5
f 1345/1/6 1346/1/6 1347/1/6 1348/1/6
f 1349/1/3 1350/1/3 1351/1/3 1352/1/3
f 1353/1/4 1354/1/4 1355/1/4 1356/1/4
f 1357/1/5 1358/1/5 1359/1/5 1360/1/5
f 1361/1/6 1362/1/6 1363/1/6 1364/1/6
f 1365/1/3 1366/1/3 1367/1/3 1368/1/3
f 1369/1/4 1370/1/4 1371/1/4 1372/1/4
f 1373/1/5 1374/1/5 1375/1/5 1376/1/5
f 1377/1/6 1378/1/6 1379/1/6 1380/1/6
f 1381/1/3 1382/1/3 1383/1/3 1384/1/3
f 1385/1/4 1386/1/4 1387/1/4 1388/1/4
f 1389/1/5 1390/1/5 1391/1/5 1392/1/5
f 1393/1/6 1394/1/6 1395/1/6 1396/1/6
f 1397/1/2 1398/1/2 1399/1/2 1400/1/2
f 1401/1/3 1402/1/3 1403/1/3 1404/1/3
f 1405/1/4 1406/1/4 1407/1/4 1408/1/4
f 1409/1/5 1410/1/5 1411/1/5 1412/1/5
f 1413/1/6 1414/1/6 1415/1/6 1416/1/6

