# generated by vox_to_obj_exporter
# scale=0.1 center=false ground=false y_up=true

mtllib Fight_026.mtl
usemtl palette

# normals
vn -1 0 0
vn 1 0 0
vn 0 1 0
vn 0 -1 0
vn 0 0 1
vn 0 0 -1

# texcoords
vt 0.142578125 0.5
vt 0.236328125 0.5

# verts
v 16.6 16.6 -2.6
v 16.6 16.5 -2.6
v 16.6 16.5 -2.5
v 16.6 16.6 -2.5
v 16.7 16.6 -2.5
v 16.7 16.5 -2.5
v 16.7 16.5 -2.6
v 16.7 16.6 -2.6
v 16.6 16.6 -2.6
v 16.6 16.6 -2.5
v 16.7 16.6 -2.5
v 16.7 16.6 -2.6
v 16.6 16.6 -2.5
v 16.6 16.5 -2.5
v 16.7 16.5 -2.5
v 16.7 16.6 -2.5
v 16.7 16.6 -2.6
v 16.7 16.5 -2.6
v 16.6 16.5 -2.6
v 16.6 16.6 -2.6
v 16.6 16.5 -2.6
v 16.6 16.4 -2.6
v 16.6 16.4 -2.5
v 16.6 16.5 -2.5
v 16.7 16.5 -2.5
v 16.7 16.4 -2.5
v 16.7 16.4 -2.6
v 16.7 16.5 -2.6
v 16.6 16.4 -2.5
v 16.6 16.4 -2.6
v 16.7 16.4 -2.6
v 16.7 16.4 -2.5
v 16.6 16.5 -2.5
v 16.6 16.4 -2.5
v 16.7 16.4 -2.5
v 16.7 16.5 -2.5
v 16.7 16.5 -2.6
v 16.7 16.4 -2.6
v 16.6 16.4 -2.6
v 16.6 16.5 -2.6
v 16.7 16.4 -2.6
v 16.7 16.3 -2.6
v 16.7 16.3 -2.5
v 16.7 16.4 -2.5
v 16.8 16.4 -2.5
v 16.8 16.3 -2.5
v 16.8 16.3 -2.6
v 16.8 16.4 -2.6
v 16.7 16.4 -2.6
v 16.7 16.4 -2.5
v 16.8 16.4 -2.5
v 16.8 16.4 -2.6
v 16.7 16.3 -2.5
v 16.7 16.3 -2.6
v 16.8 16.3 -2.6
v 16.8 16.3 -2.5
v 16.7 16.4 -2.5
v 16.7 16.3 -2.5
v 16.8 16.3 -2.5
v 16.8 16.4 -2.5
v 16.8 16.4 -2.6
v 16.8 16.3 -2.6
v 16.7 16.3 -2.6
v 16.7 16.4 -2.6
v 16.8 16.3 -2.6
v 16.8 16.2 -2.6
v 16.8 16.2 -2.5
v 16.8 16.3 -2.5
v 16.9 16.3 -2.5
v 16.9 16.2 -2.5
v 16.9 16.2 -2.6
v 16.9 16.3 -2.6
v 16.8 16.3 -2.6
v 16.8 16.3 -2.5
v 16.9 16.3 -2.5
v 16.9 16.3 -2.6
v 16.8 16.3 -2.5
v 16.8 16.2 -2.5
v 16.9 16.2 -2.5
v 16.9 16.3 -2.5
v 16.9 16.3 -2.6
v 16.9 16.2 -2.6
v 16.8 16.2 -2.6
v 16.8 16.3 -2.6
v 16.8 16.2 -2.6
v 16.8 16.1 -2.6
v 16.8 16.1 -2.5
v 16.8 16.2 -2.5
v 16.9 16.2 -2.5
v 16.9 16.1 -2.5
v 16.9 16.1 -2.6
v 16.9 16.2 -2.6
v 16.8 16.1 -2.5
v 16.8 16.1 -2.6
v 16.9 16.1 -2.6
v 16.9 16.1 -2.5
v 16.8 16.2 -2.5
v 16.8 16.1 -2.5
v 16.9 16.1 -2.5
v 16.9 16.2 -2.5
v 16.9 16.2 -2.6
v 16.9 16.1 -2.6
v 16.8 16.1 -2.6
v 16.8 16.2 -2.6
v 16.9 16.1 -2.6
v 16.9 16 -2.6
v 16.9 16 -2.5
v 16.9 16.1 -2.5
v 17 16.1 -2.5
v 17 16 -2.5
v 17 16 -2.6
v 17 16.1 -2.6
v 16.9 16.1 -2.6
v 16.9 16.1 -2.5
v 17 16.1 -2.5
v 17 16.1 -2.6
v 16.9 16.1 -2.5
v 16.9 16 -2.5
v 17 16 -2.5
v 17 16.1 -2.5
v 17 16.1 -2.6
v 17 16 -2.6
v 16.9 16 -2.6
v 16.9 16.1 -2.6
v 16.9 16 -2.6
v 16.9 15.9 -2.6
v 16.9 15.9 -2.5
v 16.9 16 -2.5
v 17 16 -2.5
v 17 15.9 -2.5
v 17 15.9 -2.6
v 17 16 -2.6
v 16.9 15.9 -2.5
v 16.9 15.9 -2.6
v 17 15.9 -2.6
v 17 15.9 -2.5
v 16.9 16 -2.5
v 16.9 15.9 -2.5
v 17 15.9 -2.5
v 17 16 -2.5
v 17 16 -2.6
v 17 15.9 -2.6
v 16.9 15.9 -2.6
v 16.9 16 -2.6
v 17 15.9 -2.6
v 17 15.8 -2.6
v 17 15.8 -2.5
v 17 15.9 -2.5
v 17.1 15.9 -2.5
v 17.1 15.8 -2.5
v 17.1 15.8 -2.6
v 17.1 15.9 -2.6
v 17 15.9 -2.6
v 17 15.9 -2.5
v 17.1 15.9 -2.5
v 17.1 15.9 -2.6
v 17 15.8 -2.5
v 17 15.8 -2.6
v 17.1 15.8 -2.6
v 17.1 15.8 -2.5
v 17 15.9 -2.5
v 17 15.8 -2.5
v 17.1 15.8 -2.5
v 17.1 15.9 -2.5
v 17.1 15.9 -2.6
v 17.1 15.8 -2.6
v 17 15.8 -2.6
v 17 15.9 -2.6
v 17.1 15.8 -2.6
v 17.1 15.7 -2.6
v 17.1 15.7 -2.5
v 17.1 15.8 -2.5
v 17.2 15.8 -2.5
v 17.2 15.7 -2.5
v 17.2 15.7 -2.6
v 17.2 15.8 -2.6
v 17.1 15.8 -2.6
v 17.1 15.8 -2.5
v 17.2 15.8 -2.5
v 17.2 15.8 -2.6
v 17.1 15.8 -2.5
v 17.1 15.7 -2.5
v 17.2 15.7 -2.5
v 17.2 15.8 -2.5
v 17.2 15.8 -2.6
v 17.2 15.7 -2.6
v 17.1 15.7 -2.6
v 17.1 15.8 -2.6
v 17.1 15.7 -2.6
v 17.1 15.6 -2.6
v 17.1 15.6 -2.5
v 17.1 15.7 -2.5
v 17.2 15.7 -2.5
v 17.2 15.6 -2.5
v 17.2 15.6 -2.6
v 17.2 15.7 -2.6
v 17.1 15.6 -2.5
v 17.1 15.6 -2.6
v 17.2 15.6 -2.6
v 17.2 15.6 -2.5
v 17.1 15.7 -2.5
v 17.1 15.6 -2.5
v 17.2 15.6 -2.5
v 17.2 15.7 -2.5
v 17.2 15.7 -2.6
v 17.2 15.6 -2.6
v 17.1 15.6 -2.6
v 17.1 15.7 -2.6
v 17.2 15.6 -2.6
v 17.2 15.5 -2.6
v 17.2 15.5 -2.5
v 17.2 15.6 -2.5
v 17.3 15.6 -2.5
v 17.3 15.5 -2.5
v 17.3 15.5 -2.6
v 17.3 15.6 -2.6
v 17.2 15.6 -2.6
v 17.2 15.6 -2.5
v 17.3 15.6 -2.5
v 17.3 15.6 -2.6
v 17.2 15.5 -2.5
v 17.2 15.5 -2.6
v 17.3 15.5 -2.6
v 17.3 15.5 -2.5
v 17.2 15.6 -2.5
v 17.2 15.5 -2.5
v 17.3 15.5 -2.5
v 17.3 15.6 -2.5
v 17.3 15.6 -2.6
v 17.3 15.5 -2.6
v 17.2 15.5 -2.6
v 17.2 15.6 -2.6
v 17.3 15.5 -2.6
v 17.3 15.4 -2.6
v 17.3 15.4 -2.5
v 17.3 15.5 -2.5
v 17.4 15.5 -2.5
v 17.4 15.4 -2.5
v 17.4 15.4 -2.6
v 17.4 15.5 -2.6
v 17.3 15.5 -2.6
v 17.3 15.5 -2.5
v 17.4 15.5 -2.5
v 17.4 15.5 -2.6
v 17.3 15.5 -2.5
v 17.3 15.4 -2.5
v 17.4 15.4 -2.5
v 17.4 15.5 -2.5
v 17.4 15.5 -2.6
v 17.4 15.4 -2.6
v 17.3 15.4 -2.6
v 17.3 15.5 -2.6
v 17.3 15.4 -2.6
v 17.3 15.3 -2.6
v 17.3 15.3 -2.5
v 17.3 15.4 -2.5
v 17.4 15.4 -2.5
v 17.4 15.3 -2.5
v 17.4 15.3 -2.6
v 17.4 15.4 -2.6
v 17.3 15.3 -2.5
v 17.3 15.3 -2.6
v 17.4 15.3 -2.6
v 17.4 15.3 -2.5
v 17.3 15.4 -2.5
v 17.3 15.3 -2.5
v 17.4 15.3 -2.5
v 17.4 15.4 -2.5
v 17.4 15.4 -2.6
v 17.4 15.3 -2.6
v 17.3 15.3 -2.6
v 17.3 15.4 -2.6
v 17.4 15.3 -2.6
v 17.4 15.2 -2.6
v 17.4 15.2 -2.5
v 17.4 15.3 -2.5
v 17.5 15.3 -2.5
v 17.5 15.2 -2.5
v 17.5 15.2 -2.6
v 17.5 15.3 -2.6
v 17.4 15.3 -2.6
v 17.4 15.3 -2.5
v 17.5 15.3 -2.5
v 17.5 15.3 -2.6
v 17.4 15.2 -2.5
v 17.4 15.2 -2.6
v 17.5 15.2 -2.6
v 17.5 15.2 -2.5
v 17.4 15.3 -2.5
v 17.4 15.2 -2.5
v 17.5 15.2 -2.5
v 17.5 15.3 -2.5
v 17.5 15.3 -2.6
v 17.5 15.2 -2.6
v 17.4 15.2 -2.6
v 17.4 15.3 -2.6
v 17.5 15.2 -2.6
v 17.5 15.1 -2.6
v 17.5 15.1 -2.5
v 17.5 15.2 -2.5
v 17.6 15.2 -2.5
v 17.6 15.1 -2.5
v 17.6 15.1 -2.6
v 17.6 15.2 -2.6
v 17.5 15.2 -2.6
v 17.5 15.2 -2.5
v 17.6 15.2 -2.5
v 17.6 15.2 -2.6
v 17.5 15.2 -2.5
v 17.5 15.1 -2.5
v 17.6 15.1 -2.5
v 17.6 15.2 -2.5
v 17.6 15.2 -2.6
v 17.6 15.1 -2.6
v 17.5 15.1 -2.6
v 17.5 15.2 -2.6
v 17.5 15.1 -2.6
v 17.5 15 -2.6
v 17.5 15 -2.5
v 17.5 15.1 -2.5
v 17.6 15.1 -2.5
v 17.6 15 -2.5
v 17.6 15 -2.6
v 17.6 15.1 -2.6
v 17.5 15 -2.5
v 17.5 15 -2.6
v 17.6 15 -2.6
v 17.6 15 -2.5
v 17.5 15.1 -2.5
v 17.5 15 -2.5
v 17.6 15 -2.5
v 17.6 15.1 -2.5
v 17.6 15.1 -2.6
v 17.6 15 -2.6
v 17.5 15 -2.6
v 17.5 15.1 -2.6
v 17.6 15 -2.6
v 17.6 14.9 -2.6
v 17.6 14.9 -2.5
v 17.6 15 -2.5
v 17.7 15 -2.5
v 17.7 14.9 -2.5
v 17.7 14.9 -2.6
v 17.7 15 -2.6
v 17.6 15 -2.6
v 17.6 15 -2.5
v 17.7 15 -2.5
v 17.7 15 -2.6
v 17.6 15 -2.5
v 17.6 14.9 -2.5
v 17.7 14.9 -2.5
v 17.7 15 -2.5
v 17.7 15 -2.6
v 17.7 14.9 -2.6
v 17.6 14.9 -2.6
v 17.6 15 -2.6
v 17.6 14.9 -2.6
v 17.6 14.8 -2.6
v 17.6 14.8 -2.5
v 17.6 14.9 -2.5
v 17.7 14.9 -2.5
v 17.7 14.8 -2.5
v 17.7 14.8 -2.6
v 17.7 14.9 -2.6
v 17.6 14.8 -2.5
v 17.6 14.8 -2.6
v 17.7 14.8 -2.6
v 17.7 14.8 -2.5
v 17.6 14.9 -2.5
v 17.6 14.8 -2.5
v 17.7 14.8 -2.5
v 17.7 14.9 -2.5
v 17.7 14.9 -2.6
v 17.7 14.8 -2.6
v 17.6 14.8 -2.6
v 17.6 14.9 -2.6
v 17.7 14.8 -2.6
v 17.7 14.7 -2.6
v 17.7 14.7 -2.5
v 17.7 14.8 -2.5
v 17.8 14.8 -2.5
v 17.8 14.7 -2.5
v 17.8 14.7 -2.6
v 17.8 14.8 -2.6
v 17.7 14.8 -2.6
v 17.7 14.8 -2.5
v 17.8 14.8 -2.5
v 17.8 14.8 -2.6
v 17.7 14.7 -2.5
v 17.7 14.7 -2.6
v 17.8 14.7 -2.6
v 17.8 14.7 -2.5
v 17.7 14.8 -2.5
v 17.7 14.7 -2.5
v 17.8 14.7 -2.5
v 17.8 14.8 -2.5
v 17.8 14.8 -2.6
v 17.8 14.7 -2.6
v 17.7 14.7 -2.6
v 17.7 14.8 -2.6
v 17.8 14.7 -2.6
v 17.8 14.6 -2.6
v 17.8 14.6 -2.5
v 17.8 14.7 -2.5
v 17.9 14.7 -2.5
v 17.9 14.6 -2.5
v 17.9 14.6 -2.6
v 17.9 14.7 -2.6
v 17.8 14.7 -2.6
v 17.8 14.7 -2.5
v 17.9 14.7 -2.5
v 17.9 14.7 -2.6
v 17.8 14.7 -2.5
v 17.8 14.6 -2.5
v 17.9 14.6 -2.5
v 17.9 14.7 -2.5
v 17.9 14.7 -2.6
v 17.9 14.6 -2.6
v 17.8 14.6 -2.6
v 17.8 14.7 -2.6
v 17.8 14.6 -2.6
v 17.8 14.5 -2.6
v 17.8 14.5 -2.5
v 17.8 14.6 -2.5
v 17.9 14.6 -2.5
v 17.9 14.5 -2.5
v 17.9 14.5 -2.6
v 17.9 14.6 -2.6
v 17.8 14.5 -2.5
v 17.8 14.5 -2.6
v 17.9 14.5 -2.6
v 17.9 14.5 -2.5
v 17.8 14.6 -2.5
v 17.8 14.5 -2.5
v 17.9 14.5 -2.5
v 17.9 14.6 -2.5
v 17.9 14.6 -2.6
v 17.9 14.5 -2.6
v 17.8 14.5 -2.6
v 17.8 14.6 -2.6
v 17.9 14.5 -2.6
v 17.9 14.4 -2.6
v 17.9 14.4 -2.5
v 17.9 14.5 -2.5
v 18 14.5 -2.5
v 18 14.4 -2.5
v 18 14.4 -2.6
v 18 14.5 -2.6
v 17.9 14.5 -2.6
v 17.9 14.5 -2.5
v 18 14.5 -2.5
v 18 14.5 -2.6
v 17.9 14.4 -2.5
v 17.9 14.4 -2.6
v 18 14.4 -2.6
v 18 14.4 -2.5
v 17.9 14.5 -2.5
v 17.9 14.4 -2.5
v 18 14.4 -2.5
v 18 14.5 -2.5
v 18 14.5 -2.6
v 18 14.4 -2.6
v 17.9 14.4 -2.6
v 17.9 14.5 -2.6
v 18 14.4 -2.6
v 18 14.3 -2.6
v 18 14.3 -2.5
v 18 14.4 -2.5
v 18.1 14.4 -2.5
v 18.1 14.3 -2.5
v 18.1 14.3 -2.6
v 18.1 14.4 -2.6
v 18 14.4 -2.6
v 18 14.4 -2.5
v 18.1 14.4 -2.5
v 18.1 14.4 -2.6
v 18 14.4 -2.5
v 18 14.3 -2.5
v 18.1 14.3 -2.5
v 18.1 14.4 -2.5
v 18.1 14.4 -2.6
v 18.1 14.3 -2.6
v 18 14.3 -2.6
v 18 14.4 -2.6
v 18 14.3 -2.6
v 18 14.2 -2.6
v 18 14.2 -2.5
v 18 14.3 -2.5
v 18.1 14.3 -2.5
v 18.1 14.2 -2.5
v 18.1 14.2 -2.6
v 18.1 14.3 -2.6
v 18 14.2 -2.5
v 18 14.2 -2.6
v 18.1 14.2 -2.6
v 18.1 14.2 -2.5
v 18 14.3 -2.5
v 18 14.2 -2.5
v 18.1 14.2 -2.5
v 18.1 14.3 -2.5
v 18.1 14.3 -2.6
v 18.1 14.2 -2.6
v 18 14.2 -2.6
v 18 14.3 -2.6
v 18.1 14.2 -2.6
v 18.1 14.1 -2.6
v 18.1 14.1 -2.5
v 18.1 14.2 -2.5
v 18.2 14.2 -2.5
v 18.2 14.1 -2.5
v 18.2 14.1 -2.6
v 18.2 14.2 -2.6
v 18.1 14.2 -2.6
v 18.1 14.2 -2.5
v 18.2 14.2 -2.5
v 18.2 14.2 -2.6
v 18.1 14.1 -2.5
v 18.1 14.1 -2.6
v 18.2 14.1 -2.6
v 18.2 14.1 -2.5
v 18.1 14.2 -2.5
v 18.1 14.1 -2.5
v 18.2 14.1 -2.5
v 18.2 14.2 -2.5
v 18.2 14.2 -2.6
v 18.2 14.1 -2.6
v 18.1 14.1 -2.6
v 18.1 14.2 -2.6
v 18.2 14.1 -2.6
v 18.2 14 -2.6
v 18.2 14 -2.5
v 18.2 14.1 -2.5
v 18.3 14.1 -2.5
v 18.3 14 -2.5
v 18.3 14 -2.6
v 18.3 14.1 -2.6
v 18.2 14.1 -2.6
v 18.2 14.1 -2.5
v 18.3 14.1 -2.5
v 18.3 14.1 -2.6
v 18.2 14.1 -2.5
v 18.2 14 -2.5
v 18.3 14 -2.5
v 18.3 14.1 -2.5
v 18.3 14.1 -2.6
v 18.3 14 -2.6
v 18.2 14 -2.6
v 18.2 14.1 -2.6
v 18.2 14 -2.6
v 18.2 13.9 -2.6
v 18.2 13.9 -2.5
v 18.2 14 -2.5
v 18.3 14 -2.5
v 18.3 13.9 -2.5
v 18.3 13.9 -2.6
v 18.3 14 -2.6
v 18.2 13.9 -2.5
v 18.2 13.9 -2.6
v 18.3 13.9 -2.6
v 18.3 13.9 -2.5
v 18.2 14 -2.5
v 18.2 13.9 -2.5
v 18.3 13.9 -2.5
v 18.3 14 -2.5
v 18.3 14 -2.6
v 18.3 13.9 -2.6
v 18.2 13.9 -2.6
v 18.2 14 -2.6
v 18.3 13.9 -2.6
v 18.3 13.8 -2.6
v 18.3 13.8 -2.5
v 18.3 13.9 -2.5
v 18.4 13.9 -2.5
v 18.4 13.8 -2.5
v 18.4 13.8 -2.6
v 18.4 13.9 -2.6
v 18.3 13.9 -2.6
v 18.3 13.9 -2.5
v 18.4 13.9 -2.5
v 18.4 13.9 -2.6
v 18.3 13.9 -2.5
v 18.3 13.8 -2.5
v 18.4 13.8 -2.5
v 18.4 13.9 -2.5
v 18.4 13.9 -2.6
v 18.4 13.8 -2.6
v 18.3 13.8 -2.6
v 18.3 13.9 -2.6
v 18.3 13.8 -2.6
v 18.3 13.7 -2.6
v 18.3 13.7 -2.5
v 18.3 13.8 -2.5
v 18.4 13.8 -2.5
v 18.4 13.7 -2.5
v 18.4 13.7 -2.6
v 18.4 13.8 -2.6
v 18.3 13.7 -2.5
v 18.3 13.7 -2.6
v 18.4 13.7 -2.6
v 18.4 13.7 -2.5
v 18.3 13.8 -2.5
v 18.3 13.7 -2.5
v 18.4 13.7 -2.5
v 18.4 13.8 -2.5
v 18.4 13.8 -2.6
v 18.4 13.7 -2.6
v 18.3 13.7 -2.6
v 18.3 13.8 -2.6
v 18.4 13.7 -2.6
v 18.4 13.6 -2.6
v 18.4 13.6 -2.5
v 18.4 13.7 -2.5
v 18.5 13.7 -2.5
v 18.5 13.6 -2.5
v 18.5 13.6 -2.6
v 18.5 13.7 -2.6
v 18.4 13.7 -2.6
v 18.4 13.7 -2.5
v 18.5 13.7 -2.5
v 18.5 13.7 -2.6
v 18.4 13.6 -2.5
v 18.4 13.6 -2.6
v 18.5 13.6 -2.6
v 18.5 13.6 -2.5
v 18.4 13.7 -2.5
v 18.4 13.6 -2.5
v 18.5 13.6 -2.5
v 18.5 13.7 -2.5
v 18.5 13.7 -2.6
v 18.5 13.6 -2.6
v 18.4 13.6 -2.6
v 18.4 13.7 -2.6
v 18.5 13.6 -2.6
v 18.5 13.5 -2.6
v 18.5 13.5 -2.5
v 18.5 13.6 -2.5
v 18.6 13.6 -2.5
v 18.6 13.5 -2.5
v 18.6 13.5 -2.6
v 18.6 13.6 -2.6
v 18.5 13.6 -2.6
v 18.5 13.6 -2.5
v 18.6 13.6 -2.5
v 18.6 13.6 -2.6
v 18.5 13.6 -2.5
v 18.5 13.5 -2.5
v 18.6 13.5 -2.5
v 18.6 13.6 -2.5
v 18.6 13.6 -2.6
v 18.6 13.5 -2.6
v 18.5 13.5 -2.6
v 18.5 13.6 -2.6
v 18.5 13.5 -2.6
v 18.5 13.4 -2.6
v 18.5 13.4 -2.5
v 18.5 13.5 -2.5
v 18.6 13.5 -2.5
v 18.6 13.4 -2.5
v 18.6 13.4 -2.6
v 18.6 13.5 -2.6
v 18.5 13.4 -2.5
v 18.5 13.4 -2.6
v 18.6 13.4 -2.6
v 18.6 13.4 -2.5
v 18.5 13.5 -2.5
v 18.5 13.4 -2.5
v 18.6 13.4 -2.5
v 18.6 13.5 -2.5
v 18.6 13.5 -2.6
v 18.6 13.4 -2.6
v 18.5 13.4 -2.6
v 18.5 13.5 -2.6
v 18.6 13.4 -2.6
v 18.6 13.3 -2.6
v 18.6 13.3 -2.5
v 18.6 13.4 -2.5
v 18.7 13.4 -2.5
v 18.7 13.3 -2.5
v 18.7 13.3 -2.6
v 18.7 13.4 -2.6
v 18.6 13.4 -2.6
v 18.6 13.4 -2.5
v 18.7 13.4 -2.5
v 18.7 13.4 -2.6
v 18.6 13.3 -2.5
v 18.6 13.3 -2.6
v 18.7 13.3 -2.6
v 18.7 13.3 -2.5
v 18.6 13.4 -2.5
v 18.6 13.3 -2.5
v 18.7 13.3 -2.5
v 18.7 13.4 -2.5
v 18.7 13.4 -2.6
v 18.7 13.3 -2.6
v 18.6 13.3 -2.6
v 18.6 13.4 -2.6
v 18.7 13.3 -2.6
v 18.7 13.2 -2.6
v 18.7 13.2 -2.5
v 18.7 13.3 -2.5
v 18.8 13.3 -2.5
v 18.8 13.2 -2.5
v 18.8 13.2 -2.6
v 18.8 13.3 -2.6
v 18.7 13.3 -2.6
v 18.7 13.3 -2.5
v 18.8 13.3 -2.5
v 18.8 13.3 -2.6
v 18.7 13.3 -2.5
v 18.7 13.2 -2.5
v 18.8 13.2 -2.5
v 18.8 13.3 -2.5
v 18.8 13.3 -2.6
v 18.8 13.2 -2.6
v 18.7 13.2 -2.6
v 18.7 13.3 -2.6
v 18.7 13.2 -2.6
v 18.7 13.1 -2.6
v 18.7 13.1 -2.5
v 18.7 13.2 -2.5
v 18.8 13.2 -2.5
v 18.8 13.1 -2.5
v 18.8 13.1 -2.6
v 18.8 13.2 -2.6
v 18.7 13.1 -2.5
v 18.7 13.1 -2.6
v 18.8 13.1 -2.6
v 18.8 13.1 -2.5
v 18.7 13.2 -2.5
v 18.7 13.1 -2.5
v 18.8 13.1 -2.5
v 18.8 13.2 -2.5
v 18.8 13.2 -2.6
v 18.8 13.1 -2.6
v 18.7 13.1 -2.6
v 18.7 13.2 -2.6
v 18.8 13.1 -2.6
v 18.8 13 -2.6
v 18.8 13 -2.5
v 18.8 13.1 -2.5
v 18.9 13.1 -2.5
v 18.9 13 -2.5
v 18.9 13 -2.6
v 18.9 13.1 -2.6
v 18.8 13.1 -2.6
v 18.8 13.1 -2.5
v 18.9 13.1 -2.5
v 18.9 13.1 -2.6
v 18.8 13.1 -2.5
v 18.8 13 -2.5
v 18.9 13 -2.5
v 18.9 13.1 -2.5
v 18.9 13.1 -2.6
v 18.9 13 -2.6
v 18.8 13 -2.6
v 18.8 13.1 -2.6
v 18.8 13 -2.6
v 18.8 12.9 -2.6
v 18.8 12.9 -2.5
v 18.8 13 -2.5
v 18.9 13 -2.5
v 18.9 12.9 -2.5
v 18.9 12.9 -2.6
v 18.9 13 -2.6
v 18.8 12.9 -2.5
v 18.8 12.9 -2.6
v 18.9 12.9 -2.6
v 18.9 12.9 -2.5
v 18.8 13 -2.5
v 18.8 12.9 -2.5
v 18.9 12.9 -2.5
v 18.9 13 -2.5
v 18.9 13 -2.6
v 18.9 12.9 -2.6
v 18.8 12.9 -2.6
v 18.8 13 -2.6
v 18.9 12.9 -2.6
v 18.9 12.8 -2.6
v 18.9 12.8 -2.5
v 18.9 12.9 -2.5
v 19 12.9 -2.5
v 19 12.8 -2.5
v 19 12.8 -2.6
v 19 12.9 -2.6
v 18.9 12.9 -2.6
v 18.9 12.9 -2.5
v 19 12.9 -2.5
v 19 12.9 -2.6
v 18.9 12.8 -2.5
v 18.9 12.8 -2.6
v 19 12.8 -2.6
v 19 12.8 -2.5
v 18.9 12.9 -2.5
v 18.9 12.8 -2.5
v 19 12.8 -2.5
v 19 12.9 -2.5
v 19 12.9 -2.6
v 19 12.8 -2.6
v 18.9 12.8 -2.6
v 18.9 12.9 -2.6
v 19 12.8 -2.6
v 19 12.7 -2.6
v 19 12.7 -2.5
v 19 12.8 -2.5
v 19.1 12.8 -2.5
v 19.1 12.7 -2.5
v 19.1 12.7 -2.6
v 19.1 12.8 -2.6
v 19 12.8 -2.6
v 19 12.8 -2.5
v 19.1 12.8 -2.5
v 19.1 12.8 -2.6
v 19 12.8 -2.5
v 19 12.7 -2.5
v 19.1 12.7 -2.5
v 19.1 12.8 -2.5
v 19.1 12.8 -2.6
v 19.1 12.7 -2.6
v 19 12.7 -2.6
v 19 12.8 -2.6
v 19 12.7 -2.6
v 19 12.6 -2.6
v 19 12.6 -2.5
v 19 12.7 -2.5
v 19.1 12.7 -2.5
v 19.1 12.6 -2.5
v 19.1 12.6 -2.6
v 19.1 12.7 -2.6
v 19 12.6 -2.5
v 19 12.6 -2.6
v 19.1 12.6 -2.6
v 19.1 12.6 -2.5
v 19 12.7 -2.5
v 19 12.6 -2.5
v 19.1 12.6 -2.5
v 19.1 12.7 -2.5
v 19.1 12.7 -2.6
v 19.1 12.6 -2.6
v 19 12.6 -2.6
v 19 12.7 -2.6
v 19.1 12.6 -2.6
v 19.1 12.5 -2.6
v 19.1 12.5 -2.5
v 19.1 12.6 -2.5
v 19.2 12.6 -2.5
v 19.2 12.5 -2.5
v 19.2 12.5 -2.6
v 19.2 12.6 -2.6
v 19.1 12.6 -2.6
v 19.1 12.6 -2.5
v 19.2 12.6 -2.5
v 19.2 12.6 -2.6
v 19.1 12.5 -2.5
v 19.1 12.5 -2.6
v 19.2 12.5 -2.6
v 19.2 12.5 -2.5
v 19.1 12.6 -2.5
v 19.1 12.5 -2.5
v 19.2 12.5 -2.5
v 19.2 12.6 -2.5
v 19.2 12.6 -2.6
v 19.2 12.5 -2.6
v 19.1 12.5 -2.6
v 19.1 12.6 -2.6
v 19.2 12.5 -2.6
v 19.2 12.4 -2.6
v 19.2 12.4 -2.5
v 19.2 12.5 -2.5
v 19.3 12.5 -2.5
v 19.3 12.4 -2.5
v 19.3 12.4 -2.6
v 19.3 12.5 -2.6
v 19.2 12.5 -2.6
v 19.2 12.5 -2.5
v 19.3 12.5 -2.5
v 19.3 12.5 -2.6
v 19.2 12.5 -2.5
v 19.2 12.4 -2.5
v 19.3 12.4 -2.5
v 19.3 12.5 -2.5
v 19.3 12.5 -2.6
v 19.3 12.4 -2.6
v 19.2 12.4 -2.6
v 19.2 12.5 -2.6
v 19.2 12.4 -2.6
v 19.2 12.3 -2.6
v 19.2 12.3 -2.5
v 19.2 12.4 -2.5
v 19.3 12.4 -2.5
v 19.3 12.3 -2.5
v 19.3 12.3 -2.6
v 19.3 12.4 -2.6
v 19.2 12.3 -2.5
v 19.2 12.3 -2.6
v 19.3 12.3 -2.6
v 19.3 12.3 -2.5
v 19.2 12.4 -2.5
v 19.2 12.3 -2.5
v 19.3 12.3 -2.5
v 19.3 12.4 -2.5
v 19.3 12.4 -2.6
v 19.3 12.3 -2.6
v 19.2 12.3 -2.6
v 19.2 12.4 -2.6
v 19.3 12.3 -2.6
v 19.3 12.2 -2.6
v 19.3 12.2 -2.5
v 19.3 12.3 -2.5
v 19.4 12.3 -2.5
v 19.4 12.2 -2.5
v 19.4 12.2 -2.6
v 19.4 12.3 -2.6
v 19.3 12.3 -2.6
v 19.3 12.3 -2.5
v 19.4 12.3 -2.5
v 19.4 12.3 -2.6
v 19.3 12.2 -2.5
v 19.3 12.2 -2.6
v 19.4 12.2 -2.6
v 19.4 12.2 -2.5
v 19.3 12.3 -2.5
v 19.3 12.2 -2.5
v 19.4 12.2 -2.5
v 19.4 12.3 -2.5
v 19.4 12.3 -2.6
v 19.4 12.2 -2.6
v 19.3 12.2 -2.6
v 19.3 12.3 -2.6
v 19.4 12.2 -2.6
v 19.4 12.1 -2.6
v 19.4 12.1 -2.5
v 19.4 12.2 -2.5
v 19.5 12.2 -2.5
v 19.5 12.1 -2.5
v 19.5 12.1 -2.6
v 19.5 12.2 -2.6
v 19.4 12.2 -2.6
v 19.4 12.2 -2.5
v 19.5 12.2 -2.5
v 19.5 12.2 -2.6
v 19.4 12.2 -2.5
v 19.4 12.1 -2.5
v 19.5 12.1 -2.5
v 19.5 12.2 -2.5
v 19.5 12.2 -2.6
v 19.5 12.1 -2.6
v 19.4 12.1 -2.6
v 19.4 12.2 -2.6
v 19.4 12.1 -2.6
v 19.4 12 -2.6
v 19.4 12 -2.5
v 19.4 12.1 -2.5
v 19.5 12.1 -2.5
v 19.5 12 -2.5
v 19.5 12 -2.6
v 19.5 12.1 -2.6
v 19.4 12 -2.5
v 19.4 12 -2.6
v 19.5 12 -2.6
v 19.5 12 -2.5
v 19.4 12.1 -2.5
v 19.4 12 -2.5
v 19.5 12 -2.5
v 19.5 12.1 -2.5
v 19.5 12.1 -2.6
v 19.5 12 -2.6
v 19.4 12 -2.6
v 19.4 12.1 -2.6
v 19.5 12 -2.6
v 19.5 11.9 -2.6
v 19.5 11.9 -2.5
v 19.5 12 -2.5
v 19.6 12 -2.5
v 19.6 11.9 -2.5
v 19.6 11.9 -2.6
v 19.6 12 -2.6
v 19.5 12 -2.6
v 19.5 12 -2.5
v 19.6 12 -2.5
v 19.6 12 -2.6
v 19.5 12 -2.5
v 19.5 11.9 -2.5
v 19.6 11.9 -2.5
v 19.6 12 -2.5
v 19.6 12 -2.6
v 19.6 11.9 -2.6
v 19.5 11.9 -2.6
v 19.5 12 -2.6
v 19.5 11.9 -2.6
v 19.5 11.8 -2.6
v 19.5 11.8 -2.5
v 19.5 11.9 -2.5
v 19.6 11.9 -2.5
v 19.6 11.8 -2.5
v 19.6 11.8 -2.6
v 19.6 11.9 -2.6
v 19.5 11.9 -2.5
v 19.5 11.8 -2.5
v 19.6 11.8 -2.5
v 19.6 11.9 -2.5
v 19.6 11.9 -2.6
v 19.6 11.8 -2.6
v 19.5 11.8 -2.6
v 19.5 11.9 -2.6
v 13.5 11.8 -2.6
v 13.5 11.7 -2.6
v 13.5 11.7 -2.5
v 13.5 11.8 -2.5
v 13.5 11.8 -2.6
v 13.5 11.8 -2.5
v 13.6 11.8 -2.5
v 13.6 11.8 -2.6
v 13.5 11.7 -2.5
v 13.5 11.7 -2.6
v 13.6 11.7 -2.6
v 13.6 11.7 -2.5
v 13.5 11.8 -2.5
v 13.5 11.7 -2.5
v 13.6 11.7 -2.5
v 13.6 11.8 -2.5
v 13.6 11.8 -2.6
v 13.6 11.7 -2.6
v 13.5 11.7 -2.6
v 13.5 11.8 -2.6
v 13.6 11.8 -2.6
v 13.6 11.8 -2.5
v 13.7 11.8 -2.5
v 13.7 11.8 -2.6
v 13.6 11.7 -2.5
v 13.6 11.7 -2.6
v 13.7 11.7 -2.6
v 13.7 11.7 -2.5
v 13.6 11.8 -2.5
v 13.6 11.7 -2.5
v 13.7 11.7 -2.5
v 13.7 11.8 -2.5
v 13.7 11.8 -2.6
v 13.7 11.7 -2.6
v 13.6 11.7 -2.6
v 13.6 11.8 -2.6
v 13.7 11.8 -2.6
v 13.7 11.8 -2.5
v 13.8 11.8 -2.5
v 13.8 11.8 -2.6
v 13.7 11.7 -2.5
v 13.7 11.7 -2.6
v 13.8 11.7 -2.6
v 13.8 11.7 -2.5
v 13.7 11.8 -2.5
v 13.7 11.7 -2.5
v 13.8 11.7 -2.5
v 13.8 11.8 -2.5
v 13.8 11.8 -2.6
v 13.8 11.7 -2.6
v 13.7 11.7 -2.6
v 13.7 11.8 -2.6
v 13.8 11.8 -2.6
v 13.8 11.8 -2.5
v 13.9 11.8 -2.5
v 13.9 11.8 -2.6
v 13.8 11.7 -2.5
v 13.8 11.7 -2.6
v 13.9 11.7 -2.6
v 13.9 11.7 -2.5
v 13.8 11.8 -2.5
v 13.8 11.7 -2.5
v 13.9 11.7 -2.5
v 13.9 11.8 -2.5
v 13.9 11.8 -2.6
v 13.9 11.7 -2.6
v 13.8 11.7 -2.6
v 13.8 11.8 -2.6
v 13.9 11.8 -2.6
v 13.9 11.8 -2.5
v 14 11.8 -2.5
v 14 11.8 -2.6
v 13.9 11.7 -2.5
v 13.9 11.7 -2.6
v 14 11.7 -2.6
v 14 11.7 -2.5
v 13.9 11.8 -2.5
v 13.9 11.7 -2.5
v 14 11.7 -2.5
v 14 11.8 -2.5
v 14 11.8 -2.6
v 14 11.7 -2.6
v 13.9 11.7 -2.6
v 13.9 11.8 -2.6
v 14 11.8 -2.6
v 14 11.8 -2.5
v 14.1 11.8 -2.5
v 14.1 11.8 -2.6
v 14 11.7 -2.5
v 14 11.7 -2.6
v 14.1 11.7 -2.6
v 14.1 11.7 -2.5
v 14 11.8 -2.5
v 14 11.7 -2.5
v 14.1 11.7 -2.5
v 14.1 11.8 -2.5
v 14.1 11.8 -2.6
v 14.1 11.7 -2.6
v 14 11.7 -2.6
v 14 11.8 -2.6
v 14.1 11.8 -2.6
v 14.1 11.8 -2.5
v 14.2 11.8 -2.5
v 14.2 11.8 -2.6
v 14.1 11.7 -2.5
v 14.1 11.7 -2.6
v 14.2 11.7 -2.6
v 14.2 11.7 -2.5
v 14.1 11.8 -2.5
v 14.1 11.7 -2.5
v 14.2 11.7 -2.5
v 14.2 11.8 -2.5
v 14.2 11.8 -2.6
v 14.2 11.7 -2.6
v 14.1 11.7 -2.6
v 14.1 11.8 -2.6
v 14.2 11.8 -2.6
v 14.2 11.8 -2.5
v 14.3 11.8 -2.5
v 14.3 11.8 -2.6
v 14.2 11.7 -2.5
v 14.2 11.7 -2.6
v 14.3 11.7 -2.6
v 14.3 11.7 -2.5
v 14.2 11.8 -2.5
v 14.2 11.7 -2.5
v 14.3 11.7 -2.5
v 14.3 11.8 -2.5
v 14.3 11.8 -2.6
v 14.3 11.7 -2.6
v 14.2 11.7 -2.6
v 14.2 11.8 -2.6
v 14.4 11.8 -2.5
v 14.4 11.7 -2.5
v 14.4 11.7 -2.6
v 14.4 11.8 -2.6
v 14.3 11.8 -2.6
v 14.3 11.8 -2.5
v 14.4 11.8 -2.5
v 14.4 11.8 -2.6
v 14.3 11.7 -2.5
v 14.3 11.7 -2.6
v 14.4 11.7 -2.6
v 14.4 11.7 -2.5
v 14.3 11.8 -2.5
v 14.3 11.7 -2.5
v 14.4 11.7 -2.5
v 14.4 11.8 -2.5
v 14.4 11.8 -2.6
v 14.4 11.7 -2.6
v 14.3 11.7 -2.6
v 14.3 11.8 -2.6
v 15.9 11.8 -2.6
v 15.9 11.7 -2.6
v 15.9 11.7 -2.5
v 15.9 11.8 -2.5
v 15.9 11.8 -2.6
v 15.9 11.8 -2.5
v 16 11.8 -2.5
v 16 11.8 -2.6
v 15.9 11.7 -2.5
v 15.9 11.7 -2.6
v 16 11.7 -2.6
v 16 11.7 -2.5
v 15.9 11.8 -2.5
v 15.9 11.7 -2.5
v 16 11.7 -2.5
v 16 11.8 -2.5
v 16 11.8 -2.6
v 16 11.7 -2.6
v 15.9 11.7 -2.6
v 15.9 11.8 -2.6
v 16 11.8 -2.6
v 16 11.8 -2.5
v 16.1 11.8 -2.5
v 16.1 11.8 -2.6
v 16 11.7 -2.5
v 16 11.7 -2.6
v 16.1 11.7 -2.6
v 16.1 11.7 -2.5
v 16 11.8 -2.5
v 16 11.7 -2.5
v 16.1 11.7 -2.5
v 16.1 11.8 -2.5
v 16.1 11.8 -2.6
v 16.1 11.7 -2.6
v 16 11.7 -2.6
v 16 11.8 -2.6
v 16.1 11.8 -2.6
v 16.1 11.8 -2.5
v 16.2 11.8 -2.5
v 16.2 11.8 -2.6
v 16.1 11.7 -2.5
v 16.1 11.7 -2.6
v 16.2 11.7 -2.6
v 16.2 11.7 -2.5
v 16.1 11.8 -2.5
v 16.1 11.7 -2.5
v 16.2 11.7 -2.5
v 16.2 11.8 -2.5
v 16.2 11.8 -2.6
v 16.2 11.7 -2.6
v 16.1 11.7 -2.6
v 16.1 11.8 -2.6
v 16.2 11.8 -2.6
v 16.2 11.8 -2.5
v 16.3 11.8 -2.5
v 16.3 11.8 -2.6
v 16.2 11.7 -2.5
v 16.2 11.7 -2.6
v 16.3 11.7 -2.6
v 16.3 11.7 -2.5
v 16.2 11.8 -2.5
v 16.2 11.7 -2.5
v 16.3 11.7 -2.5
v 16.3 11.8 -2.5
v 16.3 11.8 -2.6
v 16.3 11.7 -2.6
v 16.2 11.7 -2.6
v 16.2 11.8 -2.6
v 16.3 11.8 -2.6
v 16.3 11.8 -2.5
v 16.4 11.8 -2.5
v 16.4 11.8 -2.6
v 16.3 11.7 -2.5
v 16.3 11.7 -2.6
v 16.4 11.7 -2.6
v 16.4 11.7 -2.5
v 16.3 11.8 -2.5
v 16.3 11.7 -2.5
v 16.4 11.7 -2.5
v 16.4 11.8 -2.5
v 16.4 11.8 -2.6
v 16.4 11.7 -2.6
v 16.3 11.7 -2.6
v 16.3 11.8 -2.6
v 16.4 11.8 -2.6
v 16.4 11.8 -2.5
v 16.5 11.8 -2.5
v 16.5 11.8 -2.6
v 16.4 11.7 -2.5
v 16.4 11.7 -2.6
v 16.5 11.7 -2.6
v 16.5 11.7 -2.5
v 16.4 11.8 -2.5
v 16.4 11.7 -2.5
v 16.5 11.7 -2.5
v 16.5 11.8 -2.5
v 16.5 11.8 -2.6
v 16.5 11.7 -2.6
v 16.4 11.7 -2.6
v 16.4 11.8 -2.6
v 16.5 11.8 -2.6
v 16.5 11.8 -2.5
v 16.6 11.8 -2.5
v 16.6 11.8 -2.6
v 16.5 11.7 -2.5
v 16.5 11.7 -2.6
v 16.6 11.7 -2.6
v 16.6 11.7 -2.5
v 16.5 11.8 -2.5
v 16.5 11.7 -2.5
v 16.6 11.7 -2.5
v 16.6 11.8 -2.5
v 16.6 11.8 -2.6
v 16.6 11.7 -2.6
v 16.5 11.7 -2.6
v 16.5 11.8 -2.6
v 16.6 11.8 -2.6
v 16.6 11.8 -2.5
v 16.7 11.8 -2.5
v 16.7 11.8 -2.6
v 16.6 11.7 -2.5
v 16.6 11.7 -2.6
v 16.7 11.7 -2.6
v 16.7 11.7 -2.5
v 16.6 11.8 -2.5
v 16.6 11.7 -2.5
v 16.7 11.7 -2.5
v 16.7 11.8 -2.5
v 16.7 11.8 -2.6
v 16.7 11.7 -2.6
v 16.6 11.7 -2.6
v 16.6 11.8 -2.6
v 16.7 11.8 -2.6
v 16.7 11.8 -2.5
v 16.8 11.8 -2.5
v 16.8 11.8 -2.6
v 16.7 11.7 -2.5
v 16.7 11.7 -2.6
v 16.8 11.7 -2.6
v 16.8 11.7 -2.5
v 16.7 11.8 -2.5
v 16.7 11.7 -2.5
v 16.8 11.7 -2.5
v 16.8 11.8 -2.5
v 16.8 11.8 -2.6
v 16.8 11.7 -2.6
v 16.7 11.7 -2.6
v 16.7 11.8 -2.6
v 16.8 11.8 -2.6
v 16.8 11.8 -2.5
v 16.9 11.8 -2.5
v 16.9 11.8 -2.6
v 16.8 11.7 -2.5
v 16.8 11.7 -2.6
v 16.9 11.7 -2.6
v 16.9 11.7 -2.5
v 16.8 11.8 -2.5
v 16.8 11.7 -2.5
v 16.9 11.7 -2.5
v 16.9 11.8 -2.5
v 16.9 11.8 -2.6
v 16.9 11.7 -2.6
v 16.8 11.7 -2.6
v 16.8 11.8 -2.6
v 16.9 11.8 -2.6
v 16.9 11.8 -2.5
v 17 11.8 -2.5
v 17 11.8 -2.6
v 16.9 11.7 -2.5
v 16.9 11.7 -2.6
v 17 11.7 -2.6
v 17 11.7 -2.5
v 16.9 11.8 -2.5
v 16.9 11.7 -2.5
v 17 11.7 -2.5
v 17 11.8 -2.5
v 17 11.8 -2.6
v 17 11.7 -2.6
v 16.9 11.7 -2.6
v 16.9 11.8 -2.6
v 17 11.8 -2.6
v 17 11.8 -2.5
v 17.1 11.8 -2.5
v 17.1 11.8 -2.6
v 17 11.7 -2.5
v 17 11.7 -2.6
v 17.1 11.7 -2.6
v 17.1 11.7 -2.5
v 17 11.8 -2.5
v 17 11.7 -2.5
v 17.1 11.7 -2.5
v 17.1 11.8 -2.5
v 17.1 11.8 -2.6
v 17.1 11.7 -2.6
v 17 11.7 -2.6
v 17 11.8 -2.6
v 17.1 11.8 -2.6
v 17.1 11.8 -2.5
v 17.2 11.8 -2.5
v 17.2 11.8 -2.6
v 17.1 11.7 -2.5
v 17.1 11.7 -2.6
v 17.2 11.7 -2.6
v 17.2 11.7 -2.5
v 17.1 11.8 -2.5
v 17.1 11.7 -2.5
v 17.2 11.7 -2.5
v 17.2 11.8 -2.5
v 17.2 11.8 -2.6
v 17.2 11.7 -2.6
v 17.1 11.7 -2.6
v 17.1 11.8 -2.6
v 17.2 11.8 -2.6
v 17.2 11.8 -2.5
v 17.3 11.8 -2.5
v 17.3 11.8 -2.6
v 17.2 11.7 -2.5
v 17.2 11.7 -2.6
v 17.3 11.7 -2.6
v 17.3 11.7 -2.5
v 17.2 11.8 -2.5
v 17.2 11.7 -2.5
v 17.3 11.7 -2.5
v 17.3 11.8 -2.5
v 17.3 11.8 -2.6
v 17.3 11.7 -2.6
v 17.2 11.7 -2.6
v 17.2 11.8 -2.6
v 17.3 11.8 -2.6
v 17.3 11.8 -2.5
v 17.4 11.8 -2.5
v 17.4 11.8 -2.6
v 17.3 11.7 -2.5
v 17.3 11.7 -2.6
v 17.4 11.7 -2.6
v 17.4 11.7 -2.5
v 17.3 11.8 -2.5
v 17.3 11.7 -2.5
v 17.4 11.7 -2.5
v 17.4 11.8 -2.5
v 17.4 11.8 -2.6
v 17.4 11.7 -2.6
v 17.3 11.7 -2.6
v 17.3 11.8 -2.6
v 17.4 11.8 -2.6
v 17.4 11.8 -2.5
v 17.5 11.8 -2.5
v 17.5 11.8 -2.6
v 17.4 11.7 -2.5
v 17.4 11.7 -2.6
v 17.5 11.7 -2.6
v 17.5 11.7 -2.5
v 17.4 11.8 -2.5
v 17.4 11.7 -2.5
v 17.5 11.7 -2.5
v 17.5 11.8 -2.5
v 17.5 11.8 -2.6
v 17.5 11.7 -2.6
v 17.4 11.7 -2.6
v 17.4 11.8 -2.6
v 17.5 11.8 -2.6
v 17.5 11.8 -2.5
v 17.6 11.8 -2.5
v 17.6 11.8 -2.6
v 17.5 11.7 -2.5
v 17.5 11.7 -2.6
v 17.6 11.7 -2.6
v 17.6 11.7 -2.5
v 17.5 11.8 -2.5
v 17.5 11.7 -2.5
v 17.6 11.7 -2.5
v 17.6 11.8 -2.5
v 17.6 11.8 -2.6
v 17.6 11.7 -2.6
v 17.5 11.7 -2.6
v 17.5 11.8 -2.6
v 17.6 11.8 -2.6
v 17.6 11.8 -2.5
v 17.7 11.8 -2.5
v 17.7 11.8 -2.6
v 17.6 11.7 -2.5
v 17.6 11.7 -2.6
v 17.7 11.7 -2.6
v 17.7 11.7 -2.5
v 17.6 11.8 -2.5
v 17.6 11.7 -2.5
v 17.7 11.7 -2.5
v 17.7 11.8 -2.5
v 17.7 11.8 -2.6
v 17.7 11.7 -2.6
v 17.6 11.7 -2.6
v 17.6 11.8 -2.6
v 17.7 11.8 -2.6
v 17.7 11.8 -2.5
v 17.8 11.8 -2.5
v 17.8 11.8 -2.6
v 17.7 11.7 -2.5
v 17.7 11.7 -2.6
v 17.8 11.7 -2.6
v 17.8 11.7 -2.5
v 17.7 11.8 -2.5
v 17.7 11.7 -2.5
v 17.8 11.7 -2.5
v 17.8 11.8 -2.5
v 17.8 11.8 -2.6
v 17.8 11.7 -2.6
v 17.7 11.7 -2.6
v 17.7 11.8 -2.6
v 17.8 11.8 -2.6
v 17.8 11.8 -2.5
v 17.9 11.8 -2.5
v 17.9 11.8 -2.6
v 17.8 11.7 -2.5
v 17.8 11.7 -2.6
v 17.9 11.7 -2.6
v 17.9 11.7 -2.5
v 17.8 11.8 -2.5
v 17.8 11.7 -2.5
v 17.9 11.7 -2.5
v 17.9 11.8 -2.5
v 17.9 11.8 -2.6
v 17.9 11.7 -2.6
v 17.8 11.7 -2.6
v 17.8 11.8 -2.6
v 17.9 11.8 -2.6
v 17.9 11.8 -2.5
v 18 11.8 -2.5
v 18 11.8 -2.6
v 17.9 11.7 -2.5
v 17.9 11.7 -2.6
v 18 11.7 -2.6
v 18 11.7 -2.5
v 17.9 11.8 -2.5
v 17.9 11.7 -2.5
v 18 11.7 -2.5
v 18 11.8 -2.5
v 18 11.8 -2.6
v 18 11.7 -2.6
v 17.9 11.7 -2.6
v 17.9 11.8 -2.6
v 18 11.8 -2.6
v 18 11.8 -2.5
v 18.1 11.8 -2.5
v 18.1 11.8 -2.6
v 18 11.7 -2.5
v 18 11.7 -2.6
v 18.1 11.7 -2.6
v 18.1 11.7 -2.5
v 18 11.8 -2.5
v 18 11.7 -2.5
v 18.1 11.7 -2.5
v 18.1 11.8 -2.5
v 18.1 11.8 -2.6
v 18.1 11.7 -2.6
v 18 11.7 -2.6
v 18 11.8 -2.6
v 18.1 11.8 -2.6
v 18.1 11.8 -2.5
v 18.2 11.8 -2.5
v 18.2 11.8 -2.6
v 18.1 11.7 -2.5
v 18.1 11.7 -2.6
v 18.2 11.7 -2.6
v 18.2 11.7 -2.5
v 18.1 11.8 -2.5
v 18.1 11.7 -2.5
v 18.2 11.7 -2.5
v 18.2 11.8 -2.5
v 18.2 11.8 -2.6
v 18.2 11.7 -2.6
v 18.1 11.7 -2.6
v 18.1 11.8 -2.6
v 18.2 11.8 -2.6
v 18.2 11.8 -2.5
v 18.3 11.8 -2.5
v 18.3 11.8 -2.6
v 18.2 11.7 -2.5
v 18.2 11.7 -2.6
v 18.3 11.7 -2.6
v 18.3 11.7 -2.5
v 18.2 11.8 -2.5
v 18.2 11.7 -2.5
v 18.3 11.7 -2.5
v 18.3 11.8 -2.5
v 18.3 11.8 -2.6
v 18.3 11.7 -2.6
v 18.2 11.7 -2.6
v 18.2 11.8 -2.6
v 18.3 11.8 -2.6
v 18.3 11.8 -2.5
v 18.4 11.8 -2.5
v 18.4 11.8 -2.6
v 18.3 11.7 -2.5
v 18.3 11.7 -2.6
v 18.4 11.7 -2.6
v 18.4 11.7 -2.5
v 18.3 11.8 -2.5
v 18.3 11.7 -2.5
v 18.4 11.7 -2.5
v 18.4 11.8 -2.5
v 18.4 11.8 -2.6
v 18.4 11.7 -2.6
v 18.3 11.7 -2.6
v 18.3 11.8 -2.6
v 18.4 11.8 -2.6
v 18.4 11.8 -2.5
v 18.5 11.8 -2.5
v 18.5 11.8 -2.6
v 18.4 11.7 -2.5
v 18.4 11.7 -2.6
v 18.5 11.7 -2.6
v 18.5 11.7 -2.5
v 18.4 11.8 -2.5
v 18.4 11.7 -2.5
v 18.5 11.7 -2.5
v 18.5 11.8 -2.5
v 18.5 11.8 -2.6
v 18.5 11.7 -2.6
v 18.4 11.7 -2.6
v 18.4 11.8 -2.6
v 18.5 11.8 -2.6
v 18.5 11.8 -2.5
v 18.6 11.8 -2.5
v 18.6 11.8 -2.6
v 18.5 11.7 -2.5
v 18.5 11.7 -2.6
v 18.6 11.7 -2.6
v 18.6 11.7 -2.5
v 18.5 11.8 -2.5
v 18.5 11.7 -2.5
v 18.6 11.7 -2.5
v 18.6 11.8 -2.5
v 18.6 11.8 -2.6
v 18.6 11.7 -2.6
v 18.5 11.7 -2.6
v 18.5 11.8 -2.6
v 18.6 11.8 -2.6
v 18.6 11.8 -2.5
v 18.7 11.8 -2.5
v 18.7 11.8 -2.6
v 18.6 11.7 -2.5
v 18.6 11.7 -2.6
v 18.7 11.7 -2.6
v 18.7 11.7 -2.5
v 18.6 11.8 -2.5
v 18.6 11.7 -2.5
v 18.7 11.7 -2.5
v 18.7 11.8 -2.5
v 18.7 11.8 -2.6
v 18.7 11.7 -2.6
v 18.6 11.7 -2.6
v 18.6 11.8 -2.6
v 18.7 11.8 -2.6
v 18.7 11.8 -2.5
v 18.8 11.8 -2.5
v 18.8 11.8 -2.6
v 18.7 11.7 -2.5
v 18.7 11.7 -2.6
v 18.8 11.7 -2.6
v 18.8 11.7 -2.5
v 18.7 11.8 -2.5
v 18.7 11.7 -2.5
v 18.8 11.7 -2.5
v 18.8 11.8 -2.5
v 18.8 11.8 -2.6
v 18.8 11.7 -2.6
v 18.7 11.7 -2.6
v 18.7 11.8 -2.6
v 18.8 11.8 -2.6
v 18.8 11.8 -2.5
v 18.9 11.8 -2.5
v 18.9 11.8 -2.6
v 18.8 11.7 -2.5
v 18.8 11.7 -2.6
v 18.9 11.7 -2.6
v 18.9 11.7 -2.5
v 18.8 11.8 -2.5
v 18.8 11.7 -2.5
v 18.9 11.7 -2.5
v 18.9 11.8 -2.5
v 18.9 11.8 -2.6
v 18.9 11.7 -2.6
v 18.8 11.7 -2.6
v 18.8 11.8 -2.6
v 18.9 11.8 -2.6
v 18.9 11.8 -2.5
v 19 11.8 -2.5
v 19 11.8 -2.6
v 18.9 11.7 -2.5
v 18.9 11.7 -2.6
v 19 11.7 -2.6
v 19 11.7 -2.5
v 18.9 11.8 -2.5
v 18.9 11.7 -2.5
v 19 11.7 -2.5
v 19 11.8 -2.5
v 19 11.8 -2.6
v 19 11.7 -2.6
v 18.9 11.7 -2.6
v 18.9 11.8 -2.6
v 19 11.8 -2.6
v 19 11.8 -2.5
v 19.1 11.8 -2.5
v 19.1 11.8 -2.6
v 19 11.7 -2.5
v 19 11.7 -2.6
v 19.1 11.7 -2.6
v 19.1 11.7 -2.5
v 19 11.8 -2.5
v 19 11.7 -2.5
v 19.1 11.7 -2.5
v 19.1 11.8 -2.5
v 19.1 11.8 -2.6
v 19.1 11.7 -2.6
v 19 11.7 -2.6
v 19 11.8 -2.6
v 19.1 11.8 -2.6
v 19.1 11.8 -2.5
v 19.2 11.8 -2.5
v 19.2 11.8 -2.6
v 19.1 11.7 -2.5
v 19.1 11.7 -2.6
v 19.2 11.7 -2.6
v 19.2 11.7 -2.5
v 19.1 11.8 -2.5
v 19.1 11.7 -2.5
v 19.2 11.7 -2.5
v 19.2 11.8 -2.5
v 19.2 11.8 -2.6
v 19.2 11.7 -2.6
v 19.1 11.7 -2.6
v 19.1 11.8 -2.6
v 19.2 11.8 -2.6
v 19.2 11.8 -2.5
v 19.3 11.8 -2.5
v 19.3 11.8 -2.6
v 19.2 11.7 -2.5
v 19.2 11.7 -2.6
v 19.3 11.7 -2.6
v 19.3 11.7 -2.5
v 19.2 11.8 -2.5
v 19.2 11.7 -2.5
v 19.3 11.7 -2.5
v 19.3 11.8 -2.5
v 19.3 11.8 -2.6
v 19.3 11.7 -2.6
v 19.2 11.7 -2.6
v 19.2 11.8 -2.6
v 19.3 11.8 -2.6
v 19.3 11.8 -2.5
v 19.4 11.8 -2.5
v 19.4 11.8 -2.6
v 19.3 11.7 -2.5
v 19.3 11.7 -2.6
v 19.4 11.7 -2.6
v 19.4 11.7 -2.5
v 19.3 11.8 -2.5
v 19.3 11.7 -2.5
v 19.4 11.7 -2.5
v 19.4 11.8 -2.5
v 19.4 11.8 -2.6
v 19.4 11.7 -2.6
v 19.3 11.7 -2.6
v 19.3 11.8 -2.6
v 19.4 11.8 -2.6
v 19.4 11.8 -2.5
v 19.5 11.8 -2.5
v 19.5 11.8 -2.6
v 19.4 11.7 -2.5
v 19.4 11.7 -2.6
v 19.5 11.7 -2.6
v 19.5 11.7 -2.5
v 19.4 11.8 -2.5
v 19.4 11.7 -2.5
v 19.5 11.7 -2.5
v 19.5 11.8 -2.5
v 19.5 11.8 -2.6
v 19.5 11.7 -2.6
v 19.4 11.7 -2.6
v 19.4 11.8 -2.6
v 19.5 11.7 -2.5
v 19.5 11.7 -2.6
v 19.6 11.7 -2.6
v 19.6 11.7 -2.5
v 19.5 11.8 -2.5
v 19.5 11.7 -2.5
v 19.6 11.7 -2.5
v 19.6 11.8 -2.5
v 19.6 11.8 -2.6
v 19.6 11.7 -2.6
v 19.5 11.7 -2.6
v 19.5 11.8 -2.6
v 19.6 11.8 -2.6
v 19.6 11.8 -2.5
v 19.7 11.8 -2.5
v 19.7 11.8 -2.6
v 19.6 11.7 -2.5
v 19.6 11.7 -2.6
v 19.7 11.7 -2.6
v 19.7 11.7 -2.5
v 19.6 11.8 -2.5
v 19.6 11.7 -2.5
v 19.7 11.7 -2.5
v 19.7 11.8 -2.5
v 19.7 11.8 -2.6
v 19.7 11.7 -2.6
v 19.6 11.7 -2.6
v 19.6 11.8 -2.6
v 19.8 11.8 -2.5
v 19.8 11.7 -2.5
v 19.8 11.7 -2.6
v 19.8 11.8 -2.6
v 19.7 11.8 -2.6
v 19.7 11.8 -2.5
v 19.8 11.8 -2.5
v 19.8 11.8 -2.6
v 19.7 11.7 -2.5
v 19.7 11.7 -2.6
v 19.8 11.7 -2.6
v 19.8 11.7 -2.5
v 19.7 11.8 -2.5
v 19.7 11.7 -2.5
v 19.8 11.7 -2.5
v 19.8 11.8 -2.5
v 19.8 11.8 -2.6
v 19.8 11.7 -2.6
v 19.7 11.7 -2.6
v 19.7 11.8 -2.6
v 12.8 11.4 -2.6
v 12.8 11.3 -2.6
v 12.8 11.3 -2.5
v 12.8 11.4 -2.5
v 12.8 11.4 -2.6
v 12.8 11.4 -2.5
v 12.9 11.4 -2.5
v 12.9 11.4 -2.6
v 12.8 11.3 -2.5
v 12.8 11.3 -2.6
v 12.9 11.3 -2.6
v 12.9 11.3 -2.5
v 12.8 11.4 -2.5
v 12.8 11.3 -2.5
v 12.9 11.3 -2.5
v 12.9 11.4 -2.5
v 12.9 11.4 -2.6
v 12.9 11.3 -2.6
v 12.8 11.3 -2.6
v 12.8 11.4 -2.6
v 12.9 11.4 -2.6
v 12.9 11.4 -2.5
v 13 11.4 -2.5
v 13 11.4 -2.6
v 12.9 11.3 -2.5
v 12.9 11.3 -2.6
v 13 11.3 -2.6
v 13 11.3 -2.5
v 12.9 11.4 -2.5
v 12.9 11.3 -2.5
v 13 11.3 -2.5
v 13 11.4 -2.5
v 13 11.4 -2.6
v 13 11.3 -2.6
v 12.9 11.3 -2.6
v 12.9 11.4 -2.6
v 13 11.4 -2.6
v 13 11.4 -2.5
v 13.1 11.4 -2.5
v 13.1 11.4 -2.6
v 13 11.3 -2.5
v 13 11.3 -2.6
v 13.1 11.3 -2.6
v 13.1 11.3 -2.5
v 13 11.4 -2.5
v 13 11.3 -2.5
v 13.1 11.3 -2.5
v 13.1 11.4 -2.5
v 13.1 11.4 -2.6
v 13.1 11.3 -2.6
v 13 11.3 -2.6
v 13 11.4 -2.6
v 13.1 11.4 -2.6
v 13.1 11.4 -2.5
v 13.2 11.4 -2.5
v 13.2 11.4 -2.6
v 13.1 11.3 -2.5
v 13.1 11.3 -2.6
v 13.2 11.3 -2.6
v 13.2 11.3 -2.5
v 13.1 11.4 -2.5
v 13.1 11.3 -2.5
v 13.2 11.3 -2.5
v 13.2 11.4 -2.5
v 13.2 11.4 -2.6
v 13.2 11.3 -2.6
v 13.1 11.3 -2.6
v 13.1 11.4 -2.6
v 13.2 11.4 -2.6
v 13.2 11.4 -2.5
v 13.3 11.4 -2.5
v 13.3 11.4 -2.6
v 13.2 11.3 -2.5
v 13.2 11.3 -2.6
v 13.3 11.3 -2.6
v 13.3 11.3 -2.5
v 13.2 11.4 -2.5
v 13.2 11.3 -2.5
v 13.3 11.3 -2.5
v 13.3 11.4 -2.5
v 13.3 11.4 -2.6
v 13.3 11.3 -2.6
v 13.2 11.3 -2.6
v 13.2 11.4 -2.6
v 13.3 11.4 -2.6
v 13.3 11.4 -2.5
v 13.4 11.4 -2.5
v 13.4 11.4 -2.6
v 13.3 11.3 -2.5
v 13.3 11.3 -2.6
v 13.4 11.3 -2.6
v 13.4 11.3 -2.5
v 13.3 11.4 -2.5
v 13.3 11.3 -2.5
v 13.4 11.3 -2.5
v 13.4 11.4 -2.5
v 13.4 11.4 -2.6
v 13.4 11.3 -2.6
v 13.3 11.3 -2.6
v 13.3 11.4 -2.6
v 13.4 11.4 -2.6
v 13.4 11.4 -2.5
v 13.5 11.4 -2.5
v 13.5 11.4 -2.6
v 13.4 11.3 -2.5
v 13.4 11.3 -2.6
v 13.5 11.3 -2.6
v 13.5 11.3 -2.5
v 13.4 11.4 -2.5
v 13.4 11.3 -2.5
v 13.5 11.3 -2.5
v 13.5 11.4 -2.5
v 13.5 11.4 -2.6
v 13.5 11.3 -2.6
v 13.4 11.3 -2.6
v 13.4 11.4 -2.6
v 13.5 11.4 -2.6
v 13.5 11.4 -2.5
v 13.6 11.4 -2.5
v 13.6 11.4 -2.6
v 13.5 11.3 -2.5
v 13.5 11.3 -2.6
v 13.6 11.3 -2.6
v 13.6 11.3 -2.5
v 13.5 11.4 -2.5
v 13.5 11.3 -2.5
v 13.6 11.3 -2.5
v 13.6 11.4 -2.5
v 13.6 11.4 -2.6
v 13.6 11.3 -2.6
v 13.5 11.3 -2.6
v 13.5 11.4 -2.6
v 13.6 11.4 -2.6
v 13.6 11.4 -2.5
v 13.7 11.4 -2.5
v 13.7 11.4 -2.6
v 13.6 11.3 -2.5
v 13.6 11.3 -2.6
v 13.7 11.3 -2.6
v 13.7 11.3 -2.5
v 13.6 11.4 -2.5
v 13.6 11.3 -2.5
v 13.7 11.3 -2.5
v 13.7 11.4 -2.5
v 13.7 11.4 -2.6
v 13.7 11.3 -2.6
v 13.6 11.3 -2.6
v 13.6 11.4 -2.6
v 13.8 11.4 -2.5
v 13.8 11.3 -2.5
v 13.8 11.3 -2.6
v 13.8 11.4 -2.6
v 13.7 11.4 -2.6
v 13.7 11.4 -2.5
v 13.8 11.4 -2.5
v 13.8 11.4 -2.6
v 13.7 11.3 -2.5
v 13.7 11.3 -2.6
v 13.8 11.3 -2.6
v 13.8 11.3 -2.5
v 13.7 11.4 -2.5
v 13.7 11.3 -2.5
v 13.8 11.3 -2.5
v 13.8 11.4 -2.5
v 13.8 11.4 -2.6
v 13.8 11.3 -2.6
v 13.7 11.3 -2.6
v 13.7 11.4 -2.6
v 16 11.4 -2.6
v 16 11.3 -2.6
v 16 11.3 -2.5
v 16 11.4 -2.5
v 16 11.4 -2.6
v 16 11.4 -2.5
v 16.1 11.4 -2.5
v 16.1 11.4 -2.6
v 16 11.3 -2.5
v 16 11.3 -2.6
v 16.1 11.3 -2.6
v 16.1 11.3 -2.5
v 16 11.4 -2.5
v 16 11.3 -2.5
v 16.1 11.3 -2.5
v 16.1 11.4 -2.5
v 16.1 11.4 -2.6
v 16.1 11.3 -2.6
v 16 11.3 -2.6
v 16 11.4 -2.6
v 16.1 11.4 -2.6
v 16.1 11.4 -2.5
v 16.2 11.4 -2.5
v 16.2 11.4 -2.6
v 16.1 11.3 -2.5
v 16.1 11.3 -2.6
v 16.2 11.3 -2.6
v 16.2 11.3 -2.5
v 16.1 11.4 -2.5
v 16.1 11.3 -2.5
v 16.2 11.3 -2.5
v 16.2 11.4 -2.5
v 16.2 11.4 -2.6
v 16.2 11.3 -2.6
v 16.1 11.3 -2.6
v 16.1 11.4 -2.6
v 16.2 11.4 -2.6
v 16.2 11.4 -2.5
v 16.3 11.4 -2.5
v 16.3 11.4 -2.6
v 16.2 11.3 -2.5
v 16.2 11.3 -2.6
v 16.3 11.3 -2.6
v 16.3 11.3 -2.5
v 16.2 11.4 -2.5
v 16.2 11.3 -2.5
v 16.3 11.3 -2.5
v 16.3 11.4 -2.5
v 16.3 11.4 -2.6
v 16.3 11.3 -2.6
v 16.2 11.3 -2.6
v 16.2 11.4 -2.6
v 16.3 11.4 -2.6
v 16.3 11.4 -2.5
v 16.4 11.4 -2.5
v 16.4 11.4 -2.6
v 16.3 11.3 -2.5
v 16.3 11.3 -2.6
v 16.4 11.3 -2.6
v 16.4 11.3 -2.5
v 16.3 11.4 -2.5
v 16.3 11.3 -2.5
v 16.4 11.3 -2.5
v 16.4 11.4 -2.5
v 16.4 11.4 -2.6
v 16.4 11.3 -2.6
v 16.3 11.3 -2.6
v 16.3 11.4 -2.6
v 16.4 11.4 -2.6
v 16.4 11.4 -2.5
v 16.5 11.4 -2.5
v 16.5 11.4 -2.6
v 16.4 11.3 -2.5
v 16.4 11.3 -2.6
v 16.5 11.3 -2.6
v 16.5 11.3 -2.5
v 16.4 11.4 -2.5
v 16.4 11.3 -2.5
v 16.5 11.3 -2.5
v 16.5 11.4 -2.5
v 16.5 11.4 -2.6
v 16.5 11.3 -2.6
v 16.4 11.3 -2.6
v 16.4 11.4 -2.6
v 16.5 11.4 -2.6
v 16.5 11.4 -2.5
v 16.6 11.4 -2.5
v 16.6 11.4 -2.6
v 16.5 11.3 -2.5
v 16.5 11.3 -2.6
v 16.6 11.3 -2.6
v 16.6 11.3 -2.5
v 16.5 11.4 -2.5
v 16.5 11.3 -2.5
v 16.6 11.3 -2.5
v 16.6 11.4 -2.5
v 16.6 11.4 -2.6
v 16.6 11.3 -2.6
v 16.5 11.3 -2.6
v 16.5 11.4 -2.6
v 16.6 11.4 -2.6
v 16.6 11.4 -2.5
v 16.7 11.4 -2.5
v 16.7 11.4 -2.6
v 16.6 11.3 -2.5
v 16.6 11.3 -2.6
v 16.7 11.3 -2.6
v 16.7 11.3 -2.5
v 16.6 11.4 -2.5
v 16.6 11.3 -2.5
v 16.7 11.3 -2.5
v 16.7 11.4 -2.5
v 16.7 11.4 -2.6
v 16.7 11.3 -2.6
v 16.6 11.3 -2.6
v 16.6 11.4 -2.6
v 16.7 11.4 -2.6
v 16.7 11.4 -2.5
v 16.8 11.4 -2.5
v 16.8 11.4 -2.6
v 16.7 11.3 -2.5
v 16.7 11.3 -2.6
v 16.8 11.3 -2.6
v 16.8 11.3 -2.5
v 16.7 11.4 -2.5
v 16.7 11.3 -2.5
v 16.8 11.3 -2.5
v 16.8 11.4 -2.5
v 16.8 11.4 -2.6
v 16.8 11.3 -2.6
v 16.7 11.3 -2.6
v 16.7 11.4 -2.6
v 16.8 11.4 -2.6
v 16.8 11.4 -2.5
v 16.9 11.4 -2.5
v 16.9 11.4 -2.6
v 16.8 11.3 -2.5
v 16.8 11.3 -2.6
v 16.9 11.3 -2.6
v 16.9 11.3 -2.5
v 16.8 11.4 -2.5
v 16.8 11.3 -2.5
v 16.9 11.3 -2.5
v 16.9 11.4 -2.5
v 16.9 11.4 -2.6
v 16.9 11.3 -2.6
v 16.8 11.3 -2.6
v 16.8 11.4 -2.6
v 16.9 11.4 -2.6
v 16.9 11.4 -2.5
v 17 11.4 -2.5
v 17 11.4 -2.6
v 16.9 11.3 -2.5
v 16.9 11.3 -2.6
v 17 11.3 -2.6
v 17 11.3 -2.5
v 16.9 11.4 -2.5
v 16.9 11.3 -2.5
v 17 11.3 -2.5
v 17 11.4 -2.5
v 17 11.4 -2.6
v 17 11.3 -2.6
v 16.9 11.3 -2.6
v 16.9 11.4 -2.6
v 17 11.4 -2.6
v 17 11.4 -2.5
v 17.1 11.4 -2.5
v 17.1 11.4 -2.6
v 17 11.3 -2.5
v 17 11.3 -2.6
v 17.1 11.3 -2.6
v 17.1 11.3 -2.5
v 17 11.4 -2.5
v 17 11.3 -2.5
v 17.1 11.3 -2.5
v 17.1 11.4 -2.5
v 17.1 11.4 -2.6
v 17.1 11.3 -2.6
v 17 11.3 -2.6
v 17 11.4 -2.6
v 17.1 11.4 -2.6
v 17.1 11.4 -2.5
v 17.2 11.4 -2.5
v 17.2 11.4 -2.6
v 17.1 11.3 -2.5
v 17.1 11.3 -2.6
v 17.2 11.3 -2.6
v 17.2 11.3 -2.5
v 17.1 11.4 -2.5
v 17.1 11.3 -2.5
v 17.2 11.3 -2.5
v 17.2 11.4 -2.5
v 17.2 11.4 -2.6
v 17.2 11.3 -2.6
v 17.1 11.3 -2.6
v 17.1 11.4 -2.6
v 17.2 11.4 -2.6
v 17.2 11.4 -2.5
v 17.3 11.4 -2.5
v 17.3 11.4 -2.6
v 17.2 11.3 -2.5
v 17.2 11.3 -2.6
v 17.3 11.3 -2.6
v 17.3 11.3 -2.5
v 17.2 11.4 -2.5
v 17.2 11.3 -2.5
v 17.3 11.3 -2.5
v 17.3 11.4 -2.5
v 17.3 11.4 -2.6
v 17.3 11.3 -2.6
v 17.2 11.3 -2.6
v 17.2 11.4 -2.6
v 17.3 11.4 -2.6
v 17.3 11.4 -2.5
v 17.4 11.4 -2.5
v 17.4 11.4 -2.6
v 17.3 11.3 -2.5
v 17.3 11.3 -2.6
v 17.4 11.3 -2.6
v 17.4 11.3 -2.5
v 17.3 11.4 -2.5
v 17.3 11.3 -2.5
v 17.4 11.3 -2.5
v 17.4 11.4 -2.5
v 17.4 11.4 -2.6
v 17.4 11.3 -2.6
v 17.3 11.3 -2.6
v 17.3 11.4 -2.6
v 17.4 11.4 -2.6
v 17.4 11.4 -2.5
v 17.5 11.4 -2.5
v 17.5 11.4 -2.6
v 17.4 11.3 -2.5
v 17.4 11.3 -2.6
v 17.5 11.3 -2.6
v 17.5 11.3 -2.5
v 17.4 11.4 -2.5
v 17.4 11.3 -2.5
v 17.5 11.3 -2.5
v 17.5 11.4 -2.5
v 17.5 11.4 -2.6
v 17.5 11.3 -2.6
v 17.4 11.3 -2.6
v 17.4 11.4 -2.6
v 17.5 11.4 -2.6
v 17.5 11.4 -2.5
v 17.6 11.4 -2.5
v 17.6 11.4 -2.6
v 17.5 11.3 -2.5
v 17.5 11.3 -2.6
v 17.6 11.3 -2.6
v 17.6 11.3 -2.5
v 17.5 11.4 -2.5
v 17.5 11.3 -2.5
v 17.6 11.3 -2.5
v 17.6 11.4 -2.5
v 17.6 11.4 -2.6
v 17.6 11.3 -2.6
v 17.5 11.3 -2.6
v 17.5 11.4 -2.6
v 17.6 11.4 -2.6
v 17.6 11.4 -2.5
v 17.7 11.4 -2.5
v 17.7 11.4 -2.6
v 17.6 11.3 -2.5
v 17.6 11.3 -2.6
v 17.7 11.3 -2.6
v 17.7 11.3 -2.5
v 17.6 11.4 -2.5
v 17.6 11.3 -2.5
v 17.7 11.3 -2.5
v 17.7 11.4 -2.5
v 17.7 11.4 -2.6
v 17.7 11.3 -2.6
v 17.6 11.3 -2.6
v 17.6 11.4 -2.6
v 17.7 11.4 -2.6
v 17.7 11.4 -2.5
v 17.8 11.4 -2.5
v 17.8 11.4 -2.6
v 17.7 11.3 -2.5
v 17.7 11.3 -2.6
v 17.8 11.3 -2.6
v 17.8 11.3 -2.5
v 17.7 11.4 -2.5
v 17.7 11.3 -2.5
v 17.8 11.3 -2.5
v 17.8 11.4 -2.5
v 17.8 11.4 -2.6
v 17.8 11.3 -2.6
v 17.7 11.3 -2.6
v 17.7 11.4 -2.6
v 17.8 11.4 -2.6
v 17.8 11.4 -2.5
v 17.9 11.4 -2.5
v 17.9 11.4 -2.6
v 17.8 11.3 -2.5
v 17.8 11.3 -2.6
v 17.9 11.3 -2.6
v 17.9 11.3 -2.5
v 17.8 11.4 -2.5
v 17.8 11.3 -2.5
v 17.9 11.3 -2.5
v 17.9 11.4 -2.5
v 17.9 11.4 -2.6
v 17.9 11.3 -2.6
v 17.8 11.3 -2.6
v 17.8 11.4 -2.6
v 17.9 11.4 -2.6
v 17.9 11.4 -2.5
v 18 11.4 -2.5
v 18 11.4 -2.6
v 17.9 11.3 -2.5
v 17.9 11.3 -2.6
v 18 11.3 -2.6
v 18 11.3 -2.5
v 17.9 11.4 -2.5
v 17.9 11.3 -2.5
v 18 11.3 -2.5
v 18 11.4 -2.5
v 18 11.4 -2.6
v 18 11.3 -2.6
v 17.9 11.3 -2.6
v 17.9 11.4 -2.6
v 18 11.4 -2.6
v 18 11.4 -2.5
v 18.1 11.4 -2.5
v 18.1 11.4 -2.6
v 18 11.3 -2.5
v 18 11.3 -2.6
v 18.1 11.3 -2.6
v 18.1 11.3 -2.5
v 18 11.4 -2.5
v 18 11.3 -2.5
v 18.1 11.3 -2.5
v 18.1 11.4 -2.5
v 18.1 11.4 -2.6
v 18.1 11.3 -2.6
v 18 11.3 -2.6
v 18 11.4 -2.6
v 18.1 11.4 -2.6
v 18.1 11.4 -2.5
v 18.2 11.4 -2.5
v 18.2 11.4 -2.6
v 18.1 11.3 -2.5
v 18.1 11.3 -2.6
v 18.2 11.3 -2.6
v 18.2 11.3 -2.5
v 18.1 11.4 -2.5
v 18.1 11.3 -2.5
v 18.2 11.3 -2.5
v 18.2 11.4 -2.5
v 18.2 11.4 -2.6
v 18.2 11.3 -2.6
v 18.1 11.3 -2.6
v 18.1 11.4 -2.6
v 18.2 11.4 -2.6
v 18.2 11.4 -2.5
v 18.3 11.4 -2.5
v 18.3 11.4 -2.6
v 18.2 11.3 -2.5
v 18.2 11.3 -2.6
v 18.3 11.3 -2.6
v 18.3 11.3 -2.5
v 18.2 11.4 -2.5
v 18.2 11.3 -2.5
v 18.3 11.3 -2.5
v 18.3 11.4 -2.5
v 18.3 11.4 -2.6
v 18.3 11.3 -2.6
v 18.2 11.3 -2.6
v 18.2 11.4 -2.6
v 18.3 11.4 -2.6
v 18.3 11.4 -2.5
v 18.4 11.4 -2.5
v 18.4 11.4 -2.6
v 18.3 11.3 -2.5
v 18.3 11.3 -2.6
v 18.4 11.3 -2.6
v 18.4 11.3 -2.5
v 18.3 11.4 -2.5
v 18.3 11.3 -2.5
v 18.4 11.3 -2.5
v 18.4 11.4 -2.5
v 18.4 11.4 -2.6
v 18.4 11.3 -2.6
v 18.3 11.3 -2.6
v 18.3 11.4 -2.6
v 18.4 11.4 -2.6
v 18.4 11.4 -2.5
v 18.5 11.4 -2.5
v 18.5 11.4 -2.6
v 18.4 11.3 -2.5
v 18.4 11.3 -2.6
v 18.5 11.3 -2.6
v 18.5 11.3 -2.5
v 18.4 11.4 -2.5
v 18.4 11.3 -2.5
v 18.5 11.3 -2.5
v 18.5 11.4 -2.5
v 18.5 11.4 -2.6
v 18.5 11.3 -2.6
v 18.4 11.3 -2.6
v 18.4 11.4 -2.6
v 18.5 11.4 -2.6
v 18.5 11.4 -2.5
v 18.6 11.4 -2.5
v 18.6 11.4 -2.6
v 18.5 11.3 -2.5
v 18.5 11.3 -2.6
v 18.6 11.3 -2.6
v 18.6 11.3 -2.5
v 18.5 11.4 -2.5
v 18.5 11.3 -2.5
v 18.6 11.3 -2.5
v 18.6 11.4 -2.5
v 18.6 11.4 -2.6
v 18.6 11.3 -2.6
v 18.5 11.3 -2.6
v 18.5 11.4 -2.6
v 18.6 11.4 -2.6
v 18.6 11.4 -2.5
v 18.7 11.4 -2.5
v 18.7 11.4 -2.6
v 18.6 11.3 -2.5
v 18.6 11.3 -2.6
v 18.7 11.3 -2.6
v 18.7 11.3 -2.5
v 18.6 11.4 -2.5
v 18.6 11.3 -2.5
v 18.7 11.3 -2.5
v 18.7 11.4 -2.5
v 18.7 11.4 -2.6
v 18.7 11.3 -2.6
v 18.6 11.3 -2.6
v 18.6 11.4 -2.6
v 18.7 11.4 -2.6
v 18.7 11.4 -2.5
v 18.8 11.4 -2.5
v 18.8 11.4 -2.6
v 18.7 11.3 -2.5
v 18.7 11.3 -2.6
v 18.8 11.3 -2.6
v 18.8 11.3 -2.5
v 18.7 11.4 -2.5
v 18.7 11.3 -2.5
v 18.8 11.3 -2.5
v 18.8 11.4 -2.5
v 18.8 11.4 -2.6
v 18.8 11.3 -2.6
v 18.7 11.3 -2.6
v 18.7 11.4 -2.6
v 18.8 11.4 -2.6
v 18.8 11.4 -2.5
v 18.9 11.4 -2.5
v 18.9 11.4 -2.6
v 18.8 11.3 -2.5
v 18.8 11.3 -2.6
v 18.9 11.3 -2.6
v 18.9 11.3 -2.5
v 18.8 11.4 -2.5
v 18.8 11.3 -2.5
v 18.9 11.3 -2.5
v 18.9 11.4 -2.5
v 18.9 11.4 -2.6
v 18.9 11.3 -2.6
v 18.8 11.3 -2.6
v 18.8 11.4 -2.6
v 18.9 11.4 -2.6
v 18.9 11.4 -2.5
v 19 11.4 -2.5
v 19 11.4 -2.6
v 18.9 11.3 -2.5
v 18.9 11.3 -2.6
v 19 11.3 -2.6
v 19 11.3 -2.5
v 18.9 11.4 -2.5
v 18.9 11.3 -2.5
v 19 11.3 -2.5
v 19 11.4 -2.5
v 19 11.4 -2.6
v 19 11.3 -2.6
v 18.9 11.3 -2.6
v 18.9 11.4 -2.6
v 19 11.4 -2.6
v 19 11.4 -2.5
v 19.1 11.4 -2.5
v 19.1 11.4 -2.6
v 19 11.3 -2.5
v 19 11.3 -2.6
v 19.1 11.3 -2.6
v 19.1 11.3 -2.5
v 19 11.4 -2.5
v 19 11.3 -2.5
v 19.1 11.3 -2.5
v 19.1 11.4 -2.5
v 19.1 11.4 -2.6
v 19.1 11.3 -2.6
v 19 11.3 -2.6
v 19 11.4 -2.6
v 19.1 11.4 -2.6
v 19.1 11.4 -2.5
v 19.2 11.4 -2.5
v 19.2 11.4 -2.6
v 19.1 11.3 -2.5
v 19.1 11.3 -2.6
v 19.2 11.3 -2.6
v 19.2 11.3 -2.5
v 19.1 11.4 -2.5
v 19.1 11.3 -2.5
v 19.2 11.3 -2.5
v 19.2 11.4 -2.5
v 19.2 11.4 -2.6
v 19.2 11.3 -2.6
v 19.1 11.3 -2.6
v 19.1 11.4 -2.6
v 19.2 11.4 -2.6
v 19.2 11.4 -2.5
v 19.3 11.4 -2.5
v 19.3 11.4 -2.6
v 19.2 11.3 -2.5
v 19.2 11.3 -2.6
v 19.3 11.3 -2.6
v 19.3 11.3 -2.5
v 19.2 11.4 -2.5
v 19.2 11.3 -2.5
v 19.3 11.3 -2.5
v 19.3 11.4 -2.5
v 19.3 11.4 -2.6
v 19.3 11.3 -2.6
v 19.2 11.3 -2.6
v 19.2 11.4 -2.6
v 19.3 11.4 -2.6
v 19.3 11.4 -2.5
v 19.4 11.4 -2.5
v 19.4 11.4 -2.6
v 19.3 11.3 -2.5
v 19.3 11.3 -2.6
v 19.4 11.3 -2.6
v 19.4 11.3 -2.5
v 19.3 11.4 -2.5
v 19.3 11.3 -2.5
v 19.4 11.3 -2.5
v 19.4 11.4 -2.5
v 19.4 11.4 -2.6
v 19.4 11.3 -2.6
v 19.3 11.3 -2.6
v 19.3 11.4 -2.6
v 19.5 11.4 -2.5
v 19.5 11.3 -2.5
v 19.5 11.3 -2.6
v 19.5 11.4 -2.6
v 19.4 11.4 -2.6
v 19.4 11.4 -2.5
v 19.5 11.4 -2.5
v 19.5 11.4 -2.6
v 19.4 11.3 -2.5
v 19.4 11.3 -2.6
v 19.5 11.3 -2.6
v 19.5 11.3 -2.5
v 19.4 11.4 -2.5
v 19.4 11.3 -2.5
v 19.5 11.3 -2.5
v 19.5 11.4 -2.5
v 19.5 11.4 -2.6
v 19.5 11.3 -2.6
v 19.4 11.3 -2.6
v 19.4 11.4 -2.6
v 13.1 11 -2.6
v 13.1 10.9 -2.6
v 13.1 10.9 -2.5
v 13.1 11 -2.5
v 13.1 11 -2.6
v 13.1 11 -2.5
v 13.2 11 -2.5
v 13.2 11 -2.6
v 13.1 10.9 -2.5
v 13.1 10.9 -2.6
v 13.2 10.9 -2.6
v 13.2 10.9 -2.5
v 13.1 11 -2.5
v 13.1 10.9 -2.5
v 13.2 10.9 -2.5
v 13.2 11 -2.5
v 13.2 11 -2.6
v 13.2 10.9 -2.6
v 13.1 10.9 -2.6
v 13.1 11 -2.6
v 13.2 11 -2.6
v 13.2 11 -2.5
v 13.3 11 -2.5
v 13.3 11 -2.6
v 13.2 10.9 -2.5
v 13.2 10.9 -2.6
v 13.3 10.9 -2.6
v 13.3 10.9 -2.5
v 13.2 11 -2.5
v 13.2 10.9 -2.5
v 13.3 10.9 -2.5
v 13.3 11 -2.5
v 13.3 11 -2.6
v 13.3 10.9 -2.6
v 13.2 10.9 -2.6
v 13.2 11 -2.6
v 13.4 11 -2.5
v 13.4 10.9 -2.5
v 13.4 10.9 -2.6
v 13.4 11 -2.6
v 13.3 11 -2.6
v 13.3 11 -2.5
v 13.4 11 -2.5
v 13.4 11 -2.6
v 13.3 10.9 -2.5
v 13.3 10.9 -2.6
v 13.4 10.9 -2.6
v 13.4 10.9 -2.5
v 13.3 11 -2.5
v 13.3 10.9 -2.5
v 13.4 10.9 -2.5
v 13.4 11 -2.5
v 13.4 11 -2.6
v 13.4 10.9 -2.6
v 13.3 10.9 -2.6
v 13.3 11 -2.6
v 17.8 10.2 -2.6
v 17.8 10.1 -2.6
v 17.8 10.1 -2.5
v 17.8 10.2 -2.5
v 17.8 10.2 -2.6
v 17.8 10.2 -2.5
v 17.9 10.2 -2.5
v 17.9 10.2 -2.6
v 17.8 10.1 -2.5
v 17.8 10.1 -2.6
v 17.9 10.1 -2.6
v 17.9 10.1 -2.5
v 17.8 10.2 -2.5
v 17.8 10.1 -2.5
v 17.9 10.1 -2.5
v 17.9 10.2 -2.5
v 17.9 10.2 -2.6
v 17.9 10.1 -2.6
v 17.8 10.1 -2.6
v 17.8 10.2 -2.6
v 17.9 10.2 -2.6
v 17.9 10.2 -2.5
v 18 10.2 -2.5
v 18 10.2 -2.6
v 17.9 10.1 -2.5
v 17.9 10.1 -2.6
v 18 10.1 -2.6
v 18 10.1 -2.5
v 17.9 10.2 -2.5
v 17.9 10.1 -2.5
v 18 10.1 -2.5
v 18 10.2 -2.5
v 18 10.2 -2.6
v 18 10.1 -2.6
v 17.9 10.1 -2.6
v 17.9 10.2 -2.6
v 18 10.2 -2.6
v 18 10.2 -2.5
v 18.1 10.2 -2.5
v 18.1 10.2 -2.6
v 18 10.1 -2.5
v 18 10.1 -2.6
v 18.1 10.1 -2.6
v 18.1 10.1 -2.5
v 18 10.2 -2.5
v 18 10.1 -2.5
v 18.1 10.1 -2.5
v 18.1 10.2 -2.5
v 18.1 10.2 -2.6
v 18.1 10.1 -2.6
v 18 10.1 -2.6
v 18 10.2 -2.6
v 18.1 10.2 -2.6
v 18.1 10.2 -2.5
v 18.2 10.2 -2.5
v 18.2 10.2 -2.6
v 18.1 10.1 -2.5
v 18.1 10.1 -2.6
v 18.2 10.1 -2.6
v 18.2 10.1 -2.5
v 18.1 10.2 -2.5
v 18.1 10.1 -2.5
v 18.2 10.1 -2.5
v 18.2 10.2 -2.5
v 18.2 10.2 -2.6
v 18.2 10.1 -2.6
v 18.1 10.1 -2.6
v 18.1 10.2 -2.6
v 18.2 10.2 -2.6
v 18.2 10.2 -2.5
v 18.3 10.2 -2.5
v 18.3 10.2 -2.6
v 18.2 10.1 -2.5
v 18.2 10.1 -2.6
v 18.3 10.1 -2.6
v 18.3 10.1 -2.5
v 18.2 10.2 -2.5
v 18.2 10.1 -2.5
v 18.3 10.1 -2.5
v 18.3 10.2 -2.5
v 18.3 10.2 -2.6
v 18.3 10.1 -2.6
v 18.2 10.1 -2.6
v 18.2 10.2 -2.6
v 18.3 10.2 -2.6
v 18.3 10.2 -2.5
v 18.4 10.2 -2.5
v 18.4 10.2 -2.6
v 18.3 10.1 -2.5
v 18.3 10.1 -2.6
v 18.4 10.1 -2.6
v 18.4 10.1 -2.5
v 18.3 10.2 -2.5
v 18.3 10.1 -2.5
v 18.4 10.1 -2.5
v 18.4 10.2 -2.5
v 18.4 10.2 -2.6
v 18.4 10.1 -2.6
v 18.3 10.1 -2.6
v 18.3 10.2 -2.6
v 18.4 10.2 -2.6
v 18.4 10.2 -2.5
v 18.5 10.2 -2.5
v 18.5 10.2 -2.6
v 18.4 10.1 -2.5
v 18.4 10.1 -2.6
v 18.5 10.1 -2.6
v 18.5 10.1 -2.5
v 18.4 10.2 -2.5
v 18.4 10.1 -2.5
v 18.5 10.1 -2.5
v 18.5 10.2 -2.5
v 18.5 10.2 -2.6
v 18.5 10.1 -2.6
v 18.4 10.1 -2.6
v 18.4 10.2 -2.6
v 18.5 10.2 -2.6
v 18.5 10.2 -2.5
v 18.6 10.2 -2.5
v 18.6 10.2 -2.6
v 18.5 10.1 -2.5
v 18.5 10.1 -2.6
v 18.6 10.1 -2.6
v 18.6 10.1 -2.5
v 18.5 10.2 -2.5
v 18.5 10.1 -2.5
v 18.6 10.1 -2.5
v 18.6 10.2 -2.5
v 18.6 10.2 -2.6
v 18.6 10.1 -2.6
v 18.5 10.1 -2.6
v 18.5 10.2 -2.6
v 18.6 10.2 -2.6
v 18.6 10.2 -2.5
v 18.7 10.2 -2.5
v 18.7 10.2 -2.6
v 18.6 10.1 -2.5
v 18.6 10.1 -2.6
v 18.7 10.1 -2.6
v 18.7 10.1 -2.5
v 18.6 10.2 -2.5
v 18.6 10.1 -2.5
v 18.7 10.1 -2.5
v 18.7 10.2 -2.5
v 18.7 10.2 -2.6
v 18.7 10.1 -2.6
v 18.6 10.1 -2.6
v 18.6 10.2 -2.6
v 18.7 10.2 -2.6
v 18.7 10.2 -2.5
v 18.8 10.2 -2.5
v 18.8 10.2 -2.6
v 18.7 10.1 -2.5
v 18.7 10.1 -2.6
v 18.8 10.1 -2.6
v 18.8 10.1 -2.5
v 18.7 10.2 -2.5
v 18.7 10.1 -2.5
v 18.8 10.1 -2.5
v 18.8 10.2 -2.5
v 18.8 10.2 -2.6
v 18.8 10.1 -2.6
v 18.7 10.1 -2.6
v 18.7 10.2 -2.6
v 18.8 10.2 -2.6
v 18.8 10.2 -2.5
v 18.9 10.2 -2.5
v 18.9 10.2 -2.6
v 18.8 10.1 -2.5
v 18.8 10.1 -2.6
v 18.9 10.1 -2.6
v 18.9 10.1 -2.5
v 18.8 10.2 -2.5
v 18.8 10.1 -2.5
v 18.9 10.1 -2.5
v 18.9 10.2 -2.5
v 18.9 10.2 -2.6
v 18.9 10.1 -2.6
v 18.8 10.1 -2.6
v 18.8 10.2 -2.6
v 18.9 10.2 -2.6
v 18.9 10.2 -2.5
v 19 10.2 -2.5
v 19 10.2 -2.6
v 18.9 10.1 -2.5
v 18.9 10.1 -2.6
v 19 10.1 -2.6
v 19 10.1 -2.5
v 18.9 10.2 -2.5
v 18.9 10.1 -2.5
v 19 10.1 -2.5
v 19 10.2 -2.5
v 19 10.2 -2.6
v 19 10.1 -2.6
v 18.9 10.1 -2.6
v 18.9 10.2 -2.6
v 19 10.2 -2.6
v 19 10.2 -2.5
v 19.1 10.2 -2.5
v 19.1 10.2 -2.6
v 19 10.1 -2.5
v 19 10.1 -2.6
v 19.1 10.1 -2.6
v 19.1 10.1 -2.5
v 19 10.2 -2.5
v 19 10.1 -2.5
v 19.1 10.1 -2.5
v 19.1 10.2 -2.5
v 19.1 10.2 -2.6
v 19.1 10.1 -2.6
v 19 10.1 -2.6
v 19 10.2 -2.6
v 19.1 10.2 -2.6
v 19.1 10.2 -2.5
v 19.2 10.2 -2.5
v 19.2 10.2 -2.6
v 19.1 10.1 -2.5
v 19.1 10.1 -2.6
v 19.2 10.1 -2.6
v 19.2 10.1 -2.5
v 19.1 10.2 -2.5
v 19.1 10.1 -2.5
v 19.2 10.1 -2.5
v 19.2 10.2 -2.5
v 19.2 10.2 -2.6
v 19.2 10.1 -2.6
v 19.1 10.1 -2.6
v 19.1 10.2 -2.6
v 19.2 10.2 -2.6
v 19.2 10.2 -2.5
v 19.3 10.2 -2.5
v 19.3 10.2 -2.6
v 19.2 10.1 -2.5
v 19.2 10.1 -2.6
v 19.3 10.1 -2.6
v 19.3 10.1 -2.5
v 19.2 10.2 -2.5
v 19.2 10.1 -2.5
v 19.3 10.1 -2.5
v 19.3 10.2 -2.5
v 19.3 10.2 -2.6
v 19.3 10.1 -2.6
v 19.2 10.1 -2.6
v 19.2 10.2 -2.6
v 19.4 10.2 -2.5
v 19.4 10.1 -2.5
v 19.4 10.1 -2.6
v 19.4 10.2 -2.6
v 19.3 10.2 -2.6
v 19.3 10.2 -2.5
v 19.4 10.2 -2.5
v 19.4 10.2 -2.6
v 19.3 10.1 -2.5
v 19.3 10.1 -2.6
v 19.4 10.1 -2.6
v 19.4 10.1 -2.5
v 19.3 10.2 -2.5
v 19.3 10.1 -2.5
v 19.4 10.1 -2.5
v 19.4 10.2 -2.5
v 19.4 10.2 -2.6
v 19.4 10.1 -2.6
v 19.3 10.1 -2.6
v 19.3 10.2 -2.6
v 19.6 9.6 -2.6
v 19.6 9.5 -2.6
v 19.6 9.5 -2.5
v 19.6 9.6 -2.5
v 19.7 9.6 -2.5
v 19.7 9.5 -2.5
v 19.7 9.5 -2.6
v 19.7 9.6 -2.6
v 19.6 9.6 -2.6
v 19.6 9.6 -2.5
v 19.7 9.6 -2.5
v 19.7 9.6 -2.6
v 19.6 9.5 -2.5
v 19.6 9.5 -2.6
v 19.7 9.5 -2.6
v 19.7 9.5 -2.5
v 19.6 9.6 -2.5
v 19.6 9.5 -2.5
v 19.7 9.5 -2.5
v 19.7 9.6 -2.5
v 19.7 9.6 -2.6
v 19.7 9.5 -2.6
v 19.6 9.5 -2.6
v 19.6 9.6 -2.6
v 19.5 9.5 -2.6
v 19.5 9.4 -2.6
v 19.5 9.4 -2.5
v 19.5 9.5 -2.5
v 19.6 9.5 -2.5
v 19.6 9.4 -2.5
v 19.6 9.4 -2.6
v 19.6 9.5 -2.6
v 19.5 9.5 -2.6
v 19.5 9.5 -2.5
v 19.6 9.5 -2.5
v 19.6 9.5 -2.6
v 19.5 9.4 -2.5
v 19.5 9.4 -2.6
v 19.6 9.4 -2.6
v 19.6 9.4 -2.5
v 19.5 9.5 -2.5
v 19.5 9.4 -2.5
v 19.6 9.4 -2.5
v 19.6 9.5 -2.5
v 19.6 9.5 -2.6
v 19.6 9.4 -2.6
v 19.5 9.4 -2.6
v 19.5 9.5 -2.6
v 19.4 9.4 -2.6
v 19.4 9.3 -2.6
v 19.4 9.3 -2.5
v 19.4 9.4 -2.5
v 19.5 9.4 -2.5
v 19.5 9.3 -2.5
v 19.5 9.3 -2.6
v 19.5 9.4 -2.6
v 19.4 9.4 -2.6
v 19.4 9.4 -2.5
v 19.5 9.4 -2.5
v 19.5 9.4 -2.6
v 19.4 9.4 -2.5
v 19.4 9.3 -2.5
v 19.5 9.3 -2.5
v 19.5 9.4 -2.5
v 19.5 9.4 -2.6
v 19.5 9.3 -2.6
v 19.4 9.3 -2.6
v 19.4 9.4 -2.6
v 19.4 9.3 -2.6
v 19.4 9.2 -2.6
v 19.4 9.2 -2.5
v 19.4 9.3 -2.5
v 19.5 9.3 -2.5
v 19.5 9.2 -2.5
v 19.5 9.2 -2.6
v 19.5 9.3 -2.6
v 19.4 9.2 -2.5
v 19.4 9.2 -2.6
v 19.5 9.2 -2.6
v 19.5 9.2 -2.5
v 19.4 9.3 -2.5
v 19.4 9.2 -2.5
v 19.5 9.2 -2.5
v 19.5 9.3 -2.5
v 19.5 9.3 -2.6
v 19.5 9.2 -2.6
v 19.4 9.2 -2.6
v 19.4 9.3 -2.6
v 19.3 9.2 -2.6
v 19.3 9.1 -2.6
v 19.3 9.1 -2.5
v 19.3 9.2 -2.5
v 19.4 9.2 -2.5
v 19.4 9.1 -2.5
v 19.4 9.1 -2.6
v 19.4 9.2 -2.6
v 19.3 9.2 -2.6
v 19.3 9.2 -2.5
v 19.4 9.2 -2.5
v 19.4 9.2 -2.6
v 19.3 9.2 -2.5
v 19.3 9.1 -2.5
v 19.4 9.1 -2.5
v 19.4 9.2 -2.5
v 19.4 9.2 -2.6
v 19.4 9.1 -2.6
v 19.3 9.1 -2.6
v 19.3 9.2 -2.6
v 19.3 9.1 -2.6
v 19.3 9 -2.6
v 19.3 9 -2.5
v 19.3 9.1 -2.5
v 19.4 9.1 -2.5
v 19.4 9 -2.5
v 19.4 9 -2.6
v 19.4 9.1 -2.6
v 19.3 9 -2.5
v 19.3 9 -2.6
v 19.4 9 -2.6
v 19.4 9 -2.5
v 19.3 9.1 -2.5
v 19.3 9 -2.5
v 19.4 9 -2.5
v 19.4 9.1 -2.5
v 19.4 9.1 -2.6
v 19.4 9 -2.6
v 19.3 9 -2.6
v 19.3 9.1 -2.6
v 19.2 9 -2.6
v 19.2 8.9 -2.6
v 19.2 8.9 -2.5
v 19.2 9 -2.5
v 19.3 9 -2.5
v 19.3 8.9 -2.5
v 19.3 8.9 -2.6
v 19.3 9 -2.6
v 19.2 9 -2.6
v 19.2 9 -2.5
v 19.3 9 -2.5
v 19.3 9 -2.6
v 19.2 8.9 -2.5
v 19.2 8.9 -2.6
v 19.3 8.9 -2.6
v 19.3 8.9 -2.5
v 19.2 9 -2.5
v 19.2 8.9 -2.5
v 19.3 8.9 -2.5
v 19.3 9 -2.5
v 19.3 9 -2.6
v 19.3 8.9 -2.6
v 19.2 8.9 -2.6
v 19.2 9 -2.6
v 19.1 8.9 -2.6
v 19.1 8.8 -2.6
v 19.1 8.8 -2.5
v 19.1 8.9 -2.5
v 19.2 8.9 -2.5
v 19.2 8.8 -2.5
v 19.2 8.8 -2.6
v 19.2 8.9 -2.6
v 19.1 8.9 -2.6
v 19.1 8.9 -2.5
v 19.2 8.9 -2.5
v 19.2 8.9 -2.6
v 19.1 8.9 -2.5
v 19.1 8.8 -2.5
v 19.2 8.8 -2.5
v 19.2 8.9 -2.5
v 19.2 8.9 -2.6
v 19.2 8.8 -2.6
v 19.1 8.8 -2.6
v 19.1 8.9 -2.6
v 19.1 8.8 -2.6
v 19.1 8.7 -2.6
v 19.1 8.7 -2.5
v 19.1 8.8 -2.5
v 19.2 8.8 -2.5
v 19.2 8.7 -2.5
v 19.2 8.7 -2.6
v 19.2 8.8 -2.6
v 19.1 8.7 -2.5
v 19.1 8.7 -2.6
v 19.2 8.7 -2.6
v 19.2 8.7 -2.5
v 19.1 8.8 -2.5
v 19.1 8.7 -2.5
v 19.2 8.7 -2.5
v 19.2 8.8 -2.5
v 19.2 8.8 -2.6
v 19.2 8.7 -2.6
v 19.1 8.7 -2.6
v 19.1 8.8 -2.6
v 19 8.7 -2.6
v 19 8.6 -2.6
v 19 8.6 -2.5
v 19 8.7 -2.5
v 19.1 8.7 -2.5
v 19.1 8.6 -2.5
v 19.1 8.6 -2.6
v 19.1 8.7 -2.6
v 19 8.7 -2.6
v 19 8.7 -2.5
v 19.1 8.7 -2.5
v 19.1 8.7 -2.6
v 19 8.6 -2.5
v 19 8.6 -2.6
v 19.1 8.6 -2.6
v 19.1 8.6 -2.5
v 19 8.7 -2.5
v 19 8.6 -2.5
v 19.1 8.6 -2.5
v 19.1 8.7 -2.5
v 19.1 8.7 -2.6
v 19.1 8.6 -2.6
v 19 8.6 -2.6
v 19 8.7 -2.6
v 18.9 8.6 -2.6
v 18.9 8.5 -2.6
v 18.9 8.5 -2.5
v 18.9 8.6 -2.5
v 19 8.6 -2.5
v 19 8.5 -2.5
v 19 8.5 -2.6
v 19 8.6 -2.6
v 18.9 8.6 -2.6
v 18.9 8.6 -2.5
v 19 8.6 -2.5
v 19 8.6 -2.6
v 18.9 8.6 -2.5
v 18.9 8.5 -2.5
v 19 8.5 -2.5
v 19 8.6 -2.5
v 19 8.6 -2.6
v 19 8.5 -2.6
v 18.9 8.5 -2.6
v 18.9 8.6 -2.6
v 18.9 8.5 -2.6
v 18.9 8.4 -2.6
v 18.9 8.4 -2.5
v 18.9 8.5 -2.5
v 19 8.5 -2.5
v 19 8.4 -2.5
v 19 8.4 -2.6
v 19 8.5 -2.6
v 18.9 8.4 -2.5
v 18.9 8.4 -2.6
v 19 8.4 -2.6
v 19 8.4 -2.5
v 18.9 8.5 -2.5
v 18.9 8.4 -2.5
v 19 8.4 -2.5
v 19 8.5 -2.5
v 19 8.5 -2.6
v 19 8.4 -2.6
v 18.9 8.4 -2.6
v 18.9 8.5 -2.6
v 18.8 8.4 -2.6
v 18.8 8.3 -2.6
v 18.8 8.3 -2.5
v 18.8 8.4 -2.5
v 18.9 8.4 -2.5
v 18.9 8.3 -2.5
v 18.9 8.3 -2.6
v 18.9 8.4 -2.6
v 18.8 8.4 -2.6
v 18.8 8.4 -2.5
v 18.9 8.4 -2.5
v 18.9 8.4 -2.6
v 18.8 8.4 -2.5
v 18.8 8.3 -2.5
v 18.9 8.3 -2.5
v 18.9 8.4 -2.5
v 18.9 8.4 -2.6
v 18.9 8.3 -2.6
v 18.8 8.3 -2.6
v 18.8 8.4 -2.6
v 18.8 8.3 -2.6
v 18.8 8.2 -2.6
v 18.8 8.2 -2.5
v 18.8 8.3 -2.5
v 18.9 8.3 -2.5
v 18.9 8.2 -2.5
v 18.9 8.2 -2.6
v 18.9 8.3 -2.6
v 18.8 8.2 -2.5
v 18.8 8.2 -2.6
v 18.9 8.2 -2.6
v 18.9 8.2 -2.5
v 18.8 8.3 -2.5
v 18.8 8.2 -2.5
v 18.9 8.2 -2.5
v 18.9 8.3 -2.5
v 18.9 8.3 -2.6
v 18.9 8.2 -2.6
v 18.8 8.2 -2.6
v 18.8 8.3 -2.6
v 18.7 8.2 -2.6
v 18.7 8.1 -2.6
v 18.7 8.1 -2.5
v 18.7 8.2 -2.5
v 18.8 8.2 -2.5
v 18.8 8.1 -2.5
v 18.8 8.1 -2.6
v 18.8 8.2 -2.6
v 18.7 8.2 -2.6
v 18.7 8.2 -2.5
v 18.8 8.2 -2.5
v 18.8 8.2 -2.6
v 18.7 8.1 -2.5
v 18.7 8.1 -2.6
v 18.8 8.1 -2.6
v 18.8 8.1 -2.5
v 18.7 8.2 -2.5
v 18.7 8.1 -2.5
v 18.8 8.1 -2.5
v 18.8 8.2 -2.5
v 18.8 8.2 -2.6
v 18.8 8.1 -2.6
v 18.7 8.1 -2.6
v 18.7 8.2 -2.6
v 18.6 8.1 -2.6
v 18.6 8 -2.6
v 18.6 8 -2.5
v 18.6 8.1 -2.5
v 18.7 8.1 -2.5
v 18.7 8 -2.5
v 18.7 8 -2.6
v 18.7 8.1 -2.6
v 18.6 8.1 -2.6
v 18.6 8.1 -2.5
v 18.7 8.1 -2.5
v 18.7 8.1 -2.6
v 18.6 8.1 -2.5
v 18.6 8 -2.5
v 18.7 8 -2.5
v 18.7 8.1 -2.5
v 18.7 8.1 -2.6
v 18.7 8 -2.6
v 18.6 8 -2.6
v 18.6 8.1 -2.6
v 18.6 8 -2.6
v 18.6 7.9 -2.6
v 18.6 7.9 -2.5
v 18.6 8 -2.5
v 18.7 8 -2.5
v 18.7 7.9 -2.5
v 18.7 7.9 -2.6
v 18.7 8 -2.6
v 18.6 7.9 -2.5
v 18.6 7.9 -2.6
v 18.7 7.9 -2.6
v 18.7 7.9 -2.5
v 18.6 8 -2.5
v 18.6 7.9 -2.5
v 18.7 7.9 -2.5
v 18.7 8 -2.5
v 18.7 8 -2.6
v 18.7 7.9 -2.6
v 18.6 7.9 -2.6
v 18.6 8 -2.6
v 18.5 7.9 -2.6
v 18.5 7.8 -2.6
v 18.5 7.8 -2.5
v 18.5 7.9 -2.5
v 18.6 7.9 -2.5
v 18.6 7.8 -2.5
v 18.6 7.8 -2.6
v 18.6 7.9 -2.6
v 18.5 7.9 -2.6
v 18.5 7.9 -2.5
v 18.6 7.9 -2.5
v 18.6 7.9 -2.6
v 18.5 7.8 -2.5
v 18.5 7.8 -2.6
v 18.6 7.8 -2.6
v 18.6 7.8 -2.5
v 18.5 7.9 -2.5
v 18.5 7.8 -2.5
v 18.6 7.8 -2.5
v 18.6 7.9 -2.5
v 18.6 7.9 -2.6
v 18.6 7.8 -2.6
v 18.5 7.8 -2.6
v 18.5 7.9 -2.6
v 18.4 7.8 -2.6
v 18.4 7.7 -2.6
v 18.4 7.7 -2.5
v 18.4 7.8 -2.5
v 18.5 7.8 -2.5
v 18.5 7.7 -2.5
v 18.5 7.7 -2.6
v 18.5 7.8 -2.6
v 18.4 7.8 -2.6
v 18.4 7.8 -2.5
v 18.5 7.8 -2.5
v 18.5 7.8 -2.6
v 18.4 7.8 -2.5
v 18.4 7.7 -2.5
v 18.5 7.7 -2.5
v 18.5 7.8 -2.5
v 18.5 7.8 -2.6
v 18.5 7.7 -2.6
v 18.4 7.7 -2.6
v 18.4 7.8 -2.6
v 18.4 7.7 -2.6
v 18.4 7.6 -2.6
v 18.4 7.6 -2.5
v 18.4 7.7 -2.5
v 18.5 7.7 -2.5
v 18.5 7.6 -2.5
v 18.5 7.6 -2.6
v 18.5 7.7 -2.6
v 18.4 7.6 -2.5
v 18.4 7.6 -2.6
v 18.5 7.6 -2.6
v 18.5 7.6 -2.5
v 18.4 7.7 -2.5
v 18.4 7.6 -2.5
v 18.5 7.6 -2.5
v 18.5 7.7 -2.5
v 18.5 7.7 -2.6
v 18.5 7.6 -2.6
v 18.4 7.6 -2.6
v 18.4 7.7 -2.6
v 18.3 7.6 -2.6
v 18.3 7.5 -2.6
v 18.3 7.5 -2.5
v 18.3 7.6 -2.5
v 18.4 7.6 -2.5
v 18.4 7.5 -2.5
v 18.4 7.5 -2.6
v 18.4 7.6 -2.6
v 18.3 7.6 -2.6
v 18.3 7.6 -2.5
v 18.4 7.6 -2.5
v 18.4 7.6 -2.6
v 18.3 7.6 -2.5
v 18.3 7.5 -2.5
v 18.4 7.5 -2.5
v 18.4 7.6 -2.5
v 18.4 7.6 -2.6
v 18.4 7.5 -2.6
v 18.3 7.5 -2.6
v 18.3 7.6 -2.6
v 18.3 7.5 -2.6
v 18.3 7.4 -2.6
v 18.3 7.4 -2.5
v 18.3 7.5 -2.5
v 18.4 7.5 -2.5
v 18.4 7.4 -2.5
v 18.4 7.4 -2.6
v 18.4 7.5 -2.6
v 18.3 7.4 -2.5
v 18.3 7.4 -2.6
v 18.4 7.4 -2.6
v 18.4 7.4 -2.5
v 18.3 7.5 -2.5
v 18.3 7.4 -2.5
v 18.4 7.4 -2.5
v 18.4 7.5 -2.5
v 18.4 7.5 -2.6
v 18.4 7.4 -2.6
v 18.3 7.4 -2.6
v 18.3 7.5 -2.6
v 18.2 7.4 -2.6
v 18.2 7.3 -2.6
v 18.2 7.3 -2.5
v 18.2 7.4 -2.5
v 18.3 7.4 -2.5
v 18.3 7.3 -2.5
v 18.3 7.3 -2.6
v 18.3 7.4 -2.6
v 18.2 7.4 -2.6
v 18.2 7.4 -2.5
v 18.3 7.4 -2.5
v 18.3 7.4 -2.6
v 18.2 7.3 -2.5
v 18.2 7.3 -2.6
v 18.3 7.3 -2.6
v 18.3 7.3 -2.5
v 18.2 7.4 -2.5
v 18.2 7.3 -2.5
v 18.3 7.3 -2.5
v 18.3 7.4 -2.5
v 18.3 7.4 -2.6
v 18.3 7.3 -2.6
v 18.2 7.3 -2.6
v 18.2 7.4 -2.6
v 18.1 7.3 -2.6
v 18.1 7.2 -2.6
v 18.1 7.2 -2.5
v 18.1 7.3 -2.5
v 18.2 7.3 -2.5
v 18.2 7.2 -2.5
v 18.2 7.2 -2.6
v 18.2 7.3 -2.6
v 18.1 7.3 -2.6
v 18.1 7.3 -2.5
v 18.2 7.3 -2.5
v 18.2 7.3 -2.6
v 18.1 7.3 -2.5
v 18.1 7.2 -2.5
v 18.2 7.2 -2.5
v 18.2 7.3 -2.5
v 18.2 7.3 -2.6
v 18.2 7.2 -2.6
v 18.1 7.2 -2.6
v 18.1 7.3 -2.6
v 18.1 7.2 -2.6
v 18.1 7.1 -2.6
v 18.1 7.1 -2.5
v 18.1 7.2 -2.5
v 18.2 7.2 -2.5
v 18.2 7.1 -2.5
v 18.2 7.1 -2.6
v 18.2 7.2 -2.6
v 18.1 7.1 -2.5
v 18.1 7.1 -2.6
v 18.2 7.1 -2.6
v 18.2 7.1 -2.5
v 18.1 7.2 -2.5
v 18.1 7.1 -2.5
v 18.2 7.1 -2.5
v 18.2 7.2 -2.5
v 18.2 7.2 -2.6
v 18.2 7.1 -2.6
v 18.1 7.1 -2.6
v 18.1 7.2 -2.6
v 18 7.1 -2.6
v 18 7 -2.6
v 18 7 -2.5
v 18 7.1 -2.5
v 18.1 7.1 -2.5
v 18.1 7 -2.5
v 18.1 7 -2.6
v 18.1 7.1 -2.6
v 18 7.1 -2.6
v 18 7.1 -2.5
v 18.1 7.1 -2.5
v 18.1 7.1 -2.6
v 18 7 -2.5
v 18 7 -2.6
v 18.1 7 -2.6
v 18.1 7 -2.5
v 18 7.1 -2.5
v 18 7 -2.5
v 18.1 7 -2.5
v 18.1 7.1 -2.5
v 18.1 7.1 -2.6
v 18.1 7 -2.6
v 18 7 -2.6
v 18 7.1 -2.6
v 17.9 7 -2.6
v 17.9 6.9 -2.6
v 17.9 6.9 -2.5
v 17.9 7 -2.5
v 18 7 -2.5
v 18 6.9 -2.5
v 18 6.9 -2.6
v 18 7 -2.6
v 17.9 7 -2.6
v 17.9 7 -2.5
v 18 7 -2.5
v 18 7 -2.6
v 17.9 7 -2.5
v 17.9 6.9 -2.5
v 18 6.9 -2.5
v 18 7 -2.5
v 18 7 -2.6
v 18 6.9 -2.6
v 17.9 6.9 -2.6
v 17.9 7 -2.6
v 17.9 6.9 -2.6
v 17.9 6.8 -2.6
v 17.9 6.8 -2.5
v 17.9 6.9 -2.5
v 18 6.9 -2.5
v 18 6.8 -2.5
v 18 6.8 -2.6
v 18 6.9 -2.6
v 17.9 6.8 -2.5
v 17.9 6.8 -2.6
v 18 6.8 -2.6
v 18 6.8 -2.5
v 17.9 6.9 -2.5
v 17.9 6.8 -2.5
v 18 6.8 -2.5
v 18 6.9 -2.5
v 18 6.9 -2.6
v 18 6.8 -2.6
v 17.9 6.8 -2.6
v 17.9 6.9 -2.6
v 17.8 6.8 -2.6
v 17.8 6.7 -2.6
v 17.8 6.7 -2.5
v 17.8 6.8 -2.5
v 17.9 6.8 -2.5
v 17.9 6.7 -2.5
v 17.9 6.7 -2.6
v 17.9 6.8 -2.6
v 17.8 6.8 -2.6
v 17.8 6.8 -2.5
v 17.9 6.8 -2.5
v 17.9 6.8 -2.6
v 17.8 6.8 -2.5
v 17.8 6.7 -2.5
v 17.9 6.7 -2.5
v 17.9 6.8 -2.5
v 17.9 6.8 -2.6
v 17.9 6.7 -2.6
v 17.8 6.7 -2.6
v 17.8 6.8 -2.6
v 17.8 6.7 -2.6
v 17.8 6.6 -2.6
v 17.8 6.6 -2.5
v 17.8 6.7 -2.5
v 17.9 6.7 -2.5
v 17.9 6.6 -2.5
v 17.9 6.6 -2.6
v 17.9 6.7 -2.6
v 17.8 6.6 -2.5
v 17.8 6.6 -2.6
v 17.9 6.6 -2.6
v 17.9 6.6 -2.5
v 17.8 6.7 -2.5
v 17.8 6.6 -2.5
v 17.9 6.6 -2.5
v 17.9 6.7 -2.5
v 17.9 6.7 -2.6
v 17.9 6.6 -2.6
v 17.8 6.6 -2.6
v 17.8 6.7 -2.6
v 17.7 6.6 -2.6
v 17.7 6.5 -2.6
v 17.7 6.5 -2.5
v 17.7 6.6 -2.5
v 17.8 6.6 -2.5
v 17.8 6.5 -2.5
v 17.8 6.5 -2.6
v 17.8 6.6 -2.6
v 17.7 6.6 -2.6
v 17.7 6.6 -2.5
v 17.8 6.6 -2.5
v 17.8 6.6 -2.6
v 17.7 6.5 -2.5
v 17.7 6.5 -2.6
v 17.8 6.5 -2.6
v 17.8 6.5 -2.5
v 17.7 6.6 -2.5
v 17.7 6.5 -2.5
v 17.8 6.5 -2.5
v 17.8 6.6 -2.5
v 17.8 6.6 -2.6
v 17.8 6.5 -2.6
v 17.7 6.5 -2.6
v 17.7 6.6 -2.6
v 17.6 6.5 -2.6
v 17.6 6.4 -2.6
v 17.6 6.4 -2.5
v 17.6 6.5 -2.5
v 17.7 6.5 -2.5
v 17.7 6.4 -2.5
v 17.7 6.4 -2.6
v 17.7 6.5 -2.6
v 17.6 6.5 -2.6
v 17.6 6.5 -2.5
v 17.7 6.5 -2.5
v 17.7 6.5 -2.6
v 17.6 6.5 -2.5
v 17.6 6.4 -2.5
v 17.7 6.4 -2.5
v 17.7 6.5 -2.5
v 17.7 6.5 -2.6
v 17.7 6.4 -2.6
v 17.6 6.4 -2.6
v 17.6 6.5 -2.6
v 17.6 6.4 -2.6
v 17.6 6.3 -2.6
v 17.6 6.3 -2.5
v 17.6 6.4 -2.5
v 17.7 6.4 -2.5
v 17.7 6.3 -2.5
v 17.7 6.3 -2.6
v 17.7 6.4 -2.6
v 17.6 6.3 -2.5
v 17.6 6.3 -2.6
v 17.7 6.3 -2.6
v 17.7 6.3 -2.5
v 17.6 6.4 -2.5
v 17.6 6.3 -2.5
v 17.7 6.3 -2.5
v 17.7 6.4 -2.5
v 17.7 6.4 -2.6
v 17.7 6.3 -2.6
v 17.6 6.3 -2.6
v 17.6 6.4 -2.6
v 17.5 6.3 -2.6
v 17.5 6.2 -2.6
v 17.5 6.2 -2.5
v 17.5 6.3 -2.5
v 17.6 6.3 -2.5
v 17.6 6.2 -2.5
v 17.6 6.2 -2.6
v 17.6 6.3 -2.6
v 17.5 6.3 -2.6
v 17.5 6.3 -2.5
v 17.6 6.3 -2.5
v 17.6 6.3 -2.6
v 17.5 6.2 -2.5
v 17.5 6.2 -2.6
v 17.6 6.2 -2.6
v 17.6 6.2 -2.5
v 17.5 6.3 -2.5
v 17.5 6.2 -2.5
v 17.6 6.2 -2.5
v 17.6 6.3 -2.5
v 17.6 6.3 -2.6
v 17.6 6.2 -2.6
v 17.5 6.2 -2.6
v 17.5 6.3 -2.6
v 17.4 6.2 -2.6
v 17.4 6.1 -2.6
v 17.4 6.1 -2.5
v 17.4 6.2 -2.5
v 17.5 6.2 -2.5
v 17.5 6.1 -2.5
v 17.5 6.1 -2.6
v 17.5 6.2 -2.6
v 17.4 6.2 -2.6
v 17.4 6.2 -2.5
v 17.5 6.2 -2.5
v 17.5 6.2 -2.6
v 17.4 6.2 -2.5
v 17.4 6.1 -2.5
v 17.5 6.1 -2.5
v 17.5 6.2 -2.5
v 17.5 6.2 -2.6
v 17.5 6.1 -2.6
v 17.4 6.1 -2.6
v 17.4 6.2 -2.6
v 17.4 6.1 -2.6
v 17.4 6 -2.6
v 17.4 6 -2.5
v 17.4 6.1 -2.5
v 17.5 6.1 -2.5
v 17.5 6 -2.5
v 17.5 6 -2.6
v 17.5 6.1 -2.6
v 17.4 6 -2.5
v 17.4 6 -2.6
v 17.5 6 -2.6
v 17.5 6 -2.5
v 17.4 6.1 -2.5
v 17.4 6 -2.5
v 17.5 6 -2.5
v 17.5 6.1 -2.5
v 17.5 6.1 -2.6
v 17.5 6 -2.6
v 17.4 6 -2.6
v 17.4 6.1 -2.6
v 17.3 6 -2.6
v 17.3 5.9 -2.6
v 17.3 5.9 -2.5
v 17.3 6 -2.5
v 17.4 6 -2.5
v 17.4 5.9 -2.5
v 17.4 5.9 -2.6
v 17.4 6 -2.6
v 17.3 6 -2.6
v 17.3 6 -2.5
v 17.4 6 -2.5
v 17.4 6 -2.6
v 17.3 6 -2.5
v 17.3 5.9 -2.5
v 17.4 5.9 -2.5
v 17.4 6 -2.5
v 17.4 6 -2.6
v 17.4 5.9 -2.6
v 17.3 5.9 -2.6
v 17.3 6 -2.6
v 17.3 5.9 -2.6
v 17.3 5.8 -2.6
v 17.3 5.8 -2.5
v 17.3 5.9 -2.5
v 17.4 5.9 -2.5
v 17.4 5.8 -2.5
v 17.4 5.8 -2.6
v 17.4 5.9 -2.6
v 17.3 5.8 -2.5
v 17.3 5.8 -2.6
v 17.4 5.8 -2.6
v 17.4 5.8 -2.5
v 17.3 5.9 -2.5
v 17.3 5.8 -2.5
v 17.4 5.8 -2.5
v 17.4 5.9 -2.5
v 17.4 5.9 -2.6
v 17.4 5.8 -2.6
v 17.3 5.8 -2.6
v 17.3 5.9 -2.6
v 17.2 5.8 -2.6
v 17.2 5.7 -2.6
v 17.2 5.7 -2.5
v 17.2 5.8 -2.5
v 17.3 5.8 -2.5
v 17.3 5.7 -2.5
v 17.3 5.7 -2.6
v 17.3 5.8 -2.6
v 17.2 5.8 -2.6
v 17.2 5.8 -2.5
v 17.3 5.8 -2.5
v 17.3 5.8 -2.6
v 17.2 5.7 -2.5
v 17.2 5.7 -2.6
v 17.3 5.7 -2.6
v 17.3 5.7 -2.5
v 17.2 5.8 -2.5
v 17.2 5.7 -2.5
v 17.3 5.7 -2.5
v 17.3 5.8 -2.5
v 17.3 5.8 -2.6
v 17.3 5.7 -2.6
v 17.2 5.7 -2.6
v 17.2 5.8 -2.6
v 17.1 5.7 -2.6
v 17.1 5.6 -2.6
v 17.1 5.6 -2.5
v 17.1 5.7 -2.5
v 17.2 5.7 -2.5
v 17.2 5.6 -2.5
v 17.2 5.6 -2.6
v 17.2 5.7 -2.6
v 17.1 5.7 -2.6
v 17.1 5.7 -2.5
v 17.2 5.7 -2.5
v 17.2 5.7 -2.6
v 17.1 5.7 -2.5
v 17.1 5.6 -2.5
v 17.2 5.6 -2.5
v 17.2 5.7 -2.5
v 17.2 5.7 -2.6
v 17.2 5.6 -2.6
v 17.1 5.6 -2.6
v 17.1 5.7 -2.6
v 17.1 5.6 -2.6
v 17.1 5.5 -2.6
v 17.1 5.5 -2.5
v 17.1 5.6 -2.5
v 17.2 5.6 -2.5
v 17.2 5.5 -2.5
v 17.2 5.5 -2.6
v 17.2 5.6 -2.6
v 17.1 5.5 -2.5
v 17.1 5.5 -2.6
v 17.2 5.5 -2.6
v 17.2 5.5 -2.5
v 17.1 5.6 -2.5
v 17.1 5.5 -2.5
v 17.2 5.5 -2.5
v 17.2 5.6 -2.5
v 17.2 5.6 -2.6
v 17.2 5.5 -2.6
v 17.1 5.5 -2.6
v 17.1 5.6 -2.6
v 17 5.5 -2.6
v 17 5.4 -2.6
v 17 5.4 -2.5
v 17 5.5 -2.5
v 17.1 5.5 -2.5
v 17.1 5.4 -2.5
v 17.1 5.4 -2.6
v 17.1 5.5 -2.6
v 17 5.5 -2.6
v 17 5.5 -2.5
v 17.1 5.5 -2.5
v 17.1 5.5 -2.6
v 17 5.4 -2.5
v 17 5.4 -2.6
v 17.1 5.4 -2.6
v 17.1 5.4 -2.5
v 17 5.5 -2.5
v 17 5.4 -2.5
v 17.1 5.4 -2.5
v 17.1 5.5 -2.5
v 17.1 5.5 -2.6
v 17.1 5.4 -2.6
v 17 5.4 -2.6
v 17 5.5 -2.6
v 16.9 5.4 -2.6
v 16.9 5.3 -2.6
v 16.9 5.3 -2.5
v 16.9 5.4 -2.5
v 17 5.4 -2.5
v 17 5.3 -2.5
v 17 5.3 -2.6
v 17 5.4 -2.6
v 16.9 5.4 -2.6
v 16.9 5.4 -2.5
v 17 5.4 -2.5
v 17 5.4 -2.6
v 16.9 5.4 -2.5
v 16.9 5.3 -2.5
v 17 5.3 -2.5
v 17 5.4 -2.5
v 17 5.4 -2.6
v 17 5.3 -2.6
v 16.9 5.3 -2.6
v 16.9 5.4 -2.6
v 16.9 5.3 -2.6
v 16.9 5.2 -2.6
v 16.9 5.2 -2.5
v 16.9 5.3 -2.5
v 17 5.3 -2.5
v 17 5.2 -2.5
v 17 5.2 -2.6
v 17 5.3 -2.6
v 16.9 5.2 -2.5
v 16.9 5.2 -2.6
v 17 5.2 -2.6
v 17 5.2 -2.5
v 16.9 5.3 -2.5
v 16.9 5.2 -2.5
v 17 5.2 -2.5
v 17 5.3 -2.5
v 17 5.3 -2.6
v 17 5.2 -2.6
v 16.9 5.2 -2.6
v 16.9 5.3 -2.6
v 16.8 5.2 -2.6
v 16.8 5.1 -2.6
v 16.8 5.1 -2.5
v 16.8 5.2 -2.5
v 16.9 5.2 -2.5
v 16.9 5.1 -2.5
v 16.9 5.1 -2.6
v 16.9 5.2 -2.6
v 16.8 5.2 -2.6
v 16.8 5.2 -2.5
v 16.9 5.2 -2.5
v 16.9 5.2 -2.6
v 16.8 5.2 -2.5
v 16.8 5.1 -2.5
v 16.9 5.1 -2.5
v 16.9 5.2 -2.5
v 16.9 5.2 -2.6
v 16.9 5.1 -2.6
v 16.8 5.1 -2.6
v 16.8 5.2 -2.6
v 16.8 5.1 -2.6
v 16.8 5 -2.6
v 16.8 5 -2.5
v 16.8 5.1 -2.5
v 16.9 5.1 -2.5
v 16.9 5 -2.5
v 16.9 5 -2.6
v 16.9 5.1 -2.6
v 16.8 5 -2.5
v 16.8 5 -2.6
v 16.9 5 -2.6
v 16.9 5 -2.5
v 16.8 5.1 -2.5
v 16.8 5 -2.5
v 16.9 5 -2.5
v 16.9 5.1 -2.5
v 16.9 5.1 -2.6
v 16.9 5 -2.6
v 16.8 5 -2.6
v 16.8 5.1 -2.6
v 16.7 5 -2.6
v 16.7 4.9 -2.6
v 16.7 4.9 -2.5
v 16.7 5 -2.5
v 16.8 5 -2.5
v 16.8 4.9 -2.5
v 16.8 4.9 -2.6
v 16.8 5 -2.6
v 16.7 5 -2.6
v 16.7 5 -2.5
v 16.8 5 -2.5
v 16.8 5 -2.6
v 16.7 4.9 -2.5
v 16.7 4.9 -2.6
v 16.8 4.9 -2.6
v 16.8 4.9 -2.5
v 16.7 5 -2.5
v 16.7 4.9 -2.5
v 16.8 4.9 -2.5
v 16.8 5 -2.5
v 16.8 5 -2.6
v 16.8 4.9 -2.6
v 16.7 4.9 -2.6
v 16.7 5 -2.6

# faces
f 1/1/1 2/1/1 3/1/1 4/1/1
f 5/1/2 6/1/2 7/1/2 8/1/2
f 9/1/3 10/1/3 11/1/3 12/1/3
f 13/1/5 14/1/5 15/1/5 16/1/5
f 17/1/6 18/1/6 19/1/6 20/1/6
f 21/1/1 22/1/1 23/1/1 24/1/1
f 25/1/2 26/1/2 27/1/2 28/1/2
f 29/1/4 30/1/4 31/1/4 32/1/4
f 33/1/5 34/1/5 35/1/5 36/1/5
f 37/1/6 38/1/6 39/1/6 40/1/6
f 41/1/1 42/1/1 43/1/1 44/1/1
f 45/1/2 46/1/2 47/1/2 48/1/2
f 49/1/3 50/1/3 51/1/3 52/1/3
f 53/1/4 54/1/4 55/1/4 56/1/4
f 57/1/5 58/1/5 59/1/5 60/1/5
f 61/1/6 62/1/6 63/1/6 64/1/6
f 65/1/1 66/1/1 67/1/1 68/1/1
f 69/1/2 70/1/2 71/1/2 72/1/2
f 73/1/3 74/1/3 75/1/3 76/1/3
f 77/1/5 78/1/5 79/1/5 80/1/5
f 81/1/6 82/1/6 83/1/6 84/1/6
f 85/1/1 86/1/1 87/1/1 88/1/1
f 89/1/2 90/1/2 91/1/2 92/1/2
f 93/1/4 94/1/4 95/1/4 96/1/4
f 97/1/5 98/1/5 99/1/5 100/1/5
f 101/1/6 102/1/6 103/1/6 104/1/6
f 105/1/1 106/1/1 107/1/1 108/1/1
f 109/1/2 110/1/2 111/1/2 112/1/2
f 113/1/3 114/1/3 115/1/3 116/1/3
f 117/1/5 118/1/5 119/1/5 120/1/5
f 121/1/6 122/1/6 123/1/6 124/1/6
f 125/1/1 126/1/1 127/1/1 128/1/1
f 129/1/2 130/1/2 131/1/2 132/1/2
f 133/1/4 134/1/4 135/1/4 136/1/4
f 137/1/5 138/1/5 139/1/5 140/1/5
f 141/1/6 142/1/6 143/1/6 144/1/6
f 145/1/1 146/1/1 147/1/1 148/1/1
f 149/1/2 150/1/2 151/1/2 152/1/2
f 153/1/3 154/1/3 155/1/3 156/1/3
f 157/1/4 158/1/4 159/1/4 160/1/4
f 161/1/5 162/1/5 163/1/5 164/1/5
f 165/1/6 166/1/6 167/1/6 168/1/6
f 169/1/1 170/1/1 171/1/1 172/1/1
f 173/1/2 174/1/2 175/1/2 176/1/2
f 177/1/3 178/1/3 179/1/3 180/1/3
f 181/1/5 182/1/5 183/1/5 184/1/5
f 185/1/6 186/1/6 187/1/6 188/1/6
f 189/1/1 190/1/1 191/1/1 192/1/1
f 193/1/2 194/1/2 195/1/2 196/1/2
f 197/1/4 198/1/4 199/1/4 200/1/4
f 201/1/5 202/1/5 203/1/5 204/1/5
f 205/1/6 206/1/6 207/1/6 208/1/6
f 209/1/1 210/1/1 211/1/1 212/1/1
f 213/1/2 214/1/2 215/1/2 216/1/2
f 217/1/3 218/1/3 219/1/3 220/1/3
f 221/1/4 222/1/4 223/1/4 224/1/4
f 225/1/5 226/1/5 227/1/5 228/1/5
f 229/1/6 230/1/6 231/1/6 232/1/6
f 233/1/1 234/1/1 235/1/1 236/1/1
f 237/1/2 238/1/2 239/1/2 240/1/2
f 241/1/3 242/1/3 243/1/3 244/1/3
f 245/1/5 246/1/5 247/1/5 248/1/5
f 249/1/6 250/1/6 251/1/6 252/1/6
f 253/1/1 254/1/1 255/1/1 256/1/1
f 257/1/2 258/1/2 259/1/2 260/1/2
f 261/1/4 262/1/4 263/1/4 264/1/4
f 265/1/5 266/1/5 267/1/5 268/1/5
f 269/1/6 270/1/6 271/1/6 272/1/6
f 273/1/1 274/1/1 275/1/1 276/1/1
f 277/1/2 278/1/2 279/1/2 280/1/2
f 281/1/3 282/1/3 283/1/3 284/1/3
f 285/1/4 286/1/4 287/1/4 288/1/4
f 289/1/5 290/1/5 291/1/5 292/1/5
f 293/1/6 294/1/6 295/1/6 296/1/6
f 297/1/1 298/1/1 299/1/1 300/1/1
f 301/1/2 302/1/2 303/1/2 304/1/2
f 305/1/3 306/1/3 307/1/3 308/1/3
f 309/1/5 310/1/5 311/1/5 312/1/5
f 313/1/6 314/1/6 315/1/6 316/1/6
f 317/1/1 318/1/1 319/1/1 320/1/1
f 321/1/2 322/1/2 323/1/2 324/1/2
f 325/1/4 326/1/4 327/1/4 328/1/4
f 329/1/5 330/1/5 331/1/5 332/1/5
f 333/1/6 334/1/6 335/1/6 336/1/6
f 337/1/1 338/1/1 339/1/1 340/1/1
f 341/1/2 342/1/2 343/1/2 344/1/2
f 345/1/3 346/1/3 347/1/3 348/1/3
f 349/1/5 350/1/5 351/1/5 352/1/5
f 353/1/6 354/1/6 355/1/6 356/1/6
f 357/1/1 358/1/1 359/1/1 360/1/1
f 361/1/2 362/1/2 363/1/2 364/1/2
f 365/1/4 366/1/4 367/1/4 368/1/4
f 369/1/5 370/1/5 371/1/5 372/1/5
f 373/1/6 374/1/6 375/1/6 376/1/6
f 377/1/1 378/1/1 379/1/1 380/1/1
f 381/1/2 382/1/2 383/1/2 384/1/2
f 385/1/3 386/1/3 387/1/3 388/1/3
f 389/1/4 390/1/4 391/1/4 392/1/4
f 393/1/5 394/1/5 395/1/5 396/1/5
f 397/1/6 398/1/6 399/1/6 400/1/6
f 401/1/1 402/1/1 403/1/1 404/1/1
f 405/1/2 406/1/2 407/1/2 408/1/2
f 409/1/3 410/1/3 411/1/3 412/1/3
f 413/1/5 414/1/5 415/1/5 416/1/5
f 417/1/6 418/1/6 419/1/6 420/1/6
f 421/1/1 422/1/1 423/1/1 424/1/1
f 425/1/2 426/1/2 427/1/2 428/1/2
f 429/1/4 430/1/4 431/1/4 432/1/4
f 433/1/5 434/1/5 435/1/5 436/1/5
f 437/1/6 438/1/6 439/1/6 440/1/6
f 441/1/1 442/1/1 443/1/1 444/1/1
f 445/1/2 446/1/2 447/1/2 448/1/2
f 449/1/3 450/1/3 451/1/3 452/1/3
f 453/1/4 454/1/4 455/1/4 456/1/4
f 457/1/5 458/1/5 459/1/5 460/1/5
f 461/1/6 462/1/6 463/1/6 464/1/6
f 465/1/1 466/1/1 467/1/1 468/1/1
f 469/1/2 470/1/2 471/1/2 472/1/2
f 473/1/3 474/1/3 475/1/3 476/1/3
f 477/1/5 478/1/5 479/1/5 480/1/5
f 481/1/6 482/1/6 483/1/6 484/1/6
f 485/1/1 486/1/1 487/1/1 488/1/1
f 489/1/2 490/1/2 491/1/2 492/1/2
f 493/1/4 494/1/4 495/1/4 496/1/4
f 497/1/5 498/1/5 499/1/5 500/1/5
f 501/1/6 502/1/6 503/1/6 504/1/6
f 505/1/1 506/1/1 507/1/1 508/1/1
f 509/1/2 510/1/2 511/1/2 512/1/2
f 513/1/3 514/1/3 515/1/3 516/1/3
f 517/1/4 518/1/4 519/1/4 520/1/4
f 521/1/5 522/1/5 523/1/5 524/1/5
f 525/1/6 526/1/6 527/1/6 528/1/6
f 529/1/1 530/1/1 531/1/1 532/1/1
f 533/1/2 534/1/2 535/1/2 536/1/2
f 537/1/3 538/1/3 539/1/3 540/1/3
f 541/1/5 542/1/5 543/1/5 544/1/5
f 545/1/6 546/1/6 547/1/6 548/1/6
f 549/1/1 550/1/1 551/1/1 552/1/1
f 553/1/2 554/1/2 555/1/2 556/1/2
f 557/1/4 558/1/4 559/1/4 560/1/4
f 561/1/5 562/1/5 563/1/5 564/1/5
f 565/1/6 566/1/6 567/1/6 568/1/6
f 569/1/1 570/1/1 571/1/1 572/1/1
f 573/1/2 574/1/2 575/1/2 576/1/2
f 577/1/3 578/1/3 579/1/3 580/1/3
f 581/1/5 582/1/5 583/1/5 584/1/5
f 585/1/6 586/1/6 587/1/6 588/1/6
f 589/1/1 590/1/1 591/1/1 592/1/1
f 593/1/2 594/1/2 595/1/2 596/1/2
f 597/1/4 598/1/4 599/1/4 600/1/4
f 601/1/5 602/1/5 603/1/5 604/1/5
f 605/1/6 606/1/6 607/1/6 608/1/6
f 609/1/1 610/1/1 611/1/1 612/1/1
f 613/1/2 614/1/2 615/1/2 616/1/2
f 617/1/3 618/1/3 619/1/3 620/1/3
f 621/1/4 622/1/4 623/1/4 624/1/4
f 625/1/5 626/1/5 627/1/5 628/1/5
f 629/1/6 630/1/6 631/1/6 632/1/6
f 633/1/1 634/1/1 635/1/1 636/1/1
f 637/1/2 638/1/2 639/1/2 640/1/2
f 641/1/3 642/1/3 643/1/3 644/1/3
f 645/1/5 646/1/5 647/1/5 648/1/5
f 649/1/6 650/1/6 651/1/6 652/1/6
f 653/1/1 654/1/1 655/1/1 656/1/1
f 657/1/2 658/1/2 659/1/2 660/1/2
f 661/1/4 662/1/4 663/1/4 664/1/4
f 665/1/5 666/1/5 667/1/5 668/1/5
f 669/1/6 670/1/6 671/1/6 672/1/6
f 673/1/1 674/1/1 675/1/1 676/1/1
f 677/1/2 678/1/2 679/1/2 680/1/2
f 681/1/3 682/1/3 683/1/3 684/1/3
f 685/1/4 686/1/4 687/1/4 688/1/4
f 689/1/5 690/1/5 691/1/5 692/1/5
f 693/1/6 694/1/6 695/1/6 696/1/6
f 697/1/1 698/1/1 699/1/1 700/1/1
f 701/1/2 702/1/2 703/1/2 704/1/2
f 705/1/3 706/1/3 707/1/3 708/1/3
f 709/1/5 710/1/5 711/1/5 712/1/5
f 713/1/6 714/1/6 715/1/6 716/1/6
f 717/1/1 718/1/1 719/1/1 720/1/1
f 721/1/2 722/1/2 723/1/2 724/1/2
f 725/1/4 726/1/4 727/1/4 728/1/4
f 729/1/5 730/1/5 731/1/5 732/1/5
f 733/1/6 734/1/6 735/1/6 736/1/6
f 737/1/1 738/1/1 739/1/1 740/1/1
f 741/1/2 742/1/2 743/1/2 744/1/2
f 745/1/3 746/1/3 747/1/3 748/1/3
f 749/1/5 750/1/5 751/1/5 752/1/5
f 753/1/6 754/1/6 755/1/6 756/1/6
f 757/1/1 758/1/1 759/1/1 760/1/1
f 761/1/2 762/1/2 763/1/2 764/1/2
f 765/1/4 766/1/4 767/1/4 768/1/4
f 769/1/5 770/1/5 771/1/5 772/1/5
f 773/1/6 774/1/6 775/1/6 776/1/6
f 777/1/1 778/1/1 779/1/1 780/1/1
f 781/1/2 782/1/2 783/1/2 784/1/2
f 785/1/3 786/1/3 787/1/3 788/1/3
f 789/1/4 790/1/4 791/1/4 792/1/4
f 793/1/5 794/1/5 795/1/5 796/1/5
f 797/1/6 798/1/6 799/1/6 800/1/6
f 801/1/1 802/1/1 803/1/1 804/1/1
f 805/1/2 806/1/2 807/1/2 808/1/2
f 809/1/3 810/1/3 811/1/3 812/1/3
f 813/1/5 814/1/5 815/1/5 816/1/5
f 817/1/6 818/1/6 819/1/6 820/1/6
f 821/1/1 822/1/1 823/1/1 824/1/1
f 825/1/2 826/1/2 827/1/2 828/1/2
f 829/1/4 830/1/4 831/1/4 832/1/4
f 833/1/5 834/1/5 835/1/5 836/1/5
f 837/1/6 838/1/6 839/1/6 840/1/6
f 841/1/1 842/1/1 843/1/1 844/1/1
f 845/1/2 846/1/2 847/1/2 848/1/2
f 849/1/3 850/1/3 851/1/3 852/1/3
f 853/1/4 854/1/4 855/1/4 856/1/4
f 857/1/5 858/1/5 859/1/5 860/1/5
f 861/1/6 862/1/6 863/1/6 864/1/6
f 865/1/1 866/1/1 867/1/1 868/1/1
f 869/1/2 870/1/2 871/1/2 872/1/2
f 873/1/3 874/1/3 875/1/3 876/1/3
f 877/1/5 878/1/5 879/1/5 880/1/5
f 881/1/6 882/1/6 883/1/6 884/1/6
f 885/1/1 886/1/1 887/1/1 888/1/1
f 889/1/2 890/1/2 891/1/2 892/1/2
f 893/1/4 894/1/4 895/1/4 896/1/4
f 897/1/5 898/1/5 899/1/5 900/1/5
f 901/1/6 902/1/6 903/1/6 904/1/6
f 905/1/1 906/1/1 907/1/1 908/1/1
f 909/1/2 910/1/2 911/1/2 912/1/2
f 913/1/3 914/1/3 915/1/3 916/1/3
f 917/1/4 918/1/4 919/1/4 920/1/4
f 921/1/5 922/1/5 923/1/5 924/1/5
f 925/1/6 926/1/6 927/1/6 928/1/6
f 929/1/1 930/1/1 931/1/1 932/1/1
f 933/1/2 934/1/2 935/1/2 936/1/2
f 937/1/3 938/1/3 939/1/3 940/1/3
f 941/1/5 942/1/5 943/1/5 944/1/5
f 945/1/6 946/1/6 947/1/6 948/1/6
f 949/1/1 950/1/1 951/1/1 952/1/1
f 953/1/2 954/1/2 955/1/2 956/1/2
f 957/1/4 958/1/4 959/1/4 960/1/4
f 961/1/5 962/1/5 963/1/5 964/1/5
f 965/1/6 966/1/6 967/1/6 968/1/6
f 969/1/1 970/1/1 971/1/1 972/1/1
f 973/1/2 974/1/2 975/1/2 976/1/2
f 977/1/3 978/1/3 979/1/3 980/1/3
f 981/1/5 982/1/5 983/1/5 984/1/5
f 985/1/6 986/1/6 987/1/6 988/1/6
f 989/1/1 990/1/1 991/1/1 992/1/1
f 993/1/2 994/1/2 995/1/2 996/1/2
f 997/1/5 998/1/5 999/1/5 1000/1/5
f 1001/1/6 1002/1/6 1003/1/6 1004/1/6
f 1005/2/1 1006/2/1 1007/2/1 1008/2/1
f 1009/2/3 1010/2/3 1011/2/3 1012/2/3
f 1013/2/4 1014/2/4 1015/2/4 1016/2/4
f 1017/2/5 1018/2/5 1019/2/5 1020/2/5
f 1021/2/6 1022/2/6 1023/2/6 1024/2/6
f 1025/2/3 1026/2/3 1027/2/3 1028/2/3
f 1029/2/4 1030/2/4 1031/2/4 1032/2/4
f 1033/2/5 1034/2/5 1035/2/5 1036/2/5
f 1037/2/6 1038/2/6 1039/2/6 1040/2/6
f 1041/2/3 1042/2/3 1043/2/3 1044/2/3
f 1045/2/4 1046/2/4 1047/2/4 1048/2/4
f 1049/2/5 1050/2/5 1051/2/5 1052/2/5
f 1053/2/6 1054/2/6 1055/2/6 1056/2/6
f 1057/2/3 1058/2/3 1059/2/3 1060/2/3
f 1061/2/4 1062/2/4 1063/2/4 1064/2/4
f 1065/2/5 1066/2/5 1067/2/5 1068/2/5
f 1069/2/6 1070/2/6 1071/2/6 1072/2/6
f 1073/2/3 1074/2/3 1075/2/3 1076/2/3
f 1077/2/4 1078/2/4 1079/2/4 1080/2/4
f 1081/2/5 1082/2/5 1083/2/5 1084/2/5
f 1085/2/6 1086/2/6 1087/2/6 1088/2/6
f 1089/2/3 1090/2/3 1091/2/3 1092/2/3
f 1093/2/4 1094/2/4 1095/2/4 1096/2/4
f 1097/2/5 1098/2/5 1099/2/5 1100/2/5
f 1101/2/6 1102/2/6 1103/2/6 1104/2/6
f 1105/2/3 1106/2/3 1107/2/3 1108/2/3
f 1109/2/4 1110/2/4 1111/2/4 1112/2/4
f 1113/2/5 1114/2/5 1115/2/5 1116/2/5
f 1117/2/6 1118/2/6 1119/2/6 1120/2/6
f 1121/2/3 1122/2/3 1123/2/3 1124/2/3
f 1125/2/4 1126/2/4 1127/2/4 1128/2/4
f 1129/2/5 1130/2/5 1131/2/5 1132/2/5
f 1133/2/6 1134/2/6 1135/2/6 1136/2/6
f 1137/2/2 1138/2/2 1139/2/2 1140/2/2
f 1141/2/3 1142/2/3 1143/2/3 1144/2/3
f 1145/2/4 1146/2/4 1147/2/4 1148/2/4
f 1149/2/5 1150/2/5 1151/2/5 1152/2/5
f 1153/2/6 1154/2/6 1155/2/6 1156/2/6
f 1157/2/1 1158/2/1 1159/2/1 1160/2/1
f 1161/2/3 1162/2/3 1163/2/3 1164/2/3
f 1165/2/4 1166/2/4 1167/2/4 1168/2/4
f 1169/2/5 1170/2/5 1171/2/5 1172/2/5
f 1173/2/6 1174/2/6 1175/2/6 1176/2/6
f 1177/2/3 1178/2/3 1179/2/3 1180/2/3
f 1181/2/4 1182/2/4 1183/2/4 1184/2/4
f 1185/2/5 1186/2/5 1187/2/5 1188/2/5
f 1189/2/6 1190/2/6 1191/2/6 1192/2/6
f 1193/2/3 1194/2/3 1195/2/3 1196/2/3
f 1197/2/4 1198/2/4 1199/2/4 1200/2/4
f 1201/2/5 1202/2/5 1203/2/5 1204/2/5
f 1205/2/6 1206/2/6 1207/2/6 1208/2/6
f 1209/2/3 1210/2/3 1211/2/3 1212/2/3
f 1213/2/4 1214/2/4 1215/2/4 1216/2/4
f 1217/2/5 1218/2/5 1219/2/5 1220/2/5
f 1221/2/6 1222/2/6 1223/2/6 1224/2/6
f 1225/2/3 1226/2/3 1227/2/3 1228/2/3
f 1229/2/4 1230/2/4 1231/2/4 1232/2/4
f 1233/2/5 1234/2/5 1235/2/5 1236/2/5
f 1237/2/6 1238/2/6 1239/2/6 1240/2/6
f 1241/2/3 1242/2/3 1243/2/3 1244/2/3
f 1245/2/4 1246/2/4 1247/2/4 1248/2/4
f 1249/2/5 1250/2/5 1251/2/5 1252/2/5
f 1253/2/6 1254/2/6 1255/2/6 1256/2/6
f 1257/2/3 1258/2/3 1259/2/3 1260/2/3
f 1261/2/4 1262/2/4 1263/2/4 1264/2/4
f 1265/2/5 1266/2/5 1267/2/5 1268/2/5
f 1269/2/6 1270/2/6 1271/2/6 1272/2/6
f 1273/2/3 1274/2/3 1275/2/3 1276/2/3
f 1277/2/4 1278/2/4 1279/2/4 1280/2/4
f 1281/2/5 1282/2/5 1283/2/5 1284/2/5
f 1285/2/6 1286/2/6 1287/2/6 1288/2/6
f 1289/2/3 1290/2/3 1291/2/3 1292/2/3
f 1293/2/4 1294/2/4 1295/2/4 1296/2/4
f 1297/2/5 1298/2/5 1299/2/5 1300/2/5
f 1301/2/6 1302/2/6 1303/2/6 1304/2/6
f 1305/2/3 1306/2/3 1307/2/3 1308/2/3
f 1309/2/4 1310/2/4 1311/2/4 1312/2/4
f 1313/2/5 1314/2/5 1315/2/5 1316/2/5
f 1317/2/6 1318/2/6 1319/2/6 1320/2/6
f 1321/2/3 1322/2/3 1323/2/3 1324/2/3
f 1325/2/4 1326/2/4 1327/2/4 1328/2/4
f 1329/2/5 1330/2/5 1331/2/5 1332/2/5
f 1333/2/6 1334/2/6 1335/2/6 1336/2/6
f 1337/2/3 1338/2/3 1339/2/3 1340/2/3
f 1341/2/4 1342/2/4 1343/2/4 1344/2/4
f 1345/2/5 1346/2/5 1347/2/5 1348/2/5
f 1349/2/6 1350/2/6 1351/2/6 1352/2/6
f 1353/2/3 1354/2/3 1355/2/3 1356/2/3
f 1357/2/4 1358/2/4 1359/2/4 1360/2/4
f 1361/2/5 1362/2/5 1363/2/5 1364/2/5
f 1365/2/6 1366/2/6 1367/2/6 1368/2/6
f 1369/2/3 1370/2/3 1371/2/3 1372/2/3
f 1373/2/4 1374/2/4 1375/2/4 1376/2/4
f 1377/2/5 1378/2/5 1379/2/5 1380/2/5
f 1381/2/6 1382/2/6 1383/2/6 1384/2/6
f 1385/2/3 1386/2/3 1387/2/3 1388/2/3
f 1389/2/4 1390/2/4 1391/2/4 1392/2/4
f 1393/2/5 1394/2/5 1395/2/5 1396/2/5
f 1397/2/6 1398/2/6 1399/2/6 1400/2/6
f 1401/2/3 1402/2/3 1403/2/3 1404/2/3
f 1405/2/4 1406/2/4 1407/2/4 1408/2/4
f 1409/2/5 1410/2/5 1411/2/5 1412/2/5
f 1413/2/6 1414/2/6 1415/2/6 1416/2/6
f 1417/2/3 1418/2/3 1419/2/3 1420/2/3
f 1421/2/4 1422/2/4 1423/2/4 1424/2/4
f 1425/2/5 1426/2/5 1427/2/5 1428/2/5
f 1429/2/6 1430/2/6 1431/2/6 1432/2/6
f 1433/2/3 1434/2/3 1435/2/3 1436/2/3
f 1437/2/4 1438/2/4 1439/2/4 1440/2/4
f 1441/2/5 1442/2/5 1443/2/5 1444/2/5
f 1445/2/6 1446/2/6 1447/2/6 1448/2/6
f 1449/2/3 1450/2/3 1451/2/3 1452/2/3
f 1453/2/4 1454/2/4 1455/2/4 1456/2/4
f 1457/2/5 1458/2/5 1459/2/5 1460/2/5
f 1461/2/6 1462/2/6 1463/2/6 1464/2/6
f 1465/2/3 1466/2/3 1467/2/3 1468/2/3
f 1469/2/4 1470/2/4 1471/2/4 1472/2/4
f 1473/2/5 1474/2/5 1475/2/5 1476/2/5
f 1477/2/6 1478/2/6 1479/2/6 1480/2/6
f 1481/2/3 1482/2/3 1483/2/3 1484/2/3
f 1485/2/4 1486/2/4 1487/2/4 1488/2/4
f 1489/2/5 1490/2/5 1491/2/5 1492/2/5
f 1493/2/6 1494/2/6 1495/2/6 1496/2/6
f 1497/2/3 1498/2/3 1499/2/3 1500/2/3
f 1501/2/4 1502/2/4 1503/2/4 1504/2/4
f 1505/2/5 1506/2/5 1507/2/5 1508/2/5
f 1509/2/6 1510/2/6 1511/2/6 1512/2/6
f 1513/2/3 1514/2/3 1515/2/3 1516/2/3
f 1517/2/4 1518/2/4 1519/2/4 1520/2/4
f 1521/2/5 1522/2/5 1523/2/5 1524/2/5
f 1525/2/6 1526/2/6 1527/2/6 1528/2/6
f 1529/2/3 1530/2/3 1531/2/3 1532/2/3
f 1533/2/4 1534/2/4 1535/2/4 1536/2/4
f 1537/2/5 1538/2/5 1539/2/5 1540/2/5
f 1541/2/6 1542/2/6 1543/2/6 1544/2/6
f 1545/2/3 1546/2/3 1547/2/3 1548/2/3
f 1549/2/4 1550/2/4 1551/2/4 1552/2/4
f 1553/2/5 1554/2/5 1555/2/5 1556/2/5
f 1557/2/6 1558/2/6 1559/2/6 1560/2/6
f 1561/2/3 1562/2/3 1563/2/3 1564/2/3
f 1565/2/4 1566/2/4 1567/2/4 1568/2/4
f 1569/2/5 1570/2/5 1571/2/5 1572/2/5
f 1573/2/6 1574/2/6 1575/2/6 1576/2/6
f 1577/2/3 1578/2/3 1579/2/3 1580/2/3
f 1581/2/4 1582/2/4 1583/2/4 1584/2/4
f 1585/2/5 1586/2/5 1587/2/5 1588/2/5
f 1589/2/6 1590/2/6 1591/2/6 1592/2/6
f 1593/2/3 1594/2/3 1595/2/3 1596/2/3
f 1597/2/4 1598/2/4 1599/2/4 1600/2/4
f 1601/2/5 1602/2/5 1603/2/5 1604/2/5
f 1605/2/6 1606/2/6 1607/2/6 1608/2/6
f 1609/2/3 1610/2/3 1611/2/3 1612/2/3
f 1613/2/4 1614/2/4 1615/2/4 1616/2/4
f 1617/2/5 1618/2/5 1619/2/5 1620/2/5
f 1621/2/6 1622/2/6 1623/2/6 1624/2/6
f 1625/2/3 1626/2/3 1627/2/3 1628/2/3
f 1629/2/4 1630/2/4 1631/2/4 1632/2/4
f 1633/2/5 1634/2/5 1635/2/5 1636/2/5
f 1637/2/6 1638/2/6 1639/2/6 1640/2/6
f 1641/2/3 1642/2/3 1643/2/3 1644/2/3
f 1645/2/4 1646/2/4 1647/2/4 1648/2/4
f 1649/2/5 1650/2/5 1651/2/5 1652/2/5
f 1653/2/6 1654/2/6 1655/2/6 1656/2/6
f 1657/2/3 1658/2/3 1659/2/3 1660/2/3
f 1661/2/4 1662/2/4 1663/2/4 1664/2/4
f 1665/2/5 1666/2/5 1667/2/5 1668/2/5
f 1669/2/6 1670/2/6 1671/2/6 1672/2/6
f 1673/2/3 1674/2/3 1675/2/3 1676/2/3
f 1677/2/4 1678/2/4 1679/2/4 1680/2/4
f 1681/2/5 1682/2/5 1683/2/5 1684/2/5
f 1685/2/6 1686/2/6 1687/2/6 1688/2/6
f 1689/2/3 1690/2/3 1691/2/3 1692/2/3
f 1693/2/4 1694/2/4 1695/2/4 1696/2/4
f 1697/2/5 1698/2/5 1699/2/5 1700/2/5
f 1701/2/6 1702/2/6 1703/2/6 1704/2/6
f 1705/2/3 1706/2/3 1707/2/3 1708/2/3
f 1709/2/4 1710/2/4 1711/2/4 1712/2/4
f 1713/2/5 1714/2/5 1715/2/5 1716/2/5
f 1717/2/6 1718/2/6 1719/2/6 1720/2/6
f 1721/2/3 1722/2/3 1723/2/3 1724/2/3
f 1725/2/4 1726/2/4 1727/2/4 1728/2/4
f 1729/2/5 1730/2/5 1731/2/5 1732/2/5
f 1733/2/6 1734/2/6 1735/2/6 1736/2/6
f 1737/2/4 1738/2/4 1739/2/4 1740/2/4
f 1741/2/5 1742/2/5 1743/2/5 1744/2/5
f 1745/2/6 1746/2/6 1747/2/6 1748/2/6
f 1749/1/3 1750/1/3 1751/1/3 1752/1/3
f 1753/1/4 1754/1/4 1755/1/4 1756/1/4
f 1757/1/5 1758/1/5 1759/1/5 1760/1/5
f 1761/1/6 1762/1/6 1763/1/6 1764/1/6
f 1765/2/2 1766/2/2 1767/2/2 1768/2/2
f 1769/2/3 1770/2/3 1771/2/3 1772/2/3
f 1773/2/4 1774/2/4 1775/2/4 1776/2/4
f 1777/2/5 1778/2/5 1779/2/5 1780/2/5
f 1781/2/6 1782/2/6 1783/2/6 1784/2/6
f 1785/2/1 1786/2/1 1787/2/1 1788/2/1
f 1789/2/3 1790/2/3 1791/2/3 1792/2/3
f 1793/2/4 1794/2/4 1795/2/4 1796/2/4
f 1797/2/5 1798/2/5 1799/2/5 1800/2/5
f 1801/2/6 1802/2/6 1803/2/6 1804/2/6
f 1805/2/3 1806/2/3 1807/2/3 1808/2/3
f 1809/2/4 1810/2/4 1811/2/4 1812/2/4
f 1813/2/5 1814/2/5 1815/2/5 1816/2/5
f 1817/2/6 1818/2/6 1819/2/6 1820/2/6
f 1821/2/3 1822/2/3 1823/2/3 1824/2/3
f 1825/2/4 1826/2/4 1827/2/4 1828/2/4
f 1829/2/5 1830/2/5 1831/2/5 1832/2/5
f 1833/2/6 1834/2/6 1835/2/6 1836/2/6
f 1837/2/3 1838/2/3 1839/2/3 1840/2/3
f 1841/2/4 1842/2/4 1843/2/4 1844/2/4
f 1845/2/5 1846/2/5 1847/2/5 1848/2/5
f 1849/2/6 1850/2/6 1851/2/6 1852/2/6
f 1853/2/3 1854/2/3 1855/2/3 1856/2/3
f 1857/2/4 1858/2/4 1859/2/4 1860/2/4
f 1861/2/5 1862/2/5 1863/2/5 1864/2/5
f 1865/2/6 1866/2/6 1867/2/6 1868/2/6
f 1869/2/3 1870/2/3 1871/2/3 1872/2/3
f 1873/2/4 1874/2/4 1875/2/4 1876/2/4
f 1877/2/5 1878/2/5 1879/2/5 1880/2/5
f 1881/2/6 1882/2/6 1883/2/6 1884/2/6
f 1885/2/3 1886/2/3 1887/2/3 1888/2/3
f 1889/2/4 1890/2/4 1891/2/4 1892/2/4
f 1893/2/5 1894/2/5 1895/2/5 1896/2/5
f 1897/2/6 1898/2/6 1899/2/6 1900/2/6
f 1901/2/3 1902/2/3 1903/2/3 1904/2/3
f 1905/2/4 1906/2/4 1907/2/4 1908/2/4
f 1909/2/5 1910/2/5 1911/2/5 1912/2/5
f 1913/2/6 1914/2/6 1915/2/6 1916/2/6
f 1917/2/3 1918/2/3 1919/2/3 1920/2/3
f 1921/2/4 1922/2/4 1923/2/4 1924/2/4
f 1925/2/5 1926/2/5 1927/2/5 1928/2/5
f 1929/2/6 1930/2/6 1931/2/6 1932/2/6
f 1933/2/2 1934/2/2 1935/2/2 1936/2/2
f 1937/2/3 1938/2/3 1939/2/3 1940/2/3
f 1941/2/4 1942/2/4 1943/2/4 1944/2/4
f 1945/2/5 1946/2/5 1947/2/5 1948/2/5
f 1949/2/6 1950/2/6 1951/2/6 1952/2/6
f 1953/2/1 1954/2/1 1955/2/1 1956/2/1
f 1957/2/3 1958/2/3 1959/2/3 1960/2/3
f 1961/2/4 1962/2/4 1963/2/4 1964/2/4
f 1965/2/5 1966/2/5 1967/2/5 1968/2/5
f 1969/2/6 1970/2/6 1971/2/6 1972/2/6
f 1973/2/3 1974/2/3 1975/2/3 1976/2/3
f 1977/2/4 1978/2/4 1979/2/4 1980/2/4
f 1981/2/5 1982/2/5 1983/2/5 1984/2/5
f 1985/2/6 1986/2/6 1987/2/6 1988/2/6
f 1989/2/3 1990/2/3 1991/2/3 1992/2/3
f 1993/2/4 1994/2/4 1995/2/4 1996/2/4
f 1997/2/5 1998/2/5 1999/2/5 2000/2/5
f 2001/2/6 2002/2/6 2003/2/6 2004/2/6
f 2005/2/3 2006/2/3 2007/2/3 2008/2/3
f 2009/2/4 2010/2/4 2011/2/4 2012/2/4
f 2013/2/5 2014/2/5 2015/2/5 2016/2/5
f 2017/2/6 2018/2/6 2019/2/6 2020/2/6
f 2021/2/3 2022/2/3 2023/2/3 2024/2/3
f 2025/2/4 2026/2/4 2027/2/4 2028/2/4
f 2029/2/5 2030/2/5 2031/2/5 2032/2/5
f 2033/2/6 2034/2/6 2035/2/6 2036/2/6
f 2037/2/3 2038/2/3 2039/2/3 2040/2/3
f 2041/2/4 2042/2/4 2043/2/4 2044/2/4
f 2045/2/5 2046/2/5 2047/2/5 2048/2/5
f 2049/2/6 2050/2/6 2051/2/6 2052/2/6
f 2053/2/3 2054/2/3 2055/2/3 2056/2/3
f 2057/2/4 2058/2/4 2059/2/4 2060/2/4
f 2061/2/5 2062/2/5 2063/2/5 2064/2/5
f 2065/2/6 2066/2/6 2067/2/6 2068/2/6
f 2069/2/3 2070/2/3 2071/2/3 2072/2/3
f 2073/2/4 2074/2/4 2075/2/4 2076/2/4
f 2077/2/5 2078/2/5 2079/2/5 2080/2/5
f 2081/2/6 2082/2/6 2083/2/6 2084/2/6
f 2085/2/3 2086/2/3 2087/2/3 2088/2/3
f 2089/2/4 2090/2/4 2091/2/4 2092/2/4
f 2093/2/5 2094/2/5 2095/2/5 2096/2/5
f 2097/2/6 2098/2/6 2099/2/6 2100/2/6
f 2101/2/3 2102/2/3 2103/2/3 2104/2/3
f 2105/2/4 2106/2/4 2107/2/4 2108/2/4
f 2109/2/5 2110/2/5 2111/2/5 2112/2/5
f 2113/2/6 2114/2/6 2115/2/6 2116/2/6
f 2117/2/3 2118/2/3 2119/2/3 2120/2/3
f 2121/2/4 2122/2/4 2123/2/4 2124/2/4
f 2125/2/5 2126/2/5 2127/2/5 2128/2/5
f 2129/2/6 2130/2/6 2131/2/6 2132/2/6
f 2133/2/3 2134/2/3 2135/2/3 2136/2/3
f 2137/2/4 2138/2/4 2139/2/4 2140/2/4
f 2141/2/5 2142/2/5 2143/2/5 2144/2/5
f 2145/2/6 2146/2/6 2147/2/6 2148/2/6
f 2149/2/3 2150/2/3 2151/2/3 2152/2/3
f 2153/2/4 2154/2/4 2155/2/4 2156/2/4
f 2157/2/5 2158/2/5 2159/2/5 2160/2/5
f 2161/2/6 2162/2/6 2163/2/6 2164/2/6
f 2165/2/3 2166/2/3 2167/2/3 2168/2/3
f 2169/2/4 2170/2/4 2171/2/4 2172/2/4
f 2173/2/5 2174/2/5 2175/2/5 2176/2/5
f 2177/2/6 2178/2/6 2179/2/6 2180/2/6
f 2181/2/3 2182/2/3 2183/2/3 2184/2/3
f 2185/2/4 2186/2/4 2187/2/4 2188/2/4
f 2189/2/5 2190/2/5 2191/2/5 2192/2/5
f 2193/2/6 2194/2/6 2195/2/6 2196/2/6
f 2197/2/3 2198/2/3 2199/2/3 2200/2/3
f 2201/2/4 2202/2/4 2203/2/4 2204/2/4
f 2205/2/5 2206/2/5 2207/2/5 2208/2/5
f 2209/2/6 2210/2/6 2211/2/6 2212/2/6
f 2213/2/3 2214/2/3 2215/2/3 2216/2/3
f 2217/2/4 2218/2/4 2219/2/4 2220/2/4
f 2221/2/5 2222/2/5 2223/2/5 2224/2/5
f 2225/2/6 2226/2/6 2227/2/6 2228/2/6
f 2229/2/3 2230/2/3 2231/2/3 2232/2/3
f 2233/2/4 2234/2/4 2235/2/4 2236/2/4
f 2237/2/5 2238/2/5 2239/2/5 2240/2/5
f 2241/2/6 2242/2/6 2243/2/6 2244/2/6
f 2245/2/3 2246/2/3 2247/2/3 2248/2/3
f 2249/2/4 2250/2/4 2251/2/4 2252/2/4
f 2253/2/5 2254/2/5 2255/2/5 2256/2/5
f 2257/2/6 2258/2/6 2259/2/6 2260/2/6
f 2261/2/3 2262/2/3 2263/2/3 2264/2/3
f 2265/2/4 2266/2/4 2267/2/4 2268/2/4
f 2269/2/5 2270/2/5 2271/2/5 2272/2/5
f 2273/2/6 2274/2/6 2275/2/6 2276/2/6
f 2277/2/3 2278/2/3 2279/2/3 2280/2/3
f 2281/2/4 2282/2/4 2283/2/4 2284/2/4
f 2285/2/5 2286/2/5 2287/2/5 2288/2/5
f 2289/2/6 2290/2/6 2291/2/6 2292/2/6
f 2293/2/3 2294/2/3 2295/2/3 2296/2/3
f 2297/2/4 2298/2/4 2299/2/4 2300/2/4
f 2301/2/5 2302/2/5 2303/2/5 2304/2/5
f 2305/2/6 2306/2/6 2307/2/6 2308/2/6
f 2309/2/3 2310/2/3 2311/2/3 2312/2/3
f 2313/2/4 2314/2/4 2315/2/4 2316/2/4
f 2317/2/5 2318/2/5 2319/2/5 2320/2/5
f 2321/2/6 2322/2/6 2323/2/6 2324/2/6
f 2325/2/3 2326/2/3 2327/2/3 2328/2/3
f 2329/2/4 2330/2/4 2331/2/4 2332/2/4
f 2333/2/5 2334/2/5 2335/2/5 2336/2/5
f 2337/2/6 2338/2/6 2339/2/6 2340/2/6
f 2341/2/3 2342/2/3 2343/2/3 2344/2/3
f 2345/2/4 2346/2/4 2347/2/4 2348/2/4
f 2349/2/5 2350/2/5 2351/2/5 2352/2/5
f 2353/2/6 2354/2/6 2355/2/6 2356/2/6
f 2357/2/3 2358/2/3 2359/2/3 2360/2/3
f 2361/2/4 2362/2/4 2363/2/4 2364/2/4
f 2365/2/5 2366/2/5 2367/2/5 2368/2/5
f 2369/2/6 2370/2/6 2371/2/6 2372/2/6
f 2373/2/3 2374/2/3 2375/2/3 2376/2/3
f 2377/2/4 2378/2/4 2379/2/4 2380/2/4
f 2381/2/5 2382/2/5 2383/2/5 2384/2/5
f 2385/2/6 2386/2/6 2387/2/6 2388/2/6
f 2389/2/3 2390/2/3 2391/2/3 2392/2/3
f 2393/2/4 2394/2/4 2395/2/4 2396/2/4
f 2397/2/5 2398/2/5 2399/2/5 2400/2/5
f 2401/2/6 2402/2/6 2403/2/6 2404/2/6
f 2405/2/3 2406/2/3 2407/2/3 2408/2/3
f 2409/2/4 2410/2/4 2411/2/4 2412/2/4
f 2413/2/5 2414/2/5 2415/2/5 2416/2/5
f 2417/2/6 2418/2/6 2419/2/6 2420/2/6
f 2421/2/3 2422/2/3 2423/2/3 2424/2/3
f 2425/2/4 2426/2/4 2427/2/4 2428/2/4
f 2429/2/5 2430/2/5 2431/2/5 2432/2/5
f 2433/2/6 2434/2/6 2435/2/6 2436/2/6
f 2437/2/3 2438/2/3 2439/2/3 2440/2/3
f 2441/2/4 2442/2/4 2443/2/4 2444/2/4
f 2445/2/5 2446/2/5 2447/2/5 2448/2/5
f 2449/2/6 2450/2/6 2451/2/6 2452/2/6
f 2453/2/3 2454/2/3 2455/2/3 2456/2/3
f 2457/2/4 2458/2/4 2459/2/4 2460/2/4
f 2461/2/5 2462/2/5 2463/2/5 2464/2/5
f 2465/2/6 2466/2/6 2467/2/6 2468/2/6
f 2469/2/3 2470/2/3 2471/2/3 2472/2/3
f 2473/2/4 2474/2/4 2475/2/4 2476/2/4
f 2477/2/5 2478/2/5 2479/2/5 2480/2/5
f 2481/2/6 2482/2/6 2483/2/6 2484/2/6
f 2485/2/3 2486/2/3 2487/2/3 2488/2/3
f 2489/2/4 2490/2/4 2491/2/4 2492/2/4
f 2493/2/5 2494/2/5 2495/2/5 2496/2/5
f 2497/2/6 2498/2/6 2499/2/6 2500/2/6
f 2501/2/2 2502/2/2 2503/2/2 2504/2/2
f 2505/2/3 2506/2/3 2507/2/3 2508/2/3
f 2509/2/4 2510/2/4 2511/2/4 2512/2/4
f 2513/2/5 2514/2/5 2515/2/5 2516/2/5
f 2517/2/6 2518/2/6 2519/2/6 2520/2/6
f 2521/2/1 2522/2/1 2523/2/1 2524/2/1
f 2525/2/3 2526/2/3 2527/2/3 2528/2/3
f 2529/2/4 2530/2/4 2531/2/4 2532/2/4
f 2533/2/5 2534/2/5 2535/2/5 2536/2/5
f 2537/2/6 2538/2/6 2539/2/6 2540/2/6
f 2541/2/3 2542/2/3 2543/2/3 2544/2/3
f 2545/2/4 2546/2/4 2547/2/4 2548/2/4
f 2549/2/5 2550/2/5 2551/2/5 2552/2/5
f 2553/2/6 2554/2/6 2555/2/6 2556/2/6
f 2557/2/2 2558/2/2 2559/2/2 2560/2/2
f 2561/2/3 2562/2/3 2563/2/3 2564/2/3
f 2565/2/4 2566/2/4 2567/2/4 2568/2/4
f 2569/2/5 2570/2/5 2571/2/5 2572/2/5
f 2573/2/6 2574/2/6 2575/2/6 2576/2/6
f 2577/2/1 2578/2/1 2579/2/1 2580/2/1
f 2581/2/3 2582/2/3 2583/2/3 2584/2/3
f 2585/2/4 2586/2/4 2587/2/4 2588/2/4
f 2589/2/5 2590/2/5 2591/2/5 2592/2/5
f 2593/2/6 2594/2/6 2595/2/6 2596/2/6
f 2597/2/3 2598/2/3 2599/2/3 2600/2/3
f 2601/2/4 2602/2/4 2603/2/4 2604/2/4
f 2605/2/5 2606/2/5 2607/2/5 2608/2/5
f 2609/2/6 2610/2/6 2611/2/6 2612/2/6
f 2613/2/3 2614/2/3 2615/2/3 2616/2/3
f 2617/2/4 2618/2/4 2619/2/4 2620/2/4
f 2621/2/5 2622/2/5 2623/2/5 2624/2/5
f 2625/2/6 2626/2/6 2627/2/6 2628/2/6
f 2629/2/3 2630/2/3 2631/2/3 2632/2/3
f 2633/2/4 2634/2/4 2635/2/4 2636/2/4
f 2637/2/5 2638/2/5 2639/2/5 2640/2/5
f 2641/2/6 2642/2/6 2643/2/6 2644/2/6
f 2645/2/3 2646/2/3 2647/2/3 2648/2/3
f 2649/2/4 2650/2/4 2651/2/4 2652/2/4
f 2653/2/5 2654/2/5 2655/2/5 2656/2/5
f 2657/2/6 2658/2/6 2659/2/6 2660/2/6
f 2661/2/3 2662/2/3 2663/2/3 2664/2/3
f 2665/2/4 2666/2/4 2667/2/4 2668/2/4
f 2669/2/5 2670/2/5 2671/2/5 2672/2/5
f 2673/2/6 2674/2/6 2675/2/6 2676/2/6
f 2677/2/3 2678/2/3 2679/2/3 2680/2/3
f 2681/2/4 2682/2/4 2683/2/4 2684/2/4
f 2685/2/5 2686/2/5 2687/2/5 2688/2/5
f 2689/2/6 2690/2/6 2691/2/6 2692/2/6
f 2693/2/3 2694/2/3 2695/2/3 2696/2/3
f 2697/2/4 2698/2/4 2699/2/4 2700/2/4
f 2701/2/5 2702/2/5 2703/2/5 2704/2/5
f 2705/2/6 2706/2/6 2707/2/6 2708/2/6
f 2709/2/3 2710/2/3 2711/2/3 2712/2/3
f 2713/2/4 2714/2/4 2715/2/4 2716/2/4
f 2717/2/5 2718/2/5 2719/2/5 2720/2/5
f 2721/2/6 2722/2/6 2723/2/6 2724/2/6
f 2725/2/3 2726/2/3 2727/2/3 2728/2/3
f 2729/2/4 2730/2/4 2731/2/4 2732/2/4
f 2733/2/5 2734/2/5 2735/2/5 2736/2/5
f 2737/2/6 2738/2/6 2739/2/6 2740/2/6
f 2741/2/3 2742/2/3 2743/2/3 2744/2/3
f 2745/2/4 2746/2/4 2747/2/4 2748/2/4
f 2749/2/5 2750/2/5 2751/2/5 2752/2/5
f 2753/2/6 2754/2/6 2755/2/6 2756/2/6
f 2757/2/3 2758/2/3 2759/2/3 2760/2/3
f 2761/2/4 2762/2/4 2763/2/4 2764/2/4
f 2765/2/5 2766/2/5 2767/2/5 2768/2/5
f 2769/2/6 2770/2/6 2771/2/6 2772/2/6
f 2773/2/3 2774/2/3 2775/2/3 2776/2/3
f 2777/2/4 2778/2/4 2779/2/4 2780/2/4
f 2781/2/5 2782/2/5 2783/2/5 2784/2/5
f 2785/2/6 2786/2/6 2787/2/6 2788/2/6
f 2789/2/3 2790/2/3 2791/2/3 2792/2/3
f 2793/2/4 2794/2/4 2795/2/4 2796/2/4
f 2797/2/5 2798/2/5 2799/2/5 2800/2/5
f 2801/2/6 2802/2/6 2803/2/6 2804/2/6
f 2805/2/3 2806/2/3 2807/2/3 2808/2/3
f 2809/2/4 2810/2/4 2811/2/4 2812/2/4
f 2813/2/5 2814/2/5 2815/2/5 2816/2/5
f 2817/2/6 2818/2/6 2819/2/6 2820/2/6
f 2821/2/2 2822/2/2 2823/2/2 2824/2/2
f 2825/2/3 2826/2/3 2827/2/3 2828/2/3
f 2829/2/4 2830/2/4 2831/2/4 2832/2/4
f 2833/2/5 2834/2/5 2835/2/5 2836/2/5
f 2837/2/6 2838/2/6 2839/2/6 2840/2/6
f 2841/1/1 2842/1/1 2843/1/1 2844/1/1
f 2845/1/2 2846/1/2 2847/1/2 2848/1/2
f 2849/1/3 2850/1/3 2851/1/3 2852/1/3
f 2853/1/4 2854/1/4 2855/1/4 2856/1/4
f 2857/1/5 2858/1/5 2859/1/5 2860/1/5
f 2861/1/6 2862/1/6 2863/1/6 2864/1/6
f 2865/1/1 2866/1/1 2867/1/1 2868/1/1
f 2869/1/2 2870/1/2 2871/1/2 2872/1/2
f 2873/1/3 2874/1/3 2875/1/3 2876/1/3
f 2877/1/4 2878/1/4 2879/1/4 2880/1/4
f 2881/1/5 2882/1/5 2883/1/5 2884/1/5
f 2885/1/6 2886/1/6 2887/1/6 2888/1/6
f 2889/1/1 2890/1/1 2891/1/1 2892/1/1
f 2893/1/2 2894/1/2 2895/1/2 2896/1/2
f 2897/1/3 2898/1/3 2899/1/3 2900/1/3
f 2901/1/5 2902/1/5 2903/1/5 2904/1/5
f 2905/1/6 2906/1/6 2907/1/6 2908/1/6
f 2909/1/1 2910/1/1 2911/1/1 2912/1/1
f 2913/1/2 2914/1/2 2915/1/2 2916/1/2
f 2917/1/4 2918/1/4 2919/1/4 2920/1/4
f 2921/1/5 2922/1/5 2923/1/5 2924/1/5
f 2925/1/6 2926/1/6 2927/1/6 2928/1/6
f 2929/1/1 2930/1/1 2931/1/1 2932/1/1
f 2933/1/2 2934/1/2 2935/1/2 2936/1/2
f 2937/1/3 2938/1/3 2939/1/3 2940/1/3
f 2941/1/5 2942/1/5 2943/1/5 2944/1/5
f 2945/1/6 2946/1/6 2947/1/6 2948/1/6
f 2949/1/1 2950/1/1 2951/1/1 2952/1/1
f 2953/1/2 2954/1/2 2955/1/2 2956/1/2
f 2957/1/4 2958/1/4 2959/1/4 2960/1/4
f 2961/1/5 2962/1/5 2963/1/5 2964/1/5
f 2965/1/6 2966/1/6 2967/1/6 2968/1/6
f 2969/1/1 2970/1/1 2971/1/1 2972/1/1
f 2973/1/2 2974/1/2 2975/1/2 2976/1/2
f 2977/1/3 2978/1/3 2979/1/3 2980/1/3
f 2981/1/4 2982/1/4 2983/1/4 2984/1/4
f 2985/1/5 2986/1/5 2987/1/5 2988/1/5
f 2989/1/6 2990/1/6 2991/1/6 2992/1/6
f 2993/1/1 2994/1/1 2995/1/1 2996/1/1
f 2997/1/2 2998/1/2 2999/1/2 3000/1/2
f 3001/1/3 3002/1/3 3003/1/3 3004/1/3
f 3005/1/5 3006/1/5 3007/1/5 3008/1/5
f 3009/1/6 3010/1/6 3011/1/6 3012/1/6
f 3013/1/1 3014/1/1 3015/1/1 3016/1/1
f 3017/1/2 3018/1/2 3019/1/2 3020/1/2
f 3021/1/4 3022/1/4 3023/1/4 3024/1/4
f 3025/1/5 3026/1/5 3027/1/5 3028/1/5
f 3029/1/6 3030/1/6 3031/1/6 3032/1/6
f 3033/1/1 3034/1/1 3035/1/1 3036/1/1
f 3037/1/2 3038/1/2 3039/1/2 3040/1/2
f 3041/1/3 3042/1/3 3043/1/3 3044/1/3
f 3045/1/4 3046/1/4 3047/1/4 3048/1/4
f 3049/1/5 3050/1/5 3051/1/5 3052/1/5
f 3053/1/6 3054/1/6 3055/1/6 3056/1/6
f 3057/1/1 3058/1/1 3059/1/1 3060/1/1
f 3061/1/2 3062/1/2 3063/1/2 3064/1/2
f 3065/1/3 3066/1/3 3067/1/3 3068/1/3
f 3069/1/5 3070/1/5 3071/1/5 3072/1/5
f 3073/1/6 3074/1/6 3075/1/6 3076/1/6
f 3077/1/1 3078/1/1 3079/1/1 3080/1/1
f 3081/1/2 3082/1/2 3083/1/2 3084/1/2
f 3085/1/4 3086/1/4 3087/1/4 3088/1/4
f 3089/1/5 3090/1/5 3091/1/5 3092/1/5
f 3093/1/6 3094/1/6 3095/1/6 3096/1/6
f 3097/1/1 3098/1/1 3099/1/1 3100/1/1
f 3101/1/2 3102/1/2 3103/1/2 3104/1/2
f 3105/1/3 3106/1/3 3107/1/3 3108/1/3
f 3109/1/5 3110/1/5 3111/1/5 3112/1/5
f 3113/1/6 3114/1/6 3115/1/6 3116/1/6
f 3117/1/1 3118/1/1 3119/1/1 3120/1/1
f 3121/1/2 3122/1/2 3123/1/2 3124/1/2
f 3125/1/4 3126/1/4 3127/1/4 3128/1/4
f 3129/1/5 3130/1/5 3131/1/5 3132/1/5
f 3133/1/6 3134/1/6 3135/1/6 3136/1/6
f 3137/1/1 3138/1/1 3139/1/1 3140/1/1
f 3141/1/2 3142/1/2 3143/1/2 3144/1/2
f 3145/1/3 3146/1/3 3147/1/3 3148/1/3
f 3149/1/4 3150/1/4 3151/1/4 3152/1/4
f 3153/1/5 3154/1/5 3155/1/5 3156/1/5
f 3157/1/6 3158/1/6 3159/1/6 3160/1/6
f 3161/1/1 3162/1/1 3163/1/1 3164/1/1
f 3165/1/2 3166/1/2 3167/1/2 3168/1/2
f 3169/1/3 3170/1/3 3171/1/3 3172/1/3
f 3173/1/5 3174/1/5 3175/1/5 3176/1/5
f 3177/1/6 3178/1/6 3179/1/6 3180/1/6
f 3181/1/1 3182/1/1 3183/1/1 3184/1/1
f 3185/1/2 3186/1/2 3187/1/2 3188/1/2
f 3189/1/4 3190/1/4 3191/1/4 3192/1/4
f 3193/1/5 3194/1/5 3195/1/5 3196/1/5
f 3197/1/6 3198/1/6 3199/1/6 3200/1/6
f 3201/1/1 3202/1/1 3203/1/1 3204/1/1
f 3205/1/2 3206/1/2 3207/1/2 3208/1/2
f 3209/1/3 3210/1/3 3211/1/3 3212/1/3
f 3213/1/4 3214/1/4 3215/1/4 3216/1/4
f 3217/1/5 3218/1/5 3219/1/5 3220/1/5
f 3221/1/6 3222/1/6 3223/1/6 3224/1/6
f 3225/1/1 3226/1/1 3227/1/1 3228/1/1
f 3229/1/2 3230/1/2 3231/1/2 3232/1/2
f 3233/1/3 3234/1/3 3235/1/3 3236/1/3
f 3237/1/5 3238/1/5 3239/1/5 3240/1/5
f 3241/1/6 3242/1/6 3243/1/6 3244/1/6
f 3245/1/1 3246/1/1 3247/1/1 3248/1/1
f 3249/1/2 3250/1/2 3251/1/2 3252/1/2
f 3253/1/4 3254/1/4 3255/1/4 3256/1/4
f 3257/1/5 3258/1/5 3259/1/5 3260/1/5
f 3261/1/6 3262/1/6 3263/1/6 3264/1/6
f 3265/1/1 3266/1/1 3267/1/1 3268/1/1
f 3269/1/2 3270/1/2 3271/1/2 3272/1/2
f 3273/1/3 3274/1/3 3275/1/3 3276/1/3
f 3277/1/5 3278/1/5 3279/1/5 3280/1/5
f 3281/1/6 3282/1/6 3283/1/6 3284/1/6
f 3285/1/1 3286/1/1 3287/1/1 3288/1/1
f 3289/1/2 3290/1/2 3291/1/2 3292/1/2
f 3293/1/4 3294/1/4 3295/1/4 3296/1/4
f 3297/1/5 3298/1/5 3299/1/5 3300/1/5
f 3301/1/6 3302/1/6 3303/1/6 3304/1/6
f 3305/1/1 3306/1/1 3307/1/1 3308/1/1
f 3309/1/2 3310/1/2 3311/1/2 3312/1/2
f 3313/1/3 3314/1/3 3315/1/3 3316/1/3
f 3317/1/4 3318/1/4 3319/1/4 3320/1/4
f 3321/1/5 3322/1/5 3323/1/5 3324/1/5
f 3325/1/6 3326/1/6 3327/1/6 3328/1/6
f 3329/1/1 3330/1/1 3331/1/1 3332/1/1
f 3333/1/2 3334/1/2 3335/1/2 3336/1/2
f 3337/1/3 3338/1/3 3339/1/3 3340/1/3
f 3341/1/5 3342/1/5 3343/1/5 3344/1/5
f 3345/1/6 3346/1/6 3347/1/6 3348/1/6
f 3349/1/1 3350/1/1 3351/1/1 3352/1/1
f 3353/1/2 3354/1/2 3355/1/2 3356/1/2
f 3357/1/4 3358/1/4 3359/1/4 3360/1/4
f 3361/1/5 3362/1/5 3363/1/5 3364/1/5
f 3365/1/6 3366/1/6 3367/1/6 3368/1/6
f 3369/1/1 3370/1/1 3371/1/1 3372/1/1
f 3373/1/2 3374/1/2 3375/1/2 3376/1/2
f 3377/1/3 3378/1/3 3379/1/3 3380/1/3
f 3381/1/4 3382/1/4 3383/1/4 3384/1/4
f 3385/1/5 3386/1/5 3387/1/5 3388/1/5
f 3389/1/6 3390/1/6 3391/1/6 3392/1/6
f 3393/1/1 3394/1/1 3395/1/1 3396/1/1
f 3397/1/2 3398/1/2 3399/1/2 3400/1/2
f 3401/1/3 3402/1/3 3403/1/3 3404/1/3
f 3405/1/5 3406/1/5 3407/1/5 3408/1/5
f 3409/1/6 3410/1/6 3411/1/6 3412/1/6
f 3413/1/1 3414/1/1 3415/1/1 3416/1/1
f 3417/1/2 3418/1/2 3419/1/2 3420/1/2
f 3421/1/4 3422/1/4 3423/1/4 3424/1/4
f 3425/1/5 3426/1/5 3427/1/5 3428/1/5
f 3429/1/6 3430/1/6 3431/1/6 3432/1/6
f 3433/1/1 3434/1/1 3435/1/1 3436/1/1
f 3437/1/2 3438/1/2 3439/1/2 3440/1/2
f 3441/1/3 3442/1/3 3443/1/3 3444/1/3
f 3445/1/5 3446/1/5 3447/1/5 3448/1/5
f 3449/1/6 3450/1/6 3451/1/6 3452/1/6
f 3453/1/1 3454/1/1 3455/1/1 3456/1/1
f 3457/1/2 3458/1/2 3459/1/2 3460/1/2
f 3461/1/4 3462/1/4 3463/1/4 3464/1/4
f 3465/1/5 3466/1/5 3467/1/5 3468/1/5
f 3469/1/6 3470/1/6 3471/1/6 3472/1/6
f 3473/1/1 3474/1/1 3475/1/1 3476/1/1
f 3477/1/2 3478/1/2 3479/1/2 3480/1/2
f 3481/1/3 3482/1/3 3483/1/3 3484/1/3
f 3485/1/4 3486/1/4 3487/1/4 3488/1/4
f 3489/1/5 3490/1/5 3491/1/5 3492/1/5
f 3493/1/6 3494/1/6 3495/1/6 3496/1/6
f 3497/1/1 3498/1/1 3499/1/1 3500/1/1
f 3501/1/2 3502/1/2 3503/1/2 3504/1/2
f 3505/1/3 3506/1/3 3507/1/3 3508/1/3
f 3509/1/5 3510/1/5 3511/1/5 3512/1/5
f 3513/1/6 3514/1/6 3515/1/6 3516/1/6
f 3517/1/1 3518/1/1 3519/1/1 3520/1/1
f 3521/1/2 3522/1/2 3523/1/2 3524/1/2
f 3525/1/4 3526/1/4 3527/1/4 3528/1/4
f 3529/1/5 3530/1/5 3531/1/5 3532/1/5
f 3533/1/6 3534/1/6 3535/1/6 3536/1/6
f 3537/1/1 3538/1/1 3539/1/1 3540/1/1
f 3541/1/2 3542/1/2 3543/1/2 3544/1/2
f 3545/1/3 3546/1/3 3547/1/3 3548/1/3
f 3549/1/4 3550/1/4 3551/1/4 3552/1/4
f 3553/1/5 3554/1/5 3555/1/5 3556/1/5
f 3557/1/6 3558/1/6 3559/1/6 3560/1/6
f 3561/1/1 3562/1/1 3563/1/1 3564/1/1
f 3565/1/2 3566/1/2 3567/1/2 3568/1/2
f 3569/1/3 3570/1/3 3571/1/3 3572/1/3
f 3573/1/5 3574/1/5 3575/1/5 3576/1/5
f 3577/1/6 3578/1/6 3579/1/6 3580/1/6
f 3581/1/1 3582/1/1 3583/1/1 3584/1/1
f 3585/1/2 3586/1/2 3587/1/2 3588/1/2
f 3589/1/4 3590/1/4 3591/1/4 3592/1/4
f 3593/1/5 3594/1/5 3595/1/5 3596/1/5
f 3597/1/6 3598/1/6 3599/1/6 3600/1/6
f 3601/1/1 3602/1/1 3603/1/1 3604/1/1
f 3605/1/2 3606/1/2 3607/1/2 3608/1/2
f 3609/1/3 3610/1/3 3611/1/3 3612/1/3
f 3613/1/5 3614/1/5 3615/1/5 3616/1/5
f 3617/1/6 3618/1/6 3619/1/6 3620/1/6
f 3621/1/1 3622/1/1 3623/1/1 3624/1/1
f 3625/1/2 3626/1/2 3627/1/2 3628/1/2
f 3629/1/4 3630/1/4 3631/1/4 3632/1/4
f 3633/1/5 3634/1/5 3635/1/5 3636/1/5
f 3637/1/6 3638/1/6 3639/1/6 3640/1/6
f 3641/1/1 3642/1/1 3643/1/1 3644/1/1
f 3645/1/2 3646/1/2 3647/1/2 3648/1/2
f 3649/1/3 3650/1/3 3651/1/3 3652/1/3
f 3653/1/4 3654/1/4 3655/1/4 3656/1/4
f 3657/1/5 3658/1/5 3659/1/5 3660/1/5
f 3661/1/6 3662/1/6 3663/1/6 3664/1/6
f 3665/1/1 3666/1/1 3667/1/1 3668/1/1
f 3669/1/2 3670/1/2 3671/1/2 3672/1/2
f 3673/1/3 3674/1/3 3675/1/3 3676/1/3
f 3677/1/5 3678/1/5 3679/1/5 3680/1/5
f 3681/1/6 3682/1/6 3683/1/6 3684/1/6
f 3685/1/1 3686/1/1 3687/1/1 3688/1/1
f 3689/1/2 3690/1/2 3691/1/2 3692/1/2
f 3693/1/4 3694/1/4 3695/1/4 3696/1/4
f 3697/1/5 3698/1/5 3699/1/5 3700/1/5
f 3701/1/6 3702/1/6 3703/1/6 3704/1/6
f 3705/1/1 3706/1/1 3707/1/1 3708/1/1
f 3709/1/2 3710/1/2 3711/1/2 3712/1/2
f 3713/1/3 3714/1/3 3715/1/3 3716/1/3
f 3717/1/4 3718/1/4 3719/1/4 3720/1/4
f 3721/1/5 3722/1/5 3723/1/5 3724/1/5
f 3725/1/6 3726/1/6 3727/1/6 3728/1/6
f 3729/1/1 3730/1/1 3731/1/1 3732/1/1
f 3733/1/2 3734/1/2 3735/1/2 3736/1/2
f 3737/1/3 3738/1/3 3739/1/3 3740/1/3
f 3741/1/5 3742/1/5 3743/1/5 3744/1/5
f 3745/1/6 3746/1/6 3747/1/6 3748/1/6
f 3749/1/1 3750/1/1 3751/1/1 3752/1/1
f 3753/1/2 3754/1/2 3755/1/2 3756/1/2
f 3757/1/4 3758/1/4 3759/1/4 3760/1/4
f 3761/1/5 3762/1/5 3763/1/5 3764/1/5
f 3765/1/6 3766/1/6 3767/1/6 3768/1/6
f 3769/1/1 3770/1/1 3771/1/1 3772/1/1
f 3773/1/2 3774/1/2 3775/1/2 3776/1/2
f 3777/1/3 3778/1/3 3779/1/3 3780/1/3
f 3781/1/5 3782/1/5 3783/1/5 3784/1/5
f 3785/1/6 3786/1/6 3787/1/6 3788/1/6
f 3789/1/1 3790/1/1 3791/1/1 3792/1/1
f 3793/1/2 3794/1/2 3795/1/2 3796/1/2
f 3797/1/4 3798/1/4 3799/1/4 3800/1/4
f 3801/1/5 3802/1/5 3803/1/5 3804/1/5
f 3805/1/6 3806/1/6 3807/1/6 3808/1/6
f 3809/1/1 3810/1/1 3811/1/1 3812/1/1
f 3813/1/2 3814/1/2 3815/1/2 3816/1/2
f 3817/1/3 3818/1/3 3819/1/3 3820/1/3
f 3821/1/4 3822/1/4 3823/1/4 3824/1/4
f 3825/1/5 3826/1/5 3827/1/5 3828/1/5
f 3829/1/6 3830/1/6 3831/1/6 3832/1/6

