# generated by vox_to_obj_exporter
# scale=0.1 center=false ground=false y_up=true

mtllib Fight_026.mtl
usemtl palette

# normals
vn -1 0 0
vn 1 0 0
vn 0 1 0
vn 0 -1 0
vn 0 0 1
vn 0 0 -1

# texcoords
vt 0.142578125 0.5
vt 0.236328125 0.5

# verts
v 16.9 16 -2.6
v 16.9 15.9 -2.6
v 16.9 15.9 -2.5
v 16.9 16 -2.5
v 17 16 -2.5
v 17 15.9 -2.5
v 17 15.9 -2.6
v 17 16 -2.6
v 16.9 16 -2.6
v 16.9 16 -2.5
v 17 16 -2.5
v 17 16 -2.6
v 16.9 16 -2.5
v 16.9 15.9 -2.5
v 17 15.9 -2.5
v 17 16 -2.5
v 17 16 -2.6
v 17 15.9 -2.6
v 16.9 15.9 -2.6
v 16.9 16 -2.6
v 16.9 15.9 -2.6
v 16.9 15.8 -2.6
v 16.9 15.8 -2.5
v 16.9 15.9 -2.5
v 17 15.9 -2.5
v 17 15.8 -2.5
v 17 15.8 -2.6
v 17 15.9 -2.6
v 16.9 15.8 -2.5
v 16.9 15.8 -2.6
v 17 15.8 -2.6
v 17 15.8 -2.5
v 16.9 15.9 -2.5
v 16.9 15.8 -2.5
v 17 15.8 -2.5
v 17 15.9 -2.5
v 17 15.9 -2.6
v 17 15.8 -2.6
v 16.9 15.8 -2.6
v 16.9 15.9 -2.6
v 17 15.8 -2.6
v 17 15.7 -2.6
v 17 15.7 -2.5
v 17 15.8 -2.5
v 17.1 15.8 -2.5
v 17.1 15.7 -2.5
v 17.1 15.7 -2.6
v 17.1 15.8 -2.6
v 17 15.8 -2.6
v 17 15.8 -2.5
v 17.1 15.8 -2.5
v 17.1 15.8 -2.6
v 17 15.8 -2.5
v 17 15.7 -2.5
v 17.1 15.7 -2.5
v 17.1 15.8 -2.5
v 17.1 15.8 -2.6
v 17.1 15.7 -2.6
v 17 15.7 -2.6
v 17 15.8 -2.6
v 17 15.7 -2.6
v 17 15.6 -2.6
v 17 15.6 -2.5
v 17 15.7 -2.5
v 17.1 15.7 -2.5
v 17.1 15.6 -2.5
v 17.1 15.6 -2.6
v 17.1 15.7 -2.6
v 17 15.7 -2.5
v 17 15.6 -2.5
v 17.1 15.6 -2.5
v 17.1 15.7 -2.5
v 17.1 15.7 -2.6
v 17.1 15.6 -2.6
v 17 15.6 -2.6
v 17 15.7 -2.6
v 17 15.6 -2.6
v 17 15.5 -2.6
v 17 15.5 -2.5
v 17 15.6 -2.5
v 17.1 15.6 -2.5
v 17.1 15.5 -2.5
v 17.1 15.5 -2.6
v 17.1 15.6 -2.6
v 17 15.5 -2.5
v 17 15.5 -2.6
v 17.1 15.5 -2.6
v 17.1 15.5 -2.5
v 17 15.6 -2.5
v 17 15.5 -2.5
v 17.1 15.5 -2.5
v 17.1 15.6 -2.5
v 17.1 15.6 -2.6
v 17.1 15.5 -2.6
v 17 15.5 -2.6
v 17 15.6 -2.6
v 17.1 15.5 -2.6
v 17.1 15.4 -2.6
v 17.1 15.4 -2.5
v 17.1 15.5 -2.5
v 17.2 15.5 -2.5
v 17.2 15.4 -2.5
v 17.2 15.4 -2.6
v 17.2 15.5 -2.6
v 17.1 15.5 -2.6
v 17.1 15.5 -2.5
v 17.2 15.5 -2.5
v 17.2 15.5 -2.6
v 17.1 15.5 -2.5
v 17.1 15.4 -2.5
v 17.2 15.4 -2.5
v 17.2 15.5 -2.5
v 17.2 15.5 -2.6
v 17.2 15.4 -2.6
v 17.1 15.4 -2.6
v 17.1 15.5 -2.6
v 17.1 15.4 -2.6
v 17.1 15.3 -2.6
v 17.1 15.3 -2.5
v 17.1 15.4 -2.5
v 17.2 15.4 -2.5
v 17.2 15.3 -2.5
v 17.2 15.3 -2.6
v 17.2 15.4 -2.6
v 17.1 15.4 -2.5
v 17.1 15.3 -2.5
v 17.2 15.3 -2.5
v 17.2 15.4 -2.5
v 17.2 15.4 -2.6
v 17.2 15.3 -2.6
v 17.1 15.3 -2.6
v 17.1 15.4 -2.6
v 17.1 15.3 -2.6
v 17.1 15.2 -2.6
v 17.1 15.2 -2.5
v 17.1 15.3 -2.5
v 17.2 15.3 -2.5
v 17.2 15.2 -2.5
v 17.2 15.2 -2.6
v 17.2 15.3 -2.6
v 17.1 15.2 -2.5
v 17.1 15.2 -2.6
v 17.2 15.2 -2.6
v 17.2 15.2 -2.5
v 17.1 15.3 -2.5
v 17.1 15.2 -2.5
v 17.2 15.2 -2.5
v 17.2 15.3 -2.5
v 17.2 15.3 -2.6
v 17.2 15.2 -2.6
v 17.1 15.2 -2.6
v 17.1 15.3 -2.6
v 17.2 15.2 -2.6
v 17.2 15.1 -2.6
v 17.2 15.1 -2.5
v 17.2 15.2 -2.5
v 17.3 15.2 -2.5
v 17.3 15.1 -2.5
v 17.3 15.1 -2.6
v 17.3 15.2 -2.6
v 17.2 15.2 -2.6
v 17.2 15.2 -2.5
v 17.3 15.2 -2.5
v 17.3 15.2 -2.6
v 17.2 15.2 -2.5
v 17.2 15.1 -2.5
v 17.3 15.1 -2.5
v 17.3 15.2 -2.5
v 17.3 15.2 -2.6
v 17.3 15.1 -2.6
v 17.2 15.1 -2.6
v 17.2 15.2 -2.6
v 17.2 15.1 -2.6
v 17.2 15 -2.6
v 17.2 15 -2.5
v 17.2 15.1 -2.5
v 17.3 15.1 -2.5
v 17.3 15 -2.5
v 17.3 15 -2.6
v 17.3 15.1 -2.6
v 17.2 15 -2.5
v 17.2 15 -2.6
v 17.3 15 -2.6
v 17.3 15 -2.5
v 17.2 15.1 -2.5
v 17.2 15 -2.5
v 17.3 15 -2.5
v 17.3 15.1 -2.5
v 17.3 15.1 -2.6
v 17.3 15 -2.6
v 17.2 15 -2.6
v 17.2 15.1 -2.6
v 17.3 15 -2.6
v 17.3 14.9 -2.6
v 17.3 14.9 -2.5
v 17.3 15 -2.5
v 17.4 15 -2.5
v 17.4 14.9 -2.5
v 17.4 14.9 -2.6
v 17.4 15 -2.6
v 17.3 15 -2.6
v 17.3 15 -2.5
v 17.4 15 -2.5
v 17.4 15 -2.6
v 17.3 15 -2.5
v 17.3 14.9 -2.5
v 17.4 14.9 -2.5
v 17.4 15 -2.5
v 17.4 15 -2.6
v 17.4 14.9 -2.6
v 17.3 14.9 -2.6
v 17.3 15 -2.6
v 17.3 14.9 -2.6
v 17.3 14.8 -2.6
v 17.3 14.8 -2.5
v 17.3 14.9 -2.5
v 17.4 14.9 -2.5
v 17.4 14.8 -2.5
v 17.4 14.8 -2.6
v 17.4 14.9 -2.6
v 17.3 14.9 -2.5
v 17.3 14.8 -2.5
v 17.4 14.8 -2.5
v 17.4 14.9 -2.5
v 17.4 14.9 -2.6
v 17.4 14.8 -2.6
v 17.3 14.8 -2.6
v 17.3 14.9 -2.6
v 17.3 14.8 -2.6
v 17.3 14.7 -2.6
v 17.3 14.7 -2.5
v 17.3 14.8 -2.5
v 17.4 14.8 -2.5
v 17.4 14.7 -2.5
v 17.4 14.7 -2.6
v 17.4 14.8 -2.6
v 17.3 14.7 -2.5
v 17.3 14.7 -2.6
v 17.4 14.7 -2.6
v 17.4 14.7 -2.5
v 17.3 14.8 -2.5
v 17.3 14.7 -2.5
v 17.4 14.7 -2.5
v 17.4 14.8 -2.5
v 17.4 14.8 -2.6
v 17.4 14.7 -2.6
v 17.3 14.7 -2.6
v 17.3 14.8 -2.6
v 17.4 14.7 -2.6
v 17.4 14.6 -2.6
v 17.4 14.6 -2.5
v 17.4 14.7 -2.5
v 17.5 14.7 -2.5
v 17.5 14.6 -2.5
v 17.5 14.6 -2.6
v 17.5 14.7 -2.6
v 17.4 14.7 -2.6
v 17.4 14.7 -2.5
v 17.5 14.7 -2.5
v 17.5 14.7 -2.6
v 17.4 14.7 -2.5
v 17.4 14.6 -2.5
v 17.5 14.6 -2.5
v 17.5 14.7 -2.5
v 17.5 14.7 -2.6
v 17.5 14.6 -2.6
v 17.4 14.6 -2.6
v 17.4 14.7 -2.6
v 17.4 14.6 -2.6
v 17.4 14.5 -2.6
v 17.4 14.5 -2.5
v 17.4 14.6 -2.5
v 17.5 14.6 -2.5
v 17.5 14.5 -2.5
v 17.5 14.5 -2.6
v 17.5 14.6 -2.6
v 17.4 14.6 -2.5
v 17.4 14.5 -2.5
v 17.5 14.5 -2.5
v 17.5 14.6 -2.5
v 17.5 14.6 -2.6
v 17.5 14.5 -2.6
v 17.4 14.5 -2.6
v 17.4 14.6 -2.6
v 17.4 14.5 -2.6
v 17.4 14.4 -2.6
v 17.4 14.4 -2.5
v 17.4 14.5 -2.5
v 17.5 14.5 -2.5
v 17.5 14.4 -2.5
v 17.5 14.4 -2.6
v 17.5 14.5 -2.6
v 17.4 14.4 -2.5
v 17.4 14.4 -2.6
v 17.5 14.4 -2.6
v 17.5 14.4 -2.5
v 17.4 14.5 -2.5
v 17.4 14.4 -2.5
v 17.5 14.4 -2.5
v 17.5 14.5 -2.5
v 17.5 14.5 -2.6
v 17.5 14.4 -2.6
v 17.4 14.4 -2.6
v 17.4 14.5 -2.6
v 17.5 14.4 -2.6
v 17.5 14.3 -2.6
v 17.5 14.3 -2.5
v 17.5 14.4 -2.5
v 17.6 14.4 -2.5
v 17.6 14.3 -2.5
v 17.6 14.3 -2.6
v 17.6 14.4 -2.6
v 17.5 14.4 -2.6
v 17.5 14.4 -2.5
v 17.6 14.4 -2.5
v 17.6 14.4 -2.6
v 17.5 14.4 -2.5
v 17.5 14.3 -2.5
v 17.6 14.3 -2.5
v 17.6 14.4 -2.5
v 17.6 14.4 -2.6
v 17.6 14.3 -2.6
v 17.5 14.3 -2.6
v 17.5 14.4 -2.6
v 17.5 14.3 -2.6
v 17.5 14.2 -2.6
v 17.5 14.2 -2.5
v 17.5 14.3 -2.5
v 17.6 14.3 -2.5
v 17.6 14.2 -2.5
v 17.6 14.2 -2.6
v 17.6 14.3 -2.6
v 17.5 14.3 -2.5
v 17.5 14.2 -2.5
v 17.6 14.2 -2.5
v 17.6 14.3 -2.5
v 17.6 14.3 -2.6
v 17.6 14.2 -2.6
v 17.5 14.2 -2.6
v 17.5 14.3 -2.6
v 17.5 14.2 -2.6
v 17.5 14.1 -2.6
v 17.5 14.1 -2.5
v 17.5 14.2 -2.5
v 17.6 14.2 -2.5
v 17.6 14.1 -2.5
v 17.6 14.1 -2.6
v 17.6 14.2 -2.6
v 17.5 14.1 -2.5
v 17.5 14.1 -2.6
v 17.6 14.1 -2.6
v 17.6 14.1 -2.5
v 17.5 14.2 -2.5
v 17.5 14.1 -2.5
v 17.6 14.1 -2.5
v 17.6 14.2 -2.5
v 17.6 14.2 -2.6
v 17.6 14.1 -2.6
v 17.5 14.1 -2.6
v 17.5 14.2 -2.6
v 17.6 14.1 -2.6
v 17.6 14 -2.6
v 17.6 14 -2.5
v 17.6 14.1 -2.5
v 17.7 14.1 -2.5
v 17.7 14 -2.5
v 17.7 14 -2.6
v 17.7 14.1 -2.6
v 17.6 14.1 -2.6
v 17.6 14.1 -2.5
v 17.7 14.1 -2.5
v 17.7 14.1 -2.6
v 17.6 14.1 -2.5
v 17.6 14 -2.5
v 17.7 14 -2.5
v 17.7 14.1 -2.5
v 17.7 14.1 -2.6
v 17.7 14 -2.6
v 17.6 14 -2.6
v 17.6 14.1 -2.6
v 17.6 14 -2.6
v 17.6 13.9 -2.6
v 17.6 13.9 -2.5
v 17.6 14 -2.5
v 17.7 14 -2.5
v 17.7 13.9 -2.5
v 17.7 13.9 -2.6
v 17.7 14 -2.6
v 17.6 14 -2.5
v 17.6 13.9 -2.5
v 17.7 13.9 -2.5
v 17.7 14 -2.5
v 17.7 14 -2.6
v 17.7 13.9 -2.6
v 17.6 13.9 -2.6
v 17.6 14 -2.6
v 17.6 13.9 -2.6
v 17.6 13.8 -2.6
v 17.6 13.8 -2.5
v 17.6 13.9 -2.5
v 17.7 13.9 -2.5
v 17.7 13.8 -2.5
v 17.7 13.8 -2.6
v 17.7 13.9 -2.6
v 17.6 13.8 -2.5
v 17.6 13.8 -2.6
v 17.7 13.8 -2.6
v 17.7 13.8 -2.5
v 17.6 13.9 -2.5
v 17.6 13.8 -2.5
v 17.7 13.8 -2.5
v 17.7 13.9 -2.5
v 17.7 13.9 -2.6
v 17.7 13.8 -2.6
v 17.6 13.8 -2.6
v 17.6 13.9 -2.6
v 17.7 13.8 -2.6
v 17.7 13.7 -2.6
v 17.7 13.7 -2.5
v 17.7 13.8 -2.5
v 17.8 13.8 -2.5
v 17.8 13.7 -2.5
v 17.8 13.7 -2.6
v 17.8 13.8 -2.6
v 17.7 13.8 -2.6
v 17.7 13.8 -2.5
v 17.8 13.8 -2.5
v 17.8 13.8 -2.6
v 17.7 13.8 -2.5
v 17.7 13.7 -2.5
v 17.8 13.7 -2.5
v 17.8 13.8 -2.5
v 17.8 13.8 -2.6
v 17.8 13.7 -2.6
v 17.7 13.7 -2.6
v 17.7 13.8 -2.6
v 17.7 13.7 -2.6
v 17.7 13.6 -2.6
v 17.7 13.6 -2.5
v 17.7 13.7 -2.5
v 17.8 13.7 -2.5
v 17.8 13.6 -2.5
v 17.8 13.6 -2.6
v 17.8 13.7 -2.6
v 17.7 13.6 -2.5
v 17.7 13.6 -2.6
v 17.8 13.6 -2.6
v 17.8 13.6 -2.5
v 17.7 13.7 -2.5
v 17.7 13.6 -2.5
v 17.8 13.6 -2.5
v 17.8 13.7 -2.5
v 17.8 13.7 -2.6
v 17.8 13.6 -2.6
v 17.7 13.6 -2.6
v 17.7 13.7 -2.6
v 17.8 13.6 -2.6
v 17.8 13.5 -2.6
v 17.8 13.5 -2.5
v 17.8 13.6 -2.5
v 17.9 13.6 -2.5
v 17.9 13.5 -2.5
v 17.9 13.5 -2.6
v 17.9 13.6 -2.6
v 17.8 13.6 -2.6
v 17.8 13.6 -2.5
v 17.9 13.6 -2.5
v 17.9 13.6 -2.6
v 17.8 13.6 -2.5
v 17.8 13.5 -2.5
v 17.9 13.5 -2.5
v 17.9 13.6 -2.5
v 17.9 13.6 -2.6
v 17.9 13.5 -2.6
v 17.8 13.5 -2.6
v 17.8 13.6 -2.6
v 17.8 13.5 -2.6
v 17.8 13.4 -2.6
v 17.8 13.4 -2.5
v 17.8 13.5 -2.5
v 17.9 13.5 -2.5
v 17.9 13.4 -2.5
v 17.9 13.4 -2.6
v 17.9 13.5 -2.6
v 17.8 13.5 -2.5
v 17.8 13.4 -2.5
v 17.9 13.4 -2.5
v 17.9 13.5 -2.5
v 17.9 13.5 -2.6
v 17.9 13.4 -2.6
v 17.8 13.4 -2.6
v 17.8 13.5 -2.6
v 17.8 13.4 -2.6
v 17.8 13.3 -2.6
v 17.8 13.3 -2.5
v 17.8 13.4 -2.5
v 17.9 13.4 -2.5
v 17.9 13.3 -2.5
v 17.9 13.3 -2.6
v 17.9 13.4 -2.6
v 17.8 13.3 -2.5
v 17.8 13.3 -2.6
v 17.9 13.3 -2.6
v 17.9 13.3 -2.5
v 17.8 13.4 -2.5
v 17.8 13.3 -2.5
v 17.9 13.3 -2.5
v 17.9 13.4 -2.5
v 17.9 13.4 -2.6
v 17.9 13.3 -2.6
v 17.8 13.3 -2.6
v 17.8 13.4 -2.6
v 17.9 13.3 -2.6
v 17.9 13.2 -2.6
v 17.9 13.2 -2.5
v 17.9 13.3 -2.5
v 18 13.3 -2.5
v 18 13.2 -2.5
v 18 13.2 -2.6
v 18 13.3 -2.6
v 17.9 13.3 -2.6
v 17.9 13.3 -2.5
v 18 13.3 -2.5
v 18 13.3 -2.6
v 17.9 13.3 -2.5
v 17.9 13.2 -2.5
v 18 13.2 -2.5
v 18 13.3 -2.5
v 18 13.3 -2.6
v 18 13.2 -2.6
v 17.9 13.2 -2.6
v 17.9 13.3 -2.6
v 17.9 13.2 -2.6
v 17.9 13.1 -2.6
v 17.9 13.1 -2.5
v 17.9 13.2 -2.5
v 18 13.2 -2.5
v 18 13.1 -2.5
v 18 13.1 -2.6
v 18 13.2 -2.6
v 17.9 13.2 -2.5
v 17.9 13.1 -2.5
v 18 13.1 -2.5
v 18 13.2 -2.5
v 18 13.2 -2.6
v 18 13.1 -2.6
v 17.9 13.1 -2.6
v 17.9 13.2 -2.6
v 17.9 13.1 -2.6
v 17.9 13 -2.6
v 17.9 13 -2.5
v 17.9 13.1 -2.5
v 18 13.1 -2.5
v 18 13 -2.5
v 18 13 -2.6
v 18 13.1 -2.6
v 17.9 13 -2.5
v 17.9 13 -2.6
v 18 13 -2.6
v 18 13 -2.5
v 17.9 13.1 -2.5
v 17.9 13 -2.5
v 18 13 -2.5
v 18 13.1 -2.5
v 18 13.1 -2.6
v 18 13 -2.6
v 17.9 13 -2.6
v 17.9 13.1 -2.6
v 18 13 -2.6
v 18 12.9 -2.6
v 18 12.9 -2.5
v 18 13 -2.5
v 18.1 13 -2.5
v 18.1 12.9 -2.5
v 18.1 12.9 -2.6
v 18.1 13 -2.6
v 18 13 -2.6
v 18 13 -2.5
v 18.1 13 -2.5
v 18.1 13 -2.6
v 18 13 -2.5
v 18 12.9 -2.5
v 18.1 12.9 -2.5
v 18.1 13 -2.5
v 18.1 13 -2.6
v 18.1 12.9 -2.6
v 18 12.9 -2.6
v 18 13 -2.6
v 18 12.9 -2.6
v 18 12.8 -2.6
v 18 12.8 -2.5
v 18 12.9 -2.5
v 18.1 12.9 -2.5
v 18.1 12.8 -2.5
v 18.1 12.8 -2.6
v 18.1 12.9 -2.6
v 18 12.9 -2.5
v 18 12.8 -2.5
v 18.1 12.8 -2.5
v 18.1 12.9 -2.5
v 18.1 12.9 -2.6
v 18.1 12.8 -2.6
v 18 12.8 -2.6
v 18 12.9 -2.6
v 18 12.8 -2.6
v 18 12.7 -2.6
v 18 12.7 -2.5
v 18 12.8 -2.5
v 18.1 12.8 -2.5
v 18.1 12.7 -2.5
v 18.1 12.7 -2.6
v 18.1 12.8 -2.6
v 18 12.7 -2.5
v 18 12.7 -2.6
v 18.1 12.7 -2.6
v 18.1 12.7 -2.5
v 18 12.8 -2.5
v 18 12.7 -2.5
v 18.1 12.7 -2.5
v 18.1 12.8 -2.5
v 18.1 12.8 -2.6
v 18.1 12.7 -2.6
v 18 12.7 -2.6
v 18 12.8 -2.6
v 18.1 12.7 -2.6
v 18.1 12.6 -2.6
v 18.1 12.6 -2.5
v 18.1 12.7 -2.5
v 18.2 12.7 -2.5
v 18.2 12.6 -2.5
v 18.2 12.6 -2.6
v 18.2 12.7 -2.6
v 18.1 12.7 -2.6
v 18.1 12.7 -2.5
v 18.2 12.7 -2.5
v 18.2 12.7 -2.6
v 18.1 12.7 -2.5
v 18.1 12.6 -2.5
v 18.2 12.6 -2.5
v 18.2 12.7 -2.5
v 18.2 12.7 -2.6
v 18.2 12.6 -2.6
v 18.1 12.6 -2.6
v 18.1 12.7 -2.6
v 18.1 12.6 -2.6
v 18.1 12.5 -2.6
v 18.1 12.5 -2.5
v 18.1 12.6 -2.5
v 18.2 12.6 -2.5
v 18.2 12.5 -2.5
v 18.2 12.5 -2.6
v 18.2 12.6 -2.6
v 18.1 12.6 -2.5
v 18.1 12.5 -2.5
v 18.2 12.5 -2.5
v 18.2 12.6 -2.5
v 18.2 12.6 -2.6
v 18.2 12.5 -2.6
v 18.1 12.5 -2.6
v 18.1 12.6 -2.6
v 18.1 12.5 -2.6
v 18.1 12.4 -2.6
v 18.1 12.4 -2.5
v 18.1 12.5 -2.5
v 18.2 12.5 -2.5
v 18.2 12.4 -2.5
v 18.2 12.4 -2.6
v 18.2 12.5 -2.6
v 18.1 12.4 -2.5
v 18.1 12.4 -2.6
v 18.2 12.4 -2.6
v 18.2 12.4 -2.5
v 18.1 12.5 -2.5
v 18.1 12.4 -2.5
v 18.2 12.4 -2.5
v 18.2 12.5 -2.5
v 18.2 12.5 -2.6
v 18.2 12.4 -2.6
v 18.1 12.4 -2.6
v 18.1 12.5 -2.6
v 18.2 12.4 -2.6
v 18.2 12.3 -2.6
v 18.2 12.3 -2.5
v 18.2 12.4 -2.5
v 18.3 12.4 -2.5
v 18.3 12.3 -2.5
v 18.3 12.3 -2.6
v 18.3 12.4 -2.6
v 18.2 12.4 -2.6
v 18.2 12.4 -2.5
v 18.3 12.4 -2.5
v 18.3 12.4 -2.6
v 18.2 12.4 -2.5
v 18.2 12.3 -2.5
v 18.3 12.3 -2.5
v 18.3 12.4 -2.5
v 18.3 12.4 -2.6
v 18.3 12.3 -2.6
v 18.2 12.3 -2.6
v 18.2 12.4 -2.6
v 18.2 12.3 -2.6
v 18.2 12.2 -2.6
v 18.2 12.2 -2.5
v 18.2 12.3 -2.5
v 18.3 12.3 -2.5
v 18.3 12.2 -2.5
v 18.3 12.2 -2.6
v 18.3 12.3 -2.6
v 18.2 12.2 -2.5
v 18.2 12.2 -2.6
v 18.3 12.2 -2.6
v 18.3 12.2 -2.5
v 18.2 12.3 -2.5
v 18.2 12.2 -2.5
v 18.3 12.2 -2.5
v 18.3 12.3 -2.5
v 18.3 12.3 -2.6
v 18.3 12.2 -2.6
v 18.2 12.2 -2.6
v 18.2 12.3 -2.6
v 18.3 12.2 -2.6
v 18.3 12.1 -2.6
v 18.3 12.1 -2.5
v 18.3 12.2 -2.5
v 18.4 12.2 -2.5
v 18.4 12.1 -2.5
v 18.4 12.1 -2.6
v 18.4 12.2 -2.6
v 18.3 12.2 -2.6
v 18.3 12.2 -2.5
v 18.4 12.2 -2.5
v 18.4 12.2 -2.6
v 18.3 12.2 -2.5
v 18.3 12.1 -2.5
v 18.4 12.1 -2.5
v 18.4 12.2 -2.5
v 18.4 12.2 -2.6
v 18.4 12.1 -2.6
v 18.3 12.1 -2.6
v 18.3 12.2 -2.6
v 18.3 12.1 -2.6
v 18.3 12 -2.6
v 18.3 12 -2.5
v 18.3 12.1 -2.5
v 18.4 12.1 -2.5
v 18.4 12 -2.5
v 18.4 12 -2.6
v 18.4 12.1 -2.6
v 18.3 12.1 -2.5
v 18.3 12 -2.5
v 18.4 12 -2.5
v 18.4 12.1 -2.5
v 18.4 12.1 -2.6
v 18.4 12 -2.6
v 18.3 12 -2.6
v 18.3 12.1 -2.6
v 18.3 12 -2.6
v 18.3 11.9 -2.6
v 18.3 11.9 -2.5
v 18.3 12 -2.5
v 18.4 12 -2.5
v 18.4 11.9 -2.5
v 18.4 11.9 -2.6
v 18.4 12 -2.6
v 18.3 11.9 -2.5
v 18.3 11.9 -2.6
v 18.4 11.9 -2.6
v 18.4 11.9 -2.5
v 18.3 12 -2.5
v 18.3 11.9 -2.5
v 18.4 11.9 -2.5
v 18.4 12 -2.5
v 18.4 12 -2.6
v 18.4 11.9 -2.6
v 18.3 11.9 -2.6
v 18.3 12 -2.6
v 18.4 11.9 -2.6
v 18.4 11.8 -2.6
v 18.4 11.8 -2.5
v 18.4 11.9 -2.5
v 18.5 11.9 -2.5
v 18.5 11.8 -2.5
v 18.5 11.8 -2.6
v 18.5 11.9 -2.6
v 18.4 11.9 -2.6
v 18.4 11.9 -2.5
v 18.5 11.9 -2.5
v 18.5 11.9 -2.6
v 18.4 11.9 -2.5
v 18.4 11.8 -2.5
v 18.5 11.8 -2.5
v 18.5 11.9 -2.5
v 18.5 11.9 -2.6
v 18.5 11.8 -2.6
v 18.4 11.8 -2.6
v 18.4 11.9 -2.6
v 13.4 11.8 -2.6
v 13.4 11.7 -2.6
v 13.4 11.7 -2.5
v 13.4 11.8 -2.5
v 13.4 11.8 -2.6
v 13.4 11.8 -2.5
v 13.5 11.8 -2.5
v 13.5 11.8 -2.6
v 13.4 11.7 -2.5
v 13.4 11.7 -2.6
v 13.5 11.7 -2.6
v 13.5 11.7 -2.5
v 13.4 11.8 -2.5
v 13.4 11.7 -2.5
v 13.5 11.7 -2.5
v 13.5 11.8 -2.5
v 13.5 11.8 -2.6
v 13.5 11.7 -2.6
v 13.4 11.7 -2.6
v 13.4 11.8 -2.6
v 13.5 11.8 -2.6
v 13.5 11.8 -2.5
v 13.6 11.8 -2.5
v 13.6 11.8 -2.6
v 13.5 11.7 -2.5
v 13.5 11.7 -2.6
v 13.6 11.7 -2.6
v 13.6 11.7 -2.5
v 13.5 11.8 -2.5
v 13.5 11.7 -2.5
v 13.6 11.7 -2.5
v 13.6 11.8 -2.5
v 13.6 11.8 -2.6
v 13.6 11.7 -2.6
v 13.5 11.7 -2.6
v 13.5 11.8 -2.6
v 13.6 11.8 -2.6
v 13.6 11.8 -2.5
v 13.7 11.8 -2.5
v 13.7 11.8 -2.6
v 13.6 11.7 -2.5
v 13.6 11.7 -2.6
v 13.7 11.7 -2.6
v 13.7 11.7 -2.5
v 13.6 11.8 -2.5
v 13.6 11.7 -2.5
v 13.7 11.7 -2.5
v 13.7 11.8 -2.5
v 13.7 11.8 -2.6
v 13.7 11.7 -2.6
v 13.6 11.7 -2.6
v 13.6 11.8 -2.6
v 13.7 11.8 -2.6
v 13.7 11.8 -2.5
v 13.8 11.8 -2.5
v 13.8 11.8 -2.6
v 13.7 11.7 -2.5
v 13.7 11.7 -2.6
v 13.8 11.7 -2.6
v 13.8 11.7 -2.5
v 13.7 11.8 -2.5
v 13.7 11.7 -2.5
v 13.8 11.7 -2.5
v 13.8 11.8 -2.5
v 13.8 11.8 -2.6
v 13.8 11.7 -2.6
v 13.7 11.7 -2.6
v 13.7 11.8 -2.6
v 13.8 11.8 -2.6
v 13.8 11.8 -2.5
v 13.9 11.8 -2.5
v 13.9 11.8 -2.6
v 13.8 11.7 -2.5
v 13.8 11.7 -2.6
v 13.9 11.7 -2.6
v 13.9 11.7 -2.5
v 13.8 11.8 -2.5
v 13.8 11.7 -2.5
v 13.9 11.7 -2.5
v 13.9 11.8 -2.5
v 13.9 11.8 -2.6
v 13.9 11.7 -2.6
v 13.8 11.7 -2.6
v 13.8 11.8 -2.6
v 13.9 11.8 -2.6
v 13.9 11.8 -2.5
v 14 11.8 -2.5
v 14 11.8 -2.6
v 13.9 11.7 -2.5
v 13.9 11.7 -2.6
v 14 11.7 -2.6
v 14 11.7 -2.5
v 13.9 11.8 -2.5
v 13.9 11.7 -2.5
v 14 11.7 -2.5
v 14 11.8 -2.5
v 14 11.8 -2.6
v 14 11.7 -2.6
v 13.9 11.7 -2.6
v 13.9 11.8 -2.6
v 14 11.8 -2.6
v 14 11.8 -2.5
v 14.1 11.8 -2.5
v 14.1 11.8 -2.6
v 14 11.7 -2.5
v 14 11.7 -2.6
v 14.1 11.7 -2.6
v 14.1 11.7 -2.5
v 14 11.8 -2.5
v 14 11.7 -2.5
v 14.1 11.7 -2.5
v 14.1 11.8 -2.5
v 14.1 11.8 -2.6
v 14.1 11.7 -2.6
v 14 11.7 -2.6
v 14 11.8 -2.6
v 14.1 11.8 -2.6
v 14.1 11.8 -2.5
v 14.2 11.8 -2.5
v 14.2 11.8 -2.6
v 14.1 11.7 -2.5
v 14.1 11.7 -2.6
v 14.2 11.7 -2.6
v 14.2 11.7 -2.5
v 14.1 11.8 -2.5
v 14.1 11.7 -2.5
v 14.2 11.7 -2.5
v 14.2 11.8 -2.5
v 14.2 11.8 -2.6
v 14.2 11.7 -2.6
v 14.1 11.7 -2.6
v 14.1 11.8 -2.6
v 14.2 11.8 -2.6
v 14.2 11.8 -2.5
v 14.3 11.8 -2.5
v 14.3 11.8 -2.6
v 14.2 11.7 -2.5
v 14.2 11.7 -2.6
v 14.3 11.7 -2.6
v 14.3 11.7 -2.5
v 14.2 11.8 -2.5
v 14.2 11.7 -2.5
v 14.3 11.7 -2.5
v 14.3 11.8 -2.5
v 14.3 11.8 -2.6
v 14.3 11.7 -2.6
v 14.2 11.7 -2.6
v 14.2 11.8 -2.6
v 14.4 11.8 -2.5
v 14.4 11.7 -2.5
v 14.4 11.7 -2.6
v 14.4 11.8 -2.6
v 14.3 11.8 -2.6
v 14.3 11.8 -2.5
v 14.4 11.8 -2.5
v 14.4 11.8 -2.6
v 14.3 11.7 -2.5
v 14.3 11.7 -2.6
v 14.4 11.7 -2.6
v 14.4 11.7 -2.5
v 14.3 11.8 -2.5
v 14.3 11.7 -2.5
v 14.4 11.7 -2.5
v 14.4 11.8 -2.5
v 14.4 11.8 -2.6
v 14.4 11.7 -2.6
v 14.3 11.7 -2.6
v 14.3 11.8 -2.6
v 15.9 11.8 -2.6
v 15.9 11.7 -2.6
v 15.9 11.7 -2.5
v 15.9 11.8 -2.5
v 15.9 11.8 -2.6
v 15.9 11.8 -2.5
v 16 11.8 -2.5
v 16 11.8 -2.6
v 15.9 11.7 -2.5
v 15.9 11.7 -2.6
v 16 11.7 -2.6
v 16 11.7 -2.5
v 15.9 11.8 -2.5
v 15.9 11.7 -2.5
v 16 11.7 -2.5
v 16 11.8 -2.5
v 16 11.8 -2.6
v 16 11.7 -2.6
v 15.9 11.7 -2.6
v 15.9 11.8 -2.6
v 16 11.8 -2.6
v 16 11.8 -2.5
v 16.1 11.8 -2.5
v 16.1 11.8 -2.6
v 16 11.7 -2.5
v 16 11.7 -2.6
v 16.1 11.7 -2.6
v 16.1 11.7 -2.5
v 16 11.8 -2.5
v 16 11.7 -2.5
v 16.1 11.7 -2.5
v 16.1 11.8 -2.5
v 16.1 11.8 -2.6
v 16.1 11.7 -2.6
v 16 11.7 -2.6
v 16 11.8 -2.6
v 16.1 11.8 -2.6
v 16.1 11.8 -2.5
v 16.2 11.8 -2.5
v 16.2 11.8 -2.6
v 16.1 11.7 -2.5
v 16.1 11.7 -2.6
v 16.2 11.7 -2.6
v 16.2 11.7 -2.5
v 16.1 11.8 -2.5
v 16.1 11.7 -2.5
v 16.2 11.7 -2.5
v 16.2 11.8 -2.5
v 16.2 11.8 -2.6
v 16.2 11.7 -2.6
v 16.1 11.7 -2.6
v 16.1 11.8 -2.6
v 16.2 11.8 -2.6
v 16.2 11.8 -2.5
v 16.3 11.8 -2.5
v 16.3 11.8 -2.6
v 16.2 11.7 -2.5
v 16.2 11.7 -2.6
v 16.3 11.7 -2.6
v 16.3 11.7 -2.5
v 16.2 11.8 -2.5
v 16.2 11.7 -2.5
v 16.3 11.7 -2.5
v 16.3 11.8 -2.5
v 16.3 11.8 -2.6
v 16.3 11.7 -2.6
v 16.2 11.7 -2.6
v 16.2 11.8 -2.6
v 16.3 11.8 -2.6
v 16.3 11.8 -2.5
v 16.4 11.8 -2.5
v 16.4 11.8 -2.6
v 16.3 11.7 -2.5
v 16.3 11.7 -2.6
v 16.4 11.7 -2.6
v 16.4 11.7 -2.5
v 16.3 11.8 -2.5
v 16.3 11.7 -2.5
v 16.4 11.7 -2.5
v 16.4 11.8 -2.5
v 16.4 11.8 -2.6
v 16.4 11.7 -2.6
v 16.3 11.7 -2.6
v 16.3 11.8 -2.6
v 16.4 11.8 -2.6
v 16.4 11.8 -2.5
v 16.5 11.8 -2.5
v 16.5 11.8 -2.6
v 16.4 11.7 -2.5
v 16.4 11.7 -2.6
v 16.5 11.7 -2.6
v 16.5 11.7 -2.5
v 16.4 11.8 -2.5
v 16.4 11.7 -2.5
v 16.5 11.7 -2.5
v 16.5 11.8 -2.5
v 16.5 11.8 -2.6
v 16.5 11.7 -2.6
v 16.4 11.7 -2.6
v 16.4 11.8 -2.6
v 16.5 11.8 -2.6
v 16.5 11.8 -2.5
v 16.6 11.8 -2.5
v 16.6 11.8 -2.6
v 16.5 11.7 -2.5
v 16.5 11.7 -2.6
v 16.6 11.7 -2.6
v 16.6 11.7 -2.5
v 16.5 11.8 -2.5
v 16.5 11.7 -2.5
v 16.6 11.7 -2.5
v 16.6 11.8 -2.5
v 16.6 11.8 -2.6
v 16.6 11.7 -2.6
v 16.5 11.7 -2.6
v 16.5 11.8 -2.6
v 16.6 11.8 -2.6
v 16.6 11.8 -2.5
v 16.7 11.8 -2.5
v 16.7 11.8 -2.6
v 16.6 11.7 -2.5
v 16.6 11.7 -2.6
v 16.7 11.7 -2.6
v 16.7 11.7 -2.5
v 16.6 11.8 -2.5
v 16.6 11.7 -2.5
v 16.7 11.7 -2.5
v 16.7 11.8 -2.5
v 16.7 11.8 -2.6
v 16.7 11.7 -2.6
v 16.6 11.7 -2.6
v 16.6 11.8 -2.6
v 16.7 11.8 -2.6
v 16.7 11.8 -2.5
v 16.8 11.8 -2.5
v 16.8 11.8 -2.6
v 16.7 11.7 -2.5
v 16.7 11.7 -2.6
v 16.8 11.7 -2.6
v 16.8 11.7 -2.5
v 16.7 11.8 -2.5
v 16.7 11.7 -2.5
v 16.8 11.7 -2.5
v 16.8 11.8 -2.5
v 16.8 11.8 -2.6
v 16.8 11.7 -2.6
v 16.7 11.7 -2.6
v 16.7 11.8 -2.6
v 16.8 11.8 -2.6
v 16.8 11.8 -2.5
v 16.9 11.8 -2.5
v 16.9 11.8 -2.6
v 16.8 11.7 -2.5
v 16.8 11.7 -2.6
v 16.9 11.7 -2.6
v 16.9 11.7 -2.5
v 16.8 11.8 -2.5
v 16.8 11.7 -2.5
v 16.9 11.7 -2.5
v 16.9 11.8 -2.5
v 16.9 11.8 -2.6
v 16.9 11.7 -2.6
v 16.8 11.7 -2.6
v 16.8 11.8 -2.6
v 16.9 11.8 -2.6
v 16.9 11.8 -2.5
v 17 11.8 -2.5
v 17 11.8 -2.6
v 16.9 11.7 -2.5
v 16.9 11.7 -2.6
v 17 11.7 -2.6
v 17 11.7 -2.5
v 16.9 11.8 -2.5
v 16.9 11.7 -2.5
v 17 11.7 -2.5
v 17 11.8 -2.5
v 17 11.8 -2.6
v 17 11.7 -2.6
v 16.9 11.7 -2.6
v 16.9 11.8 -2.6
v 17 11.8 -2.6
v 17 11.8 -2.5
v 17.1 11.8 -2.5
v 17.1 11.8 -2.6
v 17 11.7 -2.5
v 17 11.7 -2.6
v 17.1 11.7 -2.6
v 17.1 11.7 -2.5
v 17 11.8 -2.5
v 17 11.7 -2.5
v 17.1 11.7 -2.5
v 17.1 11.8 -2.5
v 17.1 11.8 -2.6
v 17.1 11.7 -2.6
v 17 11.7 -2.6
v 17 11.8 -2.6
v 17.1 11.8 -2.6
v 17.1 11.8 -2.5
v 17.2 11.8 -2.5
v 17.2 11.8 -2.6
v 17.1 11.7 -2.5
v 17.1 11.7 -2.6
v 17.2 11.7 -2.6
v 17.2 11.7 -2.5
v 17.1 11.8 -2.5
v 17.1 11.7 -2.5
v 17.2 11.7 -2.5
v 17.2 11.8 -2.5
v 17.2 11.8 -2.6
v 17.2 11.7 -2.6
v 17.1 11.7 -2.6
v 17.1 11.8 -2.6
v 17.2 11.8 -2.6
v 17.2 11.8 -2.5
v 17.3 11.8 -2.5
v 17.3 11.8 -2.6
v 17.2 11.7 -2.5
v 17.2 11.7 -2.6
v 17.3 11.7 -2.6
v 17.3 11.7 -2.5
v 17.2 11.8 -2.5
v 17.2 11.7 -2.5
v 17.3 11.7 -2.5
v 17.3 11.8 -2.5
v 17.3 11.8 -2.6
v 17.3 11.7 -2.6
v 17.2 11.7 -2.6
v 17.2 11.8 -2.6
v 17.3 11.8 -2.6
v 17.3 11.8 -2.5
v 17.4 11.8 -2.5
v 17.4 11.8 -2.6
v 17.3 11.7 -2.5
v 17.3 11.7 -2.6
v 17.4 11.7 -2.6
v 17.4 11.7 -2.5
v 17.3 11.8 -2.5
v 17.3 11.7 -2.5
v 17.4 11.7 -2.5
v 17.4 11.8 -2.5
v 17.4 11.8 -2.6
v 17.4 11.7 -2.6
v 17.3 11.7 -2.6
v 17.3 11.8 -2.6
v 17.4 11.8 -2.6
v 17.4 11.8 -2.5
v 17.5 11.8 -2.5
v 17.5 11.8 -2.6
v 17.4 11.7 -2.5
v 17.4 11.7 -2.6
v 17.5 11.7 -2.6
v 17.5 11.7 -2.5
v 17.4 11.8 -2.5
v 17.4 11.7 -2.5
v 17.5 11.7 -2.5
v 17.5 11.8 -2.5
v 17.5 11.8 -2.6
v 17.5 11.7 -2.6
v 17.4 11.7 -2.6
v 17.4 11.8 -2.6
v 17.5 11.8 -2.6
v 17.5 11.8 -2.5
v 17.6 11.8 -2.5
v 17.6 11.8 -2.6
v 17.5 11.7 -2.5
v 17.5 11.7 -2.6
v 17.6 11.7 -2.6
v 17.6 11.7 -2.5
v 17.5 11.8 -2.5
v 17.5 11.7 -2.5
v 17.6 11.7 -2.5
v 17.6 11.8 -2.5
v 17.6 11.8 -2.6
v 17.6 11.7 -2.6
v 17.5 11.7 -2.6
v 17.5 11.8 -2.6
v 17.6 11.8 -2.6
v 17.6 11.8 -2.5
v 17.7 11.8 -2.5
v 17.7 11.8 -2.6
v 17.6 11.7 -2.5
v 17.6 11.7 -2.6
v 17.7 11.7 -2.6
v 17.7 11.7 -2.5
v 17.6 11.8 -2.5
v 17.6 11.7 -2.5
v 17.7 11.7 -2.5
v 17.7 11.8 -2.5
v 17.7 11.8 -2.6
v 17.7 11.7 -2.6
v 17.6 11.7 -2.6
v 17.6 11.8 -2.6
v 17.7 11.8 -2.6
v 17.7 11.8 -2.5
v 17.8 11.8 -2.5
v 17.8 11.8 -2.6
v 17.7 11.7 -2.5
v 17.7 11.7 -2.6
v 17.8 11.7 -2.6
v 17.8 11.7 -2.5
v 17.7 11.8 -2.5
v 17.7 11.7 -2.5
v 17.8 11.7 -2.5
v 17.8 11.8 -2.5
v 17.8 11.8 -2.6
v 17.8 11.7 -2.6
v 17.7 11.7 -2.6
v 17.7 11.8 -2.6
v 17.8 11.8 -2.6
v 17.8 11.8 -2.5
v 17.9 11.8 -2.5
v 17.9 11.8 -2.6
v 17.8 11.7 -2.5
v 17.8 11.7 -2.6
v 17.9 11.7 -2.6
v 17.9 11.7 -2.5
v 17.8 11.8 -2.5
v 17.8 11.7 -2.5
v 17.9 11.7 -2.5
v 17.9 11.8 -2.5
v 17.9 11.8 -2.6
v 17.9 11.7 -2.6
v 17.8 11.7 -2.6
v 17.8 11.8 -2.6
v 17.9 11.8 -2.6
v 17.9 11.8 -2.5
v 18 11.8 -2.5
v 18 11.8 -2.6
v 17.9 11.7 -2.5
v 17.9 11.7 -2.6
v 18 11.7 -2.6
v 18 11.7 -2.5
v 17.9 11.8 -2.5
v 17.9 11.7 -2.5
v 18 11.7 -2.5
v 18 11.8 -2.5
v 18 11.8 -2.6
v 18 11.7 -2.6
v 17.9 11.7 -2.6
v 17.9 11.8 -2.6
v 18 11.8 -2.6
v 18 11.8 -2.5
v 18.1 11.8 -2.5
v 18.1 11.8 -2.6
v 18 11.7 -2.5
v 18 11.7 -2.6
v 18.1 11.7 -2.6
v 18.1 11.7 -2.5
v 18 11.8 -2.5
v 18 11.7 -2.5
v 18.1 11.7 -2.5
v 18.1 11.8 -2.5
v 18.1 11.8 -2.6
v 18.1 11.7 -2.6
v 18 11.7 -2.6
v 18 11.8 -2.6
v 18.1 11.8 -2.6
v 18.1 11.8 -2.5
v 18.2 11.8 -2.5
v 18.2 11.8 -2.6
v 18.1 11.7 -2.5
v 18.1 11.7 -2.6
v 18.2 11.7 -2.6
v 18.2 11.7 -2.5
v 18.1 11.8 -2.5
v 18.1 11.7 -2.5
v 18.2 11.7 -2.5
v 18.2 11.8 -2.5
v 18.2 11.8 -2.6
v 18.2 11.7 -2.6
v 18.1 11.7 -2.6
v 18.1 11.8 -2.6
v 18.2 11.8 -2.6
v 18.2 11.8 -2.5
v 18.3 11.8 -2.5
v 18.3 11.8 -2.6
v 18.2 11.7 -2.5
v 18.2 11.7 -2.6
v 18.3 11.7 -2.6
v 18.3 11.7 -2.5
v 18.2 11.8 -2.5
v 18.2 11.7 -2.5
v 18.3 11.7 -2.5
v 18.3 11.8 -2.5
v 18.3 11.8 -2.6
v 18.3 11.7 -2.6
v 18.2 11.7 -2.6
v 18.2 11.8 -2.6
v 18.3 11.8 -2.6
v 18.3 11.8 -2.5
v 18.4 11.8 -2.5
v 18.4 11.8 -2.6
v 18.3 11.7 -2.5
v 18.3 11.7 -2.6
v 18.4 11.7 -2.6
v 18.4 11.7 -2.5
v 18.3 11.8 -2.5
v 18.3 11.7 -2.5
v 18.4 11.7 -2.5
v 18.4 11.8 -2.5
v 18.4 11.8 -2.6
v 18.4 11.7 -2.6
v 18.3 11.7 -2.6
v 18.3 11.8 -2.6
v 18.5 11.8 -2.5
v 18.5 11.7 -2.5
v 18.5 11.7 -2.6
v 18.5 11.8 -2.6
v 18.4 11.8 -2.5
v 18.4 11.7 -2.5
v 18.5 11.7 -2.5
v 18.5 11.8 -2.5
v 18.5 11.8 -2.6
v 18.5 11.7 -2.6
v 18.4 11.7 -2.6
v 18.4 11.8 -2.6
v 18.4 11.7 -2.6
v 18.4 11.6 -2.6
v 18.4 11.6 -2.5
v 18.4 11.7 -2.5
v 18.5 11.7 -2.5
v 18.5 11.6 -2.5
v 18.5 11.6 -2.6
v 18.5 11.7 -2.6
v 18.4 11.6 -2.5
v 18.4 11.6 -2.6
v 18.5 11.6 -2.6
v 18.5 11.6 -2.5
v 18.4 11.7 -2.5
v 18.4 11.6 -2.5
v 18.5 11.6 -2.5
v 18.5 11.7 -2.5
v 18.5 11.7 -2.6
v 18.5 11.6 -2.6
v 18.4 11.6 -2.6
v 18.4 11.7 -2.6
v 18.5 11.6 -2.6
v 18.5 11.5 -2.6
v 18.5 11.5 -2.5
v 18.5 11.6 -2.5
v 18.6 11.6 -2.5
v 18.6 11.5 -2.5
v 18.6 11.5 -2.6
v 18.6 11.6 -2.6
v 18.5 11.6 -2.6
v 18.5 11.6 -2.5
v 18.6 11.6 -2.5
v 18.6 11.6 -2.6
v 18.5 11.5 -2.5
v 18.5 11.5 -2.6
v 18.6 11.5 -2.6
v 18.6 11.5 -2.5
v 18.5 11.6 -2.5
v 18.5 11.5 -2.5
v 18.6 11.5 -2.5
v 18.6 11.6 -2.5
v 18.6 11.6 -2.6
v 18.6 11.5 -2.6
v 18.5 11.5 -2.6
v 18.5 11.6 -2.6
v 12.7 11.4 -2.6
v 12.7 11.3 -2.6
v 12.7 11.3 -2.5
v 12.7 11.4 -2.5
v 12.7 11.4 -2.6
v 12.7 11.4 -2.5
v 12.8 11.4 -2.5
v 12.8 11.4 -2.6
v 12.7 11.3 -2.5
v 12.7 11.3 -2.6
v 12.8 11.3 -2.6
v 12.8 11.3 -2.5
v 12.7 11.4 -2.5
v 12.7 11.3 -2.5
v 12.8 11.3 -2.5
v 12.8 11.4 -2.5
v 12.8 11.4 -2.6
v 12.8 11.3 -2.6
v 12.7 11.3 -2.6
v 12.7 11.4 -2.6
v 12.8 11.4 -2.6
v 12.8 11.4 -2.5
v 12.9 11.4 -2.5
v 12.9 11.4 -2.6
v 12.8 11.3 -2.5
v 12.8 11.3 -2.6
v 12.9 11.3 -2.6
v 12.9 11.3 -2.5
v 12.8 11.4 -2.5
v 12.8 11.3 -2.5
v 12.9 11.3 -2.5
v 12.9 11.4 -2.5
v 12.9 11.4 -2.6
v 12.9 11.3 -2.6
v 12.8 11.3 -2.6
v 12.8 11.4 -2.6
v 12.9 11.4 -2.6
v 12.9 11.4 -2.5
v 13 11.4 -2.5
v 13 11.4 -2.6
v 12.9 11.3 -2.5
v 12.9 11.3 -2.6
v 13 11.3 -2.6
v 13 11.3 -2.5
v 12.9 11.4 -2.5
v 12.9 11.3 -2.5
v 13 11.3 -2.5
v 13 11.4 -2.5
v 13 11.4 -2.6
v 13 11.3 -2.6
v 12.9 11.3 -2.6
v 12.9 11.4 -2.6
v 13 11.4 -2.6
v 13 11.4 -2.5
v 13.1 11.4 -2.5
v 13.1 11.4 -2.6
v 13 11.3 -2.5
v 13 11.3 -2.6
v 13.1 11.3 -2.6
v 13.1 11.3 -2.5
v 13 11.4 -2.5
v 13 11.3 -2.5
v 13.1 11.3 -2.5
v 13.1 11.4 -2.5
v 13.1 11.4 -2.6
v 13.1 11.3 -2.6
v 13 11.3 -2.6
v 13 11.4 -2.6
v 13.1 11.4 -2.6
v 13.1 11.4 -2.5
v 13.2 11.4 -2.5
v 13.2 11.4 -2.6
v 13.1 11.3 -2.5
v 13.1 11.3 -2.6
v 13.2 11.3 -2.6
v 13.2 11.3 -2.5
v 13.1 11.4 -2.5
v 13.1 11.3 -2.5
v 13.2 11.3 -2.5
v 13.2 11.4 -2.5
v 13.2 11.4 -2.6
v 13.2 11.3 -2.6
v 13.1 11.3 -2.6
v 13.1 11.4 -2.6
v 13.2 11.4 -2.6
v 13.2 11.4 -2.5
v 13.3 11.4 -2.5
v 13.3 11.4 -2.6
v 13.2 11.3 -2.5
v 13.2 11.3 -2.6
v 13.3 11.3 -2.6
v 13.3 11.3 -2.5
v 13.2 11.4 -2.5
v 13.2 11.3 -2.5
v 13.3 11.3 -2.5
v 13.3 11.4 -2.5
v 13.3 11.4 -2.6
v 13.3 11.3 -2.6
v 13.2 11.3 -2.6
v 13.2 11.4 -2.6
v 13.3 11.4 -2.6
v 13.3 11.4 -2.5
v 13.4 11.4 -2.5
v 13.4 11.4 -2.6
v 13.3 11.3 -2.5
v 13.3 11.3 -2.6
v 13.4 11.3 -2.6
v 13.4 11.3 -2.5
v 13.3 11.4 -2.5
v 13.3 11.3 -2.5
v 13.4 11.3 -2.5
v 13.4 11.4 -2.5
v 13.4 11.4 -2.6
v 13.4 11.3 -2.6
v 13.3 11.3 -2.6
v 13.3 11.4 -2.6
v 13.4 11.4 -2.6
v 13.4 11.4 -2.5
v 13.5 11.4 -2.5
v 13.5 11.4 -2.6
v 13.4 11.3 -2.5
v 13.4 11.3 -2.6
v 13.5 11.3 -2.6
v 13.5 11.3 -2.5
v 13.4 11.4 -2.5
v 13.4 11.3 -2.5
v 13.5 11.3 -2.5
v 13.5 11.4 -2.5
v 13.5 11.4 -2.6
v 13.5 11.3 -2.6
v 13.4 11.3 -2.6
v 13.4 11.4 -2.6
v 13.5 11.4 -2.6
v 13.5 11.4 -2.5
v 13.6 11.4 -2.5
v 13.6 11.4 -2.6
v 13.5 11.3 -2.5
v 13.5 11.3 -2.6
v 13.6 11.3 -2.6
v 13.6 11.3 -2.5
v 13.5 11.4 -2.5
v 13.5 11.3 -2.5
v 13.6 11.3 -2.5
v 13.6 11.4 -2.5
v 13.6 11.4 -2.6
v 13.6 11.3 -2.6
v 13.5 11.3 -2.6
v 13.5 11.4 -2.6
v 13.6 11.4 -2.6
v 13.6 11.4 -2.5
v 13.7 11.4 -2.5
v 13.7 11.4 -2.6
v 13.6 11.3 -2.5
v 13.6 11.3 -2.6
v 13.7 11.3 -2.6
v 13.7 11.3 -2.5
v 13.6 11.4 -2.5
v 13.6 11.3 -2.5
v 13.7 11.3 -2.5
v 13.7 11.4 -2.5
v 13.7 11.4 -2.6
v 13.7 11.3 -2.6
v 13.6 11.3 -2.6
v 13.6 11.4 -2.6
v 13.8 11.4 -2.5
v 13.8 11.3 -2.5
v 13.8 11.3 -2.6
v 13.8 11.4 -2.6
v 13.7 11.4 -2.6
v 13.7 11.4 -2.5
v 13.8 11.4 -2.5
v 13.8 11.4 -2.6
v 13.7 11.3 -2.5
v 13.7 11.3 -2.6
v 13.8 11.3 -2.6
v 13.8 11.3 -2.5
v 13.7 11.4 -2.5
v 13.7 11.3 -2.5
v 13.8 11.3 -2.5
v 13.8 11.4 -2.5
v 13.8 11.4 -2.6
v 13.8 11.3 -2.6
v 13.7 11.3 -2.6
v 13.7 11.4 -2.6
v 16 11.4 -2.6
v 16 11.3 -2.6
v 16 11.3 -2.5
v 16 11.4 -2.5
v 16 11.4 -2.6
v 16 11.4 -2.5
v 16.1 11.4 -2.5
v 16.1 11.4 -2.6
v 16 11.3 -2.5
v 16 11.3 -2.6
v 16.1 11.3 -2.6
v 16.1 11.3 -2.5
v 16 11.4 -2.5
v 16 11.3 -2.5
v 16.1 11.3 -2.5
v 16.1 11.4 -2.5
v 16.1 11.4 -2.6
v 16.1 11.3 -2.6
v 16 11.3 -2.6
v 16 11.4 -2.6
v 16.1 11.4 -2.6
v 16.1 11.4 -2.5
v 16.2 11.4 -2.5
v 16.2 11.4 -2.6
v 16.1 11.3 -2.5
v 16.1 11.3 -2.6
v 16.2 11.3 -2.6
v 16.2 11.3 -2.5
v 16.1 11.4 -2.5
v 16.1 11.3 -2.5
v 16.2 11.3 -2.5
v 16.2 11.4 -2.5
v 16.2 11.4 -2.6
v 16.2 11.3 -2.6
v 16.1 11.3 -2.6
v 16.1 11.4 -2.6
v 16.2 11.4 -2.6
v 16.2 11.4 -2.5
v 16.3 11.4 -2.5
v 16.3 11.4 -2.6
v 16.2 11.3 -2.5
v 16.2 11.3 -2.6
v 16.3 11.3 -2.6
v 16.3 11.3 -2.5
v 16.2 11.4 -2.5
v 16.2 11.3 -2.5
v 16.3 11.3 -2.5
v 16.3 11.4 -2.5
v 16.3 11.4 -2.6
v 16.3 11.3 -2.6
v 16.2 11.3 -2.6
v 16.2 11.4 -2.6
v 16.3 11.4 -2.6
v 16.3 11.4 -2.5
v 16.4 11.4 -2.5
v 16.4 11.4 -2.6
v 16.3 11.3 -2.5
v 16.3 11.3 -2.6
v 16.4 11.3 -2.6
v 16.4 11.3 -2.5
v 16.3 11.4 -2.5
v 16.3 11.3 -2.5
v 16.4 11.3 -2.5
v 16.4 11.4 -2.5
v 16.4 11.4 -2.6
v 16.4 11.3 -2.6
v 16.3 11.3 -2.6
v 16.3 11.4 -2.6
v 16.4 11.4 -2.6
v 16.4 11.4 -2.5
v 16.5 11.4 -2.5
v 16.5 11.4 -2.6
v 16.4 11.3 -2.5
v 16.4 11.3 -2.6
v 16.5 11.3 -2.6
v 16.5 11.3 -2.5
v 16.4 11.4 -2.5
v 16.4 11.3 -2.5
v 16.5 11.3 -2.5
v 16.5 11.4 -2.5
v 16.5 11.4 -2.6
v 16.5 11.3 -2.6
v 16.4 11.3 -2.6
v 16.4 11.4 -2.6
v 16.5 11.4 -2.6
v 16.5 11.4 -2.5
v 16.6 11.4 -2.5
v 16.6 11.4 -2.6
v 16.5 11.3 -2.5
v 16.5 11.3 -2.6
v 16.6 11.3 -2.6
v 16.6 11.3 -2.5
v 16.5 11.4 -2.5
v 16.5 11.3 -2.5
v 16.6 11.3 -2.5
v 16.6 11.4 -2.5
v 16.6 11.4 -2.6
v 16.6 11.3 -2.6
v 16.5 11.3 -2.6
v 16.5 11.4 -2.6
v 16.6 11.4 -2.6
v 16.6 11.4 -2.5
v 16.7 11.4 -2.5
v 16.7 11.4 -2.6
v 16.6 11.3 -2.5
v 16.6 11.3 -2.6
v 16.7 11.3 -2.6
v 16.7 11.3 -2.5
v 16.6 11.4 -2.5
v 16.6 11.3 -2.5
v 16.7 11.3 -2.5
v 16.7 11.4 -2.5
v 16.7 11.4 -2.6
v 16.7 11.3 -2.6
v 16.6 11.3 -2.6
v 16.6 11.4 -2.6
v 16.7 11.4 -2.6
v 16.7 11.4 -2.5
v 16.8 11.4 -2.5
v 16.8 11.4 -2.6
v 16.7 11.3 -2.5
v 16.7 11.3 -2.6
v 16.8 11.3 -2.6
v 16.8 11.3 -2.5
v 16.7 11.4 -2.5
v 16.7 11.3 -2.5
v 16.8 11.3 -2.5
v 16.8 11.4 -2.5
v 16.8 11.4 -2.6
v 16.8 11.3 -2.6
v 16.7 11.3 -2.6
v 16.7 11.4 -2.6
v 16.8 11.4 -2.6
v 16.8 11.4 -2.5
v 16.9 11.4 -2.5
v 16.9 11.4 -2.6
v 16.8 11.3 -2.5
v 16.8 11.3 -2.6
v 16.9 11.3 -2.6
v 16.9 11.3 -2.5
v 16.8 11.4 -2.5
v 16.8 11.3 -2.5
v 16.9 11.3 -2.5
v 16.9 11.4 -2.5
v 16.9 11.4 -2.6
v 16.9 11.3 -2.6
v 16.8 11.3 -2.6
v 16.8 11.4 -2.6
v 16.9 11.4 -2.6
v 16.9 11.4 -2.5
v 17 11.4 -2.5
v 17 11.4 -2.6
v 16.9 11.3 -2.5
v 16.9 11.3 -2.6
v 17 11.3 -2.6
v 17 11.3 -2.5
v 16.9 11.4 -2.5
v 16.9 11.3 -2.5
v 17 11.3 -2.5
v 17 11.4 -2.5
v 17 11.4 -2.6
v 17 11.3 -2.6
v 16.9 11.3 -2.6
v 16.9 11.4 -2.6
v 17 11.4 -2.6
v 17 11.4 -2.5
v 17.1 11.4 -2.5
v 17.1 11.4 -2.6
v 17 11.3 -2.5
v 17 11.3 -2.6
v 17.1 11.3 -2.6
v 17.1 11.3 -2.5
v 17 11.4 -2.5
v 17 11.3 -2.5
v 17.1 11.3 -2.5
v 17.1 11.4 -2.5
v 17.1 11.4 -2.6
v 17.1 11.3 -2.6
v 17 11.3 -2.6
v 17 11.4 -2.6
v 17.1 11.4 -2.6
v 17.1 11.4 -2.5
v 17.2 11.4 -2.5
v 17.2 11.4 -2.6
v 17.1 11.3 -2.5
v 17.1 11.3 -2.6
v 17.2 11.3 -2.6
v 17.2 11.3 -2.5
v 17.1 11.4 -2.5
v 17.1 11.3 -2.5
v 17.2 11.3 -2.5
v 17.2 11.4 -2.5
v 17.2 11.4 -2.6
v 17.2 11.3 -2.6
v 17.1 11.3 -2.6
v 17.1 11.4 -2.6
v 17.2 11.4 -2.6
v 17.2 11.4 -2.5
v 17.3 11.4 -2.5
v 17.3 11.4 -2.6
v 17.2 11.3 -2.5
v 17.2 11.3 -2.6
v 17.3 11.3 -2.6
v 17.3 11.3 -2.5
v 17.2 11.4 -2.5
v 17.2 11.3 -2.5
v 17.3 11.3 -2.5
v 17.3 11.4 -2.5
v 17.3 11.4 -2.6
v 17.3 11.3 -2.6
v 17.2 11.3 -2.6
v 17.2 11.4 -2.6
v 17.3 11.4 -2.6
v 17.3 11.4 -2.5
v 17.4 11.4 -2.5
v 17.4 11.4 -2.6
v 17.3 11.3 -2.5
v 17.3 11.3 -2.6
v 17.4 11.3 -2.6
v 17.4 11.3 -2.5
v 17.3 11.4 -2.5
v 17.3 11.3 -2.5
v 17.4 11.3 -2.5
v 17.4 11.4 -2.5
v 17.4 11.4 -2.6
v 17.4 11.3 -2.6
v 17.3 11.3 -2.6
v 17.3 11.4 -2.6
v 17.4 11.4 -2.6
v 17.4 11.4 -2.5
v 17.5 11.4 -2.5
v 17.5 11.4 -2.6
v 17.4 11.3 -2.5
v 17.4 11.3 -2.6
v 17.5 11.3 -2.6
v 17.5 11.3 -2.5
v 17.4 11.4 -2.5
v 17.4 11.3 -2.5
v 17.5 11.3 -2.5
v 17.5 11.4 -2.5
v 17.5 11.4 -2.6
v 17.5 11.3 -2.6
v 17.4 11.3 -2.6
v 17.4 11.4 -2.6
v 17.5 11.4 -2.6
v 17.5 11.4 -2.5
v 17.6 11.4 -2.5
v 17.6 11.4 -2.6
v 17.5 11.3 -2.5
v 17.5 11.3 -2.6
v 17.6 11.3 -2.6
v 17.6 11.3 -2.5
v 17.5 11.4 -2.5
v 17.5 11.3 -2.5
v 17.6 11.3 -2.5
v 17.6 11.4 -2.5
v 17.6 11.4 -2.6
v 17.6 11.3 -2.6
v 17.5 11.3 -2.6
v 17.5 11.4 -2.6
v 17.6 11.4 -2.6
v 17.6 11.4 -2.5
v 17.7 11.4 -2.5
v 17.7 11.4 -2.6
v 17.6 11.3 -2.5
v 17.6 11.3 -2.6
v 17.7 11.3 -2.6
v 17.7 11.3 -2.5
v 17.6 11.4 -2.5
v 17.6 11.3 -2.5
v 17.7 11.3 -2.5
v 17.7 11.4 -2.5
v 17.7 11.4 -2.6
v 17.7 11.3 -2.6
v 17.6 11.3 -2.6
v 17.6 11.4 -2.6
v 17.8 11.4 -2.5
v 17.8 11.3 -2.5
v 17.8 11.3 -2.6
v 17.8 11.4 -2.6
v 17.7 11.4 -2.6
v 17.7 11.4 -2.5
v 17.8 11.4 -2.5
v 17.8 11.4 -2.6
v 17.7 11.3 -2.5
v 17.7 11.3 -2.6
v 17.8 11.3 -2.6
v 17.8 11.3 -2.5
v 17.7 11.4 -2.5
v 17.7 11.3 -2.5
v 17.8 11.3 -2.5
v 17.8 11.4 -2.5
v 17.8 11.4 -2.6
v 17.8 11.3 -2.6
v 17.7 11.3 -2.6
v 17.7 11.4 -2.6
v 13 11 -2.6
v 13 10.9 -2.6
v 13 10.9 -2.5
v 13 11 -2.5
v 13 11 -2.6
v 13 11 -2.5
v 13.1 11 -2.5
v 13.1 11 -2.6
v 13 10.9 -2.5
v 13 10.9 -2.6
v 13.1 10.9 -2.6
v 13.1 10.9 -2.5
v 13 11 -2.5
v 13 10.9 -2.5
v 13.1 10.9 -2.5
v 13.1 11 -2.5
v 13.1 11 -2.6
v 13.1 10.9 -2.6
v 13 10.9 -2.6
v 13 11 -2.6
v 13.1 11 -2.6
v 13.1 11 -2.5
v 13.2 11 -2.5
v 13.2 11 -2.6
v 13.1 10.9 -2.5
v 13.1 10.9 -2.6
v 13.2 10.9 -2.6
v 13.2 10.9 -2.5
v 13.1 11 -2.5
v 13.1 10.9 -2.5
v 13.2 10.9 -2.5
v 13.2 11 -2.5
v 13.2 11 -2.6
v 13.2 10.9 -2.6
v 13.1 10.9 -2.6
v 13.1 11 -2.6
v 13.2 11 -2.6
v 13.2 11 -2.5
v 13.3 11 -2.5
v 13.3 11 -2.6
v 13.2 10.9 -2.5
v 13.2 10.9 -2.6
v 13.3 10.9 -2.6
v 13.3 10.9 -2.5
v 13.2 11 -2.5
v 13.2 10.9 -2.5
v 13.3 10.9 -2.5
v 13.3 11 -2.5
v 13.3 11 -2.6
v 13.3 10.9 -2.6
v 13.2 10.9 -2.6
v 13.2 11 -2.6
v 13.4 11 -2.5
v 13.4 10.9 -2.5
v 13.4 10.9 -2.6
v 13.4 11 -2.6
v 13.3 11 -2.6
v 13.3 11 -2.5
v 13.4 11 -2.5
v 13.4 11 -2.6
v 13.3 10.9 -2.5
v 13.3 10.9 -2.6
v 13.4 10.9 -2.6
v 13.4 10.9 -2.5
v 13.3 11 -2.5
v 13.3 10.9 -2.5
v 13.4 10.9 -2.5
v 13.4 11 -2.5
v 13.4 11 -2.6
v 13.4 10.9 -2.6
v 13.3 10.9 -2.6
v 13.3 11 -2.6
v 18.7 10.3 -2.6
v 18.7 10.2 -2.6
v 18.7 10.2 -2.5
v 18.7 10.3 -2.5
v 18.8 10.3 -2.5
v 18.8 10.2 -2.5
v 18.8 10.2 -2.6
v 18.8 10.3 -2.6
v 18.7 10.3 -2.6
v 18.7 10.3 -2.5
v 18.8 10.3 -2.5
v 18.8 10.3 -2.6
v 18.7 10.2 -2.5
v 18.7 10.2 -2.6
v 18.8 10.2 -2.6
v 18.8 10.2 -2.5
v 18.7 10.3 -2.5
v 18.7 10.2 -2.5
v 18.8 10.2 -2.5
v 18.8 10.3 -2.5
v 18.8 10.3 -2.6
v 18.8 10.2 -2.6
v 18.7 10.2 -2.6
v 18.7 10.3 -2.6
v 17.8 10.2 -2.6
v 17.8 10.1 -2.6
v 17.8 10.1 -2.5
v 17.8 10.2 -2.5
v 17.8 10.2 -2.6
v 17.8 10.2 -2.5
v 17.9 10.2 -2.5
v 17.9 10.2 -2.6
v 17.8 10.1 -2.5
v 17.8 10.1 -2.6
v 17.9 10.1 -2.6
v 17.9 10.1 -2.5
v 17.8 10.2 -2.5
v 17.8 10.1 -2.5
v 17.9 10.1 -2.5
v 17.9 10.2 -2.5
v 17.9 10.2 -2.6
v 17.9 10.1 -2.6
v 17.8 10.1 -2.6
v 17.8 10.2 -2.6
v 17.9 10.2 -2.6
v 17.9 10.2 -2.5
v 18 10.2 -2.5
v 18 10.2 -2.6
v 17.9 10.1 -2.5
v 17.9 10.1 -2.6
v 18 10.1 -2.6
v 18 10.1 -2.5
v 17.9 10.2 -2.5
v 17.9 10.1 -2.5
v 18 10.1 -2.5
v 18 10.2 -2.5
v 18 10.2 -2.6
v 18 10.1 -2.6
v 17.9 10.1 -2.6
v 17.9 10.2 -2.6
v 18 10.2 -2.6
v 18 10.2 -2.5
v 18.1 10.2 -2.5
v 18.1 10.2 -2.6
v 18 10.1 -2.5
v 18 10.1 -2.6
v 18.1 10.1 -2.6
v 18.1 10.1 -2.5
v 18 10.2 -2.5
v 18 10.1 -2.5
v 18.1 10.1 -2.5
v 18.1 10.2 -2.5
v 18.1 10.2 -2.6
v 18.1 10.1 -2.6
v 18 10.1 -2.6
v 18 10.2 -2.6
v 18.1 10.2 -2.6
v 18.1 10.2 -2.5
v 18.2 10.2 -2.5
v 18.2 10.2 -2.6
v 18.1 10.1 -2.5
v 18.1 10.1 -2.6
v 18.2 10.1 -2.6
v 18.2 10.1 -2.5
v 18.1 10.2 -2.5
v 18.1 10.1 -2.5
v 18.2 10.1 -2.5
v 18.2 10.2 -2.5
v 18.2 10.2 -2.6
v 18.2 10.1 -2.6
v 18.1 10.1 -2.6
v 18.1 10.2 -2.6
v 18.2 10.2 -2.6
v 18.2 10.2 -2.5
v 18.3 10.2 -2.5
v 18.3 10.2 -2.6
v 18.2 10.1 -2.5
v 18.2 10.1 -2.6
v 18.3 10.1 -2.6
v 18.3 10.1 -2.5
v 18.2 10.2 -2.5
v 18.2 10.1 -2.5
v 18.3 10.1 -2.5
v 18.3 10.2 -2.5
v 18.3 10.2 -2.6
v 18.3 10.1 -2.6
v 18.2 10.1 -2.6
v 18.2 10.2 -2.6
v 18.3 10.2 -2.6
v 18.3 10.2 -2.5
v 18.4 10.2 -2.5
v 18.4 10.2 -2.6
v 18.3 10.1 -2.5
v 18.3 10.1 -2.6
v 18.4 10.1 -2.6
v 18.4 10.1 -2.5
v 18.3 10.2 -2.5
v 18.3 10.1 -2.5
v 18.4 10.1 -2.5
v 18.4 10.2 -2.5
v 18.4 10.2 -2.6
v 18.4 10.1 -2.6
v 18.3 10.1 -2.6
v 18.3 10.2 -2.6
v 18.4 10.2 -2.6
v 18.4 10.2 -2.5
v 18.5 10.2 -2.5
v 18.5 10.2 -2.6
v 18.4 10.1 -2.5
v 18.4 10.1 -2.6
v 18.5 10.1 -2.6
v 18.5 10.1 -2.5
v 18.4 10.2 -2.5
v 18.4 10.1 -2.5
v 18.5 10.1 -2.5
v 18.5 10.2 -2.5
v 18.5 10.2 -2.6
v 18.5 10.1 -2.6
v 18.4 10.1 -2.6
v 18.4 10.2 -2.6
v 18.5 10.2 -2.6
v 18.5 10.2 -2.5
v 18.6 10.2 -2.5
v 18.6 10.2 -2.6
v 18.5 10.1 -2.5
v 18.5 10.1 -2.6
v 18.6 10.1 -2.6
v 18.6 10.1 -2.5
v 18.5 10.2 -2.5
v 18.5 10.1 -2.5
v 18.6 10.1 -2.5
v 18.6 10.2 -2.5
v 18.6 10.2 -2.6
v 18.6 10.1 -2.6
v 18.5 10.1 -2.6
v 18.5 10.2 -2.6
v 18.7 10.2 -2.5
v 18.7 10.1 -2.5
v 18.7 10.1 -2.6
v 18.7 10.2 -2.6
v 18.6 10.2 -2.6
v 18.6 10.2 -2.5
v 18.7 10.2 -2.5
v 18.7 10.2 -2.6
v 18.6 10.2 -2.5
v 18.6 10.1 -2.5
v 18.7 10.1 -2.5
v 18.7 10.2 -2.5
v 18.7 10.2 -2.6
v 18.7 10.1 -2.6
v 18.6 10.1 -2.6
v 18.6 10.2 -2.6
v 18.6 10.1 -2.6
v 18.6 10 -2.6
v 18.6 10 -2.5
v 18.6 10.1 -2.5
v 18.7 10.1 -2.5
v 18.7 10 -2.5
v 18.7 10 -2.6
v 18.7 10.1 -2.6
v 18.6 10.1 -2.5
v 18.6 10 -2.5
v 18.7 10 -2.5
v 18.7 10.1 -2.5
v 18.7 10.1 -2.6
v 18.7 10 -2.6
v 18.6 10 -2.6
v 18.6 10.1 -2.6
v 18.6 10 -2.6
v 18.6 9.9 -2.6
v 18.6 9.9 -2.5
v 18.6 10 -2.5
v 18.7 10 -2.5
v 18.7 9.9 -2.5
v 18.7 9.9 -2.6
v 18.7 10 -2.6
v 18.6 9.9 -2.5
v 18.6 9.9 -2.6
v 18.7 9.9 -2.6
v 18.7 9.9 -2.5
v 18.6 10 -2.5
v 18.6 9.9 -2.5
v 18.7 9.9 -2.5
v 18.7 10 -2.5
v 18.7 10 -2.6
v 18.7 9.9 -2.6
v 18.6 9.9 -2.6
v 18.6 10 -2.6
v 18.5 9.9 -2.6
v 18.5 9.8 -2.6
v 18.5 9.8 -2.5
v 18.5 9.9 -2.5
v 18.6 9.9 -2.5
v 18.6 9.8 -2.5
v 18.6 9.8 -2.6
v 18.6 9.9 -2.6
v 18.5 9.9 -2.6
v 18.5 9.9 -2.5
v 18.6 9.9 -2.5
v 18.6 9.9 -2.6
v 18.5 9.9 -2.5
v 18.5 9.8 -2.5
v 18.6 9.8 -2.5
v 18.6 9.9 -2.5
v 18.6 9.9 -2.6
v 18.6 9.8 -2.6
v 18.5 9.8 -2.6
v 18.5 9.9 -2.6
v 18.5 9.8 -2.6
v 18.5 9.7 -2.6
v 18.5 9.7 -2.5
v 18.5 9.8 -2.5
v 18.6 9.8 -2.5
v 18.6 9.7 -2.5
v 18.6 9.7 -2.6
v 18.6 9.8 -2.6
v 18.5 9.8 -2.5
v 18.5 9.7 -2.5
v 18.6 9.7 -2.5
v 18.6 9.8 -2.5
v 18.6 9.8 -2.6
v 18.6 9.7 -2.6
v 18.5 9.7 -2.6
v 18.5 9.8 -2.6
v 18.5 9.7 -2.6
v 18.5 9.6 -2.6
v 18.5 9.6 -2.5
v 18.5 9.7 -2.5
v 18.6 9.7 -2.5
v 18.6 9.6 -2.5
v 18.6 9.6 -2.6
v 18.6 9.7 -2.6
v 18.5 9.6 -2.5
v 18.5 9.6 -2.6
v 18.6 9.6 -2.6
v 18.6 9.6 -2.5
v 18.5 9.7 -2.5
v 18.5 9.6 -2.5
v 18.6 9.6 -2.5
v 18.6 9.7 -2.5
v 18.6 9.7 -2.6
v 18.6 9.6 -2.6
v 18.5 9.6 -2.6
v 18.5 9.7 -2.6
v 18.4 9.6 -2.6
v 18.4 9.5 -2.6
v 18.4 9.5 -2.5
v 18.4 9.6 -2.5
v 18.5 9.6 -2.5
v 18.5 9.5 -2.5
v 18.5 9.5 -2.6
v 18.5 9.6 -2.6
v 18.4 9.6 -2.6
v 18.4 9.6 -2.5
v 18.5 9.6 -2.5
v 18.5 9.6 -2.6
v 18.4 9.6 -2.5
v 18.4 9.5 -2.5
v 18.5 9.5 -2.5
v 18.5 9.6 -2.5
v 18.5 9.6 -2.6
v 18.5 9.5 -2.6
v 18.4 9.5 -2.6
v 18.4 9.6 -2.6
v 18.4 9.5 -2.6
v 18.4 9.4 -2.6
v 18.4 9.4 -2.5
v 18.4 9.5 -2.5
v 18.5 9.5 -2.5
v 18.5 9.4 -2.5
v 18.5 9.4 -2.6
v 18.5 9.5 -2.6
v 18.4 9.5 -2.5
v 18.4 9.4 -2.5
v 18.5 9.4 -2.5
v 18.5 9.5 -2.5
v 18.5 9.5 -2.6
v 18.5 9.4 -2.6
v 18.4 9.4 -2.6
v 18.4 9.5 -2.6
v 18.4 9.4 -2.6
v 18.4 9.3 -2.6
v 18.4 9.3 -2.5
v 18.4 9.4 -2.5
v 18.5 9.4 -2.5
v 18.5 9.3 -2.5
v 18.5 9.3 -2.6
v 18.5 9.4 -2.6
v 18.4 9.3 -2.5
v 18.4 9.3 -2.6
v 18.5 9.3 -2.6
v 18.5 9.3 -2.5
v 18.4 9.4 -2.5
v 18.4 9.3 -2.5
v 18.5 9.3 -2.5
v 18.5 9.4 -2.5
v 18.5 9.4 -2.6
v 18.5 9.3 -2.6
v 18.4 9.3 -2.6
v 18.4 9.4 -2.6
v 18.3 9.3 -2.6
v 18.3 9.2 -2.6
v 18.3 9.2 -2.5
v 18.3 9.3 -2.5
v 18.4 9.3 -2.5
v 18.4 9.2 -2.5
v 18.4 9.2 -2.6
v 18.4 9.3 -2.6
v 18.3 9.3 -2.6
v 18.3 9.3 -2.5
v 18.4 9.3 -2.5
v 18.4 9.3 -2.6
v 18.3 9.3 -2.5
v 18.3 9.2 -2.5
v 18.4 9.2 -2.5
v 18.4 9.3 -2.5
v 18.4 9.3 -2.6
v 18.4 9.2 -2.6
v 18.3 9.2 -2.6
v 18.3 9.3 -2.6
v 18.3 9.2 -2.6
v 18.3 9.1 -2.6
v 18.3 9.1 -2.5
v 18.3 9.2 -2.5
v 18.4 9.2 -2.5
v 18.4 9.1 -2.5
v 18.4 9.1 -2.6
v 18.4 9.2 -2.6
v 18.3 9.2 -2.5
v 18.3 9.1 -2.5
v 18.4 9.1 -2.5
v 18.4 9.2 -2.5
v 18.4 9.2 -2.6
v 18.4 9.1 -2.6
v 18.3 9.1 -2.6
v 18.3 9.2 -2.6
v 18.3 9.1 -2.6
v 18.3 9 -2.6
v 18.3 9 -2.5
v 18.3 9.1 -2.5
v 18.4 9.1 -2.5
v 18.4 9 -2.5
v 18.4 9 -2.6
v 18.4 9.1 -2.6
v 18.3 9 -2.5
v 18.3 9 -2.6
v 18.4 9 -2.6
v 18.4 9 -2.5
v 18.3 9.1 -2.5
v 18.3 9 -2.5
v 18.4 9 -2.5
v 18.4 9.1 -2.5
v 18.4 9.1 -2.6
v 18.4 9 -2.6
v 18.3 9 -2.6
v 18.3 9.1 -2.6
v 18.2 9 -2.6
v 18.2 8.9 -2.6
v 18.2 8.9 -2.5
v 18.2 9 -2.5
v 18.3 9 -2.5
v 18.3 8.9 -2.5
v 18.3 8.9 -2.6
v 18.3 9 -2.6
v 18.2 9 -2.6
v 18.2 9 -2.5
v 18.3 9 -2.5
v 18.3 9 -2.6
v 18.2 9 -2.5
v 18.2 8.9 -2.5
v 18.3 8.9 -2.5
v 18.3 9 -2.5
v 18.3 9 -2.6
v 18.3 8.9 -2.6
v 18.2 8.9 -2.6
v 18.2 9 -2.6
v 18.2 8.9 -2.6
v 18.2 8.8 -2.6
v 18.2 8.8 -2.5
v 18.2 8.9 -2.5
v 18.3 8.9 -2.5
v 18.3 8.8 -2.5
v 18.3 8.8 -2.6
v 18.3 8.9 -2.6
v 18.2 8.9 -2.5
v 18.2 8.8 -2.5
v 18.3 8.8 -2.5
v 18.3 8.9 -2.5
v 18.3 8.9 -2.6
v 18.3 8.8 -2.6
v 18.2 8.8 -2.6
v 18.2 8.9 -2.6
v 18.2 8.8 -2.6
v 18.2 8.7 -2.6
v 18.2 8.7 -2.5
v 18.2 8.8 -2.5
v 18.3 8.8 -2.5
v 18.3 8.7 -2.5
v 18.3 8.7 -2.6
v 18.3 8.8 -2.6
v 18.2 8.8 -2.5
v 18.2 8.7 -2.5
v 18.3 8.7 -2.5
v 18.3 8.8 -2.5
v 18.3 8.8 -2.6
v 18.3 8.7 -2.6
v 18.2 8.7 -2.6
v 18.2 8.8 -2.6
v 18.2 8.7 -2.6
v 18.2 8.6 -2.6
v 18.2 8.6 -2.5
v 18.2 8.7 -2.5
v 18.3 8.7 -2.5
v 18.3 8.6 -2.5
v 18.3 8.6 -2.6
v 18.3 8.7 -2.6
v 18.2 8.6 -2.5
v 18.2 8.6 -2.6
v 18.3 8.6 -2.6
v 18.3 8.6 -2.5
v 18.2 8.7 -2.5
v 18.2 8.6 -2.5
v 18.3 8.6 -2.5
v 18.3 8.7 -2.5
v 18.3 8.7 -2.6
v 18.3 8.6 -2.6
v 18.2 8.6 -2.6
v 18.2 8.7 -2.6
v 18.1 8.6 -2.6
v 18.1 8.5 -2.6
v 18.1 8.5 -2.5
v 18.1 8.6 -2.5
v 18.2 8.6 -2.5
v 18.2 8.5 -2.5
v 18.2 8.5 -2.6
v 18.2 8.6 -2.6
v 18.1 8.6 -2.6
v 18.1 8.6 -2.5
v 18.2 8.6 -2.5
v 18.2 8.6 -2.6
v 18.1 8.6 -2.5
v 18.1 8.5 -2.5
v 18.2 8.5 -2.5
v 18.2 8.6 -2.5
v 18.2 8.6 -2.6
v 18.2 8.5 -2.6
v 18.1 8.5 -2.6
v 18.1 8.6 -2.6
v 18.1 8.5 -2.6
v 18.1 8.4 -2.6
v 18.1 8.4 -2.5
v 18.1 8.5 -2.5
v 18.2 8.5 -2.5
v 18.2 8.4 -2.5
v 18.2 8.4 -2.6
v 18.2 8.5 -2.6
v 18.1 8.5 -2.5
v 18.1 8.4 -2.5
v 18.2 8.4 -2.5
v 18.2 8.5 -2.5
v 18.2 8.5 -2.6
v 18.2 8.4 -2.6
v 18.1 8.4 -2.6
v 18.1 8.5 -2.6
v 18.1 8.4 -2.6
v 18.1 8.3 -2.6
v 18.1 8.3 -2.5
v 18.1 8.4 -2.5
v 18.2 8.4 -2.5
v 18.2 8.3 -2.5
v 18.2 8.3 -2.6
v 18.2 8.4 -2.6
v 18.1 8.3 -2.5
v 18.1 8.3 -2.6
v 18.2 8.3 -2.6
v 18.2 8.3 -2.5
v 18.1 8.4 -2.5
v 18.1 8.3 -2.5
v 18.2 8.3 -2.5
v 18.2 8.4 -2.5
v 18.2 8.4 -2.6
v 18.2 8.3 -2.6
v 18.1 8.3 -2.6
v 18.1 8.4 -2.6
v 18 8.3 -2.6
v 18 8.2 -2.6
v 18 8.2 -2.5
v 18 8.3 -2.5
v 18.1 8.3 -2.5
v 18.1 8.2 -2.5
v 18.1 8.2 -2.6
v 18.1 8.3 -2.6
v 18 8.3 -2.6
v 18 8.3 -2.5
v 18.1 8.3 -2.5
v 18.1 8.3 -2.6
v 18 8.3 -2.5
v 18 8.2 -2.5
v 18.1 8.2 -2.5
v 18.1 8.3 -2.5
v 18.1 8.3 -2.6
v 18.1 8.2 -2.6
v 18 8.2 -2.6
v 18 8.3 -2.6
v 18 8.2 -2.6
v 18 8.1 -2.6
v 18 8.1 -2.5
v 18 8.2 -2.5
v 18.1 8.2 -2.5
v 18.1 8.1 -2.5
v 18.1 8.1 -2.6
v 18.1 8.2 -2.6
v 18 8.2 -2.5
v 18 8.1 -2.5
v 18.1 8.1 -2.5
v 18.1 8.2 -2.5
v 18.1 8.2 -2.6
v 18.1 8.1 -2.6
v 18 8.1 -2.6
v 18 8.2 -2.6
v 18 8.1 -2.6
v 18 8 -2.6
v 18 8 -2.5
v 18 8.1 -2.5
v 18.1 8.1 -2.5
v 18.1 8 -2.5
v 18.1 8 -2.6
v 18.1 8.1 -2.6
v 18 8 -2.5
v 18 8 -2.6
v 18.1 8 -2.6
v 18.1 8 -2.5
v 18 8.1 -2.5
v 18 8 -2.5
v 18.1 8 -2.5
v 18.1 8.1 -2.5
v 18.1 8.1 -2.6
v 18.1 8 -2.6
v 18 8 -2.6
v 18 8.1 -2.6
v 17.9 8 -2.6
v 17.9 7.9 -2.6
v 17.9 7.9 -2.5
v 17.9 8 -2.5
v 18 8 -2.5
v 18 7.9 -2.5
v 18 7.9 -2.6
v 18 8 -2.6
v 17.9 8 -2.6
v 17.9 8 -2.5
v 18 8 -2.5
v 18 8 -2.6
v 17.9 8 -2.5
v 17.9 7.9 -2.5
v 18 7.9 -2.5
v 18 8 -2.5
v 18 8 -2.6
v 18 7.9 -2.6
v 17.9 7.9 -2.6
v 17.9 8 -2.6
v 17.9 7.9 -2.6
v 17.9 7.8 -2.6
v 17.9 7.8 -2.5
v 17.9 7.9 -2.5
v 18 7.9 -2.5
v 18 7.8 -2.5
v 18 7.8 -2.6
v 18 7.9 -2.6
v 17.9 7.9 -2.5
v 17.9 7.8 -2.5
v 18 7.8 -2.5
v 18 7.9 -2.5
v 18 7.9 -2.6
v 18 7.8 -2.6
v 17.9 7.8 -2.6
v 17.9 7.9 -2.6
v 17.9 7.8 -2.6
v 17.9 7.7 -2.6
v 17.9 7.7 -2.5
v 17.9 7.8 -2.5
v 18 7.8 -2.5
v 18 7.7 -2.5
v 18 7.7 -2.6
v 18 7.8 -2.6
v 17.9 7.7 -2.5
v 17.9 7.7 -2.6
v 18 7.7 -2.6
v 18 7.7 -2.5
v 17.9 7.8 -2.5
v 17.9 7.7 -2.5
v 18 7.7 -2.5
v 18 7.8 -2.5
v 18 7.8 -2.6
v 18 7.7 -2.6
v 17.9 7.7 -2.6
v 17.9 7.8 -2.6
v 17.8 7.7 -2.6
v 17.8 7.6 -2.6
v 17.8 7.6 -2.5
v 17.8 7.7 -2.5
v 17.9 7.7 -2.5
v 17.9 7.6 -2.5
v 17.9 7.6 -2.6
v 17.9 7.7 -2.6
v 17.8 7.7 -2.6
v 17.8 7.7 -2.5
v 17.9 7.7 -2.5
v 17.9 7.7 -2.6
v 17.8 7.7 -2.5
v 17.8 7.6 -2.5
v 17.9 7.6 -2.5
v 17.9 7.7 -2.5
v 17.9 7.7 -2.6
v 17.9 7.6 -2.6
v 17.8 7.6 -2.6
v 17.8 7.7 -2.6
v 17.8 7.6 -2.6
v 17.8 7.5 -2.6
v 17.8 7.5 -2.5
v 17.8 7.6 -2.5
v 17.9 7.6 -2.5
v 17.9 7.5 -2.5
v 17.9 7.5 -2.6
v 17.9 7.6 -2.6
v 17.8 7.6 -2.5
v 17.8 7.5 -2.5
v 17.9 7.5 -2.5
v 17.9 7.6 -2.5
v 17.9 7.6 -2.6
v 17.9 7.5 -2.6
v 17.8 7.5 -2.6
v 17.8 7.6 -2.6
v 17.8 7.5 -2.6
v 17.8 7.4 -2.6
v 17.8 7.4 -2.5
v 17.8 7.5 -2.5
v 17.9 7.5 -2.5
v 17.9 7.4 -2.5
v 17.9 7.4 -2.6
v 17.9 7.5 -2.6
v 17.8 7.4 -2.5
v 17.8 7.4 -2.6
v 17.9 7.4 -2.6
v 17.9 7.4 -2.5
v 17.8 7.5 -2.5
v 17.8 7.4 -2.5
v 17.9 7.4 -2.5
v 17.9 7.5 -2.5
v 17.9 7.5 -2.6
v 17.9 7.4 -2.6
v 17.8 7.4 -2.6
v 17.8 7.5 -2.6
v 17.7 7.4 -2.6
v 17.7 7.3 -2.6
v 17.7 7.3 -2.5
v 17.7 7.4 -2.5
v 17.8 7.4 -2.5
v 17.8 7.3 -2.5
v 17.8 7.3 -2.6
v 17.8 7.4 -2.6
v 17.7 7.4 -2.6
v 17.7 7.4 -2.5
v 17.8 7.4 -2.5
v 17.8 7.4 -2.6
v 17.7 7.4 -2.5
v 17.7 7.3 -2.5
v 17.8 7.3 -2.5
v 17.8 7.4 -2.5
v 17.8 7.4 -2.6
v 17.8 7.3 -2.6
v 17.7 7.3 -2.6
v 17.7 7.4 -2.6
v 17.7 7.3 -2.6
v 17.7 7.2 -2.6
v 17.7 7.2 -2.5
v 17.7 7.3 -2.5
v 17.8 7.3 -2.5
v 17.8 7.2 -2.5
v 17.8 7.2 -2.6
v 17.8 7.3 -2.6
v 17.7 7.3 -2.5
v 17.7 7.2 -2.5
v 17.8 7.2 -2.5
v 17.8 7.3 -2.5
v 17.8 7.3 -2.6
v 17.8 7.2 -2.6
v 17.7 7.2 -2.6
v 17.7 7.3 -2.6
v 17.7 7.2 -2.6
v 17.7 7.1 -2.6
v 17.7 7.1 -2.5
v 17.7 7.2 -2.5
v 17.8 7.2 -2.5
v 17.8 7.1 -2.5
v 17.8 7.1 -2.6
v 17.8 7.2 -2.6
v 17.7 7.1 -2.5
v 17.7 7.1 -2.6
v 17.8 7.1 -2.6
v 17.8 7.1 -2.5
v 17.7 7.2 -2.5
v 17.7 7.1 -2.5
v 17.8 7.1 -2.5
v 17.8 7.2 -2.5
v 17.8 7.2 -2.6
v 17.8 7.1 -2.6
v 17.7 7.1 -2.6
v 17.7 7.2 -2.6
v 17.6 7.1 -2.6
v 17.6 7 -2.6
v 17.6 7 -2.5
v 17.6 7.1 -2.5
v 17.7 7.1 -2.5
v 17.7 7 -2.5
v 17.7 7 -2.6
v 17.7 7.1 -2.6
v 17.6 7.1 -2.6
v 17.6 7.1 -2.5
v 17.7 7.1 -2.5
v 17.7 7.1 -2.6
v 17.6 7.1 -2.5
v 17.6 7 -2.5
v 17.7 7 -2.5
v 17.7 7.1 -2.5
v 17.7 7.1 -2.6
v 17.7 7 -2.6
v 17.6 7 -2.6
v 17.6 7.1 -2.6
v 17.6 7 -2.6
v 17.6 6.9 -2.6
v 17.6 6.9 -2.5
v 17.6 7 -2.5
v 17.7 7 -2.5
v 17.7 6.9 -2.5
v 17.7 6.9 -2.6
v 17.7 7 -2.6
v 17.6 7 -2.5
v 17.6 6.9 -2.5
v 17.7 6.9 -2.5
v 17.7 7 -2.5
v 17.7 7 -2.6
v 17.7 6.9 -2.6
v 17.6 6.9 -2.6
v 17.6 7 -2.6
v 17.6 6.9 -2.6
v 17.6 6.8 -2.6
v 17.6 6.8 -2.5
v 17.6 6.9 -2.5
v 17.7 6.9 -2.5
v 17.7 6.8 -2.5
v 17.7 6.8 -2.6
v 17.7 6.9 -2.6
v 17.6 6.8 -2.5
v 17.6 6.8 -2.6
v 17.7 6.8 -2.6
v 17.7 6.8 -2.5
v 17.6 6.9 -2.5
v 17.6 6.8 -2.5
v 17.7 6.8 -2.5
v 17.7 6.9 -2.5
v 17.7 6.9 -2.6
v 17.7 6.8 -2.6
v 17.6 6.8 -2.6
v 17.6 6.9 -2.6
v 17.5 6.8 -2.6
v 17.5 6.7 -2.6
v 17.5 6.7 -2.5
v 17.5 6.8 -2.5
v 17.6 6.8 -2.5
v 17.6 6.7 -2.5
v 17.6 6.7 -2.6
v 17.6 6.8 -2.6
v 17.5 6.8 -2.6
v 17.5 6.8 -2.5
v 17.6 6.8 -2.5
v 17.6 6.8 -2.6
v 17.5 6.8 -2.5
v 17.5 6.7 -2.5
v 17.6 6.7 -2.5
v 17.6 6.8 -2.5
v 17.6 6.8 -2.6
v 17.6 6.7 -2.6
v 17.5 6.7 -2.6
v 17.5 6.8 -2.6
v 17.5 6.7 -2.6
v 17.5 6.6 -2.6
v 17.5 6.6 -2.5
v 17.5 6.7 -2.5
v 17.6 6.7 -2.5
v 17.6 6.6 -2.5
v 17.6 6.6 -2.6
v 17.6 6.7 -2.6
v 17.5 6.7 -2.5
v 17.5 6.6 -2.5
v 17.6 6.6 -2.5
v 17.6 6.7 -2.5
v 17.6 6.7 -2.6
v 17.6 6.6 -2.6
v 17.5 6.6 -2.6
v 17.5 6.7 -2.6
v 17.5 6.6 -2.6
v 17.5 6.5 -2.6
v 17.5 6.5 -2.5
v 17.5 6.6 -2.5
v 17.6 6.6 -2.5
v 17.6 6.5 -2.5
v 17.6 6.5 -2.6
v 17.6 6.6 -2.6
v 17.5 6.5 -2.5
v 17.5 6.5 -2.6
v 17.6 6.5 -2.6
v 17.6 6.5 -2.5
v 17.5 6.6 -2.5
v 17.5 6.5 -2.5
v 17.6 6.5 -2.5
v 17.6 6.6 -2.5
v 17.6 6.6 -2.6
v 17.6 6.5 -2.6
v 17.5 6.5 -2.6
v 17.5 6.6 -2.6
v 17.4 6.5 -2.6
v 17.4 6.4 -2.6
v 17.4 6.4 -2.5
v 17.4 6.5 -2.5
v 17.5 6.5 -2.5
v 17.5 6.4 -2.5
v 17.5 6.4 -2.6
v 17.5 6.5 -2.6
v 17.4 6.5 -2.6
v 17.4 6.5 -2.5
v 17.5 6.5 -2.5
v 17.5 6.5 -2.6
v 17.4 6.5 -2.5
v 17.4 6.4 -2.5
v 17.5 6.4 -2.5
v 17.5 6.5 -2.5
v 17.5 6.5 -2.6
v 17.5 6.4 -2.6
v 17.4 6.4 -2.6
v 17.4 6.5 -2.6
v 17.4 6.4 -2.6
v 17.4 6.3 -2.6
v 17.4 6.3 -2.5
v 17.4 6.4 -2.5
v 17.5 6.4 -2.5
v 17.5 6.3 -2.5
v 17.5 6.3 -2.6
v 17.5 6.4 -2.6
v 17.4 6.4 -2.5
v 17.4 6.3 -2.5
v 17.5 6.3 -2.5
v 17.5 6.4 -2.5
v 17.5 6.4 -2.6
v 17.5 6.3 -2.6
v 17.4 6.3 -2.6
v 17.4 6.4 -2.6
v 17.4 6.3 -2.6
v 17.4 6.2 -2.6
v 17.4 6.2 -2.5
v 17.4 6.3 -2.5
v 17.5 6.3 -2.5
v 17.5 6.2 -2.5
v 17.5 6.2 -2.6
v 17.5 6.3 -2.6
v 17.4 6.2 -2.5
v 17.4 6.2 -2.6
v 17.5 6.2 -2.6
v 17.5 6.2 -2.5
v 17.4 6.3 -2.5
v 17.4 6.2 -2.5
v 17.5 6.2 -2.5
v 17.5 6.3 -2.5
v 17.5 6.3 -2.6
v 17.5 6.2 -2.6
v 17.4 6.2 -2.6
v 17.4 6.3 -2.6
v 17.3 6.2 -2.6
v 17.3 6.1 -2.6
v 17.3 6.1 -2.5
v 17.3 6.2 -2.5
v 17.4 6.2 -2.5
v 17.4 6.1 -2.5
v 17.4 6.1 -2.6
v 17.4 6.2 -2.6
v 17.3 6.2 -2.6
v 17.3 6.2 -2.5
v 17.4 6.2 -2.5
v 17.4 6.2 -2.6
v 17.3 6.2 -2.5
v 17.3 6.1 -2.5
v 17.4 6.1 -2.5
v 17.4 6.2 -2.5
v 17.4 6.2 -2.6
v 17.4 6.1 -2.6
v 17.3 6.1 -2.6
v 17.3 6.2 -2.6
v 17.3 6.1 -2.6
v 17.3 6 -2.6
v 17.3 6 -2.5
v 17.3 6.1 -2.5
v 17.4 6.1 -2.5
v 17.4 6 -2.5
v 17.4 6 -2.6
v 17.4 6.1 -2.6
v 17.3 6.1 -2.5
v 17.3 6 -2.5
v 17.4 6 -2.5
v 17.4 6.1 -2.5
v 17.4 6.1 -2.6
v 17.4 6 -2.6
v 17.3 6 -2.6
v 17.3 6.1 -2.6
v 17.3 6 -2.6
v 17.3 5.9 -2.6
v 17.3 5.9 -2.5
v 17.3 6 -2.5
v 17.4 6 -2.5
v 17.4 5.9 -2.5
v 17.4 5.9 -2.6
v 17.4 6 -2.6
v 17.3 5.9 -2.5
v 17.3 5.9 -2.6
v 17.4 5.9 -2.6
v 17.4 5.9 -2.5
v 17.3 6 -2.5
v 17.3 5.9 -2.5
v 17.4 5.9 -2.5
v 17.4 6 -2.5
v 17.4 6 -2.6
v 17.4 5.9 -2.6
v 17.3 5.9 -2.6
v 17.3 6 -2.6
v 17.2 5.9 -2.6
v 17.2 5.8 -2.6
v 17.2 5.8 -2.5
v 17.2 5.9 -2.5
v 17.3 5.9 -2.5
v 17.3 5.8 -2.5
v 17.3 5.8 -2.6
v 17.3 5.9 -2.6
v 17.2 5.9 -2.6
v 17.2 5.9 -2.5
v 17.3 5.9 -2.5
v 17.3 5.9 -2.6
v 17.2 5.9 -2.5
v 17.2 5.8 -2.5
v 17.3 5.8 -2.5
v 17.3 5.9 -2.5
v 17.3 5.9 -2.6
v 17.3 5.8 -2.6
v 17.2 5.8 -2.6
v 17.2 5.9 -2.6
v 17.2 5.8 -2.6
v 17.2 5.7 -2.6
v 17.2 5.7 -2.5
v 17.2 5.8 -2.5
v 17.3 5.8 -2.5
v 17.3 5.7 -2.5
v 17.3 5.7 -2.6
v 17.3 5.8 -2.6
v 17.2 5.8 -2.5
v 17.2 5.7 -2.5
v 17.3 5.7 -2.5
v 17.3 5.8 -2.5
v 17.3 5.8 -2.6
v 17.3 5.7 -2.6
v 17.2 5.7 -2.6
v 17.2 5.8 -2.6
v 17.2 5.7 -2.6
v 17.2 5.6 -2.6
v 17.2 5.6 -2.5
v 17.2 5.7 -2.5
v 17.3 5.7 -2.5
v 17.3 5.6 -2.5
v 17.3 5.6 -2.6
v 17.3 5.7 -2.6
v 17.2 5.6 -2.5
v 17.2 5.6 -2.6
v 17.3 5.6 -2.6
v 17.3 5.6 -2.5
v 17.2 5.7 -2.5
v 17.2 5.6 -2.5
v 17.3 5.6 -2.5
v 17.3 5.7 -2.5
v 17.3 5.7 -2.6
v 17.3 5.6 -2.6
v 17.2 5.6 -2.6
v 17.2 5.7 -2.6
v 17.1 5.6 -2.6
v 17.1 5.5 -2.6
v 17.1 5.5 -2.5
v 17.1 5.6 -2.5
v 17.2 5.6 -2.5
v 17.2 5.5 -2.5
v 17.2 5.5 -2.6
v 17.2 5.6 -2.6
v 17.1 5.6 -2.6
v 17.1 5.6 -2.5
v 17.2 5.6 -2.5
v 17.2 5.6 -2.6
v 17.1 5.6 -2.5
v 17.1 5.5 -2.5
v 17.2 5.5 -2.5
v 17.2 5.6 -2.5
v 17.2 5.6 -2.6
v 17.2 5.5 -2.6
v 17.1 5.5 -2.6
v 17.1 5.6 -2.6
v 17.1 5.5 -2.6
v 17.1 5.4 -2.6
v 17.1 5.4 -2.5
v 17.1 5.5 -2.5
v 17.2 5.5 -2.5
v 17.2 5.4 -2.5
v 17.2 5.4 -2.6
v 17.2 5.5 -2.6
v 17.1 5.5 -2.5
v 17.1 5.4 -2.5
v 17.2 5.4 -2.5
v 17.2 5.5 -2.5
v 17.2 5.5 -2.6
v 17.2 5.4 -2.6
v 17.1 5.4 -2.6
v 17.1 5.5 -2.6
v 17.1 5.4 -2.6
v 17.1 5.3 -2.6
v 17.1 5.3 -2.5
v 17.1 5.4 -2.5
v 17.2 5.4 -2.5
v 17.2 5.3 -2.5
v 17.2 5.3 -2.6
v 17.2 5.4 -2.6
v 17.1 5.3 -2.5
v 17.1 5.3 -2.6
v 17.2 5.3 -2.6
v 17.2 5.3 -2.5
v 17.1 5.4 -2.5
v 17.1 5.3 -2.5
v 17.2 5.3 -2.5
v 17.2 5.4 -2.5
v 17.2 5.4 -2.6
v 17.2 5.3 -2.6
v 17.1 5.3 -2.6
v 17.1 5.4 -2.6
v 17 5.3 -2.6
v 17 5.2 -2.6
v 17 5.2 -2.5
v 17 5.3 -2.5
v 17.1 5.3 -2.5
v 17.1 5.2 -2.5
v 17.1 5.2 -2.6
v 17.1 5.3 -2.6
v 17 5.3 -2.6
v 17 5.3 -2.5
v 17.1 5.3 -2.5
v 17.1 5.3 -2.6
v 17 5.2 -2.5
v 17 5.2 -2.6
v 17.1 5.2 -2.6
v 17.1 5.2 -2.5
v 17 5.3 -2.5
v 17 5.2 -2.5
v 17.1 5.2 -2.5
v 17.1 5.3 -2.5
v 17.1 5.3 -2.6
v 17.1 5.2 -2.6
v 17 5.2 -2.6
v 17 5.3 -2.6

# faces
f 1/1/1 2/1/1 3/1/1 4/1/1
f 5/1/2 6/1/2 7/1/2 8/1/2
f 9/1/3 10/1/3 11/1/3 12/1/3
f 13/1/5 14/1/5 15/1/5 16/1/5
f 17/1/6 18/1/6 19/1/6 20/1/6
f 21/1/1 22/1/1 23/1/1 24/1/1
f 25/1/2 26/1/2 27/1/2 28/1/2
f 29/1/4 30/1/4 31/1/4 32/1/4
f 33/1/5 34/1/5 35/1/5 36/1/5
f 37/1/6 38/1/6 39/1/6 40/1/6
f 41/1/1 42/1/1 43/1/1 44/1/1
f 45/1/2 46/1/2 47/1/2 48/1/2
f 49/1/3 50/1/3 51/1/3 52/1/3
f 53/1/5 54/1/5 55/1/5 56/1/5
f 57/1/6 58/1/6 59/1/6 60/1/6
f 61/1/1 62/1/1 63/1/1 64/1/1
f 65/1/2 66/1/2 67/1/2 68/1/2
f 69/1/5 70/1/5 71/1/5 72/1/5
f 73/1/6 74/1/6 75/1/6 76/1/6
f 77/1/1 78/1/1 79/1/1 80/1/1
f 81/1/2 82/1/2 83/1/2 84/1/2
f 85/1/4 86/1/4 87/1/4 88/1/4
f 89/1/5 90/1/5 91/1/5 92/1/5
f 93/1/6 94/1/6 95/1/6 96/1/6
f 97/1/1 98/1/1 99/1/1 100/1/1
f 101/1/2 102/1/2 103/1/2 104/1/2
f 105/1/3 106/1/3 107/1/3 108/1/3
f 109/1/5 110/1/5 111/1/5 112/1/5
f 113/1/6 114/1/6 115/1/6 116/1/6
f 117/1/1 118/1/1 119/1/1 120/1/1
f 121/1/2 122/1/2 123/1/2 124/1/2
f 125/1/5 126/1/5 127/1/5 128/1/5
f 129/1/6 130/1/6 131/1/6 132/1/6
f 133/1/1 134/1/1 135/1/1 136/1/1
f 137/1/2 138/1/2 139/1/2 140/1/2
f 141/1/4 142/1/4 143/1/4 144/1/4
f 145/1/5 146/1/5 147/1/5 148/1/5
f 149/1/6 150/1/6 151/1/6 152/1/6
f 153/1/1 154/1/1 155/1/1 156/1/1
f 157/1/2 158/1/2 159/1/2 160/1/2
f 161/1/3 162/1/3 163/1/3 164/1/3
f 165/1/5 166/1/5 167/1/5 168/1/5
f 169/1/6 170/1/6 171/1/6 172/1/6
f 173/1/1 174/1/1 175/1/1 176/1/1
f 177/1/2 178/1/2 179/1/2 180/1/2
f 181/1/4 182/1/4 183/1/4 184/1/4
f 185/1/5 186/1/5 187/1/5 188/1/5
f 189/1/6 190/1/6 191/1/6 192/1/6
f 193/1/1 194/1/1 195/1/1 196/1/1
f 197/1/2 198/1/2 199/1/2 200/1/2
f 201/1/3 202/1/3 203/1/3 204/1/3
f 205/1/5 206/1/5 207/1/5 208/1/5
f 209/1/6 210/1/6 211/1/6 212/1/6
f 213/1/1 214/1/1 215/1/1 216/1/1
f 217/1/2 218/1/2 219/1/2 220/1/2
f 221/1/5 222/1/5 223/1/5 224/1/5
f 225/1/6 226/1/6 227/1/6 228/1/6
f 229/1/1 230/1/1 231/1/1 232/1/1
f 233/1/2 234/1/2 235/1/2 236/1/2
f 237/1/4 238/1/4 239/1/4 240/1/4
f 241/1/5 242/1/5 243/1/5 244/1/5
f 245/1/6 246/1/6 247/1/6 248/1/6
f 249/1/1 250/1/1 251/1/1 252/1/1
f 253/1/2 254/1/2 255/1/2 256/1/2
f 257/1/3 258/1/3 259/1/3 260/1/3
f 261/1/5 262/1/5 263/1/5 264/1/5
f 265/1/6 266/1/6 267/1/6 268/1/6
f 269/1/1 270/1/1 271/1/1 272/1/1
f 273/1/2 274/1/2 275/1/2 276/1/2
f 277/1/5 278/1/5 279/1/5 280/1/5
f 281/1/6 282/1/6 283/1/6 284/1/6
f 285/1/1 286/1/1 287/1/1 288/1/1
f 289/1/2 290/1/2 291/1/2 292/1/2
f 293/1/4 294/1/4 295/1/4 296/1/4
f 297/1/5 298/1/5 299/1/5 300/1/5
f 301/1/6 302/1/6 303/1/6 304/1/6
f 305/1/1 306/1/1 307/1/1 308/1/1
f 309/1/2 310/1/2 311/1/2 312/1/2
f 313/1/3 314/1/3 315/1/3 316/1/3
f 317/1/5 318/1/5 319/1/5 320/1/5
f 321/1/6 322/1/6 323/1/6 324/1/6
f 325/1/1 326/1/1 327/1/1 328/1/1
f 329/1/2 330/1/2 331/1/2 332/1/2
f 333/1/5 334/1/5 335/1/5 336/1/5
f 337/1/6 338/1/6 339/1/6 340/1/6
f 341/1/1 342/1/1 343/1/1 344/1/1
f 345/1/2 346/1/2 347/1/2 348/1/2
f 349/1/4 350/1/4 351/1/4 352/1/4
f 353/1/5 354/1/5 355/1/5 356/1/5
f 357/1/6 358/1/6 359/1/6 360/1/6
f 361/1/1 362/1/1 363/1/1 364/1/1
f 365/1/2 366/1/2 367/1/2 368/1/2
f 369/1/3 370/1/3 371/1/3 372/1/3
f 373/1/5 374/1/5 375/1/5 376/1/5
f 377/1/6 378/1/6 379/1/6 380/1/6
f 381/1/1 382/1/1 383/1/1 384/1/1
f 385/1/2 386/1/2 387/1/2 388/1/2
f 389/1/5 390/1/5 391/1/5 392/1/5
f 393/1/6 394/1/6 395/1/6 396/1/6
f 397/1/1 398/1/1 399/1/1 400/1/1
f 401/1/2 402/1/2 403/1/2 404/1/2
f 405/1/4 406/1/4 407/1/4 408/1/4
f 409/1/5 410/1/5 411/1/5 412/1/5
f 413/1/6 414/1/6 415/1/6 416/1/6
f 417/1/1 418/1/1 419/1/1 420/1/1
f 421/1/2 422/1/2 423/1/2 424/1/2
f 425/1/3 426/1/3 427/1/3 428/1/3
f 429/1/5 430/1/5 431/1/5 432/1/5
f 433/1/6 434/1/6 435/1/6 436/1/6
f 437/1/1 438/1/1 439/1/1 440/1/1
f 441/1/2 442/1/2 443/1/2 444/1/2
f 445/1/4 446/1/4 447/1/4 448/1/4
f 449/1/5 450/1/5 451/1/5 452/1/5
f 453/1/6 454/1/6 455/1/6 456/1/6
f 457/1/1 458/1/1 459/1/1 460/1/1
f 461/1/2 462/1/2 463/1/2 464/1/2
f 465/1/3 466/1/3 467/1/3 468/1/3
f 469/1/5 470/1/5 471/1/5 472/1/5
f 473/1/6 474/1/6 475/1/6 476/1/6
f 477/1/1 478/1/1 479/1/1 480/1/1
f 481/1/2 482/1/2 483/1/2 484/1/2
f 485/1/5 486/1/5 487/1/5 488/1/5
f 489/1/6 490/1/6 491/1/6 492/1/6
f 493/1/1 494/1/1 495/1/1 496/1/1
f 497/1/2 498/1/2 499/1/2 500/1/2
f 501/1/4 502/1/4 503/1/4 504/1/4
f 505/1/5 506/1/5 507/1/5 508/1/5
f 509/1/6 510/1/6 511/1/6 512/1/6
f 513/1/1 514/1/1 515/1/1 516/1/1
f 517/1/2 518/1/2 519/1/2 520/1/2
f 521/1/3 522/1/3 523/1/3 524/1/3
f 525/1/5 526/1/5 527/1/5 528/1/5
f 529/1/6 530/1/6 531/1/6 532/1/6
f 533/1/1 534/1/1 535/1/1 536/1/1
f 537/1/2 538/1/2 539/1/2 540/1/2
f 541/1/5 542/1/5 543/1/5 544/1/5
f 545/1/6 546/1/6 547/1/6 548/1/6
f 549/1/1 550/1/1 551/1/1 552/1/1
f 553/1/2 554/1/2 555/1/2 556/1/2
f 557/1/4 558/1/4 559/1/4 560/1/4
f 561/1/5 562/1/5 563/1/5 564/1/5
f 565/1/6 566/1/6 567/1/6 568/1/6
f 569/1/1 570/1/1 571/1/1 572/1/1
f 573/1/2 574/1/2 575/1/2 576/1/2
f 577/1/3 578/1/3 579/1/3 580/1/3
f 581/1/5 582/1/5 583/1/5 584/1/5
f 585/1/6 586/1/6 587/1/6 588/1/6
f 589/1/1 590/1/1 591/1/1 592/1/1
f 593/1/2 594/1/2 595/1/2 596/1/2
f 597/1/5 598/1/5 599/1/5 600/1/5
f 601/1/6 602/1/6 603/1/6 604/1/6
f 605/1/1 606/1/1 607/1/1 608/1/1
f 609/1/2 610/1/2 611/1/2 612/1/2
f 613/1/4 614/1/4 615/1/4 616/1/4
f 617/1/5 618/1/5 619/1/5 620/1/5
f 621/1/6 622/1/6 623/1/6 624/1/6
f 625/1/1 626/1/1 627/1/1 628/1/1
f 629/1/2 630/1/2 631/1/2 632/1/2
f 633/1/3 634/1/3 635/1/3 636/1/3
f 637/1/5 638/1/5 639/1/5 640/1/5
f 641/1/6 642/1/6 643/1/6 644/1/6
f 645/1/1 646/1/1 647/1/1 648/1/1
f 649/1/2 650/1/2 651/1/2 652/1/2
f 653/1/5 654/1/5 655/1/5 656/1/5
f 657/1/6 658/1/6 659/1/6 660/1/6
f 661/1/1 662/1/1 663/1/1 664/1/1
f 665/1/2 666/1/2 667/1/2 668/1/2
f 669/1/4 670/1/4 671/1/4 672/1/4
f 673/1/5 674/1/5 675/1/5 676/1/5
f 677/1/6 678/1/6 679/1/6 680/1/6
f 681/1/1 682/1/1 683/1/1 684/1/1
f 685/1/2 686/1/2 687/1/2 688/1/2
f 689/1/3 690/1/3 691/1/3 692/1/3
f 693/1/5 694/1/5 695/1/5 696/1/5
f 697/1/6 698/1/6 699/1/6 700/1/6
f 701/1/1 702/1/1 703/1/1 704/1/1
f 705/1/2 706/1/2 707/1/2 708/1/2
f 709/1/4 710/1/4 711/1/4 712/1/4
f 713/1/5 714/1/5 715/1/5 716/1/5
f 717/1/6 718/1/6 719/1/6 720/1/6
f 721/1/1 722/1/1 723/1/1 724/1/1
f 725/1/2 726/1/2 727/1/2 728/1/2
f 729/1/3 730/1/3 731/1/3 732/1/3
f 733/1/5 734/1/5 735/1/5 736/1/5
f 737/1/6 738/1/6 739/1/6 740/1/6
f 741/1/1 742/1/1 743/1/1 744/1/1
f 745/1/2 746/1/2 747/1/2 748/1/2
f 749/1/5 750/1/5 751/1/5 752/1/5
f 753/1/6 754/1/6 755/1/6 756/1/6
f 757/1/1 758/1/1 759/1/1 760/1/1
f 761/1/2 762/1/2 763/1/2 764/1/2
f 765/1/4 766/1/4 767/1/4 768/1/4
f 769/1/5 770/1/5 771/1/5 772/1/5
f 773/1/6 774/1/6 775/1/6 776/1/6
f 777/1/1 778/1/1 779/1/1 780/1/1
f 781/1/2 782/1/2 783/1/2 784/1/2
f 785/1/3 786/1/3 787/1/3 788/1/3
f 789/1/5 790/1/5 791/1/5 792/1/5
f 793/1/6 794/1/6 795/1/6 796/1/6
f 797/2/1 798/2/1 799/2/1 800/2/1
f 801/2/3 802/2/3 803/2/3 804/2/3
f 805/2/4 806/2/4 807/2/4 808/2/4
f 809/2/5 810/2/5 811/2/5 812/2/5
f 813/2/6 814/2/6 815/2/6 816/2/6
f 817/2/3 818/2/3 819/2/3 820/2/3
f 821/2/4 822/2/4 823/2/4 824/2/4
f 825/2/5 826/2/5 827/2/5 828/2/5
f 829/2/6 830/2/6 831/2/6 832/2/6
f 833/2/3 834/2/3 835/2/3 836/2/3
f 837/2/4 838/2/4 839/2/4 840/2/4
f 841/2/5 842/2/5 843/2/5 844/2/5
f 845/2/6 846/2/6 847/2/6 848/2/6
f 849/2/3 850/2/3 851/2/3 852/2/3
f 853/2/4 854/2/4 855/2/4 856/2/4
f 857/2/5 858/2/5 859/2/5 860/2/5
f 861/2/6 862/2/6 863/2/6 864/2/6
f 865/2/3 866/2/3 867/2/3 868/2/3
f 869/2/4 870/2/4 871/2/4 872/2/4
f 873/2/5 874/2/5 875/2/5 876/2/5
f 877/2/6 878/2/6 879/2/6 880/2/6
f 881/2/3 882/2/3 883/2/3 884/2/3
f 885/2/4 886/2/4 887/2/4 888/2/4
f 889/2/5 890/2/5 891/2/5 892/2/5
f 893/2/6 894/2/6 895/2/6 896/2/6
f 897/2/3 898/2/3 899/2/3 900/2/3
f 901/2/4 902/2/4 903/2/4 904/2/4
f 905/2/5 906/2/5 907/2/5 908/2/5
f 909/2/6 910/2/6 911/2/6 912/2/6
f 913/2/3 914/2/3 915/2/3 916/2/3
f 917/2/4 918/2/4 919/2/4 920/2/4
f 921/2/5 922/2/5 923/2/5 924/2/5
f 925/2/6 926/2/6 927/2/6 928/2/6
f 929/2/3 930/2/3 931/2/3 932/2/3
f 933/2/4 934/2/4 935/2/4 936/2/4
f 937/2/5 938/2/5 939/2/5 940/2/5
f 941/2/6 942/2/6 943/2/6 944/2/6
f 945/2/2 946/2/2 947/2/2 948/2/2
f 949/2/3 950/2/3 951/2/3 952/2/3
f 953/2/4 954/2/4 955/2/4 956/2/4
f 957/2/5 958/2/5 959/2/5 960/2/5
f 961/2/6 962/2/6 963/2/6 964/2/6
f 965/2/1 966/2/1 967/2/1 968/2/1
f 969/2/3 970/2/3 971/2/3 972/2/3
f 973/2/4 974/2/4 975/2/4 976/2/4
f 977/2/5 978/2/5 979/2/5 980/2/5
f 981/2/6 982/2/6 983/2/6 984/2/6
f 985/2/3 986/2/3 987/2/3 988/2/3
f 989/2/4 990/2/4 991/2/4 992/2/4
f 993/2/5 994/2/5 995/2/5 996/2/5
f 997/2/6 998/2/6 999/2/6 1000/2/6
f 1001/2/3 1002/2/3 1003/2/3 1004/2/3
f 1005/2/4 1006/2/4 1007/2/4 1008/2/4
f 1009/2/5 1010/2/5 1011/2/5 1012/2/5
f 1013/2/6 1014/2/6 1015/2/6 1016/2/6
f 1017/2/3 1018/2/3 1019/2/3 1020/2/3
f 1021/2/4 1022/2/4 1023/2/4 1024/2/4
f 1025/2/5 1026/2/5 1027/2/5 1028/2/5
f 1029/2/6 1030/2/6 1031/2/6 1032/2/6
f 1033/2/3 1034/2/3 1035/2/3 1036/2/3
f 1037/2/4 1038/2/4 1039/2/4 1040/2/4
f 1041/2/5 1042/2/5 1043/2/5 1044/2/5
f 1045/2/6 1046/2/6 1047/2/6 1048/2/6
f 1049/2/3 1050/2/3 1051/2/3 1052/2/3
f 1053/2/4 1054/2/4 1055/2/4 1056/2/4
f 1057/2/5 1058/2/5 1059/2/5 1060/2/5
f 1061/2/6 1062/2/6 1063/2/6 1064/2/6
f 1065/2/3 1066/2/3 1067/2/3 1068/2/3
f 1069/2/4 1070/2/4 1071/2/4 1072/2/4
f 1073/2/5 1074/2/5 1075/2/5 1076/2/5
f 1077/2/6 1078/2/6 1079/2/6 1080/2/6
f 1081/2/3 1082/2/3 1083/2/3 1084/2/3
f 1085/2/4 1086/2/4 1087/2/4 1088/2/4
f 1089/2/5 1090/2/5 1091/2/5 1092/2/5
f 1093/2/6 1094/2/6 1095/2/6 1096/2/6
f 1097/2/3 1098/2/3 1099/2/3 1100/2/3
f 1101/2/4 1102/2/4 1103/2/4 1104/2/4
f 1105/2/5 1106/2/5 1107/2/5 1108/2/5
f 1109/2/6 1110/2/6 1111/2/6 1112/2/6
f 1113/2/3 1114/2/3 1115/2/3 1116/2/3
f 1117/2/4 1118/2/4 1119/2/4 1120/2/4
f 1121/2/5 1122/2/5 1123/2/5 1124/2/5
f 1125/2/6 1126/2/6 1127/2/6 1128/2/6
f 1129/2/3 1130/2/3 1131/2/3 1132/2/3
f 1133/2/4 1134/2/4 1135/2/4 1136/2/4
f 1137/2/5 1138/2/5 1139/2/5 1140/2/5
f 1141/2/6 1142/2/6 1143/2/6 1144/2/6
f 1145/2/3 1146/2/3 1147/2/3 1148/2/3
f 1149/2/4 1150/2/4 1151/2/4 1152/2/4
f 1153/2/5 1154/2/5 1155/2/5 1156/2/5
f 1157/2/6 1158/2/6 1159/2/6 1160/2/6
f 1161/2/3 1162/2/3 1163/2/3 1164/2/3
f 1165/2/4 1166/2/4 1167/2/4 1168/2/4
f 1169/2/5 1170/2/5 1171/2/5 1172/2/5
f 1173/2/6 1174/2/6 1175/2/6 1176/2/6
f 1177/2/3 1178/2/3 1179/2/3 1180/2/3
f 1181/2/4 1182/2/4 1183/2/4 1184/2/4
f 1185/2/5 1186/2/5 1187/2/5 1188/2/5
f 1189/2/6 1190/2/6 1191/2/6 1192/2/6
f 1193/2/3 1194/2/3 1195/2/3 1196/2/3
f 1197/2/4 1198/2/4 1199/2/4 1200/2/4
f 1201/2/5 1202/2/5 1203/2/5 1204/2/5
f 1205/2/6 1206/2/6 1207/2/6 1208/2/6
f 1209/2/3 1210/2/3 1211/2/3 1212/2/3
f 1213/2/4 1214/2/4 1215/2/4 1216/2/4
f 1217/2/5 1218/2/5 1219/2/5 1220/2/5
f 1221/2/6 1222/2/6 1223/2/6 1224/2/6
f 1225/2/3 1226/2/3 1227/2/3 1228/2/3
f 1229/2/4 1230/2/4 1231/2/4 1232/2/4
f 1233/2/5 1234/2/5 1235/2/5 1236/2/5
f 1237/2/6 1238/2/6 1239/2/6 1240/2/6
f 1241/2/3 1242/2/3 1243/2/3 1244/2/3
f 1245/2/4 1246/2/4 1247/2/4 1248/2/4
f 1249/2/5 1250/2/5 1251/2/5 1252/2/5
f 1253/2/6 1254/2/6 1255/2/6 1256/2/6
f 1257/2/3 1258/2/3 1259/2/3 1260/2/3
f 1261/2/4 1262/2/4 1263/2/4 1264/2/4
f 1265/2/5 1266/2/5 1267/2/5 1268/2/5
f 1269/2/6 1270/2/6 1271/2/6 1272/2/6
f 1273/2/3 1274/2/3 1275/2/3 1276/2/3
f 1277/2/4 1278/2/4 1279/2/4 1280/2/4
f 1281/2/5 1282/2/5 1283/2/5 1284/2/5
f 1285/2/6 1286/2/6 1287/2/6 1288/2/6
f 1289/2/3 1290/2/3 1291/2/3 1292/2/3
f 1293/2/4 1294/2/4 1295/2/4 1296/2/4
f 1297/2/5 1298/2/5 1299/2/5 1300/2/5
f 1301/2/6 1302/2/6 1303/2/6 1304/2/6
f 1305/2/3 1306/2/3 1307/2/3 1308/2/3
f 1309/2/4 1310/2/4 1311/2/4 1312/2/4
f 1313/2/5 1314/2/5 1315/2/5 1316/2/5
f 1317/2/6 1318/2/6 1319/2/6 1320/2/6
f 1321/2/3 1322/2/3 1323/2/3 1324/2/3
f 1325/2/4 1326/2/4 1327/2/4 1328/2/4
f 1329/2/5 1330/2/5 1331/2/5 1332/2/5
f 1333/2/6 1334/2/6 1335/2/6 1336/2/6
f 1337/2/3 1338/2/3 1339/2/3 1340/2/3
f 1341/2/4 1342/2/4 1343/2/4 1344/2/4
f 1345/2/5 1346/2/5 1347/2/5 1348/2/5
f 1349/2/6 1350/2/6 1351/2/6 1352/2/6
f 1353/2/3 1354/2/3 1355/2/3 1356/2/3
f 1357/2/4 1358/2/4 1359/2/4 1360/2/4
f 1361/2/5 1362/2/5 1363/2/5 1364/2/5
f 1365/2/6 1366/2/6 1367/2/6 1368/2/6
f 1369/1/2 1370/1/2 1371/1/2 1372/1/2
f 1373/1/5 1374/1/5 1375/1/5 1376/1/5
f 1377/1/6 1378/1/6 1379/1/6 1380/1/6
f 1381/1/1 1382/1/1 1383/1/1 1384/1/1
f 1385/1/2 1386/1/2 1387/1/2 1388/1/2
f 1389/1/4 1390/1/4 1391/1/4 1392/1/4
f 1393/1/5 1394/1/5 1395/1/5 1396/1/5
f 1397/1/6 1398/1/6 1399/1/6 1400/1/6
f 1401/1/1 1402/1/1 1403/1/1 1404/1/1
f 1405/1/2 1406/1/2 1407/1/2 1408/1/2
f 1409/1/3 1410/1/3 1411/1/3 1412/1/3
f 1413/1/4 1414/1/4 1415/1/4 1416/1/4
f 1417/1/5 1418/1/5 1419/1/5 1420/1/5
f 1421/1/6 1422/1/6 1423/1/6 1424/1/6
f 1425/2/1 1426/2/1 1427/2/1 1428/2/1
f 1429/2/3 1430/2/3 1431/2/3 1432/2/3
f 1433/2/4 1434/2/4 1435/2/4 1436/2/4
f 1437/2/5 1438/2/5 1439/2/5 1440/2/5
f 1441/2/6 1442/2/6 1443/2/6 1444/2/6
f 1445/2/3 1446/2/3 1447/2/3 1448/2/3
f 1449/2/4 1450/2/4 1451/2/4 1452/2/4
f 1453/2/5 1454/2/5 1455/2/5 1456/2/5
f 1457/2/6 1458/2/6 1459/2/6 1460/2/6
f 1461/2/3 1462/2/3 1463/2/3 1464/2/3
f 1465/2/4 1466/2/4 1467/2/4 1468/2/4
f 1469/2/5 1470/2/5 1471/2/5 1472/2/5
f 1473/2/6 1474/2/6 1475/2/6 1476/2/6
f 1477/2/3 1478/2/3 1479/2/3 1480/2/3
f 1481/2/4 1482/2/4 1483/2/4 1484/2/4
f 1485/2/5 1486/2/5 1487/2/5 1488/2/5
f 1489/2/6 1490/2/6 1491/2/6 1492/2/6
f 1493/2/3 1494/2/3 1495/2/3 1496/2/3
f 1497/2/4 1498/2/4 1499/2/4 1500/2/4
f 1501/2/5 1502/2/5 1503/2/5 1504/2/5
f 1505/2/6 1506/2/6 1507/2/6 1508/2/6
f 1509/2/3 1510/2/3 1511/2/3 1512/2/3
f 1513/2/4 1514/2/4 1515/2/4 1516/2/4
f 1517/2/5 1518/2/5 1519/2/5 1520/2/5
f 1521/2/6 1522/2/6 1523/2/6 1524/2/6
f 1525/2/3 1526/2/3 1527/2/3 1528/2/3
f 1529/2/4 1530/2/4 1531/2/4 1532/2/4
f 1533/2/5 1534/2/5 1535/2/5 1536/2/5
f 1537/2/6 1538/2/6 1539/2/6 1540/2/6
f 1541/2/3 1542/2/3 1543/2/3 1544/2/3
f 1545/2/4 1546/2/4 1547/2/4 1548/2/4
f 1549/2/5 1550/2/5 1551/2/5 1552/2/5
f 1553/2/6 1554/2/6 1555/2/6 1556/2/6
f 1557/2/3 1558/2/3 1559/2/3 1560/2/3
f 1561/2/4 1562/2/4 1563/2/4 1564/2/4
f 1565/2/5 1566/2/5 1567/2/5 1568/2/5
f 1569/2/6 1570/2/6 1571/2/6 1572/2/6
f 1573/2/3 1574/2/3 1575/2/3 1576/2/3
f 1577/2/4 1578/2/4 1579/2/4 1580/2/4
f 1581/2/5 1582/2/5 1583/2/5 1584/2/5
f 1585/2/6 1586/2/6 1587/2/6 1588/2/6
f 1589/2/2 1590/2/2 1591/2/2 1592/2/2
f 1593/2/3 1594/2/3 1595/2/3 1596/2/3
f 1597/2/4 1598/2/4 1599/2/4 1600/2/4
f 1601/2/5 1602/2/5 1603/2/5 1604/2/5
f 1605/2/6 1606/2/6 1607/2/6 1608/2/6
f 1609/2/1 1610/2/1 1611/2/1 1612/2/1
f 1613/2/3 1614/2/3 1615/2/3 1616/2/3
f 1617/2/4 1618/2/4 1619/2/4 1620/2/4
f 1621/2/5 1622/2/5 1623/2/5 1624/2/5
f 1625/2/6 1626/2/6 1627/2/6 1628/2/6
f 1629/2/3 1630/2/3 1631/2/3 1632/2/3
f 1633/2/4 1634/2/4 1635/2/4 1636/2/4
f 1637/2/5 1638/2/5 1639/2/5 1640/2/5
f 1641/2/6 1642/2/6 1643/2/6 1644/2/6
f 1645/2/3 1646/2/3 1647/2/3 1648/2/3
f 1649/2/4 1650/2/4 1651/2/4 1652/2/4
f 1653/2/5 1654/2/5 1655/2/5 1656/2/5
f 1657/2/6 1658/2/6 1659/2/6 1660/2/6
f 1661/2/3 1662/2/3 1663/2/3 1664/2/3
f 1665/2/4 1666/2/4 1667/2/4 1668/2/4
f 1669/2/5 1670/2/5 1671/2/5 1672/2/5
f 1673/2/6 1674/2/6 1675/2/6 1676/2/6
f 1677/2/3 1678/2/3 1679/2/3 1680/2/3
f 1681/2/4 1682/2/4 1683/2/4 1684/2/4
f 1685/2/5 1686/2/5 1687/2/5 1688/2/5
f 1689/2/6 1690/2/6 1691/2/6 1692/2/6
f 1693/2/3 1694/2/3 1695/2/3 1696/2/3
f 1697/2/4 1698/2/4 1699/2/4 1700/2/4
f 1701/2/5 1702/2/5 1703/2/5 1704/2/5
f 1705/2/6 1706/2/6 1707/2/6 1708/2/6
f 1709/2/3 1710/2/3 1711/2/3 1712/2/3
f 1713/2/4 1714/2/4 1715/2/4 1716/2/4
f 1717/2/5 1718/2/5 1719/2/5 1720/2/5
f 1721/2/6 1722/2/6 1723/2/6 1724/2/6
f 1725/2/3 1726/2/3 1727/2/3 1728/2/3
f 1729/2/4 1730/2/4 1731/2/4 1732/2/4
f 1733/2/5 1734/2/5 1735/2/5 1736/2/5
f 1737/2/6 1738/2/6 1739/2/6 1740/2/6
f 1741/2/3 1742/2/3 1743/2/3 1744/2/3
f 1745/2/4 1746/2/4 1747/2/4 1748/2/4
f 1749/2/5 1750/2/5 1751/2/5 1752/2/5
f 1753/2/6 1754/2/6 1755/2/6 1756/2/6
f 1757/2/3 1758/2/3 1759/2/3 1760/2/3
f 1761/2/4 1762/2/4 1763/2/4 1764/2/4
f 1765/2/5 1766/2/5 1767/2/5 1768/2/5
f 1769/2/6 1770/2/6 1771/2/6 1772/2/6
f 1773/2/3 1774/2/3 1775/2/3 1776/2/3
f 1777/2/4 1778/2/4 1779/2/4 1780/2/4
f 1781/2/5 1782/2/5 1783/2/5 1784/2/5
f 1785/2/6 1786/2/6 1787/2/6 1788/2/6
f 1789/2/3 1790/2/3 1791/2/3 1792/2/3
f 1793/2/4 1794/2/4 1795/2/4 1796/2/4
f 1797/2/5 1798/2/5 1799/2/5 1800/2/5
f 1801/2/6 1802/2/6 1803/2/6 1804/2/6
f 1805/2/3 1806/2/3 1807/2/3 1808/2/3
f 1809/2/4 1810/2/4 1811/2/4 1812/2/4
f 1813/2/5 1814/2/5 1815/2/5 1816/2/5
f 1817/2/6 1818/2/6 1819/2/6 1820/2/6
f 1821/2/3 1822/2/3 1823/2/3 1824/2/3
f 1825/2/4 1826/2/4 1827/2/4 1828/2/4
f 1829/2/5 1830/2/5 1831/2/5 1832/2/5
f 1833/2/6 1834/2/6 1835/2/6 1836/2/6
f 1837/2/3 1838/2/3 1839/2/3 1840/2/3
f 1841/2/4 1842/2/4 1843/2/4 1844/2/4
f 1845/2/5 1846/2/5 1847/2/5 1848/2/5
f 1849/2/6 1850/2/6 1851/2/6 1852/2/6
f 1853/2/3 1854/2/3 1855/2/3 1856/2/3
f 1857/2/4 1858/2/4 1859/2/4 1860/2/4
f 1861/2/5 1862/2/5 1863/2/5 1864/2/5
f 1865/2/6 1866/2/6 1867/2/6 1868/2/6
f 1869/2/3 1870/2/3 1871/2/3 1872/2/3
f 1873/2/4 1874/2/4 1875/2/4 1876/2/4
f 1877/2/5 1878/2/5 1879/2/5 1880/2/5
f 1881/2/6 1882/2/6 1883/2/6 1884/2/6
f 1885/2/2 1886/2/2 1887/2/2 1888/2/2
f 1889/2/3 1890/2/3 1891/2/3 1892/2/3
f 1893/2/4 1894/2/4 1895/2/4 1896/2/4
f 1897/2/5 1898/2/5 1899/2/5 1900/2/5
f 1901/2/6 1902/2/6 1903/2/6 1904/2/6
f 1905/2/1 1906/2/1 1907/2/1 1908/2/1
f 1909/2/3 1910/2/3 1911/2/3 1912/2/3
f 1913/2/4 1914/2/4 1915/2/4 1916/2/4
f 1917/2/5 1918/2/5 1919/2/5 1920/2/5
f 1921/2/6 1922/2/6 1923/2/6 1924/2/6
f 1925/2/3 1926/2/3 1927/2/3 1928/2/3
f 1929/2/4 1930/2/4 1931/2/4 1932/2/4
f 1933/2/5 1934/2/5 1935/2/5 1936/2/5
f 1937/2/6 1938/2/6 1939/2/6 1940/2/6
f 1941/2/3 1942/2/3 1943/2/3 1944/2/3
f 1945/2/4 1946/2/4 1947/2/4 1948/2/4
f 1949/2/5 1950/2/5 1951/2/5 1952/2/5
f 1953/2/6 1954/2/6 1955/2/6 1956/2/6
f 1957/2/2 1958/2/2 1959/2/2 1960/2/2
f 1961/2/3 1962/2/3 1963/2/3 1964/2/3
f 1965/2/4 1966/2/4 1967/2/4 1968/2/4
f 1969/2/5 1970/2/5 1971/2/5 1972/2/5
f 1973/2/6 1974/2/6 1975/2/6 1976/2/6
f 1977/1/1 1978/1/1 1979/1/1 1980/1/1
f 1981/1/2 1982/1/2 1983/1/2 1984/1/2
f 1985/1/3 1986/1/3 1987/1/3 1988/1/3
f 1989/1/4 1990/1/4 1991/1/4 1992/1/4
f 1993/1/5 1994/1/5 1995/1/5 1996/1/5
f 1997/1/6 1998/1/6 1999/1/6 2000/1/6
f 2001/2/1 2002/2/1 2003/2/1 2004/2/1
f 2005/2/3 2006/2/3 2007/2/3 2008/2/3
f 2009/2/4 2010/2/4 2011/2/4 2012/2/4
f 2013/2/5 2014/2/5 2015/2/5 2016/2/5
f 2017/2/6 2018/2/6 2019/2/6 2020/2/6
f 2021/2/3 2022/2/3 2023/2/3 2024/2/3
f 2025/2/4 2026/2/4 2027/2/4 2028/2/4
f 2029/2/5 2030/2/5 2031/2/5 2032/2/5
f 2033/2/6 2034/2/6 2035/2/6 2036/2/6
f 2037/2/3 2038/2/3 2039/2/3 2040/2/3
f 2041/2/4 2042/2/4 2043/2/4 2044/2/4
f 2045/2/5 2046/2/5 2047/2/5 2048/2/5
f 2049/2/6 2050/2/6 2051/2/6 2052/2/6
f 2053/2/3 2054/2/3 2055/2/3 2056/2/3
f 2057/2/4 2058/2/4 2059/2/4 2060/2/4
f 2061/2/5 2062/2/5 2063/2/5 2064/2/5
f 2065/2/6 2066/2/6 2067/2/6 2068/2/6
f 2069/2/3 2070/2/3 2071/2/3 2072/2/3
f 2073/2/4 2074/2/4 2075/2/4 2076/2/4
f 2077/2/5 2078/2/5 2079/2/5 2080/2/5
f 2081/2/6 2082/2/6 2083/2/6 2084/2/6
f 2085/2/3 2086/2/3 2087/2/3 2088/2/3
f 2089/2/4 2090/2/4 2091/2/4 2092/2/4
f 2093/2/5 2094/2/5 2095/2/5 2096/2/5
f 2097/2/6 2098/2/6 2099/2/6 2100/2/6
f 2101/2/3 2102/2/3 2103/2/3 2104/2/3
f 2105/2/4 2106/2/4 2107/2/4 2108/2/4
f 2109/2/5 2110/2/5 2111/2/5 2112/2/5
f 2113/2/6 2114/2/6 2115/2/6 2116/2/6
f 2117/2/3 2118/2/3 2119/2/3 2120/2/3
f 2121/2/4 2122/2/4 2123/2/4 2124/2/4
f 2125/2/5 2126/2/5 2127/2/5 2128/2/5
f 2129/2/6 2130/2/6 2131/2/6 2132/2/6
f 2133/1/2 2134/1/2 2135/1/2 2136/1/2
f 2137/1/3 2138/1/3 2139/1/3 2140/1/3
f 2141/1/5 2142/1/5 2143/1/5 2144/1/5
f 2145/1/6 2146/1/6 2147/1/6 2148/1/6
f 2149/1/1 2150/1/1 2151/1/1 2152/1/1
f 2153/1/2 2154/1/2 2155/1/2 2156/1/2
f 2157/1/5 2158/1/5 2159/1/5 2160/1/5
f 2161/1/6 2162/1/6 2163/1/6 2164/1/6
f 2165/1/1 2166/1/1 2167/1/1 2168/1/1
f 2169/1/2 2170/1/2 2171/1/2 2172/1/2
f 2173/1/4 2174/1/4 2175/1/4 2176/1/4
f 2177/1/5 2178/1/5 2179/1/5 2180/1/5
f 2181/1/6 2182/1/6 2183/1/6 2184/1/6
f 2185/1/1 2186/1/1 2187/1/1 2188/1/1
f 2189/1/2 2190/1/2 2191/1/2 2192/1/2
f 2193/1/3 2194/1/3 2195/1/3 2196/1/3
f 2197/1/5 2198/1/5 2199/1/5 2200/1/5
f 2201/1/6 2202/1/6 2203/1/6 2204/1/6
f 2205/1/1 2206/1/1 2207/1/1 2208/1/1
f 2209/1/2 2210/1/2 2211/1/2 2212/1/2
f 2213/1/5 2214/1/5 2215/1/5 2216/1/5
f 2217/1/6 2218/1/6 2219/1/6 2220/1/6
f 2221/1/1 2222/1/1 2223/1/1 2224/1/1
f 2225/1/2 2226/1/2 2227/1/2 2228/1/2
f 2229/1/4 2230/1/4 2231/1/4 2232/1/4
f 2233/1/5 2234/1/5 2235/1/5 2236/1/5
f 2237/1/6 2238/1/6 2239/1/6 2240/1/6
f 2241/1/1 2242/1/1 2243/1/1 2244/1/1
f 2245/1/2 2246/1/2 2247/1/2 2248/1/2
f 2249/1/3 2250/1/3 2251/1/3 2252/1/3
f 2253/1/5 2254/1/5 2255/1/5 2256/1/5
f 2257/1/6 2258/1/6 2259/1/6 2260/1/6
f 2261/1/1 2262/1/1 2263/1/1 2264/1/1
f 2265/1/2 2266/1/2 2267/1/2 2268/1/2
f 2269/1/5 2270/1/5 2271/1/5 2272/1/5
f 2273/1/6 2274/1/6 2275/1/6 2276/1/6
f 2277/1/1 2278/1/1 2279/1/1 2280/1/1
f 2281/1/2 2282/1/2 2283/1/2 2284/1/2
f 2285/1/4 2286/1/4 2287/1/4 2288/1/4
f 2289/1/5 2290/1/5 2291/1/5 2292/1/5
f 2293/1/6 2294/1/6 2295/1/6 2296/1/6
f 2297/1/1 2298/1/1 2299/1/1 2300/1/1
f 2301/1/2 2302/1/2 2303/1/2 2304/1/2
f 2305/1/3 2306/1/3 2307/1/3 2308/1/3
f 2309/1/5 2310/1/5 2311/1/5 2312/1/5
f 2313/1/6 2314/1/6 2315/1/6 2316/1/6
f 2317/1/1 2318/1/1 2319/1/1 2320/1/1
f 2321/1/2 2322/1/2 2323/1/2 2324/1/2
f 2325/1/5 2326/1/5 2327/1/5 2328/1/5
f 2329/1/6 2330/1/6 2331/1/6 2332/1/6
f 2333/1/1 2334/1/1 2335/1/1 2336/1/1
f 2337/1/2 2338/1/2 2339/1/2 2340/1/2
f 2341/1/4 2342/1/4 2343/1/4 2344/1/4
f 2345/1/5 2346/1/5 2347/1/5 2348/1/5
f 2349/1/6 2350/1/6 2351/1/6 2352/1/6
f 2353/1/1 2354/1/1 2355/1/1 2356/1/1
f 2357/1/2 2358/1/2 2359/1/2 2360/1/2
f 2361/1/3 2362/1/3 2363/1/3 2364/1/3
f 2365/1/5 2366/1/5 2367/1/5 2368/1/5
f 2369/1/6 2370/1/6 2371/1/6 2372/1/6
f 2373/1/1 2374/1/1 2375/1/1 2376/1/1
f 2377/1/2 2378/1/2 2379/1/2 2380/1/2
f 2381/1/5 2382/1/5 2383/1/5 2384/1/5
f 2385/1/6 2386/1/6 2387/1/6 2388/1/6
f 2389/1/1 2390/1/1 2391/1/1 2392/1/1
f 2393/1/2 2394/1/2 2395/1/2 2396/1/2
f 2397/1/5 2398/1/5 2399/1/5 2400/1/5
f 2401/1/6 2402/1/6 2403/1/6 2404/1/6
f 2405/1/1 2406/1/1 2407/1/1 2408/1/1
f 2409/1/2 2410/1/2 2411/1/2 2412/1/2
f 2413/1/4 2414/1/4 2415/1/4 2416/1/4
f 2417/1/5 2418/1/5 2419/1/5 2420/1/5
f 2421/1/6 2422/1/6 2423/1/6 2424/1/6
f 2425/1/1 2426/1/1 2427/1/1 2428/1/1
f 2429/1/2 2430/1/2 2431/1/2 2432/1/2
f 2433/1/3 2434/1/3 2435/1/3 2436/1/3
f 2437/1/5 2438/1/5 2439/1/5 2440/1/5
f 2441/1/6 2442/1/6 2443/1/6 2444/1/6
f 2445/1/1 2446/1/1 2447/1/1 2448/1/1
f 2449/1/2 2450/1/2 2451/1/2 2452/1/2
f 2453/1/5 2454/1/5 2455/1/5 2456/1/5
f 2457/1/6 2458/1/6 2459/1/6 2460/1/6
f 2461/1/1 2462/1/1 2463/1/1 2464/1/1
f 2465/1/2 2466/1/2 2467/1/2 2468/1/2
f 2469/1/4 2470/1/4 2471/1/4 2472/1/4
f 2473/1/5 2474/1/5 2475/1/5 2476/1/5
f 2477/1/6 2478/1/6 2479/1/6 2480/1/6
f 2481/1/1 2482/1/1 2483/1/1 2484/1/1
f 2485/1/2 2486/1/2 2487/1/2 2488/1/2
f 2489/1/3 2490/1/3 2491/1/3 2492/1/3
f 2493/1/5 2494/1/5 2495/1/5 2496/1/5
f 2497/1/6 2498/1/6 2499/1/6 2500/1/6
f 2501/1/1 2502/1/1 2503/1/1 2504/1/1
f 2505/1/2 2506/1/2 2507/1/2 2508/1/2
f 2509/1/5 2510/1/5 2511/1/5 2512/1/5
f 2513/1/6 2514/1/6 2515/1/6 2516/1/6
f 2517/1/1 2518/1/1 2519/1/1 2520/1/1
f 2521/1/2 2522/1/2 2523/1/2 2524/1/2
f 2525/1/4 2526/1/4 2527/1/4 2528/1/4
f 2529/1/5 2530/1/5 2531/1/5 2532/1/5
f 2533/1/6 2534/1/6 2535/1/6 2536/1/6
f 2537/1/1 2538/1/1 2539/1/1 2540/1/1
f 2541/1/2 2542/1/2 2543/1/2 2544/1/2
f 2545/1/3 2546/1/3 2547/1/3 2548/1/3
f 2549/1/5 2550/1/5 2551/1/5 2552/1/5
f 2553/1/6 2554/1/6 2555/1/6 2556/1/6
f 2557/1/1 2558/1/1 2559/1/1 2560/1/1
f 2561/1/2 2562/1/2 2563/1/2 2564/1/2
f 2565/1/5 2566/1/5 2567/1/5 2568/1/5
f 2569/1/6 2570/1/6 2571/1/6 2572/1/6
f 2573/1/1 2574/1/1 2575/1/1 2576/1/1
f 2577/1/2 2578/1/2 2579/1/2 2580/1/2
f 2581/1/4 2582/1/4 2583/1/4 2584/1/4
f 2585/1/5 2586/1/5 2587/1/5 2588/1/5
f 2589/1/6 2590/1/6 2591/1/6 2592/1/6
f 2593/1/1 2594/1/1 2595/1/1 2596/1/1
f 2597/1/2 2598/1/2 2599/1/2 2600/1/2
f 2601/1/3 2602/1/3 2603/1/3 2604/1/3
f 2605/1/5 2606/1/5 2607/1/5 2608/1/5
f 2609/1/6 2610/1/6 2611/1/6 2612/1/6
f 2613/1/1 2614/1/1 2615/1/1 2616/1/1
f 2617/1/2 2618/1/2 2619/1/2 2620/1/2
f 2621/1/5 2622/1/5 2623/1/5 2624/1/5
f 2625/1/6 2626/1/6 2627/1/6 2628/1/6
f 2629/1/1 2630/1/1 2631/1/1 2632/1/1
f 2633/1/2 2634/1/2 2635/1/2 2636/1/2
f 2637/1/4 2638/1/4 2639/1/4 2640/1/4
f 2641/1/5 2642/1/5 2643/1/5 2644/1/5
f 2645/1/6 2646/1/6 2647/1/6 2648/1/6
f 2649/1/1 2650/1/1 2651/1/1 2652/1/1
f 2653/1/2 2654/1/2 2655/1/2 2656/1/2
f 2657/1/3 2658/1/3 2659/1/3 2660/1/3
f 2661/1/5 2662/1/5 2663/1/5 2664/1/5
f 2665/1/6 2666/1/6 2667/1/6 2668/1/6
f 2669/1/1 2670/1/1 2671/1/1 2672/1/1
f 2673/1/2 2674/1/2 2675/1/2 2676/1/2
f 2677/1/5 2678/1/5 2679/1/5 2680/1/5
f 2681/1/6 2682/1/6 2683/1/6 2684/1/6
f 2685/1/1 2686/1/1 2687/1/1 2688/1/1
f 2689/1/2 2690/1/2 2691/1/2 2692/1/2
f 2693/1/4 2694/1/4 2695/1/4 2696/1/4
f 2697/1/5 2698/1/5 2699/1/5 2700/1/5
f 2701/1/6 2702/1/6 2703/1/6 2704/1/6
f 2705/1/1 2706/1/1 2707/1/1 2708/1/1
f 2709/1/2 2710/1/2 2711/1/2 2712/1/2
f 2713/1/3 2714/1/3 2715/1/3 2716/1/3
f 2717/1/5 2718/1/5 2719/1/5 2720/1/5
f 2721/1/6 2722/1/6 2723/1/6 2724/1/6
f 2725/1/1 2726/1/1 2727/1/1 2728/1/1
f 2729/1/2 2730/1/2 2731/1/2 2732/1/2
f 2733/1/5 2734/1/5 2735/1/5 2736/1/5
f 2737/1/6 2738/1/6 2739/1/6 2740/1/6
f 2741/1/1 2742/1/1 2743/1/1 2744/1/1
f 2745/1/2 2746/1/2 2747/1/2 2748/1/2
f 2749/1/4 2750/1/4 2751/1/4 2752/1/4
f 2753/1/5 2754/1/5 2755/1/5 2756/1/5
f 2757/1/6 2758/1/6 2759/1/6 2760/1/6
f 2761/1/1 2762/1/1 2763/1/1 2764/1/1
f 2765/1/2 2766/1/2 2767/1/2 2768/1/2
f 2769/1/3 2770/1/3 2771/1/3 2772/1/3
f 2773/1/5 2774/1/5 2775/1/5 2776/1/5
f 2777/1/6 2778/1/6 2779/1/6 2780/1/6
f 2781/1/1 2782/1/1 2783/1/1 2784/1/1
f 2785/1/2 2786/1/2 2787/1/2 2788/1/2
f 2789/1/5 2790/1/5 2791/1/5 2792/1/5
f 2793/1/6 2794/1/6 2795/1/6 2796/1/6
f 2797/1/1 2798/1/1 2799/1/1 2800/1/1
f 2801/1/2 2802/1/2 2803/1/2 2804/1/2
f 2805/1/4 2806/1/4 2807/1/4 2808/1/4
f 2809/1/5 2810/1/5 2811/1/5 2812/1/5
f 2813/1/6 2814/1/6 2815/1/6 2816/1/6
f 2817/1/1 2818/1/1 2819/1/1 2820/1/1
f 2821/1/2 2822/1/2 2823/1/2 2824/1/2
f 2825/1/3 2826/1/3 2827/1/3 2828/1/3
f 2829/1/5 2830/1/5 2831/1/5 2832/1/5
f 2833/1/6 2834/1/6 2835/1/6 2836/1/6
f 2837/1/1 2838/1/1 2839/1/1 2840/1/1
f 2841/1/2 2842/1/2 2843/1/2 2844/1/2
f 2845/1/5 2846/1/5 2847/1/5 2848/1/5
f 2849/1/6 2850/1/6 2851/1/6 2852/1/6
f 2853/1/1 2854/1/1 2855/1/1 2856/1/1
f 2857/1/2 2858/1/2 2859/1/2 2860/1/2
f 2861/1/4 2862/1/4 2863/1/4 2864/1/4
f 2865/1/5 2866/1/5 2867/1/5 2868/1/5
f 2869/1/6 2870/1/6 2871/1/6 2872/1/6
f 2873/1/1 2874/1/1 2875/1/1 2876/1/1
f 2877/1/2 2878/1/2 2879/1/2 2880/1/2
f 2881/1/3 2882/1/3 2883/1/3 2884/1/3
f 2885/1/5 2886/1/5 2887/1/5 2888/1/5
f 2889/1/6 2890/1/6 2891/1/6 2892/1/6
f 2893/1/1 2894/1/1 2895/1/1 2896/1/1
f 2897/1/2 2898/1/2 2899/1/2 2900/1/2
f 2901/1/5 2902/1/5 2903/1/5 2904/1/5
f 2905/1/6 2906/1/6 2907/1/6 2908/1/6
f 2909/1/1 2910/1/1 2911/1/1 2912/1/1
f 2913/1/2 2914/1/2 2915/1/2 2916/1/2
f 2917/1/4 2918/1/4 2919/1/4 2920/1/4
f 2921/1/5 2922/1/5 2923/1/5 2924/1/5
f 2925/1/6 2926/1/6 2927/1/6 2928/1/6
f 2929/1/1 2930/1/1 2931/1/1 2932/1/1
f 2933/1/2 2934/1/2 2935/1/2 2936/1/2
f 2937/1/3 2938/1/3 2939/1/3 2940/1/3
f 2941/1/5 2942/1/5 2943/1/5 2944/1/5
f 2945/1/6 2946/1/6 2947/1/6 2948/1/6
f 2949/1/1 2950/1/1 2951/1/1 2952/1/1
f 2953/1/2 2954/1/2 2955/1/2 2956/1/2
f 2957/1/5 2958/1/5 2959/1/5 2960/1/5
f 2961/1/6 2962/1/6 2963/1/6 2964/1/6
f 2965/1/1 2966/1/1 2967/1/1 2968/1/1
f 2969/1/2 2970/1/2 2971/1/2 2972/1/2
f 2973/1/4 2974/1/4 2975/1/4 2976/1/4
f 2977/1/5 2978/1/5 2979/1/5 2980/1/5
f 2981/1/6 2982/1/6 2983/1/6 2984/1/6
f 2985/1/1 2986/1/1 2987/1/1 2988/1/1
f 2989/1/2 2990/1/2 2991/1/2 2992/1/2
f 2993/1/3 2994/1/3 2995/1/3 2996/1/3
f 2997/1/5 2998/1/5 2999/1/5 3000/1/5
f 3001/1/6 3002/1/6 3003/1/6 3004/1/6
f 3005/1/1 3006/1/1 3007/1/1 3008/1/1
f 3009/1/2 3010/1/2 3011/1/2 3012/1/2
f 3013/1/5 3014/1/5 3015/1/5 3016/1/5
f 3017/1/6 3018/1/6 3019/1/6 3020/1/6
f 3021/1/1 3022/1/1 3023/1/1 3024/1/1
f 3025/1/2 3026/1/2 3027/1/2 3028/1/2
f 3029/1/4 3030/1/4 3031/1/4 3032/1/4
f 3033/1/5 3034/1/5 3035/1/5 3036/1/5
f 3037/1/6 3038/1/6 3039/1/6 3040/1/6
f 3041/1/1 3042/1/1 3043/1/1 3044/1/1
f 3045/1/2 3046/1/2 3047/1/2 3048/1/2
f 3049/1/3 3050/1/3 3051/1/3 3052/1/3
f 3053/1/4 3054/1/4 3055/1/4 3056/1/4
f 3057/1/5 3058/1/5 3059/1/5 3060/1/5
f 3061/1/6 3062/1/6 3063/1/6 3064/1/6

