# generated by vox_to_obj_exporter
# scale=0.1 center=false ground=false y_up=true

mtllib Fight_103.mtl
usemtl palette

# normals
vn -1 0 0
vn 1 0 0
vn 0 1 0
vn 0 -1 0
vn 0 0 1
vn 0 0 -1

# texcoords
vt 0.005859375 0.5

# verts
v 8.1 8.1 -2.6
v 8.1 8 -2.6
v 8.1 8 -2.5
v 8.1 8.1 -2.5
v 8.1 8.1 -2.6
v 8.1 8.1 -2.5
v 8.2 8.1 -2.5
v 8.2 8.1 -2.6
v 8.1 8.1 -2.5
v 8.1 8 -2.5
v 8.2 8 -2.5
v 8.2 8.1 -2.5
v 8.2 8.1 -2.6
v 8.2 8 -2.6
v 8.1 8 -2.6
v 8.1 8.1 -2.6
v 8.2 8.1 -2.6
v 8.2 8.1 -2.5
v 8.3 8.1 -2.5
v 8.3 8.1 -2.6
v 8.2 8.1 -2.5
v 8.2 8 -2.5
v 8.3 8 -2.5
v 8.3 8.1 -2.5
v 8.3 8.1 -2.6
v 8.3 8 -2.6
v 8.2 8 -2.6
v 8.2 8.1 -2.6
v 8.3 8.1 -2.6
v 8.3 8.1 -2.5
v 8.4 8.1 -2.5
v 8.4 8.1 -2.6
v 8.3 8.1 -2.5
v 8.3 8 -2.5
v 8.4 8 -2.5
v 8.4 8.1 -2.5
v 8.4 8.1 -2.6
v 8.4 8 -2.6
v 8.3 8 -2.6
v 8.3 8.1 -2.6
v 8.5 8.1 -2.5
v 8.5 8 -2.5
v 8.5 8 -2.6
v 8.5 8.1 -2.6
v 8.4 8.1 -2.6
v 8.4 8.1 -2.5
v 8.5 8.1 -2.5
v 8.5 8.1 -2.6
v 8.4 8.1 -2.5
v 8.4 8 -2.5
v 8.5 8 -2.5
v 8.5 8.1 -2.5
v 8.5 8.1 -2.6
v 8.5 8 -2.6
v 8.4 8 -2.6
v 8.4 8.1 -2.6
v 7.9 8 -2.6
v 7.9 7.9 -2.6
v 7.9 7.9 -2.5
v 7.9 8 -2.5
v 7.9 8 -2.6
v 7.9 8 -2.5
v 8 8 -2.5
v 8 8 -2.6
v 7.9 8 -2.5
v 7.9 7.9 -2.5
v 8 7.9 -2.5
v 8 8 -2.5
v 8 8 -2.6
v 8 7.9 -2.6
v 7.9 7.9 -2.6
v 7.9 8 -2.6
v 8 8 -2.6
v 8 8 -2.5
v 8.1 8 -2.5
v 8.1 8 -2.6
v 8 8 -2.5
v 8 7.9 -2.5
v 8.1 7.9 -2.5
v 8.1 8 -2.5
v 8.1 8 -2.6
v 8.1 7.9 -2.6
v 8 7.9 -2.6
v 8 8 -2.6
v 8.1 8 -2.5
v 8.1 7.9 -2.5
v 8.2 7.9 -2.5
v 8.2 8 -2.5
v 8.2 8 -2.6
v 8.2 7.9 -2.6
v 8.1 7.9 -2.6
v 8.1 8 -2.6
v 8.2 8 -2.5
v 8.2 7.9 -2.5
v 8.3 7.9 -2.5
v 8.3 8 -2.5
v 8.3 8 -2.6
v 8.3 7.9 -2.6
v 8.2 7.9 -2.6
v 8.2 8 -2.6
v 8.3 8 -2.5
v 8.3 7.9 -2.5
v 8.4 7.9 -2.5
v 8.4 8 -2.5
v 8.4 8 -2.6
v 8.4 7.9 -2.6
v 8.3 7.9 -2.6
v 8.3 8 -2.6
v 8.4 7.9 -2.5
v 8.4 7.9 -2.6
v 8.5 7.9 -2.6
v 8.5 7.9 -2.5
v 8.4 8 -2.5
v 8.4 7.9 -2.5
v 8.5 7.9 -2.5
v 8.5 8 -2.5
v 8.5 8 -2.6
v 8.5 7.9 -2.6
v 8.4 7.9 -2.6
v 8.4 8 -2.6
v 8.6 8 -2.5
v 8.6 7.9 -2.5
v 8.6 7.9 -2.6
v 8.6 8 -2.6
v 8.5 8 -2.6
v 8.5 8 -2.5
v 8.6 8 -2.5
v 8.6 8 -2.6
v 8.5 7.9 -2.5
v 8.5 7.9 -2.6
v 8.6 7.9 -2.6
v 8.6 7.9 -2.5
v 8.5 8 -2.5
v 8.5 7.9 -2.5
v 8.6 7.9 -2.5
v 8.6 8 -2.5
v 8.6 8 -2.6
v 8.6 7.9 -2.6
v 8.5 7.9 -2.6
v 8.5 8 -2.6
v 7.7 7.9 -2.6
v 7.7 7.8 -2.6
v 7.7 7.8 -2.5
v 7.7 7.9 -2.5
v 7.7 7.9 -2.6
v 7.7 7.9 -2.5
v 7.8 7.9 -2.5
v 7.8 7.9 -2.6
v 7.7 7.9 -2.5
v 7.7 7.8 -2.5
v 7.8 7.8 -2.5
v 7.8 7.9 -2.5
v 7.8 7.9 -2.6
v 7.8 7.8 -2.6
v 7.7 7.8 -2.6
v 7.7 7.9 -2.6
v 7.8 7.9 -2.6
v 7.8 7.9 -2.5
v 7.9 7.9 -2.5
v 7.9 7.9 -2.6
v 7.8 7.9 -2.5
v 7.8 7.8 -2.5
v 7.9 7.8 -2.5
v 7.9 7.9 -2.5
v 7.9 7.9 -2.6
v 7.9 7.8 -2.6
v 7.8 7.8 -2.6
v 7.8 7.9 -2.6
v 7.9 7.9 -2.5
v 7.9 7.8 -2.5
v 8 7.8 -2.5
v 8 7.9 -2.5
v 8 7.9 -2.6
v 8 7.8 -2.6
v 7.9 7.8 -2.6
v 7.9 7.9 -2.6
v 8 7.9 -2.5
v 8 7.8 -2.5
v 8.1 7.8 -2.5
v 8.1 7.9 -2.5
v 8.1 7.9 -2.6
v 8.1 7.8 -2.6
v 8 7.8 -2.6
v 8 7.9 -2.6
v 8.1 7.9 -2.5
v 8.1 7.8 -2.5
v 8.2 7.8 -2.5
v 8.2 7.9 -2.5
v 8.2 7.9 -2.6
v 8.2 7.8 -2.6
v 8.1 7.8 -2.6
v 8.1 7.9 -2.6
v 8.2 7.8 -2.5
v 8.2 7.8 -2.6
v 8.3 7.8 -2.6
v 8.3 7.8 -2.5
v 8.2 7.9 -2.5
v 8.2 7.8 -2.5
v 8.3 7.8 -2.5
v 8.3 7.9 -2.5
v 8.3 7.9 -2.6
v 8.3 7.8 -2.6
v 8.2 7.8 -2.6
v 8.2 7.9 -2.6
v 8.4 7.9 -2.5
v 8.4 7.8 -2.5
v 8.4 7.8 -2.6
v 8.4 7.9 -2.6
v 8.3 7.8 -2.5
v 8.3 7.8 -2.6
v 8.4 7.8 -2.6
v 8.4 7.8 -2.5
v 8.3 7.9 -2.5
v 8.3 7.8 -2.5
v 8.4 7.8 -2.5
v 8.4 7.9 -2.5
v 8.4 7.9 -2.6
v 8.4 7.8 -2.6
v 8.3 7.8 -2.6
v 8.3 7.9 -2.6
v 7.4 7.8 -2.6
v 7.4 7.7 -2.6
v 7.4 7.7 -2.5
v 7.4 7.8 -2.5
v 7.4 7.8 -2.6
v 7.4 7.8 -2.5
v 7.5 7.8 -2.5
v 7.5 7.8 -2.6
v 7.4 7.8 -2.5
v 7.4 7.7 -2.5
v 7.5 7.7 -2.5
v 7.5 7.8 -2.5
v 7.5 7.8 -2.6
v 7.5 7.7 -2.6
v 7.4 7.7 -2.6
v 7.4 7.8 -2.6
v 7.5 7.8 -2.6
v 7.5 7.8 -2.5
v 7.6 7.8 -2.5
v 7.6 7.8 -2.6
v 7.5 7.8 -2.5
v 7.5 7.7 -2.5
v 7.6 7.7 -2.5
v 7.6 7.8 -2.5
v 7.6 7.8 -2.6
v 7.6 7.7 -2.6
v 7.5 7.7 -2.6
v 7.5 7.8 -2.6
v 7.6 7.8 -2.6
v 7.6 7.8 -2.5
v 7.7 7.8 -2.5
v 7.7 7.8 -2.6
v 7.6 7.8 -2.5
v 7.6 7.7 -2.5
v 7.7 7.7 -2.5
v 7.7 7.8 -2.5
v 7.7 7.8 -2.6
v 7.7 7.7 -2.6
v 7.6 7.7 -2.6
v 7.6 7.8 -2.6
v 7.7 7.8 -2.5
v 7.7 7.7 -2.5
v 7.8 7.7 -2.5
v 7.8 7.8 -2.5
v 7.8 7.8 -2.6
v 7.8 7.7 -2.6
v 7.7 7.7 -2.6
v 7.7 7.8 -2.6
v 7.8 7.8 -2.5
v 7.8 7.7 -2.5
v 7.9 7.7 -2.5
v 7.9 7.8 -2.5
v 7.9 7.8 -2.6
v 7.9 7.7 -2.6
v 7.8 7.7 -2.6
v 7.8 7.8 -2.6
v 7.9 7.8 -2.5
v 7.9 7.7 -2.5
v 8 7.7 -2.5
v 8 7.8 -2.5
v 8 7.8 -2.6
v 8 7.7 -2.6
v 7.9 7.7 -2.6
v 7.9 7.8 -2.6
v 8 7.7 -2.5
v 8 7.7 -2.6
v 8.1 7.7 -2.6
v 8.1 7.7 -2.5
v 8 7.8 -2.5
v 8 7.7 -2.5
v 8.1 7.7 -2.5
v 8.1 7.8 -2.5
v 8.1 7.8 -2.6
v 8.1 7.7 -2.6
v 8 7.7 -2.6
v 8 7.8 -2.6
v 8.2 7.8 -2.5
v 8.2 7.7 -2.5
v 8.2 7.7 -2.6
v 8.2 7.8 -2.6
v 8.1 7.7 -2.5
v 8.1 7.7 -2.6
v 8.2 7.7 -2.6
v 8.2 7.7 -2.5
v 8.1 7.8 -2.5
v 8.1 7.7 -2.5
v 8.2 7.7 -2.5
v 8.2 7.8 -2.5
v 8.2 7.8 -2.6
v 8.2 7.7 -2.6
v 8.1 7.7 -2.6
v 8.1 7.8 -2.6
v 7.3 7.7 -2.6
v 7.3 7.6 -2.6
v 7.3 7.6 -2.5
v 7.3 7.7 -2.5
v 7.3 7.7 -2.6
v 7.3 7.7 -2.5
v 7.4 7.7 -2.5
v 7.4 7.7 -2.6
v 7.3 7.7 -2.5
v 7.3 7.6 -2.5
v 7.4 7.6 -2.5
v 7.4 7.7 -2.5
v 7.4 7.7 -2.6
v 7.4 7.6 -2.6
v 7.3 7.6 -2.6
v 7.3 7.7 -2.6
v 7.4 7.7 -2.5
v 7.4 7.6 -2.5
v 7.5 7.6 -2.5
v 7.5 7.7 -2.5
v 7.5 7.7 -2.6
v 7.5 7.6 -2.6
v 7.4 7.6 -2.6
v 7.4 7.7 -2.6
v 7.5 7.7 -2.5
v 7.5 7.6 -2.5
v 7.6 7.6 -2.5
v 7.6 7.7 -2.5
v 7.6 7.7 -2.6
v 7.6 7.6 -2.6
v 7.5 7.6 -2.6
v 7.5 7.7 -2.6
v 7.6 7.7 -2.5
v 7.6 7.6 -2.5
v 7.7 7.6 -2.5
v 7.7 7.7 -2.5
v 7.7 7.7 -2.6
v 7.7 7.6 -2.6
v 7.6 7.6 -2.6
v 7.6 7.7 -2.6
v 7.7 7.7 -2.5
v 7.7 7.6 -2.5
v 7.8 7.6 -2.5
v 7.8 7.7 -2.5
v 7.8 7.7 -2.6
v 7.8 7.6 -2.6
v 7.7 7.6 -2.6
v 7.7 7.7 -2.6
v 7.8 7.6 -2.5
v 7.8 7.6 -2.6
v 7.9 7.6 -2.6
v 7.9 7.6 -2.5
v 7.8 7.7 -2.5
v 7.8 7.6 -2.5
v 7.9 7.6 -2.5
v 7.9 7.7 -2.5
v 7.9 7.7 -2.6
v 7.9 7.6 -2.6
v 7.8 7.6 -2.6
v 7.8 7.7 -2.6
v 8 7.7 -2.5
v 8 7.6 -2.5
v 8 7.6 -2.6
v 8 7.7 -2.6
v 7.9 7.6 -2.5
v 7.9 7.6 -2.6
v 8 7.6 -2.6
v 8 7.6 -2.5
v 7.9 7.7 -2.5
v 7.9 7.6 -2.5
v 8 7.6 -2.5
v 8 7.7 -2.5
v 8 7.7 -2.6
v 8 7.6 -2.6
v 7.9 7.6 -2.6
v 7.9 7.7 -2.6
v 12.4 7.7 -2.6
v 12.4 7.6 -2.6
v 12.4 7.6 -2.5
v 12.4 7.7 -2.5
v 12.5 7.7 -2.5
v 12.5 7.6 -2.5
v 12.5 7.6 -2.6
v 12.5 7.7 -2.6
v 12.4 7.7 -2.6
v 12.4 7.7 -2.5
v 12.5 7.7 -2.5
v 12.5 7.7 -2.6
v 12.4 7.7 -2.5
v 12.4 7.6 -2.5
v 12.5 7.6 -2.5
v 12.5 7.7 -2.5
v 12.5 7.7 -2.6
v 12.5 7.6 -2.6
v 12.4 7.6 -2.6
v 12.4 7.7 -2.6
v 7.2 7.6 -2.6
v 7.2 7.5 -2.6
v 7.2 7.5 -2.5
v 7.2 7.6 -2.5
v 7.2 7.6 -2.6
v 7.2 7.6 -2.5
v 7.3 7.6 -2.5
v 7.3 7.6 -2.6
v 7.2 7.6 -2.5
v 7.2 7.5 -2.5
v 7.3 7.5 -2.5
v 7.3 7.6 -2.5
v 7.3 7.6 -2.6
v 7.3 7.5 -2.6
v 7.2 7.5 -2.6
v 7.2 7.6 -2.6
v 7.3 7.6 -2.5
v 7.3 7.5 -2.5
v 7.4 7.5 -2.5
v 7.4 7.6 -2.5
v 7.4 7.6 -2.6
v 7.4 7.5 -2.6
v 7.3 7.5 -2.6
v 7.3 7.6 -2.6
v 7.4 7.6 -2.5
v 7.4 7.5 -2.5
v 7.5 7.5 -2.5
v 7.5 7.6 -2.5
v 7.5 7.6 -2.6
v 7.5 7.5 -2.6
v 7.4 7.5 -2.6
v 7.4 7.6 -2.6
v 7.5 7.6 -2.5
v 7.5 7.5 -2.5
v 7.6 7.5 -2.5
v 7.6 7.6 -2.5
v 7.6 7.6 -2.6
v 7.6 7.5 -2.6
v 7.5 7.5 -2.6
v 7.5 7.6 -2.6
v 7.6 7.5 -2.5
v 7.6 7.5 -2.6
v 7.7 7.5 -2.6
v 7.7 7.5 -2.5
v 7.6 7.6 -2.5
v 7.6 7.5 -2.5
v 7.7 7.5 -2.5
v 7.7 7.6 -2.5
v 7.7 7.6 -2.6
v 7.7 7.5 -2.6
v 7.6 7.5 -2.6
v 7.6 7.6 -2.6
v 7.8 7.6 -2.5
v 7.8 7.5 -2.5
v 7.8 7.5 -2.6
v 7.8 7.6 -2.6
v 7.7 7.5 -2.5
v 7.7 7.5 -2.6
v 7.8 7.5 -2.6
v 7.8 7.5 -2.5
v 7.7 7.6 -2.5
v 7.7 7.5 -2.5
v 7.8 7.5 -2.5
v 7.8 7.6 -2.5
v 7.8 7.6 -2.6
v 7.8 7.5 -2.6
v 7.7 7.5 -2.6
v 7.7 7.6 -2.6
v 12.4 7.6 -2.6
v 12.4 7.5 -2.6
v 12.4 7.5 -2.5
v 12.4 7.6 -2.5
v 12.5 7.6 -2.5
v 12.5 7.5 -2.5
v 12.5 7.5 -2.6
v 12.5 7.6 -2.6
v 12.4 7.5 -2.5
v 12.4 7.5 -2.6
v 12.5 7.5 -2.6
v 12.5 7.5 -2.5
v 12.4 7.6 -2.5
v 12.4 7.5 -2.5
v 12.5 7.5 -2.5
v 12.5 7.6 -2.5
v 12.5 7.6 -2.6
v 12.5 7.5 -2.6
v 12.4 7.5 -2.6
v 12.4 7.6 -2.6
v 7.1 7.5 -2.6
v 7.1 7.4 -2.6
v 7.1 7.4 -2.5
v 7.1 7.5 -2.5
v 7.1 7.5 -2.6
v 7.1 7.5 -2.5
v 7.2 7.5 -2.5
v 7.2 7.5 -2.6
v 7.1 7.5 -2.5
v 7.1 7.4 -2.5
v 7.2 7.4 -2.5
v 7.2 7.5 -2.5
v 7.2 7.5 -2.6
v 7.2 7.4 -2.6
v 7.1 7.4 -2.6
v 7.1 7.5 -2.6
v 7.2 7.5 -2.5
v 7.2 7.4 -2.5
v 7.3 7.4 -2.5
v 7.3 7.5 -2.5
v 7.3 7.5 -2.6
v 7.3 7.4 -2.6
v 7.2 7.4 -2.6
v 7.2 7.5 -2.6
v 7.3 7.5 -2.5
v 7.3 7.4 -2.5
v 7.4 7.4 -2.5
v 7.4 7.5 -2.5
v 7.4 7.5 -2.6
v 7.4 7.4 -2.6
v 7.3 7.4 -2.6
v 7.3 7.5 -2.6
v 7.4 7.4 -2.5
v 7.4 7.4 -2.6
v 7.5 7.4 -2.6
v 7.5 7.4 -2.5
v 7.4 7.5 -2.5
v 7.4 7.4 -2.5
v 7.5 7.4 -2.5
v 7.5 7.5 -2.5
v 7.5 7.5 -2.6
v 7.5 7.4 -2.6
v 7.4 7.4 -2.6
v 7.4 7.5 -2.6
v 7.6 7.5 -2.5
v 7.6 7.4 -2.5
v 7.6 7.4 -2.6
v 7.6 7.5 -2.6
v 7.5 7.4 -2.5
v 7.5 7.4 -2.6
v 7.6 7.4 -2.6
v 7.6 7.4 -2.5
v 7.5 7.5 -2.5
v 7.5 7.4 -2.5
v 7.6 7.4 -2.5
v 7.6 7.5 -2.5
v 7.6 7.5 -2.6
v 7.6 7.4 -2.6
v 7.5 7.4 -2.6
v 7.5 7.5 -2.6
v 12.3 7.5 -2.6
v 12.3 7.4 -2.6
v 12.3 7.4 -2.5
v 12.3 7.5 -2.5
v 12.4 7.5 -2.5
v 12.4 7.4 -2.5
v 12.4 7.4 -2.6
v 12.4 7.5 -2.6
v 12.3 7.5 -2.6
v 12.3 7.5 -2.5
v 12.4 7.5 -2.5
v 12.4 7.5 -2.6
v 12.3 7.5 -2.5
v 12.3 7.4 -2.5
v 12.4 7.4 -2.5
v 12.4 7.5 -2.5
v 12.4 7.5 -2.6
v 12.4 7.4 -2.6
v 12.3 7.4 -2.6
v 12.3 7.5 -2.6
v 7 7.4 -2.6
v 7 7.3 -2.6
v 7 7.3 -2.5
v 7 7.4 -2.5
v 7 7.4 -2.6
v 7 7.4 -2.5
v 7.1 7.4 -2.5
v 7.1 7.4 -2.6
v 7 7.4 -2.5
v 7 7.3 -2.5
v 7.1 7.3 -2.5
v 7.1 7.4 -2.5
v 7.1 7.4 -2.6
v 7.1 7.3 -2.6
v 7 7.3 -2.6
v 7 7.4 -2.6
v 7.1 7.4 -2.5
v 7.1 7.3 -2.5
v 7.2 7.3 -2.5
v 7.2 7.4 -2.5
v 7.2 7.4 -2.6
v 7.2 7.3 -2.6
v 7.1 7.3 -2.6
v 7.1 7.4 -2.6
v 7.2 7.4 -2.5
v 7.2 7.3 -2.5
v 7.3 7.3 -2.5
v 7.3 7.4 -2.5
v 7.3 7.4 -2.6
v 7.3 7.3 -2.6
v 7.2 7.3 -2.6
v 7.2 7.4 -2.6
v 7.4 7.4 -2.5
v 7.4 7.3 -2.5
v 7.4 7.3 -2.6
v 7.4 7.4 -2.6
v 7.3 7.3 -2.5
v 7.3 7.3 -2.6
v 7.4 7.3 -2.6
v 7.4 7.3 -2.5
v 7.3 7.4 -2.5
v 7.3 7.3 -2.5
v 7.4 7.3 -2.5
v 7.4 7.4 -2.5
v 7.4 7.4 -2.6
v 7.4 7.3 -2.6
v 7.3 7.3 -2.6
v 7.3 7.4 -2.6
v 12.2 7.4 -2.6
v 12.2 7.3 -2.6
v 12.2 7.3 -2.5
v 12.2 7.4 -2.5
v 12.2 7.4 -2.6
v 12.2 7.4 -2.5
v 12.3 7.4 -2.5
v 12.3 7.4 -2.6
v 12.2 7.4 -2.5
v 12.2 7.3 -2.5
v 12.3 7.3 -2.5
v 12.3 7.4 -2.5
v 12.3 7.4 -2.6
v 12.3 7.3 -2.6
v 12.2 7.3 -2.6
v 12.2 7.4 -2.6
v 12.4 7.4 -2.5
v 12.4 7.3 -2.5
v 12.4 7.3 -2.6
v 12.4 7.4 -2.6
v 12.3 7.4 -2.5
v 12.3 7.3 -2.5
v 12.4 7.3 -2.5
v 12.4 7.4 -2.5
v 12.4 7.4 -2.6
v 12.4 7.3 -2.6
v 12.3 7.3 -2.6
v 12.3 7.4 -2.6
v 7 7.3 -2.6
v 7 7.2 -2.6
v 7 7.2 -2.5
v 7 7.3 -2.5
v 7 7.3 -2.5
v 7 7.2 -2.5
v 7.1 7.2 -2.5
v 7.1 7.3 -2.5
v 7.1 7.3 -2.6
v 7.1 7.2 -2.6
v 7 7.2 -2.6
v 7 7.3 -2.6
v 7.1 7.2 -2.5
v 7.1 7.2 -2.6
v 7.2 7.2 -2.6
v 7.2 7.2 -2.5
v 7.1 7.3 -2.5
v 7.1 7.2 -2.5
v 7.2 7.2 -2.5
v 7.2 7.3 -2.5
v 7.2 7.3 -2.6
v 7.2 7.2 -2.6
v 7.1 7.2 -2.6
v 7.1 7.3 -2.6
v 7.3 7.3 -2.5
v 7.3 7.2 -2.5
v 7.3 7.2 -2.6
v 7.3 7.3 -2.6
v 7.2 7.2 -2.5
v 7.2 7.2 -2.6
v 7.3 7.2 -2.6
v 7.3 7.2 -2.5
v 7.2 7.3 -2.5
v 7.2 7.2 -2.5
v 7.3 7.2 -2.5
v 7.3 7.3 -2.5
v 7.3 7.3 -2.6
v 7.3 7.2 -2.6
v 7.2 7.2 -2.6
v 7.2 7.3 -2.6
v 12.2 7.3 -2.6
v 12.2 7.2 -2.6
v 12.2 7.2 -2.5
v 12.2 7.3 -2.5
v 12.2 7.3 -2.5
v 12.2 7.2 -2.5
v 12.3 7.2 -2.5
v 12.3 7.3 -2.5
v 12.3 7.3 -2.6
v 12.3 7.2 -2.6
v 12.2 7.2 -2.6
v 12.2 7.3 -2.6
v 12.4 7.3 -2.5
v 12.4 7.2 -2.5
v 12.4 7.2 -2.6
v 12.4 7.3 -2.6
v 12.3 7.2 -2.5
v 12.3 7.2 -2.6
v 12.4 7.2 -2.6
v 12.4 7.2 -2.5
v 12.3 7.3 -2.5
v 12.3 7.2 -2.5
v 12.4 7.2 -2.5
v 12.4 7.3 -2.5
v 12.4 7.3 -2.6
v 12.4 7.2 -2.6
v 12.3 7.2 -2.6
v 12.3 7.3 -2.6
v 6.7 7.2 -2.6
v 6.7 7.1 -2.6
v 6.7 7.1 -2.5
v 6.7 7.2 -2.5
v 6.7 7.2 -2.6
v 6.7 7.2 -2.5
v 6.8 7.2 -2.5
v 6.8 7.2 -2.6
v 6.7 7.2 -2.5
v 6.7 7.1 -2.5
v 6.8 7.1 -2.5
v 6.8 7.2 -2.5
v 6.8 7.2 -2.6
v 6.8 7.1 -2.6
v 6.7 7.1 -2.6
v 6.7 7.2 -2.6
v 6.8 7.2 -2.6
v 6.8 7.2 -2.5
v 6.9 7.2 -2.5
v 6.9 7.2 -2.6
v 6.8 7.2 -2.5
v 6.8 7.1 -2.5
v 6.9 7.1 -2.5
v 6.9 7.2 -2.5
v 6.9 7.2 -2.6
v 6.9 7.1 -2.6
v 6.8 7.1 -2.6
v 6.8 7.2 -2.6
v 6.9 7.2 -2.6
v 6.9 7.2 -2.5
v 7 7.2 -2.5
v 7 7.2 -2.6
v 6.9 7.1 -2.5
v 6.9 7.1 -2.6
v 7 7.1 -2.6
v 7 7.1 -2.5
v 6.9 7.2 -2.5
v 6.9 7.1 -2.5
v 7 7.1 -2.5
v 7 7.2 -2.5
v 7 7.2 -2.6
v 7 7.1 -2.6
v 6.9 7.1 -2.6
v 6.9 7.2 -2.6
v 7.1 7.2 -2.5
v 7.1 7.1 -2.5
v 7.1 7.1 -2.6
v 7.1 7.2 -2.6
v 7 7.1 -2.5
v 7 7.1 -2.6
v 7.1 7.1 -2.6
v 7.1 7.1 -2.5
v 7 7.2 -2.5
v 7 7.1 -2.5
v 7.1 7.1 -2.5
v 7.1 7.2 -2.5
v 7.1 7.2 -2.6
v 7.1 7.1 -2.6
v 7 7.1 -2.6
v 7 7.2 -2.6
v 12.1 7.2 -2.6
v 12.1 7.1 -2.6
v 12.1 7.1 -2.5
v 12.1 7.2 -2.5
v 12.1 7.2 -2.6
v 12.1 7.2 -2.5
v 12.2 7.2 -2.5
v 12.2 7.2 -2.6
v 12.1 7.2 -2.5
v 12.1 7.1 -2.5
v 12.2 7.1 -2.5
v 12.2 7.2 -2.5
v 12.2 7.2 -2.6
v 12.2 7.1 -2.6
v 12.1 7.1 -2.6
v 12.1 7.2 -2.6
v 12.3 7.2 -2.5
v 12.3 7.1 -2.5
v 12.3 7.1 -2.6
v 12.3 7.2 -2.6
v 12.2 7.2 -2.5
v 12.2 7.1 -2.5
v 12.3 7.1 -2.5
v 12.3 7.2 -2.5
v 12.3 7.2 -2.6
v 12.3 7.1 -2.6
v 12.2 7.1 -2.6
v 12.2 7.2 -2.6
v 6.6 7.1 -2.6
v 6.6 7 -2.6
v 6.6 7 -2.5
v 6.6 7.1 -2.5
v 6.6 7.1 -2.6
v 6.6 7.1 -2.5
v 6.7 7.1 -2.5
v 6.7 7.1 -2.6
v 6.6 7.1 -2.5
v 6.6 7 -2.5
v 6.7 7 -2.5
v 6.7 7.1 -2.5
v 6.7 7.1 -2.6
v 6.7 7 -2.6
v 6.6 7 -2.6
v 6.6 7.1 -2.6
v 6.7 7 -2.5
v 6.7 7 -2.6
v 6.8 7 -2.6
v 6.8 7 -2.5
v 6.7 7.1 -2.5
v 6.7 7 -2.5
v 6.8 7 -2.5
v 6.8 7.1 -2.5
v 6.8 7.1 -2.6
v 6.8 7 -2.6
v 6.7 7 -2.6
v 6.7 7.1 -2.6
v 6.9 7.1 -2.5
v 6.9 7 -2.5
v 6.9 7 -2.6
v 6.9 7.1 -2.6
v 6.8 7 -2.5
v 6.8 7 -2.6
v 6.9 7 -2.6
v 6.9 7 -2.5
v 6.8 7.1 -2.5
v 6.8 7 -2.5
v 6.9 7 -2.5
v 6.9 7.1 -2.5
v 6.9 7.1 -2.6
v 6.9 7 -2.6
v 6.8 7 -2.6
v 6.8 7.1 -2.6
v 12 7.1 -2.6
v 12 7 -2.6
v 12 7 -2.5
v 12 7.1 -2.5
v 12 7.1 -2.6
v 12 7.1 -2.5
v 12.1 7.1 -2.5
v 12.1 7.1 -2.6
v 12 7.1 -2.5
v 12 7 -2.5
v 12.1 7 -2.5
v 12.1 7.1 -2.5
v 12.1 7.1 -2.6
v 12.1 7 -2.6
v 12 7 -2.6
v 12 7.1 -2.6
v 12.1 7.1 -2.5
v 12.1 7 -2.5
v 12.2 7 -2.5
v 12.2 7.1 -2.5
v 12.2 7.1 -2.6
v 12.2 7 -2.6
v 12.1 7 -2.6
v 12.1 7.1 -2.6
v 12.3 7.1 -2.5
v 12.3 7 -2.5
v 12.3 7 -2.6
v 12.3 7.1 -2.6
v 12.2 7 -2.5
v 12.2 7 -2.6
v 12.3 7 -2.6
v 12.3 7 -2.5
v 12.2 7.1 -2.5
v 12.2 7 -2.5
v 12.3 7 -2.5
v 12.3 7.1 -2.5
v 12.3 7.1 -2.6
v 12.3 7 -2.6
v 12.2 7 -2.6
v 12.2 7.1 -2.6
v 6.5 7 -2.6
v 6.5 6.9 -2.6
v 6.5 6.9 -2.5
v 6.5 7 -2.5
v 6.5 7 -2.6
v 6.5 7 -2.5
v 6.6 7 -2.5
v 6.6 7 -2.6
v 6.5 6.9 -2.5
v 6.5 6.9 -2.6
v 6.6 6.9 -2.6
v 6.6 6.9 -2.5
v 6.5 7 -2.5
v 6.5 6.9 -2.5
v 6.6 6.9 -2.5
v 6.6 7 -2.5
v 6.6 7 -2.6
v 6.6 6.9 -2.6
v 6.5 6.9 -2.6
v 6.5 7 -2.6
v 6.7 7 -2.5
v 6.7 6.9 -2.5
v 6.7 6.9 -2.6
v 6.7 7 -2.6
v 6.6 6.9 -2.5
v 6.6 6.9 -2.6
v 6.7 6.9 -2.6
v 6.7 6.9 -2.5
v 6.6 7 -2.5
v 6.6 6.9 -2.5
v 6.7 6.9 -2.5
v 6.7 7 -2.5
v 6.7 7 -2.6
v 6.7 6.9 -2.6
v 6.6 6.9 -2.6
v 6.6 7 -2.6
v 11.9 7 -2.6
v 11.9 6.9 -2.6
v 11.9 6.9 -2.5
v 11.9 7 -2.5
v 11.9 7 -2.6
v 11.9 7 -2.5
v 12 7 -2.5
v 12 7 -2.6
v 11.9 7 -2.5
v 11.9 6.9 -2.5
v 12 6.9 -2.5
v 12 7 -2.5
v 12 7 -2.6
v 12 6.9 -2.6
v 11.9 6.9 -2.6
v 11.9 7 -2.6
v 12 7 -2.5
v 12 6.9 -2.5
v 12.1 6.9 -2.5
v 12.1 7 -2.5
v 12.1 7 -2.6
v 12.1 6.9 -2.6
v 12 6.9 -2.6
v 12 7 -2.6
v 12.2 7 -2.5
v 12.2 6.9 -2.5
v 12.2 6.9 -2.6
v 12.2 7 -2.6
v 12.1 7 -2.5
v 12.1 6.9 -2.5
v 12.2 6.9 -2.5
v 12.2 7 -2.5
v 12.2 7 -2.6
v 12.2 6.9 -2.6
v 12.1 6.9 -2.6
v 12.1 7 -2.6
v 6.4 6.9 -2.6
v 6.4 6.8 -2.6
v 6.4 6.8 -2.5
v 6.4 6.9 -2.5
v 6.5 6.9 -2.5
v 6.5 6.8 -2.5
v 6.5 6.8 -2.6
v 6.5 6.9 -2.6
v 6.4 6.9 -2.6
v 6.4 6.9 -2.5
v 6.5 6.9 -2.5
v 6.5 6.9 -2.6
v 6.4 6.8 -2.5
v 6.4 6.8 -2.6
v 6.5 6.8 -2.6
v 6.5 6.8 -2.5
v 6.4 6.9 -2.5
v 6.4 6.8 -2.5
v 6.5 6.8 -2.5
v 6.5 6.9 -2.5
v 6.5 6.9 -2.6
v 6.5 6.8 -2.6
v 6.4 6.8 -2.6
v 6.4 6.9 -2.6
v 11.8 6.9 -2.6
v 11.8 6.8 -2.6
v 11.8 6.8 -2.5
v 11.8 6.9 -2.5
v 11.8 6.9 -2.6
v 11.8 6.9 -2.5
v 11.9 6.9 -2.5
v 11.9 6.9 -2.6
v 11.8 6.9 -2.5
v 11.8 6.8 -2.5
v 11.9 6.8 -2.5
v 11.9 6.9 -2.5
v 11.9 6.9 -2.6
v 11.9 6.8 -2.6
v 11.8 6.8 -2.6
v 11.8 6.9 -2.6
v 11.9 6.9 -2.5
v 11.9 6.8 -2.5
v 12 6.8 -2.5
v 12 6.9 -2.5
v 12 6.9 -2.6
v 12 6.8 -2.6
v 11.9 6.8 -2.6
v 11.9 6.9 -2.6
v 12 6.9 -2.5
v 12 6.8 -2.5
v 12.1 6.8 -2.5
v 12.1 6.9 -2.5
v 12.1 6.9 -2.6
v 12.1 6.8 -2.6
v 12 6.8 -2.6
v 12 6.9 -2.6
v 12.2 6.9 -2.5
v 12.2 6.8 -2.5
v 12.2 6.8 -2.6
v 12.2 6.9 -2.6
v 12.1 6.8 -2.5
v 12.1 6.8 -2.6
v 12.2 6.8 -2.6
v 12.2 6.8 -2.5
v 12.1 6.9 -2.5
v 12.1 6.8 -2.5
v 12.2 6.8 -2.5
v 12.2 6.9 -2.5
v 12.2 6.9 -2.6
v 12.2 6.8 -2.6
v 12.1 6.8 -2.6
v 12.1 6.9 -2.6
v 11.6 6.8 -2.6
v 11.6 6.7 -2.6
v 11.6 6.7 -2.5
v 11.6 6.8 -2.5
v 11.6 6.8 -2.6
v 11.6 6.8 -2.5
v 11.7 6.8 -2.5
v 11.7 6.8 -2.6
v 11.6 6.8 -2.5
v 11.6 6.7 -2.5
v 11.7 6.7 -2.5
v 11.7 6.8 -2.5
v 11.7 6.8 -2.6
v 11.7 6.7 -2.6
v 11.6 6.7 -2.6
v 11.6 6.8 -2.6
v 11.7 6.8 -2.6
v 11.7 6.8 -2.5
v 11.8 6.8 -2.5
v 11.8 6.8 -2.6
v 11.7 6.8 -2.5
v 11.7 6.7 -2.5
v 11.8 6.7 -2.5
v 11.8 6.8 -2.5
v 11.8 6.8 -2.6
v 11.8 6.7 -2.6
v 11.7 6.7 -2.6
v 11.7 6.8 -2.6
v 11.8 6.8 -2.5
v 11.8 6.7 -2.5
v 11.9 6.7 -2.5
v 11.9 6.8 -2.5
v 11.9 6.8 -2.6
v 11.9 6.7 -2.6
v 11.8 6.7 -2.6
v 11.8 6.8 -2.6
v 11.9 6.8 -2.5
v 11.9 6.7 -2.5
v 12 6.7 -2.5
v 12 6.8 -2.5
v 12 6.8 -2.6
v 12 6.7 -2.6
v 11.9 6.7 -2.6
v 11.9 6.8 -2.6
v 12.1 6.8 -2.5
v 12.1 6.7 -2.5
v 12.1 6.7 -2.6
v 12.1 6.8 -2.6
v 12 6.7 -2.5
v 12 6.7 -2.6
v 12.1 6.7 -2.6
v 12.1 6.7 -2.5
v 12 6.8 -2.5
v 12 6.7 -2.5
v 12.1 6.7 -2.5
v 12.1 6.8 -2.5
v 12.1 6.8 -2.6
v 12.1 6.7 -2.6
v 12 6.7 -2.6
v 12 6.8 -2.6
v 11.5 6.7 -2.6
v 11.5 6.6 -2.6
v 11.5 6.6 -2.5
v 11.5 6.7 -2.5
v 11.5 6.7 -2.6
v 11.5 6.7 -2.5
v 11.6 6.7 -2.5
v 11.6 6.7 -2.6
v 11.5 6.7 -2.5
v 11.5 6.6 -2.5
v 11.6 6.6 -2.5
v 11.6 6.7 -2.5
v 11.6 6.7 -2.6
v 11.6 6.6 -2.6
v 11.5 6.6 -2.6
v 11.5 6.7 -2.6
v 11.6 6.7 -2.5
v 11.6 6.6 -2.5
v 11.7 6.6 -2.5
v 11.7 6.7 -2.5
v 11.7 6.7 -2.6
v 11.7 6.6 -2.6
v 11.6 6.6 -2.6
v 11.6 6.7 -2.6
v 11.7 6.7 -2.5
v 11.7 6.6 -2.5
v 11.8 6.6 -2.5
v 11.8 6.7 -2.5
v 11.8 6.7 -2.6
v 11.8 6.6 -2.6
v 11.7 6.6 -2.6
v 11.7 6.7 -2.6
v 11.8 6.7 -2.5
v 11.8 6.6 -2.5
v 11.9 6.6 -2.5
v 11.9 6.7 -2.5
v 11.9 6.7 -2.6
v 11.9 6.6 -2.6
v 11.8 6.6 -2.6
v 11.8 6.7 -2.6
v 12 6.7 -2.5
v 12 6.6 -2.5
v 12 6.6 -2.6
v 12 6.7 -2.6
v 11.9 6.7 -2.5
v 11.9 6.6 -2.5
v 12 6.6 -2.5
v 12 6.7 -2.5
v 12 6.7 -2.6
v 12 6.6 -2.6
v 11.9 6.6 -2.6
v 11.9 6.7 -2.6
v 11.4 6.6 -2.6
v 11.4 6.5 -2.6
v 11.4 6.5 -2.5
v 11.4 6.6 -2.5
v 11.4 6.6 -2.6
v 11.4 6.6 -2.5
v 11.5 6.6 -2.5
v 11.5 6.6 -2.6
v 11.4 6.6 -2.5
v 11.4 6.5 -2.5
v 11.5 6.5 -2.5
v 11.5 6.6 -2.5
v 11.5 6.6 -2.6
v 11.5 6.5 -2.6
v 11.4 6.5 -2.6
v 11.4 6.6 -2.6
v 11.5 6.6 -2.5
v 11.5 6.5 -2.5
v 11.6 6.5 -2.5
v 11.6 6.6 -2.5
v 11.6 6.6 -2.6
v 11.6 6.5 -2.6
v 11.5 6.5 -2.6
v 11.5 6.6 -2.6
v 11.6 6.6 -2.5
v 11.6 6.5 -2.5
v 11.7 6.5 -2.5
v 11.7 6.6 -2.5
v 11.7 6.6 -2.6
v 11.7 6.5 -2.6
v 11.6 6.5 -2.6
v 11.6 6.6 -2.6
v 11.7 6.6 -2.5
v 11.7 6.5 -2.5
v 11.8 6.5 -2.5
v 11.8 6.6 -2.5
v 11.8 6.6 -2.6
v 11.8 6.5 -2.6
v 11.7 6.5 -2.6
v 11.7 6.6 -2.6
v 11.8 6.6 -2.5
v 11.8 6.5 -2.5
v 11.9 6.5 -2.5
v 11.9 6.6 -2.5
v 11.9 6.6 -2.6
v 11.9 6.5 -2.6
v 11.8 6.5 -2.6
v 11.8 6.6 -2.6
v 12 6.6 -2.5
v 12 6.5 -2.5
v 12 6.5 -2.6
v 12 6.6 -2.6
v 11.9 6.5 -2.5
v 11.9 6.5 -2.6
v 12 6.5 -2.6
v 12 6.5 -2.5
v 11.9 6.6 -2.5
v 11.9 6.5 -2.5
v 12 6.5 -2.5
v 12 6.6 -2.5
v 12 6.6 -2.6
v 12 6.5 -2.6
v 11.9 6.5 -2.6
v 11.9 6.6 -2.6
v 11.2 6.5 -2.6
v 11.2 6.4 -2.6
v 11.2 6.4 -2.5
v 11.2 6.5 -2.5
v 11.2 6.5 -2.6
v 11.2 6.5 -2.5
v 11.3 6.5 -2.5
v 11.3 6.5 -2.6
v 11.2 6.5 -2.5
v 11.2 6.4 -2.5
v 11.3 6.4 -2.5
v 11.3 6.5 -2.5
v 11.3 6.5 -2.6
v 11.3 6.4 -2.6
v 11.2 6.4 -2.6
v 11.2 6.5 -2.6
v 11.3 6.5 -2.6
v 11.3 6.5 -2.5
v 11.4 6.5 -2.5
v 11.4 6.5 -2.6
v 11.3 6.5 -2.5
v 11.3 6.4 -2.5
v 11.4 6.4 -2.5
v 11.4 6.5 -2.5
v 11.4 6.5 -2.6
v 11.4 6.4 -2.6
v 11.3 6.4 -2.6
v 11.3 6.5 -2.6
v 11.4 6.5 -2.5
v 11.4 6.4 -2.5
v 11.5 6.4 -2.5
v 11.5 6.5 -2.5
v 11.5 6.5 -2.6
v 11.5 6.4 -2.6
v 11.4 6.4 -2.6
v 11.4 6.5 -2.6
v 11.5 6.5 -2.5
v 11.5 6.4 -2.5
v 11.6 6.4 -2.5
v 11.6 6.5 -2.5
v 11.6 6.5 -2.6
v 11.6 6.4 -2.6
v 11.5 6.4 -2.6
v 11.5 6.5 -2.6
v 11.6 6.5 -2.5
v 11.6 6.4 -2.5
v 11.7 6.4 -2.5
v 11.7 6.5 -2.5
v 11.7 6.5 -2.6
v 11.7 6.4 -2.6
v 11.6 6.4 -2.6
v 11.6 6.5 -2.6
v 11.7 6.5 -2.5
v 11.7 6.4 -2.5
v 11.8 6.4 -2.5
v 11.8 6.5 -2.5
v 11.8 6.5 -2.6
v 11.8 6.4 -2.6
v 11.7 6.4 -2.6
v 11.7 6.5 -2.6
v 11.9 6.5 -2.5
v 11.9 6.4 -2.5
v 11.9 6.4 -2.6
v 11.9 6.5 -2.6
v 11.8 6.4 -2.5
v 11.8 6.4 -2.6
v 11.9 6.4 -2.6
v 11.9 6.4 -2.5
v 11.8 6.5 -2.5
v 11.8 6.4 -2.5
v 11.9 6.4 -2.5
v 11.9 6.5 -2.5
v 11.9 6.5 -2.6
v 11.9 6.4 -2.6
v 11.8 6.4 -2.6
v 11.8 6.5 -2.6
v 11.1 6.4 -2.6
v 11.1 6.3 -2.6
v 11.1 6.3 -2.5
v 11.1 6.4 -2.5
v 11.1 6.4 -2.6
v 11.1 6.4 -2.5
v 11.2 6.4 -2.5
v 11.2 6.4 -2.6
v 11.1 6.4 -2.5
v 11.1 6.3 -2.5
v 11.2 6.3 -2.5
v 11.2 6.4 -2.5
v 11.2 6.4 -2.6
v 11.2 6.3 -2.6
v 11.1 6.3 -2.6
v 11.1 6.4 -2.6
v 11.2 6.4 -2.5
v 11.2 6.3 -2.5
v 11.3 6.3 -2.5
v 11.3 6.4 -2.5
v 11.3 6.4 -2.6
v 11.3 6.3 -2.6
v 11.2 6.3 -2.6
v 11.2 6.4 -2.6
v 11.3 6.4 -2.5
v 11.3 6.3 -2.5
v 11.4 6.3 -2.5
v 11.4 6.4 -2.5
v 11.4 6.4 -2.6
v 11.4 6.3 -2.6
v 11.3 6.3 -2.6
v 11.3 6.4 -2.6
v 11.4 6.4 -2.5
v 11.4 6.3 -2.5
v 11.5 6.3 -2.5
v 11.5 6.4 -2.5
v 11.5 6.4 -2.6
v 11.5 6.3 -2.6
v 11.4 6.3 -2.6
v 11.4 6.4 -2.6
v 11.5 6.4 -2.5
v 11.5 6.3 -2.5
v 11.6 6.3 -2.5
v 11.6 6.4 -2.5
v 11.6 6.4 -2.6
v 11.6 6.3 -2.6
v 11.5 6.3 -2.6
v 11.5 6.4 -2.6
v 11.6 6.4 -2.5
v 11.6 6.3 -2.5
v 11.7 6.3 -2.5
v 11.7 6.4 -2.5
v 11.7 6.4 -2.6
v 11.7 6.3 -2.6
v 11.6 6.3 -2.6
v 11.6 6.4 -2.6
v 11.8 6.4 -2.5
v 11.8 6.3 -2.5
v 11.8 6.3 -2.6
v 11.8 6.4 -2.6
v 11.7 6.3 -2.5
v 11.7 6.3 -2.6
v 11.8 6.3 -2.6
v 11.8 6.3 -2.5
v 11.7 6.4 -2.5
v 11.7 6.3 -2.5
v 11.8 6.3 -2.5
v 11.8 6.4 -2.5
v 11.8 6.4 -2.6
v 11.8 6.3 -2.6
v 11.7 6.3 -2.6
v 11.7 6.4 -2.6
v 10.9 6.3 -2.6
v 10.9 6.2 -2.6
v 10.9 6.2 -2.5
v 10.9 6.3 -2.5
v 10.9 6.3 -2.6
v 10.9 6.3 -2.5
v 11 6.3 -2.5
v 11 6.3 -2.6
v 10.9 6.3 -2.5
v 10.9 6.2 -2.5
v 11 6.2 -2.5
v 11 6.3 -2.5
v 11 6.3 -2.6
v 11 6.2 -2.6
v 10.9 6.2 -2.6
v 10.9 6.3 -2.6
v 11 6.3 -2.6
v 11 6.3 -2.5
v 11.1 6.3 -2.5
v 11.1 6.3 -2.6
v 11 6.3 -2.5
v 11 6.2 -2.5
v 11.1 6.2 -2.5
v 11.1 6.3 -2.5
v 11.1 6.3 -2.6
v 11.1 6.2 -2.6
v 11 6.2 -2.6
v 11 6.3 -2.6
v 11.1 6.3 -2.5
v 11.1 6.2 -2.5
v 11.2 6.2 -2.5
v 11.2 6.3 -2.5
v 11.2 6.3 -2.6
v 11.2 6.2 -2.6
v 11.1 6.2 -2.6
v 11.1 6.3 -2.6
v 11.2 6.3 -2.5
v 11.2 6.2 -2.5
v 11.3 6.2 -2.5
v 11.3 6.3 -2.5
v 11.3 6.3 -2.6
v 11.3 6.2 -2.6
v 11.2 6.2 -2.6
v 11.2 6.3 -2.6
v 11.3 6.3 -2.5
v 11.3 6.2 -2.5
v 11.4 6.2 -2.5
v 11.4 6.3 -2.5
v 11.4 6.3 -2.6
v 11.4 6.2 -2.6
v 11.3 6.2 -2.6
v 11.3 6.3 -2.6
v 11.4 6.3 -2.5
v 11.4 6.2 -2.5
v 11.5 6.2 -2.5
v 11.5 6.3 -2.5
v 11.5 6.3 -2.6
v 11.5 6.2 -2.6
v 11.4 6.2 -2.6
v 11.4 6.3 -2.6
v 11.5 6.2 -2.5
v 11.5 6.2 -2.6
v 11.6 6.2 -2.6
v 11.6 6.2 -2.5
v 11.5 6.3 -2.5
v 11.5 6.2 -2.5
v 11.6 6.2 -2.5
v 11.6 6.3 -2.5
v 11.6 6.3 -2.6
v 11.6 6.2 -2.6
v 11.5 6.2 -2.6
v 11.5 6.3 -2.6
v 11.7 6.3 -2.5
v 11.7 6.2 -2.5
v 11.7 6.2 -2.6
v 11.7 6.3 -2.6
v 11.6 6.2 -2.5
v 11.6 6.2 -2.6
v 11.7 6.2 -2.6
v 11.7 6.2 -2.5
v 11.6 6.3 -2.5
v 11.6 6.2 -2.5
v 11.7 6.2 -2.5
v 11.7 6.3 -2.5
v 11.7 6.3 -2.6
v 11.7 6.2 -2.6
v 11.6 6.2 -2.6
v 11.6 6.3 -2.6
v 10.8 6.2 -2.6
v 10.8 6.1 -2.6
v 10.8 6.1 -2.5
v 10.8 6.2 -2.5
v 10.8 6.2 -2.6
v 10.8 6.2 -2.5
v 10.9 6.2 -2.5
v 10.9 6.2 -2.6
v 10.8 6.2 -2.5
v 10.8 6.1 -2.5
v 10.9 6.1 -2.5
v 10.9 6.2 -2.5
v 10.9 6.2 -2.6
v 10.9 6.1 -2.6
v 10.8 6.1 -2.6
v 10.8 6.2 -2.6
v 10.9 6.2 -2.5
v 10.9 6.1 -2.5
v 11 6.1 -2.5
v 11 6.2 -2.5
v 11 6.2 -2.6
v 11 6.1 -2.6
v 10.9 6.1 -2.6
v 10.9 6.2 -2.6
v 11 6.2 -2.5
v 11 6.1 -2.5
v 11.1 6.1 -2.5
v 11.1 6.2 -2.5
v 11.1 6.2 -2.6
v 11.1 6.1 -2.6
v 11 6.1 -2.6
v 11 6.2 -2.6
v 11.1 6.2 -2.5
v 11.1 6.1 -2.5
v 11.2 6.1 -2.5
v 11.2 6.2 -2.5
v 11.2 6.2 -2.6
v 11.2 6.1 -2.6
v 11.1 6.1 -2.6
v 11.1 6.2 -2.6
v 11.2 6.2 -2.5
v 11.2 6.1 -2.5
v 11.3 6.1 -2.5
v 11.3 6.2 -2.5
v 11.3 6.2 -2.6
v 11.3 6.1 -2.6
v 11.2 6.1 -2.6
v 11.2 6.2 -2.6
v 11.3 6.2 -2.5
v 11.3 6.1 -2.5
v 11.4 6.1 -2.5
v 11.4 6.2 -2.5
v 11.4 6.2 -2.6
v 11.4 6.1 -2.6
v 11.3 6.1 -2.6
v 11.3 6.2 -2.6
v 11.5 6.2 -2.5
v 11.5 6.1 -2.5
v 11.5 6.1 -2.6
v 11.5 6.2 -2.6
v 11.4 6.1 -2.5
v 11.4 6.1 -2.6
v 11.5 6.1 -2.6
v 11.5 6.1 -2.5
v 11.4 6.2 -2.5
v 11.4 6.1 -2.5
v 11.5 6.1 -2.5
v 11.5 6.2 -2.5
v 11.5 6.2 -2.6
v 11.5 6.1 -2.6
v 11.4 6.1 -2.6
v 11.4 6.2 -2.6
v 10.6 6.1 -2.6
v 10.6 6 -2.6
v 10.6 6 -2.5
v 10.6 6.1 -2.5
v 10.6 6.1 -2.6
v 10.6 6.1 -2.5
v 10.7 6.1 -2.5
v 10.7 6.1 -2.6
v 10.6 6.1 -2.5
v 10.6 6 -2.5
v 10.7 6 -2.5
v 10.7 6.1 -2.5
v 10.7 6.1 -2.6
v 10.7 6 -2.6
v 10.6 6 -2.6
v 10.6 6.1 -2.6
v 10.7 6.1 -2.6
v 10.7 6.1 -2.5
v 10.8 6.1 -2.5
v 10.8 6.1 -2.6
v 10.7 6.1 -2.5
v 10.7 6 -2.5
v 10.8 6 -2.5
v 10.8 6.1 -2.5
v 10.8 6.1 -2.6
v 10.8 6 -2.6
v 10.7 6 -2.6
v 10.7 6.1 -2.6
v 10.8 6.1 -2.5
v 10.8 6 -2.5
v 10.9 6 -2.5
v 10.9 6.1 -2.5
v 10.9 6.1 -2.6
v 10.9 6 -2.6
v 10.8 6 -2.6
v 10.8 6.1 -2.6
v 10.9 6.1 -2.5
v 10.9 6 -2.5
v 11 6 -2.5
v 11 6.1 -2.5
v 11 6.1 -2.6
v 11 6 -2.6
v 10.9 6 -2.6
v 10.9 6.1 -2.6
v 11 6.1 -2.5
v 11 6 -2.5
v 11.1 6 -2.5
v 11.1 6.1 -2.5
v 11.1 6.1 -2.6
v 11.1 6 -2.6
v 11 6 -2.6
v 11 6.1 -2.6
v 11.1 6.1 -2.5
v 11.1 6 -2.5
v 11.2 6 -2.5
v 11.2 6.1 -2.5
v 11.2 6.1 -2.6
v 11.2 6 -2.6
v 11.1 6 -2.6
v 11.1 6.1 -2.6
v 11.2 6 -2.5
v 11.2 6 -2.6
v 11.3 6 -2.6
v 11.3 6 -2.5
v 11.2 6.1 -2.5
v 11.2 6 -2.5
v 11.3 6 -2.5
v 11.3 6.1 -2.5
v 11.3 6.1 -2.6
v 11.3 6 -2.6
v 11.2 6 -2.6
v 11.2 6.1 -2.6
v 11.4 6.1 -2.5
v 11.4 6 -2.5
v 11.4 6 -2.6
v 11.4 6.1 -2.6
v 11.3 6 -2.5
v 11.3 6 -2.6
v 11.4 6 -2.6
v 11.4 6 -2.5
v 11.3 6.1 -2.5
v 11.3 6 -2.5
v 11.4 6 -2.5
v 11.4 6.1 -2.5
v 11.4 6.1 -2.6
v 11.4 6 -2.6
v 11.3 6 -2.6
v 11.3 6.1 -2.6
v 10.4 6 -2.6
v 10.4 5.9 -2.6
v 10.4 5.9 -2.5
v 10.4 6 -2.5
v 10.4 6 -2.6
v 10.4 6 -2.5
v 10.5 6 -2.5
v 10.5 6 -2.6
v 10.4 6 -2.5
v 10.4 5.9 -2.5
v 10.5 5.9 -2.5
v 10.5 6 -2.5
v 10.5 6 -2.6
v 10.5 5.9 -2.6
v 10.4 5.9 -2.6
v 10.4 6 -2.6
v 10.5 6 -2.6
v 10.5 6 -2.5
v 10.6 6 -2.5
v 10.6 6 -2.6
v 10.5 6 -2.5
v 10.5 5.9 -2.5
v 10.6 5.9 -2.5
v 10.6 6 -2.5
v 10.6 6 -2.6
v 10.6 5.9 -2.6
v 10.5 5.9 -2.6
v 10.5 6 -2.6
v 10.6 6 -2.5
v 10.6 5.9 -2.5
v 10.7 5.9 -2.5
v 10.7 6 -2.5
v 10.7 6 -2.6
v 10.7 5.9 -2.6
v 10.6 5.9 -2.6
v 10.6 6 -2.6
v 10.7 6 -2.5
v 10.7 5.9 -2.5
v 10.8 5.9 -2.5
v 10.8 6 -2.5
v 10.8 6 -2.6
v 10.8 5.9 -2.6
v 10.7 5.9 -2.6
v 10.7 6 -2.6
v 10.8 6 -2.5
v 10.8 5.9 -2.5
v 10.9 5.9 -2.5
v 10.9 6 -2.5
v 10.9 6 -2.6
v 10.9 5.9 -2.6
v 10.8 5.9 -2.6
v 10.8 6 -2.6
v 10.9 6 -2.5
v 10.9 5.9 -2.5
v 11 5.9 -2.5
v 11 6 -2.5
v 11 6 -2.6
v 11 5.9 -2.6
v 10.9 5.9 -2.6
v 10.9 6 -2.6
v 11 6 -2.5
v 11 5.9 -2.5
v 11.1 5.9 -2.5
v 11.1 6 -2.5
v 11.1 6 -2.6
v 11.1 5.9 -2.6
v 11 5.9 -2.6
v 11 6 -2.6
v 11.2 6 -2.5
v 11.2 5.9 -2.5
v 11.2 5.9 -2.6
v 11.2 6 -2.6
v 11.1 5.9 -2.5
v 11.1 5.9 -2.6
v 11.2 5.9 -2.6
v 11.2 5.9 -2.5
v 11.1 6 -2.5
v 11.1 5.9 -2.5
v 11.2 5.9 -2.5
v 11.2 6 -2.5
v 11.2 6 -2.6
v 11.2 5.9 -2.6
v 11.1 5.9 -2.6
v 11.1 6 -2.6
v 10.1 5.9 -2.6
v 10.1 5.8 -2.6
v 10.1 5.8 -2.5
v 10.1 5.9 -2.5
v 10.1 5.9 -2.6
v 10.1 5.9 -2.5
v 10.2 5.9 -2.5
v 10.2 5.9 -2.6
v 10.1 5.9 -2.5
v 10.1 5.8 -2.5
v 10.2 5.8 -2.5
v 10.2 5.9 -2.5
v 10.2 5.9 -2.6
v 10.2 5.8 -2.6
v 10.1 5.8 -2.6
v 10.1 5.9 -2.6
v 10.2 5.9 -2.6
v 10.2 5.9 -2.5
v 10.3 5.9 -2.5
v 10.3 5.9 -2.6
v 10.2 5.9 -2.5
v 10.2 5.8 -2.5
v 10.3 5.8 -2.5
v 10.3 5.9 -2.5
v 10.3 5.9 -2.6
v 10.3 5.8 -2.6
v 10.2 5.8 -2.6
v 10.2 5.9 -2.6
v 10.3 5.9 -2.6
v 10.3 5.9 -2.5
v 10.4 5.9 -2.5
v 10.4 5.9 -2.6
v 10.3 5.9 -2.5
v 10.3 5.8 -2.5
v 10.4 5.8 -2.5
v 10.4 5.9 -2.5
v 10.4 5.9 -2.6
v 10.4 5.8 -2.6
v 10.3 5.8 -2.6
v 10.3 5.9 -2.6
v 10.4 5.9 -2.5
v 10.4 5.8 -2.5
v 10.5 5.8 -2.5
v 10.5 5.9 -2.5
v 10.5 5.9 -2.6
v 10.5 5.8 -2.6
v 10.4 5.8 -2.6
v 10.4 5.9 -2.6
v 10.5 5.9 -2.5
v 10.5 5.8 -2.5
v 10.6 5.8 -2.5
v 10.6 5.9 -2.5
v 10.6 5.9 -2.6
v 10.6 5.8 -2.6
v 10.5 5.8 -2.6
v 10.5 5.9 -2.6
v 10.6 5.9 -2.5
v 10.6 5.8 -2.5
v 10.7 5.8 -2.5
v 10.7 5.9 -2.5
v 10.7 5.9 -2.6
v 10.7 5.8 -2.6
v 10.6 5.8 -2.6
v 10.6 5.9 -2.6
v 10.7 5.9 -2.5
v 10.7 5.8 -2.5
v 10.8 5.8 -2.5
v 10.8 5.9 -2.5
v 10.8 5.9 -2.6
v 10.8 5.8 -2.6
v 10.7 5.8 -2.6
v 10.7 5.9 -2.6
v 10.8 5.9 -2.5
v 10.8 5.8 -2.5
v 10.9 5.8 -2.5
v 10.9 5.9 -2.5
v 10.9 5.9 -2.6
v 10.9 5.8 -2.6
v 10.8 5.8 -2.6
v 10.8 5.9 -2.6
v 10.9 5.8 -2.5
v 10.9 5.8 -2.6
v 11 5.8 -2.6
v 11 5.8 -2.5
v 10.9 5.9 -2.5
v 10.9 5.8 -2.5
v 11 5.8 -2.5
v 11 5.9 -2.5
v 11 5.9 -2.6
v 11 5.8 -2.6
v 10.9 5.8 -2.6
v 10.9 5.9 -2.6
v 11.1 5.9 -2.5
v 11.1 5.8 -2.5
v 11.1 5.8 -2.6
v 11.1 5.9 -2.6
v 11 5.8 -2.5
v 11 5.8 -2.6
v 11.1 5.8 -2.6
v 11.1 5.8 -2.5
v 11 5.9 -2.5
v 11 5.8 -2.5
v 11.1 5.8 -2.5
v 11.1 5.9 -2.5
v 11.1 5.9 -2.6
v 11.1 5.8 -2.6
v 11 5.8 -2.6
v 11 5.9 -2.6
v 9.9 5.8 -2.6
v 9.9 5.7 -2.6
v 9.9 5.7 -2.5
v 9.9 5.8 -2.5
v 9.9 5.8 -2.6
v 9.9 5.8 -2.5
v 10 5.8 -2.5
v 10 5.8 -2.6
v 9.9 5.8 -2.5
v 9.9 5.7 -2.5
v 10 5.7 -2.5
v 10 5.8 -2.5
v 10 5.8 -2.6
v 10 5.7 -2.6
v 9.9 5.7 -2.6
v 9.9 5.8 -2.6
v 10 5.8 -2.6
v 10 5.8 -2.5
v 10.1 5.8 -2.5
v 10.1 5.8 -2.6
v 10 5.8 -2.5
v 10 5.7 -2.5
v 10.1 5.7 -2.5
v 10.1 5.8 -2.5
v 10.1 5.8 -2.6
v 10.1 5.7 -2.6
v 10 5.7 -2.6
v 10 5.8 -2.6
v 10.1 5.8 -2.5
v 10.1 5.7 -2.5
v 10.2 5.7 -2.5
v 10.2 5.8 -2.5
v 10.2 5.8 -2.6
v 10.2 5.7 -2.6
v 10.1 5.7 -2.6
v 10.1 5.8 -2.6
v 10.2 5.8 -2.5
v 10.2 5.7 -2.5
v 10.3 5.7 -2.5
v 10.3 5.8 -2.5
v 10.3 5.8 -2.6
v 10.3 5.7 -2.6
v 10.2 5.7 -2.6
v 10.2 5.8 -2.6
v 10.3 5.8 -2.5
v 10.3 5.7 -2.5
v 10.4 5.7 -2.5
v 10.4 5.8 -2.5
v 10.4 5.8 -2.6
v 10.4 5.7 -2.6
v 10.3 5.7 -2.6
v 10.3 5.8 -2.6
v 10.4 5.8 -2.5
v 10.4 5.7 -2.5
v 10.5 5.7 -2.5
v 10.5 5.8 -2.5
v 10.5 5.8 -2.6
v 10.5 5.7 -2.6
v 10.4 5.7 -2.6
v 10.4 5.8 -2.6
v 10.5 5.8 -2.5
v 10.5 5.7 -2.5
v 10.6 5.7 -2.5
v 10.6 5.8 -2.5
v 10.6 5.8 -2.6
v 10.6 5.7 -2.6
v 10.5 5.7 -2.6
v 10.5 5.8 -2.6
v 10.6 5.7 -2.5
v 10.6 5.7 -2.6
v 10.7 5.7 -2.6
v 10.7 5.7 -2.5
v 10.6 5.8 -2.5
v 10.6 5.7 -2.5
v 10.7 5.7 -2.5
v 10.7 5.8 -2.5
v 10.7 5.8 -2.6
v 10.7 5.7 -2.6
v 10.6 5.7 -2.6
v 10.6 5.8 -2.6
v 10.7 5.7 -2.5
v 10.7 5.7 -2.6
v 10.8 5.7 -2.6
v 10.8 5.7 -2.5
v 10.7 5.8 -2.5
v 10.7 5.7 -2.5
v 10.8 5.7 -2.5
v 10.8 5.8 -2.5
v 10.8 5.8 -2.6
v 10.8 5.7 -2.6
v 10.7 5.7 -2.6
v 10.7 5.8 -2.6
v 10.9 5.8 -2.5
v 10.9 5.7 -2.5
v 10.9 5.7 -2.6
v 10.9 5.8 -2.6
v 10.8 5.7 -2.5
v 10.8 5.7 -2.6
v 10.9 5.7 -2.6
v 10.9 5.7 -2.5
v 10.8 5.8 -2.5
v 10.8 5.7 -2.5
v 10.9 5.7 -2.5
v 10.9 5.8 -2.5
v 10.9 5.8 -2.6
v 10.9 5.7 -2.6
v 10.8 5.7 -2.6
v 10.8 5.8 -2.6
v 9.6 5.7 -2.6
v 9.6 5.6 -2.6
v 9.6 5.6 -2.5
v 9.6 5.7 -2.5
v 9.6 5.7 -2.6
v 9.6 5.7 -2.5
v 9.7 5.7 -2.5
v 9.7 5.7 -2.6
v 9.6 5.7 -2.5
v 9.6 5.6 -2.5
v 9.7 5.6 -2.5
v 9.7 5.7 -2.5
v 9.7 5.7 -2.6
v 9.7 5.6 -2.6
v 9.6 5.6 -2.6
v 9.6 5.7 -2.6
v 9.7 5.7 -2.6
v 9.7 5.7 -2.5
v 9.8 5.7 -2.5
v 9.8 5.7 -2.6
v 9.7 5.7 -2.5
v 9.7 5.6 -2.5
v 9.8 5.6 -2.5
v 9.8 5.7 -2.5
v 9.8 5.7 -2.6
v 9.8 5.6 -2.6
v 9.7 5.6 -2.6
v 9.7 5.7 -2.6
v 9.8 5.7 -2.6
v 9.8 5.7 -2.5
v 9.9 5.7 -2.5
v 9.9 5.7 -2.6
v 9.8 5.7 -2.5
v 9.8 5.6 -2.5
v 9.9 5.6 -2.5
v 9.9 5.7 -2.5
v 9.9 5.7 -2.6
v 9.9 5.6 -2.6
v 9.8 5.6 -2.6
v 9.8 5.7 -2.6
v 9.9 5.7 -2.5
v 9.9 5.6 -2.5
v 10 5.6 -2.5
v 10 5.7 -2.5
v 10 5.7 -2.6
v 10 5.6 -2.6
v 9.9 5.6 -2.6
v 9.9 5.7 -2.6
v 10 5.7 -2.5
v 10 5.6 -2.5
v 10.1 5.6 -2.5
v 10.1 5.7 -2.5
v 10.1 5.7 -2.6
v 10.1 5.6 -2.6
v 10 5.6 -2.6
v 10 5.7 -2.6
v 10.1 5.7 -2.5
v 10.1 5.6 -2.5
v 10.2 5.6 -2.5
v 10.2 5.7 -2.5
v 10.2 5.7 -2.6
v 10.2 5.6 -2.6
v 10.1 5.6 -2.6
v 10.1 5.7 -2.6
v 10.2 5.7 -2.5
v 10.2 5.6 -2.5
v 10.3 5.6 -2.5
v 10.3 5.7 -2.5
v 10.3 5.7 -2.6
v 10.3 5.6 -2.6
v 10.2 5.6 -2.6
v 10.2 5.7 -2.6
v 10.3 5.7 -2.5
v 10.3 5.6 -2.5
v 10.4 5.6 -2.5
v 10.4 5.7 -2.5
v 10.4 5.7 -2.6
v 10.4 5.6 -2.6
v 10.3 5.6 -2.6
v 10.3 5.7 -2.6
v 10.4 5.6 -2.5
v 10.4 5.6 -2.6
v 10.5 5.6 -2.6
v 10.5 5.6 -2.5
v 10.4 5.7 -2.5
v 10.4 5.6 -2.5
v 10.5 5.6 -2.5
v 10.5 5.7 -2.5
v 10.5 5.7 -2.6
v 10.5 5.6 -2.6
v 10.4 5.6 -2.6
v 10.4 5.7 -2.6
v 10.6 5.7 -2.5
v 10.6 5.6 -2.5
v 10.6 5.6 -2.6
v 10.6 5.7 -2.6
v 10.5 5.6 -2.5
v 10.5 5.6 -2.6
v 10.6 5.6 -2.6
v 10.6 5.6 -2.5
v 10.5 5.7 -2.5
v 10.5 5.6 -2.5
v 10.6 5.6 -2.5
v 10.6 5.7 -2.5
v 10.6 5.7 -2.6
v 10.6 5.6 -2.6
v 10.5 5.6 -2.6
v 10.5 5.7 -2.6
v 7.8 5.6 -2.6
v 7.8 5.5 -2.6
v 7.8 5.5 -2.5
v 7.8 5.6 -2.5
v 7.8 5.6 -2.6
v 7.8 5.6 -2.5
v 7.9 5.6 -2.5
v 7.9 5.6 -2.6
v 7.8 5.5 -2.5
v 7.8 5.5 -2.6
v 7.9 5.5 -2.6
v 7.9 5.5 -2.5
v 7.8 5.6 -2.5
v 7.8 5.5 -2.5
v 7.9 5.5 -2.5
v 7.9 5.6 -2.5
v 7.9 5.6 -2.6
v 7.9 5.5 -2.6
v 7.8 5.5 -2.6
v 7.8 5.6 -2.6
v 7.9 5.6 -2.6
v 7.9 5.6 -2.5
v 8 5.6 -2.5
v 8 5.6 -2.6
v 7.9 5.5 -2.5
v 7.9 5.5 -2.6
v 8 5.5 -2.6
v 8 5.5 -2.5
v 7.9 5.6 -2.5
v 7.9 5.5 -2.5
v 8 5.5 -2.5
v 8 5.6 -2.5
v 8 5.6 -2.6
v 8 5.5 -2.6
v 7.9 5.5 -2.6
v 7.9 5.6 -2.6
v 8 5.6 -2.6
v 8 5.6 -2.5
v 8.1 5.6 -2.5
v 8.1 5.6 -2.6
v 8 5.5 -2.5
v 8 5.5 -2.6
v 8.1 5.5 -2.6
v 8.1 5.5 -2.5
v 8 5.6 -2.5
v 8 5.5 -2.5
v 8.1 5.5 -2.5
v 8.1 5.6 -2.5
v 8.1 5.6 -2.6
v 8.1 5.5 -2.6
v 8 5.5 -2.6
v 8 5.6 -2.6
v 8.1 5.6 -2.6
v 8.1 5.6 -2.5
v 8.2 5.6 -2.5
v 8.2 5.6 -2.6
v 8.1 5.5 -2.5
v 8.1 5.5 -2.6
v 8.2 5.5 -2.6
v 8.2 5.5 -2.5
v 8.1 5.6 -2.5
v 8.1 5.5 -2.5
v 8.2 5.5 -2.5
v 8.2 5.6 -2.5
v 8.2 5.6 -2.6
v 8.2 5.5 -2.6
v 8.1 5.5 -2.6
v 8.1 5.6 -2.6
v 8.2 5.6 -2.6
v 8.2 5.6 -2.5
v 8.3 5.6 -2.5
v 8.3 5.6 -2.6
v 8.2 5.5 -2.5
v 8.2 5.5 -2.6
v 8.3 5.5 -2.6
v 8.3 5.5 -2.5
v 8.2 5.6 -2.5
v 8.2 5.5 -2.5
v 8.3 5.5 -2.5
v 8.3 5.6 -2.5
v 8.3 5.6 -2.6
v 8.3 5.5 -2.6
v 8.2 5.5 -2.6
v 8.2 5.6 -2.6
v 8.3 5.6 -2.6
v 8.3 5.6 -2.5
v 8.4 5.6 -2.5
v 8.4 5.6 -2.6
v 8.3 5.6 -2.5
v 8.3 5.5 -2.5
v 8.4 5.5 -2.5
v 8.4 5.6 -2.5
v 8.4 5.6 -2.6
v 8.4 5.5 -2.6
v 8.3 5.5 -2.6
v 8.3 5.6 -2.6
v 8.4 5.6 -2.6
v 8.4 5.6 -2.5
v 8.5 5.6 -2.5
v 8.5 5.6 -2.6
v 8.4 5.6 -2.5
v 8.4 5.5 -2.5
v 8.5 5.5 -2.5
v 8.5 5.6 -2.5
v 8.5 5.6 -2.6
v 8.5 5.5 -2.6
v 8.4 5.5 -2.6
v 8.4 5.6 -2.6
v 8.5 5.6 -2.6
v 8.5 5.6 -2.5
v 8.6 5.6 -2.5
v 8.6 5.6 -2.6
v 8.5 5.6 -2.5
v 8.5 5.5 -2.5
v 8.6 5.5 -2.5
v 8.6 5.6 -2.5
v 8.6 5.6 -2.6
v 8.6 5.5 -2.6
v 8.5 5.5 -2.6
v 8.5 5.6 -2.6
v 8.6 5.6 -2.6
v 8.6 5.6 -2.5
v 8.7 5.6 -2.5
v 8.7 5.6 -2.6
v 8.6 5.6 -2.5
v 8.6 5.5 -2.5
v 8.7 5.5 -2.5
v 8.7 5.6 -2.5
v 8.7 5.6 -2.6
v 8.7 5.5 -2.6
v 8.6 5.5 -2.6
v 8.6 5.6 -2.6
v 8.7 5.6 -2.6
v 8.7 5.6 -2.5
v 8.8 5.6 -2.5
v 8.8 5.6 -2.6
v 8.7 5.6 -2.5
v 8.7 5.5 -2.5
v 8.8 5.5 -2.5
v 8.8 5.6 -2.5
v 8.8 5.6 -2.6
v 8.8 5.5 -2.6
v 8.7 5.5 -2.6
v 8.7 5.6 -2.6
v 8.8 5.6 -2.6
v 8.8 5.6 -2.5
v 8.9 5.6 -2.5
v 8.9 5.6 -2.6
v 8.8 5.6 -2.5
v 8.8 5.5 -2.5
v 8.9 5.5 -2.5
v 8.9 5.6 -2.5
v 8.9 5.6 -2.6
v 8.9 5.5 -2.6
v 8.8 5.5 -2.6
v 8.8 5.6 -2.6
v 8.9 5.6 -2.6
v 8.9 5.6 -2.5
v 9 5.6 -2.5
v 9 5.6 -2.6
v 8.9 5.6 -2.5
v 8.9 5.5 -2.5
v 9 5.5 -2.5
v 9 5.6 -2.5
v 9 5.6 -2.6
v 9 5.5 -2.6
v 8.9 5.5 -2.6
v 8.9 5.6 -2.6
v 9 5.6 -2.6
v 9 5.6 -2.5
v 9.1 5.6 -2.5
v 9.1 5.6 -2.6
v 9 5.6 -2.5
v 9 5.5 -2.5
v 9.1 5.5 -2.5
v 9.1 5.6 -2.5
v 9.1 5.6 -2.6
v 9.1 5.5 -2.6
v 9 5.5 -2.6
v 9 5.6 -2.6
v 9.1 5.6 -2.6
v 9.1 5.6 -2.5
v 9.2 5.6 -2.5
v 9.2 5.6 -2.6
v 9.1 5.6 -2.5
v 9.1 5.5 -2.5
v 9.2 5.5 -2.5
v 9.2 5.6 -2.5
v 9.2 5.6 -2.6
v 9.2 5.5 -2.6
v 9.1 5.5 -2.6
v 9.1 5.6 -2.6
v 9.2 5.6 -2.6
v 9.2 5.6 -2.5
v 9.3 5.6 -2.5
v 9.3 5.6 -2.6
v 9.2 5.6 -2.5
v 9.2 5.5 -2.5
v 9.3 5.5 -2.5
v 9.3 5.6 -2.5
v 9.3 5.6 -2.6
v 9.3 5.5 -2.6
v 9.2 5.5 -2.6
v 9.2 5.6 -2.6
v 9.3 5.6 -2.6
v 9.3 5.6 -2.5
v 9.4 5.6 -2.5
v 9.4 5.6 -2.6
v 9.3 5.6 -2.5
v 9.3 5.5 -2.5
v 9.4 5.5 -2.5
v 9.4 5.6 -2.5
v 9.4 5.6 -2.6
v 9.4 5.5 -2.6
v 9.3 5.5 -2.6
v 9.3 5.6 -2.6
v 9.4 5.6 -2.6
v 9.4 5.6 -2.5
v 9.5 5.6 -2.5
v 9.5 5.6 -2.6
v 9.4 5.6 -2.5
v 9.4 5.5 -2.5
v 9.5 5.5 -2.5
v 9.5 5.6 -2.5
v 9.5 5.6 -2.6
v 9.5 5.5 -2.6
v 9.4 5.5 -2.6
v 9.4 5.6 -2.6
v 9.5 5.6 -2.6
v 9.5 5.6 -2.5
v 9.6 5.6 -2.5
v 9.6 5.6 -2.6
v 9.5 5.6 -2.5
v 9.5 5.5 -2.5
v 9.6 5.5 -2.5
v 9.6 5.6 -2.5
v 9.6 5.6 -2.6
v 9.6 5.5 -2.6
v 9.5 5.5 -2.6
v 9.5 5.6 -2.6
v 9.6 5.6 -2.5
v 9.6 5.5 -2.5
v 9.7 5.5 -2.5
v 9.7 5.6 -2.5
v 9.7 5.6 -2.6
v 9.7 5.5 -2.6
v 9.6 5.5 -2.6
v 9.6 5.6 -2.6
v 9.7 5.6 -2.5
v 9.7 5.5 -2.5
v 9.8 5.5 -2.5
v 9.8 5.6 -2.5
v 9.8 5.6 -2.6
v 9.8 5.5 -2.6
v 9.7 5.5 -2.6
v 9.7 5.6 -2.6
v 9.8 5.6 -2.5
v 9.8 5.5 -2.5
v 9.9 5.5 -2.5
v 9.9 5.6 -2.5
v 9.9 5.6 -2.6
v 9.9 5.5 -2.6
v 9.8 5.5 -2.6
v 9.8 5.6 -2.6
v 9.9 5.6 -2.5
v 9.9 5.5 -2.5
v 10 5.5 -2.5
v 10 5.6 -2.5
v 10 5.6 -2.6
v 10 5.5 -2.6
v 9.9 5.5 -2.6
v 9.9 5.6 -2.6
v 10 5.5 -2.5
v 10 5.5 -2.6
v 10.1 5.5 -2.6
v 10.1 5.5 -2.5
v 10 5.6 -2.5
v 10 5.5 -2.5
v 10.1 5.5 -2.5
v 10.1 5.6 -2.5
v 10.1 5.6 -2.6
v 10.1 5.5 -2.6
v 10 5.5 -2.6
v 10 5.6 -2.6
v 10.1 5.5 -2.5
v 10.1 5.5 -2.6
v 10.2 5.5 -2.6
v 10.2 5.5 -2.5
v 10.1 5.6 -2.5
v 10.1 5.5 -2.5
v 10.2 5.5 -2.5
v 10.2 5.6 -2.5
v 10.2 5.6 -2.6
v 10.2 5.5 -2.6
v 10.1 5.5 -2.6
v 10.1 5.6 -2.6
v 10.2 5.5 -2.5
v 10.2 5.5 -2.6
v 10.3 5.5 -2.6
v 10.3 5.5 -2.5
v 10.2 5.6 -2.5
v 10.2 5.5 -2.5
v 10.3 5.5 -2.5
v 10.3 5.6 -2.5
v 10.3 5.6 -2.6
v 10.3 5.5 -2.6
v 10.2 5.5 -2.6
v 10.2 5.6 -2.6
v 10.4 5.6 -2.5
v 10.4 5.5 -2.5
v 10.4 5.5 -2.6
v 10.4 5.6 -2.6
v 10.3 5.5 -2.5
v 10.3 5.5 -2.6
v 10.4 5.5 -2.6
v 10.4 5.5 -2.5
v 10.3 5.6 -2.5
v 10.3 5.5 -2.5
v 10.4 5.5 -2.5
v 10.4 5.6 -2.5
v 10.4 5.6 -2.6
v 10.4 5.5 -2.6
v 10.3 5.5 -2.6
v 10.3 5.6 -2.6
v 8.3 5.5 -2.6
v 8.3 5.4 -2.6
v 8.3 5.4 -2.5
v 8.3 5.5 -2.5
v 8.3 5.4 -2.5
v 8.3 5.4 -2.6
v 8.4 5.4 -2.6
v 8.4 5.4 -2.5
v 8.3 5.5 -2.5
v 8.3 5.4 -2.5
v 8.4 5.4 -2.5
v 8.4 5.5 -2.5
v 8.4 5.5 -2.6
v 8.4 5.4 -2.6
v 8.3 5.4 -2.6
v 8.3 5.5 -2.6
v 8.4 5.4 -2.5
v 8.4 5.4 -2.6
v 8.5 5.4 -2.6
v 8.5 5.4 -2.5
v 8.4 5.5 -2.5
v 8.4 5.4 -2.5
v 8.5 5.4 -2.5
v 8.5 5.5 -2.5
v 8.5 5.5 -2.6
v 8.5 5.4 -2.6
v 8.4 5.4 -2.6
v 8.4 5.5 -2.6
v 8.5 5.4 -2.5
v 8.5 5.4 -2.6
v 8.6 5.4 -2.6
v 8.6 5.4 -2.5
v 8.5 5.5 -2.5
v 8.5 5.4 -2.5
v 8.6 5.4 -2.5
v 8.6 5.5 -2.5
v 8.6 5.5 -2.6
v 8.6 5.4 -2.6
v 8.5 5.4 -2.6
v 8.5 5.5 -2.6
v 8.6 5.4 -2.5
v 8.6 5.4 -2.6
v 8.7 5.4 -2.6
v 8.7 5.4 -2.5
v 8.6 5.5 -2.5
v 8.6 5.4 -2.5
v 8.7 5.4 -2.5
v 8.7 5.5 -2.5
v 8.7 5.5 -2.6
v 8.7 5.4 -2.6
v 8.6 5.4 -2.6
v 8.6 5.5 -2.6
v 8.7 5.4 -2.5
v 8.7 5.4 -2.6
v 8.8 5.4 -2.6
v 8.8 5.4 -2.5
v 8.7 5.5 -2.5
v 8.7 5.4 -2.5
v 8.8 5.4 -2.5
v 8.8 5.5 -2.5
v 8.8 5.5 -2.6
v 8.8 5.4 -2.6
v 8.7 5.4 -2.6
v 8.7 5.5 -2.6
v 8.8 5.4 -2.5
v 8.8 5.4 -2.6
v 8.9 5.4 -2.6
v 8.9 5.4 -2.5
v 8.8 5.5 -2.5
v 8.8 5.4 -2.5
v 8.9 5.4 -2.5
v 8.9 5.5 -2.5
v 8.9 5.5 -2.6
v 8.9 5.4 -2.6
v 8.8 5.4 -2.6
v 8.8 5.5 -2.6
v 8.9 5.4 -2.5
v 8.9 5.4 -2.6
v 9 5.4 -2.6
v 9 5.4 -2.5
v 8.9 5.5 -2.5
v 8.9 5.4 -2.5
v 9 5.4 -2.5
v 9 5.5 -2.5
v 9 5.5 -2.6
v 9 5.4 -2.6
v 8.9 5.4 -2.6
v 8.9 5.5 -2.6
v 9 5.4 -2.5
v 9 5.4 -2.6
v 9.1 5.4 -2.6
v 9.1 5.4 -2.5
v 9 5.5 -2.5
v 9 5.4 -2.5
v 9.1 5.4 -2.5
v 9.1 5.5 -2.5
v 9.1 5.5 -2.6
v 9.1 5.4 -2.6
v 9 5.4 -2.6
v 9 5.5 -2.6
v 9.1 5.4 -2.5
v 9.1 5.4 -2.6
v 9.2 5.4 -2.6
v 9.2 5.4 -2.5
v 9.1 5.5 -2.5
v 9.1 5.4 -2.5
v 9.2 5.4 -2.5
v 9.2 5.5 -2.5
v 9.2 5.5 -2.6
v 9.2 5.4 -2.6
v 9.1 5.4 -2.6
v 9.1 5.5 -2.6
v 9.2 5.4 -2.5
v 9.2 5.4 -2.6
v 9.3 5.4 -2.6
v 9.3 5.4 -2.5
v 9.2 5.5 -2.5
v 9.2 5.4 -2.5
v 9.3 5.4 -2.5
v 9.3 5.5 -2.5
v 9.3 5.5 -2.6
v 9.3 5.4 -2.6
v 9.2 5.4 -2.6
v 9.2 5.5 -2.6
v 9.3 5.4 -2.5
v 9.3 5.4 -2.6
v 9.4 5.4 -2.6
v 9.4 5.4 -2.5
v 9.3 5.5 -2.5
v 9.3 5.4 -2.5
v 9.4 5.4 -2.5
v 9.4 5.5 -2.5
v 9.4 5.5 -2.6
v 9.4 5.4 -2.6
v 9.3 5.4 -2.6
v 9.3 5.5 -2.6
v 9.4 5.4 -2.5
v 9.4 5.4 -2.6
v 9.5 5.4 -2.6
v 9.5 5.4 -2.5
v 9.4 5.5 -2.5
v 9.4 5.4 -2.5
v 9.5 5.4 -2.5
v 9.5 5.5 -2.5
v 9.5 5.5 -2.6
v 9.5 5.4 -2.6
v 9.4 5.4 -2.6
v 9.4 5.5 -2.6
v 9.5 5.4 -2.5
v 9.5 5.4 -2.6
v 9.6 5.4 -2.6
v 9.6 5.4 -2.5
v 9.5 5.5 -2.5
v 9.5 5.4 -2.5
v 9.6 5.4 -2.5
v 9.6 5.5 -2.5
v 9.6 5.5 -2.6
v 9.6 5.4 -2.6
v 9.5 5.4 -2.6
v 9.5 5.5 -2.6
v 9.6 5.4 -2.5
v 9.6 5.4 -2.6
v 9.7 5.4 -2.6
v 9.7 5.4 -2.5
v 9.6 5.5 -2.5
v 9.6 5.4 -2.5
v 9.7 5.4 -2.5
v 9.7 5.5 -2.5
v 9.7 5.5 -2.6
v 9.7 5.4 -2.6
v 9.6 5.4 -2.6
v 9.6 5.5 -2.6
v 9.7 5.4 -2.5
v 9.7 5.4 -2.6
v 9.8 5.4 -2.6
v 9.8 5.4 -2.5
v 9.7 5.5 -2.5
v 9.7 5.4 -2.5
v 9.8 5.4 -2.5
v 9.8 5.5 -2.5
v 9.8 5.5 -2.6
v 9.8 5.4 -2.6
v 9.7 5.4 -2.6
v 9.7 5.5 -2.6
v 9.8 5.4 -2.5
v 9.8 5.4 -2.6
v 9.9 5.4 -2.6
v 9.9 5.4 -2.5
v 9.8 5.5 -2.5
v 9.8 5.4 -2.5
v 9.9 5.4 -2.5
v 9.9 5.5 -2.5
v 9.9 5.5 -2.6
v 9.9 5.4 -2.6
v 9.8 5.4 -2.6
v 9.8 5.5 -2.6
v 10 5.5 -2.5
v 10 5.4 -2.5
v 10 5.4 -2.6
v 10 5.5 -2.6
v 9.9 5.4 -2.5
v 9.9 5.4 -2.6
v 10 5.4 -2.6
v 10 5.4 -2.5
v 9.9 5.5 -2.5
v 9.9 5.4 -2.5
v 10 5.4 -2.5
v 10 5.5 -2.5
v 10 5.5 -2.6
v 10 5.4 -2.6
v 9.9 5.4 -2.6
v 9.9 5.5 -2.6

# faces
f 1/1/1 2/1/1 3/1/1 4/1/1
f 5/1/3 6/1/3 7/1/3 8/1/3
f 9/1/5 10/1/5 11/1/5 12/1/5
f 13/1/6 14/1/6 15/1/6 16/1/6
f 17/1/3 18/1/3 19/1/3 20/1/3
f 21/1/5 22/1/5 23/1/5 24/1/5
f 25/1/6 26/1/6 27/1/6 28/1/6
f 29/1/3 30/1/3 31/1/3 32/1/3
f 33/1/5 34/1/5 35/1/5 36/1/5
f 37/1/6 38/1/6 39/1/6 40/1/6
f 41/1/2 42/1/2 43/1/2 44/1/2
f 45/1/3 46/1/3 47/1/3 48/1/3
f 49/1/5 50/1/5 51/1/5 52/1/5
f 53/1/6 54/1/6 55/1/6 56/1/6
f 57/1/1 58/1/1 59/1/1 60/1/1
f 61/1/3 62/1/3 63/1/3 64/1/3
f 65/1/5 66/1/5 67/1/5 68/1/5
f 69/1/6 70/1/6 71/1/6 72/1/6
f 73/1/3 74/1/3 75/1/3 76/1/3
f 77/1/5 78/1/5 79/1/5 80/1/5
f 81/1/6 82/1/6 83/1/6 84/1/6
f 85/1/5 86/1/5 87/1/5 88/1/5
f 89/1/6 90/1/6 91/1/6 92/1/6
f 93/1/5 94/1/5 95/1/5 96/1/5
f 97/1/6 98/1/6 99/1/6 100/1/6
f 101/1/5 102/1/5 103/1/5 104/1/5
f 105/1/6 106/1/6 107/1/6 108/1/6
f 109/1/4 110/1/4 111/1/4 112/1/4
f 113/1/5 114/1/5 115/1/5 116/1/5
f 117/1/6 118/1/6 119/1/6 120/1/6
f 121/1/2 122/1/2 123/1/2 124/1/2
f 125/1/3 126/1/3 127/1/3 128/1/3
f 129/1/4 130/1/4 131/1/4 132/1/4
f 133/1/5 134/1/5 135/1/5 136/1/5
f 137/1/6 138/1/6 139/1/6 140/1/6
f 141/1/1 142/1/1 143/1/1 144/1/1
f 145/1/3 146/1/3 147/1/3 148/1/3
f 149/1/5 150/1/5 151/1/5 152/1/5
f 153/1/6 154/1/6 155/1/6 156/1/6
f 157/1/3 158/1/3 159/1/3 160/1/3
f 161/1/5 162/1/5 163/1/5 164/1/5
f 165/1/6 166/1/6 167/1/6 168/1/6
f 169/1/5 170/1/5 171/1/5 172/1/5
f 173/1/6 174/1/6 175/1/6 176/1/6
f 177/1/5 178/1/5 179/1/5 180/1/5
f 181/1/6 182/1/6 183/1/6 184/1/6
f 185/1/5 186/1/5 187/1/5 188/1/5
f 189/1/6 190/1/6 191/1/6 192/1/6
f 193/1/4 194/1/4 195/1/4 196/1/4
f 197/1/5 198/1/5 199/1/5 200/1/5
f 201/1/6 202/1/6 203/1/6 204/1/6
f 205/1/2 206/1/2 207/1/2 208/1/2
f 209/1/4 210/1/4 211/1/4 212/1/4
f 213/1/5 214/1/5 215/1/5 216/1/5
f 217/1/6 218/1/6 219/1/6 220/1/6
f 221/1/1 222/1/1 223/1/1 224/1/1
f 225/1/3 226/1/3 227/1/3 228/1/3
f 229/1/5 230/1/5 231/1/5 232/1/5
f 233/1/6 234/1/6 235/1/6 236/1/6
f 237/1/3 238/1/3 239/1/3 240/1/3
f 241/1/5 242/1/5 243/1/5 244/1/5
f 245/1/6 246/1/6 247/1/6 248/1/6
f 249/1/3 250/1/3 251/1/3 252/1/3
f 253/1/5 254/1/5 255/1/5 256/1/5
f 257/1/6 258/1/6 259/1/6 260/1/6
f 261/1/5 262/1/5 263/1/5 264/1/5
f 265/1/6 266/1/6 267/1/6 268/1/6
f 269/1/5 270/1/5 271/1/5 272/1/5
f 273/1/6 274/1/6 275/1/6 276/1/6
f 277/1/5 278/1/5 279/1/5 280/1/5
f 281/1/6 282/1/6 283/1/6 284/1/6
f 285/1/4 286/1/4 287/1/4 288/1/4
f 289/1/5 290/1/5 291/1/5 292/1/5
f 293/1/6 294/1/6 295/1/6 296/1/6
f 297/1/2 298/1/2 299/1/2 300/1/2
f 301/1/4 302/1/4 303/1/4 304/1/4
f 305/1/5 306/1/5 307/1/5 308/1/5
f 309/1/6 310/1/6 311/1/6 312/1/6
f 313/1/1 314/1/1 315/1/1 316/1/1
f 317/1/3 318/1/3 319/1/3 320/1/3
f 321/1/5 322/1/5 323/1/5 324/1/5
f 325/1/6 326/1/6 327/1/6 328/1/6
f 329/1/5 330/1/5 331/1/5 332/1/5
f 333/1/6 334/1/6 335/1/6 336/1/6
f 337/1/5 338/1/5 339/1/5 340/1/5
f 341/1/6 342/1/6 343/1/6 344/1/6
f 345/1/5 346/1/5 347/1/5 348/1/5
f 349/1/6 350/1/6 351/1/6 352/1/6
f 353/1/5 354/1/5 355/1/5 356/1/5
f 357/1/6 358/1/6 359/1/6 360/1/6
f 361/1/4 362/1/4 363/1/4 364/1/4
f 365/1/5 366/1/5 367/1/5 368/1/5
f 369/1/6 370/1/6 371/1/6 372/1/6
f 373/1/2 374/1/2 375/1/2 376/1/2
f 377/1/4 378/1/4 379/1/4 380/1/4
f 381/1/5 382/1/5 383/1/5 384/1/5
f 385/1/6 386/1/6 387/1/6 388/1/6
f 389/1/1 390/1/1 391/1/1 392/1/1
f 393/1/2 394/1/2 395/1/2 396/1/2
f 397/1/3 398/1/3 399/1/3 400/1/3
f 401/1/5 402/1/5 403/1/5 404/1/5
f 405/1/6 406/1/6 407/1/6 408/1/6
f 409/1/1 410/1/1 411/1/1 412/1/1
f 413/1/3 414/1/3 415/1/3 416/1/3
f 417/1/5 418/1/5 419/1/5 420/1/5
f 421/1/6 422/1/6 423/1/6 424/1/6
f 425/1/5 426/1/5 427/1/5 428/1/5
f 429/1/6 430/1/6 431/1/6 432/1/6
f 433/1/5 434/1/5 435/1/5 436/1/5
f 437/1/6 438/1/6 439/1/6 440/1/6
f 441/1/5 442/1/5 443/1/5 444/1/5
f 445/1/6 446/1/6 447/1/6 448/1/6
f 449/1/4 450/1/4 451/1/4 452/1/4
f 453/1/5 454/1/5 455/1/5 456/1/5
f 457/1/6 458/1/6 459/1/6 460/1/6
f 461/1/2 462/1/2 463/1/2 464/1/2
f 465/1/4 466/1/4 467/1/4 468/1/4
f 469/1/5 470/1/5 471/1/5 472/1/5
f 473/1/6 474/1/6 475/1/6 476/1/6
f 477/1/1 478/1/1 479/1/1 480/1/1
f 481/1/2 482/1/2 483/1/2 484/1/2
f 485/1/4 486/1/4 487/1/4 488/1/4
f 489/1/5 490/1/5 491/1/5 492/1/5
f 493/1/6 494/1/6 495/1/6 496/1/6
f 497/1/1 498/1/1 499/1/1 500/1/1
f 501/1/3 502/1/3 503/1/3 504/1/3
f 505/1/5 506/1/5 507/1/5 508/1/5
f 509/1/6 510/1/6 511/1/6 512/1/6
f 513/1/5 514/1/5 515/1/5 516/1/5
f 517/1/6 518/1/6 519/1/6 520/1/6
f 521/1/5 522/1/5 523/1/5 524/1/5
f 525/1/6 526/1/6 527/1/6 528/1/6
f 529/1/4 530/1/4 531/1/4 532/1/4
f 533/1/5 534/1/5 535/1/5 536/1/5
f 537/1/6 538/1/6 539/1/6 540/1/6
f 541/1/2 542/1/2 543/1/2 544/1/2
f 545/1/4 546/1/4 547/1/4 548/1/4
f 549/1/5 550/1/5 551/1/5 552/1/5
f 553/1/6 554/1/6 555/1/6 556/1/6
f 557/1/1 558/1/1 559/1/1 560/1/1
f 561/1/2 562/1/2 563/1/2 564/1/2
f 565/1/3 566/1/3 567/1/3 568/1/3
f 569/1/5 570/1/5 571/1/5 572/1/5
f 573/1/6 574/1/6 575/1/6 576/1/6
f 577/1/1 578/1/1 579/1/1 580/1/1
f 581/1/3 582/1/3 583/1/3 584/1/3
f 585/1/5 586/1/5 587/1/5 588/1/5
f 589/1/6 590/1/6 591/1/6 592/1/6
f 593/1/5 594/1/5 595/1/5 596/1/5
f 597/1/6 598/1/6 599/1/6 600/1/6
f 601/1/5 602/1/5 603/1/5 604/1/5
f 605/1/6 606/1/6 607/1/6 608/1/6
f 609/1/2 610/1/2 611/1/2 612/1/2
f 613/1/4 614/1/4 615/1/4 616/1/4
f 617/1/5 618/1/5 619/1/5 620/1/5
f 621/1/6 622/1/6 623/1/6 624/1/6
f 625/1/1 626/1/1 627/1/1 628/1/1
f 629/1/3 630/1/3 631/1/3 632/1/3
f 633/1/5 634/1/5 635/1/5 636/1/5
f 637/1/6 638/1/6 639/1/6 640/1/6
f 641/1/2 642/1/2 643/1/2 644/1/2
f 645/1/5 646/1/5 647/1/5 648/1/5
f 649/1/6 650/1/6 651/1/6 652/1/6
f 653/1/1 654/1/1 655/1/1 656/1/1
f 657/1/5 658/1/5 659/1/5 660/1/5
f 661/1/6 662/1/6 663/1/6 664/1/6
f 665/1/4 666/1/4 667/1/4 668/1/4
f 669/1/5 670/1/5 671/1/5 672/1/5
f 673/1/6 674/1/6 675/1/6 676/1/6
f 677/1/2 678/1/2 679/1/2 680/1/2
f 681/1/4 682/1/4 683/1/4 684/1/4
f 685/1/5 686/1/5 687/1/5 688/1/5
f 689/1/6 690/1/6 691/1/6 692/1/6
f 693/1/1 694/1/1 695/1/1 696/1/1
f 697/1/5 698/1/5 699/1/5 700/1/5
f 701/1/6 702/1/6 703/1/6 704/1/6
f 705/1/2 706/1/2 707/1/2 708/1/2
f 709/1/4 710/1/4 711/1/4 712/1/4
f 713/1/5 714/1/5 715/1/5 716/1/5
f 717/1/6 718/1/6 719/1/6 720/1/6
f 721/1/1 722/1/1 723/1/1 724/1/1
f 725/1/3 726/1/3 727/1/3 728/1/3
f 729/1/5 730/1/5 731/1/5 732/1/5
f 733/1/6 734/1/6 735/1/6 736/1/6
f 737/1/3 738/1/3 739/1/3 740/1/3
f 741/1/5 742/1/5 743/1/5 744/1/5
f 745/1/6 746/1/6 747/1/6 748/1/6
f 749/1/3 750/1/3 751/1/3 752/1/3
f 753/1/4 754/1/4 755/1/4 756/1/4
f 757/1/5 758/1/5 759/1/5 760/1/5
f 761/1/6 762/1/6 763/1/6 764/1/6
f 765/1/2 766/1/2 767/1/2 768/1/2
f 769/1/4 770/1/4 771/1/4 772/1/4
f 773/1/5 774/1/5 775/1/5 776/1/5
f 777/1/6 778/1/6 779/1/6 780/1/6
f 781/1/1 782/1/1 783/1/1 784/1/1
f 785/1/3 786/1/3 787/1/3 788/1/3
f 789/1/5 790/1/5 791/1/5 792/1/5
f 793/1/6 794/1/6 795/1/6 796/1/6
f 797/1/2 798/1/2 799/1/2 800/1/2
f 801/1/5 802/1/5 803/1/5 804/1/5
f 805/1/6 806/1/6 807/1/6 808/1/6
f 809/1/1 810/1/1 811/1/1 812/1/1
f 813/1/3 814/1/3 815/1/3 816/1/3
f 817/1/5 818/1/5 819/1/5 820/1/5
f 821/1/6 822/1/6 823/1/6 824/1/6
f 825/1/4 826/1/4 827/1/4 828/1/4
f 829/1/5 830/1/5 831/1/5 832/1/5
f 833/1/6 834/1/6 835/1/6 836/1/6
f 837/1/2 838/1/2 839/1/2 840/1/2
f 841/1/4 842/1/4 843/1/4 844/1/4
f 845/1/5 846/1/5 847/1/5 848/1/5
f 849/1/6 850/1/6 851/1/6 852/1/6
f 853/1/1 854/1/1 855/1/1 856/1/1
f 857/1/3 858/1/3 859/1/3 860/1/3
f 861/1/5 862/1/5 863/1/5 864/1/5
f 865/1/6 866/1/6 867/1/6 868/1/6
f 869/1/5 870/1/5 871/1/5 872/1/5
f 873/1/6 874/1/6 875/1/6 876/1/6
f 877/1/2 878/1/2 879/1/2 880/1/2
f 881/1/4 882/1/4 883/1/4 884/1/4
f 885/1/5 886/1/5 887/1/5 888/1/5
f 889/1/6 890/1/6 891/1/6 892/1/6
f 893/1/1 894/1/1 895/1/1 896/1/1
f 897/1/3 898/1/3 899/1/3 900/1/3
f 901/1/4 902/1/4 903/1/4 904/1/4
f 905/1/5 906/1/5 907/1/5 908/1/5
f 909/1/6 910/1/6 911/1/6 912/1/6
f 913/1/2 914/1/2 915/1/2 916/1/2
f 917/1/4 918/1/4 919/1/4 920/1/4
f 921/1/5 922/1/5 923/1/5 924/1/5
f 925/1/6 926/1/6 927/1/6 928/1/6
f 929/1/1 930/1/1 931/1/1 932/1/1
f 933/1/3 934/1/3 935/1/3 936/1/3
f 937/1/5 938/1/5 939/1/5 940/1/5
f 941/1/6 942/1/6 943/1/6 944/1/6
f 945/1/5 946/1/5 947/1/5 948/1/5
f 949/1/6 950/1/6 951/1/6 952/1/6
f 953/1/2 954/1/2 955/1/2 956/1/2
f 957/1/5 958/1/5 959/1/5 960/1/5
f 961/1/6 962/1/6 963/1/6 964/1/6
f 965/1/1 966/1/1 967/1/1 968/1/1
f 969/1/2 970/1/2 971/1/2 972/1/2
f 973/1/3 974/1/3 975/1/3 976/1/3
f 977/1/4 978/1/4 979/1/4 980/1/4
f 981/1/5 982/1/5 983/1/5 984/1/5
f 985/1/6 986/1/6 987/1/6 988/1/6
f 989/1/1 990/1/1 991/1/1 992/1/1
f 993/1/3 994/1/3 995/1/3 996/1/3
f 997/1/5 998/1/5 999/1/5 1000/1/5
f 1001/1/6 1002/1/6 1003/1/6 1004/1/6
f 1005/1/5 1006/1/5 1007/1/5 1008/1/5
f 1009/1/6 1010/1/6 1011/1/6 1012/1/6
f 1013/1/5 1014/1/5 1015/1/5 1016/1/5
f 1017/1/6 1018/1/6 1019/1/6 1020/1/6
f 1021/1/2 1022/1/2 1023/1/2 1024/1/2
f 1025/1/4 1026/1/4 1027/1/4 1028/1/4
f 1029/1/5 1030/1/5 1031/1/5 1032/1/5
f 1033/1/6 1034/1/6 1035/1/6 1036/1/6
f 1037/1/1 1038/1/1 1039/1/1 1040/1/1
f 1041/1/3 1042/1/3 1043/1/3 1044/1/3
f 1045/1/5 1046/1/5 1047/1/5 1048/1/5
f 1049/1/6 1050/1/6 1051/1/6 1052/1/6
f 1053/1/3 1054/1/3 1055/1/3 1056/1/3
f 1057/1/5 1058/1/5 1059/1/5 1060/1/5
f 1061/1/6 1062/1/6 1063/1/6 1064/1/6
f 1065/1/5 1066/1/5 1067/1/5 1068/1/5
f 1069/1/6 1070/1/6 1071/1/6 1072/1/6
f 1073/1/5 1074/1/5 1075/1/5 1076/1/5
f 1077/1/6 1078/1/6 1079/1/6 1080/1/6
f 1081/1/2 1082/1/2 1083/1/2 1084/1/2
f 1085/1/4 1086/1/4 1087/1/4 1088/1/4
f 1089/1/5 1090/1/5 1091/1/5 1092/1/5
f 1093/1/6 1094/1/6 1095/1/6 1096/1/6
f 1097/1/1 1098/1/1 1099/1/1 1100/1/1
f 1101/1/3 1102/1/3 1103/1/3 1104/1/3
f 1105/1/5 1106/1/5 1107/1/5 1108/1/5
f 1109/1/6 1110/1/6 1111/1/6 1112/1/6
f 1113/1/5 1114/1/5 1115/1/5 1116/1/5
f 1117/1/6 1118/1/6 1119/1/6 1120/1/6
f 1121/1/5 1122/1/5 1123/1/5 1124/1/5
f 1125/1/6 1126/1/6 1127/1/6 1128/1/6
f 1129/1/5 1130/1/5 1131/1/5 1132/1/5
f 1133/1/6 1134/1/6 1135/1/6 1136/1/6
f 1137/1/2 1138/1/2 1139/1/2 1140/1/2
f 1141/1/5 1142/1/5 1143/1/5 1144/1/5
f 1145/1/6 1146/1/6 1147/1/6 1148/1/6
f 1149/1/1 1150/1/1 1151/1/1 1152/1/1
f 1153/1/3 1154/1/3 1155/1/3 1156/1/3
f 1157/1/5 1158/1/5 1159/1/5 1160/1/5
f 1161/1/6 1162/1/6 1163/1/6 1164/1/6
f 1165/1/5 1166/1/5 1167/1/5 1168/1/5
f 1169/1/6 1170/1/6 1171/1/6 1172/1/6
f 1173/1/5 1174/1/5 1175/1/5 1176/1/5
f 1177/1/6 1178/1/6 1179/1/6 1180/1/6
f 1181/1/5 1182/1/5 1183/1/5 1184/1/5
f 1185/1/6 1186/1/6 1187/1/6 1188/1/6
f 1189/1/5 1190/1/5 1191/1/5 1192/1/5
f 1193/1/6 1194/1/6 1195/1/6 1196/1/6
f 1197/1/2 1198/1/2 1199/1/2 1200/1/2
f 1201/1/4 1202/1/4 1203/1/4 1204/1/4
f 1205/1/5 1206/1/5 1207/1/5 1208/1/5
f 1209/1/6 1210/1/6 1211/1/6 1212/1/6
f 1213/1/1 1214/1/1 1215/1/1 1216/1/1
f 1217/1/3 1218/1/3 1219/1/3 1220/1/3
f 1221/1/5 1222/1/5 1223/1/5 1224/1/5
f 1225/1/6 1226/1/6 1227/1/6 1228/1/6
f 1229/1/3 1230/1/3 1231/1/3 1232/1/3
f 1233/1/5 1234/1/5 1235/1/5 1236/1/5
f 1237/1/6 1238/1/6 1239/1/6 1240/1/6
f 1241/1/5 1242/1/5 1243/1/5 1244/1/5
f 1245/1/6 1246/1/6 1247/1/6 1248/1/6
f 1249/1/5 1250/1/5 1251/1/5 1252/1/5
f 1253/1/6 1254/1/6 1255/1/6 1256/1/6
f 1257/1/5 1258/1/5 1259/1/5 1260/1/5
f 1261/1/6 1262/1/6 1263/1/6 1264/1/6
f 1265/1/5 1266/1/5 1267/1/5 1268/1/5
f 1269/1/6 1270/1/6 1271/1/6 1272/1/6
f 1273/1/2 1274/1/2 1275/1/2 1276/1/2
f 1277/1/4 1278/1/4 1279/1/4 1280/1/4
f 1281/1/5 1282/1/5 1283/1/5 1284/1/5
f 1285/1/6 1286/1/6 1287/1/6 1288/1/6
f 1289/1/1 1290/1/1 1291/1/1 1292/1/1
f 1293/1/3 1294/1/3 1295/1/3 1296/1/3
f 1297/1/5 1298/1/5 1299/1/5 1300/1/5
f 1301/1/6 1302/1/6 1303/1/6 1304/1/6
f 1305/1/5 1306/1/5 1307/1/5 1308/1/5
f 1309/1/6 1310/1/6 1311/1/6 1312/1/6
f 1313/1/5 1314/1/5 1315/1/5 1316/1/5
f 1317/1/6 1318/1/6 1319/1/6 1320/1/6
f 1321/1/5 1322/1/5 1323/1/5 1324/1/5
f 1325/1/6 1326/1/6 1327/1/6 1328/1/6
f 1329/1/5 1330/1/5 1331/1/5 1332/1/5
f 1333/1/6 1334/1/6 1335/1/6 1336/1/6
f 1337/1/5 1338/1/5 1339/1/5 1340/1/5
f 1341/1/6 1342/1/6 1343/1/6 1344/1/6
f 1345/1/2 1346/1/2 1347/1/2 1348/1/2
f 1349/1/4 1350/1/4 1351/1/4 1352/1/4
f 1353/1/5 1354/1/5 1355/1/5 1356/1/5
f 1357/1/6 1358/1/6 1359/1/6 1360/1/6
f 1361/1/1 1362/1/1 1363/1/1 1364/1/1
f 1365/1/3 1366/1/3 1367/1/3 1368/1/3
f 1369/1/5 1370/1/5 1371/1/5 1372/1/5
f 1373/1/6 1374/1/6 1375/1/6 1376/1/6
f 1377/1/3 1378/1/3 1379/1/3 1380/1/3
f 1381/1/5 1382/1/5 1383/1/5 1384/1/5
f 1385/1/6 1386/1/6 1387/1/6 1388/1/6
f 1389/1/5 1390/1/5 1391/1/5 1392/1/5
f 1393/1/6 1394/1/6 1395/1/6 1396/1/6
f 1397/1/5 1398/1/5 1399/1/5 1400/1/5
f 1401/1/6 1402/1/6 1403/1/6 1404/1/6
f 1405/1/5 1406/1/5 1407/1/5 1408/1/5
f 1409/1/6 1410/1/6 1411/1/6 1412/1/6
f 1413/1/5 1414/1/5 1415/1/5 1416/1/5
f 1417/1/6 1418/1/6 1419/1/6 1420/1/6
f 1421/1/4 1422/1/4 1423/1/4 1424/1/4
f 1425/1/5 1426/1/5 1427/1/5 1428/1/5
f 1429/1/6 1430/1/6 1431/1/6 1432/1/6
f 1433/1/2 1434/1/2 1435/1/2 1436/1/2
f 1437/1/4 1438/1/4 1439/1/4 1440/1/4
f 1441/1/5 1442/1/5 1443/1/5 1444/1/5
f 1445/1/6 1446/1/6 1447/1/6 1448/1/6
f 1449/1/1 1450/1/1 1451/1/1 1452/1/1
f 1453/1/3 1454/1/3 1455/1/3 1456/1/3
f 1457/1/5 1458/1/5 1459/1/5 1460/1/5
f 1461/1/6 1462/1/6 1463/1/6 1464/1/6
f 1465/1/5 1466/1/5 1467/1/5 1468/1/5
f 1469/1/6 1470/1/6 1471/1/6 1472/1/6
f 1473/1/5 1474/1/5 1475/1/5 1476/1/5
f 1477/1/6 1478/1/6 1479/1/6 1480/1/6
f 1481/1/5 1482/1/5 1483/1/5 1484/1/5
f 1485/1/6 1486/1/6 1487/1/6 1488/1/6
f 1489/1/5 1490/1/5 1491/1/5 1492/1/5
f 1493/1/6 1494/1/6 1495/1/6 1496/1/6
f 1497/1/5 1498/1/5 1499/1/5 1500/1/5
f 1501/1/6 1502/1/6 1503/1/6 1504/1/6
f 1505/1/2 1506/1/2 1507/1/2 1508/1/2
f 1509/1/4 1510/1/4 1511/1/4 1512/1/4
f 1513/1/5 1514/1/5 1515/1/5 1516/1/5
f 1517/1/6 1518/1/6 1519/1/6 1520/1/6
f 1521/1/1 1522/1/1 1523/1/1 1524/1/1
f 1525/1/3 1526/1/3 1527/1/3 1528/1/3
f 1529/1/5 1530/1/5 1531/1/5 1532/1/5
f 1533/1/6 1534/1/6 1535/1/6 1536/1/6
f 1537/1/3 1538/1/3 1539/1/3 1540/1/3
f 1541/1/5 1542/1/5 1543/1/5 1544/1/5
f 1545/1/6 1546/1/6 1547/1/6 1548/1/6
f 1549/1/5 1550/1/5 1551/1/5 1552/1/5
f 1553/1/6 1554/1/6 1555/1/6 1556/1/6
f 1557/1/5 1558/1/5 1559/1/5 1560/1/5
f 1561/1/6 1562/1/6 1563/1/6 1564/1/6
f 1565/1/5 1566/1/5 1567/1/5 1568/1/5
f 1569/1/6 1570/1/6 1571/1/6 1572/1/6
f 1573/1/5 1574/1/5 1575/1/5 1576/1/5
f 1577/1/6 1578/1/6 1579/1/6 1580/1/6
f 1581/1/4 1582/1/4 1583/1/4 1584/1/4
f 1585/1/5 1586/1/5 1587/1/5 1588/1/5
f 1589/1/6 1590/1/6 1591/1/6 1592/1/6
f 1593/1/2 1594/1/2 1595/1/2 1596/1/2
f 1597/1/4 1598/1/4 1599/1/4 1600/1/4
f 1601/1/5 1602/1/5 1603/1/5 1604/1/5
f 1605/1/6 1606/1/6 1607/1/6 1608/1/6
f 1609/1/1 1610/1/1 1611/1/1 1612/1/1
f 1613/1/3 1614/1/3 1615/1/3 1616/1/3
f 1617/1/5 1618/1/5 1619/1/5 1620/1/5
f 1621/1/6 1622/1/6 1623/1/6 1624/1/6
f 1625/1/3 1626/1/3 1627/1/3 1628/1/3
f 1629/1/5 1630/1/5 1631/1/5 1632/1/5
f 1633/1/6 1634/1/6 1635/1/6 1636/1/6
f 1637/1/5 1638/1/5 1639/1/5 1640/1/5
f 1641/1/6 1642/1/6 1643/1/6 1644/1/6
f 1645/1/5 1646/1/5 1647/1/5 1648/1/5
f 1649/1/6 1650/1/6 1651/1/6 1652/1/6
f 1653/1/5 1654/1/5 1655/1/5 1656/1/5
f 1657/1/6 1658/1/6 1659/1/6 1660/1/6
f 1661/1/5 1662/1/5 1663/1/5 1664/1/5
f 1665/1/6 1666/1/6 1667/1/6 1668/1/6
f 1669/1/5 1670/1/5 1671/1/5 1672/1/5
f 1673/1/6 1674/1/6 1675/1/6 1676/1/6
f 1677/1/2 1678/1/2 1679/1/2 1680/1/2
f 1681/1/4 1682/1/4 1683/1/4 1684/1/4
f 1685/1/5 1686/1/5 1687/1/5 1688/1/5
f 1689/1/6 1690/1/6 1691/1/6 1692/1/6
f 1693/1/1 1694/1/1 1695/1/1 1696/1/1
f 1697/1/3 1698/1/3 1699/1/3 1700/1/3
f 1701/1/5 1702/1/5 1703/1/5 1704/1/5
f 1705/1/6 1706/1/6 1707/1/6 1708/1/6
f 1709/1/3 1710/1/3 1711/1/3 1712/1/3
f 1713/1/5 1714/1/5 1715/1/5 1716/1/5
f 1717/1/6 1718/1/6 1719/1/6 1720/1/6
f 1721/1/3 1722/1/3 1723/1/3 1724/1/3
f 1725/1/5 1726/1/5 1727/1/5 1728/1/5
f 1729/1/6 1730/1/6 1731/1/6 1732/1/6
f 1733/1/5 1734/1/5 1735/1/5 1736/1/5
f 1737/1/6 1738/1/6 1739/1/6 1740/1/6
f 1741/1/5 1742/1/5 1743/1/5 1744/1/5
f 1745/1/6 1746/1/6 1747/1/6 1748/1/6
f 1749/1/5 1750/1/5 1751/1/5 1752/1/5
f 1753/1/6 1754/1/6 1755/1/6 1756/1/6
f 1757/1/5 1758/1/5 1759/1/5 1760/1/5
f 1761/1/6 1762/1/6 1763/1/6 1764/1/6
f 1765/1/5 1766/1/5 1767/1/5 1768/1/5
f 1769/1/6 1770/1/6 1771/1/6 1772/1/6
f 1773/1/4 1774/1/4 1775/1/4 1776/1/4
f 1777/1/5 1778/1/5 1779/1/5 1780/1/5
f 1781/1/6 1782/1/6 1783/1/6 1784/1/6
f 1785/1/2 1786/1/2 1787/1/2 1788/1/2
f 1789/1/4 1790/1/4 1791/1/4 1792/1/4
f 1793/1/5 1794/1/5 1795/1/5 1796/1/5
f 1797/1/6 1798/1/6 1799/1/6 1800/1/6
f 1801/1/1 1802/1/1 1803/1/1 1804/1/1
f 1805/1/3 1806/1/3 1807/1/3 1808/1/3
f 1809/1/5 1810/1/5 1811/1/5 1812/1/5
f 1813/1/6 1814/1/6 1815/1/6 1816/1/6
f 1817/1/3 1818/1/3 1819/1/3 1820/1/3
f 1821/1/5 1822/1/5 1823/1/5 1824/1/5
f 1825/1/6 1826/1/6 1827/1/6 1828/1/6
f 1829/1/5 1830/1/5 1831/1/5 1832/1/5
f 1833/1/6 1834/1/6 1835/1/6 1836/1/6
f 1837/1/5 1838/1/5 1839/1/5 1840/1/5
f 1841/1/6 1842/1/6 1843/1/6 1844/1/6
f 1845/1/5 1846/1/5 1847/1/5 1848/1/5
f 1849/1/6 1850/1/6 1851/1/6 1852/1/6
f 1853/1/5 1854/1/5 1855/1/5 1856/1/5
f 1857/1/6 1858/1/6 1859/1/6 1860/1/6
f 1861/1/5 1862/1/5 1863/1/5 1864/1/5
f 1865/1/6 1866/1/6 1867/1/6 1868/1/6
f 1869/1/4 1870/1/4 1871/1/4 1872/1/4
f 1873/1/5 1874/1/5 1875/1/5 1876/1/5
f 1877/1/6 1878/1/6 1879/1/6 1880/1/6
f 1881/1/4 1882/1/4 1883/1/4 1884/1/4
f 1885/1/5 1886/1/5 1887/1/5 1888/1/5
f 1889/1/6 1890/1/6 1891/1/6 1892/1/6
f 1893/1/2 1894/1/2 1895/1/2 1896/1/2
f 1897/1/4 1898/1/4 1899/1/4 1900/1/4
f 1901/1/5 1902/1/5 1903/1/5 1904/1/5
f 1905/1/6 1906/1/6 1907/1/6 1908/1/6
f 1909/1/1 1910/1/1 1911/1/1 1912/1/1
f 1913/1/3 1914/1/3 1915/1/3 1916/1/3
f 1917/1/5 1918/1/5 1919/1/5 1920/1/5
f 1921/1/6 1922/1/6 1923/1/6 1924/1/6
f 1925/1/3 1926/1/3 1927/1/3 1928/1/3
f 1929/1/5 1930/1/5 1931/1/5 1932/1/5
f 1933/1/6 1934/1/6 1935/1/6 1936/1/6
f 1937/1/3 1938/1/3 1939/1/3 1940/1/3
f 1941/1/5 1942/1/5 1943/1/5 1944/1/5
f 1945/1/6 1946/1/6 1947/1/6 1948/1/6
f 1949/1/5 1950/1/5 1951/1/5 1952/1/5
f 1953/1/6 1954/1/6 1955/1/6 1956/1/6
f 1957/1/5 1958/1/5 1959/1/5 1960/1/5
f 1961/1/6 1962/1/6 1963/1/6 1964/1/6
f 1965/1/5 1966/1/5 1967/1/5 1968/1/5
f 1969/1/6 1970/1/6 1971/1/6 1972/1/6
f 1973/1/5 1974/1/5 1975/1/5 1976/1/5
f 1977/1/6 1978/1/6 1979/1/6 1980/1/6
f 1981/1/5 1982/1/5 1983/1/5 1984/1/5
f 1985/1/6 1986/1/6 1987/1/6 1988/1/6
f 1989/1/4 1990/1/4 1991/1/4 1992/1/4
f 1993/1/5 1994/1/5 1995/1/5 1996/1/5
f 1997/1/6 1998/1/6 1999/1/6 2000/1/6
f 2001/1/2 2002/1/2 2003/1/2 2004/1/2
f 2005/1/4 2006/1/4 2007/1/4 2008/1/4
f 2009/1/5 2010/1/5 2011/1/5 2012/1/5
f 2013/1/6 2014/1/6 2015/1/6 2016/1/6
f 2017/1/1 2018/1/1 2019/1/1 2020/1/1
f 2021/1/3 2022/1/3 2023/1/3 2024/1/3
f 2025/1/4 2026/1/4 2027/1/4 2028/1/4
f 2029/1/5 2030/1/5 2031/1/5 2032/1/5
f 2033/1/6 2034/1/6 2035/1/6 2036/1/6
f 2037/1/3 2038/1/3 2039/1/3 2040/1/3
f 2041/1/4 2042/1/4 2043/1/4 2044/1/4
f 2045/1/5 2046/1/5 2047/1/5 2048/1/5
f 2049/1/6 2050/1/6 2051/1/6 2052/1/6
f 2053/1/3 2054/1/3 2055/1/3 2056/1/3
f 2057/1/4 2058/1/4 2059/1/4 2060/1/4
f 2061/1/5 2062/1/5 2063/1/5 2064/1/5
f 2065/1/6 2066/1/6 2067/1/6 2068/1/6
f 2069/1/3 2070/1/3 2071/1/3 2072/1/3
f 2073/1/4 2074/1/4 2075/1/4 2076/1/4
f 2077/1/5 2078/1/5 2079/1/5 2080/1/5
f 2081/1/6 2082/1/6 2083/1/6 2084/1/6
f 2085/1/3 2086/1/3 2087/1/3 2088/1/3
f 2089/1/4 2090/1/4 2091/1/4 2092/1/4
f 2093/1/5 2094/1/5 2095/1/5 2096/1/5
f 2097/1/6 2098/1/6 2099/1/6 2100/1/6
f 2101/1/3 2102/1/3 2103/1/3 2104/1/3
f 2105/1/5 2106/1/5 2107/1/5 2108/1/5
f 2109/1/6 2110/1/6 2111/1/6 2112/1/6
f 2113/1/3 2114/1/3 2115/1/3 2116/1/3
f 2117/1/5 2118/1/5 2119/1/5 2120/1/5
f 2121/1/6 2122/1/6 2123/1/6 2124/1/6
f 2125/1/3 2126/1/3 2127/1/3 2128/1/3
f 2129/1/5 2130/1/5 2131/1/5 2132/1/5
f 2133/1/6 2134/1/6 2135/1/6 2136/1/6
f 2137/1/3 2138/1/3 2139/1/3 2140/1/3
f 2141/1/5 2142/1/5 2143/1/5 2144/1/5
f 2145/1/6 2146/1/6 2147/1/6 2148/1/6
f 2149/1/3 2150/1/3 2151/1/3 2152/1/3
f 2153/1/5 2154/1/5 2155/1/5 2156/1/5
f 2157/1/6 2158/1/6 2159/1/6 2160/1/6
f 2161/1/3 2162/1/3 2163/1/3 2164/1/3
f 2165/1/5 2166/1/5 2167/1/5 2168/1/5
f 2169/1/6 2170/1/6 2171/1/6 2172/1/6
f 2173/1/3 2174/1/3 2175/1/3 2176/1/3
f 2177/1/5 2178/1/5 2179/1/5 2180/1/5
f 2181/1/6 2182/1/6 2183/1/6 2184/1/6
f 2185/1/3 2186/1/3 2187/1/3 2188/1/3
f 2189/1/5 2190/1/5 2191/1/5 2192/1/5
f 2193/1/6 2194/1/6 2195/1/6 2196/1/6
f 2197/1/3 2198/1/3 2199/1/3 2200/1/3
f 2201/1/5 2202/1/5 2203/1/5 2204/1/5
f 2205/1/6 2206/1/6 2207/1/6 2208/1/6
f 2209/1/3 2210/1/3 2211/1/3 2212/1/3
f 2213/1/5 2214/1/5 2215/1/5 2216/1/5
f 2217/1/6 2218/1/6 2219/1/6 2220/1/6
f 2221/1/3 2222/1/3 2223/1/3 2224/1/3
f 2225/1/5 2226/1/5 2227/1/5 2228/1/5
f 2229/1/6 2230/1/6 2231/1/6 2232/1/6
f 2233/1/3 2234/1/3 2235/1/3 2236/1/3
f 2237/1/5 2238/1/5 2239/1/5 2240/1/5
f 2241/1/6 2242/1/6 2243/1/6 2244/1/6
f 2245/1/3 2246/1/3 2247/1/3 2248/1/3
f 2249/1/5 2250/1/5 2251/1/5 2252/1/5
f 2253/1/6 2254/1/6 2255/1/6 2256/1/6
f 2257/1/5 2258/1/5 2259/1/5 2260/1/5
f 2261/1/6 2262/1/6 2263/1/6 2264/1/6
f 2265/1/5 2266/1/5 2267/1/5 2268/1/5
f 2269/1/6 2270/1/6 2271/1/6 2272/1/6
f 2273/1/5 2274/1/5 2275/1/5 2276/1/5
f 2277/1/6 2278/1/6 2279/1/6 2280/1/6
f 2281/1/5 2282/1/5 2283/1/5 2284/1/5
f 2285/1/6 2286/1/6 2287/1/6 2288/1/6
f 2289/1/4 2290/1/4 2291/1/4 2292/1/4
f 2293/1/5 2294/1/5 2295/1/5 2296/1/5
f 2297/1/6 2298/1/6 2299/1/6 2300/1/6
f 2301/1/4 2302/1/4 2303/1/4 2304/1/4
f 2305/1/5 2306/1/5 2307/1/5 2308/1/5
f 2309/1/6 2310/1/6 2311/1/6 2312/1/6
f 2313/1/4 2314/1/4 2315/1/4 2316/1/4
f 2317/1/5 2318/1/5 2319/1/5 2320/1/5
f 2321/1/6 2322/1/6 2323/1/6 2324/1/6
f 2325/1/2 2326/1/2 2327/1/2 2328/1/2
f 2329/1/4 2330/1/4 2331/1/4 2332/1/4
f 2333/1/5 2334/1/5 2335/1/5 2336/1/5
f 2337/1/6 2338/1/6 2339/1/6 2340/1/6
f 2341/1/1 2342/1/1 2343/1/1 2344/1/1
f 2345/1/4 2346/1/4 2347/1/4 2348/1/4
f 2349/1/5 2350/1/5 2351/1/5 2352/1/5
f 2353/1/6 2354/1/6 2355/1/6 2356/1/6
f 2357/1/4 2358/1/4 2359/1/4 2360/1/4
f 2361/1/5 2362/1/5 2363/1/5 2364/1/5
f 2365/1/6 2366/1/6 2367/1/6 2368/1/6
f 2369/1/4 2370/1/4 2371/1/4 2372/1/4
f 2373/1/5 2374/1/5 2375/1/5 2376/1/5
f 2377/1/6 2378/1/6 2379/1/6 2380/1/6
f 2381/1/4 2382/1/4 2383/1/4 2384/1/4
f 2385/1/5 2386/1/5 2387/1/5 2388/1/5
f 2389/1/6 2390/1/6 2391/1/6 2392/1/6
f 2393/1/4 2394/1/4 2395/1/4 2396/1/4
f 2397/1/5 2398/1/5 2399/1/5 2400/1/5
f 2401/1/6 2402/1/6 2403/1/6 2404/1/6
f 2405/1/4 2406/1/4 2407/1/4 2408/1/4
f 2409/1/5 2410/1/5 2411/1/5 2412/1/5
f 2413/1/6 2414/1/6 2415/1/6 2416/1/6
f 2417/1/4 2418/1/4 2419/1/4 2420/1/4
f 2421/1/5 2422/1/5 2423/1/5 2424/1/5
f 2425/1/6 2426/1/6 2427/1/6 2428/1/6
f 2429/1/4 2430/1/4 2431/1/4 2432/1/4
f 2433/1/5 2434/1/5 2435/1/5 2436/1/5
f 2437/1/6 2438/1/6 2439/1/6 2440/1/6
f 2441/1/4 2442/1/4 2443/1/4 2444/1/4
f 2445/1/5 2446/1/5 2447/1/5 2448/1/5
f 2449/1/6 2450/1/6 2451/1/6 2452/1/6
f 2453/1/4 2454/1/4 2455/1/4 2456/1/4
f 2457/1/5 2458/1/5 2459/1/5 2460/1/5
f 2461/1/6 2462/1/6 2463/1/6 2464/1/6
f 2465/1/4 2466/1/4 2467/1/4 2468/1/4
f 2469/1/5 2470/1/5 2471/1/5 2472/1/5
f 2473/1/6 2474/1/6 2475/1/6 2476/1/6
f 2477/1/4 2478/1/4 2479/1/4 2480/1/4
f 2481/1/5 2482/1/5 2483/1/5 2484/1/5
f 2485/1/6 2486/1/6 2487/1/6 2488/1/6
f 2489/1/4 2490/1/4 2491/1/4 2492/1/4
f 2493/1/5 2494/1/5 2495/1/5 2496/1/5
f 2497/1/6 2498/1/6 2499/1/6 2500/1/6
f 2501/1/4 2502/1/4 2503/1/4 2504/1/4
f 2505/1/5 2506/1/5 2507/1/5 2508/1/5
f 2509/1/6 2510/1/6 2511/1/6 2512/1/6
f 2513/1/4 2514/1/4 2515/1/4 2516/1/4
f 2517/1/5 2518/1/5 2519/1/5 2520/1/5
f 2521/1/6 2522/1/6 2523/1/6 2524/1/6
f 2525/1/4 2526/1/4 2527/1/4 2528/1/4
f 2529/1/5 2530/1/5 2531/1/5 2532/1/5
f 2533/1/6 2534/1/6 2535/1/6 2536/1/6
f 2537/1/2 2538/1/2 2539/1/2 2540/1/2
f 2541/1/4 2542/1/4 2543/1/4 2544/1/4
f 2545/1/5 2546/1/5 2547/1/5 2548/1/5
f 2549/1/6 2550/1/6 2551/1/6 2552/1/6

