# generated by vox_to_obj_exporter
# scale=0.1 center=false ground=false y_up=true

mtllib Fight_028.mtl
usemtl palette

# normals
vn -1 0 0
vn 1 0 0
vn 0 1 0
vn 0 -1 0
vn 0 0 1
vn 0 0 -1

# texcoords
vt 0.228515625 0.5

# verts
v 25.2 13.3 -2.6
v 25.2 13.2 -2.6
v 25.2 13.2 -2.5
v 25.2 13.3 -2.5
v 25.2 13.3 -2.6
v 25.2 13.3 -2.5
v 25.3 13.3 -2.5
v 25.3 13.3 -2.6
v 25.2 13.3 -2.5
v 25.2 13.2 -2.5
v 25.3 13.2 -2.5
v 25.3 13.3 -2.5
v 25.3 13.3 -2.6
v 25.3 13.2 -2.6
v 25.2 13.2 -2.6
v 25.2 13.3 -2.6
v 25.3 13.3 -2.6
v 25.3 13.3 -2.5
v 25.4 13.3 -2.5
v 25.4 13.3 -2.6
v 25.3 13.3 -2.5
v 25.3 13.2 -2.5
v 25.4 13.2 -2.5
v 25.4 13.3 -2.5
v 25.4 13.3 -2.6
v 25.4 13.2 -2.6
v 25.3 13.2 -2.6
v 25.3 13.3 -2.6
v 25.4 13.3 -2.6
v 25.4 13.3 -2.5
v 25.5 13.3 -2.5
v 25.5 13.3 -2.6
v 25.4 13.3 -2.5
v 25.4 13.2 -2.5
v 25.5 13.2 -2.5
v 25.5 13.3 -2.5
v 25.5 13.3 -2.6
v 25.5 13.2 -2.6
v 25.4 13.2 -2.6
v 25.4 13.3 -2.6
v 25.5 13.3 -2.6
v 25.5 13.3 -2.5
v 25.6 13.3 -2.5
v 25.6 13.3 -2.6
v 25.5 13.3 -2.5
v 25.5 13.2 -2.5
v 25.6 13.2 -2.5
v 25.6 13.3 -2.5
v 25.6 13.3 -2.6
v 25.6 13.2 -2.6
v 25.5 13.2 -2.6
v 25.5 13.3 -2.6
v 25.6 13.3 -2.6
v 25.6 13.3 -2.5
v 25.7 13.3 -2.5
v 25.7 13.3 -2.6
v 25.6 13.3 -2.5
v 25.6 13.2 -2.5
v 25.7 13.2 -2.5
v 25.7 13.3 -2.5
v 25.7 13.3 -2.6
v 25.7 13.2 -2.6
v 25.6 13.2 -2.6
v 25.6 13.3 -2.6
v 25.8 13.3 -2.5
v 25.8 13.2 -2.5
v 25.8 13.2 -2.6
v 25.8 13.3 -2.6
v 25.7 13.3 -2.6
v 25.7 13.3 -2.5
v 25.8 13.3 -2.5
v 25.8 13.3 -2.6
v 25.7 13.3 -2.5
v 25.7 13.2 -2.5
v 25.8 13.2 -2.5
v 25.8 13.3 -2.5
v 25.8 13.3 -2.6
v 25.8 13.2 -2.6
v 25.7 13.2 -2.6
v 25.7 13.3 -2.6
v 25.2 13.2 -2.6
v 25.2 13.1 -2.6
v 25.2 13.1 -2.5
v 25.2 13.2 -2.5
v 25.2 13.2 -2.5
v 25.2 13.1 -2.5
v 25.3 13.1 -2.5
v 25.3 13.2 -2.5
v 25.3 13.2 -2.6
v 25.3 13.1 -2.6
v 25.2 13.1 -2.6
v 25.2 13.2 -2.6
v 25.3 13.1 -2.5
v 25.3 13.1 -2.6
v 25.4 13.1 -2.6
v 25.4 13.1 -2.5
v 25.3 13.2 -2.5
v 25.3 13.1 -2.5
v 25.4 13.1 -2.5
v 25.4 13.2 -2.5
v 25.4 13.2 -2.6
v 25.4 13.1 -2.6
v 25.3 13.1 -2.6
v 25.3 13.2 -2.6
v 25.4 13.1 -2.5
v 25.4 13.1 -2.6
v 25.5 13.1 -2.6
v 25.5 13.1 -2.5
v 25.4 13.2 -2.5
v 25.4 13.1 -2.5
v 25.5 13.1 -2.5
v 25.5 13.2 -2.5
v 25.5 13.2 -2.6
v 25.5 13.1 -2.6
v 25.4 13.1 -2.6
v 25.4 13.2 -2.6
v 25.5 13.1 -2.5
v 25.5 13.1 -2.6
v 25.6 13.1 -2.6
v 25.6 13.1 -2.5
v 25.5 13.2 -2.5
v 25.5 13.1 -2.5
v 25.6 13.1 -2.5
v 25.6 13.2 -2.5
v 25.6 13.2 -2.6
v 25.6 13.1 -2.6
v 25.5 13.1 -2.6
v 25.5 13.2 -2.6
v 25.6 13.2 -2.5
v 25.6 13.1 -2.5
v 25.7 13.1 -2.5
v 25.7 13.2 -2.5
v 25.7 13.2 -2.6
v 25.7 13.1 -2.6
v 25.6 13.1 -2.6
v 25.6 13.2 -2.6
v 25.7 13.2 -2.5
v 25.7 13.1 -2.5
v 25.8 13.1 -2.5
v 25.8 13.2 -2.5
v 25.8 13.2 -2.6
v 25.8 13.1 -2.6
v 25.7 13.1 -2.6
v 25.7 13.2 -2.6
v 25.8 13.2 -2.6
v 25.8 13.2 -2.5
v 25.9 13.2 -2.5
v 25.9 13.2 -2.6
v 25.8 13.2 -2.5
v 25.8 13.1 -2.5
v 25.9 13.1 -2.5
v 25.9 13.2 -2.5
v 25.9 13.2 -2.6
v 25.9 13.1 -2.6
v 25.8 13.1 -2.6
v 25.8 13.2 -2.6
v 25.9 13.2 -2.6
v 25.9 13.2 -2.5
v 26 13.2 -2.5
v 26 13.2 -2.6
v 25.9 13.2 -2.5
v 25.9 13.1 -2.5
v 26 13.1 -2.5
v 26 13.2 -2.5
v 26 13.2 -2.6
v 26 13.1 -2.6
v 25.9 13.1 -2.6
v 25.9 13.2 -2.6
v 26.1 13.2 -2.5
v 26.1 13.1 -2.5
v 26.1 13.1 -2.6
v 26.1 13.2 -2.6
v 26 13.2 -2.6
v 26 13.2 -2.5
v 26.1 13.2 -2.5
v 26.1 13.2 -2.6
v 26 13.2 -2.5
v 26 13.1 -2.5
v 26.1 13.1 -2.5
v 26.1 13.2 -2.5
v 26.1 13.2 -2.6
v 26.1 13.1 -2.6
v 26 13.1 -2.6
v 26 13.2 -2.6
v 25.2 13.1 -2.6
v 25.2 13 -2.6
v 25.2 13 -2.5
v 25.2 13.1 -2.5
v 25.3 13.1 -2.5
v 25.3 13 -2.5
v 25.3 13 -2.6
v 25.3 13.1 -2.6
v 25.2 13 -2.5
v 25.2 13 -2.6
v 25.3 13 -2.6
v 25.3 13 -2.5
v 25.2 13.1 -2.5
v 25.2 13 -2.5
v 25.3 13 -2.5
v 25.3 13.1 -2.5
v 25.3 13.1 -2.6
v 25.3 13 -2.6
v 25.2 13 -2.6
v 25.2 13.1 -2.6
v 25.6 13.1 -2.6
v 25.6 13 -2.6
v 25.6 13 -2.5
v 25.6 13.1 -2.5
v 25.6 13 -2.5
v 25.6 13 -2.6
v 25.7 13 -2.6
v 25.7 13 -2.5
v 25.6 13.1 -2.5
v 25.6 13 -2.5
v 25.7 13 -2.5
v 25.7 13.1 -2.5
v 25.7 13.1 -2.6
v 25.7 13 -2.6
v 25.6 13 -2.6
v 25.6 13.1 -2.6
v 25.7 13 -2.5
v 25.7 13 -2.6
v 25.8 13 -2.6
v 25.8 13 -2.5
v 25.7 13.1 -2.5
v 25.7 13 -2.5
v 25.8 13 -2.5
v 25.8 13.1 -2.5
v 25.8 13.1 -2.6
v 25.8 13 -2.6
v 25.7 13 -2.6
v 25.7 13.1 -2.6
v 25.8 13.1 -2.5
v 25.8 13 -2.5
v 25.9 13 -2.5
v 25.9 13.1 -2.5
v 25.9 13.1 -2.6
v 25.9 13 -2.6
v 25.8 13 -2.6
v 25.8 13.1 -2.6
v 25.9 13.1 -2.5
v 25.9 13 -2.5
v 26 13 -2.5
v 26 13.1 -2.5
v 26 13.1 -2.6
v 26 13 -2.6
v 25.9 13 -2.6
v 25.9 13.1 -2.6
v 26 13.1 -2.5
v 26 13 -2.5
v 26.1 13 -2.5
v 26.1 13.1 -2.5
v 26.1 13.1 -2.6
v 26.1 13 -2.6
v 26 13 -2.6
v 26 13.1 -2.6
v 26.1 13.1 -2.6
v 26.1 13.1 -2.5
v 26.2 13.1 -2.5
v 26.2 13.1 -2.6
v 26.1 13.1 -2.5
v 26.1 13 -2.5
v 26.2 13 -2.5
v 26.2 13.1 -2.5
v 26.2 13.1 -2.6
v 26.2 13 -2.6
v 26.1 13 -2.6
v 26.1 13.1 -2.6
v 26.3 13.1 -2.5
v 26.3 13 -2.5
v 26.3 13 -2.6
v 26.3 13.1 -2.6
v 26.2 13.1 -2.6
v 26.2 13.1 -2.5
v 26.3 13.1 -2.5
v 26.3 13.1 -2.6
v 26.2 13.1 -2.5
v 26.2 13 -2.5
v 26.3 13 -2.5
v 26.3 13.1 -2.5
v 26.3 13.1 -2.6
v 26.3 13 -2.6
v 26.2 13 -2.6
v 26.2 13.1 -2.6
v 25.8 13 -2.6
v 25.8 12.9 -2.6
v 25.8 12.9 -2.5
v 25.8 13 -2.5
v 25.8 12.9 -2.5
v 25.8 12.9 -2.6
v 25.9 12.9 -2.6
v 25.9 12.9 -2.5
v 25.8 13 -2.5
v 25.8 12.9 -2.5
v 25.9 12.9 -2.5
v 25.9 13 -2.5
v 25.9 13 -2.6
v 25.9 12.9 -2.6
v 25.8 12.9 -2.6
v 25.8 13 -2.6
v 25.9 13 -2.5
v 25.9 12.9 -2.5
v 26 12.9 -2.5
v 26 13 -2.5
v 26 13 -2.6
v 26 12.9 -2.6
v 25.9 12.9 -2.6
v 25.9 13 -2.6
v 26 13 -2.5
v 26 12.9 -2.5
v 26.1 12.9 -2.5
v 26.1 13 -2.5
v 26.1 13 -2.6
v 26.1 12.9 -2.6
v 26 12.9 -2.6
v 26 13 -2.6
v 26.1 13 -2.5
v 26.1 12.9 -2.5
v 26.2 12.9 -2.5
v 26.2 13 -2.5
v 26.2 13 -2.6
v 26.2 12.9 -2.6
v 26.1 12.9 -2.6
v 26.1 13 -2.6
v 26.2 12.9 -2.5
v 26.2 12.9 -2.6
v 26.3 12.9 -2.6
v 26.3 12.9 -2.5
v 26.2 13 -2.5
v 26.2 12.9 -2.5
v 26.3 12.9 -2.5
v 26.3 13 -2.5
v 26.3 13 -2.6
v 26.3 12.9 -2.6
v 26.2 12.9 -2.6
v 26.2 13 -2.6
v 26.4 13 -2.5
v 26.4 12.9 -2.5
v 26.4 12.9 -2.6
v 26.4 13 -2.6
v 26.3 13 -2.6
v 26.3 13 -2.5
v 26.4 13 -2.5
v 26.4 13 -2.6
v 26.3 12.9 -2.5
v 26.3 12.9 -2.6
v 26.4 12.9 -2.6
v 26.4 12.9 -2.5
v 26.3 13 -2.5
v 26.3 12.9 -2.5
v 26.4 12.9 -2.5
v 26.4 13 -2.5
v 26.4 13 -2.6
v 26.4 12.9 -2.6
v 26.3 12.9 -2.6
v 26.3 13 -2.6
v 25.9 12.9 -2.6
v 25.9 12.8 -2.6
v 25.9 12.8 -2.5
v 25.9 12.9 -2.5
v 25.9 12.8 -2.5
v 25.9 12.8 -2.6
v 26 12.8 -2.6
v 26 12.8 -2.5
v 25.9 12.9 -2.5
v 25.9 12.8 -2.5
v 26 12.8 -2.5
v 26 12.9 -2.5
v 26 12.9 -2.6
v 26 12.8 -2.6
v 25.9 12.8 -2.6
v 25.9 12.9 -2.6
v 26 12.8 -2.5
v 26 12.8 -2.6
v 26.1 12.8 -2.6
v 26.1 12.8 -2.5
v 26 12.9 -2.5
v 26 12.8 -2.5
v 26.1 12.8 -2.5
v 26.1 12.9 -2.5
v 26.1 12.9 -2.6
v 26.1 12.8 -2.6
v 26 12.8 -2.6
v 26 12.9 -2.6
v 26.2 12.9 -2.5
v 26.2 12.8 -2.5
v 26.2 12.8 -2.6
v 26.2 12.9 -2.6
v 26.1 12.8 -2.5
v 26.1 12.8 -2.6
v 26.2 12.8 -2.6
v 26.2 12.8 -2.5
v 26.1 12.9 -2.5
v 26.1 12.8 -2.5
v 26.2 12.8 -2.5
v 26.2 12.9 -2.5
v 26.2 12.9 -2.6
v 26.2 12.8 -2.6
v 26.1 12.8 -2.6
v 26.1 12.9 -2.6

# faces
f 1/1/1 2/1/1 3/1/1 4/1/1
f 5/1/3 6/1/3 7/1/3 8/1/3
f 9/1/5 10/1/5 11/1/5 12/1/5
f 13/1/6 14/1/6 15/1/6 16/1/6
f 17/1/3 18/1/3 19/1/3 20/1/3
f 21/1/5 22/1/5 23/1/5 24/1/5
f 25/1/6 26/1/6 27/1/6 28/1/6
f 29/1/3 30/1/3 31/1/3 32/1/3
f 33/1/5 34/1/5 35/1/5 36/1/5
f 37/1/6 38/1/6 39/1/6 40/1/6
f 41/1/3 42/1/3 43/1/3 44/1/3
f 45/1/5 46/1/5 47/1/5 48/1/5
f 49/1/6 50/1/6 51/1/6 52/1/6
f 53/1/3 54/1/3 55/1/3 56/1/3
f 57/1/5 58/1/5 59/1/5 60/1/5
f 61/1/6 62/1/6 63/1/6 64/1/6
f 65/1/2 66/1/2 67/1/2 68/1/2
f 69/1/3 70/1/3 71/1/3 72/1/3
f 73/1/5 74/1/5 75/1/5 76/1/5
f 77/1/6 78/1/6 79/1/6 80/1/6
f 81/1/1 82/1/1 83/1/1 84/1/1
f 85/1/5 86/1/5 87/1/5 88/1/5
f 89/1/6 90/1/6 91/1/6 92/1/6
f 93/1/4 94/1/4 95/1/4 96/1/4
f 97/1/5 98/1/5 99/1/5 100/1/5
f 101/1/6 102/1/6 103/1/6 104/1/6
f 105/1/4 106/1/4 107/1/4 108/1/4
f 109/1/5 110/1/5 111/1/5 112/1/5
f 113/1/6 114/1/6 115/1/6 116/1/6
f 117/1/4 118/1/4 119/1/4 120/1/4
f 121/1/5 122/1/5 123/1/5 124/1/5
f 125/1/6 126/1/6 127/1/6 128/1/6
f 129/1/5 130/1/5 131/1/5 132/1/5
f 133/1/6 134/1/6 135/1/6 136/1/6
f 137/1/5 138/1/5 139/1/5 140/1/5
f 141/1/6 142/1/6 143/1/6 144/1/6
f 145/1/3 146/1/3 147/1/3 148/1/3
f 149/1/5 150/1/5 151/1/5 152/1/5
f 153/1/6 154/1/6 155/1/6 156/1/6
f 157/1/3 158/1/3 159/1/3 160/1/3
f 161/1/5 162/1/5 163/1/5 164/1/5
f 165/1/6 166/1/6 167/1/6 168/1/6
f 169/1/2 170/1/2 171/1/2 172/1/2
f 173/1/3 174/1/3 175/1/3 176/1/3
f 177/1/5 178/1/5 179/1/5 180/1/5
f 181/1/6 182/1/6 183/1/6 184/1/6
f 185/1/1 186/1/1 187/1/1 188/1/1
f 189/1/2 190/1/2 191/1/2 192/1/2
f 193/1/4 194/1/4 195/1/4 196/1/4
f 197/1/5 198/1/5 199/1/5 200/1/5
f 201/1/6 202/1/6 203/1/6 204/1/6
f 205/1/1 206/1/1 207/1/1 208/1/1
f 209/1/4 210/1/4 211/1/4 212/1/4
f 213/1/5 214/1/5 215/1/5 216/1/5
f 217/1/6 218/1/6 219/1/6 220/1/6
f 221/1/4 222/1/4 223/1/4 224/1/4
f 225/1/5 226/1/5 227/1/5 228/1/5
f 229/1/6 230/1/6 231/1/6 232/1/6
f 233/1/5 234/1/5 235/1/5 236/1/5
f 237/1/6 238/1/6 239/1/6 240/1/6
f 241/1/5 242/1/5 243/1/5 244/1/5
f 245/1/6 246/1/6 247/1/6 248/1/6
f 249/1/5 250/1/5 251/1/5 252/1/5
f 253/1/6 254/1/6 255/1/6 256/1/6
f 257/1/3 258/1/3 259/1/3 260/1/3
f 261/1/5 262/1/5 263/1/5 264/1/5
f 265/1/6 266/1/6 267/1/6 268/1/6
f 269/1/2 270/1/2 271/1/2 272/1/2
f 273/1/3 274/1/3 275/1/3 276/1/3
f 277/1/5 278/1/5 279/1/5 280/1/5
f 281/1/6 282/1/6 283/1/6 284/1/6
f 285/1/1 286/1/1 287/1/1 288/1/1
f 289/1/4 290/1/4 291/1/4 292/1/4
f 293/1/5 294/1/5 295/1/5 296/1/5
f 297/1/6 298/1/6 299/1/6 300/1/6
f 301/1/5 302/1/5 303/1/5 304/1/5
f 305/1/6 306/1/6 307/1/6 308/1/6
f 309/1/5 310/1/5 311/1/5 312/1/5
f 313/1/6 314/1/6 315/1/6 316/1/6
f 317/1/5 318/1/5 319/1/5 320/1/5
f 321/1/6 322/1/6 323/1/6 324/1/6
f 325/1/4 326/1/4 327/1/4 328/1/4
f 329/1/5 330/1/5 331/1/5 332/1/5
f 333/1/6 334/1/6 335/1/6 336/1/6
f 337/1/2 338/1/2 339/1/2 340/1/2
f 341/1/3 342/1/3 343/1/3 344/1/3
f 345/1/4 346/1/4 347/1/4 348/1/4
f 349/1/5 350/1/5 351/1/5 352/1/5
f 353/1/6 354/1/6 355/1/6 356/1/6
f 357/1/1 358/1/1 359/1/1 360/1/1
f 361/1/4 362/1/4 363/1/4 364/1/4
f 365/1/5 366/1/5 367/1/5 368/1/5
f 369/1/6 370/1/6 371/1/6 372/1/6
f 373/1/4 374/1/4 375/1/4 376/1/4
f 377/1/5 378/1/5 379/1/5 380/1/5
f 381/1/6 382/1/6 383/1/6 384/1/6
f 385/1/2 386/1/2 387/1/2 388/1/2
f 389/1/4 390/1/4 391/1/4 392/1/4
f 393/1/5 394/1/5 395/1/5 396/1/5
f 397/1/6 398/1/6 399/1/6 400/1/6

