# generated by vox_to_obj_exporter
# scale=0.1 center=false ground=false y_up=true

mtllib Fight_733.mtl
usemtl palette

# normals
vn -1 0 0
vn 1 0 0
vn 0 1 0
vn 0 -1 0
vn 0 0 1
vn 0 0 -1

# texcoords
vt 0.212890625 0.5
vt 0.216796875 0.5
vt 0.220703125 0.5

# verts
v 3.2 13.2 -2.6
v 3.2 13.1 -2.6
v 3.2 13.1 -2.5
v 3.2 13.2 -2.5
v 3.3 13.2 -2.5
v 3.3 13.1 -2.5
v 3.3 13.1 -2.6
v 3.3 13.2 -2.6
v 3.2 13.2 -2.6
v 3.2 13.2 -2.5
v 3.3 13.2 -2.5
v 3.3 13.2 -2.6
v 3.2 13.1 -2.5
v 3.2 13.1 -2.6
v 3.3 13.1 -2.6
v 3.3 13.1 -2.5
v 3.2 13.2 -2.5
v 3.2 13.1 -2.5
v 3.3 13.1 -2.5
v 3.3 13.2 -2.5
v 3.3 13.2 -2.6
v 3.3 13.1 -2.6
v 3.2 13.1 -2.6
v 3.2 13.2 -2.6
v 3 13.1 -2.6
v 3 13 -2.6
v 3 13 -2.5
v 3 13.1 -2.5
v 3.1 13.1 -2.5
v 3.1 13 -2.5
v 3.1 13 -2.6
v 3.1 13.1 -2.6
v 3 13.1 -2.6
v 3 13.1 -2.5
v 3.1 13.1 -2.5
v 3.1 13.1 -2.6
v 3 13 -2.5
v 3 13 -2.6
v 3.1 13 -2.6
v 3.1 13 -2.5
v 3 13.1 -2.5
v 3 13 -2.5
v 3.1 13 -2.5
v 3.1 13.1 -2.5
v 3.1 13.1 -2.6
v 3.1 13 -2.6
v 3 13 -2.6
v 3 13.1 -2.6
v 2.9 13 -2.6
v 2.9 12.9 -2.6
v 2.9 12.9 -2.5
v 2.9 13 -2.5
v 3 13 -2.5
v 3 12.9 -2.5
v 3 12.9 -2.6
v 3 13 -2.6
v 2.9 13 -2.6
v 2.9 13 -2.5
v 3 13 -2.5
v 3 13 -2.6
v 2.9 12.9 -2.5
v 2.9 12.9 -2.6
v 3 12.9 -2.6
v 3 12.9 -2.5
v 2.9 13 -2.5
v 2.9 12.9 -2.5
v 3 12.9 -2.5
v 3 13 -2.5
v 3 13 -2.6
v 3 12.9 -2.6
v 2.9 12.9 -2.6
v 2.9 13 -2.6
v 2.7 12.9 -2.6
v 2.7 12.8 -2.6
v 2.7 12.8 -2.5
v 2.7 12.9 -2.5
v 2.7 12.9 -2.6
v 2.7 12.9 -2.5
v 2.8 12.9 -2.5
v 2.8 12.9 -2.6
v 2.7 12.9 -2.5
v 2.7 12.8 -2.5
v 2.8 12.8 -2.5
v 2.8 12.9 -2.5
v 2.8 12.9 -2.6
v 2.8 12.8 -2.6
v 2.7 12.8 -2.6
v 2.7 12.9 -2.6
v 2.9 12.9 -2.5
v 2.9 12.8 -2.5
v 2.9 12.8 -2.6
v 2.9 12.9 -2.6
v 2.8 12.9 -2.6
v 2.8 12.9 -2.5
v 2.9 12.9 -2.5
v 2.9 12.9 -2.6
v 2.8 12.9 -2.5
v 2.8 12.8 -2.5
v 2.9 12.8 -2.5
v 2.9 12.9 -2.5
v 2.9 12.9 -2.6
v 2.9 12.8 -2.6
v 2.8 12.8 -2.6
v 2.8 12.9 -2.6
v 2.5 12.8 -2.6
v 2.5 12.7 -2.6
v 2.5 12.7 -2.5
v 2.5 12.8 -2.5
v 2.5 12.8 -2.6
v 2.5 12.8 -2.5
v 2.6 12.8 -2.5
v 2.6 12.8 -2.6
v 2.5 12.8 -2.5
v 2.5 12.7 -2.5
v 2.6 12.7 -2.5
v 2.6 12.8 -2.5
v 2.6 12.8 -2.6
v 2.6 12.7 -2.6
v 2.5 12.7 -2.6
v 2.5 12.8 -2.6
v 2.6 12.8 -2.6
v 2.6 12.8 -2.5
v 2.7 12.8 -2.5
v 2.7 12.8 -2.6
v 2.6 12.8 -2.5
v 2.6 12.7 -2.5
v 2.7 12.7 -2.5
v 2.7 12.8 -2.5
v 2.7 12.8 -2.6
v 2.7 12.7 -2.6
v 2.6 12.7 -2.6
v 2.6 12.8 -2.6
v 2.7 12.8 -2.5
v 2.7 12.7 -2.5
v 2.8 12.7 -2.5
v 2.8 12.8 -2.5
v 2.8 12.8 -2.6
v 2.8 12.7 -2.6
v 2.7 12.7 -2.6
v 2.7 12.8 -2.6
v 2.9 12.8 -2.5
v 2.9 12.7 -2.5
v 2.9 12.7 -2.6
v 2.9 12.8 -2.6
v 2.8 12.7 -2.5
v 2.8 12.7 -2.6
v 2.9 12.7 -2.6
v 2.9 12.7 -2.5
v 2.8 12.8 -2.5
v 2.8 12.7 -2.5
v 2.9 12.7 -2.5
v 2.9 12.8 -2.5
v 2.9 12.8 -2.6
v 2.9 12.7 -2.6
v 2.8 12.7 -2.6
v 2.8 12.8 -2.6
v 2.2 12.7 -2.6
v 2.2 12.6 -2.6
v 2.2 12.6 -2.5
v 2.2 12.7 -2.5
v 2.2 12.7 -2.6
v 2.2 12.7 -2.5
v 2.3 12.7 -2.5
v 2.3 12.7 -2.6
v 2.2 12.7 -2.5
v 2.2 12.6 -2.5
v 2.3 12.6 -2.5
v 2.3 12.7 -2.5
v 2.3 12.7 -2.6
v 2.3 12.6 -2.6
v 2.2 12.6 -2.6
v 2.2 12.7 -2.6
v 2.3 12.7 -2.6
v 2.3 12.7 -2.5
v 2.4 12.7 -2.5
v 2.4 12.7 -2.6
v 2.3 12.7 -2.5
v 2.3 12.6 -2.5
v 2.4 12.6 -2.5
v 2.4 12.7 -2.5
v 2.4 12.7 -2.6
v 2.4 12.6 -2.6
v 2.3 12.6 -2.6
v 2.3 12.7 -2.6
v 2.4 12.7 -2.6
v 2.4 12.7 -2.5
v 2.5 12.7 -2.5
v 2.5 12.7 -2.6
v 2.4 12.7 -2.5
v 2.4 12.6 -2.5
v 2.5 12.6 -2.5
v 2.5 12.7 -2.5
v 2.5 12.7 -2.6
v 2.5 12.6 -2.6
v 2.4 12.6 -2.6
v 2.4 12.7 -2.6
v 2.5 12.7 -2.5
v 2.5 12.6 -2.5
v 2.6 12.6 -2.5
v 2.6 12.7 -2.5
v 2.6 12.7 -2.6
v 2.6 12.6 -2.6
v 2.5 12.6 -2.6
v 2.5 12.7 -2.6
v 2.6 12.7 -2.5
v 2.6 12.6 -2.5
v 2.7 12.6 -2.5
v 2.7 12.7 -2.5
v 2.7 12.7 -2.6
v 2.7 12.6 -2.6
v 2.6 12.6 -2.6
v 2.6 12.7 -2.6
v 2.8 12.7 -2.5
v 2.8 12.6 -2.5
v 2.8 12.6 -2.6
v 2.8 12.7 -2.6
v 2.7 12.6 -2.5
v 2.7 12.6 -2.6
v 2.8 12.6 -2.6
v 2.8 12.6 -2.5
v 2.7 12.7 -2.5
v 2.7 12.6 -2.5
v 2.8 12.6 -2.5
v 2.8 12.7 -2.5
v 2.8 12.7 -2.6
v 2.8 12.6 -2.6
v 2.7 12.6 -2.6
v 2.7 12.7 -2.6
v 2 12.6 -2.6
v 2 12.5 -2.6
v 2 12.5 -2.5
v 2 12.6 -2.5
v 2 12.6 -2.6
v 2 12.6 -2.5
v 2.1 12.6 -2.5
v 2.1 12.6 -2.6
v 2 12.6 -2.5
v 2 12.5 -2.5
v 2.1 12.5 -2.5
v 2.1 12.6 -2.5
v 2.1 12.6 -2.6
v 2.1 12.5 -2.6
v 2 12.5 -2.6
v 2 12.6 -2.6
v 2.1 12.6 -2.6
v 2.1 12.6 -2.5
v 2.2 12.6 -2.5
v 2.2 12.6 -2.6
v 2.1 12.6 -2.5
v 2.1 12.5 -2.5
v 2.2 12.5 -2.5
v 2.2 12.6 -2.5
v 2.2 12.6 -2.6
v 2.2 12.5 -2.6
v 2.1 12.5 -2.6
v 2.1 12.6 -2.6
v 2.2 12.6 -2.5
v 2.2 12.5 -2.5
v 2.3 12.5 -2.5
v 2.3 12.6 -2.5
v 2.3 12.6 -2.6
v 2.3 12.5 -2.6
v 2.2 12.5 -2.6
v 2.2 12.6 -2.6
v 2.3 12.6 -2.5
v 2.3 12.5 -2.5
v 2.4 12.5 -2.5
v 2.4 12.6 -2.5
v 2.4 12.6 -2.6
v 2.4 12.5 -2.6
v 2.3 12.5 -2.6
v 2.3 12.6 -2.6
v 2.4 12.6 -2.5
v 2.4 12.5 -2.5
v 2.5 12.5 -2.5
v 2.5 12.6 -2.5
v 2.5 12.6 -2.6
v 2.5 12.5 -2.6
v 2.4 12.5 -2.6
v 2.4 12.6 -2.6
v 2.5 12.6 -2.5
v 2.5 12.5 -2.5
v 2.6 12.5 -2.5
v 2.6 12.6 -2.5
v 2.6 12.6 -2.6
v 2.6 12.5 -2.6
v 2.5 12.5 -2.6
v 2.5 12.6 -2.6
v 2.7 12.6 -2.5
v 2.7 12.5 -2.5
v 2.7 12.5 -2.6
v 2.7 12.6 -2.6
v 2.6 12.5 -2.5
v 2.6 12.5 -2.6
v 2.7 12.5 -2.6
v 2.7 12.5 -2.5
v 2.6 12.6 -2.5
v 2.6 12.5 -2.5
v 2.7 12.5 -2.5
v 2.7 12.6 -2.5
v 2.7 12.6 -2.6
v 2.7 12.5 -2.6
v 2.6 12.5 -2.6
v 2.6 12.6 -2.6
v 1.7 12.5 -2.6
v 1.7 12.4 -2.6
v 1.7 12.4 -2.5
v 1.7 12.5 -2.5
v 1.7 12.5 -2.6
v 1.7 12.5 -2.5
v 1.8 12.5 -2.5
v 1.8 12.5 -2.6
v 1.7 12.5 -2.5
v 1.7 12.4 -2.5
v 1.8 12.4 -2.5
v 1.8 12.5 -2.5
v 1.8 12.5 -2.6
v 1.8 12.4 -2.6
v 1.7 12.4 -2.6
v 1.7 12.5 -2.6
v 1.8 12.5 -2.6
v 1.8 12.5 -2.5
v 1.9 12.5 -2.5
v 1.9 12.5 -2.6
v 1.8 12.5 -2.5
v 1.8 12.4 -2.5
v 1.9 12.4 -2.5
v 1.9 12.5 -2.5
v 1.9 12.5 -2.6
v 1.9 12.4 -2.6
v 1.8 12.4 -2.6
v 1.8 12.5 -2.6
v 1.9 12.5 -2.6
v 1.9 12.5 -2.5
v 2 12.5 -2.5
v 2 12.5 -2.6
v 1.9 12.5 -2.5
v 1.9 12.4 -2.5
v 2 12.4 -2.5
v 2 12.5 -2.5
v 2 12.5 -2.6
v 2 12.4 -2.6
v 1.9 12.4 -2.6
v 1.9 12.5 -2.6
v 2 12.5 -2.5
v 2 12.4 -2.5
v 2.1 12.4 -2.5
v 2.1 12.5 -2.5
v 2.1 12.5 -2.6
v 2.1 12.4 -2.6
v 2 12.4 -2.6
v 2 12.5 -2.6
v 2.1 12.5 -2.5
v 2.1 12.4 -2.5
v 2.2 12.4 -2.5
v 2.2 12.5 -2.5
v 2.2 12.5 -2.6
v 2.2 12.4 -2.6
v 2.1 12.4 -2.6
v 2.1 12.5 -2.6
v 2.2 12.5 -2.5
v 2.2 12.4 -2.5
v 2.3 12.4 -2.5
v 2.3 12.5 -2.5
v 2.3 12.5 -2.6
v 2.3 12.4 -2.6
v 2.2 12.4 -2.6
v 2.2 12.5 -2.6
v 2.3 12.5 -2.5
v 2.3 12.4 -2.5
v 2.4 12.4 -2.5
v 2.4 12.5 -2.5
v 2.4 12.5 -2.6
v 2.4 12.4 -2.6
v 2.3 12.4 -2.6
v 2.3 12.5 -2.6
v 2.4 12.5 -2.5
v 2.4 12.4 -2.5
v 2.5 12.4 -2.5
v 2.5 12.5 -2.5
v 2.5 12.5 -2.6
v 2.5 12.4 -2.6
v 2.4 12.4 -2.6
v 2.4 12.5 -2.6
v 2.6 12.5 -2.5
v 2.6 12.4 -2.5
v 2.6 12.4 -2.6
v 2.6 12.5 -2.6
v 2.5 12.5 -2.5
v 2.5 12.4 -2.5
v 2.6 12.4 -2.5
v 2.6 12.5 -2.5
v 2.6 12.5 -2.6
v 2.6 12.4 -2.6
v 2.5 12.4 -2.6
v 2.5 12.5 -2.6
v 3.5 12.5 -2.6
v 3.5 12.4 -2.6
v 3.5 12.4 -2.5
v 3.5 12.5 -2.5
v 3.6 12.5 -2.5
v 3.6 12.4 -2.5
v 3.6 12.4 -2.6
v 3.6 12.5 -2.6
v 3.5 12.5 -2.6
v 3.5 12.5 -2.5
v 3.6 12.5 -2.5
v 3.6 12.5 -2.6
v 3.5 12.4 -2.5
v 3.5 12.4 -2.6
v 3.6 12.4 -2.6
v 3.6 12.4 -2.5
v 3.5 12.5 -2.5
v 3.5 12.4 -2.5
v 3.6 12.4 -2.5
v 3.6 12.5 -2.5
v 3.6 12.5 -2.6
v 3.6 12.4 -2.6
v 3.5 12.4 -2.6
v 3.5 12.5 -2.6
v 1.5 12.4 -2.6
v 1.5 12.3 -2.6
v 1.5 12.3 -2.5
v 1.5 12.4 -2.5
v 1.5 12.4 -2.6
v 1.5 12.4 -2.5
v 1.6 12.4 -2.5
v 1.6 12.4 -2.6
v 1.5 12.4 -2.5
v 1.5 12.3 -2.5
v 1.6 12.3 -2.5
v 1.6 12.4 -2.5
v 1.6 12.4 -2.6
v 1.6 12.3 -2.6
v 1.5 12.3 -2.6
v 1.5 12.4 -2.6
v 1.6 12.4 -2.6
v 1.6 12.4 -2.5
v 1.7 12.4 -2.5
v 1.7 12.4 -2.6
v 1.6 12.4 -2.5
v 1.6 12.3 -2.5
v 1.7 12.3 -2.5
v 1.7 12.4 -2.5
v 1.7 12.4 -2.6
v 1.7 12.3 -2.6
v 1.6 12.3 -2.6
v 1.6 12.4 -2.6
v 1.7 12.4 -2.5
v 1.7 12.3 -2.5
v 1.8 12.3 -2.5
v 1.8 12.4 -2.5
v 1.8 12.4 -2.6
v 1.8 12.3 -2.6
v 1.7 12.3 -2.6
v 1.7 12.4 -2.6
v 1.8 12.4 -2.5
v 1.8 12.3 -2.5
v 1.9 12.3 -2.5
v 1.9 12.4 -2.5
v 1.9 12.4 -2.6
v 1.9 12.3 -2.6
v 1.8 12.3 -2.6
v 1.8 12.4 -2.6
v 1.9 12.4 -2.5
v 1.9 12.3 -2.5
v 2 12.3 -2.5
v 2 12.4 -2.5
v 2 12.4 -2.6
v 2 12.3 -2.6
v 1.9 12.3 -2.6
v 1.9 12.4 -2.6
v 2 12.4 -2.5
v 2 12.3 -2.5
v 2.1 12.3 -2.5
v 2.1 12.4 -2.5
v 2.1 12.4 -2.6
v 2.1 12.3 -2.6
v 2 12.3 -2.6
v 2 12.4 -2.6
v 2.1 12.4 -2.5
v 2.1 12.3 -2.5
v 2.2 12.3 -2.5
v 2.2 12.4 -2.5
v 2.2 12.4 -2.6
v 2.2 12.3 -2.6
v 2.1 12.3 -2.6
v 2.1 12.4 -2.6
v 2.2 12.4 -2.5
v 2.2 12.3 -2.5
v 2.3 12.3 -2.5
v 2.3 12.4 -2.5
v 2.3 12.4 -2.6
v 2.3 12.3 -2.6
v 2.2 12.3 -2.6
v 2.2 12.4 -2.6
v 2.3 12.4 -2.5
v 2.3 12.3 -2.5
v 2.4 12.3 -2.5
v 2.4 12.4 -2.5
v 2.4 12.4 -2.6
v 2.4 12.3 -2.6
v 2.3 12.3 -2.6
v 2.3 12.4 -2.6
v 2.4 12.4 -2.5
v 2.4 12.3 -2.5
v 2.5 12.3 -2.5
v 2.5 12.4 -2.5
v 2.5 12.4 -2.6
v 2.5 12.3 -2.6
v 2.4 12.3 -2.6
v 2.4 12.4 -2.6
v 2.6 12.4 -2.5
v 2.6 12.3 -2.5
v 2.6 12.3 -2.6
v 2.6 12.4 -2.6
v 2.5 12.4 -2.5
v 2.5 12.3 -2.5
v 2.6 12.3 -2.5
v 2.6 12.4 -2.5
v 2.6 12.4 -2.6
v 2.6 12.3 -2.6
v 2.5 12.3 -2.6
v 2.5 12.4 -2.6
v 3.4 12.4 -2.6
v 3.4 12.3 -2.6
v 3.4 12.3 -2.5
v 3.4 12.4 -2.5
v 3.5 12.4 -2.5
v 3.5 12.3 -2.5
v 3.5 12.3 -2.6
v 3.5 12.4 -2.6
v 3.4 12.4 -2.6
v 3.4 12.4 -2.5
v 3.5 12.4 -2.5
v 3.5 12.4 -2.6
v 3.4 12.3 -2.5
v 3.4 12.3 -2.6
v 3.5 12.3 -2.6
v 3.5 12.3 -2.5
v 3.4 12.4 -2.5
v 3.4 12.3 -2.5
v 3.5 12.3 -2.5
v 3.5 12.4 -2.5
v 3.5 12.4 -2.6
v 3.5 12.3 -2.6
v 3.4 12.3 -2.6
v 3.4 12.4 -2.6
v 1.3 12.3 -2.6
v 1.3 12.2 -2.6
v 1.3 12.2 -2.5
v 1.3 12.3 -2.5
v 1.3 12.3 -2.6
v 1.3 12.3 -2.5
v 1.4 12.3 -2.5
v 1.4 12.3 -2.6
v 1.3 12.2 -2.5
v 1.3 12.2 -2.6
v 1.4 12.2 -2.6
v 1.4 12.2 -2.5
v 1.3 12.3 -2.5
v 1.3 12.2 -2.5
v 1.4 12.2 -2.5
v 1.4 12.3 -2.5
v 1.4 12.3 -2.6
v 1.4 12.2 -2.6
v 1.3 12.2 -2.6
v 1.3 12.3 -2.6
v 1.4 12.3 -2.6
v 1.4 12.3 -2.5
v 1.5 12.3 -2.5
v 1.5 12.3 -2.6
v 1.4 12.2 -2.5
v 1.4 12.2 -2.6
v 1.5 12.2 -2.6
v 1.5 12.2 -2.5
v 1.4 12.3 -2.5
v 1.4 12.2 -2.5
v 1.5 12.2 -2.5
v 1.5 12.3 -2.5
v 1.5 12.3 -2.6
v 1.5 12.2 -2.6
v 1.4 12.2 -2.6
v 1.4 12.3 -2.6
v 1.5 12.2 -2.5
v 1.5 12.2 -2.6
v 1.6 12.2 -2.6
v 1.6 12.2 -2.5
v 1.5 12.3 -2.5
v 1.5 12.2 -2.5
v 1.6 12.2 -2.5
v 1.6 12.3 -2.5
v 1.6 12.3 -2.6
v 1.6 12.2 -2.6
v 1.5 12.2 -2.6
v 1.5 12.3 -2.6
v 1.6 12.3 -2.5
v 1.6 12.2 -2.5
v 1.7 12.2 -2.5
v 1.7 12.3 -2.5
v 1.7 12.3 -2.6
v 1.7 12.2 -2.6
v 1.6 12.2 -2.6
v 1.6 12.3 -2.6
v 1.7 12.3 -2.5
v 1.7 12.2 -2.5
v 1.8 12.2 -2.5
v 1.8 12.3 -2.5
v 1.8 12.3 -2.6
v 1.8 12.2 -2.6
v 1.7 12.2 -2.6
v 1.7 12.3 -2.6
v 1.8 12.3 -2.5
v 1.8 12.2 -2.5
v 1.9 12.2 -2.5
v 1.9 12.3 -2.5
v 1.9 12.3 -2.6
v 1.9 12.2 -2.6
v 1.8 12.2 -2.6
v 1.8 12.3 -2.6
v 1.9 12.3 -2.5
v 1.9 12.2 -2.5
v 2 12.2 -2.5
v 2 12.3 -2.5
v 2 12.3 -2.6
v 2 12.2 -2.6
v 1.9 12.2 -2.6
v 1.9 12.3 -2.6
v 2 12.3 -2.5
v 2 12.2 -2.5
v 2.1 12.2 -2.5
v 2.1 12.3 -2.5
v 2.1 12.3 -2.6
v 2.1 12.2 -2.6
v 2 12.2 -2.6
v 2 12.3 -2.6
v 2.1 12.3 -2.5
v 2.1 12.2 -2.5
v 2.2 12.2 -2.5
v 2.2 12.3 -2.5
v 2.2 12.3 -2.6
v 2.2 12.2 -2.6
v 2.1 12.2 -2.6
v 2.1 12.3 -2.6
v 2.2 12.3 -2.5
v 2.2 12.2 -2.5
v 2.3 12.2 -2.5
v 2.3 12.3 -2.5
v 2.3 12.3 -2.6
v 2.3 12.2 -2.6
v 2.2 12.2 -2.6
v 2.2 12.3 -2.6
v 2.3 12.3 -2.5
v 2.3 12.2 -2.5
v 2.4 12.2 -2.5
v 2.4 12.3 -2.5
v 2.4 12.3 -2.6
v 2.4 12.2 -2.6
v 2.3 12.2 -2.6
v 2.3 12.3 -2.6
v 2.4 12.3 -2.5
v 2.4 12.2 -2.5
v 2.5 12.2 -2.5
v 2.5 12.3 -2.5
v 2.5 12.3 -2.6
v 2.5 12.2 -2.6
v 2.4 12.2 -2.6
v 2.4 12.3 -2.6
v 2.6 12.3 -2.5
v 2.6 12.2 -2.5
v 2.6 12.2 -2.6
v 2.6 12.3 -2.6
v 2.5 12.3 -2.5
v 2.5 12.2 -2.5
v 2.6 12.2 -2.5
v 2.6 12.3 -2.5
v 2.6 12.3 -2.6
v 2.6 12.2 -2.6
v 2.5 12.2 -2.6
v 2.5 12.3 -2.6
v 3.2 12.3 -2.6
v 3.2 12.2 -2.6
v 3.2 12.2 -2.5
v 3.2 12.3 -2.5
v 3.2 12.3 -2.6
v 3.2 12.3 -2.5
v 3.3 12.3 -2.5
v 3.3 12.3 -2.6
v 3.2 12.3 -2.5
v 3.2 12.2 -2.5
v 3.3 12.2 -2.5
v 3.3 12.3 -2.5
v 3.3 12.3 -2.6
v 3.3 12.2 -2.6
v 3.2 12.2 -2.6
v 3.2 12.3 -2.6
v 3.4 12.3 -2.5
v 3.4 12.2 -2.5
v 3.4 12.2 -2.6
v 3.4 12.3 -2.6
v 3.3 12.3 -2.6
v 3.3 12.3 -2.5
v 3.4 12.3 -2.5
v 3.4 12.3 -2.6
v 3.3 12.2 -2.5
v 3.3 12.2 -2.6
v 3.4 12.2 -2.6
v 3.4 12.2 -2.5
v 3.3 12.3 -2.5
v 3.3 12.2 -2.5
v 3.4 12.2 -2.5
v 3.4 12.3 -2.5
v 3.4 12.3 -2.6
v 3.4 12.2 -2.6
v 3.3 12.2 -2.6
v 3.3 12.3 -2.6
v 1.6 12.2 -2.6
v 1.6 12.1 -2.6
v 1.6 12.1 -2.5
v 1.6 12.2 -2.5
v 1.6 12.1 -2.5
v 1.6 12.1 -2.6
v 1.7 12.1 -2.6
v 1.7 12.1 -2.5
v 1.6 12.2 -2.5
v 1.6 12.1 -2.5
v 1.7 12.1 -2.5
v 1.7 12.2 -2.5
v 1.7 12.2 -2.6
v 1.7 12.1 -2.6
v 1.6 12.1 -2.6
v 1.6 12.2 -2.6
v 1.7 12.1 -2.5
v 1.7 12.1 -2.6
v 1.8 12.1 -2.6
v 1.8 12.1 -2.5
v 1.7 12.2 -2.5
v 1.7 12.1 -2.5
v 1.8 12.1 -2.5
v 1.8 12.2 -2.5
v 1.8 12.2 -2.6
v 1.8 12.1 -2.6
v 1.7 12.1 -2.6
v 1.7 12.2 -2.6
v 1.8 12.1 -2.5
v 1.8 12.1 -2.6
v 1.9 12.1 -2.6
v 1.9 12.1 -2.5
v 1.8 12.2 -2.5
v 1.8 12.1 -2.5
v 1.9 12.1 -2.5
v 1.9 12.2 -2.5
v 1.9 12.2 -2.6
v 1.9 12.1 -2.6
v 1.8 12.1 -2.6
v 1.8 12.2 -2.6
v 1.9 12.2 -2.5
v 1.9 12.1 -2.5
v 2 12.1 -2.5
v 2 12.2 -2.5
v 2 12.2 -2.6
v 2 12.1 -2.6
v 1.9 12.1 -2.6
v 1.9 12.2 -2.6
v 2 12.2 -2.5
v 2 12.1 -2.5
v 2.1 12.1 -2.5
v 2.1 12.2 -2.5
v 2.1 12.2 -2.6
v 2.1 12.1 -2.6
v 2 12.1 -2.6
v 2 12.2 -2.6
v 2.1 12.2 -2.5
v 2.1 12.1 -2.5
v 2.2 12.1 -2.5
v 2.2 12.2 -2.5
v 2.2 12.2 -2.6
v 2.2 12.1 -2.6
v 2.1 12.1 -2.6
v 2.1 12.2 -2.6
v 2.2 12.2 -2.5
v 2.2 12.1 -2.5
v 2.3 12.1 -2.5
v 2.3 12.2 -2.5
v 2.3 12.2 -2.6
v 2.3 12.1 -2.6
v 2.2 12.1 -2.6
v 2.2 12.2 -2.6
v 2.3 12.2 -2.5
v 2.3 12.1 -2.5
v 2.4 12.1 -2.5
v 2.4 12.2 -2.5
v 2.4 12.2 -2.6
v 2.4 12.1 -2.6
v 2.3 12.1 -2.6
v 2.3 12.2 -2.6
v 2.4 12.2 -2.5
v 2.4 12.1 -2.5
v 2.5 12.1 -2.5
v 2.5 12.2 -2.5
v 2.5 12.2 -2.6
v 2.5 12.1 -2.6
v 2.4 12.1 -2.6
v 2.4 12.2 -2.6
v 2.5 12.2 -2.5
v 2.5 12.1 -2.5
v 2.6 12.1 -2.5
v 2.6 12.2 -2.5
v 2.6 12.2 -2.6
v 2.6 12.1 -2.6
v 2.5 12.1 -2.6
v 2.5 12.2 -2.6
v 2.7 12.2 -2.5
v 2.7 12.1 -2.5
v 2.7 12.1 -2.6
v 2.7 12.2 -2.6
v 2.6 12.2 -2.6
v 2.6 12.2 -2.5
v 2.7 12.2 -2.5
v 2.7 12.2 -2.6
v 2.6 12.2 -2.5
v 2.6 12.1 -2.5
v 2.7 12.1 -2.5
v 2.7 12.2 -2.5
v 2.7 12.2 -2.6
v 2.7 12.1 -2.6
v 2.6 12.1 -2.6
v 2.6 12.2 -2.6
v 3 12.2 -2.6
v 3 12.1 -2.6
v 3 12.1 -2.5
v 3 12.2 -2.5
v 3 12.2 -2.6
v 3 12.2 -2.5
v 3.1 12.2 -2.5
v 3.1 12.2 -2.6
v 3 12.2 -2.5
v 3 12.1 -2.5
v 3.1 12.1 -2.5
v 3.1 12.2 -2.5
v 3.1 12.2 -2.6
v 3.1 12.1 -2.6
v 3 12.1 -2.6
v 3 12.2 -2.6
v 3.1 12.2 -2.6
v 3.1 12.2 -2.5
v 3.2 12.2 -2.5
v 3.2 12.2 -2.6
v 3.1 12.2 -2.5
v 3.1 12.1 -2.5
v 3.2 12.1 -2.5
v 3.2 12.2 -2.5
v 3.2 12.2 -2.6
v 3.2 12.1 -2.6
v 3.1 12.1 -2.6
v 3.1 12.2 -2.6
v 3.3 12.2 -2.5
v 3.3 12.1 -2.5
v 3.3 12.1 -2.6
v 3.3 12.2 -2.6
v 3.2 12.2 -2.5
v 3.2 12.1 -2.5
v 3.3 12.1 -2.5
v 3.3 12.2 -2.5
v 3.3 12.2 -2.6
v 3.3 12.1 -2.6
v 3.2 12.1 -2.6
v 3.2 12.2 -2.6
v 1.9 12.1 -2.6
v 1.9 12 -2.6
v 1.9 12 -2.5
v 1.9 12.1 -2.5
v 1.9 12 -2.5
v 1.9 12 -2.6
v 2 12 -2.6
v 2 12 -2.5
v 1.9 12.1 -2.5
v 1.9 12 -2.5
v 2 12 -2.5
v 2 12.1 -2.5
v 2 12.1 -2.6
v 2 12 -2.6
v 1.9 12 -2.6
v 1.9 12.1 -2.6
v 2 12 -2.5
v 2 12 -2.6
v 2.1 12 -2.6
v 2.1 12 -2.5
v 2 12.1 -2.5
v 2 12 -2.5
v 2.1 12 -2.5
v 2.1 12.1 -2.5
v 2.1 12.1 -2.6
v 2.1 12 -2.6
v 2 12 -2.6
v 2 12.1 -2.6
v 2.1 12 -2.5
v 2.1 12 -2.6
v 2.2 12 -2.6
v 2.2 12 -2.5
v 2.1 12.1 -2.5
v 2.1 12 -2.5
v 2.2 12 -2.5
v 2.2 12.1 -2.5
v 2.2 12.1 -2.6
v 2.2 12 -2.6
v 2.1 12 -2.6
v 2.1 12.1 -2.6
v 2.2 12 -2.5
v 2.2 12 -2.6
v 2.3 12 -2.6
v 2.3 12 -2.5
v 2.2 12.1 -2.5
v 2.2 12 -2.5
v 2.3 12 -2.5
v 2.3 12.1 -2.5
v 2.3 12.1 -2.6
v 2.3 12 -2.6
v 2.2 12 -2.6
v 2.2 12.1 -2.6
v 2.3 12.1 -2.5
v 2.3 12 -2.5
v 2.4 12 -2.5
v 2.4 12.1 -2.5
v 2.4 12.1 -2.6
v 2.4 12 -2.6
v 2.3 12 -2.6
v 2.3 12.1 -2.6
v 2.4 12.1 -2.5
v 2.4 12 -2.5
v 2.5 12 -2.5
v 2.5 12.1 -2.5
v 2.5 12.1 -2.6
v 2.5 12 -2.6
v 2.4 12 -2.6
v 2.4 12.1 -2.6
v 2.5 12.1 -2.5
v 2.5 12 -2.5
v 2.6 12 -2.5
v 2.6 12.1 -2.5
v 2.6 12.1 -2.6
v 2.6 12 -2.6
v 2.5 12 -2.6
v 2.5 12.1 -2.6
v 2.6 12.1 -2.5
v 2.6 12 -2.5
v 2.7 12 -2.5
v 2.7 12.1 -2.5
v 2.7 12.1 -2.6
v 2.7 12 -2.6
v 2.6 12 -2.6
v 2.6 12.1 -2.6
v 2.7 12.1 -2.6
v 2.7 12.1 -2.5
v 2.8 12.1 -2.5
v 2.8 12.1 -2.6
v 2.7 12.1 -2.5
v 2.7 12 -2.5
v 2.8 12 -2.5
v 2.8 12.1 -2.5
v 2.8 12.1 -2.6
v 2.8 12 -2.6
v 2.7 12 -2.6
v 2.7 12.1 -2.6
v 2.8 12.1 -2.6
v 2.8 12.1 -2.5
v 2.9 12.1 -2.5
v 2.9 12.1 -2.6
v 2.8 12.1 -2.5
v 2.8 12 -2.5
v 2.9 12 -2.5
v 2.9 12.1 -2.5
v 2.9 12.1 -2.6
v 2.9 12 -2.6
v 2.8 12 -2.6
v 2.8 12.1 -2.6
v 2.9 12.1 -2.6
v 2.9 12.1 -2.5
v 3 12.1 -2.5
v 3 12.1 -2.6
v 2.9 12.1 -2.5
v 2.9 12 -2.5
v 3 12 -2.5
v 3 12.1 -2.5
v 3 12.1 -2.6
v 3 12 -2.6
v 2.9 12 -2.6
v 2.9 12.1 -2.6
v 3 12.1 -2.5
v 3 12 -2.5
v 3.1 12 -2.5
v 3.1 12.1 -2.5
v 3.1 12.1 -2.6
v 3.1 12 -2.6
v 3 12 -2.6
v 3 12.1 -2.6
v 3.1 12.1 -2.5
v 3.1 12 -2.5
v 3.2 12 -2.5
v 3.2 12.1 -2.5
v 3.2 12.1 -2.6
v 3.2 12 -2.6
v 3.1 12 -2.6
v 3.1 12.1 -2.6
v 3.3 12.1 -2.5
v 3.3 12 -2.5
v 3.3 12 -2.6
v 3.3 12.1 -2.6
v 3.2 12 -2.5
v 3.2 12 -2.6
v 3.3 12 -2.6
v 3.3 12 -2.5
v 3.2 12.1 -2.5
v 3.2 12 -2.5
v 3.3 12 -2.5
v 3.3 12.1 -2.5
v 3.3 12.1 -2.6
v 3.3 12 -2.6
v 3.2 12 -2.6
v 3.2 12.1 -2.6
v 2.3 12 -2.6
v 2.3 11.9 -2.6
v 2.3 11.9 -2.5
v 2.3 12 -2.5
v 2.3 11.9 -2.5
v 2.3 11.9 -2.6
v 2.4 11.9 -2.6
v 2.4 11.9 -2.5
v 2.3 12 -2.5
v 2.3 11.9 -2.5
v 2.4 11.9 -2.5
v 2.4 12 -2.5
v 2.4 12 -2.6
v 2.4 11.9 -2.6
v 2.3 11.9 -2.6
v 2.3 12 -2.6
v 2.4 11.9 -2.5
v 2.4 11.9 -2.6
v 2.5 11.9 -2.6
v 2.5 11.9 -2.5
v 2.4 12 -2.5
v 2.4 11.9 -2.5
v 2.5 11.9 -2.5
v 2.5 12 -2.5
v 2.5 12 -2.6
v 2.5 11.9 -2.6
v 2.4 11.9 -2.6
v 2.4 12 -2.6
v 2.5 11.9 -2.5
v 2.5 11.9 -2.6
v 2.6 11.9 -2.6
v 2.6 11.9 -2.5
v 2.5 12 -2.5
v 2.5 11.9 -2.5
v 2.6 11.9 -2.5
v 2.6 12 -2.5
v 2.6 12 -2.6
v 2.6 11.9 -2.6
v 2.5 11.9 -2.6
v 2.5 12 -2.6
v 2.6 12 -2.5
v 2.6 11.9 -2.5
v 2.7 11.9 -2.5
v 2.7 12 -2.5
v 2.7 12 -2.6
v 2.7 11.9 -2.6
v 2.6 11.9 -2.6
v 2.6 12 -2.6
v 2.7 12 -2.5
v 2.7 11.9 -2.5
v 2.8 11.9 -2.5
v 2.8 12 -2.5
v 2.8 12 -2.6
v 2.8 11.9 -2.6
v 2.7 11.9 -2.6
v 2.7 12 -2.6
v 2.8 12 -2.5
v 2.8 11.9 -2.5
v 2.9 11.9 -2.5
v 2.9 12 -2.5
v 2.9 12 -2.6
v 2.9 11.9 -2.6
v 2.8 11.9 -2.6
v 2.8 12 -2.6
v 2.9 12 -2.5
v 2.9 11.9 -2.5
v 3 11.9 -2.5
v 3 12 -2.5
v 3 12 -2.6
v 3 11.9 -2.6
v 2.9 11.9 -2.6
v 2.9 12 -2.6
v 3 12 -2.5
v 3 11.9 -2.5
v 3.1 11.9 -2.5
v 3.1 12 -2.5
v 3.1 12 -2.6
v 3.1 11.9 -2.6
v 3 11.9 -2.6
v 3 12 -2.6
v 3.2 12 -2.5
v 3.2 11.9 -2.5
v 3.2 11.9 -2.6
v 3.2 12 -2.6
v 3.1 12 -2.5
v 3.1 11.9 -2.5
v 3.2 11.9 -2.5
v 3.2 12 -2.5
v 3.2 12 -2.6
v 3.2 11.9 -2.6
v 3.1 11.9 -2.6
v 3.1 12 -2.6
v 2.6 11.9 -2.6
v 2.6 11.8 -2.6
v 2.6 11.8 -2.5
v 2.6 11.9 -2.5
v 2.6 11.8 -2.5
v 2.6 11.8 -2.6
v 2.7 11.8 -2.6
v 2.7 11.8 -2.5
v 2.6 11.9 -2.5
v 2.6 11.8 -2.5
v 2.7 11.8 -2.5
v 2.7 11.9 -2.5
v 2.7 11.9 -2.6
v 2.7 11.8 -2.6
v 2.6 11.8 -2.6
v 2.6 11.9 -2.6
v 2.7 11.9 -2.5
v 2.7 11.8 -2.5
v 2.8 11.8 -2.5
v 2.8 11.9 -2.5
v 2.8 11.9 -2.6
v 2.8 11.8 -2.6
v 2.7 11.8 -2.6
v 2.7 11.9 -2.6
v 2.8 11.9 -2.5
v 2.8 11.8 -2.5
v 2.9 11.8 -2.5
v 2.9 11.9 -2.5
v 2.9 11.9 -2.6
v 2.9 11.8 -2.6
v 2.8 11.8 -2.6
v 2.8 11.9 -2.6
v 2.9 11.9 -2.5
v 2.9 11.8 -2.5
v 3 11.8 -2.5
v 3 11.9 -2.5
v 3 11.9 -2.6
v 3 11.8 -2.6
v 2.9 11.8 -2.6
v 2.9 11.9 -2.6
v 3 11.9 -2.5
v 3 11.8 -2.5
v 3.1 11.8 -2.5
v 3.1 11.9 -2.5
v 3.1 11.9 -2.6
v 3.1 11.8 -2.6
v 3 11.8 -2.6
v 3 11.9 -2.6
v 3.2 11.9 -2.5
v 3.2 11.8 -2.5
v 3.2 11.8 -2.6
v 3.2 11.9 -2.6
v 3.1 11.9 -2.5
v 3.1 11.8 -2.5
v 3.2 11.8 -2.5
v 3.2 11.9 -2.5
v 3.2 11.9 -2.6
v 3.2 11.8 -2.6
v 3.1 11.8 -2.6
v 3.1 11.9 -2.6
v 2.7 11.8 -2.6
v 2.7 11.7 -2.6
v 2.7 11.7 -2.5
v 2.7 11.8 -2.5
v 2.7 11.7 -2.5
v 2.7 11.7 -2.6
v 2.8 11.7 -2.6
v 2.8 11.7 -2.5
v 2.7 11.8 -2.5
v 2.7 11.7 -2.5
v 2.8 11.7 -2.5
v 2.8 11.8 -2.5
v 2.8 11.8 -2.6
v 2.8 11.7 -2.6
v 2.7 11.7 -2.6
v 2.7 11.8 -2.6
v 2.8 11.8 -2.5
v 2.8 11.7 -2.5
v 2.9 11.7 -2.5
v 2.9 11.8 -2.5
v 2.9 11.8 -2.6
v 2.9 11.7 -2.6
v 2.8 11.7 -2.6
v 2.8 11.8 -2.6
v 2.9 11.8 -2.5
v 2.9 11.7 -2.5
v 3 11.7 -2.5
v 3 11.8 -2.5
v 3 11.8 -2.6
v 3 11.7 -2.6
v 2.9 11.7 -2.6
v 2.9 11.8 -2.6
v 3 11.8 -2.5
v 3 11.7 -2.5
v 3.1 11.7 -2.5
v 3.1 11.8 -2.5
v 3.1 11.8 -2.6
v 3.1 11.7 -2.6
v 3 11.7 -2.6
v 3 11.8 -2.6
v 3.2 11.8 -2.5
v 3.2 11.7 -2.5
v 3.2 11.7 -2.6
v 3.2 11.8 -2.6
v 3.1 11.8 -2.5
v 3.1 11.7 -2.5
v 3.2 11.7 -2.5
v 3.2 11.8 -2.5
v 3.2 11.8 -2.6
v 3.2 11.7 -2.6
v 3.1 11.7 -2.6
v 3.1 11.8 -2.6
v 2.8 11.7 -2.6
v 2.8 11.6 -2.6
v 2.8 11.6 -2.5
v 2.8 11.7 -2.5
v 2.8 11.6 -2.5
v 2.8 11.6 -2.6
v 2.9 11.6 -2.6
v 2.9 11.6 -2.5
v 2.8 11.7 -2.5
v 2.8 11.6 -2.5
v 2.9 11.6 -2.5
v 2.9 11.7 -2.5
v 2.9 11.7 -2.6
v 2.9 11.6 -2.6
v 2.8 11.6 -2.6
v 2.8 11.7 -2.6
v 2.9 11.7 -2.5
v 2.9 11.6 -2.5
v 3 11.6 -2.5
v 3 11.7 -2.5
v 3 11.7 -2.6
v 3 11.6 -2.6
v 2.9 11.6 -2.6
v 2.9 11.7 -2.6
v 3 11.7 -2.5
v 3 11.6 -2.5
v 3.1 11.6 -2.5
v 3.1 11.7 -2.5
v 3.1 11.7 -2.6
v 3.1 11.6 -2.6
v 3 11.6 -2.6
v 3 11.7 -2.6
v 3.2 11.7 -2.5
v 3.2 11.6 -2.5
v 3.2 11.6 -2.6
v 3.2 11.7 -2.6
v 3.1 11.7 -2.5
v 3.1 11.6 -2.5
v 3.2 11.6 -2.5
v 3.2 11.7 -2.5
v 3.2 11.7 -2.6
v 3.2 11.6 -2.6
v 3.1 11.6 -2.6
v 3.1 11.7 -2.6
v 2.9 11.6 -2.6
v 2.9 11.5 -2.6
v 2.9 11.5 -2.5
v 2.9 11.6 -2.5
v 2.9 11.5 -2.5
v 2.9 11.5 -2.6
v 3 11.5 -2.6
v 3 11.5 -2.5
v 2.9 11.6 -2.5
v 2.9 11.5 -2.5
v 3 11.5 -2.5
v 3 11.6 -2.5
v 3 11.6 -2.6
v 3 11.5 -2.6
v 2.9 11.5 -2.6
v 2.9 11.6 -2.6
v 3 11.6 -2.5
v 3 11.5 -2.5
v 3.1 11.5 -2.5
v 3.1 11.6 -2.5
v 3.1 11.6 -2.6
v 3.1 11.5 -2.6
v 3 11.5 -2.6
v 3 11.6 -2.6
v 3.2 11.6 -2.5
v 3.2 11.5 -2.5
v 3.2 11.5 -2.6
v 3.2 11.6 -2.6
v 3.1 11.6 -2.5
v 3.1 11.5 -2.5
v 3.2 11.5 -2.5
v 3.2 11.6 -2.5
v 3.2 11.6 -2.6
v 3.2 11.5 -2.6
v 3.1 11.5 -2.6
v 3.1 11.6 -2.6
v 3 11.5 -2.6
v 3 11.4 -2.6
v 3 11.4 -2.5
v 3 11.5 -2.5
v 3 11.4 -2.5
v 3 11.4 -2.6
v 3.1 11.4 -2.6
v 3.1 11.4 -2.5
v 3 11.5 -2.5
v 3 11.4 -2.5
v 3.1 11.4 -2.5
v 3.1 11.5 -2.5
v 3.1 11.5 -2.6
v 3.1 11.4 -2.6
v 3 11.4 -2.6
v 3 11.5 -2.6
v 3.2 11.5 -2.5
v 3.2 11.4 -2.5
v 3.2 11.4 -2.6
v 3.2 11.5 -2.6
v 3.1 11.5 -2.5
v 3.1 11.4 -2.5
v 3.2 11.4 -2.5
v 3.2 11.5 -2.5
v 3.2 11.5 -2.6
v 3.2 11.4 -2.6
v 3.1 11.4 -2.6
v 3.1 11.5 -2.6
v 3.1 11.4 -2.6
v 3.1 11.3 -2.6
v 3.1 11.3 -2.5
v 3.1 11.4 -2.5
v 3.1 11.3 -2.5
v 3.1 11.3 -2.6
v 3.2 11.3 -2.6
v 3.2 11.3 -2.5
v 3.1 11.4 -2.5
v 3.1 11.3 -2.5
v 3.2 11.3 -2.5
v 3.2 11.4 -2.5
v 3.2 11.4 -2.6
v 3.2 11.3 -2.6
v 3.1 11.3 -2.6
v 3.1 11.4 -2.6
v 3.3 11.4 -2.5
v 3.3 11.3 -2.5
v 3.3 11.3 -2.6
v 3.3 11.4 -2.6
v 3.2 11.4 -2.6
v 3.2 11.4 -2.5
v 3.3 11.4 -2.5
v 3.3 11.4 -2.6
v 3.2 11.4 -2.5
v 3.2 11.3 -2.5
v 3.3 11.3 -2.5
v 3.3 11.4 -2.5
v 3.3 11.4 -2.6
v 3.3 11.3 -2.6
v 3.2 11.3 -2.6
v 3.2 11.4 -2.6
v 3.2 11.3 -2.6
v 3.2 11.2 -2.6
v 3.2 11.2 -2.5
v 3.2 11.3 -2.5
v 3.2 11.2 -2.5
v 3.2 11.2 -2.6
v 3.3 11.2 -2.6
v 3.3 11.2 -2.5
v 3.2 11.3 -2.5
v 3.2 11.2 -2.5
v 3.3 11.2 -2.5
v 3.3 11.3 -2.5
v 3.3 11.3 -2.6
v 3.3 11.2 -2.6
v 3.2 11.2 -2.6
v 3.2 11.3 -2.6
v 3.4 11.3 -2.5
v 3.4 11.2 -2.5
v 3.4 11.2 -2.6
v 3.4 11.3 -2.6
v 3.3 11.3 -2.6
v 3.3 11.3 -2.5
v 3.4 11.3 -2.5
v 3.4 11.3 -2.6
v 3.3 11.2 -2.5
v 3.3 11.2 -2.6
v 3.4 11.2 -2.6
v 3.4 11.2 -2.5
v 3.3 11.3 -2.5
v 3.3 11.2 -2.5
v 3.4 11.2 -2.5
v 3.4 11.3 -2.5
v 3.4 11.3 -2.6
v 3.4 11.2 -2.6
v 3.3 11.2 -2.6
v 3.3 11.3 -2.6
v 3.4 11.2 -2.6
v 3.4 11.1 -2.6
v 3.4 11.1 -2.5
v 3.4 11.2 -2.5
v 3.5 11.2 -2.5
v 3.5 11.1 -2.5
v 3.5 11.1 -2.6
v 3.5 11.2 -2.6
v 3.4 11.2 -2.6
v 3.4 11.2 -2.5
v 3.5 11.2 -2.5
v 3.5 11.2 -2.6
v 3.4 11.1 -2.5
v 3.4 11.1 -2.6
v 3.5 11.1 -2.6
v 3.5 11.1 -2.5
v 3.4 11.2 -2.5
v 3.4 11.1 -2.5
v 3.5 11.1 -2.5
v 3.5 11.2 -2.5
v 3.5 11.2 -2.6
v 3.5 11.1 -2.6
v 3.4 11.1 -2.6
v 3.4 11.2 -2.6
v 3.5 11.1 -2.6
v 3.5 11 -2.6
v 3.5 11 -2.5
v 3.5 11.1 -2.5
v 3.6 11.1 -2.5
v 3.6 11 -2.5
v 3.6 11 -2.6
v 3.6 11.1 -2.6
v 3.5 11.1 -2.6
v 3.5 11.1 -2.5
v 3.6 11.1 -2.5
v 3.6 11.1 -2.6
v 3.5 11 -2.5
v 3.5 11 -2.6
v 3.6 11 -2.6
v 3.6 11 -2.5
v 3.5 11.1 -2.5
v 3.5 11 -2.5
v 3.6 11 -2.5
v 3.6 11.1 -2.5
v 3.6 11.1 -2.6
v 3.6 11 -2.6
v 3.5 11 -2.6
v 3.5 11.1 -2.6
v 3.6 11 -2.6
v 3.6 10.9 -2.6
v 3.6 10.9 -2.5
v 3.6 11 -2.5
v 3.7 11 -2.5
v 3.7 10.9 -2.5
v 3.7 10.9 -2.6
v 3.7 11 -2.6
v 3.6 11 -2.6
v 3.6 11 -2.5
v 3.7 11 -2.5
v 3.7 11 -2.6
v 3.6 10.9 -2.5
v 3.6 10.9 -2.6
v 3.7 10.9 -2.6
v 3.7 10.9 -2.5
v 3.6 11 -2.5
v 3.6 10.9 -2.5
v 3.7 10.9 -2.5
v 3.7 11 -2.5
v 3.7 11 -2.6
v 3.7 10.9 -2.6
v 3.6 10.9 -2.6
v 3.6 11 -2.6

# faces
f 1/3/1 2/3/1 3/3/1 4/3/1
f 5/3/2 6/3/2 7/3/2 8/3/2
f 9/3/3 10/3/3 11/3/3 12/3/3
f 13/3/4 14/3/4 15/3/4 16/3/4
f 17/3/5 18/3/5 19/3/5 20/3/5
f 21/3/6 22/3/6 23/3/6 24/3/6
f 25/1/1 26/1/1 27/1/1 28/1/1
f 29/1/2 30/1/2 31/1/2 32/1/2
f 33/1/3 34/1/3 35/1/3 36/1/3
f 37/1/4 38/1/4 39/1/4 40/1/4
f 41/1/5 42/1/5 43/1/5 44/1/5
f 45/1/6 46/1/6 47/1/6 48/1/6
f 49/3/1 50/3/1 51/3/1 52/3/1
f 53/3/2 54/3/2 55/3/2 56/3/2
f 57/3/3 58/3/3 59/3/3 60/3/3
f 61/3/4 62/3/4 63/3/4 64/3/4
f 65/3/5 66/3/5 67/3/5 68/3/5
f 69/3/6 70/3/6 71/3/6 72/3/6
f 73/3/1 74/3/1 75/3/1 76/3/1
f 77/3/3 78/3/3 79/3/3 80/3/3
f 81/3/5 82/3/5 83/3/5 84/3/5
f 85/3/6 86/3/6 87/3/6 88/3/6
f 89/3/2 90/3/2 91/3/2 92/3/2
f 93/3/3 94/3/3 95/3/3 96/3/3
f 97/3/5 98/3/5 99/3/5 100/3/5
f 101/3/6 102/3/6 103/3/6 104/3/6
f 105/3/1 106/3/1 107/3/1 108/3/1
f 109/3/3 110/3/3 111/3/3 112/3/3
f 113/3/5 114/3/5 115/3/5 116/3/5
f 117/3/6 118/3/6 119/3/6 120/3/6
f 121/3/3 122/3/3 123/3/3 124/3/3
f 125/3/5 126/3/5 127/3/5 128/3/5
f 129/3/6 130/3/6 131/3/6 132/3/6
f 133/1/5 134/1/5 135/1/5 136/1/5
f 137/1/6 138/1/6 139/1/6 140/1/6
f 141/3/2 142/3/2 143/3/2 144/3/2
f 145/3/4 146/3/4 147/3/4 148/3/4
f 149/3/5 150/3/5 151/3/5 152/3/5
f 153/3/6 154/3/6 155/3/6 156/3/6
f 157/3/1 158/3/1 159/3/1 160/3/1
f 161/3/3 162/3/3 163/3/3 164/3/3
f 165/3/5 166/3/5 167/3/5 168/3/5
f 169/3/6 170/3/6 171/3/6 172/3/6
f 173/3/3 174/3/3 175/3/3 176/3/3
f 177/3/5 178/3/5 179/3/5 180/3/5
f 181/3/6 182/3/6 183/3/6 184/3/6
f 185/3/3 186/3/3 187/3/3 188/3/3
f 189/3/5 190/3/5 191/3/5 192/3/5
f 193/3/6 194/3/6 195/3/6 196/3/6
f 197/1/5 198/1/5 199/1/5 200/1/5
f 201/1/6 202/1/6 203/1/6 204/1/6
f 205/1/5 206/1/5 207/1/5 208/1/5
f 209/1/6 210/1/6 211/1/6 212/1/6
f 213/3/2 214/3/2 215/3/2 216/3/2
f 217/3/4 218/3/4 219/3/4 220/3/4
f 221/3/5 222/3/5 223/3/5 224/3/5
f 225/3/6 226/3/6 227/3/6 228/3/6
f 229/3/1 230/3/1 231/3/1 232/3/1
f 233/3/3 234/3/3 235/3/3 236/3/3
f 237/3/5 238/3/5 239/3/5 240/3/5
f 241/3/6 242/3/6 243/3/6 244/3/6
f 245/3/3 246/3/3 247/3/3 248/3/3
f 249/3/5 250/3/5 251/3/5 252/3/5
f 253/3/6 254/3/6 255/3/6 256/3/6
f 257/1/5 258/1/5 259/1/5 260/1/5
f 261/1/6 262/1/6 263/1/6 264/1/6
f 265/1/5 266/1/5 267/1/5 268/1/5
f 269/1/6 270/1/6 271/1/6 272/1/6
f 273/1/5 274/1/5 275/1/5 276/1/5
f 277/1/6 278/1/6 279/1/6 280/1/6
f 281/1/5 282/1/5 283/1/5 284/1/5
f 285/1/6 286/1/6 287/1/6 288/1/6
f 289/3/2 290/3/2 291/3/2 292/3/2
f 293/3/4 294/3/4 295/3/4 296/3/4
f 297/3/5 298/3/5 299/3/5 300/3/5
f 301/3/6 302/3/6 303/3/6 304/3/6
f 305/3/1 306/3/1 307/3/1 308/3/1
f 309/3/3 310/3/3 311/3/3 312/3/3
f 313/3/5 314/3/5 315/3/5 316/3/5
f 317/3/6 318/3/6 319/3/6 320/3/6
f 321/3/3 322/3/3 323/3/3 324/3/3
f 325/3/5 326/3/5 327/3/5 328/3/5
f 329/3/6 330/3/6 331/3/6 332/3/6
f 333/3/3 334/3/3 335/3/3 336/3/3
f 337/3/5 338/3/5 339/3/5 340/3/5
f 341/3/6 342/3/6 343/3/6 344/3/6
f 345/1/5 346/1/5 347/1/5 348/1/5
f 349/1/6 350/1/6 351/1/6 352/1/6
f 353/1/5 354/1/5 355/1/5 356/1/5
f 357/1/6 358/1/6 359/1/6 360/1/6
f 361/2/5 362/2/5 363/2/5 364/2/5
f 365/2/6 366/2/6 367/2/6 368/2/6
f 369/2/5 370/2/5 371/2/5 372/2/5
f 373/2/6 374/2/6 375/2/6 376/2/6
f 377/1/5 378/1/5 379/1/5 380/1/5
f 381/1/6 382/1/6 383/1/6 384/1/6
f 385/3/2 386/3/2 387/3/2 388/3/2
f 389/3/5 390/3/5 391/3/5 392/3/5
f 393/3/6 394/3/6 395/3/6 396/3/6
f 397/3/1 398/3/1 399/3/1 400/3/1
f 401/3/2 402/3/2 403/3/2 404/3/2
f 405/3/3 406/3/3 407/3/3 408/3/3
f 409/3/4 410/3/4 411/3/4 412/3/4
f 413/3/5 414/3/5 415/3/5 416/3/5
f 417/3/6 418/3/6 419/3/6 420/3/6
f 421/3/1 422/3/1 423/3/1 424/3/1
f 425/3/3 426/3/3 427/3/3 428/3/3
f 429/3/5 430/3/5 431/3/5 432/3/5
f 433/3/6 434/3/6 435/3/6 436/3/6
f 437/3/3 438/3/3 439/3/3 440/3/3
f 441/3/5 442/3/5 443/3/5 444/3/5
f 445/3/6 446/3/6 447/3/6 448/3/6
f 449/1/5 450/1/5 451/1/5 452/1/5
f 453/1/6 454/1/6 455/1/6 456/1/6
f 457/1/5 458/1/5 459/1/5 460/1/5
f 461/1/6 462/1/6 463/1/6 464/1/6
f 465/1/5 466/1/5 467/1/5 468/1/5
f 469/1/6 470/1/6 471/1/6 472/1/6
f 473/2/5 474/2/5 475/2/5 476/2/5
f 477/2/6 478/2/6 479/2/6 480/2/6
f 481/2/5 482/2/5 483/2/5 484/2/5
f 485/2/6 486/2/6 487/2/6 488/2/6
f 489/2/5 490/2/5 491/2/5 492/2/5
f 493/2/6 494/2/6 495/2/6 496/2/6
f 497/2/5 498/2/5 499/2/5 500/2/5
f 501/2/6 502/2/6 503/2/6 504/2/6
f 505/1/5 506/1/5 507/1/5 508/1/5
f 509/1/6 510/1/6 511/1/6 512/1/6
f 513/3/2 514/3/2 515/3/2 516/3/2
f 517/3/5 518/3/5 519/3/5 520/3/5
f 521/3/6 522/3/6 523/3/6 524/3/6
f 525/3/1 526/3/1 527/3/1 528/3/1
f 529/3/2 530/3/2 531/3/2 532/3/2
f 533/3/3 534/3/3 535/3/3 536/3/3
f 537/3/4 538/3/4 539/3/4 540/3/4
f 541/3/5 542/3/5 543/3/5 544/3/5
f 545/3/6 546/3/6 547/3/6 548/3/6
f 549/3/1 550/3/1 551/3/1 552/3/1
f 553/3/3 554/3/3 555/3/3 556/3/3
f 557/3/4 558/3/4 559/3/4 560/3/4
f 561/3/5 562/3/5 563/3/5 564/3/5
f 565/3/6 566/3/6 567/3/6 568/3/6
f 569/3/3 570/3/3 571/3/3 572/3/3
f 573/3/4 574/3/4 575/3/4 576/3/4
f 577/3/5 578/3/5 579/3/5 580/3/5
f 581/3/6 582/3/6 583/3/6 584/3/6
f 585/1/4 586/1/4 587/1/4 588/1/4
f 589/1/5 590/1/5 591/1/5 592/1/5
f 593/1/6 594/1/6 595/1/6 596/1/6
f 597/1/5 598/1/5 599/1/5 600/1/5
f 601/1/6 602/1/6 603/1/6 604/1/6
f 605/2/5 606/2/5 607/2/5 608/2/5
f 609/2/6 610/2/6 611/2/6 612/2/6
f 613/2/5 614/2/5 615/2/5 616/2/5
f 617/2/6 618/2/6 619/2/6 620/2/6
f 621/2/5 622/2/5 623/2/5 624/2/5
f 625/2/6 626/2/6 627/2/6 628/2/6
f 629/2/5 630/2/5 631/2/5 632/2/5
f 633/2/6 634/2/6 635/2/6 636/2/6
f 637/2/5 638/2/5 639/2/5 640/2/5
f 641/2/6 642/2/6 643/2/6 644/2/6
f 645/2/5 646/2/5 647/2/5 648/2/5
f 649/2/6 650/2/6 651/2/6 652/2/6
f 653/2/5 654/2/5 655/2/5 656/2/5
f 657/2/6 658/2/6 659/2/6 660/2/6
f 661/1/5 662/1/5 663/1/5 664/1/5
f 665/1/6 666/1/6 667/1/6 668/1/6
f 669/3/2 670/3/2 671/3/2 672/3/2
f 673/3/5 674/3/5 675/3/5 676/3/5
f 677/3/6 678/3/6 679/3/6 680/3/6
f 681/3/1 682/3/1 683/3/1 684/3/1
f 685/3/3 686/3/3 687/3/3 688/3/3
f 689/3/5 690/3/5 691/3/5 692/3/5
f 693/3/6 694/3/6 695/3/6 696/3/6
f 697/3/2 698/3/2 699/3/2 700/3/2
f 701/3/3 702/3/3 703/3/3 704/3/3
f 705/3/4 706/3/4 707/3/4 708/3/4
f 709/3/5 710/3/5 711/3/5 712/3/5
f 713/3/6 714/3/6 715/3/6 716/3/6
f 717/2/1 718/2/1 719/2/1 720/2/1
f 721/2/4 722/2/4 723/2/4 724/2/4
f 725/2/5 726/2/5 727/2/5 728/2/5
f 729/2/6 730/2/6 731/2/6 732/2/6
f 733/2/4 734/2/4 735/2/4 736/2/4
f 737/2/5 738/2/5 739/2/5 740/2/5
f 741/2/6 742/2/6 743/2/6 744/2/6
f 745/2/4 746/2/4 747/2/4 748/2/4
f 749/2/5 750/2/5 751/2/5 752/2/5
f 753/2/6 754/2/6 755/2/6 756/2/6
f 757/2/5 758/2/5 759/2/5 760/2/5
f 761/2/6 762/2/6 763/2/6 764/2/6
f 765/2/5 766/2/5 767/2/5 768/2/5
f 769/2/6 770/2/6 771/2/6 772/2/6
f 773/2/5 774/2/5 775/2/5 776/2/5
f 777/2/6 778/2/6 779/2/6 780/2/6
f 781/2/5 782/2/5 783/2/5 784/2/5
f 785/2/6 786/2/6 787/2/6 788/2/6
f 789/2/5 790/2/5 791/2/5 792/2/5
f 793/2/6 794/2/6 795/2/6 796/2/6
f 797/2/5 798/2/5 799/2/5 800/2/5
f 801/2/6 802/2/6 803/2/6 804/2/6
f 805/1/5 806/1/5 807/1/5 808/1/5
f 809/1/6 810/1/6 811/1/6 812/1/6
f 813/3/2 814/3/2 815/3/2 816/3/2
f 817/3/3 818/3/3 819/3/3 820/3/3
f 821/3/5 822/3/5 823/3/5 824/3/5
f 825/3/6 826/3/6 827/3/6 828/3/6
f 829/3/1 830/3/1 831/3/1 832/3/1
f 833/3/3 834/3/3 835/3/3 836/3/3
f 837/3/5 838/3/5 839/3/5 840/3/5
f 841/3/6 842/3/6 843/3/6 844/3/6
f 845/3/3 846/3/3 847/3/3 848/3/3
f 849/3/5 850/3/5 851/3/5 852/3/5
f 853/3/6 854/3/6 855/3/6 856/3/6
f 857/3/2 858/3/2 859/3/2 860/3/2
f 861/3/5 862/3/5 863/3/5 864/3/5
f 865/3/6 866/3/6 867/3/6 868/3/6
f 869/2/1 870/2/1 871/2/1 872/2/1
f 873/2/4 874/2/4 875/2/4 876/2/4
f 877/2/5 878/2/5 879/2/5 880/2/5
f 881/2/6 882/2/6 883/2/6 884/2/6
f 885/2/4 886/2/4 887/2/4 888/2/4
f 889/2/5 890/2/5 891/2/5 892/2/5
f 893/2/6 894/2/6 895/2/6 896/2/6
f 897/2/4 898/2/4 899/2/4 900/2/4
f 901/2/5 902/2/5 903/2/5 904/2/5
f 905/2/6 906/2/6 907/2/6 908/2/6
f 909/2/4 910/2/4 911/2/4 912/2/4
f 913/2/5 914/2/5 915/2/5 916/2/5
f 917/2/6 918/2/6 919/2/6 920/2/6
f 921/2/5 922/2/5 923/2/5 924/2/5
f 925/2/6 926/2/6 927/2/6 928/2/6
f 929/2/5 930/2/5 931/2/5 932/2/5
f 933/2/6 934/2/6 935/2/6 936/2/6
f 937/2/5 938/2/5 939/2/5 940/2/5
f 941/2/6 942/2/6 943/2/6 944/2/6
f 945/1/5 946/1/5 947/1/5 948/1/5
f 949/1/6 950/1/6 951/1/6 952/1/6
f 953/3/3 954/3/3 955/3/3 956/3/3
f 957/3/5 958/3/5 959/3/5 960/3/5
f 961/3/6 962/3/6 963/3/6 964/3/6
f 965/3/3 966/3/3 967/3/3 968/3/3
f 969/3/5 970/3/5 971/3/5 972/3/5
f 973/3/6 974/3/6 975/3/6 976/3/6
f 977/3/3 978/3/3 979/3/3 980/3/3
f 981/3/5 982/3/5 983/3/5 984/3/5
f 985/3/6 986/3/6 987/3/6 988/3/6
f 989/1/5 990/1/5 991/1/5 992/1/5
f 993/1/6 994/1/6 995/1/6 996/1/6
f 997/1/5 998/1/5 999/1/5 1000/1/5
f 1001/1/6 1002/1/6 1003/1/6 1004/1/6
f 1005/3/2 1006/3/2 1007/3/2 1008/3/2
f 1009/3/4 1010/3/4 1011/3/4 1012/3/4
f 1013/3/5 1014/3/5 1015/3/5 1016/3/5
f 1017/3/6 1018/3/6 1019/3/6 1020/3/6
f 1021/2/1 1022/2/1 1023/2/1 1024/2/1
f 1025/2/4 1026/2/4 1027/2/4 1028/2/4
f 1029/2/5 1030/2/5 1031/2/5 1032/2/5
f 1033/2/6 1034/2/6 1035/2/6 1036/2/6
f 1037/2/4 1038/2/4 1039/2/4 1040/2/4
f 1041/2/5 1042/2/5 1043/2/5 1044/2/5
f 1045/2/6 1046/2/6 1047/2/6 1048/2/6
f 1049/2/4 1050/2/4 1051/2/4 1052/2/4
f 1053/2/5 1054/2/5 1055/2/5 1056/2/5
f 1057/2/6 1058/2/6 1059/2/6 1060/2/6
f 1061/2/5 1062/2/5 1063/2/5 1064/2/5
f 1065/2/6 1066/2/6 1067/2/6 1068/2/6
f 1069/1/5 1070/1/5 1071/1/5 1072/1/5
f 1073/1/6 1074/1/6 1075/1/6 1076/1/6
f 1077/1/5 1078/1/5 1079/1/5 1080/1/5
f 1081/1/6 1082/1/6 1083/1/6 1084/1/6
f 1085/1/5 1086/1/5 1087/1/5 1088/1/5
f 1089/1/6 1090/1/6 1091/1/6 1092/1/6
f 1093/1/5 1094/1/5 1095/1/5 1096/1/5
f 1097/1/6 1098/1/6 1099/1/6 1100/1/6
f 1101/3/2 1102/3/2 1103/3/2 1104/3/2
f 1105/3/5 1106/3/5 1107/3/5 1108/3/5
f 1109/3/6 1110/3/6 1111/3/6 1112/3/6
f 1113/2/1 1114/2/1 1115/2/1 1116/2/1
f 1117/2/4 1118/2/4 1119/2/4 1120/2/4
f 1121/2/5 1122/2/5 1123/2/5 1124/2/5
f 1125/2/6 1126/2/6 1127/2/6 1128/2/6
f 1129/2/5 1130/2/5 1131/2/5 1132/2/5
f 1133/2/6 1134/2/6 1135/2/6 1136/2/6
f 1137/2/5 1138/2/5 1139/2/5 1140/2/5
f 1141/2/6 1142/2/6 1143/2/6 1144/2/6
f 1145/2/5 1146/2/5 1147/2/5 1148/2/5
f 1149/2/6 1150/2/6 1151/2/6 1152/2/6
f 1153/1/5 1154/1/5 1155/1/5 1156/1/5
f 1157/1/6 1158/1/6 1159/1/6 1160/1/6
f 1161/3/2 1162/3/2 1163/3/2 1164/3/2
f 1165/3/5 1166/3/5 1167/3/5 1168/3/5
f 1169/3/6 1170/3/6 1171/3/6 1172/3/6
f 1173/2/1 1174/2/1 1175/2/1 1176/2/1
f 1177/2/4 1178/2/4 1179/2/4 1180/2/4
f 1181/2/5 1182/2/5 1183/2/5 1184/2/5
f 1185/2/6 1186/2/6 1187/2/6 1188/2/6
f 1189/2/5 1190/2/5 1191/2/5 1192/2/5
f 1193/2/6 1194/2/6 1195/2/6 1196/2/6
f 1197/2/5 1198/2/5 1199/2/5 1200/2/5
f 1201/2/6 1202/2/6 1203/2/6 1204/2/6
f 1205/1/5 1206/1/5 1207/1/5 1208/1/5
f 1209/1/6 1210/1/6 1211/1/6 1212/1/6
f 1213/3/2 1214/3/2 1215/3/2 1216/3/2
f 1217/3/5 1218/3/5 1219/3/5 1220/3/5
f 1221/3/6 1222/3/6 1223/3/6 1224/3/6
f 1225/2/1 1226/2/1 1227/2/1 1228/2/1
f 1229/2/4 1230/2/4 1231/2/4 1232/2/4
f 1233/2/5 1234/2/5 1235/2/5 1236/2/5
f 1237/2/6 1238/2/6 1239/2/6 1240/2/6
f 1241/2/5 1242/2/5 1243/2/5 1244/2/5
f 1245/2/6 1246/2/6 1247/2/6 1248/2/6
f 1249/1/5 1250/1/5 1251/1/5 1252/1/5
f 1253/1/6 1254/1/6 1255/1/6 1256/1/6
f 1257/3/2 1258/3/2 1259/3/2 1260/3/2
f 1261/3/5 1262/3/5 1263/3/5 1264/3/5
f 1265/3/6 1266/3/6 1267/3/6 1268/3/6
f 1269/2/1 1270/2/1 1271/2/1 1272/2/1
f 1273/2/4 1274/2/4 1275/2/4 1276/2/4
f 1277/2/5 1278/2/5 1279/2/5 1280/2/5
f 1281/2/6 1282/2/6 1283/2/6 1284/2/6
f 1285/1/5 1286/1/5 1287/1/5 1288/1/5
f 1289/1/6 1290/1/6 1291/1/6 1292/1/6
f 1293/3/2 1294/3/2 1295/3/2 1296/3/2
f 1297/3/5 1298/3/5 1299/3/5 1300/3/5
f 1301/3/6 1302/3/6 1303/3/6 1304/3/6
f 1305/1/1 1306/1/1 1307/1/1 1308/1/1
f 1309/1/4 1310/1/4 1311/1/4 1312/1/4
f 1313/1/5 1314/1/5 1315/1/5 1316/1/5
f 1317/1/6 1318/1/6 1319/1/6 1320/1/6
f 1321/3/2 1322/3/2 1323/3/2 1324/3/2
f 1325/3/5 1326/3/5 1327/3/5 1328/3/5
f 1329/3/6 1330/3/6 1331/3/6 1332/3/6
f 1333/1/1 1334/1/1 1335/1/1 1336/1/1
f 1337/1/4 1338/1/4 1339/1/4 1340/1/4
f 1341/1/5 1342/1/5 1343/1/5 1344/1/5
f 1345/1/6 1346/1/6 1347/1/6 1348/1/6
f 1349/3/2 1350/3/2 1351/3/2 1352/3/2
f 1353/3/3 1354/3/3 1355/3/3 1356/3/3
f 1357/3/5 1358/3/5 1359/3/5 1360/3/5
f 1361/3/6 1362/3/6 1363/3/6 1364/3/6
f 1365/1/1 1366/1/1 1367/1/1 1368/1/1
f 1369/1/4 1370/1/4 1371/1/4 1372/1/4
f 1373/1/5 1374/1/5 1375/1/5 1376/1/5
f 1377/1/6 1378/1/6 1379/1/6 1380/1/6
f 1381/3/2 1382/3/2 1383/3/2 1384/3/2
f 1385/3/3 1386/3/3 1387/3/3 1388/3/3
f 1389/3/4 1390/3/4 1391/3/4 1392/3/4
f 1393/3/5 1394/3/5 1395/3/5 1396/3/5
f 1397/3/6 1398/3/6 1399/3/6 1400/3/6
f 1401/1/1 1402/1/1 1403/1/1 1404/1/1
f 1405/1/2 1406/1/2 1407/1/2 1408/1/2
f 1409/1/3 1410/1/3 1411/1/3 1412/1/3
f 1413/1/4 1414/1/4 1415/1/4 1416/1/4
f 1417/1/5 1418/1/5 1419/1/5 1420/1/5
f 1421/1/6 1422/1/6 1423/1/6 1424/1/6
f 1425/3/1 1426/3/1 1427/3/1 1428/3/1
f 1429/3/2 1430/3/2 1431/3/2 1432/3/2
f 1433/3/3 1434/3/3 1435/3/3 1436/3/3
f 1437/3/4 1438/3/4 1439/3/4 1440/3/4
f 1441/3/5 1442/3/5 1443/3/5 1444/3/5
f 1445/3/6 1446/3/6 1447/3/6 1448/3/6
f 1449/3/1 1450/3/1 1451/3/1 1452/3/1
f 1453/3/2 1454/3/2 1455/3/2 1456/3/2
f 1457/3/3 1458/3/3 1459/3/3 1460/3/3
f 1461/3/4 1462/3/4 1463/3/4 1464/3/4
f 1465/3/5 1466/3/5 1467/3/5 1468/3/5
f 1469/3/6 1470/3/6 1471/3/6 1472/3/6

