# generated by vox_to_obj_exporter
# scale=0.1 center=false ground=false y_up=true

mtllib Fight_740.mtl
usemtl palette

# normals
vn -1 0 0
vn 1 0 0
vn 0 1 0
vn 0 -1 0
vn 0 0 1
vn 0 0 -1

# texcoords
vt 0.177734375 0.5
vt 0.166015625 0.5
vt 0.162109375 0.5
vt 0.173828125 0.5

# verts
v 7.4 19.2 -2.6
v 7.4 19.1 -2.6
v 7.4 19.1 -2.5
v 7.4 19.2 -2.5
v 7.5 19.2 -2.5
v 7.5 19.1 -2.5
v 7.5 19.1 -2.6
v 7.5 19.2 -2.6
v 7.4 19.2 -2.6
v 7.4 19.2 -2.5
v 7.5 19.2 -2.5
v 7.5 19.2 -2.6
v 7.4 19.1 -2.5
v 7.4 19.1 -2.6
v 7.5 19.1 -2.6
v 7.5 19.1 -2.5
v 7.4 19.2 -2.5
v 7.4 19.1 -2.5
v 7.5 19.1 -2.5
v 7.5 19.2 -2.5
v 7.5 19.2 -2.6
v 7.5 19.1 -2.6
v 7.4 19.1 -2.6
v 7.4 19.2 -2.6
v 7.6 19.2 -2.6
v 7.6 19.1 -2.6
v 7.6 19.1 -2.5
v 7.6 19.2 -2.5
v 7.6 19.2 -2.6
v 7.6 19.2 -2.5
v 7.7 19.2 -2.5
v 7.7 19.2 -2.6
v 7.6 19.1 -2.5
v 7.6 19.1 -2.6
v 7.7 19.1 -2.6
v 7.7 19.1 -2.5
v 7.6 19.2 -2.5
v 7.6 19.1 -2.5
v 7.7 19.1 -2.5
v 7.7 19.2 -2.5
v 7.7 19.2 -2.6
v 7.7 19.1 -2.6
v 7.6 19.1 -2.6
v 7.6 19.2 -2.6
v 7.7 19.2 -2.6
v 7.7 19.2 -2.5
v 7.8 19.2 -2.5
v 7.8 19.2 -2.6
v 7.7 19.2 -2.5
v 7.7 19.1 -2.5
v 7.8 19.1 -2.5
v 7.8 19.2 -2.5
v 7.8 19.2 -2.6
v 7.8 19.1 -2.6
v 7.7 19.1 -2.6
v 7.7 19.2 -2.6
v 7.8 19.2 -2.6
v 7.8 19.2 -2.5
v 7.9 19.2 -2.5
v 7.9 19.2 -2.6
v 7.8 19.2 -2.5
v 7.8 19.1 -2.5
v 7.9 19.1 -2.5
v 7.9 19.2 -2.5
v 7.9 19.2 -2.6
v 7.9 19.1 -2.6
v 7.8 19.1 -2.6
v 7.8 19.2 -2.6
v 7.9 19.2 -2.6
v 7.9 19.2 -2.5
v 8 19.2 -2.5
v 8 19.2 -2.6
v 7.9 19.2 -2.5
v 7.9 19.1 -2.5
v 8 19.1 -2.5
v 8 19.2 -2.5
v 8 19.2 -2.6
v 8 19.1 -2.6
v 7.9 19.1 -2.6
v 7.9 19.2 -2.6
v 8 19.2 -2.6
v 8 19.2 -2.5
v 8.1 19.2 -2.5
v 8.1 19.2 -2.6
v 8 19.2 -2.5
v 8 19.1 -2.5
v 8.1 19.1 -2.5
v 8.1 19.2 -2.5
v 8.1 19.2 -2.6
v 8.1 19.1 -2.6
v 8 19.1 -2.6
v 8 19.2 -2.6
v 8.1 19.2 -2.6
v 8.1 19.2 -2.5
v 8.2 19.2 -2.5
v 8.2 19.2 -2.6
v 8.1 19.2 -2.5
v 8.1 19.1 -2.5
v 8.2 19.1 -2.5
v 8.2 19.2 -2.5
v 8.2 19.2 -2.6
v 8.2 19.1 -2.6
v 8.1 19.1 -2.6
v 8.1 19.2 -2.6
v 8.2 19.2 -2.6
v 8.2 19.2 -2.5
v 8.3 19.2 -2.5
v 8.3 19.2 -2.6
v 8.2 19.2 -2.5
v 8.2 19.1 -2.5
v 8.3 19.1 -2.5
v 8.3 19.2 -2.5
v 8.3 19.2 -2.6
v 8.3 19.1 -2.6
v 8.2 19.1 -2.6
v 8.2 19.2 -2.6
v 8.3 19.2 -2.6
v 8.3 19.2 -2.5
v 8.4 19.2 -2.5
v 8.4 19.2 -2.6
v 8.3 19.2 -2.5
v 8.3 19.1 -2.5
v 8.4 19.1 -2.5
v 8.4 19.2 -2.5
v 8.4 19.2 -2.6
v 8.4 19.1 -2.6
v 8.3 19.1 -2.6
v 8.3 19.2 -2.6
v 8.4 19.2 -2.6
v 8.4 19.2 -2.5
v 8.5 19.2 -2.5
v 8.5 19.2 -2.6
v 8.4 19.2 -2.5
v 8.4 19.1 -2.5
v 8.5 19.1 -2.5
v 8.5 19.2 -2.5
v 8.5 19.2 -2.6
v 8.5 19.1 -2.6
v 8.4 19.1 -2.6
v 8.4 19.2 -2.6
v 8.5 19.2 -2.6
v 8.5 19.2 -2.5
v 8.6 19.2 -2.5
v 8.6 19.2 -2.6
v 8.5 19.2 -2.5
v 8.5 19.1 -2.5
v 8.6 19.1 -2.5
v 8.6 19.2 -2.5
v 8.6 19.2 -2.6
v 8.6 19.1 -2.6
v 8.5 19.1 -2.6
v 8.5 19.2 -2.6
v 8.6 19.2 -2.6
v 8.6 19.2 -2.5
v 8.7 19.2 -2.5
v 8.7 19.2 -2.6
v 8.6 19.2 -2.5
v 8.6 19.1 -2.5
v 8.7 19.1 -2.5
v 8.7 19.2 -2.5
v 8.7 19.2 -2.6
v 8.7 19.1 -2.6
v 8.6 19.1 -2.6
v 8.6 19.2 -2.6
v 8.7 19.2 -2.6
v 8.7 19.2 -2.5
v 8.8 19.2 -2.5
v 8.8 19.2 -2.6
v 8.7 19.2 -2.5
v 8.7 19.1 -2.5
v 8.8 19.1 -2.5
v 8.8 19.2 -2.5
v 8.8 19.2 -2.6
v 8.8 19.1 -2.6
v 8.7 19.1 -2.6
v 8.7 19.2 -2.6
v 8.8 19.2 -2.6
v 8.8 19.2 -2.5
v 8.9 19.2 -2.5
v 8.9 19.2 -2.6
v 8.8 19.2 -2.5
v 8.8 19.1 -2.5
v 8.9 19.1 -2.5
v 8.9 19.2 -2.5
v 8.9 19.2 -2.6
v 8.9 19.1 -2.6
v 8.8 19.1 -2.6
v 8.8 19.2 -2.6
v 8.9 19.2 -2.6
v 8.9 19.2 -2.5
v 9 19.2 -2.5
v 9 19.2 -2.6
v 8.9 19.2 -2.5
v 8.9 19.1 -2.5
v 9 19.1 -2.5
v 9 19.2 -2.5
v 9 19.2 -2.6
v 9 19.1 -2.6
v 8.9 19.1 -2.6
v 8.9 19.2 -2.6
v 9 19.2 -2.6
v 9 19.2 -2.5
v 9.1 19.2 -2.5
v 9.1 19.2 -2.6
v 9 19.2 -2.5
v 9 19.1 -2.5
v 9.1 19.1 -2.5
v 9.1 19.2 -2.5
v 9.1 19.2 -2.6
v 9.1 19.1 -2.6
v 9 19.1 -2.6
v 9 19.2 -2.6
v 9.1 19.2 -2.6
v 9.1 19.2 -2.5
v 9.2 19.2 -2.5
v 9.2 19.2 -2.6
v 9.1 19.2 -2.5
v 9.1 19.1 -2.5
v 9.2 19.1 -2.5
v 9.2 19.2 -2.5
v 9.2 19.2 -2.6
v 9.2 19.1 -2.6
v 9.1 19.1 -2.6
v 9.1 19.2 -2.6
v 9.2 19.2 -2.6
v 9.2 19.2 -2.5
v 9.3 19.2 -2.5
v 9.3 19.2 -2.6
v 9.2 19.2 -2.5
v 9.2 19.1 -2.5
v 9.3 19.1 -2.5
v 9.3 19.2 -2.5
v 9.3 19.2 -2.6
v 9.3 19.1 -2.6
v 9.2 19.1 -2.6
v 9.2 19.2 -2.6
v 9.3 19.2 -2.6
v 9.3 19.2 -2.5
v 9.4 19.2 -2.5
v 9.4 19.2 -2.6
v 9.3 19.2 -2.5
v 9.3 19.1 -2.5
v 9.4 19.1 -2.5
v 9.4 19.2 -2.5
v 9.4 19.2 -2.6
v 9.4 19.1 -2.6
v 9.3 19.1 -2.6
v 9.3 19.2 -2.6
v 9.4 19.2 -2.6
v 9.4 19.2 -2.5
v 9.5 19.2 -2.5
v 9.5 19.2 -2.6
v 9.4 19.2 -2.5
v 9.4 19.1 -2.5
v 9.5 19.1 -2.5
v 9.5 19.2 -2.5
v 9.5 19.2 -2.6
v 9.5 19.1 -2.6
v 9.4 19.1 -2.6
v 9.4 19.2 -2.6
v 9.5 19.2 -2.6
v 9.5 19.2 -2.5
v 9.6 19.2 -2.5
v 9.6 19.2 -2.6
v 9.5 19.2 -2.5
v 9.5 19.1 -2.5
v 9.6 19.1 -2.5
v 9.6 19.2 -2.5
v 9.6 19.2 -2.6
v 9.6 19.1 -2.6
v 9.5 19.1 -2.6
v 9.5 19.2 -2.6
v 9.6 19.2 -2.6
v 9.6 19.2 -2.5
v 9.7 19.2 -2.5
v 9.7 19.2 -2.6
v 9.6 19.2 -2.5
v 9.6 19.1 -2.5
v 9.7 19.1 -2.5
v 9.7 19.2 -2.5
v 9.7 19.2 -2.6
v 9.7 19.1 -2.6
v 9.6 19.1 -2.6
v 9.6 19.2 -2.6
v 9.7 19.2 -2.6
v 9.7 19.2 -2.5
v 9.8 19.2 -2.5
v 9.8 19.2 -2.6
v 9.7 19.2 -2.5
v 9.7 19.1 -2.5
v 9.8 19.1 -2.5
v 9.8 19.2 -2.5
v 9.8 19.2 -2.6
v 9.8 19.1 -2.6
v 9.7 19.1 -2.6
v 9.7 19.2 -2.6
v 9.8 19.2 -2.6
v 9.8 19.2 -2.5
v 9.9 19.2 -2.5
v 9.9 19.2 -2.6
v 9.8 19.2 -2.5
v 9.8 19.1 -2.5
v 9.9 19.1 -2.5
v 9.9 19.2 -2.5
v 9.9 19.2 -2.6
v 9.9 19.1 -2.6
v 9.8 19.1 -2.6
v 9.8 19.2 -2.6
v 9.9 19.2 -2.6
v 9.9 19.2 -2.5
v 10 19.2 -2.5
v 10 19.2 -2.6
v 9.9 19.2 -2.5
v 9.9 19.1 -2.5
v 10 19.1 -2.5
v 10 19.2 -2.5
v 10 19.2 -2.6
v 10 19.1 -2.6
v 9.9 19.1 -2.6
v 9.9 19.2 -2.6
v 10.1 19.2 -2.5
v 10.1 19.1 -2.5
v 10.1 19.1 -2.6
v 10.1 19.2 -2.6
v 10 19.2 -2.6
v 10 19.2 -2.5
v 10.1 19.2 -2.5
v 10.1 19.2 -2.6
v 10 19.2 -2.5
v 10 19.1 -2.5
v 10.1 19.1 -2.5
v 10.1 19.2 -2.5
v 10.1 19.2 -2.6
v 10.1 19.1 -2.6
v 10 19.1 -2.6
v 10 19.2 -2.6
v 10.2 19.2 -2.6
v 10.2 19.1 -2.6
v 10.2 19.1 -2.5
v 10.2 19.2 -2.5
v 10.3 19.2 -2.5
v 10.3 19.1 -2.5
v 10.3 19.1 -2.6
v 10.3 19.2 -2.6
v 10.2 19.2 -2.6
v 10.2 19.2 -2.5
v 10.3 19.2 -2.5
v 10.3 19.2 -2.6
v 10.2 19.1 -2.5
v 10.2 19.1 -2.6
v 10.3 19.1 -2.6
v 10.3 19.1 -2.5
v 10.2 19.2 -2.5
v 10.2 19.1 -2.5
v 10.3 19.1 -2.5
v 10.3 19.2 -2.5
v 10.3 19.2 -2.6
v 10.3 19.1 -2.6
v 10.2 19.1 -2.6
v 10.2 19.2 -2.6
v 7.5 19.1 -2.6
v 7.5 19 -2.6
v 7.5 19 -2.5
v 7.5 19.1 -2.5
v 7.6 19.1 -2.5
v 7.6 19 -2.5
v 7.6 19 -2.6
v 7.6 19.1 -2.6
v 7.5 19.1 -2.6
v 7.5 19.1 -2.5
v 7.6 19.1 -2.5
v 7.6 19.1 -2.6
v 7.5 19 -2.5
v 7.5 19 -2.6
v 7.6 19 -2.6
v 7.6 19 -2.5
v 7.5 19.1 -2.5
v 7.5 19 -2.5
v 7.6 19 -2.5
v 7.6 19.1 -2.5
v 7.6 19.1 -2.6
v 7.6 19 -2.6
v 7.5 19 -2.6
v 7.5 19.1 -2.6
v 7.7 19.1 -2.6
v 7.7 19 -2.6
v 7.7 19 -2.5
v 7.7 19.1 -2.5
v 7.7 19 -2.5
v 7.7 19 -2.6
v 7.8 19 -2.6
v 7.8 19 -2.5
v 7.7 19.1 -2.5
v 7.7 19 -2.5
v 7.8 19 -2.5
v 7.8 19.1 -2.5
v 7.8 19.1 -2.6
v 7.8 19 -2.6
v 7.7 19 -2.6
v 7.7 19.1 -2.6
v 7.8 19.1 -2.5
v 7.8 19 -2.5
v 7.9 19 -2.5
v 7.9 19.1 -2.5
v 7.9 19.1 -2.6
v 7.9 19 -2.6
v 7.8 19 -2.6
v 7.8 19.1 -2.6
v 7.9 19.1 -2.5
v 7.9 19 -2.5
v 8 19 -2.5
v 8 19.1 -2.5
v 8 19.1 -2.6
v 8 19 -2.6
v 7.9 19 -2.6
v 7.9 19.1 -2.6
v 8 19.1 -2.5
v 8 19 -2.5
v 8.1 19 -2.5
v 8.1 19.1 -2.5
v 8.1 19.1 -2.6
v 8.1 19 -2.6
v 8 19 -2.6
v 8 19.1 -2.6
v 8.1 19.1 -2.5
v 8.1 19 -2.5
v 8.2 19 -2.5
v 8.2 19.1 -2.5
v 8.2 19.1 -2.6
v 8.2 19 -2.6
v 8.1 19 -2.6
v 8.1 19.1 -2.6
v 8.2 19.1 -2.5
v 8.2 19 -2.5
v 8.3 19 -2.5
v 8.3 19.1 -2.5
v 8.3 19.1 -2.6
v 8.3 19 -2.6
v 8.2 19 -2.6
v 8.2 19.1 -2.6
v 8.3 19.1 -2.5
v 8.3 19 -2.5
v 8.4 19 -2.5
v 8.4 19.1 -2.5
v 8.4 19.1 -2.6
v 8.4 19 -2.6
v 8.3 19 -2.6
v 8.3 19.1 -2.6
v 8.4 19.1 -2.5
v 8.4 19 -2.5
v 8.5 19 -2.5
v 8.5 19.1 -2.5
v 8.5 19.1 -2.6
v 8.5 19 -2.6
v 8.4 19 -2.6
v 8.4 19.1 -2.6
v 8.5 19.1 -2.5
v 8.5 19 -2.5
v 8.6 19 -2.5
v 8.6 19.1 -2.5
v 8.6 19.1 -2.6
v 8.6 19 -2.6
v 8.5 19 -2.6
v 8.5 19.1 -2.6
v 8.6 19.1 -2.5
v 8.6 19 -2.5
v 8.7 19 -2.5
v 8.7 19.1 -2.5
v 8.7 19.1 -2.6
v 8.7 19 -2.6
v 8.6 19 -2.6
v 8.6 19.1 -2.6
v 8.7 19.1 -2.5
v 8.7 19 -2.5
v 8.8 19 -2.5
v 8.8 19.1 -2.5
v 8.8 19.1 -2.6
v 8.8 19 -2.6
v 8.7 19 -2.6
v 8.7 19.1 -2.6
v 8.8 19.1 -2.5
v 8.8 19 -2.5
v 8.9 19 -2.5
v 8.9 19.1 -2.5
v 8.9 19.1 -2.6
v 8.9 19 -2.6
v 8.8 19 -2.6
v 8.8 19.1 -2.6
v 8.9 19.1 -2.5
v 8.9 19 -2.5
v 9 19 -2.5
v 9 19.1 -2.5
v 9 19.1 -2.6
v 9 19 -2.6
v 8.9 19 -2.6
v 8.9 19.1 -2.6
v 9 19.1 -2.5
v 9 19 -2.5
v 9.1 19 -2.5
v 9.1 19.1 -2.5
v 9.1 19.1 -2.6
v 9.1 19 -2.6
v 9 19 -2.6
v 9 19.1 -2.6
v 9.1 19.1 -2.5
v 9.1 19 -2.5
v 9.2 19 -2.5
v 9.2 19.1 -2.5
v 9.2 19.1 -2.6
v 9.2 19 -2.6
v 9.1 19 -2.6
v 9.1 19.1 -2.6
v 9.2 19.1 -2.5
v 9.2 19 -2.5
v 9.3 19 -2.5
v 9.3 19.1 -2.5
v 9.3 19.1 -2.6
v 9.3 19 -2.6
v 9.2 19 -2.6
v 9.2 19.1 -2.6
v 9.3 19.1 -2.5
v 9.3 19 -2.5
v 9.4 19 -2.5
v 9.4 19.1 -2.5
v 9.4 19.1 -2.6
v 9.4 19 -2.6
v 9.3 19 -2.6
v 9.3 19.1 -2.6
v 9.4 19.1 -2.5
v 9.4 19 -2.5
v 9.5 19 -2.5
v 9.5 19.1 -2.5
v 9.5 19.1 -2.6
v 9.5 19 -2.6
v 9.4 19 -2.6
v 9.4 19.1 -2.6
v 9.5 19.1 -2.5
v 9.5 19 -2.5
v 9.6 19 -2.5
v 9.6 19.1 -2.5
v 9.6 19.1 -2.6
v 9.6 19 -2.6
v 9.5 19 -2.6
v 9.5 19.1 -2.6
v 9.6 19.1 -2.5
v 9.6 19 -2.5
v 9.7 19 -2.5
v 9.7 19.1 -2.5
v 9.7 19.1 -2.6
v 9.7 19 -2.6
v 9.6 19 -2.6
v 9.6 19.1 -2.6
v 9.7 19.1 -2.5
v 9.7 19 -2.5
v 9.8 19 -2.5
v 9.8 19.1 -2.5
v 9.8 19.1 -2.6
v 9.8 19 -2.6
v 9.7 19 -2.6
v 9.7 19.1 -2.6
v 9.8 19.1 -2.5
v 9.8 19 -2.5
v 9.9 19 -2.5
v 9.9 19.1 -2.5
v 9.9 19.1 -2.6
v 9.9 19 -2.6
v 9.8 19 -2.6
v 9.8 19.1 -2.6
v 9.9 19.1 -2.5
v 9.9 19 -2.5
v 10 19 -2.5
v 10 19.1 -2.5
v 10 19.1 -2.6
v 10 19 -2.6
v 9.9 19 -2.6
v 9.9 19.1 -2.6
v 10 19.1 -2.5
v 10 19 -2.5
v 10.1 19 -2.5
v 10.1 19.1 -2.5
v 10.1 19.1 -2.6
v 10.1 19 -2.6
v 10 19 -2.6
v 10 19.1 -2.6
v 10.2 19.1 -2.5
v 10.2 19 -2.5
v 10.2 19 -2.6
v 10.2 19.1 -2.6
v 10.1 19.1 -2.6
v 10.1 19.1 -2.5
v 10.2 19.1 -2.5
v 10.2 19.1 -2.6
v 10.1 19.1 -2.5
v 10.1 19 -2.5
v 10.2 19 -2.5
v 10.2 19.1 -2.5
v 10.2 19.1 -2.6
v 10.2 19 -2.6
v 10.1 19 -2.6
v 10.1 19.1 -2.6
v 10.3 19.1 -2.6
v 10.3 19 -2.6
v 10.3 19 -2.5
v 10.3 19.1 -2.5
v 10.4 19.1 -2.5
v 10.4 19 -2.5
v 10.4 19 -2.6
v 10.4 19.1 -2.6
v 10.3 19.1 -2.6
v 10.3 19.1 -2.5
v 10.4 19.1 -2.5
v 10.4 19.1 -2.6
v 10.3 19 -2.5
v 10.3 19 -2.6
v 10.4 19 -2.6
v 10.4 19 -2.5
v 10.3 19.1 -2.5
v 10.3 19 -2.5
v 10.4 19 -2.5
v 10.4 19.1 -2.5
v 10.4 19.1 -2.6
v 10.4 19 -2.6
v 10.3 19 -2.6
v 10.3 19.1 -2.6
v 7.6 19 -2.6
v 7.6 18.9 -2.6
v 7.6 18.9 -2.5
v 7.6 19 -2.5
v 7.7 19 -2.5
v 7.7 18.9 -2.5
v 7.7 18.9 -2.6
v 7.7 19 -2.6
v 7.6 19 -2.6
v 7.6 19 -2.5
v 7.7 19 -2.5
v 7.7 19 -2.6
v 7.6 18.9 -2.5
v 7.6 18.9 -2.6
v 7.7 18.9 -2.6
v 7.7 18.9 -2.5
v 7.6 19 -2.5
v 7.6 18.9 -2.5
v 7.7 18.9 -2.5
v 7.7 19 -2.5
v 7.7 19 -2.6
v 7.7 18.9 -2.6
v 7.6 18.9 -2.6
v 7.6 19 -2.6
v 7.8 19 -2.6
v 7.8 18.9 -2.6
v 7.8 18.9 -2.5
v 7.8 19 -2.5
v 7.8 18.9 -2.5
v 7.8 18.9 -2.6
v 7.9 18.9 -2.6
v 7.9 18.9 -2.5
v 7.8 19 -2.5
v 7.8 18.9 -2.5
v 7.9 18.9 -2.5
v 7.9 19 -2.5
v 7.9 19 -2.6
v 7.9 18.9 -2.6
v 7.8 18.9 -2.6
v 7.8 19 -2.6
v 7.9 19 -2.5
v 7.9 18.9 -2.5
v 8 18.9 -2.5
v 8 19 -2.5
v 8 19 -2.6
v 8 18.9 -2.6
v 7.9 18.9 -2.6
v 7.9 19 -2.6
v 8 19 -2.5
v 8 18.9 -2.5
v 8.1 18.9 -2.5
v 8.1 19 -2.5
v 8.1 19 -2.6
v 8.1 18.9 -2.6
v 8 18.9 -2.6
v 8 19 -2.6
v 8.1 19 -2.5
v 8.1 18.9 -2.5
v 8.2 18.9 -2.5
v 8.2 19 -2.5
v 8.2 19 -2.6
v 8.2 18.9 -2.6
v 8.1 18.9 -2.6
v 8.1 19 -2.6
v 8.2 19 -2.5
v 8.2 18.9 -2.5
v 8.3 18.9 -2.5
v 8.3 19 -2.5
v 8.3 19 -2.6
v 8.3 18.9 -2.6
v 8.2 18.9 -2.6
v 8.2 19 -2.6
v 8.3 19 -2.5
v 8.3 18.9 -2.5
v 8.4 18.9 -2.5
v 8.4 19 -2.5
v 8.4 19 -2.6
v 8.4 18.9 -2.6
v 8.3 18.9 -2.6
v 8.3 19 -2.6
v 8.4 19 -2.5
v 8.4 18.9 -2.5
v 8.5 18.9 -2.5
v 8.5 19 -2.5
v 8.5 19 -2.6
v 8.5 18.9 -2.6
v 8.4 18.9 -2.6
v 8.4 19 -2.6
v 8.5 19 -2.5
v 8.5 18.9 -2.5
v 8.6 18.9 -2.5
v 8.6 19 -2.5
v 8.6 19 -2.6
v 8.6 18.9 -2.6
v 8.5 18.9 -2.6
v 8.5 19 -2.6
v 8.6 19 -2.5
v 8.6 18.9 -2.5
v 8.7 18.9 -2.5
v 8.7 19 -2.5
v 8.7 19 -2.6
v 8.7 18.9 -2.6
v 8.6 18.9 -2.6
v 8.6 19 -2.6
v 8.7 19 -2.5
v 8.7 18.9 -2.5
v 8.8 18.9 -2.5
v 8.8 19 -2.5
v 8.8 19 -2.6
v 8.8 18.9 -2.6
v 8.7 18.9 -2.6
v 8.7 19 -2.6
v 8.8 19 -2.5
v 8.8 18.9 -2.5
v 8.9 18.9 -2.5
v 8.9 19 -2.5
v 8.9 19 -2.6
v 8.9 18.9 -2.6
v 8.8 18.9 -2.6
v 8.8 19 -2.6
v 8.9 19 -2.5
v 8.9 18.9 -2.5
v 9 18.9 -2.5
v 9 19 -2.5
v 9 19 -2.6
v 9 18.9 -2.6
v 8.9 18.9 -2.6
v 8.9 19 -2.6
v 9 19 -2.5
v 9 18.9 -2.5
v 9.1 18.9 -2.5
v 9.1 19 -2.5
v 9.1 19 -2.6
v 9.1 18.9 -2.6
v 9 18.9 -2.6
v 9 19 -2.6
v 9.1 19 -2.5
v 9.1 18.9 -2.5
v 9.2 18.9 -2.5
v 9.2 19 -2.5
v 9.2 19 -2.6
v 9.2 18.9 -2.6
v 9.1 18.9 -2.6
v 9.1 19 -2.6
v 9.2 19 -2.5
v 9.2 18.9 -2.5
v 9.3 18.9 -2.5
v 9.3 19 -2.5
v 9.3 19 -2.6
v 9.3 18.9 -2.6
v 9.2 18.9 -2.6
v 9.2 19 -2.6
v 9.3 19 -2.5
v 9.3 18.9 -2.5
v 9.4 18.9 -2.5
v 9.4 19 -2.5
v 9.4 19 -2.6
v 9.4 18.9 -2.6
v 9.3 18.9 -2.6
v 9.3 19 -2.6
v 9.4 19 -2.5
v 9.4 18.9 -2.5
v 9.5 18.9 -2.5
v 9.5 19 -2.5
v 9.5 19 -2.6
v 9.5 18.9 -2.6
v 9.4 18.9 -2.6
v 9.4 19 -2.6
v 9.5 19 -2.5
v 9.5 18.9 -2.5
v 9.6 18.9 -2.5
v 9.6 19 -2.5
v 9.6 19 -2.6
v 9.6 18.9 -2.6
v 9.5 18.9 -2.6
v 9.5 19 -2.6
v 9.6 19 -2.5
v 9.6 18.9 -2.5
v 9.7 18.9 -2.5
v 9.7 19 -2.5
v 9.7 19 -2.6
v 9.7 18.9 -2.6
v 9.6 18.9 -2.6
v 9.6 19 -2.6
v 9.7 19 -2.5
v 9.7 18.9 -2.5
v 9.8 18.9 -2.5
v 9.8 19 -2.5
v 9.8 19 -2.6
v 9.8 18.9 -2.6
v 9.7 18.9 -2.6
v 9.7 19 -2.6
v 9.8 19 -2.5
v 9.8 18.9 -2.5
v 9.9 18.9 -2.5
v 9.9 19 -2.5
v 9.9 19 -2.6
v 9.9 18.9 -2.6
v 9.8 18.9 -2.6
v 9.8 19 -2.6
v 9.9 19 -2.5
v 9.9 18.9 -2.5
v 10 18.9 -2.5
v 10 19 -2.5
v 10 19 -2.6
v 10 18.9 -2.6
v 9.9 18.9 -2.6
v 9.9 19 -2.6
v 10 19 -2.5
v 10 18.9 -2.5
v 10.1 18.9 -2.5
v 10.1 19 -2.5
v 10.1 19 -2.6
v 10.1 18.9 -2.6
v 10 18.9 -2.6
v 10 19 -2.6
v 10.1 19 -2.5
v 10.1 18.9 -2.5
v 10.2 18.9 -2.5
v 10.2 19 -2.5
v 10.2 19 -2.6
v 10.2 18.9 -2.6
v 10.1 18.9 -2.6
v 10.1 19 -2.6
v 10.3 19 -2.5
v 10.3 18.9 -2.5
v 10.3 18.9 -2.6
v 10.3 19 -2.6
v 10.2 19 -2.6
v 10.2 19 -2.5
v 10.3 19 -2.5
v 10.3 19 -2.6
v 10.2 19 -2.5
v 10.2 18.9 -2.5
v 10.3 18.9 -2.5
v 10.3 19 -2.5
v 10.3 19 -2.6
v 10.3 18.9 -2.6
v 10.2 18.9 -2.6
v 10.2 19 -2.6
v 10.4 19 -2.6
v 10.4 18.9 -2.6
v 10.4 18.9 -2.5
v 10.4 19 -2.5
v 10.5 19 -2.5
v 10.5 18.9 -2.5
v 10.5 18.9 -2.6
v 10.5 19 -2.6
v 10.4 19 -2.6
v 10.4 19 -2.5
v 10.5 19 -2.5
v 10.5 19 -2.6
v 10.4 18.9 -2.5
v 10.4 18.9 -2.6
v 10.5 18.9 -2.6
v 10.5 18.9 -2.5
v 10.4 19 -2.5
v 10.4 18.9 -2.5
v 10.5 18.9 -2.5
v 10.5 19 -2.5
v 10.5 19 -2.6
v 10.5 18.9 -2.6
v 10.4 18.9 -2.6
v 10.4 19 -2.6
v 7.7 18.9 -2.6
v 7.7 18.8 -2.6
v 7.7 18.8 -2.5
v 7.7 18.9 -2.5
v 7.8 18.9 -2.5
v 7.8 18.8 -2.5
v 7.8 18.8 -2.6
v 7.8 18.9 -2.6
v 7.7 18.9 -2.6
v 7.7 18.9 -2.5
v 7.8 18.9 -2.5
v 7.8 18.9 -2.6
v 7.7 18.8 -2.5
v 7.7 18.8 -2.6
v 7.8 18.8 -2.6
v 7.8 18.8 -2.5
v 7.7 18.9 -2.5
v 7.7 18.8 -2.5
v 7.8 18.8 -2.5
v 7.8 18.9 -2.5
v 7.8 18.9 -2.6
v 7.8 18.8 -2.6
v 7.7 18.8 -2.6
v 7.7 18.9 -2.6
v 7.9 18.9 -2.6
v 7.9 18.8 -2.6
v 7.9 18.8 -2.5
v 7.9 18.9 -2.5
v 7.9 18.8 -2.5
v 7.9 18.8 -2.6
v 8 18.8 -2.6
v 8 18.8 -2.5
v 7.9 18.9 -2.5
v 7.9 18.8 -2.5
v 8 18.8 -2.5
v 8 18.9 -2.5
v 8 18.9 -2.6
v 8 18.8 -2.6
v 7.9 18.8 -2.6
v 7.9 18.9 -2.6
v 8 18.9 -2.5
v 8 18.8 -2.5
v 8.1 18.8 -2.5
v 8.1 18.9 -2.5
v 8.1 18.9 -2.6
v 8.1 18.8 -2.6
v 8 18.8 -2.6
v 8 18.9 -2.6
v 8.1 18.9 -2.5
v 8.1 18.8 -2.5
v 8.2 18.8 -2.5
v 8.2 18.9 -2.5
v 8.2 18.9 -2.6
v 8.2 18.8 -2.6
v 8.1 18.8 -2.6
v 8.1 18.9 -2.6
v 8.2 18.9 -2.5
v 8.2 18.8 -2.5
v 8.3 18.8 -2.5
v 8.3 18.9 -2.5
v 8.3 18.9 -2.6
v 8.3 18.8 -2.6
v 8.2 18.8 -2.6
v 8.2 18.9 -2.6
v 8.3 18.9 -2.5
v 8.3 18.8 -2.5
v 8.4 18.8 -2.5
v 8.4 18.9 -2.5
v 8.4 18.9 -2.6
v 8.4 18.8 -2.6
v 8.3 18.8 -2.6
v 8.3 18.9 -2.6
v 8.4 18.9 -2.5
v 8.4 18.8 -2.5
v 8.5 18.8 -2.5
v 8.5 18.9 -2.5
v 8.5 18.9 -2.6
v 8.5 18.8 -2.6
v 8.4 18.8 -2.6
v 8.4 18.9 -2.6
v 8.5 18.9 -2.5
v 8.5 18.8 -2.5
v 8.6 18.8 -2.5
v 8.6 18.9 -2.5
v 8.6 18.9 -2.6
v 8.6 18.8 -2.6
v 8.5 18.8 -2.6
v 8.5 18.9 -2.6
v 8.6 18.9 -2.5
v 8.6 18.8 -2.5
v 8.7 18.8 -2.5
v 8.7 18.9 -2.5
v 8.7 18.9 -2.6
v 8.7 18.8 -2.6
v 8.6 18.8 -2.6
v 8.6 18.9 -2.6
v 8.7 18.9 -2.5
v 8.7 18.8 -2.5
v 8.8 18.8 -2.5
v 8.8 18.9 -2.5
v 8.8 18.9 -2.6
v 8.8 18.8 -2.6
v 8.7 18.8 -2.6
v 8.7 18.9 -2.6
v 8.8 18.9 -2.5
v 8.8 18.8 -2.5
v 8.9 18.8 -2.5
v 8.9 18.9 -2.5
v 8.9 18.9 -2.6
v 8.9 18.8 -2.6
v 8.8 18.8 -2.6
v 8.8 18.9 -2.6
v 8.9 18.9 -2.5
v 8.9 18.8 -2.5
v 9 18.8 -2.5
v 9 18.9 -2.5
v 9 18.9 -2.6
v 9 18.8 -2.6
v 8.9 18.8 -2.6
v 8.9 18.9 -2.6
v 9 18.9 -2.5
v 9 18.8 -2.5
v 9.1 18.8 -2.5
v 9.1 18.9 -2.5
v 9.1 18.9 -2.6
v 9.1 18.8 -2.6
v 9 18.8 -2.6
v 9 18.9 -2.6
v 9.1 18.9 -2.5
v 9.1 18.8 -2.5
v 9.2 18.8 -2.5
v 9.2 18.9 -2.5
v 9.2 18.9 -2.6
v 9.2 18.8 -2.6
v 9.1 18.8 -2.6
v 9.1 18.9 -2.6
v 9.2 18.9 -2.5
v 9.2 18.8 -2.5
v 9.3 18.8 -2.5
v 9.3 18.9 -2.5
v 9.3 18.9 -2.6
v 9.3 18.8 -2.6
v 9.2 18.8 -2.6
v 9.2 18.9 -2.6
v 9.3 18.9 -2.5
v 9.3 18.8 -2.5
v 9.4 18.8 -2.5
v 9.4 18.9 -2.5
v 9.4 18.9 -2.6
v 9.4 18.8 -2.6
v 9.3 18.8 -2.6
v 9.3 18.9 -2.6
v 9.4 18.9 -2.5
v 9.4 18.8 -2.5
v 9.5 18.8 -2.5
v 9.5 18.9 -2.5
v 9.5 18.9 -2.6
v 9.5 18.8 -2.6
v 9.4 18.8 -2.6
v 9.4 18.9 -2.6
v 9.5 18.9 -2.5
v 9.5 18.8 -2.5
v 9.6 18.8 -2.5
v 9.6 18.9 -2.5
v 9.6 18.9 -2.6
v 9.6 18.8 -2.6
v 9.5 18.8 -2.6
v 9.5 18.9 -2.6
v 9.6 18.9 -2.5
v 9.6 18.8 -2.5
v 9.7 18.8 -2.5
v 9.7 18.9 -2.5
v 9.7 18.9 -2.6
v 9.7 18.8 -2.6
v 9.6 18.8 -2.6
v 9.6 18.9 -2.6
v 9.7 18.9 -2.5
v 9.7 18.8 -2.5
v 9.8 18.8 -2.5
v 9.8 18.9 -2.5
v 9.8 18.9 -2.6
v 9.8 18.8 -2.6
v 9.7 18.8 -2.6
v 9.7 18.9 -2.6
v 9.8 18.9 -2.5
v 9.8 18.8 -2.5
v 9.9 18.8 -2.5
v 9.9 18.9 -2.5
v 9.9 18.9 -2.6
v 9.9 18.8 -2.6
v 9.8 18.8 -2.6
v 9.8 18.9 -2.6
v 9.9 18.9 -2.5
v 9.9 18.8 -2.5
v 10 18.8 -2.5
v 10 18.9 -2.5
v 10 18.9 -2.6
v 10 18.8 -2.6
v 9.9 18.8 -2.6
v 9.9 18.9 -2.6
v 10 18.9 -2.5
v 10 18.8 -2.5
v 10.1 18.8 -2.5
v 10.1 18.9 -2.5
v 10.1 18.9 -2.6
v 10.1 18.8 -2.6
v 10 18.8 -2.6
v 10 18.9 -2.6
v 10.1 18.9 -2.5
v 10.1 18.8 -2.5
v 10.2 18.8 -2.5
v 10.2 18.9 -2.5
v 10.2 18.9 -2.6
v 10.2 18.8 -2.6
v 10.1 18.8 -2.6
v 10.1 18.9 -2.6
v 10.2 18.9 -2.5
v 10.2 18.8 -2.5
v 10.3 18.8 -2.5
v 10.3 18.9 -2.5
v 10.3 18.9 -2.6
v 10.3 18.8 -2.6
v 10.2 18.8 -2.6
v 10.2 18.9 -2.6
v 10.4 18.9 -2.5
v 10.4 18.8 -2.5
v 10.4 18.8 -2.6
v 10.4 18.9 -2.6
v 10.3 18.9 -2.6
v 10.3 18.9 -2.5
v 10.4 18.9 -2.5
v 10.4 18.9 -2.6
v 10.3 18.9 -2.5
v 10.3 18.8 -2.5
v 10.4 18.8 -2.5
v 10.4 18.9 -2.5
v 10.4 18.9 -2.6
v 10.4 18.8 -2.6
v 10.3 18.8 -2.6
v 10.3 18.9 -2.6
v 10.5 18.9 -2.6
v 10.5 18.8 -2.6
v 10.5 18.8 -2.5
v 10.5 18.9 -2.5
v 10.6 18.9 -2.5
v 10.6 18.8 -2.5
v 10.6 18.8 -2.6
v 10.6 18.9 -2.6
v 10.5 18.9 -2.6
v 10.5 18.9 -2.5
v 10.6 18.9 -2.5
v 10.6 18.9 -2.6
v 10.5 18.9 -2.5
v 10.5 18.8 -2.5
v 10.6 18.8 -2.5
v 10.6 18.9 -2.5
v 10.6 18.9 -2.6
v 10.6 18.8 -2.6
v 10.5 18.8 -2.6
v 10.5 18.9 -2.6
v 7.8 18.8 -2.6
v 7.8 18.7 -2.6
v 7.8 18.7 -2.5
v 7.8 18.8 -2.5
v 7.9 18.8 -2.5
v 7.9 18.7 -2.5
v 7.9 18.7 -2.6
v 7.9 18.8 -2.6
v 7.8 18.8 -2.6
v 7.8 18.8 -2.5
v 7.9 18.8 -2.5
v 7.9 18.8 -2.6
v 7.8 18.7 -2.5
v 7.8 18.7 -2.6
v 7.9 18.7 -2.6
v 7.9 18.7 -2.5
v 7.8 18.8 -2.5
v 7.8 18.7 -2.5
v 7.9 18.7 -2.5
v 7.9 18.8 -2.5
v 7.9 18.8 -2.6
v 7.9 18.7 -2.6
v 7.8 18.7 -2.6
v 7.8 18.8 -2.6
v 8 18.8 -2.6
v 8 18.7 -2.6
v 8 18.7 -2.5
v 8 18.8 -2.5
v 8 18.7 -2.5
v 8 18.7 -2.6
v 8.1 18.7 -2.6
v 8.1 18.7 -2.5
v 8 18.8 -2.5
v 8 18.7 -2.5
v 8.1 18.7 -2.5
v 8.1 18.8 -2.5
v 8.1 18.8 -2.6
v 8.1 18.7 -2.6
v 8 18.7 -2.6
v 8 18.8 -2.6
v 8.1 18.8 -2.5
v 8.1 18.7 -2.5
v 8.2 18.7 -2.5
v 8.2 18.8 -2.5
v 8.2 18.8 -2.6
v 8.2 18.7 -2.6
v 8.1 18.7 -2.6
v 8.1 18.8 -2.6
v 8.2 18.8 -2.5
v 8.2 18.7 -2.5
v 8.3 18.7 -2.5
v 8.3 18.8 -2.5
v 8.3 18.8 -2.6
v 8.3 18.7 -2.6
v 8.2 18.7 -2.6
v 8.2 18.8 -2.6
v 8.3 18.8 -2.5
v 8.3 18.7 -2.5
v 8.4 18.7 -2.5
v 8.4 18.8 -2.5
v 8.4 18.8 -2.6
v 8.4 18.7 -2.6
v 8.3 18.7 -2.6
v 8.3 18.8 -2.6
v 8.4 18.8 -2.5
v 8.4 18.7 -2.5
v 8.5 18.7 -2.5
v 8.5 18.8 -2.5
v 8.5 18.8 -2.6
v 8.5 18.7 -2.6
v 8.4 18.7 -2.6
v 8.4 18.8 -2.6
v 8.5 18.8 -2.5
v 8.5 18.7 -2.5
v 8.6 18.7 -2.5
v 8.6 18.8 -2.5
v 8.6 18.8 -2.6
v 8.6 18.7 -2.6
v 8.5 18.7 -2.6
v 8.5 18.8 -2.6
v 8.6 18.8 -2.5
v 8.6 18.7 -2.5
v 8.7 18.7 -2.5
v 8.7 18.8 -2.5
v 8.7 18.8 -2.6
v 8.7 18.7 -2.6
v 8.6 18.7 -2.6
v 8.6 18.8 -2.6
v 8.7 18.8 -2.5
v 8.7 18.7 -2.5
v 8.8 18.7 -2.5
v 8.8 18.8 -2.5
v 8.8 18.8 -2.6
v 8.8 18.7 -2.6
v 8.7 18.7 -2.6
v 8.7 18.8 -2.6
v 8.8 18.8 -2.5
v 8.8 18.7 -2.5
v 8.9 18.7 -2.5
v 8.9 18.8 -2.5
v 8.9 18.8 -2.6
v 8.9 18.7 -2.6
v 8.8 18.7 -2.6
v 8.8 18.8 -2.6
v 8.9 18.8 -2.5
v 8.9 18.7 -2.5
v 9 18.7 -2.5
v 9 18.8 -2.5
v 9 18.8 -2.6
v 9 18.7 -2.6
v 8.9 18.7 -2.6
v 8.9 18.8 -2.6
v 9 18.8 -2.5
v 9 18.7 -2.5
v 9.1 18.7 -2.5
v 9.1 18.8 -2.5
v 9.1 18.8 -2.6
v 9.1 18.7 -2.6
v 9 18.7 -2.6
v 9 18.8 -2.6
v 9.1 18.8 -2.5
v 9.1 18.7 -2.5
v 9.2 18.7 -2.5
v 9.2 18.8 -2.5
v 9.2 18.8 -2.6
v 9.2 18.7 -2.6
v 9.1 18.7 -2.6
v 9.1 18.8 -2.6
v 9.2 18.8 -2.5
v 9.2 18.7 -2.5
v 9.3 18.7 -2.5
v 9.3 18.8 -2.5
v 9.3 18.8 -2.6
v 9.3 18.7 -2.6
v 9.2 18.7 -2.6
v 9.2 18.8 -2.6
v 9.3 18.8 -2.5
v 9.3 18.7 -2.5
v 9.4 18.7 -2.5
v 9.4 18.8 -2.5
v 9.4 18.8 -2.6
v 9.4 18.7 -2.6
v 9.3 18.7 -2.6
v 9.3 18.8 -2.6
v 9.4 18.8 -2.5
v 9.4 18.7 -2.5
v 9.5 18.7 -2.5
v 9.5 18.8 -2.5
v 9.5 18.8 -2.6
v 9.5 18.7 -2.6
v 9.4 18.7 -2.6
v 9.4 18.8 -2.6
v 9.5 18.8 -2.5
v 9.5 18.7 -2.5
v 9.6 18.7 -2.5
v 9.6 18.8 -2.5
v 9.6 18.8 -2.6
v 9.6 18.7 -2.6
v 9.5 18.7 -2.6
v 9.5 18.8 -2.6
v 9.6 18.8 -2.5
v 9.6 18.7 -2.5
v 9.7 18.7 -2.5
v 9.7 18.8 -2.5
v 9.7 18.8 -2.6
v 9.7 18.7 -2.6
v 9.6 18.7 -2.6
v 9.6 18.8 -2.6
v 9.7 18.8 -2.5
v 9.7 18.7 -2.5
v 9.8 18.7 -2.5
v 9.8 18.8 -2.5
v 9.8 18.8 -2.6
v 9.8 18.7 -2.6
v 9.7 18.7 -2.6
v 9.7 18.8 -2.6
v 9.8 18.8 -2.5
v 9.8 18.7 -2.5
v 9.9 18.7 -2.5
v 9.9 18.8 -2.5
v 9.9 18.8 -2.6
v 9.9 18.7 -2.6
v 9.8 18.7 -2.6
v 9.8 18.8 -2.6
v 9.9 18.8 -2.5
v 9.9 18.7 -2.5
v 10 18.7 -2.5
v 10 18.8 -2.5
v 10 18.8 -2.6
v 10 18.7 -2.6
v 9.9 18.7 -2.6
v 9.9 18.8 -2.6
v 10 18.8 -2.5
v 10 18.7 -2.5
v 10.1 18.7 -2.5
v 10.1 18.8 -2.5
v 10.1 18.8 -2.6
v 10.1 18.7 -2.6
v 10 18.7 -2.6
v 10 18.8 -2.6
v 10.1 18.8 -2.5
v 10.1 18.7 -2.5
v 10.2 18.7 -2.5
v 10.2 18.8 -2.5
v 10.2 18.8 -2.6
v 10.2 18.7 -2.6
v 10.1 18.7 -2.6
v 10.1 18.8 -2.6
v 10.2 18.8 -2.5
v 10.2 18.7 -2.5
v 10.3 18.7 -2.5
v 10.3 18.8 -2.5
v 10.3 18.8 -2.6
v 10.3 18.7 -2.6
v 10.2 18.7 -2.6
v 10.2 18.8 -2.6
v 10.3 18.8 -2.5
v 10.3 18.7 -2.5
v 10.4 18.7 -2.5
v 10.4 18.8 -2.5
v 10.4 18.8 -2.6
v 10.4 18.7 -2.6
v 10.3 18.7 -2.6
v 10.3 18.8 -2.6
v 10.4 18.8 -2.6
v 10.4 18.8 -2.5
v 10.5 18.8 -2.5
v 10.5 18.8 -2.6
v 10.4 18.8 -2.5
v 10.4 18.7 -2.5
v 10.5 18.7 -2.5
v 10.5 18.8 -2.5
v 10.5 18.8 -2.6
v 10.5 18.7 -2.6
v 10.4 18.7 -2.6
v 10.4 18.8 -2.6
v 10.5 18.8 -2.5
v 10.5 18.7 -2.5
v 10.6 18.7 -2.5
v 10.6 18.8 -2.5
v 10.6 18.8 -2.6
v 10.6 18.7 -2.6
v 10.5 18.7 -2.6
v 10.5 18.8 -2.6
v 10.7 18.8 -2.5
v 10.7 18.7 -2.5
v 10.7 18.7 -2.6
v 10.7 18.8 -2.6
v 10.6 18.8 -2.6
v 10.6 18.8 -2.5
v 10.7 18.8 -2.5
v 10.7 18.8 -2.6
v 10.6 18.8 -2.5
v 10.6 18.7 -2.5
v 10.7 18.7 -2.5
v 10.7 18.8 -2.5
v 10.7 18.8 -2.6
v 10.7 18.7 -2.6
v 10.6 18.7 -2.6
v 10.6 18.8 -2.6
v 7.9 18.7 -2.6
v 7.9 18.6 -2.6
v 7.9 18.6 -2.5
v 7.9 18.7 -2.5
v 8 18.7 -2.5
v 8 18.6 -2.5
v 8 18.6 -2.6
v 8 18.7 -2.6
v 7.9 18.7 -2.6
v 7.9 18.7 -2.5
v 8 18.7 -2.5
v 8 18.7 -2.6
v 7.9 18.6 -2.5
v 7.9 18.6 -2.6
v 8 18.6 -2.6
v 8 18.6 -2.5
v 7.9 18.7 -2.5
v 7.9 18.6 -2.5
v 8 18.6 -2.5
v 8 18.7 -2.5
v 8 18.7 -2.6
v 8 18.6 -2.6
v 7.9 18.6 -2.6
v 7.9 18.7 -2.6
v 8.1 18.7 -2.6
v 8.1 18.6 -2.6
v 8.1 18.6 -2.5
v 8.1 18.7 -2.5
v 8.1 18.6 -2.5
v 8.1 18.6 -2.6
v 8.2 18.6 -2.6
v 8.2 18.6 -2.5
v 8.1 18.7 -2.5
v 8.1 18.6 -2.5
v 8.2 18.6 -2.5
v 8.2 18.7 -2.5
v 8.2 18.7 -2.6
v 8.2 18.6 -2.6
v 8.1 18.6 -2.6
v 8.1 18.7 -2.6
v 8.2 18.7 -2.5
v 8.2 18.6 -2.5
v 8.3 18.6 -2.5
v 8.3 18.7 -2.5
v 8.3 18.7 -2.6
v 8.3 18.6 -2.6
v 8.2 18.6 -2.6
v 8.2 18.7 -2.6
v 8.3 18.7 -2.5
v 8.3 18.6 -2.5
v 8.4 18.6 -2.5
v 8.4 18.7 -2.5
v 8.4 18.7 -2.6
v 8.4 18.6 -2.6
v 8.3 18.6 -2.6
v 8.3 18.7 -2.6
v 8.4 18.7 -2.5
v 8.4 18.6 -2.5
v 8.5 18.6 -2.5
v 8.5 18.7 -2.5
v 8.5 18.7 -2.6
v 8.5 18.6 -2.6
v 8.4 18.6 -2.6
v 8.4 18.7 -2.6
v 8.5 18.7 -2.5
v 8.5 18.6 -2.5
v 8.6 18.6 -2.5
v 8.6 18.7 -2.5
v 8.6 18.7 -2.6
v 8.6 18.6 -2.6
v 8.5 18.6 -2.6
v 8.5 18.7 -2.6
v 8.6 18.7 -2.5
v 8.6 18.6 -2.5
v 8.7 18.6 -2.5
v 8.7 18.7 -2.5
v 8.7 18.7 -2.6
v 8.7 18.6 -2.6
v 8.6 18.6 -2.6
v 8.6 18.7 -2.6
v 8.7 18.7 -2.5
v 8.7 18.6 -2.5
v 8.8 18.6 -2.5
v 8.8 18.7 -2.5
v 8.8 18.7 -2.6
v 8.8 18.6 -2.6
v 8.7 18.6 -2.6
v 8.7 18.7 -2.6
v 8.8 18.7 -2.5
v 8.8 18.6 -2.5
v 8.9 18.6 -2.5
v 8.9 18.7 -2.5
v 8.9 18.7 -2.6
v 8.9 18.6 -2.6
v 8.8 18.6 -2.6
v 8.8 18.7 -2.6
v 8.9 18.7 -2.5
v 8.9 18.6 -2.5
v 9 18.6 -2.5
v 9 18.7 -2.5
v 9 18.7 -2.6
v 9 18.6 -2.6
v 8.9 18.6 -2.6
v 8.9 18.7 -2.6
v 9 18.7 -2.5
v 9 18.6 -2.5
v 9.1 18.6 -2.5
v 9.1 18.7 -2.5
v 9.1 18.7 -2.6
v 9.1 18.6 -2.6
v 9 18.6 -2.6
v 9 18.7 -2.6
v 9.1 18.7 -2.5
v 9.1 18.6 -2.5
v 9.2 18.6 -2.5
v 9.2 18.7 -2.5
v 9.2 18.7 -2.6
v 9.2 18.6 -2.6
v 9.1 18.6 -2.6
v 9.1 18.7 -2.6
v 9.2 18.7 -2.5
v 9.2 18.6 -2.5
v 9.3 18.6 -2.5
v 9.3 18.7 -2.5
v 9.3 18.7 -2.6
v 9.3 18.6 -2.6
v 9.2 18.6 -2.6
v 9.2 18.7 -2.6
v 9.3 18.7 -2.5
v 9.3 18.6 -2.5
v 9.4 18.6 -2.5
v 9.4 18.7 -2.5
v 9.4 18.7 -2.6
v 9.4 18.6 -2.6
v 9.3 18.6 -2.6
v 9.3 18.7 -2.6
v 9.4 18.7 -2.5
v 9.4 18.6 -2.5
v 9.5 18.6 -2.5
v 9.5 18.7 -2.5
v 9.5 18.7 -2.6
v 9.5 18.6 -2.6
v 9.4 18.6 -2.6
v 9.4 18.7 -2.6
v 9.5 18.7 -2.5
v 9.5 18.6 -2.5
v 9.6 18.6 -2.5
v 9.6 18.7 -2.5
v 9.6 18.7 -2.6
v 9.6 18.6 -2.6
v 9.5 18.6 -2.6
v 9.5 18.7 -2.6
v 9.6 18.7 -2.5
v 9.6 18.6 -2.5
v 9.7 18.6 -2.5
v 9.7 18.7 -2.5
v 9.7 18.7 -2.6
v 9.7 18.6 -2.6
v 9.6 18.6 -2.6
v 9.6 18.7 -2.6
v 9.7 18.7 -2.5
v 9.7 18.6 -2.5
v 9.8 18.6 -2.5
v 9.8 18.7 -2.5
v 9.8 18.7 -2.6
v 9.8 18.6 -2.6
v 9.7 18.6 -2.6
v 9.7 18.7 -2.6
v 9.8 18.7 -2.5
v 9.8 18.6 -2.5
v 9.9 18.6 -2.5
v 9.9 18.7 -2.5
v 9.9 18.7 -2.6
v 9.9 18.6 -2.6
v 9.8 18.6 -2.6
v 9.8 18.7 -2.6
v 9.9 18.7 -2.5
v 9.9 18.6 -2.5
v 10 18.6 -2.5
v 10 18.7 -2.5
v 10 18.7 -2.6
v 10 18.6 -2.6
v 9.9 18.6 -2.6
v 9.9 18.7 -2.6
v 10 18.7 -2.5
v 10 18.6 -2.5
v 10.1 18.6 -2.5
v 10.1 18.7 -2.5
v 10.1 18.7 -2.6
v 10.1 18.6 -2.6
v 10 18.6 -2.6
v 10 18.7 -2.6
v 10.1 18.7 -2.5
v 10.1 18.6 -2.5
v 10.2 18.6 -2.5
v 10.2 18.7 -2.5
v 10.2 18.7 -2.6
v 10.2 18.6 -2.6
v 10.1 18.6 -2.6
v 10.1 18.7 -2.6
v 10.2 18.7 -2.5
v 10.2 18.6 -2.5
v 10.3 18.6 -2.5
v 10.3 18.7 -2.5
v 10.3 18.7 -2.6
v 10.3 18.6 -2.6
v 10.2 18.6 -2.6
v 10.2 18.7 -2.6
v 10.3 18.7 -2.5
v 10.3 18.6 -2.5
v 10.4 18.6 -2.5
v 10.4 18.7 -2.5
v 10.4 18.7 -2.6
v 10.4 18.6 -2.6
v 10.3 18.6 -2.6
v 10.3 18.7 -2.6
v 10.4 18.7 -2.5
v 10.4 18.6 -2.5
v 10.5 18.6 -2.5
v 10.5 18.7 -2.5
v 10.5 18.7 -2.6
v 10.5 18.6 -2.6
v 10.4 18.6 -2.6
v 10.4 18.7 -2.6
v 10.5 18.6 -2.5
v 10.5 18.6 -2.6
v 10.6 18.6 -2.6
v 10.6 18.6 -2.5
v 10.5 18.7 -2.5
v 10.5 18.6 -2.5
v 10.6 18.6 -2.5
v 10.6 18.7 -2.5
v 10.6 18.7 -2.6
v 10.6 18.6 -2.6
v 10.5 18.6 -2.6
v 10.5 18.7 -2.6
v 10.7 18.7 -2.5
v 10.7 18.6 -2.5
v 10.7 18.6 -2.6
v 10.7 18.7 -2.6
v 10.6 18.7 -2.5
v 10.6 18.6 -2.5
v 10.7 18.6 -2.5
v 10.7 18.7 -2.5
v 10.7 18.7 -2.6
v 10.7 18.6 -2.6
v 10.6 18.6 -2.6
v 10.6 18.7 -2.6
v 8 18.6 -2.6
v 8 18.5 -2.6
v 8 18.5 -2.5
v 8 18.6 -2.5
v 8.1 18.6 -2.5
v 8.1 18.5 -2.5
v 8.1 18.5 -2.6
v 8.1 18.6 -2.6
v 8 18.6 -2.6
v 8 18.6 -2.5
v 8.1 18.6 -2.5
v 8.1 18.6 -2.6
v 8 18.5 -2.5
v 8 18.5 -2.6
v 8.1 18.5 -2.6
v 8.1 18.5 -2.5
v 8 18.6 -2.5
v 8 18.5 -2.5
v 8.1 18.5 -2.5
v 8.1 18.6 -2.5
v 8.1 18.6 -2.6
v 8.1 18.5 -2.6
v 8 18.5 -2.6
v 8 18.6 -2.6
v 8.2 18.6 -2.6
v 8.2 18.5 -2.6
v 8.2 18.5 -2.5
v 8.2 18.6 -2.5
v 8.2 18.5 -2.5
v 8.2 18.5 -2.6
v 8.3 18.5 -2.6
v 8.3 18.5 -2.5
v 8.2 18.6 -2.5
v 8.2 18.5 -2.5
v 8.3 18.5 -2.5
v 8.3 18.6 -2.5
v 8.3 18.6 -2.6
v 8.3 18.5 -2.6
v 8.2 18.5 -2.6
v 8.2 18.6 -2.6
v 8.3 18.6 -2.5
v 8.3 18.5 -2.5
v 8.4 18.5 -2.5
v 8.4 18.6 -2.5
v 8.4 18.6 -2.6
v 8.4 18.5 -2.6
v 8.3 18.5 -2.6
v 8.3 18.6 -2.6
v 8.4 18.6 -2.5
v 8.4 18.5 -2.5
v 8.5 18.5 -2.5
v 8.5 18.6 -2.5
v 8.5 18.6 -2.6
v 8.5 18.5 -2.6
v 8.4 18.5 -2.6
v 8.4 18.6 -2.6
v 8.5 18.6 -2.5
v 8.5 18.5 -2.5
v 8.6 18.5 -2.5
v 8.6 18.6 -2.5
v 8.6 18.6 -2.6
v 8.6 18.5 -2.6
v 8.5 18.5 -2.6
v 8.5 18.6 -2.6
v 8.6 18.6 -2.5
v 8.6 18.5 -2.5
v 8.7 18.5 -2.5
v 8.7 18.6 -2.5
v 8.7 18.6 -2.6
v 8.7 18.5 -2.6
v 8.6 18.5 -2.6
v 8.6 18.6 -2.6
v 8.7 18.6 -2.5
v 8.7 18.5 -2.5
v 8.8 18.5 -2.5
v 8.8 18.6 -2.5
v 8.8 18.6 -2.6
v 8.8 18.5 -2.6
v 8.7 18.5 -2.6
v 8.7 18.6 -2.6
v 8.8 18.6 -2.5
v 8.8 18.5 -2.5
v 8.9 18.5 -2.5
v 8.9 18.6 -2.5
v 8.9 18.6 -2.6
v 8.9 18.5 -2.6
v 8.8 18.5 -2.6
v 8.8 18.6 -2.6
v 8.9 18.6 -2.5
v 8.9 18.5 -2.5
v 9 18.5 -2.5
v 9 18.6 -2.5
v 9 18.6 -2.6
v 9 18.5 -2.6
v 8.9 18.5 -2.6
v 8.9 18.6 -2.6
v 9 18.6 -2.5
v 9 18.5 -2.5
v 9.1 18.5 -2.5
v 9.1 18.6 -2.5
v 9.1 18.6 -2.6
v 9.1 18.5 -2.6
v 9 18.5 -2.6
v 9 18.6 -2.6
v 9.1 18.6 -2.5
v 9.1 18.5 -2.5
v 9.2 18.5 -2.5
v 9.2 18.6 -2.5
v 9.2 18.6 -2.6
v 9.2 18.5 -2.6
v 9.1 18.5 -2.6
v 9.1 18.6 -2.6
v 9.2 18.6 -2.5
v 9.2 18.5 -2.5
v 9.3 18.5 -2.5
v 9.3 18.6 -2.5
v 9.3 18.6 -2.6
v 9.3 18.5 -2.6
v 9.2 18.5 -2.6
v 9.2 18.6 -2.6
v 9.3 18.6 -2.5
v 9.3 18.5 -2.5
v 9.4 18.5 -2.5
v 9.4 18.6 -2.5
v 9.4 18.6 -2.6
v 9.4 18.5 -2.6
v 9.3 18.5 -2.6
v 9.3 18.6 -2.6
v 9.4 18.6 -2.5
v 9.4 18.5 -2.5
v 9.5 18.5 -2.5
v 9.5 18.6 -2.5
v 9.5 18.6 -2.6
v 9.5 18.5 -2.6
v 9.4 18.5 -2.6
v 9.4 18.6 -2.6
v 9.5 18.6 -2.5
v 9.5 18.5 -2.5
v 9.6 18.5 -2.5
v 9.6 18.6 -2.5
v 9.6 18.6 -2.6
v 9.6 18.5 -2.6
v 9.5 18.5 -2.6
v 9.5 18.6 -2.6
v 9.6 18.6 -2.5
v 9.6 18.5 -2.5
v 9.7 18.5 -2.5
v 9.7 18.6 -2.5
v 9.7 18.6 -2.6
v 9.7 18.5 -2.6
v 9.6 18.5 -2.6
v 9.6 18.6 -2.6
v 9.7 18.6 -2.5
v 9.7 18.5 -2.5
v 9.8 18.5 -2.5
v 9.8 18.6 -2.5
v 9.8 18.6 -2.6
v 9.8 18.5 -2.6
v 9.7 18.5 -2.6
v 9.7 18.6 -2.6
v 9.8 18.6 -2.5
v 9.8 18.5 -2.5
v 9.9 18.5 -2.5
v 9.9 18.6 -2.5
v 9.9 18.6 -2.6
v 9.9 18.5 -2.6
v 9.8 18.5 -2.6
v 9.8 18.6 -2.6
v 9.9 18.6 -2.5
v 9.9 18.5 -2.5
v 10 18.5 -2.5
v 10 18.6 -2.5
v 10 18.6 -2.6
v 10 18.5 -2.6
v 9.9 18.5 -2.6
v 9.9 18.6 -2.6
v 10 18.6 -2.5
v 10 18.5 -2.5
v 10.1 18.5 -2.5
v 10.1 18.6 -2.5
v 10.1 18.6 -2.6
v 10.1 18.5 -2.6
v 10 18.5 -2.6
v 10 18.6 -2.6
v 10.1 18.6 -2.5
v 10.1 18.5 -2.5
v 10.2 18.5 -2.5
v 10.2 18.6 -2.5
v 10.2 18.6 -2.6
v 10.2 18.5 -2.6
v 10.1 18.5 -2.6
v 10.1 18.6 -2.6
v 10.2 18.6 -2.5
v 10.2 18.5 -2.5
v 10.3 18.5 -2.5
v 10.3 18.6 -2.5
v 10.3 18.6 -2.6
v 10.3 18.5 -2.6
v 10.2 18.5 -2.6
v 10.2 18.6 -2.6
v 10.3 18.6 -2.5
v 10.3 18.5 -2.5
v 10.4 18.5 -2.5
v 10.4 18.6 -2.5
v 10.4 18.6 -2.6
v 10.4 18.5 -2.6
v 10.3 18.5 -2.6
v 10.3 18.6 -2.6
v 10.5 18.6 -2.5
v 10.5 18.5 -2.5
v 10.5 18.5 -2.6
v 10.5 18.6 -2.6
v 10.4 18.6 -2.5
v 10.4 18.5 -2.5
v 10.5 18.5 -2.5
v 10.5 18.6 -2.5
v 10.5 18.6 -2.6
v 10.5 18.5 -2.6
v 10.4 18.5 -2.6
v 10.4 18.6 -2.6
v 10.6 18.6 -2.6
v 10.6 18.5 -2.6
v 10.6 18.5 -2.5
v 10.6 18.6 -2.5
v 10.7 18.6 -2.5
v 10.7 18.5 -2.5
v 10.7 18.5 -2.6
v 10.7 18.6 -2.6
v 10.6 18.6 -2.5
v 10.6 18.5 -2.5
v 10.7 18.5 -2.5
v 10.7 18.6 -2.5
v 10.7 18.6 -2.6
v 10.7 18.5 -2.6
v 10.6 18.5 -2.6
v 10.6 18.6 -2.6
v 8.1 18.5 -2.6
v 8.1 18.4 -2.6
v 8.1 18.4 -2.5
v 8.1 18.5 -2.5
v 8.2 18.5 -2.5
v 8.2 18.4 -2.5
v 8.2 18.4 -2.6
v 8.2 18.5 -2.6
v 8.1 18.5 -2.6
v 8.1 18.5 -2.5
v 8.2 18.5 -2.5
v 8.2 18.5 -2.6
v 8.1 18.4 -2.5
v 8.1 18.4 -2.6
v 8.2 18.4 -2.6
v 8.2 18.4 -2.5
v 8.1 18.5 -2.5
v 8.1 18.4 -2.5
v 8.2 18.4 -2.5
v 8.2 18.5 -2.5
v 8.2 18.5 -2.6
v 8.2 18.4 -2.6
v 8.1 18.4 -2.6
v 8.1 18.5 -2.6
v 8.3 18.5 -2.6
v 8.3 18.4 -2.6
v 8.3 18.4 -2.5
v 8.3 18.5 -2.5
v 8.3 18.4 -2.5
v 8.3 18.4 -2.6
v 8.4 18.4 -2.6
v 8.4 18.4 -2.5
v 8.3 18.5 -2.5
v 8.3 18.4 -2.5
v 8.4 18.4 -2.5
v 8.4 18.5 -2.5
v 8.4 18.5 -2.6
v 8.4 18.4 -2.6
v 8.3 18.4 -2.6
v 8.3 18.5 -2.6
v 8.4 18.5 -2.5
v 8.4 18.4 -2.5
v 8.5 18.4 -2.5
v 8.5 18.5 -2.5
v 8.5 18.5 -2.6
v 8.5 18.4 -2.6
v 8.4 18.4 -2.6
v 8.4 18.5 -2.6
v 8.5 18.5 -2.5
v 8.5 18.4 -2.5
v 8.6 18.4 -2.5
v 8.6 18.5 -2.5
v 8.6 18.5 -2.6
v 8.6 18.4 -2.6
v 8.5 18.4 -2.6
v 8.5 18.5 -2.6
v 8.6 18.5 -2.5
v 8.6 18.4 -2.5
v 8.7 18.4 -2.5
v 8.7 18.5 -2.5
v 8.7 18.5 -2.6
v 8.7 18.4 -2.6
v 8.6 18.4 -2.6
v 8.6 18.5 -2.6
v 8.7 18.5 -2.5
v 8.7 18.4 -2.5
v 8.8 18.4 -2.5
v 8.8 18.5 -2.5
v 8.8 18.5 -2.6
v 8.8 18.4 -2.6
v 8.7 18.4 -2.6
v 8.7 18.5 -2.6
v 8.8 18.5 -2.5
v 8.8 18.4 -2.5
v 8.9 18.4 -2.5
v 8.9 18.5 -2.5
v 8.9 18.5 -2.6
v 8.9 18.4 -2.6
v 8.8 18.4 -2.6
v 8.8 18.5 -2.6
v 8.9 18.5 -2.5
v 8.9 18.4 -2.5
v 9 18.4 -2.5
v 9 18.5 -2.5
v 9 18.5 -2.6
v 9 18.4 -2.6
v 8.9 18.4 -2.6
v 8.9 18.5 -2.6
v 9 18.5 -2.5
v 9 18.4 -2.5
v 9.1 18.4 -2.5
v 9.1 18.5 -2.5
v 9.1 18.5 -2.6
v 9.1 18.4 -2.6
v 9 18.4 -2.6
v 9 18.5 -2.6
v 9.1 18.5 -2.5
v 9.1 18.4 -2.5
v 9.2 18.4 -2.5
v 9.2 18.5 -2.5
v 9.2 18.5 -2.6
v 9.2 18.4 -2.6
v 9.1 18.4 -2.6
v 9.1 18.5 -2.6
v 9.2 18.5 -2.5
v 9.2 18.4 -2.5
v 9.3 18.4 -2.5
v 9.3 18.5 -2.5
v 9.3 18.5 -2.6
v 9.3 18.4 -2.6
v 9.2 18.4 -2.6
v 9.2 18.5 -2.6
v 9.3 18.5 -2.5
v 9.3 18.4 -2.5
v 9.4 18.4 -2.5
v 9.4 18.5 -2.5
v 9.4 18.5 -2.6
v 9.4 18.4 -2.6
v 9.3 18.4 -2.6
v 9.3 18.5 -2.6
v 9.4 18.5 -2.5
v 9.4 18.4 -2.5
v 9.5 18.4 -2.5
v 9.5 18.5 -2.5
v 9.5 18.5 -2.6
v 9.5 18.4 -2.6
v 9.4 18.4 -2.6
v 9.4 18.5 -2.6
v 9.5 18.5 -2.5
v 9.5 18.4 -2.5
v 9.6 18.4 -2.5
v 9.6 18.5 -2.5
v 9.6 18.5 -2.6
v 9.6 18.4 -2.6
v 9.5 18.4 -2.6
v 9.5 18.5 -2.6
v 9.6 18.5 -2.5
v 9.6 18.4 -2.5
v 9.7 18.4 -2.5
v 9.7 18.5 -2.5
v 9.7 18.5 -2.6
v 9.7 18.4 -2.6
v 9.6 18.4 -2.6
v 9.6 18.5 -2.6
v 9.7 18.5 -2.5
v 9.7 18.4 -2.5
v 9.8 18.4 -2.5
v 9.8 18.5 -2.5
v 9.8 18.5 -2.6
v 9.8 18.4 -2.6
v 9.7 18.4 -2.6
v 9.7 18.5 -2.6
v 9.8 18.5 -2.5
v 9.8 18.4 -2.5
v 9.9 18.4 -2.5
v 9.9 18.5 -2.5
v 9.9 18.5 -2.6
v 9.9 18.4 -2.6
v 9.8 18.4 -2.6
v 9.8 18.5 -2.6
v 9.9 18.5 -2.5
v 9.9 18.4 -2.5
v 10 18.4 -2.5
v 10 18.5 -2.5
v 10 18.5 -2.6
v 10 18.4 -2.6
v 9.9 18.4 -2.6
v 9.9 18.5 -2.6
v 10 18.5 -2.5
v 10 18.4 -2.5
v 10.1 18.4 -2.5
v 10.1 18.5 -2.5
v 10.1 18.5 -2.6
v 10.1 18.4 -2.6
v 10 18.4 -2.6
v 10 18.5 -2.6
v 10.1 18.5 -2.5
v 10.1 18.4 -2.5
v 10.2 18.4 -2.5
v 10.2 18.5 -2.5
v 10.2 18.5 -2.6
v 10.2 18.4 -2.6
v 10.1 18.4 -2.6
v 10.1 18.5 -2.6
v 10.2 18.5 -2.5
v 10.2 18.4 -2.5
v 10.3 18.4 -2.5
v 10.3 18.5 -2.5
v 10.3 18.5 -2.6
v 10.3 18.4 -2.6
v 10.2 18.4 -2.6
v 10.2 18.5 -2.6
v 10.3 18.5 -2.5
v 10.3 18.4 -2.5
v 10.4 18.4 -2.5
v 10.4 18.5 -2.5
v 10.4 18.5 -2.6
v 10.4 18.4 -2.6
v 10.3 18.4 -2.6
v 10.3 18.5 -2.6
v 10.4 18.5 -2.5
v 10.4 18.4 -2.5
v 10.5 18.4 -2.5
v 10.5 18.5 -2.5
v 10.5 18.5 -2.6
v 10.5 18.4 -2.6
v 10.4 18.4 -2.6
v 10.4 18.5 -2.6
v 10.5 18.5 -2.6
v 10.5 18.5 -2.5
v 10.6 18.5 -2.5
v 10.6 18.5 -2.6
v 10.5 18.5 -2.5
v 10.5 18.4 -2.5
v 10.6 18.4 -2.5
v 10.6 18.5 -2.5
v 10.6 18.5 -2.6
v 10.6 18.4 -2.6
v 10.5 18.4 -2.6
v 10.5 18.5 -2.6
v 10.7 18.5 -2.5
v 10.7 18.4 -2.5
v 10.7 18.4 -2.6
v 10.7 18.5 -2.6
v 10.6 18.5 -2.5
v 10.6 18.4 -2.5
v 10.7 18.4 -2.5
v 10.7 18.5 -2.5
v 10.7 18.5 -2.6
v 10.7 18.4 -2.6
v 10.6 18.4 -2.6
v 10.6 18.5 -2.6
v 8.2 18.4 -2.6
v 8.2 18.3 -2.6
v 8.2 18.3 -2.5
v 8.2 18.4 -2.5
v 8.3 18.4 -2.5
v 8.3 18.3 -2.5
v 8.3 18.3 -2.6
v 8.3 18.4 -2.6
v 8.2 18.4 -2.6
v 8.2 18.4 -2.5
v 8.3 18.4 -2.5
v 8.3 18.4 -2.6
v 8.2 18.3 -2.5
v 8.2 18.3 -2.6
v 8.3 18.3 -2.6
v 8.3 18.3 -2.5
v 8.2 18.4 -2.5
v 8.2 18.3 -2.5
v 8.3 18.3 -2.5
v 8.3 18.4 -2.5
v 8.3 18.4 -2.6
v 8.3 18.3 -2.6
v 8.2 18.3 -2.6
v 8.2 18.4 -2.6
v 8.4 18.4 -2.6
v 8.4 18.3 -2.6
v 8.4 18.3 -2.5
v 8.4 18.4 -2.5
v 8.4 18.4 -2.5
v 8.4 18.3 -2.5
v 8.5 18.3 -2.5
v 8.5 18.4 -2.5
v 8.5 18.4 -2.6
v 8.5 18.3 -2.6
v 8.4 18.3 -2.6
v 8.4 18.4 -2.6
v 8.5 18.3 -2.5
v 8.5 18.3 -2.6
v 8.6 18.3 -2.6
v 8.6 18.3 -2.5
v 8.5 18.4 -2.5
v 8.5 18.3 -2.5
v 8.6 18.3 -2.5
v 8.6 18.4 -2.5
v 8.6 18.4 -2.6
v 8.6 18.3 -2.6
v 8.5 18.3 -2.6
v 8.5 18.4 -2.6
v 8.6 18.4 -2.5
v 8.6 18.3 -2.5
v 8.7 18.3 -2.5
v 8.7 18.4 -2.5
v 8.7 18.4 -2.6
v 8.7 18.3 -2.6
v 8.6 18.3 -2.6
v 8.6 18.4 -2.6
v 8.7 18.4 -2.5
v 8.7 18.3 -2.5
v 8.8 18.3 -2.5
v 8.8 18.4 -2.5
v 8.8 18.4 -2.6
v 8.8 18.3 -2.6
v 8.7 18.3 -2.6
v 8.7 18.4 -2.6
v 8.8 18.4 -2.5
v 8.8 18.3 -2.5
v 8.9 18.3 -2.5
v 8.9 18.4 -2.5
v 8.9 18.4 -2.6
v 8.9 18.3 -2.6
v 8.8 18.3 -2.6
v 8.8 18.4 -2.6
v 8.9 18.4 -2.5
v 8.9 18.3 -2.5
v 9 18.3 -2.5
v 9 18.4 -2.5
v 9 18.4 -2.6
v 9 18.3 -2.6
v 8.9 18.3 -2.6
v 8.9 18.4 -2.6
v 9 18.4 -2.5
v 9 18.3 -2.5
v 9.1 18.3 -2.5
v 9.1 18.4 -2.5
v 9.1 18.4 -2.6
v 9.1 18.3 -2.6
v 9 18.3 -2.6
v 9 18.4 -2.6
v 9.1 18.4 -2.5
v 9.1 18.3 -2.5
v 9.2 18.3 -2.5
v 9.2 18.4 -2.5
v 9.2 18.4 -2.6
v 9.2 18.3 -2.6
v 9.1 18.3 -2.6
v 9.1 18.4 -2.6
v 9.2 18.4 -2.5
v 9.2 18.3 -2.5
v 9.3 18.3 -2.5
v 9.3 18.4 -2.5
v 9.3 18.4 -2.6
v 9.3 18.3 -2.6
v 9.2 18.3 -2.6
v 9.2 18.4 -2.6
v 9.3 18.4 -2.5
v 9.3 18.3 -2.5
v 9.4 18.3 -2.5
v 9.4 18.4 -2.5
v 9.4 18.4 -2.6
v 9.4 18.3 -2.6
v 9.3 18.3 -2.6
v 9.3 18.4 -2.6
v 9.4 18.4 -2.5
v 9.4 18.3 -2.5
v 9.5 18.3 -2.5
v 9.5 18.4 -2.5
v 9.5 18.4 -2.6
v 9.5 18.3 -2.6
v 9.4 18.3 -2.6
v 9.4 18.4 -2.6
v 9.5 18.4 -2.5
v 9.5 18.3 -2.5
v 9.6 18.3 -2.5
v 9.6 18.4 -2.5
v 9.6 18.4 -2.6
v 9.6 18.3 -2.6
v 9.5 18.3 -2.6
v 9.5 18.4 -2.6
v 9.6 18.4 -2.5
v 9.6 18.3 -2.5
v 9.7 18.3 -2.5
v 9.7 18.4 -2.5
v 9.7 18.4 -2.6
v 9.7 18.3 -2.6
v 9.6 18.3 -2.6
v 9.6 18.4 -2.6
v 9.7 18.4 -2.5
v 9.7 18.3 -2.5
v 9.8 18.3 -2.5
v 9.8 18.4 -2.5
v 9.8 18.4 -2.6
v 9.8 18.3 -2.6
v 9.7 18.3 -2.6
v 9.7 18.4 -2.6
v 9.8 18.4 -2.5
v 9.8 18.3 -2.5
v 9.9 18.3 -2.5
v 9.9 18.4 -2.5
v 9.9 18.4 -2.6
v 9.9 18.3 -2.6
v 9.8 18.3 -2.6
v 9.8 18.4 -2.6
v 9.9 18.4 -2.5
v 9.9 18.3 -2.5
v 10 18.3 -2.5
v 10 18.4 -2.5
v 10 18.4 -2.6
v 10 18.3 -2.6
v 9.9 18.3 -2.6
v 9.9 18.4 -2.6
v 10 18.4 -2.5
v 10 18.3 -2.5
v 10.1 18.3 -2.5
v 10.1 18.4 -2.5
v 10.1 18.4 -2.6
v 10.1 18.3 -2.6
v 10 18.3 -2.6
v 10 18.4 -2.6
v 10.1 18.4 -2.5
v 10.1 18.3 -2.5
v 10.2 18.3 -2.5
v 10.2 18.4 -2.5
v 10.2 18.4 -2.6
v 10.2 18.3 -2.6
v 10.1 18.3 -2.6
v 10.1 18.4 -2.6
v 10.2 18.4 -2.5
v 10.2 18.3 -2.5
v 10.3 18.3 -2.5
v 10.3 18.4 -2.5
v 10.3 18.4 -2.6
v 10.3 18.3 -2.6
v 10.2 18.3 -2.6
v 10.2 18.4 -2.6
v 10.3 18.4 -2.5
v 10.3 18.3 -2.5
v 10.4 18.3 -2.5
v 10.4 18.4 -2.5
v 10.4 18.4 -2.6
v 10.4 18.3 -2.6
v 10.3 18.3 -2.6
v 10.3 18.4 -2.6
v 10.4 18.3 -2.5
v 10.4 18.3 -2.6
v 10.5 18.3 -2.6
v 10.5 18.3 -2.5
v 10.4 18.4 -2.5
v 10.4 18.3 -2.5
v 10.5 18.3 -2.5
v 10.5 18.4 -2.5
v 10.5 18.4 -2.6
v 10.5 18.3 -2.6
v 10.4 18.3 -2.6
v 10.4 18.4 -2.6
v 10.5 18.4 -2.5
v 10.5 18.3 -2.5
v 10.6 18.3 -2.5
v 10.6 18.4 -2.5
v 10.6 18.4 -2.6
v 10.6 18.3 -2.6
v 10.5 18.3 -2.6
v 10.5 18.4 -2.6
v 10.7 18.4 -2.5
v 10.7 18.3 -2.5
v 10.7 18.3 -2.6
v 10.7 18.4 -2.6
v 10.6 18.3 -2.5
v 10.6 18.3 -2.6
v 10.7 18.3 -2.6
v 10.7 18.3 -2.5
v 10.6 18.4 -2.5
v 10.6 18.3 -2.5
v 10.7 18.3 -2.5
v 10.7 18.4 -2.5
v 10.7 18.4 -2.6
v 10.7 18.3 -2.6
v 10.6 18.3 -2.6
v 10.6 18.4 -2.6
v 8.3 18.3 -2.6
v 8.3 18.2 -2.6
v 8.3 18.2 -2.5
v 8.3 18.3 -2.5
v 8.3 18.3 -2.6
v 8.3 18.3 -2.5
v 8.4 18.3 -2.5
v 8.4 18.3 -2.6
v 8.3 18.2 -2.5
v 8.3 18.2 -2.6
v 8.4 18.2 -2.6
v 8.4 18.2 -2.5
v 8.3 18.3 -2.5
v 8.3 18.2 -2.5
v 8.4 18.2 -2.5
v 8.4 18.3 -2.5
v 8.4 18.3 -2.6
v 8.4 18.2 -2.6
v 8.3 18.2 -2.6
v 8.3 18.3 -2.6
v 8.5 18.3 -2.5
v 8.5 18.2 -2.5
v 8.5 18.2 -2.6
v 8.5 18.3 -2.6
v 8.4 18.3 -2.5
v 8.4 18.2 -2.5
v 8.5 18.2 -2.5
v 8.5 18.3 -2.5
v 8.5 18.3 -2.6
v 8.5 18.2 -2.6
v 8.4 18.2 -2.6
v 8.4 18.3 -2.6
v 8.6 18.3 -2.6
v 8.6 18.2 -2.6
v 8.6 18.2 -2.5
v 8.6 18.3 -2.5
v 8.6 18.3 -2.5
v 8.6 18.2 -2.5
v 8.7 18.2 -2.5
v 8.7 18.3 -2.5
v 8.7 18.3 -2.6
v 8.7 18.2 -2.6
v 8.6 18.2 -2.6
v 8.6 18.3 -2.6
v 8.7 18.3 -2.5
v 8.7 18.2 -2.5
v 8.8 18.2 -2.5
v 8.8 18.3 -2.5
v 8.8 18.3 -2.6
v 8.8 18.2 -2.6
v 8.7 18.2 -2.6
v 8.7 18.3 -2.6
v 8.8 18.2 -2.5
v 8.8 18.2 -2.6
v 8.9 18.2 -2.6
v 8.9 18.2 -2.5
v 8.8 18.3 -2.5
v 8.8 18.2 -2.5
v 8.9 18.2 -2.5
v 8.9 18.3 -2.5
v 8.9 18.3 -2.6
v 8.9 18.2 -2.6
v 8.8 18.2 -2.6
v 8.8 18.3 -2.6
v 8.9 18.3 -2.5
v 8.9 18.2 -2.5
v 9 18.2 -2.5
v 9 18.3 -2.5
v 9 18.3 -2.6
v 9 18.2 -2.6
v 8.9 18.2 -2.6
v 8.9 18.3 -2.6
v 9 18.3 -2.5
v 9 18.2 -2.5
v 9.1 18.2 -2.5
v 9.1 18.3 -2.5
v 9.1 18.3 -2.6
v 9.1 18.2 -2.6
v 9 18.2 -2.6
v 9 18.3 -2.6
v 9.1 18.3 -2.5
v 9.1 18.2 -2.5
v 9.2 18.2 -2.5
v 9.2 18.3 -2.5
v 9.2 18.3 -2.6
v 9.2 18.2 -2.6
v 9.1 18.2 -2.6
v 9.1 18.3 -2.6
v 9.2 18.3 -2.5
v 9.2 18.2 -2.5
v 9.3 18.2 -2.5
v 9.3 18.3 -2.5
v 9.3 18.3 -2.6
v 9.3 18.2 -2.6
v 9.2 18.2 -2.6
v 9.2 18.3 -2.6
v 9.3 18.3 -2.5
v 9.3 18.2 -2.5
v 9.4 18.2 -2.5
v 9.4 18.3 -2.5
v 9.4 18.3 -2.6
v 9.4 18.2 -2.6
v 9.3 18.2 -2.6
v 9.3 18.3 -2.6
v 9.4 18.3 -2.5
v 9.4 18.2 -2.5
v 9.5 18.2 -2.5
v 9.5 18.3 -2.5
v 9.5 18.3 -2.6
v 9.5 18.2 -2.6
v 9.4 18.2 -2.6
v 9.4 18.3 -2.6
v 9.5 18.3 -2.5
v 9.5 18.2 -2.5
v 9.6 18.2 -2.5
v 9.6 18.3 -2.5
v 9.6 18.3 -2.6
v 9.6 18.2 -2.6
v 9.5 18.2 -2.6
v 9.5 18.3 -2.6
v 9.6 18.3 -2.5
v 9.6 18.2 -2.5
v 9.7 18.2 -2.5
v 9.7 18.3 -2.5
v 9.7 18.3 -2.6
v 9.7 18.2 -2.6
v 9.6 18.2 -2.6
v 9.6 18.3 -2.6
v 9.7 18.3 -2.5
v 9.7 18.2 -2.5
v 9.8 18.2 -2.5
v 9.8 18.3 -2.5
v 9.8 18.3 -2.6
v 9.8 18.2 -2.6
v 9.7 18.2 -2.6
v 9.7 18.3 -2.6
v 9.8 18.3 -2.5
v 9.8 18.2 -2.5
v 9.9 18.2 -2.5
v 9.9 18.3 -2.5
v 9.9 18.3 -2.6
v 9.9 18.2 -2.6
v 9.8 18.2 -2.6
v 9.8 18.3 -2.6
v 9.9 18.3 -2.5
v 9.9 18.2 -2.5
v 10 18.2 -2.5
v 10 18.3 -2.5
v 10 18.3 -2.6
v 10 18.2 -2.6
v 9.9 18.2 -2.6
v 9.9 18.3 -2.6
v 10 18.3 -2.5
v 10 18.2 -2.5
v 10.1 18.2 -2.5
v 10.1 18.3 -2.5
v 10.1 18.3 -2.6
v 10.1 18.2 -2.6
v 10 18.2 -2.6
v 10 18.3 -2.6
v 10.1 18.3 -2.5
v 10.1 18.2 -2.5
v 10.2 18.2 -2.5
v 10.2 18.3 -2.5
v 10.2 18.3 -2.6
v 10.2 18.2 -2.6
v 10.1 18.2 -2.6
v 10.1 18.3 -2.6
v 10.2 18.2 -2.5
v 10.2 18.2 -2.6
v 10.3 18.2 -2.6
v 10.3 18.2 -2.5
v 10.2 18.3 -2.5
v 10.2 18.2 -2.5
v 10.3 18.2 -2.5
v 10.3 18.3 -2.5
v 10.3 18.3 -2.6
v 10.3 18.2 -2.6
v 10.2 18.2 -2.6
v 10.2 18.3 -2.6
v 10.4 18.3 -2.5
v 10.4 18.2 -2.5
v 10.4 18.2 -2.6
v 10.4 18.3 -2.6
v 10.3 18.3 -2.5
v 10.3 18.2 -2.5
v 10.4 18.2 -2.5
v 10.4 18.3 -2.5
v 10.4 18.3 -2.6
v 10.4 18.2 -2.6
v 10.3 18.2 -2.6
v 10.3 18.3 -2.6
v 10.5 18.3 -2.6
v 10.5 18.2 -2.6
v 10.5 18.2 -2.5
v 10.5 18.3 -2.5
v 10.6 18.3 -2.5
v 10.6 18.2 -2.5
v 10.6 18.2 -2.6
v 10.6 18.3 -2.6
v 10.5 18.2 -2.5
v 10.5 18.2 -2.6
v 10.6 18.2 -2.6
v 10.6 18.2 -2.5
v 10.5 18.3 -2.5
v 10.5 18.2 -2.5
v 10.6 18.2 -2.5
v 10.6 18.3 -2.5
v 10.6 18.3 -2.6
v 10.6 18.2 -2.6
v 10.5 18.2 -2.6
v 10.5 18.3 -2.6
v 8.4 18.2 -2.6
v 8.4 18.1 -2.6
v 8.4 18.1 -2.5
v 8.4 18.2 -2.5
v 8.4 18.1 -2.5
v 8.4 18.1 -2.6
v 8.5 18.1 -2.6
v 8.5 18.1 -2.5
v 8.4 18.2 -2.5
v 8.4 18.1 -2.5
v 8.5 18.1 -2.5
v 8.5 18.2 -2.5
v 8.5 18.2 -2.6
v 8.5 18.1 -2.6
v 8.4 18.1 -2.6
v 8.4 18.2 -2.6
v 8.5 18.2 -2.6
v 8.5 18.2 -2.5
v 8.6 18.2 -2.5
v 8.6 18.2 -2.6
v 8.5 18.1 -2.5
v 8.5 18.1 -2.6
v 8.6 18.1 -2.6
v 8.6 18.1 -2.5
v 8.5 18.2 -2.5
v 8.5 18.1 -2.5
v 8.6 18.1 -2.5
v 8.6 18.2 -2.5
v 8.6 18.2 -2.6
v 8.6 18.1 -2.6
v 8.5 18.1 -2.6
v 8.5 18.2 -2.6
v 8.6 18.2 -2.5
v 8.6 18.1 -2.5
v 8.7 18.1 -2.5
v 8.7 18.2 -2.5
v 8.7 18.2 -2.6
v 8.7 18.1 -2.6
v 8.6 18.1 -2.6
v 8.6 18.2 -2.6
v 8.8 18.2 -2.5
v 8.8 18.1 -2.5
v 8.8 18.1 -2.6
v 8.8 18.2 -2.6
v 8.7 18.2 -2.5
v 8.7 18.1 -2.5
v 8.8 18.1 -2.5
v 8.8 18.2 -2.5
v 8.8 18.2 -2.6
v 8.8 18.1 -2.6
v 8.7 18.1 -2.6
v 8.7 18.2 -2.6
v 8.9 18.2 -2.6
v 8.9 18.1 -2.6
v 8.9 18.1 -2.5
v 8.9 18.2 -2.5
v 8.9 18.2 -2.5
v 8.9 18.1 -2.5
v 9 18.1 -2.5
v 9 18.2 -2.5
v 9 18.2 -2.6
v 9 18.1 -2.6
v 8.9 18.1 -2.6
v 8.9 18.2 -2.6
v 9 18.2 -2.5
v 9 18.1 -2.5
v 9.1 18.1 -2.5
v 9.1 18.2 -2.5
v 9.1 18.2 -2.6
v 9.1 18.1 -2.6
v 9 18.1 -2.6
v 9 18.2 -2.6
v 9.1 18.1 -2.5
v 9.1 18.1 -2.6
v 9.2 18.1 -2.6
v 9.2 18.1 -2.5
v 9.1 18.2 -2.5
v 9.1 18.1 -2.5
v 9.2 18.1 -2.5
v 9.2 18.2 -2.5
v 9.2 18.2 -2.6
v 9.2 18.1 -2.6
v 9.1 18.1 -2.6
v 9.1 18.2 -2.6
v 9.2 18.1 -2.5
v 9.2 18.1 -2.6
v 9.3 18.1 -2.6
v 9.3 18.1 -2.5
v 9.2 18.2 -2.5
v 9.2 18.1 -2.5
v 9.3 18.1 -2.5
v 9.3 18.2 -2.5
v 9.3 18.2 -2.6
v 9.3 18.1 -2.6
v 9.2 18.1 -2.6
v 9.2 18.2 -2.6
v 9.3 18.1 -2.5
v 9.3 18.1 -2.6
v 9.4 18.1 -2.6
v 9.4 18.1 -2.5
v 9.3 18.2 -2.5
v 9.3 18.1 -2.5
v 9.4 18.1 -2.5
v 9.4 18.2 -2.5
v 9.4 18.2 -2.6
v 9.4 18.1 -2.6
v 9.3 18.1 -2.6
v 9.3 18.2 -2.6
v 9.4 18.2 -2.5
v 9.4 18.1 -2.5
v 9.5 18.1 -2.5
v 9.5 18.2 -2.5
v 9.5 18.2 -2.6
v 9.5 18.1 -2.6
v 9.4 18.1 -2.6
v 9.4 18.2 -2.6
v 9.5 18.2 -2.5
v 9.5 18.1 -2.5
v 9.6 18.1 -2.5
v 9.6 18.2 -2.5
v 9.6 18.2 -2.6
v 9.6 18.1 -2.6
v 9.5 18.1 -2.6
v 9.5 18.2 -2.6
v 9.6 18.2 -2.5
v 9.6 18.1 -2.5
v 9.7 18.1 -2.5
v 9.7 18.2 -2.5
v 9.7 18.2 -2.6
v 9.7 18.1 -2.6
v 9.6 18.1 -2.6
v 9.6 18.2 -2.6
v 9.7 18.2 -2.5
v 9.7 18.1 -2.5
v 9.8 18.1 -2.5
v 9.8 18.2 -2.5
v 9.8 18.2 -2.6
v 9.8 18.1 -2.6
v 9.7 18.1 -2.6
v 9.7 18.2 -2.6
v 9.8 18.1 -2.5
v 9.8 18.1 -2.6
v 9.9 18.1 -2.6
v 9.9 18.1 -2.5
v 9.8 18.2 -2.5
v 9.8 18.1 -2.5
v 9.9 18.1 -2.5
v 9.9 18.2 -2.5
v 9.9 18.2 -2.6
v 9.9 18.1 -2.6
v 9.8 18.1 -2.6
v 9.8 18.2 -2.6
v 9.9 18.1 -2.5
v 9.9 18.1 -2.6
v 10 18.1 -2.6
v 10 18.1 -2.5
v 9.9 18.2 -2.5
v 9.9 18.1 -2.5
v 10 18.1 -2.5
v 10 18.2 -2.5
v 10 18.2 -2.6
v 10 18.1 -2.6
v 9.9 18.1 -2.6
v 9.9 18.2 -2.6
v 10 18.2 -2.5
v 10 18.1 -2.5
v 10.1 18.1 -2.5
v 10.1 18.2 -2.5
v 10.1 18.2 -2.6
v 10.1 18.1 -2.6
v 10 18.1 -2.6
v 10 18.2 -2.6
v 10.2 18.2 -2.5
v 10.2 18.1 -2.5
v 10.2 18.1 -2.6
v 10.2 18.2 -2.6
v 10.1 18.2 -2.5
v 10.1 18.1 -2.5
v 10.2 18.1 -2.5
v 10.2 18.2 -2.5
v 10.2 18.2 -2.6
v 10.2 18.1 -2.6
v 10.1 18.1 -2.6
v 10.1 18.2 -2.6
v 10.3 18.2 -2.6
v 10.3 18.1 -2.6
v 10.3 18.1 -2.5
v 10.3 18.2 -2.5
v 10.3 18.2 -2.5
v 10.3 18.1 -2.5
v 10.4 18.1 -2.5
v 10.4 18.2 -2.5
v 10.4 18.2 -2.6
v 10.4 18.1 -2.6
v 10.3 18.1 -2.6
v 10.3 18.2 -2.6
v 10.5 18.2 -2.5
v 10.5 18.1 -2.5
v 10.5 18.1 -2.6
v 10.5 18.2 -2.6
v 10.4 18.2 -2.6
v 10.4 18.2 -2.5
v 10.5 18.2 -2.5
v 10.5 18.2 -2.6
v 10.4 18.1 -2.5
v 10.4 18.1 -2.6
v 10.5 18.1 -2.6
v 10.5 18.1 -2.5
v 10.4 18.2 -2.5
v 10.4 18.1 -2.5
v 10.5 18.1 -2.5
v 10.5 18.2 -2.5
v 10.5 18.2 -2.6
v 10.5 18.1 -2.6
v 10.4 18.1 -2.6
v 10.4 18.2 -2.6
v 8.6 18.1 -2.6
v 8.6 18 -2.6
v 8.6 18 -2.5
v 8.6 18.1 -2.5
v 8.6 18 -2.5
v 8.6 18 -2.6
v 8.7 18 -2.6
v 8.7 18 -2.5
v 8.6 18.1 -2.5
v 8.6 18 -2.5
v 8.7 18 -2.5
v 8.7 18.1 -2.5
v 8.7 18.1 -2.6
v 8.7 18 -2.6
v 8.6 18 -2.6
v 8.6 18.1 -2.6
v 8.7 18 -2.5
v 8.7 18 -2.6
v 8.8 18 -2.6
v 8.8 18 -2.5
v 8.7 18.1 -2.5
v 8.7 18 -2.5
v 8.8 18 -2.5
v 8.8 18.1 -2.5
v 8.8 18.1 -2.6
v 8.8 18 -2.6
v 8.7 18 -2.6
v 8.7 18.1 -2.6
v 8.8 18.1 -2.6
v 8.8 18.1 -2.5
v 8.9 18.1 -2.5
v 8.9 18.1 -2.6
v 8.8 18 -2.5
v 8.8 18 -2.6
v 8.9 18 -2.6
v 8.9 18 -2.5
v 8.8 18.1 -2.5
v 8.8 18 -2.5
v 8.9 18 -2.5
v 8.9 18.1 -2.5
v 8.9 18.1 -2.6
v 8.9 18 -2.6
v 8.8 18 -2.6
v 8.8 18.1 -2.6
v 8.9 18.1 -2.5
v 8.9 18 -2.5
v 9 18 -2.5
v 9 18.1 -2.5
v 9 18.1 -2.6
v 9 18 -2.6
v 8.9 18 -2.6
v 8.9 18.1 -2.6
v 9.1 18.1 -2.5
v 9.1 18 -2.5
v 9.1 18 -2.6
v 9.1 18.1 -2.6
v 9 18.1 -2.5
v 9 18 -2.5
v 9.1 18 -2.5
v 9.1 18.1 -2.5
v 9.1 18.1 -2.6
v 9.1 18 -2.6
v 9 18 -2.6
v 9 18.1 -2.6
v 9.4 18.1 -2.6
v 9.4 18 -2.6
v 9.4 18 -2.5
v 9.4 18.1 -2.5
v 9.4 18.1 -2.5
v 9.4 18 -2.5
v 9.5 18 -2.5
v 9.5 18.1 -2.5
v 9.5 18.1 -2.6
v 9.5 18 -2.6
v 9.4 18 -2.6
v 9.4 18.1 -2.6
v 9.5 18.1 -2.5
v 9.5 18 -2.5
v 9.6 18 -2.5
v 9.6 18.1 -2.5
v 9.6 18.1 -2.6
v 9.6 18 -2.6
v 9.5 18 -2.6
v 9.5 18.1 -2.6
v 9.6 18 -2.5
v 9.6 18 -2.6
v 9.7 18 -2.6
v 9.7 18 -2.5
v 9.6 18.1 -2.5
v 9.6 18 -2.5
v 9.7 18 -2.5
v 9.7 18.1 -2.5
v 9.7 18.1 -2.6
v 9.7 18 -2.6
v 9.6 18 -2.6
v 9.6 18.1 -2.6
v 9.8 18.1 -2.5
v 9.8 18 -2.5
v 9.8 18 -2.6
v 9.8 18.1 -2.6
v 9.7 18.1 -2.5
v 9.7 18 -2.5
v 9.8 18 -2.5
v 9.8 18.1 -2.5
v 9.8 18.1 -2.6
v 9.8 18 -2.6
v 9.7 18 -2.6
v 9.7 18.1 -2.6
v 10 18.1 -2.6
v 10 18 -2.6
v 10 18 -2.5
v 10 18.1 -2.5
v 10 18.1 -2.5
v 10 18 -2.5
v 10.1 18 -2.5
v 10.1 18.1 -2.5
v 10.1 18.1 -2.6
v 10.1 18 -2.6
v 10 18 -2.6
v 10 18.1 -2.6
v 10.1 18.1 -2.5
v 10.1 18 -2.5
v 10.2 18 -2.5
v 10.2 18.1 -2.5
v 10.2 18.1 -2.6
v 10.2 18 -2.6
v 10.1 18 -2.6
v 10.1 18.1 -2.6
v 10.2 18.1 -2.6
v 10.2 18.1 -2.5
v 10.3 18.1 -2.5
v 10.3 18.1 -2.6
v 10.2 18 -2.5
v 10.2 18 -2.6
v 10.3 18 -2.6
v 10.3 18 -2.5
v 10.2 18.1 -2.5
v 10.2 18 -2.5
v 10.3 18 -2.5
v 10.3 18.1 -2.5
v 10.3 18.1 -2.6
v 10.3 18 -2.6
v 10.2 18 -2.6
v 10.2 18.1 -2.6
v 10.4 18.1 -2.5
v 10.4 18 -2.5
v 10.4 18 -2.6
v 10.4 18.1 -2.6
v 10.3 18 -2.5
v 10.3 18 -2.6
v 10.4 18 -2.6
v 10.4 18 -2.5
v 10.3 18.1 -2.5
v 10.3 18 -2.5
v 10.4 18 -2.5
v 10.4 18.1 -2.5
v 10.4 18.1 -2.6
v 10.4 18 -2.6
v 10.3 18 -2.6
v 10.3 18.1 -2.6
v 8.9 18 -2.6
v 8.9 17.9 -2.6
v 8.9 17.9 -2.5
v 8.9 18 -2.5
v 8.9 17.9 -2.5
v 8.9 17.9 -2.6
v 9 17.9 -2.6
v 9 17.9 -2.5
v 8.9 18 -2.5
v 8.9 17.9 -2.5
v 9 17.9 -2.5
v 9 18 -2.5
v 9 18 -2.6
v 9 17.9 -2.6
v 8.9 17.9 -2.6
v 8.9 18 -2.6
v 9 17.9 -2.5
v 9 17.9 -2.6
v 9.1 17.9 -2.6
v 9.1 17.9 -2.5
v 9 18 -2.5
v 9 17.9 -2.5
v 9.1 17.9 -2.5
v 9.1 18 -2.5
v 9.1 18 -2.6
v 9.1 17.9 -2.6
v 9 17.9 -2.6
v 9 18 -2.6
v 9.1 18 -2.6
v 9.1 18 -2.5
v 9.2 18 -2.5
v 9.2 18 -2.6
v 9.1 17.9 -2.5
v 9.1 17.9 -2.6
v 9.2 17.9 -2.6
v 9.2 17.9 -2.5
v 9.1 18 -2.5
v 9.1 17.9 -2.5
v 9.2 17.9 -2.5
v 9.2 18 -2.5
v 9.2 18 -2.6
v 9.2 17.9 -2.6
v 9.1 17.9 -2.6
v 9.1 18 -2.6
v 9.2 18 -2.6
v 9.2 18 -2.5
v 9.3 18 -2.5
v 9.3 18 -2.6
v 9.2 17.9 -2.5
v 9.2 17.9 -2.6
v 9.3 17.9 -2.6
v 9.3 17.9 -2.5
v 9.2 18 -2.5
v 9.2 17.9 -2.5
v 9.3 17.9 -2.5
v 9.3 18 -2.5
v 9.3 18 -2.6
v 9.3 17.9 -2.6
v 9.2 17.9 -2.6
v 9.2 18 -2.6
v 9.3 18 -2.6
v 9.3 18 -2.5
v 9.4 18 -2.5
v 9.4 18 -2.6
v 9.3 17.9 -2.5
v 9.3 17.9 -2.6
v 9.4 17.9 -2.6
v 9.4 17.9 -2.5
v 9.3 18 -2.5
v 9.3 17.9 -2.5
v 9.4 17.9 -2.5
v 9.4 18 -2.5
v 9.4 18 -2.6
v 9.4 17.9 -2.6
v 9.3 17.9 -2.6
v 9.3 18 -2.6
v 9.4 18 -2.5
v 9.4 17.9 -2.5
v 9.5 17.9 -2.5
v 9.5 18 -2.5
v 9.5 18 -2.6
v 9.5 17.9 -2.6
v 9.4 17.9 -2.6
v 9.4 18 -2.6
v 9.6 18 -2.5
v 9.6 17.9 -2.5
v 9.6 17.9 -2.6
v 9.6 18 -2.6
v 9.5 18 -2.5
v 9.5 17.9 -2.5
v 9.6 17.9 -2.5
v 9.6 18 -2.5
v 9.6 18 -2.6
v 9.6 17.9 -2.6
v 9.5 17.9 -2.6
v 9.5 18 -2.6
v 9.7 18 -2.6
v 9.7 17.9 -2.6
v 9.7 17.9 -2.5
v 9.7 18 -2.5
v 9.7 18 -2.5
v 9.7 17.9 -2.5
v 9.8 17.9 -2.5
v 9.8 18 -2.5
v 9.8 18 -2.6
v 9.8 17.9 -2.6
v 9.7 17.9 -2.6
v 9.7 18 -2.6
v 9.8 18 -2.6
v 9.8 18 -2.5
v 9.9 18 -2.5
v 9.9 18 -2.6
v 9.8 17.9 -2.5
v 9.8 17.9 -2.6
v 9.9 17.9 -2.6
v 9.9 17.9 -2.5
v 9.8 18 -2.5
v 9.8 17.9 -2.5
v 9.9 17.9 -2.5
v 9.9 18 -2.5
v 9.9 18 -2.6
v 9.9 17.9 -2.6
v 9.8 17.9 -2.6
v 9.8 18 -2.6
v 9.9 18 -2.6
v 9.9 18 -2.5
v 10 18 -2.5
v 10 18 -2.6
v 9.9 17.9 -2.5
v 9.9 17.9 -2.6
v 10 17.9 -2.6
v 10 17.9 -2.5
v 9.9 18 -2.5
v 9.9 17.9 -2.5
v 10 17.9 -2.5
v 10 18 -2.5
v 10 18 -2.6
v 10 17.9 -2.6
v 9.9 17.9 -2.6
v 9.9 18 -2.6
v 10 17.9 -2.5
v 10 17.9 -2.6
v 10.1 17.9 -2.6
v 10.1 17.9 -2.5
v 10 18 -2.5
v 10 17.9 -2.5
v 10.1 17.9 -2.5
v 10.1 18 -2.5
v 10.1 18 -2.6
v 10.1 17.9 -2.6
v 10 17.9 -2.6
v 10 18 -2.6
v 10.2 18 -2.5
v 10.2 17.9 -2.5
v 10.2 17.9 -2.6
v 10.2 18 -2.6
v 10.1 17.9 -2.5
v 10.1 17.9 -2.6
v 10.2 17.9 -2.6
v 10.2 17.9 -2.5
v 10.1 18 -2.5
v 10.1 17.9 -2.5
v 10.2 17.9 -2.5
v 10.2 18 -2.5
v 10.2 18 -2.6
v 10.2 17.9 -2.6
v 10.1 17.9 -2.6
v 10.1 18 -2.6
v 9.4 17.9 -2.6
v 9.4 17.8 -2.6
v 9.4 17.8 -2.5
v 9.4 17.9 -2.5
v 9.4 17.8 -2.5
v 9.4 17.8 -2.6
v 9.5 17.8 -2.6
v 9.5 17.8 -2.5
v 9.4 17.9 -2.5
v 9.4 17.8 -2.5
v 9.5 17.8 -2.5
v 9.5 17.9 -2.5
v 9.5 17.9 -2.6
v 9.5 17.8 -2.6
v 9.4 17.8 -2.6
v 9.4 17.9 -2.6
v 9.5 17.8 -2.5
v 9.5 17.8 -2.6
v 9.6 17.8 -2.6
v 9.6 17.8 -2.5
v 9.5 17.9 -2.5
v 9.5 17.8 -2.5
v 9.6 17.8 -2.5
v 9.6 17.9 -2.5
v 9.6 17.9 -2.6
v 9.6 17.8 -2.6
v 9.5 17.8 -2.6
v 9.5 17.9 -2.6
v 9.6 17.9 -2.6
v 9.6 17.9 -2.5
v 9.7 17.9 -2.5
v 9.7 17.9 -2.6
v 9.6 17.8 -2.5
v 9.6 17.8 -2.6
v 9.7 17.8 -2.6
v 9.7 17.8 -2.5
v 9.6 17.9 -2.5
v 9.6 17.8 -2.5
v 9.7 17.8 -2.5
v 9.7 17.9 -2.5
v 9.7 17.9 -2.6
v 9.7 17.8 -2.6
v 9.6 17.8 -2.6
v 9.6 17.9 -2.6
v 9.8 17.9 -2.5
v 9.8 17.8 -2.5
v 9.8 17.8 -2.6
v 9.8 17.9 -2.6
v 9.7 17.8 -2.5
v 9.7 17.8 -2.6
v 9.8 17.8 -2.6
v 9.8 17.8 -2.5
v 9.7 17.9 -2.5
v 9.7 17.8 -2.5
v 9.8 17.8 -2.5
v 9.8 17.9 -2.5
v 9.8 17.9 -2.6
v 9.8 17.8 -2.6
v 9.7 17.8 -2.6
v 9.7 17.9 -2.6

# faces
f 1/3/1 2/3/1 3/3/1 4/3/1
f 5/3/2 6/3/2 7/3/2 8/3/2
f 9/3/3 10/3/3 11/3/3 12/3/3
f 13/3/4 14/3/4 15/3/4 16/3/4
f 17/3/5 18/3/5 19/3/5 20/3/5
f 21/3/6 22/3/6 23/3/6 24/3/6
f 25/4/1 26/4/1 27/4/1 28/4/1
f 29/4/3 30/4/3 31/4/3 32/4/3
f 33/4/4 34/4/4 35/4/4 36/4/4
f 37/4/5 38/4/5 39/4/5 40/4/5
f 41/4/6 42/4/6 43/4/6 44/4/6
f 45/4/3 46/4/3 47/4/3 48/4/3
f 49/4/5 50/4/5 51/4/5 52/4/5
f 53/4/6 54/4/6 55/4/6 56/4/6
f 57/4/3 58/4/3 59/4/3 60/4/3
f 61/4/5 62/4/5 63/4/5 64/4/5
f 65/4/6 66/4/6 67/4/6 68/4/6
f 69/4/3 70/4/3 71/4/3 72/4/3
f 73/4/5 74/4/5 75/4/5 76/4/5
f 77/4/6 78/4/6 79/4/6 80/4/6
f 81/4/3 82/4/3 83/4/3 84/4/3
f 85/4/5 86/4/5 87/4/5 88/4/5
f 89/4/6 90/4/6 91/4/6 92/4/6
f 93/4/3 94/4/3 95/4/3 96/4/3
f 97/4/5 98/4/5 99/4/5 100/4/5
f 101/4/6 102/4/6 103/4/6 104/4/6
f 105/4/3 106/4/3 107/4/3 108/4/3
f 109/4/5 110/4/5 111/4/5 112/4/5
f 113/4/6 114/4/6 115/4/6 116/4/6
f 117/4/3 118/4/3 119/4/3 120/4/3
f 121/4/5 122/4/5 123/4/5 124/4/5
f 125/4/6 126/4/6 127/4/6 128/4/6
f 129/4/3 130/4/3 131/4/3 132/4/3
f 133/4/5 134/4/5 135/4/5 136/4/5
f 137/4/6 138/4/6 139/4/6 140/4/6
f 141/4/3 142/4/3 143/4/3 144/4/3
f 145/4/5 146/4/5 147/4/5 148/4/5
f 149/4/6 150/4/6 151/4/6 152/4/6
f 153/4/3 154/4/3 155/4/3 156/4/3
f 157/4/5 158/4/5 159/4/5 160/4/5
f 161/4/6 162/4/6 163/4/6 164/4/6
f 165/4/3 166/4/3 167/4/3 168/4/3
f 169/4/5 170/4/5 171/4/5 172/4/5
f 173/4/6 174/4/6 175/4/6 176/4/6
f 177/4/3 178/4/3 179/4/3 180/4/3
f 181/4/5 182/4/5 183/4/5 184/4/5
f 185/4/6 186/4/6 187/4/6 188/4/6
f 189/4/3 190/4/3 191/4/3 192/4/3
f 193/4/5 194/4/5 195/4/5 196/4/5
f 197/4/6 198/4/6 199/4/6 200/4/6
f 201/4/3 202/4/3 203/4/3 204/4/3
f 205/4/5 206/4/5 207/4/5 208/4/5
f 209/4/6 210/4/6 211/4/6 212/4/6
f 213/4/3 214/4/3 215/4/3 216/4/3
f 217/4/5 218/4/5 219/4/5 220/4/5
f 221/4/6 222/4/6 223/4/6 224/4/6
f 225/4/3 226/4/3 227/4/3 228/4/3
f 229/4/5 230/4/5 231/4/5 232/4/5
f 233/4/6 234/4/6 235/4/6 236/4/6
f 237/4/3 238/4/3 239/4/3 240/4/3
f 241/4/5 242/4/5 243/4/5 244/4/5
f 245/4/6 246/4/6 247/4/6 248/4/6
f 249/4/3 250/4/3 251/4/3 252/4/3
f 253/4/5 254/4/5 255/4/5 256/4/5
f 257/4/6 258/4/6 259/4/6 260/4/6
f 261/4/3 262/4/3 263/4/3 264/4/3
f 265/4/5 266/4/5 267/4/5 268/4/5
f 269/4/6 270/4/6 271/4/6 272/4/6
f 273/4/3 274/4/3 275/4/3 276/4/3
f 277/4/5 278/4/5 279/4/5 280/4/5
f 281/4/6 282/4/6 283/4/6 284/4/6
f 285/4/3 286/4/3 287/4/3 288/4/3
f 289/4/5 290/4/5 291/4/5 292/4/5
f 293/4/6 294/4/6 295/4/6 296/4/6
f 297/4/3 298/4/3 299/4/3 300/4/3
f 301/4/5 302/4/5 303/4/5 304/4/5
f 305/4/6 306/4/6 307/4/6 308/4/6
f 309/4/3 310/4/3 311/4/3 312/4/3
f 313/4/5 314/4/5 315/4/5 316/4/5
f 317/4/6 318/4/6 319/4/6 320/4/6
f 321/4/2 322/4/2 323/4/2 324/4/2
f 325/4/3 326/4/3 327/4/3 328/4/3
f 329/4/5 330/4/5 331/4/5 332/4/5
f 333/4/6 334/4/6 335/4/6 336/4/6
f 337/3/1 338/3/1 339/3/1 340/3/1
f 341/3/2 342/3/2 343/3/2 344/3/2
f 345/3/3 346/3/3 347/3/3 348/3/3
f 349/3/4 350/3/4 351/3/4 352/3/4
f 353/3/5 354/3/5 355/3/5 356/3/5
f 357/3/6 358/3/6 359/3/6 360/3/6
f 361/3/1 362/3/1 363/3/1 364/3/1
f 365/3/2 366/3/2 367/3/2 368/3/2
f 369/3/3 370/3/3 371/3/3 372/3/3
f 373/3/4 374/3/4 375/3/4 376/3/4
f 377/3/5 378/3/5 379/3/5 380/3/5
f 381/3/6 382/3/6 383/3/6 384/3/6
f 385/4/1 386/4/1 387/4/1 388/4/1
f 389/4/4 390/4/4 391/4/4 392/4/4
f 393/4/5 394/4/5 395/4/5 396/4/5
f 397/4/6 398/4/6 399/4/6 400/4/6
f 401/4/5 402/4/5 403/4/5 404/4/5
f 405/4/6 406/4/6 407/4/6 408/4/6
f 409/4/5 410/4/5 411/4/5 412/4/5
f 413/4/6 414/4/6 415/4/6 416/4/6
f 417/4/5 418/4/5 419/4/5 420/4/5
f 421/4/6 422/4/6 423/4/6 424/4/6
f 425/4/5 426/4/5 427/4/5 428/4/5
f 429/4/6 430/4/6 431/4/6 432/4/6
f 433/4/5 434/4/5 435/4/5 436/4/5
f 437/4/6 438/4/6 439/4/6 440/4/6
f 441/4/5 442/4/5 443/4/5 444/4/5
f 445/4/6 446/4/6 447/4/6 448/4/6
f 449/4/5 450/4/5 451/4/5 452/4/5
f 453/4/6 454/4/6 455/4/6 456/4/6
f 457/4/5 458/4/5 459/4/5 460/4/5
f 461/4/6 462/4/6 463/4/6 464/4/6
f 465/4/5 466/4/5 467/4/5 468/4/5
f 469/4/6 470/4/6 471/4/6 472/4/6
f 473/4/5 474/4/5 475/4/5 476/4/5
f 477/4/6 478/4/6 479/4/6 480/4/6
f 481/4/5 482/4/5 483/4/5 484/4/5
f 485/4/6 486/4/6 487/4/6 488/4/6
f 489/4/5 490/4/5 491/4/5 492/4/5
f 493/4/6 494/4/6 495/4/6 496/4/6
f 497/4/5 498/4/5 499/4/5 500/4/5
f 501/4/6 502/4/6 503/4/6 504/4/6
f 505/4/5 506/4/5 507/4/5 508/4/5
f 509/4/6 510/4/6 511/4/6 512/4/6
f 513/4/5 514/4/5 515/4/5 516/4/5
f 517/4/6 518/4/6 519/4/6 520/4/6
f 521/4/5 522/4/5 523/4/5 524/4/5
f 525/4/6 526/4/6 527/4/6 528/4/6
f 529/4/5 530/4/5 531/4/5 532/4/5
f 533/4/6 534/4/6 535/4/6 536/4/6
f 537/4/5 538/4/5 539/4/5 540/4/5
f 541/4/6 542/4/6 543/4/6 544/4/6
f 545/4/5 546/4/5 547/4/5 548/4/5
f 549/4/6 550/4/6 551/4/6 552/4/6
f 553/4/5 554/4/5 555/4/5 556/4/5
f 557/4/6 558/4/6 559/4/6 560/4/6
f 561/4/5 562/4/5 563/4/5 564/4/5
f 565/4/6 566/4/6 567/4/6 568/4/6
f 569/4/5 570/4/5 571/4/5 572/4/5
f 573/4/6 574/4/6 575/4/6 576/4/6
f 577/4/5 578/4/5 579/4/5 580/4/5
f 581/4/6 582/4/6 583/4/6 584/4/6
f 585/4/2 586/4/2 587/4/2 588/4/2
f 589/4/3 590/4/3 591/4/3 592/4/3
f 593/4/5 594/4/5 595/4/5 596/4/5
f 597/4/6 598/4/6 599/4/6 600/4/6
f 601/3/1 602/3/1 603/3/1 604/3/1
f 605/3/2 606/3/2 607/3/2 608/3/2
f 609/3/3 610/3/3 611/3/3 612/3/3
f 613/3/4 614/3/4 615/3/4 616/3/4
f 617/3/5 618/3/5 619/3/5 620/3/5
f 621/3/6 622/3/6 623/3/6 624/3/6
f 625/3/1 626/3/1 627/3/1 628/3/1
f 629/3/2 630/3/2 631/3/2 632/3/2
f 633/3/3 634/3/3 635/3/3 636/3/3
f 637/3/4 638/3/4 639/3/4 640/3/4
f 641/3/5 642/3/5 643/3/5 644/3/5
f 645/3/6 646/3/6 647/3/6 648/3/6
f 649/4/1 650/4/1 651/4/1 652/4/1
f 653/4/4 654/4/4 655/4/4 656/4/4
f 657/4/5 658/4/5 659/4/5 660/4/5
f 661/4/6 662/4/6 663/4/6 664/4/6
f 665/4/5 666/4/5 667/4/5 668/4/5
f 669/4/6 670/4/6 671/4/6 672/4/6
f 673/4/5 674/4/5 675/4/5 676/4/5
f 677/4/6 678/4/6 679/4/6 680/4/6
f 681/4/5 682/4/5 683/4/5 684/4/5
f 685/4/6 686/4/6 687/4/6 688/4/6
f 689/4/5 690/4/5 691/4/5 692/4/5
f 693/4/6 694/4/6 695/4/6 696/4/6
f 697/4/5 698/4/5 699/4/5 700/4/5
f 701/4/6 702/4/6 703/4/6 704/4/6
f 705/4/5 706/4/5 707/4/5 708/4/5
f 709/4/6 710/4/6 711/4/6 712/4/6
f 713/4/5 714/4/5 715/4/5 716/4/5
f 717/4/6 718/4/6 719/4/6 720/4/6
f 721/4/5 722/4/5 723/4/5 724/4/5
f 725/4/6 726/4/6 727/4/6 728/4/6
f 729/4/5 730/4/5 731/4/5 732/4/5
f 733/4/6 734/4/6 735/4/6 736/4/6
f 737/4/5 738/4/5 739/4/5 740/4/5
f 741/4/6 742/4/6 743/4/6 744/4/6
f 745/4/5 746/4/5 747/4/5 748/4/5
f 749/4/6 750/4/6 751/4/6 752/4/6
f 753/4/5 754/4/5 755/4/5 756/4/5
f 757/4/6 758/4/6 759/4/6 760/4/6
f 761/4/5 762/4/5 763/4/5 764/4/5
f 765/4/6 766/4/6 767/4/6 768/4/6
f 769/4/5 770/4/5 771/4/5 772/4/5
f 773/4/6 774/4/6 775/4/6 776/4/6
f 777/4/5 778/4/5 779/4/5 780/4/5
f 781/4/6 782/4/6 783/4/6 784/4/6
f 785/4/5 786/4/5 787/4/5 788/4/5
f 789/4/6 790/4/6 791/4/6 792/4/6
f 793/4/5 794/4/5 795/4/5 796/4/5
f 797/4/6 798/4/6 799/4/6 800/4/6
f 801/4/5 802/4/5 803/4/5 804/4/5
f 805/4/6 806/4/6 807/4/6 808/4/6
f 809/4/5 810/4/5 811/4/5 812/4/5
f 813/4/6 814/4/6 815/4/6 816/4/6
f 817/4/5 818/4/5 819/4/5 820/4/5
f 821/4/6 822/4/6 823/4/6 824/4/6
f 825/4/5 826/4/5 827/4/5 828/4/5
f 829/4/6 830/4/6 831/4/6 832/4/6
f 833/4/5 834/4/5 835/4/5 836/4/5
f 837/4/6 838/4/6 839/4/6 840/4/6
f 841/4/5 842/4/5 843/4/5 844/4/5
f 845/4/6 846/4/6 847/4/6 848/4/6
f 849/4/2 850/4/2 851/4/2 852/4/2
f 853/4/3 854/4/3 855/4/3 856/4/3
f 857/4/5 858/4/5 859/4/5 860/4/5
f 861/4/6 862/4/6 863/4/6 864/4/6
f 865/3/1 866/3/1 867/3/1 868/3/1
f 869/3/2 870/3/2 871/3/2 872/3/2
f 873/3/3 874/3/3 875/3/3 876/3/3
f 877/3/4 878/3/4 879/3/4 880/3/4
f 881/3/5 882/3/5 883/3/5 884/3/5
f 885/3/6 886/3/6 887/3/6 888/3/6
f 889/3/1 890/3/1 891/3/1 892/3/1
f 893/3/2 894/3/2 895/3/2 896/3/2
f 897/3/3 898/3/3 899/3/3 900/3/3
f 901/3/4 902/3/4 903/3/4 904/3/4
f 905/3/5 906/3/5 907/3/5 908/3/5
f 909/3/6 910/3/6 911/3/6 912/3/6
f 913/4/1 914/4/1 915/4/1 916/4/1
f 917/4/4 918/4/4 919/4/4 920/4/4
f 921/4/5 922/4/5 923/4/5 924/4/5
f 925/4/6 926/4/6 927/4/6 928/4/6
f 929/4/5 930/4/5 931/4/5 932/4/5
f 933/4/6 934/4/6 935/4/6 936/4/6
f 937/4/5 938/4/5 939/4/5 940/4/5
f 941/4/6 942/4/6 943/4/6 944/4/6
f 945/4/5 946/4/5 947/4/5 948/4/5
f 949/4/6 950/4/6 951/4/6 952/4/6
f 953/4/5 954/4/5 955/4/5 956/4/5
f 957/4/6 958/4/6 959/4/6 960/4/6
f 961/4/5 962/4/5 963/4/5 964/4/5
f 965/4/6 966/4/6 967/4/6 968/4/6
f 969/4/5 970/4/5 971/4/5 972/4/5
f 973/4/6 974/4/6 975/4/6 976/4/6
f 977/4/5 978/4/5 979/4/5 980/4/5
f 981/4/6 982/4/6 983/4/6 984/4/6
f 985/4/5 986/4/5 987/4/5 988/4/5
f 989/4/6 990/4/6 991/4/6 992/4/6
f 993/4/5 994/4/5 995/4/5 996/4/5
f 997/4/6 998/4/6 999/4/6 1000/4/6
f 1001/4/5 1002/4/5 1003/4/5 1004/4/5
f 1005/4/6 1006/4/6 1007/4/6 1008/4/6
f 1009/4/5 1010/4/5 1011/4/5 1012/4/5
f 1013/4/6 1014/4/6 1015/4/6 1016/4/6
f 1017/4/5 1018/4/5 1019/4/5 1020/4/5
f 1021/4/6 1022/4/6 1023/4/6 1024/4/6
f 1025/4/5 1026/4/5 1027/4/5 1028/4/5
f 1029/4/6 1030/4/6 1031/4/6 1032/4/6
f 1033/4/5 1034/4/5 1035/4/5 1036/4/5
f 1037/4/6 1038/4/6 1039/4/6 1040/4/6
f 1041/4/5 1042/4/5 1043/4/5 1044/4/5
f 1045/4/6 1046/4/6 1047/4/6 1048/4/6
f 1049/4/5 1050/4/5 1051/4/5 1052/4/5
f 1053/4/6 1054/4/6 1055/4/6 1056/4/6
f 1057/4/5 1058/4/5 1059/4/5 1060/4/5
f 1061/4/6 1062/4/6 1063/4/6 1064/4/6
f 1065/4/5 1066/4/5 1067/4/5 1068/4/5
f 1069/4/6 1070/4/6 1071/4/6 1072/4/6
f 1073/4/5 1074/4/5 1075/4/5 1076/4/5
f 1077/4/6 1078/4/6 1079/4/6 1080/4/6
f 1081/4/5 1082/4/5 1083/4/5 1084/4/5
f 1085/4/6 1086/4/6 1087/4/6 1088/4/6
f 1089/4/5 1090/4/5 1091/4/5 1092/4/5
f 1093/4/6 1094/4/6 1095/4/6 1096/4/6
f 1097/4/5 1098/4/5 1099/4/5 1100/4/5
f 1101/4/6 1102/4/6 1103/4/6 1104/4/6
f 1105/4/5 1106/4/5 1107/4/5 1108/4/5
f 1109/4/6 1110/4/6 1111/4/6 1112/4/6
f 1113/4/2 1114/4/2 1115/4/2 1116/4/2
f 1117/4/3 1118/4/3 1119/4/3 1120/4/3
f 1121/4/5 1122/4/5 1123/4/5 1124/4/5
f 1125/4/6 1126/4/6 1127/4/6 1128/4/6
f 1129/3/1 1130/3/1 1131/3/1 1132/3/1
f 1133/3/2 1134/3/2 1135/3/2 1136/3/2
f 1137/3/3 1138/3/3 1139/3/3 1140/3/3
f 1141/3/5 1142/3/5 1143/3/5 1144/3/5
f 1145/3/6 1146/3/6 1147/3/6 1148/3/6
f 1149/3/1 1150/3/1 1151/3/1 1152/3/1
f 1153/3/2 1154/3/2 1155/3/2 1156/3/2
f 1157/3/3 1158/3/3 1159/3/3 1160/3/3
f 1161/3/4 1162/3/4 1163/3/4 1164/3/4
f 1165/3/5 1166/3/5 1167/3/5 1168/3/5
f 1169/3/6 1170/3/6 1171/3/6 1172/3/6
f 1173/4/1 1174/4/1 1175/4/1 1176/4/1
f 1177/4/4 1178/4/4 1179/4/4 1180/4/4
f 1181/4/5 1182/4/5 1183/4/5 1184/4/5
f 1185/4/6 1186/4/6 1187/4/6 1188/4/6
f 1189/4/5 1190/4/5 1191/4/5 1192/4/5
f 1193/4/6 1194/4/6 1195/4/6 1196/4/6
f 1197/4/5 1198/4/5 1199/4/5 1200/4/5
f 1201/4/6 1202/4/6 1203/4/6 1204/4/6
f 1205/4/5 1206/4/5 1207/4/5 1208/4/5
f 1209/4/6 1210/4/6 1211/4/6 1212/4/6
f 1213/4/5 1214/4/5 1215/4/5 1216/4/5
f 1217/4/6 1218/4/6 1219/4/6 1220/4/6
f 1221/4/5 1222/4/5 1223/4/5 1224/4/5
f 1225/4/6 1226/4/6 1227/4/6 1228/4/6
f 1229/4/5 1230/4/5 1231/4/5 1232/4/5
f 1233/4/6 1234/4/6 1235/4/6 1236/4/6
f 1237/4/5 1238/4/5 1239/4/5 1240/4/5
f 1241/4/6 1242/4/6 1243/4/6 1244/4/6
f 1245/4/5 1246/4/5 1247/4/5 1248/4/5
f 1249/4/6 1250/4/6 1251/4/6 1252/4/6
f 1253/4/5 1254/4/5 1255/4/5 1256/4/5
f 1257/4/6 1258/4/6 1259/4/6 1260/4/6
f 1261/4/5 1262/4/5 1263/4/5 1264/4/5
f 1265/4/6 1266/4/6 1267/4/6 1268/4/6
f 1269/4/5 1270/4/5 1271/4/5 1272/4/5
f 1273/4/6 1274/4/6 1275/4/6 1276/4/6
f 1277/4/5 1278/4/5 1279/4/5 1280/4/5
f 1281/4/6 1282/4/6 1283/4/6 1284/4/6
f 1285/4/5 1286/4/5 1287/4/5 1288/4/5
f 1289/4/6 1290/4/6 1291/4/6 1292/4/6
f 1293/4/5 1294/4/5 1295/4/5 1296/4/5
f 1297/4/6 1298/4/6 1299/4/6 1300/4/6
f 1301/4/5 1302/4/5 1303/4/5 1304/4/5
f 1305/4/6 1306/4/6 1307/4/6 1308/4/6
f 1309/4/5 1310/4/5 1311/4/5 1312/4/5
f 1313/4/6 1314/4/6 1315/4/6 1316/4/6
f 1317/4/5 1318/4/5 1319/4/5 1320/4/5
f 1321/4/6 1322/4/6 1323/4/6 1324/4/6
f 1325/4/5 1326/4/5 1327/4/5 1328/4/5
f 1329/4/6 1330/4/6 1331/4/6 1332/4/6
f 1333/4/5 1334/4/5 1335/4/5 1336/4/5
f 1337/4/6 1338/4/6 1339/4/6 1340/4/6
f 1341/4/5 1342/4/5 1343/4/5 1344/4/5
f 1345/4/6 1346/4/6 1347/4/6 1348/4/6
f 1349/4/5 1350/4/5 1351/4/5 1352/4/5
f 1353/4/6 1354/4/6 1355/4/6 1356/4/6
f 1357/4/5 1358/4/5 1359/4/5 1360/4/5
f 1361/4/6 1362/4/6 1363/4/6 1364/4/6
f 1365/4/5 1366/4/5 1367/4/5 1368/4/5
f 1369/4/6 1370/4/6 1371/4/6 1372/4/6
f 1373/4/3 1374/4/3 1375/4/3 1376/4/3
f 1377/4/5 1378/4/5 1379/4/5 1380/4/5
f 1381/4/6 1382/4/6 1383/4/6 1384/4/6
f 1385/1/5 1386/1/5 1387/1/5 1388/1/5
f 1389/1/6 1390/1/6 1391/1/6 1392/1/6
f 1393/3/2 1394/3/2 1395/3/2 1396/3/2
f 1397/3/3 1398/3/3 1399/3/3 1400/3/3
f 1401/3/5 1402/3/5 1403/3/5 1404/3/5
f 1405/3/6 1406/3/6 1407/3/6 1408/3/6
f 1409/3/1 1410/3/1 1411/3/1 1412/3/1
f 1413/3/2 1414/3/2 1415/3/2 1416/3/2
f 1417/3/3 1418/3/3 1419/3/3 1420/3/3
f 1421/3/4 1422/3/4 1423/3/4 1424/3/4
f 1425/3/5 1426/3/5 1427/3/5 1428/3/5
f 1429/3/6 1430/3/6 1431/3/6 1432/3/6
f 1433/4/1 1434/4/1 1435/4/1 1436/4/1
f 1437/4/4 1438/4/4 1439/4/4 1440/4/4
f 1441/4/5 1442/4/5 1443/4/5 1444/4/5
f 1445/4/6 1446/4/6 1447/4/6 1448/4/6
f 1449/4/5 1450/4/5 1451/4/5 1452/4/5
f 1453/4/6 1454/4/6 1455/4/6 1456/4/6
f 1457/4/5 1458/4/5 1459/4/5 1460/4/5
f 1461/4/6 1462/4/6 1463/4/6 1464/4/6
f 1465/4/5 1466/4/5 1467/4/5 1468/4/5
f 1469/4/6 1470/4/6 1471/4/6 1472/4/6
f 1473/4/5 1474/4/5 1475/4/5 1476/4/5
f 1477/4/6 1478/4/6 1479/4/6 1480/4/6
f 1481/4/5 1482/4/5 1483/4/5 1484/4/5
f 1485/4/6 1486/4/6 1487/4/6 1488/4/6
f 1489/4/5 1490/4/5 1491/4/5 1492/4/5
f 1493/4/6 1494/4/6 1495/4/6 1496/4/6
f 1497/4/5 1498/4/5 1499/4/5 1500/4/5
f 1501/4/6 1502/4/6 1503/4/6 1504/4/6
f 1505/4/5 1506/4/5 1507/4/5 1508/4/5
f 1509/4/6 1510/4/6 1511/4/6 1512/4/6
f 1513/4/5 1514/4/5 1515/4/5 1516/4/5
f 1517/4/6 1518/4/6 1519/4/6 1520/4/6
f 1521/4/5 1522/4/5 1523/4/5 1524/4/5
f 1525/4/6 1526/4/6 1527/4/6 1528/4/6
f 1529/4/5 1530/4/5 1531/4/5 1532/4/5
f 1533/4/6 1534/4/6 1535/4/6 1536/4/6
f 1537/4/5 1538/4/5 1539/4/5 1540/4/5
f 1541/4/6 1542/4/6 1543/4/6 1544/4/6
f 1545/4/5 1546/4/5 1547/4/5 1548/4/5
f 1549/4/6 1550/4/6 1551/4/6 1552/4/6
f 1553/4/5 1554/4/5 1555/4/5 1556/4/5
f 1557/4/6 1558/4/6 1559/4/6 1560/4/6
f 1561/4/5 1562/4/5 1563/4/5 1564/4/5
f 1565/4/6 1566/4/6 1567/4/6 1568/4/6
f 1569/4/5 1570/4/5 1571/4/5 1572/4/5
f 1573/4/6 1574/4/6 1575/4/6 1576/4/6
f 1577/4/5 1578/4/5 1579/4/5 1580/4/5
f 1581/4/6 1582/4/6 1583/4/6 1584/4/6
f 1585/4/5 1586/4/5 1587/4/5 1588/4/5
f 1589/4/6 1590/4/6 1591/4/6 1592/4/6
f 1593/4/5 1594/4/5 1595/4/5 1596/4/5
f 1597/4/6 1598/4/6 1599/4/6 1600/4/6
f 1601/4/5 1602/4/5 1603/4/5 1604/4/5
f 1605/4/6 1606/4/6 1607/4/6 1608/4/6
f 1609/4/5 1610/4/5 1611/4/5 1612/4/5
f 1613/4/6 1614/4/6 1615/4/6 1616/4/6
f 1617/4/5 1618/4/5 1619/4/5 1620/4/5
f 1621/4/6 1622/4/6 1623/4/6 1624/4/6
f 1625/4/5 1626/4/5 1627/4/5 1628/4/5
f 1629/4/6 1630/4/6 1631/4/6 1632/4/6
f 1633/2/4 1634/2/4 1635/2/4 1636/2/4
f 1637/2/5 1638/2/5 1639/2/5 1640/2/5
f 1641/2/6 1642/2/6 1643/2/6 1644/2/6
f 1645/3/2 1646/3/2 1647/3/2 1648/3/2
f 1649/3/5 1650/3/5 1651/3/5 1652/3/5
f 1653/3/6 1654/3/6 1655/3/6 1656/3/6
f 1657/3/1 1658/3/1 1659/3/1 1660/3/1
f 1661/3/2 1662/3/2 1663/3/2 1664/3/2
f 1665/3/3 1666/3/3 1667/3/3 1668/3/3
f 1669/3/4 1670/3/4 1671/3/4 1672/3/4
f 1673/3/5 1674/3/5 1675/3/5 1676/3/5
f 1677/3/6 1678/3/6 1679/3/6 1680/3/6
f 1681/4/1 1682/4/1 1683/4/1 1684/4/1
f 1685/4/4 1686/4/4 1687/4/4 1688/4/4
f 1689/4/5 1690/4/5 1691/4/5 1692/4/5
f 1693/4/6 1694/4/6 1695/4/6 1696/4/6
f 1697/4/5 1698/4/5 1699/4/5 1700/4/5
f 1701/4/6 1702/4/6 1703/4/6 1704/4/6
f 1705/4/5 1706/4/5 1707/4/5 1708/4/5
f 1709/4/6 1710/4/6 1711/4/6 1712/4/6
f 1713/4/5 1714/4/5 1715/4/5 1716/4/5
f 1717/4/6 1718/4/6 1719/4/6 1720/4/6
f 1721/4/5 1722/4/5 1723/4/5 1724/4/5
f 1725/4/6 1726/4/6 1727/4/6 1728/4/6
f 1729/4/5 1730/4/5 1731/4/5 1732/4/5
f 1733/4/6 1734/4/6 1735/4/6 1736/4/6
f 1737/4/5 1738/4/5 1739/4/5 1740/4/5
f 1741/4/6 1742/4/6 1743/4/6 1744/4/6
f 1745/4/5 1746/4/5 1747/4/5 1748/4/5
f 1749/4/6 1750/4/6 1751/4/6 1752/4/6
f 1753/4/5 1754/4/5 1755/4/5 1756/4/5
f 1757/4/6 1758/4/6 1759/4/6 1760/4/6
f 1761/4/5 1762/4/5 1763/4/5 1764/4/5
f 1765/4/6 1766/4/6 1767/4/6 1768/4/6
f 1769/4/5 1770/4/5 1771/4/5 1772/4/5
f 1773/4/6 1774/4/6 1775/4/6 1776/4/6
f 1777/4/5 1778/4/5 1779/4/5 1780/4/5
f 1781/4/6 1782/4/6 1783/4/6 1784/4/6
f 1785/4/5 1786/4/5 1787/4/5 1788/4/5
f 1789/4/6 1790/4/6 1791/4/6 1792/4/6
f 1793/4/5 1794/4/5 1795/4/5 1796/4/5
f 1797/4/6 1798/4/6 1799/4/6 1800/4/6
f 1801/4/5 1802/4/5 1803/4/5 1804/4/5
f 1805/4/6 1806/4/6 1807/4/6 1808/4/6
f 1809/4/5 1810/4/5 1811/4/5 1812/4/5
f 1813/4/6 1814/4/6 1815/4/6 1816/4/6
f 1817/4/5 1818/4/5 1819/4/5 1820/4/5
f 1821/4/6 1822/4/6 1823/4/6 1824/4/6
f 1825/4/5 1826/4/5 1827/4/5 1828/4/5
f 1829/4/6 1830/4/6 1831/4/6 1832/4/6
f 1833/4/5 1834/4/5 1835/4/5 1836/4/5
f 1837/4/6 1838/4/6 1839/4/6 1840/4/6
f 1841/4/5 1842/4/5 1843/4/5 1844/4/5
f 1845/4/6 1846/4/6 1847/4/6 1848/4/6
f 1849/4/5 1850/4/5 1851/4/5 1852/4/5
f 1853/4/6 1854/4/6 1855/4/6 1856/4/6
f 1857/4/5 1858/4/5 1859/4/5 1860/4/5
f 1861/4/6 1862/4/6 1863/4/6 1864/4/6
f 1865/4/2 1866/4/2 1867/4/2 1868/4/2
f 1869/4/5 1870/4/5 1871/4/5 1872/4/5
f 1873/4/6 1874/4/6 1875/4/6 1876/4/6
f 1877/3/1 1878/3/1 1879/3/1 1880/3/1
f 1881/3/2 1882/3/2 1883/3/2 1884/3/2
f 1885/3/5 1886/3/5 1887/3/5 1888/3/5
f 1889/3/6 1890/3/6 1891/3/6 1892/3/6
f 1893/3/1 1894/3/1 1895/3/1 1896/3/1
f 1897/3/2 1898/3/2 1899/3/2 1900/3/2
f 1901/3/3 1902/3/3 1903/3/3 1904/3/3
f 1905/3/4 1906/3/4 1907/3/4 1908/3/4
f 1909/3/5 1910/3/5 1911/3/5 1912/3/5
f 1913/3/6 1914/3/6 1915/3/6 1916/3/6
f 1917/4/1 1918/4/1 1919/4/1 1920/4/1
f 1921/4/4 1922/4/4 1923/4/4 1924/4/4
f 1925/4/5 1926/4/5 1927/4/5 1928/4/5
f 1929/4/6 1930/4/6 1931/4/6 1932/4/6
f 1933/4/5 1934/4/5 1935/4/5 1936/4/5
f 1937/4/6 1938/4/6 1939/4/6 1940/4/6
f 1941/4/5 1942/4/5 1943/4/5 1944/4/5
f 1945/4/6 1946/4/6 1947/4/6 1948/4/6
f 1949/4/5 1950/4/5 1951/4/5 1952/4/5
f 1953/4/6 1954/4/6 1955/4/6 1956/4/6
f 1957/4/5 1958/4/5 1959/4/5 1960/4/5
f 1961/4/6 1962/4/6 1963/4/6 1964/4/6
f 1965/4/5 1966/4/5 1967/4/5 1968/4/5
f 1969/4/6 1970/4/6 1971/4/6 1972/4/6
f 1973/4/5 1974/4/5 1975/4/5 1976/4/5
f 1977/4/6 1978/4/6 1979/4/6 1980/4/6
f 1981/4/5 1982/4/5 1983/4/5 1984/4/5
f 1985/4/6 1986/4/6 1987/4/6 1988/4/6
f 1989/4/5 1990/4/5 1991/4/5 1992/4/5
f 1993/4/6 1994/4/6 1995/4/6 1996/4/6
f 1997/4/5 1998/4/5 1999/4/5 2000/4/5
f 2001/4/6 2002/4/6 2003/4/6 2004/4/6
f 2005/4/5 2006/4/5 2007/4/5 2008/4/5
f 2009/4/6 2010/4/6 2011/4/6 2012/4/6
f 2013/4/5 2014/4/5 2015/4/5 2016/4/5
f 2017/4/6 2018/4/6 2019/4/6 2020/4/6
f 2021/4/5 2022/4/5 2023/4/5 2024/4/5
f 2025/4/6 2026/4/6 2027/4/6 2028/4/6
f 2029/4/5 2030/4/5 2031/4/5 2032/4/5
f 2033/4/6 2034/4/6 2035/4/6 2036/4/6
f 2037/4/5 2038/4/5 2039/4/5 2040/4/5
f 2041/4/6 2042/4/6 2043/4/6 2044/4/6
f 2045/4/5 2046/4/5 2047/4/5 2048/4/5
f 2049/4/6 2050/4/6 2051/4/6 2052/4/6
f 2053/4/5 2054/4/5 2055/4/5 2056/4/5
f 2057/4/6 2058/4/6 2059/4/6 2060/4/6
f 2061/4/5 2062/4/5 2063/4/5 2064/4/5
f 2065/4/6 2066/4/6 2067/4/6 2068/4/6
f 2069/4/5 2070/4/5 2071/4/5 2072/4/5
f 2073/4/6 2074/4/6 2075/4/6 2076/4/6
f 2077/4/5 2078/4/5 2079/4/5 2080/4/5
f 2081/4/6 2082/4/6 2083/4/6 2084/4/6
f 2085/4/5 2086/4/5 2087/4/5 2088/4/5
f 2089/4/6 2090/4/6 2091/4/6 2092/4/6
f 2093/4/5 2094/4/5 2095/4/5 2096/4/5
f 2097/4/6 2098/4/6 2099/4/6 2100/4/6
f 2101/2/3 2102/2/3 2103/2/3 2104/2/3
f 2105/2/5 2106/2/5 2107/2/5 2108/2/5
f 2109/2/6 2110/2/6 2111/2/6 2112/2/6
f 2113/3/2 2114/3/2 2115/3/2 2116/3/2
f 2117/3/5 2118/3/5 2119/3/5 2120/3/5
f 2121/3/6 2122/3/6 2123/3/6 2124/3/6
f 2125/3/1 2126/3/1 2127/3/1 2128/3/1
f 2129/3/2 2130/3/2 2131/3/2 2132/3/2
f 2133/3/3 2134/3/3 2135/3/3 2136/3/3
f 2137/3/4 2138/3/4 2139/3/4 2140/3/4
f 2141/3/5 2142/3/5 2143/3/5 2144/3/5
f 2145/3/6 2146/3/6 2147/3/6 2148/3/6
f 2149/4/1 2150/4/1 2151/4/1 2152/4/1
f 2153/4/5 2154/4/5 2155/4/5 2156/4/5
f 2157/4/6 2158/4/6 2159/4/6 2160/4/6
f 2161/4/4 2162/4/4 2163/4/4 2164/4/4
f 2165/4/5 2166/4/5 2167/4/5 2168/4/5
f 2169/4/6 2170/4/6 2171/4/6 2172/4/6
f 2173/4/5 2174/4/5 2175/4/5 2176/4/5
f 2177/4/6 2178/4/6 2179/4/6 2180/4/6
f 2181/4/5 2182/4/5 2183/4/5 2184/4/5
f 2185/4/6 2186/4/6 2187/4/6 2188/4/6
f 2189/4/5 2190/4/5 2191/4/5 2192/4/5
f 2193/4/6 2194/4/6 2195/4/6 2196/4/6
f 2197/4/5 2198/4/5 2199/4/5 2200/4/5
f 2201/4/6 2202/4/6 2203/4/6 2204/4/6
f 2205/4/5 2206/4/5 2207/4/5 2208/4/5
f 2209/4/6 2210/4/6 2211/4/6 2212/4/6
f 2213/4/5 2214/4/5 2215/4/5 2216/4/5
f 2217/4/6 2218/4/6 2219/4/6 2220/4/6
f 2221/4/5 2222/4/5 2223/4/5 2224/4/5
f 2225/4/6 2226/4/6 2227/4/6 2228/4/6
f 2229/4/5 2230/4/5 2231/4/5 2232/4/5
f 2233/4/6 2234/4/6 2235/4/6 2236/4/6
f 2237/4/5 2238/4/5 2239/4/5 2240/4/5
f 2241/4/6 2242/4/6 2243/4/6 2244/4/6
f 2245/4/5 2246/4/5 2247/4/5 2248/4/5
f 2249/4/6 2250/4/6 2251/4/6 2252/4/6
f 2253/4/5 2254/4/5 2255/4/5 2256/4/5
f 2257/4/6 2258/4/6 2259/4/6 2260/4/6
f 2261/4/5 2262/4/5 2263/4/5 2264/4/5
f 2265/4/6 2266/4/6 2267/4/6 2268/4/6
f 2269/4/5 2270/4/5 2271/4/5 2272/4/5
f 2273/4/6 2274/4/6 2275/4/6 2276/4/6
f 2277/4/5 2278/4/5 2279/4/5 2280/4/5
f 2281/4/6 2282/4/6 2283/4/6 2284/4/6
f 2285/4/5 2286/4/5 2287/4/5 2288/4/5
f 2289/4/6 2290/4/6 2291/4/6 2292/4/6
f 2293/4/5 2294/4/5 2295/4/5 2296/4/5
f 2297/4/6 2298/4/6 2299/4/6 2300/4/6
f 2301/4/5 2302/4/5 2303/4/5 2304/4/5
f 2305/4/6 2306/4/6 2307/4/6 2308/4/6
f 2309/4/5 2310/4/5 2311/4/5 2312/4/5
f 2313/4/6 2314/4/6 2315/4/6 2316/4/6
f 2317/4/4 2318/4/4 2319/4/4 2320/4/4
f 2321/4/5 2322/4/5 2323/4/5 2324/4/5
f 2325/4/6 2326/4/6 2327/4/6 2328/4/6
f 2329/1/5 2330/1/5 2331/1/5 2332/1/5
f 2333/1/6 2334/1/6 2335/1/6 2336/1/6
f 2337/3/2 2338/3/2 2339/3/2 2340/3/2
f 2341/3/4 2342/3/4 2343/3/4 2344/3/4
f 2345/3/5 2346/3/5 2347/3/5 2348/3/5
f 2349/3/6 2350/3/6 2351/3/6 2352/3/6
f 2353/3/1 2354/3/1 2355/3/1 2356/3/1
f 2357/3/3 2358/3/3 2359/3/3 2360/3/3
f 2361/3/4 2362/3/4 2363/3/4 2364/3/4
f 2365/3/5 2366/3/5 2367/3/5 2368/3/5
f 2369/3/6 2370/3/6 2371/3/6 2372/3/6
f 2373/2/2 2374/2/2 2375/2/2 2376/2/2
f 2377/2/5 2378/2/5 2379/2/5 2380/2/5
f 2381/2/6 2382/2/6 2383/2/6 2384/2/6
f 2385/4/1 2386/4/1 2387/4/1 2388/4/1
f 2389/4/5 2390/4/5 2391/4/5 2392/4/5
f 2393/4/6 2394/4/6 2395/4/6 2396/4/6
f 2397/4/5 2398/4/5 2399/4/5 2400/4/5
f 2401/4/6 2402/4/6 2403/4/6 2404/4/6
f 2405/4/4 2406/4/4 2407/4/4 2408/4/4
f 2409/4/5 2410/4/5 2411/4/5 2412/4/5
f 2413/4/6 2414/4/6 2415/4/6 2416/4/6
f 2417/4/5 2418/4/5 2419/4/5 2420/4/5
f 2421/4/6 2422/4/6 2423/4/6 2424/4/6
f 2425/4/5 2426/4/5 2427/4/5 2428/4/5
f 2429/4/6 2430/4/6 2431/4/6 2432/4/6
f 2433/4/5 2434/4/5 2435/4/5 2436/4/5
f 2437/4/6 2438/4/6 2439/4/6 2440/4/6
f 2441/4/5 2442/4/5 2443/4/5 2444/4/5
f 2445/4/6 2446/4/6 2447/4/6 2448/4/6
f 2449/4/5 2450/4/5 2451/4/5 2452/4/5
f 2453/4/6 2454/4/6 2455/4/6 2456/4/6
f 2457/4/5 2458/4/5 2459/4/5 2460/4/5
f 2461/4/6 2462/4/6 2463/4/6 2464/4/6
f 2465/4/5 2466/4/5 2467/4/5 2468/4/5
f 2469/4/6 2470/4/6 2471/4/6 2472/4/6
f 2473/4/5 2474/4/5 2475/4/5 2476/4/5
f 2477/4/6 2478/4/6 2479/4/6 2480/4/6
f 2481/4/5 2482/4/5 2483/4/5 2484/4/5
f 2485/4/6 2486/4/6 2487/4/6 2488/4/6
f 2489/4/5 2490/4/5 2491/4/5 2492/4/5
f 2493/4/6 2494/4/6 2495/4/6 2496/4/6
f 2497/4/5 2498/4/5 2499/4/5 2500/4/5
f 2501/4/6 2502/4/6 2503/4/6 2504/4/6
f 2505/4/5 2506/4/5 2507/4/5 2508/4/5
f 2509/4/6 2510/4/6 2511/4/6 2512/4/6
f 2513/4/5 2514/4/5 2515/4/5 2516/4/5
f 2517/4/6 2518/4/6 2519/4/6 2520/4/6
f 2521/4/4 2522/4/4 2523/4/4 2524/4/4
f 2525/4/5 2526/4/5 2527/4/5 2528/4/5
f 2529/4/6 2530/4/6 2531/4/6 2532/4/6
f 2533/4/2 2534/4/2 2535/4/2 2536/4/2
f 2537/4/5 2538/4/5 2539/4/5 2540/4/5
f 2541/4/6 2542/4/6 2543/4/6 2544/4/6
f 2545/3/1 2546/3/1 2547/3/1 2548/3/1
f 2549/3/2 2550/3/2 2551/3/2 2552/3/2
f 2553/3/4 2554/3/4 2555/3/4 2556/3/4
f 2557/3/5 2558/3/5 2559/3/5 2560/3/5
f 2561/3/6 2562/3/6 2563/3/6 2564/3/6
f 2565/3/1 2566/3/1 2567/3/1 2568/3/1
f 2569/3/4 2570/3/4 2571/3/4 2572/3/4
f 2573/3/5 2574/3/5 2575/3/5 2576/3/5
f 2577/3/6 2578/3/6 2579/3/6 2580/3/6
f 2581/3/3 2582/3/3 2583/3/3 2584/3/3
f 2585/3/4 2586/3/4 2587/3/4 2588/3/4
f 2589/3/5 2590/3/5 2591/3/5 2592/3/5
f 2593/3/6 2594/3/6 2595/3/6 2596/3/6
f 2597/1/5 2598/1/5 2599/1/5 2600/1/5
f 2601/1/6 2602/1/6 2603/1/6 2604/1/6
f 2605/2/2 2606/2/2 2607/2/2 2608/2/2
f 2609/2/5 2610/2/5 2611/2/5 2612/2/5
f 2613/2/6 2614/2/6 2615/2/6 2616/2/6
f 2617/4/1 2618/4/1 2619/4/1 2620/4/1
f 2621/4/5 2622/4/5 2623/4/5 2624/4/5
f 2625/4/6 2626/4/6 2627/4/6 2628/4/6
f 2629/4/5 2630/4/5 2631/4/5 2632/4/5
f 2633/4/6 2634/4/6 2635/4/6 2636/4/6
f 2637/4/4 2638/4/4 2639/4/4 2640/4/4
f 2641/4/5 2642/4/5 2643/4/5 2644/4/5
f 2645/4/6 2646/4/6 2647/4/6 2648/4/6
f 2649/4/4 2650/4/4 2651/4/4 2652/4/4
f 2653/4/5 2654/4/5 2655/4/5 2656/4/5
f 2657/4/6 2658/4/6 2659/4/6 2660/4/6
f 2661/4/4 2662/4/4 2663/4/4 2664/4/4
f 2665/4/5 2666/4/5 2667/4/5 2668/4/5
f 2669/4/6 2670/4/6 2671/4/6 2672/4/6
f 2673/4/5 2674/4/5 2675/4/5 2676/4/5
f 2677/4/6 2678/4/6 2679/4/6 2680/4/6
f 2681/4/5 2682/4/5 2683/4/5 2684/4/5
f 2685/4/6 2686/4/6 2687/4/6 2688/4/6
f 2689/4/5 2690/4/5 2691/4/5 2692/4/5
f 2693/4/6 2694/4/6 2695/4/6 2696/4/6
f 2697/4/5 2698/4/5 2699/4/5 2700/4/5
f 2701/4/6 2702/4/6 2703/4/6 2704/4/6
f 2705/4/4 2706/4/4 2707/4/4 2708/4/4
f 2709/4/5 2710/4/5 2711/4/5 2712/4/5
f 2713/4/6 2714/4/6 2715/4/6 2716/4/6
f 2717/4/4 2718/4/4 2719/4/4 2720/4/4
f 2721/4/5 2722/4/5 2723/4/5 2724/4/5
f 2725/4/6 2726/4/6 2727/4/6 2728/4/6
f 2729/4/5 2730/4/5 2731/4/5 2732/4/5
f 2733/4/6 2734/4/6 2735/4/6 2736/4/6
f 2737/4/2 2738/4/2 2739/4/2 2740/4/2
f 2741/4/5 2742/4/5 2743/4/5 2744/4/5
f 2745/4/6 2746/4/6 2747/4/6 2748/4/6
f 2749/2/1 2750/2/1 2751/2/1 2752/2/1
f 2753/2/5 2754/2/5 2755/2/5 2756/2/5
f 2757/2/6 2758/2/6 2759/2/6 2760/2/6
f 2761/3/2 2762/3/2 2763/3/2 2764/3/2
f 2765/3/3 2766/3/3 2767/3/3 2768/3/3
f 2769/3/4 2770/3/4 2771/3/4 2772/3/4
f 2773/3/5 2774/3/5 2775/3/5 2776/3/5
f 2777/3/6 2778/3/6 2779/3/6 2780/3/6
f 2781/3/1 2782/3/1 2783/3/1 2784/3/1
f 2785/3/4 2786/3/4 2787/3/4 2788/3/4
f 2789/3/5 2790/3/5 2791/3/5 2792/3/5
f 2793/3/6 2794/3/6 2795/3/6 2796/3/6
f 2797/3/4 2798/3/4 2799/3/4 2800/3/4
f 2801/3/5 2802/3/5 2803/3/5 2804/3/5
f 2805/3/6 2806/3/6 2807/3/6 2808/3/6
f 2809/3/3 2810/3/3 2811/3/3 2812/3/3
f 2813/3/4 2814/3/4 2815/3/4 2816/3/4
f 2817/3/5 2818/3/5 2819/3/5 2820/3/5
f 2821/3/6 2822/3/6 2823/3/6 2824/3/6
f 2825/1/5 2826/1/5 2827/1/5 2828/1/5
f 2829/1/6 2830/1/6 2831/1/6 2832/1/6
f 2833/2/2 2834/2/2 2835/2/2 2836/2/2
f 2837/2/5 2838/2/5 2839/2/5 2840/2/5
f 2841/2/6 2842/2/6 2843/2/6 2844/2/6
f 2845/4/1 2846/4/1 2847/4/1 2848/4/1
f 2849/4/5 2850/4/5 2851/4/5 2852/4/5
f 2853/4/6 2854/4/6 2855/4/6 2856/4/6
f 2857/4/5 2858/4/5 2859/4/5 2860/4/5
f 2861/4/6 2862/4/6 2863/4/6 2864/4/6
f 2865/4/4 2866/4/4 2867/4/4 2868/4/4
f 2869/4/5 2870/4/5 2871/4/5 2872/4/5
f 2873/4/6 2874/4/6 2875/4/6 2876/4/6
f 2877/4/2 2878/4/2 2879/4/2 2880/4/2
f 2881/4/5 2882/4/5 2883/4/5 2884/4/5
f 2885/4/6 2886/4/6 2887/4/6 2888/4/6
f 2889/2/1 2890/2/1 2891/2/1 2892/2/1
f 2893/2/5 2894/2/5 2895/2/5 2896/2/5
f 2897/2/6 2898/2/6 2899/2/6 2900/2/6
f 2901/1/5 2902/1/5 2903/1/5 2904/1/5
f 2905/1/6 2906/1/6 2907/1/6 2908/1/6
f 2909/3/3 2910/3/3 2911/3/3 2912/3/3
f 2913/3/4 2914/3/4 2915/3/4 2916/3/4
f 2917/3/5 2918/3/5 2919/3/5 2920/3/5
f 2921/3/6 2922/3/6 2923/3/6 2924/3/6
f 2925/3/2 2926/3/2 2927/3/2 2928/3/2
f 2929/3/4 2930/3/4 2931/3/4 2932/3/4
f 2933/3/5 2934/3/5 2935/3/5 2936/3/5
f 2937/3/6 2938/3/6 2939/3/6 2940/3/6
f 2941/3/1 2942/3/1 2943/3/1 2944/3/1
f 2945/3/4 2946/3/4 2947/3/4 2948/3/4
f 2949/3/5 2950/3/5 2951/3/5 2952/3/5
f 2953/3/6 2954/3/6 2955/3/6 2956/3/6
f 2957/3/4 2958/3/4 2959/3/4 2960/3/4
f 2961/3/5 2962/3/5 2963/3/5 2964/3/5
f 2965/3/6 2966/3/6 2967/3/6 2968/3/6
f 2969/3/3 2970/3/3 2971/3/3 2972/3/3
f 2973/3/4 2974/3/4 2975/3/4 2976/3/4
f 2977/3/5 2978/3/5 2979/3/5 2980/3/5
f 2981/3/6 2982/3/6 2983/3/6 2984/3/6
f 2985/3/3 2986/3/3 2987/3/3 2988/3/3
f 2989/3/4 2990/3/4 2991/3/4 2992/3/4
f 2993/3/5 2994/3/5 2995/3/5 2996/3/5
f 2997/3/6 2998/3/6 2999/3/6 3000/3/6
f 3001/3/3 3002/3/3 3003/3/3 3004/3/3
f 3005/3/4 3006/3/4 3007/3/4 3008/3/4
f 3009/3/5 3010/3/5 3011/3/5 3012/3/5
f 3013/3/6 3014/3/6 3015/3/6 3016/3/6
f 3017/1/5 3018/1/5 3019/1/5 3020/1/5
f 3021/1/6 3022/1/6 3023/1/6 3024/1/6
f 3025/2/2 3026/2/2 3027/2/2 3028/2/2
f 3029/2/5 3030/2/5 3031/2/5 3032/2/5
f 3033/2/6 3034/2/6 3035/2/6 3036/2/6
f 3037/2/1 3038/2/1 3039/2/1 3040/2/1
f 3041/2/5 3042/2/5 3043/2/5 3044/2/5
f 3045/2/6 3046/2/6 3047/2/6 3048/2/6
f 3049/3/3 3050/3/3 3051/3/3 3052/3/3
f 3053/3/4 3054/3/4 3055/3/4 3056/3/4
f 3057/3/5 3058/3/5 3059/3/5 3060/3/5
f 3061/3/6 3062/3/6 3063/3/6 3064/3/6
f 3065/3/3 3066/3/3 3067/3/3 3068/3/3
f 3069/3/4 3070/3/4 3071/3/4 3072/3/4
f 3073/3/5 3074/3/5 3075/3/5 3076/3/5
f 3077/3/6 3078/3/6 3079/3/6 3080/3/6
f 3081/3/4 3082/3/4 3083/3/4 3084/3/4
f 3085/3/5 3086/3/5 3087/3/5 3088/3/5
f 3089/3/6 3090/3/6 3091/3/6 3092/3/6
f 3093/3/2 3094/3/2 3095/3/2 3096/3/2
f 3097/3/4 3098/3/4 3099/3/4 3100/3/4
f 3101/3/5 3102/3/5 3103/3/5 3104/3/5
f 3105/3/6 3106/3/6 3107/3/6 3108/3/6
f 3109/3/1 3110/3/1 3111/3/1 3112/3/1
f 3113/3/4 3114/3/4 3115/3/4 3116/3/4
f 3117/3/5 3118/3/5 3119/3/5 3120/3/5
f 3121/3/6 3122/3/6 3123/3/6 3124/3/6
f 3125/3/4 3126/3/4 3127/3/4 3128/3/4
f 3129/3/5 3130/3/5 3131/3/5 3132/3/5
f 3133/3/6 3134/3/6 3135/3/6 3136/3/6
f 3137/3/3 3138/3/3 3139/3/3 3140/3/3
f 3141/3/4 3142/3/4 3143/3/4 3144/3/4
f 3145/3/5 3146/3/5 3147/3/5 3148/3/5
f 3149/3/6 3150/3/6 3151/3/6 3152/3/6
f 3153/3/2 3154/3/2 3155/3/2 3156/3/2
f 3157/3/4 3158/3/4 3159/3/4 3160/3/4
f 3161/3/5 3162/3/5 3163/3/5 3164/3/5
f 3165/3/6 3166/3/6 3167/3/6 3168/3/6

