# generated by vox_to_obj_exporter --round
# scale=0.1 center=false ground=false y_up=true
# welded, edge-relaxed, smooth vertex normals

mtllib Fight_749.mtl
usemtl palette

# verts
v 23.62167 7.17833 -2.57833
v 23.62167 7.12167 -2.57833
v 23.62167 7.12167 -2.52167
v 23.62167 7.17833 -2.52167
v 23.7 7.18375 -2.51625
v 23.7 7.18375 -2.58375
v 23.7 7.11625 -2.58375
v 23.7 7.11625 -2.51625
v 23.8 7.18375 -2.51625
v 23.8 7.18375 -2.58375
v 23.8 7.1 -2.587
v 23.8 7.1 -2.513
v 23.82167 7.02167 -2.57833
v 23.82167 7.02167 -2.52167
v 23.9 7.01625 -2.58375
v 23.9 7.01625 -2.51625
v 23.9 7.1 -2.5
v 23.9 7.1 -2.6
v 23.9 7.18375 -2.51625
v 23.9 7.18375 -2.58375
v 24 7 -2.587
v 24 7 -2.5
v 23.98375 7.1 -2.48375
v 24 7.1 -2.6
v 24 7.187 -2.5
v 24 7.18375 -2.58375
v 24.02167 7.02167 -2.42167
v 24.01625 7.1 -2.41625
v 24.07833 6.97833 -2.47833
v 24.1 7 -2.413
v 24.1 7.1 -2.4
v 24.02167 7.17833 -2.42167
v 24.1 7.18375 -2.41625
v 24.1 7.2 -2.5
v 24.02167 6.92167 -2.57833
v 24.02167 6.92167 -2.52167
v 24.1 6.91625 -2.58375
v 24.1 6.913 -2.5
v 24.1 7 -2.613
v 24.1 7.1 -2.613
v 24.1 7.18375 -2.58375
v 24.12167 6.92167 -2.42167
v 24.2 6.9 -2.5
v 24.2 6.91625 -2.41625
v 24.2 7 -2.4
v 24.2 7.1 -2.413
v 24.17833 7.17833 -2.42167
v 24.22167 7.12167 -2.47833
v 24.2 7.187 -2.5
v 24.2 6.91625 -2.58375
v 24.2 6.98375 -2.61625
v 24.2 7.18375 -2.58375
v 24.2 7.11625 -2.61625
v 24.12167 7.07833 -2.67833
v 24.12167 7.02167 -2.67833
v 24.2 7.08375 -2.68375
v 24.2 7.01625 -2.68375
v 24.3 6.887 -2.5
v 24.3 6.91625 -2.41625
v 24.3 7 -2.4
v 24.3 7.08375 -2.41625
v 24.3 7.113 -2.5
v 24.3 6.9 -2.587
v 24.3 7 -2.613
v 24.27833 7.17833 -2.52167
v 24.3 7.1 -2.6
v 24.27833 7.17833 -2.57833
v 24.27833 7.02167 -2.67833
v 24.27833 7.07833 -2.67833
v 24.4 6.88375 -2.48375
v 24.4 6.91625 -2.41625
v 24.4 7 -2.4
v 24.4 7.08375 -2.41625
v 24.4 7.1 -2.5
v 24.32167 6.82167 -2.57833
v 24.32167 6.82167 -2.52167
v 24.4 6.81625 -2.58375
v 24.4 6.81625 -2.51625
v 24.4 6.9 -2.613
v 24.4 7 -2.613
v 24.4 7.08375 -2.58375
v 24.5 6.88375 -2.48375
v 24.5 6.91625 -2.41625
v 24.5 7 -2.413
v 24.47833 7.07833 -2.42167
v 24.52167 7.02167 -2.47833
v 24.5 7.087 -2.5
v 24.5 6.81625 -2.58375
v 24.5 6.81625 -2.51625
v 24.5 6.9 -2.613
v 24.5 7.08375 -2.58375
v 24.5 7 -2.613
v 24.42167 6.97833 -2.67833
v 24.42167 6.92167 -2.67833
v 24.47833 6.92167 -2.67833
v 24.47833 6.97833 -2.67833
v 24.57833 6.97833 -2.42167
v 24.57833 6.92167 -2.42167
v 24.6 6.9 -2.5
v 24.6 7 -2.487
v 24.6 6.8 -2.513
v 24.6 6.8 -2.587
v 24.6 6.9 -2.587
v 24.6 7 -2.6
v 24.6 7.08375 -2.51625
v 24.6 7.08375 -2.58375
v 24.62167 6.72167 -2.57833
v 24.62167 6.72167 -2.52167
v 24.7 6.78375 -2.51625
v 24.7 6.78375 -2.58375
v 24.7 6.71625 -2.58375
v 24.7 6.71625 -2.51625
v 24.7 7 -2.513
v 24.67833 6.92167 -2.52167
v 24.67833 6.92167 -2.57833
v 24.7 7 -2.587
v 24.7 7.08375 -2.51625
v 24.7 7.08375 -2.58375
v 24.8 6.78375 -2.51625
v 24.8 6.78375 -2.58375
v 24.8 6.7 -2.587
v 24.8 6.7 -2.513
v 24.8 7.08375 -2.51625
v 24.8 7.08375 -2.58375
v 24.8 7.01625 -2.58375
v 24.8 7.01625 -2.51625
v 24.82167 6.62167 -2.57833
v 24.82167 6.62167 -2.52167
v 24.9 6.61625 -2.58375
v 24.9 6.61625 -2.51625
v 24.9 6.7 -2.513
v 24.9 6.7 -2.587
v 24.87833 6.77833 -2.52167
v 24.87833 6.77833 -2.57833
v 24.9 7.08375 -2.51625
v 24.9 7.08375 -2.58375
v 24.9 7.01625 -2.58375
v 24.9 7.01625 -2.51625
v 24.97833 6.67833 -2.52167
v 24.97833 6.62167 -2.52167
v 24.97833 6.62167 -2.57833
v 24.97833 6.67833 -2.57833
v 25 7.08375 -2.51625
v 25 7.08375 -2.58375
v 25 7.01625 -2.58375
v 25 7.01625 -2.51625
v 25.1 7.08375 -2.51625
v 25.1 7.08375 -2.58375
v 25.1 7.01625 -2.58375
v 25.1 7.01625 -2.51625
v 25.2 7.08375 -2.51625
v 25.2 7.08375 -2.58375
v 25.2 7.01625 -2.58375
v 25.2 7.01625 -2.51625
v 25.3 7.08375 -2.51625
v 25.3 7.08375 -2.58375
v 25.3 7.01625 -2.58375
v 25.3 7.01625 -2.51625
v 25.37833 7.07833 -2.52167
v 25.37833 7.02167 -2.52167
v 25.37833 7.02167 -2.57833
v 25.37833 7.07833 -2.57833
v 25.72167 3.07833 -2.57833
v 25.72167 3.02167 -2.57833
v 25.72167 3.02167 -2.52167
v 25.72167 3.07833 -2.52167
v 25.8 3.1 -2.513
v 25.8 3.1 -2.587
v 25.8 3.01625 -2.58375
v 25.8 3.01625 -2.51625
v 25.9 3.01625 -2.58375
v 25.9 3.01625 -2.51625
v 25.9 3.1 -2.5
v 25.9 3.1 -2.6
v 25.82167 3.17833 -2.57833
v 25.82167 3.17833 -2.52167
v 25.9 3.18375 -2.51625
v 25.9 3.18375 -2.58375
v 26 3.01625 -2.58375
v 26 3.01625 -2.51625
v 26 3.1 -2.487
v 26 3.1 -2.6
v 26 3.2 -2.5
v 26 3.2 -2.587
v 26.02167 3.12167 -2.42167
v 26.02167 3.17833 -2.42167
v 26.07833 3.17833 -2.42167
v 26.07833 3.12167 -2.42167
v 26.1 3.1 -2.5
v 26.1 3.2 -2.487
v 26.07833 3.02167 -2.52167
v 26.07833 3.02167 -2.57833
v 26.1 3.1 -2.587
v 26.1 3.2 -2.6
v 26.02167 3.27833 -2.57833
v 26.02167 3.27833 -2.52167
v 26.1 3.28375 -2.51625
v 26.1 3.28375 -2.58375
v 26.2 3.11625 -2.58375
v 26.2 3.11625 -2.51625
v 26.2 3.2 -2.487
v 26.2 3.2 -2.6
v 26.2 3.3 -2.5
v 26.2 3.3 -2.587
v 26.22167 3.22167 -2.42167
v 26.22167 3.27833 -2.42167
v 26.3 3.28375 -2.41625
v 26.3 3.31625 -2.48375
v 26.3 3.18375 -2.48375
v 26.3 3.21625 -2.41625
v 26.3 3.11625 -2.58375
v 26.3 3.11625 -2.51625
v 26.3 3.2 -2.6
v 26.3 3.3 -2.6
v 26.22167 3.37833 -2.57833
v 26.22167 3.37833 -2.52167
v 26.3 3.38375 -2.51625
v 26.3 3.38375 -2.58375
v 26.37833 3.27833 -2.42167
v 26.37833 3.22167 -2.42167
v 26.4 3.2 -2.487
v 26.4 3.3 -2.5
v 26.4 3.11625 -2.58375
v 26.4 3.11625 -2.51625
v 26.4 3.2 -2.6
v 26.4 3.3 -2.587
v 26.4 3.4 -2.513
v 26.4 3.4 -2.587
v 26.5 3.11625 -2.58375
v 26.5 3.11625 -2.51625
v 26.5 3.2 -2.513
v 26.5 3.2 -2.587
v 26.47833 3.27833 -2.52167
v 26.47833 3.27833 -2.57833
v 26.42167 3.47833 -2.57833
v 26.42167 3.47833 -2.52167
v 26.5 3.48375 -2.51625
v 26.5 3.48375 -2.58375
v 26.5 3.41625 -2.58375
v 26.5 3.41625 -2.51625
v 26.6 3.18375 -2.51625
v 26.6 3.18375 -2.58375
v 26.6 3.11625 -2.58375
v 26.6 3.11625 -2.51625
v 26.6 3.5 -2.513
v 26.57833 3.42167 -2.52167
v 26.57833 3.42167 -2.57833
v 26.6 3.5 -2.587
v 26.7 3.2 -2.513
v 26.67833 3.12167 -2.52167
v 26.67833 3.12167 -2.57833
v 26.7 3.2 -2.587
v 26.62167 3.57833 -2.57833
v 26.62167 3.57833 -2.52167
v 26.67833 3.57833 -2.52167
v 26.67833 3.52167 -2.52167
v 26.67833 3.52167 -2.57833
v 26.67833 3.57833 -2.57833
v 26.62167 10.27833 -2.57833
v 26.62167 10.22167 -2.57833
v 26.62167 10.22167 -2.52167
v 26.62167 10.27833 -2.52167
v 26.67833 10.27833 -2.52167
v 26.7 10.2 -2.513
v 26.7 10.2 -2.587
v 26.67833 10.27833 -2.57833
v 26.72167 3.27833 -2.57833
v 26.72167 3.27833 -2.52167
v 26.77833 3.27833 -2.52167
v 26.77833 3.22167 -2.52167
v 26.77833 3.22167 -2.57833
v 26.77833 3.27833 -2.57833
v 26.71625 10.1 -2.58375
v 26.72167 10.02167 -2.57833
v 26.72167 10.02167 -2.52167
v 26.71625 10.1 -2.51625
v 26.8 10 -2.587
v 26.8 10 -2.513
v 26.8 10.1 -2.513
v 26.8 10.1 -2.587
v 26.77833 10.17833 -2.52167
v 26.77833 10.17833 -2.57833
v 26.81625 9.9 -2.58375
v 26.82167 9.82167 -2.57833
v 26.82167 9.82167 -2.52167
v 26.81625 9.9 -2.51625
v 26.9 9.8 -2.587
v 26.9 9.8 -2.513
v 26.9 9.9 -2.5
v 26.9 9.9 -2.6
v 26.9 10 -2.5
v 26.9 10 -2.6
v 26.9 10.08375 -2.51625
v 26.9 10.08375 -2.58375
v 26.91625 9.7 -2.58375
v 26.92167 9.62167 -2.57833
v 26.92167 9.62167 -2.52167
v 26.91625 9.7 -2.51625
v 26.98375 9.7 -2.51625
v 27 9.6 -2.513
v 27 9.6 -2.587
v 26.98375 9.7 -2.58375
v 27 9.8 -2.513
v 27 9.8 -2.587
v 27 9.9 -2.5
v 27 9.9 -2.6
v 27 10 -2.513
v 27 10 -2.587
v 26.97833 10.07833 -2.52167
v 26.97833 10.07833 -2.57833
v 27.02167 9.52167 -2.57833
v 27.02167 9.52167 -2.52167
v 27.07833 9.57833 -2.52167
v 27.1 9.5 -2.513
v 27.1 9.5 -2.587
v 27.07833 9.57833 -2.57833
v 27.1 9.81625 -2.58375
v 27.1 9.81625 -2.51625
v 27.1 9.9 -2.513
v 27.1 9.9 -2.587
v 27.07833 9.97833 -2.52167
v 27.07833 9.97833 -2.57833
v 27.11625 9.4 -2.58375
v 27.12167 9.32167 -2.57833
v 27.12167 9.32167 -2.52167
v 27.11625 9.4 -2.51625
v 27.18375 9.4 -2.51625
v 27.17833 9.32167 -2.52167
v 27.17833 9.32167 -2.57833
v 27.18375 9.4 -2.58375
v 27.17833 9.47833 -2.52167
v 27.17833 9.47833 -2.57833
v 27.17833 9.87833 -2.52167
v 27.2 9.8 -2.513
v 27.2 9.8 -2.587
v 27.17833 9.87833 -2.57833
v 27.22167 9.72167 -2.57833
v 27.22167 9.72167 -2.52167
v 27.27833 9.77833 -2.52167
v 27.3 9.7 -2.513
v 27.3 9.7 -2.587
v 27.27833 9.77833 -2.57833
v 27.32167 9.62167 -2.57833
v 27.32167 9.62167 -2.52167
v 27.37833 9.67833 -2.52167
v 27.4 9.6 -2.513
v 27.4 9.6 -2.587
v 27.37833 9.67833 -2.57833
v 27.42167 9.52167 -2.57833
v 27.42167 9.52167 -2.52167
v 27.5 9.58375 -2.51625
v 27.5 9.58375 -2.58375
v 27.5 9.51625 -2.58375
v 27.5 9.51625 -2.51625
v 27.57833 9.57833 -2.52167
v 27.57833 9.52167 -2.52167
v 27.57833 9.52167 -2.57833
v 27.57833 9.57833 -2.57833
v 28.51625 0.4 -2.58375
v 28.52167 0.32167 -2.57833
v 28.52167 0.32167 -2.52167
v 28.51625 0.4 -2.51625
v 28.6 0.4 -2.513
v 28.57833 0.32167 -2.52167
v 28.57833 0.32167 -2.57833
v 28.6 0.4 -2.587
v 28.52167 0.47833 -2.57833
v 28.52167 0.47833 -2.52167
v 28.6 0.5 -2.513
v 28.6 0.5 -2.587
v 28.7 0.5 -2.513
v 28.67833 0.42167 -2.52167
v 28.67833 0.42167 -2.57833
v 28.7 0.5 -2.587
v 28.61625 0.6 -2.58375
v 28.61625 0.6 -2.51625
v 28.7 0.6 -2.5
v 28.7 0.6 -2.6
v 28.62167 0.67833 -2.57833
v 28.62167 0.67833 -2.52167
v 28.7 0.7 -2.513
v 28.7 0.7 -2.587
v 28.8 0.6 -2.513
v 28.77833 0.52167 -2.52167
v 28.77833 0.52167 -2.57833
v 28.8 0.6 -2.587
v 28.8 0.7 -2.487
v 28.8 0.7 -2.6
v 28.71625 0.8 -2.58375
v 28.71625 0.8 -2.51625
v 28.8 0.8 -2.487
v 28.8 0.8 -2.6
v 28.72167 0.87833 -2.57833
v 28.72167 0.87833 -2.52167
v 28.8 0.9 -2.513
v 28.8 0.9 -2.587
v 28.82167 0.72167 -2.42167
v 28.82167 0.77833 -2.42167
v 28.87833 0.77833 -2.42167
v 28.87833 0.72167 -2.42167
v 28.9 0.7 -2.5
v 28.9 0.8 -2.487
v 28.87833 0.62167 -2.52167
v 28.87833 0.62167 -2.57833
v 28.9 0.7 -2.587
v 28.9 0.8 -2.6
v 28.9 0.9 -2.513
v 28.9 0.9 -2.587
v 28.81625 1 -2.58375
v 28.81625 1 -2.51625
v 28.88375 1 -2.51625
v 28.88375 1 -2.58375
v 28.82167 1.07833 -2.57833
v 28.82167 1.07833 -2.52167
v 28.87833 1.07833 -2.52167
v 28.87833 1.07833 -2.57833
v 29 0.8 -2.513
v 28.97833 0.72167 -2.52167
v 28.97833 0.72167 -2.57833
v 29 0.8 -2.587
v 29 0.88375 -2.51625
v 29 0.88375 -2.58375
v 29.07833 0.87833 -2.52167
v 29.07833 0.82167 -2.52167
v 29.07833 0.82167 -2.57833
v 29.07833 0.87833 -2.57833
v 31.02167 10.37833 -2.57833
v 31.02167 10.32167 -2.57833
v 31.02167 10.32167 -2.52167
v 31.02167 10.37833 -2.52167
v 31.1 10.4 -2.513
v 31.1 10.4 -2.587
v 31.1 10.31625 -2.58375
v 31.1 10.31625 -2.51625
v 31.18375 10.4 -2.51625
v 31.17833 10.32167 -2.52167
v 31.17833 10.32167 -2.57833
v 31.18375 10.4 -2.58375
v 31.11625 10.5 -2.58375
v 31.11625 10.5 -2.51625
v 31.18375 10.5 -2.51625
v 31.18375 10.5 -2.58375
v 31.11625 10.6 -2.58375
v 31.11625 10.6 -2.51625
v 31.18375 10.6 -2.51625
v 31.18375 10.6 -2.58375
v 31.11625 10.7 -2.58375
v 31.11625 10.7 -2.51625
v 31.18375 10.7 -2.51625
v 31.18375 10.7 -2.58375
v 31.11625 10.8 -2.58375
v 31.11625 10.8 -2.51625
v 31.2 10.8 -2.513
v 31.2 10.8 -2.587
v 31.12167 10.87833 -2.57833
v 31.12167 10.87833 -2.52167
v 31.2 10.9 -2.513
v 31.2 10.9 -2.587
v 31.3 10.9 -2.513
v 31.27833 10.82167 -2.52167
v 31.27833 10.82167 -2.57833
v 31.3 10.9 -2.587
v 31.21625 11 -2.58375
v 31.21625 11 -2.51625
v 31.3 11 -2.5
v 31.3 11 -2.6
v 31.22167 11.07833 -2.57833
v 31.22167 11.07833 -2.52167
v 31.3 11.1 -2.513
v 31.3 11.1 -2.587
v 31.4 10.9 -2.587
v 31.4 10.9 -2.513
v 31.4 11 -2.5
v 31.4 11 -2.6
v 31.4 11.1 -2.513
v 31.4 11.1 -2.587
v 31.31625 11.2 -2.58375
v 31.31625 11.2 -2.51625
v 31.38375 11.2 -2.51625
v 31.38375 11.2 -2.58375
v 31.31625 11.3 -2.58375
v 31.31625 11.3 -2.51625
v 31.38375 11.3 -2.51625
v 31.38375 11.3 -2.58375
v 31.32167 11.37833 -2.57833
v 31.32167 11.37833 -2.52167
v 31.37833 11.37833 -2.52167
v 31.37833 11.37833 -2.57833
v 31.41625 10.8 -2.58375
v 31.42167 10.72167 -2.57833
v 31.42167 10.72167 -2.52167
v 31.41625 10.8 -2.51625
v 31.48375 10.8 -2.51625
v 31.5 10.7 -2.513
v 31.5 10.7 -2.587
v 31.48375 10.8 -2.58375
v 31.48375 10.9 -2.51625
v 31.48375 10.9 -2.58375
v 31.48375 11 -2.51625
v 31.48375 11 -2.58375
v 31.47833 11.07833 -2.52167
v 31.47833 11.07833 -2.57833
v 31.51625 10.5 -2.58375
v 31.52167 10.42167 -2.57833
v 31.52167 10.42167 -2.52167
v 31.51625 10.5 -2.51625
v 31.6 10.41625 -2.58375
v 31.6 10.41625 -2.51625
v 31.6 10.5 -2.513
v 31.6 10.5 -2.587
v 31.51625 10.6 -2.58375
v 31.51625 10.6 -2.51625
v 31.58375 10.6 -2.51625
v 31.58375 10.6 -2.58375
v 31.57833 10.67833 -2.52167
v 31.57833 10.67833 -2.57833
v 31.67833 10.47833 -2.52167
v 31.67833 10.42167 -2.52167
v 31.67833 10.42167 -2.57833
v 31.67833 10.47833 -2.57833

# texcoords
vt 0.1582 0.5
vt 0.2207 0.5
vt 0.22461 0.5
vt 0.20117 0.5
vt 0.20508 0.5
vt 0.20898 0.5
vt 0.03711 0.5
vt 0.21289 0.5

# normals
vn -1 0 -0
vn -0.069 0.9976 -0
vn -0.0345 0.9994 -0
vn -0.069 -0.9976 -0
vn -0.1148 -0.9934 -0
vn -0.069 0 0.9976
vn -0.0418 0.0107 0.9991
vn -0.0418 0.0107 -0.9991
vn -0.069 0 -0.9976
vn 0 1 -0
vn -0.1604 -0.9871 -0
vn -0.0622 -0.0094 0.998
vn -0.0395 0.0685 0.9969
vn -0.0395 0.0685 -0.9969
vn -0.0622 -0.0094 -0.998
vn -0.9638 -0.2666 -0
vn -0.1063 -0.1649 0.9806
vn -0.1468 -0.1762 0.9733
vn -0.1351 -0.0093 0.9908
vn -0.0506 -0.0041 -0.9987
vn -0.0676 -0.1612 -0.9846
vn -0.1063 -0.1649 -0.9806
vn -0.0073 0.9999 -0.0107
vn -0.1196 0.1581 0.9802
vn -0.0323 0.1531 -0.9877
vn -0.2416 -0.9529 0.1836
vn -0.4978 -0.4549 0.7384
vn -0.4866 -0.0543 0.872
vn -0.0719 0.0589 -0.9957
vn -0.1325 -0.1566 -0.9787
vn -0.0622 0.998 0.0094
vn -0.0395 0.9969 -0.0685
vn -0.4889 0.0686 0.8696
vn -0.6254 0.2095 0.7517
vn -0.0313 0.2263 -0.9735
vn -0.768 -0.0667 0.637
vn -0.6485 -0.4448 0.6178
vn -0.5626 -0.46 0.6869
vn -0.7627 -0.0362 0.6457
vn -0.698 -0.5869 0.4104
vn -0.5982 -0.594 0.5379
vn -0.5599 -0.5859 0.5859
vn -0.5133 -0.5456 0.6625
vn -0.4636 -0.0481 0.8847
vn -0.6202 -0.1501 0.77
vn -0.3246 -0.1714 0.9302
vn -0.0492 0.0492 0.9976
vn -0.7652 0.0802 0.6387
vn -0.9318 0.0056 0.3629
vn -0.921 0.1668 0.352
vn -0.1063 0.9806 0.1649
vn 0 0.9861 0.1659
vn 0 0.9997 0.0251
vn -0.1357 0.1357 0.9814
vn -0.1515 0.0148 0.9884
vn -0.0148 0.1515 0.9884
vn -0.8275 -0.4907 0.2729
vn -0.0871 -0.9959 -0.0231
vn -0.0759 -0.9947 -0.0693
vn -0.0866 -0.9962 0.0089
vn -0.3128 -0.3595 0.8792
vn -0.5133 -0.6625 0.5456
vn -0.148 -0.4364 -0.8875
vn -0.111 -0.3134 -0.9431
vn -0.1754 -0.2464 -0.9532
vn -0.1018 0.1958 -0.9754
vn -0.1389 -0.2317 -0.9628
vn 0 0.9933 -0.1156
vn -0.0543 0.3202 -0.9458
vn -0.1189 0.4119 -0.9035
vn -0.6483 -0.3783 0.6608
vn -0.8796 -0.3363 0.3363
vn -0.5366 -0.5225 0.6627
vn -0.1063 -0.9806 0.1649
vn -0.1633 -0.9519 0.2591
vn -0.0963 -0.9947 0.0367
vn -0.0846 -0.9733 0.2136
vn -0.1639 -0.3229 0.9321
vn -0.0532 -0.178 0.9826
vn -0.0196 -0.0501 0.9986
vn -0.0908 -0.0908 0.9917
vn 0.0452 0.1078 0.9931
vn 0.8796 0.3363 0.3363
vn 0.5941 0.7085 0.381
vn 0.5099 0.6252 0.5909
vn 0.6363 0.3943 0.663
vn 0.1063 0.9806 0.1649
vn 0.1545 0.9539 0.2571
vn 0.0878 0.3509 0.9323
vn 0.1063 0.1649 0.9806
vn -0.105 -0.9844 -0.1414
vn -0.0125 -0.6897 -0.724
vn -0.0721 -0.6354 -0.7688
vn 0.0866 0.9962 0.0089
vn 0.0759 0.9947 -0.0693
vn 0.0553 0.3728 -0.9263
vn 0.0372 0.7026 -0.7106
vn -0.9492 0 -0.3148
vn -0.1297 0.9106 -0.3925
vn -0.086 0.56 -0.824
vn 0.0132 0.9239 -0.3823
vn -0.127 -0.5554 -0.8218
vn -0.1297 -0.9106 -0.3925
vn 0 -0.9183 -0.3958
vn 0 0 -1
vn -0.1077 -0.9151 0.3886
vn -0.0543 -0.9458 0.3202
vn -0.017 -0.4871 0.8732
vn 0.0073 -0.0085 0.9999
vn 0.4696 0.5754 0.6696
vn 0.0912 0.7918 0.604
vn 0.1903 0.909 0.3708
vn 0.0144 0.1739 0.9847
vn -0.0964 -0.8849 -0.4558
vn -0.1453 -0.9752 -0.1671
vn -0.0871 -0.9829 0.1621
vn 0.0283 -0.3286 -0.944
vn -0.1017 -0.2362 -0.9664
vn -0.0229 -0.3539 -0.935
vn 0.9571 0.2887 -0.024
vn 0.9743 0.1591 -0.1591
vn 0.0871 0.9959 -0.0231
vn 0.5019 0.6722 0.5443
vn 0.1899 0.8226 0.5359
vn 0.2854 0.3856 0.8774
vn 0.1558 0.3642 -0.9182
vn 0.161 0.7083 -0.6873
vn 0.9571 0.024 -0.2887
vn 0.1558 0.9182 -0.3642
vn 0.1297 -0.9106 -0.3925
vn 0.071 -0.6785 -0.7312
vn 0.069 0 -0.9976
vn -0.0314 -0.6568 0.7534
vn -0.047 -0.7102 0.7024
vn -0.0169 -0.7472 0.6644
vn 0.0053 -0.6079 0.794
vn 0.0433 0.0126 0.999
vn 0.1199 0.9457 0.3021
vn 0.0846 0.9733 0.2136
vn 0.0988 0.9943 0.0396
vn 0.0777 0.4806 0.8735
vn 0.0532 0.178 0.9826
vn -0.9577 -0.2865 -0.0259
vn -0.0345 -0.9994 -0
vn -0.086 -0.824 0.56
vn -0.1297 -0.3925 0.9106
vn -0.065 -0.4141 0.9079
vn -0.084 -0.4579 -0.885
vn -0.0881 -0.2894 -0.9531
vn -0.0106 0.1451 -0.9894
vn -0.0106 -0.0807 -0.9967
vn 0.1718 0.831 -0.5291
vn 0.135 0.979 0.153
vn 0.11 0.9846 -0.1355
vn 0.0486 0.2771 -0.9596
vn -0.0089 0.3933 -0.9194
vn 0.1491 0.5495 -0.8221
vn 0.0595 -0.6855 0.7257
vn 0.0833 -0.7316 0.6766
vn 0.0239 -0.4481 0.8936
vn 0.0574 -0.3939 0.9174
vn 0.0866 0.0089 0.9962
vn 0.6363 0.663 0.3943
vn 0.5099 0.5909 0.6252
vn 0.5941 0.381 0.7085
vn 0.1044 0.9559 0.2745
vn 0.1545 0.2571 0.9539
vn -0.0805 -0.9968 -0
vn 0.0314 -0.3494 0.9365
vn 0.0814 -0.4205 -0.9036
vn 0.0498 -0.2443 -0.9684
vn 0.0622 0.998 0.0094
vn 0.0395 0.9969 -0.0685
vn 0.0313 0.296 -0.9547
vn 0.0717 0.4178 -0.9057
vn 0.9492 0 -0.3148
vn 0 0.9492 -0.3148
vn 0.036 0.5585 -0.8287
vn 0.0231 0.5696 -0.8216
vn -0.0651 -0.5665 -0.8215
vn 0 -0.9492 -0.3148
vn 0 -0.7127 -0.7015
vn 0.9571 -0.024 0.2887
vn 0.872 -0.0675 0.4848
vn 0.7008 -0.0984 0.7066
vn 0.5019 0.5443 0.6722
vn 0.2854 0.8774 0.3856
vn 0.2144 0.5126 0.8314
vn 0.0782 -0.913 0.4005
vn 0.2281 -0.6906 0.6863
vn 0.1558 -0.9182 0.3642
vn 0.0759 -0.0693 0.9947
vn 0.0871 -0.0231 0.9959
vn 0.9892 -0.0121 0.1459
vn 1 0 -0
vn 0.0216 -0.1629 0.9864
vn 0.1829 -0.4952 0.8493
vn 0.1421 -0.1188 -0.9827
vn 0.0398 -0.1096 -0.9932
vn 0.0976 -0.185 -0.9779
vn 0.115 0.045 -0.9923
vn 0.0861 0.1791 -0.98
vn 0.0073 0.9999 -0.0107
vn 0.4696 0.6696 0.5754
vn 0.2408 0.3521 0.9045
vn 0.1522 0.2659 0.9519
vn 0.0637 0.189 -0.9799
vn 0.1604 0.9871 -0
vn 0.0805 0.9968 -0
vn -0.0197 -0.0622 0.9979
vn -0.0171 -0.0204 0.9996
vn -0.0171 -0.0204 -0.9996
vn -0.0197 -0.0622 -0.9979
vn 0.9638 -0.2666 -0
vn 0.7071 -0.7071 -0
vn 0.2152 -0.9588 0.1855
vn 0.2666 -0.9638 -0
vn 0.4367 0.1019 0.8938
vn 0.4465 -0.4171 0.7916
vn 0.2722 -0.1486 0.9507
vn 0.1399 0.0209 0.9899
vn 0.072 0.0004 -0.9974
vn 0.1357 -0.1357 -0.9814
vn 0.0709 0.1058 0.9919
vn 0.0395 0.0685 -0.9969
vn 0.0345 0.9994 -0
vn -0.0048 0.0072 1
vn 0.0091 0.0496 0.9987
vn 0.0091 0.0496 -0.9987
vn -0.0048 0.0072 -1
vn 0.1604 -0.9871 -0
vn 0.0805 -0.9968 -0
vn 0.0073 0.0107 0.9999
vn 0.0073 0.0107 -0.9999
vn 0 -1 -0
vn -0.0326 -0.0776 0.9964
vn 0.0273 -0.0504 0.9984
vn 0.0291 -0.0077 0.9995
vn 0.0291 -0.0077 -0.9995
vn 0.0273 -0.0504 -0.9984
vn -0.0326 -0.0776 -0.9964
vn 0.9638 0.2666 -0
vn 0.7071 0.7071 -0
vn 0.069 0.9976 -0
vn 0.0326 0.0776 0.9964
vn 0.0326 0.0776 -0.9964
vn 0 0 1
vn 0.2666 0.9638 -0
vn 0.069 -0.9976 -0
vn 0.0871 -0.0231 -0.9959
vn 0.0345 -0.9994 -0
vn 0.0345 0 0.9994
vn 0.0345 0 -0.9994
vn 0.069 0 0.9976
vn -0.2666 0.9638 -0
vn -0.7071 0.7071 -0
vn -0.0871 -0.0231 0.9959
vn -0.0759 -0.0693 0.9947
vn -0.0866 0.0089 0.9962
vn -0.0866 0.0089 -0.9962
vn -0.0759 -0.0693 -0.9947
vn -0.0871 -0.0231 -0.9959
vn -0.0637 -0.189 0.9799
vn -0.0989 -0.0144 0.995
vn -0.0506 0.0041 -0.9987
vn -0.0323 -0.1531 -0.9877
vn -0.9638 0.2666 -0
vn -0.1148 0.9934 -0
vn -0.1063 0.1649 0.9806
vn -0.1308 0.1602 0.9784
vn -0.0676 0.1612 -0.9846
vn -0.1063 0.1649 -0.9806
vn 0.0223 -0.2874 0.9575
vn -0.0252 -0.3975 0.9173
vn 0.0196 -0.0501 -0.9986
vn 0.0532 -0.178 -0.9826
vn -0.0934 0.9848 0.1462
vn -0.1604 0.9871 -0
vn -0.0381 -0.1431 0.989
vn -0.1316 0.2339 0.9633
vn -0.0452 0.1078 -0.9931
vn -0.978 0.1479 0.147
vn -0.9571 0.024 0.2887
vn 0.978 -0.1479 0.147
vn -0.1126 0.8718 0.4767
vn -0.024 0.9571 0.2887
vn -0.0738 0.715 0.6952
vn 0.024 -0.9571 0.2887
vn 0.0255 -0.5714 0.8203
vn 0.1126 -0.8718 0.4767
vn 0.107 -0.311 0.9444
vn 0.0853 -0.5585 0.8251
vn 0.0452 -0.1078 -0.9931
vn 0.1063 -0.1649 -0.9806
vn -0.0268 0.0417 -0.9988
vn -0.107 0.311 0.9444
vn -0.1083 0.5385 0.8356
vn -0.0383 0.3708 0.9279
vn -0.1021 0.2673 0.9582
vn 0.0934 -0.9848 0.1462
vn -0.0368 0.1071 0.9936
vn 0.1021 -0.2673 0.9582
vn 0.0258 -0.3021 0.9529
vn -0.05 -0.3673 0.9288
vn -0.0164 -0.0318 -0.9994
vn 0.0144 -0.1739 -0.9847
vn -0.1609 0.9694 0.1853
vn -0.0158 -0.1307 0.9913
vn -0.1491 0.5495 0.8221
vn -0.0667 0.1291 -0.9894
vn -0.167 0.7315 0.6611
vn -0.1558 0.9182 0.3642
vn 0 0.9296 0.3687
vn -0.026 0.686 0.7271
vn -0.1297 -0.9106 0.3925
vn -0.0286 -0.551 0.834
vn 0 -0.6991 0.715
vn 0 -0.9183 0.3958
vn -0 -0.378 0.9258
vn 0 -0.0635 -0.998
vn 0 -0.1905 -0.9817
vn -0.0163 0.0959 -0.9953
vn -0.1558 0.3642 0.9182
vn -0.047 0.3153 0.9478
vn -0.0326 0.1269 -0.9914
vn 0.9571 0.024 0.2887
vn 0.7008 0.0984 0.7066
vn 0.872 0.0675 0.4848
vn 0.1558 0.9182 0.3642
vn 0.2281 0.6906 0.6863
vn 0.1101 -0.5386 0.8354
vn 0.1297 -0.9106 0.3925
vn 0.0866 -0.2849 0.9546
vn 0.1617 -0.3742 0.9131
vn 0.0669 -0.0266 -0.9974
vn 0.0323 -0.1531 -0.9877
vn 0.0807 0.0963 -0.9921
vn 0.9892 0.0121 0.1459
vn 0.1829 0.4952 0.8493
vn 0.0216 0.1629 0.9864
vn 0.0108 0.0752 -0.9971
vn 0.0709 -0.1058 0.9919
vn 0.1399 -0.0209 0.9899
vn 0.072 -0.0004 -0.9974
vn 0.0395 -0.0685 -0.9969
vn 0.2152 0.9588 0.1855
vn 0.4465 0.4171 0.7916
vn 0.4052 -0.1139 0.9071
vn 0.2722 0.1486 0.9507
vn 0.1357 0.1357 -0.9814
vn 0.1148 -0.9934 -0
vn -0.0197 0.0622 0.9979
vn -0.0197 0.0622 -0.9979
vn 0.0171 -0.0419 0.999
vn 0.0171 -0.0419 -0.999
vn 0.0197 -0.0622 0.9979
vn 0.0375 -0.0035 0.9993
vn 0.0375 -0.0035 -0.9993
vn 0.0197 -0.0622 -0.9979
vn 0.0552 0.0552 0.997
vn 0.0552 0.0552 -0.997
vn -0.2666 -0.9638 -0
vn -0.0552 0.0552 0.997
vn -0.0083 0.0469 0.9989
vn -0.0552 0.0552 -0.997
vn -0.0083 0.0469 -0.9989
vn -0.9934 -0.1148 -0
vn -0.9976 -0.069 -0
vn -0.0196 0.003 0.9998
vn -0.0776 -0.0326 0.9964
vn -0.0923 0.0089 0.9957
vn -0.0269 0.0314 0.9991
vn -0.0269 0.0314 -0.9991
vn -0.0923 0.0089 -0.9957
vn -0.0776 -0.0326 -0.9964
vn -0.0196 0.003 -0.9998
vn -0.9871 -0.1604 -0
vn 0.0385 0.0385 0.9985
vn 0.0385 0.0385 -0.9985
vn -0.1612 -0.0676 0.9846
vn -0.1649 -0.1063 0.9806
vn -0.0552 -0.0896 0.9944
vn -0.0648 -0.0502 0.9966
vn -0.0648 -0.0502 -0.9966
vn -0.0552 -0.0896 -0.9944
vn -0.1649 -0.1063 -0.9806
vn -0.1612 -0.0676 -0.9846
vn -0.0069 0.0728 0.9973
vn -0.0069 0.0728 -0.9973
vn 0.1148 0.9934 -0
vn 0.0326 0.1269 0.9914
vn 0.0326 0.1269 -0.9914
vn 0.9871 0.1604 -0
vn -0.7071 -0.7071 -0
vn -0.0311 -0.0261 0.9992
vn -0.0622 -0.0197 0.9979
vn -0.0311 -0.0098 0.9995
vn -0.0311 -0.0261 -0.9992
vn -0.0311 -0.0098 -0.9995
vn -0.0622 -0.0197 -0.9979
vn 0.9871 -0.1604 -0
vn 0.0293 -0.0832 0.9961
vn 0.0293 -0.0832 -0.9961
vn 0.0726 -0.0041 0.9974
vn 0.0726 -0.0041 -0.9974
vn 0.1024 0.122 0.9872
vn 0.1024 0.122 -0.9872
vn 0.1063 0.1649 -0.9806
vn 0.0311 0.0098 0.9995
vn 0.0311 0.0098 -0.9995
vn 0.0633 -0.0247 0.9977
vn 0.0878 0.029 0.9957
vn 0.0878 0.029 -0.9957
vn 0.0633 -0.0247 -0.9977
vn 0.1357 0.1357 0.9814
vn 0.9976 -0.069 -0
vn 0.0312 -0.0247 0.9992
vn 0 -0.069 0.9976
vn 0.0312 -0.0247 -0.9992
vn 0 -0.069 -0.9976
vn 0.9976 0.069 -0
vn 0.0622 0.0197 0.9979
vn 0.0622 0.0197 -0.9979
vn 0.0193 0.0193 0.9996
vn 0.0193 0.0193 -0.9996
vn -0.0098 -0.0311 0.9995
vn -0.0098 -0.0311 -0.9995
vn 0.0247 -0.0312 0.9992
vn 0.0247 -0.0312 -0.9992
vn -0.0504 -0.0273 0.9984
vn -0.0231 -0.0871 0.9959
vn -0.0152 -0.0367 0.9992
vn -0.0152 -0.0367 -0.9992
vn -0.0231 -0.0871 -0.9959
vn -0.0504 -0.0273 -0.9984
vn -0.9976 0.069 -0
vn -0.0776 0.0326 0.9964
vn -0.0369 -0.0214 0.9991
vn -0.0369 -0.0214 -0.9991
vn -0.0776 0.0326 -0.9964
vn 0.0552 -0.0552 0.997
vn 0.0345 -0.0778 0.9964
vn 0.0345 -0.0778 -0.9964
vn 0.0552 -0.0552 -0.997
vn -0.9934 0.1148 -0
vn -0.9871 0.1604 -0
vn -0.1269 0.0326 0.9914
vn -0.046 -0.0342 0.9984
vn -0.0296 -0.0179 -0.9994
vn -0.1269 0.0326 -0.9914
vn -0.1649 0.1063 0.9806
vn -0.1736 0.027 0.9844
vn -0.1078 0.0452 -0.9931
vn -0.1649 0.1063 -0.9806
vn 0.1357 -0.1357 0.9814
vn 0.0738 -0.1589 0.9845
vn 0.0909 -0.0909 -0.9917
vn -0.0697 -0.1018 0.9924
vn 0.0109 -0.0433 -0.999
vn -0.2678 0.1074 0.9575
vn -0.336 -0.0868 0.9378
vn -0.4177 0.1312 0.8991
vn -0.0648 0.0502 -0.9966
vn -0.1612 0.0676 -0.9846
vn -0.2464 0.1754 0.9532
vn -0.0831 0.1549 0.9844
vn -0.0552 0.0896 -0.9944
vn -0.5529 0.0799 0.8294
vn -0.6971 0.0219 0.7167
vn -0.9492 0 0.3148
vn 0.8577 -0.1717 0.4847
vn 0 0.6834 0.73
vn 0 0.9492 0.3148
vn 0.0984 -0.7008 0.7066
vn 0.1717 -0.8577 0.4847
vn 0.8619 -0.4942 0.1137
vn -0.0524 -0.3654 0.9294
vn 0.1486 -0.2722 0.9507
vn 0.1694 -0.5248 0.8342
vn 0.1122 -0.1122 -0.9873
vn 0.0726 0.0041 -0.9974
vn -0.1512 0.4006 0.9037
vn 0.1237 0.3495 0.9287
vn 0.0521 0.1475 0.9877
vn 0.0293 0.0832 -0.9961
vn 0.9934 0.1148 -0
vn 0 0.0507 0.9987
vn 0 0.0507 -0.9987
vn 0 0.069 0.9976
vn 0 0.069 -0.9976
vn 0.4942 -0.8619 0.1137
vn 0.398 0.0674 0.9149
vn 0.5248 -0.1694 0.8342
vn 0.1734 0.01 0.9848
vn 0.104 -0.0083 -0.9945
vn 0.1455 0.088 0.9854
vn 0.1216 0.0894 0.9885
vn 0.0875 0.0554 -0.9946
vn 0.0871 0.0231 0.9959
vn 0.0871 0.0231 -0.9959
vn -0.016 -0.0392 0.9991
vn -0.0035 -0.0213 0.9998
vn -0.0035 -0.0213 -0.9998
vn -0.016 -0.0392 -0.9991
vn 0.9994 -0.0345 -0
vn 0.0383 -0.0203 0.9991
vn 0.0383 -0.0203 -0.9991
vn -0.9968 0.0805 -0
vn 0.0107 0.0073 0.9999
vn 0.0107 0.0073 -0.9999
vn 0.9968 -0.0805 -0
vn -0.0107 -0.0073 0.9999
vn -0.0107 -0.0073 -0.9999
vn -0.9994 0.0345 -0
vn -0.0496 0.0091 0.9987
vn -0.0147 -0.0124 0.9998
vn -0.0147 -0.0124 -0.9998
vn -0.0496 0.0091 -0.9987
vn -0.011 -0.0753 0.9971
vn -0.011 -0.0753 -0.9971
vn -0.0638 0.0164 0.9978
vn -0.0638 0.0164 -0.9978
vn -0.0552 0.0896 0.9944
vn 0.0457 -0.0694 0.9965
vn 0.0707 0.0106 0.9974
vn 0.0707 0.0106 -0.9974
vn 0.0457 -0.0694 -0.9965
vn 0.0552 0.0896 0.9944
vn 0.0552 0.0896 -0.9944
vn 0.9968 0.0805 -0
vn 0 0.0162 0.9999
vn 0 0.0162 -0.9999
vn 0.9994 0.0345 -0
vn 0 0.0345 0.9994
vn 0 0.0345 -0.9994
vn -0.0204 -0.0171 0.9996
vn -0.0204 -0.0171 -0.9996
vn 0.0685 -0.0395 0.9969
vn 0.0685 -0.0395 -0.9969
vn 0.1407 0.021 0.9898
vn 0.1407 0.021 -0.9898
vn 0.1649 0.1063 0.9806
vn 0.1649 0.1063 -0.9806
vn -0.9994 -0.0345 -0
vn -0.0383 -0.0203 0.9991
vn -0.0552 -0.0552 0.997
vn 0.016 -0.0392 0.9991
vn 0.0035 -0.0213 0.9998
vn 0.0035 -0.0213 -0.9998
vn 0.016 -0.0392 -0.9991
vn -0.0552 -0.0552 -0.997
vn -0.0383 -0.0203 -0.9991
vn -0.9968 -0.0805 -0
vn 0.0204 0.0171 0.9996
vn 0.0204 0.0171 -0.9996

# faces
f 1/1/1 2/1/1 3/1/1
f 1/1/1 3/1/1 4/1/1
f 1/1/2 4/1/2 5/1/3
f 1/1/2 5/1/3 6/1/3
f 2/1/4 7/1/5 8/1/5
f 2/1/4 8/1/5 3/1/4
f 4/1/6 3/1/6 8/1/7
f 4/1/6 8/1/7 5/1/7
f 6/1/8 7/1/8 2/1/9
f 6/1/8 2/1/9 1/1/9
f 6/1/3 5/1/3 9/1/10
f 6/1/3 9/1/10 10/1/10
f 7/1/5 11/1/11 12/1/11
f 7/1/5 12/1/11 8/1/5
f 8/1/7 12/1/12 9/1/13
f 8/1/7 9/1/13 5/1/7
f 10/1/14 11/1/15 7/1/8
f 10/1/14 7/1/8 6/1/8
f 13/1/16 14/1/16 12/1/16
f 13/1/16 12/1/16 11/1/16
f 13/1/4 15/1/5 16/1/5
f 13/1/4 16/1/5 14/1/4
f 14/1/17 16/1/18 17/1/19
f 14/1/17 17/1/19 12/1/12
f 18/1/20 15/1/21 13/1/22
f 18/1/20 13/1/22 11/1/15
f 10/1/10 9/1/10 19/1/23
f 10/1/10 19/1/23 20/1/23
f 12/1/12 17/1/19 19/1/24
f 12/1/12 19/1/24 9/1/13
f 20/1/25 18/1/20 11/1/15
f 20/1/25 11/1/15 10/1/14
f 16/1/5 15/1/5 21/1/11
f 16/1/5 21/1/11 22/1/26
f 16/1/18 22/1/27 23/1/28
f 16/1/18 23/1/28 17/1/19
f 24/1/29 21/1/30 15/1/21
f 24/1/29 15/1/21 18/1/20
f 19/1/23 25/1/31 26/1/32
f 19/1/23 26/1/32 20/1/23
f 19/1/24 17/1/19 23/1/33
f 19/1/24 23/1/33 25/1/34
f 26/1/35 24/1/29 18/1/20
f 26/1/35 18/1/20 20/1/25
f 23/1/36 22/1/37 27/1/38
f 23/1/36 27/1/38 28/1/39
f 27/1/40 22/1/41 29/1/42
f 27/1/40 29/1/42 30/1/43
f 27/1/45 30/1/46 31/1/47
f 27/1/45 31/1/47 28/1/44
f 23/1/48 28/1/49 32/1/50
f 23/1/48 32/1/50 25/1/34
f 32/1/51 33/1/52 34/1/53
f 32/1/51 34/1/53 25/1/31
f 32/1/54 28/1/55 31/1/47
f 32/1/54 31/1/47 33/1/56
f 21/2/16 35/2/16 36/2/16
f 21/2/16 36/2/16 22/2/57
f 36/2/58 35/2/58 37/2/59
f 36/2/58 37/2/59 38/2/60
f 36/2/61 38/2/62 29/2/42
f 36/2/61 29/2/42 22/2/27
f 39/2/63 37/2/64 35/2/65
f 39/2/63 35/2/65 21/2/30
f 39/1/67 21/1/30 24/1/29
f 39/1/67 24/1/29 40/1/66
f 25/1/31 34/1/53 41/1/68
f 25/1/31 41/1/68 26/1/32
f 41/1/69 40/1/70 24/1/29
f 41/1/69 24/1/29 26/1/35
f 29/3/42 38/3/71 42/3/72
f 29/3/42 42/3/72 30/3/73
f 42/3/74 38/3/75 43/3/76
f 42/3/74 43/3/76 44/3/77
f 42/3/17 44/3/79 45/3/80
f 42/3/17 45/3/80 30/3/78
f 31/2/47 30/2/81 45/2/80
f 31/2/47 45/2/80 46/2/82
f 47/1/83 46/1/84 48/1/85
f 47/1/83 48/1/85 49/1/86
f 34/1/53 33/1/52 47/1/87
f 34/1/53 47/1/87 49/1/88
f 31/1/47 46/1/89 47/1/90
f 31/1/47 47/1/90 33/1/56
f 38/3/60 37/3/59 50/3/91
f 38/3/60 50/3/91 43/3/76
f 51/3/92 50/3/93 37/3/64
f 51/3/92 37/3/64 39/3/63
f 41/1/68 34/1/53 49/1/94
f 41/1/68 49/1/94 52/1/95
f 53/1/97 40/1/70 41/1/69
f 53/1/97 41/1/69 52/1/96
f 54/2/98 55/2/98 39/2/98
f 54/2/98 39/2/98 40/2/98
f 54/2/99 40/2/100 53/2/97
f 54/2/99 53/2/97 56/2/101
f 55/2/103 57/2/104 51/2/92
f 55/2/103 51/2/92 39/2/102
f 56/2/105 57/2/105 55/2/9
f 56/2/105 55/2/9 54/2/9
f 43/4/76 58/4/106 59/4/107
f 43/4/76 59/4/107 44/4/77
f 45/4/80 44/4/79 59/4/108
f 45/4/80 59/4/108 60/4/109
f 48/3/85 46/3/110 61/3/111
f 48/3/85 61/3/111 62/3/112
f 45/3/80 60/3/109 61/3/113
f 45/3/80 61/3/113 46/3/82
f 43/4/76 50/4/114 63/4/115
f 43/4/76 63/4/115 58/4/116
f 63/4/118 50/4/119 51/4/92
f 63/4/118 51/4/92 64/4/117
f 62/2/120 66/2/121 67/2/120
f 62/2/120 67/2/120 65/2/120
f 52/2/95 49/2/94 65/2/122
f 52/2/95 65/2/122 67/2/122
f 48/2/85 62/2/124 65/2/125
f 48/2/85 65/2/125 49/2/123
f 67/2/126 66/2/127 53/2/97
f 67/2/126 53/2/97 52/2/96
f 64/3/128 68/3/128 69/3/128
f 64/3/128 69/3/128 66/3/121
f 53/3/97 66/3/127 69/3/129
f 53/3/97 69/3/129 56/3/101
f 51/3/92 57/3/104 68/3/130
f 51/3/92 68/3/130 64/3/131
f 69/3/132 68/3/132 57/3/105
f 69/3/132 57/3/105 56/3/105
f 59/5/133 58/5/106 70/5/134
f 59/5/133 70/5/134 71/5/135
f 60/5/109 59/5/108 71/5/136
f 60/5/109 71/5/136 72/5/137
f 61/4/138 73/4/139 74/4/140
f 61/4/138 74/4/140 62/4/112
f 61/4/141 60/4/109 72/4/137
f 61/4/141 72/4/137 73/4/142
f 63/4/143 75/4/143 76/4/143
f 63/4/143 76/4/143 58/4/143
f 75/4/4 77/4/144 78/4/144
f 75/4/4 78/4/144 76/4/4
f 76/4/146 78/4/147 70/4/134
f 76/4/146 70/4/134 58/4/145
f 79/4/148 77/4/149 75/4/65
f 79/4/148 75/4/65 63/4/118
f 79/5/118 63/5/118 64/5/151
f 79/5/118 64/5/151 80/5/150
f 62/4/153 74/4/140 81/4/154
f 62/4/153 81/4/154 66/4/152
f 81/4/155 80/4/156 64/4/151
f 81/4/155 64/4/151 66/4/157
f 71/6/136 70/6/134 82/6/158
f 71/6/136 82/6/158 83/6/159
f 71/6/160 83/6/161 84/6/162
f 71/6/160 84/6/162 72/6/137
f 85/5/83 84/5/163 86/5/164
f 85/5/83 86/5/164 87/5/165
f 74/5/140 73/5/139 85/5/87
f 74/5/140 85/5/87 87/5/166
f 72/5/137 84/5/167 85/5/90
f 72/5/137 85/5/90 73/5/142
f 78/5/144 77/5/144 88/5/168
f 78/5/144 88/5/168 89/5/168
f 70/5/134 78/5/147 89/5/169
f 70/5/134 89/5/169 82/5/158
f 90/5/170 88/5/171 77/5/149
f 90/5/170 77/5/149 79/5/148
f 81/5/154 74/5/140 87/5/172
f 81/5/154 87/5/172 91/5/173
f 91/5/174 92/5/175 80/5/156
f 91/5/174 80/5/156 81/5/155
f 93/6/98 94/6/98 79/6/98
f 93/6/98 79/6/98 80/6/98
f 92/6/176 90/6/176 95/6/176
f 92/6/176 95/6/176 96/6/176
f 80/6/178 92/6/179 96/6/177
f 80/6/178 96/6/177 93/6/177
f 79/6/180 94/6/181 95/6/181
f 79/6/180 95/6/181 90/6/182
f 96/6/105 95/6/105 94/6/105
f 96/6/105 94/6/105 93/6/105
f 98/7/183 99/7/184 100/7/185
f 98/7/183 100/7/185 97/7/183
f 86/7/164 84/7/186 97/7/187
f 86/7/164 97/7/187 100/7/188
f 82/7/158 99/7/190 98/7/191
f 82/7/158 98/7/191 83/7/189
f 83/7/192 98/7/193 97/7/193
f 83/7/192 97/7/193 84/7/162
f 101/6/195 102/6/195 103/6/195
f 101/6/195 103/6/195 99/6/194
f 88/6/168 102/6/11 101/6/11
f 88/6/168 101/6/11 89/6/168
f 89/6/169 101/6/196 99/6/197
f 89/6/169 99/6/197 82/6/158
f 103/6/198 102/6/199 88/6/171
f 103/6/198 88/6/171 90/6/200
f 104/7/201 103/7/198 90/7/200
f 104/7/201 90/7/200 92/7/202
f 91/6/173 87/6/172 105/6/203
f 91/6/173 105/6/203 106/6/203
f 86/6/164 100/6/205 105/6/206
f 86/6/164 105/6/206 87/6/204
f 104/6/201 92/6/175 91/6/174
f 104/6/201 91/6/174 106/6/207
f 107/6/16 108/6/16 101/6/16
f 107/6/16 101/6/16 102/6/16
f 101/6/208 109/6/209 110/6/209
f 101/6/208 110/6/209 102/6/208
f 107/6/4 111/6/5 112/6/5
f 107/6/4 112/6/5 108/6/4
f 108/6/210 112/6/211 109/6/211
f 108/6/210 109/6/211 101/6/196
f 110/6/212 111/6/212 107/6/213
f 110/6/212 107/6/213 102/6/199
f 113/8/214 114/8/215 115/8/215
f 113/8/214 115/8/215 116/8/214
f 103/8/217 115/8/215 114/8/215
f 103/8/217 114/8/215 99/8/216
f 100/8/218 99/8/219 114/8/220
f 100/8/218 114/8/220 113/8/221
f 115/8/223 103/8/198 104/8/201
f 115/8/223 104/8/201 116/8/222
f 106/7/203 105/7/203 117/7/10
f 106/7/203 117/7/10 118/7/10
f 105/7/206 100/7/205 113/7/221
f 105/7/206 113/7/221 117/7/224
f 116/7/222 104/7/201 106/7/207
f 116/7/222 106/7/207 118/7/225
f 110/7/209 109/7/209 119/7/226
f 110/7/209 119/7/226 120/7/226
f 111/7/5 121/7/11 122/7/11
f 111/7/5 122/7/11 112/7/5
f 112/7/211 122/7/227 119/7/228
f 112/7/211 119/7/228 109/7/211
f 120/7/229 121/7/230 111/7/212
f 120/7/229 111/7/212 110/7/212
f 118/7/10 117/7/10 123/7/10
f 118/7/10 123/7/10 124/7/10
f 113/7/231 116/7/231 125/7/232
f 113/7/231 125/7/232 126/7/232
f 117/7/224 113/7/221 126/7/233
f 117/7/224 126/7/233 123/7/233
f 125/7/234 116/7/222 118/7/225
f 125/7/234 118/7/225 124/7/234
f 127/6/16 128/6/16 122/6/16
f 127/6/16 122/6/16 121/6/16
f 127/6/4 129/6/235 130/6/235
f 127/6/4 130/6/235 128/6/4
f 128/6/236 130/6/237 131/6/238
f 128/6/236 131/6/238 122/6/227
f 132/6/239 129/6/240 127/6/241
f 132/6/239 127/6/241 121/6/230
f 131/8/243 132/8/243 134/8/242
f 131/8/243 134/8/242 133/8/242
f 119/8/226 133/8/244 134/8/244
f 119/8/226 134/8/244 120/8/226
f 122/8/227 131/8/238 133/8/245
f 122/8/227 133/8/245 119/8/228
f 134/8/246 132/8/239 121/8/230
f 134/8/246 121/8/230 120/8/229
f 124/7/10 123/7/10 135/7/10
f 124/7/10 135/7/10 136/7/10
f 126/7/232 125/7/232 137/7/235
f 126/7/232 137/7/235 138/7/235
f 123/7/233 126/7/233 138/7/247
f 123/7/233 138/7/247 135/7/247
f 136/7/105 137/7/105 125/7/234
f 136/7/105 125/7/234 124/7/234
f 139/7/195 140/7/195 141/7/195
f 139/7/195 141/7/195 142/7/195
f 131/7/243 139/7/248 142/7/248
f 131/7/243 142/7/248 132/7/243
f 130/7/235 129/7/235 141/7/249
f 130/7/235 141/7/249 140/7/249
f 130/7/237 140/7/193 139/7/193
f 130/7/237 139/7/193 131/7/238
f 142/7/250 141/7/250 129/7/240
f 142/7/250 129/7/240 132/7/239
f 136/7/10 135/7/10 143/7/10
f 136/7/10 143/7/10 144/7/10
f 138/7/235 137/7/235 145/7/235
f 138/7/235 145/7/235 146/7/235
f 135/7/247 138/7/247 146/7/247
f 135/7/247 146/7/247 143/7/247
f 144/7/105 145/7/105 137/7/105
f 144/7/105 137/7/105 136/7/105
f 144/7/10 143/7/10 147/7/10
f 144/7/10 147/7/10 148/7/10
f 146/7/235 145/7/235 149/7/235
f 146/7/235 149/7/235 150/7/235
f 143/7/247 146/7/247 150/7/247
f 143/7/247 150/7/247 147/7/247
f 148/7/105 149/7/105 145/7/105
f 148/7/105 145/7/105 144/7/105
f 148/7/10 147/7/10 151/7/10
f 148/7/10 151/7/10 152/7/10
f 150/7/235 149/7/235 153/7/235
f 150/7/235 153/7/235 154/7/235
f 147/7/247 150/7/247 154/7/247
f 147/7/247 154/7/247 151/7/247
f 152/7/105 153/7/105 149/7/105
f 152/7/105 149/7/105 148/7/105
f 152/7/10 151/7/10 155/7/226
f 152/7/10 155/7/226 156/7/226
f 154/7/235 153/7/235 157/7/251
f 154/7/235 157/7/251 158/7/251
f 151/7/247 154/7/247 158/7/252
f 151/7/247 158/7/252 155/7/252
f 156/7/253 157/7/253 153/7/105
f 156/7/253 153/7/105 152/7/105
f 159/6/195 160/6/195 161/6/195
f 159/6/195 161/6/195 162/6/195
f 155/6/226 159/6/244 162/6/244
f 155/6/226 162/6/244 156/6/226
f 158/6/251 157/6/251 161/6/249
f 158/6/251 161/6/249 160/6/249
f 155/6/252 158/6/252 160/6/254
f 155/6/252 160/6/254 159/6/254
f 162/6/132 161/6/132 157/6/253
f 162/6/132 157/6/253 156/6/253
f 163/1/1 164/1/1 165/1/1
f 163/1/1 165/1/1 166/1/1
f 163/1/255 166/1/255 167/1/256
f 163/1/255 167/1/256 168/1/256
f 164/1/4 169/1/144 170/1/144
f 164/1/4 170/1/144 165/1/4
f 166/1/257 165/1/257 170/1/258
f 166/1/257 170/1/258 167/1/259
f 169/1/261 164/1/262 163/1/262
f 169/1/261 163/1/262 168/1/260
f 170/1/144 169/1/144 171/1/235
f 170/1/144 171/1/235 172/1/235
f 167/1/259 170/1/258 172/1/263
f 167/1/259 172/1/263 173/1/264
f 171/1/266 169/1/261 168/1/260
f 171/1/266 168/1/260 174/1/265
f 175/1/267 168/1/256 167/1/256
f 175/1/267 167/1/256 176/1/267
f 175/1/2 176/1/2 177/1/268
f 175/1/2 177/1/268 178/1/268
f 176/1/269 167/1/259 173/1/264
f 176/1/269 173/1/264 177/1/270
f 174/1/265 168/1/260 175/1/272
f 174/1/265 175/1/272 178/1/271
f 172/1/235 171/1/235 179/1/251
f 172/1/235 179/1/251 180/1/251
f 173/1/264 172/1/263 180/1/273
f 173/1/264 180/1/273 181/1/274
f 182/1/275 179/1/276 171/1/266
f 182/1/275 171/1/266 174/1/265
f 177/2/268 183/2/277 184/2/278
f 177/2/268 184/2/278 178/2/268
f 177/2/270 173/2/264 181/2/279
f 177/2/270 181/2/279 183/2/280
f 182/2/275 174/2/265 178/2/271
f 182/2/275 178/2/271 184/2/281
f 181/3/283 185/3/283 186/3/283
f 181/3/283 186/3/283 183/3/282
f 188/3/183 189/3/284 190/3/183
f 188/3/183 190/3/183 187/3/183
f 186/3/286 187/3/286 190/3/287
f 186/3/286 190/3/287 183/3/285
f 181/3/289 189/3/290 188/3/288
f 181/3/289 188/3/288 185/3/288
f 186/3/247 185/3/247 188/3/247
f 186/3/247 188/3/247 187/3/247
f 191/2/214 192/2/214 193/2/214
f 191/2/214 193/2/214 189/2/284
f 180/2/251 179/2/251 192/2/249
f 180/2/251 192/2/249 191/2/249
f 181/2/274 180/2/273 191/2/291
f 181/2/274 191/2/291 189/2/292
f 192/2/294 179/2/276 182/2/275
f 192/2/294 182/2/275 193/2/293
f 194/3/295 193/3/293 182/3/275
f 194/3/295 182/3/275 184/3/281
f 184/4/267 183/4/282 196/4/267
f 184/4/267 196/4/267 195/4/267
f 195/4/2 196/4/2 197/4/268
f 195/4/2 197/4/268 198/4/268
f 196/4/296 183/4/297 190/4/298
f 196/4/296 190/4/298 197/4/299
f 194/4/295 184/4/281 195/4/272
f 194/4/295 195/4/272 198/4/271
f 193/4/231 199/4/232 200/4/232
f 193/4/231 200/4/232 189/4/300
f 190/4/301 189/4/302 200/4/303
f 190/4/301 200/4/303 201/4/304
f 199/4/306 193/4/293 194/4/295
f 199/4/306 194/4/295 202/4/305
f 197/5/268 203/5/307 204/5/278
f 197/5/268 204/5/278 198/5/268
f 197/5/299 190/5/301 201/5/308
f 197/5/299 201/5/308 203/5/309
f 202/5/305 194/5/295 198/5/271
f 202/5/305 198/5/271 204/5/310
f 201/6/283 205/6/283 206/6/283
f 201/6/283 206/6/283 203/6/282
f 206/6/312 207/6/313 208/6/314
f 206/6/312 208/6/314 203/6/311
f 205/6/315 201/6/316 209/6/317
f 205/6/315 209/6/317 210/6/318
f 206/6/6 205/6/6 210/6/247
f 206/6/6 210/6/247 207/6/247
f 200/5/232 199/5/232 211/5/235
f 200/5/232 211/5/235 212/5/235
f 200/5/303 212/5/319 209/5/317
f 200/5/303 209/5/317 201/5/304
f 213/5/320 211/5/321 199/5/306
f 213/5/320 199/5/306 202/5/305
f 214/6/322 213/6/320 202/6/305
f 214/6/322 202/6/305 204/6/310
f 204/5/267 203/5/282 216/5/267
f 204/5/267 216/5/267 215/5/267
f 215/5/2 216/5/2 217/5/268
f 215/5/2 217/5/268 218/5/268
f 216/5/323 203/5/309 208/5/314
f 216/5/323 208/5/314 217/5/324
f 214/5/322 204/5/310 215/5/272
f 214/5/322 215/5/272 218/5/325
f 219/7/326 220/7/326 221/7/327
f 219/7/326 221/7/327 222/7/328
f 208/7/314 207/7/313 219/7/329
f 208/7/314 219/7/329 222/7/330
f 209/7/317 221/7/331 220/7/332
f 209/7/317 220/7/332 210/7/318
f 210/7/247 220/7/254 219/7/254
f 210/7/247 219/7/254 207/7/247
f 212/6/235 211/6/235 223/6/235
f 212/6/235 223/6/235 224/6/235
f 209/6/317 212/6/319 224/6/333
f 209/6/317 224/6/333 221/6/334
f 225/6/335 223/6/336 211/6/321
f 225/6/335 211/6/321 213/6/320
f 225/7/335 213/7/320 214/7/322
f 225/7/335 214/7/322 226/7/337
f 227/6/195 222/6/338 226/6/195
f 227/6/195 226/6/195 228/6/195
f 218/6/268 217/6/268 227/6/278
f 218/6/268 227/6/278 228/6/278
f 217/6/324 208/6/314 222/6/339
f 217/6/324 222/6/339 227/6/340
f 226/6/337 214/6/322 218/6/325
f 226/6/337 218/6/325 228/6/341
f 224/7/235 223/7/235 229/7/235
f 224/7/235 229/7/235 230/7/235
f 224/7/333 230/7/342 231/7/343
f 224/7/333 231/7/343 221/7/334
f 232/7/344 229/7/345 223/7/336
f 232/7/344 223/7/336 225/7/335
f 231/8/242 232/8/242 234/8/243
f 231/8/242 234/8/243 233/8/243
f 226/8/248 222/8/346 233/8/243
f 226/8/248 233/8/243 234/8/243
f 221/8/348 231/8/343 233/8/349
f 221/8/348 233/8/349 222/8/347
f 234/8/350 232/8/344 225/8/335
f 234/8/350 225/8/335 226/8/337
f 235/6/267 228/6/267 227/6/267
f 235/6/267 227/6/267 236/6/267
f 235/6/2 236/6/2 237/6/268
f 235/6/2 237/6/268 238/6/268
f 227/6/231 228/6/231 239/6/351
f 227/6/231 239/6/351 240/6/351
f 236/6/352 227/6/340 240/6/247
f 236/6/352 240/6/247 237/6/247
f 239/6/105 228/6/341 235/6/353
f 239/6/105 235/6/353 238/6/105
f 231/7/208 241/7/10 242/7/10
f 231/7/208 242/7/10 232/7/208
f 230/7/235 229/7/235 243/7/251
f 230/7/235 243/7/251 244/7/251
f 230/7/342 244/7/354 241/7/354
f 230/7/342 241/7/354 231/7/343
f 242/7/355 243/7/355 229/7/345
f 242/7/355 229/7/345 232/7/344
f 245/7/215 246/7/214 247/7/214
f 245/7/215 247/7/214 248/7/215
f 238/7/268 237/7/268 245/7/278
f 238/7/268 245/7/278 248/7/278
f 240/7/351 239/7/351 247/7/249
f 240/7/351 247/7/249 246/7/249
f 237/7/247 240/7/247 246/7/356
f 237/7/247 246/7/356 245/7/357
f 247/7/359 239/7/105 238/7/105
f 247/7/359 238/7/105 248/7/358
f 249/6/215 250/6/214 251/6/214
f 249/6/215 251/6/214 252/6/215
f 242/6/10 241/6/10 249/6/278
f 242/6/10 249/6/278 252/6/278
f 244/6/251 243/6/251 251/6/249
f 244/6/251 251/6/249 250/6/249
f 241/6/354 244/6/354 250/6/356
f 241/6/354 250/6/356 249/6/357
f 251/6/359 243/6/355 242/6/355
f 251/6/359 242/6/355 252/6/358
f 253/6/267 248/6/267 245/6/267
f 253/6/267 245/6/267 254/6/267
f 255/6/195 256/6/195 257/6/195
f 255/6/195 257/6/195 258/6/195
f 253/6/10 254/6/10 255/6/10
f 253/6/10 255/6/10 258/6/10
f 245/6/215 248/6/215 257/6/217
f 245/6/215 257/6/217 256/6/217
f 254/6/360 245/6/357 256/6/360
f 254/6/360 256/6/360 255/6/360
f 257/6/361 248/6/358 253/6/361
f 257/6/361 253/6/361 258/6/361
f 259/1/1 260/1/1 261/1/1
f 259/1/1 261/1/1 262/1/1
f 264/1/243 265/1/243 266/1/242
f 264/1/243 266/1/242 263/1/242
f 259/1/10 262/1/10 263/1/10
f 259/1/10 263/1/10 266/1/10
f 260/1/362 265/1/362 264/1/362
f 260/1/362 264/1/362 261/1/362
f 261/1/363 264/1/364 263/1/363
f 261/1/363 263/1/363 262/1/363
f 266/1/365 265/1/366 260/1/365
f 266/1/365 260/1/365 259/1/365
f 267/7/267 252/7/267 249/7/267
f 267/7/267 249/7/267 268/7/267
f 269/7/195 270/7/195 271/7/195
f 269/7/195 271/7/195 272/7/195
f 267/7/10 268/7/10 269/7/10
f 267/7/10 269/7/10 272/7/10
f 249/7/215 252/7/215 271/7/217
f 249/7/215 271/7/217 270/7/217
f 268/7/360 249/7/357 270/7/360
f 268/7/360 270/7/360 269/7/360
f 271/7/361 252/7/358 267/7/361
f 271/7/361 267/7/361 272/7/361
f 274/3/368 275/3/368 276/3/367
f 274/3/368 276/3/367 273/3/367
f 274/3/362 277/3/362 278/3/362
f 274/3/362 278/3/362 275/3/362
f 275/3/370 278/3/371 279/3/372
f 275/3/370 279/3/372 276/3/369
f 280/3/373 277/3/374 274/3/375
f 280/3/373 274/3/375 273/3/376
f 273/2/367 276/2/367 264/2/377
f 273/2/367 264/2/377 265/2/377
f 279/2/242 280/2/242 282/2/243
f 279/2/242 282/2/243 281/2/243
f 264/2/243 281/2/243 282/2/243
f 264/2/243 282/2/243 265/2/243
f 276/2/369 279/2/372 281/2/378
f 276/2/369 281/2/378 264/2/364
f 282/2/379 280/2/373 273/2/376
f 282/2/379 273/2/376 265/2/366
f 284/6/368 285/6/368 286/6/367
f 284/6/368 286/6/367 283/6/367
f 284/6/362 287/6/362 288/6/362
f 284/6/362 288/6/362 285/6/362
f 285/6/381 288/6/382 289/6/383
f 285/6/381 289/6/383 286/6/380
f 290/6/384 287/6/385 284/6/386
f 290/6/384 284/6/386 283/6/387
f 283/5/367 286/5/367 278/5/377
f 283/5/367 278/5/377 277/5/377
f 286/5/380 289/5/383 291/5/388
f 286/5/380 291/5/388 278/5/371
f 292/5/389 290/5/384 283/5/387
f 292/5/389 283/5/387 277/5/374
f 279/4/208 293/4/390 294/4/390
f 279/4/208 294/4/390 280/4/208
f 278/4/371 291/4/388 293/4/391
f 278/4/371 293/4/391 279/4/372
f 294/4/392 292/4/389 277/4/374
f 294/4/392 277/4/374 280/4/373
f 296/6/368 297/6/368 298/6/367
f 296/6/368 298/6/367 295/6/367
f 300/6/393 301/6/393 302/6/195
f 300/6/393 302/6/195 299/6/195
f 296/6/362 301/6/394 300/6/394
f 296/6/362 300/6/394 297/6/362
f 297/6/396 300/6/397 299/6/395
f 297/6/396 299/6/395 298/6/395
f 302/6/398 301/6/399 296/6/400
f 302/6/398 296/6/400 295/6/398
f 295/7/367 298/7/367 288/7/377
f 295/7/367 288/7/377 287/7/377
f 303/7/401 299/7/195 302/7/195
f 303/7/401 302/7/195 304/7/401
f 288/7/382 298/7/395 299/7/395
f 288/7/382 299/7/395 303/7/402
f 304/7/403 302/7/398 295/7/398
f 304/7/403 295/7/398 287/7/385
f 289/7/383 288/7/382 303/7/402
f 289/7/383 303/7/402 305/7/404
f 306/7/405 304/7/403 287/7/385
f 306/7/405 287/7/385 290/7/384
f 291/6/388 289/6/383 305/6/404
f 291/6/388 305/6/404 307/6/406
f 306/6/405 290/6/384 292/6/389
f 306/6/405 292/6/389 308/6/407
f 307/5/243 308/5/243 310/5/242
f 307/5/243 310/5/242 309/5/242
f 293/5/390 309/5/244 310/5/244
f 293/5/390 310/5/244 294/5/390
f 291/5/388 307/5/406 309/5/90
f 291/5/388 309/5/90 293/5/391
f 310/5/408 308/5/407 292/5/389
f 310/5/408 292/5/389 294/5/392
f 311/7/394 312/7/394 300/7/394
f 311/7/394 300/7/394 301/7/394
f 314/7/243 315/7/243 316/7/243
f 314/7/243 316/7/243 313/7/243
f 300/7/248 313/7/243 316/7/243
f 300/7/248 316/7/243 301/7/248
f 311/7/394 315/7/362 314/7/362
f 311/7/394 314/7/362 312/7/394
f 312/7/247 314/7/409 313/7/247
f 312/7/247 313/7/247 300/7/397
f 316/7/105 315/7/410 311/7/105
f 316/7/105 311/7/105 301/7/399
f 303/8/231 304/8/231 317/8/235
f 303/8/231 317/8/235 318/8/235
f 305/8/404 303/8/402 318/8/411
f 305/8/404 318/8/411 319/8/412
f 317/8/414 304/8/403 306/8/405
f 317/8/414 306/8/405 320/8/413
f 319/7/243 320/7/243 322/7/243
f 319/7/243 322/7/243 321/7/243
f 307/7/243 321/7/243 322/7/243
f 307/7/243 322/7/243 308/7/243
f 305/7/404 319/7/412 321/7/415
f 305/7/404 321/7/415 307/7/406
f 322/7/350 320/7/413 306/7/405
f 322/7/350 306/7/405 308/7/407
f 324/6/368 325/6/368 326/6/367
f 324/6/368 326/6/367 323/6/367
f 327/6/195 328/6/416 329/6/416
f 327/6/195 329/6/416 330/6/195
f 325/6/235 324/6/235 329/6/235
f 325/6/235 329/6/235 328/6/235
f 326/6/417 325/6/418 328/6/418
f 326/6/417 328/6/418 327/6/417
f 329/6/420 324/6/420 323/6/419
f 329/6/420 323/6/419 330/6/419
f 323/7/367 326/7/367 314/7/377
f 323/7/367 314/7/377 315/7/377
f 327/7/195 330/7/195 332/7/421
f 327/7/195 332/7/421 331/7/421
f 314/7/243 331/7/248 332/7/248
f 314/7/243 332/7/248 315/7/243
f 326/7/417 327/7/417 331/7/422
f 326/7/417 331/7/422 314/7/409
f 332/7/423 330/7/419 323/7/419
f 332/7/423 323/7/419 315/7/410
f 334/7/243 335/7/243 336/7/243
f 334/7/243 336/7/243 333/7/243
f 319/7/243 333/7/243 336/7/243
f 319/7/243 336/7/243 320/7/243
f 317/7/235 335/7/11 334/7/11
f 317/7/235 334/7/11 318/7/235
f 318/7/411 334/7/424 333/7/378
f 318/7/411 333/7/378 319/7/412
f 336/7/379 335/7/425 317/7/414
f 336/7/379 317/7/414 320/7/413
f 337/7/394 338/7/394 334/7/16
f 337/7/394 334/7/16 335/7/16
f 340/7/243 341/7/243 342/7/243
f 340/7/243 342/7/243 339/7/243
f 334/7/243 339/7/243 342/7/243
f 334/7/243 342/7/243 335/7/243
f 337/7/394 341/7/394 340/7/394
f 337/7/394 340/7/394 338/7/394
f 338/7/247 340/7/247 339/7/247
f 338/7/247 339/7/247 334/7/424
f 342/7/105 341/7/105 337/7/105
f 342/7/105 337/7/105 335/7/425
f 343/7/394 344/7/394 340/7/394
f 343/7/394 340/7/394 341/7/394
f 346/7/242 347/7/242 348/7/243
f 346/7/242 348/7/243 345/7/243
f 340/7/243 345/7/243 348/7/243
f 340/7/243 348/7/243 341/7/243
f 343/7/394 347/7/394 346/7/394
f 343/7/394 346/7/394 344/7/394
f 344/7/247 346/7/426 345/7/247
f 344/7/247 345/7/247 340/7/247
f 348/7/105 347/7/427 343/7/105
f 348/7/105 343/7/105 341/7/105
f 349/7/16 350/7/16 346/7/394
f 349/7/16 346/7/394 347/7/394
f 346/7/208 351/7/390 352/7/390
f 346/7/208 352/7/390 347/7/208
f 349/7/4 353/7/235 354/7/235
f 349/7/4 354/7/235 350/7/4
f 350/7/210 354/7/428 351/7/428
f 350/7/210 351/7/428 346/7/426
f 352/7/429 353/7/429 349/7/213
f 352/7/429 349/7/213 347/7/427
f 355/6/195 356/6/195 357/6/195
f 355/6/195 357/6/195 358/6/195
f 351/6/390 355/6/244 358/6/244
f 351/6/390 358/6/244 352/6/390
f 354/6/235 353/6/235 357/6/249
f 354/6/235 357/6/249 356/6/249
f 351/6/428 354/6/428 356/6/254
f 351/6/428 356/6/254 355/6/254
f 358/6/132 357/6/132 353/6/429
f 358/6/132 353/6/429 352/6/429
f 360/1/368 361/1/368 362/1/1
f 360/1/368 362/1/1 359/1/1
f 363/1/215 364/1/214 365/1/214
f 363/1/215 365/1/214 366/1/215
f 361/1/235 360/1/235 365/1/235
f 361/1/235 365/1/235 364/1/235
f 362/1/430 361/1/431 364/1/431
f 362/1/430 364/1/431 363/1/432
f 365/1/434 360/1/434 359/1/435
f 365/1/434 359/1/435 366/1/433
f 367/1/436 359/1/1 362/1/1
f 367/1/436 362/1/1 368/1/436
f 367/1/255 368/1/255 369/1/255
f 367/1/255 369/1/255 370/1/255
f 368/1/437 362/1/430 363/1/432
f 368/1/437 363/1/432 369/1/438
f 366/1/433 359/1/435 367/1/440
f 366/1/433 367/1/440 370/1/439
f 371/1/215 372/1/215 373/1/215
f 371/1/215 373/1/215 374/1/215
f 363/1/215 366/1/215 373/1/215
f 363/1/215 373/1/215 372/1/215
f 369/1/438 363/1/432 372/1/441
f 369/1/438 372/1/441 371/1/442
f 373/1/444 366/1/433 370/1/439
f 373/1/444 370/1/439 374/1/443
f 375/2/445 370/2/446 369/2/446
f 375/2/445 369/2/446 376/2/445
f 376/2/447 369/2/438 371/2/442
f 376/2/447 371/2/442 377/2/448
f 374/2/443 370/2/439 375/2/450
f 374/2/443 375/2/450 378/2/449
f 379/3/436 375/3/445 376/3/445
f 379/3/436 376/3/445 380/3/436
f 379/3/255 380/3/255 381/3/255
f 379/3/255 381/3/255 382/3/255
f 380/3/451 376/3/447 377/3/448
f 380/3/451 377/3/448 381/3/452
f 378/3/449 375/3/450 379/3/454
f 378/3/449 379/3/454 382/3/453
f 383/3/215 384/3/215 385/3/215
f 383/3/215 385/3/215 386/3/215
f 371/3/215 374/3/215 385/3/215
f 371/3/215 385/3/215 384/3/215
f 377/3/448 371/3/442 384/3/455
f 377/3/448 384/3/455 383/3/456
f 385/3/223 374/3/443 378/3/449
f 385/3/223 378/3/449 386/3/457
f 381/4/452 377/4/448 383/4/456
f 381/4/452 383/4/456 387/4/458
f 388/4/459 386/4/457 378/4/449
f 388/4/459 378/4/449 382/4/453
f 389/5/445 382/5/446 381/5/446
f 389/5/445 381/5/446 390/5/445
f 390/5/460 381/5/452 387/5/461
f 390/5/460 387/5/461 391/5/462
f 388/5/459 382/5/453 389/5/464
f 388/5/459 389/5/464 392/5/463
f 393/6/436 389/6/445 390/6/445
f 393/6/436 390/6/445 394/6/436
f 393/6/255 394/6/255 395/6/255
f 393/6/255 395/6/255 396/6/255
f 394/6/465 390/6/460 391/6/462
f 394/6/465 391/6/462 395/6/466
f 392/6/463 389/6/464 393/6/454
f 392/6/463 393/6/454 396/6/467
f 391/6/468 387/6/469 397/6/470
f 391/6/468 397/6/470 398/6/470
f 400/6/183 401/6/471 402/6/185
f 400/6/183 402/6/185 399/6/183
f 391/6/472 398/6/473 399/6/473
f 391/6/472 399/6/473 402/6/472
f 387/6/474 401/6/475 400/6/288
f 387/6/474 400/6/288 397/6/288
f 398/6/247 397/6/247 400/6/247
f 398/6/247 400/6/247 399/6/247
f 403/5/215 404/5/215 405/5/215
f 403/5/215 405/5/215 401/5/476
f 383/5/215 386/5/215 404/5/215
f 383/5/215 404/5/215 403/5/215
f 387/5/477 383/5/456 403/5/478
f 387/5/477 403/5/478 401/5/479
f 404/5/223 386/5/457 388/5/459
f 404/5/223 388/5/459 405/5/480
f 406/6/481 405/6/480 388/6/459
f 406/6/481 388/6/459 392/6/463
f 395/7/466 391/7/482 402/7/483
f 395/7/466 402/7/483 407/7/484
f 408/7/485 406/7/481 392/7/463
f 408/7/485 392/7/463 396/7/467
f 409/7/445 396/7/446 395/7/446
f 409/7/445 395/7/446 410/7/445
f 407/7/393 408/7/393 412/7/486
f 407/7/393 412/7/486 411/7/486
f 410/7/487 395/7/466 407/7/484
f 410/7/487 407/7/484 411/7/487
f 412/7/488 408/7/485 396/7/467
f 412/7/488 396/7/467 409/7/488
f 413/6/436 409/6/445 410/6/445
f 413/6/436 410/6/445 414/6/436
f 411/6/486 412/6/486 416/6/421
f 411/6/486 416/6/421 415/6/421
f 413/6/10 414/6/10 415/6/10
f 413/6/10 415/6/10 416/6/10
f 410/6/487 411/6/487 415/6/489
f 410/6/487 415/6/489 414/6/489
f 416/6/490 412/6/488 409/6/488
f 416/6/490 409/6/488 413/6/490
f 417/7/215 418/7/215 419/7/215
f 417/7/215 419/7/215 420/7/215
f 405/7/215 419/7/215 418/7/215
f 405/7/215 418/7/215 401/7/491
f 402/7/492 401/7/493 418/7/220
f 402/7/492 418/7/220 417/7/494
f 419/7/223 405/7/480 406/7/481
f 419/7/223 406/7/481 420/7/495
f 407/8/208 421/8/390 422/8/390
f 407/8/208 422/8/390 408/8/208
f 402/8/496 417/8/494 421/8/497
f 402/8/496 421/8/497 407/8/484
f 422/8/498 420/8/495 406/8/481
f 422/8/498 406/8/481 408/8/485
f 423/7/195 424/7/195 425/7/195
f 423/7/195 425/7/195 426/7/195
f 421/7/390 423/7/244 426/7/244
f 421/7/390 426/7/244 422/7/390
f 417/7/215 420/7/215 425/7/217
f 417/7/215 425/7/217 424/7/217
f 421/7/497 417/7/494 424/7/499
f 421/7/497 424/7/499 423/7/499
f 425/7/500 420/7/495 422/7/498
f 425/7/500 422/7/498 426/7/500
f 427/6/1 428/6/1 429/6/1
f 427/6/1 429/6/1 430/6/1
f 427/6/255 430/6/255 431/6/255
f 427/6/255 431/6/255 432/6/255
f 428/6/4 433/6/235 434/6/235
f 428/6/4 434/6/235 429/6/4
f 430/6/257 429/6/257 434/6/501
f 430/6/257 434/6/501 431/6/502
f 433/6/504 428/6/262 427/6/262
f 433/6/504 427/6/262 432/6/503
f 435/8/505 436/8/416 437/8/416
f 435/8/505 437/8/416 438/8/505
f 434/8/235 433/8/235 437/8/249
f 434/8/235 437/8/249 436/8/249
f 431/8/502 434/8/501 436/8/441
f 431/8/502 436/8/441 435/8/506
f 437/8/444 433/8/504 432/8/503
f 437/8/444 432/8/503 438/8/507
f 439/7/508 432/7/446 431/7/446
f 439/7/508 431/7/446 440/7/508
f 441/7/195 435/7/505 438/7/505
f 441/7/195 438/7/505 442/7/195
f 440/7/509 431/7/502 435/7/506
f 440/7/509 435/7/506 441/7/509
f 438/7/507 432/7/503 439/7/510
f 438/7/507 439/7/510 442/7/510
f 443/7/1 439/7/508 440/7/508
f 443/7/1 440/7/508 444/7/1
f 445/7/195 441/7/195 442/7/195
f 445/7/195 442/7/195 446/7/195
f 444/7/247 440/7/509 441/7/509
f 444/7/247 441/7/509 445/7/247
f 446/7/105 442/7/510 439/7/510
f 446/7/105 439/7/510 443/7/105
f 447/7/1 443/7/1 444/7/1
f 447/7/1 444/7/1 448/7/1
f 449/7/511 445/7/195 446/7/195
f 449/7/511 446/7/195 450/7/511
f 448/7/512 444/7/247 445/7/247
f 448/7/512 445/7/247 449/7/512
f 450/7/513 446/7/105 443/7/105
f 450/7/513 443/7/105 447/7/513
f 451/7/514 447/7/1 448/7/1
f 451/7/514 448/7/1 452/7/514
f 453/7/401 449/7/511 450/7/511
f 453/7/401 450/7/511 454/7/401
f 452/7/515 448/7/512 449/7/512
f 452/7/515 449/7/512 453/7/516
f 450/7/513 447/7/513 451/7/518
f 450/7/513 451/7/518 454/7/517
f 455/6/436 451/6/514 452/6/514
f 455/6/436 452/6/514 456/6/436
f 455/6/255 456/6/255 457/6/255
f 455/6/255 457/6/255 458/6/255
f 456/6/437 452/6/515 453/6/516
f 456/6/437 453/6/516 457/6/438
f 454/6/517 451/6/518 455/6/440
f 454/6/517 455/6/440 458/6/439
f 459/8/214 460/8/215 461/8/215
f 459/8/214 461/8/215 462/8/214
f 453/8/217 454/8/217 461/8/215
f 453/8/217 461/8/215 460/8/215
f 457/8/438 453/8/516 460/8/441
f 457/8/438 460/8/441 459/8/519
f 461/8/444 454/8/517 458/8/439
f 461/8/444 458/8/439 462/8/520
f 463/7/445 458/7/446 457/7/446
f 463/7/445 457/7/446 464/7/445
f 464/7/447 457/7/438 459/7/519
f 464/7/447 459/7/519 465/7/521
f 462/7/520 458/7/439 463/7/450
f 462/7/520 463/7/450 466/7/522
f 467/6/436 463/6/445 464/6/445
f 467/6/436 464/6/445 468/6/436
f 467/6/255 468/6/255 469/6/255
f 467/6/255 469/6/255 470/6/255
f 468/6/451 464/6/447 465/6/521
f 468/6/451 465/6/521 469/6/523
f 466/6/522 463/6/450 467/6/454
f 466/6/522 467/6/454 470/6/467
f 459/8/235 462/8/235 471/8/235
f 459/8/235 471/8/235 472/8/235
f 465/8/521 459/8/519 472/8/524
f 465/8/521 472/8/524 473/8/525
f 474/8/526 471/8/527 462/8/520
f 474/8/526 462/8/520 466/8/522
f 469/7/523 465/7/521 473/7/525
f 469/7/523 473/7/525 475/7/528
f 476/7/529 474/7/526 466/7/522
f 476/7/529 466/7/522 470/7/467
f 477/6/508 470/6/446 469/6/446
f 477/6/508 469/6/446 478/6/508
f 475/6/393 476/6/393 480/6/530
f 475/6/393 480/6/530 479/6/530
f 478/6/531 469/6/523 475/6/528
f 478/6/531 475/6/528 479/6/531
f 480/6/532 476/6/529 470/6/467
f 480/6/532 470/6/467 477/6/532
f 481/5/514 477/5/508 478/5/508
f 481/5/514 478/5/508 482/5/514
f 483/5/533 479/5/530 480/5/530
f 483/5/533 480/5/530 484/5/533
f 482/5/534 478/5/531 479/5/531
f 482/5/534 479/5/531 483/5/534
f 484/5/535 480/5/532 477/5/532
f 484/5/535 477/5/532 481/5/535
f 485/4/436 481/4/514 482/4/514
f 485/4/436 482/4/514 486/4/436
f 483/4/533 484/4/533 488/4/421
f 483/4/533 488/4/421 487/4/421
f 485/4/10 486/4/10 487/4/10
f 485/4/10 487/4/10 488/4/10
f 482/4/534 483/4/534 487/4/489
f 482/4/534 487/4/489 486/4/489
f 488/4/490 484/4/535 481/4/535
f 488/4/490 481/4/535 485/4/490
f 490/7/368 491/7/368 492/7/367
f 490/7/368 492/7/367 489/7/367
f 494/7/393 495/7/393 496/7/530
f 494/7/393 496/7/530 493/7/530
f 490/7/362 495/7/362 494/7/362
f 490/7/362 494/7/362 491/7/362
f 491/7/396 494/7/247 493/7/536
f 491/7/396 493/7/536 492/7/536
f 496/7/537 495/7/105 490/7/400
f 496/7/537 490/7/400 489/7/537
f 489/7/367 492/7/367 472/7/377
f 489/7/367 472/7/377 471/7/377
f 497/7/195 493/7/530 496/7/530
f 497/7/195 496/7/530 498/7/195
f 492/7/536 493/7/536 497/7/538
f 492/7/536 497/7/538 472/7/524
f 498/7/539 496/7/537 489/7/537
f 498/7/539 489/7/537 471/7/527
f 499/7/533 497/7/195 498/7/195
f 499/7/533 498/7/195 500/7/533
f 472/7/524 497/7/538 499/7/540
f 472/7/524 499/7/540 473/7/525
f 500/7/541 498/7/539 471/7/527
f 500/7/541 471/7/527 474/7/526
f 499/6/533 500/6/533 502/6/421
f 499/6/533 502/6/421 501/6/421
f 475/6/248 501/6/248 502/6/248
f 475/6/248 502/6/248 476/6/248
f 473/6/525 499/6/540 501/6/542
f 473/6/525 501/6/542 475/6/528
f 502/6/543 500/6/541 474/6/526
f 502/6/543 474/6/526 476/6/529
f 504/8/368 505/8/368 506/8/544
f 504/8/368 506/8/544 503/8/544
f 504/8/4 507/8/235 508/8/235
f 504/8/4 508/8/235 505/8/4
f 505/8/546 508/8/547 509/8/548
f 505/8/546 509/8/548 506/8/545
f 510/8/549 507/8/550 504/8/551
f 510/8/549 504/8/551 503/8/552
f 511/7/553 503/7/544 506/7/544
f 511/7/553 506/7/544 512/7/553
f 509/7/393 510/7/393 514/7/486
f 509/7/393 514/7/486 513/7/486
f 506/7/545 509/7/548 513/7/554
f 506/7/545 513/7/554 512/7/554
f 514/7/555 510/7/549 503/7/552
f 514/7/555 503/7/552 511/7/555
f 511/6/553 512/6/553 494/6/377
f 511/6/553 494/6/377 495/6/377
f 513/6/486 514/6/486 516/6/421
f 513/6/486 516/6/421 515/6/421
f 494/6/248 515/6/248 516/6/248
f 494/6/248 516/6/248 495/6/248
f 512/6/554 513/6/554 515/6/422
f 512/6/554 515/6/422 494/6/247
f 516/6/423 514/6/555 511/6/555
f 516/6/423 511/6/555 495/6/105
f 517/6/195 518/6/195 519/6/195
f 517/6/195 519/6/195 520/6/195
f 509/6/248 517/6/248 520/6/248
f 509/6/248 520/6/248 510/6/248
f 508/6/235 507/6/235 519/6/249
f 508/6/235 519/6/249 518/6/249
f 508/6/547 518/6/193 517/6/193
f 508/6/547 517/6/193 509/6/548
f 520/6/250 519/6/250 507/6/550
f 520/6/250 507/6/550 510/6/549

