# MagicaVoxel @ Ephtracy

# group
o MessageBox

# material
mtllib MessageBox-0-MessageBox.mtl
usemtl palette

# normals
vn -1 0 0
vn 1 0 0
vn 0 0 1
vn 0 0 -1
vn 0 -1 0
vn 0 1 0

# texcoords
vt 0.337891 0.5
vt 0.478516 0.5
vt 0.505859 0.5
vt 0.642578 0.5
vt 0.666016 0.5
vt 0.677734 0.5
vt 0.810547 0.5
vt 0.814453 0.5
vt 0.873047 0.5
vt 0.876953 0.5
vt 0.970703 0.5
vt 0.974609 0.5
vt 0.978516 0.5
vt 0.982422 0.5
vt 0.986328 0.5
vt 0.990234 0.5
vt 0.994141 0.5

# verts
v -12.8 0 3.5
v -12.8 0 3.4
v -12.8 0 3
v -12.8 0 2.9
v -12.8 0 -2.9
v -12.8 0 -3
v -12.8 0 -3.6
v -12.8 0.1 3.5
v -12.8 0.1 3.4
v -12.8 0.1 3
v -12.8 0.1 2.9
v -12.8 0.1 -2.9
v -12.8 0.1 -3
v -12.8 0.1 -3.6
v 12.8 0 3.5
v 12.8 0 3.4
v 12.8 0 3.3
v 12.8 0 3.1
v 12.8 0 3
v 12.8 0 2.9
v 12.8 0 2.8
v 12.8 0 2.7
v 12.8 0 -2.8
v 12.8 0 -2.9
v 12.8 0 -3
v 12.8 0 -3.1
v 12.8 0 -3.2
v 12.8 0 -3.5
v 12.8 0 -3.6
v 12.8 0.1 3.5
v 12.8 0.1 3.4
v 12.8 0.1 3.3
v 12.8 0.1 3.1
v 12.8 0.1 3
v 12.8 0.1 2.9
v 12.8 0.1 2.8
v 12.8 0.1 2.7
v 12.8 0.1 -2.8
v 12.8 0.1 -2.9
v 12.8 0.1 -3
v 12.8 0.1 -3.1
v 12.8 0.1 -3.2
v 12.8 0.1 -3.5
v 12.8 0.1 -3.6
v -12.8 0 3.5
v -12.8 0.1 3.5
v -12.7 0 3.5
v -12.7 0.1 3.5
v -12.2 0 3.5
v -12.2 0.1 3.5
v -12.1 0 3.5
v -12.1 0.1 3.5
v -12 0 3.5
v -12 0.1 3.5
v 12.8 0 3.5
v 12.8 0.1 3.5
v -12.8 0 -3.6
v -12.8 0.1 -3.6
v -12.7 0 -3.6
v -12.7 0.1 -3.6
v -12.6 0 -3.6
v -12.6 0.1 -3.6
v -12.3 0 -3.6
v -12.3 0.1 -3.6
v -12.2 0 -3.6
v -12.2 0.1 -3.6
v -12.1 0 -3.6
v -12.1 0.1 -3.6
v -12 0 -3.6
v -12 0.1 -3.6
v -11.9 0 -3.6
v -11.9 0.1 -3.6
v 11.9 0 -3.6
v 11.9 0.1 -3.6
v 12 0 -3.6
v 12 0.1 -3.6
v 12.1 0 -3.6
v 12.1 0.1 -3.6
v 12.2 0 -3.6
v 12.2 0.1 -3.6
v 12.3 0 -3.6
v 12.3 0.1 -3.6
v 12.8 0 -3.6
v 12.8 0.1 -3.6
v -12.8 0 3.5
v -12.7 0 3.5
v -12.2 0 3.5
v -12.1 0 3.5
v -12 0 3.5
v 12.8 0 3.5
v -12.8 0 3.4
v -12.7 0 3.4
v -12.6 0 3.4
v -12.2 0 3.4
v -12.1 0 3.4
v -12 0 3.4
v 12.6 0 3.4
v 12.7 0 3.4
v 12.8 0 3.4
v -12.7 0 3.3
v -12.6 0 3.3
v -12.5 0 3.3
v -12.2 0 3.3
v -12.1 0 3.3
v -12 0 3.3
v 12.6 0 3.3
v 12.7 0 3.3
v 12.8 0 3.3
v -12.6 0 3.2
v -12.5 0 3.2
v 12.6 0 3.1
v 12.7 0 3.1
v 12.8 0 3.1
v -12.8 0 3
v -12.7 0 3
v -12.6 0 3
v 12.7 0 3
v 12.8 0 3
v -12.8 0 2.9
v -12.7 0 2.9
v -12.6 0 2.9
v 12.7 0 2.9
v 12.8 0 2.9
v 12.6 0 2.8
v 12.7 0 2.8
v 12.8 0 2.8
v 12.6 0 2.7
v 12.7 0 2.7
v 12.8 0 2.7
v 12.6 0 2.5
v 12.7 0 2.5
v 12.6 0 2.3
v 12.7 0 2.3
v 12.6 0 1.3
v 12.7 0 1.3
v 12.6 0 1.1
v 12.7 0 1.1
v 12.6 0 -0.6
v 12.7 0 -0.6
v 12.6 0 -1.5
v 12.7 0 -1.5
v 12.7 0 -2.8
v 12.8 0 -2.8
v -12.8 0 -2.9
v -12.7 0 -2.9
v -12.6 0 -2.9
v 12.7 0 -2.9
v 12.8 0 -2.9
v -12.8 0 -3
v -12.7 0 -3
v -12.6 0 -3
v 12.7 0 -3
v 12.8 0 -3
v 12.6 0 -3.1
v 12.7 0 -3.1
v 12.8 0 -3.1
v -12.6 0 -3.2
v -12.5 0 -3.2
v 12.6 0 -3.2
v 12.7 0 -3.2
v 12.8 0 -3.2
v -12.6 0 -3.3
v -12.5 0 -3.3
v 7.5 0 -3.3
v 7.6 0 -3.3
v 7.8 0 -3.3
v 7.9 0 -3.3
v 9.6 0 -3.3
v 9.8 0 -3.3
v 9.9 0 -3.3
v 10.4 0 -3.3
v 11.2 0 -3.3
v 11.3 0 -3.3
v 11.4 0 -3.3
v 11.5 0 -3.3
v 11.6 0 -3.3
v 12.6 0 -3.3
v 12.7 0 -3.3
v -12.7 0 -3.4
v -12.6 0 -3.4
v -12.3 0 -3.4
v -12.1 0 -3.4
v 7.5 0 -3.4
v 7.6 0 -3.4
v 7.8 0 -3.4
v 7.9 0 -3.4
v 9.6 0 -3.4
v 9.8 0 -3.4
v 9.9 0 -3.4
v 10.4 0 -3.4
v 11.2 0 -3.4
v 11.3 0 -3.4
v 11.4 0 -3.4
v 11.5 0 -3.4
v 11.6 0 -3.4
v 11.9 0 -3.4
v 12.1 0 -3.4
v 12.6 0 -3.4
v -12.7 0 -3.5
v -12.6 0 -3.5
v -12.3 0 -3.5
v -12.2 0 -3.5
v -12.1 0 -3.5
v -12 0 -3.5
v -11.9 0 -3.5
v 7.6 0 -3.5
v 7.9 0 -3.5
v 9.6 0 -3.5
v 10.4 0 -3.5
v 11.2 0 -3.5
v 11.5 0 -3.5
v 11.9 0 -3.5
v 12 0 -3.5
v 12.1 0 -3.5
v 12.2 0 -3.5
v 12.3 0 -3.5
v 12.6 0 -3.5
v 12.7 0 -3.5
v 12.8 0 -3.5
v -12.8 0 -3.6
v -12.7 0 -3.6
v -12.6 0 -3.6
v -12.3 0 -3.6
v -12.2 0 -3.6
v -12.1 0 -3.6
v -12 0 -3.6
v -11.9 0 -3.6
v 11.9 0 -3.6
v 12 0 -3.6
v 12.1 0 -3.6
v 12.2 0 -3.6
v 12.3 0 -3.6
v 12.8 0 -3.6
v -12.8 0.1 3.5
v -12.7 0.1 3.5
v -12.2 0.1 3.5
v -12.1 0.1 3.5
v -12 0.1 3.5
v 12.8 0.1 3.5
v -12.8 0.1 3.4
v -12.7 0.1 3.4
v -12.6 0.1 3.4
v -12.2 0.1 3.4
v -12.1 0.1 3.4
v -12 0.1 3.4
v 12.6 0.1 3.4
v 12.7 0.1 3.4
v 12.8 0.1 3.4
v -12.7 0.1 3.3
v -12.6 0.1 3.3
v -12.5 0.1 3.3
v -12.2 0.1 3.3
v -12.1 0.1 3.3
v -12 0.1 3.3
v 12.6 0.1 3.3
v 12.7 0.1 3.3
v 12.8 0.1 3.3
v -12.6 0.1 3.2
v -12.5 0.1 3.2
v 12.6 0.1 3.1
v 12.7 0.1 3.1
v 12.8 0.1 3.1
v -12.8 0.1 3
v -12.7 0.1 3
v -12.6 0.1 3
v 12.7 0.1 3
v 12.8 0.1 3
v -12.8 0.1 2.9
v -12.7 0.1 2.9
v -12.6 0.1 2.9
v 12.7 0.1 2.9
v 12.8 0.1 2.9
v 12.6 0.1 2.8
v 12.7 0.1 2.8
v 12.8 0.1 2.8
v 12.6 0.1 2.7
v 12.7 0.1 2.7
v 12.8 0.1 2.7
v 12.6 0.1 2.5
v 12.7 0.1 2.5
v 12.6 0.1 2.3
v 12.7 0.1 2.3
v 12.6 0.1 1.3
v 12.7 0.1 1.3
v 12.6 0.1 1.1
v 12.7 0.1 1.1
v 12.6 0.1 -0.6
v 12.7 0.1 -0.6
v 12.6 0.1 -1.5
v 12.7 0.1 -1.5
v 12.7 0.1 -2.8
v 12.8 0.1 -2.8
v -12.8 0.1 -2.9
v -12.7 0.1 -2.9
v -12.6 0.1 -2.9
v 12.7 0.1 -2.9
v 12.8 0.1 -2.9
v -12.8 0.1 -3
v -12.7 0.1 -3
v -12.6 0.1 -3
v 12.7 0.1 -3
v 12.8 0.1 -3
v 12.6 0.1 -3.1
v 12.7 0.1 -3.1
v 12.8 0.1 -3.1
v -12.6 0.1 -3.2
v -12.5 0.1 -3.2
v 12.6 0.1 -3.2
v 12.7 0.1 -3.2
v 12.8 0.1 -3.2
v -12.6 0.1 -3.3
v -12.5 0.1 -3.3
v 7.5 0.1 -3.3
v 7.6 0.1 -3.3
v 7.8 0.1 -3.3
v 7.9 0.1 -3.3
v 9.6 0.1 -3.3
v 9.8 0.1 -3.3
v 9.9 0.1 -3.3
v 10.4 0.1 -3.3
v 11.2 0.1 -3.3
v 11.3 0.1 -3.3
v 11.4 0.1 -3.3
v 11.5 0.1 -3.3
v 11.6 0.1 -3.3
v 12.6 0.1 -3.3
v 12.7 0.1 -3.3
v -12.7 0.1 -3.4
v -12.6 0.1 -3.4
v -12.3 0.1 -3.4
v -12.1 0.1 -3.4
v 7.5 0.1 -3.4
v 7.6 0.1 -3.4
v 7.8 0.1 -3.4
v 7.9 0.1 -3.4
v 9.6 0.1 -3.4
v 9.8 0.1 -3.4
v 9.9 0.1 -3.4
v 10.4 0.1 -3.4
v 11.2 0.1 -3.4
v 11.3 0.1 -3.4
v 11.4 0.1 -3.4
v 11.5 0.1 -3.4
v 11.6 0.1 -3.4
v 11.9 0.1 -3.4
v 12.1 0.1 -3.4
v 12.6 0.1 -3.4
v -12.7 0.1 -3.5
v -12.6 0.1 -3.5
v -12.3 0.1 -3.5
v -12.2 0.1 -3.5
v -12.1 0.1 -3.5
v -12 0.1 -3.5
v -11.9 0.1 -3.5
v 7.6 0.1 -3.5
v 7.9 0.1 -3.5
v 9.6 0.1 -3.5
v 10.4 0.1 -3.5
v 11.2 0.1 -3.5
v 11.5 0.1 -3.5
v 11.9 0.1 -3.5
v 12 0.1 -3.5
v 12.1 0.1 -3.5
v 12.2 0.1 -3.5
v 12.3 0.1 -3.5
v 12.6 0.1 -3.5
v 12.7 0.1 -3.5
v 12.8 0.1 -3.5
v -12.8 0.1 -3.6
v -12.7 0.1 -3.6
v -12.6 0.1 -3.6
v -12.3 0.1 -3.6
v -12.2 0.1 -3.6
v -12.1 0.1 -3.6
v -12 0.1 -3.6
v -11.9 0.1 -3.6
v 11.9 0.1 -3.6
v 12 0.1 -3.6
v 12.1 0.1 -3.6
v 12.2 0.1 -3.6
v 12.3 0.1 -3.6
v 12.8 0.1 -3.6

# faces
f 8/3/1 2/3/1 1/3/1
f 9/12/1 3/12/1 2/12/1
f 9/3/1 2/3/1 8/3/1
f 10/13/1 4/13/1 3/13/1
f 10/12/1 3/12/1 9/12/1
f 11/12/1 5/12/1 4/12/1
f 11/13/1 4/13/1 10/13/1
f 12/13/1 6/13/1 5/13/1
f 12/12/1 5/12/1 11/12/1
f 13/12/1 7/12/1 6/12/1
f 13/13/1 6/13/1 12/13/1
f 14/12/1 7/12/1 13/12/1
f 15/12/2 16/12/2 30/12/2
f 16/1/2 17/1/2 31/1/2
f 30/12/2 16/12/2 31/12/2
f 17/13/2 18/13/2 32/13/2
f 31/1/2 17/1/2 32/1/2
f 18/12/2 19/12/2 33/12/2
f 32/13/2 18/13/2 33/13/2
f 19/3/2 20/3/2 34/3/2
f 33/12/2 19/12/2 34/12/2
f 20/13/2 21/13/2 35/13/2
f 34/3/2 20/3/2 35/3/2
f 21/12/2 22/12/2 36/12/2
f 35/13/2 21/13/2 36/13/2
f 22/13/2 23/13/2 37/13/2
f 36/12/2 22/12/2 37/12/2
f 23/12/2 24/12/2 38/12/2
f 37/13/2 23/13/2 38/13/2
f 24/3/2 25/3/2 39/3/2
f 38/12/2 24/12/2 39/12/2
f 25/13/2 26/13/2 40/13/2
f 39/3/2 25/3/2 40/3/2
f 26/12/2 27/12/2 41/12/2
f 40/13/2 26/13/2 41/13/2
f 27/13/2 28/13/2 42/13/2
f 41/12/2 27/12/2 42/12/2
f 28/12/2 29/12/2 43/12/2
f 42/13/2 28/13/2 43/13/2
f 43/12/2 29/12/2 44/12/2
f 47/3/3 46/3/3 45/3/3
f 48/3/3 46/3/3 47/3/3
f 49/12/3 48/12/3 47/12/3
f 50/12/3 48/12/3 49/12/3
f 51/11/3 50/11/3 49/11/3
f 52/11/3 50/11/3 51/11/3
f 53/13/3 52/13/3 51/13/3
f 54/13/3 52/13/3 53/13/3
f 55/12/3 54/12/3 53/12/3
f 56/12/3 54/12/3 55/12/3
f 57/12/4 58/12/4 59/12/4
f 59/12/4 58/12/4 60/12/4
f 59/1/4 60/1/4 61/1/4
f 61/1/4 60/1/4 62/1/4
f 61/12/4 62/12/4 63/12/4
f 63/12/4 62/12/4 64/12/4
f 63/1/4 64/1/4 65/1/4
f 65/1/4 64/1/4 66/1/4
f 65/11/4 66/11/4 67/11/4
f 67/11/4 66/11/4 68/11/4
f 67/13/4 68/13/4 69/13/4
f 69/13/4 68/13/4 70/13/4
f 69/2/4 70/2/4 71/2/4
f 71/2/4 70/2/4 72/2/4
f 71/12/4 72/12/4 73/12/4
f 73/12/4 72/12/4 74/12/4
f 73/1/4 74/1/4 75/1/4
f 75/1/4 74/1/4 76/1/4
f 75/11/4 76/11/4 77/11/4
f 77/11/4 76/11/4 78/11/4
f 77/13/4 78/13/4 79/13/4
f 79/13/4 78/13/4 80/13/4
f 79/2/4 80/2/4 81/2/4
f 81/2/4 80/2/4 82/2/4
f 81/12/4 82/12/4 83/12/4
f 83/12/4 82/12/4 84/12/4
f 91/3/5 86/3/5 85/3/5
f 92/12/5 87/12/5 86/12/5
f 92/3/5 86/3/5 91/3/5
f 93/12/5 87/12/5 92/12/5
f 94/11/5 88/11/5 87/11/5
f 94/12/5 87/12/5 93/12/5
f 95/13/5 89/13/5 88/13/5
f 95/11/5 88/11/5 94/11/5
f 96/12/5 90/12/5 89/12/5
f 96/13/5 89/13/5 95/13/5
f 97/12/5 90/12/5 96/12/5
f 98/12/5 90/12/5 97/12/5
f 99/12/5 90/12/5 98/12/5
f 100/12/5 93/12/5 92/12/5
f 100/12/5 92/12/5 91/12/5
f 101/14/5 94/14/5 93/14/5
f 101/12/5 93/12/5 100/12/5
f 102/14/5 94/14/5 101/14/5
f 103/3/5 95/3/5 94/3/5
f 103/14/5 94/14/5 102/14/5
f 104/15/5 96/15/5 95/15/5
f 104/3/5 95/3/5 103/3/5
f 105/14/5 97/14/5 96/14/5
f 105/15/5 96/15/5 104/15/5
f 106/3/5 98/3/5 97/3/5
f 106/14/5 97/14/5 105/14/5
f 107/1/5 99/1/5 98/1/5
f 107/3/5 98/3/5 106/3/5
f 108/1/5 99/1/5 107/1/5
f 109/4/5 102/4/5 101/4/5
f 109/14/5 101/14/5 100/14/5
f 110/5/5 106/5/5 105/5/5
f 110/4/5 102/4/5 109/4/5
f 110/5/5 103/5/5 102/5/5
f 110/5/5 104/5/5 103/5/5
f 110/5/5 105/5/5 104/5/5
f 111/16/5 107/16/5 106/16/5
f 111/5/5 106/5/5 110/5/5
f 111/5/5 110/5/5 109/5/5
f 112/13/5 108/13/5 107/13/5
f 112/16/5 107/16/5 111/16/5
f 113/13/5 108/13/5 112/13/5
f 114/12/5 100/12/5 91/12/5
f 115/14/5 109/14/5 100/14/5
f 115/12/5 100/12/5 114/12/5
f 116/5/5 111/5/5 109/5/5
f 116/14/5 109/14/5 115/14/5
f 117/17/5 112/17/5 111/17/5
f 117/12/5 113/12/5 112/12/5
f 118/12/5 113/12/5 117/12/5
f 119/13/5 115/13/5 114/13/5
f 120/15/5 116/15/5 115/15/5
f 120/13/5 115/13/5 119/13/5
f 121/5/5 111/5/5 116/5/5
f 121/15/5 116/15/5 120/15/5
f 122/17/5 117/17/5 111/17/5
f 122/3/5 118/3/5 117/3/5
f 123/3/5 118/3/5 122/3/5
f 124/5/5 111/5/5 121/5/5
f 124/17/5 122/17/5 111/17/5
f 125/13/5 123/13/5 122/13/5
f 125/17/5 122/17/5 124/17/5
f 126/13/5 123/13/5 125/13/5
f 127/5/5 124/5/5 121/5/5
f 127/16/5 125/16/5 124/16/5
f 128/12/5 126/12/5 125/12/5
f 128/16/5 125/16/5 127/16/5
f 129/12/5 126/12/5 128/12/5
f 130/5/5 127/5/5 121/5/5
f 130/17/5 128/17/5 127/17/5
f 131/13/5 129/13/5 128/13/5
f 131/17/5 128/17/5 130/17/5
f 132/5/5 130/5/5 121/5/5
f 132/16/5 131/16/5 130/16/5
f 133/13/5 129/13/5 131/13/5
f 133/16/5 131/16/5 132/16/5
f 134/5/5 132/5/5 121/5/5
f 134/17/5 133/17/5 132/17/5
f 135/13/5 129/13/5 133/13/5
f 135/17/5 133/17/5 134/17/5
f 136/5/5 134/5/5 121/5/5
f 136/16/5 135/16/5 134/16/5
f 137/13/5 129/13/5 135/13/5
f 137/16/5 135/16/5 136/16/5
f 138/5/5 136/5/5 121/5/5
f 138/17/5 137/17/5 136/17/5
f 139/13/5 129/13/5 137/13/5
f 139/17/5 137/17/5 138/17/5
f 140/5/5 138/5/5 121/5/5
f 140/16/5 139/16/5 138/16/5
f 141/13/5 129/13/5 139/13/5
f 141/16/5 139/16/5 140/16/5
f 142/17/5 141/17/5 140/17/5
f 142/13/5 129/13/5 141/13/5
f 143/13/5 129/13/5 142/13/5
f 144/12/5 120/12/5 119/12/5
f 145/14/5 121/14/5 120/14/5
f 145/12/5 120/12/5 144/12/5
f 146/5/5 140/5/5 121/5/5
f 146/14/5 121/14/5 145/14/5
f 147/17/5 142/17/5 140/17/5
f 147/12/5 143/12/5 142/12/5
f 148/12/5 143/12/5 147/12/5
f 149/13/5 145/13/5 144/13/5
f 150/15/5 146/15/5 145/15/5
f 150/13/5 145/13/5 149/13/5
f 151/5/5 140/5/5 146/5/5
f 151/15/5 146/15/5 150/15/5
f 152/17/5 147/17/5 140/17/5
f 152/3/5 148/3/5 147/3/5
f 153/3/5 148/3/5 152/3/5
f 154/5/5 140/5/5 151/5/5
f 154/17/5 152/17/5 140/17/5
f 155/13/5 153/13/5 152/13/5
f 155/17/5 152/17/5 154/17/5
f 156/13/5 153/13/5 155/13/5
f 157/14/5 151/14/5 150/14/5
f 157/5/5 154/5/5 151/5/5
f 158/5/5 154/5/5 157/5/5
f 159/16/5 155/16/5 154/16/5
f 159/5/5 154/5/5 158/5/5
f 160/12/5 156/12/5 155/12/5
f 160/16/5 155/16/5 159/16/5
f 161/12/5 156/12/5 160/12/5
f 162/4/5 158/4/5 157/4/5
f 162/14/5 157/14/5 150/14/5
f 163/5/5 159/5/5 158/5/5
f 163/4/5 158/4/5 162/4/5
f 164/5/5 159/5/5 163/5/5
f 165/5/5 159/5/5 164/5/5
f 166/5/5 159/5/5 165/5/5
f 167/5/5 159/5/5 166/5/5
f 168/5/5 159/5/5 167/5/5
f 169/5/5 159/5/5 168/5/5
f 170/5/5 159/5/5 169/5/5
f 171/5/5 159/5/5 170/5/5
f 172/5/5 159/5/5 171/5/5
f 173/5/5 159/5/5 172/5/5
f 174/5/5 159/5/5 173/5/5
f 175/5/5 159/5/5 174/5/5
f 176/5/5 159/5/5 175/5/5
f 177/17/5 160/17/5 159/17/5
f 177/5/5 159/5/5 176/5/5
f 178/13/5 161/13/5 160/13/5
f 178/17/5 160/17/5 177/17/5
f 179/12/5 150/12/5 149/12/5
f 179/14/5 162/14/5 150/14/5
f 180/8/5 163/8/5 162/8/5
f 180/14/5 162/14/5 179/14/5
f 180/8/5 164/8/5 163/8/5
f 181/8/5 164/8/5 180/8/5
f 182/8/5 164/8/5 181/8/5
f 183/7/5 165/7/5 164/7/5
f 183/8/5 164/8/5 182/8/5
f 184/10/5 166/10/5 165/10/5
f 184/7/5 165/7/5 183/7/5
f 185/17/5 167/17/5 166/17/5
f 185/10/5 166/10/5 184/10/5
f 186/6/5 168/6/5 167/6/5
f 186/17/5 167/17/5 185/17/5
f 187/9/5 169/9/5 168/9/5
f 187/6/5 168/6/5 186/6/5
f 188/10/5 170/10/5 169/10/5
f 188/9/5 169/9/5 187/9/5
f 189/9/5 171/9/5 170/9/5
f 189/10/5 170/10/5 188/10/5
f 190/6/5 172/6/5 171/6/5
f 190/9/5 171/9/5 189/9/5
f 191/9/5 173/9/5 172/9/5
f 191/6/5 172/6/5 190/6/5
f 192/10/5 174/10/5 173/10/5
f 192/9/5 173/9/5 191/9/5
f 193/17/5 175/17/5 174/17/5
f 193/10/5 174/10/5 192/10/5
f 194/7/5 176/7/5 175/7/5
f 194/17/5 175/17/5 193/17/5
f 195/8/5 177/8/5 176/8/5
f 195/7/5 176/7/5 194/7/5
f 196/8/5 177/8/5 195/8/5
f 197/8/5 177/8/5 196/8/5
f 198/16/5 178/16/5 177/16/5
f 198/8/5 177/8/5 197/8/5
f 199/12/5 179/12/5 149/12/5
f 199/3/5 180/3/5 179/3/5
f 200/17/5 181/17/5 180/17/5
f 200/3/5 180/3/5 199/3/5
f 201/16/5 182/16/5 181/16/5
f 201/17/5 181/17/5 200/17/5
f 202/16/5 182/16/5 201/16/5
f 203/17/5 183/17/5 182/17/5
f 203/16/5 182/16/5 202/16/5
f 203/17/5 184/17/5 183/17/5
f 204/17/5 184/17/5 203/17/5
f 205/17/5 184/17/5 204/17/5
f 206/16/5 185/16/5 184/16/5
f 206/17/5 184/17/5 205/17/5
f 206/16/5 186/16/5 185/16/5
f 207/17/5 187/17/5 186/17/5
f 207/16/5 186/16/5 206/16/5
f 208/16/5 188/16/5 187/16/5
f 208/17/5 187/17/5 207/17/5
f 208/16/5 189/16/5 188/16/5
f 208/16/5 190/16/5 189/16/5
f 209/17/5 191/17/5 190/17/5
f 209/16/5 190/16/5 208/16/5
f 210/16/5 194/16/5 193/16/5
f 210/17/5 191/17/5 209/17/5
f 210/16/5 193/16/5 192/16/5
f 210/16/5 192/16/5 191/16/5
f 211/17/5 195/17/5 194/17/5
f 211/16/5 194/16/5 210/16/5
f 211/17/5 196/17/5 195/17/5
f 212/16/5 197/16/5 196/16/5
f 212/17/5 196/17/5 211/17/5
f 213/16/5 197/16/5 212/16/5
f 214/17/5 198/17/5 197/17/5
f 214/16/5 197/16/5 213/16/5
f 215/17/5 198/17/5 214/17/5
f 216/17/5 198/17/5 215/17/5
f 217/16/5 178/16/5 198/16/5
f 217/17/5 198/17/5 216/17/5
f 218/13/5 161/13/5 178/13/5
f 218/16/5 178/16/5 217/16/5
f 219/13/5 161/13/5 218/13/5
f 220/12/5 199/12/5 149/12/5
f 221/1/5 200/1/5 199/1/5
f 221/12/5 199/12/5 220/12/5
f 222/12/5 201/12/5 200/12/5
f 222/1/5 200/1/5 221/1/5
f 223/1/5 202/1/5 201/1/5
f 223/12/5 201/12/5 222/12/5
f 224/11/5 203/11/5 202/11/5
f 224/1/5 202/1/5 223/1/5
f 225/13/5 204/13/5 203/13/5
f 225/11/5 203/11/5 224/11/5
f 226/2/5 205/2/5 204/2/5
f 226/13/5 204/13/5 225/13/5
f 227/12/5 211/12/5 210/12/5
f 227/2/5 205/2/5 226/2/5
f 227/12/5 209/12/5 208/12/5
f 227/12/5 210/12/5 209/12/5
f 227/12/5 206/12/5 205/12/5
f 227/12/5 207/12/5 206/12/5
f 227/12/5 208/12/5 207/12/5
f 227/12/5 212/12/5 211/12/5
f 228/1/5 213/1/5 212/1/5
f 228/12/5 212/12/5 227/12/5
f 229/11/5 214/11/5 213/11/5
f 229/1/5 213/1/5 228/1/5
f 230/13/5 215/13/5 214/13/5
f 230/11/5 214/11/5 229/11/5
f 231/2/5 216/2/5 215/2/5
f 231/13/5 215/13/5 230/13/5
f 232/12/5 217/12/5 216/12/5
f 232/2/5 216/2/5 231/2/5
f 232/12/5 219/12/5 218/12/5
f 232/12/5 218/12/5 217/12/5
f 233/12/5 219/12/5 232/12/5
f 234/3/6 235/3/6 240/3/6
f 235/12/6 236/12/6 241/12/6
f 240/3/6 235/3/6 241/3/6
f 241/12/6 236/12/6 242/12/6
f 236/11/6 237/11/6 243/11/6
f 242/12/6 236/12/6 243/12/6
f 237/13/6 238/13/6 244/13/6
f 243/11/6 237/11/6 244/11/6
f 238/12/6 239/12/6 245/12/6
f 244/13/6 238/13/6 245/13/6
f 245/12/6 239/12/6 246/12/6
f 246/12/6 239/12/6 247/12/6
f 247/12/6 239/12/6 248/12/6
f 241/12/6 242/12/6 249/12/6
f 240/12/6 241/12/6 249/12/6
f 242/14/6 243/14/6 250/14/6
f 249/12/6 242/12/6 250/12/6
f 250/14/6 243/14/6 251/14/6
f 243/3/6 244/3/6 252/3/6
f 251/14/6 243/14/6 252/14/6
f 244/15/6 245/15/6 253/15/6
f 252/3/6 244/3/6 253/3/6
f 245/14/6 246/14/6 254/14/6
f 253/15/6 245/15/6 254/15/6
f 246/3/6 247/3/6 255/3/6
f 254/14/6 246/14/6 255/14/6
f 247/1/6 248/1/6 256/1/6
f 255/3/6 247/3/6 256/3/6
f 256/1/6 248/1/6 257/1/6
f 250/4/6 251/4/6 258/4/6
f 249/14/6 250/14/6 258/14/6
f 254/5/6 255/5/6 259/5/6
f 258/4/6 251/4/6 259/4/6
f 251/5/6 252/5/6 259/5/6
f 252/5/6 253/5/6 259/5/6
f 253/5/6 254/5/6 259/5/6
f 255/16/6 256/16/6 260/16/6
f 259/5/6 255/5/6 260/5/6
f 258/5/6 259/5/6 260/5/6
f 256/13/6 257/13/6 261/13/6
f 260/16/6 256/16/6 261/16/6
f 261/13/6 257/13/6 262/13/6
f 240/12/6 249/12/6 263/12/6
f 249/14/6 258/14/6 264/14/6
f 263/12/6 249/12/6 264/12/6
f 258/5/6 260/5/6 265/5/6
f 264/14/6 258/14/6 265/14/6
f 260/17/6 261/17/6 266/17/6
f 261/12/6 262/12/6 266/12/6
f 266/12/6 262/12/6 267/12/6
f 263/13/6 264/13/6 268/13/6
f 264/15/6 265/15/6 269/15/6
f 268/13/6 264/13/6 269/13/6
f 265/5/6 260/5/6 270/5/6
f 269/15/6 265/15/6 270/15/6
f 260/17/6 266/17/6 271/17/6
f 266/3/6 267/3/6 271/3/6
f 271/3/6 267/3/6 272/3/6
f 270/5/6 260/5/6 273/5/6
f 260/17/6 271/17/6 273/17/6
f 271/13/6 272/13/6 274/13/6
f 273/17/6 271/17/6 274/17/6
f 274/13/6 272/13/6 275/13/6
f 270/5/6 273/5/6 276/5/6
f 273/16/6 274/16/6 276/16/6
f 274/12/6 275/12/6 277/12/6
f 276/16/6 274/16/6 277/16/6
f 277/12/6 275/12/6 278/12/6
f 270/5/6 276/5/6 279/5/6
f 276/17/6 277/17/6 279/17/6
f 277/13/6 278/13/6 280/13/6
f 279/17/6 277/17/6 280/17/6
f 270/5/6 279/5/6 281/5/6
f 279/16/6 280/16/6 281/16/6
f 280/13/6 278/13/6 282/13/6
f 281/16/6 280/16/6 282/16/6
f 270/5/6 281/5/6 283/5/6
f 281/17/6 282/17/6 283/17/6
f 282/13/6 278/13/6 284/13/6
f 283/17/6 282/17/6 284/17/6
f 270/5/6 283/5/6 285/5/6
f 283/16/6 284/16/6 285/16/6
f 284/13/6 278/13/6 286/13/6
f 285/16/6 284/16/6 286/16/6
f 270/5/6 285/5/6 287/5/6
f 285/17/6 286/17/6 287/17/6
f 286/13/6 278/13/6 288/13/6
f 287/17/6 286/17/6 288/17/6
f 270/5/6 287/5/6 289/5/6
f 287/16/6 288/16/6 289/16/6
f 288/13/6 278/13/6 290/13/6
f 289/16/6 288/16/6 290/16/6
f 289/17/6 290/17/6 291/17/6
f 290/13/6 278/13/6 291/13/6
f 291/13/6 278/13/6 292/13/6
f 268/12/6 269/12/6 293/12/6
f 269/14/6 270/14/6 294/14/6
f 293/12/6 269/12/6 294/12/6
f 270/5/6 289/5/6 295/5/6
f 294/14/6 270/14/6 295/14/6
f 289/17/6 291/17/6 296/17/6
f 291/12/6 292/12/6 296/12/6
f 296/12/6 292/12/6 297/12/6
f 293/13/6 294/13/6 298/13/6
f 294/15/6 295/15/6 299/15/6
f 298/13/6 294/13/6 299/13/6
f 295/5/6 289/5/6 300/5/6
f 299/15/6 295/15/6 300/15/6
f 289/17/6 296/17/6 301/17/6
f 296/3/6 297/3/6 301/3/6
f 301/3/6 297/3/6 302/3/6
f 300/5/6 289/5/6 303/5/6
f 289/17/6 301/17/6 303/17/6
f 301/13/6 302/13/6 304/13/6
f 303/17/6 301/17/6 304/17/6
f 304/13/6 302/13/6 305/13/6
f 299/14/6 300/14/6 306/14/6
f 300/5/6 303/5/6 306/5/6
f 306/5/6 303/5/6 307/5/6
f 303/16/6 304/16/6 308/16/6
f 307/5/6 303/5/6 308/5/6
f 304/12/6 305/12/6 309/12/6
f 308/16/6 304/16/6 309/16/6
f 309/12/6 305/12/6 310/12/6
f 306/4/6 307/4/6 311/4/6
f 299/14/6 306/14/6 311/14/6
f 307/5/6 308/5/6 312/5/6
f 311/4/6 307/4/6 312/4/6
f 312/5/6 308/5/6 313/5/6
f 313/5/6 308/5/6 314/5/6
f 314/5/6 308/5/6 315/5/6
f 315/5/6 308/5/6 316/5/6
f 316/5/6 308/5/6 317/5/6
f 317/5/6 308/5/6 318/5/6
f 318/5/6 308/5/6 319/5/6
f 319/5/6 308/5/6 320/5/6
f 320/5/6 308/5/6 321/5/6
f 321/5/6 308/5/6 322/5/6
f 322/5/6 308/5/6 323/5/6
f 323/5/6 308/5/6 324/5/6
f 324/5/6 308/5/6 325/5/6
f 308/17/6 309/17/6 326/17/6
f 325/5/6 308/5/6 326/5/6
f 309/13/6 310/13/6 327/13/6
f 326/17/6 309/17/6 327/17/6
f 298/12/6 299/12/6 328/12/6
f 299/14/6 311/14/6 328/14/6
f 311/8/6 312/8/6 329/8/6
f 328/14/6 311/14/6 329/14/6
f 312/8/6 313/8/6 329/8/6
f 329/8/6 313/8/6 330/8/6
f 330/8/6 313/8/6 331/8/6
f 313/7/6 314/7/6 332/7/6
f 331/8/6 313/8/6 332/8/6
f 314/10/6 315/10/6 333/10/6
f 332/7/6 314/7/6 333/7/6
f 315/17/6 316/17/6 334/17/6
f 333/10/6 315/10/6 334/10/6
f 316/6/6 317/6/6 335/6/6
f 334/17/6 316/17/6 335/17/6
f 317/9/6 318/9/6 336/9/6
f 335/6/6 317/6/6 336/6/6
f 318/10/6 319/10/6 337/10/6
f 336/9/6 318/9/6 337/9/6
f 319/9/6 320/9/6 338/9/6
f 337/10/6 319/10/6 338/10/6
f 320/6/6 321/6/6 339/6/6
f 338/9/6 320/9/6 339/9/6
f 321/9/6 322/9/6 340/9/6
f 339/6/6 321/6/6 340/6/6
f 322/10/6 323/10/6 341/10/6
f 340/9/6 322/9/6 341/9/6
f 323/17/6 324/17/6 342/17/6
f 341/10/6 323/10/6 342/10/6
f 324/7/6 325/7/6 343/7/6
f 342/17/6 324/17/6 343/17/6
f 325/8/6 326/8/6 344/8/6
f 343/7/6 325/7/6 344/7/6
f 344/8/6 326/8/6 345/8/6
f 345/8/6 326/8/6 346/8/6
f 326/16/6 327/16/6 347/16/6
f 346/8/6 326/8/6 347/8/6
f 298/12/6 328/12/6 348/12/6
f 328/3/6 329/3/6 348/3/6
f 329/17/6 330/17/6 349/17/6
f 348/3/6 329/3/6 349/3/6
f 330/16/6 331/16/6 350/16/6
f 349/17/6 330/17/6 350/17/6
f 350/16/6 331/16/6 351/16/6
f 331/17/6 332/17/6 352/17/6
f 351/16/6 331/16/6 352/16/6
f 332/17/6 333/17/6 352/17/6
f 352/17/6 333/17/6 353/17/6
f 353/17/6 333/17/6 354/17/6
f 333/16/6 334/16/6 355/16/6
f 354/17/6 333/17/6 355/17/6
f 334/16/6 335/16/6 355/16/6
f 335/17/6 336/17/6 356/17/6
f 355/16/6 335/16/6 356/16/6
f 336/16/6 337/16/6 357/16/6
f 356/17/6 336/17/6 357/17/6
f 337/16/6 338/16/6 357/16/6
f 338/16/6 339/16/6 357/16/6
f 339/17/6 340/17/6 358/17/6
f 357/16/6 339/16/6 358/16/6
f 342/16/6 343/16/6 359/16/6
f 358/17/6 340/17/6 359/17/6
f 341/16/6 342/16/6 359/16/6
f 340/16/6 341/16/6 359/16/6
f 343/17/6 344/17/6 360/17/6
f 359/16/6 343/16/6 360/16/6
f 344/17/6 345/17/6 360/17/6
f 345/16/6 346/16/6 361/16/6
f 360/17/6 345/17/6 361/17/6
f 361/16/6 346/16/6 362/16/6
f 346/17/6 347/17/6 363/17/6
f 362/16/6 346/16/6 363/16/6
f 363/17/6 347/17/6 364/17/6
f 364/17/6 347/17/6 365/17/6
f 347/16/6 327/16/6 366/16/6
f 365/17/6 347/17/6 366/17/6
f 327/13/6 310/13/6 367/13/6
f 366/16/6 327/16/6 367/16/6
f 367/13/6 310/13/6 368/13/6
f 298/12/6 348/12/6 369/12/6
f 348/1/6 349/1/6 370/1/6
f 369/12/6 348/12/6 370/12/6
f 349/12/6 350/12/6 371/12/6
f 370/1/6 349/1/6 371/1/6
f 350/1/6 351/1/6 372/1/6
f 371/12/6 350/12/6 372/12/6
f 351/11/6 352/11/6 373/11/6
f 372/1/6 351/1/6 373/1/6
f 352/13/6 353/13/6 374/13/6
f 373/11/6 352/11/6 374/11/6
f 353/2/6 354/2/6 375/2/6
f 374/13/6 353/13/6 375/13/6
f 359/12/6 360/12/6 376/12/6
f 375/2/6 354/2/6 376/2/6
f 357/12/6 358/12/6 376/12/6
f 358/12/6 359/12/6 376/12/6
f 354/12/6 355/12/6 376/12/6
f 355/12/6 356/12/6 376/12/6
f 356/12/6 357/12/6 376/12/6
f 360/12/6 361/12/6 376/12/6
f 361/1/6 362/1/6 377/1/6
f 376/12/6 361/12/6 377/12/6
f 362/11/6 363/11/6 378/11/6
f 377/1/6 362/1/6 378/1/6
f 363/13/6 364/13/6 379/13/6
f 378/11/6 363/11/6 379/11/6
f 364/2/6 365/2/6 380/2/6
f 379/13/6 364/13/6 380/13/6
f 365/12/6 366/12/6 381/12/6
f 380/2/6 365/2/6 381/2/6
f 367/12/6 368/12/6 381/12/6
f 366/12/6 367/12/6 381/12/6
f 381/12/6 368/12/6 382/12/6
