# generated by vox_to_obj_exporter
# scale=0.1 center=false ground=false y_up=true

mtllib Fight_030.mtl
usemtl palette

# normals
vn -1 0 0
vn 1 0 0
vn 0 1 0
vn 0 -1 0
vn 0 0 1
vn 0 0 -1

# texcoords
vt 0.205078125 0.5

# verts
v 31 4.7 -2.6
v 31 4.6 -2.6
v 31 4.6 -2.5
v 31 4.7 -2.5
v 31 4.7 -2.6
v 31 4.7 -2.5
v 31.1 4.7 -2.5
v 31.1 4.7 -2.6
v 31 4.6 -2.5
v 31 4.6 -2.6
v 31.1 4.6 -2.6
v 31.1 4.6 -2.5
v 31 4.7 -2.5
v 31 4.6 -2.5
v 31.1 4.6 -2.5
v 31.1 4.7 -2.5
v 31.1 4.7 -2.6
v 31.1 4.6 -2.6
v 31 4.6 -2.6
v 31 4.7 -2.6
v 31.1 4.7 -2.6
v 31.1 4.7 -2.5
v 31.2 4.7 -2.5
v 31.2 4.7 -2.6
v 31.1 4.7 -2.5
v 31.1 4.6 -2.5
v 31.2 4.6 -2.5
v 31.2 4.7 -2.5
v 31.2 4.7 -2.6
v 31.2 4.6 -2.6
v 31.1 4.6 -2.6
v 31.1 4.7 -2.6
v 31.3 4.7 -2.5
v 31.3 4.6 -2.5
v 31.3 4.6 -2.6
v 31.3 4.7 -2.6
v 31.2 4.7 -2.6
v 31.2 4.7 -2.5
v 31.3 4.7 -2.5
v 31.3 4.7 -2.6
v 31.2 4.7 -2.5
v 31.2 4.6 -2.5
v 31.3 4.6 -2.5
v 31.3 4.7 -2.5
v 31.3 4.7 -2.6
v 31.3 4.6 -2.6
v 31.2 4.6 -2.6
v 31.2 4.7 -2.6
v 31.1 4.6 -2.6
v 31.1 4.5 -2.6
v 31.1 4.5 -2.5
v 31.1 4.6 -2.5
v 31.1 4.5 -2.5
v 31.1 4.5 -2.6
v 31.2 4.5 -2.6
v 31.2 4.5 -2.5
v 31.1 4.6 -2.5
v 31.1 4.5 -2.5
v 31.2 4.5 -2.5
v 31.2 4.6 -2.5
v 31.2 4.6 -2.6
v 31.2 4.5 -2.6
v 31.1 4.5 -2.6
v 31.1 4.6 -2.6
v 31.2 4.6 -2.5
v 31.2 4.5 -2.5
v 31.3 4.5 -2.5
v 31.3 4.6 -2.5
v 31.3 4.6 -2.6
v 31.3 4.5 -2.6
v 31.2 4.5 -2.6
v 31.2 4.6 -2.6
v 31.3 4.6 -2.6
v 31.3 4.6 -2.5
v 31.4 4.6 -2.5
v 31.4 4.6 -2.6
v 31.3 4.6 -2.5
v 31.3 4.5 -2.5
v 31.4 4.5 -2.5
v 31.4 4.6 -2.5
v 31.4 4.6 -2.6
v 31.4 4.5 -2.6
v 31.3 4.5 -2.6
v 31.3 4.6 -2.6
v 31.4 4.6 -2.6
v 31.4 4.6 -2.5
v 31.5 4.6 -2.5
v 31.5 4.6 -2.6
v 31.4 4.6 -2.5
v 31.4 4.5 -2.5
v 31.5 4.5 -2.5
v 31.5 4.6 -2.5
v 31.5 4.6 -2.6
v 31.5 4.5 -2.6
v 31.4 4.5 -2.6
v 31.4 4.6 -2.6
v 31.5 4.6 -2.6
v 31.5 4.6 -2.5
v 31.6 4.6 -2.5
v 31.6 4.6 -2.6
v 31.5 4.6 -2.5
v 31.5 4.5 -2.5
v 31.6 4.5 -2.5
v 31.6 4.6 -2.5
v 31.6 4.6 -2.6
v 31.6 4.5 -2.6
v 31.5 4.5 -2.6
v 31.5 4.6 -2.6
v 31.7 4.6 -2.5
v 31.7 4.5 -2.5
v 31.7 4.5 -2.6
v 31.7 4.6 -2.6
v 31.6 4.6 -2.6
v 31.6 4.6 -2.5
v 31.7 4.6 -2.5
v 31.7 4.6 -2.6
v 31.6 4.6 -2.5
v 31.6 4.5 -2.5
v 31.7 4.5 -2.5
v 31.7 4.6 -2.5
v 31.7 4.6 -2.6
v 31.7 4.5 -2.6
v 31.6 4.5 -2.6
v 31.6 4.6 -2.6
v 31.2 4.5 -2.6
v 31.2 4.4 -2.6
v 31.2 4.4 -2.5
v 31.2 4.5 -2.5
v 31.2 4.4 -2.5
v 31.2 4.4 -2.6
v 31.3 4.4 -2.6
v 31.3 4.4 -2.5
v 31.2 4.5 -2.5
v 31.2 4.4 -2.5
v 31.3 4.4 -2.5
v 31.3 4.5 -2.5
v 31.3 4.5 -2.6
v 31.3 4.4 -2.6
v 31.2 4.4 -2.6
v 31.2 4.5 -2.6
v 31.3 4.5 -2.5
v 31.3 4.4 -2.5
v 31.4 4.4 -2.5
v 31.4 4.5 -2.5
v 31.4 4.5 -2.6
v 31.4 4.4 -2.6
v 31.3 4.4 -2.6
v 31.3 4.5 -2.6
v 31.4 4.5 -2.5
v 31.4 4.4 -2.5
v 31.5 4.4 -2.5
v 31.5 4.5 -2.5
v 31.5 4.5 -2.6
v 31.5 4.4 -2.6
v 31.4 4.4 -2.6
v 31.4 4.5 -2.6
v 31.5 4.5 -2.5
v 31.5 4.4 -2.5
v 31.6 4.4 -2.5
v 31.6 4.5 -2.5
v 31.6 4.5 -2.6
v 31.6 4.4 -2.6
v 31.5 4.4 -2.6
v 31.5 4.5 -2.6
v 31.6 4.5 -2.5
v 31.6 4.4 -2.5
v 31.7 4.4 -2.5
v 31.7 4.5 -2.5
v 31.7 4.5 -2.6
v 31.7 4.4 -2.6
v 31.6 4.4 -2.6
v 31.6 4.5 -2.6
v 31.7 4.5 -2.6
v 31.7 4.5 -2.5
v 31.8 4.5 -2.5
v 31.8 4.5 -2.6
v 31.7 4.5 -2.5
v 31.7 4.4 -2.5
v 31.8 4.4 -2.5
v 31.8 4.5 -2.5
v 31.8 4.5 -2.6
v 31.8 4.4 -2.6
v 31.7 4.4 -2.6
v 31.7 4.5 -2.6
v 31.8 4.5 -2.6
v 31.8 4.5 -2.5
v 31.9 4.5 -2.5
v 31.9 4.5 -2.6
v 31.8 4.5 -2.5
v 31.8 4.4 -2.5
v 31.9 4.4 -2.5
v 31.9 4.5 -2.5
v 31.9 4.5 -2.6
v 31.9 4.4 -2.6
v 31.8 4.4 -2.6
v 31.8 4.5 -2.6
v 32 4.5 -2.5
v 32 4.4 -2.5
v 32 4.4 -2.6
v 32 4.5 -2.6
v 31.9 4.5 -2.6
v 31.9 4.5 -2.5
v 32 4.5 -2.5
v 32 4.5 -2.6
v 31.9 4.5 -2.5
v 31.9 4.4 -2.5
v 32 4.4 -2.5
v 32 4.5 -2.5
v 32 4.5 -2.6
v 32 4.4 -2.6
v 31.9 4.4 -2.6
v 31.9 4.5 -2.6
v 31.3 4.4 -2.6
v 31.3 4.3 -2.6
v 31.3 4.3 -2.5
v 31.3 4.4 -2.5
v 31.3 4.3 -2.5
v 31.3 4.3 -2.6
v 31.4 4.3 -2.6
v 31.4 4.3 -2.5
v 31.3 4.4 -2.5
v 31.3 4.3 -2.5
v 31.4 4.3 -2.5
v 31.4 4.4 -2.5
v 31.4 4.4 -2.6
v 31.4 4.3 -2.6
v 31.3 4.3 -2.6
v 31.3 4.4 -2.6
v 31.4 4.4 -2.5
v 31.4 4.3 -2.5
v 31.5 4.3 -2.5
v 31.5 4.4 -2.5
v 31.5 4.4 -2.6
v 31.5 4.3 -2.6
v 31.4 4.3 -2.6
v 31.4 4.4 -2.6
v 31.5 4.4 -2.5
v 31.5 4.3 -2.5
v 31.6 4.3 -2.5
v 31.6 4.4 -2.5
v 31.6 4.4 -2.6
v 31.6 4.3 -2.6
v 31.5 4.3 -2.6
v 31.5 4.4 -2.6
v 31.6 4.4 -2.5
v 31.6 4.3 -2.5
v 31.7 4.3 -2.5
v 31.7 4.4 -2.5
v 31.7 4.4 -2.6
v 31.7 4.3 -2.6
v 31.6 4.3 -2.6
v 31.6 4.4 -2.6
v 31.7 4.4 -2.5
v 31.7 4.3 -2.5
v 31.8 4.3 -2.5
v 31.8 4.4 -2.5
v 31.8 4.4 -2.6
v 31.8 4.3 -2.6
v 31.7 4.3 -2.6
v 31.7 4.4 -2.6
v 31.8 4.4 -2.5
v 31.8 4.3 -2.5
v 31.9 4.3 -2.5
v 31.9 4.4 -2.5
v 31.9 4.4 -2.6
v 31.9 4.3 -2.6
v 31.8 4.3 -2.6
v 31.8 4.4 -2.6
v 32 4.4 -2.5
v 32 4.3 -2.5
v 32 4.3 -2.6
v 32 4.4 -2.6
v 31.9 4.4 -2.5
v 31.9 4.3 -2.5
v 32 4.3 -2.5
v 32 4.4 -2.5
v 32 4.4 -2.6
v 32 4.3 -2.6
v 31.9 4.3 -2.6
v 31.9 4.4 -2.6
v 31.4 4.3 -2.6
v 31.4 4.2 -2.6
v 31.4 4.2 -2.5
v 31.4 4.3 -2.5
v 31.4 4.2 -2.5
v 31.4 4.2 -2.6
v 31.5 4.2 -2.6
v 31.5 4.2 -2.5
v 31.4 4.3 -2.5
v 31.4 4.2 -2.5
v 31.5 4.2 -2.5
v 31.5 4.3 -2.5
v 31.5 4.3 -2.6
v 31.5 4.2 -2.6
v 31.4 4.2 -2.6
v 31.4 4.3 -2.6
v 31.5 4.2 -2.5
v 31.5 4.2 -2.6
v 31.6 4.2 -2.6
v 31.6 4.2 -2.5
v 31.5 4.3 -2.5
v 31.5 4.2 -2.5
v 31.6 4.2 -2.5
v 31.6 4.3 -2.5
v 31.6 4.3 -2.6
v 31.6 4.2 -2.6
v 31.5 4.2 -2.6
v 31.5 4.3 -2.6
v 31.6 4.3 -2.5
v 31.6 4.2 -2.5
v 31.7 4.2 -2.5
v 31.7 4.3 -2.5
v 31.7 4.3 -2.6
v 31.7 4.2 -2.6
v 31.6 4.2 -2.6
v 31.6 4.3 -2.6
v 31.7 4.3 -2.5
v 31.7 4.2 -2.5
v 31.8 4.2 -2.5
v 31.8 4.3 -2.5
v 31.8 4.3 -2.6
v 31.8 4.2 -2.6
v 31.7 4.2 -2.6
v 31.7 4.3 -2.6
v 31.8 4.3 -2.5
v 31.8 4.2 -2.5
v 31.9 4.2 -2.5
v 31.9 4.3 -2.5
v 31.9 4.3 -2.6
v 31.9 4.2 -2.6
v 31.8 4.2 -2.6
v 31.8 4.3 -2.6
v 32 4.3 -2.5
v 32 4.2 -2.5
v 32 4.2 -2.6
v 32 4.3 -2.6
v 31.9 4.3 -2.5
v 31.9 4.2 -2.5
v 32 4.2 -2.5
v 32 4.3 -2.5
v 32 4.3 -2.6
v 32 4.2 -2.6
v 31.9 4.2 -2.6
v 31.9 4.3 -2.6
v 31.6 4.2 -2.6
v 31.6 4.1 -2.6
v 31.6 4.1 -2.5
v 31.6 4.2 -2.5
v 31.6 4.1 -2.5
v 31.6 4.1 -2.6
v 31.7 4.1 -2.6
v 31.7 4.1 -2.5
v 31.6 4.2 -2.5
v 31.6 4.1 -2.5
v 31.7 4.1 -2.5
v 31.7 4.2 -2.5
v 31.7 4.2 -2.6
v 31.7 4.1 -2.6
v 31.6 4.1 -2.6
v 31.6 4.2 -2.6
v 31.7 4.2 -2.5
v 31.7 4.1 -2.5
v 31.8 4.1 -2.5
v 31.8 4.2 -2.5
v 31.8 4.2 -2.6
v 31.8 4.1 -2.6
v 31.7 4.1 -2.6
v 31.7 4.2 -2.6
v 31.8 4.2 -2.5
v 31.8 4.1 -2.5
v 31.9 4.1 -2.5
v 31.9 4.2 -2.5
v 31.9 4.2 -2.6
v 31.9 4.1 -2.6
v 31.8 4.1 -2.6
v 31.8 4.2 -2.6
v 32 4.2 -2.5
v 32 4.1 -2.5
v 32 4.1 -2.6
v 32 4.2 -2.6
v 31.9 4.2 -2.5
v 31.9 4.1 -2.5
v 32 4.1 -2.5
v 32 4.2 -2.5
v 32 4.2 -2.6
v 32 4.1 -2.6
v 31.9 4.1 -2.6
v 31.9 4.2 -2.6
v 31.7 4.1 -2.6
v 31.7 4 -2.6
v 31.7 4 -2.5
v 31.7 4.1 -2.5
v 31.7 4 -2.5
v 31.7 4 -2.6
v 31.8 4 -2.6
v 31.8 4 -2.5
v 31.7 4.1 -2.5
v 31.7 4 -2.5
v 31.8 4 -2.5
v 31.8 4.1 -2.5
v 31.8 4.1 -2.6
v 31.8 4 -2.6
v 31.7 4 -2.6
v 31.7 4.1 -2.6
v 31.8 4 -2.5
v 31.8 4 -2.6
v 31.9 4 -2.6
v 31.9 4 -2.5
v 31.8 4.1 -2.5
v 31.8 4 -2.5
v 31.9 4 -2.5
v 31.9 4.1 -2.5
v 31.9 4.1 -2.6
v 31.9 4 -2.6
v 31.8 4 -2.6
v 31.8 4.1 -2.6
v 32 4.1 -2.5
v 32 4 -2.5
v 32 4 -2.6
v 32 4.1 -2.6
v 31.9 4.1 -2.5
v 31.9 4 -2.5
v 32 4 -2.5
v 32 4.1 -2.5
v 32 4.1 -2.6
v 32 4 -2.6
v 31.9 4 -2.6
v 31.9 4.1 -2.6
v 31.9 4 -2.6
v 31.9 3.9 -2.6
v 31.9 3.9 -2.5
v 31.9 4 -2.5
v 32 4 -2.5
v 32 3.9 -2.5
v 32 3.9 -2.6
v 32 4 -2.6
v 31.9 3.9 -2.5
v 31.9 3.9 -2.6
v 32 3.9 -2.6
v 32 3.9 -2.5
v 31.9 4 -2.5
v 31.9 3.9 -2.5
v 32 3.9 -2.5
v 32 4 -2.5
v 32 4 -2.6
v 32 3.9 -2.6
v 31.9 3.9 -2.6
v 31.9 4 -2.6

# faces
f 1/1/1 2/1/1 3/1/1 4/1/1
f 5/1/3 6/1/3 7/1/3 8/1/3
f 9/1/4 10/1/4 11/1/4 12/1/4
f 13/1/5 14/1/5 15/1/5 16/1/5
f 17/1/6 18/1/6 19/1/6 20/1/6
f 21/1/3 22/1/3 23/1/3 24/1/3
f 25/1/5 26/1/5 27/1/5 28/1/5
f 29/1/6 30/1/6 31/1/6 32/1/6
f 33/1/2 34/1/2 35/1/2 36/1/2
f 37/1/3 38/1/3 39/1/3 40/1/3
f 41/1/5 42/1/5 43/1/5 44/1/5
f 45/1/6 46/1/6 47/1/6 48/1/6
f 49/1/1 50/1/1 51/1/1 52/1/1
f 53/1/4 54/1/4 55/1/4 56/1/4
f 57/1/5 58/1/5 59/1/5 60/1/5
f 61/1/6 62/1/6 63/1/6 64/1/6
f 65/1/5 66/1/5 67/1/5 68/1/5
f 69/1/6 70/1/6 71/1/6 72/1/6
f 73/1/3 74/1/3 75/1/3 76/1/3
f 77/1/5 78/1/5 79/1/5 80/1/5
f 81/1/6 82/1/6 83/1/6 84/1/6
f 85/1/3 86/1/3 87/1/3 88/1/3
f 89/1/5 90/1/5 91/1/5 92/1/5
f 93/1/6 94/1/6 95/1/6 96/1/6
f 97/1/3 98/1/3 99/1/3 100/1/3
f 101/1/5 102/1/5 103/1/5 104/1/5
f 105/1/6 106/1/6 107/1/6 108/1/6
f 109/1/2 110/1/2 111/1/2 112/1/2
f 113/1/3 114/1/3 115/1/3 116/1/3
f 117/1/5 118/1/5 119/1/5 120/1/5
f 121/1/6 122/1/6 123/1/6 124/1/6
f 125/1/1 126/1/1 127/1/1 128/1/1
f 129/1/4 130/1/4 131/1/4 132/1/4
f 133/1/5 134/1/5 135/1/5 136/1/5
f 137/1/6 138/1/6 139/1/6 140/1/6
f 141/1/5 142/1/5 143/1/5 144/1/5
f 145/1/6 146/1/6 147/1/6 148/1/6
f 149/1/5 150/1/5 151/1/5 152/1/5
f 153/1/6 154/1/6 155/1/6 156/1/6
f 157/1/5 158/1/5 159/1/5 160/1/5
f 161/1/6 162/1/6 163/1/6 164/1/6
f 165/1/5 166/1/5 167/1/5 168/1/5
f 169/1/6 170/1/6 171/1/6 172/1/6
f 173/1/3 174/1/3 175/1/3 176/1/3
f 177/1/5 178/1/5 179/1/5 180/1/5
f 181/1/6 182/1/6 183/1/6 184/1/6
f 185/1/3 186/1/3 187/1/3 188/1/3
f 189/1/5 190/1/5 191/1/5 192/1/5
f 193/1/6 194/1/6 195/1/6 196/1/6
f 197/1/2 198/1/2 199/1/2 200/1/2
f 201/1/3 202/1/3 203/1/3 204/1/3
f 205/1/5 206/1/5 207/1/5 208/1/5
f 209/1/6 210/1/6 211/1/6 212/1/6
f 213/1/1 214/1/1 215/1/1 216/1/1
f 217/1/4 218/1/4 219/1/4 220/1/4
f 221/1/5 222/1/5 223/1/5 224/1/5
f 225/1/6 226/1/6 227/1/6 228/1/6
f 229/1/5 230/1/5 231/1/5 232/1/5
f 233/1/6 234/1/6 235/1/6 236/1/6
f 237/1/5 238/1/5 239/1/5 240/1/5
f 241/1/6 242/1/6 243/1/6 244/1/6
f 245/1/5 246/1/5 247/1/5 248/1/5
f 249/1/6 250/1/6 251/1/6 252/1/6
f 253/1/5 254/1/5 255/1/5 256/1/5
f 257/1/6 258/1/6 259/1/6 260/1/6
f 261/1/5 262/1/5 263/1/5 264/1/5
f 265/1/6 266/1/6 267/1/6 268/1/6
f 269/1/2 270/1/2 271/1/2 272/1/2
f 273/1/5 274/1/5 275/1/5 276/1/5
f 277/1/6 278/1/6 279/1/6 280/1/6
f 281/1/1 282/1/1 283/1/1 284/1/1
f 285/1/4 286/1/4 287/1/4 288/1/4
f 289/1/5 290/1/5 291/1/5 292/1/5
f 293/1/6 294/1/6 295/1/6 296/1/6
f 297/1/4 298/1/4 299/1/4 300/1/4
f 301/1/5 302/1/5 303/1/5 304/1/5
f 305/1/6 306/1/6 307/1/6 308/1/6
f 309/1/5 310/1/5 311/1/5 312/1/5
f 313/1/6 314/1/6 315/1/6 316/1/6
f 317/1/5 318/1/5 319/1/5 320/1/5
f 321/1/6 322/1/6 323/1/6 324/1/6
f 325/1/5 326/1/5 327/1/5 328/1/5
f 329/1/6 330/1/6 331/1/6 332/1/6
f 333/1/2 334/1/2 335/1/2 336/1/2
f 337/1/5 338/1/5 339/1/5 340/1/5
f 341/1/6 342/1/6 343/1/6 344/1/6
f 345/1/1 346/1/1 347/1/1 348/1/1
f 349/1/4 350/1/4 351/1/4 352/1/4
f 353/1/5 354/1/5 355/1/5 356/1/5
f 357/1/6 358/1/6 359/1/6 360/1/6
f 361/1/5 362/1/5 363/1/5 364/1/5
f 365/1/6 366/1/6 367/1/6 368/1/6
f 369/1/5 370/1/5 371/1/5 372/1/5
f 373/1/6 374/1/6 375/1/6 376/1/6
f 377/1/2 378/1/2 379/1/2 380/1/2
f 381/1/5 382/1/5 383/1/5 384/1/5
f 385/1/6 386/1/6 387/1/6 388/1/6
f 389/1/1 390/1/1 391/1/1 392/1/1
f 393/1/4 394/1/4 395/1/4 396/1/4
f 397/1/5 398/1/5 399/1/5 400/1/5
f 401/1/6 402/1/6 403/1/6 404/1/6
f 405/1/4 406/1/4 407/1/4 408/1/4
f 409/1/5 410/1/5 411/1/5 412/1/5
f 413/1/6 414/1/6 415/1/6 416/1/6
f 417/1/2 418/1/2 419/1/2 420/1/2
f 421/1/5 422/1/5 423/1/5 424/1/5
f 425/1/6 426/1/6 427/1/6 428/1/6
f 429/1/1 430/1/1 431/1/1 432/1/1
f 433/1/2 434/1/2 435/1/2 436/1/2
f 437/1/4 438/1/4 439/1/4 440/1/4
f 441/1/5 442/1/5 443/1/5 444/1/5
f 445/1/6 446/1/6 447/1/6 448/1/6

