# generated by vox_to_obj_exporter
# scale=0.1 center=false ground=false y_up=true

mtllib Fight_009.mtl
usemtl palette

# normals
vn -1 0 0
vn 1 0 0
vn 0 1 0
vn 0 -1 0
vn 0 0 1
vn 0 0 -1

# texcoords
vt 0.216796875 0.5
vt 0.220703125 0.5

# verts
v 0 15.7 -2.6
v 0 15.6 -2.6
v 0 15.6 -2.5
v 0 15.7 -2.5
v 0 15.7 -2.6
v 0 15.7 -2.5
v 0.1 15.7 -2.5
v 0.1 15.7 -2.6
v 0 15.7 -2.5
v 0 15.6 -2.5
v 0.1 15.6 -2.5
v 0.1 15.7 -2.5
v 0.1 15.7 -2.6
v 0.1 15.6 -2.6
v 0 15.6 -2.6
v 0 15.7 -2.6
v 0.1 15.7 -2.6
v 0.1 15.7 -2.5
v 0.2 15.7 -2.5
v 0.2 15.7 -2.6
v 0.1 15.7 -2.5
v 0.1 15.6 -2.5
v 0.2 15.6 -2.5
v 0.2 15.7 -2.5
v 0.2 15.7 -2.6
v 0.2 15.6 -2.6
v 0.1 15.6 -2.6
v 0.1 15.7 -2.6
v 0.2 15.7 -2.6
v 0.2 15.7 -2.5
v 0.3 15.7 -2.5
v 0.3 15.7 -2.6
v 0.2 15.7 -2.5
v 0.2 15.6 -2.5
v 0.3 15.6 -2.5
v 0.3 15.7 -2.5
v 0.3 15.7 -2.6
v 0.3 15.6 -2.6
v 0.2 15.6 -2.6
v 0.2 15.7 -2.6
v 0.3 15.7 -2.6
v 0.3 15.7 -2.5
v 0.4 15.7 -2.5
v 0.4 15.7 -2.6
v 0.3 15.7 -2.5
v 0.3 15.6 -2.5
v 0.4 15.6 -2.5
v 0.4 15.7 -2.5
v 0.4 15.7 -2.6
v 0.4 15.6 -2.6
v 0.3 15.6 -2.6
v 0.3 15.7 -2.6
v 0.4 15.7 -2.6
v 0.4 15.7 -2.5
v 0.5 15.7 -2.5
v 0.5 15.7 -2.6
v 0.4 15.7 -2.5
v 0.4 15.6 -2.5
v 0.5 15.6 -2.5
v 0.5 15.7 -2.5
v 0.5 15.7 -2.6
v 0.5 15.6 -2.6
v 0.4 15.6 -2.6
v 0.4 15.7 -2.6
v 0.5 15.7 -2.6
v 0.5 15.7 -2.5
v 0.6 15.7 -2.5
v 0.6 15.7 -2.6
v 0.5 15.7 -2.5
v 0.5 15.6 -2.5
v 0.6 15.6 -2.5
v 0.6 15.7 -2.5
v 0.6 15.7 -2.6
v 0.6 15.6 -2.6
v 0.5 15.6 -2.6
v 0.5 15.7 -2.6
v 0.6 15.7 -2.6
v 0.6 15.7 -2.5
v 0.7 15.7 -2.5
v 0.7 15.7 -2.6
v 0.6 15.7 -2.5
v 0.6 15.6 -2.5
v 0.7 15.6 -2.5
v 0.7 15.7 -2.5
v 0.7 15.7 -2.6
v 0.7 15.6 -2.6
v 0.6 15.6 -2.6
v 0.6 15.7 -2.6
v 0.7 15.7 -2.6
v 0.7 15.7 -2.5
v 0.8 15.7 -2.5
v 0.8 15.7 -2.6
v 0.7 15.7 -2.5
v 0.7 15.6 -2.5
v 0.8 15.6 -2.5
v 0.8 15.7 -2.5
v 0.8 15.7 -2.6
v 0.8 15.6 -2.6
v 0.7 15.6 -2.6
v 0.7 15.7 -2.6
v 0.8 15.7 -2.6
v 0.8 15.7 -2.5
v 0.9 15.7 -2.5
v 0.9 15.7 -2.6
v 0.8 15.7 -2.5
v 0.8 15.6 -2.5
v 0.9 15.6 -2.5
v 0.9 15.7 -2.5
v 0.9 15.7 -2.6
v 0.9 15.6 -2.6
v 0.8 15.6 -2.6
v 0.8 15.7 -2.6
v 0.9 15.7 -2.6
v 0.9 15.7 -2.5
v 1 15.7 -2.5
v 1 15.7 -2.6
v 0.9 15.7 -2.5
v 0.9 15.6 -2.5
v 1 15.6 -2.5
v 1 15.7 -2.5
v 1 15.7 -2.6
v 1 15.6 -2.6
v 0.9 15.6 -2.6
v 0.9 15.7 -2.6
v 1 15.7 -2.6
v 1 15.7 -2.5
v 1.1 15.7 -2.5
v 1.1 15.7 -2.6
v 1 15.7 -2.5
v 1 15.6 -2.5
v 1.1 15.6 -2.5
v 1.1 15.7 -2.5
v 1.1 15.7 -2.6
v 1.1 15.6 -2.6
v 1 15.6 -2.6
v 1 15.7 -2.6
v 1.1 15.7 -2.6
v 1.1 15.7 -2.5
v 1.2 15.7 -2.5
v 1.2 15.7 -2.6
v 1.1 15.7 -2.5
v 1.1 15.6 -2.5
v 1.2 15.6 -2.5
v 1.2 15.7 -2.5
v 1.2 15.7 -2.6
v 1.2 15.6 -2.6
v 1.1 15.6 -2.6
v 1.1 15.7 -2.6
v 1.3 15.7 -2.5
v 1.3 15.6 -2.5
v 1.3 15.6 -2.6
v 1.3 15.7 -2.6
v 1.2 15.7 -2.6
v 1.2 15.7 -2.5
v 1.3 15.7 -2.5
v 1.3 15.7 -2.6
v 1.2 15.7 -2.5
v 1.2 15.6 -2.5
v 1.3 15.6 -2.5
v 1.3 15.7 -2.5
v 1.3 15.7 -2.6
v 1.3 15.6 -2.6
v 1.2 15.6 -2.6
v 1.2 15.7 -2.6
v 0 15.6 -2.6
v 0 15.5 -2.6
v 0 15.5 -2.5
v 0 15.6 -2.5
v 0 15.6 -2.5
v 0 15.5 -2.5
v 0.1 15.5 -2.5
v 0.1 15.6 -2.5
v 0.1 15.6 -2.6
v 0.1 15.5 -2.6
v 0 15.5 -2.6
v 0 15.6 -2.6
v 0.1 15.6 -2.5
v 0.1 15.5 -2.5
v 0.2 15.5 -2.5
v 0.2 15.6 -2.5
v 0.2 15.6 -2.6
v 0.2 15.5 -2.6
v 0.1 15.5 -2.6
v 0.1 15.6 -2.6
v 0.2 15.6 -2.5
v 0.2 15.5 -2.5
v 0.3 15.5 -2.5
v 0.3 15.6 -2.5
v 0.3 15.6 -2.6
v 0.3 15.5 -2.6
v 0.2 15.5 -2.6
v 0.2 15.6 -2.6
v 0.3 15.6 -2.5
v 0.3 15.5 -2.5
v 0.4 15.5 -2.5
v 0.4 15.6 -2.5
v 0.4 15.6 -2.6
v 0.4 15.5 -2.6
v 0.3 15.5 -2.6
v 0.3 15.6 -2.6
v 0.4 15.6 -2.5
v 0.4 15.5 -2.5
v 0.5 15.5 -2.5
v 0.5 15.6 -2.5
v 0.5 15.6 -2.6
v 0.5 15.5 -2.6
v 0.4 15.5 -2.6
v 0.4 15.6 -2.6
v 0.5 15.6 -2.5
v 0.5 15.5 -2.5
v 0.6 15.5 -2.5
v 0.6 15.6 -2.5
v 0.6 15.6 -2.6
v 0.6 15.5 -2.6
v 0.5 15.5 -2.6
v 0.5 15.6 -2.6
v 0.6 15.6 -2.5
v 0.6 15.5 -2.5
v 0.7 15.5 -2.5
v 0.7 15.6 -2.5
v 0.7 15.6 -2.6
v 0.7 15.5 -2.6
v 0.6 15.5 -2.6
v 0.6 15.6 -2.6
v 0.7 15.6 -2.5
v 0.7 15.5 -2.5
v 0.8 15.5 -2.5
v 0.8 15.6 -2.5
v 0.8 15.6 -2.6
v 0.8 15.5 -2.6
v 0.7 15.5 -2.6
v 0.7 15.6 -2.6
v 0.8 15.6 -2.5
v 0.8 15.5 -2.5
v 0.9 15.5 -2.5
v 0.9 15.6 -2.5
v 0.9 15.6 -2.6
v 0.9 15.5 -2.6
v 0.8 15.5 -2.6
v 0.8 15.6 -2.6
v 0.9 15.6 -2.5
v 0.9 15.5 -2.5
v 1 15.5 -2.5
v 1 15.6 -2.5
v 1 15.6 -2.6
v 1 15.5 -2.6
v 0.9 15.5 -2.6
v 0.9 15.6 -2.6
v 1 15.6 -2.5
v 1 15.5 -2.5
v 1.1 15.5 -2.5
v 1.1 15.6 -2.5
v 1.1 15.6 -2.6
v 1.1 15.5 -2.6
v 1 15.5 -2.6
v 1 15.6 -2.6
v 1.1 15.6 -2.5
v 1.1 15.5 -2.5
v 1.2 15.5 -2.5
v 1.2 15.6 -2.5
v 1.2 15.6 -2.6
v 1.2 15.5 -2.6
v 1.1 15.5 -2.6
v 1.1 15.6 -2.6
v 1.2 15.6 -2.5
v 1.2 15.5 -2.5
v 1.3 15.5 -2.5
v 1.3 15.6 -2.5
v 1.3 15.6 -2.6
v 1.3 15.5 -2.6
v 1.2 15.5 -2.6
v 1.2 15.6 -2.6
v 1.3 15.6 -2.6
v 1.3 15.6 -2.5
v 1.4 15.6 -2.5
v 1.4 15.6 -2.6
v 1.3 15.6 -2.5
v 1.3 15.5 -2.5
v 1.4 15.5 -2.5
v 1.4 15.6 -2.5
v 1.4 15.6 -2.6
v 1.4 15.5 -2.6
v 1.3 15.5 -2.6
v 1.3 15.6 -2.6
v 1.4 15.6 -2.6
v 1.4 15.6 -2.5
v 1.5 15.6 -2.5
v 1.5 15.6 -2.6
v 1.4 15.6 -2.5
v 1.4 15.5 -2.5
v 1.5 15.5 -2.5
v 1.5 15.6 -2.5
v 1.5 15.6 -2.6
v 1.5 15.5 -2.6
v 1.4 15.5 -2.6
v 1.4 15.6 -2.6
v 1.6 15.6 -2.5
v 1.6 15.5 -2.5
v 1.6 15.5 -2.6
v 1.6 15.6 -2.6
v 1.5 15.6 -2.6
v 1.5 15.6 -2.5
v 1.6 15.6 -2.5
v 1.6 15.6 -2.6
v 1.5 15.6 -2.5
v 1.5 15.5 -2.5
v 1.6 15.5 -2.5
v 1.6 15.6 -2.5
v 1.6 15.6 -2.6
v 1.6 15.5 -2.6
v 1.5 15.5 -2.6
v 1.5 15.6 -2.6
v 0 15.5 -2.6
v 0 15.4 -2.6
v 0 15.4 -2.5
v 0 15.5 -2.5
v 0 15.5 -2.5
v 0 15.4 -2.5
v 0.1 15.4 -2.5
v 0.1 15.5 -2.5
v 0.1 15.5 -2.6
v 0.1 15.4 -2.6
v 0 15.4 -2.6
v 0 15.5 -2.6
v 0.1 15.5 -2.5
v 0.1 15.4 -2.5
v 0.2 15.4 -2.5
v 0.2 15.5 -2.5
v 0.2 15.5 -2.6
v 0.2 15.4 -2.6
v 0.1 15.4 -2.6
v 0.1 15.5 -2.6
v 0.2 15.5 -2.5
v 0.2 15.4 -2.5
v 0.3 15.4 -2.5
v 0.3 15.5 -2.5
v 0.3 15.5 -2.6
v 0.3 15.4 -2.6
v 0.2 15.4 -2.6
v 0.2 15.5 -2.6
v 0.3 15.5 -2.5
v 0.3 15.4 -2.5
v 0.4 15.4 -2.5
v 0.4 15.5 -2.5
v 0.4 15.5 -2.6
v 0.4 15.4 -2.6
v 0.3 15.4 -2.6
v 0.3 15.5 -2.6
v 0.4 15.5 -2.5
v 0.4 15.4 -2.5
v 0.5 15.4 -2.5
v 0.5 15.5 -2.5
v 0.5 15.5 -2.6
v 0.5 15.4 -2.6
v 0.4 15.4 -2.6
v 0.4 15.5 -2.6
v 0.5 15.5 -2.5
v 0.5 15.4 -2.5
v 0.6 15.4 -2.5
v 0.6 15.5 -2.5
v 0.6 15.5 -2.6
v 0.6 15.4 -2.6
v 0.5 15.4 -2.6
v 0.5 15.5 -2.6
v 0.6 15.5 -2.5
v 0.6 15.4 -2.5
v 0.7 15.4 -2.5
v 0.7 15.5 -2.5
v 0.7 15.5 -2.6
v 0.7 15.4 -2.6
v 0.6 15.4 -2.6
v 0.6 15.5 -2.6
v 0.7 15.5 -2.5
v 0.7 15.4 -2.5
v 0.8 15.4 -2.5
v 0.8 15.5 -2.5
v 0.8 15.5 -2.6
v 0.8 15.4 -2.6
v 0.7 15.4 -2.6
v 0.7 15.5 -2.6
v 0.8 15.5 -2.5
v 0.8 15.4 -2.5
v 0.9 15.4 -2.5
v 0.9 15.5 -2.5
v 0.9 15.5 -2.6
v 0.9 15.4 -2.6
v 0.8 15.4 -2.6
v 0.8 15.5 -2.6
v 0.9 15.5 -2.5
v 0.9 15.4 -2.5
v 1 15.4 -2.5
v 1 15.5 -2.5
v 1 15.5 -2.6
v 1 15.4 -2.6
v 0.9 15.4 -2.6
v 0.9 15.5 -2.6
v 1 15.5 -2.5
v 1 15.4 -2.5
v 1.1 15.4 -2.5
v 1.1 15.5 -2.5
v 1.1 15.5 -2.6
v 1.1 15.4 -2.6
v 1 15.4 -2.6
v 1 15.5 -2.6
v 1.1 15.5 -2.5
v 1.1 15.4 -2.5
v 1.2 15.4 -2.5
v 1.2 15.5 -2.5
v 1.2 15.5 -2.6
v 1.2 15.4 -2.6
v 1.1 15.4 -2.6
v 1.1 15.5 -2.6
v 1.2 15.5 -2.5
v 1.2 15.4 -2.5
v 1.3 15.4 -2.5
v 1.3 15.5 -2.5
v 1.3 15.5 -2.6
v 1.3 15.4 -2.6
v 1.2 15.4 -2.6
v 1.2 15.5 -2.6
v 1.3 15.5 -2.5
v 1.3 15.4 -2.5
v 1.4 15.4 -2.5
v 1.4 15.5 -2.5
v 1.4 15.5 -2.6
v 1.4 15.4 -2.6
v 1.3 15.4 -2.6
v 1.3 15.5 -2.6
v 1.4 15.5 -2.5
v 1.4 15.4 -2.5
v 1.5 15.4 -2.5
v 1.5 15.5 -2.5
v 1.5 15.5 -2.6
v 1.5 15.4 -2.6
v 1.4 15.4 -2.6
v 1.4 15.5 -2.6
v 1.5 15.5 -2.5
v 1.5 15.4 -2.5
v 1.6 15.4 -2.5
v 1.6 15.5 -2.5
v 1.6 15.5 -2.6
v 1.6 15.4 -2.6
v 1.5 15.4 -2.6
v 1.5 15.5 -2.6
v 1.6 15.5 -2.6
v 1.6 15.5 -2.5
v 1.7 15.5 -2.5
v 1.7 15.5 -2.6
v 1.6 15.5 -2.5
v 1.6 15.4 -2.5
v 1.7 15.4 -2.5
v 1.7 15.5 -2.5
v 1.7 15.5 -2.6
v 1.7 15.4 -2.6
v 1.6 15.4 -2.6
v 1.6 15.5 -2.6
v 1.7 15.5 -2.6
v 1.7 15.5 -2.5
v 1.8 15.5 -2.5
v 1.8 15.5 -2.6
v 1.7 15.5 -2.5
v 1.7 15.4 -2.5
v 1.8 15.4 -2.5
v 1.8 15.5 -2.5
v 1.8 15.5 -2.6
v 1.8 15.4 -2.6
v 1.7 15.4 -2.6
v 1.7 15.5 -2.6
v 1.9 15.5 -2.5
v 1.9 15.4 -2.5
v 1.9 15.4 -2.6
v 1.9 15.5 -2.6
v 1.8 15.5 -2.6
v 1.8 15.5 -2.5
v 1.9 15.5 -2.5
v 1.9 15.5 -2.6
v 1.8 15.5 -2.5
v 1.8 15.4 -2.5
v 1.9 15.4 -2.5
v 1.9 15.5 -2.5
v 1.9 15.5 -2.6
v 1.9 15.4 -2.6
v 1.8 15.4 -2.6
v 1.8 15.5 -2.6
v 0 15.4 -2.6
v 0 15.3 -2.6
v 0 15.3 -2.5
v 0 15.4 -2.5
v 0 15.4 -2.5
v 0 15.3 -2.5
v 0.1 15.3 -2.5
v 0.1 15.4 -2.5
v 0.1 15.4 -2.6
v 0.1 15.3 -2.6
v 0 15.3 -2.6
v 0 15.4 -2.6
v 0.1 15.4 -2.5
v 0.1 15.3 -2.5
v 0.2 15.3 -2.5
v 0.2 15.4 -2.5
v 0.2 15.4 -2.6
v 0.2 15.3 -2.6
v 0.1 15.3 -2.6
v 0.1 15.4 -2.6
v 0.2 15.4 -2.5
v 0.2 15.3 -2.5
v 0.3 15.3 -2.5
v 0.3 15.4 -2.5
v 0.3 15.4 -2.6
v 0.3 15.3 -2.6
v 0.2 15.3 -2.6
v 0.2 15.4 -2.6
v 0.3 15.4 -2.5
v 0.3 15.3 -2.5
v 0.4 15.3 -2.5
v 0.4 15.4 -2.5
v 0.4 15.4 -2.6
v 0.4 15.3 -2.6
v 0.3 15.3 -2.6
v 0.3 15.4 -2.6
v 0.4 15.4 -2.5
v 0.4 15.3 -2.5
v 0.5 15.3 -2.5
v 0.5 15.4 -2.5
v 0.5 15.4 -2.6
v 0.5 15.3 -2.6
v 0.4 15.3 -2.6
v 0.4 15.4 -2.6
v 0.5 15.4 -2.5
v 0.5 15.3 -2.5
v 0.6 15.3 -2.5
v 0.6 15.4 -2.5
v 0.6 15.4 -2.6
v 0.6 15.3 -2.6
v 0.5 15.3 -2.6
v 0.5 15.4 -2.6
v 0.6 15.4 -2.5
v 0.6 15.3 -2.5
v 0.7 15.3 -2.5
v 0.7 15.4 -2.5
v 0.7 15.4 -2.6
v 0.7 15.3 -2.6
v 0.6 15.3 -2.6
v 0.6 15.4 -2.6
v 0.7 15.4 -2.5
v 0.7 15.3 -2.5
v 0.8 15.3 -2.5
v 0.8 15.4 -2.5
v 0.8 15.4 -2.6
v 0.8 15.3 -2.6
v 0.7 15.3 -2.6
v 0.7 15.4 -2.6
v 0.8 15.4 -2.5
v 0.8 15.3 -2.5
v 0.9 15.3 -2.5
v 0.9 15.4 -2.5
v 0.9 15.4 -2.6
v 0.9 15.3 -2.6
v 0.8 15.3 -2.6
v 0.8 15.4 -2.6
v 0.9 15.4 -2.5
v 0.9 15.3 -2.5
v 1 15.3 -2.5
v 1 15.4 -2.5
v 1 15.4 -2.6
v 1 15.3 -2.6
v 0.9 15.3 -2.6
v 0.9 15.4 -2.6
v 1 15.4 -2.5
v 1 15.3 -2.5
v 1.1 15.3 -2.5
v 1.1 15.4 -2.5
v 1.1 15.4 -2.6
v 1.1 15.3 -2.6
v 1 15.3 -2.6
v 1 15.4 -2.6
v 1.1 15.4 -2.5
v 1.1 15.3 -2.5
v 1.2 15.3 -2.5
v 1.2 15.4 -2.5
v 1.2 15.4 -2.6
v 1.2 15.3 -2.6
v 1.1 15.3 -2.6
v 1.1 15.4 -2.6
v 1.2 15.4 -2.5
v 1.2 15.3 -2.5
v 1.3 15.3 -2.5
v 1.3 15.4 -2.5
v 1.3 15.4 -2.6
v 1.3 15.3 -2.6
v 1.2 15.3 -2.6
v 1.2 15.4 -2.6
v 1.3 15.4 -2.5
v 1.3 15.3 -2.5
v 1.4 15.3 -2.5
v 1.4 15.4 -2.5
v 1.4 15.4 -2.6
v 1.4 15.3 -2.6
v 1.3 15.3 -2.6
v 1.3 15.4 -2.6
v 1.4 15.4 -2.5
v 1.4 15.3 -2.5
v 1.5 15.3 -2.5
v 1.5 15.4 -2.5
v 1.5 15.4 -2.6
v 1.5 15.3 -2.6
v 1.4 15.3 -2.6
v 1.4 15.4 -2.6
v 1.5 15.4 -2.5
v 1.5 15.3 -2.5
v 1.6 15.3 -2.5
v 1.6 15.4 -2.5
v 1.6 15.4 -2.6
v 1.6 15.3 -2.6
v 1.5 15.3 -2.6
v 1.5 15.4 -2.6
v 1.6 15.4 -2.5
v 1.6 15.3 -2.5
v 1.7 15.3 -2.5
v 1.7 15.4 -2.5
v 1.7 15.4 -2.6
v 1.7 15.3 -2.6
v 1.6 15.3 -2.6
v 1.6 15.4 -2.6
v 1.7 15.4 -2.5
v 1.7 15.3 -2.5
v 1.8 15.3 -2.5
v 1.8 15.4 -2.5
v 1.8 15.4 -2.6
v 1.8 15.3 -2.6
v 1.7 15.3 -2.6
v 1.7 15.4 -2.6
v 1.8 15.4 -2.5
v 1.8 15.3 -2.5
v 1.9 15.3 -2.5
v 1.9 15.4 -2.5
v 1.9 15.4 -2.6
v 1.9 15.3 -2.6
v 1.8 15.3 -2.6
v 1.8 15.4 -2.6
v 1.9 15.4 -2.6
v 1.9 15.4 -2.5
v 2 15.4 -2.5
v 2 15.4 -2.6
v 1.9 15.4 -2.5
v 1.9 15.3 -2.5
v 2 15.3 -2.5
v 2 15.4 -2.5
v 2 15.4 -2.6
v 2 15.3 -2.6
v 1.9 15.3 -2.6
v 1.9 15.4 -2.6
v 2 15.4 -2.6
v 2 15.4 -2.5
v 2.1 15.4 -2.5
v 2.1 15.4 -2.6
v 2 15.4 -2.5
v 2 15.3 -2.5
v 2.1 15.3 -2.5
v 2.1 15.4 -2.5
v 2.1 15.4 -2.6
v 2.1 15.3 -2.6
v 2 15.3 -2.6
v 2 15.4 -2.6
v 2.1 15.4 -2.6
v 2.1 15.4 -2.5
v 2.2 15.4 -2.5
v 2.2 15.4 -2.6
v 2.1 15.4 -2.5
v 2.1 15.3 -2.5
v 2.2 15.3 -2.5
v 2.2 15.4 -2.5
v 2.2 15.4 -2.6
v 2.2 15.3 -2.6
v 2.1 15.3 -2.6
v 2.1 15.4 -2.6
v 2.2 15.4 -2.6
v 2.2 15.4 -2.5
v 2.3 15.4 -2.5
v 2.3 15.4 -2.6
v 2.2 15.4 -2.5
v 2.2 15.3 -2.5
v 2.3 15.3 -2.5
v 2.3 15.4 -2.5
v 2.3 15.4 -2.6
v 2.3 15.3 -2.6
v 2.2 15.3 -2.6
v 2.2 15.4 -2.6
v 2.3 15.4 -2.6
v 2.3 15.4 -2.5
v 2.4 15.4 -2.5
v 2.4 15.4 -2.6
v 2.3 15.4 -2.5
v 2.3 15.3 -2.5
v 2.4 15.3 -2.5
v 2.4 15.4 -2.5
v 2.4 15.4 -2.6
v 2.4 15.3 -2.6
v 2.3 15.3 -2.6
v 2.3 15.4 -2.6
v 2.5 15.4 -2.5
v 2.5 15.3 -2.5
v 2.5 15.3 -2.6
v 2.5 15.4 -2.6
v 2.4 15.4 -2.6
v 2.4 15.4 -2.5
v 2.5 15.4 -2.5
v 2.5 15.4 -2.6
v 2.4 15.4 -2.5
v 2.4 15.3 -2.5
v 2.5 15.3 -2.5
v 2.5 15.4 -2.5
v 2.5 15.4 -2.6
v 2.5 15.3 -2.6
v 2.4 15.3 -2.6
v 2.4 15.4 -2.6
v 0 15.3 -2.6
v 0 15.2 -2.6
v 0 15.2 -2.5
v 0 15.3 -2.5
v 0 15.3 -2.5
v 0 15.2 -2.5
v 0.1 15.2 -2.5
v 0.1 15.3 -2.5
v 0.1 15.3 -2.6
v 0.1 15.2 -2.6
v 0 15.2 -2.6
v 0 15.3 -2.6
v 0.1 15.3 -2.5
v 0.1 15.2 -2.5
v 0.2 15.2 -2.5
v 0.2 15.3 -2.5
v 0.2 15.3 -2.6
v 0.2 15.2 -2.6
v 0.1 15.2 -2.6
v 0.1 15.3 -2.6
v 0.2 15.3 -2.5
v 0.2 15.2 -2.5
v 0.3 15.2 -2.5
v 0.3 15.3 -2.5
v 0.3 15.3 -2.6
v 0.3 15.2 -2.6
v 0.2 15.2 -2.6
v 0.2 15.3 -2.6
v 0.3 15.3 -2.5
v 0.3 15.2 -2.5
v 0.4 15.2 -2.5
v 0.4 15.3 -2.5
v 0.4 15.3 -2.6
v 0.4 15.2 -2.6
v 0.3 15.2 -2.6
v 0.3 15.3 -2.6
v 0.4 15.3 -2.5
v 0.4 15.2 -2.5
v 0.5 15.2 -2.5
v 0.5 15.3 -2.5
v 0.5 15.3 -2.6
v 0.5 15.2 -2.6
v 0.4 15.2 -2.6
v 0.4 15.3 -2.6
v 0.5 15.3 -2.5
v 0.5 15.2 -2.5
v 0.6 15.2 -2.5
v 0.6 15.3 -2.5
v 0.6 15.3 -2.6
v 0.6 15.2 -2.6
v 0.5 15.2 -2.6
v 0.5 15.3 -2.6
v 0.6 15.3 -2.5
v 0.6 15.2 -2.5
v 0.7 15.2 -2.5
v 0.7 15.3 -2.5
v 0.7 15.3 -2.6
v 0.7 15.2 -2.6
v 0.6 15.2 -2.6
v 0.6 15.3 -2.6
v 0.7 15.3 -2.5
v 0.7 15.2 -2.5
v 0.8 15.2 -2.5
v 0.8 15.3 -2.5
v 0.8 15.3 -2.6
v 0.8 15.2 -2.6
v 0.7 15.2 -2.6
v 0.7 15.3 -2.6
v 0.8 15.3 -2.5
v 0.8 15.2 -2.5
v 0.9 15.2 -2.5
v 0.9 15.3 -2.5
v 0.9 15.3 -2.6
v 0.9 15.2 -2.6
v 0.8 15.2 -2.6
v 0.8 15.3 -2.6
v 0.9 15.3 -2.5
v 0.9 15.2 -2.5
v 1 15.2 -2.5
v 1 15.3 -2.5
v 1 15.3 -2.6
v 1 15.2 -2.6
v 0.9 15.2 -2.6
v 0.9 15.3 -2.6
v 1 15.3 -2.5
v 1 15.2 -2.5
v 1.1 15.2 -2.5
v 1.1 15.3 -2.5
v 1.1 15.3 -2.6
v 1.1 15.2 -2.6
v 1 15.2 -2.6
v 1 15.3 -2.6
v 1.1 15.3 -2.5
v 1.1 15.2 -2.5
v 1.2 15.2 -2.5
v 1.2 15.3 -2.5
v 1.2 15.3 -2.6
v 1.2 15.2 -2.6
v 1.1 15.2 -2.6
v 1.1 15.3 -2.6
v 1.2 15.3 -2.5
v 1.2 15.2 -2.5
v 1.3 15.2 -2.5
v 1.3 15.3 -2.5
v 1.3 15.3 -2.6
v 1.3 15.2 -2.6
v 1.2 15.2 -2.6
v 1.2 15.3 -2.6
v 1.3 15.3 -2.5
v 1.3 15.2 -2.5
v 1.4 15.2 -2.5
v 1.4 15.3 -2.5
v 1.4 15.3 -2.6
v 1.4 15.2 -2.6
v 1.3 15.2 -2.6
v 1.3 15.3 -2.6
v 1.4 15.3 -2.5
v 1.4 15.2 -2.5
v 1.5 15.2 -2.5
v 1.5 15.3 -2.5
v 1.5 15.3 -2.6
v 1.5 15.2 -2.6
v 1.4 15.2 -2.6
v 1.4 15.3 -2.6
v 1.5 15.3 -2.5
v 1.5 15.2 -2.5
v 1.6 15.2 -2.5
v 1.6 15.3 -2.5
v 1.6 15.3 -2.6
v 1.6 15.2 -2.6
v 1.5 15.2 -2.6
v 1.5 15.3 -2.6
v 1.6 15.3 -2.5
v 1.6 15.2 -2.5
v 1.7 15.2 -2.5
v 1.7 15.3 -2.5
v 1.7 15.3 -2.6
v 1.7 15.2 -2.6
v 1.6 15.2 -2.6
v 1.6 15.3 -2.6
v 1.7 15.3 -2.5
v 1.7 15.2 -2.5
v 1.8 15.2 -2.5
v 1.8 15.3 -2.5
v 1.8 15.3 -2.6
v 1.8 15.2 -2.6
v 1.7 15.2 -2.6
v 1.7 15.3 -2.6
v 1.8 15.3 -2.5
v 1.8 15.2 -2.5
v 1.9 15.2 -2.5
v 1.9 15.3 -2.5
v 1.9 15.3 -2.6
v 1.9 15.2 -2.6
v 1.8 15.2 -2.6
v 1.8 15.3 -2.6
v 1.9 15.3 -2.5
v 1.9 15.2 -2.5
v 2 15.2 -2.5
v 2 15.3 -2.5
v 2 15.3 -2.6
v 2 15.2 -2.6
v 1.9 15.2 -2.6
v 1.9 15.3 -2.6
v 2 15.3 -2.5
v 2 15.2 -2.5
v 2.1 15.2 -2.5
v 2.1 15.3 -2.5
v 2.1 15.3 -2.6
v 2.1 15.2 -2.6
v 2 15.2 -2.6
v 2 15.3 -2.6
v 2.1 15.3 -2.5
v 2.1 15.2 -2.5
v 2.2 15.2 -2.5
v 2.2 15.3 -2.5
v 2.2 15.3 -2.6
v 2.2 15.2 -2.6
v 2.1 15.2 -2.6
v 2.1 15.3 -2.6
v 2.2 15.3 -2.5
v 2.2 15.2 -2.5
v 2.3 15.2 -2.5
v 2.3 15.3 -2.5
v 2.3 15.3 -2.6
v 2.3 15.2 -2.6
v 2.2 15.2 -2.6
v 2.2 15.3 -2.6
v 2.3 15.3 -2.5
v 2.3 15.2 -2.5
v 2.4 15.2 -2.5
v 2.4 15.3 -2.5
v 2.4 15.3 -2.6
v 2.4 15.2 -2.6
v 2.3 15.2 -2.6
v 2.3 15.3 -2.6
v 2.4 15.3 -2.5
v 2.4 15.2 -2.5
v 2.5 15.2 -2.5
v 2.5 15.3 -2.5
v 2.5 15.3 -2.6
v 2.5 15.2 -2.6
v 2.4 15.2 -2.6
v 2.4 15.3 -2.6
v 2.5 15.3 -2.6
v 2.5 15.3 -2.5
v 2.6 15.3 -2.5
v 2.6 15.3 -2.6
v 2.5 15.3 -2.5
v 2.5 15.2 -2.5
v 2.6 15.2 -2.5
v 2.6 15.3 -2.5
v 2.6 15.3 -2.6
v 2.6 15.2 -2.6
v 2.5 15.2 -2.6
v 2.5 15.3 -2.6
v 2.6 15.3 -2.6
v 2.6 15.3 -2.5
v 2.7 15.3 -2.5
v 2.7 15.3 -2.6
v 2.6 15.3 -2.5
v 2.6 15.2 -2.5
v 2.7 15.2 -2.5
v 2.7 15.3 -2.5
v 2.7 15.3 -2.6
v 2.7 15.2 -2.6
v 2.6 15.2 -2.6
v 2.6 15.3 -2.6
v 2.7 15.3 -2.6
v 2.7 15.3 -2.5
v 2.8 15.3 -2.5
v 2.8 15.3 -2.6
v 2.7 15.3 -2.5
v 2.7 15.2 -2.5
v 2.8 15.2 -2.5
v 2.8 15.3 -2.5
v 2.8 15.3 -2.6
v 2.8 15.2 -2.6
v 2.7 15.2 -2.6
v 2.7 15.3 -2.6
v 2.8 15.3 -2.6
v 2.8 15.3 -2.5
v 2.9 15.3 -2.5
v 2.9 15.3 -2.6
v 2.8 15.3 -2.5
v 2.8 15.2 -2.5
v 2.9 15.2 -2.5
v 2.9 15.3 -2.5
v 2.9 15.3 -2.6
v 2.9 15.2 -2.6
v 2.8 15.2 -2.6
v 2.8 15.3 -2.6
v 2.9 15.3 -2.6
v 2.9 15.3 -2.5
v 3 15.3 -2.5
v 3 15.3 -2.6
v 2.9 15.3 -2.5
v 2.9 15.2 -2.5
v 3 15.2 -2.5
v 3 15.3 -2.5
v 3 15.3 -2.6
v 3 15.2 -2.6
v 2.9 15.2 -2.6
v 2.9 15.3 -2.6
v 3.1 15.3 -2.5
v 3.1 15.2 -2.5
v 3.1 15.2 -2.6
v 3.1 15.3 -2.6
v 3 15.3 -2.6
v 3 15.3 -2.5
v 3.1 15.3 -2.5
v 3.1 15.3 -2.6
v 3 15.3 -2.5
v 3 15.2 -2.5
v 3.1 15.2 -2.5
v 3.1 15.3 -2.5
v 3.1 15.3 -2.6
v 3.1 15.2 -2.6
v 3 15.2 -2.6
v 3 15.3 -2.6
v 0 15.2 -2.6
v 0 15.1 -2.6
v 0 15.1 -2.5
v 0 15.2 -2.5
v 0 15.2 -2.5
v 0 15.1 -2.5
v 0.1 15.1 -2.5
v 0.1 15.2 -2.5
v 0.1 15.2 -2.6
v 0.1 15.1 -2.6
v 0 15.1 -2.6
v 0 15.2 -2.6
v 0.1 15.2 -2.5
v 0.1 15.1 -2.5
v 0.2 15.1 -2.5
v 0.2 15.2 -2.5
v 0.2 15.2 -2.6
v 0.2 15.1 -2.6
v 0.1 15.1 -2.6
v 0.1 15.2 -2.6
v 0.2 15.2 -2.5
v 0.2 15.1 -2.5
v 0.3 15.1 -2.5
v 0.3 15.2 -2.5
v 0.3 15.2 -2.6
v 0.3 15.1 -2.6
v 0.2 15.1 -2.6
v 0.2 15.2 -2.6
v 0.3 15.2 -2.5
v 0.3 15.1 -2.5
v 0.4 15.1 -2.5
v 0.4 15.2 -2.5
v 0.4 15.2 -2.6
v 0.4 15.1 -2.6
v 0.3 15.1 -2.6
v 0.3 15.2 -2.6
v 0.4 15.2 -2.5
v 0.4 15.1 -2.5
v 0.5 15.1 -2.5
v 0.5 15.2 -2.5
v 0.5 15.2 -2.6
v 0.5 15.1 -2.6
v 0.4 15.1 -2.6
v 0.4 15.2 -2.6
v 0.5 15.2 -2.5
v 0.5 15.1 -2.5
v 0.6 15.1 -2.5
v 0.6 15.2 -2.5
v 0.6 15.2 -2.6
v 0.6 15.1 -2.6
v 0.5 15.1 -2.6
v 0.5 15.2 -2.6
v 0.6 15.2 -2.5
v 0.6 15.1 -2.5
v 0.7 15.1 -2.5
v 0.7 15.2 -2.5
v 0.7 15.2 -2.6
v 0.7 15.1 -2.6
v 0.6 15.1 -2.6
v 0.6 15.2 -2.6
v 0.7 15.2 -2.5
v 0.7 15.1 -2.5
v 0.8 15.1 -2.5
v 0.8 15.2 -2.5
v 0.8 15.2 -2.6
v 0.8 15.1 -2.6
v 0.7 15.1 -2.6
v 0.7 15.2 -2.6
v 0.8 15.2 -2.5
v 0.8 15.1 -2.5
v 0.9 15.1 -2.5
v 0.9 15.2 -2.5
v 0.9 15.2 -2.6
v 0.9 15.1 -2.6
v 0.8 15.1 -2.6
v 0.8 15.2 -2.6
v 0.9 15.2 -2.5
v 0.9 15.1 -2.5
v 1 15.1 -2.5
v 1 15.2 -2.5
v 1 15.2 -2.6
v 1 15.1 -2.6
v 0.9 15.1 -2.6
v 0.9 15.2 -2.6
v 1 15.2 -2.5
v 1 15.1 -2.5
v 1.1 15.1 -2.5
v 1.1 15.2 -2.5
v 1.1 15.2 -2.6
v 1.1 15.1 -2.6
v 1 15.1 -2.6
v 1 15.2 -2.6
v 1.1 15.2 -2.5
v 1.1 15.1 -2.5
v 1.2 15.1 -2.5
v 1.2 15.2 -2.5
v 1.2 15.2 -2.6
v 1.2 15.1 -2.6
v 1.1 15.1 -2.6
v 1.1 15.2 -2.6
v 1.2 15.2 -2.5
v 1.2 15.1 -2.5
v 1.3 15.1 -2.5
v 1.3 15.2 -2.5
v 1.3 15.2 -2.6
v 1.3 15.1 -2.6
v 1.2 15.1 -2.6
v 1.2 15.2 -2.6
v 1.3 15.2 -2.5
v 1.3 15.1 -2.5
v 1.4 15.1 -2.5
v 1.4 15.2 -2.5
v 1.4 15.2 -2.6
v 1.4 15.1 -2.6
v 1.3 15.1 -2.6
v 1.3 15.2 -2.6
v 1.4 15.2 -2.5
v 1.4 15.1 -2.5
v 1.5 15.1 -2.5
v 1.5 15.2 -2.5
v 1.5 15.2 -2.6
v 1.5 15.1 -2.6
v 1.4 15.1 -2.6
v 1.4 15.2 -2.6
v 1.5 15.2 -2.5
v 1.5 15.1 -2.5
v 1.6 15.1 -2.5
v 1.6 15.2 -2.5
v 1.6 15.2 -2.6
v 1.6 15.1 -2.6
v 1.5 15.1 -2.6
v 1.5 15.2 -2.6
v 1.6 15.2 -2.5
v 1.6 15.1 -2.5
v 1.7 15.1 -2.5
v 1.7 15.2 -2.5
v 1.7 15.2 -2.6
v 1.7 15.1 -2.6
v 1.6 15.1 -2.6
v 1.6 15.2 -2.6
v 1.7 15.2 -2.5
v 1.7 15.1 -2.5
v 1.8 15.1 -2.5
v 1.8 15.2 -2.5
v 1.8 15.2 -2.6
v 1.8 15.1 -2.6
v 1.7 15.1 -2.6
v 1.7 15.2 -2.6
v 1.8 15.2 -2.5
v 1.8 15.1 -2.5
v 1.9 15.1 -2.5
v 1.9 15.2 -2.5
v 1.9 15.2 -2.6
v 1.9 15.1 -2.6
v 1.8 15.1 -2.6
v 1.8 15.2 -2.6
v 1.9 15.2 -2.5
v 1.9 15.1 -2.5
v 2 15.1 -2.5
v 2 15.2 -2.5
v 2 15.2 -2.6
v 2 15.1 -2.6
v 1.9 15.1 -2.6
v 1.9 15.2 -2.6
v 2 15.2 -2.5
v 2 15.1 -2.5
v 2.1 15.1 -2.5
v 2.1 15.2 -2.5
v 2.1 15.2 -2.6
v 2.1 15.1 -2.6
v 2 15.1 -2.6
v 2 15.2 -2.6
v 2.1 15.2 -2.5
v 2.1 15.1 -2.5
v 2.2 15.1 -2.5
v 2.2 15.2 -2.5
v 2.2 15.2 -2.6
v 2.2 15.1 -2.6
v 2.1 15.1 -2.6
v 2.1 15.2 -2.6
v 2.2 15.2 -2.5
v 2.2 15.1 -2.5
v 2.3 15.1 -2.5
v 2.3 15.2 -2.5
v 2.3 15.2 -2.6
v 2.3 15.1 -2.6
v 2.2 15.1 -2.6
v 2.2 15.2 -2.6
v 2.3 15.2 -2.5
v 2.3 15.1 -2.5
v 2.4 15.1 -2.5
v 2.4 15.2 -2.5
v 2.4 15.2 -2.6
v 2.4 15.1 -2.6
v 2.3 15.1 -2.6
v 2.3 15.2 -2.6
v 2.4 15.2 -2.5
v 2.4 15.1 -2.5
v 2.5 15.1 -2.5
v 2.5 15.2 -2.5
v 2.5 15.2 -2.6
v 2.5 15.1 -2.6
v 2.4 15.1 -2.6
v 2.4 15.2 -2.6
v 2.5 15.2 -2.5
v 2.5 15.1 -2.5
v 2.6 15.1 -2.5
v 2.6 15.2 -2.5
v 2.6 15.2 -2.6
v 2.6 15.1 -2.6
v 2.5 15.1 -2.6
v 2.5 15.2 -2.6
v 2.6 15.2 -2.5
v 2.6 15.1 -2.5
v 2.7 15.1 -2.5
v 2.7 15.2 -2.5
v 2.7 15.2 -2.6
v 2.7 15.1 -2.6
v 2.6 15.1 -2.6
v 2.6 15.2 -2.6
v 2.7 15.2 -2.5
v 2.7 15.1 -2.5
v 2.8 15.1 -2.5
v 2.8 15.2 -2.5
v 2.8 15.2 -2.6
v 2.8 15.1 -2.6
v 2.7 15.1 -2.6
v 2.7 15.2 -2.6
v 2.8 15.2 -2.5
v 2.8 15.1 -2.5
v 2.9 15.1 -2.5
v 2.9 15.2 -2.5
v 2.9 15.2 -2.6
v 2.9 15.1 -2.6
v 2.8 15.1 -2.6
v 2.8 15.2 -2.6
v 2.9 15.2 -2.5
v 2.9 15.1 -2.5
v 3 15.1 -2.5
v 3 15.2 -2.5
v 3 15.2 -2.6
v 3 15.1 -2.6
v 2.9 15.1 -2.6
v 2.9 15.2 -2.6
v 3 15.2 -2.5
v 3 15.1 -2.5
v 3.1 15.1 -2.5
v 3.1 15.2 -2.5
v 3.1 15.2 -2.6
v 3.1 15.1 -2.6
v 3 15.1 -2.6
v 3 15.2 -2.6
v 3.1 15.2 -2.6
v 3.1 15.2 -2.5
v 3.2 15.2 -2.5
v 3.2 15.2 -2.6
v 3.1 15.2 -2.5
v 3.1 15.1 -2.5
v 3.2 15.1 -2.5
v 3.2 15.2 -2.5
v 3.2 15.2 -2.6
v 3.2 15.1 -2.6
v 3.1 15.1 -2.6
v 3.1 15.2 -2.6
v 3.3 15.2 -2.5
v 3.3 15.1 -2.5
v 3.3 15.1 -2.6
v 3.3 15.2 -2.6
v 3.2 15.2 -2.6
v 3.2 15.2 -2.5
v 3.3 15.2 -2.5
v 3.3 15.2 -2.6
v 3.2 15.1 -2.5
v 3.2 15.1 -2.6
v 3.3 15.1 -2.6
v 3.3 15.1 -2.5
v 3.2 15.2 -2.5
v 3.2 15.1 -2.5
v 3.3 15.1 -2.5
v 3.3 15.2 -2.5
v 3.3 15.2 -2.6
v 3.3 15.1 -2.6
v 3.2 15.1 -2.6
v 3.2 15.2 -2.6
v 0 15.1 -2.6
v 0 15 -2.6
v 0 15 -2.5
v 0 15.1 -2.5
v 0 15.1 -2.5
v 0 15 -2.5
v 0.1 15 -2.5
v 0.1 15.1 -2.5
v 0.1 15.1 -2.6
v 0.1 15 -2.6
v 0 15 -2.6
v 0 15.1 -2.6
v 0.1 15.1 -2.5
v 0.1 15 -2.5
v 0.2 15 -2.5
v 0.2 15.1 -2.5
v 0.2 15.1 -2.6
v 0.2 15 -2.6
v 0.1 15 -2.6
v 0.1 15.1 -2.6
v 0.2 15.1 -2.5
v 0.2 15 -2.5
v 0.3 15 -2.5
v 0.3 15.1 -2.5
v 0.3 15.1 -2.6
v 0.3 15 -2.6
v 0.2 15 -2.6
v 0.2 15.1 -2.6
v 0.3 15.1 -2.5
v 0.3 15 -2.5
v 0.4 15 -2.5
v 0.4 15.1 -2.5
v 0.4 15.1 -2.6
v 0.4 15 -2.6
v 0.3 15 -2.6
v 0.3 15.1 -2.6
v 0.4 15.1 -2.5
v 0.4 15 -2.5
v 0.5 15 -2.5
v 0.5 15.1 -2.5
v 0.5 15.1 -2.6
v 0.5 15 -2.6
v 0.4 15 -2.6
v 0.4 15.1 -2.6
v 0.5 15.1 -2.5
v 0.5 15 -2.5
v 0.6 15 -2.5
v 0.6 15.1 -2.5
v 0.6 15.1 -2.6
v 0.6 15 -2.6
v 0.5 15 -2.6
v 0.5 15.1 -2.6
v 0.6 15.1 -2.5
v 0.6 15 -2.5
v 0.7 15 -2.5
v 0.7 15.1 -2.5
v 0.7 15.1 -2.6
v 0.7 15 -2.6
v 0.6 15 -2.6
v 0.6 15.1 -2.6
v 0.7 15.1 -2.5
v 0.7 15 -2.5
v 0.8 15 -2.5
v 0.8 15.1 -2.5
v 0.8 15.1 -2.6
v 0.8 15 -2.6
v 0.7 15 -2.6
v 0.7 15.1 -2.6
v 0.8 15.1 -2.5
v 0.8 15 -2.5
v 0.9 15 -2.5
v 0.9 15.1 -2.5
v 0.9 15.1 -2.6
v 0.9 15 -2.6
v 0.8 15 -2.6
v 0.8 15.1 -2.6
v 0.9 15.1 -2.5
v 0.9 15 -2.5
v 1 15 -2.5
v 1 15.1 -2.5
v 1 15.1 -2.6
v 1 15 -2.6
v 0.9 15 -2.6
v 0.9 15.1 -2.6
v 1 15.1 -2.5
v 1 15 -2.5
v 1.1 15 -2.5
v 1.1 15.1 -2.5
v 1.1 15.1 -2.6
v 1.1 15 -2.6
v 1 15 -2.6
v 1 15.1 -2.6
v 1.1 15.1 -2.5
v 1.1 15 -2.5
v 1.2 15 -2.5
v 1.2 15.1 -2.5
v 1.2 15.1 -2.6
v 1.2 15 -2.6
v 1.1 15 -2.6
v 1.1 15.1 -2.6
v 1.2 15.1 -2.5
v 1.2 15 -2.5
v 1.3 15 -2.5
v 1.3 15.1 -2.5
v 1.3 15.1 -2.6
v 1.3 15 -2.6
v 1.2 15 -2.6
v 1.2 15.1 -2.6
v 1.3 15.1 -2.5
v 1.3 15 -2.5
v 1.4 15 -2.5
v 1.4 15.1 -2.5
v 1.4 15.1 -2.6
v 1.4 15 -2.6
v 1.3 15 -2.6
v 1.3 15.1 -2.6
v 1.4 15.1 -2.5
v 1.4 15 -2.5
v 1.5 15 -2.5
v 1.5 15.1 -2.5
v 1.5 15.1 -2.6
v 1.5 15 -2.6
v 1.4 15 -2.6
v 1.4 15.1 -2.6
v 1.5 15.1 -2.5
v 1.5 15 -2.5
v 1.6 15 -2.5
v 1.6 15.1 -2.5
v 1.6 15.1 -2.6
v 1.6 15 -2.6
v 1.5 15 -2.6
v 1.5 15.1 -2.6
v 1.6 15.1 -2.5
v 1.6 15 -2.5
v 1.7 15 -2.5
v 1.7 15.1 -2.5
v 1.7 15.1 -2.6
v 1.7 15 -2.6
v 1.6 15 -2.6
v 1.6 15.1 -2.6
v 1.7 15.1 -2.5
v 1.7 15 -2.5
v 1.8 15 -2.5
v 1.8 15.1 -2.5
v 1.8 15.1 -2.6
v 1.8 15 -2.6
v 1.7 15 -2.6
v 1.7 15.1 -2.6
v 1.8 15.1 -2.5
v 1.8 15 -2.5
v 1.9 15 -2.5
v 1.9 15.1 -2.5
v 1.9 15.1 -2.6
v 1.9 15 -2.6
v 1.8 15 -2.6
v 1.8 15.1 -2.6
v 1.9 15.1 -2.5
v 1.9 15 -2.5
v 2 15 -2.5
v 2 15.1 -2.5
v 2 15.1 -2.6
v 2 15 -2.6
v 1.9 15 -2.6
v 1.9 15.1 -2.6
v 2 15.1 -2.5
v 2 15 -2.5
v 2.1 15 -2.5
v 2.1 15.1 -2.5
v 2.1 15.1 -2.6
v 2.1 15 -2.6
v 2 15 -2.6
v 2 15.1 -2.6
v 2.1 15.1 -2.5
v 2.1 15 -2.5
v 2.2 15 -2.5
v 2.2 15.1 -2.5
v 2.2 15.1 -2.6
v 2.2 15 -2.6
v 2.1 15 -2.6
v 2.1 15.1 -2.6
v 2.2 15.1 -2.5
v 2.2 15 -2.5
v 2.3 15 -2.5
v 2.3 15.1 -2.5
v 2.3 15.1 -2.6
v 2.3 15 -2.6
v 2.2 15 -2.6
v 2.2 15.1 -2.6
v 2.3 15.1 -2.5
v 2.3 15 -2.5
v 2.4 15 -2.5
v 2.4 15.1 -2.5
v 2.4 15.1 -2.6
v 2.4 15 -2.6
v 2.3 15 -2.6
v 2.3 15.1 -2.6
v 2.4 15.1 -2.5
v 2.4 15 -2.5
v 2.5 15 -2.5
v 2.5 15.1 -2.5
v 2.5 15.1 -2.6
v 2.5 15 -2.6
v 2.4 15 -2.6
v 2.4 15.1 -2.6
v 2.5 15.1 -2.5
v 2.5 15 -2.5
v 2.6 15 -2.5
v 2.6 15.1 -2.5
v 2.6 15.1 -2.6
v 2.6 15 -2.6
v 2.5 15 -2.6
v 2.5 15.1 -2.6
v 2.6 15.1 -2.5
v 2.6 15 -2.5
v 2.7 15 -2.5
v 2.7 15.1 -2.5
v 2.7 15.1 -2.6
v 2.7 15 -2.6
v 2.6 15 -2.6
v 2.6 15.1 -2.6
v 2.7 15.1 -2.5
v 2.7 15 -2.5
v 2.8 15 -2.5
v 2.8 15.1 -2.5
v 2.8 15.1 -2.6
v 2.8 15 -2.6
v 2.7 15 -2.6
v 2.7 15.1 -2.6
v 2.8 15.1 -2.5
v 2.8 15 -2.5
v 2.9 15 -2.5
v 2.9 15.1 -2.5
v 2.9 15.1 -2.6
v 2.9 15 -2.6
v 2.8 15 -2.6
v 2.8 15.1 -2.6
v 2.9 15.1 -2.5
v 2.9 15 -2.5
v 3 15 -2.5
v 3 15.1 -2.5
v 3 15.1 -2.6
v 3 15 -2.6
v 2.9 15 -2.6
v 2.9 15.1 -2.6
v 3 15 -2.5
v 3 15 -2.6
v 3.1 15 -2.6
v 3.1 15 -2.5
v 3 15.1 -2.5
v 3 15 -2.5
v 3.1 15 -2.5
v 3.1 15.1 -2.5
v 3.1 15.1 -2.6
v 3.1 15 -2.6
v 3 15 -2.6
v 3 15.1 -2.6
v 3.2 15.1 -2.5
v 3.2 15 -2.5
v 3.2 15 -2.6
v 3.2 15.1 -2.6
v 3.1 15 -2.5
v 3.1 15 -2.6
v 3.2 15 -2.6
v 3.2 15 -2.5
v 3.1 15.1 -2.5
v 3.1 15 -2.5
v 3.2 15 -2.5
v 3.2 15.1 -2.5
v 3.2 15.1 -2.6
v 3.2 15 -2.6
v 3.1 15 -2.6
v 3.1 15.1 -2.6
v 0 15 -2.6
v 0 14.9 -2.6
v 0 14.9 -2.5
v 0 15 -2.5
v 0 15 -2.5
v 0 14.9 -2.5
v 0.1 14.9 -2.5
v 0.1 15 -2.5
v 0.1 15 -2.6
v 0.1 14.9 -2.6
v 0 14.9 -2.6
v 0 15 -2.6
v 0.1 15 -2.5
v 0.1 14.9 -2.5
v 0.2 14.9 -2.5
v 0.2 15 -2.5
v 0.2 15 -2.6
v 0.2 14.9 -2.6
v 0.1 14.9 -2.6
v 0.1 15 -2.6
v 0.2 15 -2.5
v 0.2 14.9 -2.5
v 0.3 14.9 -2.5
v 0.3 15 -2.5
v 0.3 15 -2.6
v 0.3 14.9 -2.6
v 0.2 14.9 -2.6
v 0.2 15 -2.6
v 0.3 15 -2.5
v 0.3 14.9 -2.5
v 0.4 14.9 -2.5
v 0.4 15 -2.5
v 0.4 15 -2.6
v 0.4 14.9 -2.6
v 0.3 14.9 -2.6
v 0.3 15 -2.6
v 0.4 15 -2.5
v 0.4 14.9 -2.5
v 0.5 14.9 -2.5
v 0.5 15 -2.5
v 0.5 15 -2.6
v 0.5 14.9 -2.6
v 0.4 14.9 -2.6
v 0.4 15 -2.6
v 0.5 15 -2.5
v 0.5 14.9 -2.5
v 0.6 14.9 -2.5
v 0.6 15 -2.5
v 0.6 15 -2.6
v 0.6 14.9 -2.6
v 0.5 14.9 -2.6
v 0.5 15 -2.6
v 0.6 15 -2.5
v 0.6 14.9 -2.5
v 0.7 14.9 -2.5
v 0.7 15 -2.5
v 0.7 15 -2.6
v 0.7 14.9 -2.6
v 0.6 14.9 -2.6
v 0.6 15 -2.6
v 0.7 15 -2.5
v 0.7 14.9 -2.5
v 0.8 14.9 -2.5
v 0.8 15 -2.5
v 0.8 15 -2.6
v 0.8 14.9 -2.6
v 0.7 14.9 -2.6
v 0.7 15 -2.6
v 0.8 15 -2.5
v 0.8 14.9 -2.5
v 0.9 14.9 -2.5
v 0.9 15 -2.5
v 0.9 15 -2.6
v 0.9 14.9 -2.6
v 0.8 14.9 -2.6
v 0.8 15 -2.6
v 0.9 15 -2.5
v 0.9 14.9 -2.5
v 1 14.9 -2.5
v 1 15 -2.5
v 1 15 -2.6
v 1 14.9 -2.6
v 0.9 14.9 -2.6
v 0.9 15 -2.6
v 1 15 -2.5
v 1 14.9 -2.5
v 1.1 14.9 -2.5
v 1.1 15 -2.5
v 1.1 15 -2.6
v 1.1 14.9 -2.6
v 1 14.9 -2.6
v 1 15 -2.6
v 1.1 15 -2.5
v 1.1 14.9 -2.5
v 1.2 14.9 -2.5
v 1.2 15 -2.5
v 1.2 15 -2.6
v 1.2 14.9 -2.6
v 1.1 14.9 -2.6
v 1.1 15 -2.6
v 1.2 15 -2.5
v 1.2 14.9 -2.5
v 1.3 14.9 -2.5
v 1.3 15 -2.5
v 1.3 15 -2.6
v 1.3 14.9 -2.6
v 1.2 14.9 -2.6
v 1.2 15 -2.6
v 1.3 15 -2.5
v 1.3 14.9 -2.5
v 1.4 14.9 -2.5
v 1.4 15 -2.5
v 1.4 15 -2.6
v 1.4 14.9 -2.6
v 1.3 14.9 -2.6
v 1.3 15 -2.6
v 1.4 15 -2.5
v 1.4 14.9 -2.5
v 1.5 14.9 -2.5
v 1.5 15 -2.5
v 1.5 15 -2.6
v 1.5 14.9 -2.6
v 1.4 14.9 -2.6
v 1.4 15 -2.6
v 1.5 15 -2.5
v 1.5 14.9 -2.5
v 1.6 14.9 -2.5
v 1.6 15 -2.5
v 1.6 15 -2.6
v 1.6 14.9 -2.6
v 1.5 14.9 -2.6
v 1.5 15 -2.6
v 1.6 15 -2.5
v 1.6 14.9 -2.5
v 1.7 14.9 -2.5
v 1.7 15 -2.5
v 1.7 15 -2.6
v 1.7 14.9 -2.6
v 1.6 14.9 -2.6
v 1.6 15 -2.6
v 1.7 15 -2.5
v 1.7 14.9 -2.5
v 1.8 14.9 -2.5
v 1.8 15 -2.5
v 1.8 15 -2.6
v 1.8 14.9 -2.6
v 1.7 14.9 -2.6
v 1.7 15 -2.6
v 1.8 15 -2.5
v 1.8 14.9 -2.5
v 1.9 14.9 -2.5
v 1.9 15 -2.5
v 1.9 15 -2.6
v 1.9 14.9 -2.6
v 1.8 14.9 -2.6
v 1.8 15 -2.6
v 1.9 15 -2.5
v 1.9 14.9 -2.5
v 2 14.9 -2.5
v 2 15 -2.5
v 2 15 -2.6
v 2 14.9 -2.6
v 1.9 14.9 -2.6
v 1.9 15 -2.6
v 2 15 -2.5
v 2 14.9 -2.5
v 2.1 14.9 -2.5
v 2.1 15 -2.5
v 2.1 15 -2.6
v 2.1 14.9 -2.6
v 2 14.9 -2.6
v 2 15 -2.6
v 2.1 15 -2.5
v 2.1 14.9 -2.5
v 2.2 14.9 -2.5
v 2.2 15 -2.5
v 2.2 15 -2.6
v 2.2 14.9 -2.6
v 2.1 14.9 -2.6
v 2.1 15 -2.6
v 2.2 15 -2.5
v 2.2 14.9 -2.5
v 2.3 14.9 -2.5
v 2.3 15 -2.5
v 2.3 15 -2.6
v 2.3 14.9 -2.6
v 2.2 14.9 -2.6
v 2.2 15 -2.6
v 2.3 15 -2.5
v 2.3 14.9 -2.5
v 2.4 14.9 -2.5
v 2.4 15 -2.5
v 2.4 15 -2.6
v 2.4 14.9 -2.6
v 2.3 14.9 -2.6
v 2.3 15 -2.6
v 2.4 14.9 -2.5
v 2.4 14.9 -2.6
v 2.5 14.9 -2.6
v 2.5 14.9 -2.5
v 2.4 15 -2.5
v 2.4 14.9 -2.5
v 2.5 14.9 -2.5
v 2.5 15 -2.5
v 2.5 15 -2.6
v 2.5 14.9 -2.6
v 2.4 14.9 -2.6
v 2.4 15 -2.6
v 2.5 14.9 -2.5
v 2.5 14.9 -2.6
v 2.6 14.9 -2.6
v 2.6 14.9 -2.5
v 2.5 15 -2.5
v 2.5 14.9 -2.5
v 2.6 14.9 -2.5
v 2.6 15 -2.5
v 2.6 15 -2.6
v 2.6 14.9 -2.6
v 2.5 14.9 -2.6
v 2.5 15 -2.6
v 2.6 14.9 -2.5
v 2.6 14.9 -2.6
v 2.7 14.9 -2.6
v 2.7 14.9 -2.5
v 2.6 15 -2.5
v 2.6 14.9 -2.5
v 2.7 14.9 -2.5
v 2.7 15 -2.5
v 2.7 15 -2.6
v 2.7 14.9 -2.6
v 2.6 14.9 -2.6
v 2.6 15 -2.6
v 2.7 14.9 -2.5
v 2.7 14.9 -2.6
v 2.8 14.9 -2.6
v 2.8 14.9 -2.5
v 2.7 15 -2.5
v 2.7 14.9 -2.5
v 2.8 14.9 -2.5
v 2.8 15 -2.5
v 2.8 15 -2.6
v 2.8 14.9 -2.6
v 2.7 14.9 -2.6
v 2.7 15 -2.6
v 2.8 14.9 -2.5
v 2.8 14.9 -2.6
v 2.9 14.9 -2.6
v 2.9 14.9 -2.5
v 2.8 15 -2.5
v 2.8 14.9 -2.5
v 2.9 14.9 -2.5
v 2.9 15 -2.5
v 2.9 15 -2.6
v 2.9 14.9 -2.6
v 2.8 14.9 -2.6
v 2.8 15 -2.6
v 3 15 -2.5
v 3 14.9 -2.5
v 3 14.9 -2.6
v 3 15 -2.6
v 2.9 14.9 -2.5
v 2.9 14.9 -2.6
v 3 14.9 -2.6
v 3 14.9 -2.5
v 2.9 15 -2.5
v 2.9 14.9 -2.5
v 3 14.9 -2.5
v 3 15 -2.5
v 3 15 -2.6
v 3 14.9 -2.6
v 2.9 14.9 -2.6
v 2.9 15 -2.6
v 0 14.9 -2.6
v 0 14.8 -2.6
v 0 14.8 -2.5
v 0 14.9 -2.5
v 0 14.9 -2.5
v 0 14.8 -2.5
v 0.1 14.8 -2.5
v 0.1 14.9 -2.5
v 0.1 14.9 -2.6
v 0.1 14.8 -2.6
v 0 14.8 -2.6
v 0 14.9 -2.6
v 0.1 14.9 -2.5
v 0.1 14.8 -2.5
v 0.2 14.8 -2.5
v 0.2 14.9 -2.5
v 0.2 14.9 -2.6
v 0.2 14.8 -2.6
v 0.1 14.8 -2.6
v 0.1 14.9 -2.6
v 0.2 14.9 -2.5
v 0.2 14.8 -2.5
v 0.3 14.8 -2.5
v 0.3 14.9 -2.5
v 0.3 14.9 -2.6
v 0.3 14.8 -2.6
v 0.2 14.8 -2.6
v 0.2 14.9 -2.6
v 0.3 14.9 -2.5
v 0.3 14.8 -2.5
v 0.4 14.8 -2.5
v 0.4 14.9 -2.5
v 0.4 14.9 -2.6
v 0.4 14.8 -2.6
v 0.3 14.8 -2.6
v 0.3 14.9 -2.6
v 0.4 14.9 -2.5
v 0.4 14.8 -2.5
v 0.5 14.8 -2.5
v 0.5 14.9 -2.5
v 0.5 14.9 -2.6
v 0.5 14.8 -2.6
v 0.4 14.8 -2.6
v 0.4 14.9 -2.6
v 0.5 14.9 -2.5
v 0.5 14.8 -2.5
v 0.6 14.8 -2.5
v 0.6 14.9 -2.5
v 0.6 14.9 -2.6
v 0.6 14.8 -2.6
v 0.5 14.8 -2.6
v 0.5 14.9 -2.6
v 0.6 14.9 -2.5
v 0.6 14.8 -2.5
v 0.7 14.8 -2.5
v 0.7 14.9 -2.5
v 0.7 14.9 -2.6
v 0.7 14.8 -2.6
v 0.6 14.8 -2.6
v 0.6 14.9 -2.6
v 0.7 14.9 -2.5
v 0.7 14.8 -2.5
v 0.8 14.8 -2.5
v 0.8 14.9 -2.5
v 0.8 14.9 -2.6
v 0.8 14.8 -2.6
v 0.7 14.8 -2.6
v 0.7 14.9 -2.6
v 0.8 14.9 -2.5
v 0.8 14.8 -2.5
v 0.9 14.8 -2.5
v 0.9 14.9 -2.5
v 0.9 14.9 -2.6
v 0.9 14.8 -2.6
v 0.8 14.8 -2.6
v 0.8 14.9 -2.6
v 0.9 14.9 -2.5
v 0.9 14.8 -2.5
v 1 14.8 -2.5
v 1 14.9 -2.5
v 1 14.9 -2.6
v 1 14.8 -2.6
v 0.9 14.8 -2.6
v 0.9 14.9 -2.6
v 1 14.9 -2.5
v 1 14.8 -2.5
v 1.1 14.8 -2.5
v 1.1 14.9 -2.5
v 1.1 14.9 -2.6
v 1.1 14.8 -2.6
v 1 14.8 -2.6
v 1 14.9 -2.6
v 1.1 14.9 -2.5
v 1.1 14.8 -2.5
v 1.2 14.8 -2.5
v 1.2 14.9 -2.5
v 1.2 14.9 -2.6
v 1.2 14.8 -2.6
v 1.1 14.8 -2.6
v 1.1 14.9 -2.6
v 1.2 14.9 -2.5
v 1.2 14.8 -2.5
v 1.3 14.8 -2.5
v 1.3 14.9 -2.5
v 1.3 14.9 -2.6
v 1.3 14.8 -2.6
v 1.2 14.8 -2.6
v 1.2 14.9 -2.6
v 1.3 14.9 -2.5
v 1.3 14.8 -2.5
v 1.4 14.8 -2.5
v 1.4 14.9 -2.5
v 1.4 14.9 -2.6
v 1.4 14.8 -2.6
v 1.3 14.8 -2.6
v 1.3 14.9 -2.6
v 1.4 14.9 -2.5
v 1.4 14.8 -2.5
v 1.5 14.8 -2.5
v 1.5 14.9 -2.5
v 1.5 14.9 -2.6
v 1.5 14.8 -2.6
v 1.4 14.8 -2.6
v 1.4 14.9 -2.6
v 1.5 14.9 -2.5
v 1.5 14.8 -2.5
v 1.6 14.8 -2.5
v 1.6 14.9 -2.5
v 1.6 14.9 -2.6
v 1.6 14.8 -2.6
v 1.5 14.8 -2.6
v 1.5 14.9 -2.6
v 1.6 14.9 -2.5
v 1.6 14.8 -2.5
v 1.7 14.8 -2.5
v 1.7 14.9 -2.5
v 1.7 14.9 -2.6
v 1.7 14.8 -2.6
v 1.6 14.8 -2.6
v 1.6 14.9 -2.6
v 1.7 14.9 -2.5
v 1.7 14.8 -2.5
v 1.8 14.8 -2.5
v 1.8 14.9 -2.5
v 1.8 14.9 -2.6
v 1.8 14.8 -2.6
v 1.7 14.8 -2.6
v 1.7 14.9 -2.6
v 1.8 14.9 -2.5
v 1.8 14.8 -2.5
v 1.9 14.8 -2.5
v 1.9 14.9 -2.5
v 1.9 14.9 -2.6
v 1.9 14.8 -2.6
v 1.8 14.8 -2.6
v 1.8 14.9 -2.6
v 1.9 14.8 -2.5
v 1.9 14.8 -2.6
v 2 14.8 -2.6
v 2 14.8 -2.5
v 1.9 14.9 -2.5
v 1.9 14.8 -2.5
v 2 14.8 -2.5
v 2 14.9 -2.5
v 2 14.9 -2.6
v 2 14.8 -2.6
v 1.9 14.8 -2.6
v 1.9 14.9 -2.6
v 2 14.8 -2.5
v 2 14.8 -2.6
v 2.1 14.8 -2.6
v 2.1 14.8 -2.5
v 2 14.9 -2.5
v 2 14.8 -2.5
v 2.1 14.8 -2.5
v 2.1 14.9 -2.5
v 2.1 14.9 -2.6
v 2.1 14.8 -2.6
v 2 14.8 -2.6
v 2 14.9 -2.6
v 2.1 14.8 -2.5
v 2.1 14.8 -2.6
v 2.2 14.8 -2.6
v 2.2 14.8 -2.5
v 2.1 14.9 -2.5
v 2.1 14.8 -2.5
v 2.2 14.8 -2.5
v 2.2 14.9 -2.5
v 2.2 14.9 -2.6
v 2.2 14.8 -2.6
v 2.1 14.8 -2.6
v 2.1 14.9 -2.6
v 2.2 14.8 -2.5
v 2.2 14.8 -2.6
v 2.3 14.8 -2.6
v 2.3 14.8 -2.5
v 2.2 14.9 -2.5
v 2.2 14.8 -2.5
v 2.3 14.8 -2.5
v 2.3 14.9 -2.5
v 2.3 14.9 -2.6
v 2.3 14.8 -2.6
v 2.2 14.8 -2.6
v 2.2 14.9 -2.6
v 2.4 14.9 -2.5
v 2.4 14.8 -2.5
v 2.4 14.8 -2.6
v 2.4 14.9 -2.6
v 2.3 14.8 -2.5
v 2.3 14.8 -2.6
v 2.4 14.8 -2.6
v 2.4 14.8 -2.5
v 2.3 14.9 -2.5
v 2.3 14.8 -2.5
v 2.4 14.8 -2.5
v 2.4 14.9 -2.5
v 2.4 14.9 -2.6
v 2.4 14.8 -2.6
v 2.3 14.8 -2.6
v 2.3 14.9 -2.6
v 0 14.8 -2.6
v 0 14.7 -2.6
v 0 14.7 -2.5
v 0 14.8 -2.5
v 0 14.8 -2.5
v 0 14.7 -2.5
v 0.1 14.7 -2.5
v 0.1 14.8 -2.5
v 0.1 14.8 -2.6
v 0.1 14.7 -2.6
v 0 14.7 -2.6
v 0 14.8 -2.6
v 0.1 14.8 -2.5
v 0.1 14.7 -2.5
v 0.2 14.7 -2.5
v 0.2 14.8 -2.5
v 0.2 14.8 -2.6
v 0.2 14.7 -2.6
v 0.1 14.7 -2.6
v 0.1 14.8 -2.6
v 0.2 14.8 -2.5
v 0.2 14.7 -2.5
v 0.3 14.7 -2.5
v 0.3 14.8 -2.5
v 0.3 14.8 -2.6
v 0.3 14.7 -2.6
v 0.2 14.7 -2.6
v 0.2 14.8 -2.6
v 0.3 14.8 -2.5
v 0.3 14.7 -2.5
v 0.4 14.7 -2.5
v 0.4 14.8 -2.5
v 0.4 14.8 -2.6
v 0.4 14.7 -2.6
v 0.3 14.7 -2.6
v 0.3 14.8 -2.6
v 0.4 14.8 -2.5
v 0.4 14.7 -2.5
v 0.5 14.7 -2.5
v 0.5 14.8 -2.5
v 0.5 14.8 -2.6
v 0.5 14.7 -2.6
v 0.4 14.7 -2.6
v 0.4 14.8 -2.6
v 0.5 14.8 -2.5
v 0.5 14.7 -2.5
v 0.6 14.7 -2.5
v 0.6 14.8 -2.5
v 0.6 14.8 -2.6
v 0.6 14.7 -2.6
v 0.5 14.7 -2.6
v 0.5 14.8 -2.6
v 0.6 14.8 -2.5
v 0.6 14.7 -2.5
v 0.7 14.7 -2.5
v 0.7 14.8 -2.5
v 0.7 14.8 -2.6
v 0.7 14.7 -2.6
v 0.6 14.7 -2.6
v 0.6 14.8 -2.6
v 0.7 14.8 -2.5
v 0.7 14.7 -2.5
v 0.8 14.7 -2.5
v 0.8 14.8 -2.5
v 0.8 14.8 -2.6
v 0.8 14.7 -2.6
v 0.7 14.7 -2.6
v 0.7 14.8 -2.6
v 0.8 14.8 -2.5
v 0.8 14.7 -2.5
v 0.9 14.7 -2.5
v 0.9 14.8 -2.5
v 0.9 14.8 -2.6
v 0.9 14.7 -2.6
v 0.8 14.7 -2.6
v 0.8 14.8 -2.6
v 0.9 14.8 -2.5
v 0.9 14.7 -2.5
v 1 14.7 -2.5
v 1 14.8 -2.5
v 1 14.8 -2.6
v 1 14.7 -2.6
v 0.9 14.7 -2.6
v 0.9 14.8 -2.6
v 1 14.8 -2.5
v 1 14.7 -2.5
v 1.1 14.7 -2.5
v 1.1 14.8 -2.5
v 1.1 14.8 -2.6
v 1.1 14.7 -2.6
v 1 14.7 -2.6
v 1 14.8 -2.6
v 1.1 14.8 -2.5
v 1.1 14.7 -2.5
v 1.2 14.7 -2.5
v 1.2 14.8 -2.5
v 1.2 14.8 -2.6
v 1.2 14.7 -2.6
v 1.1 14.7 -2.6
v 1.1 14.8 -2.6
v 1.2 14.8 -2.5
v 1.2 14.7 -2.5
v 1.3 14.7 -2.5
v 1.3 14.8 -2.5
v 1.3 14.8 -2.6
v 1.3 14.7 -2.6
v 1.2 14.7 -2.6
v 1.2 14.8 -2.6
v 1.3 14.8 -2.5
v 1.3 14.7 -2.5
v 1.4 14.7 -2.5
v 1.4 14.8 -2.5
v 1.4 14.8 -2.6
v 1.4 14.7 -2.6
v 1.3 14.7 -2.6
v 1.3 14.8 -2.6
v 1.4 14.8 -2.5
v 1.4 14.7 -2.5
v 1.5 14.7 -2.5
v 1.5 14.8 -2.5
v 1.5 14.8 -2.6
v 1.5 14.7 -2.6
v 1.4 14.7 -2.6
v 1.4 14.8 -2.6
v 1.5 14.8 -2.5
v 1.5 14.7 -2.5
v 1.6 14.7 -2.5
v 1.6 14.8 -2.5
v 1.6 14.8 -2.6
v 1.6 14.7 -2.6
v 1.5 14.7 -2.6
v 1.5 14.8 -2.6
v 1.6 14.7 -2.5
v 1.6 14.7 -2.6
v 1.7 14.7 -2.6
v 1.7 14.7 -2.5
v 1.6 14.8 -2.5
v 1.6 14.7 -2.5
v 1.7 14.7 -2.5
v 1.7 14.8 -2.5
v 1.7 14.8 -2.6
v 1.7 14.7 -2.6
v 1.6 14.7 -2.6
v 1.6 14.8 -2.6
v 1.7 14.7 -2.5
v 1.7 14.7 -2.6
v 1.8 14.7 -2.6
v 1.8 14.7 -2.5
v 1.7 14.8 -2.5
v 1.7 14.7 -2.5
v 1.8 14.7 -2.5
v 1.8 14.8 -2.5
v 1.8 14.8 -2.6
v 1.8 14.7 -2.6
v 1.7 14.7 -2.6
v 1.7 14.8 -2.6
v 1.9 14.8 -2.5
v 1.9 14.7 -2.5
v 1.9 14.7 -2.6
v 1.9 14.8 -2.6
v 1.8 14.7 -2.5
v 1.8 14.7 -2.6
v 1.9 14.7 -2.6
v 1.9 14.7 -2.5
v 1.8 14.8 -2.5
v 1.8 14.7 -2.5
v 1.9 14.7 -2.5
v 1.9 14.8 -2.5
v 1.9 14.8 -2.6
v 1.9 14.7 -2.6
v 1.8 14.7 -2.6
v 1.8 14.8 -2.6
v 0 14.7 -2.6
v 0 14.6 -2.6
v 0 14.6 -2.5
v 0 14.7 -2.5
v 0 14.7 -2.5
v 0 14.6 -2.5
v 0.1 14.6 -2.5
v 0.1 14.7 -2.5
v 0.1 14.7 -2.6
v 0.1 14.6 -2.6
v 0 14.6 -2.6
v 0 14.7 -2.6
v 0.1 14.7 -2.5
v 0.1 14.6 -2.5
v 0.2 14.6 -2.5
v 0.2 14.7 -2.5
v 0.2 14.7 -2.6
v 0.2 14.6 -2.6
v 0.1 14.6 -2.6
v 0.1 14.7 -2.6
v 0.2 14.7 -2.5
v 0.2 14.6 -2.5
v 0.3 14.6 -2.5
v 0.3 14.7 -2.5
v 0.3 14.7 -2.6
v 0.3 14.6 -2.6
v 0.2 14.6 -2.6
v 0.2 14.7 -2.6
v 0.3 14.7 -2.5
v 0.3 14.6 -2.5
v 0.4 14.6 -2.5
v 0.4 14.7 -2.5
v 0.4 14.7 -2.6
v 0.4 14.6 -2.6
v 0.3 14.6 -2.6
v 0.3 14.7 -2.6
v 0.4 14.7 -2.5
v 0.4 14.6 -2.5
v 0.5 14.6 -2.5
v 0.5 14.7 -2.5
v 0.5 14.7 -2.6
v 0.5 14.6 -2.6
v 0.4 14.6 -2.6
v 0.4 14.7 -2.6
v 0.5 14.7 -2.5
v 0.5 14.6 -2.5
v 0.6 14.6 -2.5
v 0.6 14.7 -2.5
v 0.6 14.7 -2.6
v 0.6 14.6 -2.6
v 0.5 14.6 -2.6
v 0.5 14.7 -2.6
v 0.6 14.7 -2.5
v 0.6 14.6 -2.5
v 0.7 14.6 -2.5
v 0.7 14.7 -2.5
v 0.7 14.7 -2.6
v 0.7 14.6 -2.6
v 0.6 14.6 -2.6
v 0.6 14.7 -2.6
v 0.7 14.7 -2.5
v 0.7 14.6 -2.5
v 0.8 14.6 -2.5
v 0.8 14.7 -2.5
v 0.8 14.7 -2.6
v 0.8 14.6 -2.6
v 0.7 14.6 -2.6
v 0.7 14.7 -2.6
v 0.8 14.7 -2.5
v 0.8 14.6 -2.5
v 0.9 14.6 -2.5
v 0.9 14.7 -2.5
v 0.9 14.7 -2.6
v 0.9 14.6 -2.6
v 0.8 14.6 -2.6
v 0.8 14.7 -2.6
v 0.9 14.7 -2.5
v 0.9 14.6 -2.5
v 1 14.6 -2.5
v 1 14.7 -2.5
v 1 14.7 -2.6
v 1 14.6 -2.6
v 0.9 14.6 -2.6
v 0.9 14.7 -2.6
v 1 14.7 -2.5
v 1 14.6 -2.5
v 1.1 14.6 -2.5
v 1.1 14.7 -2.5
v 1.1 14.7 -2.6
v 1.1 14.6 -2.6
v 1 14.6 -2.6
v 1 14.7 -2.6
v 1.1 14.7 -2.5
v 1.1 14.6 -2.5
v 1.2 14.6 -2.5
v 1.2 14.7 -2.5
v 1.2 14.7 -2.6
v 1.2 14.6 -2.6
v 1.1 14.6 -2.6
v 1.1 14.7 -2.6
v 1.2 14.7 -2.5
v 1.2 14.6 -2.5
v 1.3 14.6 -2.5
v 1.3 14.7 -2.5
v 1.3 14.7 -2.6
v 1.3 14.6 -2.6
v 1.2 14.6 -2.6
v 1.2 14.7 -2.6
v 1.3 14.6 -2.5
v 1.3 14.6 -2.6
v 1.4 14.6 -2.6
v 1.4 14.6 -2.5
v 1.3 14.7 -2.5
v 1.3 14.6 -2.5
v 1.4 14.6 -2.5
v 1.4 14.7 -2.5
v 1.4 14.7 -2.6
v 1.4 14.6 -2.6
v 1.3 14.6 -2.6
v 1.3 14.7 -2.6
v 1.4 14.6 -2.5
v 1.4 14.6 -2.6
v 1.5 14.6 -2.6
v 1.5 14.6 -2.5
v 1.4 14.7 -2.5
v 1.4 14.6 -2.5
v 1.5 14.6 -2.5
v 1.5 14.7 -2.5
v 1.5 14.7 -2.6
v 1.5 14.6 -2.6
v 1.4 14.6 -2.6
v 1.4 14.7 -2.6
v 1.6 14.7 -2.5
v 1.6 14.6 -2.5
v 1.6 14.6 -2.6
v 1.6 14.7 -2.6
v 1.5 14.6 -2.5
v 1.5 14.6 -2.6
v 1.6 14.6 -2.6
v 1.6 14.6 -2.5
v 1.5 14.7 -2.5
v 1.5 14.6 -2.5
v 1.6 14.6 -2.5
v 1.6 14.7 -2.5
v 1.6 14.7 -2.6
v 1.6 14.6 -2.6
v 1.5 14.6 -2.6
v 1.5 14.7 -2.6
v 0 14.6 -2.6
v 0 14.5 -2.6
v 0 14.5 -2.5
v 0 14.6 -2.5
v 0 14.5 -2.5
v 0 14.5 -2.6
v 0.1 14.5 -2.6
v 0.1 14.5 -2.5
v 0 14.6 -2.5
v 0 14.5 -2.5
v 0.1 14.5 -2.5
v 0.1 14.6 -2.5
v 0.1 14.6 -2.6
v 0.1 14.5 -2.6
v 0 14.5 -2.6
v 0 14.6 -2.6
v 0.1 14.5 -2.5
v 0.1 14.5 -2.6
v 0.2 14.5 -2.6
v 0.2 14.5 -2.5
v 0.1 14.6 -2.5
v 0.1 14.5 -2.5
v 0.2 14.5 -2.5
v 0.2 14.6 -2.5
v 0.2 14.6 -2.6
v 0.2 14.5 -2.6
v 0.1 14.5 -2.6
v 0.1 14.6 -2.6
v 0.2 14.5 -2.5
v 0.2 14.5 -2.6
v 0.3 14.5 -2.6
v 0.3 14.5 -2.5
v 0.2 14.6 -2.5
v 0.2 14.5 -2.5
v 0.3 14.5 -2.5
v 0.3 14.6 -2.5
v 0.3 14.6 -2.6
v 0.3 14.5 -2.6
v 0.2 14.5 -2.6
v 0.2 14.6 -2.6
v 0.3 14.5 -2.5
v 0.3 14.5 -2.6
v 0.4 14.5 -2.6
v 0.4 14.5 -2.5
v 0.3 14.6 -2.5
v 0.3 14.5 -2.5
v 0.4 14.5 -2.5
v 0.4 14.6 -2.5
v 0.4 14.6 -2.6
v 0.4 14.5 -2.6
v 0.3 14.5 -2.6
v 0.3 14.6 -2.6
v 0.4 14.5 -2.5
v 0.4 14.5 -2.6
v 0.5 14.5 -2.6
v 0.5 14.5 -2.5
v 0.4 14.6 -2.5
v 0.4 14.5 -2.5
v 0.5 14.5 -2.5
v 0.5 14.6 -2.5
v 0.5 14.6 -2.6
v 0.5 14.5 -2.6
v 0.4 14.5 -2.6
v 0.4 14.6 -2.6
v 0.5 14.5 -2.5
v 0.5 14.5 -2.6
v 0.6 14.5 -2.6
v 0.6 14.5 -2.5
v 0.5 14.6 -2.5
v 0.5 14.5 -2.5
v 0.6 14.5 -2.5
v 0.6 14.6 -2.5
v 0.6 14.6 -2.6
v 0.6 14.5 -2.6
v 0.5 14.5 -2.6
v 0.5 14.6 -2.6
v 0.6 14.5 -2.5
v 0.6 14.5 -2.6
v 0.7 14.5 -2.6
v 0.7 14.5 -2.5
v 0.6 14.6 -2.5
v 0.6 14.5 -2.5
v 0.7 14.5 -2.5
v 0.7 14.6 -2.5
v 0.7 14.6 -2.6
v 0.7 14.5 -2.6
v 0.6 14.5 -2.6
v 0.6 14.6 -2.6
v 0.7 14.5 -2.5
v 0.7 14.5 -2.6
v 0.8 14.5 -2.6
v 0.8 14.5 -2.5
v 0.7 14.6 -2.5
v 0.7 14.5 -2.5
v 0.8 14.5 -2.5
v 0.8 14.6 -2.5
v 0.8 14.6 -2.6
v 0.8 14.5 -2.6
v 0.7 14.5 -2.6
v 0.7 14.6 -2.6
v 0.8 14.5 -2.5
v 0.8 14.5 -2.6
v 0.9 14.5 -2.6
v 0.9 14.5 -2.5
v 0.8 14.6 -2.5
v 0.8 14.5 -2.5
v 0.9 14.5 -2.5
v 0.9 14.6 -2.5
v 0.9 14.6 -2.6
v 0.9 14.5 -2.6
v 0.8 14.5 -2.6
v 0.8 14.6 -2.6
v 0.9 14.5 -2.5
v 0.9 14.5 -2.6
v 1 14.5 -2.6
v 1 14.5 -2.5
v 0.9 14.6 -2.5
v 0.9 14.5 -2.5
v 1 14.5 -2.5
v 1 14.6 -2.5
v 1 14.6 -2.6
v 1 14.5 -2.6
v 0.9 14.5 -2.6
v 0.9 14.6 -2.6
v 1 14.5 -2.5
v 1 14.5 -2.6
v 1.1 14.5 -2.6
v 1.1 14.5 -2.5
v 1 14.6 -2.5
v 1 14.5 -2.5
v 1.1 14.5 -2.5
v 1.1 14.6 -2.5
v 1.1 14.6 -2.6
v 1.1 14.5 -2.6
v 1 14.5 -2.6
v 1 14.6 -2.6
v 1.1 14.5 -2.5
v 1.1 14.5 -2.6
v 1.2 14.5 -2.6
v 1.2 14.5 -2.5
v 1.1 14.6 -2.5
v 1.1 14.5 -2.5
v 1.2 14.5 -2.5
v 1.2 14.6 -2.5
v 1.2 14.6 -2.6
v 1.2 14.5 -2.6
v 1.1 14.5 -2.6
v 1.1 14.6 -2.6
v 1.3 14.6 -2.5
v 1.3 14.5 -2.5
v 1.3 14.5 -2.6
v 1.3 14.6 -2.6
v 1.2 14.5 -2.5
v 1.2 14.5 -2.6
v 1.3 14.5 -2.6
v 1.3 14.5 -2.5
v 1.2 14.6 -2.5
v 1.2 14.5 -2.5
v 1.3 14.5 -2.5
v 1.3 14.6 -2.5
v 1.3 14.6 -2.6
v 1.3 14.5 -2.6
v 1.2 14.5 -2.6
v 1.2 14.6 -2.6

# faces
f 1/1/1 2/1/1 3/1/1 4/1/1
f 5/1/3 6/1/3 7/1/3 8/1/3
f 9/1/5 10/1/5 11/1/5 12/1/5
f 13/1/6 14/1/6 15/1/6 16/1/6
f 17/1/3 18/1/3 19/1/3 20/1/3
f 21/1/5 22/1/5 23/1/5 24/1/5
f 25/1/6 26/1/6 27/1/6 28/1/6
f 29/1/3 30/1/3 31/1/3 32/1/3
f 33/1/5 34/1/5 35/1/5 36/1/5
f 37/1/6 38/1/6 39/1/6 40/1/6
f 41/1/3 42/1/3 43/1/3 44/1/3
f 45/1/5 46/1/5 47/1/5 48/1/5
f 49/1/6 50/1/6 51/1/6 52/1/6
f 53/1/3 54/1/3 55/1/3 56/1/3
f 57/1/5 58/1/5 59/1/5 60/1/5
f 61/1/6 62/1/6 63/1/6 64/1/6
f 65/1/3 66/1/3 67/1/3 68/1/3
f 69/1/5 70/1/5 71/1/5 72/1/5
f 73/1/6 74/1/6 75/1/6 76/1/6
f 77/1/3 78/1/3 79/1/3 80/1/3
f 81/1/5 82/1/5 83/1/5 84/1/5
f 85/1/6 86/1/6 87/1/6 88/1/6
f 89/1/3 90/1/3 91/1/3 92/1/3
f 93/1/5 94/1/5 95/1/5 96/1/5
f 97/1/6 98/1/6 99/1/6 100/1/6
f 101/1/3 102/1/3 103/1/3 104/1/3
f 105/1/5 106/1/5 107/1/5 108/1/5
f 109/1/6 110/1/6 111/1/6 112/1/6
f 113/1/3 114/1/3 115/1/3 116/1/3
f 117/1/5 118/1/5 119/1/5 120/1/5
f 121/1/6 122/1/6 123/1/6 124/1/6
f 125/1/3 126/1/3 127/1/3 128/1/3
f 129/1/5 130/1/5 131/1/5 132/1/5
f 133/1/6 134/1/6 135/1/6 136/1/6
f 137/1/3 138/1/3 139/1/3 140/1/3
f 141/1/5 142/1/5 143/1/5 144/1/5
f 145/1/6 146/1/6 147/1/6 148/1/6
f 149/1/2 150/1/2 151/1/2 152/1/2
f 153/1/3 154/1/3 155/1/3 156/1/3
f 157/1/5 158/1/5 159/1/5 160/1/5
f 161/1/6 162/1/6 163/1/6 164/1/6
f 165/2/1 166/2/1 167/2/1 168/2/1
f 169/2/5 170/2/5 171/2/5 172/2/5
f 173/2/6 174/2/6 175/2/6 176/2/6
f 177/2/5 178/2/5 179/2/5 180/2/5
f 181/2/6 182/2/6 183/2/6 184/2/6
f 185/2/5 186/2/5 187/2/5 188/2/5
f 189/2/6 190/2/6 191/2/6 192/2/6
f 193/2/5 194/2/5 195/2/5 196/2/5
f 197/2/6 198/2/6 199/2/6 200/2/6
f 201/2/5 202/2/5 203/2/5 204/2/5
f 205/2/6 206/2/6 207/2/6 208/2/6
f 209/2/5 210/2/5 211/2/5 212/2/5
f 213/2/6 214/2/6 215/2/6 216/2/6
f 217/2/5 218/2/5 219/2/5 220/2/5
f 221/2/6 222/2/6 223/2/6 224/2/6
f 225/2/5 226/2/5 227/2/5 228/2/5
f 229/2/6 230/2/6 231/2/6 232/2/6
f 233/2/5 234/2/5 235/2/5 236/2/5
f 237/2/6 238/2/6 239/2/6 240/2/6
f 241/2/5 242/2/5 243/2/5 244/2/5
f 245/2/6 246/2/6 247/2/6 248/2/6
f 249/2/5 250/2/5 251/2/5 252/2/5
f 253/2/6 254/2/6 255/2/6 256/2/6
f 257/2/5 258/2/5 259/2/5 260/2/5
f 261/2/6 262/2/6 263/2/6 264/2/6
f 265/2/5 266/2/5 267/2/5 268/2/5
f 269/2/6 270/2/6 271/2/6 272/2/6
f 273/2/3 274/2/3 275/2/3 276/2/3
f 277/2/5 278/2/5 279/2/5 280/2/5
f 281/2/6 282/2/6 283/2/6 284/2/6
f 285/1/3 286/1/3 287/1/3 288/1/3
f 289/1/5 290/1/5 291/1/5 292/1/5
f 293/1/6 294/1/6 295/1/6 296/1/6
f 297/1/2 298/1/2 299/1/2 300/1/2
f 301/1/3 302/1/3 303/1/3 304/1/3
f 305/1/5 306/1/5 307/1/5 308/1/5
f 309/1/6 310/1/6 311/1/6 312/1/6
f 313/2/1 314/2/1 315/2/1 316/2/1
f 317/2/5 318/2/5 319/2/5 320/2/5
f 321/2/6 322/2/6 323/2/6 324/2/6
f 325/2/5 326/2/5 327/2/5 328/2/5
f 329/2/6 330/2/6 331/2/6 332/2/6
f 333/2/5 334/2/5 335/2/5 336/2/5
f 337/2/6 338/2/6 339/2/6 340/2/6
f 341/2/5 342/2/5 343/2/5 344/2/5
f 345/2/6 346/2/6 347/2/6 348/2/6
f 349/2/5 350/2/5 351/2/5 352/2/5
f 353/2/6 354/2/6 355/2/6 356/2/6
f 357/2/5 358/2/5 359/2/5 360/2/5
f 361/2/6 362/2/6 363/2/6 364/2/6
f 365/2/5 366/2/5 367/2/5 368/2/5
f 369/2/6 370/2/6 371/2/6 372/2/6
f 373/2/5 374/2/5 375/2/5 376/2/5
f 377/2/6 378/2/6 379/2/6 380/2/6
f 381/2/5 382/2/5 383/2/5 384/2/5
f 385/2/6 386/2/6 387/2/6 388/2/6
f 389/2/5 390/2/5 391/2/5 392/2/5
f 393/2/6 394/2/6 395/2/6 396/2/6
f 397/2/5 398/2/5 399/2/5 400/2/5
f 401/2/6 402/2/6 403/2/6 404/2/6
f 405/2/5 406/2/5 407/2/5 408/2/5
f 409/2/6 410/2/6 411/2/6 412/2/6
f 413/2/5 414/2/5 415/2/5 416/2/5
f 417/2/6 418/2/6 419/2/6 420/2/6
f 421/2/5 422/2/5 423/2/5 424/2/5
f 425/2/6 426/2/6 427/2/6 428/2/6
f 429/2/5 430/2/5 431/2/5 432/2/5
f 433/2/6 434/2/6 435/2/6 436/2/6
f 437/2/5 438/2/5 439/2/5 440/2/5
f 441/2/6 442/2/6 443/2/6 444/2/6
f 445/2/3 446/2/3 447/2/3 448/2/3
f 449/2/5 450/2/5 451/2/5 452/2/5
f 453/2/6 454/2/6 455/2/6 456/2/6
f 457/1/3 458/1/3 459/1/3 460/1/3
f 461/1/5 462/1/5 463/1/5 464/1/5
f 465/1/6 466/1/6 467/1/6 468/1/6
f 469/1/2 470/1/2 471/1/2 472/1/2
f 473/1/3 474/1/3 475/1/3 476/1/3
f 477/1/5 478/1/5 479/1/5 480/1/5
f 481/1/6 482/1/6 483/1/6 484/1/6
f 485/2/1 486/2/1 487/2/1 488/2/1
f 489/2/5 490/2/5 491/2/5 492/2/5
f 493/2/6 494/2/6 495/2/6 496/2/6
f 497/2/5 498/2/5 499/2/5 500/2/5
f 501/2/6 502/2/6 503/2/6 504/2/6
f 505/2/5 506/2/5 507/2/5 508/2/5
f 509/2/6 510/2/6 511/2/6 512/2/6
f 513/2/5 514/2/5 515/2/5 516/2/5
f 517/2/6 518/2/6 519/2/6 520/2/6
f 521/2/5 522/2/5 523/2/5 524/2/5
f 525/2/6 526/2/6 527/2/6 528/2/6
f 529/2/5 530/2/5 531/2/5 532/2/5
f 533/2/6 534/2/6 535/2/6 536/2/6
f 537/2/5 538/2/5 539/2/5 540/2/5
f 541/2/6 542/2/6 543/2/6 544/2/6
f 545/2/5 546/2/5 547/2/5 548/2/5
f 549/2/6 550/2/6 551/2/6 552/2/6
f 553/2/5 554/2/5 555/2/5 556/2/5
f 557/2/6 558/2/6 559/2/6 560/2/6
f 561/2/5 562/2/5 563/2/5 564/2/5
f 565/2/6 566/2/6 567/2/6 568/2/6
f 569/2/5 570/2/5 571/2/5 572/2/5
f 573/2/6 574/2/6 575/2/6 576/2/6
f 577/2/5 578/2/5 579/2/5 580/2/5
f 581/2/6 582/2/6 583/2/6 584/2/6
f 585/2/5 586/2/5 587/2/5 588/2/5
f 589/2/6 590/2/6 591/2/6 592/2/6
f 593/2/5 594/2/5 595/2/5 596/2/5
f 597/2/6 598/2/6 599/2/6 600/2/6
f 601/2/5 602/2/5 603/2/5 604/2/5
f 605/2/6 606/2/6 607/2/6 608/2/6
f 609/2/5 610/2/5 611/2/5 612/2/5
f 613/2/6 614/2/6 615/2/6 616/2/6
f 617/2/5 618/2/5 619/2/5 620/2/5
f 621/2/6 622/2/6 623/2/6 624/2/6
f 625/2/5 626/2/5 627/2/5 628/2/5
f 629/2/6 630/2/6 631/2/6 632/2/6
f 633/2/5 634/2/5 635/2/5 636/2/5
f 637/2/6 638/2/6 639/2/6 640/2/6
f 641/2/3 642/2/3 643/2/3 644/2/3
f 645/2/5 646/2/5 647/2/5 648/2/5
f 649/2/6 650/2/6 651/2/6 652/2/6
f 653/1/3 654/1/3 655/1/3 656/1/3
f 657/1/5 658/1/5 659/1/5 660/1/5
f 661/1/6 662/1/6 663/1/6 664/1/6
f 665/1/3 666/1/3 667/1/3 668/1/3
f 669/1/5 670/1/5 671/1/5 672/1/5
f 673/1/6 674/1/6 675/1/6 676/1/6
f 677/1/3 678/1/3 679/1/3 680/1/3
f 681/1/5 682/1/5 683/1/5 684/1/5
f 685/1/6 686/1/6 687/1/6 688/1/6
f 689/1/3 690/1/3 691/1/3 692/1/3
f 693/1/5 694/1/5 695/1/5 696/1/5
f 697/1/6 698/1/6 699/1/6 700/1/6
f 701/1/2 702/1/2 703/1/2 704/1/2
f 705/1/3 706/1/3 707/1/3 708/1/3
f 709/1/5 710/1/5 711/1/5 712/1/5
f 713/1/6 714/1/6 715/1/6 716/1/6
f 717/2/1 718/2/1 719/2/1 720/2/1
f 721/2/5 722/2/5 723/2/5 724/2/5
f 725/2/6 726/2/6 727/2/6 728/2/6
f 729/2/5 730/2/5 731/2/5 732/2/5
f 733/2/6 734/2/6 735/2/6 736/2/6
f 737/2/5 738/2/5 739/2/5 740/2/5
f 741/2/6 742/2/6 743/2/6 744/2/6
f 745/2/5 746/2/5 747/2/5 748/2/5
f 749/2/6 750/2/6 751/2/6 752/2/6
f 753/2/5 754/2/5 755/2/5 756/2/5
f 757/2/6 758/2/6 759/2/6 760/2/6
f 761/2/5 762/2/5 763/2/5 764/2/5
f 765/2/6 766/2/6 767/2/6 768/2/6
f 769/2/5 770/2/5 771/2/5 772/2/5
f 773/2/6 774/2/6 775/2/6 776/2/6
f 777/2/5 778/2/5 779/2/5 780/2/5
f 781/2/6 782/2/6 783/2/6 784/2/6
f 785/2/5 786/2/5 787/2/5 788/2/5
f 789/2/6 790/2/6 791/2/6 792/2/6
f 793/2/5 794/2/5 795/2/5 796/2/5
f 797/2/6 798/2/6 799/2/6 800/2/6
f 801/2/5 802/2/5 803/2/5 804/2/5
f 805/2/6 806/2/6 807/2/6 808/2/6
f 809/2/5 810/2/5 811/2/5 812/2/5
f 813/2/6 814/2/6 815/2/6 816/2/6
f 817/2/5 818/2/5 819/2/5 820/2/5
f 821/2/6 822/2/6 823/2/6 824/2/6
f 825/2/5 826/2/5 827/2/5 828/2/5
f 829/2/6 830/2/6 831/2/6 832/2/6
f 833/2/5 834/2/5 835/2/5 836/2/5
f 837/2/6 838/2/6 839/2/6 840/2/6
f 841/2/5 842/2/5 843/2/5 844/2/5
f 845/2/6 846/2/6 847/2/6 848/2/6
f 849/2/5 850/2/5 851/2/5 852/2/5
f 853/2/6 854/2/6 855/2/6 856/2/6
f 857/2/5 858/2/5 859/2/5 860/2/5
f 861/2/6 862/2/6 863/2/6 864/2/6
f 865/2/5 866/2/5 867/2/5 868/2/5
f 869/2/6 870/2/6 871/2/6 872/2/6
f 873/2/5 874/2/5 875/2/5 876/2/5
f 877/2/6 878/2/6 879/2/6 880/2/6
f 881/2/5 882/2/5 883/2/5 884/2/5
f 885/2/6 886/2/6 887/2/6 888/2/6
f 889/2/5 890/2/5 891/2/5 892/2/5
f 893/2/6 894/2/6 895/2/6 896/2/6
f 897/2/5 898/2/5 899/2/5 900/2/5
f 901/2/6 902/2/6 903/2/6 904/2/6
f 905/2/5 906/2/5 907/2/5 908/2/5
f 909/2/6 910/2/6 911/2/6 912/2/6
f 913/2/5 914/2/5 915/2/5 916/2/5
f 917/2/6 918/2/6 919/2/6 920/2/6
f 921/2/3 922/2/3 923/2/3 924/2/3
f 925/2/5 926/2/5 927/2/5 928/2/5
f 929/2/6 930/2/6 931/2/6 932/2/6
f 933/1/3 934/1/3 935/1/3 936/1/3
f 937/1/5 938/1/5 939/1/5 940/1/5
f 941/1/6 942/1/6 943/1/6 944/1/6
f 945/1/3 946/1/3 947/1/3 948/1/3
f 949/1/5 950/1/5 951/1/5 952/1/5
f 953/1/6 954/1/6 955/1/6 956/1/6
f 957/1/3 958/1/3 959/1/3 960/1/3
f 961/1/5 962/1/5 963/1/5 964/1/5
f 965/1/6 966/1/6 967/1/6 968/1/6
f 969/1/3 970/1/3 971/1/3 972/1/3
f 973/1/5 974/1/5 975/1/5 976/1/5
f 977/1/6 978/1/6 979/1/6 980/1/6
f 981/1/2 982/1/2 983/1/2 984/1/2
f 985/1/3 986/1/3 987/1/3 988/1/3
f 989/1/5 990/1/5 991/1/5 992/1/5
f 993/1/6 994/1/6 995/1/6 996/1/6
f 997/2/1 998/2/1 999/2/1 1000/2/1
f 1001/2/5 1002/2/5 1003/2/5 1004/2/5
f 1005/2/6 1006/2/6 1007/2/6 1008/2/6
f 1009/2/5 1010/2/5 1011/2/5 1012/2/5
f 1013/2/6 1014/2/6 1015/2/6 1016/2/6
f 1017/2/5 1018/2/5 1019/2/5 1020/2/5
f 1021/2/6 1022/2/6 1023/2/6 1024/2/6
f 1025/2/5 1026/2/5 1027/2/5 1028/2/5
f 1029/2/6 1030/2/6 1031/2/6 1032/2/6
f 1033/2/5 1034/2/5 1035/2/5 1036/2/5
f 1037/2/6 1038/2/6 1039/2/6 1040/2/6
f 1041/2/5 1042/2/5 1043/2/5 1044/2/5
f 1045/2/6 1046/2/6 1047/2/6 1048/2/6
f 1049/2/5 1050/2/5 1051/2/5 1052/2/5
f 1053/2/6 1054/2/6 1055/2/6 1056/2/6
f 1057/2/5 1058/2/5 1059/2/5 1060/2/5
f 1061/2/6 1062/2/6 1063/2/6 1064/2/6
f 1065/2/5 1066/2/5 1067/2/5 1068/2/5
f 1069/2/6 1070/2/6 1071/2/6 1072/2/6
f 1073/2/5 1074/2/5 1075/2/5 1076/2/5
f 1077/2/6 1078/2/6 1079/2/6 1080/2/6
f 1081/2/5 1082/2/5 1083/2/5 1084/2/5
f 1085/2/6 1086/2/6 1087/2/6 1088/2/6
f 1089/2/5 1090/2/5 1091/2/5 1092/2/5
f 1093/2/6 1094/2/6 1095/2/6 1096/2/6
f 1097/2/5 1098/2/5 1099/2/5 1100/2/5
f 1101/2/6 1102/2/6 1103/2/6 1104/2/6
f 1105/2/5 1106/2/5 1107/2/5 1108/2/5
f 1109/2/6 1110/2/6 1111/2/6 1112/2/6
f 1113/2/5 1114/2/5 1115/2/5 1116/2/5
f 1117/2/6 1118/2/6 1119/2/6 1120/2/6
f 1121/2/5 1122/2/5 1123/2/5 1124/2/5
f 1125/2/6 1126/2/6 1127/2/6 1128/2/6
f 1129/2/5 1130/2/5 1131/2/5 1132/2/5
f 1133/2/6 1134/2/6 1135/2/6 1136/2/6
f 1137/2/5 1138/2/5 1139/2/5 1140/2/5
f 1141/2/6 1142/2/6 1143/2/6 1144/2/6
f 1145/2/5 1146/2/5 1147/2/5 1148/2/5
f 1149/2/6 1150/2/6 1151/2/6 1152/2/6
f 1153/2/5 1154/2/5 1155/2/5 1156/2/5
f 1157/2/6 1158/2/6 1159/2/6 1160/2/6
f 1161/2/5 1162/2/5 1163/2/5 1164/2/5
f 1165/2/6 1166/2/6 1167/2/6 1168/2/6
f 1169/2/5 1170/2/5 1171/2/5 1172/2/5
f 1173/2/6 1174/2/6 1175/2/6 1176/2/6
f 1177/2/5 1178/2/5 1179/2/5 1180/2/5
f 1181/2/6 1182/2/6 1183/2/6 1184/2/6
f 1185/2/5 1186/2/5 1187/2/5 1188/2/5
f 1189/2/6 1190/2/6 1191/2/6 1192/2/6
f 1193/2/5 1194/2/5 1195/2/5 1196/2/5
f 1197/2/6 1198/2/6 1199/2/6 1200/2/6
f 1201/2/5 1202/2/5 1203/2/5 1204/2/5
f 1205/2/6 1206/2/6 1207/2/6 1208/2/6
f 1209/2/5 1210/2/5 1211/2/5 1212/2/5
f 1213/2/6 1214/2/6 1215/2/6 1216/2/6
f 1217/2/5 1218/2/5 1219/2/5 1220/2/5
f 1221/2/6 1222/2/6 1223/2/6 1224/2/6
f 1225/2/5 1226/2/5 1227/2/5 1228/2/5
f 1229/2/6 1230/2/6 1231/2/6 1232/2/6
f 1233/2/5 1234/2/5 1235/2/5 1236/2/5
f 1237/2/6 1238/2/6 1239/2/6 1240/2/6
f 1241/2/5 1242/2/5 1243/2/5 1244/2/5
f 1245/2/6 1246/2/6 1247/2/6 1248/2/6
f 1249/2/3 1250/2/3 1251/2/3 1252/2/3
f 1253/2/5 1254/2/5 1255/2/5 1256/2/5
f 1257/2/6 1258/2/6 1259/2/6 1260/2/6
f 1261/1/2 1262/1/2 1263/1/2 1264/1/2
f 1265/1/3 1266/1/3 1267/1/3 1268/1/3
f 1269/1/4 1270/1/4 1271/1/4 1272/1/4
f 1273/1/5 1274/1/5 1275/1/5 1276/1/5
f 1277/1/6 1278/1/6 1279/1/6 1280/1/6
f 1281/2/1 1282/2/1 1283/2/1 1284/2/1
f 1285/2/5 1286/2/5 1287/2/5 1288/2/5
f 1289/2/6 1290/2/6 1291/2/6 1292/2/6
f 1293/2/5 1294/2/5 1295/2/5 1296/2/5
f 1297/2/6 1298/2/6 1299/2/6 1300/2/6
f 1301/2/5 1302/2/5 1303/2/5 1304/2/5
f 1305/2/6 1306/2/6 1307/2/6 1308/2/6
f 1309/2/5 1310/2/5 1311/2/5 1312/2/5
f 1313/2/6 1314/2/6 1315/2/6 1316/2/6
f 1317/2/5 1318/2/5 1319/2/5 1320/2/5
f 1321/2/6 1322/2/6 1323/2/6 1324/2/6
f 1325/2/5 1326/2/5 1327/2/5 1328/2/5
f 1329/2/6 1330/2/6 1331/2/6 1332/2/6
f 1333/2/5 1334/2/5 1335/2/5 1336/2/5
f 1337/2/6 1338/2/6 1339/2/6 1340/2/6
f 1341/2/5 1342/2/5 1343/2/5 1344/2/5
f 1345/2/6 1346/2/6 1347/2/6 1348/2/6
f 1349/2/5 1350/2/5 1351/2/5 1352/2/5
f 1353/2/6 1354/2/6 1355/2/6 1356/2/6
f 1357/2/5 1358/2/5 1359/2/5 1360/2/5
f 1361/2/6 1362/2/6 1363/2/6 1364/2/6
f 1365/2/5 1366/2/5 1367/2/5 1368/2/5
f 1369/2/6 1370/2/6 1371/2/6 1372/2/6
f 1373/2/5 1374/2/5 1375/2/5 1376/2/5
f 1377/2/6 1378/2/6 1379/2/6 1380/2/6
f 1381/2/5 1382/2/5 1383/2/5 1384/2/5
f 1385/2/6 1386/2/6 1387/2/6 1388/2/6
f 1389/2/5 1390/2/5 1391/2/5 1392/2/5
f 1393/2/6 1394/2/6 1395/2/6 1396/2/6
f 1397/2/5 1398/2/5 1399/2/5 1400/2/5
f 1401/2/6 1402/2/6 1403/2/6 1404/2/6
f 1405/2/5 1406/2/5 1407/2/5 1408/2/5
f 1409/2/6 1410/2/6 1411/2/6 1412/2/6
f 1413/2/5 1414/2/5 1415/2/5 1416/2/5
f 1417/2/6 1418/2/6 1419/2/6 1420/2/6
f 1421/2/5 1422/2/5 1423/2/5 1424/2/5
f 1425/2/6 1426/2/6 1427/2/6 1428/2/6
f 1429/2/5 1430/2/5 1431/2/5 1432/2/5
f 1433/2/6 1434/2/6 1435/2/6 1436/2/6
f 1437/2/5 1438/2/5 1439/2/5 1440/2/5
f 1441/2/6 1442/2/6 1443/2/6 1444/2/6
f 1445/2/5 1446/2/5 1447/2/5 1448/2/5
f 1449/2/6 1450/2/6 1451/2/6 1452/2/6
f 1453/2/5 1454/2/5 1455/2/5 1456/2/5
f 1457/2/6 1458/2/6 1459/2/6 1460/2/6
f 1461/2/5 1462/2/5 1463/2/5 1464/2/5
f 1465/2/6 1466/2/6 1467/2/6 1468/2/6
f 1469/2/5 1470/2/5 1471/2/5 1472/2/5
f 1473/2/6 1474/2/6 1475/2/6 1476/2/6
f 1477/2/5 1478/2/5 1479/2/5 1480/2/5
f 1481/2/6 1482/2/6 1483/2/6 1484/2/6
f 1485/2/5 1486/2/5 1487/2/5 1488/2/5
f 1489/2/6 1490/2/6 1491/2/6 1492/2/6
f 1493/2/5 1494/2/5 1495/2/5 1496/2/5
f 1497/2/6 1498/2/6 1499/2/6 1500/2/6
f 1501/2/5 1502/2/5 1503/2/5 1504/2/5
f 1505/2/6 1506/2/6 1507/2/6 1508/2/6
f 1509/2/5 1510/2/5 1511/2/5 1512/2/5
f 1513/2/6 1514/2/6 1515/2/6 1516/2/6
f 1517/2/5 1518/2/5 1519/2/5 1520/2/5
f 1521/2/6 1522/2/6 1523/2/6 1524/2/6
f 1525/2/4 1526/2/4 1527/2/4 1528/2/4
f 1529/2/5 1530/2/5 1531/2/5 1532/2/5
f 1533/2/6 1534/2/6 1535/2/6 1536/2/6
f 1537/1/2 1538/1/2 1539/1/2 1540/1/2
f 1541/1/4 1542/1/4 1543/1/4 1544/1/4
f 1545/1/5 1546/1/5 1547/1/5 1548/1/5
f 1549/1/6 1550/1/6 1551/1/6 1552/1/6
f 1553/2/1 1554/2/1 1555/2/1 1556/2/1
f 1557/2/5 1558/2/5 1559/2/5 1560/2/5
f 1561/2/6 1562/2/6 1563/2/6 1564/2/6
f 1565/2/5 1566/2/5 1567/2/5 1568/2/5
f 1569/2/6 1570/2/6 1571/2/6 1572/2/6
f 1573/2/5 1574/2/5 1575/2/5 1576/2/5
f 1577/2/6 1578/2/6 1579/2/6 1580/2/6
f 1581/2/5 1582/2/5 1583/2/5 1584/2/5
f 1585/2/6 1586/2/6 1587/2/6 1588/2/6
f 1589/2/5 1590/2/5 1591/2/5 1592/2/5
f 1593/2/6 1594/2/6 1595/2/6 1596/2/6
f 1597/2/5 1598/2/5 1599/2/5 1600/2/5
f 1601/2/6 1602/2/6 1603/2/6 1604/2/6
f 1605/2/5 1606/2/5 1607/2/5 1608/2/5
f 1609/2/6 1610/2/6 1611/2/6 1612/2/6
f 1613/2/5 1614/2/5 1615/2/5 1616/2/5
f 1617/2/6 1618/2/6 1619/2/6 1620/2/6
f 1621/2/5 1622/2/5 1623/2/5 1624/2/5
f 1625/2/6 1626/2/6 1627/2/6 1628/2/6
f 1629/2/5 1630/2/5 1631/2/5 1632/2/5
f 1633/2/6 1634/2/6 1635/2/6 1636/2/6
f 1637/2/5 1638/2/5 1639/2/5 1640/2/5
f 1641/2/6 1642/2/6 1643/2/6 1644/2/6
f 1645/2/5 1646/2/5 1647/2/5 1648/2/5
f 1649/2/6 1650/2/6 1651/2/6 1652/2/6
f 1653/2/5 1654/2/5 1655/2/5 1656/2/5
f 1657/2/6 1658/2/6 1659/2/6 1660/2/6
f 1661/2/5 1662/2/5 1663/2/5 1664/2/5
f 1665/2/6 1666/2/6 1667/2/6 1668/2/6
f 1669/2/5 1670/2/5 1671/2/5 1672/2/5
f 1673/2/6 1674/2/6 1675/2/6 1676/2/6
f 1677/2/5 1678/2/5 1679/2/5 1680/2/5
f 1681/2/6 1682/2/6 1683/2/6 1684/2/6
f 1685/2/5 1686/2/5 1687/2/5 1688/2/5
f 1689/2/6 1690/2/6 1691/2/6 1692/2/6
f 1693/2/5 1694/2/5 1695/2/5 1696/2/5
f 1697/2/6 1698/2/6 1699/2/6 1700/2/6
f 1701/2/5 1702/2/5 1703/2/5 1704/2/5
f 1705/2/6 1706/2/6 1707/2/6 1708/2/6
f 1709/2/5 1710/2/5 1711/2/5 1712/2/5
f 1713/2/6 1714/2/6 1715/2/6 1716/2/6
f 1717/2/5 1718/2/5 1719/2/5 1720/2/5
f 1721/2/6 1722/2/6 1723/2/6 1724/2/6
f 1725/2/5 1726/2/5 1727/2/5 1728/2/5
f 1729/2/6 1730/2/6 1731/2/6 1732/2/6
f 1733/2/5 1734/2/5 1735/2/5 1736/2/5
f 1737/2/6 1738/2/6 1739/2/6 1740/2/6
f 1741/2/5 1742/2/5 1743/2/5 1744/2/5
f 1745/2/6 1746/2/6 1747/2/6 1748/2/6
f 1749/2/4 1750/2/4 1751/2/4 1752/2/4
f 1753/2/5 1754/2/5 1755/2/5 1756/2/5
f 1757/2/6 1758/2/6 1759/2/6 1760/2/6
f 1761/1/4 1762/1/4 1763/1/4 1764/1/4
f 1765/1/5 1766/1/5 1767/1/5 1768/1/5
f 1769/1/6 1770/1/6 1771/1/6 1772/1/6
f 1773/1/4 1774/1/4 1775/1/4 1776/1/4
f 1777/1/5 1778/1/5 1779/1/5 1780/1/5
f 1781/1/6 1782/1/6 1783/1/6 1784/1/6
f 1785/1/4 1786/1/4 1787/1/4 1788/1/4
f 1789/1/5 1790/1/5 1791/1/5 1792/1/5
f 1793/1/6 1794/1/6 1795/1/6 1796/1/6
f 1797/1/4 1798/1/4 1799/1/4 1800/1/4
f 1801/1/5 1802/1/5 1803/1/5 1804/1/5
f 1805/1/6 1806/1/6 1807/1/6 1808/1/6
f 1809/1/2 1810/1/2 1811/1/2 1812/1/2
f 1813/1/4 1814/1/4 1815/1/4 1816/1/4
f 1817/1/5 1818/1/5 1819/1/5 1820/1/5
f 1821/1/6 1822/1/6 1823/1/6 1824/1/6
f 1825/2/1 1826/2/1 1827/2/1 1828/2/1
f 1829/2/5 1830/2/5 1831/2/5 1832/2/5
f 1833/2/6 1834/2/6 1835/2/6 1836/2/6
f 1837/2/5 1838/2/5 1839/2/5 1840/2/5
f 1841/2/6 1842/2/6 1843/2/6 1844/2/6
f 1845/2/5 1846/2/5 1847/2/5 1848/2/5
f 1849/2/6 1850/2/6 1851/2/6 1852/2/6
f 1853/2/5 1854/2/5 1855/2/5 1856/2/5
f 1857/2/6 1858/2/6 1859/2/6 1860/2/6
f 1861/2/5 1862/2/5 1863/2/5 1864/2/5
f 1865/2/6 1866/2/6 1867/2/6 1868/2/6
f 1869/2/5 1870/2/5 1871/2/5 1872/2/5
f 1873/2/6 1874/2/6 1875/2/6 1876/2/6
f 1877/2/5 1878/2/5 1879/2/5 1880/2/5
f 1881/2/6 1882/2/6 1883/2/6 1884/2/6
f 1885/2/5 1886/2/5 1887/2/5 1888/2/5
f 1889/2/6 1890/2/6 1891/2/6 1892/2/6
f 1893/2/5 1894/2/5 1895/2/5 1896/2/5
f 1897/2/6 1898/2/6 1899/2/6 1900/2/6
f 1901/2/5 1902/2/5 1903/2/5 1904/2/5
f 1905/2/6 1906/2/6 1907/2/6 1908/2/6
f 1909/2/5 1910/2/5 1911/2/5 1912/2/5
f 1913/2/6 1914/2/6 1915/2/6 1916/2/6
f 1917/2/5 1918/2/5 1919/2/5 1920/2/5
f 1921/2/6 1922/2/6 1923/2/6 1924/2/6
f 1925/2/5 1926/2/5 1927/2/5 1928/2/5
f 1929/2/6 1930/2/6 1931/2/6 1932/2/6
f 1933/2/5 1934/2/5 1935/2/5 1936/2/5
f 1937/2/6 1938/2/6 1939/2/6 1940/2/6
f 1941/2/5 1942/2/5 1943/2/5 1944/2/5
f 1945/2/6 1946/2/6 1947/2/6 1948/2/6
f 1949/2/5 1950/2/5 1951/2/5 1952/2/5
f 1953/2/6 1954/2/6 1955/2/6 1956/2/6
f 1957/2/5 1958/2/5 1959/2/5 1960/2/5
f 1961/2/6 1962/2/6 1963/2/6 1964/2/6
f 1965/2/5 1966/2/5 1967/2/5 1968/2/5
f 1969/2/6 1970/2/6 1971/2/6 1972/2/6
f 1973/2/5 1974/2/5 1975/2/5 1976/2/5
f 1977/2/6 1978/2/6 1979/2/6 1980/2/6
f 1981/2/4 1982/2/4 1983/2/4 1984/2/4
f 1985/2/5 1986/2/5 1987/2/5 1988/2/5
f 1989/2/6 1990/2/6 1991/2/6 1992/2/6
f 1993/1/4 1994/1/4 1995/1/4 1996/1/4
f 1997/1/5 1998/1/5 1999/1/5 2000/1/5
f 2001/1/6 2002/1/6 2003/1/6 2004/1/6
f 2005/1/4 2006/1/4 2007/1/4 2008/1/4
f 2009/1/5 2010/1/5 2011/1/5 2012/1/5
f 2013/1/6 2014/1/6 2015/1/6 2016/1/6
f 2017/1/4 2018/1/4 2019/1/4 2020/1/4
f 2021/1/5 2022/1/5 2023/1/5 2024/1/5
f 2025/1/6 2026/1/6 2027/1/6 2028/1/6
f 2029/1/2 2030/1/2 2031/1/2 2032/1/2
f 2033/1/4 2034/1/4 2035/1/4 2036/1/4
f 2037/1/5 2038/1/5 2039/1/5 2040/1/5
f 2041/1/6 2042/1/6 2043/1/6 2044/1/6
f 2045/2/1 2046/2/1 2047/2/1 2048/2/1
f 2049/2/5 2050/2/5 2051/2/5 2052/2/5
f 2053/2/6 2054/2/6 2055/2/6 2056/2/6
f 2057/2/5 2058/2/5 2059/2/5 2060/2/5
f 2061/2/6 2062/2/6 2063/2/6 2064/2/6
f 2065/2/5 2066/2/5 2067/2/5 2068/2/5
f 2069/2/6 2070/2/6 2071/2/6 2072/2/6
f 2073/2/5 2074/2/5 2075/2/5 2076/2/5
f 2077/2/6 2078/2/6 2079/2/6 2080/2/6
f 2081/2/5 2082/2/5 2083/2/5 2084/2/5
f 2085/2/6 2086/2/6 2087/2/6 2088/2/6
f 2089/2/5 2090/2/5 2091/2/5 2092/2/5
f 2093/2/6 2094/2/6 2095/2/6 2096/2/6
f 2097/2/5 2098/2/5 2099/2/5 2100/2/5
f 2101/2/6 2102/2/6 2103/2/6 2104/2/6
f 2105/2/5 2106/2/5 2107/2/5 2108/2/5
f 2109/2/6 2110/2/6 2111/2/6 2112/2/6
f 2113/2/5 2114/2/5 2115/2/5 2116/2/5
f 2117/2/6 2118/2/6 2119/2/6 2120/2/6
f 2121/2/5 2122/2/5 2123/2/5 2124/2/5
f 2125/2/6 2126/2/6 2127/2/6 2128/2/6
f 2129/2/5 2130/2/5 2131/2/5 2132/2/5
f 2133/2/6 2134/2/6 2135/2/6 2136/2/6
f 2137/2/5 2138/2/5 2139/2/5 2140/2/5
f 2141/2/6 2142/2/6 2143/2/6 2144/2/6
f 2145/2/5 2146/2/5 2147/2/5 2148/2/5
f 2149/2/6 2150/2/6 2151/2/6 2152/2/6
f 2153/2/5 2154/2/5 2155/2/5 2156/2/5
f 2157/2/6 2158/2/6 2159/2/6 2160/2/6
f 2161/2/5 2162/2/5 2163/2/5 2164/2/5
f 2165/2/6 2166/2/6 2167/2/6 2168/2/6
f 2169/2/5 2170/2/5 2171/2/5 2172/2/5
f 2173/2/6 2174/2/6 2175/2/6 2176/2/6
f 2177/2/4 2178/2/4 2179/2/4 2180/2/4
f 2181/2/5 2182/2/5 2183/2/5 2184/2/5
f 2185/2/6 2186/2/6 2187/2/6 2188/2/6
f 2189/1/4 2190/1/4 2191/1/4 2192/1/4
f 2193/1/5 2194/1/5 2195/1/5 2196/1/5
f 2197/1/6 2198/1/6 2199/1/6 2200/1/6
f 2201/1/2 2202/1/2 2203/1/2 2204/1/2
f 2205/1/4 2206/1/4 2207/1/4 2208/1/4
f 2209/1/5 2210/1/5 2211/1/5 2212/1/5
f 2213/1/6 2214/1/6 2215/1/6 2216/1/6
f 2217/2/1 2218/2/1 2219/2/1 2220/2/1
f 2221/2/5 2222/2/5 2223/2/5 2224/2/5
f 2225/2/6 2226/2/6 2227/2/6 2228/2/6
f 2229/2/5 2230/2/5 2231/2/5 2232/2/5
f 2233/2/6 2234/2/6 2235/2/6 2236/2/6
f 2237/2/5 2238/2/5 2239/2/5 2240/2/5
f 2241/2/6 2242/2/6 2243/2/6 2244/2/6
f 2245/2/5 2246/2/5 2247/2/5 2248/2/5
f 2249/2/6 2250/2/6 2251/2/6 2252/2/6
f 2253/2/5 2254/2/5 2255/2/5 2256/2/5
f 2257/2/6 2258/2/6 2259/2/6 2260/2/6
f 2261/2/5 2262/2/5 2263/2/5 2264/2/5
f 2265/2/6 2266/2/6 2267/2/6 2268/2/6
f 2269/2/5 2270/2/5 2271/2/5 2272/2/5
f 2273/2/6 2274/2/6 2275/2/6 2276/2/6
f 2277/2/5 2278/2/5 2279/2/5 2280/2/5
f 2281/2/6 2282/2/6 2283/2/6 2284/2/6
f 2285/2/5 2286/2/5 2287/2/5 2288/2/5
f 2289/2/6 2290/2/6 2291/2/6 2292/2/6
f 2293/2/5 2294/2/5 2295/2/5 2296/2/5
f 2297/2/6 2298/2/6 2299/2/6 2300/2/6
f 2301/2/5 2302/2/5 2303/2/5 2304/2/5
f 2305/2/6 2306/2/6 2307/2/6 2308/2/6
f 2309/2/5 2310/2/5 2311/2/5 2312/2/5
f 2313/2/6 2314/2/6 2315/2/6 2316/2/6
f 2317/2/5 2318/2/5 2319/2/5 2320/2/5
f 2321/2/6 2322/2/6 2323/2/6 2324/2/6
f 2325/2/4 2326/2/4 2327/2/4 2328/2/4
f 2329/2/5 2330/2/5 2331/2/5 2332/2/5
f 2333/2/6 2334/2/6 2335/2/6 2336/2/6
f 2337/1/4 2338/1/4 2339/1/4 2340/1/4
f 2341/1/5 2342/1/5 2343/1/5 2344/1/5
f 2345/1/6 2346/1/6 2347/1/6 2348/1/6
f 2349/1/2 2350/1/2 2351/1/2 2352/1/2
f 2353/1/4 2354/1/4 2355/1/4 2356/1/4
f 2357/1/5 2358/1/5 2359/1/5 2360/1/5
f 2361/1/6 2362/1/6 2363/1/6 2364/1/6
f 2365/1/1 2366/1/1 2367/1/1 2368/1/1
f 2369/1/4 2370/1/4 2371/1/4 2372/1/4
f 2373/1/5 2374/1/5 2375/1/5 2376/1/5
f 2377/1/6 2378/1/6 2379/1/6 2380/1/6
f 2381/1/4 2382/1/4 2383/1/4 2384/1/4
f 2385/1/5 2386/1/5 2387/1/5 2388/1/5
f 2389/1/6 2390/1/6 2391/1/6 2392/1/6
f 2393/1/4 2394/1/4 2395/1/4 2396/1/4
f 2397/1/5 2398/1/5 2399/1/5 2400/1/5
f 2401/1/6 2402/1/6 2403/1/6 2404/1/6
f 2405/1/4 2406/1/4 2407/1/4 2408/1/4
f 2409/1/5 2410/1/5 2411/1/5 2412/1/5
f 2413/1/6 2414/1/6 2415/1/6 2416/1/6
f 2417/1/4 2418/1/4 2419/1/4 2420/1/4
f 2421/1/5 2422/1/5 2423/1/5 2424/1/5
f 2425/1/6 2426/1/6 2427/1/6 2428/1/6
f 2429/1/4 2430/1/4 2431/1/4 2432/1/4
f 2433/1/5 2434/1/5 2435/1/5 2436/1/5
f 2437/1/6 2438/1/6 2439/1/6 2440/1/6
f 2441/1/4 2442/1/4 2443/1/4 2444/1/4
f 2445/1/5 2446/1/5 2447/1/5 2448/1/5
f 2449/1/6 2450/1/6 2451/1/6 2452/1/6
f 2453/1/4 2454/1/4 2455/1/4 2456/1/4
f 2457/1/5 2458/1/5 2459/1/5 2460/1/5
f 2461/1/6 2462/1/6 2463/1/6 2464/1/6
f 2465/1/4 2466/1/4 2467/1/4 2468/1/4
f 2469/1/5 2470/1/5 2471/1/5 2472/1/5
f 2473/1/6 2474/1/6 2475/1/6 2476/1/6
f 2477/1/4 2478/1/4 2479/1/4 2480/1/4
f 2481/1/5 2482/1/5 2483/1/5 2484/1/5
f 2485/1/6 2486/1/6 2487/1/6 2488/1/6
f 2489/1/4 2490/1/4 2491/1/4 2492/1/4
f 2493/1/5 2494/1/5 2495/1/5 2496/1/5
f 2497/1/6 2498/1/6 2499/1/6 2500/1/6
f 2501/1/4 2502/1/4 2503/1/4 2504/1/4
f 2505/1/5 2506/1/5 2507/1/5 2508/1/5
f 2509/1/6 2510/1/6 2511/1/6 2512/1/6
f 2513/1/2 2514/1/2 2515/1/2 2516/1/2
f 2517/1/4 2518/1/4 2519/1/4 2520/1/4
f 2521/1/5 2522/1/5 2523/1/5 2524/1/5
f 2525/1/6 2526/1/6 2527/1/6 2528/1/6

