# generated by vox_to_obj_exporter
# scale=0.1 center=false ground=false y_up=true

mtllib Fight_009.mtl
usemtl palette

# normals
vn -1 0 0
vn 1 0 0
vn 0 1 0
vn 0 -1 0
vn 0 0 1
vn 0 0 -1

# texcoords
vt 0.216796875 0.5
vt 0.220703125 0.5

# verts
v 0 10.6 -2.6
v 0 10.5 -2.6
v 0 10.5 -2.5
v 0 10.6 -2.5
v 0 10.6 -2.6
v 0 10.6 -2.5
v 0.1 10.6 -2.5
v 0.1 10.6 -2.6
v 0 10.6 -2.5
v 0 10.5 -2.5
v 0.1 10.5 -2.5
v 0.1 10.6 -2.5
v 0.1 10.6 -2.6
v 0.1 10.5 -2.6
v 0 10.5 -2.6
v 0 10.6 -2.6
v 0.1 10.6 -2.6
v 0.1 10.6 -2.5
v 0.2 10.6 -2.5
v 0.2 10.6 -2.6
v 0.1 10.6 -2.5
v 0.1 10.5 -2.5
v 0.2 10.5 -2.5
v 0.2 10.6 -2.5
v 0.2 10.6 -2.6
v 0.2 10.5 -2.6
v 0.1 10.5 -2.6
v 0.1 10.6 -2.6
v 0.2 10.6 -2.6
v 0.2 10.6 -2.5
v 0.3 10.6 -2.5
v 0.3 10.6 -2.6
v 0.2 10.6 -2.5
v 0.2 10.5 -2.5
v 0.3 10.5 -2.5
v 0.3 10.6 -2.5
v 0.3 10.6 -2.6
v 0.3 10.5 -2.6
v 0.2 10.5 -2.6
v 0.2 10.6 -2.6
v 0.3 10.6 -2.6
v 0.3 10.6 -2.5
v 0.4 10.6 -2.5
v 0.4 10.6 -2.6
v 0.3 10.6 -2.5
v 0.3 10.5 -2.5
v 0.4 10.5 -2.5
v 0.4 10.6 -2.5
v 0.4 10.6 -2.6
v 0.4 10.5 -2.6
v 0.3 10.5 -2.6
v 0.3 10.6 -2.6
v 0.5 10.6 -2.5
v 0.5 10.5 -2.5
v 0.5 10.5 -2.6
v 0.5 10.6 -2.6
v 0.4 10.6 -2.6
v 0.4 10.6 -2.5
v 0.5 10.6 -2.5
v 0.5 10.6 -2.6
v 0.4 10.6 -2.5
v 0.4 10.5 -2.5
v 0.5 10.5 -2.5
v 0.5 10.6 -2.5
v 0.5 10.6 -2.6
v 0.5 10.5 -2.6
v 0.4 10.5 -2.6
v 0.4 10.6 -2.6
v 0 10.5 -2.6
v 0 10.4 -2.6
v 0 10.4 -2.5
v 0 10.5 -2.5
v 0 10.5 -2.5
v 0 10.4 -2.5
v 0.1 10.4 -2.5
v 0.1 10.5 -2.5
v 0.1 10.5 -2.6
v 0.1 10.4 -2.6
v 0 10.4 -2.6
v 0 10.5 -2.6
v 0.1 10.5 -2.5
v 0.1 10.4 -2.5
v 0.2 10.4 -2.5
v 0.2 10.5 -2.5
v 0.2 10.5 -2.6
v 0.2 10.4 -2.6
v 0.1 10.4 -2.6
v 0.1 10.5 -2.6
v 0.2 10.5 -2.5
v 0.2 10.4 -2.5
v 0.3 10.4 -2.5
v 0.3 10.5 -2.5
v 0.3 10.5 -2.6
v 0.3 10.4 -2.6
v 0.2 10.4 -2.6
v 0.2 10.5 -2.6
v 0.3 10.5 -2.5
v 0.3 10.4 -2.5
v 0.4 10.4 -2.5
v 0.4 10.5 -2.5
v 0.4 10.5 -2.6
v 0.4 10.4 -2.6
v 0.3 10.4 -2.6
v 0.3 10.5 -2.6
v 0.4 10.5 -2.5
v 0.4 10.4 -2.5
v 0.5 10.4 -2.5
v 0.5 10.5 -2.5
v 0.5 10.5 -2.6
v 0.5 10.4 -2.6
v 0.4 10.4 -2.6
v 0.4 10.5 -2.6
v 0.5 10.5 -2.6
v 0.5 10.5 -2.5
v 0.6 10.5 -2.5
v 0.6 10.5 -2.6
v 0.5 10.5 -2.5
v 0.5 10.4 -2.5
v 0.6 10.4 -2.5
v 0.6 10.5 -2.5
v 0.6 10.5 -2.6
v 0.6 10.4 -2.6
v 0.5 10.4 -2.6
v 0.5 10.5 -2.6
v 0.6 10.5 -2.6
v 0.6 10.5 -2.5
v 0.7 10.5 -2.5
v 0.7 10.5 -2.6
v 0.6 10.5 -2.5
v 0.6 10.4 -2.5
v 0.7 10.4 -2.5
v 0.7 10.5 -2.5
v 0.7 10.5 -2.6
v 0.7 10.4 -2.6
v 0.6 10.4 -2.6
v 0.6 10.5 -2.6
v 0.7 10.5 -2.6
v 0.7 10.5 -2.5
v 0.8 10.5 -2.5
v 0.8 10.5 -2.6
v 0.7 10.5 -2.5
v 0.7 10.4 -2.5
v 0.8 10.4 -2.5
v 0.8 10.5 -2.5
v 0.8 10.5 -2.6
v 0.8 10.4 -2.6
v 0.7 10.4 -2.6
v 0.7 10.5 -2.6
v 0.8 10.5 -2.6
v 0.8 10.5 -2.5
v 0.9 10.5 -2.5
v 0.9 10.5 -2.6
v 0.8 10.5 -2.5
v 0.8 10.4 -2.5
v 0.9 10.4 -2.5
v 0.9 10.5 -2.5
v 0.9 10.5 -2.6
v 0.9 10.4 -2.6
v 0.8 10.4 -2.6
v 0.8 10.5 -2.6
v 0.9 10.5 -2.6
v 0.9 10.5 -2.5
v 1 10.5 -2.5
v 1 10.5 -2.6
v 0.9 10.5 -2.5
v 0.9 10.4 -2.5
v 1 10.4 -2.5
v 1 10.5 -2.5
v 1 10.5 -2.6
v 1 10.4 -2.6
v 0.9 10.4 -2.6
v 0.9 10.5 -2.6
v 1.1 10.5 -2.5
v 1.1 10.4 -2.5
v 1.1 10.4 -2.6
v 1.1 10.5 -2.6
v 1 10.5 -2.6
v 1 10.5 -2.5
v 1.1 10.5 -2.5
v 1.1 10.5 -2.6
v 1 10.5 -2.5
v 1 10.4 -2.5
v 1.1 10.4 -2.5
v 1.1 10.5 -2.5
v 1.1 10.5 -2.6
v 1.1 10.4 -2.6
v 1 10.4 -2.6
v 1 10.5 -2.6
v 0 10.4 -2.6
v 0 10.3 -2.6
v 0 10.3 -2.5
v 0 10.4 -2.5
v 0 10.4 -2.5
v 0 10.3 -2.5
v 0.1 10.3 -2.5
v 0.1 10.4 -2.5
v 0.1 10.4 -2.6
v 0.1 10.3 -2.6
v 0 10.3 -2.6
v 0 10.4 -2.6
v 0.1 10.4 -2.5
v 0.1 10.3 -2.5
v 0.2 10.3 -2.5
v 0.2 10.4 -2.5
v 0.2 10.4 -2.6
v 0.2 10.3 -2.6
v 0.1 10.3 -2.6
v 0.1 10.4 -2.6
v 0.2 10.4 -2.5
v 0.2 10.3 -2.5
v 0.3 10.3 -2.5
v 0.3 10.4 -2.5
v 0.3 10.4 -2.6
v 0.3 10.3 -2.6
v 0.2 10.3 -2.6
v 0.2 10.4 -2.6
v 0.3 10.4 -2.5
v 0.3 10.3 -2.5
v 0.4 10.3 -2.5
v 0.4 10.4 -2.5
v 0.4 10.4 -2.6
v 0.4 10.3 -2.6
v 0.3 10.3 -2.6
v 0.3 10.4 -2.6
v 0.4 10.4 -2.5
v 0.4 10.3 -2.5
v 0.5 10.3 -2.5
v 0.5 10.4 -2.5
v 0.5 10.4 -2.6
v 0.5 10.3 -2.6
v 0.4 10.3 -2.6
v 0.4 10.4 -2.6
v 0.5 10.4 -2.5
v 0.5 10.3 -2.5
v 0.6 10.3 -2.5
v 0.6 10.4 -2.5
v 0.6 10.4 -2.6
v 0.6 10.3 -2.6
v 0.5 10.3 -2.6
v 0.5 10.4 -2.6
v 0.6 10.4 -2.5
v 0.6 10.3 -2.5
v 0.7 10.3 -2.5
v 0.7 10.4 -2.5
v 0.7 10.4 -2.6
v 0.7 10.3 -2.6
v 0.6 10.3 -2.6
v 0.6 10.4 -2.6
v 0.7 10.4 -2.5
v 0.7 10.3 -2.5
v 0.8 10.3 -2.5
v 0.8 10.4 -2.5
v 0.8 10.4 -2.6
v 0.8 10.3 -2.6
v 0.7 10.3 -2.6
v 0.7 10.4 -2.6
v 0.8 10.4 -2.5
v 0.8 10.3 -2.5
v 0.9 10.3 -2.5
v 0.9 10.4 -2.5
v 0.9 10.4 -2.6
v 0.9 10.3 -2.6
v 0.8 10.3 -2.6
v 0.8 10.4 -2.6
v 0.9 10.4 -2.5
v 0.9 10.3 -2.5
v 1 10.3 -2.5
v 1 10.4 -2.5
v 1 10.4 -2.6
v 1 10.3 -2.6
v 0.9 10.3 -2.6
v 0.9 10.4 -2.6
v 1 10.4 -2.5
v 1 10.3 -2.5
v 1.1 10.3 -2.5
v 1.1 10.4 -2.5
v 1.1 10.4 -2.6
v 1.1 10.3 -2.6
v 1 10.3 -2.6
v 1 10.4 -2.6
v 1.1 10.4 -2.6
v 1.1 10.4 -2.5
v 1.2 10.4 -2.5
v 1.2 10.4 -2.6
v 1.1 10.4 -2.5
v 1.1 10.3 -2.5
v 1.2 10.3 -2.5
v 1.2 10.4 -2.5
v 1.2 10.4 -2.6
v 1.2 10.3 -2.6
v 1.1 10.3 -2.6
v 1.1 10.4 -2.6
v 1.2 10.4 -2.6
v 1.2 10.4 -2.5
v 1.3 10.4 -2.5
v 1.3 10.4 -2.6
v 1.2 10.4 -2.5
v 1.2 10.3 -2.5
v 1.3 10.3 -2.5
v 1.3 10.4 -2.5
v 1.3 10.4 -2.6
v 1.3 10.3 -2.6
v 1.2 10.3 -2.6
v 1.2 10.4 -2.6
v 1.3 10.4 -2.6
v 1.3 10.4 -2.5
v 1.4 10.4 -2.5
v 1.4 10.4 -2.6
v 1.3 10.4 -2.5
v 1.3 10.3 -2.5
v 1.4 10.3 -2.5
v 1.4 10.4 -2.5
v 1.4 10.4 -2.6
v 1.4 10.3 -2.6
v 1.3 10.3 -2.6
v 1.3 10.4 -2.6
v 1.4 10.4 -2.6
v 1.4 10.4 -2.5
v 1.5 10.4 -2.5
v 1.5 10.4 -2.6
v 1.4 10.4 -2.5
v 1.4 10.3 -2.5
v 1.5 10.3 -2.5
v 1.5 10.4 -2.5
v 1.5 10.4 -2.6
v 1.5 10.3 -2.6
v 1.4 10.3 -2.6
v 1.4 10.4 -2.6
v 1.5 10.4 -2.6
v 1.5 10.4 -2.5
v 1.6 10.4 -2.5
v 1.6 10.4 -2.6
v 1.5 10.3 -2.5
v 1.5 10.3 -2.6
v 1.6 10.3 -2.6
v 1.6 10.3 -2.5
v 1.5 10.4 -2.5
v 1.5 10.3 -2.5
v 1.6 10.3 -2.5
v 1.6 10.4 -2.5
v 1.6 10.4 -2.6
v 1.6 10.3 -2.6
v 1.5 10.3 -2.6
v 1.5 10.4 -2.6
v 1.7 10.4 -2.5
v 1.7 10.3 -2.5
v 1.7 10.3 -2.6
v 1.7 10.4 -2.6
v 1.6 10.4 -2.6
v 1.6 10.4 -2.5
v 1.7 10.4 -2.5
v 1.7 10.4 -2.6
v 1.6 10.3 -2.5
v 1.6 10.3 -2.6
v 1.7 10.3 -2.6
v 1.7 10.3 -2.5
v 1.6 10.4 -2.5
v 1.6 10.3 -2.5
v 1.7 10.3 -2.5
v 1.7 10.4 -2.5
v 1.7 10.4 -2.6
v 1.7 10.3 -2.6
v 1.6 10.3 -2.6
v 1.6 10.4 -2.6
v 0 10.3 -2.6
v 0 10.2 -2.6
v 0 10.2 -2.5
v 0 10.3 -2.5
v 0 10.3 -2.5
v 0 10.2 -2.5
v 0.1 10.2 -2.5
v 0.1 10.3 -2.5
v 0.1 10.3 -2.6
v 0.1 10.2 -2.6
v 0 10.2 -2.6
v 0 10.3 -2.6
v 0.1 10.3 -2.5
v 0.1 10.2 -2.5
v 0.2 10.2 -2.5
v 0.2 10.3 -2.5
v 0.2 10.3 -2.6
v 0.2 10.2 -2.6
v 0.1 10.2 -2.6
v 0.1 10.3 -2.6
v 0.2 10.3 -2.5
v 0.2 10.2 -2.5
v 0.3 10.2 -2.5
v 0.3 10.3 -2.5
v 0.3 10.3 -2.6
v 0.3 10.2 -2.6
v 0.2 10.2 -2.6
v 0.2 10.3 -2.6
v 0.3 10.3 -2.5
v 0.3 10.2 -2.5
v 0.4 10.2 -2.5
v 0.4 10.3 -2.5
v 0.4 10.3 -2.6
v 0.4 10.2 -2.6
v 0.3 10.2 -2.6
v 0.3 10.3 -2.6
v 0.4 10.3 -2.5
v 0.4 10.2 -2.5
v 0.5 10.2 -2.5
v 0.5 10.3 -2.5
v 0.5 10.3 -2.6
v 0.5 10.2 -2.6
v 0.4 10.2 -2.6
v 0.4 10.3 -2.6
v 0.5 10.3 -2.5
v 0.5 10.2 -2.5
v 0.6 10.2 -2.5
v 0.6 10.3 -2.5
v 0.6 10.3 -2.6
v 0.6 10.2 -2.6
v 0.5 10.2 -2.6
v 0.5 10.3 -2.6
v 0.6 10.3 -2.5
v 0.6 10.2 -2.5
v 0.7 10.2 -2.5
v 0.7 10.3 -2.5
v 0.7 10.3 -2.6
v 0.7 10.2 -2.6
v 0.6 10.2 -2.6
v 0.6 10.3 -2.6
v 0.7 10.3 -2.5
v 0.7 10.2 -2.5
v 0.8 10.2 -2.5
v 0.8 10.3 -2.5
v 0.8 10.3 -2.6
v 0.8 10.2 -2.6
v 0.7 10.2 -2.6
v 0.7 10.3 -2.6
v 0.8 10.3 -2.5
v 0.8 10.2 -2.5
v 0.9 10.2 -2.5
v 0.9 10.3 -2.5
v 0.9 10.3 -2.6
v 0.9 10.2 -2.6
v 0.8 10.2 -2.6
v 0.8 10.3 -2.6
v 0.9 10.3 -2.5
v 0.9 10.2 -2.5
v 1 10.2 -2.5
v 1 10.3 -2.5
v 1 10.3 -2.6
v 1 10.2 -2.6
v 0.9 10.2 -2.6
v 0.9 10.3 -2.6
v 1 10.2 -2.5
v 1 10.2 -2.6
v 1.1 10.2 -2.6
v 1.1 10.2 -2.5
v 1 10.3 -2.5
v 1 10.2 -2.5
v 1.1 10.2 -2.5
v 1.1 10.3 -2.5
v 1.1 10.3 -2.6
v 1.1 10.2 -2.6
v 1 10.2 -2.6
v 1 10.3 -2.6
v 1.1 10.2 -2.5
v 1.1 10.2 -2.6
v 1.2 10.2 -2.6
v 1.2 10.2 -2.5
v 1.1 10.3 -2.5
v 1.1 10.2 -2.5
v 1.2 10.2 -2.5
v 1.2 10.3 -2.5
v 1.2 10.3 -2.6
v 1.2 10.2 -2.6
v 1.1 10.2 -2.6
v 1.1 10.3 -2.6
v 1.2 10.2 -2.5
v 1.2 10.2 -2.6
v 1.3 10.2 -2.6
v 1.3 10.2 -2.5
v 1.2 10.3 -2.5
v 1.2 10.2 -2.5
v 1.3 10.2 -2.5
v 1.3 10.3 -2.5
v 1.3 10.3 -2.6
v 1.3 10.2 -2.6
v 1.2 10.2 -2.6
v 1.2 10.3 -2.6
v 1.3 10.2 -2.5
v 1.3 10.2 -2.6
v 1.4 10.2 -2.6
v 1.4 10.2 -2.5
v 1.3 10.3 -2.5
v 1.3 10.2 -2.5
v 1.4 10.2 -2.5
v 1.4 10.3 -2.5
v 1.4 10.3 -2.6
v 1.4 10.2 -2.6
v 1.3 10.2 -2.6
v 1.3 10.3 -2.6
v 1.5 10.3 -2.5
v 1.5 10.2 -2.5
v 1.5 10.2 -2.6
v 1.5 10.3 -2.6
v 1.4 10.2 -2.5
v 1.4 10.2 -2.6
v 1.5 10.2 -2.6
v 1.5 10.2 -2.5
v 1.4 10.3 -2.5
v 1.4 10.2 -2.5
v 1.5 10.2 -2.5
v 1.5 10.3 -2.5
v 1.5 10.3 -2.6
v 1.5 10.2 -2.6
v 1.4 10.2 -2.6
v 1.4 10.3 -2.6
v 0 10.2 -2.6
v 0 10.1 -2.6
v 0 10.1 -2.5
v 0 10.2 -2.5
v 0 10.2 -2.5
v 0 10.1 -2.5
v 0.1 10.1 -2.5
v 0.1 10.2 -2.5
v 0.1 10.2 -2.6
v 0.1 10.1 -2.6
v 0 10.1 -2.6
v 0 10.2 -2.6
v 0.1 10.2 -2.5
v 0.1 10.1 -2.5
v 0.2 10.1 -2.5
v 0.2 10.2 -2.5
v 0.2 10.2 -2.6
v 0.2 10.1 -2.6
v 0.1 10.1 -2.6
v 0.1 10.2 -2.6
v 0.2 10.2 -2.5
v 0.2 10.1 -2.5
v 0.3 10.1 -2.5
v 0.3 10.2 -2.5
v 0.3 10.2 -2.6
v 0.3 10.1 -2.6
v 0.2 10.1 -2.6
v 0.2 10.2 -2.6
v 0.3 10.2 -2.5
v 0.3 10.1 -2.5
v 0.4 10.1 -2.5
v 0.4 10.2 -2.5
v 0.4 10.2 -2.6
v 0.4 10.1 -2.6
v 0.3 10.1 -2.6
v 0.3 10.2 -2.6
v 0.4 10.1 -2.5
v 0.4 10.1 -2.6
v 0.5 10.1 -2.6
v 0.5 10.1 -2.5
v 0.4 10.2 -2.5
v 0.4 10.1 -2.5
v 0.5 10.1 -2.5
v 0.5 10.2 -2.5
v 0.5 10.2 -2.6
v 0.5 10.1 -2.6
v 0.4 10.1 -2.6
v 0.4 10.2 -2.6
v 0.5 10.1 -2.5
v 0.5 10.1 -2.6
v 0.6 10.1 -2.6
v 0.6 10.1 -2.5
v 0.5 10.2 -2.5
v 0.5 10.1 -2.5
v 0.6 10.1 -2.5
v 0.6 10.2 -2.5
v 0.6 10.2 -2.6
v 0.6 10.1 -2.6
v 0.5 10.1 -2.6
v 0.5 10.2 -2.6
v 0.6 10.1 -2.5
v 0.6 10.1 -2.6
v 0.7 10.1 -2.6
v 0.7 10.1 -2.5
v 0.6 10.2 -2.5
v 0.6 10.1 -2.5
v 0.7 10.1 -2.5
v 0.7 10.2 -2.5
v 0.7 10.2 -2.6
v 0.7 10.1 -2.6
v 0.6 10.1 -2.6
v 0.6 10.2 -2.6
v 0.7 10.1 -2.5
v 0.7 10.1 -2.6
v 0.8 10.1 -2.6
v 0.8 10.1 -2.5
v 0.7 10.2 -2.5
v 0.7 10.1 -2.5
v 0.8 10.1 -2.5
v 0.8 10.2 -2.5
v 0.8 10.2 -2.6
v 0.8 10.1 -2.6
v 0.7 10.1 -2.6
v 0.7 10.2 -2.6
v 0.8 10.1 -2.5
v 0.8 10.1 -2.6
v 0.9 10.1 -2.6
v 0.9 10.1 -2.5
v 0.8 10.2 -2.5
v 0.8 10.1 -2.5
v 0.9 10.1 -2.5
v 0.9 10.2 -2.5
v 0.9 10.2 -2.6
v 0.9 10.1 -2.6
v 0.8 10.1 -2.6
v 0.8 10.2 -2.6
v 1 10.2 -2.5
v 1 10.1 -2.5
v 1 10.1 -2.6
v 1 10.2 -2.6
v 0.9 10.1 -2.5
v 0.9 10.1 -2.6
v 1 10.1 -2.6
v 1 10.1 -2.5
v 0.9 10.2 -2.5
v 0.9 10.1 -2.5
v 1 10.1 -2.5
v 1 10.2 -2.5
v 1 10.2 -2.6
v 1 10.1 -2.6
v 0.9 10.1 -2.6
v 0.9 10.2 -2.6
v 0 10.1 -2.6
v 0 10 -2.6
v 0 10 -2.5
v 0 10.1 -2.5
v 0 10 -2.5
v 0 10 -2.6
v 0.1 10 -2.6
v 0.1 10 -2.5
v 0 10.1 -2.5
v 0 10 -2.5
v 0.1 10 -2.5
v 0.1 10.1 -2.5
v 0.1 10.1 -2.6
v 0.1 10 -2.6
v 0 10 -2.6
v 0 10.1 -2.6
v 0.1 10 -2.5
v 0.1 10 -2.6
v 0.2 10 -2.6
v 0.2 10 -2.5
v 0.1 10.1 -2.5
v 0.1 10 -2.5
v 0.2 10 -2.5
v 0.2 10.1 -2.5
v 0.2 10.1 -2.6
v 0.2 10 -2.6
v 0.1 10 -2.6
v 0.1 10.1 -2.6
v 0.2 10 -2.5
v 0.2 10 -2.6
v 0.3 10 -2.6
v 0.3 10 -2.5
v 0.2 10.1 -2.5
v 0.2 10 -2.5
v 0.3 10 -2.5
v 0.3 10.1 -2.5
v 0.3 10.1 -2.6
v 0.3 10 -2.6
v 0.2 10 -2.6
v 0.2 10.1 -2.6
v 0.4 10.1 -2.5
v 0.4 10 -2.5
v 0.4 10 -2.6
v 0.4 10.1 -2.6
v 0.3 10 -2.5
v 0.3 10 -2.6
v 0.4 10 -2.6
v 0.4 10 -2.5
v 0.3 10.1 -2.5
v 0.3 10 -2.5
v 0.4 10 -2.5
v 0.4 10.1 -2.5
v 0.4 10.1 -2.6
v 0.4 10 -2.6
v 0.3 10 -2.6
v 0.3 10.1 -2.6

# faces
f 1/1/1 2/1/1 3/1/1 4/1/1
f 5/1/3 6/1/3 7/1/3 8/1/3
f 9/1/5 10/1/5 11/1/5 12/1/5
f 13/1/6 14/1/6 15/1/6 16/1/6
f 17/1/3 18/1/3 19/1/3 20/1/3
f 21/1/5 22/1/5 23/1/5 24/1/5
f 25/1/6 26/1/6 27/1/6 28/1/6
f 29/1/3 30/1/3 31/1/3 32/1/3
f 33/1/5 34/1/5 35/1/5 36/1/5
f 37/1/6 38/1/6 39/1/6 40/1/6
f 41/1/3 42/1/3 43/1/3 44/1/3
f 45/1/5 46/1/5 47/1/5 48/1/5
f 49/1/6 50/1/6 51/1/6 52/1/6
f 53/1/2 54/1/2 55/1/2 56/1/2
f 57/1/3 58/1/3 59/1/3 60/1/3
f 61/1/5 62/1/5 63/1/5 64/1/5
f 65/1/6 66/1/6 67/1/6 68/1/6
f 69/2/1 70/2/1 71/2/1 72/2/1
f 73/2/5 74/2/5 75/2/5 76/2/5
f 77/2/6 78/2/6 79/2/6 80/2/6
f 81/2/5 82/2/5 83/2/5 84/2/5
f 85/2/6 86/2/6 87/2/6 88/2/6
f 89/2/5 90/2/5 91/2/5 92/2/5
f 93/2/6 94/2/6 95/2/6 96/2/6
f 97/2/5 98/2/5 99/2/5 100/2/5
f 101/2/6 102/2/6 103/2/6 104/2/6
f 105/2/5 106/2/5 107/2/5 108/2/5
f 109/2/6 110/2/6 111/2/6 112/2/6
f 113/1/3 114/1/3 115/1/3 116/1/3
f 117/1/5 118/1/5 119/1/5 120/1/5
f 121/1/6 122/1/6 123/1/6 124/1/6
f 125/1/3 126/1/3 127/1/3 128/1/3
f 129/1/5 130/1/5 131/1/5 132/1/5
f 133/1/6 134/1/6 135/1/6 136/1/6
f 137/1/3 138/1/3 139/1/3 140/1/3
f 141/1/5 142/1/5 143/1/5 144/1/5
f 145/1/6 146/1/6 147/1/6 148/1/6
f 149/1/3 150/1/3 151/1/3 152/1/3
f 153/1/5 154/1/5 155/1/5 156/1/5
f 157/1/6 158/1/6 159/1/6 160/1/6
f 161/1/3 162/1/3 163/1/3 164/1/3
f 165/1/5 166/1/5 167/1/5 168/1/5
f 169/1/6 170/1/6 171/1/6 172/1/6
f 173/1/2 174/1/2 175/1/2 176/1/2
f 177/1/3 178/1/3 179/1/3 180/1/3
f 181/1/5 182/1/5 183/1/5 184/1/5
f 185/1/6 186/1/6 187/1/6 188/1/6
f 189/2/1 190/2/1 191/2/1 192/2/1
f 193/2/5 194/2/5 195/2/5 196/2/5
f 197/2/6 198/2/6 199/2/6 200/2/6
f 201/2/5 202/2/5 203/2/5 204/2/5
f 205/2/6 206/2/6 207/2/6 208/2/6
f 209/2/5 210/2/5 211/2/5 212/2/5
f 213/2/6 214/2/6 215/2/6 216/2/6
f 217/2/5 218/2/5 219/2/5 220/2/5
f 221/2/6 222/2/6 223/2/6 224/2/6
f 225/2/5 226/2/5 227/2/5 228/2/5
f 229/2/6 230/2/6 231/2/6 232/2/6
f 233/2/5 234/2/5 235/2/5 236/2/5
f 237/2/6 238/2/6 239/2/6 240/2/6
f 241/2/5 242/2/5 243/2/5 244/2/5
f 245/2/6 246/2/6 247/2/6 248/2/6
f 249/2/5 250/2/5 251/2/5 252/2/5
f 253/2/6 254/2/6 255/2/6 256/2/6
f 257/2/5 258/2/5 259/2/5 260/2/5
f 261/2/6 262/2/6 263/2/6 264/2/6
f 265/2/5 266/2/5 267/2/5 268/2/5
f 269/2/6 270/2/6 271/2/6 272/2/6
f 273/2/5 274/2/5 275/2/5 276/2/5
f 277/2/6 278/2/6 279/2/6 280/2/6
f 281/1/3 282/1/3 283/1/3 284/1/3
f 285/1/5 286/1/5 287/1/5 288/1/5
f 289/1/6 290/1/6 291/1/6 292/1/6
f 293/1/3 294/1/3 295/1/3 296/1/3
f 297/1/5 298/1/5 299/1/5 300/1/5
f 301/1/6 302/1/6 303/1/6 304/1/6
f 305/1/3 306/1/3 307/1/3 308/1/3
f 309/1/5 310/1/5 311/1/5 312/1/5
f 313/1/6 314/1/6 315/1/6 316/1/6
f 317/1/3 318/1/3 319/1/3 320/1/3
f 321/1/5 322/1/5 323/1/5 324/1/5
f 325/1/6 326/1/6 327/1/6 328/1/6
f 329/1/3 330/1/3 331/1/3 332/1/3
f 333/1/4 334/1/4 335/1/4 336/1/4
f 337/1/5 338/1/5 339/1/5 340/1/5
f 341/1/6 342/1/6 343/1/6 344/1/6
f 345/1/2 346/1/2 347/1/2 348/1/2
f 349/1/3 350/1/3 351/1/3 352/1/3
f 353/1/4 354/1/4 355/1/4 356/1/4
f 357/1/5 358/1/5 359/1/5 360/1/5
f 361/1/6 362/1/6 363/1/6 364/1/6
f 365/2/1 366/2/1 367/2/1 368/2/1
f 369/2/5 370/2/5 371/2/5 372/2/5
f 373/2/6 374/2/6 375/2/6 376/2/6
f 377/2/5 378/2/5 379/2/5 380/2/5
f 381/2/6 382/2/6 383/2/6 384/2/6
f 385/2/5 386/2/5 387/2/5 388/2/5
f 389/2/6 390/2/6 391/2/6 392/2/6
f 393/2/5 394/2/5 395/2/5 396/2/5
f 397/2/6 398/2/6 399/2/6 400/2/6
f 401/2/5 402/2/5 403/2/5 404/2/5
f 405/2/6 406/2/6 407/2/6 408/2/6
f 409/2/5 410/2/5 411/2/5 412/2/5
f 413/2/6 414/2/6 415/2/6 416/2/6
f 417/2/5 418/2/5 419/2/5 420/2/5
f 421/2/6 422/2/6 423/2/6 424/2/6
f 425/2/5 426/2/5 427/2/5 428/2/5
f 429/2/6 430/2/6 431/2/6 432/2/6
f 433/2/5 434/2/5 435/2/5 436/2/5
f 437/2/6 438/2/6 439/2/6 440/2/6
f 441/2/5 442/2/5 443/2/5 444/2/5
f 445/2/6 446/2/6 447/2/6 448/2/6
f 449/1/4 450/1/4 451/1/4 452/1/4
f 453/1/5 454/1/5 455/1/5 456/1/5
f 457/1/6 458/1/6 459/1/6 460/1/6
f 461/1/4 462/1/4 463/1/4 464/1/4
f 465/1/5 466/1/5 467/1/5 468/1/5
f 469/1/6 470/1/6 471/1/6 472/1/6
f 473/1/4 474/1/4 475/1/4 476/1/4
f 477/1/5 478/1/5 479/1/5 480/1/5
f 481/1/6 482/1/6 483/1/6 484/1/6
f 485/1/4 486/1/4 487/1/4 488/1/4
f 489/1/5 490/1/5 491/1/5 492/1/5
f 493/1/6 494/1/6 495/1/6 496/1/6
f 497/1/2 498/1/2 499/1/2 500/1/2
f 501/1/4 502/1/4 503/1/4 504/1/4
f 505/1/5 506/1/5 507/1/5 508/1/5
f 509/1/6 510/1/6 511/1/6 512/1/6
f 513/2/1 514/2/1 515/2/1 516/2/1
f 517/2/5 518/2/5 519/2/5 520/2/5
f 521/2/6 522/2/6 523/2/6 524/2/6
f 525/2/5 526/2/5 527/2/5 528/2/5
f 529/2/6 530/2/6 531/2/6 532/2/6
f 533/2/5 534/2/5 535/2/5 536/2/5
f 537/2/6 538/2/6 539/2/6 540/2/6
f 541/2/5 542/2/5 543/2/5 544/2/5
f 545/2/6 546/2/6 547/2/6 548/2/6
f 549/1/4 550/1/4 551/1/4 552/1/4
f 553/1/5 554/1/5 555/1/5 556/1/5
f 557/1/6 558/1/6 559/1/6 560/1/6
f 561/1/4 562/1/4 563/1/4 564/1/4
f 565/1/5 566/1/5 567/1/5 568/1/5
f 569/1/6 570/1/6 571/1/6 572/1/6
f 573/1/4 574/1/4 575/1/4 576/1/4
f 577/1/5 578/1/5 579/1/5 580/1/5
f 581/1/6 582/1/6 583/1/6 584/1/6
f 585/1/4 586/1/4 587/1/4 588/1/4
f 589/1/5 590/1/5 591/1/5 592/1/5
f 593/1/6 594/1/6 595/1/6 596/1/6
f 597/1/4 598/1/4 599/1/4 600/1/4
f 601/1/5 602/1/5 603/1/5 604/1/5
f 605/1/6 606/1/6 607/1/6 608/1/6
f 609/1/2 610/1/2 611/1/2 612/1/2
f 613/1/4 614/1/4 615/1/4 616/1/4
f 617/1/5 618/1/5 619/1/5 620/1/5
f 621/1/6 622/1/6 623/1/6 624/1/6
f 625/1/1 626/1/1 627/1/1 628/1/1
f 629/1/4 630/1/4 631/1/4 632/1/4
f 633/1/5 634/1/5 635/1/5 636/1/5
f 637/1/6 638/1/6 639/1/6 640/1/6
f 641/1/4 642/1/4 643/1/4 644/1/4
f 645/1/5 646/1/5 647/1/5 648/1/5
f 649/1/6 650/1/6 651/1/6 652/1/6
f 653/1/4 654/1/4 655/1/4 656/1/4
f 657/1/5 658/1/5 659/1/5 660/1/5
f 661/1/6 662/1/6 663/1/6 664/1/6
f 665/1/2 666/1/2 667/1/2 668/1/2
f 669/1/4 670/1/4 671/1/4 672/1/4
f 673/1/5 674/1/5 675/1/5 676/1/5
f 677/1/6 678/1/6 679/1/6 680/1/6

