# generated by vox_to_obj_exporter
# scale=0.1 center=false ground=false y_up=true

mtllib Fight_111.mtl
usemtl palette

# normals
vn -1 0 0
vn 1 0 0
vn 0 1 0
vn 0 -1 0
vn 0 0 1
vn 0 0 -1

# texcoords
vt 0.291015625 0.5

# verts
v 26.3 13 -2.6
v 26.3 12.9 -2.6
v 26.3 12.9 -2.5
v 26.3 13 -2.5
v 26.4 13 -2.5
v 26.4 12.9 -2.5
v 26.4 12.9 -2.6
v 26.4 13 -2.6
v 26.3 13 -2.6
v 26.3 13 -2.5
v 26.4 13 -2.5
v 26.4 13 -2.6
v 26.3 13 -2.5
v 26.3 12.9 -2.5
v 26.4 12.9 -2.5
v 26.4 13 -2.5
v 26.4 13 -2.6
v 26.4 12.9 -2.6
v 26.3 12.9 -2.6
v 26.3 13 -2.6
v 26.3 12.9 -2.6
v 26.3 12.8 -2.6
v 26.3 12.8 -2.5
v 26.3 12.9 -2.5
v 26.4 12.9 -2.5
v 26.4 12.8 -2.5
v 26.4 12.8 -2.6
v 26.4 12.9 -2.6
v 26.3 12.8 -2.5
v 26.3 12.8 -2.6
v 26.4 12.8 -2.6
v 26.4 12.8 -2.5
v 26.3 12.9 -2.5
v 26.3 12.8 -2.5
v 26.4 12.8 -2.5
v 26.4 12.9 -2.5
v 26.4 12.9 -2.6
v 26.4 12.8 -2.6
v 26.3 12.8 -2.6
v 26.3 12.9 -2.6
v 26.4 12.8 -2.6
v 26.4 12.7 -2.6
v 26.4 12.7 -2.5
v 26.4 12.8 -2.5
v 26.5 12.8 -2.5
v 26.5 12.7 -2.5
v 26.5 12.7 -2.6
v 26.5 12.8 -2.6
v 26.4 12.8 -2.6
v 26.4 12.8 -2.5
v 26.5 12.8 -2.5
v 26.5 12.8 -2.6
v 26.4 12.8 -2.5
v 26.4 12.7 -2.5
v 26.5 12.7 -2.5
v 26.5 12.8 -2.5
v 26.5 12.8 -2.6
v 26.5 12.7 -2.6
v 26.4 12.7 -2.6
v 26.4 12.8 -2.6
v 26.4 12.7 -2.6
v 26.4 12.6 -2.6
v 26.4 12.6 -2.5
v 26.4 12.7 -2.5
v 26.5 12.7 -2.5
v 26.5 12.6 -2.5
v 26.5 12.6 -2.6
v 26.5 12.7 -2.6
v 26.4 12.7 -2.5
v 26.4 12.6 -2.5
v 26.5 12.6 -2.5
v 26.5 12.7 -2.5
v 26.5 12.7 -2.6
v 26.5 12.6 -2.6
v 26.4 12.6 -2.6
v 26.4 12.7 -2.6
v 26.4 12.6 -2.6
v 26.4 12.5 -2.6
v 26.4 12.5 -2.5
v 26.4 12.6 -2.5
v 26.5 12.6 -2.5
v 26.5 12.5 -2.5
v 26.5 12.5 -2.6
v 26.5 12.6 -2.6
v 26.4 12.5 -2.5
v 26.4 12.5 -2.6
v 26.5 12.5 -2.6
v 26.5 12.5 -2.5
v 26.4 12.6 -2.5
v 26.4 12.5 -2.5
v 26.5 12.5 -2.5
v 26.5 12.6 -2.5
v 26.5 12.6 -2.6
v 26.5 12.5 -2.6
v 26.4 12.5 -2.6
v 26.4 12.6 -2.6
v 26.5 12.5 -2.6
v 26.5 12.4 -2.6
v 26.5 12.4 -2.5
v 26.5 12.5 -2.5
v 26.6 12.5 -2.5
v 26.6 12.4 -2.5
v 26.6 12.4 -2.6
v 26.6 12.5 -2.6
v 26.5 12.5 -2.6
v 26.5 12.5 -2.5
v 26.6 12.5 -2.5
v 26.6 12.5 -2.6
v 26.5 12.5 -2.5
v 26.5 12.4 -2.5
v 26.6 12.4 -2.5
v 26.6 12.5 -2.5
v 26.6 12.5 -2.6
v 26.6 12.4 -2.6
v 26.5 12.4 -2.6
v 26.5 12.5 -2.6
v 26.5 12.4 -2.6
v 26.5 12.3 -2.6
v 26.5 12.3 -2.5
v 26.5 12.4 -2.5
v 26.6 12.4 -2.5
v 26.6 12.3 -2.5
v 26.6 12.3 -2.6
v 26.6 12.4 -2.6
v 26.5 12.4 -2.5
v 26.5 12.3 -2.5
v 26.6 12.3 -2.5
v 26.6 12.4 -2.5
v 26.6 12.4 -2.6
v 26.6 12.3 -2.6
v 26.5 12.3 -2.6
v 26.5 12.4 -2.6
v 26.5 12.3 -2.6
v 26.5 12.2 -2.6
v 26.5 12.2 -2.5
v 26.5 12.3 -2.5
v 26.5 12.2 -2.5
v 26.5 12.2 -2.6
v 26.6 12.2 -2.6
v 26.6 12.2 -2.5
v 26.5 12.3 -2.5
v 26.5 12.2 -2.5
v 26.6 12.2 -2.5
v 26.6 12.3 -2.5
v 26.6 12.3 -2.6
v 26.6 12.2 -2.6
v 26.5 12.2 -2.6
v 26.5 12.3 -2.6
v 26.7 12.3 -2.5
v 26.7 12.2 -2.5
v 26.7 12.2 -2.6
v 26.7 12.3 -2.6
v 26.6 12.3 -2.6
v 26.6 12.3 -2.5
v 26.7 12.3 -2.5
v 26.7 12.3 -2.6
v 26.6 12.3 -2.5
v 26.6 12.2 -2.5
v 26.7 12.2 -2.5
v 26.7 12.3 -2.5
v 26.7 12.3 -2.6
v 26.7 12.2 -2.6
v 26.6 12.2 -2.6
v 26.6 12.3 -2.6
v 26.6 12.2 -2.6
v 26.6 12.1 -2.6
v 26.6 12.1 -2.5
v 26.6 12.2 -2.5
v 26.7 12.2 -2.5
v 26.7 12.1 -2.5
v 26.7 12.1 -2.6
v 26.7 12.2 -2.6
v 26.6 12.2 -2.5
v 26.6 12.1 -2.5
v 26.7 12.1 -2.5
v 26.7 12.2 -2.5
v 26.7 12.2 -2.6
v 26.7 12.1 -2.6
v 26.6 12.1 -2.6
v 26.6 12.2 -2.6
v 26.6 12.1 -2.6
v 26.6 12 -2.6
v 26.6 12 -2.5
v 26.6 12.1 -2.5
v 26.7 12.1 -2.5
v 26.7 12 -2.5
v 26.7 12 -2.6
v 26.7 12.1 -2.6
v 26.6 12 -2.5
v 26.6 12 -2.6
v 26.7 12 -2.6
v 26.7 12 -2.5
v 26.6 12.1 -2.5
v 26.6 12 -2.5
v 26.7 12 -2.5
v 26.7 12.1 -2.5
v 26.7 12.1 -2.6
v 26.7 12 -2.6
v 26.6 12 -2.6
v 26.6 12.1 -2.6
v 26.7 12 -2.6
v 26.7 11.9 -2.6
v 26.7 11.9 -2.5
v 26.7 12 -2.5
v 26.8 12 -2.5
v 26.8 11.9 -2.5
v 26.8 11.9 -2.6
v 26.8 12 -2.6
v 26.7 12 -2.6
v 26.7 12 -2.5
v 26.8 12 -2.5
v 26.8 12 -2.6
v 26.7 12 -2.5
v 26.7 11.9 -2.5
v 26.8 11.9 -2.5
v 26.8 12 -2.5
v 26.8 12 -2.6
v 26.8 11.9 -2.6
v 26.7 11.9 -2.6
v 26.7 12 -2.6
v 26.7 11.9 -2.6
v 26.7 11.8 -2.6
v 26.7 11.8 -2.5
v 26.7 11.9 -2.5
v 26.8 11.9 -2.5
v 26.8 11.8 -2.5
v 26.8 11.8 -2.6
v 26.8 11.9 -2.6
v 26.7 11.9 -2.5
v 26.7 11.8 -2.5
v 26.8 11.8 -2.5
v 26.8 11.9 -2.5
v 26.8 11.9 -2.6
v 26.8 11.8 -2.6
v 26.7 11.8 -2.6
v 26.7 11.9 -2.6
v 26.7 11.8 -2.6
v 26.7 11.7 -2.6
v 26.7 11.7 -2.5
v 26.7 11.8 -2.5
v 26.7 11.7 -2.5
v 26.7 11.7 -2.6
v 26.8 11.7 -2.6
v 26.8 11.7 -2.5
v 26.7 11.8 -2.5
v 26.7 11.7 -2.5
v 26.8 11.7 -2.5
v 26.8 11.8 -2.5
v 26.8 11.8 -2.6
v 26.8 11.7 -2.6
v 26.7 11.7 -2.6
v 26.7 11.8 -2.6
v 26.9 11.8 -2.5
v 26.9 11.7 -2.5
v 26.9 11.7 -2.6
v 26.9 11.8 -2.6
v 26.8 11.8 -2.6
v 26.8 11.8 -2.5
v 26.9 11.8 -2.5
v 26.9 11.8 -2.6
v 26.8 11.8 -2.5
v 26.8 11.7 -2.5
v 26.9 11.7 -2.5
v 26.9 11.8 -2.5
v 26.9 11.8 -2.6
v 26.9 11.7 -2.6
v 26.8 11.7 -2.6
v 26.8 11.8 -2.6
v 26.8 11.7 -2.6
v 26.8 11.6 -2.6
v 26.8 11.6 -2.5
v 26.8 11.7 -2.5
v 26.9 11.7 -2.5
v 26.9 11.6 -2.5
v 26.9 11.6 -2.6
v 26.9 11.7 -2.6
v 26.8 11.7 -2.5
v 26.8 11.6 -2.5
v 26.9 11.6 -2.5
v 26.9 11.7 -2.5
v 26.9 11.7 -2.6
v 26.9 11.6 -2.6
v 26.8 11.6 -2.6
v 26.8 11.7 -2.6
v 26.8 11.6 -2.6
v 26.8 11.5 -2.6
v 26.8 11.5 -2.5
v 26.8 11.6 -2.5
v 26.8 11.6 -2.5
v 26.8 11.5 -2.5
v 26.9 11.5 -2.5
v 26.9 11.6 -2.5
v 26.9 11.6 -2.6
v 26.9 11.5 -2.6
v 26.8 11.5 -2.6
v 26.8 11.6 -2.6
v 27 11.6 -2.5
v 27 11.5 -2.5
v 27 11.5 -2.6
v 27 11.6 -2.6
v 26.9 11.6 -2.6
v 26.9 11.6 -2.5
v 27 11.6 -2.5
v 27 11.6 -2.6
v 26.9 11.6 -2.5
v 26.9 11.5 -2.5
v 27 11.5 -2.5
v 27 11.6 -2.5
v 27 11.6 -2.6
v 27 11.5 -2.6
v 26.9 11.5 -2.6
v 26.9 11.6 -2.6
v 26.8 11.5 -2.6
v 26.8 11.4 -2.6
v 26.8 11.4 -2.5
v 26.8 11.5 -2.5
v 26.8 11.4 -2.5
v 26.8 11.4 -2.6
v 26.9 11.4 -2.6
v 26.9 11.4 -2.5
v 26.8 11.5 -2.5
v 26.8 11.4 -2.5
v 26.9 11.4 -2.5
v 26.9 11.5 -2.5
v 26.9 11.5 -2.6
v 26.9 11.4 -2.6
v 26.8 11.4 -2.6
v 26.8 11.5 -2.6
v 27 11.5 -2.5
v 27 11.4 -2.5
v 27 11.4 -2.6
v 27 11.5 -2.6
v 26.9 11.5 -2.5
v 26.9 11.4 -2.5
v 27 11.4 -2.5
v 27 11.5 -2.5
v 27 11.5 -2.6
v 27 11.4 -2.6
v 26.9 11.4 -2.6
v 26.9 11.5 -2.6
v 26.9 11.4 -2.6
v 26.9 11.3 -2.6
v 26.9 11.3 -2.5
v 26.9 11.4 -2.5
v 27 11.4 -2.5
v 27 11.3 -2.5
v 27 11.3 -2.6
v 27 11.4 -2.6
v 26.9 11.4 -2.5
v 26.9 11.3 -2.5
v 27 11.3 -2.5
v 27 11.4 -2.5
v 27 11.4 -2.6
v 27 11.3 -2.6
v 26.9 11.3 -2.6
v 26.9 11.4 -2.6
v 26.9 11.3 -2.6
v 26.9 11.2 -2.6
v 26.9 11.2 -2.5
v 26.9 11.3 -2.5
v 26.9 11.3 -2.5
v 26.9 11.2 -2.5
v 27 11.2 -2.5
v 27 11.3 -2.5
v 27 11.3 -2.6
v 27 11.2 -2.6
v 26.9 11.2 -2.6
v 26.9 11.3 -2.6
v 27.1 11.3 -2.5
v 27.1 11.2 -2.5
v 27.1 11.2 -2.6
v 27.1 11.3 -2.6
v 27 11.3 -2.6
v 27 11.3 -2.5
v 27.1 11.3 -2.5
v 27.1 11.3 -2.6
v 27 11.3 -2.5
v 27 11.2 -2.5
v 27.1 11.2 -2.5
v 27.1 11.3 -2.5
v 27.1 11.3 -2.6
v 27.1 11.2 -2.6
v 27 11.2 -2.6
v 27 11.3 -2.6
v 26.9 11.2 -2.6
v 26.9 11.1 -2.6
v 26.9 11.1 -2.5
v 26.9 11.2 -2.5
v 26.9 11.1 -2.5
v 26.9 11.1 -2.6
v 27 11.1 -2.6
v 27 11.1 -2.5
v 26.9 11.2 -2.5
v 26.9 11.1 -2.5
v 27 11.1 -2.5
v 27 11.2 -2.5
v 27 11.2 -2.6
v 27 11.1 -2.6
v 26.9 11.1 -2.6
v 26.9 11.2 -2.6
v 27.1 11.2 -2.5
v 27.1 11.1 -2.5
v 27.1 11.1 -2.6
v 27.1 11.2 -2.6
v 27 11.2 -2.5
v 27 11.1 -2.5
v 27.1 11.1 -2.5
v 27.1 11.2 -2.5
v 27.1 11.2 -2.6
v 27.1 11.1 -2.6
v 27 11.1 -2.6
v 27 11.2 -2.6
v 27 11.1 -2.6
v 27 11 -2.6
v 27 11 -2.5
v 27 11.1 -2.5
v 27 11.1 -2.5
v 27 11 -2.5
v 27.1 11 -2.5
v 27.1 11.1 -2.5
v 27.1 11.1 -2.6
v 27.1 11 -2.6
v 27 11 -2.6
v 27 11.1 -2.6
v 27.2 11.1 -2.5
v 27.2 11 -2.5
v 27.2 11 -2.6
v 27.2 11.1 -2.6
v 27.1 11.1 -2.6
v 27.1 11.1 -2.5
v 27.2 11.1 -2.5
v 27.2 11.1 -2.6
v 27.1 11.1 -2.5
v 27.1 11 -2.5
v 27.2 11 -2.5
v 27.2 11.1 -2.5
v 27.2 11.1 -2.6
v 27.2 11 -2.6
v 27.1 11 -2.6
v 27.1 11.1 -2.6
v 27 11 -2.6
v 27 10.9 -2.6
v 27 10.9 -2.5
v 27 11 -2.5
v 27 11 -2.5
v 27 10.9 -2.5
v 27.1 10.9 -2.5
v 27.1 11 -2.5
v 27.1 11 -2.6
v 27.1 10.9 -2.6
v 27 10.9 -2.6
v 27 11 -2.6
v 27.2 11 -2.5
v 27.2 10.9 -2.5
v 27.2 10.9 -2.6
v 27.2 11 -2.6
v 27.1 10.9 -2.5
v 27.1 10.9 -2.6
v 27.2 10.9 -2.6
v 27.2 10.9 -2.5
v 27.1 11 -2.5
v 27.1 10.9 -2.5
v 27.2 10.9 -2.5
v 27.2 11 -2.5
v 27.2 11 -2.6
v 27.2 10.9 -2.6
v 27.1 10.9 -2.6
v 27.1 11 -2.6
v 27 10.9 -2.6
v 27 10.8 -2.6
v 27 10.8 -2.5
v 27 10.9 -2.5
v 27.1 10.9 -2.5
v 27.1 10.8 -2.5
v 27.1 10.8 -2.6
v 27.1 10.9 -2.6
v 27 10.9 -2.5
v 27 10.8 -2.5
v 27.1 10.8 -2.5
v 27.1 10.9 -2.5
v 27.1 10.9 -2.6
v 27.1 10.8 -2.6
v 27 10.8 -2.6
v 27 10.9 -2.6
v 27 10.8 -2.6
v 27 10.7 -2.6
v 27 10.7 -2.5
v 27 10.8 -2.5
v 27.1 10.8 -2.5
v 27.1 10.7 -2.5
v 27.1 10.7 -2.6
v 27.1 10.8 -2.6
v 27 10.7 -2.5
v 27 10.7 -2.6
v 27.1 10.7 -2.6
v 27.1 10.7 -2.5
v 27 10.8 -2.5
v 27 10.7 -2.5
v 27.1 10.7 -2.5
v 27.1 10.8 -2.5
v 27.1 10.8 -2.6
v 27.1 10.7 -2.6
v 27 10.7 -2.6
v 27 10.8 -2.6

# faces
f 1/1/1 2/1/1 3/1/1 4/1/1
f 5/1/2 6/1/2 7/1/2 8/1/2
f 9/1/3 10/1/3 11/1/3 12/1/3
f 13/1/5 14/1/5 15/1/5 16/1/5
f 17/1/6 18/1/6 19/1/6 20/1/6
f 21/1/1 22/1/1 23/1/1 24/1/1
f 25/1/2 26/1/2 27/1/2 28/1/2
f 29/1/4 30/1/4 31/1/4 32/1/4
f 33/1/5 34/1/5 35/1/5 36/1/5
f 37/1/6 38/1/6 39/1/6 40/1/6
f 41/1/1 42/1/1 43/1/1 44/1/1
f 45/1/2 46/1/2 47/1/2 48/1/2
f 49/1/3 50/1/3 51/1/3 52/1/3
f 53/1/5 54/1/5 55/1/5 56/1/5
f 57/1/6 58/1/6 59/1/6 60/1/6
f 61/1/1 62/1/1 63/1/1 64/1/1
f 65/1/2 66/1/2 67/1/2 68/1/2
f 69/1/5 70/1/5 71/1/5 72/1/5
f 73/1/6 74/1/6 75/1/6 76/1/6
f 77/1/1 78/1/1 79/1/1 80/1/1
f 81/1/2 82/1/2 83/1/2 84/1/2
f 85/1/4 86/1/4 87/1/4 88/1/4
f 89/1/5 90/1/5 91/1/5 92/1/5
f 93/1/6 94/1/6 95/1/6 96/1/6
f 97/1/1 98/1/1 99/1/1 100/1/1
f 101/1/2 102/1/2 103/1/2 104/1/2
f 105/1/3 106/1/3 107/1/3 108/1/3
f 109/1/5 110/1/5 111/1/5 112/1/5
f 113/1/6 114/1/6 115/1/6 116/1/6
f 117/1/1 118/1/1 119/1/1 120/1/1
f 121/1/2 122/1/2 123/1/2 124/1/2
f 125/1/5 126/1/5 127/1/5 128/1/5
f 129/1/6 130/1/6 131/1/6 132/1/6
f 133/1/1 134/1/1 135/1/1 136/1/1
f 137/1/4 138/1/4 139/1/4 140/1/4
f 141/1/5 142/1/5 143/1/5 144/1/5
f 145/1/6 146/1/6 147/1/6 148/1/6
f 149/1/2 150/1/2 151/1/2 152/1/2
f 153/1/3 154/1/3 155/1/3 156/1/3
f 157/1/5 158/1/5 159/1/5 160/1/5
f 161/1/6 162/1/6 163/1/6 164/1/6
f 165/1/1 166/1/1 167/1/1 168/1/1
f 169/1/2 170/1/2 171/1/2 172/1/2
f 173/1/5 174/1/5 175/1/5 176/1/5
f 177/1/6 178/1/6 179/1/6 180/1/6
f 181/1/1 182/1/1 183/1/1 184/1/1
f 185/1/2 186/1/2 187/1/2 188/1/2
f 189/1/4 190/1/4 191/1/4 192/1/4
f 193/1/5 194/1/5 195/1/5 196/1/5
f 197/1/6 198/1/6 199/1/6 200/1/6
f 201/1/1 202/1/1 203/1/1 204/1/1
f 205/1/2 206/1/2 207/1/2 208/1/2
f 209/1/3 210/1/3 211/1/3 212/1/3
f 213/1/5 214/1/5 215/1/5 216/1/5
f 217/1/6 218/1/6 219/1/6 220/1/6
f 221/1/1 222/1/1 223/1/1 224/1/1
f 225/1/2 226/1/2 227/1/2 228/1/2
f 229/1/5 230/1/5 231/1/5 232/1/5
f 233/1/6 234/1/6 235/1/6 236/1/6
f 237/1/1 238/1/1 239/1/1 240/1/1
f 241/1/4 242/1/4 243/1/4 244/1/4
f 245/1/5 246/1/5 247/1/5 248/1/5
f 249/1/6 250/1/6 251/1/6 252/1/6
f 253/1/2 254/1/2 255/1/2 256/1/2
f 257/1/3 258/1/3 259/1/3 260/1/3
f 261/1/5 262/1/5 263/1/5 264/1/5
f 265/1/6 266/1/6 267/1/6 268/1/6
f 269/1/1 270/1/1 271/1/1 272/1/1
f 273/1/2 274/1/2 275/1/2 276/1/2
f 277/1/5 278/1/5 279/1/5 280/1/5
f 281/1/6 282/1/6 283/1/6 284/1/6
f 285/1/1 286/1/1 287/1/1 288/1/1
f 289/1/5 290/1/5 291/1/5 292/1/5
f 293/1/6 294/1/6 295/1/6 296/1/6
f 297/1/2 298/1/2 299/1/2 300/1/2
f 301/1/3 302/1/3 303/1/3 304/1/3
f 305/1/5 306/1/5 307/1/5 308/1/5
f 309/1/6 310/1/6 311/1/6 312/1/6
f 313/1/1 314/1/1 315/1/1 316/1/1
f 317/1/4 318/1/4 319/1/4 320/1/4
f 321/1/5 322/1/5 323/1/5 324/1/5
f 325/1/6 326/1/6 327/1/6 328/1/6
f 329/1/2 330/1/2 331/1/2 332/1/2
f 333/1/5 334/1/5 335/1/5 336/1/5
f 337/1/6 338/1/6 339/1/6 340/1/6
f 341/1/1 342/1/1 343/1/1 344/1/1
f 345/1/2 346/1/2 347/1/2 348/1/2
f 349/1/5 350/1/5 351/1/5 352/1/5
f 353/1/6 354/1/6 355/1/6 356/1/6
f 357/1/1 358/1/1 359/1/1 360/1/1
f 361/1/5 362/1/5 363/1/5 364/1/5
f 365/1/6 366/1/6 367/1/6 368/1/6
f 369/1/2 370/1/2 371/1/2 372/1/2
f 373/1/3 374/1/3 375/1/3 376/1/3
f 377/1/5 378/1/5 379/1/5 380/1/5
f 381/1/6 382/1/6 383/1/6 384/1/6
f 385/1/1 386/1/1 387/1/1 388/1/1
f 389/1/4 390/1/4 391/1/4 392/1/4
f 393/1/5 394/1/5 395/1/5 396/1/5
f 397/1/6 398/1/6 399/1/6 400/1/6
f 401/1/2 402/1/2 403/1/2 404/1/2
f 405/1/5 406/1/5 407/1/5 408/1/5
f 409/1/6 410/1/6 411/1/6 412/1/6
f 413/1/1 414/1/1 415/1/1 416/1/1
f 417/1/5 418/1/5 419/1/5 420/1/5
f 421/1/6 422/1/6 423/1/6 424/1/6
f 425/1/2 426/1/2 427/1/2 428/1/2
f 429/1/3 430/1/3 431/1/3 432/1/3
f 433/1/5 434/1/5 435/1/5 436/1/5
f 437/1/6 438/1/6 439/1/6 440/1/6
f 441/1/1 442/1/1 443/1/1 444/1/1
f 445/1/5 446/1/5 447/1/5 448/1/5
f 449/1/6 450/1/6 451/1/6 452/1/6
f 453/1/2 454/1/2 455/1/2 456/1/2
f 457/1/4 458/1/4 459/1/4 460/1/4
f 461/1/5 462/1/5 463/1/5 464/1/5
f 465/1/6 466/1/6 467/1/6 468/1/6
f 469/1/1 470/1/1 471/1/1 472/1/1
f 473/1/2 474/1/2 475/1/2 476/1/2
f 477/1/5 478/1/5 479/1/5 480/1/5
f 481/1/6 482/1/6 483/1/6 484/1/6
f 485/1/1 486/1/1 487/1/1 488/1/1
f 489/1/2 490/1/2 491/1/2 492/1/2
f 493/1/4 494/1/4 495/1/4 496/1/4
f 497/1/5 498/1/5 499/1/5 500/1/5
f 501/1/6 502/1/6 503/1/6 504/1/6

