# generated by vox_to_obj_exporter
# scale=0.1 center=false ground=false y_up=true

mtllib Fight_107.mtl
usemtl palette

# normals
vn -1 0 0
vn 1 0 0
vn 0 1 0
vn 0 -1 0
vn 0 0 1
vn 0 0 -1

# texcoords
vt 0.017578125 0.5

# verts
v 28.2 19.3 -2.6
v 28.2 19.2 -2.6
v 28.2 19.2 -2.5
v 28.2 19.3 -2.5
v 28.3 19.3 -2.5
v 28.3 19.2 -2.5
v 28.3 19.2 -2.6
v 28.3 19.3 -2.6
v 28.2 19.3 -2.6
v 28.2 19.3 -2.5
v 28.3 19.3 -2.5
v 28.3 19.3 -2.6
v 28.2 19.2 -2.5
v 28.2 19.2 -2.6
v 28.3 19.2 -2.6
v 28.3 19.2 -2.5
v 28.2 19.3 -2.5
v 28.2 19.2 -2.5
v 28.3 19.2 -2.5
v 28.3 19.3 -2.5
v 28.3 19.3 -2.6
v 28.3 19.2 -2.6
v 28.2 19.2 -2.6
v 28.2 19.3 -2.6
v 28.1 19.2 -2.6
v 28.1 19.1 -2.6
v 28.1 19.1 -2.5
v 28.1 19.2 -2.5
v 28.2 19.2 -2.5
v 28.2 19.1 -2.5
v 28.2 19.1 -2.6
v 28.2 19.2 -2.6
v 28.1 19.2 -2.6
v 28.1 19.2 -2.5
v 28.2 19.2 -2.5
v 28.2 19.2 -2.6
v 28.1 19.1 -2.5
v 28.1 19.1 -2.6
v 28.2 19.1 -2.6
v 28.2 19.1 -2.5
v 28.1 19.2 -2.5
v 28.1 19.1 -2.5
v 28.2 19.1 -2.5
v 28.2 19.2 -2.5
v 28.2 19.2 -2.6
v 28.2 19.1 -2.6
v 28.1 19.1 -2.6
v 28.1 19.2 -2.6
v 28 19.1 -2.6
v 28 19 -2.6
v 28 19 -2.5
v 28 19.1 -2.5
v 28.1 19.1 -2.5
v 28.1 19 -2.5
v 28.1 19 -2.6
v 28.1 19.1 -2.6
v 28 19.1 -2.6
v 28 19.1 -2.5
v 28.1 19.1 -2.5
v 28.1 19.1 -2.6
v 28 19 -2.5
v 28 19 -2.6
v 28.1 19 -2.6
v 28.1 19 -2.5
v 28 19.1 -2.5
v 28 19 -2.5
v 28.1 19 -2.5
v 28.1 19.1 -2.5
v 28.1 19.1 -2.6
v 28.1 19 -2.6
v 28 19 -2.6
v 28 19.1 -2.6
v 27.9 19 -2.6
v 27.9 18.9 -2.6
v 27.9 18.9 -2.5
v 27.9 19 -2.5
v 28 19 -2.5
v 28 18.9 -2.5
v 28 18.9 -2.6
v 28 19 -2.6
v 27.9 19 -2.6
v 27.9 19 -2.5
v 28 19 -2.5
v 28 19 -2.6
v 27.9 18.9 -2.5
v 27.9 18.9 -2.6
v 28 18.9 -2.6
v 28 18.9 -2.5
v 27.9 19 -2.5
v 27.9 18.9 -2.5
v 28 18.9 -2.5
v 28 19 -2.5
v 28 19 -2.6
v 28 18.9 -2.6
v 27.9 18.9 -2.6
v 27.9 19 -2.6
v 27.8 18.9 -2.6
v 27.8 18.8 -2.6
v 27.8 18.8 -2.5
v 27.8 18.9 -2.5
v 27.9 18.9 -2.5
v 27.9 18.8 -2.5
v 27.9 18.8 -2.6
v 27.9 18.9 -2.6
v 27.8 18.9 -2.6
v 27.8 18.9 -2.5
v 27.9 18.9 -2.5
v 27.9 18.9 -2.6
v 27.8 18.8 -2.5
v 27.8 18.8 -2.6
v 27.9 18.8 -2.6
v 27.9 18.8 -2.5
v 27.8 18.9 -2.5
v 27.8 18.8 -2.5
v 27.9 18.8 -2.5
v 27.9 18.9 -2.5
v 27.9 18.9 -2.6
v 27.9 18.8 -2.6
v 27.8 18.8 -2.6
v 27.8 18.9 -2.6
v 27.7 18.8 -2.6
v 27.7 18.7 -2.6
v 27.7 18.7 -2.5
v 27.7 18.8 -2.5
v 27.8 18.8 -2.5
v 27.8 18.7 -2.5
v 27.8 18.7 -2.6
v 27.8 18.8 -2.6
v 27.7 18.8 -2.6
v 27.7 18.8 -2.5
v 27.8 18.8 -2.5
v 27.8 18.8 -2.6
v 27.7 18.7 -2.5
v 27.7 18.7 -2.6
v 27.8 18.7 -2.6
v 27.8 18.7 -2.5
v 27.7 18.8 -2.5
v 27.7 18.7 -2.5
v 27.8 18.7 -2.5
v 27.8 18.8 -2.5
v 27.8 18.8 -2.6
v 27.8 18.7 -2.6
v 27.7 18.7 -2.6
v 27.7 18.8 -2.6
v 27.6 18.7 -2.6
v 27.6 18.6 -2.6
v 27.6 18.6 -2.5
v 27.6 18.7 -2.5
v 27.7 18.7 -2.5
v 27.7 18.6 -2.5
v 27.7 18.6 -2.6
v 27.7 18.7 -2.6
v 27.6 18.7 -2.6
v 27.6 18.7 -2.5
v 27.7 18.7 -2.5
v 27.7 18.7 -2.6
v 27.6 18.6 -2.5
v 27.6 18.6 -2.6
v 27.7 18.6 -2.6
v 27.7 18.6 -2.5
v 27.6 18.7 -2.5
v 27.6 18.6 -2.5
v 27.7 18.6 -2.5
v 27.7 18.7 -2.5
v 27.7 18.7 -2.6
v 27.7 18.6 -2.6
v 27.6 18.6 -2.6
v 27.6 18.7 -2.6
v 27.5 18.6 -2.6
v 27.5 18.5 -2.6
v 27.5 18.5 -2.5
v 27.5 18.6 -2.5
v 27.6 18.6 -2.5
v 27.6 18.5 -2.5
v 27.6 18.5 -2.6
v 27.6 18.6 -2.6
v 27.5 18.6 -2.6
v 27.5 18.6 -2.5
v 27.6 18.6 -2.5
v 27.6 18.6 -2.6
v 27.5 18.5 -2.5
v 27.5 18.5 -2.6
v 27.6 18.5 -2.6
v 27.6 18.5 -2.5
v 27.5 18.6 -2.5
v 27.5 18.5 -2.5
v 27.6 18.5 -2.5
v 27.6 18.6 -2.5
v 27.6 18.6 -2.6
v 27.6 18.5 -2.6
v 27.5 18.5 -2.6
v 27.5 18.6 -2.6
v 27.4 18.5 -2.6
v 27.4 18.4 -2.6
v 27.4 18.4 -2.5
v 27.4 18.5 -2.5
v 27.5 18.5 -2.5
v 27.5 18.4 -2.5
v 27.5 18.4 -2.6
v 27.5 18.5 -2.6
v 27.4 18.5 -2.6
v 27.4 18.5 -2.5
v 27.5 18.5 -2.5
v 27.5 18.5 -2.6
v 27.4 18.4 -2.5
v 27.4 18.4 -2.6
v 27.5 18.4 -2.6
v 27.5 18.4 -2.5
v 27.4 18.5 -2.5
v 27.4 18.4 -2.5
v 27.5 18.4 -2.5
v 27.5 18.5 -2.5
v 27.5 18.5 -2.6
v 27.5 18.4 -2.6
v 27.4 18.4 -2.6
v 27.4 18.5 -2.6
v 27.2 18.4 -2.6
v 27.2 18.3 -2.6
v 27.2 18.3 -2.5
v 27.2 18.4 -2.5
v 27.2 18.4 -2.6
v 27.2 18.4 -2.5
v 27.3 18.4 -2.5
v 27.3 18.4 -2.6
v 27.2 18.4 -2.5
v 27.2 18.3 -2.5
v 27.3 18.3 -2.5
v 27.3 18.4 -2.5
v 27.3 18.4 -2.6
v 27.3 18.3 -2.6
v 27.2 18.3 -2.6
v 27.2 18.4 -2.6
v 27.4 18.4 -2.5
v 27.4 18.3 -2.5
v 27.4 18.3 -2.6
v 27.4 18.4 -2.6
v 27.3 18.4 -2.6
v 27.3 18.4 -2.5
v 27.4 18.4 -2.5
v 27.4 18.4 -2.6
v 27.3 18.3 -2.5
v 27.3 18.3 -2.6
v 27.4 18.3 -2.6
v 27.4 18.3 -2.5
v 27.3 18.4 -2.5
v 27.3 18.3 -2.5
v 27.4 18.3 -2.5
v 27.4 18.4 -2.5
v 27.4 18.4 -2.6
v 27.4 18.3 -2.6
v 27.3 18.3 -2.6
v 27.3 18.4 -2.6
v 27 18.3 -2.6
v 27 18.2 -2.6
v 27 18.2 -2.5
v 27 18.3 -2.5
v 27 18.3 -2.6
v 27 18.3 -2.5
v 27.1 18.3 -2.5
v 27.1 18.3 -2.6
v 27 18.3 -2.5
v 27 18.2 -2.5
v 27.1 18.2 -2.5
v 27.1 18.3 -2.5
v 27.1 18.3 -2.6
v 27.1 18.2 -2.6
v 27 18.2 -2.6
v 27 18.3 -2.6
v 27.1 18.3 -2.6
v 27.1 18.3 -2.5
v 27.2 18.3 -2.5
v 27.2 18.3 -2.6
v 27.1 18.3 -2.5
v 27.1 18.2 -2.5
v 27.2 18.2 -2.5
v 27.2 18.3 -2.5
v 27.2 18.3 -2.6
v 27.2 18.2 -2.6
v 27.1 18.2 -2.6
v 27.1 18.3 -2.6
v 27.3 18.3 -2.5
v 27.3 18.2 -2.5
v 27.3 18.2 -2.6
v 27.3 18.3 -2.6
v 27.2 18.2 -2.5
v 27.2 18.2 -2.6
v 27.3 18.2 -2.6
v 27.3 18.2 -2.5
v 27.2 18.3 -2.5
v 27.2 18.2 -2.5
v 27.3 18.2 -2.5
v 27.3 18.3 -2.5
v 27.3 18.3 -2.6
v 27.3 18.2 -2.6
v 27.2 18.2 -2.6
v 27.2 18.3 -2.6
v 26.9 18.2 -2.6
v 26.9 18.1 -2.6
v 26.9 18.1 -2.5
v 26.9 18.2 -2.5
v 26.9 18.2 -2.6
v 26.9 18.2 -2.5
v 27 18.2 -2.5
v 27 18.2 -2.6
v 26.9 18.2 -2.5
v 26.9 18.1 -2.5
v 27 18.1 -2.5
v 27 18.2 -2.5
v 27 18.2 -2.6
v 27 18.1 -2.6
v 26.9 18.1 -2.6
v 26.9 18.2 -2.6
v 27 18.2 -2.5
v 27 18.1 -2.5
v 27.1 18.1 -2.5
v 27.1 18.2 -2.5
v 27.1 18.2 -2.6
v 27.1 18.1 -2.6
v 27 18.1 -2.6
v 27 18.2 -2.6
v 27.2 18.2 -2.5
v 27.2 18.1 -2.5
v 27.2 18.1 -2.6
v 27.2 18.2 -2.6
v 27.1 18.1 -2.5
v 27.1 18.1 -2.6
v 27.2 18.1 -2.6
v 27.2 18.1 -2.5
v 27.1 18.2 -2.5
v 27.1 18.1 -2.5
v 27.2 18.1 -2.5
v 27.2 18.2 -2.5
v 27.2 18.2 -2.6
v 27.2 18.1 -2.6
v 27.1 18.1 -2.6
v 27.1 18.2 -2.6
v 26.8 18.1 -2.6
v 26.8 18 -2.6
v 26.8 18 -2.5
v 26.8 18.1 -2.5
v 26.8 18.1 -2.6
v 26.8 18.1 -2.5
v 26.9 18.1 -2.5
v 26.9 18.1 -2.6
v 26.8 18.1 -2.5
v 26.8 18 -2.5
v 26.9 18 -2.5
v 26.9 18.1 -2.5
v 26.9 18.1 -2.6
v 26.9 18 -2.6
v 26.8 18 -2.6
v 26.8 18.1 -2.6
v 26.9 18.1 -2.5
v 26.9 18 -2.5
v 27 18 -2.5
v 27 18.1 -2.5
v 27 18.1 -2.6
v 27 18 -2.6
v 26.9 18 -2.6
v 26.9 18.1 -2.6
v 27.1 18.1 -2.5
v 27.1 18 -2.5
v 27.1 18 -2.6
v 27.1 18.1 -2.6
v 27 18 -2.5
v 27 18 -2.6
v 27.1 18 -2.6
v 27.1 18 -2.5
v 27 18.1 -2.5
v 27 18 -2.5
v 27.1 18 -2.5
v 27.1 18.1 -2.5
v 27.1 18.1 -2.6
v 27.1 18 -2.6
v 27 18 -2.6
v 27 18.1 -2.6
v 27.6 18.1 -2.6
v 27.6 18 -2.6
v 27.6 18 -2.5
v 27.6 18.1 -2.5
v 27.7 18.1 -2.5
v 27.7 18 -2.5
v 27.7 18 -2.6
v 27.7 18.1 -2.6
v 27.6 18.1 -2.6
v 27.6 18.1 -2.5
v 27.7 18.1 -2.5
v 27.7 18.1 -2.6
v 27.6 18 -2.5
v 27.6 18 -2.6
v 27.7 18 -2.6
v 27.7 18 -2.5
v 27.6 18.1 -2.5
v 27.6 18 -2.5
v 27.7 18 -2.5
v 27.7 18.1 -2.5
v 27.7 18.1 -2.6
v 27.7 18 -2.6
v 27.6 18 -2.6
v 27.6 18.1 -2.6
v 26.7 18 -2.6
v 26.7 17.9 -2.6
v 26.7 17.9 -2.5
v 26.7 18 -2.5
v 26.7 18 -2.6
v 26.7 18 -2.5
v 26.8 18 -2.5
v 26.8 18 -2.6
v 26.7 18 -2.5
v 26.7 17.9 -2.5
v 26.8 17.9 -2.5
v 26.8 18 -2.5
v 26.8 18 -2.6
v 26.8 17.9 -2.6
v 26.7 17.9 -2.6
v 26.7 18 -2.6
v 26.8 18 -2.5
v 26.8 17.9 -2.5
v 26.9 17.9 -2.5
v 26.9 18 -2.5
v 26.9 18 -2.6
v 26.9 17.9 -2.6
v 26.8 17.9 -2.6
v 26.8 18 -2.6
v 27 18 -2.5
v 27 17.9 -2.5
v 27 17.9 -2.6
v 27 18 -2.6
v 26.9 17.9 -2.5
v 26.9 17.9 -2.6
v 27 17.9 -2.6
v 27 17.9 -2.5
v 26.9 18 -2.5
v 26.9 17.9 -2.5
v 27 17.9 -2.5
v 27 18 -2.5
v 27 18 -2.6
v 27 17.9 -2.6
v 26.9 17.9 -2.6
v 26.9 18 -2.6
v 27.5 18 -2.6
v 27.5 17.9 -2.6
v 27.5 17.9 -2.5
v 27.5 18 -2.5
v 27.6 18 -2.5
v 27.6 17.9 -2.5
v 27.6 17.9 -2.6
v 27.6 18 -2.6
v 27.5 18 -2.6
v 27.5 18 -2.5
v 27.6 18 -2.5
v 27.6 18 -2.6
v 27.5 18 -2.5
v 27.5 17.9 -2.5
v 27.6 17.9 -2.5
v 27.6 18 -2.5
v 27.6 18 -2.6
v 27.6 17.9 -2.6
v 27.5 17.9 -2.6
v 27.5 18 -2.6
v 26.6 17.9 -2.6
v 26.6 17.8 -2.6
v 26.6 17.8 -2.5
v 26.6 17.9 -2.5
v 26.6 17.9 -2.6
v 26.6 17.9 -2.5
v 26.7 17.9 -2.5
v 26.7 17.9 -2.6
v 26.6 17.9 -2.5
v 26.6 17.8 -2.5
v 26.7 17.8 -2.5
v 26.7 17.9 -2.5
v 26.7 17.9 -2.6
v 26.7 17.8 -2.6
v 26.6 17.8 -2.6
v 26.6 17.9 -2.6
v 26.7 17.9 -2.5
v 26.7 17.8 -2.5
v 26.8 17.8 -2.5
v 26.8 17.9 -2.5
v 26.8 17.9 -2.6
v 26.8 17.8 -2.6
v 26.7 17.8 -2.6
v 26.7 17.9 -2.6
v 26.9 17.9 -2.5
v 26.9 17.8 -2.5
v 26.9 17.8 -2.6
v 26.9 17.9 -2.6
v 26.8 17.8 -2.5
v 26.8 17.8 -2.6
v 26.9 17.8 -2.6
v 26.9 17.8 -2.5
v 26.8 17.9 -2.5
v 26.8 17.8 -2.5
v 26.9 17.8 -2.5
v 26.9 17.9 -2.5
v 26.9 17.9 -2.6
v 26.9 17.8 -2.6
v 26.8 17.8 -2.6
v 26.8 17.9 -2.6
v 27.4 17.9 -2.6
v 27.4 17.8 -2.6
v 27.4 17.8 -2.5
v 27.4 17.9 -2.5
v 27.4 17.9 -2.6
v 27.4 17.9 -2.5
v 27.5 17.9 -2.5
v 27.5 17.9 -2.6
v 27.4 17.9 -2.5
v 27.4 17.8 -2.5
v 27.5 17.8 -2.5
v 27.5 17.9 -2.5
v 27.5 17.9 -2.6
v 27.5 17.8 -2.6
v 27.4 17.8 -2.6
v 27.4 17.9 -2.6
v 27.6 17.9 -2.5
v 27.6 17.8 -2.5
v 27.6 17.8 -2.6
v 27.6 17.9 -2.6
v 27.5 17.8 -2.5
v 27.5 17.8 -2.6
v 27.6 17.8 -2.6
v 27.6 17.8 -2.5
v 27.5 17.9 -2.5
v 27.5 17.8 -2.5
v 27.6 17.8 -2.5
v 27.6 17.9 -2.5
v 27.6 17.9 -2.6
v 27.6 17.8 -2.6
v 27.5 17.8 -2.6
v 27.5 17.9 -2.6
v 26.5 17.8 -2.6
v 26.5 17.7 -2.6
v 26.5 17.7 -2.5
v 26.5 17.8 -2.5
v 26.5 17.8 -2.6
v 26.5 17.8 -2.5
v 26.6 17.8 -2.5
v 26.6 17.8 -2.6
v 26.5 17.8 -2.5
v 26.5 17.7 -2.5
v 26.6 17.7 -2.5
v 26.6 17.8 -2.5
v 26.6 17.8 -2.6
v 26.6 17.7 -2.6
v 26.5 17.7 -2.6
v 26.5 17.8 -2.6
v 26.6 17.8 -2.5
v 26.6 17.7 -2.5
v 26.7 17.7 -2.5
v 26.7 17.8 -2.5
v 26.7 17.8 -2.6
v 26.7 17.7 -2.6
v 26.6 17.7 -2.6
v 26.6 17.8 -2.6
v 26.8 17.8 -2.5
v 26.8 17.7 -2.5
v 26.8 17.7 -2.6
v 26.8 17.8 -2.6
v 26.7 17.7 -2.5
v 26.7 17.7 -2.6
v 26.8 17.7 -2.6
v 26.8 17.7 -2.5
v 26.7 17.8 -2.5
v 26.7 17.7 -2.5
v 26.8 17.7 -2.5
v 26.8 17.8 -2.5
v 26.8 17.8 -2.6
v 26.8 17.7 -2.6
v 26.7 17.7 -2.6
v 26.7 17.8 -2.6
v 27.3 17.8 -2.6
v 27.3 17.7 -2.6
v 27.3 17.7 -2.5
v 27.3 17.8 -2.5
v 27.3 17.8 -2.6
v 27.3 17.8 -2.5
v 27.4 17.8 -2.5
v 27.4 17.8 -2.6
v 27.3 17.8 -2.5
v 27.3 17.7 -2.5
v 27.4 17.7 -2.5
v 27.4 17.8 -2.5
v 27.4 17.8 -2.6
v 27.4 17.7 -2.6
v 27.3 17.7 -2.6
v 27.3 17.8 -2.6
v 27.5 17.8 -2.5
v 27.5 17.7 -2.5
v 27.5 17.7 -2.6
v 27.5 17.8 -2.6
v 27.4 17.7 -2.5
v 27.4 17.7 -2.6
v 27.5 17.7 -2.6
v 27.5 17.7 -2.5
v 27.4 17.8 -2.5
v 27.4 17.7 -2.5
v 27.5 17.7 -2.5
v 27.5 17.8 -2.5
v 27.5 17.8 -2.6
v 27.5 17.7 -2.6
v 27.4 17.7 -2.6
v 27.4 17.8 -2.6
v 26.4 17.7 -2.6
v 26.4 17.6 -2.6
v 26.4 17.6 -2.5
v 26.4 17.7 -2.5
v 26.4 17.7 -2.6
v 26.4 17.7 -2.5
v 26.5 17.7 -2.5
v 26.5 17.7 -2.6
v 26.4 17.7 -2.5
v 26.4 17.6 -2.5
v 26.5 17.6 -2.5
v 26.5 17.7 -2.5
v 26.5 17.7 -2.6
v 26.5 17.6 -2.6
v 26.4 17.6 -2.6
v 26.4 17.7 -2.6
v 26.5 17.7 -2.5
v 26.5 17.6 -2.5
v 26.6 17.6 -2.5
v 26.6 17.7 -2.5
v 26.6 17.7 -2.6
v 26.6 17.6 -2.6
v 26.5 17.6 -2.6
v 26.5 17.7 -2.6
v 26.7 17.7 -2.5
v 26.7 17.6 -2.5
v 26.7 17.6 -2.6
v 26.7 17.7 -2.6
v 26.6 17.6 -2.5
v 26.6 17.6 -2.6
v 26.7 17.6 -2.6
v 26.7 17.6 -2.5
v 26.6 17.7 -2.5
v 26.6 17.6 -2.5
v 26.7 17.6 -2.5
v 26.7 17.7 -2.5
v 26.7 17.7 -2.6
v 26.7 17.6 -2.6
v 26.6 17.6 -2.6
v 26.6 17.7 -2.6
v 27.2 17.7 -2.6
v 27.2 17.6 -2.6
v 27.2 17.6 -2.5
v 27.2 17.7 -2.5
v 27.2 17.7 -2.6
v 27.2 17.7 -2.5
v 27.3 17.7 -2.5
v 27.3 17.7 -2.6
v 27.2 17.7 -2.5
v 27.2 17.6 -2.5
v 27.3 17.6 -2.5
v 27.3 17.7 -2.5
v 27.3 17.7 -2.6
v 27.3 17.6 -2.6
v 27.2 17.6 -2.6
v 27.2 17.7 -2.6
v 27.4 17.7 -2.5
v 27.4 17.6 -2.5
v 27.4 17.6 -2.6
v 27.4 17.7 -2.6
v 27.3 17.6 -2.5
v 27.3 17.6 -2.6
v 27.4 17.6 -2.6
v 27.4 17.6 -2.5
v 27.3 17.7 -2.5
v 27.3 17.6 -2.5
v 27.4 17.6 -2.5
v 27.4 17.7 -2.5
v 27.4 17.7 -2.6
v 27.4 17.6 -2.6
v 27.3 17.6 -2.6
v 27.3 17.7 -2.6
v 26.3 17.6 -2.6
v 26.3 17.5 -2.6
v 26.3 17.5 -2.5
v 26.3 17.6 -2.5
v 26.3 17.6 -2.6
v 26.3 17.6 -2.5
v 26.4 17.6 -2.5
v 26.4 17.6 -2.6
v 26.3 17.6 -2.5
v 26.3 17.5 -2.5
v 26.4 17.5 -2.5
v 26.4 17.6 -2.5
v 26.4 17.6 -2.6
v 26.4 17.5 -2.6
v 26.3 17.5 -2.6
v 26.3 17.6 -2.6
v 26.4 17.6 -2.5
v 26.4 17.5 -2.5
v 26.5 17.5 -2.5
v 26.5 17.6 -2.5
v 26.5 17.6 -2.6
v 26.5 17.5 -2.6
v 26.4 17.5 -2.6
v 26.4 17.6 -2.6
v 26.6 17.6 -2.5
v 26.6 17.5 -2.5
v 26.6 17.5 -2.6
v 26.6 17.6 -2.6
v 26.5 17.5 -2.5
v 26.5 17.5 -2.6
v 26.6 17.5 -2.6
v 26.6 17.5 -2.5
v 26.5 17.6 -2.5
v 26.5 17.5 -2.5
v 26.6 17.5 -2.5
v 26.6 17.6 -2.5
v 26.6 17.6 -2.6
v 26.6 17.5 -2.6
v 26.5 17.5 -2.6
v 26.5 17.6 -2.6
v 27.1 17.6 -2.6
v 27.1 17.5 -2.6
v 27.1 17.5 -2.5
v 27.1 17.6 -2.5
v 27.1 17.6 -2.6
v 27.1 17.6 -2.5
v 27.2 17.6 -2.5
v 27.2 17.6 -2.6
v 27.1 17.6 -2.5
v 27.1 17.5 -2.5
v 27.2 17.5 -2.5
v 27.2 17.6 -2.5
v 27.2 17.6 -2.6
v 27.2 17.5 -2.6
v 27.1 17.5 -2.6
v 27.1 17.6 -2.6
v 27.3 17.6 -2.5
v 27.3 17.5 -2.5
v 27.3 17.5 -2.6
v 27.3 17.6 -2.6
v 27.2 17.5 -2.5
v 27.2 17.5 -2.6
v 27.3 17.5 -2.6
v 27.3 17.5 -2.5
v 27.2 17.6 -2.5
v 27.2 17.5 -2.5
v 27.3 17.5 -2.5
v 27.3 17.6 -2.5
v 27.3 17.6 -2.6
v 27.3 17.5 -2.6
v 27.2 17.5 -2.6
v 27.2 17.6 -2.6
v 26.2 17.5 -2.6
v 26.2 17.4 -2.6
v 26.2 17.4 -2.5
v 26.2 17.5 -2.5
v 26.2 17.5 -2.6
v 26.2 17.5 -2.5
v 26.3 17.5 -2.5
v 26.3 17.5 -2.6
v 26.2 17.5 -2.5
v 26.2 17.4 -2.5
v 26.3 17.4 -2.5
v 26.3 17.5 -2.5
v 26.3 17.5 -2.6
v 26.3 17.4 -2.6
v 26.2 17.4 -2.6
v 26.2 17.5 -2.6
v 26.3 17.5 -2.5
v 26.3 17.4 -2.5
v 26.4 17.4 -2.5
v 26.4 17.5 -2.5
v 26.4 17.5 -2.6
v 26.4 17.4 -2.6
v 26.3 17.4 -2.6
v 26.3 17.5 -2.6
v 26.5 17.5 -2.5
v 26.5 17.4 -2.5
v 26.5 17.4 -2.6
v 26.5 17.5 -2.6
v 26.4 17.4 -2.5
v 26.4 17.4 -2.6
v 26.5 17.4 -2.6
v 26.5 17.4 -2.5
v 26.4 17.5 -2.5
v 26.4 17.4 -2.5
v 26.5 17.4 -2.5
v 26.5 17.5 -2.5
v 26.5 17.5 -2.6
v 26.5 17.4 -2.6
v 26.4 17.4 -2.6
v 26.4 17.5 -2.6
v 27 17.5 -2.6
v 27 17.4 -2.6
v 27 17.4 -2.5
v 27 17.5 -2.5
v 27 17.5 -2.6
v 27 17.5 -2.5
v 27.1 17.5 -2.5
v 27.1 17.5 -2.6
v 27 17.5 -2.5
v 27 17.4 -2.5
v 27.1 17.4 -2.5
v 27.1 17.5 -2.5
v 27.1 17.5 -2.6
v 27.1 17.4 -2.6
v 27 17.4 -2.6
v 27 17.5 -2.6
v 27.2 17.5 -2.5
v 27.2 17.4 -2.5
v 27.2 17.4 -2.6
v 27.2 17.5 -2.6
v 27.1 17.4 -2.5
v 27.1 17.4 -2.6
v 27.2 17.4 -2.6
v 27.2 17.4 -2.5
v 27.1 17.5 -2.5
v 27.1 17.4 -2.5
v 27.2 17.4 -2.5
v 27.2 17.5 -2.5
v 27.2 17.5 -2.6
v 27.2 17.4 -2.6
v 27.1 17.4 -2.6
v 27.1 17.5 -2.6
v 26.1 17.4 -2.6
v 26.1 17.3 -2.6
v 26.1 17.3 -2.5
v 26.1 17.4 -2.5
v 26.1 17.4 -2.6
v 26.1 17.4 -2.5
v 26.2 17.4 -2.5
v 26.2 17.4 -2.6
v 26.1 17.4 -2.5
v 26.1 17.3 -2.5
v 26.2 17.3 -2.5
v 26.2 17.4 -2.5
v 26.2 17.4 -2.6
v 26.2 17.3 -2.6
v 26.1 17.3 -2.6
v 26.1 17.4 -2.6
v 26.2 17.4 -2.5
v 26.2 17.3 -2.5
v 26.3 17.3 -2.5
v 26.3 17.4 -2.5
v 26.3 17.4 -2.6
v 26.3 17.3 -2.6
v 26.2 17.3 -2.6
v 26.2 17.4 -2.6
v 26.4 17.4 -2.5
v 26.4 17.3 -2.5
v 26.4 17.3 -2.6
v 26.4 17.4 -2.6
v 26.3 17.3 -2.5
v 26.3 17.3 -2.6
v 26.4 17.3 -2.6
v 26.4 17.3 -2.5
v 26.3 17.4 -2.5
v 26.3 17.3 -2.5
v 26.4 17.3 -2.5
v 26.4 17.4 -2.5
v 26.4 17.4 -2.6
v 26.4 17.3 -2.6
v 26.3 17.3 -2.6
v 26.3 17.4 -2.6
v 26.9 17.4 -2.6
v 26.9 17.3 -2.6
v 26.9 17.3 -2.5
v 26.9 17.4 -2.5
v 26.9 17.4 -2.6
v 26.9 17.4 -2.5
v 27 17.4 -2.5
v 27 17.4 -2.6
v 26.9 17.4 -2.5
v 26.9 17.3 -2.5
v 27 17.3 -2.5
v 27 17.4 -2.5
v 27 17.4 -2.6
v 27 17.3 -2.6
v 26.9 17.3 -2.6
v 26.9 17.4 -2.6
v 27.1 17.4 -2.5
v 27.1 17.3 -2.5
v 27.1 17.3 -2.6
v 27.1 17.4 -2.6
v 27 17.3 -2.5
v 27 17.3 -2.6
v 27.1 17.3 -2.6
v 27.1 17.3 -2.5
v 27 17.4 -2.5
v 27 17.3 -2.5
v 27.1 17.3 -2.5
v 27.1 17.4 -2.5
v 27.1 17.4 -2.6
v 27.1 17.3 -2.6
v 27 17.3 -2.6
v 27 17.4 -2.6
v 26 17.3 -2.6
v 26 17.2 -2.6
v 26 17.2 -2.5
v 26 17.3 -2.5
v 26 17.3 -2.6
v 26 17.3 -2.5
v 26.1 17.3 -2.5
v 26.1 17.3 -2.6
v 26 17.3 -2.5
v 26 17.2 -2.5
v 26.1 17.2 -2.5
v 26.1 17.3 -2.5
v 26.1 17.3 -2.6
v 26.1 17.2 -2.6
v 26 17.2 -2.6
v 26 17.3 -2.6
v 26.1 17.3 -2.5
v 26.1 17.2 -2.5
v 26.2 17.2 -2.5
v 26.2 17.3 -2.5
v 26.2 17.3 -2.6
v 26.2 17.2 -2.6
v 26.1 17.2 -2.6
v 26.1 17.3 -2.6
v 26.3 17.3 -2.5
v 26.3 17.2 -2.5
v 26.3 17.2 -2.6
v 26.3 17.3 -2.6
v 26.2 17.2 -2.5
v 26.2 17.2 -2.6
v 26.3 17.2 -2.6
v 26.3 17.2 -2.5
v 26.2 17.3 -2.5
v 26.2 17.2 -2.5
v 26.3 17.2 -2.5
v 26.3 17.3 -2.5
v 26.3 17.3 -2.6
v 26.3 17.2 -2.6
v 26.2 17.2 -2.6
v 26.2 17.3 -2.6
v 26.8 17.3 -2.6
v 26.8 17.2 -2.6
v 26.8 17.2 -2.5
v 26.8 17.3 -2.5
v 26.8 17.3 -2.6
v 26.8 17.3 -2.5
v 26.9 17.3 -2.5
v 26.9 17.3 -2.6
v 26.8 17.3 -2.5
v 26.8 17.2 -2.5
v 26.9 17.2 -2.5
v 26.9 17.3 -2.5
v 26.9 17.3 -2.6
v 26.9 17.2 -2.6
v 26.8 17.2 -2.6
v 26.8 17.3 -2.6
v 27 17.3 -2.5
v 27 17.2 -2.5
v 27 17.2 -2.6
v 27 17.3 -2.6
v 26.9 17.2 -2.5
v 26.9 17.2 -2.6
v 27 17.2 -2.6
v 27 17.2 -2.5
v 26.9 17.3 -2.5
v 26.9 17.2 -2.5
v 27 17.2 -2.5
v 27 17.3 -2.5
v 27 17.3 -2.6
v 27 17.2 -2.6
v 26.9 17.2 -2.6
v 26.9 17.3 -2.6
v 25.9 17.2 -2.6
v 25.9 17.1 -2.6
v 25.9 17.1 -2.5
v 25.9 17.2 -2.5
v 25.9 17.2 -2.6
v 25.9 17.2 -2.5
v 26 17.2 -2.5
v 26 17.2 -2.6
v 25.9 17.2 -2.5
v 25.9 17.1 -2.5
v 26 17.1 -2.5
v 26 17.2 -2.5
v 26 17.2 -2.6
v 26 17.1 -2.6
v 25.9 17.1 -2.6
v 25.9 17.2 -2.6
v 26 17.2 -2.5
v 26 17.1 -2.5
v 26.1 17.1 -2.5
v 26.1 17.2 -2.5
v 26.1 17.2 -2.6
v 26.1 17.1 -2.6
v 26 17.1 -2.6
v 26 17.2 -2.6
v 26.2 17.2 -2.5
v 26.2 17.1 -2.5
v 26.2 17.1 -2.6
v 26.2 17.2 -2.6
v 26.1 17.1 -2.5
v 26.1 17.1 -2.6
v 26.2 17.1 -2.6
v 26.2 17.1 -2.5
v 26.1 17.2 -2.5
v 26.1 17.1 -2.5
v 26.2 17.1 -2.5
v 26.2 17.2 -2.5
v 26.2 17.2 -2.6
v 26.2 17.1 -2.6
v 26.1 17.1 -2.6
v 26.1 17.2 -2.6
v 26.7 17.2 -2.6
v 26.7 17.1 -2.6
v 26.7 17.1 -2.5
v 26.7 17.2 -2.5
v 26.7 17.2 -2.6
v 26.7 17.2 -2.5
v 26.8 17.2 -2.5
v 26.8 17.2 -2.6
v 26.7 17.2 -2.5
v 26.7 17.1 -2.5
v 26.8 17.1 -2.5
v 26.8 17.2 -2.5
v 26.8 17.2 -2.6
v 26.8 17.1 -2.6
v 26.7 17.1 -2.6
v 26.7 17.2 -2.6
v 26.9 17.2 -2.5
v 26.9 17.1 -2.5
v 26.9 17.1 -2.6
v 26.9 17.2 -2.6
v 26.8 17.1 -2.5
v 26.8 17.1 -2.6
v 26.9 17.1 -2.6
v 26.9 17.1 -2.5
v 26.8 17.2 -2.5
v 26.8 17.1 -2.5
v 26.9 17.1 -2.5
v 26.9 17.2 -2.5
v 26.9 17.2 -2.6
v 26.9 17.1 -2.6
v 26.8 17.1 -2.6
v 26.8 17.2 -2.6
v 25.8 17.1 -2.6
v 25.8 17 -2.6
v 25.8 17 -2.5
v 25.8 17.1 -2.5
v 25.8 17.1 -2.6
v 25.8 17.1 -2.5
v 25.9 17.1 -2.5
v 25.9 17.1 -2.6
v 25.8 17.1 -2.5
v 25.8 17 -2.5
v 25.9 17 -2.5
v 25.9 17.1 -2.5
v 25.9 17.1 -2.6
v 25.9 17 -2.6
v 25.8 17 -2.6
v 25.8 17.1 -2.6
v 25.9 17.1 -2.5
v 25.9 17 -2.5
v 26 17 -2.5
v 26 17.1 -2.5
v 26 17.1 -2.6
v 26 17 -2.6
v 25.9 17 -2.6
v 25.9 17.1 -2.6
v 26.1 17.1 -2.5
v 26.1 17 -2.5
v 26.1 17 -2.6
v 26.1 17.1 -2.6
v 26 17 -2.5
v 26 17 -2.6
v 26.1 17 -2.6
v 26.1 17 -2.5
v 26 17.1 -2.5
v 26 17 -2.5
v 26.1 17 -2.5
v 26.1 17.1 -2.5
v 26.1 17.1 -2.6
v 26.1 17 -2.6
v 26 17 -2.6
v 26 17.1 -2.6
v 26.6 17.1 -2.6
v 26.6 17 -2.6
v 26.6 17 -2.5
v 26.6 17.1 -2.5
v 26.6 17.1 -2.6
v 26.6 17.1 -2.5
v 26.7 17.1 -2.5
v 26.7 17.1 -2.6
v 26.6 17.1 -2.5
v 26.6 17 -2.5
v 26.7 17 -2.5
v 26.7 17.1 -2.5
v 26.7 17.1 -2.6
v 26.7 17 -2.6
v 26.6 17 -2.6
v 26.6 17.1 -2.6
v 26.8 17.1 -2.5
v 26.8 17 -2.5
v 26.8 17 -2.6
v 26.8 17.1 -2.6
v 26.7 17 -2.5
v 26.7 17 -2.6
v 26.8 17 -2.6
v 26.8 17 -2.5
v 26.7 17.1 -2.5
v 26.7 17 -2.5
v 26.8 17 -2.5
v 26.8 17.1 -2.5
v 26.8 17.1 -2.6
v 26.8 17 -2.6
v 26.7 17 -2.6
v 26.7 17.1 -2.6
v 25.7 17 -2.6
v 25.7 16.9 -2.6
v 25.7 16.9 -2.5
v 25.7 17 -2.5
v 25.7 17 -2.6
v 25.7 17 -2.5
v 25.8 17 -2.5
v 25.8 17 -2.6
v 25.7 17 -2.5
v 25.7 16.9 -2.5
v 25.8 16.9 -2.5
v 25.8 17 -2.5
v 25.8 17 -2.6
v 25.8 16.9 -2.6
v 25.7 16.9 -2.6
v 25.7 17 -2.6
v 25.8 17 -2.5
v 25.8 16.9 -2.5
v 25.9 16.9 -2.5
v 25.9 17 -2.5
v 25.9 17 -2.6
v 25.9 16.9 -2.6
v 25.8 16.9 -2.6
v 25.8 17 -2.6
v 26 17 -2.5
v 26 16.9 -2.5
v 26 16.9 -2.6
v 26 17 -2.6
v 25.9 16.9 -2.5
v 25.9 16.9 -2.6
v 26 16.9 -2.6
v 26 16.9 -2.5
v 25.9 17 -2.5
v 25.9 16.9 -2.5
v 26 16.9 -2.5
v 26 17 -2.5
v 26 17 -2.6
v 26 16.9 -2.6
v 25.9 16.9 -2.6
v 25.9 17 -2.6
v 26.5 17 -2.6
v 26.5 16.9 -2.6
v 26.5 16.9 -2.5
v 26.5 17 -2.5
v 26.5 17 -2.6
v 26.5 17 -2.5
v 26.6 17 -2.5
v 26.6 17 -2.6
v 26.5 17 -2.5
v 26.5 16.9 -2.5
v 26.6 16.9 -2.5
v 26.6 17 -2.5
v 26.6 17 -2.6
v 26.6 16.9 -2.6
v 26.5 16.9 -2.6
v 26.5 17 -2.6
v 26.7 17 -2.5
v 26.7 16.9 -2.5
v 26.7 16.9 -2.6
v 26.7 17 -2.6
v 26.6 16.9 -2.5
v 26.6 16.9 -2.6
v 26.7 16.9 -2.6
v 26.7 16.9 -2.5
v 26.6 17 -2.5
v 26.6 16.9 -2.5
v 26.7 16.9 -2.5
v 26.7 17 -2.5
v 26.7 17 -2.6
v 26.7 16.9 -2.6
v 26.6 16.9 -2.6
v 26.6 17 -2.6
v 25.6 16.9 -2.6
v 25.6 16.8 -2.6
v 25.6 16.8 -2.5
v 25.6 16.9 -2.5
v 25.6 16.9 -2.6
v 25.6 16.9 -2.5
v 25.7 16.9 -2.5
v 25.7 16.9 -2.6
v 25.6 16.9 -2.5
v 25.6 16.8 -2.5
v 25.7 16.8 -2.5
v 25.7 16.9 -2.5
v 25.7 16.9 -2.6
v 25.7 16.8 -2.6
v 25.6 16.8 -2.6
v 25.6 16.9 -2.6
v 25.7 16.9 -2.5
v 25.7 16.8 -2.5
v 25.8 16.8 -2.5
v 25.8 16.9 -2.5
v 25.8 16.9 -2.6
v 25.8 16.8 -2.6
v 25.7 16.8 -2.6
v 25.7 16.9 -2.6
v 25.9 16.9 -2.5
v 25.9 16.8 -2.5
v 25.9 16.8 -2.6
v 25.9 16.9 -2.6
v 25.8 16.8 -2.5
v 25.8 16.8 -2.6
v 25.9 16.8 -2.6
v 25.9 16.8 -2.5
v 25.8 16.9 -2.5
v 25.8 16.8 -2.5
v 25.9 16.8 -2.5
v 25.9 16.9 -2.5
v 25.9 16.9 -2.6
v 25.9 16.8 -2.6
v 25.8 16.8 -2.6
v 25.8 16.9 -2.6
v 26.4 16.9 -2.6
v 26.4 16.8 -2.6
v 26.4 16.8 -2.5
v 26.4 16.9 -2.5
v 26.4 16.9 -2.6
v 26.4 16.9 -2.5
v 26.5 16.9 -2.5
v 26.5 16.9 -2.6
v 26.4 16.9 -2.5
v 26.4 16.8 -2.5
v 26.5 16.8 -2.5
v 26.5 16.9 -2.5
v 26.5 16.9 -2.6
v 26.5 16.8 -2.6
v 26.4 16.8 -2.6
v 26.4 16.9 -2.6
v 26.6 16.9 -2.5
v 26.6 16.8 -2.5
v 26.6 16.8 -2.6
v 26.6 16.9 -2.6
v 26.5 16.8 -2.5
v 26.5 16.8 -2.6
v 26.6 16.8 -2.6
v 26.6 16.8 -2.5
v 26.5 16.9 -2.5
v 26.5 16.8 -2.5
v 26.6 16.8 -2.5
v 26.6 16.9 -2.5
v 26.6 16.9 -2.6
v 26.6 16.8 -2.6
v 26.5 16.8 -2.6
v 26.5 16.9 -2.6
v 25.5 16.8 -2.6
v 25.5 16.7 -2.6
v 25.5 16.7 -2.5
v 25.5 16.8 -2.5
v 25.5 16.8 -2.6
v 25.5 16.8 -2.5
v 25.6 16.8 -2.5
v 25.6 16.8 -2.6
v 25.5 16.8 -2.5
v 25.5 16.7 -2.5
v 25.6 16.7 -2.5
v 25.6 16.8 -2.5
v 25.6 16.8 -2.6
v 25.6 16.7 -2.6
v 25.5 16.7 -2.6
v 25.5 16.8 -2.6
v 25.6 16.8 -2.5
v 25.6 16.7 -2.5
v 25.7 16.7 -2.5
v 25.7 16.8 -2.5
v 25.7 16.8 -2.6
v 25.7 16.7 -2.6
v 25.6 16.7 -2.6
v 25.6 16.8 -2.6
v 25.8 16.8 -2.5
v 25.8 16.7 -2.5
v 25.8 16.7 -2.6
v 25.8 16.8 -2.6
v 25.7 16.7 -2.5
v 25.7 16.7 -2.6
v 25.8 16.7 -2.6
v 25.8 16.7 -2.5
v 25.7 16.8 -2.5
v 25.7 16.7 -2.5
v 25.8 16.7 -2.5
v 25.8 16.8 -2.5
v 25.8 16.8 -2.6
v 25.8 16.7 -2.6
v 25.7 16.7 -2.6
v 25.7 16.8 -2.6
v 26.3 16.8 -2.6
v 26.3 16.7 -2.6
v 26.3 16.7 -2.5
v 26.3 16.8 -2.5
v 26.3 16.8 -2.6
v 26.3 16.8 -2.5
v 26.4 16.8 -2.5
v 26.4 16.8 -2.6
v 26.3 16.8 -2.5
v 26.3 16.7 -2.5
v 26.4 16.7 -2.5
v 26.4 16.8 -2.5
v 26.4 16.8 -2.6
v 26.4 16.7 -2.6
v 26.3 16.7 -2.6
v 26.3 16.8 -2.6
v 26.5 16.8 -2.5
v 26.5 16.7 -2.5
v 26.5 16.7 -2.6
v 26.5 16.8 -2.6
v 26.4 16.7 -2.5
v 26.4 16.7 -2.6
v 26.5 16.7 -2.6
v 26.5 16.7 -2.5
v 26.4 16.8 -2.5
v 26.4 16.7 -2.5
v 26.5 16.7 -2.5
v 26.5 16.8 -2.5
v 26.5 16.8 -2.6
v 26.5 16.7 -2.6
v 26.4 16.7 -2.6
v 26.4 16.8 -2.6
v 25.4 16.7 -2.6
v 25.4 16.6 -2.6
v 25.4 16.6 -2.5
v 25.4 16.7 -2.5
v 25.4 16.7 -2.6
v 25.4 16.7 -2.5
v 25.5 16.7 -2.5
v 25.5 16.7 -2.6
v 25.4 16.7 -2.5
v 25.4 16.6 -2.5
v 25.5 16.6 -2.5
v 25.5 16.7 -2.5
v 25.5 16.7 -2.6
v 25.5 16.6 -2.6
v 25.4 16.6 -2.6
v 25.4 16.7 -2.6
v 25.5 16.7 -2.5
v 25.5 16.6 -2.5
v 25.6 16.6 -2.5
v 25.6 16.7 -2.5
v 25.6 16.7 -2.6
v 25.6 16.6 -2.6
v 25.5 16.6 -2.6
v 25.5 16.7 -2.6
v 25.7 16.7 -2.5
v 25.7 16.6 -2.5
v 25.7 16.6 -2.6
v 25.7 16.7 -2.6
v 25.6 16.6 -2.5
v 25.6 16.6 -2.6
v 25.7 16.6 -2.6
v 25.7 16.6 -2.5
v 25.6 16.7 -2.5
v 25.6 16.6 -2.5
v 25.7 16.6 -2.5
v 25.7 16.7 -2.5
v 25.7 16.7 -2.6
v 25.7 16.6 -2.6
v 25.6 16.6 -2.6
v 25.6 16.7 -2.6
v 26.2 16.7 -2.6
v 26.2 16.6 -2.6
v 26.2 16.6 -2.5
v 26.2 16.7 -2.5
v 26.2 16.7 -2.6
v 26.2 16.7 -2.5
v 26.3 16.7 -2.5
v 26.3 16.7 -2.6
v 26.2 16.7 -2.5
v 26.2 16.6 -2.5
v 26.3 16.6 -2.5
v 26.3 16.7 -2.5
v 26.3 16.7 -2.6
v 26.3 16.6 -2.6
v 26.2 16.6 -2.6
v 26.2 16.7 -2.6
v 26.4 16.7 -2.5
v 26.4 16.6 -2.5
v 26.4 16.6 -2.6
v 26.4 16.7 -2.6
v 26.3 16.6 -2.5
v 26.3 16.6 -2.6
v 26.4 16.6 -2.6
v 26.4 16.6 -2.5
v 26.3 16.7 -2.5
v 26.3 16.6 -2.5
v 26.4 16.6 -2.5
v 26.4 16.7 -2.5
v 26.4 16.7 -2.6
v 26.4 16.6 -2.6
v 26.3 16.6 -2.6
v 26.3 16.7 -2.6
v 25.3 16.6 -2.6
v 25.3 16.5 -2.6
v 25.3 16.5 -2.5
v 25.3 16.6 -2.5
v 25.3 16.6 -2.6
v 25.3 16.6 -2.5
v 25.4 16.6 -2.5
v 25.4 16.6 -2.6
v 25.3 16.6 -2.5
v 25.3 16.5 -2.5
v 25.4 16.5 -2.5
v 25.4 16.6 -2.5
v 25.4 16.6 -2.6
v 25.4 16.5 -2.6
v 25.3 16.5 -2.6
v 25.3 16.6 -2.6
v 25.4 16.6 -2.5
v 25.4 16.5 -2.5
v 25.5 16.5 -2.5
v 25.5 16.6 -2.5
v 25.5 16.6 -2.6
v 25.5 16.5 -2.6
v 25.4 16.5 -2.6
v 25.4 16.6 -2.6
v 25.6 16.6 -2.5
v 25.6 16.5 -2.5
v 25.6 16.5 -2.6
v 25.6 16.6 -2.6
v 25.5 16.5 -2.5
v 25.5 16.5 -2.6
v 25.6 16.5 -2.6
v 25.6 16.5 -2.5
v 25.5 16.6 -2.5
v 25.5 16.5 -2.5
v 25.6 16.5 -2.5
v 25.6 16.6 -2.5
v 25.6 16.6 -2.6
v 25.6 16.5 -2.6
v 25.5 16.5 -2.6
v 25.5 16.6 -2.6
v 26.1 16.6 -2.6
v 26.1 16.5 -2.6
v 26.1 16.5 -2.5
v 26.1 16.6 -2.5
v 26.1 16.6 -2.6
v 26.1 16.6 -2.5
v 26.2 16.6 -2.5
v 26.2 16.6 -2.6
v 26.1 16.6 -2.5
v 26.1 16.5 -2.5
v 26.2 16.5 -2.5
v 26.2 16.6 -2.5
v 26.2 16.6 -2.6
v 26.2 16.5 -2.6
v 26.1 16.5 -2.6
v 26.1 16.6 -2.6
v 26.3 16.6 -2.5
v 26.3 16.5 -2.5
v 26.3 16.5 -2.6
v 26.3 16.6 -2.6
v 26.2 16.5 -2.5
v 26.2 16.5 -2.6
v 26.3 16.5 -2.6
v 26.3 16.5 -2.5
v 26.2 16.6 -2.5
v 26.2 16.5 -2.5
v 26.3 16.5 -2.5
v 26.3 16.6 -2.5
v 26.3 16.6 -2.6
v 26.3 16.5 -2.6
v 26.2 16.5 -2.6
v 26.2 16.6 -2.6
v 25.2 16.5 -2.6
v 25.2 16.4 -2.6
v 25.2 16.4 -2.5
v 25.2 16.5 -2.5
v 25.2 16.5 -2.6
v 25.2 16.5 -2.5
v 25.3 16.5 -2.5
v 25.3 16.5 -2.6
v 25.2 16.5 -2.5
v 25.2 16.4 -2.5
v 25.3 16.4 -2.5
v 25.3 16.5 -2.5
v 25.3 16.5 -2.6
v 25.3 16.4 -2.6
v 25.2 16.4 -2.6
v 25.2 16.5 -2.6
v 25.3 16.5 -2.5
v 25.3 16.4 -2.5
v 25.4 16.4 -2.5
v 25.4 16.5 -2.5
v 25.4 16.5 -2.6
v 25.4 16.4 -2.6
v 25.3 16.4 -2.6
v 25.3 16.5 -2.6
v 25.5 16.5 -2.5
v 25.5 16.4 -2.5
v 25.5 16.4 -2.6
v 25.5 16.5 -2.6
v 25.4 16.4 -2.5
v 25.4 16.4 -2.6
v 25.5 16.4 -2.6
v 25.5 16.4 -2.5
v 25.4 16.5 -2.5
v 25.4 16.4 -2.5
v 25.5 16.4 -2.5
v 25.5 16.5 -2.5
v 25.5 16.5 -2.6
v 25.5 16.4 -2.6
v 25.4 16.4 -2.6
v 25.4 16.5 -2.6
v 26 16.5 -2.6
v 26 16.4 -2.6
v 26 16.4 -2.5
v 26 16.5 -2.5
v 26 16.5 -2.6
v 26 16.5 -2.5
v 26.1 16.5 -2.5
v 26.1 16.5 -2.6
v 26 16.5 -2.5
v 26 16.4 -2.5
v 26.1 16.4 -2.5
v 26.1 16.5 -2.5
v 26.1 16.5 -2.6
v 26.1 16.4 -2.6
v 26 16.4 -2.6
v 26 16.5 -2.6
v 26.2 16.5 -2.5
v 26.2 16.4 -2.5
v 26.2 16.4 -2.6
v 26.2 16.5 -2.6
v 26.1 16.4 -2.5
v 26.1 16.4 -2.6
v 26.2 16.4 -2.6
v 26.2 16.4 -2.5
v 26.1 16.5 -2.5
v 26.1 16.4 -2.5
v 26.2 16.4 -2.5
v 26.2 16.5 -2.5
v 26.2 16.5 -2.6
v 26.2 16.4 -2.6
v 26.1 16.4 -2.6
v 26.1 16.5 -2.6
v 25.1 16.4 -2.6
v 25.1 16.3 -2.6
v 25.1 16.3 -2.5
v 25.1 16.4 -2.5
v 25.1 16.4 -2.6
v 25.1 16.4 -2.5
v 25.2 16.4 -2.5
v 25.2 16.4 -2.6
v 25.1 16.4 -2.5
v 25.1 16.3 -2.5
v 25.2 16.3 -2.5
v 25.2 16.4 -2.5
v 25.2 16.4 -2.6
v 25.2 16.3 -2.6
v 25.1 16.3 -2.6
v 25.1 16.4 -2.6
v 25.2 16.4 -2.5
v 25.2 16.3 -2.5
v 25.3 16.3 -2.5
v 25.3 16.4 -2.5
v 25.3 16.4 -2.6
v 25.3 16.3 -2.6
v 25.2 16.3 -2.6
v 25.2 16.4 -2.6
v 25.4 16.4 -2.5
v 25.4 16.3 -2.5
v 25.4 16.3 -2.6
v 25.4 16.4 -2.6
v 25.3 16.3 -2.5
v 25.3 16.3 -2.6
v 25.4 16.3 -2.6
v 25.4 16.3 -2.5
v 25.3 16.4 -2.5
v 25.3 16.3 -2.5
v 25.4 16.3 -2.5
v 25.4 16.4 -2.5
v 25.4 16.4 -2.6
v 25.4 16.3 -2.6
v 25.3 16.3 -2.6
v 25.3 16.4 -2.6
v 25.9 16.4 -2.6
v 25.9 16.3 -2.6
v 25.9 16.3 -2.5
v 25.9 16.4 -2.5
v 25.9 16.4 -2.6
v 25.9 16.4 -2.5
v 26 16.4 -2.5
v 26 16.4 -2.6
v 25.9 16.4 -2.5
v 25.9 16.3 -2.5
v 26 16.3 -2.5
v 26 16.4 -2.5
v 26 16.4 -2.6
v 26 16.3 -2.6
v 25.9 16.3 -2.6
v 25.9 16.4 -2.6
v 26.1 16.4 -2.5
v 26.1 16.3 -2.5
v 26.1 16.3 -2.6
v 26.1 16.4 -2.6
v 26 16.3 -2.5
v 26 16.3 -2.6
v 26.1 16.3 -2.6
v 26.1 16.3 -2.5
v 26 16.4 -2.5
v 26 16.3 -2.5
v 26.1 16.3 -2.5
v 26.1 16.4 -2.5
v 26.1 16.4 -2.6
v 26.1 16.3 -2.6
v 26 16.3 -2.6
v 26 16.4 -2.6
v 25 16.3 -2.6
v 25 16.2 -2.6
v 25 16.2 -2.5
v 25 16.3 -2.5
v 25 16.3 -2.6
v 25 16.3 -2.5
v 25.1 16.3 -2.5
v 25.1 16.3 -2.6
v 25 16.3 -2.5
v 25 16.2 -2.5
v 25.1 16.2 -2.5
v 25.1 16.3 -2.5
v 25.1 16.3 -2.6
v 25.1 16.2 -2.6
v 25 16.2 -2.6
v 25 16.3 -2.6
v 25.1 16.3 -2.5
v 25.1 16.2 -2.5
v 25.2 16.2 -2.5
v 25.2 16.3 -2.5
v 25.2 16.3 -2.6
v 25.2 16.2 -2.6
v 25.1 16.2 -2.6
v 25.1 16.3 -2.6
v 25.3 16.3 -2.5
v 25.3 16.2 -2.5
v 25.3 16.2 -2.6
v 25.3 16.3 -2.6
v 25.2 16.2 -2.5
v 25.2 16.2 -2.6
v 25.3 16.2 -2.6
v 25.3 16.2 -2.5
v 25.2 16.3 -2.5
v 25.2 16.2 -2.5
v 25.3 16.2 -2.5
v 25.3 16.3 -2.5
v 25.3 16.3 -2.6
v 25.3 16.2 -2.6
v 25.2 16.2 -2.6
v 25.2 16.3 -2.6
v 25.8 16.3 -2.6
v 25.8 16.2 -2.6
v 25.8 16.2 -2.5
v 25.8 16.3 -2.5
v 25.8 16.3 -2.6
v 25.8 16.3 -2.5
v 25.9 16.3 -2.5
v 25.9 16.3 -2.6
v 25.8 16.3 -2.5
v 25.8 16.2 -2.5
v 25.9 16.2 -2.5
v 25.9 16.3 -2.5
v 25.9 16.3 -2.6
v 25.9 16.2 -2.6
v 25.8 16.2 -2.6
v 25.8 16.3 -2.6
v 26 16.3 -2.5
v 26 16.2 -2.5
v 26 16.2 -2.6
v 26 16.3 -2.6
v 25.9 16.2 -2.5
v 25.9 16.2 -2.6
v 26 16.2 -2.6
v 26 16.2 -2.5
v 25.9 16.3 -2.5
v 25.9 16.2 -2.5
v 26 16.2 -2.5
v 26 16.3 -2.5
v 26 16.3 -2.6
v 26 16.2 -2.6
v 25.9 16.2 -2.6
v 25.9 16.3 -2.6
v 24.9 16.2 -2.6
v 24.9 16.1 -2.6
v 24.9 16.1 -2.5
v 24.9 16.2 -2.5
v 24.9 16.2 -2.6
v 24.9 16.2 -2.5
v 25 16.2 -2.5
v 25 16.2 -2.6
v 24.9 16.2 -2.5
v 24.9 16.1 -2.5
v 25 16.1 -2.5
v 25 16.2 -2.5
v 25 16.2 -2.6
v 25 16.1 -2.6
v 24.9 16.1 -2.6
v 24.9 16.2 -2.6
v 25 16.2 -2.5
v 25 16.1 -2.5
v 25.1 16.1 -2.5
v 25.1 16.2 -2.5
v 25.1 16.2 -2.6
v 25.1 16.1 -2.6
v 25 16.1 -2.6
v 25 16.2 -2.6
v 25.2 16.2 -2.5
v 25.2 16.1 -2.5
v 25.2 16.1 -2.6
v 25.2 16.2 -2.6
v 25.1 16.1 -2.5
v 25.1 16.1 -2.6
v 25.2 16.1 -2.6
v 25.2 16.1 -2.5
v 25.1 16.2 -2.5
v 25.1 16.1 -2.5
v 25.2 16.1 -2.5
v 25.2 16.2 -2.5
v 25.2 16.2 -2.6
v 25.2 16.1 -2.6
v 25.1 16.1 -2.6
v 25.1 16.2 -2.6
v 25.7 16.2 -2.6
v 25.7 16.1 -2.6
v 25.7 16.1 -2.5
v 25.7 16.2 -2.5
v 25.7 16.2 -2.6
v 25.7 16.2 -2.5
v 25.8 16.2 -2.5
v 25.8 16.2 -2.6
v 25.7 16.2 -2.5
v 25.7 16.1 -2.5
v 25.8 16.1 -2.5
v 25.8 16.2 -2.5
v 25.8 16.2 -2.6
v 25.8 16.1 -2.6
v 25.7 16.1 -2.6
v 25.7 16.2 -2.6
v 25.9 16.2 -2.5
v 25.9 16.1 -2.5
v 25.9 16.1 -2.6
v 25.9 16.2 -2.6
v 25.8 16.1 -2.5
v 25.8 16.1 -2.6
v 25.9 16.1 -2.6
v 25.9 16.1 -2.5
v 25.8 16.2 -2.5
v 25.8 16.1 -2.5
v 25.9 16.1 -2.5
v 25.9 16.2 -2.5
v 25.9 16.2 -2.6
v 25.9 16.1 -2.6
v 25.8 16.1 -2.6
v 25.8 16.2 -2.6
v 24.8 16.1 -2.6
v 24.8 16 -2.6
v 24.8 16 -2.5
v 24.8 16.1 -2.5
v 24.8 16.1 -2.6
v 24.8 16.1 -2.5
v 24.9 16.1 -2.5
v 24.9 16.1 -2.6
v 24.8 16.1 -2.5
v 24.8 16 -2.5
v 24.9 16 -2.5
v 24.9 16.1 -2.5
v 24.9 16.1 -2.6
v 24.9 16 -2.6
v 24.8 16 -2.6
v 24.8 16.1 -2.6
v 24.9 16.1 -2.5
v 24.9 16 -2.5
v 25 16 -2.5
v 25 16.1 -2.5
v 25 16.1 -2.6
v 25 16 -2.6
v 24.9 16 -2.6
v 24.9 16.1 -2.6
v 25.1 16.1 -2.5
v 25.1 16 -2.5
v 25.1 16 -2.6
v 25.1 16.1 -2.6
v 25 16 -2.5
v 25 16 -2.6
v 25.1 16 -2.6
v 25.1 16 -2.5
v 25 16.1 -2.5
v 25 16 -2.5
v 25.1 16 -2.5
v 25.1 16.1 -2.5
v 25.1 16.1 -2.6
v 25.1 16 -2.6
v 25 16 -2.6
v 25 16.1 -2.6
v 25.6 16.1 -2.6
v 25.6 16 -2.6
v 25.6 16 -2.5
v 25.6 16.1 -2.5
v 25.6 16.1 -2.6
v 25.6 16.1 -2.5
v 25.7 16.1 -2.5
v 25.7 16.1 -2.6
v 25.6 16.1 -2.5
v 25.6 16 -2.5
v 25.7 16 -2.5
v 25.7 16.1 -2.5
v 25.7 16.1 -2.6
v 25.7 16 -2.6
v 25.6 16 -2.6
v 25.6 16.1 -2.6
v 25.8 16.1 -2.5
v 25.8 16 -2.5
v 25.8 16 -2.6
v 25.8 16.1 -2.6
v 25.7 16 -2.5
v 25.7 16 -2.6
v 25.8 16 -2.6
v 25.8 16 -2.5
v 25.7 16.1 -2.5
v 25.7 16 -2.5
v 25.8 16 -2.5
v 25.8 16.1 -2.5
v 25.8 16.1 -2.6
v 25.8 16 -2.6
v 25.7 16 -2.6
v 25.7 16.1 -2.6
v 24.7 16 -2.6
v 24.7 15.9 -2.6
v 24.7 15.9 -2.5
v 24.7 16 -2.5
v 24.7 16 -2.6
v 24.7 16 -2.5
v 24.8 16 -2.5
v 24.8 16 -2.6
v 24.7 16 -2.5
v 24.7 15.9 -2.5
v 24.8 15.9 -2.5
v 24.8 16 -2.5
v 24.8 16 -2.6
v 24.8 15.9 -2.6
v 24.7 15.9 -2.6
v 24.7 16 -2.6
v 24.8 16 -2.5
v 24.8 15.9 -2.5
v 24.9 15.9 -2.5
v 24.9 16 -2.5
v 24.9 16 -2.6
v 24.9 15.9 -2.6
v 24.8 15.9 -2.6
v 24.8 16 -2.6
v 25 16 -2.5
v 25 15.9 -2.5
v 25 15.9 -2.6
v 25 16 -2.6
v 24.9 15.9 -2.5
v 24.9 15.9 -2.6
v 25 15.9 -2.6
v 25 15.9 -2.5
v 24.9 16 -2.5
v 24.9 15.9 -2.5
v 25 15.9 -2.5
v 25 16 -2.5
v 25 16 -2.6
v 25 15.9 -2.6
v 24.9 15.9 -2.6
v 24.9 16 -2.6
v 25.5 16 -2.6
v 25.5 15.9 -2.6
v 25.5 15.9 -2.5
v 25.5 16 -2.5
v 25.5 16 -2.6
v 25.5 16 -2.5
v 25.6 16 -2.5
v 25.6 16 -2.6
v 25.5 16 -2.5
v 25.5 15.9 -2.5
v 25.6 15.9 -2.5
v 25.6 16 -2.5
v 25.6 16 -2.6
v 25.6 15.9 -2.6
v 25.5 15.9 -2.6
v 25.5 16 -2.6
v 25.7 16 -2.5
v 25.7 15.9 -2.5
v 25.7 15.9 -2.6
v 25.7 16 -2.6
v 25.6 15.9 -2.5
v 25.6 15.9 -2.6
v 25.7 15.9 -2.6
v 25.7 15.9 -2.5
v 25.6 16 -2.5
v 25.6 15.9 -2.5
v 25.7 15.9 -2.5
v 25.7 16 -2.5
v 25.7 16 -2.6
v 25.7 15.9 -2.6
v 25.6 15.9 -2.6
v 25.6 16 -2.6
v 24.6 15.9 -2.6
v 24.6 15.8 -2.6
v 24.6 15.8 -2.5
v 24.6 15.9 -2.5
v 24.6 15.9 -2.6
v 24.6 15.9 -2.5
v 24.7 15.9 -2.5
v 24.7 15.9 -2.6
v 24.6 15.9 -2.5
v 24.6 15.8 -2.5
v 24.7 15.8 -2.5
v 24.7 15.9 -2.5
v 24.7 15.9 -2.6
v 24.7 15.8 -2.6
v 24.6 15.8 -2.6
v 24.6 15.9 -2.6
v 24.7 15.9 -2.5
v 24.7 15.8 -2.5
v 24.8 15.8 -2.5
v 24.8 15.9 -2.5
v 24.8 15.9 -2.6
v 24.8 15.8 -2.6
v 24.7 15.8 -2.6
v 24.7 15.9 -2.6
v 24.9 15.9 -2.5
v 24.9 15.8 -2.5
v 24.9 15.8 -2.6
v 24.9 15.9 -2.6
v 24.8 15.8 -2.5
v 24.8 15.8 -2.6
v 24.9 15.8 -2.6
v 24.9 15.8 -2.5
v 24.8 15.9 -2.5
v 24.8 15.8 -2.5
v 24.9 15.8 -2.5
v 24.9 15.9 -2.5
v 24.9 15.9 -2.6
v 24.9 15.8 -2.6
v 24.8 15.8 -2.6
v 24.8 15.9 -2.6
v 25.4 15.9 -2.6
v 25.4 15.8 -2.6
v 25.4 15.8 -2.5
v 25.4 15.9 -2.5
v 25.4 15.9 -2.6
v 25.4 15.9 -2.5
v 25.5 15.9 -2.5
v 25.5 15.9 -2.6
v 25.4 15.9 -2.5
v 25.4 15.8 -2.5
v 25.5 15.8 -2.5
v 25.5 15.9 -2.5
v 25.5 15.9 -2.6
v 25.5 15.8 -2.6
v 25.4 15.8 -2.6
v 25.4 15.9 -2.6
v 25.6 15.9 -2.5
v 25.6 15.8 -2.5
v 25.6 15.8 -2.6
v 25.6 15.9 -2.6
v 25.5 15.8 -2.5
v 25.5 15.8 -2.6
v 25.6 15.8 -2.6
v 25.6 15.8 -2.5
v 25.5 15.9 -2.5
v 25.5 15.8 -2.5
v 25.6 15.8 -2.5
v 25.6 15.9 -2.5
v 25.6 15.9 -2.6
v 25.6 15.8 -2.6
v 25.5 15.8 -2.6
v 25.5 15.9 -2.6
v 24.5 15.8 -2.6
v 24.5 15.7 -2.6
v 24.5 15.7 -2.5
v 24.5 15.8 -2.5
v 24.5 15.8 -2.6
v 24.5 15.8 -2.5
v 24.6 15.8 -2.5
v 24.6 15.8 -2.6
v 24.5 15.8 -2.5
v 24.5 15.7 -2.5
v 24.6 15.7 -2.5
v 24.6 15.8 -2.5
v 24.6 15.8 -2.6
v 24.6 15.7 -2.6
v 24.5 15.7 -2.6
v 24.5 15.8 -2.6
v 24.6 15.8 -2.5
v 24.6 15.7 -2.5
v 24.7 15.7 -2.5
v 24.7 15.8 -2.5
v 24.7 15.8 -2.6
v 24.7 15.7 -2.6
v 24.6 15.7 -2.6
v 24.6 15.8 -2.6
v 24.8 15.8 -2.5
v 24.8 15.7 -2.5
v 24.8 15.7 -2.6
v 24.8 15.8 -2.6
v 24.7 15.7 -2.5
v 24.7 15.7 -2.6
v 24.8 15.7 -2.6
v 24.8 15.7 -2.5
v 24.7 15.8 -2.5
v 24.7 15.7 -2.5
v 24.8 15.7 -2.5
v 24.8 15.8 -2.5
v 24.8 15.8 -2.6
v 24.8 15.7 -2.6
v 24.7 15.7 -2.6
v 24.7 15.8 -2.6
v 25.3 15.8 -2.6
v 25.3 15.7 -2.6
v 25.3 15.7 -2.5
v 25.3 15.8 -2.5
v 25.3 15.8 -2.6
v 25.3 15.8 -2.5
v 25.4 15.8 -2.5
v 25.4 15.8 -2.6
v 25.3 15.8 -2.5
v 25.3 15.7 -2.5
v 25.4 15.7 -2.5
v 25.4 15.8 -2.5
v 25.4 15.8 -2.6
v 25.4 15.7 -2.6
v 25.3 15.7 -2.6
v 25.3 15.8 -2.6
v 25.5 15.8 -2.5
v 25.5 15.7 -2.5
v 25.5 15.7 -2.6
v 25.5 15.8 -2.6
v 25.4 15.7 -2.5
v 25.4 15.7 -2.6
v 25.5 15.7 -2.6
v 25.5 15.7 -2.5
v 25.4 15.8 -2.5
v 25.4 15.7 -2.5
v 25.5 15.7 -2.5
v 25.5 15.8 -2.5
v 25.5 15.8 -2.6
v 25.5 15.7 -2.6
v 25.4 15.7 -2.6
v 25.4 15.8 -2.6
v 24.4 15.7 -2.6
v 24.4 15.6 -2.6
v 24.4 15.6 -2.5
v 24.4 15.7 -2.5
v 24.4 15.7 -2.6
v 24.4 15.7 -2.5
v 24.5 15.7 -2.5
v 24.5 15.7 -2.6
v 24.4 15.7 -2.5
v 24.4 15.6 -2.5
v 24.5 15.6 -2.5
v 24.5 15.7 -2.5
v 24.5 15.7 -2.6
v 24.5 15.6 -2.6
v 24.4 15.6 -2.6
v 24.4 15.7 -2.6
v 24.5 15.7 -2.5
v 24.5 15.6 -2.5
v 24.6 15.6 -2.5
v 24.6 15.7 -2.5
v 24.6 15.7 -2.6
v 24.6 15.6 -2.6
v 24.5 15.6 -2.6
v 24.5 15.7 -2.6
v 24.7 15.7 -2.5
v 24.7 15.6 -2.5
v 24.7 15.6 -2.6
v 24.7 15.7 -2.6
v 24.6 15.6 -2.5
v 24.6 15.6 -2.6
v 24.7 15.6 -2.6
v 24.7 15.6 -2.5
v 24.6 15.7 -2.5
v 24.6 15.6 -2.5
v 24.7 15.6 -2.5
v 24.7 15.7 -2.5
v 24.7 15.7 -2.6
v 24.7 15.6 -2.6
v 24.6 15.6 -2.6
v 24.6 15.7 -2.6
v 25.2 15.7 -2.6
v 25.2 15.6 -2.6
v 25.2 15.6 -2.5
v 25.2 15.7 -2.5
v 25.2 15.7 -2.6
v 25.2 15.7 -2.5
v 25.3 15.7 -2.5
v 25.3 15.7 -2.6
v 25.2 15.7 -2.5
v 25.2 15.6 -2.5
v 25.3 15.6 -2.5
v 25.3 15.7 -2.5
v 25.3 15.7 -2.6
v 25.3 15.6 -2.6
v 25.2 15.6 -2.6
v 25.2 15.7 -2.6
v 25.4 15.7 -2.5
v 25.4 15.6 -2.5
v 25.4 15.6 -2.6
v 25.4 15.7 -2.6
v 25.3 15.6 -2.5
v 25.3 15.6 -2.6
v 25.4 15.6 -2.6
v 25.4 15.6 -2.5
v 25.3 15.7 -2.5
v 25.3 15.6 -2.5
v 25.4 15.6 -2.5
v 25.4 15.7 -2.5
v 25.4 15.7 -2.6
v 25.4 15.6 -2.6
v 25.3 15.6 -2.6
v 25.3 15.7 -2.6
v 24.3 15.6 -2.6
v 24.3 15.5 -2.6
v 24.3 15.5 -2.5
v 24.3 15.6 -2.5
v 24.3 15.6 -2.6
v 24.3 15.6 -2.5
v 24.4 15.6 -2.5
v 24.4 15.6 -2.6
v 24.3 15.6 -2.5
v 24.3 15.5 -2.5
v 24.4 15.5 -2.5
v 24.4 15.6 -2.5
v 24.4 15.6 -2.6
v 24.4 15.5 -2.6
v 24.3 15.5 -2.6
v 24.3 15.6 -2.6
v 24.4 15.6 -2.5
v 24.4 15.5 -2.5
v 24.5 15.5 -2.5
v 24.5 15.6 -2.5
v 24.5 15.6 -2.6
v 24.5 15.5 -2.6
v 24.4 15.5 -2.6
v 24.4 15.6 -2.6
v 24.6 15.6 -2.5
v 24.6 15.5 -2.5
v 24.6 15.5 -2.6
v 24.6 15.6 -2.6
v 24.5 15.5 -2.5
v 24.5 15.5 -2.6
v 24.6 15.5 -2.6
v 24.6 15.5 -2.5
v 24.5 15.6 -2.5
v 24.5 15.5 -2.5
v 24.6 15.5 -2.5
v 24.6 15.6 -2.5
v 24.6 15.6 -2.6
v 24.6 15.5 -2.6
v 24.5 15.5 -2.6
v 24.5 15.6 -2.6
v 25.1 15.6 -2.6
v 25.1 15.5 -2.6
v 25.1 15.5 -2.5
v 25.1 15.6 -2.5
v 25.1 15.6 -2.6
v 25.1 15.6 -2.5
v 25.2 15.6 -2.5
v 25.2 15.6 -2.6
v 25.1 15.6 -2.5
v 25.1 15.5 -2.5
v 25.2 15.5 -2.5
v 25.2 15.6 -2.5
v 25.2 15.6 -2.6
v 25.2 15.5 -2.6
v 25.1 15.5 -2.6
v 25.1 15.6 -2.6
v 25.3 15.6 -2.5
v 25.3 15.5 -2.5
v 25.3 15.5 -2.6
v 25.3 15.6 -2.6
v 25.2 15.5 -2.5
v 25.2 15.5 -2.6
v 25.3 15.5 -2.6
v 25.3 15.5 -2.5
v 25.2 15.6 -2.5
v 25.2 15.5 -2.5
v 25.3 15.5 -2.5
v 25.3 15.6 -2.5
v 25.3 15.6 -2.6
v 25.3 15.5 -2.6
v 25.2 15.5 -2.6
v 25.2 15.6 -2.6
v 24.2 15.5 -2.6
v 24.2 15.4 -2.6
v 24.2 15.4 -2.5
v 24.2 15.5 -2.5
v 24.2 15.5 -2.6
v 24.2 15.5 -2.5
v 24.3 15.5 -2.5
v 24.3 15.5 -2.6
v 24.2 15.5 -2.5
v 24.2 15.4 -2.5
v 24.3 15.4 -2.5
v 24.3 15.5 -2.5
v 24.3 15.5 -2.6
v 24.3 15.4 -2.6
v 24.2 15.4 -2.6
v 24.2 15.5 -2.6
v 24.3 15.5 -2.5
v 24.3 15.4 -2.5
v 24.4 15.4 -2.5
v 24.4 15.5 -2.5
v 24.4 15.5 -2.6
v 24.4 15.4 -2.6
v 24.3 15.4 -2.6
v 24.3 15.5 -2.6
v 24.5 15.5 -2.5
v 24.5 15.4 -2.5
v 24.5 15.4 -2.6
v 24.5 15.5 -2.6
v 24.4 15.4 -2.5
v 24.4 15.4 -2.6
v 24.5 15.4 -2.6
v 24.5 15.4 -2.5
v 24.4 15.5 -2.5
v 24.4 15.4 -2.5
v 24.5 15.4 -2.5
v 24.5 15.5 -2.5
v 24.5 15.5 -2.6
v 24.5 15.4 -2.6
v 24.4 15.4 -2.6
v 24.4 15.5 -2.6
v 25 15.5 -2.6
v 25 15.4 -2.6
v 25 15.4 -2.5
v 25 15.5 -2.5
v 25 15.5 -2.6
v 25 15.5 -2.5
v 25.1 15.5 -2.5
v 25.1 15.5 -2.6
v 25 15.5 -2.5
v 25 15.4 -2.5
v 25.1 15.4 -2.5
v 25.1 15.5 -2.5
v 25.1 15.5 -2.6
v 25.1 15.4 -2.6
v 25 15.4 -2.6
v 25 15.5 -2.6
v 25.2 15.5 -2.5
v 25.2 15.4 -2.5
v 25.2 15.4 -2.6
v 25.2 15.5 -2.6
v 25.1 15.4 -2.5
v 25.1 15.4 -2.6
v 25.2 15.4 -2.6
v 25.2 15.4 -2.5
v 25.1 15.5 -2.5
v 25.1 15.4 -2.5
v 25.2 15.4 -2.5
v 25.2 15.5 -2.5
v 25.2 15.5 -2.6
v 25.2 15.4 -2.6
v 25.1 15.4 -2.6
v 25.1 15.5 -2.6
v 24.1 15.4 -2.6
v 24.1 15.3 -2.6
v 24.1 15.3 -2.5
v 24.1 15.4 -2.5
v 24.1 15.4 -2.6
v 24.1 15.4 -2.5
v 24.2 15.4 -2.5
v 24.2 15.4 -2.6
v 24.1 15.4 -2.5
v 24.1 15.3 -2.5
v 24.2 15.3 -2.5
v 24.2 15.4 -2.5
v 24.2 15.4 -2.6
v 24.2 15.3 -2.6
v 24.1 15.3 -2.6
v 24.1 15.4 -2.6
v 24.2 15.4 -2.5
v 24.2 15.3 -2.5
v 24.3 15.3 -2.5
v 24.3 15.4 -2.5
v 24.3 15.4 -2.6
v 24.3 15.3 -2.6
v 24.2 15.3 -2.6
v 24.2 15.4 -2.6
v 24.4 15.4 -2.5
v 24.4 15.3 -2.5
v 24.4 15.3 -2.6
v 24.4 15.4 -2.6
v 24.3 15.3 -2.5
v 24.3 15.3 -2.6
v 24.4 15.3 -2.6
v 24.4 15.3 -2.5
v 24.3 15.4 -2.5
v 24.3 15.3 -2.5
v 24.4 15.3 -2.5
v 24.4 15.4 -2.5
v 24.4 15.4 -2.6
v 24.4 15.3 -2.6
v 24.3 15.3 -2.6
v 24.3 15.4 -2.6
v 24.9 15.4 -2.6
v 24.9 15.3 -2.6
v 24.9 15.3 -2.5
v 24.9 15.4 -2.5
v 24.9 15.4 -2.6
v 24.9 15.4 -2.5
v 25 15.4 -2.5
v 25 15.4 -2.6
v 24.9 15.4 -2.5
v 24.9 15.3 -2.5
v 25 15.3 -2.5
v 25 15.4 -2.5
v 25 15.4 -2.6
v 25 15.3 -2.6
v 24.9 15.3 -2.6
v 24.9 15.4 -2.6
v 25.1 15.4 -2.5
v 25.1 15.3 -2.5
v 25.1 15.3 -2.6
v 25.1 15.4 -2.6
v 25 15.3 -2.5
v 25 15.3 -2.6
v 25.1 15.3 -2.6
v 25.1 15.3 -2.5
v 25 15.4 -2.5
v 25 15.3 -2.5
v 25.1 15.3 -2.5
v 25.1 15.4 -2.5
v 25.1 15.4 -2.6
v 25.1 15.3 -2.6
v 25 15.3 -2.6
v 25 15.4 -2.6
v 24 15.3 -2.6
v 24 15.2 -2.6
v 24 15.2 -2.5
v 24 15.3 -2.5
v 24 15.3 -2.6
v 24 15.3 -2.5
v 24.1 15.3 -2.5
v 24.1 15.3 -2.6
v 24 15.3 -2.5
v 24 15.2 -2.5
v 24.1 15.2 -2.5
v 24.1 15.3 -2.5
v 24.1 15.3 -2.6
v 24.1 15.2 -2.6
v 24 15.2 -2.6
v 24 15.3 -2.6
v 24.1 15.3 -2.5
v 24.1 15.2 -2.5
v 24.2 15.2 -2.5
v 24.2 15.3 -2.5
v 24.2 15.3 -2.6
v 24.2 15.2 -2.6
v 24.1 15.2 -2.6
v 24.1 15.3 -2.6
v 24.3 15.3 -2.5
v 24.3 15.2 -2.5
v 24.3 15.2 -2.6
v 24.3 15.3 -2.6
v 24.2 15.2 -2.5
v 24.2 15.2 -2.6
v 24.3 15.2 -2.6
v 24.3 15.2 -2.5
v 24.2 15.3 -2.5
v 24.2 15.2 -2.5
v 24.3 15.2 -2.5
v 24.3 15.3 -2.5
v 24.3 15.3 -2.6
v 24.3 15.2 -2.6
v 24.2 15.2 -2.6
v 24.2 15.3 -2.6
v 24.8 15.3 -2.6
v 24.8 15.2 -2.6
v 24.8 15.2 -2.5
v 24.8 15.3 -2.5
v 24.8 15.3 -2.6
v 24.8 15.3 -2.5
v 24.9 15.3 -2.5
v 24.9 15.3 -2.6
v 24.8 15.3 -2.5
v 24.8 15.2 -2.5
v 24.9 15.2 -2.5
v 24.9 15.3 -2.5
v 24.9 15.3 -2.6
v 24.9 15.2 -2.6
v 24.8 15.2 -2.6
v 24.8 15.3 -2.6
v 25 15.3 -2.5
v 25 15.2 -2.5
v 25 15.2 -2.6
v 25 15.3 -2.6
v 24.9 15.2 -2.5
v 24.9 15.2 -2.6
v 25 15.2 -2.6
v 25 15.2 -2.5
v 24.9 15.3 -2.5
v 24.9 15.2 -2.5
v 25 15.2 -2.5
v 25 15.3 -2.5
v 25 15.3 -2.6
v 25 15.2 -2.6
v 24.9 15.2 -2.6
v 24.9 15.3 -2.6
v 23.9 15.2 -2.6
v 23.9 15.1 -2.6
v 23.9 15.1 -2.5
v 23.9 15.2 -2.5
v 23.9 15.2 -2.6
v 23.9 15.2 -2.5
v 24 15.2 -2.5
v 24 15.2 -2.6
v 23.9 15.1 -2.5
v 23.9 15.1 -2.6
v 24 15.1 -2.6
v 24 15.1 -2.5
v 23.9 15.2 -2.5
v 23.9 15.1 -2.5
v 24 15.1 -2.5
v 24 15.2 -2.5
v 24 15.2 -2.6
v 24 15.1 -2.6
v 23.9 15.1 -2.6
v 23.9 15.2 -2.6
v 24 15.1 -2.5
v 24 15.1 -2.6
v 24.1 15.1 -2.6
v 24.1 15.1 -2.5
v 24 15.2 -2.5
v 24 15.1 -2.5
v 24.1 15.1 -2.5
v 24.1 15.2 -2.5
v 24.1 15.2 -2.6
v 24.1 15.1 -2.6
v 24 15.1 -2.6
v 24 15.2 -2.6
v 24.2 15.2 -2.5
v 24.2 15.1 -2.5
v 24.2 15.1 -2.6
v 24.2 15.2 -2.6
v 24.1 15.1 -2.5
v 24.1 15.1 -2.6
v 24.2 15.1 -2.6
v 24.2 15.1 -2.5
v 24.1 15.2 -2.5
v 24.1 15.1 -2.5
v 24.2 15.1 -2.5
v 24.2 15.2 -2.5
v 24.2 15.2 -2.6
v 24.2 15.1 -2.6
v 24.1 15.1 -2.6
v 24.1 15.2 -2.6
v 24.7 15.2 -2.6
v 24.7 15.1 -2.6
v 24.7 15.1 -2.5
v 24.7 15.2 -2.5
v 24.7 15.2 -2.6
v 24.7 15.2 -2.5
v 24.8 15.2 -2.5
v 24.8 15.2 -2.6
v 24.7 15.2 -2.5
v 24.7 15.1 -2.5
v 24.8 15.1 -2.5
v 24.8 15.2 -2.5
v 24.8 15.2 -2.6
v 24.8 15.1 -2.6
v 24.7 15.1 -2.6
v 24.7 15.2 -2.6
v 24.9 15.2 -2.5
v 24.9 15.1 -2.5
v 24.9 15.1 -2.6
v 24.9 15.2 -2.6
v 24.8 15.1 -2.5
v 24.8 15.1 -2.6
v 24.9 15.1 -2.6
v 24.9 15.1 -2.5
v 24.8 15.2 -2.5
v 24.8 15.1 -2.5
v 24.9 15.1 -2.5
v 24.9 15.2 -2.5
v 24.9 15.2 -2.6
v 24.9 15.1 -2.6
v 24.8 15.1 -2.6
v 24.8 15.2 -2.6
v 23.8 15.1 -2.6
v 23.8 15 -2.6
v 23.8 15 -2.5
v 23.8 15.1 -2.5
v 23.9 15.1 -2.5
v 23.9 15 -2.5
v 23.9 15 -2.6
v 23.9 15.1 -2.6
v 23.8 15.1 -2.6
v 23.8 15.1 -2.5
v 23.9 15.1 -2.5
v 23.9 15.1 -2.6
v 23.8 15 -2.5
v 23.8 15 -2.6
v 23.9 15 -2.6
v 23.9 15 -2.5
v 23.8 15.1 -2.5
v 23.8 15 -2.5
v 23.9 15 -2.5
v 23.9 15.1 -2.5
v 23.9 15.1 -2.6
v 23.9 15 -2.6
v 23.8 15 -2.6
v 23.8 15.1 -2.6
v 24.6 15.1 -2.6
v 24.6 15 -2.6
v 24.6 15 -2.5
v 24.6 15.1 -2.5
v 24.6 15.1 -2.6
v 24.6 15.1 -2.5
v 24.7 15.1 -2.5
v 24.7 15.1 -2.6
v 24.6 15.1 -2.5
v 24.6 15 -2.5
v 24.7 15 -2.5
v 24.7 15.1 -2.5
v 24.7 15.1 -2.6
v 24.7 15 -2.6
v 24.6 15 -2.6
v 24.6 15.1 -2.6
v 24.8 15.1 -2.5
v 24.8 15 -2.5
v 24.8 15 -2.6
v 24.8 15.1 -2.6
v 24.7 15 -2.5
v 24.7 15 -2.6
v 24.8 15 -2.6
v 24.8 15 -2.5
v 24.7 15.1 -2.5
v 24.7 15 -2.5
v 24.8 15 -2.5
v 24.8 15.1 -2.5
v 24.8 15.1 -2.6
v 24.8 15 -2.6
v 24.7 15 -2.6
v 24.7 15.1 -2.6
v 24.5 15 -2.6
v 24.5 14.9 -2.6
v 24.5 14.9 -2.5
v 24.5 15 -2.5
v 24.5 15 -2.6
v 24.5 15 -2.5
v 24.6 15 -2.5
v 24.6 15 -2.6
v 24.5 15 -2.5
v 24.5 14.9 -2.5
v 24.6 14.9 -2.5
v 24.6 15 -2.5
v 24.6 15 -2.6
v 24.6 14.9 -2.6
v 24.5 14.9 -2.6
v 24.5 15 -2.6
v 24.7 15 -2.5
v 24.7 14.9 -2.5
v 24.7 14.9 -2.6
v 24.7 15 -2.6
v 24.6 14.9 -2.5
v 24.6 14.9 -2.6
v 24.7 14.9 -2.6
v 24.7 14.9 -2.5
v 24.6 15 -2.5
v 24.6 14.9 -2.5
v 24.7 14.9 -2.5
v 24.7 15 -2.5
v 24.7 15 -2.6
v 24.7 14.9 -2.6
v 24.6 14.9 -2.6
v 24.6 15 -2.6
v 24.4 14.9 -2.6
v 24.4 14.8 -2.6
v 24.4 14.8 -2.5
v 24.4 14.9 -2.5
v 24.4 14.9 -2.6
v 24.4 14.9 -2.5
v 24.5 14.9 -2.5
v 24.5 14.9 -2.6
v 24.4 14.9 -2.5
v 24.4 14.8 -2.5
v 24.5 14.8 -2.5
v 24.5 14.9 -2.5
v 24.5 14.9 -2.6
v 24.5 14.8 -2.6
v 24.4 14.8 -2.6
v 24.4 14.9 -2.6
v 24.6 14.9 -2.5
v 24.6 14.8 -2.5
v 24.6 14.8 -2.6
v 24.6 14.9 -2.6
v 24.5 14.8 -2.5
v 24.5 14.8 -2.6
v 24.6 14.8 -2.6
v 24.6 14.8 -2.5
v 24.5 14.9 -2.5
v 24.5 14.8 -2.5
v 24.6 14.8 -2.5
v 24.6 14.9 -2.5
v 24.6 14.9 -2.6
v 24.6 14.8 -2.6
v 24.5 14.8 -2.6
v 24.5 14.9 -2.6
v 24.4 14.8 -2.6
v 24.4 14.7 -2.6
v 24.4 14.7 -2.5
v 24.4 14.8 -2.5
v 24.5 14.8 -2.5
v 24.5 14.7 -2.5
v 24.5 14.7 -2.6
v 24.5 14.8 -2.6
v 24.4 14.7 -2.5
v 24.4 14.7 -2.6
v 24.5 14.7 -2.6
v 24.5 14.7 -2.5
v 24.4 14.8 -2.5
v 24.4 14.7 -2.5
v 24.5 14.7 -2.5
v 24.5 14.8 -2.5
v 24.5 14.8 -2.6
v 24.5 14.7 -2.6
v 24.4 14.7 -2.6
v 24.4 14.8 -2.6
v 24.3 14.7 -2.6
v 24.3 14.6 -2.6
v 24.3 14.6 -2.5
v 24.3 14.7 -2.5
v 24.4 14.7 -2.5
v 24.4 14.6 -2.5
v 24.4 14.6 -2.6
v 24.4 14.7 -2.6
v 24.3 14.7 -2.6
v 24.3 14.7 -2.5
v 24.4 14.7 -2.5
v 24.4 14.7 -2.6
v 24.3 14.6 -2.5
v 24.3 14.6 -2.6
v 24.4 14.6 -2.6
v 24.4 14.6 -2.5
v 24.3 14.7 -2.5
v 24.3 14.6 -2.5
v 24.4 14.6 -2.5
v 24.4 14.7 -2.5
v 24.4 14.7 -2.6
v 24.4 14.6 -2.6
v 24.3 14.6 -2.6
v 24.3 14.7 -2.6
v 24.2 12.1 -2.6
v 24.2 12 -2.6
v 24.2 12 -2.5
v 24.2 12.1 -2.5
v 24.3 12.1 -2.5
v 24.3 12 -2.5
v 24.3 12 -2.6
v 24.3 12.1 -2.6
v 24.2 12.1 -2.6
v 24.2 12.1 -2.5
v 24.3 12.1 -2.5
v 24.3 12.1 -2.6
v 24.2 12 -2.5
v 24.2 12 -2.6
v 24.3 12 -2.6
v 24.3 12 -2.5
v 24.2 12.1 -2.5
v 24.2 12 -2.5
v 24.3 12 -2.5
v 24.3 12.1 -2.5
v 24.3 12.1 -2.6
v 24.3 12 -2.6
v 24.2 12 -2.6
v 24.2 12.1 -2.6
v 24.5 12 -2.6
v 24.5 11.9 -2.6
v 24.5 11.9 -2.5
v 24.5 12 -2.5
v 24.6 12 -2.5
v 24.6 11.9 -2.5
v 24.6 11.9 -2.6
v 24.6 12 -2.6
v 24.5 12 -2.6
v 24.5 12 -2.5
v 24.6 12 -2.5
v 24.6 12 -2.6
v 24.5 12 -2.5
v 24.5 11.9 -2.5
v 24.6 11.9 -2.5
v 24.6 12 -2.5
v 24.6 12 -2.6
v 24.6 11.9 -2.6
v 24.5 11.9 -2.6
v 24.5 12 -2.6
v 24.5 11.9 -2.6
v 24.5 11.8 -2.6
v 24.5 11.8 -2.5
v 24.5 11.9 -2.5
v 24.5 11.9 -2.5
v 24.5 11.8 -2.5
v 24.6 11.8 -2.5
v 24.6 11.9 -2.5
v 24.6 11.9 -2.6
v 24.6 11.8 -2.6
v 24.5 11.8 -2.6
v 24.5 11.9 -2.6
v 24.6 11.9 -2.6
v 24.6 11.9 -2.5
v 24.7 11.9 -2.5
v 24.7 11.9 -2.6
v 24.6 11.9 -2.5
v 24.6 11.8 -2.5
v 24.7 11.8 -2.5
v 24.7 11.9 -2.5
v 24.7 11.9 -2.6
v 24.7 11.8 -2.6
v 24.6 11.8 -2.6
v 24.6 11.9 -2.6
v 24.8 11.9 -2.5
v 24.8 11.8 -2.5
v 24.8 11.8 -2.6
v 24.8 11.9 -2.6
v 24.7 11.9 -2.6
v 24.7 11.9 -2.5
v 24.8 11.9 -2.5
v 24.8 11.9 -2.6
v 24.7 11.9 -2.5
v 24.7 11.8 -2.5
v 24.8 11.8 -2.5
v 24.8 11.9 -2.5
v 24.8 11.9 -2.6
v 24.8 11.8 -2.6
v 24.7 11.8 -2.6
v 24.7 11.9 -2.6
v 24.5 11.8 -2.6
v 24.5 11.7 -2.6
v 24.5 11.7 -2.5
v 24.5 11.8 -2.5
v 24.5 11.8 -2.5
v 24.5 11.7 -2.5
v 24.6 11.7 -2.5
v 24.6 11.8 -2.5
v 24.6 11.8 -2.6
v 24.6 11.7 -2.6
v 24.5 11.7 -2.6
v 24.5 11.8 -2.6
v 24.6 11.8 -2.5
v 24.6 11.7 -2.5
v 24.7 11.7 -2.5
v 24.7 11.8 -2.5
v 24.7 11.8 -2.6
v 24.7 11.7 -2.6
v 24.6 11.7 -2.6
v 24.6 11.8 -2.6
v 24.8 11.8 -2.5
v 24.8 11.7 -2.5
v 24.8 11.7 -2.6
v 24.8 11.8 -2.6
v 24.7 11.8 -2.5
v 24.7 11.7 -2.5
v 24.8 11.7 -2.5
v 24.8 11.8 -2.5
v 24.8 11.8 -2.6
v 24.8 11.7 -2.6
v 24.7 11.7 -2.6
v 24.7 11.8 -2.6
v 24.2 11.7 -2.6
v 24.2 11.6 -2.6
v 24.2 11.6 -2.5
v 24.2 11.7 -2.5
v 24.3 11.7 -2.5
v 24.3 11.6 -2.5
v 24.3 11.6 -2.6
v 24.3 11.7 -2.6
v 24.2 11.7 -2.6
v 24.2 11.7 -2.5
v 24.3 11.7 -2.5
v 24.3 11.7 -2.6
v 24.2 11.6 -2.5
v 24.2 11.6 -2.6
v 24.3 11.6 -2.6
v 24.3 11.6 -2.5
v 24.2 11.7 -2.5
v 24.2 11.6 -2.5
v 24.3 11.6 -2.5
v 24.3 11.7 -2.5
v 24.3 11.7 -2.6
v 24.3 11.6 -2.6
v 24.2 11.6 -2.6
v 24.2 11.7 -2.6
v 24.5 11.7 -2.6
v 24.5 11.6 -2.6
v 24.5 11.6 -2.5
v 24.5 11.7 -2.5
v 24.5 11.7 -2.5
v 24.5 11.6 -2.5
v 24.6 11.6 -2.5
v 24.6 11.7 -2.5
v 24.6 11.7 -2.6
v 24.6 11.6 -2.6
v 24.5 11.6 -2.6
v 24.5 11.7 -2.6
v 24.6 11.7 -2.5
v 24.6 11.6 -2.5
v 24.7 11.6 -2.5
v 24.7 11.7 -2.5
v 24.7 11.7 -2.6
v 24.7 11.6 -2.6
v 24.6 11.6 -2.6
v 24.6 11.7 -2.6
v 24.7 11.7 -2.5
v 24.7 11.6 -2.5
v 24.8 11.6 -2.5
v 24.8 11.7 -2.5
v 24.8 11.7 -2.6
v 24.8 11.6 -2.6
v 24.7 11.6 -2.6
v 24.7 11.7 -2.6
v 24.9 11.7 -2.5
v 24.9 11.6 -2.5
v 24.9 11.6 -2.6
v 24.9 11.7 -2.6
v 24.8 11.7 -2.6
v 24.8 11.7 -2.5
v 24.9 11.7 -2.5
v 24.9 11.7 -2.6
v 24.8 11.6 -2.5
v 24.8 11.6 -2.6
v 24.9 11.6 -2.6
v 24.9 11.6 -2.5
v 24.8 11.7 -2.5
v 24.8 11.6 -2.5
v 24.9 11.6 -2.5
v 24.9 11.7 -2.5
v 24.9 11.7 -2.6
v 24.9 11.6 -2.6
v 24.8 11.6 -2.6
v 24.8 11.7 -2.6
v 24.3 11.6 -2.6
v 24.3 11.5 -2.6
v 24.3 11.5 -2.5
v 24.3 11.6 -2.5
v 24.3 11.6 -2.6
v 24.3 11.6 -2.5
v 24.4 11.6 -2.5
v 24.4 11.6 -2.6
v 24.3 11.5 -2.5
v 24.3 11.5 -2.6
v 24.4 11.5 -2.6
v 24.4 11.5 -2.5
v 24.3 11.6 -2.5
v 24.3 11.5 -2.5
v 24.4 11.5 -2.5
v 24.4 11.6 -2.5
v 24.4 11.6 -2.6
v 24.4 11.5 -2.6
v 24.3 11.5 -2.6
v 24.3 11.6 -2.6
v 24.4 11.6 -2.6
v 24.4 11.6 -2.5
v 24.5 11.6 -2.5
v 24.5 11.6 -2.6
v 24.4 11.6 -2.5
v 24.4 11.5 -2.5
v 24.5 11.5 -2.5
v 24.5 11.6 -2.5
v 24.5 11.6 -2.6
v 24.5 11.5 -2.6
v 24.4 11.5 -2.6
v 24.4 11.6 -2.6
v 24.5 11.5 -2.5
v 24.5 11.5 -2.6
v 24.6 11.5 -2.6
v 24.6 11.5 -2.5
v 24.5 11.6 -2.5
v 24.5 11.5 -2.5
v 24.6 11.5 -2.5
v 24.6 11.6 -2.5
v 24.6 11.6 -2.6
v 24.6 11.5 -2.6
v 24.5 11.5 -2.6
v 24.5 11.6 -2.6
v 24.6 11.5 -2.5
v 24.6 11.5 -2.6
v 24.7 11.5 -2.6
v 24.7 11.5 -2.5
v 24.6 11.6 -2.5
v 24.6 11.5 -2.5
v 24.7 11.5 -2.5
v 24.7 11.6 -2.5
v 24.7 11.6 -2.6
v 24.7 11.5 -2.6
v 24.6 11.5 -2.6
v 24.6 11.6 -2.6
v 24.8 11.6 -2.5
v 24.8 11.5 -2.5
v 24.8 11.5 -2.6
v 24.8 11.6 -2.6
v 24.7 11.5 -2.5
v 24.7 11.5 -2.6
v 24.8 11.5 -2.6
v 24.8 11.5 -2.5
v 24.7 11.6 -2.5
v 24.7 11.5 -2.5
v 24.8 11.5 -2.5
v 24.8 11.6 -2.5
v 24.8 11.6 -2.6
v 24.8 11.5 -2.6
v 24.7 11.5 -2.6
v 24.7 11.6 -2.6
v 24.4 11.5 -2.6
v 24.4 11.4 -2.6
v 24.4 11.4 -2.5
v 24.4 11.5 -2.5
v 24.5 11.5 -2.5
v 24.5 11.4 -2.5
v 24.5 11.4 -2.6
v 24.5 11.5 -2.6
v 24.4 11.4 -2.5
v 24.4 11.4 -2.6
v 24.5 11.4 -2.6
v 24.5 11.4 -2.5
v 24.4 11.5 -2.5
v 24.4 11.4 -2.5
v 24.5 11.4 -2.5
v 24.5 11.5 -2.5
v 24.5 11.5 -2.6
v 24.5 11.4 -2.6
v 24.4 11.4 -2.6
v 24.4 11.5 -2.6

# faces
f 1/1/1 2/1/1 3/1/1 4/1/1
f 5/1/2 6/1/2 7/1/2 8/1/2
f 9/1/3 10/1/3 11/1/3 12/1/3
f 13/1/4 14/1/4 15/1/4 16/1/4
f 17/1/5 18/1/5 19/1/5 20/1/5
f 21/1/6 22/1/6 23/1/6 24/1/6
f 25/1/1 26/1/1 27/1/1 28/1/1
f 29/1/2 30/1/2 31/1/2 32/1/2
f 33/1/3 34/1/3 35/1/3 36/1/3
f 37/1/4 38/1/4 39/1/4 40/1/4
f 41/1/5 42/1/5 43/1/5 44/1/5
f 45/1/6 46/1/6 47/1/6 48/1/6
f 49/1/1 50/1/1 51/1/1 52/1/1
f 53/1/2 54/1/2 55/1/2 56/1/2
f 57/1/3 58/1/3 59/1/3 60/1/3
f 61/1/4 62/1/4 63/1/4 64/1/4
f 65/1/5 66/1/5 67/1/5 68/1/5
f 69/1/6 70/1/6 71/1/6 72/1/6
f 73/1/1 74/1/1 75/1/1 76/1/1
f 77/1/2 78/1/2 79/1/2 80/1/2
f 81/1/3 82/1/3 83/1/3 84/1/3
f 85/1/4 86/1/4 87/1/4 88/1/4
f 89/1/5 90/1/5 91/1/5 92/1/5
f 93/1/6 94/1/6 95/1/6 96/1/6
f 97/1/1 98/1/1 99/1/1 100/1/1
f 101/1/2 102/1/2 103/1/2 104/1/2
f 105/1/3 106/1/3 107/1/3 108/1/3
f 109/1/4 110/1/4 111/1/4 112/1/4
f 113/1/5 114/1/5 115/1/5 116/1/5
f 117/1/6 118/1/6 119/1/6 120/1/6
f 121/1/1 122/1/1 123/1/1 124/1/1
f 125/1/2 126/1/2 127/1/2 128/1/2
f 129/1/3 130/1/3 131/1/3 132/1/3
f 133/1/4 134/1/4 135/1/4 136/1/4
f 137/1/5 138/1/5 139/1/5 140/1/5
f 141/1/6 142/1/6 143/1/6 144/1/6
f 145/1/1 146/1/1 147/1/1 148/1/1
f 149/1/2 150/1/2 151/1/2 152/1/2
f 153/1/3 154/1/3 155/1/3 156/1/3
f 157/1/4 158/1/4 159/1/4 160/1/4
f 161/1/5 162/1/5 163/1/5 164/1/5
f 165/1/6 166/1/6 167/1/6 168/1/6
f 169/1/1 170/1/1 171/1/1 172/1/1
f 173/1/2 174/1/2 175/1/2 176/1/2
f 177/1/3 178/1/3 179/1/3 180/1/3
f 181/1/4 182/1/4 183/1/4 184/1/4
f 185/1/5 186/1/5 187/1/5 188/1/5
f 189/1/6 190/1/6 191/1/6 192/1/6
f 193/1/1 194/1/1 195/1/1 196/1/1
f 197/1/2 198/1/2 199/1/2 200/1/2
f 201/1/3 202/1/3 203/1/3 204/1/3
f 205/1/4 206/1/4 207/1/4 208/1/4
f 209/1/5 210/1/5 211/1/5 212/1/5
f 213/1/6 214/1/6 215/1/6 216/1/6
f 217/1/1 218/1/1 219/1/1 220/1/1
f 221/1/3 222/1/3 223/1/3 224/1/3
f 225/1/5 226/1/5 227/1/5 228/1/5
f 229/1/6 230/1/6 231/1/6 232/1/6
f 233/1/2 234/1/2 235/1/2 236/1/2
f 237/1/3 238/1/3 239/1/3 240/1/3
f 241/1/4 242/1/4 243/1/4 244/1/4
f 245/1/5 246/1/5 247/1/5 248/1/5
f 249/1/6 250/1/6 251/1/6 252/1/6
f 253/1/1 254/1/1 255/1/1 256/1/1
f 257/1/3 258/1/3 259/1/3 260/1/3
f 261/1/5 262/1/5 263/1/5 264/1/5
f 265/1/6 266/1/6 267/1/6 268/1/6
f 269/1/3 270/1/3 271/1/3 272/1/3
f 273/1/5 274/1/5 275/1/5 276/1/5
f 277/1/6 278/1/6 279/1/6 280/1/6
f 281/1/2 282/1/2 283/1/2 284/1/2
f 285/1/4 286/1/4 287/1/4 288/1/4
f 289/1/5 290/1/5 291/1/5 292/1/5
f 293/1/6 294/1/6 295/1/6 296/1/6
f 297/1/1 298/1/1 299/1/1 300/1/1
f 301/1/3 302/1/3 303/1/3 304/1/3
f 305/1/5 306/1/5 307/1/5 308/1/5
f 309/1/6 310/1/6 311/1/6 312/1/6
f 313/1/5 314/1/5 315/1/5 316/1/5
f 317/1/6 318/1/6 319/1/6 320/1/6
f 321/1/2 322/1/2 323/1/2 324/1/2
f 325/1/4 326/1/4 327/1/4 328/1/4
f 329/1/5 330/1/5 331/1/5 332/1/5
f 333/1/6 334/1/6 335/1/6 336/1/6
f 337/1/1 338/1/1 339/1/1 340/1/1
f 341/1/3 342/1/3 343/1/3 344/1/3
f 345/1/5 346/1/5 347/1/5 348/1/5
f 349/1/6 350/1/6 351/1/6 352/1/6
f 353/1/5 354/1/5 355/1/5 356/1/5
f 357/1/6 358/1/6 359/1/6 360/1/6
f 361/1/2 362/1/2 363/1/2 364/1/2
f 365/1/4 366/1/4 367/1/4 368/1/4
f 369/1/5 370/1/5 371/1/5 372/1/5
f 373/1/6 374/1/6 375/1/6 376/1/6
f 377/1/1 378/1/1 379/1/1 380/1/1
f 381/1/2 382/1/2 383/1/2 384/1/2
f 385/1/3 386/1/3 387/1/3 388/1/3
f 389/1/4 390/1/4 391/1/4 392/1/4
f 393/1/5 394/1/5 395/1/5 396/1/5
f 397/1/6 398/1/6 399/1/6 400/1/6
f 401/1/1 402/1/1 403/1/1 404/1/1
f 405/1/3 406/1/3 407/1/3 408/1/3
f 409/1/5 410/1/5 411/1/5 412/1/5
f 413/1/6 414/1/6 415/1/6 416/1/6
f 417/1/5 418/1/5 419/1/5 420/1/5
f 421/1/6 422/1/6 423/1/6 424/1/6
f 425/1/2 426/1/2 427/1/2 428/1/2
f 429/1/4 430/1/4 431/1/4 432/1/4
f 433/1/5 434/1/5 435/1/5 436/1/5
f 437/1/6 438/1/6 439/1/6 440/1/6
f 441/1/1 442/1/1 443/1/1 444/1/1
f 445/1/2 446/1/2 447/1/2 448/1/2
f 449/1/3 450/1/3 451/1/3 452/1/3
f 453/1/5 454/1/5 455/1/5 456/1/5
f 457/1/6 458/1/6 459/1/6 460/1/6
f 461/1/1 462/1/1 463/1/1 464/1/1
f 465/1/3 466/1/3 467/1/3 468/1/3
f 469/1/5 470/1/5 471/1/5 472/1/5
f 473/1/6 474/1/6 475/1/6 476/1/6
f 477/1/5 478/1/5 479/1/5 480/1/5
f 481/1/6 482/1/6 483/1/6 484/1/6
f 485/1/2 486/1/2 487/1/2 488/1/2
f 489/1/4 490/1/4 491/1/4 492/1/4
f 493/1/5 494/1/5 495/1/5 496/1/5
f 497/1/6 498/1/6 499/1/6 500/1/6
f 501/1/1 502/1/1 503/1/1 504/1/1
f 505/1/3 506/1/3 507/1/3 508/1/3
f 509/1/5 510/1/5 511/1/5 512/1/5
f 513/1/6 514/1/6 515/1/6 516/1/6
f 517/1/2 518/1/2 519/1/2 520/1/2
f 521/1/4 522/1/4 523/1/4 524/1/4
f 525/1/5 526/1/5 527/1/5 528/1/5
f 529/1/6 530/1/6 531/1/6 532/1/6
f 533/1/1 534/1/1 535/1/1 536/1/1
f 537/1/3 538/1/3 539/1/3 540/1/3
f 541/1/5 542/1/5 543/1/5 544/1/5
f 545/1/6 546/1/6 547/1/6 548/1/6
f 549/1/5 550/1/5 551/1/5 552/1/5
f 553/1/6 554/1/6 555/1/6 556/1/6
f 557/1/2 558/1/2 559/1/2 560/1/2
f 561/1/4 562/1/4 563/1/4 564/1/4
f 565/1/5 566/1/5 567/1/5 568/1/5
f 569/1/6 570/1/6 571/1/6 572/1/6
f 573/1/1 574/1/1 575/1/1 576/1/1
f 577/1/3 578/1/3 579/1/3 580/1/3
f 581/1/5 582/1/5 583/1/5 584/1/5
f 585/1/6 586/1/6 587/1/6 588/1/6
f 589/1/2 590/1/2 591/1/2 592/1/2
f 593/1/4 594/1/4 595/1/4 596/1/4
f 597/1/5 598/1/5 599/1/5 600/1/5
f 601/1/6 602/1/6 603/1/6 604/1/6
f 605/1/1 606/1/1 607/1/1 608/1/1
f 609/1/3 610/1/3 611/1/3 612/1/3
f 613/1/5 614/1/5 615/1/5 616/1/5
f 617/1/6 618/1/6 619/1/6 620/1/6
f 621/1/5 622/1/5 623/1/5 624/1/5
f 625/1/6 626/1/6 627/1/6 628/1/6
f 629/1/2 630/1/2 631/1/2 632/1/2
f 633/1/4 634/1/4 635/1/4 636/1/4
f 637/1/5 638/1/5 639/1/5 640/1/5
f 641/1/6 642/1/6 643/1/6 644/1/6
f 645/1/1 646/1/1 647/1/1 648/1/1
f 649/1/3 650/1/3 651/1/3 652/1/3
f 653/1/5 654/1/5 655/1/5 656/1/5
f 657/1/6 658/1/6 659/1/6 660/1/6
f 661/1/2 662/1/2 663/1/2 664/1/2
f 665/1/4 666/1/4 667/1/4 668/1/4
f 669/1/5 670/1/5 671/1/5 672/1/5
f 673/1/6 674/1/6 675/1/6 676/1/6
f 677/1/1 678/1/1 679/1/1 680/1/1
f 681/1/3 682/1/3 683/1/3 684/1/3
f 685/1/5 686/1/5 687/1/5 688/1/5
f 689/1/6 690/1/6 691/1/6 692/1/6
f 693/1/5 694/1/5 695/1/5 696/1/5
f 697/1/6 698/1/6 699/1/6 700/1/6
f 701/1/2 702/1/2 703/1/2 704/1/2
f 705/1/4 706/1/4 707/1/4 708/1/4
f 709/1/5 710/1/5 711/1/5 712/1/5
f 713/1/6 714/1/6 715/1/6 716/1/6
f 717/1/1 718/1/1 719/1/1 720/1/1
f 721/1/3 722/1/3 723/1/3 724/1/3
f 725/1/5 726/1/5 727/1/5 728/1/5
f 729/1/6 730/1/6 731/1/6 732/1/6
f 733/1/2 734/1/2 735/1/2 736/1/2
f 737/1/4 738/1/4 739/1/4 740/1/4
f 741/1/5 742/1/5 743/1/5 744/1/5
f 745/1/6 746/1/6 747/1/6 748/1/6
f 749/1/1 750/1/1 751/1/1 752/1/1
f 753/1/3 754/1/3 755/1/3 756/1/3
f 757/1/5 758/1/5 759/1/5 760/1/5
f 761/1/6 762/1/6 763/1/6 764/1/6
f 765/1/5 766/1/5 767/1/5 768/1/5
f 769/1/6 770/1/6 771/1/6 772/1/6
f 773/1/2 774/1/2 775/1/2 776/1/2
f 777/1/4 778/1/4 779/1/4 780/1/4
f 781/1/5 782/1/5 783/1/5 784/1/5
f 785/1/6 786/1/6 787/1/6 788/1/6
f 789/1/1 790/1/1 791/1/1 792/1/1
f 793/1/3 794/1/3 795/1/3 796/1/3
f 797/1/5 798/1/5 799/1/5 800/1/5
f 801/1/6 802/1/6 803/1/6 804/1/6
f 805/1/2 806/1/2 807/1/2 808/1/2
f 809/1/4 810/1/4 811/1/4 812/1/4
f 813/1/5 814/1/5 815/1/5 816/1/5
f 817/1/6 818/1/6 819/1/6 820/1/6
f 821/1/1 822/1/1 823/1/1 824/1/1
f 825/1/3 826/1/3 827/1/3 828/1/3
f 829/1/5 830/1/5 831/1/5 832/1/5
f 833/1/6 834/1/6 835/1/6 836/1/6
f 837/1/5 838/1/5 839/1/5 840/1/5
f 841/1/6 842/1/6 843/1/6 844/1/6
f 845/1/2 846/1/2 847/1/2 848/1/2
f 849/1/4 850/1/4 851/1/4 852/1/4
f 853/1/5 854/1/5 855/1/5 856/1/5
f 857/1/6 858/1/6 859/1/6 860/1/6
f 861/1/1 862/1/1 863/1/1 864/1/1
f 865/1/3 866/1/3 867/1/3 868/1/3
f 869/1/5 870/1/5 871/1/5 872/1/5
f 873/1/6 874/1/6 875/1/6 876/1/6
f 877/1/2 878/1/2 879/1/2 880/1/2
f 881/1/4 882/1/4 883/1/4 884/1/4
f 885/1/5 886/1/5 887/1/5 888/1/5
f 889/1/6 890/1/6 891/1/6 892/1/6
f 893/1/1 894/1/1 895/1/1 896/1/1
f 897/1/3 898/1/3 899/1/3 900/1/3
f 901/1/5 902/1/5 903/1/5 904/1/5
f 905/1/6 906/1/6 907/1/6 908/1/6
f 909/1/5 910/1/5 911/1/5 912/1/5
f 913/1/6 914/1/6 915/1/6 916/1/6
f 917/1/2 918/1/2 919/1/2 920/1/2
f 921/1/4 922/1/4 923/1/4 924/1/4
f 925/1/5 926/1/5 927/1/5 928/1/5
f 929/1/6 930/1/6 931/1/6 932/1/6
f 933/1/1 934/1/1 935/1/1 936/1/1
f 937/1/3 938/1/3 939/1/3 940/1/3
f 941/1/5 942/1/5 943/1/5 944/1/5
f 945/1/6 946/1/6 947/1/6 948/1/6
f 949/1/2 950/1/2 951/1/2 952/1/2
f 953/1/4 954/1/4 955/1/4 956/1/4
f 957/1/5 958/1/5 959/1/5 960/1/5
f 961/1/6 962/1/6 963/1/6 964/1/6
f 965/1/1 966/1/1 967/1/1 968/1/1
f 969/1/3 970/1/3 971/1/3 972/1/3
f 973/1/5 974/1/5 975/1/5 976/1/5
f 977/1/6 978/1/6 979/1/6 980/1/6
f 981/1/5 982/1/5 983/1/5 984/1/5
f 985/1/6 986/1/6 987/1/6 988/1/6
f 989/1/2 990/1/2 991/1/2 992/1/2
f 993/1/4 994/1/4 995/1/4 996/1/4
f 997/1/5 998/1/5 999/1/5 1000/1/5
f 1001/1/6 1002/1/6 1003/1/6 1004/1/6
f 1005/1/1 1006/1/1 1007/1/1 1008/1/1
f 1009/1/3 1010/1/3 1011/1/3 1012/1/3
f 1013/1/5 1014/1/5 1015/1/5 1016/1/5
f 1017/1/6 1018/1/6 1019/1/6 1020/1/6
f 1021/1/2 1022/1/2 1023/1/2 1024/1/2
f 1025/1/4 1026/1/4 1027/1/4 1028/1/4
f 1029/1/5 1030/1/5 1031/1/5 1032/1/5
f 1033/1/6 1034/1/6 1035/1/6 1036/1/6
f 1037/1/1 1038/1/1 1039/1/1 1040/1/1
f 1041/1/3 1042/1/3 1043/1/3 1044/1/3
f 1045/1/5 1046/1/5 1047/1/5 1048/1/5
f 1049/1/6 1050/1/6 1051/1/6 1052/1/6
f 1053/1/5 1054/1/5 1055/1/5 1056/1/5
f 1057/1/6 1058/1/6 1059/1/6 1060/1/6
f 1061/1/2 1062/1/2 1063/1/2 1064/1/2
f 1065/1/4 1066/1/4 1067/1/4 1068/1/4
f 1069/1/5 1070/1/5 1071/1/5 1072/1/5
f 1073/1/6 1074/1/6 1075/1/6 1076/1/6
f 1077/1/1 1078/1/1 1079/1/1 1080/1/1
f 1081/1/3 1082/1/3 1083/1/3 1084/1/3
f 1085/1/5 1086/1/5 1087/1/5 1088/1/5
f 1089/1/6 1090/1/6 1091/1/6 1092/1/6
f 1093/1/2 1094/1/2 1095/1/2 1096/1/2
f 1097/1/4 1098/1/4 1099/1/4 1100/1/4
f 1101/1/5 1102/1/5 1103/1/5 1104/1/5
f 1105/1/6 1106/1/6 1107/1/6 1108/1/6
f 1109/1/1 1110/1/1 1111/1/1 1112/1/1
f 1113/1/3 1114/1/3 1115/1/3 1116/1/3
f 1117/1/5 1118/1/5 1119/1/5 1120/1/5
f 1121/1/6 1122/1/6 1123/1/6 1124/1/6
f 1125/1/5 1126/1/5 1127/1/5 1128/1/5
f 1129/1/6 1130/1/6 1131/1/6 1132/1/6
f 1133/1/2 1134/1/2 1135/1/2 1136/1/2
f 1137/1/4 1138/1/4 1139/1/4 1140/1/4
f 1141/1/5 1142/1/5 1143/1/5 1144/1/5
f 1145/1/6 1146/1/6 1147/1/6 1148/1/6
f 1149/1/1 1150/1/1 1151/1/1 1152/1/1
f 1153/1/3 1154/1/3 1155/1/3 1156/1/3
f 1157/1/5 1158/1/5 1159/1/5 1160/1/5
f 1161/1/6 1162/1/6 1163/1/6 1164/1/6
f 1165/1/2 1166/1/2 1167/1/2 1168/1/2
f 1169/1/4 1170/1/4 1171/1/4 1172/1/4
f 1173/1/5 1174/1/5 1175/1/5 1176/1/5
f 1177/1/6 1178/1/6 1179/1/6 1180/1/6
f 1181/1/1 1182/1/1 1183/1/1 1184/1/1
f 1185/1/3 1186/1/3 1187/1/3 1188/1/3
f 1189/1/5 1190/1/5 1191/1/5 1192/1/5
f 1193/1/6 1194/1/6 1195/1/6 1196/1/6
f 1197/1/5 1198/1/5 1199/1/5 1200/1/5
f 1201/1/6 1202/1/6 1203/1/6 1204/1/6
f 1205/1/2 1206/1/2 1207/1/2 1208/1/2
f 1209/1/4 1210/1/4 1211/1/4 1212/1/4
f 1213/1/5 1214/1/5 1215/1/5 1216/1/5
f 1217/1/6 1218/1/6 1219/1/6 1220/1/6
f 1221/1/1 1222/1/1 1223/1/1 1224/1/1
f 1225/1/3 1226/1/3 1227/1/3 1228/1/3
f 1229/1/5 1230/1/5 1231/1/5 1232/1/5
f 1233/1/6 1234/1/6 1235/1/6 1236/1/6
f 1237/1/2 1238/1/2 1239/1/2 1240/1/2
f 1241/1/4 1242/1/4 1243/1/4 1244/1/4
f 1245/1/5 1246/1/5 1247/1/5 1248/1/5
f 1249/1/6 1250/1/6 1251/1/6 1252/1/6
f 1253/1/1 1254/1/1 1255/1/1 1256/1/1
f 1257/1/3 1258/1/3 1259/1/3 1260/1/3
f 1261/1/5 1262/1/5 1263/1/5 1264/1/5
f 1265/1/6 1266/1/6 1267/1/6 1268/1/6
f 1269/1/5 1270/1/5 1271/1/5 1272/1/5
f 1273/1/6 1274/1/6 1275/1/6 1276/1/6
f 1277/1/2 1278/1/2 1279/1/2 1280/1/2
f 1281/1/4 1282/1/4 1283/1/4 1284/1/4
f 1285/1/5 1286/1/5 1287/1/5 1288/1/5
f 1289/1/6 1290/1/6 1291/1/6 1292/1/6
f 1293/1/1 1294/1/1 1295/1/1 1296/1/1
f 1297/1/3 1298/1/3 1299/1/3 1300/1/3
f 1301/1/5 1302/1/5 1303/1/5 1304/1/5
f 1305/1/6 1306/1/6 1307/1/6 1308/1/6
f 1309/1/2 1310/1/2 1311/1/2 1312/1/2
f 1313/1/4 1314/1/4 1315/1/4 1316/1/4
f 1317/1/5 1318/1/5 1319/1/5 1320/1/5
f 1321/1/6 1322/1/6 1323/1/6 1324/1/6
f 1325/1/1 1326/1/1 1327/1/1 1328/1/1
f 1329/1/3 1330/1/3 1331/1/3 1332/1/3
f 1333/1/5 1334/1/5 1335/1/5 1336/1/5
f 1337/1/6 1338/1/6 1339/1/6 1340/1/6
f 1341/1/5 1342/1/5 1343/1/5 1344/1/5
f 1345/1/6 1346/1/6 1347/1/6 1348/1/6
f 1349/1/2 1350/1/2 1351/1/2 1352/1/2
f 1353/1/4 1354/1/4 1355/1/4 1356/1/4
f 1357/1/5 1358/1/5 1359/1/5 1360/1/5
f 1361/1/6 1362/1/6 1363/1/6 1364/1/6
f 1365/1/1 1366/1/1 1367/1/1 1368/1/1
f 1369/1/3 1370/1/3 1371/1/3 1372/1/3
f 1373/1/5 1374/1/5 1375/1/5 1376/1/5
f 1377/1/6 1378/1/6 1379/1/6 1380/1/6
f 1381/1/2 1382/1/2 1383/1/2 1384/1/2
f 1385/1/4 1386/1/4 1387/1/4 1388/1/4
f 1389/1/5 1390/1/5 1391/1/5 1392/1/5
f 1393/1/6 1394/1/6 1395/1/6 1396/1/6
f 1397/1/1 1398/1/1 1399/1/1 1400/1/1
f 1401/1/3 1402/1/3 1403/1/3 1404/1/3
f 1405/1/5 1406/1/5 1407/1/5 1408/1/5
f 1409/1/6 1410/1/6 1411/1/6 1412/1/6
f 1413/1/5 1414/1/5 1415/1/5 1416/1/5
f 1417/1/6 1418/1/6 1419/1/6 1420/1/6
f 1421/1/2 1422/1/2 1423/1/2 1424/1/2
f 1425/1/4 1426/1/4 1427/1/4 1428/1/4
f 1429/1/5 1430/1/5 1431/1/5 1432/1/5
f 1433/1/6 1434/1/6 1435/1/6 1436/1/6
f 1437/1/1 1438/1/1 1439/1/1 1440/1/1
f 1441/1/3 1442/1/3 1443/1/3 1444/1/3
f 1445/1/5 1446/1/5 1447/1/5 1448/1/5
f 1449/1/6 1450/1/6 1451/1/6 1452/1/6
f 1453/1/2 1454/1/2 1455/1/2 1456/1/2
f 1457/1/4 1458/1/4 1459/1/4 1460/1/4
f 1461/1/5 1462/1/5 1463/1/5 1464/1/5
f 1465/1/6 1466/1/6 1467/1/6 1468/1/6
f 1469/1/1 1470/1/1 1471/1/1 1472/1/1
f 1473/1/3 1474/1/3 1475/1/3 1476/1/3
f 1477/1/5 1478/1/5 1479/1/5 1480/1/5
f 1481/1/6 1482/1/6 1483/1/6 1484/1/6
f 1485/1/5 1486/1/5 1487/1/5 1488/1/5
f 1489/1/6 1490/1/6 1491/1/6 1492/1/6
f 1493/1/2 1494/1/2 1495/1/2 1496/1/2
f 1497/1/4 1498/1/4 1499/1/4 1500/1/4
f 1501/1/5 1502/1/5 1503/1/5 1504/1/5
f 1505/1/6 1506/1/6 1507/1/6 1508/1/6
f 1509/1/1 1510/1/1 1511/1/1 1512/1/1
f 1513/1/3 1514/1/3 1515/1/3 1516/1/3
f 1517/1/5 1518/1/5 1519/1/5 1520/1/5
f 1521/1/6 1522/1/6 1523/1/6 1524/1/6
f 1525/1/2 1526/1/2 1527/1/2 1528/1/2
f 1529/1/4 1530/1/4 1531/1/4 1532/1/4
f 1533/1/5 1534/1/5 1535/1/5 1536/1/5
f 1537/1/6 1538/1/6 1539/1/6 1540/1/6
f 1541/1/1 1542/1/1 1543/1/1 1544/1/1
f 1545/1/3 1546/1/3 1547/1/3 1548/1/3
f 1549/1/5 1550/1/5 1551/1/5 1552/1/5
f 1553/1/6 1554/1/6 1555/1/6 1556/1/6
f 1557/1/5 1558/1/5 1559/1/5 1560/1/5
f 1561/1/6 1562/1/6 1563/1/6 1564/1/6
f 1565/1/2 1566/1/2 1567/1/2 1568/1/2
f 1569/1/4 1570/1/4 1571/1/4 1572/1/4
f 1573/1/5 1574/1/5 1575/1/5 1576/1/5
f 1577/1/6 1578/1/6 1579/1/6 1580/1/6
f 1581/1/1 1582/1/1 1583/1/1 1584/1/1
f 1585/1/3 1586/1/3 1587/1/3 1588/1/3
f 1589/1/5 1590/1/5 1591/1/5 1592/1/5
f 1593/1/6 1594/1/6 1595/1/6 1596/1/6
f 1597/1/2 1598/1/2 1599/1/2 1600/1/2
f 1601/1/4 1602/1/4 1603/1/4 1604/1/4
f 1605/1/5 1606/1/5 1607/1/5 1608/1/5
f 1609/1/6 1610/1/6 1611/1/6 1612/1/6
f 1613/1/1 1614/1/1 1615/1/1 1616/1/1
f 1617/1/3 1618/1/3 1619/1/3 1620/1/3
f 1621/1/5 1622/1/5 1623/1/5 1624/1/5
f 1625/1/6 1626/1/6 1627/1/6 1628/1/6
f 1629/1/5 1630/1/5 1631/1/5 1632/1/5
f 1633/1/6 1634/1/6 1635/1/6 1636/1/6
f 1637/1/2 1638/1/2 1639/1/2 1640/1/2
f 1641/1/4 1642/1/4 1643/1/4 1644/1/4
f 1645/1/5 1646/1/5 1647/1/5 1648/1/5
f 1649/1/6 1650/1/6 1651/1/6 1652/1/6
f 1653/1/1 1654/1/1 1655/1/1 1656/1/1
f 1657/1/3 1658/1/3 1659/1/3 1660/1/3
f 1661/1/5 1662/1/5 1663/1/5 1664/1/5
f 1665/1/6 1666/1/6 1667/1/6 1668/1/6
f 1669/1/2 1670/1/2 1671/1/2 1672/1/2
f 1673/1/4 1674/1/4 1675/1/4 1676/1/4
f 1677/1/5 1678/1/5 1679/1/5 1680/1/5
f 1681/1/6 1682/1/6 1683/1/6 1684/1/6
f 1685/1/1 1686/1/1 1687/1/1 1688/1/1
f 1689/1/3 1690/1/3 1691/1/3 1692/1/3
f 1693/1/5 1694/1/5 1695/1/5 1696/1/5
f 1697/1/6 1698/1/6 1699/1/6 1700/1/6
f 1701/1/5 1702/1/5 1703/1/5 1704/1/5
f 1705/1/6 1706/1/6 1707/1/6 1708/1/6
f 1709/1/2 1710/1/2 1711/1/2 1712/1/2
f 1713/1/4 1714/1/4 1715/1/4 1716/1/4
f 1717/1/5 1718/1/5 1719/1/5 1720/1/5
f 1721/1/6 1722/1/6 1723/1/6 1724/1/6
f 1725/1/1 1726/1/1 1727/1/1 1728/1/1
f 1729/1/3 1730/1/3 1731/1/3 1732/1/3
f 1733/1/5 1734/1/5 1735/1/5 1736/1/5
f 1737/1/6 1738/1/6 1739/1/6 1740/1/6
f 1741/1/2 1742/1/2 1743/1/2 1744/1/2
f 1745/1/4 1746/1/4 1747/1/4 1748/1/4
f 1749/1/5 1750/1/5 1751/1/5 1752/1/5
f 1753/1/6 1754/1/6 1755/1/6 1756/1/6
f 1757/1/1 1758/1/1 1759/1/1 1760/1/1
f 1761/1/3 1762/1/3 1763/1/3 1764/1/3
f 1765/1/5 1766/1/5 1767/1/5 1768/1/5
f 1769/1/6 1770/1/6 1771/1/6 1772/1/6
f 1773/1/5 1774/1/5 1775/1/5 1776/1/5
f 1777/1/6 1778/1/6 1779/1/6 1780/1/6
f 1781/1/2 1782/1/2 1783/1/2 1784/1/2
f 1785/1/4 1786/1/4 1787/1/4 1788/1/4
f 1789/1/5 1790/1/5 1791/1/5 1792/1/5
f 1793/1/6 1794/1/6 1795/1/6 1796/1/6
f 1797/1/1 1798/1/1 1799/1/1 1800/1/1
f 1801/1/3 1802/1/3 1803/1/3 1804/1/3
f 1805/1/5 1806/1/5 1807/1/5 1808/1/5
f 1809/1/6 1810/1/6 1811/1/6 1812/1/6
f 1813/1/2 1814/1/2 1815/1/2 1816/1/2
f 1817/1/4 1818/1/4 1819/1/4 1820/1/4
f 1821/1/5 1822/1/5 1823/1/5 1824/1/5
f 1825/1/6 1826/1/6 1827/1/6 1828/1/6
f 1829/1/1 1830/1/1 1831/1/1 1832/1/1
f 1833/1/3 1834/1/3 1835/1/3 1836/1/3
f 1837/1/5 1838/1/5 1839/1/5 1840/1/5
f 1841/1/6 1842/1/6 1843/1/6 1844/1/6
f 1845/1/5 1846/1/5 1847/1/5 1848/1/5
f 1849/1/6 1850/1/6 1851/1/6 1852/1/6
f 1853/1/2 1854/1/2 1855/1/2 1856/1/2
f 1857/1/4 1858/1/4 1859/1/4 1860/1/4
f 1861/1/5 1862/1/5 1863/1/5 1864/1/5
f 1865/1/6 1866/1/6 1867/1/6 1868/1/6
f 1869/1/1 1870/1/1 1871/1/1 1872/1/1
f 1873/1/3 1874/1/3 1875/1/3 1876/1/3
f 1877/1/5 1878/1/5 1879/1/5 1880/1/5
f 1881/1/6 1882/1/6 1883/1/6 1884/1/6
f 1885/1/2 1886/1/2 1887/1/2 1888/1/2
f 1889/1/4 1890/1/4 1891/1/4 1892/1/4
f 1893/1/5 1894/1/5 1895/1/5 1896/1/5
f 1897/1/6 1898/1/6 1899/1/6 1900/1/6
f 1901/1/1 1902/1/1 1903/1/1 1904/1/1
f 1905/1/3 1906/1/3 1907/1/3 1908/1/3
f 1909/1/5 1910/1/5 1911/1/5 1912/1/5
f 1913/1/6 1914/1/6 1915/1/6 1916/1/6
f 1917/1/5 1918/1/5 1919/1/5 1920/1/5
f 1921/1/6 1922/1/6 1923/1/6 1924/1/6
f 1925/1/2 1926/1/2 1927/1/2 1928/1/2
f 1929/1/4 1930/1/4 1931/1/4 1932/1/4
f 1933/1/5 1934/1/5 1935/1/5 1936/1/5
f 1937/1/6 1938/1/6 1939/1/6 1940/1/6
f 1941/1/1 1942/1/1 1943/1/1 1944/1/1
f 1945/1/3 1946/1/3 1947/1/3 1948/1/3
f 1949/1/5 1950/1/5 1951/1/5 1952/1/5
f 1953/1/6 1954/1/6 1955/1/6 1956/1/6
f 1957/1/2 1958/1/2 1959/1/2 1960/1/2
f 1961/1/4 1962/1/4 1963/1/4 1964/1/4
f 1965/1/5 1966/1/5 1967/1/5 1968/1/5
f 1969/1/6 1970/1/6 1971/1/6 1972/1/6
f 1973/1/1 1974/1/1 1975/1/1 1976/1/1
f 1977/1/3 1978/1/3 1979/1/3 1980/1/3
f 1981/1/5 1982/1/5 1983/1/5 1984/1/5
f 1985/1/6 1986/1/6 1987/1/6 1988/1/6
f 1989/1/5 1990/1/5 1991/1/5 1992/1/5
f 1993/1/6 1994/1/6 1995/1/6 1996/1/6
f 1997/1/2 1998/1/2 1999/1/2 2000/1/2
f 2001/1/4 2002/1/4 2003/1/4 2004/1/4
f 2005/1/5 2006/1/5 2007/1/5 2008/1/5
f 2009/1/6 2010/1/6 2011/1/6 2012/1/6
f 2013/1/1 2014/1/1 2015/1/1 2016/1/1
f 2017/1/3 2018/1/3 2019/1/3 2020/1/3
f 2021/1/5 2022/1/5 2023/1/5 2024/1/5
f 2025/1/6 2026/1/6 2027/1/6 2028/1/6
f 2029/1/2 2030/1/2 2031/1/2 2032/1/2
f 2033/1/4 2034/1/4 2035/1/4 2036/1/4
f 2037/1/5 2038/1/5 2039/1/5 2040/1/5
f 2041/1/6 2042/1/6 2043/1/6 2044/1/6
f 2045/1/1 2046/1/1 2047/1/1 2048/1/1
f 2049/1/3 2050/1/3 2051/1/3 2052/1/3
f 2053/1/5 2054/1/5 2055/1/5 2056/1/5
f 2057/1/6 2058/1/6 2059/1/6 2060/1/6
f 2061/1/5 2062/1/5 2063/1/5 2064/1/5
f 2065/1/6 2066/1/6 2067/1/6 2068/1/6
f 2069/1/2 2070/1/2 2071/1/2 2072/1/2
f 2073/1/4 2074/1/4 2075/1/4 2076/1/4
f 2077/1/5 2078/1/5 2079/1/5 2080/1/5
f 2081/1/6 2082/1/6 2083/1/6 2084/1/6
f 2085/1/1 2086/1/1 2087/1/1 2088/1/1
f 2089/1/3 2090/1/3 2091/1/3 2092/1/3
f 2093/1/5 2094/1/5 2095/1/5 2096/1/5
f 2097/1/6 2098/1/6 2099/1/6 2100/1/6
f 2101/1/2 2102/1/2 2103/1/2 2104/1/2
f 2105/1/4 2106/1/4 2107/1/4 2108/1/4
f 2109/1/5 2110/1/5 2111/1/5 2112/1/5
f 2113/1/6 2114/1/6 2115/1/6 2116/1/6
f 2117/1/1 2118/1/1 2119/1/1 2120/1/1
f 2121/1/3 2122/1/3 2123/1/3 2124/1/3
f 2125/1/5 2126/1/5 2127/1/5 2128/1/5
f 2129/1/6 2130/1/6 2131/1/6 2132/1/6
f 2133/1/5 2134/1/5 2135/1/5 2136/1/5
f 2137/1/6 2138/1/6 2139/1/6 2140/1/6
f 2141/1/2 2142/1/2 2143/1/2 2144/1/2
f 2145/1/4 2146/1/4 2147/1/4 2148/1/4
f 2149/1/5 2150/1/5 2151/1/5 2152/1/5
f 2153/1/6 2154/1/6 2155/1/6 2156/1/6
f 2157/1/1 2158/1/1 2159/1/1 2160/1/1
f 2161/1/3 2162/1/3 2163/1/3 2164/1/3
f 2165/1/5 2166/1/5 2167/1/5 2168/1/5
f 2169/1/6 2170/1/6 2171/1/6 2172/1/6
f 2173/1/2 2174/1/2 2175/1/2 2176/1/2
f 2177/1/4 2178/1/4 2179/1/4 2180/1/4
f 2181/1/5 2182/1/5 2183/1/5 2184/1/5
f 2185/1/6 2186/1/6 2187/1/6 2188/1/6
f 2189/1/1 2190/1/1 2191/1/1 2192/1/1
f 2193/1/3 2194/1/3 2195/1/3 2196/1/3
f 2197/1/5 2198/1/5 2199/1/5 2200/1/5
f 2201/1/6 2202/1/6 2203/1/6 2204/1/6
f 2205/1/5 2206/1/5 2207/1/5 2208/1/5
f 2209/1/6 2210/1/6 2211/1/6 2212/1/6
f 2213/1/2 2214/1/2 2215/1/2 2216/1/2
f 2217/1/4 2218/1/4 2219/1/4 2220/1/4
f 2221/1/5 2222/1/5 2223/1/5 2224/1/5
f 2225/1/6 2226/1/6 2227/1/6 2228/1/6
f 2229/1/1 2230/1/1 2231/1/1 2232/1/1
f 2233/1/3 2234/1/3 2235/1/3 2236/1/3
f 2237/1/5 2238/1/5 2239/1/5 2240/1/5
f 2241/1/6 2242/1/6 2243/1/6 2244/1/6
f 2245/1/2 2246/1/2 2247/1/2 2248/1/2
f 2249/1/4 2250/1/4 2251/1/4 2252/1/4
f 2253/1/5 2254/1/5 2255/1/5 2256/1/5
f 2257/1/6 2258/1/6 2259/1/6 2260/1/6
f 2261/1/1 2262/1/1 2263/1/1 2264/1/1
f 2265/1/3 2266/1/3 2267/1/3 2268/1/3
f 2269/1/5 2270/1/5 2271/1/5 2272/1/5
f 2273/1/6 2274/1/6 2275/1/6 2276/1/6
f 2277/1/5 2278/1/5 2279/1/5 2280/1/5
f 2281/1/6 2282/1/6 2283/1/6 2284/1/6
f 2285/1/2 2286/1/2 2287/1/2 2288/1/2
f 2289/1/4 2290/1/4 2291/1/4 2292/1/4
f 2293/1/5 2294/1/5 2295/1/5 2296/1/5
f 2297/1/6 2298/1/6 2299/1/6 2300/1/6
f 2301/1/1 2302/1/1 2303/1/1 2304/1/1
f 2305/1/3 2306/1/3 2307/1/3 2308/1/3
f 2309/1/5 2310/1/5 2311/1/5 2312/1/5
f 2313/1/6 2314/1/6 2315/1/6 2316/1/6
f 2317/1/2 2318/1/2 2319/1/2 2320/1/2
f 2321/1/4 2322/1/4 2323/1/4 2324/1/4
f 2325/1/5 2326/1/5 2327/1/5 2328/1/5
f 2329/1/6 2330/1/6 2331/1/6 2332/1/6
f 2333/1/1 2334/1/1 2335/1/1 2336/1/1
f 2337/1/3 2338/1/3 2339/1/3 2340/1/3
f 2341/1/5 2342/1/5 2343/1/5 2344/1/5
f 2345/1/6 2346/1/6 2347/1/6 2348/1/6
f 2349/1/5 2350/1/5 2351/1/5 2352/1/5
f 2353/1/6 2354/1/6 2355/1/6 2356/1/6
f 2357/1/2 2358/1/2 2359/1/2 2360/1/2
f 2361/1/4 2362/1/4 2363/1/4 2364/1/4
f 2365/1/5 2366/1/5 2367/1/5 2368/1/5
f 2369/1/6 2370/1/6 2371/1/6 2372/1/6
f 2373/1/1 2374/1/1 2375/1/1 2376/1/1
f 2377/1/3 2378/1/3 2379/1/3 2380/1/3
f 2381/1/5 2382/1/5 2383/1/5 2384/1/5
f 2385/1/6 2386/1/6 2387/1/6 2388/1/6
f 2389/1/2 2390/1/2 2391/1/2 2392/1/2
f 2393/1/4 2394/1/4 2395/1/4 2396/1/4
f 2397/1/5 2398/1/5 2399/1/5 2400/1/5
f 2401/1/6 2402/1/6 2403/1/6 2404/1/6
f 2405/1/1 2406/1/1 2407/1/1 2408/1/1
f 2409/1/3 2410/1/3 2411/1/3 2412/1/3
f 2413/1/4 2414/1/4 2415/1/4 2416/1/4
f 2417/1/5 2418/1/5 2419/1/5 2420/1/5
f 2421/1/6 2422/1/6 2423/1/6 2424/1/6
f 2425/1/4 2426/1/4 2427/1/4 2428/1/4
f 2429/1/5 2430/1/5 2431/1/5 2432/1/5
f 2433/1/6 2434/1/6 2435/1/6 2436/1/6
f 2437/1/2 2438/1/2 2439/1/2 2440/1/2
f 2441/1/4 2442/1/4 2443/1/4 2444/1/4
f 2445/1/5 2446/1/5 2447/1/5 2448/1/5
f 2449/1/6 2450/1/6 2451/1/6 2452/1/6
f 2453/1/1 2454/1/1 2455/1/1 2456/1/1
f 2457/1/3 2458/1/3 2459/1/3 2460/1/3
f 2461/1/5 2462/1/5 2463/1/5 2464/1/5
f 2465/1/6 2466/1/6 2467/1/6 2468/1/6
f 2469/1/2 2470/1/2 2471/1/2 2472/1/2
f 2473/1/4 2474/1/4 2475/1/4 2476/1/4
f 2477/1/5 2478/1/5 2479/1/5 2480/1/5
f 2481/1/6 2482/1/6 2483/1/6 2484/1/6
f 2485/1/1 2486/1/1 2487/1/1 2488/1/1
f 2489/1/2 2490/1/2 2491/1/2 2492/1/2
f 2493/1/3 2494/1/3 2495/1/3 2496/1/3
f 2497/1/4 2498/1/4 2499/1/4 2500/1/4
f 2501/1/5 2502/1/5 2503/1/5 2504/1/5
f 2505/1/6 2506/1/6 2507/1/6 2508/1/6
f 2509/1/1 2510/1/1 2511/1/1 2512/1/1
f 2513/1/3 2514/1/3 2515/1/3 2516/1/3
f 2517/1/5 2518/1/5 2519/1/5 2520/1/5
f 2521/1/6 2522/1/6 2523/1/6 2524/1/6
f 2525/1/2 2526/1/2 2527/1/2 2528/1/2
f 2529/1/4 2530/1/4 2531/1/4 2532/1/4
f 2533/1/5 2534/1/5 2535/1/5 2536/1/5
f 2537/1/6 2538/1/6 2539/1/6 2540/1/6
f 2541/1/1 2542/1/1 2543/1/1 2544/1/1
f 2545/1/3 2546/1/3 2547/1/3 2548/1/3
f 2549/1/5 2550/1/5 2551/1/5 2552/1/5
f 2553/1/6 2554/1/6 2555/1/6 2556/1/6
f 2557/1/2 2558/1/2 2559/1/2 2560/1/2
f 2561/1/4 2562/1/4 2563/1/4 2564/1/4
f 2565/1/5 2566/1/5 2567/1/5 2568/1/5
f 2569/1/6 2570/1/6 2571/1/6 2572/1/6
f 2573/1/1 2574/1/1 2575/1/1 2576/1/1
f 2577/1/3 2578/1/3 2579/1/3 2580/1/3
f 2581/1/5 2582/1/5 2583/1/5 2584/1/5
f 2585/1/6 2586/1/6 2587/1/6 2588/1/6
f 2589/1/2 2590/1/2 2591/1/2 2592/1/2
f 2593/1/4 2594/1/4 2595/1/4 2596/1/4
f 2597/1/5 2598/1/5 2599/1/5 2600/1/5
f 2601/1/6 2602/1/6 2603/1/6 2604/1/6
f 2605/1/1 2606/1/1 2607/1/1 2608/1/1
f 2609/1/2 2610/1/2 2611/1/2 2612/1/2
f 2613/1/4 2614/1/4 2615/1/4 2616/1/4
f 2617/1/5 2618/1/5 2619/1/5 2620/1/5
f 2621/1/6 2622/1/6 2623/1/6 2624/1/6
f 2625/1/1 2626/1/1 2627/1/1 2628/1/1
f 2629/1/2 2630/1/2 2631/1/2 2632/1/2
f 2633/1/3 2634/1/3 2635/1/3 2636/1/3
f 2637/1/4 2638/1/4 2639/1/4 2640/1/4
f 2641/1/5 2642/1/5 2643/1/5 2644/1/5
f 2645/1/6 2646/1/6 2647/1/6 2648/1/6
f 2649/1/1 2650/1/1 2651/1/1 2652/1/1
f 2653/1/2 2654/1/2 2655/1/2 2656/1/2
f 2657/1/3 2658/1/3 2659/1/3 2660/1/3
f 2661/1/4 2662/1/4 2663/1/4 2664/1/4
f 2665/1/5 2666/1/5 2667/1/5 2668/1/5
f 2669/1/6 2670/1/6 2671/1/6 2672/1/6
f 2673/1/1 2674/1/1 2675/1/1 2676/1/1
f 2677/1/2 2678/1/2 2679/1/2 2680/1/2
f 2681/1/3 2682/1/3 2683/1/3 2684/1/3
f 2685/1/5 2686/1/5 2687/1/5 2688/1/5
f 2689/1/6 2690/1/6 2691/1/6 2692/1/6
f 2693/1/1 2694/1/1 2695/1/1 2696/1/1
f 2697/1/5 2698/1/5 2699/1/5 2700/1/5
f 2701/1/6 2702/1/6 2703/1/6 2704/1/6
f 2705/1/3 2706/1/3 2707/1/3 2708/1/3
f 2709/1/5 2710/1/5 2711/1/5 2712/1/5
f 2713/1/6 2714/1/6 2715/1/6 2716/1/6
f 2717/1/2 2718/1/2 2719/1/2 2720/1/2
f 2721/1/3 2722/1/3 2723/1/3 2724/1/3
f 2725/1/5 2726/1/5 2727/1/5 2728/1/5
f 2729/1/6 2730/1/6 2731/1/6 2732/1/6
f 2733/1/1 2734/1/1 2735/1/1 2736/1/1
f 2737/1/5 2738/1/5 2739/1/5 2740/1/5
f 2741/1/6 2742/1/6 2743/1/6 2744/1/6
f 2745/1/5 2746/1/5 2747/1/5 2748/1/5
f 2749/1/6 2750/1/6 2751/1/6 2752/1/6
f 2753/1/2 2754/1/2 2755/1/2 2756/1/2
f 2757/1/5 2758/1/5 2759/1/5 2760/1/5
f 2761/1/6 2762/1/6 2763/1/6 2764/1/6
f 2765/1/1 2766/1/1 2767/1/1 2768/1/1
f 2769/1/2 2770/1/2 2771/1/2 2772/1/2
f 2773/1/3 2774/1/3 2775/1/3 2776/1/3
f 2777/1/4 2778/1/4 2779/1/4 2780/1/4
f 2781/1/5 2782/1/5 2783/1/5 2784/1/5
f 2785/1/6 2786/1/6 2787/1/6 2788/1/6
f 2789/1/1 2790/1/1 2791/1/1 2792/1/1
f 2793/1/5 2794/1/5 2795/1/5 2796/1/5
f 2797/1/6 2798/1/6 2799/1/6 2800/1/6
f 2801/1/5 2802/1/5 2803/1/5 2804/1/5
f 2805/1/6 2806/1/6 2807/1/6 2808/1/6
f 2809/1/5 2810/1/5 2811/1/5 2812/1/5
f 2813/1/6 2814/1/6 2815/1/6 2816/1/6
f 2817/1/2 2818/1/2 2819/1/2 2820/1/2
f 2821/1/3 2822/1/3 2823/1/3 2824/1/3
f 2825/1/4 2826/1/4 2827/1/4 2828/1/4
f 2829/1/5 2830/1/5 2831/1/5 2832/1/5
f 2833/1/6 2834/1/6 2835/1/6 2836/1/6
f 2837/1/1 2838/1/1 2839/1/1 2840/1/1
f 2841/1/3 2842/1/3 2843/1/3 2844/1/3
f 2845/1/4 2846/1/4 2847/1/4 2848/1/4
f 2849/1/5 2850/1/5 2851/1/5 2852/1/5
f 2853/1/6 2854/1/6 2855/1/6 2856/1/6
f 2857/1/3 2858/1/3 2859/1/3 2860/1/3
f 2861/1/5 2862/1/5 2863/1/5 2864/1/5
f 2865/1/6 2866/1/6 2867/1/6 2868/1/6
f 2869/1/4 2870/1/4 2871/1/4 2872/1/4
f 2873/1/5 2874/1/5 2875/1/5 2876/1/5
f 2877/1/6 2878/1/6 2879/1/6 2880/1/6
f 2881/1/4 2882/1/4 2883/1/4 2884/1/4
f 2885/1/5 2886/1/5 2887/1/5 2888/1/5
f 2889/1/6 2890/1/6 2891/1/6 2892/1/6
f 2893/1/2 2894/1/2 2895/1/2 2896/1/2
f 2897/1/4 2898/1/4 2899/1/4 2900/1/4
f 2901/1/5 2902/1/5 2903/1/5 2904/1/5
f 2905/1/6 2906/1/6 2907/1/6 2908/1/6
f 2909/1/1 2910/1/1 2911/1/1 2912/1/1
f 2913/1/2 2914/1/2 2915/1/2 2916/1/2
f 2917/1/4 2918/1/4 2919/1/4 2920/1/4
f 2921/1/5 2922/1/5 2923/1/5 2924/1/5
f 2925/1/6 2926/1/6 2927/1/6 2928/1/6

