# generated by vox_to_obj_exporter
# scale=0.1 center=false ground=false y_up=true

mtllib Fight_027.mtl
usemtl palette

# normals
vn -1 0 0
vn 1 0 0
vn 0 1 0
vn 0 -1 0
vn 0 0 1
vn 0 0 -1

# texcoords
vt 0.240234375 0.5
vt 0.271484375 0.5
vt 0.248046875 0.5

# verts
v 10.4 13.6 -2.6
v 10.4 13.5 -2.6
v 10.4 13.5 -2.5
v 10.4 13.6 -2.5
v 10.4 13.6 -2.6
v 10.4 13.6 -2.5
v 10.5 13.6 -2.5
v 10.5 13.6 -2.6
v 10.4 13.5 -2.5
v 10.4 13.5 -2.6
v 10.5 13.5 -2.6
v 10.5 13.5 -2.5
v 10.4 13.6 -2.5
v 10.4 13.5 -2.5
v 10.5 13.5 -2.5
v 10.5 13.6 -2.5
v 10.5 13.6 -2.6
v 10.5 13.5 -2.6
v 10.4 13.5 -2.6
v 10.4 13.6 -2.6
v 10.6 13.6 -2.5
v 10.6 13.5 -2.5
v 10.6 13.5 -2.6
v 10.6 13.6 -2.6
v 10.5 13.6 -2.6
v 10.5 13.6 -2.5
v 10.6 13.6 -2.5
v 10.6 13.6 -2.6
v 10.5 13.5 -2.5
v 10.5 13.5 -2.6
v 10.6 13.5 -2.6
v 10.6 13.5 -2.5
v 10.5 13.6 -2.5
v 10.5 13.5 -2.5
v 10.6 13.5 -2.5
v 10.6 13.6 -2.5
v 10.6 13.6 -2.6
v 10.6 13.5 -2.6
v 10.5 13.5 -2.6
v 10.5 13.6 -2.6
v 10.2 13.5 -2.6
v 10.2 13.4 -2.6
v 10.2 13.4 -2.5
v 10.2 13.5 -2.5
v 10.2 13.5 -2.6
v 10.2 13.5 -2.5
v 10.3 13.5 -2.5
v 10.3 13.5 -2.6
v 10.2 13.5 -2.5
v 10.2 13.4 -2.5
v 10.3 13.4 -2.5
v 10.3 13.5 -2.5
v 10.3 13.5 -2.6
v 10.3 13.4 -2.6
v 10.2 13.4 -2.6
v 10.2 13.5 -2.6
v 10.4 13.5 -2.5
v 10.4 13.4 -2.5
v 10.4 13.4 -2.6
v 10.4 13.5 -2.6
v 10.3 13.5 -2.6
v 10.3 13.5 -2.5
v 10.4 13.5 -2.5
v 10.4 13.5 -2.6
v 10.3 13.4 -2.5
v 10.3 13.4 -2.6
v 10.4 13.4 -2.6
v 10.4 13.4 -2.5
v 10.3 13.5 -2.5
v 10.3 13.4 -2.5
v 10.4 13.4 -2.5
v 10.4 13.5 -2.5
v 10.4 13.5 -2.6
v 10.4 13.4 -2.6
v 10.3 13.4 -2.6
v 10.3 13.5 -2.6
v 10 13.4 -2.6
v 10 13.3 -2.6
v 10 13.3 -2.5
v 10 13.4 -2.5
v 10 13.4 -2.6
v 10 13.4 -2.5
v 10.1 13.4 -2.5
v 10.1 13.4 -2.6
v 10 13.4 -2.5
v 10 13.3 -2.5
v 10.1 13.3 -2.5
v 10.1 13.4 -2.5
v 10.1 13.4 -2.6
v 10.1 13.3 -2.6
v 10 13.3 -2.6
v 10 13.4 -2.6
v 10.1 13.4 -2.6
v 10.1 13.4 -2.5
v 10.2 13.4 -2.5
v 10.2 13.4 -2.6
v 10.1 13.3 -2.5
v 10.1 13.3 -2.6
v 10.2 13.3 -2.6
v 10.2 13.3 -2.5
v 10.1 13.4 -2.5
v 10.1 13.3 -2.5
v 10.2 13.3 -2.5
v 10.2 13.4 -2.5
v 10.2 13.4 -2.6
v 10.2 13.3 -2.6
v 10.1 13.3 -2.6
v 10.1 13.4 -2.6
v 10.3 13.4 -2.5
v 10.3 13.3 -2.5
v 10.3 13.3 -2.6
v 10.3 13.4 -2.6
v 10.2 13.4 -2.5
v 10.2 13.3 -2.5
v 10.3 13.3 -2.5
v 10.3 13.4 -2.5
v 10.3 13.4 -2.6
v 10.3 13.3 -2.6
v 10.2 13.3 -2.6
v 10.2 13.4 -2.6
v 10.4 13.4 -2.6
v 10.4 13.3 -2.6
v 10.4 13.3 -2.5
v 10.4 13.4 -2.5
v 10.5 13.4 -2.5
v 10.5 13.3 -2.5
v 10.5 13.3 -2.6
v 10.5 13.4 -2.6
v 10.4 13.4 -2.6
v 10.4 13.4 -2.5
v 10.5 13.4 -2.5
v 10.5 13.4 -2.6
v 10.4 13.3 -2.5
v 10.4 13.3 -2.6
v 10.5 13.3 -2.6
v 10.5 13.3 -2.5
v 10.4 13.4 -2.5
v 10.4 13.3 -2.5
v 10.5 13.3 -2.5
v 10.5 13.4 -2.5
v 10.5 13.4 -2.6
v 10.5 13.3 -2.6
v 10.4 13.3 -2.6
v 10.4 13.4 -2.6
v 9.9 13.3 -2.6
v 9.9 13.2 -2.6
v 9.9 13.2 -2.5
v 9.9 13.3 -2.5
v 9.9 13.3 -2.6
v 9.9 13.3 -2.5
v 10 13.3 -2.5
v 10 13.3 -2.6
v 9.9 13.2 -2.5
v 9.9 13.2 -2.6
v 10 13.2 -2.6
v 10 13.2 -2.5
v 9.9 13.3 -2.5
v 9.9 13.2 -2.5
v 10 13.2 -2.5
v 10 13.3 -2.5
v 10 13.3 -2.6
v 10 13.2 -2.6
v 9.9 13.2 -2.6
v 9.9 13.3 -2.6
v 10.1 13.3 -2.5
v 10.1 13.2 -2.5
v 10.1 13.2 -2.6
v 10.1 13.3 -2.6
v 10 13.3 -2.5
v 10 13.2 -2.5
v 10.1 13.2 -2.5
v 10.1 13.3 -2.5
v 10.1 13.3 -2.6
v 10.1 13.2 -2.6
v 10 13.2 -2.6
v 10 13.3 -2.6
v 10.2 13.3 -2.6
v 10.2 13.2 -2.6
v 10.2 13.2 -2.5
v 10.2 13.3 -2.5
v 10.2 13.3 -2.5
v 10.2 13.2 -2.5
v 10.3 13.2 -2.5
v 10.3 13.3 -2.5
v 10.3 13.3 -2.6
v 10.3 13.2 -2.6
v 10.2 13.2 -2.6
v 10.2 13.3 -2.6
v 10.4 13.3 -2.5
v 10.4 13.2 -2.5
v 10.4 13.2 -2.6
v 10.4 13.3 -2.6
v 10.3 13.3 -2.6
v 10.3 13.3 -2.5
v 10.4 13.3 -2.5
v 10.4 13.3 -2.6
v 10.3 13.3 -2.5
v 10.3 13.2 -2.5
v 10.4 13.2 -2.5
v 10.4 13.3 -2.5
v 10.4 13.3 -2.6
v 10.4 13.2 -2.6
v 10.3 13.2 -2.6
v 10.3 13.3 -2.6
v 10 13.2 -2.6
v 10 13.1 -2.6
v 10 13.1 -2.5
v 10 13.2 -2.5
v 10 13.2 -2.5
v 10 13.1 -2.5
v 10.1 13.1 -2.5
v 10.1 13.2 -2.5
v 10.1 13.2 -2.6
v 10.1 13.1 -2.6
v 10 13.1 -2.6
v 10 13.2 -2.6
v 10.1 13.2 -2.6
v 10.1 13.2 -2.5
v 10.2 13.2 -2.5
v 10.2 13.2 -2.6
v 10.1 13.2 -2.5
v 10.1 13.1 -2.5
v 10.2 13.1 -2.5
v 10.2 13.2 -2.5
v 10.2 13.2 -2.6
v 10.2 13.1 -2.6
v 10.1 13.1 -2.6
v 10.1 13.2 -2.6
v 10.2 13.2 -2.5
v 10.2 13.1 -2.5
v 10.3 13.1 -2.5
v 10.3 13.2 -2.5
v 10.3 13.2 -2.6
v 10.3 13.1 -2.6
v 10.2 13.1 -2.6
v 10.2 13.2 -2.6
v 10.4 13.2 -2.5
v 10.4 13.1 -2.5
v 10.4 13.1 -2.6
v 10.4 13.2 -2.6
v 10.3 13.1 -2.5
v 10.3 13.1 -2.6
v 10.4 13.1 -2.6
v 10.4 13.1 -2.5
v 10.3 13.2 -2.5
v 10.3 13.1 -2.5
v 10.4 13.1 -2.5
v 10.4 13.2 -2.5
v 10.4 13.2 -2.6
v 10.4 13.1 -2.6
v 10.3 13.1 -2.6
v 10.3 13.2 -2.6
v 9.9 13.1 -2.6
v 9.9 13 -2.6
v 9.9 13 -2.5
v 9.9 13.1 -2.5
v 9.9 13.1 -2.6
v 9.9 13.1 -2.5
v 10 13.1 -2.5
v 10 13.1 -2.6
v 9.9 13 -2.5
v 9.9 13 -2.6
v 10 13 -2.6
v 10 13 -2.5
v 9.9 13.1 -2.5
v 9.9 13 -2.5
v 10 13 -2.5
v 10 13.1 -2.5
v 10 13.1 -2.6
v 10 13 -2.6
v 9.9 13 -2.6
v 9.9 13.1 -2.6
v 10 13.1 -2.5
v 10 13 -2.5
v 10.1 13 -2.5
v 10.1 13.1 -2.5
v 10.1 13.1 -2.6
v 10.1 13 -2.6
v 10 13 -2.6
v 10 13.1 -2.6
v 10.1 13.1 -2.5
v 10.1 13 -2.5
v 10.2 13 -2.5
v 10.2 13.1 -2.5
v 10.2 13.1 -2.6
v 10.2 13 -2.6
v 10.1 13 -2.6
v 10.1 13.1 -2.6
v 10.3 13.1 -2.5
v 10.3 13 -2.5
v 10.3 13 -2.6
v 10.3 13.1 -2.6
v 10.2 13.1 -2.5
v 10.2 13 -2.5
v 10.3 13 -2.5
v 10.3 13.1 -2.5
v 10.3 13.1 -2.6
v 10.3 13 -2.6
v 10.2 13 -2.6
v 10.2 13.1 -2.6
v 10 13 -2.6
v 10 12.9 -2.6
v 10 12.9 -2.5
v 10 13 -2.5
v 10 13 -2.5
v 10 12.9 -2.5
v 10.1 12.9 -2.5
v 10.1 13 -2.5
v 10.1 13 -2.6
v 10.1 12.9 -2.6
v 10 12.9 -2.6
v 10 13 -2.6
v 10.1 13 -2.5
v 10.1 12.9 -2.5
v 10.2 12.9 -2.5
v 10.2 13 -2.5
v 10.2 13 -2.6
v 10.2 12.9 -2.6
v 10.1 12.9 -2.6
v 10.1 13 -2.6
v 10.3 13 -2.5
v 10.3 12.9 -2.5
v 10.3 12.9 -2.6
v 10.3 13 -2.6
v 10.2 12.9 -2.5
v 10.2 12.9 -2.6
v 10.3 12.9 -2.6
v 10.3 12.9 -2.5
v 10.2 13 -2.5
v 10.2 12.9 -2.5
v 10.3 12.9 -2.5
v 10.3 13 -2.5
v 10.3 13 -2.6
v 10.3 12.9 -2.6
v 10.2 12.9 -2.6
v 10.2 13 -2.6
v 10 12.9 -2.6
v 10 12.8 -2.6
v 10 12.8 -2.5
v 10 12.9 -2.5
v 10 12.9 -2.5
v 10 12.8 -2.5
v 10.1 12.8 -2.5
v 10.1 12.9 -2.5
v 10.1 12.9 -2.6
v 10.1 12.8 -2.6
v 10 12.8 -2.6
v 10 12.9 -2.6
v 10.2 12.9 -2.5
v 10.2 12.8 -2.5
v 10.2 12.8 -2.6
v 10.2 12.9 -2.6
v 10.1 12.9 -2.5
v 10.1 12.8 -2.5
v 10.2 12.8 -2.5
v 10.2 12.9 -2.5
v 10.2 12.9 -2.6
v 10.2 12.8 -2.6
v 10.1 12.8 -2.6
v 10.1 12.9 -2.6
v 10 12.8 -2.6
v 10 12.7 -2.6
v 10 12.7 -2.5
v 10 12.8 -2.5
v 10 12.8 -2.5
v 10 12.7 -2.5
v 10.1 12.7 -2.5
v 10.1 12.8 -2.5
v 10.1 12.8 -2.6
v 10.1 12.7 -2.6
v 10 12.7 -2.6
v 10 12.8 -2.6
v 10.2 12.8 -2.5
v 10.2 12.7 -2.5
v 10.2 12.7 -2.6
v 10.2 12.8 -2.6
v 10.1 12.7 -2.5
v 10.1 12.7 -2.6
v 10.2 12.7 -2.6
v 10.2 12.7 -2.5
v 10.1 12.8 -2.5
v 10.1 12.7 -2.5
v 10.2 12.7 -2.5
v 10.2 12.8 -2.5
v 10.2 12.8 -2.6
v 10.2 12.7 -2.6
v 10.1 12.7 -2.6
v 10.1 12.8 -2.6
v 10 12.7 -2.6
v 10 12.6 -2.6
v 10 12.6 -2.5
v 10 12.7 -2.5
v 10.1 12.7 -2.5
v 10.1 12.6 -2.5
v 10.1 12.6 -2.6
v 10.1 12.7 -2.6
v 10 12.7 -2.5
v 10 12.6 -2.5
v 10.1 12.6 -2.5
v 10.1 12.7 -2.5
v 10.1 12.7 -2.6
v 10.1 12.6 -2.6
v 10 12.6 -2.6
v 10 12.7 -2.6
v 10 12.6 -2.6
v 10 12.5 -2.6
v 10 12.5 -2.5
v 10 12.6 -2.5
v 10.1 12.6 -2.5
v 10.1 12.5 -2.5
v 10.1 12.5 -2.6
v 10.1 12.6 -2.6
v 10 12.5 -2.5
v 10 12.5 -2.6
v 10.1 12.5 -2.6
v 10.1 12.5 -2.5
v 10 12.6 -2.5
v 10 12.5 -2.5
v 10.1 12.5 -2.5
v 10.1 12.6 -2.5
v 10.1 12.6 -2.6
v 10.1 12.5 -2.6
v 10 12.5 -2.6
v 10 12.6 -2.6
v 6.7 11.7 -2.6
v 6.7 11.6 -2.6
v 6.7 11.6 -2.5
v 6.7 11.7 -2.5
v 6.7 11.7 -2.6
v 6.7 11.7 -2.5
v 6.8 11.7 -2.5
v 6.8 11.7 -2.6
v 6.7 11.6 -2.5
v 6.7 11.6 -2.6
v 6.8 11.6 -2.6
v 6.8 11.6 -2.5
v 6.7 11.7 -2.5
v 6.7 11.6 -2.5
v 6.8 11.6 -2.5
v 6.8 11.7 -2.5
v 6.8 11.7 -2.6
v 6.8 11.6 -2.6
v 6.7 11.6 -2.6
v 6.7 11.7 -2.6
v 6.9 11.7 -2.5
v 6.9 11.6 -2.5
v 6.9 11.6 -2.6
v 6.9 11.7 -2.6
v 6.8 11.7 -2.6
v 6.8 11.7 -2.5
v 6.9 11.7 -2.5
v 6.9 11.7 -2.6
v 6.8 11.6 -2.5
v 6.8 11.6 -2.6
v 6.9 11.6 -2.6
v 6.9 11.6 -2.5
v 6.8 11.7 -2.5
v 6.8 11.6 -2.5
v 6.9 11.6 -2.5
v 6.9 11.7 -2.5
v 6.9 11.7 -2.6
v 6.9 11.6 -2.6
v 6.8 11.6 -2.6
v 6.8 11.7 -2.6
v 6.5 11.6 -2.6
v 6.5 11.5 -2.6
v 6.5 11.5 -2.5
v 6.5 11.6 -2.5
v 6.5 11.6 -2.6
v 6.5 11.6 -2.5
v 6.6 11.6 -2.5
v 6.6 11.6 -2.6
v 6.5 11.6 -2.5
v 6.5 11.5 -2.5
v 6.6 11.5 -2.5
v 6.6 11.6 -2.5
v 6.6 11.6 -2.6
v 6.6 11.5 -2.6
v 6.5 11.5 -2.6
v 6.5 11.6 -2.6
v 6.7 11.6 -2.5
v 6.7 11.5 -2.5
v 6.7 11.5 -2.6
v 6.7 11.6 -2.6
v 6.6 11.6 -2.6
v 6.6 11.6 -2.5
v 6.7 11.6 -2.5
v 6.7 11.6 -2.6
v 6.6 11.5 -2.5
v 6.6 11.5 -2.6
v 6.7 11.5 -2.6
v 6.7 11.5 -2.5
v 6.6 11.6 -2.5
v 6.6 11.5 -2.5
v 6.7 11.5 -2.5
v 6.7 11.6 -2.5
v 6.7 11.6 -2.6
v 6.7 11.5 -2.6
v 6.6 11.5 -2.6
v 6.6 11.6 -2.6
v 6.3 11.5 -2.6
v 6.3 11.4 -2.6
v 6.3 11.4 -2.5
v 6.3 11.5 -2.5
v 6.3 11.5 -2.6
v 6.3 11.5 -2.5
v 6.4 11.5 -2.5
v 6.4 11.5 -2.6
v 6.3 11.5 -2.5
v 6.3 11.4 -2.5
v 6.4 11.4 -2.5
v 6.4 11.5 -2.5
v 6.4 11.5 -2.6
v 6.4 11.4 -2.6
v 6.3 11.4 -2.6
v 6.3 11.5 -2.6
v 6.4 11.5 -2.6
v 6.4 11.5 -2.5
v 6.5 11.5 -2.5
v 6.5 11.5 -2.6
v 6.4 11.4 -2.5
v 6.4 11.4 -2.6
v 6.5 11.4 -2.6
v 6.5 11.4 -2.5
v 6.4 11.5 -2.5
v 6.4 11.4 -2.5
v 6.5 11.4 -2.5
v 6.5 11.5 -2.5
v 6.5 11.5 -2.6
v 6.5 11.4 -2.6
v 6.4 11.4 -2.6
v 6.4 11.5 -2.6
v 6.6 11.5 -2.5
v 6.6 11.4 -2.5
v 6.6 11.4 -2.6
v 6.6 11.5 -2.6
v 6.5 11.5 -2.5
v 6.5 11.4 -2.5
v 6.6 11.4 -2.5
v 6.6 11.5 -2.5
v 6.6 11.5 -2.6
v 6.6 11.4 -2.6
v 6.5 11.4 -2.6
v 6.5 11.5 -2.6
v 6.7 11.5 -2.6
v 6.7 11.4 -2.6
v 6.7 11.4 -2.5
v 6.7 11.5 -2.5
v 6.8 11.5 -2.5
v 6.8 11.4 -2.5
v 6.8 11.4 -2.6
v 6.8 11.5 -2.6
v 6.7 11.5 -2.6
v 6.7 11.5 -2.5
v 6.8 11.5 -2.5
v 6.8 11.5 -2.6
v 6.7 11.5 -2.5
v 6.7 11.4 -2.5
v 6.8 11.4 -2.5
v 6.8 11.5 -2.5
v 6.8 11.5 -2.6
v 6.8 11.4 -2.6
v 6.7 11.4 -2.6
v 6.7 11.5 -2.6
v 6.2 11.4 -2.6
v 6.2 11.3 -2.6
v 6.2 11.3 -2.5
v 6.2 11.4 -2.5
v 6.2 11.4 -2.6
v 6.2 11.4 -2.5
v 6.3 11.4 -2.5
v 6.3 11.4 -2.6
v 6.2 11.3 -2.5
v 6.2 11.3 -2.6
v 6.3 11.3 -2.6
v 6.3 11.3 -2.5
v 6.2 11.4 -2.5
v 6.2 11.3 -2.5
v 6.3 11.3 -2.5
v 6.3 11.4 -2.5
v 6.3 11.4 -2.6
v 6.3 11.3 -2.6
v 6.2 11.3 -2.6
v 6.2 11.4 -2.6
v 6.4 11.4 -2.5
v 6.4 11.3 -2.5
v 6.4 11.3 -2.6
v 6.4 11.4 -2.6
v 6.3 11.4 -2.5
v 6.3 11.3 -2.5
v 6.4 11.3 -2.5
v 6.4 11.4 -2.5
v 6.4 11.4 -2.6
v 6.4 11.3 -2.6
v 6.3 11.3 -2.6
v 6.3 11.4 -2.6
v 6.5 11.4 -2.6
v 6.5 11.3 -2.6
v 6.5 11.3 -2.5
v 6.5 11.4 -2.5
v 6.5 11.4 -2.5
v 6.5 11.3 -2.5
v 6.6 11.3 -2.5
v 6.6 11.4 -2.5
v 6.6 11.4 -2.6
v 6.6 11.3 -2.6
v 6.5 11.3 -2.6
v 6.5 11.4 -2.6
v 6.6 11.4 -2.6
v 6.6 11.4 -2.5
v 6.7 11.4 -2.5
v 6.7 11.4 -2.6
v 6.6 11.4 -2.5
v 6.6 11.3 -2.5
v 6.7 11.3 -2.5
v 6.7 11.4 -2.5
v 6.7 11.4 -2.6
v 6.7 11.3 -2.6
v 6.6 11.3 -2.6
v 6.6 11.4 -2.6
v 6.8 11.4 -2.5
v 6.8 11.3 -2.5
v 6.8 11.3 -2.6
v 6.8 11.4 -2.6
v 6.7 11.3 -2.5
v 6.7 11.3 -2.6
v 6.8 11.3 -2.6
v 6.8 11.3 -2.5
v 6.7 11.4 -2.5
v 6.7 11.3 -2.5
v 6.8 11.3 -2.5
v 6.8 11.4 -2.5
v 6.8 11.4 -2.6
v 6.8 11.3 -2.6
v 6.7 11.3 -2.6
v 6.7 11.4 -2.6
v 6 11.3 -2.6
v 6 11.2 -2.6
v 6 11.2 -2.5
v 6 11.3 -2.5
v 6 11.3 -2.6
v 6 11.3 -2.5
v 6.1 11.3 -2.5
v 6.1 11.3 -2.6
v 6 11.3 -2.5
v 6 11.2 -2.5
v 6.1 11.2 -2.5
v 6.1 11.3 -2.5
v 6.1 11.3 -2.6
v 6.1 11.2 -2.6
v 6 11.2 -2.6
v 6 11.3 -2.6
v 6.2 11.3 -2.5
v 6.2 11.2 -2.5
v 6.2 11.2 -2.6
v 6.2 11.3 -2.6
v 6.1 11.3 -2.6
v 6.1 11.3 -2.5
v 6.2 11.3 -2.5
v 6.2 11.3 -2.6
v 6.1 11.2 -2.5
v 6.1 11.2 -2.6
v 6.2 11.2 -2.6
v 6.2 11.2 -2.5
v 6.1 11.3 -2.5
v 6.1 11.2 -2.5
v 6.2 11.2 -2.5
v 6.2 11.3 -2.5
v 6.2 11.3 -2.6
v 6.2 11.2 -2.6
v 6.1 11.2 -2.6
v 6.1 11.3 -2.6
v 6.3 11.3 -2.6
v 6.3 11.2 -2.6
v 6.3 11.2 -2.5
v 6.3 11.3 -2.5
v 6.3 11.3 -2.5
v 6.3 11.2 -2.5
v 6.4 11.2 -2.5
v 6.4 11.3 -2.5
v 6.4 11.3 -2.6
v 6.4 11.2 -2.6
v 6.3 11.2 -2.6
v 6.3 11.3 -2.6
v 6.4 11.3 -2.6
v 6.4 11.3 -2.5
v 6.5 11.3 -2.5
v 6.5 11.3 -2.6
v 6.4 11.3 -2.5
v 6.4 11.2 -2.5
v 6.5 11.2 -2.5
v 6.5 11.3 -2.5
v 6.5 11.3 -2.6
v 6.5 11.2 -2.6
v 6.4 11.2 -2.6
v 6.4 11.3 -2.6
v 6.5 11.3 -2.5
v 6.5 11.2 -2.5
v 6.6 11.2 -2.5
v 6.6 11.3 -2.5
v 6.6 11.3 -2.6
v 6.6 11.2 -2.6
v 6.5 11.2 -2.6
v 6.5 11.3 -2.6
v 6.7 11.3 -2.5
v 6.7 11.2 -2.5
v 6.7 11.2 -2.6
v 6.7 11.3 -2.6
v 6.6 11.3 -2.5
v 6.6 11.2 -2.5
v 6.7 11.2 -2.5
v 6.7 11.3 -2.5
v 6.7 11.3 -2.6
v 6.7 11.2 -2.6
v 6.6 11.2 -2.6
v 6.6 11.3 -2.6
v 5.8 11.2 -2.6
v 5.8 11.1 -2.6
v 5.8 11.1 -2.5
v 5.8 11.2 -2.5
v 5.8 11.2 -2.6
v 5.8 11.2 -2.5
v 5.9 11.2 -2.5
v 5.9 11.2 -2.6
v 5.8 11.2 -2.5
v 5.8 11.1 -2.5
v 5.9 11.1 -2.5
v 5.9 11.2 -2.5
v 5.9 11.2 -2.6
v 5.9 11.1 -2.6
v 5.8 11.1 -2.6
v 5.8 11.2 -2.6
v 5.9 11.2 -2.6
v 5.9 11.2 -2.5
v 6 11.2 -2.5
v 6 11.2 -2.6
v 5.9 11.1 -2.5
v 5.9 11.1 -2.6
v 6 11.1 -2.6
v 6 11.1 -2.5
v 5.9 11.2 -2.5
v 5.9 11.1 -2.5
v 6 11.1 -2.5
v 6 11.2 -2.5
v 6 11.2 -2.6
v 6 11.1 -2.6
v 5.9 11.1 -2.6
v 5.9 11.2 -2.6
v 6.1 11.2 -2.5
v 6.1 11.1 -2.5
v 6.1 11.1 -2.6
v 6.1 11.2 -2.6
v 6 11.2 -2.5
v 6 11.1 -2.5
v 6.1 11.1 -2.5
v 6.1 11.2 -2.5
v 6.1 11.2 -2.6
v 6.1 11.1 -2.6
v 6 11.1 -2.6
v 6 11.2 -2.6
v 6.2 11.2 -2.6
v 6.2 11.1 -2.6
v 6.2 11.1 -2.5
v 6.2 11.2 -2.5
v 6.2 11.2 -2.6
v 6.2 11.2 -2.5
v 6.3 11.2 -2.5
v 6.3 11.2 -2.6
v 6.2 11.2 -2.5
v 6.2 11.1 -2.5
v 6.3 11.1 -2.5
v 6.3 11.2 -2.5
v 6.3 11.2 -2.6
v 6.3 11.1 -2.6
v 6.2 11.1 -2.6
v 6.2 11.2 -2.6
v 6.3 11.2 -2.5
v 6.3 11.1 -2.5
v 6.4 11.1 -2.5
v 6.4 11.2 -2.5
v 6.4 11.2 -2.6
v 6.4 11.1 -2.6
v 6.3 11.1 -2.6
v 6.3 11.2 -2.6
v 6.4 11.2 -2.5
v 6.4 11.1 -2.5
v 6.5 11.1 -2.5
v 6.5 11.2 -2.5
v 6.5 11.2 -2.6
v 6.5 11.1 -2.6
v 6.4 11.1 -2.6
v 6.4 11.2 -2.6
v 6.5 11.1 -2.5
v 6.5 11.1 -2.6
v 6.6 11.1 -2.6
v 6.6 11.1 -2.5
v 6.5 11.2 -2.5
v 6.5 11.1 -2.5
v 6.6 11.1 -2.5
v 6.6 11.2 -2.5
v 6.6 11.2 -2.6
v 6.6 11.1 -2.6
v 6.5 11.1 -2.6
v 6.5 11.2 -2.6
v 6.7 11.2 -2.5
v 6.7 11.1 -2.5
v 6.7 11.1 -2.6
v 6.7 11.2 -2.6
v 6.6 11.1 -2.5
v 6.6 11.1 -2.6
v 6.7 11.1 -2.6
v 6.7 11.1 -2.5
v 6.6 11.2 -2.5
v 6.6 11.1 -2.5
v 6.7 11.1 -2.5
v 6.7 11.2 -2.5
v 6.7 11.2 -2.6
v 6.7 11.1 -2.6
v 6.6 11.1 -2.6
v 6.6 11.2 -2.6
v 5.6 11.1 -2.6
v 5.6 11 -2.6
v 5.6 11 -2.5
v 5.6 11.1 -2.5
v 5.6 11.1 -2.6
v 5.6 11.1 -2.5
v 5.7 11.1 -2.5
v 5.7 11.1 -2.6
v 5.6 11.1 -2.5
v 5.6 11 -2.5
v 5.7 11 -2.5
v 5.7 11.1 -2.5
v 5.7 11.1 -2.6
v 5.7 11 -2.6
v 5.6 11 -2.6
v 5.6 11.1 -2.6
v 5.7 11.1 -2.6
v 5.7 11.1 -2.5
v 5.8 11.1 -2.5
v 5.8 11.1 -2.6
v 5.7 11 -2.5
v 5.7 11 -2.6
v 5.8 11 -2.6
v 5.8 11 -2.5
v 5.7 11.1 -2.5
v 5.7 11 -2.5
v 5.8 11 -2.5
v 5.8 11.1 -2.5
v 5.8 11.1 -2.6
v 5.8 11 -2.6
v 5.7 11 -2.6
v 5.7 11.1 -2.6
v 5.9 11.1 -2.5
v 5.9 11 -2.5
v 5.9 11 -2.6
v 5.9 11.1 -2.6
v 5.8 11.1 -2.5
v 5.8 11 -2.5
v 5.9 11 -2.5
v 5.9 11.1 -2.5
v 5.9 11.1 -2.6
v 5.9 11 -2.6
v 5.8 11 -2.6
v 5.8 11.1 -2.6
v 6 11.1 -2.6
v 6 11 -2.6
v 6 11 -2.5
v 6 11.1 -2.5
v 6 11.1 -2.5
v 6 11 -2.5
v 6.1 11 -2.5
v 6.1 11.1 -2.5
v 6.1 11.1 -2.6
v 6.1 11 -2.6
v 6 11 -2.6
v 6 11.1 -2.6
v 6.1 11.1 -2.6
v 6.1 11.1 -2.5
v 6.2 11.1 -2.5
v 6.2 11.1 -2.6
v 6.1 11.1 -2.5
v 6.1 11 -2.5
v 6.2 11 -2.5
v 6.2 11.1 -2.5
v 6.2 11.1 -2.6
v 6.2 11 -2.6
v 6.1 11 -2.6
v 6.1 11.1 -2.6
v 6.2 11 -2.5
v 6.2 11 -2.6
v 6.3 11 -2.6
v 6.3 11 -2.5
v 6.2 11.1 -2.5
v 6.2 11 -2.5
v 6.3 11 -2.5
v 6.3 11.1 -2.5
v 6.3 11.1 -2.6
v 6.3 11 -2.6
v 6.2 11 -2.6
v 6.2 11.1 -2.6
v 6.3 11 -2.5
v 6.3 11 -2.6
v 6.4 11 -2.6
v 6.4 11 -2.5
v 6.3 11.1 -2.5
v 6.3 11 -2.5
v 6.4 11 -2.5
v 6.4 11.1 -2.5
v 6.4 11.1 -2.6
v 6.4 11 -2.6
v 6.3 11 -2.6
v 6.3 11.1 -2.6
v 6.5 11.1 -2.5
v 6.5 11 -2.5
v 6.5 11 -2.6
v 6.5 11.1 -2.6
v 6.4 11 -2.5
v 6.4 11 -2.6
v 6.5 11 -2.6
v 6.5 11 -2.5
v 6.4 11.1 -2.5
v 6.4 11 -2.5
v 6.5 11 -2.5
v 6.5 11.1 -2.5
v 6.5 11.1 -2.6
v 6.5 11 -2.6
v 6.4 11 -2.6
v 6.4 11.1 -2.6
v 5.4 11 -2.6
v 5.4 10.9 -2.6
v 5.4 10.9 -2.5
v 5.4 11 -2.5
v 5.4 11 -2.6
v 5.4 11 -2.5
v 5.5 11 -2.5
v 5.5 11 -2.6
v 5.4 11 -2.5
v 5.4 10.9 -2.5
v 5.5 10.9 -2.5
v 5.5 11 -2.5
v 5.5 11 -2.6
v 5.5 10.9 -2.6
v 5.4 10.9 -2.6
v 5.4 11 -2.6
v 5.5 11 -2.6
v 5.5 11 -2.5
v 5.6 11 -2.5
v 5.6 11 -2.6
v 5.5 10.9 -2.5
v 5.5 10.9 -2.6
v 5.6 10.9 -2.6
v 5.6 10.9 -2.5
v 5.5 11 -2.5
v 5.5 10.9 -2.5
v 5.6 10.9 -2.5
v 5.6 11 -2.5
v 5.6 11 -2.6
v 5.6 10.9 -2.6
v 5.5 10.9 -2.6
v 5.5 11 -2.6
v 5.7 11 -2.5
v 5.7 10.9 -2.5
v 5.7 10.9 -2.6
v 5.7 11 -2.6
v 5.6 11 -2.5
v 5.6 10.9 -2.5
v 5.7 10.9 -2.5
v 5.7 11 -2.5
v 5.7 11 -2.6
v 5.7 10.9 -2.6
v 5.6 10.9 -2.6
v 5.6 11 -2.6
v 5.8 11 -2.6
v 5.8 10.9 -2.6
v 5.8 10.9 -2.5
v 5.8 11 -2.5
v 5.8 11 -2.5
v 5.8 10.9 -2.5
v 5.9 10.9 -2.5
v 5.9 11 -2.5
v 5.9 11 -2.6
v 5.9 10.9 -2.6
v 5.8 10.9 -2.6
v 5.8 11 -2.6
v 5.9 11 -2.6
v 5.9 11 -2.5
v 6 11 -2.5
v 6 11 -2.6
v 5.9 11 -2.5
v 5.9 10.9 -2.5
v 6 10.9 -2.5
v 6 11 -2.5
v 6 11 -2.6
v 6 10.9 -2.6
v 5.9 10.9 -2.6
v 5.9 11 -2.6
v 6 10.9 -2.5
v 6 10.9 -2.6
v 6.1 10.9 -2.6
v 6.1 10.9 -2.5
v 6 11 -2.5
v 6 10.9 -2.5
v 6.1 10.9 -2.5
v 6.1 11 -2.5
v 6.1 11 -2.6
v 6.1 10.9 -2.6
v 6 10.9 -2.6
v 6 11 -2.6
v 6.2 11 -2.5
v 6.2 10.9 -2.5
v 6.2 10.9 -2.6
v 6.2 11 -2.6
v 6.1 10.9 -2.5
v 6.1 10.9 -2.6
v 6.2 10.9 -2.6
v 6.2 10.9 -2.5
v 6.1 11 -2.5
v 6.1 10.9 -2.5
v 6.2 10.9 -2.5
v 6.2 11 -2.5
v 6.2 11 -2.6
v 6.2 10.9 -2.6
v 6.1 10.9 -2.6
v 6.1 11 -2.6
v 5.2 10.9 -2.6
v 5.2 10.8 -2.6
v 5.2 10.8 -2.5
v 5.2 10.9 -2.5
v 5.2 10.9 -2.6
v 5.2 10.9 -2.5
v 5.3 10.9 -2.5
v 5.3 10.9 -2.6
v 5.2 10.9 -2.5
v 5.2 10.8 -2.5
v 5.3 10.8 -2.5
v 5.3 10.9 -2.5
v 5.3 10.9 -2.6
v 5.3 10.8 -2.6
v 5.2 10.8 -2.6
v 5.2 10.9 -2.6
v 5.3 10.9 -2.6
v 5.3 10.9 -2.5
v 5.4 10.9 -2.5
v 5.4 10.9 -2.6
v 5.3 10.8 -2.5
v 5.3 10.8 -2.6
v 5.4 10.8 -2.6
v 5.4 10.8 -2.5
v 5.3 10.9 -2.5
v 5.3 10.8 -2.5
v 5.4 10.8 -2.5
v 5.4 10.9 -2.5
v 5.4 10.9 -2.6
v 5.4 10.8 -2.6
v 5.3 10.8 -2.6
v 5.3 10.9 -2.6
v 5.5 10.9 -2.5
v 5.5 10.8 -2.5
v 5.5 10.8 -2.6
v 5.5 10.9 -2.6
v 5.4 10.9 -2.5
v 5.4 10.8 -2.5
v 5.5 10.8 -2.5
v 5.5 10.9 -2.5
v 5.5 10.9 -2.6
v 5.5 10.8 -2.6
v 5.4 10.8 -2.6
v 5.4 10.9 -2.6
v 5.6 10.9 -2.6
v 5.6 10.8 -2.6
v 5.6 10.8 -2.5
v 5.6 10.9 -2.5
v 5.6 10.9 -2.5
v 5.6 10.8 -2.5
v 5.7 10.8 -2.5
v 5.7 10.9 -2.5
v 5.7 10.9 -2.6
v 5.7 10.8 -2.6
v 5.6 10.8 -2.6
v 5.6 10.9 -2.6
v 5.7 10.9 -2.6
v 5.7 10.9 -2.5
v 5.8 10.9 -2.5
v 5.8 10.9 -2.6
v 5.7 10.8 -2.5
v 5.7 10.8 -2.6
v 5.8 10.8 -2.6
v 5.8 10.8 -2.5
v 5.7 10.9 -2.5
v 5.7 10.8 -2.5
v 5.8 10.8 -2.5
v 5.8 10.9 -2.5
v 5.8 10.9 -2.6
v 5.8 10.8 -2.6
v 5.7 10.8 -2.6
v 5.7 10.9 -2.6
v 5.8 10.8 -2.5
v 5.8 10.8 -2.6
v 5.9 10.8 -2.6
v 5.9 10.8 -2.5
v 5.8 10.9 -2.5
v 5.8 10.8 -2.5
v 5.9 10.8 -2.5
v 5.9 10.9 -2.5
v 5.9 10.9 -2.6
v 5.9 10.8 -2.6
v 5.8 10.8 -2.6
v 5.8 10.9 -2.6
v 6 10.9 -2.5
v 6 10.8 -2.5
v 6 10.8 -2.6
v 6 10.9 -2.6
v 5.9 10.8 -2.5
v 5.9 10.8 -2.6
v 6 10.8 -2.6
v 6 10.8 -2.5
v 5.9 10.9 -2.5
v 5.9 10.8 -2.5
v 6 10.8 -2.5
v 6 10.9 -2.5
v 6 10.9 -2.6
v 6 10.8 -2.6
v 5.9 10.8 -2.6
v 5.9 10.9 -2.6
v 5 10.8 -2.6
v 5 10.7 -2.6
v 5 10.7 -2.5
v 5 10.8 -2.5
v 5 10.8 -2.6
v 5 10.8 -2.5
v 5.1 10.8 -2.5
v 5.1 10.8 -2.6
v 5 10.8 -2.5
v 5 10.7 -2.5
v 5.1 10.7 -2.5
v 5.1 10.8 -2.5
v 5.1 10.8 -2.6
v 5.1 10.7 -2.6
v 5 10.7 -2.6
v 5 10.8 -2.6
v 5.1 10.8 -2.6
v 5.1 10.8 -2.5
v 5.2 10.8 -2.5
v 5.2 10.8 -2.6
v 5.1 10.7 -2.5
v 5.1 10.7 -2.6
v 5.2 10.7 -2.6
v 5.2 10.7 -2.5
v 5.1 10.8 -2.5
v 5.1 10.7 -2.5
v 5.2 10.7 -2.5
v 5.2 10.8 -2.5
v 5.2 10.8 -2.6
v 5.2 10.7 -2.6
v 5.1 10.7 -2.6
v 5.1 10.8 -2.6
v 5.3 10.8 -2.5
v 5.3 10.7 -2.5
v 5.3 10.7 -2.6
v 5.3 10.8 -2.6
v 5.2 10.8 -2.5
v 5.2 10.7 -2.5
v 5.3 10.7 -2.5
v 5.3 10.8 -2.5
v 5.3 10.8 -2.6
v 5.3 10.7 -2.6
v 5.2 10.7 -2.6
v 5.2 10.8 -2.6
v 5.4 10.8 -2.6
v 5.4 10.7 -2.6
v 5.4 10.7 -2.5
v 5.4 10.8 -2.5
v 5.4 10.7 -2.5
v 5.4 10.7 -2.6
v 5.5 10.7 -2.6
v 5.5 10.7 -2.5
v 5.4 10.8 -2.5
v 5.4 10.7 -2.5
v 5.5 10.7 -2.5
v 5.5 10.8 -2.5
v 5.5 10.8 -2.6
v 5.5 10.7 -2.6
v 5.4 10.7 -2.6
v 5.4 10.8 -2.6
v 5.5 10.8 -2.6
v 5.5 10.8 -2.5
v 5.6 10.8 -2.5
v 5.6 10.8 -2.6
v 5.5 10.7 -2.5
v 5.5 10.7 -2.6
v 5.6 10.7 -2.6
v 5.6 10.7 -2.5
v 5.5 10.8 -2.5
v 5.5 10.7 -2.5
v 5.6 10.7 -2.5
v 5.6 10.8 -2.5
v 5.6 10.8 -2.6
v 5.6 10.7 -2.6
v 5.5 10.7 -2.6
v 5.5 10.8 -2.6
v 5.7 10.8 -2.5
v 5.7 10.7 -2.5
v 5.7 10.7 -2.6
v 5.7 10.8 -2.6
v 5.6 10.7 -2.5
v 5.6 10.7 -2.6
v 5.7 10.7 -2.6
v 5.7 10.7 -2.5
v 5.6 10.8 -2.5
v 5.6 10.7 -2.5
v 5.7 10.7 -2.5
v 5.7 10.8 -2.5
v 5.7 10.8 -2.6
v 5.7 10.7 -2.6
v 5.6 10.7 -2.6
v 5.6 10.8 -2.6
v 4.8 10.7 -2.6
v 4.8 10.6 -2.6
v 4.8 10.6 -2.5
v 4.8 10.7 -2.5
v 4.8 10.7 -2.6
v 4.8 10.7 -2.5
v 4.9 10.7 -2.5
v 4.9 10.7 -2.6
v 4.8 10.7 -2.5
v 4.8 10.6 -2.5
v 4.9 10.6 -2.5
v 4.9 10.7 -2.5
v 4.9 10.7 -2.6
v 4.9 10.6 -2.6
v 4.8 10.6 -2.6
v 4.8 10.7 -2.6
v 4.9 10.7 -2.6
v 4.9 10.7 -2.5
v 5 10.7 -2.5
v 5 10.7 -2.6
v 4.9 10.6 -2.5
v 4.9 10.6 -2.6
v 5 10.6 -2.6
v 5 10.6 -2.5
v 4.9 10.7 -2.5
v 4.9 10.6 -2.5
v 5 10.6 -2.5
v 5 10.7 -2.5
v 5 10.7 -2.6
v 5 10.6 -2.6
v 4.9 10.6 -2.6
v 4.9 10.7 -2.6
v 5.1 10.7 -2.5
v 5.1 10.6 -2.5
v 5.1 10.6 -2.6
v 5.1 10.7 -2.6
v 5 10.7 -2.5
v 5 10.6 -2.5
v 5.1 10.6 -2.5
v 5.1 10.7 -2.5
v 5.1 10.7 -2.6
v 5.1 10.6 -2.6
v 5 10.6 -2.6
v 5 10.7 -2.6
v 5.2 10.7 -2.6
v 5.2 10.6 -2.6
v 5.2 10.6 -2.5
v 5.2 10.7 -2.5
v 5.2 10.6 -2.5
v 5.2 10.6 -2.6
v 5.3 10.6 -2.6
v 5.3 10.6 -2.5
v 5.2 10.7 -2.5
v 5.2 10.6 -2.5
v 5.3 10.6 -2.5
v 5.3 10.7 -2.5
v 5.3 10.7 -2.6
v 5.3 10.6 -2.6
v 5.2 10.6 -2.6
v 5.2 10.7 -2.6
v 5.4 10.7 -2.5
v 5.4 10.6 -2.5
v 5.4 10.6 -2.6
v 5.4 10.7 -2.6
v 5.3 10.7 -2.6
v 5.3 10.7 -2.5
v 5.4 10.7 -2.5
v 5.4 10.7 -2.6
v 5.3 10.6 -2.5
v 5.3 10.6 -2.6
v 5.4 10.6 -2.6
v 5.4 10.6 -2.5
v 5.3 10.7 -2.5
v 5.3 10.6 -2.5
v 5.4 10.6 -2.5
v 5.4 10.7 -2.5
v 5.4 10.7 -2.6
v 5.4 10.6 -2.6
v 5.3 10.6 -2.6
v 5.3 10.7 -2.6
v 4.6 10.6 -2.6
v 4.6 10.5 -2.6
v 4.6 10.5 -2.5
v 4.6 10.6 -2.5
v 4.6 10.6 -2.6
v 4.6 10.6 -2.5
v 4.7 10.6 -2.5
v 4.7 10.6 -2.6
v 4.6 10.6 -2.5
v 4.6 10.5 -2.5
v 4.7 10.5 -2.5
v 4.7 10.6 -2.5
v 4.7 10.6 -2.6
v 4.7 10.5 -2.6
v 4.6 10.5 -2.6
v 4.6 10.6 -2.6
v 4.7 10.6 -2.6
v 4.7 10.6 -2.5
v 4.8 10.6 -2.5
v 4.8 10.6 -2.6
v 4.7 10.5 -2.5
v 4.7 10.5 -2.6
v 4.8 10.5 -2.6
v 4.8 10.5 -2.5
v 4.7 10.6 -2.5
v 4.7 10.5 -2.5
v 4.8 10.5 -2.5
v 4.8 10.6 -2.5
v 4.8 10.6 -2.6
v 4.8 10.5 -2.6
v 4.7 10.5 -2.6
v 4.7 10.6 -2.6
v 4.9 10.6 -2.5
v 4.9 10.5 -2.5
v 4.9 10.5 -2.6
v 4.9 10.6 -2.6
v 4.8 10.6 -2.5
v 4.8 10.5 -2.5
v 4.9 10.5 -2.5
v 4.9 10.6 -2.5
v 4.9 10.6 -2.6
v 4.9 10.5 -2.6
v 4.8 10.5 -2.6
v 4.8 10.6 -2.6
v 5 10.6 -2.6
v 5 10.5 -2.6
v 5 10.5 -2.5
v 5 10.6 -2.5
v 5 10.5 -2.5
v 5 10.5 -2.6
v 5.1 10.5 -2.6
v 5.1 10.5 -2.5
v 5 10.6 -2.5
v 5 10.5 -2.5
v 5.1 10.5 -2.5
v 5.1 10.6 -2.5
v 5.1 10.6 -2.6
v 5.1 10.5 -2.6
v 5 10.5 -2.6
v 5 10.6 -2.6
v 5.2 10.6 -2.5
v 5.2 10.5 -2.5
v 5.2 10.5 -2.6
v 5.2 10.6 -2.6
v 5.1 10.6 -2.6
v 5.1 10.6 -2.5
v 5.2 10.6 -2.5
v 5.2 10.6 -2.6
v 5.1 10.5 -2.5
v 5.1 10.5 -2.6
v 5.2 10.5 -2.6
v 5.2 10.5 -2.5
v 5.1 10.6 -2.5
v 5.1 10.5 -2.5
v 5.2 10.5 -2.5
v 5.2 10.6 -2.5
v 5.2 10.6 -2.6
v 5.2 10.5 -2.6
v 5.1 10.5 -2.6
v 5.1 10.6 -2.6
v 4.4 10.5 -2.6
v 4.4 10.4 -2.6
v 4.4 10.4 -2.5
v 4.4 10.5 -2.5
v 4.4 10.5 -2.6
v 4.4 10.5 -2.5
v 4.5 10.5 -2.5
v 4.5 10.5 -2.6
v 4.4 10.5 -2.5
v 4.4 10.4 -2.5
v 4.5 10.4 -2.5
v 4.5 10.5 -2.5
v 4.5 10.5 -2.6
v 4.5 10.4 -2.6
v 4.4 10.4 -2.6
v 4.4 10.5 -2.6
v 4.5 10.5 -2.6
v 4.5 10.5 -2.5
v 4.6 10.5 -2.5
v 4.6 10.5 -2.6
v 4.5 10.4 -2.5
v 4.5 10.4 -2.6
v 4.6 10.4 -2.6
v 4.6 10.4 -2.5
v 4.5 10.5 -2.5
v 4.5 10.4 -2.5
v 4.6 10.4 -2.5
v 4.6 10.5 -2.5
v 4.6 10.5 -2.6
v 4.6 10.4 -2.6
v 4.5 10.4 -2.6
v 4.5 10.5 -2.6
v 4.7 10.5 -2.5
v 4.7 10.4 -2.5
v 4.7 10.4 -2.6
v 4.7 10.5 -2.6
v 4.6 10.4 -2.5
v 4.6 10.4 -2.6
v 4.7 10.4 -2.6
v 4.7 10.4 -2.5
v 4.6 10.5 -2.5
v 4.6 10.4 -2.5
v 4.7 10.4 -2.5
v 4.7 10.5 -2.5
v 4.7 10.5 -2.6
v 4.7 10.4 -2.6
v 4.6 10.4 -2.6
v 4.6 10.5 -2.6
v 4.8 10.5 -2.6
v 4.8 10.4 -2.6
v 4.8 10.4 -2.5
v 4.8 10.5 -2.5
v 4.9 10.5 -2.5
v 4.9 10.4 -2.5
v 4.9 10.4 -2.6
v 4.9 10.5 -2.6
v 4.8 10.4 -2.5
v 4.8 10.4 -2.6
v 4.9 10.4 -2.6
v 4.9 10.4 -2.5
v 4.8 10.5 -2.5
v 4.8 10.4 -2.5
v 4.9 10.4 -2.5
v 4.9 10.5 -2.5
v 4.9 10.5 -2.6
v 4.9 10.4 -2.6
v 4.8 10.4 -2.6
v 4.8 10.5 -2.6
v 4.2 10.4 -2.6
v 4.2 10.3 -2.6
v 4.2 10.3 -2.5
v 4.2 10.4 -2.5
v 4.2 10.4 -2.6
v 4.2 10.4 -2.5
v 4.3 10.4 -2.5
v 4.3 10.4 -2.6
v 4.2 10.4 -2.5
v 4.2 10.3 -2.5
v 4.3 10.3 -2.5
v 4.3 10.4 -2.5
v 4.3 10.4 -2.6
v 4.3 10.3 -2.6
v 4.2 10.3 -2.6
v 4.2 10.4 -2.6
v 4.3 10.4 -2.6
v 4.3 10.4 -2.5
v 4.4 10.4 -2.5
v 4.4 10.4 -2.6
v 4.3 10.3 -2.5
v 4.3 10.3 -2.6
v 4.4 10.3 -2.6
v 4.4 10.3 -2.5
v 4.3 10.4 -2.5
v 4.3 10.3 -2.5
v 4.4 10.3 -2.5
v 4.4 10.4 -2.5
v 4.4 10.4 -2.6
v 4.4 10.3 -2.6
v 4.3 10.3 -2.6
v 4.3 10.4 -2.6
v 4.5 10.4 -2.5
v 4.5 10.3 -2.5
v 4.5 10.3 -2.6
v 4.5 10.4 -2.6
v 4.4 10.3 -2.5
v 4.4 10.3 -2.6
v 4.5 10.3 -2.6
v 4.5 10.3 -2.5
v 4.4 10.4 -2.5
v 4.4 10.3 -2.5
v 4.5 10.3 -2.5
v 4.5 10.4 -2.5
v 4.5 10.4 -2.6
v 4.5 10.3 -2.6
v 4.4 10.3 -2.6
v 4.4 10.4 -2.6
v 4 10.3 -2.6
v 4 10.2 -2.6
v 4 10.2 -2.5
v 4 10.3 -2.5
v 4 10.3 -2.6
v 4 10.3 -2.5
v 4.1 10.3 -2.5
v 4.1 10.3 -2.6
v 4 10.3 -2.5
v 4 10.2 -2.5
v 4.1 10.2 -2.5
v 4.1 10.3 -2.5
v 4.1 10.3 -2.6
v 4.1 10.2 -2.6
v 4 10.2 -2.6
v 4 10.3 -2.6
v 4.1 10.3 -2.6
v 4.1 10.3 -2.5
v 4.2 10.3 -2.5
v 4.2 10.3 -2.6
v 4.1 10.2 -2.5
v 4.1 10.2 -2.6
v 4.2 10.2 -2.6
v 4.2 10.2 -2.5
v 4.1 10.3 -2.5
v 4.1 10.2 -2.5
v 4.2 10.2 -2.5
v 4.2 10.3 -2.5
v 4.2 10.3 -2.6
v 4.2 10.2 -2.6
v 4.1 10.2 -2.6
v 4.1 10.3 -2.6
v 4.3 10.3 -2.5
v 4.3 10.2 -2.5
v 4.3 10.2 -2.6
v 4.3 10.3 -2.6
v 4.2 10.2 -2.5
v 4.2 10.2 -2.6
v 4.3 10.2 -2.6
v 4.3 10.2 -2.5
v 4.2 10.3 -2.5
v 4.2 10.2 -2.5
v 4.3 10.2 -2.5
v 4.3 10.3 -2.5
v 4.3 10.3 -2.6
v 4.3 10.2 -2.6
v 4.2 10.2 -2.6
v 4.2 10.3 -2.6
v 3.8 10.2 -2.6
v 3.8 10.1 -2.6
v 3.8 10.1 -2.5
v 3.8 10.2 -2.5
v 3.8 10.2 -2.6
v 3.8 10.2 -2.5
v 3.9 10.2 -2.5
v 3.9 10.2 -2.6
v 3.8 10.1 -2.5
v 3.8 10.1 -2.6
v 3.9 10.1 -2.6
v 3.9 10.1 -2.5
v 3.8 10.2 -2.5
v 3.8 10.1 -2.5
v 3.9 10.1 -2.5
v 3.9 10.2 -2.5
v 3.9 10.2 -2.6
v 3.9 10.1 -2.6
v 3.8 10.1 -2.6
v 3.8 10.2 -2.6
v 3.9 10.2 -2.6
v 3.9 10.2 -2.5
v 4 10.2 -2.5
v 4 10.2 -2.6
v 3.9 10.1 -2.5
v 3.9 10.1 -2.6
v 4 10.1 -2.6
v 4 10.1 -2.5
v 3.9 10.2 -2.5
v 3.9 10.1 -2.5
v 4 10.1 -2.5
v 4 10.2 -2.5
v 4 10.2 -2.6
v 4 10.1 -2.6
v 3.9 10.1 -2.6
v 3.9 10.2 -2.6
v 4.1 10.2 -2.5
v 4.1 10.1 -2.5
v 4.1 10.1 -2.6
v 4.1 10.2 -2.6
v 4 10.1 -2.5
v 4 10.1 -2.6
v 4.1 10.1 -2.6
v 4.1 10.1 -2.5
v 4 10.2 -2.5
v 4 10.1 -2.5
v 4.1 10.1 -2.5
v 4.1 10.2 -2.5
v 4.1 10.2 -2.6
v 4.1 10.1 -2.6
v 4 10.1 -2.6
v 4 10.2 -2.6
v 3.7 10.1 -2.6
v 3.7 10 -2.6
v 3.7 10 -2.5
v 3.7 10.1 -2.5
v 3.8 10.1 -2.5
v 3.8 10 -2.5
v 3.8 10 -2.6
v 3.8 10.1 -2.6
v 3.7 10.1 -2.6
v 3.7 10.1 -2.5
v 3.8 10.1 -2.5
v 3.8 10.1 -2.6
v 3.7 10 -2.5
v 3.7 10 -2.6
v 3.8 10 -2.6
v 3.8 10 -2.5
v 3.7 10.1 -2.5
v 3.7 10 -2.5
v 3.8 10 -2.5
v 3.8 10.1 -2.5
v 3.8 10.1 -2.6
v 3.8 10 -2.6
v 3.7 10 -2.6
v 3.7 10.1 -2.6

# faces
f 1/1/1 2/1/1 3/1/1 4/1/1
f 5/1/3 6/1/3 7/1/3 8/1/3
f 9/1/4 10/1/4 11/1/4 12/1/4
f 13/1/5 14/1/5 15/1/5 16/1/5
f 17/1/6 18/1/6 19/1/6 20/1/6
f 21/1/2 22/1/2 23/1/2 24/1/2
f 25/1/3 26/1/3 27/1/3 28/1/3
f 29/1/4 30/1/4 31/1/4 32/1/4
f 33/1/5 34/1/5 35/1/5 36/1/5
f 37/1/6 38/1/6 39/1/6 40/1/6
f 41/1/1 42/1/1 43/1/1 44/1/1
f 45/1/3 46/1/3 47/1/3 48/1/3
f 49/1/5 50/1/5 51/1/5 52/1/5
f 53/1/6 54/1/6 55/1/6 56/1/6
f 57/1/2 58/1/2 59/1/2 60/1/2
f 61/1/3 62/1/3 63/1/3 64/1/3
f 65/1/4 66/1/4 67/1/4 68/1/4
f 69/1/5 70/1/5 71/1/5 72/1/5
f 73/1/6 74/1/6 75/1/6 76/1/6
f 77/1/1 78/1/1 79/1/1 80/1/1
f 81/1/3 82/1/3 83/1/3 84/1/3
f 85/1/5 86/1/5 87/1/5 88/1/5
f 89/1/6 90/1/6 91/1/6 92/1/6
f 93/1/3 94/1/3 95/1/3 96/1/3
f 97/1/4 98/1/4 99/1/4 100/1/4
f 101/1/5 102/1/5 103/1/5 104/1/5
f 105/1/6 106/1/6 107/1/6 108/1/6
f 109/2/2 110/2/2 111/2/2 112/2/2
f 113/2/5 114/2/5 115/2/5 116/2/5
f 117/2/6 118/2/6 119/2/6 120/2/6
f 121/3/1 122/3/1 123/3/1 124/3/1
f 125/3/2 126/3/2 127/3/2 128/3/2
f 129/3/3 130/3/3 131/3/3 132/3/3
f 133/3/4 134/3/4 135/3/4 136/3/4
f 137/3/5 138/3/5 139/3/5 140/3/5
f 141/3/6 142/3/6 143/3/6 144/3/6
f 145/1/1 146/1/1 147/1/1 148/1/1
f 149/1/3 150/1/3 151/1/3 152/1/3
f 153/1/4 154/1/4 155/1/4 156/1/4
f 157/1/5 158/1/5 159/1/5 160/1/5
f 161/1/6 162/1/6 163/1/6 164/1/6
f 165/2/2 166/2/2 167/2/2 168/2/2
f 169/2/5 170/2/5 171/2/5 172/2/5
f 173/2/6 174/2/6 175/2/6 176/2/6
f 177/3/1 178/3/1 179/3/1 180/3/1
f 181/3/5 182/3/5 183/3/5 184/3/5
f 185/3/6 186/3/6 187/3/6 188/3/6
f 189/3/2 190/3/2 191/3/2 192/3/2
f 193/3/3 194/3/3 195/3/3 196/3/3
f 197/3/5 198/3/5 199/3/5 200/3/5
f 201/3/6 202/3/6 203/3/6 204/3/6
f 205/3/1 206/3/1 207/3/1 208/3/1
f 209/3/5 210/3/5 211/3/5 212/3/5
f 213/3/6 214/3/6 215/3/6 216/3/6
f 217/3/3 218/3/3 219/3/3 220/3/3
f 221/3/5 222/3/5 223/3/5 224/3/5
f 225/3/6 226/3/6 227/3/6 228/3/6
f 229/3/5 230/3/5 231/3/5 232/3/5
f 233/3/6 234/3/6 235/3/6 236/3/6
f 237/3/2 238/3/2 239/3/2 240/3/2
f 241/3/4 242/3/4 243/3/4 244/3/4
f 245/3/5 246/3/5 247/3/5 248/3/5
f 249/3/6 250/3/6 251/3/6 252/3/6
f 253/3/1 254/3/1 255/3/1 256/3/1
f 257/3/3 258/3/3 259/3/3 260/3/3
f 261/3/4 262/3/4 263/3/4 264/3/4
f 265/3/5 266/3/5 267/3/5 268/3/5
f 269/3/6 270/3/6 271/3/6 272/3/6
f 273/3/5 274/3/5 275/3/5 276/3/5
f 277/3/6 278/3/6 279/3/6 280/3/6
f 281/3/5 282/3/5 283/3/5 284/3/5
f 285/3/6 286/3/6 287/3/6 288/3/6
f 289/3/2 290/3/2 291/3/2 292/3/2
f 293/3/5 294/3/5 295/3/5 296/3/5
f 297/3/6 298/3/6 299/3/6 300/3/6
f 301/3/1 302/3/1 303/3/1 304/3/1
f 305/3/5 306/3/5 307/3/5 308/3/5
f 309/3/6 310/3/6 311/3/6 312/3/6
f 313/3/5 314/3/5 315/3/5 316/3/5
f 317/3/6 318/3/6 319/3/6 320/3/6
f 321/3/2 322/3/2 323/3/2 324/3/2
f 325/3/4 326/3/4 327/3/4 328/3/4
f 329/3/5 330/3/5 331/3/5 332/3/5
f 333/3/6 334/3/6 335/3/6 336/3/6
f 337/3/1 338/3/1 339/3/1 340/3/1
f 341/3/5 342/3/5 343/3/5 344/3/5
f 345/3/6 346/3/6 347/3/6 348/3/6
f 349/3/2 350/3/2 351/3/2 352/3/2
f 353/3/5 354/3/5 355/3/5 356/3/5
f 357/3/6 358/3/6 359/3/6 360/3/6
f 361/3/1 362/3/1 363/3/1 364/3/1
f 365/3/5 366/3/5 367/3/5 368/3/5
f 369/3/6 370/3/6 371/3/6 372/3/6
f 373/3/2 374/3/2 375/3/2 376/3/2
f 377/3/4 378/3/4 379/3/4 380/3/4
f 381/3/5 382/3/5 383/3/5 384/3/5
f 385/3/6 386/3/6 387/3/6 388/3/6
f 389/3/1 390/3/1 391/3/1 392/3/1
f 393/3/2 394/3/2 395/3/2 396/3/2
f 397/3/5 398/3/5 399/3/5 400/3/5
f 401/3/6 402/3/6 403/3/6 404/3/6
f 405/3/1 406/3/1 407/3/1 408/3/1
f 409/3/2 410/3/2 411/3/2 412/3/2
f 413/3/4 414/3/4 415/3/4 416/3/4
f 417/3/5 418/3/5 419/3/5 420/3/5
f 421/3/6 422/3/6 423/3/6 424/3/6
f 425/1/1 426/1/1 427/1/1 428/1/1
f 429/1/3 430/1/3 431/1/3 432/1/3
f 433/1/4 434/1/4 435/1/4 436/1/4
f 437/1/5 438/1/5 439/1/5 440/1/5
f 441/1/6 442/1/6 443/1/6 444/1/6
f 445/1/2 446/1/2 447/1/2 448/1/2
f 449/1/3 450/1/3 451/1/3 452/1/3
f 453/1/4 454/1/4 455/1/4 456/1/4
f 457/1/5 458/1/5 459/1/5 460/1/5
f 461/1/6 462/1/6 463/1/6 464/1/6
f 465/1/1 466/1/1 467/1/1 468/1/1
f 469/1/3 470/1/3 471/1/3 472/1/3
f 473/1/5 474/1/5 475/1/5 476/1/5
f 477/1/6 478/1/6 479/1/6 480/1/6
f 481/1/2 482/1/2 483/1/2 484/1/2
f 485/1/3 486/1/3 487/1/3 488/1/3
f 489/1/4 490/1/4 491/1/4 492/1/4
f 493/1/5 494/1/5 495/1/5 496/1/5
f 497/1/6 498/1/6 499/1/6 500/1/6
f 501/1/1 502/1/1 503/1/1 504/1/1
f 505/1/3 506/1/3 507/1/3 508/1/3
f 509/1/5 510/1/5 511/1/5 512/1/5
f 513/1/6 514/1/6 515/1/6 516/1/6
f 517/1/3 518/1/3 519/1/3 520/1/3
f 521/1/4 522/1/4 523/1/4 524/1/4
f 525/1/5 526/1/5 527/1/5 528/1/5
f 529/1/6 530/1/6 531/1/6 532/1/6
f 533/2/2 534/2/2 535/2/2 536/2/2
f 537/2/5 538/2/5 539/2/5 540/2/5
f 541/2/6 542/2/6 543/2/6 544/2/6
f 545/3/1 546/3/1 547/3/1 548/3/1
f 549/3/2 550/3/2 551/3/2 552/3/2
f 553/3/3 554/3/3 555/3/3 556/3/3
f 557/3/5 558/3/5 559/3/5 560/3/5
f 561/3/6 562/3/6 563/3/6 564/3/6
f 565/1/1 566/1/1 567/1/1 568/1/1
f 569/1/3 570/1/3 571/1/3 572/1/3
f 573/1/4 574/1/4 575/1/4 576/1/4
f 577/1/5 578/1/5 579/1/5 580/1/5
f 581/1/6 582/1/6 583/1/6 584/1/6
f 585/2/2 586/2/2 587/2/2 588/2/2
f 589/2/5 590/2/5 591/2/5 592/2/5
f 593/2/6 594/2/6 595/2/6 596/2/6
f 597/3/1 598/3/1 599/3/1 600/3/1
f 601/3/5 602/3/5 603/3/5 604/3/5
f 605/3/6 606/3/6 607/3/6 608/3/6
f 609/3/3 610/3/3 611/3/3 612/3/3
f 613/3/5 614/3/5 615/3/5 616/3/5
f 617/3/6 618/3/6 619/3/6 620/3/6
f 621/3/2 622/3/2 623/3/2 624/3/2
f 625/3/4 626/3/4 627/3/4 628/3/4
f 629/3/5 630/3/5 631/3/5 632/3/5
f 633/3/6 634/3/6 635/3/6 636/3/6
f 637/1/1 638/1/1 639/1/1 640/1/1
f 641/1/3 642/1/3 643/1/3 644/1/3
f 645/1/5 646/1/5 647/1/5 648/1/5
f 649/1/6 650/1/6 651/1/6 652/1/6
f 653/1/2 654/1/2 655/1/2 656/1/2
f 657/1/3 658/1/3 659/1/3 660/1/3
f 661/1/4 662/1/4 663/1/4 664/1/4
f 665/1/5 666/1/5 667/1/5 668/1/5
f 669/1/6 670/1/6 671/1/6 672/1/6
f 673/3/1 674/3/1 675/3/1 676/3/1
f 677/3/5 678/3/5 679/3/5 680/3/5
f 681/3/6 682/3/6 683/3/6 684/3/6
f 685/3/3 686/3/3 687/3/3 688/3/3
f 689/3/5 690/3/5 691/3/5 692/3/5
f 693/3/6 694/3/6 695/3/6 696/3/6
f 697/3/5 698/3/5 699/3/5 700/3/5
f 701/3/6 702/3/6 703/3/6 704/3/6
f 705/3/2 706/3/2 707/3/2 708/3/2
f 709/3/5 710/3/5 711/3/5 712/3/5
f 713/3/6 714/3/6 715/3/6 716/3/6
f 717/1/1 718/1/1 719/1/1 720/1/1
f 721/1/3 722/1/3 723/1/3 724/1/3
f 725/1/5 726/1/5 727/1/5 728/1/5
f 729/1/6 730/1/6 731/1/6 732/1/6
f 733/1/3 734/1/3 735/1/3 736/1/3
f 737/1/4 738/1/4 739/1/4 740/1/4
f 741/1/5 742/1/5 743/1/5 744/1/5
f 745/1/6 746/1/6 747/1/6 748/1/6
f 749/2/2 750/2/2 751/2/2 752/2/2
f 753/2/5 754/2/5 755/2/5 756/2/5
f 757/2/6 758/2/6 759/2/6 760/2/6
f 761/3/1 762/3/1 763/3/1 764/3/1
f 765/3/3 766/3/3 767/3/3 768/3/3
f 769/3/5 770/3/5 771/3/5 772/3/5
f 773/3/6 774/3/6 775/3/6 776/3/6
f 777/3/5 778/3/5 779/3/5 780/3/5
f 781/3/6 782/3/6 783/3/6 784/3/6
f 785/3/5 786/3/5 787/3/5 788/3/5
f 789/3/6 790/3/6 791/3/6 792/3/6
f 793/3/4 794/3/4 795/3/4 796/3/4
f 797/3/5 798/3/5 799/3/5 800/3/5
f 801/3/6 802/3/6 803/3/6 804/3/6
f 805/3/2 806/3/2 807/3/2 808/3/2
f 809/3/4 810/3/4 811/3/4 812/3/4
f 813/3/5 814/3/5 815/3/5 816/3/5
f 817/3/6 818/3/6 819/3/6 820/3/6
f 821/1/1 822/1/1 823/1/1 824/1/1
f 825/1/3 826/1/3 827/1/3 828/1/3
f 829/1/5 830/1/5 831/1/5 832/1/5
f 833/1/6 834/1/6 835/1/6 836/1/6
f 837/1/3 838/1/3 839/1/3 840/1/3
f 841/1/4 842/1/4 843/1/4 844/1/4
f 845/1/5 846/1/5 847/1/5 848/1/5
f 849/1/6 850/1/6 851/1/6 852/1/6
f 853/2/2 854/2/2 855/2/2 856/2/2
f 857/2/5 858/2/5 859/2/5 860/2/5
f 861/2/6 862/2/6 863/2/6 864/2/6
f 865/3/1 866/3/1 867/3/1 868/3/1
f 869/3/5 870/3/5 871/3/5 872/3/5
f 873/3/6 874/3/6 875/3/6 876/3/6
f 877/3/3 878/3/3 879/3/3 880/3/3
f 881/3/5 882/3/5 883/3/5 884/3/5
f 885/3/6 886/3/6 887/3/6 888/3/6
f 889/3/4 890/3/4 891/3/4 892/3/4
f 893/3/5 894/3/5 895/3/5 896/3/5
f 897/3/6 898/3/6 899/3/6 900/3/6
f 901/3/4 902/3/4 903/3/4 904/3/4
f 905/3/5 906/3/5 907/3/5 908/3/5
f 909/3/6 910/3/6 911/3/6 912/3/6
f 913/3/2 914/3/2 915/3/2 916/3/2
f 917/3/4 918/3/4 919/3/4 920/3/4
f 921/3/5 922/3/5 923/3/5 924/3/5
f 925/3/6 926/3/6 927/3/6 928/3/6
f 929/1/1 930/1/1 931/1/1 932/1/1
f 933/1/3 934/1/3 935/1/3 936/1/3
f 937/1/5 938/1/5 939/1/5 940/1/5
f 941/1/6 942/1/6 943/1/6 944/1/6
f 945/1/3 946/1/3 947/1/3 948/1/3
f 949/1/4 950/1/4 951/1/4 952/1/4
f 953/1/5 954/1/5 955/1/5 956/1/5
f 957/1/6 958/1/6 959/1/6 960/1/6
f 961/2/2 962/2/2 963/2/2 964/2/2
f 965/2/5 966/2/5 967/2/5 968/2/5
f 969/2/6 970/2/6 971/2/6 972/2/6
f 973/3/1 974/3/1 975/3/1 976/3/1
f 977/3/5 978/3/5 979/3/5 980/3/5
f 981/3/6 982/3/6 983/3/6 984/3/6
f 985/3/3 986/3/3 987/3/3 988/3/3
f 989/3/5 990/3/5 991/3/5 992/3/5
f 993/3/6 994/3/6 995/3/6 996/3/6
f 997/3/4 998/3/4 999/3/4 1000/3/4
f 1001/3/5 1002/3/5 1003/3/5 1004/3/5
f 1005/3/6 1006/3/6 1007/3/6 1008/3/6
f 1009/3/2 1010/3/2 1011/3/2 1012/3/2
f 1013/3/4 1014/3/4 1015/3/4 1016/3/4
f 1017/3/5 1018/3/5 1019/3/5 1020/3/5
f 1021/3/6 1022/3/6 1023/3/6 1024/3/6
f 1025/1/1 1026/1/1 1027/1/1 1028/1/1
f 1029/1/3 1030/1/3 1031/1/3 1032/1/3
f 1033/1/5 1034/1/5 1035/1/5 1036/1/5
f 1037/1/6 1038/1/6 1039/1/6 1040/1/6
f 1041/1/3 1042/1/3 1043/1/3 1044/1/3
f 1045/1/4 1046/1/4 1047/1/4 1048/1/4
f 1049/1/5 1050/1/5 1051/1/5 1052/1/5
f 1053/1/6 1054/1/6 1055/1/6 1056/1/6
f 1057/2/2 1058/2/2 1059/2/2 1060/2/2
f 1061/2/5 1062/2/5 1063/2/5 1064/2/5
f 1065/2/6 1066/2/6 1067/2/6 1068/2/6
f 1069/3/1 1070/3/1 1071/3/1 1072/3/1
f 1073/3/5 1074/3/5 1075/3/5 1076/3/5
f 1077/3/6 1078/3/6 1079/3/6 1080/3/6
f 1081/3/3 1082/3/3 1083/3/3 1084/3/3
f 1085/3/4 1086/3/4 1087/3/4 1088/3/4
f 1089/3/5 1090/3/5 1091/3/5 1092/3/5
f 1093/3/6 1094/3/6 1095/3/6 1096/3/6
f 1097/3/4 1098/3/4 1099/3/4 1100/3/4
f 1101/3/5 1102/3/5 1103/3/5 1104/3/5
f 1105/3/6 1106/3/6 1107/3/6 1108/3/6
f 1109/3/2 1110/3/2 1111/3/2 1112/3/2
f 1113/3/4 1114/3/4 1115/3/4 1116/3/4
f 1117/3/5 1118/3/5 1119/3/5 1120/3/5
f 1121/3/6 1122/3/6 1123/3/6 1124/3/6
f 1125/1/1 1126/1/1 1127/1/1 1128/1/1
f 1129/1/3 1130/1/3 1131/1/3 1132/1/3
f 1133/1/5 1134/1/5 1135/1/5 1136/1/5
f 1137/1/6 1138/1/6 1139/1/6 1140/1/6
f 1141/1/3 1142/1/3 1143/1/3 1144/1/3
f 1145/1/4 1146/1/4 1147/1/4 1148/1/4
f 1149/1/5 1150/1/5 1151/1/5 1152/1/5
f 1153/1/6 1154/1/6 1155/1/6 1156/1/6
f 1157/2/2 1158/2/2 1159/2/2 1160/2/2
f 1161/2/5 1162/2/5 1163/2/5 1164/2/5
f 1165/2/6 1166/2/6 1167/2/6 1168/2/6
f 1169/3/1 1170/3/1 1171/3/1 1172/3/1
f 1173/3/4 1174/3/4 1175/3/4 1176/3/4
f 1177/3/5 1178/3/5 1179/3/5 1180/3/5
f 1181/3/6 1182/3/6 1183/3/6 1184/3/6
f 1185/3/3 1186/3/3 1187/3/3 1188/3/3
f 1189/3/4 1190/3/4 1191/3/4 1192/3/4
f 1193/3/5 1194/3/5 1195/3/5 1196/3/5
f 1197/3/6 1198/3/6 1199/3/6 1200/3/6
f 1201/3/2 1202/3/2 1203/3/2 1204/3/2
f 1205/3/4 1206/3/4 1207/3/4 1208/3/4
f 1209/3/5 1210/3/5 1211/3/5 1212/3/5
f 1213/3/6 1214/3/6 1215/3/6 1216/3/6
f 1217/1/1 1218/1/1 1219/1/1 1220/1/1
f 1221/1/3 1222/1/3 1223/1/3 1224/1/3
f 1225/1/5 1226/1/5 1227/1/5 1228/1/5
f 1229/1/6 1230/1/6 1231/1/6 1232/1/6
f 1233/1/3 1234/1/3 1235/1/3 1236/1/3
f 1237/1/4 1238/1/4 1239/1/4 1240/1/4
f 1241/1/5 1242/1/5 1243/1/5 1244/1/5
f 1245/1/6 1246/1/6 1247/1/6 1248/1/6
f 1249/2/2 1250/2/2 1251/2/2 1252/2/2
f 1253/2/5 1254/2/5 1255/2/5 1256/2/5
f 1257/2/6 1258/2/6 1259/2/6 1260/2/6
f 1261/3/1 1262/3/1 1263/3/1 1264/3/1
f 1265/3/4 1266/3/4 1267/3/4 1268/3/4
f 1269/3/5 1270/3/5 1271/3/5 1272/3/5
f 1273/3/6 1274/3/6 1275/3/6 1276/3/6
f 1277/3/2 1278/3/2 1279/3/2 1280/3/2
f 1281/3/3 1282/3/3 1283/3/3 1284/3/3
f 1285/3/4 1286/3/4 1287/3/4 1288/3/4
f 1289/3/5 1290/3/5 1291/3/5 1292/3/5
f 1293/3/6 1294/3/6 1295/3/6 1296/3/6
f 1297/1/1 1298/1/1 1299/1/1 1300/1/1
f 1301/1/3 1302/1/3 1303/1/3 1304/1/3
f 1305/1/5 1306/1/5 1307/1/5 1308/1/5
f 1309/1/6 1310/1/6 1311/1/6 1312/1/6
f 1313/1/3 1314/1/3 1315/1/3 1316/1/3
f 1317/1/4 1318/1/4 1319/1/4 1320/1/4
f 1321/1/5 1322/1/5 1323/1/5 1324/1/5
f 1325/1/6 1326/1/6 1327/1/6 1328/1/6
f 1329/2/2 1330/2/2 1331/2/2 1332/2/2
f 1333/2/5 1334/2/5 1335/2/5 1336/2/5
f 1337/2/6 1338/2/6 1339/2/6 1340/2/6
f 1341/3/1 1342/3/1 1343/3/1 1344/3/1
f 1345/3/4 1346/3/4 1347/3/4 1348/3/4
f 1349/3/5 1350/3/5 1351/3/5 1352/3/5
f 1353/3/6 1354/3/6 1355/3/6 1356/3/6
f 1357/3/2 1358/3/2 1359/3/2 1360/3/2
f 1361/3/3 1362/3/3 1363/3/3 1364/3/3
f 1365/3/4 1366/3/4 1367/3/4 1368/3/4
f 1369/3/5 1370/3/5 1371/3/5 1372/3/5
f 1373/3/6 1374/3/6 1375/3/6 1376/3/6
f 1377/1/1 1378/1/1 1379/1/1 1380/1/1
f 1381/1/3 1382/1/3 1383/1/3 1384/1/3
f 1385/1/5 1386/1/5 1387/1/5 1388/1/5
f 1389/1/6 1390/1/6 1391/1/6 1392/1/6
f 1393/1/3 1394/1/3 1395/1/3 1396/1/3
f 1397/1/4 1398/1/4 1399/1/4 1400/1/4
f 1401/1/5 1402/1/5 1403/1/5 1404/1/5
f 1405/1/6 1406/1/6 1407/1/6 1408/1/6
f 1409/2/2 1410/2/2 1411/2/2 1412/2/2
f 1413/2/4 1414/2/4 1415/2/4 1416/2/4
f 1417/2/5 1418/2/5 1419/2/5 1420/2/5
f 1421/2/6 1422/2/6 1423/2/6 1424/2/6
f 1425/3/1 1426/3/1 1427/3/1 1428/3/1
f 1429/3/2 1430/3/2 1431/3/2 1432/3/2
f 1433/3/4 1434/3/4 1435/3/4 1436/3/4
f 1437/3/5 1438/3/5 1439/3/5 1440/3/5
f 1441/3/6 1442/3/6 1443/3/6 1444/3/6
f 1445/1/1 1446/1/1 1447/1/1 1448/1/1
f 1449/1/3 1450/1/3 1451/1/3 1452/1/3
f 1453/1/5 1454/1/5 1455/1/5 1456/1/5
f 1457/1/6 1458/1/6 1459/1/6 1460/1/6
f 1461/1/3 1462/1/3 1463/1/3 1464/1/3
f 1465/1/4 1466/1/4 1467/1/4 1468/1/4
f 1469/1/5 1470/1/5 1471/1/5 1472/1/5
f 1473/1/6 1474/1/6 1475/1/6 1476/1/6
f 1477/2/2 1478/2/2 1479/2/2 1480/2/2
f 1481/2/4 1482/2/4 1483/2/4 1484/2/4
f 1485/2/5 1486/2/5 1487/2/5 1488/2/5
f 1489/2/6 1490/2/6 1491/2/6 1492/2/6
f 1493/1/1 1494/1/1 1495/1/1 1496/1/1
f 1497/1/3 1498/1/3 1499/1/3 1500/1/3
f 1501/1/5 1502/1/5 1503/1/5 1504/1/5
f 1505/1/6 1506/1/6 1507/1/6 1508/1/6
f 1509/1/3 1510/1/3 1511/1/3 1512/1/3
f 1513/1/4 1514/1/4 1515/1/4 1516/1/4
f 1517/1/5 1518/1/5 1519/1/5 1520/1/5
f 1521/1/6 1522/1/6 1523/1/6 1524/1/6
f 1525/2/2 1526/2/2 1527/2/2 1528/2/2
f 1529/2/4 1530/2/4 1531/2/4 1532/2/4
f 1533/2/5 1534/2/5 1535/2/5 1536/2/5
f 1537/2/6 1538/2/6 1539/2/6 1540/2/6
f 1541/1/1 1542/1/1 1543/1/1 1544/1/1
f 1545/1/3 1546/1/3 1547/1/3 1548/1/3
f 1549/1/4 1550/1/4 1551/1/4 1552/1/4
f 1553/1/5 1554/1/5 1555/1/5 1556/1/5
f 1557/1/6 1558/1/6 1559/1/6 1560/1/6
f 1561/1/3 1562/1/3 1563/1/3 1564/1/3
f 1565/1/4 1566/1/4 1567/1/4 1568/1/4
f 1569/1/5 1570/1/5 1571/1/5 1572/1/5
f 1573/1/6 1574/1/6 1575/1/6 1576/1/6
f 1577/2/2 1578/2/2 1579/2/2 1580/2/2
f 1581/2/4 1582/2/4 1583/2/4 1584/2/4
f 1585/2/5 1586/2/5 1587/2/5 1588/2/5
f 1589/2/6 1590/2/6 1591/2/6 1592/2/6
f 1593/1/1 1594/1/1 1595/1/1 1596/1/1
f 1597/1/2 1598/1/2 1599/1/2 1600/1/2
f 1601/1/3 1602/1/3 1603/1/3 1604/1/3
f 1605/1/4 1606/1/4 1607/1/4 1608/1/4
f 1609/1/5 1610/1/5 1611/1/5 1612/1/5
f 1613/1/6 1614/1/6 1615/1/6 1616/1/6

