# generated by vox_to_obj_exporter
# scale=0.1 center=false ground=false y_up=true

mtllib Fight_103.mtl
usemtl palette

# normals
vn -1 0 0
vn 1 0 0
vn 0 1 0
vn 0 -1 0
vn 0 0 1
vn 0 0 -1

# texcoords
vt 0.228515625 0.5
vt 0.216796875 0.5
vt 0.220703125 0.5
vt 0.240234375 0.5
vt 0.236328125 0.5
vt 0.005859375 0.5
vt 0.224609375 0.5

# verts
v 8.1 8.1 -2.6
v 8.1 8 -2.6
v 8.1 8 -2.5
v 8.1 8.1 -2.5
v 8.1 8.1 -2.6
v 8.1 8.1 -2.5
v 8.2 8.1 -2.5
v 8.2 8.1 -2.6
v 8.1 8.1 -2.5
v 8.1 8 -2.5
v 8.2 8 -2.5
v 8.2 8.1 -2.5
v 8.2 8.1 -2.6
v 8.2 8 -2.6
v 8.1 8 -2.6
v 8.1 8.1 -2.6
v 8.2 8.1 -2.6
v 8.2 8.1 -2.5
v 8.3 8.1 -2.5
v 8.3 8.1 -2.6
v 8.2 8.1 -2.5
v 8.2 8 -2.5
v 8.3 8 -2.5
v 8.3 8.1 -2.5
v 8.3 8.1 -2.6
v 8.3 8 -2.6
v 8.2 8 -2.6
v 8.2 8.1 -2.6
v 8.3 8.1 -2.6
v 8.3 8.1 -2.5
v 8.4 8.1 -2.5
v 8.4 8.1 -2.6
v 8.3 8.1 -2.5
v 8.3 8 -2.5
v 8.4 8 -2.5
v 8.4 8.1 -2.5
v 8.4 8.1 -2.6
v 8.4 8 -2.6
v 8.3 8 -2.6
v 8.3 8.1 -2.6
v 8.5 8.1 -2.5
v 8.5 8 -2.5
v 8.5 8 -2.6
v 8.5 8.1 -2.6
v 8.4 8.1 -2.6
v 8.4 8.1 -2.5
v 8.5 8.1 -2.5
v 8.5 8.1 -2.6
v 8.4 8.1 -2.5
v 8.4 8 -2.5
v 8.5 8 -2.5
v 8.5 8.1 -2.5
v 8.5 8.1 -2.6
v 8.5 8 -2.6
v 8.4 8 -2.6
v 8.4 8.1 -2.6
v 7.9 8 -2.6
v 7.9 7.9 -2.6
v 7.9 7.9 -2.5
v 7.9 8 -2.5
v 7.9 8 -2.6
v 7.9 8 -2.5
v 8 8 -2.5
v 8 8 -2.6
v 7.9 8 -2.5
v 7.9 7.9 -2.5
v 8 7.9 -2.5
v 8 8 -2.5
v 8 8 -2.6
v 8 7.9 -2.6
v 7.9 7.9 -2.6
v 7.9 8 -2.6
v 8 8 -2.6
v 8 8 -2.5
v 8.1 8 -2.5
v 8.1 8 -2.6
v 8 8 -2.5
v 8 7.9 -2.5
v 8.1 7.9 -2.5
v 8.1 8 -2.5
v 8.1 8 -2.6
v 8.1 7.9 -2.6
v 8 7.9 -2.6
v 8 8 -2.6
v 8.1 8 -2.5
v 8.1 7.9 -2.5
v 8.2 7.9 -2.5
v 8.2 8 -2.5
v 8.2 8 -2.6
v 8.2 7.9 -2.6
v 8.1 7.9 -2.6
v 8.1 8 -2.6
v 8.2 8 -2.5
v 8.2 7.9 -2.5
v 8.3 7.9 -2.5
v 8.3 8 -2.5
v 8.3 8 -2.6
v 8.3 7.9 -2.6
v 8.2 7.9 -2.6
v 8.2 8 -2.6
v 8.3 8 -2.5
v 8.3 7.9 -2.5
v 8.4 7.9 -2.5
v 8.4 8 -2.5
v 8.4 8 -2.6
v 8.4 7.9 -2.6
v 8.3 7.9 -2.6
v 8.3 8 -2.6
v 8.4 7.9 -2.5
v 8.4 7.9 -2.6
v 8.5 7.9 -2.6
v 8.5 7.9 -2.5
v 8.4 8 -2.5
v 8.4 7.9 -2.5
v 8.5 7.9 -2.5
v 8.5 8 -2.5
v 8.5 8 -2.6
v 8.5 7.9 -2.6
v 8.4 7.9 -2.6
v 8.4 8 -2.6
v 8.6 8 -2.5
v 8.6 7.9 -2.5
v 8.6 7.9 -2.6
v 8.6 8 -2.6
v 8.5 8 -2.6
v 8.5 8 -2.5
v 8.6 8 -2.5
v 8.6 8 -2.6
v 8.5 7.9 -2.5
v 8.5 7.9 -2.6
v 8.6 7.9 -2.6
v 8.6 7.9 -2.5
v 8.5 8 -2.5
v 8.5 7.9 -2.5
v 8.6 7.9 -2.5
v 8.6 8 -2.5
v 8.6 8 -2.6
v 8.6 7.9 -2.6
v 8.5 7.9 -2.6
v 8.5 8 -2.6
v 7.7 7.9 -2.6
v 7.7 7.8 -2.6
v 7.7 7.8 -2.5
v 7.7 7.9 -2.5
v 7.7 7.9 -2.6
v 7.7 7.9 -2.5
v 7.8 7.9 -2.5
v 7.8 7.9 -2.6
v 7.7 7.9 -2.5
v 7.7 7.8 -2.5
v 7.8 7.8 -2.5
v 7.8 7.9 -2.5
v 7.8 7.9 -2.6
v 7.8 7.8 -2.6
v 7.7 7.8 -2.6
v 7.7 7.9 -2.6
v 7.8 7.9 -2.6
v 7.8 7.9 -2.5
v 7.9 7.9 -2.5
v 7.9 7.9 -2.6
v 7.8 7.9 -2.5
v 7.8 7.8 -2.5
v 7.9 7.8 -2.5
v 7.9 7.9 -2.5
v 7.9 7.9 -2.6
v 7.9 7.8 -2.6
v 7.8 7.8 -2.6
v 7.8 7.9 -2.6
v 7.9 7.9 -2.5
v 7.9 7.8 -2.5
v 8 7.8 -2.5
v 8 7.9 -2.5
v 8 7.9 -2.6
v 8 7.8 -2.6
v 7.9 7.8 -2.6
v 7.9 7.9 -2.6
v 8 7.9 -2.5
v 8 7.8 -2.5
v 8.1 7.8 -2.5
v 8.1 7.9 -2.5
v 8.1 7.9 -2.6
v 8.1 7.8 -2.6
v 8 7.8 -2.6
v 8 7.9 -2.6
v 8.1 7.9 -2.5
v 8.1 7.8 -2.5
v 8.2 7.8 -2.5
v 8.2 7.9 -2.5
v 8.2 7.9 -2.6
v 8.2 7.8 -2.6
v 8.1 7.8 -2.6
v 8.1 7.9 -2.6
v 8.2 7.8 -2.5
v 8.2 7.8 -2.6
v 8.3 7.8 -2.6
v 8.3 7.8 -2.5
v 8.2 7.9 -2.5
v 8.2 7.8 -2.5
v 8.3 7.8 -2.5
v 8.3 7.9 -2.5
v 8.3 7.9 -2.6
v 8.3 7.8 -2.6
v 8.2 7.8 -2.6
v 8.2 7.9 -2.6
v 8.4 7.9 -2.5
v 8.4 7.8 -2.5
v 8.4 7.8 -2.6
v 8.4 7.9 -2.6
v 8.3 7.8 -2.5
v 8.3 7.8 -2.6
v 8.4 7.8 -2.6
v 8.4 7.8 -2.5
v 8.3 7.9 -2.5
v 8.3 7.8 -2.5
v 8.4 7.8 -2.5
v 8.4 7.9 -2.5
v 8.4 7.9 -2.6
v 8.4 7.8 -2.6
v 8.3 7.8 -2.6
v 8.3 7.9 -2.6
v 7.4 7.8 -2.6
v 7.4 7.7 -2.6
v 7.4 7.7 -2.5
v 7.4 7.8 -2.5
v 7.4 7.8 -2.6
v 7.4 7.8 -2.5
v 7.5 7.8 -2.5
v 7.5 7.8 -2.6
v 7.4 7.8 -2.5
v 7.4 7.7 -2.5
v 7.5 7.7 -2.5
v 7.5 7.8 -2.5
v 7.5 7.8 -2.6
v 7.5 7.7 -2.6
v 7.4 7.7 -2.6
v 7.4 7.8 -2.6
v 7.5 7.8 -2.6
v 7.5 7.8 -2.5
v 7.6 7.8 -2.5
v 7.6 7.8 -2.6
v 7.5 7.8 -2.5
v 7.5 7.7 -2.5
v 7.6 7.7 -2.5
v 7.6 7.8 -2.5
v 7.6 7.8 -2.6
v 7.6 7.7 -2.6
v 7.5 7.7 -2.6
v 7.5 7.8 -2.6
v 7.6 7.8 -2.6
v 7.6 7.8 -2.5
v 7.7 7.8 -2.5
v 7.7 7.8 -2.6
v 7.6 7.8 -2.5
v 7.6 7.7 -2.5
v 7.7 7.7 -2.5
v 7.7 7.8 -2.5
v 7.7 7.8 -2.6
v 7.7 7.7 -2.6
v 7.6 7.7 -2.6
v 7.6 7.8 -2.6
v 7.7 7.8 -2.5
v 7.7 7.7 -2.5
v 7.8 7.7 -2.5
v 7.8 7.8 -2.5
v 7.8 7.8 -2.6
v 7.8 7.7 -2.6
v 7.7 7.7 -2.6
v 7.7 7.8 -2.6
v 7.8 7.8 -2.5
v 7.8 7.7 -2.5
v 7.9 7.7 -2.5
v 7.9 7.8 -2.5
v 7.9 7.8 -2.6
v 7.9 7.7 -2.6
v 7.8 7.7 -2.6
v 7.8 7.8 -2.6
v 7.9 7.8 -2.5
v 7.9 7.7 -2.5
v 8 7.7 -2.5
v 8 7.8 -2.5
v 8 7.8 -2.6
v 8 7.7 -2.6
v 7.9 7.7 -2.6
v 7.9 7.8 -2.6
v 8 7.7 -2.5
v 8 7.7 -2.6
v 8.1 7.7 -2.6
v 8.1 7.7 -2.5
v 8 7.8 -2.5
v 8 7.7 -2.5
v 8.1 7.7 -2.5
v 8.1 7.8 -2.5
v 8.1 7.8 -2.6
v 8.1 7.7 -2.6
v 8 7.7 -2.6
v 8 7.8 -2.6
v 8.2 7.8 -2.5
v 8.2 7.7 -2.5
v 8.2 7.7 -2.6
v 8.2 7.8 -2.6
v 8.1 7.7 -2.5
v 8.1 7.7 -2.6
v 8.2 7.7 -2.6
v 8.2 7.7 -2.5
v 8.1 7.8 -2.5
v 8.1 7.7 -2.5
v 8.2 7.7 -2.5
v 8.2 7.8 -2.5
v 8.2 7.8 -2.6
v 8.2 7.7 -2.6
v 8.1 7.7 -2.6
v 8.1 7.8 -2.6
v 7.3 7.7 -2.6
v 7.3 7.6 -2.6
v 7.3 7.6 -2.5
v 7.3 7.7 -2.5
v 7.3 7.7 -2.6
v 7.3 7.7 -2.5
v 7.4 7.7 -2.5
v 7.4 7.7 -2.6
v 7.3 7.7 -2.5
v 7.3 7.6 -2.5
v 7.4 7.6 -2.5
v 7.4 7.7 -2.5
v 7.4 7.7 -2.6
v 7.4 7.6 -2.6
v 7.3 7.6 -2.6
v 7.3 7.7 -2.6
v 7.4 7.7 -2.5
v 7.4 7.6 -2.5
v 7.5 7.6 -2.5
v 7.5 7.7 -2.5
v 7.5 7.7 -2.6
v 7.5 7.6 -2.6
v 7.4 7.6 -2.6
v 7.4 7.7 -2.6
v 7.5 7.7 -2.5
v 7.5 7.6 -2.5
v 7.6 7.6 -2.5
v 7.6 7.7 -2.5
v 7.6 7.7 -2.6
v 7.6 7.6 -2.6
v 7.5 7.6 -2.6
v 7.5 7.7 -2.6
v 7.6 7.7 -2.5
v 7.6 7.6 -2.5
v 7.7 7.6 -2.5
v 7.7 7.7 -2.5
v 7.7 7.7 -2.6
v 7.7 7.6 -2.6
v 7.6 7.6 -2.6
v 7.6 7.7 -2.6
v 7.7 7.7 -2.5
v 7.7 7.6 -2.5
v 7.8 7.6 -2.5
v 7.8 7.7 -2.5
v 7.8 7.7 -2.6
v 7.8 7.6 -2.6
v 7.7 7.6 -2.6
v 7.7 7.7 -2.6
v 7.8 7.6 -2.5
v 7.8 7.6 -2.6
v 7.9 7.6 -2.6
v 7.9 7.6 -2.5
v 7.8 7.7 -2.5
v 7.8 7.6 -2.5
v 7.9 7.6 -2.5
v 7.9 7.7 -2.5
v 7.9 7.7 -2.6
v 7.9 7.6 -2.6
v 7.8 7.6 -2.6
v 7.8 7.7 -2.6
v 8 7.7 -2.5
v 8 7.6 -2.5
v 8 7.6 -2.6
v 8 7.7 -2.6
v 7.9 7.6 -2.5
v 7.9 7.6 -2.6
v 8 7.6 -2.6
v 8 7.6 -2.5
v 7.9 7.7 -2.5
v 7.9 7.6 -2.5
v 8 7.6 -2.5
v 8 7.7 -2.5
v 8 7.7 -2.6
v 8 7.6 -2.6
v 7.9 7.6 -2.6
v 7.9 7.7 -2.6
v 12.4 7.7 -2.6
v 12.4 7.6 -2.6
v 12.4 7.6 -2.5
v 12.4 7.7 -2.5
v 12.5 7.7 -2.5
v 12.5 7.6 -2.5
v 12.5 7.6 -2.6
v 12.5 7.7 -2.6
v 12.4 7.7 -2.6
v 12.4 7.7 -2.5
v 12.5 7.7 -2.5
v 12.5 7.7 -2.6
v 12.4 7.7 -2.5
v 12.4 7.6 -2.5
v 12.5 7.6 -2.5
v 12.5 7.7 -2.5
v 12.5 7.7 -2.6
v 12.5 7.6 -2.6
v 12.4 7.6 -2.6
v 12.4 7.7 -2.6
v 7.2 7.6 -2.6
v 7.2 7.5 -2.6
v 7.2 7.5 -2.5
v 7.2 7.6 -2.5
v 7.2 7.6 -2.6
v 7.2 7.6 -2.5
v 7.3 7.6 -2.5
v 7.3 7.6 -2.6
v 7.2 7.6 -2.5
v 7.2 7.5 -2.5
v 7.3 7.5 -2.5
v 7.3 7.6 -2.5
v 7.3 7.6 -2.6
v 7.3 7.5 -2.6
v 7.2 7.5 -2.6
v 7.2 7.6 -2.6
v 7.3 7.6 -2.5
v 7.3 7.5 -2.5
v 7.4 7.5 -2.5
v 7.4 7.6 -2.5
v 7.4 7.6 -2.6
v 7.4 7.5 -2.6
v 7.3 7.5 -2.6
v 7.3 7.6 -2.6
v 7.4 7.6 -2.5
v 7.4 7.5 -2.5
v 7.5 7.5 -2.5
v 7.5 7.6 -2.5
v 7.5 7.6 -2.6
v 7.5 7.5 -2.6
v 7.4 7.5 -2.6
v 7.4 7.6 -2.6
v 7.5 7.6 -2.5
v 7.5 7.5 -2.5
v 7.6 7.5 -2.5
v 7.6 7.6 -2.5
v 7.6 7.6 -2.6
v 7.6 7.5 -2.6
v 7.5 7.5 -2.6
v 7.5 7.6 -2.6
v 7.6 7.5 -2.5
v 7.6 7.5 -2.6
v 7.7 7.5 -2.6
v 7.7 7.5 -2.5
v 7.6 7.6 -2.5
v 7.6 7.5 -2.5
v 7.7 7.5 -2.5
v 7.7 7.6 -2.5
v 7.7 7.6 -2.6
v 7.7 7.5 -2.6
v 7.6 7.5 -2.6
v 7.6 7.6 -2.6
v 7.8 7.6 -2.5
v 7.8 7.5 -2.5
v 7.8 7.5 -2.6
v 7.8 7.6 -2.6
v 7.7 7.5 -2.5
v 7.7 7.5 -2.6
v 7.8 7.5 -2.6
v 7.8 7.5 -2.5
v 7.7 7.6 -2.5
v 7.7 7.5 -2.5
v 7.8 7.5 -2.5
v 7.8 7.6 -2.5
v 7.8 7.6 -2.6
v 7.8 7.5 -2.6
v 7.7 7.5 -2.6
v 7.7 7.6 -2.6
v 12.4 7.6 -2.6
v 12.4 7.5 -2.6
v 12.4 7.5 -2.5
v 12.4 7.6 -2.5
v 12.5 7.6 -2.5
v 12.5 7.5 -2.5
v 12.5 7.5 -2.6
v 12.5 7.6 -2.6
v 12.4 7.5 -2.5
v 12.4 7.5 -2.6
v 12.5 7.5 -2.6
v 12.5 7.5 -2.5
v 12.4 7.6 -2.5
v 12.4 7.5 -2.5
v 12.5 7.5 -2.5
v 12.5 7.6 -2.5
v 12.5 7.6 -2.6
v 12.5 7.5 -2.6
v 12.4 7.5 -2.6
v 12.4 7.6 -2.6
v 7.1 7.5 -2.6
v 7.1 7.4 -2.6
v 7.1 7.4 -2.5
v 7.1 7.5 -2.5
v 7.1 7.5 -2.6
v 7.1 7.5 -2.5
v 7.2 7.5 -2.5
v 7.2 7.5 -2.6
v 7.1 7.5 -2.5
v 7.1 7.4 -2.5
v 7.2 7.4 -2.5
v 7.2 7.5 -2.5
v 7.2 7.5 -2.6
v 7.2 7.4 -2.6
v 7.1 7.4 -2.6
v 7.1 7.5 -2.6
v 7.2 7.5 -2.5
v 7.2 7.4 -2.5
v 7.3 7.4 -2.5
v 7.3 7.5 -2.5
v 7.3 7.5 -2.6
v 7.3 7.4 -2.6
v 7.2 7.4 -2.6
v 7.2 7.5 -2.6
v 7.3 7.5 -2.5
v 7.3 7.4 -2.5
v 7.4 7.4 -2.5
v 7.4 7.5 -2.5
v 7.4 7.5 -2.6
v 7.4 7.4 -2.6
v 7.3 7.4 -2.6
v 7.3 7.5 -2.6
v 7.4 7.4 -2.5
v 7.4 7.4 -2.6
v 7.5 7.4 -2.6
v 7.5 7.4 -2.5
v 7.4 7.5 -2.5
v 7.4 7.4 -2.5
v 7.5 7.4 -2.5
v 7.5 7.5 -2.5
v 7.5 7.5 -2.6
v 7.5 7.4 -2.6
v 7.4 7.4 -2.6
v 7.4 7.5 -2.6
v 7.6 7.5 -2.5
v 7.6 7.4 -2.5
v 7.6 7.4 -2.6
v 7.6 7.5 -2.6
v 7.5 7.4 -2.5
v 7.5 7.4 -2.6
v 7.6 7.4 -2.6
v 7.6 7.4 -2.5
v 7.5 7.5 -2.5
v 7.5 7.4 -2.5
v 7.6 7.4 -2.5
v 7.6 7.5 -2.5
v 7.6 7.5 -2.6
v 7.6 7.4 -2.6
v 7.5 7.4 -2.6
v 7.5 7.5 -2.6
v 12.3 7.5 -2.6
v 12.3 7.4 -2.6
v 12.3 7.4 -2.5
v 12.3 7.5 -2.5
v 12.4 7.5 -2.5
v 12.4 7.4 -2.5
v 12.4 7.4 -2.6
v 12.4 7.5 -2.6
v 12.3 7.5 -2.6
v 12.3 7.5 -2.5
v 12.4 7.5 -2.5
v 12.4 7.5 -2.6
v 12.3 7.5 -2.5
v 12.3 7.4 -2.5
v 12.4 7.4 -2.5
v 12.4 7.5 -2.5
v 12.4 7.5 -2.6
v 12.4 7.4 -2.6
v 12.3 7.4 -2.6
v 12.3 7.5 -2.6
v 7 7.4 -2.6
v 7 7.3 -2.6
v 7 7.3 -2.5
v 7 7.4 -2.5
v 7 7.4 -2.6
v 7 7.4 -2.5
v 7.1 7.4 -2.5
v 7.1 7.4 -2.6
v 7 7.4 -2.5
v 7 7.3 -2.5
v 7.1 7.3 -2.5
v 7.1 7.4 -2.5
v 7.1 7.4 -2.6
v 7.1 7.3 -2.6
v 7 7.3 -2.6
v 7 7.4 -2.6
v 7.1 7.4 -2.5
v 7.1 7.3 -2.5
v 7.2 7.3 -2.5
v 7.2 7.4 -2.5
v 7.2 7.4 -2.6
v 7.2 7.3 -2.6
v 7.1 7.3 -2.6
v 7.1 7.4 -2.6
v 7.2 7.4 -2.5
v 7.2 7.3 -2.5
v 7.3 7.3 -2.5
v 7.3 7.4 -2.5
v 7.3 7.4 -2.6
v 7.3 7.3 -2.6
v 7.2 7.3 -2.6
v 7.2 7.4 -2.6
v 7.4 7.4 -2.5
v 7.4 7.3 -2.5
v 7.4 7.3 -2.6
v 7.4 7.4 -2.6
v 7.3 7.3 -2.5
v 7.3 7.3 -2.6
v 7.4 7.3 -2.6
v 7.4 7.3 -2.5
v 7.3 7.4 -2.5
v 7.3 7.3 -2.5
v 7.4 7.3 -2.5
v 7.4 7.4 -2.5
v 7.4 7.4 -2.6
v 7.4 7.3 -2.6
v 7.3 7.3 -2.6
v 7.3 7.4 -2.6
v 12.2 7.4 -2.6
v 12.2 7.3 -2.6
v 12.2 7.3 -2.5
v 12.2 7.4 -2.5
v 12.2 7.4 -2.6
v 12.2 7.4 -2.5
v 12.3 7.4 -2.5
v 12.3 7.4 -2.6
v 12.2 7.4 -2.5
v 12.2 7.3 -2.5
v 12.3 7.3 -2.5
v 12.3 7.4 -2.5
v 12.3 7.4 -2.6
v 12.3 7.3 -2.6
v 12.2 7.3 -2.6
v 12.2 7.4 -2.6
v 12.4 7.4 -2.5
v 12.4 7.3 -2.5
v 12.4 7.3 -2.6
v 12.4 7.4 -2.6
v 12.3 7.4 -2.5
v 12.3 7.3 -2.5
v 12.4 7.3 -2.5
v 12.4 7.4 -2.5
v 12.4 7.4 -2.6
v 12.4 7.3 -2.6
v 12.3 7.3 -2.6
v 12.3 7.4 -2.6
v 7 7.3 -2.6
v 7 7.2 -2.6
v 7 7.2 -2.5
v 7 7.3 -2.5
v 7 7.3 -2.5
v 7 7.2 -2.5
v 7.1 7.2 -2.5
v 7.1 7.3 -2.5
v 7.1 7.3 -2.6
v 7.1 7.2 -2.6
v 7 7.2 -2.6
v 7 7.3 -2.6
v 7.1 7.2 -2.5
v 7.1 7.2 -2.6
v 7.2 7.2 -2.6
v 7.2 7.2 -2.5
v 7.1 7.3 -2.5
v 7.1 7.2 -2.5
v 7.2 7.2 -2.5
v 7.2 7.3 -2.5
v 7.2 7.3 -2.6
v 7.2 7.2 -2.6
v 7.1 7.2 -2.6
v 7.1 7.3 -2.6
v 7.3 7.3 -2.5
v 7.3 7.2 -2.5
v 7.3 7.2 -2.6
v 7.3 7.3 -2.6
v 7.2 7.2 -2.5
v 7.2 7.2 -2.6
v 7.3 7.2 -2.6
v 7.3 7.2 -2.5
v 7.2 7.3 -2.5
v 7.2 7.2 -2.5
v 7.3 7.2 -2.5
v 7.3 7.3 -2.5
v 7.3 7.3 -2.6
v 7.3 7.2 -2.6
v 7.2 7.2 -2.6
v 7.2 7.3 -2.6
v 12.2 7.3 -2.6
v 12.2 7.2 -2.6
v 12.2 7.2 -2.5
v 12.2 7.3 -2.5
v 12.2 7.3 -2.5
v 12.2 7.2 -2.5
v 12.3 7.2 -2.5
v 12.3 7.3 -2.5
v 12.3 7.3 -2.6
v 12.3 7.2 -2.6
v 12.2 7.2 -2.6
v 12.2 7.3 -2.6
v 12.4 7.3 -2.5
v 12.4 7.2 -2.5
v 12.4 7.2 -2.6
v 12.4 7.3 -2.6
v 12.3 7.2 -2.5
v 12.3 7.2 -2.6
v 12.4 7.2 -2.6
v 12.4 7.2 -2.5
v 12.3 7.3 -2.5
v 12.3 7.2 -2.5
v 12.4 7.2 -2.5
v 12.4 7.3 -2.5
v 12.4 7.3 -2.6
v 12.4 7.2 -2.6
v 12.3 7.2 -2.6
v 12.3 7.3 -2.6
v 6.7 7.2 -2.6
v 6.7 7.1 -2.6
v 6.7 7.1 -2.5
v 6.7 7.2 -2.5
v 6.7 7.2 -2.6
v 6.7 7.2 -2.5
v 6.8 7.2 -2.5
v 6.8 7.2 -2.6
v 6.7 7.2 -2.5
v 6.7 7.1 -2.5
v 6.8 7.1 -2.5
v 6.8 7.2 -2.5
v 6.8 7.2 -2.6
v 6.8 7.1 -2.6
v 6.7 7.1 -2.6
v 6.7 7.2 -2.6
v 6.8 7.2 -2.6
v 6.8 7.2 -2.5
v 6.9 7.2 -2.5
v 6.9 7.2 -2.6
v 6.8 7.2 -2.5
v 6.8 7.1 -2.5
v 6.9 7.1 -2.5
v 6.9 7.2 -2.5
v 6.9 7.2 -2.6
v 6.9 7.1 -2.6
v 6.8 7.1 -2.6
v 6.8 7.2 -2.6
v 6.9 7.2 -2.6
v 6.9 7.2 -2.5
v 7 7.2 -2.5
v 7 7.2 -2.6
v 6.9 7.1 -2.5
v 6.9 7.1 -2.6
v 7 7.1 -2.6
v 7 7.1 -2.5
v 6.9 7.2 -2.5
v 6.9 7.1 -2.5
v 7 7.1 -2.5
v 7 7.2 -2.5
v 7 7.2 -2.6
v 7 7.1 -2.6
v 6.9 7.1 -2.6
v 6.9 7.2 -2.6
v 7.1 7.2 -2.5
v 7.1 7.1 -2.5
v 7.1 7.1 -2.6
v 7.1 7.2 -2.6
v 7 7.1 -2.5
v 7 7.1 -2.6
v 7.1 7.1 -2.6
v 7.1 7.1 -2.5
v 7 7.2 -2.5
v 7 7.1 -2.5
v 7.1 7.1 -2.5
v 7.1 7.2 -2.5
v 7.1 7.2 -2.6
v 7.1 7.1 -2.6
v 7 7.1 -2.6
v 7 7.2 -2.6
v 12.1 7.2 -2.6
v 12.1 7.1 -2.6
v 12.1 7.1 -2.5
v 12.1 7.2 -2.5
v 12.1 7.2 -2.6
v 12.1 7.2 -2.5
v 12.2 7.2 -2.5
v 12.2 7.2 -2.6
v 12.1 7.2 -2.5
v 12.1 7.1 -2.5
v 12.2 7.1 -2.5
v 12.2 7.2 -2.5
v 12.2 7.2 -2.6
v 12.2 7.1 -2.6
v 12.1 7.1 -2.6
v 12.1 7.2 -2.6
v 12.3 7.2 -2.5
v 12.3 7.1 -2.5
v 12.3 7.1 -2.6
v 12.3 7.2 -2.6
v 12.2 7.2 -2.5
v 12.2 7.1 -2.5
v 12.3 7.1 -2.5
v 12.3 7.2 -2.5
v 12.3 7.2 -2.6
v 12.3 7.1 -2.6
v 12.2 7.1 -2.6
v 12.2 7.2 -2.6
v 6.6 7.1 -2.6
v 6.6 7 -2.6
v 6.6 7 -2.5
v 6.6 7.1 -2.5
v 6.6 7.1 -2.6
v 6.6 7.1 -2.5
v 6.7 7.1 -2.5
v 6.7 7.1 -2.6
v 6.6 7.1 -2.5
v 6.6 7 -2.5
v 6.7 7 -2.5
v 6.7 7.1 -2.5
v 6.7 7.1 -2.6
v 6.7 7 -2.6
v 6.6 7 -2.6
v 6.6 7.1 -2.6
v 6.7 7 -2.5
v 6.7 7 -2.6
v 6.8 7 -2.6
v 6.8 7 -2.5
v 6.7 7.1 -2.5
v 6.7 7 -2.5
v 6.8 7 -2.5
v 6.8 7.1 -2.5
v 6.8 7.1 -2.6
v 6.8 7 -2.6
v 6.7 7 -2.6
v 6.7 7.1 -2.6
v 6.9 7.1 -2.5
v 6.9 7 -2.5
v 6.9 7 -2.6
v 6.9 7.1 -2.6
v 6.8 7 -2.5
v 6.8 7 -2.6
v 6.9 7 -2.6
v 6.9 7 -2.5
v 6.8 7.1 -2.5
v 6.8 7 -2.5
v 6.9 7 -2.5
v 6.9 7.1 -2.5
v 6.9 7.1 -2.6
v 6.9 7 -2.6
v 6.8 7 -2.6
v 6.8 7.1 -2.6
v 12 7.1 -2.6
v 12 7 -2.6
v 12 7 -2.5
v 12 7.1 -2.5
v 12 7.1 -2.6
v 12 7.1 -2.5
v 12.1 7.1 -2.5
v 12.1 7.1 -2.6
v 12 7.1 -2.5
v 12 7 -2.5
v 12.1 7 -2.5
v 12.1 7.1 -2.5
v 12.1 7.1 -2.6
v 12.1 7 -2.6
v 12 7 -2.6
v 12 7.1 -2.6
v 12.1 7.1 -2.5
v 12.1 7 -2.5
v 12.2 7 -2.5
v 12.2 7.1 -2.5
v 12.2 7.1 -2.6
v 12.2 7 -2.6
v 12.1 7 -2.6
v 12.1 7.1 -2.6
v 12.3 7.1 -2.5
v 12.3 7 -2.5
v 12.3 7 -2.6
v 12.3 7.1 -2.6
v 12.2 7 -2.5
v 12.2 7 -2.6
v 12.3 7 -2.6
v 12.3 7 -2.5
v 12.2 7.1 -2.5
v 12.2 7 -2.5
v 12.3 7 -2.5
v 12.3 7.1 -2.5
v 12.3 7.1 -2.6
v 12.3 7 -2.6
v 12.2 7 -2.6
v 12.2 7.1 -2.6
v 6.5 7 -2.6
v 6.5 6.9 -2.6
v 6.5 6.9 -2.5
v 6.5 7 -2.5
v 6.5 7 -2.6
v 6.5 7 -2.5
v 6.6 7 -2.5
v 6.6 7 -2.6
v 6.5 6.9 -2.5
v 6.5 6.9 -2.6
v 6.6 6.9 -2.6
v 6.6 6.9 -2.5
v 6.5 7 -2.5
v 6.5 6.9 -2.5
v 6.6 6.9 -2.5
v 6.6 7 -2.5
v 6.6 7 -2.6
v 6.6 6.9 -2.6
v 6.5 6.9 -2.6
v 6.5 7 -2.6
v 6.7 7 -2.5
v 6.7 6.9 -2.5
v 6.7 6.9 -2.6
v 6.7 7 -2.6
v 6.6 6.9 -2.5
v 6.6 6.9 -2.6
v 6.7 6.9 -2.6
v 6.7 6.9 -2.5
v 6.6 7 -2.5
v 6.6 6.9 -2.5
v 6.7 6.9 -2.5
v 6.7 7 -2.5
v 6.7 7 -2.6
v 6.7 6.9 -2.6
v 6.6 6.9 -2.6
v 6.6 7 -2.6
v 11.9 7 -2.6
v 11.9 6.9 -2.6
v 11.9 6.9 -2.5
v 11.9 7 -2.5
v 11.9 7 -2.6
v 11.9 7 -2.5
v 12 7 -2.5
v 12 7 -2.6
v 11.9 7 -2.5
v 11.9 6.9 -2.5
v 12 6.9 -2.5
v 12 7 -2.5
v 12 7 -2.6
v 12 6.9 -2.6
v 11.9 6.9 -2.6
v 11.9 7 -2.6
v 12 7 -2.5
v 12 6.9 -2.5
v 12.1 6.9 -2.5
v 12.1 7 -2.5
v 12.1 7 -2.6
v 12.1 6.9 -2.6
v 12 6.9 -2.6
v 12 7 -2.6
v 12.2 7 -2.5
v 12.2 6.9 -2.5
v 12.2 6.9 -2.6
v 12.2 7 -2.6
v 12.1 7 -2.5
v 12.1 6.9 -2.5
v 12.2 6.9 -2.5
v 12.2 7 -2.5
v 12.2 7 -2.6
v 12.2 6.9 -2.6
v 12.1 6.9 -2.6
v 12.1 7 -2.6
v 6.4 6.9 -2.6
v 6.4 6.8 -2.6
v 6.4 6.8 -2.5
v 6.4 6.9 -2.5
v 6.5 6.9 -2.5
v 6.5 6.8 -2.5
v 6.5 6.8 -2.6
v 6.5 6.9 -2.6
v 6.4 6.9 -2.6
v 6.4 6.9 -2.5
v 6.5 6.9 -2.5
v 6.5 6.9 -2.6
v 6.4 6.8 -2.5
v 6.4 6.8 -2.6
v 6.5 6.8 -2.6
v 6.5 6.8 -2.5
v 6.4 6.9 -2.5
v 6.4 6.8 -2.5
v 6.5 6.8 -2.5
v 6.5 6.9 -2.5
v 6.5 6.9 -2.6
v 6.5 6.8 -2.6
v 6.4 6.8 -2.6
v 6.4 6.9 -2.6
v 11.8 6.9 -2.6
v 11.8 6.8 -2.6
v 11.8 6.8 -2.5
v 11.8 6.9 -2.5
v 11.8 6.9 -2.6
v 11.8 6.9 -2.5
v 11.9 6.9 -2.5
v 11.9 6.9 -2.6
v 11.8 6.9 -2.5
v 11.8 6.8 -2.5
v 11.9 6.8 -2.5
v 11.9 6.9 -2.5
v 11.9 6.9 -2.6
v 11.9 6.8 -2.6
v 11.8 6.8 -2.6
v 11.8 6.9 -2.6
v 11.9 6.9 -2.5
v 11.9 6.8 -2.5
v 12 6.8 -2.5
v 12 6.9 -2.5
v 12 6.9 -2.6
v 12 6.8 -2.6
v 11.9 6.8 -2.6
v 11.9 6.9 -2.6
v 12 6.9 -2.5
v 12 6.8 -2.5
v 12.1 6.8 -2.5
v 12.1 6.9 -2.5
v 12.1 6.9 -2.6
v 12.1 6.8 -2.6
v 12 6.8 -2.6
v 12 6.9 -2.6
v 12.2 6.9 -2.5
v 12.2 6.8 -2.5
v 12.2 6.8 -2.6
v 12.2 6.9 -2.6
v 12.1 6.8 -2.5
v 12.1 6.8 -2.6
v 12.2 6.8 -2.6
v 12.2 6.8 -2.5
v 12.1 6.9 -2.5
v 12.1 6.8 -2.5
v 12.2 6.8 -2.5
v 12.2 6.9 -2.5
v 12.2 6.9 -2.6
v 12.2 6.8 -2.6
v 12.1 6.8 -2.6
v 12.1 6.9 -2.6
v 11.6 6.8 -2.6
v 11.6 6.7 -2.6
v 11.6 6.7 -2.5
v 11.6 6.8 -2.5
v 11.6 6.8 -2.6
v 11.6 6.8 -2.5
v 11.7 6.8 -2.5
v 11.7 6.8 -2.6
v 11.6 6.8 -2.5
v 11.6 6.7 -2.5
v 11.7 6.7 -2.5
v 11.7 6.8 -2.5
v 11.7 6.8 -2.6
v 11.7 6.7 -2.6
v 11.6 6.7 -2.6
v 11.6 6.8 -2.6
v 11.7 6.8 -2.6
v 11.7 6.8 -2.5
v 11.8 6.8 -2.5
v 11.8 6.8 -2.6
v 11.7 6.8 -2.5
v 11.7 6.7 -2.5
v 11.8 6.7 -2.5
v 11.8 6.8 -2.5
v 11.8 6.8 -2.6
v 11.8 6.7 -2.6
v 11.7 6.7 -2.6
v 11.7 6.8 -2.6
v 11.8 6.8 -2.5
v 11.8 6.7 -2.5
v 11.9 6.7 -2.5
v 11.9 6.8 -2.5
v 11.9 6.8 -2.6
v 11.9 6.7 -2.6
v 11.8 6.7 -2.6
v 11.8 6.8 -2.6
v 11.9 6.8 -2.5
v 11.9 6.7 -2.5
v 12 6.7 -2.5
v 12 6.8 -2.5
v 12 6.8 -2.6
v 12 6.7 -2.6
v 11.9 6.7 -2.6
v 11.9 6.8 -2.6
v 12.1 6.8 -2.5
v 12.1 6.7 -2.5
v 12.1 6.7 -2.6
v 12.1 6.8 -2.6
v 12 6.7 -2.5
v 12 6.7 -2.6
v 12.1 6.7 -2.6
v 12.1 6.7 -2.5
v 12 6.8 -2.5
v 12 6.7 -2.5
v 12.1 6.7 -2.5
v 12.1 6.8 -2.5
v 12.1 6.8 -2.6
v 12.1 6.7 -2.6
v 12 6.7 -2.6
v 12 6.8 -2.6
v 11.5 6.7 -2.6
v 11.5 6.6 -2.6
v 11.5 6.6 -2.5
v 11.5 6.7 -2.5
v 11.5 6.7 -2.6
v 11.5 6.7 -2.5
v 11.6 6.7 -2.5
v 11.6 6.7 -2.6
v 11.5 6.7 -2.5
v 11.5 6.6 -2.5
v 11.6 6.6 -2.5
v 11.6 6.7 -2.5
v 11.6 6.7 -2.6
v 11.6 6.6 -2.6
v 11.5 6.6 -2.6
v 11.5 6.7 -2.6
v 11.6 6.7 -2.5
v 11.6 6.6 -2.5
v 11.7 6.6 -2.5
v 11.7 6.7 -2.5
v 11.7 6.7 -2.6
v 11.7 6.6 -2.6
v 11.6 6.6 -2.6
v 11.6 6.7 -2.6
v 11.7 6.7 -2.5
v 11.7 6.6 -2.5
v 11.8 6.6 -2.5
v 11.8 6.7 -2.5
v 11.8 6.7 -2.6
v 11.8 6.6 -2.6
v 11.7 6.6 -2.6
v 11.7 6.7 -2.6
v 11.8 6.7 -2.5
v 11.8 6.6 -2.5
v 11.9 6.6 -2.5
v 11.9 6.7 -2.5
v 11.9 6.7 -2.6
v 11.9 6.6 -2.6
v 11.8 6.6 -2.6
v 11.8 6.7 -2.6
v 12 6.7 -2.5
v 12 6.6 -2.5
v 12 6.6 -2.6
v 12 6.7 -2.6
v 11.9 6.7 -2.5
v 11.9 6.6 -2.5
v 12 6.6 -2.5
v 12 6.7 -2.5
v 12 6.7 -2.6
v 12 6.6 -2.6
v 11.9 6.6 -2.6
v 11.9 6.7 -2.6
v 11.4 6.6 -2.6
v 11.4 6.5 -2.6
v 11.4 6.5 -2.5
v 11.4 6.6 -2.5
v 11.4 6.6 -2.6
v 11.4 6.6 -2.5
v 11.5 6.6 -2.5
v 11.5 6.6 -2.6
v 11.4 6.6 -2.5
v 11.4 6.5 -2.5
v 11.5 6.5 -2.5
v 11.5 6.6 -2.5
v 11.5 6.6 -2.6
v 11.5 6.5 -2.6
v 11.4 6.5 -2.6
v 11.4 6.6 -2.6
v 11.5 6.6 -2.5
v 11.5 6.5 -2.5
v 11.6 6.5 -2.5
v 11.6 6.6 -2.5
v 11.6 6.6 -2.6
v 11.6 6.5 -2.6
v 11.5 6.5 -2.6
v 11.5 6.6 -2.6
v 11.6 6.6 -2.5
v 11.6 6.5 -2.5
v 11.7 6.5 -2.5
v 11.7 6.6 -2.5
v 11.7 6.6 -2.6
v 11.7 6.5 -2.6
v 11.6 6.5 -2.6
v 11.6 6.6 -2.6
v 11.7 6.6 -2.5
v 11.7 6.5 -2.5
v 11.8 6.5 -2.5
v 11.8 6.6 -2.5
v 11.8 6.6 -2.6
v 11.8 6.5 -2.6
v 11.7 6.5 -2.6
v 11.7 6.6 -2.6
v 11.8 6.6 -2.5
v 11.8 6.5 -2.5
v 11.9 6.5 -2.5
v 11.9 6.6 -2.5
v 11.9 6.6 -2.6
v 11.9 6.5 -2.6
v 11.8 6.5 -2.6
v 11.8 6.6 -2.6
v 12 6.6 -2.5
v 12 6.5 -2.5
v 12 6.5 -2.6
v 12 6.6 -2.6
v 11.9 6.5 -2.5
v 11.9 6.5 -2.6
v 12 6.5 -2.6
v 12 6.5 -2.5
v 11.9 6.6 -2.5
v 11.9 6.5 -2.5
v 12 6.5 -2.5
v 12 6.6 -2.5
v 12 6.6 -2.6
v 12 6.5 -2.6
v 11.9 6.5 -2.6
v 11.9 6.6 -2.6
v 11.2 6.5 -2.6
v 11.2 6.4 -2.6
v 11.2 6.4 -2.5
v 11.2 6.5 -2.5
v 11.2 6.5 -2.6
v 11.2 6.5 -2.5
v 11.3 6.5 -2.5
v 11.3 6.5 -2.6
v 11.2 6.5 -2.5
v 11.2 6.4 -2.5
v 11.3 6.4 -2.5
v 11.3 6.5 -2.5
v 11.3 6.5 -2.6
v 11.3 6.4 -2.6
v 11.2 6.4 -2.6
v 11.2 6.5 -2.6
v 11.3 6.5 -2.6
v 11.3 6.5 -2.5
v 11.4 6.5 -2.5
v 11.4 6.5 -2.6
v 11.3 6.5 -2.5
v 11.3 6.4 -2.5
v 11.4 6.4 -2.5
v 11.4 6.5 -2.5
v 11.4 6.5 -2.6
v 11.4 6.4 -2.6
v 11.3 6.4 -2.6
v 11.3 6.5 -2.6
v 11.4 6.5 -2.5
v 11.4 6.4 -2.5
v 11.5 6.4 -2.5
v 11.5 6.5 -2.5
v 11.5 6.5 -2.6
v 11.5 6.4 -2.6
v 11.4 6.4 -2.6
v 11.4 6.5 -2.6
v 11.5 6.5 -2.5
v 11.5 6.4 -2.5
v 11.6 6.4 -2.5
v 11.6 6.5 -2.5
v 11.6 6.5 -2.6
v 11.6 6.4 -2.6
v 11.5 6.4 -2.6
v 11.5 6.5 -2.6
v 11.6 6.5 -2.5
v 11.6 6.4 -2.5
v 11.7 6.4 -2.5
v 11.7 6.5 -2.5
v 11.7 6.5 -2.6
v 11.7 6.4 -2.6
v 11.6 6.4 -2.6
v 11.6 6.5 -2.6
v 11.7 6.5 -2.5
v 11.7 6.4 -2.5
v 11.8 6.4 -2.5
v 11.8 6.5 -2.5
v 11.8 6.5 -2.6
v 11.8 6.4 -2.6
v 11.7 6.4 -2.6
v 11.7 6.5 -2.6
v 11.9 6.5 -2.5
v 11.9 6.4 -2.5
v 11.9 6.4 -2.6
v 11.9 6.5 -2.6
v 11.8 6.4 -2.5
v 11.8 6.4 -2.6
v 11.9 6.4 -2.6
v 11.9 6.4 -2.5
v 11.8 6.5 -2.5
v 11.8 6.4 -2.5
v 11.9 6.4 -2.5
v 11.9 6.5 -2.5
v 11.9 6.5 -2.6
v 11.9 6.4 -2.6
v 11.8 6.4 -2.6
v 11.8 6.5 -2.6
v 11.1 6.4 -2.6
v 11.1 6.3 -2.6
v 11.1 6.3 -2.5
v 11.1 6.4 -2.5
v 11.1 6.4 -2.6
v 11.1 6.4 -2.5
v 11.2 6.4 -2.5
v 11.2 6.4 -2.6
v 11.1 6.4 -2.5
v 11.1 6.3 -2.5
v 11.2 6.3 -2.5
v 11.2 6.4 -2.5
v 11.2 6.4 -2.6
v 11.2 6.3 -2.6
v 11.1 6.3 -2.6
v 11.1 6.4 -2.6
v 11.2 6.4 -2.5
v 11.2 6.3 -2.5
v 11.3 6.3 -2.5
v 11.3 6.4 -2.5
v 11.3 6.4 -2.6
v 11.3 6.3 -2.6
v 11.2 6.3 -2.6
v 11.2 6.4 -2.6
v 11.3 6.4 -2.5
v 11.3 6.3 -2.5
v 11.4 6.3 -2.5
v 11.4 6.4 -2.5
v 11.4 6.4 -2.6
v 11.4 6.3 -2.6
v 11.3 6.3 -2.6
v 11.3 6.4 -2.6
v 11.4 6.4 -2.5
v 11.4 6.3 -2.5
v 11.5 6.3 -2.5
v 11.5 6.4 -2.5
v 11.5 6.4 -2.6
v 11.5 6.3 -2.6
v 11.4 6.3 -2.6
v 11.4 6.4 -2.6
v 11.5 6.4 -2.5
v 11.5 6.3 -2.5
v 11.6 6.3 -2.5
v 11.6 6.4 -2.5
v 11.6 6.4 -2.6
v 11.6 6.3 -2.6
v 11.5 6.3 -2.6
v 11.5 6.4 -2.6
v 11.6 6.4 -2.5
v 11.6 6.3 -2.5
v 11.7 6.3 -2.5
v 11.7 6.4 -2.5
v 11.7 6.4 -2.6
v 11.7 6.3 -2.6
v 11.6 6.3 -2.6
v 11.6 6.4 -2.6
v 11.8 6.4 -2.5
v 11.8 6.3 -2.5
v 11.8 6.3 -2.6
v 11.8 6.4 -2.6
v 11.7 6.3 -2.5
v 11.7 6.3 -2.6
v 11.8 6.3 -2.6
v 11.8 6.3 -2.5
v 11.7 6.4 -2.5
v 11.7 6.3 -2.5
v 11.8 6.3 -2.5
v 11.8 6.4 -2.5
v 11.8 6.4 -2.6
v 11.8 6.3 -2.6
v 11.7 6.3 -2.6
v 11.7 6.4 -2.6
v 8.9 6.3 -2.6
v 8.9 6.2 -2.6
v 8.9 6.2 -2.5
v 8.9 6.3 -2.5
v 9 6.3 -2.5
v 9 6.2 -2.5
v 9 6.2 -2.6
v 9 6.3 -2.6
v 8.9 6.3 -2.6
v 8.9 6.3 -2.5
v 9 6.3 -2.5
v 9 6.3 -2.6
v 8.9 6.2 -2.5
v 8.9 6.2 -2.6
v 9 6.2 -2.6
v 9 6.2 -2.5
v 8.9 6.3 -2.5
v 8.9 6.2 -2.5
v 9 6.2 -2.5
v 9 6.3 -2.5
v 9 6.3 -2.6
v 9 6.2 -2.6
v 8.9 6.2 -2.6
v 8.9 6.3 -2.6
v 10.9 6.3 -2.6
v 10.9 6.2 -2.6
v 10.9 6.2 -2.5
v 10.9 6.3 -2.5
v 10.9 6.3 -2.6
v 10.9 6.3 -2.5
v 11 6.3 -2.5
v 11 6.3 -2.6
v 10.9 6.3 -2.5
v 10.9 6.2 -2.5
v 11 6.2 -2.5
v 11 6.3 -2.5
v 11 6.3 -2.6
v 11 6.2 -2.6
v 10.9 6.2 -2.6
v 10.9 6.3 -2.6
v 11 6.3 -2.6
v 11 6.3 -2.5
v 11.1 6.3 -2.5
v 11.1 6.3 -2.6
v 11 6.3 -2.5
v 11 6.2 -2.5
v 11.1 6.2 -2.5
v 11.1 6.3 -2.5
v 11.1 6.3 -2.6
v 11.1 6.2 -2.6
v 11 6.2 -2.6
v 11 6.3 -2.6
v 11.1 6.3 -2.5
v 11.1 6.2 -2.5
v 11.2 6.2 -2.5
v 11.2 6.3 -2.5
v 11.2 6.3 -2.6
v 11.2 6.2 -2.6
v 11.1 6.2 -2.6
v 11.1 6.3 -2.6
v 11.2 6.3 -2.5
v 11.2 6.2 -2.5
v 11.3 6.2 -2.5
v 11.3 6.3 -2.5
v 11.3 6.3 -2.6
v 11.3 6.2 -2.6
v 11.2 6.2 -2.6
v 11.2 6.3 -2.6
v 11.3 6.3 -2.5
v 11.3 6.2 -2.5
v 11.4 6.2 -2.5
v 11.4 6.3 -2.5
v 11.4 6.3 -2.6
v 11.4 6.2 -2.6
v 11.3 6.2 -2.6
v 11.3 6.3 -2.6
v 11.4 6.3 -2.5
v 11.4 6.2 -2.5
v 11.5 6.2 -2.5
v 11.5 6.3 -2.5
v 11.5 6.3 -2.6
v 11.5 6.2 -2.6
v 11.4 6.2 -2.6
v 11.4 6.3 -2.6
v 11.5 6.2 -2.5
v 11.5 6.2 -2.6
v 11.6 6.2 -2.6
v 11.6 6.2 -2.5
v 11.5 6.3 -2.5
v 11.5 6.2 -2.5
v 11.6 6.2 -2.5
v 11.6 6.3 -2.5
v 11.6 6.3 -2.6
v 11.6 6.2 -2.6
v 11.5 6.2 -2.6
v 11.5 6.3 -2.6
v 11.7 6.3 -2.5
v 11.7 6.2 -2.5
v 11.7 6.2 -2.6
v 11.7 6.3 -2.6
v 11.6 6.2 -2.5
v 11.6 6.2 -2.6
v 11.7 6.2 -2.6
v 11.7 6.2 -2.5
v 11.6 6.3 -2.5
v 11.6 6.2 -2.5
v 11.7 6.2 -2.5
v 11.7 6.3 -2.5
v 11.7 6.3 -2.6
v 11.7 6.2 -2.6
v 11.6 6.2 -2.6
v 11.6 6.3 -2.6
v 8.7 6.2 -2.6
v 8.7 6.1 -2.6
v 8.7 6.1 -2.5
v 8.7 6.2 -2.5
v 8.7 6.2 -2.6
v 8.7 6.2 -2.5
v 8.8 6.2 -2.5
v 8.8 6.2 -2.6
v 8.7 6.2 -2.5
v 8.7 6.1 -2.5
v 8.8 6.1 -2.5
v 8.8 6.2 -2.5
v 8.8 6.2 -2.6
v 8.8 6.1 -2.6
v 8.7 6.1 -2.6
v 8.7 6.2 -2.6
v 8.9 6.2 -2.5
v 8.9 6.1 -2.5
v 8.9 6.1 -2.6
v 8.9 6.2 -2.6
v 8.8 6.2 -2.6
v 8.8 6.2 -2.5
v 8.9 6.2 -2.5
v 8.9 6.2 -2.6
v 8.8 6.1 -2.5
v 8.8 6.1 -2.6
v 8.9 6.1 -2.6
v 8.9 6.1 -2.5
v 8.8 6.2 -2.5
v 8.8 6.1 -2.5
v 8.9 6.1 -2.5
v 8.9 6.2 -2.5
v 8.9 6.2 -2.6
v 8.9 6.1 -2.6
v 8.8 6.1 -2.6
v 8.8 6.2 -2.6
v 10.8 6.2 -2.6
v 10.8 6.1 -2.6
v 10.8 6.1 -2.5
v 10.8 6.2 -2.5
v 10.8 6.2 -2.6
v 10.8 6.2 -2.5
v 10.9 6.2 -2.5
v 10.9 6.2 -2.6
v 10.8 6.2 -2.5
v 10.8 6.1 -2.5
v 10.9 6.1 -2.5
v 10.9 6.2 -2.5
v 10.9 6.2 -2.6
v 10.9 6.1 -2.6
v 10.8 6.1 -2.6
v 10.8 6.2 -2.6
v 10.9 6.2 -2.5
v 10.9 6.1 -2.5
v 11 6.1 -2.5
v 11 6.2 -2.5
v 11 6.2 -2.6
v 11 6.1 -2.6
v 10.9 6.1 -2.6
v 10.9 6.2 -2.6
v 11 6.2 -2.5
v 11 6.1 -2.5
v 11.1 6.1 -2.5
v 11.1 6.2 -2.5
v 11.1 6.2 -2.6
v 11.1 6.1 -2.6
v 11 6.1 -2.6
v 11 6.2 -2.6
v 11.1 6.2 -2.5
v 11.1 6.1 -2.5
v 11.2 6.1 -2.5
v 11.2 6.2 -2.5
v 11.2 6.2 -2.6
v 11.2 6.1 -2.6
v 11.1 6.1 -2.6
v 11.1 6.2 -2.6
v 11.2 6.2 -2.5
v 11.2 6.1 -2.5
v 11.3 6.1 -2.5
v 11.3 6.2 -2.5
v 11.3 6.2 -2.6
v 11.3 6.1 -2.6
v 11.2 6.1 -2.6
v 11.2 6.2 -2.6
v 11.3 6.2 -2.5
v 11.3 6.1 -2.5
v 11.4 6.1 -2.5
v 11.4 6.2 -2.5
v 11.4 6.2 -2.6
v 11.4 6.1 -2.6
v 11.3 6.1 -2.6
v 11.3 6.2 -2.6
v 11.5 6.2 -2.5
v 11.5 6.1 -2.5
v 11.5 6.1 -2.6
v 11.5 6.2 -2.6
v 11.4 6.1 -2.5
v 11.4 6.1 -2.6
v 11.5 6.1 -2.6
v 11.5 6.1 -2.5
v 11.4 6.2 -2.5
v 11.4 6.1 -2.5
v 11.5 6.1 -2.5
v 11.5 6.2 -2.5
v 11.5 6.2 -2.6
v 11.5 6.1 -2.6
v 11.4 6.1 -2.6
v 11.4 6.2 -2.6
v 8.5 6.1 -2.6
v 8.5 6 -2.6
v 8.5 6 -2.5
v 8.5 6.1 -2.5
v 8.5 6.1 -2.6
v 8.5 6.1 -2.5
v 8.6 6.1 -2.5
v 8.6 6.1 -2.6
v 8.5 6.1 -2.5
v 8.5 6 -2.5
v 8.6 6 -2.5
v 8.6 6.1 -2.5
v 8.6 6.1 -2.6
v 8.6 6 -2.6
v 8.5 6 -2.6
v 8.5 6.1 -2.6
v 8.6 6.1 -2.6
v 8.6 6.1 -2.5
v 8.7 6.1 -2.5
v 8.7 6.1 -2.6
v 8.6 6 -2.5
v 8.6 6 -2.6
v 8.7 6 -2.6
v 8.7 6 -2.5
v 8.6 6.1 -2.5
v 8.6 6 -2.5
v 8.7 6 -2.5
v 8.7 6.1 -2.5
v 8.7 6.1 -2.6
v 8.7 6 -2.6
v 8.6 6 -2.6
v 8.6 6.1 -2.6
v 8.8 6.1 -2.5
v 8.8 6 -2.5
v 8.8 6 -2.6
v 8.8 6.1 -2.6
v 8.7 6 -2.5
v 8.7 6 -2.6
v 8.8 6 -2.6
v 8.8 6 -2.5
v 8.7 6.1 -2.5
v 8.7 6 -2.5
v 8.8 6 -2.5
v 8.8 6.1 -2.5
v 8.8 6.1 -2.6
v 8.8 6 -2.6
v 8.7 6 -2.6
v 8.7 6.1 -2.6
v 10.6 6.1 -2.6
v 10.6 6 -2.6
v 10.6 6 -2.5
v 10.6 6.1 -2.5
v 10.6 6.1 -2.6
v 10.6 6.1 -2.5
v 10.7 6.1 -2.5
v 10.7 6.1 -2.6
v 10.6 6.1 -2.5
v 10.6 6 -2.5
v 10.7 6 -2.5
v 10.7 6.1 -2.5
v 10.7 6.1 -2.6
v 10.7 6 -2.6
v 10.6 6 -2.6
v 10.6 6.1 -2.6
v 10.7 6.1 -2.6
v 10.7 6.1 -2.5
v 10.8 6.1 -2.5
v 10.8 6.1 -2.6
v 10.7 6.1 -2.5
v 10.7 6 -2.5
v 10.8 6 -2.5
v 10.8 6.1 -2.5
v 10.8 6.1 -2.6
v 10.8 6 -2.6
v 10.7 6 -2.6
v 10.7 6.1 -2.6
v 10.8 6.1 -2.5
v 10.8 6 -2.5
v 10.9 6 -2.5
v 10.9 6.1 -2.5
v 10.9 6.1 -2.6
v 10.9 6 -2.6
v 10.8 6 -2.6
v 10.8 6.1 -2.6
v 10.9 6.1 -2.5
v 10.9 6 -2.5
v 11 6 -2.5
v 11 6.1 -2.5
v 11 6.1 -2.6
v 11 6 -2.6
v 10.9 6 -2.6
v 10.9 6.1 -2.6
v 11 6.1 -2.5
v 11 6 -2.5
v 11.1 6 -2.5
v 11.1 6.1 -2.5
v 11.1 6.1 -2.6
v 11.1 6 -2.6
v 11 6 -2.6
v 11 6.1 -2.6
v 11.1 6.1 -2.5
v 11.1 6 -2.5
v 11.2 6 -2.5
v 11.2 6.1 -2.5
v 11.2 6.1 -2.6
v 11.2 6 -2.6
v 11.1 6 -2.6
v 11.1 6.1 -2.6
v 11.2 6 -2.5
v 11.2 6 -2.6
v 11.3 6 -2.6
v 11.3 6 -2.5
v 11.2 6.1 -2.5
v 11.2 6 -2.5
v 11.3 6 -2.5
v 11.3 6.1 -2.5
v 11.3 6.1 -2.6
v 11.3 6 -2.6
v 11.2 6 -2.6
v 11.2 6.1 -2.6
v 11.4 6.1 -2.5
v 11.4 6 -2.5
v 11.4 6 -2.6
v 11.4 6.1 -2.6
v 11.3 6 -2.5
v 11.3 6 -2.6
v 11.4 6 -2.6
v 11.4 6 -2.5
v 11.3 6.1 -2.5
v 11.3 6 -2.5
v 11.4 6 -2.5
v 11.4 6.1 -2.5
v 11.4 6.1 -2.6
v 11.4 6 -2.6
v 11.3 6 -2.6
v 11.3 6.1 -2.6
v 8.3 6 -2.6
v 8.3 5.9 -2.6
v 8.3 5.9 -2.5
v 8.3 6 -2.5
v 8.3 6 -2.6
v 8.3 6 -2.5
v 8.4 6 -2.5
v 8.4 6 -2.6
v 8.3 5.9 -2.5
v 8.3 5.9 -2.6
v 8.4 5.9 -2.6
v 8.4 5.9 -2.5
v 8.3 6 -2.5
v 8.3 5.9 -2.5
v 8.4 5.9 -2.5
v 8.4 6 -2.5
v 8.4 6 -2.6
v 8.4 5.9 -2.6
v 8.3 5.9 -2.6
v 8.3 6 -2.6
v 8.4 6 -2.6
v 8.4 6 -2.5
v 8.5 6 -2.5
v 8.5 6 -2.6
v 8.4 5.9 -2.5
v 8.4 5.9 -2.6
v 8.5 5.9 -2.6
v 8.5 5.9 -2.5
v 8.4 6 -2.5
v 8.4 5.9 -2.5
v 8.5 5.9 -2.5
v 8.5 6 -2.5
v 8.5 6 -2.6
v 8.5 5.9 -2.6
v 8.4 5.9 -2.6
v 8.4 6 -2.6
v 8.6 6 -2.5
v 8.6 5.9 -2.5
v 8.6 5.9 -2.6
v 8.6 6 -2.6
v 8.5 5.9 -2.5
v 8.5 5.9 -2.6
v 8.6 5.9 -2.6
v 8.6 5.9 -2.5
v 8.5 6 -2.5
v 8.5 5.9 -2.5
v 8.6 5.9 -2.5
v 8.6 6 -2.5
v 8.6 6 -2.6
v 8.6 5.9 -2.6
v 8.5 5.9 -2.6
v 8.5 6 -2.6
v 10.4 6 -2.6
v 10.4 5.9 -2.6
v 10.4 5.9 -2.5
v 10.4 6 -2.5
v 10.4 6 -2.6
v 10.4 6 -2.5
v 10.5 6 -2.5
v 10.5 6 -2.6
v 10.4 6 -2.5
v 10.4 5.9 -2.5
v 10.5 5.9 -2.5
v 10.5 6 -2.5
v 10.5 6 -2.6
v 10.5 5.9 -2.6
v 10.4 5.9 -2.6
v 10.4 6 -2.6
v 10.5 6 -2.6
v 10.5 6 -2.5
v 10.6 6 -2.5
v 10.6 6 -2.6
v 10.5 6 -2.5
v 10.5 5.9 -2.5
v 10.6 5.9 -2.5
v 10.6 6 -2.5
v 10.6 6 -2.6
v 10.6 5.9 -2.6
v 10.5 5.9 -2.6
v 10.5 6 -2.6
v 10.6 6 -2.5
v 10.6 5.9 -2.5
v 10.7 5.9 -2.5
v 10.7 6 -2.5
v 10.7 6 -2.6
v 10.7 5.9 -2.6
v 10.6 5.9 -2.6
v 10.6 6 -2.6
v 10.7 6 -2.5
v 10.7 5.9 -2.5
v 10.8 5.9 -2.5
v 10.8 6 -2.5
v 10.8 6 -2.6
v 10.8 5.9 -2.6
v 10.7 5.9 -2.6
v 10.7 6 -2.6
v 10.8 6 -2.5
v 10.8 5.9 -2.5
v 10.9 5.9 -2.5
v 10.9 6 -2.5
v 10.9 6 -2.6
v 10.9 5.9 -2.6
v 10.8 5.9 -2.6
v 10.8 6 -2.6
v 10.9 6 -2.5
v 10.9 5.9 -2.5
v 11 5.9 -2.5
v 11 6 -2.5
v 11 6 -2.6
v 11 5.9 -2.6
v 10.9 5.9 -2.6
v 10.9 6 -2.6
v 11 6 -2.5
v 11 5.9 -2.5
v 11.1 5.9 -2.5
v 11.1 6 -2.5
v 11.1 6 -2.6
v 11.1 5.9 -2.6
v 11 5.9 -2.6
v 11 6 -2.6
v 11.2 6 -2.5
v 11.2 5.9 -2.5
v 11.2 5.9 -2.6
v 11.2 6 -2.6
v 11.1 5.9 -2.5
v 11.1 5.9 -2.6
v 11.2 5.9 -2.6
v 11.2 5.9 -2.5
v 11.1 6 -2.5
v 11.1 5.9 -2.5
v 11.2 5.9 -2.5
v 11.2 6 -2.5
v 11.2 6 -2.6
v 11.2 5.9 -2.6
v 11.1 5.9 -2.6
v 11.1 6 -2.6
v 6.4 5.9 -2.6
v 6.4 5.8 -2.6
v 6.4 5.8 -2.5
v 6.4 5.9 -2.5
v 6.5 5.9 -2.5
v 6.5 5.8 -2.5
v 6.5 5.8 -2.6
v 6.5 5.9 -2.6
v 6.4 5.9 -2.6
v 6.4 5.9 -2.5
v 6.5 5.9 -2.5
v 6.5 5.9 -2.6
v 6.4 5.9 -2.5
v 6.4 5.8 -2.5
v 6.5 5.8 -2.5
v 6.5 5.9 -2.5
v 6.5 5.9 -2.6
v 6.5 5.8 -2.6
v 6.4 5.8 -2.6
v 6.4 5.9 -2.6
v 7.9 5.9 -2.6
v 7.9 5.8 -2.6
v 7.9 5.8 -2.5
v 7.9 5.9 -2.5
v 7.9 5.9 -2.6
v 7.9 5.9 -2.5
v 8 5.9 -2.5
v 8 5.9 -2.6
v 7.9 5.8 -2.5
v 7.9 5.8 -2.6
v 8 5.8 -2.6
v 8 5.8 -2.5
v 7.9 5.9 -2.5
v 7.9 5.8 -2.5
v 8 5.8 -2.5
v 8 5.9 -2.5
v 8 5.9 -2.6
v 8 5.8 -2.6
v 7.9 5.8 -2.6
v 7.9 5.9 -2.6
v 8 5.9 -2.6
v 8 5.9 -2.5
v 8.1 5.9 -2.5
v 8.1 5.9 -2.6
v 8 5.8 -2.5
v 8 5.8 -2.6
v 8.1 5.8 -2.6
v 8.1 5.8 -2.5
v 8 5.9 -2.5
v 8 5.8 -2.5
v 8.1 5.8 -2.5
v 8.1 5.9 -2.5
v 8.1 5.9 -2.6
v 8.1 5.8 -2.6
v 8 5.8 -2.6
v 8 5.9 -2.6
v 8.1 5.9 -2.6
v 8.1 5.9 -2.5
v 8.2 5.9 -2.5
v 8.2 5.9 -2.6
v 8.1 5.8 -2.5
v 8.1 5.8 -2.6
v 8.2 5.8 -2.6
v 8.2 5.8 -2.5
v 8.1 5.9 -2.5
v 8.1 5.8 -2.5
v 8.2 5.8 -2.5
v 8.2 5.9 -2.5
v 8.2 5.9 -2.6
v 8.2 5.8 -2.6
v 8.1 5.8 -2.6
v 8.1 5.9 -2.6
v 8.3 5.9 -2.5
v 8.3 5.8 -2.5
v 8.3 5.8 -2.6
v 8.3 5.9 -2.6
v 8.2 5.9 -2.6
v 8.2 5.9 -2.5
v 8.3 5.9 -2.5
v 8.3 5.9 -2.6
v 8.2 5.8 -2.5
v 8.2 5.8 -2.6
v 8.3 5.8 -2.6
v 8.3 5.8 -2.5
v 8.2 5.9 -2.5
v 8.2 5.8 -2.5
v 8.3 5.8 -2.5
v 8.3 5.9 -2.5
v 8.3 5.9 -2.6
v 8.3 5.8 -2.6
v 8.2 5.8 -2.6
v 8.2 5.9 -2.6
v 10.1 5.9 -2.6
v 10.1 5.8 -2.6
v 10.1 5.8 -2.5
v 10.1 5.9 -2.5
v 10.1 5.9 -2.6
v 10.1 5.9 -2.5
v 10.2 5.9 -2.5
v 10.2 5.9 -2.6
v 10.1 5.9 -2.5
v 10.1 5.8 -2.5
v 10.2 5.8 -2.5
v 10.2 5.9 -2.5
v 10.2 5.9 -2.6
v 10.2 5.8 -2.6
v 10.1 5.8 -2.6
v 10.1 5.9 -2.6
v 10.2 5.9 -2.6
v 10.2 5.9 -2.5
v 10.3 5.9 -2.5
v 10.3 5.9 -2.6
v 10.2 5.9 -2.5
v 10.2 5.8 -2.5
v 10.3 5.8 -2.5
v 10.3 5.9 -2.5
v 10.3 5.9 -2.6
v 10.3 5.8 -2.6
v 10.2 5.8 -2.6
v 10.2 5.9 -2.6
v 10.3 5.9 -2.6
v 10.3 5.9 -2.5
v 10.4 5.9 -2.5
v 10.4 5.9 -2.6
v 10.3 5.9 -2.5
v 10.3 5.8 -2.5
v 10.4 5.8 -2.5
v 10.4 5.9 -2.5
v 10.4 5.9 -2.6
v 10.4 5.8 -2.6
v 10.3 5.8 -2.6
v 10.3 5.9 -2.6
v 10.4 5.9 -2.5
v 10.4 5.8 -2.5
v 10.5 5.8 -2.5
v 10.5 5.9 -2.5
v 10.5 5.9 -2.6
v 10.5 5.8 -2.6
v 10.4 5.8 -2.6
v 10.4 5.9 -2.6
v 10.5 5.9 -2.5
v 10.5 5.8 -2.5
v 10.6 5.8 -2.5
v 10.6 5.9 -2.5
v 10.6 5.9 -2.6
v 10.6 5.8 -2.6
v 10.5 5.8 -2.6
v 10.5 5.9 -2.6
v 10.6 5.9 -2.5
v 10.6 5.8 -2.5
v 10.7 5.8 -2.5
v 10.7 5.9 -2.5
v 10.7 5.9 -2.6
v 10.7 5.8 -2.6
v 10.6 5.8 -2.6
v 10.6 5.9 -2.6
v 10.7 5.9 -2.5
v 10.7 5.8 -2.5
v 10.8 5.8 -2.5
v 10.8 5.9 -2.5
v 10.8 5.9 -2.6
v 10.8 5.8 -2.6
v 10.7 5.8 -2.6
v 10.7 5.9 -2.6
v 10.8 5.9 -2.5
v 10.8 5.8 -2.5
v 10.9 5.8 -2.5
v 10.9 5.9 -2.5
v 10.9 5.9 -2.6
v 10.9 5.8 -2.6
v 10.8 5.8 -2.6
v 10.8 5.9 -2.6
v 10.9 5.8 -2.5
v 10.9 5.8 -2.6
v 11 5.8 -2.6
v 11 5.8 -2.5
v 10.9 5.9 -2.5
v 10.9 5.8 -2.5
v 11 5.8 -2.5
v 11 5.9 -2.5
v 11 5.9 -2.6
v 11 5.8 -2.6
v 10.9 5.8 -2.6
v 10.9 5.9 -2.6
v 11.1 5.9 -2.5
v 11.1 5.8 -2.5
v 11.1 5.8 -2.6
v 11.1 5.9 -2.6
v 11 5.8 -2.5
v 11 5.8 -2.6
v 11.1 5.8 -2.6
v 11.1 5.8 -2.5
v 11 5.9 -2.5
v 11 5.8 -2.5
v 11.1 5.8 -2.5
v 11.1 5.9 -2.5
v 11.1 5.9 -2.6
v 11.1 5.8 -2.6
v 11 5.8 -2.6
v 11 5.9 -2.6
v 6.3 5.8 -2.6
v 6.3 5.7 -2.6
v 6.3 5.7 -2.5
v 6.3 5.8 -2.5
v 6.3 5.8 -2.6
v 6.3 5.8 -2.5
v 6.4 5.8 -2.5
v 6.4 5.8 -2.6
v 6.3 5.7 -2.5
v 6.3 5.7 -2.6
v 6.4 5.7 -2.6
v 6.4 5.7 -2.5
v 6.3 5.8 -2.5
v 6.3 5.7 -2.5
v 6.4 5.7 -2.5
v 6.4 5.8 -2.5
v 6.4 5.8 -2.6
v 6.4 5.7 -2.6
v 6.3 5.7 -2.6
v 6.3 5.8 -2.6
v 6.4 5.7 -2.5
v 6.4 5.7 -2.6
v 6.5 5.7 -2.6
v 6.5 5.7 -2.5
v 6.4 5.8 -2.5
v 6.4 5.7 -2.5
v 6.5 5.7 -2.5
v 6.5 5.8 -2.5
v 6.5 5.8 -2.6
v 6.5 5.7 -2.6
v 6.4 5.7 -2.6
v 6.4 5.8 -2.6
v 6.5 5.8 -2.6
v 6.5 5.8 -2.5
v 6.6 5.8 -2.5
v 6.6 5.8 -2.6
v 6.5 5.8 -2.5
v 6.5 5.7 -2.5
v 6.6 5.7 -2.5
v 6.6 5.8 -2.5
v 6.6 5.8 -2.6
v 6.6 5.7 -2.6
v 6.5 5.7 -2.6
v 6.5 5.8 -2.6
v 6.6 5.8 -2.6
v 6.6 5.8 -2.5
v 6.7 5.8 -2.5
v 6.7 5.8 -2.6
v 6.6 5.8 -2.5
v 6.6 5.7 -2.5
v 6.7 5.7 -2.5
v 6.7 5.8 -2.5
v 6.7 5.8 -2.6
v 6.7 5.7 -2.6
v 6.6 5.7 -2.6
v 6.6 5.8 -2.6
v 6.7 5.8 -2.6
v 6.7 5.8 -2.5
v 6.8 5.8 -2.5
v 6.8 5.8 -2.6
v 6.7 5.8 -2.5
v 6.7 5.7 -2.5
v 6.8 5.7 -2.5
v 6.8 5.8 -2.5
v 6.8 5.8 -2.6
v 6.8 5.7 -2.6
v 6.7 5.7 -2.6
v 6.7 5.8 -2.6
v 6.8 5.8 -2.6
v 6.8 5.8 -2.5
v 6.9 5.8 -2.5
v 6.9 5.8 -2.6
v 6.8 5.8 -2.5
v 6.8 5.7 -2.5
v 6.9 5.7 -2.5
v 6.9 5.8 -2.5
v 6.9 5.8 -2.6
v 6.9 5.7 -2.6
v 6.8 5.7 -2.6
v 6.8 5.8 -2.6
v 6.9 5.8 -2.6
v 6.9 5.8 -2.5
v 7 5.8 -2.5
v 7 5.8 -2.6
v 6.9 5.8 -2.5
v 6.9 5.7 -2.5
v 7 5.7 -2.5
v 7 5.8 -2.5
v 7 5.8 -2.6
v 7 5.7 -2.6
v 6.9 5.7 -2.6
v 6.9 5.8 -2.6
v 7 5.8 -2.6
v 7 5.8 -2.5
v 7.1 5.8 -2.5
v 7.1 5.8 -2.6
v 7 5.8 -2.5
v 7 5.7 -2.5
v 7.1 5.7 -2.5
v 7.1 5.8 -2.5
v 7.1 5.8 -2.6
v 7.1 5.7 -2.6
v 7 5.7 -2.6
v 7 5.8 -2.6
v 7.1 5.8 -2.6
v 7.1 5.8 -2.5
v 7.2 5.8 -2.5
v 7.2 5.8 -2.6
v 7.1 5.8 -2.5
v 7.1 5.7 -2.5
v 7.2 5.7 -2.5
v 7.2 5.8 -2.5
v 7.2 5.8 -2.6
v 7.2 5.7 -2.6
v 7.1 5.7 -2.6
v 7.1 5.8 -2.6
v 7.2 5.8 -2.6
v 7.2 5.8 -2.5
v 7.3 5.8 -2.5
v 7.3 5.8 -2.6
v 7.2 5.8 -2.5
v 7.2 5.7 -2.5
v 7.3 5.7 -2.5
v 7.3 5.8 -2.5
v 7.3 5.8 -2.6
v 7.3 5.7 -2.6
v 7.2 5.7 -2.6
v 7.2 5.8 -2.6
v 7.3 5.8 -2.6
v 7.3 5.8 -2.5
v 7.4 5.8 -2.5
v 7.4 5.8 -2.6
v 7.3 5.8 -2.5
v 7.3 5.7 -2.5
v 7.4 5.7 -2.5
v 7.4 5.8 -2.5
v 7.4 5.8 -2.6
v 7.4 5.7 -2.6
v 7.3 5.7 -2.6
v 7.3 5.8 -2.6
v 7.4 5.8 -2.6
v 7.4 5.8 -2.5
v 7.5 5.8 -2.5
v 7.5 5.8 -2.6
v 7.4 5.8 -2.5
v 7.4 5.7 -2.5
v 7.5 5.7 -2.5
v 7.5 5.8 -2.5
v 7.5 5.8 -2.6
v 7.5 5.7 -2.6
v 7.4 5.7 -2.6
v 7.4 5.8 -2.6
v 7.5 5.8 -2.6
v 7.5 5.8 -2.5
v 7.6 5.8 -2.5
v 7.6 5.8 -2.6
v 7.5 5.8 -2.5
v 7.5 5.7 -2.5
v 7.6 5.7 -2.5
v 7.6 5.8 -2.5
v 7.6 5.8 -2.6
v 7.6 5.7 -2.6
v 7.5 5.7 -2.6
v 7.5 5.8 -2.6
v 7.6 5.8 -2.6
v 7.6 5.8 -2.5
v 7.7 5.8 -2.5
v 7.7 5.8 -2.6
v 7.6 5.7 -2.5
v 7.6 5.7 -2.6
v 7.7 5.7 -2.6
v 7.7 5.7 -2.5
v 7.6 5.8 -2.5
v 7.6 5.7 -2.5
v 7.7 5.7 -2.5
v 7.7 5.8 -2.5
v 7.7 5.8 -2.6
v 7.7 5.7 -2.6
v 7.6 5.7 -2.6
v 7.6 5.8 -2.6
v 7.7 5.8 -2.6
v 7.7 5.8 -2.5
v 7.8 5.8 -2.5
v 7.8 5.8 -2.6
v 7.7 5.7 -2.5
v 7.7 5.7 -2.6
v 7.8 5.7 -2.6
v 7.8 5.7 -2.5
v 7.7 5.8 -2.5
v 7.7 5.7 -2.5
v 7.8 5.7 -2.5
v 7.8 5.8 -2.5
v 7.8 5.8 -2.6
v 7.8 5.7 -2.6
v 7.7 5.7 -2.6
v 7.7 5.8 -2.6
v 7.9 5.8 -2.5
v 7.9 5.7 -2.5
v 7.9 5.7 -2.6
v 7.9 5.8 -2.6
v 7.8 5.8 -2.6
v 7.8 5.8 -2.5
v 7.9 5.8 -2.5
v 7.9 5.8 -2.6
v 7.8 5.7 -2.5
v 7.8 5.7 -2.6
v 7.9 5.7 -2.6
v 7.9 5.7 -2.5
v 7.8 5.8 -2.5
v 7.8 5.7 -2.5
v 7.9 5.7 -2.5
v 7.9 5.8 -2.5
v 7.9 5.8 -2.6
v 7.9 5.7 -2.6
v 7.8 5.7 -2.6
v 7.8 5.8 -2.6
v 9.9 5.8 -2.6
v 9.9 5.7 -2.6
v 9.9 5.7 -2.5
v 9.9 5.8 -2.5
v 9.9 5.8 -2.6
v 9.9 5.8 -2.5
v 10 5.8 -2.5
v 10 5.8 -2.6
v 9.9 5.8 -2.5
v 9.9 5.7 -2.5
v 10 5.7 -2.5
v 10 5.8 -2.5
v 10 5.8 -2.6
v 10 5.7 -2.6
v 9.9 5.7 -2.6
v 9.9 5.8 -2.6
v 10 5.8 -2.6
v 10 5.8 -2.5
v 10.1 5.8 -2.5
v 10.1 5.8 -2.6
v 10 5.8 -2.5
v 10 5.7 -2.5
v 10.1 5.7 -2.5
v 10.1 5.8 -2.5
v 10.1 5.8 -2.6
v 10.1 5.7 -2.6
v 10 5.7 -2.6
v 10 5.8 -2.6
v 10.1 5.8 -2.5
v 10.1 5.7 -2.5
v 10.2 5.7 -2.5
v 10.2 5.8 -2.5
v 10.2 5.8 -2.6
v 10.2 5.7 -2.6
v 10.1 5.7 -2.6
v 10.1 5.8 -2.6
v 10.2 5.8 -2.5
v 10.2 5.7 -2.5
v 10.3 5.7 -2.5
v 10.3 5.8 -2.5
v 10.3 5.8 -2.6
v 10.3 5.7 -2.6
v 10.2 5.7 -2.6
v 10.2 5.8 -2.6
v 10.3 5.8 -2.5
v 10.3 5.7 -2.5
v 10.4 5.7 -2.5
v 10.4 5.8 -2.5
v 10.4 5.8 -2.6
v 10.4 5.7 -2.6
v 10.3 5.7 -2.6
v 10.3 5.8 -2.6
v 10.4 5.8 -2.5
v 10.4 5.7 -2.5
v 10.5 5.7 -2.5
v 10.5 5.8 -2.5
v 10.5 5.8 -2.6
v 10.5 5.7 -2.6
v 10.4 5.7 -2.6
v 10.4 5.8 -2.6
v 10.5 5.8 -2.5
v 10.5 5.7 -2.5
v 10.6 5.7 -2.5
v 10.6 5.8 -2.5
v 10.6 5.8 -2.6
v 10.6 5.7 -2.6
v 10.5 5.7 -2.6
v 10.5 5.8 -2.6
v 10.6 5.7 -2.5
v 10.6 5.7 -2.6
v 10.7 5.7 -2.6
v 10.7 5.7 -2.5
v 10.6 5.8 -2.5
v 10.6 5.7 -2.5
v 10.7 5.7 -2.5
v 10.7 5.8 -2.5
v 10.7 5.8 -2.6
v 10.7 5.7 -2.6
v 10.6 5.7 -2.6
v 10.6 5.8 -2.6
v 10.7 5.7 -2.5
v 10.7 5.7 -2.6
v 10.8 5.7 -2.6
v 10.8 5.7 -2.5
v 10.7 5.8 -2.5
v 10.7 5.7 -2.5
v 10.8 5.7 -2.5
v 10.8 5.8 -2.5
v 10.8 5.8 -2.6
v 10.8 5.7 -2.6
v 10.7 5.7 -2.6
v 10.7 5.8 -2.6
v 10.9 5.8 -2.5
v 10.9 5.7 -2.5
v 10.9 5.7 -2.6
v 10.9 5.8 -2.6
v 10.8 5.7 -2.5
v 10.8 5.7 -2.6
v 10.9 5.7 -2.6
v 10.9 5.7 -2.5
v 10.8 5.8 -2.5
v 10.8 5.7 -2.5
v 10.9 5.7 -2.5
v 10.9 5.8 -2.5
v 10.9 5.8 -2.6
v 10.9 5.7 -2.6
v 10.8 5.7 -2.6
v 10.8 5.8 -2.6
v 11.1 5.8 -2.6
v 11.1 5.7 -2.6
v 11.1 5.7 -2.5
v 11.1 5.8 -2.5
v 11.2 5.8 -2.5
v 11.2 5.7 -2.5
v 11.2 5.7 -2.6
v 11.2 5.8 -2.6
v 11.1 5.8 -2.6
v 11.1 5.8 -2.5
v 11.2 5.8 -2.5
v 11.2 5.8 -2.6
v 11.1 5.7 -2.5
v 11.1 5.7 -2.6
v 11.2 5.7 -2.6
v 11.2 5.7 -2.5
v 11.1 5.8 -2.5
v 11.1 5.7 -2.5
v 11.2 5.7 -2.5
v 11.2 5.8 -2.5
v 11.2 5.8 -2.6
v 11.2 5.7 -2.6
v 11.1 5.7 -2.6
v 11.1 5.8 -2.6
v 6.5 5.7 -2.6
v 6.5 5.6 -2.6
v 6.5 5.6 -2.5
v 6.5 5.7 -2.5
v 6.5 5.6 -2.5
v 6.5 5.6 -2.6
v 6.6 5.6 -2.6
v 6.6 5.6 -2.5
v 6.5 5.7 -2.5
v 6.5 5.6 -2.5
v 6.6 5.6 -2.5
v 6.6 5.7 -2.5
v 6.6 5.7 -2.6
v 6.6 5.6 -2.6
v 6.5 5.6 -2.6
v 6.5 5.7 -2.6
v 6.6 5.6 -2.5
v 6.6 5.6 -2.6
v 6.7 5.6 -2.6
v 6.7 5.6 -2.5
v 6.6 5.7 -2.5
v 6.6 5.6 -2.5
v 6.7 5.6 -2.5
v 6.7 5.7 -2.5
v 6.7 5.7 -2.6
v 6.7 5.6 -2.6
v 6.6 5.6 -2.6
v 6.6 5.7 -2.6
v 6.7 5.6 -2.5
v 6.7 5.6 -2.6
v 6.8 5.6 -2.6
v 6.8 5.6 -2.5
v 6.7 5.7 -2.5
v 6.7 5.6 -2.5
v 6.8 5.6 -2.5
v 6.8 5.7 -2.5
v 6.8 5.7 -2.6
v 6.8 5.6 -2.6
v 6.7 5.6 -2.6
v 6.7 5.7 -2.6
v 6.8 5.7 -2.5
v 6.8 5.6 -2.5
v 6.9 5.6 -2.5
v 6.9 5.7 -2.5
v 6.9 5.7 -2.6
v 6.9 5.6 -2.6
v 6.8 5.6 -2.6
v 6.8 5.7 -2.6
v 6.9 5.7 -2.5
v 6.9 5.6 -2.5
v 7 5.6 -2.5
v 7 5.7 -2.5
v 7 5.7 -2.6
v 7 5.6 -2.6
v 6.9 5.6 -2.6
v 6.9 5.7 -2.6
v 7 5.7 -2.5
v 7 5.6 -2.5
v 7.1 5.6 -2.5
v 7.1 5.7 -2.5
v 7.1 5.7 -2.6
v 7.1 5.6 -2.6
v 7 5.6 -2.6
v 7 5.7 -2.6
v 7.1 5.7 -2.5
v 7.1 5.6 -2.5
v 7.2 5.6 -2.5
v 7.2 5.7 -2.5
v 7.2 5.7 -2.6
v 7.2 5.6 -2.6
v 7.1 5.6 -2.6
v 7.1 5.7 -2.6
v 7.2 5.7 -2.5
v 7.2 5.6 -2.5
v 7.3 5.6 -2.5
v 7.3 5.7 -2.5
v 7.3 5.7 -2.6
v 7.3 5.6 -2.6
v 7.2 5.6 -2.6
v 7.2 5.7 -2.6
v 7.3 5.6 -2.5
v 7.3 5.6 -2.6
v 7.4 5.6 -2.6
v 7.4 5.6 -2.5
v 7.3 5.7 -2.5
v 7.3 5.6 -2.5
v 7.4 5.6 -2.5
v 7.4 5.7 -2.5
v 7.4 5.7 -2.6
v 7.4 5.6 -2.6
v 7.3 5.6 -2.6
v 7.3 5.7 -2.6
v 7.4 5.6 -2.5
v 7.4 5.6 -2.6
v 7.5 5.6 -2.6
v 7.5 5.6 -2.5
v 7.4 5.7 -2.5
v 7.4 5.6 -2.5
v 7.5 5.6 -2.5
v 7.5 5.7 -2.5
v 7.5 5.7 -2.6
v 7.5 5.6 -2.6
v 7.4 5.6 -2.6
v 7.4 5.7 -2.6
v 7.6 5.7 -2.5
v 7.6 5.6 -2.5
v 7.6 5.6 -2.6
v 7.6 5.7 -2.6
v 7.5 5.6 -2.5
v 7.5 5.6 -2.6
v 7.6 5.6 -2.6
v 7.6 5.6 -2.5
v 7.5 5.7 -2.5
v 7.5 5.6 -2.5
v 7.6 5.6 -2.5
v 7.6 5.7 -2.5
v 7.6 5.7 -2.6
v 7.6 5.6 -2.6
v 7.5 5.6 -2.6
v 7.5 5.7 -2.6
v 9.6 5.7 -2.6
v 9.6 5.6 -2.6
v 9.6 5.6 -2.5
v 9.6 5.7 -2.5
v 9.6 5.7 -2.6
v 9.6 5.7 -2.5
v 9.7 5.7 -2.5
v 9.7 5.7 -2.6
v 9.6 5.7 -2.5
v 9.6 5.6 -2.5
v 9.7 5.6 -2.5
v 9.7 5.7 -2.5
v 9.7 5.7 -2.6
v 9.7 5.6 -2.6
v 9.6 5.6 -2.6
v 9.6 5.7 -2.6
v 9.7 5.7 -2.6
v 9.7 5.7 -2.5
v 9.8 5.7 -2.5
v 9.8 5.7 -2.6
v 9.7 5.7 -2.5
v 9.7 5.6 -2.5
v 9.8 5.6 -2.5
v 9.8 5.7 -2.5
v 9.8 5.7 -2.6
v 9.8 5.6 -2.6
v 9.7 5.6 -2.6
v 9.7 5.7 -2.6
v 9.8 5.7 -2.6
v 9.8 5.7 -2.5
v 9.9 5.7 -2.5
v 9.9 5.7 -2.6
v 9.8 5.7 -2.5
v 9.8 5.6 -2.5
v 9.9 5.6 -2.5
v 9.9 5.7 -2.5
v 9.9 5.7 -2.6
v 9.9 5.6 -2.6
v 9.8 5.6 -2.6
v 9.8 5.7 -2.6
v 9.9 5.7 -2.5
v 9.9 5.6 -2.5
v 10 5.6 -2.5
v 10 5.7 -2.5
v 10 5.7 -2.6
v 10 5.6 -2.6
v 9.9 5.6 -2.6
v 9.9 5.7 -2.6
v 10 5.7 -2.5
v 10 5.6 -2.5
v 10.1 5.6 -2.5
v 10.1 5.7 -2.5
v 10.1 5.7 -2.6
v 10.1 5.6 -2.6
v 10 5.6 -2.6
v 10 5.7 -2.6
v 10.1 5.7 -2.5
v 10.1 5.6 -2.5
v 10.2 5.6 -2.5
v 10.2 5.7 -2.5
v 10.2 5.7 -2.6
v 10.2 5.6 -2.6
v 10.1 5.6 -2.6
v 10.1 5.7 -2.6
v 10.2 5.7 -2.5
v 10.2 5.6 -2.5
v 10.3 5.6 -2.5
v 10.3 5.7 -2.5
v 10.3 5.7 -2.6
v 10.3 5.6 -2.6
v 10.2 5.6 -2.6
v 10.2 5.7 -2.6
v 10.3 5.7 -2.5
v 10.3 5.6 -2.5
v 10.4 5.6 -2.5
v 10.4 5.7 -2.5
v 10.4 5.7 -2.6
v 10.4 5.6 -2.6
v 10.3 5.6 -2.6
v 10.3 5.7 -2.6
v 10.4 5.6 -2.5
v 10.4 5.6 -2.6
v 10.5 5.6 -2.6
v 10.5 5.6 -2.5
v 10.4 5.7 -2.5
v 10.4 5.6 -2.5
v 10.5 5.6 -2.5
v 10.5 5.7 -2.5
v 10.5 5.7 -2.6
v 10.5 5.6 -2.6
v 10.4 5.6 -2.6
v 10.4 5.7 -2.6
v 10.6 5.7 -2.5
v 10.6 5.6 -2.5
v 10.6 5.6 -2.6
v 10.6 5.7 -2.6
v 10.5 5.6 -2.5
v 10.5 5.6 -2.6
v 10.6 5.6 -2.6
v 10.6 5.6 -2.5
v 10.5 5.7 -2.5
v 10.5 5.6 -2.5
v 10.6 5.6 -2.5
v 10.6 5.7 -2.5
v 10.6 5.7 -2.6
v 10.6 5.6 -2.6
v 10.5 5.6 -2.6
v 10.5 5.7 -2.6
v 10.9 5.7 -2.6
v 10.9 5.6 -2.6
v 10.9 5.6 -2.5
v 10.9 5.7 -2.5
v 10.9 5.7 -2.6
v 10.9 5.7 -2.5
v 11 5.7 -2.5
v 11 5.7 -2.6
v 10.9 5.6 -2.5
v 10.9 5.6 -2.6
v 11 5.6 -2.6
v 11 5.6 -2.5
v 10.9 5.7 -2.5
v 10.9 5.6 -2.5
v 11 5.6 -2.5
v 11 5.7 -2.5
v 11 5.7 -2.6
v 11 5.6 -2.6
v 10.9 5.6 -2.6
v 10.9 5.7 -2.6
v 11.1 5.7 -2.5
v 11.1 5.6 -2.5
v 11.1 5.6 -2.6
v 11.1 5.7 -2.6
v 11 5.7 -2.6
v 11 5.7 -2.5
v 11.1 5.7 -2.5
v 11.1 5.7 -2.6
v 11 5.6 -2.5
v 11 5.6 -2.6
v 11.1 5.6 -2.6
v 11.1 5.6 -2.5
v 11 5.7 -2.5
v 11 5.6 -2.5
v 11.1 5.6 -2.5
v 11.1 5.7 -2.5
v 11.1 5.7 -2.6
v 11.1 5.6 -2.6
v 11 5.6 -2.6
v 11 5.7 -2.6
v 6.8 5.6 -2.6
v 6.8 5.5 -2.6
v 6.8 5.5 -2.5
v 6.8 5.6 -2.5
v 6.8 5.5 -2.5
v 6.8 5.5 -2.6
v 6.9 5.5 -2.6
v 6.9 5.5 -2.5
v 6.8 5.6 -2.5
v 6.8 5.5 -2.5
v 6.9 5.5 -2.5
v 6.9 5.6 -2.5
v 6.9 5.6 -2.6
v 6.9 5.5 -2.6
v 6.8 5.5 -2.6
v 6.8 5.6 -2.6
v 6.9 5.5 -2.5
v 6.9 5.5 -2.6
v 7 5.5 -2.6
v 7 5.5 -2.5
v 6.9 5.6 -2.5
v 6.9 5.5 -2.5
v 7 5.5 -2.5
v 7 5.6 -2.5
v 7 5.6 -2.6
v 7 5.5 -2.6
v 6.9 5.5 -2.6
v 6.9 5.6 -2.6
v 7 5.5 -2.5
v 7 5.5 -2.6
v 7.1 5.5 -2.6
v 7.1 5.5 -2.5
v 7 5.6 -2.5
v 7 5.5 -2.5
v 7.1 5.5 -2.5
v 7.1 5.6 -2.5
v 7.1 5.6 -2.6
v 7.1 5.5 -2.6
v 7 5.5 -2.6
v 7 5.6 -2.6
v 7.1 5.6 -2.5
v 7.1 5.5 -2.5
v 7.2 5.5 -2.5
v 7.2 5.6 -2.5
v 7.2 5.6 -2.6
v 7.2 5.5 -2.6
v 7.1 5.5 -2.6
v 7.1 5.6 -2.6
v 7.3 5.6 -2.5
v 7.3 5.5 -2.5
v 7.3 5.5 -2.6
v 7.3 5.6 -2.6
v 7.2 5.6 -2.5
v 7.2 5.5 -2.5
v 7.3 5.5 -2.5
v 7.3 5.6 -2.5
v 7.3 5.6 -2.6
v 7.3 5.5 -2.6
v 7.2 5.5 -2.6
v 7.2 5.6 -2.6
v 7.8 5.6 -2.6
v 7.8 5.5 -2.6
v 7.8 5.5 -2.5
v 7.8 5.6 -2.5
v 7.8 5.6 -2.6
v 7.8 5.6 -2.5
v 7.9 5.6 -2.5
v 7.9 5.6 -2.6
v 7.8 5.5 -2.5
v 7.8 5.5 -2.6
v 7.9 5.5 -2.6
v 7.9 5.5 -2.5
v 7.8 5.6 -2.5
v 7.8 5.5 -2.5
v 7.9 5.5 -2.5
v 7.9 5.6 -2.5
v 7.9 5.6 -2.6
v 7.9 5.5 -2.6
v 7.8 5.5 -2.6
v 7.8 5.6 -2.6
v 7.9 5.6 -2.6
v 7.9 5.6 -2.5
v 8 5.6 -2.5
v 8 5.6 -2.6
v 7.9 5.5 -2.5
v 7.9 5.5 -2.6
v 8 5.5 -2.6
v 8 5.5 -2.5
v 7.9 5.6 -2.5
v 7.9 5.5 -2.5
v 8 5.5 -2.5
v 8 5.6 -2.5
v 8 5.6 -2.6
v 8 5.5 -2.6
v 7.9 5.5 -2.6
v 7.9 5.6 -2.6
v 8 5.6 -2.6
v 8 5.6 -2.5
v 8.1 5.6 -2.5
v 8.1 5.6 -2.6
v 8 5.5 -2.5
v 8 5.5 -2.6
v 8.1 5.5 -2.6
v 8.1 5.5 -2.5
v 8 5.6 -2.5
v 8 5.5 -2.5
v 8.1 5.5 -2.5
v 8.1 5.6 -2.5
v 8.1 5.6 -2.6
v 8.1 5.5 -2.6
v 8 5.5 -2.6
v 8 5.6 -2.6
v 8.1 5.6 -2.6
v 8.1 5.6 -2.5
v 8.2 5.6 -2.5
v 8.2 5.6 -2.6
v 8.1 5.5 -2.5
v 8.1 5.5 -2.6
v 8.2 5.5 -2.6
v 8.2 5.5 -2.5
v 8.1 5.6 -2.5
v 8.1 5.5 -2.5
v 8.2 5.5 -2.5
v 8.2 5.6 -2.5
v 8.2 5.6 -2.6
v 8.2 5.5 -2.6
v 8.1 5.5 -2.6
v 8.1 5.6 -2.6
v 8.2 5.6 -2.6
v 8.2 5.6 -2.5
v 8.3 5.6 -2.5
v 8.3 5.6 -2.6
v 8.2 5.5 -2.5
v 8.2 5.5 -2.6
v 8.3 5.5 -2.6
v 8.3 5.5 -2.5
v 8.2 5.6 -2.5
v 8.2 5.5 -2.5
v 8.3 5.5 -2.5
v 8.3 5.6 -2.5
v 8.3 5.6 -2.6
v 8.3 5.5 -2.6
v 8.2 5.5 -2.6
v 8.2 5.6 -2.6
v 8.3 5.6 -2.6
v 8.3 5.6 -2.5
v 8.4 5.6 -2.5
v 8.4 5.6 -2.6
v 8.3 5.6 -2.5
v 8.3 5.5 -2.5
v 8.4 5.5 -2.5
v 8.4 5.6 -2.5
v 8.4 5.6 -2.6
v 8.4 5.5 -2.6
v 8.3 5.5 -2.6
v 8.3 5.6 -2.6
v 8.4 5.6 -2.6
v 8.4 5.6 -2.5
v 8.5 5.6 -2.5
v 8.5 5.6 -2.6
v 8.4 5.6 -2.5
v 8.4 5.5 -2.5
v 8.5 5.5 -2.5
v 8.5 5.6 -2.5
v 8.5 5.6 -2.6
v 8.5 5.5 -2.6
v 8.4 5.5 -2.6
v 8.4 5.6 -2.6
v 8.5 5.6 -2.6
v 8.5 5.6 -2.5
v 8.6 5.6 -2.5
v 8.6 5.6 -2.6
v 8.5 5.6 -2.5
v 8.5 5.5 -2.5
v 8.6 5.5 -2.5
v 8.6 5.6 -2.5
v 8.6 5.6 -2.6
v 8.6 5.5 -2.6
v 8.5 5.5 -2.6
v 8.5 5.6 -2.6
v 8.6 5.6 -2.6
v 8.6 5.6 -2.5
v 8.7 5.6 -2.5
v 8.7 5.6 -2.6
v 8.6 5.6 -2.5
v 8.6 5.5 -2.5
v 8.7 5.5 -2.5
v 8.7 5.6 -2.5
v 8.7 5.6 -2.6
v 8.7 5.5 -2.6
v 8.6 5.5 -2.6
v 8.6 5.6 -2.6
v 8.7 5.6 -2.6
v 8.7 5.6 -2.5
v 8.8 5.6 -2.5
v 8.8 5.6 -2.6
v 8.7 5.6 -2.5
v 8.7 5.5 -2.5
v 8.8 5.5 -2.5
v 8.8 5.6 -2.5
v 8.8 5.6 -2.6
v 8.8 5.5 -2.6
v 8.7 5.5 -2.6
v 8.7 5.6 -2.6
v 8.8 5.6 -2.6
v 8.8 5.6 -2.5
v 8.9 5.6 -2.5
v 8.9 5.6 -2.6
v 8.8 5.6 -2.5
v 8.8 5.5 -2.5
v 8.9 5.5 -2.5
v 8.9 5.6 -2.5
v 8.9 5.6 -2.6
v 8.9 5.5 -2.6
v 8.8 5.5 -2.6
v 8.8 5.6 -2.6
v 8.9 5.6 -2.6
v 8.9 5.6 -2.5
v 9 5.6 -2.5
v 9 5.6 -2.6
v 8.9 5.6 -2.5
v 8.9 5.5 -2.5
v 9 5.5 -2.5
v 9 5.6 -2.5
v 9 5.6 -2.6
v 9 5.5 -2.6
v 8.9 5.5 -2.6
v 8.9 5.6 -2.6
v 9 5.6 -2.6
v 9 5.6 -2.5
v 9.1 5.6 -2.5
v 9.1 5.6 -2.6
v 9 5.6 -2.5
v 9 5.5 -2.5
v 9.1 5.5 -2.5
v 9.1 5.6 -2.5
v 9.1 5.6 -2.6
v 9.1 5.5 -2.6
v 9 5.5 -2.6
v 9 5.6 -2.6
v 9.1 5.6 -2.6
v 9.1 5.6 -2.5
v 9.2 5.6 -2.5
v 9.2 5.6 -2.6
v 9.1 5.6 -2.5
v 9.1 5.5 -2.5
v 9.2 5.5 -2.5
v 9.2 5.6 -2.5
v 9.2 5.6 -2.6
v 9.2 5.5 -2.6
v 9.1 5.5 -2.6
v 9.1 5.6 -2.6
v 9.2 5.6 -2.6
v 9.2 5.6 -2.5
v 9.3 5.6 -2.5
v 9.3 5.6 -2.6
v 9.2 5.6 -2.5
v 9.2 5.5 -2.5
v 9.3 5.5 -2.5
v 9.3 5.6 -2.5
v 9.3 5.6 -2.6
v 9.3 5.5 -2.6
v 9.2 5.5 -2.6
v 9.2 5.6 -2.6
v 9.3 5.6 -2.6
v 9.3 5.6 -2.5
v 9.4 5.6 -2.5
v 9.4 5.6 -2.6
v 9.3 5.6 -2.5
v 9.3 5.5 -2.5
v 9.4 5.5 -2.5
v 9.4 5.6 -2.5
v 9.4 5.6 -2.6
v 9.4 5.5 -2.6
v 9.3 5.5 -2.6
v 9.3 5.6 -2.6
v 9.4 5.6 -2.6
v 9.4 5.6 -2.5
v 9.5 5.6 -2.5
v 9.5 5.6 -2.6
v 9.4 5.6 -2.5
v 9.4 5.5 -2.5
v 9.5 5.5 -2.5
v 9.5 5.6 -2.5
v 9.5 5.6 -2.6
v 9.5 5.5 -2.6
v 9.4 5.5 -2.6
v 9.4 5.6 -2.6
v 9.5 5.6 -2.6
v 9.5 5.6 -2.5
v 9.6 5.6 -2.5
v 9.6 5.6 -2.6
v 9.5 5.6 -2.5
v 9.5 5.5 -2.5
v 9.6 5.5 -2.5
v 9.6 5.6 -2.5
v 9.6 5.6 -2.6
v 9.6 5.5 -2.6
v 9.5 5.5 -2.6
v 9.5 5.6 -2.6
v 9.6 5.6 -2.5
v 9.6 5.5 -2.5
v 9.7 5.5 -2.5
v 9.7 5.6 -2.5
v 9.7 5.6 -2.6
v 9.7 5.5 -2.6
v 9.6 5.5 -2.6
v 9.6 5.6 -2.6
v 9.7 5.6 -2.5
v 9.7 5.5 -2.5
v 9.8 5.5 -2.5
v 9.8 5.6 -2.5
v 9.8 5.6 -2.6
v 9.8 5.5 -2.6
v 9.7 5.5 -2.6
v 9.7 5.6 -2.6
v 9.8 5.6 -2.5
v 9.8 5.5 -2.5
v 9.9 5.5 -2.5
v 9.9 5.6 -2.5
v 9.9 5.6 -2.6
v 9.9 5.5 -2.6
v 9.8 5.5 -2.6
v 9.8 5.6 -2.6
v 9.9 5.6 -2.5
v 9.9 5.5 -2.5
v 10 5.5 -2.5
v 10 5.6 -2.5
v 10 5.6 -2.6
v 10 5.5 -2.6
v 9.9 5.5 -2.6
v 9.9 5.6 -2.6
v 10 5.5 -2.5
v 10 5.5 -2.6
v 10.1 5.5 -2.6
v 10.1 5.5 -2.5
v 10 5.6 -2.5
v 10 5.5 -2.5
v 10.1 5.5 -2.5
v 10.1 5.6 -2.5
v 10.1 5.6 -2.6
v 10.1 5.5 -2.6
v 10 5.5 -2.6
v 10 5.6 -2.6
v 10.1 5.5 -2.5
v 10.1 5.5 -2.6
v 10.2 5.5 -2.6
v 10.2 5.5 -2.5
v 10.1 5.6 -2.5
v 10.1 5.5 -2.5
v 10.2 5.5 -2.5
v 10.2 5.6 -2.5
v 10.2 5.6 -2.6
v 10.2 5.5 -2.6
v 10.1 5.5 -2.6
v 10.1 5.6 -2.6
v 10.2 5.5 -2.5
v 10.2 5.5 -2.6
v 10.3 5.5 -2.6
v 10.3 5.5 -2.5
v 10.2 5.6 -2.5
v 10.2 5.5 -2.5
v 10.3 5.5 -2.5
v 10.3 5.6 -2.5
v 10.3 5.6 -2.6
v 10.3 5.5 -2.6
v 10.2 5.5 -2.6
v 10.2 5.6 -2.6
v 10.4 5.6 -2.5
v 10.4 5.5 -2.5
v 10.4 5.5 -2.6
v 10.4 5.6 -2.6
v 10.3 5.5 -2.5
v 10.3 5.5 -2.6
v 10.4 5.5 -2.6
v 10.4 5.5 -2.5
v 10.3 5.6 -2.5
v 10.3 5.5 -2.5
v 10.4 5.5 -2.5
v 10.4 5.6 -2.5
v 10.4 5.6 -2.6
v 10.4 5.5 -2.6
v 10.3 5.5 -2.6
v 10.3 5.6 -2.6
v 10.7 5.6 -2.6
v 10.7 5.5 -2.6
v 10.7 5.5 -2.5
v 10.7 5.6 -2.5
v 10.7 5.6 -2.6
v 10.7 5.6 -2.5
v 10.8 5.6 -2.5
v 10.8 5.6 -2.6
v 10.7 5.5 -2.5
v 10.7 5.5 -2.6
v 10.8 5.5 -2.6
v 10.8 5.5 -2.5
v 10.7 5.6 -2.5
v 10.7 5.5 -2.5
v 10.8 5.5 -2.5
v 10.8 5.6 -2.5
v 10.8 5.6 -2.6
v 10.8 5.5 -2.6
v 10.7 5.5 -2.6
v 10.7 5.6 -2.6
v 10.9 5.6 -2.5
v 10.9 5.5 -2.5
v 10.9 5.5 -2.6
v 10.9 5.6 -2.6
v 10.8 5.6 -2.6
v 10.8 5.6 -2.5
v 10.9 5.6 -2.5
v 10.9 5.6 -2.6
v 10.8 5.5 -2.5
v 10.8 5.5 -2.6
v 10.9 5.5 -2.6
v 10.9 5.5 -2.5
v 10.8 5.6 -2.5
v 10.8 5.5 -2.5
v 10.9 5.5 -2.5
v 10.9 5.6 -2.5
v 10.9 5.6 -2.6
v 10.9 5.5 -2.6
v 10.8 5.5 -2.6
v 10.8 5.6 -2.6
v 7.1 5.5 -2.6
v 7.1 5.4 -2.6
v 7.1 5.4 -2.5
v 7.1 5.5 -2.5
v 7.1 5.4 -2.5
v 7.1 5.4 -2.6
v 7.2 5.4 -2.6
v 7.2 5.4 -2.5
v 7.1 5.5 -2.5
v 7.1 5.4 -2.5
v 7.2 5.4 -2.5
v 7.2 5.5 -2.5
v 7.2 5.5 -2.6
v 7.2 5.4 -2.6
v 7.1 5.4 -2.6
v 7.1 5.5 -2.6
v 7.2 5.4 -2.5
v 7.2 5.4 -2.6
v 7.3 5.4 -2.6
v 7.3 5.4 -2.5
v 7.2 5.5 -2.5
v 7.2 5.4 -2.5
v 7.3 5.4 -2.5
v 7.3 5.5 -2.5
v 7.3 5.5 -2.6
v 7.3 5.4 -2.6
v 7.2 5.4 -2.6
v 7.2 5.5 -2.6
v 7.3 5.5 -2.6
v 7.3 5.5 -2.5
v 7.4 5.5 -2.5
v 7.4 5.5 -2.6
v 7.3 5.4 -2.5
v 7.3 5.4 -2.6
v 7.4 5.4 -2.6
v 7.4 5.4 -2.5
v 7.3 5.5 -2.5
v 7.3 5.4 -2.5
v 7.4 5.4 -2.5
v 7.4 5.5 -2.5
v 7.4 5.5 -2.6
v 7.4 5.4 -2.6
v 7.3 5.4 -2.6
v 7.3 5.5 -2.6
v 7.4 5.5 -2.6
v 7.4 5.5 -2.5
v 7.5 5.5 -2.5
v 7.5 5.5 -2.6
v 7.4 5.5 -2.5
v 7.4 5.4 -2.5
v 7.5 5.4 -2.5
v 7.5 5.5 -2.5
v 7.5 5.5 -2.6
v 7.5 5.4 -2.6
v 7.4 5.4 -2.6
v 7.4 5.5 -2.6
v 7.5 5.5 -2.6
v 7.5 5.5 -2.5
v 7.6 5.5 -2.5
v 7.6 5.5 -2.6
v 7.5 5.5 -2.5
v 7.5 5.4 -2.5
v 7.6 5.4 -2.5
v 7.6 5.5 -2.5
v 7.6 5.5 -2.6
v 7.6 5.4 -2.6
v 7.5 5.4 -2.6
v 7.5 5.5 -2.6
v 7.7 5.5 -2.5
v 7.7 5.4 -2.5
v 7.7 5.4 -2.6
v 7.7 5.5 -2.6
v 7.6 5.5 -2.6
v 7.6 5.5 -2.5
v 7.7 5.5 -2.5
v 7.7 5.5 -2.6
v 7.6 5.5 -2.5
v 7.6 5.4 -2.5
v 7.7 5.4 -2.5
v 7.7 5.5 -2.5
v 7.7 5.5 -2.6
v 7.7 5.4 -2.6
v 7.6 5.4 -2.6
v 7.6 5.5 -2.6
v 8.3 5.5 -2.6
v 8.3 5.4 -2.6
v 8.3 5.4 -2.5
v 8.3 5.5 -2.5
v 8.3 5.4 -2.5
v 8.3 5.4 -2.6
v 8.4 5.4 -2.6
v 8.4 5.4 -2.5
v 8.3 5.5 -2.5
v 8.3 5.4 -2.5
v 8.4 5.4 -2.5
v 8.4 5.5 -2.5
v 8.4 5.5 -2.6
v 8.4 5.4 -2.6
v 8.3 5.4 -2.6
v 8.3 5.5 -2.6
v 8.4 5.4 -2.5
v 8.4 5.4 -2.6
v 8.5 5.4 -2.6
v 8.5 5.4 -2.5
v 8.4 5.5 -2.5
v 8.4 5.4 -2.5
v 8.5 5.4 -2.5
v 8.5 5.5 -2.5
v 8.5 5.5 -2.6
v 8.5 5.4 -2.6
v 8.4 5.4 -2.6
v 8.4 5.5 -2.6
v 8.5 5.4 -2.5
v 8.5 5.4 -2.6
v 8.6 5.4 -2.6
v 8.6 5.4 -2.5
v 8.5 5.5 -2.5
v 8.5 5.4 -2.5
v 8.6 5.4 -2.5
v 8.6 5.5 -2.5
v 8.6 5.5 -2.6
v 8.6 5.4 -2.6
v 8.5 5.4 -2.6
v 8.5 5.5 -2.6
v 8.6 5.4 -2.5
v 8.6 5.4 -2.6
v 8.7 5.4 -2.6
v 8.7 5.4 -2.5
v 8.6 5.5 -2.5
v 8.6 5.4 -2.5
v 8.7 5.4 -2.5
v 8.7 5.5 -2.5
v 8.7 5.5 -2.6
v 8.7 5.4 -2.6
v 8.6 5.4 -2.6
v 8.6 5.5 -2.6
v 8.7 5.4 -2.5
v 8.7 5.4 -2.6
v 8.8 5.4 -2.6
v 8.8 5.4 -2.5
v 8.7 5.5 -2.5
v 8.7 5.4 -2.5
v 8.8 5.4 -2.5
v 8.8 5.5 -2.5
v 8.8 5.5 -2.6
v 8.8 5.4 -2.6
v 8.7 5.4 -2.6
v 8.7 5.5 -2.6
v 8.8 5.4 -2.5
v 8.8 5.4 -2.6
v 8.9 5.4 -2.6
v 8.9 5.4 -2.5
v 8.8 5.5 -2.5
v 8.8 5.4 -2.5
v 8.9 5.4 -2.5
v 8.9 5.5 -2.5
v 8.9 5.5 -2.6
v 8.9 5.4 -2.6
v 8.8 5.4 -2.6
v 8.8 5.5 -2.6
v 8.9 5.4 -2.5
v 8.9 5.4 -2.6
v 9 5.4 -2.6
v 9 5.4 -2.5
v 8.9 5.5 -2.5
v 8.9 5.4 -2.5
v 9 5.4 -2.5
v 9 5.5 -2.5
v 9 5.5 -2.6
v 9 5.4 -2.6
v 8.9 5.4 -2.6
v 8.9 5.5 -2.6
v 9 5.4 -2.5
v 9 5.4 -2.6
v 9.1 5.4 -2.6
v 9.1 5.4 -2.5
v 9 5.5 -2.5
v 9 5.4 -2.5
v 9.1 5.4 -2.5
v 9.1 5.5 -2.5
v 9.1 5.5 -2.6
v 9.1 5.4 -2.6
v 9 5.4 -2.6
v 9 5.5 -2.6
v 9.1 5.4 -2.5
v 9.1 5.4 -2.6
v 9.2 5.4 -2.6
v 9.2 5.4 -2.5
v 9.1 5.5 -2.5
v 9.1 5.4 -2.5
v 9.2 5.4 -2.5
v 9.2 5.5 -2.5
v 9.2 5.5 -2.6
v 9.2 5.4 -2.6
v 9.1 5.4 -2.6
v 9.1 5.5 -2.6
v 9.2 5.4 -2.5
v 9.2 5.4 -2.6
v 9.3 5.4 -2.6
v 9.3 5.4 -2.5
v 9.2 5.5 -2.5
v 9.2 5.4 -2.5
v 9.3 5.4 -2.5
v 9.3 5.5 -2.5
v 9.3 5.5 -2.6
v 9.3 5.4 -2.6
v 9.2 5.4 -2.6
v 9.2 5.5 -2.6
v 9.3 5.4 -2.5
v 9.3 5.4 -2.6
v 9.4 5.4 -2.6
v 9.4 5.4 -2.5
v 9.3 5.5 -2.5
v 9.3 5.4 -2.5
v 9.4 5.4 -2.5
v 9.4 5.5 -2.5
v 9.4 5.5 -2.6
v 9.4 5.4 -2.6
v 9.3 5.4 -2.6
v 9.3 5.5 -2.6
v 9.4 5.4 -2.5
v 9.4 5.4 -2.6
v 9.5 5.4 -2.6
v 9.5 5.4 -2.5
v 9.4 5.5 -2.5
v 9.4 5.4 -2.5
v 9.5 5.4 -2.5
v 9.5 5.5 -2.5
v 9.5 5.5 -2.6
v 9.5 5.4 -2.6
v 9.4 5.4 -2.6
v 9.4 5.5 -2.6
v 9.5 5.4 -2.5
v 9.5 5.4 -2.6
v 9.6 5.4 -2.6
v 9.6 5.4 -2.5
v 9.5 5.5 -2.5
v 9.5 5.4 -2.5
v 9.6 5.4 -2.5
v 9.6 5.5 -2.5
v 9.6 5.5 -2.6
v 9.6 5.4 -2.6
v 9.5 5.4 -2.6
v 9.5 5.5 -2.6
v 9.6 5.4 -2.5
v 9.6 5.4 -2.6
v 9.7 5.4 -2.6
v 9.7 5.4 -2.5
v 9.6 5.5 -2.5
v 9.6 5.4 -2.5
v 9.7 5.4 -2.5
v 9.7 5.5 -2.5
v 9.7 5.5 -2.6
v 9.7 5.4 -2.6
v 9.6 5.4 -2.6
v 9.6 5.5 -2.6
v 9.7 5.4 -2.5
v 9.7 5.4 -2.6
v 9.8 5.4 -2.6
v 9.8 5.4 -2.5
v 9.7 5.5 -2.5
v 9.7 5.4 -2.5
v 9.8 5.4 -2.5
v 9.8 5.5 -2.5
v 9.8 5.5 -2.6
v 9.8 5.4 -2.6
v 9.7 5.4 -2.6
v 9.7 5.5 -2.6
v 9.8 5.4 -2.5
v 9.8 5.4 -2.6
v 9.9 5.4 -2.6
v 9.9 5.4 -2.5
v 9.8 5.5 -2.5
v 9.8 5.4 -2.5
v 9.9 5.4 -2.5
v 9.9 5.5 -2.5
v 9.9 5.5 -2.6
v 9.9 5.4 -2.6
v 9.8 5.4 -2.6
v 9.8 5.5 -2.6
v 10 5.5 -2.5
v 10 5.4 -2.5
v 10 5.4 -2.6
v 10 5.5 -2.6
v 9.9 5.4 -2.5
v 9.9 5.4 -2.6
v 10 5.4 -2.6
v 10 5.4 -2.5
v 9.9 5.5 -2.5
v 9.9 5.4 -2.5
v 10 5.4 -2.5
v 10 5.5 -2.5
v 10 5.5 -2.6
v 10 5.4 -2.6
v 9.9 5.4 -2.6
v 9.9 5.5 -2.6
v 10.4 5.5 -2.6
v 10.4 5.4 -2.6
v 10.4 5.4 -2.5
v 10.4 5.5 -2.5
v 10.4 5.5 -2.6
v 10.4 5.5 -2.5
v 10.5 5.5 -2.5
v 10.5 5.5 -2.6
v 10.4 5.4 -2.5
v 10.4 5.4 -2.6
v 10.5 5.4 -2.6
v 10.5 5.4 -2.5
v 10.4 5.5 -2.5
v 10.4 5.4 -2.5
v 10.5 5.4 -2.5
v 10.5 5.5 -2.5
v 10.5 5.5 -2.6
v 10.5 5.4 -2.6
v 10.4 5.4 -2.6
v 10.4 5.5 -2.6
v 10.5 5.5 -2.6
v 10.5 5.5 -2.5
v 10.6 5.5 -2.5
v 10.6 5.5 -2.6
v 10.5 5.4 -2.5
v 10.5 5.4 -2.6
v 10.6 5.4 -2.6
v 10.6 5.4 -2.5
v 10.5 5.5 -2.5
v 10.5 5.4 -2.5
v 10.6 5.4 -2.5
v 10.6 5.5 -2.5
v 10.6 5.5 -2.6
v 10.6 5.4 -2.6
v 10.5 5.4 -2.6
v 10.5 5.5 -2.6
v 10.7 5.5 -2.5
v 10.7 5.4 -2.5
v 10.7 5.4 -2.6
v 10.7 5.5 -2.6
v 10.6 5.5 -2.6
v 10.6 5.5 -2.5
v 10.7 5.5 -2.5
v 10.7 5.5 -2.6
v 10.6 5.4 -2.5
v 10.6 5.4 -2.6
v 10.7 5.4 -2.6
v 10.7 5.4 -2.5
v 10.6 5.5 -2.5
v 10.6 5.4 -2.5
v 10.7 5.4 -2.5
v 10.7 5.5 -2.5
v 10.7 5.5 -2.6
v 10.7 5.4 -2.6
v 10.6 5.4 -2.6
v 10.6 5.5 -2.6
v 7.4 5.4 -2.6
v 7.4 5.3 -2.6
v 7.4 5.3 -2.5
v 7.4 5.4 -2.5
v 7.4 5.3 -2.5
v 7.4 5.3 -2.6
v 7.5 5.3 -2.6
v 7.5 5.3 -2.5
v 7.4 5.4 -2.5
v 7.4 5.3 -2.5
v 7.5 5.3 -2.5
v 7.5 5.4 -2.5
v 7.5 5.4 -2.6
v 7.5 5.3 -2.6
v 7.4 5.3 -2.6
v 7.4 5.4 -2.6
v 7.5 5.3 -2.5
v 7.5 5.3 -2.6
v 7.6 5.3 -2.6
v 7.6 5.3 -2.5
v 7.5 5.4 -2.5
v 7.5 5.3 -2.5
v 7.6 5.3 -2.5
v 7.6 5.4 -2.5
v 7.6 5.4 -2.6
v 7.6 5.3 -2.6
v 7.5 5.3 -2.6
v 7.5 5.4 -2.6
v 7.6 5.3 -2.5
v 7.6 5.3 -2.6
v 7.7 5.3 -2.6
v 7.7 5.3 -2.5
v 7.6 5.4 -2.5
v 7.6 5.3 -2.5
v 7.7 5.3 -2.5
v 7.7 5.4 -2.5
v 7.7 5.4 -2.6
v 7.7 5.3 -2.6
v 7.6 5.3 -2.6
v 7.6 5.4 -2.6
v 7.7 5.4 -2.6
v 7.7 5.4 -2.5
v 7.8 5.4 -2.5
v 7.8 5.4 -2.6
v 7.7 5.3 -2.5
v 7.7 5.3 -2.6
v 7.8 5.3 -2.6
v 7.8 5.3 -2.5
v 7.7 5.4 -2.5
v 7.7 5.3 -2.5
v 7.8 5.3 -2.5
v 7.8 5.4 -2.5
v 7.8 5.4 -2.6
v 7.8 5.3 -2.6
v 7.7 5.3 -2.6
v 7.7 5.4 -2.6
v 7.8 5.4 -2.6
v 7.8 5.4 -2.5
v 7.9 5.4 -2.5
v 7.9 5.4 -2.6
v 7.8 5.3 -2.5
v 7.8 5.3 -2.6
v 7.9 5.3 -2.6
v 7.9 5.3 -2.5
v 7.8 5.4 -2.5
v 7.8 5.3 -2.5
v 7.9 5.3 -2.5
v 7.9 5.4 -2.5
v 7.9 5.4 -2.6
v 7.9 5.3 -2.6
v 7.8 5.3 -2.6
v 7.8 5.4 -2.6
v 7.9 5.4 -2.6
v 7.9 5.4 -2.5
v 8 5.4 -2.5
v 8 5.4 -2.6
v 7.9 5.4 -2.5
v 7.9 5.3 -2.5
v 8 5.3 -2.5
v 8 5.4 -2.5
v 8 5.4 -2.6
v 8 5.3 -2.6
v 7.9 5.3 -2.6
v 7.9 5.4 -2.6
v 8 5.4 -2.6
v 8 5.4 -2.5
v 8.1 5.4 -2.5
v 8.1 5.4 -2.6
v 8 5.4 -2.5
v 8 5.3 -2.5
v 8.1 5.3 -2.5
v 8.1 5.4 -2.5
v 8.1 5.4 -2.6
v 8.1 5.3 -2.6
v 8 5.3 -2.6
v 8 5.4 -2.6
v 8.1 5.4 -2.6
v 8.1 5.4 -2.5
v 8.2 5.4 -2.5
v 8.2 5.4 -2.6
v 8.1 5.4 -2.5
v 8.1 5.3 -2.5
v 8.2 5.3 -2.5
v 8.2 5.4 -2.5
v 8.2 5.4 -2.6
v 8.2 5.3 -2.6
v 8.1 5.3 -2.6
v 8.1 5.4 -2.6
v 8.3 5.4 -2.5
v 8.3 5.3 -2.5
v 8.3 5.3 -2.6
v 8.3 5.4 -2.6
v 8.2 5.4 -2.6
v 8.2 5.4 -2.5
v 8.3 5.4 -2.5
v 8.3 5.4 -2.6
v 8.2 5.4 -2.5
v 8.2 5.3 -2.5
v 8.3 5.3 -2.5
v 8.3 5.4 -2.5
v 8.3 5.4 -2.6
v 8.3 5.3 -2.6
v 8.2 5.3 -2.6
v 8.2 5.4 -2.6
v 10 5.4 -2.6
v 10 5.3 -2.6
v 10 5.3 -2.5
v 10 5.4 -2.5
v 10 5.4 -2.6
v 10 5.4 -2.5
v 10.1 5.4 -2.5
v 10.1 5.4 -2.6
v 10 5.3 -2.5
v 10 5.3 -2.6
v 10.1 5.3 -2.6
v 10.1 5.3 -2.5
v 10 5.4 -2.5
v 10 5.3 -2.5
v 10.1 5.3 -2.5
v 10.1 5.4 -2.5
v 10.1 5.4 -2.6
v 10.1 5.3 -2.6
v 10 5.3 -2.6
v 10 5.4 -2.6
v 10.2 5.4 -2.5
v 10.2 5.3 -2.5
v 10.2 5.3 -2.6
v 10.2 5.4 -2.6
v 10.1 5.4 -2.6
v 10.1 5.4 -2.5
v 10.2 5.4 -2.5
v 10.2 5.4 -2.6
v 10.1 5.3 -2.5
v 10.1 5.3 -2.6
v 10.2 5.3 -2.6
v 10.2 5.3 -2.5
v 10.1 5.4 -2.5
v 10.1 5.3 -2.5
v 10.2 5.3 -2.5
v 10.2 5.4 -2.5
v 10.2 5.4 -2.6
v 10.2 5.3 -2.6
v 10.1 5.3 -2.6
v 10.1 5.4 -2.6
v 7.9 5.3 -2.6
v 7.9 5.2 -2.6
v 7.9 5.2 -2.5
v 7.9 5.3 -2.5
v 7.9 5.2 -2.5
v 7.9 5.2 -2.6
v 8 5.2 -2.6
v 8 5.2 -2.5
v 7.9 5.3 -2.5
v 7.9 5.2 -2.5
v 8 5.2 -2.5
v 8 5.3 -2.5
v 8 5.3 -2.6
v 8 5.2 -2.6
v 7.9 5.2 -2.6
v 7.9 5.3 -2.6
v 8 5.2 -2.5
v 8 5.2 -2.6
v 8.1 5.2 -2.6
v 8.1 5.2 -2.5
v 8 5.3 -2.5
v 8 5.2 -2.5
v 8.1 5.2 -2.5
v 8.1 5.3 -2.5
v 8.1 5.3 -2.6
v 8.1 5.2 -2.6
v 8 5.2 -2.6
v 8 5.3 -2.6
v 8.1 5.2 -2.5
v 8.1 5.2 -2.6
v 8.2 5.2 -2.6
v 8.2 5.2 -2.5
v 8.1 5.3 -2.5
v 8.1 5.2 -2.5
v 8.2 5.2 -2.5
v 8.2 5.3 -2.5
v 8.2 5.3 -2.6
v 8.2 5.2 -2.6
v 8.1 5.2 -2.6
v 8.1 5.3 -2.6
v 8.2 5.2 -2.5
v 8.2 5.2 -2.6
v 8.3 5.2 -2.6
v 8.3 5.2 -2.5
v 8.2 5.3 -2.5
v 8.2 5.2 -2.5
v 8.3 5.2 -2.5
v 8.3 5.3 -2.5
v 8.3 5.3 -2.6
v 8.3 5.2 -2.6
v 8.2 5.2 -2.6
v 8.2 5.3 -2.6
v 8.3 5.3 -2.6
v 8.3 5.3 -2.5
v 8.4 5.3 -2.5
v 8.4 5.3 -2.6
v 8.3 5.2 -2.5
v 8.3 5.2 -2.6
v 8.4 5.2 -2.6
v 8.4 5.2 -2.5
v 8.3 5.3 -2.5
v 8.3 5.2 -2.5
v 8.4 5.2 -2.5
v 8.4 5.3 -2.5
v 8.4 5.3 -2.6
v 8.4 5.2 -2.6
v 8.3 5.2 -2.6
v 8.3 5.3 -2.6
v 8.4 5.3 -2.6
v 8.4 5.3 -2.5
v 8.5 5.3 -2.5
v 8.5 5.3 -2.6
v 8.4 5.2 -2.5
v 8.4 5.2 -2.6
v 8.5 5.2 -2.6
v 8.5 5.2 -2.5
v 8.4 5.3 -2.5
v 8.4 5.2 -2.5
v 8.5 5.2 -2.5
v 8.5 5.3 -2.5
v 8.5 5.3 -2.6
v 8.5 5.2 -2.6
v 8.4 5.2 -2.6
v 8.4 5.3 -2.6
v 8.5 5.3 -2.6
v 8.5 5.3 -2.5
v 8.6 5.3 -2.5
v 8.6 5.3 -2.6
v 8.5 5.2 -2.5
v 8.5 5.2 -2.6
v 8.6 5.2 -2.6
v 8.6 5.2 -2.5
v 8.5 5.3 -2.5
v 8.5 5.2 -2.5
v 8.6 5.2 -2.5
v 8.6 5.3 -2.5
v 8.6 5.3 -2.6
v 8.6 5.2 -2.6
v 8.5 5.2 -2.6
v 8.5 5.3 -2.6
v 8.6 5.3 -2.6
v 8.6 5.3 -2.5
v 8.7 5.3 -2.5
v 8.7 5.3 -2.6
v 8.6 5.2 -2.5
v 8.6 5.2 -2.6
v 8.7 5.2 -2.6
v 8.7 5.2 -2.5
v 8.6 5.3 -2.5
v 8.6 5.2 -2.5
v 8.7 5.2 -2.5
v 8.7 5.3 -2.5
v 8.7 5.3 -2.6
v 8.7 5.2 -2.6
v 8.6 5.2 -2.6
v 8.6 5.3 -2.6
v 8.7 5.3 -2.6
v 8.7 5.3 -2.5
v 8.8 5.3 -2.5
v 8.8 5.3 -2.6
v 8.7 5.2 -2.5
v 8.7 5.2 -2.6
v 8.8 5.2 -2.6
v 8.8 5.2 -2.5
v 8.7 5.3 -2.5
v 8.7 5.2 -2.5
v 8.8 5.2 -2.5
v 8.8 5.3 -2.5
v 8.8 5.3 -2.6
v 8.8 5.2 -2.6
v 8.7 5.2 -2.6
v 8.7 5.3 -2.6
v 8.8 5.3 -2.6
v 8.8 5.3 -2.5
v 8.9 5.3 -2.5
v 8.9 5.3 -2.6
v 8.8 5.2 -2.5
v 8.8 5.2 -2.6
v 8.9 5.2 -2.6
v 8.9 5.2 -2.5
v 8.8 5.3 -2.5
v 8.8 5.2 -2.5
v 8.9 5.2 -2.5
v 8.9 5.3 -2.5
v 8.9 5.3 -2.6
v 8.9 5.2 -2.6
v 8.8 5.2 -2.6
v 8.8 5.3 -2.6
v 8.9 5.3 -2.6
v 8.9 5.3 -2.5
v 9 5.3 -2.5
v 9 5.3 -2.6
v 8.9 5.2 -2.5
v 8.9 5.2 -2.6
v 9 5.2 -2.6
v 9 5.2 -2.5
v 8.9 5.3 -2.5
v 8.9 5.2 -2.5
v 9 5.2 -2.5
v 9 5.3 -2.5
v 9 5.3 -2.6
v 9 5.2 -2.6
v 8.9 5.2 -2.6
v 8.9 5.3 -2.6
v 9 5.3 -2.6
v 9 5.3 -2.5
v 9.1 5.3 -2.5
v 9.1 5.3 -2.6
v 9 5.2 -2.5
v 9 5.2 -2.6
v 9.1 5.2 -2.6
v 9.1 5.2 -2.5
v 9 5.3 -2.5
v 9 5.2 -2.5
v 9.1 5.2 -2.5
v 9.1 5.3 -2.5
v 9.1 5.3 -2.6
v 9.1 5.2 -2.6
v 9 5.2 -2.6
v 9 5.3 -2.6
v 9.1 5.3 -2.6
v 9.1 5.3 -2.5
v 9.2 5.3 -2.5
v 9.2 5.3 -2.6
v 9.1 5.2 -2.5
v 9.1 5.2 -2.6
v 9.2 5.2 -2.6
v 9.2 5.2 -2.5
v 9.1 5.3 -2.5
v 9.1 5.2 -2.5
v 9.2 5.2 -2.5
v 9.2 5.3 -2.5
v 9.2 5.3 -2.6
v 9.2 5.2 -2.6
v 9.1 5.2 -2.6
v 9.1 5.3 -2.6
v 9.2 5.3 -2.6
v 9.2 5.3 -2.5
v 9.3 5.3 -2.5
v 9.3 5.3 -2.6
v 9.2 5.2 -2.5
v 9.2 5.2 -2.6
v 9.3 5.2 -2.6
v 9.3 5.2 -2.5
v 9.2 5.3 -2.5
v 9.2 5.2 -2.5
v 9.3 5.2 -2.5
v 9.3 5.3 -2.5
v 9.3 5.3 -2.6
v 9.3 5.2 -2.6
v 9.2 5.2 -2.6
v 9.2 5.3 -2.6
v 9.3 5.3 -2.6
v 9.3 5.3 -2.5
v 9.4 5.3 -2.5
v 9.4 5.3 -2.6
v 9.3 5.2 -2.5
v 9.3 5.2 -2.6
v 9.4 5.2 -2.6
v 9.4 5.2 -2.5
v 9.3 5.3 -2.5
v 9.3 5.2 -2.5
v 9.4 5.2 -2.5
v 9.4 5.3 -2.5
v 9.4 5.3 -2.6
v 9.4 5.2 -2.6
v 9.3 5.2 -2.6
v 9.3 5.3 -2.6
v 9.4 5.3 -2.6
v 9.4 5.3 -2.5
v 9.5 5.3 -2.5
v 9.5 5.3 -2.6
v 9.4 5.2 -2.5
v 9.4 5.2 -2.6
v 9.5 5.2 -2.6
v 9.5 5.2 -2.5
v 9.4 5.3 -2.5
v 9.4 5.2 -2.5
v 9.5 5.2 -2.5
v 9.5 5.3 -2.5
v 9.5 5.3 -2.6
v 9.5 5.2 -2.6
v 9.4 5.2 -2.6
v 9.4 5.3 -2.6
v 9.5 5.3 -2.6
v 9.5 5.3 -2.5
v 9.6 5.3 -2.5
v 9.6 5.3 -2.6
v 9.5 5.2 -2.5
v 9.5 5.2 -2.6
v 9.6 5.2 -2.6
v 9.6 5.2 -2.5
v 9.5 5.3 -2.5
v 9.5 5.2 -2.5
v 9.6 5.2 -2.5
v 9.6 5.3 -2.5
v 9.6 5.3 -2.6
v 9.6 5.2 -2.6
v 9.5 5.2 -2.6
v 9.5 5.3 -2.6
v 9.6 5.3 -2.6
v 9.6 5.3 -2.5
v 9.7 5.3 -2.5
v 9.7 5.3 -2.6
v 9.6 5.2 -2.5
v 9.6 5.2 -2.6
v 9.7 5.2 -2.6
v 9.7 5.2 -2.5
v 9.6 5.3 -2.5
v 9.6 5.2 -2.5
v 9.7 5.2 -2.5
v 9.7 5.3 -2.5
v 9.7 5.3 -2.6
v 9.7 5.2 -2.6
v 9.6 5.2 -2.6
v 9.6 5.3 -2.6
v 9.8 5.3 -2.5
v 9.8 5.2 -2.5
v 9.8 5.2 -2.6
v 9.8 5.3 -2.6
v 9.7 5.3 -2.6
v 9.7 5.3 -2.5
v 9.8 5.3 -2.5
v 9.8 5.3 -2.6
v 9.7 5.2 -2.5
v 9.7 5.2 -2.6
v 9.8 5.2 -2.6
v 9.8 5.2 -2.5
v 9.7 5.3 -2.5
v 9.7 5.2 -2.5
v 9.8 5.2 -2.5
v 9.8 5.3 -2.5
v 9.8 5.3 -2.6
v 9.8 5.2 -2.6
v 9.7 5.2 -2.6
v 9.7 5.3 -2.6

# faces
f 1/6/1 2/6/1 3/6/1 4/6/1
f 5/6/3 6/6/3 7/6/3 8/6/3
f 9/6/5 10/6/5 11/6/5 12/6/5
f 13/6/6 14/6/6 15/6/6 16/6/6
f 17/6/3 18/6/3 19/6/3 20/6/3
f 21/6/5 22/6/5 23/6/5 24/6/5
f 25/6/6 26/6/6 27/6/6 28/6/6
f 29/6/3 30/6/3 31/6/3 32/6/3
f 33/6/5 34/6/5 35/6/5 36/6/5
f 37/6/6 38/6/6 39/6/6 40/6/6
f 41/6/2 42/6/2 43/6/2 44/6/2
f 45/6/3 46/6/3 47/6/3 48/6/3
f 49/6/5 50/6/5 51/6/5 52/6/5
f 53/6/6 54/6/6 55/6/6 56/6/6
f 57/6/1 58/6/1 59/6/1 60/6/1
f 61/6/3 62/6/3 63/6/3 64/6/3
f 65/6/5 66/6/5 67/6/5 68/6/5
f 69/6/6 70/6/6 71/6/6 72/6/6
f 73/6/3 74/6/3 75/6/3 76/6/3
f 77/6/5 78/6/5 79/6/5 80/6/5
f 81/6/6 82/6/6 83/6/6 84/6/6
f 85/6/5 86/6/5 87/6/5 88/6/5
f 89/6/6 90/6/6 91/6/6 92/6/6
f 93/6/5 94/6/5 95/6/5 96/6/5
f 97/6/6 98/6/6 99/6/6 100/6/6
f 101/6/5 102/6/5 103/6/5 104/6/5
f 105/6/6 106/6/6 107/6/6 108/6/6
f 109/6/4 110/6/4 111/6/4 112/6/4
f 113/6/5 114/6/5 115/6/5 116/6/5
f 117/6/6 118/6/6 119/6/6 120/6/6
f 121/6/2 122/6/2 123/6/2 124/6/2
f 125/6/3 126/6/3 127/6/3 128/6/3
f 129/6/4 130/6/4 131/6/4 132/6/4
f 133/6/5 134/6/5 135/6/5 136/6/5
f 137/6/6 138/6/6 139/6/6 140/6/6
f 141/6/1 142/6/1 143/6/1 144/6/1
f 145/6/3 146/6/3 147/6/3 148/6/3
f 149/6/5 150/6/5 151/6/5 152/6/5
f 153/6/6 154/6/6 155/6/6 156/6/6
f 157/6/3 158/6/3 159/6/3 160/6/3
f 161/6/5 162/6/5 163/6/5 164/6/5
f 165/6/6 166/6/6 167/6/6 168/6/6
f 169/6/5 170/6/5 171/6/5 172/6/5
f 173/6/6 174/6/6 175/6/6 176/6/6
f 177/6/5 178/6/5 179/6/5 180/6/5
f 181/6/6 182/6/6 183/6/6 184/6/6
f 185/6/5 186/6/5 187/6/5 188/6/5
f 189/6/6 190/6/6 191/6/6 192/6/6
f 193/6/4 194/6/4 195/6/4 196/6/4
f 197/6/5 198/6/5 199/6/5 200/6/5
f 201/6/6 202/6/6 203/6/6 204/6/6
f 205/6/2 206/6/2 207/6/2 208/6/2
f 209/6/4 210/6/4 211/6/4 212/6/4
f 213/6/5 214/6/5 215/6/5 216/6/5
f 217/6/6 218/6/6 219/6/6 220/6/6
f 221/6/1 222/6/1 223/6/1 224/6/1
f 225/6/3 226/6/3 227/6/3 228/6/3
f 229/6/5 230/6/5 231/6/5 232/6/5
f 233/6/6 234/6/6 235/6/6 236/6/6
f 237/6/3 238/6/3 239/6/3 240/6/3
f 241/6/5 242/6/5 243/6/5 244/6/5
f 245/6/6 246/6/6 247/6/6 248/6/6
f 249/6/3 250/6/3 251/6/3 252/6/3
f 253/6/5 254/6/5 255/6/5 256/6/5
f 257/6/6 258/6/6 259/6/6 260/6/6
f 261/6/5 262/6/5 263/6/5 264/6/5
f 265/6/6 266/6/6 267/6/6 268/6/6
f 269/6/5 270/6/5 271/6/5 272/6/5
f 273/6/6 274/6/6 275/6/6 276/6/6
f 277/6/5 278/6/5 279/6/5 280/6/5
f 281/6/6 282/6/6 283/6/6 284/6/6
f 285/6/4 286/6/4 287/6/4 288/6/4
f 289/6/5 290/6/5 291/6/5 292/6/5
f 293/6/6 294/6/6 295/6/6 296/6/6
f 297/6/2 298/6/2 299/6/2 300/6/2
f 301/6/4 302/6/4 303/6/4 304/6/4
f 305/6/5 306/6/5 307/6/5 308/6/5
f 309/6/6 310/6/6 311/6/6 312/6/6
f 313/6/1 314/6/1 315/6/1 316/6/1
f 317/6/3 318/6/3 319/6/3 320/6/3
f 321/6/5 322/6/5 323/6/5 324/6/5
f 325/6/6 326/6/6 327/6/6 328/6/6
f 329/6/5 330/6/5 331/6/5 332/6/5
f 333/6/6 334/6/6 335/6/6 336/6/6
f 337/6/5 338/6/5 339/6/5 340/6/5
f 341/6/6 342/6/6 343/6/6 344/6/6
f 345/6/5 346/6/5 347/6/5 348/6/5
f 349/6/6 350/6/6 351/6/6 352/6/6
f 353/6/5 354/6/5 355/6/5 356/6/5
f 357/6/6 358/6/6 359/6/6 360/6/6
f 361/6/4 362/6/4 363/6/4 364/6/4
f 365/6/5 366/6/5 367/6/5 368/6/5
f 369/6/6 370/6/6 371/6/6 372/6/6
f 373/6/2 374/6/2 375/6/2 376/6/2
f 377/6/4 378/6/4 379/6/4 380/6/4
f 381/6/5 382/6/5 383/6/5 384/6/5
f 385/6/6 386/6/6 387/6/6 388/6/6
f 389/6/1 390/6/1 391/6/1 392/6/1
f 393/6/2 394/6/2 395/6/2 396/6/2
f 397/6/3 398/6/3 399/6/3 400/6/3
f 401/6/5 402/6/5 403/6/5 404/6/5
f 405/6/6 406/6/6 407/6/6 408/6/6
f 409/6/1 410/6/1 411/6/1 412/6/1
f 413/6/3 414/6/3 415/6/3 416/6/3
f 417/6/5 418/6/5 419/6/5 420/6/5
f 421/6/6 422/6/6 423/6/6 424/6/6
f 425/6/5 426/6/5 427/6/5 428/6/5
f 429/6/6 430/6/6 431/6/6 432/6/6
f 433/6/5 434/6/5 435/6/5 436/6/5
f 437/6/6 438/6/6 439/6/6 440/6/6
f 441/6/5 442/6/5 443/6/5 444/6/5
f 445/6/6 446/6/6 447/6/6 448/6/6
f 449/6/4 450/6/4 451/6/4 452/6/4
f 453/6/5 454/6/5 455/6/5 456/6/5
f 457/6/6 458/6/6 459/6/6 460/6/6
f 461/6/2 462/6/2 463/6/2 464/6/2
f 465/6/4 466/6/4 467/6/4 468/6/4
f 469/6/5 470/6/5 471/6/5 472/6/5
f 473/6/6 474/6/6 475/6/6 476/6/6
f 477/6/1 478/6/1 479/6/1 480/6/1
f 481/6/2 482/6/2 483/6/2 484/6/2
f 485/6/4 486/6/4 487/6/4 488/6/4
f 489/6/5 490/6/5 491/6/5 492/6/5
f 493/6/6 494/6/6 495/6/6 496/6/6
f 497/6/1 498/6/1 499/6/1 500/6/1
f 501/6/3 502/6/3 503/6/3 504/6/3
f 505/6/5 506/6/5 507/6/5 508/6/5
f 509/6/6 510/6/6 511/6/6 512/6/6
f 513/6/5 514/6/5 515/6/5 516/6/5
f 517/6/6 518/6/6 519/6/6 520/6/6
f 521/6/5 522/6/5 523/6/5 524/6/5
f 525/6/6 526/6/6 527/6/6 528/6/6
f 529/6/4 530/6/4 531/6/4 532/6/4
f 533/6/5 534/6/5 535/6/5 536/6/5
f 537/6/6 538/6/6 539/6/6 540/6/6
f 541/6/2 542/6/2 543/6/2 544/6/2
f 545/6/4 546/6/4 547/6/4 548/6/4
f 549/6/5 550/6/5 551/6/5 552/6/5
f 553/6/6 554/6/6 555/6/6 556/6/6
f 557/6/1 558/6/1 559/6/1 560/6/1
f 561/6/2 562/6/2 563/6/2 564/6/2
f 565/6/3 566/6/3 567/6/3 568/6/3
f 569/6/5 570/6/5 571/6/5 572/6/5
f 573/6/6 574/6/6 575/6/6 576/6/6
f 577/6/1 578/6/1 579/6/1 580/6/1
f 581/6/3 582/6/3 583/6/3 584/6/3
f 585/6/5 586/6/5 587/6/5 588/6/5
f 589/6/6 590/6/6 591/6/6 592/6/6
f 593/6/5 594/6/5 595/6/5 596/6/5
f 597/6/6 598/6/6 599/6/6 600/6/6
f 601/6/5 602/6/5 603/6/5 604/6/5
f 605/6/6 606/6/6 607/6/6 608/6/6
f 609/6/2 610/6/2 611/6/2 612/6/2
f 613/6/4 614/6/4 615/6/4 616/6/4
f 617/6/5 618/6/5 619/6/5 620/6/5
f 621/6/6 622/6/6 623/6/6 624/6/6
f 625/6/1 626/6/1 627/6/1 628/6/1
f 629/6/3 630/6/3 631/6/3 632/6/3
f 633/6/5 634/6/5 635/6/5 636/6/5
f 637/6/6 638/6/6 639/6/6 640/6/6
f 641/6/2 642/6/2 643/6/2 644/6/2
f 645/6/5 646/6/5 647/6/5 648/6/5
f 649/6/6 650/6/6 651/6/6 652/6/6
f 653/6/1 654/6/1 655/6/1 656/6/1
f 657/6/5 658/6/5 659/6/5 660/6/5
f 661/6/6 662/6/6 663/6/6 664/6/6
f 665/6/4 666/6/4 667/6/4 668/6/4
f 669/6/5 670/6/5 671/6/5 672/6/5
f 673/6/6 674/6/6 675/6/6 676/6/6
f 677/6/2 678/6/2 679/6/2 680/6/2
f 681/6/4 682/6/4 683/6/4 684/6/4
f 685/6/5 686/6/5 687/6/5 688/6/5
f 689/6/6 690/6/6 691/6/6 692/6/6
f 693/6/1 694/6/1 695/6/1 696/6/1
f 697/6/5 698/6/5 699/6/5 700/6/5
f 701/6/6 702/6/6 703/6/6 704/6/6
f 705/6/2 706/6/2 707/6/2 708/6/2
f 709/6/4 710/6/4 711/6/4 712/6/4
f 713/6/5 714/6/5 715/6/5 716/6/5
f 717/6/6 718/6/6 719/6/6 720/6/6
f 721/6/1 722/6/1 723/6/1 724/6/1
f 725/6/3 726/6/3 727/6/3 728/6/3
f 729/6/5 730/6/5 731/6/5 732/6/5
f 733/6/6 734/6/6 735/6/6 736/6/6
f 737/6/3 738/6/3 739/6/3 740/6/3
f 741/6/5 742/6/5 743/6/5 744/6/5
f 745/6/6 746/6/6 747/6/6 748/6/6
f 749/6/3 750/6/3 751/6/3 752/6/3
f 753/6/4 754/6/4 755/6/4 756/6/4
f 757/6/5 758/6/5 759/6/5 760/6/5
f 761/6/6 762/6/6 763/6/6 764/6/6
f 765/6/2 766/6/2 767/6/2 768/6/2
f 769/6/4 770/6/4 771/6/4 772/6/4
f 773/6/5 774/6/5 775/6/5 776/6/5
f 777/6/6 778/6/6 779/6/6 780/6/6
f 781/6/1 782/6/1 783/6/1 784/6/1
f 785/6/3 786/6/3 787/6/3 788/6/3
f 789/6/5 790/6/5 791/6/5 792/6/5
f 793/6/6 794/6/6 795/6/6 796/6/6
f 797/6/2 798/6/2 799/6/2 800/6/2
f 801/6/5 802/6/5 803/6/5 804/6/5
f 805/6/6 806/6/6 807/6/6 808/6/6
f 809/6/1 810/6/1 811/6/1 812/6/1
f 813/6/3 814/6/3 815/6/3 816/6/3
f 817/6/5 818/6/5 819/6/5 820/6/5
f 821/6/6 822/6/6 823/6/6 824/6/6
f 825/6/4 826/6/4 827/6/4 828/6/4
f 829/6/5 830/6/5 831/6/5 832/6/5
f 833/6/6 834/6/6 835/6/6 836/6/6
f 837/6/2 838/6/2 839/6/2 840/6/2
f 841/6/4 842/6/4 843/6/4 844/6/4
f 845/6/5 846/6/5 847/6/5 848/6/5
f 849/6/6 850/6/6 851/6/6 852/6/6
f 853/6/1 854/6/1 855/6/1 856/6/1
f 857/6/3 858/6/3 859/6/3 860/6/3
f 861/6/5 862/6/5 863/6/5 864/6/5
f 865/6/6 866/6/6 867/6/6 868/6/6
f 869/6/5 870/6/5 871/6/5 872/6/5
f 873/6/6 874/6/6 875/6/6 876/6/6
f 877/6/2 878/6/2 879/6/2 880/6/2
f 881/6/4 882/6/4 883/6/4 884/6/4
f 885/6/5 886/6/5 887/6/5 888/6/5
f 889/6/6 890/6/6 891/6/6 892/6/6
f 893/6/1 894/6/1 895/6/1 896/6/1
f 897/6/3 898/6/3 899/6/3 900/6/3
f 901/6/4 902/6/4 903/6/4 904/6/4
f 905/6/5 906/6/5 907/6/5 908/6/5
f 909/6/6 910/6/6 911/6/6 912/6/6
f 913/6/2 914/6/2 915/6/2 916/6/2
f 917/6/4 918/6/4 919/6/4 920/6/4
f 921/6/5 922/6/5 923/6/5 924/6/5
f 925/6/6 926/6/6 927/6/6 928/6/6
f 929/6/1 930/6/1 931/6/1 932/6/1
f 933/6/3 934/6/3 935/6/3 936/6/3
f 937/6/5 938/6/5 939/6/5 940/6/5
f 941/6/6 942/6/6 943/6/6 944/6/6
f 945/6/5 946/6/5 947/6/5 948/6/5
f 949/6/6 950/6/6 951/6/6 952/6/6
f 953/6/2 954/6/2 955/6/2 956/6/2
f 957/6/5 958/6/5 959/6/5 960/6/5
f 961/6/6 962/6/6 963/6/6 964/6/6
f 965/6/1 966/6/1 967/6/1 968/6/1
f 969/6/2 970/6/2 971/6/2 972/6/2
f 973/6/3 974/6/3 975/6/3 976/6/3
f 977/6/4 978/6/4 979/6/4 980/6/4
f 981/6/5 982/6/5 983/6/5 984/6/5
f 985/6/6 986/6/6 987/6/6 988/6/6
f 989/6/1 990/6/1 991/6/1 992/6/1
f 993/6/3 994/6/3 995/6/3 996/6/3
f 997/6/5 998/6/5 999/6/5 1000/6/5
f 1001/6/6 1002/6/6 1003/6/6 1004/6/6
f 1005/6/5 1006/6/5 1007/6/5 1008/6/5
f 1009/6/6 1010/6/6 1011/6/6 1012/6/6
f 1013/6/5 1014/6/5 1015/6/5 1016/6/5
f 1017/6/6 1018/6/6 1019/6/6 1020/6/6
f 1021/6/2 1022/6/2 1023/6/2 1024/6/2
f 1025/6/4 1026/6/4 1027/6/4 1028/6/4
f 1029/6/5 1030/6/5 1031/6/5 1032/6/5
f 1033/6/6 1034/6/6 1035/6/6 1036/6/6
f 1037/6/1 1038/6/1 1039/6/1 1040/6/1
f 1041/6/3 1042/6/3 1043/6/3 1044/6/3
f 1045/6/5 1046/6/5 1047/6/5 1048/6/5
f 1049/6/6 1050/6/6 1051/6/6 1052/6/6
f 1053/6/3 1054/6/3 1055/6/3 1056/6/3
f 1057/6/5 1058/6/5 1059/6/5 1060/6/5
f 1061/6/6 1062/6/6 1063/6/6 1064/6/6
f 1065/6/5 1066/6/5 1067/6/5 1068/6/5
f 1069/6/6 1070/6/6 1071/6/6 1072/6/6
f 1073/6/5 1074/6/5 1075/6/5 1076/6/5
f 1077/6/6 1078/6/6 1079/6/6 1080/6/6
f 1081/6/2 1082/6/2 1083/6/2 1084/6/2
f 1085/6/4 1086/6/4 1087/6/4 1088/6/4
f 1089/6/5 1090/6/5 1091/6/5 1092/6/5
f 1093/6/6 1094/6/6 1095/6/6 1096/6/6
f 1097/6/1 1098/6/1 1099/6/1 1100/6/1
f 1101/6/3 1102/6/3 1103/6/3 1104/6/3
f 1105/6/5 1106/6/5 1107/6/5 1108/6/5
f 1109/6/6 1110/6/6 1111/6/6 1112/6/6
f 1113/6/5 1114/6/5 1115/6/5 1116/6/5
f 1117/6/6 1118/6/6 1119/6/6 1120/6/6
f 1121/6/5 1122/6/5 1123/6/5 1124/6/5
f 1125/6/6 1126/6/6 1127/6/6 1128/6/6
f 1129/6/5 1130/6/5 1131/6/5 1132/6/5
f 1133/6/6 1134/6/6 1135/6/6 1136/6/6
f 1137/6/2 1138/6/2 1139/6/2 1140/6/2
f 1141/6/5 1142/6/5 1143/6/5 1144/6/5
f 1145/6/6 1146/6/6 1147/6/6 1148/6/6
f 1149/6/1 1150/6/1 1151/6/1 1152/6/1
f 1153/6/3 1154/6/3 1155/6/3 1156/6/3
f 1157/6/5 1158/6/5 1159/6/5 1160/6/5
f 1161/6/6 1162/6/6 1163/6/6 1164/6/6
f 1165/6/5 1166/6/5 1167/6/5 1168/6/5
f 1169/6/6 1170/6/6 1171/6/6 1172/6/6
f 1173/6/5 1174/6/5 1175/6/5 1176/6/5
f 1177/6/6 1178/6/6 1179/6/6 1180/6/6
f 1181/6/5 1182/6/5 1183/6/5 1184/6/5
f 1185/6/6 1186/6/6 1187/6/6 1188/6/6
f 1189/6/5 1190/6/5 1191/6/5 1192/6/5
f 1193/6/6 1194/6/6 1195/6/6 1196/6/6
f 1197/6/2 1198/6/2 1199/6/2 1200/6/2
f 1201/6/4 1202/6/4 1203/6/4 1204/6/4
f 1205/6/5 1206/6/5 1207/6/5 1208/6/5
f 1209/6/6 1210/6/6 1211/6/6 1212/6/6
f 1213/6/1 1214/6/1 1215/6/1 1216/6/1
f 1217/6/3 1218/6/3 1219/6/3 1220/6/3
f 1221/6/5 1222/6/5 1223/6/5 1224/6/5
f 1225/6/6 1226/6/6 1227/6/6 1228/6/6
f 1229/6/3 1230/6/3 1231/6/3 1232/6/3
f 1233/6/5 1234/6/5 1235/6/5 1236/6/5
f 1237/6/6 1238/6/6 1239/6/6 1240/6/6
f 1241/6/5 1242/6/5 1243/6/5 1244/6/5
f 1245/6/6 1246/6/6 1247/6/6 1248/6/6
f 1249/6/5 1250/6/5 1251/6/5 1252/6/5
f 1253/6/6 1254/6/6 1255/6/6 1256/6/6
f 1257/6/5 1258/6/5 1259/6/5 1260/6/5
f 1261/6/6 1262/6/6 1263/6/6 1264/6/6
f 1265/6/5 1266/6/5 1267/6/5 1268/6/5
f 1269/6/6 1270/6/6 1271/6/6 1272/6/6
f 1273/6/2 1274/6/2 1275/6/2 1276/6/2
f 1277/6/4 1278/6/4 1279/6/4 1280/6/4
f 1281/6/5 1282/6/5 1283/6/5 1284/6/5
f 1285/6/6 1286/6/6 1287/6/6 1288/6/6
f 1289/6/1 1290/6/1 1291/6/1 1292/6/1
f 1293/6/3 1294/6/3 1295/6/3 1296/6/3
f 1297/6/5 1298/6/5 1299/6/5 1300/6/5
f 1301/6/6 1302/6/6 1303/6/6 1304/6/6
f 1305/6/5 1306/6/5 1307/6/5 1308/6/5
f 1309/6/6 1310/6/6 1311/6/6 1312/6/6
f 1313/6/5 1314/6/5 1315/6/5 1316/6/5
f 1317/6/6 1318/6/6 1319/6/6 1320/6/6
f 1321/6/5 1322/6/5 1323/6/5 1324/6/5
f 1325/6/6 1326/6/6 1327/6/6 1328/6/6
f 1329/6/5 1330/6/5 1331/6/5 1332/6/5
f 1333/6/6 1334/6/6 1335/6/6 1336/6/6
f 1337/6/5 1338/6/5 1339/6/5 1340/6/5
f 1341/6/6 1342/6/6 1343/6/6 1344/6/6
f 1345/6/2 1346/6/2 1347/6/2 1348/6/2
f 1349/6/4 1350/6/4 1351/6/4 1352/6/4
f 1353/6/5 1354/6/5 1355/6/5 1356/6/5
f 1357/6/6 1358/6/6 1359/6/6 1360/6/6
f 1361/7/1 1362/7/1 1363/7/1 1364/7/1
f 1365/7/2 1366/7/2 1367/7/2 1368/7/2
f 1369/7/3 1370/7/3 1371/7/3 1372/7/3
f 1373/7/4 1374/7/4 1375/7/4 1376/7/4
f 1377/7/5 1378/7/5 1379/7/5 1380/7/5
f 1381/7/6 1382/7/6 1383/7/6 1384/7/6
f 1385/6/1 1386/6/1 1387/6/1 1388/6/1
f 1389/6/3 1390/6/3 1391/6/3 1392/6/3
f 1393/6/5 1394/6/5 1395/6/5 1396/6/5
f 1397/6/6 1398/6/6 1399/6/6 1400/6/6
f 1401/6/3 1402/6/3 1403/6/3 1404/6/3
f 1405/6/5 1406/6/5 1407/6/5 1408/6/5
f 1409/6/6 1410/6/6 1411/6/6 1412/6/6
f 1413/6/5 1414/6/5 1415/6/5 1416/6/5
f 1417/6/6 1418/6/6 1419/6/6 1420/6/6
f 1421/6/5 1422/6/5 1423/6/5 1424/6/5
f 1425/6/6 1426/6/6 1427/6/6 1428/6/6
f 1429/6/5 1430/6/5 1431/6/5 1432/6/5
f 1433/6/6 1434/6/6 1435/6/6 1436/6/6
f 1437/6/5 1438/6/5 1439/6/5 1440/6/5
f 1441/6/6 1442/6/6 1443/6/6 1444/6/6
f 1445/6/4 1446/6/4 1447/6/4 1448/6/4
f 1449/6/5 1450/6/5 1451/6/5 1452/6/5
f 1453/6/6 1454/6/6 1455/6/6 1456/6/6
f 1457/6/2 1458/6/2 1459/6/2 1460/6/2
f 1461/6/4 1462/6/4 1463/6/4 1464/6/4
f 1465/6/5 1466/6/5 1467/6/5 1468/6/5
f 1469/6/6 1470/6/6 1471/6/6 1472/6/6
f 1473/4/1 1474/4/1 1475/4/1 1476/4/1
f 1477/4/3 1478/4/3 1479/4/3 1480/4/3
f 1481/4/5 1482/4/5 1483/4/5 1484/4/5
f 1485/4/6 1486/4/6 1487/4/6 1488/4/6
f 1489/7/2 1490/7/2 1491/7/2 1492/7/2
f 1493/7/3 1494/7/3 1495/7/3 1496/7/3
f 1497/7/4 1498/7/4 1499/7/4 1500/7/4
f 1501/7/5 1502/7/5 1503/7/5 1504/7/5
f 1505/7/6 1506/7/6 1507/7/6 1508/7/6
f 1509/6/1 1510/6/1 1511/6/1 1512/6/1
f 1513/6/3 1514/6/3 1515/6/3 1516/6/3
f 1517/6/5 1518/6/5 1519/6/5 1520/6/5
f 1521/6/6 1522/6/6 1523/6/6 1524/6/6
f 1525/6/5 1526/6/5 1527/6/5 1528/6/5
f 1529/6/6 1530/6/6 1531/6/6 1532/6/6
f 1533/6/5 1534/6/5 1535/6/5 1536/6/5
f 1537/6/6 1538/6/6 1539/6/6 1540/6/6
f 1541/6/5 1542/6/5 1543/6/5 1544/6/5
f 1545/6/6 1546/6/6 1547/6/6 1548/6/6
f 1549/6/5 1550/6/5 1551/6/5 1552/6/5
f 1553/6/6 1554/6/6 1555/6/6 1556/6/6
f 1557/6/5 1558/6/5 1559/6/5 1560/6/5
f 1561/6/6 1562/6/6 1563/6/6 1564/6/6
f 1565/6/2 1566/6/2 1567/6/2 1568/6/2
f 1569/6/4 1570/6/4 1571/6/4 1572/6/4
f 1573/6/5 1574/6/5 1575/6/5 1576/6/5
f 1577/6/6 1578/6/6 1579/6/6 1580/6/6
f 1581/4/1 1582/4/1 1583/4/1 1584/4/1
f 1585/4/3 1586/4/3 1587/4/3 1588/4/3
f 1589/4/5 1590/4/5 1591/4/5 1592/4/5
f 1593/4/6 1594/4/6 1595/4/6 1596/4/6
f 1597/4/3 1598/4/3 1599/4/3 1600/4/3
f 1601/4/4 1602/4/4 1603/4/4 1604/4/4
f 1605/4/5 1606/4/5 1607/4/5 1608/4/5
f 1609/4/6 1610/4/6 1611/4/6 1612/4/6
f 1613/7/2 1614/7/2 1615/7/2 1616/7/2
f 1617/7/4 1618/7/4 1619/7/4 1620/7/4
f 1621/7/5 1622/7/5 1623/7/5 1624/7/5
f 1625/7/6 1626/7/6 1627/7/6 1628/7/6
f 1629/6/1 1630/6/1 1631/6/1 1632/6/1
f 1633/6/3 1634/6/3 1635/6/3 1636/6/3
f 1637/6/5 1638/6/5 1639/6/5 1640/6/5
f 1641/6/6 1642/6/6 1643/6/6 1644/6/6
f 1645/6/3 1646/6/3 1647/6/3 1648/6/3
f 1649/6/5 1650/6/5 1651/6/5 1652/6/5
f 1653/6/6 1654/6/6 1655/6/6 1656/6/6
f 1657/6/5 1658/6/5 1659/6/5 1660/6/5
f 1661/6/6 1662/6/6 1663/6/6 1664/6/6
f 1665/6/5 1666/6/5 1667/6/5 1668/6/5
f 1669/6/6 1670/6/6 1671/6/6 1672/6/6
f 1673/6/5 1674/6/5 1675/6/5 1676/6/5
f 1677/6/6 1678/6/6 1679/6/6 1680/6/6
f 1681/6/5 1682/6/5 1683/6/5 1684/6/5
f 1685/6/6 1686/6/6 1687/6/6 1688/6/6
f 1689/6/4 1690/6/4 1691/6/4 1692/6/4
f 1693/6/5 1694/6/5 1695/6/5 1696/6/5
f 1697/6/6 1698/6/6 1699/6/6 1700/6/6
f 1701/6/2 1702/6/2 1703/6/2 1704/6/2
f 1705/6/4 1706/6/4 1707/6/4 1708/6/4
f 1709/6/5 1710/6/5 1711/6/5 1712/6/5
f 1713/6/6 1714/6/6 1715/6/6 1716/6/6
f 1717/5/1 1718/5/1 1719/5/1 1720/5/1
f 1721/5/3 1722/5/3 1723/5/3 1724/5/3
f 1725/5/4 1726/5/4 1727/5/4 1728/5/4
f 1729/5/5 1730/5/5 1731/5/5 1732/5/5
f 1733/5/6 1734/5/6 1735/5/6 1736/5/6
f 1737/4/3 1738/4/3 1739/4/3 1740/4/3
f 1741/4/4 1742/4/4 1743/4/4 1744/4/4
f 1745/4/5 1746/4/5 1747/4/5 1748/4/5
f 1749/4/6 1750/4/6 1751/4/6 1752/4/6
f 1753/7/2 1754/7/2 1755/7/2 1756/7/2
f 1757/7/4 1758/7/4 1759/7/4 1760/7/4
f 1761/7/5 1762/7/5 1763/7/5 1764/7/5
f 1765/7/6 1766/7/6 1767/7/6 1768/7/6
f 1769/6/1 1770/6/1 1771/6/1 1772/6/1
f 1773/6/3 1774/6/3 1775/6/3 1776/6/3
f 1777/6/5 1778/6/5 1779/6/5 1780/6/5
f 1781/6/6 1782/6/6 1783/6/6 1784/6/6
f 1785/6/3 1786/6/3 1787/6/3 1788/6/3
f 1789/6/5 1790/6/5 1791/6/5 1792/6/5
f 1793/6/6 1794/6/6 1795/6/6 1796/6/6
f 1797/6/5 1798/6/5 1799/6/5 1800/6/5
f 1801/6/6 1802/6/6 1803/6/6 1804/6/6
f 1805/6/5 1806/6/5 1807/6/5 1808/6/5
f 1809/6/6 1810/6/6 1811/6/6 1812/6/6
f 1813/6/5 1814/6/5 1815/6/5 1816/6/5
f 1817/6/6 1818/6/6 1819/6/6 1820/6/6
f 1821/6/5 1822/6/5 1823/6/5 1824/6/5
f 1825/6/6 1826/6/6 1827/6/6 1828/6/6
f 1829/6/5 1830/6/5 1831/6/5 1832/6/5
f 1833/6/6 1834/6/6 1835/6/6 1836/6/6
f 1837/6/2 1838/6/2 1839/6/2 1840/6/2
f 1841/6/4 1842/6/4 1843/6/4 1844/6/4
f 1845/6/5 1846/6/5 1847/6/5 1848/6/5
f 1849/6/6 1850/6/6 1851/6/6 1852/6/6
f 1853/3/1 1854/3/1 1855/3/1 1856/3/1
f 1857/3/2 1858/3/2 1859/3/2 1860/3/2
f 1861/3/3 1862/3/3 1863/3/3 1864/3/3
f 1865/3/5 1866/3/5 1867/3/5 1868/3/5
f 1869/3/6 1870/3/6 1871/3/6 1872/3/6
f 1873/5/1 1874/5/1 1875/5/1 1876/5/1
f 1877/5/3 1878/5/3 1879/5/3 1880/5/3
f 1881/5/4 1882/5/4 1883/5/4 1884/5/4
f 1885/5/5 1886/5/5 1887/5/5 1888/5/5
f 1889/5/6 1890/5/6 1891/5/6 1892/5/6
f 1893/4/3 1894/4/3 1895/4/3 1896/4/3
f 1897/4/4 1898/4/4 1899/4/4 1900/4/4
f 1901/4/5 1902/4/5 1903/4/5 1904/4/5
f 1905/4/6 1906/4/6 1907/4/6 1908/4/6
f 1909/7/3 1910/7/3 1911/7/3 1912/7/3
f 1913/7/4 1914/7/4 1915/7/4 1916/7/4
f 1917/7/5 1918/7/5 1919/7/5 1920/7/5
f 1921/7/6 1922/7/6 1923/7/6 1924/7/6
f 1925/7/2 1926/7/2 1927/7/2 1928/7/2
f 1929/7/3 1930/7/3 1931/7/3 1932/7/3
f 1933/7/4 1934/7/4 1935/7/4 1936/7/4
f 1937/7/5 1938/7/5 1939/7/5 1940/7/5
f 1941/7/6 1942/7/6 1943/7/6 1944/7/6
f 1945/6/1 1946/6/1 1947/6/1 1948/6/1
f 1949/6/3 1950/6/3 1951/6/3 1952/6/3
f 1953/6/5 1954/6/5 1955/6/5 1956/6/5
f 1957/6/6 1958/6/6 1959/6/6 1960/6/6
f 1961/6/3 1962/6/3 1963/6/3 1964/6/3
f 1965/6/5 1966/6/5 1967/6/5 1968/6/5
f 1969/6/6 1970/6/6 1971/6/6 1972/6/6
f 1973/6/3 1974/6/3 1975/6/3 1976/6/3
f 1977/6/5 1978/6/5 1979/6/5 1980/6/5
f 1981/6/6 1982/6/6 1983/6/6 1984/6/6
f 1985/6/5 1986/6/5 1987/6/5 1988/6/5
f 1989/6/6 1990/6/6 1991/6/6 1992/6/6
f 1993/6/5 1994/6/5 1995/6/5 1996/6/5
f 1997/6/6 1998/6/6 1999/6/6 2000/6/6
f 2001/6/5 2002/6/5 2003/6/5 2004/6/5
f 2005/6/6 2006/6/6 2007/6/6 2008/6/6
f 2009/6/5 2010/6/5 2011/6/5 2012/6/5
f 2013/6/6 2014/6/6 2015/6/6 2016/6/6
f 2017/6/5 2018/6/5 2019/6/5 2020/6/5
f 2021/6/6 2022/6/6 2023/6/6 2024/6/6
f 2025/6/4 2026/6/4 2027/6/4 2028/6/4
f 2029/6/5 2030/6/5 2031/6/5 2032/6/5
f 2033/6/6 2034/6/6 2035/6/6 2036/6/6
f 2037/6/2 2038/6/2 2039/6/2 2040/6/2
f 2041/6/4 2042/6/4 2043/6/4 2044/6/4
f 2045/6/5 2046/6/5 2047/6/5 2048/6/5
f 2049/6/6 2050/6/6 2051/6/6 2052/6/6
f 2053/3/1 2054/3/1 2055/3/1 2056/3/1
f 2057/3/3 2058/3/3 2059/3/3 2060/3/3
f 2061/3/4 2062/3/4 2063/3/4 2064/3/4
f 2065/3/5 2066/3/5 2067/3/5 2068/3/5
f 2069/3/6 2070/3/6 2071/3/6 2072/3/6
f 2073/2/4 2074/2/4 2075/2/4 2076/2/4
f 2077/2/5 2078/2/5 2079/2/5 2080/2/5
f 2081/2/6 2082/2/6 2083/2/6 2084/2/6
f 2085/2/3 2086/2/3 2087/2/3 2088/2/3
f 2089/2/5 2090/2/5 2091/2/5 2092/2/5
f 2093/2/6 2094/2/6 2095/2/6 2096/2/6
f 2097/5/3 2098/5/3 2099/5/3 2100/5/3
f 2101/5/5 2102/5/5 2103/5/5 2104/5/5
f 2105/5/6 2106/5/6 2107/5/6 2108/5/6
f 2109/4/3 2110/4/3 2111/4/3 2112/4/3
f 2113/4/5 2114/4/5 2115/4/5 2116/4/5
f 2117/4/6 2118/4/6 2119/4/6 2120/4/6
f 2121/7/3 2122/7/3 2123/7/3 2124/7/3
f 2125/7/5 2126/7/5 2127/7/5 2128/7/5
f 2129/7/6 2130/7/6 2131/7/6 2132/7/6
f 2133/7/3 2134/7/3 2135/7/3 2136/7/3
f 2137/7/5 2138/7/5 2139/7/5 2140/7/5
f 2141/7/6 2142/7/6 2143/7/6 2144/7/6
f 2145/7/3 2146/7/3 2147/7/3 2148/7/3
f 2149/7/5 2150/7/5 2151/7/5 2152/7/5
f 2153/7/6 2154/7/6 2155/7/6 2156/7/6
f 2157/7/3 2158/7/3 2159/7/3 2160/7/3
f 2161/7/5 2162/7/5 2163/7/5 2164/7/5
f 2165/7/6 2166/7/6 2167/7/6 2168/7/6
f 2169/7/3 2170/7/3 2171/7/3 2172/7/3
f 2173/7/5 2174/7/5 2175/7/5 2176/7/5
f 2177/7/6 2178/7/6 2179/7/6 2180/7/6
f 2181/7/3 2182/7/3 2183/7/3 2184/7/3
f 2185/7/5 2186/7/5 2187/7/5 2188/7/5
f 2189/7/6 2190/7/6 2191/7/6 2192/7/6
f 2193/7/3 2194/7/3 2195/7/3 2196/7/3
f 2197/7/5 2198/7/5 2199/7/5 2200/7/5
f 2201/7/6 2202/7/6 2203/7/6 2204/7/6
f 2205/7/3 2206/7/3 2207/7/3 2208/7/3
f 2209/7/5 2210/7/5 2211/7/5 2212/7/5
f 2213/7/6 2214/7/6 2215/7/6 2216/7/6
f 2217/7/3 2218/7/3 2219/7/3 2220/7/3
f 2221/7/4 2222/7/4 2223/7/4 2224/7/4
f 2225/7/5 2226/7/5 2227/7/5 2228/7/5
f 2229/7/6 2230/7/6 2231/7/6 2232/7/6
f 2233/7/3 2234/7/3 2235/7/3 2236/7/3
f 2237/7/4 2238/7/4 2239/7/4 2240/7/4
f 2241/7/5 2242/7/5 2243/7/5 2244/7/5
f 2245/7/6 2246/7/6 2247/7/6 2248/7/6
f 2249/7/2 2250/7/2 2251/7/2 2252/7/2
f 2253/7/3 2254/7/3 2255/7/3 2256/7/3
f 2257/7/4 2258/7/4 2259/7/4 2260/7/4
f 2261/7/5 2262/7/5 2263/7/5 2264/7/5
f 2265/7/6 2266/7/6 2267/7/6 2268/7/6
f 2269/6/1 2270/6/1 2271/6/1 2272/6/1
f 2273/6/3 2274/6/3 2275/6/3 2276/6/3
f 2277/6/5 2278/6/5 2279/6/5 2280/6/5
f 2281/6/6 2282/6/6 2283/6/6 2284/6/6
f 2285/6/3 2286/6/3 2287/6/3 2288/6/3
f 2289/6/5 2290/6/5 2291/6/5 2292/6/5
f 2293/6/6 2294/6/6 2295/6/6 2296/6/6
f 2297/6/5 2298/6/5 2299/6/5 2300/6/5
f 2301/6/6 2302/6/6 2303/6/6 2304/6/6
f 2305/6/5 2306/6/5 2307/6/5 2308/6/5
f 2309/6/6 2310/6/6 2311/6/6 2312/6/6
f 2313/6/5 2314/6/5 2315/6/5 2316/6/5
f 2317/6/6 2318/6/6 2319/6/6 2320/6/6
f 2321/6/5 2322/6/5 2323/6/5 2324/6/5
f 2325/6/6 2326/6/6 2327/6/6 2328/6/6
f 2329/6/5 2330/6/5 2331/6/5 2332/6/5
f 2333/6/6 2334/6/6 2335/6/6 2336/6/6
f 2337/6/4 2338/6/4 2339/6/4 2340/6/4
f 2341/6/5 2342/6/5 2343/6/5 2344/6/5
f 2345/6/6 2346/6/6 2347/6/6 2348/6/6
f 2349/6/4 2350/6/4 2351/6/4 2352/6/4
f 2353/6/5 2354/6/5 2355/6/5 2356/6/5
f 2357/6/6 2358/6/6 2359/6/6 2360/6/6
f 2361/6/2 2362/6/2 2363/6/2 2364/6/2
f 2365/6/4 2366/6/4 2367/6/4 2368/6/4
f 2369/6/5 2370/6/5 2371/6/5 2372/6/5
f 2373/6/6 2374/6/6 2375/6/6 2376/6/6
f 2377/4/1 2378/4/1 2379/4/1 2380/4/1
f 2381/4/2 2382/4/2 2383/4/2 2384/4/2
f 2385/4/3 2386/4/3 2387/4/3 2388/4/3
f 2389/4/4 2390/4/4 2391/4/4 2392/4/4
f 2393/4/5 2394/4/5 2395/4/5 2396/4/5
f 2397/4/6 2398/4/6 2399/4/6 2400/4/6
f 2401/5/1 2402/5/1 2403/5/1 2404/5/1
f 2405/5/4 2406/5/4 2407/5/4 2408/5/4
f 2409/5/5 2410/5/5 2411/5/5 2412/5/5
f 2413/5/6 2414/5/6 2415/5/6 2416/5/6
f 2417/4/4 2418/4/4 2419/4/4 2420/4/4
f 2421/4/5 2422/4/5 2423/4/5 2424/4/5
f 2425/4/6 2426/4/6 2427/4/6 2428/4/6
f 2429/7/4 2430/7/4 2431/7/4 2432/7/4
f 2433/7/5 2434/7/5 2435/7/5 2436/7/5
f 2437/7/6 2438/7/6 2439/7/6 2440/7/6
f 2441/1/5 2442/1/5 2443/1/5 2444/1/5
f 2445/1/6 2446/1/6 2447/1/6 2448/1/6
f 2449/1/5 2450/1/5 2451/1/5 2452/1/5
f 2453/1/6 2454/1/6 2455/1/6 2456/1/6
f 2457/1/5 2458/1/5 2459/1/5 2460/1/5
f 2461/1/6 2462/1/6 2463/1/6 2464/1/6
f 2465/1/5 2466/1/5 2467/1/5 2468/1/5
f 2469/1/6 2470/1/6 2471/1/6 2472/1/6
f 2473/1/5 2474/1/5 2475/1/5 2476/1/5
f 2477/1/6 2478/1/6 2479/1/6 2480/1/6
f 2481/1/4 2482/1/4 2483/1/4 2484/1/4
f 2485/1/5 2486/1/5 2487/1/5 2488/1/5
f 2489/1/6 2490/1/6 2491/1/6 2492/1/6
f 2493/1/4 2494/1/4 2495/1/4 2496/1/4
f 2497/1/5 2498/1/5 2499/1/5 2500/1/5
f 2501/1/6 2502/1/6 2503/1/6 2504/1/6
f 2505/1/2 2506/1/2 2507/1/2 2508/1/2
f 2509/1/4 2510/1/4 2511/1/4 2512/1/4
f 2513/1/5 2514/1/5 2515/1/5 2516/1/5
f 2517/1/6 2518/1/6 2519/1/6 2520/1/6
f 2521/6/1 2522/6/1 2523/6/1 2524/6/1
f 2525/6/3 2526/6/3 2527/6/3 2528/6/3
f 2529/6/5 2530/6/5 2531/6/5 2532/6/5
f 2533/6/6 2534/6/6 2535/6/6 2536/6/6
f 2537/6/3 2538/6/3 2539/6/3 2540/6/3
f 2541/6/5 2542/6/5 2543/6/5 2544/6/5
f 2545/6/6 2546/6/6 2547/6/6 2548/6/6
f 2549/6/3 2550/6/3 2551/6/3 2552/6/3
f 2553/6/5 2554/6/5 2555/6/5 2556/6/5
f 2557/6/6 2558/6/6 2559/6/6 2560/6/6
f 2561/6/5 2562/6/5 2563/6/5 2564/6/5
f 2565/6/6 2566/6/6 2567/6/6 2568/6/6
f 2569/6/5 2570/6/5 2571/6/5 2572/6/5
f 2573/6/6 2574/6/6 2575/6/6 2576/6/6
f 2577/6/5 2578/6/5 2579/6/5 2580/6/5
f 2581/6/6 2582/6/6 2583/6/6 2584/6/6
f 2585/6/5 2586/6/5 2587/6/5 2588/6/5
f 2589/6/6 2590/6/6 2591/6/6 2592/6/6
f 2593/6/5 2594/6/5 2595/6/5 2596/6/5
f 2597/6/6 2598/6/6 2599/6/6 2600/6/6
f 2601/6/4 2602/6/4 2603/6/4 2604/6/4
f 2605/6/5 2606/6/5 2607/6/5 2608/6/5
f 2609/6/6 2610/6/6 2611/6/6 2612/6/6
f 2613/6/2 2614/6/2 2615/6/2 2616/6/2
f 2617/6/4 2618/6/4 2619/6/4 2620/6/4
f 2621/6/5 2622/6/5 2623/6/5 2624/6/5
f 2625/6/6 2626/6/6 2627/6/6 2628/6/6
f 2629/7/1 2630/7/1 2631/7/1 2632/7/1
f 2633/7/3 2634/7/3 2635/7/3 2636/7/3
f 2637/7/4 2638/7/4 2639/7/4 2640/7/4
f 2641/7/5 2642/7/5 2643/7/5 2644/7/5
f 2645/7/6 2646/7/6 2647/7/6 2648/7/6
f 2649/4/2 2650/4/2 2651/4/2 2652/4/2
f 2653/4/3 2654/4/3 2655/4/3 2656/4/3
f 2657/4/4 2658/4/4 2659/4/4 2660/4/4
f 2661/4/5 2662/4/5 2663/4/5 2664/4/5
f 2665/4/6 2666/4/6 2667/4/6 2668/4/6
f 2669/5/1 2670/5/1 2671/5/1 2672/5/1
f 2673/5/4 2674/5/4 2675/5/4 2676/5/4
f 2677/5/5 2678/5/5 2679/5/5 2680/5/5
f 2681/5/6 2682/5/6 2683/5/6 2684/5/6
f 2685/4/4 2686/4/4 2687/4/4 2688/4/4
f 2689/4/5 2690/4/5 2691/4/5 2692/4/5
f 2693/4/6 2694/4/6 2695/4/6 2696/4/6
f 2697/7/4 2698/7/4 2699/7/4 2700/7/4
f 2701/7/5 2702/7/5 2703/7/5 2704/7/5
f 2705/7/6 2706/7/6 2707/7/6 2708/7/6
f 2709/1/5 2710/1/5 2711/1/5 2712/1/5
f 2713/1/6 2714/1/6 2715/1/6 2716/1/6
f 2717/1/2 2718/1/2 2719/1/2 2720/1/2
f 2721/1/5 2722/1/5 2723/1/5 2724/1/5
f 2725/1/6 2726/1/6 2727/1/6 2728/1/6
f 2729/6/1 2730/6/1 2731/6/1 2732/6/1
f 2733/6/3 2734/6/3 2735/6/3 2736/6/3
f 2737/6/4 2738/6/4 2739/6/4 2740/6/4
f 2741/6/5 2742/6/5 2743/6/5 2744/6/5
f 2745/6/6 2746/6/6 2747/6/6 2748/6/6
f 2749/6/3 2750/6/3 2751/6/3 2752/6/3
f 2753/6/4 2754/6/4 2755/6/4 2756/6/4
f 2757/6/5 2758/6/5 2759/6/5 2760/6/5
f 2761/6/6 2762/6/6 2763/6/6 2764/6/6
f 2765/6/3 2766/6/3 2767/6/3 2768/6/3
f 2769/6/4 2770/6/4 2771/6/4 2772/6/4
f 2773/6/5 2774/6/5 2775/6/5 2776/6/5
f 2777/6/6 2778/6/6 2779/6/6 2780/6/6
f 2781/6/3 2782/6/3 2783/6/3 2784/6/3
f 2785/6/4 2786/6/4 2787/6/4 2788/6/4
f 2789/6/5 2790/6/5 2791/6/5 2792/6/5
f 2793/6/6 2794/6/6 2795/6/6 2796/6/6
f 2797/6/3 2798/6/3 2799/6/3 2800/6/3
f 2801/6/4 2802/6/4 2803/6/4 2804/6/4
f 2805/6/5 2806/6/5 2807/6/5 2808/6/5
f 2809/6/6 2810/6/6 2811/6/6 2812/6/6
f 2813/6/3 2814/6/3 2815/6/3 2816/6/3
f 2817/6/5 2818/6/5 2819/6/5 2820/6/5
f 2821/6/6 2822/6/6 2823/6/6 2824/6/6
f 2825/6/3 2826/6/3 2827/6/3 2828/6/3
f 2829/6/5 2830/6/5 2831/6/5 2832/6/5
f 2833/6/6 2834/6/6 2835/6/6 2836/6/6
f 2837/6/3 2838/6/3 2839/6/3 2840/6/3
f 2841/6/5 2842/6/5 2843/6/5 2844/6/5
f 2845/6/6 2846/6/6 2847/6/6 2848/6/6
f 2849/6/3 2850/6/3 2851/6/3 2852/6/3
f 2853/6/5 2854/6/5 2855/6/5 2856/6/5
f 2857/6/6 2858/6/6 2859/6/6 2860/6/6
f 2861/6/3 2862/6/3 2863/6/3 2864/6/3
f 2865/6/5 2866/6/5 2867/6/5 2868/6/5
f 2869/6/6 2870/6/6 2871/6/6 2872/6/6
f 2873/6/3 2874/6/3 2875/6/3 2876/6/3
f 2877/6/5 2878/6/5 2879/6/5 2880/6/5
f 2881/6/6 2882/6/6 2883/6/6 2884/6/6
f 2885/6/3 2886/6/3 2887/6/3 2888/6/3
f 2889/6/5 2890/6/5 2891/6/5 2892/6/5
f 2893/6/6 2894/6/6 2895/6/6 2896/6/6
f 2897/6/3 2898/6/3 2899/6/3 2900/6/3
f 2901/6/5 2902/6/5 2903/6/5 2904/6/5
f 2905/6/6 2906/6/6 2907/6/6 2908/6/6
f 2909/6/3 2910/6/3 2911/6/3 2912/6/3
f 2913/6/5 2914/6/5 2915/6/5 2916/6/5
f 2917/6/6 2918/6/6 2919/6/6 2920/6/6
f 2921/6/3 2922/6/3 2923/6/3 2924/6/3
f 2925/6/5 2926/6/5 2927/6/5 2928/6/5
f 2929/6/6 2930/6/6 2931/6/6 2932/6/6
f 2933/6/3 2934/6/3 2935/6/3 2936/6/3
f 2937/6/5 2938/6/5 2939/6/5 2940/6/5
f 2941/6/6 2942/6/6 2943/6/6 2944/6/6
f 2945/6/3 2946/6/3 2947/6/3 2948/6/3
f 2949/6/5 2950/6/5 2951/6/5 2952/6/5
f 2953/6/6 2954/6/6 2955/6/6 2956/6/6
f 2957/6/3 2958/6/3 2959/6/3 2960/6/3
f 2961/6/5 2962/6/5 2963/6/5 2964/6/5
f 2965/6/6 2966/6/6 2967/6/6 2968/6/6
f 2969/6/5 2970/6/5 2971/6/5 2972/6/5
f 2973/6/6 2974/6/6 2975/6/6 2976/6/6
f 2977/6/5 2978/6/5 2979/6/5 2980/6/5
f 2981/6/6 2982/6/6 2983/6/6 2984/6/6
f 2985/6/5 2986/6/5 2987/6/5 2988/6/5
f 2989/6/6 2990/6/6 2991/6/6 2992/6/6
f 2993/6/5 2994/6/5 2995/6/5 2996/6/5
f 2997/6/6 2998/6/6 2999/6/6 3000/6/6
f 3001/6/4 3002/6/4 3003/6/4 3004/6/4
f 3005/6/5 3006/6/5 3007/6/5 3008/6/5
f 3009/6/6 3010/6/6 3011/6/6 3012/6/6
f 3013/6/4 3014/6/4 3015/6/4 3016/6/4
f 3017/6/5 3018/6/5 3019/6/5 3020/6/5
f 3021/6/6 3022/6/6 3023/6/6 3024/6/6
f 3025/6/4 3026/6/4 3027/6/4 3028/6/4
f 3029/6/5 3030/6/5 3031/6/5 3032/6/5
f 3033/6/6 3034/6/6 3035/6/6 3036/6/6
f 3037/6/2 3038/6/2 3039/6/2 3040/6/2
f 3041/6/4 3042/6/4 3043/6/4 3044/6/4
f 3045/6/5 3046/6/5 3047/6/5 3048/6/5
f 3049/6/6 3050/6/6 3051/6/6 3052/6/6
f 3053/7/1 3054/7/1 3055/7/1 3056/7/1
f 3057/7/3 3058/7/3 3059/7/3 3060/7/3
f 3061/7/4 3062/7/4 3063/7/4 3064/7/4
f 3065/7/5 3066/7/5 3067/7/5 3068/7/5
f 3069/7/6 3070/7/6 3071/7/6 3072/7/6
f 3073/4/2 3074/4/2 3075/4/2 3076/4/2
f 3077/4/3 3078/4/3 3079/4/3 3080/4/3
f 3081/4/4 3082/4/4 3083/4/4 3084/4/4
f 3085/4/5 3086/4/5 3087/4/5 3088/4/5
f 3089/4/6 3090/4/6 3091/4/6 3092/4/6
f 3093/5/1 3094/5/1 3095/5/1 3096/5/1
f 3097/5/4 3098/5/4 3099/5/4 3100/5/4
f 3101/5/5 3102/5/5 3103/5/5 3104/5/5
f 3105/5/6 3106/5/6 3107/5/6 3108/5/6
f 3109/4/4 3110/4/4 3111/4/4 3112/4/4
f 3113/4/5 3114/4/5 3115/4/5 3116/4/5
f 3117/4/6 3118/4/6 3119/4/6 3120/4/6
f 3121/7/3 3122/7/3 3123/7/3 3124/7/3
f 3125/7/4 3126/7/4 3127/7/4 3128/7/4
f 3129/7/5 3130/7/5 3131/7/5 3132/7/5
f 3133/7/6 3134/7/6 3135/7/6 3136/7/6
f 3137/7/3 3138/7/3 3139/7/3 3140/7/3
f 3141/7/5 3142/7/5 3143/7/5 3144/7/5
f 3145/7/6 3146/7/6 3147/7/6 3148/7/6
f 3149/1/3 3150/1/3 3151/1/3 3152/1/3
f 3153/1/5 3154/1/5 3155/1/5 3156/1/5
f 3157/1/6 3158/1/6 3159/1/6 3160/1/6
f 3161/1/2 3162/1/2 3163/1/2 3164/1/2
f 3165/1/3 3166/1/3 3167/1/3 3168/1/3
f 3169/1/5 3170/1/5 3171/1/5 3172/1/5
f 3173/1/6 3174/1/6 3175/1/6 3176/1/6
f 3177/6/1 3178/6/1 3179/6/1 3180/6/1
f 3181/6/4 3182/6/4 3183/6/4 3184/6/4
f 3185/6/5 3186/6/5 3187/6/5 3188/6/5
f 3189/6/6 3190/6/6 3191/6/6 3192/6/6
f 3193/6/4 3194/6/4 3195/6/4 3196/6/4
f 3197/6/5 3198/6/5 3199/6/5 3200/6/5
f 3201/6/6 3202/6/6 3203/6/6 3204/6/6
f 3205/6/4 3206/6/4 3207/6/4 3208/6/4
f 3209/6/5 3210/6/5 3211/6/5 3212/6/5
f 3213/6/6 3214/6/6 3215/6/6 3216/6/6
f 3217/6/4 3218/6/4 3219/6/4 3220/6/4
f 3221/6/5 3222/6/5 3223/6/5 3224/6/5
f 3225/6/6 3226/6/6 3227/6/6 3228/6/6
f 3229/6/4 3230/6/4 3231/6/4 3232/6/4
f 3233/6/5 3234/6/5 3235/6/5 3236/6/5
f 3237/6/6 3238/6/6 3239/6/6 3240/6/6
f 3241/6/4 3242/6/4 3243/6/4 3244/6/4
f 3245/6/5 3246/6/5 3247/6/5 3248/6/5
f 3249/6/6 3250/6/6 3251/6/6 3252/6/6
f 3253/6/4 3254/6/4 3255/6/4 3256/6/4
f 3257/6/5 3258/6/5 3259/6/5 3260/6/5
f 3261/6/6 3262/6/6 3263/6/6 3264/6/6
f 3265/6/4 3266/6/4 3267/6/4 3268/6/4
f 3269/6/5 3270/6/5 3271/6/5 3272/6/5
f 3273/6/6 3274/6/6 3275/6/6 3276/6/6
f 3277/6/4 3278/6/4 3279/6/4 3280/6/4
f 3281/6/5 3282/6/5 3283/6/5 3284/6/5
f 3285/6/6 3286/6/6 3287/6/6 3288/6/6
f 3289/6/4 3290/6/4 3291/6/4 3292/6/4
f 3293/6/5 3294/6/5 3295/6/5 3296/6/5
f 3297/6/6 3298/6/6 3299/6/6 3300/6/6
f 3301/6/4 3302/6/4 3303/6/4 3304/6/4
f 3305/6/5 3306/6/5 3307/6/5 3308/6/5
f 3309/6/6 3310/6/6 3311/6/6 3312/6/6
f 3313/6/4 3314/6/4 3315/6/4 3316/6/4
f 3317/6/5 3318/6/5 3319/6/5 3320/6/5
f 3321/6/6 3322/6/6 3323/6/6 3324/6/6
f 3325/6/4 3326/6/4 3327/6/4 3328/6/4
f 3329/6/5 3330/6/5 3331/6/5 3332/6/5
f 3333/6/6 3334/6/6 3335/6/6 3336/6/6
f 3337/6/4 3338/6/4 3339/6/4 3340/6/4
f 3341/6/5 3342/6/5 3343/6/5 3344/6/5
f 3345/6/6 3346/6/6 3347/6/6 3348/6/6
f 3349/6/4 3350/6/4 3351/6/4 3352/6/4
f 3353/6/5 3354/6/5 3355/6/5 3356/6/5
f 3357/6/6 3358/6/6 3359/6/6 3360/6/6
f 3361/6/4 3362/6/4 3363/6/4 3364/6/4
f 3365/6/5 3366/6/5 3367/6/5 3368/6/5
f 3369/6/6 3370/6/6 3371/6/6 3372/6/6
f 3373/6/2 3374/6/2 3375/6/2 3376/6/2
f 3377/6/4 3378/6/4 3379/6/4 3380/6/4
f 3381/6/5 3382/6/5 3383/6/5 3384/6/5
f 3385/6/6 3386/6/6 3387/6/6 3388/6/6
f 3389/7/1 3390/7/1 3391/7/1 3392/7/1
f 3393/7/3 3394/7/3 3395/7/3 3396/7/3
f 3397/7/4 3398/7/4 3399/7/4 3400/7/4
f 3401/7/5 3402/7/5 3403/7/5 3404/7/5
f 3405/7/6 3406/7/6 3407/7/6 3408/7/6
f 3409/4/3 3410/4/3 3411/4/3 3412/4/3
f 3413/4/4 3414/4/4 3415/4/4 3416/4/4
f 3417/4/5 3418/4/5 3419/4/5 3420/4/5
f 3421/4/6 3422/4/6 3423/4/6 3424/4/6
f 3425/5/2 3426/5/2 3427/5/2 3428/5/2
f 3429/5/3 3430/5/3 3431/5/3 3432/5/3
f 3433/5/4 3434/5/4 3435/5/4 3436/5/4
f 3437/5/5 3438/5/5 3439/5/5 3440/5/5
f 3441/5/6 3442/5/6 3443/5/6 3444/5/6
f 3445/5/1 3446/5/1 3447/5/1 3448/5/1
f 3449/5/4 3450/5/4 3451/5/4 3452/5/4
f 3453/5/5 3454/5/5 3455/5/5 3456/5/5
f 3457/5/6 3458/5/6 3459/5/6 3460/5/6
f 3461/4/4 3462/4/4 3463/4/4 3464/4/4
f 3465/4/5 3466/4/5 3467/4/5 3468/4/5
f 3469/4/6 3470/4/6 3471/4/6 3472/4/6
f 3473/7/4 3474/7/4 3475/7/4 3476/7/4
f 3477/7/5 3478/7/5 3479/7/5 3480/7/5
f 3481/7/6 3482/7/6 3483/7/6 3484/7/6
f 3485/7/3 3486/7/3 3487/7/3 3488/7/3
f 3489/7/4 3490/7/4 3491/7/4 3492/7/4
f 3493/7/5 3494/7/5 3495/7/5 3496/7/5
f 3497/7/6 3498/7/6 3499/7/6 3500/7/6
f 3501/7/3 3502/7/3 3503/7/3 3504/7/3
f 3505/7/4 3506/7/4 3507/7/4 3508/7/4
f 3509/7/5 3510/7/5 3511/7/5 3512/7/5
f 3513/7/6 3514/7/6 3515/7/6 3516/7/6
f 3517/7/3 3518/7/3 3519/7/3 3520/7/3
f 3521/7/5 3522/7/5 3523/7/5 3524/7/5
f 3525/7/6 3526/7/6 3527/7/6 3528/7/6
f 3529/1/3 3530/1/3 3531/1/3 3532/1/3
f 3533/1/5 3534/1/5 3535/1/5 3536/1/5
f 3537/1/6 3538/1/6 3539/1/6 3540/1/6
f 3541/1/3 3542/1/3 3543/1/3 3544/1/3
f 3545/1/5 3546/1/5 3547/1/5 3548/1/5
f 3549/1/6 3550/1/6 3551/1/6 3552/1/6
f 3553/1/2 3554/1/2 3555/1/2 3556/1/2
f 3557/1/3 3558/1/3 3559/1/3 3560/1/3
f 3561/1/5 3562/1/5 3563/1/5 3564/1/5
f 3565/1/6 3566/1/6 3567/1/6 3568/1/6
f 3569/7/1 3570/7/1 3571/7/1 3572/7/1
f 3573/7/3 3574/7/3 3575/7/3 3576/7/3
f 3577/7/4 3578/7/4 3579/7/4 3580/7/4
f 3581/7/5 3582/7/5 3583/7/5 3584/7/5
f 3585/7/6 3586/7/6 3587/7/6 3588/7/6
f 3589/4/2 3590/4/2 3591/4/2 3592/4/2
f 3593/4/3 3594/4/3 3595/4/3 3596/4/3
f 3597/4/4 3598/4/4 3599/4/4 3600/4/4
f 3601/4/5 3602/4/5 3603/4/5 3604/4/5
f 3605/4/6 3606/4/6 3607/4/6 3608/4/6
f 3609/5/1 3610/5/1 3611/5/1 3612/5/1
f 3613/5/4 3614/5/4 3615/5/4 3616/5/4
f 3617/5/5 3618/5/5 3619/5/5 3620/5/5
f 3621/5/6 3622/5/6 3623/5/6 3624/5/6
f 3625/4/4 3626/4/4 3627/4/4 3628/4/4
f 3629/4/5 3630/4/5 3631/4/5 3632/4/5
f 3633/4/6 3634/4/6 3635/4/6 3636/4/6
f 3637/7/4 3638/7/4 3639/7/4 3640/7/4
f 3641/7/5 3642/7/5 3643/7/5 3644/7/5
f 3645/7/6 3646/7/6 3647/7/6 3648/7/6
f 3649/7/4 3650/7/4 3651/7/4 3652/7/4
f 3653/7/5 3654/7/5 3655/7/5 3656/7/5
f 3657/7/6 3658/7/6 3659/7/6 3660/7/6
f 3661/7/3 3662/7/3 3663/7/3 3664/7/3
f 3665/7/4 3666/7/4 3667/7/4 3668/7/4
f 3669/7/5 3670/7/5 3671/7/5 3672/7/5
f 3673/7/6 3674/7/6 3675/7/6 3676/7/6
f 3677/7/3 3678/7/3 3679/7/3 3680/7/3
f 3681/7/4 3682/7/4 3683/7/4 3684/7/4
f 3685/7/5 3686/7/5 3687/7/5 3688/7/5
f 3689/7/6 3690/7/6 3691/7/6 3692/7/6
f 3693/7/3 3694/7/3 3695/7/3 3696/7/3
f 3697/7/4 3698/7/4 3699/7/4 3700/7/4
f 3701/7/5 3702/7/5 3703/7/5 3704/7/5
f 3705/7/6 3706/7/6 3707/7/6 3708/7/6
f 3709/7/3 3710/7/3 3711/7/3 3712/7/3
f 3713/7/4 3714/7/4 3715/7/4 3716/7/4
f 3717/7/5 3718/7/5 3719/7/5 3720/7/5
f 3721/7/6 3722/7/6 3723/7/6 3724/7/6
f 3725/7/3 3726/7/3 3727/7/3 3728/7/3
f 3729/7/4 3730/7/4 3731/7/4 3732/7/4
f 3733/7/5 3734/7/5 3735/7/5 3736/7/5
f 3737/7/6 3738/7/6 3739/7/6 3740/7/6
f 3741/7/3 3742/7/3 3743/7/3 3744/7/3
f 3745/7/4 3746/7/4 3747/7/4 3748/7/4
f 3749/7/5 3750/7/5 3751/7/5 3752/7/5
f 3753/7/6 3754/7/6 3755/7/6 3756/7/6
f 3757/7/3 3758/7/3 3759/7/3 3760/7/3
f 3761/7/4 3762/7/4 3763/7/4 3764/7/4
f 3765/7/5 3766/7/5 3767/7/5 3768/7/5
f 3769/7/6 3770/7/6 3771/7/6 3772/7/6
f 3773/7/3 3774/7/3 3775/7/3 3776/7/3
f 3777/7/4 3778/7/4 3779/7/4 3780/7/4
f 3781/7/5 3782/7/5 3783/7/5 3784/7/5
f 3785/7/6 3786/7/6 3787/7/6 3788/7/6
f 3789/7/3 3790/7/3 3791/7/3 3792/7/3
f 3793/7/4 3794/7/4 3795/7/4 3796/7/4
f 3797/7/5 3798/7/5 3799/7/5 3800/7/5
f 3801/7/6 3802/7/6 3803/7/6 3804/7/6
f 3805/7/3 3806/7/3 3807/7/3 3808/7/3
f 3809/7/4 3810/7/4 3811/7/4 3812/7/4
f 3813/7/5 3814/7/5 3815/7/5 3816/7/5
f 3817/7/6 3818/7/6 3819/7/6 3820/7/6
f 3821/7/3 3822/7/3 3823/7/3 3824/7/3
f 3825/7/4 3826/7/4 3827/7/4 3828/7/4
f 3829/7/5 3830/7/5 3831/7/5 3832/7/5
f 3833/7/6 3834/7/6 3835/7/6 3836/7/6
f 3837/7/3 3838/7/3 3839/7/3 3840/7/3
f 3841/7/4 3842/7/4 3843/7/4 3844/7/4
f 3845/7/5 3846/7/5 3847/7/5 3848/7/5
f 3849/7/6 3850/7/6 3851/7/6 3852/7/6
f 3853/7/3 3854/7/3 3855/7/3 3856/7/3
f 3857/7/4 3858/7/4 3859/7/4 3860/7/4
f 3861/7/5 3862/7/5 3863/7/5 3864/7/5
f 3865/7/6 3866/7/6 3867/7/6 3868/7/6
f 3869/4/3 3870/4/3 3871/4/3 3872/4/3
f 3873/4/4 3874/4/4 3875/4/4 3876/4/4
f 3877/4/5 3878/4/5 3879/4/5 3880/4/5
f 3881/4/6 3882/4/6 3883/4/6 3884/4/6
f 3885/5/2 3886/5/2 3887/5/2 3888/5/2
f 3889/5/3 3890/5/3 3891/5/3 3892/5/3
f 3893/5/4 3894/5/4 3895/5/4 3896/5/4
f 3897/5/5 3898/5/5 3899/5/5 3900/5/5
f 3901/5/6 3902/5/6 3903/5/6 3904/5/6

