# generated by vox_to_obj_exporter
# scale=0.1 center=false ground=false y_up=true

mtllib Fight_107.mtl
usemtl palette

# normals
vn -1 0 0
vn 1 0 0
vn 0 1 0
vn 0 -1 0
vn 0 0 1
vn 0 0 -1

# texcoords
vt 0.228515625 0.5
vt 0.181640625 0.5
vt 0.216796875 0.5
vt 0.185546875 0.5
vt 0.220703125 0.5
vt 0.205078125 0.5
vt 0.134765625 0.5
vt 0.224609375 0.5
vt 0.126953125 0.5
vt 0.177734375 0.5
vt 0.212890625 0.5

# verts
v 11.7 6.8 -2.6
v 11.7 6.7 -2.6
v 11.7 6.7 -2.5
v 11.7 6.8 -2.5
v 11.8 6.8 -2.5
v 11.8 6.7 -2.5
v 11.8 6.7 -2.6
v 11.8 6.8 -2.6
v 11.7 6.8 -2.6
v 11.7 6.8 -2.5
v 11.8 6.8 -2.5
v 11.8 6.8 -2.6
v 11.7 6.8 -2.5
v 11.7 6.7 -2.5
v 11.8 6.7 -2.5
v 11.8 6.8 -2.5
v 11.8 6.8 -2.6
v 11.8 6.7 -2.6
v 11.7 6.7 -2.6
v 11.7 6.8 -2.6
v 11.7 6.7 -2.6
v 11.7 6.6 -2.6
v 11.7 6.6 -2.5
v 11.7 6.7 -2.5
v 11.8 6.7 -2.5
v 11.8 6.6 -2.5
v 11.8 6.6 -2.6
v 11.8 6.7 -2.6
v 11.7 6.7 -2.5
v 11.7 6.6 -2.5
v 11.8 6.6 -2.5
v 11.8 6.7 -2.5
v 11.8 6.7 -2.6
v 11.8 6.6 -2.6
v 11.7 6.6 -2.6
v 11.7 6.7 -2.6
v 11.7 6.6 -2.6
v 11.7 6.5 -2.6
v 11.7 6.5 -2.5
v 11.7 6.6 -2.5
v 11.8 6.6 -2.5
v 11.8 6.5 -2.5
v 11.8 6.5 -2.6
v 11.8 6.6 -2.6
v 11.7 6.5 -2.5
v 11.7 6.5 -2.6
v 11.8 6.5 -2.6
v 11.8 6.5 -2.5
v 11.7 6.6 -2.5
v 11.7 6.5 -2.5
v 11.8 6.5 -2.5
v 11.8 6.6 -2.5
v 11.8 6.6 -2.6
v 11.8 6.5 -2.6
v 11.7 6.5 -2.6
v 11.7 6.6 -2.6
v 11.8 6.5 -2.6
v 11.8 6.4 -2.6
v 11.8 6.4 -2.5
v 11.8 6.5 -2.5
v 11.9 6.5 -2.5
v 11.9 6.4 -2.5
v 11.9 6.4 -2.6
v 11.9 6.5 -2.6
v 11.8 6.5 -2.6
v 11.8 6.5 -2.5
v 11.9 6.5 -2.5
v 11.9 6.5 -2.6
v 11.8 6.5 -2.5
v 11.8 6.4 -2.5
v 11.9 6.4 -2.5
v 11.9 6.5 -2.5
v 11.9 6.5 -2.6
v 11.9 6.4 -2.6
v 11.8 6.4 -2.6
v 11.8 6.5 -2.6
v 11.8 6.4 -2.6
v 11.8 6.3 -2.6
v 11.8 6.3 -2.5
v 11.8 6.4 -2.5
v 11.8 6.4 -2.5
v 11.8 6.3 -2.5
v 11.9 6.3 -2.5
v 11.9 6.4 -2.5
v 11.9 6.4 -2.6
v 11.9 6.3 -2.6
v 11.8 6.3 -2.6
v 11.8 6.4 -2.6
v 12 6.4 -2.5
v 12 6.3 -2.5
v 12 6.3 -2.6
v 12 6.4 -2.6
v 11.9 6.4 -2.6
v 11.9 6.4 -2.5
v 12 6.4 -2.5
v 12 6.4 -2.6
v 11.9 6.4 -2.5
v 11.9 6.3 -2.5
v 12 6.3 -2.5
v 12 6.4 -2.5
v 12 6.4 -2.6
v 12 6.3 -2.6
v 11.9 6.3 -2.6
v 11.9 6.4 -2.6
v 11.8 6.3 -2.6
v 11.8 6.2 -2.6
v 11.8 6.2 -2.5
v 11.8 6.3 -2.5
v 11.8 6.2 -2.5
v 11.8 6.2 -2.6
v 11.9 6.2 -2.6
v 11.9 6.2 -2.5
v 11.8 6.3 -2.5
v 11.8 6.2 -2.5
v 11.9 6.2 -2.5
v 11.9 6.3 -2.5
v 11.9 6.3 -2.6
v 11.9 6.2 -2.6
v 11.8 6.2 -2.6
v 11.8 6.3 -2.6
v 11.9 6.3 -2.5
v 11.9 6.2 -2.5
v 12 6.2 -2.5
v 12 6.3 -2.5
v 12 6.3 -2.6
v 12 6.2 -2.6
v 11.9 6.2 -2.6
v 11.9 6.3 -2.6
v 12 6.3 -2.6
v 12 6.3 -2.5
v 12.1 6.3 -2.5
v 12.1 6.3 -2.6
v 12 6.3 -2.5
v 12 6.2 -2.5
v 12.1 6.2 -2.5
v 12.1 6.3 -2.5
v 12.1 6.3 -2.6
v 12.1 6.2 -2.6
v 12 6.2 -2.6
v 12 6.3 -2.6
v 12.1 6.3 -2.6
v 12.1 6.3 -2.5
v 12.2 6.3 -2.5
v 12.2 6.3 -2.6
v 12.1 6.3 -2.5
v 12.1 6.2 -2.5
v 12.2 6.2 -2.5
v 12.2 6.3 -2.5
v 12.2 6.3 -2.6
v 12.2 6.2 -2.6
v 12.1 6.2 -2.6
v 12.1 6.3 -2.6
v 12.3 6.3 -2.5
v 12.3 6.2 -2.5
v 12.3 6.2 -2.6
v 12.3 6.3 -2.6
v 12.2 6.3 -2.6
v 12.2 6.3 -2.5
v 12.3 6.3 -2.5
v 12.3 6.3 -2.6
v 12.2 6.2 -2.5
v 12.2 6.2 -2.6
v 12.3 6.2 -2.6
v 12.3 6.2 -2.5
v 12.2 6.3 -2.5
v 12.2 6.2 -2.5
v 12.3 6.2 -2.5
v 12.3 6.3 -2.5
v 12.3 6.3 -2.6
v 12.3 6.2 -2.6
v 12.2 6.2 -2.6
v 12.2 6.3 -2.6
v 11.9 6.2 -2.6
v 11.9 6.1 -2.6
v 11.9 6.1 -2.5
v 11.9 6.2 -2.5
v 11.9 6.1 -2.5
v 11.9 6.1 -2.6
v 12 6.1 -2.6
v 12 6.1 -2.5
v 11.9 6.2 -2.5
v 11.9 6.1 -2.5
v 12 6.1 -2.5
v 12 6.2 -2.5
v 12 6.2 -2.6
v 12 6.1 -2.6
v 11.9 6.1 -2.6
v 11.9 6.2 -2.6
v 12 6.2 -2.5
v 12 6.1 -2.5
v 12.1 6.1 -2.5
v 12.1 6.2 -2.5
v 12.1 6.2 -2.6
v 12.1 6.1 -2.6
v 12 6.1 -2.6
v 12 6.2 -2.6
v 12.2 6.2 -2.5
v 12.2 6.1 -2.5
v 12.2 6.1 -2.6
v 12.2 6.2 -2.6
v 12.1 6.1 -2.5
v 12.1 6.1 -2.6
v 12.2 6.1 -2.6
v 12.2 6.1 -2.5
v 12.1 6.2 -2.5
v 12.1 6.1 -2.5
v 12.2 6.1 -2.5
v 12.2 6.2 -2.5
v 12.2 6.2 -2.6
v 12.2 6.1 -2.6
v 12.1 6.1 -2.6
v 12.1 6.2 -2.6
v 12.3 6.2 -2.6
v 12.3 6.1 -2.6
v 12.3 6.1 -2.5
v 12.3 6.2 -2.5
v 12.3 6.2 -2.6
v 12.3 6.2 -2.5
v 12.4 6.2 -2.5
v 12.4 6.2 -2.6
v 12.3 6.1 -2.5
v 12.3 6.1 -2.6
v 12.4 6.1 -2.6
v 12.4 6.1 -2.5
v 12.3 6.2 -2.5
v 12.3 6.1 -2.5
v 12.4 6.1 -2.5
v 12.4 6.2 -2.5
v 12.4 6.2 -2.6
v 12.4 6.1 -2.6
v 12.3 6.1 -2.6
v 12.3 6.2 -2.6
v 12.5 6.2 -2.5
v 12.5 6.1 -2.5
v 12.5 6.1 -2.6
v 12.5 6.2 -2.6
v 12.4 6.2 -2.6
v 12.4 6.2 -2.5
v 12.5 6.2 -2.5
v 12.5 6.2 -2.6
v 12.4 6.2 -2.5
v 12.4 6.1 -2.5
v 12.5 6.1 -2.5
v 12.5 6.2 -2.5
v 12.5 6.2 -2.6
v 12.5 6.1 -2.6
v 12.4 6.1 -2.6
v 12.4 6.2 -2.6
v 12 6.1 -2.6
v 12 6 -2.6
v 12 6 -2.5
v 12 6.1 -2.5
v 12.1 6.1 -2.5
v 12.1 6 -2.5
v 12.1 6 -2.6
v 12.1 6.1 -2.6
v 12 6.1 -2.5
v 12 6 -2.5
v 12.1 6 -2.5
v 12.1 6.1 -2.5
v 12.1 6.1 -2.6
v 12.1 6 -2.6
v 12 6 -2.6
v 12 6.1 -2.6
v 12.2 6.1 -2.6
v 12.2 6 -2.6
v 12.2 6 -2.5
v 12.2 6.1 -2.5
v 12.3 6.1 -2.5
v 12.3 6 -2.5
v 12.3 6 -2.6
v 12.3 6.1 -2.6
v 12.2 6.1 -2.6
v 12.2 6.1 -2.5
v 12.3 6.1 -2.5
v 12.3 6.1 -2.6
v 12.2 6.1 -2.5
v 12.2 6 -2.5
v 12.3 6 -2.5
v 12.3 6.1 -2.5
v 12.3 6.1 -2.6
v 12.3 6 -2.6
v 12.2 6 -2.6
v 12.2 6.1 -2.6
v 12.4 6.1 -2.6
v 12.4 6 -2.6
v 12.4 6 -2.5
v 12.4 6.1 -2.5
v 12.4 6.1 -2.5
v 12.4 6 -2.5
v 12.5 6 -2.5
v 12.5 6.1 -2.5
v 12.5 6.1 -2.6
v 12.5 6 -2.6
v 12.4 6 -2.6
v 12.4 6.1 -2.6
v 12.5 6.1 -2.6
v 12.5 6.1 -2.5
v 12.6 6.1 -2.5
v 12.6 6.1 -2.6
v 12.5 6 -2.5
v 12.5 6 -2.6
v 12.6 6 -2.6
v 12.6 6 -2.5
v 12.5 6.1 -2.5
v 12.5 6 -2.5
v 12.6 6 -2.5
v 12.6 6.1 -2.5
v 12.6 6.1 -2.6
v 12.6 6 -2.6
v 12.5 6 -2.6
v 12.5 6.1 -2.6
v 12.6 6.1 -2.6
v 12.6 6.1 -2.5
v 12.7 6.1 -2.5
v 12.7 6.1 -2.6
v 12.6 6.1 -2.5
v 12.6 6 -2.5
v 12.7 6 -2.5
v 12.7 6.1 -2.5
v 12.7 6.1 -2.6
v 12.7 6 -2.6
v 12.6 6 -2.6
v 12.6 6.1 -2.6
v 12.8 6.1 -2.5
v 12.8 6 -2.5
v 12.8 6 -2.6
v 12.8 6.1 -2.6
v 12.7 6.1 -2.6
v 12.7 6.1 -2.5
v 12.8 6.1 -2.5
v 12.8 6.1 -2.6
v 12.7 6.1 -2.5
v 12.7 6 -2.5
v 12.8 6 -2.5
v 12.8 6.1 -2.5
v 12.8 6.1 -2.6
v 12.8 6 -2.6
v 12.7 6 -2.6
v 12.7 6.1 -2.6
v 12 6 -2.6
v 12 5.9 -2.6
v 12 5.9 -2.5
v 12 6 -2.5
v 12 5.9 -2.5
v 12 5.9 -2.6
v 12.1 5.9 -2.6
v 12.1 5.9 -2.5
v 12 6 -2.5
v 12 5.9 -2.5
v 12.1 5.9 -2.5
v 12.1 6 -2.5
v 12.1 6 -2.6
v 12.1 5.9 -2.6
v 12 5.9 -2.6
v 12 6 -2.6
v 12.1 6 -2.6
v 12.1 6 -2.5
v 12.2 6 -2.5
v 12.2 6 -2.6
v 12.1 6 -2.5
v 12.1 5.9 -2.5
v 12.2 5.9 -2.5
v 12.2 6 -2.5
v 12.2 6 -2.6
v 12.2 5.9 -2.6
v 12.1 5.9 -2.6
v 12.1 6 -2.6
v 12.2 5.9 -2.5
v 12.2 5.9 -2.6
v 12.3 5.9 -2.6
v 12.3 5.9 -2.5
v 12.2 6 -2.5
v 12.2 5.9 -2.5
v 12.3 5.9 -2.5
v 12.3 6 -2.5
v 12.3 6 -2.6
v 12.3 5.9 -2.6
v 12.2 5.9 -2.6
v 12.2 6 -2.6
v 12.3 6 -2.6
v 12.3 6 -2.5
v 12.4 6 -2.5
v 12.4 6 -2.6
v 12.3 6 -2.5
v 12.3 5.9 -2.5
v 12.4 5.9 -2.5
v 12.4 6 -2.5
v 12.4 6 -2.6
v 12.4 5.9 -2.6
v 12.3 5.9 -2.6
v 12.3 6 -2.6
v 12.5 6 -2.5
v 12.5 5.9 -2.5
v 12.5 5.9 -2.6
v 12.5 6 -2.6
v 12.4 6 -2.5
v 12.4 5.9 -2.5
v 12.5 5.9 -2.5
v 12.5 6 -2.5
v 12.5 6 -2.6
v 12.5 5.9 -2.6
v 12.4 5.9 -2.6
v 12.4 6 -2.6
v 12.6 6 -2.6
v 12.6 5.9 -2.6
v 12.6 5.9 -2.5
v 12.6 6 -2.5
v 12.6 6 -2.5
v 12.6 5.9 -2.5
v 12.7 5.9 -2.5
v 12.7 6 -2.5
v 12.7 6 -2.6
v 12.7 5.9 -2.6
v 12.6 5.9 -2.6
v 12.6 6 -2.6
v 12.7 6 -2.5
v 12.7 5.9 -2.5
v 12.8 5.9 -2.5
v 12.8 6 -2.5
v 12.8 6 -2.6
v 12.8 5.9 -2.6
v 12.7 5.9 -2.6
v 12.7 6 -2.6
v 12.8 6 -2.6
v 12.8 6 -2.5
v 12.9 6 -2.5
v 12.9 6 -2.6
v 12.8 5.9 -2.5
v 12.8 5.9 -2.6
v 12.9 5.9 -2.6
v 12.9 5.9 -2.5
v 12.8 6 -2.5
v 12.8 5.9 -2.5
v 12.9 5.9 -2.5
v 12.9 6 -2.5
v 12.9 6 -2.6
v 12.9 5.9 -2.6
v 12.8 5.9 -2.6
v 12.8 6 -2.6
v 12.9 6 -2.6
v 12.9 6 -2.5
v 13 6 -2.5
v 13 6 -2.6
v 12.9 5.9 -2.5
v 12.9 5.9 -2.6
v 13 5.9 -2.6
v 13 5.9 -2.5
v 12.9 6 -2.5
v 12.9 5.9 -2.5
v 13 5.9 -2.5
v 13 6 -2.5
v 13 6 -2.6
v 13 5.9 -2.6
v 12.9 5.9 -2.6
v 12.9 6 -2.6
v 13 6 -2.6
v 13 6 -2.5
v 13.1 6 -2.5
v 13.1 6 -2.6
v 13 6 -2.5
v 13 5.9 -2.5
v 13.1 5.9 -2.5
v 13.1 6 -2.5
v 13.1 6 -2.6
v 13.1 5.9 -2.6
v 13 5.9 -2.6
v 13 6 -2.6
v 13.2 6 -2.5
v 13.2 5.9 -2.5
v 13.2 5.9 -2.6
v 13.2 6 -2.6
v 13.1 6 -2.6
v 13.1 6 -2.5
v 13.2 6 -2.5
v 13.2 6 -2.6
v 13.1 6 -2.5
v 13.1 5.9 -2.5
v 13.2 5.9 -2.5
v 13.2 6 -2.5
v 13.2 6 -2.6
v 13.2 5.9 -2.6
v 13.1 5.9 -2.6
v 13.1 6 -2.6
v 12.1 5.9 -2.6
v 12.1 5.8 -2.6
v 12.1 5.8 -2.5
v 12.1 5.9 -2.5
v 12.2 5.9 -2.5
v 12.2 5.8 -2.5
v 12.2 5.8 -2.6
v 12.2 5.9 -2.6
v 12.1 5.8 -2.5
v 12.1 5.8 -2.6
v 12.2 5.8 -2.6
v 12.2 5.8 -2.5
v 12.1 5.9 -2.5
v 12.1 5.8 -2.5
v 12.2 5.8 -2.5
v 12.2 5.9 -2.5
v 12.2 5.9 -2.6
v 12.2 5.8 -2.6
v 12.1 5.8 -2.6
v 12.1 5.9 -2.6
v 12.3 5.9 -2.6
v 12.3 5.8 -2.6
v 12.3 5.8 -2.5
v 12.3 5.9 -2.5
v 12.3 5.8 -2.5
v 12.3 5.8 -2.6
v 12.4 5.8 -2.6
v 12.4 5.8 -2.5
v 12.3 5.9 -2.5
v 12.3 5.8 -2.5
v 12.4 5.8 -2.5
v 12.4 5.9 -2.5
v 12.4 5.9 -2.6
v 12.4 5.8 -2.6
v 12.3 5.8 -2.6
v 12.3 5.9 -2.6
v 12.4 5.9 -2.5
v 12.4 5.8 -2.5
v 12.5 5.8 -2.5
v 12.5 5.9 -2.5
v 12.5 5.9 -2.6
v 12.5 5.8 -2.6
v 12.4 5.8 -2.6
v 12.4 5.9 -2.6
v 12.5 5.9 -2.6
v 12.5 5.9 -2.5
v 12.6 5.9 -2.5
v 12.6 5.9 -2.6
v 12.5 5.9 -2.5
v 12.5 5.8 -2.5
v 12.6 5.8 -2.5
v 12.6 5.9 -2.5
v 12.6 5.9 -2.6
v 12.6 5.8 -2.6
v 12.5 5.8 -2.6
v 12.5 5.9 -2.6
v 12.6 5.9 -2.5
v 12.6 5.8 -2.5
v 12.7 5.8 -2.5
v 12.7 5.9 -2.5
v 12.7 5.9 -2.6
v 12.7 5.8 -2.6
v 12.6 5.8 -2.6
v 12.6 5.9 -2.6
v 12.8 5.9 -2.5
v 12.8 5.8 -2.5
v 12.8 5.8 -2.6
v 12.8 5.9 -2.6
v 12.7 5.9 -2.5
v 12.7 5.8 -2.5
v 12.8 5.8 -2.5
v 12.8 5.9 -2.5
v 12.8 5.9 -2.6
v 12.8 5.8 -2.6
v 12.7 5.8 -2.6
v 12.7 5.9 -2.6
v 13 5.9 -2.6
v 13 5.8 -2.6
v 13 5.8 -2.5
v 13 5.9 -2.5
v 13 5.9 -2.5
v 13 5.8 -2.5
v 13.1 5.8 -2.5
v 13.1 5.9 -2.5
v 13.1 5.9 -2.6
v 13.1 5.8 -2.6
v 13 5.8 -2.6
v 13 5.9 -2.6
v 13.1 5.9 -2.5
v 13.1 5.8 -2.5
v 13.2 5.8 -2.5
v 13.2 5.9 -2.5
v 13.2 5.9 -2.6
v 13.2 5.8 -2.6
v 13.1 5.8 -2.6
v 13.1 5.9 -2.6
v 13.2 5.9 -2.6
v 13.2 5.9 -2.5
v 13.3 5.9 -2.5
v 13.3 5.9 -2.6
v 13.2 5.8 -2.5
v 13.2 5.8 -2.6
v 13.3 5.8 -2.6
v 13.3 5.8 -2.5
v 13.2 5.9 -2.5
v 13.2 5.8 -2.5
v 13.3 5.8 -2.5
v 13.3 5.9 -2.5
v 13.3 5.9 -2.6
v 13.3 5.8 -2.6
v 13.2 5.8 -2.6
v 13.2 5.9 -2.6
v 13.3 5.9 -2.6
v 13.3 5.9 -2.5
v 13.4 5.9 -2.5
v 13.4 5.9 -2.6
v 13.3 5.8 -2.5
v 13.3 5.8 -2.6
v 13.4 5.8 -2.6
v 13.4 5.8 -2.5
v 13.3 5.9 -2.5
v 13.3 5.8 -2.5
v 13.4 5.8 -2.5
v 13.4 5.9 -2.5
v 13.4 5.9 -2.6
v 13.4 5.8 -2.6
v 13.3 5.8 -2.6
v 13.3 5.9 -2.6
v 13.4 5.9 -2.6
v 13.4 5.9 -2.5
v 13.5 5.9 -2.5
v 13.5 5.9 -2.6
v 13.4 5.9 -2.5
v 13.4 5.8 -2.5
v 13.5 5.8 -2.5
v 13.5 5.9 -2.5
v 13.5 5.9 -2.6
v 13.5 5.8 -2.6
v 13.4 5.8 -2.6
v 13.4 5.9 -2.6
v 13.6 5.9 -2.5
v 13.6 5.8 -2.5
v 13.6 5.8 -2.6
v 13.6 5.9 -2.6
v 13.5 5.9 -2.6
v 13.5 5.9 -2.5
v 13.6 5.9 -2.5
v 13.6 5.9 -2.6
v 13.5 5.9 -2.5
v 13.5 5.8 -2.5
v 13.6 5.8 -2.5
v 13.6 5.9 -2.5
v 13.6 5.9 -2.6
v 13.6 5.8 -2.6
v 13.5 5.8 -2.6
v 13.5 5.9 -2.6
v 12.2 5.8 -2.6
v 12.2 5.7 -2.6
v 12.2 5.7 -2.5
v 12.2 5.8 -2.5
v 12.3 5.8 -2.5
v 12.3 5.7 -2.5
v 12.3 5.7 -2.6
v 12.3 5.8 -2.6
v 12.2 5.8 -2.6
v 12.2 5.8 -2.5
v 12.3 5.8 -2.5
v 12.3 5.8 -2.6
v 12.2 5.7 -2.5
v 12.2 5.7 -2.6
v 12.3 5.7 -2.6
v 12.3 5.7 -2.5
v 12.2 5.8 -2.5
v 12.2 5.7 -2.5
v 12.3 5.7 -2.5
v 12.3 5.8 -2.5
v 12.3 5.8 -2.6
v 12.3 5.7 -2.6
v 12.2 5.7 -2.6
v 12.2 5.8 -2.6
v 12.4 5.8 -2.6
v 12.4 5.7 -2.6
v 12.4 5.7 -2.5
v 12.4 5.8 -2.5
v 12.4 5.7 -2.5
v 12.4 5.7 -2.6
v 12.5 5.7 -2.6
v 12.5 5.7 -2.5
v 12.4 5.8 -2.5
v 12.4 5.7 -2.5
v 12.5 5.7 -2.5
v 12.5 5.8 -2.5
v 12.5 5.8 -2.6
v 12.5 5.7 -2.6
v 12.4 5.7 -2.6
v 12.4 5.8 -2.6
v 12.5 5.8 -2.5
v 12.5 5.7 -2.5
v 12.6 5.7 -2.5
v 12.6 5.8 -2.5
v 12.6 5.8 -2.6
v 12.6 5.7 -2.6
v 12.5 5.7 -2.6
v 12.5 5.8 -2.6
v 12.6 5.8 -2.5
v 12.6 5.7 -2.5
v 12.7 5.7 -2.5
v 12.7 5.8 -2.5
v 12.7 5.8 -2.6
v 12.7 5.7 -2.6
v 12.6 5.7 -2.6
v 12.6 5.8 -2.6
v 12.7 5.8 -2.5
v 12.7 5.7 -2.5
v 12.8 5.7 -2.5
v 12.8 5.8 -2.5
v 12.8 5.8 -2.6
v 12.8 5.7 -2.6
v 12.7 5.7 -2.6
v 12.7 5.8 -2.6
v 12.8 5.8 -2.6
v 12.8 5.8 -2.5
v 12.9 5.8 -2.5
v 12.9 5.8 -2.6
v 12.8 5.8 -2.5
v 12.8 5.7 -2.5
v 12.9 5.7 -2.5
v 12.9 5.8 -2.5
v 12.9 5.8 -2.6
v 12.9 5.7 -2.6
v 12.8 5.7 -2.6
v 12.8 5.8 -2.6
v 12.9 5.8 -2.6
v 12.9 5.8 -2.5
v 13 5.8 -2.5
v 13 5.8 -2.6
v 12.9 5.8 -2.5
v 12.9 5.7 -2.5
v 13 5.7 -2.5
v 13 5.8 -2.5
v 13 5.8 -2.6
v 13 5.7 -2.6
v 12.9 5.7 -2.6
v 12.9 5.8 -2.6
v 13 5.8 -2.5
v 13 5.7 -2.5
v 13.1 5.7 -2.5
v 13.1 5.8 -2.5
v 13.1 5.8 -2.6
v 13.1 5.7 -2.6
v 13 5.7 -2.6
v 13 5.8 -2.6
v 13.2 5.8 -2.5
v 13.2 5.7 -2.5
v 13.2 5.7 -2.6
v 13.2 5.8 -2.6
v 13.1 5.8 -2.5
v 13.1 5.7 -2.5
v 13.2 5.7 -2.5
v 13.2 5.8 -2.5
v 13.2 5.8 -2.6
v 13.2 5.7 -2.6
v 13.1 5.7 -2.6
v 13.1 5.8 -2.6
v 13.4 5.8 -2.6
v 13.4 5.7 -2.6
v 13.4 5.7 -2.5
v 13.4 5.8 -2.5
v 13.4 5.8 -2.5
v 13.4 5.7 -2.5
v 13.5 5.7 -2.5
v 13.5 5.8 -2.5
v 13.5 5.8 -2.6
v 13.5 5.7 -2.6
v 13.4 5.7 -2.6
v 13.4 5.8 -2.6
v 13.5 5.8 -2.5
v 13.5 5.7 -2.5
v 13.6 5.7 -2.5
v 13.6 5.8 -2.5
v 13.6 5.8 -2.6
v 13.6 5.7 -2.6
v 13.5 5.7 -2.6
v 13.5 5.8 -2.6
v 13.6 5.8 -2.6
v 13.6 5.8 -2.5
v 13.7 5.8 -2.5
v 13.7 5.8 -2.6
v 13.6 5.7 -2.5
v 13.6 5.7 -2.6
v 13.7 5.7 -2.6
v 13.7 5.7 -2.5
v 13.6 5.8 -2.5
v 13.6 5.7 -2.5
v 13.7 5.7 -2.5
v 13.7 5.8 -2.5
v 13.7 5.8 -2.6
v 13.7 5.7 -2.6
v 13.6 5.7 -2.6
v 13.6 5.8 -2.6
v 13.7 5.8 -2.6
v 13.7 5.8 -2.5
v 13.8 5.8 -2.5
v 13.8 5.8 -2.6
v 13.7 5.7 -2.5
v 13.7 5.7 -2.6
v 13.8 5.7 -2.6
v 13.8 5.7 -2.5
v 13.7 5.8 -2.5
v 13.7 5.7 -2.5
v 13.8 5.7 -2.5
v 13.8 5.8 -2.5
v 13.8 5.8 -2.6
v 13.8 5.7 -2.6
v 13.7 5.7 -2.6
v 13.7 5.8 -2.6
v 13.8 5.8 -2.6
v 13.8 5.8 -2.5
v 13.9 5.8 -2.5
v 13.9 5.8 -2.6
v 13.8 5.7 -2.5
v 13.8 5.7 -2.6
v 13.9 5.7 -2.6
v 13.9 5.7 -2.5
v 13.8 5.8 -2.5
v 13.8 5.7 -2.5
v 13.9 5.7 -2.5
v 13.9 5.8 -2.5
v 13.9 5.8 -2.6
v 13.9 5.7 -2.6
v 13.8 5.7 -2.6
v 13.8 5.8 -2.6
v 13.9 5.8 -2.6
v 13.9 5.8 -2.5
v 14 5.8 -2.5
v 14 5.8 -2.6
v 13.9 5.8 -2.5
v 13.9 5.7 -2.5
v 14 5.7 -2.5
v 14 5.8 -2.5
v 14 5.8 -2.6
v 14 5.7 -2.6
v 13.9 5.7 -2.6
v 13.9 5.8 -2.6
v 14.1 5.8 -2.5
v 14.1 5.7 -2.5
v 14.1 5.7 -2.6
v 14.1 5.8 -2.6
v 14 5.8 -2.6
v 14 5.8 -2.5
v 14.1 5.8 -2.5
v 14.1 5.8 -2.6
v 14 5.8 -2.5
v 14 5.7 -2.5
v 14.1 5.7 -2.5
v 14.1 5.8 -2.5
v 14.1 5.8 -2.6
v 14.1 5.7 -2.6
v 14 5.7 -2.6
v 14 5.8 -2.6
v 12.3 5.7 -2.6
v 12.3 5.6 -2.6
v 12.3 5.6 -2.5
v 12.3 5.7 -2.5
v 12.4 5.7 -2.5
v 12.4 5.6 -2.5
v 12.4 5.6 -2.6
v 12.4 5.7 -2.6
v 12.3 5.7 -2.6
v 12.3 5.7 -2.5
v 12.4 5.7 -2.5
v 12.4 5.7 -2.6
v 12.3 5.6 -2.5
v 12.3 5.6 -2.6
v 12.4 5.6 -2.6
v 12.4 5.6 -2.5
v 12.3 5.7 -2.5
v 12.3 5.6 -2.5
v 12.4 5.6 -2.5
v 12.4 5.7 -2.5
v 12.4 5.7 -2.6
v 12.4 5.6 -2.6
v 12.3 5.6 -2.6
v 12.3 5.7 -2.6
v 12.5 5.7 -2.6
v 12.5 5.6 -2.6
v 12.5 5.6 -2.5
v 12.5 5.7 -2.5
v 12.5 5.6 -2.5
v 12.5 5.6 -2.6
v 12.6 5.6 -2.6
v 12.6 5.6 -2.5
v 12.5 5.7 -2.5
v 12.5 5.6 -2.5
v 12.6 5.6 -2.5
v 12.6 5.7 -2.5
v 12.6 5.7 -2.6
v 12.6 5.6 -2.6
v 12.5 5.6 -2.6
v 12.5 5.7 -2.6
v 12.6 5.7 -2.5
v 12.6 5.6 -2.5
v 12.7 5.6 -2.5
v 12.7 5.7 -2.5
v 12.7 5.7 -2.6
v 12.7 5.6 -2.6
v 12.6 5.6 -2.6
v 12.6 5.7 -2.6
v 12.7 5.7 -2.5
v 12.7 5.6 -2.5
v 12.8 5.6 -2.5
v 12.8 5.7 -2.5
v 12.8 5.7 -2.6
v 12.8 5.6 -2.6
v 12.7 5.6 -2.6
v 12.7 5.7 -2.6
v 12.8 5.7 -2.5
v 12.8 5.6 -2.5
v 12.9 5.6 -2.5
v 12.9 5.7 -2.5
v 12.9 5.7 -2.6
v 12.9 5.6 -2.6
v 12.8 5.6 -2.6
v 12.8 5.7 -2.6
v 12.9 5.7 -2.5
v 12.9 5.6 -2.5
v 13 5.6 -2.5
v 13 5.7 -2.5
v 13 5.7 -2.6
v 13 5.6 -2.6
v 12.9 5.6 -2.6
v 12.9 5.7 -2.6
v 13 5.7 -2.5
v 13 5.6 -2.5
v 13.1 5.6 -2.5
v 13.1 5.7 -2.5
v 13.1 5.7 -2.6
v 13.1 5.6 -2.6
v 13 5.6 -2.6
v 13 5.7 -2.6
v 13.1 5.7 -2.5
v 13.1 5.6 -2.5
v 13.2 5.6 -2.5
v 13.2 5.7 -2.5
v 13.2 5.7 -2.6
v 13.2 5.6 -2.6
v 13.1 5.6 -2.6
v 13.1 5.7 -2.6
v 13.2 5.7 -2.6
v 13.2 5.7 -2.5
v 13.3 5.7 -2.5
v 13.3 5.7 -2.6
v 13.2 5.7 -2.5
v 13.2 5.6 -2.5
v 13.3 5.6 -2.5
v 13.3 5.7 -2.5
v 13.3 5.7 -2.6
v 13.3 5.6 -2.6
v 13.2 5.6 -2.6
v 13.2 5.7 -2.6
v 13.3 5.7 -2.6
v 13.3 5.7 -2.5
v 13.4 5.7 -2.5
v 13.4 5.7 -2.6
v 13.3 5.7 -2.5
v 13.3 5.6 -2.5
v 13.4 5.6 -2.5
v 13.4 5.7 -2.5
v 13.4 5.7 -2.6
v 13.4 5.6 -2.6
v 13.3 5.6 -2.6
v 13.3 5.7 -2.6
v 13.4 5.7 -2.5
v 13.4 5.6 -2.5
v 13.5 5.6 -2.5
v 13.5 5.7 -2.5
v 13.5 5.7 -2.6
v 13.5 5.6 -2.6
v 13.4 5.6 -2.6
v 13.4 5.7 -2.6
v 13.6 5.7 -2.5
v 13.6 5.6 -2.5
v 13.6 5.6 -2.6
v 13.6 5.7 -2.6
v 13.5 5.7 -2.5
v 13.5 5.6 -2.5
v 13.6 5.6 -2.5
v 13.6 5.7 -2.5
v 13.6 5.7 -2.6
v 13.6 5.6 -2.6
v 13.5 5.6 -2.6
v 13.5 5.7 -2.6
v 13.9 5.7 -2.6
v 13.9 5.6 -2.6
v 13.9 5.6 -2.5
v 13.9 5.7 -2.5
v 13.9 5.7 -2.5
v 13.9 5.6 -2.5
v 14 5.6 -2.5
v 14 5.7 -2.5
v 14 5.7 -2.6
v 14 5.6 -2.6
v 13.9 5.6 -2.6
v 13.9 5.7 -2.6
v 14 5.7 -2.5
v 14 5.6 -2.5
v 14.1 5.6 -2.5
v 14.1 5.7 -2.5
v 14.1 5.7 -2.6
v 14.1 5.6 -2.6
v 14 5.6 -2.6
v 14 5.7 -2.6
v 14.1 5.7 -2.6
v 14.1 5.7 -2.5
v 14.2 5.7 -2.5
v 14.2 5.7 -2.6
v 14.1 5.6 -2.5
v 14.1 5.6 -2.6
v 14.2 5.6 -2.6
v 14.2 5.6 -2.5
v 14.1 5.7 -2.5
v 14.1 5.6 -2.5
v 14.2 5.6 -2.5
v 14.2 5.7 -2.5
v 14.2 5.7 -2.6
v 14.2 5.6 -2.6
v 14.1 5.6 -2.6
v 14.1 5.7 -2.6
v 14.2 5.7 -2.6
v 14.2 5.7 -2.5
v 14.3 5.7 -2.5
v 14.3 5.7 -2.6
v 14.2 5.6 -2.5
v 14.2 5.6 -2.6
v 14.3 5.6 -2.6
v 14.3 5.6 -2.5
v 14.2 5.7 -2.5
v 14.2 5.6 -2.5
v 14.3 5.6 -2.5
v 14.3 5.7 -2.5
v 14.3 5.7 -2.6
v 14.3 5.6 -2.6
v 14.2 5.6 -2.6
v 14.2 5.7 -2.6
v 14.3 5.7 -2.6
v 14.3 5.7 -2.5
v 14.4 5.7 -2.5
v 14.4 5.7 -2.6
v 14.3 5.6 -2.5
v 14.3 5.6 -2.6
v 14.4 5.6 -2.6
v 14.4 5.6 -2.5
v 14.3 5.7 -2.5
v 14.3 5.6 -2.5
v 14.4 5.6 -2.5
v 14.4 5.7 -2.5
v 14.4 5.7 -2.6
v 14.4 5.6 -2.6
v 14.3 5.6 -2.6
v 14.3 5.7 -2.6
v 14.4 5.7 -2.6
v 14.4 5.7 -2.5
v 14.5 5.7 -2.5
v 14.5 5.7 -2.6
v 14.4 5.6 -2.5
v 14.4 5.6 -2.6
v 14.5 5.6 -2.6
v 14.5 5.6 -2.5
v 14.4 5.7 -2.5
v 14.4 5.6 -2.5
v 14.5 5.6 -2.5
v 14.5 5.7 -2.5
v 14.5 5.7 -2.6
v 14.5 5.6 -2.6
v 14.4 5.6 -2.6
v 14.4 5.7 -2.6
v 14.5 5.7 -2.6
v 14.5 5.7 -2.5
v 14.6 5.7 -2.5
v 14.6 5.7 -2.6
v 14.5 5.6 -2.5
v 14.5 5.6 -2.6
v 14.6 5.6 -2.6
v 14.6 5.6 -2.5
v 14.5 5.7 -2.5
v 14.5 5.6 -2.5
v 14.6 5.6 -2.5
v 14.6 5.7 -2.5
v 14.6 5.7 -2.6
v 14.6 5.6 -2.6
v 14.5 5.6 -2.6
v 14.5 5.7 -2.6
v 14.6 5.7 -2.6
v 14.6 5.7 -2.5
v 14.7 5.7 -2.5
v 14.7 5.7 -2.6
v 14.6 5.7 -2.5
v 14.6 5.6 -2.5
v 14.7 5.6 -2.5
v 14.7 5.7 -2.5
v 14.7 5.7 -2.6
v 14.7 5.6 -2.6
v 14.6 5.6 -2.6
v 14.6 5.7 -2.6
v 14.7 5.7 -2.6
v 14.7 5.7 -2.5
v 14.8 5.7 -2.5
v 14.8 5.7 -2.6
v 14.7 5.7 -2.5
v 14.7 5.6 -2.5
v 14.8 5.6 -2.5
v 14.8 5.7 -2.5
v 14.8 5.7 -2.6
v 14.8 5.6 -2.6
v 14.7 5.6 -2.6
v 14.7 5.7 -2.6
v 14.8 5.7 -2.6
v 14.8 5.7 -2.5
v 14.9 5.7 -2.5
v 14.9 5.7 -2.6
v 14.8 5.6 -2.5
v 14.8 5.6 -2.6
v 14.9 5.6 -2.6
v 14.9 5.6 -2.5
v 14.8 5.7 -2.5
v 14.8 5.6 -2.5
v 14.9 5.6 -2.5
v 14.9 5.7 -2.5
v 14.9 5.7 -2.6
v 14.9 5.6 -2.6
v 14.8 5.6 -2.6
v 14.8 5.7 -2.6
v 14.9 5.7 -2.6
v 14.9 5.7 -2.5
v 15 5.7 -2.5
v 15 5.7 -2.6
v 14.9 5.6 -2.5
v 14.9 5.6 -2.6
v 15 5.6 -2.6
v 15 5.6 -2.5
v 14.9 5.7 -2.5
v 14.9 5.6 -2.5
v 15 5.6 -2.5
v 15 5.7 -2.5
v 15 5.7 -2.6
v 15 5.6 -2.6
v 14.9 5.6 -2.6
v 14.9 5.7 -2.6
v 15 5.7 -2.6
v 15 5.7 -2.5
v 15.1 5.7 -2.5
v 15.1 5.7 -2.6
v 15 5.6 -2.5
v 15 5.6 -2.6
v 15.1 5.6 -2.6
v 15.1 5.6 -2.5
v 15 5.7 -2.5
v 15 5.6 -2.5
v 15.1 5.6 -2.5
v 15.1 5.7 -2.5
v 15.1 5.7 -2.6
v 15.1 5.6 -2.6
v 15 5.6 -2.6
v 15 5.7 -2.6
v 15.1 5.7 -2.6
v 15.1 5.7 -2.5
v 15.2 5.7 -2.5
v 15.2 5.7 -2.6
v 15.1 5.6 -2.5
v 15.1 5.6 -2.6
v 15.2 5.6 -2.6
v 15.2 5.6 -2.5
v 15.1 5.7 -2.5
v 15.1 5.6 -2.5
v 15.2 5.6 -2.5
v 15.2 5.7 -2.5
v 15.2 5.7 -2.6
v 15.2 5.6 -2.6
v 15.1 5.6 -2.6
v 15.1 5.7 -2.6
v 15.2 5.7 -2.6
v 15.2 5.7 -2.5
v 15.3 5.7 -2.5
v 15.3 5.7 -2.6
v 15.2 5.6 -2.5
v 15.2 5.6 -2.6
v 15.3 5.6 -2.6
v 15.3 5.6 -2.5
v 15.2 5.7 -2.5
v 15.2 5.6 -2.5
v 15.3 5.6 -2.5
v 15.3 5.7 -2.5
v 15.3 5.7 -2.6
v 15.3 5.6 -2.6
v 15.2 5.6 -2.6
v 15.2 5.7 -2.6
v 15.3 5.7 -2.6
v 15.3 5.7 -2.5
v 15.4 5.7 -2.5
v 15.4 5.7 -2.6
v 15.3 5.6 -2.5
v 15.3 5.6 -2.6
v 15.4 5.6 -2.6
v 15.4 5.6 -2.5
v 15.3 5.7 -2.5
v 15.3 5.6 -2.5
v 15.4 5.6 -2.5
v 15.4 5.7 -2.5
v 15.4 5.7 -2.6
v 15.4 5.6 -2.6
v 15.3 5.6 -2.6
v 15.3 5.7 -2.6
v 15.4 5.7 -2.6
v 15.4 5.7 -2.5
v 15.5 5.7 -2.5
v 15.5 5.7 -2.6
v 15.4 5.6 -2.5
v 15.4 5.6 -2.6
v 15.5 5.6 -2.6
v 15.5 5.6 -2.5
v 15.4 5.7 -2.5
v 15.4 5.6 -2.5
v 15.5 5.6 -2.5
v 15.5 5.7 -2.5
v 15.5 5.7 -2.6
v 15.5 5.6 -2.6
v 15.4 5.6 -2.6
v 15.4 5.7 -2.6
v 15.5 5.7 -2.6
v 15.5 5.7 -2.5
v 15.6 5.7 -2.5
v 15.6 5.7 -2.6
v 15.5 5.6 -2.5
v 15.5 5.6 -2.6
v 15.6 5.6 -2.6
v 15.6 5.6 -2.5
v 15.5 5.7 -2.5
v 15.5 5.6 -2.5
v 15.6 5.6 -2.5
v 15.6 5.7 -2.5
v 15.6 5.7 -2.6
v 15.6 5.6 -2.6
v 15.5 5.6 -2.6
v 15.5 5.7 -2.6
v 15.7 5.7 -2.5
v 15.7 5.6 -2.5
v 15.7 5.6 -2.6
v 15.7 5.7 -2.6
v 15.6 5.7 -2.6
v 15.6 5.7 -2.5
v 15.7 5.7 -2.5
v 15.7 5.7 -2.6
v 15.6 5.6 -2.5
v 15.6 5.6 -2.6
v 15.7 5.6 -2.6
v 15.7 5.6 -2.5
v 15.6 5.7 -2.5
v 15.6 5.6 -2.5
v 15.7 5.6 -2.5
v 15.7 5.7 -2.5
v 15.7 5.7 -2.6
v 15.7 5.6 -2.6
v 15.6 5.6 -2.6
v 15.6 5.7 -2.6
v 12.4 5.6 -2.6
v 12.4 5.5 -2.6
v 12.4 5.5 -2.5
v 12.4 5.6 -2.5
v 12.5 5.6 -2.5
v 12.5 5.5 -2.5
v 12.5 5.5 -2.6
v 12.5 5.6 -2.6
v 12.4 5.6 -2.6
v 12.4 5.6 -2.5
v 12.5 5.6 -2.5
v 12.5 5.6 -2.6
v 12.4 5.5 -2.5
v 12.4 5.5 -2.6
v 12.5 5.5 -2.6
v 12.5 5.5 -2.5
v 12.4 5.6 -2.5
v 12.4 5.5 -2.5
v 12.5 5.5 -2.5
v 12.5 5.6 -2.5
v 12.5 5.6 -2.6
v 12.5 5.5 -2.6
v 12.4 5.5 -2.6
v 12.4 5.6 -2.6
v 12.6 5.6 -2.6
v 12.6 5.5 -2.6
v 12.6 5.5 -2.5
v 12.6 5.6 -2.5
v 12.6 5.5 -2.5
v 12.6 5.5 -2.6
v 12.7 5.5 -2.6
v 12.7 5.5 -2.5
v 12.6 5.6 -2.5
v 12.6 5.5 -2.5
v 12.7 5.5 -2.5
v 12.7 5.6 -2.5
v 12.7 5.6 -2.6
v 12.7 5.5 -2.6
v 12.6 5.5 -2.6
v 12.6 5.6 -2.6
v 12.7 5.6 -2.5
v 12.7 5.5 -2.5
v 12.8 5.5 -2.5
v 12.8 5.6 -2.5
v 12.8 5.6 -2.6
v 12.8 5.5 -2.6
v 12.7 5.5 -2.6
v 12.7 5.6 -2.6
v 12.8 5.6 -2.5
v 12.8 5.5 -2.5
v 12.9 5.5 -2.5
v 12.9 5.6 -2.5
v 12.9 5.6 -2.6
v 12.9 5.5 -2.6
v 12.8 5.5 -2.6
v 12.8 5.6 -2.6
v 12.9 5.6 -2.5
v 12.9 5.5 -2.5
v 13 5.5 -2.5
v 13 5.6 -2.5
v 13 5.6 -2.6
v 13 5.5 -2.6
v 12.9 5.5 -2.6
v 12.9 5.6 -2.6
v 13 5.6 -2.5
v 13 5.5 -2.5
v 13.1 5.5 -2.5
v 13.1 5.6 -2.5
v 13.1 5.6 -2.6
v 13.1 5.5 -2.6
v 13 5.5 -2.6
v 13 5.6 -2.6
v 13.1 5.6 -2.5
v 13.1 5.5 -2.5
v 13.2 5.5 -2.5
v 13.2 5.6 -2.5
v 13.2 5.6 -2.6
v 13.2 5.5 -2.6
v 13.1 5.5 -2.6
v 13.1 5.6 -2.6
v 13.2 5.6 -2.5
v 13.2 5.5 -2.5
v 13.3 5.5 -2.5
v 13.3 5.6 -2.5
v 13.3 5.6 -2.6
v 13.3 5.5 -2.6
v 13.2 5.5 -2.6
v 13.2 5.6 -2.6
v 13.3 5.6 -2.5
v 13.3 5.5 -2.5
v 13.4 5.5 -2.5
v 13.4 5.6 -2.5
v 13.4 5.6 -2.6
v 13.4 5.5 -2.6
v 13.3 5.5 -2.6
v 13.3 5.6 -2.6
v 13.4 5.6 -2.5
v 13.4 5.5 -2.5
v 13.5 5.5 -2.5
v 13.5 5.6 -2.5
v 13.5 5.6 -2.6
v 13.5 5.5 -2.6
v 13.4 5.5 -2.6
v 13.4 5.6 -2.6
v 13.5 5.6 -2.5
v 13.5 5.5 -2.5
v 13.6 5.5 -2.5
v 13.6 5.6 -2.5
v 13.6 5.6 -2.6
v 13.6 5.5 -2.6
v 13.5 5.5 -2.6
v 13.5 5.6 -2.6
v 13.6 5.6 -2.6
v 13.6 5.6 -2.5
v 13.7 5.6 -2.5
v 13.7 5.6 -2.6
v 13.6 5.6 -2.5
v 13.6 5.5 -2.5
v 13.7 5.5 -2.5
v 13.7 5.6 -2.5
v 13.7 5.6 -2.6
v 13.7 5.5 -2.6
v 13.6 5.5 -2.6
v 13.6 5.6 -2.6
v 13.7 5.6 -2.6
v 13.7 5.6 -2.5
v 13.8 5.6 -2.5
v 13.8 5.6 -2.6
v 13.7 5.6 -2.5
v 13.7 5.5 -2.5
v 13.8 5.5 -2.5
v 13.8 5.6 -2.5
v 13.8 5.6 -2.6
v 13.8 5.5 -2.6
v 13.7 5.5 -2.6
v 13.7 5.6 -2.6
v 13.8 5.6 -2.6
v 13.8 5.6 -2.5
v 13.9 5.6 -2.5
v 13.9 5.6 -2.6
v 13.8 5.6 -2.5
v 13.8 5.5 -2.5
v 13.9 5.5 -2.5
v 13.9 5.6 -2.5
v 13.9 5.6 -2.6
v 13.9 5.5 -2.6
v 13.8 5.5 -2.6
v 13.8 5.6 -2.6
v 13.9 5.6 -2.5
v 13.9 5.5 -2.5
v 14 5.5 -2.5
v 14 5.6 -2.5
v 14 5.6 -2.6
v 14 5.5 -2.6
v 13.9 5.5 -2.6
v 13.9 5.6 -2.6
v 14.1 5.6 -2.5
v 14.1 5.5 -2.5
v 14.1 5.5 -2.6
v 14.1 5.6 -2.6
v 14 5.5 -2.5
v 14 5.5 -2.6
v 14.1 5.5 -2.6
v 14.1 5.5 -2.5
v 14 5.6 -2.5
v 14 5.5 -2.5
v 14.1 5.5 -2.5
v 14.1 5.6 -2.5
v 14.1 5.6 -2.6
v 14.1 5.5 -2.6
v 14 5.5 -2.6
v 14 5.6 -2.6
v 14.6 5.6 -2.6
v 14.6 5.5 -2.6
v 14.6 5.5 -2.5
v 14.6 5.6 -2.5
v 14.6 5.5 -2.5
v 14.6 5.5 -2.6
v 14.7 5.5 -2.6
v 14.7 5.5 -2.5
v 14.6 5.6 -2.5
v 14.6 5.5 -2.5
v 14.7 5.5 -2.5
v 14.7 5.6 -2.5
v 14.7 5.6 -2.6
v 14.7 5.5 -2.6
v 14.6 5.5 -2.6
v 14.6 5.6 -2.6
v 14.8 5.6 -2.5
v 14.8 5.5 -2.5
v 14.8 5.5 -2.6
v 14.8 5.6 -2.6
v 14.7 5.5 -2.5
v 14.7 5.5 -2.6
v 14.8 5.5 -2.6
v 14.8 5.5 -2.5
v 14.7 5.6 -2.5
v 14.7 5.5 -2.5
v 14.8 5.5 -2.5
v 14.8 5.6 -2.5
v 14.8 5.6 -2.6
v 14.8 5.5 -2.6
v 14.7 5.5 -2.6
v 14.7 5.6 -2.6
v 12.5 5.5 -2.6
v 12.5 5.4 -2.6
v 12.5 5.4 -2.5
v 12.5 5.5 -2.5
v 12.6 5.5 -2.5
v 12.6 5.4 -2.5
v 12.6 5.4 -2.6
v 12.6 5.5 -2.6
v 12.5 5.5 -2.6
v 12.5 5.5 -2.5
v 12.6 5.5 -2.5
v 12.6 5.5 -2.6
v 12.5 5.4 -2.5
v 12.5 5.4 -2.6
v 12.6 5.4 -2.6
v 12.6 5.4 -2.5
v 12.5 5.5 -2.5
v 12.5 5.4 -2.5
v 12.6 5.4 -2.5
v 12.6 5.5 -2.5
v 12.6 5.5 -2.6
v 12.6 5.4 -2.6
v 12.5 5.4 -2.6
v 12.5 5.5 -2.6
v 12.7 5.5 -2.6
v 12.7 5.4 -2.6
v 12.7 5.4 -2.5
v 12.7 5.5 -2.5
v 12.7 5.4 -2.5
v 12.7 5.4 -2.6
v 12.8 5.4 -2.6
v 12.8 5.4 -2.5
v 12.7 5.5 -2.5
v 12.7 5.4 -2.5
v 12.8 5.4 -2.5
v 12.8 5.5 -2.5
v 12.8 5.5 -2.6
v 12.8 5.4 -2.6
v 12.7 5.4 -2.6
v 12.7 5.5 -2.6
v 12.8 5.5 -2.5
v 12.8 5.4 -2.5
v 12.9 5.4 -2.5
v 12.9 5.5 -2.5
v 12.9 5.5 -2.6
v 12.9 5.4 -2.6
v 12.8 5.4 -2.6
v 12.8 5.5 -2.6
v 12.9 5.5 -2.5
v 12.9 5.4 -2.5
v 13 5.4 -2.5
v 13 5.5 -2.5
v 13 5.5 -2.6
v 13 5.4 -2.6
v 12.9 5.4 -2.6
v 12.9 5.5 -2.6
v 13 5.5 -2.5
v 13 5.4 -2.5
v 13.1 5.4 -2.5
v 13.1 5.5 -2.5
v 13.1 5.5 -2.6
v 13.1 5.4 -2.6
v 13 5.4 -2.6
v 13 5.5 -2.6
v 13.1 5.5 -2.5
v 13.1 5.4 -2.5
v 13.2 5.4 -2.5
v 13.2 5.5 -2.5
v 13.2 5.5 -2.6
v 13.2 5.4 -2.6
v 13.1 5.4 -2.6
v 13.1 5.5 -2.6
v 13.2 5.5 -2.5
v 13.2 5.4 -2.5
v 13.3 5.4 -2.5
v 13.3 5.5 -2.5
v 13.3 5.5 -2.6
v 13.3 5.4 -2.6
v 13.2 5.4 -2.6
v 13.2 5.5 -2.6
v 13.3 5.5 -2.5
v 13.3 5.4 -2.5
v 13.4 5.4 -2.5
v 13.4 5.5 -2.5
v 13.4 5.5 -2.6
v 13.4 5.4 -2.6
v 13.3 5.4 -2.6
v 13.3 5.5 -2.6
v 13.4 5.5 -2.5
v 13.4 5.4 -2.5
v 13.5 5.4 -2.5
v 13.5 5.5 -2.5
v 13.5 5.5 -2.6
v 13.5 5.4 -2.6
v 13.4 5.4 -2.6
v 13.4 5.5 -2.6
v 13.5 5.4 -2.5
v 13.5 5.4 -2.6
v 13.6 5.4 -2.6
v 13.6 5.4 -2.5
v 13.5 5.5 -2.5
v 13.5 5.4 -2.5
v 13.6 5.4 -2.5
v 13.6 5.5 -2.5
v 13.6 5.5 -2.6
v 13.6 5.4 -2.6
v 13.5 5.4 -2.6
v 13.5 5.5 -2.6
v 13.6 5.4 -2.5
v 13.6 5.4 -2.6
v 13.7 5.4 -2.6
v 13.7 5.4 -2.5
v 13.6 5.5 -2.5
v 13.6 5.4 -2.5
v 13.7 5.4 -2.5
v 13.7 5.5 -2.5
v 13.7 5.5 -2.6
v 13.7 5.4 -2.6
v 13.6 5.4 -2.6
v 13.6 5.5 -2.6
v 13.7 5.4 -2.5
v 13.7 5.4 -2.6
v 13.8 5.4 -2.6
v 13.8 5.4 -2.5
v 13.7 5.5 -2.5
v 13.7 5.4 -2.5
v 13.8 5.4 -2.5
v 13.8 5.5 -2.5
v 13.8 5.5 -2.6
v 13.8 5.4 -2.6
v 13.7 5.4 -2.6
v 13.7 5.5 -2.6
v 13.8 5.4 -2.5
v 13.8 5.4 -2.6
v 13.9 5.4 -2.6
v 13.9 5.4 -2.5
v 13.8 5.5 -2.5
v 13.8 5.4 -2.5
v 13.9 5.4 -2.5
v 13.9 5.5 -2.5
v 13.9 5.5 -2.6
v 13.9 5.4 -2.6
v 13.8 5.4 -2.6
v 13.8 5.5 -2.6
v 14 5.5 -2.5
v 14 5.4 -2.5
v 14 5.4 -2.6
v 14 5.5 -2.6
v 13.9 5.4 -2.5
v 13.9 5.4 -2.6
v 14 5.4 -2.6
v 14 5.4 -2.5
v 13.9 5.5 -2.5
v 13.9 5.4 -2.5
v 14 5.4 -2.5
v 14 5.5 -2.5
v 14 5.5 -2.6
v 14 5.4 -2.6
v 13.9 5.4 -2.6
v 13.9 5.5 -2.6
v 12.6 5.4 -2.6
v 12.6 5.3 -2.6
v 12.6 5.3 -2.5
v 12.6 5.4 -2.5
v 12.7 5.4 -2.5
v 12.7 5.3 -2.5
v 12.7 5.3 -2.6
v 12.7 5.4 -2.6
v 12.6 5.4 -2.6
v 12.6 5.4 -2.5
v 12.7 5.4 -2.5
v 12.7 5.4 -2.6
v 12.6 5.3 -2.5
v 12.6 5.3 -2.6
v 12.7 5.3 -2.6
v 12.7 5.3 -2.5
v 12.6 5.4 -2.5
v 12.6 5.3 -2.5
v 12.7 5.3 -2.5
v 12.7 5.4 -2.5
v 12.7 5.4 -2.6
v 12.7 5.3 -2.6
v 12.6 5.3 -2.6
v 12.6 5.4 -2.6
v 12.8 5.4 -2.6
v 12.8 5.3 -2.6
v 12.8 5.3 -2.5
v 12.8 5.4 -2.5
v 12.8 5.4 -2.5
v 12.8 5.3 -2.5
v 12.9 5.3 -2.5
v 12.9 5.4 -2.5
v 12.9 5.4 -2.6
v 12.9 5.3 -2.6
v 12.8 5.3 -2.6
v 12.8 5.4 -2.6
v 12.9 5.3 -2.5
v 12.9 5.3 -2.6
v 13 5.3 -2.6
v 13 5.3 -2.5
v 12.9 5.4 -2.5
v 12.9 5.3 -2.5
v 13 5.3 -2.5
v 13 5.4 -2.5
v 13 5.4 -2.6
v 13 5.3 -2.6
v 12.9 5.3 -2.6
v 12.9 5.4 -2.6
v 13 5.4 -2.5
v 13 5.3 -2.5
v 13.1 5.3 -2.5
v 13.1 5.4 -2.5
v 13.1 5.4 -2.6
v 13.1 5.3 -2.6
v 13 5.3 -2.6
v 13 5.4 -2.6
v 13.1 5.4 -2.5
v 13.1 5.3 -2.5
v 13.2 5.3 -2.5
v 13.2 5.4 -2.5
v 13.2 5.4 -2.6
v 13.2 5.3 -2.6
v 13.1 5.3 -2.6
v 13.1 5.4 -2.6
v 13.2 5.4 -2.5
v 13.2 5.3 -2.5
v 13.3 5.3 -2.5
v 13.3 5.4 -2.5
v 13.3 5.4 -2.6
v 13.3 5.3 -2.6
v 13.2 5.3 -2.6
v 13.2 5.4 -2.6
v 13.3 5.3 -2.5
v 13.3 5.3 -2.6
v 13.4 5.3 -2.6
v 13.4 5.3 -2.5
v 13.3 5.4 -2.5
v 13.3 5.3 -2.5
v 13.4 5.3 -2.5
v 13.4 5.4 -2.5
v 13.4 5.4 -2.6
v 13.4 5.3 -2.6
v 13.3 5.3 -2.6
v 13.3 5.4 -2.6
v 13.5 5.4 -2.5
v 13.5 5.3 -2.5
v 13.5 5.3 -2.6
v 13.5 5.4 -2.6
v 13.4 5.3 -2.5
v 13.4 5.3 -2.6
v 13.5 5.3 -2.6
v 13.5 5.3 -2.5
v 13.4 5.4 -2.5
v 13.4 5.3 -2.5
v 13.5 5.3 -2.5
v 13.5 5.4 -2.5
v 13.5 5.4 -2.6
v 13.5 5.3 -2.6
v 13.4 5.3 -2.6
v 13.4 5.4 -2.6
v 12.7 5.3 -2.6
v 12.7 5.2 -2.6
v 12.7 5.2 -2.5
v 12.7 5.3 -2.5
v 12.7 5.3 -2.6
v 12.7 5.3 -2.5
v 12.8 5.3 -2.5
v 12.8 5.3 -2.6
v 12.7 5.2 -2.5
v 12.7 5.2 -2.6
v 12.8 5.2 -2.6
v 12.8 5.2 -2.5
v 12.7 5.3 -2.5
v 12.7 5.2 -2.5
v 12.8 5.2 -2.5
v 12.8 5.3 -2.5
v 12.8 5.3 -2.6
v 12.8 5.2 -2.6
v 12.7 5.2 -2.6
v 12.7 5.3 -2.6
v 12.9 5.3 -2.5
v 12.9 5.2 -2.5
v 12.9 5.2 -2.6
v 12.9 5.3 -2.6
v 12.8 5.3 -2.5
v 12.8 5.2 -2.5
v 12.9 5.2 -2.5
v 12.9 5.3 -2.5
v 12.9 5.3 -2.6
v 12.9 5.2 -2.6
v 12.8 5.2 -2.6
v 12.8 5.3 -2.6
v 13 5.3 -2.6
v 13 5.2 -2.6
v 13 5.2 -2.5
v 13 5.3 -2.5
v 13 5.2 -2.5
v 13 5.2 -2.6
v 13.1 5.2 -2.6
v 13.1 5.2 -2.5
v 13 5.3 -2.5
v 13 5.2 -2.5
v 13.1 5.2 -2.5
v 13.1 5.3 -2.5
v 13.1 5.3 -2.6
v 13.1 5.2 -2.6
v 13 5.2 -2.6
v 13 5.3 -2.6
v 13.1 5.3 -2.5
v 13.1 5.2 -2.5
v 13.2 5.2 -2.5
v 13.2 5.3 -2.5
v 13.2 5.3 -2.6
v 13.2 5.2 -2.6
v 13.1 5.2 -2.6
v 13.1 5.3 -2.6
v 13.3 5.3 -2.5
v 13.3 5.2 -2.5
v 13.3 5.2 -2.6
v 13.3 5.3 -2.6
v 13.2 5.2 -2.5
v 13.2 5.2 -2.6
v 13.3 5.2 -2.6
v 13.3 5.2 -2.5
v 13.2 5.3 -2.5
v 13.2 5.2 -2.5
v 13.3 5.2 -2.5
v 13.3 5.3 -2.5
v 13.3 5.3 -2.6
v 13.3 5.2 -2.6
v 13.2 5.2 -2.6
v 13.2 5.3 -2.6
v 12.8 5.2 -2.6
v 12.8 5.1 -2.6
v 12.8 5.1 -2.5
v 12.8 5.2 -2.5
v 12.8 5.1 -2.5
v 12.8 5.1 -2.6
v 12.9 5.1 -2.6
v 12.9 5.1 -2.5
v 12.8 5.2 -2.5
v 12.8 5.1 -2.5
v 12.9 5.1 -2.5
v 12.9 5.2 -2.5
v 12.9 5.2 -2.6
v 12.9 5.1 -2.6
v 12.8 5.1 -2.6
v 12.8 5.2 -2.6
v 13 5.2 -2.5
v 13 5.1 -2.5
v 13 5.1 -2.6
v 13 5.2 -2.6
v 12.9 5.2 -2.6
v 12.9 5.2 -2.5
v 13 5.2 -2.5
v 13 5.2 -2.6
v 12.9 5.1 -2.5
v 12.9 5.1 -2.6
v 13 5.1 -2.6
v 13 5.1 -2.5
v 12.9 5.2 -2.5
v 12.9 5.1 -2.5
v 13 5.1 -2.5
v 13 5.2 -2.5
v 13 5.2 -2.6
v 13 5.1 -2.6
v 12.9 5.1 -2.6
v 12.9 5.2 -2.6
v 13.1 5.2 -2.6
v 13.1 5.1 -2.6
v 13.1 5.1 -2.5
v 13.1 5.2 -2.5
v 13.2 5.2 -2.5
v 13.2 5.1 -2.5
v 13.2 5.1 -2.6
v 13.2 5.2 -2.6
v 13.1 5.1 -2.5
v 13.1 5.1 -2.6
v 13.2 5.1 -2.6
v 13.2 5.1 -2.5
v 13.1 5.2 -2.5
v 13.1 5.1 -2.5
v 13.2 5.1 -2.5
v 13.2 5.2 -2.5
v 13.2 5.2 -2.6
v 13.2 5.1 -2.6
v 13.1 5.1 -2.6
v 13.1 5.2 -2.6
v 13 5.1 -2.6
v 13 5 -2.6
v 13 5 -2.5
v 13 5.1 -2.5
v 13.1 5.1 -2.5
v 13.1 5 -2.5
v 13.1 5 -2.6
v 13.1 5.1 -2.6
v 13 5.1 -2.6
v 13 5.1 -2.5
v 13.1 5.1 -2.5
v 13.1 5.1 -2.6
v 13 5 -2.5
v 13 5 -2.6
v 13.1 5 -2.6
v 13.1 5 -2.5
v 13 5.1 -2.5
v 13 5 -2.5
v 13.1 5 -2.5
v 13.1 5.1 -2.5
v 13.1 5.1 -2.6
v 13.1 5 -2.6
v 13 5 -2.6
v 13 5.1 -2.6

# faces
f 1/9/1 2/9/1 3/9/1 4/9/1
f 5/9/2 6/9/2 7/9/2 8/9/2
f 9/9/3 10/9/3 11/9/3 12/9/3
f 13/9/5 14/9/5 15/9/5 16/9/5
f 17/9/6 18/9/6 19/9/6 20/9/6
f 21/10/1 22/10/1 23/10/1 24/10/1
f 25/10/2 26/10/2 27/10/2 28/10/2
f 29/10/5 30/10/5 31/10/5 32/10/5
f 33/10/6 34/10/6 35/10/6 36/10/6
f 37/7/1 38/7/1 39/7/1 40/7/1
f 41/7/2 42/7/2 43/7/2 44/7/2
f 45/7/4 46/7/4 47/7/4 48/7/4
f 49/7/5 50/7/5 51/7/5 52/7/5
f 53/7/6 54/7/6 55/7/6 56/7/6
f 57/2/1 58/2/1 59/2/1 60/2/1
f 61/2/2 62/2/2 63/2/2 64/2/2
f 65/2/3 66/2/3 67/2/3 68/2/3
f 69/2/5 70/2/5 71/2/5 72/2/5
f 73/2/6 74/2/6 75/2/6 76/2/6
f 77/3/1 78/3/1 79/3/1 80/3/1
f 81/3/5 82/3/5 83/3/5 84/3/5
f 85/3/6 86/3/6 87/3/6 88/3/6
f 89/4/2 90/4/2 91/4/2 92/4/2
f 93/4/3 94/4/3 95/4/3 96/4/3
f 97/4/5 98/4/5 99/4/5 100/4/5
f 101/4/6 102/4/6 103/4/6 104/4/6
f 105/4/1 106/4/1 107/4/1 108/4/1
f 109/4/4 110/4/4 111/4/4 112/4/4
f 113/4/5 114/4/5 115/4/5 116/4/5
f 117/4/6 118/4/6 119/4/6 120/4/6
f 121/5/5 122/5/5 123/5/5 124/5/5
f 125/5/6 126/5/6 127/5/6 128/5/6
f 129/6/3 130/6/3 131/6/3 132/6/3
f 133/6/5 134/6/5 135/6/5 136/6/5
f 137/6/6 138/6/6 139/6/6 140/6/6
f 141/6/3 142/6/3 143/6/3 144/6/3
f 145/6/5 146/6/5 147/6/5 148/6/5
f 149/6/6 150/6/6 151/6/6 152/6/6
f 153/5/2 154/5/2 155/5/2 156/5/2
f 157/5/3 158/5/3 159/5/3 160/5/3
f 161/5/4 162/5/4 163/5/4 164/5/4
f 165/5/5 166/5/5 167/5/5 168/5/5
f 169/5/6 170/5/6 171/5/6 172/5/6
f 173/6/1 174/6/1 175/6/1 176/6/1
f 177/6/4 178/6/4 179/6/4 180/6/4
f 181/6/5 182/6/5 183/6/5 184/6/5
f 185/6/6 186/6/6 187/6/6 188/6/6
f 189/8/5 190/8/5 191/8/5 192/8/5
f 193/8/6 194/8/6 195/8/6 196/8/6
f 197/1/2 198/1/2 199/1/2 200/1/2
f 201/1/4 202/1/4 203/1/4 204/1/4
f 205/1/5 206/1/5 207/1/5 208/1/5
f 209/1/6 210/1/6 211/1/6 212/1/6
f 213/6/1 214/6/1 215/6/1 216/6/1
f 217/6/3 218/6/3 219/6/3 220/6/3
f 221/6/4 222/6/4 223/6/4 224/6/4
f 225/6/5 226/6/5 227/6/5 228/6/5
f 229/6/6 230/6/6 231/6/6 232/6/6
f 233/5/2 234/5/2 235/5/2 236/5/2
f 237/5/3 238/5/3 239/5/3 240/5/3
f 241/5/5 242/5/5 243/5/5 244/5/5
f 245/5/6 246/5/6 247/5/6 248/5/6
f 249/6/1 250/6/1 251/6/1 252/6/1
f 253/6/2 254/6/2 255/6/2 256/6/2
f 257/6/5 258/6/5 259/6/5 260/6/5
f 261/6/6 262/6/6 263/6/6 264/6/6
f 265/11/1 266/11/1 267/11/1 268/11/1
f 269/11/2 270/11/2 271/11/2 272/11/2
f 273/11/3 274/11/3 275/11/3 276/11/3
f 277/11/5 278/11/5 279/11/5 280/11/5
f 281/11/6 282/11/6 283/11/6 284/11/6
f 285/1/1 286/1/1 287/1/1 288/1/1
f 289/1/5 290/1/5 291/1/5 292/1/5
f 293/1/6 294/1/6 295/1/6 296/1/6
f 297/6/3 298/6/3 299/6/3 300/6/3
f 301/6/4 302/6/4 303/6/4 304/6/4
f 305/6/5 306/6/5 307/6/5 308/6/5
f 309/6/6 310/6/6 311/6/6 312/6/6
f 313/5/3 314/5/3 315/5/3 316/5/3
f 317/5/5 318/5/5 319/5/5 320/5/5
f 321/5/6 322/5/6 323/5/6 324/5/6
f 325/3/2 326/3/2 327/3/2 328/3/2
f 329/3/3 330/3/3 331/3/3 332/3/3
f 333/3/5 334/3/5 335/3/5 336/3/5
f 337/3/6 338/3/6 339/3/6 340/3/6
f 341/5/1 342/5/1 343/5/1 344/5/1
f 345/5/4 346/5/4 347/5/4 348/5/4
f 349/5/5 350/5/5 351/5/5 352/5/5
f 353/5/6 354/5/6 355/5/6 356/5/6
f 357/1/3 358/1/3 359/1/3 360/1/3
f 361/1/5 362/1/5 363/1/5 364/1/5
f 365/1/6 366/1/6 367/1/6 368/1/6
f 369/11/4 370/11/4 371/11/4 372/11/4
f 373/11/5 374/11/5 375/11/5 376/11/5
f 377/11/6 378/11/6 379/11/6 380/11/6
f 381/11/3 382/11/3 383/11/3 384/11/3
f 385/11/5 386/11/5 387/11/5 388/11/5
f 389/11/6 390/11/6 391/11/6 392/11/6
f 393/11/2 394/11/2 395/11/2 396/11/2
f 397/11/5 398/11/5 399/11/5 400/11/5
f 401/11/6 402/11/6 403/11/6 404/11/6
f 405/1/1 406/1/1 407/1/1 408/1/1
f 409/1/5 410/1/5 411/1/5 412/1/5
f 413/1/6 414/1/6 415/1/6 416/1/6
f 417/8/5 418/8/5 419/8/5 420/8/5
f 421/8/6 422/8/6 423/8/6 424/8/6
f 425/6/3 426/6/3 427/6/3 428/6/3
f 429/6/4 430/6/4 431/6/4 432/6/4
f 433/6/5 434/6/5 435/6/5 436/6/5
f 437/6/6 438/6/6 439/6/6 440/6/6
f 441/6/3 442/6/3 443/6/3 444/6/3
f 445/6/4 446/6/4 447/6/4 448/6/4
f 449/6/5 450/6/5 451/6/5 452/6/5
f 453/6/6 454/6/6 455/6/6 456/6/6
f 457/5/3 458/5/3 459/5/3 460/5/3
f 461/5/5 462/5/5 463/5/5 464/5/5
f 465/5/6 466/5/6 467/5/6 468/5/6
f 469/3/2 470/3/2 471/3/2 472/3/2
f 473/3/3 474/3/3 475/3/3 476/3/3
f 477/3/5 478/3/5 479/3/5 480/3/5
f 481/3/6 482/3/6 483/3/6 484/3/6
f 485/6/1 486/6/1 487/6/1 488/6/1
f 489/6/2 490/6/2 491/6/2 492/6/2
f 493/6/4 494/6/4 495/6/4 496/6/4
f 497/6/5 498/6/5 499/6/5 500/6/5
f 501/6/6 502/6/6 503/6/6 504/6/6
f 505/11/1 506/11/1 507/11/1 508/11/1
f 509/11/4 510/11/4 511/11/4 512/11/4
f 513/11/5 514/11/5 515/11/5 516/11/5
f 517/11/6 518/11/6 519/11/6 520/11/6
f 521/11/5 522/11/5 523/11/5 524/11/5
f 525/11/6 526/11/6 527/11/6 528/11/6
f 529/11/3 530/11/3 531/11/3 532/11/3
f 533/11/5 534/11/5 535/11/5 536/11/5
f 537/11/6 538/11/6 539/11/6 540/11/6
f 541/11/5 542/11/5 543/11/5 544/11/5
f 545/11/6 546/11/6 547/11/6 548/11/6
f 549/11/2 550/11/2 551/11/2 552/11/2
f 553/11/5 554/11/5 555/11/5 556/11/5
f 557/11/6 558/11/6 559/11/6 560/11/6
f 561/1/1 562/1/1 563/1/1 564/1/1
f 565/1/5 566/1/5 567/1/5 568/1/5
f 569/1/6 570/1/6 571/1/6 572/1/6
f 573/8/5 574/8/5 575/8/5 576/8/5
f 577/8/6 578/8/6 579/8/6 580/8/6
f 581/6/3 582/6/3 583/6/3 584/6/3
f 585/6/4 586/6/4 587/6/4 588/6/4
f 589/6/5 590/6/5 591/6/5 592/6/5
f 593/6/6 594/6/6 595/6/6 596/6/6
f 597/6/3 598/6/3 599/6/3 600/6/3
f 601/6/4 602/6/4 603/6/4 604/6/4
f 605/6/5 606/6/5 607/6/5 608/6/5
f 609/6/6 610/6/6 611/6/6 612/6/6
f 613/5/3 614/5/3 615/5/3 616/5/3
f 617/5/5 618/5/5 619/5/5 620/5/5
f 621/5/6 622/5/6 623/5/6 624/5/6
f 625/3/2 626/3/2 627/3/2 628/3/2
f 629/3/3 630/3/3 631/3/3 632/3/3
f 633/3/5 634/3/5 635/3/5 636/3/5
f 637/3/6 638/3/6 639/3/6 640/3/6
f 641/6/1 642/6/1 643/6/1 644/6/1
f 645/6/2 646/6/2 647/6/2 648/6/2
f 649/6/3 650/6/3 651/6/3 652/6/3
f 653/6/4 654/6/4 655/6/4 656/6/4
f 657/6/5 658/6/5 659/6/5 660/6/5
f 661/6/6 662/6/6 663/6/6 664/6/6
f 665/11/1 666/11/1 667/11/1 668/11/1
f 669/11/4 670/11/4 671/11/4 672/11/4
f 673/11/5 674/11/5 675/11/5 676/11/5
f 677/11/6 678/11/6 679/11/6 680/11/6
f 681/11/5 682/11/5 683/11/5 684/11/5
f 685/11/6 686/11/6 687/11/6 688/11/6
f 689/11/5 690/11/5 691/11/5 692/11/5
f 693/11/6 694/11/6 695/11/6 696/11/6
f 697/11/5 698/11/5 699/11/5 700/11/5
f 701/11/6 702/11/6 703/11/6 704/11/6
f 705/11/3 706/11/3 707/11/3 708/11/3
f 709/11/5 710/11/5 711/11/5 712/11/5
f 713/11/6 714/11/6 715/11/6 716/11/6
f 717/11/3 718/11/3 719/11/3 720/11/3
f 721/11/5 722/11/5 723/11/5 724/11/5
f 725/11/6 726/11/6 727/11/6 728/11/6
f 729/11/5 730/11/5 731/11/5 732/11/5
f 733/11/6 734/11/6 735/11/6 736/11/6
f 737/11/2 738/11/2 739/11/2 740/11/2
f 741/11/5 742/11/5 743/11/5 744/11/5
f 745/11/6 746/11/6 747/11/6 748/11/6
f 749/1/1 750/1/1 751/1/1 752/1/1
f 753/1/5 754/1/5 755/1/5 756/1/5
f 757/1/6 758/1/6 759/1/6 760/1/6
f 761/8/5 762/8/5 763/8/5 764/8/5
f 765/8/6 766/8/6 767/8/6 768/8/6
f 769/6/3 770/6/3 771/6/3 772/6/3
f 773/6/4 774/6/4 775/6/4 776/6/4
f 777/6/5 778/6/5 779/6/5 780/6/5
f 781/6/6 782/6/6 783/6/6 784/6/6
f 785/6/3 786/6/3 787/6/3 788/6/3
f 789/6/4 790/6/4 791/6/4 792/6/4
f 793/6/5 794/6/5 795/6/5 796/6/5
f 797/6/6 798/6/6 799/6/6 800/6/6
f 801/6/3 802/6/3 803/6/3 804/6/3
f 805/6/4 806/6/4 807/6/4 808/6/4
f 809/6/5 810/6/5 811/6/5 812/6/5
f 813/6/6 814/6/6 815/6/6 816/6/6
f 817/5/3 818/5/3 819/5/3 820/5/3
f 821/5/5 822/5/5 823/5/5 824/5/5
f 825/5/6 826/5/6 827/5/6 828/5/6
f 829/3/2 830/3/2 831/3/2 832/3/2
f 833/3/3 834/3/3 835/3/3 836/3/3
f 837/3/5 838/3/5 839/3/5 840/3/5
f 841/3/6 842/3/6 843/3/6 844/3/6
f 845/6/1 846/6/1 847/6/1 848/6/1
f 849/6/2 850/6/2 851/6/2 852/6/2
f 853/6/3 854/6/3 855/6/3 856/6/3
f 857/6/4 858/6/4 859/6/4 860/6/4
f 861/6/5 862/6/5 863/6/5 864/6/5
f 865/6/6 866/6/6 867/6/6 868/6/6
f 869/11/1 870/11/1 871/11/1 872/11/1
f 873/11/4 874/11/4 875/11/4 876/11/4
f 877/11/5 878/11/5 879/11/5 880/11/5
f 881/11/6 882/11/6 883/11/6 884/11/6
f 885/11/5 886/11/5 887/11/5 888/11/5
f 889/11/6 890/11/6 891/11/6 892/11/6
f 893/11/5 894/11/5 895/11/5 896/11/5
f 897/11/6 898/11/6 899/11/6 900/11/6
f 901/11/5 902/11/5 903/11/5 904/11/5
f 905/11/6 906/11/6 907/11/6 908/11/6
f 909/11/5 910/11/5 911/11/5 912/11/5
f 913/11/6 914/11/6 915/11/6 916/11/6
f 917/11/5 918/11/5 919/11/5 920/11/5
f 921/11/6 922/11/6 923/11/6 924/11/6
f 925/11/5 926/11/5 927/11/5 928/11/5
f 929/11/6 930/11/6 931/11/6 932/11/6
f 933/11/3 934/11/3 935/11/3 936/11/3
f 937/11/5 938/11/5 939/11/5 940/11/5
f 941/11/6 942/11/6 943/11/6 944/11/6
f 945/11/3 946/11/3 947/11/3 948/11/3
f 949/11/5 950/11/5 951/11/5 952/11/5
f 953/11/6 954/11/6 955/11/6 956/11/6
f 957/11/5 958/11/5 959/11/5 960/11/5
f 961/11/6 962/11/6 963/11/6 964/11/6
f 965/11/2 966/11/2 967/11/2 968/11/2
f 969/11/5 970/11/5 971/11/5 972/11/5
f 973/11/6 974/11/6 975/11/6 976/11/6
f 977/1/1 978/1/1 979/1/1 980/1/1
f 981/1/5 982/1/5 983/1/5 984/1/5
f 985/1/6 986/1/6 987/1/6 988/1/6
f 989/8/5 990/8/5 991/8/5 992/8/5
f 993/8/6 994/8/6 995/8/6 996/8/6
f 997/6/3 998/6/3 999/6/3 1000/6/3
f 1001/6/4 1002/6/4 1003/6/4 1004/6/4
f 1005/6/5 1006/6/5 1007/6/5 1008/6/5
f 1009/6/6 1010/6/6 1011/6/6 1012/6/6
f 1013/6/3 1014/6/3 1015/6/3 1016/6/3
f 1017/6/4 1018/6/4 1019/6/4 1020/6/4
f 1021/6/5 1022/6/5 1023/6/5 1024/6/5
f 1025/6/6 1026/6/6 1027/6/6 1028/6/6
f 1029/6/3 1030/6/3 1031/6/3 1032/6/3
f 1033/6/4 1034/6/4 1035/6/4 1036/6/4
f 1037/6/5 1038/6/5 1039/6/5 1040/6/5
f 1041/6/6 1042/6/6 1043/6/6 1044/6/6
f 1045/6/3 1046/6/3 1047/6/3 1048/6/3
f 1049/6/4 1050/6/4 1051/6/4 1052/6/4
f 1053/6/5 1054/6/5 1055/6/5 1056/6/5
f 1057/6/6 1058/6/6 1059/6/6 1060/6/6
f 1061/6/3 1062/6/3 1063/6/3 1064/6/3
f 1065/6/4 1066/6/4 1067/6/4 1068/6/4
f 1069/6/5 1070/6/5 1071/6/5 1072/6/5
f 1073/6/6 1074/6/6 1075/6/6 1076/6/6
f 1077/6/3 1078/6/3 1079/6/3 1080/6/3
f 1081/6/5 1082/6/5 1083/6/5 1084/6/5
f 1085/6/6 1086/6/6 1087/6/6 1088/6/6
f 1089/6/3 1090/6/3 1091/6/3 1092/6/3
f 1093/6/5 1094/6/5 1095/6/5 1096/6/5
f 1097/6/6 1098/6/6 1099/6/6 1100/6/6
f 1101/6/3 1102/6/3 1103/6/3 1104/6/3
f 1105/6/4 1106/6/4 1107/6/4 1108/6/4
f 1109/6/5 1110/6/5 1111/6/5 1112/6/5
f 1113/6/6 1114/6/6 1115/6/6 1116/6/6
f 1117/6/3 1118/6/3 1119/6/3 1120/6/3
f 1121/6/4 1122/6/4 1123/6/4 1124/6/4
f 1125/6/5 1126/6/5 1127/6/5 1128/6/5
f 1129/6/6 1130/6/6 1131/6/6 1132/6/6
f 1133/6/3 1134/6/3 1135/6/3 1136/6/3
f 1137/6/4 1138/6/4 1139/6/4 1140/6/4
f 1141/6/5 1142/6/5 1143/6/5 1144/6/5
f 1145/6/6 1146/6/6 1147/6/6 1148/6/6
f 1149/6/3 1150/6/3 1151/6/3 1152/6/3
f 1153/6/4 1154/6/4 1155/6/4 1156/6/4
f 1157/6/5 1158/6/5 1159/6/5 1160/6/5
f 1161/6/6 1162/6/6 1163/6/6 1164/6/6
f 1165/6/3 1166/6/3 1167/6/3 1168/6/3
f 1169/6/4 1170/6/4 1171/6/4 1172/6/4
f 1173/6/5 1174/6/5 1175/6/5 1176/6/5
f 1177/6/6 1178/6/6 1179/6/6 1180/6/6
f 1181/6/3 1182/6/3 1183/6/3 1184/6/3
f 1185/6/4 1186/6/4 1187/6/4 1188/6/4
f 1189/6/5 1190/6/5 1191/6/5 1192/6/5
f 1193/6/6 1194/6/6 1195/6/6 1196/6/6
f 1197/6/3 1198/6/3 1199/6/3 1200/6/3
f 1201/6/4 1202/6/4 1203/6/4 1204/6/4
f 1205/6/5 1206/6/5 1207/6/5 1208/6/5
f 1209/6/6 1210/6/6 1211/6/6 1212/6/6
f 1213/5/3 1214/5/3 1215/5/3 1216/5/3
f 1217/5/4 1218/5/4 1219/5/4 1220/5/4
f 1221/5/5 1222/5/5 1223/5/5 1224/5/5
f 1225/5/6 1226/5/6 1227/5/6 1228/5/6
f 1229/3/2 1230/3/2 1231/3/2 1232/3/2
f 1233/3/3 1234/3/3 1235/3/3 1236/3/3
f 1237/3/4 1238/3/4 1239/3/4 1240/3/4
f 1241/3/5 1242/3/5 1243/3/5 1244/3/5
f 1245/3/6 1246/3/6 1247/3/6 1248/3/6
f 1249/6/1 1250/6/1 1251/6/1 1252/6/1
f 1253/6/2 1254/6/2 1255/6/2 1256/6/2
f 1257/6/3 1258/6/3 1259/6/3 1260/6/3
f 1261/6/4 1262/6/4 1263/6/4 1264/6/4
f 1265/6/5 1266/6/5 1267/6/5 1268/6/5
f 1269/6/6 1270/6/6 1271/6/6 1272/6/6
f 1273/11/1 1274/11/1 1275/11/1 1276/11/1
f 1277/11/4 1278/11/4 1279/11/4 1280/11/4
f 1281/11/5 1282/11/5 1283/11/5 1284/11/5
f 1285/11/6 1286/11/6 1287/11/6 1288/11/6
f 1289/11/5 1290/11/5 1291/11/5 1292/11/5
f 1293/11/6 1294/11/6 1295/11/6 1296/11/6
f 1297/11/5 1298/11/5 1299/11/5 1300/11/5
f 1301/11/6 1302/11/6 1303/11/6 1304/11/6
f 1305/11/5 1306/11/5 1307/11/5 1308/11/5
f 1309/11/6 1310/11/6 1311/11/6 1312/11/6
f 1313/11/5 1314/11/5 1315/11/5 1316/11/5
f 1317/11/6 1318/11/6 1319/11/6 1320/11/6
f 1321/11/5 1322/11/5 1323/11/5 1324/11/5
f 1325/11/6 1326/11/6 1327/11/6 1328/11/6
f 1329/11/5 1330/11/5 1331/11/5 1332/11/5
f 1333/11/6 1334/11/6 1335/11/6 1336/11/6
f 1337/11/5 1338/11/5 1339/11/5 1340/11/5
f 1341/11/6 1342/11/6 1343/11/6 1344/11/6
f 1345/11/5 1346/11/5 1347/11/5 1348/11/5
f 1349/11/6 1350/11/6 1351/11/6 1352/11/6
f 1353/11/5 1354/11/5 1355/11/5 1356/11/5
f 1357/11/6 1358/11/6 1359/11/6 1360/11/6
f 1361/11/3 1362/11/3 1363/11/3 1364/11/3
f 1365/11/5 1366/11/5 1367/11/5 1368/11/5
f 1369/11/6 1370/11/6 1371/11/6 1372/11/6
f 1373/11/3 1374/11/3 1375/11/3 1376/11/3
f 1377/11/5 1378/11/5 1379/11/5 1380/11/5
f 1381/11/6 1382/11/6 1383/11/6 1384/11/6
f 1385/11/3 1386/11/3 1387/11/3 1388/11/3
f 1389/11/5 1390/11/5 1391/11/5 1392/11/5
f 1393/11/6 1394/11/6 1395/11/6 1396/11/6
f 1397/11/5 1398/11/5 1399/11/5 1400/11/5
f 1401/11/6 1402/11/6 1403/11/6 1404/11/6
f 1405/11/2 1406/11/2 1407/11/2 1408/11/2
f 1409/11/4 1410/11/4 1411/11/4 1412/11/4
f 1413/11/5 1414/11/5 1415/11/5 1416/11/5
f 1417/11/6 1418/11/6 1419/11/6 1420/11/6
f 1421/1/1 1422/1/1 1423/1/1 1424/1/1
f 1425/1/4 1426/1/4 1427/1/4 1428/1/4
f 1429/1/5 1430/1/5 1431/1/5 1432/1/5
f 1433/1/6 1434/1/6 1435/1/6 1436/1/6
f 1437/8/2 1438/8/2 1439/8/2 1440/8/2
f 1441/8/4 1442/8/4 1443/8/4 1444/8/4
f 1445/8/5 1446/8/5 1447/8/5 1448/8/5
f 1449/8/6 1450/8/6 1451/8/6 1452/8/6
f 1453/6/1 1454/6/1 1455/6/1 1456/6/1
f 1457/6/2 1458/6/2 1459/6/2 1460/6/2
f 1461/6/3 1462/6/3 1463/6/3 1464/6/3
f 1465/6/4 1466/6/4 1467/6/4 1468/6/4
f 1469/6/5 1470/6/5 1471/6/5 1472/6/5
f 1473/6/6 1474/6/6 1475/6/6 1476/6/6
f 1477/11/1 1478/11/1 1479/11/1 1480/11/1
f 1481/11/4 1482/11/4 1483/11/4 1484/11/4
f 1485/11/5 1486/11/5 1487/11/5 1488/11/5
f 1489/11/6 1490/11/6 1491/11/6 1492/11/6
f 1493/11/5 1494/11/5 1495/11/5 1496/11/5
f 1497/11/6 1498/11/6 1499/11/6 1500/11/6
f 1501/11/5 1502/11/5 1503/11/5 1504/11/5
f 1505/11/6 1506/11/6 1507/11/6 1508/11/6
f 1509/11/5 1510/11/5 1511/11/5 1512/11/5
f 1513/11/6 1514/11/6 1515/11/6 1516/11/6
f 1517/11/5 1518/11/5 1519/11/5 1520/11/5
f 1521/11/6 1522/11/6 1523/11/6 1524/11/6
f 1525/11/5 1526/11/5 1527/11/5 1528/11/5
f 1529/11/6 1530/11/6 1531/11/6 1532/11/6
f 1533/11/5 1534/11/5 1535/11/5 1536/11/5
f 1537/11/6 1538/11/6 1539/11/6 1540/11/6
f 1541/11/5 1542/11/5 1543/11/5 1544/11/5
f 1545/11/6 1546/11/6 1547/11/6 1548/11/6
f 1549/11/4 1550/11/4 1551/11/4 1552/11/4
f 1553/11/5 1554/11/5 1555/11/5 1556/11/5
f 1557/11/6 1558/11/6 1559/11/6 1560/11/6
f 1561/11/4 1562/11/4 1563/11/4 1564/11/4
f 1565/11/5 1566/11/5 1567/11/5 1568/11/5
f 1569/11/6 1570/11/6 1571/11/6 1572/11/6
f 1573/11/4 1574/11/4 1575/11/4 1576/11/4
f 1577/11/5 1578/11/5 1579/11/5 1580/11/5
f 1581/11/6 1582/11/6 1583/11/6 1584/11/6
f 1585/11/4 1586/11/4 1587/11/4 1588/11/4
f 1589/11/5 1590/11/5 1591/11/5 1592/11/5
f 1593/11/6 1594/11/6 1595/11/6 1596/11/6
f 1597/11/2 1598/11/2 1599/11/2 1600/11/2
f 1601/11/4 1602/11/4 1603/11/4 1604/11/4
f 1605/11/5 1606/11/5 1607/11/5 1608/11/5
f 1609/11/6 1610/11/6 1611/11/6 1612/11/6
f 1613/6/1 1614/6/1 1615/6/1 1616/6/1
f 1617/6/2 1618/6/2 1619/6/2 1620/6/2
f 1621/6/3 1622/6/3 1623/6/3 1624/6/3
f 1625/6/4 1626/6/4 1627/6/4 1628/6/4
f 1629/6/5 1630/6/5 1631/6/5 1632/6/5
f 1633/6/6 1634/6/6 1635/6/6 1636/6/6
f 1637/11/1 1638/11/1 1639/11/1 1640/11/1
f 1641/11/5 1642/11/5 1643/11/5 1644/11/5
f 1645/11/6 1646/11/6 1647/11/6 1648/11/6
f 1649/11/4 1650/11/4 1651/11/4 1652/11/4
f 1653/11/5 1654/11/5 1655/11/5 1656/11/5
f 1657/11/6 1658/11/6 1659/11/6 1660/11/6
f 1661/11/5 1662/11/5 1663/11/5 1664/11/5
f 1665/11/6 1666/11/6 1667/11/6 1668/11/6
f 1669/11/5 1670/11/5 1671/11/5 1672/11/5
f 1673/11/6 1674/11/6 1675/11/6 1676/11/6
f 1677/11/5 1678/11/5 1679/11/5 1680/11/5
f 1681/11/6 1682/11/6 1683/11/6 1684/11/6
f 1685/11/4 1686/11/4 1687/11/4 1688/11/4
f 1689/11/5 1690/11/5 1691/11/5 1692/11/5
f 1693/11/6 1694/11/6 1695/11/6 1696/11/6
f 1697/11/2 1698/11/2 1699/11/2 1700/11/2
f 1701/11/4 1702/11/4 1703/11/4 1704/11/4
f 1705/11/5 1706/11/5 1707/11/5 1708/11/5
f 1709/11/6 1710/11/6 1711/11/6 1712/11/6
f 1713/6/1 1714/6/1 1715/6/1 1716/6/1
f 1717/6/3 1718/6/3 1719/6/3 1720/6/3
f 1721/6/4 1722/6/4 1723/6/4 1724/6/4
f 1725/6/5 1726/6/5 1727/6/5 1728/6/5
f 1729/6/6 1730/6/6 1731/6/6 1732/6/6
f 1733/1/2 1734/1/2 1735/1/2 1736/1/2
f 1737/1/5 1738/1/5 1739/1/5 1740/1/5
f 1741/1/6 1742/1/6 1743/1/6 1744/1/6
f 1745/11/1 1746/11/1 1747/11/1 1748/11/1
f 1749/11/4 1750/11/4 1751/11/4 1752/11/4
f 1753/11/5 1754/11/5 1755/11/5 1756/11/5
f 1757/11/6 1758/11/6 1759/11/6 1760/11/6
f 1761/11/5 1762/11/5 1763/11/5 1764/11/5
f 1765/11/6 1766/11/6 1767/11/6 1768/11/6
f 1769/11/2 1770/11/2 1771/11/2 1772/11/2
f 1773/11/4 1774/11/4 1775/11/4 1776/11/4
f 1777/11/5 1778/11/5 1779/11/5 1780/11/5
f 1781/11/6 1782/11/6 1783/11/6 1784/11/6
f 1785/5/1 1786/5/1 1787/5/1 1788/5/1
f 1789/5/4 1790/5/4 1791/5/4 1792/5/4
f 1793/5/5 1794/5/5 1795/5/5 1796/5/5
f 1797/5/6 1798/5/6 1799/5/6 1800/5/6
f 1801/6/2 1802/6/2 1803/6/2 1804/6/2
f 1805/6/3 1806/6/3 1807/6/3 1808/6/3
f 1809/6/4 1810/6/4 1811/6/4 1812/6/4
f 1813/6/5 1814/6/5 1815/6/5 1816/6/5
f 1817/6/6 1818/6/6 1819/6/6 1820/6/6
f 1821/1/1 1822/1/1 1823/1/1 1824/1/1
f 1825/1/2 1826/1/2 1827/1/2 1828/1/2
f 1829/1/4 1830/1/4 1831/1/4 1832/1/4
f 1833/1/5 1834/1/5 1835/1/5 1836/1/5
f 1837/1/6 1838/1/6 1839/1/6 1840/1/6
f 1841/6/1 1842/6/1 1843/6/1 1844/6/1
f 1845/6/2 1846/6/2 1847/6/2 1848/6/2
f 1849/6/3 1850/6/3 1851/6/3 1852/6/3
f 1853/6/4 1854/6/4 1855/6/4 1856/6/4
f 1857/6/5 1858/6/5 1859/6/5 1860/6/5
f 1861/6/6 1862/6/6 1863/6/6 1864/6/6

