# generated by vox_to_obj_exporter
# scale=0.1 center=false ground=false y_up=true

mtllib Fight_720.mtl
usemtl palette

# normals
vn -1 0 0
vn 1 0 0
vn 0 1 0
vn 0 -1 0
vn 0 0 1
vn 0 0 -1

# texcoords
vt 0.201171875 0.5
vt 0.193359375 0.5

# verts
v 1.7 9.6 -2.6
v 1.7 9.5 -2.6
v 1.7 9.5 -2.5
v 1.7 9.6 -2.5
v 1.8 9.6 -2.5
v 1.8 9.5 -2.5
v 1.8 9.5 -2.6
v 1.8 9.6 -2.6
v 1.7 9.6 -2.6
v 1.7 9.6 -2.5
v 1.8 9.6 -2.5
v 1.8 9.6 -2.6
v 1.7 9.6 -2.5
v 1.7 9.5 -2.5
v 1.8 9.5 -2.5
v 1.8 9.6 -2.5
v 1.8 9.6 -2.6
v 1.8 9.5 -2.6
v 1.7 9.5 -2.6
v 1.7 9.6 -2.6
v 1.6 9.5 -2.6
v 1.6 9.4 -2.6
v 1.6 9.4 -2.5
v 1.6 9.5 -2.5
v 1.6 9.5 -2.6
v 1.6 9.5 -2.5
v 1.7 9.5 -2.5
v 1.7 9.5 -2.6
v 1.6 9.4 -2.5
v 1.6 9.4 -2.6
v 1.7 9.4 -2.6
v 1.7 9.4 -2.5
v 1.6 9.5 -2.5
v 1.6 9.4 -2.5
v 1.7 9.4 -2.5
v 1.7 9.5 -2.5
v 1.7 9.5 -2.6
v 1.7 9.4 -2.6
v 1.6 9.4 -2.6
v 1.6 9.5 -2.6
v 1.7 9.5 -2.5
v 1.7 9.4 -2.5
v 1.8 9.4 -2.5
v 1.8 9.5 -2.5
v 1.8 9.5 -2.6
v 1.8 9.4 -2.6
v 1.7 9.4 -2.6
v 1.7 9.5 -2.6
v 1.9 9.5 -2.5
v 1.9 9.4 -2.5
v 1.9 9.4 -2.6
v 1.9 9.5 -2.6
v 1.8 9.5 -2.6
v 1.8 9.5 -2.5
v 1.9 9.5 -2.5
v 1.9 9.5 -2.6
v 1.8 9.4 -2.5
v 1.8 9.4 -2.6
v 1.9 9.4 -2.6
v 1.9 9.4 -2.5
v 1.8 9.5 -2.5
v 1.8 9.4 -2.5
v 1.9 9.4 -2.5
v 1.9 9.5 -2.5
v 1.9 9.5 -2.6
v 1.9 9.4 -2.6
v 1.8 9.4 -2.6
v 1.8 9.5 -2.6
v 1.7 9.4 -2.6
v 1.7 9.3 -2.6
v 1.7 9.3 -2.5
v 1.7 9.4 -2.5
v 1.8 9.4 -2.5
v 1.8 9.3 -2.5
v 1.8 9.3 -2.6
v 1.8 9.4 -2.6
v 1.7 9.3 -2.5
v 1.7 9.3 -2.6
v 1.8 9.3 -2.6
v 1.8 9.3 -2.5
v 1.7 9.4 -2.5
v 1.7 9.3 -2.5
v 1.8 9.3 -2.5
v 1.8 9.4 -2.5
v 1.8 9.4 -2.6
v 1.8 9.3 -2.6
v 1.7 9.3 -2.6
v 1.7 9.4 -2.6
v 2 9.4 -2.6
v 2 9.3 -2.6
v 2 9.3 -2.5
v 2 9.4 -2.5
v 2.1 9.4 -2.5
v 2.1 9.3 -2.5
v 2.1 9.3 -2.6
v 2.1 9.4 -2.6
v 2 9.4 -2.6
v 2 9.4 -2.5
v 2.1 9.4 -2.5
v 2.1 9.4 -2.6
v 2 9.4 -2.5
v 2 9.3 -2.5
v 2.1 9.3 -2.5
v 2.1 9.4 -2.5
v 2.1 9.4 -2.6
v 2.1 9.3 -2.6
v 2 9.3 -2.6
v 2 9.4 -2.6
v 1.9 9.3 -2.6
v 1.9 9.2 -2.6
v 1.9 9.2 -2.5
v 1.9 9.3 -2.5
v 1.9 9.3 -2.6
v 1.9 9.3 -2.5
v 2 9.3 -2.5
v 2 9.3 -2.6
v 1.9 9.2 -2.5
v 1.9 9.2 -2.6
v 2 9.2 -2.6
v 2 9.2 -2.5
v 1.9 9.3 -2.5
v 1.9 9.2 -2.5
v 2 9.2 -2.5
v 2 9.3 -2.5
v 2 9.3 -2.6
v 2 9.2 -2.6
v 1.9 9.2 -2.6
v 1.9 9.3 -2.6
v 2 9.3 -2.5
v 2 9.2 -2.5
v 2.1 9.2 -2.5
v 2.1 9.3 -2.5
v 2.1 9.3 -2.6
v 2.1 9.2 -2.6
v 2 9.2 -2.6
v 2 9.3 -2.6
v 2.2 9.3 -2.5
v 2.2 9.2 -2.5
v 2.2 9.2 -2.6
v 2.2 9.3 -2.6
v 2.1 9.3 -2.6
v 2.1 9.3 -2.5
v 2.2 9.3 -2.5
v 2.2 9.3 -2.6
v 2.1 9.3 -2.5
v 2.1 9.2 -2.5
v 2.2 9.2 -2.5
v 2.2 9.3 -2.5
v 2.2 9.3 -2.6
v 2.2 9.2 -2.6
v 2.1 9.2 -2.6
v 2.1 9.3 -2.6
v 2 9.2 -2.6
v 2 9.1 -2.6
v 2 9.1 -2.5
v 2 9.2 -2.5
v 2 9.1 -2.5
v 2 9.1 -2.6
v 2.1 9.1 -2.6
v 2.1 9.1 -2.5
v 2 9.2 -2.5
v 2 9.1 -2.5
v 2.1 9.1 -2.5
v 2.1 9.2 -2.5
v 2.1 9.2 -2.6
v 2.1 9.1 -2.6
v 2 9.1 -2.6
v 2 9.2 -2.6
v 2.1 9.2 -2.5
v 2.1 9.1 -2.5
v 2.2 9.1 -2.5
v 2.2 9.2 -2.5
v 2.2 9.2 -2.6
v 2.2 9.1 -2.6
v 2.1 9.1 -2.6
v 2.1 9.2 -2.6
v 2.2 9.2 -2.6
v 2.2 9.2 -2.5
v 2.3 9.2 -2.5
v 2.3 9.2 -2.6
v 2.2 9.2 -2.5
v 2.2 9.1 -2.5
v 2.3 9.1 -2.5
v 2.3 9.2 -2.5
v 2.3 9.2 -2.6
v 2.3 9.1 -2.6
v 2.2 9.1 -2.6
v 2.2 9.2 -2.6
v 2.4 9.2 -2.5
v 2.4 9.1 -2.5
v 2.4 9.1 -2.6
v 2.4 9.2 -2.6
v 2.3 9.2 -2.6
v 2.3 9.2 -2.5
v 2.4 9.2 -2.5
v 2.4 9.2 -2.6
v 2.3 9.2 -2.5
v 2.3 9.1 -2.5
v 2.4 9.1 -2.5
v 2.4 9.2 -2.5
v 2.4 9.2 -2.6
v 2.4 9.1 -2.6
v 2.3 9.1 -2.6
v 2.3 9.2 -2.6
v 2.1 9.1 -2.6
v 2.1 9 -2.6
v 2.1 9 -2.5
v 2.1 9.1 -2.5
v 2.1 9 -2.5
v 2.1 9 -2.6
v 2.2 9 -2.6
v 2.2 9 -2.5
v 2.1 9.1 -2.5
v 2.1 9 -2.5
v 2.2 9 -2.5
v 2.2 9.1 -2.5
v 2.2 9.1 -2.6
v 2.2 9 -2.6
v 2.1 9 -2.6
v 2.1 9.1 -2.6
v 2.2 9 -2.5
v 2.2 9 -2.6
v 2.3 9 -2.6
v 2.3 9 -2.5
v 2.2 9.1 -2.5
v 2.2 9 -2.5
v 2.3 9 -2.5
v 2.3 9.1 -2.5
v 2.3 9.1 -2.6
v 2.3 9 -2.6
v 2.2 9 -2.6
v 2.2 9.1 -2.6
v 2.3 9.1 -2.5
v 2.3 9 -2.5
v 2.4 9 -2.5
v 2.4 9.1 -2.5
v 2.4 9.1 -2.6
v 2.4 9 -2.6
v 2.3 9 -2.6
v 2.3 9.1 -2.6
v 2.5 9.1 -2.5
v 2.5 9 -2.5
v 2.5 9 -2.6
v 2.5 9.1 -2.6
v 2.4 9.1 -2.6
v 2.4 9.1 -2.5
v 2.5 9.1 -2.5
v 2.5 9.1 -2.6
v 2.4 9.1 -2.5
v 2.4 9 -2.5
v 2.5 9 -2.5
v 2.5 9.1 -2.5
v 2.5 9.1 -2.6
v 2.5 9 -2.6
v 2.4 9 -2.6
v 2.4 9.1 -2.6
v 2.3 9 -2.6
v 2.3 8.9 -2.6
v 2.3 8.9 -2.5
v 2.3 9 -2.5
v 2.3 8.9 -2.5
v 2.3 8.9 -2.6
v 2.4 8.9 -2.6
v 2.4 8.9 -2.5
v 2.3 9 -2.5
v 2.3 8.9 -2.5
v 2.4 8.9 -2.5
v 2.4 9 -2.5
v 2.4 9 -2.6
v 2.4 8.9 -2.6
v 2.3 8.9 -2.6
v 2.3 9 -2.6
v 2.4 9 -2.5
v 2.4 8.9 -2.5
v 2.5 8.9 -2.5
v 2.5 9 -2.5
v 2.5 9 -2.6
v 2.5 8.9 -2.6
v 2.4 8.9 -2.6
v 2.4 9 -2.6
v 2.5 9 -2.6
v 2.5 9 -2.5
v 2.6 9 -2.5
v 2.6 9 -2.6
v 2.5 9 -2.5
v 2.5 8.9 -2.5
v 2.6 8.9 -2.5
v 2.6 9 -2.5
v 2.6 9 -2.6
v 2.6 8.9 -2.6
v 2.5 8.9 -2.6
v 2.5 9 -2.6
v 2.7 9 -2.5
v 2.7 8.9 -2.5
v 2.7 8.9 -2.6
v 2.7 9 -2.6
v 2.6 9 -2.6
v 2.6 9 -2.5
v 2.7 9 -2.5
v 2.7 9 -2.6
v 2.6 9 -2.5
v 2.6 8.9 -2.5
v 2.7 8.9 -2.5
v 2.7 9 -2.5
v 2.7 9 -2.6
v 2.7 8.9 -2.6
v 2.6 8.9 -2.6
v 2.6 9 -2.6
v 2.4 8.9 -2.6
v 2.4 8.8 -2.6
v 2.4 8.8 -2.5
v 2.4 8.9 -2.5
v 2.4 8.8 -2.5
v 2.4 8.8 -2.6
v 2.5 8.8 -2.6
v 2.5 8.8 -2.5
v 2.4 8.9 -2.5
v 2.4 8.8 -2.5
v 2.5 8.8 -2.5
v 2.5 8.9 -2.5
v 2.5 8.9 -2.6
v 2.5 8.8 -2.6
v 2.4 8.8 -2.6
v 2.4 8.9 -2.6
v 2.5 8.9 -2.5
v 2.5 8.8 -2.5
v 2.6 8.8 -2.5
v 2.6 8.9 -2.5
v 2.6 8.9 -2.6
v 2.6 8.8 -2.6
v 2.5 8.8 -2.6
v 2.5 8.9 -2.6
v 2.6 8.9 -2.5
v 2.6 8.8 -2.5
v 2.7 8.8 -2.5
v 2.7 8.9 -2.5
v 2.7 8.9 -2.6
v 2.7 8.8 -2.6
v 2.6 8.8 -2.6
v 2.6 8.9 -2.6
v 2.8 8.9 -2.5
v 2.8 8.8 -2.5
v 2.8 8.8 -2.6
v 2.8 8.9 -2.6
v 2.7 8.9 -2.6
v 2.7 8.9 -2.5
v 2.8 8.9 -2.5
v 2.8 8.9 -2.6
v 2.7 8.9 -2.5
v 2.7 8.8 -2.5
v 2.8 8.8 -2.5
v 2.8 8.9 -2.5
v 2.8 8.9 -2.6
v 2.8 8.8 -2.6
v 2.7 8.8 -2.6
v 2.7 8.9 -2.6
v 2.5 8.8 -2.6
v 2.5 8.7 -2.6
v 2.5 8.7 -2.5
v 2.5 8.8 -2.5
v 2.5 8.7 -2.5
v 2.5 8.7 -2.6
v 2.6 8.7 -2.6
v 2.6 8.7 -2.5
v 2.5 8.8 -2.5
v 2.5 8.7 -2.5
v 2.6 8.7 -2.5
v 2.6 8.8 -2.5
v 2.6 8.8 -2.6
v 2.6 8.7 -2.6
v 2.5 8.7 -2.6
v 2.5 8.8 -2.6
v 2.6 8.7 -2.5
v 2.6 8.7 -2.6
v 2.7 8.7 -2.6
v 2.7 8.7 -2.5
v 2.6 8.8 -2.5
v 2.6 8.7 -2.5
v 2.7 8.7 -2.5
v 2.7 8.8 -2.5
v 2.7 8.8 -2.6
v 2.7 8.7 -2.6
v 2.6 8.7 -2.6
v 2.6 8.8 -2.6
v 2.7 8.8 -2.5
v 2.7 8.7 -2.5
v 2.8 8.7 -2.5
v 2.8 8.8 -2.5
v 2.8 8.8 -2.6
v 2.8 8.7 -2.6
v 2.7 8.7 -2.6
v 2.7 8.8 -2.6
v 2.8 8.8 -2.6
v 2.8 8.8 -2.5
v 2.9 8.8 -2.5
v 2.9 8.8 -2.6
v 2.8 8.8 -2.5
v 2.8 8.7 -2.5
v 2.9 8.7 -2.5
v 2.9 8.8 -2.5
v 2.9 8.8 -2.6
v 2.9 8.7 -2.6
v 2.8 8.7 -2.6
v 2.8 8.8 -2.6
v 3 8.8 -2.5
v 3 8.7 -2.5
v 3 8.7 -2.6
v 3 8.8 -2.6
v 2.9 8.8 -2.6
v 2.9 8.8 -2.5
v 3 8.8 -2.5
v 3 8.8 -2.6
v 2.9 8.8 -2.5
v 2.9 8.7 -2.5
v 3 8.7 -2.5
v 3 8.8 -2.5
v 3 8.8 -2.6
v 3 8.7 -2.6
v 2.9 8.7 -2.6
v 2.9 8.8 -2.6
v 2.7 8.7 -2.6
v 2.7 8.6 -2.6
v 2.7 8.6 -2.5
v 2.7 8.7 -2.5
v 2.7 8.6 -2.5
v 2.7 8.6 -2.6
v 2.8 8.6 -2.6
v 2.8 8.6 -2.5
v 2.7 8.7 -2.5
v 2.7 8.6 -2.5
v 2.8 8.6 -2.5
v 2.8 8.7 -2.5
v 2.8 8.7 -2.6
v 2.8 8.6 -2.6
v 2.7 8.6 -2.6
v 2.7 8.7 -2.6
v 2.8 8.7 -2.5
v 2.8 8.6 -2.5
v 2.9 8.6 -2.5
v 2.9 8.7 -2.5
v 2.9 8.7 -2.6
v 2.9 8.6 -2.6
v 2.8 8.6 -2.6
v 2.8 8.7 -2.6
v 2.9 8.7 -2.5
v 2.9 8.6 -2.5
v 3 8.6 -2.5
v 3 8.7 -2.5
v 3 8.7 -2.6
v 3 8.6 -2.6
v 2.9 8.6 -2.6
v 2.9 8.7 -2.6
v 3.1 8.7 -2.5
v 3.1 8.6 -2.5
v 3.1 8.6 -2.6
v 3.1 8.7 -2.6
v 3 8.7 -2.6
v 3 8.7 -2.5
v 3.1 8.7 -2.5
v 3.1 8.7 -2.6
v 3 8.7 -2.5
v 3 8.6 -2.5
v 3.1 8.6 -2.5
v 3.1 8.7 -2.5
v 3.1 8.7 -2.6
v 3.1 8.6 -2.6
v 3 8.6 -2.6
v 3 8.7 -2.6
v 2.8 8.6 -2.6
v 2.8 8.5 -2.6
v 2.8 8.5 -2.5
v 2.8 8.6 -2.5
v 2.8 8.5 -2.5
v 2.8 8.5 -2.6
v 2.9 8.5 -2.6
v 2.9 8.5 -2.5
v 2.8 8.6 -2.5
v 2.8 8.5 -2.5
v 2.9 8.5 -2.5
v 2.9 8.6 -2.5
v 2.9 8.6 -2.6
v 2.9 8.5 -2.6
v 2.8 8.5 -2.6
v 2.8 8.6 -2.6
v 2.9 8.6 -2.5
v 2.9 8.5 -2.5
v 3 8.5 -2.5
v 3 8.6 -2.5
v 3 8.6 -2.6
v 3 8.5 -2.6
v 2.9 8.5 -2.6
v 2.9 8.6 -2.6
v 3 8.6 -2.5
v 3 8.5 -2.5
v 3.1 8.5 -2.5
v 3.1 8.6 -2.5
v 3.1 8.6 -2.6
v 3.1 8.5 -2.6
v 3 8.5 -2.6
v 3 8.6 -2.6
v 3.1 8.6 -2.6
v 3.1 8.6 -2.5
v 3.2 8.6 -2.5
v 3.2 8.6 -2.6
v 3.1 8.6 -2.5
v 3.1 8.5 -2.5
v 3.2 8.5 -2.5
v 3.2 8.6 -2.5
v 3.2 8.6 -2.6
v 3.2 8.5 -2.6
v 3.1 8.5 -2.6
v 3.1 8.6 -2.6
v 3.3 8.6 -2.5
v 3.3 8.5 -2.5
v 3.3 8.5 -2.6
v 3.3 8.6 -2.6
v 3.2 8.6 -2.6
v 3.2 8.6 -2.5
v 3.3 8.6 -2.5
v 3.3 8.6 -2.6
v 3.2 8.6 -2.5
v 3.2 8.5 -2.5
v 3.3 8.5 -2.5
v 3.3 8.6 -2.5
v 3.3 8.6 -2.6
v 3.3 8.5 -2.6
v 3.2 8.5 -2.6
v 3.2 8.6 -2.6
v 2.9 8.5 -2.6
v 2.9 8.4 -2.6
v 2.9 8.4 -2.5
v 2.9 8.5 -2.5
v 2.9 8.4 -2.5
v 2.9 8.4 -2.6
v 3 8.4 -2.6
v 3 8.4 -2.5
v 2.9 8.5 -2.5
v 2.9 8.4 -2.5
v 3 8.4 -2.5
v 3 8.5 -2.5
v 3 8.5 -2.6
v 3 8.4 -2.6
v 2.9 8.4 -2.6
v 2.9 8.5 -2.6
v 3 8.5 -2.5
v 3 8.4 -2.5
v 3.1 8.4 -2.5
v 3.1 8.5 -2.5
v 3.1 8.5 -2.6
v 3.1 8.4 -2.6
v 3 8.4 -2.6
v 3 8.5 -2.6
v 3.1 8.5 -2.5
v 3.1 8.4 -2.5
v 3.2 8.4 -2.5
v 3.2 8.5 -2.5
v 3.2 8.5 -2.6
v 3.2 8.4 -2.6
v 3.1 8.4 -2.6
v 3.1 8.5 -2.6
v 3.2 8.5 -2.5
v 3.2 8.4 -2.5
v 3.3 8.4 -2.5
v 3.3 8.5 -2.5
v 3.3 8.5 -2.6
v 3.3 8.4 -2.6
v 3.2 8.4 -2.6
v 3.2 8.5 -2.6
v 3.4 8.5 -2.5
v 3.4 8.4 -2.5
v 3.4 8.4 -2.6
v 3.4 8.5 -2.6
v 3.3 8.5 -2.6
v 3.3 8.5 -2.5
v 3.4 8.5 -2.5
v 3.4 8.5 -2.6
v 3.3 8.5 -2.5
v 3.3 8.4 -2.5
v 3.4 8.4 -2.5
v 3.4 8.5 -2.5
v 3.4 8.5 -2.6
v 3.4 8.4 -2.6
v 3.3 8.4 -2.6
v 3.3 8.5 -2.6
v 3 8.4 -2.6
v 3 8.3 -2.6
v 3 8.3 -2.5
v 3 8.4 -2.5
v 3 8.3 -2.5
v 3 8.3 -2.6
v 3.1 8.3 -2.6
v 3.1 8.3 -2.5
v 3 8.4 -2.5
v 3 8.3 -2.5
v 3.1 8.3 -2.5
v 3.1 8.4 -2.5
v 3.1 8.4 -2.6
v 3.1 8.3 -2.6
v 3 8.3 -2.6
v 3 8.4 -2.6
v 3.1 8.3 -2.5
v 3.1 8.3 -2.6
v 3.2 8.3 -2.6
v 3.2 8.3 -2.5
v 3.1 8.4 -2.5
v 3.1 8.3 -2.5
v 3.2 8.3 -2.5
v 3.2 8.4 -2.5
v 3.2 8.4 -2.6
v 3.2 8.3 -2.6
v 3.1 8.3 -2.6
v 3.1 8.4 -2.6
v 3.2 8.4 -2.5
v 3.2 8.3 -2.5
v 3.3 8.3 -2.5
v 3.3 8.4 -2.5
v 3.3 8.4 -2.6
v 3.3 8.3 -2.6
v 3.2 8.3 -2.6
v 3.2 8.4 -2.6
v 3.3 8.4 -2.5
v 3.3 8.3 -2.5
v 3.4 8.3 -2.5
v 3.4 8.4 -2.5
v 3.4 8.4 -2.6
v 3.4 8.3 -2.6
v 3.3 8.3 -2.6
v 3.3 8.4 -2.6
v 3.4 8.4 -2.6
v 3.4 8.4 -2.5
v 3.5 8.4 -2.5
v 3.5 8.4 -2.6
v 3.4 8.4 -2.5
v 3.4 8.3 -2.5
v 3.5 8.3 -2.5
v 3.5 8.4 -2.5
v 3.5 8.4 -2.6
v 3.5 8.3 -2.6
v 3.4 8.3 -2.6
v 3.4 8.4 -2.6
v 3.6 8.4 -2.5
v 3.6 8.3 -2.5
v 3.6 8.3 -2.6
v 3.6 8.4 -2.6
v 3.5 8.4 -2.6
v 3.5 8.4 -2.5
v 3.6 8.4 -2.5
v 3.6 8.4 -2.6
v 3.5 8.4 -2.5
v 3.5 8.3 -2.5
v 3.6 8.3 -2.5
v 3.6 8.4 -2.5
v 3.6 8.4 -2.6
v 3.6 8.3 -2.6
v 3.5 8.3 -2.6
v 3.5 8.4 -2.6
v 3.2 8.3 -2.6
v 3.2 8.2 -2.6
v 3.2 8.2 -2.5
v 3.2 8.3 -2.5
v 3.2 8.2 -2.5
v 3.2 8.2 -2.6
v 3.3 8.2 -2.6
v 3.3 8.2 -2.5
v 3.2 8.3 -2.5
v 3.2 8.2 -2.5
v 3.3 8.2 -2.5
v 3.3 8.3 -2.5
v 3.3 8.3 -2.6
v 3.3 8.2 -2.6
v 3.2 8.2 -2.6
v 3.2 8.3 -2.6
v 3.3 8.3 -2.5
v 3.3 8.2 -2.5
v 3.4 8.2 -2.5
v 3.4 8.3 -2.5
v 3.4 8.3 -2.6
v 3.4 8.2 -2.6
v 3.3 8.2 -2.6
v 3.3 8.3 -2.6
v 3.4 8.3 -2.5
v 3.4 8.2 -2.5
v 3.5 8.2 -2.5
v 3.5 8.3 -2.5
v 3.5 8.3 -2.6
v 3.5 8.2 -2.6
v 3.4 8.2 -2.6
v 3.4 8.3 -2.6
v 3.5 8.3 -2.5
v 3.5 8.2 -2.5
v 3.6 8.2 -2.5
v 3.6 8.3 -2.5
v 3.6 8.3 -2.6
v 3.6 8.2 -2.6
v 3.5 8.2 -2.6
v 3.5 8.3 -2.6
v 3.7 8.3 -2.5
v 3.7 8.2 -2.5
v 3.7 8.2 -2.6
v 3.7 8.3 -2.6
v 3.6 8.3 -2.6
v 3.6 8.3 -2.5
v 3.7 8.3 -2.5
v 3.7 8.3 -2.6
v 3.6 8.2 -2.5
v 3.6 8.2 -2.6
v 3.7 8.2 -2.6
v 3.7 8.2 -2.5
v 3.6 8.3 -2.5
v 3.6 8.2 -2.5
v 3.7 8.2 -2.5
v 3.7 8.3 -2.5
v 3.7 8.3 -2.6
v 3.7 8.2 -2.6
v 3.6 8.2 -2.6
v 3.6 8.3 -2.6
v 3.3 8.2 -2.6
v 3.3 8.1 -2.6
v 3.3 8.1 -2.5
v 3.3 8.2 -2.5
v 3.3 8.1 -2.5
v 3.3 8.1 -2.6
v 3.4 8.1 -2.6
v 3.4 8.1 -2.5
v 3.3 8.2 -2.5
v 3.3 8.1 -2.5
v 3.4 8.1 -2.5
v 3.4 8.2 -2.5
v 3.4 8.2 -2.6
v 3.4 8.1 -2.6
v 3.3 8.1 -2.6
v 3.3 8.2 -2.6
v 3.4 8.1 -2.5
v 3.4 8.1 -2.6
v 3.5 8.1 -2.6
v 3.5 8.1 -2.5
v 3.4 8.2 -2.5
v 3.4 8.1 -2.5
v 3.5 8.1 -2.5
v 3.5 8.2 -2.5
v 3.5 8.2 -2.6
v 3.5 8.1 -2.6
v 3.4 8.1 -2.6
v 3.4 8.2 -2.6
v 3.6 8.2 -2.5
v 3.6 8.1 -2.5
v 3.6 8.1 -2.6
v 3.6 8.2 -2.6
v 3.5 8.2 -2.5
v 3.5 8.1 -2.5
v 3.6 8.1 -2.5
v 3.6 8.2 -2.5
v 3.6 8.2 -2.6
v 3.6 8.1 -2.6
v 3.5 8.1 -2.6
v 3.5 8.2 -2.6
v 3.5 8.1 -2.6
v 3.5 8 -2.6
v 3.5 8 -2.5
v 3.5 8.1 -2.5
v 3.6 8.1 -2.5
v 3.6 8 -2.5
v 3.6 8 -2.6
v 3.6 8.1 -2.6
v 3.5 8 -2.5
v 3.5 8 -2.6
v 3.6 8 -2.6
v 3.6 8 -2.5
v 3.5 8.1 -2.5
v 3.5 8 -2.5
v 3.6 8 -2.5
v 3.6 8.1 -2.5
v 3.6 8.1 -2.6
v 3.6 8 -2.6
v 3.5 8 -2.6
v 3.5 8.1 -2.6
v 4.5 7.8 -2.6
v 4.5 7.7 -2.6
v 4.5 7.7 -2.5
v 4.5 7.8 -2.5
v 4.6 7.8 -2.5
v 4.6 7.7 -2.5
v 4.6 7.7 -2.6
v 4.6 7.8 -2.6
v 4.5 7.8 -2.6
v 4.5 7.8 -2.5
v 4.6 7.8 -2.5
v 4.6 7.8 -2.6
v 4.5 7.8 -2.5
v 4.5 7.7 -2.5
v 4.6 7.7 -2.5
v 4.6 7.8 -2.5
v 4.6 7.8 -2.6
v 4.6 7.7 -2.6
v 4.5 7.7 -2.6
v 4.5 7.8 -2.6
v 4.5 7.7 -2.6
v 4.5 7.6 -2.6
v 4.5 7.6 -2.5
v 4.5 7.7 -2.5
v 4.5 7.7 -2.5
v 4.5 7.6 -2.5
v 4.6 7.6 -2.5
v 4.6 7.7 -2.5
v 4.6 7.7 -2.6
v 4.6 7.6 -2.6
v 4.5 7.6 -2.6
v 4.5 7.7 -2.6
v 4.7 7.7 -2.5
v 4.7 7.6 -2.5
v 4.7 7.6 -2.6
v 4.7 7.7 -2.6
v 4.6 7.7 -2.6
v 4.6 7.7 -2.5
v 4.7 7.7 -2.5
v 4.7 7.7 -2.6
v 4.6 7.7 -2.5
v 4.6 7.6 -2.5
v 4.7 7.6 -2.5
v 4.7 7.7 -2.5
v 4.7 7.7 -2.6
v 4.7 7.6 -2.6
v 4.6 7.6 -2.6
v 4.6 7.7 -2.6
v 4.4 7.6 -2.6
v 4.4 7.5 -2.6
v 4.4 7.5 -2.5
v 4.4 7.6 -2.5
v 4.4 7.6 -2.6
v 4.4 7.6 -2.5
v 4.5 7.6 -2.5
v 4.5 7.6 -2.6
v 4.4 7.5 -2.5
v 4.4 7.5 -2.6
v 4.5 7.5 -2.6
v 4.5 7.5 -2.5
v 4.4 7.6 -2.5
v 4.4 7.5 -2.5
v 4.5 7.5 -2.5
v 4.5 7.6 -2.5
v 4.5 7.6 -2.6
v 4.5 7.5 -2.6
v 4.4 7.5 -2.6
v 4.4 7.6 -2.6
v 4.5 7.6 -2.5
v 4.5 7.5 -2.5
v 4.6 7.5 -2.5
v 4.6 7.6 -2.5
v 4.6 7.6 -2.6
v 4.6 7.5 -2.6
v 4.5 7.5 -2.6
v 4.5 7.6 -2.6
v 4.6 7.6 -2.5
v 4.6 7.5 -2.5
v 4.7 7.5 -2.5
v 4.7 7.6 -2.5
v 4.7 7.6 -2.6
v 4.7 7.5 -2.6
v 4.6 7.5 -2.6
v 4.6 7.6 -2.6
v 4.7 7.6 -2.6
v 4.7 7.6 -2.5
v 4.8 7.6 -2.5
v 4.8 7.6 -2.6
v 4.7 7.6 -2.5
v 4.7 7.5 -2.5
v 4.8 7.5 -2.5
v 4.8 7.6 -2.5
v 4.8 7.6 -2.6
v 4.8 7.5 -2.6
v 4.7 7.5 -2.6
v 4.7 7.6 -2.6
v 4.9 7.6 -2.5
v 4.9 7.5 -2.5
v 4.9 7.5 -2.6
v 4.9 7.6 -2.6
v 4.8 7.6 -2.6
v 4.8 7.6 -2.5
v 4.9 7.6 -2.5
v 4.9 7.6 -2.6
v 4.8 7.6 -2.5
v 4.8 7.5 -2.5
v 4.9 7.5 -2.5
v 4.9 7.6 -2.5
v 4.9 7.6 -2.6
v 4.9 7.5 -2.6
v 4.8 7.5 -2.6
v 4.8 7.6 -2.6
v 4.5 7.5 -2.6
v 4.5 7.4 -2.6
v 4.5 7.4 -2.5
v 4.5 7.5 -2.5
v 4.5 7.4 -2.5
v 4.5 7.4 -2.6
v 4.6 7.4 -2.6
v 4.6 7.4 -2.5
v 4.5 7.5 -2.5
v 4.5 7.4 -2.5
v 4.6 7.4 -2.5
v 4.6 7.5 -2.5
v 4.6 7.5 -2.6
v 4.6 7.4 -2.6
v 4.5 7.4 -2.6
v 4.5 7.5 -2.6
v 4.6 7.4 -2.5
v 4.6 7.4 -2.6
v 4.7 7.4 -2.6
v 4.7 7.4 -2.5
v 4.6 7.5 -2.5
v 4.6 7.4 -2.5
v 4.7 7.4 -2.5
v 4.7 7.5 -2.5
v 4.7 7.5 -2.6
v 4.7 7.4 -2.6
v 4.6 7.4 -2.6
v 4.6 7.5 -2.6
v 4.7 7.5 -2.5
v 4.7 7.4 -2.5
v 4.8 7.4 -2.5
v 4.8 7.5 -2.5
v 4.8 7.5 -2.6
v 4.8 7.4 -2.6
v 4.7 7.4 -2.6
v 4.7 7.5 -2.6
v 4.8 7.5 -2.5
v 4.8 7.4 -2.5
v 4.9 7.4 -2.5
v 4.9 7.5 -2.5
v 4.9 7.5 -2.6
v 4.9 7.4 -2.6
v 4.8 7.4 -2.6
v 4.8 7.5 -2.6
v 5 7.5 -2.5
v 5 7.4 -2.5
v 5 7.4 -2.6
v 5 7.5 -2.6
v 4.9 7.5 -2.6
v 4.9 7.5 -2.5
v 5 7.5 -2.5
v 5 7.5 -2.6
v 4.9 7.5 -2.5
v 4.9 7.4 -2.5
v 5 7.4 -2.5
v 5 7.5 -2.5
v 5 7.5 -2.6
v 5 7.4 -2.6
v 4.9 7.4 -2.6
v 4.9 7.5 -2.6
v 4.7 7.4 -2.6
v 4.7 7.3 -2.6
v 4.7 7.3 -2.5
v 4.7 7.4 -2.5
v 4.7 7.3 -2.5
v 4.7 7.3 -2.6
v 4.8 7.3 -2.6
v 4.8 7.3 -2.5
v 4.7 7.4 -2.5
v 4.7 7.3 -2.5
v 4.8 7.3 -2.5
v 4.8 7.4 -2.5
v 4.8 7.4 -2.6
v 4.8 7.3 -2.6
v 4.7 7.3 -2.6
v 4.7 7.4 -2.6
v 4.8 7.3 -2.5
v 4.8 7.3 -2.6
v 4.9 7.3 -2.6
v 4.9 7.3 -2.5
v 4.8 7.4 -2.5
v 4.8 7.3 -2.5
v 4.9 7.3 -2.5
v 4.9 7.4 -2.5
v 4.9 7.4 -2.6
v 4.9 7.3 -2.6
v 4.8 7.3 -2.6
v 4.8 7.4 -2.6
v 4.9 7.4 -2.5
v 4.9 7.3 -2.5
v 5 7.3 -2.5
v 5 7.4 -2.5
v 5 7.4 -2.6
v 5 7.3 -2.6
v 4.9 7.3 -2.6
v 4.9 7.4 -2.6
v 5.1 7.4 -2.5
v 5.1 7.3 -2.5
v 5.1 7.3 -2.6
v 5.1 7.4 -2.6
v 5 7.4 -2.6
v 5 7.4 -2.5
v 5.1 7.4 -2.5
v 5.1 7.4 -2.6
v 5 7.4 -2.5
v 5 7.3 -2.5
v 5.1 7.3 -2.5
v 5.1 7.4 -2.5
v 5.1 7.4 -2.6
v 5.1 7.3 -2.6
v 5 7.3 -2.6
v 5 7.4 -2.6
v 4.9 7.3 -2.6
v 4.9 7.2 -2.6
v 4.9 7.2 -2.5
v 4.9 7.3 -2.5
v 4.9 7.2 -2.5
v 4.9 7.2 -2.6
v 5 7.2 -2.6
v 5 7.2 -2.5
v 4.9 7.3 -2.5
v 4.9 7.2 -2.5
v 5 7.2 -2.5
v 5 7.3 -2.5
v 5 7.3 -2.6
v 5 7.2 -2.6
v 4.9 7.2 -2.6
v 4.9 7.3 -2.6
v 5 7.3 -2.5
v 5 7.2 -2.5
v 5.1 7.2 -2.5
v 5.1 7.3 -2.5
v 5.1 7.3 -2.6
v 5.1 7.2 -2.6
v 5 7.2 -2.6
v 5 7.3 -2.6
v 5.1 7.3 -2.6
v 5.1 7.3 -2.5
v 5.2 7.3 -2.5
v 5.2 7.3 -2.6
v 5.1 7.3 -2.5
v 5.1 7.2 -2.5
v 5.2 7.2 -2.5
v 5.2 7.3 -2.5
v 5.2 7.3 -2.6
v 5.2 7.2 -2.6
v 5.1 7.2 -2.6
v 5.1 7.3 -2.6
v 5.3 7.3 -2.5
v 5.3 7.2 -2.5
v 5.3 7.2 -2.6
v 5.3 7.3 -2.6
v 5.2 7.3 -2.6
v 5.2 7.3 -2.5
v 5.3 7.3 -2.5
v 5.3 7.3 -2.6
v 5.2 7.3 -2.5
v 5.2 7.2 -2.5
v 5.3 7.2 -2.5
v 5.3 7.3 -2.5
v 5.3 7.3 -2.6
v 5.3 7.2 -2.6
v 5.2 7.2 -2.6
v 5.2 7.3 -2.6
v 5 7.2 -2.6
v 5 7.1 -2.6
v 5 7.1 -2.5
v 5 7.2 -2.5
v 5 7.1 -2.5
v 5 7.1 -2.6
v 5.1 7.1 -2.6
v 5.1 7.1 -2.5
v 5 7.2 -2.5
v 5 7.1 -2.5
v 5.1 7.1 -2.5
v 5.1 7.2 -2.5
v 5.1 7.2 -2.6
v 5.1 7.1 -2.6
v 5 7.1 -2.6
v 5 7.2 -2.6
v 5.1 7.1 -2.5
v 5.1 7.1 -2.6
v 5.2 7.1 -2.6
v 5.2 7.1 -2.5
v 5.1 7.2 -2.5
v 5.1 7.1 -2.5
v 5.2 7.1 -2.5
v 5.2 7.2 -2.5
v 5.2 7.2 -2.6
v 5.2 7.1 -2.6
v 5.1 7.1 -2.6
v 5.1 7.2 -2.6
v 5.2 7.2 -2.5
v 5.2 7.1 -2.5
v 5.3 7.1 -2.5
v 5.3 7.2 -2.5
v 5.3 7.2 -2.6
v 5.3 7.1 -2.6
v 5.2 7.1 -2.6
v 5.2 7.2 -2.6
v 5.4 7.2 -2.5
v 5.4 7.1 -2.5
v 5.4 7.1 -2.6
v 5.4 7.2 -2.6
v 5.3 7.2 -2.6
v 5.3 7.2 -2.5
v 5.4 7.2 -2.5
v 5.4 7.2 -2.6
v 5.3 7.2 -2.5
v 5.3 7.1 -2.5
v 5.4 7.1 -2.5
v 5.4 7.2 -2.5
v 5.4 7.2 -2.6
v 5.4 7.1 -2.6
v 5.3 7.1 -2.6
v 5.3 7.2 -2.6
v 5.2 7.1 -2.6
v 5.2 7 -2.6
v 5.2 7 -2.5
v 5.2 7.1 -2.5
v 5.2 7 -2.5
v 5.2 7 -2.6
v 5.3 7 -2.6
v 5.3 7 -2.5
v 5.2 7.1 -2.5
v 5.2 7 -2.5
v 5.3 7 -2.5
v 5.3 7.1 -2.5
v 5.3 7.1 -2.6
v 5.3 7 -2.6
v 5.2 7 -2.6
v 5.2 7.1 -2.6
v 5.3 7.1 -2.5
v 5.3 7 -2.5
v 5.4 7 -2.5
v 5.4 7.1 -2.5
v 5.4 7.1 -2.6
v 5.4 7 -2.6
v 5.3 7 -2.6
v 5.3 7.1 -2.6
v 5.5 7.1 -2.5
v 5.5 7 -2.5
v 5.5 7 -2.6
v 5.5 7.1 -2.6
v 5.4 7.1 -2.6
v 5.4 7.1 -2.5
v 5.5 7.1 -2.5
v 5.5 7.1 -2.6
v 5.4 7 -2.5
v 5.4 7 -2.6
v 5.5 7 -2.6
v 5.5 7 -2.5
v 5.4 7.1 -2.5
v 5.4 7 -2.5
v 5.5 7 -2.5
v 5.5 7.1 -2.5
v 5.5 7.1 -2.6
v 5.5 7 -2.6
v 5.4 7 -2.6
v 5.4 7.1 -2.6
v 5.3 7 -2.6
v 5.3 6.9 -2.6
v 5.3 6.9 -2.5
v 5.3 7 -2.5
v 5.4 7 -2.5
v 5.4 6.9 -2.5
v 5.4 6.9 -2.6
v 5.4 7 -2.6
v 5.3 6.9 -2.5
v 5.3 6.9 -2.6
v 5.4 6.9 -2.6
v 5.4 6.9 -2.5
v 5.3 7 -2.5
v 5.3 6.9 -2.5
v 5.4 6.9 -2.5
v 5.4 7 -2.5
v 5.4 7 -2.6
v 5.4 6.9 -2.6
v 5.3 6.9 -2.6
v 5.3 7 -2.6

# faces
f 1/1/1 2/1/1 3/1/1 4/1/1
f 5/1/2 6/1/2 7/1/2 8/1/2
f 9/1/3 10/1/3 11/1/3 12/1/3
f 13/1/5 14/1/5 15/1/5 16/1/5
f 17/1/6 18/1/6 19/1/6 20/1/6
f 21/1/1 22/1/1 23/1/1 24/1/1
f 25/1/3 26/1/3 27/1/3 28/1/3
f 29/1/4 30/1/4 31/1/4 32/1/4
f 33/1/5 34/1/5 35/1/5 36/1/5
f 37/1/6 38/1/6 39/1/6 40/1/6
f 41/2/5 42/2/5 43/2/5 44/2/5
f 45/2/6 46/2/6 47/2/6 48/2/6
f 49/1/2 50/1/2 51/1/2 52/1/2
f 53/1/3 54/1/3 55/1/3 56/1/3
f 57/1/4 58/1/4 59/1/4 60/1/4
f 61/1/5 62/1/5 63/1/5 64/1/5
f 65/1/6 66/1/6 67/1/6 68/1/6
f 69/1/1 70/1/1 71/1/1 72/1/1
f 73/1/2 74/1/2 75/1/2 76/1/2
f 77/1/4 78/1/4 79/1/4 80/1/4
f 81/1/5 82/1/5 83/1/5 84/1/5
f 85/1/6 86/1/6 87/1/6 88/1/6
f 89/1/1 90/1/1 91/1/1 92/1/1
f 93/1/2 94/1/2 95/1/2 96/1/2
f 97/1/3 98/1/3 99/1/3 100/1/3
f 101/1/5 102/1/5 103/1/5 104/1/5
f 105/1/6 106/1/6 107/1/6 108/1/6
f 109/1/1 110/1/1 111/1/1 112/1/1
f 113/1/3 114/1/3 115/1/3 116/1/3
f 117/1/4 118/1/4 119/1/4 120/1/4
f 121/1/5 122/1/5 123/1/5 124/1/5
f 125/1/6 126/1/6 127/1/6 128/1/6
f 129/2/5 130/2/5 131/2/5 132/2/5
f 133/2/6 134/2/6 135/2/6 136/2/6
f 137/1/2 138/1/2 139/1/2 140/1/2
f 141/1/3 142/1/3 143/1/3 144/1/3
f 145/1/5 146/1/5 147/1/5 148/1/5
f 149/1/6 150/1/6 151/1/6 152/1/6
f 153/1/1 154/1/1 155/1/1 156/1/1
f 157/1/4 158/1/4 159/1/4 160/1/4
f 161/1/5 162/1/5 163/1/5 164/1/5
f 165/1/6 166/1/6 167/1/6 168/1/6
f 169/2/5 170/2/5 171/2/5 172/2/5
f 173/2/6 174/2/6 175/2/6 176/2/6
f 177/1/3 178/1/3 179/1/3 180/1/3
f 181/1/5 182/1/5 183/1/5 184/1/5
f 185/1/6 186/1/6 187/1/6 188/1/6
f 189/1/2 190/1/2 191/1/2 192/1/2
f 193/1/3 194/1/3 195/1/3 196/1/3
f 197/1/5 198/1/5 199/1/5 200/1/5
f 201/1/6 202/1/6 203/1/6 204/1/6
f 205/1/1 206/1/1 207/1/1 208/1/1
f 209/1/4 210/1/4 211/1/4 212/1/4
f 213/1/5 214/1/5 215/1/5 216/1/5
f 217/1/6 218/1/6 219/1/6 220/1/6
f 221/1/4 222/1/4 223/1/4 224/1/4
f 225/1/5 226/1/5 227/1/5 228/1/5
f 229/1/6 230/1/6 231/1/6 232/1/6
f 233/2/5 234/2/5 235/2/5 236/2/5
f 237/2/6 238/2/6 239/2/6 240/2/6
f 241/1/2 242/1/2 243/1/2 244/1/2
f 245/1/3 246/1/3 247/1/3 248/1/3
f 249/1/5 250/1/5 251/1/5 252/1/5
f 253/1/6 254/1/6 255/1/6 256/1/6
f 257/1/1 258/1/1 259/1/1 260/1/1
f 261/1/4 262/1/4 263/1/4 264/1/4
f 265/1/5 266/1/5 267/1/5 268/1/5
f 269/1/6 270/1/6 271/1/6 272/1/6
f 273/2/5 274/2/5 275/2/5 276/2/5
f 277/2/6 278/2/6 279/2/6 280/2/6
f 281/1/3 282/1/3 283/1/3 284/1/3
f 285/1/5 286/1/5 287/1/5 288/1/5
f 289/1/6 290/1/6 291/1/6 292/1/6
f 293/1/2 294/1/2 295/1/2 296/1/2
f 297/1/3 298/1/3 299/1/3 300/1/3
f 301/1/5 302/1/5 303/1/5 304/1/5
f 305/1/6 306/1/6 307/1/6 308/1/6
f 309/1/1 310/1/1 311/1/1 312/1/1
f 313/1/4 314/1/4 315/1/4 316/1/4
f 317/1/5 318/1/5 319/1/5 320/1/5
f 321/1/6 322/1/6 323/1/6 324/1/6
f 325/2/5 326/2/5 327/2/5 328/2/5
f 329/2/6 330/2/6 331/2/6 332/2/6
f 333/2/5 334/2/5 335/2/5 336/2/5
f 337/2/6 338/2/6 339/2/6 340/2/6
f 341/1/2 342/1/2 343/1/2 344/1/2
f 345/1/3 346/1/3 347/1/3 348/1/3
f 349/1/5 350/1/5 351/1/5 352/1/5
f 353/1/6 354/1/6 355/1/6 356/1/6
f 357/1/1 358/1/1 359/1/1 360/1/1
f 361/1/4 362/1/4 363/1/4 364/1/4
f 365/1/5 366/1/5 367/1/5 368/1/5
f 369/1/6 370/1/6 371/1/6 372/1/6
f 373/1/4 374/1/4 375/1/4 376/1/4
f 377/1/5 378/1/5 379/1/5 380/1/5
f 381/1/6 382/1/6 383/1/6 384/1/6
f 385/2/5 386/2/5 387/2/5 388/2/5
f 389/2/6 390/2/6 391/2/6 392/2/6
f 393/1/3 394/1/3 395/1/3 396/1/3
f 397/1/5 398/1/5 399/1/5 400/1/5
f 401/1/6 402/1/6 403/1/6 404/1/6
f 405/1/2 406/1/2 407/1/2 408/1/2
f 409/1/3 410/1/3 411/1/3 412/1/3
f 413/1/5 414/1/5 415/1/5 416/1/5
f 417/1/6 418/1/6 419/1/6 420/1/6
f 421/1/1 422/1/1 423/1/1 424/1/1
f 425/1/4 426/1/4 427/1/4 428/1/4
f 429/1/5 430/1/5 431/1/5 432/1/5
f 433/1/6 434/1/6 435/1/6 436/1/6
f 437/2/5 438/2/5 439/2/5 440/2/5
f 441/2/6 442/2/6 443/2/6 444/2/6
f 445/2/5 446/2/5 447/2/5 448/2/5
f 449/2/6 450/2/6 451/2/6 452/2/6
f 453/1/2 454/1/2 455/1/2 456/1/2
f 457/1/3 458/1/3 459/1/3 460/1/3
f 461/1/5 462/1/5 463/1/5 464/1/5
f 465/1/6 466/1/6 467/1/6 468/1/6
f 469/1/1 470/1/1 471/1/1 472/1/1
f 473/1/4 474/1/4 475/1/4 476/1/4
f 477/1/5 478/1/5 479/1/5 480/1/5
f 481/1/6 482/1/6 483/1/6 484/1/6
f 485/2/5 486/2/5 487/2/5 488/2/5
f 489/2/6 490/2/6 491/2/6 492/2/6
f 493/2/5 494/2/5 495/2/5 496/2/5
f 497/2/6 498/2/6 499/2/6 500/2/6
f 501/1/3 502/1/3 503/1/3 504/1/3
f 505/1/5 506/1/5 507/1/5 508/1/5
f 509/1/6 510/1/6 511/1/6 512/1/6
f 513/1/2 514/1/2 515/1/2 516/1/2
f 517/1/3 518/1/3 519/1/3 520/1/3
f 521/1/5 522/1/5 523/1/5 524/1/5
f 525/1/6 526/1/6 527/1/6 528/1/6
f 529/1/1 530/1/1 531/1/1 532/1/1
f 533/1/4 534/1/4 535/1/4 536/1/4
f 537/1/5 538/1/5 539/1/5 540/1/5
f 541/1/6 542/1/6 543/1/6 544/1/6
f 545/2/5 546/2/5 547/2/5 548/2/5
f 549/2/6 550/2/6 551/2/6 552/2/6
f 553/2/5 554/2/5 555/2/5 556/2/5
f 557/2/6 558/2/6 559/2/6 560/2/6
f 561/2/5 562/2/5 563/2/5 564/2/5
f 565/2/6 566/2/6 567/2/6 568/2/6
f 569/1/2 570/1/2 571/1/2 572/1/2
f 573/1/3 574/1/3 575/1/3 576/1/3
f 577/1/5 578/1/5 579/1/5 580/1/5
f 581/1/6 582/1/6 583/1/6 584/1/6
f 585/1/1 586/1/1 587/1/1 588/1/1
f 589/1/4 590/1/4 591/1/4 592/1/4
f 593/1/5 594/1/5 595/1/5 596/1/5
f 597/1/6 598/1/6 599/1/6 600/1/6
f 601/1/4 602/1/4 603/1/4 604/1/4
f 605/1/5 606/1/5 607/1/5 608/1/5
f 609/1/6 610/1/6 611/1/6 612/1/6
f 613/2/5 614/2/5 615/2/5 616/2/5
f 617/2/6 618/2/6 619/2/6 620/2/6
f 621/2/5 622/2/5 623/2/5 624/2/5
f 625/2/6 626/2/6 627/2/6 628/2/6
f 629/1/3 630/1/3 631/1/3 632/1/3
f 633/1/5 634/1/5 635/1/5 636/1/5
f 637/1/6 638/1/6 639/1/6 640/1/6
f 641/1/2 642/1/2 643/1/2 644/1/2
f 645/1/3 646/1/3 647/1/3 648/1/3
f 649/1/5 650/1/5 651/1/5 652/1/5
f 653/1/6 654/1/6 655/1/6 656/1/6
f 657/1/1 658/1/1 659/1/1 660/1/1
f 661/1/4 662/1/4 663/1/4 664/1/4
f 665/1/5 666/1/5 667/1/5 668/1/5
f 669/1/6 670/1/6 671/1/6 672/1/6
f 673/2/5 674/2/5 675/2/5 676/2/5
f 677/2/6 678/2/6 679/2/6 680/2/6
f 681/2/5 682/2/5 683/2/5 684/2/5
f 685/2/6 686/2/6 687/2/6 688/2/6
f 689/2/5 690/2/5 691/2/5 692/2/5
f 693/2/6 694/2/6 695/2/6 696/2/6
f 697/1/2 698/1/2 699/1/2 700/1/2
f 701/1/3 702/1/3 703/1/3 704/1/3
f 705/1/4 706/1/4 707/1/4 708/1/4
f 709/1/5 710/1/5 711/1/5 712/1/5
f 713/1/6 714/1/6 715/1/6 716/1/6
f 717/1/1 718/1/1 719/1/1 720/1/1
f 721/1/4 722/1/4 723/1/4 724/1/4
f 725/1/5 726/1/5 727/1/5 728/1/5
f 729/1/6 730/1/6 731/1/6 732/1/6
f 733/1/4 734/1/4 735/1/4 736/1/4
f 737/1/5 738/1/5 739/1/5 740/1/5
f 741/1/6 742/1/6 743/1/6 744/1/6
f 745/2/2 746/2/2 747/2/2 748/2/2
f 749/2/5 750/2/5 751/2/5 752/2/5
f 753/2/6 754/2/6 755/2/6 756/2/6
f 757/1/1 758/1/1 759/1/1 760/1/1
f 761/1/2 762/1/2 763/1/2 764/1/2
f 765/1/4 766/1/4 767/1/4 768/1/4
f 769/1/5 770/1/5 771/1/5 772/1/5
f 773/1/6 774/1/6 775/1/6 776/1/6
f 777/1/1 778/1/1 779/1/1 780/1/1
f 781/1/2 782/1/2 783/1/2 784/1/2
f 785/1/3 786/1/3 787/1/3 788/1/3
f 789/1/5 790/1/5 791/1/5 792/1/5
f 793/1/6 794/1/6 795/1/6 796/1/6
f 797/2/1 798/2/1 799/2/1 800/2/1
f 801/2/5 802/2/5 803/2/5 804/2/5
f 805/2/6 806/2/6 807/2/6 808/2/6
f 809/1/2 810/1/2 811/1/2 812/1/2
f 813/1/3 814/1/3 815/1/3 816/1/3
f 817/1/5 818/1/5 819/1/5 820/1/5
f 821/1/6 822/1/6 823/1/6 824/1/6
f 825/1/1 826/1/1 827/1/1 828/1/1
f 829/1/3 830/1/3 831/1/3 832/1/3
f 833/1/4 834/1/4 835/1/4 836/1/4
f 837/1/5 838/1/5 839/1/5 840/1/5
f 841/1/6 842/1/6 843/1/6 844/1/6
f 845/2/5 846/2/5 847/2/5 848/2/5
f 849/2/6 850/2/6 851/2/6 852/2/6
f 853/2/5 854/2/5 855/2/5 856/2/5
f 857/2/6 858/2/6 859/2/6 860/2/6
f 861/1/3 862/1/3 863/1/3 864/1/3
f 865/1/5 866/1/5 867/1/5 868/1/5
f 869/1/6 870/1/6 871/1/6 872/1/6
f 873/1/2 874/1/2 875/1/2 876/1/2
f 877/1/3 878/1/3 879/1/3 880/1/3
f 881/1/5 882/1/5 883/1/5 884/1/5
f 885/1/6 886/1/6 887/1/6 888/1/6
f 889/1/1 890/1/1 891/1/1 892/1/1
f 893/1/4 894/1/4 895/1/4 896/1/4
f 897/1/5 898/1/5 899/1/5 900/1/5
f 901/1/6 902/1/6 903/1/6 904/1/6
f 905/1/4 906/1/4 907/1/4 908/1/4
f 909/1/5 910/1/5 911/1/5 912/1/5
f 913/1/6 914/1/6 915/1/6 916/1/6
f 917/2/5 918/2/5 919/2/5 920/2/5
f 921/2/6 922/2/6 923/2/6 924/2/6
f 925/2/5 926/2/5 927/2/5 928/2/5
f 929/2/6 930/2/6 931/2/6 932/2/6
f 933/1/2 934/1/2 935/1/2 936/1/2
f 937/1/3 938/1/3 939/1/3 940/1/3
f 941/1/5 942/1/5 943/1/5 944/1/5
f 945/1/6 946/1/6 947/1/6 948/1/6
f 949/1/1 950/1/1 951/1/1 952/1/1
f 953/1/4 954/1/4 955/1/4 956/1/4
f 957/1/5 958/1/5 959/1/5 960/1/5
f 961/1/6 962/1/6 963/1/6 964/1/6
f 965/1/4 966/1/4 967/1/4 968/1/4
f 969/1/5 970/1/5 971/1/5 972/1/5
f 973/1/6 974/1/6 975/1/6 976/1/6
f 977/2/5 978/2/5 979/2/5 980/2/5
f 981/2/6 982/2/6 983/2/6 984/2/6
f 985/1/2 986/1/2 987/1/2 988/1/2
f 989/1/3 990/1/3 991/1/3 992/1/3
f 993/1/5 994/1/5 995/1/5 996/1/5
f 997/1/6 998/1/6 999/1/6 1000/1/6
f 1001/1/1 1002/1/1 1003/1/1 1004/1/1
f 1005/1/4 1006/1/4 1007/1/4 1008/1/4
f 1009/1/5 1010/1/5 1011/1/5 1012/1/5
f 1013/1/6 1014/1/6 1015/1/6 1016/1/6
f 1017/2/5 1018/2/5 1019/2/5 1020/2/5
f 1021/2/6 1022/2/6 1023/2/6 1024/2/6
f 1025/1/3 1026/1/3 1027/1/3 1028/1/3
f 1029/1/5 1030/1/5 1031/1/5 1032/1/5
f 1033/1/6 1034/1/6 1035/1/6 1036/1/6
f 1037/1/2 1038/1/2 1039/1/2 1040/1/2
f 1041/1/3 1042/1/3 1043/1/3 1044/1/3
f 1045/1/5 1046/1/5 1047/1/5 1048/1/5
f 1049/1/6 1050/1/6 1051/1/6 1052/1/6
f 1053/1/1 1054/1/1 1055/1/1 1056/1/1
f 1057/1/4 1058/1/4 1059/1/4 1060/1/4
f 1061/1/5 1062/1/5 1063/1/5 1064/1/5
f 1065/1/6 1066/1/6 1067/1/6 1068/1/6
f 1069/1/4 1070/1/4 1071/1/4 1072/1/4
f 1073/1/5 1074/1/5 1075/1/5 1076/1/5
f 1077/1/6 1078/1/6 1079/1/6 1080/1/6
f 1081/2/5 1082/2/5 1083/2/5 1084/2/5
f 1085/2/6 1086/2/6 1087/2/6 1088/2/6
f 1089/1/2 1090/1/2 1091/1/2 1092/1/2
f 1093/1/3 1094/1/3 1095/1/3 1096/1/3
f 1097/1/5 1098/1/5 1099/1/5 1100/1/5
f 1101/1/6 1102/1/6 1103/1/6 1104/1/6
f 1105/1/1 1106/1/1 1107/1/1 1108/1/1
f 1109/1/4 1110/1/4 1111/1/4 1112/1/4
f 1113/1/5 1114/1/5 1115/1/5 1116/1/5
f 1117/1/6 1118/1/6 1119/1/6 1120/1/6
f 1121/2/5 1122/2/5 1123/2/5 1124/2/5
f 1125/2/6 1126/2/6 1127/2/6 1128/2/6
f 1129/1/2 1130/1/2 1131/1/2 1132/1/2
f 1133/1/3 1134/1/3 1135/1/3 1136/1/3
f 1137/1/4 1138/1/4 1139/1/4 1140/1/4
f 1141/1/5 1142/1/5 1143/1/5 1144/1/5
f 1145/1/6 1146/1/6 1147/1/6 1148/1/6
f 1149/1/1 1150/1/1 1151/1/1 1152/1/1
f 1153/1/2 1154/1/2 1155/1/2 1156/1/2
f 1157/1/4 1158/1/4 1159/1/4 1160/1/4
f 1161/1/5 1162/1/5 1163/1/5 1164/1/5
f 1165/1/6 1166/1/6 1167/1/6 1168/1/6

