# generated by vox_to_obj_exporter
# scale=0.1 center=false ground=false y_up=true

mtllib Fight_759.mtl
usemtl palette

# normals
vn -1 0 0
vn 1 0 0
vn 0 1 0
vn 0 -1 0
vn 0 0 1
vn 0 0 -1

# texcoords
vt 0.068359375 0.5
vt 0.162109375 0.5

# verts
v 26.4 3.5 -2.6
v 26.4 3.4 -2.6
v 26.4 3.4 -2.5
v 26.4 3.5 -2.5
v 26.5 3.5 -2.5
v 26.5 3.4 -2.5
v 26.5 3.4 -2.6
v 26.5 3.5 -2.6
v 26.4 3.5 -2.6
v 26.4 3.5 -2.5
v 26.5 3.5 -2.5
v 26.5 3.5 -2.6
v 26.4 3.5 -2.5
v 26.4 3.4 -2.5
v 26.5 3.4 -2.5
v 26.5 3.5 -2.5
v 26.5 3.5 -2.6
v 26.5 3.4 -2.6
v 26.4 3.4 -2.6
v 26.4 3.5 -2.6
v 22 3.4 -2.6
v 22 3.3 -2.6
v 22 3.3 -2.5
v 22 3.4 -2.5
v 22 3.4 -2.6
v 22 3.4 -2.5
v 22.1 3.4 -2.5
v 22.1 3.4 -2.6
v 22 3.4 -2.5
v 22 3.3 -2.5
v 22.1 3.3 -2.5
v 22.1 3.4 -2.5
v 22.1 3.4 -2.6
v 22.1 3.3 -2.6
v 22 3.3 -2.6
v 22 3.4 -2.6
v 22.2 3.4 -2.5
v 22.2 3.3 -2.5
v 22.2 3.3 -2.6
v 22.2 3.4 -2.6
v 22.1 3.4 -2.6
v 22.1 3.4 -2.5
v 22.2 3.4 -2.5
v 22.2 3.4 -2.6
v 22.1 3.4 -2.5
v 22.1 3.3 -2.5
v 22.2 3.3 -2.5
v 22.2 3.4 -2.5
v 22.2 3.4 -2.6
v 22.2 3.3 -2.6
v 22.1 3.3 -2.6
v 22.1 3.4 -2.6
v 26.2 3.4 -2.6
v 26.2 3.3 -2.6
v 26.2 3.3 -2.5
v 26.2 3.4 -2.5
v 26.2 3.4 -2.6
v 26.2 3.4 -2.5
v 26.3 3.4 -2.5
v 26.3 3.4 -2.6
v 26.2 3.3 -2.5
v 26.2 3.3 -2.6
v 26.3 3.3 -2.6
v 26.3 3.3 -2.5
v 26.2 3.4 -2.5
v 26.2 3.3 -2.5
v 26.3 3.3 -2.5
v 26.3 3.4 -2.5
v 26.3 3.4 -2.6
v 26.3 3.3 -2.6
v 26.2 3.3 -2.6
v 26.2 3.4 -2.6
v 26.3 3.4 -2.6
v 26.3 3.4 -2.5
v 26.4 3.4 -2.5
v 26.4 3.4 -2.6
v 26.3 3.4 -2.5
v 26.3 3.3 -2.5
v 26.4 3.3 -2.5
v 26.4 3.4 -2.5
v 26.4 3.4 -2.6
v 26.4 3.3 -2.6
v 26.3 3.3 -2.6
v 26.3 3.4 -2.6
v 26.4 3.4 -2.5
v 26.4 3.3 -2.5
v 26.5 3.3 -2.5
v 26.5 3.4 -2.5
v 26.5 3.4 -2.6
v 26.5 3.3 -2.6
v 26.4 3.3 -2.6
v 26.4 3.4 -2.6
v 26.6 3.4 -2.5
v 26.6 3.3 -2.5
v 26.6 3.3 -2.6
v 26.6 3.4 -2.6
v 26.5 3.4 -2.6
v 26.5 3.4 -2.5
v 26.6 3.4 -2.5
v 26.6 3.4 -2.6
v 26.5 3.4 -2.5
v 26.5 3.3 -2.5
v 26.6 3.3 -2.5
v 26.6 3.4 -2.5
v 26.6 3.4 -2.6
v 26.6 3.3 -2.6
v 26.5 3.3 -2.6
v 26.5 3.4 -2.6
v 21.8 3.3 -2.6
v 21.8 3.2 -2.6
v 21.8 3.2 -2.5
v 21.8 3.3 -2.5
v 21.8 3.3 -2.6
v 21.8 3.3 -2.5
v 21.9 3.3 -2.5
v 21.9 3.3 -2.6
v 21.8 3.2 -2.5
v 21.8 3.2 -2.6
v 21.9 3.2 -2.6
v 21.9 3.2 -2.5
v 21.8 3.3 -2.5
v 21.8 3.2 -2.5
v 21.9 3.2 -2.5
v 21.9 3.3 -2.5
v 21.9 3.3 -2.6
v 21.9 3.2 -2.6
v 21.8 3.2 -2.6
v 21.8 3.3 -2.6
v 21.9 3.3 -2.6
v 21.9 3.3 -2.5
v 22 3.3 -2.5
v 22 3.3 -2.6
v 21.9 3.3 -2.5
v 21.9 3.2 -2.5
v 22 3.2 -2.5
v 22 3.3 -2.5
v 22 3.3 -2.6
v 22 3.2 -2.6
v 21.9 3.2 -2.6
v 21.9 3.3 -2.6
v 22 3.3 -2.5
v 22 3.2 -2.5
v 22.1 3.2 -2.5
v 22.1 3.3 -2.5
v 22.1 3.3 -2.6
v 22.1 3.2 -2.6
v 22 3.2 -2.6
v 22 3.3 -2.6
v 22.1 3.3 -2.5
v 22.1 3.2 -2.5
v 22.2 3.2 -2.5
v 22.2 3.3 -2.5
v 22.2 3.3 -2.6
v 22.2 3.2 -2.6
v 22.1 3.2 -2.6
v 22.1 3.3 -2.6
v 22.3 3.3 -2.5
v 22.3 3.2 -2.5
v 22.3 3.2 -2.6
v 22.3 3.3 -2.6
v 22.2 3.3 -2.6
v 22.2 3.3 -2.5
v 22.3 3.3 -2.5
v 22.3 3.3 -2.6
v 22.2 3.3 -2.5
v 22.2 3.2 -2.5
v 22.3 3.2 -2.5
v 22.3 3.3 -2.5
v 22.3 3.3 -2.6
v 22.3 3.2 -2.6
v 22.2 3.2 -2.6
v 22.2 3.3 -2.6
v 26.3 3.3 -2.6
v 26.3 3.2 -2.6
v 26.3 3.2 -2.5
v 26.3 3.3 -2.5
v 26.3 3.2 -2.5
v 26.3 3.2 -2.6
v 26.4 3.2 -2.6
v 26.4 3.2 -2.5
v 26.3 3.3 -2.5
v 26.3 3.2 -2.5
v 26.4 3.2 -2.5
v 26.4 3.3 -2.5
v 26.4 3.3 -2.6
v 26.4 3.2 -2.6
v 26.3 3.2 -2.6
v 26.3 3.3 -2.6
v 26.4 3.2 -2.5
v 26.4 3.2 -2.6
v 26.5 3.2 -2.6
v 26.5 3.2 -2.5
v 26.4 3.3 -2.5
v 26.4 3.2 -2.5
v 26.5 3.2 -2.5
v 26.5 3.3 -2.5
v 26.5 3.3 -2.6
v 26.5 3.2 -2.6
v 26.4 3.2 -2.6
v 26.4 3.3 -2.6
v 26.6 3.3 -2.5
v 26.6 3.2 -2.5
v 26.6 3.2 -2.6
v 26.6 3.3 -2.6
v 26.5 3.2 -2.5
v 26.5 3.2 -2.6
v 26.6 3.2 -2.6
v 26.6 3.2 -2.5
v 26.5 3.3 -2.5
v 26.5 3.2 -2.5
v 26.6 3.2 -2.5
v 26.6 3.3 -2.5
v 26.6 3.3 -2.6
v 26.6 3.2 -2.6
v 26.5 3.2 -2.6
v 26.5 3.3 -2.6
v 21.9 3.2 -2.6
v 21.9 3.1 -2.6
v 21.9 3.1 -2.5
v 21.9 3.2 -2.5
v 21.9 3.1 -2.5
v 21.9 3.1 -2.6
v 22 3.1 -2.6
v 22 3.1 -2.5
v 21.9 3.2 -2.5
v 21.9 3.1 -2.5
v 22 3.1 -2.5
v 22 3.2 -2.5
v 22 3.2 -2.6
v 22 3.1 -2.6
v 21.9 3.1 -2.6
v 21.9 3.2 -2.6
v 22 3.1 -2.5
v 22 3.1 -2.6
v 22.1 3.1 -2.6
v 22.1 3.1 -2.5
v 22 3.2 -2.5
v 22 3.1 -2.5
v 22.1 3.1 -2.5
v 22.1 3.2 -2.5
v 22.1 3.2 -2.6
v 22.1 3.1 -2.6
v 22 3.1 -2.6
v 22 3.2 -2.6
v 22.1 3.1 -2.5
v 22.1 3.1 -2.6
v 22.2 3.1 -2.6
v 22.2 3.1 -2.5
v 22.1 3.2 -2.5
v 22.1 3.1 -2.5
v 22.2 3.1 -2.5
v 22.2 3.2 -2.5
v 22.2 3.2 -2.6
v 22.2 3.1 -2.6
v 22.1 3.1 -2.6
v 22.1 3.2 -2.6
v 22.3 3.2 -2.5
v 22.3 3.1 -2.5
v 22.3 3.1 -2.6
v 22.3 3.2 -2.6
v 22.2 3.1 -2.5
v 22.2 3.1 -2.6
v 22.3 3.1 -2.6
v 22.3 3.1 -2.5
v 22.2 3.2 -2.5
v 22.2 3.1 -2.5
v 22.3 3.1 -2.5
v 22.3 3.2 -2.5
v 22.3 3.2 -2.6
v 22.3 3.1 -2.6
v 22.2 3.1 -2.6
v 22.2 3.2 -2.6
v 29 2.4 -2.6
v 29 2.3 -2.6
v 29 2.3 -2.5
v 29 2.4 -2.5
v 29.1 2.4 -2.5
v 29.1 2.3 -2.5
v 29.1 2.3 -2.6
v 29.1 2.4 -2.6
v 29 2.4 -2.6
v 29 2.4 -2.5
v 29.1 2.4 -2.5
v 29.1 2.4 -2.6
v 29 2.4 -2.5
v 29 2.3 -2.5
v 29.1 2.3 -2.5
v 29.1 2.4 -2.5
v 29.1 2.4 -2.6
v 29.1 2.3 -2.6
v 29 2.3 -2.6
v 29 2.4 -2.6
v 29 2.3 -2.6
v 29 2.2 -2.6
v 29 2.2 -2.5
v 29 2.3 -2.5
v 29 2.3 -2.5
v 29 2.2 -2.5
v 29.1 2.2 -2.5
v 29.1 2.3 -2.5
v 29.1 2.3 -2.6
v 29.1 2.2 -2.6
v 29 2.2 -2.6
v 29 2.3 -2.6
v 29.2 2.3 -2.5
v 29.2 2.2 -2.5
v 29.2 2.2 -2.6
v 29.2 2.3 -2.6
v 29.1 2.3 -2.6
v 29.1 2.3 -2.5
v 29.2 2.3 -2.5
v 29.2 2.3 -2.6
v 29.1 2.3 -2.5
v 29.1 2.2 -2.5
v 29.2 2.2 -2.5
v 29.2 2.3 -2.5
v 29.2 2.3 -2.6
v 29.2 2.2 -2.6
v 29.1 2.2 -2.6
v 29.1 2.3 -2.6
v 28.9 2.2 -2.6
v 28.9 2.1 -2.6
v 28.9 2.1 -2.5
v 28.9 2.2 -2.5
v 28.9 2.2 -2.6
v 28.9 2.2 -2.5
v 29 2.2 -2.5
v 29 2.2 -2.6
v 28.9 2.2 -2.5
v 28.9 2.1 -2.5
v 29 2.1 -2.5
v 29 2.2 -2.5
v 29 2.2 -2.6
v 29 2.1 -2.6
v 28.9 2.1 -2.6
v 28.9 2.2 -2.6
v 29 2.2 -2.5
v 29 2.1 -2.5
v 29.1 2.1 -2.5
v 29.1 2.2 -2.5
v 29.1 2.2 -2.6
v 29.1 2.1 -2.6
v 29 2.1 -2.6
v 29 2.2 -2.6
v 29.1 2.2 -2.5
v 29.1 2.1 -2.5
v 29.2 2.1 -2.5
v 29.2 2.2 -2.5
v 29.2 2.2 -2.6
v 29.2 2.1 -2.6
v 29.1 2.1 -2.6
v 29.1 2.2 -2.6
v 29.3 2.2 -2.5
v 29.3 2.1 -2.5
v 29.3 2.1 -2.6
v 29.3 2.2 -2.6
v 29.2 2.2 -2.6
v 29.2 2.2 -2.5
v 29.3 2.2 -2.5
v 29.3 2.2 -2.6
v 29.2 2.2 -2.5
v 29.2 2.1 -2.5
v 29.3 2.1 -2.5
v 29.3 2.2 -2.5
v 29.3 2.2 -2.6
v 29.3 2.1 -2.6
v 29.2 2.1 -2.6
v 29.2 2.2 -2.6
v 28.7 2.1 -2.6
v 28.7 2 -2.6
v 28.7 2 -2.5
v 28.7 2.1 -2.5
v 28.7 2.1 -2.6
v 28.7 2.1 -2.5
v 28.8 2.1 -2.5
v 28.8 2.1 -2.6
v 28.7 2.1 -2.5
v 28.7 2 -2.5
v 28.8 2 -2.5
v 28.8 2.1 -2.5
v 28.8 2.1 -2.6
v 28.8 2 -2.6
v 28.7 2 -2.6
v 28.7 2.1 -2.6
v 28.8 2.1 -2.6
v 28.8 2.1 -2.5
v 28.9 2.1 -2.5
v 28.9 2.1 -2.6
v 28.8 2.1 -2.5
v 28.8 2 -2.5
v 28.9 2 -2.5
v 28.9 2.1 -2.5
v 28.9 2.1 -2.6
v 28.9 2 -2.6
v 28.8 2 -2.6
v 28.8 2.1 -2.6
v 28.9 2.1 -2.5
v 28.9 2 -2.5
v 29 2 -2.5
v 29 2.1 -2.5
v 29 2.1 -2.6
v 29 2 -2.6
v 28.9 2 -2.6
v 28.9 2.1 -2.6
v 29 2.1 -2.5
v 29 2 -2.5
v 29.1 2 -2.5
v 29.1 2.1 -2.5
v 29.1 2.1 -2.6
v 29.1 2 -2.6
v 29 2 -2.6
v 29 2.1 -2.6
v 29.1 2.1 -2.5
v 29.1 2 -2.5
v 29.2 2 -2.5
v 29.2 2.1 -2.5
v 29.2 2.1 -2.6
v 29.2 2 -2.6
v 29.1 2 -2.6
v 29.1 2.1 -2.6
v 29.2 2.1 -2.5
v 29.2 2 -2.5
v 29.3 2 -2.5
v 29.3 2.1 -2.5
v 29.3 2.1 -2.6
v 29.3 2 -2.6
v 29.2 2 -2.6
v 29.2 2.1 -2.6
v 29.4 2.1 -2.5
v 29.4 2 -2.5
v 29.4 2 -2.6
v 29.4 2.1 -2.6
v 29.3 2.1 -2.6
v 29.3 2.1 -2.5
v 29.4 2.1 -2.5
v 29.4 2.1 -2.6
v 29.3 2 -2.5
v 29.3 2 -2.6
v 29.4 2 -2.6
v 29.4 2 -2.5
v 29.3 2.1 -2.5
v 29.3 2 -2.5
v 29.4 2 -2.5
v 29.4 2.1 -2.5
v 29.4 2.1 -2.6
v 29.4 2 -2.6
v 29.3 2 -2.6
v 29.3 2.1 -2.6
v 28.6 2 -2.6
v 28.6 1.9 -2.6
v 28.6 1.9 -2.5
v 28.6 2 -2.5
v 28.6 2 -2.6
v 28.6 2 -2.5
v 28.7 2 -2.5
v 28.7 2 -2.6
v 28.6 2 -2.5
v 28.6 1.9 -2.5
v 28.7 1.9 -2.5
v 28.7 2 -2.5
v 28.7 2 -2.6
v 28.7 1.9 -2.6
v 28.6 1.9 -2.6
v 28.6 2 -2.6
v 28.7 2 -2.5
v 28.7 1.9 -2.5
v 28.8 1.9 -2.5
v 28.8 2 -2.5
v 28.8 2 -2.6
v 28.8 1.9 -2.6
v 28.7 1.9 -2.6
v 28.7 2 -2.6
v 28.8 2 -2.5
v 28.8 1.9 -2.5
v 28.9 1.9 -2.5
v 28.9 2 -2.5
v 28.9 2 -2.6
v 28.9 1.9 -2.6
v 28.8 1.9 -2.6
v 28.8 2 -2.6
v 28.9 2 -2.5
v 28.9 1.9 -2.5
v 29 1.9 -2.5
v 29 2 -2.5
v 29 2 -2.6
v 29 1.9 -2.6
v 28.9 1.9 -2.6
v 28.9 2 -2.6
v 29 1.9 -2.5
v 29 1.9 -2.6
v 29.1 1.9 -2.6
v 29.1 1.9 -2.5
v 29 2 -2.5
v 29 1.9 -2.5
v 29.1 1.9 -2.5
v 29.1 2 -2.5
v 29.1 2 -2.6
v 29.1 1.9 -2.6
v 29 1.9 -2.6
v 29 2 -2.6
v 29.1 1.9 -2.5
v 29.1 1.9 -2.6
v 29.2 1.9 -2.6
v 29.2 1.9 -2.5
v 29.1 2 -2.5
v 29.1 1.9 -2.5
v 29.2 1.9 -2.5
v 29.2 2 -2.5
v 29.2 2 -2.6
v 29.2 1.9 -2.6
v 29.1 1.9 -2.6
v 29.1 2 -2.6
v 29.3 2 -2.5
v 29.3 1.9 -2.5
v 29.3 1.9 -2.6
v 29.3 2 -2.6
v 29.2 1.9 -2.5
v 29.2 1.9 -2.6
v 29.3 1.9 -2.6
v 29.3 1.9 -2.5
v 29.2 2 -2.5
v 29.2 1.9 -2.5
v 29.3 1.9 -2.5
v 29.3 2 -2.5
v 29.3 2 -2.6
v 29.3 1.9 -2.6
v 29.2 1.9 -2.6
v 29.2 2 -2.6
v 20.7 1.9 -2.6
v 20.7 1.8 -2.6
v 20.7 1.8 -2.5
v 20.7 1.9 -2.5
v 20.7 1.9 -2.6
v 20.7 1.9 -2.5
v 20.8 1.9 -2.5
v 20.8 1.9 -2.6
v 20.7 1.9 -2.5
v 20.7 1.8 -2.5
v 20.8 1.8 -2.5
v 20.8 1.9 -2.5
v 20.8 1.9 -2.6
v 20.8 1.8 -2.6
v 20.7 1.8 -2.6
v 20.7 1.9 -2.6
v 20.9 1.9 -2.5
v 20.9 1.8 -2.5
v 20.9 1.8 -2.6
v 20.9 1.9 -2.6
v 20.8 1.9 -2.6
v 20.8 1.9 -2.5
v 20.9 1.9 -2.5
v 20.9 1.9 -2.6
v 20.8 1.9 -2.5
v 20.8 1.8 -2.5
v 20.9 1.8 -2.5
v 20.9 1.9 -2.5
v 20.9 1.9 -2.6
v 20.9 1.8 -2.6
v 20.8 1.8 -2.6
v 20.8 1.9 -2.6
v 28.6 1.9 -2.6
v 28.6 1.8 -2.6
v 28.6 1.8 -2.5
v 28.6 1.9 -2.5
v 28.6 1.8 -2.5
v 28.6 1.8 -2.6
v 28.7 1.8 -2.6
v 28.7 1.8 -2.5
v 28.6 1.9 -2.5
v 28.6 1.8 -2.5
v 28.7 1.8 -2.5
v 28.7 1.9 -2.5
v 28.7 1.9 -2.6
v 28.7 1.8 -2.6
v 28.6 1.8 -2.6
v 28.6 1.9 -2.6
v 28.7 1.8 -2.5
v 28.7 1.8 -2.6
v 28.8 1.8 -2.6
v 28.8 1.8 -2.5
v 28.7 1.9 -2.5
v 28.7 1.8 -2.5
v 28.8 1.8 -2.5
v 28.8 1.9 -2.5
v 28.8 1.9 -2.6
v 28.8 1.8 -2.6
v 28.7 1.8 -2.6
v 28.7 1.9 -2.6
v 28.8 1.8 -2.5
v 28.8 1.8 -2.6
v 28.9 1.8 -2.6
v 28.9 1.8 -2.5
v 28.8 1.9 -2.5
v 28.8 1.8 -2.5
v 28.9 1.8 -2.5
v 28.9 1.9 -2.5
v 28.9 1.9 -2.6
v 28.9 1.8 -2.6
v 28.8 1.8 -2.6
v 28.8 1.9 -2.6
v 29 1.9 -2.5
v 29 1.8 -2.5
v 29 1.8 -2.6
v 29 1.9 -2.6
v 28.9 1.8 -2.5
v 28.9 1.8 -2.6
v 29 1.8 -2.6
v 29 1.8 -2.5
v 28.9 1.9 -2.5
v 28.9 1.8 -2.5
v 29 1.8 -2.5
v 29 1.9 -2.5
v 29 1.9 -2.6
v 29 1.8 -2.6
v 28.9 1.8 -2.6
v 28.9 1.9 -2.6
v 20.6 1.8 -2.6
v 20.6 1.7 -2.6
v 20.6 1.7 -2.5
v 20.6 1.8 -2.5
v 20.6 1.8 -2.6
v 20.6 1.8 -2.5
v 20.7 1.8 -2.5
v 20.7 1.8 -2.6
v 20.6 1.8 -2.5
v 20.6 1.7 -2.5
v 20.7 1.7 -2.5
v 20.7 1.8 -2.5
v 20.7 1.8 -2.6
v 20.7 1.7 -2.6
v 20.6 1.7 -2.6
v 20.6 1.8 -2.6
v 20.7 1.8 -2.5
v 20.7 1.7 -2.5
v 20.8 1.7 -2.5
v 20.8 1.8 -2.5
v 20.8 1.8 -2.6
v 20.8 1.7 -2.6
v 20.7 1.7 -2.6
v 20.7 1.8 -2.6
v 20.9 1.8 -2.5
v 20.9 1.7 -2.5
v 20.9 1.7 -2.6
v 20.9 1.8 -2.6
v 20.8 1.8 -2.5
v 20.8 1.7 -2.5
v 20.9 1.7 -2.5
v 20.9 1.8 -2.5
v 20.9 1.8 -2.6
v 20.9 1.7 -2.6
v 20.8 1.7 -2.6
v 20.8 1.8 -2.6
v 25.9 1.8 -2.6
v 25.9 1.7 -2.6
v 25.9 1.7 -2.5
v 25.9 1.8 -2.5
v 26 1.8 -2.5
v 26 1.7 -2.5
v 26 1.7 -2.6
v 26 1.8 -2.6
v 25.9 1.8 -2.6
v 25.9 1.8 -2.5
v 26 1.8 -2.5
v 26 1.8 -2.6
v 25.9 1.8 -2.5
v 25.9 1.7 -2.5
v 26 1.7 -2.5
v 26 1.8 -2.5
v 26 1.8 -2.6
v 26 1.7 -2.6
v 25.9 1.7 -2.6
v 25.9 1.8 -2.6
v 20.4 1.7 -2.6
v 20.4 1.6 -2.6
v 20.4 1.6 -2.5
v 20.4 1.7 -2.5
v 20.4 1.7 -2.6
v 20.4 1.7 -2.5
v 20.5 1.7 -2.5
v 20.5 1.7 -2.6
v 20.4 1.6 -2.5
v 20.4 1.6 -2.6
v 20.5 1.6 -2.6
v 20.5 1.6 -2.5
v 20.4 1.7 -2.5
v 20.4 1.6 -2.5
v 20.5 1.6 -2.5
v 20.5 1.7 -2.5
v 20.5 1.7 -2.6
v 20.5 1.6 -2.6
v 20.4 1.6 -2.6
v 20.4 1.7 -2.6
v 20.5 1.7 -2.6
v 20.5 1.7 -2.5
v 20.6 1.7 -2.5
v 20.6 1.7 -2.6
v 20.5 1.7 -2.5
v 20.5 1.6 -2.5
v 20.6 1.6 -2.5
v 20.6 1.7 -2.5
v 20.6 1.7 -2.6
v 20.6 1.6 -2.6
v 20.5 1.6 -2.6
v 20.5 1.7 -2.6
v 20.6 1.7 -2.5
v 20.6 1.6 -2.5
v 20.7 1.6 -2.5
v 20.7 1.7 -2.5
v 20.7 1.7 -2.6
v 20.7 1.6 -2.6
v 20.6 1.6 -2.6
v 20.6 1.7 -2.6
v 20.7 1.7 -2.5
v 20.7 1.6 -2.5
v 20.8 1.6 -2.5
v 20.8 1.7 -2.5
v 20.8 1.7 -2.6
v 20.8 1.6 -2.6
v 20.7 1.6 -2.6
v 20.7 1.7 -2.6
v 20.8 1.7 -2.5
v 20.8 1.6 -2.5
v 20.9 1.6 -2.5
v 20.9 1.7 -2.5
v 20.9 1.7 -2.6
v 20.9 1.6 -2.6
v 20.8 1.6 -2.6
v 20.8 1.7 -2.6
v 21 1.7 -2.5
v 21 1.6 -2.5
v 21 1.6 -2.6
v 21 1.7 -2.6
v 20.9 1.7 -2.6
v 20.9 1.7 -2.5
v 21 1.7 -2.5
v 21 1.7 -2.6
v 20.9 1.7 -2.5
v 20.9 1.6 -2.5
v 21 1.6 -2.5
v 21 1.7 -2.5
v 21 1.7 -2.6
v 21 1.6 -2.6
v 20.9 1.6 -2.6
v 20.9 1.7 -2.6
v 21.3 1.7 -2.6
v 21.3 1.6 -2.6
v 21.3 1.6 -2.5
v 21.3 1.7 -2.5
v 21.4 1.7 -2.5
v 21.4 1.6 -2.5
v 21.4 1.6 -2.6
v 21.4 1.7 -2.6
v 21.3 1.7 -2.6
v 21.3 1.7 -2.5
v 21.4 1.7 -2.5
v 21.4 1.7 -2.6
v 21.3 1.7 -2.5
v 21.3 1.6 -2.5
v 21.4 1.6 -2.5
v 21.4 1.7 -2.5
v 21.4 1.7 -2.6
v 21.4 1.6 -2.6
v 21.3 1.6 -2.6
v 21.3 1.7 -2.6
v 25.7 1.7 -2.6
v 25.7 1.6 -2.6
v 25.7 1.6 -2.5
v 25.7 1.7 -2.5
v 25.7 1.7 -2.6
v 25.7 1.7 -2.5
v 25.8 1.7 -2.5
v 25.8 1.7 -2.6
v 25.7 1.7 -2.5
v 25.7 1.6 -2.5
v 25.8 1.6 -2.5
v 25.8 1.7 -2.5
v 25.8 1.7 -2.6
v 25.8 1.6 -2.6
v 25.7 1.6 -2.6
v 25.7 1.7 -2.6
v 25.8 1.7 -2.6
v 25.8 1.7 -2.5
v 25.9 1.7 -2.5
v 25.9 1.7 -2.6
v 25.8 1.7 -2.5
v 25.8 1.6 -2.5
v 25.9 1.6 -2.5
v 25.9 1.7 -2.5
v 25.9 1.7 -2.6
v 25.9 1.6 -2.6
v 25.8 1.6 -2.6
v 25.8 1.7 -2.6
v 26 1.7 -2.5
v 26 1.6 -2.5
v 26 1.6 -2.6
v 26 1.7 -2.6
v 25.9 1.7 -2.5
v 25.9 1.6 -2.5
v 26 1.6 -2.5
v 26 1.7 -2.5
v 26 1.7 -2.6
v 26 1.6 -2.6
v 25.9 1.6 -2.6
v 25.9 1.7 -2.6
v 20.5 1.6 -2.6
v 20.5 1.5 -2.6
v 20.5 1.5 -2.5
v 20.5 1.6 -2.5
v 20.5 1.5 -2.5
v 20.5 1.5 -2.6
v 20.6 1.5 -2.6
v 20.6 1.5 -2.5
v 20.5 1.6 -2.5
v 20.5 1.5 -2.5
v 20.6 1.5 -2.5
v 20.6 1.6 -2.5
v 20.6 1.6 -2.6
v 20.6 1.5 -2.6
v 20.5 1.5 -2.6
v 20.5 1.6 -2.6
v 20.6 1.5 -2.5
v 20.6 1.5 -2.6
v 20.7 1.5 -2.6
v 20.7 1.5 -2.5
v 20.6 1.6 -2.5
v 20.6 1.5 -2.5
v 20.7 1.5 -2.5
v 20.7 1.6 -2.5
v 20.7 1.6 -2.6
v 20.7 1.5 -2.6
v 20.6 1.5 -2.6
v 20.6 1.6 -2.6
v 20.7 1.5 -2.5
v 20.7 1.5 -2.6
v 20.8 1.5 -2.6
v 20.8 1.5 -2.5
v 20.7 1.6 -2.5
v 20.7 1.5 -2.5
v 20.8 1.5 -2.5
v 20.8 1.6 -2.5
v 20.8 1.6 -2.6
v 20.8 1.5 -2.6
v 20.7 1.5 -2.6
v 20.7 1.6 -2.6
v 20.8 1.5 -2.5
v 20.8 1.5 -2.6
v 20.9 1.5 -2.6
v 20.9 1.5 -2.5
v 20.8 1.6 -2.5
v 20.8 1.5 -2.5
v 20.9 1.5 -2.5
v 20.9 1.6 -2.5
v 20.9 1.6 -2.6
v 20.9 1.5 -2.6
v 20.8 1.5 -2.6
v 20.8 1.6 -2.6
v 21 1.6 -2.5
v 21 1.5 -2.5
v 21 1.5 -2.6
v 21 1.6 -2.6
v 20.9 1.5 -2.5
v 20.9 1.5 -2.6
v 21 1.5 -2.6
v 21 1.5 -2.5
v 20.9 1.6 -2.5
v 20.9 1.5 -2.5
v 21 1.5 -2.5
v 21 1.6 -2.5
v 21 1.6 -2.6
v 21 1.5 -2.6
v 20.9 1.5 -2.6
v 20.9 1.6 -2.6
v 21.1 1.6 -2.6
v 21.1 1.5 -2.6
v 21.1 1.5 -2.5
v 21.1 1.6 -2.5
v 21.1 1.6 -2.6
v 21.1 1.6 -2.5
v 21.2 1.6 -2.5
v 21.2 1.6 -2.6
v 21.1 1.5 -2.5
v 21.1 1.5 -2.6
v 21.2 1.5 -2.6
v 21.2 1.5 -2.5
v 21.1 1.6 -2.5
v 21.1 1.5 -2.5
v 21.2 1.5 -2.5
v 21.2 1.6 -2.5
v 21.2 1.6 -2.6
v 21.2 1.5 -2.6
v 21.1 1.5 -2.6
v 21.1 1.6 -2.6
v 21.2 1.6 -2.6
v 21.2 1.6 -2.5
v 21.3 1.6 -2.5
v 21.3 1.6 -2.6
v 21.2 1.6 -2.5
v 21.2 1.5 -2.5
v 21.3 1.5 -2.5
v 21.3 1.6 -2.5
v 21.3 1.6 -2.6
v 21.3 1.5 -2.6
v 21.2 1.5 -2.6
v 21.2 1.6 -2.6
v 21.3 1.6 -2.5
v 21.3 1.5 -2.5
v 21.4 1.5 -2.5
v 21.4 1.6 -2.5
v 21.4 1.6 -2.6
v 21.4 1.5 -2.6
v 21.3 1.5 -2.6
v 21.3 1.6 -2.6
v 21.4 1.6 -2.6
v 21.4 1.6 -2.5
v 21.5 1.6 -2.5
v 21.5 1.6 -2.6
v 21.4 1.6 -2.5
v 21.4 1.5 -2.5
v 21.5 1.5 -2.5
v 21.5 1.6 -2.5
v 21.5 1.6 -2.6
v 21.5 1.5 -2.6
v 21.4 1.5 -2.6
v 21.4 1.6 -2.6
v 21.6 1.6 -2.5
v 21.6 1.5 -2.5
v 21.6 1.5 -2.6
v 21.6 1.6 -2.6
v 21.5 1.6 -2.6
v 21.5 1.6 -2.5
v 21.6 1.6 -2.5
v 21.6 1.6 -2.6
v 21.5 1.5 -2.5
v 21.5 1.5 -2.6
v 21.6 1.5 -2.6
v 21.6 1.5 -2.5
v 21.5 1.6 -2.5
v 21.5 1.5 -2.5
v 21.6 1.5 -2.5
v 21.6 1.6 -2.5
v 21.6 1.6 -2.6
v 21.6 1.5 -2.6
v 21.5 1.5 -2.6
v 21.5 1.6 -2.6
v 25.6 1.6 -2.6
v 25.6 1.5 -2.6
v 25.6 1.5 -2.5
v 25.6 1.6 -2.5
v 25.6 1.6 -2.6
v 25.6 1.6 -2.5
v 25.7 1.6 -2.5
v 25.7 1.6 -2.6
v 25.6 1.6 -2.5
v 25.6 1.5 -2.5
v 25.7 1.5 -2.5
v 25.7 1.6 -2.5
v 25.7 1.6 -2.6
v 25.7 1.5 -2.6
v 25.6 1.5 -2.6
v 25.6 1.6 -2.6
v 25.7 1.6 -2.5
v 25.7 1.5 -2.5
v 25.8 1.5 -2.5
v 25.8 1.6 -2.5
v 25.8 1.6 -2.6
v 25.8 1.5 -2.6
v 25.7 1.5 -2.6
v 25.7 1.6 -2.6
v 25.8 1.6 -2.5
v 25.8 1.5 -2.5
v 25.9 1.5 -2.5
v 25.9 1.6 -2.5
v 25.9 1.6 -2.6
v 25.9 1.5 -2.6
v 25.8 1.5 -2.6
v 25.8 1.6 -2.6
v 25.9 1.6 -2.5
v 25.9 1.5 -2.5
v 26 1.5 -2.5
v 26 1.6 -2.5
v 26 1.6 -2.6
v 26 1.5 -2.6
v 25.9 1.5 -2.6
v 25.9 1.6 -2.6
v 26 1.6 -2.6
v 26 1.6 -2.5
v 26.1 1.6 -2.5
v 26.1 1.6 -2.6
v 26 1.6 -2.5
v 26 1.5 -2.5
v 26.1 1.5 -2.5
v 26.1 1.6 -2.5
v 26.1 1.6 -2.6
v 26.1 1.5 -2.6
v 26 1.5 -2.6
v 26 1.6 -2.6
v 26.2 1.6 -2.5
v 26.2 1.5 -2.5
v 26.2 1.5 -2.6
v 26.2 1.6 -2.6
v 26.1 1.6 -2.6
v 26.1 1.6 -2.5
v 26.2 1.6 -2.5
v 26.2 1.6 -2.6
v 26.1 1.6 -2.5
v 26.1 1.5 -2.5
v 26.2 1.5 -2.5
v 26.2 1.6 -2.5
v 26.2 1.6 -2.6
v 26.2 1.5 -2.6
v 26.1 1.5 -2.6
v 26.1 1.6 -2.6
v 21.2 1.5 -2.6
v 21.2 1.4 -2.6
v 21.2 1.4 -2.5
v 21.2 1.5 -2.5
v 21.2 1.4 -2.5
v 21.2 1.4 -2.6
v 21.3 1.4 -2.6
v 21.3 1.4 -2.5
v 21.2 1.5 -2.5
v 21.2 1.4 -2.5
v 21.3 1.4 -2.5
v 21.3 1.5 -2.5
v 21.3 1.5 -2.6
v 21.3 1.4 -2.6
v 21.2 1.4 -2.6
v 21.2 1.5 -2.6
v 21.3 1.4 -2.5
v 21.3 1.4 -2.6
v 21.4 1.4 -2.6
v 21.4 1.4 -2.5
v 21.3 1.5 -2.5
v 21.3 1.4 -2.5
v 21.4 1.4 -2.5
v 21.4 1.5 -2.5
v 21.4 1.5 -2.6
v 21.4 1.4 -2.6
v 21.3 1.4 -2.6
v 21.3 1.5 -2.6
v 21.5 1.5 -2.5
v 21.5 1.4 -2.5
v 21.5 1.4 -2.6
v 21.5 1.5 -2.6
v 21.4 1.4 -2.5
v 21.4 1.4 -2.6
v 21.5 1.4 -2.6
v 21.5 1.4 -2.5
v 21.4 1.5 -2.5
v 21.4 1.4 -2.5
v 21.5 1.4 -2.5
v 21.5 1.5 -2.5
v 21.5 1.5 -2.6
v 21.5 1.4 -2.6
v 21.4 1.4 -2.6
v 21.4 1.5 -2.6
v 25.5 1.5 -2.6
v 25.5 1.4 -2.6
v 25.5 1.4 -2.5
v 25.5 1.5 -2.5
v 25.5 1.5 -2.6
v 25.5 1.5 -2.5
v 25.6 1.5 -2.5
v 25.6 1.5 -2.6
v 25.5 1.4 -2.5
v 25.5 1.4 -2.6
v 25.6 1.4 -2.6
v 25.6 1.4 -2.5
v 25.5 1.5 -2.5
v 25.5 1.4 -2.5
v 25.6 1.4 -2.5
v 25.6 1.5 -2.5
v 25.6 1.5 -2.6
v 25.6 1.4 -2.6
v 25.5 1.4 -2.6
v 25.5 1.5 -2.6
v 25.6 1.5 -2.5
v 25.6 1.4 -2.5
v 25.7 1.4 -2.5
v 25.7 1.5 -2.5
v 25.7 1.5 -2.6
v 25.7 1.4 -2.6
v 25.6 1.4 -2.6
v 25.6 1.5 -2.6
v 25.7 1.5 -2.5
v 25.7 1.4 -2.5
v 25.8 1.4 -2.5
v 25.8 1.5 -2.5
v 25.8 1.5 -2.6
v 25.8 1.4 -2.6
v 25.7 1.4 -2.6
v 25.7 1.5 -2.6
v 25.8 1.5 -2.5
v 25.8 1.4 -2.5
v 25.9 1.4 -2.5
v 25.9 1.5 -2.5
v 25.9 1.5 -2.6
v 25.9 1.4 -2.6
v 25.8 1.4 -2.6
v 25.8 1.5 -2.6
v 25.9 1.5 -2.5
v 25.9 1.4 -2.5
v 26 1.4 -2.5
v 26 1.5 -2.5
v 26 1.5 -2.6
v 26 1.4 -2.6
v 25.9 1.4 -2.6
v 25.9 1.5 -2.6
v 26 1.5 -2.5
v 26 1.4 -2.5
v 26.1 1.4 -2.5
v 26.1 1.5 -2.5
v 26.1 1.5 -2.6
v 26.1 1.4 -2.6
v 26 1.4 -2.6
v 26 1.5 -2.6
v 26.2 1.5 -2.5
v 26.2 1.4 -2.5
v 26.2 1.4 -2.6
v 26.2 1.5 -2.6
v 26.1 1.4 -2.5
v 26.1 1.4 -2.6
v 26.2 1.4 -2.6
v 26.2 1.4 -2.5
v 26.1 1.5 -2.5
v 26.1 1.4 -2.5
v 26.2 1.4 -2.5
v 26.2 1.5 -2.5
v 26.2 1.5 -2.6
v 26.2 1.4 -2.6
v 26.1 1.4 -2.6
v 26.1 1.5 -2.6
v 25.6 1.4 -2.6
v 25.6 1.3 -2.6
v 25.6 1.3 -2.5
v 25.6 1.4 -2.5
v 25.6 1.3 -2.5
v 25.6 1.3 -2.6
v 25.7 1.3 -2.6
v 25.7 1.3 -2.5
v 25.6 1.4 -2.5
v 25.6 1.3 -2.5
v 25.7 1.3 -2.5
v 25.7 1.4 -2.5
v 25.7 1.4 -2.6
v 25.7 1.3 -2.6
v 25.6 1.3 -2.6
v 25.6 1.4 -2.6
v 25.7 1.3 -2.5
v 25.7 1.3 -2.6
v 25.8 1.3 -2.6
v 25.8 1.3 -2.5
v 25.7 1.4 -2.5
v 25.7 1.3 -2.5
v 25.8 1.3 -2.5
v 25.8 1.4 -2.5
v 25.8 1.4 -2.6
v 25.8 1.3 -2.6
v 25.7 1.3 -2.6
v 25.7 1.4 -2.6
v 25.8 1.3 -2.5
v 25.8 1.3 -2.6
v 25.9 1.3 -2.6
v 25.9 1.3 -2.5
v 25.8 1.4 -2.5
v 25.8 1.3 -2.5
v 25.9 1.3 -2.5
v 25.9 1.4 -2.5
v 25.9 1.4 -2.6
v 25.9 1.3 -2.6
v 25.8 1.3 -2.6
v 25.8 1.4 -2.6
v 25.9 1.3 -2.5
v 25.9 1.3 -2.6
v 26 1.3 -2.6
v 26 1.3 -2.5
v 25.9 1.4 -2.5
v 25.9 1.3 -2.5
v 26 1.3 -2.5
v 26 1.4 -2.5
v 26 1.4 -2.6
v 26 1.3 -2.6
v 25.9 1.3 -2.6
v 25.9 1.4 -2.6
v 26.1 1.4 -2.5
v 26.1 1.3 -2.5
v 26.1 1.3 -2.6
v 26.1 1.4 -2.6
v 26 1.3 -2.5
v 26 1.3 -2.6
v 26.1 1.3 -2.6
v 26.1 1.3 -2.5
v 26 1.4 -2.5
v 26 1.3 -2.5
v 26.1 1.3 -2.5
v 26.1 1.4 -2.5
v 26.1 1.4 -2.6
v 26.1 1.3 -2.6
v 26 1.3 -2.6
v 26 1.4 -2.6

# faces
f 1/2/1 2/2/1 3/2/1 4/2/1
f 5/2/2 6/2/2 7/2/2 8/2/2
f 9/2/3 10/2/3 11/2/3 12/2/3
f 13/2/5 14/2/5 15/2/5 16/2/5
f 17/2/6 18/2/6 19/2/6 20/2/6
f 21/2/1 22/2/1 23/2/1 24/2/1
f 25/2/3 26/2/3 27/2/3 28/2/3
f 29/2/5 30/2/5 31/2/5 32/2/5
f 33/2/6 34/2/6 35/2/6 36/2/6
f 37/2/2 38/2/2 39/2/2 40/2/2
f 41/2/3 42/2/3 43/2/3 44/2/3
f 45/2/5 46/2/5 47/2/5 48/2/5
f 49/2/6 50/2/6 51/2/6 52/2/6
f 53/1/1 54/1/1 55/1/1 56/1/1
f 57/1/3 58/1/3 59/1/3 60/1/3
f 61/1/4 62/1/4 63/1/4 64/1/4
f 65/1/5 66/1/5 67/1/5 68/1/5
f 69/1/6 70/1/6 71/1/6 72/1/6
f 73/2/3 74/2/3 75/2/3 76/2/3
f 77/2/5 78/2/5 79/2/5 80/2/5
f 81/2/6 82/2/6 83/2/6 84/2/6
f 85/2/5 86/2/5 87/2/5 88/2/5
f 89/2/6 90/2/6 91/2/6 92/2/6
f 93/2/2 94/2/2 95/2/2 96/2/2
f 97/2/3 98/2/3 99/2/3 100/2/3
f 101/2/5 102/2/5 103/2/5 104/2/5
f 105/2/6 106/2/6 107/2/6 108/2/6
f 109/1/1 110/1/1 111/1/1 112/1/1
f 113/1/3 114/1/3 115/1/3 116/1/3
f 117/1/4 118/1/4 119/1/4 120/1/4
f 121/1/5 122/1/5 123/1/5 124/1/5
f 125/1/6 126/1/6 127/1/6 128/1/6
f 129/2/3 130/2/3 131/2/3 132/2/3
f 133/2/5 134/2/5 135/2/5 136/2/5
f 137/2/6 138/2/6 139/2/6 140/2/6
f 141/2/5 142/2/5 143/2/5 144/2/5
f 145/2/6 146/2/6 147/2/6 148/2/6
f 149/2/5 150/2/5 151/2/5 152/2/5
f 153/2/6 154/2/6 155/2/6 156/2/6
f 157/2/2 158/2/2 159/2/2 160/2/2
f 161/2/3 162/2/3 163/2/3 164/2/3
f 165/2/5 166/2/5 167/2/5 168/2/5
f 169/2/6 170/2/6 171/2/6 172/2/6
f 173/1/1 174/1/1 175/1/1 176/1/1
f 177/1/4 178/1/4 179/1/4 180/1/4
f 181/1/5 182/1/5 183/1/5 184/1/5
f 185/1/6 186/1/6 187/1/6 188/1/6
f 189/2/4 190/2/4 191/2/4 192/2/4
f 193/2/5 194/2/5 195/2/5 196/2/5
f 197/2/6 198/2/6 199/2/6 200/2/6
f 201/1/2 202/1/2 203/1/2 204/1/2
f 205/1/4 206/1/4 207/1/4 208/1/4
f 209/1/5 210/1/5 211/1/5 212/1/5
f 213/1/6 214/1/6 215/1/6 216/1/6
f 217/1/1 218/1/1 219/1/1 220/1/1
f 221/1/4 222/1/4 223/1/4 224/1/4
f 225/1/5 226/1/5 227/1/5 228/1/5
f 229/1/6 230/1/6 231/1/6 232/1/6
f 233/2/4 234/2/4 235/2/4 236/2/4
f 237/2/5 238/2/5 239/2/5 240/2/5
f 241/2/6 242/2/6 243/2/6 244/2/6
f 245/2/4 246/2/4 247/2/4 248/2/4
f 249/2/5 250/2/5 251/2/5 252/2/5
f 253/2/6 254/2/6 255/2/6 256/2/6
f 257/1/2 258/1/2 259/1/2 260/1/2
f 261/1/4 262/1/4 263/1/4 264/1/4
f 265/1/5 266/1/5 267/1/5 268/1/5
f 269/1/6 270/1/6 271/1/6 272/1/6
f 273/1/1 274/1/1 275/1/1 276/1/1
f 277/1/2 278/1/2 279/1/2 280/1/2
f 281/1/3 282/1/3 283/1/3 284/1/3
f 285/1/5 286/1/5 287/1/5 288/1/5
f 289/1/6 290/1/6 291/1/6 292/1/6
f 293/2/1 294/2/1 295/2/1 296/2/1
f 297/2/5 298/2/5 299/2/5 300/2/5
f 301/2/6 302/2/6 303/2/6 304/2/6
f 305/2/2 306/2/2 307/2/2 308/2/2
f 309/2/3 310/2/3 311/2/3 312/2/3
f 313/2/5 314/2/5 315/2/5 316/2/5
f 317/2/6 318/2/6 319/2/6 320/2/6
f 321/2/1 322/2/1 323/2/1 324/2/1
f 325/2/3 326/2/3 327/2/3 328/2/3
f 329/2/5 330/2/5 331/2/5 332/2/5
f 333/2/6 334/2/6 335/2/6 336/2/6
f 337/2/5 338/2/5 339/2/5 340/2/5
f 341/2/6 342/2/6 343/2/6 344/2/6
f 345/2/5 346/2/5 347/2/5 348/2/5
f 349/2/6 350/2/6 351/2/6 352/2/6
f 353/2/2 354/2/2 355/2/2 356/2/2
f 357/2/3 358/2/3 359/2/3 360/2/3
f 361/2/5 362/2/5 363/2/5 364/2/5
f 365/2/6 366/2/6 367/2/6 368/2/6
f 369/2/1 370/2/1 371/2/1 372/2/1
f 373/2/3 374/2/3 375/2/3 376/2/3
f 377/2/5 378/2/5 379/2/5 380/2/5
f 381/2/6 382/2/6 383/2/6 384/2/6
f 385/2/3 386/2/3 387/2/3 388/2/3
f 389/2/5 390/2/5 391/2/5 392/2/5
f 393/2/6 394/2/6 395/2/6 396/2/6
f 397/2/5 398/2/5 399/2/5 400/2/5
f 401/2/6 402/2/6 403/2/6 404/2/6
f 405/2/5 406/2/5 407/2/5 408/2/5
f 409/2/6 410/2/6 411/2/6 412/2/6
f 413/2/5 414/2/5 415/2/5 416/2/5
f 417/2/6 418/2/6 419/2/6 420/2/6
f 421/2/5 422/2/5 423/2/5 424/2/5
f 425/2/6 426/2/6 427/2/6 428/2/6
f 429/1/2 430/1/2 431/1/2 432/1/2
f 433/1/3 434/1/3 435/1/3 436/1/3
f 437/1/4 438/1/4 439/1/4 440/1/4
f 441/1/5 442/1/5 443/1/5 444/1/5
f 445/1/6 446/1/6 447/1/6 448/1/6
f 449/2/1 450/2/1 451/2/1 452/2/1
f 453/2/3 454/2/3 455/2/3 456/2/3
f 457/2/5 458/2/5 459/2/5 460/2/5
f 461/2/6 462/2/6 463/2/6 464/2/6
f 465/2/5 466/2/5 467/2/5 468/2/5
f 469/2/6 470/2/6 471/2/6 472/2/6
f 473/2/5 474/2/5 475/2/5 476/2/5
f 477/2/6 478/2/6 479/2/6 480/2/6
f 481/2/5 482/2/5 483/2/5 484/2/5
f 485/2/6 486/2/6 487/2/6 488/2/6
f 489/2/4 490/2/4 491/2/4 492/2/4
f 493/2/5 494/2/5 495/2/5 496/2/5
f 497/2/6 498/2/6 499/2/6 500/2/6
f 501/2/4 502/2/4 503/2/4 504/2/4
f 505/2/5 506/2/5 507/2/5 508/2/5
f 509/2/6 510/2/6 511/2/6 512/2/6
f 513/1/2 514/1/2 515/1/2 516/1/2
f 517/1/4 518/1/4 519/1/4 520/1/4
f 521/1/5 522/1/5 523/1/5 524/1/5
f 525/1/6 526/1/6 527/1/6 528/1/6
f 529/2/1 530/2/1 531/2/1 532/2/1
f 533/2/3 534/2/3 535/2/3 536/2/3
f 537/2/5 538/2/5 539/2/5 540/2/5
f 541/2/6 542/2/6 543/2/6 544/2/6
f 545/1/2 546/1/2 547/1/2 548/1/2
f 549/1/3 550/1/3 551/1/3 552/1/3
f 553/1/5 554/1/5 555/1/5 556/1/5
f 557/1/6 558/1/6 559/1/6 560/1/6
f 561/1/1 562/1/1 563/1/1 564/1/1
f 565/1/4 566/1/4 567/1/4 568/1/4
f 569/1/5 570/1/5 571/1/5 572/1/5
f 573/1/6 574/1/6 575/1/6 576/1/6
f 577/2/4 578/2/4 579/2/4 580/2/4
f 581/2/5 582/2/5 583/2/5 584/2/5
f 585/2/6 586/2/6 587/2/6 588/2/6
f 589/2/4 590/2/4 591/2/4 592/2/4
f 593/2/5 594/2/5 595/2/5 596/2/5
f 597/2/6 598/2/6 599/2/6 600/2/6
f 601/1/2 602/1/2 603/1/2 604/1/2
f 605/1/4 606/1/4 607/1/4 608/1/4
f 609/1/5 610/1/5 611/1/5 612/1/5
f 613/1/6 614/1/6 615/1/6 616/1/6
f 617/2/1 618/2/1 619/2/1 620/2/1
f 621/2/3 622/2/3 623/2/3 624/2/3
f 625/2/5 626/2/5 627/2/5 628/2/5
f 629/2/6 630/2/6 631/2/6 632/2/6
f 633/2/5 634/2/5 635/2/5 636/2/5
f 637/2/6 638/2/6 639/2/6 640/2/6
f 641/2/2 642/2/2 643/2/2 644/2/2
f 645/2/5 646/2/5 647/2/5 648/2/5
f 649/2/6 650/2/6 651/2/6 652/2/6
f 653/1/1 654/1/1 655/1/1 656/1/1
f 657/1/2 658/1/2 659/1/2 660/1/2
f 661/1/3 662/1/3 663/1/3 664/1/3
f 665/1/5 666/1/5 667/1/5 668/1/5
f 669/1/6 670/1/6 671/1/6 672/1/6
f 673/1/1 674/1/1 675/1/1 676/1/1
f 677/1/3 678/1/3 679/1/3 680/1/3
f 681/1/4 682/1/4 683/1/4 684/1/4
f 685/1/5 686/1/5 687/1/5 688/1/5
f 689/1/6 690/1/6 691/1/6 692/1/6
f 693/2/3 694/2/3 695/2/3 696/2/3
f 697/2/5 698/2/5 699/2/5 700/2/5
f 701/2/6 702/2/6 703/2/6 704/2/6
f 705/2/5 706/2/5 707/2/5 708/2/5
f 709/2/6 710/2/6 711/2/6 712/2/6
f 713/2/5 714/2/5 715/2/5 716/2/5
f 717/2/6 718/2/6 719/2/6 720/2/6
f 721/2/5 722/2/5 723/2/5 724/2/5
f 725/2/6 726/2/6 727/2/6 728/2/6
f 729/2/2 730/2/2 731/2/2 732/2/2
f 733/2/3 734/2/3 735/2/3 736/2/3
f 737/2/5 738/2/5 739/2/5 740/2/5
f 741/2/6 742/2/6 743/2/6 744/2/6
f 745/2/1 746/2/1 747/2/1 748/2/1
f 749/2/2 750/2/2 751/2/2 752/2/2
f 753/2/3 754/2/3 755/2/3 756/2/3
f 757/2/5 758/2/5 759/2/5 760/2/5
f 761/2/6 762/2/6 763/2/6 764/2/6
f 765/1/1 766/1/1 767/1/1 768/1/1
f 769/1/3 770/1/3 771/1/3 772/1/3
f 773/1/5 774/1/5 775/1/5 776/1/5
f 777/1/6 778/1/6 779/1/6 780/1/6
f 781/2/3 782/2/3 783/2/3 784/2/3
f 785/2/5 786/2/5 787/2/5 788/2/5
f 789/2/6 790/2/6 791/2/6 792/2/6
f 793/2/2 794/2/2 795/2/2 796/2/2
f 797/2/5 798/2/5 799/2/5 800/2/5
f 801/2/6 802/2/6 803/2/6 804/2/6
f 805/1/1 806/1/1 807/1/1 808/1/1
f 809/1/4 810/1/4 811/1/4 812/1/4
f 813/1/5 814/1/5 815/1/5 816/1/5
f 817/1/6 818/1/6 819/1/6 820/1/6
f 821/2/4 822/2/4 823/2/4 824/2/4
f 825/2/5 826/2/5 827/2/5 828/2/5
f 829/2/6 830/2/6 831/2/6 832/2/6
f 833/2/4 834/2/4 835/2/4 836/2/4
f 837/2/5 838/2/5 839/2/5 840/2/5
f 841/2/6 842/2/6 843/2/6 844/2/6
f 845/2/4 846/2/4 847/2/4 848/2/4
f 849/2/5 850/2/5 851/2/5 852/2/5
f 853/2/6 854/2/6 855/2/6 856/2/6
f 857/1/2 858/1/2 859/1/2 860/1/2
f 861/1/4 862/1/4 863/1/4 864/1/4
f 865/1/5 866/1/5 867/1/5 868/1/5
f 869/1/6 870/1/6 871/1/6 872/1/6
f 873/1/1 874/1/1 875/1/1 876/1/1
f 877/1/3 878/1/3 879/1/3 880/1/3
f 881/1/4 882/1/4 883/1/4 884/1/4
f 885/1/5 886/1/5 887/1/5 888/1/5
f 889/1/6 890/1/6 891/1/6 892/1/6
f 893/2/3 894/2/3 895/2/3 896/2/3
f 897/2/5 898/2/5 899/2/5 900/2/5
f 901/2/6 902/2/6 903/2/6 904/2/6
f 905/2/5 906/2/5 907/2/5 908/2/5
f 909/2/6 910/2/6 911/2/6 912/2/6
f 913/2/3 914/2/3 915/2/3 916/2/3
f 917/2/5 918/2/5 919/2/5 920/2/5
f 921/2/6 922/2/6 923/2/6 924/2/6
f 925/1/2 926/1/2 927/1/2 928/1/2
f 929/1/3 930/1/3 931/1/3 932/1/3
f 933/1/4 934/1/4 935/1/4 936/1/4
f 937/1/5 938/1/5 939/1/5 940/1/5
f 941/1/6 942/1/6 943/1/6 944/1/6
f 945/1/1 946/1/1 947/1/1 948/1/1
f 949/1/3 950/1/3 951/1/3 952/1/3
f 953/1/5 954/1/5 955/1/5 956/1/5
f 957/1/6 958/1/6 959/1/6 960/1/6
f 961/2/5 962/2/5 963/2/5 964/2/5
f 965/2/6 966/2/6 967/2/6 968/2/6
f 969/2/5 970/2/5 971/2/5 972/2/5
f 973/2/6 974/2/6 975/2/6 976/2/6
f 977/2/5 978/2/5 979/2/5 980/2/5
f 981/2/6 982/2/6 983/2/6 984/2/6
f 985/2/3 986/2/3 987/2/3 988/2/3
f 989/2/5 990/2/5 991/2/5 992/2/5
f 993/2/6 994/2/6 995/2/6 996/2/6
f 997/1/2 998/1/2 999/1/2 1000/1/2
f 1001/1/3 1002/1/3 1003/1/3 1004/1/3
f 1005/1/5 1006/1/5 1007/1/5 1008/1/5
f 1009/1/6 1010/1/6 1011/1/6 1012/1/6
f 1013/1/1 1014/1/1 1015/1/1 1016/1/1
f 1017/1/4 1018/1/4 1019/1/4 1020/1/4
f 1021/1/5 1022/1/5 1023/1/5 1024/1/5
f 1025/1/6 1026/1/6 1027/1/6 1028/1/6
f 1029/2/4 1030/2/4 1031/2/4 1032/2/4
f 1033/2/5 1034/2/5 1035/2/5 1036/2/5
f 1037/2/6 1038/2/6 1039/2/6 1040/2/6
f 1041/1/2 1042/1/2 1043/1/2 1044/1/2
f 1045/1/4 1046/1/4 1047/1/4 1048/1/4
f 1049/1/5 1050/1/5 1051/1/5 1052/1/5
f 1053/1/6 1054/1/6 1055/1/6 1056/1/6
f 1057/1/1 1058/1/1 1059/1/1 1060/1/1
f 1061/1/3 1062/1/3 1063/1/3 1064/1/3
f 1065/1/4 1066/1/4 1067/1/4 1068/1/4
f 1069/1/5 1070/1/5 1071/1/5 1072/1/5
f 1073/1/6 1074/1/6 1075/1/6 1076/1/6
f 1077/2/5 1078/2/5 1079/2/5 1080/2/5
f 1081/2/6 1082/2/6 1083/2/6 1084/2/6
f 1085/2/5 1086/2/5 1087/2/5 1088/2/5
f 1089/2/6 1090/2/6 1091/2/6 1092/2/6
f 1093/2/5 1094/2/5 1095/2/5 1096/2/5
f 1097/2/6 1098/2/6 1099/2/6 1100/2/6
f 1101/2/5 1102/2/5 1103/2/5 1104/2/5
f 1105/2/6 1106/2/6 1107/2/6 1108/2/6
f 1109/2/5 1110/2/5 1111/2/5 1112/2/5
f 1113/2/6 1114/2/6 1115/2/6 1116/2/6
f 1117/1/2 1118/1/2 1119/1/2 1120/1/2
f 1121/1/4 1122/1/4 1123/1/4 1124/1/4
f 1125/1/5 1126/1/5 1127/1/5 1128/1/5
f 1129/1/6 1130/1/6 1131/1/6 1132/1/6
f 1133/1/1 1134/1/1 1135/1/1 1136/1/1
f 1137/1/4 1138/1/4 1139/1/4 1140/1/4
f 1141/1/5 1142/1/5 1143/1/5 1144/1/5
f 1145/1/6 1146/1/6 1147/1/6 1148/1/6
f 1149/2/4 1150/2/4 1151/2/4 1152/2/4
f 1153/2/5 1154/2/5 1155/2/5 1156/2/5
f 1157/2/6 1158/2/6 1159/2/6 1160/2/6
f 1161/2/4 1162/2/4 1163/2/4 1164/2/4
f 1165/2/5 1166/2/5 1167/2/5 1168/2/5
f 1169/2/6 1170/2/6 1171/2/6 1172/2/6
f 1173/2/4 1174/2/4 1175/2/4 1176/2/4
f 1177/2/5 1178/2/5 1179/2/5 1180/2/5
f 1181/2/6 1182/2/6 1183/2/6 1184/2/6
f 1185/1/2 1186/1/2 1187/1/2 1188/1/2
f 1189/1/4 1190/1/4 1191/1/4 1192/1/4
f 1193/1/5 1194/1/5 1195/1/5 1196/1/5
f 1197/1/6 1198/1/6 1199/1/6 1200/1/6

