# generated by vox_to_obj_exporter
# scale=0.1 center=false ground=false y_up=true

mtllib Fight_717.mtl
usemtl palette

# normals
vn -1 0 0
vn 1 0 0
vn 0 1 0
vn 0 -1 0
vn 0 0 1
vn 0 0 -1

# texcoords
vt 0.197265625 0.5
vt 0.189453125 0.5
vt 0.193359375 0.5

# verts
v 19.9 15.8 -2.6
v 19.9 15.7 -2.6
v 19.9 15.7 -2.5
v 19.9 15.8 -2.5
v 19.9 15.8 -2.6
v 19.9 15.8 -2.5
v 20 15.8 -2.5
v 20 15.8 -2.6
v 19.9 15.8 -2.5
v 19.9 15.7 -2.5
v 20 15.7 -2.5
v 20 15.8 -2.5
v 20 15.8 -2.6
v 20 15.7 -2.6
v 19.9 15.7 -2.6
v 19.9 15.8 -2.6
v 20 15.8 -2.6
v 20 15.8 -2.5
v 20.1 15.8 -2.5
v 20.1 15.8 -2.6
v 20 15.8 -2.5
v 20 15.7 -2.5
v 20.1 15.7 -2.5
v 20.1 15.8 -2.5
v 20.1 15.8 -2.6
v 20.1 15.7 -2.6
v 20 15.7 -2.6
v 20 15.8 -2.6
v 20.1 15.8 -2.6
v 20.1 15.8 -2.5
v 20.2 15.8 -2.5
v 20.2 15.8 -2.6
v 20.1 15.8 -2.5
v 20.1 15.7 -2.5
v 20.2 15.7 -2.5
v 20.2 15.8 -2.5
v 20.2 15.8 -2.6
v 20.2 15.7 -2.6
v 20.1 15.7 -2.6
v 20.1 15.8 -2.6
v 20.2 15.8 -2.6
v 20.2 15.8 -2.5
v 20.3 15.8 -2.5
v 20.3 15.8 -2.6
v 20.2 15.8 -2.5
v 20.2 15.7 -2.5
v 20.3 15.7 -2.5
v 20.3 15.8 -2.5
v 20.3 15.8 -2.6
v 20.3 15.7 -2.6
v 20.2 15.7 -2.6
v 20.2 15.8 -2.6
v 20.3 15.8 -2.6
v 20.3 15.8 -2.5
v 20.4 15.8 -2.5
v 20.4 15.8 -2.6
v 20.3 15.8 -2.5
v 20.3 15.7 -2.5
v 20.4 15.7 -2.5
v 20.4 15.8 -2.5
v 20.4 15.8 -2.6
v 20.4 15.7 -2.6
v 20.3 15.7 -2.6
v 20.3 15.8 -2.6
v 20.4 15.8 -2.6
v 20.4 15.8 -2.5
v 20.5 15.8 -2.5
v 20.5 15.8 -2.6
v 20.4 15.8 -2.5
v 20.4 15.7 -2.5
v 20.5 15.7 -2.5
v 20.5 15.8 -2.5
v 20.5 15.8 -2.6
v 20.5 15.7 -2.6
v 20.4 15.7 -2.6
v 20.4 15.8 -2.6
v 20.5 15.8 -2.6
v 20.5 15.8 -2.5
v 20.6 15.8 -2.5
v 20.6 15.8 -2.6
v 20.5 15.8 -2.5
v 20.5 15.7 -2.5
v 20.6 15.7 -2.5
v 20.6 15.8 -2.5
v 20.6 15.8 -2.6
v 20.6 15.7 -2.6
v 20.5 15.7 -2.6
v 20.5 15.8 -2.6
v 20.6 15.8 -2.6
v 20.6 15.8 -2.5
v 20.7 15.8 -2.5
v 20.7 15.8 -2.6
v 20.6 15.8 -2.5
v 20.6 15.7 -2.5
v 20.7 15.7 -2.5
v 20.7 15.8 -2.5
v 20.7 15.8 -2.6
v 20.7 15.7 -2.6
v 20.6 15.7 -2.6
v 20.6 15.8 -2.6
v 20.8 15.8 -2.5
v 20.8 15.7 -2.5
v 20.8 15.7 -2.6
v 20.8 15.8 -2.6
v 20.7 15.8 -2.6
v 20.7 15.8 -2.5
v 20.8 15.8 -2.5
v 20.8 15.8 -2.6
v 20.7 15.8 -2.5
v 20.7 15.7 -2.5
v 20.8 15.7 -2.5
v 20.8 15.8 -2.5
v 20.8 15.8 -2.6
v 20.8 15.7 -2.6
v 20.7 15.7 -2.6
v 20.7 15.8 -2.6
v 19.5 15.7 -2.6
v 19.5 15.6 -2.6
v 19.5 15.6 -2.5
v 19.5 15.7 -2.5
v 19.5 15.7 -2.6
v 19.5 15.7 -2.5
v 19.6 15.7 -2.5
v 19.6 15.7 -2.6
v 19.5 15.6 -2.5
v 19.5 15.6 -2.6
v 19.6 15.6 -2.6
v 19.6 15.6 -2.5
v 19.5 15.7 -2.5
v 19.5 15.6 -2.5
v 19.6 15.6 -2.5
v 19.6 15.7 -2.5
v 19.6 15.7 -2.6
v 19.6 15.6 -2.6
v 19.5 15.6 -2.6
v 19.5 15.7 -2.6
v 19.6 15.7 -2.6
v 19.6 15.7 -2.5
v 19.7 15.7 -2.5
v 19.7 15.7 -2.6
v 19.6 15.6 -2.5
v 19.6 15.6 -2.6
v 19.7 15.6 -2.6
v 19.7 15.6 -2.5
v 19.6 15.7 -2.5
v 19.6 15.6 -2.5
v 19.7 15.6 -2.5
v 19.7 15.7 -2.5
v 19.7 15.7 -2.6
v 19.7 15.6 -2.6
v 19.6 15.6 -2.6
v 19.6 15.7 -2.6
v 19.7 15.7 -2.6
v 19.7 15.7 -2.5
v 19.8 15.7 -2.5
v 19.8 15.7 -2.6
v 19.7 15.6 -2.5
v 19.7 15.6 -2.6
v 19.8 15.6 -2.6
v 19.8 15.6 -2.5
v 19.7 15.7 -2.5
v 19.7 15.6 -2.5
v 19.8 15.6 -2.5
v 19.8 15.7 -2.5
v 19.8 15.7 -2.6
v 19.8 15.6 -2.6
v 19.7 15.6 -2.6
v 19.7 15.7 -2.6
v 19.8 15.7 -2.6
v 19.8 15.7 -2.5
v 19.9 15.7 -2.5
v 19.9 15.7 -2.6
v 19.8 15.6 -2.5
v 19.8 15.6 -2.6
v 19.9 15.6 -2.6
v 19.9 15.6 -2.5
v 19.8 15.7 -2.5
v 19.8 15.6 -2.5
v 19.9 15.6 -2.5
v 19.9 15.7 -2.5
v 19.9 15.7 -2.6
v 19.9 15.6 -2.6
v 19.8 15.6 -2.6
v 19.8 15.7 -2.6
v 19.9 15.7 -2.5
v 19.9 15.6 -2.5
v 20 15.6 -2.5
v 20 15.7 -2.5
v 20 15.7 -2.6
v 20 15.6 -2.6
v 19.9 15.6 -2.6
v 19.9 15.7 -2.6
v 20 15.7 -2.5
v 20 15.6 -2.5
v 20.1 15.6 -2.5
v 20.1 15.7 -2.5
v 20.1 15.7 -2.6
v 20.1 15.6 -2.6
v 20 15.6 -2.6
v 20 15.7 -2.6
v 20.1 15.7 -2.5
v 20.1 15.6 -2.5
v 20.2 15.6 -2.5
v 20.2 15.7 -2.5
v 20.2 15.7 -2.6
v 20.2 15.6 -2.6
v 20.1 15.6 -2.6
v 20.1 15.7 -2.6
v 20.2 15.7 -2.5
v 20.2 15.6 -2.5
v 20.3 15.6 -2.5
v 20.3 15.7 -2.5
v 20.3 15.7 -2.6
v 20.3 15.6 -2.6
v 20.2 15.6 -2.6
v 20.2 15.7 -2.6
v 20.3 15.7 -2.5
v 20.3 15.6 -2.5
v 20.4 15.6 -2.5
v 20.4 15.7 -2.5
v 20.4 15.7 -2.6
v 20.4 15.6 -2.6
v 20.3 15.6 -2.6
v 20.3 15.7 -2.6
v 20.4 15.7 -2.5
v 20.4 15.6 -2.5
v 20.5 15.6 -2.5
v 20.5 15.7 -2.5
v 20.5 15.7 -2.6
v 20.5 15.6 -2.6
v 20.4 15.6 -2.6
v 20.4 15.7 -2.6
v 20.5 15.7 -2.5
v 20.5 15.6 -2.5
v 20.6 15.6 -2.5
v 20.6 15.7 -2.5
v 20.6 15.7 -2.6
v 20.6 15.6 -2.6
v 20.5 15.6 -2.6
v 20.5 15.7 -2.6
v 20.6 15.7 -2.5
v 20.6 15.6 -2.5
v 20.7 15.6 -2.5
v 20.7 15.7 -2.5
v 20.7 15.7 -2.6
v 20.7 15.6 -2.6
v 20.6 15.6 -2.6
v 20.6 15.7 -2.6
v 20.7 15.7 -2.5
v 20.7 15.6 -2.5
v 20.8 15.6 -2.5
v 20.8 15.7 -2.5
v 20.8 15.7 -2.6
v 20.8 15.6 -2.6
v 20.7 15.6 -2.6
v 20.7 15.7 -2.6
v 20.8 15.7 -2.6
v 20.8 15.7 -2.5
v 20.9 15.7 -2.5
v 20.9 15.7 -2.6
v 20.8 15.7 -2.5
v 20.8 15.6 -2.5
v 20.9 15.6 -2.5
v 20.9 15.7 -2.5
v 20.9 15.7 -2.6
v 20.9 15.6 -2.6
v 20.8 15.6 -2.6
v 20.8 15.7 -2.6
v 20.9 15.7 -2.6
v 20.9 15.7 -2.5
v 21 15.7 -2.5
v 21 15.7 -2.6
v 20.9 15.7 -2.5
v 20.9 15.6 -2.5
v 21 15.6 -2.5
v 21 15.7 -2.5
v 21 15.7 -2.6
v 21 15.6 -2.6
v 20.9 15.6 -2.6
v 20.9 15.7 -2.6
v 21 15.7 -2.6
v 21 15.7 -2.5
v 21.1 15.7 -2.5
v 21.1 15.7 -2.6
v 21 15.7 -2.5
v 21 15.6 -2.5
v 21.1 15.6 -2.5
v 21.1 15.7 -2.5
v 21.1 15.7 -2.6
v 21.1 15.6 -2.6
v 21 15.6 -2.6
v 21 15.7 -2.6
v 21.1 15.7 -2.6
v 21.1 15.7 -2.5
v 21.2 15.7 -2.5
v 21.2 15.7 -2.6
v 21.1 15.7 -2.5
v 21.1 15.6 -2.5
v 21.2 15.6 -2.5
v 21.2 15.7 -2.5
v 21.2 15.7 -2.6
v 21.2 15.6 -2.6
v 21.1 15.6 -2.6
v 21.1 15.7 -2.6
v 21.2 15.7 -2.6
v 21.2 15.7 -2.5
v 21.3 15.7 -2.5
v 21.3 15.7 -2.6
v 21.2 15.7 -2.5
v 21.2 15.6 -2.5
v 21.3 15.6 -2.5
v 21.3 15.7 -2.5
v 21.3 15.7 -2.6
v 21.3 15.6 -2.6
v 21.2 15.6 -2.6
v 21.2 15.7 -2.6
v 21.4 15.7 -2.5
v 21.4 15.6 -2.5
v 21.4 15.6 -2.6
v 21.4 15.7 -2.6
v 21.3 15.7 -2.6
v 21.3 15.7 -2.5
v 21.4 15.7 -2.5
v 21.4 15.7 -2.6
v 21.3 15.7 -2.5
v 21.3 15.6 -2.5
v 21.4 15.6 -2.5
v 21.4 15.7 -2.5
v 21.4 15.7 -2.6
v 21.4 15.6 -2.6
v 21.3 15.6 -2.6
v 21.3 15.7 -2.6
v 19.9 15.6 -2.6
v 19.9 15.5 -2.6
v 19.9 15.5 -2.5
v 19.9 15.6 -2.5
v 19.9 15.5 -2.5
v 19.9 15.5 -2.6
v 20 15.5 -2.6
v 20 15.5 -2.5
v 19.9 15.6 -2.5
v 19.9 15.5 -2.5
v 20 15.5 -2.5
v 20 15.6 -2.5
v 20 15.6 -2.6
v 20 15.5 -2.6
v 19.9 15.5 -2.6
v 19.9 15.6 -2.6
v 20 15.5 -2.5
v 20 15.5 -2.6
v 20.1 15.5 -2.6
v 20.1 15.5 -2.5
v 20 15.6 -2.5
v 20 15.5 -2.5
v 20.1 15.5 -2.5
v 20.1 15.6 -2.5
v 20.1 15.6 -2.6
v 20.1 15.5 -2.6
v 20 15.5 -2.6
v 20 15.6 -2.6
v 20.1 15.5 -2.5
v 20.1 15.5 -2.6
v 20.2 15.5 -2.6
v 20.2 15.5 -2.5
v 20.1 15.6 -2.5
v 20.1 15.5 -2.5
v 20.2 15.5 -2.5
v 20.2 15.6 -2.5
v 20.2 15.6 -2.6
v 20.2 15.5 -2.6
v 20.1 15.5 -2.6
v 20.1 15.6 -2.6
v 20.2 15.5 -2.5
v 20.2 15.5 -2.6
v 20.3 15.5 -2.6
v 20.3 15.5 -2.5
v 20.2 15.6 -2.5
v 20.2 15.5 -2.5
v 20.3 15.5 -2.5
v 20.3 15.6 -2.5
v 20.3 15.6 -2.6
v 20.3 15.5 -2.6
v 20.2 15.5 -2.6
v 20.2 15.6 -2.6
v 20.3 15.5 -2.5
v 20.3 15.5 -2.6
v 20.4 15.5 -2.6
v 20.4 15.5 -2.5
v 20.3 15.6 -2.5
v 20.3 15.5 -2.5
v 20.4 15.5 -2.5
v 20.4 15.6 -2.5
v 20.4 15.6 -2.6
v 20.4 15.5 -2.6
v 20.3 15.5 -2.6
v 20.3 15.6 -2.6
v 20.4 15.6 -2.5
v 20.4 15.5 -2.5
v 20.5 15.5 -2.5
v 20.5 15.6 -2.5
v 20.5 15.6 -2.6
v 20.5 15.5 -2.6
v 20.4 15.5 -2.6
v 20.4 15.6 -2.6
v 20.5 15.6 -2.5
v 20.5 15.5 -2.5
v 20.6 15.5 -2.5
v 20.6 15.6 -2.5
v 20.6 15.6 -2.6
v 20.6 15.5 -2.6
v 20.5 15.5 -2.6
v 20.5 15.6 -2.6
v 20.6 15.6 -2.5
v 20.6 15.5 -2.5
v 20.7 15.5 -2.5
v 20.7 15.6 -2.5
v 20.7 15.6 -2.6
v 20.7 15.5 -2.6
v 20.6 15.5 -2.6
v 20.6 15.6 -2.6
v 20.7 15.6 -2.5
v 20.7 15.5 -2.5
v 20.8 15.5 -2.5
v 20.8 15.6 -2.5
v 20.8 15.6 -2.6
v 20.8 15.5 -2.6
v 20.7 15.5 -2.6
v 20.7 15.6 -2.6
v 20.8 15.6 -2.5
v 20.8 15.5 -2.5
v 20.9 15.5 -2.5
v 20.9 15.6 -2.5
v 20.9 15.6 -2.6
v 20.9 15.5 -2.6
v 20.8 15.5 -2.6
v 20.8 15.6 -2.6
v 20.9 15.6 -2.5
v 20.9 15.5 -2.5
v 21 15.5 -2.5
v 21 15.6 -2.5
v 21 15.6 -2.6
v 21 15.5 -2.6
v 20.9 15.5 -2.6
v 20.9 15.6 -2.6
v 21 15.6 -2.5
v 21 15.5 -2.5
v 21.1 15.5 -2.5
v 21.1 15.6 -2.5
v 21.1 15.6 -2.6
v 21.1 15.5 -2.6
v 21 15.5 -2.6
v 21 15.6 -2.6
v 21.1 15.6 -2.5
v 21.1 15.5 -2.5
v 21.2 15.5 -2.5
v 21.2 15.6 -2.5
v 21.2 15.6 -2.6
v 21.2 15.5 -2.6
v 21.1 15.5 -2.6
v 21.1 15.6 -2.6
v 21.2 15.6 -2.5
v 21.2 15.5 -2.5
v 21.3 15.5 -2.5
v 21.3 15.6 -2.5
v 21.3 15.6 -2.6
v 21.3 15.5 -2.6
v 21.2 15.5 -2.6
v 21.2 15.6 -2.6
v 21.3 15.6 -2.5
v 21.3 15.5 -2.5
v 21.4 15.5 -2.5
v 21.4 15.6 -2.5
v 21.4 15.6 -2.6
v 21.4 15.5 -2.6
v 21.3 15.5 -2.6
v 21.3 15.6 -2.6
v 21.4 15.6 -2.6
v 21.4 15.6 -2.5
v 21.5 15.6 -2.5
v 21.5 15.6 -2.6
v 21.4 15.6 -2.5
v 21.4 15.5 -2.5
v 21.5 15.5 -2.5
v 21.5 15.6 -2.5
v 21.5 15.6 -2.6
v 21.5 15.5 -2.6
v 21.4 15.5 -2.6
v 21.4 15.6 -2.6
v 21.5 15.6 -2.6
v 21.5 15.6 -2.5
v 21.6 15.6 -2.5
v 21.6 15.6 -2.6
v 21.5 15.6 -2.5
v 21.5 15.5 -2.5
v 21.6 15.5 -2.5
v 21.6 15.6 -2.5
v 21.6 15.6 -2.6
v 21.6 15.5 -2.6
v 21.5 15.5 -2.6
v 21.5 15.6 -2.6
v 21.7 15.6 -2.5
v 21.7 15.5 -2.5
v 21.7 15.5 -2.6
v 21.7 15.6 -2.6
v 21.6 15.6 -2.6
v 21.6 15.6 -2.5
v 21.7 15.6 -2.5
v 21.7 15.6 -2.6
v 21.6 15.6 -2.5
v 21.6 15.5 -2.5
v 21.7 15.5 -2.5
v 21.7 15.6 -2.5
v 21.7 15.6 -2.6
v 21.7 15.5 -2.6
v 21.6 15.5 -2.6
v 21.6 15.6 -2.6
v 20.4 15.5 -2.6
v 20.4 15.4 -2.6
v 20.4 15.4 -2.5
v 20.4 15.5 -2.5
v 20.4 15.4 -2.5
v 20.4 15.4 -2.6
v 20.5 15.4 -2.6
v 20.5 15.4 -2.5
v 20.4 15.5 -2.5
v 20.4 15.4 -2.5
v 20.5 15.4 -2.5
v 20.5 15.5 -2.5
v 20.5 15.5 -2.6
v 20.5 15.4 -2.6
v 20.4 15.4 -2.6
v 20.4 15.5 -2.6
v 20.5 15.4 -2.5
v 20.5 15.4 -2.6
v 20.6 15.4 -2.6
v 20.6 15.4 -2.5
v 20.5 15.5 -2.5
v 20.5 15.4 -2.5
v 20.6 15.4 -2.5
v 20.6 15.5 -2.5
v 20.6 15.5 -2.6
v 20.6 15.4 -2.6
v 20.5 15.4 -2.6
v 20.5 15.5 -2.6
v 20.6 15.5 -2.5
v 20.6 15.4 -2.5
v 20.7 15.4 -2.5
v 20.7 15.5 -2.5
v 20.7 15.5 -2.6
v 20.7 15.4 -2.6
v 20.6 15.4 -2.6
v 20.6 15.5 -2.6
v 20.7 15.5 -2.5
v 20.7 15.4 -2.5
v 20.8 15.4 -2.5
v 20.8 15.5 -2.5
v 20.8 15.5 -2.6
v 20.8 15.4 -2.6
v 20.7 15.4 -2.6
v 20.7 15.5 -2.6
v 20.8 15.5 -2.5
v 20.8 15.4 -2.5
v 20.9 15.4 -2.5
v 20.9 15.5 -2.5
v 20.9 15.5 -2.6
v 20.9 15.4 -2.6
v 20.8 15.4 -2.6
v 20.8 15.5 -2.6
v 20.9 15.5 -2.5
v 20.9 15.4 -2.5
v 21 15.4 -2.5
v 21 15.5 -2.5
v 21 15.5 -2.6
v 21 15.4 -2.6
v 20.9 15.4 -2.6
v 20.9 15.5 -2.6
v 21 15.5 -2.5
v 21 15.4 -2.5
v 21.1 15.4 -2.5
v 21.1 15.5 -2.5
v 21.1 15.5 -2.6
v 21.1 15.4 -2.6
v 21 15.4 -2.6
v 21 15.5 -2.6
v 21.1 15.5 -2.5
v 21.1 15.4 -2.5
v 21.2 15.4 -2.5
v 21.2 15.5 -2.5
v 21.2 15.5 -2.6
v 21.2 15.4 -2.6
v 21.1 15.4 -2.6
v 21.1 15.5 -2.6
v 21.2 15.5 -2.5
v 21.2 15.4 -2.5
v 21.3 15.4 -2.5
v 21.3 15.5 -2.5
v 21.3 15.5 -2.6
v 21.3 15.4 -2.6
v 21.2 15.4 -2.6
v 21.2 15.5 -2.6
v 21.3 15.5 -2.5
v 21.3 15.4 -2.5
v 21.4 15.4 -2.5
v 21.4 15.5 -2.5
v 21.4 15.5 -2.6
v 21.4 15.4 -2.6
v 21.3 15.4 -2.6
v 21.3 15.5 -2.6
v 21.4 15.5 -2.5
v 21.4 15.4 -2.5
v 21.5 15.4 -2.5
v 21.5 15.5 -2.5
v 21.5 15.5 -2.6
v 21.5 15.4 -2.6
v 21.4 15.4 -2.6
v 21.4 15.5 -2.6
v 21.5 15.5 -2.5
v 21.5 15.4 -2.5
v 21.6 15.4 -2.5
v 21.6 15.5 -2.5
v 21.6 15.5 -2.6
v 21.6 15.4 -2.6
v 21.5 15.4 -2.6
v 21.5 15.5 -2.6
v 21.6 15.5 -2.5
v 21.6 15.4 -2.5
v 21.7 15.4 -2.5
v 21.7 15.5 -2.5
v 21.7 15.5 -2.6
v 21.7 15.4 -2.6
v 21.6 15.4 -2.6
v 21.6 15.5 -2.6
v 21.7 15.5 -2.6
v 21.7 15.5 -2.5
v 21.8 15.5 -2.5
v 21.8 15.5 -2.6
v 21.7 15.5 -2.5
v 21.7 15.4 -2.5
v 21.8 15.4 -2.5
v 21.8 15.5 -2.5
v 21.8 15.5 -2.6
v 21.8 15.4 -2.6
v 21.7 15.4 -2.6
v 21.7 15.5 -2.6
v 21.8 15.5 -2.6
v 21.8 15.5 -2.5
v 21.9 15.5 -2.5
v 21.9 15.5 -2.6
v 21.8 15.5 -2.5
v 21.8 15.4 -2.5
v 21.9 15.4 -2.5
v 21.9 15.5 -2.5
v 21.9 15.5 -2.6
v 21.9 15.4 -2.6
v 21.8 15.4 -2.6
v 21.8 15.5 -2.6
v 22 15.5 -2.5
v 22 15.4 -2.5
v 22 15.4 -2.6
v 22 15.5 -2.6
v 21.9 15.5 -2.6
v 21.9 15.5 -2.5
v 22 15.5 -2.5
v 22 15.5 -2.6
v 21.9 15.5 -2.5
v 21.9 15.4 -2.5
v 22 15.4 -2.5
v 22 15.5 -2.5
v 22 15.5 -2.6
v 22 15.4 -2.6
v 21.9 15.4 -2.6
v 21.9 15.5 -2.6
v 20.2 15.4 -2.6
v 20.2 15.3 -2.6
v 20.2 15.3 -2.5
v 20.2 15.4 -2.5
v 20.3 15.4 -2.5
v 20.3 15.3 -2.5
v 20.3 15.3 -2.6
v 20.3 15.4 -2.6
v 20.2 15.4 -2.6
v 20.2 15.4 -2.5
v 20.3 15.4 -2.5
v 20.3 15.4 -2.6
v 20.2 15.3 -2.5
v 20.2 15.3 -2.6
v 20.3 15.3 -2.6
v 20.3 15.3 -2.5
v 20.2 15.4 -2.5
v 20.2 15.3 -2.5
v 20.3 15.3 -2.5
v 20.3 15.4 -2.5
v 20.3 15.4 -2.6
v 20.3 15.3 -2.6
v 20.2 15.3 -2.6
v 20.2 15.4 -2.6
v 20.6 15.4 -2.6
v 20.6 15.3 -2.6
v 20.6 15.3 -2.5
v 20.6 15.4 -2.5
v 20.6 15.3 -2.5
v 20.6 15.3 -2.6
v 20.7 15.3 -2.6
v 20.7 15.3 -2.5
v 20.6 15.4 -2.5
v 20.6 15.3 -2.5
v 20.7 15.3 -2.5
v 20.7 15.4 -2.5
v 20.7 15.4 -2.6
v 20.7 15.3 -2.6
v 20.6 15.3 -2.6
v 20.6 15.4 -2.6
v 20.7 15.3 -2.5
v 20.7 15.3 -2.6
v 20.8 15.3 -2.6
v 20.8 15.3 -2.5
v 20.7 15.4 -2.5
v 20.7 15.3 -2.5
v 20.8 15.3 -2.5
v 20.8 15.4 -2.5
v 20.8 15.4 -2.6
v 20.8 15.3 -2.6
v 20.7 15.3 -2.6
v 20.7 15.4 -2.6
v 20.8 15.4 -2.5
v 20.8 15.3 -2.5
v 20.9 15.3 -2.5
v 20.9 15.4 -2.5
v 20.9 15.4 -2.6
v 20.9 15.3 -2.6
v 20.8 15.3 -2.6
v 20.8 15.4 -2.6
v 20.9 15.4 -2.5
v 20.9 15.3 -2.5
v 21 15.3 -2.5
v 21 15.4 -2.5
v 21 15.4 -2.6
v 21 15.3 -2.6
v 20.9 15.3 -2.6
v 20.9 15.4 -2.6
v 21 15.4 -2.5
v 21 15.3 -2.5
v 21.1 15.3 -2.5
v 21.1 15.4 -2.5
v 21.1 15.4 -2.6
v 21.1 15.3 -2.6
v 21 15.3 -2.6
v 21 15.4 -2.6
v 21.1 15.4 -2.5
v 21.1 15.3 -2.5
v 21.2 15.3 -2.5
v 21.2 15.4 -2.5
v 21.2 15.4 -2.6
v 21.2 15.3 -2.6
v 21.1 15.3 -2.6
v 21.1 15.4 -2.6
v 21.2 15.4 -2.5
v 21.2 15.3 -2.5
v 21.3 15.3 -2.5
v 21.3 15.4 -2.5
v 21.3 15.4 -2.6
v 21.3 15.3 -2.6
v 21.2 15.3 -2.6
v 21.2 15.4 -2.6
v 21.3 15.4 -2.5
v 21.3 15.3 -2.5
v 21.4 15.3 -2.5
v 21.4 15.4 -2.5
v 21.4 15.4 -2.6
v 21.4 15.3 -2.6
v 21.3 15.3 -2.6
v 21.3 15.4 -2.6
v 21.4 15.4 -2.5
v 21.4 15.3 -2.5
v 21.5 15.3 -2.5
v 21.5 15.4 -2.5
v 21.5 15.4 -2.6
v 21.5 15.3 -2.6
v 21.4 15.3 -2.6
v 21.4 15.4 -2.6
v 21.5 15.4 -2.5
v 21.5 15.3 -2.5
v 21.6 15.3 -2.5
v 21.6 15.4 -2.5
v 21.6 15.4 -2.6
v 21.6 15.3 -2.6
v 21.5 15.3 -2.6
v 21.5 15.4 -2.6
v 21.6 15.4 -2.5
v 21.6 15.3 -2.5
v 21.7 15.3 -2.5
v 21.7 15.4 -2.5
v 21.7 15.4 -2.6
v 21.7 15.3 -2.6
v 21.6 15.3 -2.6
v 21.6 15.4 -2.6
v 21.7 15.4 -2.5
v 21.7 15.3 -2.5
v 21.8 15.3 -2.5
v 21.8 15.4 -2.5
v 21.8 15.4 -2.6
v 21.8 15.3 -2.6
v 21.7 15.3 -2.6
v 21.7 15.4 -2.6
v 21.8 15.4 -2.5
v 21.8 15.3 -2.5
v 21.9 15.3 -2.5
v 21.9 15.4 -2.5
v 21.9 15.4 -2.6
v 21.9 15.3 -2.6
v 21.8 15.3 -2.6
v 21.8 15.4 -2.6
v 21.9 15.4 -2.5
v 21.9 15.3 -2.5
v 22 15.3 -2.5
v 22 15.4 -2.5
v 22 15.4 -2.6
v 22 15.3 -2.6
v 21.9 15.3 -2.6
v 21.9 15.4 -2.6
v 22 15.4 -2.6
v 22 15.4 -2.5
v 22.1 15.4 -2.5
v 22.1 15.4 -2.6
v 22 15.4 -2.5
v 22 15.3 -2.5
v 22.1 15.3 -2.5
v 22.1 15.4 -2.5
v 22.1 15.4 -2.6
v 22.1 15.3 -2.6
v 22 15.3 -2.6
v 22 15.4 -2.6
v 22.2 15.4 -2.5
v 22.2 15.3 -2.5
v 22.2 15.3 -2.6
v 22.2 15.4 -2.6
v 22.1 15.4 -2.6
v 22.1 15.4 -2.5
v 22.2 15.4 -2.5
v 22.2 15.4 -2.6
v 22.1 15.4 -2.5
v 22.1 15.3 -2.5
v 22.2 15.3 -2.5
v 22.2 15.4 -2.5
v 22.2 15.4 -2.6
v 22.2 15.3 -2.6
v 22.1 15.3 -2.6
v 22.1 15.4 -2.6
v 20.8 15.3 -2.6
v 20.8 15.2 -2.6
v 20.8 15.2 -2.5
v 20.8 15.3 -2.5
v 20.8 15.2 -2.5
v 20.8 15.2 -2.6
v 20.9 15.2 -2.6
v 20.9 15.2 -2.5
v 20.8 15.3 -2.5
v 20.8 15.2 -2.5
v 20.9 15.2 -2.5
v 20.9 15.3 -2.5
v 20.9 15.3 -2.6
v 20.9 15.2 -2.6
v 20.8 15.2 -2.6
v 20.8 15.3 -2.6
v 20.9 15.3 -2.5
v 20.9 15.2 -2.5
v 21 15.2 -2.5
v 21 15.3 -2.5
v 21 15.3 -2.6
v 21 15.2 -2.6
v 20.9 15.2 -2.6
v 20.9 15.3 -2.6
v 21 15.3 -2.5
v 21 15.2 -2.5
v 21.1 15.2 -2.5
v 21.1 15.3 -2.5
v 21.1 15.3 -2.6
v 21.1 15.2 -2.6
v 21 15.2 -2.6
v 21 15.3 -2.6
v 21.1 15.3 -2.5
v 21.1 15.2 -2.5
v 21.2 15.2 -2.5
v 21.2 15.3 -2.5
v 21.2 15.3 -2.6
v 21.2 15.2 -2.6
v 21.1 15.2 -2.6
v 21.1 15.3 -2.6
v 21.2 15.3 -2.5
v 21.2 15.2 -2.5
v 21.3 15.2 -2.5
v 21.3 15.3 -2.5
v 21.3 15.3 -2.6
v 21.3 15.2 -2.6
v 21.2 15.2 -2.6
v 21.2 15.3 -2.6
v 21.3 15.3 -2.5
v 21.3 15.2 -2.5
v 21.4 15.2 -2.5
v 21.4 15.3 -2.5
v 21.4 15.3 -2.6
v 21.4 15.2 -2.6
v 21.3 15.2 -2.6
v 21.3 15.3 -2.6
v 21.4 15.3 -2.5
v 21.4 15.2 -2.5
v 21.5 15.2 -2.5
v 21.5 15.3 -2.5
v 21.5 15.3 -2.6
v 21.5 15.2 -2.6
v 21.4 15.2 -2.6
v 21.4 15.3 -2.6
v 21.5 15.3 -2.5
v 21.5 15.2 -2.5
v 21.6 15.2 -2.5
v 21.6 15.3 -2.5
v 21.6 15.3 -2.6
v 21.6 15.2 -2.6
v 21.5 15.2 -2.6
v 21.5 15.3 -2.6
v 21.6 15.3 -2.5
v 21.6 15.2 -2.5
v 21.7 15.2 -2.5
v 21.7 15.3 -2.5
v 21.7 15.3 -2.6
v 21.7 15.2 -2.6
v 21.6 15.2 -2.6
v 21.6 15.3 -2.6
v 21.7 15.3 -2.5
v 21.7 15.2 -2.5
v 21.8 15.2 -2.5
v 21.8 15.3 -2.5
v 21.8 15.3 -2.6
v 21.8 15.2 -2.6
v 21.7 15.2 -2.6
v 21.7 15.3 -2.6
v 21.8 15.3 -2.5
v 21.8 15.2 -2.5
v 21.9 15.2 -2.5
v 21.9 15.3 -2.5
v 21.9 15.3 -2.6
v 21.9 15.2 -2.6
v 21.8 15.2 -2.6
v 21.8 15.3 -2.6
v 21.9 15.3 -2.5
v 21.9 15.2 -2.5
v 22 15.2 -2.5
v 22 15.3 -2.5
v 22 15.3 -2.6
v 22 15.2 -2.6
v 21.9 15.2 -2.6
v 21.9 15.3 -2.6
v 22 15.3 -2.5
v 22 15.2 -2.5
v 22.1 15.2 -2.5
v 22.1 15.3 -2.5
v 22.1 15.3 -2.6
v 22.1 15.2 -2.6
v 22 15.2 -2.6
v 22 15.3 -2.6
v 22.1 15.3 -2.5
v 22.1 15.2 -2.5
v 22.2 15.2 -2.5
v 22.2 15.3 -2.5
v 22.2 15.3 -2.6
v 22.2 15.2 -2.6
v 22.1 15.2 -2.6
v 22.1 15.3 -2.6
v 22.2 15.3 -2.6
v 22.2 15.3 -2.5
v 22.3 15.3 -2.5
v 22.3 15.3 -2.6
v 22.2 15.3 -2.5
v 22.2 15.2 -2.5
v 22.3 15.2 -2.5
v 22.3 15.3 -2.5
v 22.3 15.3 -2.6
v 22.3 15.2 -2.6
v 22.2 15.2 -2.6
v 22.2 15.3 -2.6
v 22.4 15.3 -2.5
v 22.4 15.2 -2.5
v 22.4 15.2 -2.6
v 22.4 15.3 -2.6
v 22.3 15.3 -2.6
v 22.3 15.3 -2.5
v 22.4 15.3 -2.5
v 22.4 15.3 -2.6
v 22.3 15.3 -2.5
v 22.3 15.2 -2.5
v 22.4 15.2 -2.5
v 22.4 15.3 -2.5
v 22.4 15.3 -2.6
v 22.4 15.2 -2.6
v 22.3 15.2 -2.6
v 22.3 15.3 -2.6
v 20.9 15.2 -2.6
v 20.9 15.1 -2.6
v 20.9 15.1 -2.5
v 20.9 15.2 -2.5
v 20.9 15.1 -2.5
v 20.9 15.1 -2.6
v 21 15.1 -2.6
v 21 15.1 -2.5
v 20.9 15.2 -2.5
v 20.9 15.1 -2.5
v 21 15.1 -2.5
v 21 15.2 -2.5
v 21 15.2 -2.6
v 21 15.1 -2.6
v 20.9 15.1 -2.6
v 20.9 15.2 -2.6
v 21 15.2 -2.5
v 21 15.1 -2.5
v 21.1 15.1 -2.5
v 21.1 15.2 -2.5
v 21.1 15.2 -2.6
v 21.1 15.1 -2.6
v 21 15.1 -2.6
v 21 15.2 -2.6
v 21.1 15.2 -2.5
v 21.1 15.1 -2.5
v 21.2 15.1 -2.5
v 21.2 15.2 -2.5
v 21.2 15.2 -2.6
v 21.2 15.1 -2.6
v 21.1 15.1 -2.6
v 21.1 15.2 -2.6
v 21.2 15.2 -2.5
v 21.2 15.1 -2.5
v 21.3 15.1 -2.5
v 21.3 15.2 -2.5
v 21.3 15.2 -2.6
v 21.3 15.1 -2.6
v 21.2 15.1 -2.6
v 21.2 15.2 -2.6
v 21.3 15.2 -2.5
v 21.3 15.1 -2.5
v 21.4 15.1 -2.5
v 21.4 15.2 -2.5
v 21.4 15.2 -2.6
v 21.4 15.1 -2.6
v 21.3 15.1 -2.6
v 21.3 15.2 -2.6
v 21.4 15.2 -2.5
v 21.4 15.1 -2.5
v 21.5 15.1 -2.5
v 21.5 15.2 -2.5
v 21.5 15.2 -2.6
v 21.5 15.1 -2.6
v 21.4 15.1 -2.6
v 21.4 15.2 -2.6
v 21.5 15.2 -2.5
v 21.5 15.1 -2.5
v 21.6 15.1 -2.5
v 21.6 15.2 -2.5
v 21.6 15.2 -2.6
v 21.6 15.1 -2.6
v 21.5 15.1 -2.6
v 21.5 15.2 -2.6
v 21.6 15.2 -2.5
v 21.6 15.1 -2.5
v 21.7 15.1 -2.5
v 21.7 15.2 -2.5
v 21.7 15.2 -2.6
v 21.7 15.1 -2.6
v 21.6 15.1 -2.6
v 21.6 15.2 -2.6
v 21.7 15.2 -2.5
v 21.7 15.1 -2.5
v 21.8 15.1 -2.5
v 21.8 15.2 -2.5
v 21.8 15.2 -2.6
v 21.8 15.1 -2.6
v 21.7 15.1 -2.6
v 21.7 15.2 -2.6
v 21.8 15.2 -2.5
v 21.8 15.1 -2.5
v 21.9 15.1 -2.5
v 21.9 15.2 -2.5
v 21.9 15.2 -2.6
v 21.9 15.1 -2.6
v 21.8 15.1 -2.6
v 21.8 15.2 -2.6
v 21.9 15.2 -2.5
v 21.9 15.1 -2.5
v 22 15.1 -2.5
v 22 15.2 -2.5
v 22 15.2 -2.6
v 22 15.1 -2.6
v 21.9 15.1 -2.6
v 21.9 15.2 -2.6
v 22 15.2 -2.5
v 22 15.1 -2.5
v 22.1 15.1 -2.5
v 22.1 15.2 -2.5
v 22.1 15.2 -2.6
v 22.1 15.1 -2.6
v 22 15.1 -2.6
v 22 15.2 -2.6
v 22.1 15.2 -2.5
v 22.1 15.1 -2.5
v 22.2 15.1 -2.5
v 22.2 15.2 -2.5
v 22.2 15.2 -2.6
v 22.2 15.1 -2.6
v 22.1 15.1 -2.6
v 22.1 15.2 -2.6
v 22.2 15.2 -2.5
v 22.2 15.1 -2.5
v 22.3 15.1 -2.5
v 22.3 15.2 -2.5
v 22.3 15.2 -2.6
v 22.3 15.1 -2.6
v 22.2 15.1 -2.6
v 22.2 15.2 -2.6
v 22.3 15.2 -2.5
v 22.3 15.1 -2.5
v 22.4 15.1 -2.5
v 22.4 15.2 -2.5
v 22.4 15.2 -2.6
v 22.4 15.1 -2.6
v 22.3 15.1 -2.6
v 22.3 15.2 -2.6
v 22.4 15.2 -2.6
v 22.4 15.2 -2.5
v 22.5 15.2 -2.5
v 22.5 15.2 -2.6
v 22.4 15.2 -2.5
v 22.4 15.1 -2.5
v 22.5 15.1 -2.5
v 22.5 15.2 -2.5
v 22.5 15.2 -2.6
v 22.5 15.1 -2.6
v 22.4 15.1 -2.6
v 22.4 15.2 -2.6
v 22.6 15.2 -2.5
v 22.6 15.1 -2.5
v 22.6 15.1 -2.6
v 22.6 15.2 -2.6
v 22.5 15.2 -2.6
v 22.5 15.2 -2.5
v 22.6 15.2 -2.5
v 22.6 15.2 -2.6
v 22.5 15.2 -2.5
v 22.5 15.1 -2.5
v 22.6 15.1 -2.5
v 22.6 15.2 -2.5
v 22.6 15.2 -2.6
v 22.6 15.1 -2.6
v 22.5 15.1 -2.6
v 22.5 15.2 -2.6
v 21 15.1 -2.6
v 21 15 -2.6
v 21 15 -2.5
v 21 15.1 -2.5
v 21 15 -2.5
v 21 15 -2.6
v 21.1 15 -2.6
v 21.1 15 -2.5
v 21 15.1 -2.5
v 21 15 -2.5
v 21.1 15 -2.5
v 21.1 15.1 -2.5
v 21.1 15.1 -2.6
v 21.1 15 -2.6
v 21 15 -2.6
v 21 15.1 -2.6
v 21.1 15.1 -2.5
v 21.1 15 -2.5
v 21.2 15 -2.5
v 21.2 15.1 -2.5
v 21.2 15.1 -2.6
v 21.2 15 -2.6
v 21.1 15 -2.6
v 21.1 15.1 -2.6
v 21.2 15.1 -2.5
v 21.2 15 -2.5
v 21.3 15 -2.5
v 21.3 15.1 -2.5
v 21.3 15.1 -2.6
v 21.3 15 -2.6
v 21.2 15 -2.6
v 21.2 15.1 -2.6
v 21.3 15.1 -2.5
v 21.3 15 -2.5
v 21.4 15 -2.5
v 21.4 15.1 -2.5
v 21.4 15.1 -2.6
v 21.4 15 -2.6
v 21.3 15 -2.6
v 21.3 15.1 -2.6
v 21.4 15.1 -2.5
v 21.4 15 -2.5
v 21.5 15 -2.5
v 21.5 15.1 -2.5
v 21.5 15.1 -2.6
v 21.5 15 -2.6
v 21.4 15 -2.6
v 21.4 15.1 -2.6
v 21.5 15.1 -2.5
v 21.5 15 -2.5
v 21.6 15 -2.5
v 21.6 15.1 -2.5
v 21.6 15.1 -2.6
v 21.6 15 -2.6
v 21.5 15 -2.6
v 21.5 15.1 -2.6
v 21.6 15.1 -2.5
v 21.6 15 -2.5
v 21.7 15 -2.5
v 21.7 15.1 -2.5
v 21.7 15.1 -2.6
v 21.7 15 -2.6
v 21.6 15 -2.6
v 21.6 15.1 -2.6
v 21.7 15.1 -2.5
v 21.7 15 -2.5
v 21.8 15 -2.5
v 21.8 15.1 -2.5
v 21.8 15.1 -2.6
v 21.8 15 -2.6
v 21.7 15 -2.6
v 21.7 15.1 -2.6
v 21.8 15.1 -2.5
v 21.8 15 -2.5
v 21.9 15 -2.5
v 21.9 15.1 -2.5
v 21.9 15.1 -2.6
v 21.9 15 -2.6
v 21.8 15 -2.6
v 21.8 15.1 -2.6
v 21.9 15.1 -2.5
v 21.9 15 -2.5
v 22 15 -2.5
v 22 15.1 -2.5
v 22 15.1 -2.6
v 22 15 -2.6
v 21.9 15 -2.6
v 21.9 15.1 -2.6
v 22 15.1 -2.5
v 22 15 -2.5
v 22.1 15 -2.5
v 22.1 15.1 -2.5
v 22.1 15.1 -2.6
v 22.1 15 -2.6
v 22 15 -2.6
v 22 15.1 -2.6
v 22.1 15.1 -2.5
v 22.1 15 -2.5
v 22.2 15 -2.5
v 22.2 15.1 -2.5
v 22.2 15.1 -2.6
v 22.2 15 -2.6
v 22.1 15 -2.6
v 22.1 15.1 -2.6
v 22.2 15.1 -2.5
v 22.2 15 -2.5
v 22.3 15 -2.5
v 22.3 15.1 -2.5
v 22.3 15.1 -2.6
v 22.3 15 -2.6
v 22.2 15 -2.6
v 22.2 15.1 -2.6
v 22.3 15.1 -2.5
v 22.3 15 -2.5
v 22.4 15 -2.5
v 22.4 15.1 -2.5
v 22.4 15.1 -2.6
v 22.4 15 -2.6
v 22.3 15 -2.6
v 22.3 15.1 -2.6
v 22.4 15.1 -2.5
v 22.4 15 -2.5
v 22.5 15 -2.5
v 22.5 15.1 -2.5
v 22.5 15.1 -2.6
v 22.5 15 -2.6
v 22.4 15 -2.6
v 22.4 15.1 -2.6
v 22.5 15.1 -2.5
v 22.5 15 -2.5
v 22.6 15 -2.5
v 22.6 15.1 -2.5
v 22.6 15.1 -2.6
v 22.6 15 -2.6
v 22.5 15 -2.6
v 22.5 15.1 -2.6
v 22.7 15.1 -2.5
v 22.7 15 -2.5
v 22.7 15 -2.6
v 22.7 15.1 -2.6
v 22.6 15.1 -2.6
v 22.6 15.1 -2.5
v 22.7 15.1 -2.5
v 22.7 15.1 -2.6
v 22.6 15.1 -2.5
v 22.6 15 -2.5
v 22.7 15 -2.5
v 22.7 15.1 -2.5
v 22.7 15.1 -2.6
v 22.7 15 -2.6
v 22.6 15 -2.6
v 22.6 15.1 -2.6
v 21.1 15 -2.6
v 21.1 14.9 -2.6
v 21.1 14.9 -2.5
v 21.1 15 -2.5
v 21.1 14.9 -2.5
v 21.1 14.9 -2.6
v 21.2 14.9 -2.6
v 21.2 14.9 -2.5
v 21.1 15 -2.5
v 21.1 14.9 -2.5
v 21.2 14.9 -2.5
v 21.2 15 -2.5
v 21.2 15 -2.6
v 21.2 14.9 -2.6
v 21.1 14.9 -2.6
v 21.1 15 -2.6
v 21.2 15 -2.5
v 21.2 14.9 -2.5
v 21.3 14.9 -2.5
v 21.3 15 -2.5
v 21.3 15 -2.6
v 21.3 14.9 -2.6
v 21.2 14.9 -2.6
v 21.2 15 -2.6
v 21.3 15 -2.5
v 21.3 14.9 -2.5
v 21.4 14.9 -2.5
v 21.4 15 -2.5
v 21.4 15 -2.6
v 21.4 14.9 -2.6
v 21.3 14.9 -2.6
v 21.3 15 -2.6
v 21.4 15 -2.5
v 21.4 14.9 -2.5
v 21.5 14.9 -2.5
v 21.5 15 -2.5
v 21.5 15 -2.6
v 21.5 14.9 -2.6
v 21.4 14.9 -2.6
v 21.4 15 -2.6
v 21.5 15 -2.5
v 21.5 14.9 -2.5
v 21.6 14.9 -2.5
v 21.6 15 -2.5
v 21.6 15 -2.6
v 21.6 14.9 -2.6
v 21.5 14.9 -2.6
v 21.5 15 -2.6
v 21.6 15 -2.5
v 21.6 14.9 -2.5
v 21.7 14.9 -2.5
v 21.7 15 -2.5
v 21.7 15 -2.6
v 21.7 14.9 -2.6
v 21.6 14.9 -2.6
v 21.6 15 -2.6
v 21.7 15 -2.5
v 21.7 14.9 -2.5
v 21.8 14.9 -2.5
v 21.8 15 -2.5
v 21.8 15 -2.6
v 21.8 14.9 -2.6
v 21.7 14.9 -2.6
v 21.7 15 -2.6
v 21.8 15 -2.5
v 21.8 14.9 -2.5
v 21.9 14.9 -2.5
v 21.9 15 -2.5
v 21.9 15 -2.6
v 21.9 14.9 -2.6
v 21.8 14.9 -2.6
v 21.8 15 -2.6
v 21.9 15 -2.5
v 21.9 14.9 -2.5
v 22 14.9 -2.5
v 22 15 -2.5
v 22 15 -2.6
v 22 14.9 -2.6
v 21.9 14.9 -2.6
v 21.9 15 -2.6
v 22 15 -2.5
v 22 14.9 -2.5
v 22.1 14.9 -2.5
v 22.1 15 -2.5
v 22.1 15 -2.6
v 22.1 14.9 -2.6
v 22 14.9 -2.6
v 22 15 -2.6
v 22.1 15 -2.5
v 22.1 14.9 -2.5
v 22.2 14.9 -2.5
v 22.2 15 -2.5
v 22.2 15 -2.6
v 22.2 14.9 -2.6
v 22.1 14.9 -2.6
v 22.1 15 -2.6
v 22.2 15 -2.5
v 22.2 14.9 -2.5
v 22.3 14.9 -2.5
v 22.3 15 -2.5
v 22.3 15 -2.6
v 22.3 14.9 -2.6
v 22.2 14.9 -2.6
v 22.2 15 -2.6
v 22.3 15 -2.5
v 22.3 14.9 -2.5
v 22.4 14.9 -2.5
v 22.4 15 -2.5
v 22.4 15 -2.6
v 22.4 14.9 -2.6
v 22.3 14.9 -2.6
v 22.3 15 -2.6
v 22.4 15 -2.5
v 22.4 14.9 -2.5
v 22.5 14.9 -2.5
v 22.5 15 -2.5
v 22.5 15 -2.6
v 22.5 14.9 -2.6
v 22.4 14.9 -2.6
v 22.4 15 -2.6
v 22.5 15 -2.5
v 22.5 14.9 -2.5
v 22.6 14.9 -2.5
v 22.6 15 -2.5
v 22.6 15 -2.6
v 22.6 14.9 -2.6
v 22.5 14.9 -2.6
v 22.5 15 -2.6
v 22.6 15 -2.5
v 22.6 14.9 -2.5
v 22.7 14.9 -2.5
v 22.7 15 -2.5
v 22.7 15 -2.6
v 22.7 14.9 -2.6
v 22.6 14.9 -2.6
v 22.6 15 -2.6
v 22.8 15 -2.5
v 22.8 14.9 -2.5
v 22.8 14.9 -2.6
v 22.8 15 -2.6
v 22.7 15 -2.6
v 22.7 15 -2.5
v 22.8 15 -2.5
v 22.8 15 -2.6
v 22.7 15 -2.5
v 22.7 14.9 -2.5
v 22.8 14.9 -2.5
v 22.8 15 -2.5
v 22.8 15 -2.6
v 22.8 14.9 -2.6
v 22.7 14.9 -2.6
v 22.7 15 -2.6
v 21.2 14.9 -2.6
v 21.2 14.8 -2.6
v 21.2 14.8 -2.5
v 21.2 14.9 -2.5
v 21.2 14.8 -2.5
v 21.2 14.8 -2.6
v 21.3 14.8 -2.6
v 21.3 14.8 -2.5
v 21.2 14.9 -2.5
v 21.2 14.8 -2.5
v 21.3 14.8 -2.5
v 21.3 14.9 -2.5
v 21.3 14.9 -2.6
v 21.3 14.8 -2.6
v 21.2 14.8 -2.6
v 21.2 14.9 -2.6
v 21.3 14.9 -2.5
v 21.3 14.8 -2.5
v 21.4 14.8 -2.5
v 21.4 14.9 -2.5
v 21.4 14.9 -2.6
v 21.4 14.8 -2.6
v 21.3 14.8 -2.6
v 21.3 14.9 -2.6
v 21.4 14.9 -2.5
v 21.4 14.8 -2.5
v 21.5 14.8 -2.5
v 21.5 14.9 -2.5
v 21.5 14.9 -2.6
v 21.5 14.8 -2.6
v 21.4 14.8 -2.6
v 21.4 14.9 -2.6
v 21.5 14.9 -2.5
v 21.5 14.8 -2.5
v 21.6 14.8 -2.5
v 21.6 14.9 -2.5
v 21.6 14.9 -2.6
v 21.6 14.8 -2.6
v 21.5 14.8 -2.6
v 21.5 14.9 -2.6
v 21.6 14.9 -2.5
v 21.6 14.8 -2.5
v 21.7 14.8 -2.5
v 21.7 14.9 -2.5
v 21.7 14.9 -2.6
v 21.7 14.8 -2.6
v 21.6 14.8 -2.6
v 21.6 14.9 -2.6
v 21.7 14.9 -2.5
v 21.7 14.8 -2.5
v 21.8 14.8 -2.5
v 21.8 14.9 -2.5
v 21.8 14.9 -2.6
v 21.8 14.8 -2.6
v 21.7 14.8 -2.6
v 21.7 14.9 -2.6
v 21.8 14.9 -2.5
v 21.8 14.8 -2.5
v 21.9 14.8 -2.5
v 21.9 14.9 -2.5
v 21.9 14.9 -2.6
v 21.9 14.8 -2.6
v 21.8 14.8 -2.6
v 21.8 14.9 -2.6
v 21.9 14.9 -2.5
v 21.9 14.8 -2.5
v 22 14.8 -2.5
v 22 14.9 -2.5
v 22 14.9 -2.6
v 22 14.8 -2.6
v 21.9 14.8 -2.6
v 21.9 14.9 -2.6
v 22 14.9 -2.5
v 22 14.8 -2.5
v 22.1 14.8 -2.5
v 22.1 14.9 -2.5
v 22.1 14.9 -2.6
v 22.1 14.8 -2.6
v 22 14.8 -2.6
v 22 14.9 -2.6
v 22.1 14.9 -2.5
v 22.1 14.8 -2.5
v 22.2 14.8 -2.5
v 22.2 14.9 -2.5
v 22.2 14.9 -2.6
v 22.2 14.8 -2.6
v 22.1 14.8 -2.6
v 22.1 14.9 -2.6
v 22.2 14.9 -2.5
v 22.2 14.8 -2.5
v 22.3 14.8 -2.5
v 22.3 14.9 -2.5
v 22.3 14.9 -2.6
v 22.3 14.8 -2.6
v 22.2 14.8 -2.6
v 22.2 14.9 -2.6
v 22.3 14.9 -2.5
v 22.3 14.8 -2.5
v 22.4 14.8 -2.5
v 22.4 14.9 -2.5
v 22.4 14.9 -2.6
v 22.4 14.8 -2.6
v 22.3 14.8 -2.6
v 22.3 14.9 -2.6
v 22.4 14.9 -2.5
v 22.4 14.8 -2.5
v 22.5 14.8 -2.5
v 22.5 14.9 -2.5
v 22.5 14.9 -2.6
v 22.5 14.8 -2.6
v 22.4 14.8 -2.6
v 22.4 14.9 -2.6
v 22.5 14.9 -2.5
v 22.5 14.8 -2.5
v 22.6 14.8 -2.5
v 22.6 14.9 -2.5
v 22.6 14.9 -2.6
v 22.6 14.8 -2.6
v 22.5 14.8 -2.6
v 22.5 14.9 -2.6
v 22.6 14.9 -2.5
v 22.6 14.8 -2.5
v 22.7 14.8 -2.5
v 22.7 14.9 -2.5
v 22.7 14.9 -2.6
v 22.7 14.8 -2.6
v 22.6 14.8 -2.6
v 22.6 14.9 -2.6
v 22.8 14.9 -2.5
v 22.8 14.8 -2.5
v 22.8 14.8 -2.6
v 22.8 14.9 -2.6
v 22.7 14.8 -2.5
v 22.7 14.8 -2.6
v 22.8 14.8 -2.6
v 22.8 14.8 -2.5
v 22.7 14.9 -2.5
v 22.7 14.8 -2.5
v 22.8 14.8 -2.5
v 22.8 14.9 -2.5
v 22.8 14.9 -2.6
v 22.8 14.8 -2.6
v 22.7 14.8 -2.6
v 22.7 14.9 -2.6
v 21.3 14.8 -2.6
v 21.3 14.7 -2.6
v 21.3 14.7 -2.5
v 21.3 14.8 -2.5
v 21.3 14.7 -2.5
v 21.3 14.7 -2.6
v 21.4 14.7 -2.6
v 21.4 14.7 -2.5
v 21.3 14.8 -2.5
v 21.3 14.7 -2.5
v 21.4 14.7 -2.5
v 21.4 14.8 -2.5
v 21.4 14.8 -2.6
v 21.4 14.7 -2.6
v 21.3 14.7 -2.6
v 21.3 14.8 -2.6
v 21.4 14.8 -2.5
v 21.4 14.7 -2.5
v 21.5 14.7 -2.5
v 21.5 14.8 -2.5
v 21.5 14.8 -2.6
v 21.5 14.7 -2.6
v 21.4 14.7 -2.6
v 21.4 14.8 -2.6
v 21.5 14.8 -2.5
v 21.5 14.7 -2.5
v 21.6 14.7 -2.5
v 21.6 14.8 -2.5
v 21.6 14.8 -2.6
v 21.6 14.7 -2.6
v 21.5 14.7 -2.6
v 21.5 14.8 -2.6
v 21.6 14.8 -2.5
v 21.6 14.7 -2.5
v 21.7 14.7 -2.5
v 21.7 14.8 -2.5
v 21.7 14.8 -2.6
v 21.7 14.7 -2.6
v 21.6 14.7 -2.6
v 21.6 14.8 -2.6
v 21.7 14.8 -2.5
v 21.7 14.7 -2.5
v 21.8 14.7 -2.5
v 21.8 14.8 -2.5
v 21.8 14.8 -2.6
v 21.8 14.7 -2.6
v 21.7 14.7 -2.6
v 21.7 14.8 -2.6
v 21.8 14.8 -2.5
v 21.8 14.7 -2.5
v 21.9 14.7 -2.5
v 21.9 14.8 -2.5
v 21.9 14.8 -2.6
v 21.9 14.7 -2.6
v 21.8 14.7 -2.6
v 21.8 14.8 -2.6
v 21.9 14.8 -2.5
v 21.9 14.7 -2.5
v 22 14.7 -2.5
v 22 14.8 -2.5
v 22 14.8 -2.6
v 22 14.7 -2.6
v 21.9 14.7 -2.6
v 21.9 14.8 -2.6
v 22 14.8 -2.5
v 22 14.7 -2.5
v 22.1 14.7 -2.5
v 22.1 14.8 -2.5
v 22.1 14.8 -2.6
v 22.1 14.7 -2.6
v 22 14.7 -2.6
v 22 14.8 -2.6
v 22.1 14.8 -2.5
v 22.1 14.7 -2.5
v 22.2 14.7 -2.5
v 22.2 14.8 -2.5
v 22.2 14.8 -2.6
v 22.2 14.7 -2.6
v 22.1 14.7 -2.6
v 22.1 14.8 -2.6
v 22.2 14.8 -2.5
v 22.2 14.7 -2.5
v 22.3 14.7 -2.5
v 22.3 14.8 -2.5
v 22.3 14.8 -2.6
v 22.3 14.7 -2.6
v 22.2 14.7 -2.6
v 22.2 14.8 -2.6
v 22.3 14.8 -2.5
v 22.3 14.7 -2.5
v 22.4 14.7 -2.5
v 22.4 14.8 -2.5
v 22.4 14.8 -2.6
v 22.4 14.7 -2.6
v 22.3 14.7 -2.6
v 22.3 14.8 -2.6
v 22.4 14.8 -2.5
v 22.4 14.7 -2.5
v 22.5 14.7 -2.5
v 22.5 14.8 -2.5
v 22.5 14.8 -2.6
v 22.5 14.7 -2.6
v 22.4 14.7 -2.6
v 22.4 14.8 -2.6
v 22.5 14.8 -2.5
v 22.5 14.7 -2.5
v 22.6 14.7 -2.5
v 22.6 14.8 -2.5
v 22.6 14.8 -2.6
v 22.6 14.7 -2.6
v 22.5 14.7 -2.6
v 22.5 14.8 -2.6
v 22.7 14.8 -2.5
v 22.7 14.7 -2.5
v 22.7 14.7 -2.6
v 22.7 14.8 -2.6
v 22.6 14.7 -2.5
v 22.6 14.7 -2.6
v 22.7 14.7 -2.6
v 22.7 14.7 -2.5
v 22.6 14.8 -2.5
v 22.6 14.7 -2.5
v 22.7 14.7 -2.5
v 22.7 14.8 -2.5
v 22.7 14.8 -2.6
v 22.7 14.7 -2.6
v 22.6 14.7 -2.6
v 22.6 14.8 -2.6
v 21.4 14.7 -2.6
v 21.4 14.6 -2.6
v 21.4 14.6 -2.5
v 21.4 14.7 -2.5
v 21.4 14.6 -2.5
v 21.4 14.6 -2.6
v 21.5 14.6 -2.6
v 21.5 14.6 -2.5
v 21.4 14.7 -2.5
v 21.4 14.6 -2.5
v 21.5 14.6 -2.5
v 21.5 14.7 -2.5
v 21.5 14.7 -2.6
v 21.5 14.6 -2.6
v 21.4 14.6 -2.6
v 21.4 14.7 -2.6
v 21.5 14.7 -2.5
v 21.5 14.6 -2.5
v 21.6 14.6 -2.5
v 21.6 14.7 -2.5
v 21.6 14.7 -2.6
v 21.6 14.6 -2.6
v 21.5 14.6 -2.6
v 21.5 14.7 -2.6
v 21.6 14.7 -2.5
v 21.6 14.6 -2.5
v 21.7 14.6 -2.5
v 21.7 14.7 -2.5
v 21.7 14.7 -2.6
v 21.7 14.6 -2.6
v 21.6 14.6 -2.6
v 21.6 14.7 -2.6
v 21.7 14.7 -2.5
v 21.7 14.6 -2.5
v 21.8 14.6 -2.5
v 21.8 14.7 -2.5
v 21.8 14.7 -2.6
v 21.8 14.6 -2.6
v 21.7 14.6 -2.6
v 21.7 14.7 -2.6
v 21.8 14.7 -2.5
v 21.8 14.6 -2.5
v 21.9 14.6 -2.5
v 21.9 14.7 -2.5
v 21.9 14.7 -2.6
v 21.9 14.6 -2.6
v 21.8 14.6 -2.6
v 21.8 14.7 -2.6
v 21.9 14.7 -2.5
v 21.9 14.6 -2.5
v 22 14.6 -2.5
v 22 14.7 -2.5
v 22 14.7 -2.6
v 22 14.6 -2.6
v 21.9 14.6 -2.6
v 21.9 14.7 -2.6
v 22 14.7 -2.5
v 22 14.6 -2.5
v 22.1 14.6 -2.5
v 22.1 14.7 -2.5
v 22.1 14.7 -2.6
v 22.1 14.6 -2.6
v 22 14.6 -2.6
v 22 14.7 -2.6
v 22.1 14.7 -2.5
v 22.1 14.6 -2.5
v 22.2 14.6 -2.5
v 22.2 14.7 -2.5
v 22.2 14.7 -2.6
v 22.2 14.6 -2.6
v 22.1 14.6 -2.6
v 22.1 14.7 -2.6
v 22.2 14.7 -2.5
v 22.2 14.6 -2.5
v 22.3 14.6 -2.5
v 22.3 14.7 -2.5
v 22.3 14.7 -2.6
v 22.3 14.6 -2.6
v 22.2 14.6 -2.6
v 22.2 14.7 -2.6
v 22.3 14.7 -2.5
v 22.3 14.6 -2.5
v 22.4 14.6 -2.5
v 22.4 14.7 -2.5
v 22.4 14.7 -2.6
v 22.4 14.6 -2.6
v 22.3 14.6 -2.6
v 22.3 14.7 -2.6
v 22.4 14.7 -2.5
v 22.4 14.6 -2.5
v 22.5 14.6 -2.5
v 22.5 14.7 -2.5
v 22.5 14.7 -2.6
v 22.5 14.6 -2.6
v 22.4 14.6 -2.6
v 22.4 14.7 -2.6
v 22.6 14.7 -2.5
v 22.6 14.6 -2.5
v 22.6 14.6 -2.6
v 22.6 14.7 -2.6
v 22.5 14.6 -2.5
v 22.5 14.6 -2.6
v 22.6 14.6 -2.6
v 22.6 14.6 -2.5
v 22.5 14.7 -2.5
v 22.5 14.6 -2.5
v 22.6 14.6 -2.5
v 22.6 14.7 -2.5
v 22.6 14.7 -2.6
v 22.6 14.6 -2.6
v 22.5 14.6 -2.6
v 22.5 14.7 -2.6
v 21.5 14.6 -2.6
v 21.5 14.5 -2.6
v 21.5 14.5 -2.5
v 21.5 14.6 -2.5
v 21.5 14.6 -2.5
v 21.5 14.5 -2.5
v 21.6 14.5 -2.5
v 21.6 14.6 -2.5
v 21.6 14.6 -2.6
v 21.6 14.5 -2.6
v 21.5 14.5 -2.6
v 21.5 14.6 -2.6
v 21.6 14.6 -2.5
v 21.6 14.5 -2.5
v 21.7 14.5 -2.5
v 21.7 14.6 -2.5
v 21.7 14.6 -2.6
v 21.7 14.5 -2.6
v 21.6 14.5 -2.6
v 21.6 14.6 -2.6
v 21.7 14.6 -2.5
v 21.7 14.5 -2.5
v 21.8 14.5 -2.5
v 21.8 14.6 -2.5
v 21.8 14.6 -2.6
v 21.8 14.5 -2.6
v 21.7 14.5 -2.6
v 21.7 14.6 -2.6
v 21.8 14.6 -2.5
v 21.8 14.5 -2.5
v 21.9 14.5 -2.5
v 21.9 14.6 -2.5
v 21.9 14.6 -2.6
v 21.9 14.5 -2.6
v 21.8 14.5 -2.6
v 21.8 14.6 -2.6
v 21.9 14.6 -2.5
v 21.9 14.5 -2.5
v 22 14.5 -2.5
v 22 14.6 -2.5
v 22 14.6 -2.6
v 22 14.5 -2.6
v 21.9 14.5 -2.6
v 21.9 14.6 -2.6
v 22 14.6 -2.5
v 22 14.5 -2.5
v 22.1 14.5 -2.5
v 22.1 14.6 -2.5
v 22.1 14.6 -2.6
v 22.1 14.5 -2.6
v 22 14.5 -2.6
v 22 14.6 -2.6
v 22.1 14.6 -2.5
v 22.1 14.5 -2.5
v 22.2 14.5 -2.5
v 22.2 14.6 -2.5
v 22.2 14.6 -2.6
v 22.2 14.5 -2.6
v 22.1 14.5 -2.6
v 22.1 14.6 -2.6
v 22.2 14.6 -2.5
v 22.2 14.5 -2.5
v 22.3 14.5 -2.5
v 22.3 14.6 -2.5
v 22.3 14.6 -2.6
v 22.3 14.5 -2.6
v 22.2 14.5 -2.6
v 22.2 14.6 -2.6
v 22.3 14.6 -2.5
v 22.3 14.5 -2.5
v 22.4 14.5 -2.5
v 22.4 14.6 -2.5
v 22.4 14.6 -2.6
v 22.4 14.5 -2.6
v 22.3 14.5 -2.6
v 22.3 14.6 -2.6
v 22.5 14.6 -2.5
v 22.5 14.5 -2.5
v 22.5 14.5 -2.6
v 22.5 14.6 -2.6
v 22.4 14.5 -2.5
v 22.4 14.5 -2.6
v 22.5 14.5 -2.6
v 22.5 14.5 -2.5
v 22.4 14.6 -2.5
v 22.4 14.5 -2.5
v 22.5 14.5 -2.5
v 22.5 14.6 -2.5
v 22.5 14.6 -2.6
v 22.5 14.5 -2.6
v 22.4 14.5 -2.6
v 22.4 14.6 -2.6
v 21.5 14.5 -2.6
v 21.5 14.4 -2.6
v 21.5 14.4 -2.5
v 21.5 14.5 -2.5
v 21.5 14.4 -2.5
v 21.5 14.4 -2.6
v 21.6 14.4 -2.6
v 21.6 14.4 -2.5
v 21.5 14.5 -2.5
v 21.5 14.4 -2.5
v 21.6 14.4 -2.5
v 21.6 14.5 -2.5
v 21.6 14.5 -2.6
v 21.6 14.4 -2.6
v 21.5 14.4 -2.6
v 21.5 14.5 -2.6
v 21.6 14.5 -2.5
v 21.6 14.4 -2.5
v 21.7 14.4 -2.5
v 21.7 14.5 -2.5
v 21.7 14.5 -2.6
v 21.7 14.4 -2.6
v 21.6 14.4 -2.6
v 21.6 14.5 -2.6
v 21.7 14.5 -2.5
v 21.7 14.4 -2.5
v 21.8 14.4 -2.5
v 21.8 14.5 -2.5
v 21.8 14.5 -2.6
v 21.8 14.4 -2.6
v 21.7 14.4 -2.6
v 21.7 14.5 -2.6
v 21.8 14.5 -2.5
v 21.8 14.4 -2.5
v 21.9 14.4 -2.5
v 21.9 14.5 -2.5
v 21.9 14.5 -2.6
v 21.9 14.4 -2.6
v 21.8 14.4 -2.6
v 21.8 14.5 -2.6
v 21.9 14.5 -2.5
v 21.9 14.4 -2.5
v 22 14.4 -2.5
v 22 14.5 -2.5
v 22 14.5 -2.6
v 22 14.4 -2.6
v 21.9 14.4 -2.6
v 21.9 14.5 -2.6
v 22 14.5 -2.5
v 22 14.4 -2.5
v 22.1 14.4 -2.5
v 22.1 14.5 -2.5
v 22.1 14.5 -2.6
v 22.1 14.4 -2.6
v 22 14.4 -2.6
v 22 14.5 -2.6
v 22.1 14.5 -2.5
v 22.1 14.4 -2.5
v 22.2 14.4 -2.5
v 22.2 14.5 -2.5
v 22.2 14.5 -2.6
v 22.2 14.4 -2.6
v 22.1 14.4 -2.6
v 22.1 14.5 -2.6
v 22.2 14.5 -2.5
v 22.2 14.4 -2.5
v 22.3 14.4 -2.5
v 22.3 14.5 -2.5
v 22.3 14.5 -2.6
v 22.3 14.4 -2.6
v 22.2 14.4 -2.6
v 22.2 14.5 -2.6
v 22.4 14.5 -2.5
v 22.4 14.4 -2.5
v 22.4 14.4 -2.6
v 22.4 14.5 -2.6
v 22.3 14.4 -2.5
v 22.3 14.4 -2.6
v 22.4 14.4 -2.6
v 22.4 14.4 -2.5
v 22.3 14.5 -2.5
v 22.3 14.4 -2.5
v 22.4 14.4 -2.5
v 22.4 14.5 -2.5
v 22.4 14.5 -2.6
v 22.4 14.4 -2.6
v 22.3 14.4 -2.6
v 22.3 14.5 -2.6
v 21.6 14.4 -2.6
v 21.6 14.3 -2.6
v 21.6 14.3 -2.5
v 21.6 14.4 -2.5
v 21.6 14.4 -2.5
v 21.6 14.3 -2.5
v 21.7 14.3 -2.5
v 21.7 14.4 -2.5
v 21.7 14.4 -2.6
v 21.7 14.3 -2.6
v 21.6 14.3 -2.6
v 21.6 14.4 -2.6
v 21.7 14.4 -2.5
v 21.7 14.3 -2.5
v 21.8 14.3 -2.5
v 21.8 14.4 -2.5
v 21.8 14.4 -2.6
v 21.8 14.3 -2.6
v 21.7 14.3 -2.6
v 21.7 14.4 -2.6
v 21.8 14.4 -2.5
v 21.8 14.3 -2.5
v 21.9 14.3 -2.5
v 21.9 14.4 -2.5
v 21.9 14.4 -2.6
v 21.9 14.3 -2.6
v 21.8 14.3 -2.6
v 21.8 14.4 -2.6
v 21.9 14.4 -2.5
v 21.9 14.3 -2.5
v 22 14.3 -2.5
v 22 14.4 -2.5
v 22 14.4 -2.6
v 22 14.3 -2.6
v 21.9 14.3 -2.6
v 21.9 14.4 -2.6
v 22 14.4 -2.5
v 22 14.3 -2.5
v 22.1 14.3 -2.5
v 22.1 14.4 -2.5
v 22.1 14.4 -2.6
v 22.1 14.3 -2.6
v 22 14.3 -2.6
v 22 14.4 -2.6
v 22.1 14.4 -2.5
v 22.1 14.3 -2.5
v 22.2 14.3 -2.5
v 22.2 14.4 -2.5
v 22.2 14.4 -2.6
v 22.2 14.3 -2.6
v 22.1 14.3 -2.6
v 22.1 14.4 -2.6
v 22.3 14.4 -2.5
v 22.3 14.3 -2.5
v 22.3 14.3 -2.6
v 22.3 14.4 -2.6
v 22.2 14.3 -2.5
v 22.2 14.3 -2.6
v 22.3 14.3 -2.6
v 22.3 14.3 -2.5
v 22.2 14.4 -2.5
v 22.2 14.3 -2.5
v 22.3 14.3 -2.5
v 22.3 14.4 -2.5
v 22.3 14.4 -2.6
v 22.3 14.3 -2.6
v 22.2 14.3 -2.6
v 22.2 14.4 -2.6
v 21.6 14.3 -2.6
v 21.6 14.2 -2.6
v 21.6 14.2 -2.5
v 21.6 14.3 -2.5
v 21.6 14.2 -2.5
v 21.6 14.2 -2.6
v 21.7 14.2 -2.6
v 21.7 14.2 -2.5
v 21.6 14.3 -2.5
v 21.6 14.2 -2.5
v 21.7 14.2 -2.5
v 21.7 14.3 -2.5
v 21.7 14.3 -2.6
v 21.7 14.2 -2.6
v 21.6 14.2 -2.6
v 21.6 14.3 -2.6
v 21.7 14.3 -2.5
v 21.7 14.2 -2.5
v 21.8 14.2 -2.5
v 21.8 14.3 -2.5
v 21.8 14.3 -2.6
v 21.8 14.2 -2.6
v 21.7 14.2 -2.6
v 21.7 14.3 -2.6
v 21.8 14.3 -2.5
v 21.8 14.2 -2.5
v 21.9 14.2 -2.5
v 21.9 14.3 -2.5
v 21.9 14.3 -2.6
v 21.9 14.2 -2.6
v 21.8 14.2 -2.6
v 21.8 14.3 -2.6
v 21.9 14.3 -2.5
v 21.9 14.2 -2.5
v 22 14.2 -2.5
v 22 14.3 -2.5
v 22 14.3 -2.6
v 22 14.2 -2.6
v 21.9 14.2 -2.6
v 21.9 14.3 -2.6
v 22 14.3 -2.5
v 22 14.2 -2.5
v 22.1 14.2 -2.5
v 22.1 14.3 -2.5
v 22.1 14.3 -2.6
v 22.1 14.2 -2.6
v 22 14.2 -2.6
v 22 14.3 -2.6
v 22.2 14.3 -2.5
v 22.2 14.2 -2.5
v 22.2 14.2 -2.6
v 22.2 14.3 -2.6
v 22.1 14.2 -2.5
v 22.1 14.2 -2.6
v 22.2 14.2 -2.6
v 22.2 14.2 -2.5
v 22.1 14.3 -2.5
v 22.1 14.2 -2.5
v 22.2 14.2 -2.5
v 22.2 14.3 -2.5
v 22.2 14.3 -2.6
v 22.2 14.2 -2.6
v 22.1 14.2 -2.6
v 22.1 14.3 -2.6
v 21.7 14.2 -2.6
v 21.7 14.1 -2.6
v 21.7 14.1 -2.5
v 21.7 14.2 -2.5
v 21.7 14.2 -2.5
v 21.7 14.1 -2.5
v 21.8 14.1 -2.5
v 21.8 14.2 -2.5
v 21.8 14.2 -2.6
v 21.8 14.1 -2.6
v 21.7 14.1 -2.6
v 21.7 14.2 -2.6
v 21.8 14.2 -2.5
v 21.8 14.1 -2.5
v 21.9 14.1 -2.5
v 21.9 14.2 -2.5
v 21.9 14.2 -2.6
v 21.9 14.1 -2.6
v 21.8 14.1 -2.6
v 21.8 14.2 -2.6
v 21.9 14.2 -2.5
v 21.9 14.1 -2.5
v 22 14.1 -2.5
v 22 14.2 -2.5
v 22 14.2 -2.6
v 22 14.1 -2.6
v 21.9 14.1 -2.6
v 21.9 14.2 -2.6
v 22.1 14.2 -2.5
v 22.1 14.1 -2.5
v 22.1 14.1 -2.6
v 22.1 14.2 -2.6
v 22 14.1 -2.5
v 22 14.1 -2.6
v 22.1 14.1 -2.6
v 22.1 14.1 -2.5
v 22 14.2 -2.5
v 22 14.1 -2.5
v 22.1 14.1 -2.5
v 22.1 14.2 -2.5
v 22.1 14.2 -2.6
v 22.1 14.1 -2.6
v 22 14.1 -2.6
v 22 14.2 -2.6
v 21.7 14.1 -2.6
v 21.7 14 -2.6
v 21.7 14 -2.5
v 21.7 14.1 -2.5
v 21.7 14 -2.5
v 21.7 14 -2.6
v 21.8 14 -2.6
v 21.8 14 -2.5
v 21.7 14.1 -2.5
v 21.7 14 -2.5
v 21.8 14 -2.5
v 21.8 14.1 -2.5
v 21.8 14.1 -2.6
v 21.8 14 -2.6
v 21.7 14 -2.6
v 21.7 14.1 -2.6
v 21.8 14.1 -2.5
v 21.8 14 -2.5
v 21.9 14 -2.5
v 21.9 14.1 -2.5
v 21.9 14.1 -2.6
v 21.9 14 -2.6
v 21.8 14 -2.6
v 21.8 14.1 -2.6
v 22 14.1 -2.5
v 22 14 -2.5
v 22 14 -2.6
v 22 14.1 -2.6
v 21.9 14 -2.5
v 21.9 14 -2.6
v 22 14 -2.6
v 22 14 -2.5
v 21.9 14.1 -2.5
v 21.9 14 -2.5
v 22 14 -2.5
v 22 14.1 -2.5
v 22 14.1 -2.6
v 22 14 -2.6
v 21.9 14 -2.6
v 21.9 14.1 -2.6
v 21.8 14 -2.6
v 21.8 13.9 -2.6
v 21.8 13.9 -2.5
v 21.8 14 -2.5
v 21.9 14 -2.5
v 21.9 13.9 -2.5
v 21.9 13.9 -2.6
v 21.9 14 -2.6
v 21.8 13.9 -2.5
v 21.8 13.9 -2.6
v 21.9 13.9 -2.6
v 21.9 13.9 -2.5
v 21.8 14 -2.5
v 21.8 13.9 -2.5
v 21.9 13.9 -2.5
v 21.9 14 -2.5
v 21.9 14 -2.6
v 21.9 13.9 -2.6
v 21.8 13.9 -2.6
v 21.8 14 -2.6

# faces
f 1/2/1 2/2/1 3/2/1 4/2/1
f 5/2/3 6/2/3 7/2/3 8/2/3
f 9/2/5 10/2/5 11/2/5 12/2/5
f 13/2/6 14/2/6 15/2/6 16/2/6
f 17/2/3 18/2/3 19/2/3 20/2/3
f 21/2/5 22/2/5 23/2/5 24/2/5
f 25/2/6 26/2/6 27/2/6 28/2/6
f 29/2/3 30/2/3 31/2/3 32/2/3
f 33/2/5 34/2/5 35/2/5 36/2/5
f 37/2/6 38/2/6 39/2/6 40/2/6
f 41/2/3 42/2/3 43/2/3 44/2/3
f 45/2/5 46/2/5 47/2/5 48/2/5
f 49/2/6 50/2/6 51/2/6 52/2/6
f 53/2/3 54/2/3 55/2/3 56/2/3
f 57/2/5 58/2/5 59/2/5 60/2/5
f 61/2/6 62/2/6 63/2/6 64/2/6
f 65/2/3 66/2/3 67/2/3 68/2/3
f 69/2/5 70/2/5 71/2/5 72/2/5
f 73/2/6 74/2/6 75/2/6 76/2/6
f 77/2/3 78/2/3 79/2/3 80/2/3
f 81/2/5 82/2/5 83/2/5 84/2/5
f 85/2/6 86/2/6 87/2/6 88/2/6
f 89/2/3 90/2/3 91/2/3 92/2/3
f 93/2/5 94/2/5 95/2/5 96/2/5
f 97/2/6 98/2/6 99/2/6 100/2/6
f 101/2/2 102/2/2 103/2/2 104/2/2
f 105/2/3 106/2/3 107/2/3 108/2/3
f 109/2/5 110/2/5 111/2/5 112/2/5
f 113/2/6 114/2/6 115/2/6 116/2/6
f 117/2/1 118/2/1 119/2/1 120/2/1
f 121/2/3 122/2/3 123/2/3 124/2/3
f 125/2/4 126/2/4 127/2/4 128/2/4
f 129/2/5 130/2/5 131/2/5 132/2/5
f 133/2/6 134/2/6 135/2/6 136/2/6
f 137/2/3 138/2/3 139/2/3 140/2/3
f 141/2/4 142/2/4 143/2/4 144/2/4
f 145/2/5 146/2/5 147/2/5 148/2/5
f 149/2/6 150/2/6 151/2/6 152/2/6
f 153/2/3 154/2/3 155/2/3 156/2/3
f 157/2/4 158/2/4 159/2/4 160/2/4
f 161/2/5 162/2/5 163/2/5 164/2/5
f 165/2/6 166/2/6 167/2/6 168/2/6
f 169/2/3 170/2/3 171/2/3 172/2/3
f 173/2/4 174/2/4 175/2/4 176/2/4
f 177/2/5 178/2/5 179/2/5 180/2/5
f 181/2/6 182/2/6 183/2/6 184/2/6
f 185/3/5 186/3/5 187/3/5 188/3/5
f 189/3/6 190/3/6 191/3/6 192/3/6
f 193/3/5 194/3/5 195/3/5 196/3/5
f 197/3/6 198/3/6 199/3/6 200/3/6
f 201/3/5 202/3/5 203/3/5 204/3/5
f 205/3/6 206/3/6 207/3/6 208/3/6
f 209/3/5 210/3/5 211/3/5 212/3/5
f 213/3/6 214/3/6 215/3/6 216/3/6
f 217/3/5 218/3/5 219/3/5 220/3/5
f 221/3/6 222/3/6 223/3/6 224/3/6
f 225/3/5 226/3/5 227/3/5 228/3/5
f 229/3/6 230/3/6 231/3/6 232/3/6
f 233/3/5 234/3/5 235/3/5 236/3/5
f 237/3/6 238/3/6 239/3/6 240/3/6
f 241/3/5 242/3/5 243/3/5 244/3/5
f 245/3/6 246/3/6 247/3/6 248/3/6
f 249/3/5 250/3/5 251/3/5 252/3/5
f 253/3/6 254/3/6 255/3/6 256/3/6
f 257/2/3 258/2/3 259/2/3 260/2/3
f 261/2/5 262/2/5 263/2/5 264/2/5
f 265/2/6 266/2/6 267/2/6 268/2/6
f 269/2/3 270/2/3 271/2/3 272/2/3
f 273/2/5 274/2/5 275/2/5 276/2/5
f 277/2/6 278/2/6 279/2/6 280/2/6
f 281/2/3 282/2/3 283/2/3 284/2/3
f 285/2/5 286/2/5 287/2/5 288/2/5
f 289/2/6 290/2/6 291/2/6 292/2/6
f 293/2/3 294/2/3 295/2/3 296/2/3
f 297/2/5 298/2/5 299/2/5 300/2/5
f 301/2/6 302/2/6 303/2/6 304/2/6
f 305/2/3 306/2/3 307/2/3 308/2/3
f 309/2/5 310/2/5 311/2/5 312/2/5
f 313/2/6 314/2/6 315/2/6 316/2/6
f 317/2/2 318/2/2 319/2/2 320/2/2
f 321/2/3 322/2/3 323/2/3 324/2/3
f 325/2/5 326/2/5 327/2/5 328/2/5
f 329/2/6 330/2/6 331/2/6 332/2/6
f 333/2/1 334/2/1 335/2/1 336/2/1
f 337/2/4 338/2/4 339/2/4 340/2/4
f 341/2/5 342/2/5 343/2/5 344/2/5
f 345/2/6 346/2/6 347/2/6 348/2/6
f 349/2/4 350/2/4 351/2/4 352/2/4
f 353/2/5 354/2/5 355/2/5 356/2/5
f 357/2/6 358/2/6 359/2/6 360/2/6
f 361/2/4 362/2/4 363/2/4 364/2/4
f 365/2/5 366/2/5 367/2/5 368/2/5
f 369/2/6 370/2/6 371/2/6 372/2/6
f 373/2/4 374/2/4 375/2/4 376/2/4
f 377/2/5 378/2/5 379/2/5 380/2/5
f 381/2/6 382/2/6 383/2/6 384/2/6
f 385/2/4 386/2/4 387/2/4 388/2/4
f 389/2/5 390/2/5 391/2/5 392/2/5
f 393/2/6 394/2/6 395/2/6 396/2/6
f 397/3/5 398/3/5 399/3/5 400/3/5
f 401/3/6 402/3/6 403/3/6 404/3/6
f 405/3/5 406/3/5 407/3/5 408/3/5
f 409/3/6 410/3/6 411/3/6 412/3/6
f 413/1/5 414/1/5 415/1/5 416/1/5
f 417/1/6 418/1/6 419/1/6 420/1/6
f 421/1/5 422/1/5 423/1/5 424/1/5
f 425/1/6 426/1/6 427/1/6 428/1/6
f 429/3/5 430/3/5 431/3/5 432/3/5
f 433/3/6 434/3/6 435/3/6 436/3/6
f 437/3/5 438/3/5 439/3/5 440/3/5
f 441/3/6 442/3/6 443/3/6 444/3/6
f 445/3/5 446/3/5 447/3/5 448/3/5
f 449/3/6 450/3/6 451/3/6 452/3/6
f 453/3/5 454/3/5 455/3/5 456/3/5
f 457/3/6 458/3/6 459/3/6 460/3/6
f 461/3/5 462/3/5 463/3/5 464/3/5
f 465/3/6 466/3/6 467/3/6 468/3/6
f 469/3/5 470/3/5 471/3/5 472/3/5
f 473/3/6 474/3/6 475/3/6 476/3/6
f 477/2/3 478/2/3 479/2/3 480/2/3
f 481/2/5 482/2/5 483/2/5 484/2/5
f 485/2/6 486/2/6 487/2/6 488/2/6
f 489/2/3 490/2/3 491/2/3 492/2/3
f 493/2/5 494/2/5 495/2/5 496/2/5
f 497/2/6 498/2/6 499/2/6 500/2/6
f 501/2/2 502/2/2 503/2/2 504/2/2
f 505/2/3 506/2/3 507/2/3 508/2/3
f 509/2/5 510/2/5 511/2/5 512/2/5
f 513/2/6 514/2/6 515/2/6 516/2/6
f 517/2/1 518/2/1 519/2/1 520/2/1
f 521/2/4 522/2/4 523/2/4 524/2/4
f 525/2/5 526/2/5 527/2/5 528/2/5
f 529/2/6 530/2/6 531/2/6 532/2/6
f 533/2/4 534/2/4 535/2/4 536/2/4
f 537/2/5 538/2/5 539/2/5 540/2/5
f 541/2/6 542/2/6 543/2/6 544/2/6
f 545/3/5 546/3/5 547/3/5 548/3/5
f 549/3/6 550/3/6 551/3/6 552/3/6
f 553/3/5 554/3/5 555/3/5 556/3/5
f 557/3/6 558/3/6 559/3/6 560/3/6
f 561/1/5 562/1/5 563/1/5 564/1/5
f 565/1/6 566/1/6 567/1/6 568/1/6
f 569/1/5 570/1/5 571/1/5 572/1/5
f 573/1/6 574/1/6 575/1/6 576/1/6
f 577/1/5 578/1/5 579/1/5 580/1/5
f 581/1/6 582/1/6 583/1/6 584/1/6
f 585/1/5 586/1/5 587/1/5 588/1/5
f 589/1/6 590/1/6 591/1/6 592/1/6
f 593/1/5 594/1/5 595/1/5 596/1/5
f 597/1/6 598/1/6 599/1/6 600/1/6
f 601/1/5 602/1/5 603/1/5 604/1/5
f 605/1/6 606/1/6 607/1/6 608/1/6
f 609/3/5 610/3/5 611/3/5 612/3/5
f 613/3/6 614/3/6 615/3/6 616/3/6
f 617/3/5 618/3/5 619/3/5 620/3/5
f 621/3/6 622/3/6 623/3/6 624/3/6
f 625/3/5 626/3/5 627/3/5 628/3/5
f 629/3/6 630/3/6 631/3/6 632/3/6
f 633/2/3 634/2/3 635/2/3 636/2/3
f 637/2/5 638/2/5 639/2/5 640/2/5
f 641/2/6 642/2/6 643/2/6 644/2/6
f 645/2/3 646/2/3 647/2/3 648/2/3
f 649/2/5 650/2/5 651/2/5 652/2/5
f 653/2/6 654/2/6 655/2/6 656/2/6
f 657/2/2 658/2/2 659/2/2 660/2/2
f 661/2/3 662/2/3 663/2/3 664/2/3
f 665/2/5 666/2/5 667/2/5 668/2/5
f 669/2/6 670/2/6 671/2/6 672/2/6
f 673/2/1 674/2/1 675/2/1 676/2/1
f 677/2/2 678/2/2 679/2/2 680/2/2
f 681/2/3 682/2/3 683/2/3 684/2/3
f 685/2/4 686/2/4 687/2/4 688/2/4
f 689/2/5 690/2/5 691/2/5 692/2/5
f 693/2/6 694/2/6 695/2/6 696/2/6
f 697/2/1 698/2/1 699/2/1 700/2/1
f 701/2/4 702/2/4 703/2/4 704/2/4
f 705/2/5 706/2/5 707/2/5 708/2/5
f 709/2/6 710/2/6 711/2/6 712/2/6
f 713/2/4 714/2/4 715/2/4 716/2/4
f 717/2/5 718/2/5 719/2/5 720/2/5
f 721/2/6 722/2/6 723/2/6 724/2/6
f 725/3/5 726/3/5 727/3/5 728/3/5
f 729/3/6 730/3/6 731/3/6 732/3/6
f 733/1/5 734/1/5 735/1/5 736/1/5
f 737/1/6 738/1/6 739/1/6 740/1/6
f 741/1/5 742/1/5 743/1/5 744/1/5
f 745/1/6 746/1/6 747/1/6 748/1/6
f 749/1/5 750/1/5 751/1/5 752/1/5
f 753/1/6 754/1/6 755/1/6 756/1/6
f 757/1/5 758/1/5 759/1/5 760/1/5
f 761/1/6 762/1/6 763/1/6 764/1/6
f 765/1/5 766/1/5 767/1/5 768/1/5
f 769/1/6 770/1/6 771/1/6 772/1/6
f 773/1/5 774/1/5 775/1/5 776/1/5
f 777/1/6 778/1/6 779/1/6 780/1/6
f 781/1/5 782/1/5 783/1/5 784/1/5
f 785/1/6 786/1/6 787/1/6 788/1/6
f 789/1/5 790/1/5 791/1/5 792/1/5
f 793/1/6 794/1/6 795/1/6 796/1/6
f 797/3/5 798/3/5 799/3/5 800/3/5
f 801/3/6 802/3/6 803/3/6 804/3/6
f 805/3/5 806/3/5 807/3/5 808/3/5
f 809/3/6 810/3/6 811/3/6 812/3/6
f 813/3/5 814/3/5 815/3/5 816/3/5
f 817/3/6 818/3/6 819/3/6 820/3/6
f 821/2/3 822/2/3 823/2/3 824/2/3
f 825/2/5 826/2/5 827/2/5 828/2/5
f 829/2/6 830/2/6 831/2/6 832/2/6
f 833/2/2 834/2/2 835/2/2 836/2/2
f 837/2/3 838/2/3 839/2/3 840/2/3
f 841/2/5 842/2/5 843/2/5 844/2/5
f 845/2/6 846/2/6 847/2/6 848/2/6
f 849/2/1 850/2/1 851/2/1 852/2/1
f 853/2/4 854/2/4 855/2/4 856/2/4
f 857/2/5 858/2/5 859/2/5 860/2/5
f 861/2/6 862/2/6 863/2/6 864/2/6
f 865/3/5 866/3/5 867/3/5 868/3/5
f 869/3/6 870/3/6 871/3/6 872/3/6
f 873/1/5 874/1/5 875/1/5 876/1/5
f 877/1/6 878/1/6 879/1/6 880/1/6
f 881/1/5 882/1/5 883/1/5 884/1/5
f 885/1/6 886/1/6 887/1/6 888/1/6
f 889/1/5 890/1/5 891/1/5 892/1/5
f 893/1/6 894/1/6 895/1/6 896/1/6
f 897/1/5 898/1/5 899/1/5 900/1/5
f 901/1/6 902/1/6 903/1/6 904/1/6
f 905/1/5 906/1/5 907/1/5 908/1/5
f 909/1/6 910/1/6 911/1/6 912/1/6
f 913/1/5 914/1/5 915/1/5 916/1/5
f 917/1/6 918/1/6 919/1/6 920/1/6
f 921/1/5 922/1/5 923/1/5 924/1/5
f 925/1/6 926/1/6 927/1/6 928/1/6
f 929/1/5 930/1/5 931/1/5 932/1/5
f 933/1/6 934/1/6 935/1/6 936/1/6
f 937/1/5 938/1/5 939/1/5 940/1/5
f 941/1/6 942/1/6 943/1/6 944/1/6
f 945/1/5 946/1/5 947/1/5 948/1/5
f 949/1/6 950/1/6 951/1/6 952/1/6
f 953/3/5 954/3/5 955/3/5 956/3/5
f 957/3/6 958/3/6 959/3/6 960/3/6
f 961/3/5 962/3/5 963/3/5 964/3/5
f 965/3/6 966/3/6 967/3/6 968/3/6
f 969/2/3 970/2/3 971/2/3 972/2/3
f 973/2/5 974/2/5 975/2/5 976/2/5
f 977/2/6 978/2/6 979/2/6 980/2/6
f 981/2/2 982/2/2 983/2/2 984/2/2
f 985/2/3 986/2/3 987/2/3 988/2/3
f 989/2/5 990/2/5 991/2/5 992/2/5
f 993/2/6 994/2/6 995/2/6 996/2/6
f 997/2/1 998/2/1 999/2/1 1000/2/1
f 1001/2/4 1002/2/4 1003/2/4 1004/2/4
f 1005/2/5 1006/2/5 1007/2/5 1008/2/5
f 1009/2/6 1010/2/6 1011/2/6 1012/2/6
f 1013/3/5 1014/3/5 1015/3/5 1016/3/5
f 1017/3/6 1018/3/6 1019/3/6 1020/3/6
f 1021/1/5 1022/1/5 1023/1/5 1024/1/5
f 1025/1/6 1026/1/6 1027/1/6 1028/1/6
f 1029/1/5 1030/1/5 1031/1/5 1032/1/5
f 1033/1/6 1034/1/6 1035/1/6 1036/1/6
f 1037/1/5 1038/1/5 1039/1/5 1040/1/5
f 1041/1/6 1042/1/6 1043/1/6 1044/1/6
f 1045/1/5 1046/1/5 1047/1/5 1048/1/5
f 1049/1/6 1050/1/6 1051/1/6 1052/1/6
f 1053/1/5 1054/1/5 1055/1/5 1056/1/5
f 1057/1/6 1058/1/6 1059/1/6 1060/1/6
f 1061/1/5 1062/1/5 1063/1/5 1064/1/5
f 1065/1/6 1066/1/6 1067/1/6 1068/1/6
f 1069/1/5 1070/1/5 1071/1/5 1072/1/5
f 1073/1/6 1074/1/6 1075/1/6 1076/1/6
f 1077/1/5 1078/1/5 1079/1/5 1080/1/5
f 1081/1/6 1082/1/6 1083/1/6 1084/1/6
f 1085/1/5 1086/1/5 1087/1/5 1088/1/5
f 1089/1/6 1090/1/6 1091/1/6 1092/1/6
f 1093/1/5 1094/1/5 1095/1/5 1096/1/5
f 1097/1/6 1098/1/6 1099/1/6 1100/1/6
f 1101/1/5 1102/1/5 1103/1/5 1104/1/5
f 1105/1/6 1106/1/6 1107/1/6 1108/1/6
f 1109/3/5 1110/3/5 1111/3/5 1112/3/5
f 1113/3/6 1114/3/6 1115/3/6 1116/3/6
f 1117/3/5 1118/3/5 1119/3/5 1120/3/5
f 1121/3/6 1122/3/6 1123/3/6 1124/3/6
f 1125/2/3 1126/2/3 1127/2/3 1128/2/3
f 1129/2/5 1130/2/5 1131/2/5 1132/2/5
f 1133/2/6 1134/2/6 1135/2/6 1136/2/6
f 1137/2/2 1138/2/2 1139/2/2 1140/2/2
f 1141/2/3 1142/2/3 1143/2/3 1144/2/3
f 1145/2/5 1146/2/5 1147/2/5 1148/2/5
f 1149/2/6 1150/2/6 1151/2/6 1152/2/6
f 1153/2/1 1154/2/1 1155/2/1 1156/2/1
f 1157/2/4 1158/2/4 1159/2/4 1160/2/4
f 1161/2/5 1162/2/5 1163/2/5 1164/2/5
f 1165/2/6 1166/2/6 1167/2/6 1168/2/6
f 1169/3/5 1170/3/5 1171/3/5 1172/3/5
f 1173/3/6 1174/3/6 1175/3/6 1176/3/6
f 1177/1/5 1178/1/5 1179/1/5 1180/1/5
f 1181/1/6 1182/1/6 1183/1/6 1184/1/6
f 1185/1/5 1186/1/5 1187/1/5 1188/1/5
f 1189/1/6 1190/1/6 1191/1/6 1192/1/6
f 1193/1/5 1194/1/5 1195/1/5 1196/1/5
f 1197/1/6 1198/1/6 1199/1/6 1200/1/6
f 1201/1/5 1202/1/5 1203/1/5 1204/1/5
f 1205/1/6 1206/1/6 1207/1/6 1208/1/6
f 1209/1/5 1210/1/5 1211/1/5 1212/1/5
f 1213/1/6 1214/1/6 1215/1/6 1216/1/6
f 1217/1/5 1218/1/5 1219/1/5 1220/1/5
f 1221/1/6 1222/1/6 1223/1/6 1224/1/6
f 1225/1/5 1226/1/5 1227/1/5 1228/1/5
f 1229/1/6 1230/1/6 1231/1/6 1232/1/6
f 1233/1/5 1234/1/5 1235/1/5 1236/1/5
f 1237/1/6 1238/1/6 1239/1/6 1240/1/6
f 1241/1/5 1242/1/5 1243/1/5 1244/1/5
f 1245/1/6 1246/1/6 1247/1/6 1248/1/6
f 1249/1/5 1250/1/5 1251/1/5 1252/1/5
f 1253/1/6 1254/1/6 1255/1/6 1256/1/6
f 1257/1/5 1258/1/5 1259/1/5 1260/1/5
f 1261/1/6 1262/1/6 1263/1/6 1264/1/6
f 1265/1/5 1266/1/5 1267/1/5 1268/1/5
f 1269/1/6 1270/1/6 1271/1/6 1272/1/6
f 1273/3/5 1274/3/5 1275/3/5 1276/3/5
f 1277/3/6 1278/3/6 1279/3/6 1280/3/6
f 1281/3/5 1282/3/5 1283/3/5 1284/3/5
f 1285/3/6 1286/3/6 1287/3/6 1288/3/6
f 1289/2/2 1290/2/2 1291/2/2 1292/2/2
f 1293/2/3 1294/2/3 1295/2/3 1296/2/3
f 1297/2/5 1298/2/5 1299/2/5 1300/2/5
f 1301/2/6 1302/2/6 1303/2/6 1304/2/6
f 1305/2/1 1306/2/1 1307/2/1 1308/2/1
f 1309/2/4 1310/2/4 1311/2/4 1312/2/4
f 1313/2/5 1314/2/5 1315/2/5 1316/2/5
f 1317/2/6 1318/2/6 1319/2/6 1320/2/6
f 1321/3/5 1322/3/5 1323/3/5 1324/3/5
f 1325/3/6 1326/3/6 1327/3/6 1328/3/6
f 1329/1/5 1330/1/5 1331/1/5 1332/1/5
f 1333/1/6 1334/1/6 1335/1/6 1336/1/6
f 1337/1/5 1338/1/5 1339/1/5 1340/1/5
f 1341/1/6 1342/1/6 1343/1/6 1344/1/6
f 1345/1/5 1346/1/5 1347/1/5 1348/1/5
f 1349/1/6 1350/1/6 1351/1/6 1352/1/6
f 1353/1/5 1354/1/5 1355/1/5 1356/1/5
f 1357/1/6 1358/1/6 1359/1/6 1360/1/6
f 1361/1/5 1362/1/5 1363/1/5 1364/1/5
f 1365/1/6 1366/1/6 1367/1/6 1368/1/6
f 1369/1/5 1370/1/5 1371/1/5 1372/1/5
f 1373/1/6 1374/1/6 1375/1/6 1376/1/6
f 1377/1/5 1378/1/5 1379/1/5 1380/1/5
f 1381/1/6 1382/1/6 1383/1/6 1384/1/6
f 1385/1/5 1386/1/5 1387/1/5 1388/1/5
f 1389/1/6 1390/1/6 1391/1/6 1392/1/6
f 1393/1/5 1394/1/5 1395/1/5 1396/1/5
f 1397/1/6 1398/1/6 1399/1/6 1400/1/6
f 1401/1/5 1402/1/5 1403/1/5 1404/1/5
f 1405/1/6 1406/1/6 1407/1/6 1408/1/6
f 1409/1/5 1410/1/5 1411/1/5 1412/1/5
f 1413/1/6 1414/1/6 1415/1/6 1416/1/6
f 1417/1/5 1418/1/5 1419/1/5 1420/1/5
f 1421/1/6 1422/1/6 1423/1/6 1424/1/6
f 1425/1/5 1426/1/5 1427/1/5 1428/1/5
f 1429/1/6 1430/1/6 1431/1/6 1432/1/6
f 1433/3/5 1434/3/5 1435/3/5 1436/3/5
f 1437/3/6 1438/3/6 1439/3/6 1440/3/6
f 1441/2/2 1442/2/2 1443/2/2 1444/2/2
f 1445/2/3 1446/2/3 1447/2/3 1448/2/3
f 1449/2/5 1450/2/5 1451/2/5 1452/2/5
f 1453/2/6 1454/2/6 1455/2/6 1456/2/6
f 1457/2/1 1458/2/1 1459/2/1 1460/2/1
f 1461/2/4 1462/2/4 1463/2/4 1464/2/4
f 1465/2/5 1466/2/5 1467/2/5 1468/2/5
f 1469/2/6 1470/2/6 1471/2/6 1472/2/6
f 1473/3/5 1474/3/5 1475/3/5 1476/3/5
f 1477/3/6 1478/3/6 1479/3/6 1480/3/6
f 1481/1/5 1482/1/5 1483/1/5 1484/1/5
f 1485/1/6 1486/1/6 1487/1/6 1488/1/6
f 1489/1/5 1490/1/5 1491/1/5 1492/1/5
f 1493/1/6 1494/1/6 1495/1/6 1496/1/6
f 1497/1/5 1498/1/5 1499/1/5 1500/1/5
f 1501/1/6 1502/1/6 1503/1/6 1504/1/6
f 1505/1/5 1506/1/5 1507/1/5 1508/1/5
f 1509/1/6 1510/1/6 1511/1/6 1512/1/6
f 1513/1/5 1514/1/5 1515/1/5 1516/1/5
f 1517/1/6 1518/1/6 1519/1/6 1520/1/6
f 1521/1/5 1522/1/5 1523/1/5 1524/1/5
f 1525/1/6 1526/1/6 1527/1/6 1528/1/6
f 1529/1/5 1530/1/5 1531/1/5 1532/1/5
f 1533/1/6 1534/1/6 1535/1/6 1536/1/6
f 1537/1/5 1538/1/5 1539/1/5 1540/1/5
f 1541/1/6 1542/1/6 1543/1/6 1544/1/6
f 1545/1/5 1546/1/5 1547/1/5 1548/1/5
f 1549/1/6 1550/1/6 1551/1/6 1552/1/6
f 1553/1/5 1554/1/5 1555/1/5 1556/1/5
f 1557/1/6 1558/1/6 1559/1/6 1560/1/6
f 1561/1/5 1562/1/5 1563/1/5 1564/1/5
f 1565/1/6 1566/1/6 1567/1/6 1568/1/6
f 1569/1/5 1570/1/5 1571/1/5 1572/1/5
f 1573/1/6 1574/1/6 1575/1/6 1576/1/6
f 1577/1/5 1578/1/5 1579/1/5 1580/1/5
f 1581/1/6 1582/1/6 1583/1/6 1584/1/6
f 1585/3/2 1586/3/2 1587/3/2 1588/3/2
f 1589/3/4 1590/3/4 1591/3/4 1592/3/4
f 1593/3/5 1594/3/5 1595/3/5 1596/3/5
f 1597/3/6 1598/3/6 1599/3/6 1600/3/6
f 1601/2/1 1602/2/1 1603/2/1 1604/2/1
f 1605/2/4 1606/2/4 1607/2/4 1608/2/4
f 1609/2/5 1610/2/5 1611/2/5 1612/2/5
f 1613/2/6 1614/2/6 1615/2/6 1616/2/6
f 1617/3/5 1618/3/5 1619/3/5 1620/3/5
f 1621/3/6 1622/3/6 1623/3/6 1624/3/6
f 1625/1/5 1626/1/5 1627/1/5 1628/1/5
f 1629/1/6 1630/1/6 1631/1/6 1632/1/6
f 1633/1/5 1634/1/5 1635/1/5 1636/1/5
f 1637/1/6 1638/1/6 1639/1/6 1640/1/6
f 1641/1/5 1642/1/5 1643/1/5 1644/1/5
f 1645/1/6 1646/1/6 1647/1/6 1648/1/6
f 1649/1/5 1650/1/5 1651/1/5 1652/1/5
f 1653/1/6 1654/1/6 1655/1/6 1656/1/6
f 1657/1/5 1658/1/5 1659/1/5 1660/1/5
f 1661/1/6 1662/1/6 1663/1/6 1664/1/6
f 1665/1/5 1666/1/5 1667/1/5 1668/1/5
f 1669/1/6 1670/1/6 1671/1/6 1672/1/6
f 1673/1/5 1674/1/5 1675/1/5 1676/1/5
f 1677/1/6 1678/1/6 1679/1/6 1680/1/6
f 1681/1/5 1682/1/5 1683/1/5 1684/1/5
f 1685/1/6 1686/1/6 1687/1/6 1688/1/6
f 1689/1/5 1690/1/5 1691/1/5 1692/1/5
f 1693/1/6 1694/1/6 1695/1/6 1696/1/6
f 1697/1/5 1698/1/5 1699/1/5 1700/1/5
f 1701/1/6 1702/1/6 1703/1/6 1704/1/6
f 1705/1/5 1706/1/5 1707/1/5 1708/1/5
f 1709/1/6 1710/1/6 1711/1/6 1712/1/6
f 1713/1/2 1714/1/2 1715/1/2 1716/1/2
f 1717/1/4 1718/1/4 1719/1/4 1720/1/4
f 1721/1/5 1722/1/5 1723/1/5 1724/1/5
f 1725/1/6 1726/1/6 1727/1/6 1728/1/6
f 1729/2/1 1730/2/1 1731/2/1 1732/2/1
f 1733/2/4 1734/2/4 1735/2/4 1736/2/4
f 1737/2/5 1738/2/5 1739/2/5 1740/2/5
f 1741/2/6 1742/2/6 1743/2/6 1744/2/6
f 1745/3/5 1746/3/5 1747/3/5 1748/3/5
f 1749/3/6 1750/3/6 1751/3/6 1752/3/6
f 1753/1/5 1754/1/5 1755/1/5 1756/1/5
f 1757/1/6 1758/1/6 1759/1/6 1760/1/6
f 1761/1/5 1762/1/5 1763/1/5 1764/1/5
f 1765/1/6 1766/1/6 1767/1/6 1768/1/6
f 1769/1/5 1770/1/5 1771/1/5 1772/1/5
f 1773/1/6 1774/1/6 1775/1/6 1776/1/6
f 1777/1/5 1778/1/5 1779/1/5 1780/1/5
f 1781/1/6 1782/1/6 1783/1/6 1784/1/6
f 1785/1/5 1786/1/5 1787/1/5 1788/1/5
f 1789/1/6 1790/1/6 1791/1/6 1792/1/6
f 1793/1/5 1794/1/5 1795/1/5 1796/1/5
f 1797/1/6 1798/1/6 1799/1/6 1800/1/6
f 1801/1/5 1802/1/5 1803/1/5 1804/1/5
f 1805/1/6 1806/1/6 1807/1/6 1808/1/6
f 1809/1/5 1810/1/5 1811/1/5 1812/1/5
f 1813/1/6 1814/1/6 1815/1/6 1816/1/6
f 1817/1/5 1818/1/5 1819/1/5 1820/1/5
f 1821/1/6 1822/1/6 1823/1/6 1824/1/6
f 1825/1/2 1826/1/2 1827/1/2 1828/1/2
f 1829/1/4 1830/1/4 1831/1/4 1832/1/4
f 1833/1/5 1834/1/5 1835/1/5 1836/1/5
f 1837/1/6 1838/1/6 1839/1/6 1840/1/6
f 1841/2/1 1842/2/1 1843/2/1 1844/2/1
f 1845/2/5 1846/2/5 1847/2/5 1848/2/5
f 1849/2/6 1850/2/6 1851/2/6 1852/2/6
f 1853/3/5 1854/3/5 1855/3/5 1856/3/5
f 1857/3/6 1858/3/6 1859/3/6 1860/3/6
f 1861/1/5 1862/1/5 1863/1/5 1864/1/5
f 1865/1/6 1866/1/6 1867/1/6 1868/1/6
f 1869/1/5 1870/1/5 1871/1/5 1872/1/5
f 1873/1/6 1874/1/6 1875/1/6 1876/1/6
f 1877/1/5 1878/1/5 1879/1/5 1880/1/5
f 1881/1/6 1882/1/6 1883/1/6 1884/1/6
f 1885/1/5 1886/1/5 1887/1/5 1888/1/5
f 1889/1/6 1890/1/6 1891/1/6 1892/1/6
f 1893/1/5 1894/1/5 1895/1/5 1896/1/5
f 1897/1/6 1898/1/6 1899/1/6 1900/1/6
f 1901/1/5 1902/1/5 1903/1/5 1904/1/5
f 1905/1/6 1906/1/6 1907/1/6 1908/1/6
f 1909/1/5 1910/1/5 1911/1/5 1912/1/5
f 1913/1/6 1914/1/6 1915/1/6 1916/1/6
f 1917/1/2 1918/1/2 1919/1/2 1920/1/2
f 1921/1/4 1922/1/4 1923/1/4 1924/1/4
f 1925/1/5 1926/1/5 1927/1/5 1928/1/5
f 1929/1/6 1930/1/6 1931/1/6 1932/1/6
f 1933/2/1 1934/2/1 1935/2/1 1936/2/1
f 1937/2/4 1938/2/4 1939/2/4 1940/2/4
f 1941/2/5 1942/2/5 1943/2/5 1944/2/5
f 1945/2/6 1946/2/6 1947/2/6 1948/2/6
f 1949/3/5 1950/3/5 1951/3/5 1952/3/5
f 1953/3/6 1954/3/6 1955/3/6 1956/3/6
f 1957/1/5 1958/1/5 1959/1/5 1960/1/5
f 1961/1/6 1962/1/6 1963/1/6 1964/1/6
f 1965/1/5 1966/1/5 1967/1/5 1968/1/5
f 1969/1/6 1970/1/6 1971/1/6 1972/1/6
f 1973/1/5 1974/1/5 1975/1/5 1976/1/5
f 1977/1/6 1978/1/6 1979/1/6 1980/1/6
f 1981/1/5 1982/1/5 1983/1/5 1984/1/5
f 1985/1/6 1986/1/6 1987/1/6 1988/1/6
f 1989/1/5 1990/1/5 1991/1/5 1992/1/5
f 1993/1/6 1994/1/6 1995/1/6 1996/1/6
f 1997/1/5 1998/1/5 1999/1/5 2000/1/5
f 2001/1/6 2002/1/6 2003/1/6 2004/1/6
f 2005/1/2 2006/1/2 2007/1/2 2008/1/2
f 2009/1/4 2010/1/4 2011/1/4 2012/1/4
f 2013/1/5 2014/1/5 2015/1/5 2016/1/5
f 2017/1/6 2018/1/6 2019/1/6 2020/1/6
f 2021/2/1 2022/2/1 2023/2/1 2024/2/1
f 2025/2/5 2026/2/5 2027/2/5 2028/2/5
f 2029/2/6 2030/2/6 2031/2/6 2032/2/6
f 2033/3/5 2034/3/5 2035/3/5 2036/3/5
f 2037/3/6 2038/3/6 2039/3/6 2040/3/6
f 2041/1/5 2042/1/5 2043/1/5 2044/1/5
f 2045/1/6 2046/1/6 2047/1/6 2048/1/6
f 2049/1/5 2050/1/5 2051/1/5 2052/1/5
f 2053/1/6 2054/1/6 2055/1/6 2056/1/6
f 2057/1/5 2058/1/5 2059/1/5 2060/1/5
f 2061/1/6 2062/1/6 2063/1/6 2064/1/6
f 2065/1/5 2066/1/5 2067/1/5 2068/1/5
f 2069/1/6 2070/1/6 2071/1/6 2072/1/6
f 2073/1/2 2074/1/2 2075/1/2 2076/1/2
f 2077/1/4 2078/1/4 2079/1/4 2080/1/4
f 2081/1/5 2082/1/5 2083/1/5 2084/1/5
f 2085/1/6 2086/1/6 2087/1/6 2088/1/6
f 2089/2/1 2090/2/1 2091/2/1 2092/2/1
f 2093/2/4 2094/2/4 2095/2/4 2096/2/4
f 2097/2/5 2098/2/5 2099/2/5 2100/2/5
f 2101/2/6 2102/2/6 2103/2/6 2104/2/6
f 2105/3/5 2106/3/5 2107/3/5 2108/3/5
f 2109/3/6 2110/3/6 2111/3/6 2112/3/6
f 2113/1/5 2114/1/5 2115/1/5 2116/1/5
f 2117/1/6 2118/1/6 2119/1/6 2120/1/6
f 2121/1/5 2122/1/5 2123/1/5 2124/1/5
f 2125/1/6 2126/1/6 2127/1/6 2128/1/6
f 2129/1/5 2130/1/5 2131/1/5 2132/1/5
f 2133/1/6 2134/1/6 2135/1/6 2136/1/6
f 2137/1/2 2138/1/2 2139/1/2 2140/1/2
f 2141/1/4 2142/1/4 2143/1/4 2144/1/4
f 2145/1/5 2146/1/5 2147/1/5 2148/1/5
f 2149/1/6 2150/1/6 2151/1/6 2152/1/6
f 2153/2/1 2154/2/1 2155/2/1 2156/2/1
f 2157/2/5 2158/2/5 2159/2/5 2160/2/5
f 2161/2/6 2162/2/6 2163/2/6 2164/2/6
f 2165/3/5 2166/3/5 2167/3/5 2168/3/5
f 2169/3/6 2170/3/6 2171/3/6 2172/3/6
f 2173/1/5 2174/1/5 2175/1/5 2176/1/5
f 2177/1/6 2178/1/6 2179/1/6 2180/1/6
f 2181/1/2 2182/1/2 2183/1/2 2184/1/2
f 2185/1/4 2186/1/4 2187/1/4 2188/1/4
f 2189/1/5 2190/1/5 2191/1/5 2192/1/5
f 2193/1/6 2194/1/6 2195/1/6 2196/1/6
f 2197/2/1 2198/2/1 2199/2/1 2200/2/1
f 2201/2/4 2202/2/4 2203/2/4 2204/2/4
f 2205/2/5 2206/2/5 2207/2/5 2208/2/5
f 2209/2/6 2210/2/6 2211/2/6 2212/2/6
f 2213/3/5 2214/3/5 2215/3/5 2216/3/5
f 2217/3/6 2218/3/6 2219/3/6 2220/3/6
f 2221/1/2 2222/1/2 2223/1/2 2224/1/2
f 2225/1/4 2226/1/4 2227/1/4 2228/1/4
f 2229/1/5 2230/1/5 2231/1/5 2232/1/5
f 2233/1/6 2234/1/6 2235/1/6 2236/1/6
f 2237/2/1 2238/2/1 2239/2/1 2240/2/1
f 2241/2/2 2242/2/2 2243/2/2 2244/2/2
f 2245/2/4 2246/2/4 2247/2/4 2248/2/4
f 2249/2/5 2250/2/5 2251/2/5 2252/2/5
f 2253/2/6 2254/2/6 2255/2/6 2256/2/6

