# generated by vox_to_obj_exporter
# scale=0.1 center=false ground=false y_up=true

mtllib Fight_743.mtl
usemtl palette

# normals
vn -1 0 0
vn 1 0 0
vn 0 1 0
vn 0 -1 0
vn 0 0 1
vn 0 0 -1

# texcoords
vt 0.228515625 0.5
vt 0.232421875 0.5

# verts
v 0 1.7 -2.6
v 0 1.6 -2.6
v 0 1.6 -2.5
v 0 1.7 -2.5
v 0.1 1.7 -2.5
v 0.1 1.6 -2.5
v 0.1 1.6 -2.6
v 0.1 1.7 -2.6
v 0 1.7 -2.6
v 0 1.7 -2.5
v 0.1 1.7 -2.5
v 0.1 1.7 -2.6
v 0 1.7 -2.5
v 0 1.6 -2.5
v 0.1 1.6 -2.5
v 0.1 1.7 -2.5
v 0.1 1.7 -2.6
v 0.1 1.6 -2.6
v 0 1.6 -2.6
v 0 1.7 -2.6
v 0 1.6 -2.6
v 0 1.5 -2.6
v 0 1.5 -2.5
v 0 1.6 -2.5
v 0 1.6 -2.5
v 0 1.5 -2.5
v 0.1 1.5 -2.5
v 0.1 1.6 -2.5
v 0.1 1.6 -2.6
v 0.1 1.5 -2.6
v 0 1.5 -2.6
v 0 1.6 -2.6
v 0.1 1.6 -2.6
v 0.1 1.6 -2.5
v 0.2 1.6 -2.5
v 0.2 1.6 -2.6
v 0.1 1.6 -2.5
v 0.1 1.5 -2.5
v 0.2 1.5 -2.5
v 0.2 1.6 -2.5
v 0.2 1.6 -2.6
v 0.2 1.5 -2.6
v 0.1 1.5 -2.6
v 0.1 1.6 -2.6
v 0.3 1.6 -2.5
v 0.3 1.5 -2.5
v 0.3 1.5 -2.6
v 0.3 1.6 -2.6
v 0.2 1.6 -2.6
v 0.2 1.6 -2.5
v 0.3 1.6 -2.5
v 0.3 1.6 -2.6
v 0.2 1.6 -2.5
v 0.2 1.5 -2.5
v 0.3 1.5 -2.5
v 0.3 1.6 -2.5
v 0.3 1.6 -2.6
v 0.3 1.5 -2.6
v 0.2 1.5 -2.6
v 0.2 1.6 -2.6
v 0 1.5 -2.6
v 0 1.4 -2.6
v 0 1.4 -2.5
v 0 1.5 -2.5
v 0 1.5 -2.5
v 0 1.4 -2.5
v 0.1 1.4 -2.5
v 0.1 1.5 -2.5
v 0.1 1.5 -2.6
v 0.1 1.4 -2.6
v 0 1.4 -2.6
v 0 1.5 -2.6
v 0.1 1.5 -2.5
v 0.1 1.4 -2.5
v 0.2 1.4 -2.5
v 0.2 1.5 -2.5
v 0.2 1.5 -2.6
v 0.2 1.4 -2.6
v 0.1 1.4 -2.6
v 0.1 1.5 -2.6
v 0.2 1.5 -2.5
v 0.2 1.4 -2.5
v 0.3 1.4 -2.5
v 0.3 1.5 -2.5
v 0.3 1.5 -2.6
v 0.3 1.4 -2.6
v 0.2 1.4 -2.6
v 0.2 1.5 -2.6
v 0.3 1.5 -2.6
v 0.3 1.5 -2.5
v 0.4 1.5 -2.5
v 0.4 1.5 -2.6
v 0.3 1.5 -2.5
v 0.3 1.4 -2.5
v 0.4 1.4 -2.5
v 0.4 1.5 -2.5
v 0.4 1.5 -2.6
v 0.4 1.4 -2.6
v 0.3 1.4 -2.6
v 0.3 1.5 -2.6
v 0.4 1.5 -2.6
v 0.4 1.5 -2.5
v 0.5 1.5 -2.5
v 0.5 1.5 -2.6
v 0.4 1.5 -2.5
v 0.4 1.4 -2.5
v 0.5 1.4 -2.5
v 0.5 1.5 -2.5
v 0.5 1.5 -2.6
v 0.5 1.4 -2.6
v 0.4 1.4 -2.6
v 0.4 1.5 -2.6
v 0.6 1.5 -2.5
v 0.6 1.4 -2.5
v 0.6 1.4 -2.6
v 0.6 1.5 -2.6
v 0.5 1.5 -2.6
v 0.5 1.5 -2.5
v 0.6 1.5 -2.5
v 0.6 1.5 -2.6
v 0.5 1.5 -2.5
v 0.5 1.4 -2.5
v 0.6 1.4 -2.5
v 0.6 1.5 -2.5
v 0.6 1.5 -2.6
v 0.6 1.4 -2.6
v 0.5 1.4 -2.6
v 0.5 1.5 -2.6
v 0 1.4 -2.6
v 0 1.3 -2.6
v 0 1.3 -2.5
v 0 1.4 -2.5
v 0 1.4 -2.5
v 0 1.3 -2.5
v 0.1 1.3 -2.5
v 0.1 1.4 -2.5
v 0.1 1.4 -2.6
v 0.1 1.3 -2.6
v 0 1.3 -2.6
v 0 1.4 -2.6
v 0.1 1.4 -2.5
v 0.1 1.3 -2.5
v 0.2 1.3 -2.5
v 0.2 1.4 -2.5
v 0.2 1.4 -2.6
v 0.2 1.3 -2.6
v 0.1 1.3 -2.6
v 0.1 1.4 -2.6
v 0.2 1.4 -2.5
v 0.2 1.3 -2.5
v 0.3 1.3 -2.5
v 0.3 1.4 -2.5
v 0.3 1.4 -2.6
v 0.3 1.3 -2.6
v 0.2 1.3 -2.6
v 0.2 1.4 -2.6
v 0.3 1.4 -2.5
v 0.3 1.3 -2.5
v 0.4 1.3 -2.5
v 0.4 1.4 -2.5
v 0.4 1.4 -2.6
v 0.4 1.3 -2.6
v 0.3 1.3 -2.6
v 0.3 1.4 -2.6
v 0.4 1.4 -2.5
v 0.4 1.3 -2.5
v 0.5 1.3 -2.5
v 0.5 1.4 -2.5
v 0.5 1.4 -2.6
v 0.5 1.3 -2.6
v 0.4 1.3 -2.6
v 0.4 1.4 -2.6
v 0.5 1.4 -2.5
v 0.5 1.3 -2.5
v 0.6 1.3 -2.5
v 0.6 1.4 -2.5
v 0.6 1.4 -2.6
v 0.6 1.3 -2.6
v 0.5 1.3 -2.6
v 0.5 1.4 -2.6
v 0.6 1.4 -2.6
v 0.6 1.4 -2.5
v 0.7 1.4 -2.5
v 0.7 1.4 -2.6
v 0.6 1.4 -2.5
v 0.6 1.3 -2.5
v 0.7 1.3 -2.5
v 0.7 1.4 -2.5
v 0.7 1.4 -2.6
v 0.7 1.3 -2.6
v 0.6 1.3 -2.6
v 0.6 1.4 -2.6
v 0.7 1.4 -2.6
v 0.7 1.4 -2.5
v 0.8 1.4 -2.5
v 0.8 1.4 -2.6
v 0.7 1.4 -2.5
v 0.7 1.3 -2.5
v 0.8 1.3 -2.5
v 0.8 1.4 -2.5
v 0.8 1.4 -2.6
v 0.8 1.3 -2.6
v 0.7 1.3 -2.6
v 0.7 1.4 -2.6
v 0.9 1.4 -2.5
v 0.9 1.3 -2.5
v 0.9 1.3 -2.6
v 0.9 1.4 -2.6
v 0.8 1.4 -2.6
v 0.8 1.4 -2.5
v 0.9 1.4 -2.5
v 0.9 1.4 -2.6
v 0.8 1.4 -2.5
v 0.8 1.3 -2.5
v 0.9 1.3 -2.5
v 0.9 1.4 -2.5
v 0.9 1.4 -2.6
v 0.9 1.3 -2.6
v 0.8 1.3 -2.6
v 0.8 1.4 -2.6
v 0 1.3 -2.6
v 0 1.2 -2.6
v 0 1.2 -2.5
v 0 1.3 -2.5
v 0 1.3 -2.5
v 0 1.2 -2.5
v 0.1 1.2 -2.5
v 0.1 1.3 -2.5
v 0.1 1.3 -2.6
v 0.1 1.2 -2.6
v 0 1.2 -2.6
v 0 1.3 -2.6
v 0.1 1.3 -2.5
v 0.1 1.2 -2.5
v 0.2 1.2 -2.5
v 0.2 1.3 -2.5
v 0.2 1.3 -2.6
v 0.2 1.2 -2.6
v 0.1 1.2 -2.6
v 0.1 1.3 -2.6
v 0.2 1.3 -2.5
v 0.2 1.2 -2.5
v 0.3 1.2 -2.5
v 0.3 1.3 -2.5
v 0.3 1.3 -2.6
v 0.3 1.2 -2.6
v 0.2 1.2 -2.6
v 0.2 1.3 -2.6
v 0.3 1.3 -2.5
v 0.3 1.2 -2.5
v 0.4 1.2 -2.5
v 0.4 1.3 -2.5
v 0.4 1.3 -2.6
v 0.4 1.2 -2.6
v 0.3 1.2 -2.6
v 0.3 1.3 -2.6
v 0.4 1.3 -2.5
v 0.4 1.2 -2.5
v 0.5 1.2 -2.5
v 0.5 1.3 -2.5
v 0.5 1.3 -2.6
v 0.5 1.2 -2.6
v 0.4 1.2 -2.6
v 0.4 1.3 -2.6
v 0.5 1.3 -2.5
v 0.5 1.2 -2.5
v 0.6 1.2 -2.5
v 0.6 1.3 -2.5
v 0.6 1.3 -2.6
v 0.6 1.2 -2.6
v 0.5 1.2 -2.6
v 0.5 1.3 -2.6
v 0.6 1.3 -2.5
v 0.6 1.2 -2.5
v 0.7 1.2 -2.5
v 0.7 1.3 -2.5
v 0.7 1.3 -2.6
v 0.7 1.2 -2.6
v 0.6 1.2 -2.6
v 0.6 1.3 -2.6
v 0.7 1.3 -2.5
v 0.7 1.2 -2.5
v 0.8 1.2 -2.5
v 0.8 1.3 -2.5
v 0.8 1.3 -2.6
v 0.8 1.2 -2.6
v 0.7 1.2 -2.6
v 0.7 1.3 -2.6
v 0.8 1.3 -2.5
v 0.8 1.2 -2.5
v 0.9 1.2 -2.5
v 0.9 1.3 -2.5
v 0.9 1.3 -2.6
v 0.9 1.2 -2.6
v 0.8 1.2 -2.6
v 0.8 1.3 -2.6
v 0.9 1.3 -2.6
v 0.9 1.3 -2.5
v 1 1.3 -2.5
v 1 1.3 -2.6
v 0.9 1.3 -2.5
v 0.9 1.2 -2.5
v 1 1.2 -2.5
v 1 1.3 -2.5
v 1 1.3 -2.6
v 1 1.2 -2.6
v 0.9 1.2 -2.6
v 0.9 1.3 -2.6
v 1 1.3 -2.6
v 1 1.3 -2.5
v 1.1 1.3 -2.5
v 1.1 1.3 -2.6
v 1 1.3 -2.5
v 1 1.2 -2.5
v 1.1 1.2 -2.5
v 1.1 1.3 -2.5
v 1.1 1.3 -2.6
v 1.1 1.2 -2.6
v 1 1.2 -2.6
v 1 1.3 -2.6
v 1.2 1.3 -2.5
v 1.2 1.2 -2.5
v 1.2 1.2 -2.6
v 1.2 1.3 -2.6
v 1.1 1.3 -2.6
v 1.1 1.3 -2.5
v 1.2 1.3 -2.5
v 1.2 1.3 -2.6
v 1.1 1.3 -2.5
v 1.1 1.2 -2.5
v 1.2 1.2 -2.5
v 1.2 1.3 -2.5
v 1.2 1.3 -2.6
v 1.2 1.2 -2.6
v 1.1 1.2 -2.6
v 1.1 1.3 -2.6
v 0 1.2 -2.6
v 0 1.1 -2.6
v 0 1.1 -2.5
v 0 1.2 -2.5
v 0 1.2 -2.5
v 0 1.1 -2.5
v 0.1 1.1 -2.5
v 0.1 1.2 -2.5
v 0.1 1.2 -2.6
v 0.1 1.1 -2.6
v 0 1.1 -2.6
v 0 1.2 -2.6
v 0.1 1.2 -2.5
v 0.1 1.1 -2.5
v 0.2 1.1 -2.5
v 0.2 1.2 -2.5
v 0.2 1.2 -2.6
v 0.2 1.1 -2.6
v 0.1 1.1 -2.6
v 0.1 1.2 -2.6
v 0.2 1.2 -2.5
v 0.2 1.1 -2.5
v 0.3 1.1 -2.5
v 0.3 1.2 -2.5
v 0.3 1.2 -2.6
v 0.3 1.1 -2.6
v 0.2 1.1 -2.6
v 0.2 1.2 -2.6
v 0.3 1.2 -2.5
v 0.3 1.1 -2.5
v 0.4 1.1 -2.5
v 0.4 1.2 -2.5
v 0.4 1.2 -2.6
v 0.4 1.1 -2.6
v 0.3 1.1 -2.6
v 0.3 1.2 -2.6
v 0.4 1.2 -2.5
v 0.4 1.1 -2.5
v 0.5 1.1 -2.5
v 0.5 1.2 -2.5
v 0.5 1.2 -2.6
v 0.5 1.1 -2.6
v 0.4 1.1 -2.6
v 0.4 1.2 -2.6
v 0.5 1.2 -2.5
v 0.5 1.1 -2.5
v 0.6 1.1 -2.5
v 0.6 1.2 -2.5
v 0.6 1.2 -2.6
v 0.6 1.1 -2.6
v 0.5 1.1 -2.6
v 0.5 1.2 -2.6
v 0.6 1.2 -2.5
v 0.6 1.1 -2.5
v 0.7 1.1 -2.5
v 0.7 1.2 -2.5
v 0.7 1.2 -2.6
v 0.7 1.1 -2.6
v 0.6 1.1 -2.6
v 0.6 1.2 -2.6
v 0.7 1.2 -2.5
v 0.7 1.1 -2.5
v 0.8 1.1 -2.5
v 0.8 1.2 -2.5
v 0.8 1.2 -2.6
v 0.8 1.1 -2.6
v 0.7 1.1 -2.6
v 0.7 1.2 -2.6
v 0.8 1.2 -2.5
v 0.8 1.1 -2.5
v 0.9 1.1 -2.5
v 0.9 1.2 -2.5
v 0.9 1.2 -2.6
v 0.9 1.1 -2.6
v 0.8 1.1 -2.6
v 0.8 1.2 -2.6
v 0.9 1.2 -2.5
v 0.9 1.1 -2.5
v 1 1.1 -2.5
v 1 1.2 -2.5
v 1 1.2 -2.6
v 1 1.1 -2.6
v 0.9 1.1 -2.6
v 0.9 1.2 -2.6
v 1 1.2 -2.5
v 1 1.1 -2.5
v 1.1 1.1 -2.5
v 1.1 1.2 -2.5
v 1.1 1.2 -2.6
v 1.1 1.1 -2.6
v 1 1.1 -2.6
v 1 1.2 -2.6
v 1.1 1.2 -2.5
v 1.1 1.1 -2.5
v 1.2 1.1 -2.5
v 1.2 1.2 -2.5
v 1.2 1.2 -2.6
v 1.2 1.1 -2.6
v 1.1 1.1 -2.6
v 1.1 1.2 -2.6
v 1.2 1.2 -2.6
v 1.2 1.2 -2.5
v 1.3 1.2 -2.5
v 1.3 1.2 -2.6
v 1.2 1.2 -2.5
v 1.2 1.1 -2.5
v 1.3 1.1 -2.5
v 1.3 1.2 -2.5
v 1.3 1.2 -2.6
v 1.3 1.1 -2.6
v 1.2 1.1 -2.6
v 1.2 1.2 -2.6
v 1.3 1.2 -2.6
v 1.3 1.2 -2.5
v 1.4 1.2 -2.5
v 1.4 1.2 -2.6
v 1.3 1.2 -2.5
v 1.3 1.1 -2.5
v 1.4 1.1 -2.5
v 1.4 1.2 -2.5
v 1.4 1.2 -2.6
v 1.4 1.1 -2.6
v 1.3 1.1 -2.6
v 1.3 1.2 -2.6
v 1.4 1.2 -2.6
v 1.4 1.2 -2.5
v 1.5 1.2 -2.5
v 1.5 1.2 -2.6
v 1.4 1.2 -2.5
v 1.4 1.1 -2.5
v 1.5 1.1 -2.5
v 1.5 1.2 -2.5
v 1.5 1.2 -2.6
v 1.5 1.1 -2.6
v 1.4 1.1 -2.6
v 1.4 1.2 -2.6
v 1.6 1.2 -2.5
v 1.6 1.1 -2.5
v 1.6 1.1 -2.6
v 1.6 1.2 -2.6
v 1.5 1.2 -2.6
v 1.5 1.2 -2.5
v 1.6 1.2 -2.5
v 1.6 1.2 -2.6
v 1.5 1.2 -2.5
v 1.5 1.1 -2.5
v 1.6 1.1 -2.5
v 1.6 1.2 -2.5
v 1.6 1.2 -2.6
v 1.6 1.1 -2.6
v 1.5 1.1 -2.6
v 1.5 1.2 -2.6
v 0 1.1 -2.6
v 0 1 -2.6
v 0 1 -2.5
v 0 1.1 -2.5
v 0 1.1 -2.5
v 0 1 -2.5
v 0.1 1 -2.5
v 0.1 1.1 -2.5
v 0.1 1.1 -2.6
v 0.1 1 -2.6
v 0 1 -2.6
v 0 1.1 -2.6
v 0.1 1.1 -2.5
v 0.1 1 -2.5
v 0.2 1 -2.5
v 0.2 1.1 -2.5
v 0.2 1.1 -2.6
v 0.2 1 -2.6
v 0.1 1 -2.6
v 0.1 1.1 -2.6
v 0.2 1.1 -2.5
v 0.2 1 -2.5
v 0.3 1 -2.5
v 0.3 1.1 -2.5
v 0.3 1.1 -2.6
v 0.3 1 -2.6
v 0.2 1 -2.6
v 0.2 1.1 -2.6
v 0.3 1.1 -2.5
v 0.3 1 -2.5
v 0.4 1 -2.5
v 0.4 1.1 -2.5
v 0.4 1.1 -2.6
v 0.4 1 -2.6
v 0.3 1 -2.6
v 0.3 1.1 -2.6
v 0.4 1.1 -2.5
v 0.4 1 -2.5
v 0.5 1 -2.5
v 0.5 1.1 -2.5
v 0.5 1.1 -2.6
v 0.5 1 -2.6
v 0.4 1 -2.6
v 0.4 1.1 -2.6
v 0.5 1.1 -2.5
v 0.5 1 -2.5
v 0.6 1 -2.5
v 0.6 1.1 -2.5
v 0.6 1.1 -2.6
v 0.6 1 -2.6
v 0.5 1 -2.6
v 0.5 1.1 -2.6
v 0.6 1.1 -2.5
v 0.6 1 -2.5
v 0.7 1 -2.5
v 0.7 1.1 -2.5
v 0.7 1.1 -2.6
v 0.7 1 -2.6
v 0.6 1 -2.6
v 0.6 1.1 -2.6
v 0.7 1.1 -2.5
v 0.7 1 -2.5
v 0.8 1 -2.5
v 0.8 1.1 -2.5
v 0.8 1.1 -2.6
v 0.8 1 -2.6
v 0.7 1 -2.6
v 0.7 1.1 -2.6
v 0.8 1.1 -2.5
v 0.8 1 -2.5
v 0.9 1 -2.5
v 0.9 1.1 -2.5
v 0.9 1.1 -2.6
v 0.9 1 -2.6
v 0.8 1 -2.6
v 0.8 1.1 -2.6
v 0.9 1.1 -2.5
v 0.9 1 -2.5
v 1 1 -2.5
v 1 1.1 -2.5
v 1 1.1 -2.6
v 1 1 -2.6
v 0.9 1 -2.6
v 0.9 1.1 -2.6
v 1 1.1 -2.5
v 1 1 -2.5
v 1.1 1 -2.5
v 1.1 1.1 -2.5
v 1.1 1.1 -2.6
v 1.1 1 -2.6
v 1 1 -2.6
v 1 1.1 -2.6
v 1.1 1.1 -2.5
v 1.1 1 -2.5
v 1.2 1 -2.5
v 1.2 1.1 -2.5
v 1.2 1.1 -2.6
v 1.2 1 -2.6
v 1.1 1 -2.6
v 1.1 1.1 -2.6
v 1.2 1.1 -2.5
v 1.2 1 -2.5
v 1.3 1 -2.5
v 1.3 1.1 -2.5
v 1.3 1.1 -2.6
v 1.3 1 -2.6
v 1.2 1 -2.6
v 1.2 1.1 -2.6
v 1.3 1.1 -2.5
v 1.3 1 -2.5
v 1.4 1 -2.5
v 1.4 1.1 -2.5
v 1.4 1.1 -2.6
v 1.4 1 -2.6
v 1.3 1 -2.6
v 1.3 1.1 -2.6
v 1.4 1.1 -2.5
v 1.4 1 -2.5
v 1.5 1 -2.5
v 1.5 1.1 -2.5
v 1.5 1.1 -2.6
v 1.5 1 -2.6
v 1.4 1 -2.6
v 1.4 1.1 -2.6
v 1.5 1.1 -2.5
v 1.5 1 -2.5
v 1.6 1 -2.5
v 1.6 1.1 -2.5
v 1.6 1.1 -2.6
v 1.6 1 -2.6
v 1.5 1 -2.6
v 1.5 1.1 -2.6
v 1.6 1.1 -2.6
v 1.6 1.1 -2.5
v 1.7 1.1 -2.5
v 1.7 1.1 -2.6
v 1.6 1.1 -2.5
v 1.6 1 -2.5
v 1.7 1 -2.5
v 1.7 1.1 -2.5
v 1.7 1.1 -2.6
v 1.7 1 -2.6
v 1.6 1 -2.6
v 1.6 1.1 -2.6
v 1.7 1.1 -2.6
v 1.7 1.1 -2.5
v 1.8 1.1 -2.5
v 1.8 1.1 -2.6
v 1.7 1.1 -2.5
v 1.7 1 -2.5
v 1.8 1 -2.5
v 1.8 1.1 -2.5
v 1.8 1.1 -2.6
v 1.8 1 -2.6
v 1.7 1 -2.6
v 1.7 1.1 -2.6
v 1.8 1.1 -2.6
v 1.8 1.1 -2.5
v 1.9 1.1 -2.5
v 1.9 1.1 -2.6
v 1.8 1.1 -2.5
v 1.8 1 -2.5
v 1.9 1 -2.5
v 1.9 1.1 -2.5
v 1.9 1.1 -2.6
v 1.9 1 -2.6
v 1.8 1 -2.6
v 1.8 1.1 -2.6
v 1.9 1.1 -2.6
v 1.9 1.1 -2.5
v 2 1.1 -2.5
v 2 1.1 -2.6
v 1.9 1.1 -2.5
v 1.9 1 -2.5
v 2 1 -2.5
v 2 1.1 -2.5
v 2 1.1 -2.6
v 2 1 -2.6
v 1.9 1 -2.6
v 1.9 1.1 -2.6
v 2 1.1 -2.6
v 2 1.1 -2.5
v 2.1 1.1 -2.5
v 2.1 1.1 -2.6
v 2 1.1 -2.5
v 2 1 -2.5
v 2.1 1 -2.5
v 2.1 1.1 -2.5
v 2.1 1.1 -2.6
v 2.1 1 -2.6
v 2 1 -2.6
v 2 1.1 -2.6
v 2.1 1.1 -2.6
v 2.1 1.1 -2.5
v 2.2 1.1 -2.5
v 2.2 1.1 -2.6
v 2.1 1.1 -2.5
v 2.1 1 -2.5
v 2.2 1 -2.5
v 2.2 1.1 -2.5
v 2.2 1.1 -2.6
v 2.2 1 -2.6
v 2.1 1 -2.6
v 2.1 1.1 -2.6
v 2.2 1.1 -2.6
v 2.2 1.1 -2.5
v 2.3 1.1 -2.5
v 2.3 1.1 -2.6
v 2.2 1.1 -2.5
v 2.2 1 -2.5
v 2.3 1 -2.5
v 2.3 1.1 -2.5
v 2.3 1.1 -2.6
v 2.3 1 -2.6
v 2.2 1 -2.6
v 2.2 1.1 -2.6
v 2.3 1.1 -2.6
v 2.3 1.1 -2.5
v 2.4 1.1 -2.5
v 2.4 1.1 -2.6
v 2.3 1.1 -2.5
v 2.3 1 -2.5
v 2.4 1 -2.5
v 2.4 1.1 -2.5
v 2.4 1.1 -2.6
v 2.4 1 -2.6
v 2.3 1 -2.6
v 2.3 1.1 -2.6
v 2.4 1.1 -2.6
v 2.4 1.1 -2.5
v 2.5 1.1 -2.5
v 2.5 1.1 -2.6
v 2.4 1.1 -2.5
v 2.4 1 -2.5
v 2.5 1 -2.5
v 2.5 1.1 -2.5
v 2.5 1.1 -2.6
v 2.5 1 -2.6
v 2.4 1 -2.6
v 2.4 1.1 -2.6
v 2.5 1.1 -2.6
v 2.5 1.1 -2.5
v 2.6 1.1 -2.5
v 2.6 1.1 -2.6
v 2.5 1.1 -2.5
v 2.5 1 -2.5
v 2.6 1 -2.5
v 2.6 1.1 -2.5
v 2.6 1.1 -2.6
v 2.6 1 -2.6
v 2.5 1 -2.6
v 2.5 1.1 -2.6
v 2.7 1.1 -2.5
v 2.7 1 -2.5
v 2.7 1 -2.6
v 2.7 1.1 -2.6
v 2.6 1.1 -2.6
v 2.6 1.1 -2.5
v 2.7 1.1 -2.5
v 2.7 1.1 -2.6
v 2.6 1.1 -2.5
v 2.6 1 -2.5
v 2.7 1 -2.5
v 2.7 1.1 -2.5
v 2.7 1.1 -2.6
v 2.7 1 -2.6
v 2.6 1 -2.6
v 2.6 1.1 -2.6
v 0 1 -2.6
v 0 0.9 -2.6
v 0 0.9 -2.5
v 0 1 -2.5
v 0 1 -2.5
v 0 0.9 -2.5
v 0.1 0.9 -2.5
v 0.1 1 -2.5
v 0.1 1 -2.6
v 0.1 0.9 -2.6
v 0 0.9 -2.6
v 0 1 -2.6
v 0.1 1 -2.5
v 0.1 0.9 -2.5
v 0.2 0.9 -2.5
v 0.2 1 -2.5
v 0.2 1 -2.6
v 0.2 0.9 -2.6
v 0.1 0.9 -2.6
v 0.1 1 -2.6
v 0.2 1 -2.5
v 0.2 0.9 -2.5
v 0.3 0.9 -2.5
v 0.3 1 -2.5
v 0.3 1 -2.6
v 0.3 0.9 -2.6
v 0.2 0.9 -2.6
v 0.2 1 -2.6
v 0.3 1 -2.5
v 0.3 0.9 -2.5
v 0.4 0.9 -2.5
v 0.4 1 -2.5
v 0.4 1 -2.6
v 0.4 0.9 -2.6
v 0.3 0.9 -2.6
v 0.3 1 -2.6
v 0.4 1 -2.5
v 0.4 0.9 -2.5
v 0.5 0.9 -2.5
v 0.5 1 -2.5
v 0.5 1 -2.6
v 0.5 0.9 -2.6
v 0.4 0.9 -2.6
v 0.4 1 -2.6
v 0.5 1 -2.5
v 0.5 0.9 -2.5
v 0.6 0.9 -2.5
v 0.6 1 -2.5
v 0.6 1 -2.6
v 0.6 0.9 -2.6
v 0.5 0.9 -2.6
v 0.5 1 -2.6
v 0.6 1 -2.5
v 0.6 0.9 -2.5
v 0.7 0.9 -2.5
v 0.7 1 -2.5
v 0.7 1 -2.6
v 0.7 0.9 -2.6
v 0.6 0.9 -2.6
v 0.6 1 -2.6
v 0.7 1 -2.5
v 0.7 0.9 -2.5
v 0.8 0.9 -2.5
v 0.8 1 -2.5
v 0.8 1 -2.6
v 0.8 0.9 -2.6
v 0.7 0.9 -2.6
v 0.7 1 -2.6
v 0.8 1 -2.5
v 0.8 0.9 -2.5
v 0.9 0.9 -2.5
v 0.9 1 -2.5
v 0.9 1 -2.6
v 0.9 0.9 -2.6
v 0.8 0.9 -2.6
v 0.8 1 -2.6
v 0.9 1 -2.5
v 0.9 0.9 -2.5
v 1 0.9 -2.5
v 1 1 -2.5
v 1 1 -2.6
v 1 0.9 -2.6
v 0.9 0.9 -2.6
v 0.9 1 -2.6
v 1 1 -2.5
v 1 0.9 -2.5
v 1.1 0.9 -2.5
v 1.1 1 -2.5
v 1.1 1 -2.6
v 1.1 0.9 -2.6
v 1 0.9 -2.6
v 1 1 -2.6
v 1.1 1 -2.5
v 1.1 0.9 -2.5
v 1.2 0.9 -2.5
v 1.2 1 -2.5
v 1.2 1 -2.6
v 1.2 0.9 -2.6
v 1.1 0.9 -2.6
v 1.1 1 -2.6
v 1.2 1 -2.5
v 1.2 0.9 -2.5
v 1.3 0.9 -2.5
v 1.3 1 -2.5
v 1.3 1 -2.6
v 1.3 0.9 -2.6
v 1.2 0.9 -2.6
v 1.2 1 -2.6
v 1.3 1 -2.5
v 1.3 0.9 -2.5
v 1.4 0.9 -2.5
v 1.4 1 -2.5
v 1.4 1 -2.6
v 1.4 0.9 -2.6
v 1.3 0.9 -2.6
v 1.3 1 -2.6
v 1.4 1 -2.5
v 1.4 0.9 -2.5
v 1.5 0.9 -2.5
v 1.5 1 -2.5
v 1.5 1 -2.6
v 1.5 0.9 -2.6
v 1.4 0.9 -2.6
v 1.4 1 -2.6
v 1.5 1 -2.5
v 1.5 0.9 -2.5
v 1.6 0.9 -2.5
v 1.6 1 -2.5
v 1.6 1 -2.6
v 1.6 0.9 -2.6
v 1.5 0.9 -2.6
v 1.5 1 -2.6
v 1.6 1 -2.5
v 1.6 0.9 -2.5
v 1.7 0.9 -2.5
v 1.7 1 -2.5
v 1.7 1 -2.6
v 1.7 0.9 -2.6
v 1.6 0.9 -2.6
v 1.6 1 -2.6
v 1.7 1 -2.5
v 1.7 0.9 -2.5
v 1.8 0.9 -2.5
v 1.8 1 -2.5
v 1.8 1 -2.6
v 1.8 0.9 -2.6
v 1.7 0.9 -2.6
v 1.7 1 -2.6
v 1.8 1 -2.5
v 1.8 0.9 -2.5
v 1.9 0.9 -2.5
v 1.9 1 -2.5
v 1.9 1 -2.6
v 1.9 0.9 -2.6
v 1.8 0.9 -2.6
v 1.8 1 -2.6
v 1.9 1 -2.5
v 1.9 0.9 -2.5
v 2 0.9 -2.5
v 2 1 -2.5
v 2 1 -2.6
v 2 0.9 -2.6
v 1.9 0.9 -2.6
v 1.9 1 -2.6
v 2 1 -2.5
v 2 0.9 -2.5
v 2.1 0.9 -2.5
v 2.1 1 -2.5
v 2.1 1 -2.6
v 2.1 0.9 -2.6
v 2 0.9 -2.6
v 2 1 -2.6
v 2.1 1 -2.5
v 2.1 0.9 -2.5
v 2.2 0.9 -2.5
v 2.2 1 -2.5
v 2.2 1 -2.6
v 2.2 0.9 -2.6
v 2.1 0.9 -2.6
v 2.1 1 -2.6
v 2.2 1 -2.5
v 2.2 0.9 -2.5
v 2.3 0.9 -2.5
v 2.3 1 -2.5
v 2.3 1 -2.6
v 2.3 0.9 -2.6
v 2.2 0.9 -2.6
v 2.2 1 -2.6
v 2.3 1 -2.5
v 2.3 0.9 -2.5
v 2.4 0.9 -2.5
v 2.4 1 -2.5
v 2.4 1 -2.6
v 2.4 0.9 -2.6
v 2.3 0.9 -2.6
v 2.3 1 -2.6
v 2.4 1 -2.5
v 2.4 0.9 -2.5
v 2.5 0.9 -2.5
v 2.5 1 -2.5
v 2.5 1 -2.6
v 2.5 0.9 -2.6
v 2.4 0.9 -2.6
v 2.4 1 -2.6
v 2.5 1 -2.5
v 2.5 0.9 -2.5
v 2.6 0.9 -2.5
v 2.6 1 -2.5
v 2.6 1 -2.6
v 2.6 0.9 -2.6
v 2.5 0.9 -2.6
v 2.5 1 -2.6
v 2.6 1 -2.5
v 2.6 0.9 -2.5
v 2.7 0.9 -2.5
v 2.7 1 -2.5
v 2.7 1 -2.6
v 2.7 0.9 -2.6
v 2.6 0.9 -2.6
v 2.6 1 -2.6
v 2.8 1 -2.5
v 2.8 0.9 -2.5
v 2.8 0.9 -2.6
v 2.8 1 -2.6
v 2.7 1 -2.6
v 2.7 1 -2.5
v 2.8 1 -2.5
v 2.8 1 -2.6
v 2.7 0.9 -2.5
v 2.7 0.9 -2.6
v 2.8 0.9 -2.6
v 2.8 0.9 -2.5
v 2.7 1 -2.5
v 2.7 0.9 -2.5
v 2.8 0.9 -2.5
v 2.8 1 -2.5
v 2.8 1 -2.6
v 2.8 0.9 -2.6
v 2.7 0.9 -2.6
v 2.7 1 -2.6
v 0 0.9 -2.6
v 0 0.8 -2.6
v 0 0.8 -2.5
v 0 0.9 -2.5
v 0 0.9 -2.5
v 0 0.8 -2.5
v 0.1 0.8 -2.5
v 0.1 0.9 -2.5
v 0.1 0.9 -2.6
v 0.1 0.8 -2.6
v 0 0.8 -2.6
v 0 0.9 -2.6
v 0.1 0.9 -2.5
v 0.1 0.8 -2.5
v 0.2 0.8 -2.5
v 0.2 0.9 -2.5
v 0.2 0.9 -2.6
v 0.2 0.8 -2.6
v 0.1 0.8 -2.6
v 0.1 0.9 -2.6
v 0.2 0.9 -2.5
v 0.2 0.8 -2.5
v 0.3 0.8 -2.5
v 0.3 0.9 -2.5
v 0.3 0.9 -2.6
v 0.3 0.8 -2.6
v 0.2 0.8 -2.6
v 0.2 0.9 -2.6
v 0.3 0.9 -2.5
v 0.3 0.8 -2.5
v 0.4 0.8 -2.5
v 0.4 0.9 -2.5
v 0.4 0.9 -2.6
v 0.4 0.8 -2.6
v 0.3 0.8 -2.6
v 0.3 0.9 -2.6
v 0.4 0.9 -2.5
v 0.4 0.8 -2.5
v 0.5 0.8 -2.5
v 0.5 0.9 -2.5
v 0.5 0.9 -2.6
v 0.5 0.8 -2.6
v 0.4 0.8 -2.6
v 0.4 0.9 -2.6
v 0.5 0.9 -2.5
v 0.5 0.8 -2.5
v 0.6 0.8 -2.5
v 0.6 0.9 -2.5
v 0.6 0.9 -2.6
v 0.6 0.8 -2.6
v 0.5 0.8 -2.6
v 0.5 0.9 -2.6
v 0.6 0.9 -2.5
v 0.6 0.8 -2.5
v 0.7 0.8 -2.5
v 0.7 0.9 -2.5
v 0.7 0.9 -2.6
v 0.7 0.8 -2.6
v 0.6 0.8 -2.6
v 0.6 0.9 -2.6
v 0.7 0.9 -2.5
v 0.7 0.8 -2.5
v 0.8 0.8 -2.5
v 0.8 0.9 -2.5
v 0.8 0.9 -2.6
v 0.8 0.8 -2.6
v 0.7 0.8 -2.6
v 0.7 0.9 -2.6
v 0.8 0.9 -2.5
v 0.8 0.8 -2.5
v 0.9 0.8 -2.5
v 0.9 0.9 -2.5
v 0.9 0.9 -2.6
v 0.9 0.8 -2.6
v 0.8 0.8 -2.6
v 0.8 0.9 -2.6
v 0.9 0.9 -2.5
v 0.9 0.8 -2.5
v 1 0.8 -2.5
v 1 0.9 -2.5
v 1 0.9 -2.6
v 1 0.8 -2.6
v 0.9 0.8 -2.6
v 0.9 0.9 -2.6
v 1 0.9 -2.5
v 1 0.8 -2.5
v 1.1 0.8 -2.5
v 1.1 0.9 -2.5
v 1.1 0.9 -2.6
v 1.1 0.8 -2.6
v 1 0.8 -2.6
v 1 0.9 -2.6
v 1.1 0.9 -2.5
v 1.1 0.8 -2.5
v 1.2 0.8 -2.5
v 1.2 0.9 -2.5
v 1.2 0.9 -2.6
v 1.2 0.8 -2.6
v 1.1 0.8 -2.6
v 1.1 0.9 -2.6
v 1.2 0.9 -2.5
v 1.2 0.8 -2.5
v 1.3 0.8 -2.5
v 1.3 0.9 -2.5
v 1.3 0.9 -2.6
v 1.3 0.8 -2.6
v 1.2 0.8 -2.6
v 1.2 0.9 -2.6
v 1.3 0.9 -2.5
v 1.3 0.8 -2.5
v 1.4 0.8 -2.5
v 1.4 0.9 -2.5
v 1.4 0.9 -2.6
v 1.4 0.8 -2.6
v 1.3 0.8 -2.6
v 1.3 0.9 -2.6
v 1.4 0.9 -2.5
v 1.4 0.8 -2.5
v 1.5 0.8 -2.5
v 1.5 0.9 -2.5
v 1.5 0.9 -2.6
v 1.5 0.8 -2.6
v 1.4 0.8 -2.6
v 1.4 0.9 -2.6
v 1.5 0.9 -2.5
v 1.5 0.8 -2.5
v 1.6 0.8 -2.5
v 1.6 0.9 -2.5
v 1.6 0.9 -2.6
v 1.6 0.8 -2.6
v 1.5 0.8 -2.6
v 1.5 0.9 -2.6
v 1.6 0.9 -2.5
v 1.6 0.8 -2.5
v 1.7 0.8 -2.5
v 1.7 0.9 -2.5
v 1.7 0.9 -2.6
v 1.7 0.8 -2.6
v 1.6 0.8 -2.6
v 1.6 0.9 -2.6
v 1.7 0.9 -2.5
v 1.7 0.8 -2.5
v 1.8 0.8 -2.5
v 1.8 0.9 -2.5
v 1.8 0.9 -2.6
v 1.8 0.8 -2.6
v 1.7 0.8 -2.6
v 1.7 0.9 -2.6
v 1.8 0.9 -2.5
v 1.8 0.8 -2.5
v 1.9 0.8 -2.5
v 1.9 0.9 -2.5
v 1.9 0.9 -2.6
v 1.9 0.8 -2.6
v 1.8 0.8 -2.6
v 1.8 0.9 -2.6
v 1.9 0.9 -2.5
v 1.9 0.8 -2.5
v 2 0.8 -2.5
v 2 0.9 -2.5
v 2 0.9 -2.6
v 2 0.8 -2.6
v 1.9 0.8 -2.6
v 1.9 0.9 -2.6
v 2 0.9 -2.5
v 2 0.8 -2.5
v 2.1 0.8 -2.5
v 2.1 0.9 -2.5
v 2.1 0.9 -2.6
v 2.1 0.8 -2.6
v 2 0.8 -2.6
v 2 0.9 -2.6
v 2.1 0.9 -2.5
v 2.1 0.8 -2.5
v 2.2 0.8 -2.5
v 2.2 0.9 -2.5
v 2.2 0.9 -2.6
v 2.2 0.8 -2.6
v 2.1 0.8 -2.6
v 2.1 0.9 -2.6
v 2.2 0.8 -2.5
v 2.2 0.8 -2.6
v 2.3 0.8 -2.6
v 2.3 0.8 -2.5
v 2.2 0.9 -2.5
v 2.2 0.8 -2.5
v 2.3 0.8 -2.5
v 2.3 0.9 -2.5
v 2.3 0.9 -2.6
v 2.3 0.8 -2.6
v 2.2 0.8 -2.6
v 2.2 0.9 -2.6
v 2.3 0.8 -2.5
v 2.3 0.8 -2.6
v 2.4 0.8 -2.6
v 2.4 0.8 -2.5
v 2.3 0.9 -2.5
v 2.3 0.8 -2.5
v 2.4 0.8 -2.5
v 2.4 0.9 -2.5
v 2.4 0.9 -2.6
v 2.4 0.8 -2.6
v 2.3 0.8 -2.6
v 2.3 0.9 -2.6
v 2.4 0.8 -2.5
v 2.4 0.8 -2.6
v 2.5 0.8 -2.6
v 2.5 0.8 -2.5
v 2.4 0.9 -2.5
v 2.4 0.8 -2.5
v 2.5 0.8 -2.5
v 2.5 0.9 -2.5
v 2.5 0.9 -2.6
v 2.5 0.8 -2.6
v 2.4 0.8 -2.6
v 2.4 0.9 -2.6
v 2.5 0.8 -2.5
v 2.5 0.8 -2.6
v 2.6 0.8 -2.6
v 2.6 0.8 -2.5
v 2.5 0.9 -2.5
v 2.5 0.8 -2.5
v 2.6 0.8 -2.5
v 2.6 0.9 -2.5
v 2.6 0.9 -2.6
v 2.6 0.8 -2.6
v 2.5 0.8 -2.6
v 2.5 0.9 -2.6
v 2.7 0.9 -2.5
v 2.7 0.8 -2.5
v 2.7 0.8 -2.6
v 2.7 0.9 -2.6
v 2.6 0.8 -2.5
v 2.6 0.8 -2.6
v 2.7 0.8 -2.6
v 2.7 0.8 -2.5
v 2.6 0.9 -2.5
v 2.6 0.8 -2.5
v 2.7 0.8 -2.5
v 2.7 0.9 -2.5
v 2.7 0.9 -2.6
v 2.7 0.8 -2.6
v 2.6 0.8 -2.6
v 2.6 0.9 -2.6
v 0 0.8 -2.6
v 0 0.7 -2.6
v 0 0.7 -2.5
v 0 0.8 -2.5
v 0 0.8 -2.5
v 0 0.7 -2.5
v 0.1 0.7 -2.5
v 0.1 0.8 -2.5
v 0.1 0.8 -2.6
v 0.1 0.7 -2.6
v 0 0.7 -2.6
v 0 0.8 -2.6
v 0.1 0.8 -2.5
v 0.1 0.7 -2.5
v 0.2 0.7 -2.5
v 0.2 0.8 -2.5
v 0.2 0.8 -2.6
v 0.2 0.7 -2.6
v 0.1 0.7 -2.6
v 0.1 0.8 -2.6
v 0.2 0.8 -2.5
v 0.2 0.7 -2.5
v 0.3 0.7 -2.5
v 0.3 0.8 -2.5
v 0.3 0.8 -2.6
v 0.3 0.7 -2.6
v 0.2 0.7 -2.6
v 0.2 0.8 -2.6
v 0.3 0.8 -2.5
v 0.3 0.7 -2.5
v 0.4 0.7 -2.5
v 0.4 0.8 -2.5
v 0.4 0.8 -2.6
v 0.4 0.7 -2.6
v 0.3 0.7 -2.6
v 0.3 0.8 -2.6
v 0.4 0.8 -2.5
v 0.4 0.7 -2.5
v 0.5 0.7 -2.5
v 0.5 0.8 -2.5
v 0.5 0.8 -2.6
v 0.5 0.7 -2.6
v 0.4 0.7 -2.6
v 0.4 0.8 -2.6
v 0.5 0.8 -2.5
v 0.5 0.7 -2.5
v 0.6 0.7 -2.5
v 0.6 0.8 -2.5
v 0.6 0.8 -2.6
v 0.6 0.7 -2.6
v 0.5 0.7 -2.6
v 0.5 0.8 -2.6
v 0.6 0.8 -2.5
v 0.6 0.7 -2.5
v 0.7 0.7 -2.5
v 0.7 0.8 -2.5
v 0.7 0.8 -2.6
v 0.7 0.7 -2.6
v 0.6 0.7 -2.6
v 0.6 0.8 -2.6
v 0.7 0.8 -2.5
v 0.7 0.7 -2.5
v 0.8 0.7 -2.5
v 0.8 0.8 -2.5
v 0.8 0.8 -2.6
v 0.8 0.7 -2.6
v 0.7 0.7 -2.6
v 0.7 0.8 -2.6
v 0.8 0.8 -2.5
v 0.8 0.7 -2.5
v 0.9 0.7 -2.5
v 0.9 0.8 -2.5
v 0.9 0.8 -2.6
v 0.9 0.7 -2.6
v 0.8 0.7 -2.6
v 0.8 0.8 -2.6
v 0.9 0.8 -2.5
v 0.9 0.7 -2.5
v 1 0.7 -2.5
v 1 0.8 -2.5
v 1 0.8 -2.6
v 1 0.7 -2.6
v 0.9 0.7 -2.6
v 0.9 0.8 -2.6
v 1 0.8 -2.5
v 1 0.7 -2.5
v 1.1 0.7 -2.5
v 1.1 0.8 -2.5
v 1.1 0.8 -2.6
v 1.1 0.7 -2.6
v 1 0.7 -2.6
v 1 0.8 -2.6
v 1.1 0.8 -2.5
v 1.1 0.7 -2.5
v 1.2 0.7 -2.5
v 1.2 0.8 -2.5
v 1.2 0.8 -2.6
v 1.2 0.7 -2.6
v 1.1 0.7 -2.6
v 1.1 0.8 -2.6
v 1.2 0.8 -2.5
v 1.2 0.7 -2.5
v 1.3 0.7 -2.5
v 1.3 0.8 -2.5
v 1.3 0.8 -2.6
v 1.3 0.7 -2.6
v 1.2 0.7 -2.6
v 1.2 0.8 -2.6
v 1.3 0.8 -2.5
v 1.3 0.7 -2.5
v 1.4 0.7 -2.5
v 1.4 0.8 -2.5
v 1.4 0.8 -2.6
v 1.4 0.7 -2.6
v 1.3 0.7 -2.6
v 1.3 0.8 -2.6
v 1.4 0.8 -2.5
v 1.4 0.7 -2.5
v 1.5 0.7 -2.5
v 1.5 0.8 -2.5
v 1.5 0.8 -2.6
v 1.5 0.7 -2.6
v 1.4 0.7 -2.6
v 1.4 0.8 -2.6
v 1.5 0.8 -2.5
v 1.5 0.7 -2.5
v 1.6 0.7 -2.5
v 1.6 0.8 -2.5
v 1.6 0.8 -2.6
v 1.6 0.7 -2.6
v 1.5 0.7 -2.6
v 1.5 0.8 -2.6
v 1.6 0.7 -2.5
v 1.6 0.7 -2.6
v 1.7 0.7 -2.6
v 1.7 0.7 -2.5
v 1.6 0.8 -2.5
v 1.6 0.7 -2.5
v 1.7 0.7 -2.5
v 1.7 0.8 -2.5
v 1.7 0.8 -2.6
v 1.7 0.7 -2.6
v 1.6 0.7 -2.6
v 1.6 0.8 -2.6
v 1.7 0.7 -2.5
v 1.7 0.7 -2.6
v 1.8 0.7 -2.6
v 1.8 0.7 -2.5
v 1.7 0.8 -2.5
v 1.7 0.7 -2.5
v 1.8 0.7 -2.5
v 1.8 0.8 -2.5
v 1.8 0.8 -2.6
v 1.8 0.7 -2.6
v 1.7 0.7 -2.6
v 1.7 0.8 -2.6
v 1.8 0.7 -2.5
v 1.8 0.7 -2.6
v 1.9 0.7 -2.6
v 1.9 0.7 -2.5
v 1.8 0.8 -2.5
v 1.8 0.7 -2.5
v 1.9 0.7 -2.5
v 1.9 0.8 -2.5
v 1.9 0.8 -2.6
v 1.9 0.7 -2.6
v 1.8 0.7 -2.6
v 1.8 0.8 -2.6
v 1.9 0.7 -2.5
v 1.9 0.7 -2.6
v 2 0.7 -2.6
v 2 0.7 -2.5
v 1.9 0.8 -2.5
v 1.9 0.7 -2.5
v 2 0.7 -2.5
v 2 0.8 -2.5
v 2 0.8 -2.6
v 2 0.7 -2.6
v 1.9 0.7 -2.6
v 1.9 0.8 -2.6
v 2 0.7 -2.5
v 2 0.7 -2.6
v 2.1 0.7 -2.6
v 2.1 0.7 -2.5
v 2 0.8 -2.5
v 2 0.7 -2.5
v 2.1 0.7 -2.5
v 2.1 0.8 -2.5
v 2.1 0.8 -2.6
v 2.1 0.7 -2.6
v 2 0.7 -2.6
v 2 0.8 -2.6
v 2.2 0.8 -2.5
v 2.2 0.7 -2.5
v 2.2 0.7 -2.6
v 2.2 0.8 -2.6
v 2.1 0.7 -2.5
v 2.1 0.7 -2.6
v 2.2 0.7 -2.6
v 2.2 0.7 -2.5
v 2.1 0.8 -2.5
v 2.1 0.7 -2.5
v 2.2 0.7 -2.5
v 2.2 0.8 -2.5
v 2.2 0.8 -2.6
v 2.2 0.7 -2.6
v 2.1 0.7 -2.6
v 2.1 0.8 -2.6
v 0 0.7 -2.6
v 0 0.6 -2.6
v 0 0.6 -2.5
v 0 0.7 -2.5
v 0 0.7 -2.5
v 0 0.6 -2.5
v 0.1 0.6 -2.5
v 0.1 0.7 -2.5
v 0.1 0.7 -2.6
v 0.1 0.6 -2.6
v 0 0.6 -2.6
v 0 0.7 -2.6
v 0.1 0.7 -2.5
v 0.1 0.6 -2.5
v 0.2 0.6 -2.5
v 0.2 0.7 -2.5
v 0.2 0.7 -2.6
v 0.2 0.6 -2.6
v 0.1 0.6 -2.6
v 0.1 0.7 -2.6
v 0.2 0.7 -2.5
v 0.2 0.6 -2.5
v 0.3 0.6 -2.5
v 0.3 0.7 -2.5
v 0.3 0.7 -2.6
v 0.3 0.6 -2.6
v 0.2 0.6 -2.6
v 0.2 0.7 -2.6
v 0.3 0.7 -2.5
v 0.3 0.6 -2.5
v 0.4 0.6 -2.5
v 0.4 0.7 -2.5
v 0.4 0.7 -2.6
v 0.4 0.6 -2.6
v 0.3 0.6 -2.6
v 0.3 0.7 -2.6
v 0.4 0.7 -2.5
v 0.4 0.6 -2.5
v 0.5 0.6 -2.5
v 0.5 0.7 -2.5
v 0.5 0.7 -2.6
v 0.5 0.6 -2.6
v 0.4 0.6 -2.6
v 0.4 0.7 -2.6
v 0.5 0.7 -2.5
v 0.5 0.6 -2.5
v 0.6 0.6 -2.5
v 0.6 0.7 -2.5
v 0.6 0.7 -2.6
v 0.6 0.6 -2.6
v 0.5 0.6 -2.6
v 0.5 0.7 -2.6
v 0.6 0.7 -2.5
v 0.6 0.6 -2.5
v 0.7 0.6 -2.5
v 0.7 0.7 -2.5
v 0.7 0.7 -2.6
v 0.7 0.6 -2.6
v 0.6 0.6 -2.6
v 0.6 0.7 -2.6
v 0.7 0.7 -2.5
v 0.7 0.6 -2.5
v 0.8 0.6 -2.5
v 0.8 0.7 -2.5
v 0.8 0.7 -2.6
v 0.8 0.6 -2.6
v 0.7 0.6 -2.6
v 0.7 0.7 -2.6
v 0.8 0.7 -2.5
v 0.8 0.6 -2.5
v 0.9 0.6 -2.5
v 0.9 0.7 -2.5
v 0.9 0.7 -2.6
v 0.9 0.6 -2.6
v 0.8 0.6 -2.6
v 0.8 0.7 -2.6
v 0.9 0.7 -2.5
v 0.9 0.6 -2.5
v 1 0.6 -2.5
v 1 0.7 -2.5
v 1 0.7 -2.6
v 1 0.6 -2.6
v 0.9 0.6 -2.6
v 0.9 0.7 -2.6
v 1 0.7 -2.5
v 1 0.6 -2.5
v 1.1 0.6 -2.5
v 1.1 0.7 -2.5
v 1.1 0.7 -2.6
v 1.1 0.6 -2.6
v 1 0.6 -2.6
v 1 0.7 -2.6
v 1.1 0.6 -2.5
v 1.1 0.6 -2.6
v 1.2 0.6 -2.6
v 1.2 0.6 -2.5
v 1.1 0.7 -2.5
v 1.1 0.6 -2.5
v 1.2 0.6 -2.5
v 1.2 0.7 -2.5
v 1.2 0.7 -2.6
v 1.2 0.6 -2.6
v 1.1 0.6 -2.6
v 1.1 0.7 -2.6
v 1.2 0.6 -2.5
v 1.2 0.6 -2.6
v 1.3 0.6 -2.6
v 1.3 0.6 -2.5
v 1.2 0.7 -2.5
v 1.2 0.6 -2.5
v 1.3 0.6 -2.5
v 1.3 0.7 -2.5
v 1.3 0.7 -2.6
v 1.3 0.6 -2.6
v 1.2 0.6 -2.6
v 1.2 0.7 -2.6
v 1.3 0.6 -2.5
v 1.3 0.6 -2.6
v 1.4 0.6 -2.6
v 1.4 0.6 -2.5
v 1.3 0.7 -2.5
v 1.3 0.6 -2.5
v 1.4 0.6 -2.5
v 1.4 0.7 -2.5
v 1.4 0.7 -2.6
v 1.4 0.6 -2.6
v 1.3 0.6 -2.6
v 1.3 0.7 -2.6
v 1.4 0.6 -2.5
v 1.4 0.6 -2.6
v 1.5 0.6 -2.6
v 1.5 0.6 -2.5
v 1.4 0.7 -2.5
v 1.4 0.6 -2.5
v 1.5 0.6 -2.5
v 1.5 0.7 -2.5
v 1.5 0.7 -2.6
v 1.5 0.6 -2.6
v 1.4 0.6 -2.6
v 1.4 0.7 -2.6
v 1.6 0.7 -2.5
v 1.6 0.6 -2.5
v 1.6 0.6 -2.6
v 1.6 0.7 -2.6
v 1.5 0.6 -2.5
v 1.5 0.6 -2.6
v 1.6 0.6 -2.6
v 1.6 0.6 -2.5
v 1.5 0.7 -2.5
v 1.5 0.6 -2.5
v 1.6 0.6 -2.5
v 1.6 0.7 -2.5
v 1.6 0.7 -2.6
v 1.6 0.6 -2.6
v 1.5 0.6 -2.6
v 1.5 0.7 -2.6
v 0 0.6 -2.6
v 0 0.5 -2.6
v 0 0.5 -2.5
v 0 0.6 -2.5
v 0 0.6 -2.5
v 0 0.5 -2.5
v 0.1 0.5 -2.5
v 0.1 0.6 -2.5
v 0.1 0.6 -2.6
v 0.1 0.5 -2.6
v 0 0.5 -2.6
v 0 0.6 -2.6
v 0.1 0.6 -2.5
v 0.1 0.5 -2.5
v 0.2 0.5 -2.5
v 0.2 0.6 -2.5
v 0.2 0.6 -2.6
v 0.2 0.5 -2.6
v 0.1 0.5 -2.6
v 0.1 0.6 -2.6
v 0.2 0.6 -2.5
v 0.2 0.5 -2.5
v 0.3 0.5 -2.5
v 0.3 0.6 -2.5
v 0.3 0.6 -2.6
v 0.3 0.5 -2.6
v 0.2 0.5 -2.6
v 0.2 0.6 -2.6
v 0.3 0.6 -2.5
v 0.3 0.5 -2.5
v 0.4 0.5 -2.5
v 0.4 0.6 -2.5
v 0.4 0.6 -2.6
v 0.4 0.5 -2.6
v 0.3 0.5 -2.6
v 0.3 0.6 -2.6
v 0.4 0.6 -2.5
v 0.4 0.5 -2.5
v 0.5 0.5 -2.5
v 0.5 0.6 -2.5
v 0.5 0.6 -2.6
v 0.5 0.5 -2.6
v 0.4 0.5 -2.6
v 0.4 0.6 -2.6
v 0.5 0.5 -2.5
v 0.5 0.5 -2.6
v 0.6 0.5 -2.6
v 0.6 0.5 -2.5
v 0.5 0.6 -2.5
v 0.5 0.5 -2.5
v 0.6 0.5 -2.5
v 0.6 0.6 -2.5
v 0.6 0.6 -2.6
v 0.6 0.5 -2.6
v 0.5 0.5 -2.6
v 0.5 0.6 -2.6
v 0.6 0.5 -2.5
v 0.6 0.5 -2.6
v 0.7 0.5 -2.6
v 0.7 0.5 -2.5
v 0.6 0.6 -2.5
v 0.6 0.5 -2.5
v 0.7 0.5 -2.5
v 0.7 0.6 -2.5
v 0.7 0.6 -2.6
v 0.7 0.5 -2.6
v 0.6 0.5 -2.6
v 0.6 0.6 -2.6
v 0.7 0.5 -2.5
v 0.7 0.5 -2.6
v 0.8 0.5 -2.6
v 0.8 0.5 -2.5
v 0.7 0.6 -2.5
v 0.7 0.5 -2.5
v 0.8 0.5 -2.5
v 0.8 0.6 -2.5
v 0.8 0.6 -2.6
v 0.8 0.5 -2.6
v 0.7 0.5 -2.6
v 0.7 0.6 -2.6
v 0.8 0.5 -2.5
v 0.8 0.5 -2.6
v 0.9 0.5 -2.6
v 0.9 0.5 -2.5
v 0.8 0.6 -2.5
v 0.8 0.5 -2.5
v 0.9 0.5 -2.5
v 0.9 0.6 -2.5
v 0.9 0.6 -2.6
v 0.9 0.5 -2.6
v 0.8 0.5 -2.6
v 0.8 0.6 -2.6
v 0.9 0.5 -2.5
v 0.9 0.5 -2.6
v 1 0.5 -2.6
v 1 0.5 -2.5
v 0.9 0.6 -2.5
v 0.9 0.5 -2.5
v 1 0.5 -2.5
v 1 0.6 -2.5
v 1 0.6 -2.6
v 1 0.5 -2.6
v 0.9 0.5 -2.6
v 0.9 0.6 -2.6
v 1.1 0.6 -2.5
v 1.1 0.5 -2.5
v 1.1 0.5 -2.6
v 1.1 0.6 -2.6
v 1 0.5 -2.5
v 1 0.5 -2.6
v 1.1 0.5 -2.6
v 1.1 0.5 -2.5
v 1 0.6 -2.5
v 1 0.5 -2.5
v 1.1 0.5 -2.5
v 1.1 0.6 -2.5
v 1.1 0.6 -2.6
v 1.1 0.5 -2.6
v 1 0.5 -2.6
v 1 0.6 -2.6
v 0 0.5 -2.6
v 0 0.4 -2.6
v 0 0.4 -2.5
v 0 0.5 -2.5
v 0 0.4 -2.5
v 0 0.4 -2.6
v 0.1 0.4 -2.6
v 0.1 0.4 -2.5
v 0 0.5 -2.5
v 0 0.4 -2.5
v 0.1 0.4 -2.5
v 0.1 0.5 -2.5
v 0.1 0.5 -2.6
v 0.1 0.4 -2.6
v 0 0.4 -2.6
v 0 0.5 -2.6
v 0.1 0.4 -2.5
v 0.1 0.4 -2.6
v 0.2 0.4 -2.6
v 0.2 0.4 -2.5
v 0.1 0.5 -2.5
v 0.1 0.4 -2.5
v 0.2 0.4 -2.5
v 0.2 0.5 -2.5
v 0.2 0.5 -2.6
v 0.2 0.4 -2.6
v 0.1 0.4 -2.6
v 0.1 0.5 -2.6
v 0.2 0.4 -2.5
v 0.2 0.4 -2.6
v 0.3 0.4 -2.6
v 0.3 0.4 -2.5
v 0.2 0.5 -2.5
v 0.2 0.4 -2.5
v 0.3 0.4 -2.5
v 0.3 0.5 -2.5
v 0.3 0.5 -2.6
v 0.3 0.4 -2.6
v 0.2 0.4 -2.6
v 0.2 0.5 -2.6
v 0.3 0.4 -2.5
v 0.3 0.4 -2.6
v 0.4 0.4 -2.6
v 0.4 0.4 -2.5
v 0.3 0.5 -2.5
v 0.3 0.4 -2.5
v 0.4 0.4 -2.5
v 0.4 0.5 -2.5
v 0.4 0.5 -2.6
v 0.4 0.4 -2.6
v 0.3 0.4 -2.6
v 0.3 0.5 -2.6
v 0.5 0.5 -2.5
v 0.5 0.4 -2.5
v 0.5 0.4 -2.6
v 0.5 0.5 -2.6
v 0.4 0.4 -2.5
v 0.4 0.4 -2.6
v 0.5 0.4 -2.6
v 0.5 0.4 -2.5
v 0.4 0.5 -2.5
v 0.4 0.4 -2.5
v 0.5 0.4 -2.5
v 0.5 0.5 -2.5
v 0.5 0.5 -2.6
v 0.5 0.4 -2.6
v 0.4 0.4 -2.6
v 0.4 0.5 -2.6

# faces
f 1/1/1 2/1/1 3/1/1 4/1/1
f 5/1/2 6/1/2 7/1/2 8/1/2
f 9/1/3 10/1/3 11/1/3 12/1/3
f 13/1/5 14/1/5 15/1/5 16/1/5
f 17/1/6 18/1/6 19/1/6 20/1/6
f 21/2/1 22/2/1 23/2/1 24/2/1
f 25/2/5 26/2/5 27/2/5 28/2/5
f 29/2/6 30/2/6 31/2/6 32/2/6
f 33/1/3 34/1/3 35/1/3 36/1/3
f 37/1/5 38/1/5 39/1/5 40/1/5
f 41/1/6 42/1/6 43/1/6 44/1/6
f 45/1/2 46/1/2 47/1/2 48/1/2
f 49/1/3 50/1/3 51/1/3 52/1/3
f 53/1/5 54/1/5 55/1/5 56/1/5
f 57/1/6 58/1/6 59/1/6 60/1/6
f 61/2/1 62/2/1 63/2/1 64/2/1
f 65/2/5 66/2/5 67/2/5 68/2/5
f 69/2/6 70/2/6 71/2/6 72/2/6
f 73/2/5 74/2/5 75/2/5 76/2/5
f 77/2/6 78/2/6 79/2/6 80/2/6
f 81/2/5 82/2/5 83/2/5 84/2/5
f 85/2/6 86/2/6 87/2/6 88/2/6
f 89/1/3 90/1/3 91/1/3 92/1/3
f 93/1/5 94/1/5 95/1/5 96/1/5
f 97/1/6 98/1/6 99/1/6 100/1/6
f 101/1/3 102/1/3 103/1/3 104/1/3
f 105/1/5 106/1/5 107/1/5 108/1/5
f 109/1/6 110/1/6 111/1/6 112/1/6
f 113/1/2 114/1/2 115/1/2 116/1/2
f 117/1/3 118/1/3 119/1/3 120/1/3
f 121/1/5 122/1/5 123/1/5 124/1/5
f 125/1/6 126/1/6 127/1/6 128/1/6
f 129/2/1 130/2/1 131/2/1 132/2/1
f 133/2/5 134/2/5 135/2/5 136/2/5
f 137/2/6 138/2/6 139/2/6 140/2/6
f 141/2/5 142/2/5 143/2/5 144/2/5
f 145/2/6 146/2/6 147/2/6 148/2/6
f 149/2/5 150/2/5 151/2/5 152/2/5
f 153/2/6 154/2/6 155/2/6 156/2/6
f 157/2/5 158/2/5 159/2/5 160/2/5
f 161/2/6 162/2/6 163/2/6 164/2/6
f 165/2/5 166/2/5 167/2/5 168/2/5
f 169/2/6 170/2/6 171/2/6 172/2/6
f 173/2/5 174/2/5 175/2/5 176/2/5
f 177/2/6 178/2/6 179/2/6 180/2/6
f 181/1/3 182/1/3 183/1/3 184/1/3
f 185/1/5 186/1/5 187/1/5 188/1/5
f 189/1/6 190/1/6 191/1/6 192/1/6
f 193/1/3 194/1/3 195/1/3 196/1/3
f 197/1/5 198/1/5 199/1/5 200/1/5
f 201/1/6 202/1/6 203/1/6 204/1/6
f 205/1/2 206/1/2 207/1/2 208/1/2
f 209/1/3 210/1/3 211/1/3 212/1/3
f 213/1/5 214/1/5 215/1/5 216/1/5
f 217/1/6 218/1/6 219/1/6 220/1/6
f 221/2/1 222/2/1 223/2/1 224/2/1
f 225/2/5 226/2/5 227/2/5 228/2/5
f 229/2/6 230/2/6 231/2/6 232/2/6
f 233/2/5 234/2/5 235/2/5 236/2/5
f 237/2/6 238/2/6 239/2/6 240/2/6
f 241/2/5 242/2/5 243/2/5 244/2/5
f 245/2/6 246/2/6 247/2/6 248/2/6
f 249/2/5 250/2/5 251/2/5 252/2/5
f 253/2/6 254/2/6 255/2/6 256/2/6
f 257/2/5 258/2/5 259/2/5 260/2/5
f 261/2/6 262/2/6 263/2/6 264/2/6
f 265/2/5 266/2/5 267/2/5 268/2/5
f 269/2/6 270/2/6 271/2/6 272/2/6
f 273/2/5 274/2/5 275/2/5 276/2/5
f 277/2/6 278/2/6 279/2/6 280/2/6
f 281/2/5 282/2/5 283/2/5 284/2/5
f 285/2/6 286/2/6 287/2/6 288/2/6
f 289/2/5 290/2/5 291/2/5 292/2/5
f 293/2/6 294/2/6 295/2/6 296/2/6
f 297/1/3 298/1/3 299/1/3 300/1/3
f 301/1/5 302/1/5 303/1/5 304/1/5
f 305/1/6 306/1/6 307/1/6 308/1/6
f 309/1/3 310/1/3 311/1/3 312/1/3
f 313/1/5 314/1/5 315/1/5 316/1/5
f 317/1/6 318/1/6 319/1/6 320/1/6
f 321/1/2 322/1/2 323/1/2 324/1/2
f 325/1/3 326/1/3 327/1/3 328/1/3
f 329/1/5 330/1/5 331/1/5 332/1/5
f 333/1/6 334/1/6 335/1/6 336/1/6
f 337/2/1 338/2/1 339/2/1 340/2/1
f 341/2/5 342/2/5 343/2/5 344/2/5
f 345/2/6 346/2/6 347/2/6 348/2/6
f 349/2/5 350/2/5 351/2/5 352/2/5
f 353/2/6 354/2/6 355/2/6 356/2/6
f 357/2/5 358/2/5 359/2/5 360/2/5
f 361/2/6 362/2/6 363/2/6 364/2/6
f 365/2/5 366/2/5 367/2/5 368/2/5
f 369/2/6 370/2/6 371/2/6 372/2/6
f 373/2/5 374/2/5 375/2/5 376/2/5
f 377/2/6 378/2/6 379/2/6 380/2/6
f 381/2/5 382/2/5 383/2/5 384/2/5
f 385/2/6 386/2/6 387/2/6 388/2/6
f 389/2/5 390/2/5 391/2/5 392/2/5
f 393/2/6 394/2/6 395/2/6 396/2/6
f 397/2/5 398/2/5 399/2/5 400/2/5
f 401/2/6 402/2/6 403/2/6 404/2/6
f 405/2/5 406/2/5 407/2/5 408/2/5
f 409/2/6 410/2/6 411/2/6 412/2/6
f 413/2/5 414/2/5 415/2/5 416/2/5
f 417/2/6 418/2/6 419/2/6 420/2/6
f 421/2/5 422/2/5 423/2/5 424/2/5
f 425/2/6 426/2/6 427/2/6 428/2/6
f 429/2/5 430/2/5 431/2/5 432/2/5
f 433/2/6 434/2/6 435/2/6 436/2/6
f 437/1/3 438/1/3 439/1/3 440/1/3
f 441/1/5 442/1/5 443/1/5 444/1/5
f 445/1/6 446/1/6 447/1/6 448/1/6
f 449/1/3 450/1/3 451/1/3 452/1/3
f 453/1/5 454/1/5 455/1/5 456/1/5
f 457/1/6 458/1/6 459/1/6 460/1/6
f 461/1/3 462/1/3 463/1/3 464/1/3
f 465/1/5 466/1/5 467/1/5 468/1/5
f 469/1/6 470/1/6 471/1/6 472/1/6
f 473/1/2 474/1/2 475/1/2 476/1/2
f 477/1/3 478/1/3 479/1/3 480/1/3
f 481/1/5 482/1/5 483/1/5 484/1/5
f 485/1/6 486/1/6 487/1/6 488/1/6
f 489/2/1 490/2/1 491/2/1 492/2/1
f 493/2/5 494/2/5 495/2/5 496/2/5
f 497/2/6 498/2/6 499/2/6 500/2/6
f 501/2/5 502/2/5 503/2/5 504/2/5
f 505/2/6 506/2/6 507/2/6 508/2/6
f 509/2/5 510/2/5 511/2/5 512/2/5
f 513/2/6 514/2/6 515/2/6 516/2/6
f 517/2/5 518/2/5 519/2/5 520/2/5
f 521/2/6 522/2/6 523/2/6 524/2/6
f 525/2/5 526/2/5 527/2/5 528/2/5
f 529/2/6 530/2/6 531/2/6 532/2/6
f 533/2/5 534/2/5 535/2/5 536/2/5
f 537/2/6 538/2/6 539/2/6 540/2/6
f 541/2/5 542/2/5 543/2/5 544/2/5
f 545/2/6 546/2/6 547/2/6 548/2/6
f 549/2/5 550/2/5 551/2/5 552/2/5
f 553/2/6 554/2/6 555/2/6 556/2/6
f 557/2/5 558/2/5 559/2/5 560/2/5
f 561/2/6 562/2/6 563/2/6 564/2/6
f 565/2/5 566/2/5 567/2/5 568/2/5
f 569/2/6 570/2/6 571/2/6 572/2/6
f 573/2/5 574/2/5 575/2/5 576/2/5
f 577/2/6 578/2/6 579/2/6 580/2/6
f 581/2/5 582/2/5 583/2/5 584/2/5
f 585/2/6 586/2/6 587/2/6 588/2/6
f 589/2/5 590/2/5 591/2/5 592/2/5
f 593/2/6 594/2/6 595/2/6 596/2/6
f 597/2/5 598/2/5 599/2/5 600/2/5
f 601/2/6 602/2/6 603/2/6 604/2/6
f 605/2/5 606/2/5 607/2/5 608/2/5
f 609/2/6 610/2/6 611/2/6 612/2/6
f 613/2/5 614/2/5 615/2/5 616/2/5
f 617/2/6 618/2/6 619/2/6 620/2/6
f 621/1/3 622/1/3 623/1/3 624/1/3
f 625/1/5 626/1/5 627/1/5 628/1/5
f 629/1/6 630/1/6 631/1/6 632/1/6
f 633/1/3 634/1/3 635/1/3 636/1/3
f 637/1/5 638/1/5 639/1/5 640/1/5
f 641/1/6 642/1/6 643/1/6 644/1/6
f 645/1/3 646/1/3 647/1/3 648/1/3
f 649/1/5 650/1/5 651/1/5 652/1/5
f 653/1/6 654/1/6 655/1/6 656/1/6
f 657/1/3 658/1/3 659/1/3 660/1/3
f 661/1/5 662/1/5 663/1/5 664/1/5
f 665/1/6 666/1/6 667/1/6 668/1/6
f 669/1/3 670/1/3 671/1/3 672/1/3
f 673/1/5 674/1/5 675/1/5 676/1/5
f 677/1/6 678/1/6 679/1/6 680/1/6
f 681/1/3 682/1/3 683/1/3 684/1/3
f 685/1/5 686/1/5 687/1/5 688/1/5
f 689/1/6 690/1/6 691/1/6 692/1/6
f 693/1/3 694/1/3 695/1/3 696/1/3
f 697/1/5 698/1/5 699/1/5 700/1/5
f 701/1/6 702/1/6 703/1/6 704/1/6
f 705/1/3 706/1/3 707/1/3 708/1/3
f 709/1/5 710/1/5 711/1/5 712/1/5
f 713/1/6 714/1/6 715/1/6 716/1/6
f 717/1/3 718/1/3 719/1/3 720/1/3
f 721/1/5 722/1/5 723/1/5 724/1/5
f 725/1/6 726/1/6 727/1/6 728/1/6
f 729/1/3 730/1/3 731/1/3 732/1/3
f 733/1/5 734/1/5 735/1/5 736/1/5
f 737/1/6 738/1/6 739/1/6 740/1/6
f 741/1/2 742/1/2 743/1/2 744/1/2
f 745/1/3 746/1/3 747/1/3 748/1/3
f 749/1/5 750/1/5 751/1/5 752/1/5
f 753/1/6 754/1/6 755/1/6 756/1/6
f 757/2/1 758/2/1 759/2/1 760/2/1
f 761/2/5 762/2/5 763/2/5 764/2/5
f 765/2/6 766/2/6 767/2/6 768/2/6
f 769/2/5 770/2/5 771/2/5 772/2/5
f 773/2/6 774/2/6 775/2/6 776/2/6
f 777/2/5 778/2/5 779/2/5 780/2/5
f 781/2/6 782/2/6 783/2/6 784/2/6
f 785/2/5 786/2/5 787/2/5 788/2/5
f 789/2/6 790/2/6 791/2/6 792/2/6
f 793/2/5 794/2/5 795/2/5 796/2/5
f 797/2/6 798/2/6 799/2/6 800/2/6
f 801/2/5 802/2/5 803/2/5 804/2/5
f 805/2/6 806/2/6 807/2/6 808/2/6
f 809/2/5 810/2/5 811/2/5 812/2/5
f 813/2/6 814/2/6 815/2/6 816/2/6
f 817/2/5 818/2/5 819/2/5 820/2/5
f 821/2/6 822/2/6 823/2/6 824/2/6
f 825/2/5 826/2/5 827/2/5 828/2/5
f 829/2/6 830/2/6 831/2/6 832/2/6
f 833/2/5 834/2/5 835/2/5 836/2/5
f 837/2/6 838/2/6 839/2/6 840/2/6
f 841/2/5 842/2/5 843/2/5 844/2/5
f 845/2/6 846/2/6 847/2/6 848/2/6
f 849/2/5 850/2/5 851/2/5 852/2/5
f 853/2/6 854/2/6 855/2/6 856/2/6
f 857/2/5 858/2/5 859/2/5 860/2/5
f 861/2/6 862/2/6 863/2/6 864/2/6
f 865/2/5 866/2/5 867/2/5 868/2/5
f 869/2/6 870/2/6 871/2/6 872/2/6
f 873/2/5 874/2/5 875/2/5 876/2/5
f 877/2/6 878/2/6 879/2/6 880/2/6
f 881/2/5 882/2/5 883/2/5 884/2/5
f 885/2/6 886/2/6 887/2/6 888/2/6
f 889/2/5 890/2/5 891/2/5 892/2/5
f 893/2/6 894/2/6 895/2/6 896/2/6
f 897/2/5 898/2/5 899/2/5 900/2/5
f 901/2/6 902/2/6 903/2/6 904/2/6
f 905/2/5 906/2/5 907/2/5 908/2/5
f 909/2/6 910/2/6 911/2/6 912/2/6
f 913/2/5 914/2/5 915/2/5 916/2/5
f 917/2/6 918/2/6 919/2/6 920/2/6
f 921/2/5 922/2/5 923/2/5 924/2/5
f 925/2/6 926/2/6 927/2/6 928/2/6
f 929/2/5 930/2/5 931/2/5 932/2/5
f 933/2/6 934/2/6 935/2/6 936/2/6
f 937/2/5 938/2/5 939/2/5 940/2/5
f 941/2/6 942/2/6 943/2/6 944/2/6
f 945/2/5 946/2/5 947/2/5 948/2/5
f 949/2/6 950/2/6 951/2/6 952/2/6
f 953/2/5 954/2/5 955/2/5 956/2/5
f 957/2/6 958/2/6 959/2/6 960/2/6
f 961/2/5 962/2/5 963/2/5 964/2/5
f 965/2/6 966/2/6 967/2/6 968/2/6
f 969/2/5 970/2/5 971/2/5 972/2/5
f 973/2/6 974/2/6 975/2/6 976/2/6
f 977/1/2 978/1/2 979/1/2 980/1/2
f 981/1/3 982/1/3 983/1/3 984/1/3
f 985/1/4 986/1/4 987/1/4 988/1/4
f 989/1/5 990/1/5 991/1/5 992/1/5
f 993/1/6 994/1/6 995/1/6 996/1/6
f 997/2/1 998/2/1 999/2/1 1000/2/1
f 1001/2/5 1002/2/5 1003/2/5 1004/2/5
f 1005/2/6 1006/2/6 1007/2/6 1008/2/6
f 1009/2/5 1010/2/5 1011/2/5 1012/2/5
f 1013/2/6 1014/2/6 1015/2/6 1016/2/6
f 1017/2/5 1018/2/5 1019/2/5 1020/2/5
f 1021/2/6 1022/2/6 1023/2/6 1024/2/6
f 1025/2/5 1026/2/5 1027/2/5 1028/2/5
f 1029/2/6 1030/2/6 1031/2/6 1032/2/6
f 1033/2/5 1034/2/5 1035/2/5 1036/2/5
f 1037/2/6 1038/2/6 1039/2/6 1040/2/6
f 1041/2/5 1042/2/5 1043/2/5 1044/2/5
f 1045/2/6 1046/2/6 1047/2/6 1048/2/6
f 1049/2/5 1050/2/5 1051/2/5 1052/2/5
f 1053/2/6 1054/2/6 1055/2/6 1056/2/6
f 1057/2/5 1058/2/5 1059/2/5 1060/2/5
f 1061/2/6 1062/2/6 1063/2/6 1064/2/6
f 1065/2/5 1066/2/5 1067/2/5 1068/2/5
f 1069/2/6 1070/2/6 1071/2/6 1072/2/6
f 1073/2/5 1074/2/5 1075/2/5 1076/2/5
f 1077/2/6 1078/2/6 1079/2/6 1080/2/6
f 1081/2/5 1082/2/5 1083/2/5 1084/2/5
f 1085/2/6 1086/2/6 1087/2/6 1088/2/6
f 1089/2/5 1090/2/5 1091/2/5 1092/2/5
f 1093/2/6 1094/2/6 1095/2/6 1096/2/6
f 1097/2/5 1098/2/5 1099/2/5 1100/2/5
f 1101/2/6 1102/2/6 1103/2/6 1104/2/6
f 1105/2/5 1106/2/5 1107/2/5 1108/2/5
f 1109/2/6 1110/2/6 1111/2/6 1112/2/6
f 1113/2/5 1114/2/5 1115/2/5 1116/2/5
f 1117/2/6 1118/2/6 1119/2/6 1120/2/6
f 1121/2/5 1122/2/5 1123/2/5 1124/2/5
f 1125/2/6 1126/2/6 1127/2/6 1128/2/6
f 1129/2/5 1130/2/5 1131/2/5 1132/2/5
f 1133/2/6 1134/2/6 1135/2/6 1136/2/6
f 1137/2/5 1138/2/5 1139/2/5 1140/2/5
f 1141/2/6 1142/2/6 1143/2/6 1144/2/6
f 1145/2/5 1146/2/5 1147/2/5 1148/2/5
f 1149/2/6 1150/2/6 1151/2/6 1152/2/6
f 1153/2/5 1154/2/5 1155/2/5 1156/2/5
f 1157/2/6 1158/2/6 1159/2/6 1160/2/6
f 1161/2/5 1162/2/5 1163/2/5 1164/2/5
f 1165/2/6 1166/2/6 1167/2/6 1168/2/6
f 1169/2/5 1170/2/5 1171/2/5 1172/2/5
f 1173/2/6 1174/2/6 1175/2/6 1176/2/6
f 1177/1/4 1178/1/4 1179/1/4 1180/1/4
f 1181/1/5 1182/1/5 1183/1/5 1184/1/5
f 1185/1/6 1186/1/6 1187/1/6 1188/1/6
f 1189/1/4 1190/1/4 1191/1/4 1192/1/4
f 1193/1/5 1194/1/5 1195/1/5 1196/1/5
f 1197/1/6 1198/1/6 1199/1/6 1200/1/6
f 1201/1/4 1202/1/4 1203/1/4 1204/1/4
f 1205/1/5 1206/1/5 1207/1/5 1208/1/5
f 1209/1/6 1210/1/6 1211/1/6 1212/1/6
f 1213/1/4 1214/1/4 1215/1/4 1216/1/4
f 1217/1/5 1218/1/5 1219/1/5 1220/1/5
f 1221/1/6 1222/1/6 1223/1/6 1224/1/6
f 1225/1/2 1226/1/2 1227/1/2 1228/1/2
f 1229/1/4 1230/1/4 1231/1/4 1232/1/4
f 1233/1/5 1234/1/5 1235/1/5 1236/1/5
f 1237/1/6 1238/1/6 1239/1/6 1240/1/6
f 1241/2/1 1242/2/1 1243/2/1 1244/2/1
f 1245/2/5 1246/2/5 1247/2/5 1248/2/5
f 1249/2/6 1250/2/6 1251/2/6 1252/2/6
f 1253/2/5 1254/2/5 1255/2/5 1256/2/5
f 1257/2/6 1258/2/6 1259/2/6 1260/2/6
f 1261/2/5 1262/2/5 1263/2/5 1264/2/5
f 1265/2/6 1266/2/6 1267/2/6 1268/2/6
f 1269/2/5 1270/2/5 1271/2/5 1272/2/5
f 1273/2/6 1274/2/6 1275/2/6 1276/2/6
f 1277/2/5 1278/2/5 1279/2/5 1280/2/5
f 1281/2/6 1282/2/6 1283/2/6 1284/2/6
f 1285/2/5 1286/2/5 1287/2/5 1288/2/5
f 1289/2/6 1290/2/6 1291/2/6 1292/2/6
f 1293/2/5 1294/2/5 1295/2/5 1296/2/5
f 1297/2/6 1298/2/6 1299/2/6 1300/2/6
f 1301/2/5 1302/2/5 1303/2/5 1304/2/5
f 1305/2/6 1306/2/6 1307/2/6 1308/2/6
f 1309/2/5 1310/2/5 1311/2/5 1312/2/5
f 1313/2/6 1314/2/6 1315/2/6 1316/2/6
f 1317/2/5 1318/2/5 1319/2/5 1320/2/5
f 1321/2/6 1322/2/6 1323/2/6 1324/2/6
f 1325/2/5 1326/2/5 1327/2/5 1328/2/5
f 1329/2/6 1330/2/6 1331/2/6 1332/2/6
f 1333/2/5 1334/2/5 1335/2/5 1336/2/5
f 1337/2/6 1338/2/6 1339/2/6 1340/2/6
f 1341/2/5 1342/2/5 1343/2/5 1344/2/5
f 1345/2/6 1346/2/6 1347/2/6 1348/2/6
f 1349/2/5 1350/2/5 1351/2/5 1352/2/5
f 1353/2/6 1354/2/6 1355/2/6 1356/2/6
f 1357/2/5 1358/2/5 1359/2/5 1360/2/5
f 1361/2/6 1362/2/6 1363/2/6 1364/2/6
f 1365/2/5 1366/2/5 1367/2/5 1368/2/5
f 1369/2/6 1370/2/6 1371/2/6 1372/2/6
f 1373/1/4 1374/1/4 1375/1/4 1376/1/4
f 1377/1/5 1378/1/5 1379/1/5 1380/1/5
f 1381/1/6 1382/1/6 1383/1/6 1384/1/6
f 1385/1/4 1386/1/4 1387/1/4 1388/1/4
f 1389/1/5 1390/1/5 1391/1/5 1392/1/5
f 1393/1/6 1394/1/6 1395/1/6 1396/1/6
f 1397/1/4 1398/1/4 1399/1/4 1400/1/4
f 1401/1/5 1402/1/5 1403/1/5 1404/1/5
f 1405/1/6 1406/1/6 1407/1/6 1408/1/6
f 1409/1/4 1410/1/4 1411/1/4 1412/1/4
f 1413/1/5 1414/1/5 1415/1/5 1416/1/5
f 1417/1/6 1418/1/6 1419/1/6 1420/1/6
f 1421/1/4 1422/1/4 1423/1/4 1424/1/4
f 1425/1/5 1426/1/5 1427/1/5 1428/1/5
f 1429/1/6 1430/1/6 1431/1/6 1432/1/6
f 1433/1/2 1434/1/2 1435/1/2 1436/1/2
f 1437/1/4 1438/1/4 1439/1/4 1440/1/4
f 1441/1/5 1442/1/5 1443/1/5 1444/1/5
f 1445/1/6 1446/1/6 1447/1/6 1448/1/6
f 1449/2/1 1450/2/1 1451/2/1 1452/2/1
f 1453/2/5 1454/2/5 1455/2/5 1456/2/5
f 1457/2/6 1458/2/6 1459/2/6 1460/2/6
f 1461/2/5 1462/2/5 1463/2/5 1464/2/5
f 1465/2/6 1466/2/6 1467/2/6 1468/2/6
f 1469/2/5 1470/2/5 1471/2/5 1472/2/5
f 1473/2/6 1474/2/6 1475/2/6 1476/2/6
f 1477/2/5 1478/2/5 1479/2/5 1480/2/5
f 1481/2/6 1482/2/6 1483/2/6 1484/2/6
f 1485/2/5 1486/2/5 1487/2/5 1488/2/5
f 1489/2/6 1490/2/6 1491/2/6 1492/2/6
f 1493/2/5 1494/2/5 1495/2/5 1496/2/5
f 1497/2/6 1498/2/6 1499/2/6 1500/2/6
f 1501/2/5 1502/2/5 1503/2/5 1504/2/5
f 1505/2/6 1506/2/6 1507/2/6 1508/2/6
f 1509/2/5 1510/2/5 1511/2/5 1512/2/5
f 1513/2/6 1514/2/6 1515/2/6 1516/2/6
f 1517/2/5 1518/2/5 1519/2/5 1520/2/5
f 1521/2/6 1522/2/6 1523/2/6 1524/2/6
f 1525/2/5 1526/2/5 1527/2/5 1528/2/5
f 1529/2/6 1530/2/6 1531/2/6 1532/2/6
f 1533/2/5 1534/2/5 1535/2/5 1536/2/5
f 1537/2/6 1538/2/6 1539/2/6 1540/2/6
f 1541/1/4 1542/1/4 1543/1/4 1544/1/4
f 1545/1/5 1546/1/5 1547/1/5 1548/1/5
f 1549/1/6 1550/1/6 1551/1/6 1552/1/6
f 1553/1/4 1554/1/4 1555/1/4 1556/1/4
f 1557/1/5 1558/1/5 1559/1/5 1560/1/5
f 1561/1/6 1562/1/6 1563/1/6 1564/1/6
f 1565/1/4 1566/1/4 1567/1/4 1568/1/4
f 1569/1/5 1570/1/5 1571/1/5 1572/1/5
f 1573/1/6 1574/1/6 1575/1/6 1576/1/6
f 1577/1/4 1578/1/4 1579/1/4 1580/1/4
f 1581/1/5 1582/1/5 1583/1/5 1584/1/5
f 1585/1/6 1586/1/6 1587/1/6 1588/1/6
f 1589/1/2 1590/1/2 1591/1/2 1592/1/2
f 1593/1/4 1594/1/4 1595/1/4 1596/1/4
f 1597/1/5 1598/1/5 1599/1/5 1600/1/5
f 1601/1/6 1602/1/6 1603/1/6 1604/1/6
f 1605/2/1 1606/2/1 1607/2/1 1608/2/1
f 1609/2/5 1610/2/5 1611/2/5 1612/2/5
f 1613/2/6 1614/2/6 1615/2/6 1616/2/6
f 1617/2/5 1618/2/5 1619/2/5 1620/2/5
f 1621/2/6 1622/2/6 1623/2/6 1624/2/6
f 1625/2/5 1626/2/5 1627/2/5 1628/2/5
f 1629/2/6 1630/2/6 1631/2/6 1632/2/6
f 1633/2/5 1634/2/5 1635/2/5 1636/2/5
f 1637/2/6 1638/2/6 1639/2/6 1640/2/6
f 1641/2/5 1642/2/5 1643/2/5 1644/2/5
f 1645/2/6 1646/2/6 1647/2/6 1648/2/6
f 1649/1/4 1650/1/4 1651/1/4 1652/1/4
f 1653/1/5 1654/1/5 1655/1/5 1656/1/5
f 1657/1/6 1658/1/6 1659/1/6 1660/1/6
f 1661/1/4 1662/1/4 1663/1/4 1664/1/4
f 1665/1/5 1666/1/5 1667/1/5 1668/1/5
f 1669/1/6 1670/1/6 1671/1/6 1672/1/6
f 1673/1/4 1674/1/4 1675/1/4 1676/1/4
f 1677/1/5 1678/1/5 1679/1/5 1680/1/5
f 1681/1/6 1682/1/6 1683/1/6 1684/1/6
f 1685/1/4 1686/1/4 1687/1/4 1688/1/4
f 1689/1/5 1690/1/5 1691/1/5 1692/1/5
f 1693/1/6 1694/1/6 1695/1/6 1696/1/6
f 1697/1/4 1698/1/4 1699/1/4 1700/1/4
f 1701/1/5 1702/1/5 1703/1/5 1704/1/5
f 1705/1/6 1706/1/6 1707/1/6 1708/1/6
f 1709/1/2 1710/1/2 1711/1/2 1712/1/2
f 1713/1/4 1714/1/4 1715/1/4 1716/1/4
f 1717/1/5 1718/1/5 1719/1/5 1720/1/5
f 1721/1/6 1722/1/6 1723/1/6 1724/1/6
f 1725/1/1 1726/1/1 1727/1/1 1728/1/1
f 1729/1/4 1730/1/4 1731/1/4 1732/1/4
f 1733/1/5 1734/1/5 1735/1/5 1736/1/5
f 1737/1/6 1738/1/6 1739/1/6 1740/1/6
f 1741/1/4 1742/1/4 1743/1/4 1744/1/4
f 1745/1/5 1746/1/5 1747/1/5 1748/1/5
f 1749/1/6 1750/1/6 1751/1/6 1752/1/6
f 1753/1/4 1754/1/4 1755/1/4 1756/1/4
f 1757/1/5 1758/1/5 1759/1/5 1760/1/5
f 1761/1/6 1762/1/6 1763/1/6 1764/1/6
f 1765/1/4 1766/1/4 1767/1/4 1768/1/4
f 1769/1/5 1770/1/5 1771/1/5 1772/1/5
f 1773/1/6 1774/1/6 1775/1/6 1776/1/6
f 1777/1/2 1778/1/2 1779/1/2 1780/1/2
f 1781/1/4 1782/1/4 1783/1/4 1784/1/4
f 1785/1/5 1786/1/5 1787/1/5 1788/1/5
f 1789/1/6 1790/1/6 1791/1/6 1792/1/6

