# generated by vox_to_obj_exporter
# scale=0.1 center=false ground=false y_up=true

mtllib Fight_748.mtl
usemtl palette

# normals
vn -1 0 0
vn 1 0 0
vn 0 1 0
vn 0 -1 0
vn 0 0 1
vn 0 0 -1

# texcoords
vt 0.142578125 0.5

# verts
v 8 13 -2.6
v 8 12.9 -2.6
v 8 12.9 -2.5
v 8 13 -2.5
v 8 13 -2.6
v 8 13 -2.5
v 8.1 13 -2.5
v 8.1 13 -2.6
v 8 13 -2.5
v 8 12.9 -2.5
v 8.1 12.9 -2.5
v 8.1 13 -2.5
v 8.1 13 -2.6
v 8.1 12.9 -2.6
v 8 12.9 -2.6
v 8 13 -2.6
v 8.1 13 -2.6
v 8.1 13 -2.5
v 8.2 13 -2.5
v 8.2 13 -2.6
v 8.1 13 -2.5
v 8.1 12.9 -2.5
v 8.2 12.9 -2.5
v 8.2 13 -2.5
v 8.2 13 -2.6
v 8.2 12.9 -2.6
v 8.1 12.9 -2.6
v 8.1 13 -2.6
v 8.2 13 -2.6
v 8.2 13 -2.5
v 8.3 13 -2.5
v 8.3 13 -2.6
v 8.2 13 -2.5
v 8.2 12.9 -2.5
v 8.3 12.9 -2.5
v 8.3 13 -2.5
v 8.3 13 -2.6
v 8.3 12.9 -2.6
v 8.2 12.9 -2.6
v 8.2 13 -2.6
v 8.3 13 -2.6
v 8.3 13 -2.5
v 8.4 13 -2.5
v 8.4 13 -2.6
v 8.3 13 -2.5
v 8.3 12.9 -2.5
v 8.4 12.9 -2.5
v 8.4 13 -2.5
v 8.4 13 -2.6
v 8.4 12.9 -2.6
v 8.3 12.9 -2.6
v 8.3 13 -2.6
v 8.4 13 -2.6
v 8.4 13 -2.5
v 8.5 13 -2.5
v 8.5 13 -2.6
v 8.4 13 -2.5
v 8.4 12.9 -2.5
v 8.5 12.9 -2.5
v 8.5 13 -2.5
v 8.5 13 -2.6
v 8.5 12.9 -2.6
v 8.4 12.9 -2.6
v 8.4 13 -2.6
v 8.5 13 -2.6
v 8.5 13 -2.5
v 8.6 13 -2.5
v 8.6 13 -2.6
v 8.5 13 -2.5
v 8.5 12.9 -2.5
v 8.6 12.9 -2.5
v 8.6 13 -2.5
v 8.6 13 -2.6
v 8.6 12.9 -2.6
v 8.5 12.9 -2.6
v 8.5 13 -2.6
v 8.6 13 -2.6
v 8.6 13 -2.5
v 8.7 13 -2.5
v 8.7 13 -2.6
v 8.6 13 -2.5
v 8.6 12.9 -2.5
v 8.7 12.9 -2.5
v 8.7 13 -2.5
v 8.7 13 -2.6
v 8.7 12.9 -2.6
v 8.6 12.9 -2.6
v 8.6 13 -2.6
v 8.7 13 -2.6
v 8.7 13 -2.5
v 8.8 13 -2.5
v 8.8 13 -2.6
v 8.7 13 -2.5
v 8.7 12.9 -2.5
v 8.8 12.9 -2.5
v 8.8 13 -2.5
v 8.8 13 -2.6
v 8.8 12.9 -2.6
v 8.7 12.9 -2.6
v 8.7 13 -2.6
v 8.9 13 -2.5
v 8.9 12.9 -2.5
v 8.9 12.9 -2.6
v 8.9 13 -2.6
v 8.8 13 -2.6
v 8.8 13 -2.5
v 8.9 13 -2.5
v 8.9 13 -2.6
v 8.8 13 -2.5
v 8.8 12.9 -2.5
v 8.9 12.9 -2.5
v 8.9 13 -2.5
v 8.9 13 -2.6
v 8.9 12.9 -2.6
v 8.8 12.9 -2.6
v 8.8 13 -2.6
v 7.8 12.9 -2.6
v 7.8 12.8 -2.6
v 7.8 12.8 -2.5
v 7.8 12.9 -2.5
v 7.8 12.9 -2.6
v 7.8 12.9 -2.5
v 7.9 12.9 -2.5
v 7.9 12.9 -2.6
v 7.8 12.9 -2.5
v 7.8 12.8 -2.5
v 7.9 12.8 -2.5
v 7.9 12.9 -2.5
v 7.9 12.9 -2.6
v 7.9 12.8 -2.6
v 7.8 12.8 -2.6
v 7.8 12.9 -2.6
v 7.9 12.9 -2.6
v 7.9 12.9 -2.5
v 8 12.9 -2.5
v 8 12.9 -2.6
v 7.9 12.9 -2.5
v 7.9 12.8 -2.5
v 8 12.8 -2.5
v 8 12.9 -2.5
v 8 12.9 -2.6
v 8 12.8 -2.6
v 7.9 12.8 -2.6
v 7.9 12.9 -2.6
v 8 12.9 -2.5
v 8 12.8 -2.5
v 8.1 12.8 -2.5
v 8.1 12.9 -2.5
v 8.1 12.9 -2.6
v 8.1 12.8 -2.6
v 8 12.8 -2.6
v 8 12.9 -2.6
v 8.1 12.9 -2.5
v 8.1 12.8 -2.5
v 8.2 12.8 -2.5
v 8.2 12.9 -2.5
v 8.2 12.9 -2.6
v 8.2 12.8 -2.6
v 8.1 12.8 -2.6
v 8.1 12.9 -2.6
v 8.2 12.9 -2.5
v 8.2 12.8 -2.5
v 8.3 12.8 -2.5
v 8.3 12.9 -2.5
v 8.3 12.9 -2.6
v 8.3 12.8 -2.6
v 8.2 12.8 -2.6
v 8.2 12.9 -2.6
v 8.3 12.9 -2.5
v 8.3 12.8 -2.5
v 8.4 12.8 -2.5
v 8.4 12.9 -2.5
v 8.4 12.9 -2.6
v 8.4 12.8 -2.6
v 8.3 12.8 -2.6
v 8.3 12.9 -2.6
v 8.4 12.9 -2.5
v 8.4 12.8 -2.5
v 8.5 12.8 -2.5
v 8.5 12.9 -2.5
v 8.5 12.9 -2.6
v 8.5 12.8 -2.6
v 8.4 12.8 -2.6
v 8.4 12.9 -2.6
v 8.5 12.9 -2.5
v 8.5 12.8 -2.5
v 8.6 12.8 -2.5
v 8.6 12.9 -2.5
v 8.6 12.9 -2.6
v 8.6 12.8 -2.6
v 8.5 12.8 -2.6
v 8.5 12.9 -2.6
v 8.6 12.9 -2.5
v 8.6 12.8 -2.5
v 8.7 12.8 -2.5
v 8.7 12.9 -2.5
v 8.7 12.9 -2.6
v 8.7 12.8 -2.6
v 8.6 12.8 -2.6
v 8.6 12.9 -2.6
v 8.7 12.9 -2.5
v 8.7 12.8 -2.5
v 8.8 12.8 -2.5
v 8.8 12.9 -2.5
v 8.8 12.9 -2.6
v 8.8 12.8 -2.6
v 8.7 12.8 -2.6
v 8.7 12.9 -2.6
v 8.8 12.9 -2.5
v 8.8 12.8 -2.5
v 8.9 12.8 -2.5
v 8.9 12.9 -2.5
v 8.9 12.9 -2.6
v 8.9 12.8 -2.6
v 8.8 12.8 -2.6
v 8.8 12.9 -2.6
v 9 12.9 -2.5
v 9 12.8 -2.5
v 9 12.8 -2.6
v 9 12.9 -2.6
v 8.9 12.9 -2.6
v 8.9 12.9 -2.5
v 9 12.9 -2.5
v 9 12.9 -2.6
v 8.9 12.9 -2.5
v 8.9 12.8 -2.5
v 9 12.8 -2.5
v 9 12.9 -2.5
v 9 12.9 -2.6
v 9 12.8 -2.6
v 8.9 12.8 -2.6
v 8.9 12.9 -2.6
v 7.6 12.8 -2.6
v 7.6 12.7 -2.6
v 7.6 12.7 -2.5
v 7.6 12.8 -2.5
v 7.6 12.8 -2.6
v 7.6 12.8 -2.5
v 7.7 12.8 -2.5
v 7.7 12.8 -2.6
v 7.6 12.8 -2.5
v 7.6 12.7 -2.5
v 7.7 12.7 -2.5
v 7.7 12.8 -2.5
v 7.7 12.8 -2.6
v 7.7 12.7 -2.6
v 7.6 12.7 -2.6
v 7.6 12.8 -2.6
v 7.7 12.8 -2.6
v 7.7 12.8 -2.5
v 7.8 12.8 -2.5
v 7.8 12.8 -2.6
v 7.7 12.8 -2.5
v 7.7 12.7 -2.5
v 7.8 12.7 -2.5
v 7.8 12.8 -2.5
v 7.8 12.8 -2.6
v 7.8 12.7 -2.6
v 7.7 12.7 -2.6
v 7.7 12.8 -2.6
v 7.8 12.8 -2.5
v 7.8 12.7 -2.5
v 7.9 12.7 -2.5
v 7.9 12.8 -2.5
v 7.9 12.8 -2.6
v 7.9 12.7 -2.6
v 7.8 12.7 -2.6
v 7.8 12.8 -2.6
v 7.9 12.8 -2.5
v 7.9 12.7 -2.5
v 8 12.7 -2.5
v 8 12.8 -2.5
v 8 12.8 -2.6
v 8 12.7 -2.6
v 7.9 12.7 -2.6
v 7.9 12.8 -2.6
v 8 12.8 -2.5
v 8 12.7 -2.5
v 8.1 12.7 -2.5
v 8.1 12.8 -2.5
v 8.1 12.8 -2.6
v 8.1 12.7 -2.6
v 8 12.7 -2.6
v 8 12.8 -2.6
v 8.1 12.8 -2.5
v 8.1 12.7 -2.5
v 8.2 12.7 -2.5
v 8.2 12.8 -2.5
v 8.2 12.8 -2.6
v 8.2 12.7 -2.6
v 8.1 12.7 -2.6
v 8.1 12.8 -2.6
v 8.2 12.8 -2.5
v 8.2 12.7 -2.5
v 8.3 12.7 -2.5
v 8.3 12.8 -2.5
v 8.3 12.8 -2.6
v 8.3 12.7 -2.6
v 8.2 12.7 -2.6
v 8.2 12.8 -2.6
v 8.3 12.8 -2.5
v 8.3 12.7 -2.5
v 8.4 12.7 -2.5
v 8.4 12.8 -2.5
v 8.4 12.8 -2.6
v 8.4 12.7 -2.6
v 8.3 12.7 -2.6
v 8.3 12.8 -2.6
v 8.4 12.8 -2.5
v 8.4 12.7 -2.5
v 8.5 12.7 -2.5
v 8.5 12.8 -2.5
v 8.5 12.8 -2.6
v 8.5 12.7 -2.6
v 8.4 12.7 -2.6
v 8.4 12.8 -2.6
v 8.5 12.8 -2.5
v 8.5 12.7 -2.5
v 8.6 12.7 -2.5
v 8.6 12.8 -2.5
v 8.6 12.8 -2.6
v 8.6 12.7 -2.6
v 8.5 12.7 -2.6
v 8.5 12.8 -2.6
v 8.6 12.8 -2.5
v 8.6 12.7 -2.5
v 8.7 12.7 -2.5
v 8.7 12.8 -2.5
v 8.7 12.8 -2.6
v 8.7 12.7 -2.6
v 8.6 12.7 -2.6
v 8.6 12.8 -2.6
v 8.7 12.8 -2.5
v 8.7 12.7 -2.5
v 8.8 12.7 -2.5
v 8.8 12.8 -2.5
v 8.8 12.8 -2.6
v 8.8 12.7 -2.6
v 8.7 12.7 -2.6
v 8.7 12.8 -2.6
v 8.8 12.8 -2.5
v 8.8 12.7 -2.5
v 8.9 12.7 -2.5
v 8.9 12.8 -2.5
v 8.9 12.8 -2.6
v 8.9 12.7 -2.6
v 8.8 12.7 -2.6
v 8.8 12.8 -2.6
v 8.9 12.8 -2.5
v 8.9 12.7 -2.5
v 9 12.7 -2.5
v 9 12.8 -2.5
v 9 12.8 -2.6
v 9 12.7 -2.6
v 8.9 12.7 -2.6
v 8.9 12.8 -2.6
v 9.1 12.8 -2.5
v 9.1 12.7 -2.5
v 9.1 12.7 -2.6
v 9.1 12.8 -2.6
v 9 12.8 -2.6
v 9 12.8 -2.5
v 9.1 12.8 -2.5
v 9.1 12.8 -2.6
v 9 12.8 -2.5
v 9 12.7 -2.5
v 9.1 12.7 -2.5
v 9.1 12.8 -2.5
v 9.1 12.8 -2.6
v 9.1 12.7 -2.6
v 9 12.7 -2.6
v 9 12.8 -2.6
v 7.6 12.7 -2.6
v 7.6 12.6 -2.6
v 7.6 12.6 -2.5
v 7.6 12.7 -2.5
v 7.6 12.7 -2.5
v 7.6 12.6 -2.5
v 7.7 12.6 -2.5
v 7.7 12.7 -2.5
v 7.7 12.7 -2.6
v 7.7 12.6 -2.6
v 7.6 12.6 -2.6
v 7.6 12.7 -2.6
v 7.7 12.7 -2.5
v 7.7 12.6 -2.5
v 7.8 12.6 -2.5
v 7.8 12.7 -2.5
v 7.8 12.7 -2.6
v 7.8 12.6 -2.6
v 7.7 12.6 -2.6
v 7.7 12.7 -2.6
v 7.8 12.7 -2.5
v 7.8 12.6 -2.5
v 7.9 12.6 -2.5
v 7.9 12.7 -2.5
v 7.9 12.7 -2.6
v 7.9 12.6 -2.6
v 7.8 12.6 -2.6
v 7.8 12.7 -2.6
v 7.9 12.7 -2.5
v 7.9 12.6 -2.5
v 8 12.6 -2.5
v 8 12.7 -2.5
v 8 12.7 -2.6
v 8 12.6 -2.6
v 7.9 12.6 -2.6
v 7.9 12.7 -2.6
v 8 12.7 -2.5
v 8 12.6 -2.5
v 8.1 12.6 -2.5
v 8.1 12.7 -2.5
v 8.1 12.7 -2.6
v 8.1 12.6 -2.6
v 8 12.6 -2.6
v 8 12.7 -2.6
v 8.1 12.7 -2.5
v 8.1 12.6 -2.5
v 8.2 12.6 -2.5
v 8.2 12.7 -2.5
v 8.2 12.7 -2.6
v 8.2 12.6 -2.6
v 8.1 12.6 -2.6
v 8.1 12.7 -2.6
v 8.2 12.7 -2.5
v 8.2 12.6 -2.5
v 8.3 12.6 -2.5
v 8.3 12.7 -2.5
v 8.3 12.7 -2.6
v 8.3 12.6 -2.6
v 8.2 12.6 -2.6
v 8.2 12.7 -2.6
v 8.3 12.7 -2.5
v 8.3 12.6 -2.5
v 8.4 12.6 -2.5
v 8.4 12.7 -2.5
v 8.4 12.7 -2.6
v 8.4 12.6 -2.6
v 8.3 12.6 -2.6
v 8.3 12.7 -2.6
v 8.4 12.7 -2.5
v 8.4 12.6 -2.5
v 8.5 12.6 -2.5
v 8.5 12.7 -2.5
v 8.5 12.7 -2.6
v 8.5 12.6 -2.6
v 8.4 12.6 -2.6
v 8.4 12.7 -2.6
v 8.5 12.7 -2.5
v 8.5 12.6 -2.5
v 8.6 12.6 -2.5
v 8.6 12.7 -2.5
v 8.6 12.7 -2.6
v 8.6 12.6 -2.6
v 8.5 12.6 -2.6
v 8.5 12.7 -2.6
v 8.6 12.7 -2.5
v 8.6 12.6 -2.5
v 8.7 12.6 -2.5
v 8.7 12.7 -2.5
v 8.7 12.7 -2.6
v 8.7 12.6 -2.6
v 8.6 12.6 -2.6
v 8.6 12.7 -2.6
v 8.7 12.7 -2.5
v 8.7 12.6 -2.5
v 8.8 12.6 -2.5
v 8.8 12.7 -2.5
v 8.8 12.7 -2.6
v 8.8 12.6 -2.6
v 8.7 12.6 -2.6
v 8.7 12.7 -2.6
v 8.8 12.7 -2.5
v 8.8 12.6 -2.5
v 8.9 12.6 -2.5
v 8.9 12.7 -2.5
v 8.9 12.7 -2.6
v 8.9 12.6 -2.6
v 8.8 12.6 -2.6
v 8.8 12.7 -2.6
v 8.9 12.7 -2.5
v 8.9 12.6 -2.5
v 9 12.6 -2.5
v 9 12.7 -2.5
v 9 12.7 -2.6
v 9 12.6 -2.6
v 8.9 12.6 -2.6
v 8.9 12.7 -2.6
v 9.1 12.7 -2.5
v 9.1 12.6 -2.5
v 9.1 12.6 -2.6
v 9.1 12.7 -2.6
v 9 12.7 -2.5
v 9 12.6 -2.5
v 9.1 12.6 -2.5
v 9.1 12.7 -2.5
v 9.1 12.7 -2.6
v 9.1 12.6 -2.6
v 9 12.6 -2.6
v 9 12.7 -2.6
v 7.5 12.6 -2.6
v 7.5 12.5 -2.6
v 7.5 12.5 -2.5
v 7.5 12.6 -2.5
v 7.5 12.6 -2.6
v 7.5 12.6 -2.5
v 7.6 12.6 -2.5
v 7.6 12.6 -2.6
v 7.5 12.6 -2.5
v 7.5 12.5 -2.5
v 7.6 12.5 -2.5
v 7.6 12.6 -2.5
v 7.6 12.6 -2.6
v 7.6 12.5 -2.6
v 7.5 12.5 -2.6
v 7.5 12.6 -2.6
v 7.6 12.6 -2.5
v 7.6 12.5 -2.5
v 7.7 12.5 -2.5
v 7.7 12.6 -2.5
v 7.7 12.6 -2.6
v 7.7 12.5 -2.6
v 7.6 12.5 -2.6
v 7.6 12.6 -2.6
v 7.7 12.6 -2.5
v 7.7 12.5 -2.5
v 7.8 12.5 -2.5
v 7.8 12.6 -2.5
v 7.8 12.6 -2.6
v 7.8 12.5 -2.6
v 7.7 12.5 -2.6
v 7.7 12.6 -2.6
v 7.8 12.6 -2.5
v 7.8 12.5 -2.5
v 7.9 12.5 -2.5
v 7.9 12.6 -2.5
v 7.9 12.6 -2.6
v 7.9 12.5 -2.6
v 7.8 12.5 -2.6
v 7.8 12.6 -2.6
v 7.9 12.6 -2.5
v 7.9 12.5 -2.5
v 8 12.5 -2.5
v 8 12.6 -2.5
v 8 12.6 -2.6
v 8 12.5 -2.6
v 7.9 12.5 -2.6
v 7.9 12.6 -2.6
v 8 12.6 -2.5
v 8 12.5 -2.5
v 8.1 12.5 -2.5
v 8.1 12.6 -2.5
v 8.1 12.6 -2.6
v 8.1 12.5 -2.6
v 8 12.5 -2.6
v 8 12.6 -2.6
v 8.1 12.6 -2.5
v 8.1 12.5 -2.5
v 8.2 12.5 -2.5
v 8.2 12.6 -2.5
v 8.2 12.6 -2.6
v 8.2 12.5 -2.6
v 8.1 12.5 -2.6
v 8.1 12.6 -2.6
v 8.2 12.6 -2.5
v 8.2 12.5 -2.5
v 8.3 12.5 -2.5
v 8.3 12.6 -2.5
v 8.3 12.6 -2.6
v 8.3 12.5 -2.6
v 8.2 12.5 -2.6
v 8.2 12.6 -2.6
v 8.3 12.6 -2.5
v 8.3 12.5 -2.5
v 8.4 12.5 -2.5
v 8.4 12.6 -2.5
v 8.4 12.6 -2.6
v 8.4 12.5 -2.6
v 8.3 12.5 -2.6
v 8.3 12.6 -2.6
v 8.4 12.6 -2.5
v 8.4 12.5 -2.5
v 8.5 12.5 -2.5
v 8.5 12.6 -2.5
v 8.5 12.6 -2.6
v 8.5 12.5 -2.6
v 8.4 12.5 -2.6
v 8.4 12.6 -2.6
v 8.5 12.6 -2.5
v 8.5 12.5 -2.5
v 8.6 12.5 -2.5
v 8.6 12.6 -2.5
v 8.6 12.6 -2.6
v 8.6 12.5 -2.6
v 8.5 12.5 -2.6
v 8.5 12.6 -2.6
v 8.6 12.6 -2.5
v 8.6 12.5 -2.5
v 8.7 12.5 -2.5
v 8.7 12.6 -2.5
v 8.7 12.6 -2.6
v 8.7 12.5 -2.6
v 8.6 12.5 -2.6
v 8.6 12.6 -2.6
v 8.7 12.6 -2.5
v 8.7 12.5 -2.5
v 8.8 12.5 -2.5
v 8.8 12.6 -2.5
v 8.8 12.6 -2.6
v 8.8 12.5 -2.6
v 8.7 12.5 -2.6
v 8.7 12.6 -2.6
v 8.8 12.6 -2.5
v 8.8 12.5 -2.5
v 8.9 12.5 -2.5
v 8.9 12.6 -2.5
v 8.9 12.6 -2.6
v 8.9 12.5 -2.6
v 8.8 12.5 -2.6
v 8.8 12.6 -2.6
v 8.9 12.6 -2.5
v 8.9 12.5 -2.5
v 9 12.5 -2.5
v 9 12.6 -2.5
v 9 12.6 -2.6
v 9 12.5 -2.6
v 8.9 12.5 -2.6
v 8.9 12.6 -2.6
v 9 12.6 -2.5
v 9 12.5 -2.5
v 9.1 12.5 -2.5
v 9.1 12.6 -2.5
v 9.1 12.6 -2.6
v 9.1 12.5 -2.6
v 9 12.5 -2.6
v 9 12.6 -2.6
v 9.2 12.6 -2.5
v 9.2 12.5 -2.5
v 9.2 12.5 -2.6
v 9.2 12.6 -2.6
v 9.1 12.6 -2.6
v 9.1 12.6 -2.5
v 9.2 12.6 -2.5
v 9.2 12.6 -2.6
v 9.1 12.6 -2.5
v 9.1 12.5 -2.5
v 9.2 12.5 -2.5
v 9.2 12.6 -2.5
v 9.2 12.6 -2.6
v 9.2 12.5 -2.6
v 9.1 12.5 -2.6
v 9.1 12.6 -2.6
v 7.5 12.5 -2.6
v 7.5 12.4 -2.6
v 7.5 12.4 -2.5
v 7.5 12.5 -2.5
v 7.5 12.5 -2.5
v 7.5 12.4 -2.5
v 7.6 12.4 -2.5
v 7.6 12.5 -2.5
v 7.6 12.5 -2.6
v 7.6 12.4 -2.6
v 7.5 12.4 -2.6
v 7.5 12.5 -2.6
v 7.6 12.5 -2.5
v 7.6 12.4 -2.5
v 7.7 12.4 -2.5
v 7.7 12.5 -2.5
v 7.7 12.5 -2.6
v 7.7 12.4 -2.6
v 7.6 12.4 -2.6
v 7.6 12.5 -2.6
v 7.7 12.5 -2.5
v 7.7 12.4 -2.5
v 7.8 12.4 -2.5
v 7.8 12.5 -2.5
v 7.8 12.5 -2.6
v 7.8 12.4 -2.6
v 7.7 12.4 -2.6
v 7.7 12.5 -2.6
v 7.8 12.5 -2.5
v 7.8 12.4 -2.5
v 7.9 12.4 -2.5
v 7.9 12.5 -2.5
v 7.9 12.5 -2.6
v 7.9 12.4 -2.6
v 7.8 12.4 -2.6
v 7.8 12.5 -2.6
v 7.9 12.5 -2.5
v 7.9 12.4 -2.5
v 8 12.4 -2.5
v 8 12.5 -2.5
v 8 12.5 -2.6
v 8 12.4 -2.6
v 7.9 12.4 -2.6
v 7.9 12.5 -2.6
v 8 12.5 -2.5
v 8 12.4 -2.5
v 8.1 12.4 -2.5
v 8.1 12.5 -2.5
v 8.1 12.5 -2.6
v 8.1 12.4 -2.6
v 8 12.4 -2.6
v 8 12.5 -2.6
v 8.1 12.5 -2.5
v 8.1 12.4 -2.5
v 8.2 12.4 -2.5
v 8.2 12.5 -2.5
v 8.2 12.5 -2.6
v 8.2 12.4 -2.6
v 8.1 12.4 -2.6
v 8.1 12.5 -2.6
v 8.2 12.5 -2.5
v 8.2 12.4 -2.5
v 8.3 12.4 -2.5
v 8.3 12.5 -2.5
v 8.3 12.5 -2.6
v 8.3 12.4 -2.6
v 8.2 12.4 -2.6
v 8.2 12.5 -2.6
v 8.3 12.5 -2.5
v 8.3 12.4 -2.5
v 8.4 12.4 -2.5
v 8.4 12.5 -2.5
v 8.4 12.5 -2.6
v 8.4 12.4 -2.6
v 8.3 12.4 -2.6
v 8.3 12.5 -2.6
v 8.4 12.5 -2.5
v 8.4 12.4 -2.5
v 8.5 12.4 -2.5
v 8.5 12.5 -2.5
v 8.5 12.5 -2.6
v 8.5 12.4 -2.6
v 8.4 12.4 -2.6
v 8.4 12.5 -2.6
v 8.5 12.5 -2.5
v 8.5 12.4 -2.5
v 8.6 12.4 -2.5
v 8.6 12.5 -2.5
v 8.6 12.5 -2.6
v 8.6 12.4 -2.6
v 8.5 12.4 -2.6
v 8.5 12.5 -2.6
v 8.6 12.5 -2.5
v 8.6 12.4 -2.5
v 8.7 12.4 -2.5
v 8.7 12.5 -2.5
v 8.7 12.5 -2.6
v 8.7 12.4 -2.6
v 8.6 12.4 -2.6
v 8.6 12.5 -2.6
v 8.7 12.5 -2.5
v 8.7 12.4 -2.5
v 8.8 12.4 -2.5
v 8.8 12.5 -2.5
v 8.8 12.5 -2.6
v 8.8 12.4 -2.6
v 8.7 12.4 -2.6
v 8.7 12.5 -2.6
v 8.8 12.5 -2.5
v 8.8 12.4 -2.5
v 8.9 12.4 -2.5
v 8.9 12.5 -2.5
v 8.9 12.5 -2.6
v 8.9 12.4 -2.6
v 8.8 12.4 -2.6
v 8.8 12.5 -2.6
v 8.9 12.5 -2.5
v 8.9 12.4 -2.5
v 9 12.4 -2.5
v 9 12.5 -2.5
v 9 12.5 -2.6
v 9 12.4 -2.6
v 8.9 12.4 -2.6
v 8.9 12.5 -2.6
v 9 12.5 -2.5
v 9 12.4 -2.5
v 9.1 12.4 -2.5
v 9.1 12.5 -2.5
v 9.1 12.5 -2.6
v 9.1 12.4 -2.6
v 9 12.4 -2.6
v 9 12.5 -2.6
v 9.2 12.5 -2.5
v 9.2 12.4 -2.5
v 9.2 12.4 -2.6
v 9.2 12.5 -2.6
v 9.1 12.5 -2.5
v 9.1 12.4 -2.5
v 9.2 12.4 -2.5
v 9.2 12.5 -2.5
v 9.2 12.5 -2.6
v 9.2 12.4 -2.6
v 9.1 12.4 -2.6
v 9.1 12.5 -2.6
v 7.4 12.4 -2.6
v 7.4 12.3 -2.6
v 7.4 12.3 -2.5
v 7.4 12.4 -2.5
v 7.4 12.4 -2.6
v 7.4 12.4 -2.5
v 7.5 12.4 -2.5
v 7.5 12.4 -2.6
v 7.4 12.4 -2.5
v 7.4 12.3 -2.5
v 7.5 12.3 -2.5
v 7.5 12.4 -2.5
v 7.5 12.4 -2.6
v 7.5 12.3 -2.6
v 7.4 12.3 -2.6
v 7.4 12.4 -2.6
v 7.5 12.4 -2.5
v 7.5 12.3 -2.5
v 7.6 12.3 -2.5
v 7.6 12.4 -2.5
v 7.6 12.4 -2.6
v 7.6 12.3 -2.6
v 7.5 12.3 -2.6
v 7.5 12.4 -2.6
v 7.6 12.4 -2.5
v 7.6 12.3 -2.5
v 7.7 12.3 -2.5
v 7.7 12.4 -2.5
v 7.7 12.4 -2.6
v 7.7 12.3 -2.6
v 7.6 12.3 -2.6
v 7.6 12.4 -2.6
v 7.7 12.4 -2.5
v 7.7 12.3 -2.5
v 7.8 12.3 -2.5
v 7.8 12.4 -2.5
v 7.8 12.4 -2.6
v 7.8 12.3 -2.6
v 7.7 12.3 -2.6
v 7.7 12.4 -2.6
v 7.8 12.4 -2.5
v 7.8 12.3 -2.5
v 7.9 12.3 -2.5
v 7.9 12.4 -2.5
v 7.9 12.4 -2.6
v 7.9 12.3 -2.6
v 7.8 12.3 -2.6
v 7.8 12.4 -2.6
v 7.9 12.4 -2.5
v 7.9 12.3 -2.5
v 8 12.3 -2.5
v 8 12.4 -2.5
v 8 12.4 -2.6
v 8 12.3 -2.6
v 7.9 12.3 -2.6
v 7.9 12.4 -2.6
v 8 12.4 -2.5
v 8 12.3 -2.5
v 8.1 12.3 -2.5
v 8.1 12.4 -2.5
v 8.1 12.4 -2.6
v 8.1 12.3 -2.6
v 8 12.3 -2.6
v 8 12.4 -2.6
v 8.1 12.4 -2.5
v 8.1 12.3 -2.5
v 8.2 12.3 -2.5
v 8.2 12.4 -2.5
v 8.2 12.4 -2.6
v 8.2 12.3 -2.6
v 8.1 12.3 -2.6
v 8.1 12.4 -2.6
v 8.2 12.4 -2.5
v 8.2 12.3 -2.5
v 8.3 12.3 -2.5
v 8.3 12.4 -2.5
v 8.3 12.4 -2.6
v 8.3 12.3 -2.6
v 8.2 12.3 -2.6
v 8.2 12.4 -2.6
v 8.3 12.4 -2.5
v 8.3 12.3 -2.5
v 8.4 12.3 -2.5
v 8.4 12.4 -2.5
v 8.4 12.4 -2.6
v 8.4 12.3 -2.6
v 8.3 12.3 -2.6
v 8.3 12.4 -2.6
v 8.4 12.4 -2.5
v 8.4 12.3 -2.5
v 8.5 12.3 -2.5
v 8.5 12.4 -2.5
v 8.5 12.4 -2.6
v 8.5 12.3 -2.6
v 8.4 12.3 -2.6
v 8.4 12.4 -2.6
v 8.5 12.4 -2.5
v 8.5 12.3 -2.5
v 8.6 12.3 -2.5
v 8.6 12.4 -2.5
v 8.6 12.4 -2.6
v 8.6 12.3 -2.6
v 8.5 12.3 -2.6
v 8.5 12.4 -2.6
v 8.6 12.4 -2.5
v 8.6 12.3 -2.5
v 8.7 12.3 -2.5
v 8.7 12.4 -2.5
v 8.7 12.4 -2.6
v 8.7 12.3 -2.6
v 8.6 12.3 -2.6
v 8.6 12.4 -2.6
v 8.7 12.4 -2.5
v 8.7 12.3 -2.5
v 8.8 12.3 -2.5
v 8.8 12.4 -2.5
v 8.8 12.4 -2.6
v 8.8 12.3 -2.6
v 8.7 12.3 -2.6
v 8.7 12.4 -2.6
v 8.8 12.4 -2.5
v 8.8 12.3 -2.5
v 8.9 12.3 -2.5
v 8.9 12.4 -2.5
v 8.9 12.4 -2.6
v 8.9 12.3 -2.6
v 8.8 12.3 -2.6
v 8.8 12.4 -2.6
v 8.9 12.4 -2.5
v 8.9 12.3 -2.5
v 9 12.3 -2.5
v 9 12.4 -2.5
v 9 12.4 -2.6
v 9 12.3 -2.6
v 8.9 12.3 -2.6
v 8.9 12.4 -2.6
v 9 12.4 -2.5
v 9 12.3 -2.5
v 9.1 12.3 -2.5
v 9.1 12.4 -2.5
v 9.1 12.4 -2.6
v 9.1 12.3 -2.6
v 9 12.3 -2.6
v 9 12.4 -2.6
v 9.1 12.4 -2.5
v 9.1 12.3 -2.5
v 9.2 12.3 -2.5
v 9.2 12.4 -2.5
v 9.2 12.4 -2.6
v 9.2 12.3 -2.6
v 9.1 12.3 -2.6
v 9.1 12.4 -2.6
v 9.3 12.4 -2.5
v 9.3 12.3 -2.5
v 9.3 12.3 -2.6
v 9.3 12.4 -2.6
v 9.2 12.4 -2.6
v 9.2 12.4 -2.5
v 9.3 12.4 -2.5
v 9.3 12.4 -2.6
v 9.2 12.4 -2.5
v 9.2 12.3 -2.5
v 9.3 12.3 -2.5
v 9.3 12.4 -2.5
v 9.3 12.4 -2.6
v 9.3 12.3 -2.6
v 9.2 12.3 -2.6
v 9.2 12.4 -2.6
v 7.4 12.3 -2.6
v 7.4 12.2 -2.6
v 7.4 12.2 -2.5
v 7.4 12.3 -2.5
v 7.4 12.3 -2.5
v 7.4 12.2 -2.5
v 7.5 12.2 -2.5
v 7.5 12.3 -2.5
v 7.5 12.3 -2.6
v 7.5 12.2 -2.6
v 7.4 12.2 -2.6
v 7.4 12.3 -2.6
v 7.5 12.3 -2.5
v 7.5 12.2 -2.5
v 7.6 12.2 -2.5
v 7.6 12.3 -2.5
v 7.6 12.3 -2.6
v 7.6 12.2 -2.6
v 7.5 12.2 -2.6
v 7.5 12.3 -2.6
v 7.6 12.3 -2.5
v 7.6 12.2 -2.5
v 7.7 12.2 -2.5
v 7.7 12.3 -2.5
v 7.7 12.3 -2.6
v 7.7 12.2 -2.6
v 7.6 12.2 -2.6
v 7.6 12.3 -2.6
v 7.7 12.3 -2.5
v 7.7 12.2 -2.5
v 7.8 12.2 -2.5
v 7.8 12.3 -2.5
v 7.8 12.3 -2.6
v 7.8 12.2 -2.6
v 7.7 12.2 -2.6
v 7.7 12.3 -2.6
v 7.8 12.3 -2.5
v 7.8 12.2 -2.5
v 7.9 12.2 -2.5
v 7.9 12.3 -2.5
v 7.9 12.3 -2.6
v 7.9 12.2 -2.6
v 7.8 12.2 -2.6
v 7.8 12.3 -2.6
v 7.9 12.3 -2.5
v 7.9 12.2 -2.5
v 8 12.2 -2.5
v 8 12.3 -2.5
v 8 12.3 -2.6
v 8 12.2 -2.6
v 7.9 12.2 -2.6
v 7.9 12.3 -2.6
v 8 12.3 -2.5
v 8 12.2 -2.5
v 8.1 12.2 -2.5
v 8.1 12.3 -2.5
v 8.1 12.3 -2.6
v 8.1 12.2 -2.6
v 8 12.2 -2.6
v 8 12.3 -2.6
v 8.1 12.3 -2.5
v 8.1 12.2 -2.5
v 8.2 12.2 -2.5
v 8.2 12.3 -2.5
v 8.2 12.3 -2.6
v 8.2 12.2 -2.6
v 8.1 12.2 -2.6
v 8.1 12.3 -2.6
v 8.2 12.3 -2.5
v 8.2 12.2 -2.5
v 8.3 12.2 -2.5
v 8.3 12.3 -2.5
v 8.3 12.3 -2.6
v 8.3 12.2 -2.6
v 8.2 12.2 -2.6
v 8.2 12.3 -2.6
v 8.3 12.3 -2.5
v 8.3 12.2 -2.5
v 8.4 12.2 -2.5
v 8.4 12.3 -2.5
v 8.4 12.3 -2.6
v 8.4 12.2 -2.6
v 8.3 12.2 -2.6
v 8.3 12.3 -2.6
v 8.4 12.3 -2.5
v 8.4 12.2 -2.5
v 8.5 12.2 -2.5
v 8.5 12.3 -2.5
v 8.5 12.3 -2.6
v 8.5 12.2 -2.6
v 8.4 12.2 -2.6
v 8.4 12.3 -2.6
v 8.5 12.3 -2.5
v 8.5 12.2 -2.5
v 8.6 12.2 -2.5
v 8.6 12.3 -2.5
v 8.6 12.3 -2.6
v 8.6 12.2 -2.6
v 8.5 12.2 -2.6
v 8.5 12.3 -2.6
v 8.6 12.3 -2.5
v 8.6 12.2 -2.5
v 8.7 12.2 -2.5
v 8.7 12.3 -2.5
v 8.7 12.3 -2.6
v 8.7 12.2 -2.6
v 8.6 12.2 -2.6
v 8.6 12.3 -2.6
v 8.7 12.3 -2.5
v 8.7 12.2 -2.5
v 8.8 12.2 -2.5
v 8.8 12.3 -2.5
v 8.8 12.3 -2.6
v 8.8 12.2 -2.6
v 8.7 12.2 -2.6
v 8.7 12.3 -2.6
v 8.8 12.3 -2.5
v 8.8 12.2 -2.5
v 8.9 12.2 -2.5
v 8.9 12.3 -2.5
v 8.9 12.3 -2.6
v 8.9 12.2 -2.6
v 8.8 12.2 -2.6
v 8.8 12.3 -2.6
v 8.9 12.3 -2.5
v 8.9 12.2 -2.5
v 9 12.2 -2.5
v 9 12.3 -2.5
v 9 12.3 -2.6
v 9 12.2 -2.6
v 8.9 12.2 -2.6
v 8.9 12.3 -2.6
v 9 12.3 -2.5
v 9 12.2 -2.5
v 9.1 12.2 -2.5
v 9.1 12.3 -2.5
v 9.1 12.3 -2.6
v 9.1 12.2 -2.6
v 9 12.2 -2.6
v 9 12.3 -2.6
v 9.1 12.3 -2.5
v 9.1 12.2 -2.5
v 9.2 12.2 -2.5
v 9.2 12.3 -2.5
v 9.2 12.3 -2.6
v 9.2 12.2 -2.6
v 9.1 12.2 -2.6
v 9.1 12.3 -2.6
v 9.3 12.3 -2.5
v 9.3 12.2 -2.5
v 9.3 12.2 -2.6
v 9.3 12.3 -2.6
v 9.2 12.3 -2.5
v 9.2 12.2 -2.5
v 9.3 12.2 -2.5
v 9.3 12.3 -2.5
v 9.3 12.3 -2.6
v 9.3 12.2 -2.6
v 9.2 12.2 -2.6
v 9.2 12.3 -2.6
v 7.4 12.2 -2.6
v 7.4 12.1 -2.6
v 7.4 12.1 -2.5
v 7.4 12.2 -2.5
v 7.4 12.2 -2.5
v 7.4 12.1 -2.5
v 7.5 12.1 -2.5
v 7.5 12.2 -2.5
v 7.5 12.2 -2.6
v 7.5 12.1 -2.6
v 7.4 12.1 -2.6
v 7.4 12.2 -2.6
v 7.5 12.2 -2.5
v 7.5 12.1 -2.5
v 7.6 12.1 -2.5
v 7.6 12.2 -2.5
v 7.6 12.2 -2.6
v 7.6 12.1 -2.6
v 7.5 12.1 -2.6
v 7.5 12.2 -2.6
v 7.6 12.2 -2.5
v 7.6 12.1 -2.5
v 7.7 12.1 -2.5
v 7.7 12.2 -2.5
v 7.7 12.2 -2.6
v 7.7 12.1 -2.6
v 7.6 12.1 -2.6
v 7.6 12.2 -2.6
v 7.7 12.2 -2.5
v 7.7 12.1 -2.5
v 7.8 12.1 -2.5
v 7.8 12.2 -2.5
v 7.8 12.2 -2.6
v 7.8 12.1 -2.6
v 7.7 12.1 -2.6
v 7.7 12.2 -2.6
v 7.8 12.2 -2.5
v 7.8 12.1 -2.5
v 7.9 12.1 -2.5
v 7.9 12.2 -2.5
v 7.9 12.2 -2.6
v 7.9 12.1 -2.6
v 7.8 12.1 -2.6
v 7.8 12.2 -2.6
v 7.9 12.2 -2.5
v 7.9 12.1 -2.5
v 8 12.1 -2.5
v 8 12.2 -2.5
v 8 12.2 -2.6
v 8 12.1 -2.6
v 7.9 12.1 -2.6
v 7.9 12.2 -2.6
v 8 12.2 -2.5
v 8 12.1 -2.5
v 8.1 12.1 -2.5
v 8.1 12.2 -2.5
v 8.1 12.2 -2.6
v 8.1 12.1 -2.6
v 8 12.1 -2.6
v 8 12.2 -2.6
v 8.1 12.2 -2.5
v 8.1 12.1 -2.5
v 8.2 12.1 -2.5
v 8.2 12.2 -2.5
v 8.2 12.2 -2.6
v 8.2 12.1 -2.6
v 8.1 12.1 -2.6
v 8.1 12.2 -2.6
v 8.2 12.2 -2.5
v 8.2 12.1 -2.5
v 8.3 12.1 -2.5
v 8.3 12.2 -2.5
v 8.3 12.2 -2.6
v 8.3 12.1 -2.6
v 8.2 12.1 -2.6
v 8.2 12.2 -2.6
v 8.3 12.2 -2.5
v 8.3 12.1 -2.5
v 8.4 12.1 -2.5
v 8.4 12.2 -2.5
v 8.4 12.2 -2.6
v 8.4 12.1 -2.6
v 8.3 12.1 -2.6
v 8.3 12.2 -2.6
v 8.4 12.2 -2.5
v 8.4 12.1 -2.5
v 8.5 12.1 -2.5
v 8.5 12.2 -2.5
v 8.5 12.2 -2.6
v 8.5 12.1 -2.6
v 8.4 12.1 -2.6
v 8.4 12.2 -2.6
v 8.5 12.2 -2.5
v 8.5 12.1 -2.5
v 8.6 12.1 -2.5
v 8.6 12.2 -2.5
v 8.6 12.2 -2.6
v 8.6 12.1 -2.6
v 8.5 12.1 -2.6
v 8.5 12.2 -2.6
v 8.6 12.2 -2.5
v 8.6 12.1 -2.5
v 8.7 12.1 -2.5
v 8.7 12.2 -2.5
v 8.7 12.2 -2.6
v 8.7 12.1 -2.6
v 8.6 12.1 -2.6
v 8.6 12.2 -2.6
v 8.7 12.2 -2.5
v 8.7 12.1 -2.5
v 8.8 12.1 -2.5
v 8.8 12.2 -2.5
v 8.8 12.2 -2.6
v 8.8 12.1 -2.6
v 8.7 12.1 -2.6
v 8.7 12.2 -2.6
v 8.8 12.2 -2.5
v 8.8 12.1 -2.5
v 8.9 12.1 -2.5
v 8.9 12.2 -2.5
v 8.9 12.2 -2.6
v 8.9 12.1 -2.6
v 8.8 12.1 -2.6
v 8.8 12.2 -2.6
v 8.9 12.2 -2.5
v 8.9 12.1 -2.5
v 9 12.1 -2.5
v 9 12.2 -2.5
v 9 12.2 -2.6
v 9 12.1 -2.6
v 8.9 12.1 -2.6
v 8.9 12.2 -2.6
v 9 12.2 -2.5
v 9 12.1 -2.5
v 9.1 12.1 -2.5
v 9.1 12.2 -2.5
v 9.1 12.2 -2.6
v 9.1 12.1 -2.6
v 9 12.1 -2.6
v 9 12.2 -2.6
v 9.1 12.2 -2.5
v 9.1 12.1 -2.5
v 9.2 12.1 -2.5
v 9.2 12.2 -2.5
v 9.2 12.2 -2.6
v 9.2 12.1 -2.6
v 9.1 12.1 -2.6
v 9.1 12.2 -2.6
v 9.3 12.2 -2.5
v 9.3 12.1 -2.5
v 9.3 12.1 -2.6
v 9.3 12.2 -2.6
v 9.2 12.2 -2.5
v 9.2 12.1 -2.5
v 9.3 12.1 -2.5
v 9.3 12.2 -2.5
v 9.3 12.2 -2.6
v 9.3 12.1 -2.6
v 9.2 12.1 -2.6
v 9.2 12.2 -2.6
v 7.4 12.1 -2.6
v 7.4 12 -2.6
v 7.4 12 -2.5
v 7.4 12.1 -2.5
v 7.4 12.1 -2.5
v 7.4 12 -2.5
v 7.5 12 -2.5
v 7.5 12.1 -2.5
v 7.5 12.1 -2.6
v 7.5 12 -2.6
v 7.4 12 -2.6
v 7.4 12.1 -2.6
v 7.5 12.1 -2.5
v 7.5 12 -2.5
v 7.6 12 -2.5
v 7.6 12.1 -2.5
v 7.6 12.1 -2.6
v 7.6 12 -2.6
v 7.5 12 -2.6
v 7.5 12.1 -2.6
v 7.6 12.1 -2.5
v 7.6 12 -2.5
v 7.7 12 -2.5
v 7.7 12.1 -2.5
v 7.7 12.1 -2.6
v 7.7 12 -2.6
v 7.6 12 -2.6
v 7.6 12.1 -2.6
v 7.7 12.1 -2.5
v 7.7 12 -2.5
v 7.8 12 -2.5
v 7.8 12.1 -2.5
v 7.8 12.1 -2.6
v 7.8 12 -2.6
v 7.7 12 -2.6
v 7.7 12.1 -2.6
v 7.8 12.1 -2.5
v 7.8 12 -2.5
v 7.9 12 -2.5
v 7.9 12.1 -2.5
v 7.9 12.1 -2.6
v 7.9 12 -2.6
v 7.8 12 -2.6
v 7.8 12.1 -2.6
v 7.9 12.1 -2.5
v 7.9 12 -2.5
v 8 12 -2.5
v 8 12.1 -2.5
v 8 12.1 -2.6
v 8 12 -2.6
v 7.9 12 -2.6
v 7.9 12.1 -2.6
v 8 12.1 -2.5
v 8 12 -2.5
v 8.1 12 -2.5
v 8.1 12.1 -2.5
v 8.1 12.1 -2.6
v 8.1 12 -2.6
v 8 12 -2.6
v 8 12.1 -2.6
v 8.1 12.1 -2.5
v 8.1 12 -2.5
v 8.2 12 -2.5
v 8.2 12.1 -2.5
v 8.2 12.1 -2.6
v 8.2 12 -2.6
v 8.1 12 -2.6
v 8.1 12.1 -2.6
v 8.2 12.1 -2.5
v 8.2 12 -2.5
v 8.3 12 -2.5
v 8.3 12.1 -2.5
v 8.3 12.1 -2.6
v 8.3 12 -2.6
v 8.2 12 -2.6
v 8.2 12.1 -2.6
v 8.3 12.1 -2.5
v 8.3 12 -2.5
v 8.4 12 -2.5
v 8.4 12.1 -2.5
v 8.4 12.1 -2.6
v 8.4 12 -2.6
v 8.3 12 -2.6
v 8.3 12.1 -2.6
v 8.4 12.1 -2.5
v 8.4 12 -2.5
v 8.5 12 -2.5
v 8.5 12.1 -2.5
v 8.5 12.1 -2.6
v 8.5 12 -2.6
v 8.4 12 -2.6
v 8.4 12.1 -2.6
v 8.5 12.1 -2.5
v 8.5 12 -2.5
v 8.6 12 -2.5
v 8.6 12.1 -2.5
v 8.6 12.1 -2.6
v 8.6 12 -2.6
v 8.5 12 -2.6
v 8.5 12.1 -2.6
v 8.6 12.1 -2.5
v 8.6 12 -2.5
v 8.7 12 -2.5
v 8.7 12.1 -2.5
v 8.7 12.1 -2.6
v 8.7 12 -2.6
v 8.6 12 -2.6
v 8.6 12.1 -2.6
v 8.7 12.1 -2.5
v 8.7 12 -2.5
v 8.8 12 -2.5
v 8.8 12.1 -2.5
v 8.8 12.1 -2.6
v 8.8 12 -2.6
v 8.7 12 -2.6
v 8.7 12.1 -2.6
v 8.8 12.1 -2.5
v 8.8 12 -2.5
v 8.9 12 -2.5
v 8.9 12.1 -2.5
v 8.9 12.1 -2.6
v 8.9 12 -2.6
v 8.8 12 -2.6
v 8.8 12.1 -2.6
v 8.9 12.1 -2.5
v 8.9 12 -2.5
v 9 12 -2.5
v 9 12.1 -2.5
v 9 12.1 -2.6
v 9 12 -2.6
v 8.9 12 -2.6
v 8.9 12.1 -2.6
v 9 12.1 -2.5
v 9 12 -2.5
v 9.1 12 -2.5
v 9.1 12.1 -2.5
v 9.1 12.1 -2.6
v 9.1 12 -2.6
v 9 12 -2.6
v 9 12.1 -2.6
v 9.1 12.1 -2.5
v 9.1 12 -2.5
v 9.2 12 -2.5
v 9.2 12.1 -2.5
v 9.2 12.1 -2.6
v 9.2 12 -2.6
v 9.1 12 -2.6
v 9.1 12.1 -2.6
v 9.3 12.1 -2.5
v 9.3 12 -2.5
v 9.3 12 -2.6
v 9.3 12.1 -2.6
v 9.2 12.1 -2.5
v 9.2 12 -2.5
v 9.3 12 -2.5
v 9.3 12.1 -2.5
v 9.3 12.1 -2.6
v 9.3 12 -2.6
v 9.2 12 -2.6
v 9.2 12.1 -2.6
v 7.4 12 -2.6
v 7.4 11.9 -2.6
v 7.4 11.9 -2.5
v 7.4 12 -2.5
v 7.4 11.9 -2.5
v 7.4 11.9 -2.6
v 7.5 11.9 -2.6
v 7.5 11.9 -2.5
v 7.4 12 -2.5
v 7.4 11.9 -2.5
v 7.5 11.9 -2.5
v 7.5 12 -2.5
v 7.5 12 -2.6
v 7.5 11.9 -2.6
v 7.4 11.9 -2.6
v 7.4 12 -2.6
v 7.5 12 -2.5
v 7.5 11.9 -2.5
v 7.6 11.9 -2.5
v 7.6 12 -2.5
v 7.6 12 -2.6
v 7.6 11.9 -2.6
v 7.5 11.9 -2.6
v 7.5 12 -2.6
v 7.6 12 -2.5
v 7.6 11.9 -2.5
v 7.7 11.9 -2.5
v 7.7 12 -2.5
v 7.7 12 -2.6
v 7.7 11.9 -2.6
v 7.6 11.9 -2.6
v 7.6 12 -2.6
v 7.7 12 -2.5
v 7.7 11.9 -2.5
v 7.8 11.9 -2.5
v 7.8 12 -2.5
v 7.8 12 -2.6
v 7.8 11.9 -2.6
v 7.7 11.9 -2.6
v 7.7 12 -2.6
v 7.8 12 -2.5
v 7.8 11.9 -2.5
v 7.9 11.9 -2.5
v 7.9 12 -2.5
v 7.9 12 -2.6
v 7.9 11.9 -2.6
v 7.8 11.9 -2.6
v 7.8 12 -2.6
v 7.9 12 -2.5
v 7.9 11.9 -2.5
v 8 11.9 -2.5
v 8 12 -2.5
v 8 12 -2.6
v 8 11.9 -2.6
v 7.9 11.9 -2.6
v 7.9 12 -2.6
v 8 12 -2.5
v 8 11.9 -2.5
v 8.1 11.9 -2.5
v 8.1 12 -2.5
v 8.1 12 -2.6
v 8.1 11.9 -2.6
v 8 11.9 -2.6
v 8 12 -2.6
v 8.1 12 -2.5
v 8.1 11.9 -2.5
v 8.2 11.9 -2.5
v 8.2 12 -2.5
v 8.2 12 -2.6
v 8.2 11.9 -2.6
v 8.1 11.9 -2.6
v 8.1 12 -2.6
v 8.2 12 -2.5
v 8.2 11.9 -2.5
v 8.3 11.9 -2.5
v 8.3 12 -2.5
v 8.3 12 -2.6
v 8.3 11.9 -2.6
v 8.2 11.9 -2.6
v 8.2 12 -2.6
v 8.3 12 -2.5
v 8.3 11.9 -2.5
v 8.4 11.9 -2.5
v 8.4 12 -2.5
v 8.4 12 -2.6
v 8.4 11.9 -2.6
v 8.3 11.9 -2.6
v 8.3 12 -2.6
v 8.4 12 -2.5
v 8.4 11.9 -2.5
v 8.5 11.9 -2.5
v 8.5 12 -2.5
v 8.5 12 -2.6
v 8.5 11.9 -2.6
v 8.4 11.9 -2.6
v 8.4 12 -2.6
v 8.5 12 -2.5
v 8.5 11.9 -2.5
v 8.6 11.9 -2.5
v 8.6 12 -2.5
v 8.6 12 -2.6
v 8.6 11.9 -2.6
v 8.5 11.9 -2.6
v 8.5 12 -2.6
v 8.6 12 -2.5
v 8.6 11.9 -2.5
v 8.7 11.9 -2.5
v 8.7 12 -2.5
v 8.7 12 -2.6
v 8.7 11.9 -2.6
v 8.6 11.9 -2.6
v 8.6 12 -2.6
v 8.7 12 -2.5
v 8.7 11.9 -2.5
v 8.8 11.9 -2.5
v 8.8 12 -2.5
v 8.8 12 -2.6
v 8.8 11.9 -2.6
v 8.7 11.9 -2.6
v 8.7 12 -2.6
v 8.8 12 -2.5
v 8.8 11.9 -2.5
v 8.9 11.9 -2.5
v 8.9 12 -2.5
v 8.9 12 -2.6
v 8.9 11.9 -2.6
v 8.8 11.9 -2.6
v 8.8 12 -2.6
v 8.9 12 -2.5
v 8.9 11.9 -2.5
v 9 11.9 -2.5
v 9 12 -2.5
v 9 12 -2.6
v 9 11.9 -2.6
v 8.9 11.9 -2.6
v 8.9 12 -2.6
v 9 12 -2.5
v 9 11.9 -2.5
v 9.1 11.9 -2.5
v 9.1 12 -2.5
v 9.1 12 -2.6
v 9.1 11.9 -2.6
v 9 11.9 -2.6
v 9 12 -2.6
v 9.1 12 -2.5
v 9.1 11.9 -2.5
v 9.2 11.9 -2.5
v 9.2 12 -2.5
v 9.2 12 -2.6
v 9.2 11.9 -2.6
v 9.1 11.9 -2.6
v 9.1 12 -2.6
v 9.3 12 -2.5
v 9.3 11.9 -2.5
v 9.3 11.9 -2.6
v 9.3 12 -2.6
v 9.2 11.9 -2.5
v 9.2 11.9 -2.6
v 9.3 11.9 -2.6
v 9.3 11.9 -2.5
v 9.2 12 -2.5
v 9.2 11.9 -2.5
v 9.3 11.9 -2.5
v 9.3 12 -2.5
v 9.3 12 -2.6
v 9.3 11.9 -2.6
v 9.2 11.9 -2.6
v 9.2 12 -2.6
v 7.5 11.9 -2.6
v 7.5 11.8 -2.6
v 7.5 11.8 -2.5
v 7.5 11.9 -2.5
v 7.5 11.9 -2.5
v 7.5 11.8 -2.5
v 7.6 11.8 -2.5
v 7.6 11.9 -2.5
v 7.6 11.9 -2.6
v 7.6 11.8 -2.6
v 7.5 11.8 -2.6
v 7.5 11.9 -2.6
v 7.6 11.9 -2.5
v 7.6 11.8 -2.5
v 7.7 11.8 -2.5
v 7.7 11.9 -2.5
v 7.7 11.9 -2.6
v 7.7 11.8 -2.6
v 7.6 11.8 -2.6
v 7.6 11.9 -2.6
v 7.7 11.9 -2.5
v 7.7 11.8 -2.5
v 7.8 11.8 -2.5
v 7.8 11.9 -2.5
v 7.8 11.9 -2.6
v 7.8 11.8 -2.6
v 7.7 11.8 -2.6
v 7.7 11.9 -2.6
v 7.8 11.9 -2.5
v 7.8 11.8 -2.5
v 7.9 11.8 -2.5
v 7.9 11.9 -2.5
v 7.9 11.9 -2.6
v 7.9 11.8 -2.6
v 7.8 11.8 -2.6
v 7.8 11.9 -2.6
v 7.9 11.9 -2.5
v 7.9 11.8 -2.5
v 8 11.8 -2.5
v 8 11.9 -2.5
v 8 11.9 -2.6
v 8 11.8 -2.6
v 7.9 11.8 -2.6
v 7.9 11.9 -2.6
v 8 11.9 -2.5
v 8 11.8 -2.5
v 8.1 11.8 -2.5
v 8.1 11.9 -2.5
v 8.1 11.9 -2.6
v 8.1 11.8 -2.6
v 8 11.8 -2.6
v 8 11.9 -2.6
v 8.1 11.9 -2.5
v 8.1 11.8 -2.5
v 8.2 11.8 -2.5
v 8.2 11.9 -2.5
v 8.2 11.9 -2.6
v 8.2 11.8 -2.6
v 8.1 11.8 -2.6
v 8.1 11.9 -2.6
v 8.2 11.9 -2.5
v 8.2 11.8 -2.5
v 8.3 11.8 -2.5
v 8.3 11.9 -2.5
v 8.3 11.9 -2.6
v 8.3 11.8 -2.6
v 8.2 11.8 -2.6
v 8.2 11.9 -2.6
v 8.3 11.9 -2.5
v 8.3 11.8 -2.5
v 8.4 11.8 -2.5
v 8.4 11.9 -2.5
v 8.4 11.9 -2.6
v 8.4 11.8 -2.6
v 8.3 11.8 -2.6
v 8.3 11.9 -2.6
v 8.4 11.9 -2.5
v 8.4 11.8 -2.5
v 8.5 11.8 -2.5
v 8.5 11.9 -2.5
v 8.5 11.9 -2.6
v 8.5 11.8 -2.6
v 8.4 11.8 -2.6
v 8.4 11.9 -2.6
v 8.5 11.9 -2.5
v 8.5 11.8 -2.5
v 8.6 11.8 -2.5
v 8.6 11.9 -2.5
v 8.6 11.9 -2.6
v 8.6 11.8 -2.6
v 8.5 11.8 -2.6
v 8.5 11.9 -2.6
v 8.6 11.9 -2.5
v 8.6 11.8 -2.5
v 8.7 11.8 -2.5
v 8.7 11.9 -2.5
v 8.7 11.9 -2.6
v 8.7 11.8 -2.6
v 8.6 11.8 -2.6
v 8.6 11.9 -2.6
v 8.7 11.9 -2.5
v 8.7 11.8 -2.5
v 8.8 11.8 -2.5
v 8.8 11.9 -2.5
v 8.8 11.9 -2.6
v 8.8 11.8 -2.6
v 8.7 11.8 -2.6
v 8.7 11.9 -2.6
v 8.8 11.9 -2.5
v 8.8 11.8 -2.5
v 8.9 11.8 -2.5
v 8.9 11.9 -2.5
v 8.9 11.9 -2.6
v 8.9 11.8 -2.6
v 8.8 11.8 -2.6
v 8.8 11.9 -2.6
v 8.9 11.9 -2.5
v 8.9 11.8 -2.5
v 9 11.8 -2.5
v 9 11.9 -2.5
v 9 11.9 -2.6
v 9 11.8 -2.6
v 8.9 11.8 -2.6
v 8.9 11.9 -2.6
v 9 11.9 -2.5
v 9 11.8 -2.5
v 9.1 11.8 -2.5
v 9.1 11.9 -2.5
v 9.1 11.9 -2.6
v 9.1 11.8 -2.6
v 9 11.8 -2.6
v 9 11.9 -2.6
v 9.2 11.9 -2.5
v 9.2 11.8 -2.5
v 9.2 11.8 -2.6
v 9.2 11.9 -2.6
v 9.1 11.9 -2.5
v 9.1 11.8 -2.5
v 9.2 11.8 -2.5
v 9.2 11.9 -2.5
v 9.2 11.9 -2.6
v 9.2 11.8 -2.6
v 9.1 11.8 -2.6
v 9.1 11.9 -2.6
v 7.5 11.8 -2.6
v 7.5 11.7 -2.6
v 7.5 11.7 -2.5
v 7.5 11.8 -2.5
v 7.5 11.7 -2.5
v 7.5 11.7 -2.6
v 7.6 11.7 -2.6
v 7.6 11.7 -2.5
v 7.5 11.8 -2.5
v 7.5 11.7 -2.5
v 7.6 11.7 -2.5
v 7.6 11.8 -2.5
v 7.6 11.8 -2.6
v 7.6 11.7 -2.6
v 7.5 11.7 -2.6
v 7.5 11.8 -2.6
v 7.6 11.8 -2.5
v 7.6 11.7 -2.5
v 7.7 11.7 -2.5
v 7.7 11.8 -2.5
v 7.7 11.8 -2.6
v 7.7 11.7 -2.6
v 7.6 11.7 -2.6
v 7.6 11.8 -2.6
v 7.7 11.8 -2.5
v 7.7 11.7 -2.5
v 7.8 11.7 -2.5
v 7.8 11.8 -2.5
v 7.8 11.8 -2.6
v 7.8 11.7 -2.6
v 7.7 11.7 -2.6
v 7.7 11.8 -2.6
v 7.8 11.8 -2.5
v 7.8 11.7 -2.5
v 7.9 11.7 -2.5
v 7.9 11.8 -2.5
v 7.9 11.8 -2.6
v 7.9 11.7 -2.6
v 7.8 11.7 -2.6
v 7.8 11.8 -2.6
v 7.9 11.8 -2.5
v 7.9 11.7 -2.5
v 8 11.7 -2.5
v 8 11.8 -2.5
v 8 11.8 -2.6
v 8 11.7 -2.6
v 7.9 11.7 -2.6
v 7.9 11.8 -2.6
v 8 11.8 -2.5
v 8 11.7 -2.5
v 8.1 11.7 -2.5
v 8.1 11.8 -2.5
v 8.1 11.8 -2.6
v 8.1 11.7 -2.6
v 8 11.7 -2.6
v 8 11.8 -2.6
v 8.1 11.8 -2.5
v 8.1 11.7 -2.5
v 8.2 11.7 -2.5
v 8.2 11.8 -2.5
v 8.2 11.8 -2.6
v 8.2 11.7 -2.6
v 8.1 11.7 -2.6
v 8.1 11.8 -2.6
v 8.2 11.8 -2.5
v 8.2 11.7 -2.5
v 8.3 11.7 -2.5
v 8.3 11.8 -2.5
v 8.3 11.8 -2.6
v 8.3 11.7 -2.6
v 8.2 11.7 -2.6
v 8.2 11.8 -2.6
v 8.3 11.8 -2.5
v 8.3 11.7 -2.5
v 8.4 11.7 -2.5
v 8.4 11.8 -2.5
v 8.4 11.8 -2.6
v 8.4 11.7 -2.6
v 8.3 11.7 -2.6
v 8.3 11.8 -2.6
v 8.4 11.8 -2.5
v 8.4 11.7 -2.5
v 8.5 11.7 -2.5
v 8.5 11.8 -2.5
v 8.5 11.8 -2.6
v 8.5 11.7 -2.6
v 8.4 11.7 -2.6
v 8.4 11.8 -2.6
v 8.5 11.8 -2.5
v 8.5 11.7 -2.5
v 8.6 11.7 -2.5
v 8.6 11.8 -2.5
v 8.6 11.8 -2.6
v 8.6 11.7 -2.6
v 8.5 11.7 -2.6
v 8.5 11.8 -2.6
v 8.6 11.8 -2.5
v 8.6 11.7 -2.5
v 8.7 11.7 -2.5
v 8.7 11.8 -2.5
v 8.7 11.8 -2.6
v 8.7 11.7 -2.6
v 8.6 11.7 -2.6
v 8.6 11.8 -2.6
v 8.7 11.8 -2.5
v 8.7 11.7 -2.5
v 8.8 11.7 -2.5
v 8.8 11.8 -2.5
v 8.8 11.8 -2.6
v 8.8 11.7 -2.6
v 8.7 11.7 -2.6
v 8.7 11.8 -2.6
v 8.8 11.8 -2.5
v 8.8 11.7 -2.5
v 8.9 11.7 -2.5
v 8.9 11.8 -2.5
v 8.9 11.8 -2.6
v 8.9 11.7 -2.6
v 8.8 11.7 -2.6
v 8.8 11.8 -2.6
v 8.9 11.8 -2.5
v 8.9 11.7 -2.5
v 9 11.7 -2.5
v 9 11.8 -2.5
v 9 11.8 -2.6
v 9 11.7 -2.6
v 8.9 11.7 -2.6
v 8.9 11.8 -2.6
v 9 11.8 -2.5
v 9 11.7 -2.5
v 9.1 11.7 -2.5
v 9.1 11.8 -2.5
v 9.1 11.8 -2.6
v 9.1 11.7 -2.6
v 9 11.7 -2.6
v 9 11.8 -2.6
v 9.2 11.8 -2.5
v 9.2 11.7 -2.5
v 9.2 11.7 -2.6
v 9.2 11.8 -2.6
v 9.1 11.7 -2.5
v 9.1 11.7 -2.6
v 9.2 11.7 -2.6
v 9.2 11.7 -2.5
v 9.1 11.8 -2.5
v 9.1 11.7 -2.5
v 9.2 11.7 -2.5
v 9.2 11.8 -2.5
v 9.2 11.8 -2.6
v 9.2 11.7 -2.6
v 9.1 11.7 -2.6
v 9.1 11.8 -2.6
v 7.6 11.7 -2.6
v 7.6 11.6 -2.6
v 7.6 11.6 -2.5
v 7.6 11.7 -2.5
v 7.6 11.7 -2.5
v 7.6 11.6 -2.5
v 7.7 11.6 -2.5
v 7.7 11.7 -2.5
v 7.7 11.7 -2.6
v 7.7 11.6 -2.6
v 7.6 11.6 -2.6
v 7.6 11.7 -2.6
v 7.7 11.7 -2.5
v 7.7 11.6 -2.5
v 7.8 11.6 -2.5
v 7.8 11.7 -2.5
v 7.8 11.7 -2.6
v 7.8 11.6 -2.6
v 7.7 11.6 -2.6
v 7.7 11.7 -2.6
v 7.8 11.7 -2.5
v 7.8 11.6 -2.5
v 7.9 11.6 -2.5
v 7.9 11.7 -2.5
v 7.9 11.7 -2.6
v 7.9 11.6 -2.6
v 7.8 11.6 -2.6
v 7.8 11.7 -2.6
v 7.9 11.7 -2.5
v 7.9 11.6 -2.5
v 8 11.6 -2.5
v 8 11.7 -2.5
v 8 11.7 -2.6
v 8 11.6 -2.6
v 7.9 11.6 -2.6
v 7.9 11.7 -2.6
v 8 11.7 -2.5
v 8 11.6 -2.5
v 8.1 11.6 -2.5
v 8.1 11.7 -2.5
v 8.1 11.7 -2.6
v 8.1 11.6 -2.6
v 8 11.6 -2.6
v 8 11.7 -2.6
v 8.1 11.7 -2.5
v 8.1 11.6 -2.5
v 8.2 11.6 -2.5
v 8.2 11.7 -2.5
v 8.2 11.7 -2.6
v 8.2 11.6 -2.6
v 8.1 11.6 -2.6
v 8.1 11.7 -2.6
v 8.2 11.7 -2.5
v 8.2 11.6 -2.5
v 8.3 11.6 -2.5
v 8.3 11.7 -2.5
v 8.3 11.7 -2.6
v 8.3 11.6 -2.6
v 8.2 11.6 -2.6
v 8.2 11.7 -2.6
v 8.3 11.7 -2.5
v 8.3 11.6 -2.5
v 8.4 11.6 -2.5
v 8.4 11.7 -2.5
v 8.4 11.7 -2.6
v 8.4 11.6 -2.6
v 8.3 11.6 -2.6
v 8.3 11.7 -2.6
v 8.4 11.7 -2.5
v 8.4 11.6 -2.5
v 8.5 11.6 -2.5
v 8.5 11.7 -2.5
v 8.5 11.7 -2.6
v 8.5 11.6 -2.6
v 8.4 11.6 -2.6
v 8.4 11.7 -2.6
v 8.5 11.7 -2.5
v 8.5 11.6 -2.5
v 8.6 11.6 -2.5
v 8.6 11.7 -2.5
v 8.6 11.7 -2.6
v 8.6 11.6 -2.6
v 8.5 11.6 -2.6
v 8.5 11.7 -2.6
v 8.6 11.7 -2.5
v 8.6 11.6 -2.5
v 8.7 11.6 -2.5
v 8.7 11.7 -2.5
v 8.7 11.7 -2.6
v 8.7 11.6 -2.6
v 8.6 11.6 -2.6
v 8.6 11.7 -2.6
v 8.7 11.7 -2.5
v 8.7 11.6 -2.5
v 8.8 11.6 -2.5
v 8.8 11.7 -2.5
v 8.8 11.7 -2.6
v 8.8 11.6 -2.6
v 8.7 11.6 -2.6
v 8.7 11.7 -2.6
v 8.8 11.7 -2.5
v 8.8 11.6 -2.5
v 8.9 11.6 -2.5
v 8.9 11.7 -2.5
v 8.9 11.7 -2.6
v 8.9 11.6 -2.6
v 8.8 11.6 -2.6
v 8.8 11.7 -2.6
v 8.9 11.7 -2.5
v 8.9 11.6 -2.5
v 9 11.6 -2.5
v 9 11.7 -2.5
v 9 11.7 -2.6
v 9 11.6 -2.6
v 8.9 11.6 -2.6
v 8.9 11.7 -2.6
v 9.1 11.7 -2.5
v 9.1 11.6 -2.5
v 9.1 11.6 -2.6
v 9.1 11.7 -2.6
v 9 11.6 -2.5
v 9 11.6 -2.6
v 9.1 11.6 -2.6
v 9.1 11.6 -2.5
v 9 11.7 -2.5
v 9 11.6 -2.5
v 9.1 11.6 -2.5
v 9.1 11.7 -2.5
v 9.1 11.7 -2.6
v 9.1 11.6 -2.6
v 9 11.6 -2.6
v 9 11.7 -2.6
v 7.6 11.6 -2.6
v 7.6 11.5 -2.6
v 7.6 11.5 -2.5
v 7.6 11.6 -2.5
v 7.6 11.5 -2.5
v 7.6 11.5 -2.6
v 7.7 11.5 -2.6
v 7.7 11.5 -2.5
v 7.6 11.6 -2.5
v 7.6 11.5 -2.5
v 7.7 11.5 -2.5
v 7.7 11.6 -2.5
v 7.7 11.6 -2.6
v 7.7 11.5 -2.6
v 7.6 11.5 -2.6
v 7.6 11.6 -2.6
v 7.7 11.5 -2.5
v 7.7 11.5 -2.6
v 7.8 11.5 -2.6
v 7.8 11.5 -2.5
v 7.7 11.6 -2.5
v 7.7 11.5 -2.5
v 7.8 11.5 -2.5
v 7.8 11.6 -2.5
v 7.8 11.6 -2.6
v 7.8 11.5 -2.6
v 7.7 11.5 -2.6
v 7.7 11.6 -2.6
v 7.8 11.6 -2.5
v 7.8 11.5 -2.5
v 7.9 11.5 -2.5
v 7.9 11.6 -2.5
v 7.9 11.6 -2.6
v 7.9 11.5 -2.6
v 7.8 11.5 -2.6
v 7.8 11.6 -2.6
v 7.9 11.6 -2.5
v 7.9 11.5 -2.5
v 8 11.5 -2.5
v 8 11.6 -2.5
v 8 11.6 -2.6
v 8 11.5 -2.6
v 7.9 11.5 -2.6
v 7.9 11.6 -2.6
v 8 11.6 -2.5
v 8 11.5 -2.5
v 8.1 11.5 -2.5
v 8.1 11.6 -2.5
v 8.1 11.6 -2.6
v 8.1 11.5 -2.6
v 8 11.5 -2.6
v 8 11.6 -2.6
v 8.1 11.6 -2.5
v 8.1 11.5 -2.5
v 8.2 11.5 -2.5
v 8.2 11.6 -2.5
v 8.2 11.6 -2.6
v 8.2 11.5 -2.6
v 8.1 11.5 -2.6
v 8.1 11.6 -2.6
v 8.2 11.6 -2.5
v 8.2 11.5 -2.5
v 8.3 11.5 -2.5
v 8.3 11.6 -2.5
v 8.3 11.6 -2.6
v 8.3 11.5 -2.6
v 8.2 11.5 -2.6
v 8.2 11.6 -2.6
v 8.3 11.6 -2.5
v 8.3 11.5 -2.5
v 8.4 11.5 -2.5
v 8.4 11.6 -2.5
v 8.4 11.6 -2.6
v 8.4 11.5 -2.6
v 8.3 11.5 -2.6
v 8.3 11.6 -2.6
v 8.4 11.6 -2.5
v 8.4 11.5 -2.5
v 8.5 11.5 -2.5
v 8.5 11.6 -2.5
v 8.5 11.6 -2.6
v 8.5 11.5 -2.6
v 8.4 11.5 -2.6
v 8.4 11.6 -2.6
v 8.5 11.6 -2.5
v 8.5 11.5 -2.5
v 8.6 11.5 -2.5
v 8.6 11.6 -2.5
v 8.6 11.6 -2.6
v 8.6 11.5 -2.6
v 8.5 11.5 -2.6
v 8.5 11.6 -2.6
v 8.6 11.6 -2.5
v 8.6 11.5 -2.5
v 8.7 11.5 -2.5
v 8.7 11.6 -2.5
v 8.7 11.6 -2.6
v 8.7 11.5 -2.6
v 8.6 11.5 -2.6
v 8.6 11.6 -2.6
v 8.7 11.6 -2.5
v 8.7 11.5 -2.5
v 8.8 11.5 -2.5
v 8.8 11.6 -2.5
v 8.8 11.6 -2.6
v 8.8 11.5 -2.6
v 8.7 11.5 -2.6
v 8.7 11.6 -2.6
v 8.8 11.5 -2.5
v 8.8 11.5 -2.6
v 8.9 11.5 -2.6
v 8.9 11.5 -2.5
v 8.8 11.6 -2.5
v 8.8 11.5 -2.5
v 8.9 11.5 -2.5
v 8.9 11.6 -2.5
v 8.9 11.6 -2.6
v 8.9 11.5 -2.6
v 8.8 11.5 -2.6
v 8.8 11.6 -2.6
v 9 11.6 -2.5
v 9 11.5 -2.5
v 9 11.5 -2.6
v 9 11.6 -2.6
v 8.9 11.5 -2.5
v 8.9 11.5 -2.6
v 9 11.5 -2.6
v 9 11.5 -2.5
v 8.9 11.6 -2.5
v 8.9 11.5 -2.5
v 9 11.5 -2.5
v 9 11.6 -2.5
v 9 11.6 -2.6
v 9 11.5 -2.6
v 8.9 11.5 -2.6
v 8.9 11.6 -2.6
v 7.8 11.5 -2.6
v 7.8 11.4 -2.6
v 7.8 11.4 -2.5
v 7.8 11.5 -2.5
v 7.8 11.4 -2.5
v 7.8 11.4 -2.6
v 7.9 11.4 -2.6
v 7.9 11.4 -2.5
v 7.8 11.5 -2.5
v 7.8 11.4 -2.5
v 7.9 11.4 -2.5
v 7.9 11.5 -2.5
v 7.9 11.5 -2.6
v 7.9 11.4 -2.6
v 7.8 11.4 -2.6
v 7.8 11.5 -2.6
v 7.9 11.4 -2.5
v 7.9 11.4 -2.6
v 8 11.4 -2.6
v 8 11.4 -2.5
v 7.9 11.5 -2.5
v 7.9 11.4 -2.5
v 8 11.4 -2.5
v 8 11.5 -2.5
v 8 11.5 -2.6
v 8 11.4 -2.6
v 7.9 11.4 -2.6
v 7.9 11.5 -2.6
v 8 11.4 -2.5
v 8 11.4 -2.6
v 8.1 11.4 -2.6
v 8.1 11.4 -2.5
v 8 11.5 -2.5
v 8 11.4 -2.5
v 8.1 11.4 -2.5
v 8.1 11.5 -2.5
v 8.1 11.5 -2.6
v 8.1 11.4 -2.6
v 8 11.4 -2.6
v 8 11.5 -2.6
v 8.1 11.4 -2.5
v 8.1 11.4 -2.6
v 8.2 11.4 -2.6
v 8.2 11.4 -2.5
v 8.1 11.5 -2.5
v 8.1 11.4 -2.5
v 8.2 11.4 -2.5
v 8.2 11.5 -2.5
v 8.2 11.5 -2.6
v 8.2 11.4 -2.6
v 8.1 11.4 -2.6
v 8.1 11.5 -2.6
v 8.2 11.4 -2.5
v 8.2 11.4 -2.6
v 8.3 11.4 -2.6
v 8.3 11.4 -2.5
v 8.2 11.5 -2.5
v 8.2 11.4 -2.5
v 8.3 11.4 -2.5
v 8.3 11.5 -2.5
v 8.3 11.5 -2.6
v 8.3 11.4 -2.6
v 8.2 11.4 -2.6
v 8.2 11.5 -2.6
v 8.3 11.4 -2.5
v 8.3 11.4 -2.6
v 8.4 11.4 -2.6
v 8.4 11.4 -2.5
v 8.3 11.5 -2.5
v 8.3 11.4 -2.5
v 8.4 11.4 -2.5
v 8.4 11.5 -2.5
v 8.4 11.5 -2.6
v 8.4 11.4 -2.6
v 8.3 11.4 -2.6
v 8.3 11.5 -2.6
v 8.4 11.4 -2.5
v 8.4 11.4 -2.6
v 8.5 11.4 -2.6
v 8.5 11.4 -2.5
v 8.4 11.5 -2.5
v 8.4 11.4 -2.5
v 8.5 11.4 -2.5
v 8.5 11.5 -2.5
v 8.5 11.5 -2.6
v 8.5 11.4 -2.6
v 8.4 11.4 -2.6
v 8.4 11.5 -2.6
v 8.5 11.4 -2.5
v 8.5 11.4 -2.6
v 8.6 11.4 -2.6
v 8.6 11.4 -2.5
v 8.5 11.5 -2.5
v 8.5 11.4 -2.5
v 8.6 11.4 -2.5
v 8.6 11.5 -2.5
v 8.6 11.5 -2.6
v 8.6 11.4 -2.6
v 8.5 11.4 -2.6
v 8.5 11.5 -2.6
v 8.6 11.4 -2.5
v 8.6 11.4 -2.6
v 8.7 11.4 -2.6
v 8.7 11.4 -2.5
v 8.6 11.5 -2.5
v 8.6 11.4 -2.5
v 8.7 11.4 -2.5
v 8.7 11.5 -2.5
v 8.7 11.5 -2.6
v 8.7 11.4 -2.6
v 8.6 11.4 -2.6
v 8.6 11.5 -2.6
v 8.8 11.5 -2.5
v 8.8 11.4 -2.5
v 8.8 11.4 -2.6
v 8.8 11.5 -2.6
v 8.7 11.4 -2.5
v 8.7 11.4 -2.6
v 8.8 11.4 -2.6
v 8.8 11.4 -2.5
v 8.7 11.5 -2.5
v 8.7 11.4 -2.5
v 8.8 11.4 -2.5
v 8.8 11.5 -2.5
v 8.8 11.5 -2.6
v 8.8 11.4 -2.6
v 8.7 11.4 -2.6
v 8.7 11.5 -2.6

# faces
f 1/1/1 2/1/1 3/1/1 4/1/1
f 5/1/3 6/1/3 7/1/3 8/1/3
f 9/1/5 10/1/5 11/1/5 12/1/5
f 13/1/6 14/1/6 15/1/6 16/1/6
f 17/1/3 18/1/3 19/1/3 20/1/3
f 21/1/5 22/1/5 23/1/5 24/1/5
f 25/1/6 26/1/6 27/1/6 28/1/6
f 29/1/3 30/1/3 31/1/3 32/1/3
f 33/1/5 34/1/5 35/1/5 36/1/5
f 37/1/6 38/1/6 39/1/6 40/1/6
f 41/1/3 42/1/3 43/1/3 44/1/3
f 45/1/5 46/1/5 47/1/5 48/1/5
f 49/1/6 50/1/6 51/1/6 52/1/6
f 53/1/3 54/1/3 55/1/3 56/1/3
f 57/1/5 58/1/5 59/1/5 60/1/5
f 61/1/6 62/1/6 63/1/6 64/1/6
f 65/1/3 66/1/3 67/1/3 68/1/3
f 69/1/5 70/1/5 71/1/5 72/1/5
f 73/1/6 74/1/6 75/1/6 76/1/6
f 77/1/3 78/1/3 79/1/3 80/1/3
f 81/1/5 82/1/5 83/1/5 84/1/5
f 85/1/6 86/1/6 87/1/6 88/1/6
f 89/1/3 90/1/3 91/1/3 92/1/3
f 93/1/5 94/1/5 95/1/5 96/1/5
f 97/1/6 98/1/6 99/1/6 100/1/6
f 101/1/2 102/1/2 103/1/2 104/1/2
f 105/1/3 106/1/3 107/1/3 108/1/3
f 109/1/5 110/1/5 111/1/5 112/1/5
f 113/1/6 114/1/6 115/1/6 116/1/6
f 117/1/1 118/1/1 119/1/1 120/1/1
f 121/1/3 122/1/3 123/1/3 124/1/3
f 125/1/5 126/1/5 127/1/5 128/1/5
f 129/1/6 130/1/6 131/1/6 132/1/6
f 133/1/3 134/1/3 135/1/3 136/1/3
f 137/1/5 138/1/5 139/1/5 140/1/5
f 141/1/6 142/1/6 143/1/6 144/1/6
f 145/1/5 146/1/5 147/1/5 148/1/5
f 149/1/6 150/1/6 151/1/6 152/1/6
f 153/1/5 154/1/5 155/1/5 156/1/5
f 157/1/6 158/1/6 159/1/6 160/1/6
f 161/1/5 162/1/5 163/1/5 164/1/5
f 165/1/6 166/1/6 167/1/6 168/1/6
f 169/1/5 170/1/5 171/1/5 172/1/5
f 173/1/6 174/1/6 175/1/6 176/1/6
f 177/1/5 178/1/5 179/1/5 180/1/5
f 181/1/6 182/1/6 183/1/6 184/1/6
f 185/1/5 186/1/5 187/1/5 188/1/5
f 189/1/6 190/1/6 191/1/6 192/1/6
f 193/1/5 194/1/5 195/1/5 196/1/5
f 197/1/6 198/1/6 199/1/6 200/1/6
f 201/1/5 202/1/5 203/1/5 204/1/5
f 205/1/6 206/1/6 207/1/6 208/1/6
f 209/1/5 210/1/5 211/1/5 212/1/5
f 213/1/6 214/1/6 215/1/6 216/1/6
f 217/1/2 218/1/2 219/1/2 220/1/2
f 221/1/3 222/1/3 223/1/3 224/1/3
f 225/1/5 226/1/5 227/1/5 228/1/5
f 229/1/6 230/1/6 231/1/6 232/1/6
f 233/1/1 234/1/1 235/1/1 236/1/1
f 237/1/3 238/1/3 239/1/3 240/1/3
f 241/1/5 242/1/5 243/1/5 244/1/5
f 245/1/6 246/1/6 247/1/6 248/1/6
f 249/1/3 250/1/3 251/1/3 252/1/3
f 253/1/5 254/1/5 255/1/5 256/1/5
f 257/1/6 258/1/6 259/1/6 260/1/6
f 261/1/5 262/1/5 263/1/5 264/1/5
f 265/1/6 266/1/6 267/1/6 268/1/6
f 269/1/5 270/1/5 271/1/5 272/1/5
f 273/1/6 274/1/6 275/1/6 276/1/6
f 277/1/5 278/1/5 279/1/5 280/1/5
f 281/1/6 282/1/6 283/1/6 284/1/6
f 285/1/5 286/1/5 287/1/5 288/1/5
f 289/1/6 290/1/6 291/1/6 292/1/6
f 293/1/5 294/1/5 295/1/5 296/1/5
f 297/1/6 298/1/6 299/1/6 300/1/6
f 301/1/5 302/1/5 303/1/5 304/1/5
f 305/1/6 306/1/6 307/1/6 308/1/6
f 309/1/5 310/1/5 311/1/5 312/1/5
f 313/1/6 314/1/6 315/1/6 316/1/6
f 317/1/5 318/1/5 319/1/5 320/1/5
f 321/1/6 322/1/6 323/1/6 324/1/6
f 325/1/5 326/1/5 327/1/5 328/1/5
f 329/1/6 330/1/6 331/1/6 332/1/6
f 333/1/5 334/1/5 335/1/5 336/1/5
f 337/1/6 338/1/6 339/1/6 340/1/6
f 341/1/5 342/1/5 343/1/5 344/1/5
f 345/1/6 346/1/6 347/1/6 348/1/6
f 349/1/5 350/1/5 351/1/5 352/1/5
f 353/1/6 354/1/6 355/1/6 356/1/6
f 357/1/2 358/1/2 359/1/2 360/1/2
f 361/1/3 362/1/3 363/1/3 364/1/3
f 365/1/5 366/1/5 367/1/5 368/1/5
f 369/1/6 370/1/6 371/1/6 372/1/6
f 373/1/1 374/1/1 375/1/1 376/1/1
f 377/1/5 378/1/5 379/1/5 380/1/5
f 381/1/6 382/1/6 383/1/6 384/1/6
f 385/1/5 386/1/5 387/1/5 388/1/5
f 389/1/6 390/1/6 391/1/6 392/1/6
f 393/1/5 394/1/5 395/1/5 396/1/5
f 397/1/6 398/1/6 399/1/6 400/1/6
f 401/1/5 402/1/5 403/1/5 404/1/5
f 405/1/6 406/1/6 407/1/6 408/1/6
f 409/1/5 410/1/5 411/1/5 412/1/5
f 413/1/6 414/1/6 415/1/6 416/1/6
f 417/1/5 418/1/5 419/1/5 420/1/5
f 421/1/6 422/1/6 423/1/6 424/1/6
f 425/1/5 426/1/5 427/1/5 428/1/5
f 429/1/6 430/1/6 431/1/6 432/1/6
f 433/1/5 434/1/5 435/1/5 436/1/5
f 437/1/6 438/1/6 439/1/6 440/1/6
f 441/1/5 442/1/5 443/1/5 444/1/5
f 445/1/6 446/1/6 447/1/6 448/1/6
f 449/1/5 450/1/5 451/1/5 452/1/5
f 453/1/6 454/1/6 455/1/6 456/1/6
f 457/1/5 458/1/5 459/1/5 460/1/5
f 461/1/6 462/1/6 463/1/6 464/1/6
f 465/1/5 466/1/5 467/1/5 468/1/5
f 469/1/6 470/1/6 471/1/6 472/1/6
f 473/1/5 474/1/5 475/1/5 476/1/5
f 477/1/6 478/1/6 479/1/6 480/1/6
f 481/1/5 482/1/5 483/1/5 484/1/5
f 485/1/6 486/1/6 487/1/6 488/1/6
f 489/1/2 490/1/2 491/1/2 492/1/2
f 493/1/5 494/1/5 495/1/5 496/1/5
f 497/1/6 498/1/6 499/1/6 500/1/6
f 501/1/1 502/1/1 503/1/1 504/1/1
f 505/1/3 506/1/3 507/1/3 508/1/3
f 509/1/5 510/1/5 511/1/5 512/1/5
f 513/1/6 514/1/6 515/1/6 516/1/6
f 517/1/5 518/1/5 519/1/5 520/1/5
f 521/1/6 522/1/6 523/1/6 524/1/6
f 525/1/5 526/1/5 527/1/5 528/1/5
f 529/1/6 530/1/6 531/1/6 532/1/6
f 533/1/5 534/1/5 535/1/5 536/1/5
f 537/1/6 538/1/6 539/1/6 540/1/6
f 541/1/5 542/1/5 543/1/5 544/1/5
f 545/1/6 546/1/6 547/1/6 548/1/6
f 549/1/5 550/1/5 551/1/5 552/1/5
f 553/1/6 554/1/6 555/1/6 556/1/6
f 557/1/5 558/1/5 559/1/5 560/1/5
f 561/1/6 562/1/6 563/1/6 564/1/6
f 565/1/5 566/1/5 567/1/5 568/1/5
f 569/1/6 570/1/6 571/1/6 572/1/6
f 573/1/5 574/1/5 575/1/5 576/1/5
f 577/1/6 578/1/6 579/1/6 580/1/6
f 581/1/5 582/1/5 583/1/5 584/1/5
f 585/1/6 586/1/6 587/1/6 588/1/6
f 589/1/5 590/1/5 591/1/5 592/1/5
f 593/1/6 594/1/6 595/1/6 596/1/6
f 597/1/5 598/1/5 599/1/5 600/1/5
f 601/1/6 602/1/6 603/1/6 604/1/6
f 605/1/5 606/1/5 607/1/5 608/1/5
f 609/1/6 610/1/6 611/1/6 612/1/6
f 613/1/5 614/1/5 615/1/5 616/1/5
f 617/1/6 618/1/6 619/1/6 620/1/6
f 621/1/5 622/1/5 623/1/5 624/1/5
f 625/1/6 626/1/6 627/1/6 628/1/6
f 629/1/5 630/1/5 631/1/5 632/1/5
f 633/1/6 634/1/6 635/1/6 636/1/6
f 637/1/2 638/1/2 639/1/2 640/1/2
f 641/1/3 642/1/3 643/1/3 644/1/3
f 645/1/5 646/1/5 647/1/5 648/1/5
f 649/1/6 650/1/6 651/1/6 652/1/6
f 653/1/1 654/1/1 655/1/1 656/1/1
f 657/1/5 658/1/5 659/1/5 660/1/5
f 661/1/6 662/1/6 663/1/6 664/1/6
f 665/1/5 666/1/5 667/1/5 668/1/5
f 669/1/6 670/1/6 671/1/6 672/1/6
f 673/1/5 674/1/5 675/1/5 676/1/5
f 677/1/6 678/1/6 679/1/6 680/1/6
f 681/1/5 682/1/5 683/1/5 684/1/5
f 685/1/6 686/1/6 687/1/6 688/1/6
f 689/1/5 690/1/5 691/1/5 692/1/5
f 693/1/6 694/1/6 695/1/6 696/1/6
f 697/1/5 698/1/5 699/1/5 700/1/5
f 701/1/6 702/1/6 703/1/6 704/1/6
f 705/1/5 706/1/5 707/1/5 708/1/5
f 709/1/6 710/1/6 711/1/6 712/1/6
f 713/1/5 714/1/5 715/1/5 716/1/5
f 717/1/6 718/1/6 719/1/6 720/1/6
f 721/1/5 722/1/5 723/1/5 724/1/5
f 725/1/6 726/1/6 727/1/6 728/1/6
f 729/1/5 730/1/5 731/1/5 732/1/5
f 733/1/6 734/1/6 735/1/6 736/1/6
f 737/1/5 738/1/5 739/1/5 740/1/5
f 741/1/6 742/1/6 743/1/6 744/1/6
f 745/1/5 746/1/5 747/1/5 748/1/5
f 749/1/6 750/1/6 751/1/6 752/1/6
f 753/1/5 754/1/5 755/1/5 756/1/5
f 757/1/6 758/1/6 759/1/6 760/1/6
f 761/1/5 762/1/5 763/1/5 764/1/5
f 765/1/6 766/1/6 767/1/6 768/1/6
f 769/1/5 770/1/5 771/1/5 772/1/5
f 773/1/6 774/1/6 775/1/6 776/1/6
f 777/1/5 778/1/5 779/1/5 780/1/5
f 781/1/6 782/1/6 783/1/6 784/1/6
f 785/1/2 786/1/2 787/1/2 788/1/2
f 789/1/5 790/1/5 791/1/5 792/1/5
f 793/1/6 794/1/6 795/1/6 796/1/6
f 797/1/1 798/1/1 799/1/1 800/1/1
f 801/1/3 802/1/3 803/1/3 804/1/3
f 805/1/5 806/1/5 807/1/5 808/1/5
f 809/1/6 810/1/6 811/1/6 812/1/6
f 813/1/5 814/1/5 815/1/5 816/1/5
f 817/1/6 818/1/6 819/1/6 820/1/6
f 821/1/5 822/1/5 823/1/5 824/1/5
f 825/1/6 826/1/6 827/1/6 828/1/6
f 829/1/5 830/1/5 831/1/5 832/1/5
f 833/1/6 834/1/6 835/1/6 836/1/6
f 837/1/5 838/1/5 839/1/5 840/1/5
f 841/1/6 842/1/6 843/1/6 844/1/6
f 845/1/5 846/1/5 847/1/5 848/1/5
f 849/1/6 850/1/6 851/1/6 852/1/6
f 853/1/5 854/1/5 855/1/5 856/1/5
f 857/1/6 858/1/6 859/1/6 860/1/6
f 861/1/5 862/1/5 863/1/5 864/1/5
f 865/1/6 866/1/6 867/1/6 868/1/6
f 869/1/5 870/1/5 871/1/5 872/1/5
f 873/1/6 874/1/6 875/1/6 876/1/6
f 877/1/5 878/1/5 879/1/5 880/1/5
f 881/1/6 882/1/6 883/1/6 884/1/6
f 885/1/5 886/1/5 887/1/5 888/1/5
f 889/1/6 890/1/6 891/1/6 892/1/6
f 893/1/5 894/1/5 895/1/5 896/1/5
f 897/1/6 898/1/6 899/1/6 900/1/6
f 901/1/5 902/1/5 903/1/5 904/1/5
f 905/1/6 906/1/6 907/1/6 908/1/6
f 909/1/5 910/1/5 911/1/5 912/1/5
f 913/1/6 914/1/6 915/1/6 916/1/6
f 917/1/5 918/1/5 919/1/5 920/1/5
f 921/1/6 922/1/6 923/1/6 924/1/6
f 925/1/5 926/1/5 927/1/5 928/1/5
f 929/1/6 930/1/6 931/1/6 932/1/6
f 933/1/5 934/1/5 935/1/5 936/1/5
f 937/1/6 938/1/6 939/1/6 940/1/6
f 941/1/5 942/1/5 943/1/5 944/1/5
f 945/1/6 946/1/6 947/1/6 948/1/6
f 949/1/2 950/1/2 951/1/2 952/1/2
f 953/1/3 954/1/3 955/1/3 956/1/3
f 957/1/5 958/1/5 959/1/5 960/1/5
f 961/1/6 962/1/6 963/1/6 964/1/6
f 965/1/1 966/1/1 967/1/1 968/1/1
f 969/1/5 970/1/5 971/1/5 972/1/5
f 973/1/6 974/1/6 975/1/6 976/1/6
f 977/1/5 978/1/5 979/1/5 980/1/5
f 981/1/6 982/1/6 983/1/6 984/1/6
f 985/1/5 986/1/5 987/1/5 988/1/5
f 989/1/6 990/1/6 991/1/6 992/1/6
f 993/1/5 994/1/5 995/1/5 996/1/5
f 997/1/6 998/1/6 999/1/6 1000/1/6
f 1001/1/5 1002/1/5 1003/1/5 1004/1/5
f 1005/1/6 1006/1/6 1007/1/6 1008/1/6
f 1009/1/5 1010/1/5 1011/1/5 1012/1/5
f 1013/1/6 1014/1/6 1015/1/6 1016/1/6
f 1017/1/5 1018/1/5 1019/1/5 1020/1/5
f 1021/1/6 1022/1/6 1023/1/6 1024/1/6
f 1025/1/5 1026/1/5 1027/1/5 1028/1/5
f 1029/1/6 1030/1/6 1031/1/6 1032/1/6
f 1033/1/5 1034/1/5 1035/1/5 1036/1/5
f 1037/1/6 1038/1/6 1039/1/6 1040/1/6
f 1041/1/5 1042/1/5 1043/1/5 1044/1/5
f 1045/1/6 1046/1/6 1047/1/6 1048/1/6
f 1049/1/5 1050/1/5 1051/1/5 1052/1/5
f 1053/1/6 1054/1/6 1055/1/6 1056/1/6
f 1057/1/5 1058/1/5 1059/1/5 1060/1/5
f 1061/1/6 1062/1/6 1063/1/6 1064/1/6
f 1065/1/5 1066/1/5 1067/1/5 1068/1/5
f 1069/1/6 1070/1/6 1071/1/6 1072/1/6
f 1073/1/5 1074/1/5 1075/1/5 1076/1/5
f 1077/1/6 1078/1/6 1079/1/6 1080/1/6
f 1081/1/5 1082/1/5 1083/1/5 1084/1/5
f 1085/1/6 1086/1/6 1087/1/6 1088/1/6
f 1089/1/5 1090/1/5 1091/1/5 1092/1/5
f 1093/1/6 1094/1/6 1095/1/6 1096/1/6
f 1097/1/5 1098/1/5 1099/1/5 1100/1/5
f 1101/1/6 1102/1/6 1103/1/6 1104/1/6
f 1105/1/5 1106/1/5 1107/1/5 1108/1/5
f 1109/1/6 1110/1/6 1111/1/6 1112/1/6
f 1113/1/2 1114/1/2 1115/1/2 1116/1/2
f 1117/1/5 1118/1/5 1119/1/5 1120/1/5
f 1121/1/6 1122/1/6 1123/1/6 1124/1/6
f 1125/1/1 1126/1/1 1127/1/1 1128/1/1
f 1129/1/5 1130/1/5 1131/1/5 1132/1/5
f 1133/1/6 1134/1/6 1135/1/6 1136/1/6
f 1137/1/5 1138/1/5 1139/1/5 1140/1/5
f 1141/1/6 1142/1/6 1143/1/6 1144/1/6
f 1145/1/5 1146/1/5 1147/1/5 1148/1/5
f 1149/1/6 1150/1/6 1151/1/6 1152/1/6
f 1153/1/5 1154/1/5 1155/1/5 1156/1/5
f 1157/1/6 1158/1/6 1159/1/6 1160/1/6
f 1161/1/5 1162/1/5 1163/1/5 1164/1/5
f 1165/1/6 1166/1/6 1167/1/6 1168/1/6
f 1169/1/5 1170/1/5 1171/1/5 1172/1/5
f 1173/1/6 1174/1/6 1175/1/6 1176/1/6
f 1177/1/5 1178/1/5 1179/1/5 1180/1/5
f 1181/1/6 1182/1/6 1183/1/6 1184/1/6
f 1185/1/5 1186/1/5 1187/1/5 1188/1/5
f 1189/1/6 1190/1/6 1191/1/6 1192/1/6
f 1193/1/5 1194/1/5 1195/1/5 1196/1/5
f 1197/1/6 1198/1/6 1199/1/6 1200/1/6
f 1201/1/5 1202/1/5 1203/1/5 1204/1/5
f 1205/1/6 1206/1/6 1207/1/6 1208/1/6
f 1209/1/5 1210/1/5 1211/1/5 1212/1/5
f 1213/1/6 1214/1/6 1215/1/6 1216/1/6
f 1217/1/5 1218/1/5 1219/1/5 1220/1/5
f 1221/1/6 1222/1/6 1223/1/6 1224/1/6
f 1225/1/5 1226/1/5 1227/1/5 1228/1/5
f 1229/1/6 1230/1/6 1231/1/6 1232/1/6
f 1233/1/5 1234/1/5 1235/1/5 1236/1/5
f 1237/1/6 1238/1/6 1239/1/6 1240/1/6
f 1241/1/5 1242/1/5 1243/1/5 1244/1/5
f 1245/1/6 1246/1/6 1247/1/6 1248/1/6
f 1249/1/5 1250/1/5 1251/1/5 1252/1/5
f 1253/1/6 1254/1/6 1255/1/6 1256/1/6
f 1257/1/5 1258/1/5 1259/1/5 1260/1/5
f 1261/1/6 1262/1/6 1263/1/6 1264/1/6
f 1265/1/5 1266/1/5 1267/1/5 1268/1/5
f 1269/1/6 1270/1/6 1271/1/6 1272/1/6
f 1273/1/2 1274/1/2 1275/1/2 1276/1/2
f 1277/1/5 1278/1/5 1279/1/5 1280/1/5
f 1281/1/6 1282/1/6 1283/1/6 1284/1/6
f 1285/1/1 1286/1/1 1287/1/1 1288/1/1
f 1289/1/5 1290/1/5 1291/1/5 1292/1/5
f 1293/1/6 1294/1/6 1295/1/6 1296/1/6
f 1297/1/5 1298/1/5 1299/1/5 1300/1/5
f 1301/1/6 1302/1/6 1303/1/6 1304/1/6
f 1305/1/5 1306/1/5 1307/1/5 1308/1/5
f 1309/1/6 1310/1/6 1311/1/6 1312/1/6
f 1313/1/5 1314/1/5 1315/1/5 1316/1/5
f 1317/1/6 1318/1/6 1319/1/6 1320/1/6
f 1321/1/5 1322/1/5 1323/1/5 1324/1/5
f 1325/1/6 1326/1/6 1327/1/6 1328/1/6
f 1329/1/5 1330/1/5 1331/1/5 1332/1/5
f 1333/1/6 1334/1/6 1335/1/6 1336/1/6
f 1337/1/5 1338/1/5 1339/1/5 1340/1/5
f 1341/1/6 1342/1/6 1343/1/6 1344/1/6
f 1345/1/5 1346/1/5 1347/1/5 1348/1/5
f 1349/1/6 1350/1/6 1351/1/6 1352/1/6
f 1353/1/5 1354/1/5 1355/1/5 1356/1/5
f 1357/1/6 1358/1/6 1359/1/6 1360/1/6
f 1361/1/5 1362/1/5 1363/1/5 1364/1/5
f 1365/1/6 1366/1/6 1367/1/6 1368/1/6
f 1369/1/5 1370/1/5 1371/1/5 1372/1/5
f 1373/1/6 1374/1/6 1375/1/6 1376/1/6
f 1377/1/5 1378/1/5 1379/1/5 1380/1/5
f 1381/1/6 1382/1/6 1383/1/6 1384/1/6
f 1385/1/5 1386/1/5 1387/1/5 1388/1/5
f 1389/1/6 1390/1/6 1391/1/6 1392/1/6
f 1393/1/5 1394/1/5 1395/1/5 1396/1/5
f 1397/1/6 1398/1/6 1399/1/6 1400/1/6
f 1401/1/5 1402/1/5 1403/1/5 1404/1/5
f 1405/1/6 1406/1/6 1407/1/6 1408/1/6
f 1409/1/5 1410/1/5 1411/1/5 1412/1/5
f 1413/1/6 1414/1/6 1415/1/6 1416/1/6
f 1417/1/5 1418/1/5 1419/1/5 1420/1/5
f 1421/1/6 1422/1/6 1423/1/6 1424/1/6
f 1425/1/5 1426/1/5 1427/1/5 1428/1/5
f 1429/1/6 1430/1/6 1431/1/6 1432/1/6
f 1433/1/2 1434/1/2 1435/1/2 1436/1/2
f 1437/1/5 1438/1/5 1439/1/5 1440/1/5
f 1441/1/6 1442/1/6 1443/1/6 1444/1/6
f 1445/1/1 1446/1/1 1447/1/1 1448/1/1
f 1449/1/4 1450/1/4 1451/1/4 1452/1/4
f 1453/1/5 1454/1/5 1455/1/5 1456/1/5
f 1457/1/6 1458/1/6 1459/1/6 1460/1/6
f 1461/1/5 1462/1/5 1463/1/5 1464/1/5
f 1465/1/6 1466/1/6 1467/1/6 1468/1/6
f 1469/1/5 1470/1/5 1471/1/5 1472/1/5
f 1473/1/6 1474/1/6 1475/1/6 1476/1/6
f 1477/1/5 1478/1/5 1479/1/5 1480/1/5
f 1481/1/6 1482/1/6 1483/1/6 1484/1/6
f 1485/1/5 1486/1/5 1487/1/5 1488/1/5
f 1489/1/6 1490/1/6 1491/1/6 1492/1/6
f 1493/1/5 1494/1/5 1495/1/5 1496/1/5
f 1497/1/6 1498/1/6 1499/1/6 1500/1/6
f 1501/1/5 1502/1/5 1503/1/5 1504/1/5
f 1505/1/6 1506/1/6 1507/1/6 1508/1/6
f 1509/1/5 1510/1/5 1511/1/5 1512/1/5
f 1513/1/6 1514/1/6 1515/1/6 1516/1/6
f 1517/1/5 1518/1/5 1519/1/5 1520/1/5
f 1521/1/6 1522/1/6 1523/1/6 1524/1/6
f 1525/1/5 1526/1/5 1527/1/5 1528/1/5
f 1529/1/6 1530/1/6 1531/1/6 1532/1/6
f 1533/1/5 1534/1/5 1535/1/5 1536/1/5
f 1537/1/6 1538/1/6 1539/1/6 1540/1/6
f 1541/1/5 1542/1/5 1543/1/5 1544/1/5
f 1545/1/6 1546/1/6 1547/1/6 1548/1/6
f 1549/1/5 1550/1/5 1551/1/5 1552/1/5
f 1553/1/6 1554/1/6 1555/1/6 1556/1/6
f 1557/1/5 1558/1/5 1559/1/5 1560/1/5
f 1561/1/6 1562/1/6 1563/1/6 1564/1/6
f 1565/1/5 1566/1/5 1567/1/5 1568/1/5
f 1569/1/6 1570/1/6 1571/1/6 1572/1/6
f 1573/1/5 1574/1/5 1575/1/5 1576/1/5
f 1577/1/6 1578/1/6 1579/1/6 1580/1/6
f 1581/1/5 1582/1/5 1583/1/5 1584/1/5
f 1585/1/6 1586/1/6 1587/1/6 1588/1/6
f 1589/1/5 1590/1/5 1591/1/5 1592/1/5
f 1593/1/6 1594/1/6 1595/1/6 1596/1/6
f 1597/1/2 1598/1/2 1599/1/2 1600/1/2
f 1601/1/4 1602/1/4 1603/1/4 1604/1/4
f 1605/1/5 1606/1/5 1607/1/5 1608/1/5
f 1609/1/6 1610/1/6 1611/1/6 1612/1/6
f 1613/1/1 1614/1/1 1615/1/1 1616/1/1
f 1617/1/5 1618/1/5 1619/1/5 1620/1/5
f 1621/1/6 1622/1/6 1623/1/6 1624/1/6
f 1625/1/5 1626/1/5 1627/1/5 1628/1/5
f 1629/1/6 1630/1/6 1631/1/6 1632/1/6
f 1633/1/5 1634/1/5 1635/1/5 1636/1/5
f 1637/1/6 1638/1/6 1639/1/6 1640/1/6
f 1641/1/5 1642/1/5 1643/1/5 1644/1/5
f 1645/1/6 1646/1/6 1647/1/6 1648/1/6
f 1649/1/5 1650/1/5 1651/1/5 1652/1/5
f 1653/1/6 1654/1/6 1655/1/6 1656/1/6
f 1657/1/5 1658/1/5 1659/1/5 1660/1/5
f 1661/1/6 1662/1/6 1663/1/6 1664/1/6
f 1665/1/5 1666/1/5 1667/1/5 1668/1/5
f 1669/1/6 1670/1/6 1671/1/6 1672/1/6
f 1673/1/5 1674/1/5 1675/1/5 1676/1/5
f 1677/1/6 1678/1/6 1679/1/6 1680/1/6
f 1681/1/5 1682/1/5 1683/1/5 1684/1/5
f 1685/1/6 1686/1/6 1687/1/6 1688/1/6
f 1689/1/5 1690/1/5 1691/1/5 1692/1/5
f 1693/1/6 1694/1/6 1695/1/6 1696/1/6
f 1697/1/5 1698/1/5 1699/1/5 1700/1/5
f 1701/1/6 1702/1/6 1703/1/6 1704/1/6
f 1705/1/5 1706/1/5 1707/1/5 1708/1/5
f 1709/1/6 1710/1/6 1711/1/6 1712/1/6
f 1713/1/5 1714/1/5 1715/1/5 1716/1/5
f 1717/1/6 1718/1/6 1719/1/6 1720/1/6
f 1721/1/5 1722/1/5 1723/1/5 1724/1/5
f 1725/1/6 1726/1/6 1727/1/6 1728/1/6
f 1729/1/5 1730/1/5 1731/1/5 1732/1/5
f 1733/1/6 1734/1/6 1735/1/6 1736/1/6
f 1737/1/5 1738/1/5 1739/1/5 1740/1/5
f 1741/1/6 1742/1/6 1743/1/6 1744/1/6
f 1745/1/2 1746/1/2 1747/1/2 1748/1/2
f 1749/1/5 1750/1/5 1751/1/5 1752/1/5
f 1753/1/6 1754/1/6 1755/1/6 1756/1/6
f 1757/1/1 1758/1/1 1759/1/1 1760/1/1
f 1761/1/4 1762/1/4 1763/1/4 1764/1/4
f 1765/1/5 1766/1/5 1767/1/5 1768/1/5
f 1769/1/6 1770/1/6 1771/1/6 1772/1/6
f 1773/1/5 1774/1/5 1775/1/5 1776/1/5
f 1777/1/6 1778/1/6 1779/1/6 1780/1/6
f 1781/1/5 1782/1/5 1783/1/5 1784/1/5
f 1785/1/6 1786/1/6 1787/1/6 1788/1/6
f 1789/1/5 1790/1/5 1791/1/5 1792/1/5
f 1793/1/6 1794/1/6 1795/1/6 1796/1/6
f 1797/1/5 1798/1/5 1799/1/5 1800/1/5
f 1801/1/6 1802/1/6 1803/1/6 1804/1/6
f 1805/1/5 1806/1/5 1807/1/5 1808/1/5
f 1809/1/6 1810/1/6 1811/1/6 1812/1/6
f 1813/1/5 1814/1/5 1815/1/5 1816/1/5
f 1817/1/6 1818/1/6 1819/1/6 1820/1/6
f 1821/1/5 1822/1/5 1823/1/5 1824/1/5
f 1825/1/6 1826/1/6 1827/1/6 1828/1/6
f 1829/1/5 1830/1/5 1831/1/5 1832/1/5
f 1833/1/6 1834/1/6 1835/1/6 1836/1/6
f 1837/1/5 1838/1/5 1839/1/5 1840/1/5
f 1841/1/6 1842/1/6 1843/1/6 1844/1/6
f 1845/1/5 1846/1/5 1847/1/5 1848/1/5
f 1849/1/6 1850/1/6 1851/1/6 1852/1/6
f 1853/1/5 1854/1/5 1855/1/5 1856/1/5
f 1857/1/6 1858/1/6 1859/1/6 1860/1/6
f 1861/1/5 1862/1/5 1863/1/5 1864/1/5
f 1865/1/6 1866/1/6 1867/1/6 1868/1/6
f 1869/1/5 1870/1/5 1871/1/5 1872/1/5
f 1873/1/6 1874/1/6 1875/1/6 1876/1/6
f 1877/1/5 1878/1/5 1879/1/5 1880/1/5
f 1881/1/6 1882/1/6 1883/1/6 1884/1/6
f 1885/1/5 1886/1/5 1887/1/5 1888/1/5
f 1889/1/6 1890/1/6 1891/1/6 1892/1/6
f 1893/1/2 1894/1/2 1895/1/2 1896/1/2
f 1897/1/4 1898/1/4 1899/1/4 1900/1/4
f 1901/1/5 1902/1/5 1903/1/5 1904/1/5
f 1905/1/6 1906/1/6 1907/1/6 1908/1/6
f 1909/1/1 1910/1/1 1911/1/1 1912/1/1
f 1913/1/5 1914/1/5 1915/1/5 1916/1/5
f 1917/1/6 1918/1/6 1919/1/6 1920/1/6
f 1921/1/5 1922/1/5 1923/1/5 1924/1/5
f 1925/1/6 1926/1/6 1927/1/6 1928/1/6
f 1929/1/5 1930/1/5 1931/1/5 1932/1/5
f 1933/1/6 1934/1/6 1935/1/6 1936/1/6
f 1937/1/5 1938/1/5 1939/1/5 1940/1/5
f 1941/1/6 1942/1/6 1943/1/6 1944/1/6
f 1945/1/5 1946/1/5 1947/1/5 1948/1/5
f 1949/1/6 1950/1/6 1951/1/6 1952/1/6
f 1953/1/5 1954/1/5 1955/1/5 1956/1/5
f 1957/1/6 1958/1/6 1959/1/6 1960/1/6
f 1961/1/5 1962/1/5 1963/1/5 1964/1/5
f 1965/1/6 1966/1/6 1967/1/6 1968/1/6
f 1969/1/5 1970/1/5 1971/1/5 1972/1/5
f 1973/1/6 1974/1/6 1975/1/6 1976/1/6
f 1977/1/5 1978/1/5 1979/1/5 1980/1/5
f 1981/1/6 1982/1/6 1983/1/6 1984/1/6
f 1985/1/5 1986/1/5 1987/1/5 1988/1/5
f 1989/1/6 1990/1/6 1991/1/6 1992/1/6
f 1993/1/5 1994/1/5 1995/1/5 1996/1/5
f 1997/1/6 1998/1/6 1999/1/6 2000/1/6
f 2001/1/5 2002/1/5 2003/1/5 2004/1/5
f 2005/1/6 2006/1/6 2007/1/6 2008/1/6
f 2009/1/5 2010/1/5 2011/1/5 2012/1/5
f 2013/1/6 2014/1/6 2015/1/6 2016/1/6
f 2017/1/5 2018/1/5 2019/1/5 2020/1/5
f 2021/1/6 2022/1/6 2023/1/6 2024/1/6
f 2025/1/2 2026/1/2 2027/1/2 2028/1/2
f 2029/1/4 2030/1/4 2031/1/4 2032/1/4
f 2033/1/5 2034/1/5 2035/1/5 2036/1/5
f 2037/1/6 2038/1/6 2039/1/6 2040/1/6
f 2041/1/1 2042/1/1 2043/1/1 2044/1/1
f 2045/1/4 2046/1/4 2047/1/4 2048/1/4
f 2049/1/5 2050/1/5 2051/1/5 2052/1/5
f 2053/1/6 2054/1/6 2055/1/6 2056/1/6
f 2057/1/4 2058/1/4 2059/1/4 2060/1/4
f 2061/1/5 2062/1/5 2063/1/5 2064/1/5
f 2065/1/6 2066/1/6 2067/1/6 2068/1/6
f 2069/1/5 2070/1/5 2071/1/5 2072/1/5
f 2073/1/6 2074/1/6 2075/1/6 2076/1/6
f 2077/1/5 2078/1/5 2079/1/5 2080/1/5
f 2081/1/6 2082/1/6 2083/1/6 2084/1/6
f 2085/1/5 2086/1/5 2087/1/5 2088/1/5
f 2089/1/6 2090/1/6 2091/1/6 2092/1/6
f 2093/1/5 2094/1/5 2095/1/5 2096/1/5
f 2097/1/6 2098/1/6 2099/1/6 2100/1/6
f 2101/1/5 2102/1/5 2103/1/5 2104/1/5
f 2105/1/6 2106/1/6 2107/1/6 2108/1/6
f 2109/1/5 2110/1/5 2111/1/5 2112/1/5
f 2113/1/6 2114/1/6 2115/1/6 2116/1/6
f 2117/1/5 2118/1/5 2119/1/5 2120/1/5
f 2121/1/6 2122/1/6 2123/1/6 2124/1/6
f 2125/1/5 2126/1/5 2127/1/5 2128/1/5
f 2129/1/6 2130/1/6 2131/1/6 2132/1/6
f 2133/1/5 2134/1/5 2135/1/5 2136/1/5
f 2137/1/6 2138/1/6 2139/1/6 2140/1/6
f 2141/1/5 2142/1/5 2143/1/5 2144/1/5
f 2145/1/6 2146/1/6 2147/1/6 2148/1/6
f 2149/1/4 2150/1/4 2151/1/4 2152/1/4
f 2153/1/5 2154/1/5 2155/1/5 2156/1/5
f 2157/1/6 2158/1/6 2159/1/6 2160/1/6
f 2161/1/2 2162/1/2 2163/1/2 2164/1/2
f 2165/1/4 2166/1/4 2167/1/4 2168/1/4
f 2169/1/5 2170/1/5 2171/1/5 2172/1/5
f 2173/1/6 2174/1/6 2175/1/6 2176/1/6
f 2177/1/1 2178/1/1 2179/1/1 2180/1/1
f 2181/1/4 2182/1/4 2183/1/4 2184/1/4
f 2185/1/5 2186/1/5 2187/1/5 2188/1/5
f 2189/1/6 2190/1/6 2191/1/6 2192/1/6
f 2193/1/4 2194/1/4 2195/1/4 2196/1/4
f 2197/1/5 2198/1/5 2199/1/5 2200/1/5
f 2201/1/6 2202/1/6 2203/1/6 2204/1/6
f 2205/1/4 2206/1/4 2207/1/4 2208/1/4
f 2209/1/5 2210/1/5 2211/1/5 2212/1/5
f 2213/1/6 2214/1/6 2215/1/6 2216/1/6
f 2217/1/4 2218/1/4 2219/1/4 2220/1/4
f 2221/1/5 2222/1/5 2223/1/5 2224/1/5
f 2225/1/6 2226/1/6 2227/1/6 2228/1/6
f 2229/1/4 2230/1/4 2231/1/4 2232/1/4
f 2233/1/5 2234/1/5 2235/1/5 2236/1/5
f 2237/1/6 2238/1/6 2239/1/6 2240/1/6
f 2241/1/4 2242/1/4 2243/1/4 2244/1/4
f 2245/1/5 2246/1/5 2247/1/5 2248/1/5
f 2249/1/6 2250/1/6 2251/1/6 2252/1/6
f 2253/1/4 2254/1/4 2255/1/4 2256/1/4
f 2257/1/5 2258/1/5 2259/1/5 2260/1/5
f 2261/1/6 2262/1/6 2263/1/6 2264/1/6
f 2265/1/4 2266/1/4 2267/1/4 2268/1/4
f 2269/1/5 2270/1/5 2271/1/5 2272/1/5
f 2273/1/6 2274/1/6 2275/1/6 2276/1/6
f 2277/1/4 2278/1/4 2279/1/4 2280/1/4
f 2281/1/5 2282/1/5 2283/1/5 2284/1/5
f 2285/1/6 2286/1/6 2287/1/6 2288/1/6
f 2289/1/2 2290/1/2 2291/1/2 2292/1/2
f 2293/1/4 2294/1/4 2295/1/4 2296/1/4
f 2297/1/5 2298/1/5 2299/1/5 2300/1/5
f 2301/1/6 2302/1/6 2303/1/6 2304/1/6

