# generated by vox_to_obj_exporter
# scale=0.1 center=false ground=false y_up=true

mtllib Fight_748.mtl
usemtl palette

# normals
vn -1 0 0
vn 1 0 0
vn 0 1 0
vn 0 -1 0
vn 0 0 1
vn 0 0 -1

# texcoords
vt 0.142578125 0.5

# verts
v 8.1 12.8 -2.6
v 8.1 12.7 -2.6
v 8.1 12.7 -2.5
v 8.1 12.8 -2.5
v 8.1 12.8 -2.6
v 8.1 12.8 -2.5
v 8.2 12.8 -2.5
v 8.2 12.8 -2.6
v 8.1 12.7 -2.5
v 8.1 12.7 -2.6
v 8.2 12.7 -2.6
v 8.2 12.7 -2.5
v 8.1 12.8 -2.5
v 8.1 12.7 -2.5
v 8.2 12.7 -2.5
v 8.2 12.8 -2.5
v 8.2 12.8 -2.6
v 8.2 12.7 -2.6
v 8.1 12.7 -2.6
v 8.1 12.8 -2.6
v 8.2 12.8 -2.6
v 8.2 12.8 -2.5
v 8.3 12.8 -2.5
v 8.3 12.8 -2.6
v 8.2 12.8 -2.5
v 8.2 12.7 -2.5
v 8.3 12.7 -2.5
v 8.3 12.8 -2.5
v 8.3 12.8 -2.6
v 8.3 12.7 -2.6
v 8.2 12.7 -2.6
v 8.2 12.8 -2.6
v 8.3 12.8 -2.6
v 8.3 12.8 -2.5
v 8.4 12.8 -2.5
v 8.4 12.8 -2.6
v 8.3 12.8 -2.5
v 8.3 12.7 -2.5
v 8.4 12.7 -2.5
v 8.4 12.8 -2.5
v 8.4 12.8 -2.6
v 8.4 12.7 -2.6
v 8.3 12.7 -2.6
v 8.3 12.8 -2.6
v 8.4 12.8 -2.6
v 8.4 12.8 -2.5
v 8.5 12.8 -2.5
v 8.5 12.8 -2.6
v 8.4 12.8 -2.5
v 8.4 12.7 -2.5
v 8.5 12.7 -2.5
v 8.5 12.8 -2.5
v 8.5 12.8 -2.6
v 8.5 12.7 -2.6
v 8.4 12.7 -2.6
v 8.4 12.8 -2.6
v 8.6 12.8 -2.5
v 8.6 12.7 -2.5
v 8.6 12.7 -2.6
v 8.6 12.8 -2.6
v 8.5 12.8 -2.6
v 8.5 12.8 -2.5
v 8.6 12.8 -2.5
v 8.6 12.8 -2.6
v 8.5 12.8 -2.5
v 8.5 12.7 -2.5
v 8.6 12.7 -2.5
v 8.6 12.8 -2.5
v 8.6 12.8 -2.6
v 8.6 12.7 -2.6
v 8.5 12.7 -2.6
v 8.5 12.8 -2.6
v 8.2 12.7 -2.6
v 8.2 12.6 -2.6
v 8.2 12.6 -2.5
v 8.2 12.7 -2.5
v 8.2 12.7 -2.5
v 8.2 12.6 -2.5
v 8.3 12.6 -2.5
v 8.3 12.7 -2.5
v 8.3 12.7 -2.6
v 8.3 12.6 -2.6
v 8.2 12.6 -2.6
v 8.2 12.7 -2.6
v 8.3 12.7 -2.5
v 8.3 12.6 -2.5
v 8.4 12.6 -2.5
v 8.4 12.7 -2.5
v 8.4 12.7 -2.6
v 8.4 12.6 -2.6
v 8.3 12.6 -2.6
v 8.3 12.7 -2.6
v 8.4 12.7 -2.5
v 8.4 12.6 -2.5
v 8.5 12.6 -2.5
v 8.5 12.7 -2.5
v 8.5 12.7 -2.6
v 8.5 12.6 -2.6
v 8.4 12.6 -2.6
v 8.4 12.7 -2.6
v 8.5 12.7 -2.5
v 8.5 12.6 -2.5
v 8.6 12.6 -2.5
v 8.6 12.7 -2.5
v 8.6 12.7 -2.6
v 8.6 12.6 -2.6
v 8.5 12.6 -2.6
v 8.5 12.7 -2.6
v 8.6 12.7 -2.6
v 8.6 12.7 -2.5
v 8.7 12.7 -2.5
v 8.7 12.7 -2.6
v 8.6 12.7 -2.5
v 8.6 12.6 -2.5
v 8.7 12.6 -2.5
v 8.7 12.7 -2.5
v 8.7 12.7 -2.6
v 8.7 12.6 -2.6
v 8.6 12.6 -2.6
v 8.6 12.7 -2.6
v 8.7 12.7 -2.6
v 8.7 12.7 -2.5
v 8.8 12.7 -2.5
v 8.8 12.7 -2.6
v 8.7 12.7 -2.5
v 8.7 12.6 -2.5
v 8.8 12.6 -2.5
v 8.8 12.7 -2.5
v 8.8 12.7 -2.6
v 8.8 12.6 -2.6
v 8.7 12.6 -2.6
v 8.7 12.7 -2.6
v 8.8 12.7 -2.6
v 8.8 12.7 -2.5
v 8.9 12.7 -2.5
v 8.9 12.7 -2.6
v 8.8 12.7 -2.5
v 8.8 12.6 -2.5
v 8.9 12.6 -2.5
v 8.9 12.7 -2.5
v 8.9 12.7 -2.6
v 8.9 12.6 -2.6
v 8.8 12.6 -2.6
v 8.8 12.7 -2.6
v 8.9 12.7 -2.6
v 8.9 12.7 -2.5
v 9 12.7 -2.5
v 9 12.7 -2.6
v 8.9 12.7 -2.5
v 8.9 12.6 -2.5
v 9 12.6 -2.5
v 9 12.7 -2.5
v 9 12.7 -2.6
v 9 12.6 -2.6
v 8.9 12.6 -2.6
v 8.9 12.7 -2.6
v 9.1 12.7 -2.5
v 9.1 12.6 -2.5
v 9.1 12.6 -2.6
v 9.1 12.7 -2.6
v 9 12.7 -2.6
v 9 12.7 -2.5
v 9.1 12.7 -2.5
v 9.1 12.7 -2.6
v 9 12.7 -2.5
v 9 12.6 -2.5
v 9.1 12.6 -2.5
v 9.1 12.7 -2.5
v 9.1 12.7 -2.6
v 9.1 12.6 -2.6
v 9 12.6 -2.6
v 9 12.7 -2.6
v 8.2 12.6 -2.6
v 8.2 12.5 -2.6
v 8.2 12.5 -2.5
v 8.2 12.6 -2.5
v 8.2 12.6 -2.5
v 8.2 12.5 -2.5
v 8.3 12.5 -2.5
v 8.3 12.6 -2.5
v 8.3 12.6 -2.6
v 8.3 12.5 -2.6
v 8.2 12.5 -2.6
v 8.2 12.6 -2.6
v 8.3 12.6 -2.5
v 8.3 12.5 -2.5
v 8.4 12.5 -2.5
v 8.4 12.6 -2.5
v 8.4 12.6 -2.6
v 8.4 12.5 -2.6
v 8.3 12.5 -2.6
v 8.3 12.6 -2.6
v 8.4 12.6 -2.5
v 8.4 12.5 -2.5
v 8.5 12.5 -2.5
v 8.5 12.6 -2.5
v 8.5 12.6 -2.6
v 8.5 12.5 -2.6
v 8.4 12.5 -2.6
v 8.4 12.6 -2.6
v 8.5 12.6 -2.5
v 8.5 12.5 -2.5
v 8.6 12.5 -2.5
v 8.6 12.6 -2.5
v 8.6 12.6 -2.6
v 8.6 12.5 -2.6
v 8.5 12.5 -2.6
v 8.5 12.6 -2.6
v 8.6 12.6 -2.5
v 8.6 12.5 -2.5
v 8.7 12.5 -2.5
v 8.7 12.6 -2.5
v 8.7 12.6 -2.6
v 8.7 12.5 -2.6
v 8.6 12.5 -2.6
v 8.6 12.6 -2.6
v 8.7 12.6 -2.5
v 8.7 12.5 -2.5
v 8.8 12.5 -2.5
v 8.8 12.6 -2.5
v 8.8 12.6 -2.6
v 8.8 12.5 -2.6
v 8.7 12.5 -2.6
v 8.7 12.6 -2.6
v 8.8 12.6 -2.5
v 8.8 12.5 -2.5
v 8.9 12.5 -2.5
v 8.9 12.6 -2.5
v 8.9 12.6 -2.6
v 8.9 12.5 -2.6
v 8.8 12.5 -2.6
v 8.8 12.6 -2.6
v 8.9 12.6 -2.5
v 8.9 12.5 -2.5
v 9 12.5 -2.5
v 9 12.6 -2.5
v 9 12.6 -2.6
v 9 12.5 -2.6
v 8.9 12.5 -2.6
v 8.9 12.6 -2.6
v 9 12.6 -2.5
v 9 12.5 -2.5
v 9.1 12.5 -2.5
v 9.1 12.6 -2.5
v 9.1 12.6 -2.6
v 9.1 12.5 -2.6
v 9 12.5 -2.6
v 9 12.6 -2.6
v 9.1 12.6 -2.6
v 9.1 12.6 -2.5
v 9.2 12.6 -2.5
v 9.2 12.6 -2.6
v 9.1 12.6 -2.5
v 9.1 12.5 -2.5
v 9.2 12.5 -2.5
v 9.2 12.6 -2.5
v 9.2 12.6 -2.6
v 9.2 12.5 -2.6
v 9.1 12.5 -2.6
v 9.1 12.6 -2.6
v 9.2 12.6 -2.6
v 9.2 12.6 -2.5
v 9.3 12.6 -2.5
v 9.3 12.6 -2.6
v 9.2 12.6 -2.5
v 9.2 12.5 -2.5
v 9.3 12.5 -2.5
v 9.3 12.6 -2.5
v 9.3 12.6 -2.6
v 9.3 12.5 -2.6
v 9.2 12.5 -2.6
v 9.2 12.6 -2.6
v 9.4 12.6 -2.5
v 9.4 12.5 -2.5
v 9.4 12.5 -2.6
v 9.4 12.6 -2.6
v 9.3 12.6 -2.6
v 9.3 12.6 -2.5
v 9.4 12.6 -2.5
v 9.4 12.6 -2.6
v 9.3 12.6 -2.5
v 9.3 12.5 -2.5
v 9.4 12.5 -2.5
v 9.4 12.6 -2.5
v 9.4 12.6 -2.6
v 9.4 12.5 -2.6
v 9.3 12.5 -2.6
v 9.3 12.6 -2.6
v 8.2 12.5 -2.6
v 8.2 12.4 -2.6
v 8.2 12.4 -2.5
v 8.2 12.5 -2.5
v 8.2 12.5 -2.5
v 8.2 12.4 -2.5
v 8.3 12.4 -2.5
v 8.3 12.5 -2.5
v 8.3 12.5 -2.6
v 8.3 12.4 -2.6
v 8.2 12.4 -2.6
v 8.2 12.5 -2.6
v 8.3 12.5 -2.5
v 8.3 12.4 -2.5
v 8.4 12.4 -2.5
v 8.4 12.5 -2.5
v 8.4 12.5 -2.6
v 8.4 12.4 -2.6
v 8.3 12.4 -2.6
v 8.3 12.5 -2.6
v 8.4 12.5 -2.5
v 8.4 12.4 -2.5
v 8.5 12.4 -2.5
v 8.5 12.5 -2.5
v 8.5 12.5 -2.6
v 8.5 12.4 -2.6
v 8.4 12.4 -2.6
v 8.4 12.5 -2.6
v 8.5 12.5 -2.5
v 8.5 12.4 -2.5
v 8.6 12.4 -2.5
v 8.6 12.5 -2.5
v 8.6 12.5 -2.6
v 8.6 12.4 -2.6
v 8.5 12.4 -2.6
v 8.5 12.5 -2.6
v 8.6 12.5 -2.5
v 8.6 12.4 -2.5
v 8.7 12.4 -2.5
v 8.7 12.5 -2.5
v 8.7 12.5 -2.6
v 8.7 12.4 -2.6
v 8.6 12.4 -2.6
v 8.6 12.5 -2.6
v 8.7 12.5 -2.5
v 8.7 12.4 -2.5
v 8.8 12.4 -2.5
v 8.8 12.5 -2.5
v 8.8 12.5 -2.6
v 8.8 12.4 -2.6
v 8.7 12.4 -2.6
v 8.7 12.5 -2.6
v 8.8 12.5 -2.5
v 8.8 12.4 -2.5
v 8.9 12.4 -2.5
v 8.9 12.5 -2.5
v 8.9 12.5 -2.6
v 8.9 12.4 -2.6
v 8.8 12.4 -2.6
v 8.8 12.5 -2.6
v 8.9 12.5 -2.5
v 8.9 12.4 -2.5
v 9 12.4 -2.5
v 9 12.5 -2.5
v 9 12.5 -2.6
v 9 12.4 -2.6
v 8.9 12.4 -2.6
v 8.9 12.5 -2.6
v 9 12.5 -2.5
v 9 12.4 -2.5
v 9.1 12.4 -2.5
v 9.1 12.5 -2.5
v 9.1 12.5 -2.6
v 9.1 12.4 -2.6
v 9 12.4 -2.6
v 9 12.5 -2.6
v 9.1 12.5 -2.5
v 9.1 12.4 -2.5
v 9.2 12.4 -2.5
v 9.2 12.5 -2.5
v 9.2 12.5 -2.6
v 9.2 12.4 -2.6
v 9.1 12.4 -2.6
v 9.1 12.5 -2.6
v 9.2 12.5 -2.5
v 9.2 12.4 -2.5
v 9.3 12.4 -2.5
v 9.3 12.5 -2.5
v 9.3 12.5 -2.6
v 9.3 12.4 -2.6
v 9.2 12.4 -2.6
v 9.2 12.5 -2.6
v 9.3 12.5 -2.5
v 9.3 12.4 -2.5
v 9.4 12.4 -2.5
v 9.4 12.5 -2.5
v 9.4 12.5 -2.6
v 9.4 12.4 -2.6
v 9.3 12.4 -2.6
v 9.3 12.5 -2.6
v 9.4 12.5 -2.6
v 9.4 12.5 -2.5
v 9.5 12.5 -2.5
v 9.5 12.5 -2.6
v 9.4 12.5 -2.5
v 9.4 12.4 -2.5
v 9.5 12.4 -2.5
v 9.5 12.5 -2.5
v 9.5 12.5 -2.6
v 9.5 12.4 -2.6
v 9.4 12.4 -2.6
v 9.4 12.5 -2.6
v 9.6 12.5 -2.5
v 9.6 12.4 -2.5
v 9.6 12.4 -2.6
v 9.6 12.5 -2.6
v 9.5 12.5 -2.6
v 9.5 12.5 -2.5
v 9.6 12.5 -2.5
v 9.6 12.5 -2.6
v 9.5 12.4 -2.5
v 9.5 12.4 -2.6
v 9.6 12.4 -2.6
v 9.6 12.4 -2.5
v 9.5 12.5 -2.5
v 9.5 12.4 -2.5
v 9.6 12.4 -2.5
v 9.6 12.5 -2.5
v 9.6 12.5 -2.6
v 9.6 12.4 -2.6
v 9.5 12.4 -2.6
v 9.5 12.5 -2.6
v 8.2 12.4 -2.6
v 8.2 12.3 -2.6
v 8.2 12.3 -2.5
v 8.2 12.4 -2.5
v 8.2 12.4 -2.5
v 8.2 12.3 -2.5
v 8.3 12.3 -2.5
v 8.3 12.4 -2.5
v 8.3 12.4 -2.6
v 8.3 12.3 -2.6
v 8.2 12.3 -2.6
v 8.2 12.4 -2.6
v 8.3 12.3 -2.5
v 8.3 12.3 -2.6
v 8.4 12.3 -2.6
v 8.4 12.3 -2.5
v 8.3 12.4 -2.5
v 8.3 12.3 -2.5
v 8.4 12.3 -2.5
v 8.4 12.4 -2.5
v 8.4 12.4 -2.6
v 8.4 12.3 -2.6
v 8.3 12.3 -2.6
v 8.3 12.4 -2.6
v 8.4 12.4 -2.5
v 8.4 12.3 -2.5
v 8.5 12.3 -2.5
v 8.5 12.4 -2.5
v 8.5 12.4 -2.6
v 8.5 12.3 -2.6
v 8.4 12.3 -2.6
v 8.4 12.4 -2.6
v 8.5 12.4 -2.5
v 8.5 12.3 -2.5
v 8.6 12.3 -2.5
v 8.6 12.4 -2.5
v 8.6 12.4 -2.6
v 8.6 12.3 -2.6
v 8.5 12.3 -2.6
v 8.5 12.4 -2.6
v 8.6 12.4 -2.5
v 8.6 12.3 -2.5
v 8.7 12.3 -2.5
v 8.7 12.4 -2.5
v 8.7 12.4 -2.6
v 8.7 12.3 -2.6
v 8.6 12.3 -2.6
v 8.6 12.4 -2.6
v 8.7 12.4 -2.5
v 8.7 12.3 -2.5
v 8.8 12.3 -2.5
v 8.8 12.4 -2.5
v 8.8 12.4 -2.6
v 8.8 12.3 -2.6
v 8.7 12.3 -2.6
v 8.7 12.4 -2.6
v 8.8 12.4 -2.5
v 8.8 12.3 -2.5
v 8.9 12.3 -2.5
v 8.9 12.4 -2.5
v 8.9 12.4 -2.6
v 8.9 12.3 -2.6
v 8.8 12.3 -2.6
v 8.8 12.4 -2.6
v 8.9 12.4 -2.5
v 8.9 12.3 -2.5
v 9 12.3 -2.5
v 9 12.4 -2.5
v 9 12.4 -2.6
v 9 12.3 -2.6
v 8.9 12.3 -2.6
v 8.9 12.4 -2.6
v 9 12.4 -2.5
v 9 12.3 -2.5
v 9.1 12.3 -2.5
v 9.1 12.4 -2.5
v 9.1 12.4 -2.6
v 9.1 12.3 -2.6
v 9 12.3 -2.6
v 9 12.4 -2.6
v 9.1 12.4 -2.5
v 9.1 12.3 -2.5
v 9.2 12.3 -2.5
v 9.2 12.4 -2.5
v 9.2 12.4 -2.6
v 9.2 12.3 -2.6
v 9.1 12.3 -2.6
v 9.1 12.4 -2.6
v 9.2 12.3 -2.5
v 9.2 12.3 -2.6
v 9.3 12.3 -2.6
v 9.3 12.3 -2.5
v 9.2 12.4 -2.5
v 9.2 12.3 -2.5
v 9.3 12.3 -2.5
v 9.3 12.4 -2.5
v 9.3 12.4 -2.6
v 9.3 12.3 -2.6
v 9.2 12.3 -2.6
v 9.2 12.4 -2.6
v 9.3 12.3 -2.5
v 9.3 12.3 -2.6
v 9.4 12.3 -2.6
v 9.4 12.3 -2.5
v 9.3 12.4 -2.5
v 9.3 12.3 -2.5
v 9.4 12.3 -2.5
v 9.4 12.4 -2.5
v 9.4 12.4 -2.6
v 9.4 12.3 -2.6
v 9.3 12.3 -2.6
v 9.3 12.4 -2.6
v 9.5 12.4 -2.5
v 9.5 12.3 -2.5
v 9.5 12.3 -2.6
v 9.5 12.4 -2.6
v 9.4 12.3 -2.5
v 9.4 12.3 -2.6
v 9.5 12.3 -2.6
v 9.5 12.3 -2.5
v 9.4 12.4 -2.5
v 9.4 12.3 -2.5
v 9.5 12.3 -2.5
v 9.5 12.4 -2.5
v 9.5 12.4 -2.6
v 9.5 12.3 -2.6
v 9.4 12.3 -2.6
v 9.4 12.4 -2.6
v 8.2 12.3 -2.6
v 8.2 12.2 -2.6
v 8.2 12.2 -2.5
v 8.2 12.3 -2.5
v 8.3 12.3 -2.5
v 8.3 12.2 -2.5
v 8.3 12.2 -2.6
v 8.3 12.3 -2.6
v 8.2 12.2 -2.5
v 8.2 12.2 -2.6
v 8.3 12.2 -2.6
v 8.3 12.2 -2.5
v 8.2 12.3 -2.5
v 8.2 12.2 -2.5
v 8.3 12.2 -2.5
v 8.3 12.3 -2.5
v 8.3 12.3 -2.6
v 8.3 12.2 -2.6
v 8.2 12.2 -2.6
v 8.2 12.3 -2.6
v 8.4 12.3 -2.6
v 8.4 12.2 -2.6
v 8.4 12.2 -2.5
v 8.4 12.3 -2.5
v 8.4 12.2 -2.5
v 8.4 12.2 -2.6
v 8.5 12.2 -2.6
v 8.5 12.2 -2.5
v 8.4 12.3 -2.5
v 8.4 12.2 -2.5
v 8.5 12.2 -2.5
v 8.5 12.3 -2.5
v 8.5 12.3 -2.6
v 8.5 12.2 -2.6
v 8.4 12.2 -2.6
v 8.4 12.3 -2.6
v 8.5 12.2 -2.5
v 8.5 12.2 -2.6
v 8.6 12.2 -2.6
v 8.6 12.2 -2.5
v 8.5 12.3 -2.5
v 8.5 12.2 -2.5
v 8.6 12.2 -2.5
v 8.6 12.3 -2.5
v 8.6 12.3 -2.6
v 8.6 12.2 -2.6
v 8.5 12.2 -2.6
v 8.5 12.3 -2.6
v 8.6 12.3 -2.5
v 8.6 12.2 -2.5
v 8.7 12.2 -2.5
v 8.7 12.3 -2.5
v 8.7 12.3 -2.6
v 8.7 12.2 -2.6
v 8.6 12.2 -2.6
v 8.6 12.3 -2.6
v 8.7 12.3 -2.5
v 8.7 12.2 -2.5
v 8.8 12.2 -2.5
v 8.8 12.3 -2.5
v 8.8 12.3 -2.6
v 8.8 12.2 -2.6
v 8.7 12.2 -2.6
v 8.7 12.3 -2.6
v 8.8 12.3 -2.5
v 8.8 12.2 -2.5
v 8.9 12.2 -2.5
v 8.9 12.3 -2.5
v 8.9 12.3 -2.6
v 8.9 12.2 -2.6
v 8.8 12.2 -2.6
v 8.8 12.3 -2.6
v 8.9 12.3 -2.5
v 8.9 12.2 -2.5
v 9 12.2 -2.5
v 9 12.3 -2.5
v 9 12.3 -2.6
v 9 12.2 -2.6
v 8.9 12.2 -2.6
v 8.9 12.3 -2.6
v 9 12.2 -2.5
v 9 12.2 -2.6
v 9.1 12.2 -2.6
v 9.1 12.2 -2.5
v 9 12.3 -2.5
v 9 12.2 -2.5
v 9.1 12.2 -2.5
v 9.1 12.3 -2.5
v 9.1 12.3 -2.6
v 9.1 12.2 -2.6
v 9 12.2 -2.6
v 9 12.3 -2.6
v 9.2 12.3 -2.5
v 9.2 12.2 -2.5
v 9.2 12.2 -2.6
v 9.2 12.3 -2.6
v 9.1 12.2 -2.5
v 9.1 12.2 -2.6
v 9.2 12.2 -2.6
v 9.2 12.2 -2.5
v 9.1 12.3 -2.5
v 9.1 12.2 -2.5
v 9.2 12.2 -2.5
v 9.2 12.3 -2.5
v 9.2 12.3 -2.6
v 9.2 12.2 -2.6
v 9.1 12.2 -2.6
v 9.1 12.3 -2.6
v 8.6 12.2 -2.6
v 8.6 12.1 -2.6
v 8.6 12.1 -2.5
v 8.6 12.2 -2.5
v 8.6 12.1 -2.5
v 8.6 12.1 -2.6
v 8.7 12.1 -2.6
v 8.7 12.1 -2.5
v 8.6 12.2 -2.5
v 8.6 12.1 -2.5
v 8.7 12.1 -2.5
v 8.7 12.2 -2.5
v 8.7 12.2 -2.6
v 8.7 12.1 -2.6
v 8.6 12.1 -2.6
v 8.6 12.2 -2.6
v 8.7 12.2 -2.5
v 8.7 12.1 -2.5
v 8.8 12.1 -2.5
v 8.8 12.2 -2.5
v 8.8 12.2 -2.6
v 8.8 12.1 -2.6
v 8.7 12.1 -2.6
v 8.7 12.2 -2.6
v 8.8 12.1 -2.5
v 8.8 12.1 -2.6
v 8.9 12.1 -2.6
v 8.9 12.1 -2.5
v 8.8 12.2 -2.5
v 8.8 12.1 -2.5
v 8.9 12.1 -2.5
v 8.9 12.2 -2.5
v 8.9 12.2 -2.6
v 8.9 12.1 -2.6
v 8.8 12.1 -2.6
v 8.8 12.2 -2.6
v 9 12.2 -2.5
v 9 12.1 -2.5
v 9 12.1 -2.6
v 9 12.2 -2.6
v 8.9 12.1 -2.5
v 8.9 12.1 -2.6
v 9 12.1 -2.6
v 9 12.1 -2.5
v 8.9 12.2 -2.5
v 8.9 12.1 -2.5
v 9 12.1 -2.5
v 9 12.2 -2.5
v 9 12.2 -2.6
v 9 12.1 -2.6
v 8.9 12.1 -2.6
v 8.9 12.2 -2.6
v 8.7 12.1 -2.6
v 8.7 12 -2.6
v 8.7 12 -2.5
v 8.7 12.1 -2.5
v 8.8 12.1 -2.5
v 8.8 12 -2.5
v 8.8 12 -2.6
v 8.8 12.1 -2.6
v 8.7 12 -2.5
v 8.7 12 -2.6
v 8.8 12 -2.6
v 8.8 12 -2.5
v 8.7 12.1 -2.5
v 8.7 12 -2.5
v 8.8 12 -2.5
v 8.8 12.1 -2.5
v 8.8 12.1 -2.6
v 8.8 12 -2.6
v 8.7 12 -2.6
v 8.7 12.1 -2.6

# faces
f 1/1/1 2/1/1 3/1/1 4/1/1
f 5/1/3 6/1/3 7/1/3 8/1/3
f 9/1/4 10/1/4 11/1/4 12/1/4
f 13/1/5 14/1/5 15/1/5 16/1/5
f 17/1/6 18/1/6 19/1/6 20/1/6
f 21/1/3 22/1/3 23/1/3 24/1/3
f 25/1/5 26/1/5 27/1/5 28/1/5
f 29/1/6 30/1/6 31/1/6 32/1/6
f 33/1/3 34/1/3 35/1/3 36/1/3
f 37/1/5 38/1/5 39/1/5 40/1/5
f 41/1/6 42/1/6 43/1/6 44/1/6
f 45/1/3 46/1/3 47/1/3 48/1/3
f 49/1/5 50/1/5 51/1/5 52/1/5
f 53/1/6 54/1/6 55/1/6 56/1/6
f 57/1/2 58/1/2 59/1/2 60/1/2
f 61/1/3 62/1/3 63/1/3 64/1/3
f 65/1/5 66/1/5 67/1/5 68/1/5
f 69/1/6 70/1/6 71/1/6 72/1/6
f 73/1/1 74/1/1 75/1/1 76/1/1
f 77/1/5 78/1/5 79/1/5 80/1/5
f 81/1/6 82/1/6 83/1/6 84/1/6
f 85/1/5 86/1/5 87/1/5 88/1/5
f 89/1/6 90/1/6 91/1/6 92/1/6
f 93/1/5 94/1/5 95/1/5 96/1/5
f 97/1/6 98/1/6 99/1/6 100/1/6
f 101/1/5 102/1/5 103/1/5 104/1/5
f 105/1/6 106/1/6 107/1/6 108/1/6
f 109/1/3 110/1/3 111/1/3 112/1/3
f 113/1/5 114/1/5 115/1/5 116/1/5
f 117/1/6 118/1/6 119/1/6 120/1/6
f 121/1/3 122/1/3 123/1/3 124/1/3
f 125/1/5 126/1/5 127/1/5 128/1/5
f 129/1/6 130/1/6 131/1/6 132/1/6
f 133/1/3 134/1/3 135/1/3 136/1/3
f 137/1/5 138/1/5 139/1/5 140/1/5
f 141/1/6 142/1/6 143/1/6 144/1/6
f 145/1/3 146/1/3 147/1/3 148/1/3
f 149/1/5 150/1/5 151/1/5 152/1/5
f 153/1/6 154/1/6 155/1/6 156/1/6
f 157/1/2 158/1/2 159/1/2 160/1/2
f 161/1/3 162/1/3 163/1/3 164/1/3
f 165/1/5 166/1/5 167/1/5 168/1/5
f 169/1/6 170/1/6 171/1/6 172/1/6
f 173/1/1 174/1/1 175/1/1 176/1/1
f 177/1/5 178/1/5 179/1/5 180/1/5
f 181/1/6 182/1/6 183/1/6 184/1/6
f 185/1/5 186/1/5 187/1/5 188/1/5
f 189/1/6 190/1/6 191/1/6 192/1/6
f 193/1/5 194/1/5 195/1/5 196/1/5
f 197/1/6 198/1/6 199/1/6 200/1/6
f 201/1/5 202/1/5 203/1/5 204/1/5
f 205/1/6 206/1/6 207/1/6 208/1/6
f 209/1/5 210/1/5 211/1/5 212/1/5
f 213/1/6 214/1/6 215/1/6 216/1/6
f 217/1/5 218/1/5 219/1/5 220/1/5
f 221/1/6 222/1/6 223/1/6 224/1/6
f 225/1/5 226/1/5 227/1/5 228/1/5
f 229/1/6 230/1/6 231/1/6 232/1/6
f 233/1/5 234/1/5 235/1/5 236/1/5
f 237/1/6 238/1/6 239/1/6 240/1/6
f 241/1/5 242/1/5 243/1/5 244/1/5
f 245/1/6 246/1/6 247/1/6 248/1/6
f 249/1/3 250/1/3 251/1/3 252/1/3
f 253/1/5 254/1/5 255/1/5 256/1/5
f 257/1/6 258/1/6 259/1/6 260/1/6
f 261/1/3 262/1/3 263/1/3 264/1/3
f 265/1/5 266/1/5 267/1/5 268/1/5
f 269/1/6 270/1/6 271/1/6 272/1/6
f 273/1/2 274/1/2 275/1/2 276/1/2
f 277/1/3 278/1/3 279/1/3 280/1/3
f 281/1/5 282/1/5 283/1/5 284/1/5
f 285/1/6 286/1/6 287/1/6 288/1/6
f 289/1/1 290/1/1 291/1/1 292/1/1
f 293/1/5 294/1/5 295/1/5 296/1/5
f 297/1/6 298/1/6 299/1/6 300/1/6
f 301/1/5 302/1/5 303/1/5 304/1/5
f 305/1/6 306/1/6 307/1/6 308/1/6
f 309/1/5 310/1/5 311/1/5 312/1/5
f 313/1/6 314/1/6 315/1/6 316/1/6
f 317/1/5 318/1/5 319/1/5 320/1/5
f 321/1/6 322/1/6 323/1/6 324/1/6
f 325/1/5 326/1/5 327/1/5 328/1/5
f 329/1/6 330/1/6 331/1/6 332/1/6
f 333/1/5 334/1/5 335/1/5 336/1/5
f 337/1/6 338/1/6 339/1/6 340/1/6
f 341/1/5 342/1/5 343/1/5 344/1/5
f 345/1/6 346/1/6 347/1/6 348/1/6
f 349/1/5 350/1/5 351/1/5 352/1/5
f 353/1/6 354/1/6 355/1/6 356/1/6
f 357/1/5 358/1/5 359/1/5 360/1/5
f 361/1/6 362/1/6 363/1/6 364/1/6
f 365/1/5 366/1/5 367/1/5 368/1/5
f 369/1/6 370/1/6 371/1/6 372/1/6
f 373/1/5 374/1/5 375/1/5 376/1/5
f 377/1/6 378/1/6 379/1/6 380/1/6
f 381/1/5 382/1/5 383/1/5 384/1/5
f 385/1/6 386/1/6 387/1/6 388/1/6
f 389/1/3 390/1/3 391/1/3 392/1/3
f 393/1/5 394/1/5 395/1/5 396/1/5
f 397/1/6 398/1/6 399/1/6 400/1/6
f 401/1/2 402/1/2 403/1/2 404/1/2
f 405/1/3 406/1/3 407/1/3 408/1/3
f 409/1/4 410/1/4 411/1/4 412/1/4
f 413/1/5 414/1/5 415/1/5 416/1/5
f 417/1/6 418/1/6 419/1/6 420/1/6
f 421/1/1 422/1/1 423/1/1 424/1/1
f 425/1/5 426/1/5 427/1/5 428/1/5
f 429/1/6 430/1/6 431/1/6 432/1/6
f 433/1/4 434/1/4 435/1/4 436/1/4
f 437/1/5 438/1/5 439/1/5 440/1/5
f 441/1/6 442/1/6 443/1/6 444/1/6
f 445/1/5 446/1/5 447/1/5 448/1/5
f 449/1/6 450/1/6 451/1/6 452/1/6
f 453/1/5 454/1/5 455/1/5 456/1/5
f 457/1/6 458/1/6 459/1/6 460/1/6
f 461/1/5 462/1/5 463/1/5 464/1/5
f 465/1/6 466/1/6 467/1/6 468/1/6
f 469/1/5 470/1/5 471/1/5 472/1/5
f 473/1/6 474/1/6 475/1/6 476/1/6
f 477/1/5 478/1/5 479/1/5 480/1/5
f 481/1/6 482/1/6 483/1/6 484/1/6
f 485/1/5 486/1/5 487/1/5 488/1/5
f 489/1/6 490/1/6 491/1/6 492/1/6
f 493/1/5 494/1/5 495/1/5 496/1/5
f 497/1/6 498/1/6 499/1/6 500/1/6
f 501/1/5 502/1/5 503/1/5 504/1/5
f 505/1/6 506/1/6 507/1/6 508/1/6
f 509/1/4 510/1/4 511/1/4 512/1/4
f 513/1/5 514/1/5 515/1/5 516/1/5
f 517/1/6 518/1/6 519/1/6 520/1/6
f 521/1/4 522/1/4 523/1/4 524/1/4
f 525/1/5 526/1/5 527/1/5 528/1/5
f 529/1/6 530/1/6 531/1/6 532/1/6
f 533/1/2 534/1/2 535/1/2 536/1/2
f 537/1/4 538/1/4 539/1/4 540/1/4
f 541/1/5 542/1/5 543/1/5 544/1/5
f 545/1/6 546/1/6 547/1/6 548/1/6
f 549/1/1 550/1/1 551/1/1 552/1/1
f 553/1/2 554/1/2 555/1/2 556/1/2
f 557/1/4 558/1/4 559/1/4 560/1/4
f 561/1/5 562/1/5 563/1/5 564/1/5
f 565/1/6 566/1/6 567/1/6 568/1/6
f 569/1/1 570/1/1 571/1/1 572/1/1
f 573/1/4 574/1/4 575/1/4 576/1/4
f 577/1/5 578/1/5 579/1/5 580/1/5
f 581/1/6 582/1/6 583/1/6 584/1/6
f 585/1/4 586/1/4 587/1/4 588/1/4
f 589/1/5 590/1/5 591/1/5 592/1/5
f 593/1/6 594/1/6 595/1/6 596/1/6
f 597/1/5 598/1/5 599/1/5 600/1/5
f 601/1/6 602/1/6 603/1/6 604/1/6
f 605/1/5 606/1/5 607/1/5 608/1/5
f 609/1/6 610/1/6 611/1/6 612/1/6
f 613/1/5 614/1/5 615/1/5 616/1/5
f 617/1/6 618/1/6 619/1/6 620/1/6
f 621/1/5 622/1/5 623/1/5 624/1/5
f 625/1/6 626/1/6 627/1/6 628/1/6
f 629/1/4 630/1/4 631/1/4 632/1/4
f 633/1/5 634/1/5 635/1/5 636/1/5
f 637/1/6 638/1/6 639/1/6 640/1/6
f 641/1/2 642/1/2 643/1/2 644/1/2
f 645/1/4 646/1/4 647/1/4 648/1/4
f 649/1/5 650/1/5 651/1/5 652/1/5
f 653/1/6 654/1/6 655/1/6 656/1/6
f 657/1/1 658/1/1 659/1/1 660/1/1
f 661/1/4 662/1/4 663/1/4 664/1/4
f 665/1/5 666/1/5 667/1/5 668/1/5
f 669/1/6 670/1/6 671/1/6 672/1/6
f 673/1/5 674/1/5 675/1/5 676/1/5
f 677/1/6 678/1/6 679/1/6 680/1/6
f 681/1/4 682/1/4 683/1/4 684/1/4
f 685/1/5 686/1/5 687/1/5 688/1/5
f 689/1/6 690/1/6 691/1/6 692/1/6
f 693/1/2 694/1/2 695/1/2 696/1/2
f 697/1/4 698/1/4 699/1/4 700/1/4
f 701/1/5 702/1/5 703/1/5 704/1/5
f 705/1/6 706/1/6 707/1/6 708/1/6
f 709/1/1 710/1/1 711/1/1 712/1/1
f 713/1/2 714/1/2 715/1/2 716/1/2
f 717/1/4 718/1/4 719/1/4 720/1/4
f 721/1/5 722/1/5 723/1/5 724/1/5
f 725/1/6 726/1/6 727/1/6 728/1/6

