# generated by vox_to_obj_exporter
# scale=0.1 center=false ground=false y_up=true

mtllib Fight_748.mtl
usemtl palette

# normals
vn -1 0 0
vn 1 0 0
vn 0 1 0
vn 0 -1 0
vn 0 0 1
vn 0 0 -1

# texcoords
vt 0.142578125 0.5

# verts
v 8 13 -2.6
v 8 12.9 -2.6
v 8 12.9 -2.5
v 8 13 -2.5
v 8 13 -2.6
v 8 13 -2.5
v 8.1 13 -2.5
v 8.1 13 -2.6
v 8 13 -2.5
v 8 12.9 -2.5
v 8.1 12.9 -2.5
v 8.1 13 -2.5
v 8.1 13 -2.6
v 8.1 12.9 -2.6
v 8 12.9 -2.6
v 8 13 -2.6
v 8.1 13 -2.6
v 8.1 13 -2.5
v 8.2 13 -2.5
v 8.2 13 -2.6
v 8.1 13 -2.5
v 8.1 12.9 -2.5
v 8.2 12.9 -2.5
v 8.2 13 -2.5
v 8.2 13 -2.6
v 8.2 12.9 -2.6
v 8.1 12.9 -2.6
v 8.1 13 -2.6
v 8.2 13 -2.6
v 8.2 13 -2.5
v 8.3 13 -2.5
v 8.3 13 -2.6
v 8.2 13 -2.5
v 8.2 12.9 -2.5
v 8.3 12.9 -2.5
v 8.3 13 -2.5
v 8.3 13 -2.6
v 8.3 12.9 -2.6
v 8.2 12.9 -2.6
v 8.2 13 -2.6
v 8.3 13 -2.6
v 8.3 13 -2.5
v 8.4 13 -2.5
v 8.4 13 -2.6
v 8.3 13 -2.5
v 8.3 12.9 -2.5
v 8.4 12.9 -2.5
v 8.4 13 -2.5
v 8.4 13 -2.6
v 8.4 12.9 -2.6
v 8.3 12.9 -2.6
v 8.3 13 -2.6
v 8.4 13 -2.6
v 8.4 13 -2.5
v 8.5 13 -2.5
v 8.5 13 -2.6
v 8.4 13 -2.5
v 8.4 12.9 -2.5
v 8.5 12.9 -2.5
v 8.5 13 -2.5
v 8.5 13 -2.6
v 8.5 12.9 -2.6
v 8.4 12.9 -2.6
v 8.4 13 -2.6
v 8.5 13 -2.6
v 8.5 13 -2.5
v 8.6 13 -2.5
v 8.6 13 -2.6
v 8.5 13 -2.5
v 8.5 12.9 -2.5
v 8.6 12.9 -2.5
v 8.6 13 -2.5
v 8.6 13 -2.6
v 8.6 12.9 -2.6
v 8.5 12.9 -2.6
v 8.5 13 -2.6
v 8.7 13 -2.5
v 8.7 12.9 -2.5
v 8.7 12.9 -2.6
v 8.7 13 -2.6
v 8.6 13 -2.6
v 8.6 13 -2.5
v 8.7 13 -2.5
v 8.7 13 -2.6
v 8.6 13 -2.5
v 8.6 12.9 -2.5
v 8.7 12.9 -2.5
v 8.7 13 -2.5
v 8.7 13 -2.6
v 8.7 12.9 -2.6
v 8.6 12.9 -2.6
v 8.6 13 -2.6
v 7.8 12.9 -2.6
v 7.8 12.8 -2.6
v 7.8 12.8 -2.5
v 7.8 12.9 -2.5
v 7.8 12.9 -2.6
v 7.8 12.9 -2.5
v 7.9 12.9 -2.5
v 7.9 12.9 -2.6
v 7.8 12.9 -2.5
v 7.8 12.8 -2.5
v 7.9 12.8 -2.5
v 7.9 12.9 -2.5
v 7.9 12.9 -2.6
v 7.9 12.8 -2.6
v 7.8 12.8 -2.6
v 7.8 12.9 -2.6
v 7.9 12.9 -2.6
v 7.9 12.9 -2.5
v 8 12.9 -2.5
v 8 12.9 -2.6
v 7.9 12.9 -2.5
v 7.9 12.8 -2.5
v 8 12.8 -2.5
v 8 12.9 -2.5
v 8 12.9 -2.6
v 8 12.8 -2.6
v 7.9 12.8 -2.6
v 7.9 12.9 -2.6
v 8 12.9 -2.5
v 8 12.8 -2.5
v 8.1 12.8 -2.5
v 8.1 12.9 -2.5
v 8.1 12.9 -2.6
v 8.1 12.8 -2.6
v 8 12.8 -2.6
v 8 12.9 -2.6
v 8.1 12.9 -2.5
v 8.1 12.8 -2.5
v 8.2 12.8 -2.5
v 8.2 12.9 -2.5
v 8.2 12.9 -2.6
v 8.2 12.8 -2.6
v 8.1 12.8 -2.6
v 8.1 12.9 -2.6
v 8.2 12.9 -2.5
v 8.2 12.8 -2.5
v 8.3 12.8 -2.5
v 8.3 12.9 -2.5
v 8.3 12.9 -2.6
v 8.3 12.8 -2.6
v 8.2 12.8 -2.6
v 8.2 12.9 -2.6
v 8.3 12.9 -2.5
v 8.3 12.8 -2.5
v 8.4 12.8 -2.5
v 8.4 12.9 -2.5
v 8.4 12.9 -2.6
v 8.4 12.8 -2.6
v 8.3 12.8 -2.6
v 8.3 12.9 -2.6
v 8.4 12.9 -2.5
v 8.4 12.8 -2.5
v 8.5 12.8 -2.5
v 8.5 12.9 -2.5
v 8.5 12.9 -2.6
v 8.5 12.8 -2.6
v 8.4 12.8 -2.6
v 8.4 12.9 -2.6
v 8.5 12.9 -2.5
v 8.5 12.8 -2.5
v 8.6 12.8 -2.5
v 8.6 12.9 -2.5
v 8.6 12.9 -2.6
v 8.6 12.8 -2.6
v 8.5 12.8 -2.6
v 8.5 12.9 -2.6
v 8.6 12.9 -2.5
v 8.6 12.8 -2.5
v 8.7 12.8 -2.5
v 8.7 12.9 -2.5
v 8.7 12.9 -2.6
v 8.7 12.8 -2.6
v 8.6 12.8 -2.6
v 8.6 12.9 -2.6
v 8.7 12.9 -2.6
v 8.7 12.9 -2.5
v 8.8 12.9 -2.5
v 8.8 12.9 -2.6
v 8.7 12.9 -2.5
v 8.7 12.8 -2.5
v 8.8 12.8 -2.5
v 8.8 12.9 -2.5
v 8.8 12.9 -2.6
v 8.8 12.8 -2.6
v 8.7 12.8 -2.6
v 8.7 12.9 -2.6
v 8.9 12.9 -2.5
v 8.9 12.8 -2.5
v 8.9 12.8 -2.6
v 8.9 12.9 -2.6
v 8.8 12.9 -2.6
v 8.8 12.9 -2.5
v 8.9 12.9 -2.5
v 8.9 12.9 -2.6
v 8.8 12.9 -2.5
v 8.8 12.8 -2.5
v 8.9 12.8 -2.5
v 8.9 12.9 -2.5
v 8.9 12.9 -2.6
v 8.9 12.8 -2.6
v 8.8 12.8 -2.6
v 8.8 12.9 -2.6
v 7.6 12.8 -2.6
v 7.6 12.7 -2.6
v 7.6 12.7 -2.5
v 7.6 12.8 -2.5
v 7.6 12.8 -2.6
v 7.6 12.8 -2.5
v 7.7 12.8 -2.5
v 7.7 12.8 -2.6
v 7.6 12.8 -2.5
v 7.6 12.7 -2.5
v 7.7 12.7 -2.5
v 7.7 12.8 -2.5
v 7.7 12.8 -2.6
v 7.7 12.7 -2.6
v 7.6 12.7 -2.6
v 7.6 12.8 -2.6
v 7.7 12.8 -2.6
v 7.7 12.8 -2.5
v 7.8 12.8 -2.5
v 7.8 12.8 -2.6
v 7.7 12.8 -2.5
v 7.7 12.7 -2.5
v 7.8 12.7 -2.5
v 7.8 12.8 -2.5
v 7.8 12.8 -2.6
v 7.8 12.7 -2.6
v 7.7 12.7 -2.6
v 7.7 12.8 -2.6
v 7.8 12.8 -2.5
v 7.8 12.7 -2.5
v 7.9 12.7 -2.5
v 7.9 12.8 -2.5
v 7.9 12.8 -2.6
v 7.9 12.7 -2.6
v 7.8 12.7 -2.6
v 7.8 12.8 -2.6
v 7.9 12.8 -2.5
v 7.9 12.7 -2.5
v 8 12.7 -2.5
v 8 12.8 -2.5
v 8 12.8 -2.6
v 8 12.7 -2.6
v 7.9 12.7 -2.6
v 7.9 12.8 -2.6
v 8 12.8 -2.5
v 8 12.7 -2.5
v 8.1 12.7 -2.5
v 8.1 12.8 -2.5
v 8.1 12.8 -2.6
v 8.1 12.7 -2.6
v 8 12.7 -2.6
v 8 12.8 -2.6
v 8.1 12.8 -2.5
v 8.1 12.7 -2.5
v 8.2 12.7 -2.5
v 8.2 12.8 -2.5
v 8.2 12.8 -2.6
v 8.2 12.7 -2.6
v 8.1 12.7 -2.6
v 8.1 12.8 -2.6
v 8.2 12.8 -2.5
v 8.2 12.7 -2.5
v 8.3 12.7 -2.5
v 8.3 12.8 -2.5
v 8.3 12.8 -2.6
v 8.3 12.7 -2.6
v 8.2 12.7 -2.6
v 8.2 12.8 -2.6
v 8.3 12.8 -2.5
v 8.3 12.7 -2.5
v 8.4 12.7 -2.5
v 8.4 12.8 -2.5
v 8.4 12.8 -2.6
v 8.4 12.7 -2.6
v 8.3 12.7 -2.6
v 8.3 12.8 -2.6
v 8.4 12.8 -2.5
v 8.4 12.7 -2.5
v 8.5 12.7 -2.5
v 8.5 12.8 -2.5
v 8.5 12.8 -2.6
v 8.5 12.7 -2.6
v 8.4 12.7 -2.6
v 8.4 12.8 -2.6
v 8.5 12.8 -2.5
v 8.5 12.7 -2.5
v 8.6 12.7 -2.5
v 8.6 12.8 -2.5
v 8.6 12.8 -2.6
v 8.6 12.7 -2.6
v 8.5 12.7 -2.6
v 8.5 12.8 -2.6
v 8.6 12.8 -2.5
v 8.6 12.7 -2.5
v 8.7 12.7 -2.5
v 8.7 12.8 -2.5
v 8.7 12.8 -2.6
v 8.7 12.7 -2.6
v 8.6 12.7 -2.6
v 8.6 12.8 -2.6
v 8.7 12.8 -2.5
v 8.7 12.7 -2.5
v 8.8 12.7 -2.5
v 8.8 12.8 -2.5
v 8.8 12.8 -2.6
v 8.8 12.7 -2.6
v 8.7 12.7 -2.6
v 8.7 12.8 -2.6
v 8.8 12.8 -2.5
v 8.8 12.7 -2.5
v 8.9 12.7 -2.5
v 8.9 12.8 -2.5
v 8.9 12.8 -2.6
v 8.9 12.7 -2.6
v 8.8 12.7 -2.6
v 8.8 12.8 -2.6
v 9 12.8 -2.5
v 9 12.7 -2.5
v 9 12.7 -2.6
v 9 12.8 -2.6
v 8.9 12.8 -2.6
v 8.9 12.8 -2.5
v 9 12.8 -2.5
v 9 12.8 -2.6
v 8.9 12.8 -2.5
v 8.9 12.7 -2.5
v 9 12.7 -2.5
v 9 12.8 -2.5
v 9 12.8 -2.6
v 9 12.7 -2.6
v 8.9 12.7 -2.6
v 8.9 12.8 -2.6
v 7.6 12.7 -2.6
v 7.6 12.6 -2.6
v 7.6 12.6 -2.5
v 7.6 12.7 -2.5
v 7.6 12.7 -2.5
v 7.6 12.6 -2.5
v 7.7 12.6 -2.5
v 7.7 12.7 -2.5
v 7.7 12.7 -2.6
v 7.7 12.6 -2.6
v 7.6 12.6 -2.6
v 7.6 12.7 -2.6
v 7.7 12.7 -2.5
v 7.7 12.6 -2.5
v 7.8 12.6 -2.5
v 7.8 12.7 -2.5
v 7.8 12.7 -2.6
v 7.8 12.6 -2.6
v 7.7 12.6 -2.6
v 7.7 12.7 -2.6
v 7.8 12.7 -2.5
v 7.8 12.6 -2.5
v 7.9 12.6 -2.5
v 7.9 12.7 -2.5
v 7.9 12.7 -2.6
v 7.9 12.6 -2.6
v 7.8 12.6 -2.6
v 7.8 12.7 -2.6
v 7.9 12.7 -2.5
v 7.9 12.6 -2.5
v 8 12.6 -2.5
v 8 12.7 -2.5
v 8 12.7 -2.6
v 8 12.6 -2.6
v 7.9 12.6 -2.6
v 7.9 12.7 -2.6
v 8 12.7 -2.5
v 8 12.6 -2.5
v 8.1 12.6 -2.5
v 8.1 12.7 -2.5
v 8.1 12.7 -2.6
v 8.1 12.6 -2.6
v 8 12.6 -2.6
v 8 12.7 -2.6
v 8.1 12.7 -2.5
v 8.1 12.6 -2.5
v 8.2 12.6 -2.5
v 8.2 12.7 -2.5
v 8.2 12.7 -2.6
v 8.2 12.6 -2.6
v 8.1 12.6 -2.6
v 8.1 12.7 -2.6
v 8.2 12.7 -2.5
v 8.2 12.6 -2.5
v 8.3 12.6 -2.5
v 8.3 12.7 -2.5
v 8.3 12.7 -2.6
v 8.3 12.6 -2.6
v 8.2 12.6 -2.6
v 8.2 12.7 -2.6
v 8.3 12.7 -2.5
v 8.3 12.6 -2.5
v 8.4 12.6 -2.5
v 8.4 12.7 -2.5
v 8.4 12.7 -2.6
v 8.4 12.6 -2.6
v 8.3 12.6 -2.6
v 8.3 12.7 -2.6
v 8.4 12.7 -2.5
v 8.4 12.6 -2.5
v 8.5 12.6 -2.5
v 8.5 12.7 -2.5
v 8.5 12.7 -2.6
v 8.5 12.6 -2.6
v 8.4 12.6 -2.6
v 8.4 12.7 -2.6
v 8.5 12.7 -2.5
v 8.5 12.6 -2.5
v 8.6 12.6 -2.5
v 8.6 12.7 -2.5
v 8.6 12.7 -2.6
v 8.6 12.6 -2.6
v 8.5 12.6 -2.6
v 8.5 12.7 -2.6
v 8.6 12.7 -2.5
v 8.6 12.6 -2.5
v 8.7 12.6 -2.5
v 8.7 12.7 -2.5
v 8.7 12.7 -2.6
v 8.7 12.6 -2.6
v 8.6 12.6 -2.6
v 8.6 12.7 -2.6
v 8.7 12.7 -2.5
v 8.7 12.6 -2.5
v 8.8 12.6 -2.5
v 8.8 12.7 -2.5
v 8.8 12.7 -2.6
v 8.8 12.6 -2.6
v 8.7 12.6 -2.6
v 8.7 12.7 -2.6
v 8.8 12.7 -2.5
v 8.8 12.6 -2.5
v 8.9 12.6 -2.5
v 8.9 12.7 -2.5
v 8.9 12.7 -2.6
v 8.9 12.6 -2.6
v 8.8 12.6 -2.6
v 8.8 12.7 -2.6
v 9 12.7 -2.5
v 9 12.6 -2.5
v 9 12.6 -2.6
v 9 12.7 -2.6
v 8.9 12.7 -2.5
v 8.9 12.6 -2.5
v 9 12.6 -2.5
v 9 12.7 -2.5
v 9 12.7 -2.6
v 9 12.6 -2.6
v 8.9 12.6 -2.6
v 8.9 12.7 -2.6
v 7.5 12.6 -2.6
v 7.5 12.5 -2.6
v 7.5 12.5 -2.5
v 7.5 12.6 -2.5
v 7.5 12.6 -2.6
v 7.5 12.6 -2.5
v 7.6 12.6 -2.5
v 7.6 12.6 -2.6
v 7.5 12.6 -2.5
v 7.5 12.5 -2.5
v 7.6 12.5 -2.5
v 7.6 12.6 -2.5
v 7.6 12.6 -2.6
v 7.6 12.5 -2.6
v 7.5 12.5 -2.6
v 7.5 12.6 -2.6
v 7.6 12.6 -2.5
v 7.6 12.5 -2.5
v 7.7 12.5 -2.5
v 7.7 12.6 -2.5
v 7.7 12.6 -2.6
v 7.7 12.5 -2.6
v 7.6 12.5 -2.6
v 7.6 12.6 -2.6
v 7.7 12.6 -2.5
v 7.7 12.5 -2.5
v 7.8 12.5 -2.5
v 7.8 12.6 -2.5
v 7.8 12.6 -2.6
v 7.8 12.5 -2.6
v 7.7 12.5 -2.6
v 7.7 12.6 -2.6
v 7.8 12.6 -2.5
v 7.8 12.5 -2.5
v 7.9 12.5 -2.5
v 7.9 12.6 -2.5
v 7.9 12.6 -2.6
v 7.9 12.5 -2.6
v 7.8 12.5 -2.6
v 7.8 12.6 -2.6
v 7.9 12.6 -2.5
v 7.9 12.5 -2.5
v 8 12.5 -2.5
v 8 12.6 -2.5
v 8 12.6 -2.6
v 8 12.5 -2.6
v 7.9 12.5 -2.6
v 7.9 12.6 -2.6
v 8 12.6 -2.5
v 8 12.5 -2.5
v 8.1 12.5 -2.5
v 8.1 12.6 -2.5
v 8.1 12.6 -2.6
v 8.1 12.5 -2.6
v 8 12.5 -2.6
v 8 12.6 -2.6
v 8.1 12.6 -2.5
v 8.1 12.5 -2.5
v 8.2 12.5 -2.5
v 8.2 12.6 -2.5
v 8.2 12.6 -2.6
v 8.2 12.5 -2.6
v 8.1 12.5 -2.6
v 8.1 12.6 -2.6
v 8.2 12.6 -2.5
v 8.2 12.5 -2.5
v 8.3 12.5 -2.5
v 8.3 12.6 -2.5
v 8.3 12.6 -2.6
v 8.3 12.5 -2.6
v 8.2 12.5 -2.6
v 8.2 12.6 -2.6
v 8.3 12.6 -2.5
v 8.3 12.5 -2.5
v 8.4 12.5 -2.5
v 8.4 12.6 -2.5
v 8.4 12.6 -2.6
v 8.4 12.5 -2.6
v 8.3 12.5 -2.6
v 8.3 12.6 -2.6
v 8.4 12.6 -2.5
v 8.4 12.5 -2.5
v 8.5 12.5 -2.5
v 8.5 12.6 -2.5
v 8.5 12.6 -2.6
v 8.5 12.5 -2.6
v 8.4 12.5 -2.6
v 8.4 12.6 -2.6
v 8.5 12.6 -2.5
v 8.5 12.5 -2.5
v 8.6 12.5 -2.5
v 8.6 12.6 -2.5
v 8.6 12.6 -2.6
v 8.6 12.5 -2.6
v 8.5 12.5 -2.6
v 8.5 12.6 -2.6
v 8.6 12.6 -2.5
v 8.6 12.5 -2.5
v 8.7 12.5 -2.5
v 8.7 12.6 -2.5
v 8.7 12.6 -2.6
v 8.7 12.5 -2.6
v 8.6 12.5 -2.6
v 8.6 12.6 -2.6
v 8.7 12.6 -2.5
v 8.7 12.5 -2.5
v 8.8 12.5 -2.5
v 8.8 12.6 -2.5
v 8.8 12.6 -2.6
v 8.8 12.5 -2.6
v 8.7 12.5 -2.6
v 8.7 12.6 -2.6
v 8.8 12.6 -2.5
v 8.8 12.5 -2.5
v 8.9 12.5 -2.5
v 8.9 12.6 -2.5
v 8.9 12.6 -2.6
v 8.9 12.5 -2.6
v 8.8 12.5 -2.6
v 8.8 12.6 -2.6
v 8.9 12.6 -2.5
v 8.9 12.5 -2.5
v 9 12.5 -2.5
v 9 12.6 -2.5
v 9 12.6 -2.6
v 9 12.5 -2.6
v 8.9 12.5 -2.6
v 8.9 12.6 -2.6
v 9.1 12.6 -2.5
v 9.1 12.5 -2.5
v 9.1 12.5 -2.6
v 9.1 12.6 -2.6
v 9 12.6 -2.6
v 9 12.6 -2.5
v 9.1 12.6 -2.5
v 9.1 12.6 -2.6
v 9 12.6 -2.5
v 9 12.5 -2.5
v 9.1 12.5 -2.5
v 9.1 12.6 -2.5
v 9.1 12.6 -2.6
v 9.1 12.5 -2.6
v 9 12.5 -2.6
v 9 12.6 -2.6
v 7.5 12.5 -2.6
v 7.5 12.4 -2.6
v 7.5 12.4 -2.5
v 7.5 12.5 -2.5
v 7.5 12.5 -2.5
v 7.5 12.4 -2.5
v 7.6 12.4 -2.5
v 7.6 12.5 -2.5
v 7.6 12.5 -2.6
v 7.6 12.4 -2.6
v 7.5 12.4 -2.6
v 7.5 12.5 -2.6
v 7.6 12.5 -2.5
v 7.6 12.4 -2.5
v 7.7 12.4 -2.5
v 7.7 12.5 -2.5
v 7.7 12.5 -2.6
v 7.7 12.4 -2.6
v 7.6 12.4 -2.6
v 7.6 12.5 -2.6
v 7.7 12.5 -2.5
v 7.7 12.4 -2.5
v 7.8 12.4 -2.5
v 7.8 12.5 -2.5
v 7.8 12.5 -2.6
v 7.8 12.4 -2.6
v 7.7 12.4 -2.6
v 7.7 12.5 -2.6
v 7.8 12.5 -2.5
v 7.8 12.4 -2.5
v 7.9 12.4 -2.5
v 7.9 12.5 -2.5
v 7.9 12.5 -2.6
v 7.9 12.4 -2.6
v 7.8 12.4 -2.6
v 7.8 12.5 -2.6
v 7.9 12.5 -2.5
v 7.9 12.4 -2.5
v 8 12.4 -2.5
v 8 12.5 -2.5
v 8 12.5 -2.6
v 8 12.4 -2.6
v 7.9 12.4 -2.6
v 7.9 12.5 -2.6
v 8 12.5 -2.5
v 8 12.4 -2.5
v 8.1 12.4 -2.5
v 8.1 12.5 -2.5
v 8.1 12.5 -2.6
v 8.1 12.4 -2.6
v 8 12.4 -2.6
v 8 12.5 -2.6
v 8.1 12.5 -2.5
v 8.1 12.4 -2.5
v 8.2 12.4 -2.5
v 8.2 12.5 -2.5
v 8.2 12.5 -2.6
v 8.2 12.4 -2.6
v 8.1 12.4 -2.6
v 8.1 12.5 -2.6
v 8.2 12.5 -2.5
v 8.2 12.4 -2.5
v 8.3 12.4 -2.5
v 8.3 12.5 -2.5
v 8.3 12.5 -2.6
v 8.3 12.4 -2.6
v 8.2 12.4 -2.6
v 8.2 12.5 -2.6
v 8.3 12.5 -2.5
v 8.3 12.4 -2.5
v 8.4 12.4 -2.5
v 8.4 12.5 -2.5
v 8.4 12.5 -2.6
v 8.4 12.4 -2.6
v 8.3 12.4 -2.6
v 8.3 12.5 -2.6
v 8.4 12.5 -2.5
v 8.4 12.4 -2.5
v 8.5 12.4 -2.5
v 8.5 12.5 -2.5
v 8.5 12.5 -2.6
v 8.5 12.4 -2.6
v 8.4 12.4 -2.6
v 8.4 12.5 -2.6
v 8.5 12.5 -2.5
v 8.5 12.4 -2.5
v 8.6 12.4 -2.5
v 8.6 12.5 -2.5
v 8.6 12.5 -2.6
v 8.6 12.4 -2.6
v 8.5 12.4 -2.6
v 8.5 12.5 -2.6
v 8.6 12.5 -2.5
v 8.6 12.4 -2.5
v 8.7 12.4 -2.5
v 8.7 12.5 -2.5
v 8.7 12.5 -2.6
v 8.7 12.4 -2.6
v 8.6 12.4 -2.6
v 8.6 12.5 -2.6
v 8.7 12.5 -2.5
v 8.7 12.4 -2.5
v 8.8 12.4 -2.5
v 8.8 12.5 -2.5
v 8.8 12.5 -2.6
v 8.8 12.4 -2.6
v 8.7 12.4 -2.6
v 8.7 12.5 -2.6
v 8.8 12.5 -2.5
v 8.8 12.4 -2.5
v 8.9 12.4 -2.5
v 8.9 12.5 -2.5
v 8.9 12.5 -2.6
v 8.9 12.4 -2.6
v 8.8 12.4 -2.6
v 8.8 12.5 -2.6
v 8.9 12.5 -2.5
v 8.9 12.4 -2.5
v 9 12.4 -2.5
v 9 12.5 -2.5
v 9 12.5 -2.6
v 9 12.4 -2.6
v 8.9 12.4 -2.6
v 8.9 12.5 -2.6
v 9.1 12.5 -2.5
v 9.1 12.4 -2.5
v 9.1 12.4 -2.6
v 9.1 12.5 -2.6
v 9 12.5 -2.5
v 9 12.4 -2.5
v 9.1 12.4 -2.5
v 9.1 12.5 -2.5
v 9.1 12.5 -2.6
v 9.1 12.4 -2.6
v 9 12.4 -2.6
v 9 12.5 -2.6
v 7.4 12.4 -2.6
v 7.4 12.3 -2.6
v 7.4 12.3 -2.5
v 7.4 12.4 -2.5
v 7.4 12.4 -2.6
v 7.4 12.4 -2.5
v 7.5 12.4 -2.5
v 7.5 12.4 -2.6
v 7.4 12.4 -2.5
v 7.4 12.3 -2.5
v 7.5 12.3 -2.5
v 7.5 12.4 -2.5
v 7.5 12.4 -2.6
v 7.5 12.3 -2.6
v 7.4 12.3 -2.6
v 7.4 12.4 -2.6
v 7.5 12.4 -2.5
v 7.5 12.3 -2.5
v 7.6 12.3 -2.5
v 7.6 12.4 -2.5
v 7.6 12.4 -2.6
v 7.6 12.3 -2.6
v 7.5 12.3 -2.6
v 7.5 12.4 -2.6
v 7.6 12.4 -2.5
v 7.6 12.3 -2.5
v 7.7 12.3 -2.5
v 7.7 12.4 -2.5
v 7.7 12.4 -2.6
v 7.7 12.3 -2.6
v 7.6 12.3 -2.6
v 7.6 12.4 -2.6
v 7.7 12.4 -2.5
v 7.7 12.3 -2.5
v 7.8 12.3 -2.5
v 7.8 12.4 -2.5
v 7.8 12.4 -2.6
v 7.8 12.3 -2.6
v 7.7 12.3 -2.6
v 7.7 12.4 -2.6
v 7.8 12.4 -2.5
v 7.8 12.3 -2.5
v 7.9 12.3 -2.5
v 7.9 12.4 -2.5
v 7.9 12.4 -2.6
v 7.9 12.3 -2.6
v 7.8 12.3 -2.6
v 7.8 12.4 -2.6
v 7.9 12.4 -2.5
v 7.9 12.3 -2.5
v 8 12.3 -2.5
v 8 12.4 -2.5
v 8 12.4 -2.6
v 8 12.3 -2.6
v 7.9 12.3 -2.6
v 7.9 12.4 -2.6
v 8 12.4 -2.5
v 8 12.3 -2.5
v 8.1 12.3 -2.5
v 8.1 12.4 -2.5
v 8.1 12.4 -2.6
v 8.1 12.3 -2.6
v 8 12.3 -2.6
v 8 12.4 -2.6
v 8.1 12.4 -2.5
v 8.1 12.3 -2.5
v 8.2 12.3 -2.5
v 8.2 12.4 -2.5
v 8.2 12.4 -2.6
v 8.2 12.3 -2.6
v 8.1 12.3 -2.6
v 8.1 12.4 -2.6
v 8.2 12.4 -2.5
v 8.2 12.3 -2.5
v 8.3 12.3 -2.5
v 8.3 12.4 -2.5
v 8.3 12.4 -2.6
v 8.3 12.3 -2.6
v 8.2 12.3 -2.6
v 8.2 12.4 -2.6
v 8.3 12.4 -2.5
v 8.3 12.3 -2.5
v 8.4 12.3 -2.5
v 8.4 12.4 -2.5
v 8.4 12.4 -2.6
v 8.4 12.3 -2.6
v 8.3 12.3 -2.6
v 8.3 12.4 -2.6
v 8.4 12.4 -2.5
v 8.4 12.3 -2.5
v 8.5 12.3 -2.5
v 8.5 12.4 -2.5
v 8.5 12.4 -2.6
v 8.5 12.3 -2.6
v 8.4 12.3 -2.6
v 8.4 12.4 -2.6
v 8.5 12.4 -2.5
v 8.5 12.3 -2.5
v 8.6 12.3 -2.5
v 8.6 12.4 -2.5
v 8.6 12.4 -2.6
v 8.6 12.3 -2.6
v 8.5 12.3 -2.6
v 8.5 12.4 -2.6
v 8.6 12.4 -2.5
v 8.6 12.3 -2.5
v 8.7 12.3 -2.5
v 8.7 12.4 -2.5
v 8.7 12.4 -2.6
v 8.7 12.3 -2.6
v 8.6 12.3 -2.6
v 8.6 12.4 -2.6
v 8.7 12.4 -2.5
v 8.7 12.3 -2.5
v 8.8 12.3 -2.5
v 8.8 12.4 -2.5
v 8.8 12.4 -2.6
v 8.8 12.3 -2.6
v 8.7 12.3 -2.6
v 8.7 12.4 -2.6
v 8.8 12.4 -2.5
v 8.8 12.3 -2.5
v 8.9 12.3 -2.5
v 8.9 12.4 -2.5
v 8.9 12.4 -2.6
v 8.9 12.3 -2.6
v 8.8 12.3 -2.6
v 8.8 12.4 -2.6
v 8.9 12.4 -2.5
v 8.9 12.3 -2.5
v 9 12.3 -2.5
v 9 12.4 -2.5
v 9 12.4 -2.6
v 9 12.3 -2.6
v 8.9 12.3 -2.6
v 8.9 12.4 -2.6
v 9 12.4 -2.5
v 9 12.3 -2.5
v 9.1 12.3 -2.5
v 9.1 12.4 -2.5
v 9.1 12.4 -2.6
v 9.1 12.3 -2.6
v 9 12.3 -2.6
v 9 12.4 -2.6
v 9.2 12.4 -2.5
v 9.2 12.3 -2.5
v 9.2 12.3 -2.6
v 9.2 12.4 -2.6
v 9.1 12.4 -2.6
v 9.1 12.4 -2.5
v 9.2 12.4 -2.5
v 9.2 12.4 -2.6
v 9.1 12.4 -2.5
v 9.1 12.3 -2.5
v 9.2 12.3 -2.5
v 9.2 12.4 -2.5
v 9.2 12.4 -2.6
v 9.2 12.3 -2.6
v 9.1 12.3 -2.6
v 9.1 12.4 -2.6
v 7.4 12.3 -2.6
v 7.4 12.2 -2.6
v 7.4 12.2 -2.5
v 7.4 12.3 -2.5
v 7.4 12.3 -2.5
v 7.4 12.2 -2.5
v 7.5 12.2 -2.5
v 7.5 12.3 -2.5
v 7.5 12.3 -2.6
v 7.5 12.2 -2.6
v 7.4 12.2 -2.6
v 7.4 12.3 -2.6
v 7.5 12.3 -2.5
v 7.5 12.2 -2.5
v 7.6 12.2 -2.5
v 7.6 12.3 -2.5
v 7.6 12.3 -2.6
v 7.6 12.2 -2.6
v 7.5 12.2 -2.6
v 7.5 12.3 -2.6
v 7.6 12.3 -2.5
v 7.6 12.2 -2.5
v 7.7 12.2 -2.5
v 7.7 12.3 -2.5
v 7.7 12.3 -2.6
v 7.7 12.2 -2.6
v 7.6 12.2 -2.6
v 7.6 12.3 -2.6
v 7.7 12.3 -2.5
v 7.7 12.2 -2.5
v 7.8 12.2 -2.5
v 7.8 12.3 -2.5
v 7.8 12.3 -2.6
v 7.8 12.2 -2.6
v 7.7 12.2 -2.6
v 7.7 12.3 -2.6
v 7.8 12.3 -2.5
v 7.8 12.2 -2.5
v 7.9 12.2 -2.5
v 7.9 12.3 -2.5
v 7.9 12.3 -2.6
v 7.9 12.2 -2.6
v 7.8 12.2 -2.6
v 7.8 12.3 -2.6
v 7.9 12.3 -2.5
v 7.9 12.2 -2.5
v 8 12.2 -2.5
v 8 12.3 -2.5
v 8 12.3 -2.6
v 8 12.2 -2.6
v 7.9 12.2 -2.6
v 7.9 12.3 -2.6
v 8 12.3 -2.5
v 8 12.2 -2.5
v 8.1 12.2 -2.5
v 8.1 12.3 -2.5
v 8.1 12.3 -2.6
v 8.1 12.2 -2.6
v 8 12.2 -2.6
v 8 12.3 -2.6
v 8.1 12.3 -2.5
v 8.1 12.2 -2.5
v 8.2 12.2 -2.5
v 8.2 12.3 -2.5
v 8.2 12.3 -2.6
v 8.2 12.2 -2.6
v 8.1 12.2 -2.6
v 8.1 12.3 -2.6
v 8.2 12.3 -2.5
v 8.2 12.2 -2.5
v 8.3 12.2 -2.5
v 8.3 12.3 -2.5
v 8.3 12.3 -2.6
v 8.3 12.2 -2.6
v 8.2 12.2 -2.6
v 8.2 12.3 -2.6
v 8.3 12.3 -2.5
v 8.3 12.2 -2.5
v 8.4 12.2 -2.5
v 8.4 12.3 -2.5
v 8.4 12.3 -2.6
v 8.4 12.2 -2.6
v 8.3 12.2 -2.6
v 8.3 12.3 -2.6
v 8.4 12.3 -2.5
v 8.4 12.2 -2.5
v 8.5 12.2 -2.5
v 8.5 12.3 -2.5
v 8.5 12.3 -2.6
v 8.5 12.2 -2.6
v 8.4 12.2 -2.6
v 8.4 12.3 -2.6
v 8.5 12.3 -2.5
v 8.5 12.2 -2.5
v 8.6 12.2 -2.5
v 8.6 12.3 -2.5
v 8.6 12.3 -2.6
v 8.6 12.2 -2.6
v 8.5 12.2 -2.6
v 8.5 12.3 -2.6
v 8.6 12.3 -2.5
v 8.6 12.2 -2.5
v 8.7 12.2 -2.5
v 8.7 12.3 -2.5
v 8.7 12.3 -2.6
v 8.7 12.2 -2.6
v 8.6 12.2 -2.6
v 8.6 12.3 -2.6
v 8.7 12.3 -2.5
v 8.7 12.2 -2.5
v 8.8 12.2 -2.5
v 8.8 12.3 -2.5
v 8.8 12.3 -2.6
v 8.8 12.2 -2.6
v 8.7 12.2 -2.6
v 8.7 12.3 -2.6
v 8.8 12.3 -2.5
v 8.8 12.2 -2.5
v 8.9 12.2 -2.5
v 8.9 12.3 -2.5
v 8.9 12.3 -2.6
v 8.9 12.2 -2.6
v 8.8 12.2 -2.6
v 8.8 12.3 -2.6
v 8.9 12.3 -2.5
v 8.9 12.2 -2.5
v 9 12.2 -2.5
v 9 12.3 -2.5
v 9 12.3 -2.6
v 9 12.2 -2.6
v 8.9 12.2 -2.6
v 8.9 12.3 -2.6
v 9 12.3 -2.5
v 9 12.2 -2.5
v 9.1 12.2 -2.5
v 9.1 12.3 -2.5
v 9.1 12.3 -2.6
v 9.1 12.2 -2.6
v 9 12.2 -2.6
v 9 12.3 -2.6
v 9.2 12.3 -2.5
v 9.2 12.2 -2.5
v 9.2 12.2 -2.6
v 9.2 12.3 -2.6
v 9.1 12.3 -2.5
v 9.1 12.2 -2.5
v 9.2 12.2 -2.5
v 9.2 12.3 -2.5
v 9.2 12.3 -2.6
v 9.2 12.2 -2.6
v 9.1 12.2 -2.6
v 9.1 12.3 -2.6
v 7.4 12.2 -2.6
v 7.4 12.1 -2.6
v 7.4 12.1 -2.5
v 7.4 12.2 -2.5
v 7.4 12.2 -2.5
v 7.4 12.1 -2.5
v 7.5 12.1 -2.5
v 7.5 12.2 -2.5
v 7.5 12.2 -2.6
v 7.5 12.1 -2.6
v 7.4 12.1 -2.6
v 7.4 12.2 -2.6
v 7.5 12.2 -2.5
v 7.5 12.1 -2.5
v 7.6 12.1 -2.5
v 7.6 12.2 -2.5
v 7.6 12.2 -2.6
v 7.6 12.1 -2.6
v 7.5 12.1 -2.6
v 7.5 12.2 -2.6
v 7.6 12.2 -2.5
v 7.6 12.1 -2.5
v 7.7 12.1 -2.5
v 7.7 12.2 -2.5
v 7.7 12.2 -2.6
v 7.7 12.1 -2.6
v 7.6 12.1 -2.6
v 7.6 12.2 -2.6
v 7.7 12.2 -2.5
v 7.7 12.1 -2.5
v 7.8 12.1 -2.5
v 7.8 12.2 -2.5
v 7.8 12.2 -2.6
v 7.8 12.1 -2.6
v 7.7 12.1 -2.6
v 7.7 12.2 -2.6
v 7.8 12.2 -2.5
v 7.8 12.1 -2.5
v 7.9 12.1 -2.5
v 7.9 12.2 -2.5
v 7.9 12.2 -2.6
v 7.9 12.1 -2.6
v 7.8 12.1 -2.6
v 7.8 12.2 -2.6
v 7.9 12.2 -2.5
v 7.9 12.1 -2.5
v 8 12.1 -2.5
v 8 12.2 -2.5
v 8 12.2 -2.6
v 8 12.1 -2.6
v 7.9 12.1 -2.6
v 7.9 12.2 -2.6
v 8 12.2 -2.5
v 8 12.1 -2.5
v 8.1 12.1 -2.5
v 8.1 12.2 -2.5
v 8.1 12.2 -2.6
v 8.1 12.1 -2.6
v 8 12.1 -2.6
v 8 12.2 -2.6
v 8.1 12.2 -2.5
v 8.1 12.1 -2.5
v 8.2 12.1 -2.5
v 8.2 12.2 -2.5
v 8.2 12.2 -2.6
v 8.2 12.1 -2.6
v 8.1 12.1 -2.6
v 8.1 12.2 -2.6
v 8.2 12.2 -2.5
v 8.2 12.1 -2.5
v 8.3 12.1 -2.5
v 8.3 12.2 -2.5
v 8.3 12.2 -2.6
v 8.3 12.1 -2.6
v 8.2 12.1 -2.6
v 8.2 12.2 -2.6
v 8.3 12.2 -2.5
v 8.3 12.1 -2.5
v 8.4 12.1 -2.5
v 8.4 12.2 -2.5
v 8.4 12.2 -2.6
v 8.4 12.1 -2.6
v 8.3 12.1 -2.6
v 8.3 12.2 -2.6
v 8.4 12.2 -2.5
v 8.4 12.1 -2.5
v 8.5 12.1 -2.5
v 8.5 12.2 -2.5
v 8.5 12.2 -2.6
v 8.5 12.1 -2.6
v 8.4 12.1 -2.6
v 8.4 12.2 -2.6
v 8.5 12.2 -2.5
v 8.5 12.1 -2.5
v 8.6 12.1 -2.5
v 8.6 12.2 -2.5
v 8.6 12.2 -2.6
v 8.6 12.1 -2.6
v 8.5 12.1 -2.6
v 8.5 12.2 -2.6
v 8.6 12.2 -2.5
v 8.6 12.1 -2.5
v 8.7 12.1 -2.5
v 8.7 12.2 -2.5
v 8.7 12.2 -2.6
v 8.7 12.1 -2.6
v 8.6 12.1 -2.6
v 8.6 12.2 -2.6
v 8.7 12.2 -2.5
v 8.7 12.1 -2.5
v 8.8 12.1 -2.5
v 8.8 12.2 -2.5
v 8.8 12.2 -2.6
v 8.8 12.1 -2.6
v 8.7 12.1 -2.6
v 8.7 12.2 -2.6
v 8.8 12.2 -2.5
v 8.8 12.1 -2.5
v 8.9 12.1 -2.5
v 8.9 12.2 -2.5
v 8.9 12.2 -2.6
v 8.9 12.1 -2.6
v 8.8 12.1 -2.6
v 8.8 12.2 -2.6
v 8.9 12.2 -2.5
v 8.9 12.1 -2.5
v 9 12.1 -2.5
v 9 12.2 -2.5
v 9 12.2 -2.6
v 9 12.1 -2.6
v 8.9 12.1 -2.6
v 8.9 12.2 -2.6
v 9 12.2 -2.5
v 9 12.1 -2.5
v 9.1 12.1 -2.5
v 9.1 12.2 -2.5
v 9.1 12.2 -2.6
v 9.1 12.1 -2.6
v 9 12.1 -2.6
v 9 12.2 -2.6
v 9.2 12.2 -2.5
v 9.2 12.1 -2.5
v 9.2 12.1 -2.6
v 9.2 12.2 -2.6
v 9.1 12.2 -2.5
v 9.1 12.1 -2.5
v 9.2 12.1 -2.5
v 9.2 12.2 -2.5
v 9.2 12.2 -2.6
v 9.2 12.1 -2.6
v 9.1 12.1 -2.6
v 9.1 12.2 -2.6
v 7.4 12.1 -2.6
v 7.4 12 -2.6
v 7.4 12 -2.5
v 7.4 12.1 -2.5
v 7.4 12.1 -2.5
v 7.4 12 -2.5
v 7.5 12 -2.5
v 7.5 12.1 -2.5
v 7.5 12.1 -2.6
v 7.5 12 -2.6
v 7.4 12 -2.6
v 7.4 12.1 -2.6
v 7.5 12.1 -2.5
v 7.5 12 -2.5
v 7.6 12 -2.5
v 7.6 12.1 -2.5
v 7.6 12.1 -2.6
v 7.6 12 -2.6
v 7.5 12 -2.6
v 7.5 12.1 -2.6
v 7.6 12.1 -2.5
v 7.6 12 -2.5
v 7.7 12 -2.5
v 7.7 12.1 -2.5
v 7.7 12.1 -2.6
v 7.7 12 -2.6
v 7.6 12 -2.6
v 7.6 12.1 -2.6
v 7.7 12.1 -2.5
v 7.7 12 -2.5
v 7.8 12 -2.5
v 7.8 12.1 -2.5
v 7.8 12.1 -2.6
v 7.8 12 -2.6
v 7.7 12 -2.6
v 7.7 12.1 -2.6
v 7.8 12.1 -2.5
v 7.8 12 -2.5
v 7.9 12 -2.5
v 7.9 12.1 -2.5
v 7.9 12.1 -2.6
v 7.9 12 -2.6
v 7.8 12 -2.6
v 7.8 12.1 -2.6
v 7.9 12.1 -2.5
v 7.9 12 -2.5
v 8 12 -2.5
v 8 12.1 -2.5
v 8 12.1 -2.6
v 8 12 -2.6
v 7.9 12 -2.6
v 7.9 12.1 -2.6
v 8 12.1 -2.5
v 8 12 -2.5
v 8.1 12 -2.5
v 8.1 12.1 -2.5
v 8.1 12.1 -2.6
v 8.1 12 -2.6
v 8 12 -2.6
v 8 12.1 -2.6
v 8.1 12.1 -2.5
v 8.1 12 -2.5
v 8.2 12 -2.5
v 8.2 12.1 -2.5
v 8.2 12.1 -2.6
v 8.2 12 -2.6
v 8.1 12 -2.6
v 8.1 12.1 -2.6
v 8.2 12.1 -2.5
v 8.2 12 -2.5
v 8.3 12 -2.5
v 8.3 12.1 -2.5
v 8.3 12.1 -2.6
v 8.3 12 -2.6
v 8.2 12 -2.6
v 8.2 12.1 -2.6
v 8.3 12.1 -2.5
v 8.3 12 -2.5
v 8.4 12 -2.5
v 8.4 12.1 -2.5
v 8.4 12.1 -2.6
v 8.4 12 -2.6
v 8.3 12 -2.6
v 8.3 12.1 -2.6
v 8.4 12.1 -2.5
v 8.4 12 -2.5
v 8.5 12 -2.5
v 8.5 12.1 -2.5
v 8.5 12.1 -2.6
v 8.5 12 -2.6
v 8.4 12 -2.6
v 8.4 12.1 -2.6
v 8.5 12.1 -2.5
v 8.5 12 -2.5
v 8.6 12 -2.5
v 8.6 12.1 -2.5
v 8.6 12.1 -2.6
v 8.6 12 -2.6
v 8.5 12 -2.6
v 8.5 12.1 -2.6
v 8.6 12.1 -2.5
v 8.6 12 -2.5
v 8.7 12 -2.5
v 8.7 12.1 -2.5
v 8.7 12.1 -2.6
v 8.7 12 -2.6
v 8.6 12 -2.6
v 8.6 12.1 -2.6
v 8.7 12.1 -2.5
v 8.7 12 -2.5
v 8.8 12 -2.5
v 8.8 12.1 -2.5
v 8.8 12.1 -2.6
v 8.8 12 -2.6
v 8.7 12 -2.6
v 8.7 12.1 -2.6
v 8.8 12.1 -2.5
v 8.8 12 -2.5
v 8.9 12 -2.5
v 8.9 12.1 -2.5
v 8.9 12.1 -2.6
v 8.9 12 -2.6
v 8.8 12 -2.6
v 8.8 12.1 -2.6
v 8.9 12.1 -2.5
v 8.9 12 -2.5
v 9 12 -2.5
v 9 12.1 -2.5
v 9 12.1 -2.6
v 9 12 -2.6
v 8.9 12 -2.6
v 8.9 12.1 -2.6
v 9 12.1 -2.5
v 9 12 -2.5
v 9.1 12 -2.5
v 9.1 12.1 -2.5
v 9.1 12.1 -2.6
v 9.1 12 -2.6
v 9 12 -2.6
v 9 12.1 -2.6
v 9.2 12.1 -2.5
v 9.2 12 -2.5
v 9.2 12 -2.6
v 9.2 12.1 -2.6
v 9.1 12.1 -2.5
v 9.1 12 -2.5
v 9.2 12 -2.5
v 9.2 12.1 -2.5
v 9.2 12.1 -2.6
v 9.2 12 -2.6
v 9.1 12 -2.6
v 9.1 12.1 -2.6
v 7.4 12 -2.6
v 7.4 11.9 -2.6
v 7.4 11.9 -2.5
v 7.4 12 -2.5
v 7.4 11.9 -2.5
v 7.4 11.9 -2.6
v 7.5 11.9 -2.6
v 7.5 11.9 -2.5
v 7.4 12 -2.5
v 7.4 11.9 -2.5
v 7.5 11.9 -2.5
v 7.5 12 -2.5
v 7.5 12 -2.6
v 7.5 11.9 -2.6
v 7.4 11.9 -2.6
v 7.4 12 -2.6
v 7.5 12 -2.5
v 7.5 11.9 -2.5
v 7.6 11.9 -2.5
v 7.6 12 -2.5
v 7.6 12 -2.6
v 7.6 11.9 -2.6
v 7.5 11.9 -2.6
v 7.5 12 -2.6
v 7.6 12 -2.5
v 7.6 11.9 -2.5
v 7.7 11.9 -2.5
v 7.7 12 -2.5
v 7.7 12 -2.6
v 7.7 11.9 -2.6
v 7.6 11.9 -2.6
v 7.6 12 -2.6
v 7.7 12 -2.5
v 7.7 11.9 -2.5
v 7.8 11.9 -2.5
v 7.8 12 -2.5
v 7.8 12 -2.6
v 7.8 11.9 -2.6
v 7.7 11.9 -2.6
v 7.7 12 -2.6
v 7.8 12 -2.5
v 7.8 11.9 -2.5
v 7.9 11.9 -2.5
v 7.9 12 -2.5
v 7.9 12 -2.6
v 7.9 11.9 -2.6
v 7.8 11.9 -2.6
v 7.8 12 -2.6
v 7.9 12 -2.5
v 7.9 11.9 -2.5
v 8 11.9 -2.5
v 8 12 -2.5
v 8 12 -2.6
v 8 11.9 -2.6
v 7.9 11.9 -2.6
v 7.9 12 -2.6
v 8 12 -2.5
v 8 11.9 -2.5
v 8.1 11.9 -2.5
v 8.1 12 -2.5
v 8.1 12 -2.6
v 8.1 11.9 -2.6
v 8 11.9 -2.6
v 8 12 -2.6
v 8.1 12 -2.5
v 8.1 11.9 -2.5
v 8.2 11.9 -2.5
v 8.2 12 -2.5
v 8.2 12 -2.6
v 8.2 11.9 -2.6
v 8.1 11.9 -2.6
v 8.1 12 -2.6
v 8.2 12 -2.5
v 8.2 11.9 -2.5
v 8.3 11.9 -2.5
v 8.3 12 -2.5
v 8.3 12 -2.6
v 8.3 11.9 -2.6
v 8.2 11.9 -2.6
v 8.2 12 -2.6
v 8.3 12 -2.5
v 8.3 11.9 -2.5
v 8.4 11.9 -2.5
v 8.4 12 -2.5
v 8.4 12 -2.6
v 8.4 11.9 -2.6
v 8.3 11.9 -2.6
v 8.3 12 -2.6
v 8.4 12 -2.5
v 8.4 11.9 -2.5
v 8.5 11.9 -2.5
v 8.5 12 -2.5
v 8.5 12 -2.6
v 8.5 11.9 -2.6
v 8.4 11.9 -2.6
v 8.4 12 -2.6
v 8.5 12 -2.5
v 8.5 11.9 -2.5
v 8.6 11.9 -2.5
v 8.6 12 -2.5
v 8.6 12 -2.6
v 8.6 11.9 -2.6
v 8.5 11.9 -2.6
v 8.5 12 -2.6
v 8.6 12 -2.5
v 8.6 11.9 -2.5
v 8.7 11.9 -2.5
v 8.7 12 -2.5
v 8.7 12 -2.6
v 8.7 11.9 -2.6
v 8.6 11.9 -2.6
v 8.6 12 -2.6
v 8.7 12 -2.5
v 8.7 11.9 -2.5
v 8.8 11.9 -2.5
v 8.8 12 -2.5
v 8.8 12 -2.6
v 8.8 11.9 -2.6
v 8.7 11.9 -2.6
v 8.7 12 -2.6
v 8.8 12 -2.5
v 8.8 11.9 -2.5
v 8.9 11.9 -2.5
v 8.9 12 -2.5
v 8.9 12 -2.6
v 8.9 11.9 -2.6
v 8.8 11.9 -2.6
v 8.8 12 -2.6
v 8.9 12 -2.5
v 8.9 11.9 -2.5
v 9 11.9 -2.5
v 9 12 -2.5
v 9 12 -2.6
v 9 11.9 -2.6
v 8.9 11.9 -2.6
v 8.9 12 -2.6
v 9 12 -2.5
v 9 11.9 -2.5
v 9.1 11.9 -2.5
v 9.1 12 -2.5
v 9.1 12 -2.6
v 9.1 11.9 -2.6
v 9 11.9 -2.6
v 9 12 -2.6
v 9.2 12 -2.5
v 9.2 11.9 -2.5
v 9.2 11.9 -2.6
v 9.2 12 -2.6
v 9.1 11.9 -2.5
v 9.1 11.9 -2.6
v 9.2 11.9 -2.6
v 9.2 11.9 -2.5
v 9.1 12 -2.5
v 9.1 11.9 -2.5
v 9.2 11.9 -2.5
v 9.2 12 -2.5
v 9.2 12 -2.6
v 9.2 11.9 -2.6
v 9.1 11.9 -2.6
v 9.1 12 -2.6
v 7.5 11.9 -2.6
v 7.5 11.8 -2.6
v 7.5 11.8 -2.5
v 7.5 11.9 -2.5
v 7.5 11.9 -2.5
v 7.5 11.8 -2.5
v 7.6 11.8 -2.5
v 7.6 11.9 -2.5
v 7.6 11.9 -2.6
v 7.6 11.8 -2.6
v 7.5 11.8 -2.6
v 7.5 11.9 -2.6
v 7.6 11.9 -2.5
v 7.6 11.8 -2.5
v 7.7 11.8 -2.5
v 7.7 11.9 -2.5
v 7.7 11.9 -2.6
v 7.7 11.8 -2.6
v 7.6 11.8 -2.6
v 7.6 11.9 -2.6
v 7.7 11.9 -2.5
v 7.7 11.8 -2.5
v 7.8 11.8 -2.5
v 7.8 11.9 -2.5
v 7.8 11.9 -2.6
v 7.8 11.8 -2.6
v 7.7 11.8 -2.6
v 7.7 11.9 -2.6
v 7.8 11.9 -2.5
v 7.8 11.8 -2.5
v 7.9 11.8 -2.5
v 7.9 11.9 -2.5
v 7.9 11.9 -2.6
v 7.9 11.8 -2.6
v 7.8 11.8 -2.6
v 7.8 11.9 -2.6
v 7.9 11.9 -2.5
v 7.9 11.8 -2.5
v 8 11.8 -2.5
v 8 11.9 -2.5
v 8 11.9 -2.6
v 8 11.8 -2.6
v 7.9 11.8 -2.6
v 7.9 11.9 -2.6
v 8 11.9 -2.5
v 8 11.8 -2.5
v 8.1 11.8 -2.5
v 8.1 11.9 -2.5
v 8.1 11.9 -2.6
v 8.1 11.8 -2.6
v 8 11.8 -2.6
v 8 11.9 -2.6
v 8.1 11.9 -2.5
v 8.1 11.8 -2.5
v 8.2 11.8 -2.5
v 8.2 11.9 -2.5
v 8.2 11.9 -2.6
v 8.2 11.8 -2.6
v 8.1 11.8 -2.6
v 8.1 11.9 -2.6
v 8.2 11.9 -2.5
v 8.2 11.8 -2.5
v 8.3 11.8 -2.5
v 8.3 11.9 -2.5
v 8.3 11.9 -2.6
v 8.3 11.8 -2.6
v 8.2 11.8 -2.6
v 8.2 11.9 -2.6
v 8.3 11.9 -2.5
v 8.3 11.8 -2.5
v 8.4 11.8 -2.5
v 8.4 11.9 -2.5
v 8.4 11.9 -2.6
v 8.4 11.8 -2.6
v 8.3 11.8 -2.6
v 8.3 11.9 -2.6
v 8.4 11.9 -2.5
v 8.4 11.8 -2.5
v 8.5 11.8 -2.5
v 8.5 11.9 -2.5
v 8.5 11.9 -2.6
v 8.5 11.8 -2.6
v 8.4 11.8 -2.6
v 8.4 11.9 -2.6
v 8.5 11.9 -2.5
v 8.5 11.8 -2.5
v 8.6 11.8 -2.5
v 8.6 11.9 -2.5
v 8.6 11.9 -2.6
v 8.6 11.8 -2.6
v 8.5 11.8 -2.6
v 8.5 11.9 -2.6
v 8.6 11.9 -2.5
v 8.6 11.8 -2.5
v 8.7 11.8 -2.5
v 8.7 11.9 -2.5
v 8.7 11.9 -2.6
v 8.7 11.8 -2.6
v 8.6 11.8 -2.6
v 8.6 11.9 -2.6
v 8.7 11.9 -2.5
v 8.7 11.8 -2.5
v 8.8 11.8 -2.5
v 8.8 11.9 -2.5
v 8.8 11.9 -2.6
v 8.8 11.8 -2.6
v 8.7 11.8 -2.6
v 8.7 11.9 -2.6
v 8.8 11.9 -2.5
v 8.8 11.8 -2.5
v 8.9 11.8 -2.5
v 8.9 11.9 -2.5
v 8.9 11.9 -2.6
v 8.9 11.8 -2.6
v 8.8 11.8 -2.6
v 8.8 11.9 -2.6
v 8.9 11.9 -2.5
v 8.9 11.8 -2.5
v 9 11.8 -2.5
v 9 11.9 -2.5
v 9 11.9 -2.6
v 9 11.8 -2.6
v 8.9 11.8 -2.6
v 8.9 11.9 -2.6
v 9.1 11.9 -2.5
v 9.1 11.8 -2.5
v 9.1 11.8 -2.6
v 9.1 11.9 -2.6
v 9 11.9 -2.5
v 9 11.8 -2.5
v 9.1 11.8 -2.5
v 9.1 11.9 -2.5
v 9.1 11.9 -2.6
v 9.1 11.8 -2.6
v 9 11.8 -2.6
v 9 11.9 -2.6
v 7.5 11.8 -2.6
v 7.5 11.7 -2.6
v 7.5 11.7 -2.5
v 7.5 11.8 -2.5
v 7.5 11.7 -2.5
v 7.5 11.7 -2.6
v 7.6 11.7 -2.6
v 7.6 11.7 -2.5
v 7.5 11.8 -2.5
v 7.5 11.7 -2.5
v 7.6 11.7 -2.5
v 7.6 11.8 -2.5
v 7.6 11.8 -2.6
v 7.6 11.7 -2.6
v 7.5 11.7 -2.6
v 7.5 11.8 -2.6
v 7.6 11.8 -2.5
v 7.6 11.7 -2.5
v 7.7 11.7 -2.5
v 7.7 11.8 -2.5
v 7.7 11.8 -2.6
v 7.7 11.7 -2.6
v 7.6 11.7 -2.6
v 7.6 11.8 -2.6
v 7.7 11.8 -2.5
v 7.7 11.7 -2.5
v 7.8 11.7 -2.5
v 7.8 11.8 -2.5
v 7.8 11.8 -2.6
v 7.8 11.7 -2.6
v 7.7 11.7 -2.6
v 7.7 11.8 -2.6
v 7.8 11.8 -2.5
v 7.8 11.7 -2.5
v 7.9 11.7 -2.5
v 7.9 11.8 -2.5
v 7.9 11.8 -2.6
v 7.9 11.7 -2.6
v 7.8 11.7 -2.6
v 7.8 11.8 -2.6
v 7.9 11.8 -2.5
v 7.9 11.7 -2.5
v 8 11.7 -2.5
v 8 11.8 -2.5
v 8 11.8 -2.6
v 8 11.7 -2.6
v 7.9 11.7 -2.6
v 7.9 11.8 -2.6
v 8 11.8 -2.5
v 8 11.7 -2.5
v 8.1 11.7 -2.5
v 8.1 11.8 -2.5
v 8.1 11.8 -2.6
v 8.1 11.7 -2.6
v 8 11.7 -2.6
v 8 11.8 -2.6
v 8.1 11.8 -2.5
v 8.1 11.7 -2.5
v 8.2 11.7 -2.5
v 8.2 11.8 -2.5
v 8.2 11.8 -2.6
v 8.2 11.7 -2.6
v 8.1 11.7 -2.6
v 8.1 11.8 -2.6
v 8.2 11.8 -2.5
v 8.2 11.7 -2.5
v 8.3 11.7 -2.5
v 8.3 11.8 -2.5
v 8.3 11.8 -2.6
v 8.3 11.7 -2.6
v 8.2 11.7 -2.6
v 8.2 11.8 -2.6
v 8.3 11.8 -2.5
v 8.3 11.7 -2.5
v 8.4 11.7 -2.5
v 8.4 11.8 -2.5
v 8.4 11.8 -2.6
v 8.4 11.7 -2.6
v 8.3 11.7 -2.6
v 8.3 11.8 -2.6
v 8.4 11.8 -2.5
v 8.4 11.7 -2.5
v 8.5 11.7 -2.5
v 8.5 11.8 -2.5
v 8.5 11.8 -2.6
v 8.5 11.7 -2.6
v 8.4 11.7 -2.6
v 8.4 11.8 -2.6
v 8.5 11.8 -2.5
v 8.5 11.7 -2.5
v 8.6 11.7 -2.5
v 8.6 11.8 -2.5
v 8.6 11.8 -2.6
v 8.6 11.7 -2.6
v 8.5 11.7 -2.6
v 8.5 11.8 -2.6
v 8.6 11.8 -2.5
v 8.6 11.7 -2.5
v 8.7 11.7 -2.5
v 8.7 11.8 -2.5
v 8.7 11.8 -2.6
v 8.7 11.7 -2.6
v 8.6 11.7 -2.6
v 8.6 11.8 -2.6
v 8.7 11.8 -2.5
v 8.7 11.7 -2.5
v 8.8 11.7 -2.5
v 8.8 11.8 -2.5
v 8.8 11.8 -2.6
v 8.8 11.7 -2.6
v 8.7 11.7 -2.6
v 8.7 11.8 -2.6
v 8.8 11.8 -2.5
v 8.8 11.7 -2.5
v 8.9 11.7 -2.5
v 8.9 11.8 -2.5
v 8.9 11.8 -2.6
v 8.9 11.7 -2.6
v 8.8 11.7 -2.6
v 8.8 11.8 -2.6
v 8.9 11.8 -2.5
v 8.9 11.7 -2.5
v 9 11.7 -2.5
v 9 11.8 -2.5
v 9 11.8 -2.6
v 9 11.7 -2.6
v 8.9 11.7 -2.6
v 8.9 11.8 -2.6
v 9.1 11.8 -2.5
v 9.1 11.7 -2.5
v 9.1 11.7 -2.6
v 9.1 11.8 -2.6
v 9 11.7 -2.5
v 9 11.7 -2.6
v 9.1 11.7 -2.6
v 9.1 11.7 -2.5
v 9 11.8 -2.5
v 9 11.7 -2.5
v 9.1 11.7 -2.5
v 9.1 11.8 -2.5
v 9.1 11.8 -2.6
v 9.1 11.7 -2.6
v 9 11.7 -2.6
v 9 11.8 -2.6
v 7.6 11.7 -2.6
v 7.6 11.6 -2.6
v 7.6 11.6 -2.5
v 7.6 11.7 -2.5
v 7.6 11.7 -2.5
v 7.6 11.6 -2.5
v 7.7 11.6 -2.5
v 7.7 11.7 -2.5
v 7.7 11.7 -2.6
v 7.7 11.6 -2.6
v 7.6 11.6 -2.6
v 7.6 11.7 -2.6
v 7.7 11.7 -2.5
v 7.7 11.6 -2.5
v 7.8 11.6 -2.5
v 7.8 11.7 -2.5
v 7.8 11.7 -2.6
v 7.8 11.6 -2.6
v 7.7 11.6 -2.6
v 7.7 11.7 -2.6
v 7.8 11.7 -2.5
v 7.8 11.6 -2.5
v 7.9 11.6 -2.5
v 7.9 11.7 -2.5
v 7.9 11.7 -2.6
v 7.9 11.6 -2.6
v 7.8 11.6 -2.6
v 7.8 11.7 -2.6
v 7.9 11.7 -2.5
v 7.9 11.6 -2.5
v 8 11.6 -2.5
v 8 11.7 -2.5
v 8 11.7 -2.6
v 8 11.6 -2.6
v 7.9 11.6 -2.6
v 7.9 11.7 -2.6
v 8 11.7 -2.5
v 8 11.6 -2.5
v 8.1 11.6 -2.5
v 8.1 11.7 -2.5
v 8.1 11.7 -2.6
v 8.1 11.6 -2.6
v 8 11.6 -2.6
v 8 11.7 -2.6
v 8.1 11.7 -2.5
v 8.1 11.6 -2.5
v 8.2 11.6 -2.5
v 8.2 11.7 -2.5
v 8.2 11.7 -2.6
v 8.2 11.6 -2.6
v 8.1 11.6 -2.6
v 8.1 11.7 -2.6
v 8.2 11.7 -2.5
v 8.2 11.6 -2.5
v 8.3 11.6 -2.5
v 8.3 11.7 -2.5
v 8.3 11.7 -2.6
v 8.3 11.6 -2.6
v 8.2 11.6 -2.6
v 8.2 11.7 -2.6
v 8.3 11.7 -2.5
v 8.3 11.6 -2.5
v 8.4 11.6 -2.5
v 8.4 11.7 -2.5
v 8.4 11.7 -2.6
v 8.4 11.6 -2.6
v 8.3 11.6 -2.6
v 8.3 11.7 -2.6
v 8.4 11.7 -2.5
v 8.4 11.6 -2.5
v 8.5 11.6 -2.5
v 8.5 11.7 -2.5
v 8.5 11.7 -2.6
v 8.5 11.6 -2.6
v 8.4 11.6 -2.6
v 8.4 11.7 -2.6
v 8.5 11.7 -2.5
v 8.5 11.6 -2.5
v 8.6 11.6 -2.5
v 8.6 11.7 -2.5
v 8.6 11.7 -2.6
v 8.6 11.6 -2.6
v 8.5 11.6 -2.6
v 8.5 11.7 -2.6
v 8.6 11.7 -2.5
v 8.6 11.6 -2.5
v 8.7 11.6 -2.5
v 8.7 11.7 -2.5
v 8.7 11.7 -2.6
v 8.7 11.6 -2.6
v 8.6 11.6 -2.6
v 8.6 11.7 -2.6
v 8.7 11.7 -2.5
v 8.7 11.6 -2.5
v 8.8 11.6 -2.5
v 8.8 11.7 -2.5
v 8.8 11.7 -2.6
v 8.8 11.6 -2.6
v 8.7 11.6 -2.6
v 8.7 11.7 -2.6
v 8.8 11.7 -2.5
v 8.8 11.6 -2.5
v 8.9 11.6 -2.5
v 8.9 11.7 -2.5
v 8.9 11.7 -2.6
v 8.9 11.6 -2.6
v 8.8 11.6 -2.6
v 8.8 11.7 -2.6
v 9 11.7 -2.5
v 9 11.6 -2.5
v 9 11.6 -2.6
v 9 11.7 -2.6
v 8.9 11.6 -2.5
v 8.9 11.6 -2.6
v 9 11.6 -2.6
v 9 11.6 -2.5
v 8.9 11.7 -2.5
v 8.9 11.6 -2.5
v 9 11.6 -2.5
v 9 11.7 -2.5
v 9 11.7 -2.6
v 9 11.6 -2.6
v 8.9 11.6 -2.6
v 8.9 11.7 -2.6
v 7.6 11.6 -2.6
v 7.6 11.5 -2.6
v 7.6 11.5 -2.5
v 7.6 11.6 -2.5
v 7.6 11.5 -2.5
v 7.6 11.5 -2.6
v 7.7 11.5 -2.6
v 7.7 11.5 -2.5
v 7.6 11.6 -2.5
v 7.6 11.5 -2.5
v 7.7 11.5 -2.5
v 7.7 11.6 -2.5
v 7.7 11.6 -2.6
v 7.7 11.5 -2.6
v 7.6 11.5 -2.6
v 7.6 11.6 -2.6
v 7.7 11.5 -2.5
v 7.7 11.5 -2.6
v 7.8 11.5 -2.6
v 7.8 11.5 -2.5
v 7.7 11.6 -2.5
v 7.7 11.5 -2.5
v 7.8 11.5 -2.5
v 7.8 11.6 -2.5
v 7.8 11.6 -2.6
v 7.8 11.5 -2.6
v 7.7 11.5 -2.6
v 7.7 11.6 -2.6
v 7.8 11.6 -2.5
v 7.8 11.5 -2.5
v 7.9 11.5 -2.5
v 7.9 11.6 -2.5
v 7.9 11.6 -2.6
v 7.9 11.5 -2.6
v 7.8 11.5 -2.6
v 7.8 11.6 -2.6
v 7.9 11.6 -2.5
v 7.9 11.5 -2.5
v 8 11.5 -2.5
v 8 11.6 -2.5
v 8 11.6 -2.6
v 8 11.5 -2.6
v 7.9 11.5 -2.6
v 7.9 11.6 -2.6
v 8 11.6 -2.5
v 8 11.5 -2.5
v 8.1 11.5 -2.5
v 8.1 11.6 -2.5
v 8.1 11.6 -2.6
v 8.1 11.5 -2.6
v 8 11.5 -2.6
v 8 11.6 -2.6
v 8.1 11.6 -2.5
v 8.1 11.5 -2.5
v 8.2 11.5 -2.5
v 8.2 11.6 -2.5
v 8.2 11.6 -2.6
v 8.2 11.5 -2.6
v 8.1 11.5 -2.6
v 8.1 11.6 -2.6
v 8.2 11.6 -2.5
v 8.2 11.5 -2.5
v 8.3 11.5 -2.5
v 8.3 11.6 -2.5
v 8.3 11.6 -2.6
v 8.3 11.5 -2.6
v 8.2 11.5 -2.6
v 8.2 11.6 -2.6
v 8.3 11.6 -2.5
v 8.3 11.5 -2.5
v 8.4 11.5 -2.5
v 8.4 11.6 -2.5
v 8.4 11.6 -2.6
v 8.4 11.5 -2.6
v 8.3 11.5 -2.6
v 8.3 11.6 -2.6
v 8.4 11.6 -2.5
v 8.4 11.5 -2.5
v 8.5 11.5 -2.5
v 8.5 11.6 -2.5
v 8.5 11.6 -2.6
v 8.5 11.5 -2.6
v 8.4 11.5 -2.6
v 8.4 11.6 -2.6
v 8.5 11.6 -2.5
v 8.5 11.5 -2.5
v 8.6 11.5 -2.5
v 8.6 11.6 -2.5
v 8.6 11.6 -2.6
v 8.6 11.5 -2.6
v 8.5 11.5 -2.6
v 8.5 11.6 -2.6
v 8.6 11.6 -2.5
v 8.6 11.5 -2.5
v 8.7 11.5 -2.5
v 8.7 11.6 -2.5
v 8.7 11.6 -2.6
v 8.7 11.5 -2.6
v 8.6 11.5 -2.6
v 8.6 11.6 -2.6
v 8.7 11.5 -2.5
v 8.7 11.5 -2.6
v 8.8 11.5 -2.6
v 8.8 11.5 -2.5
v 8.7 11.6 -2.5
v 8.7 11.5 -2.5
v 8.8 11.5 -2.5
v 8.8 11.6 -2.5
v 8.8 11.6 -2.6
v 8.8 11.5 -2.6
v 8.7 11.5 -2.6
v 8.7 11.6 -2.6
v 8.9 11.6 -2.5
v 8.9 11.5 -2.5
v 8.9 11.5 -2.6
v 8.9 11.6 -2.6
v 8.8 11.5 -2.5
v 8.8 11.5 -2.6
v 8.9 11.5 -2.6
v 8.9 11.5 -2.5
v 8.8 11.6 -2.5
v 8.8 11.5 -2.5
v 8.9 11.5 -2.5
v 8.9 11.6 -2.5
v 8.9 11.6 -2.6
v 8.9 11.5 -2.6
v 8.8 11.5 -2.6
v 8.8 11.6 -2.6
v 7.8 11.5 -2.6
v 7.8 11.4 -2.6
v 7.8 11.4 -2.5
v 7.8 11.5 -2.5
v 7.8 11.4 -2.5
v 7.8 11.4 -2.6
v 7.9 11.4 -2.6
v 7.9 11.4 -2.5
v 7.8 11.5 -2.5
v 7.8 11.4 -2.5
v 7.9 11.4 -2.5
v 7.9 11.5 -2.5
v 7.9 11.5 -2.6
v 7.9 11.4 -2.6
v 7.8 11.4 -2.6
v 7.8 11.5 -2.6
v 7.9 11.4 -2.5
v 7.9 11.4 -2.6
v 8 11.4 -2.6
v 8 11.4 -2.5
v 7.9 11.5 -2.5
v 7.9 11.4 -2.5
v 8 11.4 -2.5
v 8 11.5 -2.5
v 8 11.5 -2.6
v 8 11.4 -2.6
v 7.9 11.4 -2.6
v 7.9 11.5 -2.6
v 8 11.4 -2.5
v 8 11.4 -2.6
v 8.1 11.4 -2.6
v 8.1 11.4 -2.5
v 8 11.5 -2.5
v 8 11.4 -2.5
v 8.1 11.4 -2.5
v 8.1 11.5 -2.5
v 8.1 11.5 -2.6
v 8.1 11.4 -2.6
v 8 11.4 -2.6
v 8 11.5 -2.6
v 8.1 11.4 -2.5
v 8.1 11.4 -2.6
v 8.2 11.4 -2.6
v 8.2 11.4 -2.5
v 8.1 11.5 -2.5
v 8.1 11.4 -2.5
v 8.2 11.4 -2.5
v 8.2 11.5 -2.5
v 8.2 11.5 -2.6
v 8.2 11.4 -2.6
v 8.1 11.4 -2.6
v 8.1 11.5 -2.6
v 8.2 11.4 -2.5
v 8.2 11.4 -2.6
v 8.3 11.4 -2.6
v 8.3 11.4 -2.5
v 8.2 11.5 -2.5
v 8.2 11.4 -2.5
v 8.3 11.4 -2.5
v 8.3 11.5 -2.5
v 8.3 11.5 -2.6
v 8.3 11.4 -2.6
v 8.2 11.4 -2.6
v 8.2 11.5 -2.6
v 8.3 11.4 -2.5
v 8.3 11.4 -2.6
v 8.4 11.4 -2.6
v 8.4 11.4 -2.5
v 8.3 11.5 -2.5
v 8.3 11.4 -2.5
v 8.4 11.4 -2.5
v 8.4 11.5 -2.5
v 8.4 11.5 -2.6
v 8.4 11.4 -2.6
v 8.3 11.4 -2.6
v 8.3 11.5 -2.6
v 8.4 11.4 -2.5
v 8.4 11.4 -2.6
v 8.5 11.4 -2.6
v 8.5 11.4 -2.5
v 8.4 11.5 -2.5
v 8.4 11.4 -2.5
v 8.5 11.4 -2.5
v 8.5 11.5 -2.5
v 8.5 11.5 -2.6
v 8.5 11.4 -2.6
v 8.4 11.4 -2.6
v 8.4 11.5 -2.6
v 8.5 11.4 -2.5
v 8.5 11.4 -2.6
v 8.6 11.4 -2.6
v 8.6 11.4 -2.5
v 8.5 11.5 -2.5
v 8.5 11.4 -2.5
v 8.6 11.4 -2.5
v 8.6 11.5 -2.5
v 8.6 11.5 -2.6
v 8.6 11.4 -2.6
v 8.5 11.4 -2.6
v 8.5 11.5 -2.6
v 8.7 11.5 -2.5
v 8.7 11.4 -2.5
v 8.7 11.4 -2.6
v 8.7 11.5 -2.6
v 8.6 11.4 -2.5
v 8.6 11.4 -2.6
v 8.7 11.4 -2.6
v 8.7 11.4 -2.5
v 8.6 11.5 -2.5
v 8.6 11.4 -2.5
v 8.7 11.4 -2.5
v 8.7 11.5 -2.5
v 8.7 11.5 -2.6
v 8.7 11.4 -2.6
v 8.6 11.4 -2.6
v 8.6 11.5 -2.6

# faces
f 1/1/1 2/1/1 3/1/1 4/1/1
f 5/1/3 6/1/3 7/1/3 8/1/3
f 9/1/5 10/1/5 11/1/5 12/1/5
f 13/1/6 14/1/6 15/1/6 16/1/6
f 17/1/3 18/1/3 19/1/3 20/1/3
f 21/1/5 22/1/5 23/1/5 24/1/5
f 25/1/6 26/1/6 27/1/6 28/1/6
f 29/1/3 30/1/3 31/1/3 32/1/3
f 33/1/5 34/1/5 35/1/5 36/1/5
f 37/1/6 38/1/6 39/1/6 40/1/6
f 41/1/3 42/1/3 43/1/3 44/1/3
f 45/1/5 46/1/5 47/1/5 48/1/5
f 49/1/6 50/1/6 51/1/6 52/1/6
f 53/1/3 54/1/3 55/1/3 56/1/3
f 57/1/5 58/1/5 59/1/5 60/1/5
f 61/1/6 62/1/6 63/1/6 64/1/6
f 65/1/3 66/1/3 67/1/3 68/1/3
f 69/1/5 70/1/5 71/1/5 72/1/5
f 73/1/6 74/1/6 75/1/6 76/1/6
f 77/1/2 78/1/2 79/1/2 80/1/2
f 81/1/3 82/1/3 83/1/3 84/1/3
f 85/1/5 86/1/5 87/1/5 88/1/5
f 89/1/6 90/1/6 91/1/6 92/1/6
f 93/1/1 94/1/1 95/1/1 96/1/1
f 97/1/3 98/1/3 99/1/3 100/1/3
f 101/1/5 102/1/5 103/1/5 104/1/5
f 105/1/6 106/1/6 107/1/6 108/1/6
f 109/1/3 110/1/3 111/1/3 112/1/3
f 113/1/5 114/1/5 115/1/5 116/1/5
f 117/1/6 118/1/6 119/1/6 120/1/6
f 121/1/5 122/1/5 123/1/5 124/1/5
f 125/1/6 126/1/6 127/1/6 128/1/6
f 129/1/5 130/1/5 131/1/5 132/1/5
f 133/1/6 134/1/6 135/1/6 136/1/6
f 137/1/5 138/1/5 139/1/5 140/1/5
f 141/1/6 142/1/6 143/1/6 144/1/6
f 145/1/5 146/1/5 147/1/5 148/1/5
f 149/1/6 150/1/6 151/1/6 152/1/6
f 153/1/5 154/1/5 155/1/5 156/1/5
f 157/1/6 158/1/6 159/1/6 160/1/6
f 161/1/5 162/1/5 163/1/5 164/1/5
f 165/1/6 166/1/6 167/1/6 168/1/6
f 169/1/5 170/1/5 171/1/5 172/1/5
f 173/1/6 174/1/6 175/1/6 176/1/6
f 177/1/3 178/1/3 179/1/3 180/1/3
f 181/1/5 182/1/5 183/1/5 184/1/5
f 185/1/6 186/1/6 187/1/6 188/1/6
f 189/1/2 190/1/2 191/1/2 192/1/2
f 193/1/3 194/1/3 195/1/3 196/1/3
f 197/1/5 198/1/5 199/1/5 200/1/5
f 201/1/6 202/1/6 203/1/6 204/1/6
f 205/1/1 206/1/1 207/1/1 208/1/1
f 209/1/3 210/1/3 211/1/3 212/1/3
f 213/1/5 214/1/5 215/1/5 216/1/5
f 217/1/6 218/1/6 219/1/6 220/1/6
f 221/1/3 222/1/3 223/1/3 224/1/3
f 225/1/5 226/1/5 227/1/5 228/1/5
f 229/1/6 230/1/6 231/1/6 232/1/6
f 233/1/5 234/1/5 235/1/5 236/1/5
f 237/1/6 238/1/6 239/1/6 240/1/6
f 241/1/5 242/1/5 243/1/5 244/1/5
f 245/1/6 246/1/6 247/1/6 248/1/6
f 249/1/5 250/1/5 251/1/5 252/1/5
f 253/1/6 254/1/6 255/1/6 256/1/6
f 257/1/5 258/1/5 259/1/5 260/1/5
f 261/1/6 262/1/6 263/1/6 264/1/6
f 265/1/5 266/1/5 267/1/5 268/1/5
f 269/1/6 270/1/6 271/1/6 272/1/6
f 273/1/5 274/1/5 275/1/5 276/1/5
f 277/1/6 278/1/6 279/1/6 280/1/6
f 281/1/5 282/1/5 283/1/5 284/1/5
f 285/1/6 286/1/6 287/1/6 288/1/6
f 289/1/5 290/1/5 291/1/5 292/1/5
f 293/1/6 294/1/6 295/1/6 296/1/6
f 297/1/5 298/1/5 299/1/5 300/1/5
f 301/1/6 302/1/6 303/1/6 304/1/6
f 305/1/5 306/1/5 307/1/5 308/1/5
f 309/1/6 310/1/6 311/1/6 312/1/6
f 313/1/5 314/1/5 315/1/5 316/1/5
f 317/1/6 318/1/6 319/1/6 320/1/6
f 321/1/2 322/1/2 323/1/2 324/1/2
f 325/1/3 326/1/3 327/1/3 328/1/3
f 329/1/5 330/1/5 331/1/5 332/1/5
f 333/1/6 334/1/6 335/1/6 336/1/6
f 337/1/1 338/1/1 339/1/1 340/1/1
f 341/1/5 342/1/5 343/1/5 344/1/5
f 345/1/6 346/1/6 347/1/6 348/1/6
f 349/1/5 350/1/5 351/1/5 352/1/5
f 353/1/6 354/1/6 355/1/6 356/1/6
f 357/1/5 358/1/5 359/1/5 360/1/5
f 361/1/6 362/1/6 363/1/6 364/1/6
f 365/1/5 366/1/5 367/1/5 368/1/5
f 369/1/6 370/1/6 371/1/6 372/1/6
f 373/1/5 374/1/5 375/1/5 376/1/5
f 377/1/6 378/1/6 379/1/6 380/1/6
f 381/1/5 382/1/5 383/1/5 384/1/5
f 385/1/6 386/1/6 387/1/6 388/1/6
f 389/1/5 390/1/5 391/1/5 392/1/5
f 393/1/6 394/1/6 395/1/6 396/1/6
f 397/1/5 398/1/5 399/1/5 400/1/5
f 401/1/6 402/1/6 403/1/6 404/1/6
f 405/1/5 406/1/5 407/1/5 408/1/5
f 409/1/6 410/1/6 411/1/6 412/1/6
f 413/1/5 414/1/5 415/1/5 416/1/5
f 417/1/6 418/1/6 419/1/6 420/1/6
f 421/1/5 422/1/5 423/1/5 424/1/5
f 425/1/6 426/1/6 427/1/6 428/1/6
f 429/1/5 430/1/5 431/1/5 432/1/5
f 433/1/6 434/1/6 435/1/6 436/1/6
f 437/1/5 438/1/5 439/1/5 440/1/5
f 441/1/6 442/1/6 443/1/6 444/1/6
f 445/1/2 446/1/2 447/1/2 448/1/2
f 449/1/5 450/1/5 451/1/5 452/1/5
f 453/1/6 454/1/6 455/1/6 456/1/6
f 457/1/1 458/1/1 459/1/1 460/1/1
f 461/1/3 462/1/3 463/1/3 464/1/3
f 465/1/5 466/1/5 467/1/5 468/1/5
f 469/1/6 470/1/6 471/1/6 472/1/6
f 473/1/5 474/1/5 475/1/5 476/1/5
f 477/1/6 478/1/6 479/1/6 480/1/6
f 481/1/5 482/1/5 483/1/5 484/1/5
f 485/1/6 486/1/6 487/1/6 488/1/6
f 489/1/5 490/1/5 491/1/5 492/1/5
f 493/1/6 494/1/6 495/1/6 496/1/6
f 497/1/5 498/1/5 499/1/5 500/1/5
f 501/1/6 502/1/6 503/1/6 504/1/6
f 505/1/5 506/1/5 507/1/5 508/1/5
f 509/1/6 510/1/6 511/1/6 512/1/6
f 513/1/5 514/1/5 515/1/5 516/1/5
f 517/1/6 518/1/6 519/1/6 520/1/6
f 521/1/5 522/1/5 523/1/5 524/1/5
f 525/1/6 526/1/6 527/1/6 528/1/6
f 529/1/5 530/1/5 531/1/5 532/1/5
f 533/1/6 534/1/6 535/1/6 536/1/6
f 537/1/5 538/1/5 539/1/5 540/1/5
f 541/1/6 542/1/6 543/1/6 544/1/6
f 545/1/5 546/1/5 547/1/5 548/1/5
f 549/1/6 550/1/6 551/1/6 552/1/6
f 553/1/5 554/1/5 555/1/5 556/1/5
f 557/1/6 558/1/6 559/1/6 560/1/6
f 561/1/5 562/1/5 563/1/5 564/1/5
f 565/1/6 566/1/6 567/1/6 568/1/6
f 569/1/5 570/1/5 571/1/5 572/1/5
f 573/1/6 574/1/6 575/1/6 576/1/6
f 577/1/5 578/1/5 579/1/5 580/1/5
f 581/1/6 582/1/6 583/1/6 584/1/6
f 585/1/2 586/1/2 587/1/2 588/1/2
f 589/1/3 590/1/3 591/1/3 592/1/3
f 593/1/5 594/1/5 595/1/5 596/1/5
f 597/1/6 598/1/6 599/1/6 600/1/6
f 601/1/1 602/1/1 603/1/1 604/1/1
f 605/1/5 606/1/5 607/1/5 608/1/5
f 609/1/6 610/1/6 611/1/6 612/1/6
f 613/1/5 614/1/5 615/1/5 616/1/5
f 617/1/6 618/1/6 619/1/6 620/1/6
f 621/1/5 622/1/5 623/1/5 624/1/5
f 625/1/6 626/1/6 627/1/6 628/1/6
f 629/1/5 630/1/5 631/1/5 632/1/5
f 633/1/6 634/1/6 635/1/6 636/1/6
f 637/1/5 638/1/5 639/1/5 640/1/5
f 641/1/6 642/1/6 643/1/6 644/1/6
f 645/1/5 646/1/5 647/1/5 648/1/5
f 649/1/6 650/1/6 651/1/6 652/1/6
f 653/1/5 654/1/5 655/1/5 656/1/5
f 657/1/6 658/1/6 659/1/6 660/1/6
f 661/1/5 662/1/5 663/1/5 664/1/5
f 665/1/6 666/1/6 667/1/6 668/1/6
f 669/1/5 670/1/5 671/1/5 672/1/5
f 673/1/6 674/1/6 675/1/6 676/1/6
f 677/1/5 678/1/5 679/1/5 680/1/5
f 681/1/6 682/1/6 683/1/6 684/1/6
f 685/1/5 686/1/5 687/1/5 688/1/5
f 689/1/6 690/1/6 691/1/6 692/1/6
f 693/1/5 694/1/5 695/1/5 696/1/5
f 697/1/6 698/1/6 699/1/6 700/1/6
f 701/1/5 702/1/5 703/1/5 704/1/5
f 705/1/6 706/1/6 707/1/6 708/1/6
f 709/1/5 710/1/5 711/1/5 712/1/5
f 713/1/6 714/1/6 715/1/6 716/1/6
f 717/1/5 718/1/5 719/1/5 720/1/5
f 721/1/6 722/1/6 723/1/6 724/1/6
f 725/1/2 726/1/2 727/1/2 728/1/2
f 729/1/5 730/1/5 731/1/5 732/1/5
f 733/1/6 734/1/6 735/1/6 736/1/6
f 737/1/1 738/1/1 739/1/1 740/1/1
f 741/1/3 742/1/3 743/1/3 744/1/3
f 745/1/5 746/1/5 747/1/5 748/1/5
f 749/1/6 750/1/6 751/1/6 752/1/6
f 753/1/5 754/1/5 755/1/5 756/1/5
f 757/1/6 758/1/6 759/1/6 760/1/6
f 761/1/5 762/1/5 763/1/5 764/1/5
f 765/1/6 766/1/6 767/1/6 768/1/6
f 769/1/5 770/1/5 771/1/5 772/1/5
f 773/1/6 774/1/6 775/1/6 776/1/6
f 777/1/5 778/1/5 779/1/5 780/1/5
f 781/1/6 782/1/6 783/1/6 784/1/6
f 785/1/5 786/1/5 787/1/5 788/1/5
f 789/1/6 790/1/6 791/1/6 792/1/6
f 793/1/5 794/1/5 795/1/5 796/1/5
f 797/1/6 798/1/6 799/1/6 800/1/6
f 801/1/5 802/1/5 803/1/5 804/1/5
f 805/1/6 806/1/6 807/1/6 808/1/6
f 809/1/5 810/1/5 811/1/5 812/1/5
f 813/1/6 814/1/6 815/1/6 816/1/6
f 817/1/5 818/1/5 819/1/5 820/1/5
f 821/1/6 822/1/6 823/1/6 824/1/6
f 825/1/5 826/1/5 827/1/5 828/1/5
f 829/1/6 830/1/6 831/1/6 832/1/6
f 833/1/5 834/1/5 835/1/5 836/1/5
f 837/1/6 838/1/6 839/1/6 840/1/6
f 841/1/5 842/1/5 843/1/5 844/1/5
f 845/1/6 846/1/6 847/1/6 848/1/6
f 849/1/5 850/1/5 851/1/5 852/1/5
f 853/1/6 854/1/6 855/1/6 856/1/6
f 857/1/5 858/1/5 859/1/5 860/1/5
f 861/1/6 862/1/6 863/1/6 864/1/6
f 865/1/5 866/1/5 867/1/5 868/1/5
f 869/1/6 870/1/6 871/1/6 872/1/6
f 873/1/5 874/1/5 875/1/5 876/1/5
f 877/1/6 878/1/6 879/1/6 880/1/6
f 881/1/2 882/1/2 883/1/2 884/1/2
f 885/1/3 886/1/3 887/1/3 888/1/3
f 889/1/5 890/1/5 891/1/5 892/1/5
f 893/1/6 894/1/6 895/1/6 896/1/6
f 897/1/1 898/1/1 899/1/1 900/1/1
f 901/1/5 902/1/5 903/1/5 904/1/5
f 905/1/6 906/1/6 907/1/6 908/1/6
f 909/1/5 910/1/5 911/1/5 912/1/5
f 913/1/6 914/1/6 915/1/6 916/1/6
f 917/1/5 918/1/5 919/1/5 920/1/5
f 921/1/6 922/1/6 923/1/6 924/1/6
f 925/1/5 926/1/5 927/1/5 928/1/5
f 929/1/6 930/1/6 931/1/6 932/1/6
f 933/1/5 934/1/5 935/1/5 936/1/5
f 937/1/6 938/1/6 939/1/6 940/1/6
f 941/1/5 942/1/5 943/1/5 944/1/5
f 945/1/6 946/1/6 947/1/6 948/1/6
f 949/1/5 950/1/5 951/1/5 952/1/5
f 953/1/6 954/1/6 955/1/6 956/1/6
f 957/1/5 958/1/5 959/1/5 960/1/5
f 961/1/6 962/1/6 963/1/6 964/1/6
f 965/1/5 966/1/5 967/1/5 968/1/5
f 969/1/6 970/1/6 971/1/6 972/1/6
f 973/1/5 974/1/5 975/1/5 976/1/5
f 977/1/6 978/1/6 979/1/6 980/1/6
f 981/1/5 982/1/5 983/1/5 984/1/5
f 985/1/6 986/1/6 987/1/6 988/1/6
f 989/1/5 990/1/5 991/1/5 992/1/5
f 993/1/6 994/1/6 995/1/6 996/1/6
f 997/1/5 998/1/5 999/1/5 1000/1/5
f 1001/1/6 1002/1/6 1003/1/6 1004/1/6
f 1005/1/5 1006/1/5 1007/1/5 1008/1/5
f 1009/1/6 1010/1/6 1011/1/6 1012/1/6
f 1013/1/5 1014/1/5 1015/1/5 1016/1/5
f 1017/1/6 1018/1/6 1019/1/6 1020/1/6
f 1021/1/5 1022/1/5 1023/1/5 1024/1/5
f 1025/1/6 1026/1/6 1027/1/6 1028/1/6
f 1029/1/5 1030/1/5 1031/1/5 1032/1/5
f 1033/1/6 1034/1/6 1035/1/6 1036/1/6
f 1037/1/2 1038/1/2 1039/1/2 1040/1/2
f 1041/1/5 1042/1/5 1043/1/5 1044/1/5
f 1045/1/6 1046/1/6 1047/1/6 1048/1/6
f 1049/1/1 1050/1/1 1051/1/1 1052/1/1
f 1053/1/5 1054/1/5 1055/1/5 1056/1/5
f 1057/1/6 1058/1/6 1059/1/6 1060/1/6
f 1061/1/5 1062/1/5 1063/1/5 1064/1/5
f 1065/1/6 1066/1/6 1067/1/6 1068/1/6
f 1069/1/5 1070/1/5 1071/1/5 1072/1/5
f 1073/1/6 1074/1/6 1075/1/6 1076/1/6
f 1077/1/5 1078/1/5 1079/1/5 1080/1/5
f 1081/1/6 1082/1/6 1083/1/6 1084/1/6
f 1085/1/5 1086/1/5 1087/1/5 1088/1/5
f 1089/1/6 1090/1/6 1091/1/6 1092/1/6
f 1093/1/5 1094/1/5 1095/1/5 1096/1/5
f 1097/1/6 1098/1/6 1099/1/6 1100/1/6
f 1101/1/5 1102/1/5 1103/1/5 1104/1/5
f 1105/1/6 1106/1/6 1107/1/6 1108/1/6
f 1109/1/5 1110/1/5 1111/1/5 1112/1/5
f 1113/1/6 1114/1/6 1115/1/6 1116/1/6
f 1117/1/5 1118/1/5 1119/1/5 1120/1/5
f 1121/1/6 1122/1/6 1123/1/6 1124/1/6
f 1125/1/5 1126/1/5 1127/1/5 1128/1/5
f 1129/1/6 1130/1/6 1131/1/6 1132/1/6
f 1133/1/5 1134/1/5 1135/1/5 1136/1/5
f 1137/1/6 1138/1/6 1139/1/6 1140/1/6
f 1141/1/5 1142/1/5 1143/1/5 1144/1/5
f 1145/1/6 1146/1/6 1147/1/6 1148/1/6
f 1149/1/5 1150/1/5 1151/1/5 1152/1/5
f 1153/1/6 1154/1/6 1155/1/6 1156/1/6
f 1157/1/5 1158/1/5 1159/1/5 1160/1/5
f 1161/1/6 1162/1/6 1163/1/6 1164/1/6
f 1165/1/5 1166/1/5 1167/1/5 1168/1/5
f 1169/1/6 1170/1/6 1171/1/6 1172/1/6
f 1173/1/5 1174/1/5 1175/1/5 1176/1/5
f 1177/1/6 1178/1/6 1179/1/6 1180/1/6
f 1181/1/5 1182/1/5 1183/1/5 1184/1/5
f 1185/1/6 1186/1/6 1187/1/6 1188/1/6
f 1189/1/2 1190/1/2 1191/1/2 1192/1/2
f 1193/1/5 1194/1/5 1195/1/5 1196/1/5
f 1197/1/6 1198/1/6 1199/1/6 1200/1/6
f 1201/1/1 1202/1/1 1203/1/1 1204/1/1
f 1205/1/5 1206/1/5 1207/1/5 1208/1/5
f 1209/1/6 1210/1/6 1211/1/6 1212/1/6
f 1213/1/5 1214/1/5 1215/1/5 1216/1/5
f 1217/1/6 1218/1/6 1219/1/6 1220/1/6
f 1221/1/5 1222/1/5 1223/1/5 1224/1/5
f 1225/1/6 1226/1/6 1227/1/6 1228/1/6
f 1229/1/5 1230/1/5 1231/1/5 1232/1/5
f 1233/1/6 1234/1/6 1235/1/6 1236/1/6
f 1237/1/5 1238/1/5 1239/1/5 1240/1/5
f 1241/1/6 1242/1/6 1243/1/6 1244/1/6
f 1245/1/5 1246/1/5 1247/1/5 1248/1/5
f 1249/1/6 1250/1/6 1251/1/6 1252/1/6
f 1253/1/5 1254/1/5 1255/1/5 1256/1/5
f 1257/1/6 1258/1/6 1259/1/6 1260/1/6
f 1261/1/5 1262/1/5 1263/1/5 1264/1/5
f 1265/1/6 1266/1/6 1267/1/6 1268/1/6
f 1269/1/5 1270/1/5 1271/1/5 1272/1/5
f 1273/1/6 1274/1/6 1275/1/6 1276/1/6
f 1277/1/5 1278/1/5 1279/1/5 1280/1/5
f 1281/1/6 1282/1/6 1283/1/6 1284/1/6
f 1285/1/5 1286/1/5 1287/1/5 1288/1/5
f 1289/1/6 1290/1/6 1291/1/6 1292/1/6
f 1293/1/5 1294/1/5 1295/1/5 1296/1/5
f 1297/1/6 1298/1/6 1299/1/6 1300/1/6
f 1301/1/5 1302/1/5 1303/1/5 1304/1/5
f 1305/1/6 1306/1/6 1307/1/6 1308/1/6
f 1309/1/5 1310/1/5 1311/1/5 1312/1/5
f 1313/1/6 1314/1/6 1315/1/6 1316/1/6
f 1317/1/5 1318/1/5 1319/1/5 1320/1/5
f 1321/1/6 1322/1/6 1323/1/6 1324/1/6
f 1325/1/5 1326/1/5 1327/1/5 1328/1/5
f 1329/1/6 1330/1/6 1331/1/6 1332/1/6
f 1333/1/5 1334/1/5 1335/1/5 1336/1/5
f 1337/1/6 1338/1/6 1339/1/6 1340/1/6
f 1341/1/2 1342/1/2 1343/1/2 1344/1/2
f 1345/1/5 1346/1/5 1347/1/5 1348/1/5
f 1349/1/6 1350/1/6 1351/1/6 1352/1/6
f 1353/1/1 1354/1/1 1355/1/1 1356/1/1
f 1357/1/4 1358/1/4 1359/1/4 1360/1/4
f 1361/1/5 1362/1/5 1363/1/5 1364/1/5
f 1365/1/6 1366/1/6 1367/1/6 1368/1/6
f 1369/1/5 1370/1/5 1371/1/5 1372/1/5
f 1373/1/6 1374/1/6 1375/1/6 1376/1/6
f 1377/1/5 1378/1/5 1379/1/5 1380/1/5
f 1381/1/6 1382/1/6 1383/1/6 1384/1/6
f 1385/1/5 1386/1/5 1387/1/5 1388/1/5
f 1389/1/6 1390/1/6 1391/1/6 1392/1/6
f 1393/1/5 1394/1/5 1395/1/5 1396/1/5
f 1397/1/6 1398/1/6 1399/1/6 1400/1/6
f 1401/1/5 1402/1/5 1403/1/5 1404/1/5
f 1405/1/6 1406/1/6 1407/1/6 1408/1/6
f 1409/1/5 1410/1/5 1411/1/5 1412/1/5
f 1413/1/6 1414/1/6 1415/1/6 1416/1/6
f 1417/1/5 1418/1/5 1419/1/5 1420/1/5
f 1421/1/6 1422/1/6 1423/1/6 1424/1/6
f 1425/1/5 1426/1/5 1427/1/5 1428/1/5
f 1429/1/6 1430/1/6 1431/1/6 1432/1/6
f 1433/1/5 1434/1/5 1435/1/5 1436/1/5
f 1437/1/6 1438/1/6 1439/1/6 1440/1/6
f 1441/1/5 1442/1/5 1443/1/5 1444/1/5
f 1445/1/6 1446/1/6 1447/1/6 1448/1/6
f 1449/1/5 1450/1/5 1451/1/5 1452/1/5
f 1453/1/6 1454/1/6 1455/1/6 1456/1/6
f 1457/1/5 1458/1/5 1459/1/5 1460/1/5
f 1461/1/6 1462/1/6 1463/1/6 1464/1/6
f 1465/1/5 1466/1/5 1467/1/5 1468/1/5
f 1469/1/6 1470/1/6 1471/1/6 1472/1/6
f 1473/1/5 1474/1/5 1475/1/5 1476/1/5
f 1477/1/6 1478/1/6 1479/1/6 1480/1/6
f 1481/1/5 1482/1/5 1483/1/5 1484/1/5
f 1485/1/6 1486/1/6 1487/1/6 1488/1/6
f 1489/1/5 1490/1/5 1491/1/5 1492/1/5
f 1493/1/6 1494/1/6 1495/1/6 1496/1/6
f 1497/1/2 1498/1/2 1499/1/2 1500/1/2
f 1501/1/4 1502/1/4 1503/1/4 1504/1/4
f 1505/1/5 1506/1/5 1507/1/5 1508/1/5
f 1509/1/6 1510/1/6 1511/1/6 1512/1/6
f 1513/1/1 1514/1/1 1515/1/1 1516/1/1
f 1517/1/5 1518/1/5 1519/1/5 1520/1/5
f 1521/1/6 1522/1/6 1523/1/6 1524/1/6
f 1525/1/5 1526/1/5 1527/1/5 1528/1/5
f 1529/1/6 1530/1/6 1531/1/6 1532/1/6
f 1533/1/5 1534/1/5 1535/1/5 1536/1/5
f 1537/1/6 1538/1/6 1539/1/6 1540/1/6
f 1541/1/5 1542/1/5 1543/1/5 1544/1/5
f 1545/1/6 1546/1/6 1547/1/6 1548/1/6
f 1549/1/5 1550/1/5 1551/1/5 1552/1/5
f 1553/1/6 1554/1/6 1555/1/6 1556/1/6
f 1557/1/5 1558/1/5 1559/1/5 1560/1/5
f 1561/1/6 1562/1/6 1563/1/6 1564/1/6
f 1565/1/5 1566/1/5 1567/1/5 1568/1/5
f 1569/1/6 1570/1/6 1571/1/6 1572/1/6
f 1573/1/5 1574/1/5 1575/1/5 1576/1/5
f 1577/1/6 1578/1/6 1579/1/6 1580/1/6
f 1581/1/5 1582/1/5 1583/1/5 1584/1/5
f 1585/1/6 1586/1/6 1587/1/6 1588/1/6
f 1589/1/5 1590/1/5 1591/1/5 1592/1/5
f 1593/1/6 1594/1/6 1595/1/6 1596/1/6
f 1597/1/5 1598/1/5 1599/1/5 1600/1/5
f 1601/1/6 1602/1/6 1603/1/6 1604/1/6
f 1605/1/5 1606/1/5 1607/1/5 1608/1/5
f 1609/1/6 1610/1/6 1611/1/6 1612/1/6
f 1613/1/5 1614/1/5 1615/1/5 1616/1/5
f 1617/1/6 1618/1/6 1619/1/6 1620/1/6
f 1621/1/5 1622/1/5 1623/1/5 1624/1/5
f 1625/1/6 1626/1/6 1627/1/6 1628/1/6
f 1629/1/5 1630/1/5 1631/1/5 1632/1/5
f 1633/1/6 1634/1/6 1635/1/6 1636/1/6
f 1637/1/2 1638/1/2 1639/1/2 1640/1/2
f 1641/1/5 1642/1/5 1643/1/5 1644/1/5
f 1645/1/6 1646/1/6 1647/1/6 1648/1/6
f 1649/1/1 1650/1/1 1651/1/1 1652/1/1
f 1653/1/4 1654/1/4 1655/1/4 1656/1/4
f 1657/1/5 1658/1/5 1659/1/5 1660/1/5
f 1661/1/6 1662/1/6 1663/1/6 1664/1/6
f 1665/1/5 1666/1/5 1667/1/5 1668/1/5
f 1669/1/6 1670/1/6 1671/1/6 1672/1/6
f 1673/1/5 1674/1/5 1675/1/5 1676/1/5
f 1677/1/6 1678/1/6 1679/1/6 1680/1/6
f 1681/1/5 1682/1/5 1683/1/5 1684/1/5
f 1685/1/6 1686/1/6 1687/1/6 1688/1/6
f 1689/1/5 1690/1/5 1691/1/5 1692/1/5
f 1693/1/6 1694/1/6 1695/1/6 1696/1/6
f 1697/1/5 1698/1/5 1699/1/5 1700/1/5
f 1701/1/6 1702/1/6 1703/1/6 1704/1/6
f 1705/1/5 1706/1/5 1707/1/5 1708/1/5
f 1709/1/6 1710/1/6 1711/1/6 1712/1/6
f 1713/1/5 1714/1/5 1715/1/5 1716/1/5
f 1717/1/6 1718/1/6 1719/1/6 1720/1/6
f 1721/1/5 1722/1/5 1723/1/5 1724/1/5
f 1725/1/6 1726/1/6 1727/1/6 1728/1/6
f 1729/1/5 1730/1/5 1731/1/5 1732/1/5
f 1733/1/6 1734/1/6 1735/1/6 1736/1/6
f 1737/1/5 1738/1/5 1739/1/5 1740/1/5
f 1741/1/6 1742/1/6 1743/1/6 1744/1/6
f 1745/1/5 1746/1/5 1747/1/5 1748/1/5
f 1749/1/6 1750/1/6 1751/1/6 1752/1/6
f 1753/1/5 1754/1/5 1755/1/5 1756/1/5
f 1757/1/6 1758/1/6 1759/1/6 1760/1/6
f 1761/1/5 1762/1/5 1763/1/5 1764/1/5
f 1765/1/6 1766/1/6 1767/1/6 1768/1/6
f 1769/1/5 1770/1/5 1771/1/5 1772/1/5
f 1773/1/6 1774/1/6 1775/1/6 1776/1/6
f 1777/1/2 1778/1/2 1779/1/2 1780/1/2
f 1781/1/4 1782/1/4 1783/1/4 1784/1/4
f 1785/1/5 1786/1/5 1787/1/5 1788/1/5
f 1789/1/6 1790/1/6 1791/1/6 1792/1/6
f 1793/1/1 1794/1/1 1795/1/1 1796/1/1
f 1797/1/5 1798/1/5 1799/1/5 1800/1/5
f 1801/1/6 1802/1/6 1803/1/6 1804/1/6
f 1805/1/5 1806/1/5 1807/1/5 1808/1/5
f 1809/1/6 1810/1/6 1811/1/6 1812/1/6
f 1813/1/5 1814/1/5 1815/1/5 1816/1/5
f 1817/1/6 1818/1/6 1819/1/6 1820/1/6
f 1821/1/5 1822/1/5 1823/1/5 1824/1/5
f 1825/1/6 1826/1/6 1827/1/6 1828/1/6
f 1829/1/5 1830/1/5 1831/1/5 1832/1/5
f 1833/1/6 1834/1/6 1835/1/6 1836/1/6
f 1837/1/5 1838/1/5 1839/1/5 1840/1/5
f 1841/1/6 1842/1/6 1843/1/6 1844/1/6
f 1845/1/5 1846/1/5 1847/1/5 1848/1/5
f 1849/1/6 1850/1/6 1851/1/6 1852/1/6
f 1853/1/5 1854/1/5 1855/1/5 1856/1/5
f 1857/1/6 1858/1/6 1859/1/6 1860/1/6
f 1861/1/5 1862/1/5 1863/1/5 1864/1/5
f 1865/1/6 1866/1/6 1867/1/6 1868/1/6
f 1869/1/5 1870/1/5 1871/1/5 1872/1/5
f 1873/1/6 1874/1/6 1875/1/6 1876/1/6
f 1877/1/5 1878/1/5 1879/1/5 1880/1/5
f 1881/1/6 1882/1/6 1883/1/6 1884/1/6
f 1885/1/5 1886/1/5 1887/1/5 1888/1/5
f 1889/1/6 1890/1/6 1891/1/6 1892/1/6
f 1893/1/5 1894/1/5 1895/1/5 1896/1/5
f 1897/1/6 1898/1/6 1899/1/6 1900/1/6
f 1901/1/2 1902/1/2 1903/1/2 1904/1/2
f 1905/1/4 1906/1/4 1907/1/4 1908/1/4
f 1909/1/5 1910/1/5 1911/1/5 1912/1/5
f 1913/1/6 1914/1/6 1915/1/6 1916/1/6
f 1917/1/1 1918/1/1 1919/1/1 1920/1/1
f 1921/1/4 1922/1/4 1923/1/4 1924/1/4
f 1925/1/5 1926/1/5 1927/1/5 1928/1/5
f 1929/1/6 1930/1/6 1931/1/6 1932/1/6
f 1933/1/4 1934/1/4 1935/1/4 1936/1/4
f 1937/1/5 1938/1/5 1939/1/5 1940/1/5
f 1941/1/6 1942/1/6 1943/1/6 1944/1/6
f 1945/1/5 1946/1/5 1947/1/5 1948/1/5
f 1949/1/6 1950/1/6 1951/1/6 1952/1/6
f 1953/1/5 1954/1/5 1955/1/5 1956/1/5
f 1957/1/6 1958/1/6 1959/1/6 1960/1/6
f 1961/1/5 1962/1/5 1963/1/5 1964/1/5
f 1965/1/6 1966/1/6 1967/1/6 1968/1/6
f 1969/1/5 1970/1/5 1971/1/5 1972/1/5
f 1973/1/6 1974/1/6 1975/1/6 1976/1/6
f 1977/1/5 1978/1/5 1979/1/5 1980/1/5
f 1981/1/6 1982/1/6 1983/1/6 1984/1/6
f 1985/1/5 1986/1/5 1987/1/5 1988/1/5
f 1989/1/6 1990/1/6 1991/1/6 1992/1/6
f 1993/1/5 1994/1/5 1995/1/5 1996/1/5
f 1997/1/6 1998/1/6 1999/1/6 2000/1/6
f 2001/1/5 2002/1/5 2003/1/5 2004/1/5
f 2005/1/6 2006/1/6 2007/1/6 2008/1/6
f 2009/1/5 2010/1/5 2011/1/5 2012/1/5
f 2013/1/6 2014/1/6 2015/1/6 2016/1/6
f 2017/1/4 2018/1/4 2019/1/4 2020/1/4
f 2021/1/5 2022/1/5 2023/1/5 2024/1/5
f 2025/1/6 2026/1/6 2027/1/6 2028/1/6
f 2029/1/2 2030/1/2 2031/1/2 2032/1/2
f 2033/1/4 2034/1/4 2035/1/4 2036/1/4
f 2037/1/5 2038/1/5 2039/1/5 2040/1/5
f 2041/1/6 2042/1/6 2043/1/6 2044/1/6
f 2045/1/1 2046/1/1 2047/1/1 2048/1/1
f 2049/1/4 2050/1/4 2051/1/4 2052/1/4
f 2053/1/5 2054/1/5 2055/1/5 2056/1/5
f 2057/1/6 2058/1/6 2059/1/6 2060/1/6
f 2061/1/4 2062/1/4 2063/1/4 2064/1/4
f 2065/1/5 2066/1/5 2067/1/5 2068/1/5
f 2069/1/6 2070/1/6 2071/1/6 2072/1/6
f 2073/1/4 2074/1/4 2075/1/4 2076/1/4
f 2077/1/5 2078/1/5 2079/1/5 2080/1/5
f 2081/1/6 2082/1/6 2083/1/6 2084/1/6
f 2085/1/4 2086/1/4 2087/1/4 2088/1/4
f 2089/1/5 2090/1/5 2091/1/5 2092/1/5
f 2093/1/6 2094/1/6 2095/1/6 2096/1/6
f 2097/1/4 2098/1/4 2099/1/4 2100/1/4
f 2101/1/5 2102/1/5 2103/1/5 2104/1/5
f 2105/1/6 2106/1/6 2107/1/6 2108/1/6
f 2109/1/4 2110/1/4 2111/1/4 2112/1/4
f 2113/1/5 2114/1/5 2115/1/5 2116/1/5
f 2117/1/6 2118/1/6 2119/1/6 2120/1/6
f 2121/1/4 2122/1/4 2123/1/4 2124/1/4
f 2125/1/5 2126/1/5 2127/1/5 2128/1/5
f 2129/1/6 2130/1/6 2131/1/6 2132/1/6
f 2133/1/4 2134/1/4 2135/1/4 2136/1/4
f 2137/1/5 2138/1/5 2139/1/5 2140/1/5
f 2141/1/6 2142/1/6 2143/1/6 2144/1/6
f 2145/1/2 2146/1/2 2147/1/2 2148/1/2
f 2149/1/4 2150/1/4 2151/1/4 2152/1/4
f 2153/1/5 2154/1/5 2155/1/5 2156/1/5
f 2157/1/6 2158/1/6 2159/1/6 2160/1/6

