# generated by vox_to_obj_exporter
# scale=0.1 center=false ground=false y_up=true

mtllib Fight_748.mtl
usemtl palette

# normals
vn -1 0 0
vn 1 0 0
vn 0 1 0
vn 0 -1 0
vn 0 0 1
vn 0 0 -1

# texcoords
vt 0.142578125 0.5

# verts
v 7.8 12.9 -2.6
v 7.8 12.8 -2.6
v 7.8 12.8 -2.5
v 7.8 12.9 -2.5
v 7.8 12.9 -2.6
v 7.8 12.9 -2.5
v 7.9 12.9 -2.5
v 7.9 12.9 -2.6
v 7.8 12.9 -2.5
v 7.8 12.8 -2.5
v 7.9 12.8 -2.5
v 7.9 12.9 -2.5
v 7.9 12.9 -2.6
v 7.9 12.8 -2.6
v 7.8 12.8 -2.6
v 7.8 12.9 -2.6
v 7.9 12.9 -2.6
v 7.9 12.9 -2.5
v 8 12.9 -2.5
v 8 12.9 -2.6
v 7.9 12.9 -2.5
v 7.9 12.8 -2.5
v 8 12.8 -2.5
v 8 12.9 -2.5
v 8 12.9 -2.6
v 8 12.8 -2.6
v 7.9 12.8 -2.6
v 7.9 12.9 -2.6
v 8 12.9 -2.6
v 8 12.9 -2.5
v 8.1 12.9 -2.5
v 8.1 12.9 -2.6
v 8 12.9 -2.5
v 8 12.8 -2.5
v 8.1 12.8 -2.5
v 8.1 12.9 -2.5
v 8.1 12.9 -2.6
v 8.1 12.8 -2.6
v 8 12.8 -2.6
v 8 12.9 -2.6
v 8.1 12.9 -2.6
v 8.1 12.9 -2.5
v 8.2 12.9 -2.5
v 8.2 12.9 -2.6
v 8.1 12.9 -2.5
v 8.1 12.8 -2.5
v 8.2 12.8 -2.5
v 8.2 12.9 -2.5
v 8.2 12.9 -2.6
v 8.2 12.8 -2.6
v 8.1 12.8 -2.6
v 8.1 12.9 -2.6
v 8.2 12.9 -2.6
v 8.2 12.9 -2.5
v 8.3 12.9 -2.5
v 8.3 12.9 -2.6
v 8.2 12.9 -2.5
v 8.2 12.8 -2.5
v 8.3 12.8 -2.5
v 8.3 12.9 -2.5
v 8.3 12.9 -2.6
v 8.3 12.8 -2.6
v 8.2 12.8 -2.6
v 8.2 12.9 -2.6
v 8.4 12.9 -2.5
v 8.4 12.8 -2.5
v 8.4 12.8 -2.6
v 8.4 12.9 -2.6
v 8.3 12.9 -2.6
v 8.3 12.9 -2.5
v 8.4 12.9 -2.5
v 8.4 12.9 -2.6
v 8.3 12.9 -2.5
v 8.3 12.8 -2.5
v 8.4 12.8 -2.5
v 8.4 12.9 -2.5
v 8.4 12.9 -2.6
v 8.4 12.8 -2.6
v 8.3 12.8 -2.6
v 8.3 12.9 -2.6
v 7.6 12.8 -2.6
v 7.6 12.7 -2.6
v 7.6 12.7 -2.5
v 7.6 12.8 -2.5
v 7.6 12.8 -2.6
v 7.6 12.8 -2.5
v 7.7 12.8 -2.5
v 7.7 12.8 -2.6
v 7.6 12.8 -2.5
v 7.6 12.7 -2.5
v 7.7 12.7 -2.5
v 7.7 12.8 -2.5
v 7.7 12.8 -2.6
v 7.7 12.7 -2.6
v 7.6 12.7 -2.6
v 7.6 12.8 -2.6
v 7.7 12.8 -2.6
v 7.7 12.8 -2.5
v 7.8 12.8 -2.5
v 7.8 12.8 -2.6
v 7.7 12.8 -2.5
v 7.7 12.7 -2.5
v 7.8 12.7 -2.5
v 7.8 12.8 -2.5
v 7.8 12.8 -2.6
v 7.8 12.7 -2.6
v 7.7 12.7 -2.6
v 7.7 12.8 -2.6
v 7.8 12.8 -2.5
v 7.8 12.7 -2.5
v 7.9 12.7 -2.5
v 7.9 12.8 -2.5
v 7.9 12.8 -2.6
v 7.9 12.7 -2.6
v 7.8 12.7 -2.6
v 7.8 12.8 -2.6
v 7.9 12.8 -2.5
v 7.9 12.7 -2.5
v 8 12.7 -2.5
v 8 12.8 -2.5
v 8 12.8 -2.6
v 8 12.7 -2.6
v 7.9 12.7 -2.6
v 7.9 12.8 -2.6
v 8 12.8 -2.5
v 8 12.7 -2.5
v 8.1 12.7 -2.5
v 8.1 12.8 -2.5
v 8.1 12.8 -2.6
v 8.1 12.7 -2.6
v 8 12.7 -2.6
v 8 12.8 -2.6
v 8.1 12.8 -2.5
v 8.1 12.7 -2.5
v 8.2 12.7 -2.5
v 8.2 12.8 -2.5
v 8.2 12.8 -2.6
v 8.2 12.7 -2.6
v 8.1 12.7 -2.6
v 8.1 12.8 -2.6
v 8.2 12.8 -2.5
v 8.2 12.7 -2.5
v 8.3 12.7 -2.5
v 8.3 12.8 -2.5
v 8.3 12.8 -2.6
v 8.3 12.7 -2.6
v 8.2 12.7 -2.6
v 8.2 12.8 -2.6
v 8.3 12.8 -2.5
v 8.3 12.7 -2.5
v 8.4 12.7 -2.5
v 8.4 12.8 -2.5
v 8.4 12.8 -2.6
v 8.4 12.7 -2.6
v 8.3 12.7 -2.6
v 8.3 12.8 -2.6
v 8.5 12.8 -2.5
v 8.5 12.7 -2.5
v 8.5 12.7 -2.6
v 8.5 12.8 -2.6
v 8.4 12.8 -2.6
v 8.4 12.8 -2.5
v 8.5 12.8 -2.5
v 8.5 12.8 -2.6
v 8.4 12.8 -2.5
v 8.4 12.7 -2.5
v 8.5 12.7 -2.5
v 8.5 12.8 -2.5
v 8.5 12.8 -2.6
v 8.5 12.7 -2.6
v 8.4 12.7 -2.6
v 8.4 12.8 -2.6
v 7.6 12.7 -2.6
v 7.6 12.6 -2.6
v 7.6 12.6 -2.5
v 7.6 12.7 -2.5
v 7.6 12.7 -2.5
v 7.6 12.6 -2.5
v 7.7 12.6 -2.5
v 7.7 12.7 -2.5
v 7.7 12.7 -2.6
v 7.7 12.6 -2.6
v 7.6 12.6 -2.6
v 7.6 12.7 -2.6
v 7.7 12.7 -2.5
v 7.7 12.6 -2.5
v 7.8 12.6 -2.5
v 7.8 12.7 -2.5
v 7.8 12.7 -2.6
v 7.8 12.6 -2.6
v 7.7 12.6 -2.6
v 7.7 12.7 -2.6
v 7.8 12.7 -2.5
v 7.8 12.6 -2.5
v 7.9 12.6 -2.5
v 7.9 12.7 -2.5
v 7.9 12.7 -2.6
v 7.9 12.6 -2.6
v 7.8 12.6 -2.6
v 7.8 12.7 -2.6
v 7.9 12.7 -2.5
v 7.9 12.6 -2.5
v 8 12.6 -2.5
v 8 12.7 -2.5
v 8 12.7 -2.6
v 8 12.6 -2.6
v 7.9 12.6 -2.6
v 7.9 12.7 -2.6
v 8 12.7 -2.5
v 8 12.6 -2.5
v 8.1 12.6 -2.5
v 8.1 12.7 -2.5
v 8.1 12.7 -2.6
v 8.1 12.6 -2.6
v 8 12.6 -2.6
v 8 12.7 -2.6
v 8.1 12.7 -2.5
v 8.1 12.6 -2.5
v 8.2 12.6 -2.5
v 8.2 12.7 -2.5
v 8.2 12.7 -2.6
v 8.2 12.6 -2.6
v 8.1 12.6 -2.6
v 8.1 12.7 -2.6
v 8.2 12.7 -2.5
v 8.2 12.6 -2.5
v 8.3 12.6 -2.5
v 8.3 12.7 -2.5
v 8.3 12.7 -2.6
v 8.3 12.6 -2.6
v 8.2 12.6 -2.6
v 8.2 12.7 -2.6
v 8.3 12.7 -2.5
v 8.3 12.6 -2.5
v 8.4 12.6 -2.5
v 8.4 12.7 -2.5
v 8.4 12.7 -2.6
v 8.4 12.6 -2.6
v 8.3 12.6 -2.6
v 8.3 12.7 -2.6
v 8.4 12.7 -2.5
v 8.4 12.6 -2.5
v 8.5 12.6 -2.5
v 8.5 12.7 -2.5
v 8.5 12.7 -2.6
v 8.5 12.6 -2.6
v 8.4 12.6 -2.6
v 8.4 12.7 -2.6
v 8.6 12.7 -2.5
v 8.6 12.6 -2.5
v 8.6 12.6 -2.6
v 8.6 12.7 -2.6
v 8.5 12.7 -2.6
v 8.5 12.7 -2.5
v 8.6 12.7 -2.5
v 8.6 12.7 -2.6
v 8.5 12.7 -2.5
v 8.5 12.6 -2.5
v 8.6 12.6 -2.5
v 8.6 12.7 -2.5
v 8.6 12.7 -2.6
v 8.6 12.6 -2.6
v 8.5 12.6 -2.6
v 8.5 12.7 -2.6
v 7.5 12.6 -2.6
v 7.5 12.5 -2.6
v 7.5 12.5 -2.5
v 7.5 12.6 -2.5
v 7.5 12.6 -2.6
v 7.5 12.6 -2.5
v 7.6 12.6 -2.5
v 7.6 12.6 -2.6
v 7.5 12.6 -2.5
v 7.5 12.5 -2.5
v 7.6 12.5 -2.5
v 7.6 12.6 -2.5
v 7.6 12.6 -2.6
v 7.6 12.5 -2.6
v 7.5 12.5 -2.6
v 7.5 12.6 -2.6
v 7.6 12.6 -2.5
v 7.6 12.5 -2.5
v 7.7 12.5 -2.5
v 7.7 12.6 -2.5
v 7.7 12.6 -2.6
v 7.7 12.5 -2.6
v 7.6 12.5 -2.6
v 7.6 12.6 -2.6
v 7.7 12.6 -2.5
v 7.7 12.5 -2.5
v 7.8 12.5 -2.5
v 7.8 12.6 -2.5
v 7.8 12.6 -2.6
v 7.8 12.5 -2.6
v 7.7 12.5 -2.6
v 7.7 12.6 -2.6
v 7.8 12.6 -2.5
v 7.8 12.5 -2.5
v 7.9 12.5 -2.5
v 7.9 12.6 -2.5
v 7.9 12.6 -2.6
v 7.9 12.5 -2.6
v 7.8 12.5 -2.6
v 7.8 12.6 -2.6
v 7.9 12.6 -2.5
v 7.9 12.5 -2.5
v 8 12.5 -2.5
v 8 12.6 -2.5
v 8 12.6 -2.6
v 8 12.5 -2.6
v 7.9 12.5 -2.6
v 7.9 12.6 -2.6
v 8 12.6 -2.5
v 8 12.5 -2.5
v 8.1 12.5 -2.5
v 8.1 12.6 -2.5
v 8.1 12.6 -2.6
v 8.1 12.5 -2.6
v 8 12.5 -2.6
v 8 12.6 -2.6
v 8.1 12.6 -2.5
v 8.1 12.5 -2.5
v 8.2 12.5 -2.5
v 8.2 12.6 -2.5
v 8.2 12.6 -2.6
v 8.2 12.5 -2.6
v 8.1 12.5 -2.6
v 8.1 12.6 -2.6
v 8.2 12.6 -2.5
v 8.2 12.5 -2.5
v 8.3 12.5 -2.5
v 8.3 12.6 -2.5
v 8.3 12.6 -2.6
v 8.3 12.5 -2.6
v 8.2 12.5 -2.6
v 8.2 12.6 -2.6
v 8.3 12.6 -2.5
v 8.3 12.5 -2.5
v 8.4 12.5 -2.5
v 8.4 12.6 -2.5
v 8.4 12.6 -2.6
v 8.4 12.5 -2.6
v 8.3 12.5 -2.6
v 8.3 12.6 -2.6
v 8.4 12.6 -2.5
v 8.4 12.5 -2.5
v 8.5 12.5 -2.5
v 8.5 12.6 -2.5
v 8.5 12.6 -2.6
v 8.5 12.5 -2.6
v 8.4 12.5 -2.6
v 8.4 12.6 -2.6
v 8.5 12.6 -2.5
v 8.5 12.5 -2.5
v 8.6 12.5 -2.5
v 8.6 12.6 -2.5
v 8.6 12.6 -2.6
v 8.6 12.5 -2.6
v 8.5 12.5 -2.6
v 8.5 12.6 -2.6
v 8.7 12.6 -2.5
v 8.7 12.5 -2.5
v 8.7 12.5 -2.6
v 8.7 12.6 -2.6
v 8.6 12.6 -2.6
v 8.6 12.6 -2.5
v 8.7 12.6 -2.5
v 8.7 12.6 -2.6
v 8.6 12.6 -2.5
v 8.6 12.5 -2.5
v 8.7 12.5 -2.5
v 8.7 12.6 -2.5
v 8.7 12.6 -2.6
v 8.7 12.5 -2.6
v 8.6 12.5 -2.6
v 8.6 12.6 -2.6
v 7.5 12.5 -2.6
v 7.5 12.4 -2.6
v 7.5 12.4 -2.5
v 7.5 12.5 -2.5
v 7.5 12.5 -2.5
v 7.5 12.4 -2.5
v 7.6 12.4 -2.5
v 7.6 12.5 -2.5
v 7.6 12.5 -2.6
v 7.6 12.4 -2.6
v 7.5 12.4 -2.6
v 7.5 12.5 -2.6
v 7.6 12.5 -2.5
v 7.6 12.4 -2.5
v 7.7 12.4 -2.5
v 7.7 12.5 -2.5
v 7.7 12.5 -2.6
v 7.7 12.4 -2.6
v 7.6 12.4 -2.6
v 7.6 12.5 -2.6
v 7.7 12.5 -2.5
v 7.7 12.4 -2.5
v 7.8 12.4 -2.5
v 7.8 12.5 -2.5
v 7.8 12.5 -2.6
v 7.8 12.4 -2.6
v 7.7 12.4 -2.6
v 7.7 12.5 -2.6
v 7.8 12.5 -2.5
v 7.8 12.4 -2.5
v 7.9 12.4 -2.5
v 7.9 12.5 -2.5
v 7.9 12.5 -2.6
v 7.9 12.4 -2.6
v 7.8 12.4 -2.6
v 7.8 12.5 -2.6
v 7.9 12.5 -2.5
v 7.9 12.4 -2.5
v 8 12.4 -2.5
v 8 12.5 -2.5
v 8 12.5 -2.6
v 8 12.4 -2.6
v 7.9 12.4 -2.6
v 7.9 12.5 -2.6
v 8 12.5 -2.5
v 8 12.4 -2.5
v 8.1 12.4 -2.5
v 8.1 12.5 -2.5
v 8.1 12.5 -2.6
v 8.1 12.4 -2.6
v 8 12.4 -2.6
v 8 12.5 -2.6
v 8.1 12.5 -2.5
v 8.1 12.4 -2.5
v 8.2 12.4 -2.5
v 8.2 12.5 -2.5
v 8.2 12.5 -2.6
v 8.2 12.4 -2.6
v 8.1 12.4 -2.6
v 8.1 12.5 -2.6
v 8.2 12.5 -2.5
v 8.2 12.4 -2.5
v 8.3 12.4 -2.5
v 8.3 12.5 -2.5
v 8.3 12.5 -2.6
v 8.3 12.4 -2.6
v 8.2 12.4 -2.6
v 8.2 12.5 -2.6
v 8.3 12.5 -2.5
v 8.3 12.4 -2.5
v 8.4 12.4 -2.5
v 8.4 12.5 -2.5
v 8.4 12.5 -2.6
v 8.4 12.4 -2.6
v 8.3 12.4 -2.6
v 8.3 12.5 -2.6
v 8.4 12.5 -2.5
v 8.4 12.4 -2.5
v 8.5 12.4 -2.5
v 8.5 12.5 -2.5
v 8.5 12.5 -2.6
v 8.5 12.4 -2.6
v 8.4 12.4 -2.6
v 8.4 12.5 -2.6
v 8.5 12.5 -2.5
v 8.5 12.4 -2.5
v 8.6 12.4 -2.5
v 8.6 12.5 -2.5
v 8.6 12.5 -2.6
v 8.6 12.4 -2.6
v 8.5 12.4 -2.6
v 8.5 12.5 -2.6
v 8.6 12.5 -2.5
v 8.6 12.4 -2.5
v 8.7 12.4 -2.5
v 8.7 12.5 -2.5
v 8.7 12.5 -2.6
v 8.7 12.4 -2.6
v 8.6 12.4 -2.6
v 8.6 12.5 -2.6
v 8.8 12.5 -2.5
v 8.8 12.4 -2.5
v 8.8 12.4 -2.6
v 8.8 12.5 -2.6
v 8.7 12.5 -2.6
v 8.7 12.5 -2.5
v 8.8 12.5 -2.5
v 8.8 12.5 -2.6
v 8.7 12.5 -2.5
v 8.7 12.4 -2.5
v 8.8 12.4 -2.5
v 8.8 12.5 -2.5
v 8.8 12.5 -2.6
v 8.8 12.4 -2.6
v 8.7 12.4 -2.6
v 8.7 12.5 -2.6
v 7.4 12.4 -2.6
v 7.4 12.3 -2.6
v 7.4 12.3 -2.5
v 7.4 12.4 -2.5
v 7.4 12.4 -2.6
v 7.4 12.4 -2.5
v 7.5 12.4 -2.5
v 7.5 12.4 -2.6
v 7.4 12.4 -2.5
v 7.4 12.3 -2.5
v 7.5 12.3 -2.5
v 7.5 12.4 -2.5
v 7.5 12.4 -2.6
v 7.5 12.3 -2.6
v 7.4 12.3 -2.6
v 7.4 12.4 -2.6
v 7.5 12.4 -2.5
v 7.5 12.3 -2.5
v 7.6 12.3 -2.5
v 7.6 12.4 -2.5
v 7.6 12.4 -2.6
v 7.6 12.3 -2.6
v 7.5 12.3 -2.6
v 7.5 12.4 -2.6
v 7.6 12.4 -2.5
v 7.6 12.3 -2.5
v 7.7 12.3 -2.5
v 7.7 12.4 -2.5
v 7.7 12.4 -2.6
v 7.7 12.3 -2.6
v 7.6 12.3 -2.6
v 7.6 12.4 -2.6
v 7.7 12.4 -2.5
v 7.7 12.3 -2.5
v 7.8 12.3 -2.5
v 7.8 12.4 -2.5
v 7.8 12.4 -2.6
v 7.8 12.3 -2.6
v 7.7 12.3 -2.6
v 7.7 12.4 -2.6
v 7.8 12.4 -2.5
v 7.8 12.3 -2.5
v 7.9 12.3 -2.5
v 7.9 12.4 -2.5
v 7.9 12.4 -2.6
v 7.9 12.3 -2.6
v 7.8 12.3 -2.6
v 7.8 12.4 -2.6
v 7.9 12.4 -2.5
v 7.9 12.3 -2.5
v 8 12.3 -2.5
v 8 12.4 -2.5
v 8 12.4 -2.6
v 8 12.3 -2.6
v 7.9 12.3 -2.6
v 7.9 12.4 -2.6
v 8 12.4 -2.5
v 8 12.3 -2.5
v 8.1 12.3 -2.5
v 8.1 12.4 -2.5
v 8.1 12.4 -2.6
v 8.1 12.3 -2.6
v 8 12.3 -2.6
v 8 12.4 -2.6
v 8.1 12.4 -2.5
v 8.1 12.3 -2.5
v 8.2 12.3 -2.5
v 8.2 12.4 -2.5
v 8.2 12.4 -2.6
v 8.2 12.3 -2.6
v 8.1 12.3 -2.6
v 8.1 12.4 -2.6
v 8.2 12.4 -2.5
v 8.2 12.3 -2.5
v 8.3 12.3 -2.5
v 8.3 12.4 -2.5
v 8.3 12.4 -2.6
v 8.3 12.3 -2.6
v 8.2 12.3 -2.6
v 8.2 12.4 -2.6
v 8.3 12.4 -2.5
v 8.3 12.3 -2.5
v 8.4 12.3 -2.5
v 8.4 12.4 -2.5
v 8.4 12.4 -2.6
v 8.4 12.3 -2.6
v 8.3 12.3 -2.6
v 8.3 12.4 -2.6
v 8.4 12.4 -2.5
v 8.4 12.3 -2.5
v 8.5 12.3 -2.5
v 8.5 12.4 -2.5
v 8.5 12.4 -2.6
v 8.5 12.3 -2.6
v 8.4 12.3 -2.6
v 8.4 12.4 -2.6
v 8.5 12.4 -2.5
v 8.5 12.3 -2.5
v 8.6 12.3 -2.5
v 8.6 12.4 -2.5
v 8.6 12.4 -2.6
v 8.6 12.3 -2.6
v 8.5 12.3 -2.6
v 8.5 12.4 -2.6
v 8.6 12.4 -2.5
v 8.6 12.3 -2.5
v 8.7 12.3 -2.5
v 8.7 12.4 -2.5
v 8.7 12.4 -2.6
v 8.7 12.3 -2.6
v 8.6 12.3 -2.6
v 8.6 12.4 -2.6
v 8.8 12.4 -2.5
v 8.8 12.3 -2.5
v 8.8 12.3 -2.6
v 8.8 12.4 -2.6
v 8.7 12.4 -2.5
v 8.7 12.3 -2.5
v 8.8 12.3 -2.5
v 8.8 12.4 -2.5
v 8.8 12.4 -2.6
v 8.8 12.3 -2.6
v 8.7 12.3 -2.6
v 8.7 12.4 -2.6
v 7.4 12.3 -2.6
v 7.4 12.2 -2.6
v 7.4 12.2 -2.5
v 7.4 12.3 -2.5
v 7.4 12.3 -2.5
v 7.4 12.2 -2.5
v 7.5 12.2 -2.5
v 7.5 12.3 -2.5
v 7.5 12.3 -2.6
v 7.5 12.2 -2.6
v 7.4 12.2 -2.6
v 7.4 12.3 -2.6
v 7.5 12.3 -2.5
v 7.5 12.2 -2.5
v 7.6 12.2 -2.5
v 7.6 12.3 -2.5
v 7.6 12.3 -2.6
v 7.6 12.2 -2.6
v 7.5 12.2 -2.6
v 7.5 12.3 -2.6
v 7.6 12.3 -2.5
v 7.6 12.2 -2.5
v 7.7 12.2 -2.5
v 7.7 12.3 -2.5
v 7.7 12.3 -2.6
v 7.7 12.2 -2.6
v 7.6 12.2 -2.6
v 7.6 12.3 -2.6
v 7.7 12.3 -2.5
v 7.7 12.2 -2.5
v 7.8 12.2 -2.5
v 7.8 12.3 -2.5
v 7.8 12.3 -2.6
v 7.8 12.2 -2.6
v 7.7 12.2 -2.6
v 7.7 12.3 -2.6
v 7.8 12.3 -2.5
v 7.8 12.2 -2.5
v 7.9 12.2 -2.5
v 7.9 12.3 -2.5
v 7.9 12.3 -2.6
v 7.9 12.2 -2.6
v 7.8 12.2 -2.6
v 7.8 12.3 -2.6
v 7.9 12.3 -2.5
v 7.9 12.2 -2.5
v 8 12.2 -2.5
v 8 12.3 -2.5
v 8 12.3 -2.6
v 8 12.2 -2.6
v 7.9 12.2 -2.6
v 7.9 12.3 -2.6
v 8 12.3 -2.5
v 8 12.2 -2.5
v 8.1 12.2 -2.5
v 8.1 12.3 -2.5
v 8.1 12.3 -2.6
v 8.1 12.2 -2.6
v 8 12.2 -2.6
v 8 12.3 -2.6
v 8.1 12.3 -2.5
v 8.1 12.2 -2.5
v 8.2 12.2 -2.5
v 8.2 12.3 -2.5
v 8.2 12.3 -2.6
v 8.2 12.2 -2.6
v 8.1 12.2 -2.6
v 8.1 12.3 -2.6
v 8.2 12.3 -2.5
v 8.2 12.2 -2.5
v 8.3 12.2 -2.5
v 8.3 12.3 -2.5
v 8.3 12.3 -2.6
v 8.3 12.2 -2.6
v 8.2 12.2 -2.6
v 8.2 12.3 -2.6
v 8.3 12.3 -2.5
v 8.3 12.2 -2.5
v 8.4 12.2 -2.5
v 8.4 12.3 -2.5
v 8.4 12.3 -2.6
v 8.4 12.2 -2.6
v 8.3 12.2 -2.6
v 8.3 12.3 -2.6
v 8.4 12.3 -2.5
v 8.4 12.2 -2.5
v 8.5 12.2 -2.5
v 8.5 12.3 -2.5
v 8.5 12.3 -2.6
v 8.5 12.2 -2.6
v 8.4 12.2 -2.6
v 8.4 12.3 -2.6
v 8.5 12.3 -2.5
v 8.5 12.2 -2.5
v 8.6 12.2 -2.5
v 8.6 12.3 -2.5
v 8.6 12.3 -2.6
v 8.6 12.2 -2.6
v 8.5 12.2 -2.6
v 8.5 12.3 -2.6
v 8.6 12.3 -2.5
v 8.6 12.2 -2.5
v 8.7 12.2 -2.5
v 8.7 12.3 -2.5
v 8.7 12.3 -2.6
v 8.7 12.2 -2.6
v 8.6 12.2 -2.6
v 8.6 12.3 -2.6
v 8.8 12.3 -2.5
v 8.8 12.2 -2.5
v 8.8 12.2 -2.6
v 8.8 12.3 -2.6
v 8.7 12.3 -2.5
v 8.7 12.2 -2.5
v 8.8 12.2 -2.5
v 8.8 12.3 -2.5
v 8.8 12.3 -2.6
v 8.8 12.2 -2.6
v 8.7 12.2 -2.6
v 8.7 12.3 -2.6
v 7.4 12.2 -2.6
v 7.4 12.1 -2.6
v 7.4 12.1 -2.5
v 7.4 12.2 -2.5
v 7.4 12.2 -2.5
v 7.4 12.1 -2.5
v 7.5 12.1 -2.5
v 7.5 12.2 -2.5
v 7.5 12.2 -2.6
v 7.5 12.1 -2.6
v 7.4 12.1 -2.6
v 7.4 12.2 -2.6
v 7.5 12.2 -2.5
v 7.5 12.1 -2.5
v 7.6 12.1 -2.5
v 7.6 12.2 -2.5
v 7.6 12.2 -2.6
v 7.6 12.1 -2.6
v 7.5 12.1 -2.6
v 7.5 12.2 -2.6
v 7.6 12.2 -2.5
v 7.6 12.1 -2.5
v 7.7 12.1 -2.5
v 7.7 12.2 -2.5
v 7.7 12.2 -2.6
v 7.7 12.1 -2.6
v 7.6 12.1 -2.6
v 7.6 12.2 -2.6
v 7.7 12.2 -2.5
v 7.7 12.1 -2.5
v 7.8 12.1 -2.5
v 7.8 12.2 -2.5
v 7.8 12.2 -2.6
v 7.8 12.1 -2.6
v 7.7 12.1 -2.6
v 7.7 12.2 -2.6
v 7.8 12.2 -2.5
v 7.8 12.1 -2.5
v 7.9 12.1 -2.5
v 7.9 12.2 -2.5
v 7.9 12.2 -2.6
v 7.9 12.1 -2.6
v 7.8 12.1 -2.6
v 7.8 12.2 -2.6
v 7.9 12.2 -2.5
v 7.9 12.1 -2.5
v 8 12.1 -2.5
v 8 12.2 -2.5
v 8 12.2 -2.6
v 8 12.1 -2.6
v 7.9 12.1 -2.6
v 7.9 12.2 -2.6
v 8 12.2 -2.5
v 8 12.1 -2.5
v 8.1 12.1 -2.5
v 8.1 12.2 -2.5
v 8.1 12.2 -2.6
v 8.1 12.1 -2.6
v 8 12.1 -2.6
v 8 12.2 -2.6
v 8.1 12.2 -2.5
v 8.1 12.1 -2.5
v 8.2 12.1 -2.5
v 8.2 12.2 -2.5
v 8.2 12.2 -2.6
v 8.2 12.1 -2.6
v 8.1 12.1 -2.6
v 8.1 12.2 -2.6
v 8.2 12.2 -2.5
v 8.2 12.1 -2.5
v 8.3 12.1 -2.5
v 8.3 12.2 -2.5
v 8.3 12.2 -2.6
v 8.3 12.1 -2.6
v 8.2 12.1 -2.6
v 8.2 12.2 -2.6
v 8.3 12.2 -2.5
v 8.3 12.1 -2.5
v 8.4 12.1 -2.5
v 8.4 12.2 -2.5
v 8.4 12.2 -2.6
v 8.4 12.1 -2.6
v 8.3 12.1 -2.6
v 8.3 12.2 -2.6
v 8.4 12.2 -2.5
v 8.4 12.1 -2.5
v 8.5 12.1 -2.5
v 8.5 12.2 -2.5
v 8.5 12.2 -2.6
v 8.5 12.1 -2.6
v 8.4 12.1 -2.6
v 8.4 12.2 -2.6
v 8.5 12.2 -2.5
v 8.5 12.1 -2.5
v 8.6 12.1 -2.5
v 8.6 12.2 -2.5
v 8.6 12.2 -2.6
v 8.6 12.1 -2.6
v 8.5 12.1 -2.6
v 8.5 12.2 -2.6
v 8.6 12.2 -2.5
v 8.6 12.1 -2.5
v 8.7 12.1 -2.5
v 8.7 12.2 -2.5
v 8.7 12.2 -2.6
v 8.7 12.1 -2.6
v 8.6 12.1 -2.6
v 8.6 12.2 -2.6
v 8.8 12.2 -2.5
v 8.8 12.1 -2.5
v 8.8 12.1 -2.6
v 8.8 12.2 -2.6
v 8.7 12.2 -2.5
v 8.7 12.1 -2.5
v 8.8 12.1 -2.5
v 8.8 12.2 -2.5
v 8.8 12.2 -2.6
v 8.8 12.1 -2.6
v 8.7 12.1 -2.6
v 8.7 12.2 -2.6
v 7.4 12.1 -2.6
v 7.4 12 -2.6
v 7.4 12 -2.5
v 7.4 12.1 -2.5
v 7.4 12.1 -2.5
v 7.4 12 -2.5
v 7.5 12 -2.5
v 7.5 12.1 -2.5
v 7.5 12.1 -2.6
v 7.5 12 -2.6
v 7.4 12 -2.6
v 7.4 12.1 -2.6
v 7.5 12.1 -2.5
v 7.5 12 -2.5
v 7.6 12 -2.5
v 7.6 12.1 -2.5
v 7.6 12.1 -2.6
v 7.6 12 -2.6
v 7.5 12 -2.6
v 7.5 12.1 -2.6
v 7.6 12.1 -2.5
v 7.6 12 -2.5
v 7.7 12 -2.5
v 7.7 12.1 -2.5
v 7.7 12.1 -2.6
v 7.7 12 -2.6
v 7.6 12 -2.6
v 7.6 12.1 -2.6
v 7.7 12.1 -2.5
v 7.7 12 -2.5
v 7.8 12 -2.5
v 7.8 12.1 -2.5
v 7.8 12.1 -2.6
v 7.8 12 -2.6
v 7.7 12 -2.6
v 7.7 12.1 -2.6
v 7.8 12.1 -2.5
v 7.8 12 -2.5
v 7.9 12 -2.5
v 7.9 12.1 -2.5
v 7.9 12.1 -2.6
v 7.9 12 -2.6
v 7.8 12 -2.6
v 7.8 12.1 -2.6
v 7.9 12.1 -2.5
v 7.9 12 -2.5
v 8 12 -2.5
v 8 12.1 -2.5
v 8 12.1 -2.6
v 8 12 -2.6
v 7.9 12 -2.6
v 7.9 12.1 -2.6
v 8 12.1 -2.5
v 8 12 -2.5
v 8.1 12 -2.5
v 8.1 12.1 -2.5
v 8.1 12.1 -2.6
v 8.1 12 -2.6
v 8 12 -2.6
v 8 12.1 -2.6
v 8.1 12.1 -2.5
v 8.1 12 -2.5
v 8.2 12 -2.5
v 8.2 12.1 -2.5
v 8.2 12.1 -2.6
v 8.2 12 -2.6
v 8.1 12 -2.6
v 8.1 12.1 -2.6
v 8.2 12.1 -2.5
v 8.2 12 -2.5
v 8.3 12 -2.5
v 8.3 12.1 -2.5
v 8.3 12.1 -2.6
v 8.3 12 -2.6
v 8.2 12 -2.6
v 8.2 12.1 -2.6
v 8.3 12.1 -2.5
v 8.3 12 -2.5
v 8.4 12 -2.5
v 8.4 12.1 -2.5
v 8.4 12.1 -2.6
v 8.4 12 -2.6
v 8.3 12 -2.6
v 8.3 12.1 -2.6
v 8.4 12.1 -2.5
v 8.4 12 -2.5
v 8.5 12 -2.5
v 8.5 12.1 -2.5
v 8.5 12.1 -2.6
v 8.5 12 -2.6
v 8.4 12 -2.6
v 8.4 12.1 -2.6
v 8.5 12.1 -2.5
v 8.5 12 -2.5
v 8.6 12 -2.5
v 8.6 12.1 -2.5
v 8.6 12.1 -2.6
v 8.6 12 -2.6
v 8.5 12 -2.6
v 8.5 12.1 -2.6
v 8.6 12.1 -2.5
v 8.6 12 -2.5
v 8.7 12 -2.5
v 8.7 12.1 -2.5
v 8.7 12.1 -2.6
v 8.7 12 -2.6
v 8.6 12 -2.6
v 8.6 12.1 -2.6
v 8.8 12.1 -2.5
v 8.8 12 -2.5
v 8.8 12 -2.6
v 8.8 12.1 -2.6
v 8.7 12.1 -2.5
v 8.7 12 -2.5
v 8.8 12 -2.5
v 8.8 12.1 -2.5
v 8.8 12.1 -2.6
v 8.8 12 -2.6
v 8.7 12 -2.6
v 8.7 12.1 -2.6
v 7.4 12 -2.6
v 7.4 11.9 -2.6
v 7.4 11.9 -2.5
v 7.4 12 -2.5
v 7.4 11.9 -2.5
v 7.4 11.9 -2.6
v 7.5 11.9 -2.6
v 7.5 11.9 -2.5
v 7.4 12 -2.5
v 7.4 11.9 -2.5
v 7.5 11.9 -2.5
v 7.5 12 -2.5
v 7.5 12 -2.6
v 7.5 11.9 -2.6
v 7.4 11.9 -2.6
v 7.4 12 -2.6
v 7.5 12 -2.5
v 7.5 11.9 -2.5
v 7.6 11.9 -2.5
v 7.6 12 -2.5
v 7.6 12 -2.6
v 7.6 11.9 -2.6
v 7.5 11.9 -2.6
v 7.5 12 -2.6
v 7.6 12 -2.5
v 7.6 11.9 -2.5
v 7.7 11.9 -2.5
v 7.7 12 -2.5
v 7.7 12 -2.6
v 7.7 11.9 -2.6
v 7.6 11.9 -2.6
v 7.6 12 -2.6
v 7.7 12 -2.5
v 7.7 11.9 -2.5
v 7.8 11.9 -2.5
v 7.8 12 -2.5
v 7.8 12 -2.6
v 7.8 11.9 -2.6
v 7.7 11.9 -2.6
v 7.7 12 -2.6
v 7.8 12 -2.5
v 7.8 11.9 -2.5
v 7.9 11.9 -2.5
v 7.9 12 -2.5
v 7.9 12 -2.6
v 7.9 11.9 -2.6
v 7.8 11.9 -2.6
v 7.8 12 -2.6
v 7.9 12 -2.5
v 7.9 11.9 -2.5
v 8 11.9 -2.5
v 8 12 -2.5
v 8 12 -2.6
v 8 11.9 -2.6
v 7.9 11.9 -2.6
v 7.9 12 -2.6
v 8 12 -2.5
v 8 11.9 -2.5
v 8.1 11.9 -2.5
v 8.1 12 -2.5
v 8.1 12 -2.6
v 8.1 11.9 -2.6
v 8 11.9 -2.6
v 8 12 -2.6
v 8.1 12 -2.5
v 8.1 11.9 -2.5
v 8.2 11.9 -2.5
v 8.2 12 -2.5
v 8.2 12 -2.6
v 8.2 11.9 -2.6
v 8.1 11.9 -2.6
v 8.1 12 -2.6
v 8.2 12 -2.5
v 8.2 11.9 -2.5
v 8.3 11.9 -2.5
v 8.3 12 -2.5
v 8.3 12 -2.6
v 8.3 11.9 -2.6
v 8.2 11.9 -2.6
v 8.2 12 -2.6
v 8.3 12 -2.5
v 8.3 11.9 -2.5
v 8.4 11.9 -2.5
v 8.4 12 -2.5
v 8.4 12 -2.6
v 8.4 11.9 -2.6
v 8.3 11.9 -2.6
v 8.3 12 -2.6
v 8.4 12 -2.5
v 8.4 11.9 -2.5
v 8.5 11.9 -2.5
v 8.5 12 -2.5
v 8.5 12 -2.6
v 8.5 11.9 -2.6
v 8.4 11.9 -2.6
v 8.4 12 -2.6
v 8.5 12 -2.5
v 8.5 11.9 -2.5
v 8.6 11.9 -2.5
v 8.6 12 -2.5
v 8.6 12 -2.6
v 8.6 11.9 -2.6
v 8.5 11.9 -2.6
v 8.5 12 -2.6
v 8.6 12 -2.5
v 8.6 11.9 -2.5
v 8.7 11.9 -2.5
v 8.7 12 -2.5
v 8.7 12 -2.6
v 8.7 11.9 -2.6
v 8.6 11.9 -2.6
v 8.6 12 -2.6
v 8.8 12 -2.5
v 8.8 11.9 -2.5
v 8.8 11.9 -2.6
v 8.8 12 -2.6
v 8.7 12 -2.5
v 8.7 11.9 -2.5
v 8.8 11.9 -2.5
v 8.8 12 -2.5
v 8.8 12 -2.6
v 8.8 11.9 -2.6
v 8.7 11.9 -2.6
v 8.7 12 -2.6
v 7.5 11.9 -2.6
v 7.5 11.8 -2.6
v 7.5 11.8 -2.5
v 7.5 11.9 -2.5
v 7.5 11.9 -2.5
v 7.5 11.8 -2.5
v 7.6 11.8 -2.5
v 7.6 11.9 -2.5
v 7.6 11.9 -2.6
v 7.6 11.8 -2.6
v 7.5 11.8 -2.6
v 7.5 11.9 -2.6
v 7.6 11.9 -2.5
v 7.6 11.8 -2.5
v 7.7 11.8 -2.5
v 7.7 11.9 -2.5
v 7.7 11.9 -2.6
v 7.7 11.8 -2.6
v 7.6 11.8 -2.6
v 7.6 11.9 -2.6
v 7.7 11.9 -2.5
v 7.7 11.8 -2.5
v 7.8 11.8 -2.5
v 7.8 11.9 -2.5
v 7.8 11.9 -2.6
v 7.8 11.8 -2.6
v 7.7 11.8 -2.6
v 7.7 11.9 -2.6
v 7.8 11.9 -2.5
v 7.8 11.8 -2.5
v 7.9 11.8 -2.5
v 7.9 11.9 -2.5
v 7.9 11.9 -2.6
v 7.9 11.8 -2.6
v 7.8 11.8 -2.6
v 7.8 11.9 -2.6
v 7.9 11.9 -2.5
v 7.9 11.8 -2.5
v 8 11.8 -2.5
v 8 11.9 -2.5
v 8 11.9 -2.6
v 8 11.8 -2.6
v 7.9 11.8 -2.6
v 7.9 11.9 -2.6
v 8 11.9 -2.5
v 8 11.8 -2.5
v 8.1 11.8 -2.5
v 8.1 11.9 -2.5
v 8.1 11.9 -2.6
v 8.1 11.8 -2.6
v 8 11.8 -2.6
v 8 11.9 -2.6
v 8.1 11.9 -2.5
v 8.1 11.8 -2.5
v 8.2 11.8 -2.5
v 8.2 11.9 -2.5
v 8.2 11.9 -2.6
v 8.2 11.8 -2.6
v 8.1 11.8 -2.6
v 8.1 11.9 -2.6
v 8.2 11.9 -2.5
v 8.2 11.8 -2.5
v 8.3 11.8 -2.5
v 8.3 11.9 -2.5
v 8.3 11.9 -2.6
v 8.3 11.8 -2.6
v 8.2 11.8 -2.6
v 8.2 11.9 -2.6
v 8.3 11.9 -2.5
v 8.3 11.8 -2.5
v 8.4 11.8 -2.5
v 8.4 11.9 -2.5
v 8.4 11.9 -2.6
v 8.4 11.8 -2.6
v 8.3 11.8 -2.6
v 8.3 11.9 -2.6
v 8.4 11.9 -2.5
v 8.4 11.8 -2.5
v 8.5 11.8 -2.5
v 8.5 11.9 -2.5
v 8.5 11.9 -2.6
v 8.5 11.8 -2.6
v 8.4 11.8 -2.6
v 8.4 11.9 -2.6
v 8.5 11.9 -2.5
v 8.5 11.8 -2.5
v 8.6 11.8 -2.5
v 8.6 11.9 -2.5
v 8.6 11.9 -2.6
v 8.6 11.8 -2.6
v 8.5 11.8 -2.6
v 8.5 11.9 -2.6
v 8.6 11.9 -2.5
v 8.6 11.8 -2.5
v 8.7 11.8 -2.5
v 8.7 11.9 -2.5
v 8.7 11.9 -2.6
v 8.7 11.8 -2.6
v 8.6 11.8 -2.6
v 8.6 11.9 -2.6
v 8.8 11.9 -2.5
v 8.8 11.8 -2.5
v 8.8 11.8 -2.6
v 8.8 11.9 -2.6
v 8.7 11.9 -2.5
v 8.7 11.8 -2.5
v 8.8 11.8 -2.5
v 8.8 11.9 -2.5
v 8.8 11.9 -2.6
v 8.8 11.8 -2.6
v 8.7 11.8 -2.6
v 8.7 11.9 -2.6
v 7.5 11.8 -2.6
v 7.5 11.7 -2.6
v 7.5 11.7 -2.5
v 7.5 11.8 -2.5
v 7.5 11.7 -2.5
v 7.5 11.7 -2.6
v 7.6 11.7 -2.6
v 7.6 11.7 -2.5
v 7.5 11.8 -2.5
v 7.5 11.7 -2.5
v 7.6 11.7 -2.5
v 7.6 11.8 -2.5
v 7.6 11.8 -2.6
v 7.6 11.7 -2.6
v 7.5 11.7 -2.6
v 7.5 11.8 -2.6
v 7.6 11.8 -2.5
v 7.6 11.7 -2.5
v 7.7 11.7 -2.5
v 7.7 11.8 -2.5
v 7.7 11.8 -2.6
v 7.7 11.7 -2.6
v 7.6 11.7 -2.6
v 7.6 11.8 -2.6
v 7.7 11.8 -2.5
v 7.7 11.7 -2.5
v 7.8 11.7 -2.5
v 7.8 11.8 -2.5
v 7.8 11.8 -2.6
v 7.8 11.7 -2.6
v 7.7 11.7 -2.6
v 7.7 11.8 -2.6
v 7.8 11.8 -2.5
v 7.8 11.7 -2.5
v 7.9 11.7 -2.5
v 7.9 11.8 -2.5
v 7.9 11.8 -2.6
v 7.9 11.7 -2.6
v 7.8 11.7 -2.6
v 7.8 11.8 -2.6
v 7.9 11.8 -2.5
v 7.9 11.7 -2.5
v 8 11.7 -2.5
v 8 11.8 -2.5
v 8 11.8 -2.6
v 8 11.7 -2.6
v 7.9 11.7 -2.6
v 7.9 11.8 -2.6
v 8 11.8 -2.5
v 8 11.7 -2.5
v 8.1 11.7 -2.5
v 8.1 11.8 -2.5
v 8.1 11.8 -2.6
v 8.1 11.7 -2.6
v 8 11.7 -2.6
v 8 11.8 -2.6
v 8.1 11.8 -2.5
v 8.1 11.7 -2.5
v 8.2 11.7 -2.5
v 8.2 11.8 -2.5
v 8.2 11.8 -2.6
v 8.2 11.7 -2.6
v 8.1 11.7 -2.6
v 8.1 11.8 -2.6
v 8.2 11.8 -2.5
v 8.2 11.7 -2.5
v 8.3 11.7 -2.5
v 8.3 11.8 -2.5
v 8.3 11.8 -2.6
v 8.3 11.7 -2.6
v 8.2 11.7 -2.6
v 8.2 11.8 -2.6
v 8.3 11.8 -2.5
v 8.3 11.7 -2.5
v 8.4 11.7 -2.5
v 8.4 11.8 -2.5
v 8.4 11.8 -2.6
v 8.4 11.7 -2.6
v 8.3 11.7 -2.6
v 8.3 11.8 -2.6
v 8.4 11.8 -2.5
v 8.4 11.7 -2.5
v 8.5 11.7 -2.5
v 8.5 11.8 -2.5
v 8.5 11.8 -2.6
v 8.5 11.7 -2.6
v 8.4 11.7 -2.6
v 8.4 11.8 -2.6
v 8.5 11.8 -2.5
v 8.5 11.7 -2.5
v 8.6 11.7 -2.5
v 8.6 11.8 -2.5
v 8.6 11.8 -2.6
v 8.6 11.7 -2.6
v 8.5 11.7 -2.6
v 8.5 11.8 -2.6
v 8.6 11.8 -2.5
v 8.6 11.7 -2.5
v 8.7 11.7 -2.5
v 8.7 11.8 -2.5
v 8.7 11.8 -2.6
v 8.7 11.7 -2.6
v 8.6 11.7 -2.6
v 8.6 11.8 -2.6
v 8.8 11.8 -2.5
v 8.8 11.7 -2.5
v 8.8 11.7 -2.6
v 8.8 11.8 -2.6
v 8.7 11.7 -2.5
v 8.7 11.7 -2.6
v 8.8 11.7 -2.6
v 8.8 11.7 -2.5
v 8.7 11.8 -2.5
v 8.7 11.7 -2.5
v 8.8 11.7 -2.5
v 8.8 11.8 -2.5
v 8.8 11.8 -2.6
v 8.8 11.7 -2.6
v 8.7 11.7 -2.6
v 8.7 11.8 -2.6
v 7.6 11.7 -2.6
v 7.6 11.6 -2.6
v 7.6 11.6 -2.5
v 7.6 11.7 -2.5
v 7.6 11.7 -2.5
v 7.6 11.6 -2.5
v 7.7 11.6 -2.5
v 7.7 11.7 -2.5
v 7.7 11.7 -2.6
v 7.7 11.6 -2.6
v 7.6 11.6 -2.6
v 7.6 11.7 -2.6
v 7.7 11.7 -2.5
v 7.7 11.6 -2.5
v 7.8 11.6 -2.5
v 7.8 11.7 -2.5
v 7.8 11.7 -2.6
v 7.8 11.6 -2.6
v 7.7 11.6 -2.6
v 7.7 11.7 -2.6
v 7.8 11.7 -2.5
v 7.8 11.6 -2.5
v 7.9 11.6 -2.5
v 7.9 11.7 -2.5
v 7.9 11.7 -2.6
v 7.9 11.6 -2.6
v 7.8 11.6 -2.6
v 7.8 11.7 -2.6
v 7.9 11.7 -2.5
v 7.9 11.6 -2.5
v 8 11.6 -2.5
v 8 11.7 -2.5
v 8 11.7 -2.6
v 8 11.6 -2.6
v 7.9 11.6 -2.6
v 7.9 11.7 -2.6
v 8 11.7 -2.5
v 8 11.6 -2.5
v 8.1 11.6 -2.5
v 8.1 11.7 -2.5
v 8.1 11.7 -2.6
v 8.1 11.6 -2.6
v 8 11.6 -2.6
v 8 11.7 -2.6
v 8.1 11.7 -2.5
v 8.1 11.6 -2.5
v 8.2 11.6 -2.5
v 8.2 11.7 -2.5
v 8.2 11.7 -2.6
v 8.2 11.6 -2.6
v 8.1 11.6 -2.6
v 8.1 11.7 -2.6
v 8.2 11.7 -2.5
v 8.2 11.6 -2.5
v 8.3 11.6 -2.5
v 8.3 11.7 -2.5
v 8.3 11.7 -2.6
v 8.3 11.6 -2.6
v 8.2 11.6 -2.6
v 8.2 11.7 -2.6
v 8.3 11.7 -2.5
v 8.3 11.6 -2.5
v 8.4 11.6 -2.5
v 8.4 11.7 -2.5
v 8.4 11.7 -2.6
v 8.4 11.6 -2.6
v 8.3 11.6 -2.6
v 8.3 11.7 -2.6
v 8.4 11.7 -2.5
v 8.4 11.6 -2.5
v 8.5 11.6 -2.5
v 8.5 11.7 -2.5
v 8.5 11.7 -2.6
v 8.5 11.6 -2.6
v 8.4 11.6 -2.6
v 8.4 11.7 -2.6
v 8.5 11.7 -2.5
v 8.5 11.6 -2.5
v 8.6 11.6 -2.5
v 8.6 11.7 -2.5
v 8.6 11.7 -2.6
v 8.6 11.6 -2.6
v 8.5 11.6 -2.6
v 8.5 11.7 -2.6
v 8.7 11.7 -2.5
v 8.7 11.6 -2.5
v 8.7 11.6 -2.6
v 8.7 11.7 -2.6
v 8.6 11.7 -2.5
v 8.6 11.6 -2.5
v 8.7 11.6 -2.5
v 8.7 11.7 -2.5
v 8.7 11.7 -2.6
v 8.7 11.6 -2.6
v 8.6 11.6 -2.6
v 8.6 11.7 -2.6
v 7.6 11.6 -2.6
v 7.6 11.5 -2.6
v 7.6 11.5 -2.5
v 7.6 11.6 -2.5
v 7.6 11.5 -2.5
v 7.6 11.5 -2.6
v 7.7 11.5 -2.6
v 7.7 11.5 -2.5
v 7.6 11.6 -2.5
v 7.6 11.5 -2.5
v 7.7 11.5 -2.5
v 7.7 11.6 -2.5
v 7.7 11.6 -2.6
v 7.7 11.5 -2.6
v 7.6 11.5 -2.6
v 7.6 11.6 -2.6
v 7.7 11.5 -2.5
v 7.7 11.5 -2.6
v 7.8 11.5 -2.6
v 7.8 11.5 -2.5
v 7.7 11.6 -2.5
v 7.7 11.5 -2.5
v 7.8 11.5 -2.5
v 7.8 11.6 -2.5
v 7.8 11.6 -2.6
v 7.8 11.5 -2.6
v 7.7 11.5 -2.6
v 7.7 11.6 -2.6
v 7.8 11.6 -2.5
v 7.8 11.5 -2.5
v 7.9 11.5 -2.5
v 7.9 11.6 -2.5
v 7.9 11.6 -2.6
v 7.9 11.5 -2.6
v 7.8 11.5 -2.6
v 7.8 11.6 -2.6
v 7.9 11.6 -2.5
v 7.9 11.5 -2.5
v 8 11.5 -2.5
v 8 11.6 -2.5
v 8 11.6 -2.6
v 8 11.5 -2.6
v 7.9 11.5 -2.6
v 7.9 11.6 -2.6
v 8 11.6 -2.5
v 8 11.5 -2.5
v 8.1 11.5 -2.5
v 8.1 11.6 -2.5
v 8.1 11.6 -2.6
v 8.1 11.5 -2.6
v 8 11.5 -2.6
v 8 11.6 -2.6
v 8.1 11.6 -2.5
v 8.1 11.5 -2.5
v 8.2 11.5 -2.5
v 8.2 11.6 -2.5
v 8.2 11.6 -2.6
v 8.2 11.5 -2.6
v 8.1 11.5 -2.6
v 8.1 11.6 -2.6
v 8.2 11.6 -2.5
v 8.2 11.5 -2.5
v 8.3 11.5 -2.5
v 8.3 11.6 -2.5
v 8.3 11.6 -2.6
v 8.3 11.5 -2.6
v 8.2 11.5 -2.6
v 8.2 11.6 -2.6
v 8.3 11.6 -2.5
v 8.3 11.5 -2.5
v 8.4 11.5 -2.5
v 8.4 11.6 -2.5
v 8.4 11.6 -2.6
v 8.4 11.5 -2.6
v 8.3 11.5 -2.6
v 8.3 11.6 -2.6
v 8.4 11.6 -2.5
v 8.4 11.5 -2.5
v 8.5 11.5 -2.5
v 8.5 11.6 -2.5
v 8.5 11.6 -2.6
v 8.5 11.5 -2.6
v 8.4 11.5 -2.6
v 8.4 11.6 -2.6
v 8.5 11.5 -2.5
v 8.5 11.5 -2.6
v 8.6 11.5 -2.6
v 8.6 11.5 -2.5
v 8.5 11.6 -2.5
v 8.5 11.5 -2.5
v 8.6 11.5 -2.5
v 8.6 11.6 -2.5
v 8.6 11.6 -2.6
v 8.6 11.5 -2.6
v 8.5 11.5 -2.6
v 8.5 11.6 -2.6
v 8.7 11.6 -2.5
v 8.7 11.5 -2.5
v 8.7 11.5 -2.6
v 8.7 11.6 -2.6
v 8.6 11.5 -2.5
v 8.6 11.5 -2.6
v 8.7 11.5 -2.6
v 8.7 11.5 -2.5
v 8.6 11.6 -2.5
v 8.6 11.5 -2.5
v 8.7 11.5 -2.5
v 8.7 11.6 -2.5
v 8.7 11.6 -2.6
v 8.7 11.5 -2.6
v 8.6 11.5 -2.6
v 8.6 11.6 -2.6
v 7.8 11.5 -2.6
v 7.8 11.4 -2.6
v 7.8 11.4 -2.5
v 7.8 11.5 -2.5
v 7.8 11.4 -2.5
v 7.8 11.4 -2.6
v 7.9 11.4 -2.6
v 7.9 11.4 -2.5
v 7.8 11.5 -2.5
v 7.8 11.4 -2.5
v 7.9 11.4 -2.5
v 7.9 11.5 -2.5
v 7.9 11.5 -2.6
v 7.9 11.4 -2.6
v 7.8 11.4 -2.6
v 7.8 11.5 -2.6
v 7.9 11.4 -2.5
v 7.9 11.4 -2.6
v 8 11.4 -2.6
v 8 11.4 -2.5
v 7.9 11.5 -2.5
v 7.9 11.4 -2.5
v 8 11.4 -2.5
v 8 11.5 -2.5
v 8 11.5 -2.6
v 8 11.4 -2.6
v 7.9 11.4 -2.6
v 7.9 11.5 -2.6
v 8 11.5 -2.5
v 8 11.4 -2.5
v 8.1 11.4 -2.5
v 8.1 11.5 -2.5
v 8.1 11.5 -2.6
v 8.1 11.4 -2.6
v 8 11.4 -2.6
v 8 11.5 -2.6
v 8.1 11.5 -2.5
v 8.1 11.4 -2.5
v 8.2 11.4 -2.5
v 8.2 11.5 -2.5
v 8.2 11.5 -2.6
v 8.2 11.4 -2.6
v 8.1 11.4 -2.6
v 8.1 11.5 -2.6
v 8.2 11.5 -2.5
v 8.2 11.4 -2.5
v 8.3 11.4 -2.5
v 8.3 11.5 -2.5
v 8.3 11.5 -2.6
v 8.3 11.4 -2.6
v 8.2 11.4 -2.6
v 8.2 11.5 -2.6
v 8.3 11.4 -2.5
v 8.3 11.4 -2.6
v 8.4 11.4 -2.6
v 8.4 11.4 -2.5
v 8.3 11.5 -2.5
v 8.3 11.4 -2.5
v 8.4 11.4 -2.5
v 8.4 11.5 -2.5
v 8.4 11.5 -2.6
v 8.4 11.4 -2.6
v 8.3 11.4 -2.6
v 8.3 11.5 -2.6
v 8.5 11.5 -2.5
v 8.5 11.4 -2.5
v 8.5 11.4 -2.6
v 8.5 11.5 -2.6
v 8.4 11.4 -2.5
v 8.4 11.4 -2.6
v 8.5 11.4 -2.6
v 8.5 11.4 -2.5
v 8.4 11.5 -2.5
v 8.4 11.4 -2.5
v 8.5 11.4 -2.5
v 8.5 11.5 -2.5
v 8.5 11.5 -2.6
v 8.5 11.4 -2.6
v 8.4 11.4 -2.6
v 8.4 11.5 -2.6
v 8 11.4 -2.6
v 8 11.3 -2.6
v 8 11.3 -2.5
v 8 11.4 -2.5
v 8 11.3 -2.5
v 8 11.3 -2.6
v 8.1 11.3 -2.6
v 8.1 11.3 -2.5
v 8 11.4 -2.5
v 8 11.3 -2.5
v 8.1 11.3 -2.5
v 8.1 11.4 -2.5
v 8.1 11.4 -2.6
v 8.1 11.3 -2.6
v 8 11.3 -2.6
v 8 11.4 -2.6
v 8.1 11.3 -2.5
v 8.1 11.3 -2.6
v 8.2 11.3 -2.6
v 8.2 11.3 -2.5
v 8.1 11.4 -2.5
v 8.1 11.3 -2.5
v 8.2 11.3 -2.5
v 8.2 11.4 -2.5
v 8.2 11.4 -2.6
v 8.2 11.3 -2.6
v 8.1 11.3 -2.6
v 8.1 11.4 -2.6
v 8.3 11.4 -2.5
v 8.3 11.3 -2.5
v 8.3 11.3 -2.6
v 8.3 11.4 -2.6
v 8.2 11.3 -2.5
v 8.2 11.3 -2.6
v 8.3 11.3 -2.6
v 8.3 11.3 -2.5
v 8.2 11.4 -2.5
v 8.2 11.3 -2.5
v 8.3 11.3 -2.5
v 8.3 11.4 -2.5
v 8.3 11.4 -2.6
v 8.3 11.3 -2.6
v 8.2 11.3 -2.6
v 8.2 11.4 -2.6

# faces
f 1/1/1 2/1/1 3/1/1 4/1/1
f 5/1/3 6/1/3 7/1/3 8/1/3
f 9/1/5 10/1/5 11/1/5 12/1/5
f 13/1/6 14/1/6 15/1/6 16/1/6
f 17/1/3 18/1/3 19/1/3 20/1/3
f 21/1/5 22/1/5 23/1/5 24/1/5
f 25/1/6 26/1/6 27/1/6 28/1/6
f 29/1/3 30/1/3 31/1/3 32/1/3
f 33/1/5 34/1/5 35/1/5 36/1/5
f 37/1/6 38/1/6 39/1/6 40/1/6
f 41/1/3 42/1/3 43/1/3 44/1/3
f 45/1/5 46/1/5 47/1/5 48/1/5
f 49/1/6 50/1/6 51/1/6 52/1/6
f 53/1/3 54/1/3 55/1/3 56/1/3
f 57/1/5 58/1/5 59/1/5 60/1/5
f 61/1/6 62/1/6 63/1/6 64/1/6
f 65/1/2 66/1/2 67/1/2 68/1/2
f 69/1/3 70/1/3 71/1/3 72/1/3
f 73/1/5 74/1/5 75/1/5 76/1/5
f 77/1/6 78/1/6 79/1/6 80/1/6
f 81/1/1 82/1/1 83/1/1 84/1/1
f 85/1/3 86/1/3 87/1/3 88/1/3
f 89/1/5 90/1/5 91/1/5 92/1/5
f 93/1/6 94/1/6 95/1/6 96/1/6
f 97/1/3 98/1/3 99/1/3 100/1/3
f 101/1/5 102/1/5 103/1/5 104/1/5
f 105/1/6 106/1/6 107/1/6 108/1/6
f 109/1/5 110/1/5 111/1/5 112/1/5
f 113/1/6 114/1/6 115/1/6 116/1/6
f 117/1/5 118/1/5 119/1/5 120/1/5
f 121/1/6 122/1/6 123/1/6 124/1/6
f 125/1/5 126/1/5 127/1/5 128/1/5
f 129/1/6 130/1/6 131/1/6 132/1/6
f 133/1/5 134/1/5 135/1/5 136/1/5
f 137/1/6 138/1/6 139/1/6 140/1/6
f 141/1/5 142/1/5 143/1/5 144/1/5
f 145/1/6 146/1/6 147/1/6 148/1/6
f 149/1/5 150/1/5 151/1/5 152/1/5
f 153/1/6 154/1/6 155/1/6 156/1/6
f 157/1/2 158/1/2 159/1/2 160/1/2
f 161/1/3 162/1/3 163/1/3 164/1/3
f 165/1/5 166/1/5 167/1/5 168/1/5
f 169/1/6 170/1/6 171/1/6 172/1/6
f 173/1/1 174/1/1 175/1/1 176/1/1
f 177/1/5 178/1/5 179/1/5 180/1/5
f 181/1/6 182/1/6 183/1/6 184/1/6
f 185/1/5 186/1/5 187/1/5 188/1/5
f 189/1/6 190/1/6 191/1/6 192/1/6
f 193/1/5 194/1/5 195/1/5 196/1/5
f 197/1/6 198/1/6 199/1/6 200/1/6
f 201/1/5 202/1/5 203/1/5 204/1/5
f 205/1/6 206/1/6 207/1/6 208/1/6
f 209/1/5 210/1/5 211/1/5 212/1/5
f 213/1/6 214/1/6 215/1/6 216/1/6
f 217/1/5 218/1/5 219/1/5 220/1/5
f 221/1/6 222/1/6 223/1/6 224/1/6
f 225/1/5 226/1/5 227/1/5 228/1/5
f 229/1/6 230/1/6 231/1/6 232/1/6
f 233/1/5 234/1/5 235/1/5 236/1/5
f 237/1/6 238/1/6 239/1/6 240/1/6
f 241/1/5 242/1/5 243/1/5 244/1/5
f 245/1/6 246/1/6 247/1/6 248/1/6
f 249/1/2 250/1/2 251/1/2 252/1/2
f 253/1/3 254/1/3 255/1/3 256/1/3
f 257/1/5 258/1/5 259/1/5 260/1/5
f 261/1/6 262/1/6 263/1/6 264/1/6
f 265/1/1 266/1/1 267/1/1 268/1/1
f 269/1/3 270/1/3 271/1/3 272/1/3
f 273/1/5 274/1/5 275/1/5 276/1/5
f 277/1/6 278/1/6 279/1/6 280/1/6
f 281/1/5 282/1/5 283/1/5 284/1/5
f 285/1/6 286/1/6 287/1/6 288/1/6
f 289/1/5 290/1/5 291/1/5 292/1/5
f 293/1/6 294/1/6 295/1/6 296/1/6
f 297/1/5 298/1/5 299/1/5 300/1/5
f 301/1/6 302/1/6 303/1/6 304/1/6
f 305/1/5 306/1/5 307/1/5 308/1/5
f 309/1/6 310/1/6 311/1/6 312/1/6
f 313/1/5 314/1/5 315/1/5 316/1/5
f 317/1/6 318/1/6 319/1/6 320/1/6
f 321/1/5 322/1/5 323/1/5 324/1/5
f 325/1/6 326/1/6 327/1/6 328/1/6
f 329/1/5 330/1/5 331/1/5 332/1/5
f 333/1/6 334/1/6 335/1/6 336/1/6
f 337/1/5 338/1/5 339/1/5 340/1/5
f 341/1/6 342/1/6 343/1/6 344/1/6
f 345/1/5 346/1/5 347/1/5 348/1/5
f 349/1/6 350/1/6 351/1/6 352/1/6
f 353/1/5 354/1/5 355/1/5 356/1/5
f 357/1/6 358/1/6 359/1/6 360/1/6
f 361/1/2 362/1/2 363/1/2 364/1/2
f 365/1/3 366/1/3 367/1/3 368/1/3
f 369/1/5 370/1/5 371/1/5 372/1/5
f 373/1/6 374/1/6 375/1/6 376/1/6
f 377/1/1 378/1/1 379/1/1 380/1/1
f 381/1/5 382/1/5 383/1/5 384/1/5
f 385/1/6 386/1/6 387/1/6 388/1/6
f 389/1/5 390/1/5 391/1/5 392/1/5
f 393/1/6 394/1/6 395/1/6 396/1/6
f 397/1/5 398/1/5 399/1/5 400/1/5
f 401/1/6 402/1/6 403/1/6 404/1/6
f 405/1/5 406/1/5 407/1/5 408/1/5
f 409/1/6 410/1/6 411/1/6 412/1/6
f 413/1/5 414/1/5 415/1/5 416/1/5
f 417/1/6 418/1/6 419/1/6 420/1/6
f 421/1/5 422/1/5 423/1/5 424/1/5
f 425/1/6 426/1/6 427/1/6 428/1/6
f 429/1/5 430/1/5 431/1/5 432/1/5
f 433/1/6 434/1/6 435/1/6 436/1/6
f 437/1/5 438/1/5 439/1/5 440/1/5
f 441/1/6 442/1/6 443/1/6 444/1/6
f 445/1/5 446/1/5 447/1/5 448/1/5
f 449/1/6 450/1/6 451/1/6 452/1/6
f 453/1/5 454/1/5 455/1/5 456/1/5
f 457/1/6 458/1/6 459/1/6 460/1/6
f 461/1/5 462/1/5 463/1/5 464/1/5
f 465/1/6 466/1/6 467/1/6 468/1/6
f 469/1/5 470/1/5 471/1/5 472/1/5
f 473/1/6 474/1/6 475/1/6 476/1/6
f 477/1/2 478/1/2 479/1/2 480/1/2
f 481/1/3 482/1/3 483/1/3 484/1/3
f 485/1/5 486/1/5 487/1/5 488/1/5
f 489/1/6 490/1/6 491/1/6 492/1/6
f 493/1/1 494/1/1 495/1/1 496/1/1
f 497/1/3 498/1/3 499/1/3 500/1/3
f 501/1/5 502/1/5 503/1/5 504/1/5
f 505/1/6 506/1/6 507/1/6 508/1/6
f 509/1/5 510/1/5 511/1/5 512/1/5
f 513/1/6 514/1/6 515/1/6 516/1/6
f 517/1/5 518/1/5 519/1/5 520/1/5
f 521/1/6 522/1/6 523/1/6 524/1/6
f 525/1/5 526/1/5 527/1/5 528/1/5
f 529/1/6 530/1/6 531/1/6 532/1/6
f 533/1/5 534/1/5 535/1/5 536/1/5
f 537/1/6 538/1/6 539/1/6 540/1/6
f 541/1/5 542/1/5 543/1/5 544/1/5
f 545/1/6 546/1/6 547/1/6 548/1/6
f 549/1/5 550/1/5 551/1/5 552/1/5
f 553/1/6 554/1/6 555/1/6 556/1/6
f 557/1/5 558/1/5 559/1/5 560/1/5
f 561/1/6 562/1/6 563/1/6 564/1/6
f 565/1/5 566/1/5 567/1/5 568/1/5
f 569/1/6 570/1/6 571/1/6 572/1/6
f 573/1/5 574/1/5 575/1/5 576/1/5
f 577/1/6 578/1/6 579/1/6 580/1/6
f 581/1/5 582/1/5 583/1/5 584/1/5
f 585/1/6 586/1/6 587/1/6 588/1/6
f 589/1/5 590/1/5 591/1/5 592/1/5
f 593/1/6 594/1/6 595/1/6 596/1/6
f 597/1/5 598/1/5 599/1/5 600/1/5
f 601/1/6 602/1/6 603/1/6 604/1/6
f 605/1/2 606/1/2 607/1/2 608/1/2
f 609/1/5 610/1/5 611/1/5 612/1/5
f 613/1/6 614/1/6 615/1/6 616/1/6
f 617/1/1 618/1/1 619/1/1 620/1/1
f 621/1/5 622/1/5 623/1/5 624/1/5
f 625/1/6 626/1/6 627/1/6 628/1/6
f 629/1/5 630/1/5 631/1/5 632/1/5
f 633/1/6 634/1/6 635/1/6 636/1/6
f 637/1/5 638/1/5 639/1/5 640/1/5
f 641/1/6 642/1/6 643/1/6 644/1/6
f 645/1/5 646/1/5 647/1/5 648/1/5
f 649/1/6 650/1/6 651/1/6 652/1/6
f 653/1/5 654/1/5 655/1/5 656/1/5
f 657/1/6 658/1/6 659/1/6 660/1/6
f 661/1/5 662/1/5 663/1/5 664/1/5
f 665/1/6 666/1/6 667/1/6 668/1/6
f 669/1/5 670/1/5 671/1/5 672/1/5
f 673/1/6 674/1/6 675/1/6 676/1/6
f 677/1/5 678/1/5 679/1/5 680/1/5
f 681/1/6 682/1/6 683/1/6 684/1/6
f 685/1/5 686/1/5 687/1/5 688/1/5
f 689/1/6 690/1/6 691/1/6 692/1/6
f 693/1/5 694/1/5 695/1/5 696/1/5
f 697/1/6 698/1/6 699/1/6 700/1/6
f 701/1/5 702/1/5 703/1/5 704/1/5
f 705/1/6 706/1/6 707/1/6 708/1/6
f 709/1/5 710/1/5 711/1/5 712/1/5
f 713/1/6 714/1/6 715/1/6 716/1/6
f 717/1/5 718/1/5 719/1/5 720/1/5
f 721/1/6 722/1/6 723/1/6 724/1/6
f 725/1/2 726/1/2 727/1/2 728/1/2
f 729/1/5 730/1/5 731/1/5 732/1/5
f 733/1/6 734/1/6 735/1/6 736/1/6
f 737/1/1 738/1/1 739/1/1 740/1/1
f 741/1/5 742/1/5 743/1/5 744/1/5
f 745/1/6 746/1/6 747/1/6 748/1/6
f 749/1/5 750/1/5 751/1/5 752/1/5
f 753/1/6 754/1/6 755/1/6 756/1/6
f 757/1/5 758/1/5 759/1/5 760/1/5
f 761/1/6 762/1/6 763/1/6 764/1/6
f 765/1/5 766/1/5 767/1/5 768/1/5
f 769/1/6 770/1/6 771/1/6 772/1/6
f 773/1/5 774/1/5 775/1/5 776/1/5
f 777/1/6 778/1/6 779/1/6 780/1/6
f 781/1/5 782/1/5 783/1/5 784/1/5
f 785/1/6 786/1/6 787/1/6 788/1/6
f 789/1/5 790/1/5 791/1/5 792/1/5
f 793/1/6 794/1/6 795/1/6 796/1/6
f 797/1/5 798/1/5 799/1/5 800/1/5
f 801/1/6 802/1/6 803/1/6 804/1/6
f 805/1/5 806/1/5 807/1/5 808/1/5
f 809/1/6 810/1/6 811/1/6 812/1/6
f 813/1/5 814/1/5 815/1/5 816/1/5
f 817/1/6 818/1/6 819/1/6 820/1/6
f 821/1/5 822/1/5 823/1/5 824/1/5
f 825/1/6 826/1/6 827/1/6 828/1/6
f 829/1/5 830/1/5 831/1/5 832/1/5
f 833/1/6 834/1/6 835/1/6 836/1/6
f 837/1/5 838/1/5 839/1/5 840/1/5
f 841/1/6 842/1/6 843/1/6 844/1/6
f 845/1/2 846/1/2 847/1/2 848/1/2
f 849/1/5 850/1/5 851/1/5 852/1/5
f 853/1/6 854/1/6 855/1/6 856/1/6
f 857/1/1 858/1/1 859/1/1 860/1/1
f 861/1/5 862/1/5 863/1/5 864/1/5
f 865/1/6 866/1/6 867/1/6 868/1/6
f 869/1/5 870/1/5 871/1/5 872/1/5
f 873/1/6 874/1/6 875/1/6 876/1/6
f 877/1/5 878/1/5 879/1/5 880/1/5
f 881/1/6 882/1/6 883/1/6 884/1/6
f 885/1/5 886/1/5 887/1/5 888/1/5
f 889/1/6 890/1/6 891/1/6 892/1/6
f 893/1/5 894/1/5 895/1/5 896/1/5
f 897/1/6 898/1/6 899/1/6 900/1/6
f 901/1/5 902/1/5 903/1/5 904/1/5
f 905/1/6 906/1/6 907/1/6 908/1/6
f 909/1/5 910/1/5 911/1/5 912/1/5
f 913/1/6 914/1/6 915/1/6 916/1/6
f 917/1/5 918/1/5 919/1/5 920/1/5
f 921/1/6 922/1/6 923/1/6 924/1/6
f 925/1/5 926/1/5 927/1/5 928/1/5
f 929/1/6 930/1/6 931/1/6 932/1/6
f 933/1/5 934/1/5 935/1/5 936/1/5
f 937/1/6 938/1/6 939/1/6 940/1/6
f 941/1/5 942/1/5 943/1/5 944/1/5
f 945/1/6 946/1/6 947/1/6 948/1/6
f 949/1/5 950/1/5 951/1/5 952/1/5
f 953/1/6 954/1/6 955/1/6 956/1/6
f 957/1/5 958/1/5 959/1/5 960/1/5
f 961/1/6 962/1/6 963/1/6 964/1/6
f 965/1/2 966/1/2 967/1/2 968/1/2
f 969/1/5 970/1/5 971/1/5 972/1/5
f 973/1/6 974/1/6 975/1/6 976/1/6
f 977/1/1 978/1/1 979/1/1 980/1/1
f 981/1/4 982/1/4 983/1/4 984/1/4
f 985/1/5 986/1/5 987/1/5 988/1/5
f 989/1/6 990/1/6 991/1/6 992/1/6
f 993/1/5 994/1/5 995/1/5 996/1/5
f 997/1/6 998/1/6 999/1/6 1000/1/6
f 1001/1/5 1002/1/5 1003/1/5 1004/1/5
f 1005/1/6 1006/1/6 1007/1/6 1008/1/6
f 1009/1/5 1010/1/5 1011/1/5 1012/1/5
f 1013/1/6 1014/1/6 1015/1/6 1016/1/6
f 1017/1/5 1018/1/5 1019/1/5 1020/1/5
f 1021/1/6 1022/1/6 1023/1/6 1024/1/6
f 1025/1/5 1026/1/5 1027/1/5 1028/1/5
f 1029/1/6 1030/1/6 1031/1/6 1032/1/6
f 1033/1/5 1034/1/5 1035/1/5 1036/1/5
f 1037/1/6 1038/1/6 1039/1/6 1040/1/6
f 1041/1/5 1042/1/5 1043/1/5 1044/1/5
f 1045/1/6 1046/1/6 1047/1/6 1048/1/6
f 1049/1/5 1050/1/5 1051/1/5 1052/1/5
f 1053/1/6 1054/1/6 1055/1/6 1056/1/6
f 1057/1/5 1058/1/5 1059/1/5 1060/1/5
f 1061/1/6 1062/1/6 1063/1/6 1064/1/6
f 1065/1/5 1066/1/5 1067/1/5 1068/1/5
f 1069/1/6 1070/1/6 1071/1/6 1072/1/6
f 1073/1/5 1074/1/5 1075/1/5 1076/1/5
f 1077/1/6 1078/1/6 1079/1/6 1080/1/6
f 1081/1/5 1082/1/5 1083/1/5 1084/1/5
f 1085/1/6 1086/1/6 1087/1/6 1088/1/6
f 1089/1/2 1090/1/2 1091/1/2 1092/1/2
f 1093/1/5 1094/1/5 1095/1/5 1096/1/5
f 1097/1/6 1098/1/6 1099/1/6 1100/1/6
f 1101/1/1 1102/1/1 1103/1/1 1104/1/1
f 1105/1/5 1106/1/5 1107/1/5 1108/1/5
f 1109/1/6 1110/1/6 1111/1/6 1112/1/6
f 1113/1/5 1114/1/5 1115/1/5 1116/1/5
f 1117/1/6 1118/1/6 1119/1/6 1120/1/6
f 1121/1/5 1122/1/5 1123/1/5 1124/1/5
f 1125/1/6 1126/1/6 1127/1/6 1128/1/6
f 1129/1/5 1130/1/5 1131/1/5 1132/1/5
f 1133/1/6 1134/1/6 1135/1/6 1136/1/6
f 1137/1/5 1138/1/5 1139/1/5 1140/1/5
f 1141/1/6 1142/1/6 1143/1/6 1144/1/6
f 1145/1/5 1146/1/5 1147/1/5 1148/1/5
f 1149/1/6 1150/1/6 1151/1/6 1152/1/6
f 1153/1/5 1154/1/5 1155/1/5 1156/1/5
f 1157/1/6 1158/1/6 1159/1/6 1160/1/6
f 1161/1/5 1162/1/5 1163/1/5 1164/1/5
f 1165/1/6 1166/1/6 1167/1/6 1168/1/6
f 1169/1/5 1170/1/5 1171/1/5 1172/1/5
f 1173/1/6 1174/1/6 1175/1/6 1176/1/6
f 1177/1/5 1178/1/5 1179/1/5 1180/1/5
f 1181/1/6 1182/1/6 1183/1/6 1184/1/6
f 1185/1/5 1186/1/5 1187/1/5 1188/1/5
f 1189/1/6 1190/1/6 1191/1/6 1192/1/6
f 1193/1/5 1194/1/5 1195/1/5 1196/1/5
f 1197/1/6 1198/1/6 1199/1/6 1200/1/6
f 1201/1/2 1202/1/2 1203/1/2 1204/1/2
f 1205/1/5 1206/1/5 1207/1/5 1208/1/5
f 1209/1/6 1210/1/6 1211/1/6 1212/1/6
f 1213/1/1 1214/1/1 1215/1/1 1216/1/1
f 1217/1/4 1218/1/4 1219/1/4 1220/1/4
f 1221/1/5 1222/1/5 1223/1/5 1224/1/5
f 1225/1/6 1226/1/6 1227/1/6 1228/1/6
f 1229/1/5 1230/1/5 1231/1/5 1232/1/5
f 1233/1/6 1234/1/6 1235/1/6 1236/1/6
f 1237/1/5 1238/1/5 1239/1/5 1240/1/5
f 1241/1/6 1242/1/6 1243/1/6 1244/1/6
f 1245/1/5 1246/1/5 1247/1/5 1248/1/5
f 1249/1/6 1250/1/6 1251/1/6 1252/1/6
f 1253/1/5 1254/1/5 1255/1/5 1256/1/5
f 1257/1/6 1258/1/6 1259/1/6 1260/1/6
f 1261/1/5 1262/1/5 1263/1/5 1264/1/5
f 1265/1/6 1266/1/6 1267/1/6 1268/1/6
f 1269/1/5 1270/1/5 1271/1/5 1272/1/5
f 1273/1/6 1274/1/6 1275/1/6 1276/1/6
f 1277/1/5 1278/1/5 1279/1/5 1280/1/5
f 1281/1/6 1282/1/6 1283/1/6 1284/1/6
f 1285/1/5 1286/1/5 1287/1/5 1288/1/5
f 1289/1/6 1290/1/6 1291/1/6 1292/1/6
f 1293/1/5 1294/1/5 1295/1/5 1296/1/5
f 1297/1/6 1298/1/6 1299/1/6 1300/1/6
f 1301/1/5 1302/1/5 1303/1/5 1304/1/5
f 1305/1/6 1306/1/6 1307/1/6 1308/1/6
f 1309/1/5 1310/1/5 1311/1/5 1312/1/5
f 1313/1/6 1314/1/6 1315/1/6 1316/1/6
f 1317/1/2 1318/1/2 1319/1/2 1320/1/2
f 1321/1/4 1322/1/4 1323/1/4 1324/1/4
f 1325/1/5 1326/1/5 1327/1/5 1328/1/5
f 1329/1/6 1330/1/6 1331/1/6 1332/1/6
f 1333/1/1 1334/1/1 1335/1/1 1336/1/1
f 1337/1/5 1338/1/5 1339/1/5 1340/1/5
f 1341/1/6 1342/1/6 1343/1/6 1344/1/6
f 1345/1/5 1346/1/5 1347/1/5 1348/1/5
f 1349/1/6 1350/1/6 1351/1/6 1352/1/6
f 1353/1/5 1354/1/5 1355/1/5 1356/1/5
f 1357/1/6 1358/1/6 1359/1/6 1360/1/6
f 1361/1/5 1362/1/5 1363/1/5 1364/1/5
f 1365/1/6 1366/1/6 1367/1/6 1368/1/6
f 1369/1/5 1370/1/5 1371/1/5 1372/1/5
f 1373/1/6 1374/1/6 1375/1/6 1376/1/6
f 1377/1/5 1378/1/5 1379/1/5 1380/1/5
f 1381/1/6 1382/1/6 1383/1/6 1384/1/6
f 1385/1/5 1386/1/5 1387/1/5 1388/1/5
f 1389/1/6 1390/1/6 1391/1/6 1392/1/6
f 1393/1/5 1394/1/5 1395/1/5 1396/1/5
f 1397/1/6 1398/1/6 1399/1/6 1400/1/6
f 1401/1/5 1402/1/5 1403/1/5 1404/1/5
f 1405/1/6 1406/1/6 1407/1/6 1408/1/6
f 1409/1/5 1410/1/5 1411/1/5 1412/1/5
f 1413/1/6 1414/1/6 1415/1/6 1416/1/6
f 1417/1/2 1418/1/2 1419/1/2 1420/1/2
f 1421/1/5 1422/1/5 1423/1/5 1424/1/5
f 1425/1/6 1426/1/6 1427/1/6 1428/1/6
f 1429/1/1 1430/1/1 1431/1/1 1432/1/1
f 1433/1/4 1434/1/4 1435/1/4 1436/1/4
f 1437/1/5 1438/1/5 1439/1/5 1440/1/5
f 1441/1/6 1442/1/6 1443/1/6 1444/1/6
f 1445/1/4 1446/1/4 1447/1/4 1448/1/4
f 1449/1/5 1450/1/5 1451/1/5 1452/1/5
f 1453/1/6 1454/1/6 1455/1/6 1456/1/6
f 1457/1/5 1458/1/5 1459/1/5 1460/1/5
f 1461/1/6 1462/1/6 1463/1/6 1464/1/6
f 1465/1/5 1466/1/5 1467/1/5 1468/1/5
f 1469/1/6 1470/1/6 1471/1/6 1472/1/6
f 1473/1/5 1474/1/5 1475/1/5 1476/1/5
f 1477/1/6 1478/1/6 1479/1/6 1480/1/6
f 1481/1/5 1482/1/5 1483/1/5 1484/1/5
f 1485/1/6 1486/1/6 1487/1/6 1488/1/6
f 1489/1/5 1490/1/5 1491/1/5 1492/1/5
f 1493/1/6 1494/1/6 1495/1/6 1496/1/6
f 1497/1/5 1498/1/5 1499/1/5 1500/1/5
f 1501/1/6 1502/1/6 1503/1/6 1504/1/6
f 1505/1/5 1506/1/5 1507/1/5 1508/1/5
f 1509/1/6 1510/1/6 1511/1/6 1512/1/6
f 1513/1/4 1514/1/4 1515/1/4 1516/1/4
f 1517/1/5 1518/1/5 1519/1/5 1520/1/5
f 1521/1/6 1522/1/6 1523/1/6 1524/1/6
f 1525/1/2 1526/1/2 1527/1/2 1528/1/2
f 1529/1/4 1530/1/4 1531/1/4 1532/1/4
f 1533/1/5 1534/1/5 1535/1/5 1536/1/5
f 1537/1/6 1538/1/6 1539/1/6 1540/1/6
f 1541/1/1 1542/1/1 1543/1/1 1544/1/1
f 1545/1/4 1546/1/4 1547/1/4 1548/1/4
f 1549/1/5 1550/1/5 1551/1/5 1552/1/5
f 1553/1/6 1554/1/6 1555/1/6 1556/1/6
f 1557/1/4 1558/1/4 1559/1/4 1560/1/4
f 1561/1/5 1562/1/5 1563/1/5 1564/1/5
f 1565/1/6 1566/1/6 1567/1/6 1568/1/6
f 1569/1/5 1570/1/5 1571/1/5 1572/1/5
f 1573/1/6 1574/1/6 1575/1/6 1576/1/6
f 1577/1/5 1578/1/5 1579/1/5 1580/1/5
f 1581/1/6 1582/1/6 1583/1/6 1584/1/6
f 1585/1/5 1586/1/5 1587/1/5 1588/1/5
f 1589/1/6 1590/1/6 1591/1/6 1592/1/6
f 1593/1/4 1594/1/4 1595/1/4 1596/1/4
f 1597/1/5 1598/1/5 1599/1/5 1600/1/5
f 1601/1/6 1602/1/6 1603/1/6 1604/1/6
f 1605/1/2 1606/1/2 1607/1/2 1608/1/2
f 1609/1/4 1610/1/4 1611/1/4 1612/1/4
f 1613/1/5 1614/1/5 1615/1/5 1616/1/5
f 1617/1/6 1618/1/6 1619/1/6 1620/1/6
f 1621/1/1 1622/1/1 1623/1/1 1624/1/1
f 1625/1/4 1626/1/4 1627/1/4 1628/1/4
f 1629/1/5 1630/1/5 1631/1/5 1632/1/5
f 1633/1/6 1634/1/6 1635/1/6 1636/1/6
f 1637/1/4 1638/1/4 1639/1/4 1640/1/4
f 1641/1/5 1642/1/5 1643/1/5 1644/1/5
f 1645/1/6 1646/1/6 1647/1/6 1648/1/6
f 1649/1/2 1650/1/2 1651/1/2 1652/1/2
f 1653/1/4 1654/1/4 1655/1/4 1656/1/4
f 1657/1/5 1658/1/5 1659/1/5 1660/1/5
f 1661/1/6 1662/1/6 1663/1/6 1664/1/6

