# generated by vox_to_obj_exporter
# scale=0.1 center=false ground=false y_up=true

mtllib Fight_101.mtl
usemtl palette

# normals
vn -1 0 0
vn 1 0 0
vn 0 1 0
vn 0 -1 0
vn 0 0 1
vn 0 0 -1

# texcoords
vt 0.064453125 0.5
vt 0.162109375 0.5
vt 0.166015625 0.5
vt 0.263671875 0.5
vt 0.283203125 0.5
vt 0.287109375 0.5
vt 0.251953125 0.5
vt 0.181640625 0.5
vt 0.173828125 0.5
vt 0.158203125 0.5
vt 0.177734375 0.5
vt 0.244140625 0.5

# verts
v 30.1 14.2 -2.6
v 30.1 14.1 -2.6
v 30.1 14.1 -2.5
v 30.1 14.2 -2.5
v 30.1 14.2 -2.6
v 30.1 14.2 -2.5
v 30.2 14.2 -2.5
v 30.2 14.2 -2.6
v 30.1 14.1 -2.5
v 30.1 14.1 -2.6
v 30.2 14.1 -2.6
v 30.2 14.1 -2.5
v 30.1 14.2 -2.5
v 30.1 14.1 -2.5
v 30.2 14.1 -2.5
v 30.2 14.2 -2.5
v 30.2 14.2 -2.6
v 30.2 14.1 -2.6
v 30.1 14.1 -2.6
v 30.1 14.2 -2.6
v 30.2 14.2 -2.6
v 30.2 14.2 -2.5
v 30.3 14.2 -2.5
v 30.3 14.2 -2.6
v 30.2 14.1 -2.5
v 30.2 14.1 -2.6
v 30.3 14.1 -2.6
v 30.3 14.1 -2.5
v 30.2 14.2 -2.5
v 30.2 14.1 -2.5
v 30.3 14.1 -2.5
v 30.3 14.2 -2.5
v 30.3 14.2 -2.6
v 30.3 14.1 -2.6
v 30.2 14.1 -2.6
v 30.2 14.2 -2.6
v 30.3 14.2 -2.6
v 30.3 14.2 -2.5
v 30.4 14.2 -2.5
v 30.4 14.2 -2.6
v 30.3 14.2 -2.5
v 30.3 14.1 -2.5
v 30.4 14.1 -2.5
v 30.4 14.2 -2.5
v 30.4 14.2 -2.6
v 30.4 14.1 -2.6
v 30.3 14.1 -2.6
v 30.3 14.2 -2.6
v 30.4 14.2 -2.6
v 30.4 14.2 -2.5
v 30.5 14.2 -2.5
v 30.5 14.2 -2.6
v 30.4 14.2 -2.5
v 30.4 14.1 -2.5
v 30.5 14.1 -2.5
v 30.5 14.2 -2.5
v 30.5 14.2 -2.6
v 30.5 14.1 -2.6
v 30.4 14.1 -2.6
v 30.4 14.2 -2.6
v 30.6 14.2 -2.5
v 30.6 14.1 -2.5
v 30.6 14.1 -2.6
v 30.6 14.2 -2.6
v 30.5 14.2 -2.6
v 30.5 14.2 -2.5
v 30.6 14.2 -2.5
v 30.6 14.2 -2.6
v 30.5 14.2 -2.5
v 30.5 14.1 -2.5
v 30.6 14.1 -2.5
v 30.6 14.2 -2.5
v 30.6 14.2 -2.6
v 30.6 14.1 -2.6
v 30.5 14.1 -2.6
v 30.5 14.2 -2.6
v 30.3 14.1 -2.6
v 30.3 14 -2.6
v 30.3 14 -2.5
v 30.3 14.1 -2.5
v 30.3 14 -2.5
v 30.3 14 -2.6
v 30.4 14 -2.6
v 30.4 14 -2.5
v 30.3 14.1 -2.5
v 30.3 14 -2.5
v 30.4 14 -2.5
v 30.4 14.1 -2.5
v 30.4 14.1 -2.6
v 30.4 14 -2.6
v 30.3 14 -2.6
v 30.3 14.1 -2.6
v 30.4 14 -2.5
v 30.4 14 -2.6
v 30.5 14 -2.6
v 30.5 14 -2.5
v 30.4 14.1 -2.5
v 30.4 14 -2.5
v 30.5 14 -2.5
v 30.5 14.1 -2.5
v 30.5 14.1 -2.6
v 30.5 14 -2.6
v 30.4 14 -2.6
v 30.4 14.1 -2.6
v 30.5 14 -2.5
v 30.5 14 -2.6
v 30.6 14 -2.6
v 30.6 14 -2.5
v 30.5 14.1 -2.5
v 30.5 14 -2.5
v 30.6 14 -2.5
v 30.6 14.1 -2.5
v 30.6 14.1 -2.6
v 30.6 14 -2.6
v 30.5 14 -2.6
v 30.5 14.1 -2.6
v 30.6 14.1 -2.6
v 30.6 14.1 -2.5
v 30.7 14.1 -2.5
v 30.7 14.1 -2.6
v 30.6 14.1 -2.5
v 30.6 14 -2.5
v 30.7 14 -2.5
v 30.7 14.1 -2.5
v 30.7 14.1 -2.6
v 30.7 14 -2.6
v 30.6 14 -2.6
v 30.6 14.1 -2.6
v 30.7 14.1 -2.6
v 30.7 14.1 -2.5
v 30.8 14.1 -2.5
v 30.8 14.1 -2.6
v 30.7 14.1 -2.5
v 30.7 14 -2.5
v 30.8 14 -2.5
v 30.8 14.1 -2.5
v 30.8 14.1 -2.6
v 30.8 14 -2.6
v 30.7 14 -2.6
v 30.7 14.1 -2.6
v 30.8 14.1 -2.6
v 30.8 14.1 -2.5
v 30.9 14.1 -2.5
v 30.9 14.1 -2.6
v 30.8 14.1 -2.5
v 30.8 14 -2.5
v 30.9 14 -2.5
v 30.9 14.1 -2.5
v 30.9 14.1 -2.6
v 30.9 14 -2.6
v 30.8 14 -2.6
v 30.8 14.1 -2.6
v 30.9 14.1 -2.6
v 30.9 14.1 -2.5
v 31 14.1 -2.5
v 31 14.1 -2.6
v 30.9 14.1 -2.5
v 30.9 14 -2.5
v 31 14 -2.5
v 31 14.1 -2.5
v 31 14.1 -2.6
v 31 14 -2.6
v 30.9 14 -2.6
v 30.9 14.1 -2.6
v 31.1 14.1 -2.5
v 31.1 14 -2.5
v 31.1 14 -2.6
v 31.1 14.1 -2.6
v 31 14.1 -2.6
v 31 14.1 -2.5
v 31.1 14.1 -2.5
v 31.1 14.1 -2.6
v 31 14.1 -2.5
v 31 14 -2.5
v 31.1 14 -2.5
v 31.1 14.1 -2.5
v 31.1 14.1 -2.6
v 31.1 14 -2.6
v 31 14 -2.6
v 31 14.1 -2.6
v 30.6 14 -2.6
v 30.6 13.9 -2.6
v 30.6 13.9 -2.5
v 30.6 14 -2.5
v 30.6 13.9 -2.5
v 30.6 13.9 -2.6
v 30.7 13.9 -2.6
v 30.7 13.9 -2.5
v 30.6 14 -2.5
v 30.6 13.9 -2.5
v 30.7 13.9 -2.5
v 30.7 14 -2.5
v 30.7 14 -2.6
v 30.7 13.9 -2.6
v 30.6 13.9 -2.6
v 30.6 14 -2.6
v 30.7 13.9 -2.5
v 30.7 13.9 -2.6
v 30.8 13.9 -2.6
v 30.8 13.9 -2.5
v 30.7 14 -2.5
v 30.7 13.9 -2.5
v 30.8 13.9 -2.5
v 30.8 14 -2.5
v 30.8 14 -2.6
v 30.8 13.9 -2.6
v 30.7 13.9 -2.6
v 30.7 14 -2.6
v 30.8 14 -2.5
v 30.8 13.9 -2.5
v 30.9 13.9 -2.5
v 30.9 14 -2.5
v 30.9 14 -2.6
v 30.9 13.9 -2.6
v 30.8 13.9 -2.6
v 30.8 14 -2.6
v 30.9 14 -2.5
v 30.9 13.9 -2.5
v 31 13.9 -2.5
v 31 14 -2.5
v 31 14 -2.6
v 31 13.9 -2.6
v 30.9 13.9 -2.6
v 30.9 14 -2.6
v 31 14 -2.5
v 31 13.9 -2.5
v 31.1 13.9 -2.5
v 31.1 14 -2.5
v 31.1 14 -2.6
v 31.1 13.9 -2.6
v 31 13.9 -2.6
v 31 14 -2.6
v 31.1 14 -2.6
v 31.1 14 -2.5
v 31.2 14 -2.5
v 31.2 14 -2.6
v 31.1 14 -2.5
v 31.1 13.9 -2.5
v 31.2 13.9 -2.5
v 31.2 14 -2.5
v 31.2 14 -2.6
v 31.2 13.9 -2.6
v 31.1 13.9 -2.6
v 31.1 14 -2.6
v 31.2 14 -2.6
v 31.2 14 -2.5
v 31.3 14 -2.5
v 31.3 14 -2.6
v 31.2 13.9 -2.5
v 31.2 13.9 -2.6
v 31.3 13.9 -2.6
v 31.3 13.9 -2.5
v 31.2 14 -2.5
v 31.2 13.9 -2.5
v 31.3 13.9 -2.5
v 31.3 14 -2.5
v 31.3 14 -2.6
v 31.3 13.9 -2.6
v 31.2 13.9 -2.6
v 31.2 14 -2.6
v 31.3 14 -2.6
v 31.3 14 -2.5
v 31.4 14 -2.5
v 31.4 14 -2.6
v 31.3 13.9 -2.5
v 31.3 13.9 -2.6
v 31.4 13.9 -2.6
v 31.4 13.9 -2.5
v 31.3 14 -2.5
v 31.3 13.9 -2.5
v 31.4 13.9 -2.5
v 31.4 14 -2.5
v 31.4 14 -2.6
v 31.4 13.9 -2.6
v 31.3 13.9 -2.6
v 31.3 14 -2.6
v 31.4 14 -2.6
v 31.4 14 -2.5
v 31.5 14 -2.5
v 31.5 14 -2.6
v 31.4 13.9 -2.5
v 31.4 13.9 -2.6
v 31.5 13.9 -2.6
v 31.5 13.9 -2.5
v 31.4 14 -2.5
v 31.4 13.9 -2.5
v 31.5 13.9 -2.5
v 31.5 14 -2.5
v 31.5 14 -2.6
v 31.5 13.9 -2.6
v 31.4 13.9 -2.6
v 31.4 14 -2.6
v 31.5 14 -2.6
v 31.5 14 -2.5
v 31.6 14 -2.5
v 31.6 14 -2.6
v 31.5 14 -2.5
v 31.5 13.9 -2.5
v 31.6 13.9 -2.5
v 31.6 14 -2.5
v 31.6 14 -2.6
v 31.6 13.9 -2.6
v 31.5 13.9 -2.6
v 31.5 14 -2.6
v 31.7 14 -2.5
v 31.7 13.9 -2.5
v 31.7 13.9 -2.6
v 31.7 14 -2.6
v 31.6 14 -2.6
v 31.6 14 -2.5
v 31.7 14 -2.5
v 31.7 14 -2.6
v 31.6 14 -2.5
v 31.6 13.9 -2.5
v 31.7 13.9 -2.5
v 31.7 14 -2.5
v 31.7 14 -2.6
v 31.7 13.9 -2.6
v 31.6 13.9 -2.6
v 31.6 14 -2.6
v 30.8 13.9 -2.6
v 30.8 13.8 -2.6
v 30.8 13.8 -2.5
v 30.8 13.9 -2.5
v 30.8 13.8 -2.5
v 30.8 13.8 -2.6
v 30.9 13.8 -2.6
v 30.9 13.8 -2.5
v 30.8 13.9 -2.5
v 30.8 13.8 -2.5
v 30.9 13.8 -2.5
v 30.9 13.9 -2.5
v 30.9 13.9 -2.6
v 30.9 13.8 -2.6
v 30.8 13.8 -2.6
v 30.8 13.9 -2.6
v 30.9 13.9 -2.5
v 30.9 13.8 -2.5
v 31 13.8 -2.5
v 31 13.9 -2.5
v 31 13.9 -2.6
v 31 13.8 -2.6
v 30.9 13.8 -2.6
v 30.9 13.9 -2.6
v 31 13.9 -2.5
v 31 13.8 -2.5
v 31.1 13.8 -2.5
v 31.1 13.9 -2.5
v 31.1 13.9 -2.6
v 31.1 13.8 -2.6
v 31 13.8 -2.6
v 31 13.9 -2.6
v 31.2 13.9 -2.5
v 31.2 13.8 -2.5
v 31.2 13.8 -2.6
v 31.2 13.9 -2.6
v 31.1 13.8 -2.5
v 31.1 13.8 -2.6
v 31.2 13.8 -2.6
v 31.2 13.8 -2.5
v 31.1 13.9 -2.5
v 31.1 13.8 -2.5
v 31.2 13.8 -2.5
v 31.2 13.9 -2.5
v 31.2 13.9 -2.6
v 31.2 13.8 -2.6
v 31.1 13.8 -2.6
v 31.1 13.9 -2.6
v 31.5 13.9 -2.6
v 31.5 13.8 -2.6
v 31.5 13.8 -2.5
v 31.5 13.9 -2.5
v 31.5 13.9 -2.5
v 31.5 13.8 -2.5
v 31.6 13.8 -2.5
v 31.6 13.9 -2.5
v 31.6 13.9 -2.6
v 31.6 13.8 -2.6
v 31.5 13.8 -2.6
v 31.5 13.9 -2.6
v 31.6 13.9 -2.5
v 31.6 13.8 -2.5
v 31.7 13.8 -2.5
v 31.7 13.9 -2.5
v 31.7 13.9 -2.6
v 31.7 13.8 -2.6
v 31.6 13.8 -2.6
v 31.6 13.9 -2.6
v 31.7 13.9 -2.6
v 31.7 13.9 -2.5
v 31.8 13.9 -2.5
v 31.8 13.9 -2.6
v 31.7 13.8 -2.5
v 31.7 13.8 -2.6
v 31.8 13.8 -2.6
v 31.8 13.8 -2.5
v 31.7 13.9 -2.5
v 31.7 13.8 -2.5
v 31.8 13.8 -2.5
v 31.8 13.9 -2.5
v 31.8 13.9 -2.6
v 31.8 13.8 -2.6
v 31.7 13.8 -2.6
v 31.7 13.9 -2.6
v 31.8 13.9 -2.6
v 31.8 13.9 -2.5
v 31.9 13.9 -2.5
v 31.9 13.9 -2.6
v 31.8 13.8 -2.5
v 31.8 13.8 -2.6
v 31.9 13.8 -2.6
v 31.9 13.8 -2.5
v 31.8 13.9 -2.5
v 31.8 13.8 -2.5
v 31.9 13.8 -2.5
v 31.9 13.9 -2.5
v 31.9 13.9 -2.6
v 31.9 13.8 -2.6
v 31.8 13.8 -2.6
v 31.8 13.9 -2.6
v 32 13.9 -2.5
v 32 13.8 -2.5
v 32 13.8 -2.6
v 32 13.9 -2.6
v 31.9 13.9 -2.6
v 31.9 13.9 -2.5
v 32 13.9 -2.5
v 32 13.9 -2.6
v 31.9 13.8 -2.5
v 31.9 13.8 -2.6
v 32 13.8 -2.6
v 32 13.8 -2.5
v 31.9 13.9 -2.5
v 31.9 13.8 -2.5
v 32 13.8 -2.5
v 32 13.9 -2.5
v 32 13.9 -2.6
v 32 13.8 -2.6
v 31.9 13.8 -2.6
v 31.9 13.9 -2.6
v 30.9 13.8 -2.6
v 30.9 13.7 -2.6
v 30.9 13.7 -2.5
v 30.9 13.8 -2.5
v 30.9 13.7 -2.5
v 30.9 13.7 -2.6
v 31 13.7 -2.6
v 31 13.7 -2.5
v 30.9 13.8 -2.5
v 30.9 13.7 -2.5
v 31 13.7 -2.5
v 31 13.8 -2.5
v 31 13.8 -2.6
v 31 13.7 -2.6
v 30.9 13.7 -2.6
v 30.9 13.8 -2.6
v 31.1 13.8 -2.5
v 31.1 13.7 -2.5
v 31.1 13.7 -2.6
v 31.1 13.8 -2.6
v 31 13.7 -2.5
v 31 13.7 -2.6
v 31.1 13.7 -2.6
v 31.1 13.7 -2.5
v 31 13.8 -2.5
v 31 13.7 -2.5
v 31.1 13.7 -2.5
v 31.1 13.8 -2.5
v 31.1 13.8 -2.6
v 31.1 13.7 -2.6
v 31 13.7 -2.6
v 31 13.8 -2.6
v 31.2 13.8 -2.6
v 31.2 13.7 -2.6
v 31.2 13.7 -2.5
v 31.2 13.8 -2.5
v 31.2 13.8 -2.6
v 31.2 13.8 -2.5
v 31.3 13.8 -2.5
v 31.3 13.8 -2.6
v 31.2 13.7 -2.5
v 31.2 13.7 -2.6
v 31.3 13.7 -2.6
v 31.3 13.7 -2.5
v 31.2 13.8 -2.5
v 31.2 13.7 -2.5
v 31.3 13.7 -2.5
v 31.3 13.8 -2.5
v 31.3 13.8 -2.6
v 31.3 13.7 -2.6
v 31.2 13.7 -2.6
v 31.2 13.8 -2.6
v 31.3 13.8 -2.6
v 31.3 13.8 -2.5
v 31.4 13.8 -2.5
v 31.4 13.8 -2.6
v 31.3 13.8 -2.5
v 31.3 13.7 -2.5
v 31.4 13.7 -2.5
v 31.4 13.8 -2.5
v 31.4 13.8 -2.6
v 31.4 13.7 -2.6
v 31.3 13.7 -2.6
v 31.3 13.8 -2.6
v 31.4 13.8 -2.6
v 31.4 13.8 -2.5
v 31.5 13.8 -2.5
v 31.5 13.8 -2.6
v 31.4 13.8 -2.5
v 31.4 13.7 -2.5
v 31.5 13.7 -2.5
v 31.5 13.8 -2.5
v 31.5 13.8 -2.6
v 31.5 13.7 -2.6
v 31.4 13.7 -2.6
v 31.4 13.8 -2.6
v 31.5 13.8 -2.5
v 31.5 13.7 -2.5
v 31.6 13.7 -2.5
v 31.6 13.8 -2.5
v 31.6 13.8 -2.6
v 31.6 13.7 -2.6
v 31.5 13.7 -2.6
v 31.5 13.8 -2.6
v 31.7 13.8 -2.5
v 31.7 13.7 -2.5
v 31.7 13.7 -2.6
v 31.7 13.8 -2.6
v 31.6 13.8 -2.5
v 31.6 13.7 -2.5
v 31.7 13.7 -2.5
v 31.7 13.8 -2.5
v 31.7 13.8 -2.6
v 31.7 13.7 -2.6
v 31.6 13.7 -2.6
v 31.6 13.8 -2.6
v 31.1 13.7 -2.6
v 31.1 13.6 -2.6
v 31.1 13.6 -2.5
v 31.1 13.7 -2.5
v 31.2 13.7 -2.5
v 31.2 13.6 -2.5
v 31.2 13.6 -2.6
v 31.2 13.7 -2.6
v 31.1 13.7 -2.6
v 31.1 13.7 -2.5
v 31.2 13.7 -2.5
v 31.2 13.7 -2.6
v 31.1 13.6 -2.5
v 31.1 13.6 -2.6
v 31.2 13.6 -2.6
v 31.2 13.6 -2.5
v 31.1 13.7 -2.5
v 31.1 13.6 -2.5
v 31.2 13.6 -2.5
v 31.2 13.7 -2.5
v 31.2 13.7 -2.6
v 31.2 13.6 -2.6
v 31.1 13.6 -2.6
v 31.1 13.7 -2.6
v 31.3 13.7 -2.6
v 31.3 13.6 -2.6
v 31.3 13.6 -2.5
v 31.3 13.7 -2.5
v 31.3 13.6 -2.5
v 31.3 13.6 -2.6
v 31.4 13.6 -2.6
v 31.4 13.6 -2.5
v 31.3 13.7 -2.5
v 31.3 13.6 -2.5
v 31.4 13.6 -2.5
v 31.4 13.7 -2.5
v 31.4 13.7 -2.6
v 31.4 13.6 -2.6
v 31.3 13.6 -2.6
v 31.3 13.7 -2.6
v 31.4 13.7 -2.5
v 31.4 13.6 -2.5
v 31.5 13.6 -2.5
v 31.5 13.7 -2.5
v 31.5 13.7 -2.6
v 31.5 13.6 -2.6
v 31.4 13.6 -2.6
v 31.4 13.7 -2.6
v 31.5 13.7 -2.5
v 31.5 13.6 -2.5
v 31.6 13.6 -2.5
v 31.6 13.7 -2.5
v 31.6 13.7 -2.6
v 31.6 13.6 -2.6
v 31.5 13.6 -2.6
v 31.5 13.7 -2.6
v 31.6 13.7 -2.5
v 31.6 13.6 -2.5
v 31.7 13.6 -2.5
v 31.7 13.7 -2.5
v 31.7 13.7 -2.6
v 31.7 13.6 -2.6
v 31.6 13.6 -2.6
v 31.6 13.7 -2.6
v 31.7 13.7 -2.6
v 31.7 13.7 -2.5
v 31.8 13.7 -2.5
v 31.8 13.7 -2.6
v 31.7 13.7 -2.5
v 31.7 13.6 -2.5
v 31.8 13.6 -2.5
v 31.8 13.7 -2.5
v 31.8 13.7 -2.6
v 31.8 13.6 -2.6
v 31.7 13.6 -2.6
v 31.7 13.7 -2.6
v 31.8 13.7 -2.6
v 31.8 13.7 -2.5
v 31.9 13.7 -2.5
v 31.9 13.7 -2.6
v 31.8 13.7 -2.5
v 31.8 13.6 -2.5
v 31.9 13.6 -2.5
v 31.9 13.7 -2.5
v 31.9 13.7 -2.6
v 31.9 13.6 -2.6
v 31.8 13.6 -2.6
v 31.8 13.7 -2.6
v 32 13.7 -2.5
v 32 13.6 -2.5
v 32 13.6 -2.6
v 32 13.7 -2.6
v 31.9 13.7 -2.6
v 31.9 13.7 -2.5
v 32 13.7 -2.5
v 32 13.7 -2.6
v 31.9 13.7 -2.5
v 31.9 13.6 -2.5
v 32 13.6 -2.5
v 32 13.7 -2.5
v 32 13.7 -2.6
v 32 13.6 -2.6
v 31.9 13.6 -2.6
v 31.9 13.7 -2.6
v 31.2 13.6 -2.6
v 31.2 13.5 -2.6
v 31.2 13.5 -2.5
v 31.2 13.6 -2.5
v 31.3 13.6 -2.5
v 31.3 13.5 -2.5
v 31.3 13.5 -2.6
v 31.3 13.6 -2.6
v 31.2 13.6 -2.6
v 31.2 13.6 -2.5
v 31.3 13.6 -2.5
v 31.3 13.6 -2.6
v 31.2 13.5 -2.5
v 31.2 13.5 -2.6
v 31.3 13.5 -2.6
v 31.3 13.5 -2.5
v 31.2 13.6 -2.5
v 31.2 13.5 -2.5
v 31.3 13.5 -2.5
v 31.3 13.6 -2.5
v 31.3 13.6 -2.6
v 31.3 13.5 -2.6
v 31.2 13.5 -2.6
v 31.2 13.6 -2.6
v 31.4 13.6 -2.6
v 31.4 13.5 -2.6
v 31.4 13.5 -2.5
v 31.4 13.6 -2.5
v 31.4 13.5 -2.5
v 31.4 13.5 -2.6
v 31.5 13.5 -2.6
v 31.5 13.5 -2.5
v 31.4 13.6 -2.5
v 31.4 13.5 -2.5
v 31.5 13.5 -2.5
v 31.5 13.6 -2.5
v 31.5 13.6 -2.6
v 31.5 13.5 -2.6
v 31.4 13.5 -2.6
v 31.4 13.6 -2.6
v 31.5 13.6 -2.5
v 31.5 13.5 -2.5
v 31.6 13.5 -2.5
v 31.6 13.6 -2.5
v 31.6 13.6 -2.6
v 31.6 13.5 -2.6
v 31.5 13.5 -2.6
v 31.5 13.6 -2.6
v 31.6 13.6 -2.5
v 31.6 13.5 -2.5
v 31.7 13.5 -2.5
v 31.7 13.6 -2.5
v 31.7 13.6 -2.6
v 31.7 13.5 -2.6
v 31.6 13.5 -2.6
v 31.6 13.6 -2.6
v 31.7 13.6 -2.5
v 31.7 13.5 -2.5
v 31.8 13.5 -2.5
v 31.8 13.6 -2.5
v 31.8 13.6 -2.6
v 31.8 13.5 -2.6
v 31.7 13.5 -2.6
v 31.7 13.6 -2.6
v 31.8 13.6 -2.5
v 31.8 13.5 -2.5
v 31.9 13.5 -2.5
v 31.9 13.6 -2.5
v 31.9 13.6 -2.6
v 31.9 13.5 -2.6
v 31.8 13.5 -2.6
v 31.8 13.6 -2.6
v 32 13.6 -2.5
v 32 13.5 -2.5
v 32 13.5 -2.6
v 32 13.6 -2.6
v 31.9 13.6 -2.5
v 31.9 13.5 -2.5
v 32 13.5 -2.5
v 32 13.6 -2.5
v 32 13.6 -2.6
v 32 13.5 -2.6
v 31.9 13.5 -2.6
v 31.9 13.6 -2.6
v 31.3 13.5 -2.6
v 31.3 13.4 -2.6
v 31.3 13.4 -2.5
v 31.3 13.5 -2.5
v 31.4 13.5 -2.5
v 31.4 13.4 -2.5
v 31.4 13.4 -2.6
v 31.4 13.5 -2.6
v 31.3 13.5 -2.6
v 31.3 13.5 -2.5
v 31.4 13.5 -2.5
v 31.4 13.5 -2.6
v 31.3 13.4 -2.5
v 31.3 13.4 -2.6
v 31.4 13.4 -2.6
v 31.4 13.4 -2.5
v 31.3 13.5 -2.5
v 31.3 13.4 -2.5
v 31.4 13.4 -2.5
v 31.4 13.5 -2.5
v 31.4 13.5 -2.6
v 31.4 13.4 -2.6
v 31.3 13.4 -2.6
v 31.3 13.5 -2.6
v 31.5 13.5 -2.6
v 31.5 13.4 -2.6
v 31.5 13.4 -2.5
v 31.5 13.5 -2.5
v 31.5 13.4 -2.5
v 31.5 13.4 -2.6
v 31.6 13.4 -2.6
v 31.6 13.4 -2.5
v 31.5 13.5 -2.5
v 31.5 13.4 -2.5
v 31.6 13.4 -2.5
v 31.6 13.5 -2.5
v 31.6 13.5 -2.6
v 31.6 13.4 -2.6
v 31.5 13.4 -2.6
v 31.5 13.5 -2.6
v 31.6 13.5 -2.5
v 31.6 13.4 -2.5
v 31.7 13.4 -2.5
v 31.7 13.5 -2.5
v 31.7 13.5 -2.6
v 31.7 13.4 -2.6
v 31.6 13.4 -2.6
v 31.6 13.5 -2.6
v 31.7 13.5 -2.5
v 31.7 13.4 -2.5
v 31.8 13.4 -2.5
v 31.8 13.5 -2.5
v 31.8 13.5 -2.6
v 31.8 13.4 -2.6
v 31.7 13.4 -2.6
v 31.7 13.5 -2.6
v 31.8 13.5 -2.5
v 31.8 13.4 -2.5
v 31.9 13.4 -2.5
v 31.9 13.5 -2.5
v 31.9 13.5 -2.6
v 31.9 13.4 -2.6
v 31.8 13.4 -2.6
v 31.8 13.5 -2.6
v 32 13.5 -2.5
v 32 13.4 -2.5
v 32 13.4 -2.6
v 32 13.5 -2.6
v 31.9 13.5 -2.5
v 31.9 13.4 -2.5
v 32 13.4 -2.5
v 32 13.5 -2.5
v 32 13.5 -2.6
v 32 13.4 -2.6
v 31.9 13.4 -2.6
v 31.9 13.5 -2.6
v 31.4 13.4 -2.6
v 31.4 13.3 -2.6
v 31.4 13.3 -2.5
v 31.4 13.4 -2.5
v 31.5 13.4 -2.5
v 31.5 13.3 -2.5
v 31.5 13.3 -2.6
v 31.5 13.4 -2.6
v 31.4 13.4 -2.6
v 31.4 13.4 -2.5
v 31.5 13.4 -2.5
v 31.5 13.4 -2.6
v 31.4 13.3 -2.5
v 31.4 13.3 -2.6
v 31.5 13.3 -2.6
v 31.5 13.3 -2.5
v 31.4 13.4 -2.5
v 31.4 13.3 -2.5
v 31.5 13.3 -2.5
v 31.5 13.4 -2.5
v 31.5 13.4 -2.6
v 31.5 13.3 -2.6
v 31.4 13.3 -2.6
v 31.4 13.4 -2.6
v 31.6 13.4 -2.6
v 31.6 13.3 -2.6
v 31.6 13.3 -2.5
v 31.6 13.4 -2.5
v 31.6 13.3 -2.5
v 31.6 13.3 -2.6
v 31.7 13.3 -2.6
v 31.7 13.3 -2.5
v 31.6 13.4 -2.5
v 31.6 13.3 -2.5
v 31.7 13.3 -2.5
v 31.7 13.4 -2.5
v 31.7 13.4 -2.6
v 31.7 13.3 -2.6
v 31.6 13.3 -2.6
v 31.6 13.4 -2.6
v 31.7 13.4 -2.5
v 31.7 13.3 -2.5
v 31.8 13.3 -2.5
v 31.8 13.4 -2.5
v 31.8 13.4 -2.6
v 31.8 13.3 -2.6
v 31.7 13.3 -2.6
v 31.7 13.4 -2.6
v 31.8 13.4 -2.5
v 31.8 13.3 -2.5
v 31.9 13.3 -2.5
v 31.9 13.4 -2.5
v 31.9 13.4 -2.6
v 31.9 13.3 -2.6
v 31.8 13.3 -2.6
v 31.8 13.4 -2.6
v 32 13.4 -2.5
v 32 13.3 -2.5
v 32 13.3 -2.6
v 32 13.4 -2.6
v 31.9 13.4 -2.5
v 31.9 13.3 -2.5
v 32 13.3 -2.5
v 32 13.4 -2.5
v 32 13.4 -2.6
v 32 13.3 -2.6
v 31.9 13.3 -2.6
v 31.9 13.4 -2.6
v 31.5 13.3 -2.6
v 31.5 13.2 -2.6
v 31.5 13.2 -2.5
v 31.5 13.3 -2.5
v 31.6 13.3 -2.5
v 31.6 13.2 -2.5
v 31.6 13.2 -2.6
v 31.6 13.3 -2.6
v 31.5 13.3 -2.6
v 31.5 13.3 -2.5
v 31.6 13.3 -2.5
v 31.6 13.3 -2.6
v 31.5 13.2 -2.5
v 31.5 13.2 -2.6
v 31.6 13.2 -2.6
v 31.6 13.2 -2.5
v 31.5 13.3 -2.5
v 31.5 13.2 -2.5
v 31.6 13.2 -2.5
v 31.6 13.3 -2.5
v 31.6 13.3 -2.6
v 31.6 13.2 -2.6
v 31.5 13.2 -2.6
v 31.5 13.3 -2.6
v 31.7 13.3 -2.6
v 31.7 13.2 -2.6
v 31.7 13.2 -2.5
v 31.7 13.3 -2.5
v 31.7 13.2 -2.5
v 31.7 13.2 -2.6
v 31.8 13.2 -2.6
v 31.8 13.2 -2.5
v 31.7 13.3 -2.5
v 31.7 13.2 -2.5
v 31.8 13.2 -2.5
v 31.8 13.3 -2.5
v 31.8 13.3 -2.6
v 31.8 13.2 -2.6
v 31.7 13.2 -2.6
v 31.7 13.3 -2.6
v 31.8 13.3 -2.5
v 31.8 13.2 -2.5
v 31.9 13.2 -2.5
v 31.9 13.3 -2.5
v 31.9 13.3 -2.6
v 31.9 13.2 -2.6
v 31.8 13.2 -2.6
v 31.8 13.3 -2.6
v 32 13.3 -2.5
v 32 13.2 -2.5
v 32 13.2 -2.6
v 32 13.3 -2.6
v 31.9 13.3 -2.5
v 31.9 13.2 -2.5
v 32 13.2 -2.5
v 32 13.3 -2.5
v 32 13.3 -2.6
v 32 13.2 -2.6
v 31.9 13.2 -2.6
v 31.9 13.3 -2.6
v 31.6 13.2 -2.6
v 31.6 13.1 -2.6
v 31.6 13.1 -2.5
v 31.6 13.2 -2.5
v 31.7 13.2 -2.5
v 31.7 13.1 -2.5
v 31.7 13.1 -2.6
v 31.7 13.2 -2.6
v 31.6 13.2 -2.6
v 31.6 13.2 -2.5
v 31.7 13.2 -2.5
v 31.7 13.2 -2.6
v 31.6 13.1 -2.5
v 31.6 13.1 -2.6
v 31.7 13.1 -2.6
v 31.7 13.1 -2.5
v 31.6 13.2 -2.5
v 31.6 13.1 -2.5
v 31.7 13.1 -2.5
v 31.7 13.2 -2.5
v 31.7 13.2 -2.6
v 31.7 13.1 -2.6
v 31.6 13.1 -2.6
v 31.6 13.2 -2.6
v 31.8 13.2 -2.6
v 31.8 13.1 -2.6
v 31.8 13.1 -2.5
v 31.8 13.2 -2.5
v 31.8 13.1 -2.5
v 31.8 13.1 -2.6
v 31.9 13.1 -2.6
v 31.9 13.1 -2.5
v 31.8 13.2 -2.5
v 31.8 13.1 -2.5
v 31.9 13.1 -2.5
v 31.9 13.2 -2.5
v 31.9 13.2 -2.6
v 31.9 13.1 -2.6
v 31.8 13.1 -2.6
v 31.8 13.2 -2.6
v 32 13.2 -2.5
v 32 13.1 -2.5
v 32 13.1 -2.6
v 32 13.2 -2.6
v 31.9 13.2 -2.5
v 31.9 13.1 -2.5
v 32 13.1 -2.5
v 32 13.2 -2.5
v 32 13.2 -2.6
v 32 13.1 -2.6
v 31.9 13.1 -2.6
v 31.9 13.2 -2.6
v 31.7 13.1 -2.6
v 31.7 13 -2.6
v 31.7 13 -2.5
v 31.7 13.1 -2.5
v 31.8 13.1 -2.5
v 31.8 13 -2.5
v 31.8 13 -2.6
v 31.8 13.1 -2.6
v 31.7 13.1 -2.6
v 31.7 13.1 -2.5
v 31.8 13.1 -2.5
v 31.8 13.1 -2.6
v 31.7 13.1 -2.5
v 31.7 13 -2.5
v 31.8 13 -2.5
v 31.8 13.1 -2.5
v 31.8 13.1 -2.6
v 31.8 13 -2.6
v 31.7 13 -2.6
v 31.7 13.1 -2.6
v 31.9 13.1 -2.6
v 31.9 13 -2.6
v 31.9 13 -2.5
v 31.9 13.1 -2.5
v 32 13.1 -2.5
v 32 13 -2.5
v 32 13 -2.6
v 32 13.1 -2.6
v 31.9 13.1 -2.5
v 31.9 13 -2.5
v 32 13 -2.5
v 32 13.1 -2.5
v 32 13.1 -2.6
v 32 13 -2.6
v 31.9 13 -2.6
v 31.9 13.1 -2.6
v 31.7 13 -2.6
v 31.7 12.9 -2.6
v 31.7 12.9 -2.5
v 31.7 13 -2.5
v 31.7 12.9 -2.5
v 31.7 12.9 -2.6
v 31.8 12.9 -2.6
v 31.8 12.9 -2.5
v 31.7 13 -2.5
v 31.7 12.9 -2.5
v 31.8 12.9 -2.5
v 31.8 13 -2.5
v 31.8 13 -2.6
v 31.8 12.9 -2.6
v 31.7 12.9 -2.6
v 31.7 13 -2.6
v 31.8 13 -2.6
v 31.8 13 -2.5
v 31.9 13 -2.5
v 31.9 13 -2.6
v 31.8 13 -2.5
v 31.8 12.9 -2.5
v 31.9 12.9 -2.5
v 31.9 13 -2.5
v 31.9 13 -2.6
v 31.9 12.9 -2.6
v 31.8 12.9 -2.6
v 31.8 13 -2.6
v 32 13 -2.5
v 32 12.9 -2.5
v 32 12.9 -2.6
v 32 13 -2.6
v 31.9 12.9 -2.5
v 31.9 12.9 -2.6
v 32 12.9 -2.6
v 32 12.9 -2.5
v 31.9 13 -2.5
v 31.9 12.9 -2.5
v 32 12.9 -2.5
v 32 13 -2.5
v 32 13 -2.6
v 32 12.9 -2.6
v 31.9 12.9 -2.6
v 31.9 13 -2.6
v 31.8 12.9 -2.6
v 31.8 12.8 -2.6
v 31.8 12.8 -2.5
v 31.8 12.9 -2.5
v 31.9 12.9 -2.5
v 31.9 12.8 -2.5
v 31.9 12.8 -2.6
v 31.9 12.9 -2.6
v 31.8 12.9 -2.5
v 31.8 12.8 -2.5
v 31.9 12.8 -2.5
v 31.9 12.9 -2.5
v 31.9 12.9 -2.6
v 31.9 12.8 -2.6
v 31.8 12.8 -2.6
v 31.8 12.9 -2.6
v 31.8 12.8 -2.6
v 31.8 12.7 -2.6
v 31.8 12.7 -2.5
v 31.8 12.8 -2.5
v 31.9 12.8 -2.5
v 31.9 12.7 -2.5
v 31.9 12.7 -2.6
v 31.9 12.8 -2.6
v 31.8 12.8 -2.5
v 31.8 12.7 -2.5
v 31.9 12.7 -2.5
v 31.9 12.8 -2.5
v 31.9 12.8 -2.6
v 31.9 12.7 -2.6
v 31.8 12.7 -2.6
v 31.8 12.8 -2.6
v 31.8 12.7 -2.6
v 31.8 12.6 -2.6
v 31.8 12.6 -2.5
v 31.8 12.7 -2.5
v 31.9 12.7 -2.5
v 31.9 12.6 -2.5
v 31.9 12.6 -2.6
v 31.9 12.7 -2.6
v 31.8 12.6 -2.5
v 31.8 12.6 -2.6
v 31.9 12.6 -2.6
v 31.9 12.6 -2.5
v 31.8 12.7 -2.5
v 31.8 12.6 -2.5
v 31.9 12.6 -2.5
v 31.9 12.7 -2.5
v 31.9 12.7 -2.6
v 31.9 12.6 -2.6
v 31.8 12.6 -2.6
v 31.8 12.7 -2.6
v 31.9 12.6 -2.6
v 31.9 12.5 -2.6
v 31.9 12.5 -2.5
v 31.9 12.6 -2.5
v 32 12.6 -2.5
v 32 12.5 -2.5
v 32 12.5 -2.6
v 32 12.6 -2.6
v 31.9 12.6 -2.6
v 31.9 12.6 -2.5
v 32 12.6 -2.5
v 32 12.6 -2.6
v 31.9 12.6 -2.5
v 31.9 12.5 -2.5
v 32 12.5 -2.5
v 32 12.6 -2.5
v 32 12.6 -2.6
v 32 12.5 -2.6
v 31.9 12.5 -2.6
v 31.9 12.6 -2.6
v 31.9 12.5 -2.6
v 31.9 12.4 -2.6
v 31.9 12.4 -2.5
v 31.9 12.5 -2.5
v 32 12.5 -2.5
v 32 12.4 -2.5
v 32 12.4 -2.6
v 32 12.5 -2.6
v 31.9 12.5 -2.5
v 31.9 12.4 -2.5
v 32 12.4 -2.5
v 32 12.5 -2.5
v 32 12.5 -2.6
v 32 12.4 -2.6
v 31.9 12.4 -2.6
v 31.9 12.5 -2.6
v 31.9 12.4 -2.6
v 31.9 12.3 -2.6
v 31.9 12.3 -2.5
v 31.9 12.4 -2.5
v 32 12.4 -2.5
v 32 12.3 -2.5
v 32 12.3 -2.6
v 32 12.4 -2.6
v 31.9 12.4 -2.5
v 31.9 12.3 -2.5
v 32 12.3 -2.5
v 32 12.4 -2.5
v 32 12.4 -2.6
v 32 12.3 -2.6
v 31.9 12.3 -2.6
v 31.9 12.4 -2.6
v 31.9 12.3 -2.6
v 31.9 12.2 -2.6
v 31.9 12.2 -2.5
v 31.9 12.3 -2.5
v 32 12.3 -2.5
v 32 12.2 -2.5
v 32 12.2 -2.6
v 32 12.3 -2.6
v 31.9 12.3 -2.5
v 31.9 12.2 -2.5
v 32 12.2 -2.5
v 32 12.3 -2.5
v 32 12.3 -2.6
v 32 12.2 -2.6
v 31.9 12.2 -2.6
v 31.9 12.3 -2.6
v 31.9 12.2 -2.6
v 31.9 12.1 -2.6
v 31.9 12.1 -2.5
v 31.9 12.2 -2.5
v 32 12.2 -2.5
v 32 12.1 -2.5
v 32 12.1 -2.6
v 32 12.2 -2.6
v 31.9 12.2 -2.5
v 31.9 12.1 -2.5
v 32 12.1 -2.5
v 32 12.2 -2.5
v 32 12.2 -2.6
v 32 12.1 -2.6
v 31.9 12.1 -2.6
v 31.9 12.2 -2.6
v 31.9 12.1 -2.6
v 31.9 12 -2.6
v 31.9 12 -2.5
v 31.9 12.1 -2.5
v 32 12.1 -2.5
v 32 12 -2.5
v 32 12 -2.6
v 32 12.1 -2.6
v 31.9 12.1 -2.5
v 31.9 12 -2.5
v 32 12 -2.5
v 32 12.1 -2.5
v 32 12.1 -2.6
v 32 12 -2.6
v 31.9 12 -2.6
v 31.9 12.1 -2.6
v 31.9 12 -2.6
v 31.9 11.9 -2.6
v 31.9 11.9 -2.5
v 31.9 12 -2.5
v 32 12 -2.5
v 32 11.9 -2.5
v 32 11.9 -2.6
v 32 12 -2.6
v 31.9 12 -2.5
v 31.9 11.9 -2.5
v 32 11.9 -2.5
v 32 12 -2.5
v 32 12 -2.6
v 32 11.9 -2.6
v 31.9 11.9 -2.6
v 31.9 12 -2.6
v 31.9 11.9 -2.6
v 31.9 11.8 -2.6
v 31.9 11.8 -2.5
v 31.9 11.9 -2.5
v 32 11.9 -2.5
v 32 11.8 -2.5
v 32 11.8 -2.6
v 32 11.9 -2.6
v 31.9 11.9 -2.5
v 31.9 11.8 -2.5
v 32 11.8 -2.5
v 32 11.9 -2.5
v 32 11.9 -2.6
v 32 11.8 -2.6
v 31.9 11.8 -2.6
v 31.9 11.9 -2.6
v 31.8 11.8 -2.6
v 31.8 11.7 -2.6
v 31.8 11.7 -2.5
v 31.8 11.8 -2.5
v 31.8 11.8 -2.6
v 31.8 11.8 -2.5
v 31.9 11.8 -2.5
v 31.9 11.8 -2.6
v 31.8 11.8 -2.5
v 31.8 11.7 -2.5
v 31.9 11.7 -2.5
v 31.9 11.8 -2.5
v 31.9 11.8 -2.6
v 31.9 11.7 -2.6
v 31.8 11.7 -2.6
v 31.8 11.8 -2.6
v 32 11.8 -2.5
v 32 11.7 -2.5
v 32 11.7 -2.6
v 32 11.8 -2.6
v 31.9 11.8 -2.5
v 31.9 11.7 -2.5
v 32 11.7 -2.5
v 32 11.8 -2.5
v 32 11.8 -2.6
v 32 11.7 -2.6
v 31.9 11.7 -2.6
v 31.9 11.8 -2.6
v 31.8 11.7 -2.6
v 31.8 11.6 -2.6
v 31.8 11.6 -2.5
v 31.8 11.7 -2.5
v 31.8 11.6 -2.5
v 31.8 11.6 -2.6
v 31.9 11.6 -2.6
v 31.9 11.6 -2.5
v 31.8 11.7 -2.5
v 31.8 11.6 -2.5
v 31.9 11.6 -2.5
v 31.9 11.7 -2.5
v 31.9 11.7 -2.6
v 31.9 11.6 -2.6
v 31.8 11.6 -2.6
v 31.8 11.7 -2.6
v 32 11.7 -2.5
v 32 11.6 -2.5
v 32 11.6 -2.6
v 32 11.7 -2.6
v 31.9 11.7 -2.5
v 31.9 11.6 -2.5
v 32 11.6 -2.5
v 32 11.7 -2.5
v 32 11.7 -2.6
v 32 11.6 -2.6
v 31.9 11.6 -2.6
v 31.9 11.7 -2.6
v 31.7 11.6 -2.6
v 31.7 11.5 -2.6
v 31.7 11.5 -2.5
v 31.7 11.6 -2.5
v 31.8 11.6 -2.5
v 31.8 11.5 -2.5
v 31.8 11.5 -2.6
v 31.8 11.6 -2.6
v 31.7 11.6 -2.6
v 31.7 11.6 -2.5
v 31.8 11.6 -2.5
v 31.8 11.6 -2.6
v 31.7 11.6 -2.5
v 31.7 11.5 -2.5
v 31.8 11.5 -2.5
v 31.8 11.6 -2.5
v 31.8 11.6 -2.6
v 31.8 11.5 -2.6
v 31.7 11.5 -2.6
v 31.7 11.6 -2.6
v 31.9 11.6 -2.6
v 31.9 11.5 -2.6
v 31.9 11.5 -2.5
v 31.9 11.6 -2.5
v 32 11.6 -2.5
v 32 11.5 -2.5
v 32 11.5 -2.6
v 32 11.6 -2.6
v 31.9 11.5 -2.5
v 31.9 11.5 -2.6
v 32 11.5 -2.6
v 32 11.5 -2.5
v 31.9 11.6 -2.5
v 31.9 11.5 -2.5
v 32 11.5 -2.5
v 32 11.6 -2.5
v 32 11.6 -2.6
v 32 11.5 -2.6
v 31.9 11.5 -2.6
v 31.9 11.6 -2.6
v 31.7 11.5 -2.6
v 31.7 11.4 -2.6
v 31.7 11.4 -2.5
v 31.7 11.5 -2.5
v 31.7 11.5 -2.5
v 31.7 11.4 -2.5
v 31.8 11.4 -2.5
v 31.8 11.5 -2.5
v 31.8 11.5 -2.6
v 31.8 11.4 -2.6
v 31.7 11.4 -2.6
v 31.7 11.5 -2.6
v 31.9 11.5 -2.5
v 31.9 11.4 -2.5
v 31.9 11.4 -2.6
v 31.9 11.5 -2.6
v 31.8 11.5 -2.6
v 31.8 11.5 -2.5
v 31.9 11.5 -2.5
v 31.9 11.5 -2.6
v 31.8 11.4 -2.5
v 31.8 11.4 -2.6
v 31.9 11.4 -2.6
v 31.9 11.4 -2.5
v 31.8 11.5 -2.5
v 31.8 11.4 -2.5
v 31.9 11.4 -2.5
v 31.9 11.5 -2.5
v 31.9 11.5 -2.6
v 31.9 11.4 -2.6
v 31.8 11.4 -2.6
v 31.8 11.5 -2.6
v 31.6 11.4 -2.6
v 31.6 11.3 -2.6
v 31.6 11.3 -2.5
v 31.6 11.4 -2.5
v 31.6 11.4 -2.6
v 31.6 11.4 -2.5
v 31.7 11.4 -2.5
v 31.7 11.4 -2.6
v 31.6 11.3 -2.5
v 31.6 11.3 -2.6
v 31.7 11.3 -2.6
v 31.7 11.3 -2.5
v 31.6 11.4 -2.5
v 31.6 11.3 -2.5
v 31.7 11.3 -2.5
v 31.7 11.4 -2.5
v 31.7 11.4 -2.6
v 31.7 11.3 -2.6
v 31.6 11.3 -2.6
v 31.6 11.4 -2.6
v 31.8 11.4 -2.5
v 31.8 11.3 -2.5
v 31.8 11.3 -2.6
v 31.8 11.4 -2.6
v 31.7 11.3 -2.5
v 31.7 11.3 -2.6
v 31.8 11.3 -2.6
v 31.8 11.3 -2.5
v 31.7 11.4 -2.5
v 31.7 11.3 -2.5
v 31.8 11.3 -2.5
v 31.8 11.4 -2.5
v 31.8 11.4 -2.6
v 31.8 11.3 -2.6
v 31.7 11.3 -2.6
v 31.7 11.4 -2.6
v 31.5 11.3 -2.6
v 31.5 11.2 -2.6
v 31.5 11.2 -2.5
v 31.5 11.3 -2.5
v 31.6 11.3 -2.5
v 31.6 11.2 -2.5
v 31.6 11.2 -2.6
v 31.6 11.3 -2.6
v 31.5 11.3 -2.6
v 31.5 11.3 -2.5
v 31.6 11.3 -2.5
v 31.6 11.3 -2.6
v 31.5 11.2 -2.5
v 31.5 11.2 -2.6
v 31.6 11.2 -2.6
v 31.6 11.2 -2.5
v 31.5 11.3 -2.5
v 31.5 11.2 -2.5
v 31.6 11.2 -2.5
v 31.6 11.3 -2.5
v 31.6 11.3 -2.6
v 31.6 11.2 -2.6
v 31.5 11.2 -2.6
v 31.5 11.3 -2.6

# faces
f 1/1/1 2/1/1 3/1/1 4/1/1
f 5/1/3 6/1/3 7/1/3 8/1/3
f 9/1/4 10/1/4 11/1/4 12/1/4
f 13/1/5 14/1/5 15/1/5 16/1/5
f 17/1/6 18/1/6 19/1/6 20/1/6
f 21/10/3 22/10/3 23/10/3 24/10/3
f 25/10/4 26/10/4 27/10/4 28/10/4
f 29/10/5 30/10/5 31/10/5 32/10/5
f 33/10/6 34/10/6 35/10/6 36/10/6
f 37/2/3 38/2/3 39/2/3 40/2/3
f 41/2/5 42/2/5 43/2/5 44/2/5
f 45/2/6 46/2/6 47/2/6 48/2/6
f 49/3/3 50/3/3 51/3/3 52/3/3
f 53/3/5 54/3/5 55/3/5 56/3/5
f 57/3/6 58/3/6 59/3/6 60/3/6
f 61/9/2 62/9/2 63/9/2 64/9/2
f 65/9/3 66/9/3 67/9/3 68/9/3
f 69/9/5 70/9/5 71/9/5 72/9/5
f 73/9/6 74/9/6 75/9/6 76/9/6
f 77/3/1 78/3/1 79/3/1 80/3/1
f 81/3/4 82/3/4 83/3/4 84/3/4
f 85/3/5 86/3/5 87/3/5 88/3/5
f 89/3/6 90/3/6 91/3/6 92/3/6
f 93/9/4 94/9/4 95/9/4 96/9/4
f 97/9/5 98/9/5 99/9/5 100/9/5
f 101/9/6 102/9/6 103/9/6 104/9/6
f 105/11/4 106/11/4 107/11/4 108/11/4
f 109/11/5 110/11/5 111/11/5 112/11/5
f 113/11/6 114/11/6 115/11/6 116/11/6
f 117/4/3 118/4/3 119/4/3 120/4/3
f 121/4/5 122/4/5 123/4/5 124/4/5
f 125/4/6 126/4/6 127/4/6 128/4/6
f 129/8/3 130/8/3 131/8/3 132/8/3
f 133/8/5 134/8/5 135/8/5 136/8/5
f 137/8/6 138/8/6 139/8/6 140/8/6
f 141/12/3 142/12/3 143/12/3 144/12/3
f 145/12/5 146/12/5 147/12/5 148/12/5
f 149/12/6 150/12/6 151/12/6 152/12/6
f 153/12/3 154/12/3 155/12/3 156/12/3
f 157/12/5 158/12/5 159/12/5 160/12/5
f 161/12/6 162/12/6 163/12/6 164/12/6
f 165/8/2 166/8/2 167/8/2 168/8/2
f 169/8/3 170/8/3 171/8/3 172/8/3
f 173/8/5 174/8/5 175/8/5 176/8/5
f 177/8/6 178/8/6 179/8/6 180/8/6
f 181/8/1 182/8/1 183/8/1 184/8/1
f 185/8/4 186/8/4 187/8/4 188/8/4
f 189/8/5 190/8/5 191/8/5 192/8/5
f 193/8/6 194/8/6 195/8/6 196/8/6
f 197/12/4 198/12/4 199/12/4 200/12/4
f 201/12/5 202/12/5 203/12/5 204/12/5
f 205/12/6 206/12/6 207/12/6 208/12/6
f 209/5/5 210/5/5 211/5/5 212/5/5
f 213/5/6 214/5/6 215/5/6 216/5/6
f 217/5/5 218/5/5 219/5/5 220/5/5
f 221/5/6 222/5/6 223/5/6 224/5/6
f 225/5/5 226/5/5 227/5/5 228/5/5
f 229/5/6 230/5/6 231/5/6 232/5/6
f 233/12/3 234/12/3 235/12/3 236/12/3
f 237/12/5 238/12/5 239/12/5 240/12/5
f 241/12/6 242/12/6 243/12/6 244/12/6
f 245/12/3 246/12/3 247/12/3 248/12/3
f 249/12/4 250/12/4 251/12/4 252/12/4
f 253/12/5 254/12/5 255/12/5 256/12/5
f 257/12/6 258/12/6 259/12/6 260/12/6
f 261/12/3 262/12/3 263/12/3 264/12/3
f 265/12/4 266/12/4 267/12/4 268/12/4
f 269/12/5 270/12/5 271/12/5 272/12/5
f 273/12/6 274/12/6 275/12/6 276/12/6
f 277/12/3 278/12/3 279/12/3 280/12/3
f 281/12/4 282/12/4 283/12/4 284/12/4
f 285/12/5 286/12/5 287/12/5 288/12/5
f 289/12/6 290/12/6 291/12/6 292/12/6
f 293/12/3 294/12/3 295/12/3 296/12/3
f 297/12/5 298/12/5 299/12/5 300/12/5
f 301/12/6 302/12/6 303/12/6 304/12/6
f 305/8/2 306/8/2 307/8/2 308/8/2
f 309/8/3 310/8/3 311/8/3 312/8/3
f 313/8/5 314/8/5 315/8/5 316/8/5
f 317/8/6 318/8/6 319/8/6 320/8/6
f 321/12/1 322/12/1 323/12/1 324/12/1
f 325/12/4 326/12/4 327/12/4 328/12/4
f 329/12/5 330/12/5 331/12/5 332/12/5
f 333/12/6 334/12/6 335/12/6 336/12/6
f 337/5/5 338/5/5 339/5/5 340/5/5
f 341/5/6 342/5/6 343/5/6 344/5/6
f 345/5/5 346/5/5 347/5/5 348/5/5
f 349/5/6 350/5/6 351/5/6 352/5/6
f 353/6/2 354/6/2 355/6/2 356/6/2
f 357/6/4 358/6/4 359/6/4 360/6/4
f 361/6/5 362/6/5 363/6/5 364/6/5
f 365/6/6 366/6/6 367/6/6 368/6/6
f 369/6/1 370/6/1 371/6/1 372/6/1
f 373/6/5 374/6/5 375/6/5 376/6/5
f 377/6/6 378/6/6 379/6/6 380/6/6
f 381/5/5 382/5/5 383/5/5 384/5/5
f 385/5/6 386/5/6 387/5/6 388/5/6
f 389/12/3 390/12/3 391/12/3 392/12/3
f 393/12/4 394/12/4 395/12/4 396/12/4
f 397/12/5 398/12/5 399/12/5 400/12/5
f 401/12/6 402/12/6 403/12/6 404/12/6
f 405/8/3 406/8/3 407/8/3 408/8/3
f 409/8/4 410/8/4 411/8/4 412/8/4
f 413/8/5 414/8/5 415/8/5 416/8/5
f 417/8/6 418/8/6 419/8/6 420/8/6
f 421/12/2 422/12/2 423/12/2 424/12/2
f 425/12/3 426/12/3 427/12/3 428/12/3
f 429/12/4 430/12/4 431/12/4 432/12/4
f 433/12/5 434/12/5 435/12/5 436/12/5
f 437/12/6 438/12/6 439/12/6 440/12/6
f 441/8/1 442/8/1 443/8/1 444/8/1
f 445/8/4 446/8/4 447/8/4 448/8/4
f 449/8/5 450/8/5 451/8/5 452/8/5
f 453/8/6 454/8/6 455/8/6 456/8/6
f 457/12/2 458/12/2 459/12/2 460/12/2
f 461/12/4 462/12/4 463/12/4 464/12/4
f 465/12/5 466/12/5 467/12/5 468/12/5
f 469/12/6 470/12/6 471/12/6 472/12/6
f 473/7/1 474/7/1 475/7/1 476/7/1
f 477/7/3 478/7/3 479/7/3 480/7/3
f 481/7/4 482/7/4 483/7/4 484/7/4
f 485/7/5 486/7/5 487/7/5 488/7/5
f 489/7/6 490/7/6 491/7/6 492/7/6
f 493/7/3 494/7/3 495/7/3 496/7/3
f 497/7/5 498/7/5 499/7/5 500/7/5
f 501/7/6 502/7/6 503/7/6 504/7/6
f 505/7/3 506/7/3 507/7/3 508/7/3
f 509/7/5 510/7/5 511/7/5 512/7/5
f 513/7/6 514/7/6 515/7/6 516/7/6
f 517/7/5 518/7/5 519/7/5 520/7/5
f 521/7/6 522/7/6 523/7/6 524/7/6
f 525/7/2 526/7/2 527/7/2 528/7/2
f 529/7/5 530/7/5 531/7/5 532/7/5
f 533/7/6 534/7/6 535/7/6 536/7/6
f 537/12/1 538/12/1 539/12/1 540/12/1
f 541/12/2 542/12/2 543/12/2 544/12/2
f 545/12/3 546/12/3 547/12/3 548/12/3
f 549/12/4 550/12/4 551/12/4 552/12/4
f 553/12/5 554/12/5 555/12/5 556/12/5
f 557/12/6 558/12/6 559/12/6 560/12/6
f 561/7/1 562/7/1 563/7/1 564/7/1
f 565/7/4 566/7/4 567/7/4 568/7/4
f 569/7/5 570/7/5 571/7/5 572/7/5
f 573/7/6 574/7/6 575/7/6 576/7/6
f 577/7/5 578/7/5 579/7/5 580/7/5
f 581/7/6 582/7/6 583/7/6 584/7/6
f 585/7/5 586/7/5 587/7/5 588/7/5
f 589/7/6 590/7/6 591/7/6 592/7/6
f 593/7/5 594/7/5 595/7/5 596/7/5
f 597/7/6 598/7/6 599/7/6 600/7/6
f 601/7/3 602/7/3 603/7/3 604/7/3
f 605/7/5 606/7/5 607/7/5 608/7/5
f 609/7/6 610/7/6 611/7/6 612/7/6
f 613/7/3 614/7/3 615/7/3 616/7/3
f 617/7/5 618/7/5 619/7/5 620/7/5
f 621/7/6 622/7/6 623/7/6 624/7/6
f 625/7/2 626/7/2 627/7/2 628/7/2
f 629/7/3 630/7/3 631/7/3 632/7/3
f 633/7/5 634/7/5 635/7/5 636/7/5
f 637/7/6 638/7/6 639/7/6 640/7/6
f 641/12/1 642/12/1 643/12/1 644/12/1
f 645/12/2 646/12/2 647/12/2 648/12/2
f 649/12/3 650/12/3 651/12/3 652/12/3
f 653/12/4 654/12/4 655/12/4 656/12/4
f 657/12/5 658/12/5 659/12/5 660/12/5
f 661/12/6 662/12/6 663/12/6 664/12/6
f 665/7/1 666/7/1 667/7/1 668/7/1
f 669/7/4 670/7/4 671/7/4 672/7/4
f 673/7/5 674/7/5 675/7/5 676/7/5
f 677/7/6 678/7/6 679/7/6 680/7/6
f 681/7/5 682/7/5 683/7/5 684/7/5
f 685/7/6 686/7/6 687/7/6 688/7/6
f 689/7/5 690/7/5 691/7/5 692/7/5
f 693/7/6 694/7/6 695/7/6 696/7/6
f 697/7/5 698/7/5 699/7/5 700/7/5
f 701/7/6 702/7/6 703/7/6 704/7/6
f 705/7/5 706/7/5 707/7/5 708/7/5
f 709/7/6 710/7/6 711/7/6 712/7/6
f 713/7/2 714/7/2 715/7/2 716/7/2
f 717/7/5 718/7/5 719/7/5 720/7/5
f 721/7/6 722/7/6 723/7/6 724/7/6
f 725/12/1 726/12/1 727/12/1 728/12/1
f 729/12/2 730/12/2 731/12/2 732/12/2
f 733/12/3 734/12/3 735/12/3 736/12/3
f 737/12/4 738/12/4 739/12/4 740/12/4
f 741/12/5 742/12/5 743/12/5 744/12/5
f 745/12/6 746/12/6 747/12/6 748/12/6
f 749/7/1 750/7/1 751/7/1 752/7/1
f 753/7/4 754/7/4 755/7/4 756/7/4
f 757/7/5 758/7/5 759/7/5 760/7/5
f 761/7/6 762/7/6 763/7/6 764/7/6
f 765/7/5 766/7/5 767/7/5 768/7/5
f 769/7/6 770/7/6 771/7/6 772/7/6
f 773/7/5 774/7/5 775/7/5 776/7/5
f 777/7/6 778/7/6 779/7/6 780/7/6
f 781/7/5 782/7/5 783/7/5 784/7/5
f 785/7/6 786/7/6 787/7/6 788/7/6
f 789/7/2 790/7/2 791/7/2 792/7/2
f 793/7/5 794/7/5 795/7/5 796/7/5
f 797/7/6 798/7/6 799/7/6 800/7/6
f 801/12/1 802/12/1 803/12/1 804/12/1
f 805/12/2 806/12/2 807/12/2 808/12/2
f 809/12/3 810/12/3 811/12/3 812/12/3
f 813/12/4 814/12/4 815/12/4 816/12/4
f 817/12/5 818/12/5 819/12/5 820/12/5
f 821/12/6 822/12/6 823/12/6 824/12/6
f 825/7/1 826/7/1 827/7/1 828/7/1
f 829/7/4 830/7/4 831/7/4 832/7/4
f 833/7/5 834/7/5 835/7/5 836/7/5
f 837/7/6 838/7/6 839/7/6 840/7/6
f 841/7/5 842/7/5 843/7/5 844/7/5
f 845/7/6 846/7/6 847/7/6 848/7/6
f 849/7/5 850/7/5 851/7/5 852/7/5
f 853/7/6 854/7/6 855/7/6 856/7/6
f 857/7/2 858/7/2 859/7/2 860/7/2
f 861/7/5 862/7/5 863/7/5 864/7/5
f 865/7/6 866/7/6 867/7/6 868/7/6
f 869/12/1 870/12/1 871/12/1 872/12/1
f 873/12/2 874/12/2 875/12/2 876/12/2
f 877/12/3 878/12/3 879/12/3 880/12/3
f 881/12/4 882/12/4 883/12/4 884/12/4
f 885/12/5 886/12/5 887/12/5 888/12/5
f 889/12/6 890/12/6 891/12/6 892/12/6
f 893/7/1 894/7/1 895/7/1 896/7/1
f 897/7/4 898/7/4 899/7/4 900/7/4
f 901/7/5 902/7/5 903/7/5 904/7/5
f 905/7/6 906/7/6 907/7/6 908/7/6
f 909/7/5 910/7/5 911/7/5 912/7/5
f 913/7/6 914/7/6 915/7/6 916/7/6
f 917/7/2 918/7/2 919/7/2 920/7/2
f 921/7/5 922/7/5 923/7/5 924/7/5
f 925/7/6 926/7/6 927/7/6 928/7/6
f 929/12/1 930/12/1 931/12/1 932/12/1
f 933/12/2 934/12/2 935/12/2 936/12/2
f 937/12/3 938/12/3 939/12/3 940/12/3
f 941/12/4 942/12/4 943/12/4 944/12/4
f 945/12/5 946/12/5 947/12/5 948/12/5
f 949/12/6 950/12/6 951/12/6 952/12/6
f 953/7/1 954/7/1 955/7/1 956/7/1
f 957/7/4 958/7/4 959/7/4 960/7/4
f 961/7/5 962/7/5 963/7/5 964/7/5
f 965/7/6 966/7/6 967/7/6 968/7/6
f 969/7/2 970/7/2 971/7/2 972/7/2
f 973/7/5 974/7/5 975/7/5 976/7/5
f 977/7/6 978/7/6 979/7/6 980/7/6
f 981/12/1 982/12/1 983/12/1 984/12/1
f 985/12/2 986/12/2 987/12/2 988/12/2
f 989/12/3 990/12/3 991/12/3 992/12/3
f 993/12/5 994/12/5 995/12/5 996/12/5
f 997/12/6 998/12/6 999/12/6 1000/12/6
f 1001/7/1 1002/7/1 1003/7/1 1004/7/1
f 1005/7/2 1006/7/2 1007/7/2 1008/7/2
f 1009/7/5 1010/7/5 1011/7/5 1012/7/5
f 1013/7/6 1014/7/6 1015/7/6 1016/7/6
f 1017/8/1 1018/8/1 1019/8/1 1020/8/1
f 1021/8/4 1022/8/4 1023/8/4 1024/8/4
f 1025/8/5 1026/8/5 1027/8/5 1028/8/5
f 1029/8/6 1030/8/6 1031/8/6 1032/8/6
f 1033/5/3 1034/5/3 1035/5/3 1036/5/3
f 1037/5/5 1038/5/5 1039/5/5 1040/5/5
f 1041/5/6 1042/5/6 1043/5/6 1044/5/6
f 1045/7/2 1046/7/2 1047/7/2 1048/7/2
f 1049/7/4 1050/7/4 1051/7/4 1052/7/4
f 1053/7/5 1054/7/5 1055/7/5 1056/7/5
f 1057/7/6 1058/7/6 1059/7/6 1060/7/6
f 1061/12/1 1062/12/1 1063/12/1 1064/12/1
f 1065/12/2 1066/12/2 1067/12/2 1068/12/2
f 1069/12/5 1070/12/5 1071/12/5 1072/12/5
f 1073/12/6 1074/12/6 1075/12/6 1076/12/6
f 1077/12/1 1078/12/1 1079/12/1 1080/12/1
f 1081/12/2 1082/12/2 1083/12/2 1084/12/2
f 1085/12/5 1086/12/5 1087/12/5 1088/12/5
f 1089/12/6 1090/12/6 1091/12/6 1092/12/6
f 1093/8/1 1094/8/1 1095/8/1 1096/8/1
f 1097/8/2 1098/8/2 1099/8/2 1100/8/2
f 1101/8/4 1102/8/4 1103/8/4 1104/8/4
f 1105/8/5 1106/8/5 1107/8/5 1108/8/5
f 1109/8/6 1110/8/6 1111/8/6 1112/8/6
f 1113/12/1 1114/12/1 1115/12/1 1116/12/1
f 1117/12/2 1118/12/2 1119/12/2 1120/12/2
f 1121/12/3 1122/12/3 1123/12/3 1124/12/3
f 1125/12/5 1126/12/5 1127/12/5 1128/12/5
f 1129/12/6 1130/12/6 1131/12/6 1132/12/6
f 1133/12/1 1134/12/1 1135/12/1 1136/12/1
f 1137/12/2 1138/12/2 1139/12/2 1140/12/2
f 1141/12/5 1142/12/5 1143/12/5 1144/12/5
f 1145/12/6 1146/12/6 1147/12/6 1148/12/6
f 1149/12/1 1150/12/1 1151/12/1 1152/12/1
f 1153/12/2 1154/12/2 1155/12/2 1156/12/2
f 1157/12/5 1158/12/5 1159/12/5 1160/12/5
f 1161/12/6 1162/12/6 1163/12/6 1164/12/6
f 1165/12/1 1166/12/1 1167/12/1 1168/12/1
f 1169/12/2 1170/12/2 1171/12/2 1172/12/2
f 1173/12/5 1174/12/5 1175/12/5 1176/12/5
f 1177/12/6 1178/12/6 1179/12/6 1180/12/6
f 1181/12/1 1182/12/1 1183/12/1 1184/12/1
f 1185/12/2 1186/12/2 1187/12/2 1188/12/2
f 1189/12/5 1190/12/5 1191/12/5 1192/12/5
f 1193/12/6 1194/12/6 1195/12/6 1196/12/6
f 1197/12/1 1198/12/1 1199/12/1 1200/12/1
f 1201/12/2 1202/12/2 1203/12/2 1204/12/2
f 1205/12/5 1206/12/5 1207/12/5 1208/12/5
f 1209/12/6 1210/12/6 1211/12/6 1212/12/6
f 1213/12/1 1214/12/1 1215/12/1 1216/12/1
f 1217/12/2 1218/12/2 1219/12/2 1220/12/2
f 1221/12/5 1222/12/5 1223/12/5 1224/12/5
f 1225/12/6 1226/12/6 1227/12/6 1228/12/6
f 1229/12/1 1230/12/1 1231/12/1 1232/12/1
f 1233/12/2 1234/12/2 1235/12/2 1236/12/2
f 1237/12/5 1238/12/5 1239/12/5 1240/12/5
f 1241/12/6 1242/12/6 1243/12/6 1244/12/6
f 1245/8/1 1246/8/1 1247/8/1 1248/8/1
f 1249/8/3 1250/8/3 1251/8/3 1252/8/3
f 1253/8/5 1254/8/5 1255/8/5 1256/8/5
f 1257/8/6 1258/8/6 1259/8/6 1260/8/6
f 1261/7/2 1262/7/2 1263/7/2 1264/7/2
f 1265/7/5 1266/7/5 1267/7/5 1268/7/5
f 1269/7/6 1270/7/6 1271/7/6 1272/7/6
f 1273/12/1 1274/12/1 1275/12/1 1276/12/1
f 1277/12/4 1278/12/4 1279/12/4 1280/12/4
f 1281/12/5 1282/12/5 1283/12/5 1284/12/5
f 1285/12/6 1286/12/6 1287/12/6 1288/12/6
f 1289/7/2 1290/7/2 1291/7/2 1292/7/2
f 1293/7/5 1294/7/5 1295/7/5 1296/7/5
f 1297/7/6 1298/7/6 1299/7/6 1300/7/6
f 1301/8/1 1302/8/1 1303/8/1 1304/8/1
f 1305/8/2 1306/8/2 1307/8/2 1308/8/2
f 1309/8/3 1310/8/3 1311/8/3 1312/8/3
f 1313/8/5 1314/8/5 1315/8/5 1316/8/5
f 1317/8/6 1318/8/6 1319/8/6 1320/8/6
f 1321/7/1 1322/7/1 1323/7/1 1324/7/1
f 1325/7/2 1326/7/2 1327/7/2 1328/7/2
f 1329/7/4 1330/7/4 1331/7/4 1332/7/4
f 1333/7/5 1334/7/5 1335/7/5 1336/7/5
f 1337/7/6 1338/7/6 1339/7/6 1340/7/6
f 1341/12/1 1342/12/1 1343/12/1 1344/12/1
f 1345/12/5 1346/12/5 1347/12/5 1348/12/5
f 1349/12/6 1350/12/6 1351/12/6 1352/12/6
f 1353/5/2 1354/5/2 1355/5/2 1356/5/2
f 1357/5/3 1358/5/3 1359/5/3 1360/5/3
f 1361/5/4 1362/5/4 1363/5/4 1364/5/4
f 1365/5/5 1366/5/5 1367/5/5 1368/5/5
f 1369/5/6 1370/5/6 1371/5/6 1372/5/6
f 1373/12/1 1374/12/1 1375/12/1 1376/12/1
f 1377/12/3 1378/12/3 1379/12/3 1380/12/3
f 1381/12/4 1382/12/4 1383/12/4 1384/12/4
f 1385/12/5 1386/12/5 1387/12/5 1388/12/5
f 1389/12/6 1390/12/6 1391/12/6 1392/12/6
f 1393/5/2 1394/5/2 1395/5/2 1396/5/2
f 1397/5/4 1398/5/4 1399/5/4 1400/5/4
f 1401/5/5 1402/5/5 1403/5/5 1404/5/5
f 1405/5/6 1406/5/6 1407/5/6 1408/5/6
f 1409/12/1 1410/12/1 1411/12/1 1412/12/1
f 1413/12/2 1414/12/2 1415/12/2 1416/12/2
f 1417/12/3 1418/12/3 1419/12/3 1420/12/3
f 1421/12/4 1422/12/4 1423/12/4 1424/12/4
f 1425/12/5 1426/12/5 1427/12/5 1428/12/5
f 1429/12/6 1430/12/6 1431/12/6 1432/12/6

