# generated by vox_to_obj_exporter
# scale=0.1 center=false ground=false y_up=true

mtllib Fight_101.mtl
usemtl palette

# normals
vn -1 0 0
vn 1 0 0
vn 0 1 0
vn 0 -1 0
vn 0 0 1
vn 0 0 -1

# texcoords
vt 0.271484375 0.5

# verts
v 16.5 11.1 -2.6
v 16.5 11 -2.6
v 16.5 11 -2.5
v 16.5 11.1 -2.5
v 16.6 11.1 -2.5
v 16.6 11 -2.5
v 16.6 11 -2.6
v 16.6 11.1 -2.6
v 16.5 11.1 -2.6
v 16.5 11.1 -2.5
v 16.6 11.1 -2.5
v 16.6 11.1 -2.6
v 16.5 11.1 -2.5
v 16.5 11 -2.5
v 16.6 11 -2.5
v 16.6 11.1 -2.5
v 16.6 11.1 -2.6
v 16.6 11 -2.6
v 16.5 11 -2.6
v 16.5 11.1 -2.6
v 16.5 11 -2.6
v 16.5 10.9 -2.6
v 16.5 10.9 -2.5
v 16.5 11 -2.5
v 16.6 11 -2.5
v 16.6 10.9 -2.5
v 16.6 10.9 -2.6
v 16.6 11 -2.6
v 16.5 11 -2.5
v 16.5 10.9 -2.5
v 16.6 10.9 -2.5
v 16.6 11 -2.5
v 16.6 11 -2.6
v 16.6 10.9 -2.6
v 16.5 10.9 -2.6
v 16.5 11 -2.6
v 16.5 10.9 -2.6
v 16.5 10.8 -2.6
v 16.5 10.8 -2.5
v 16.5 10.9 -2.5
v 16.6 10.9 -2.5
v 16.6 10.8 -2.5
v 16.6 10.8 -2.6
v 16.6 10.9 -2.6
v 16.5 10.9 -2.5
v 16.5 10.8 -2.5
v 16.6 10.8 -2.5
v 16.6 10.9 -2.5
v 16.6 10.9 -2.6
v 16.6 10.8 -2.6
v 16.5 10.8 -2.6
v 16.5 10.9 -2.6
v 16.5 10.8 -2.6
v 16.5 10.7 -2.6
v 16.5 10.7 -2.5
v 16.5 10.8 -2.5
v 16.6 10.8 -2.5
v 16.6 10.7 -2.5
v 16.6 10.7 -2.6
v 16.6 10.8 -2.6
v 16.5 10.8 -2.5
v 16.5 10.7 -2.5
v 16.6 10.7 -2.5
v 16.6 10.8 -2.5
v 16.6 10.8 -2.6
v 16.6 10.7 -2.6
v 16.5 10.7 -2.6
v 16.5 10.8 -2.6
v 16.5 10.7 -2.6
v 16.5 10.6 -2.6
v 16.5 10.6 -2.5
v 16.5 10.7 -2.5
v 16.6 10.7 -2.5
v 16.6 10.6 -2.5
v 16.6 10.6 -2.6
v 16.6 10.7 -2.6
v 16.5 10.7 -2.5
v 16.5 10.6 -2.5
v 16.6 10.6 -2.5
v 16.6 10.7 -2.5
v 16.6 10.7 -2.6
v 16.6 10.6 -2.6
v 16.5 10.6 -2.6
v 16.5 10.7 -2.6
v 16.5 10.6 -2.6
v 16.5 10.5 -2.6
v 16.5 10.5 -2.5
v 16.5 10.6 -2.5
v 16.6 10.6 -2.5
v 16.6 10.5 -2.5
v 16.6 10.5 -2.6
v 16.6 10.6 -2.6
v 16.5 10.6 -2.5
v 16.5 10.5 -2.5
v 16.6 10.5 -2.5
v 16.6 10.6 -2.5
v 16.6 10.6 -2.6
v 16.6 10.5 -2.6
v 16.5 10.5 -2.6
v 16.5 10.6 -2.6
v 16.5 10.5 -2.6
v 16.5 10.4 -2.6
v 16.5 10.4 -2.5
v 16.5 10.5 -2.5
v 16.6 10.5 -2.5
v 16.6 10.4 -2.5
v 16.6 10.4 -2.6
v 16.6 10.5 -2.6
v 16.5 10.5 -2.5
v 16.5 10.4 -2.5
v 16.6 10.4 -2.5
v 16.6 10.5 -2.5
v 16.6 10.5 -2.6
v 16.6 10.4 -2.6
v 16.5 10.4 -2.6
v 16.5 10.5 -2.6
v 16.4 10.4 -2.6
v 16.4 10.3 -2.6
v 16.4 10.3 -2.5
v 16.4 10.4 -2.5
v 16.4 10.4 -2.6
v 16.4 10.4 -2.5
v 16.5 10.4 -2.5
v 16.5 10.4 -2.6
v 16.4 10.4 -2.5
v 16.4 10.3 -2.5
v 16.5 10.3 -2.5
v 16.5 10.4 -2.5
v 16.5 10.4 -2.6
v 16.5 10.3 -2.6
v 16.4 10.3 -2.6
v 16.4 10.4 -2.6
v 16.6 10.4 -2.5
v 16.6 10.3 -2.5
v 16.6 10.3 -2.6
v 16.6 10.4 -2.6
v 16.5 10.4 -2.5
v 16.5 10.3 -2.5
v 16.6 10.3 -2.5
v 16.6 10.4 -2.5
v 16.6 10.4 -2.6
v 16.6 10.3 -2.6
v 16.5 10.3 -2.6
v 16.5 10.4 -2.6
v 16.4 10.3 -2.6
v 16.4 10.2 -2.6
v 16.4 10.2 -2.5
v 16.4 10.3 -2.5
v 16.4 10.3 -2.5
v 16.4 10.2 -2.5
v 16.5 10.2 -2.5
v 16.5 10.3 -2.5
v 16.5 10.3 -2.6
v 16.5 10.2 -2.6
v 16.4 10.2 -2.6
v 16.4 10.3 -2.6
v 16.6 10.3 -2.5
v 16.6 10.2 -2.5
v 16.6 10.2 -2.6
v 16.6 10.3 -2.6
v 16.5 10.3 -2.5
v 16.5 10.2 -2.5
v 16.6 10.2 -2.5
v 16.6 10.3 -2.5
v 16.6 10.3 -2.6
v 16.6 10.2 -2.6
v 16.5 10.2 -2.6
v 16.5 10.3 -2.6
v 16.2 10.2 -2.6
v 16.2 10.1 -2.6
v 16.2 10.1 -2.5
v 16.2 10.2 -2.5
v 16.3 10.2 -2.5
v 16.3 10.1 -2.5
v 16.3 10.1 -2.6
v 16.3 10.2 -2.6
v 16.2 10.2 -2.6
v 16.2 10.2 -2.5
v 16.3 10.2 -2.5
v 16.3 10.2 -2.6
v 16.2 10.2 -2.5
v 16.2 10.1 -2.5
v 16.3 10.1 -2.5
v 16.3 10.2 -2.5
v 16.3 10.2 -2.6
v 16.3 10.1 -2.6
v 16.2 10.1 -2.6
v 16.2 10.2 -2.6
v 16.4 10.2 -2.6
v 16.4 10.1 -2.6
v 16.4 10.1 -2.5
v 16.4 10.2 -2.5
v 16.4 10.2 -2.5
v 16.4 10.1 -2.5
v 16.5 10.1 -2.5
v 16.5 10.2 -2.5
v 16.5 10.2 -2.6
v 16.5 10.1 -2.6
v 16.4 10.1 -2.6
v 16.4 10.2 -2.6
v 16.5 10.2 -2.5
v 16.5 10.1 -2.5
v 16.6 10.1 -2.5
v 16.6 10.2 -2.5
v 16.6 10.2 -2.6
v 16.6 10.1 -2.6
v 16.5 10.1 -2.6
v 16.5 10.2 -2.6
v 16.7 10.2 -2.5
v 16.7 10.1 -2.5
v 16.7 10.1 -2.6
v 16.7 10.2 -2.6
v 16.6 10.2 -2.6
v 16.6 10.2 -2.5
v 16.7 10.2 -2.5
v 16.7 10.2 -2.6
v 16.6 10.2 -2.5
v 16.6 10.1 -2.5
v 16.7 10.1 -2.5
v 16.7 10.2 -2.5
v 16.7 10.2 -2.6
v 16.7 10.1 -2.6
v 16.6 10.1 -2.6
v 16.6 10.2 -2.6
v 17 10.2 -2.6
v 17 10.1 -2.6
v 17 10.1 -2.5
v 17 10.2 -2.5
v 17.1 10.2 -2.5
v 17.1 10.1 -2.5
v 17.1 10.1 -2.6
v 17.1 10.2 -2.6
v 17 10.2 -2.6
v 17 10.2 -2.5
v 17.1 10.2 -2.5
v 17.1 10.2 -2.6
v 17 10.2 -2.5
v 17 10.1 -2.5
v 17.1 10.1 -2.5
v 17.1 10.2 -2.5
v 17.1 10.2 -2.6
v 17.1 10.1 -2.6
v 17 10.1 -2.6
v 17 10.2 -2.6
v 16.2 10.1 -2.6
v 16.2 10 -2.6
v 16.2 10 -2.5
v 16.2 10.1 -2.5
v 16.3 10.1 -2.5
v 16.3 10 -2.5
v 16.3 10 -2.6
v 16.3 10.1 -2.6
v 16.2 10.1 -2.5
v 16.2 10 -2.5
v 16.3 10 -2.5
v 16.3 10.1 -2.5
v 16.3 10.1 -2.6
v 16.3 10 -2.6
v 16.2 10 -2.6
v 16.2 10.1 -2.6
v 16.4 10.1 -2.6
v 16.4 10 -2.6
v 16.4 10 -2.5
v 16.4 10.1 -2.5
v 16.4 10.1 -2.5
v 16.4 10 -2.5
v 16.5 10 -2.5
v 16.5 10.1 -2.5
v 16.5 10.1 -2.6
v 16.5 10 -2.6
v 16.4 10 -2.6
v 16.4 10.1 -2.6
v 16.5 10.1 -2.5
v 16.5 10 -2.5
v 16.6 10 -2.5
v 16.6 10.1 -2.5
v 16.6 10.1 -2.6
v 16.6 10 -2.6
v 16.5 10 -2.6
v 16.5 10.1 -2.6
v 16.7 10.1 -2.5
v 16.7 10 -2.5
v 16.7 10 -2.6
v 16.7 10.1 -2.6
v 16.6 10.1 -2.5
v 16.6 10 -2.5
v 16.7 10 -2.5
v 16.7 10.1 -2.5
v 16.7 10.1 -2.6
v 16.7 10 -2.6
v 16.6 10 -2.6
v 16.6 10.1 -2.6
v 17 10.1 -2.6
v 17 10 -2.6
v 17 10 -2.5
v 17 10.1 -2.5
v 17.1 10.1 -2.5
v 17.1 10 -2.5
v 17.1 10 -2.6
v 17.1 10.1 -2.6
v 17 10.1 -2.5
v 17 10 -2.5
v 17.1 10 -2.5
v 17.1 10.1 -2.5
v 17.1 10.1 -2.6
v 17.1 10 -2.6
v 17 10 -2.6
v 17 10.1 -2.6
v 16.2 10 -2.6
v 16.2 9.9 -2.6
v 16.2 9.9 -2.5
v 16.2 10 -2.5
v 16.3 10 -2.5
v 16.3 9.9 -2.5
v 16.3 9.9 -2.6
v 16.3 10 -2.6
v 16.2 10 -2.5
v 16.2 9.9 -2.5
v 16.3 9.9 -2.5
v 16.3 10 -2.5
v 16.3 10 -2.6
v 16.3 9.9 -2.6
v 16.2 9.9 -2.6
v 16.2 10 -2.6
v 16.4 10 -2.6
v 16.4 9.9 -2.6
v 16.4 9.9 -2.5
v 16.4 10 -2.5
v 16.4 10 -2.5
v 16.4 9.9 -2.5
v 16.5 9.9 -2.5
v 16.5 10 -2.5
v 16.5 10 -2.6
v 16.5 9.9 -2.6
v 16.4 9.9 -2.6
v 16.4 10 -2.6
v 16.5 10 -2.5
v 16.5 9.9 -2.5
v 16.6 9.9 -2.5
v 16.6 10 -2.5
v 16.6 10 -2.6
v 16.6 9.9 -2.6
v 16.5 9.9 -2.6
v 16.5 10 -2.6
v 16.7 10 -2.5
v 16.7 9.9 -2.5
v 16.7 9.9 -2.6
v 16.7 10 -2.6
v 16.6 10 -2.5
v 16.6 9.9 -2.5
v 16.7 9.9 -2.5
v 16.7 10 -2.5
v 16.7 10 -2.6
v 16.7 9.9 -2.6
v 16.6 9.9 -2.6
v 16.6 10 -2.6
v 17 10 -2.6
v 17 9.9 -2.6
v 17 9.9 -2.5
v 17 10 -2.5
v 17.1 10 -2.5
v 17.1 9.9 -2.5
v 17.1 9.9 -2.6
v 17.1 10 -2.6
v 17 10 -2.5
v 17 9.9 -2.5
v 17.1 9.9 -2.5
v 17.1 10 -2.5
v 17.1 10 -2.6
v 17.1 9.9 -2.6
v 17 9.9 -2.6
v 17 10 -2.6
v 16.2 9.9 -2.6
v 16.2 9.8 -2.6
v 16.2 9.8 -2.5
v 16.2 9.9 -2.5
v 16.3 9.9 -2.5
v 16.3 9.8 -2.5
v 16.3 9.8 -2.6
v 16.3 9.9 -2.6
v 16.2 9.9 -2.5
v 16.2 9.8 -2.5
v 16.3 9.8 -2.5
v 16.3 9.9 -2.5
v 16.3 9.9 -2.6
v 16.3 9.8 -2.6
v 16.2 9.8 -2.6
v 16.2 9.9 -2.6
v 16.4 9.9 -2.6
v 16.4 9.8 -2.6
v 16.4 9.8 -2.5
v 16.4 9.9 -2.5
v 16.4 9.9 -2.5
v 16.4 9.8 -2.5
v 16.5 9.8 -2.5
v 16.5 9.9 -2.5
v 16.5 9.9 -2.6
v 16.5 9.8 -2.6
v 16.4 9.8 -2.6
v 16.4 9.9 -2.6
v 16.5 9.9 -2.5
v 16.5 9.8 -2.5
v 16.6 9.8 -2.5
v 16.6 9.9 -2.5
v 16.6 9.9 -2.6
v 16.6 9.8 -2.6
v 16.5 9.8 -2.6
v 16.5 9.9 -2.6
v 16.7 9.9 -2.5
v 16.7 9.8 -2.5
v 16.7 9.8 -2.6
v 16.7 9.9 -2.6
v 16.6 9.9 -2.5
v 16.6 9.8 -2.5
v 16.7 9.8 -2.5
v 16.7 9.9 -2.5
v 16.7 9.9 -2.6
v 16.7 9.8 -2.6
v 16.6 9.8 -2.6
v 16.6 9.9 -2.6
v 17 9.9 -2.6
v 17 9.8 -2.6
v 17 9.8 -2.5
v 17 9.9 -2.5
v 17.1 9.9 -2.5
v 17.1 9.8 -2.5
v 17.1 9.8 -2.6
v 17.1 9.9 -2.6
v 17 9.9 -2.5
v 17 9.8 -2.5
v 17.1 9.8 -2.5
v 17.1 9.9 -2.5
v 17.1 9.9 -2.6
v 17.1 9.8 -2.6
v 17 9.8 -2.6
v 17 9.9 -2.6
v 16.2 9.8 -2.6
v 16.2 9.7 -2.6
v 16.2 9.7 -2.5
v 16.2 9.8 -2.5
v 16.2 9.8 -2.5
v 16.2 9.7 -2.5
v 16.3 9.7 -2.5
v 16.3 9.8 -2.5
v 16.3 9.8 -2.6
v 16.3 9.7 -2.6
v 16.2 9.7 -2.6
v 16.2 9.8 -2.6
v 16.3 9.8 -2.6
v 16.3 9.8 -2.5
v 16.4 9.8 -2.5
v 16.4 9.8 -2.6
v 16.3 9.8 -2.5
v 16.3 9.7 -2.5
v 16.4 9.7 -2.5
v 16.4 9.8 -2.5
v 16.4 9.8 -2.6
v 16.4 9.7 -2.6
v 16.3 9.7 -2.6
v 16.3 9.8 -2.6
v 16.4 9.8 -2.5
v 16.4 9.7 -2.5
v 16.5 9.7 -2.5
v 16.5 9.8 -2.5
v 16.5 9.8 -2.6
v 16.5 9.7 -2.6
v 16.4 9.7 -2.6
v 16.4 9.8 -2.6
v 16.5 9.8 -2.5
v 16.5 9.7 -2.5
v 16.6 9.7 -2.5
v 16.6 9.8 -2.5
v 16.6 9.8 -2.6
v 16.6 9.7 -2.6
v 16.5 9.7 -2.6
v 16.5 9.8 -2.6
v 16.7 9.8 -2.5
v 16.7 9.7 -2.5
v 16.7 9.7 -2.6
v 16.7 9.8 -2.6
v 16.6 9.8 -2.5
v 16.6 9.7 -2.5
v 16.7 9.7 -2.5
v 16.7 9.8 -2.5
v 16.7 9.8 -2.6
v 16.7 9.7 -2.6
v 16.6 9.7 -2.6
v 16.6 9.8 -2.6
v 17 9.8 -2.6
v 17 9.7 -2.6
v 17 9.7 -2.5
v 17 9.8 -2.5
v 17 9.8 -2.5
v 17 9.7 -2.5
v 17.1 9.7 -2.5
v 17.1 9.8 -2.5
v 17.1 9.8 -2.6
v 17.1 9.7 -2.6
v 17 9.7 -2.6
v 17 9.8 -2.6
v 17.2 9.8 -2.5
v 17.2 9.7 -2.5
v 17.2 9.7 -2.6
v 17.2 9.8 -2.6
v 17.1 9.8 -2.6
v 17.1 9.8 -2.5
v 17.2 9.8 -2.5
v 17.2 9.8 -2.6
v 17.1 9.8 -2.5
v 17.1 9.7 -2.5
v 17.2 9.7 -2.5
v 17.2 9.8 -2.5
v 17.2 9.8 -2.6
v 17.2 9.7 -2.6
v 17.1 9.7 -2.6
v 17.1 9.8 -2.6
v 16.2 9.7 -2.6
v 16.2 9.6 -2.6
v 16.2 9.6 -2.5
v 16.2 9.7 -2.5
v 16.2 9.7 -2.5
v 16.2 9.6 -2.5
v 16.3 9.6 -2.5
v 16.3 9.7 -2.5
v 16.3 9.7 -2.6
v 16.3 9.6 -2.6
v 16.2 9.6 -2.6
v 16.2 9.7 -2.6
v 16.3 9.7 -2.5
v 16.3 9.6 -2.5
v 16.4 9.6 -2.5
v 16.4 9.7 -2.5
v 16.4 9.7 -2.6
v 16.4 9.6 -2.6
v 16.3 9.6 -2.6
v 16.3 9.7 -2.6
v 16.4 9.7 -2.5
v 16.4 9.6 -2.5
v 16.5 9.6 -2.5
v 16.5 9.7 -2.5
v 16.5 9.7 -2.6
v 16.5 9.6 -2.6
v 16.4 9.6 -2.6
v 16.4 9.7 -2.6
v 16.5 9.7 -2.5
v 16.5 9.6 -2.5
v 16.6 9.6 -2.5
v 16.6 9.7 -2.5
v 16.6 9.7 -2.6
v 16.6 9.6 -2.6
v 16.5 9.6 -2.6
v 16.5 9.7 -2.6
v 16.7 9.7 -2.5
v 16.7 9.6 -2.5
v 16.7 9.6 -2.6
v 16.7 9.7 -2.6
v 16.6 9.7 -2.5
v 16.6 9.6 -2.5
v 16.7 9.6 -2.5
v 16.7 9.7 -2.5
v 16.7 9.7 -2.6
v 16.7 9.6 -2.6
v 16.6 9.6 -2.6
v 16.6 9.7 -2.6
v 17 9.7 -2.6
v 17 9.6 -2.6
v 17 9.6 -2.5
v 17 9.7 -2.5
v 17 9.7 -2.5
v 17 9.6 -2.5
v 17.1 9.6 -2.5
v 17.1 9.7 -2.5
v 17.1 9.7 -2.6
v 17.1 9.6 -2.6
v 17 9.6 -2.6
v 17 9.7 -2.6
v 17.2 9.7 -2.5
v 17.2 9.6 -2.5
v 17.2 9.6 -2.6
v 17.2 9.7 -2.6
v 17.1 9.7 -2.5
v 17.1 9.6 -2.5
v 17.2 9.6 -2.5
v 17.2 9.7 -2.5
v 17.2 9.7 -2.6
v 17.2 9.6 -2.6
v 17.1 9.6 -2.6
v 17.1 9.7 -2.6
v 16.2 9.6 -2.6
v 16.2 9.5 -2.6
v 16.2 9.5 -2.5
v 16.2 9.6 -2.5
v 16.2 9.6 -2.5
v 16.2 9.5 -2.5
v 16.3 9.5 -2.5
v 16.3 9.6 -2.5
v 16.3 9.6 -2.6
v 16.3 9.5 -2.6
v 16.2 9.5 -2.6
v 16.2 9.6 -2.6
v 16.3 9.6 -2.5
v 16.3 9.5 -2.5
v 16.4 9.5 -2.5
v 16.4 9.6 -2.5
v 16.4 9.6 -2.6
v 16.4 9.5 -2.6
v 16.3 9.5 -2.6
v 16.3 9.6 -2.6
v 16.4 9.6 -2.5
v 16.4 9.5 -2.5
v 16.5 9.5 -2.5
v 16.5 9.6 -2.5
v 16.5 9.6 -2.6
v 16.5 9.5 -2.6
v 16.4 9.5 -2.6
v 16.4 9.6 -2.6
v 16.5 9.6 -2.5
v 16.5 9.5 -2.5
v 16.6 9.5 -2.5
v 16.6 9.6 -2.5
v 16.6 9.6 -2.6
v 16.6 9.5 -2.6
v 16.5 9.5 -2.6
v 16.5 9.6 -2.6
v 16.7 9.6 -2.5
v 16.7 9.5 -2.5
v 16.7 9.5 -2.6
v 16.7 9.6 -2.6
v 16.6 9.6 -2.5
v 16.6 9.5 -2.5
v 16.7 9.5 -2.5
v 16.7 9.6 -2.5
v 16.7 9.6 -2.6
v 16.7 9.5 -2.6
v 16.6 9.5 -2.6
v 16.6 9.6 -2.6
v 16.9 9.6 -2.6
v 16.9 9.5 -2.6
v 16.9 9.5 -2.5
v 16.9 9.6 -2.5
v 16.9 9.6 -2.6
v 16.9 9.6 -2.5
v 17 9.6 -2.5
v 17 9.6 -2.6
v 16.9 9.6 -2.5
v 16.9 9.5 -2.5
v 17 9.5 -2.5
v 17 9.6 -2.5
v 17 9.6 -2.6
v 17 9.5 -2.6
v 16.9 9.5 -2.6
v 16.9 9.6 -2.6
v 17 9.6 -2.5
v 17 9.5 -2.5
v 17.1 9.5 -2.5
v 17.1 9.6 -2.5
v 17.1 9.6 -2.6
v 17.1 9.5 -2.6
v 17 9.5 -2.6
v 17 9.6 -2.6
v 17.2 9.6 -2.5
v 17.2 9.5 -2.5
v 17.2 9.5 -2.6
v 17.2 9.6 -2.6
v 17.1 9.6 -2.5
v 17.1 9.5 -2.5
v 17.2 9.5 -2.5
v 17.2 9.6 -2.5
v 17.2 9.6 -2.6
v 17.2 9.5 -2.6
v 17.1 9.5 -2.6
v 17.1 9.6 -2.6
v 16.2 9.5 -2.6
v 16.2 9.4 -2.6
v 16.2 9.4 -2.5
v 16.2 9.5 -2.5
v 16.2 9.5 -2.5
v 16.2 9.4 -2.5
v 16.3 9.4 -2.5
v 16.3 9.5 -2.5
v 16.3 9.5 -2.6
v 16.3 9.4 -2.6
v 16.2 9.4 -2.6
v 16.2 9.5 -2.6
v 16.3 9.5 -2.5
v 16.3 9.4 -2.5
v 16.4 9.4 -2.5
v 16.4 9.5 -2.5
v 16.4 9.5 -2.6
v 16.4 9.4 -2.6
v 16.3 9.4 -2.6
v 16.3 9.5 -2.6
v 16.4 9.5 -2.5
v 16.4 9.4 -2.5
v 16.5 9.4 -2.5
v 16.5 9.5 -2.5
v 16.5 9.5 -2.6
v 16.5 9.4 -2.6
v 16.4 9.4 -2.6
v 16.4 9.5 -2.6
v 16.5 9.5 -2.5
v 16.5 9.4 -2.5
v 16.6 9.4 -2.5
v 16.6 9.5 -2.5
v 16.6 9.5 -2.6
v 16.6 9.4 -2.6
v 16.5 9.4 -2.6
v 16.5 9.5 -2.6
v 16.7 9.5 -2.5
v 16.7 9.4 -2.5
v 16.7 9.4 -2.6
v 16.7 9.5 -2.6
v 16.6 9.5 -2.5
v 16.6 9.4 -2.5
v 16.7 9.4 -2.5
v 16.7 9.5 -2.5
v 16.7 9.5 -2.6
v 16.7 9.4 -2.6
v 16.6 9.4 -2.6
v 16.6 9.5 -2.6
v 16.9 9.5 -2.6
v 16.9 9.4 -2.6
v 16.9 9.4 -2.5
v 16.9 9.5 -2.5
v 16.9 9.5 -2.5
v 16.9 9.4 -2.5
v 17 9.4 -2.5
v 17 9.5 -2.5
v 17 9.5 -2.6
v 17 9.4 -2.6
v 16.9 9.4 -2.6
v 16.9 9.5 -2.6
v 17 9.5 -2.5
v 17 9.4 -2.5
v 17.1 9.4 -2.5
v 17.1 9.5 -2.5
v 17.1 9.5 -2.6
v 17.1 9.4 -2.6
v 17 9.4 -2.6
v 17 9.5 -2.6
v 17.2 9.5 -2.5
v 17.2 9.4 -2.5
v 17.2 9.4 -2.6
v 17.2 9.5 -2.6
v 17.1 9.5 -2.5
v 17.1 9.4 -2.5
v 17.2 9.4 -2.5
v 17.2 9.5 -2.5
v 17.2 9.5 -2.6
v 17.2 9.4 -2.6
v 17.1 9.4 -2.6
v 17.1 9.5 -2.6
v 16.2 9.4 -2.6
v 16.2 9.3 -2.6
v 16.2 9.3 -2.5
v 16.2 9.4 -2.5
v 16.2 9.4 -2.5
v 16.2 9.3 -2.5
v 16.3 9.3 -2.5
v 16.3 9.4 -2.5
v 16.3 9.4 -2.6
v 16.3 9.3 -2.6
v 16.2 9.3 -2.6
v 16.2 9.4 -2.6
v 16.3 9.4 -2.5
v 16.3 9.3 -2.5
v 16.4 9.3 -2.5
v 16.4 9.4 -2.5
v 16.4 9.4 -2.6
v 16.4 9.3 -2.6
v 16.3 9.3 -2.6
v 16.3 9.4 -2.6
v 16.4 9.4 -2.5
v 16.4 9.3 -2.5
v 16.5 9.3 -2.5
v 16.5 9.4 -2.5
v 16.5 9.4 -2.6
v 16.5 9.3 -2.6
v 16.4 9.3 -2.6
v 16.4 9.4 -2.6
v 16.5 9.4 -2.5
v 16.5 9.3 -2.5
v 16.6 9.3 -2.5
v 16.6 9.4 -2.5
v 16.6 9.4 -2.6
v 16.6 9.3 -2.6
v 16.5 9.3 -2.6
v 16.5 9.4 -2.6
v 16.6 9.4 -2.5
v 16.6 9.3 -2.5
v 16.7 9.3 -2.5
v 16.7 9.4 -2.5
v 16.7 9.4 -2.6
v 16.7 9.3 -2.6
v 16.6 9.3 -2.6
v 16.6 9.4 -2.6
v 16.8 9.4 -2.5
v 16.8 9.3 -2.5
v 16.8 9.3 -2.6
v 16.8 9.4 -2.6
v 16.7 9.4 -2.6
v 16.7 9.4 -2.5
v 16.8 9.4 -2.5
v 16.8 9.4 -2.6
v 16.7 9.4 -2.5
v 16.7 9.3 -2.5
v 16.8 9.3 -2.5
v 16.8 9.4 -2.5
v 16.8 9.4 -2.6
v 16.8 9.3 -2.6
v 16.7 9.3 -2.6
v 16.7 9.4 -2.6
v 16.9 9.4 -2.6
v 16.9 9.3 -2.6
v 16.9 9.3 -2.5
v 16.9 9.4 -2.5
v 16.9 9.4 -2.5
v 16.9 9.3 -2.5
v 17 9.3 -2.5
v 17 9.4 -2.5
v 17 9.4 -2.6
v 17 9.3 -2.6
v 16.9 9.3 -2.6
v 16.9 9.4 -2.6
v 17 9.4 -2.5
v 17 9.3 -2.5
v 17.1 9.3 -2.5
v 17.1 9.4 -2.5
v 17.1 9.4 -2.6
v 17.1 9.3 -2.6
v 17 9.3 -2.6
v 17 9.4 -2.6
v 17.2 9.4 -2.5
v 17.2 9.3 -2.5
v 17.2 9.3 -2.6
v 17.2 9.4 -2.6
v 17.1 9.4 -2.5
v 17.1 9.3 -2.5
v 17.2 9.3 -2.5
v 17.2 9.4 -2.5
v 17.2 9.4 -2.6
v 17.2 9.3 -2.6
v 17.1 9.3 -2.6
v 17.1 9.4 -2.6
v 17.6 9.4 -2.6
v 17.6 9.3 -2.6
v 17.6 9.3 -2.5
v 17.6 9.4 -2.5
v 17.7 9.4 -2.5
v 17.7 9.3 -2.5
v 17.7 9.3 -2.6
v 17.7 9.4 -2.6
v 17.6 9.4 -2.6
v 17.6 9.4 -2.5
v 17.7 9.4 -2.5
v 17.7 9.4 -2.6
v 17.6 9.4 -2.5
v 17.6 9.3 -2.5
v 17.7 9.3 -2.5
v 17.7 9.4 -2.5
v 17.7 9.4 -2.6
v 17.7 9.3 -2.6
v 17.6 9.3 -2.6
v 17.6 9.4 -2.6
v 16.2 9.3 -2.6
v 16.2 9.2 -2.6
v 16.2 9.2 -2.5
v 16.2 9.3 -2.5
v 16.2 9.3 -2.5
v 16.2 9.2 -2.5
v 16.3 9.2 -2.5
v 16.3 9.3 -2.5
v 16.3 9.3 -2.6
v 16.3 9.2 -2.6
v 16.2 9.2 -2.6
v 16.2 9.3 -2.6
v 16.3 9.3 -2.5
v 16.3 9.2 -2.5
v 16.4 9.2 -2.5
v 16.4 9.3 -2.5
v 16.4 9.3 -2.6
v 16.4 9.2 -2.6
v 16.3 9.2 -2.6
v 16.3 9.3 -2.6
v 16.4 9.3 -2.5
v 16.4 9.2 -2.5
v 16.5 9.2 -2.5
v 16.5 9.3 -2.5
v 16.5 9.3 -2.6
v 16.5 9.2 -2.6
v 16.4 9.2 -2.6
v 16.4 9.3 -2.6
v 16.5 9.3 -2.5
v 16.5 9.2 -2.5
v 16.6 9.2 -2.5
v 16.6 9.3 -2.5
v 16.6 9.3 -2.6
v 16.6 9.2 -2.6
v 16.5 9.2 -2.6
v 16.5 9.3 -2.6
v 16.6 9.3 -2.5
v 16.6 9.2 -2.5
v 16.7 9.2 -2.5
v 16.7 9.3 -2.5
v 16.7 9.3 -2.6
v 16.7 9.2 -2.6
v 16.6 9.2 -2.6
v 16.6 9.3 -2.6
v 16.8 9.3 -2.5
v 16.8 9.2 -2.5
v 16.8 9.2 -2.6
v 16.8 9.3 -2.6
v 16.7 9.3 -2.5
v 16.7 9.2 -2.5
v 16.8 9.2 -2.5
v 16.8 9.3 -2.5
v 16.8 9.3 -2.6
v 16.8 9.2 -2.6
v 16.7 9.2 -2.6
v 16.7 9.3 -2.6
v 16.9 9.3 -2.6
v 16.9 9.2 -2.6
v 16.9 9.2 -2.5
v 16.9 9.3 -2.5
v 16.9 9.3 -2.5
v 16.9 9.2 -2.5
v 17 9.2 -2.5
v 17 9.3 -2.5
v 17 9.3 -2.6
v 17 9.2 -2.6
v 16.9 9.2 -2.6
v 16.9 9.3 -2.6
v 17 9.3 -2.5
v 17 9.2 -2.5
v 17.1 9.2 -2.5
v 17.1 9.3 -2.5
v 17.1 9.3 -2.6
v 17.1 9.2 -2.6
v 17 9.2 -2.6
v 17 9.3 -2.6
v 17.1 9.3 -2.5
v 17.1 9.2 -2.5
v 17.2 9.2 -2.5
v 17.2 9.3 -2.5
v 17.2 9.3 -2.6
v 17.2 9.2 -2.6
v 17.1 9.2 -2.6
v 17.1 9.3 -2.6
v 17.3 9.3 -2.5
v 17.3 9.2 -2.5
v 17.3 9.2 -2.6
v 17.3 9.3 -2.6
v 17.2 9.3 -2.6
v 17.2 9.3 -2.5
v 17.3 9.3 -2.5
v 17.3 9.3 -2.6
v 17.2 9.3 -2.5
v 17.2 9.2 -2.5
v 17.3 9.2 -2.5
v 17.3 9.3 -2.5
v 17.3 9.3 -2.6
v 17.3 9.2 -2.6
v 17.2 9.2 -2.6
v 17.2 9.3 -2.6
v 17.6 9.3 -2.6
v 17.6 9.2 -2.6
v 17.6 9.2 -2.5
v 17.6 9.3 -2.5
v 17.7 9.3 -2.5
v 17.7 9.2 -2.5
v 17.7 9.2 -2.6
v 17.7 9.3 -2.6
v 17.6 9.3 -2.5
v 17.6 9.2 -2.5
v 17.7 9.2 -2.5
v 17.7 9.3 -2.5
v 17.7 9.3 -2.6
v 17.7 9.2 -2.6
v 17.6 9.2 -2.6
v 17.6 9.3 -2.6
v 16.2 9.2 -2.6
v 16.2 9.1 -2.6
v 16.2 9.1 -2.5
v 16.2 9.2 -2.5
v 16.2 9.2 -2.5
v 16.2 9.1 -2.5
v 16.3 9.1 -2.5
v 16.3 9.2 -2.5
v 16.3 9.2 -2.6
v 16.3 9.1 -2.6
v 16.2 9.1 -2.6
v 16.2 9.2 -2.6
v 16.3 9.2 -2.5
v 16.3 9.1 -2.5
v 16.4 9.1 -2.5
v 16.4 9.2 -2.5
v 16.4 9.2 -2.6
v 16.4 9.1 -2.6
v 16.3 9.1 -2.6
v 16.3 9.2 -2.6
v 16.4 9.2 -2.5
v 16.4 9.1 -2.5
v 16.5 9.1 -2.5
v 16.5 9.2 -2.5
v 16.5 9.2 -2.6
v 16.5 9.1 -2.6
v 16.4 9.1 -2.6
v 16.4 9.2 -2.6
v 16.5 9.2 -2.5
v 16.5 9.1 -2.5
v 16.6 9.1 -2.5
v 16.6 9.2 -2.5
v 16.6 9.2 -2.6
v 16.6 9.1 -2.6
v 16.5 9.1 -2.6
v 16.5 9.2 -2.6
v 16.6 9.2 -2.5
v 16.6 9.1 -2.5
v 16.7 9.1 -2.5
v 16.7 9.2 -2.5
v 16.7 9.2 -2.6
v 16.7 9.1 -2.6
v 16.6 9.1 -2.6
v 16.6 9.2 -2.6
v 16.7 9.2 -2.5
v 16.7 9.1 -2.5
v 16.8 9.1 -2.5
v 16.8 9.2 -2.5
v 16.8 9.2 -2.6
v 16.8 9.1 -2.6
v 16.7 9.1 -2.6
v 16.7 9.2 -2.6
v 16.8 9.2 -2.6
v 16.8 9.2 -2.5
v 16.9 9.2 -2.5
v 16.9 9.2 -2.6
v 16.8 9.2 -2.5
v 16.8 9.1 -2.5
v 16.9 9.1 -2.5
v 16.9 9.2 -2.5
v 16.9 9.2 -2.6
v 16.9 9.1 -2.6
v 16.8 9.1 -2.6
v 16.8 9.2 -2.6
v 16.9 9.2 -2.5
v 16.9 9.1 -2.5
v 17 9.1 -2.5
v 17 9.2 -2.5
v 17 9.2 -2.6
v 17 9.1 -2.6
v 16.9 9.1 -2.6
v 16.9 9.2 -2.6
v 17 9.2 -2.5
v 17 9.1 -2.5
v 17.1 9.1 -2.5
v 17.1 9.2 -2.5
v 17.1 9.2 -2.6
v 17.1 9.1 -2.6
v 17 9.1 -2.6
v 17 9.2 -2.6
v 17.1 9.2 -2.5
v 17.1 9.1 -2.5
v 17.2 9.1 -2.5
v 17.2 9.2 -2.5
v 17.2 9.2 -2.6
v 17.2 9.1 -2.6
v 17.1 9.1 -2.6
v 17.1 9.2 -2.6
v 17.3 9.2 -2.5
v 17.3 9.1 -2.5
v 17.3 9.1 -2.6
v 17.3 9.2 -2.6
v 17.2 9.2 -2.5
v 17.2 9.1 -2.5
v 17.3 9.1 -2.5
v 17.3 9.2 -2.5
v 17.3 9.2 -2.6
v 17.3 9.1 -2.6
v 17.2 9.1 -2.6
v 17.2 9.2 -2.6
v 17.6 9.2 -2.6
v 17.6 9.1 -2.6
v 17.6 9.1 -2.5
v 17.6 9.2 -2.5
v 17.7 9.2 -2.5
v 17.7 9.1 -2.5
v 17.7 9.1 -2.6
v 17.7 9.2 -2.6
v 17.6 9.2 -2.5
v 17.6 9.1 -2.5
v 17.7 9.1 -2.5
v 17.7 9.2 -2.5
v 17.7 9.2 -2.6
v 17.7 9.1 -2.6
v 17.6 9.1 -2.6
v 17.6 9.2 -2.6
v 16.2 9.1 -2.6
v 16.2 9 -2.6
v 16.2 9 -2.5
v 16.2 9.1 -2.5
v 16.2 9.1 -2.5
v 16.2 9 -2.5
v 16.3 9 -2.5
v 16.3 9.1 -2.5
v 16.3 9.1 -2.6
v 16.3 9 -2.6
v 16.2 9 -2.6
v 16.2 9.1 -2.6
v 16.3 9.1 -2.5
v 16.3 9 -2.5
v 16.4 9 -2.5
v 16.4 9.1 -2.5
v 16.4 9.1 -2.6
v 16.4 9 -2.6
v 16.3 9 -2.6
v 16.3 9.1 -2.6
v 16.4 9.1 -2.5
v 16.4 9 -2.5
v 16.5 9 -2.5
v 16.5 9.1 -2.5
v 16.5 9.1 -2.6
v 16.5 9 -2.6
v 16.4 9 -2.6
v 16.4 9.1 -2.6
v 16.5 9.1 -2.5
v 16.5 9 -2.5
v 16.6 9 -2.5
v 16.6 9.1 -2.5
v 16.6 9.1 -2.6
v 16.6 9 -2.6
v 16.5 9 -2.6
v 16.5 9.1 -2.6
v 16.6 9.1 -2.5
v 16.6 9 -2.5
v 16.7 9 -2.5
v 16.7 9.1 -2.5
v 16.7 9.1 -2.6
v 16.7 9 -2.6
v 16.6 9 -2.6
v 16.6 9.1 -2.6
v 16.7 9.1 -2.5
v 16.7 9 -2.5
v 16.8 9 -2.5
v 16.8 9.1 -2.5
v 16.8 9.1 -2.6
v 16.8 9 -2.6
v 16.7 9 -2.6
v 16.7 9.1 -2.6
v 16.8 9.1 -2.5
v 16.8 9 -2.5
v 16.9 9 -2.5
v 16.9 9.1 -2.5
v 16.9 9.1 -2.6
v 16.9 9 -2.6
v 16.8 9 -2.6
v 16.8 9.1 -2.6
v 16.9 9.1 -2.5
v 16.9 9 -2.5
v 17 9 -2.5
v 17 9.1 -2.5
v 17 9.1 -2.6
v 17 9 -2.6
v 16.9 9 -2.6
v 16.9 9.1 -2.6
v 17 9.1 -2.5
v 17 9 -2.5
v 17.1 9 -2.5
v 17.1 9.1 -2.5
v 17.1 9.1 -2.6
v 17.1 9 -2.6
v 17 9 -2.6
v 17 9.1 -2.6
v 17.1 9.1 -2.5
v 17.1 9 -2.5
v 17.2 9 -2.5
v 17.2 9.1 -2.5
v 17.2 9.1 -2.6
v 17.2 9 -2.6
v 17.1 9 -2.6
v 17.1 9.1 -2.6
v 17.3 9.1 -2.5
v 17.3 9 -2.5
v 17.3 9 -2.6
v 17.3 9.1 -2.6
v 17.2 9.1 -2.5
v 17.2 9 -2.5
v 17.3 9 -2.5
v 17.3 9.1 -2.5
v 17.3 9.1 -2.6
v 17.3 9 -2.6
v 17.2 9 -2.6
v 17.2 9.1 -2.6
v 17.6 9.1 -2.6
v 17.6 9 -2.6
v 17.6 9 -2.5
v 17.6 9.1 -2.5
v 17.7 9.1 -2.5
v 17.7 9 -2.5
v 17.7 9 -2.6
v 17.7 9.1 -2.6
v 17.6 9.1 -2.5
v 17.6 9 -2.5
v 17.7 9 -2.5
v 17.7 9.1 -2.5
v 17.7 9.1 -2.6
v 17.7 9 -2.6
v 17.6 9 -2.6
v 17.6 9.1 -2.6
v 16.2 9 -2.6
v 16.2 8.9 -2.6
v 16.2 8.9 -2.5
v 16.2 9 -2.5
v 16.2 8.9 -2.5
v 16.2 8.9 -2.6
v 16.3 8.9 -2.6
v 16.3 8.9 -2.5
v 16.2 9 -2.5
v 16.2 8.9 -2.5
v 16.3 8.9 -2.5
v 16.3 9 -2.5
v 16.3 9 -2.6
v 16.3 8.9 -2.6
v 16.2 8.9 -2.6
v 16.2 9 -2.6
v 16.3 9 -2.5
v 16.3 8.9 -2.5
v 16.4 8.9 -2.5
v 16.4 9 -2.5
v 16.4 9 -2.6
v 16.4 8.9 -2.6
v 16.3 8.9 -2.6
v 16.3 9 -2.6
v 16.4 9 -2.5
v 16.4 8.9 -2.5
v 16.5 8.9 -2.5
v 16.5 9 -2.5
v 16.5 9 -2.6
v 16.5 8.9 -2.6
v 16.4 8.9 -2.6
v 16.4 9 -2.6
v 16.5 9 -2.5
v 16.5 8.9 -2.5
v 16.6 8.9 -2.5
v 16.6 9 -2.5
v 16.6 9 -2.6
v 16.6 8.9 -2.6
v 16.5 8.9 -2.6
v 16.5 9 -2.6
v 16.6 9 -2.5
v 16.6 8.9 -2.5
v 16.7 8.9 -2.5
v 16.7 9 -2.5
v 16.7 9 -2.6
v 16.7 8.9 -2.6
v 16.6 8.9 -2.6
v 16.6 9 -2.6
v 16.7 9 -2.5
v 16.7 8.9 -2.5
v 16.8 8.9 -2.5
v 16.8 9 -2.5
v 16.8 9 -2.6
v 16.8 8.9 -2.6
v 16.7 8.9 -2.6
v 16.7 9 -2.6
v 16.8 9 -2.5
v 16.8 8.9 -2.5
v 16.9 8.9 -2.5
v 16.9 9 -2.5
v 16.9 9 -2.6
v 16.9 8.9 -2.6
v 16.8 8.9 -2.6
v 16.8 9 -2.6
v 16.9 9 -2.5
v 16.9 8.9 -2.5
v 17 8.9 -2.5
v 17 9 -2.5
v 17 9 -2.6
v 17 8.9 -2.6
v 16.9 8.9 -2.6
v 16.9 9 -2.6
v 17 9 -2.5
v 17 8.9 -2.5
v 17.1 8.9 -2.5
v 17.1 9 -2.5
v 17.1 9 -2.6
v 17.1 8.9 -2.6
v 17 8.9 -2.6
v 17 9 -2.6
v 17.1 9 -2.5
v 17.1 8.9 -2.5
v 17.2 8.9 -2.5
v 17.2 9 -2.5
v 17.2 9 -2.6
v 17.2 8.9 -2.6
v 17.1 8.9 -2.6
v 17.1 9 -2.6
v 17.3 9 -2.5
v 17.3 8.9 -2.5
v 17.3 8.9 -2.6
v 17.3 9 -2.6
v 17.2 9 -2.5
v 17.2 8.9 -2.5
v 17.3 8.9 -2.5
v 17.3 9 -2.5
v 17.3 9 -2.6
v 17.3 8.9 -2.6
v 17.2 8.9 -2.6
v 17.2 9 -2.6
v 17.6 9 -2.6
v 17.6 8.9 -2.6
v 17.6 8.9 -2.5
v 17.6 9 -2.5
v 17.7 9 -2.5
v 17.7 8.9 -2.5
v 17.7 8.9 -2.6
v 17.7 9 -2.6
v 17.6 9 -2.5
v 17.6 8.9 -2.5
v 17.7 8.9 -2.5
v 17.7 9 -2.5
v 17.7 9 -2.6
v 17.7 8.9 -2.6
v 17.6 8.9 -2.6
v 17.6 9 -2.6
v 16.3 8.9 -2.6
v 16.3 8.8 -2.6
v 16.3 8.8 -2.5
v 16.3 8.9 -2.5
v 16.3 8.8 -2.5
v 16.3 8.8 -2.6
v 16.4 8.8 -2.6
v 16.4 8.8 -2.5
v 16.3 8.9 -2.5
v 16.3 8.8 -2.5
v 16.4 8.8 -2.5
v 16.4 8.9 -2.5
v 16.4 8.9 -2.6
v 16.4 8.8 -2.6
v 16.3 8.8 -2.6
v 16.3 8.9 -2.6
v 16.4 8.9 -2.5
v 16.4 8.8 -2.5
v 16.5 8.8 -2.5
v 16.5 8.9 -2.5
v 16.5 8.9 -2.6
v 16.5 8.8 -2.6
v 16.4 8.8 -2.6
v 16.4 8.9 -2.6
v 16.5 8.9 -2.5
v 16.5 8.8 -2.5
v 16.6 8.8 -2.5
v 16.6 8.9 -2.5
v 16.6 8.9 -2.6
v 16.6 8.8 -2.6
v 16.5 8.8 -2.6
v 16.5 8.9 -2.6
v 16.6 8.9 -2.5
v 16.6 8.8 -2.5
v 16.7 8.8 -2.5
v 16.7 8.9 -2.5
v 16.7 8.9 -2.6
v 16.7 8.8 -2.6
v 16.6 8.8 -2.6
v 16.6 8.9 -2.6
v 16.7 8.9 -2.5
v 16.7 8.8 -2.5
v 16.8 8.8 -2.5
v 16.8 8.9 -2.5
v 16.8 8.9 -2.6
v 16.8 8.8 -2.6
v 16.7 8.8 -2.6
v 16.7 8.9 -2.6
v 16.8 8.9 -2.5
v 16.8 8.8 -2.5
v 16.9 8.8 -2.5
v 16.9 8.9 -2.5
v 16.9 8.9 -2.6
v 16.9 8.8 -2.6
v 16.8 8.8 -2.6
v 16.8 8.9 -2.6
v 16.9 8.9 -2.5
v 16.9 8.8 -2.5
v 17 8.8 -2.5
v 17 8.9 -2.5
v 17 8.9 -2.6
v 17 8.8 -2.6
v 16.9 8.8 -2.6
v 16.9 8.9 -2.6
v 17 8.9 -2.5
v 17 8.8 -2.5
v 17.1 8.8 -2.5
v 17.1 8.9 -2.5
v 17.1 8.9 -2.6
v 17.1 8.8 -2.6
v 17 8.8 -2.6
v 17 8.9 -2.6
v 17.1 8.9 -2.5
v 17.1 8.8 -2.5
v 17.2 8.8 -2.5
v 17.2 8.9 -2.5
v 17.2 8.9 -2.6
v 17.2 8.8 -2.6
v 17.1 8.8 -2.6
v 17.1 8.9 -2.6
v 17.3 8.9 -2.5
v 17.3 8.8 -2.5
v 17.3 8.8 -2.6
v 17.3 8.9 -2.6
v 17.2 8.9 -2.5
v 17.2 8.8 -2.5
v 17.3 8.8 -2.5
v 17.3 8.9 -2.5
v 17.3 8.9 -2.6
v 17.3 8.8 -2.6
v 17.2 8.8 -2.6
v 17.2 8.9 -2.6
v 17.5 8.9 -2.6
v 17.5 8.8 -2.6
v 17.5 8.8 -2.5
v 17.5 8.9 -2.5
v 17.5 8.9 -2.6
v 17.5 8.9 -2.5
v 17.6 8.9 -2.5
v 17.6 8.9 -2.6
v 17.5 8.9 -2.5
v 17.5 8.8 -2.5
v 17.6 8.8 -2.5
v 17.6 8.9 -2.5
v 17.6 8.9 -2.6
v 17.6 8.8 -2.6
v 17.5 8.8 -2.6
v 17.5 8.9 -2.6
v 17.7 8.9 -2.5
v 17.7 8.8 -2.5
v 17.7 8.8 -2.6
v 17.7 8.9 -2.6
v 17.6 8.9 -2.5
v 17.6 8.8 -2.5
v 17.7 8.8 -2.5
v 17.7 8.9 -2.5
v 17.7 8.9 -2.6
v 17.7 8.8 -2.6
v 17.6 8.8 -2.6
v 17.6 8.9 -2.6
v 16.4 8.8 -2.6
v 16.4 8.7 -2.6
v 16.4 8.7 -2.5
v 16.4 8.8 -2.5
v 16.4 8.7 -2.5
v 16.4 8.7 -2.6
v 16.5 8.7 -2.6
v 16.5 8.7 -2.5
v 16.4 8.8 -2.5
v 16.4 8.7 -2.5
v 16.5 8.7 -2.5
v 16.5 8.8 -2.5
v 16.5 8.8 -2.6
v 16.5 8.7 -2.6
v 16.4 8.7 -2.6
v 16.4 8.8 -2.6
v 16.5 8.7 -2.5
v 16.5 8.7 -2.6
v 16.6 8.7 -2.6
v 16.6 8.7 -2.5
v 16.5 8.8 -2.5
v 16.5 8.7 -2.5
v 16.6 8.7 -2.5
v 16.6 8.8 -2.5
v 16.6 8.8 -2.6
v 16.6 8.7 -2.6
v 16.5 8.7 -2.6
v 16.5 8.8 -2.6
v 16.6 8.8 -2.5
v 16.6 8.7 -2.5
v 16.7 8.7 -2.5
v 16.7 8.8 -2.5
v 16.7 8.8 -2.6
v 16.7 8.7 -2.6
v 16.6 8.7 -2.6
v 16.6 8.8 -2.6
v 16.7 8.8 -2.5
v 16.7 8.7 -2.5
v 16.8 8.7 -2.5
v 16.8 8.8 -2.5
v 16.8 8.8 -2.6
v 16.8 8.7 -2.6
v 16.7 8.7 -2.6
v 16.7 8.8 -2.6
v 16.8 8.8 -2.5
v 16.8 8.7 -2.5
v 16.9 8.7 -2.5
v 16.9 8.8 -2.5
v 16.9 8.8 -2.6
v 16.9 8.7 -2.6
v 16.8 8.7 -2.6
v 16.8 8.8 -2.6
v 16.9 8.8 -2.5
v 16.9 8.7 -2.5
v 17 8.7 -2.5
v 17 8.8 -2.5
v 17 8.8 -2.6
v 17 8.7 -2.6
v 16.9 8.7 -2.6
v 16.9 8.8 -2.6
v 17 8.8 -2.5
v 17 8.7 -2.5
v 17.1 8.7 -2.5
v 17.1 8.8 -2.5
v 17.1 8.8 -2.6
v 17.1 8.7 -2.6
v 17 8.7 -2.6
v 17 8.8 -2.6
v 17.1 8.8 -2.5
v 17.1 8.7 -2.5
v 17.2 8.7 -2.5
v 17.2 8.8 -2.5
v 17.2 8.8 -2.6
v 17.2 8.7 -2.6
v 17.1 8.7 -2.6
v 17.1 8.8 -2.6
v 17.3 8.8 -2.5
v 17.3 8.7 -2.5
v 17.3 8.7 -2.6
v 17.3 8.8 -2.6
v 17.2 8.8 -2.5
v 17.2 8.7 -2.5
v 17.3 8.7 -2.5
v 17.3 8.8 -2.5
v 17.3 8.8 -2.6
v 17.3 8.7 -2.6
v 17.2 8.7 -2.6
v 17.2 8.8 -2.6
v 17.5 8.8 -2.6
v 17.5 8.7 -2.6
v 17.5 8.7 -2.5
v 17.5 8.8 -2.5
v 17.5 8.8 -2.5
v 17.5 8.7 -2.5
v 17.6 8.7 -2.5
v 17.6 8.8 -2.5
v 17.6 8.8 -2.6
v 17.6 8.7 -2.6
v 17.5 8.7 -2.6
v 17.5 8.8 -2.6
v 17.7 8.8 -2.5
v 17.7 8.7 -2.5
v 17.7 8.7 -2.6
v 17.7 8.8 -2.6
v 17.6 8.8 -2.5
v 17.6 8.7 -2.5
v 17.7 8.7 -2.5
v 17.7 8.8 -2.5
v 17.7 8.8 -2.6
v 17.7 8.7 -2.6
v 17.6 8.7 -2.6
v 17.6 8.8 -2.6
v 16.6 8.7 -2.6
v 16.6 8.6 -2.6
v 16.6 8.6 -2.5
v 16.6 8.7 -2.5
v 16.6 8.6 -2.5
v 16.6 8.6 -2.6
v 16.7 8.6 -2.6
v 16.7 8.6 -2.5
v 16.6 8.7 -2.5
v 16.6 8.6 -2.5
v 16.7 8.6 -2.5
v 16.7 8.7 -2.5
v 16.7 8.7 -2.6
v 16.7 8.6 -2.6
v 16.6 8.6 -2.6
v 16.6 8.7 -2.6
v 16.7 8.6 -2.5
v 16.7 8.6 -2.6
v 16.8 8.6 -2.6
v 16.8 8.6 -2.5
v 16.7 8.7 -2.5
v 16.7 8.6 -2.5
v 16.8 8.6 -2.5
v 16.8 8.7 -2.5
v 16.8 8.7 -2.6
v 16.8 8.6 -2.6
v 16.7 8.6 -2.6
v 16.7 8.7 -2.6
v 16.8 8.6 -2.5
v 16.8 8.6 -2.6
v 16.9 8.6 -2.6
v 16.9 8.6 -2.5
v 16.8 8.7 -2.5
v 16.8 8.6 -2.5
v 16.9 8.6 -2.5
v 16.9 8.7 -2.5
v 16.9 8.7 -2.6
v 16.9 8.6 -2.6
v 16.8 8.6 -2.6
v 16.8 8.7 -2.6
v 16.9 8.7 -2.5
v 16.9 8.6 -2.5
v 17 8.6 -2.5
v 17 8.7 -2.5
v 17 8.7 -2.6
v 17 8.6 -2.6
v 16.9 8.6 -2.6
v 16.9 8.7 -2.6
v 17 8.7 -2.5
v 17 8.6 -2.5
v 17.1 8.6 -2.5
v 17.1 8.7 -2.5
v 17.1 8.7 -2.6
v 17.1 8.6 -2.6
v 17 8.6 -2.6
v 17 8.7 -2.6
v 17.1 8.7 -2.5
v 17.1 8.6 -2.5
v 17.2 8.6 -2.5
v 17.2 8.7 -2.5
v 17.2 8.7 -2.6
v 17.2 8.6 -2.6
v 17.1 8.6 -2.6
v 17.1 8.7 -2.6
v 17.2 8.7 -2.5
v 17.2 8.6 -2.5
v 17.3 8.6 -2.5
v 17.3 8.7 -2.5
v 17.3 8.7 -2.6
v 17.3 8.6 -2.6
v 17.2 8.6 -2.6
v 17.2 8.7 -2.6
v 17.4 8.7 -2.5
v 17.4 8.6 -2.5
v 17.4 8.6 -2.6
v 17.4 8.7 -2.6
v 17.3 8.7 -2.6
v 17.3 8.7 -2.5
v 17.4 8.7 -2.5
v 17.4 8.7 -2.6
v 17.3 8.7 -2.5
v 17.3 8.6 -2.5
v 17.4 8.6 -2.5
v 17.4 8.7 -2.5
v 17.4 8.7 -2.6
v 17.4 8.6 -2.6
v 17.3 8.6 -2.6
v 17.3 8.7 -2.6
v 17.5 8.7 -2.6
v 17.5 8.6 -2.6
v 17.5 8.6 -2.5
v 17.5 8.7 -2.5
v 17.5 8.7 -2.5
v 17.5 8.6 -2.5
v 17.6 8.6 -2.5
v 17.6 8.7 -2.5
v 17.6 8.7 -2.6
v 17.6 8.6 -2.6
v 17.5 8.6 -2.6
v 17.5 8.7 -2.6
v 17.7 8.7 -2.5
v 17.7 8.6 -2.5
v 17.7 8.6 -2.6
v 17.7 8.7 -2.6
v 17.6 8.7 -2.5
v 17.6 8.6 -2.5
v 17.7 8.6 -2.5
v 17.7 8.7 -2.5
v 17.7 8.7 -2.6
v 17.7 8.6 -2.6
v 17.6 8.6 -2.6
v 17.6 8.7 -2.6
v 16.9 8.6 -2.6
v 16.9 8.5 -2.6
v 16.9 8.5 -2.5
v 16.9 8.6 -2.5
v 16.9 8.5 -2.5
v 16.9 8.5 -2.6
v 17 8.5 -2.6
v 17 8.5 -2.5
v 16.9 8.6 -2.5
v 16.9 8.5 -2.5
v 17 8.5 -2.5
v 17 8.6 -2.5
v 17 8.6 -2.6
v 17 8.5 -2.6
v 16.9 8.5 -2.6
v 16.9 8.6 -2.6
v 17 8.5 -2.5
v 17 8.5 -2.6
v 17.1 8.5 -2.6
v 17.1 8.5 -2.5
v 17 8.6 -2.5
v 17 8.5 -2.5
v 17.1 8.5 -2.5
v 17.1 8.6 -2.5
v 17.1 8.6 -2.6
v 17.1 8.5 -2.6
v 17 8.5 -2.6
v 17 8.6 -2.6
v 17.1 8.5 -2.5
v 17.1 8.5 -2.6
v 17.2 8.5 -2.6
v 17.2 8.5 -2.5
v 17.1 8.6 -2.5
v 17.1 8.5 -2.5
v 17.2 8.5 -2.5
v 17.2 8.6 -2.5
v 17.2 8.6 -2.6
v 17.2 8.5 -2.6
v 17.1 8.5 -2.6
v 17.1 8.6 -2.6
v 17.2 8.6 -2.5
v 17.2 8.5 -2.5
v 17.3 8.5 -2.5
v 17.3 8.6 -2.5
v 17.3 8.6 -2.6
v 17.3 8.5 -2.6
v 17.2 8.5 -2.6
v 17.2 8.6 -2.6
v 17.4 8.6 -2.5
v 17.4 8.5 -2.5
v 17.4 8.5 -2.6
v 17.4 8.6 -2.6
v 17.3 8.6 -2.5
v 17.3 8.5 -2.5
v 17.4 8.5 -2.5
v 17.4 8.6 -2.5
v 17.4 8.6 -2.6
v 17.4 8.5 -2.6
v 17.3 8.5 -2.6
v 17.3 8.6 -2.6
v 17.5 8.6 -2.6
v 17.5 8.5 -2.6
v 17.5 8.5 -2.5
v 17.5 8.6 -2.5
v 17.5 8.6 -2.5
v 17.5 8.5 -2.5
v 17.6 8.5 -2.5
v 17.6 8.6 -2.5
v 17.6 8.6 -2.6
v 17.6 8.5 -2.6
v 17.5 8.5 -2.6
v 17.5 8.6 -2.6
v 17.7 8.6 -2.5
v 17.7 8.5 -2.5
v 17.7 8.5 -2.6
v 17.7 8.6 -2.6
v 17.6 8.6 -2.5
v 17.6 8.5 -2.5
v 17.7 8.5 -2.5
v 17.7 8.6 -2.5
v 17.7 8.6 -2.6
v 17.7 8.5 -2.6
v 17.6 8.5 -2.6
v 17.6 8.6 -2.6
v 17.2 8.5 -2.6
v 17.2 8.4 -2.6
v 17.2 8.4 -2.5
v 17.2 8.5 -2.5
v 17.2 8.4 -2.5
v 17.2 8.4 -2.6
v 17.3 8.4 -2.6
v 17.3 8.4 -2.5
v 17.2 8.5 -2.5
v 17.2 8.4 -2.5
v 17.3 8.4 -2.5
v 17.3 8.5 -2.5
v 17.3 8.5 -2.6
v 17.3 8.4 -2.6
v 17.2 8.4 -2.6
v 17.2 8.5 -2.6
v 17.4 8.5 -2.5
v 17.4 8.4 -2.5
v 17.4 8.4 -2.6
v 17.4 8.5 -2.6
v 17.3 8.4 -2.5
v 17.3 8.4 -2.6
v 17.4 8.4 -2.6
v 17.4 8.4 -2.5
v 17.3 8.5 -2.5
v 17.3 8.4 -2.5
v 17.4 8.4 -2.5
v 17.4 8.5 -2.5
v 17.4 8.5 -2.6
v 17.4 8.4 -2.6
v 17.3 8.4 -2.6
v 17.3 8.5 -2.6
v 17.5 8.5 -2.6
v 17.5 8.4 -2.6
v 17.5 8.4 -2.5
v 17.5 8.5 -2.5
v 17.5 8.5 -2.5
v 17.5 8.4 -2.5
v 17.6 8.4 -2.5
v 17.6 8.5 -2.5
v 17.6 8.5 -2.6
v 17.6 8.4 -2.6
v 17.5 8.4 -2.6
v 17.5 8.5 -2.6
v 17.7 8.5 -2.5
v 17.7 8.4 -2.5
v 17.7 8.4 -2.6
v 17.7 8.5 -2.6
v 17.6 8.5 -2.5
v 17.6 8.4 -2.5
v 17.7 8.4 -2.5
v 17.7 8.5 -2.5
v 17.7 8.5 -2.6
v 17.7 8.4 -2.6
v 17.6 8.4 -2.6
v 17.6 8.5 -2.6
v 17.5 8.4 -2.6
v 17.5 8.3 -2.6
v 17.5 8.3 -2.5
v 17.5 8.4 -2.5
v 17.5 8.3 -2.5
v 17.5 8.3 -2.6
v 17.6 8.3 -2.6
v 17.6 8.3 -2.5
v 17.5 8.4 -2.5
v 17.5 8.3 -2.5
v 17.6 8.3 -2.5
v 17.6 8.4 -2.5
v 17.6 8.4 -2.6
v 17.6 8.3 -2.6
v 17.5 8.3 -2.6
v 17.5 8.4 -2.6
v 17.7 8.4 -2.5
v 17.7 8.3 -2.5
v 17.7 8.3 -2.6
v 17.7 8.4 -2.6
v 17.6 8.3 -2.5
v 17.6 8.3 -2.6
v 17.7 8.3 -2.6
v 17.7 8.3 -2.5
v 17.6 8.4 -2.5
v 17.6 8.3 -2.5
v 17.7 8.3 -2.5
v 17.7 8.4 -2.5
v 17.7 8.4 -2.6
v 17.7 8.3 -2.6
v 17.6 8.3 -2.6
v 17.6 8.4 -2.6
v 17.7 8.3 -2.6
v 17.7 8.2 -2.6
v 17.7 8.2 -2.5
v 17.7 8.3 -2.5
v 17.8 8.3 -2.5
v 17.8 8.2 -2.5
v 17.8 8.2 -2.6
v 17.8 8.3 -2.6
v 17.7 8.3 -2.6
v 17.7 8.3 -2.5
v 17.8 8.3 -2.5
v 17.8 8.3 -2.6
v 17.7 8.2 -2.5
v 17.7 8.2 -2.6
v 17.8 8.2 -2.6
v 17.8 8.2 -2.5
v 17.7 8.3 -2.5
v 17.7 8.2 -2.5
v 17.8 8.2 -2.5
v 17.8 8.3 -2.5
v 17.8 8.3 -2.6
v 17.8 8.2 -2.6
v 17.7 8.2 -2.6
v 17.7 8.3 -2.6

# faces
f 1/1/1 2/1/1 3/1/1 4/1/1
f 5/1/2 6/1/2 7/1/2 8/1/2
f 9/1/3 10/1/3 11/1/3 12/1/3
f 13/1/5 14/1/5 15/1/5 16/1/5
f 17/1/6 18/1/6 19/1/6 20/1/6
f 21/1/1 22/1/1 23/1/1 24/1/1
f 25/1/2 26/1/2 27/1/2 28/1/2
f 29/1/5 30/1/5 31/1/5 32/1/5
f 33/1/6 34/1/6 35/1/6 36/1/6
f 37/1/1 38/1/1 39/1/1 40/1/1
f 41/1/2 42/1/2 43/1/2 44/1/2
f 45/1/5 46/1/5 47/1/5 48/1/5
f 49/1/6 50/1/6 51/1/6 52/1/6
f 53/1/1 54/1/1 55/1/1 56/1/1
f 57/1/2 58/1/2 59/1/2 60/1/2
f 61/1/5 62/1/5 63/1/5 64/1/5
f 65/1/6 66/1/6 67/1/6 68/1/6
f 69/1/1 70/1/1 71/1/1 72/1/1
f 73/1/2 74/1/2 75/1/2 76/1/2
f 77/1/5 78/1/5 79/1/5 80/1/5
f 81/1/6 82/1/6 83/1/6 84/1/6
f 85/1/1 86/1/1 87/1/1 88/1/1
f 89/1/2 90/1/2 91/1/2 92/1/2
f 93/1/5 94/1/5 95/1/5 96/1/5
f 97/1/6 98/1/6 99/1/6 100/1/6
f 101/1/1 102/1/1 103/1/1 104/1/1
f 105/1/2 106/1/2 107/1/2 108/1/2
f 109/1/5 110/1/5 111/1/5 112/1/5
f 113/1/6 114/1/6 115/1/6 116/1/6
f 117/1/1 118/1/1 119/1/1 120/1/1
f 121/1/3 122/1/3 123/1/3 124/1/3
f 125/1/5 126/1/5 127/1/5 128/1/5
f 129/1/6 130/1/6 131/1/6 132/1/6
f 133/1/2 134/1/2 135/1/2 136/1/2
f 137/1/5 138/1/5 139/1/5 140/1/5
f 141/1/6 142/1/6 143/1/6 144/1/6
f 145/1/1 146/1/1 147/1/1 148/1/1
f 149/1/5 150/1/5 151/1/5 152/1/5
f 153/1/6 154/1/6 155/1/6 156/1/6
f 157/1/2 158/1/2 159/1/2 160/1/2
f 161/1/5 162/1/5 163/1/5 164/1/5
f 165/1/6 166/1/6 167/1/6 168/1/6
f 169/1/1 170/1/1 171/1/1 172/1/1
f 173/1/2 174/1/2 175/1/2 176/1/2
f 177/1/3 178/1/3 179/1/3 180/1/3
f 181/1/5 182/1/5 183/1/5 184/1/5
f 185/1/6 186/1/6 187/1/6 188/1/6
f 189/1/1 190/1/1 191/1/1 192/1/1
f 193/1/5 194/1/5 195/1/5 196/1/5
f 197/1/6 198/1/6 199/1/6 200/1/6
f 201/1/5 202/1/5 203/1/5 204/1/5
f 205/1/6 206/1/6 207/1/6 208/1/6
f 209/1/2 210/1/2 211/1/2 212/1/2
f 213/1/3 214/1/3 215/1/3 216/1/3
f 217/1/5 218/1/5 219/1/5 220/1/5
f 221/1/6 222/1/6 223/1/6 224/1/6
f 225/1/1 226/1/1 227/1/1 228/1/1
f 229/1/2 230/1/2 231/1/2 232/1/2
f 233/1/3 234/1/3 235/1/3 236/1/3
f 237/1/5 238/1/5 239/1/5 240/1/5
f 241/1/6 242/1/6 243/1/6 244/1/6
f 245/1/1 246/1/1 247/1/1 248/1/1
f 249/1/2 250/1/2 251/1/2 252/1/2
f 253/1/5 254/1/5 255/1/5 256/1/5
f 257/1/6 258/1/6 259/1/6 260/1/6
f 261/1/1 262/1/1 263/1/1 264/1/1
f 265/1/5 266/1/5 267/1/5 268/1/5
f 269/1/6 270/1/6 271/1/6 272/1/6
f 273/1/5 274/1/5 275/1/5 276/1/5
f 277/1/6 278/1/6 279/1/6 280/1/6
f 281/1/2 282/1/2 283/1/2 284/1/2
f 285/1/5 286/1/5 287/1/5 288/1/5
f 289/1/6 290/1/6 291/1/6 292/1/6
f 293/1/1 294/1/1 295/1/1 296/1/1
f 297/1/2 298/1/2 299/1/2 300/1/2
f 301/1/5 302/1/5 303/1/5 304/1/5
f 305/1/6 306/1/6 307/1/6 308/1/6
f 309/1/1 310/1/1 311/1/1 312/1/1
f 313/1/2 314/1/2 315/1/2 316/1/2
f 317/1/5 318/1/5 319/1/5 320/1/5
f 321/1/6 322/1/6 323/1/6 324/1/6
f 325/1/1 326/1/1 327/1/1 328/1/1
f 329/1/5 330/1/5 331/1/5 332/1/5
f 333/1/6 334/1/6 335/1/6 336/1/6
f 337/1/5 338/1/5 339/1/5 340/1/5
f 341/1/6 342/1/6 343/1/6 344/1/6
f 345/1/2 346/1/2 347/1/2 348/1/2
f 349/1/5 350/1/5 351/1/5 352/1/5
f 353/1/6 354/1/6 355/1/6 356/1/6
f 357/1/1 358/1/1 359/1/1 360/1/1
f 361/1/2 362/1/2 363/1/2 364/1/2
f 365/1/5 366/1/5 367/1/5 368/1/5
f 369/1/6 370/1/6 371/1/6 372/1/6
f 373/1/1 374/1/1 375/1/1 376/1/1
f 377/1/2 378/1/2 379/1/2 380/1/2
f 381/1/5 382/1/5 383/1/5 384/1/5
f 385/1/6 386/1/6 387/1/6 388/1/6
f 389/1/1 390/1/1 391/1/1 392/1/1
f 393/1/5 394/1/5 395/1/5 396/1/5
f 397/1/6 398/1/6 399/1/6 400/1/6
f 401/1/5 402/1/5 403/1/5 404/1/5
f 405/1/6 406/1/6 407/1/6 408/1/6
f 409/1/2 410/1/2 411/1/2 412/1/2
f 413/1/5 414/1/5 415/1/5 416/1/5
f 417/1/6 418/1/6 419/1/6 420/1/6
f 421/1/1 422/1/1 423/1/1 424/1/1
f 425/1/2 426/1/2 427/1/2 428/1/2
f 429/1/5 430/1/5 431/1/5 432/1/5
f 433/1/6 434/1/6 435/1/6 436/1/6
f 437/1/1 438/1/1 439/1/1 440/1/1
f 441/1/5 442/1/5 443/1/5 444/1/5
f 445/1/6 446/1/6 447/1/6 448/1/6
f 449/1/3 450/1/3 451/1/3 452/1/3
f 453/1/5 454/1/5 455/1/5 456/1/5
f 457/1/6 458/1/6 459/1/6 460/1/6
f 461/1/5 462/1/5 463/1/5 464/1/5
f 465/1/6 466/1/6 467/1/6 468/1/6
f 469/1/5 470/1/5 471/1/5 472/1/5
f 473/1/6 474/1/6 475/1/6 476/1/6
f 477/1/2 478/1/2 479/1/2 480/1/2
f 481/1/5 482/1/5 483/1/5 484/1/5
f 485/1/6 486/1/6 487/1/6 488/1/6
f 489/1/1 490/1/1 491/1/1 492/1/1
f 493/1/5 494/1/5 495/1/5 496/1/5
f 497/1/6 498/1/6 499/1/6 500/1/6
f 501/1/2 502/1/2 503/1/2 504/1/2
f 505/1/3 506/1/3 507/1/3 508/1/3
f 509/1/5 510/1/5 511/1/5 512/1/5
f 513/1/6 514/1/6 515/1/6 516/1/6
f 517/1/1 518/1/1 519/1/1 520/1/1
f 521/1/5 522/1/5 523/1/5 524/1/5
f 525/1/6 526/1/6 527/1/6 528/1/6
f 529/1/5 530/1/5 531/1/5 532/1/5
f 533/1/6 534/1/6 535/1/6 536/1/6
f 537/1/5 538/1/5 539/1/5 540/1/5
f 541/1/6 542/1/6 543/1/6 544/1/6
f 545/1/5 546/1/5 547/1/5 548/1/5
f 549/1/6 550/1/6 551/1/6 552/1/6
f 553/1/2 554/1/2 555/1/2 556/1/2
f 557/1/5 558/1/5 559/1/5 560/1/5
f 561/1/6 562/1/6 563/1/6 564/1/6
f 565/1/1 566/1/1 567/1/1 568/1/1
f 569/1/5 570/1/5 571/1/5 572/1/5
f 573/1/6 574/1/6 575/1/6 576/1/6
f 577/1/2 578/1/2 579/1/2 580/1/2
f 581/1/5 582/1/5 583/1/5 584/1/5
f 585/1/6 586/1/6 587/1/6 588/1/6
f 589/1/1 590/1/1 591/1/1 592/1/1
f 593/1/5 594/1/5 595/1/5 596/1/5
f 597/1/6 598/1/6 599/1/6 600/1/6
f 601/1/5 602/1/5 603/1/5 604/1/5
f 605/1/6 606/1/6 607/1/6 608/1/6
f 609/1/5 610/1/5 611/1/5 612/1/5
f 613/1/6 614/1/6 615/1/6 616/1/6
f 617/1/5 618/1/5 619/1/5 620/1/5
f 621/1/6 622/1/6 623/1/6 624/1/6
f 625/1/2 626/1/2 627/1/2 628/1/2
f 629/1/5 630/1/5 631/1/5 632/1/5
f 633/1/6 634/1/6 635/1/6 636/1/6
f 637/1/1 638/1/1 639/1/1 640/1/1
f 641/1/3 642/1/3 643/1/3 644/1/3
f 645/1/5 646/1/5 647/1/5 648/1/5
f 649/1/6 650/1/6 651/1/6 652/1/6
f 653/1/5 654/1/5 655/1/5 656/1/5
f 657/1/6 658/1/6 659/1/6 660/1/6
f 661/1/2 662/1/2 663/1/2 664/1/2
f 665/1/5 666/1/5 667/1/5 668/1/5
f 669/1/6 670/1/6 671/1/6 672/1/6
f 673/1/1 674/1/1 675/1/1 676/1/1
f 677/1/5 678/1/5 679/1/5 680/1/5
f 681/1/6 682/1/6 683/1/6 684/1/6
f 685/1/5 686/1/5 687/1/5 688/1/5
f 689/1/6 690/1/6 691/1/6 692/1/6
f 693/1/5 694/1/5 695/1/5 696/1/5
f 697/1/6 698/1/6 699/1/6 700/1/6
f 701/1/5 702/1/5 703/1/5 704/1/5
f 705/1/6 706/1/6 707/1/6 708/1/6
f 709/1/2 710/1/2 711/1/2 712/1/2
f 713/1/5 714/1/5 715/1/5 716/1/5
f 717/1/6 718/1/6 719/1/6 720/1/6
f 721/1/1 722/1/1 723/1/1 724/1/1
f 725/1/5 726/1/5 727/1/5 728/1/5
f 729/1/6 730/1/6 731/1/6 732/1/6
f 733/1/5 734/1/5 735/1/5 736/1/5
f 737/1/6 738/1/6 739/1/6 740/1/6
f 741/1/2 742/1/2 743/1/2 744/1/2
f 745/1/5 746/1/5 747/1/5 748/1/5
f 749/1/6 750/1/6 751/1/6 752/1/6
f 753/1/1 754/1/1 755/1/1 756/1/1
f 757/1/5 758/1/5 759/1/5 760/1/5
f 761/1/6 762/1/6 763/1/6 764/1/6
f 765/1/5 766/1/5 767/1/5 768/1/5
f 769/1/6 770/1/6 771/1/6 772/1/6
f 773/1/5 774/1/5 775/1/5 776/1/5
f 777/1/6 778/1/6 779/1/6 780/1/6
f 781/1/5 782/1/5 783/1/5 784/1/5
f 785/1/6 786/1/6 787/1/6 788/1/6
f 789/1/5 790/1/5 791/1/5 792/1/5
f 793/1/6 794/1/6 795/1/6 796/1/6
f 797/1/2 798/1/2 799/1/2 800/1/2
f 801/1/3 802/1/3 803/1/3 804/1/3
f 805/1/5 806/1/5 807/1/5 808/1/5
f 809/1/6 810/1/6 811/1/6 812/1/6
f 813/1/1 814/1/1 815/1/1 816/1/1
f 817/1/5 818/1/5 819/1/5 820/1/5
f 821/1/6 822/1/6 823/1/6 824/1/6
f 825/1/5 826/1/5 827/1/5 828/1/5
f 829/1/6 830/1/6 831/1/6 832/1/6
f 833/1/2 834/1/2 835/1/2 836/1/2
f 837/1/5 838/1/5 839/1/5 840/1/5
f 841/1/6 842/1/6 843/1/6 844/1/6
f 845/1/1 846/1/1 847/1/1 848/1/1
f 849/1/2 850/1/2 851/1/2 852/1/2
f 853/1/3 854/1/3 855/1/3 856/1/3
f 857/1/5 858/1/5 859/1/5 860/1/5
f 861/1/6 862/1/6 863/1/6 864/1/6
f 865/1/1 866/1/1 867/1/1 868/1/1
f 869/1/5 870/1/5 871/1/5 872/1/5
f 873/1/6 874/1/6 875/1/6 876/1/6
f 877/1/5 878/1/5 879/1/5 880/1/5
f 881/1/6 882/1/6 883/1/6 884/1/6
f 885/1/5 886/1/5 887/1/5 888/1/5
f 889/1/6 890/1/6 891/1/6 892/1/6
f 893/1/5 894/1/5 895/1/5 896/1/5
f 897/1/6 898/1/6 899/1/6 900/1/6
f 901/1/5 902/1/5 903/1/5 904/1/5
f 905/1/6 906/1/6 907/1/6 908/1/6
f 909/1/2 910/1/2 911/1/2 912/1/2
f 913/1/5 914/1/5 915/1/5 916/1/5
f 917/1/6 918/1/6 919/1/6 920/1/6
f 921/1/1 922/1/1 923/1/1 924/1/1
f 925/1/5 926/1/5 927/1/5 928/1/5
f 929/1/6 930/1/6 931/1/6 932/1/6
f 933/1/5 934/1/5 935/1/5 936/1/5
f 937/1/6 938/1/6 939/1/6 940/1/6
f 941/1/5 942/1/5 943/1/5 944/1/5
f 945/1/6 946/1/6 947/1/6 948/1/6
f 949/1/2 950/1/2 951/1/2 952/1/2
f 953/1/3 954/1/3 955/1/3 956/1/3
f 957/1/5 958/1/5 959/1/5 960/1/5
f 961/1/6 962/1/6 963/1/6 964/1/6
f 965/1/1 966/1/1 967/1/1 968/1/1
f 969/1/2 970/1/2 971/1/2 972/1/2
f 973/1/5 974/1/5 975/1/5 976/1/5
f 977/1/6 978/1/6 979/1/6 980/1/6
f 981/1/1 982/1/1 983/1/1 984/1/1
f 985/1/5 986/1/5 987/1/5 988/1/5
f 989/1/6 990/1/6 991/1/6 992/1/6
f 993/1/5 994/1/5 995/1/5 996/1/5
f 997/1/6 998/1/6 999/1/6 1000/1/6
f 1001/1/5 1002/1/5 1003/1/5 1004/1/5
f 1005/1/6 1006/1/6 1007/1/6 1008/1/6
f 1009/1/5 1010/1/5 1011/1/5 1012/1/5
f 1013/1/6 1014/1/6 1015/1/6 1016/1/6
f 1017/1/5 1018/1/5 1019/1/5 1020/1/5
f 1021/1/6 1022/1/6 1023/1/6 1024/1/6
f 1025/1/5 1026/1/5 1027/1/5 1028/1/5
f 1029/1/6 1030/1/6 1031/1/6 1032/1/6
f 1033/1/3 1034/1/3 1035/1/3 1036/1/3
f 1037/1/5 1038/1/5 1039/1/5 1040/1/5
f 1041/1/6 1042/1/6 1043/1/6 1044/1/6
f 1045/1/5 1046/1/5 1047/1/5 1048/1/5
f 1049/1/6 1050/1/6 1051/1/6 1052/1/6
f 1053/1/5 1054/1/5 1055/1/5 1056/1/5
f 1057/1/6 1058/1/6 1059/1/6 1060/1/6
f 1061/1/5 1062/1/5 1063/1/5 1064/1/5
f 1065/1/6 1066/1/6 1067/1/6 1068/1/6
f 1069/1/2 1070/1/2 1071/1/2 1072/1/2
f 1073/1/5 1074/1/5 1075/1/5 1076/1/5
f 1077/1/6 1078/1/6 1079/1/6 1080/1/6
f 1081/1/1 1082/1/1 1083/1/1 1084/1/1
f 1085/1/2 1086/1/2 1087/1/2 1088/1/2
f 1089/1/5 1090/1/5 1091/1/5 1092/1/5
f 1093/1/6 1094/1/6 1095/1/6 1096/1/6
f 1097/1/1 1098/1/1 1099/1/1 1100/1/1
f 1101/1/5 1102/1/5 1103/1/5 1104/1/5
f 1105/1/6 1106/1/6 1107/1/6 1108/1/6
f 1109/1/5 1110/1/5 1111/1/5 1112/1/5
f 1113/1/6 1114/1/6 1115/1/6 1116/1/6
f 1117/1/5 1118/1/5 1119/1/5 1120/1/5
f 1121/1/6 1122/1/6 1123/1/6 1124/1/6
f 1125/1/5 1126/1/5 1127/1/5 1128/1/5
f 1129/1/6 1130/1/6 1131/1/6 1132/1/6
f 1133/1/5 1134/1/5 1135/1/5 1136/1/5
f 1137/1/6 1138/1/6 1139/1/6 1140/1/6
f 1141/1/5 1142/1/5 1143/1/5 1144/1/5
f 1145/1/6 1146/1/6 1147/1/6 1148/1/6
f 1149/1/5 1150/1/5 1151/1/5 1152/1/5
f 1153/1/6 1154/1/6 1155/1/6 1156/1/6
f 1157/1/5 1158/1/5 1159/1/5 1160/1/5
f 1161/1/6 1162/1/6 1163/1/6 1164/1/6
f 1165/1/5 1166/1/5 1167/1/5 1168/1/5
f 1169/1/6 1170/1/6 1171/1/6 1172/1/6
f 1173/1/5 1174/1/5 1175/1/5 1176/1/5
f 1177/1/6 1178/1/6 1179/1/6 1180/1/6
f 1181/1/2 1182/1/2 1183/1/2 1184/1/2
f 1185/1/5 1186/1/5 1187/1/5 1188/1/5
f 1189/1/6 1190/1/6 1191/1/6 1192/1/6
f 1193/1/1 1194/1/1 1195/1/1 1196/1/1
f 1197/1/2 1198/1/2 1199/1/2 1200/1/2
f 1201/1/5 1202/1/5 1203/1/5 1204/1/5
f 1205/1/6 1206/1/6 1207/1/6 1208/1/6
f 1209/1/1 1210/1/1 1211/1/1 1212/1/1
f 1213/1/4 1214/1/4 1215/1/4 1216/1/4
f 1217/1/5 1218/1/5 1219/1/5 1220/1/5
f 1221/1/6 1222/1/6 1223/1/6 1224/1/6
f 1225/1/5 1226/1/5 1227/1/5 1228/1/5
f 1229/1/6 1230/1/6 1231/1/6 1232/1/6
f 1233/1/5 1234/1/5 1235/1/5 1236/1/5
f 1237/1/6 1238/1/6 1239/1/6 1240/1/6
f 1241/1/5 1242/1/5 1243/1/5 1244/1/5
f 1245/1/6 1246/1/6 1247/1/6 1248/1/6
f 1249/1/5 1250/1/5 1251/1/5 1252/1/5
f 1253/1/6 1254/1/6 1255/1/6 1256/1/6
f 1257/1/5 1258/1/5 1259/1/5 1260/1/5
f 1261/1/6 1262/1/6 1263/1/6 1264/1/6
f 1265/1/5 1266/1/5 1267/1/5 1268/1/5
f 1269/1/6 1270/1/6 1271/1/6 1272/1/6
f 1273/1/5 1274/1/5 1275/1/5 1276/1/5
f 1277/1/6 1278/1/6 1279/1/6 1280/1/6
f 1281/1/5 1282/1/5 1283/1/5 1284/1/5
f 1285/1/6 1286/1/6 1287/1/6 1288/1/6
f 1289/1/5 1290/1/5 1291/1/5 1292/1/5
f 1293/1/6 1294/1/6 1295/1/6 1296/1/6
f 1297/1/2 1298/1/2 1299/1/2 1300/1/2
f 1301/1/5 1302/1/5 1303/1/5 1304/1/5
f 1305/1/6 1306/1/6 1307/1/6 1308/1/6
f 1309/1/1 1310/1/1 1311/1/1 1312/1/1
f 1313/1/2 1314/1/2 1315/1/2 1316/1/2
f 1317/1/5 1318/1/5 1319/1/5 1320/1/5
f 1321/1/6 1322/1/6 1323/1/6 1324/1/6
f 1325/1/1 1326/1/1 1327/1/1 1328/1/1
f 1329/1/4 1330/1/4 1331/1/4 1332/1/4
f 1333/1/5 1334/1/5 1335/1/5 1336/1/5
f 1337/1/6 1338/1/6 1339/1/6 1340/1/6
f 1341/1/5 1342/1/5 1343/1/5 1344/1/5
f 1345/1/6 1346/1/6 1347/1/6 1348/1/6
f 1349/1/5 1350/1/5 1351/1/5 1352/1/5
f 1353/1/6 1354/1/6 1355/1/6 1356/1/6
f 1357/1/5 1358/1/5 1359/1/5 1360/1/5
f 1361/1/6 1362/1/6 1363/1/6 1364/1/6
f 1365/1/5 1366/1/5 1367/1/5 1368/1/5
f 1369/1/6 1370/1/6 1371/1/6 1372/1/6
f 1373/1/5 1374/1/5 1375/1/5 1376/1/5
f 1377/1/6 1378/1/6 1379/1/6 1380/1/6
f 1381/1/5 1382/1/5 1383/1/5 1384/1/5
f 1385/1/6 1386/1/6 1387/1/6 1388/1/6
f 1389/1/5 1390/1/5 1391/1/5 1392/1/5
f 1393/1/6 1394/1/6 1395/1/6 1396/1/6
f 1397/1/5 1398/1/5 1399/1/5 1400/1/5
f 1401/1/6 1402/1/6 1403/1/6 1404/1/6
f 1405/1/2 1406/1/2 1407/1/2 1408/1/2
f 1409/1/5 1410/1/5 1411/1/5 1412/1/5
f 1413/1/6 1414/1/6 1415/1/6 1416/1/6
f 1417/1/1 1418/1/1 1419/1/1 1420/1/1
f 1421/1/3 1422/1/3 1423/1/3 1424/1/3
f 1425/1/5 1426/1/5 1427/1/5 1428/1/5
f 1429/1/6 1430/1/6 1431/1/6 1432/1/6
f 1433/1/2 1434/1/2 1435/1/2 1436/1/2
f 1437/1/5 1438/1/5 1439/1/5 1440/1/5
f 1441/1/6 1442/1/6 1443/1/6 1444/1/6
f 1445/1/1 1446/1/1 1447/1/1 1448/1/1
f 1449/1/4 1450/1/4 1451/1/4 1452/1/4
f 1453/1/5 1454/1/5 1455/1/5 1456/1/5
f 1457/1/6 1458/1/6 1459/1/6 1460/1/6
f 1461/1/4 1462/1/4 1463/1/4 1464/1/4
f 1465/1/5 1466/1/5 1467/1/5 1468/1/5
f 1469/1/6 1470/1/6 1471/1/6 1472/1/6
f 1473/1/5 1474/1/5 1475/1/5 1476/1/5
f 1477/1/6 1478/1/6 1479/1/6 1480/1/6
f 1481/1/5 1482/1/5 1483/1/5 1484/1/5
f 1485/1/6 1486/1/6 1487/1/6 1488/1/6
f 1489/1/5 1490/1/5 1491/1/5 1492/1/5
f 1493/1/6 1494/1/6 1495/1/6 1496/1/6
f 1497/1/5 1498/1/5 1499/1/5 1500/1/5
f 1501/1/6 1502/1/6 1503/1/6 1504/1/6
f 1505/1/5 1506/1/5 1507/1/5 1508/1/5
f 1509/1/6 1510/1/6 1511/1/6 1512/1/6
f 1513/1/5 1514/1/5 1515/1/5 1516/1/5
f 1517/1/6 1518/1/6 1519/1/6 1520/1/6
f 1521/1/2 1522/1/2 1523/1/2 1524/1/2
f 1525/1/5 1526/1/5 1527/1/5 1528/1/5
f 1529/1/6 1530/1/6 1531/1/6 1532/1/6
f 1533/1/1 1534/1/1 1535/1/1 1536/1/1
f 1537/1/5 1538/1/5 1539/1/5 1540/1/5
f 1541/1/6 1542/1/6 1543/1/6 1544/1/6
f 1545/1/2 1546/1/2 1547/1/2 1548/1/2
f 1549/1/5 1550/1/5 1551/1/5 1552/1/5
f 1553/1/6 1554/1/6 1555/1/6 1556/1/6
f 1557/1/1 1558/1/1 1559/1/1 1560/1/1
f 1561/1/4 1562/1/4 1563/1/4 1564/1/4
f 1565/1/5 1566/1/5 1567/1/5 1568/1/5
f 1569/1/6 1570/1/6 1571/1/6 1572/1/6
f 1573/1/4 1574/1/4 1575/1/4 1576/1/4
f 1577/1/5 1578/1/5 1579/1/5 1580/1/5
f 1581/1/6 1582/1/6 1583/1/6 1584/1/6
f 1585/1/4 1586/1/4 1587/1/4 1588/1/4
f 1589/1/5 1590/1/5 1591/1/5 1592/1/5
f 1593/1/6 1594/1/6 1595/1/6 1596/1/6
f 1597/1/5 1598/1/5 1599/1/5 1600/1/5
f 1601/1/6 1602/1/6 1603/1/6 1604/1/6
f 1605/1/5 1606/1/5 1607/1/5 1608/1/5
f 1609/1/6 1610/1/6 1611/1/6 1612/1/6
f 1613/1/5 1614/1/5 1615/1/5 1616/1/5
f 1617/1/6 1618/1/6 1619/1/6 1620/1/6
f 1621/1/5 1622/1/5 1623/1/5 1624/1/5
f 1625/1/6 1626/1/6 1627/1/6 1628/1/6
f 1629/1/2 1630/1/2 1631/1/2 1632/1/2
f 1633/1/3 1634/1/3 1635/1/3 1636/1/3
f 1637/1/5 1638/1/5 1639/1/5 1640/1/5
f 1641/1/6 1642/1/6 1643/1/6 1644/1/6
f 1645/1/1 1646/1/1 1647/1/1 1648/1/1
f 1649/1/5 1650/1/5 1651/1/5 1652/1/5
f 1653/1/6 1654/1/6 1655/1/6 1656/1/6
f 1657/1/2 1658/1/2 1659/1/2 1660/1/2
f 1661/1/5 1662/1/5 1663/1/5 1664/1/5
f 1665/1/6 1666/1/6 1667/1/6 1668/1/6
f 1669/1/1 1670/1/1 1671/1/1 1672/1/1
f 1673/1/4 1674/1/4 1675/1/4 1676/1/4
f 1677/1/5 1678/1/5 1679/1/5 1680/1/5
f 1681/1/6 1682/1/6 1683/1/6 1684/1/6
f 1685/1/4 1686/1/4 1687/1/4 1688/1/4
f 1689/1/5 1690/1/5 1691/1/5 1692/1/5
f 1693/1/6 1694/1/6 1695/1/6 1696/1/6
f 1697/1/4 1698/1/4 1699/1/4 1700/1/4
f 1701/1/5 1702/1/5 1703/1/5 1704/1/5
f 1705/1/6 1706/1/6 1707/1/6 1708/1/6
f 1709/1/5 1710/1/5 1711/1/5 1712/1/5
f 1713/1/6 1714/1/6 1715/1/6 1716/1/6
f 1717/1/2 1718/1/2 1719/1/2 1720/1/2
f 1721/1/5 1722/1/5 1723/1/5 1724/1/5
f 1725/1/6 1726/1/6 1727/1/6 1728/1/6
f 1729/1/1 1730/1/1 1731/1/1 1732/1/1
f 1733/1/5 1734/1/5 1735/1/5 1736/1/5
f 1737/1/6 1738/1/6 1739/1/6 1740/1/6
f 1741/1/2 1742/1/2 1743/1/2 1744/1/2
f 1745/1/5 1746/1/5 1747/1/5 1748/1/5
f 1749/1/6 1750/1/6 1751/1/6 1752/1/6
f 1753/1/1 1754/1/1 1755/1/1 1756/1/1
f 1757/1/4 1758/1/4 1759/1/4 1760/1/4
f 1761/1/5 1762/1/5 1763/1/5 1764/1/5
f 1765/1/6 1766/1/6 1767/1/6 1768/1/6
f 1769/1/2 1770/1/2 1771/1/2 1772/1/2
f 1773/1/4 1774/1/4 1775/1/4 1776/1/4
f 1777/1/5 1778/1/5 1779/1/5 1780/1/5
f 1781/1/6 1782/1/6 1783/1/6 1784/1/6
f 1785/1/1 1786/1/1 1787/1/1 1788/1/1
f 1789/1/5 1790/1/5 1791/1/5 1792/1/5
f 1793/1/6 1794/1/6 1795/1/6 1796/1/6
f 1797/1/2 1798/1/2 1799/1/2 1800/1/2
f 1801/1/5 1802/1/5 1803/1/5 1804/1/5
f 1805/1/6 1806/1/6 1807/1/6 1808/1/6
f 1809/1/1 1810/1/1 1811/1/1 1812/1/1
f 1813/1/4 1814/1/4 1815/1/4 1816/1/4
f 1817/1/5 1818/1/5 1819/1/5 1820/1/5
f 1821/1/6 1822/1/6 1823/1/6 1824/1/6
f 1825/1/2 1826/1/2 1827/1/2 1828/1/2
f 1829/1/4 1830/1/4 1831/1/4 1832/1/4
f 1833/1/5 1834/1/5 1835/1/5 1836/1/5
f 1837/1/6 1838/1/6 1839/1/6 1840/1/6
f 1841/1/1 1842/1/1 1843/1/1 1844/1/1
f 1845/1/2 1846/1/2 1847/1/2 1848/1/2
f 1849/1/3 1850/1/3 1851/1/3 1852/1/3
f 1853/1/4 1854/1/4 1855/1/4 1856/1/4
f 1857/1/5 1858/1/5 1859/1/5 1860/1/5
f 1861/1/6 1862/1/6 1863/1/6 1864/1/6

