# generated by vox_to_obj_exporter
# scale=0.1 center=false ground=false y_up=true

mtllib Fight_018.mtl
usemtl palette

# normals
vn -1 0 0
vn 1 0 0
vn 0 1 0
vn 0 -1 0
vn 0 0 1
vn 0 0 -1

# texcoords
vt 0.251953125 0.5

# verts
v 13.3 3.7 -2.6
v 13.3 3.6 -2.6
v 13.3 3.6 -2.5
v 13.3 3.7 -2.5
v 13.3 3.7 -2.6
v 13.3 3.7 -2.5
v 13.4 3.7 -2.5
v 13.4 3.7 -2.6
v 13.3 3.7 -2.5
v 13.3 3.6 -2.5
v 13.4 3.6 -2.5
v 13.4 3.7 -2.5
v 13.4 3.7 -2.6
v 13.4 3.6 -2.6
v 13.3 3.6 -2.6
v 13.3 3.7 -2.6
v 13.4 3.7 -2.6
v 13.4 3.7 -2.5
v 13.5 3.7 -2.5
v 13.5 3.7 -2.6
v 13.4 3.7 -2.5
v 13.4 3.6 -2.5
v 13.5 3.6 -2.5
v 13.5 3.7 -2.5
v 13.5 3.7 -2.6
v 13.5 3.6 -2.6
v 13.4 3.6 -2.6
v 13.4 3.7 -2.6
v 13.5 3.7 -2.6
v 13.5 3.7 -2.5
v 13.6 3.7 -2.5
v 13.6 3.7 -2.6
v 13.5 3.7 -2.5
v 13.5 3.6 -2.5
v 13.6 3.6 -2.5
v 13.6 3.7 -2.5
v 13.6 3.7 -2.6
v 13.6 3.6 -2.6
v 13.5 3.6 -2.6
v 13.5 3.7 -2.6
v 13.6 3.7 -2.6
v 13.6 3.7 -2.5
v 13.7 3.7 -2.5
v 13.7 3.7 -2.6
v 13.6 3.7 -2.5
v 13.6 3.6 -2.5
v 13.7 3.6 -2.5
v 13.7 3.7 -2.5
v 13.7 3.7 -2.6
v 13.7 3.6 -2.6
v 13.6 3.6 -2.6
v 13.6 3.7 -2.6
v 13.7 3.7 -2.6
v 13.7 3.7 -2.5
v 13.8 3.7 -2.5
v 13.8 3.7 -2.6
v 13.7 3.7 -2.5
v 13.7 3.6 -2.5
v 13.8 3.6 -2.5
v 13.8 3.7 -2.5
v 13.8 3.7 -2.6
v 13.8 3.6 -2.6
v 13.7 3.6 -2.6
v 13.7 3.7 -2.6
v 13.8 3.7 -2.6
v 13.8 3.7 -2.5
v 13.9 3.7 -2.5
v 13.9 3.7 -2.6
v 13.8 3.6 -2.5
v 13.8 3.6 -2.6
v 13.9 3.6 -2.6
v 13.9 3.6 -2.5
v 13.8 3.7 -2.5
v 13.8 3.6 -2.5
v 13.9 3.6 -2.5
v 13.9 3.7 -2.5
v 13.9 3.7 -2.6
v 13.9 3.6 -2.6
v 13.8 3.6 -2.6
v 13.8 3.7 -2.6
v 13.9 3.7 -2.6
v 13.9 3.7 -2.5
v 14 3.7 -2.5
v 14 3.7 -2.6
v 13.9 3.6 -2.5
v 13.9 3.6 -2.6
v 14 3.6 -2.6
v 14 3.6 -2.5
v 13.9 3.7 -2.5
v 13.9 3.6 -2.5
v 14 3.6 -2.5
v 14 3.7 -2.5
v 14 3.7 -2.6
v 14 3.6 -2.6
v 13.9 3.6 -2.6
v 13.9 3.7 -2.6
v 14.1 3.7 -2.5
v 14.1 3.6 -2.5
v 14.1 3.6 -2.6
v 14.1 3.7 -2.6
v 14 3.7 -2.6
v 14 3.7 -2.5
v 14.1 3.7 -2.5
v 14.1 3.7 -2.6
v 14 3.6 -2.5
v 14 3.6 -2.6
v 14.1 3.6 -2.6
v 14.1 3.6 -2.5
v 14 3.7 -2.5
v 14 3.6 -2.5
v 14.1 3.6 -2.5
v 14.1 3.7 -2.5
v 14.1 3.7 -2.6
v 14.1 3.6 -2.6
v 14 3.6 -2.6
v 14 3.7 -2.6
v 13.2 3.6 -2.6
v 13.2 3.5 -2.6
v 13.2 3.5 -2.5
v 13.2 3.6 -2.5
v 13.2 3.6 -2.6
v 13.2 3.6 -2.5
v 13.3 3.6 -2.5
v 13.3 3.6 -2.6
v 13.2 3.6 -2.5
v 13.2 3.5 -2.5
v 13.3 3.5 -2.5
v 13.3 3.6 -2.5
v 13.3 3.6 -2.6
v 13.3 3.5 -2.6
v 13.2 3.5 -2.6
v 13.2 3.6 -2.6
v 13.3 3.6 -2.5
v 13.3 3.5 -2.5
v 13.4 3.5 -2.5
v 13.4 3.6 -2.5
v 13.4 3.6 -2.6
v 13.4 3.5 -2.6
v 13.3 3.5 -2.6
v 13.3 3.6 -2.6
v 13.4 3.5 -2.5
v 13.4 3.5 -2.6
v 13.5 3.5 -2.6
v 13.5 3.5 -2.5
v 13.4 3.6 -2.5
v 13.4 3.5 -2.5
v 13.5 3.5 -2.5
v 13.5 3.6 -2.5
v 13.5 3.6 -2.6
v 13.5 3.5 -2.6
v 13.4 3.5 -2.6
v 13.4 3.6 -2.6
v 13.5 3.5 -2.5
v 13.5 3.5 -2.6
v 13.6 3.5 -2.6
v 13.6 3.5 -2.5
v 13.5 3.6 -2.5
v 13.5 3.5 -2.5
v 13.6 3.5 -2.5
v 13.6 3.6 -2.5
v 13.6 3.6 -2.6
v 13.6 3.5 -2.6
v 13.5 3.5 -2.6
v 13.5 3.6 -2.6
v 13.6 3.5 -2.5
v 13.6 3.5 -2.6
v 13.7 3.5 -2.6
v 13.7 3.5 -2.5
v 13.6 3.6 -2.5
v 13.6 3.5 -2.5
v 13.7 3.5 -2.5
v 13.7 3.6 -2.5
v 13.7 3.6 -2.6
v 13.7 3.5 -2.6
v 13.6 3.5 -2.6
v 13.6 3.6 -2.6
v 13.8 3.6 -2.5
v 13.8 3.5 -2.5
v 13.8 3.5 -2.6
v 13.8 3.6 -2.6
v 13.7 3.5 -2.5
v 13.7 3.5 -2.6
v 13.8 3.5 -2.6
v 13.8 3.5 -2.5
v 13.7 3.6 -2.5
v 13.7 3.5 -2.5
v 13.8 3.5 -2.5
v 13.8 3.6 -2.5
v 13.8 3.6 -2.6
v 13.8 3.5 -2.6
v 13.7 3.5 -2.6
v 13.7 3.6 -2.6
v 12.8 3.5 -2.6
v 12.8 3.4 -2.6
v 12.8 3.4 -2.5
v 12.8 3.5 -2.5
v 12.8 3.5 -2.6
v 12.8 3.5 -2.5
v 12.9 3.5 -2.5
v 12.9 3.5 -2.6
v 12.8 3.5 -2.5
v 12.8 3.4 -2.5
v 12.9 3.4 -2.5
v 12.9 3.5 -2.5
v 12.9 3.5 -2.6
v 12.9 3.4 -2.6
v 12.8 3.4 -2.6
v 12.8 3.5 -2.6
v 12.9 3.5 -2.6
v 12.9 3.5 -2.5
v 13 3.5 -2.5
v 13 3.5 -2.6
v 12.9 3.5 -2.5
v 12.9 3.4 -2.5
v 13 3.4 -2.5
v 13 3.5 -2.5
v 13 3.5 -2.6
v 13 3.4 -2.6
v 12.9 3.4 -2.6
v 12.9 3.5 -2.6
v 13 3.5 -2.6
v 13 3.5 -2.5
v 13.1 3.5 -2.5
v 13.1 3.5 -2.6
v 13 3.5 -2.5
v 13 3.4 -2.5
v 13.1 3.4 -2.5
v 13.1 3.5 -2.5
v 13.1 3.5 -2.6
v 13.1 3.4 -2.6
v 13 3.4 -2.6
v 13 3.5 -2.6
v 13.1 3.5 -2.6
v 13.1 3.5 -2.5
v 13.2 3.5 -2.5
v 13.2 3.5 -2.6
v 13.1 3.4 -2.5
v 13.1 3.4 -2.6
v 13.2 3.4 -2.6
v 13.2 3.4 -2.5
v 13.1 3.5 -2.5
v 13.1 3.4 -2.5
v 13.2 3.4 -2.5
v 13.2 3.5 -2.5
v 13.2 3.5 -2.6
v 13.2 3.4 -2.6
v 13.1 3.4 -2.6
v 13.1 3.5 -2.6
v 13.2 3.4 -2.5
v 13.2 3.4 -2.6
v 13.3 3.4 -2.6
v 13.3 3.4 -2.5
v 13.2 3.5 -2.5
v 13.2 3.4 -2.5
v 13.3 3.4 -2.5
v 13.3 3.5 -2.5
v 13.3 3.5 -2.6
v 13.3 3.4 -2.6
v 13.2 3.4 -2.6
v 13.2 3.5 -2.6
v 13.4 3.5 -2.5
v 13.4 3.4 -2.5
v 13.4 3.4 -2.6
v 13.4 3.5 -2.6
v 13.3 3.4 -2.5
v 13.3 3.4 -2.6
v 13.4 3.4 -2.6
v 13.4 3.4 -2.5
v 13.3 3.5 -2.5
v 13.3 3.4 -2.5
v 13.4 3.4 -2.5
v 13.4 3.5 -2.5
v 13.4 3.5 -2.6
v 13.4 3.4 -2.6
v 13.3 3.4 -2.6
v 13.3 3.5 -2.6
v 12.5 3.4 -2.6
v 12.5 3.3 -2.6
v 12.5 3.3 -2.5
v 12.5 3.4 -2.5
v 12.5 3.4 -2.6
v 12.5 3.4 -2.5
v 12.6 3.4 -2.5
v 12.6 3.4 -2.6
v 12.5 3.4 -2.5
v 12.5 3.3 -2.5
v 12.6 3.3 -2.5
v 12.6 3.4 -2.5
v 12.6 3.4 -2.6
v 12.6 3.3 -2.6
v 12.5 3.3 -2.6
v 12.5 3.4 -2.6
v 12.6 3.4 -2.6
v 12.6 3.4 -2.5
v 12.7 3.4 -2.5
v 12.7 3.4 -2.6
v 12.6 3.4 -2.5
v 12.6 3.3 -2.5
v 12.7 3.3 -2.5
v 12.7 3.4 -2.5
v 12.7 3.4 -2.6
v 12.7 3.3 -2.6
v 12.6 3.3 -2.6
v 12.6 3.4 -2.6
v 12.7 3.4 -2.6
v 12.7 3.4 -2.5
v 12.8 3.4 -2.5
v 12.8 3.4 -2.6
v 12.7 3.4 -2.5
v 12.7 3.3 -2.5
v 12.8 3.3 -2.5
v 12.8 3.4 -2.5
v 12.8 3.4 -2.6
v 12.8 3.3 -2.6
v 12.7 3.3 -2.6
v 12.7 3.4 -2.6
v 12.8 3.3 -2.5
v 12.8 3.3 -2.6
v 12.9 3.3 -2.6
v 12.9 3.3 -2.5
v 12.8 3.4 -2.5
v 12.8 3.3 -2.5
v 12.9 3.3 -2.5
v 12.9 3.4 -2.5
v 12.9 3.4 -2.6
v 12.9 3.3 -2.6
v 12.8 3.3 -2.6
v 12.8 3.4 -2.6
v 12.9 3.3 -2.5
v 12.9 3.3 -2.6
v 13 3.3 -2.6
v 13 3.3 -2.5
v 12.9 3.4 -2.5
v 12.9 3.3 -2.5
v 13 3.3 -2.5
v 13 3.4 -2.5
v 13 3.4 -2.6
v 13 3.3 -2.6
v 12.9 3.3 -2.6
v 12.9 3.4 -2.6
v 13.1 3.4 -2.5
v 13.1 3.3 -2.5
v 13.1 3.3 -2.6
v 13.1 3.4 -2.6
v 13 3.3 -2.5
v 13 3.3 -2.6
v 13.1 3.3 -2.6
v 13.1 3.3 -2.5
v 13 3.4 -2.5
v 13 3.3 -2.5
v 13.1 3.3 -2.5
v 13.1 3.4 -2.5
v 13.1 3.4 -2.6
v 13.1 3.3 -2.6
v 13 3.3 -2.6
v 13 3.4 -2.6
v 12.2 3.3 -2.6
v 12.2 3.2 -2.6
v 12.2 3.2 -2.5
v 12.2 3.3 -2.5
v 12.2 3.3 -2.6
v 12.2 3.3 -2.5
v 12.3 3.3 -2.5
v 12.3 3.3 -2.6
v 12.2 3.3 -2.5
v 12.2 3.2 -2.5
v 12.3 3.2 -2.5
v 12.3 3.3 -2.5
v 12.3 3.3 -2.6
v 12.3 3.2 -2.6
v 12.2 3.2 -2.6
v 12.2 3.3 -2.6
v 12.3 3.3 -2.6
v 12.3 3.3 -2.5
v 12.4 3.3 -2.5
v 12.4 3.3 -2.6
v 12.3 3.3 -2.5
v 12.3 3.2 -2.5
v 12.4 3.2 -2.5
v 12.4 3.3 -2.5
v 12.4 3.3 -2.6
v 12.4 3.2 -2.6
v 12.3 3.2 -2.6
v 12.3 3.3 -2.6
v 12.4 3.3 -2.6
v 12.4 3.3 -2.5
v 12.5 3.3 -2.5
v 12.5 3.3 -2.6
v 12.4 3.3 -2.5
v 12.4 3.2 -2.5
v 12.5 3.2 -2.5
v 12.5 3.3 -2.5
v 12.5 3.3 -2.6
v 12.5 3.2 -2.6
v 12.4 3.2 -2.6
v 12.4 3.3 -2.6
v 12.5 3.2 -2.5
v 12.5 3.2 -2.6
v 12.6 3.2 -2.6
v 12.6 3.2 -2.5
v 12.5 3.3 -2.5
v 12.5 3.2 -2.5
v 12.6 3.2 -2.5
v 12.6 3.3 -2.5
v 12.6 3.3 -2.6
v 12.6 3.2 -2.6
v 12.5 3.2 -2.6
v 12.5 3.3 -2.6
v 12.6 3.2 -2.5
v 12.6 3.2 -2.6
v 12.7 3.2 -2.6
v 12.7 3.2 -2.5
v 12.6 3.3 -2.5
v 12.6 3.2 -2.5
v 12.7 3.2 -2.5
v 12.7 3.3 -2.5
v 12.7 3.3 -2.6
v 12.7 3.2 -2.6
v 12.6 3.2 -2.6
v 12.6 3.3 -2.6
v 12.8 3.3 -2.5
v 12.8 3.2 -2.5
v 12.8 3.2 -2.6
v 12.8 3.3 -2.6
v 12.7 3.2 -2.5
v 12.7 3.2 -2.6
v 12.8 3.2 -2.6
v 12.8 3.2 -2.5
v 12.7 3.3 -2.5
v 12.7 3.2 -2.5
v 12.8 3.2 -2.5
v 12.8 3.3 -2.5
v 12.8 3.3 -2.6
v 12.8 3.2 -2.6
v 12.7 3.2 -2.6
v 12.7 3.3 -2.6
v 12 3.2 -2.6
v 12 3.1 -2.6
v 12 3.1 -2.5
v 12 3.2 -2.5
v 12 3.2 -2.6
v 12 3.2 -2.5
v 12.1 3.2 -2.5
v 12.1 3.2 -2.6
v 12 3.2 -2.5
v 12 3.1 -2.5
v 12.1 3.1 -2.5
v 12.1 3.2 -2.5
v 12.1 3.2 -2.6
v 12.1 3.1 -2.6
v 12 3.1 -2.6
v 12 3.2 -2.6
v 12.1 3.2 -2.6
v 12.1 3.2 -2.5
v 12.2 3.2 -2.5
v 12.2 3.2 -2.6
v 12.1 3.2 -2.5
v 12.1 3.1 -2.5
v 12.2 3.1 -2.5
v 12.2 3.2 -2.5
v 12.2 3.2 -2.6
v 12.2 3.1 -2.6
v 12.1 3.1 -2.6
v 12.1 3.2 -2.6
v 12.2 3.2 -2.5
v 12.2 3.1 -2.5
v 12.3 3.1 -2.5
v 12.3 3.2 -2.5
v 12.3 3.2 -2.6
v 12.3 3.1 -2.6
v 12.2 3.1 -2.6
v 12.2 3.2 -2.6
v 12.3 3.1 -2.5
v 12.3 3.1 -2.6
v 12.4 3.1 -2.6
v 12.4 3.1 -2.5
v 12.3 3.2 -2.5
v 12.3 3.1 -2.5
v 12.4 3.1 -2.5
v 12.4 3.2 -2.5
v 12.4 3.2 -2.6
v 12.4 3.1 -2.6
v 12.3 3.1 -2.6
v 12.3 3.2 -2.6
v 12.5 3.2 -2.5
v 12.5 3.1 -2.5
v 12.5 3.1 -2.6
v 12.5 3.2 -2.6
v 12.4 3.1 -2.5
v 12.4 3.1 -2.6
v 12.5 3.1 -2.6
v 12.5 3.1 -2.5
v 12.4 3.2 -2.5
v 12.4 3.1 -2.5
v 12.5 3.1 -2.5
v 12.5 3.2 -2.5
v 12.5 3.2 -2.6
v 12.5 3.1 -2.6
v 12.4 3.1 -2.6
v 12.4 3.2 -2.6
v 11.6 3.1 -2.6
v 11.6 3 -2.6
v 11.6 3 -2.5
v 11.6 3.1 -2.5
v 11.6 3.1 -2.6
v 11.6 3.1 -2.5
v 11.7 3.1 -2.5
v 11.7 3.1 -2.6
v 11.6 3.1 -2.5
v 11.6 3 -2.5
v 11.7 3 -2.5
v 11.7 3.1 -2.5
v 11.7 3.1 -2.6
v 11.7 3 -2.6
v 11.6 3 -2.6
v 11.6 3.1 -2.6
v 11.7 3.1 -2.6
v 11.7 3.1 -2.5
v 11.8 3.1 -2.5
v 11.8 3.1 -2.6
v 11.7 3.1 -2.5
v 11.7 3 -2.5
v 11.8 3 -2.5
v 11.8 3.1 -2.5
v 11.8 3.1 -2.6
v 11.8 3 -2.6
v 11.7 3 -2.6
v 11.7 3.1 -2.6
v 11.8 3.1 -2.6
v 11.8 3.1 -2.5
v 11.9 3.1 -2.5
v 11.9 3.1 -2.6
v 11.8 3.1 -2.5
v 11.8 3 -2.5
v 11.9 3 -2.5
v 11.9 3.1 -2.5
v 11.9 3.1 -2.6
v 11.9 3 -2.6
v 11.8 3 -2.6
v 11.8 3.1 -2.6
v 11.9 3.1 -2.6
v 11.9 3.1 -2.5
v 12 3.1 -2.5
v 12 3.1 -2.6
v 11.9 3.1 -2.5
v 11.9 3 -2.5
v 12 3 -2.5
v 12 3.1 -2.5
v 12 3.1 -2.6
v 12 3 -2.6
v 11.9 3 -2.6
v 11.9 3.1 -2.6
v 12 3.1 -2.5
v 12 3 -2.5
v 12.1 3 -2.5
v 12.1 3.1 -2.5
v 12.1 3.1 -2.6
v 12.1 3 -2.6
v 12 3 -2.6
v 12 3.1 -2.6
v 12.1 3.1 -2.5
v 12.1 3 -2.5
v 12.2 3 -2.5
v 12.2 3.1 -2.5
v 12.2 3.1 -2.6
v 12.2 3 -2.6
v 12.1 3 -2.6
v 12.1 3.1 -2.6
v 12.3 3.1 -2.5
v 12.3 3 -2.5
v 12.3 3 -2.6
v 12.3 3.1 -2.6
v 12.2 3 -2.5
v 12.2 3 -2.6
v 12.3 3 -2.6
v 12.3 3 -2.5
v 12.2 3.1 -2.5
v 12.2 3 -2.5
v 12.3 3 -2.5
v 12.3 3.1 -2.5
v 12.3 3.1 -2.6
v 12.3 3 -2.6
v 12.2 3 -2.6
v 12.2 3.1 -2.6
v 11.3 3 -2.6
v 11.3 2.9 -2.6
v 11.3 2.9 -2.5
v 11.3 3 -2.5
v 11.3 3 -2.6
v 11.3 3 -2.5
v 11.4 3 -2.5
v 11.4 3 -2.6
v 11.3 2.9 -2.5
v 11.3 2.9 -2.6
v 11.4 2.9 -2.6
v 11.4 2.9 -2.5
v 11.3 3 -2.5
v 11.3 2.9 -2.5
v 11.4 2.9 -2.5
v 11.4 3 -2.5
v 11.4 3 -2.6
v 11.4 2.9 -2.6
v 11.3 2.9 -2.6
v 11.3 3 -2.6
v 11.4 3 -2.6
v 11.4 3 -2.5
v 11.5 3 -2.5
v 11.5 3 -2.6
v 11.4 2.9 -2.5
v 11.4 2.9 -2.6
v 11.5 2.9 -2.6
v 11.5 2.9 -2.5
v 11.4 3 -2.5
v 11.4 2.9 -2.5
v 11.5 2.9 -2.5
v 11.5 3 -2.5
v 11.5 3 -2.6
v 11.5 2.9 -2.6
v 11.4 2.9 -2.6
v 11.4 3 -2.6
v 11.5 3 -2.6
v 11.5 3 -2.5
v 11.6 3 -2.5
v 11.6 3 -2.6
v 11.5 2.9 -2.5
v 11.5 2.9 -2.6
v 11.6 2.9 -2.6
v 11.6 2.9 -2.5
v 11.5 3 -2.5
v 11.5 2.9 -2.5
v 11.6 2.9 -2.5
v 11.6 3 -2.5
v 11.6 3 -2.6
v 11.6 2.9 -2.6
v 11.5 2.9 -2.6
v 11.5 3 -2.6
v 11.6 3 -2.5
v 11.6 2.9 -2.5
v 11.7 2.9 -2.5
v 11.7 3 -2.5
v 11.7 3 -2.6
v 11.7 2.9 -2.6
v 11.6 2.9 -2.6
v 11.6 3 -2.6
v 11.7 3 -2.5
v 11.7 2.9 -2.5
v 11.8 2.9 -2.5
v 11.8 3 -2.5
v 11.8 3 -2.6
v 11.8 2.9 -2.6
v 11.7 2.9 -2.6
v 11.7 3 -2.6
v 11.8 3 -2.5
v 11.8 2.9 -2.5
v 11.9 2.9 -2.5
v 11.9 3 -2.5
v 11.9 3 -2.6
v 11.9 2.9 -2.6
v 11.8 2.9 -2.6
v 11.8 3 -2.6
v 11.9 3 -2.5
v 11.9 2.9 -2.5
v 12 2.9 -2.5
v 12 3 -2.5
v 12 3 -2.6
v 12 2.9 -2.6
v 11.9 2.9 -2.6
v 11.9 3 -2.6
v 12 2.9 -2.5
v 12 2.9 -2.6
v 12.1 2.9 -2.6
v 12.1 2.9 -2.5
v 12 3 -2.5
v 12 2.9 -2.5
v 12.1 2.9 -2.5
v 12.1 3 -2.5
v 12.1 3 -2.6
v 12.1 2.9 -2.6
v 12 2.9 -2.6
v 12 3 -2.6
v 12.2 3 -2.5
v 12.2 2.9 -2.5
v 12.2 2.9 -2.6
v 12.2 3 -2.6
v 12.1 2.9 -2.5
v 12.1 2.9 -2.6
v 12.2 2.9 -2.6
v 12.2 2.9 -2.5
v 12.1 3 -2.5
v 12.1 2.9 -2.5
v 12.2 2.9 -2.5
v 12.2 3 -2.5
v 12.2 3 -2.6
v 12.2 2.9 -2.6
v 12.1 2.9 -2.6
v 12.1 3 -2.6
v 11.6 2.9 -2.6
v 11.6 2.8 -2.6
v 11.6 2.8 -2.5
v 11.6 2.9 -2.5
v 11.6 2.9 -2.5
v 11.6 2.8 -2.5
v 11.7 2.8 -2.5
v 11.7 2.9 -2.5
v 11.7 2.9 -2.6
v 11.7 2.8 -2.6
v 11.6 2.8 -2.6
v 11.6 2.9 -2.6
v 11.7 2.9 -2.5
v 11.7 2.8 -2.5
v 11.8 2.8 -2.5
v 11.8 2.9 -2.5
v 11.8 2.9 -2.6
v 11.8 2.8 -2.6
v 11.7 2.8 -2.6
v 11.7 2.9 -2.6
v 11.8 2.9 -2.5
v 11.8 2.8 -2.5
v 11.9 2.8 -2.5
v 11.9 2.9 -2.5
v 11.9 2.9 -2.6
v 11.9 2.8 -2.6
v 11.8 2.8 -2.6
v 11.8 2.9 -2.6
v 12 2.9 -2.5
v 12 2.8 -2.5
v 12 2.8 -2.6
v 12 2.9 -2.6
v 11.9 2.8 -2.5
v 11.9 2.8 -2.6
v 12 2.8 -2.6
v 12 2.8 -2.5
v 11.9 2.9 -2.5
v 11.9 2.8 -2.5
v 12 2.8 -2.5
v 12 2.9 -2.5
v 12 2.9 -2.6
v 12 2.8 -2.6
v 11.9 2.8 -2.6
v 11.9 2.9 -2.6
v 11.6 2.8 -2.6
v 11.6 2.7 -2.6
v 11.6 2.7 -2.5
v 11.6 2.8 -2.5
v 11.6 2.8 -2.5
v 11.6 2.7 -2.5
v 11.7 2.7 -2.5
v 11.7 2.8 -2.5
v 11.7 2.8 -2.6
v 11.7 2.7 -2.6
v 11.6 2.7 -2.6
v 11.6 2.8 -2.6
v 11.7 2.8 -2.5
v 11.7 2.7 -2.5
v 11.8 2.7 -2.5
v 11.8 2.8 -2.5
v 11.8 2.8 -2.6
v 11.8 2.7 -2.6
v 11.7 2.7 -2.6
v 11.7 2.8 -2.6
v 11.9 2.8 -2.5
v 11.9 2.7 -2.5
v 11.9 2.7 -2.6
v 11.9 2.8 -2.6
v 11.8 2.7 -2.5
v 11.8 2.7 -2.6
v 11.9 2.7 -2.6
v 11.9 2.7 -2.5
v 11.8 2.8 -2.5
v 11.8 2.7 -2.5
v 11.9 2.7 -2.5
v 11.9 2.8 -2.5
v 11.9 2.8 -2.6
v 11.9 2.7 -2.6
v 11.8 2.7 -2.6
v 11.8 2.8 -2.6
v 11.3 2.7 -2.6
v 11.3 2.6 -2.6
v 11.3 2.6 -2.5
v 11.3 2.7 -2.5
v 11.3 2.7 -2.6
v 11.3 2.7 -2.5
v 11.4 2.7 -2.5
v 11.4 2.7 -2.6
v 11.3 2.7 -2.5
v 11.3 2.6 -2.5
v 11.4 2.6 -2.5
v 11.4 2.7 -2.5
v 11.4 2.7 -2.6
v 11.4 2.6 -2.6
v 11.3 2.6 -2.6
v 11.3 2.7 -2.6
v 11.4 2.7 -2.6
v 11.4 2.7 -2.5
v 11.5 2.7 -2.5
v 11.5 2.7 -2.6
v 11.4 2.7 -2.5
v 11.4 2.6 -2.5
v 11.5 2.6 -2.5
v 11.5 2.7 -2.5
v 11.5 2.7 -2.6
v 11.5 2.6 -2.6
v 11.4 2.6 -2.6
v 11.4 2.7 -2.6
v 11.5 2.7 -2.6
v 11.5 2.7 -2.5
v 11.6 2.7 -2.5
v 11.6 2.7 -2.6
v 11.5 2.7 -2.5
v 11.5 2.6 -2.5
v 11.6 2.6 -2.5
v 11.6 2.7 -2.5
v 11.6 2.7 -2.6
v 11.6 2.6 -2.6
v 11.5 2.6 -2.6
v 11.5 2.7 -2.6
v 11.6 2.7 -2.5
v 11.6 2.6 -2.5
v 11.7 2.6 -2.5
v 11.7 2.7 -2.5
v 11.7 2.7 -2.6
v 11.7 2.6 -2.6
v 11.6 2.6 -2.6
v 11.6 2.7 -2.6
v 11.8 2.7 -2.5
v 11.8 2.6 -2.5
v 11.8 2.6 -2.6
v 11.8 2.7 -2.6
v 11.7 2.6 -2.5
v 11.7 2.6 -2.6
v 11.8 2.6 -2.6
v 11.8 2.6 -2.5
v 11.7 2.7 -2.5
v 11.7 2.6 -2.5
v 11.8 2.6 -2.5
v 11.8 2.7 -2.5
v 11.8 2.7 -2.6
v 11.8 2.6 -2.6
v 11.7 2.6 -2.6
v 11.7 2.7 -2.6
v 11.2 2.6 -2.6
v 11.2 2.5 -2.6
v 11.2 2.5 -2.5
v 11.2 2.6 -2.5
v 11.2 2.6 -2.6
v 11.2 2.6 -2.5
v 11.3 2.6 -2.5
v 11.3 2.6 -2.6
v 11.2 2.6 -2.5
v 11.2 2.5 -2.5
v 11.3 2.5 -2.5
v 11.3 2.6 -2.5
v 11.3 2.6 -2.6
v 11.3 2.5 -2.6
v 11.2 2.5 -2.6
v 11.2 2.6 -2.6
v 11.3 2.6 -2.5
v 11.3 2.5 -2.5
v 11.4 2.5 -2.5
v 11.4 2.6 -2.5
v 11.4 2.6 -2.6
v 11.4 2.5 -2.6
v 11.3 2.5 -2.6
v 11.3 2.6 -2.6
v 11.4 2.6 -2.5
v 11.4 2.5 -2.5
v 11.5 2.5 -2.5
v 11.5 2.6 -2.5
v 11.5 2.6 -2.6
v 11.5 2.5 -2.6
v 11.4 2.5 -2.6
v 11.4 2.6 -2.6
v 11.5 2.6 -2.5
v 11.5 2.5 -2.5
v 11.6 2.5 -2.5
v 11.6 2.6 -2.5
v 11.6 2.6 -2.6
v 11.6 2.5 -2.6
v 11.5 2.5 -2.6
v 11.5 2.6 -2.6
v 11.7 2.6 -2.5
v 11.7 2.5 -2.5
v 11.7 2.5 -2.6
v 11.7 2.6 -2.6
v 11.6 2.6 -2.5
v 11.6 2.5 -2.5
v 11.7 2.5 -2.5
v 11.7 2.6 -2.5
v 11.7 2.6 -2.6
v 11.7 2.5 -2.6
v 11.6 2.5 -2.6
v 11.6 2.6 -2.6
v 11 2.5 -2.6
v 11 2.4 -2.6
v 11 2.4 -2.5
v 11 2.5 -2.5
v 11 2.5 -2.6
v 11 2.5 -2.5
v 11.1 2.5 -2.5
v 11.1 2.5 -2.6
v 11 2.4 -2.5
v 11 2.4 -2.6
v 11.1 2.4 -2.6
v 11.1 2.4 -2.5
v 11 2.5 -2.5
v 11 2.4 -2.5
v 11.1 2.4 -2.5
v 11.1 2.5 -2.5
v 11.1 2.5 -2.6
v 11.1 2.4 -2.6
v 11 2.4 -2.6
v 11 2.5 -2.6
v 11.1 2.5 -2.6
v 11.1 2.5 -2.5
v 11.2 2.5 -2.5
v 11.2 2.5 -2.6
v 11.1 2.4 -2.5
v 11.1 2.4 -2.6
v 11.2 2.4 -2.6
v 11.2 2.4 -2.5
v 11.1 2.5 -2.5
v 11.1 2.4 -2.5
v 11.2 2.4 -2.5
v 11.2 2.5 -2.5
v 11.2 2.5 -2.6
v 11.2 2.4 -2.6
v 11.1 2.4 -2.6
v 11.1 2.5 -2.6
v 11.2 2.5 -2.5
v 11.2 2.4 -2.5
v 11.3 2.4 -2.5
v 11.3 2.5 -2.5
v 11.3 2.5 -2.6
v 11.3 2.4 -2.6
v 11.2 2.4 -2.6
v 11.2 2.5 -2.6
v 11.3 2.5 -2.5
v 11.3 2.4 -2.5
v 11.4 2.4 -2.5
v 11.4 2.5 -2.5
v 11.4 2.5 -2.6
v 11.4 2.4 -2.6
v 11.3 2.4 -2.6
v 11.3 2.5 -2.6
v 11.4 2.5 -2.5
v 11.4 2.4 -2.5
v 11.5 2.4 -2.5
v 11.5 2.5 -2.5
v 11.5 2.5 -2.6
v 11.5 2.4 -2.6
v 11.4 2.4 -2.6
v 11.4 2.5 -2.6
v 11.5 2.5 -2.5
v 11.5 2.4 -2.5
v 11.6 2.4 -2.5
v 11.6 2.5 -2.5
v 11.6 2.5 -2.6
v 11.6 2.4 -2.6
v 11.5 2.4 -2.6
v 11.5 2.5 -2.6
v 11.7 2.5 -2.5
v 11.7 2.4 -2.5
v 11.7 2.4 -2.6
v 11.7 2.5 -2.6
v 11.6 2.4 -2.5
v 11.6 2.4 -2.6
v 11.7 2.4 -2.6
v 11.7 2.4 -2.5
v 11.6 2.5 -2.5
v 11.6 2.4 -2.5
v 11.7 2.4 -2.5
v 11.7 2.5 -2.5
v 11.7 2.5 -2.6
v 11.7 2.4 -2.6
v 11.6 2.4 -2.6
v 11.6 2.5 -2.6
v 11.2 2.4 -2.6
v 11.2 2.3 -2.6
v 11.2 2.3 -2.5
v 11.2 2.4 -2.5
v 11.2 2.4 -2.5
v 11.2 2.3 -2.5
v 11.3 2.3 -2.5
v 11.3 2.4 -2.5
v 11.3 2.4 -2.6
v 11.3 2.3 -2.6
v 11.2 2.3 -2.6
v 11.2 2.4 -2.6
v 11.3 2.4 -2.5
v 11.3 2.3 -2.5
v 11.4 2.3 -2.5
v 11.4 2.4 -2.5
v 11.4 2.4 -2.6
v 11.4 2.3 -2.6
v 11.3 2.3 -2.6
v 11.3 2.4 -2.6
v 11.4 2.4 -2.5
v 11.4 2.3 -2.5
v 11.5 2.3 -2.5
v 11.5 2.4 -2.5
v 11.5 2.4 -2.6
v 11.5 2.3 -2.6
v 11.4 2.3 -2.6
v 11.4 2.4 -2.6
v 11.6 2.4 -2.5
v 11.6 2.3 -2.5
v 11.6 2.3 -2.6
v 11.6 2.4 -2.6
v 11.5 2.4 -2.5
v 11.5 2.3 -2.5
v 11.6 2.3 -2.5
v 11.6 2.4 -2.5
v 11.6 2.4 -2.6
v 11.6 2.3 -2.6
v 11.5 2.3 -2.6
v 11.5 2.4 -2.6
v 11.1 2.3 -2.6
v 11.1 2.2 -2.6
v 11.1 2.2 -2.5
v 11.1 2.3 -2.5
v 11.1 2.3 -2.6
v 11.1 2.3 -2.5
v 11.2 2.3 -2.5
v 11.2 2.3 -2.6
v 11.1 2.3 -2.5
v 11.1 2.2 -2.5
v 11.2 2.2 -2.5
v 11.2 2.3 -2.5
v 11.2 2.3 -2.6
v 11.2 2.2 -2.6
v 11.1 2.2 -2.6
v 11.1 2.3 -2.6
v 11.2 2.3 -2.5
v 11.2 2.2 -2.5
v 11.3 2.2 -2.5
v 11.3 2.3 -2.5
v 11.3 2.3 -2.6
v 11.3 2.2 -2.6
v 11.2 2.2 -2.6
v 11.2 2.3 -2.6
v 11.3 2.3 -2.5
v 11.3 2.2 -2.5
v 11.4 2.2 -2.5
v 11.4 2.3 -2.5
v 11.4 2.3 -2.6
v 11.4 2.2 -2.6
v 11.3 2.2 -2.6
v 11.3 2.3 -2.6
v 11.4 2.3 -2.5
v 11.4 2.2 -2.5
v 11.5 2.2 -2.5
v 11.5 2.3 -2.5
v 11.5 2.3 -2.6
v 11.5 2.2 -2.6
v 11.4 2.2 -2.6
v 11.4 2.3 -2.6
v 11.6 2.3 -2.5
v 11.6 2.2 -2.5
v 11.6 2.2 -2.6
v 11.6 2.3 -2.6
v 11.5 2.3 -2.5
v 11.5 2.2 -2.5
v 11.6 2.2 -2.5
v 11.6 2.3 -2.5
v 11.6 2.3 -2.6
v 11.6 2.2 -2.6
v 11.5 2.2 -2.6
v 11.5 2.3 -2.6
v 11 2.2 -2.6
v 11 2.1 -2.6
v 11 2.1 -2.5
v 11 2.2 -2.5
v 11 2.2 -2.6
v 11 2.2 -2.5
v 11.1 2.2 -2.5
v 11.1 2.2 -2.6
v 11 2.2 -2.5
v 11 2.1 -2.5
v 11.1 2.1 -2.5
v 11.1 2.2 -2.5
v 11.1 2.2 -2.6
v 11.1 2.1 -2.6
v 11 2.1 -2.6
v 11 2.2 -2.6
v 11.1 2.1 -2.5
v 11.1 2.1 -2.6
v 11.2 2.1 -2.6
v 11.2 2.1 -2.5
v 11.1 2.2 -2.5
v 11.1 2.1 -2.5
v 11.2 2.1 -2.5
v 11.2 2.2 -2.5
v 11.2 2.2 -2.6
v 11.2 2.1 -2.6
v 11.1 2.1 -2.6
v 11.1 2.2 -2.6
v 11.2 2.2 -2.5
v 11.2 2.1 -2.5
v 11.3 2.1 -2.5
v 11.3 2.2 -2.5
v 11.3 2.2 -2.6
v 11.3 2.1 -2.6
v 11.2 2.1 -2.6
v 11.2 2.2 -2.6
v 11.3 2.2 -2.5
v 11.3 2.1 -2.5
v 11.4 2.1 -2.5
v 11.4 2.2 -2.5
v 11.4 2.2 -2.6
v 11.4 2.1 -2.6
v 11.3 2.1 -2.6
v 11.3 2.2 -2.6
v 11.4 2.2 -2.5
v 11.4 2.1 -2.5
v 11.5 2.1 -2.5
v 11.5 2.2 -2.5
v 11.5 2.2 -2.6
v 11.5 2.1 -2.6
v 11.4 2.1 -2.6
v 11.4 2.2 -2.6
v 11.6 2.2 -2.5
v 11.6 2.1 -2.5
v 11.6 2.1 -2.6
v 11.6 2.2 -2.6
v 11.5 2.2 -2.5
v 11.5 2.1 -2.5
v 11.6 2.1 -2.5
v 11.6 2.2 -2.5
v 11.6 2.2 -2.6
v 11.6 2.1 -2.6
v 11.5 2.1 -2.6
v 11.5 2.2 -2.6
v 10.8 2.1 -2.6
v 10.8 2 -2.6
v 10.8 2 -2.5
v 10.8 2.1 -2.5
v 10.8 2.1 -2.6
v 10.8 2.1 -2.5
v 10.9 2.1 -2.5
v 10.9 2.1 -2.6
v 10.8 2 -2.5
v 10.8 2 -2.6
v 10.9 2 -2.6
v 10.9 2 -2.5
v 10.8 2.1 -2.5
v 10.8 2 -2.5
v 10.9 2 -2.5
v 10.9 2.1 -2.5
v 10.9 2.1 -2.6
v 10.9 2 -2.6
v 10.8 2 -2.6
v 10.8 2.1 -2.6
v 10.9 2.1 -2.6
v 10.9 2.1 -2.5
v 11 2.1 -2.5
v 11 2.1 -2.6
v 10.9 2 -2.5
v 10.9 2 -2.6
v 11 2 -2.6
v 11 2 -2.5
v 10.9 2.1 -2.5
v 10.9 2 -2.5
v 11 2 -2.5
v 11 2.1 -2.5
v 11 2.1 -2.6
v 11 2 -2.6
v 10.9 2 -2.6
v 10.9 2.1 -2.6
v 11.1 2.1 -2.5
v 11.1 2 -2.5
v 11.1 2 -2.6
v 11.1 2.1 -2.6
v 11 2 -2.5
v 11 2 -2.6
v 11.1 2 -2.6
v 11.1 2 -2.5
v 11 2.1 -2.5
v 11 2 -2.5
v 11.1 2 -2.5
v 11.1 2.1 -2.5
v 11.1 2.1 -2.6
v 11.1 2 -2.6
v 11 2 -2.6
v 11 2.1 -2.6
v 11.2 2.1 -2.6
v 11.2 2 -2.6
v 11.2 2 -2.5
v 11.2 2.1 -2.5
v 11.2 2.1 -2.5
v 11.2 2 -2.5
v 11.3 2 -2.5
v 11.3 2.1 -2.5
v 11.3 2.1 -2.6
v 11.3 2 -2.6
v 11.2 2 -2.6
v 11.2 2.1 -2.6
v 11.3 2.1 -2.5
v 11.3 2 -2.5
v 11.4 2 -2.5
v 11.4 2.1 -2.5
v 11.4 2.1 -2.6
v 11.4 2 -2.6
v 11.3 2 -2.6
v 11.3 2.1 -2.6
v 11.4 2.1 -2.5
v 11.4 2 -2.5
v 11.5 2 -2.5
v 11.5 2.1 -2.5
v 11.5 2.1 -2.6
v 11.5 2 -2.6
v 11.4 2 -2.6
v 11.4 2.1 -2.6
v 11.6 2.1 -2.5
v 11.6 2 -2.5
v 11.6 2 -2.6
v 11.6 2.1 -2.6
v 11.5 2.1 -2.5
v 11.5 2 -2.5
v 11.6 2 -2.5
v 11.6 2.1 -2.5
v 11.6 2.1 -2.6
v 11.6 2 -2.6
v 11.5 2 -2.6
v 11.5 2.1 -2.6
v 11.1 2 -2.6
v 11.1 1.9 -2.6
v 11.1 1.9 -2.5
v 11.1 2 -2.5
v 11.1 2 -2.6
v 11.1 2 -2.5
v 11.2 2 -2.5
v 11.2 2 -2.6
v 11.1 2 -2.5
v 11.1 1.9 -2.5
v 11.2 1.9 -2.5
v 11.2 2 -2.5
v 11.2 2 -2.6
v 11.2 1.9 -2.6
v 11.1 1.9 -2.6
v 11.1 2 -2.6
v 11.2 2 -2.5
v 11.2 1.9 -2.5
v 11.3 1.9 -2.5
v 11.3 2 -2.5
v 11.3 2 -2.6
v 11.3 1.9 -2.6
v 11.2 1.9 -2.6
v 11.2 2 -2.6
v 11.3 2 -2.5
v 11.3 1.9 -2.5
v 11.4 1.9 -2.5
v 11.4 2 -2.5
v 11.4 2 -2.6
v 11.4 1.9 -2.6
v 11.3 1.9 -2.6
v 11.3 2 -2.6
v 11.4 2 -2.5
v 11.4 1.9 -2.5
v 11.5 1.9 -2.5
v 11.5 2 -2.5
v 11.5 2 -2.6
v 11.5 1.9 -2.6
v 11.4 1.9 -2.6
v 11.4 2 -2.6
v 11.6 2 -2.5
v 11.6 1.9 -2.5
v 11.6 1.9 -2.6
v 11.6 2 -2.6
v 11.5 2 -2.5
v 11.5 1.9 -2.5
v 11.6 1.9 -2.5
v 11.6 2 -2.5
v 11.6 2 -2.6
v 11.6 1.9 -2.6
v 11.5 1.9 -2.6
v 11.5 2 -2.6
v 11 1.9 -2.6
v 11 1.8 -2.6
v 11 1.8 -2.5
v 11 1.9 -2.5
v 11 1.9 -2.6
v 11 1.9 -2.5
v 11.1 1.9 -2.5
v 11.1 1.9 -2.6
v 11 1.9 -2.5
v 11 1.8 -2.5
v 11.1 1.8 -2.5
v 11.1 1.9 -2.5
v 11.1 1.9 -2.6
v 11.1 1.8 -2.6
v 11 1.8 -2.6
v 11 1.9 -2.6
v 11.1 1.9 -2.5
v 11.1 1.8 -2.5
v 11.2 1.8 -2.5
v 11.2 1.9 -2.5
v 11.2 1.9 -2.6
v 11.2 1.8 -2.6
v 11.1 1.8 -2.6
v 11.1 1.9 -2.6
v 11.2 1.9 -2.5
v 11.2 1.8 -2.5
v 11.3 1.8 -2.5
v 11.3 1.9 -2.5
v 11.3 1.9 -2.6
v 11.3 1.8 -2.6
v 11.2 1.8 -2.6
v 11.2 1.9 -2.6
v 11.3 1.8 -2.5
v 11.3 1.8 -2.6
v 11.4 1.8 -2.6
v 11.4 1.8 -2.5
v 11.3 1.9 -2.5
v 11.3 1.8 -2.5
v 11.4 1.8 -2.5
v 11.4 1.9 -2.5
v 11.4 1.9 -2.6
v 11.4 1.8 -2.6
v 11.3 1.8 -2.6
v 11.3 1.9 -2.6
v 11.4 1.9 -2.5
v 11.4 1.8 -2.5
v 11.5 1.8 -2.5
v 11.5 1.9 -2.5
v 11.5 1.9 -2.6
v 11.5 1.8 -2.6
v 11.4 1.8 -2.6
v 11.4 1.9 -2.6
v 11.6 1.9 -2.5
v 11.6 1.8 -2.5
v 11.6 1.8 -2.6
v 11.6 1.9 -2.6
v 11.5 1.9 -2.5
v 11.5 1.8 -2.5
v 11.6 1.8 -2.5
v 11.6 1.9 -2.5
v 11.6 1.9 -2.6
v 11.6 1.8 -2.6
v 11.5 1.8 -2.6
v 11.5 1.9 -2.6
v 10.9 1.8 -2.6
v 10.9 1.7 -2.6
v 10.9 1.7 -2.5
v 10.9 1.8 -2.5
v 10.9 1.8 -2.6
v 10.9 1.8 -2.5
v 11 1.8 -2.5
v 11 1.8 -2.6
v 10.9 1.8 -2.5
v 10.9 1.7 -2.5
v 11 1.7 -2.5
v 11 1.8 -2.5
v 11 1.8 -2.6
v 11 1.7 -2.6
v 10.9 1.7 -2.6
v 10.9 1.8 -2.6
v 11 1.8 -2.5
v 11 1.7 -2.5
v 11.1 1.7 -2.5
v 11.1 1.8 -2.5
v 11.1 1.8 -2.6
v 11.1 1.7 -2.6
v 11 1.7 -2.6
v 11 1.8 -2.6
v 11.1 1.8 -2.5
v 11.1 1.7 -2.5
v 11.2 1.7 -2.5
v 11.2 1.8 -2.5
v 11.2 1.8 -2.6
v 11.2 1.7 -2.6
v 11.1 1.7 -2.6
v 11.1 1.8 -2.6
v 11.3 1.8 -2.5
v 11.3 1.7 -2.5
v 11.3 1.7 -2.6
v 11.3 1.8 -2.6
v 11.2 1.7 -2.5
v 11.2 1.7 -2.6
v 11.3 1.7 -2.6
v 11.3 1.7 -2.5
v 11.2 1.8 -2.5
v 11.2 1.7 -2.5
v 11.3 1.7 -2.5
v 11.3 1.8 -2.5
v 11.3 1.8 -2.6
v 11.3 1.7 -2.6
v 11.2 1.7 -2.6
v 11.2 1.8 -2.6
v 11.4 1.8 -2.6
v 11.4 1.7 -2.6
v 11.4 1.7 -2.5
v 11.4 1.8 -2.5
v 11.4 1.8 -2.5
v 11.4 1.7 -2.5
v 11.5 1.7 -2.5
v 11.5 1.8 -2.5
v 11.5 1.8 -2.6
v 11.5 1.7 -2.6
v 11.4 1.7 -2.6
v 11.4 1.8 -2.6
v 11.5 1.8 -2.5
v 11.5 1.7 -2.5
v 11.6 1.7 -2.5
v 11.6 1.8 -2.5
v 11.6 1.8 -2.6
v 11.6 1.7 -2.6
v 11.5 1.7 -2.6
v 11.5 1.8 -2.6
v 11.6 1.8 -2.6
v 11.6 1.8 -2.5
v 11.7 1.8 -2.5
v 11.7 1.8 -2.6
v 11.6 1.8 -2.5
v 11.6 1.7 -2.5
v 11.7 1.7 -2.5
v 11.7 1.8 -2.5
v 11.7 1.8 -2.6
v 11.7 1.7 -2.6
v 11.6 1.7 -2.6
v 11.6 1.8 -2.6
v 11.8 1.8 -2.5
v 11.8 1.7 -2.5
v 11.8 1.7 -2.6
v 11.8 1.8 -2.6
v 11.7 1.8 -2.6
v 11.7 1.8 -2.5
v 11.8 1.8 -2.5
v 11.8 1.8 -2.6
v 11.7 1.8 -2.5
v 11.7 1.7 -2.5
v 11.8 1.7 -2.5
v 11.8 1.8 -2.5
v 11.8 1.8 -2.6
v 11.8 1.7 -2.6
v 11.7 1.7 -2.6
v 11.7 1.8 -2.6
v 10.9 1.7 -2.6
v 10.9 1.6 -2.6
v 10.9 1.6 -2.5
v 10.9 1.7 -2.5
v 10.9 1.7 -2.5
v 10.9 1.6 -2.5
v 11 1.6 -2.5
v 11 1.7 -2.5
v 11 1.7 -2.6
v 11 1.6 -2.6
v 10.9 1.6 -2.6
v 10.9 1.7 -2.6
v 11 1.7 -2.5
v 11 1.6 -2.5
v 11.1 1.6 -2.5
v 11.1 1.7 -2.5
v 11.1 1.7 -2.6
v 11.1 1.6 -2.6
v 11 1.6 -2.6
v 11 1.7 -2.6
v 11.2 1.7 -2.5
v 11.2 1.6 -2.5
v 11.2 1.6 -2.6
v 11.2 1.7 -2.6
v 11.1 1.6 -2.5
v 11.1 1.6 -2.6
v 11.2 1.6 -2.6
v 11.2 1.6 -2.5
v 11.1 1.7 -2.5
v 11.1 1.6 -2.5
v 11.2 1.6 -2.5
v 11.2 1.7 -2.5
v 11.2 1.7 -2.6
v 11.2 1.6 -2.6
v 11.1 1.6 -2.6
v 11.1 1.7 -2.6
v 11.3 1.7 -2.6
v 11.3 1.6 -2.6
v 11.3 1.6 -2.5
v 11.3 1.7 -2.5
v 11.3 1.7 -2.6
v 11.3 1.7 -2.5
v 11.4 1.7 -2.5
v 11.4 1.7 -2.6
v 11.3 1.7 -2.5
v 11.3 1.6 -2.5
v 11.4 1.6 -2.5
v 11.4 1.7 -2.5
v 11.4 1.7 -2.6
v 11.4 1.6 -2.6
v 11.3 1.6 -2.6
v 11.3 1.7 -2.6
v 11.4 1.7 -2.5
v 11.4 1.6 -2.5
v 11.5 1.6 -2.5
v 11.5 1.7 -2.5
v 11.5 1.7 -2.6
v 11.5 1.6 -2.6
v 11.4 1.6 -2.6
v 11.4 1.7 -2.6
v 11.5 1.7 -2.5
v 11.5 1.6 -2.5
v 11.6 1.6 -2.5
v 11.6 1.7 -2.5
v 11.6 1.7 -2.6
v 11.6 1.6 -2.6
v 11.5 1.6 -2.6
v 11.5 1.7 -2.6
v 11.6 1.7 -2.5
v 11.6 1.6 -2.5
v 11.7 1.6 -2.5
v 11.7 1.7 -2.5
v 11.7 1.7 -2.6
v 11.7 1.6 -2.6
v 11.6 1.6 -2.6
v 11.6 1.7 -2.6
v 11.7 1.7 -2.5
v 11.7 1.6 -2.5
v 11.8 1.6 -2.5
v 11.8 1.7 -2.5
v 11.8 1.7 -2.6
v 11.8 1.6 -2.6
v 11.7 1.6 -2.6
v 11.7 1.7 -2.6
v 11.8 1.7 -2.6
v 11.8 1.7 -2.5
v 11.9 1.7 -2.5
v 11.9 1.7 -2.6
v 11.8 1.7 -2.5
v 11.8 1.6 -2.5
v 11.9 1.6 -2.5
v 11.9 1.7 -2.5
v 11.9 1.7 -2.6
v 11.9 1.6 -2.6
v 11.8 1.6 -2.6
v 11.8 1.7 -2.6
v 12 1.7 -2.5
v 12 1.6 -2.5
v 12 1.6 -2.6
v 12 1.7 -2.6
v 11.9 1.7 -2.6
v 11.9 1.7 -2.5
v 12 1.7 -2.5
v 12 1.7 -2.6
v 11.9 1.7 -2.5
v 11.9 1.6 -2.5
v 12 1.6 -2.5
v 12 1.7 -2.5
v 12 1.7 -2.6
v 12 1.6 -2.6
v 11.9 1.6 -2.6
v 11.9 1.7 -2.6
v 10.9 1.6 -2.6
v 10.9 1.5 -2.6
v 10.9 1.5 -2.5
v 10.9 1.6 -2.5
v 10.9 1.6 -2.5
v 10.9 1.5 -2.5
v 11 1.5 -2.5
v 11 1.6 -2.5
v 11 1.6 -2.6
v 11 1.5 -2.6
v 10.9 1.5 -2.6
v 10.9 1.6 -2.6
v 11.1 1.6 -2.5
v 11.1 1.5 -2.5
v 11.1 1.5 -2.6
v 11.1 1.6 -2.6
v 11 1.5 -2.5
v 11 1.5 -2.6
v 11.1 1.5 -2.6
v 11.1 1.5 -2.5
v 11 1.6 -2.5
v 11 1.5 -2.5
v 11.1 1.5 -2.5
v 11.1 1.6 -2.5
v 11.1 1.6 -2.6
v 11.1 1.5 -2.6
v 11 1.5 -2.6
v 11 1.6 -2.6
v 11.3 1.6 -2.6
v 11.3 1.5 -2.6
v 11.3 1.5 -2.5
v 11.3 1.6 -2.5
v 11.3 1.6 -2.5
v 11.3 1.5 -2.5
v 11.4 1.5 -2.5
v 11.4 1.6 -2.5
v 11.4 1.6 -2.6
v 11.4 1.5 -2.6
v 11.3 1.5 -2.6
v 11.3 1.6 -2.6
v 11.4 1.6 -2.5
v 11.4 1.5 -2.5
v 11.5 1.5 -2.5
v 11.5 1.6 -2.5
v 11.5 1.6 -2.6
v 11.5 1.5 -2.6
v 11.4 1.5 -2.6
v 11.4 1.6 -2.6
v 11.5 1.6 -2.5
v 11.5 1.5 -2.5
v 11.6 1.5 -2.5
v 11.6 1.6 -2.5
v 11.6 1.6 -2.6
v 11.6 1.5 -2.6
v 11.5 1.5 -2.6
v 11.5 1.6 -2.6
v 11.6 1.6 -2.5
v 11.6 1.5 -2.5
v 11.7 1.5 -2.5
v 11.7 1.6 -2.5
v 11.7 1.6 -2.6
v 11.7 1.5 -2.6
v 11.6 1.5 -2.6
v 11.6 1.6 -2.6
v 11.7 1.6 -2.5
v 11.7 1.5 -2.5
v 11.8 1.5 -2.5
v 11.8 1.6 -2.5
v 11.8 1.6 -2.6
v 11.8 1.5 -2.6
v 11.7 1.5 -2.6
v 11.7 1.6 -2.6
v 11.8 1.6 -2.5
v 11.8 1.5 -2.5
v 11.9 1.5 -2.5
v 11.9 1.6 -2.5
v 11.9 1.6 -2.6
v 11.9 1.5 -2.6
v 11.8 1.5 -2.6
v 11.8 1.6 -2.6
v 11.9 1.6 -2.5
v 11.9 1.5 -2.5
v 12 1.5 -2.5
v 12 1.6 -2.5
v 12 1.6 -2.6
v 12 1.5 -2.6
v 11.9 1.5 -2.6
v 11.9 1.6 -2.6
v 12.1 1.6 -2.5
v 12.1 1.5 -2.5
v 12.1 1.5 -2.6
v 12.1 1.6 -2.6
v 12 1.6 -2.6
v 12 1.6 -2.5
v 12.1 1.6 -2.5
v 12.1 1.6 -2.6
v 12 1.6 -2.5
v 12 1.5 -2.5
v 12.1 1.5 -2.5
v 12.1 1.6 -2.5
v 12.1 1.6 -2.6
v 12.1 1.5 -2.6
v 12 1.5 -2.6
v 12 1.6 -2.6
v 10.8 1.5 -2.6
v 10.8 1.4 -2.6
v 10.8 1.4 -2.5
v 10.8 1.5 -2.5
v 10.8 1.5 -2.6
v 10.8 1.5 -2.5
v 10.9 1.5 -2.5
v 10.9 1.5 -2.6
v 10.8 1.5 -2.5
v 10.8 1.4 -2.5
v 10.9 1.4 -2.5
v 10.9 1.5 -2.5
v 10.9 1.5 -2.6
v 10.9 1.4 -2.6
v 10.8 1.4 -2.6
v 10.8 1.5 -2.6
v 11 1.5 -2.5
v 11 1.4 -2.5
v 11 1.4 -2.6
v 11 1.5 -2.6
v 10.9 1.4 -2.5
v 10.9 1.4 -2.6
v 11 1.4 -2.6
v 11 1.4 -2.5
v 10.9 1.5 -2.5
v 10.9 1.4 -2.5
v 11 1.4 -2.5
v 11 1.5 -2.5
v 11 1.5 -2.6
v 11 1.4 -2.6
v 10.9 1.4 -2.6
v 10.9 1.5 -2.6
v 11.3 1.5 -2.6
v 11.3 1.4 -2.6
v 11.3 1.4 -2.5
v 11.3 1.5 -2.5
v 11.3 1.5 -2.5
v 11.3 1.4 -2.5
v 11.4 1.4 -2.5
v 11.4 1.5 -2.5
v 11.4 1.5 -2.6
v 11.4 1.4 -2.6
v 11.3 1.4 -2.6
v 11.3 1.5 -2.6
v 11.4 1.5 -2.5
v 11.4 1.4 -2.5
v 11.5 1.4 -2.5
v 11.5 1.5 -2.5
v 11.5 1.5 -2.6
v 11.5 1.4 -2.6
v 11.4 1.4 -2.6
v 11.4 1.5 -2.6
v 11.5 1.4 -2.5
v 11.5 1.4 -2.6
v 11.6 1.4 -2.6
v 11.6 1.4 -2.5
v 11.5 1.5 -2.5
v 11.5 1.4 -2.5
v 11.6 1.4 -2.5
v 11.6 1.5 -2.5
v 11.6 1.5 -2.6
v 11.6 1.4 -2.6
v 11.5 1.4 -2.6
v 11.5 1.5 -2.6
v 11.6 1.5 -2.5
v 11.6 1.4 -2.5
v 11.7 1.4 -2.5
v 11.7 1.5 -2.5
v 11.7 1.5 -2.6
v 11.7 1.4 -2.6
v 11.6 1.4 -2.6
v 11.6 1.5 -2.6
v 11.7 1.5 -2.5
v 11.7 1.4 -2.5
v 11.8 1.4 -2.5
v 11.8 1.5 -2.5
v 11.8 1.5 -2.6
v 11.8 1.4 -2.6
v 11.7 1.4 -2.6
v 11.7 1.5 -2.6
v 11.8 1.5 -2.5
v 11.8 1.4 -2.5
v 11.9 1.4 -2.5
v 11.9 1.5 -2.5
v 11.9 1.5 -2.6
v 11.9 1.4 -2.6
v 11.8 1.4 -2.6
v 11.8 1.5 -2.6
v 11.9 1.5 -2.5
v 11.9 1.4 -2.5
v 12 1.4 -2.5
v 12 1.5 -2.5
v 12 1.5 -2.6
v 12 1.4 -2.6
v 11.9 1.4 -2.6
v 11.9 1.5 -2.6
v 12 1.5 -2.5
v 12 1.4 -2.5
v 12.1 1.4 -2.5
v 12.1 1.5 -2.5
v 12.1 1.5 -2.6
v 12.1 1.4 -2.6
v 12 1.4 -2.6
v 12 1.5 -2.6
v 12.1 1.5 -2.6
v 12.1 1.5 -2.5
v 12.2 1.5 -2.5
v 12.2 1.5 -2.6
v 12.1 1.5 -2.5
v 12.1 1.4 -2.5
v 12.2 1.4 -2.5
v 12.2 1.5 -2.5
v 12.2 1.5 -2.6
v 12.2 1.4 -2.6
v 12.1 1.4 -2.6
v 12.1 1.5 -2.6
v 12.2 1.5 -2.6
v 12.2 1.5 -2.5
v 12.3 1.5 -2.5
v 12.3 1.5 -2.6
v 12.2 1.5 -2.5
v 12.2 1.4 -2.5
v 12.3 1.4 -2.5
v 12.3 1.5 -2.5
v 12.3 1.5 -2.6
v 12.3 1.4 -2.6
v 12.2 1.4 -2.6
v 12.2 1.5 -2.6
v 12.4 1.5 -2.5
v 12.4 1.4 -2.5
v 12.4 1.4 -2.6
v 12.4 1.5 -2.6
v 12.3 1.5 -2.6
v 12.3 1.5 -2.5
v 12.4 1.5 -2.5
v 12.4 1.5 -2.6
v 12.3 1.5 -2.5
v 12.3 1.4 -2.5
v 12.4 1.4 -2.5
v 12.4 1.5 -2.5
v 12.4 1.5 -2.6
v 12.4 1.4 -2.6
v 12.3 1.4 -2.6
v 12.3 1.5 -2.6
v 10.8 1.4 -2.6
v 10.8 1.3 -2.6
v 10.8 1.3 -2.5
v 10.8 1.4 -2.5
v 10.9 1.4 -2.5
v 10.9 1.3 -2.5
v 10.9 1.3 -2.6
v 10.9 1.4 -2.6
v 10.8 1.3 -2.5
v 10.8 1.3 -2.6
v 10.9 1.3 -2.6
v 10.9 1.3 -2.5
v 10.8 1.4 -2.5
v 10.8 1.3 -2.5
v 10.9 1.3 -2.5
v 10.9 1.4 -2.5
v 10.9 1.4 -2.6
v 10.9 1.3 -2.6
v 10.8 1.3 -2.6
v 10.8 1.4 -2.6
v 11.3 1.4 -2.6
v 11.3 1.3 -2.6
v 11.3 1.3 -2.5
v 11.3 1.4 -2.5
v 11.3 1.3 -2.5
v 11.3 1.3 -2.6
v 11.4 1.3 -2.6
v 11.4 1.3 -2.5
v 11.3 1.4 -2.5
v 11.3 1.3 -2.5
v 11.4 1.3 -2.5
v 11.4 1.4 -2.5
v 11.4 1.4 -2.6
v 11.4 1.3 -2.6
v 11.3 1.3 -2.6
v 11.3 1.4 -2.6
v 11.5 1.4 -2.5
v 11.5 1.3 -2.5
v 11.5 1.3 -2.6
v 11.5 1.4 -2.6
v 11.4 1.4 -2.5
v 11.4 1.3 -2.5
v 11.5 1.3 -2.5
v 11.5 1.4 -2.5
v 11.5 1.4 -2.6
v 11.5 1.3 -2.6
v 11.4 1.3 -2.6
v 11.4 1.4 -2.6
v 11.6 1.4 -2.6
v 11.6 1.3 -2.6
v 11.6 1.3 -2.5
v 11.6 1.4 -2.5
v 11.6 1.4 -2.5
v 11.6 1.3 -2.5
v 11.7 1.3 -2.5
v 11.7 1.4 -2.5
v 11.7 1.4 -2.6
v 11.7 1.3 -2.6
v 11.6 1.3 -2.6
v 11.6 1.4 -2.6
v 11.7 1.4 -2.5
v 11.7 1.3 -2.5
v 11.8 1.3 -2.5
v 11.8 1.4 -2.5
v 11.8 1.4 -2.6
v 11.8 1.3 -2.6
v 11.7 1.3 -2.6
v 11.7 1.4 -2.6
v 11.8 1.4 -2.5
v 11.8 1.3 -2.5
v 11.9 1.3 -2.5
v 11.9 1.4 -2.5
v 11.9 1.4 -2.6
v 11.9 1.3 -2.6
v 11.8 1.3 -2.6
v 11.8 1.4 -2.6
v 11.9 1.4 -2.5
v 11.9 1.3 -2.5
v 12 1.3 -2.5
v 12 1.4 -2.5
v 12 1.4 -2.6
v 12 1.3 -2.6
v 11.9 1.3 -2.6
v 11.9 1.4 -2.6
v 12 1.4 -2.5
v 12 1.3 -2.5
v 12.1 1.3 -2.5
v 12.1 1.4 -2.5
v 12.1 1.4 -2.6
v 12.1 1.3 -2.6
v 12 1.3 -2.6
v 12 1.4 -2.6
v 12.1 1.4 -2.5
v 12.1 1.3 -2.5
v 12.2 1.3 -2.5
v 12.2 1.4 -2.5
v 12.2 1.4 -2.6
v 12.2 1.3 -2.6
v 12.1 1.3 -2.6
v 12.1 1.4 -2.6
v 12.2 1.4 -2.5
v 12.2 1.3 -2.5
v 12.3 1.3 -2.5
v 12.3 1.4 -2.5
v 12.3 1.4 -2.6
v 12.3 1.3 -2.6
v 12.2 1.3 -2.6
v 12.2 1.4 -2.6
v 12.3 1.4 -2.5
v 12.3 1.3 -2.5
v 12.4 1.3 -2.5
v 12.4 1.4 -2.5
v 12.4 1.4 -2.6
v 12.4 1.3 -2.6
v 12.3 1.3 -2.6
v 12.3 1.4 -2.6
v 12.4 1.4 -2.6
v 12.4 1.4 -2.5
v 12.5 1.4 -2.5
v 12.5 1.4 -2.6
v 12.4 1.4 -2.5
v 12.4 1.3 -2.5
v 12.5 1.3 -2.5
v 12.5 1.4 -2.5
v 12.5 1.4 -2.6
v 12.5 1.3 -2.6
v 12.4 1.3 -2.6
v 12.4 1.4 -2.6
v 12.5 1.4 -2.6
v 12.5 1.4 -2.5
v 12.6 1.4 -2.5
v 12.6 1.4 -2.6
v 12.5 1.4 -2.5
v 12.5 1.3 -2.5
v 12.6 1.3 -2.5
v 12.6 1.4 -2.5
v 12.6 1.4 -2.6
v 12.6 1.3 -2.6
v 12.5 1.3 -2.6
v 12.5 1.4 -2.6
v 12.6 1.4 -2.6
v 12.6 1.4 -2.5
v 12.7 1.4 -2.5
v 12.7 1.4 -2.6
v 12.6 1.4 -2.5
v 12.6 1.3 -2.5
v 12.7 1.3 -2.5
v 12.7 1.4 -2.5
v 12.7 1.4 -2.6
v 12.7 1.3 -2.6
v 12.6 1.3 -2.6
v 12.6 1.4 -2.6
v 12.7 1.4 -2.6
v 12.7 1.4 -2.5
v 12.8 1.4 -2.5
v 12.8 1.4 -2.6
v 12.7 1.4 -2.5
v 12.7 1.3 -2.5
v 12.8 1.3 -2.5
v 12.8 1.4 -2.5
v 12.8 1.4 -2.6
v 12.8 1.3 -2.6
v 12.7 1.3 -2.6
v 12.7 1.4 -2.6
v 12.8 1.4 -2.6
v 12.8 1.4 -2.5
v 12.9 1.4 -2.5
v 12.9 1.4 -2.6
v 12.8 1.4 -2.5
v 12.8 1.3 -2.5
v 12.9 1.3 -2.5
v 12.9 1.4 -2.5
v 12.9 1.4 -2.6
v 12.9 1.3 -2.6
v 12.8 1.3 -2.6
v 12.8 1.4 -2.6
v 12.9 1.4 -2.6
v 12.9 1.4 -2.5
v 13 1.4 -2.5
v 13 1.4 -2.6
v 12.9 1.4 -2.5
v 12.9 1.3 -2.5
v 13 1.3 -2.5
v 13 1.4 -2.5
v 13 1.4 -2.6
v 13 1.3 -2.6
v 12.9 1.3 -2.6
v 12.9 1.4 -2.6
v 13 1.4 -2.6
v 13 1.4 -2.5
v 13.1 1.4 -2.5
v 13.1 1.4 -2.6
v 13 1.4 -2.5
v 13 1.3 -2.5
v 13.1 1.3 -2.5
v 13.1 1.4 -2.5
v 13.1 1.4 -2.6
v 13.1 1.3 -2.6
v 13 1.3 -2.6
v 13 1.4 -2.6
v 13.2 1.4 -2.5
v 13.2 1.3 -2.5
v 13.2 1.3 -2.6
v 13.2 1.4 -2.6
v 13.1 1.4 -2.6
v 13.1 1.4 -2.5
v 13.2 1.4 -2.5
v 13.2 1.4 -2.6
v 13.1 1.4 -2.5
v 13.1 1.3 -2.5
v 13.2 1.3 -2.5
v 13.2 1.4 -2.5
v 13.2 1.4 -2.6
v 13.2 1.3 -2.6
v 13.1 1.3 -2.6
v 13.1 1.4 -2.6
v 11.4 1.3 -2.6
v 11.4 1.2 -2.6
v 11.4 1.2 -2.5
v 11.4 1.3 -2.5
v 11.5 1.3 -2.5
v 11.5 1.2 -2.5
v 11.5 1.2 -2.6
v 11.5 1.3 -2.6
v 11.4 1.2 -2.5
v 11.4 1.2 -2.6
v 11.5 1.2 -2.6
v 11.5 1.2 -2.5
v 11.4 1.3 -2.5
v 11.4 1.2 -2.5
v 11.5 1.2 -2.5
v 11.5 1.3 -2.5
v 11.5 1.3 -2.6
v 11.5 1.2 -2.6
v 11.4 1.2 -2.6
v 11.4 1.3 -2.6
v 11.6 1.3 -2.6
v 11.6 1.2 -2.6
v 11.6 1.2 -2.5
v 11.6 1.3 -2.5
v 11.6 1.3 -2.5
v 11.6 1.2 -2.5
v 11.7 1.2 -2.5
v 11.7 1.3 -2.5
v 11.7 1.3 -2.6
v 11.7 1.2 -2.6
v 11.6 1.2 -2.6
v 11.6 1.3 -2.6
v 11.7 1.3 -2.5
v 11.7 1.2 -2.5
v 11.8 1.2 -2.5
v 11.8 1.3 -2.5
v 11.8 1.3 -2.6
v 11.8 1.2 -2.6
v 11.7 1.2 -2.6
v 11.7 1.3 -2.6
v 11.8 1.3 -2.5
v 11.8 1.2 -2.5
v 11.9 1.2 -2.5
v 11.9 1.3 -2.5
v 11.9 1.3 -2.6
v 11.9 1.2 -2.6
v 11.8 1.2 -2.6
v 11.8 1.3 -2.6
v 11.9 1.3 -2.5
v 11.9 1.2 -2.5
v 12 1.2 -2.5
v 12 1.3 -2.5
v 12 1.3 -2.6
v 12 1.2 -2.6
v 11.9 1.2 -2.6
v 11.9 1.3 -2.6
v 12 1.3 -2.5
v 12 1.2 -2.5
v 12.1 1.2 -2.5
v 12.1 1.3 -2.5
v 12.1 1.3 -2.6
v 12.1 1.2 -2.6
v 12 1.2 -2.6
v 12 1.3 -2.6
v 12.1 1.3 -2.5
v 12.1 1.2 -2.5
v 12.2 1.2 -2.5
v 12.2 1.3 -2.5
v 12.2 1.3 -2.6
v 12.2 1.2 -2.6
v 12.1 1.2 -2.6
v 12.1 1.3 -2.6
v 12.2 1.3 -2.5
v 12.2 1.2 -2.5
v 12.3 1.2 -2.5
v 12.3 1.3 -2.5
v 12.3 1.3 -2.6
v 12.3 1.2 -2.6
v 12.2 1.2 -2.6
v 12.2 1.3 -2.6
v 12.3 1.3 -2.5
v 12.3 1.2 -2.5
v 12.4 1.2 -2.5
v 12.4 1.3 -2.5
v 12.4 1.3 -2.6
v 12.4 1.2 -2.6
v 12.3 1.2 -2.6
v 12.3 1.3 -2.6
v 12.4 1.3 -2.5
v 12.4 1.2 -2.5
v 12.5 1.2 -2.5
v 12.5 1.3 -2.5
v 12.5 1.3 -2.6
v 12.5 1.2 -2.6
v 12.4 1.2 -2.6
v 12.4 1.3 -2.6
v 12.5 1.3 -2.5
v 12.5 1.2 -2.5
v 12.6 1.2 -2.5
v 12.6 1.3 -2.5
v 12.6 1.3 -2.6
v 12.6 1.2 -2.6
v 12.5 1.2 -2.6
v 12.5 1.3 -2.6
v 12.6 1.3 -2.5
v 12.6 1.2 -2.5
v 12.7 1.2 -2.5
v 12.7 1.3 -2.5
v 12.7 1.3 -2.6
v 12.7 1.2 -2.6
v 12.6 1.2 -2.6
v 12.6 1.3 -2.6
v 12.7 1.3 -2.5
v 12.7 1.2 -2.5
v 12.8 1.2 -2.5
v 12.8 1.3 -2.5
v 12.8 1.3 -2.6
v 12.8 1.2 -2.6
v 12.7 1.2 -2.6
v 12.7 1.3 -2.6
v 12.8 1.3 -2.5
v 12.8 1.2 -2.5
v 12.9 1.2 -2.5
v 12.9 1.3 -2.5
v 12.9 1.3 -2.6
v 12.9 1.2 -2.6
v 12.8 1.2 -2.6
v 12.8 1.3 -2.6
v 12.9 1.3 -2.5
v 12.9 1.2 -2.5
v 13 1.2 -2.5
v 13 1.3 -2.5
v 13 1.3 -2.6
v 13 1.2 -2.6
v 12.9 1.2 -2.6
v 12.9 1.3 -2.6
v 13 1.3 -2.5
v 13 1.2 -2.5
v 13.1 1.2 -2.5
v 13.1 1.3 -2.5
v 13.1 1.3 -2.6
v 13.1 1.2 -2.6
v 13 1.2 -2.6
v 13 1.3 -2.6
v 13.1 1.3 -2.5
v 13.1 1.2 -2.5
v 13.2 1.2 -2.5
v 13.2 1.3 -2.5
v 13.2 1.3 -2.6
v 13.2 1.2 -2.6
v 13.1 1.2 -2.6
v 13.1 1.3 -2.6
v 13.2 1.3 -2.6
v 13.2 1.3 -2.5
v 13.3 1.3 -2.5
v 13.3 1.3 -2.6
v 13.2 1.3 -2.5
v 13.2 1.2 -2.5
v 13.3 1.2 -2.5
v 13.3 1.3 -2.5
v 13.3 1.3 -2.6
v 13.3 1.2 -2.6
v 13.2 1.2 -2.6
v 13.2 1.3 -2.6
v 13.3 1.3 -2.6
v 13.3 1.3 -2.5
v 13.4 1.3 -2.5
v 13.4 1.3 -2.6
v 13.3 1.3 -2.5
v 13.3 1.2 -2.5
v 13.4 1.2 -2.5
v 13.4 1.3 -2.5
v 13.4 1.3 -2.6
v 13.4 1.2 -2.6
v 13.3 1.2 -2.6
v 13.3 1.3 -2.6
v 13.4 1.3 -2.6
v 13.4 1.3 -2.5
v 13.5 1.3 -2.5
v 13.5 1.3 -2.6
v 13.4 1.3 -2.5
v 13.4 1.2 -2.5
v 13.5 1.2 -2.5
v 13.5 1.3 -2.5
v 13.5 1.3 -2.6
v 13.5 1.2 -2.6
v 13.4 1.2 -2.6
v 13.4 1.3 -2.6
v 13.5 1.3 -2.6
v 13.5 1.3 -2.5
v 13.6 1.3 -2.5
v 13.6 1.3 -2.6
v 13.5 1.3 -2.5
v 13.5 1.2 -2.5
v 13.6 1.2 -2.5
v 13.6 1.3 -2.5
v 13.6 1.3 -2.6
v 13.6 1.2 -2.6
v 13.5 1.2 -2.6
v 13.5 1.3 -2.6
v 13.6 1.3 -2.6
v 13.6 1.3 -2.5
v 13.7 1.3 -2.5
v 13.7 1.3 -2.6
v 13.6 1.2 -2.5
v 13.6 1.2 -2.6
v 13.7 1.2 -2.6
v 13.7 1.2 -2.5
v 13.6 1.3 -2.5
v 13.6 1.2 -2.5
v 13.7 1.2 -2.5
v 13.7 1.3 -2.5
v 13.7 1.3 -2.6
v 13.7 1.2 -2.6
v 13.6 1.2 -2.6
v 13.6 1.3 -2.6
v 13.7 1.3 -2.6
v 13.7 1.3 -2.5
v 13.8 1.3 -2.5
v 13.8 1.3 -2.6
v 13.7 1.2 -2.5
v 13.7 1.2 -2.6
v 13.8 1.2 -2.6
v 13.8 1.2 -2.5
v 13.7 1.3 -2.5
v 13.7 1.2 -2.5
v 13.8 1.2 -2.5
v 13.8 1.3 -2.5
v 13.8 1.3 -2.6
v 13.8 1.2 -2.6
v 13.7 1.2 -2.6
v 13.7 1.3 -2.6
v 13.8 1.3 -2.6
v 13.8 1.3 -2.5
v 13.9 1.3 -2.5
v 13.9 1.3 -2.6
v 13.8 1.2 -2.5
v 13.8 1.2 -2.6
v 13.9 1.2 -2.6
v 13.9 1.2 -2.5
v 13.8 1.3 -2.5
v 13.8 1.2 -2.5
v 13.9 1.2 -2.5
v 13.9 1.3 -2.5
v 13.9 1.3 -2.6
v 13.9 1.2 -2.6
v 13.8 1.2 -2.6
v 13.8 1.3 -2.6
v 14 1.3 -2.5
v 14 1.2 -2.5
v 14 1.2 -2.6
v 14 1.3 -2.6
v 13.9 1.3 -2.6
v 13.9 1.3 -2.5
v 14 1.3 -2.5
v 14 1.3 -2.6
v 13.9 1.2 -2.5
v 13.9 1.2 -2.6
v 14 1.2 -2.6
v 14 1.2 -2.5
v 13.9 1.3 -2.5
v 13.9 1.2 -2.5
v 14 1.2 -2.5
v 14 1.3 -2.5
v 14 1.3 -2.6
v 14 1.2 -2.6
v 13.9 1.2 -2.6
v 13.9 1.3 -2.6
v 11.6 1.2 -2.6
v 11.6 1.1 -2.6
v 11.6 1.1 -2.5
v 11.6 1.2 -2.5
v 11.6 1.1 -2.5
v 11.6 1.1 -2.6
v 11.7 1.1 -2.6
v 11.7 1.1 -2.5
v 11.6 1.2 -2.5
v 11.6 1.1 -2.5
v 11.7 1.1 -2.5
v 11.7 1.2 -2.5
v 11.7 1.2 -2.6
v 11.7 1.1 -2.6
v 11.6 1.1 -2.6
v 11.6 1.2 -2.6
v 11.7 1.2 -2.5
v 11.7 1.1 -2.5
v 11.8 1.1 -2.5
v 11.8 1.2 -2.5
v 11.8 1.2 -2.6
v 11.8 1.1 -2.6
v 11.7 1.1 -2.6
v 11.7 1.2 -2.6
v 11.8 1.2 -2.5
v 11.8 1.1 -2.5
v 11.9 1.1 -2.5
v 11.9 1.2 -2.5
v 11.9 1.2 -2.6
v 11.9 1.1 -2.6
v 11.8 1.1 -2.6
v 11.8 1.2 -2.6
v 11.9 1.2 -2.5
v 11.9 1.1 -2.5
v 12 1.1 -2.5
v 12 1.2 -2.5
v 12 1.2 -2.6
v 12 1.1 -2.6
v 11.9 1.1 -2.6
v 11.9 1.2 -2.6
v 12 1.2 -2.5
v 12 1.1 -2.5
v 12.1 1.1 -2.5
v 12.1 1.2 -2.5
v 12.1 1.2 -2.6
v 12.1 1.1 -2.6
v 12 1.1 -2.6
v 12 1.2 -2.6
v 12.1 1.2 -2.5
v 12.1 1.1 -2.5
v 12.2 1.1 -2.5
v 12.2 1.2 -2.5
v 12.2 1.2 -2.6
v 12.2 1.1 -2.6
v 12.1 1.1 -2.6
v 12.1 1.2 -2.6
v 12.2 1.2 -2.5
v 12.2 1.1 -2.5
v 12.3 1.1 -2.5
v 12.3 1.2 -2.5
v 12.3 1.2 -2.6
v 12.3 1.1 -2.6
v 12.2 1.1 -2.6
v 12.2 1.2 -2.6
v 12.3 1.2 -2.5
v 12.3 1.1 -2.5
v 12.4 1.1 -2.5
v 12.4 1.2 -2.5
v 12.4 1.2 -2.6
v 12.4 1.1 -2.6
v 12.3 1.1 -2.6
v 12.3 1.2 -2.6
v 12.4 1.2 -2.5
v 12.4 1.1 -2.5
v 12.5 1.1 -2.5
v 12.5 1.2 -2.5
v 12.5 1.2 -2.6
v 12.5 1.1 -2.6
v 12.4 1.1 -2.6
v 12.4 1.2 -2.6
v 12.5 1.2 -2.5
v 12.5 1.1 -2.5
v 12.6 1.1 -2.5
v 12.6 1.2 -2.5
v 12.6 1.2 -2.6
v 12.6 1.1 -2.6
v 12.5 1.1 -2.6
v 12.5 1.2 -2.6
v 12.6 1.2 -2.5
v 12.6 1.1 -2.5
v 12.7 1.1 -2.5
v 12.7 1.2 -2.5
v 12.7 1.2 -2.6
v 12.7 1.1 -2.6
v 12.6 1.1 -2.6
v 12.6 1.2 -2.6
v 12.7 1.2 -2.5
v 12.7 1.1 -2.5
v 12.8 1.1 -2.5
v 12.8 1.2 -2.5
v 12.8 1.2 -2.6
v 12.8 1.1 -2.6
v 12.7 1.1 -2.6
v 12.7 1.2 -2.6
v 12.8 1.2 -2.5
v 12.8 1.1 -2.5
v 12.9 1.1 -2.5
v 12.9 1.2 -2.5
v 12.9 1.2 -2.6
v 12.9 1.1 -2.6
v 12.8 1.1 -2.6
v 12.8 1.2 -2.6
v 12.9 1.2 -2.5
v 12.9 1.1 -2.5
v 13 1.1 -2.5
v 13 1.2 -2.5
v 13 1.2 -2.6
v 13 1.1 -2.6
v 12.9 1.1 -2.6
v 12.9 1.2 -2.6
v 13 1.2 -2.5
v 13 1.1 -2.5
v 13.1 1.1 -2.5
v 13.1 1.2 -2.5
v 13.1 1.2 -2.6
v 13.1 1.1 -2.6
v 13 1.1 -2.6
v 13 1.2 -2.6
v 13.1 1.2 -2.5
v 13.1 1.1 -2.5
v 13.2 1.1 -2.5
v 13.2 1.2 -2.5
v 13.2 1.2 -2.6
v 13.2 1.1 -2.6
v 13.1 1.1 -2.6
v 13.1 1.2 -2.6
v 13.2 1.2 -2.5
v 13.2 1.1 -2.5
v 13.3 1.1 -2.5
v 13.3 1.2 -2.5
v 13.3 1.2 -2.6
v 13.3 1.1 -2.6
v 13.2 1.1 -2.6
v 13.2 1.2 -2.6
v 13.3 1.2 -2.5
v 13.3 1.1 -2.5
v 13.4 1.1 -2.5
v 13.4 1.2 -2.5
v 13.4 1.2 -2.6
v 13.4 1.1 -2.6
v 13.3 1.1 -2.6
v 13.3 1.2 -2.6
v 13.4 1.2 -2.5
v 13.4 1.1 -2.5
v 13.5 1.1 -2.5
v 13.5 1.2 -2.5
v 13.5 1.2 -2.6
v 13.5 1.1 -2.6
v 13.4 1.1 -2.6
v 13.4 1.2 -2.6
v 13.6 1.2 -2.5
v 13.6 1.1 -2.5
v 13.6 1.1 -2.6
v 13.6 1.2 -2.6
v 13.5 1.2 -2.5
v 13.5 1.1 -2.5
v 13.6 1.1 -2.5
v 13.6 1.2 -2.5
v 13.6 1.2 -2.6
v 13.6 1.1 -2.6
v 13.5 1.1 -2.6
v 13.5 1.2 -2.6
v 11.7 1.1 -2.6
v 11.7 1 -2.6
v 11.7 1 -2.5
v 11.7 1.1 -2.5
v 11.7 1 -2.5
v 11.7 1 -2.6
v 11.8 1 -2.6
v 11.8 1 -2.5
v 11.7 1.1 -2.5
v 11.7 1 -2.5
v 11.8 1 -2.5
v 11.8 1.1 -2.5
v 11.8 1.1 -2.6
v 11.8 1 -2.6
v 11.7 1 -2.6
v 11.7 1.1 -2.6
v 11.8 1 -2.5
v 11.8 1 -2.6
v 11.9 1 -2.6
v 11.9 1 -2.5
v 11.8 1.1 -2.5
v 11.8 1 -2.5
v 11.9 1 -2.5
v 11.9 1.1 -2.5
v 11.9 1.1 -2.6
v 11.9 1 -2.6
v 11.8 1 -2.6
v 11.8 1.1 -2.6
v 11.9 1.1 -2.5
v 11.9 1 -2.5
v 12 1 -2.5
v 12 1.1 -2.5
v 12 1.1 -2.6
v 12 1 -2.6
v 11.9 1 -2.6
v 11.9 1.1 -2.6
v 12 1.1 -2.5
v 12 1 -2.5
v 12.1 1 -2.5
v 12.1 1.1 -2.5
v 12.1 1.1 -2.6
v 12.1 1 -2.6
v 12 1 -2.6
v 12 1.1 -2.6
v 12.1 1.1 -2.5
v 12.1 1 -2.5
v 12.2 1 -2.5
v 12.2 1.1 -2.5
v 12.2 1.1 -2.6
v 12.2 1 -2.6
v 12.1 1 -2.6
v 12.1 1.1 -2.6
v 12.2 1.1 -2.5
v 12.2 1 -2.5
v 12.3 1 -2.5
v 12.3 1.1 -2.5
v 12.3 1.1 -2.6
v 12.3 1 -2.6
v 12.2 1 -2.6
v 12.2 1.1 -2.6
v 12.3 1.1 -2.5
v 12.3 1 -2.5
v 12.4 1 -2.5
v 12.4 1.1 -2.5
v 12.4 1.1 -2.6
v 12.4 1 -2.6
v 12.3 1 -2.6
v 12.3 1.1 -2.6
v 12.4 1 -2.5
v 12.4 1 -2.6
v 12.5 1 -2.6
v 12.5 1 -2.5
v 12.4 1.1 -2.5
v 12.4 1 -2.5
v 12.5 1 -2.5
v 12.5 1.1 -2.5
v 12.5 1.1 -2.6
v 12.5 1 -2.6
v 12.4 1 -2.6
v 12.4 1.1 -2.6
v 12.5 1 -2.5
v 12.5 1 -2.6
v 12.6 1 -2.6
v 12.6 1 -2.5
v 12.5 1.1 -2.5
v 12.5 1 -2.5
v 12.6 1 -2.5
v 12.6 1.1 -2.5
v 12.6 1.1 -2.6
v 12.6 1 -2.6
v 12.5 1 -2.6
v 12.5 1.1 -2.6
v 12.6 1 -2.5
v 12.6 1 -2.6
v 12.7 1 -2.6
v 12.7 1 -2.5
v 12.6 1.1 -2.5
v 12.6 1 -2.5
v 12.7 1 -2.5
v 12.7 1.1 -2.5
v 12.7 1.1 -2.6
v 12.7 1 -2.6
v 12.6 1 -2.6
v 12.6 1.1 -2.6
v 12.7 1 -2.5
v 12.7 1 -2.6
v 12.8 1 -2.6
v 12.8 1 -2.5
v 12.7 1.1 -2.5
v 12.7 1 -2.5
v 12.8 1 -2.5
v 12.8 1.1 -2.5
v 12.8 1.1 -2.6
v 12.8 1 -2.6
v 12.7 1 -2.6
v 12.7 1.1 -2.6
v 12.8 1 -2.5
v 12.8 1 -2.6
v 12.9 1 -2.6
v 12.9 1 -2.5
v 12.8 1.1 -2.5
v 12.8 1 -2.5
v 12.9 1 -2.5
v 12.9 1.1 -2.5
v 12.9 1.1 -2.6
v 12.9 1 -2.6
v 12.8 1 -2.6
v 12.8 1.1 -2.6
v 12.9 1.1 -2.5
v 12.9 1 -2.5
v 13 1 -2.5
v 13 1.1 -2.5
v 13 1.1 -2.6
v 13 1 -2.6
v 12.9 1 -2.6
v 12.9 1.1 -2.6
v 13 1.1 -2.5
v 13 1 -2.5
v 13.1 1 -2.5
v 13.1 1.1 -2.5
v 13.1 1.1 -2.6
v 13.1 1 -2.6
v 13 1 -2.6
v 13 1.1 -2.6
v 13.1 1.1 -2.5
v 13.1 1 -2.5
v 13.2 1 -2.5
v 13.2 1.1 -2.5
v 13.2 1.1 -2.6
v 13.2 1 -2.6
v 13.1 1 -2.6
v 13.1 1.1 -2.6
v 13.2 1.1 -2.5
v 13.2 1 -2.5
v 13.3 1 -2.5
v 13.3 1.1 -2.5
v 13.3 1.1 -2.6
v 13.3 1 -2.6
v 13.2 1 -2.6
v 13.2 1.1 -2.6
v 13.3 1.1 -2.5
v 13.3 1 -2.5
v 13.4 1 -2.5
v 13.4 1.1 -2.5
v 13.4 1.1 -2.6
v 13.4 1 -2.6
v 13.3 1 -2.6
v 13.3 1.1 -2.6
v 13.4 1.1 -2.5
v 13.4 1 -2.5
v 13.5 1 -2.5
v 13.5 1.1 -2.5
v 13.5 1.1 -2.6
v 13.5 1 -2.6
v 13.4 1 -2.6
v 13.4 1.1 -2.6
v 13.5 1.1 -2.5
v 13.5 1 -2.5
v 13.6 1 -2.5
v 13.6 1.1 -2.5
v 13.6 1.1 -2.6
v 13.6 1 -2.6
v 13.5 1 -2.6
v 13.5 1.1 -2.6
v 13.6 1.1 -2.6
v 13.6 1.1 -2.5
v 13.7 1.1 -2.5
v 13.7 1.1 -2.6
v 13.6 1.1 -2.5
v 13.6 1 -2.5
v 13.7 1 -2.5
v 13.7 1.1 -2.5
v 13.7 1.1 -2.6
v 13.7 1 -2.6
v 13.6 1 -2.6
v 13.6 1.1 -2.6
v 13.7 1.1 -2.6
v 13.7 1.1 -2.5
v 13.8 1.1 -2.5
v 13.8 1.1 -2.6
v 13.7 1.1 -2.5
v 13.7 1 -2.5
v 13.8 1 -2.5
v 13.8 1.1 -2.5
v 13.8 1.1 -2.6
v 13.8 1 -2.6
v 13.7 1 -2.6
v 13.7 1.1 -2.6
v 13.9 1.1 -2.5
v 13.9 1 -2.5
v 13.9 1 -2.6
v 13.9 1.1 -2.6
v 13.8 1.1 -2.6
v 13.8 1.1 -2.5
v 13.9 1.1 -2.5
v 13.9 1.1 -2.6
v 13.8 1.1 -2.5
v 13.8 1 -2.5
v 13.9 1 -2.5
v 13.9 1.1 -2.5
v 13.9 1.1 -2.6
v 13.9 1 -2.6
v 13.8 1 -2.6
v 13.8 1.1 -2.6
v 11.9 1 -2.6
v 11.9 0.9 -2.6
v 11.9 0.9 -2.5
v 11.9 1 -2.5
v 11.9 0.9 -2.5
v 11.9 0.9 -2.6
v 12 0.9 -2.6
v 12 0.9 -2.5
v 11.9 1 -2.5
v 11.9 0.9 -2.5
v 12 0.9 -2.5
v 12 1 -2.5
v 12 1 -2.6
v 12 0.9 -2.6
v 11.9 0.9 -2.6
v 11.9 1 -2.6
v 12 0.9 -2.5
v 12 0.9 -2.6
v 12.1 0.9 -2.6
v 12.1 0.9 -2.5
v 12 1 -2.5
v 12 0.9 -2.5
v 12.1 0.9 -2.5
v 12.1 1 -2.5
v 12.1 1 -2.6
v 12.1 0.9 -2.6
v 12 0.9 -2.6
v 12 1 -2.6
v 12.1 1 -2.5
v 12.1 0.9 -2.5
v 12.2 0.9 -2.5
v 12.2 1 -2.5
v 12.2 1 -2.6
v 12.2 0.9 -2.6
v 12.1 0.9 -2.6
v 12.1 1 -2.6
v 12.2 1 -2.5
v 12.2 0.9 -2.5
v 12.3 0.9 -2.5
v 12.3 1 -2.5
v 12.3 1 -2.6
v 12.3 0.9 -2.6
v 12.2 0.9 -2.6
v 12.2 1 -2.6
v 12.4 1 -2.5
v 12.4 0.9 -2.5
v 12.4 0.9 -2.6
v 12.4 1 -2.6
v 12.3 1 -2.5
v 12.3 0.9 -2.5
v 12.4 0.9 -2.5
v 12.4 1 -2.5
v 12.4 1 -2.6
v 12.4 0.9 -2.6
v 12.3 0.9 -2.6
v 12.3 1 -2.6
v 12.9 1 -2.6
v 12.9 0.9 -2.6
v 12.9 0.9 -2.5
v 12.9 1 -2.5
v 12.9 0.9 -2.5
v 12.9 0.9 -2.6
v 13 0.9 -2.6
v 13 0.9 -2.5
v 12.9 1 -2.5
v 12.9 0.9 -2.5
v 13 0.9 -2.5
v 13 1 -2.5
v 13 1 -2.6
v 13 0.9 -2.6
v 12.9 0.9 -2.6
v 12.9 1 -2.6
v 13 0.9 -2.5
v 13 0.9 -2.6
v 13.1 0.9 -2.6
v 13.1 0.9 -2.5
v 13 1 -2.5
v 13 0.9 -2.5
v 13.1 0.9 -2.5
v 13.1 1 -2.5
v 13.1 1 -2.6
v 13.1 0.9 -2.6
v 13 0.9 -2.6
v 13 1 -2.6
v 13.1 0.9 -2.5
v 13.1 0.9 -2.6
v 13.2 0.9 -2.6
v 13.2 0.9 -2.5
v 13.1 1 -2.5
v 13.1 0.9 -2.5
v 13.2 0.9 -2.5
v 13.2 1 -2.5
v 13.2 1 -2.6
v 13.2 0.9 -2.6
v 13.1 0.9 -2.6
v 13.1 1 -2.6
v 13.2 0.9 -2.5
v 13.2 0.9 -2.6
v 13.3 0.9 -2.6
v 13.3 0.9 -2.5
v 13.2 1 -2.5
v 13.2 0.9 -2.5
v 13.3 0.9 -2.5
v 13.3 1 -2.5
v 13.3 1 -2.6
v 13.3 0.9 -2.6
v 13.2 0.9 -2.6
v 13.2 1 -2.6
v 13.3 0.9 -2.5
v 13.3 0.9 -2.6
v 13.4 0.9 -2.6
v 13.4 0.9 -2.5
v 13.3 1 -2.5
v 13.3 0.9 -2.5
v 13.4 0.9 -2.5
v 13.4 1 -2.5
v 13.4 1 -2.6
v 13.4 0.9 -2.6
v 13.3 0.9 -2.6
v 13.3 1 -2.6
v 13.4 0.9 -2.5
v 13.4 0.9 -2.6
v 13.5 0.9 -2.6
v 13.5 0.9 -2.5
v 13.4 1 -2.5
v 13.4 0.9 -2.5
v 13.5 0.9 -2.5
v 13.5 1 -2.5
v 13.5 1 -2.6
v 13.5 0.9 -2.6
v 13.4 0.9 -2.6
v 13.4 1 -2.6
v 13.5 0.9 -2.5
v 13.5 0.9 -2.6
v 13.6 0.9 -2.6
v 13.6 0.9 -2.5
v 13.5 1 -2.5
v 13.5 0.9 -2.5
v 13.6 0.9 -2.5
v 13.6 1 -2.5
v 13.6 1 -2.6
v 13.6 0.9 -2.6
v 13.5 0.9 -2.6
v 13.5 1 -2.6
v 13.6 0.9 -2.5
v 13.6 0.9 -2.6
v 13.7 0.9 -2.6
v 13.7 0.9 -2.5
v 13.6 1 -2.5
v 13.6 0.9 -2.5
v 13.7 0.9 -2.5
v 13.7 1 -2.5
v 13.7 1 -2.6
v 13.7 0.9 -2.6
v 13.6 0.9 -2.6
v 13.6 1 -2.6
v 13.7 0.9 -2.5
v 13.7 0.9 -2.6
v 13.8 0.9 -2.6
v 13.8 0.9 -2.5
v 13.7 1 -2.5
v 13.7 0.9 -2.5
v 13.8 0.9 -2.5
v 13.8 1 -2.5
v 13.8 1 -2.6
v 13.8 0.9 -2.6
v 13.7 0.9 -2.6
v 13.7 1 -2.6
v 13.8 0.9 -2.5
v 13.8 0.9 -2.6
v 13.9 0.9 -2.6
v 13.9 0.9 -2.5
v 13.8 1 -2.5
v 13.8 0.9 -2.5
v 13.9 0.9 -2.5
v 13.9 1 -2.5
v 13.9 1 -2.6
v 13.9 0.9 -2.6
v 13.8 0.9 -2.6
v 13.8 1 -2.6
v 13.9 1 -2.6
v 13.9 1 -2.5
v 14 1 -2.5
v 14 1 -2.6
v 13.9 0.9 -2.5
v 13.9 0.9 -2.6
v 14 0.9 -2.6
v 14 0.9 -2.5
v 13.9 1 -2.5
v 13.9 0.9 -2.5
v 14 0.9 -2.5
v 14 1 -2.5
v 14 1 -2.6
v 14 0.9 -2.6
v 13.9 0.9 -2.6
v 13.9 1 -2.6
v 14 1 -2.6
v 14 1 -2.5
v 14.1 1 -2.5
v 14.1 1 -2.6
v 14 0.9 -2.5
v 14 0.9 -2.6
v 14.1 0.9 -2.6
v 14.1 0.9 -2.5
v 14 1 -2.5
v 14 0.9 -2.5
v 14.1 0.9 -2.5
v 14.1 1 -2.5
v 14.1 1 -2.6
v 14.1 0.9 -2.6
v 14 0.9 -2.6
v 14 1 -2.6
v 14.1 1 -2.6
v 14.1 1 -2.5
v 14.2 1 -2.5
v 14.2 1 -2.6
v 14.1 0.9 -2.5
v 14.1 0.9 -2.6
v 14.2 0.9 -2.6
v 14.2 0.9 -2.5
v 14.1 1 -2.5
v 14.1 0.9 -2.5
v 14.2 0.9 -2.5
v 14.2 1 -2.5
v 14.2 1 -2.6
v 14.2 0.9 -2.6
v 14.1 0.9 -2.6
v 14.1 1 -2.6
v 14.3 1 -2.5
v 14.3 0.9 -2.5
v 14.3 0.9 -2.6
v 14.3 1 -2.6
v 14.2 1 -2.6
v 14.2 1 -2.5
v 14.3 1 -2.5
v 14.3 1 -2.6
v 14.2 0.9 -2.5
v 14.2 0.9 -2.6
v 14.3 0.9 -2.6
v 14.3 0.9 -2.5
v 14.2 1 -2.5
v 14.2 0.9 -2.5
v 14.3 0.9 -2.5
v 14.3 1 -2.5
v 14.3 1 -2.6
v 14.3 0.9 -2.6
v 14.2 0.9 -2.6
v 14.2 1 -2.6
v 12.1 0.9 -2.6
v 12.1 0.8 -2.6
v 12.1 0.8 -2.5
v 12.1 0.9 -2.5
v 12.1 0.8 -2.5
v 12.1 0.8 -2.6
v 12.2 0.8 -2.6
v 12.2 0.8 -2.5
v 12.1 0.9 -2.5
v 12.1 0.8 -2.5
v 12.2 0.8 -2.5
v 12.2 0.9 -2.5
v 12.2 0.9 -2.6
v 12.2 0.8 -2.6
v 12.1 0.8 -2.6
v 12.1 0.9 -2.6
v 12.2 0.8 -2.5
v 12.2 0.8 -2.6
v 12.3 0.8 -2.6
v 12.3 0.8 -2.5
v 12.2 0.9 -2.5
v 12.2 0.8 -2.5
v 12.3 0.8 -2.5
v 12.3 0.9 -2.5
v 12.3 0.9 -2.6
v 12.3 0.8 -2.6
v 12.2 0.8 -2.6
v 12.2 0.9 -2.6
v 12.3 0.8 -2.5
v 12.3 0.8 -2.6
v 12.4 0.8 -2.6
v 12.4 0.8 -2.5
v 12.3 0.9 -2.5
v 12.3 0.8 -2.5
v 12.4 0.8 -2.5
v 12.4 0.9 -2.5
v 12.4 0.9 -2.6
v 12.4 0.8 -2.6
v 12.3 0.8 -2.6
v 12.3 0.9 -2.6
v 12.5 0.9 -2.5
v 12.5 0.8 -2.5
v 12.5 0.8 -2.6
v 12.5 0.9 -2.6
v 12.4 0.9 -2.6
v 12.4 0.9 -2.5
v 12.5 0.9 -2.5
v 12.5 0.9 -2.6
v 12.4 0.9 -2.5
v 12.4 0.8 -2.5
v 12.5 0.8 -2.5
v 12.5 0.9 -2.5
v 12.5 0.9 -2.6
v 12.5 0.8 -2.6
v 12.4 0.8 -2.6
v 12.4 0.9 -2.6
v 12.4 0.8 -2.6
v 12.4 0.7 -2.6
v 12.4 0.7 -2.5
v 12.4 0.8 -2.5
v 12.4 0.7 -2.5
v 12.4 0.7 -2.6
v 12.5 0.7 -2.6
v 12.5 0.7 -2.5
v 12.4 0.8 -2.5
v 12.4 0.7 -2.5
v 12.5 0.7 -2.5
v 12.5 0.8 -2.5
v 12.5 0.8 -2.6
v 12.5 0.7 -2.6
v 12.4 0.7 -2.6
v 12.4 0.8 -2.6
v 12.5 0.8 -2.6
v 12.5 0.8 -2.5
v 12.6 0.8 -2.5
v 12.6 0.8 -2.6
v 12.5 0.7 -2.5
v 12.5 0.7 -2.6
v 12.6 0.7 -2.6
v 12.6 0.7 -2.5
v 12.5 0.8 -2.5
v 12.5 0.7 -2.5
v 12.6 0.7 -2.5
v 12.6 0.8 -2.5
v 12.6 0.8 -2.6
v 12.6 0.7 -2.6
v 12.5 0.7 -2.6
v 12.5 0.8 -2.6
v 12.7 0.8 -2.5
v 12.7 0.7 -2.5
v 12.7 0.7 -2.6
v 12.7 0.8 -2.6
v 12.6 0.8 -2.6
v 12.6 0.8 -2.5
v 12.7 0.8 -2.5
v 12.7 0.8 -2.6
v 12.6 0.7 -2.5
v 12.6 0.7 -2.6
v 12.7 0.7 -2.6
v 12.7 0.7 -2.5
v 12.6 0.8 -2.5
v 12.6 0.7 -2.5
v 12.7 0.7 -2.5
v 12.7 0.8 -2.5
v 12.7 0.8 -2.6
v 12.7 0.7 -2.6
v 12.6 0.7 -2.6
v 12.6 0.8 -2.6

# faces
f 1/1/1 2/1/1 3/1/1 4/1/1
f 5/1/3 6/1/3 7/1/3 8/1/3
f 9/1/5 10/1/5 11/1/5 12/1/5
f 13/1/6 14/1/6 15/1/6 16/1/6
f 17/1/3 18/1/3 19/1/3 20/1/3
f 21/1/5 22/1/5 23/1/5 24/1/5
f 25/1/6 26/1/6 27/1/6 28/1/6
f 29/1/3 30/1/3 31/1/3 32/1/3
f 33/1/5 34/1/5 35/1/5 36/1/5
f 37/1/6 38/1/6 39/1/6 40/1/6
f 41/1/3 42/1/3 43/1/3 44/1/3
f 45/1/5 46/1/5 47/1/5 48/1/5
f 49/1/6 50/1/6 51/1/6 52/1/6
f 53/1/3 54/1/3 55/1/3 56/1/3
f 57/1/5 58/1/5 59/1/5 60/1/5
f 61/1/6 62/1/6 63/1/6 64/1/6
f 65/1/3 66/1/3 67/1/3 68/1/3
f 69/1/4 70/1/4 71/1/4 72/1/4
f 73/1/5 74/1/5 75/1/5 76/1/5
f 77/1/6 78/1/6 79/1/6 80/1/6
f 81/1/3 82/1/3 83/1/3 84/1/3
f 85/1/4 86/1/4 87/1/4 88/1/4
f 89/1/5 90/1/5 91/1/5 92/1/5
f 93/1/6 94/1/6 95/1/6 96/1/6
f 97/1/2 98/1/2 99/1/2 100/1/2
f 101/1/3 102/1/3 103/1/3 104/1/3
f 105/1/4 106/1/4 107/1/4 108/1/4
f 109/1/5 110/1/5 111/1/5 112/1/5
f 113/1/6 114/1/6 115/1/6 116/1/6
f 117/1/1 118/1/1 119/1/1 120/1/1
f 121/1/3 122/1/3 123/1/3 124/1/3
f 125/1/5 126/1/5 127/1/5 128/1/5
f 129/1/6 130/1/6 131/1/6 132/1/6
f 133/1/5 134/1/5 135/1/5 136/1/5
f 137/1/6 138/1/6 139/1/6 140/1/6
f 141/1/4 142/1/4 143/1/4 144/1/4
f 145/1/5 146/1/5 147/1/5 148/1/5
f 149/1/6 150/1/6 151/1/6 152/1/6
f 153/1/4 154/1/4 155/1/4 156/1/4
f 157/1/5 158/1/5 159/1/5 160/1/5
f 161/1/6 162/1/6 163/1/6 164/1/6
f 165/1/4 166/1/4 167/1/4 168/1/4
f 169/1/5 170/1/5 171/1/5 172/1/5
f 173/1/6 174/1/6 175/1/6 176/1/6
f 177/1/2 178/1/2 179/1/2 180/1/2
f 181/1/4 182/1/4 183/1/4 184/1/4
f 185/1/5 186/1/5 187/1/5 188/1/5
f 189/1/6 190/1/6 191/1/6 192/1/6
f 193/1/1 194/1/1 195/1/1 196/1/1
f 197/1/3 198/1/3 199/1/3 200/1/3
f 201/1/5 202/1/5 203/1/5 204/1/5
f 205/1/6 206/1/6 207/1/6 208/1/6
f 209/1/3 210/1/3 211/1/3 212/1/3
f 213/1/5 214/1/5 215/1/5 216/1/5
f 217/1/6 218/1/6 219/1/6 220/1/6
f 221/1/3 222/1/3 223/1/3 224/1/3
f 225/1/5 226/1/5 227/1/5 228/1/5
f 229/1/6 230/1/6 231/1/6 232/1/6
f 233/1/3 234/1/3 235/1/3 236/1/3
f 237/1/4 238/1/4 239/1/4 240/1/4
f 241/1/5 242/1/5 243/1/5 244/1/5
f 245/1/6 246/1/6 247/1/6 248/1/6
f 249/1/4 250/1/4 251/1/4 252/1/4
f 253/1/5 254/1/5 255/1/5 256/1/5
f 257/1/6 258/1/6 259/1/6 260/1/6
f 261/1/2 262/1/2 263/1/2 264/1/2
f 265/1/4 266/1/4 267/1/4 268/1/4
f 269/1/5 270/1/5 271/1/5 272/1/5
f 273/1/6 274/1/6 275/1/6 276/1/6
f 277/1/1 278/1/1 279/1/1 280/1/1
f 281/1/3 282/1/3 283/1/3 284/1/3
f 285/1/5 286/1/5 287/1/5 288/1/5
f 289/1/6 290/1/6 291/1/6 292/1/6
f 293/1/3 294/1/3 295/1/3 296/1/3
f 297/1/5 298/1/5 299/1/5 300/1/5
f 301/1/6 302/1/6 303/1/6 304/1/6
f 305/1/3 306/1/3 307/1/3 308/1/3
f 309/1/5 310/1/5 311/1/5 312/1/5
f 313/1/6 314/1/6 315/1/6 316/1/6
f 317/1/4 318/1/4 319/1/4 320/1/4
f 321/1/5 322/1/5 323/1/5 324/1/5
f 325/1/6 326/1/6 327/1/6 328/1/6
f 329/1/4 330/1/4 331/1/4 332/1/4
f 333/1/5 334/1/5 335/1/5 336/1/5
f 337/1/6 338/1/6 339/1/6 340/1/6
f 341/1/2 342/1/2 343/1/2 344/1/2
f 345/1/4 346/1/4 347/1/4 348/1/4
f 349/1/5 350/1/5 351/1/5 352/1/5
f 353/1/6 354/1/6 355/1/6 356/1/6
f 357/1/1 358/1/1 359/1/1 360/1/1
f 361/1/3 362/1/3 363/1/3 364/1/3
f 365/1/5 366/1/5 367/1/5 368/1/5
f 369/1/6 370/1/6 371/1/6 372/1/6
f 373/1/3 374/1/3 375/1/3 376/1/3
f 377/1/5 378/1/5 379/1/5 380/1/5
f 381/1/6 382/1/6 383/1/6 384/1/6
f 385/1/3 386/1/3 387/1/3 388/1/3
f 389/1/5 390/1/5 391/1/5 392/1/5
f 393/1/6 394/1/6 395/1/6 396/1/6
f 397/1/4 398/1/4 399/1/4 400/1/4
f 401/1/5 402/1/5 403/1/5 404/1/5
f 405/1/6 406/1/6 407/1/6 408/1/6
f 409/1/4 410/1/4 411/1/4 412/1/4
f 413/1/5 414/1/5 415/1/5 416/1/5
f 417/1/6 418/1/6 419/1/6 420/1/6
f 421/1/2 422/1/2 423/1/2 424/1/2
f 425/1/4 426/1/4 427/1/4 428/1/4
f 429/1/5 430/1/5 431/1/5 432/1/5
f 433/1/6 434/1/6 435/1/6 436/1/6
f 437/1/1 438/1/1 439/1/1 440/1/1
f 441/1/3 442/1/3 443/1/3 444/1/3
f 445/1/5 446/1/5 447/1/5 448/1/5
f 449/1/6 450/1/6 451/1/6 452/1/6
f 453/1/3 454/1/3 455/1/3 456/1/3
f 457/1/5 458/1/5 459/1/5 460/1/5
f 461/1/6 462/1/6 463/1/6 464/1/6
f 465/1/5 466/1/5 467/1/5 468/1/5
f 469/1/6 470/1/6 471/1/6 472/1/6
f 473/1/4 474/1/4 475/1/4 476/1/4
f 477/1/5 478/1/5 479/1/5 480/1/5
f 481/1/6 482/1/6 483/1/6 484/1/6
f 485/1/2 486/1/2 487/1/2 488/1/2
f 489/1/4 490/1/4 491/1/4 492/1/4
f 493/1/5 494/1/5 495/1/5 496/1/5
f 497/1/6 498/1/6 499/1/6 500/1/6
f 501/1/1 502/1/1 503/1/1 504/1/1
f 505/1/3 506/1/3 507/1/3 508/1/3
f 509/1/5 510/1/5 511/1/5 512/1/5
f 513/1/6 514/1/6 515/1/6 516/1/6
f 517/1/3 518/1/3 519/1/3 520/1/3
f 521/1/5 522/1/5 523/1/5 524/1/5
f 525/1/6 526/1/6 527/1/6 528/1/6
f 529/1/3 530/1/3 531/1/3 532/1/3
f 533/1/5 534/1/5 535/1/5 536/1/5
f 537/1/6 538/1/6 539/1/6 540/1/6
f 541/1/3 542/1/3 543/1/3 544/1/3
f 545/1/5 546/1/5 547/1/5 548/1/5
f 549/1/6 550/1/6 551/1/6 552/1/6
f 553/1/5 554/1/5 555/1/5 556/1/5
f 557/1/6 558/1/6 559/1/6 560/1/6
f 561/1/5 562/1/5 563/1/5 564/1/5
f 565/1/6 566/1/6 567/1/6 568/1/6
f 569/1/2 570/1/2 571/1/2 572/1/2
f 573/1/4 574/1/4 575/1/4 576/1/4
f 577/1/5 578/1/5 579/1/5 580/1/5
f 581/1/6 582/1/6 583/1/6 584/1/6
f 585/1/1 586/1/1 587/1/1 588/1/1
f 589/1/3 590/1/3 591/1/3 592/1/3
f 593/1/4 594/1/4 595/1/4 596/1/4
f 597/1/5 598/1/5 599/1/5 600/1/5
f 601/1/6 602/1/6 603/1/6 604/1/6
f 605/1/3 606/1/3 607/1/3 608/1/3
f 609/1/4 610/1/4 611/1/4 612/1/4
f 613/1/5 614/1/5 615/1/5 616/1/5
f 617/1/6 618/1/6 619/1/6 620/1/6
f 621/1/3 622/1/3 623/1/3 624/1/3
f 625/1/4 626/1/4 627/1/4 628/1/4
f 629/1/5 630/1/5 631/1/5 632/1/5
f 633/1/6 634/1/6 635/1/6 636/1/6
f 637/1/5 638/1/5 639/1/5 640/1/5
f 641/1/6 642/1/6 643/1/6 644/1/6
f 645/1/5 646/1/5 647/1/5 648/1/5
f 649/1/6 650/1/6 651/1/6 652/1/6
f 653/1/5 654/1/5 655/1/5 656/1/5
f 657/1/6 658/1/6 659/1/6 660/1/6
f 661/1/5 662/1/5 663/1/5 664/1/5
f 665/1/6 666/1/6 667/1/6 668/1/6
f 669/1/4 670/1/4 671/1/4 672/1/4
f 673/1/5 674/1/5 675/1/5 676/1/5
f 677/1/6 678/1/6 679/1/6 680/1/6
f 681/1/2 682/1/2 683/1/2 684/1/2
f 685/1/4 686/1/4 687/1/4 688/1/4
f 689/1/5 690/1/5 691/1/5 692/1/5
f 693/1/6 694/1/6 695/1/6 696/1/6
f 697/1/1 698/1/1 699/1/1 700/1/1
f 701/1/5 702/1/5 703/1/5 704/1/5
f 705/1/6 706/1/6 707/1/6 708/1/6
f 709/1/5 710/1/5 711/1/5 712/1/5
f 713/1/6 714/1/6 715/1/6 716/1/6
f 717/1/5 718/1/5 719/1/5 720/1/5
f 721/1/6 722/1/6 723/1/6 724/1/6
f 725/1/2 726/1/2 727/1/2 728/1/2
f 729/1/4 730/1/4 731/1/4 732/1/4
f 733/1/5 734/1/5 735/1/5 736/1/5
f 737/1/6 738/1/6 739/1/6 740/1/6
f 741/1/1 742/1/1 743/1/1 744/1/1
f 745/1/5 746/1/5 747/1/5 748/1/5
f 749/1/6 750/1/6 751/1/6 752/1/6
f 753/1/5 754/1/5 755/1/5 756/1/5
f 757/1/6 758/1/6 759/1/6 760/1/6
f 761/1/2 762/1/2 763/1/2 764/1/2
f 765/1/4 766/1/4 767/1/4 768/1/4
f 769/1/5 770/1/5 771/1/5 772/1/5
f 773/1/6 774/1/6 775/1/6 776/1/6
f 777/1/1 778/1/1 779/1/1 780/1/1
f 781/1/3 782/1/3 783/1/3 784/1/3
f 785/1/5 786/1/5 787/1/5 788/1/5
f 789/1/6 790/1/6 791/1/6 792/1/6
f 793/1/3 794/1/3 795/1/3 796/1/3
f 797/1/5 798/1/5 799/1/5 800/1/5
f 801/1/6 802/1/6 803/1/6 804/1/6
f 805/1/3 806/1/3 807/1/3 808/1/3
f 809/1/5 810/1/5 811/1/5 812/1/5
f 813/1/6 814/1/6 815/1/6 816/1/6
f 817/1/5 818/1/5 819/1/5 820/1/5
f 821/1/6 822/1/6 823/1/6 824/1/6
f 825/1/2 826/1/2 827/1/2 828/1/2
f 829/1/4 830/1/4 831/1/4 832/1/4
f 833/1/5 834/1/5 835/1/5 836/1/5
f 837/1/6 838/1/6 839/1/6 840/1/6
f 841/1/1 842/1/1 843/1/1 844/1/1
f 845/1/3 846/1/3 847/1/3 848/1/3
f 849/1/5 850/1/5 851/1/5 852/1/5
f 853/1/6 854/1/6 855/1/6 856/1/6
f 857/1/5 858/1/5 859/1/5 860/1/5
f 861/1/6 862/1/6 863/1/6 864/1/6
f 865/1/5 866/1/5 867/1/5 868/1/5
f 869/1/6 870/1/6 871/1/6 872/1/6
f 873/1/5 874/1/5 875/1/5 876/1/5
f 877/1/6 878/1/6 879/1/6 880/1/6
f 881/1/2 882/1/2 883/1/2 884/1/2
f 885/1/5 886/1/5 887/1/5 888/1/5
f 889/1/6 890/1/6 891/1/6 892/1/6
f 893/1/1 894/1/1 895/1/1 896/1/1
f 897/1/3 898/1/3 899/1/3 900/1/3
f 901/1/4 902/1/4 903/1/4 904/1/4
f 905/1/5 906/1/5 907/1/5 908/1/5
f 909/1/6 910/1/6 911/1/6 912/1/6
f 913/1/3 914/1/3 915/1/3 916/1/3
f 917/1/4 918/1/4 919/1/4 920/1/4
f 921/1/5 922/1/5 923/1/5 924/1/5
f 925/1/6 926/1/6 927/1/6 928/1/6
f 929/1/5 930/1/5 931/1/5 932/1/5
f 933/1/6 934/1/6 935/1/6 936/1/6
f 937/1/5 938/1/5 939/1/5 940/1/5
f 941/1/6 942/1/6 943/1/6 944/1/6
f 945/1/5 946/1/5 947/1/5 948/1/5
f 949/1/6 950/1/6 951/1/6 952/1/6
f 953/1/5 954/1/5 955/1/5 956/1/5
f 957/1/6 958/1/6 959/1/6 960/1/6
f 961/1/2 962/1/2 963/1/2 964/1/2
f 965/1/4 966/1/4 967/1/4 968/1/4
f 969/1/5 970/1/5 971/1/5 972/1/5
f 973/1/6 974/1/6 975/1/6 976/1/6
f 977/1/1 978/1/1 979/1/1 980/1/1
f 981/1/5 982/1/5 983/1/5 984/1/5
f 985/1/6 986/1/6 987/1/6 988/1/6
f 989/1/5 990/1/5 991/1/5 992/1/5
f 993/1/6 994/1/6 995/1/6 996/1/6
f 997/1/5 998/1/5 999/1/5 1000/1/5
f 1001/1/6 1002/1/6 1003/1/6 1004/1/6
f 1005/1/2 1006/1/2 1007/1/2 1008/1/2
f 1009/1/5 1010/1/5 1011/1/5 1012/1/5
f 1013/1/6 1014/1/6 1015/1/6 1016/1/6
f 1017/1/1 1018/1/1 1019/1/1 1020/1/1
f 1021/1/3 1022/1/3 1023/1/3 1024/1/3
f 1025/1/5 1026/1/5 1027/1/5 1028/1/5
f 1029/1/6 1030/1/6 1031/1/6 1032/1/6
f 1033/1/5 1034/1/5 1035/1/5 1036/1/5
f 1037/1/6 1038/1/6 1039/1/6 1040/1/6
f 1041/1/5 1042/1/5 1043/1/5 1044/1/5
f 1045/1/6 1046/1/6 1047/1/6 1048/1/6
f 1049/1/5 1050/1/5 1051/1/5 1052/1/5
f 1053/1/6 1054/1/6 1055/1/6 1056/1/6
f 1057/1/2 1058/1/2 1059/1/2 1060/1/2
f 1061/1/5 1062/1/5 1063/1/5 1064/1/5
f 1065/1/6 1066/1/6 1067/1/6 1068/1/6
f 1069/1/1 1070/1/1 1071/1/1 1072/1/1
f 1073/1/3 1074/1/3 1075/1/3 1076/1/3
f 1077/1/5 1078/1/5 1079/1/5 1080/1/5
f 1081/1/6 1082/1/6 1083/1/6 1084/1/6
f 1085/1/4 1086/1/4 1087/1/4 1088/1/4
f 1089/1/5 1090/1/5 1091/1/5 1092/1/5
f 1093/1/6 1094/1/6 1095/1/6 1096/1/6
f 1097/1/5 1098/1/5 1099/1/5 1100/1/5
f 1101/1/6 1102/1/6 1103/1/6 1104/1/6
f 1105/1/5 1106/1/5 1107/1/5 1108/1/5
f 1109/1/6 1110/1/6 1111/1/6 1112/1/6
f 1113/1/5 1114/1/5 1115/1/5 1116/1/5
f 1117/1/6 1118/1/6 1119/1/6 1120/1/6
f 1121/1/2 1122/1/2 1123/1/2 1124/1/2
f 1125/1/5 1126/1/5 1127/1/5 1128/1/5
f 1129/1/6 1130/1/6 1131/1/6 1132/1/6
f 1133/1/1 1134/1/1 1135/1/1 1136/1/1
f 1137/1/3 1138/1/3 1139/1/3 1140/1/3
f 1141/1/4 1142/1/4 1143/1/4 1144/1/4
f 1145/1/5 1146/1/5 1147/1/5 1148/1/5
f 1149/1/6 1150/1/6 1151/1/6 1152/1/6
f 1153/1/3 1154/1/3 1155/1/3 1156/1/3
f 1157/1/4 1158/1/4 1159/1/4 1160/1/4
f 1161/1/5 1162/1/5 1163/1/5 1164/1/5
f 1165/1/6 1166/1/6 1167/1/6 1168/1/6
f 1169/1/2 1170/1/2 1171/1/2 1172/1/2
f 1173/1/4 1174/1/4 1175/1/4 1176/1/4
f 1177/1/5 1178/1/5 1179/1/5 1180/1/5
f 1181/1/6 1182/1/6 1183/1/6 1184/1/6
f 1185/1/1 1186/1/1 1187/1/1 1188/1/1
f 1189/1/5 1190/1/5 1191/1/5 1192/1/5
f 1193/1/6 1194/1/6 1195/1/6 1196/1/6
f 1197/1/5 1198/1/5 1199/1/5 1200/1/5
f 1201/1/6 1202/1/6 1203/1/6 1204/1/6
f 1205/1/5 1206/1/5 1207/1/5 1208/1/5
f 1209/1/6 1210/1/6 1211/1/6 1212/1/6
f 1213/1/2 1214/1/2 1215/1/2 1216/1/2
f 1217/1/5 1218/1/5 1219/1/5 1220/1/5
f 1221/1/6 1222/1/6 1223/1/6 1224/1/6
f 1225/1/1 1226/1/1 1227/1/1 1228/1/1
f 1229/1/3 1230/1/3 1231/1/3 1232/1/3
f 1233/1/5 1234/1/5 1235/1/5 1236/1/5
f 1237/1/6 1238/1/6 1239/1/6 1240/1/6
f 1241/1/5 1242/1/5 1243/1/5 1244/1/5
f 1245/1/6 1246/1/6 1247/1/6 1248/1/6
f 1249/1/5 1250/1/5 1251/1/5 1252/1/5
f 1253/1/6 1254/1/6 1255/1/6 1256/1/6
f 1257/1/5 1258/1/5 1259/1/5 1260/1/5
f 1261/1/6 1262/1/6 1263/1/6 1264/1/6
f 1265/1/2 1266/1/2 1267/1/2 1268/1/2
f 1269/1/5 1270/1/5 1271/1/5 1272/1/5
f 1273/1/6 1274/1/6 1275/1/6 1276/1/6
f 1277/1/1 1278/1/1 1279/1/1 1280/1/1
f 1281/1/3 1282/1/3 1283/1/3 1284/1/3
f 1285/1/5 1286/1/5 1287/1/5 1288/1/5
f 1289/1/6 1290/1/6 1291/1/6 1292/1/6
f 1293/1/5 1294/1/5 1295/1/5 1296/1/5
f 1297/1/6 1298/1/6 1299/1/6 1300/1/6
f 1301/1/5 1302/1/5 1303/1/5 1304/1/5
f 1305/1/6 1306/1/6 1307/1/6 1308/1/6
f 1309/1/4 1310/1/4 1311/1/4 1312/1/4
f 1313/1/5 1314/1/5 1315/1/5 1316/1/5
f 1317/1/6 1318/1/6 1319/1/6 1320/1/6
f 1321/1/5 1322/1/5 1323/1/5 1324/1/5
f 1325/1/6 1326/1/6 1327/1/6 1328/1/6
f 1329/1/2 1330/1/2 1331/1/2 1332/1/2
f 1333/1/5 1334/1/5 1335/1/5 1336/1/5
f 1337/1/6 1338/1/6 1339/1/6 1340/1/6
f 1341/1/1 1342/1/1 1343/1/1 1344/1/1
f 1345/1/3 1346/1/3 1347/1/3 1348/1/3
f 1349/1/5 1350/1/5 1351/1/5 1352/1/5
f 1353/1/6 1354/1/6 1355/1/6 1356/1/6
f 1357/1/5 1358/1/5 1359/1/5 1360/1/5
f 1361/1/6 1362/1/6 1363/1/6 1364/1/6
f 1365/1/5 1366/1/5 1367/1/5 1368/1/5
f 1369/1/6 1370/1/6 1371/1/6 1372/1/6
f 1373/1/2 1374/1/2 1375/1/2 1376/1/2
f 1377/1/4 1378/1/4 1379/1/4 1380/1/4
f 1381/1/5 1382/1/5 1383/1/5 1384/1/5
f 1385/1/6 1386/1/6 1387/1/6 1388/1/6
f 1389/1/1 1390/1/1 1391/1/1 1392/1/1
f 1393/1/5 1394/1/5 1395/1/5 1396/1/5
f 1397/1/6 1398/1/6 1399/1/6 1400/1/6
f 1401/1/5 1402/1/5 1403/1/5 1404/1/5
f 1405/1/6 1406/1/6 1407/1/6 1408/1/6
f 1409/1/3 1410/1/3 1411/1/3 1412/1/3
f 1413/1/5 1414/1/5 1415/1/5 1416/1/5
f 1417/1/6 1418/1/6 1419/1/6 1420/1/6
f 1421/1/2 1422/1/2 1423/1/2 1424/1/2
f 1425/1/3 1426/1/3 1427/1/3 1428/1/3
f 1429/1/5 1430/1/5 1431/1/5 1432/1/5
f 1433/1/6 1434/1/6 1435/1/6 1436/1/6
f 1437/1/1 1438/1/1 1439/1/1 1440/1/1
f 1441/1/5 1442/1/5 1443/1/5 1444/1/5
f 1445/1/6 1446/1/6 1447/1/6 1448/1/6
f 1449/1/5 1450/1/5 1451/1/5 1452/1/5
f 1453/1/6 1454/1/6 1455/1/6 1456/1/6
f 1457/1/2 1458/1/2 1459/1/2 1460/1/2
f 1461/1/4 1462/1/4 1463/1/4 1464/1/4
f 1465/1/5 1466/1/5 1467/1/5 1468/1/5
f 1469/1/6 1470/1/6 1471/1/6 1472/1/6
f 1473/1/1 1474/1/1 1475/1/1 1476/1/1
f 1477/1/3 1478/1/3 1479/1/3 1480/1/3
f 1481/1/5 1482/1/5 1483/1/5 1484/1/5
f 1485/1/6 1486/1/6 1487/1/6 1488/1/6
f 1489/1/5 1490/1/5 1491/1/5 1492/1/5
f 1493/1/6 1494/1/6 1495/1/6 1496/1/6
f 1497/1/5 1498/1/5 1499/1/5 1500/1/5
f 1501/1/6 1502/1/6 1503/1/6 1504/1/6
f 1505/1/5 1506/1/5 1507/1/5 1508/1/5
f 1509/1/6 1510/1/6 1511/1/6 1512/1/6
f 1513/1/5 1514/1/5 1515/1/5 1516/1/5
f 1517/1/6 1518/1/6 1519/1/6 1520/1/6
f 1521/1/3 1522/1/3 1523/1/3 1524/1/3
f 1525/1/5 1526/1/5 1527/1/5 1528/1/5
f 1529/1/6 1530/1/6 1531/1/6 1532/1/6
f 1533/1/2 1534/1/2 1535/1/2 1536/1/2
f 1537/1/3 1538/1/3 1539/1/3 1540/1/3
f 1541/1/5 1542/1/5 1543/1/5 1544/1/5
f 1545/1/6 1546/1/6 1547/1/6 1548/1/6
f 1549/1/1 1550/1/1 1551/1/1 1552/1/1
f 1553/1/5 1554/1/5 1555/1/5 1556/1/5
f 1557/1/6 1558/1/6 1559/1/6 1560/1/6
f 1561/1/2 1562/1/2 1563/1/2 1564/1/2
f 1565/1/4 1566/1/4 1567/1/4 1568/1/4
f 1569/1/5 1570/1/5 1571/1/5 1572/1/5
f 1573/1/6 1574/1/6 1575/1/6 1576/1/6
f 1577/1/1 1578/1/1 1579/1/1 1580/1/1
f 1581/1/5 1582/1/5 1583/1/5 1584/1/5
f 1585/1/6 1586/1/6 1587/1/6 1588/1/6
f 1589/1/5 1590/1/5 1591/1/5 1592/1/5
f 1593/1/6 1594/1/6 1595/1/6 1596/1/6
f 1597/1/5 1598/1/5 1599/1/5 1600/1/5
f 1601/1/6 1602/1/6 1603/1/6 1604/1/6
f 1605/1/5 1606/1/5 1607/1/5 1608/1/5
f 1609/1/6 1610/1/6 1611/1/6 1612/1/6
f 1613/1/5 1614/1/5 1615/1/5 1616/1/5
f 1617/1/6 1618/1/6 1619/1/6 1620/1/6
f 1621/1/5 1622/1/5 1623/1/5 1624/1/5
f 1625/1/6 1626/1/6 1627/1/6 1628/1/6
f 1629/1/5 1630/1/5 1631/1/5 1632/1/5
f 1633/1/6 1634/1/6 1635/1/6 1636/1/6
f 1637/1/2 1638/1/2 1639/1/2 1640/1/2
f 1641/1/3 1642/1/3 1643/1/3 1644/1/3
f 1645/1/5 1646/1/5 1647/1/5 1648/1/5
f 1649/1/6 1650/1/6 1651/1/6 1652/1/6
f 1653/1/1 1654/1/1 1655/1/1 1656/1/1
f 1657/1/3 1658/1/3 1659/1/3 1660/1/3
f 1661/1/5 1662/1/5 1663/1/5 1664/1/5
f 1665/1/6 1666/1/6 1667/1/6 1668/1/6
f 1669/1/2 1670/1/2 1671/1/2 1672/1/2
f 1673/1/4 1674/1/4 1675/1/4 1676/1/4
f 1677/1/5 1678/1/5 1679/1/5 1680/1/5
f 1681/1/6 1682/1/6 1683/1/6 1684/1/6
f 1685/1/1 1686/1/1 1687/1/1 1688/1/1
f 1689/1/5 1690/1/5 1691/1/5 1692/1/5
f 1693/1/6 1694/1/6 1695/1/6 1696/1/6
f 1697/1/5 1698/1/5 1699/1/5 1700/1/5
f 1701/1/6 1702/1/6 1703/1/6 1704/1/6
f 1705/1/4 1706/1/4 1707/1/4 1708/1/4
f 1709/1/5 1710/1/5 1711/1/5 1712/1/5
f 1713/1/6 1714/1/6 1715/1/6 1716/1/6
f 1717/1/5 1718/1/5 1719/1/5 1720/1/5
f 1721/1/6 1722/1/6 1723/1/6 1724/1/6
f 1725/1/5 1726/1/5 1727/1/5 1728/1/5
f 1729/1/6 1730/1/6 1731/1/6 1732/1/6
f 1733/1/5 1734/1/5 1735/1/5 1736/1/5
f 1737/1/6 1738/1/6 1739/1/6 1740/1/6
f 1741/1/5 1742/1/5 1743/1/5 1744/1/5
f 1745/1/6 1746/1/6 1747/1/6 1748/1/6
f 1749/1/5 1750/1/5 1751/1/5 1752/1/5
f 1753/1/6 1754/1/6 1755/1/6 1756/1/6
f 1757/1/3 1758/1/3 1759/1/3 1760/1/3
f 1761/1/5 1762/1/5 1763/1/5 1764/1/5
f 1765/1/6 1766/1/6 1767/1/6 1768/1/6
f 1769/1/3 1770/1/3 1771/1/3 1772/1/3
f 1773/1/5 1774/1/5 1775/1/5 1776/1/5
f 1777/1/6 1778/1/6 1779/1/6 1780/1/6
f 1781/1/2 1782/1/2 1783/1/2 1784/1/2
f 1785/1/3 1786/1/3 1787/1/3 1788/1/3
f 1789/1/5 1790/1/5 1791/1/5 1792/1/5
f 1793/1/6 1794/1/6 1795/1/6 1796/1/6
f 1797/1/1 1798/1/1 1799/1/1 1800/1/1
f 1801/1/2 1802/1/2 1803/1/2 1804/1/2
f 1805/1/4 1806/1/4 1807/1/4 1808/1/4
f 1809/1/5 1810/1/5 1811/1/5 1812/1/5
f 1813/1/6 1814/1/6 1815/1/6 1816/1/6
f 1817/1/1 1818/1/1 1819/1/1 1820/1/1
f 1821/1/4 1822/1/4 1823/1/4 1824/1/4
f 1825/1/5 1826/1/5 1827/1/5 1828/1/5
f 1829/1/6 1830/1/6 1831/1/6 1832/1/6
f 1833/1/2 1834/1/2 1835/1/2 1836/1/2
f 1837/1/5 1838/1/5 1839/1/5 1840/1/5
f 1841/1/6 1842/1/6 1843/1/6 1844/1/6
f 1845/1/1 1846/1/1 1847/1/1 1848/1/1
f 1849/1/5 1850/1/5 1851/1/5 1852/1/5
f 1853/1/6 1854/1/6 1855/1/6 1856/1/6
f 1857/1/5 1858/1/5 1859/1/5 1860/1/5
f 1861/1/6 1862/1/6 1863/1/6 1864/1/6
f 1865/1/5 1866/1/5 1867/1/5 1868/1/5
f 1869/1/6 1870/1/6 1871/1/6 1872/1/6
f 1873/1/5 1874/1/5 1875/1/5 1876/1/5
f 1877/1/6 1878/1/6 1879/1/6 1880/1/6
f 1881/1/5 1882/1/5 1883/1/5 1884/1/5
f 1885/1/6 1886/1/6 1887/1/6 1888/1/6
f 1889/1/5 1890/1/5 1891/1/5 1892/1/5
f 1893/1/6 1894/1/6 1895/1/6 1896/1/6
f 1897/1/5 1898/1/5 1899/1/5 1900/1/5
f 1901/1/6 1902/1/6 1903/1/6 1904/1/6
f 1905/1/5 1906/1/5 1907/1/5 1908/1/5
f 1909/1/6 1910/1/6 1911/1/6 1912/1/6
f 1913/1/3 1914/1/3 1915/1/3 1916/1/3
f 1917/1/5 1918/1/5 1919/1/5 1920/1/5
f 1921/1/6 1922/1/6 1923/1/6 1924/1/6
f 1925/1/3 1926/1/3 1927/1/3 1928/1/3
f 1929/1/5 1930/1/5 1931/1/5 1932/1/5
f 1933/1/6 1934/1/6 1935/1/6 1936/1/6
f 1937/1/3 1938/1/3 1939/1/3 1940/1/3
f 1941/1/5 1942/1/5 1943/1/5 1944/1/5
f 1945/1/6 1946/1/6 1947/1/6 1948/1/6
f 1949/1/3 1950/1/3 1951/1/3 1952/1/3
f 1953/1/5 1954/1/5 1955/1/5 1956/1/5
f 1957/1/6 1958/1/6 1959/1/6 1960/1/6
f 1961/1/3 1962/1/3 1963/1/3 1964/1/3
f 1965/1/5 1966/1/5 1967/1/5 1968/1/5
f 1969/1/6 1970/1/6 1971/1/6 1972/1/6
f 1973/1/3 1974/1/3 1975/1/3 1976/1/3
f 1977/1/5 1978/1/5 1979/1/5 1980/1/5
f 1981/1/6 1982/1/6 1983/1/6 1984/1/6
f 1985/1/3 1986/1/3 1987/1/3 1988/1/3
f 1989/1/5 1990/1/5 1991/1/5 1992/1/5
f 1993/1/6 1994/1/6 1995/1/6 1996/1/6
f 1997/1/2 1998/1/2 1999/1/2 2000/1/2
f 2001/1/3 2002/1/3 2003/1/3 2004/1/3
f 2005/1/5 2006/1/5 2007/1/5 2008/1/5
f 2009/1/6 2010/1/6 2011/1/6 2012/1/6
f 2013/1/1 2014/1/1 2015/1/1 2016/1/1
f 2017/1/2 2018/1/2 2019/1/2 2020/1/2
f 2021/1/4 2022/1/4 2023/1/4 2024/1/4
f 2025/1/5 2026/1/5 2027/1/5 2028/1/5
f 2029/1/6 2030/1/6 2031/1/6 2032/1/6
f 2033/1/1 2034/1/1 2035/1/1 2036/1/1
f 2037/1/5 2038/1/5 2039/1/5 2040/1/5
f 2041/1/6 2042/1/6 2043/1/6 2044/1/6
f 2045/1/5 2046/1/5 2047/1/5 2048/1/5
f 2049/1/6 2050/1/6 2051/1/6 2052/1/6
f 2053/1/5 2054/1/5 2055/1/5 2056/1/5
f 2057/1/6 2058/1/6 2059/1/6 2060/1/6
f 2061/1/5 2062/1/5 2063/1/5 2064/1/5
f 2065/1/6 2066/1/6 2067/1/6 2068/1/6
f 2069/1/5 2070/1/5 2071/1/5 2072/1/5
f 2073/1/6 2074/1/6 2075/1/6 2076/1/6
f 2077/1/5 2078/1/5 2079/1/5 2080/1/5
f 2081/1/6 2082/1/6 2083/1/6 2084/1/6
f 2085/1/5 2086/1/5 2087/1/5 2088/1/5
f 2089/1/6 2090/1/6 2091/1/6 2092/1/6
f 2093/1/5 2094/1/5 2095/1/5 2096/1/5
f 2097/1/6 2098/1/6 2099/1/6 2100/1/6
f 2101/1/5 2102/1/5 2103/1/5 2104/1/5
f 2105/1/6 2106/1/6 2107/1/6 2108/1/6
f 2109/1/5 2110/1/5 2111/1/5 2112/1/5
f 2113/1/6 2114/1/6 2115/1/6 2116/1/6
f 2117/1/5 2118/1/5 2119/1/5 2120/1/5
f 2121/1/6 2122/1/6 2123/1/6 2124/1/6
f 2125/1/5 2126/1/5 2127/1/5 2128/1/5
f 2129/1/6 2130/1/6 2131/1/6 2132/1/6
f 2133/1/5 2134/1/5 2135/1/5 2136/1/5
f 2137/1/6 2138/1/6 2139/1/6 2140/1/6
f 2141/1/5 2142/1/5 2143/1/5 2144/1/5
f 2145/1/6 2146/1/6 2147/1/6 2148/1/6
f 2149/1/5 2150/1/5 2151/1/5 2152/1/5
f 2153/1/6 2154/1/6 2155/1/6 2156/1/6
f 2157/1/5 2158/1/5 2159/1/5 2160/1/5
f 2161/1/6 2162/1/6 2163/1/6 2164/1/6
f 2165/1/3 2166/1/3 2167/1/3 2168/1/3
f 2169/1/5 2170/1/5 2171/1/5 2172/1/5
f 2173/1/6 2174/1/6 2175/1/6 2176/1/6
f 2177/1/3 2178/1/3 2179/1/3 2180/1/3
f 2181/1/5 2182/1/5 2183/1/5 2184/1/5
f 2185/1/6 2186/1/6 2187/1/6 2188/1/6
f 2189/1/3 2190/1/3 2191/1/3 2192/1/3
f 2193/1/5 2194/1/5 2195/1/5 2196/1/5
f 2197/1/6 2198/1/6 2199/1/6 2200/1/6
f 2201/1/3 2202/1/3 2203/1/3 2204/1/3
f 2205/1/5 2206/1/5 2207/1/5 2208/1/5
f 2209/1/6 2210/1/6 2211/1/6 2212/1/6
f 2213/1/3 2214/1/3 2215/1/3 2216/1/3
f 2217/1/4 2218/1/4 2219/1/4 2220/1/4
f 2221/1/5 2222/1/5 2223/1/5 2224/1/5
f 2225/1/6 2226/1/6 2227/1/6 2228/1/6
f 2229/1/3 2230/1/3 2231/1/3 2232/1/3
f 2233/1/4 2234/1/4 2235/1/4 2236/1/4
f 2237/1/5 2238/1/5 2239/1/5 2240/1/5
f 2241/1/6 2242/1/6 2243/1/6 2244/1/6
f 2245/1/3 2246/1/3 2247/1/3 2248/1/3
f 2249/1/4 2250/1/4 2251/1/4 2252/1/4
f 2253/1/5 2254/1/5 2255/1/5 2256/1/5
f 2257/1/6 2258/1/6 2259/1/6 2260/1/6
f 2261/1/2 2262/1/2 2263/1/2 2264/1/2
f 2265/1/3 2266/1/3 2267/1/3 2268/1/3
f 2269/1/4 2270/1/4 2271/1/4 2272/1/4
f 2273/1/5 2274/1/5 2275/1/5 2276/1/5
f 2277/1/6 2278/1/6 2279/1/6 2280/1/6
f 2281/1/1 2282/1/1 2283/1/1 2284/1/1
f 2285/1/4 2286/1/4 2287/1/4 2288/1/4
f 2289/1/5 2290/1/5 2291/1/5 2292/1/5
f 2293/1/6 2294/1/6 2295/1/6 2296/1/6
f 2297/1/5 2298/1/5 2299/1/5 2300/1/5
f 2301/1/6 2302/1/6 2303/1/6 2304/1/6
f 2305/1/5 2306/1/5 2307/1/5 2308/1/5
f 2309/1/6 2310/1/6 2311/1/6 2312/1/6
f 2313/1/5 2314/1/5 2315/1/5 2316/1/5
f 2317/1/6 2318/1/6 2319/1/6 2320/1/6
f 2321/1/5 2322/1/5 2323/1/5 2324/1/5
f 2325/1/6 2326/1/6 2327/1/6 2328/1/6
f 2329/1/5 2330/1/5 2331/1/5 2332/1/5
f 2333/1/6 2334/1/6 2335/1/6 2336/1/6
f 2337/1/5 2338/1/5 2339/1/5 2340/1/5
f 2341/1/6 2342/1/6 2343/1/6 2344/1/6
f 2345/1/5 2346/1/5 2347/1/5 2348/1/5
f 2349/1/6 2350/1/6 2351/1/6 2352/1/6
f 2353/1/5 2354/1/5 2355/1/5 2356/1/5
f 2357/1/6 2358/1/6 2359/1/6 2360/1/6
f 2361/1/5 2362/1/5 2363/1/5 2364/1/5
f 2365/1/6 2366/1/6 2367/1/6 2368/1/6
f 2369/1/5 2370/1/5 2371/1/5 2372/1/5
f 2373/1/6 2374/1/6 2375/1/6 2376/1/6
f 2377/1/5 2378/1/5 2379/1/5 2380/1/5
f 2381/1/6 2382/1/6 2383/1/6 2384/1/6
f 2385/1/5 2386/1/5 2387/1/5 2388/1/5
f 2389/1/6 2390/1/6 2391/1/6 2392/1/6
f 2393/1/5 2394/1/5 2395/1/5 2396/1/5
f 2397/1/6 2398/1/6 2399/1/6 2400/1/6
f 2401/1/5 2402/1/5 2403/1/5 2404/1/5
f 2405/1/6 2406/1/6 2407/1/6 2408/1/6
f 2409/1/5 2410/1/5 2411/1/5 2412/1/5
f 2413/1/6 2414/1/6 2415/1/6 2416/1/6
f 2417/1/5 2418/1/5 2419/1/5 2420/1/5
f 2421/1/6 2422/1/6 2423/1/6 2424/1/6
f 2425/1/5 2426/1/5 2427/1/5 2428/1/5
f 2429/1/6 2430/1/6 2431/1/6 2432/1/6
f 2433/1/5 2434/1/5 2435/1/5 2436/1/5
f 2437/1/6 2438/1/6 2439/1/6 2440/1/6
f 2441/1/2 2442/1/2 2443/1/2 2444/1/2
f 2445/1/5 2446/1/5 2447/1/5 2448/1/5
f 2449/1/6 2450/1/6 2451/1/6 2452/1/6
f 2453/1/1 2454/1/1 2455/1/1 2456/1/1
f 2457/1/4 2458/1/4 2459/1/4 2460/1/4
f 2461/1/5 2462/1/5 2463/1/5 2464/1/5
f 2465/1/6 2466/1/6 2467/1/6 2468/1/6
f 2469/1/4 2470/1/4 2471/1/4 2472/1/4
f 2473/1/5 2474/1/5 2475/1/5 2476/1/5
f 2477/1/6 2478/1/6 2479/1/6 2480/1/6
f 2481/1/5 2482/1/5 2483/1/5 2484/1/5
f 2485/1/6 2486/1/6 2487/1/6 2488/1/6
f 2489/1/5 2490/1/5 2491/1/5 2492/1/5
f 2493/1/6 2494/1/6 2495/1/6 2496/1/6
f 2497/1/5 2498/1/5 2499/1/5 2500/1/5
f 2501/1/6 2502/1/6 2503/1/6 2504/1/6
f 2505/1/5 2506/1/5 2507/1/5 2508/1/5
f 2509/1/6 2510/1/6 2511/1/6 2512/1/6
f 2513/1/5 2514/1/5 2515/1/5 2516/1/5
f 2517/1/6 2518/1/6 2519/1/6 2520/1/6
f 2521/1/4 2522/1/4 2523/1/4 2524/1/4
f 2525/1/5 2526/1/5 2527/1/5 2528/1/5
f 2529/1/6 2530/1/6 2531/1/6 2532/1/6
f 2533/1/4 2534/1/4 2535/1/4 2536/1/4
f 2537/1/5 2538/1/5 2539/1/5 2540/1/5
f 2541/1/6 2542/1/6 2543/1/6 2544/1/6
f 2545/1/4 2546/1/4 2547/1/4 2548/1/4
f 2549/1/5 2550/1/5 2551/1/5 2552/1/5
f 2553/1/6 2554/1/6 2555/1/6 2556/1/6
f 2557/1/4 2558/1/4 2559/1/4 2560/1/4
f 2561/1/5 2562/1/5 2563/1/5 2564/1/5
f 2565/1/6 2566/1/6 2567/1/6 2568/1/6
f 2569/1/4 2570/1/4 2571/1/4 2572/1/4
f 2573/1/5 2574/1/5 2575/1/5 2576/1/5
f 2577/1/6 2578/1/6 2579/1/6 2580/1/6
f 2581/1/5 2582/1/5 2583/1/5 2584/1/5
f 2585/1/6 2586/1/6 2587/1/6 2588/1/6
f 2589/1/5 2590/1/5 2591/1/5 2592/1/5
f 2593/1/6 2594/1/6 2595/1/6 2596/1/6
f 2597/1/5 2598/1/5 2599/1/5 2600/1/5
f 2601/1/6 2602/1/6 2603/1/6 2604/1/6
f 2605/1/5 2606/1/5 2607/1/5 2608/1/5
f 2609/1/6 2610/1/6 2611/1/6 2612/1/6
f 2613/1/5 2614/1/5 2615/1/5 2616/1/5
f 2617/1/6 2618/1/6 2619/1/6 2620/1/6
f 2621/1/5 2622/1/5 2623/1/5 2624/1/5
f 2625/1/6 2626/1/6 2627/1/6 2628/1/6
f 2629/1/5 2630/1/5 2631/1/5 2632/1/5
f 2633/1/6 2634/1/6 2635/1/6 2636/1/6
f 2637/1/3 2638/1/3 2639/1/3 2640/1/3
f 2641/1/5 2642/1/5 2643/1/5 2644/1/5
f 2645/1/6 2646/1/6 2647/1/6 2648/1/6
f 2649/1/3 2650/1/3 2651/1/3 2652/1/3
f 2653/1/5 2654/1/5 2655/1/5 2656/1/5
f 2657/1/6 2658/1/6 2659/1/6 2660/1/6
f 2661/1/2 2662/1/2 2663/1/2 2664/1/2
f 2665/1/3 2666/1/3 2667/1/3 2668/1/3
f 2669/1/5 2670/1/5 2671/1/5 2672/1/5
f 2673/1/6 2674/1/6 2675/1/6 2676/1/6
f 2677/1/1 2678/1/1 2679/1/1 2680/1/1
f 2681/1/4 2682/1/4 2683/1/4 2684/1/4
f 2685/1/5 2686/1/5 2687/1/5 2688/1/5
f 2689/1/6 2690/1/6 2691/1/6 2692/1/6
f 2693/1/4 2694/1/4 2695/1/4 2696/1/4
f 2697/1/5 2698/1/5 2699/1/5 2700/1/5
f 2701/1/6 2702/1/6 2703/1/6 2704/1/6
f 2705/1/5 2706/1/5 2707/1/5 2708/1/5
f 2709/1/6 2710/1/6 2711/1/6 2712/1/6
f 2713/1/5 2714/1/5 2715/1/5 2716/1/5
f 2717/1/6 2718/1/6 2719/1/6 2720/1/6
f 2721/1/2 2722/1/2 2723/1/2 2724/1/2
f 2725/1/5 2726/1/5 2727/1/5 2728/1/5
f 2729/1/6 2730/1/6 2731/1/6 2732/1/6
f 2733/1/1 2734/1/1 2735/1/1 2736/1/1
f 2737/1/4 2738/1/4 2739/1/4 2740/1/4
f 2741/1/5 2742/1/5 2743/1/5 2744/1/5
f 2745/1/6 2746/1/6 2747/1/6 2748/1/6
f 2749/1/4 2750/1/4 2751/1/4 2752/1/4
f 2753/1/5 2754/1/5 2755/1/5 2756/1/5
f 2757/1/6 2758/1/6 2759/1/6 2760/1/6
f 2761/1/4 2762/1/4 2763/1/4 2764/1/4
f 2765/1/5 2766/1/5 2767/1/5 2768/1/5
f 2769/1/6 2770/1/6 2771/1/6 2772/1/6
f 2773/1/4 2774/1/4 2775/1/4 2776/1/4
f 2777/1/5 2778/1/5 2779/1/5 2780/1/5
f 2781/1/6 2782/1/6 2783/1/6 2784/1/6
f 2785/1/4 2786/1/4 2787/1/4 2788/1/4
f 2789/1/5 2790/1/5 2791/1/5 2792/1/5
f 2793/1/6 2794/1/6 2795/1/6 2796/1/6
f 2797/1/4 2798/1/4 2799/1/4 2800/1/4
f 2801/1/5 2802/1/5 2803/1/5 2804/1/5
f 2805/1/6 2806/1/6 2807/1/6 2808/1/6
f 2809/1/4 2810/1/4 2811/1/4 2812/1/4
f 2813/1/5 2814/1/5 2815/1/5 2816/1/5
f 2817/1/6 2818/1/6 2819/1/6 2820/1/6
f 2821/1/4 2822/1/4 2823/1/4 2824/1/4
f 2825/1/5 2826/1/5 2827/1/5 2828/1/5
f 2829/1/6 2830/1/6 2831/1/6 2832/1/6
f 2833/1/4 2834/1/4 2835/1/4 2836/1/4
f 2837/1/5 2838/1/5 2839/1/5 2840/1/5
f 2841/1/6 2842/1/6 2843/1/6 2844/1/6
f 2845/1/4 2846/1/4 2847/1/4 2848/1/4
f 2849/1/5 2850/1/5 2851/1/5 2852/1/5
f 2853/1/6 2854/1/6 2855/1/6 2856/1/6
f 2857/1/3 2858/1/3 2859/1/3 2860/1/3
f 2861/1/4 2862/1/4 2863/1/4 2864/1/4
f 2865/1/5 2866/1/5 2867/1/5 2868/1/5
f 2869/1/6 2870/1/6 2871/1/6 2872/1/6
f 2873/1/3 2874/1/3 2875/1/3 2876/1/3
f 2877/1/4 2878/1/4 2879/1/4 2880/1/4
f 2881/1/5 2882/1/5 2883/1/5 2884/1/5
f 2885/1/6 2886/1/6 2887/1/6 2888/1/6
f 2889/1/3 2890/1/3 2891/1/3 2892/1/3
f 2893/1/4 2894/1/4 2895/1/4 2896/1/4
f 2897/1/5 2898/1/5 2899/1/5 2900/1/5
f 2901/1/6 2902/1/6 2903/1/6 2904/1/6
f 2905/1/2 2906/1/2 2907/1/2 2908/1/2
f 2909/1/3 2910/1/3 2911/1/3 2912/1/3
f 2913/1/4 2914/1/4 2915/1/4 2916/1/4
f 2917/1/5 2918/1/5 2919/1/5 2920/1/5
f 2921/1/6 2922/1/6 2923/1/6 2924/1/6
f 2925/1/1 2926/1/1 2927/1/1 2928/1/1
f 2929/1/4 2930/1/4 2931/1/4 2932/1/4
f 2933/1/5 2934/1/5 2935/1/5 2936/1/5
f 2937/1/6 2938/1/6 2939/1/6 2940/1/6
f 2941/1/4 2942/1/4 2943/1/4 2944/1/4
f 2945/1/5 2946/1/5 2947/1/5 2948/1/5
f 2949/1/6 2950/1/6 2951/1/6 2952/1/6
f 2953/1/4 2954/1/4 2955/1/4 2956/1/4
f 2957/1/5 2958/1/5 2959/1/5 2960/1/5
f 2961/1/6 2962/1/6 2963/1/6 2964/1/6
f 2965/1/2 2966/1/2 2967/1/2 2968/1/2
f 2969/1/3 2970/1/3 2971/1/3 2972/1/3
f 2973/1/5 2974/1/5 2975/1/5 2976/1/5
f 2977/1/6 2978/1/6 2979/1/6 2980/1/6
f 2981/1/1 2982/1/1 2983/1/1 2984/1/1
f 2985/1/4 2986/1/4 2987/1/4 2988/1/4
f 2989/1/5 2990/1/5 2991/1/5 2992/1/5
f 2993/1/6 2994/1/6 2995/1/6 2996/1/6
f 2997/1/3 2998/1/3 2999/1/3 3000/1/3
f 3001/1/4 3002/1/4 3003/1/4 3004/1/4
f 3005/1/5 3006/1/5 3007/1/5 3008/1/5
f 3009/1/6 3010/1/6 3011/1/6 3012/1/6
f 3013/1/2 3014/1/2 3015/1/2 3016/1/2
f 3017/1/3 3018/1/3 3019/1/3 3020/1/3
f 3021/1/4 3022/1/4 3023/1/4 3024/1/4
f 3025/1/5 3026/1/5 3027/1/5 3028/1/5
f 3029/1/6 3030/1/6 3031/1/6 3032/1/6

