# generated by vox_to_obj_exporter
# scale=0.1 center=true ground=true y_up=false

mtllib lava_25_8.mtl
usemtl palette

# normals
vn -1 0 0
vn 1 0 0
vn 0 0 1
vn 0 0 -1
vn 0 -1 0
vn 0 1 0

# texcoords
vt 0.044921875 0.5
vt 0.001953125 0.5
vt 0.068359375 0.5
vt 0.021484375 0.5

# verts
v -0.7 -0.6 0.1
v -0.7 -0.6 0
v -0.7 -0.7 0
v -0.7 -0.7 0.1
v -0.7 -0.6 0.1
v -0.7 -0.7 0.1
v -0.6 -0.7 0.1
v -0.6 -0.6 0.1
v -0.7 -0.7 0
v -0.7 -0.6 0
v -0.6 -0.6 0
v -0.6 -0.7 0
v -0.7 -0.7 0.1
v -0.7 -0.7 0
v -0.6 -0.7 0
v -0.6 -0.7 0.1
v -0.7 -0.5 0.1
v -0.7 -0.5 0
v -0.7 -0.6 0
v -0.7 -0.6 0.1
v -0.7 -0.5 0.1
v -0.7 -0.6 0.1
v -0.6 -0.6 0.1
v -0.6 -0.5 0.1
v -0.7 -0.6 0
v -0.7 -0.5 0
v -0.6 -0.5 0
v -0.6 -0.6 0
v -0.6 -0.5 0.1
v -0.6 -0.5 0
v -0.7 -0.5 0
v -0.7 -0.5 0.1
v -0.6 -0.7 0.1
v -0.6 -0.7 0
v -0.6 -0.8 0
v -0.6 -0.8 0.1
v -0.6 -0.7 0.1
v -0.6 -0.8 0.1
v -0.5 -0.8 0.1
v -0.5 -0.7 0.1
v -0.6 -0.8 0
v -0.6 -0.7 0
v -0.5 -0.7 0
v -0.5 -0.8 0
v -0.6 -0.8 0.1
v -0.6 -0.8 0
v -0.5 -0.8 0
v -0.5 -0.8 0.1
v -0.6 -0.6 0.1
v -0.6 -0.7 0.1
v -0.5 -0.7 0.1
v -0.5 -0.6 0.1
v -0.6 -0.7 0
v -0.6 -0.6 0
v -0.5 -0.6 0
v -0.5 -0.7 0
v -0.6 -0.5 0.1
v -0.6 -0.6 0.1
v -0.5 -0.6 0.1
v -0.5 -0.5 0.1
v -0.6 -0.6 0
v -0.6 -0.5 0
v -0.5 -0.5 0
v -0.5 -0.6 0
v -0.6 -0.4 0.1
v -0.6 -0.4 0
v -0.6 -0.5 0
v -0.6 -0.5 0.1
v -0.6 -0.4 0.1
v -0.6 -0.5 0.1
v -0.5 -0.5 0.1
v -0.5 -0.4 0.1
v -0.6 -0.5 0
v -0.6 -0.4 0
v -0.5 -0.4 0
v -0.5 -0.5 0
v -0.6 -0.3 0.1
v -0.6 -0.3 0
v -0.6 -0.4 0
v -0.6 -0.4 0.1
v -0.6 -0.3 0.1
v -0.6 -0.4 0.1
v -0.5 -0.4 0.1
v -0.5 -0.3 0.1
v -0.6 -0.4 0
v -0.6 -0.3 0
v -0.5 -0.3 0
v -0.5 -0.4 0
v -0.6 -0.2 0.1
v -0.6 -0.2 0
v -0.6 -0.3 0
v -0.6 -0.3 0.1
v -0.6 -0.2 0.1
v -0.6 -0.3 0.1
v -0.5 -0.3 0.1
v -0.5 -0.2 0.1
v -0.6 -0.3 0
v -0.6 -0.2 0
v -0.5 -0.2 0
v -0.5 -0.3 0
v -0.6 -0.1 0.1
v -0.6 -0.1 0
v -0.6 -0.2 0
v -0.6 -0.2 0.1
v -0.6 -0.1 0.1
v -0.6 -0.2 0.1
v -0.5 -0.2 0.1
v -0.5 -0.1 0.1
v -0.6 -0.2 0
v -0.6 -0.1 0
v -0.5 -0.1 0
v -0.5 -0.2 0
v -0.5 -0.1 0.1
v -0.5 -0.1 0
v -0.6 -0.1 0
v -0.6 -0.1 0.1
v -0.5 -1.1 0.1
v -0.5 -1.1 0
v -0.5 -1.2 0
v -0.5 -1.2 0.1
v -0.5 -1.1 0.1
v -0.5 -1.2 0.1
v -0.4 -1.2 0.1
v -0.4 -1.1 0.1
v -0.5 -1.2 0
v -0.5 -1.1 0
v -0.4 -1.1 0
v -0.4 -1.2 0
v -0.5 -1.2 0.1
v -0.5 -1.2 0
v -0.4 -1.2 0
v -0.4 -1.2 0.1
v -0.5 -1 0.1
v -0.5 -1 0
v -0.5 -1.1 0
v -0.5 -1.1 0.1
v -0.5 -1 0.1
v -0.5 -1.1 0.1
v -0.4 -1.1 0.1
v -0.4 -1 0.1
v -0.5 -1.1 0
v -0.5 -1 0
v -0.4 -1 0
v -0.4 -1.1 0
v -0.5 -0.9 0.1
v -0.5 -0.9 0
v -0.5 -1 0
v -0.5 -1 0.1
v -0.5 -0.9 0.1
v -0.5 -1 0.1
v -0.4 -1 0.1
v -0.4 -0.9 0.1
v -0.5 -1 0
v -0.5 -0.9 0
v -0.4 -0.9 0
v -0.4 -1 0
v -0.5 -0.8 0.1
v -0.5 -0.8 0
v -0.5 -0.9 0
v -0.5 -0.9 0.1
v -0.5 -0.8 0.1
v -0.5 -0.9 0.1
v -0.4 -0.9 0.1
v -0.4 -0.8 0.1
v -0.5 -0.9 0
v -0.5 -0.8 0
v -0.4 -0.8 0
v -0.4 -0.9 0
v -0.5 -0.7 0.1
v -0.5 -0.8 0.1
v -0.4 -0.8 0.1
v -0.4 -0.7 0.1
v -0.5 -0.8 0
v -0.5 -0.7 0
v -0.4 -0.7 0
v -0.4 -0.8 0
v -0.5 -0.6 0.1
v -0.5 -0.7 0.1
v -0.4 -0.7 0.1
v -0.4 -0.6 0.1
v -0.5 -0.7 0
v -0.5 -0.6 0
v -0.4 -0.6 0
v -0.4 -0.7 0
v -0.5 -0.5 0.1
v -0.5 -0.6 0.1
v -0.4 -0.6 0.1
v -0.4 -0.5 0.1
v -0.5 -0.6 0
v -0.5 -0.5 0
v -0.4 -0.5 0
v -0.4 -0.6 0
v -0.5 -0.4 0.1
v -0.5 -0.5 0.1
v -0.4 -0.5 0.1
v -0.4 -0.4 0.1
v -0.5 -0.5 0
v -0.5 -0.4 0
v -0.4 -0.4 0
v -0.4 -0.5 0
v -0.5 -0.3 0.1
v -0.5 -0.4 0.1
v -0.4 -0.4 0.1
v -0.4 -0.3 0.1
v -0.5 -0.4 0
v -0.5 -0.3 0
v -0.4 -0.3 0
v -0.4 -0.4 0
v -0.5 -0.2 0.1
v -0.5 -0.3 0.1
v -0.4 -0.3 0.1
v -0.4 -0.2 0.1
v -0.5 -0.3 0
v -0.5 -0.2 0
v -0.4 -0.2 0
v -0.4 -0.3 0
v -0.5 -0.1 0.1
v -0.5 -0.2 0.1
v -0.4 -0.2 0.1
v -0.4 -0.1 0.1
v -0.5 -0.2 0
v -0.5 -0.1 0
v -0.4 -0.1 0
v -0.4 -0.2 0
v -0.5 0 0.1
v -0.5 0 0
v -0.5 -0.1 0
v -0.5 -0.1 0.1
v -0.5 0 0.1
v -0.5 -0.1 0.1
v -0.4 -0.1 0.1
v -0.4 0 0.1
v -0.5 -0.1 0
v -0.5 0 0
v -0.4 0 0
v -0.4 -0.1 0
v -0.5 0.1 0.1
v -0.5 0.1 0
v -0.5 0 0
v -0.5 0 0.1
v -0.5 0.1 0.1
v -0.5 0 0.1
v -0.4 0 0.1
v -0.4 0.1 0.1
v -0.5 0 0
v -0.5 0.1 0
v -0.4 0.1 0
v -0.4 0 0
v -0.5 0.2 0.1
v -0.5 0.2 0
v -0.5 0.1 0
v -0.5 0.1 0.1
v -0.5 0.2 0.1
v -0.5 0.1 0.1
v -0.4 0.1 0.1
v -0.4 0.2 0.1
v -0.5 0.1 0
v -0.5 0.2 0
v -0.4 0.2 0
v -0.4 0.1 0
v -0.5 0.3 0.1
v -0.5 0.3 0
v -0.5 0.2 0
v -0.5 0.2 0.1
v -0.5 0.3 0.1
v -0.5 0.2 0.1
v -0.4 0.2 0.1
v -0.4 0.3 0.1
v -0.5 0.2 0
v -0.5 0.3 0
v -0.4 0.3 0
v -0.4 0.2 0
v -0.5 0.4 0.1
v -0.5 0.4 0
v -0.5 0.3 0
v -0.5 0.3 0.1
v -0.5 0.4 0.1
v -0.5 0.3 0.1
v -0.4 0.3 0.1
v -0.4 0.4 0.1
v -0.5 0.3 0
v -0.5 0.4 0
v -0.4 0.4 0
v -0.4 0.3 0
v -0.5 0.5 0.1
v -0.5 0.5 0
v -0.5 0.4 0
v -0.5 0.4 0.1
v -0.5 0.5 0.1
v -0.5 0.4 0.1
v -0.4 0.4 0.1
v -0.4 0.5 0.1
v -0.5 0.4 0
v -0.5 0.5 0
v -0.4 0.5 0
v -0.4 0.4 0
v -0.5 0.6 0.1
v -0.5 0.6 0
v -0.5 0.5 0
v -0.5 0.5 0.1
v -0.5 0.6 0.1
v -0.5 0.5 0.1
v -0.4 0.5 0.1
v -0.4 0.6 0.1
v -0.5 0.5 0
v -0.5 0.6 0
v -0.4 0.6 0
v -0.4 0.5 0
v -0.5 0.7 0.1
v -0.5 0.7 0
v -0.5 0.6 0
v -0.5 0.6 0.1
v -0.5 0.7 0.1
v -0.5 0.6 0.1
v -0.4 0.6 0.1
v -0.4 0.7 0.1
v -0.5 0.6 0
v -0.5 0.7 0
v -0.4 0.7 0
v -0.4 0.6 0
v -0.5 0.8 0.1
v -0.5 0.8 0
v -0.5 0.7 0
v -0.5 0.7 0.1
v -0.5 0.8 0.1
v -0.5 0.7 0.1
v -0.4 0.7 0.1
v -0.4 0.8 0.1
v -0.5 0.7 0
v -0.5 0.8 0
v -0.4 0.8 0
v -0.4 0.7 0
v -0.5 0.9 0.1
v -0.5 0.9 0
v -0.5 0.8 0
v -0.5 0.8 0.1
v -0.5 0.9 0.1
v -0.5 0.8 0.1
v -0.4 0.8 0.1
v -0.4 0.9 0.1
v -0.5 0.8 0
v -0.5 0.9 0
v -0.4 0.9 0
v -0.4 0.8 0
v -0.5 1 0.1
v -0.5 1 0
v -0.5 0.9 0
v -0.5 0.9 0.1
v -0.5 1 0.1
v -0.5 0.9 0.1
v -0.4 0.9 0.1
v -0.4 1 0.1
v -0.5 0.9 0
v -0.5 1 0
v -0.4 1 0
v -0.4 0.9 0
v -0.5 1.1 0.1
v -0.5 1.1 0
v -0.5 1 0
v -0.5 1 0.1
v -0.5 1.1 0.1
v -0.5 1 0.1
v -0.4 1 0.1
v -0.4 1.1 0.1
v -0.5 1 0
v -0.5 1.1 0
v -0.4 1.1 0
v -0.4 1 0
v -0.5 1.2 0.1
v -0.5 1.2 0
v -0.5 1.1 0
v -0.5 1.1 0.1
v -0.5 1.2 0.1
v -0.5 1.1 0.1
v -0.4 1.1 0.1
v -0.4 1.2 0.1
v -0.5 1.1 0
v -0.5 1.2 0
v -0.4 1.2 0
v -0.4 1.1 0
v -0.4 1.2 0.1
v -0.4 1.2 0
v -0.5 1.2 0
v -0.5 1.2 0.1
v -0.4 -1.1 0.1
v -0.4 -1.2 0.1
v -0.3 -1.2 0.1
v -0.3 -1.1 0.1
v -0.4 -1.2 0
v -0.4 -1.1 0
v -0.3 -1.1 0
v -0.3 -1.2 0
v -0.4 -1.2 0.1
v -0.4 -1.2 0
v -0.3 -1.2 0
v -0.3 -1.2 0.1
v -0.4 -1 0.1
v -0.4 -1.1 0.1
v -0.3 -1.1 0.1
v -0.3 -1 0.1
v -0.4 -1.1 0
v -0.4 -1 0
v -0.3 -1 0
v -0.3 -1.1 0
v -0.4 -0.9 0.1
v -0.4 -1 0.1
v -0.3 -1 0.1
v -0.3 -0.9 0.1
v -0.4 -1 0
v -0.4 -0.9 0
v -0.3 -0.9 0
v -0.3 -1 0
v -0.4 -0.8 0.1
v -0.4 -0.9 0.1
v -0.3 -0.9 0.1
v -0.3 -0.8 0.1
v -0.4 -0.9 0
v -0.4 -0.8 0
v -0.3 -0.8 0
v -0.3 -0.9 0
v -0.4 -0.7 0.1
v -0.4 -0.8 0.1
v -0.3 -0.8 0.1
v -0.3 -0.7 0.1
v -0.4 -0.8 0
v -0.4 -0.7 0
v -0.3 -0.7 0
v -0.3 -0.8 0
v -0.4 -0.6 0.1
v -0.4 -0.7 0.1
v -0.3 -0.7 0.1
v -0.3 -0.6 0.1
v -0.4 -0.7 0
v -0.4 -0.6 0
v -0.3 -0.6 0
v -0.3 -0.7 0
v -0.4 -0.5 0.1
v -0.4 -0.6 0.1
v -0.3 -0.6 0.1
v -0.3 -0.5 0.1
v -0.4 -0.6 0
v -0.4 -0.5 0
v -0.3 -0.5 0
v -0.3 -0.6 0
v -0.4 -0.4 0.1
v -0.4 -0.5 0.1
v -0.3 -0.5 0.1
v -0.3 -0.4 0.1
v -0.4 -0.5 0
v -0.4 -0.4 0
v -0.3 -0.4 0
v -0.3 -0.5 0
v -0.4 -0.3 0.1
v -0.4 -0.4 0.1
v -0.3 -0.4 0.1
v -0.3 -0.3 0.1
v -0.4 -0.4 0
v -0.4 -0.3 0
v -0.3 -0.3 0
v -0.3 -0.4 0
v -0.4 -0.2 0.1
v -0.4 -0.3 0.1
v -0.3 -0.3 0.1
v -0.3 -0.2 0.1
v -0.4 -0.3 0
v -0.4 -0.2 0
v -0.3 -0.2 0
v -0.3 -0.3 0
v -0.4 -0.1 0.1
v -0.4 -0.2 0.1
v -0.3 -0.2 0.1
v -0.3 -0.1 0.1
v -0.4 -0.2 0
v -0.4 -0.1 0
v -0.3 -0.1 0
v -0.3 -0.2 0
v -0.4 0 0.1
v -0.4 -0.1 0.1
v -0.3 -0.1 0.1
v -0.3 0 0.1
v -0.4 -0.1 0
v -0.4 0 0
v -0.3 0 0
v -0.3 -0.1 0
v -0.4 0.1 0.1
v -0.4 0 0.1
v -0.3 0 0.1
v -0.3 0.1 0.1
v -0.4 0 0
v -0.4 0.1 0
v -0.3 0.1 0
v -0.3 0 0
v -0.4 0.2 0.1
v -0.4 0.1 0.1
v -0.3 0.1 0.1
v -0.3 0.2 0.1
v -0.4 0.1 0
v -0.4 0.2 0
v -0.3 0.2 0
v -0.3 0.1 0
v -0.4 0.3 0.1
v -0.4 0.2 0.1
v -0.3 0.2 0.1
v -0.3 0.3 0.1
v -0.4 0.2 0
v -0.4 0.3 0
v -0.3 0.3 0
v -0.3 0.2 0
v -0.4 0.4 0.1
v -0.4 0.3 0.1
v -0.3 0.3 0.1
v -0.3 0.4 0.1
v -0.4 0.3 0
v -0.4 0.4 0
v -0.3 0.4 0
v -0.3 0.3 0
v -0.4 0.5 0.1
v -0.4 0.4 0.1
v -0.3 0.4 0.1
v -0.3 0.5 0.1
v -0.4 0.4 0
v -0.4 0.5 0
v -0.3 0.5 0
v -0.3 0.4 0
v -0.4 0.6 0.1
v -0.4 0.5 0.1
v -0.3 0.5 0.1
v -0.3 0.6 0.1
v -0.4 0.5 0
v -0.4 0.6 0
v -0.3 0.6 0
v -0.3 0.5 0
v -0.4 0.7 0.1
v -0.4 0.6 0.1
v -0.3 0.6 0.1
v -0.3 0.7 0.1
v -0.4 0.6 0
v -0.4 0.7 0
v -0.3 0.7 0
v -0.3 0.6 0
v -0.4 0.8 0.1
v -0.4 0.7 0.1
v -0.3 0.7 0.1
v -0.3 0.8 0.1
v -0.4 0.7 0
v -0.4 0.8 0
v -0.3 0.8 0
v -0.3 0.7 0
v -0.4 0.9 0.1
v -0.4 0.8 0.1
v -0.3 0.8 0.1
v -0.3 0.9 0.1
v -0.4 0.8 0
v -0.4 0.9 0
v -0.3 0.9 0
v -0.3 0.8 0
v -0.4 1 0.1
v -0.4 0.9 0.1
v -0.3 0.9 0.1
v -0.3 1 0.1
v -0.4 0.9 0
v -0.4 1 0
v -0.3 1 0
v -0.3 0.9 0
v -0.4 1.1 0.1
v -0.4 1 0.1
v -0.3 1 0.1
v -0.3 1.1 0.1
v -0.4 1 0
v -0.4 1.1 0
v -0.3 1.1 0
v -0.3 1 0
v -0.4 1.2 0.1
v -0.4 1.1 0.1
v -0.3 1.1 0.1
v -0.3 1.2 0.1
v -0.4 1.1 0
v -0.4 1.2 0
v -0.3 1.2 0
v -0.3 1.1 0
v -0.3 1.2 0.1
v -0.3 1.2 0
v -0.4 1.2 0
v -0.4 1.2 0.1
v -0.3 -1.1 0.1
v -0.3 -1.2 0.1
v -0.2 -1.2 0.1
v -0.2 -1.1 0.1
v -0.3 -1.2 0
v -0.3 -1.1 0
v -0.2 -1.1 0
v -0.2 -1.2 0
v -0.3 -1.2 0.1
v -0.3 -1.2 0
v -0.2 -1.2 0
v -0.2 -1.2 0.1
v -0.3 -1 0.1
v -0.3 -1.1 0.1
v -0.2 -1.1 0.1
v -0.2 -1 0.1
v -0.3 -1.1 0
v -0.3 -1 0
v -0.2 -1 0
v -0.2 -1.1 0
v -0.3 -0.9 0.1
v -0.3 -1 0.1
v -0.2 -1 0.1
v -0.2 -0.9 0.1
v -0.3 -1 0
v -0.3 -0.9 0
v -0.2 -0.9 0
v -0.2 -1 0
v -0.3 -0.8 0.1
v -0.3 -0.9 0.1
v -0.2 -0.9 0.1
v -0.2 -0.8 0.1
v -0.3 -0.9 0
v -0.3 -0.8 0
v -0.2 -0.8 0
v -0.2 -0.9 0
v -0.3 -0.7 0.1
v -0.3 -0.8 0.1
v -0.2 -0.8 0.1
v -0.2 -0.7 0.1
v -0.3 -0.8 0
v -0.3 -0.7 0
v -0.2 -0.7 0
v -0.2 -0.8 0
v -0.3 -0.6 0.1
v -0.3 -0.7 0.1
v -0.2 -0.7 0.1
v -0.2 -0.6 0.1
v -0.3 -0.7 0
v -0.3 -0.6 0
v -0.2 -0.6 0
v -0.2 -0.7 0
v -0.3 -0.5 0.1
v -0.3 -0.6 0.1
v -0.2 -0.6 0.1
v -0.2 -0.5 0.1
v -0.3 -0.6 0
v -0.3 -0.5 0
v -0.2 -0.5 0
v -0.2 -0.6 0
v -0.3 -0.4 0.1
v -0.3 -0.5 0.1
v -0.2 -0.5 0.1
v -0.2 -0.4 0.1
v -0.3 -0.5 0
v -0.3 -0.4 0
v -0.2 -0.4 0
v -0.2 -0.5 0
v -0.3 -0.3 0.1
v -0.3 -0.4 0.1
v -0.2 -0.4 0.1
v -0.2 -0.3 0.1
v -0.3 -0.4 0
v -0.3 -0.3 0
v -0.2 -0.3 0
v -0.2 -0.4 0
v -0.3 -0.2 0.1
v -0.3 -0.3 0.1
v -0.2 -0.3 0.1
v -0.2 -0.2 0.1
v -0.3 -0.3 0
v -0.3 -0.2 0
v -0.2 -0.2 0
v -0.2 -0.3 0
v -0.3 -0.1 0.1
v -0.3 -0.2 0.1
v -0.2 -0.2 0.1
v -0.2 -0.1 0.1
v -0.3 -0.2 0
v -0.3 -0.1 0
v -0.2 -0.1 0
v -0.2 -0.2 0
v -0.3 0 0.1
v -0.3 -0.1 0.1
v -0.2 -0.1 0.1
v -0.2 0 0.1
v -0.3 -0.1 0
v -0.3 0 0
v -0.2 0 0
v -0.2 -0.1 0
v -0.3 0.1 0.1
v -0.3 0 0.1
v -0.2 0 0.1
v -0.2 0.1 0.1
v -0.3 0 0
v -0.3 0.1 0
v -0.2 0.1 0
v -0.2 0 0
v -0.3 0.2 0.1
v -0.3 0.1 0.1
v -0.2 0.1 0.1
v -0.2 0.2 0.1
v -0.3 0.1 0
v -0.3 0.2 0
v -0.2 0.2 0
v -0.2 0.1 0
v -0.3 0.3 0.1
v -0.3 0.2 0.1
v -0.2 0.2 0.1
v -0.2 0.3 0.1
v -0.3 0.2 0
v -0.3 0.3 0
v -0.2 0.3 0
v -0.2 0.2 0
v -0.3 0.4 0.1
v -0.3 0.3 0.1
v -0.2 0.3 0.1
v -0.2 0.4 0.1
v -0.3 0.3 0
v -0.3 0.4 0
v -0.2 0.4 0
v -0.2 0.3 0
v -0.3 0.5 0.1
v -0.3 0.4 0.1
v -0.2 0.4 0.1
v -0.2 0.5 0.1
v -0.3 0.4 0
v -0.3 0.5 0
v -0.2 0.5 0
v -0.2 0.4 0
v -0.3 0.6 0.1
v -0.3 0.5 0.1
v -0.2 0.5 0.1
v -0.2 0.6 0.1
v -0.3 0.5 0
v -0.3 0.6 0
v -0.2 0.6 0
v -0.2 0.5 0
v -0.3 0.7 0.1
v -0.3 0.6 0.1
v -0.2 0.6 0.1
v -0.2 0.7 0.1
v -0.3 0.6 0
v -0.3 0.7 0
v -0.2 0.7 0
v -0.2 0.6 0
v -0.3 0.8 0.1
v -0.3 0.7 0.1
v -0.2 0.7 0.1
v -0.2 0.8 0.1
v -0.3 0.7 0
v -0.3 0.8 0
v -0.2 0.8 0
v -0.2 0.7 0
v -0.3 0.9 0.1
v -0.3 0.8 0.1
v -0.2 0.8 0.1
v -0.2 0.9 0.1
v -0.3 0.8 0
v -0.3 0.9 0
v -0.2 0.9 0
v -0.2 0.8 0
v -0.3 1 0.1
v -0.3 0.9 0.1
v -0.2 0.9 0.1
v -0.2 1 0.1
v -0.3 0.9 0
v -0.3 1 0
v -0.2 1 0
v -0.2 0.9 0
v -0.3 1.1 0.1
v -0.3 1 0.1
v -0.2 1 0.1
v -0.2 1.1 0.1
v -0.3 1 0
v -0.3 1.1 0
v -0.2 1.1 0
v -0.2 1 0
v -0.3 1.2 0.1
v -0.3 1.1 0.1
v -0.2 1.1 0.1
v -0.2 1.2 0.1
v -0.3 1.1 0
v -0.3 1.2 0
v -0.2 1.2 0
v -0.2 1.1 0
v -0.2 1.2 0.1
v -0.2 1.2 0
v -0.3 1.2 0
v -0.3 1.2 0.1
v -0.2 -1.1 0.1
v -0.2 -1.2 0.1
v -0.1 -1.2 0.1
v -0.1 -1.1 0.1
v -0.2 -1.2 0
v -0.2 -1.1 0
v -0.1 -1.1 0
v -0.1 -1.2 0
v -0.2 -1.2 0.1
v -0.2 -1.2 0
v -0.1 -1.2 0
v -0.1 -1.2 0.1
v -0.2 -1 0.1
v -0.2 -1.1 0.1
v -0.1 -1.1 0.1
v -0.1 -1 0.1
v -0.2 -1.1 0
v -0.2 -1 0
v -0.1 -1 0
v -0.1 -1.1 0
v -0.2 -0.9 0.1
v -0.2 -1 0.1
v -0.1 -1 0.1
v -0.1 -0.9 0.1
v -0.2 -1 0
v -0.2 -0.9 0
v -0.1 -0.9 0
v -0.1 -1 0
v -0.2 -0.8 0.1
v -0.2 -0.9 0.1
v -0.1 -0.9 0.1
v -0.1 -0.8 0.1
v -0.2 -0.9 0
v -0.2 -0.8 0
v -0.1 -0.8 0
v -0.1 -0.9 0
v -0.2 -0.7 0.1
v -0.2 -0.8 0.1
v -0.1 -0.8 0.1
v -0.1 -0.7 0.1
v -0.2 -0.8 0
v -0.2 -0.7 0
v -0.1 -0.7 0
v -0.1 -0.8 0
v -0.2 -0.6 0.1
v -0.2 -0.7 0.1
v -0.1 -0.7 0.1
v -0.1 -0.6 0.1
v -0.2 -0.7 0
v -0.2 -0.6 0
v -0.1 -0.6 0
v -0.1 -0.7 0
v -0.2 -0.5 0.1
v -0.2 -0.6 0.1
v -0.1 -0.6 0.1
v -0.1 -0.5 0.1
v -0.2 -0.6 0
v -0.2 -0.5 0
v -0.1 -0.5 0
v -0.1 -0.6 0
v -0.2 -0.4 0.1
v -0.2 -0.5 0.1
v -0.1 -0.5 0.1
v -0.1 -0.4 0.1
v -0.2 -0.5 0
v -0.2 -0.4 0
v -0.1 -0.4 0
v -0.1 -0.5 0
v -0.2 -0.3 0.1
v -0.2 -0.4 0.1
v -0.1 -0.4 0.1
v -0.1 -0.3 0.1
v -0.2 -0.4 0
v -0.2 -0.3 0
v -0.1 -0.3 0
v -0.1 -0.4 0
v -0.2 -0.2 0.1
v -0.2 -0.3 0.1
v -0.1 -0.3 0.1
v -0.1 -0.2 0.1
v -0.2 -0.3 0
v -0.2 -0.2 0
v -0.1 -0.2 0
v -0.1 -0.3 0
v -0.2 -0.1 0.1
v -0.2 -0.2 0.1
v -0.1 -0.2 0.1
v -0.1 -0.1 0.1
v -0.2 -0.2 0
v -0.2 -0.1 0
v -0.1 -0.1 0
v -0.1 -0.2 0
v -0.2 0 0.1
v -0.2 -0.1 0.1
v -0.1 -0.1 0.1
v -0.1 0 0.1
v -0.2 -0.1 0
v -0.2 0 0
v -0.1 0 0
v -0.1 -0.1 0
v -0.2 0.1 0.1
v -0.2 0 0.1
v -0.1 0 0.1
v -0.1 0.1 0.1
v -0.2 0 0
v -0.2 0.1 0
v -0.1 0.1 0
v -0.1 0 0
v -0.2 0.2 0.1
v -0.2 0.1 0.1
v -0.1 0.1 0.1
v -0.1 0.2 0.1
v -0.2 0.1 0
v -0.2 0.2 0
v -0.1 0.2 0
v -0.1 0.1 0
v -0.2 0.3 0.1
v -0.2 0.2 0.1
v -0.1 0.2 0.1
v -0.1 0.3 0.1
v -0.2 0.2 0
v -0.2 0.3 0
v -0.1 0.3 0
v -0.1 0.2 0
v -0.2 0.4 0.1
v -0.2 0.3 0.1
v -0.1 0.3 0.1
v -0.1 0.4 0.1
v -0.2 0.3 0
v -0.2 0.4 0
v -0.1 0.4 0
v -0.1 0.3 0
v -0.2 0.5 0.1
v -0.2 0.4 0.1
v -0.1 0.4 0.1
v -0.1 0.5 0.1
v -0.2 0.4 0
v -0.2 0.5 0
v -0.1 0.5 0
v -0.1 0.4 0
v -0.2 0.6 0.1
v -0.2 0.5 0.1
v -0.1 0.5 0.1
v -0.1 0.6 0.1
v -0.2 0.5 0
v -0.2 0.6 0
v -0.1 0.6 0
v -0.1 0.5 0
v -0.2 0.7 0.1
v -0.2 0.6 0.1
v -0.1 0.6 0.1
v -0.1 0.7 0.1
v -0.2 0.6 0
v -0.2 0.7 0
v -0.1 0.7 0
v -0.1 0.6 0
v -0.2 0.8 0.1
v -0.2 0.7 0.1
v -0.1 0.7 0.1
v -0.1 0.8 0.1
v -0.2 0.7 0
v -0.2 0.8 0
v -0.1 0.8 0
v -0.1 0.7 0
v -0.2 0.9 0.1
v -0.2 0.8 0.1
v -0.1 0.8 0.1
v -0.1 0.9 0.1
v -0.2 0.8 0
v -0.2 0.9 0
v -0.1 0.9 0
v -0.1 0.8 0
v -0.2 1 0.1
v -0.2 0.9 0.1
v -0.1 0.9 0.1
v -0.1 1 0.1
v -0.2 0.9 0
v -0.2 1 0
v -0.1 1 0
v -0.1 0.9 0
v -0.2 1.1 0.1
v -0.2 1 0.1
v -0.1 1 0.1
v -0.1 1.1 0.1
v -0.2 1 0
v -0.2 1.1 0
v -0.1 1.1 0
v -0.1 1 0
v -0.2 1.2 0.1
v -0.2 1.1 0.1
v -0.1 1.1 0.1
v -0.1 1.2 0.1
v -0.2 1.1 0
v -0.2 1.2 0
v -0.1 1.2 0
v -0.1 1.1 0
v -0.1 1.2 0.1
v -0.1 1.2 0
v -0.2 1.2 0
v -0.2 1.2 0.1
v -0.1 -1.1 0.1
v -0.1 -1.2 0.1
v 0 -1.2 0.1
v 0 -1.1 0.1
v -0.1 -1.2 0
v -0.1 -1.1 0
v 0 -1.1 0
v 0 -1.2 0
v -0.1 -1.2 0.1
v -0.1 -1.2 0
v 0 -1.2 0
v 0 -1.2 0.1
v -0.1 -1 0.1
v -0.1 -1.1 0.1
v 0 -1.1 0.1
v 0 -1 0.1
v -0.1 -1.1 0
v -0.1 -1 0
v 0 -1 0
v 0 -1.1 0
v -0.1 -0.9 0.1
v -0.1 -1 0.1
v 0 -1 0.1
v 0 -0.9 0.1
v -0.1 -1 0
v -0.1 -0.9 0
v 0 -0.9 0
v 0 -1 0
v -0.1 -0.8 0.1
v -0.1 -0.9 0.1
v 0 -0.9 0.1
v 0 -0.8 0.1
v -0.1 -0.9 0
v -0.1 -0.8 0
v 0 -0.8 0
v 0 -0.9 0
v -0.1 -0.7 0.1
v -0.1 -0.8 0.1
v 0 -0.8 0.1
v 0 -0.7 0.1
v -0.1 -0.8 0
v -0.1 -0.7 0
v 0 -0.7 0
v 0 -0.8 0
v -0.1 -0.6 0.1
v -0.1 -0.7 0.1
v 0 -0.7 0.1
v 0 -0.6 0.1
v -0.1 -0.7 0
v -0.1 -0.6 0
v 0 -0.6 0
v 0 -0.7 0
v -0.1 -0.5 0.1
v -0.1 -0.6 0.1
v 0 -0.6 0.1
v 0 -0.5 0.1
v -0.1 -0.6 0
v -0.1 -0.5 0
v 0 -0.5 0
v 0 -0.6 0
v -0.1 -0.4 0.1
v -0.1 -0.5 0.1
v 0 -0.5 0.1
v 0 -0.4 0.1
v -0.1 -0.5 0
v -0.1 -0.4 0
v 0 -0.4 0
v 0 -0.5 0
v -0.1 -0.3 0.1
v -0.1 -0.4 0.1
v 0 -0.4 0.1
v 0 -0.3 0.1
v -0.1 -0.4 0
v -0.1 -0.3 0
v 0 -0.3 0
v 0 -0.4 0
v -0.1 -0.2 0.1
v -0.1 -0.3 0.1
v 0 -0.3 0.1
v 0 -0.2 0.1
v -0.1 -0.3 0
v -0.1 -0.2 0
v 0 -0.2 0
v 0 -0.3 0
v -0.1 -0.1 0.1
v -0.1 -0.2 0.1
v 0 -0.2 0.1
v 0 -0.1 0.1
v -0.1 -0.2 0
v -0.1 -0.1 0
v 0 -0.1 0
v 0 -0.2 0
v -0.1 0 0.1
v -0.1 -0.1 0.1
v 0 -0.1 0.1
v 0 0 0.1
v -0.1 -0.1 0
v -0.1 0 0
v 0 0 0
v 0 -0.1 0
v -0.1 0.1 0.1
v -0.1 0 0.1
v 0 0 0.1
v 0 0.1 0.1
v -0.1 0 0
v -0.1 0.1 0
v 0 0.1 0
v 0 0 0
v -0.1 0.2 0.1
v -0.1 0.1 0.1
v 0 0.1 0.1
v 0 0.2 0.1
v -0.1 0.1 0
v -0.1 0.2 0
v 0 0.2 0
v 0 0.1 0
v -0.1 0.3 0.1
v -0.1 0.2 0.1
v 0 0.2 0.1
v 0 0.3 0.1
v -0.1 0.2 0
v -0.1 0.3 0
v 0 0.3 0
v 0 0.2 0
v -0.1 0.4 0.1
v -0.1 0.3 0.1
v 0 0.3 0.1
v 0 0.4 0.1
v -0.1 0.3 0
v -0.1 0.4 0
v 0 0.4 0
v 0 0.3 0
v -0.1 0.5 0.1
v -0.1 0.4 0.1
v 0 0.4 0.1
v 0 0.5 0.1
v -0.1 0.4 0
v -0.1 0.5 0
v 0 0.5 0
v 0 0.4 0
v -0.1 0.6 0.1
v -0.1 0.5 0.1
v 0 0.5 0.1
v 0 0.6 0.1
v -0.1 0.5 0
v -0.1 0.6 0
v 0 0.6 0
v 0 0.5 0
v -0.1 0.7 0.1
v -0.1 0.6 0.1
v 0 0.6 0.1
v 0 0.7 0.1
v -0.1 0.6 0
v -0.1 0.7 0
v 0 0.7 0
v 0 0.6 0
v -0.1 0.8 0.1
v -0.1 0.7 0.1
v 0 0.7 0.1
v 0 0.8 0.1
v -0.1 0.7 0
v -0.1 0.8 0
v 0 0.8 0
v 0 0.7 0
v -0.1 0.9 0.1
v -0.1 0.8 0.1
v 0 0.8 0.1
v 0 0.9 0.1
v -0.1 0.8 0
v -0.1 0.9 0
v 0 0.9 0
v 0 0.8 0
v -0.1 1 0.1
v -0.1 0.9 0.1
v 0 0.9 0.1
v 0 1 0.1
v -0.1 0.9 0
v -0.1 1 0
v 0 1 0
v 0 0.9 0
v -0.1 1.1 0.1
v -0.1 1 0.1
v 0 1 0.1
v 0 1.1 0.1
v -0.1 1 0
v -0.1 1.1 0
v 0 1.1 0
v 0 1 0
v -0.1 1.2 0.1
v -0.1 1.1 0.1
v 0 1.1 0.1
v 0 1.2 0.1
v -0.1 1.1 0
v -0.1 1.2 0
v 0 1.2 0
v 0 1.1 0
v 0 1.2 0.1
v 0 1.2 0
v -0.1 1.2 0
v -0.1 1.2 0.1
v 0 -1.1 0.1
v 0 -1.2 0.1
v 0.1 -1.2 0.1
v 0.1 -1.1 0.1
v 0 -1.2 0
v 0 -1.1 0
v 0.1 -1.1 0
v 0.1 -1.2 0
v 0 -1.2 0.1
v 0 -1.2 0
v 0.1 -1.2 0
v 0.1 -1.2 0.1
v 0 -1 0.1
v 0 -1.1 0.1
v 0.1 -1.1 0.1
v 0.1 -1 0.1
v 0 -1.1 0
v 0 -1 0
v 0.1 -1 0
v 0.1 -1.1 0
v 0 -0.9 0.1
v 0 -1 0.1
v 0.1 -1 0.1
v 0.1 -0.9 0.1
v 0 -1 0
v 0 -0.9 0
v 0.1 -0.9 0
v 0.1 -1 0
v 0 -0.8 0.1
v 0 -0.9 0.1
v 0.1 -0.9 0.1
v 0.1 -0.8 0.1
v 0 -0.9 0
v 0 -0.8 0
v 0.1 -0.8 0
v 0.1 -0.9 0
v 0 -0.7 0.1
v 0 -0.8 0.1
v 0.1 -0.8 0.1
v 0.1 -0.7 0.1
v 0 -0.8 0
v 0 -0.7 0
v 0.1 -0.7 0
v 0.1 -0.8 0
v 0 -0.6 0.1
v 0 -0.7 0.1
v 0.1 -0.7 0.1
v 0.1 -0.6 0.1
v 0 -0.7 0
v 0 -0.6 0
v 0.1 -0.6 0
v 0.1 -0.7 0
v 0 -0.5 0.1
v 0 -0.6 0.1
v 0.1 -0.6 0.1
v 0.1 -0.5 0.1
v 0 -0.6 0
v 0 -0.5 0
v 0.1 -0.5 0
v 0.1 -0.6 0
v 0 -0.4 0.1
v 0 -0.5 0.1
v 0.1 -0.5 0.1
v 0.1 -0.4 0.1
v 0 -0.5 0
v 0 -0.4 0
v 0.1 -0.4 0
v 0.1 -0.5 0
v 0 -0.3 0.1
v 0 -0.4 0.1
v 0.1 -0.4 0.1
v 0.1 -0.3 0.1
v 0 -0.4 0
v 0 -0.3 0
v 0.1 -0.3 0
v 0.1 -0.4 0
v 0 -0.2 0.1
v 0 -0.3 0.1
v 0.1 -0.3 0.1
v 0.1 -0.2 0.1
v 0 -0.3 0
v 0 -0.2 0
v 0.1 -0.2 0
v 0.1 -0.3 0
v 0 -0.1 0.1
v 0 -0.2 0.1
v 0.1 -0.2 0.1
v 0.1 -0.1 0.1
v 0 -0.2 0
v 0 -0.1 0
v 0.1 -0.1 0
v 0.1 -0.2 0
v 0 0 0.1
v 0 -0.1 0.1
v 0.1 -0.1 0.1
v 0.1 0 0.1
v 0 -0.1 0
v 0 0 0
v 0.1 0 0
v 0.1 -0.1 0
v 0 0.1 0.1
v 0 0 0.1
v 0.1 0 0.1
v 0.1 0.1 0.1
v 0 0 0
v 0 0.1 0
v 0.1 0.1 0
v 0.1 0 0
v 0 0.2 0.1
v 0 0.1 0.1
v 0.1 0.1 0.1
v 0.1 0.2 0.1
v 0 0.1 0
v 0 0.2 0
v 0.1 0.2 0
v 0.1 0.1 0
v 0 0.3 0.1
v 0 0.2 0.1
v 0.1 0.2 0.1
v 0.1 0.3 0.1
v 0 0.2 0
v 0 0.3 0
v 0.1 0.3 0
v 0.1 0.2 0
v 0 0.4 0.1
v 0 0.3 0.1
v 0.1 0.3 0.1
v 0.1 0.4 0.1
v 0 0.3 0
v 0 0.4 0
v 0.1 0.4 0
v 0.1 0.3 0
v 0 0.5 0.1
v 0 0.4 0.1
v 0.1 0.4 0.1
v 0.1 0.5 0.1
v 0 0.4 0
v 0 0.5 0
v 0.1 0.5 0
v 0.1 0.4 0
v 0 0.6 0.1
v 0 0.5 0.1
v 0.1 0.5 0.1
v 0.1 0.6 0.1
v 0 0.5 0
v 0 0.6 0
v 0.1 0.6 0
v 0.1 0.5 0
v 0 0.7 0.1
v 0 0.6 0.1
v 0.1 0.6 0.1
v 0.1 0.7 0.1
v 0 0.6 0
v 0 0.7 0
v 0.1 0.7 0
v 0.1 0.6 0
v 0 0.8 0.1
v 0 0.7 0.1
v 0.1 0.7 0.1
v 0.1 0.8 0.1
v 0 0.7 0
v 0 0.8 0
v 0.1 0.8 0
v 0.1 0.7 0
v 0 0.9 0.1
v 0 0.8 0.1
v 0.1 0.8 0.1
v 0.1 0.9 0.1
v 0 0.8 0
v 0 0.9 0
v 0.1 0.9 0
v 0.1 0.8 0
v 0 1 0.1
v 0 0.9 0.1
v 0.1 0.9 0.1
v 0.1 1 0.1
v 0 0.9 0
v 0 1 0
v 0.1 1 0
v 0.1 0.9 0
v 0 1.1 0.1
v 0 1 0.1
v 0.1 1 0.1
v 0.1 1.1 0.1
v 0 1 0
v 0 1.1 0
v 0.1 1.1 0
v 0.1 1 0
v 0 1.2 0.1
v 0 1.1 0.1
v 0.1 1.1 0.1
v 0.1 1.2 0.1
v 0 1.1 0
v 0 1.2 0
v 0.1 1.2 0
v 0.1 1.1 0
v 0.1 1.2 0.1
v 0.1 1.2 0
v 0 1.2 0
v 0 1.2 0.1
v 0.1 -1.1 0.1
v 0.1 -1.2 0.1
v 0.2 -1.2 0.1
v 0.2 -1.1 0.1
v 0.1 -1.2 0
v 0.1 -1.1 0
v 0.2 -1.1 0
v 0.2 -1.2 0
v 0.1 -1.2 0.1
v 0.1 -1.2 0
v 0.2 -1.2 0
v 0.2 -1.2 0.1
v 0.1 -1 0.1
v 0.1 -1.1 0.1
v 0.2 -1.1 0.1
v 0.2 -1 0.1
v 0.1 -1.1 0
v 0.1 -1 0
v 0.2 -1 0
v 0.2 -1.1 0
v 0.1 -0.9 0.1
v 0.1 -1 0.1
v 0.2 -1 0.1
v 0.2 -0.9 0.1
v 0.1 -1 0
v 0.1 -0.9 0
v 0.2 -0.9 0
v 0.2 -1 0
v 0.1 -0.8 0.1
v 0.1 -0.9 0.1
v 0.2 -0.9 0.1
v 0.2 -0.8 0.1
v 0.1 -0.9 0
v 0.1 -0.8 0
v 0.2 -0.8 0
v 0.2 -0.9 0
v 0.1 -0.7 0.1
v 0.1 -0.8 0.1
v 0.2 -0.8 0.1
v 0.2 -0.7 0.1
v 0.1 -0.8 0
v 0.1 -0.7 0
v 0.2 -0.7 0
v 0.2 -0.8 0
v 0.1 -0.6 0.1
v 0.1 -0.7 0.1
v 0.2 -0.7 0.1
v 0.2 -0.6 0.1
v 0.1 -0.7 0
v 0.1 -0.6 0
v 0.2 -0.6 0
v 0.2 -0.7 0
v 0.1 -0.5 0.1
v 0.1 -0.6 0.1
v 0.2 -0.6 0.1
v 0.2 -0.5 0.1
v 0.1 -0.6 0
v 0.1 -0.5 0
v 0.2 -0.5 0
v 0.2 -0.6 0
v 0.1 -0.4 0.1
v 0.1 -0.5 0.1
v 0.2 -0.5 0.1
v 0.2 -0.4 0.1
v 0.1 -0.5 0
v 0.1 -0.4 0
v 0.2 -0.4 0
v 0.2 -0.5 0
v 0.1 -0.3 0.1
v 0.1 -0.4 0.1
v 0.2 -0.4 0.1
v 0.2 -0.3 0.1
v 0.1 -0.4 0
v 0.1 -0.3 0
v 0.2 -0.3 0
v 0.2 -0.4 0
v 0.1 -0.2 0.1
v 0.1 -0.3 0.1
v 0.2 -0.3 0.1
v 0.2 -0.2 0.1
v 0.1 -0.3 0
v 0.1 -0.2 0
v 0.2 -0.2 0
v 0.2 -0.3 0
v 0.1 -0.1 0.1
v 0.1 -0.2 0.1
v 0.2 -0.2 0.1
v 0.2 -0.1 0.1
v 0.1 -0.2 0
v 0.1 -0.1 0
v 0.2 -0.1 0
v 0.2 -0.2 0
v 0.1 0 0.1
v 0.1 -0.1 0.1
v 0.2 -0.1 0.1
v 0.2 0 0.1
v 0.1 -0.1 0
v 0.1 0 0
v 0.2 0 0
v 0.2 -0.1 0
v 0.1 0.1 0.1
v 0.1 0 0.1
v 0.2 0 0.1
v 0.2 0.1 0.1
v 0.1 0 0
v 0.1 0.1 0
v 0.2 0.1 0
v 0.2 0 0
v 0.1 0.2 0.1
v 0.1 0.1 0.1
v 0.2 0.1 0.1
v 0.2 0.2 0.1
v 0.1 0.1 0
v 0.1 0.2 0
v 0.2 0.2 0
v 0.2 0.1 0
v 0.1 0.3 0.1
v 0.1 0.2 0.1
v 0.2 0.2 0.1
v 0.2 0.3 0.1
v 0.1 0.2 0
v 0.1 0.3 0
v 0.2 0.3 0
v 0.2 0.2 0
v 0.1 0.4 0.1
v 0.1 0.3 0.1
v 0.2 0.3 0.1
v 0.2 0.4 0.1
v 0.1 0.3 0
v 0.1 0.4 0
v 0.2 0.4 0
v 0.2 0.3 0
v 0.1 0.5 0.1
v 0.1 0.4 0.1
v 0.2 0.4 0.1
v 0.2 0.5 0.1
v 0.1 0.4 0
v 0.1 0.5 0
v 0.2 0.5 0
v 0.2 0.4 0
v 0.1 0.6 0.1
v 0.1 0.5 0.1
v 0.2 0.5 0.1
v 0.2 0.6 0.1
v 0.1 0.5 0
v 0.1 0.6 0
v 0.2 0.6 0
v 0.2 0.5 0
v 0.1 0.7 0.1
v 0.1 0.6 0.1
v 0.2 0.6 0.1
v 0.2 0.7 0.1
v 0.1 0.6 0
v 0.1 0.7 0
v 0.2 0.7 0
v 0.2 0.6 0
v 0.1 0.8 0.1
v 0.1 0.7 0.1
v 0.2 0.7 0.1
v 0.2 0.8 0.1
v 0.1 0.7 0
v 0.1 0.8 0
v 0.2 0.8 0
v 0.2 0.7 0
v 0.1 0.9 0.1
v 0.1 0.8 0.1
v 0.2 0.8 0.1
v 0.2 0.9 0.1
v 0.1 0.8 0
v 0.1 0.9 0
v 0.2 0.9 0
v 0.2 0.8 0
v 0.1 1 0.1
v 0.1 0.9 0.1
v 0.2 0.9 0.1
v 0.2 1 0.1
v 0.1 0.9 0
v 0.1 1 0
v 0.2 1 0
v 0.2 0.9 0
v 0.1 1.1 0.1
v 0.1 1 0.1
v 0.2 1 0.1
v 0.2 1.1 0.1
v 0.1 1 0
v 0.1 1.1 0
v 0.2 1.1 0
v 0.2 1 0
v 0.1 1.2 0.1
v 0.1 1.1 0.1
v 0.2 1.1 0.1
v 0.2 1.2 0.1
v 0.1 1.1 0
v 0.1 1.2 0
v 0.2 1.2 0
v 0.2 1.1 0
v 0.2 1.2 0.1
v 0.2 1.2 0
v 0.1 1.2 0
v 0.1 1.2 0.1
v 0.2 -1.1 0.1
v 0.2 -1.2 0.1
v 0.3 -1.2 0.1
v 0.3 -1.1 0.1
v 0.2 -1.2 0
v 0.2 -1.1 0
v 0.3 -1.1 0
v 0.3 -1.2 0
v 0.2 -1.2 0.1
v 0.2 -1.2 0
v 0.3 -1.2 0
v 0.3 -1.2 0.1
v 0.2 -1 0.1
v 0.2 -1.1 0.1
v 0.3 -1.1 0.1
v 0.3 -1 0.1
v 0.2 -1.1 0
v 0.2 -1 0
v 0.3 -1 0
v 0.3 -1.1 0
v 0.2 -0.9 0.1
v 0.2 -1 0.1
v 0.3 -1 0.1
v 0.3 -0.9 0.1
v 0.2 -1 0
v 0.2 -0.9 0
v 0.3 -0.9 0
v 0.3 -1 0
v 0.2 -0.8 0.1
v 0.2 -0.9 0.1
v 0.3 -0.9 0.1
v 0.3 -0.8 0.1
v 0.2 -0.9 0
v 0.2 -0.8 0
v 0.3 -0.8 0
v 0.3 -0.9 0
v 0.2 -0.7 0.1
v 0.2 -0.8 0.1
v 0.3 -0.8 0.1
v 0.3 -0.7 0.1
v 0.2 -0.8 0
v 0.2 -0.7 0
v 0.3 -0.7 0
v 0.3 -0.8 0
v 0.2 -0.6 0.1
v 0.2 -0.7 0.1
v 0.3 -0.7 0.1
v 0.3 -0.6 0.1
v 0.2 -0.7 0
v 0.2 -0.6 0
v 0.3 -0.6 0
v 0.3 -0.7 0
v 0.2 -0.5 0.1
v 0.2 -0.6 0.1
v 0.3 -0.6 0.1
v 0.3 -0.5 0.1
v 0.2 -0.6 0
v 0.2 -0.5 0
v 0.3 -0.5 0
v 0.3 -0.6 0
v 0.2 -0.4 0.1
v 0.2 -0.5 0.1
v 0.3 -0.5 0.1
v 0.3 -0.4 0.1
v 0.2 -0.5 0
v 0.2 -0.4 0
v 0.3 -0.4 0
v 0.3 -0.5 0
v 0.2 -0.3 0.1
v 0.2 -0.4 0.1
v 0.3 -0.4 0.1
v 0.3 -0.3 0.1
v 0.2 -0.4 0
v 0.2 -0.3 0
v 0.3 -0.3 0
v 0.3 -0.4 0
v 0.2 -0.2 0.1
v 0.2 -0.3 0.1
v 0.3 -0.3 0.1
v 0.3 -0.2 0.1
v 0.2 -0.3 0
v 0.2 -0.2 0
v 0.3 -0.2 0
v 0.3 -0.3 0
v 0.2 -0.1 0.1
v 0.2 -0.2 0.1
v 0.3 -0.2 0.1
v 0.3 -0.1 0.1
v 0.2 -0.2 0
v 0.2 -0.1 0
v 0.3 -0.1 0
v 0.3 -0.2 0
v 0.2 0 0.1
v 0.2 -0.1 0.1
v 0.3 -0.1 0.1
v 0.3 0 0.1
v 0.2 -0.1 0
v 0.2 0 0
v 0.3 0 0
v 0.3 -0.1 0
v 0.2 0.1 0.1
v 0.2 0 0.1
v 0.3 0 0.1
v 0.3 0.1 0.1
v 0.2 0 0
v 0.2 0.1 0
v 0.3 0.1 0
v 0.3 0 0
v 0.2 0.2 0.1
v 0.2 0.1 0.1
v 0.3 0.1 0.1
v 0.3 0.2 0.1
v 0.2 0.1 0
v 0.2 0.2 0
v 0.3 0.2 0
v 0.3 0.1 0
v 0.2 0.3 0.1
v 0.2 0.2 0.1
v 0.3 0.2 0.1
v 0.3 0.3 0.1
v 0.2 0.2 0
v 0.2 0.3 0
v 0.3 0.3 0
v 0.3 0.2 0
v 0.2 0.4 0.1
v 0.2 0.3 0.1
v 0.3 0.3 0.1
v 0.3 0.4 0.1
v 0.2 0.3 0
v 0.2 0.4 0
v 0.3 0.4 0
v 0.3 0.3 0
v 0.2 0.5 0.1
v 0.2 0.4 0.1
v 0.3 0.4 0.1
v 0.3 0.5 0.1
v 0.2 0.4 0
v 0.2 0.5 0
v 0.3 0.5 0
v 0.3 0.4 0
v 0.2 0.6 0.1
v 0.2 0.5 0.1
v 0.3 0.5 0.1
v 0.3 0.6 0.1
v 0.2 0.5 0
v 0.2 0.6 0
v 0.3 0.6 0
v 0.3 0.5 0
v 0.2 0.7 0.1
v 0.2 0.6 0.1
v 0.3 0.6 0.1
v 0.3 0.7 0.1
v 0.2 0.6 0
v 0.2 0.7 0
v 0.3 0.7 0
v 0.3 0.6 0
v 0.2 0.8 0.1
v 0.2 0.7 0.1
v 0.3 0.7 0.1
v 0.3 0.8 0.1
v 0.2 0.7 0
v 0.2 0.8 0
v 0.3 0.8 0
v 0.3 0.7 0
v 0.2 0.9 0.1
v 0.2 0.8 0.1
v 0.3 0.8 0.1
v 0.3 0.9 0.1
v 0.2 0.8 0
v 0.2 0.9 0
v 0.3 0.9 0
v 0.3 0.8 0
v 0.2 1 0.1
v 0.2 0.9 0.1
v 0.3 0.9 0.1
v 0.3 1 0.1
v 0.2 0.9 0
v 0.2 1 0
v 0.3 1 0
v 0.3 0.9 0
v 0.2 1.1 0.1
v 0.2 1 0.1
v 0.3 1 0.1
v 0.3 1.1 0.1
v 0.2 1 0
v 0.2 1.1 0
v 0.3 1.1 0
v 0.3 1 0
v 0.2 1.2 0.1
v 0.2 1.1 0.1
v 0.3 1.1 0.1
v 0.3 1.2 0.1
v 0.2 1.1 0
v 0.2 1.2 0
v 0.3 1.2 0
v 0.3 1.1 0
v 0.3 1.2 0.1
v 0.3 1.2 0
v 0.2 1.2 0
v 0.2 1.2 0.1
v 0.3 -1.1 0.1
v 0.3 -1.2 0.1
v 0.4 -1.2 0.1
v 0.4 -1.1 0.1
v 0.3 -1.2 0
v 0.3 -1.1 0
v 0.4 -1.1 0
v 0.4 -1.2 0
v 0.3 -1.2 0.1
v 0.3 -1.2 0
v 0.4 -1.2 0
v 0.4 -1.2 0.1
v 0.3 -1 0.1
v 0.3 -1.1 0.1
v 0.4 -1.1 0.1
v 0.4 -1 0.1
v 0.3 -1.1 0
v 0.3 -1 0
v 0.4 -1 0
v 0.4 -1.1 0
v 0.3 -0.9 0.1
v 0.3 -1 0.1
v 0.4 -1 0.1
v 0.4 -0.9 0.1
v 0.3 -1 0
v 0.3 -0.9 0
v 0.4 -0.9 0
v 0.4 -1 0
v 0.3 -0.8 0.1
v 0.3 -0.9 0.1
v 0.4 -0.9 0.1
v 0.4 -0.8 0.1
v 0.3 -0.9 0
v 0.3 -0.8 0
v 0.4 -0.8 0
v 0.4 -0.9 0
v 0.3 -0.7 0.1
v 0.3 -0.8 0.1
v 0.4 -0.8 0.1
v 0.4 -0.7 0.1
v 0.3 -0.8 0
v 0.3 -0.7 0
v 0.4 -0.7 0
v 0.4 -0.8 0
v 0.3 -0.6 0.1
v 0.3 -0.7 0.1
v 0.4 -0.7 0.1
v 0.4 -0.6 0.1
v 0.3 -0.7 0
v 0.3 -0.6 0
v 0.4 -0.6 0
v 0.4 -0.7 0
v 0.3 -0.5 0.1
v 0.3 -0.6 0.1
v 0.4 -0.6 0.1
v 0.4 -0.5 0.1
v 0.3 -0.6 0
v 0.3 -0.5 0
v 0.4 -0.5 0
v 0.4 -0.6 0
v 0.3 -0.4 0.1
v 0.3 -0.5 0.1
v 0.4 -0.5 0.1
v 0.4 -0.4 0.1
v 0.3 -0.5 0
v 0.3 -0.4 0
v 0.4 -0.4 0
v 0.4 -0.5 0
v 0.3 -0.3 0.1
v 0.3 -0.4 0.1
v 0.4 -0.4 0.1
v 0.4 -0.3 0.1
v 0.3 -0.4 0
v 0.3 -0.3 0
v 0.4 -0.3 0
v 0.4 -0.4 0
v 0.3 -0.2 0.1
v 0.3 -0.3 0.1
v 0.4 -0.3 0.1
v 0.4 -0.2 0.1
v 0.3 -0.3 0
v 0.3 -0.2 0
v 0.4 -0.2 0
v 0.4 -0.3 0
v 0.3 -0.1 0.1
v 0.3 -0.2 0.1
v 0.4 -0.2 0.1
v 0.4 -0.1 0.1
v 0.3 -0.2 0
v 0.3 -0.1 0
v 0.4 -0.1 0
v 0.4 -0.2 0
v 0.3 0 0.1
v 0.3 -0.1 0.1
v 0.4 -0.1 0.1
v 0.4 0 0.1
v 0.3 -0.1 0
v 0.3 0 0
v 0.4 0 0
v 0.4 -0.1 0
v 0.3 0.1 0.1
v 0.3 0 0.1
v 0.4 0 0.1
v 0.4 0.1 0.1
v 0.3 0 0
v 0.3 0.1 0
v 0.4 0.1 0
v 0.4 0 0
v 0.3 0.2 0.1
v 0.3 0.1 0.1
v 0.4 0.1 0.1
v 0.4 0.2 0.1
v 0.3 0.1 0
v 0.3 0.2 0
v 0.4 0.2 0
v 0.4 0.1 0
v 0.3 0.3 0.1
v 0.3 0.2 0.1
v 0.4 0.2 0.1
v 0.4 0.3 0.1
v 0.3 0.2 0
v 0.3 0.3 0
v 0.4 0.3 0
v 0.4 0.2 0
v 0.3 0.4 0.1
v 0.3 0.3 0.1
v 0.4 0.3 0.1
v 0.4 0.4 0.1
v 0.3 0.3 0
v 0.3 0.4 0
v 0.4 0.4 0
v 0.4 0.3 0
v 0.3 0.5 0.1
v 0.3 0.4 0.1
v 0.4 0.4 0.1
v 0.4 0.5 0.1
v 0.3 0.4 0
v 0.3 0.5 0
v 0.4 0.5 0
v 0.4 0.4 0
v 0.3 0.6 0.1
v 0.3 0.5 0.1
v 0.4 0.5 0.1
v 0.4 0.6 0.1
v 0.3 0.5 0
v 0.3 0.6 0
v 0.4 0.6 0
v 0.4 0.5 0
v 0.3 0.7 0.1
v 0.3 0.6 0.1
v 0.4 0.6 0.1
v 0.4 0.7 0.1
v 0.3 0.6 0
v 0.3 0.7 0
v 0.4 0.7 0
v 0.4 0.6 0
v 0.3 0.8 0.1
v 0.3 0.7 0.1
v 0.4 0.7 0.1
v 0.4 0.8 0.1
v 0.3 0.7 0
v 0.3 0.8 0
v 0.4 0.8 0
v 0.4 0.7 0
v 0.3 0.9 0.1
v 0.3 0.8 0.1
v 0.4 0.8 0.1
v 0.4 0.9 0.1
v 0.3 0.8 0
v 0.3 0.9 0
v 0.4 0.9 0
v 0.4 0.8 0
v 0.3 1 0.1
v 0.3 0.9 0.1
v 0.4 0.9 0.1
v 0.4 1 0.1
v 0.3 0.9 0
v 0.3 1 0
v 0.4 1 0
v 0.4 0.9 0
v 0.3 1.1 0.1
v 0.3 1 0.1
v 0.4 1 0.1
v 0.4 1.1 0.1
v 0.3 1 0
v 0.3 1.1 0
v 0.4 1.1 0
v 0.4 1 0
v 0.3 1.2 0.1
v 0.3 1.1 0.1
v 0.4 1.1 0.1
v 0.4 1.2 0.1
v 0.3 1.1 0
v 0.3 1.2 0
v 0.4 1.2 0
v 0.4 1.1 0
v 0.4 1.2 0.1
v 0.4 1.2 0
v 0.3 1.2 0
v 0.3 1.2 0.1
v 0.4 -1.1 0.1
v 0.4 -1.2 0.1
v 0.5 -1.2 0.1
v 0.5 -1.1 0.1
v 0.4 -1.2 0
v 0.4 -1.1 0
v 0.5 -1.1 0
v 0.5 -1.2 0
v 0.4 -1.2 0.1
v 0.4 -1.2 0
v 0.5 -1.2 0
v 0.5 -1.2 0.1
v 0.4 -1 0.1
v 0.4 -1.1 0.1
v 0.5 -1.1 0.1
v 0.5 -1 0.1
v 0.4 -1.1 0
v 0.4 -1 0
v 0.5 -1 0
v 0.5 -1.1 0
v 0.4 -0.9 0.1
v 0.4 -1 0.1
v 0.5 -1 0.1
v 0.5 -0.9 0.1
v 0.4 -1 0
v 0.4 -0.9 0
v 0.5 -0.9 0
v 0.5 -1 0
v 0.4 -0.8 0.1
v 0.4 -0.9 0.1
v 0.5 -0.9 0.1
v 0.5 -0.8 0.1
v 0.4 -0.9 0
v 0.4 -0.8 0
v 0.5 -0.8 0
v 0.5 -0.9 0
v 0.4 -0.7 0.1
v 0.4 -0.8 0.1
v 0.5 -0.8 0.1
v 0.5 -0.7 0.1
v 0.4 -0.8 0
v 0.4 -0.7 0
v 0.5 -0.7 0
v 0.5 -0.8 0
v 0.4 -0.6 0.1
v 0.4 -0.7 0.1
v 0.5 -0.7 0.1
v 0.5 -0.6 0.1
v 0.4 -0.7 0
v 0.4 -0.6 0
v 0.5 -0.6 0
v 0.5 -0.7 0
v 0.4 -0.5 0.1
v 0.4 -0.6 0.1
v 0.5 -0.6 0.1
v 0.5 -0.5 0.1
v 0.4 -0.6 0
v 0.4 -0.5 0
v 0.5 -0.5 0
v 0.5 -0.6 0
v 0.4 -0.4 0.1
v 0.4 -0.5 0.1
v 0.5 -0.5 0.1
v 0.5 -0.4 0.1
v 0.4 -0.5 0
v 0.4 -0.4 0
v 0.5 -0.4 0
v 0.5 -0.5 0
v 0.4 -0.3 0.1
v 0.4 -0.4 0.1
v 0.5 -0.4 0.1
v 0.5 -0.3 0.1
v 0.4 -0.4 0
v 0.4 -0.3 0
v 0.5 -0.3 0
v 0.5 -0.4 0
v 0.4 -0.2 0.1
v 0.4 -0.3 0.1
v 0.5 -0.3 0.1
v 0.5 -0.2 0.1
v 0.4 -0.3 0
v 0.4 -0.2 0
v 0.5 -0.2 0
v 0.5 -0.3 0
v 0.4 -0.1 0.1
v 0.4 -0.2 0.1
v 0.5 -0.2 0.1
v 0.5 -0.1 0.1
v 0.4 -0.2 0
v 0.4 -0.1 0
v 0.5 -0.1 0
v 0.5 -0.2 0
v 0.4 0 0.1
v 0.4 -0.1 0.1
v 0.5 -0.1 0.1
v 0.5 0 0.1
v 0.4 -0.1 0
v 0.4 0 0
v 0.5 0 0
v 0.5 -0.1 0
v 0.4 0.1 0.1
v 0.4 0 0.1
v 0.5 0 0.1
v 0.5 0.1 0.1
v 0.4 0 0
v 0.4 0.1 0
v 0.5 0.1 0
v 0.5 0 0
v 0.4 0.2 0.1
v 0.4 0.1 0.1
v 0.5 0.1 0.1
v 0.5 0.2 0.1
v 0.4 0.1 0
v 0.4 0.2 0
v 0.5 0.2 0
v 0.5 0.1 0
v 0.4 0.3 0.1
v 0.4 0.2 0.1
v 0.5 0.2 0.1
v 0.5 0.3 0.1
v 0.4 0.2 0
v 0.4 0.3 0
v 0.5 0.3 0
v 0.5 0.2 0
v 0.4 0.4 0.1
v 0.4 0.3 0.1
v 0.5 0.3 0.1
v 0.5 0.4 0.1
v 0.4 0.3 0
v 0.4 0.4 0
v 0.5 0.4 0
v 0.5 0.3 0
v 0.4 0.5 0.1
v 0.4 0.4 0.1
v 0.5 0.4 0.1
v 0.5 0.5 0.1
v 0.4 0.4 0
v 0.4 0.5 0
v 0.5 0.5 0
v 0.5 0.4 0
v 0.4 0.6 0.1
v 0.4 0.5 0.1
v 0.5 0.5 0.1
v 0.5 0.6 0.1
v 0.4 0.5 0
v 0.4 0.6 0
v 0.5 0.6 0
v 0.5 0.5 0
v 0.4 0.7 0.1
v 0.4 0.6 0.1
v 0.5 0.6 0.1
v 0.5 0.7 0.1
v 0.4 0.6 0
v 0.4 0.7 0
v 0.5 0.7 0
v 0.5 0.6 0
v 0.4 0.8 0.1
v 0.4 0.7 0.1
v 0.5 0.7 0.1
v 0.5 0.8 0.1
v 0.4 0.7 0
v 0.4 0.8 0
v 0.5 0.8 0
v 0.5 0.7 0
v 0.4 0.9 0.1
v 0.4 0.8 0.1
v 0.5 0.8 0.1
v 0.5 0.9 0.1
v 0.4 0.8 0
v 0.4 0.9 0
v 0.5 0.9 0
v 0.5 0.8 0
v 0.4 1 0.1
v 0.4 0.9 0.1
v 0.5 0.9 0.1
v 0.5 1 0.1
v 0.4 0.9 0
v 0.4 1 0
v 0.5 1 0
v 0.5 0.9 0
v 0.4 1.1 0.1
v 0.4 1 0.1
v 0.5 1 0.1
v 0.5 1.1 0.1
v 0.4 1 0
v 0.4 1.1 0
v 0.5 1.1 0
v 0.5 1 0
v 0.4 1.2 0.1
v 0.4 1.1 0.1
v 0.5 1.1 0.1
v 0.5 1.2 0.1
v 0.4 1.1 0
v 0.4 1.2 0
v 0.5 1.2 0
v 0.5 1.1 0
v 0.5 1.2 0.1
v 0.5 1.2 0
v 0.4 1.2 0
v 0.4 1.2 0.1
v 0.5 -1.1 0.1
v 0.5 -1.2 0.1
v 0.6 -1.2 0.1
v 0.6 -1.1 0.1
v 0.5 -1.2 0
v 0.5 -1.1 0
v 0.6 -1.1 0
v 0.6 -1.2 0
v 0.5 -1.2 0.1
v 0.5 -1.2 0
v 0.6 -1.2 0
v 0.6 -1.2 0.1
v 0.5 -1 0.1
v 0.5 -1.1 0.1
v 0.6 -1.1 0.1
v 0.6 -1 0.1
v 0.5 -1.1 0
v 0.5 -1 0
v 0.6 -1 0
v 0.6 -1.1 0
v 0.5 -0.9 0.1
v 0.5 -1 0.1
v 0.6 -1 0.1
v 0.6 -0.9 0.1
v 0.5 -1 0
v 0.5 -0.9 0
v 0.6 -0.9 0
v 0.6 -1 0
v 0.5 -0.8 0.1
v 0.5 -0.9 0.1
v 0.6 -0.9 0.1
v 0.6 -0.8 0.1
v 0.5 -0.9 0
v 0.5 -0.8 0
v 0.6 -0.8 0
v 0.6 -0.9 0
v 0.5 -0.7 0.1
v 0.5 -0.8 0.1
v 0.6 -0.8 0.1
v 0.6 -0.7 0.1
v 0.5 -0.8 0
v 0.5 -0.7 0
v 0.6 -0.7 0
v 0.6 -0.8 0
v 0.5 -0.6 0.1
v 0.5 -0.7 0.1
v 0.6 -0.7 0.1
v 0.6 -0.6 0.1
v 0.5 -0.7 0
v 0.5 -0.6 0
v 0.6 -0.6 0
v 0.6 -0.7 0
v 0.5 -0.5 0.1
v 0.5 -0.6 0.1
v 0.6 -0.6 0.1
v 0.6 -0.5 0.1
v 0.5 -0.6 0
v 0.5 -0.5 0
v 0.6 -0.5 0
v 0.6 -0.6 0
v 0.5 -0.4 0.1
v 0.5 -0.5 0.1
v 0.6 -0.5 0.1
v 0.6 -0.4 0.1
v 0.5 -0.5 0
v 0.5 -0.4 0
v 0.6 -0.4 0
v 0.6 -0.5 0
v 0.5 -0.3 0.1
v 0.5 -0.4 0.1
v 0.6 -0.4 0.1
v 0.6 -0.3 0.1
v 0.5 -0.4 0
v 0.5 -0.3 0
v 0.6 -0.3 0
v 0.6 -0.4 0
v 0.5 -0.2 0.1
v 0.5 -0.3 0.1
v 0.6 -0.3 0.1
v 0.6 -0.2 0.1
v 0.5 -0.3 0
v 0.5 -0.2 0
v 0.6 -0.2 0
v 0.6 -0.3 0
v 0.5 -0.1 0.1
v 0.5 -0.2 0.1
v 0.6 -0.2 0.1
v 0.6 -0.1 0.1
v 0.5 -0.2 0
v 0.5 -0.1 0
v 0.6 -0.1 0
v 0.6 -0.2 0
v 0.5 0 0.1
v 0.5 -0.1 0.1
v 0.6 -0.1 0.1
v 0.6 0 0.1
v 0.5 -0.1 0
v 0.5 0 0
v 0.6 0 0
v 0.6 -0.1 0
v 0.5 0.1 0.1
v 0.5 0 0.1
v 0.6 0 0.1
v 0.6 0.1 0.1
v 0.5 0 0
v 0.5 0.1 0
v 0.6 0.1 0
v 0.6 0 0
v 0.5 0.2 0.1
v 0.5 0.1 0.1
v 0.6 0.1 0.1
v 0.6 0.2 0.1
v 0.5 0.1 0
v 0.5 0.2 0
v 0.6 0.2 0
v 0.6 0.1 0
v 0.5 0.3 0.1
v 0.5 0.2 0.1
v 0.6 0.2 0.1
v 0.6 0.3 0.1
v 0.5 0.2 0
v 0.5 0.3 0
v 0.6 0.3 0
v 0.6 0.2 0
v 0.5 0.4 0.1
v 0.5 0.3 0.1
v 0.6 0.3 0.1
v 0.6 0.4 0.1
v 0.5 0.3 0
v 0.5 0.4 0
v 0.6 0.4 0
v 0.6 0.3 0
v 0.5 0.5 0.1
v 0.5 0.4 0.1
v 0.6 0.4 0.1
v 0.6 0.5 0.1
v 0.5 0.4 0
v 0.5 0.5 0
v 0.6 0.5 0
v 0.6 0.4 0
v 0.5 0.6 0.1
v 0.5 0.5 0.1
v 0.6 0.5 0.1
v 0.6 0.6 0.1
v 0.5 0.5 0
v 0.5 0.6 0
v 0.6 0.6 0
v 0.6 0.5 0
v 0.5 0.7 0.1
v 0.5 0.6 0.1
v 0.6 0.6 0.1
v 0.6 0.7 0.1
v 0.5 0.6 0
v 0.5 0.7 0
v 0.6 0.7 0
v 0.6 0.6 0
v 0.5 0.8 0.1
v 0.5 0.7 0.1
v 0.6 0.7 0.1
v 0.6 0.8 0.1
v 0.5 0.7 0
v 0.5 0.8 0
v 0.6 0.8 0
v 0.6 0.7 0
v 0.5 0.9 0.1
v 0.5 0.8 0.1
v 0.6 0.8 0.1
v 0.6 0.9 0.1
v 0.5 0.8 0
v 0.5 0.9 0
v 0.6 0.9 0
v 0.6 0.8 0
v 0.5 1 0.1
v 0.5 0.9 0.1
v 0.6 0.9 0.1
v 0.6 1 0.1
v 0.5 0.9 0
v 0.5 1 0
v 0.6 1 0
v 0.6 0.9 0
v 0.5 1.1 0.1
v 0.5 1 0.1
v 0.6 1 0.1
v 0.6 1.1 0.1
v 0.5 1 0
v 0.5 1.1 0
v 0.6 1.1 0
v 0.6 1 0
v 0.5 1.2 0.1
v 0.5 1.1 0.1
v 0.6 1.1 0.1
v 0.6 1.2 0.1
v 0.5 1.1 0
v 0.5 1.2 0
v 0.6 1.2 0
v 0.6 1.1 0
v 0.6 1.2 0.1
v 0.6 1.2 0
v 0.5 1.2 0
v 0.5 1.2 0.1
v 0.7 -1.2 0.1
v 0.7 -1.2 0
v 0.7 -1.1 0
v 0.7 -1.1 0.1
v 0.6 -1.1 0.1
v 0.6 -1.2 0.1
v 0.7 -1.2 0.1
v 0.7 -1.1 0.1
v 0.6 -1.2 0
v 0.6 -1.1 0
v 0.7 -1.1 0
v 0.7 -1.2 0
v 0.6 -1.2 0.1
v 0.6 -1.2 0
v 0.7 -1.2 0
v 0.7 -1.2 0.1
v 0.7 -1.1 0.1
v 0.7 -1.1 0
v 0.7 -1 0
v 0.7 -1 0.1
v 0.6 -1 0.1
v 0.6 -1.1 0.1
v 0.7 -1.1 0.1
v 0.7 -1 0.1
v 0.6 -1.1 0
v 0.6 -1 0
v 0.7 -1 0
v 0.7 -1.1 0
v 0.7 -1 0.1
v 0.7 -1 0
v 0.7 -0.9 0
v 0.7 -0.9 0.1
v 0.6 -0.9 0.1
v 0.6 -1 0.1
v 0.7 -1 0.1
v 0.7 -0.9 0.1
v 0.6 -1 0
v 0.6 -0.9 0
v 0.7 -0.9 0
v 0.7 -1 0
v 0.7 -0.9 0.1
v 0.7 -0.9 0
v 0.7 -0.8 0
v 0.7 -0.8 0.1
v 0.6 -0.8 0.1
v 0.6 -0.9 0.1
v 0.7 -0.9 0.1
v 0.7 -0.8 0.1
v 0.6 -0.9 0
v 0.6 -0.8 0
v 0.7 -0.8 0
v 0.7 -0.9 0
v 0.7 -0.8 0.1
v 0.7 -0.8 0
v 0.7 -0.7 0
v 0.7 -0.7 0.1
v 0.6 -0.7 0.1
v 0.6 -0.8 0.1
v 0.7 -0.8 0.1
v 0.7 -0.7 0.1
v 0.6 -0.8 0
v 0.6 -0.7 0
v 0.7 -0.7 0
v 0.7 -0.8 0
v 0.7 -0.7 0.1
v 0.7 -0.7 0
v 0.7 -0.6 0
v 0.7 -0.6 0.1
v 0.6 -0.6 0.1
v 0.6 -0.7 0.1
v 0.7 -0.7 0.1
v 0.7 -0.6 0.1
v 0.6 -0.7 0
v 0.6 -0.6 0
v 0.7 -0.6 0
v 0.7 -0.7 0
v 0.7 -0.6 0.1
v 0.7 -0.6 0
v 0.7 -0.5 0
v 0.7 -0.5 0.1
v 0.6 -0.5 0.1
v 0.6 -0.6 0.1
v 0.7 -0.6 0.1
v 0.7 -0.5 0.1
v 0.6 -0.6 0
v 0.6 -0.5 0
v 0.7 -0.5 0
v 0.7 -0.6 0
v 0.7 -0.5 0.1
v 0.7 -0.5 0
v 0.7 -0.4 0
v 0.7 -0.4 0.1
v 0.6 -0.4 0.1
v 0.6 -0.5 0.1
v 0.7 -0.5 0.1
v 0.7 -0.4 0.1
v 0.6 -0.5 0
v 0.6 -0.4 0
v 0.7 -0.4 0
v 0.7 -0.5 0
v 0.7 -0.4 0.1
v 0.7 -0.4 0
v 0.7 -0.3 0
v 0.7 -0.3 0.1
v 0.6 -0.3 0.1
v 0.6 -0.4 0.1
v 0.7 -0.4 0.1
v 0.7 -0.3 0.1
v 0.6 -0.4 0
v 0.6 -0.3 0
v 0.7 -0.3 0
v 0.7 -0.4 0
v 0.7 -0.3 0.1
v 0.7 -0.3 0
v 0.7 -0.2 0
v 0.7 -0.2 0.1
v 0.6 -0.2 0.1
v 0.6 -0.3 0.1
v 0.7 -0.3 0.1
v 0.7 -0.2 0.1
v 0.6 -0.3 0
v 0.6 -0.2 0
v 0.7 -0.2 0
v 0.7 -0.3 0
v 0.7 -0.2 0.1
v 0.7 -0.2 0
v 0.7 -0.1 0
v 0.7 -0.1 0.1
v 0.6 -0.1 0.1
v 0.6 -0.2 0.1
v 0.7 -0.2 0.1
v 0.7 -0.1 0.1
v 0.6 -0.2 0
v 0.6 -0.1 0
v 0.7 -0.1 0
v 0.7 -0.2 0
v 0.7 -0.1 0.1
v 0.7 -0.1 0
v 0.7 0 0
v 0.7 0 0.1
v 0.6 0 0.1
v 0.6 -0.1 0.1
v 0.7 -0.1 0.1
v 0.7 0 0.1
v 0.6 -0.1 0
v 0.6 0 0
v 0.7 0 0
v 0.7 -0.1 0
v 0.7 0 0.1
v 0.7 0 0
v 0.7 0.1 0
v 0.7 0.1 0.1
v 0.6 0.1 0.1
v 0.6 0 0.1
v 0.7 0 0.1
v 0.7 0.1 0.1
v 0.6 0 0
v 0.6 0.1 0
v 0.7 0.1 0
v 0.7 0 0
v 0.7 0.1 0.1
v 0.7 0.1 0
v 0.7 0.2 0
v 0.7 0.2 0.1
v 0.6 0.2 0.1
v 0.6 0.1 0.1
v 0.7 0.1 0.1
v 0.7 0.2 0.1
v 0.6 0.1 0
v 0.6 0.2 0
v 0.7 0.2 0
v 0.7 0.1 0
v 0.7 0.2 0.1
v 0.7 0.2 0
v 0.7 0.3 0
v 0.7 0.3 0.1
v 0.6 0.3 0.1
v 0.6 0.2 0.1
v 0.7 0.2 0.1
v 0.7 0.3 0.1
v 0.6 0.2 0
v 0.6 0.3 0
v 0.7 0.3 0
v 0.7 0.2 0
v 0.7 0.3 0.1
v 0.7 0.3 0
v 0.7 0.4 0
v 0.7 0.4 0.1
v 0.6 0.4 0.1
v 0.6 0.3 0.1
v 0.7 0.3 0.1
v 0.7 0.4 0.1
v 0.6 0.3 0
v 0.6 0.4 0
v 0.7 0.4 0
v 0.7 0.3 0
v 0.7 0.4 0.1
v 0.7 0.4 0
v 0.7 0.5 0
v 0.7 0.5 0.1
v 0.6 0.5 0.1
v 0.6 0.4 0.1
v 0.7 0.4 0.1
v 0.7 0.5 0.1
v 0.6 0.4 0
v 0.6 0.5 0
v 0.7 0.5 0
v 0.7 0.4 0
v 0.7 0.5 0.1
v 0.7 0.5 0
v 0.7 0.6 0
v 0.7 0.6 0.1
v 0.6 0.6 0.1
v 0.6 0.5 0.1
v 0.7 0.5 0.1
v 0.7 0.6 0.1
v 0.6 0.5 0
v 0.6 0.6 0
v 0.7 0.6 0
v 0.7 0.5 0
v 0.7 0.6 0.1
v 0.7 0.6 0
v 0.7 0.7 0
v 0.7 0.7 0.1
v 0.6 0.7 0.1
v 0.6 0.6 0.1
v 0.7 0.6 0.1
v 0.7 0.7 0.1
v 0.6 0.6 0
v 0.6 0.7 0
v 0.7 0.7 0
v 0.7 0.6 0
v 0.7 0.7 0.1
v 0.7 0.7 0
v 0.7 0.8 0
v 0.7 0.8 0.1
v 0.6 0.8 0.1
v 0.6 0.7 0.1
v 0.7 0.7 0.1
v 0.7 0.8 0.1
v 0.6 0.7 0
v 0.6 0.8 0
v 0.7 0.8 0
v 0.7 0.7 0
v 0.7 0.8 0.1
v 0.7 0.8 0
v 0.7 0.9 0
v 0.7 0.9 0.1
v 0.6 0.9 0.1
v 0.6 0.8 0.1
v 0.7 0.8 0.1
v 0.7 0.9 0.1
v 0.6 0.8 0
v 0.6 0.9 0
v 0.7 0.9 0
v 0.7 0.8 0
v 0.7 0.9 0.1
v 0.7 0.9 0
v 0.7 1 0
v 0.7 1 0.1
v 0.6 1 0.1
v 0.6 0.9 0.1
v 0.7 0.9 0.1
v 0.7 1 0.1
v 0.6 0.9 0
v 0.6 1 0
v 0.7 1 0
v 0.7 0.9 0
v 0.7 1 0.1
v 0.7 1 0
v 0.7 1.1 0
v 0.7 1.1 0.1
v 0.6 1.1 0.1
v 0.6 1 0.1
v 0.7 1 0.1
v 0.7 1.1 0.1
v 0.6 1 0
v 0.6 1.1 0
v 0.7 1.1 0
v 0.7 1 0
v 0.7 1.1 0.1
v 0.7 1.1 0
v 0.7 1.2 0
v 0.7 1.2 0.1
v 0.6 1.2 0.1
v 0.6 1.1 0.1
v 0.7 1.1 0.1
v 0.7 1.2 0.1
v 0.6 1.1 0
v 0.6 1.2 0
v 0.7 1.2 0
v 0.7 1.1 0
v 0.7 1.2 0.1
v 0.7 1.2 0
v 0.6 1.2 0
v 0.6 1.2 0.1

# faces
f 1/2/1 2/2/1 3/2/1 4/2/1
f 5/2/3 6/2/3 7/2/3 8/2/3
f 9/2/4 10/2/4 11/2/4 12/2/4
f 13/2/5 14/2/5 15/2/5 16/2/5
f 17/2/1 18/2/1 19/2/1 20/2/1
f 21/2/3 22/2/3 23/2/3 24/2/3
f 25/2/4 26/2/4 27/2/4 28/2/4
f 29/2/6 30/2/6 31/2/6 32/2/6
f 33/2/1 34/2/1 35/2/1 36/2/1
f 37/2/3 38/2/3 39/2/3 40/2/3
f 41/2/4 42/2/4 43/2/4 44/2/4
f 45/2/5 46/2/5 47/2/5 48/2/5
f 49/2/3 50/2/3 51/2/3 52/2/3
f 53/2/4 54/2/4 55/2/4 56/2/4
f 57/2/3 58/2/3 59/2/3 60/2/3
f 61/2/4 62/2/4 63/2/4 64/2/4
f 65/2/1 66/2/1 67/2/1 68/2/1
f 69/2/3 70/2/3 71/2/3 72/2/3
f 73/2/4 74/2/4 75/2/4 76/2/4
f 77/2/1 78/2/1 79/2/1 80/2/1
f 81/2/3 82/2/3 83/2/3 84/2/3
f 85/2/4 86/2/4 87/2/4 88/2/4
f 89/2/1 90/2/1 91/2/1 92/2/1
f 93/2/3 94/2/3 95/2/3 96/2/3
f 97/2/4 98/2/4 99/2/4 100/2/4
f 101/2/1 102/2/1 103/2/1 104/2/1
f 105/2/3 106/2/3 107/2/3 108/2/3
f 109/2/4 110/2/4 111/2/4 112/2/4
f 113/2/6 114/2/6 115/2/6 116/2/6
f 117/2/1 118/2/1 119/2/1 120/2/1
f 121/2/3 122/2/3 123/2/3 124/2/3
f 125/2/4 126/2/4 127/2/4 128/2/4
f 129/2/5 130/2/5 131/2/5 132/2/5
f 133/2/1 134/2/1 135/2/1 136/2/1
f 137/2/3 138/2/3 139/2/3 140/2/3
f 141/2/4 142/2/4 143/2/4 144/2/4
f 145/2/1 146/2/1 147/2/1 148/2/1
f 149/2/3 150/2/3 151/2/3 152/2/3
f 153/2/4 154/2/4 155/2/4 156/2/4
f 157/2/1 158/2/1 159/2/1 160/2/1
f 161/2/3 162/2/3 163/2/3 164/2/3
f 165/2/4 166/2/4 167/2/4 168/2/4
f 169/2/3 170/2/3 171/2/3 172/2/3
f 173/2/4 174/2/4 175/2/4 176/2/4
f 177/2/3 178/2/3 179/2/3 180/2/3
f 181/2/4 182/2/4 183/2/4 184/2/4
f 185/2/3 186/2/3 187/2/3 188/2/3
f 189/2/4 190/2/4 191/2/4 192/2/4
f 193/2/3 194/2/3 195/2/3 196/2/3
f 197/2/4 198/2/4 199/2/4 200/2/4
f 201/2/3 202/2/3 203/2/3 204/2/3
f 205/2/4 206/2/4 207/2/4 208/2/4
f 209/2/3 210/2/3 211/2/3 212/2/3
f 213/2/4 214/2/4 215/2/4 216/2/4
f 217/2/3 218/2/3 219/2/3 220/2/3
f 221/2/4 222/2/4 223/2/4 224/2/4
f 225/2/1 226/2/1 227/2/1 228/2/1
f 229/2/3 230/2/3 231/2/3 232/2/3
f 233/2/4 234/2/4 235/2/4 236/2/4
f 237/4/1 238/4/1 239/4/1 240/4/1
f 241/4/3 242/4/3 243/4/3 244/4/3
f 245/4/4 246/4/4 247/4/4 248/4/4
f 249/3/1 250/3/1 251/3/1 252/3/1
f 253/3/3 254/3/3 255/3/3 256/3/3
f 257/3/4 258/3/4 259/3/4 260/3/4
f 261/3/1 262/3/1 263/3/1 264/3/1
f 265/3/3 266/3/3 267/3/3 268/3/3
f 269/3/4 270/3/4 271/3/4 272/3/4
f 273/3/1 274/3/1 275/3/1 276/3/1
f 277/3/3 278/3/3 279/3/3 280/3/3
f 281/3/4 282/3/4 283/3/4 284/3/4
f 285/3/1 286/3/1 287/3/1 288/3/1
f 289/3/3 290/3/3 291/3/3 292/3/3
f 293/3/4 294/3/4 295/3/4 296/3/4
f 297/2/1 298/2/1 299/2/1 300/2/1
f 301/2/3 302/2/3 303/2/3 304/2/3
f 305/2/4 306/2/4 307/2/4 308/2/4
f 309/2/1 310/2/1 311/2/1 312/2/1
f 313/2/3 314/2/3 315/2/3 316/2/3
f 317/2/4 318/2/4 319/2/4 320/2/4
f 321/2/1 322/2/1 323/2/1 324/2/1
f 325/2/3 326/2/3 327/2/3 328/2/3
f 329/2/4 330/2/4 331/2/4 332/2/4
f 333/2/1 334/2/1 335/2/1 336/2/1
f 337/2/3 338/2/3 339/2/3 340/2/3
f 341/2/4 342/2/4 343/2/4 344/2/4
f 345/2/1 346/2/1 347/2/1 348/2/1
f 349/2/3 350/2/3 351/2/3 352/2/3
f 353/2/4 354/2/4 355/2/4 356/2/4
f 357/2/1 358/2/1 359/2/1 360/2/1
f 361/2/3 362/2/3 363/2/3 364/2/3
f 365/2/4 366/2/4 367/2/4 368/2/4
f 369/2/1 370/2/1 371/2/1 372/2/1
f 373/2/3 374/2/3 375/2/3 376/2/3
f 377/2/4 378/2/4 379/2/4 380/2/4
f 381/2/6 382/2/6 383/2/6 384/2/6
f 385/2/3 386/2/3 387/2/3 388/2/3
f 389/2/4 390/2/4 391/2/4 392/2/4
f 393/2/5 394/2/5 395/2/5 396/2/5
f 397/2/3 398/2/3 399/2/3 400/2/3
f 401/2/4 402/2/4 403/2/4 404/2/4
f 405/2/3 406/2/3 407/2/3 408/2/3
f 409/2/4 410/2/4 411/2/4 412/2/4
f 413/2/3 414/2/3 415/2/3 416/2/3
f 417/2/4 418/2/4 419/2/4 420/2/4
f 421/2/3 422/2/3 423/2/3 424/2/3
f 425/2/4 426/2/4 427/2/4 428/2/4
f 429/2/3 430/2/3 431/2/3 432/2/3
f 433/2/4 434/2/4 435/2/4 436/2/4
f 437/4/3 438/4/3 439/4/3 440/4/3
f 441/4/4 442/4/4 443/4/4 444/4/4
f 445/4/3 446/4/3 447/4/3 448/4/3
f 449/4/4 450/4/4 451/4/4 452/4/4
f 453/2/3 454/2/3 455/2/3 456/2/3
f 457/2/4 458/2/4 459/2/4 460/2/4
f 461/2/3 462/2/3 463/2/3 464/2/3
f 465/2/4 466/2/4 467/2/4 468/2/4
f 469/2/3 470/2/3 471/2/3 472/2/3
f 473/2/4 474/2/4 475/2/4 476/2/4
f 477/2/3 478/2/3 479/2/3 480/2/3
f 481/2/4 482/2/4 483/2/4 484/2/4
f 485/4/3 486/4/3 487/4/3 488/4/3
f 489/4/4 490/4/4 491/4/4 492/4/4
f 493/3/3 494/3/3 495/3/3 496/3/3
f 497/3/4 498/3/4 499/3/4 500/3/4
f 501/3/3 502/3/3 503/3/3 504/3/3
f 505/3/4 506/3/4 507/3/4 508/3/4
f 509/3/3 510/3/3 511/3/3 512/3/3
f 513/3/4 514/3/4 515/3/4 516/3/4
f 517/4/3 518/4/3 519/4/3 520/4/3
f 521/4/4 522/4/4 523/4/4 524/4/4
f 525/2/3 526/2/3 527/2/3 528/2/3
f 529/2/4 530/2/4 531/2/4 532/2/4
f 533/2/3 534/2/3 535/2/3 536/2/3
f 537/2/4 538/2/4 539/2/4 540/2/4
f 541/2/3 542/2/3 543/2/3 544/2/3
f 545/2/4 546/2/4 547/2/4 548/2/4
f 549/2/3 550/2/3 551/2/3 552/2/3
f 553/2/4 554/2/4 555/2/4 556/2/4
f 557/2/3 558/2/3 559/2/3 560/2/3
f 561/2/4 562/2/4 563/2/4 564/2/4
f 565/2/3 566/2/3 567/2/3 568/2/3
f 569/2/4 570/2/4 571/2/4 572/2/4
f 573/2/3 574/2/3 575/2/3 576/2/3
f 577/2/4 578/2/4 579/2/4 580/2/4
f 581/2/6 582/2/6 583/2/6 584/2/6
f 585/2/3 586/2/3 587/2/3 588/2/3
f 589/2/4 590/2/4 591/2/4 592/2/4
f 593/2/5 594/2/5 595/2/5 596/2/5
f 597/2/3 598/2/3 599/2/3 600/2/3
f 601/2/4 602/2/4 603/2/4 604/2/4
f 605/2/3 606/2/3 607/2/3 608/2/3
f 609/2/4 610/2/4 611/2/4 612/2/4
f 613/2/3 614/2/3 615/2/3 616/2/3
f 617/2/4 618/2/4 619/2/4 620/2/4
f 621/2/3 622/2/3 623/2/3 624/2/3
f 625/2/4 626/2/4 627/2/4 628/2/4
f 629/1/3 630/1/3 631/1/3 632/1/3
f 633/1/4 634/1/4 635/1/4 636/1/4
f 637/3/3 638/3/3 639/3/3 640/3/3
f 641/3/4 642/3/4 643/3/4 644/3/4
f 645/1/3 646/1/3 647/1/3 648/1/3
f 649/1/4 650/1/4 651/1/4 652/1/4
f 653/4/3 654/4/3 655/4/3 656/4/3
f 657/4/4 658/4/4 659/4/4 660/4/4
f 661/2/3 662/2/3 663/2/3 664/2/3
f 665/2/4 666/2/4 667/2/4 668/2/4
f 669/2/3 670/2/3 671/2/3 672/2/3
f 673/2/4 674/2/4 675/2/4 676/2/4
f 677/2/3 678/2/3 679/2/3 680/2/3
f 681/2/4 682/2/4 683/2/4 684/2/4
f 685/4/3 686/4/3 687/4/3 688/4/3
f 689/4/4 690/4/4 691/4/4 692/4/4
f 693/1/3 694/1/3 695/1/3 696/1/3
f 697/1/4 698/1/4 699/1/4 700/1/4
f 701/4/3 702/4/3 703/4/3 704/4/3
f 705/4/4 706/4/4 707/4/4 708/4/4
f 709/2/3 710/2/3 711/2/3 712/2/3
f 713/2/4 714/2/4 715/2/4 716/2/4
f 717/2/3 718/2/3 719/2/3 720/2/3
f 721/2/4 722/2/4 723/2/4 724/2/4
f 725/2/3 726/2/3 727/2/3 728/2/3
f 729/2/4 730/2/4 731/2/4 732/2/4
f 733/2/3 734/2/3 735/2/3 736/2/3
f 737/2/4 738/2/4 739/2/4 740/2/4
f 741/2/3 742/2/3 743/2/3 744/2/3
f 745/2/4 746/2/4 747/2/4 748/2/4
f 749/2/3 750/2/3 751/2/3 752/2/3
f 753/2/4 754/2/4 755/2/4 756/2/4
f 757/2/3 758/2/3 759/2/3 760/2/3
f 761/2/4 762/2/4 763/2/4 764/2/4
f 765/2/3 766/2/3 767/2/3 768/2/3
f 769/2/4 770/2/4 771/2/4 772/2/4
f 773/2/3 774/2/3 775/2/3 776/2/3
f 777/2/4 778/2/4 779/2/4 780/2/4
f 781/2/6 782/2/6 783/2/6 784/2/6
f 785/2/3 786/2/3 787/2/3 788/2/3
f 789/2/4 790/2/4 791/2/4 792/2/4
f 793/2/5 794/2/5 795/2/5 796/2/5
f 797/2/3 798/2/3 799/2/3 800/2/3
f 801/2/4 802/2/4 803/2/4 804/2/4
f 805/2/3 806/2/3 807/2/3 808/2/3
f 809/2/4 810/2/4 811/2/4 812/2/4
f 813/2/3 814/2/3 815/2/3 816/2/3
f 817/2/4 818/2/4 819/2/4 820/2/4
f 821/1/3 822/1/3 823/1/3 824/1/3
f 825/1/4 826/1/4 827/1/4 828/1/4
f 829/3/3 830/3/3 831/3/3 832/3/3
f 833/3/4 834/3/4 835/3/4 836/3/4
f 837/3/3 838/3/3 839/3/3 840/3/3
f 841/3/4 842/3/4 843/3/4 844/3/4
f 845/1/3 846/1/3 847/1/3 848/1/3
f 849/1/4 850/1/4 851/1/4 852/1/4
f 853/4/3 854/4/3 855/4/3 856/4/3
f 857/4/4 858/4/4 859/4/4 860/4/4
f 861/2/3 862/2/3 863/2/3 864/2/3
f 865/2/4 866/2/4 867/2/4 868/2/4
f 869/2/3 870/2/3 871/2/3 872/2/3
f 873/2/4 874/2/4 875/2/4 876/2/4
f 877/2/3 878/2/3 879/2/3 880/2/3
f 881/2/4 882/2/4 883/2/4 884/2/4
f 885/2/3 886/2/3 887/2/3 888/2/3
f 889/2/4 890/2/4 891/2/4 892/2/4
f 893/2/3 894/2/3 895/2/3 896/2/3
f 897/2/4 898/2/4 899/2/4 900/2/4
f 901/2/3 902/2/3 903/2/3 904/2/3
f 905/2/4 906/2/4 907/2/4 908/2/4
f 909/2/3 910/2/3 911/2/3 912/2/3
f 913/2/4 914/2/4 915/2/4 916/2/4
f 917/2/3 918/2/3 919/2/3 920/2/3
f 921/2/4 922/2/4 923/2/4 924/2/4
f 925/2/3 926/2/3 927/2/3 928/2/3
f 929/2/4 930/2/4 931/2/4 932/2/4
f 933/2/3 934/2/3 935/2/3 936/2/3
f 937/2/4 938/2/4 939/2/4 940/2/4
f 941/2/3 942/2/3 943/2/3 944/2/3
f 945/2/4 946/2/4 947/2/4 948/2/4
f 949/2/3 950/2/3 951/2/3 952/2/3
f 953/2/4 954/2/4 955/2/4 956/2/4
f 957/2/3 958/2/3 959/2/3 960/2/3
f 961/2/4 962/2/4 963/2/4 964/2/4
f 965/2/3 966/2/3 967/2/3 968/2/3
f 969/2/4 970/2/4 971/2/4 972/2/4
f 973/2/3 974/2/3 975/2/3 976/2/3
f 977/2/4 978/2/4 979/2/4 980/2/4
f 981/2/6 982/2/6 983/2/6 984/2/6
f 985/2/3 986/2/3 987/2/3 988/2/3
f 989/2/4 990/2/4 991/2/4 992/2/4
f 993/2/5 994/2/5 995/2/5 996/2/5
f 997/2/3 998/2/3 999/2/3 1000/2/3
f 1001/2/4 1002/2/4 1003/2/4 1004/2/4
f 1005/2/3 1006/2/3 1007/2/3 1008/2/3
f 1009/2/4 1010/2/4 1011/2/4 1012/2/4
f 1013/4/3 1014/4/3 1015/4/3 1016/4/3
f 1017/4/4 1018/4/4 1019/4/4 1020/4/4
f 1021/3/3 1022/3/3 1023/3/3 1024/3/3
f 1025/3/4 1026/3/4 1027/3/4 1028/3/4
f 1029/3/3 1030/3/3 1031/3/3 1032/3/3
f 1033/3/4 1034/3/4 1035/3/4 1036/3/4
f 1037/3/3 1038/3/3 1039/3/3 1040/3/3
f 1041/3/4 1042/3/4 1043/3/4 1044/3/4
f 1045/1/3 1046/1/3 1047/1/3 1048/1/3
f 1049/1/4 1050/1/4 1051/1/4 1052/1/4
f 1053/1/3 1054/1/3 1055/1/3 1056/1/3
f 1057/1/4 1058/1/4 1059/1/4 1060/1/4
f 1061/4/3 1062/4/3 1063/4/3 1064/4/3
f 1065/4/4 1066/4/4 1067/4/4 1068/4/4
f 1069/2/3 1070/2/3 1071/2/3 1072/2/3
f 1073/2/4 1074/2/4 1075/2/4 1076/2/4
f 1077/2/3 1078/2/3 1079/2/3 1080/2/3
f 1081/2/4 1082/2/4 1083/2/4 1084/2/4
f 1085/2/3 1086/2/3 1087/2/3 1088/2/3
f 1089/2/4 1090/2/4 1091/2/4 1092/2/4
f 1093/2/3 1094/2/3 1095/2/3 1096/2/3
f 1097/2/4 1098/2/4 1099/2/4 1100/2/4
f 1101/2/3 1102/2/3 1103/2/3 1104/2/3
f 1105/2/4 1106/2/4 1107/2/4 1108/2/4
f 1109/2/3 1110/2/3 1111/2/3 1112/2/3
f 1113/2/4 1114/2/4 1115/2/4 1116/2/4
f 1117/2/3 1118/2/3 1119/2/3 1120/2/3
f 1121/2/4 1122/2/4 1123/2/4 1124/2/4
f 1125/2/3 1126/2/3 1127/2/3 1128/2/3
f 1129/2/4 1130/2/4 1131/2/4 1132/2/4
f 1133/2/3 1134/2/3 1135/2/3 1136/2/3
f 1137/2/4 1138/2/4 1139/2/4 1140/2/4
f 1141/2/3 1142/2/3 1143/2/3 1144/2/3
f 1145/2/4 1146/2/4 1147/2/4 1148/2/4
f 1149/2/3 1150/2/3 1151/2/3 1152/2/3
f 1153/2/4 1154/2/4 1155/2/4 1156/2/4
f 1157/2/3 1158/2/3 1159/2/3 1160/2/3
f 1161/2/4 1162/2/4 1163/2/4 1164/2/4
f 1165/2/3 1166/2/3 1167/2/3 1168/2/3
f 1169/2/4 1170/2/4 1171/2/4 1172/2/4
f 1173/2/3 1174/2/3 1175/2/3 1176/2/3
f 1177/2/4 1178/2/4 1179/2/4 1180/2/4
f 1181/2/6 1182/2/6 1183/2/6 1184/2/6
f 1185/2/3 1186/2/3 1187/2/3 1188/2/3
f 1189/2/4 1190/2/4 1191/2/4 1192/2/4
f 1193/2/5 1194/2/5 1195/2/5 1196/2/5
f 1197/2/3 1198/2/3 1199/2/3 1200/2/3
f 1201/2/4 1202/2/4 1203/2/4 1204/2/4
f 1205/2/3 1206/2/3 1207/2/3 1208/2/3
f 1209/2/4 1210/2/4 1211/2/4 1212/2/4
f 1213/1/3 1214/1/3 1215/1/3 1216/1/3
f 1217/1/4 1218/1/4 1219/1/4 1220/1/4
f 1221/1/3 1222/1/3 1223/1/3 1224/1/3
f 1225/1/4 1226/1/4 1227/1/4 1228/1/4
f 1229/1/3 1230/1/3 1231/1/3 1232/1/3
f 1233/1/4 1234/1/4 1235/1/4 1236/1/4
f 1237/1/3 1238/1/3 1239/1/3 1240/1/3
f 1241/1/4 1242/1/4 1243/1/4 1244/1/4
f 1245/1/3 1246/1/3 1247/1/3 1248/1/3
f 1249/1/4 1250/1/4 1251/1/4 1252/1/4
f 1253/1/3 1254/1/3 1255/1/3 1256/1/3
f 1257/1/4 1258/1/4 1259/1/4 1260/1/4
f 1261/4/3 1262/4/3 1263/4/3 1264/4/3
f 1265/4/4 1266/4/4 1267/4/4 1268/4/4
f 1269/2/3 1270/2/3 1271/2/3 1272/2/3
f 1273/2/4 1274/2/4 1275/2/4 1276/2/4
f 1277/2/3 1278/2/3 1279/2/3 1280/2/3
f 1281/2/4 1282/2/4 1283/2/4 1284/2/4
f 1285/2/3 1286/2/3 1287/2/3 1288/2/3
f 1289/2/4 1290/2/4 1291/2/4 1292/2/4
f 1293/2/3 1294/2/3 1295/2/3 1296/2/3
f 1297/2/4 1298/2/4 1299/2/4 1300/2/4
f 1301/2/3 1302/2/3 1303/2/3 1304/2/3
f 1305/2/4 1306/2/4 1307/2/4 1308/2/4
f 1309/2/3 1310/2/3 1311/2/3 1312/2/3
f 1313/2/4 1314/2/4 1315/2/4 1316/2/4
f 1317/2/3 1318/2/3 1319/2/3 1320/2/3
f 1321/2/4 1322/2/4 1323/2/4 1324/2/4
f 1325/4/3 1326/4/3 1327/4/3 1328/4/3
f 1329/4/4 1330/4/4 1331/4/4 1332/4/4
f 1333/4/3 1334/4/3 1335/4/3 1336/4/3
f 1337/4/4 1338/4/4 1339/4/4 1340/4/4
f 1341/2/3 1342/2/3 1343/2/3 1344/2/3
f 1345/2/4 1346/2/4 1347/2/4 1348/2/4
f 1349/2/3 1350/2/3 1351/2/3 1352/2/3
f 1353/2/4 1354/2/4 1355/2/4 1356/2/4
f 1357/2/3 1358/2/3 1359/2/3 1360/2/3
f 1361/2/4 1362/2/4 1363/2/4 1364/2/4
f 1365/2/3 1366/2/3 1367/2/3 1368/2/3
f 1369/2/4 1370/2/4 1371/2/4 1372/2/4
f 1373/1/3 1374/1/3 1375/1/3 1376/1/3
f 1377/1/4 1378/1/4 1379/1/4 1380/1/4
f 1381/1/6 1382/1/6 1383/1/6 1384/1/6
f 1385/2/3 1386/2/3 1387/2/3 1388/2/3
f 1389/2/4 1390/2/4 1391/2/4 1392/2/4
f 1393/2/5 1394/2/5 1395/2/5 1396/2/5
f 1397/2/3 1398/2/3 1399/2/3 1400/2/3
f 1401/2/4 1402/2/4 1403/2/4 1404/2/4
f 1405/4/3 1406/4/3 1407/4/3 1408/4/3
f 1409/4/4 1410/4/4 1411/4/4 1412/4/4
f 1413/4/3 1414/4/3 1415/4/3 1416/4/3
f 1417/4/4 1418/4/4 1419/4/4 1420/4/4
f 1421/4/3 1422/4/3 1423/4/3 1424/4/3
f 1425/4/4 1426/4/4 1427/4/4 1428/4/4
f 1429/4/3 1430/4/3 1431/4/3 1432/4/3
f 1433/4/4 1434/4/4 1435/4/4 1436/4/4
f 1437/1/3 1438/1/3 1439/1/3 1440/1/3
f 1441/1/4 1442/1/4 1443/1/4 1444/1/4
f 1445/1/3 1446/1/3 1447/1/3 1448/1/3
f 1449/1/4 1450/1/4 1451/1/4 1452/1/4
f 1453/1/3 1454/1/3 1455/1/3 1456/1/3
f 1457/1/4 1458/1/4 1459/1/4 1460/1/4
f 1461/4/3 1462/4/3 1463/4/3 1464/4/3
f 1465/4/4 1466/4/4 1467/4/4 1468/4/4
f 1469/2/3 1470/2/3 1471/2/3 1472/2/3
f 1473/2/4 1474/2/4 1475/2/4 1476/2/4
f 1477/2/3 1478/2/3 1479/2/3 1480/2/3
f 1481/2/4 1482/2/4 1483/2/4 1484/2/4
f 1485/2/3 1486/2/3 1487/2/3 1488/2/3
f 1489/2/4 1490/2/4 1491/2/4 1492/2/4
f 1493/2/3 1494/2/3 1495/2/3 1496/2/3
f 1497/2/4 1498/2/4 1499/2/4 1500/2/4
f 1501/2/3 1502/2/3 1503/2/3 1504/2/3
f 1505/2/4 1506/2/4 1507/2/4 1508/2/4
f 1509/2/3 1510/2/3 1511/2/3 1512/2/3
f 1513/2/4 1514/2/4 1515/2/4 1516/2/4
f 1517/4/3 1518/4/3 1519/4/3 1520/4/3
f 1521/4/4 1522/4/4 1523/4/4 1524/4/4
f 1525/1/3 1526/1/3 1527/1/3 1528/1/3
f 1529/1/4 1530/1/4 1531/1/4 1532/1/4
f 1533/4/3 1534/4/3 1535/4/3 1536/4/3
f 1537/4/4 1538/4/4 1539/4/4 1540/4/4
f 1541/4/3 1542/4/3 1543/4/3 1544/4/3
f 1545/4/4 1546/4/4 1547/4/4 1548/4/4
f 1549/4/3 1550/4/3 1551/4/3 1552/4/3
f 1553/4/4 1554/4/4 1555/4/4 1556/4/4
f 1557/4/3 1558/4/3 1559/4/3 1560/4/3
f 1561/4/4 1562/4/4 1563/4/4 1564/4/4
f 1565/4/3 1566/4/3 1567/4/3 1568/4/3
f 1569/4/4 1570/4/4 1571/4/4 1572/4/4
f 1573/4/3 1574/4/3 1575/4/3 1576/4/3
f 1577/4/4 1578/4/4 1579/4/4 1580/4/4
f 1581/4/6 1582/4/6 1583/4/6 1584/4/6
f 1585/1/3 1586/1/3 1587/1/3 1588/1/3
f 1589/1/4 1590/1/4 1591/1/4 1592/1/4
f 1593/1/5 1594/1/5 1595/1/5 1596/1/5
f 1597/1/3 1598/1/3 1599/1/3 1600/1/3
f 1601/1/4 1602/1/4 1603/1/4 1604/1/4
f 1605/4/3 1606/4/3 1607/4/3 1608/4/3
f 1609/4/4 1610/4/4 1611/4/4 1612/4/4
f 1613/2/3 1614/2/3 1615/2/3 1616/2/3
f 1617/2/4 1618/2/4 1619/2/4 1620/2/4
f 1621/2/3 1622/2/3 1623/2/3 1624/2/3
f 1625/2/4 1626/2/4 1627/2/4 1628/2/4
f 1629/2/3 1630/2/3 1631/2/3 1632/2/3
f 1633/2/4 1634/2/4 1635/2/4 1636/2/4
f 1637/4/3 1638/4/3 1639/4/3 1640/4/3
f 1641/4/4 1642/4/4 1643/4/4 1644/4/4
f 1645/1/3 1646/1/3 1647/1/3 1648/1/3
f 1649/1/4 1650/1/4 1651/1/4 1652/1/4
f 1653/4/3 1654/4/3 1655/4/3 1656/4/3
f 1657/4/4 1658/4/4 1659/4/4 1660/4/4
f 1661/2/3 1662/2/3 1663/2/3 1664/2/3
f 1665/2/4 1666/2/4 1667/2/4 1668/2/4
f 1669/2/3 1670/2/3 1671/2/3 1672/2/3
f 1673/2/4 1674/2/4 1675/2/4 1676/2/4
f 1677/2/3 1678/2/3 1679/2/3 1680/2/3
f 1681/2/4 1682/2/4 1683/2/4 1684/2/4
f 1685/2/3 1686/2/3 1687/2/3 1688/2/3
f 1689/2/4 1690/2/4 1691/2/4 1692/2/4
f 1693/2/3 1694/2/3 1695/2/3 1696/2/3
f 1697/2/4 1698/2/4 1699/2/4 1700/2/4
f 1701/2/3 1702/2/3 1703/2/3 1704/2/3
f 1705/2/4 1706/2/4 1707/2/4 1708/2/4
f 1709/2/3 1710/2/3 1711/2/3 1712/2/3
f 1713/2/4 1714/2/4 1715/2/4 1716/2/4
f 1717/4/3 1718/4/3 1719/4/3 1720/4/3
f 1721/4/4 1722/4/4 1723/4/4 1724/4/4
f 1725/1/3 1726/1/3 1727/1/3 1728/1/3
f 1729/1/4 1730/1/4 1731/1/4 1732/1/4
f 1733/1/3 1734/1/3 1735/1/3 1736/1/3
f 1737/1/4 1738/1/4 1739/1/4 1740/1/4
f 1741/1/3 1742/1/3 1743/1/3 1744/1/3
f 1745/1/4 1746/1/4 1747/1/4 1748/1/4
f 1749/1/3 1750/1/3 1751/1/3 1752/1/3
f 1753/1/4 1754/1/4 1755/1/4 1756/1/4
f 1757/1/3 1758/1/3 1759/1/3 1760/1/3
f 1761/1/4 1762/1/4 1763/1/4 1764/1/4
f 1765/4/3 1766/4/3 1767/4/3 1768/4/3
f 1769/4/4 1770/4/4 1771/4/4 1772/4/4
f 1773/2/3 1774/2/3 1775/2/3 1776/2/3
f 1777/2/4 1778/2/4 1779/2/4 1780/2/4
f 1781/2/6 1782/2/6 1783/2/6 1784/2/6
f 1785/3/3 1786/3/3 1787/3/3 1788/3/3
f 1789/3/4 1790/3/4 1791/3/4 1792/3/4
f 1793/3/5 1794/3/5 1795/3/5 1796/3/5
f 1797/1/3 1798/1/3 1799/1/3 1800/1/3
f 1801/1/4 1802/1/4 1803/1/4 1804/1/4
f 1805/2/3 1806/2/3 1807/2/3 1808/2/3
f 1809/2/4 1810/2/4 1811/2/4 1812/2/4
f 1813/2/3 1814/2/3 1815/2/3 1816/2/3
f 1817/2/4 1818/2/4 1819/2/4 1820/2/4
f 1821/2/3 1822/2/3 1823/2/3 1824/2/3
f 1825/2/4 1826/2/4 1827/2/4 1828/2/4
f 1829/2/3 1830/2/3 1831/2/3 1832/2/3
f 1833/2/4 1834/2/4 1835/2/4 1836/2/4
f 1837/4/3 1838/4/3 1839/4/3 1840/4/3
f 1841/4/4 1842/4/4 1843/4/4 1844/4/4
f 1845/4/3 1846/4/3 1847/4/3 1848/4/3
f 1849/4/4 1850/4/4 1851/4/4 1852/4/4
f 1853/2/3 1854/2/3 1855/2/3 1856/2/3
f 1857/2/4 1858/2/4 1859/2/4 1860/2/4
f 1861/2/3 1862/2/3 1863/2/3 1864/2/3
f 1865/2/4 1866/2/4 1867/2/4 1868/2/4
f 1869/2/3 1870/2/3 1871/2/3 1872/2/3
f 1873/2/4 1874/2/4 1875/2/4 1876/2/4
f 1877/2/3 1878/2/3 1879/2/3 1880/2/3
f 1881/2/4 1882/2/4 1883/2/4 1884/2/4
f 1885/2/3 1886/2/3 1887/2/3 1888/2/3
f 1889/2/4 1890/2/4 1891/2/4 1892/2/4
f 1893/2/3 1894/2/3 1895/2/3 1896/2/3
f 1897/2/4 1898/2/4 1899/2/4 1900/2/4
f 1901/2/3 1902/2/3 1903/2/3 1904/2/3
f 1905/2/4 1906/2/4 1907/2/4 1908/2/4
f 1909/2/3 1910/2/3 1911/2/3 1912/2/3
f 1913/2/4 1914/2/4 1915/2/4 1916/2/4
f 1917/4/3 1918/4/3 1919/4/3 1920/4/3
f 1921/4/4 1922/4/4 1923/4/4 1924/4/4
f 1925/1/3 1926/1/3 1927/1/3 1928/1/3
f 1929/1/4 1930/1/4 1931/1/4 1932/1/4
f 1933/3/3 1934/3/3 1935/3/3 1936/3/3
f 1937/3/4 1938/3/4 1939/3/4 1940/3/4
f 1941/3/3 1942/3/3 1943/3/3 1944/3/3
f 1945/3/4 1946/3/4 1947/3/4 1948/3/4
f 1949/3/3 1950/3/3 1951/3/3 1952/3/3
f 1953/3/4 1954/3/4 1955/3/4 1956/3/4
f 1957/1/3 1958/1/3 1959/1/3 1960/1/3
f 1961/1/4 1962/1/4 1963/1/4 1964/1/4
f 1965/2/3 1966/2/3 1967/2/3 1968/2/3
f 1969/2/4 1970/2/4 1971/2/4 1972/2/4
f 1973/2/3 1974/2/3 1975/2/3 1976/2/3
f 1977/2/4 1978/2/4 1979/2/4 1980/2/4
f 1981/2/6 1982/2/6 1983/2/6 1984/2/6
f 1985/3/3 1986/3/3 1987/3/3 1988/3/3
f 1989/3/4 1990/3/4 1991/3/4 1992/3/4
f 1993/3/5 1994/3/5 1995/3/5 1996/3/5
f 1997/2/3 1998/2/3 1999/2/3 2000/2/3
f 2001/2/4 2002/2/4 2003/2/4 2004/2/4
f 2005/2/3 2006/2/3 2007/2/3 2008/2/3
f 2009/2/4 2010/2/4 2011/2/4 2012/2/4
f 2013/2/3 2014/2/3 2015/2/3 2016/2/3
f 2017/2/4 2018/2/4 2019/2/4 2020/2/4
f 2021/2/3 2022/2/3 2023/2/3 2024/2/3
f 2025/2/4 2026/2/4 2027/2/4 2028/2/4
f 2029/2/3 2030/2/3 2031/2/3 2032/2/3
f 2033/2/4 2034/2/4 2035/2/4 2036/2/4
f 2037/2/3 2038/2/3 2039/2/3 2040/2/3
f 2041/2/4 2042/2/4 2043/2/4 2044/2/4
f 2045/2/3 2046/2/3 2047/2/3 2048/2/3
f 2049/2/4 2050/2/4 2051/2/4 2052/2/4
f 2053/2/3 2054/2/3 2055/2/3 2056/2/3
f 2057/2/4 2058/2/4 2059/2/4 2060/2/4
f 2061/2/3 2062/2/3 2063/2/3 2064/2/3
f 2065/2/4 2066/2/4 2067/2/4 2068/2/4
f 2069/2/3 2070/2/3 2071/2/3 2072/2/3
f 2073/2/4 2074/2/4 2075/2/4 2076/2/4
f 2077/2/3 2078/2/3 2079/2/3 2080/2/3
f 2081/2/4 2082/2/4 2083/2/4 2084/2/4
f 2085/2/3 2086/2/3 2087/2/3 2088/2/3
f 2089/2/4 2090/2/4 2091/2/4 2092/2/4
f 2093/2/3 2094/2/3 2095/2/3 2096/2/3
f 2097/2/4 2098/2/4 2099/2/4 2100/2/4
f 2101/2/3 2102/2/3 2103/2/3 2104/2/3
f 2105/2/4 2106/2/4 2107/2/4 2108/2/4
f 2109/2/3 2110/2/3 2111/2/3 2112/2/3
f 2113/2/4 2114/2/4 2115/2/4 2116/2/4
f 2117/4/3 2118/4/3 2119/4/3 2120/4/3
f 2121/4/4 2122/4/4 2123/4/4 2124/4/4
f 2125/1/3 2126/1/3 2127/1/3 2128/1/3
f 2129/1/4 2130/1/4 2131/1/4 2132/1/4
f 2133/3/3 2134/3/3 2135/3/3 2136/3/3
f 2137/3/4 2138/3/4 2139/3/4 2140/3/4
f 2141/3/3 2142/3/3 2143/3/3 2144/3/3
f 2145/3/4 2146/3/4 2147/3/4 2148/3/4
f 2149/3/3 2150/3/3 2151/3/3 2152/3/3
f 2153/3/4 2154/3/4 2155/3/4 2156/3/4
f 2157/4/3 2158/4/3 2159/4/3 2160/4/3
f 2161/4/4 2162/4/4 2163/4/4 2164/4/4
f 2165/2/3 2166/2/3 2167/2/3 2168/2/3
f 2169/2/4 2170/2/4 2171/2/4 2172/2/4
f 2173/2/3 2174/2/3 2175/2/3 2176/2/3
f 2177/2/4 2178/2/4 2179/2/4 2180/2/4
f 2181/2/6 2182/2/6 2183/2/6 2184/2/6
f 2185/4/3 2186/4/3 2187/4/3 2188/4/3
f 2189/4/4 2190/4/4 2191/4/4 2192/4/4
f 2193/4/5 2194/4/5 2195/4/5 2196/4/5
f 2197/2/3 2198/2/3 2199/2/3 2200/2/3
f 2201/2/4 2202/2/4 2203/2/4 2204/2/4
f 2205/2/3 2206/2/3 2207/2/3 2208/2/3
f 2209/2/4 2210/2/4 2211/2/4 2212/2/4
f 2213/2/3 2214/2/3 2215/2/3 2216/2/3
f 2217/2/4 2218/2/4 2219/2/4 2220/2/4
f 2221/2/3 2222/2/3 2223/2/3 2224/2/3
f 2225/2/4 2226/2/4 2227/2/4 2228/2/4
f 2229/2/3 2230/2/3 2231/2/3 2232/2/3
f 2233/2/4 2234/2/4 2235/2/4 2236/2/4
f 2237/2/3 2238/2/3 2239/2/3 2240/2/3
f 2241/2/4 2242/2/4 2243/2/4 2244/2/4
f 2245/2/3 2246/2/3 2247/2/3 2248/2/3
f 2249/2/4 2250/2/4 2251/2/4 2252/2/4
f 2253/2/3 2254/2/3 2255/2/3 2256/2/3
f 2257/2/4 2258/2/4 2259/2/4 2260/2/4
f 2261/2/3 2262/2/3 2263/2/3 2264/2/3
f 2265/2/4 2266/2/4 2267/2/4 2268/2/4
f 2269/2/3 2270/2/3 2271/2/3 2272/2/3
f 2273/2/4 2274/2/4 2275/2/4 2276/2/4
f 2277/4/3 2278/4/3 2279/4/3 2280/4/3
f 2281/4/4 2282/4/4 2283/4/4 2284/4/4
f 2285/4/3 2286/4/3 2287/4/3 2288/4/3
f 2289/4/4 2290/4/4 2291/4/4 2292/4/4
f 2293/2/3 2294/2/3 2295/2/3 2296/2/3
f 2297/2/4 2298/2/4 2299/2/4 2300/2/4
f 2301/2/3 2302/2/3 2303/2/3 2304/2/3
f 2305/2/4 2306/2/4 2307/2/4 2308/2/4
f 2309/2/3 2310/2/3 2311/2/3 2312/2/3
f 2313/2/4 2314/2/4 2315/2/4 2316/2/4
f 2317/4/3 2318/4/3 2319/4/3 2320/4/3
f 2321/4/4 2322/4/4 2323/4/4 2324/4/4
f 2325/1/3 2326/1/3 2327/1/3 2328/1/3
f 2329/1/4 2330/1/4 2331/1/4 2332/1/4
f 2333/3/3 2334/3/3 2335/3/3 2336/3/3
f 2337/3/4 2338/3/4 2339/3/4 2340/3/4
f 2341/3/3 2342/3/3 2343/3/3 2344/3/3
f 2345/3/4 2346/3/4 2347/3/4 2348/3/4
f 2349/4/3 2350/4/3 2351/4/3 2352/4/3
f 2353/4/4 2354/4/4 2355/4/4 2356/4/4
f 2357/2/3 2358/2/3 2359/2/3 2360/2/3
f 2361/2/4 2362/2/4 2363/2/4 2364/2/4
f 2365/2/3 2366/2/3 2367/2/3 2368/2/3
f 2369/2/4 2370/2/4 2371/2/4 2372/2/4
f 2373/2/3 2374/2/3 2375/2/3 2376/2/3
f 2377/2/4 2378/2/4 2379/2/4 2380/2/4
f 2381/2/6 2382/2/6 2383/2/6 2384/2/6
f 2385/2/2 2386/2/2 2387/2/2 2388/2/2
f 2389/2/3 2390/2/3 2391/2/3 2392/2/3
f 2393/2/4 2394/2/4 2395/2/4 2396/2/4
f 2397/2/5 2398/2/5 2399/2/5 2400/2/5
f 2401/2/2 2402/2/2 2403/2/2 2404/2/2
f 2405/2/3 2406/2/3 2407/2/3 2408/2/3
f 2409/2/4 2410/2/4 2411/2/4 2412/2/4
f 2413/2/2 2414/2/2 2415/2/2 2416/2/2
f 2417/2/3 2418/2/3 2419/2/3 2420/2/3
f 2421/2/4 2422/2/4 2423/2/4 2424/2/4
f 2425/2/2 2426/2/2 2427/2/2 2428/2/2
f 2429/2/3 2430/2/3 2431/2/3 2432/2/3
f 2433/2/4 2434/2/4 2435/2/4 2436/2/4
f 2437/2/2 2438/2/2 2439/2/2 2440/2/2
f 2441/2/3 2442/2/3 2443/2/3 2444/2/3
f 2445/2/4 2446/2/4 2447/2/4 2448/2/4
f 2449/2/2 2450/2/2 2451/2/2 2452/2/2
f 2453/2/3 2454/2/3 2455/2/3 2456/2/3
f 2457/2/4 2458/2/4 2459/2/4 2460/2/4
f 2461/2/2 2462/2/2 2463/2/2 2464/2/2
f 2465/2/3 2466/2/3 2467/2/3 2468/2/3
f 2469/2/4 2470/2/4 2471/2/4 2472/2/4
f 2473/2/2 2474/2/2 2475/2/2 2476/2/2
f 2477/2/3 2478/2/3 2479/2/3 2480/2/3
f 2481/2/4 2482/2/4 2483/2/4 2484/2/4
f 2485/2/2 2486/2/2 2487/2/2 2488/2/2
f 2489/2/3 2490/2/3 2491/2/3 2492/2/3
f 2493/2/4 2494/2/4 2495/2/4 2496/2/4
f 2497/4/2 2498/4/2 2499/4/2 2500/4/2
f 2501/4/3 2502/4/3 2503/4/3 2504/4/3
f 2505/4/4 2506/4/4 2507/4/4 2508/4/4
f 2509/1/2 2510/1/2 2511/1/2 2512/1/2
f 2513/1/3 2514/1/3 2515/1/3 2516/1/3
f 2517/1/4 2518/1/4 2519/1/4 2520/1/4
f 2521/3/2 2522/3/2 2523/3/2 2524/3/2
f 2525/3/3 2526/3/3 2527/3/3 2528/3/3
f 2529/3/4 2530/3/4 2531/3/4 2532/3/4
f 2533/1/2 2534/1/2 2535/1/2 2536/1/2
f 2537/1/3 2538/1/3 2539/1/3 2540/1/3
f 2541/1/4 2542/1/4 2543/1/4 2544/1/4
f 2545/2/2 2546/2/2 2547/2/2 2548/2/2
f 2549/2/3 2550/2/3 2551/2/3 2552/2/3
f 2553/2/4 2554/2/4 2555/2/4 2556/2/4
f 2557/2/2 2558/2/2 2559/2/2 2560/2/2
f 2561/2/3 2562/2/3 2563/2/3 2564/2/3
f 2565/2/4 2566/2/4 2567/2/4 2568/2/4
f 2569/2/2 2570/2/2 2571/2/2 2572/2/2
f 2573/2/3 2574/2/3 2575/2/3 2576/2/3
f 2577/2/4 2578/2/4 2579/2/4 2580/2/4
f 2581/4/2 2582/4/2 2583/4/2 2584/4/2
f 2585/4/3 2586/4/3 2587/4/3 2588/4/3
f 2589/4/4 2590/4/4 2591/4/4 2592/4/4
f 2593/1/2 2594/1/2 2595/1/2 2596/1/2
f 2597/1/3 2598/1/3 2599/1/3 2600/1/3
f 2601/1/4 2602/1/4 2603/1/4 2604/1/4
f 2605/1/2 2606/1/2 2607/1/2 2608/1/2
f 2609/1/3 2610/1/3 2611/1/3 2612/1/3
f 2613/1/4 2614/1/4 2615/1/4 2616/1/4
f 2617/4/2 2618/4/2 2619/4/2 2620/4/2
f 2621/4/3 2622/4/3 2623/4/3 2624/4/3
f 2625/4/4 2626/4/4 2627/4/4 2628/4/4
f 2629/2/2 2630/2/2 2631/2/2 2632/2/2
f 2633/2/3 2634/2/3 2635/2/3 2636/2/3
f 2637/2/4 2638/2/4 2639/2/4 2640/2/4
f 2641/2/2 2642/2/2 2643/2/2 2644/2/2
f 2645/2/3 2646/2/3 2647/2/3 2648/2/3
f 2649/2/4 2650/2/4 2651/2/4 2652/2/4
f 2653/2/2 2654/2/2 2655/2/2 2656/2/2
f 2657/2/3 2658/2/3 2659/2/3 2660/2/3
f 2661/2/4 2662/2/4 2663/2/4 2664/2/4
f 2665/2/2 2666/2/2 2667/2/2 2668/2/2
f 2669/2/3 2670/2/3 2671/2/3 2672/2/3
f 2673/2/4 2674/2/4 2675/2/4 2676/2/4
f 2677/2/6 2678/2/6 2679/2/6 2680/2/6

