# generated by vox_to_obj_exporter
# scale=0.1 center=true ground=true y_up=false

mtllib lava_25_12.mtl
usemtl palette

# normals
vn -1 0 0
vn 1 0 0
vn 0 0 1
vn 0 0 -1
vn 0 -1 0
vn 0 1 0

# texcoords
vt 0.001953125 0.5
vt 0.021484375 0.5
vt 0.044921875 0.5
vt 0.068359375 0.5

# verts
v -0.6 0.55 0.1
v -0.6 0.55 0
v -0.6 0.45 0
v -0.6 0.45 0.1
v -0.6 0.55 0.1
v -0.6 0.45 0.1
v -0.5 0.45 0.1
v -0.5 0.55 0.1
v -0.6 0.45 0
v -0.6 0.55 0
v -0.5 0.55 0
v -0.5 0.45 0
v -0.6 0.45 0.1
v -0.6 0.45 0
v -0.5 0.45 0
v -0.5 0.45 0.1
v -0.5 0.55 0.1
v -0.5 0.55 0
v -0.6 0.55 0
v -0.6 0.55 0.1
v -0.5 0.05 0.1
v -0.5 0.05 0
v -0.5 -0.05 0
v -0.5 -0.05 0.1
v -0.5 0.05 0.1
v -0.5 -0.05 0.1
v -0.4 -0.05 0.1
v -0.4 0.05 0.1
v -0.5 -0.05 0
v -0.5 0.05 0
v -0.4 0.05 0
v -0.4 -0.05 0
v -0.5 -0.05 0.1
v -0.5 -0.05 0
v -0.4 -0.05 0
v -0.4 -0.05 0.1
v -0.5 0.15 0.1
v -0.5 0.15 0
v -0.5 0.05 0
v -0.5 0.05 0.1
v -0.5 0.15 0.1
v -0.5 0.05 0.1
v -0.4 0.05 0.1
v -0.4 0.15 0.1
v -0.5 0.05 0
v -0.5 0.15 0
v -0.4 0.15 0
v -0.4 0.05 0
v -0.5 0.25 0.1
v -0.5 0.25 0
v -0.5 0.15 0
v -0.5 0.15 0.1
v -0.5 0.25 0.1
v -0.5 0.15 0.1
v -0.4 0.15 0.1
v -0.4 0.25 0.1
v -0.5 0.15 0
v -0.5 0.25 0
v -0.4 0.25 0
v -0.4 0.15 0
v -0.5 0.35 0.1
v -0.5 0.35 0
v -0.5 0.25 0
v -0.5 0.25 0.1
v -0.5 0.35 0.1
v -0.5 0.25 0.1
v -0.4 0.25 0.1
v -0.4 0.35 0.1
v -0.5 0.25 0
v -0.5 0.35 0
v -0.4 0.35 0
v -0.4 0.25 0
v -0.5 0.45 0.1
v -0.5 0.45 0
v -0.5 0.35 0
v -0.5 0.35 0.1
v -0.5 0.45 0.1
v -0.5 0.35 0.1
v -0.4 0.35 0.1
v -0.4 0.45 0.1
v -0.5 0.35 0
v -0.5 0.45 0
v -0.4 0.45 0
v -0.4 0.35 0
v -0.5 0.55 0.1
v -0.5 0.45 0.1
v -0.4 0.45 0.1
v -0.4 0.55 0.1
v -0.5 0.45 0
v -0.5 0.55 0
v -0.4 0.55 0
v -0.4 0.45 0
v -0.4 0.55 0.1
v -0.4 0.55 0
v -0.5 0.55 0
v -0.5 0.55 0.1
v -0.4 -0.05 0.1
v -0.4 -0.05 0
v -0.4 -0.15 0
v -0.4 -0.15 0.1
v -0.4 -0.05 0.1
v -0.4 -0.15 0.1
v -0.3 -0.15 0.1
v -0.3 -0.05 0.1
v -0.4 -0.15 0
v -0.4 -0.05 0
v -0.3 -0.05 0
v -0.3 -0.15 0
v -0.4 -0.15 0.1
v -0.4 -0.15 0
v -0.3 -0.15 0
v -0.3 -0.15 0.1
v -0.4 0.05 0.1
v -0.4 -0.05 0.1
v -0.3 -0.05 0.1
v -0.3 0.05 0.1
v -0.4 -0.05 0
v -0.4 0.05 0
v -0.3 0.05 0
v -0.3 -0.05 0
v -0.4 0.15 0.1
v -0.4 0.05 0.1
v -0.3 0.05 0.1
v -0.3 0.15 0.1
v -0.4 0.05 0
v -0.4 0.15 0
v -0.3 0.15 0
v -0.3 0.05 0
v -0.4 0.25 0.1
v -0.4 0.15 0.1
v -0.3 0.15 0.1
v -0.3 0.25 0.1
v -0.4 0.15 0
v -0.4 0.25 0
v -0.3 0.25 0
v -0.3 0.15 0
v -0.4 0.35 0.1
v -0.4 0.25 0.1
v -0.3 0.25 0.1
v -0.3 0.35 0.1
v -0.4 0.25 0
v -0.4 0.35 0
v -0.3 0.35 0
v -0.3 0.25 0
v -0.4 0.45 0.1
v -0.4 0.35 0.1
v -0.3 0.35 0.1
v -0.3 0.45 0.1
v -0.4 0.35 0
v -0.4 0.45 0
v -0.3 0.45 0
v -0.3 0.35 0
v -0.4 0.55 0.1
v -0.4 0.45 0.1
v -0.3 0.45 0.1
v -0.3 0.55 0.1
v -0.4 0.45 0
v -0.4 0.55 0
v -0.3 0.55 0
v -0.3 0.45 0
v -0.3 0.55 0.1
v -0.3 0.55 0
v -0.4 0.55 0
v -0.4 0.55 0.1
v -0.3 -0.15 0.1
v -0.3 -0.15 0
v -0.3 -0.25 0
v -0.3 -0.25 0.1
v -0.3 -0.15 0.1
v -0.3 -0.25 0.1
v -0.2 -0.25 0.1
v -0.2 -0.15 0.1
v -0.3 -0.25 0
v -0.3 -0.15 0
v -0.2 -0.15 0
v -0.2 -0.25 0
v -0.3 -0.25 0.1
v -0.3 -0.25 0
v -0.2 -0.25 0
v -0.2 -0.25 0.1
v -0.3 -0.05 0.1
v -0.3 -0.15 0.1
v -0.2 -0.15 0.1
v -0.2 -0.05 0.1
v -0.3 -0.15 0
v -0.3 -0.05 0
v -0.2 -0.05 0
v -0.2 -0.15 0
v -0.3 0.05 0.1
v -0.3 -0.05 0.1
v -0.2 -0.05 0.1
v -0.2 0.05 0.1
v -0.3 -0.05 0
v -0.3 0.05 0
v -0.2 0.05 0
v -0.2 -0.05 0
v -0.3 0.15 0.1
v -0.3 0.05 0.1
v -0.2 0.05 0.1
v -0.2 0.15 0.1
v -0.3 0.05 0
v -0.3 0.15 0
v -0.2 0.15 0
v -0.2 0.05 0
v -0.3 0.25 0.1
v -0.3 0.15 0.1
v -0.2 0.15 0.1
v -0.2 0.25 0.1
v -0.3 0.15 0
v -0.3 0.25 0
v -0.2 0.25 0
v -0.2 0.15 0
v -0.3 0.35 0.1
v -0.3 0.25 0.1
v -0.2 0.25 0.1
v -0.2 0.35 0.1
v -0.3 0.25 0
v -0.3 0.35 0
v -0.2 0.35 0
v -0.2 0.25 0
v -0.3 0.45 0.1
v -0.3 0.35 0.1
v -0.2 0.35 0.1
v -0.2 0.45 0.1
v -0.3 0.35 0
v -0.3 0.45 0
v -0.2 0.45 0
v -0.2 0.35 0
v -0.3 0.55 0.1
v -0.3 0.45 0.1
v -0.2 0.45 0.1
v -0.2 0.55 0.1
v -0.3 0.45 0
v -0.3 0.55 0
v -0.2 0.55 0
v -0.2 0.45 0
v -0.2 0.55 0.1
v -0.2 0.55 0
v -0.3 0.55 0
v -0.3 0.55 0.1
v -0.2 -0.25 0.1
v -0.2 -0.25 0
v -0.2 -0.35 0
v -0.2 -0.35 0.1
v -0.2 -0.25 0.1
v -0.2 -0.35 0.1
v -0.1 -0.35 0.1
v -0.1 -0.25 0.1
v -0.2 -0.35 0
v -0.2 -0.25 0
v -0.1 -0.25 0
v -0.1 -0.35 0
v -0.2 -0.35 0.1
v -0.2 -0.35 0
v -0.1 -0.35 0
v -0.1 -0.35 0.1
v -0.2 -0.15 0.1
v -0.2 -0.25 0.1
v -0.1 -0.25 0.1
v -0.1 -0.15 0.1
v -0.2 -0.25 0
v -0.2 -0.15 0
v -0.1 -0.15 0
v -0.1 -0.25 0
v -0.2 -0.05 0.1
v -0.2 -0.15 0.1
v -0.1 -0.15 0.1
v -0.1 -0.05 0.1
v -0.2 -0.15 0
v -0.2 -0.05 0
v -0.1 -0.05 0
v -0.1 -0.15 0
v -0.2 0.05 0.1
v -0.2 -0.05 0.1
v -0.1 -0.05 0.1
v -0.1 0.05 0.1
v -0.2 -0.05 0
v -0.2 0.05 0
v -0.1 0.05 0
v -0.1 -0.05 0
v -0.2 0.15 0.1
v -0.2 0.05 0.1
v -0.1 0.05 0.1
v -0.1 0.15 0.1
v -0.2 0.05 0
v -0.2 0.15 0
v -0.1 0.15 0
v -0.1 0.05 0
v -0.2 0.25 0.1
v -0.2 0.15 0.1
v -0.1 0.15 0.1
v -0.1 0.25 0.1
v -0.2 0.15 0
v -0.2 0.25 0
v -0.1 0.25 0
v -0.1 0.15 0
v -0.2 0.35 0.1
v -0.2 0.25 0.1
v -0.1 0.25 0.1
v -0.1 0.35 0.1
v -0.2 0.25 0
v -0.2 0.35 0
v -0.1 0.35 0
v -0.1 0.25 0
v -0.2 0.45 0.1
v -0.2 0.35 0.1
v -0.1 0.35 0.1
v -0.1 0.45 0.1
v -0.2 0.35 0
v -0.2 0.45 0
v -0.1 0.45 0
v -0.1 0.35 0
v -0.2 0.55 0.1
v -0.2 0.45 0.1
v -0.1 0.45 0.1
v -0.1 0.55 0.1
v -0.2 0.45 0
v -0.2 0.55 0
v -0.1 0.55 0
v -0.1 0.45 0
v -0.1 0.55 0.1
v -0.1 0.55 0
v -0.2 0.55 0
v -0.2 0.55 0.1
v -0.1 -0.35 0.1
v -0.1 -0.35 0
v -0.1 -0.45 0
v -0.1 -0.45 0.1
v -0.1 -0.35 0.1
v -0.1 -0.45 0.1
v 0 -0.45 0.1
v 0 -0.35 0.1
v -0.1 -0.45 0
v -0.1 -0.35 0
v 0 -0.35 0
v 0 -0.45 0
v -0.1 -0.45 0.1
v -0.1 -0.45 0
v 0 -0.45 0
v 0 -0.45 0.1
v -0.1 -0.25 0.1
v -0.1 -0.35 0.1
v 0 -0.35 0.1
v 0 -0.25 0.1
v -0.1 -0.35 0
v -0.1 -0.25 0
v 0 -0.25 0
v 0 -0.35 0
v -0.1 -0.15 0.1
v -0.1 -0.25 0.1
v 0 -0.25 0.1
v 0 -0.15 0.1
v -0.1 -0.25 0
v -0.1 -0.15 0
v 0 -0.15 0
v 0 -0.25 0
v -0.1 -0.05 0.1
v -0.1 -0.15 0.1
v 0 -0.15 0.1
v 0 -0.05 0.1
v -0.1 -0.15 0
v -0.1 -0.05 0
v 0 -0.05 0
v 0 -0.15 0
v -0.1 0.05 0.1
v -0.1 -0.05 0.1
v 0 -0.05 0.1
v 0 0.05 0.1
v -0.1 -0.05 0
v -0.1 0.05 0
v 0 0.05 0
v 0 -0.05 0
v -0.1 0.15 0.1
v -0.1 0.05 0.1
v 0 0.05 0.1
v 0 0.15 0.1
v -0.1 0.05 0
v -0.1 0.15 0
v 0 0.15 0
v 0 0.05 0
v -0.1 0.25 0.1
v -0.1 0.15 0.1
v 0 0.15 0.1
v 0 0.25 0.1
v -0.1 0.15 0
v -0.1 0.25 0
v 0 0.25 0
v 0 0.15 0
v -0.1 0.35 0.1
v -0.1 0.25 0.1
v 0 0.25 0.1
v 0 0.35 0.1
v -0.1 0.25 0
v -0.1 0.35 0
v 0 0.35 0
v 0 0.25 0
v -0.1 0.45 0.1
v -0.1 0.35 0.1
v 0 0.35 0.1
v 0 0.45 0.1
v -0.1 0.35 0
v -0.1 0.45 0
v 0 0.45 0
v 0 0.35 0
v -0.1 0.55 0.1
v -0.1 0.45 0.1
v 0 0.45 0.1
v 0 0.55 0.1
v -0.1 0.45 0
v -0.1 0.55 0
v 0 0.55 0
v 0 0.45 0
v 0 0.55 0.1
v 0 0.55 0
v -0.1 0.55 0
v -0.1 0.55 0.1
v 0 -0.45 0.1
v 0 -0.45 0
v 0 -0.55 0
v 0 -0.55 0.1
v 0 -0.45 0.1
v 0 -0.55 0.1
v 0.1 -0.55 0.1
v 0.1 -0.45 0.1
v 0 -0.55 0
v 0 -0.45 0
v 0.1 -0.45 0
v 0.1 -0.55 0
v 0 -0.55 0.1
v 0 -0.55 0
v 0.1 -0.55 0
v 0.1 -0.55 0.1
v 0 -0.35 0.1
v 0 -0.45 0.1
v 0.1 -0.45 0.1
v 0.1 -0.35 0.1
v 0 -0.45 0
v 0 -0.35 0
v 0.1 -0.35 0
v 0.1 -0.45 0
v 0 -0.25 0.1
v 0 -0.35 0.1
v 0.1 -0.35 0.1
v 0.1 -0.25 0.1
v 0 -0.35 0
v 0 -0.25 0
v 0.1 -0.25 0
v 0.1 -0.35 0
v 0 -0.15 0.1
v 0 -0.25 0.1
v 0.1 -0.25 0.1
v 0.1 -0.15 0.1
v 0 -0.25 0
v 0 -0.15 0
v 0.1 -0.15 0
v 0.1 -0.25 0
v 0 -0.05 0.1
v 0 -0.15 0.1
v 0.1 -0.15 0.1
v 0.1 -0.05 0.1
v 0 -0.15 0
v 0 -0.05 0
v 0.1 -0.05 0
v 0.1 -0.15 0
v 0 0.05 0.1
v 0 -0.05 0.1
v 0.1 -0.05 0.1
v 0.1 0.05 0.1
v 0 -0.05 0
v 0 0.05 0
v 0.1 0.05 0
v 0.1 -0.05 0
v 0 0.15 0.1
v 0 0.05 0.1
v 0.1 0.05 0.1
v 0.1 0.15 0.1
v 0 0.05 0
v 0 0.15 0
v 0.1 0.15 0
v 0.1 0.05 0
v 0 0.25 0.1
v 0 0.15 0.1
v 0.1 0.15 0.1
v 0.1 0.25 0.1
v 0 0.15 0
v 0 0.25 0
v 0.1 0.25 0
v 0.1 0.15 0
v 0 0.35 0.1
v 0 0.25 0.1
v 0.1 0.25 0.1
v 0.1 0.35 0.1
v 0 0.25 0
v 0 0.35 0
v 0.1 0.35 0
v 0.1 0.25 0
v 0 0.45 0.1
v 0 0.35 0.1
v 0.1 0.35 0.1
v 0.1 0.45 0.1
v 0 0.35 0
v 0 0.45 0
v 0.1 0.45 0
v 0.1 0.35 0
v 0 0.55 0.1
v 0 0.45 0.1
v 0.1 0.45 0.1
v 0.1 0.55 0.1
v 0 0.45 0
v 0 0.55 0
v 0.1 0.55 0
v 0.1 0.45 0
v 0.1 0.55 0.1
v 0.1 0.55 0
v 0 0.55 0
v 0 0.55 0.1
v 0.1 -0.45 0.1
v 0.1 -0.55 0.1
v 0.2 -0.55 0.1
v 0.2 -0.45 0.1
v 0.1 -0.55 0
v 0.1 -0.45 0
v 0.2 -0.45 0
v 0.2 -0.55 0
v 0.1 -0.55 0.1
v 0.1 -0.55 0
v 0.2 -0.55 0
v 0.2 -0.55 0.1
v 0.1 -0.35 0.1
v 0.1 -0.45 0.1
v 0.2 -0.45 0.1
v 0.2 -0.35 0.1
v 0.1 -0.45 0
v 0.1 -0.35 0
v 0.2 -0.35 0
v 0.2 -0.45 0
v 0.1 -0.25 0.1
v 0.1 -0.35 0.1
v 0.2 -0.35 0.1
v 0.2 -0.25 0.1
v 0.1 -0.35 0
v 0.1 -0.25 0
v 0.2 -0.25 0
v 0.2 -0.35 0
v 0.1 -0.15 0.1
v 0.1 -0.25 0.1
v 0.2 -0.25 0.1
v 0.2 -0.15 0.1
v 0.1 -0.25 0
v 0.1 -0.15 0
v 0.2 -0.15 0
v 0.2 -0.25 0
v 0.1 -0.05 0.1
v 0.1 -0.15 0.1
v 0.2 -0.15 0.1
v 0.2 -0.05 0.1
v 0.1 -0.15 0
v 0.1 -0.05 0
v 0.2 -0.05 0
v 0.2 -0.15 0
v 0.1 0.05 0.1
v 0.1 -0.05 0.1
v 0.2 -0.05 0.1
v 0.2 0.05 0.1
v 0.1 -0.05 0
v 0.1 0.05 0
v 0.2 0.05 0
v 0.2 -0.05 0
v 0.1 0.15 0.1
v 0.1 0.05 0.1
v 0.2 0.05 0.1
v 0.2 0.15 0.1
v 0.1 0.05 0
v 0.1 0.15 0
v 0.2 0.15 0
v 0.2 0.05 0
v 0.1 0.25 0.1
v 0.1 0.15 0.1
v 0.2 0.15 0.1
v 0.2 0.25 0.1
v 0.1 0.15 0
v 0.1 0.25 0
v 0.2 0.25 0
v 0.2 0.15 0
v 0.1 0.35 0.1
v 0.1 0.25 0.1
v 0.2 0.25 0.1
v 0.2 0.35 0.1
v 0.1 0.25 0
v 0.1 0.35 0
v 0.2 0.35 0
v 0.2 0.25 0
v 0.1 0.45 0.1
v 0.1 0.35 0.1
v 0.2 0.35 0.1
v 0.2 0.45 0.1
v 0.1 0.35 0
v 0.1 0.45 0
v 0.2 0.45 0
v 0.2 0.35 0
v 0.1 0.55 0.1
v 0.1 0.45 0.1
v 0.2 0.45 0.1
v 0.2 0.55 0.1
v 0.1 0.45 0
v 0.1 0.55 0
v 0.2 0.55 0
v 0.2 0.45 0
v 0.2 0.55 0.1
v 0.2 0.55 0
v 0.1 0.55 0
v 0.1 0.55 0.1
v 0.2 -0.45 0.1
v 0.2 -0.55 0.1
v 0.3 -0.55 0.1
v 0.3 -0.45 0.1
v 0.2 -0.55 0
v 0.2 -0.45 0
v 0.3 -0.45 0
v 0.3 -0.55 0
v 0.2 -0.55 0.1
v 0.2 -0.55 0
v 0.3 -0.55 0
v 0.3 -0.55 0.1
v 0.2 -0.35 0.1
v 0.2 -0.45 0.1
v 0.3 -0.45 0.1
v 0.3 -0.35 0.1
v 0.2 -0.45 0
v 0.2 -0.35 0
v 0.3 -0.35 0
v 0.3 -0.45 0
v 0.2 -0.25 0.1
v 0.2 -0.35 0.1
v 0.3 -0.35 0.1
v 0.3 -0.25 0.1
v 0.2 -0.35 0
v 0.2 -0.25 0
v 0.3 -0.25 0
v 0.3 -0.35 0
v 0.2 -0.15 0.1
v 0.2 -0.25 0.1
v 0.3 -0.25 0.1
v 0.3 -0.15 0.1
v 0.2 -0.25 0
v 0.2 -0.15 0
v 0.3 -0.15 0
v 0.3 -0.25 0
v 0.2 -0.05 0.1
v 0.2 -0.15 0.1
v 0.3 -0.15 0.1
v 0.3 -0.05 0.1
v 0.2 -0.15 0
v 0.2 -0.05 0
v 0.3 -0.05 0
v 0.3 -0.15 0
v 0.2 0.05 0.1
v 0.2 -0.05 0.1
v 0.3 -0.05 0.1
v 0.3 0.05 0.1
v 0.2 -0.05 0
v 0.2 0.05 0
v 0.3 0.05 0
v 0.3 -0.05 0
v 0.2 0.15 0.1
v 0.2 0.05 0.1
v 0.3 0.05 0.1
v 0.3 0.15 0.1
v 0.2 0.05 0
v 0.2 0.15 0
v 0.3 0.15 0
v 0.3 0.05 0
v 0.2 0.25 0.1
v 0.2 0.15 0.1
v 0.3 0.15 0.1
v 0.3 0.25 0.1
v 0.2 0.15 0
v 0.2 0.25 0
v 0.3 0.25 0
v 0.3 0.15 0
v 0.2 0.35 0.1
v 0.2 0.25 0.1
v 0.3 0.25 0.1
v 0.3 0.35 0.1
v 0.2 0.25 0
v 0.2 0.35 0
v 0.3 0.35 0
v 0.3 0.25 0
v 0.2 0.45 0.1
v 0.2 0.35 0.1
v 0.3 0.35 0.1
v 0.3 0.45 0.1
v 0.2 0.35 0
v 0.2 0.45 0
v 0.3 0.45 0
v 0.3 0.35 0
v 0.2 0.55 0.1
v 0.2 0.45 0.1
v 0.3 0.45 0.1
v 0.3 0.55 0.1
v 0.2 0.45 0
v 0.2 0.55 0
v 0.3 0.55 0
v 0.3 0.45 0
v 0.3 0.55 0.1
v 0.3 0.55 0
v 0.2 0.55 0
v 0.2 0.55 0.1
v 0.3 -0.45 0.1
v 0.3 -0.55 0.1
v 0.4 -0.55 0.1
v 0.4 -0.45 0.1
v 0.3 -0.55 0
v 0.3 -0.45 0
v 0.4 -0.45 0
v 0.4 -0.55 0
v 0.3 -0.55 0.1
v 0.3 -0.55 0
v 0.4 -0.55 0
v 0.4 -0.55 0.1
v 0.3 -0.35 0.1
v 0.3 -0.45 0.1
v 0.4 -0.45 0.1
v 0.4 -0.35 0.1
v 0.3 -0.45 0
v 0.3 -0.35 0
v 0.4 -0.35 0
v 0.4 -0.45 0
v 0.3 -0.25 0.1
v 0.3 -0.35 0.1
v 0.4 -0.35 0.1
v 0.4 -0.25 0.1
v 0.3 -0.35 0
v 0.3 -0.25 0
v 0.4 -0.25 0
v 0.4 -0.35 0
v 0.3 -0.15 0.1
v 0.3 -0.25 0.1
v 0.4 -0.25 0.1
v 0.4 -0.15 0.1
v 0.3 -0.25 0
v 0.3 -0.15 0
v 0.4 -0.15 0
v 0.4 -0.25 0
v 0.3 -0.05 0.1
v 0.3 -0.15 0.1
v 0.4 -0.15 0.1
v 0.4 -0.05 0.1
v 0.3 -0.15 0
v 0.3 -0.05 0
v 0.4 -0.05 0
v 0.4 -0.15 0
v 0.3 0.05 0.1
v 0.3 -0.05 0.1
v 0.4 -0.05 0.1
v 0.4 0.05 0.1
v 0.3 -0.05 0
v 0.3 0.05 0
v 0.4 0.05 0
v 0.4 -0.05 0
v 0.3 0.15 0.1
v 0.3 0.05 0.1
v 0.4 0.05 0.1
v 0.4 0.15 0.1
v 0.3 0.05 0
v 0.3 0.15 0
v 0.4 0.15 0
v 0.4 0.05 0
v 0.3 0.25 0.1
v 0.3 0.15 0.1
v 0.4 0.15 0.1
v 0.4 0.25 0.1
v 0.3 0.15 0
v 0.3 0.25 0
v 0.4 0.25 0
v 0.4 0.15 0
v 0.3 0.35 0.1
v 0.3 0.25 0.1
v 0.4 0.25 0.1
v 0.4 0.35 0.1
v 0.3 0.25 0
v 0.3 0.35 0
v 0.4 0.35 0
v 0.4 0.25 0
v 0.3 0.45 0.1
v 0.3 0.35 0.1
v 0.4 0.35 0.1
v 0.4 0.45 0.1
v 0.3 0.35 0
v 0.3 0.45 0
v 0.4 0.45 0
v 0.4 0.35 0
v 0.3 0.55 0.1
v 0.3 0.45 0.1
v 0.4 0.45 0.1
v 0.4 0.55 0.1
v 0.3 0.45 0
v 0.3 0.55 0
v 0.4 0.55 0
v 0.4 0.45 0
v 0.4 0.55 0.1
v 0.4 0.55 0
v 0.3 0.55 0
v 0.3 0.55 0.1
v 0.4 -0.45 0.1
v 0.4 -0.55 0.1
v 0.5 -0.55 0.1
v 0.5 -0.45 0.1
v 0.4 -0.55 0
v 0.4 -0.45 0
v 0.5 -0.45 0
v 0.5 -0.55 0
v 0.4 -0.55 0.1
v 0.4 -0.55 0
v 0.5 -0.55 0
v 0.5 -0.55 0.1
v 0.4 -0.35 0.1
v 0.4 -0.45 0.1
v 0.5 -0.45 0.1
v 0.5 -0.35 0.1
v 0.4 -0.45 0
v 0.4 -0.35 0
v 0.5 -0.35 0
v 0.5 -0.45 0
v 0.4 -0.25 0.1
v 0.4 -0.35 0.1
v 0.5 -0.35 0.1
v 0.5 -0.25 0.1
v 0.4 -0.35 0
v 0.4 -0.25 0
v 0.5 -0.25 0
v 0.5 -0.35 0
v 0.4 -0.15 0.1
v 0.4 -0.25 0.1
v 0.5 -0.25 0.1
v 0.5 -0.15 0.1
v 0.4 -0.25 0
v 0.4 -0.15 0
v 0.5 -0.15 0
v 0.5 -0.25 0
v 0.4 -0.05 0.1
v 0.4 -0.15 0.1
v 0.5 -0.15 0.1
v 0.5 -0.05 0.1
v 0.4 -0.15 0
v 0.4 -0.05 0
v 0.5 -0.05 0
v 0.5 -0.15 0
v 0.4 0.05 0.1
v 0.4 -0.05 0.1
v 0.5 -0.05 0.1
v 0.5 0.05 0.1
v 0.4 -0.05 0
v 0.4 0.05 0
v 0.5 0.05 0
v 0.5 -0.05 0
v 0.4 0.15 0.1
v 0.4 0.05 0.1
v 0.5 0.05 0.1
v 0.5 0.15 0.1
v 0.4 0.05 0
v 0.4 0.15 0
v 0.5 0.15 0
v 0.5 0.05 0
v 0.4 0.25 0.1
v 0.4 0.15 0.1
v 0.5 0.15 0.1
v 0.5 0.25 0.1
v 0.4 0.15 0
v 0.4 0.25 0
v 0.5 0.25 0
v 0.5 0.15 0
v 0.4 0.35 0.1
v 0.4 0.25 0.1
v 0.5 0.25 0.1
v 0.5 0.35 0.1
v 0.4 0.25 0
v 0.4 0.35 0
v 0.5 0.35 0
v 0.5 0.25 0
v 0.4 0.45 0.1
v 0.4 0.35 0.1
v 0.5 0.35 0.1
v 0.5 0.45 0.1
v 0.4 0.35 0
v 0.4 0.45 0
v 0.5 0.45 0
v 0.5 0.35 0
v 0.4 0.55 0.1
v 0.4 0.45 0.1
v 0.5 0.45 0.1
v 0.5 0.55 0.1
v 0.4 0.45 0
v 0.4 0.55 0
v 0.5 0.55 0
v 0.5 0.45 0
v 0.5 0.55 0.1
v 0.5 0.55 0
v 0.4 0.55 0
v 0.4 0.55 0.1
v 0.6 -0.55 0.1
v 0.6 -0.55 0
v 0.6 -0.45 0
v 0.6 -0.45 0.1
v 0.5 -0.45 0.1
v 0.5 -0.55 0.1
v 0.6 -0.55 0.1
v 0.6 -0.45 0.1
v 0.5 -0.55 0
v 0.5 -0.45 0
v 0.6 -0.45 0
v 0.6 -0.55 0
v 0.5 -0.55 0.1
v 0.5 -0.55 0
v 0.6 -0.55 0
v 0.6 -0.55 0.1
v 0.6 -0.45 0.1
v 0.6 -0.45 0
v 0.6 -0.35 0
v 0.6 -0.35 0.1
v 0.5 -0.35 0.1
v 0.5 -0.45 0.1
v 0.6 -0.45 0.1
v 0.6 -0.35 0.1
v 0.5 -0.45 0
v 0.5 -0.35 0
v 0.6 -0.35 0
v 0.6 -0.45 0
v 0.6 -0.35 0.1
v 0.6 -0.35 0
v 0.6 -0.25 0
v 0.6 -0.25 0.1
v 0.5 -0.25 0.1
v 0.5 -0.35 0.1
v 0.6 -0.35 0.1
v 0.6 -0.25 0.1
v 0.5 -0.35 0
v 0.5 -0.25 0
v 0.6 -0.25 0
v 0.6 -0.35 0
v 0.6 -0.25 0.1
v 0.6 -0.25 0
v 0.6 -0.15 0
v 0.6 -0.15 0.1
v 0.5 -0.15 0.1
v 0.5 -0.25 0.1
v 0.6 -0.25 0.1
v 0.6 -0.15 0.1
v 0.5 -0.25 0
v 0.5 -0.15 0
v 0.6 -0.15 0
v 0.6 -0.25 0
v 0.6 -0.15 0.1
v 0.6 -0.15 0
v 0.6 -0.05 0
v 0.6 -0.05 0.1
v 0.5 -0.05 0.1
v 0.5 -0.15 0.1
v 0.6 -0.15 0.1
v 0.6 -0.05 0.1
v 0.5 -0.15 0
v 0.5 -0.05 0
v 0.6 -0.05 0
v 0.6 -0.15 0
v 0.6 -0.05 0.1
v 0.6 -0.05 0
v 0.6 0.05 0
v 0.6 0.05 0.1
v 0.5 0.05 0.1
v 0.5 -0.05 0.1
v 0.6 -0.05 0.1
v 0.6 0.05 0.1
v 0.5 -0.05 0
v 0.5 0.05 0
v 0.6 0.05 0
v 0.6 -0.05 0
v 0.6 0.05 0.1
v 0.6 0.05 0
v 0.6 0.15 0
v 0.6 0.15 0.1
v 0.5 0.15 0.1
v 0.5 0.05 0.1
v 0.6 0.05 0.1
v 0.6 0.15 0.1
v 0.5 0.05 0
v 0.5 0.15 0
v 0.6 0.15 0
v 0.6 0.05 0
v 0.6 0.15 0.1
v 0.6 0.15 0
v 0.6 0.25 0
v 0.6 0.25 0.1
v 0.5 0.25 0.1
v 0.5 0.15 0.1
v 0.6 0.15 0.1
v 0.6 0.25 0.1
v 0.5 0.15 0
v 0.5 0.25 0
v 0.6 0.25 0
v 0.6 0.15 0
v 0.6 0.25 0.1
v 0.6 0.25 0
v 0.6 0.35 0
v 0.6 0.35 0.1
v 0.5 0.35 0.1
v 0.5 0.25 0.1
v 0.6 0.25 0.1
v 0.6 0.35 0.1
v 0.5 0.25 0
v 0.5 0.35 0
v 0.6 0.35 0
v 0.6 0.25 0
v 0.6 0.35 0.1
v 0.6 0.35 0
v 0.6 0.45 0
v 0.6 0.45 0.1
v 0.5 0.45 0.1
v 0.5 0.35 0.1
v 0.6 0.35 0.1
v 0.6 0.45 0.1
v 0.5 0.35 0
v 0.5 0.45 0
v 0.6 0.45 0
v 0.6 0.35 0
v 0.6 0.45 0.1
v 0.6 0.45 0
v 0.6 0.55 0
v 0.6 0.55 0.1
v 0.5 0.55 0.1
v 0.5 0.45 0.1
v 0.6 0.45 0.1
v 0.6 0.55 0.1
v 0.5 0.45 0
v 0.5 0.55 0
v 0.6 0.55 0
v 0.6 0.45 0
v 0.6 0.55 0.1
v 0.6 0.55 0
v 0.5 0.55 0
v 0.5 0.55 0.1

# faces
f 1/2/1 2/2/1 3/2/1 4/2/1
f 5/2/3 6/2/3 7/2/3 8/2/3
f 9/2/4 10/2/4 11/2/4 12/2/4
f 13/2/5 14/2/5 15/2/5 16/2/5
f 17/2/6 18/2/6 19/2/6 20/2/6
f 21/1/1 22/1/1 23/1/1 24/1/1
f 25/1/3 26/1/3 27/1/3 28/1/3
f 29/1/4 30/1/4 31/1/4 32/1/4
f 33/1/5 34/1/5 35/1/5 36/1/5
f 37/1/1 38/1/1 39/1/1 40/1/1
f 41/1/3 42/1/3 43/1/3 44/1/3
f 45/1/4 46/1/4 47/1/4 48/1/4
f 49/1/1 50/1/1 51/1/1 52/1/1
f 53/1/3 54/1/3 55/1/3 56/1/3
f 57/1/4 58/1/4 59/1/4 60/1/4
f 61/2/1 62/2/1 63/2/1 64/2/1
f 65/2/3 66/2/3 67/2/3 68/2/3
f 69/2/4 70/2/4 71/2/4 72/2/4
f 73/3/1 74/3/1 75/3/1 76/3/1
f 77/3/3 78/3/3 79/3/3 80/3/3
f 81/3/4 82/3/4 83/3/4 84/3/4
f 85/3/3 86/3/3 87/3/3 88/3/3
f 89/3/4 90/3/4 91/3/4 92/3/4
f 93/3/6 94/3/6 95/3/6 96/3/6
f 97/1/1 98/1/1 99/1/1 100/1/1
f 101/1/3 102/1/3 103/1/3 104/1/3
f 105/1/4 106/1/4 107/1/4 108/1/4
f 109/1/5 110/1/5 111/1/5 112/1/5
f 113/1/3 114/1/3 115/1/3 116/1/3
f 117/1/4 118/1/4 119/1/4 120/1/4
f 121/1/3 122/1/3 123/1/3 124/1/3
f 125/1/4 126/1/4 127/1/4 128/1/4
f 129/3/3 130/3/3 131/3/3 132/3/3
f 133/3/4 134/3/4 135/3/4 136/3/4
f 137/4/3 138/4/3 139/4/3 140/4/3
f 141/4/4 142/4/4 143/4/4 144/4/4
f 145/4/3 146/4/3 147/4/3 148/4/3
f 149/4/4 150/4/4 151/4/4 152/4/4
f 153/4/3 154/4/3 155/4/3 156/4/3
f 157/4/4 158/4/4 159/4/4 160/4/4
f 161/4/6 162/4/6 163/4/6 164/4/6
f 165/1/1 166/1/1 167/1/1 168/1/1
f 169/1/3 170/1/3 171/1/3 172/1/3
f 173/1/4 174/1/4 175/1/4 176/1/4
f 177/1/5 178/1/5 179/1/5 180/1/5
f 181/1/3 182/1/3 183/1/3 184/1/3
f 185/1/4 186/1/4 187/1/4 188/1/4
f 189/1/3 190/1/3 191/1/3 192/1/3
f 193/1/4 194/1/4 195/1/4 196/1/4
f 197/2/3 198/2/3 199/2/3 200/2/3
f 201/2/4 202/2/4 203/2/4 204/2/4
f 205/4/3 206/4/3 207/4/3 208/4/3
f 209/4/4 210/4/4 211/4/4 212/4/4
f 213/4/3 214/4/3 215/4/3 216/4/3
f 217/4/4 218/4/4 219/4/4 220/4/4
f 221/4/3 222/4/3 223/4/3 224/4/3
f 225/4/4 226/4/4 227/4/4 228/4/4
f 229/3/3 230/3/3 231/3/3 232/3/3
f 233/3/4 234/3/4 235/3/4 236/3/4
f 237/3/6 238/3/6 239/3/6 240/3/6
f 241/1/1 242/1/1 243/1/1 244/1/1
f 245/1/3 246/1/3 247/1/3 248/1/3
f 249/1/4 250/1/4 251/1/4 252/1/4
f 253/1/5 254/1/5 255/1/5 256/1/5
f 257/1/3 258/1/3 259/1/3 260/1/3
f 261/1/4 262/1/4 263/1/4 264/1/4
f 265/1/3 266/1/3 267/1/3 268/1/3
f 269/1/4 270/1/4 271/1/4 272/1/4
f 273/1/3 274/1/3 275/1/3 276/1/3
f 277/1/4 278/1/4 279/1/4 280/1/4
f 281/4/3 282/4/3 283/4/3 284/4/3
f 285/4/4 286/4/4 287/4/4 288/4/4
f 289/4/3 290/4/3 291/4/3 292/4/3
f 293/4/4 294/4/4 295/4/4 296/4/4
f 297/4/3 298/4/3 299/4/3 300/4/3
f 301/4/4 302/4/4 303/4/4 304/4/4
f 305/4/3 306/4/3 307/4/3 308/4/3
f 309/4/4 310/4/4 311/4/4 312/4/4
f 313/2/3 314/2/3 315/2/3 316/2/3
f 317/2/4 318/2/4 319/2/4 320/2/4
f 321/2/6 322/2/6 323/2/6 324/2/6
f 325/1/1 326/1/1 327/1/1 328/1/1
f 329/1/3 330/1/3 331/1/3 332/1/3
f 333/1/4 334/1/4 335/1/4 336/1/4
f 337/1/5 338/1/5 339/1/5 340/1/5
f 341/1/3 342/1/3 343/1/3 344/1/3
f 345/1/4 346/1/4 347/1/4 348/1/4
f 349/1/3 350/1/3 351/1/3 352/1/3
f 353/1/4 354/1/4 355/1/4 356/1/4
f 357/1/3 358/1/3 359/1/3 360/1/3
f 361/1/4 362/1/4 363/1/4 364/1/4
f 365/3/3 366/3/3 367/3/3 368/3/3
f 369/3/4 370/3/4 371/3/4 372/3/4
f 373/4/3 374/4/3 375/4/3 376/4/3
f 377/4/4 378/4/4 379/4/4 380/4/4
f 381/4/3 382/4/3 383/4/3 384/4/3
f 385/4/4 386/4/4 387/4/4 388/4/4
f 389/3/3 390/3/3 391/3/3 392/3/3
f 393/3/4 394/3/4 395/3/4 396/3/4
f 397/2/3 398/2/3 399/2/3 400/2/3
f 401/2/4 402/2/4 403/2/4 404/2/4
f 405/1/3 406/1/3 407/1/3 408/1/3
f 409/1/4 410/1/4 411/1/4 412/1/4
f 413/1/6 414/1/6 415/1/6 416/1/6
f 417/2/1 418/2/1 419/2/1 420/2/1
f 421/2/3 422/2/3 423/2/3 424/2/3
f 425/2/4 426/2/4 427/2/4 428/2/4
f 429/2/5 430/2/5 431/2/5 432/2/5
f 433/1/3 434/1/3 435/1/3 436/1/3
f 437/1/4 438/1/4 439/1/4 440/1/4
f 441/1/3 442/1/3 443/1/3 444/1/3
f 445/1/4 446/1/4 447/1/4 448/1/4
f 449/1/3 450/1/3 451/1/3 452/1/3
f 453/1/4 454/1/4 455/1/4 456/1/4
f 457/2/3 458/2/3 459/2/3 460/2/3
f 461/2/4 462/2/4 463/2/4 464/2/4
f 465/3/3 466/3/3 467/3/3 468/3/3
f 469/3/4 470/3/4 471/3/4 472/3/4
f 473/3/3 474/3/3 475/3/3 476/3/3
f 477/3/4 478/3/4 479/3/4 480/3/4
f 481/2/3 482/2/3 483/2/3 484/2/3
f 485/2/4 486/2/4 487/2/4 488/2/4
f 489/1/3 490/1/3 491/1/3 492/1/3
f 493/1/4 494/1/4 495/1/4 496/1/4
f 497/1/3 498/1/3 499/1/3 500/1/3
f 501/1/4 502/1/4 503/1/4 504/1/4
f 505/1/3 506/1/3 507/1/3 508/1/3
f 509/1/4 510/1/4 511/1/4 512/1/4
f 513/1/6 514/1/6 515/1/6 516/1/6
f 517/2/3 518/2/3 519/2/3 520/2/3
f 521/2/4 522/2/4 523/2/4 524/2/4
f 525/2/5 526/2/5 527/2/5 528/2/5
f 529/2/3 530/2/3 531/2/3 532/2/3
f 533/2/4 534/2/4 535/2/4 536/2/4
f 537/3/3 538/3/3 539/3/3 540/3/3
f 541/3/4 542/3/4 543/3/4 544/3/4
f 545/3/3 546/3/3 547/3/3 548/3/3
f 549/3/4 550/3/4 551/3/4 552/3/4
f 553/2/3 554/2/3 555/2/3 556/2/3
f 557/2/4 558/2/4 559/2/4 560/2/4
f 561/1/3 562/1/3 563/1/3 564/1/3
f 565/1/4 566/1/4 567/1/4 568/1/4
f 569/1/3 570/1/3 571/1/3 572/1/3
f 573/1/4 574/1/4 575/1/4 576/1/4
f 577/1/3 578/1/3 579/1/3 580/1/3
f 581/1/4 582/1/4 583/1/4 584/1/4
f 585/1/3 586/1/3 587/1/3 588/1/3
f 589/1/4 590/1/4 591/1/4 592/1/4
f 593/1/3 594/1/3 595/1/3 596/1/3
f 597/1/4 598/1/4 599/1/4 600/1/4
f 601/1/3 602/1/3 603/1/3 604/1/3
f 605/1/4 606/1/4 607/1/4 608/1/4
f 609/1/6 610/1/6 611/1/6 612/1/6
f 613/3/3 614/3/3 615/3/3 616/3/3
f 617/3/4 618/3/4 619/3/4 620/3/4
f 621/3/5 622/3/5 623/3/5 624/3/5
f 625/4/3 626/4/3 627/4/3 628/4/3
f 629/4/4 630/4/4 631/4/4 632/4/4
f 633/4/3 634/4/3 635/4/3 636/4/3
f 637/4/4 638/4/4 639/4/4 640/4/4
f 641/3/3 642/3/3 643/3/3 644/3/3
f 645/3/4 646/3/4 647/3/4 648/3/4
f 649/1/3 650/1/3 651/1/3 652/1/3
f 653/1/4 654/1/4 655/1/4 656/1/4
f 657/1/3 658/1/3 659/1/3 660/1/3
f 661/1/4 662/1/4 663/1/4 664/1/4
f 665/1/3 666/1/3 667/1/3 668/1/3
f 669/1/4 670/1/4 671/1/4 672/1/4
f 673/1/3 674/1/3 675/1/3 676/1/3
f 677/1/4 678/1/4 679/1/4 680/1/4
f 681/1/3 682/1/3 683/1/3 684/1/3
f 685/1/4 686/1/4 687/1/4 688/1/4
f 689/1/3 690/1/3 691/1/3 692/1/3
f 693/1/4 694/1/4 695/1/4 696/1/4
f 697/1/3 698/1/3 699/1/3 700/1/3
f 701/1/4 702/1/4 703/1/4 704/1/4
f 705/1/6 706/1/6 707/1/6 708/1/6
f 709/4/3 710/4/3 711/4/3 712/4/3
f 713/4/4 714/4/4 715/4/4 716/4/4
f 717/4/5 718/4/5 719/4/5 720/4/5
f 721/4/3 722/4/3 723/4/3 724/4/3
f 725/4/4 726/4/4 727/4/4 728/4/4
f 729/4/3 730/4/3 731/4/3 732/4/3
f 733/4/4 734/4/4 735/4/4 736/4/4
f 737/2/3 738/2/3 739/2/3 740/2/3
f 741/2/4 742/2/4 743/2/4 744/2/4
f 745/1/3 746/1/3 747/1/3 748/1/3
f 749/1/4 750/1/4 751/1/4 752/1/4
f 753/1/3 754/1/3 755/1/3 756/1/3
f 757/1/4 758/1/4 759/1/4 760/1/4
f 761/1/3 762/1/3 763/1/3 764/1/3
f 765/1/4 766/1/4 767/1/4 768/1/4
f 769/1/3 770/1/3 771/1/3 772/1/3
f 773/1/4 774/1/4 775/1/4 776/1/4
f 777/1/3 778/1/3 779/1/3 780/1/3
f 781/1/4 782/1/4 783/1/4 784/1/4
f 785/1/3 786/1/3 787/1/3 788/1/3
f 789/1/4 790/1/4 791/1/4 792/1/4
f 793/1/3 794/1/3 795/1/3 796/1/3
f 797/1/4 798/1/4 799/1/4 800/1/4
f 801/1/6 802/1/6 803/1/6 804/1/6
f 805/4/3 806/4/3 807/4/3 808/4/3
f 809/4/4 810/4/4 811/4/4 812/4/4
f 813/4/5 814/4/5 815/4/5 816/4/5
f 817/4/3 818/4/3 819/4/3 820/4/3
f 821/4/4 822/4/4 823/4/4 824/4/4
f 825/3/3 826/3/3 827/3/3 828/3/3
f 829/3/4 830/3/4 831/3/4 832/3/4
f 833/1/3 834/1/3 835/1/3 836/1/3
f 837/1/4 838/1/4 839/1/4 840/1/4
f 841/1/3 842/1/3 843/1/3 844/1/3
f 845/1/4 846/1/4 847/1/4 848/1/4
f 849/1/3 850/1/3 851/1/3 852/1/3
f 853/1/4 854/1/4 855/1/4 856/1/4
f 857/1/3 858/1/3 859/1/3 860/1/3
f 861/1/4 862/1/4 863/1/4 864/1/4
f 865/1/3 866/1/3 867/1/3 868/1/3
f 869/1/4 870/1/4 871/1/4 872/1/4
f 873/1/3 874/1/3 875/1/3 876/1/3
f 877/1/4 878/1/4 879/1/4 880/1/4
f 881/1/3 882/1/3 883/1/3 884/1/3
f 885/1/4 886/1/4 887/1/4 888/1/4
f 889/1/3 890/1/3 891/1/3 892/1/3
f 893/1/4 894/1/4 895/1/4 896/1/4
f 897/1/6 898/1/6 899/1/6 900/1/6
f 901/4/2 902/4/2 903/4/2 904/4/2
f 905/4/3 906/4/3 907/4/3 908/4/3
f 909/4/4 910/4/4 911/4/4 912/4/4
f 913/4/5 914/4/5 915/4/5 916/4/5
f 917/3/2 918/3/2 919/3/2 920/3/2
f 921/3/3 922/3/3 923/3/3 924/3/3
f 925/3/4 926/3/4 927/3/4 928/3/4
f 929/1/2 930/1/2 931/1/2 932/1/2
f 933/1/3 934/1/3 935/1/3 936/1/3
f 937/1/4 938/1/4 939/1/4 940/1/4
f 941/1/2 942/1/2 943/1/2 944/1/2
f 945/1/3 946/1/3 947/1/3 948/1/3
f 949/1/4 950/1/4 951/1/4 952/1/4
f 953/1/2 954/1/2 955/1/2 956/1/2
f 957/1/3 958/1/3 959/1/3 960/1/3
f 961/1/4 962/1/4 963/1/4 964/1/4
f 965/1/2 966/1/2 967/1/2 968/1/2
f 969/1/3 970/1/3 971/1/3 972/1/3
f 973/1/4 974/1/4 975/1/4 976/1/4
f 977/1/2 978/1/2 979/1/2 980/1/2
f 981/1/3 982/1/3 983/1/3 984/1/3
f 985/1/4 986/1/4 987/1/4 988/1/4
f 989/1/2 990/1/2 991/1/2 992/1/2
f 993/1/3 994/1/3 995/1/3 996/1/3
f 997/1/4 998/1/4 999/1/4 1000/1/4
f 1001/1/2 1002/1/2 1003/1/2 1004/1/2
f 1005/1/3 1006/1/3 1007/1/3 1008/1/3
f 1009/1/4 1010/1/4 1011/1/4 1012/1/4
f 1013/1/2 1014/1/2 1015/1/2 1016/1/2
f 1017/1/3 1018/1/3 1019/1/3 1020/1/3
f 1021/1/4 1022/1/4 1023/1/4 1024/1/4
f 1025/1/2 1026/1/2 1027/1/2 1028/1/2
f 1029/1/3 1030/1/3 1031/1/3 1032/1/3
f 1033/1/4 1034/1/4 1035/1/4 1036/1/4
f 1037/1/6 1038/1/6 1039/1/6 1040/1/6

