# generated by vox_to_obj_exporter
# scale=0.1 center=true ground=true y_up=false

mtllib lava_25_7_f2.mtl
usemtl palette

# normals
vn -1 0 0
vn 1 0 0
vn 0 0 1
vn 0 0 -1
vn 0 -1 0
vn 0 1 0

# texcoords
vt 0.001953125 0.5
vt 0.044921875 0.5
vt 0.021484375 0.5
vt 0.068359375 0.5

# verts
v -0.6 -1.1 0.1
v -0.6 -1.1 0
v -0.6 -1.2 0
v -0.6 -1.2 0.1
v -0.6 -1.1 0.1
v -0.6 -1.2 0.1
v -0.5 -1.2 0.1
v -0.5 -1.1 0.1
v -0.6 -1.2 0
v -0.6 -1.1 0
v -0.5 -1.1 0
v -0.5 -1.2 0
v -0.6 -1.2 0.1
v -0.6 -1.2 0
v -0.5 -1.2 0
v -0.5 -1.2 0.1
v -0.6 -1 0.1
v -0.6 -1 0
v -0.6 -1.1 0
v -0.6 -1.1 0.1
v -0.6 -1 0.1
v -0.6 -1.1 0.1
v -0.5 -1.1 0.1
v -0.5 -1 0.1
v -0.6 -1.1 0
v -0.6 -1 0
v -0.5 -1 0
v -0.5 -1.1 0
v -0.6 -0.9 0.1
v -0.6 -0.9 0
v -0.6 -1 0
v -0.6 -1 0.1
v -0.6 -0.9 0.1
v -0.6 -1 0.1
v -0.5 -1 0.1
v -0.5 -0.9 0.1
v -0.6 -1 0
v -0.6 -0.9 0
v -0.5 -0.9 0
v -0.5 -1 0
v -0.6 -0.8 0.1
v -0.6 -0.8 0
v -0.6 -0.9 0
v -0.6 -0.9 0.1
v -0.6 -0.8 0.1
v -0.6 -0.9 0.1
v -0.5 -0.9 0.1
v -0.5 -0.8 0.1
v -0.6 -0.9 0
v -0.6 -0.8 0
v -0.5 -0.8 0
v -0.5 -0.9 0
v -0.6 -0.7 0.1
v -0.6 -0.7 0
v -0.6 -0.8 0
v -0.6 -0.8 0.1
v -0.6 -0.7 0.1
v -0.6 -0.8 0.1
v -0.5 -0.8 0.1
v -0.5 -0.7 0.1
v -0.6 -0.8 0
v -0.6 -0.7 0
v -0.5 -0.7 0
v -0.5 -0.8 0
v -0.6 -0.6 0.1
v -0.6 -0.6 0
v -0.6 -0.7 0
v -0.6 -0.7 0.1
v -0.6 -0.6 0.1
v -0.6 -0.7 0.1
v -0.5 -0.7 0.1
v -0.5 -0.6 0.1
v -0.6 -0.7 0
v -0.6 -0.6 0
v -0.5 -0.6 0
v -0.5 -0.7 0
v -0.6 -0.5 0.1
v -0.6 -0.5 0
v -0.6 -0.6 0
v -0.6 -0.6 0.1
v -0.6 -0.5 0.1
v -0.6 -0.6 0.1
v -0.5 -0.6 0.1
v -0.5 -0.5 0.1
v -0.6 -0.6 0
v -0.6 -0.5 0
v -0.5 -0.5 0
v -0.5 -0.6 0
v -0.6 -0.4 0.1
v -0.6 -0.4 0
v -0.6 -0.5 0
v -0.6 -0.5 0.1
v -0.6 -0.4 0.1
v -0.6 -0.5 0.1
v -0.5 -0.5 0.1
v -0.5 -0.4 0.1
v -0.6 -0.5 0
v -0.6 -0.4 0
v -0.5 -0.4 0
v -0.5 -0.5 0
v -0.6 -0.3 0.1
v -0.6 -0.3 0
v -0.6 -0.4 0
v -0.6 -0.4 0.1
v -0.6 -0.3 0.1
v -0.6 -0.4 0.1
v -0.5 -0.4 0.1
v -0.5 -0.3 0.1
v -0.6 -0.4 0
v -0.6 -0.3 0
v -0.5 -0.3 0
v -0.5 -0.4 0
v -0.6 -0.2 0.1
v -0.6 -0.2 0
v -0.6 -0.3 0
v -0.6 -0.3 0.1
v -0.6 -0.2 0.1
v -0.6 -0.3 0.1
v -0.5 -0.3 0.1
v -0.5 -0.2 0.1
v -0.6 -0.3 0
v -0.6 -0.2 0
v -0.5 -0.2 0
v -0.5 -0.3 0
v -0.6 -0.1 0.1
v -0.6 -0.1 0
v -0.6 -0.2 0
v -0.6 -0.2 0.1
v -0.6 -0.1 0.1
v -0.6 -0.2 0.1
v -0.5 -0.2 0.1
v -0.5 -0.1 0.1
v -0.6 -0.2 0
v -0.6 -0.1 0
v -0.5 -0.1 0
v -0.5 -0.2 0
v -0.6 0 0.1
v -0.6 0 0
v -0.6 -0.1 0
v -0.6 -0.1 0.1
v -0.6 0 0.1
v -0.6 -0.1 0.1
v -0.5 -0.1 0.1
v -0.5 0 0.1
v -0.6 -0.1 0
v -0.6 0 0
v -0.5 0 0
v -0.5 -0.1 0
v -0.6 0.1 0.1
v -0.6 0.1 0
v -0.6 0 0
v -0.6 0 0.1
v -0.6 0.1 0.1
v -0.6 0 0.1
v -0.5 0 0.1
v -0.5 0.1 0.1
v -0.6 0 0
v -0.6 0.1 0
v -0.5 0.1 0
v -0.5 0 0
v -0.6 0.2 0.1
v -0.6 0.2 0
v -0.6 0.1 0
v -0.6 0.1 0.1
v -0.6 0.2 0.1
v -0.6 0.1 0.1
v -0.5 0.1 0.1
v -0.5 0.2 0.1
v -0.6 0.1 0
v -0.6 0.2 0
v -0.5 0.2 0
v -0.5 0.1 0
v -0.6 0.3 0.1
v -0.6 0.3 0
v -0.6 0.2 0
v -0.6 0.2 0.1
v -0.6 0.3 0.1
v -0.6 0.2 0.1
v -0.5 0.2 0.1
v -0.5 0.3 0.1
v -0.6 0.2 0
v -0.6 0.3 0
v -0.5 0.3 0
v -0.5 0.2 0
v -0.6 0.4 0.1
v -0.6 0.4 0
v -0.6 0.3 0
v -0.6 0.3 0.1
v -0.6 0.4 0.1
v -0.6 0.3 0.1
v -0.5 0.3 0.1
v -0.5 0.4 0.1
v -0.6 0.3 0
v -0.6 0.4 0
v -0.5 0.4 0
v -0.5 0.3 0
v -0.6 0.5 0.1
v -0.6 0.5 0
v -0.6 0.4 0
v -0.6 0.4 0.1
v -0.6 0.5 0.1
v -0.6 0.4 0.1
v -0.5 0.4 0.1
v -0.5 0.5 0.1
v -0.6 0.4 0
v -0.6 0.5 0
v -0.5 0.5 0
v -0.5 0.4 0
v -0.6 0.6 0.1
v -0.6 0.6 0
v -0.6 0.5 0
v -0.6 0.5 0.1
v -0.6 0.6 0.1
v -0.6 0.5 0.1
v -0.5 0.5 0.1
v -0.5 0.6 0.1
v -0.6 0.5 0
v -0.6 0.6 0
v -0.5 0.6 0
v -0.5 0.5 0
v -0.6 0.7 0.1
v -0.6 0.7 0
v -0.6 0.6 0
v -0.6 0.6 0.1
v -0.6 0.7 0.1
v -0.6 0.6 0.1
v -0.5 0.6 0.1
v -0.5 0.7 0.1
v -0.6 0.6 0
v -0.6 0.7 0
v -0.5 0.7 0
v -0.5 0.6 0
v -0.6 0.8 0.1
v -0.6 0.8 0
v -0.6 0.7 0
v -0.6 0.7 0.1
v -0.6 0.8 0.1
v -0.6 0.7 0.1
v -0.5 0.7 0.1
v -0.5 0.8 0.1
v -0.6 0.7 0
v -0.6 0.8 0
v -0.5 0.8 0
v -0.5 0.7 0
v -0.6 0.9 0.1
v -0.6 0.9 0
v -0.6 0.8 0
v -0.6 0.8 0.1
v -0.6 0.9 0.1
v -0.6 0.8 0.1
v -0.5 0.8 0.1
v -0.5 0.9 0.1
v -0.6 0.8 0
v -0.6 0.9 0
v -0.5 0.9 0
v -0.5 0.8 0
v -0.6 1 0.1
v -0.6 1 0
v -0.6 0.9 0
v -0.6 0.9 0.1
v -0.6 1 0.1
v -0.6 0.9 0.1
v -0.5 0.9 0.1
v -0.5 1 0.1
v -0.6 0.9 0
v -0.6 1 0
v -0.5 1 0
v -0.5 0.9 0
v -0.6 1.1 0.1
v -0.6 1.1 0
v -0.6 1 0
v -0.6 1 0.1
v -0.6 1.1 0.1
v -0.6 1 0.1
v -0.5 1 0.1
v -0.5 1.1 0.1
v -0.6 1 0
v -0.6 1.1 0
v -0.5 1.1 0
v -0.5 1 0
v -0.6 1.2 0.1
v -0.6 1.2 0
v -0.6 1.1 0
v -0.6 1.1 0.1
v -0.6 1.2 0.1
v -0.6 1.1 0.1
v -0.5 1.1 0.1
v -0.5 1.2 0.1
v -0.6 1.1 0
v -0.6 1.2 0
v -0.5 1.2 0
v -0.5 1.1 0
v -0.5 1.2 0.1
v -0.5 1.2 0
v -0.6 1.2 0
v -0.6 1.2 0.1
v -0.5 -1.1 0.1
v -0.5 -1.2 0.1
v -0.4 -1.2 0.1
v -0.4 -1.1 0.1
v -0.5 -1.2 0
v -0.5 -1.1 0
v -0.4 -1.1 0
v -0.4 -1.2 0
v -0.5 -1.2 0.1
v -0.5 -1.2 0
v -0.4 -1.2 0
v -0.4 -1.2 0.1
v -0.5 -1 0.1
v -0.5 -1.1 0.1
v -0.4 -1.1 0.1
v -0.4 -1 0.1
v -0.5 -1.1 0
v -0.5 -1 0
v -0.4 -1 0
v -0.4 -1.1 0
v -0.5 -0.9 0.1
v -0.5 -1 0.1
v -0.4 -1 0.1
v -0.4 -0.9 0.1
v -0.5 -1 0
v -0.5 -0.9 0
v -0.4 -0.9 0
v -0.4 -1 0
v -0.5 -0.8 0.1
v -0.5 -0.9 0.1
v -0.4 -0.9 0.1
v -0.4 -0.8 0.1
v -0.5 -0.9 0
v -0.5 -0.8 0
v -0.4 -0.8 0
v -0.4 -0.9 0
v -0.5 -0.7 0.1
v -0.5 -0.8 0.1
v -0.4 -0.8 0.1
v -0.4 -0.7 0.1
v -0.5 -0.8 0
v -0.5 -0.7 0
v -0.4 -0.7 0
v -0.4 -0.8 0
v -0.5 -0.6 0.1
v -0.5 -0.7 0.1
v -0.4 -0.7 0.1
v -0.4 -0.6 0.1
v -0.5 -0.7 0
v -0.5 -0.6 0
v -0.4 -0.6 0
v -0.4 -0.7 0
v -0.5 -0.5 0.1
v -0.5 -0.6 0.1
v -0.4 -0.6 0.1
v -0.4 -0.5 0.1
v -0.5 -0.6 0
v -0.5 -0.5 0
v -0.4 -0.5 0
v -0.4 -0.6 0
v -0.5 -0.4 0.1
v -0.5 -0.5 0.1
v -0.4 -0.5 0.1
v -0.4 -0.4 0.1
v -0.5 -0.5 0
v -0.5 -0.4 0
v -0.4 -0.4 0
v -0.4 -0.5 0
v -0.5 -0.3 0.1
v -0.5 -0.4 0.1
v -0.4 -0.4 0.1
v -0.4 -0.3 0.1
v -0.5 -0.4 0
v -0.5 -0.3 0
v -0.4 -0.3 0
v -0.4 -0.4 0
v -0.5 -0.2 0.1
v -0.5 -0.3 0.1
v -0.4 -0.3 0.1
v -0.4 -0.2 0.1
v -0.5 -0.3 0
v -0.5 -0.2 0
v -0.4 -0.2 0
v -0.4 -0.3 0
v -0.5 -0.1 0.1
v -0.5 -0.2 0.1
v -0.4 -0.2 0.1
v -0.4 -0.1 0.1
v -0.5 -0.2 0
v -0.5 -0.1 0
v -0.4 -0.1 0
v -0.4 -0.2 0
v -0.5 0 0.1
v -0.5 -0.1 0.1
v -0.4 -0.1 0.1
v -0.4 0 0.1
v -0.5 -0.1 0
v -0.5 0 0
v -0.4 0 0
v -0.4 -0.1 0
v -0.5 0.1 0.1
v -0.5 0 0.1
v -0.4 0 0.1
v -0.4 0.1 0.1
v -0.5 0 0
v -0.5 0.1 0
v -0.4 0.1 0
v -0.4 0 0
v -0.5 0.2 0.1
v -0.5 0.1 0.1
v -0.4 0.1 0.1
v -0.4 0.2 0.1
v -0.5 0.1 0
v -0.5 0.2 0
v -0.4 0.2 0
v -0.4 0.1 0
v -0.5 0.3 0.1
v -0.5 0.2 0.1
v -0.4 0.2 0.1
v -0.4 0.3 0.1
v -0.5 0.2 0
v -0.5 0.3 0
v -0.4 0.3 0
v -0.4 0.2 0
v -0.5 0.4 0.1
v -0.5 0.3 0.1
v -0.4 0.3 0.1
v -0.4 0.4 0.1
v -0.5 0.3 0
v -0.5 0.4 0
v -0.4 0.4 0
v -0.4 0.3 0
v -0.5 0.5 0.1
v -0.5 0.4 0.1
v -0.4 0.4 0.1
v -0.4 0.5 0.1
v -0.5 0.4 0
v -0.5 0.5 0
v -0.4 0.5 0
v -0.4 0.4 0
v -0.5 0.6 0.1
v -0.5 0.5 0.1
v -0.4 0.5 0.1
v -0.4 0.6 0.1
v -0.5 0.5 0
v -0.5 0.6 0
v -0.4 0.6 0
v -0.4 0.5 0
v -0.5 0.7 0.1
v -0.5 0.6 0.1
v -0.4 0.6 0.1
v -0.4 0.7 0.1
v -0.5 0.6 0
v -0.5 0.7 0
v -0.4 0.7 0
v -0.4 0.6 0
v -0.5 0.8 0.1
v -0.5 0.7 0.1
v -0.4 0.7 0.1
v -0.4 0.8 0.1
v -0.5 0.7 0
v -0.5 0.8 0
v -0.4 0.8 0
v -0.4 0.7 0
v -0.5 0.9 0.1
v -0.5 0.8 0.1
v -0.4 0.8 0.1
v -0.4 0.9 0.1
v -0.5 0.8 0
v -0.5 0.9 0
v -0.4 0.9 0
v -0.4 0.8 0
v -0.5 1 0.1
v -0.5 0.9 0.1
v -0.4 0.9 0.1
v -0.4 1 0.1
v -0.5 0.9 0
v -0.5 1 0
v -0.4 1 0
v -0.4 0.9 0
v -0.5 1.1 0.1
v -0.5 1 0.1
v -0.4 1 0.1
v -0.4 1.1 0.1
v -0.5 1 0
v -0.5 1.1 0
v -0.4 1.1 0
v -0.4 1 0
v -0.5 1.2 0.1
v -0.5 1.1 0.1
v -0.4 1.1 0.1
v -0.4 1.2 0.1
v -0.5 1.1 0
v -0.5 1.2 0
v -0.4 1.2 0
v -0.4 1.1 0
v -0.4 1.2 0.1
v -0.4 1.2 0
v -0.5 1.2 0
v -0.5 1.2 0.1
v -0.4 -1.1 0.1
v -0.4 -1.2 0.1
v -0.3 -1.2 0.1
v -0.3 -1.1 0.1
v -0.4 -1.2 0
v -0.4 -1.1 0
v -0.3 -1.1 0
v -0.3 -1.2 0
v -0.4 -1.2 0.1
v -0.4 -1.2 0
v -0.3 -1.2 0
v -0.3 -1.2 0.1
v -0.4 -1 0.1
v -0.4 -1.1 0.1
v -0.3 -1.1 0.1
v -0.3 -1 0.1
v -0.4 -1.1 0
v -0.4 -1 0
v -0.3 -1 0
v -0.3 -1.1 0
v -0.4 -0.9 0.1
v -0.4 -1 0.1
v -0.3 -1 0.1
v -0.3 -0.9 0.1
v -0.4 -1 0
v -0.4 -0.9 0
v -0.3 -0.9 0
v -0.3 -1 0
v -0.4 -0.8 0.1
v -0.4 -0.9 0.1
v -0.3 -0.9 0.1
v -0.3 -0.8 0.1
v -0.4 -0.9 0
v -0.4 -0.8 0
v -0.3 -0.8 0
v -0.3 -0.9 0
v -0.4 -0.7 0.1
v -0.4 -0.8 0.1
v -0.3 -0.8 0.1
v -0.3 -0.7 0.1
v -0.4 -0.8 0
v -0.4 -0.7 0
v -0.3 -0.7 0
v -0.3 -0.8 0
v -0.4 -0.6 0.1
v -0.4 -0.7 0.1
v -0.3 -0.7 0.1
v -0.3 -0.6 0.1
v -0.4 -0.7 0
v -0.4 -0.6 0
v -0.3 -0.6 0
v -0.3 -0.7 0
v -0.4 -0.5 0.1
v -0.4 -0.6 0.1
v -0.3 -0.6 0.1
v -0.3 -0.5 0.1
v -0.4 -0.6 0
v -0.4 -0.5 0
v -0.3 -0.5 0
v -0.3 -0.6 0
v -0.4 -0.4 0.1
v -0.4 -0.5 0.1
v -0.3 -0.5 0.1
v -0.3 -0.4 0.1
v -0.4 -0.5 0
v -0.4 -0.4 0
v -0.3 -0.4 0
v -0.3 -0.5 0
v -0.4 -0.3 0.1
v -0.4 -0.4 0.1
v -0.3 -0.4 0.1
v -0.3 -0.3 0.1
v -0.4 -0.4 0
v -0.4 -0.3 0
v -0.3 -0.3 0
v -0.3 -0.4 0
v -0.4 -0.2 0.1
v -0.4 -0.3 0.1
v -0.3 -0.3 0.1
v -0.3 -0.2 0.1
v -0.4 -0.3 0
v -0.4 -0.2 0
v -0.3 -0.2 0
v -0.3 -0.3 0
v -0.4 -0.1 0.1
v -0.4 -0.2 0.1
v -0.3 -0.2 0.1
v -0.3 -0.1 0.1
v -0.4 -0.2 0
v -0.4 -0.1 0
v -0.3 -0.1 0
v -0.3 -0.2 0
v -0.4 0 0.1
v -0.4 -0.1 0.1
v -0.3 -0.1 0.1
v -0.3 0 0.1
v -0.4 -0.1 0
v -0.4 0 0
v -0.3 0 0
v -0.3 -0.1 0
v -0.4 0.1 0.1
v -0.4 0 0.1
v -0.3 0 0.1
v -0.3 0.1 0.1
v -0.4 0 0
v -0.4 0.1 0
v -0.3 0.1 0
v -0.3 0 0
v -0.4 0.2 0.1
v -0.4 0.1 0.1
v -0.3 0.1 0.1
v -0.3 0.2 0.1
v -0.4 0.1 0
v -0.4 0.2 0
v -0.3 0.2 0
v -0.3 0.1 0
v -0.4 0.3 0.1
v -0.4 0.2 0.1
v -0.3 0.2 0.1
v -0.3 0.3 0.1
v -0.4 0.2 0
v -0.4 0.3 0
v -0.3 0.3 0
v -0.3 0.2 0
v -0.4 0.4 0.1
v -0.4 0.3 0.1
v -0.3 0.3 0.1
v -0.3 0.4 0.1
v -0.4 0.3 0
v -0.4 0.4 0
v -0.3 0.4 0
v -0.3 0.3 0
v -0.4 0.5 0.1
v -0.4 0.4 0.1
v -0.3 0.4 0.1
v -0.3 0.5 0.1
v -0.4 0.4 0
v -0.4 0.5 0
v -0.3 0.5 0
v -0.3 0.4 0
v -0.4 0.6 0.1
v -0.4 0.5 0.1
v -0.3 0.5 0.1
v -0.3 0.6 0.1
v -0.4 0.5 0
v -0.4 0.6 0
v -0.3 0.6 0
v -0.3 0.5 0
v -0.4 0.7 0.1
v -0.4 0.6 0.1
v -0.3 0.6 0.1
v -0.3 0.7 0.1
v -0.4 0.6 0
v -0.4 0.7 0
v -0.3 0.7 0
v -0.3 0.6 0
v -0.4 0.8 0.1
v -0.4 0.7 0.1
v -0.3 0.7 0.1
v -0.3 0.8 0.1
v -0.4 0.7 0
v -0.4 0.8 0
v -0.3 0.8 0
v -0.3 0.7 0
v -0.4 0.9 0.1
v -0.4 0.8 0.1
v -0.3 0.8 0.1
v -0.3 0.9 0.1
v -0.4 0.8 0
v -0.4 0.9 0
v -0.3 0.9 0
v -0.3 0.8 0
v -0.4 1 0.1
v -0.4 0.9 0.1
v -0.3 0.9 0.1
v -0.3 1 0.1
v -0.4 0.9 0
v -0.4 1 0
v -0.3 1 0
v -0.3 0.9 0
v -0.4 1.1 0.1
v -0.4 1 0.1
v -0.3 1 0.1
v -0.3 1.1 0.1
v -0.4 1 0
v -0.4 1.1 0
v -0.3 1.1 0
v -0.3 1 0
v -0.4 1.2 0.1
v -0.4 1.1 0.1
v -0.3 1.1 0.1
v -0.3 1.2 0.1
v -0.4 1.1 0
v -0.4 1.2 0
v -0.3 1.2 0
v -0.3 1.1 0
v -0.3 1.2 0.1
v -0.3 1.2 0
v -0.4 1.2 0
v -0.4 1.2 0.1
v -0.3 -1.1 0.1
v -0.3 -1.2 0.1
v -0.2 -1.2 0.1
v -0.2 -1.1 0.1
v -0.3 -1.2 0
v -0.3 -1.1 0
v -0.2 -1.1 0
v -0.2 -1.2 0
v -0.3 -1.2 0.1
v -0.3 -1.2 0
v -0.2 -1.2 0
v -0.2 -1.2 0.1
v -0.3 -1 0.1
v -0.3 -1.1 0.1
v -0.2 -1.1 0.1
v -0.2 -1 0.1
v -0.3 -1.1 0
v -0.3 -1 0
v -0.2 -1 0
v -0.2 -1.1 0
v -0.3 -0.9 0.1
v -0.3 -1 0.1
v -0.2 -1 0.1
v -0.2 -0.9 0.1
v -0.3 -1 0
v -0.3 -0.9 0
v -0.2 -0.9 0
v -0.2 -1 0
v -0.3 -0.8 0.1
v -0.3 -0.9 0.1
v -0.2 -0.9 0.1
v -0.2 -0.8 0.1
v -0.3 -0.9 0
v -0.3 -0.8 0
v -0.2 -0.8 0
v -0.2 -0.9 0
v -0.3 -0.7 0.1
v -0.3 -0.8 0.1
v -0.2 -0.8 0.1
v -0.2 -0.7 0.1
v -0.3 -0.8 0
v -0.3 -0.7 0
v -0.2 -0.7 0
v -0.2 -0.8 0
v -0.3 -0.6 0.1
v -0.3 -0.7 0.1
v -0.2 -0.7 0.1
v -0.2 -0.6 0.1
v -0.3 -0.7 0
v -0.3 -0.6 0
v -0.2 -0.6 0
v -0.2 -0.7 0
v -0.3 -0.5 0.1
v -0.3 -0.6 0.1
v -0.2 -0.6 0.1
v -0.2 -0.5 0.1
v -0.3 -0.6 0
v -0.3 -0.5 0
v -0.2 -0.5 0
v -0.2 -0.6 0
v -0.3 -0.4 0.1
v -0.3 -0.5 0.1
v -0.2 -0.5 0.1
v -0.2 -0.4 0.1
v -0.3 -0.5 0
v -0.3 -0.4 0
v -0.2 -0.4 0
v -0.2 -0.5 0
v -0.3 -0.3 0.1
v -0.3 -0.4 0.1
v -0.2 -0.4 0.1
v -0.2 -0.3 0.1
v -0.3 -0.4 0
v -0.3 -0.3 0
v -0.2 -0.3 0
v -0.2 -0.4 0
v -0.3 -0.2 0.1
v -0.3 -0.3 0.1
v -0.2 -0.3 0.1
v -0.2 -0.2 0.1
v -0.3 -0.3 0
v -0.3 -0.2 0
v -0.2 -0.2 0
v -0.2 -0.3 0
v -0.3 -0.1 0.1
v -0.3 -0.2 0.1
v -0.2 -0.2 0.1
v -0.2 -0.1 0.1
v -0.3 -0.2 0
v -0.3 -0.1 0
v -0.2 -0.1 0
v -0.2 -0.2 0
v -0.3 0 0.1
v -0.3 -0.1 0.1
v -0.2 -0.1 0.1
v -0.2 0 0.1
v -0.3 -0.1 0
v -0.3 0 0
v -0.2 0 0
v -0.2 -0.1 0
v -0.3 0.1 0.1
v -0.3 0 0.1
v -0.2 0 0.1
v -0.2 0.1 0.1
v -0.3 0 0
v -0.3 0.1 0
v -0.2 0.1 0
v -0.2 0 0
v -0.3 0.2 0.1
v -0.3 0.1 0.1
v -0.2 0.1 0.1
v -0.2 0.2 0.1
v -0.3 0.1 0
v -0.3 0.2 0
v -0.2 0.2 0
v -0.2 0.1 0
v -0.3 0.3 0.1
v -0.3 0.2 0.1
v -0.2 0.2 0.1
v -0.2 0.3 0.1
v -0.3 0.2 0
v -0.3 0.3 0
v -0.2 0.3 0
v -0.2 0.2 0
v -0.3 0.4 0.1
v -0.3 0.3 0.1
v -0.2 0.3 0.1
v -0.2 0.4 0.1
v -0.3 0.3 0
v -0.3 0.4 0
v -0.2 0.4 0
v -0.2 0.3 0
v -0.3 0.5 0.1
v -0.3 0.4 0.1
v -0.2 0.4 0.1
v -0.2 0.5 0.1
v -0.3 0.4 0
v -0.3 0.5 0
v -0.2 0.5 0
v -0.2 0.4 0
v -0.3 0.6 0.1
v -0.3 0.5 0.1
v -0.2 0.5 0.1
v -0.2 0.6 0.1
v -0.3 0.5 0
v -0.3 0.6 0
v -0.2 0.6 0
v -0.2 0.5 0
v -0.3 0.7 0.1
v -0.3 0.6 0.1
v -0.2 0.6 0.1
v -0.2 0.7 0.1
v -0.3 0.6 0
v -0.3 0.7 0
v -0.2 0.7 0
v -0.2 0.6 0
v -0.3 0.8 0.1
v -0.3 0.7 0.1
v -0.2 0.7 0.1
v -0.2 0.8 0.1
v -0.3 0.7 0
v -0.3 0.8 0
v -0.2 0.8 0
v -0.2 0.7 0
v -0.3 0.9 0.1
v -0.3 0.8 0.1
v -0.2 0.8 0.1
v -0.2 0.9 0.1
v -0.3 0.8 0
v -0.3 0.9 0
v -0.2 0.9 0
v -0.2 0.8 0
v -0.3 1 0.1
v -0.3 0.9 0.1
v -0.2 0.9 0.1
v -0.2 1 0.1
v -0.3 0.9 0
v -0.3 1 0
v -0.2 1 0
v -0.2 0.9 0
v -0.3 1.1 0.1
v -0.3 1 0.1
v -0.2 1 0.1
v -0.2 1.1 0.1
v -0.3 1 0
v -0.3 1.1 0
v -0.2 1.1 0
v -0.2 1 0
v -0.3 1.2 0.1
v -0.3 1.1 0.1
v -0.2 1.1 0.1
v -0.2 1.2 0.1
v -0.3 1.1 0
v -0.3 1.2 0
v -0.2 1.2 0
v -0.2 1.1 0
v -0.2 1.2 0.1
v -0.2 1.2 0
v -0.3 1.2 0
v -0.3 1.2 0.1
v -0.2 -1.1 0.1
v -0.2 -1.2 0.1
v -0.1 -1.2 0.1
v -0.1 -1.1 0.1
v -0.2 -1.2 0
v -0.2 -1.1 0
v -0.1 -1.1 0
v -0.1 -1.2 0
v -0.2 -1.2 0.1
v -0.2 -1.2 0
v -0.1 -1.2 0
v -0.1 -1.2 0.1
v -0.2 -1 0.1
v -0.2 -1.1 0.1
v -0.1 -1.1 0.1
v -0.1 -1 0.1
v -0.2 -1.1 0
v -0.2 -1 0
v -0.1 -1 0
v -0.1 -1.1 0
v -0.2 -0.9 0.1
v -0.2 -1 0.1
v -0.1 -1 0.1
v -0.1 -0.9 0.1
v -0.2 -1 0
v -0.2 -0.9 0
v -0.1 -0.9 0
v -0.1 -1 0
v -0.2 -0.8 0.1
v -0.2 -0.9 0.1
v -0.1 -0.9 0.1
v -0.1 -0.8 0.1
v -0.2 -0.9 0
v -0.2 -0.8 0
v -0.1 -0.8 0
v -0.1 -0.9 0
v -0.2 -0.7 0.1
v -0.2 -0.8 0.1
v -0.1 -0.8 0.1
v -0.1 -0.7 0.1
v -0.2 -0.8 0
v -0.2 -0.7 0
v -0.1 -0.7 0
v -0.1 -0.8 0
v -0.2 -0.6 0.1
v -0.2 -0.7 0.1
v -0.1 -0.7 0.1
v -0.1 -0.6 0.1
v -0.2 -0.7 0
v -0.2 -0.6 0
v -0.1 -0.6 0
v -0.1 -0.7 0
v -0.2 -0.5 0.1
v -0.2 -0.6 0.1
v -0.1 -0.6 0.1
v -0.1 -0.5 0.1
v -0.2 -0.6 0
v -0.2 -0.5 0
v -0.1 -0.5 0
v -0.1 -0.6 0
v -0.2 -0.4 0.1
v -0.2 -0.5 0.1
v -0.1 -0.5 0.1
v -0.1 -0.4 0.1
v -0.2 -0.5 0
v -0.2 -0.4 0
v -0.1 -0.4 0
v -0.1 -0.5 0
v -0.2 -0.3 0.1
v -0.2 -0.4 0.1
v -0.1 -0.4 0.1
v -0.1 -0.3 0.1
v -0.2 -0.4 0
v -0.2 -0.3 0
v -0.1 -0.3 0
v -0.1 -0.4 0
v -0.2 -0.2 0.1
v -0.2 -0.3 0.1
v -0.1 -0.3 0.1
v -0.1 -0.2 0.1
v -0.2 -0.3 0
v -0.2 -0.2 0
v -0.1 -0.2 0
v -0.1 -0.3 0
v -0.2 -0.1 0.1
v -0.2 -0.2 0.1
v -0.1 -0.2 0.1
v -0.1 -0.1 0.1
v -0.2 -0.2 0
v -0.2 -0.1 0
v -0.1 -0.1 0
v -0.1 -0.2 0
v -0.2 0 0.1
v -0.2 -0.1 0.1
v -0.1 -0.1 0.1
v -0.1 0 0.1
v -0.2 -0.1 0
v -0.2 0 0
v -0.1 0 0
v -0.1 -0.1 0
v -0.2 0.1 0.1
v -0.2 0 0.1
v -0.1 0 0.1
v -0.1 0.1 0.1
v -0.2 0 0
v -0.2 0.1 0
v -0.1 0.1 0
v -0.1 0 0
v -0.2 0.2 0.1
v -0.2 0.1 0.1
v -0.1 0.1 0.1
v -0.1 0.2 0.1
v -0.2 0.1 0
v -0.2 0.2 0
v -0.1 0.2 0
v -0.1 0.1 0
v -0.2 0.3 0.1
v -0.2 0.2 0.1
v -0.1 0.2 0.1
v -0.1 0.3 0.1
v -0.2 0.2 0
v -0.2 0.3 0
v -0.1 0.3 0
v -0.1 0.2 0
v -0.2 0.4 0.1
v -0.2 0.3 0.1
v -0.1 0.3 0.1
v -0.1 0.4 0.1
v -0.2 0.3 0
v -0.2 0.4 0
v -0.1 0.4 0
v -0.1 0.3 0
v -0.2 0.5 0.1
v -0.2 0.4 0.1
v -0.1 0.4 0.1
v -0.1 0.5 0.1
v -0.2 0.4 0
v -0.2 0.5 0
v -0.1 0.5 0
v -0.1 0.4 0
v -0.2 0.6 0.1
v -0.2 0.5 0.1
v -0.1 0.5 0.1
v -0.1 0.6 0.1
v -0.2 0.5 0
v -0.2 0.6 0
v -0.1 0.6 0
v -0.1 0.5 0
v -0.2 0.7 0.1
v -0.2 0.6 0.1
v -0.1 0.6 0.1
v -0.1 0.7 0.1
v -0.2 0.6 0
v -0.2 0.7 0
v -0.1 0.7 0
v -0.1 0.6 0
v -0.2 0.8 0.1
v -0.2 0.7 0.1
v -0.1 0.7 0.1
v -0.1 0.8 0.1
v -0.2 0.7 0
v -0.2 0.8 0
v -0.1 0.8 0
v -0.1 0.7 0
v -0.2 0.9 0.1
v -0.2 0.8 0.1
v -0.1 0.8 0.1
v -0.1 0.9 0.1
v -0.2 0.8 0
v -0.2 0.9 0
v -0.1 0.9 0
v -0.1 0.8 0
v -0.2 1 0.1
v -0.2 0.9 0.1
v -0.1 0.9 0.1
v -0.1 1 0.1
v -0.2 0.9 0
v -0.2 1 0
v -0.1 1 0
v -0.1 0.9 0
v -0.2 1.1 0.1
v -0.2 1 0.1
v -0.1 1 0.1
v -0.1 1.1 0.1
v -0.2 1 0
v -0.2 1.1 0
v -0.1 1.1 0
v -0.1 1 0
v -0.2 1.2 0.1
v -0.2 1.1 0.1
v -0.1 1.1 0.1
v -0.1 1.2 0.1
v -0.2 1.1 0
v -0.2 1.2 0
v -0.1 1.2 0
v -0.1 1.1 0
v -0.1 1.2 0.1
v -0.1 1.2 0
v -0.2 1.2 0
v -0.2 1.2 0.1
v -0.1 -1.1 0.1
v -0.1 -1.2 0.1
v 0 -1.2 0.1
v 0 -1.1 0.1
v -0.1 -1.2 0
v -0.1 -1.1 0
v 0 -1.1 0
v 0 -1.2 0
v -0.1 -1.2 0.1
v -0.1 -1.2 0
v 0 -1.2 0
v 0 -1.2 0.1
v -0.1 -1 0.1
v -0.1 -1.1 0.1
v 0 -1.1 0.1
v 0 -1 0.1
v -0.1 -1.1 0
v -0.1 -1 0
v 0 -1 0
v 0 -1.1 0
v -0.1 -0.9 0.1
v -0.1 -1 0.1
v 0 -1 0.1
v 0 -0.9 0.1
v -0.1 -1 0
v -0.1 -0.9 0
v 0 -0.9 0
v 0 -1 0
v -0.1 -0.8 0.1
v -0.1 -0.9 0.1
v 0 -0.9 0.1
v 0 -0.8 0.1
v -0.1 -0.9 0
v -0.1 -0.8 0
v 0 -0.8 0
v 0 -0.9 0
v -0.1 -0.7 0.1
v -0.1 -0.8 0.1
v 0 -0.8 0.1
v 0 -0.7 0.1
v -0.1 -0.8 0
v -0.1 -0.7 0
v 0 -0.7 0
v 0 -0.8 0
v -0.1 -0.6 0.1
v -0.1 -0.7 0.1
v 0 -0.7 0.1
v 0 -0.6 0.1
v -0.1 -0.7 0
v -0.1 -0.6 0
v 0 -0.6 0
v 0 -0.7 0
v -0.1 -0.5 0.1
v -0.1 -0.6 0.1
v 0 -0.6 0.1
v 0 -0.5 0.1
v -0.1 -0.6 0
v -0.1 -0.5 0
v 0 -0.5 0
v 0 -0.6 0
v -0.1 -0.4 0.1
v -0.1 -0.5 0.1
v 0 -0.5 0.1
v 0 -0.4 0.1
v -0.1 -0.5 0
v -0.1 -0.4 0
v 0 -0.4 0
v 0 -0.5 0
v -0.1 -0.3 0.1
v -0.1 -0.4 0.1
v 0 -0.4 0.1
v 0 -0.3 0.1
v -0.1 -0.4 0
v -0.1 -0.3 0
v 0 -0.3 0
v 0 -0.4 0
v -0.1 -0.2 0.1
v -0.1 -0.3 0.1
v 0 -0.3 0.1
v 0 -0.2 0.1
v -0.1 -0.3 0
v -0.1 -0.2 0
v 0 -0.2 0
v 0 -0.3 0
v -0.1 -0.1 0.1
v -0.1 -0.2 0.1
v 0 -0.2 0.1
v 0 -0.1 0.1
v -0.1 -0.2 0
v -0.1 -0.1 0
v 0 -0.1 0
v 0 -0.2 0
v -0.1 0 0.1
v -0.1 -0.1 0.1
v 0 -0.1 0.1
v 0 0 0.1
v -0.1 -0.1 0
v -0.1 0 0
v 0 0 0
v 0 -0.1 0
v -0.1 0.1 0.1
v -0.1 0 0.1
v 0 0 0.1
v 0 0.1 0.1
v -0.1 0 0
v -0.1 0.1 0
v 0 0.1 0
v 0 0 0
v -0.1 0.2 0.1
v -0.1 0.1 0.1
v 0 0.1 0.1
v 0 0.2 0.1
v -0.1 0.1 0
v -0.1 0.2 0
v 0 0.2 0
v 0 0.1 0
v -0.1 0.3 0.1
v -0.1 0.2 0.1
v 0 0.2 0.1
v 0 0.3 0.1
v -0.1 0.2 0
v -0.1 0.3 0
v 0 0.3 0
v 0 0.2 0
v -0.1 0.4 0.1
v -0.1 0.3 0.1
v 0 0.3 0.1
v 0 0.4 0.1
v -0.1 0.3 0
v -0.1 0.4 0
v 0 0.4 0
v 0 0.3 0
v -0.1 0.5 0.1
v -0.1 0.4 0.1
v 0 0.4 0.1
v 0 0.5 0.1
v -0.1 0.4 0
v -0.1 0.5 0
v 0 0.5 0
v 0 0.4 0
v -0.1 0.6 0.1
v -0.1 0.5 0.1
v 0 0.5 0.1
v 0 0.6 0.1
v -0.1 0.5 0
v -0.1 0.6 0
v 0 0.6 0
v 0 0.5 0
v -0.1 0.7 0.1
v -0.1 0.6 0.1
v 0 0.6 0.1
v 0 0.7 0.1
v -0.1 0.6 0
v -0.1 0.7 0
v 0 0.7 0
v 0 0.6 0
v -0.1 0.8 0.1
v -0.1 0.7 0.1
v 0 0.7 0.1
v 0 0.8 0.1
v -0.1 0.7 0
v -0.1 0.8 0
v 0 0.8 0
v 0 0.7 0
v -0.1 0.9 0.1
v -0.1 0.8 0.1
v 0 0.8 0.1
v 0 0.9 0.1
v -0.1 0.8 0
v -0.1 0.9 0
v 0 0.9 0
v 0 0.8 0
v -0.1 1 0.1
v -0.1 0.9 0.1
v 0 0.9 0.1
v 0 1 0.1
v -0.1 0.9 0
v -0.1 1 0
v 0 1 0
v 0 0.9 0
v -0.1 1.1 0.1
v -0.1 1 0.1
v 0 1 0.1
v 0 1.1 0.1
v -0.1 1 0
v -0.1 1.1 0
v 0 1.1 0
v 0 1 0
v -0.1 1.2 0.1
v -0.1 1.1 0.1
v 0 1.1 0.1
v 0 1.2 0.1
v -0.1 1.1 0
v -0.1 1.2 0
v 0 1.2 0
v 0 1.1 0
v 0 1.2 0.1
v 0 1.2 0
v -0.1 1.2 0
v -0.1 1.2 0.1
v 0 -1.1 0.1
v 0 -1.2 0.1
v 0.1 -1.2 0.1
v 0.1 -1.1 0.1
v 0 -1.2 0
v 0 -1.1 0
v 0.1 -1.1 0
v 0.1 -1.2 0
v 0 -1.2 0.1
v 0 -1.2 0
v 0.1 -1.2 0
v 0.1 -1.2 0.1
v 0 -1 0.1
v 0 -1.1 0.1
v 0.1 -1.1 0.1
v 0.1 -1 0.1
v 0 -1.1 0
v 0 -1 0
v 0.1 -1 0
v 0.1 -1.1 0
v 0 -0.9 0.1
v 0 -1 0.1
v 0.1 -1 0.1
v 0.1 -0.9 0.1
v 0 -1 0
v 0 -0.9 0
v 0.1 -0.9 0
v 0.1 -1 0
v 0 -0.8 0.1
v 0 -0.9 0.1
v 0.1 -0.9 0.1
v 0.1 -0.8 0.1
v 0 -0.9 0
v 0 -0.8 0
v 0.1 -0.8 0
v 0.1 -0.9 0
v 0 -0.7 0.1
v 0 -0.8 0.1
v 0.1 -0.8 0.1
v 0.1 -0.7 0.1
v 0 -0.8 0
v 0 -0.7 0
v 0.1 -0.7 0
v 0.1 -0.8 0
v 0 -0.6 0.1
v 0 -0.7 0.1
v 0.1 -0.7 0.1
v 0.1 -0.6 0.1
v 0 -0.7 0
v 0 -0.6 0
v 0.1 -0.6 0
v 0.1 -0.7 0
v 0 -0.5 0.1
v 0 -0.6 0.1
v 0.1 -0.6 0.1
v 0.1 -0.5 0.1
v 0 -0.6 0
v 0 -0.5 0
v 0.1 -0.5 0
v 0.1 -0.6 0
v 0 -0.4 0.1
v 0 -0.5 0.1
v 0.1 -0.5 0.1
v 0.1 -0.4 0.1
v 0 -0.5 0
v 0 -0.4 0
v 0.1 -0.4 0
v 0.1 -0.5 0
v 0 -0.3 0.1
v 0 -0.4 0.1
v 0.1 -0.4 0.1
v 0.1 -0.3 0.1
v 0 -0.4 0
v 0 -0.3 0
v 0.1 -0.3 0
v 0.1 -0.4 0
v 0 -0.2 0.1
v 0 -0.3 0.1
v 0.1 -0.3 0.1
v 0.1 -0.2 0.1
v 0 -0.3 0
v 0 -0.2 0
v 0.1 -0.2 0
v 0.1 -0.3 0
v 0 -0.1 0.1
v 0 -0.2 0.1
v 0.1 -0.2 0.1
v 0.1 -0.1 0.1
v 0 -0.2 0
v 0 -0.1 0
v 0.1 -0.1 0
v 0.1 -0.2 0
v 0 0 0.1
v 0 -0.1 0.1
v 0.1 -0.1 0.1
v 0.1 0 0.1
v 0 -0.1 0
v 0 0 0
v 0.1 0 0
v 0.1 -0.1 0
v 0 0.1 0.1
v 0 0 0.1
v 0.1 0 0.1
v 0.1 0.1 0.1
v 0 0 0
v 0 0.1 0
v 0.1 0.1 0
v 0.1 0 0
v 0 0.2 0.1
v 0 0.1 0.1
v 0.1 0.1 0.1
v 0.1 0.2 0.1
v 0 0.1 0
v 0 0.2 0
v 0.1 0.2 0
v 0.1 0.1 0
v 0 0.3 0.1
v 0 0.2 0.1
v 0.1 0.2 0.1
v 0.1 0.3 0.1
v 0 0.2 0
v 0 0.3 0
v 0.1 0.3 0
v 0.1 0.2 0
v 0 0.4 0.1
v 0 0.3 0.1
v 0.1 0.3 0.1
v 0.1 0.4 0.1
v 0 0.3 0
v 0 0.4 0
v 0.1 0.4 0
v 0.1 0.3 0
v 0 0.5 0.1
v 0 0.4 0.1
v 0.1 0.4 0.1
v 0.1 0.5 0.1
v 0 0.4 0
v 0 0.5 0
v 0.1 0.5 0
v 0.1 0.4 0
v 0 0.6 0.1
v 0 0.5 0.1
v 0.1 0.5 0.1
v 0.1 0.6 0.1
v 0 0.5 0
v 0 0.6 0
v 0.1 0.6 0
v 0.1 0.5 0
v 0 0.7 0.1
v 0 0.6 0.1
v 0.1 0.6 0.1
v 0.1 0.7 0.1
v 0 0.6 0
v 0 0.7 0
v 0.1 0.7 0
v 0.1 0.6 0
v 0 0.8 0.1
v 0 0.7 0.1
v 0.1 0.7 0.1
v 0.1 0.8 0.1
v 0 0.7 0
v 0 0.8 0
v 0.1 0.8 0
v 0.1 0.7 0
v 0 0.9 0.1
v 0 0.8 0.1
v 0.1 0.8 0.1
v 0.1 0.9 0.1
v 0 0.8 0
v 0 0.9 0
v 0.1 0.9 0
v 0.1 0.8 0
v 0 1 0.1
v 0 0.9 0.1
v 0.1 0.9 0.1
v 0.1 1 0.1
v 0 0.9 0
v 0 1 0
v 0.1 1 0
v 0.1 0.9 0
v 0 1.1 0.1
v 0 1 0.1
v 0.1 1 0.1
v 0.1 1.1 0.1
v 0 1 0
v 0 1.1 0
v 0.1 1.1 0
v 0.1 1 0
v 0 1.2 0.1
v 0 1.1 0.1
v 0.1 1.1 0.1
v 0.1 1.2 0.1
v 0 1.1 0
v 0 1.2 0
v 0.1 1.2 0
v 0.1 1.1 0
v 0.1 1.2 0.1
v 0.1 1.2 0
v 0 1.2 0
v 0 1.2 0.1
v 0.1 -1.1 0.1
v 0.1 -1.2 0.1
v 0.2 -1.2 0.1
v 0.2 -1.1 0.1
v 0.1 -1.2 0
v 0.1 -1.1 0
v 0.2 -1.1 0
v 0.2 -1.2 0
v 0.1 -1.2 0.1
v 0.1 -1.2 0
v 0.2 -1.2 0
v 0.2 -1.2 0.1
v 0.1 -1 0.1
v 0.1 -1.1 0.1
v 0.2 -1.1 0.1
v 0.2 -1 0.1
v 0.1 -1.1 0
v 0.1 -1 0
v 0.2 -1 0
v 0.2 -1.1 0
v 0.1 -0.9 0.1
v 0.1 -1 0.1
v 0.2 -1 0.1
v 0.2 -0.9 0.1
v 0.1 -1 0
v 0.1 -0.9 0
v 0.2 -0.9 0
v 0.2 -1 0
v 0.1 -0.8 0.1
v 0.1 -0.9 0.1
v 0.2 -0.9 0.1
v 0.2 -0.8 0.1
v 0.1 -0.9 0
v 0.1 -0.8 0
v 0.2 -0.8 0
v 0.2 -0.9 0
v 0.1 -0.7 0.1
v 0.1 -0.8 0.1
v 0.2 -0.8 0.1
v 0.2 -0.7 0.1
v 0.1 -0.8 0
v 0.1 -0.7 0
v 0.2 -0.7 0
v 0.2 -0.8 0
v 0.1 -0.6 0.1
v 0.1 -0.7 0.1
v 0.2 -0.7 0.1
v 0.2 -0.6 0.1
v 0.1 -0.7 0
v 0.1 -0.6 0
v 0.2 -0.6 0
v 0.2 -0.7 0
v 0.1 -0.5 0.1
v 0.1 -0.6 0.1
v 0.2 -0.6 0.1
v 0.2 -0.5 0.1
v 0.1 -0.6 0
v 0.1 -0.5 0
v 0.2 -0.5 0
v 0.2 -0.6 0
v 0.1 -0.4 0.1
v 0.1 -0.5 0.1
v 0.2 -0.5 0.1
v 0.2 -0.4 0.1
v 0.1 -0.5 0
v 0.1 -0.4 0
v 0.2 -0.4 0
v 0.2 -0.5 0
v 0.1 -0.3 0.1
v 0.1 -0.4 0.1
v 0.2 -0.4 0.1
v 0.2 -0.3 0.1
v 0.1 -0.4 0
v 0.1 -0.3 0
v 0.2 -0.3 0
v 0.2 -0.4 0
v 0.1 -0.2 0.1
v 0.1 -0.3 0.1
v 0.2 -0.3 0.1
v 0.2 -0.2 0.1
v 0.1 -0.3 0
v 0.1 -0.2 0
v 0.2 -0.2 0
v 0.2 -0.3 0
v 0.1 -0.1 0.1
v 0.1 -0.2 0.1
v 0.2 -0.2 0.1
v 0.2 -0.1 0.1
v 0.1 -0.2 0
v 0.1 -0.1 0
v 0.2 -0.1 0
v 0.2 -0.2 0
v 0.1 0 0.1
v 0.1 -0.1 0.1
v 0.2 -0.1 0.1
v 0.2 0 0.1
v 0.1 -0.1 0
v 0.1 0 0
v 0.2 0 0
v 0.2 -0.1 0
v 0.1 0.1 0.1
v 0.1 0 0.1
v 0.2 0 0.1
v 0.2 0.1 0.1
v 0.1 0 0
v 0.1 0.1 0
v 0.2 0.1 0
v 0.2 0 0
v 0.1 0.2 0.1
v 0.1 0.1 0.1
v 0.2 0.1 0.1
v 0.2 0.2 0.1
v 0.1 0.1 0
v 0.1 0.2 0
v 0.2 0.2 0
v 0.2 0.1 0
v 0.1 0.3 0.1
v 0.1 0.2 0.1
v 0.2 0.2 0.1
v 0.2 0.3 0.1
v 0.1 0.2 0
v 0.1 0.3 0
v 0.2 0.3 0
v 0.2 0.2 0
v 0.1 0.4 0.1
v 0.1 0.3 0.1
v 0.2 0.3 0.1
v 0.2 0.4 0.1
v 0.1 0.3 0
v 0.1 0.4 0
v 0.2 0.4 0
v 0.2 0.3 0
v 0.1 0.5 0.1
v 0.1 0.4 0.1
v 0.2 0.4 0.1
v 0.2 0.5 0.1
v 0.1 0.4 0
v 0.1 0.5 0
v 0.2 0.5 0
v 0.2 0.4 0
v 0.1 0.6 0.1
v 0.1 0.5 0.1
v 0.2 0.5 0.1
v 0.2 0.6 0.1
v 0.1 0.5 0
v 0.1 0.6 0
v 0.2 0.6 0
v 0.2 0.5 0
v 0.1 0.7 0.1
v 0.1 0.6 0.1
v 0.2 0.6 0.1
v 0.2 0.7 0.1
v 0.1 0.6 0
v 0.1 0.7 0
v 0.2 0.7 0
v 0.2 0.6 0
v 0.1 0.8 0.1
v 0.1 0.7 0.1
v 0.2 0.7 0.1
v 0.2 0.8 0.1
v 0.1 0.7 0
v 0.1 0.8 0
v 0.2 0.8 0
v 0.2 0.7 0
v 0.1 0.9 0.1
v 0.1 0.8 0.1
v 0.2 0.8 0.1
v 0.2 0.9 0.1
v 0.1 0.8 0
v 0.1 0.9 0
v 0.2 0.9 0
v 0.2 0.8 0
v 0.1 1 0.1
v 0.1 0.9 0.1
v 0.2 0.9 0.1
v 0.2 1 0.1
v 0.1 0.9 0
v 0.1 1 0
v 0.2 1 0
v 0.2 0.9 0
v 0.1 1.1 0.1
v 0.1 1 0.1
v 0.2 1 0.1
v 0.2 1.1 0.1
v 0.1 1 0
v 0.1 1.1 0
v 0.2 1.1 0
v 0.2 1 0
v 0.1 1.2 0.1
v 0.1 1.1 0.1
v 0.2 1.1 0.1
v 0.2 1.2 0.1
v 0.1 1.1 0
v 0.1 1.2 0
v 0.2 1.2 0
v 0.2 1.1 0
v 0.2 1.2 0.1
v 0.2 1.2 0
v 0.1 1.2 0
v 0.1 1.2 0.1
v 0.2 -1.1 0.1
v 0.2 -1.2 0.1
v 0.3 -1.2 0.1
v 0.3 -1.1 0.1
v 0.2 -1.2 0
v 0.2 -1.1 0
v 0.3 -1.1 0
v 0.3 -1.2 0
v 0.2 -1.2 0.1
v 0.2 -1.2 0
v 0.3 -1.2 0
v 0.3 -1.2 0.1
v 0.2 -1 0.1
v 0.2 -1.1 0.1
v 0.3 -1.1 0.1
v 0.3 -1 0.1
v 0.2 -1.1 0
v 0.2 -1 0
v 0.3 -1 0
v 0.3 -1.1 0
v 0.2 -0.9 0.1
v 0.2 -1 0.1
v 0.3 -1 0.1
v 0.3 -0.9 0.1
v 0.2 -1 0
v 0.2 -0.9 0
v 0.3 -0.9 0
v 0.3 -1 0
v 0.2 -0.8 0.1
v 0.2 -0.9 0.1
v 0.3 -0.9 0.1
v 0.3 -0.8 0.1
v 0.2 -0.9 0
v 0.2 -0.8 0
v 0.3 -0.8 0
v 0.3 -0.9 0
v 0.2 -0.7 0.1
v 0.2 -0.8 0.1
v 0.3 -0.8 0.1
v 0.3 -0.7 0.1
v 0.2 -0.8 0
v 0.2 -0.7 0
v 0.3 -0.7 0
v 0.3 -0.8 0
v 0.2 -0.6 0.1
v 0.2 -0.7 0.1
v 0.3 -0.7 0.1
v 0.3 -0.6 0.1
v 0.2 -0.7 0
v 0.2 -0.6 0
v 0.3 -0.6 0
v 0.3 -0.7 0
v 0.2 -0.5 0.1
v 0.2 -0.6 0.1
v 0.3 -0.6 0.1
v 0.3 -0.5 0.1
v 0.2 -0.6 0
v 0.2 -0.5 0
v 0.3 -0.5 0
v 0.3 -0.6 0
v 0.2 -0.4 0.1
v 0.2 -0.5 0.1
v 0.3 -0.5 0.1
v 0.3 -0.4 0.1
v 0.2 -0.5 0
v 0.2 -0.4 0
v 0.3 -0.4 0
v 0.3 -0.5 0
v 0.2 -0.3 0.1
v 0.2 -0.4 0.1
v 0.3 -0.4 0.1
v 0.3 -0.3 0.1
v 0.2 -0.4 0
v 0.2 -0.3 0
v 0.3 -0.3 0
v 0.3 -0.4 0
v 0.2 -0.2 0.1
v 0.2 -0.3 0.1
v 0.3 -0.3 0.1
v 0.3 -0.2 0.1
v 0.2 -0.3 0
v 0.2 -0.2 0
v 0.3 -0.2 0
v 0.3 -0.3 0
v 0.2 -0.1 0.1
v 0.2 -0.2 0.1
v 0.3 -0.2 0.1
v 0.3 -0.1 0.1
v 0.2 -0.2 0
v 0.2 -0.1 0
v 0.3 -0.1 0
v 0.3 -0.2 0
v 0.2 0 0.1
v 0.2 -0.1 0.1
v 0.3 -0.1 0.1
v 0.3 0 0.1
v 0.2 -0.1 0
v 0.2 0 0
v 0.3 0 0
v 0.3 -0.1 0
v 0.2 0.1 0.1
v 0.2 0 0.1
v 0.3 0 0.1
v 0.3 0.1 0.1
v 0.2 0 0
v 0.2 0.1 0
v 0.3 0.1 0
v 0.3 0 0
v 0.2 0.2 0.1
v 0.2 0.1 0.1
v 0.3 0.1 0.1
v 0.3 0.2 0.1
v 0.2 0.1 0
v 0.2 0.2 0
v 0.3 0.2 0
v 0.3 0.1 0
v 0.2 0.3 0.1
v 0.2 0.2 0.1
v 0.3 0.2 0.1
v 0.3 0.3 0.1
v 0.2 0.2 0
v 0.2 0.3 0
v 0.3 0.3 0
v 0.3 0.2 0
v 0.2 0.4 0.1
v 0.2 0.3 0.1
v 0.3 0.3 0.1
v 0.3 0.4 0.1
v 0.2 0.3 0
v 0.2 0.4 0
v 0.3 0.4 0
v 0.3 0.3 0
v 0.2 0.5 0.1
v 0.2 0.4 0.1
v 0.3 0.4 0.1
v 0.3 0.5 0.1
v 0.2 0.4 0
v 0.2 0.5 0
v 0.3 0.5 0
v 0.3 0.4 0
v 0.2 0.6 0.1
v 0.2 0.5 0.1
v 0.3 0.5 0.1
v 0.3 0.6 0.1
v 0.2 0.5 0
v 0.2 0.6 0
v 0.3 0.6 0
v 0.3 0.5 0
v 0.2 0.7 0.1
v 0.2 0.6 0.1
v 0.3 0.6 0.1
v 0.3 0.7 0.1
v 0.2 0.6 0
v 0.2 0.7 0
v 0.3 0.7 0
v 0.3 0.6 0
v 0.2 0.8 0.1
v 0.2 0.7 0.1
v 0.3 0.7 0.1
v 0.3 0.8 0.1
v 0.2 0.7 0
v 0.2 0.8 0
v 0.3 0.8 0
v 0.3 0.7 0
v 0.2 0.9 0.1
v 0.2 0.8 0.1
v 0.3 0.8 0.1
v 0.3 0.9 0.1
v 0.2 0.8 0
v 0.2 0.9 0
v 0.3 0.9 0
v 0.3 0.8 0
v 0.2 1 0.1
v 0.2 0.9 0.1
v 0.3 0.9 0.1
v 0.3 1 0.1
v 0.2 0.9 0
v 0.2 1 0
v 0.3 1 0
v 0.3 0.9 0
v 0.2 1.1 0.1
v 0.2 1 0.1
v 0.3 1 0.1
v 0.3 1.1 0.1
v 0.2 1 0
v 0.2 1.1 0
v 0.3 1.1 0
v 0.3 1 0
v 0.2 1.2 0.1
v 0.2 1.1 0.1
v 0.3 1.1 0.1
v 0.3 1.2 0.1
v 0.2 1.1 0
v 0.2 1.2 0
v 0.3 1.2 0
v 0.3 1.1 0
v 0.3 1.2 0.1
v 0.3 1.2 0
v 0.2 1.2 0
v 0.2 1.2 0.1
v 0.3 -1.1 0.1
v 0.3 -1.2 0.1
v 0.4 -1.2 0.1
v 0.4 -1.1 0.1
v 0.3 -1.2 0
v 0.3 -1.1 0
v 0.4 -1.1 0
v 0.4 -1.2 0
v 0.3 -1.2 0.1
v 0.3 -1.2 0
v 0.4 -1.2 0
v 0.4 -1.2 0.1
v 0.3 -1 0.1
v 0.3 -1.1 0.1
v 0.4 -1.1 0.1
v 0.4 -1 0.1
v 0.3 -1.1 0
v 0.3 -1 0
v 0.4 -1 0
v 0.4 -1.1 0
v 0.4 -1 0.1
v 0.4 -1 0
v 0.4 -0.9 0
v 0.4 -0.9 0.1
v 0.3 -0.9 0.1
v 0.3 -1 0.1
v 0.4 -1 0.1
v 0.4 -0.9 0.1
v 0.3 -1 0
v 0.3 -0.9 0
v 0.4 -0.9 0
v 0.4 -1 0
v 0.4 -0.9 0.1
v 0.4 -0.9 0
v 0.4 -0.8 0
v 0.4 -0.8 0.1
v 0.3 -0.8 0.1
v 0.3 -0.9 0.1
v 0.4 -0.9 0.1
v 0.4 -0.8 0.1
v 0.3 -0.9 0
v 0.3 -0.8 0
v 0.4 -0.8 0
v 0.4 -0.9 0
v 0.4 -0.8 0.1
v 0.4 -0.8 0
v 0.4 -0.7 0
v 0.4 -0.7 0.1
v 0.3 -0.7 0.1
v 0.3 -0.8 0.1
v 0.4 -0.8 0.1
v 0.4 -0.7 0.1
v 0.3 -0.8 0
v 0.3 -0.7 0
v 0.4 -0.7 0
v 0.4 -0.8 0
v 0.4 -0.7 0.1
v 0.4 -0.7 0
v 0.4 -0.6 0
v 0.4 -0.6 0.1
v 0.3 -0.6 0.1
v 0.3 -0.7 0.1
v 0.4 -0.7 0.1
v 0.4 -0.6 0.1
v 0.3 -0.7 0
v 0.3 -0.6 0
v 0.4 -0.6 0
v 0.4 -0.7 0
v 0.4 -0.6 0.1
v 0.4 -0.6 0
v 0.4 -0.5 0
v 0.4 -0.5 0.1
v 0.3 -0.5 0.1
v 0.3 -0.6 0.1
v 0.4 -0.6 0.1
v 0.4 -0.5 0.1
v 0.3 -0.6 0
v 0.3 -0.5 0
v 0.4 -0.5 0
v 0.4 -0.6 0
v 0.4 -0.5 0.1
v 0.4 -0.5 0
v 0.4 -0.4 0
v 0.4 -0.4 0.1
v 0.3 -0.4 0.1
v 0.3 -0.5 0.1
v 0.4 -0.5 0.1
v 0.4 -0.4 0.1
v 0.3 -0.5 0
v 0.3 -0.4 0
v 0.4 -0.4 0
v 0.4 -0.5 0
v 0.4 -0.4 0.1
v 0.4 -0.4 0
v 0.4 -0.3 0
v 0.4 -0.3 0.1
v 0.3 -0.3 0.1
v 0.3 -0.4 0.1
v 0.4 -0.4 0.1
v 0.4 -0.3 0.1
v 0.3 -0.4 0
v 0.3 -0.3 0
v 0.4 -0.3 0
v 0.4 -0.4 0
v 0.4 -0.3 0.1
v 0.4 -0.3 0
v 0.4 -0.2 0
v 0.4 -0.2 0.1
v 0.3 -0.2 0.1
v 0.3 -0.3 0.1
v 0.4 -0.3 0.1
v 0.4 -0.2 0.1
v 0.3 -0.3 0
v 0.3 -0.2 0
v 0.4 -0.2 0
v 0.4 -0.3 0
v 0.4 -0.2 0.1
v 0.4 -0.2 0
v 0.4 -0.1 0
v 0.4 -0.1 0.1
v 0.3 -0.1 0.1
v 0.3 -0.2 0.1
v 0.4 -0.2 0.1
v 0.4 -0.1 0.1
v 0.3 -0.2 0
v 0.3 -0.1 0
v 0.4 -0.1 0
v 0.4 -0.2 0
v 0.4 -0.1 0.1
v 0.4 -0.1 0
v 0.4 0 0
v 0.4 0 0.1
v 0.3 0 0.1
v 0.3 -0.1 0.1
v 0.4 -0.1 0.1
v 0.4 0 0.1
v 0.3 -0.1 0
v 0.3 0 0
v 0.4 0 0
v 0.4 -0.1 0
v 0.4 0 0.1
v 0.4 0 0
v 0.4 0.1 0
v 0.4 0.1 0.1
v 0.3 0.1 0.1
v 0.3 0 0.1
v 0.4 0 0.1
v 0.4 0.1 0.1
v 0.3 0 0
v 0.3 0.1 0
v 0.4 0.1 0
v 0.4 0 0
v 0.4 0.1 0.1
v 0.4 0.1 0
v 0.4 0.2 0
v 0.4 0.2 0.1
v 0.3 0.2 0.1
v 0.3 0.1 0.1
v 0.4 0.1 0.1
v 0.4 0.2 0.1
v 0.3 0.1 0
v 0.3 0.2 0
v 0.4 0.2 0
v 0.4 0.1 0
v 0.4 0.2 0.1
v 0.4 0.2 0
v 0.4 0.3 0
v 0.4 0.3 0.1
v 0.3 0.3 0.1
v 0.3 0.2 0.1
v 0.4 0.2 0.1
v 0.4 0.3 0.1
v 0.3 0.2 0
v 0.3 0.3 0
v 0.4 0.3 0
v 0.4 0.2 0
v 0.4 0.3 0.1
v 0.4 0.3 0
v 0.4 0.4 0
v 0.4 0.4 0.1
v 0.3 0.4 0.1
v 0.3 0.3 0.1
v 0.4 0.3 0.1
v 0.4 0.4 0.1
v 0.3 0.3 0
v 0.3 0.4 0
v 0.4 0.4 0
v 0.4 0.3 0
v 0.3 0.5 0.1
v 0.3 0.4 0.1
v 0.4 0.4 0.1
v 0.4 0.5 0.1
v 0.3 0.4 0
v 0.3 0.5 0
v 0.4 0.5 0
v 0.4 0.4 0
v 0.3 0.6 0.1
v 0.3 0.5 0.1
v 0.4 0.5 0.1
v 0.4 0.6 0.1
v 0.3 0.5 0
v 0.3 0.6 0
v 0.4 0.6 0
v 0.4 0.5 0
v 0.3 0.7 0.1
v 0.3 0.6 0.1
v 0.4 0.6 0.1
v 0.4 0.7 0.1
v 0.3 0.6 0
v 0.3 0.7 0
v 0.4 0.7 0
v 0.4 0.6 0
v 0.3 0.8 0.1
v 0.3 0.7 0.1
v 0.4 0.7 0.1
v 0.4 0.8 0.1
v 0.3 0.7 0
v 0.3 0.8 0
v 0.4 0.8 0
v 0.4 0.7 0
v 0.3 0.9 0.1
v 0.3 0.8 0.1
v 0.4 0.8 0.1
v 0.4 0.9 0.1
v 0.3 0.8 0
v 0.3 0.9 0
v 0.4 0.9 0
v 0.4 0.8 0
v 0.3 1 0.1
v 0.3 0.9 0.1
v 0.4 0.9 0.1
v 0.4 1 0.1
v 0.3 0.9 0
v 0.3 1 0
v 0.4 1 0
v 0.4 0.9 0
v 0.3 1.1 0.1
v 0.3 1 0.1
v 0.4 1 0.1
v 0.4 1.1 0.1
v 0.3 1 0
v 0.3 1.1 0
v 0.4 1.1 0
v 0.4 1 0
v 0.3 1.2 0.1
v 0.3 1.1 0.1
v 0.4 1.1 0.1
v 0.4 1.2 0.1
v 0.3 1.1 0
v 0.3 1.2 0
v 0.4 1.2 0
v 0.4 1.1 0
v 0.4 1.2 0.1
v 0.4 1.2 0
v 0.3 1.2 0
v 0.3 1.2 0.1
v 0.5 -1.2 0.1
v 0.5 -1.2 0
v 0.5 -1.1 0
v 0.5 -1.1 0.1
v 0.4 -1.1 0.1
v 0.4 -1.2 0.1
v 0.5 -1.2 0.1
v 0.5 -1.1 0.1
v 0.4 -1.2 0
v 0.4 -1.1 0
v 0.5 -1.1 0
v 0.5 -1.2 0
v 0.4 -1.2 0.1
v 0.4 -1.2 0
v 0.5 -1.2 0
v 0.5 -1.2 0.1
v 0.5 -1.1 0.1
v 0.5 -1.1 0
v 0.5 -1 0
v 0.5 -1 0.1
v 0.4 -1 0.1
v 0.4 -1.1 0.1
v 0.5 -1.1 0.1
v 0.5 -1 0.1
v 0.4 -1.1 0
v 0.4 -1 0
v 0.5 -1 0
v 0.5 -1.1 0
v 0.5 -1 0.1
v 0.5 -1 0
v 0.4 -1 0
v 0.4 -1 0.1
v 0.5 0.4 0.1
v 0.5 0.4 0
v 0.5 0.5 0
v 0.5 0.5 0.1
v 0.4 0.5 0.1
v 0.4 0.4 0.1
v 0.5 0.4 0.1
v 0.5 0.5 0.1
v 0.4 0.4 0
v 0.4 0.5 0
v 0.5 0.5 0
v 0.5 0.4 0
v 0.4 0.4 0.1
v 0.4 0.4 0
v 0.5 0.4 0
v 0.5 0.4 0.1
v 0.5 0.5 0.1
v 0.5 0.5 0
v 0.5 0.6 0
v 0.5 0.6 0.1
v 0.4 0.6 0.1
v 0.4 0.5 0.1
v 0.5 0.5 0.1
v 0.5 0.6 0.1
v 0.4 0.5 0
v 0.4 0.6 0
v 0.5 0.6 0
v 0.5 0.5 0
v 0.5 0.6 0.1
v 0.5 0.6 0
v 0.5 0.7 0
v 0.5 0.7 0.1
v 0.4 0.7 0.1
v 0.4 0.6 0.1
v 0.5 0.6 0.1
v 0.5 0.7 0.1
v 0.4 0.6 0
v 0.4 0.7 0
v 0.5 0.7 0
v 0.5 0.6 0
v 0.5 0.7 0.1
v 0.5 0.7 0
v 0.5 0.8 0
v 0.5 0.8 0.1
v 0.4 0.8 0.1
v 0.4 0.7 0.1
v 0.5 0.7 0.1
v 0.5 0.8 0.1
v 0.4 0.7 0
v 0.4 0.8 0
v 0.5 0.8 0
v 0.5 0.7 0
v 0.5 0.8 0.1
v 0.5 0.8 0
v 0.5 0.9 0
v 0.5 0.9 0.1
v 0.4 0.9 0.1
v 0.4 0.8 0.1
v 0.5 0.8 0.1
v 0.5 0.9 0.1
v 0.4 0.8 0
v 0.4 0.9 0
v 0.5 0.9 0
v 0.5 0.8 0
v 0.5 0.9 0.1
v 0.5 0.9 0
v 0.5 1 0
v 0.5 1 0.1
v 0.4 1 0.1
v 0.4 0.9 0.1
v 0.5 0.9 0.1
v 0.5 1 0.1
v 0.4 0.9 0
v 0.4 1 0
v 0.5 1 0
v 0.5 0.9 0
v 0.4 1.1 0.1
v 0.4 1 0.1
v 0.5 1 0.1
v 0.5 1.1 0.1
v 0.4 1 0
v 0.4 1.1 0
v 0.5 1.1 0
v 0.5 1 0
v 0.4 1.2 0.1
v 0.4 1.1 0.1
v 0.5 1.1 0.1
v 0.5 1.2 0.1
v 0.4 1.1 0
v 0.4 1.2 0
v 0.5 1.2 0
v 0.5 1.1 0
v 0.5 1.2 0.1
v 0.5 1.2 0
v 0.4 1.2 0
v 0.4 1.2 0.1
v 0.6 1 0.1
v 0.6 1 0
v 0.6 1.1 0
v 0.6 1.1 0.1
v 0.5 1.1 0.1
v 0.5 1 0.1
v 0.6 1 0.1
v 0.6 1.1 0.1
v 0.5 1 0
v 0.5 1.1 0
v 0.6 1.1 0
v 0.6 1 0
v 0.5 1 0.1
v 0.5 1 0
v 0.6 1 0
v 0.6 1 0.1
v 0.6 1.1 0.1
v 0.6 1.1 0
v 0.6 1.2 0
v 0.6 1.2 0.1
v 0.5 1.2 0.1
v 0.5 1.1 0.1
v 0.6 1.1 0.1
v 0.6 1.2 0.1
v 0.5 1.1 0
v 0.5 1.2 0
v 0.6 1.2 0
v 0.6 1.1 0
v 0.6 1.2 0.1
v 0.6 1.2 0
v 0.5 1.2 0
v 0.5 1.2 0.1

# faces
f 1/1/1 2/1/1 3/1/1 4/1/1
f 5/1/3 6/1/3 7/1/3 8/1/3
f 9/1/4 10/1/4 11/1/4 12/1/4
f 13/1/5 14/1/5 15/1/5 16/1/5
f 17/1/1 18/1/1 19/1/1 20/1/1
f 21/1/3 22/1/3 23/1/3 24/1/3
f 25/1/4 26/1/4 27/1/4 28/1/4
f 29/1/1 30/1/1 31/1/1 32/1/1
f 33/1/3 34/1/3 35/1/3 36/1/3
f 37/1/4 38/1/4 39/1/4 40/1/4
f 41/1/1 42/1/1 43/1/1 44/1/1
f 45/1/3 46/1/3 47/1/3 48/1/3
f 49/1/4 50/1/4 51/1/4 52/1/4
f 53/1/1 54/1/1 55/1/1 56/1/1
f 57/1/3 58/1/3 59/1/3 60/1/3
f 61/1/4 62/1/4 63/1/4 64/1/4
f 65/3/1 66/3/1 67/3/1 68/3/1
f 69/3/3 70/3/3 71/3/3 72/3/3
f 73/3/4 74/3/4 75/3/4 76/3/4
f 77/2/1 78/2/1 79/2/1 80/2/1
f 81/2/3 82/2/3 83/2/3 84/2/3
f 85/2/4 86/2/4 87/2/4 88/2/4
f 89/2/1 90/2/1 91/2/1 92/2/1
f 93/2/3 94/2/3 95/2/3 96/2/3
f 97/2/4 98/2/4 99/2/4 100/2/4
f 101/2/1 102/2/1 103/2/1 104/2/1
f 105/2/3 106/2/3 107/2/3 108/2/3
f 109/2/4 110/2/4 111/2/4 112/2/4
f 113/2/1 114/2/1 115/2/1 116/2/1
f 117/2/3 118/2/3 119/2/3 120/2/3
f 121/2/4 122/2/4 123/2/4 124/2/4
f 125/2/1 126/2/1 127/2/1 128/2/1
f 129/2/3 130/2/3 131/2/3 132/2/3
f 133/2/4 134/2/4 135/2/4 136/2/4
f 137/2/1 138/2/1 139/2/1 140/2/1
f 141/2/3 142/2/3 143/2/3 144/2/3
f 145/2/4 146/2/4 147/2/4 148/2/4
f 149/3/1 150/3/1 151/3/1 152/3/1
f 153/3/3 154/3/3 155/3/3 156/3/3
f 157/3/4 158/3/4 159/3/4 160/3/4
f 161/1/1 162/1/1 163/1/1 164/1/1
f 165/1/3 166/1/3 167/1/3 168/1/3
f 169/1/4 170/1/4 171/1/4 172/1/4
f 173/1/1 174/1/1 175/1/1 176/1/1
f 177/1/3 178/1/3 179/1/3 180/1/3
f 181/1/4 182/1/4 183/1/4 184/1/4
f 185/1/1 186/1/1 187/1/1 188/1/1
f 189/1/3 190/1/3 191/1/3 192/1/3
f 193/1/4 194/1/4 195/1/4 196/1/4
f 197/1/1 198/1/1 199/1/1 200/1/1
f 201/1/3 202/1/3 203/1/3 204/1/3
f 205/1/4 206/1/4 207/1/4 208/1/4
f 209/1/1 210/1/1 211/1/1 212/1/1
f 213/1/3 214/1/3 215/1/3 216/1/3
f 217/1/4 218/1/4 219/1/4 220/1/4
f 221/1/1 222/1/1 223/1/1 224/1/1
f 225/1/3 226/1/3 227/1/3 228/1/3
f 229/1/4 230/1/4 231/1/4 232/1/4
f 233/1/1 234/1/1 235/1/1 236/1/1
f 237/1/3 238/1/3 239/1/3 240/1/3
f 241/1/4 242/1/4 243/1/4 244/1/4
f 245/1/1 246/1/1 247/1/1 248/1/1
f 249/1/3 250/1/3 251/1/3 252/1/3
f 253/1/4 254/1/4 255/1/4 256/1/4
f 257/1/1 258/1/1 259/1/1 260/1/1
f 261/1/3 262/1/3 263/1/3 264/1/3
f 265/1/4 266/1/4 267/1/4 268/1/4
f 269/1/1 270/1/1 271/1/1 272/1/1
f 273/1/3 274/1/3 275/1/3 276/1/3
f 277/1/4 278/1/4 279/1/4 280/1/4
f 281/1/1 282/1/1 283/1/1 284/1/1
f 285/1/3 286/1/3 287/1/3 288/1/3
f 289/1/4 290/1/4 291/1/4 292/1/4
f 293/1/6 294/1/6 295/1/6 296/1/6
f 297/1/3 298/1/3 299/1/3 300/1/3
f 301/1/4 302/1/4 303/1/4 304/1/4
f 305/1/5 306/1/5 307/1/5 308/1/5
f 309/1/3 310/1/3 311/1/3 312/1/3
f 313/1/4 314/1/4 315/1/4 316/1/4
f 317/1/3 318/1/3 319/1/3 320/1/3
f 321/1/4 322/1/4 323/1/4 324/1/4
f 325/1/3 326/1/3 327/1/3 328/1/3
f 329/1/4 330/1/4 331/1/4 332/1/4
f 333/1/3 334/1/3 335/1/3 336/1/3
f 337/1/4 338/1/4 339/1/4 340/1/4
f 341/3/3 342/3/3 343/3/3 344/3/3
f 345/3/4 346/3/4 347/3/4 348/3/4
f 349/2/3 350/2/3 351/2/3 352/2/3
f 353/2/4 354/2/4 355/2/4 356/2/4
f 357/2/3 358/2/3 359/2/3 360/2/3
f 361/2/4 362/2/4 363/2/4 364/2/4
f 365/4/3 366/4/3 367/4/3 368/4/3
f 369/4/4 370/4/4 371/4/4 372/4/4
f 373/4/3 374/4/3 375/4/3 376/4/3
f 377/4/4 378/4/4 379/4/4 380/4/4
f 381/2/3 382/2/3 383/2/3 384/2/3
f 385/2/4 386/2/4 387/2/4 388/2/4
f 389/3/3 390/3/3 391/3/3 392/3/3
f 393/3/4 394/3/4 395/3/4 396/3/4
f 397/1/3 398/1/3 399/1/3 400/1/3
f 401/1/4 402/1/4 403/1/4 404/1/4
f 405/1/3 406/1/3 407/1/3 408/1/3
f 409/1/4 410/1/4 411/1/4 412/1/4
f 413/1/3 414/1/3 415/1/3 416/1/3
f 417/1/4 418/1/4 419/1/4 420/1/4
f 421/1/3 422/1/3 423/1/3 424/1/3
f 425/1/4 426/1/4 427/1/4 428/1/4
f 429/1/3 430/1/3 431/1/3 432/1/3
f 433/1/4 434/1/4 435/1/4 436/1/4
f 437/1/3 438/1/3 439/1/3 440/1/3
f 441/1/4 442/1/4 443/1/4 444/1/4
f 445/1/3 446/1/3 447/1/3 448/1/3
f 449/1/4 450/1/4 451/1/4 452/1/4
f 453/1/3 454/1/3 455/1/3 456/1/3
f 457/1/4 458/1/4 459/1/4 460/1/4
f 461/1/3 462/1/3 463/1/3 464/1/3
f 465/1/4 466/1/4 467/1/4 468/1/4
f 469/1/3 470/1/3 471/1/3 472/1/3
f 473/1/4 474/1/4 475/1/4 476/1/4
f 477/1/3 478/1/3 479/1/3 480/1/3
f 481/1/4 482/1/4 483/1/4 484/1/4
f 485/1/3 486/1/3 487/1/3 488/1/3
f 489/1/4 490/1/4 491/1/4 492/1/4
f 493/1/6 494/1/6 495/1/6 496/1/6
f 497/1/3 498/1/3 499/1/3 500/1/3
f 501/1/4 502/1/4 503/1/4 504/1/4
f 505/1/5 506/1/5 507/1/5 508/1/5
f 509/1/3 510/1/3 511/1/3 512/1/3
f 513/1/4 514/1/4 515/1/4 516/1/4
f 517/1/3 518/1/3 519/1/3 520/1/3
f 521/1/4 522/1/4 523/1/4 524/1/4
f 525/1/3 526/1/3 527/1/3 528/1/3
f 529/1/4 530/1/4 531/1/4 532/1/4
f 533/1/3 534/1/3 535/1/3 536/1/3
f 537/1/4 538/1/4 539/1/4 540/1/4
f 541/3/3 542/3/3 543/3/3 544/3/3
f 545/3/4 546/3/4 547/3/4 548/3/4
f 549/2/3 550/2/3 551/2/3 552/2/3
f 553/2/4 554/2/4 555/2/4 556/2/4
f 557/4/3 558/4/3 559/4/3 560/4/3
f 561/4/4 562/4/4 563/4/4 564/4/4
f 565/4/3 566/4/3 567/4/3 568/4/3
f 569/4/4 570/4/4 571/4/4 572/4/4
f 573/4/3 574/4/3 575/4/3 576/4/3
f 577/4/4 578/4/4 579/4/4 580/4/4
f 581/2/3 582/2/3 583/2/3 584/2/3
f 585/2/4 586/2/4 587/2/4 588/2/4
f 589/1/3 590/1/3 591/1/3 592/1/3
f 593/1/4 594/1/4 595/1/4 596/1/4
f 597/1/3 598/1/3 599/1/3 600/1/3
f 601/1/4 602/1/4 603/1/4 604/1/4
f 605/1/3 606/1/3 607/1/3 608/1/3
f 609/1/4 610/1/4 611/1/4 612/1/4
f 613/1/3 614/1/3 615/1/3 616/1/3
f 617/1/4 618/1/4 619/1/4 620/1/4
f 621/1/3 622/1/3 623/1/3 624/1/3
f 625/1/4 626/1/4 627/1/4 628/1/4
f 629/1/3 630/1/3 631/1/3 632/1/3
f 633/1/4 634/1/4 635/1/4 636/1/4
f 637/1/3 638/1/3 639/1/3 640/1/3
f 641/1/4 642/1/4 643/1/4 644/1/4
f 645/1/3 646/1/3 647/1/3 648/1/3
f 649/1/4 650/1/4 651/1/4 652/1/4
f 653/1/3 654/1/3 655/1/3 656/1/3
f 657/1/4 658/1/4 659/1/4 660/1/4
f 661/1/3 662/1/3 663/1/3 664/1/3
f 665/1/4 666/1/4 667/1/4 668/1/4
f 669/1/3 670/1/3 671/1/3 672/1/3
f 673/1/4 674/1/4 675/1/4 676/1/4
f 677/3/3 678/3/3 679/3/3 680/3/3
f 681/3/4 682/3/4 683/3/4 684/3/4
f 685/3/3 686/3/3 687/3/3 688/3/3
f 689/3/4 690/3/4 691/3/4 692/3/4
f 693/3/6 694/3/6 695/3/6 696/3/6
f 697/1/3 698/1/3 699/1/3 700/1/3
f 701/1/4 702/1/4 703/1/4 704/1/4
f 705/1/5 706/1/5 707/1/5 708/1/5
f 709/1/3 710/1/3 711/1/3 712/1/3
f 713/1/4 714/1/4 715/1/4 716/1/4
f 717/1/3 718/1/3 719/1/3 720/1/3
f 721/1/4 722/1/4 723/1/4 724/1/4
f 725/1/3 726/1/3 727/1/3 728/1/3
f 729/1/4 730/1/4 731/1/4 732/1/4
f 733/1/3 734/1/3 735/1/3 736/1/3
f 737/1/4 738/1/4 739/1/4 740/1/4
f 741/3/3 742/3/3 743/3/3 744/3/3
f 745/3/4 746/3/4 747/3/4 748/3/4
f 749/2/3 750/2/3 751/2/3 752/2/3
f 753/2/4 754/2/4 755/2/4 756/2/4
f 757/4/3 758/4/3 759/4/3 760/4/3
f 761/4/4 762/4/4 763/4/4 764/4/4
f 765/4/3 766/4/3 767/4/3 768/4/3
f 769/4/4 770/4/4 771/4/4 772/4/4
f 773/2/3 774/2/3 775/2/3 776/2/3
f 777/2/4 778/2/4 779/2/4 780/2/4
f 781/1/3 782/1/3 783/1/3 784/1/3
f 785/1/4 786/1/4 787/1/4 788/1/4
f 789/1/3 790/1/3 791/1/3 792/1/3
f 793/1/4 794/1/4 795/1/4 796/1/4
f 797/1/3 798/1/3 799/1/3 800/1/3
f 801/1/4 802/1/4 803/1/4 804/1/4
f 805/1/3 806/1/3 807/1/3 808/1/3
f 809/1/4 810/1/4 811/1/4 812/1/4
f 813/1/3 814/1/3 815/1/3 816/1/3
f 817/1/4 818/1/4 819/1/4 820/1/4
f 821/1/3 822/1/3 823/1/3 824/1/3
f 825/1/4 826/1/4 827/1/4 828/1/4
f 829/1/3 830/1/3 831/1/3 832/1/3
f 833/1/4 834/1/4 835/1/4 836/1/4
f 837/1/3 838/1/3 839/1/3 840/1/3
f 841/1/4 842/1/4 843/1/4 844/1/4
f 845/1/3 846/1/3 847/1/3 848/1/3
f 849/1/4 850/1/4 851/1/4 852/1/4
f 853/3/3 854/3/3 855/3/3 856/3/3
f 857/3/4 858/3/4 859/3/4 860/3/4
f 861/3/3 862/3/3 863/3/3 864/3/3
f 865/3/4 866/3/4 867/3/4 868/3/4
f 869/2/3 870/2/3 871/2/3 872/2/3
f 873/2/4 874/2/4 875/2/4 876/2/4
f 877/2/3 878/2/3 879/2/3 880/2/3
f 881/2/4 882/2/4 883/2/4 884/2/4
f 885/2/3 886/2/3 887/2/3 888/2/3
f 889/2/4 890/2/4 891/2/4 892/2/4
f 893/2/6 894/2/6 895/2/6 896/2/6
f 897/2/3 898/2/3 899/2/3 900/2/3
f 901/2/4 902/2/4 903/2/4 904/2/4
f 905/2/5 906/2/5 907/2/5 908/2/5
f 909/2/3 910/2/3 911/2/3 912/2/3
f 913/2/4 914/2/4 915/2/4 916/2/4
f 917/3/3 918/3/3 919/3/3 920/3/3
f 921/3/4 922/3/4 923/3/4 924/3/4
f 925/1/3 926/1/3 927/1/3 928/1/3
f 929/1/4 930/1/4 931/1/4 932/1/4
f 933/1/3 934/1/3 935/1/3 936/1/3
f 937/1/4 938/1/4 939/1/4 940/1/4
f 941/1/3 942/1/3 943/1/3 944/1/3
f 945/1/4 946/1/4 947/1/4 948/1/4
f 949/2/3 950/2/3 951/2/3 952/2/3
f 953/2/4 954/2/4 955/2/4 956/2/4
f 957/2/3 958/2/3 959/2/3 960/2/3
f 961/2/4 962/2/4 963/2/4 964/2/4
f 965/2/3 966/2/3 967/2/3 968/2/3
f 969/2/4 970/2/4 971/2/4 972/2/4
f 973/1/3 974/1/3 975/1/3 976/1/3
f 977/1/4 978/1/4 979/1/4 980/1/4
f 981/1/3 982/1/3 983/1/3 984/1/3
f 985/1/4 986/1/4 987/1/4 988/1/4
f 989/1/3 990/1/3 991/1/3 992/1/3
f 993/1/4 994/1/4 995/1/4 996/1/4
f 997/1/3 998/1/3 999/1/3 1000/1/3
f 1001/1/4 1002/1/4 1003/1/4 1004/1/4
f 1005/1/3 1006/1/3 1007/1/3 1008/1/3
f 1009/1/4 1010/1/4 1011/1/4 1012/1/4
f 1013/1/3 1014/1/3 1015/1/3 1016/1/3
f 1017/1/4 1018/1/4 1019/1/4 1020/1/4
f 1021/1/3 1022/1/3 1023/1/3 1024/1/3
f 1025/1/4 1026/1/4 1027/1/4 1028/1/4
f 1029/1/3 1030/1/3 1031/1/3 1032/1/3
f 1033/1/4 1034/1/4 1035/1/4 1036/1/4
f 1037/1/3 1038/1/3 1039/1/3 1040/1/3
f 1041/1/4 1042/1/4 1043/1/4 1044/1/4
f 1045/3/3 1046/3/3 1047/3/3 1048/3/3
f 1049/3/4 1050/3/4 1051/3/4 1052/3/4
f 1053/2/3 1054/2/3 1055/2/3 1056/2/3
f 1057/2/4 1058/2/4 1059/2/4 1060/2/4
f 1061/4/3 1062/4/3 1063/4/3 1064/4/3
f 1065/4/4 1066/4/4 1067/4/4 1068/4/4
f 1069/4/3 1070/4/3 1071/4/3 1072/4/3
f 1073/4/4 1074/4/4 1075/4/4 1076/4/4
f 1077/2/3 1078/2/3 1079/2/3 1080/2/3
f 1081/2/4 1082/2/4 1083/2/4 1084/2/4
f 1085/1/3 1086/1/3 1087/1/3 1088/1/3
f 1089/1/4 1090/1/4 1091/1/4 1092/1/4
f 1093/1/6 1094/1/6 1095/1/6 1096/1/6
f 1097/4/3 1098/4/3 1099/4/3 1100/4/3
f 1101/4/4 1102/4/4 1103/4/4 1104/4/4
f 1105/4/5 1106/4/5 1107/4/5 1108/4/5
f 1109/2/3 1110/2/3 1111/2/3 1112/2/3
f 1113/2/4 1114/2/4 1115/2/4 1116/2/4
f 1117/1/3 1118/1/3 1119/1/3 1120/1/3
f 1121/1/4 1122/1/4 1123/1/4 1124/1/4
f 1125/1/3 1126/1/3 1127/1/3 1128/1/3
f 1129/1/4 1130/1/4 1131/1/4 1132/1/4
f 1133/1/3 1134/1/3 1135/1/3 1136/1/3
f 1137/1/4 1138/1/4 1139/1/4 1140/1/4
f 1141/1/3 1142/1/3 1143/1/3 1144/1/3
f 1145/1/4 1146/1/4 1147/1/4 1148/1/4
f 1149/3/3 1150/3/3 1151/3/3 1152/3/3
f 1153/3/4 1154/3/4 1155/3/4 1156/3/4
f 1157/3/3 1158/3/3 1159/3/3 1160/3/3
f 1161/3/4 1162/3/4 1163/3/4 1164/3/4
f 1165/1/3 1166/1/3 1167/1/3 1168/1/3
f 1169/1/4 1170/1/4 1171/1/4 1172/1/4
f 1173/1/3 1174/1/3 1175/1/3 1176/1/3
f 1177/1/4 1178/1/4 1179/1/4 1180/1/4
f 1181/1/3 1182/1/3 1183/1/3 1184/1/3
f 1185/1/4 1186/1/4 1187/1/4 1188/1/4
f 1189/1/3 1190/1/3 1191/1/3 1192/1/3
f 1193/1/4 1194/1/4 1195/1/4 1196/1/4
f 1197/1/3 1198/1/3 1199/1/3 1200/1/3
f 1201/1/4 1202/1/4 1203/1/4 1204/1/4
f 1205/1/3 1206/1/3 1207/1/3 1208/1/3
f 1209/1/4 1210/1/4 1211/1/4 1212/1/4
f 1213/1/3 1214/1/3 1215/1/3 1216/1/3
f 1217/1/4 1218/1/4 1219/1/4 1220/1/4
f 1221/1/3 1222/1/3 1223/1/3 1224/1/3
f 1225/1/4 1226/1/4 1227/1/4 1228/1/4
f 1229/1/3 1230/1/3 1231/1/3 1232/1/3
f 1233/1/4 1234/1/4 1235/1/4 1236/1/4
f 1237/1/3 1238/1/3 1239/1/3 1240/1/3
f 1241/1/4 1242/1/4 1243/1/4 1244/1/4
f 1245/2/3 1246/2/3 1247/2/3 1248/2/3
f 1249/2/4 1250/2/4 1251/2/4 1252/2/4
f 1253/4/3 1254/4/3 1255/4/3 1256/4/3
f 1257/4/4 1258/4/4 1259/4/4 1260/4/4
f 1261/4/3 1262/4/3 1263/4/3 1264/4/3
f 1265/4/4 1266/4/4 1267/4/4 1268/4/4
f 1269/4/3 1270/4/3 1271/4/3 1272/4/3
f 1273/4/4 1274/4/4 1275/4/4 1276/4/4
f 1277/3/3 1278/3/3 1279/3/3 1280/3/3
f 1281/3/4 1282/3/4 1283/3/4 1284/3/4
f 1285/1/3 1286/1/3 1287/1/3 1288/1/3
f 1289/1/4 1290/1/4 1291/1/4 1292/1/4
f 1293/1/6 1294/1/6 1295/1/6 1296/1/6
f 1297/4/3 1298/4/3 1299/4/3 1300/4/3
f 1301/4/4 1302/4/4 1303/4/4 1304/4/4
f 1305/4/5 1306/4/5 1307/4/5 1308/4/5
f 1309/3/3 1310/3/3 1311/3/3 1312/3/3
f 1313/3/4 1314/3/4 1315/3/4 1316/3/4
f 1317/1/3 1318/1/3 1319/1/3 1320/1/3
f 1321/1/4 1322/1/4 1323/1/4 1324/1/4
f 1325/1/3 1326/1/3 1327/1/3 1328/1/3
f 1329/1/4 1330/1/4 1331/1/4 1332/1/4
f 1333/1/3 1334/1/3 1335/1/3 1336/1/3
f 1337/1/4 1338/1/4 1339/1/4 1340/1/4
f 1341/1/3 1342/1/3 1343/1/3 1344/1/3
f 1345/1/4 1346/1/4 1347/1/4 1348/1/4
f 1349/1/3 1350/1/3 1351/1/3 1352/1/3
f 1353/1/4 1354/1/4 1355/1/4 1356/1/4
f 1357/1/3 1358/1/3 1359/1/3 1360/1/3
f 1361/1/4 1362/1/4 1363/1/4 1364/1/4
f 1365/1/3 1366/1/3 1367/1/3 1368/1/3
f 1369/1/4 1370/1/4 1371/1/4 1372/1/4
f 1373/1/3 1374/1/3 1375/1/3 1376/1/3
f 1377/1/4 1378/1/4 1379/1/4 1380/1/4
f 1381/1/3 1382/1/3 1383/1/3 1384/1/3
f 1385/1/4 1386/1/4 1387/1/4 1388/1/4
f 1389/1/3 1390/1/3 1391/1/3 1392/1/3
f 1393/1/4 1394/1/4 1395/1/4 1396/1/4
f 1397/1/3 1398/1/3 1399/1/3 1400/1/3
f 1401/1/4 1402/1/4 1403/1/4 1404/1/4
f 1405/1/3 1406/1/3 1407/1/3 1408/1/3
f 1409/1/4 1410/1/4 1411/1/4 1412/1/4
f 1413/1/3 1414/1/3 1415/1/3 1416/1/3
f 1417/1/4 1418/1/4 1419/1/4 1420/1/4
f 1421/1/3 1422/1/3 1423/1/3 1424/1/3
f 1425/1/4 1426/1/4 1427/1/4 1428/1/4
f 1429/1/3 1430/1/3 1431/1/3 1432/1/3
f 1433/1/4 1434/1/4 1435/1/4 1436/1/4
f 1437/3/3 1438/3/3 1439/3/3 1440/3/3
f 1441/3/4 1442/3/4 1443/3/4 1444/3/4
f 1445/4/3 1446/4/3 1447/4/3 1448/4/3
f 1449/4/4 1450/4/4 1451/4/4 1452/4/4
f 1453/4/3 1454/4/3 1455/4/3 1456/4/3
f 1457/4/4 1458/4/4 1459/4/4 1460/4/4
f 1461/4/3 1462/4/3 1463/4/3 1464/4/3
f 1465/4/4 1466/4/4 1467/4/4 1468/4/4
f 1469/2/3 1470/2/3 1471/2/3 1472/2/3
f 1473/2/4 1474/2/4 1475/2/4 1476/2/4
f 1477/1/3 1478/1/3 1479/1/3 1480/1/3
f 1481/1/4 1482/1/4 1483/1/4 1484/1/4
f 1485/1/3 1486/1/3 1487/1/3 1488/1/3
f 1489/1/4 1490/1/4 1491/1/4 1492/1/4
f 1493/1/6 1494/1/6 1495/1/6 1496/1/6
f 1497/2/3 1498/2/3 1499/2/3 1500/2/3
f 1501/2/4 1502/2/4 1503/2/4 1504/2/4
f 1505/2/5 1506/2/5 1507/2/5 1508/2/5
f 1509/3/3 1510/3/3 1511/3/3 1512/3/3
f 1513/3/4 1514/3/4 1515/3/4 1516/3/4
f 1517/1/3 1518/1/3 1519/1/3 1520/1/3
f 1521/1/4 1522/1/4 1523/1/4 1524/1/4
f 1525/1/3 1526/1/3 1527/1/3 1528/1/3
f 1529/1/4 1530/1/4 1531/1/4 1532/1/4
f 1533/1/3 1534/1/3 1535/1/3 1536/1/3
f 1537/1/4 1538/1/4 1539/1/4 1540/1/4
f 1541/1/3 1542/1/3 1543/1/3 1544/1/3
f 1545/1/4 1546/1/4 1547/1/4 1548/1/4
f 1549/1/3 1550/1/3 1551/1/3 1552/1/3
f 1553/1/4 1554/1/4 1555/1/4 1556/1/4
f 1557/1/3 1558/1/3 1559/1/3 1560/1/3
f 1561/1/4 1562/1/4 1563/1/4 1564/1/4
f 1565/1/3 1566/1/3 1567/1/3 1568/1/3
f 1569/1/4 1570/1/4 1571/1/4 1572/1/4
f 1573/1/3 1574/1/3 1575/1/3 1576/1/3
f 1577/1/4 1578/1/4 1579/1/4 1580/1/4
f 1581/1/3 1582/1/3 1583/1/3 1584/1/3
f 1585/1/4 1586/1/4 1587/1/4 1588/1/4
f 1589/3/3 1590/3/3 1591/3/3 1592/3/3
f 1593/3/4 1594/3/4 1595/3/4 1596/3/4
f 1597/3/3 1598/3/3 1599/3/3 1600/3/3
f 1601/3/4 1602/3/4 1603/3/4 1604/3/4
f 1605/1/3 1606/1/3 1607/1/3 1608/1/3
f 1609/1/4 1610/1/4 1611/1/4 1612/1/4
f 1613/1/3 1614/1/3 1615/1/3 1616/1/3
f 1617/1/4 1618/1/4 1619/1/4 1620/1/4
f 1621/1/3 1622/1/3 1623/1/3 1624/1/3
f 1625/1/4 1626/1/4 1627/1/4 1628/1/4
f 1629/1/3 1630/1/3 1631/1/3 1632/1/3
f 1633/1/4 1634/1/4 1635/1/4 1636/1/4
f 1637/2/3 1638/2/3 1639/2/3 1640/2/3
f 1641/2/4 1642/2/4 1643/2/4 1644/2/4
f 1645/4/3 1646/4/3 1647/4/3 1648/4/3
f 1649/4/4 1650/4/4 1651/4/4 1652/4/4
f 1653/4/3 1654/4/3 1655/4/3 1656/4/3
f 1657/4/4 1658/4/4 1659/4/4 1660/4/4
f 1661/2/3 1662/2/3 1663/2/3 1664/2/3
f 1665/2/4 1666/2/4 1667/2/4 1668/2/4
f 1669/1/3 1670/1/3 1671/1/3 1672/1/3
f 1673/1/4 1674/1/4 1675/1/4 1676/1/4
f 1677/1/3 1678/1/3 1679/1/3 1680/1/3
f 1681/1/4 1682/1/4 1683/1/4 1684/1/4
f 1685/1/3 1686/1/3 1687/1/3 1688/1/3
f 1689/1/4 1690/1/4 1691/1/4 1692/1/4
f 1693/1/6 1694/1/6 1695/1/6 1696/1/6
f 1697/3/3 1698/3/3 1699/3/3 1700/3/3
f 1701/3/4 1702/3/4 1703/3/4 1704/3/4
f 1705/3/5 1706/3/5 1707/3/5 1708/3/5
f 1709/3/3 1710/3/3 1711/3/3 1712/3/3
f 1713/3/4 1714/3/4 1715/3/4 1716/3/4
f 1717/1/3 1718/1/3 1719/1/3 1720/1/3
f 1721/1/4 1722/1/4 1723/1/4 1724/1/4
f 1725/1/3 1726/1/3 1727/1/3 1728/1/3
f 1729/1/4 1730/1/4 1731/1/4 1732/1/4
f 1733/1/3 1734/1/3 1735/1/3 1736/1/3
f 1737/1/4 1738/1/4 1739/1/4 1740/1/4
f 1741/1/3 1742/1/3 1743/1/3 1744/1/3
f 1745/1/4 1746/1/4 1747/1/4 1748/1/4
f 1749/1/3 1750/1/3 1751/1/3 1752/1/3
f 1753/1/4 1754/1/4 1755/1/4 1756/1/4
f 1757/1/3 1758/1/3 1759/1/3 1760/1/3
f 1761/1/4 1762/1/4 1763/1/4 1764/1/4
f 1765/1/3 1766/1/3 1767/1/3 1768/1/3
f 1769/1/4 1770/1/4 1771/1/4 1772/1/4
f 1773/1/3 1774/1/3 1775/1/3 1776/1/3
f 1777/1/4 1778/1/4 1779/1/4 1780/1/4
f 1781/2/3 1782/2/3 1783/2/3 1784/2/3
f 1785/2/4 1786/2/4 1787/2/4 1788/2/4
f 1789/2/3 1790/2/3 1791/2/3 1792/2/3
f 1793/2/4 1794/2/4 1795/2/4 1796/2/4
f 1797/2/3 1798/2/3 1799/2/3 1800/2/3
f 1801/2/4 1802/2/4 1803/2/4 1804/2/4
f 1805/1/3 1806/1/3 1807/1/3 1808/1/3
f 1809/1/4 1810/1/4 1811/1/4 1812/1/4
f 1813/1/3 1814/1/3 1815/1/3 1816/1/3
f 1817/1/4 1818/1/4 1819/1/4 1820/1/4
f 1821/1/3 1822/1/3 1823/1/3 1824/1/3
f 1825/1/4 1826/1/4 1827/1/4 1828/1/4
f 1829/3/3 1830/3/3 1831/3/3 1832/3/3
f 1833/3/4 1834/3/4 1835/3/4 1836/3/4
f 1837/2/3 1838/2/3 1839/2/3 1840/2/3
f 1841/2/4 1842/2/4 1843/2/4 1844/2/4
f 1845/2/3 1846/2/3 1847/2/3 1848/2/3
f 1849/2/4 1850/2/4 1851/2/4 1852/2/4
f 1853/3/3 1854/3/3 1855/3/3 1856/3/3
f 1857/3/4 1858/3/4 1859/3/4 1860/3/4
f 1861/1/3 1862/1/3 1863/1/3 1864/1/3
f 1865/1/4 1866/1/4 1867/1/4 1868/1/4
f 1869/1/3 1870/1/3 1871/1/3 1872/1/3
f 1873/1/4 1874/1/4 1875/1/4 1876/1/4
f 1877/1/3 1878/1/3 1879/1/3 1880/1/3
f 1881/1/4 1882/1/4 1883/1/4 1884/1/4
f 1885/1/3 1886/1/3 1887/1/3 1888/1/3
f 1889/1/4 1890/1/4 1891/1/4 1892/1/4
f 1893/1/6 1894/1/6 1895/1/6 1896/1/6
f 1897/3/3 1898/3/3 1899/3/3 1900/3/3
f 1901/3/4 1902/3/4 1903/3/4 1904/3/4
f 1905/3/5 1906/3/5 1907/3/5 1908/3/5
f 1909/3/3 1910/3/3 1911/3/3 1912/3/3
f 1913/3/4 1914/3/4 1915/3/4 1916/3/4
f 1917/1/2 1918/1/2 1919/1/2 1920/1/2
f 1921/1/3 1922/1/3 1923/1/3 1924/1/3
f 1925/1/4 1926/1/4 1927/1/4 1928/1/4
f 1929/1/2 1930/1/2 1931/1/2 1932/1/2
f 1933/1/3 1934/1/3 1935/1/3 1936/1/3
f 1937/1/4 1938/1/4 1939/1/4 1940/1/4
f 1941/1/2 1942/1/2 1943/1/2 1944/1/2
f 1945/1/3 1946/1/3 1947/1/3 1948/1/3
f 1949/1/4 1950/1/4 1951/1/4 1952/1/4
f 1953/1/2 1954/1/2 1955/1/2 1956/1/2
f 1957/1/3 1958/1/3 1959/1/3 1960/1/3
f 1961/1/4 1962/1/4 1963/1/4 1964/1/4
f 1965/1/2 1966/1/2 1967/1/2 1968/1/2
f 1969/1/3 1970/1/3 1971/1/3 1972/1/3
f 1973/1/4 1974/1/4 1975/1/4 1976/1/4
f 1977/1/2 1978/1/2 1979/1/2 1980/1/2
f 1981/1/3 1982/1/3 1983/1/3 1984/1/3
f 1985/1/4 1986/1/4 1987/1/4 1988/1/4
f 1989/1/2 1990/1/2 1991/1/2 1992/1/2
f 1993/1/3 1994/1/3 1995/1/3 1996/1/3
f 1997/1/4 1998/1/4 1999/1/4 2000/1/4
f 2001/2/2 2002/2/2 2003/2/2 2004/2/2
f 2005/2/3 2006/2/3 2007/2/3 2008/2/3
f 2009/2/4 2010/2/4 2011/2/4 2012/2/4
f 2013/4/2 2014/4/2 2015/4/2 2016/4/2
f 2017/4/3 2018/4/3 2019/4/3 2020/4/3
f 2021/4/4 2022/4/4 2023/4/4 2024/4/4
f 2025/4/2 2026/4/2 2027/4/2 2028/4/2
f 2029/4/3 2030/4/3 2031/4/3 2032/4/3
f 2033/4/4 2034/4/4 2035/4/4 2036/4/4
f 2037/2/2 2038/2/2 2039/2/2 2040/2/2
f 2041/2/3 2042/2/3 2043/2/3 2044/2/3
f 2045/2/4 2046/2/4 2047/2/4 2048/2/4
f 2049/3/2 2050/3/2 2051/3/2 2052/3/2
f 2053/3/3 2054/3/3 2055/3/3 2056/3/3
f 2057/3/4 2058/3/4 2059/3/4 2060/3/4
f 2061/3/2 2062/3/2 2063/3/2 2064/3/2
f 2065/3/3 2066/3/3 2067/3/3 2068/3/3
f 2069/3/4 2070/3/4 2071/3/4 2072/3/4
f 2073/3/2 2074/3/2 2075/3/2 2076/3/2
f 2077/3/3 2078/3/3 2079/3/3 2080/3/3
f 2081/3/4 2082/3/4 2083/3/4 2084/3/4
f 2085/3/3 2086/3/3 2087/3/3 2088/3/3
f 2089/3/4 2090/3/4 2091/3/4 2092/3/4
f 2093/1/3 2094/1/3 2095/1/3 2096/1/3
f 2097/1/4 2098/1/4 2099/1/4 2100/1/4
f 2101/1/3 2102/1/3 2103/1/3 2104/1/3
f 2105/1/4 2106/1/4 2107/1/4 2108/1/4
f 2109/1/3 2110/1/3 2111/1/3 2112/1/3
f 2113/1/4 2114/1/4 2115/1/4 2116/1/4
f 2117/1/3 2118/1/3 2119/1/3 2120/1/3
f 2121/1/4 2122/1/4 2123/1/4 2124/1/4
f 2125/1/3 2126/1/3 2127/1/3 2128/1/3
f 2129/1/4 2130/1/4 2131/1/4 2132/1/4
f 2133/1/3 2134/1/3 2135/1/3 2136/1/3
f 2137/1/4 2138/1/4 2139/1/4 2140/1/4
f 2141/1/3 2142/1/3 2143/1/3 2144/1/3
f 2145/1/4 2146/1/4 2147/1/4 2148/1/4
f 2149/1/6 2150/1/6 2151/1/6 2152/1/6
f 2153/1/2 2154/1/2 2155/1/2 2156/1/2
f 2157/1/3 2158/1/3 2159/1/3 2160/1/3
f 2161/1/4 2162/1/4 2163/1/4 2164/1/4
f 2165/1/5 2166/1/5 2167/1/5 2168/1/5
f 2169/1/2 2170/1/2 2171/1/2 2172/1/2
f 2173/1/3 2174/1/3 2175/1/3 2176/1/3
f 2177/1/4 2178/1/4 2179/1/4 2180/1/4
f 2181/1/6 2182/1/6 2183/1/6 2184/1/6
f 2185/1/2 2186/1/2 2187/1/2 2188/1/2
f 2189/1/3 2190/1/3 2191/1/3 2192/1/3
f 2193/1/4 2194/1/4 2195/1/4 2196/1/4
f 2197/1/5 2198/1/5 2199/1/5 2200/1/5
f 2201/1/2 2202/1/2 2203/1/2 2204/1/2
f 2205/1/3 2206/1/3 2207/1/3 2208/1/3
f 2209/1/4 2210/1/4 2211/1/4 2212/1/4
f 2213/1/2 2214/1/2 2215/1/2 2216/1/2
f 2217/1/3 2218/1/3 2219/1/3 2220/1/3
f 2221/1/4 2222/1/4 2223/1/4 2224/1/4
f 2225/1/2 2226/1/2 2227/1/2 2228/1/2
f 2229/1/3 2230/1/3 2231/1/3 2232/1/3
f 2233/1/4 2234/1/4 2235/1/4 2236/1/4
f 2237/1/2 2238/1/2 2239/1/2 2240/1/2
f 2241/1/3 2242/1/3 2243/1/3 2244/1/3
f 2245/1/4 2246/1/4 2247/1/4 2248/1/4
f 2249/1/2 2250/1/2 2251/1/2 2252/1/2
f 2253/1/3 2254/1/3 2255/1/3 2256/1/3
f 2257/1/4 2258/1/4 2259/1/4 2260/1/4
f 2261/1/3 2262/1/3 2263/1/3 2264/1/3
f 2265/1/4 2266/1/4 2267/1/4 2268/1/4
f 2269/1/3 2270/1/3 2271/1/3 2272/1/3
f 2273/1/4 2274/1/4 2275/1/4 2276/1/4
f 2277/1/6 2278/1/6 2279/1/6 2280/1/6
f 2281/3/2 2282/3/2 2283/3/2 2284/3/2
f 2285/3/3 2286/3/3 2287/3/3 2288/3/3
f 2289/3/4 2290/3/4 2291/3/4 2292/3/4
f 2293/3/5 2294/3/5 2295/3/5 2296/3/5
f 2297/1/2 2298/1/2 2299/1/2 2300/1/2
f 2301/1/3 2302/1/3 2303/1/3 2304/1/3
f 2305/1/4 2306/1/4 2307/1/4 2308/1/4
f 2309/1/6 2310/1/6 2311/1/6 2312/1/6

