# generated by vox_to_obj_exporter
# scale=0.1 center=true ground=true y_up=false

mtllib lava_25_5.mtl
usemtl palette

# normals
vn -1 0 0
vn 1 0 0
vn 0 0 1
vn 0 0 -1
vn 0 -1 0
vn 0 1 0

# texcoords
vt 0.001953125 0.5
vt 0.044921875 0.5
vt 0.021484375 0.5
vt 0.068359375 0.5

# verts
v -1.2 -1.1 0.1
v -1.2 -1.1 0
v -1.2 -1.2 0
v -1.2 -1.2 0.1
v -1.2 -1.1 0.1
v -1.2 -1.2 0.1
v -1.1 -1.2 0.1
v -1.1 -1.1 0.1
v -1.2 -1.2 0
v -1.2 -1.1 0
v -1.1 -1.1 0
v -1.1 -1.2 0
v -1.2 -1.2 0.1
v -1.2 -1.2 0
v -1.1 -1.2 0
v -1.1 -1.2 0.1
v -1.2 -1 0.1
v -1.2 -1 0
v -1.2 -1.1 0
v -1.2 -1.1 0.1
v -1.2 -1 0.1
v -1.2 -1.1 0.1
v -1.1 -1.1 0.1
v -1.1 -1 0.1
v -1.2 -1.1 0
v -1.2 -1 0
v -1.1 -1 0
v -1.1 -1.1 0
v -1.2 -0.9 0.1
v -1.2 -0.9 0
v -1.2 -1 0
v -1.2 -1 0.1
v -1.2 -0.9 0.1
v -1.2 -1 0.1
v -1.1 -1 0.1
v -1.1 -0.9 0.1
v -1.2 -1 0
v -1.2 -0.9 0
v -1.1 -0.9 0
v -1.1 -1 0
v -1.2 -0.8 0.1
v -1.2 -0.8 0
v -1.2 -0.9 0
v -1.2 -0.9 0.1
v -1.2 -0.8 0.1
v -1.2 -0.9 0.1
v -1.1 -0.9 0.1
v -1.1 -0.8 0.1
v -1.2 -0.9 0
v -1.2 -0.8 0
v -1.1 -0.8 0
v -1.1 -0.9 0
v -1.2 -0.7 0.1
v -1.2 -0.7 0
v -1.2 -0.8 0
v -1.2 -0.8 0.1
v -1.2 -0.7 0.1
v -1.2 -0.8 0.1
v -1.1 -0.8 0.1
v -1.1 -0.7 0.1
v -1.2 -0.8 0
v -1.2 -0.7 0
v -1.1 -0.7 0
v -1.1 -0.8 0
v -1.2 -0.6 0.1
v -1.2 -0.6 0
v -1.2 -0.7 0
v -1.2 -0.7 0.1
v -1.2 -0.6 0.1
v -1.2 -0.7 0.1
v -1.1 -0.7 0.1
v -1.1 -0.6 0.1
v -1.2 -0.7 0
v -1.2 -0.6 0
v -1.1 -0.6 0
v -1.1 -0.7 0
v -1.2 -0.5 0.1
v -1.2 -0.5 0
v -1.2 -0.6 0
v -1.2 -0.6 0.1
v -1.2 -0.5 0.1
v -1.2 -0.6 0.1
v -1.1 -0.6 0.1
v -1.1 -0.5 0.1
v -1.2 -0.6 0
v -1.2 -0.5 0
v -1.1 -0.5 0
v -1.1 -0.6 0
v -1.2 -0.4 0.1
v -1.2 -0.4 0
v -1.2 -0.5 0
v -1.2 -0.5 0.1
v -1.2 -0.4 0.1
v -1.2 -0.5 0.1
v -1.1 -0.5 0.1
v -1.1 -0.4 0.1
v -1.2 -0.5 0
v -1.2 -0.4 0
v -1.1 -0.4 0
v -1.1 -0.5 0
v -1.2 -0.3 0.1
v -1.2 -0.3 0
v -1.2 -0.4 0
v -1.2 -0.4 0.1
v -1.2 -0.3 0.1
v -1.2 -0.4 0.1
v -1.1 -0.4 0.1
v -1.1 -0.3 0.1
v -1.2 -0.4 0
v -1.2 -0.3 0
v -1.1 -0.3 0
v -1.1 -0.4 0
v -1.2 -0.2 0.1
v -1.2 -0.2 0
v -1.2 -0.3 0
v -1.2 -0.3 0.1
v -1.2 -0.2 0.1
v -1.2 -0.3 0.1
v -1.1 -0.3 0.1
v -1.1 -0.2 0.1
v -1.2 -0.3 0
v -1.2 -0.2 0
v -1.1 -0.2 0
v -1.1 -0.3 0
v -1.2 -0.1 0.1
v -1.2 -0.1 0
v -1.2 -0.2 0
v -1.2 -0.2 0.1
v -1.2 -0.1 0.1
v -1.2 -0.2 0.1
v -1.1 -0.2 0.1
v -1.1 -0.1 0.1
v -1.2 -0.2 0
v -1.2 -0.1 0
v -1.1 -0.1 0
v -1.1 -0.2 0
v -1.2 0 0.1
v -1.2 0 0
v -1.2 -0.1 0
v -1.2 -0.1 0.1
v -1.2 0 0.1
v -1.2 -0.1 0.1
v -1.1 -0.1 0.1
v -1.1 0 0.1
v -1.2 -0.1 0
v -1.2 0 0
v -1.1 0 0
v -1.1 -0.1 0
v -1.2 0.1 0.1
v -1.2 0.1 0
v -1.2 0 0
v -1.2 0 0.1
v -1.2 0.1 0.1
v -1.2 0 0.1
v -1.1 0 0.1
v -1.1 0.1 0.1
v -1.2 0 0
v -1.2 0.1 0
v -1.1 0.1 0
v -1.1 0 0
v -1.2 0.2 0.1
v -1.2 0.2 0
v -1.2 0.1 0
v -1.2 0.1 0.1
v -1.2 0.2 0.1
v -1.2 0.1 0.1
v -1.1 0.1 0.1
v -1.1 0.2 0.1
v -1.2 0.1 0
v -1.2 0.2 0
v -1.1 0.2 0
v -1.1 0.1 0
v -1.2 0.3 0.1
v -1.2 0.3 0
v -1.2 0.2 0
v -1.2 0.2 0.1
v -1.2 0.3 0.1
v -1.2 0.2 0.1
v -1.1 0.2 0.1
v -1.1 0.3 0.1
v -1.2 0.2 0
v -1.2 0.3 0
v -1.1 0.3 0
v -1.1 0.2 0
v -1.2 0.4 0.1
v -1.2 0.4 0
v -1.2 0.3 0
v -1.2 0.3 0.1
v -1.2 0.4 0.1
v -1.2 0.3 0.1
v -1.1 0.3 0.1
v -1.1 0.4 0.1
v -1.2 0.3 0
v -1.2 0.4 0
v -1.1 0.4 0
v -1.1 0.3 0
v -1.2 0.5 0.1
v -1.2 0.5 0
v -1.2 0.4 0
v -1.2 0.4 0.1
v -1.2 0.5 0.1
v -1.2 0.4 0.1
v -1.1 0.4 0.1
v -1.1 0.5 0.1
v -1.2 0.4 0
v -1.2 0.5 0
v -1.1 0.5 0
v -1.1 0.4 0
v -1.2 0.6 0.1
v -1.2 0.6 0
v -1.2 0.5 0
v -1.2 0.5 0.1
v -1.2 0.6 0.1
v -1.2 0.5 0.1
v -1.1 0.5 0.1
v -1.1 0.6 0.1
v -1.2 0.5 0
v -1.2 0.6 0
v -1.1 0.6 0
v -1.1 0.5 0
v -1.2 0.7 0.1
v -1.2 0.7 0
v -1.2 0.6 0
v -1.2 0.6 0.1
v -1.2 0.7 0.1
v -1.2 0.6 0.1
v -1.1 0.6 0.1
v -1.1 0.7 0.1
v -1.2 0.6 0
v -1.2 0.7 0
v -1.1 0.7 0
v -1.1 0.6 0
v -1.2 0.8 0.1
v -1.2 0.8 0
v -1.2 0.7 0
v -1.2 0.7 0.1
v -1.2 0.8 0.1
v -1.2 0.7 0.1
v -1.1 0.7 0.1
v -1.1 0.8 0.1
v -1.2 0.7 0
v -1.2 0.8 0
v -1.1 0.8 0
v -1.1 0.7 0
v -1.2 0.9 0.1
v -1.2 0.9 0
v -1.2 0.8 0
v -1.2 0.8 0.1
v -1.2 0.9 0.1
v -1.2 0.8 0.1
v -1.1 0.8 0.1
v -1.1 0.9 0.1
v -1.2 0.8 0
v -1.2 0.9 0
v -1.1 0.9 0
v -1.1 0.8 0
v -1.2 1 0.1
v -1.2 1 0
v -1.2 0.9 0
v -1.2 0.9 0.1
v -1.2 1 0.1
v -1.2 0.9 0.1
v -1.1 0.9 0.1
v -1.1 1 0.1
v -1.2 0.9 0
v -1.2 1 0
v -1.1 1 0
v -1.1 0.9 0
v -1.2 1.1 0.1
v -1.2 1.1 0
v -1.2 1 0
v -1.2 1 0.1
v -1.2 1.1 0.1
v -1.2 1 0.1
v -1.1 1 0.1
v -1.1 1.1 0.1
v -1.2 1 0
v -1.2 1.1 0
v -1.1 1.1 0
v -1.1 1 0
v -1.2 1.2 0.1
v -1.2 1.2 0
v -1.2 1.1 0
v -1.2 1.1 0.1
v -1.2 1.2 0.1
v -1.2 1.1 0.1
v -1.1 1.1 0.1
v -1.1 1.2 0.1
v -1.2 1.1 0
v -1.2 1.2 0
v -1.1 1.2 0
v -1.1 1.1 0
v -1.1 1.2 0.1
v -1.1 1.2 0
v -1.2 1.2 0
v -1.2 1.2 0.1
v -1.1 -1.1 0.1
v -1.1 -1.2 0.1
v -1 -1.2 0.1
v -1 -1.1 0.1
v -1.1 -1.2 0
v -1.1 -1.1 0
v -1 -1.1 0
v -1 -1.2 0
v -1.1 -1.2 0.1
v -1.1 -1.2 0
v -1 -1.2 0
v -1 -1.2 0.1
v -1.1 -1 0.1
v -1.1 -1.1 0.1
v -1 -1.1 0.1
v -1 -1 0.1
v -1.1 -1.1 0
v -1.1 -1 0
v -1 -1 0
v -1 -1.1 0
v -1.1 -0.9 0.1
v -1.1 -1 0.1
v -1 -1 0.1
v -1 -0.9 0.1
v -1.1 -1 0
v -1.1 -0.9 0
v -1 -0.9 0
v -1 -1 0
v -1.1 -0.8 0.1
v -1.1 -0.9 0.1
v -1 -0.9 0.1
v -1 -0.8 0.1
v -1.1 -0.9 0
v -1.1 -0.8 0
v -1 -0.8 0
v -1 -0.9 0
v -1.1 -0.7 0.1
v -1.1 -0.8 0.1
v -1 -0.8 0.1
v -1 -0.7 0.1
v -1.1 -0.8 0
v -1.1 -0.7 0
v -1 -0.7 0
v -1 -0.8 0
v -1.1 -0.6 0.1
v -1.1 -0.7 0.1
v -1 -0.7 0.1
v -1 -0.6 0.1
v -1.1 -0.7 0
v -1.1 -0.6 0
v -1 -0.6 0
v -1 -0.7 0
v -1.1 -0.5 0.1
v -1.1 -0.6 0.1
v -1 -0.6 0.1
v -1 -0.5 0.1
v -1.1 -0.6 0
v -1.1 -0.5 0
v -1 -0.5 0
v -1 -0.6 0
v -1.1 -0.4 0.1
v -1.1 -0.5 0.1
v -1 -0.5 0.1
v -1 -0.4 0.1
v -1.1 -0.5 0
v -1.1 -0.4 0
v -1 -0.4 0
v -1 -0.5 0
v -1.1 -0.3 0.1
v -1.1 -0.4 0.1
v -1 -0.4 0.1
v -1 -0.3 0.1
v -1.1 -0.4 0
v -1.1 -0.3 0
v -1 -0.3 0
v -1 -0.4 0
v -1.1 -0.2 0.1
v -1.1 -0.3 0.1
v -1 -0.3 0.1
v -1 -0.2 0.1
v -1.1 -0.3 0
v -1.1 -0.2 0
v -1 -0.2 0
v -1 -0.3 0
v -1.1 -0.1 0.1
v -1.1 -0.2 0.1
v -1 -0.2 0.1
v -1 -0.1 0.1
v -1.1 -0.2 0
v -1.1 -0.1 0
v -1 -0.1 0
v -1 -0.2 0
v -1.1 0 0.1
v -1.1 -0.1 0.1
v -1 -0.1 0.1
v -1 0 0.1
v -1.1 -0.1 0
v -1.1 0 0
v -1 0 0
v -1 -0.1 0
v -1.1 0.1 0.1
v -1.1 0 0.1
v -1 0 0.1
v -1 0.1 0.1
v -1.1 0 0
v -1.1 0.1 0
v -1 0.1 0
v -1 0 0
v -1.1 0.2 0.1
v -1.1 0.1 0.1
v -1 0.1 0.1
v -1 0.2 0.1
v -1.1 0.1 0
v -1.1 0.2 0
v -1 0.2 0
v -1 0.1 0
v -1.1 0.3 0.1
v -1.1 0.2 0.1
v -1 0.2 0.1
v -1 0.3 0.1
v -1.1 0.2 0
v -1.1 0.3 0
v -1 0.3 0
v -1 0.2 0
v -1.1 0.4 0.1
v -1.1 0.3 0.1
v -1 0.3 0.1
v -1 0.4 0.1
v -1.1 0.3 0
v -1.1 0.4 0
v -1 0.4 0
v -1 0.3 0
v -1.1 0.5 0.1
v -1.1 0.4 0.1
v -1 0.4 0.1
v -1 0.5 0.1
v -1.1 0.4 0
v -1.1 0.5 0
v -1 0.5 0
v -1 0.4 0
v -1.1 0.6 0.1
v -1.1 0.5 0.1
v -1 0.5 0.1
v -1 0.6 0.1
v -1.1 0.5 0
v -1.1 0.6 0
v -1 0.6 0
v -1 0.5 0
v -1.1 0.7 0.1
v -1.1 0.6 0.1
v -1 0.6 0.1
v -1 0.7 0.1
v -1.1 0.6 0
v -1.1 0.7 0
v -1 0.7 0
v -1 0.6 0
v -1.1 0.8 0.1
v -1.1 0.7 0.1
v -1 0.7 0.1
v -1 0.8 0.1
v -1.1 0.7 0
v -1.1 0.8 0
v -1 0.8 0
v -1 0.7 0
v -1.1 0.9 0.1
v -1.1 0.8 0.1
v -1 0.8 0.1
v -1 0.9 0.1
v -1.1 0.8 0
v -1.1 0.9 0
v -1 0.9 0
v -1 0.8 0
v -1.1 1 0.1
v -1.1 0.9 0.1
v -1 0.9 0.1
v -1 1 0.1
v -1.1 0.9 0
v -1.1 1 0
v -1 1 0
v -1 0.9 0
v -1.1 1.1 0.1
v -1.1 1 0.1
v -1 1 0.1
v -1 1.1 0.1
v -1.1 1 0
v -1.1 1.1 0
v -1 1.1 0
v -1 1 0
v -1.1 1.2 0.1
v -1.1 1.1 0.1
v -1 1.1 0.1
v -1 1.2 0.1
v -1.1 1.1 0
v -1.1 1.2 0
v -1 1.2 0
v -1 1.1 0
v -1 1.2 0.1
v -1 1.2 0
v -1.1 1.2 0
v -1.1 1.2 0.1
v -1 -1.1 0.1
v -1 -1.2 0.1
v -0.9 -1.2 0.1
v -0.9 -1.1 0.1
v -1 -1.2 0
v -1 -1.1 0
v -0.9 -1.1 0
v -0.9 -1.2 0
v -1 -1.2 0.1
v -1 -1.2 0
v -0.9 -1.2 0
v -0.9 -1.2 0.1
v -1 -1 0.1
v -1 -1.1 0.1
v -0.9 -1.1 0.1
v -0.9 -1 0.1
v -1 -1.1 0
v -1 -1 0
v -0.9 -1 0
v -0.9 -1.1 0
v -1 -0.9 0.1
v -1 -1 0.1
v -0.9 -1 0.1
v -0.9 -0.9 0.1
v -1 -1 0
v -1 -0.9 0
v -0.9 -0.9 0
v -0.9 -1 0
v -1 -0.8 0.1
v -1 -0.9 0.1
v -0.9 -0.9 0.1
v -0.9 -0.8 0.1
v -1 -0.9 0
v -1 -0.8 0
v -0.9 -0.8 0
v -0.9 -0.9 0
v -1 -0.7 0.1
v -1 -0.8 0.1
v -0.9 -0.8 0.1
v -0.9 -0.7 0.1
v -1 -0.8 0
v -1 -0.7 0
v -0.9 -0.7 0
v -0.9 -0.8 0
v -1 -0.6 0.1
v -1 -0.7 0.1
v -0.9 -0.7 0.1
v -0.9 -0.6 0.1
v -1 -0.7 0
v -1 -0.6 0
v -0.9 -0.6 0
v -0.9 -0.7 0
v -1 -0.5 0.1
v -1 -0.6 0.1
v -0.9 -0.6 0.1
v -0.9 -0.5 0.1
v -1 -0.6 0
v -1 -0.5 0
v -0.9 -0.5 0
v -0.9 -0.6 0
v -1 -0.4 0.1
v -1 -0.5 0.1
v -0.9 -0.5 0.1
v -0.9 -0.4 0.1
v -1 -0.5 0
v -1 -0.4 0
v -0.9 -0.4 0
v -0.9 -0.5 0
v -1 -0.3 0.1
v -1 -0.4 0.1
v -0.9 -0.4 0.1
v -0.9 -0.3 0.1
v -1 -0.4 0
v -1 -0.3 0
v -0.9 -0.3 0
v -0.9 -0.4 0
v -1 -0.2 0.1
v -1 -0.3 0.1
v -0.9 -0.3 0.1
v -0.9 -0.2 0.1
v -1 -0.3 0
v -1 -0.2 0
v -0.9 -0.2 0
v -0.9 -0.3 0
v -1 -0.1 0.1
v -1 -0.2 0.1
v -0.9 -0.2 0.1
v -0.9 -0.1 0.1
v -1 -0.2 0
v -1 -0.1 0
v -0.9 -0.1 0
v -0.9 -0.2 0
v -1 0 0.1
v -1 -0.1 0.1
v -0.9 -0.1 0.1
v -0.9 0 0.1
v -1 -0.1 0
v -1 0 0
v -0.9 0 0
v -0.9 -0.1 0
v -1 0.1 0.1
v -1 0 0.1
v -0.9 0 0.1
v -0.9 0.1 0.1
v -1 0 0
v -1 0.1 0
v -0.9 0.1 0
v -0.9 0 0
v -1 0.2 0.1
v -1 0.1 0.1
v -0.9 0.1 0.1
v -0.9 0.2 0.1
v -1 0.1 0
v -1 0.2 0
v -0.9 0.2 0
v -0.9 0.1 0
v -1 0.3 0.1
v -1 0.2 0.1
v -0.9 0.2 0.1
v -0.9 0.3 0.1
v -1 0.2 0
v -1 0.3 0
v -0.9 0.3 0
v -0.9 0.2 0
v -1 0.4 0.1
v -1 0.3 0.1
v -0.9 0.3 0.1
v -0.9 0.4 0.1
v -1 0.3 0
v -1 0.4 0
v -0.9 0.4 0
v -0.9 0.3 0
v -1 0.5 0.1
v -1 0.4 0.1
v -0.9 0.4 0.1
v -0.9 0.5 0.1
v -1 0.4 0
v -1 0.5 0
v -0.9 0.5 0
v -0.9 0.4 0
v -1 0.6 0.1
v -1 0.5 0.1
v -0.9 0.5 0.1
v -0.9 0.6 0.1
v -1 0.5 0
v -1 0.6 0
v -0.9 0.6 0
v -0.9 0.5 0
v -1 0.7 0.1
v -1 0.6 0.1
v -0.9 0.6 0.1
v -0.9 0.7 0.1
v -1 0.6 0
v -1 0.7 0
v -0.9 0.7 0
v -0.9 0.6 0
v -1 0.8 0.1
v -1 0.7 0.1
v -0.9 0.7 0.1
v -0.9 0.8 0.1
v -1 0.7 0
v -1 0.8 0
v -0.9 0.8 0
v -0.9 0.7 0
v -1 0.9 0.1
v -1 0.8 0.1
v -0.9 0.8 0.1
v -0.9 0.9 0.1
v -1 0.8 0
v -1 0.9 0
v -0.9 0.9 0
v -0.9 0.8 0
v -1 1 0.1
v -1 0.9 0.1
v -0.9 0.9 0.1
v -0.9 1 0.1
v -1 0.9 0
v -1 1 0
v -0.9 1 0
v -0.9 0.9 0
v -1 1.1 0.1
v -1 1 0.1
v -0.9 1 0.1
v -0.9 1.1 0.1
v -1 1 0
v -1 1.1 0
v -0.9 1.1 0
v -0.9 1 0
v -1 1.2 0.1
v -1 1.1 0.1
v -0.9 1.1 0.1
v -0.9 1.2 0.1
v -1 1.1 0
v -1 1.2 0
v -0.9 1.2 0
v -0.9 1.1 0
v -0.9 1.2 0.1
v -0.9 1.2 0
v -1 1.2 0
v -1 1.2 0.1
v -0.9 -1.1 0.1
v -0.9 -1.2 0.1
v -0.8 -1.2 0.1
v -0.8 -1.1 0.1
v -0.9 -1.2 0
v -0.9 -1.1 0
v -0.8 -1.1 0
v -0.8 -1.2 0
v -0.9 -1.2 0.1
v -0.9 -1.2 0
v -0.8 -1.2 0
v -0.8 -1.2 0.1
v -0.9 -1 0.1
v -0.9 -1.1 0.1
v -0.8 -1.1 0.1
v -0.8 -1 0.1
v -0.9 -1.1 0
v -0.9 -1 0
v -0.8 -1 0
v -0.8 -1.1 0
v -0.9 -0.9 0.1
v -0.9 -1 0.1
v -0.8 -1 0.1
v -0.8 -0.9 0.1
v -0.9 -1 0
v -0.9 -0.9 0
v -0.8 -0.9 0
v -0.8 -1 0
v -0.9 -0.8 0.1
v -0.9 -0.9 0.1
v -0.8 -0.9 0.1
v -0.8 -0.8 0.1
v -0.9 -0.9 0
v -0.9 -0.8 0
v -0.8 -0.8 0
v -0.8 -0.9 0
v -0.9 -0.7 0.1
v -0.9 -0.8 0.1
v -0.8 -0.8 0.1
v -0.8 -0.7 0.1
v -0.9 -0.8 0
v -0.9 -0.7 0
v -0.8 -0.7 0
v -0.8 -0.8 0
v -0.9 -0.6 0.1
v -0.9 -0.7 0.1
v -0.8 -0.7 0.1
v -0.8 -0.6 0.1
v -0.9 -0.7 0
v -0.9 -0.6 0
v -0.8 -0.6 0
v -0.8 -0.7 0
v -0.9 -0.5 0.1
v -0.9 -0.6 0.1
v -0.8 -0.6 0.1
v -0.8 -0.5 0.1
v -0.9 -0.6 0
v -0.9 -0.5 0
v -0.8 -0.5 0
v -0.8 -0.6 0
v -0.9 -0.4 0.1
v -0.9 -0.5 0.1
v -0.8 -0.5 0.1
v -0.8 -0.4 0.1
v -0.9 -0.5 0
v -0.9 -0.4 0
v -0.8 -0.4 0
v -0.8 -0.5 0
v -0.9 -0.3 0.1
v -0.9 -0.4 0.1
v -0.8 -0.4 0.1
v -0.8 -0.3 0.1
v -0.9 -0.4 0
v -0.9 -0.3 0
v -0.8 -0.3 0
v -0.8 -0.4 0
v -0.9 -0.2 0.1
v -0.9 -0.3 0.1
v -0.8 -0.3 0.1
v -0.8 -0.2 0.1
v -0.9 -0.3 0
v -0.9 -0.2 0
v -0.8 -0.2 0
v -0.8 -0.3 0
v -0.9 -0.1 0.1
v -0.9 -0.2 0.1
v -0.8 -0.2 0.1
v -0.8 -0.1 0.1
v -0.9 -0.2 0
v -0.9 -0.1 0
v -0.8 -0.1 0
v -0.8 -0.2 0
v -0.9 0 0.1
v -0.9 -0.1 0.1
v -0.8 -0.1 0.1
v -0.8 0 0.1
v -0.9 -0.1 0
v -0.9 0 0
v -0.8 0 0
v -0.8 -0.1 0
v -0.9 0.1 0.1
v -0.9 0 0.1
v -0.8 0 0.1
v -0.8 0.1 0.1
v -0.9 0 0
v -0.9 0.1 0
v -0.8 0.1 0
v -0.8 0 0
v -0.9 0.2 0.1
v -0.9 0.1 0.1
v -0.8 0.1 0.1
v -0.8 0.2 0.1
v -0.9 0.1 0
v -0.9 0.2 0
v -0.8 0.2 0
v -0.8 0.1 0
v -0.9 0.3 0.1
v -0.9 0.2 0.1
v -0.8 0.2 0.1
v -0.8 0.3 0.1
v -0.9 0.2 0
v -0.9 0.3 0
v -0.8 0.3 0
v -0.8 0.2 0
v -0.9 0.4 0.1
v -0.9 0.3 0.1
v -0.8 0.3 0.1
v -0.8 0.4 0.1
v -0.9 0.3 0
v -0.9 0.4 0
v -0.8 0.4 0
v -0.8 0.3 0
v -0.9 0.5 0.1
v -0.9 0.4 0.1
v -0.8 0.4 0.1
v -0.8 0.5 0.1
v -0.9 0.4 0
v -0.9 0.5 0
v -0.8 0.5 0
v -0.8 0.4 0
v -0.9 0.6 0.1
v -0.9 0.5 0.1
v -0.8 0.5 0.1
v -0.8 0.6 0.1
v -0.9 0.5 0
v -0.9 0.6 0
v -0.8 0.6 0
v -0.8 0.5 0
v -0.9 0.7 0.1
v -0.9 0.6 0.1
v -0.8 0.6 0.1
v -0.8 0.7 0.1
v -0.9 0.6 0
v -0.9 0.7 0
v -0.8 0.7 0
v -0.8 0.6 0
v -0.9 0.8 0.1
v -0.9 0.7 0.1
v -0.8 0.7 0.1
v -0.8 0.8 0.1
v -0.9 0.7 0
v -0.9 0.8 0
v -0.8 0.8 0
v -0.8 0.7 0
v -0.9 0.9 0.1
v -0.9 0.8 0.1
v -0.8 0.8 0.1
v -0.8 0.9 0.1
v -0.9 0.8 0
v -0.9 0.9 0
v -0.8 0.9 0
v -0.8 0.8 0
v -0.9 1 0.1
v -0.9 0.9 0.1
v -0.8 0.9 0.1
v -0.8 1 0.1
v -0.9 0.9 0
v -0.9 1 0
v -0.8 1 0
v -0.8 0.9 0
v -0.9 1.1 0.1
v -0.9 1 0.1
v -0.8 1 0.1
v -0.8 1.1 0.1
v -0.9 1 0
v -0.9 1.1 0
v -0.8 1.1 0
v -0.8 1 0
v -0.9 1.2 0.1
v -0.9 1.1 0.1
v -0.8 1.1 0.1
v -0.8 1.2 0.1
v -0.9 1.1 0
v -0.9 1.2 0
v -0.8 1.2 0
v -0.8 1.1 0
v -0.8 1.2 0.1
v -0.8 1.2 0
v -0.9 1.2 0
v -0.9 1.2 0.1
v -0.8 -1.1 0.1
v -0.8 -1.2 0.1
v -0.7 -1.2 0.1
v -0.7 -1.1 0.1
v -0.8 -1.2 0
v -0.8 -1.1 0
v -0.7 -1.1 0
v -0.7 -1.2 0
v -0.8 -1.2 0.1
v -0.8 -1.2 0
v -0.7 -1.2 0
v -0.7 -1.2 0.1
v -0.8 -1 0.1
v -0.8 -1.1 0.1
v -0.7 -1.1 0.1
v -0.7 -1 0.1
v -0.8 -1.1 0
v -0.8 -1 0
v -0.7 -1 0
v -0.7 -1.1 0
v -0.8 -0.9 0.1
v -0.8 -1 0.1
v -0.7 -1 0.1
v -0.7 -0.9 0.1
v -0.8 -1 0
v -0.8 -0.9 0
v -0.7 -0.9 0
v -0.7 -1 0
v -0.8 -0.8 0.1
v -0.8 -0.9 0.1
v -0.7 -0.9 0.1
v -0.7 -0.8 0.1
v -0.8 -0.9 0
v -0.8 -0.8 0
v -0.7 -0.8 0
v -0.7 -0.9 0
v -0.8 -0.7 0.1
v -0.8 -0.8 0.1
v -0.7 -0.8 0.1
v -0.7 -0.7 0.1
v -0.8 -0.8 0
v -0.8 -0.7 0
v -0.7 -0.7 0
v -0.7 -0.8 0
v -0.8 -0.6 0.1
v -0.8 -0.7 0.1
v -0.7 -0.7 0.1
v -0.7 -0.6 0.1
v -0.8 -0.7 0
v -0.8 -0.6 0
v -0.7 -0.6 0
v -0.7 -0.7 0
v -0.8 -0.5 0.1
v -0.8 -0.6 0.1
v -0.7 -0.6 0.1
v -0.7 -0.5 0.1
v -0.8 -0.6 0
v -0.8 -0.5 0
v -0.7 -0.5 0
v -0.7 -0.6 0
v -0.8 -0.4 0.1
v -0.8 -0.5 0.1
v -0.7 -0.5 0.1
v -0.7 -0.4 0.1
v -0.8 -0.5 0
v -0.8 -0.4 0
v -0.7 -0.4 0
v -0.7 -0.5 0
v -0.8 -0.3 0.1
v -0.8 -0.4 0.1
v -0.7 -0.4 0.1
v -0.7 -0.3 0.1
v -0.8 -0.4 0
v -0.8 -0.3 0
v -0.7 -0.3 0
v -0.7 -0.4 0
v -0.8 -0.2 0.1
v -0.8 -0.3 0.1
v -0.7 -0.3 0.1
v -0.7 -0.2 0.1
v -0.8 -0.3 0
v -0.8 -0.2 0
v -0.7 -0.2 0
v -0.7 -0.3 0
v -0.8 -0.1 0.1
v -0.8 -0.2 0.1
v -0.7 -0.2 0.1
v -0.7 -0.1 0.1
v -0.8 -0.2 0
v -0.8 -0.1 0
v -0.7 -0.1 0
v -0.7 -0.2 0
v -0.8 0 0.1
v -0.8 -0.1 0.1
v -0.7 -0.1 0.1
v -0.7 0 0.1
v -0.8 -0.1 0
v -0.8 0 0
v -0.7 0 0
v -0.7 -0.1 0
v -0.8 0.1 0.1
v -0.8 0 0.1
v -0.7 0 0.1
v -0.7 0.1 0.1
v -0.8 0 0
v -0.8 0.1 0
v -0.7 0.1 0
v -0.7 0 0
v -0.8 0.2 0.1
v -0.8 0.1 0.1
v -0.7 0.1 0.1
v -0.7 0.2 0.1
v -0.8 0.1 0
v -0.8 0.2 0
v -0.7 0.2 0
v -0.7 0.1 0
v -0.8 0.3 0.1
v -0.8 0.2 0.1
v -0.7 0.2 0.1
v -0.7 0.3 0.1
v -0.8 0.2 0
v -0.8 0.3 0
v -0.7 0.3 0
v -0.7 0.2 0
v -0.8 0.4 0.1
v -0.8 0.3 0.1
v -0.7 0.3 0.1
v -0.7 0.4 0.1
v -0.8 0.3 0
v -0.8 0.4 0
v -0.7 0.4 0
v -0.7 0.3 0
v -0.8 0.5 0.1
v -0.8 0.4 0.1
v -0.7 0.4 0.1
v -0.7 0.5 0.1
v -0.8 0.4 0
v -0.8 0.5 0
v -0.7 0.5 0
v -0.7 0.4 0
v -0.8 0.6 0.1
v -0.8 0.5 0.1
v -0.7 0.5 0.1
v -0.7 0.6 0.1
v -0.8 0.5 0
v -0.8 0.6 0
v -0.7 0.6 0
v -0.7 0.5 0
v -0.8 0.7 0.1
v -0.8 0.6 0.1
v -0.7 0.6 0.1
v -0.7 0.7 0.1
v -0.8 0.6 0
v -0.8 0.7 0
v -0.7 0.7 0
v -0.7 0.6 0
v -0.8 0.8 0.1
v -0.8 0.7 0.1
v -0.7 0.7 0.1
v -0.7 0.8 0.1
v -0.8 0.7 0
v -0.8 0.8 0
v -0.7 0.8 0
v -0.7 0.7 0
v -0.8 0.9 0.1
v -0.8 0.8 0.1
v -0.7 0.8 0.1
v -0.7 0.9 0.1
v -0.8 0.8 0
v -0.8 0.9 0
v -0.7 0.9 0
v -0.7 0.8 0
v -0.8 1 0.1
v -0.8 0.9 0.1
v -0.7 0.9 0.1
v -0.7 1 0.1
v -0.8 0.9 0
v -0.8 1 0
v -0.7 1 0
v -0.7 0.9 0
v -0.8 1.1 0.1
v -0.8 1 0.1
v -0.7 1 0.1
v -0.7 1.1 0.1
v -0.8 1 0
v -0.8 1.1 0
v -0.7 1.1 0
v -0.7 1 0
v -0.8 1.2 0.1
v -0.8 1.1 0.1
v -0.7 1.1 0.1
v -0.7 1.2 0.1
v -0.8 1.1 0
v -0.8 1.2 0
v -0.7 1.2 0
v -0.7 1.1 0
v -0.7 1.2 0.1
v -0.7 1.2 0
v -0.8 1.2 0
v -0.8 1.2 0.1
v -0.7 -1.1 0.1
v -0.7 -1.2 0.1
v -0.6 -1.2 0.1
v -0.6 -1.1 0.1
v -0.7 -1.2 0
v -0.7 -1.1 0
v -0.6 -1.1 0
v -0.6 -1.2 0
v -0.7 -1.2 0.1
v -0.7 -1.2 0
v -0.6 -1.2 0
v -0.6 -1.2 0.1
v -0.7 -1 0.1
v -0.7 -1.1 0.1
v -0.6 -1.1 0.1
v -0.6 -1 0.1
v -0.7 -1.1 0
v -0.7 -1 0
v -0.6 -1 0
v -0.6 -1.1 0
v -0.7 -0.9 0.1
v -0.7 -1 0.1
v -0.6 -1 0.1
v -0.6 -0.9 0.1
v -0.7 -1 0
v -0.7 -0.9 0
v -0.6 -0.9 0
v -0.6 -1 0
v -0.7 -0.8 0.1
v -0.7 -0.9 0.1
v -0.6 -0.9 0.1
v -0.6 -0.8 0.1
v -0.7 -0.9 0
v -0.7 -0.8 0
v -0.6 -0.8 0
v -0.6 -0.9 0
v -0.7 -0.7 0.1
v -0.7 -0.8 0.1
v -0.6 -0.8 0.1
v -0.6 -0.7 0.1
v -0.7 -0.8 0
v -0.7 -0.7 0
v -0.6 -0.7 0
v -0.6 -0.8 0
v -0.7 -0.6 0.1
v -0.7 -0.7 0.1
v -0.6 -0.7 0.1
v -0.6 -0.6 0.1
v -0.7 -0.7 0
v -0.7 -0.6 0
v -0.6 -0.6 0
v -0.6 -0.7 0
v -0.7 -0.5 0.1
v -0.7 -0.6 0.1
v -0.6 -0.6 0.1
v -0.6 -0.5 0.1
v -0.7 -0.6 0
v -0.7 -0.5 0
v -0.6 -0.5 0
v -0.6 -0.6 0
v -0.7 -0.4 0.1
v -0.7 -0.5 0.1
v -0.6 -0.5 0.1
v -0.6 -0.4 0.1
v -0.7 -0.5 0
v -0.7 -0.4 0
v -0.6 -0.4 0
v -0.6 -0.5 0
v -0.7 -0.3 0.1
v -0.7 -0.4 0.1
v -0.6 -0.4 0.1
v -0.6 -0.3 0.1
v -0.7 -0.4 0
v -0.7 -0.3 0
v -0.6 -0.3 0
v -0.6 -0.4 0
v -0.7 -0.2 0.1
v -0.7 -0.3 0.1
v -0.6 -0.3 0.1
v -0.6 -0.2 0.1
v -0.7 -0.3 0
v -0.7 -0.2 0
v -0.6 -0.2 0
v -0.6 -0.3 0
v -0.7 -0.1 0.1
v -0.7 -0.2 0.1
v -0.6 -0.2 0.1
v -0.6 -0.1 0.1
v -0.7 -0.2 0
v -0.7 -0.1 0
v -0.6 -0.1 0
v -0.6 -0.2 0
v -0.7 0 0.1
v -0.7 -0.1 0.1
v -0.6 -0.1 0.1
v -0.6 0 0.1
v -0.7 -0.1 0
v -0.7 0 0
v -0.6 0 0
v -0.6 -0.1 0
v -0.7 0.1 0.1
v -0.7 0 0.1
v -0.6 0 0.1
v -0.6 0.1 0.1
v -0.7 0 0
v -0.7 0.1 0
v -0.6 0.1 0
v -0.6 0 0
v -0.7 0.2 0.1
v -0.7 0.1 0.1
v -0.6 0.1 0.1
v -0.6 0.2 0.1
v -0.7 0.1 0
v -0.7 0.2 0
v -0.6 0.2 0
v -0.6 0.1 0
v -0.7 0.3 0.1
v -0.7 0.2 0.1
v -0.6 0.2 0.1
v -0.6 0.3 0.1
v -0.7 0.2 0
v -0.7 0.3 0
v -0.6 0.3 0
v -0.6 0.2 0
v -0.7 0.4 0.1
v -0.7 0.3 0.1
v -0.6 0.3 0.1
v -0.6 0.4 0.1
v -0.7 0.3 0
v -0.7 0.4 0
v -0.6 0.4 0
v -0.6 0.3 0
v -0.7 0.5 0.1
v -0.7 0.4 0.1
v -0.6 0.4 0.1
v -0.6 0.5 0.1
v -0.7 0.4 0
v -0.7 0.5 0
v -0.6 0.5 0
v -0.6 0.4 0
v -0.7 0.6 0.1
v -0.7 0.5 0.1
v -0.6 0.5 0.1
v -0.6 0.6 0.1
v -0.7 0.5 0
v -0.7 0.6 0
v -0.6 0.6 0
v -0.6 0.5 0
v -0.7 0.7 0.1
v -0.7 0.6 0.1
v -0.6 0.6 0.1
v -0.6 0.7 0.1
v -0.7 0.6 0
v -0.7 0.7 0
v -0.6 0.7 0
v -0.6 0.6 0
v -0.7 0.8 0.1
v -0.7 0.7 0.1
v -0.6 0.7 0.1
v -0.6 0.8 0.1
v -0.7 0.7 0
v -0.7 0.8 0
v -0.6 0.8 0
v -0.6 0.7 0
v -0.7 0.9 0.1
v -0.7 0.8 0.1
v -0.6 0.8 0.1
v -0.6 0.9 0.1
v -0.7 0.8 0
v -0.7 0.9 0
v -0.6 0.9 0
v -0.6 0.8 0
v -0.7 1 0.1
v -0.7 0.9 0.1
v -0.6 0.9 0.1
v -0.6 1 0.1
v -0.7 0.9 0
v -0.7 1 0
v -0.6 1 0
v -0.6 0.9 0
v -0.7 1.1 0.1
v -0.7 1 0.1
v -0.6 1 0.1
v -0.6 1.1 0.1
v -0.7 1 0
v -0.7 1.1 0
v -0.6 1.1 0
v -0.6 1 0
v -0.7 1.2 0.1
v -0.7 1.1 0.1
v -0.6 1.1 0.1
v -0.6 1.2 0.1
v -0.7 1.1 0
v -0.7 1.2 0
v -0.6 1.2 0
v -0.6 1.1 0
v -0.6 1.2 0.1
v -0.6 1.2 0
v -0.7 1.2 0
v -0.7 1.2 0.1
v -0.6 -1.1 0.1
v -0.6 -1.2 0.1
v -0.5 -1.2 0.1
v -0.5 -1.1 0.1
v -0.6 -1.2 0
v -0.6 -1.1 0
v -0.5 -1.1 0
v -0.5 -1.2 0
v -0.6 -1.2 0.1
v -0.6 -1.2 0
v -0.5 -1.2 0
v -0.5 -1.2 0.1
v -0.6 -1 0.1
v -0.6 -1.1 0.1
v -0.5 -1.1 0.1
v -0.5 -1 0.1
v -0.6 -1.1 0
v -0.6 -1 0
v -0.5 -1 0
v -0.5 -1.1 0
v -0.6 -0.9 0.1
v -0.6 -1 0.1
v -0.5 -1 0.1
v -0.5 -0.9 0.1
v -0.6 -1 0
v -0.6 -0.9 0
v -0.5 -0.9 0
v -0.5 -1 0
v -0.6 -0.8 0.1
v -0.6 -0.9 0.1
v -0.5 -0.9 0.1
v -0.5 -0.8 0.1
v -0.6 -0.9 0
v -0.6 -0.8 0
v -0.5 -0.8 0
v -0.5 -0.9 0
v -0.6 -0.7 0.1
v -0.6 -0.8 0.1
v -0.5 -0.8 0.1
v -0.5 -0.7 0.1
v -0.6 -0.8 0
v -0.6 -0.7 0
v -0.5 -0.7 0
v -0.5 -0.8 0
v -0.6 -0.6 0.1
v -0.6 -0.7 0.1
v -0.5 -0.7 0.1
v -0.5 -0.6 0.1
v -0.6 -0.7 0
v -0.6 -0.6 0
v -0.5 -0.6 0
v -0.5 -0.7 0
v -0.6 -0.5 0.1
v -0.6 -0.6 0.1
v -0.5 -0.6 0.1
v -0.5 -0.5 0.1
v -0.6 -0.6 0
v -0.6 -0.5 0
v -0.5 -0.5 0
v -0.5 -0.6 0
v -0.6 -0.4 0.1
v -0.6 -0.5 0.1
v -0.5 -0.5 0.1
v -0.5 -0.4 0.1
v -0.6 -0.5 0
v -0.6 -0.4 0
v -0.5 -0.4 0
v -0.5 -0.5 0
v -0.6 -0.3 0.1
v -0.6 -0.4 0.1
v -0.5 -0.4 0.1
v -0.5 -0.3 0.1
v -0.6 -0.4 0
v -0.6 -0.3 0
v -0.5 -0.3 0
v -0.5 -0.4 0
v -0.6 -0.2 0.1
v -0.6 -0.3 0.1
v -0.5 -0.3 0.1
v -0.5 -0.2 0.1
v -0.6 -0.3 0
v -0.6 -0.2 0
v -0.5 -0.2 0
v -0.5 -0.3 0
v -0.6 -0.1 0.1
v -0.6 -0.2 0.1
v -0.5 -0.2 0.1
v -0.5 -0.1 0.1
v -0.6 -0.2 0
v -0.6 -0.1 0
v -0.5 -0.1 0
v -0.5 -0.2 0
v -0.6 0 0.1
v -0.6 -0.1 0.1
v -0.5 -0.1 0.1
v -0.5 0 0.1
v -0.6 -0.1 0
v -0.6 0 0
v -0.5 0 0
v -0.5 -0.1 0
v -0.6 0.1 0.1
v -0.6 0 0.1
v -0.5 0 0.1
v -0.5 0.1 0.1
v -0.6 0 0
v -0.6 0.1 0
v -0.5 0.1 0
v -0.5 0 0
v -0.6 0.2 0.1
v -0.6 0.1 0.1
v -0.5 0.1 0.1
v -0.5 0.2 0.1
v -0.6 0.1 0
v -0.6 0.2 0
v -0.5 0.2 0
v -0.5 0.1 0
v -0.6 0.3 0.1
v -0.6 0.2 0.1
v -0.5 0.2 0.1
v -0.5 0.3 0.1
v -0.6 0.2 0
v -0.6 0.3 0
v -0.5 0.3 0
v -0.5 0.2 0
v -0.6 0.4 0.1
v -0.6 0.3 0.1
v -0.5 0.3 0.1
v -0.5 0.4 0.1
v -0.6 0.3 0
v -0.6 0.4 0
v -0.5 0.4 0
v -0.5 0.3 0
v -0.6 0.5 0.1
v -0.6 0.4 0.1
v -0.5 0.4 0.1
v -0.5 0.5 0.1
v -0.6 0.4 0
v -0.6 0.5 0
v -0.5 0.5 0
v -0.5 0.4 0
v -0.6 0.6 0.1
v -0.6 0.5 0.1
v -0.5 0.5 0.1
v -0.5 0.6 0.1
v -0.6 0.5 0
v -0.6 0.6 0
v -0.5 0.6 0
v -0.5 0.5 0
v -0.6 0.7 0.1
v -0.6 0.6 0.1
v -0.5 0.6 0.1
v -0.5 0.7 0.1
v -0.6 0.6 0
v -0.6 0.7 0
v -0.5 0.7 0
v -0.5 0.6 0
v -0.6 0.8 0.1
v -0.6 0.7 0.1
v -0.5 0.7 0.1
v -0.5 0.8 0.1
v -0.6 0.7 0
v -0.6 0.8 0
v -0.5 0.8 0
v -0.5 0.7 0
v -0.6 0.9 0.1
v -0.6 0.8 0.1
v -0.5 0.8 0.1
v -0.5 0.9 0.1
v -0.6 0.8 0
v -0.6 0.9 0
v -0.5 0.9 0
v -0.5 0.8 0
v -0.6 1 0.1
v -0.6 0.9 0.1
v -0.5 0.9 0.1
v -0.5 1 0.1
v -0.6 0.9 0
v -0.6 1 0
v -0.5 1 0
v -0.5 0.9 0
v -0.6 1.1 0.1
v -0.6 1 0.1
v -0.5 1 0.1
v -0.5 1.1 0.1
v -0.6 1 0
v -0.6 1.1 0
v -0.5 1.1 0
v -0.5 1 0
v -0.6 1.2 0.1
v -0.6 1.1 0.1
v -0.5 1.1 0.1
v -0.5 1.2 0.1
v -0.6 1.1 0
v -0.6 1.2 0
v -0.5 1.2 0
v -0.5 1.1 0
v -0.5 1.2 0.1
v -0.5 1.2 0
v -0.6 1.2 0
v -0.6 1.2 0.1
v -0.5 -1.1 0.1
v -0.5 -1.2 0.1
v -0.4 -1.2 0.1
v -0.4 -1.1 0.1
v -0.5 -1.2 0
v -0.5 -1.1 0
v -0.4 -1.1 0
v -0.4 -1.2 0
v -0.5 -1.2 0.1
v -0.5 -1.2 0
v -0.4 -1.2 0
v -0.4 -1.2 0.1
v -0.5 -1 0.1
v -0.5 -1.1 0.1
v -0.4 -1.1 0.1
v -0.4 -1 0.1
v -0.5 -1.1 0
v -0.5 -1 0
v -0.4 -1 0
v -0.4 -1.1 0
v -0.5 -0.9 0.1
v -0.5 -1 0.1
v -0.4 -1 0.1
v -0.4 -0.9 0.1
v -0.5 -1 0
v -0.5 -0.9 0
v -0.4 -0.9 0
v -0.4 -1 0
v -0.5 -0.8 0.1
v -0.5 -0.9 0.1
v -0.4 -0.9 0.1
v -0.4 -0.8 0.1
v -0.5 -0.9 0
v -0.5 -0.8 0
v -0.4 -0.8 0
v -0.4 -0.9 0
v -0.5 -0.7 0.1
v -0.5 -0.8 0.1
v -0.4 -0.8 0.1
v -0.4 -0.7 0.1
v -0.5 -0.8 0
v -0.5 -0.7 0
v -0.4 -0.7 0
v -0.4 -0.8 0
v -0.5 -0.6 0.1
v -0.5 -0.7 0.1
v -0.4 -0.7 0.1
v -0.4 -0.6 0.1
v -0.5 -0.7 0
v -0.5 -0.6 0
v -0.4 -0.6 0
v -0.4 -0.7 0
v -0.5 -0.5 0.1
v -0.5 -0.6 0.1
v -0.4 -0.6 0.1
v -0.4 -0.5 0.1
v -0.5 -0.6 0
v -0.5 -0.5 0
v -0.4 -0.5 0
v -0.4 -0.6 0
v -0.5 -0.4 0.1
v -0.5 -0.5 0.1
v -0.4 -0.5 0.1
v -0.4 -0.4 0.1
v -0.5 -0.5 0
v -0.5 -0.4 0
v -0.4 -0.4 0
v -0.4 -0.5 0
v -0.5 -0.3 0.1
v -0.5 -0.4 0.1
v -0.4 -0.4 0.1
v -0.4 -0.3 0.1
v -0.5 -0.4 0
v -0.5 -0.3 0
v -0.4 -0.3 0
v -0.4 -0.4 0
v -0.5 -0.2 0.1
v -0.5 -0.3 0.1
v -0.4 -0.3 0.1
v -0.4 -0.2 0.1
v -0.5 -0.3 0
v -0.5 -0.2 0
v -0.4 -0.2 0
v -0.4 -0.3 0
v -0.5 -0.1 0.1
v -0.5 -0.2 0.1
v -0.4 -0.2 0.1
v -0.4 -0.1 0.1
v -0.5 -0.2 0
v -0.5 -0.1 0
v -0.4 -0.1 0
v -0.4 -0.2 0
v -0.5 0 0.1
v -0.5 -0.1 0.1
v -0.4 -0.1 0.1
v -0.4 0 0.1
v -0.5 -0.1 0
v -0.5 0 0
v -0.4 0 0
v -0.4 -0.1 0
v -0.5 0.1 0.1
v -0.5 0 0.1
v -0.4 0 0.1
v -0.4 0.1 0.1
v -0.5 0 0
v -0.5 0.1 0
v -0.4 0.1 0
v -0.4 0 0
v -0.5 0.2 0.1
v -0.5 0.1 0.1
v -0.4 0.1 0.1
v -0.4 0.2 0.1
v -0.5 0.1 0
v -0.5 0.2 0
v -0.4 0.2 0
v -0.4 0.1 0
v -0.5 0.3 0.1
v -0.5 0.2 0.1
v -0.4 0.2 0.1
v -0.4 0.3 0.1
v -0.5 0.2 0
v -0.5 0.3 0
v -0.4 0.3 0
v -0.4 0.2 0
v -0.5 0.4 0.1
v -0.5 0.3 0.1
v -0.4 0.3 0.1
v -0.4 0.4 0.1
v -0.5 0.3 0
v -0.5 0.4 0
v -0.4 0.4 0
v -0.4 0.3 0
v -0.5 0.5 0.1
v -0.5 0.4 0.1
v -0.4 0.4 0.1
v -0.4 0.5 0.1
v -0.5 0.4 0
v -0.5 0.5 0
v -0.4 0.5 0
v -0.4 0.4 0
v -0.5 0.6 0.1
v -0.5 0.5 0.1
v -0.4 0.5 0.1
v -0.4 0.6 0.1
v -0.5 0.5 0
v -0.5 0.6 0
v -0.4 0.6 0
v -0.4 0.5 0
v -0.5 0.7 0.1
v -0.5 0.6 0.1
v -0.4 0.6 0.1
v -0.4 0.7 0.1
v -0.5 0.6 0
v -0.5 0.7 0
v -0.4 0.7 0
v -0.4 0.6 0
v -0.5 0.8 0.1
v -0.5 0.7 0.1
v -0.4 0.7 0.1
v -0.4 0.8 0.1
v -0.5 0.7 0
v -0.5 0.8 0
v -0.4 0.8 0
v -0.4 0.7 0
v -0.5 0.9 0.1
v -0.5 0.8 0.1
v -0.4 0.8 0.1
v -0.4 0.9 0.1
v -0.5 0.8 0
v -0.5 0.9 0
v -0.4 0.9 0
v -0.4 0.8 0
v -0.5 1 0.1
v -0.5 0.9 0.1
v -0.4 0.9 0.1
v -0.4 1 0.1
v -0.5 0.9 0
v -0.5 1 0
v -0.4 1 0
v -0.4 0.9 0
v -0.5 1.1 0.1
v -0.5 1 0.1
v -0.4 1 0.1
v -0.4 1.1 0.1
v -0.5 1 0
v -0.5 1.1 0
v -0.4 1.1 0
v -0.4 1 0
v -0.5 1.2 0.1
v -0.5 1.1 0.1
v -0.4 1.1 0.1
v -0.4 1.2 0.1
v -0.5 1.1 0
v -0.5 1.2 0
v -0.4 1.2 0
v -0.4 1.1 0
v -0.4 1.2 0.1
v -0.4 1.2 0
v -0.5 1.2 0
v -0.5 1.2 0.1
v -0.4 -1.1 0.1
v -0.4 -1.2 0.1
v -0.3 -1.2 0.1
v -0.3 -1.1 0.1
v -0.4 -1.2 0
v -0.4 -1.1 0
v -0.3 -1.1 0
v -0.3 -1.2 0
v -0.4 -1.2 0.1
v -0.4 -1.2 0
v -0.3 -1.2 0
v -0.3 -1.2 0.1
v -0.4 -1 0.1
v -0.4 -1.1 0.1
v -0.3 -1.1 0.1
v -0.3 -1 0.1
v -0.4 -1.1 0
v -0.4 -1 0
v -0.3 -1 0
v -0.3 -1.1 0
v -0.4 -0.9 0.1
v -0.4 -1 0.1
v -0.3 -1 0.1
v -0.3 -0.9 0.1
v -0.4 -1 0
v -0.4 -0.9 0
v -0.3 -0.9 0
v -0.3 -1 0
v -0.4 -0.8 0.1
v -0.4 -0.9 0.1
v -0.3 -0.9 0.1
v -0.3 -0.8 0.1
v -0.4 -0.9 0
v -0.4 -0.8 0
v -0.3 -0.8 0
v -0.3 -0.9 0
v -0.4 -0.7 0.1
v -0.4 -0.8 0.1
v -0.3 -0.8 0.1
v -0.3 -0.7 0.1
v -0.4 -0.8 0
v -0.4 -0.7 0
v -0.3 -0.7 0
v -0.3 -0.8 0
v -0.4 -0.6 0.1
v -0.4 -0.7 0.1
v -0.3 -0.7 0.1
v -0.3 -0.6 0.1
v -0.4 -0.7 0
v -0.4 -0.6 0
v -0.3 -0.6 0
v -0.3 -0.7 0
v -0.4 -0.5 0.1
v -0.4 -0.6 0.1
v -0.3 -0.6 0.1
v -0.3 -0.5 0.1
v -0.4 -0.6 0
v -0.4 -0.5 0
v -0.3 -0.5 0
v -0.3 -0.6 0
v -0.4 -0.4 0.1
v -0.4 -0.5 0.1
v -0.3 -0.5 0.1
v -0.3 -0.4 0.1
v -0.4 -0.5 0
v -0.4 -0.4 0
v -0.3 -0.4 0
v -0.3 -0.5 0
v -0.4 -0.3 0.1
v -0.4 -0.4 0.1
v -0.3 -0.4 0.1
v -0.3 -0.3 0.1
v -0.4 -0.4 0
v -0.4 -0.3 0
v -0.3 -0.3 0
v -0.3 -0.4 0
v -0.4 -0.2 0.1
v -0.4 -0.3 0.1
v -0.3 -0.3 0.1
v -0.3 -0.2 0.1
v -0.4 -0.3 0
v -0.4 -0.2 0
v -0.3 -0.2 0
v -0.3 -0.3 0
v -0.4 -0.1 0.1
v -0.4 -0.2 0.1
v -0.3 -0.2 0.1
v -0.3 -0.1 0.1
v -0.4 -0.2 0
v -0.4 -0.1 0
v -0.3 -0.1 0
v -0.3 -0.2 0
v -0.4 0 0.1
v -0.4 -0.1 0.1
v -0.3 -0.1 0.1
v -0.3 0 0.1
v -0.4 -0.1 0
v -0.4 0 0
v -0.3 0 0
v -0.3 -0.1 0
v -0.4 0.1 0.1
v -0.4 0 0.1
v -0.3 0 0.1
v -0.3 0.1 0.1
v -0.4 0 0
v -0.4 0.1 0
v -0.3 0.1 0
v -0.3 0 0
v -0.4 0.2 0.1
v -0.4 0.1 0.1
v -0.3 0.1 0.1
v -0.3 0.2 0.1
v -0.4 0.1 0
v -0.4 0.2 0
v -0.3 0.2 0
v -0.3 0.1 0
v -0.4 0.3 0.1
v -0.4 0.2 0.1
v -0.3 0.2 0.1
v -0.3 0.3 0.1
v -0.4 0.2 0
v -0.4 0.3 0
v -0.3 0.3 0
v -0.3 0.2 0
v -0.4 0.4 0.1
v -0.4 0.3 0.1
v -0.3 0.3 0.1
v -0.3 0.4 0.1
v -0.4 0.3 0
v -0.4 0.4 0
v -0.3 0.4 0
v -0.3 0.3 0
v -0.4 0.5 0.1
v -0.4 0.4 0.1
v -0.3 0.4 0.1
v -0.3 0.5 0.1
v -0.4 0.4 0
v -0.4 0.5 0
v -0.3 0.5 0
v -0.3 0.4 0
v -0.4 0.6 0.1
v -0.4 0.5 0.1
v -0.3 0.5 0.1
v -0.3 0.6 0.1
v -0.4 0.5 0
v -0.4 0.6 0
v -0.3 0.6 0
v -0.3 0.5 0
v -0.4 0.7 0.1
v -0.4 0.6 0.1
v -0.3 0.6 0.1
v -0.3 0.7 0.1
v -0.4 0.6 0
v -0.4 0.7 0
v -0.3 0.7 0
v -0.3 0.6 0
v -0.4 0.8 0.1
v -0.4 0.7 0.1
v -0.3 0.7 0.1
v -0.3 0.8 0.1
v -0.4 0.7 0
v -0.4 0.8 0
v -0.3 0.8 0
v -0.3 0.7 0
v -0.4 0.9 0.1
v -0.4 0.8 0.1
v -0.3 0.8 0.1
v -0.3 0.9 0.1
v -0.4 0.8 0
v -0.4 0.9 0
v -0.3 0.9 0
v -0.3 0.8 0
v -0.4 1 0.1
v -0.4 0.9 0.1
v -0.3 0.9 0.1
v -0.3 1 0.1
v -0.4 0.9 0
v -0.4 1 0
v -0.3 1 0
v -0.3 0.9 0
v -0.4 1.1 0.1
v -0.4 1 0.1
v -0.3 1 0.1
v -0.3 1.1 0.1
v -0.4 1 0
v -0.4 1.1 0
v -0.3 1.1 0
v -0.3 1 0
v -0.4 1.2 0.1
v -0.4 1.1 0.1
v -0.3 1.1 0.1
v -0.3 1.2 0.1
v -0.4 1.1 0
v -0.4 1.2 0
v -0.3 1.2 0
v -0.3 1.1 0
v -0.3 1.2 0.1
v -0.3 1.2 0
v -0.4 1.2 0
v -0.4 1.2 0.1
v -0.3 -1.1 0.1
v -0.3 -1.2 0.1
v -0.2 -1.2 0.1
v -0.2 -1.1 0.1
v -0.3 -1.2 0
v -0.3 -1.1 0
v -0.2 -1.1 0
v -0.2 -1.2 0
v -0.3 -1.2 0.1
v -0.3 -1.2 0
v -0.2 -1.2 0
v -0.2 -1.2 0.1
v -0.3 -1 0.1
v -0.3 -1.1 0.1
v -0.2 -1.1 0.1
v -0.2 -1 0.1
v -0.3 -1.1 0
v -0.3 -1 0
v -0.2 -1 0
v -0.2 -1.1 0
v -0.3 -0.9 0.1
v -0.3 -1 0.1
v -0.2 -1 0.1
v -0.2 -0.9 0.1
v -0.3 -1 0
v -0.3 -0.9 0
v -0.2 -0.9 0
v -0.2 -1 0
v -0.3 -0.8 0.1
v -0.3 -0.9 0.1
v -0.2 -0.9 0.1
v -0.2 -0.8 0.1
v -0.3 -0.9 0
v -0.3 -0.8 0
v -0.2 -0.8 0
v -0.2 -0.9 0
v -0.3 -0.7 0.1
v -0.3 -0.8 0.1
v -0.2 -0.8 0.1
v -0.2 -0.7 0.1
v -0.3 -0.8 0
v -0.3 -0.7 0
v -0.2 -0.7 0
v -0.2 -0.8 0
v -0.3 -0.6 0.1
v -0.3 -0.7 0.1
v -0.2 -0.7 0.1
v -0.2 -0.6 0.1
v -0.3 -0.7 0
v -0.3 -0.6 0
v -0.2 -0.6 0
v -0.2 -0.7 0
v -0.3 -0.5 0.1
v -0.3 -0.6 0.1
v -0.2 -0.6 0.1
v -0.2 -0.5 0.1
v -0.3 -0.6 0
v -0.3 -0.5 0
v -0.2 -0.5 0
v -0.2 -0.6 0
v -0.3 -0.4 0.1
v -0.3 -0.5 0.1
v -0.2 -0.5 0.1
v -0.2 -0.4 0.1
v -0.3 -0.5 0
v -0.3 -0.4 0
v -0.2 -0.4 0
v -0.2 -0.5 0
v -0.3 -0.3 0.1
v -0.3 -0.4 0.1
v -0.2 -0.4 0.1
v -0.2 -0.3 0.1
v -0.3 -0.4 0
v -0.3 -0.3 0
v -0.2 -0.3 0
v -0.2 -0.4 0
v -0.3 -0.2 0.1
v -0.3 -0.3 0.1
v -0.2 -0.3 0.1
v -0.2 -0.2 0.1
v -0.3 -0.3 0
v -0.3 -0.2 0
v -0.2 -0.2 0
v -0.2 -0.3 0
v -0.3 -0.1 0.1
v -0.3 -0.2 0.1
v -0.2 -0.2 0.1
v -0.2 -0.1 0.1
v -0.3 -0.2 0
v -0.3 -0.1 0
v -0.2 -0.1 0
v -0.2 -0.2 0
v -0.3 0 0.1
v -0.3 -0.1 0.1
v -0.2 -0.1 0.1
v -0.2 0 0.1
v -0.3 -0.1 0
v -0.3 0 0
v -0.2 0 0
v -0.2 -0.1 0
v -0.3 0.1 0.1
v -0.3 0 0.1
v -0.2 0 0.1
v -0.2 0.1 0.1
v -0.3 0 0
v -0.3 0.1 0
v -0.2 0.1 0
v -0.2 0 0
v -0.3 0.2 0.1
v -0.3 0.1 0.1
v -0.2 0.1 0.1
v -0.2 0.2 0.1
v -0.3 0.1 0
v -0.3 0.2 0
v -0.2 0.2 0
v -0.2 0.1 0
v -0.3 0.3 0.1
v -0.3 0.2 0.1
v -0.2 0.2 0.1
v -0.2 0.3 0.1
v -0.3 0.2 0
v -0.3 0.3 0
v -0.2 0.3 0
v -0.2 0.2 0
v -0.3 0.4 0.1
v -0.3 0.3 0.1
v -0.2 0.3 0.1
v -0.2 0.4 0.1
v -0.3 0.3 0
v -0.3 0.4 0
v -0.2 0.4 0
v -0.2 0.3 0
v -0.3 0.5 0.1
v -0.3 0.4 0.1
v -0.2 0.4 0.1
v -0.2 0.5 0.1
v -0.3 0.4 0
v -0.3 0.5 0
v -0.2 0.5 0
v -0.2 0.4 0
v -0.3 0.6 0.1
v -0.3 0.5 0.1
v -0.2 0.5 0.1
v -0.2 0.6 0.1
v -0.3 0.5 0
v -0.3 0.6 0
v -0.2 0.6 0
v -0.2 0.5 0
v -0.3 0.7 0.1
v -0.3 0.6 0.1
v -0.2 0.6 0.1
v -0.2 0.7 0.1
v -0.3 0.6 0
v -0.3 0.7 0
v -0.2 0.7 0
v -0.2 0.6 0
v -0.3 0.8 0.1
v -0.3 0.7 0.1
v -0.2 0.7 0.1
v -0.2 0.8 0.1
v -0.3 0.7 0
v -0.3 0.8 0
v -0.2 0.8 0
v -0.2 0.7 0
v -0.3 0.9 0.1
v -0.3 0.8 0.1
v -0.2 0.8 0.1
v -0.2 0.9 0.1
v -0.3 0.8 0
v -0.3 0.9 0
v -0.2 0.9 0
v -0.2 0.8 0
v -0.3 1 0.1
v -0.3 0.9 0.1
v -0.2 0.9 0.1
v -0.2 1 0.1
v -0.3 0.9 0
v -0.3 1 0
v -0.2 1 0
v -0.2 0.9 0
v -0.3 1.1 0.1
v -0.3 1 0.1
v -0.2 1 0.1
v -0.2 1.1 0.1
v -0.3 1 0
v -0.3 1.1 0
v -0.2 1.1 0
v -0.2 1 0
v -0.3 1.2 0.1
v -0.3 1.1 0.1
v -0.2 1.1 0.1
v -0.2 1.2 0.1
v -0.3 1.1 0
v -0.3 1.2 0
v -0.2 1.2 0
v -0.2 1.1 0
v -0.2 1.2 0.1
v -0.2 1.2 0
v -0.3 1.2 0
v -0.3 1.2 0.1
v -0.2 -1.1 0.1
v -0.2 -1.2 0.1
v -0.1 -1.2 0.1
v -0.1 -1.1 0.1
v -0.2 -1.2 0
v -0.2 -1.1 0
v -0.1 -1.1 0
v -0.1 -1.2 0
v -0.2 -1.2 0.1
v -0.2 -1.2 0
v -0.1 -1.2 0
v -0.1 -1.2 0.1
v -0.2 -1 0.1
v -0.2 -1.1 0.1
v -0.1 -1.1 0.1
v -0.1 -1 0.1
v -0.2 -1.1 0
v -0.2 -1 0
v -0.1 -1 0
v -0.1 -1.1 0
v -0.2 -0.9 0.1
v -0.2 -1 0.1
v -0.1 -1 0.1
v -0.1 -0.9 0.1
v -0.2 -1 0
v -0.2 -0.9 0
v -0.1 -0.9 0
v -0.1 -1 0
v -0.2 -0.8 0.1
v -0.2 -0.9 0.1
v -0.1 -0.9 0.1
v -0.1 -0.8 0.1
v -0.2 -0.9 0
v -0.2 -0.8 0
v -0.1 -0.8 0
v -0.1 -0.9 0
v -0.2 -0.7 0.1
v -0.2 -0.8 0.1
v -0.1 -0.8 0.1
v -0.1 -0.7 0.1
v -0.2 -0.8 0
v -0.2 -0.7 0
v -0.1 -0.7 0
v -0.1 -0.8 0
v -0.2 -0.6 0.1
v -0.2 -0.7 0.1
v -0.1 -0.7 0.1
v -0.1 -0.6 0.1
v -0.2 -0.7 0
v -0.2 -0.6 0
v -0.1 -0.6 0
v -0.1 -0.7 0
v -0.2 -0.5 0.1
v -0.2 -0.6 0.1
v -0.1 -0.6 0.1
v -0.1 -0.5 0.1
v -0.2 -0.6 0
v -0.2 -0.5 0
v -0.1 -0.5 0
v -0.1 -0.6 0
v -0.2 -0.4 0.1
v -0.2 -0.5 0.1
v -0.1 -0.5 0.1
v -0.1 -0.4 0.1
v -0.2 -0.5 0
v -0.2 -0.4 0
v -0.1 -0.4 0
v -0.1 -0.5 0
v -0.2 -0.3 0.1
v -0.2 -0.4 0.1
v -0.1 -0.4 0.1
v -0.1 -0.3 0.1
v -0.2 -0.4 0
v -0.2 -0.3 0
v -0.1 -0.3 0
v -0.1 -0.4 0
v -0.2 -0.2 0.1
v -0.2 -0.3 0.1
v -0.1 -0.3 0.1
v -0.1 -0.2 0.1
v -0.2 -0.3 0
v -0.2 -0.2 0
v -0.1 -0.2 0
v -0.1 -0.3 0
v -0.2 -0.1 0.1
v -0.2 -0.2 0.1
v -0.1 -0.2 0.1
v -0.1 -0.1 0.1
v -0.2 -0.2 0
v -0.2 -0.1 0
v -0.1 -0.1 0
v -0.1 -0.2 0
v -0.2 0 0.1
v -0.2 -0.1 0.1
v -0.1 -0.1 0.1
v -0.1 0 0.1
v -0.2 -0.1 0
v -0.2 0 0
v -0.1 0 0
v -0.1 -0.1 0
v -0.2 0.1 0.1
v -0.2 0 0.1
v -0.1 0 0.1
v -0.1 0.1 0.1
v -0.2 0 0
v -0.2 0.1 0
v -0.1 0.1 0
v -0.1 0 0
v -0.2 0.2 0.1
v -0.2 0.1 0.1
v -0.1 0.1 0.1
v -0.1 0.2 0.1
v -0.2 0.1 0
v -0.2 0.2 0
v -0.1 0.2 0
v -0.1 0.1 0
v -0.2 0.3 0.1
v -0.2 0.2 0.1
v -0.1 0.2 0.1
v -0.1 0.3 0.1
v -0.2 0.2 0
v -0.2 0.3 0
v -0.1 0.3 0
v -0.1 0.2 0
v -0.2 0.4 0.1
v -0.2 0.3 0.1
v -0.1 0.3 0.1
v -0.1 0.4 0.1
v -0.2 0.3 0
v -0.2 0.4 0
v -0.1 0.4 0
v -0.1 0.3 0
v -0.2 0.5 0.1
v -0.2 0.4 0.1
v -0.1 0.4 0.1
v -0.1 0.5 0.1
v -0.2 0.4 0
v -0.2 0.5 0
v -0.1 0.5 0
v -0.1 0.4 0
v -0.2 0.6 0.1
v -0.2 0.5 0.1
v -0.1 0.5 0.1
v -0.1 0.6 0.1
v -0.2 0.5 0
v -0.2 0.6 0
v -0.1 0.6 0
v -0.1 0.5 0
v -0.2 0.7 0.1
v -0.2 0.6 0.1
v -0.1 0.6 0.1
v -0.1 0.7 0.1
v -0.2 0.6 0
v -0.2 0.7 0
v -0.1 0.7 0
v -0.1 0.6 0
v -0.2 0.8 0.1
v -0.2 0.7 0.1
v -0.1 0.7 0.1
v -0.1 0.8 0.1
v -0.2 0.7 0
v -0.2 0.8 0
v -0.1 0.8 0
v -0.1 0.7 0
v -0.2 0.9 0.1
v -0.2 0.8 0.1
v -0.1 0.8 0.1
v -0.1 0.9 0.1
v -0.2 0.8 0
v -0.2 0.9 0
v -0.1 0.9 0
v -0.1 0.8 0
v -0.2 1 0.1
v -0.2 0.9 0.1
v -0.1 0.9 0.1
v -0.1 1 0.1
v -0.2 0.9 0
v -0.2 1 0
v -0.1 1 0
v -0.1 0.9 0
v -0.2 1.1 0.1
v -0.2 1 0.1
v -0.1 1 0.1
v -0.1 1.1 0.1
v -0.2 1 0
v -0.2 1.1 0
v -0.1 1.1 0
v -0.1 1 0
v -0.2 1.2 0.1
v -0.2 1.1 0.1
v -0.1 1.1 0.1
v -0.1 1.2 0.1
v -0.2 1.1 0
v -0.2 1.2 0
v -0.1 1.2 0
v -0.1 1.1 0
v -0.1 1.2 0.1
v -0.1 1.2 0
v -0.2 1.2 0
v -0.2 1.2 0.1
v 0 -1.2 0.1
v 0 -1.2 0
v 0 -1.1 0
v 0 -1.1 0.1
v -0.1 -1.1 0.1
v -0.1 -1.2 0.1
v 0 -1.2 0.1
v 0 -1.1 0.1
v -0.1 -1.2 0
v -0.1 -1.1 0
v 0 -1.1 0
v 0 -1.2 0
v -0.1 -1.2 0.1
v -0.1 -1.2 0
v 0 -1.2 0
v 0 -1.2 0.1
v 0 -1.1 0.1
v 0 -1.1 0
v 0 -1 0
v 0 -1 0.1
v -0.1 -1 0.1
v -0.1 -1.1 0.1
v 0 -1.1 0.1
v 0 -1 0.1
v -0.1 -1.1 0
v -0.1 -1 0
v 0 -1 0
v 0 -1.1 0
v 0 -1 0.1
v 0 -1 0
v 0 -0.9 0
v 0 -0.9 0.1
v -0.1 -0.9 0.1
v -0.1 -1 0.1
v 0 -1 0.1
v 0 -0.9 0.1
v -0.1 -1 0
v -0.1 -0.9 0
v 0 -0.9 0
v 0 -1 0
v 0 -0.9 0.1
v 0 -0.9 0
v 0 -0.8 0
v 0 -0.8 0.1
v -0.1 -0.8 0.1
v -0.1 -0.9 0.1
v 0 -0.9 0.1
v 0 -0.8 0.1
v -0.1 -0.9 0
v -0.1 -0.8 0
v 0 -0.8 0
v 0 -0.9 0
v 0 -0.8 0.1
v 0 -0.8 0
v 0 -0.7 0
v 0 -0.7 0.1
v -0.1 -0.7 0.1
v -0.1 -0.8 0.1
v 0 -0.8 0.1
v 0 -0.7 0.1
v -0.1 -0.8 0
v -0.1 -0.7 0
v 0 -0.7 0
v 0 -0.8 0
v 0 -0.7 0.1
v 0 -0.7 0
v 0 -0.6 0
v 0 -0.6 0.1
v -0.1 -0.6 0.1
v -0.1 -0.7 0.1
v 0 -0.7 0.1
v 0 -0.6 0.1
v -0.1 -0.7 0
v -0.1 -0.6 0
v 0 -0.6 0
v 0 -0.7 0
v -0.1 -0.5 0.1
v -0.1 -0.6 0.1
v 0 -0.6 0.1
v 0 -0.5 0.1
v -0.1 -0.6 0
v -0.1 -0.5 0
v 0 -0.5 0
v 0 -0.6 0
v -0.1 -0.4 0.1
v -0.1 -0.5 0.1
v 0 -0.5 0.1
v 0 -0.4 0.1
v -0.1 -0.5 0
v -0.1 -0.4 0
v 0 -0.4 0
v 0 -0.5 0
v -0.1 -0.3 0.1
v -0.1 -0.4 0.1
v 0 -0.4 0.1
v 0 -0.3 0.1
v -0.1 -0.4 0
v -0.1 -0.3 0
v 0 -0.3 0
v 0 -0.4 0
v -0.1 -0.2 0.1
v -0.1 -0.3 0.1
v 0 -0.3 0.1
v 0 -0.2 0.1
v -0.1 -0.3 0
v -0.1 -0.2 0
v 0 -0.2 0
v 0 -0.3 0
v -0.1 -0.1 0.1
v -0.1 -0.2 0.1
v 0 -0.2 0.1
v 0 -0.1 0.1
v -0.1 -0.2 0
v -0.1 -0.1 0
v 0 -0.1 0
v 0 -0.2 0
v -0.1 0 0.1
v -0.1 -0.1 0.1
v 0 -0.1 0.1
v 0 0 0.1
v -0.1 -0.1 0
v -0.1 0 0
v 0 0 0
v 0 -0.1 0
v -0.1 0.1 0.1
v -0.1 0 0.1
v 0 0 0.1
v 0 0.1 0.1
v -0.1 0 0
v -0.1 0.1 0
v 0 0.1 0
v 0 0 0
v -0.1 0.2 0.1
v -0.1 0.1 0.1
v 0 0.1 0.1
v 0 0.2 0.1
v -0.1 0.1 0
v -0.1 0.2 0
v 0 0.2 0
v 0 0.1 0
v -0.1 0.3 0.1
v -0.1 0.2 0.1
v 0 0.2 0.1
v 0 0.3 0.1
v -0.1 0.2 0
v -0.1 0.3 0
v 0 0.3 0
v 0 0.2 0
v -0.1 0.4 0.1
v -0.1 0.3 0.1
v 0 0.3 0.1
v 0 0.4 0.1
v -0.1 0.3 0
v -0.1 0.4 0
v 0 0.4 0
v 0 0.3 0
v -0.1 0.5 0.1
v -0.1 0.4 0.1
v 0 0.4 0.1
v 0 0.5 0.1
v -0.1 0.4 0
v -0.1 0.5 0
v 0 0.5 0
v 0 0.4 0
v -0.1 0.6 0.1
v -0.1 0.5 0.1
v 0 0.5 0.1
v 0 0.6 0.1
v -0.1 0.5 0
v -0.1 0.6 0
v 0 0.6 0
v 0 0.5 0
v -0.1 0.7 0.1
v -0.1 0.6 0.1
v 0 0.6 0.1
v 0 0.7 0.1
v -0.1 0.6 0
v -0.1 0.7 0
v 0 0.7 0
v 0 0.6 0
v -0.1 0.8 0.1
v -0.1 0.7 0.1
v 0 0.7 0.1
v 0 0.8 0.1
v -0.1 0.7 0
v -0.1 0.8 0
v 0 0.8 0
v 0 0.7 0
v -0.1 0.9 0.1
v -0.1 0.8 0.1
v 0 0.8 0.1
v 0 0.9 0.1
v -0.1 0.8 0
v -0.1 0.9 0
v 0 0.9 0
v 0 0.8 0
v -0.1 1 0.1
v -0.1 0.9 0.1
v 0 0.9 0.1
v 0 1 0.1
v -0.1 0.9 0
v -0.1 1 0
v 0 1 0
v 0 0.9 0
v -0.1 1.1 0.1
v -0.1 1 0.1
v 0 1 0.1
v 0 1.1 0.1
v -0.1 1 0
v -0.1 1.1 0
v 0 1.1 0
v 0 1 0
v -0.1 1.2 0.1
v -0.1 1.1 0.1
v 0 1.1 0.1
v 0 1.2 0.1
v -0.1 1.1 0
v -0.1 1.2 0
v 0 1.2 0
v 0 1.1 0
v 0 1.2 0.1
v 0 1.2 0
v -0.1 1.2 0
v -0.1 1.2 0.1
v 0.1 -0.6 0.1
v 0.1 -0.6 0
v 0.1 -0.5 0
v 0.1 -0.5 0.1
v 0 -0.5 0.1
v 0 -0.6 0.1
v 0.1 -0.6 0.1
v 0.1 -0.5 0.1
v 0 -0.6 0
v 0 -0.5 0
v 0.1 -0.5 0
v 0.1 -0.6 0
v 0 -0.6 0.1
v 0 -0.6 0
v 0.1 -0.6 0
v 0.1 -0.6 0.1
v 0 -0.4 0.1
v 0 -0.5 0.1
v 0.1 -0.5 0.1
v 0.1 -0.4 0.1
v 0 -0.5 0
v 0 -0.4 0
v 0.1 -0.4 0
v 0.1 -0.5 0
v 0 -0.3 0.1
v 0 -0.4 0.1
v 0.1 -0.4 0.1
v 0.1 -0.3 0.1
v 0 -0.4 0
v 0 -0.3 0
v 0.1 -0.3 0
v 0.1 -0.4 0
v 0 -0.2 0.1
v 0 -0.3 0.1
v 0.1 -0.3 0.1
v 0.1 -0.2 0.1
v 0 -0.3 0
v 0 -0.2 0
v 0.1 -0.2 0
v 0.1 -0.3 0
v 0 -0.1 0.1
v 0 -0.2 0.1
v 0.1 -0.2 0.1
v 0.1 -0.1 0.1
v 0 -0.2 0
v 0 -0.1 0
v 0.1 -0.1 0
v 0.1 -0.2 0
v 0 0 0.1
v 0 -0.1 0.1
v 0.1 -0.1 0.1
v 0.1 0 0.1
v 0 -0.1 0
v 0 0 0
v 0.1 0 0
v 0.1 -0.1 0
v 0 0.1 0.1
v 0 0 0.1
v 0.1 0 0.1
v 0.1 0.1 0.1
v 0 0 0
v 0 0.1 0
v 0.1 0.1 0
v 0.1 0 0
v 0 0.2 0.1
v 0 0.1 0.1
v 0.1 0.1 0.1
v 0.1 0.2 0.1
v 0 0.1 0
v 0 0.2 0
v 0.1 0.2 0
v 0.1 0.1 0
v 0 0.3 0.1
v 0 0.2 0.1
v 0.1 0.2 0.1
v 0.1 0.3 0.1
v 0 0.2 0
v 0 0.3 0
v 0.1 0.3 0
v 0.1 0.2 0
v 0 0.4 0.1
v 0 0.3 0.1
v 0.1 0.3 0.1
v 0.1 0.4 0.1
v 0 0.3 0
v 0 0.4 0
v 0.1 0.4 0
v 0.1 0.3 0
v 0 0.5 0.1
v 0 0.4 0.1
v 0.1 0.4 0.1
v 0.1 0.5 0.1
v 0 0.4 0
v 0 0.5 0
v 0.1 0.5 0
v 0.1 0.4 0
v 0 0.6 0.1
v 0 0.5 0.1
v 0.1 0.5 0.1
v 0.1 0.6 0.1
v 0 0.5 0
v 0 0.6 0
v 0.1 0.6 0
v 0.1 0.5 0
v 0 0.7 0.1
v 0 0.6 0.1
v 0.1 0.6 0.1
v 0.1 0.7 0.1
v 0 0.6 0
v 0 0.7 0
v 0.1 0.7 0
v 0.1 0.6 0
v 0 0.8 0.1
v 0 0.7 0.1
v 0.1 0.7 0.1
v 0.1 0.8 0.1
v 0 0.7 0
v 0 0.8 0
v 0.1 0.8 0
v 0.1 0.7 0
v 0 0.9 0.1
v 0 0.8 0.1
v 0.1 0.8 0.1
v 0.1 0.9 0.1
v 0 0.8 0
v 0 0.9 0
v 0.1 0.9 0
v 0.1 0.8 0
v 0 1 0.1
v 0 0.9 0.1
v 0.1 0.9 0.1
v 0.1 1 0.1
v 0 0.9 0
v 0 1 0
v 0.1 1 0
v 0.1 0.9 0
v 0 1.1 0.1
v 0 1 0.1
v 0.1 1 0.1
v 0.1 1.1 0.1
v 0 1 0
v 0 1.1 0
v 0.1 1.1 0
v 0.1 1 0
v 0 1.2 0.1
v 0 1.1 0.1
v 0.1 1.1 0.1
v 0.1 1.2 0.1
v 0 1.1 0
v 0 1.2 0
v 0.1 1.2 0
v 0.1 1.1 0
v 0.1 1.2 0.1
v 0.1 1.2 0
v 0 1.2 0
v 0 1.2 0.1
v 0.2 -0.5 0.1
v 0.2 -0.5 0
v 0.2 -0.4 0
v 0.2 -0.4 0.1
v 0.1 -0.4 0.1
v 0.1 -0.5 0.1
v 0.2 -0.5 0.1
v 0.2 -0.4 0.1
v 0.1 -0.5 0
v 0.1 -0.4 0
v 0.2 -0.4 0
v 0.2 -0.5 0
v 0.1 -0.5 0.1
v 0.1 -0.5 0
v 0.2 -0.5 0
v 0.2 -0.5 0.1
v 0.1 -0.3 0.1
v 0.1 -0.4 0.1
v 0.2 -0.4 0.1
v 0.2 -0.3 0.1
v 0.1 -0.4 0
v 0.1 -0.3 0
v 0.2 -0.3 0
v 0.2 -0.4 0
v 0.1 -0.2 0.1
v 0.1 -0.3 0.1
v 0.2 -0.3 0.1
v 0.2 -0.2 0.1
v 0.1 -0.3 0
v 0.1 -0.2 0
v 0.2 -0.2 0
v 0.2 -0.3 0
v 0.1 -0.1 0.1
v 0.1 -0.2 0.1
v 0.2 -0.2 0.1
v 0.2 -0.1 0.1
v 0.1 -0.2 0
v 0.1 -0.1 0
v 0.2 -0.1 0
v 0.2 -0.2 0
v 0.1 0 0.1
v 0.1 -0.1 0.1
v 0.2 -0.1 0.1
v 0.2 0 0.1
v 0.1 -0.1 0
v 0.1 0 0
v 0.2 0 0
v 0.2 -0.1 0
v 0.1 0.1 0.1
v 0.1 0 0.1
v 0.2 0 0.1
v 0.2 0.1 0.1
v 0.1 0 0
v 0.1 0.1 0
v 0.2 0.1 0
v 0.2 0 0
v 0.1 0.2 0.1
v 0.1 0.1 0.1
v 0.2 0.1 0.1
v 0.2 0.2 0.1
v 0.1 0.1 0
v 0.1 0.2 0
v 0.2 0.2 0
v 0.2 0.1 0
v 0.1 0.3 0.1
v 0.1 0.2 0.1
v 0.2 0.2 0.1
v 0.2 0.3 0.1
v 0.1 0.2 0
v 0.1 0.3 0
v 0.2 0.3 0
v 0.2 0.2 0
v 0.1 0.4 0.1
v 0.1 0.3 0.1
v 0.2 0.3 0.1
v 0.2 0.4 0.1
v 0.1 0.3 0
v 0.1 0.4 0
v 0.2 0.4 0
v 0.2 0.3 0
v 0.1 0.5 0.1
v 0.1 0.4 0.1
v 0.2 0.4 0.1
v 0.2 0.5 0.1
v 0.1 0.4 0
v 0.1 0.5 0
v 0.2 0.5 0
v 0.2 0.4 0
v 0.1 0.6 0.1
v 0.1 0.5 0.1
v 0.2 0.5 0.1
v 0.2 0.6 0.1
v 0.1 0.5 0
v 0.1 0.6 0
v 0.2 0.6 0
v 0.2 0.5 0
v 0.1 0.7 0.1
v 0.1 0.6 0.1
v 0.2 0.6 0.1
v 0.2 0.7 0.1
v 0.1 0.6 0
v 0.1 0.7 0
v 0.2 0.7 0
v 0.2 0.6 0
v 0.1 0.8 0.1
v 0.1 0.7 0.1
v 0.2 0.7 0.1
v 0.2 0.8 0.1
v 0.1 0.7 0
v 0.1 0.8 0
v 0.2 0.8 0
v 0.2 0.7 0
v 0.1 0.9 0.1
v 0.1 0.8 0.1
v 0.2 0.8 0.1
v 0.2 0.9 0.1
v 0.1 0.8 0
v 0.1 0.9 0
v 0.2 0.9 0
v 0.2 0.8 0
v 0.1 1 0.1
v 0.1 0.9 0.1
v 0.2 0.9 0.1
v 0.2 1 0.1
v 0.1 0.9 0
v 0.1 1 0
v 0.2 1 0
v 0.2 0.9 0
v 0.1 1.1 0.1
v 0.1 1 0.1
v 0.2 1 0.1
v 0.2 1.1 0.1
v 0.1 1 0
v 0.1 1.1 0
v 0.2 1.1 0
v 0.2 1 0
v 0.1 1.2 0.1
v 0.1 1.1 0.1
v 0.2 1.1 0.1
v 0.2 1.2 0.1
v 0.1 1.1 0
v 0.1 1.2 0
v 0.2 1.2 0
v 0.2 1.1 0
v 0.2 1.2 0.1
v 0.2 1.2 0
v 0.1 1.2 0
v 0.1 1.2 0.1
v 0.3 -0.4 0.1
v 0.3 -0.4 0
v 0.3 -0.3 0
v 0.3 -0.3 0.1
v 0.2 -0.3 0.1
v 0.2 -0.4 0.1
v 0.3 -0.4 0.1
v 0.3 -0.3 0.1
v 0.2 -0.4 0
v 0.2 -0.3 0
v 0.3 -0.3 0
v 0.3 -0.4 0
v 0.2 -0.4 0.1
v 0.2 -0.4 0
v 0.3 -0.4 0
v 0.3 -0.4 0.1
v 0.2 -0.2 0.1
v 0.2 -0.3 0.1
v 0.3 -0.3 0.1
v 0.3 -0.2 0.1
v 0.2 -0.3 0
v 0.2 -0.2 0
v 0.3 -0.2 0
v 0.3 -0.3 0
v 0.2 -0.1 0.1
v 0.2 -0.2 0.1
v 0.3 -0.2 0.1
v 0.3 -0.1 0.1
v 0.2 -0.2 0
v 0.2 -0.1 0
v 0.3 -0.1 0
v 0.3 -0.2 0
v 0.2 0 0.1
v 0.2 -0.1 0.1
v 0.3 -0.1 0.1
v 0.3 0 0.1
v 0.2 -0.1 0
v 0.2 0 0
v 0.3 0 0
v 0.3 -0.1 0
v 0.2 0.1 0.1
v 0.2 0 0.1
v 0.3 0 0.1
v 0.3 0.1 0.1
v 0.2 0 0
v 0.2 0.1 0
v 0.3 0.1 0
v 0.3 0 0
v 0.2 0.2 0.1
v 0.2 0.1 0.1
v 0.3 0.1 0.1
v 0.3 0.2 0.1
v 0.2 0.1 0
v 0.2 0.2 0
v 0.3 0.2 0
v 0.3 0.1 0
v 0.2 0.3 0.1
v 0.2 0.2 0.1
v 0.3 0.2 0.1
v 0.3 0.3 0.1
v 0.2 0.2 0
v 0.2 0.3 0
v 0.3 0.3 0
v 0.3 0.2 0
v 0.2 0.4 0.1
v 0.2 0.3 0.1
v 0.3 0.3 0.1
v 0.3 0.4 0.1
v 0.2 0.3 0
v 0.2 0.4 0
v 0.3 0.4 0
v 0.3 0.3 0
v 0.2 0.5 0.1
v 0.2 0.4 0.1
v 0.3 0.4 0.1
v 0.3 0.5 0.1
v 0.2 0.4 0
v 0.2 0.5 0
v 0.3 0.5 0
v 0.3 0.4 0
v 0.2 0.6 0.1
v 0.2 0.5 0.1
v 0.3 0.5 0.1
v 0.3 0.6 0.1
v 0.2 0.5 0
v 0.2 0.6 0
v 0.3 0.6 0
v 0.3 0.5 0
v 0.2 0.7 0.1
v 0.2 0.6 0.1
v 0.3 0.6 0.1
v 0.3 0.7 0.1
v 0.2 0.6 0
v 0.2 0.7 0
v 0.3 0.7 0
v 0.3 0.6 0
v 0.2 0.8 0.1
v 0.2 0.7 0.1
v 0.3 0.7 0.1
v 0.3 0.8 0.1
v 0.2 0.7 0
v 0.2 0.8 0
v 0.3 0.8 0
v 0.3 0.7 0
v 0.2 0.9 0.1
v 0.2 0.8 0.1
v 0.3 0.8 0.1
v 0.3 0.9 0.1
v 0.2 0.8 0
v 0.2 0.9 0
v 0.3 0.9 0
v 0.3 0.8 0
v 0.2 1 0.1
v 0.2 0.9 0.1
v 0.3 0.9 0.1
v 0.3 1 0.1
v 0.2 0.9 0
v 0.2 1 0
v 0.3 1 0
v 0.3 0.9 0
v 0.2 1.1 0.1
v 0.2 1 0.1
v 0.3 1 0.1
v 0.3 1.1 0.1
v 0.2 1 0
v 0.2 1.1 0
v 0.3 1.1 0
v 0.3 1 0
v 0.2 1.2 0.1
v 0.2 1.1 0.1
v 0.3 1.1 0.1
v 0.3 1.2 0.1
v 0.2 1.1 0
v 0.2 1.2 0
v 0.3 1.2 0
v 0.3 1.1 0
v 0.3 1.2 0.1
v 0.3 1.2 0
v 0.2 1.2 0
v 0.2 1.2 0.1
v 0.4 -0.3 0.1
v 0.4 -0.3 0
v 0.4 -0.2 0
v 0.4 -0.2 0.1
v 0.3 -0.2 0.1
v 0.3 -0.3 0.1
v 0.4 -0.3 0.1
v 0.4 -0.2 0.1
v 0.3 -0.3 0
v 0.3 -0.2 0
v 0.4 -0.2 0
v 0.4 -0.3 0
v 0.3 -0.3 0.1
v 0.3 -0.3 0
v 0.4 -0.3 0
v 0.4 -0.3 0.1
v 0.3 -0.1 0.1
v 0.3 -0.2 0.1
v 0.4 -0.2 0.1
v 0.4 -0.1 0.1
v 0.3 -0.2 0
v 0.3 -0.1 0
v 0.4 -0.1 0
v 0.4 -0.2 0
v 0.3 0 0.1
v 0.3 -0.1 0.1
v 0.4 -0.1 0.1
v 0.4 0 0.1
v 0.3 -0.1 0
v 0.3 0 0
v 0.4 0 0
v 0.4 -0.1 0
v 0.3 0.1 0.1
v 0.3 0 0.1
v 0.4 0 0.1
v 0.4 0.1 0.1
v 0.3 0 0
v 0.3 0.1 0
v 0.4 0.1 0
v 0.4 0 0
v 0.3 0.2 0.1
v 0.3 0.1 0.1
v 0.4 0.1 0.1
v 0.4 0.2 0.1
v 0.3 0.1 0
v 0.3 0.2 0
v 0.4 0.2 0
v 0.4 0.1 0
v 0.3 0.3 0.1
v 0.3 0.2 0.1
v 0.4 0.2 0.1
v 0.4 0.3 0.1
v 0.3 0.2 0
v 0.3 0.3 0
v 0.4 0.3 0
v 0.4 0.2 0
v 0.3 0.4 0.1
v 0.3 0.3 0.1
v 0.4 0.3 0.1
v 0.4 0.4 0.1
v 0.3 0.3 0
v 0.3 0.4 0
v 0.4 0.4 0
v 0.4 0.3 0
v 0.3 0.5 0.1
v 0.3 0.4 0.1
v 0.4 0.4 0.1
v 0.4 0.5 0.1
v 0.3 0.4 0
v 0.3 0.5 0
v 0.4 0.5 0
v 0.4 0.4 0
v 0.3 0.6 0.1
v 0.3 0.5 0.1
v 0.4 0.5 0.1
v 0.4 0.6 0.1
v 0.3 0.5 0
v 0.3 0.6 0
v 0.4 0.6 0
v 0.4 0.5 0
v 0.3 0.7 0.1
v 0.3 0.6 0.1
v 0.4 0.6 0.1
v 0.4 0.7 0.1
v 0.3 0.6 0
v 0.3 0.7 0
v 0.4 0.7 0
v 0.4 0.6 0
v 0.3 0.8 0.1
v 0.3 0.7 0.1
v 0.4 0.7 0.1
v 0.4 0.8 0.1
v 0.3 0.7 0
v 0.3 0.8 0
v 0.4 0.8 0
v 0.4 0.7 0
v 0.3 0.9 0.1
v 0.3 0.8 0.1
v 0.4 0.8 0.1
v 0.4 0.9 0.1
v 0.3 0.8 0
v 0.3 0.9 0
v 0.4 0.9 0
v 0.4 0.8 0
v 0.3 1 0.1
v 0.3 0.9 0.1
v 0.4 0.9 0.1
v 0.4 1 0.1
v 0.3 0.9 0
v 0.3 1 0
v 0.4 1 0
v 0.4 0.9 0
v 0.3 1.1 0.1
v 0.3 1 0.1
v 0.4 1 0.1
v 0.4 1.1 0.1
v 0.3 1 0
v 0.3 1.1 0
v 0.4 1.1 0
v 0.4 1 0
v 0.3 1.2 0.1
v 0.3 1.1 0.1
v 0.4 1.1 0.1
v 0.4 1.2 0.1
v 0.3 1.1 0
v 0.3 1.2 0
v 0.4 1.2 0
v 0.4 1.1 0
v 0.4 1.2 0.1
v 0.4 1.2 0
v 0.3 1.2 0
v 0.3 1.2 0.1
v 0.5 -0.2 0.1
v 0.5 -0.2 0
v 0.5 -0.1 0
v 0.5 -0.1 0.1
v 0.4 -0.1 0.1
v 0.4 -0.2 0.1
v 0.5 -0.2 0.1
v 0.5 -0.1 0.1
v 0.4 -0.2 0
v 0.4 -0.1 0
v 0.5 -0.1 0
v 0.5 -0.2 0
v 0.4 -0.2 0.1
v 0.4 -0.2 0
v 0.5 -0.2 0
v 0.5 -0.2 0.1
v 0.4 0 0.1
v 0.4 -0.1 0.1
v 0.5 -0.1 0.1
v 0.5 0 0.1
v 0.4 -0.1 0
v 0.4 0 0
v 0.5 0 0
v 0.5 -0.1 0
v 0.4 0.1 0.1
v 0.4 0 0.1
v 0.5 0 0.1
v 0.5 0.1 0.1
v 0.4 0 0
v 0.4 0.1 0
v 0.5 0.1 0
v 0.5 0 0
v 0.4 0.2 0.1
v 0.4 0.1 0.1
v 0.5 0.1 0.1
v 0.5 0.2 0.1
v 0.4 0.1 0
v 0.4 0.2 0
v 0.5 0.2 0
v 0.5 0.1 0
v 0.4 0.3 0.1
v 0.4 0.2 0.1
v 0.5 0.2 0.1
v 0.5 0.3 0.1
v 0.4 0.2 0
v 0.4 0.3 0
v 0.5 0.3 0
v 0.5 0.2 0
v 0.4 0.4 0.1
v 0.4 0.3 0.1
v 0.5 0.3 0.1
v 0.5 0.4 0.1
v 0.4 0.3 0
v 0.4 0.4 0
v 0.5 0.4 0
v 0.5 0.3 0
v 0.4 0.5 0.1
v 0.4 0.4 0.1
v 0.5 0.4 0.1
v 0.5 0.5 0.1
v 0.4 0.4 0
v 0.4 0.5 0
v 0.5 0.5 0
v 0.5 0.4 0
v 0.4 0.6 0.1
v 0.4 0.5 0.1
v 0.5 0.5 0.1
v 0.5 0.6 0.1
v 0.4 0.5 0
v 0.4 0.6 0
v 0.5 0.6 0
v 0.5 0.5 0
v 0.4 0.7 0.1
v 0.4 0.6 0.1
v 0.5 0.6 0.1
v 0.5 0.7 0.1
v 0.4 0.6 0
v 0.4 0.7 0
v 0.5 0.7 0
v 0.5 0.6 0
v 0.4 0.8 0.1
v 0.4 0.7 0.1
v 0.5 0.7 0.1
v 0.5 0.8 0.1
v 0.4 0.7 0
v 0.4 0.8 0
v 0.5 0.8 0
v 0.5 0.7 0
v 0.4 0.9 0.1
v 0.4 0.8 0.1
v 0.5 0.8 0.1
v 0.5 0.9 0.1
v 0.4 0.8 0
v 0.4 0.9 0
v 0.5 0.9 0
v 0.5 0.8 0
v 0.4 1 0.1
v 0.4 0.9 0.1
v 0.5 0.9 0.1
v 0.5 1 0.1
v 0.4 0.9 0
v 0.4 1 0
v 0.5 1 0
v 0.5 0.9 0
v 0.4 1.1 0.1
v 0.4 1 0.1
v 0.5 1 0.1
v 0.5 1.1 0.1
v 0.4 1 0
v 0.4 1.1 0
v 0.5 1.1 0
v 0.5 1 0
v 0.4 1.2 0.1
v 0.4 1.1 0.1
v 0.5 1.1 0.1
v 0.5 1.2 0.1
v 0.4 1.1 0
v 0.4 1.2 0
v 0.5 1.2 0
v 0.5 1.1 0
v 0.5 1.2 0.1
v 0.5 1.2 0
v 0.4 1.2 0
v 0.4 1.2 0.1
v 0.5 0 0.1
v 0.5 -0.1 0.1
v 0.6 -0.1 0.1
v 0.6 0 0.1
v 0.5 -0.1 0
v 0.5 0 0
v 0.6 0 0
v 0.6 -0.1 0
v 0.5 -0.1 0.1
v 0.5 -0.1 0
v 0.6 -0.1 0
v 0.6 -0.1 0.1
v 0.5 0.1 0.1
v 0.5 0 0.1
v 0.6 0 0.1
v 0.6 0.1 0.1
v 0.5 0 0
v 0.5 0.1 0
v 0.6 0.1 0
v 0.6 0 0
v 0.5 0.2 0.1
v 0.5 0.1 0.1
v 0.6 0.1 0.1
v 0.6 0.2 0.1
v 0.5 0.1 0
v 0.5 0.2 0
v 0.6 0.2 0
v 0.6 0.1 0
v 0.5 0.3 0.1
v 0.5 0.2 0.1
v 0.6 0.2 0.1
v 0.6 0.3 0.1
v 0.5 0.2 0
v 0.5 0.3 0
v 0.6 0.3 0
v 0.6 0.2 0
v 0.5 0.4 0.1
v 0.5 0.3 0.1
v 0.6 0.3 0.1
v 0.6 0.4 0.1
v 0.5 0.3 0
v 0.5 0.4 0
v 0.6 0.4 0
v 0.6 0.3 0
v 0.5 0.5 0.1
v 0.5 0.4 0.1
v 0.6 0.4 0.1
v 0.6 0.5 0.1
v 0.5 0.4 0
v 0.5 0.5 0
v 0.6 0.5 0
v 0.6 0.4 0
v 0.5 0.6 0.1
v 0.5 0.5 0.1
v 0.6 0.5 0.1
v 0.6 0.6 0.1
v 0.5 0.5 0
v 0.5 0.6 0
v 0.6 0.6 0
v 0.6 0.5 0
v 0.5 0.7 0.1
v 0.5 0.6 0.1
v 0.6 0.6 0.1
v 0.6 0.7 0.1
v 0.5 0.6 0
v 0.5 0.7 0
v 0.6 0.7 0
v 0.6 0.6 0
v 0.5 0.8 0.1
v 0.5 0.7 0.1
v 0.6 0.7 0.1
v 0.6 0.8 0.1
v 0.5 0.7 0
v 0.5 0.8 0
v 0.6 0.8 0
v 0.6 0.7 0
v 0.5 0.9 0.1
v 0.5 0.8 0.1
v 0.6 0.8 0.1
v 0.6 0.9 0.1
v 0.5 0.8 0
v 0.5 0.9 0
v 0.6 0.9 0
v 0.6 0.8 0
v 0.5 1 0.1
v 0.5 0.9 0.1
v 0.6 0.9 0.1
v 0.6 1 0.1
v 0.5 0.9 0
v 0.5 1 0
v 0.6 1 0
v 0.6 0.9 0
v 0.5 1.1 0.1
v 0.5 1 0.1
v 0.6 1 0.1
v 0.6 1.1 0.1
v 0.5 1 0
v 0.5 1.1 0
v 0.6 1.1 0
v 0.6 1 0
v 0.5 1.2 0.1
v 0.5 1.1 0.1
v 0.6 1.1 0.1
v 0.6 1.2 0.1
v 0.5 1.1 0
v 0.5 1.2 0
v 0.6 1.2 0
v 0.6 1.1 0
v 0.6 1.2 0.1
v 0.6 1.2 0
v 0.5 1.2 0
v 0.5 1.2 0.1
v 0.7 -0.1 0.1
v 0.7 -0.1 0
v 0.7 0 0
v 0.7 0 0.1
v 0.6 0 0.1
v 0.6 -0.1 0.1
v 0.7 -0.1 0.1
v 0.7 0 0.1
v 0.6 -0.1 0
v 0.6 0 0
v 0.7 0 0
v 0.7 -0.1 0
v 0.6 -0.1 0.1
v 0.6 -0.1 0
v 0.7 -0.1 0
v 0.7 -0.1 0.1
v 0.6 0.1 0.1
v 0.6 0 0.1
v 0.7 0 0.1
v 0.7 0.1 0.1
v 0.6 0 0
v 0.6 0.1 0
v 0.7 0.1 0
v 0.7 0 0
v 0.6 0.2 0.1
v 0.6 0.1 0.1
v 0.7 0.1 0.1
v 0.7 0.2 0.1
v 0.6 0.1 0
v 0.6 0.2 0
v 0.7 0.2 0
v 0.7 0.1 0
v 0.6 0.3 0.1
v 0.6 0.2 0.1
v 0.7 0.2 0.1
v 0.7 0.3 0.1
v 0.6 0.2 0
v 0.6 0.3 0
v 0.7 0.3 0
v 0.7 0.2 0
v 0.6 0.4 0.1
v 0.6 0.3 0.1
v 0.7 0.3 0.1
v 0.7 0.4 0.1
v 0.6 0.3 0
v 0.6 0.4 0
v 0.7 0.4 0
v 0.7 0.3 0
v 0.6 0.5 0.1
v 0.6 0.4 0.1
v 0.7 0.4 0.1
v 0.7 0.5 0.1
v 0.6 0.4 0
v 0.6 0.5 0
v 0.7 0.5 0
v 0.7 0.4 0
v 0.6 0.6 0.1
v 0.6 0.5 0.1
v 0.7 0.5 0.1
v 0.7 0.6 0.1
v 0.6 0.5 0
v 0.6 0.6 0
v 0.7 0.6 0
v 0.7 0.5 0
v 0.6 0.7 0.1
v 0.6 0.6 0.1
v 0.7 0.6 0.1
v 0.7 0.7 0.1
v 0.6 0.6 0
v 0.6 0.7 0
v 0.7 0.7 0
v 0.7 0.6 0
v 0.6 0.8 0.1
v 0.6 0.7 0.1
v 0.7 0.7 0.1
v 0.7 0.8 0.1
v 0.6 0.7 0
v 0.6 0.8 0
v 0.7 0.8 0
v 0.7 0.7 0
v 0.6 0.9 0.1
v 0.6 0.8 0.1
v 0.7 0.8 0.1
v 0.7 0.9 0.1
v 0.6 0.8 0
v 0.6 0.9 0
v 0.7 0.9 0
v 0.7 0.8 0
v 0.6 1 0.1
v 0.6 0.9 0.1
v 0.7 0.9 0.1
v 0.7 1 0.1
v 0.6 0.9 0
v 0.6 1 0
v 0.7 1 0
v 0.7 0.9 0
v 0.6 1.1 0.1
v 0.6 1 0.1
v 0.7 1 0.1
v 0.7 1.1 0.1
v 0.6 1 0
v 0.6 1.1 0
v 0.7 1.1 0
v 0.7 1 0
v 0.6 1.2 0.1
v 0.6 1.1 0.1
v 0.7 1.1 0.1
v 0.7 1.2 0.1
v 0.6 1.1 0
v 0.6 1.2 0
v 0.7 1.2 0
v 0.7 1.1 0
v 0.7 1.2 0.1
v 0.7 1.2 0
v 0.6 1.2 0
v 0.6 1.2 0.1
v 0.7 0.1 0.1
v 0.7 0 0.1
v 0.8 0 0.1
v 0.8 0.1 0.1
v 0.7 0 0
v 0.7 0.1 0
v 0.8 0.1 0
v 0.8 0 0
v 0.7 0 0.1
v 0.7 0 0
v 0.8 0 0
v 0.8 0 0.1
v 0.7 0.2 0.1
v 0.7 0.1 0.1
v 0.8 0.1 0.1
v 0.8 0.2 0.1
v 0.7 0.1 0
v 0.7 0.2 0
v 0.8 0.2 0
v 0.8 0.1 0
v 0.7 0.3 0.1
v 0.7 0.2 0.1
v 0.8 0.2 0.1
v 0.8 0.3 0.1
v 0.7 0.2 0
v 0.7 0.3 0
v 0.8 0.3 0
v 0.8 0.2 0
v 0.7 0.4 0.1
v 0.7 0.3 0.1
v 0.8 0.3 0.1
v 0.8 0.4 0.1
v 0.7 0.3 0
v 0.7 0.4 0
v 0.8 0.4 0
v 0.8 0.3 0
v 0.7 0.5 0.1
v 0.7 0.4 0.1
v 0.8 0.4 0.1
v 0.8 0.5 0.1
v 0.7 0.4 0
v 0.7 0.5 0
v 0.8 0.5 0
v 0.8 0.4 0
v 0.7 0.6 0.1
v 0.7 0.5 0.1
v 0.8 0.5 0.1
v 0.8 0.6 0.1
v 0.7 0.5 0
v 0.7 0.6 0
v 0.8 0.6 0
v 0.8 0.5 0
v 0.7 0.7 0.1
v 0.7 0.6 0.1
v 0.8 0.6 0.1
v 0.8 0.7 0.1
v 0.7 0.6 0
v 0.7 0.7 0
v 0.8 0.7 0
v 0.8 0.6 0
v 0.7 0.8 0.1
v 0.7 0.7 0.1
v 0.8 0.7 0.1
v 0.8 0.8 0.1
v 0.7 0.7 0
v 0.7 0.8 0
v 0.8 0.8 0
v 0.8 0.7 0
v 0.7 0.9 0.1
v 0.7 0.8 0.1
v 0.8 0.8 0.1
v 0.8 0.9 0.1
v 0.7 0.8 0
v 0.7 0.9 0
v 0.8 0.9 0
v 0.8 0.8 0
v 0.7 1 0.1
v 0.7 0.9 0.1
v 0.8 0.9 0.1
v 0.8 1 0.1
v 0.7 0.9 0
v 0.7 1 0
v 0.8 1 0
v 0.8 0.9 0
v 0.7 1.1 0.1
v 0.7 1 0.1
v 0.8 1 0.1
v 0.8 1.1 0.1
v 0.7 1 0
v 0.7 1.1 0
v 0.8 1.1 0
v 0.8 1 0
v 0.7 1.2 0.1
v 0.7 1.1 0.1
v 0.8 1.1 0.1
v 0.8 1.2 0.1
v 0.7 1.1 0
v 0.7 1.2 0
v 0.8 1.2 0
v 0.8 1.1 0
v 0.8 1.2 0.1
v 0.8 1.2 0
v 0.7 1.2 0
v 0.7 1.2 0.1
v 0.8 0.1 0.1
v 0.8 0 0.1
v 0.9 0 0.1
v 0.9 0.1 0.1
v 0.8 0 0
v 0.8 0.1 0
v 0.9 0.1 0
v 0.9 0 0
v 0.8 0 0.1
v 0.8 0 0
v 0.9 0 0
v 0.9 0 0.1
v 0.8 0.2 0.1
v 0.8 0.1 0.1
v 0.9 0.1 0.1
v 0.9 0.2 0.1
v 0.8 0.1 0
v 0.8 0.2 0
v 0.9 0.2 0
v 0.9 0.1 0
v 0.8 0.3 0.1
v 0.8 0.2 0.1
v 0.9 0.2 0.1
v 0.9 0.3 0.1
v 0.8 0.2 0
v 0.8 0.3 0
v 0.9 0.3 0
v 0.9 0.2 0
v 0.8 0.4 0.1
v 0.8 0.3 0.1
v 0.9 0.3 0.1
v 0.9 0.4 0.1
v 0.8 0.3 0
v 0.8 0.4 0
v 0.9 0.4 0
v 0.9 0.3 0
v 0.8 0.5 0.1
v 0.8 0.4 0.1
v 0.9 0.4 0.1
v 0.9 0.5 0.1
v 0.8 0.4 0
v 0.8 0.5 0
v 0.9 0.5 0
v 0.9 0.4 0
v 0.8 0.6 0.1
v 0.8 0.5 0.1
v 0.9 0.5 0.1
v 0.9 0.6 0.1
v 0.8 0.5 0
v 0.8 0.6 0
v 0.9 0.6 0
v 0.9 0.5 0
v 0.8 0.7 0.1
v 0.8 0.6 0.1
v 0.9 0.6 0.1
v 0.9 0.7 0.1
v 0.8 0.6 0
v 0.8 0.7 0
v 0.9 0.7 0
v 0.9 0.6 0
v 0.8 0.8 0.1
v 0.8 0.7 0.1
v 0.9 0.7 0.1
v 0.9 0.8 0.1
v 0.8 0.7 0
v 0.8 0.8 0
v 0.9 0.8 0
v 0.9 0.7 0
v 0.8 0.9 0.1
v 0.8 0.8 0.1
v 0.9 0.8 0.1
v 0.9 0.9 0.1
v 0.8 0.8 0
v 0.8 0.9 0
v 0.9 0.9 0
v 0.9 0.8 0
v 0.8 1 0.1
v 0.8 0.9 0.1
v 0.9 0.9 0.1
v 0.9 1 0.1
v 0.8 0.9 0
v 0.8 1 0
v 0.9 1 0
v 0.9 0.9 0
v 0.8 1.1 0.1
v 0.8 1 0.1
v 0.9 1 0.1
v 0.9 1.1 0.1
v 0.8 1 0
v 0.8 1.1 0
v 0.9 1.1 0
v 0.9 1 0
v 0.8 1.2 0.1
v 0.8 1.1 0.1
v 0.9 1.1 0.1
v 0.9 1.2 0.1
v 0.8 1.1 0
v 0.8 1.2 0
v 0.9 1.2 0
v 0.9 1.1 0
v 0.9 1.2 0.1
v 0.9 1.2 0
v 0.8 1.2 0
v 0.8 1.2 0.1
v 0.9 0.1 0.1
v 0.9 0 0.1
v 1 0 0.1
v 1 0.1 0.1
v 0.9 0 0
v 0.9 0.1 0
v 1 0.1 0
v 1 0 0
v 0.9 0 0.1
v 0.9 0 0
v 1 0 0
v 1 0 0.1
v 0.9 0.2 0.1
v 0.9 0.1 0.1
v 1 0.1 0.1
v 1 0.2 0.1
v 0.9 0.1 0
v 0.9 0.2 0
v 1 0.2 0
v 1 0.1 0
v 0.9 0.3 0.1
v 0.9 0.2 0.1
v 1 0.2 0.1
v 1 0.3 0.1
v 0.9 0.2 0
v 0.9 0.3 0
v 1 0.3 0
v 1 0.2 0
v 0.9 0.4 0.1
v 0.9 0.3 0.1
v 1 0.3 0.1
v 1 0.4 0.1
v 0.9 0.3 0
v 0.9 0.4 0
v 1 0.4 0
v 1 0.3 0
v 0.9 0.5 0.1
v 0.9 0.4 0.1
v 1 0.4 0.1
v 1 0.5 0.1
v 0.9 0.4 0
v 0.9 0.5 0
v 1 0.5 0
v 1 0.4 0
v 0.9 0.6 0.1
v 0.9 0.5 0.1
v 1 0.5 0.1
v 1 0.6 0.1
v 0.9 0.5 0
v 0.9 0.6 0
v 1 0.6 0
v 1 0.5 0
v 0.9 0.7 0.1
v 0.9 0.6 0.1
v 1 0.6 0.1
v 1 0.7 0.1
v 0.9 0.6 0
v 0.9 0.7 0
v 1 0.7 0
v 1 0.6 0
v 0.9 0.8 0.1
v 0.9 0.7 0.1
v 1 0.7 0.1
v 1 0.8 0.1
v 0.9 0.7 0
v 0.9 0.8 0
v 1 0.8 0
v 1 0.7 0
v 0.9 0.9 0.1
v 0.9 0.8 0.1
v 1 0.8 0.1
v 1 0.9 0.1
v 0.9 0.8 0
v 0.9 0.9 0
v 1 0.9 0
v 1 0.8 0
v 0.9 1 0.1
v 0.9 0.9 0.1
v 1 0.9 0.1
v 1 1 0.1
v 0.9 0.9 0
v 0.9 1 0
v 1 1 0
v 1 0.9 0
v 0.9 1.1 0.1
v 0.9 1 0.1
v 1 1 0.1
v 1 1.1 0.1
v 0.9 1 0
v 0.9 1.1 0
v 1 1.1 0
v 1 1 0
v 0.9 1.2 0.1
v 0.9 1.1 0.1
v 1 1.1 0.1
v 1 1.2 0.1
v 0.9 1.1 0
v 0.9 1.2 0
v 1 1.2 0
v 1 1.1 0
v 1 1.2 0.1
v 1 1.2 0
v 0.9 1.2 0
v 0.9 1.2 0.1
v 1 0.1 0.1
v 1 0 0.1
v 1.1 0 0.1
v 1.1 0.1 0.1
v 1 0 0
v 1 0.1 0
v 1.1 0.1 0
v 1.1 0 0
v 1 0 0.1
v 1 0 0
v 1.1 0 0
v 1.1 0 0.1
v 1 0.2 0.1
v 1 0.1 0.1
v 1.1 0.1 0.1
v 1.1 0.2 0.1
v 1 0.1 0
v 1 0.2 0
v 1.1 0.2 0
v 1.1 0.1 0
v 1 0.3 0.1
v 1 0.2 0.1
v 1.1 0.2 0.1
v 1.1 0.3 0.1
v 1 0.2 0
v 1 0.3 0
v 1.1 0.3 0
v 1.1 0.2 0
v 1 0.4 0.1
v 1 0.3 0.1
v 1.1 0.3 0.1
v 1.1 0.4 0.1
v 1 0.3 0
v 1 0.4 0
v 1.1 0.4 0
v 1.1 0.3 0
v 1 0.5 0.1
v 1 0.4 0.1
v 1.1 0.4 0.1
v 1.1 0.5 0.1
v 1 0.4 0
v 1 0.5 0
v 1.1 0.5 0
v 1.1 0.4 0
v 1 0.6 0.1
v 1 0.5 0.1
v 1.1 0.5 0.1
v 1.1 0.6 0.1
v 1 0.5 0
v 1 0.6 0
v 1.1 0.6 0
v 1.1 0.5 0
v 1 0.7 0.1
v 1 0.6 0.1
v 1.1 0.6 0.1
v 1.1 0.7 0.1
v 1 0.6 0
v 1 0.7 0
v 1.1 0.7 0
v 1.1 0.6 0
v 1 0.8 0.1
v 1 0.7 0.1
v 1.1 0.7 0.1
v 1.1 0.8 0.1
v 1 0.7 0
v 1 0.8 0
v 1.1 0.8 0
v 1.1 0.7 0
v 1 0.9 0.1
v 1 0.8 0.1
v 1.1 0.8 0.1
v 1.1 0.9 0.1
v 1 0.8 0
v 1 0.9 0
v 1.1 0.9 0
v 1.1 0.8 0
v 1 1 0.1
v 1 0.9 0.1
v 1.1 0.9 0.1
v 1.1 1 0.1
v 1 0.9 0
v 1 1 0
v 1.1 1 0
v 1.1 0.9 0
v 1 1.1 0.1
v 1 1 0.1
v 1.1 1 0.1
v 1.1 1.1 0.1
v 1 1 0
v 1 1.1 0
v 1.1 1.1 0
v 1.1 1 0
v 1 1.2 0.1
v 1 1.1 0.1
v 1.1 1.1 0.1
v 1.1 1.2 0.1
v 1 1.1 0
v 1 1.2 0
v 1.1 1.2 0
v 1.1 1.1 0
v 1.1 1.2 0.1
v 1.1 1.2 0
v 1 1.2 0
v 1 1.2 0.1
v 1.2 0 0.1
v 1.2 0 0
v 1.2 0.1 0
v 1.2 0.1 0.1
v 1.1 0.1 0.1
v 1.1 0 0.1
v 1.2 0 0.1
v 1.2 0.1 0.1
v 1.1 0 0
v 1.1 0.1 0
v 1.2 0.1 0
v 1.2 0 0
v 1.1 0 0.1
v 1.1 0 0
v 1.2 0 0
v 1.2 0 0.1
v 1.2 0.1 0.1
v 1.2 0.1 0
v 1.2 0.2 0
v 1.2 0.2 0.1
v 1.1 0.2 0.1
v 1.1 0.1 0.1
v 1.2 0.1 0.1
v 1.2 0.2 0.1
v 1.1 0.1 0
v 1.1 0.2 0
v 1.2 0.2 0
v 1.2 0.1 0
v 1.2 0.2 0.1
v 1.2 0.2 0
v 1.2 0.3 0
v 1.2 0.3 0.1
v 1.1 0.3 0.1
v 1.1 0.2 0.1
v 1.2 0.2 0.1
v 1.2 0.3 0.1
v 1.1 0.2 0
v 1.1 0.3 0
v 1.2 0.3 0
v 1.2 0.2 0
v 1.2 0.3 0.1
v 1.2 0.3 0
v 1.2 0.4 0
v 1.2 0.4 0.1
v 1.1 0.4 0.1
v 1.1 0.3 0.1
v 1.2 0.3 0.1
v 1.2 0.4 0.1
v 1.1 0.3 0
v 1.1 0.4 0
v 1.2 0.4 0
v 1.2 0.3 0
v 1.2 0.4 0.1
v 1.2 0.4 0
v 1.2 0.5 0
v 1.2 0.5 0.1
v 1.1 0.5 0.1
v 1.1 0.4 0.1
v 1.2 0.4 0.1
v 1.2 0.5 0.1
v 1.1 0.4 0
v 1.1 0.5 0
v 1.2 0.5 0
v 1.2 0.4 0
v 1.2 0.5 0.1
v 1.2 0.5 0
v 1.2 0.6 0
v 1.2 0.6 0.1
v 1.1 0.6 0.1
v 1.1 0.5 0.1
v 1.2 0.5 0.1
v 1.2 0.6 0.1
v 1.1 0.5 0
v 1.1 0.6 0
v 1.2 0.6 0
v 1.2 0.5 0
v 1.2 0.6 0.1
v 1.2 0.6 0
v 1.2 0.7 0
v 1.2 0.7 0.1
v 1.1 0.7 0.1
v 1.1 0.6 0.1
v 1.2 0.6 0.1
v 1.2 0.7 0.1
v 1.1 0.6 0
v 1.1 0.7 0
v 1.2 0.7 0
v 1.2 0.6 0
v 1.2 0.7 0.1
v 1.2 0.7 0
v 1.2 0.8 0
v 1.2 0.8 0.1
v 1.1 0.8 0.1
v 1.1 0.7 0.1
v 1.2 0.7 0.1
v 1.2 0.8 0.1
v 1.1 0.7 0
v 1.1 0.8 0
v 1.2 0.8 0
v 1.2 0.7 0
v 1.2 0.8 0.1
v 1.2 0.8 0
v 1.2 0.9 0
v 1.2 0.9 0.1
v 1.1 0.9 0.1
v 1.1 0.8 0.1
v 1.2 0.8 0.1
v 1.2 0.9 0.1
v 1.1 0.8 0
v 1.1 0.9 0
v 1.2 0.9 0
v 1.2 0.8 0
v 1.2 0.9 0.1
v 1.2 0.9 0
v 1.2 1 0
v 1.2 1 0.1
v 1.1 1 0.1
v 1.1 0.9 0.1
v 1.2 0.9 0.1
v 1.2 1 0.1
v 1.1 0.9 0
v 1.1 1 0
v 1.2 1 0
v 1.2 0.9 0
v 1.2 1 0.1
v 1.2 1 0
v 1.2 1.1 0
v 1.2 1.1 0.1
v 1.1 1.1 0.1
v 1.1 1 0.1
v 1.2 1 0.1
v 1.2 1.1 0.1
v 1.1 1 0
v 1.1 1.1 0
v 1.2 1.1 0
v 1.2 1 0
v 1.2 1.1 0.1
v 1.2 1.1 0
v 1.2 1.2 0
v 1.2 1.2 0.1
v 1.1 1.2 0.1
v 1.1 1.1 0.1
v 1.2 1.1 0.1
v 1.2 1.2 0.1
v 1.1 1.1 0
v 1.1 1.2 0
v 1.2 1.2 0
v 1.2 1.1 0
v 1.2 1.2 0.1
v 1.2 1.2 0
v 1.1 1.2 0
v 1.1 1.2 0.1

# faces
f 1/1/1 2/1/1 3/1/1 4/1/1
f 5/1/3 6/1/3 7/1/3 8/1/3
f 9/1/4 10/1/4 11/1/4 12/1/4
f 13/1/5 14/1/5 15/1/5 16/1/5
f 17/1/1 18/1/1 19/1/1 20/1/1
f 21/1/3 22/1/3 23/1/3 24/1/3
f 25/1/4 26/1/4 27/1/4 28/1/4
f 29/3/1 30/3/1 31/3/1 32/3/1
f 33/3/3 34/3/3 35/3/3 36/3/3
f 37/3/4 38/3/4 39/3/4 40/3/4
f 41/3/1 42/3/1 43/3/1 44/3/1
f 45/3/3 46/3/3 47/3/3 48/3/3
f 49/3/4 50/3/4 51/3/4 52/3/4
f 53/1/1 54/1/1 55/1/1 56/1/1
f 57/1/3 58/1/3 59/1/3 60/1/3
f 61/1/4 62/1/4 63/1/4 64/1/4
f 65/1/1 66/1/1 67/1/1 68/1/1
f 69/1/3 70/1/3 71/1/3 72/1/3
f 73/1/4 74/1/4 75/1/4 76/1/4
f 77/1/1 78/1/1 79/1/1 80/1/1
f 81/1/3 82/1/3 83/1/3 84/1/3
f 85/1/4 86/1/4 87/1/4 88/1/4
f 89/1/1 90/1/1 91/1/1 92/1/1
f 93/1/3 94/1/3 95/1/3 96/1/3
f 97/1/4 98/1/4 99/1/4 100/1/4
f 101/1/1 102/1/1 103/1/1 104/1/1
f 105/1/3 106/1/3 107/1/3 108/1/3
f 109/1/4 110/1/4 111/1/4 112/1/4
f 113/1/1 114/1/1 115/1/1 116/1/1
f 117/1/3 118/1/3 119/1/3 120/1/3
f 121/1/4 122/1/4 123/1/4 124/1/4
f 125/1/1 126/1/1 127/1/1 128/1/1
f 129/1/3 130/1/3 131/1/3 132/1/3
f 133/1/4 134/1/4 135/1/4 136/1/4
f 137/1/1 138/1/1 139/1/1 140/1/1
f 141/1/3 142/1/3 143/1/3 144/1/3
f 145/1/4 146/1/4 147/1/4 148/1/4
f 149/1/1 150/1/1 151/1/1 152/1/1
f 153/1/3 154/1/3 155/1/3 156/1/3
f 157/1/4 158/1/4 159/1/4 160/1/4
f 161/1/1 162/1/1 163/1/1 164/1/1
f 165/1/3 166/1/3 167/1/3 168/1/3
f 169/1/4 170/1/4 171/1/4 172/1/4
f 173/1/1 174/1/1 175/1/1 176/1/1
f 177/1/3 178/1/3 179/1/3 180/1/3
f 181/1/4 182/1/4 183/1/4 184/1/4
f 185/2/1 186/2/1 187/2/1 188/2/1
f 189/2/3 190/2/3 191/2/3 192/2/3
f 193/2/4 194/2/4 195/2/4 196/2/4
f 197/4/1 198/4/1 199/4/1 200/4/1
f 201/4/3 202/4/3 203/4/3 204/4/3
f 205/4/4 206/4/4 207/4/4 208/4/4
f 209/4/1 210/4/1 211/4/1 212/4/1
f 213/4/3 214/4/3 215/4/3 216/4/3
f 217/4/4 218/4/4 219/4/4 220/4/4
f 221/4/1 222/4/1 223/4/1 224/4/1
f 225/4/3 226/4/3 227/4/3 228/4/3
f 229/4/4 230/4/4 231/4/4 232/4/4
f 233/3/1 234/3/1 235/3/1 236/3/1
f 237/3/3 238/3/3 239/3/3 240/3/3
f 241/3/4 242/3/4 243/3/4 244/3/4
f 245/1/1 246/1/1 247/1/1 248/1/1
f 249/1/3 250/1/3 251/1/3 252/1/3
f 253/1/4 254/1/4 255/1/4 256/1/4
f 257/1/1 258/1/1 259/1/1 260/1/1
f 261/1/3 262/1/3 263/1/3 264/1/3
f 265/1/4 266/1/4 267/1/4 268/1/4
f 269/1/1 270/1/1 271/1/1 272/1/1
f 273/1/3 274/1/3 275/1/3 276/1/3
f 277/1/4 278/1/4 279/1/4 280/1/4
f 281/1/1 282/1/1 283/1/1 284/1/1
f 285/1/3 286/1/3 287/1/3 288/1/3
f 289/1/4 290/1/4 291/1/4 292/1/4
f 293/1/6 294/1/6 295/1/6 296/1/6
f 297/1/3 298/1/3 299/1/3 300/1/3
f 301/1/4 302/1/4 303/1/4 304/1/4
f 305/1/5 306/1/5 307/1/5 308/1/5
f 309/1/3 310/1/3 311/1/3 312/1/3
f 313/1/4 314/1/4 315/1/4 316/1/4
f 317/1/3 318/1/3 319/1/3 320/1/3
f 321/1/4 322/1/4 323/1/4 324/1/4
f 325/1/3 326/1/3 327/1/3 328/1/3
f 329/1/4 330/1/4 331/1/4 332/1/4
f 333/1/3 334/1/3 335/1/3 336/1/3
f 337/1/4 338/1/4 339/1/4 340/1/4
f 341/1/3 342/1/3 343/1/3 344/1/3
f 345/1/4 346/1/4 347/1/4 348/1/4
f 349/1/3 350/1/3 351/1/3 352/1/3
f 353/1/4 354/1/4 355/1/4 356/1/4
f 357/1/3 358/1/3 359/1/3 360/1/3
f 361/1/4 362/1/4 363/1/4 364/1/4
f 365/1/3 366/1/3 367/1/3 368/1/3
f 369/1/4 370/1/4 371/1/4 372/1/4
f 373/1/3 374/1/3 375/1/3 376/1/3
f 377/1/4 378/1/4 379/1/4 380/1/4
f 381/1/3 382/1/3 383/1/3 384/1/3
f 385/1/4 386/1/4 387/1/4 388/1/4
f 389/1/3 390/1/3 391/1/3 392/1/3
f 393/1/4 394/1/4 395/1/4 396/1/4
f 397/1/3 398/1/3 399/1/3 400/1/3
f 401/1/4 402/1/4 403/1/4 404/1/4
f 405/1/3 406/1/3 407/1/3 408/1/3
f 409/1/4 410/1/4 411/1/4 412/1/4
f 413/2/3 414/2/3 415/2/3 416/2/3
f 417/2/4 418/2/4 419/2/4 420/2/4
f 421/4/3 422/4/3 423/4/3 424/4/3
f 425/4/4 426/4/4 427/4/4 428/4/4
f 429/4/3 430/4/3 431/4/3 432/4/3
f 433/4/4 434/4/4 435/4/4 436/4/4
f 437/4/3 438/4/3 439/4/3 440/4/3
f 441/4/4 442/4/4 443/4/4 444/4/4
f 445/2/3 446/2/3 447/2/3 448/2/3
f 449/2/4 450/2/4 451/2/4 452/2/4
f 453/1/3 454/1/3 455/1/3 456/1/3
f 457/1/4 458/1/4 459/1/4 460/1/4
f 461/1/3 462/1/3 463/1/3 464/1/3
f 465/1/4 466/1/4 467/1/4 468/1/4
f 469/1/3 470/1/3 471/1/3 472/1/3
f 473/1/4 474/1/4 475/1/4 476/1/4
f 477/1/3 478/1/3 479/1/3 480/1/3
f 481/1/4 482/1/4 483/1/4 484/1/4
f 485/1/3 486/1/3 487/1/3 488/1/3
f 489/1/4 490/1/4 491/1/4 492/1/4
f 493/1/6 494/1/6 495/1/6 496/1/6
f 497/1/3 498/1/3 499/1/3 500/1/3
f 501/1/4 502/1/4 503/1/4 504/1/4
f 505/1/5 506/1/5 507/1/5 508/1/5
f 509/1/3 510/1/3 511/1/3 512/1/3
f 513/1/4 514/1/4 515/1/4 516/1/4
f 517/1/3 518/1/3 519/1/3 520/1/3
f 521/1/4 522/1/4 523/1/4 524/1/4
f 525/1/3 526/1/3 527/1/3 528/1/3
f 529/1/4 530/1/4 531/1/4 532/1/4
f 533/1/3 534/1/3 535/1/3 536/1/3
f 537/1/4 538/1/4 539/1/4 540/1/4
f 541/1/3 542/1/3 543/1/3 544/1/3
f 545/1/4 546/1/4 547/1/4 548/1/4
f 549/1/3 550/1/3 551/1/3 552/1/3
f 553/1/4 554/1/4 555/1/4 556/1/4
f 557/3/3 558/3/3 559/3/3 560/3/3
f 561/3/4 562/3/4 563/3/4 564/3/4
f 565/3/3 566/3/3 567/3/3 568/3/3
f 569/3/4 570/3/4 571/3/4 572/3/4
f 573/1/3 574/1/3 575/1/3 576/1/3
f 577/1/4 578/1/4 579/1/4 580/1/4
f 581/1/3 582/1/3 583/1/3 584/1/3
f 585/1/4 586/1/4 587/1/4 588/1/4
f 589/1/3 590/1/3 591/1/3 592/1/3
f 593/1/4 594/1/4 595/1/4 596/1/4
f 597/1/3 598/1/3 599/1/3 600/1/3
f 601/1/4 602/1/4 603/1/4 604/1/4
f 605/3/3 606/3/3 607/3/3 608/3/3
f 609/3/4 610/3/4 611/3/4 612/3/4
f 613/2/3 614/2/3 615/2/3 616/2/3
f 617/2/4 618/2/4 619/2/4 620/2/4
f 621/4/3 622/4/3 623/4/3 624/4/3
f 625/4/4 626/4/4 627/4/4 628/4/4
f 629/4/3 630/4/3 631/4/3 632/4/3
f 633/4/4 634/4/4 635/4/4 636/4/4
f 637/2/3 638/2/3 639/2/3 640/2/3
f 641/2/4 642/2/4 643/2/4 644/2/4
f 645/1/3 646/1/3 647/1/3 648/1/3
f 649/1/4 650/1/4 651/1/4 652/1/4
f 653/1/3 654/1/3 655/1/3 656/1/3
f 657/1/4 658/1/4 659/1/4 660/1/4
f 661/1/3 662/1/3 663/1/3 664/1/3
f 665/1/4 666/1/4 667/1/4 668/1/4
f 669/1/3 670/1/3 671/1/3 672/1/3
f 673/1/4 674/1/4 675/1/4 676/1/4
f 677/1/3 678/1/3 679/1/3 680/1/3
f 681/1/4 682/1/4 683/1/4 684/1/4
f 685/1/3 686/1/3 687/1/3 688/1/3
f 689/1/4 690/1/4 691/1/4 692/1/4
f 693/1/6 694/1/6 695/1/6 696/1/6
f 697/1/3 698/1/3 699/1/3 700/1/3
f 701/1/4 702/1/4 703/1/4 704/1/4
f 705/1/5 706/1/5 707/1/5 708/1/5
f 709/1/3 710/1/3 711/1/3 712/1/3
f 713/1/4 714/1/4 715/1/4 716/1/4
f 717/1/3 718/1/3 719/1/3 720/1/3
f 721/1/4 722/1/4 723/1/4 724/1/4
f 725/1/3 726/1/3 727/1/3 728/1/3
f 729/1/4 730/1/4 731/1/4 732/1/4
f 733/1/3 734/1/3 735/1/3 736/1/3
f 737/1/4 738/1/4 739/1/4 740/1/4
f 741/1/3 742/1/3 743/1/3 744/1/3
f 745/1/4 746/1/4 747/1/4 748/1/4
f 749/1/3 750/1/3 751/1/3 752/1/3
f 753/1/4 754/1/4 755/1/4 756/1/4
f 757/2/3 758/2/3 759/2/3 760/2/3
f 761/2/4 762/2/4 763/2/4 764/2/4
f 765/2/3 766/2/3 767/2/3 768/2/3
f 769/2/4 770/2/4 771/2/4 772/2/4
f 773/3/3 774/3/3 775/3/3 776/3/3
f 777/3/4 778/3/4 779/3/4 780/3/4
f 781/1/3 782/1/3 783/1/3 784/1/3
f 785/1/4 786/1/4 787/1/4 788/1/4
f 789/1/3 790/1/3 791/1/3 792/1/3
f 793/1/4 794/1/4 795/1/4 796/1/4
f 797/3/3 798/3/3 799/3/3 800/3/3
f 801/3/4 802/3/4 803/3/4 804/3/4
f 805/3/3 806/3/3 807/3/3 808/3/3
f 809/3/4 810/3/4 811/3/4 812/3/4
f 813/2/3 814/2/3 815/2/3 816/2/3
f 817/2/4 818/2/4 819/2/4 820/2/4
f 821/3/3 822/3/3 823/3/3 824/3/3
f 825/3/4 826/3/4 827/3/4 828/3/4
f 829/1/3 830/1/3 831/1/3 832/1/3
f 833/1/4 834/1/4 835/1/4 836/1/4
f 837/1/3 838/1/3 839/1/3 840/1/3
f 841/1/4 842/1/4 843/1/4 844/1/4
f 845/1/3 846/1/3 847/1/3 848/1/3
f 849/1/4 850/1/4 851/1/4 852/1/4
f 853/1/3 854/1/3 855/1/3 856/1/3
f 857/1/4 858/1/4 859/1/4 860/1/4
f 861/1/3 862/1/3 863/1/3 864/1/3
f 865/1/4 866/1/4 867/1/4 868/1/4
f 869/1/3 870/1/3 871/1/3 872/1/3
f 873/1/4 874/1/4 875/1/4 876/1/4
f 877/1/3 878/1/3 879/1/3 880/1/3
f 881/1/4 882/1/4 883/1/4 884/1/4
f 885/1/3 886/1/3 887/1/3 888/1/3
f 889/1/4 890/1/4 891/1/4 892/1/4
f 893/1/6 894/1/6 895/1/6 896/1/6
f 897/1/3 898/1/3 899/1/3 900/1/3
f 901/1/4 902/1/4 903/1/4 904/1/4
f 905/1/5 906/1/5 907/1/5 908/1/5
f 909/1/3 910/1/3 911/1/3 912/1/3
f 913/1/4 914/1/4 915/1/4 916/1/4
f 917/1/3 918/1/3 919/1/3 920/1/3
f 921/1/4 922/1/4 923/1/4 924/1/4
f 925/1/3 926/1/3 927/1/3 928/1/3
f 929/1/4 930/1/4 931/1/4 932/1/4
f 933/1/3 934/1/3 935/1/3 936/1/3
f 937/1/4 938/1/4 939/1/4 940/1/4
f 941/1/3 942/1/3 943/1/3 944/1/3
f 945/1/4 946/1/4 947/1/4 948/1/4
f 949/3/3 950/3/3 951/3/3 952/3/3
f 953/3/4 954/3/4 955/3/4 956/3/4
f 957/2/3 958/2/3 959/2/3 960/2/3
f 961/2/4 962/2/4 963/2/4 964/2/4
f 965/2/3 966/2/3 967/2/3 968/2/3
f 969/2/4 970/2/4 971/2/4 972/2/4
f 973/2/3 974/2/3 975/2/3 976/2/3
f 977/2/4 978/2/4 979/2/4 980/2/4
f 981/2/3 982/2/3 983/2/3 984/2/3
f 985/2/4 986/2/4 987/2/4 988/2/4
f 989/2/3 990/2/3 991/2/3 992/2/3
f 993/2/4 994/2/4 995/2/4 996/2/4
f 997/2/3 998/2/3 999/2/3 1000/2/3
f 1001/2/4 1002/2/4 1003/2/4 1004/2/4
f 1005/3/3 1006/3/3 1007/3/3 1008/3/3
f 1009/3/4 1010/3/4 1011/3/4 1012/3/4
f 1013/1/3 1014/1/3 1015/1/3 1016/1/3
f 1017/1/4 1018/1/4 1019/1/4 1020/1/4
f 1021/1/3 1022/1/3 1023/1/3 1024/1/3
f 1025/1/4 1026/1/4 1027/1/4 1028/1/4
f 1029/1/3 1030/1/3 1031/1/3 1032/1/3
f 1033/1/4 1034/1/4 1035/1/4 1036/1/4
f 1037/1/3 1038/1/3 1039/1/3 1040/1/3
f 1041/1/4 1042/1/4 1043/1/4 1044/1/4
f 1045/1/3 1046/1/3 1047/1/3 1048/1/3
f 1049/1/4 1050/1/4 1051/1/4 1052/1/4
f 1053/1/3 1054/1/3 1055/1/3 1056/1/3
f 1057/1/4 1058/1/4 1059/1/4 1060/1/4
f 1061/1/3 1062/1/3 1063/1/3 1064/1/3
f 1065/1/4 1066/1/4 1067/1/4 1068/1/4
f 1069/1/3 1070/1/3 1071/1/3 1072/1/3
f 1073/1/4 1074/1/4 1075/1/4 1076/1/4
f 1077/1/3 1078/1/3 1079/1/3 1080/1/3
f 1081/1/4 1082/1/4 1083/1/4 1084/1/4
f 1085/1/3 1086/1/3 1087/1/3 1088/1/3
f 1089/1/4 1090/1/4 1091/1/4 1092/1/4
f 1093/1/6 1094/1/6 1095/1/6 1096/1/6
f 1097/1/3 1098/1/3 1099/1/3 1100/1/3
f 1101/1/4 1102/1/4 1103/1/4 1104/1/4
f 1105/1/5 1106/1/5 1107/1/5 1108/1/5
f 1109/1/3 1110/1/3 1111/1/3 1112/1/3
f 1113/1/4 1114/1/4 1115/1/4 1116/1/4
f 1117/1/3 1118/1/3 1119/1/3 1120/1/3
f 1121/1/4 1122/1/4 1123/1/4 1124/1/4
f 1125/1/3 1126/1/3 1127/1/3 1128/1/3
f 1129/1/4 1130/1/4 1131/1/4 1132/1/4
f 1133/1/3 1134/1/3 1135/1/3 1136/1/3
f 1137/1/4 1138/1/4 1139/1/4 1140/1/4
f 1141/1/3 1142/1/3 1143/1/3 1144/1/3
f 1145/1/4 1146/1/4 1147/1/4 1148/1/4
f 1149/3/3 1150/3/3 1151/3/3 1152/3/3
f 1153/3/4 1154/3/4 1155/3/4 1156/3/4
f 1157/2/3 1158/2/3 1159/2/3 1160/2/3
f 1161/2/4 1162/2/4 1163/2/4 1164/2/4
f 1165/2/3 1166/2/3 1167/2/3 1168/2/3
f 1169/2/4 1170/2/4 1171/2/4 1172/2/4
f 1173/4/3 1174/4/3 1175/4/3 1176/4/3
f 1177/4/4 1178/4/4 1179/4/4 1180/4/4
f 1181/4/3 1182/4/3 1183/4/3 1184/4/3
f 1185/4/4 1186/4/4 1187/4/4 1188/4/4
f 1189/2/3 1190/2/3 1191/2/3 1192/2/3
f 1193/2/4 1194/2/4 1195/2/4 1196/2/4
f 1197/3/3 1198/3/3 1199/3/3 1200/3/3
f 1201/3/4 1202/3/4 1203/3/4 1204/3/4
f 1205/1/3 1206/1/3 1207/1/3 1208/1/3
f 1209/1/4 1210/1/4 1211/1/4 1212/1/4
f 1213/1/3 1214/1/3 1215/1/3 1216/1/3
f 1217/1/4 1218/1/4 1219/1/4 1220/1/4
f 1221/1/3 1222/1/3 1223/1/3 1224/1/3
f 1225/1/4 1226/1/4 1227/1/4 1228/1/4
f 1229/1/3 1230/1/3 1231/1/3 1232/1/3
f 1233/1/4 1234/1/4 1235/1/4 1236/1/4
f 1237/1/3 1238/1/3 1239/1/3 1240/1/3
f 1241/1/4 1242/1/4 1243/1/4 1244/1/4
f 1245/1/3 1246/1/3 1247/1/3 1248/1/3
f 1249/1/4 1250/1/4 1251/1/4 1252/1/4
f 1253/1/3 1254/1/3 1255/1/3 1256/1/3
f 1257/1/4 1258/1/4 1259/1/4 1260/1/4
f 1261/1/3 1262/1/3 1263/1/3 1264/1/3
f 1265/1/4 1266/1/4 1267/1/4 1268/1/4
f 1269/1/3 1270/1/3 1271/1/3 1272/1/3
f 1273/1/4 1274/1/4 1275/1/4 1276/1/4
f 1277/1/3 1278/1/3 1279/1/3 1280/1/3
f 1281/1/4 1282/1/4 1283/1/4 1284/1/4
f 1285/1/3 1286/1/3 1287/1/3 1288/1/3
f 1289/1/4 1290/1/4 1291/1/4 1292/1/4
f 1293/1/6 1294/1/6 1295/1/6 1296/1/6
f 1297/1/3 1298/1/3 1299/1/3 1300/1/3
f 1301/1/4 1302/1/4 1303/1/4 1304/1/4
f 1305/1/5 1306/1/5 1307/1/5 1308/1/5
f 1309/1/3 1310/1/3 1311/1/3 1312/1/3
f 1313/1/4 1314/1/4 1315/1/4 1316/1/4
f 1317/1/3 1318/1/3 1319/1/3 1320/1/3
f 1321/1/4 1322/1/4 1323/1/4 1324/1/4
f 1325/1/3 1326/1/3 1327/1/3 1328/1/3
f 1329/1/4 1330/1/4 1331/1/4 1332/1/4
f 1333/1/3 1334/1/3 1335/1/3 1336/1/3
f 1337/1/4 1338/1/4 1339/1/4 1340/1/4
f 1341/1/3 1342/1/3 1343/1/3 1344/1/3
f 1345/1/4 1346/1/4 1347/1/4 1348/1/4
f 1349/3/3 1350/3/3 1351/3/3 1352/3/3
f 1353/3/4 1354/3/4 1355/3/4 1356/3/4
f 1357/2/3 1358/2/3 1359/2/3 1360/2/3
f 1361/2/4 1362/2/4 1363/2/4 1364/2/4
f 1365/4/3 1366/4/3 1367/4/3 1368/4/3
f 1369/4/4 1370/4/4 1371/4/4 1372/4/4
f 1373/4/3 1374/4/3 1375/4/3 1376/4/3
f 1377/4/4 1378/4/4 1379/4/4 1380/4/4
f 1381/4/3 1382/4/3 1383/4/3 1384/4/3
f 1385/4/4 1386/4/4 1387/4/4 1388/4/4
f 1389/2/3 1390/2/3 1391/2/3 1392/2/3
f 1393/2/4 1394/2/4 1395/2/4 1396/2/4
f 1397/1/3 1398/1/3 1399/1/3 1400/1/3
f 1401/1/4 1402/1/4 1403/1/4 1404/1/4
f 1405/1/3 1406/1/3 1407/1/3 1408/1/3
f 1409/1/4 1410/1/4 1411/1/4 1412/1/4
f 1413/1/3 1414/1/3 1415/1/3 1416/1/3
f 1417/1/4 1418/1/4 1419/1/4 1420/1/4
f 1421/1/3 1422/1/3 1423/1/3 1424/1/3
f 1425/1/4 1426/1/4 1427/1/4 1428/1/4
f 1429/1/3 1430/1/3 1431/1/3 1432/1/3
f 1433/1/4 1434/1/4 1435/1/4 1436/1/4
f 1437/1/3 1438/1/3 1439/1/3 1440/1/3
f 1441/1/4 1442/1/4 1443/1/4 1444/1/4
f 1445/1/3 1446/1/3 1447/1/3 1448/1/3
f 1449/1/4 1450/1/4 1451/1/4 1452/1/4
f 1453/1/3 1454/1/3 1455/1/3 1456/1/3
f 1457/1/4 1458/1/4 1459/1/4 1460/1/4
f 1461/1/3 1462/1/3 1463/1/3 1464/1/3
f 1465/1/4 1466/1/4 1467/1/4 1468/1/4
f 1469/1/3 1470/1/3 1471/1/3 1472/1/3
f 1473/1/4 1474/1/4 1475/1/4 1476/1/4
f 1477/1/3 1478/1/3 1479/1/3 1480/1/3
f 1481/1/4 1482/1/4 1483/1/4 1484/1/4
f 1485/1/3 1486/1/3 1487/1/3 1488/1/3
f 1489/1/4 1490/1/4 1491/1/4 1492/1/4
f 1493/1/6 1494/1/6 1495/1/6 1496/1/6
f 1497/1/3 1498/1/3 1499/1/3 1500/1/3
f 1501/1/4 1502/1/4 1503/1/4 1504/1/4
f 1505/1/5 1506/1/5 1507/1/5 1508/1/5
f 1509/1/3 1510/1/3 1511/1/3 1512/1/3
f 1513/1/4 1514/1/4 1515/1/4 1516/1/4
f 1517/1/3 1518/1/3 1519/1/3 1520/1/3
f 1521/1/4 1522/1/4 1523/1/4 1524/1/4
f 1525/1/3 1526/1/3 1527/1/3 1528/1/3
f 1529/1/4 1530/1/4 1531/1/4 1532/1/4
f 1533/1/3 1534/1/3 1535/1/3 1536/1/3
f 1537/1/4 1538/1/4 1539/1/4 1540/1/4
f 1541/1/3 1542/1/3 1543/1/3 1544/1/3
f 1545/1/4 1546/1/4 1547/1/4 1548/1/4
f 1549/1/3 1550/1/3 1551/1/3 1552/1/3
f 1553/1/4 1554/1/4 1555/1/4 1556/1/4
f 1557/2/3 1558/2/3 1559/2/3 1560/2/3
f 1561/2/4 1562/2/4 1563/2/4 1564/2/4
f 1565/4/3 1566/4/3 1567/4/3 1568/4/3
f 1569/4/4 1570/4/4 1571/4/4 1572/4/4
f 1573/4/3 1574/4/3 1575/4/3 1576/4/3
f 1577/4/4 1578/4/4 1579/4/4 1580/4/4
f 1581/4/3 1582/4/3 1583/4/3 1584/4/3
f 1585/4/4 1586/4/4 1587/4/4 1588/4/4
f 1589/1/3 1590/1/3 1591/1/3 1592/1/3
f 1593/1/4 1594/1/4 1595/1/4 1596/1/4
f 1597/1/3 1598/1/3 1599/1/3 1600/1/3
f 1601/1/4 1602/1/4 1603/1/4 1604/1/4
f 1605/1/3 1606/1/3 1607/1/3 1608/1/3
f 1609/1/4 1610/1/4 1611/1/4 1612/1/4
f 1613/1/3 1614/1/3 1615/1/3 1616/1/3
f 1617/1/4 1618/1/4 1619/1/4 1620/1/4
f 1621/1/3 1622/1/3 1623/1/3 1624/1/3
f 1625/1/4 1626/1/4 1627/1/4 1628/1/4
f 1629/1/3 1630/1/3 1631/1/3 1632/1/3
f 1633/1/4 1634/1/4 1635/1/4 1636/1/4
f 1637/1/3 1638/1/3 1639/1/3 1640/1/3
f 1641/1/4 1642/1/4 1643/1/4 1644/1/4
f 1645/1/3 1646/1/3 1647/1/3 1648/1/3
f 1649/1/4 1650/1/4 1651/1/4 1652/1/4
f 1653/1/3 1654/1/3 1655/1/3 1656/1/3
f 1657/1/4 1658/1/4 1659/1/4 1660/1/4
f 1661/1/3 1662/1/3 1663/1/3 1664/1/3
f 1665/1/4 1666/1/4 1667/1/4 1668/1/4
f 1669/3/3 1670/3/3 1671/3/3 1672/3/3
f 1673/3/4 1674/3/4 1675/3/4 1676/3/4
f 1677/2/3 1678/2/3 1679/2/3 1680/2/3
f 1681/2/4 1682/2/4 1683/2/4 1684/2/4
f 1685/2/3 1686/2/3 1687/2/3 1688/2/3
f 1689/2/4 1690/2/4 1691/2/4 1692/2/4
f 1693/2/6 1694/2/6 1695/2/6 1696/2/6
f 1697/3/3 1698/3/3 1699/3/3 1700/3/3
f 1701/3/4 1702/3/4 1703/3/4 1704/3/4
f 1705/3/5 1706/3/5 1707/3/5 1708/3/5
f 1709/2/3 1710/2/3 1711/2/3 1712/2/3
f 1713/2/4 1714/2/4 1715/2/4 1716/2/4
f 1717/2/3 1718/2/3 1719/2/3 1720/2/3
f 1721/2/4 1722/2/4 1723/2/4 1724/2/4
f 1725/3/3 1726/3/3 1727/3/3 1728/3/3
f 1729/3/4 1730/3/4 1731/3/4 1732/3/4
f 1733/1/3 1734/1/3 1735/1/3 1736/1/3
f 1737/1/4 1738/1/4 1739/1/4 1740/1/4
f 1741/1/3 1742/1/3 1743/1/3 1744/1/3
f 1745/1/4 1746/1/4 1747/1/4 1748/1/4
f 1749/1/3 1750/1/3 1751/1/3 1752/1/3
f 1753/1/4 1754/1/4 1755/1/4 1756/1/4
f 1757/2/3 1758/2/3 1759/2/3 1760/2/3
f 1761/2/4 1762/2/4 1763/2/4 1764/2/4
f 1765/2/3 1766/2/3 1767/2/3 1768/2/3
f 1769/2/4 1770/2/4 1771/2/4 1772/2/4
f 1773/2/3 1774/2/3 1775/2/3 1776/2/3
f 1777/2/4 1778/2/4 1779/2/4 1780/2/4
f 1781/3/3 1782/3/3 1783/3/3 1784/3/3
f 1785/3/4 1786/3/4 1787/3/4 1788/3/4
f 1789/1/3 1790/1/3 1791/1/3 1792/1/3
f 1793/1/4 1794/1/4 1795/1/4 1796/1/4
f 1797/1/3 1798/1/3 1799/1/3 1800/1/3
f 1801/1/4 1802/1/4 1803/1/4 1804/1/4
f 1805/1/3 1806/1/3 1807/1/3 1808/1/3
f 1809/1/4 1810/1/4 1811/1/4 1812/1/4
f 1813/1/3 1814/1/3 1815/1/3 1816/1/3
f 1817/1/4 1818/1/4 1819/1/4 1820/1/4
f 1821/1/3 1822/1/3 1823/1/3 1824/1/3
f 1825/1/4 1826/1/4 1827/1/4 1828/1/4
f 1829/1/3 1830/1/3 1831/1/3 1832/1/3
f 1833/1/4 1834/1/4 1835/1/4 1836/1/4
f 1837/1/3 1838/1/3 1839/1/3 1840/1/3
f 1841/1/4 1842/1/4 1843/1/4 1844/1/4
f 1845/1/3 1846/1/3 1847/1/3 1848/1/3
f 1849/1/4 1850/1/4 1851/1/4 1852/1/4
f 1853/3/3 1854/3/3 1855/3/3 1856/3/3
f 1857/3/4 1858/3/4 1859/3/4 1860/3/4
f 1861/2/3 1862/2/3 1863/2/3 1864/2/3
f 1865/2/4 1866/2/4 1867/2/4 1868/2/4
f 1869/4/3 1870/4/3 1871/4/3 1872/4/3
f 1873/4/4 1874/4/4 1875/4/4 1876/4/4
f 1877/4/3 1878/4/3 1879/4/3 1880/4/3
f 1881/4/4 1882/4/4 1883/4/4 1884/4/4
f 1885/4/3 1886/4/3 1887/4/3 1888/4/3
f 1889/4/4 1890/4/4 1891/4/4 1892/4/4
f 1893/4/6 1894/4/6 1895/4/6 1896/4/6
f 1897/4/3 1898/4/3 1899/4/3 1900/4/3
f 1901/4/4 1902/4/4 1903/4/4 1904/4/4
f 1905/4/5 1906/4/5 1907/4/5 1908/4/5
f 1909/4/3 1910/4/3 1911/4/3 1912/4/3
f 1913/4/4 1914/4/4 1915/4/4 1916/4/4
f 1917/2/3 1918/2/3 1919/2/3 1920/2/3
f 1921/2/4 1922/2/4 1923/2/4 1924/2/4
f 1925/1/3 1926/1/3 1927/1/3 1928/1/3
f 1929/1/4 1930/1/4 1931/1/4 1932/1/4
f 1933/1/3 1934/1/3 1935/1/3 1936/1/3
f 1937/1/4 1938/1/4 1939/1/4 1940/1/4
f 1941/1/3 1942/1/3 1943/1/3 1944/1/3
f 1945/1/4 1946/1/4 1947/1/4 1948/1/4
f 1949/1/3 1950/1/3 1951/1/3 1952/1/3
f 1953/1/4 1954/1/4 1955/1/4 1956/1/4
f 1957/3/3 1958/3/3 1959/3/3 1960/3/3
f 1961/3/4 1962/3/4 1963/3/4 1964/3/4
f 1965/3/3 1966/3/3 1967/3/3 1968/3/3
f 1969/3/4 1970/3/4 1971/3/4 1972/3/4
f 1973/1/3 1974/1/3 1975/1/3 1976/1/3
f 1977/1/4 1978/1/4 1979/1/4 1980/1/4
f 1981/1/3 1982/1/3 1983/1/3 1984/1/3
f 1985/1/4 1986/1/4 1987/1/4 1988/1/4
f 1989/1/3 1990/1/3 1991/1/3 1992/1/3
f 1993/1/4 1994/1/4 1995/1/4 1996/1/4
f 1997/1/3 1998/1/3 1999/1/3 2000/1/3
f 2001/1/4 2002/1/4 2003/1/4 2004/1/4
f 2005/1/3 2006/1/3 2007/1/3 2008/1/3
f 2009/1/4 2010/1/4 2011/1/4 2012/1/4
f 2013/1/3 2014/1/3 2015/1/3 2016/1/3
f 2017/1/4 2018/1/4 2019/1/4 2020/1/4
f 2021/1/3 2022/1/3 2023/1/3 2024/1/3
f 2025/1/4 2026/1/4 2027/1/4 2028/1/4
f 2029/1/3 2030/1/3 2031/1/3 2032/1/3
f 2033/1/4 2034/1/4 2035/1/4 2036/1/4
f 2037/1/3 2038/1/3 2039/1/3 2040/1/3
f 2041/1/4 2042/1/4 2043/1/4 2044/1/4
f 2045/1/3 2046/1/3 2047/1/3 2048/1/3
f 2049/1/4 2050/1/4 2051/1/4 2052/1/4
f 2053/2/3 2054/2/3 2055/2/3 2056/2/3
f 2057/2/4 2058/2/4 2059/2/4 2060/2/4
f 2061/4/3 2062/4/3 2063/4/3 2064/4/3
f 2065/4/4 2066/4/4 2067/4/4 2068/4/4
f 2069/4/3 2070/4/3 2071/4/3 2072/4/3
f 2073/4/4 2074/4/4 2075/4/4 2076/4/4
f 2077/4/3 2078/4/3 2079/4/3 2080/4/3
f 2081/4/4 2082/4/4 2083/4/4 2084/4/4
f 2085/2/3 2086/2/3 2087/2/3 2088/2/3
f 2089/2/4 2090/2/4 2091/2/4 2092/2/4
f 2093/2/6 2094/2/6 2095/2/6 2096/2/6
f 2097/4/3 2098/4/3 2099/4/3 2100/4/3
f 2101/4/4 2102/4/4 2103/4/4 2104/4/4
f 2105/4/5 2106/4/5 2107/4/5 2108/4/5
f 2109/4/3 2110/4/3 2111/4/3 2112/4/3
f 2113/4/4 2114/4/4 2115/4/4 2116/4/4
f 2117/2/3 2118/2/3 2119/2/3 2120/2/3
f 2121/2/4 2122/2/4 2123/2/4 2124/2/4
f 2125/1/3 2126/1/3 2127/1/3 2128/1/3
f 2129/1/4 2130/1/4 2131/1/4 2132/1/4
f 2133/1/3 2134/1/3 2135/1/3 2136/1/3
f 2137/1/4 2138/1/4 2139/1/4 2140/1/4
f 2141/1/3 2142/1/3 2143/1/3 2144/1/3
f 2145/1/4 2146/1/4 2147/1/4 2148/1/4
f 2149/1/3 2150/1/3 2151/1/3 2152/1/3
f 2153/1/4 2154/1/4 2155/1/4 2156/1/4
f 2157/1/3 2158/1/3 2159/1/3 2160/1/3
f 2161/1/4 2162/1/4 2163/1/4 2164/1/4
f 2165/1/3 2166/1/3 2167/1/3 2168/1/3
f 2169/1/4 2170/1/4 2171/1/4 2172/1/4
f 2173/1/3 2174/1/3 2175/1/3 2176/1/3
f 2177/1/4 2178/1/4 2179/1/4 2180/1/4
f 2181/1/3 2182/1/3 2183/1/3 2184/1/3
f 2185/1/4 2186/1/4 2187/1/4 2188/1/4
f 2189/1/3 2190/1/3 2191/1/3 2192/1/3
f 2193/1/4 2194/1/4 2195/1/4 2196/1/4
f 2197/1/3 2198/1/3 2199/1/3 2200/1/3
f 2201/1/4 2202/1/4 2203/1/4 2204/1/4
f 2205/1/3 2206/1/3 2207/1/3 2208/1/3
f 2209/1/4 2210/1/4 2211/1/4 2212/1/4
f 2213/1/3 2214/1/3 2215/1/3 2216/1/3
f 2217/1/4 2218/1/4 2219/1/4 2220/1/4
f 2221/1/3 2222/1/3 2223/1/3 2224/1/3
f 2225/1/4 2226/1/4 2227/1/4 2228/1/4
f 2229/1/3 2230/1/3 2231/1/3 2232/1/3
f 2233/1/4 2234/1/4 2235/1/4 2236/1/4
f 2237/1/3 2238/1/3 2239/1/3 2240/1/3
f 2241/1/4 2242/1/4 2243/1/4 2244/1/4
f 2245/3/3 2246/3/3 2247/3/3 2248/3/3
f 2249/3/4 2250/3/4 2251/3/4 2252/3/4
f 2253/4/3 2254/4/3 2255/4/3 2256/4/3
f 2257/4/4 2258/4/4 2259/4/4 2260/4/4
f 2261/4/3 2262/4/3 2263/4/3 2264/4/3
f 2265/4/4 2266/4/4 2267/4/4 2268/4/4
f 2269/4/3 2270/4/3 2271/4/3 2272/4/3
f 2273/4/4 2274/4/4 2275/4/4 2276/4/4
f 2277/2/3 2278/2/3 2279/2/3 2280/2/3
f 2281/2/4 2282/2/4 2283/2/4 2284/2/4
f 2285/1/3 2286/1/3 2287/1/3 2288/1/3
f 2289/1/4 2290/1/4 2291/1/4 2292/1/4
f 2293/1/6 2294/1/6 2295/1/6 2296/1/6
f 2297/4/2 2298/4/2 2299/4/2 2300/4/2
f 2301/4/3 2302/4/3 2303/4/3 2304/4/3
f 2305/4/4 2306/4/4 2307/4/4 2308/4/4
f 2309/4/5 2310/4/5 2311/4/5 2312/4/5
f 2313/4/2 2314/4/2 2315/4/2 2316/4/2
f 2317/4/3 2318/4/3 2319/4/3 2320/4/3
f 2321/4/4 2322/4/4 2323/4/4 2324/4/4
f 2325/3/2 2326/3/2 2327/3/2 2328/3/2
f 2329/3/3 2330/3/3 2331/3/3 2332/3/3
f 2333/3/4 2334/3/4 2335/3/4 2336/3/4
f 2337/1/2 2338/1/2 2339/1/2 2340/1/2
f 2341/1/3 2342/1/3 2343/1/3 2344/1/3
f 2345/1/4 2346/1/4 2347/1/4 2348/1/4
f 2349/1/2 2350/1/2 2351/1/2 2352/1/2
f 2353/1/3 2354/1/3 2355/1/3 2356/1/3
f 2357/1/4 2358/1/4 2359/1/4 2360/1/4
f 2361/1/2 2362/1/2 2363/1/2 2364/1/2
f 2365/1/3 2366/1/3 2367/1/3 2368/1/3
f 2369/1/4 2370/1/4 2371/1/4 2372/1/4
f 2373/1/3 2374/1/3 2375/1/3 2376/1/3
f 2377/1/4 2378/1/4 2379/1/4 2380/1/4
f 2381/1/3 2382/1/3 2383/1/3 2384/1/3
f 2385/1/4 2386/1/4 2387/1/4 2388/1/4
f 2389/1/3 2390/1/3 2391/1/3 2392/1/3
f 2393/1/4 2394/1/4 2395/1/4 2396/1/4
f 2397/1/3 2398/1/3 2399/1/3 2400/1/3
f 2401/1/4 2402/1/4 2403/1/4 2404/1/4
f 2405/1/3 2406/1/3 2407/1/3 2408/1/3
f 2409/1/4 2410/1/4 2411/1/4 2412/1/4
f 2413/1/3 2414/1/3 2415/1/3 2416/1/3
f 2417/1/4 2418/1/4 2419/1/4 2420/1/4
f 2421/3/3 2422/3/3 2423/3/3 2424/3/3
f 2425/3/4 2426/3/4 2427/3/4 2428/3/4
f 2429/3/3 2430/3/3 2431/3/3 2432/3/3
f 2433/3/4 2434/3/4 2435/3/4 2436/3/4
f 2437/1/3 2438/1/3 2439/1/3 2440/1/3
f 2441/1/4 2442/1/4 2443/1/4 2444/1/4
f 2445/1/3 2446/1/3 2447/1/3 2448/1/3
f 2449/1/4 2450/1/4 2451/1/4 2452/1/4
f 2453/1/3 2454/1/3 2455/1/3 2456/1/3
f 2457/1/4 2458/1/4 2459/1/4 2460/1/4
f 2461/1/3 2462/1/3 2463/1/3 2464/1/3
f 2465/1/4 2466/1/4 2467/1/4 2468/1/4
f 2469/2/3 2470/2/3 2471/2/3 2472/2/3
f 2473/2/4 2474/2/4 2475/2/4 2476/2/4
f 2477/4/3 2478/4/3 2479/4/3 2480/4/3
f 2481/4/4 2482/4/4 2483/4/4 2484/4/4
f 2485/4/3 2486/4/3 2487/4/3 2488/4/3
f 2489/4/4 2490/4/4 2491/4/4 2492/4/4
f 2493/2/3 2494/2/3 2495/2/3 2496/2/3
f 2497/2/4 2498/2/4 2499/2/4 2500/2/4
f 2501/3/3 2502/3/3 2503/3/3 2504/3/3
f 2505/3/4 2506/3/4 2507/3/4 2508/3/4
f 2509/1/3 2510/1/3 2511/1/3 2512/1/3
f 2513/1/4 2514/1/4 2515/1/4 2516/1/4
f 2517/1/6 2518/1/6 2519/1/6 2520/1/6
f 2521/1/2 2522/1/2 2523/1/2 2524/1/2
f 2525/1/3 2526/1/3 2527/1/3 2528/1/3
f 2529/1/4 2530/1/4 2531/1/4 2532/1/4
f 2533/1/5 2534/1/5 2535/1/5 2536/1/5
f 2537/1/3 2538/1/3 2539/1/3 2540/1/3
f 2541/1/4 2542/1/4 2543/1/4 2544/1/4
f 2545/1/3 2546/1/3 2547/1/3 2548/1/3
f 2549/1/4 2550/1/4 2551/1/4 2552/1/4
f 2553/1/3 2554/1/3 2555/1/3 2556/1/3
f 2557/1/4 2558/1/4 2559/1/4 2560/1/4
f 2561/1/3 2562/1/3 2563/1/3 2564/1/3
f 2565/1/4 2566/1/4 2567/1/4 2568/1/4
f 2569/2/3 2570/2/3 2571/2/3 2572/2/3
f 2573/2/4 2574/2/4 2575/2/4 2576/2/4
f 2577/2/3 2578/2/3 2579/2/3 2580/2/3
f 2581/2/4 2582/2/4 2583/2/4 2584/2/4
f 2585/2/3 2586/2/3 2587/2/3 2588/2/3
f 2589/2/4 2590/2/4 2591/2/4 2592/2/4
f 2593/1/3 2594/1/3 2595/1/3 2596/1/3
f 2597/1/4 2598/1/4 2599/1/4 2600/1/4
f 2601/1/3 2602/1/3 2603/1/3 2604/1/3
f 2605/1/4 2606/1/4 2607/1/4 2608/1/4
f 2609/1/3 2610/1/3 2611/1/3 2612/1/3
f 2613/1/4 2614/1/4 2615/1/4 2616/1/4
f 2617/3/3 2618/3/3 2619/3/3 2620/3/3
f 2621/3/4 2622/3/4 2623/3/4 2624/3/4
f 2625/2/3 2626/2/3 2627/2/3 2628/2/3
f 2629/2/4 2630/2/4 2631/2/4 2632/2/4
f 2633/2/3 2634/2/3 2635/2/3 2636/2/3
f 2637/2/4 2638/2/4 2639/2/4 2640/2/4
f 2641/3/3 2642/3/3 2643/3/3 2644/3/3
f 2645/3/4 2646/3/4 2647/3/4 2648/3/4
f 2649/1/3 2650/1/3 2651/1/3 2652/1/3
f 2653/1/4 2654/1/4 2655/1/4 2656/1/4
f 2657/1/3 2658/1/3 2659/1/3 2660/1/3
f 2661/1/4 2662/1/4 2663/1/4 2664/1/4
f 2665/1/3 2666/1/3 2667/1/3 2668/1/3
f 2669/1/4 2670/1/4 2671/1/4 2672/1/4
f 2673/1/6 2674/1/6 2675/1/6 2676/1/6
f 2677/1/2 2678/1/2 2679/1/2 2680/1/2
f 2681/1/3 2682/1/3 2683/1/3 2684/1/3
f 2685/1/4 2686/1/4 2687/1/4 2688/1/4
f 2689/1/5 2690/1/5 2691/1/5 2692/1/5
f 2693/1/3 2694/1/3 2695/1/3 2696/1/3
f 2697/1/4 2698/1/4 2699/1/4 2700/1/4
f 2701/1/3 2702/1/3 2703/1/3 2704/1/3
f 2705/1/4 2706/1/4 2707/1/4 2708/1/4
f 2709/2/3 2710/2/3 2711/2/3 2712/2/3
f 2713/2/4 2714/2/4 2715/2/4 2716/2/4
f 2717/4/3 2718/4/3 2719/4/3 2720/4/3
f 2721/4/4 2722/4/4 2723/4/4 2724/4/4
f 2725/4/3 2726/4/3 2727/4/3 2728/4/3
f 2729/4/4 2730/4/4 2731/4/4 2732/4/4
f 2733/2/3 2734/2/3 2735/2/3 2736/2/3
f 2737/2/4 2738/2/4 2739/2/4 2740/2/4
f 2741/3/3 2742/3/3 2743/3/3 2744/3/3
f 2745/3/4 2746/3/4 2747/3/4 2748/3/4
f 2749/3/3 2750/3/3 2751/3/3 2752/3/3
f 2753/3/4 2754/3/4 2755/3/4 2756/3/4
f 2757/3/3 2758/3/3 2759/3/3 2760/3/3
f 2761/3/4 2762/3/4 2763/3/4 2764/3/4
f 2765/3/3 2766/3/3 2767/3/3 2768/3/3
f 2769/3/4 2770/3/4 2771/3/4 2772/3/4
f 2773/1/3 2774/1/3 2775/1/3 2776/1/3
f 2777/1/4 2778/1/4 2779/1/4 2780/1/4
f 2781/1/3 2782/1/3 2783/1/3 2784/1/3
f 2785/1/4 2786/1/4 2787/1/4 2788/1/4
f 2789/1/3 2790/1/3 2791/1/3 2792/1/3
f 2793/1/4 2794/1/4 2795/1/4 2796/1/4
f 2797/1/3 2798/1/3 2799/1/3 2800/1/3
f 2801/1/4 2802/1/4 2803/1/4 2804/1/4
f 2805/1/3 2806/1/3 2807/1/3 2808/1/3
f 2809/1/4 2810/1/4 2811/1/4 2812/1/4
f 2813/1/3 2814/1/3 2815/1/3 2816/1/3
f 2817/1/4 2818/1/4 2819/1/4 2820/1/4
f 2821/1/6 2822/1/6 2823/1/6 2824/1/6
f 2825/1/2 2826/1/2 2827/1/2 2828/1/2
f 2829/1/3 2830/1/3 2831/1/3 2832/1/3
f 2833/1/4 2834/1/4 2835/1/4 2836/1/4
f 2837/1/5 2838/1/5 2839/1/5 2840/1/5
f 2841/3/3 2842/3/3 2843/3/3 2844/3/3
f 2845/3/4 2846/3/4 2847/3/4 2848/3/4
f 2849/2/3 2850/2/3 2851/2/3 2852/2/3
f 2853/2/4 2854/2/4 2855/2/4 2856/2/4
f 2857/4/3 2858/4/3 2859/4/3 2860/4/3
f 2861/4/4 2862/4/4 2863/4/4 2864/4/4
f 2865/4/3 2866/4/3 2867/4/3 2868/4/3
f 2869/4/4 2870/4/4 2871/4/4 2872/4/4
f 2873/2/3 2874/2/3 2875/2/3 2876/2/3
f 2877/2/4 2878/2/4 2879/2/4 2880/2/4
f 2881/2/3 2882/2/3 2883/2/3 2884/2/3
f 2885/2/4 2886/2/4 2887/2/4 2888/2/4
f 2889/3/3 2890/3/3 2891/3/3 2892/3/3
f 2893/3/4 2894/3/4 2895/3/4 2896/3/4
f 2897/3/3 2898/3/3 2899/3/3 2900/3/3
f 2901/3/4 2902/3/4 2903/3/4 2904/3/4
f 2905/1/3 2906/1/3 2907/1/3 2908/1/3
f 2909/1/4 2910/1/4 2911/1/4 2912/1/4
f 2913/1/3 2914/1/3 2915/1/3 2916/1/3
f 2917/1/4 2918/1/4 2919/1/4 2920/1/4
f 2921/1/3 2922/1/3 2923/1/3 2924/1/3
f 2925/1/4 2926/1/4 2927/1/4 2928/1/4
f 2929/1/3 2930/1/3 2931/1/3 2932/1/3
f 2933/1/4 2934/1/4 2935/1/4 2936/1/4
f 2937/1/3 2938/1/3 2939/1/3 2940/1/3
f 2941/1/4 2942/1/4 2943/1/4 2944/1/4
f 2945/1/3 2946/1/3 2947/1/3 2948/1/3
f 2949/1/4 2950/1/4 2951/1/4 2952/1/4
f 2953/1/3 2954/1/3 2955/1/3 2956/1/3
f 2957/1/4 2958/1/4 2959/1/4 2960/1/4
f 2961/1/6 2962/1/6 2963/1/6 2964/1/6
f 2965/2/2 2966/2/2 2967/2/2 2968/2/2
f 2969/2/3 2970/2/3 2971/2/3 2972/2/3
f 2973/2/4 2974/2/4 2975/2/4 2976/2/4
f 2977/2/5 2978/2/5 2979/2/5 2980/2/5
f 2981/2/3 2982/2/3 2983/2/3 2984/2/3
f 2985/2/4 2986/2/4 2987/2/4 2988/2/4
f 2989/2/3 2990/2/3 2991/2/3 2992/2/3
f 2993/2/4 2994/2/4 2995/2/4 2996/2/4
f 2997/2/3 2998/2/3 2999/2/3 3000/2/3
f 3001/2/4 3002/2/4 3003/2/4 3004/2/4
f 3005/2/3 3006/2/3 3007/2/3 3008/2/3
f 3009/2/4 3010/2/4 3011/2/4 3012/2/4
f 3013/2/3 3014/2/3 3015/2/3 3016/2/3
f 3017/2/4 3018/2/4 3019/2/4 3020/2/4
f 3021/2/3 3022/2/3 3023/2/3 3024/2/3
f 3025/2/4 3026/2/4 3027/2/4 3028/2/4
f 3029/1/3 3030/1/3 3031/1/3 3032/1/3
f 3033/1/4 3034/1/4 3035/1/4 3036/1/4
f 3037/1/3 3038/1/3 3039/1/3 3040/1/3
f 3041/1/4 3042/1/4 3043/1/4 3044/1/4
f 3045/1/3 3046/1/3 3047/1/3 3048/1/3
f 3049/1/4 3050/1/4 3051/1/4 3052/1/4
f 3053/1/3 3054/1/3 3055/1/3 3056/1/3
f 3057/1/4 3058/1/4 3059/1/4 3060/1/4
f 3061/1/3 3062/1/3 3063/1/3 3064/1/3
f 3065/1/4 3066/1/4 3067/1/4 3068/1/4
f 3069/1/3 3070/1/3 3071/1/3 3072/1/3
f 3073/1/4 3074/1/4 3075/1/4 3076/1/4
f 3077/1/3 3078/1/3 3079/1/3 3080/1/3
f 3081/1/4 3082/1/4 3083/1/4 3084/1/4
f 3085/3/3 3086/3/3 3087/3/3 3088/3/3
f 3089/3/4 3090/3/4 3091/3/4 3092/3/4
f 3093/3/6 3094/3/6 3095/3/6 3096/3/6
f 3097/3/2 3098/3/2 3099/3/2 3100/3/2
f 3101/3/3 3102/3/3 3103/3/3 3104/3/3
f 3105/3/4 3106/3/4 3107/3/4 3108/3/4
f 3109/3/5 3110/3/5 3111/3/5 3112/3/5
f 3113/2/3 3114/2/3 3115/2/3 3116/2/3
f 3117/2/4 3118/2/4 3119/2/4 3120/2/4
f 3121/2/3 3122/2/3 3123/2/3 3124/2/3
f 3125/2/4 3126/2/4 3127/2/4 3128/2/4
f 3129/4/3 3130/4/3 3131/4/3 3132/4/3
f 3133/4/4 3134/4/4 3135/4/4 3136/4/4
f 3137/2/3 3138/2/3 3139/2/3 3140/2/3
f 3141/2/4 3142/2/4 3143/2/4 3144/2/4
f 3145/3/3 3146/3/3 3147/3/3 3148/3/3
f 3149/3/4 3150/3/4 3151/3/4 3152/3/4
f 3153/1/3 3154/1/3 3155/1/3 3156/1/3
f 3157/1/4 3158/1/4 3159/1/4 3160/1/4
f 3161/1/3 3162/1/3 3163/1/3 3164/1/3
f 3165/1/4 3166/1/4 3167/1/4 3168/1/4
f 3169/1/3 3170/1/3 3171/1/3 3172/1/3
f 3173/1/4 3174/1/4 3175/1/4 3176/1/4
f 3177/1/3 3178/1/3 3179/1/3 3180/1/3
f 3181/1/4 3182/1/4 3183/1/4 3184/1/4
f 3185/1/3 3186/1/3 3187/1/3 3188/1/3
f 3189/1/4 3190/1/4 3191/1/4 3192/1/4
f 3193/1/3 3194/1/3 3195/1/3 3196/1/3
f 3197/1/4 3198/1/4 3199/1/4 3200/1/4
f 3201/3/3 3202/3/3 3203/3/3 3204/3/3
f 3205/3/4 3206/3/4 3207/3/4 3208/3/4
f 3209/3/3 3210/3/3 3211/3/3 3212/3/3
f 3213/3/4 3214/3/4 3215/3/4 3216/3/4
f 3217/3/6 3218/3/6 3219/3/6 3220/3/6
f 3221/3/3 3222/3/3 3223/3/3 3224/3/3
f 3225/3/4 3226/3/4 3227/3/4 3228/3/4
f 3229/3/5 3230/3/5 3231/3/5 3232/3/5
f 3233/2/3 3234/2/3 3235/2/3 3236/2/3
f 3237/2/4 3238/2/4 3239/2/4 3240/2/4
f 3241/2/3 3242/2/3 3243/2/3 3244/2/3
f 3245/2/4 3246/2/4 3247/2/4 3248/2/4
f 3249/3/3 3250/3/3 3251/3/3 3252/3/3
f 3253/3/4 3254/3/4 3255/3/4 3256/3/4
f 3257/1/3 3258/1/3 3259/1/3 3260/1/3
f 3261/1/4 3262/1/4 3263/1/4 3264/1/4
f 3265/1/3 3266/1/3 3267/1/3 3268/1/3
f 3269/1/4 3270/1/4 3271/1/4 3272/1/4
f 3273/1/3 3274/1/3 3275/1/3 3276/1/3
f 3277/1/4 3278/1/4 3279/1/4 3280/1/4
f 3281/1/3 3282/1/3 3283/1/3 3284/1/3
f 3285/1/4 3286/1/4 3287/1/4 3288/1/4
f 3289/1/3 3290/1/3 3291/1/3 3292/1/3
f 3293/1/4 3294/1/4 3295/1/4 3296/1/4
f 3297/1/3 3298/1/3 3299/1/3 3300/1/3
f 3301/1/4 3302/1/4 3303/1/4 3304/1/4
f 3305/1/3 3306/1/3 3307/1/3 3308/1/3
f 3309/1/4 3310/1/4 3311/1/4 3312/1/4
f 3313/3/3 3314/3/3 3315/3/3 3316/3/3
f 3317/3/4 3318/3/4 3319/3/4 3320/3/4
f 3321/3/3 3322/3/3 3323/3/3 3324/3/3
f 3325/3/4 3326/3/4 3327/3/4 3328/3/4
f 3329/3/6 3330/3/6 3331/3/6 3332/3/6
f 3333/1/2 3334/1/2 3335/1/2 3336/1/2
f 3337/1/3 3338/1/3 3339/1/3 3340/1/3
f 3341/1/4 3342/1/4 3343/1/4 3344/1/4
f 3345/1/5 3346/1/5 3347/1/5 3348/1/5
f 3349/3/3 3350/3/3 3351/3/3 3352/3/3
f 3353/3/4 3354/3/4 3355/3/4 3356/3/4
f 3357/3/3 3358/3/3 3359/3/3 3360/3/3
f 3361/3/4 3362/3/4 3363/3/4 3364/3/4
f 3365/1/3 3366/1/3 3367/1/3 3368/1/3
f 3369/1/4 3370/1/4 3371/1/4 3372/1/4
f 3373/1/3 3374/1/3 3375/1/3 3376/1/3
f 3377/1/4 3378/1/4 3379/1/4 3380/1/4
f 3381/1/3 3382/1/3 3383/1/3 3384/1/3
f 3385/1/4 3386/1/4 3387/1/4 3388/1/4
f 3389/1/3 3390/1/3 3391/1/3 3392/1/3
f 3393/1/4 3394/1/4 3395/1/4 3396/1/4
f 3397/1/3 3398/1/3 3399/1/3 3400/1/3
f 3401/1/4 3402/1/4 3403/1/4 3404/1/4
f 3405/1/3 3406/1/3 3407/1/3 3408/1/3
f 3409/1/4 3410/1/4 3411/1/4 3412/1/4
f 3413/1/3 3414/1/3 3415/1/3 3416/1/3
f 3417/1/4 3418/1/4 3419/1/4 3420/1/4
f 3421/1/3 3422/1/3 3423/1/3 3424/1/3
f 3425/1/4 3426/1/4 3427/1/4 3428/1/4
f 3429/3/3 3430/3/3 3431/3/3 3432/3/3
f 3433/3/4 3434/3/4 3435/3/4 3436/3/4
f 3437/2/3 3438/2/3 3439/2/3 3440/2/3
f 3441/2/4 3442/2/4 3443/2/4 3444/2/4
f 3445/2/6 3446/2/6 3447/2/6 3448/2/6
f 3449/1/3 3450/1/3 3451/1/3 3452/1/3
f 3453/1/4 3454/1/4 3455/1/4 3456/1/4
f 3457/1/5 3458/1/5 3459/1/5 3460/1/5
f 3461/1/3 3462/1/3 3463/1/3 3464/1/3
f 3465/1/4 3466/1/4 3467/1/4 3468/1/4
f 3469/1/3 3470/1/3 3471/1/3 3472/1/3
f 3473/1/4 3474/1/4 3475/1/4 3476/1/4
f 3477/1/3 3478/1/3 3479/1/3 3480/1/3
f 3481/1/4 3482/1/4 3483/1/4 3484/1/4
f 3485/1/3 3486/1/3 3487/1/3 3488/1/3
f 3489/1/4 3490/1/4 3491/1/4 3492/1/4
f 3493/1/3 3494/1/3 3495/1/3 3496/1/3
f 3497/1/4 3498/1/4 3499/1/4 3500/1/4
f 3501/1/3 3502/1/3 3503/1/3 3504/1/3
f 3505/1/4 3506/1/4 3507/1/4 3508/1/4
f 3509/1/3 3510/1/3 3511/1/3 3512/1/3
f 3513/1/4 3514/1/4 3515/1/4 3516/1/4
f 3517/1/3 3518/1/3 3519/1/3 3520/1/3
f 3521/1/4 3522/1/4 3523/1/4 3524/1/4
f 3525/1/3 3526/1/3 3527/1/3 3528/1/3
f 3529/1/4 3530/1/4 3531/1/4 3532/1/4
f 3533/3/3 3534/3/3 3535/3/3 3536/3/3
f 3537/3/4 3538/3/4 3539/3/4 3540/3/4
f 3541/2/3 3542/2/3 3543/2/3 3544/2/3
f 3545/2/4 3546/2/4 3547/2/4 3548/2/4
f 3549/2/6 3550/2/6 3551/2/6 3552/2/6
f 3553/1/3 3554/1/3 3555/1/3 3556/1/3
f 3557/1/4 3558/1/4 3559/1/4 3560/1/4
f 3561/1/5 3562/1/5 3563/1/5 3564/1/5
f 3565/1/3 3566/1/3 3567/1/3 3568/1/3
f 3569/1/4 3570/1/4 3571/1/4 3572/1/4
f 3573/1/3 3574/1/3 3575/1/3 3576/1/3
f 3577/1/4 3578/1/4 3579/1/4 3580/1/4
f 3581/1/3 3582/1/3 3583/1/3 3584/1/3
f 3585/1/4 3586/1/4 3587/1/4 3588/1/4
f 3589/1/3 3590/1/3 3591/1/3 3592/1/3
f 3593/1/4 3594/1/4 3595/1/4 3596/1/4
f 3597/3/3 3598/3/3 3599/3/3 3600/3/3
f 3601/3/4 3602/3/4 3603/3/4 3604/3/4
f 3605/3/3 3606/3/3 3607/3/3 3608/3/3
f 3609/3/4 3610/3/4 3611/3/4 3612/3/4
f 3613/1/3 3614/1/3 3615/1/3 3616/1/3
f 3617/1/4 3618/1/4 3619/1/4 3620/1/4
f 3621/1/3 3622/1/3 3623/1/3 3624/1/3
f 3625/1/4 3626/1/4 3627/1/4 3628/1/4
f 3629/1/3 3630/1/3 3631/1/3 3632/1/3
f 3633/1/4 3634/1/4 3635/1/4 3636/1/4
f 3637/3/3 3638/3/3 3639/3/3 3640/3/3
f 3641/3/4 3642/3/4 3643/3/4 3644/3/4
f 3645/4/3 3646/4/3 3647/4/3 3648/4/3
f 3649/4/4 3650/4/4 3651/4/4 3652/4/4
f 3653/4/6 3654/4/6 3655/4/6 3656/4/6
f 3657/1/3 3658/1/3 3659/1/3 3660/1/3
f 3661/1/4 3662/1/4 3663/1/4 3664/1/4
f 3665/1/5 3666/1/5 3667/1/5 3668/1/5
f 3669/1/3 3670/1/3 3671/1/3 3672/1/3
f 3673/1/4 3674/1/4 3675/1/4 3676/1/4
f 3677/1/3 3678/1/3 3679/1/3 3680/1/3
f 3681/1/4 3682/1/4 3683/1/4 3684/1/4
f 3685/3/3 3686/3/3 3687/3/3 3688/3/3
f 3689/3/4 3690/3/4 3691/3/4 3692/3/4
f 3693/2/3 3694/2/3 3695/2/3 3696/2/3
f 3697/2/4 3698/2/4 3699/2/4 3700/2/4
f 3701/2/3 3702/2/3 3703/2/3 3704/2/3
f 3705/2/4 3706/2/4 3707/2/4 3708/2/4
f 3709/3/3 3710/3/3 3711/3/3 3712/3/3
f 3713/3/4 3714/3/4 3715/3/4 3716/3/4
f 3717/1/3 3718/1/3 3719/1/3 3720/1/3
f 3721/1/4 3722/1/4 3723/1/4 3724/1/4
f 3725/1/3 3726/1/3 3727/1/3 3728/1/3
f 3729/1/4 3730/1/4 3731/1/4 3732/1/4
f 3733/1/3 3734/1/3 3735/1/3 3736/1/3
f 3737/1/4 3738/1/4 3739/1/4 3740/1/4
f 3741/3/3 3742/3/3 3743/3/3 3744/3/3
f 3745/3/4 3746/3/4 3747/3/4 3748/3/4
f 3749/2/3 3750/2/3 3751/2/3 3752/2/3
f 3753/2/4 3754/2/4 3755/2/4 3756/2/4
f 3757/2/6 3758/2/6 3759/2/6 3760/2/6
f 3761/1/3 3762/1/3 3763/1/3 3764/1/3
f 3765/1/4 3766/1/4 3767/1/4 3768/1/4
f 3769/1/5 3770/1/5 3771/1/5 3772/1/5
f 3773/1/3 3774/1/3 3775/1/3 3776/1/3
f 3777/1/4 3778/1/4 3779/1/4 3780/1/4
f 3781/3/3 3782/3/3 3783/3/3 3784/3/3
f 3785/3/4 3786/3/4 3787/3/4 3788/3/4
f 3789/4/3 3790/4/3 3791/4/3 3792/4/3
f 3793/4/4 3794/4/4 3795/4/4 3796/4/4
f 3797/4/3 3798/4/3 3799/4/3 3800/4/3
f 3801/4/4 3802/4/4 3803/4/4 3804/4/4
f 3805/4/3 3806/4/3 3807/4/3 3808/4/3
f 3809/4/4 3810/4/4 3811/4/4 3812/4/4
f 3813/3/3 3814/3/3 3815/3/3 3816/3/3
f 3817/3/4 3818/3/4 3819/3/4 3820/3/4
f 3821/1/3 3822/1/3 3823/1/3 3824/1/3
f 3825/1/4 3826/1/4 3827/1/4 3828/1/4
f 3829/1/3 3830/1/3 3831/1/3 3832/1/3
f 3833/1/4 3834/1/4 3835/1/4 3836/1/4
f 3837/1/3 3838/1/3 3839/1/3 3840/1/3
f 3841/1/4 3842/1/4 3843/1/4 3844/1/4
f 3845/1/3 3846/1/3 3847/1/3 3848/1/3
f 3849/1/4 3850/1/4 3851/1/4 3852/1/4
f 3853/3/3 3854/3/3 3855/3/3 3856/3/3
f 3857/3/4 3858/3/4 3859/3/4 3860/3/4
f 3861/3/6 3862/3/6 3863/3/6 3864/3/6
f 3865/1/2 3866/1/2 3867/1/2 3868/1/2
f 3869/1/3 3870/1/3 3871/1/3 3872/1/3
f 3873/1/4 3874/1/4 3875/1/4 3876/1/4
f 3877/1/5 3878/1/5 3879/1/5 3880/1/5
f 3881/1/2 3882/1/2 3883/1/2 3884/1/2
f 3885/1/3 3886/1/3 3887/1/3 3888/1/3
f 3889/1/4 3890/1/4 3891/1/4 3892/1/4
f 3893/4/2 3894/4/2 3895/4/2 3896/4/2
f 3897/4/3 3898/4/3 3899/4/3 3900/4/3
f 3901/4/4 3902/4/4 3903/4/4 3904/4/4
f 3905/4/2 3906/4/2 3907/4/2 3908/4/2
f 3909/4/3 3910/4/3 3911/4/3 3912/4/3
f 3913/4/4 3914/4/4 3915/4/4 3916/4/4
f 3917/4/2 3918/4/2 3919/4/2 3920/4/2
f 3921/4/3 3922/4/3 3923/4/3 3924/4/3
f 3925/4/4 3926/4/4 3927/4/4 3928/4/4
f 3929/2/2 3930/2/2 3931/2/2 3932/2/2
f 3933/2/3 3934/2/3 3935/2/3 3936/2/3
f 3937/2/4 3938/2/4 3939/2/4 3940/2/4
f 3941/3/2 3942/3/2 3943/3/2 3944/3/2
f 3945/3/3 3946/3/3 3947/3/3 3948/3/3
f 3949/3/4 3950/3/4 3951/3/4 3952/3/4
f 3953/1/2 3954/1/2 3955/1/2 3956/1/2
f 3957/1/3 3958/1/3 3959/1/3 3960/1/3
f 3961/1/4 3962/1/4 3963/1/4 3964/1/4
f 3965/1/2 3966/1/2 3967/1/2 3968/1/2
f 3969/1/3 3970/1/3 3971/1/3 3972/1/3
f 3973/1/4 3974/1/4 3975/1/4 3976/1/4
f 3977/1/2 3978/1/2 3979/1/2 3980/1/2
f 3981/1/3 3982/1/3 3983/1/3 3984/1/3
f 3985/1/4 3986/1/4 3987/1/4 3988/1/4
f 3989/1/2 3990/1/2 3991/1/2 3992/1/2
f 3993/1/3 3994/1/3 3995/1/3 3996/1/3
f 3997/1/4 3998/1/4 3999/1/4 4000/1/4
f 4001/1/2 4002/1/2 4003/1/2 4004/1/2
f 4005/1/3 4006/1/3 4007/1/3 4008/1/3
f 4009/1/4 4010/1/4 4011/1/4 4012/1/4
f 4013/1/6 4014/1/6 4015/1/6 4016/1/6

