# generated by vox_to_obj_exporter
# scale=0.1 center=true ground=true y_up=false

mtllib lava_25_4_f2.mtl
usemtl palette

# normals
vn -1 0 0
vn 1 0 0
vn 0 0 1
vn 0 0 -1
vn 0 -1 0
vn 0 1 0

# texcoords
vt 0.001953125 0.5
vt 0.021484375 0.5
vt 0.044921875 0.5
vt 0.068359375 0.5

# verts
v -0.65 -0.2 0.1
v -0.65 -0.2 0
v -0.65 -0.3 0
v -0.65 -0.3 0.1
v -0.65 -0.2 0.1
v -0.65 -0.3 0.1
v -0.55 -0.3 0.1
v -0.55 -0.2 0.1
v -0.65 -0.3 0
v -0.65 -0.2 0
v -0.55 -0.2 0
v -0.55 -0.3 0
v -0.65 -0.3 0.1
v -0.65 -0.3 0
v -0.55 -0.3 0
v -0.55 -0.3 0.1
v -0.55 -0.2 0.1
v -0.55 -0.2 0
v -0.65 -0.2 0
v -0.65 -0.2 0.1
v -0.55 -1.1 0.1
v -0.55 -1.1 0
v -0.55 -1.2 0
v -0.55 -1.2 0.1
v -0.55 -1.1 0.1
v -0.55 -1.2 0.1
v -0.45 -1.2 0.1
v -0.45 -1.1 0.1
v -0.55 -1.2 0
v -0.55 -1.1 0
v -0.45 -1.1 0
v -0.45 -1.2 0
v -0.55 -1.2 0.1
v -0.55 -1.2 0
v -0.45 -1.2 0
v -0.45 -1.2 0.1
v -0.55 -1 0.1
v -0.55 -1 0
v -0.55 -1.1 0
v -0.55 -1.1 0.1
v -0.55 -1 0.1
v -0.55 -1.1 0.1
v -0.45 -1.1 0.1
v -0.45 -1 0.1
v -0.55 -1.1 0
v -0.55 -1 0
v -0.45 -1 0
v -0.45 -1.1 0
v -0.55 -0.9 0.1
v -0.55 -0.9 0
v -0.55 -1 0
v -0.55 -1 0.1
v -0.55 -0.9 0.1
v -0.55 -1 0.1
v -0.45 -1 0.1
v -0.45 -0.9 0.1
v -0.55 -1 0
v -0.55 -0.9 0
v -0.45 -0.9 0
v -0.45 -1 0
v -0.55 -0.8 0.1
v -0.55 -0.8 0
v -0.55 -0.9 0
v -0.55 -0.9 0.1
v -0.55 -0.8 0.1
v -0.55 -0.9 0.1
v -0.45 -0.9 0.1
v -0.45 -0.8 0.1
v -0.55 -0.9 0
v -0.55 -0.8 0
v -0.45 -0.8 0
v -0.45 -0.9 0
v -0.55 -0.7 0.1
v -0.55 -0.7 0
v -0.55 -0.8 0
v -0.55 -0.8 0.1
v -0.55 -0.7 0.1
v -0.55 -0.8 0.1
v -0.45 -0.8 0.1
v -0.45 -0.7 0.1
v -0.55 -0.8 0
v -0.55 -0.7 0
v -0.45 -0.7 0
v -0.45 -0.8 0
v -0.55 -0.6 0.1
v -0.55 -0.6 0
v -0.55 -0.7 0
v -0.55 -0.7 0.1
v -0.55 -0.6 0.1
v -0.55 -0.7 0.1
v -0.45 -0.7 0.1
v -0.45 -0.6 0.1
v -0.55 -0.7 0
v -0.55 -0.6 0
v -0.45 -0.6 0
v -0.45 -0.7 0
v -0.55 -0.5 0.1
v -0.55 -0.5 0
v -0.55 -0.6 0
v -0.55 -0.6 0.1
v -0.55 -0.5 0.1
v -0.55 -0.6 0.1
v -0.45 -0.6 0.1
v -0.45 -0.5 0.1
v -0.55 -0.6 0
v -0.55 -0.5 0
v -0.45 -0.5 0
v -0.45 -0.6 0
v -0.55 -0.4 0.1
v -0.55 -0.4 0
v -0.55 -0.5 0
v -0.55 -0.5 0.1
v -0.55 -0.4 0.1
v -0.55 -0.5 0.1
v -0.45 -0.5 0.1
v -0.45 -0.4 0.1
v -0.55 -0.5 0
v -0.55 -0.4 0
v -0.45 -0.4 0
v -0.45 -0.5 0
v -0.55 -0.3 0.1
v -0.55 -0.3 0
v -0.55 -0.4 0
v -0.55 -0.4 0.1
v -0.55 -0.3 0.1
v -0.55 -0.4 0.1
v -0.45 -0.4 0.1
v -0.45 -0.3 0.1
v -0.55 -0.4 0
v -0.55 -0.3 0
v -0.45 -0.3 0
v -0.45 -0.4 0
v -0.55 -0.2 0.1
v -0.55 -0.3 0.1
v -0.45 -0.3 0.1
v -0.45 -0.2 0.1
v -0.55 -0.3 0
v -0.55 -0.2 0
v -0.45 -0.2 0
v -0.45 -0.3 0
v -0.55 -0.1 0.1
v -0.55 -0.1 0
v -0.55 -0.2 0
v -0.55 -0.2 0.1
v -0.55 -0.1 0.1
v -0.55 -0.2 0.1
v -0.45 -0.2 0.1
v -0.45 -0.1 0.1
v -0.55 -0.2 0
v -0.55 -0.1 0
v -0.45 -0.1 0
v -0.45 -0.2 0
v -0.55 0 0.1
v -0.55 0 0
v -0.55 -0.1 0
v -0.55 -0.1 0.1
v -0.55 0 0.1
v -0.55 -0.1 0.1
v -0.45 -0.1 0.1
v -0.45 0 0.1
v -0.55 -0.1 0
v -0.55 0 0
v -0.45 0 0
v -0.45 -0.1 0
v -0.55 0.1 0.1
v -0.55 0.1 0
v -0.55 0 0
v -0.55 0 0.1
v -0.55 0.1 0.1
v -0.55 0 0.1
v -0.45 0 0.1
v -0.45 0.1 0.1
v -0.55 0 0
v -0.55 0.1 0
v -0.45 0.1 0
v -0.45 0 0
v -0.55 0.2 0.1
v -0.55 0.2 0
v -0.55 0.1 0
v -0.55 0.1 0.1
v -0.55 0.2 0.1
v -0.55 0.1 0.1
v -0.45 0.1 0.1
v -0.45 0.2 0.1
v -0.55 0.1 0
v -0.55 0.2 0
v -0.45 0.2 0
v -0.45 0.1 0
v -0.55 0.3 0.1
v -0.55 0.3 0
v -0.55 0.2 0
v -0.55 0.2 0.1
v -0.55 0.3 0.1
v -0.55 0.2 0.1
v -0.45 0.2 0.1
v -0.45 0.3 0.1
v -0.55 0.2 0
v -0.55 0.3 0
v -0.45 0.3 0
v -0.45 0.2 0
v -0.55 0.4 0.1
v -0.55 0.4 0
v -0.55 0.3 0
v -0.55 0.3 0.1
v -0.55 0.4 0.1
v -0.55 0.3 0.1
v -0.45 0.3 0.1
v -0.45 0.4 0.1
v -0.55 0.3 0
v -0.55 0.4 0
v -0.45 0.4 0
v -0.45 0.3 0
v -0.55 0.5 0.1
v -0.55 0.5 0
v -0.55 0.4 0
v -0.55 0.4 0.1
v -0.55 0.5 0.1
v -0.55 0.4 0.1
v -0.45 0.4 0.1
v -0.45 0.5 0.1
v -0.55 0.4 0
v -0.55 0.5 0
v -0.45 0.5 0
v -0.45 0.4 0
v -0.55 0.6 0.1
v -0.55 0.6 0
v -0.55 0.5 0
v -0.55 0.5 0.1
v -0.55 0.6 0.1
v -0.55 0.5 0.1
v -0.45 0.5 0.1
v -0.45 0.6 0.1
v -0.55 0.5 0
v -0.55 0.6 0
v -0.45 0.6 0
v -0.45 0.5 0
v -0.55 0.7 0.1
v -0.55 0.7 0
v -0.55 0.6 0
v -0.55 0.6 0.1
v -0.55 0.7 0.1
v -0.55 0.6 0.1
v -0.45 0.6 0.1
v -0.45 0.7 0.1
v -0.55 0.6 0
v -0.55 0.7 0
v -0.45 0.7 0
v -0.45 0.6 0
v -0.55 0.8 0.1
v -0.55 0.8 0
v -0.55 0.7 0
v -0.55 0.7 0.1
v -0.55 0.8 0.1
v -0.55 0.7 0.1
v -0.45 0.7 0.1
v -0.45 0.8 0.1
v -0.55 0.7 0
v -0.55 0.8 0
v -0.45 0.8 0
v -0.45 0.7 0
v -0.55 0.9 0.1
v -0.55 0.9 0
v -0.55 0.8 0
v -0.55 0.8 0.1
v -0.55 0.9 0.1
v -0.55 0.8 0.1
v -0.45 0.8 0.1
v -0.45 0.9 0.1
v -0.55 0.8 0
v -0.55 0.9 0
v -0.45 0.9 0
v -0.45 0.8 0
v -0.55 1 0.1
v -0.55 1 0
v -0.55 0.9 0
v -0.55 0.9 0.1
v -0.55 1 0.1
v -0.55 0.9 0.1
v -0.45 0.9 0.1
v -0.45 1 0.1
v -0.55 0.9 0
v -0.55 1 0
v -0.45 1 0
v -0.45 0.9 0
v -0.55 1.1 0.1
v -0.55 1.1 0
v -0.55 1 0
v -0.55 1 0.1
v -0.55 1.1 0.1
v -0.55 1 0.1
v -0.45 1 0.1
v -0.45 1.1 0.1
v -0.55 1 0
v -0.55 1.1 0
v -0.45 1.1 0
v -0.45 1 0
v -0.55 1.2 0.1
v -0.55 1.2 0
v -0.55 1.1 0
v -0.55 1.1 0.1
v -0.55 1.2 0.1
v -0.55 1.1 0.1
v -0.45 1.1 0.1
v -0.45 1.2 0.1
v -0.55 1.1 0
v -0.55 1.2 0
v -0.45 1.2 0
v -0.45 1.1 0
v -0.45 1.2 0.1
v -0.45 1.2 0
v -0.55 1.2 0
v -0.55 1.2 0.1
v -0.45 -1.1 0.1
v -0.45 -1.2 0.1
v -0.35 -1.2 0.1
v -0.35 -1.1 0.1
v -0.45 -1.2 0
v -0.45 -1.1 0
v -0.35 -1.1 0
v -0.35 -1.2 0
v -0.45 -1.2 0.1
v -0.45 -1.2 0
v -0.35 -1.2 0
v -0.35 -1.2 0.1
v -0.45 -1 0.1
v -0.45 -1.1 0.1
v -0.35 -1.1 0.1
v -0.35 -1 0.1
v -0.45 -1.1 0
v -0.45 -1 0
v -0.35 -1 0
v -0.35 -1.1 0
v -0.45 -0.9 0.1
v -0.45 -1 0.1
v -0.35 -1 0.1
v -0.35 -0.9 0.1
v -0.45 -1 0
v -0.45 -0.9 0
v -0.35 -0.9 0
v -0.35 -1 0
v -0.45 -0.8 0.1
v -0.45 -0.9 0.1
v -0.35 -0.9 0.1
v -0.35 -0.8 0.1
v -0.45 -0.9 0
v -0.45 -0.8 0
v -0.35 -0.8 0
v -0.35 -0.9 0
v -0.45 -0.7 0.1
v -0.45 -0.8 0.1
v -0.35 -0.8 0.1
v -0.35 -0.7 0.1
v -0.45 -0.8 0
v -0.45 -0.7 0
v -0.35 -0.7 0
v -0.35 -0.8 0
v -0.45 -0.6 0.1
v -0.45 -0.7 0.1
v -0.35 -0.7 0.1
v -0.35 -0.6 0.1
v -0.45 -0.7 0
v -0.45 -0.6 0
v -0.35 -0.6 0
v -0.35 -0.7 0
v -0.45 -0.5 0.1
v -0.45 -0.6 0.1
v -0.35 -0.6 0.1
v -0.35 -0.5 0.1
v -0.45 -0.6 0
v -0.45 -0.5 0
v -0.35 -0.5 0
v -0.35 -0.6 0
v -0.45 -0.4 0.1
v -0.45 -0.5 0.1
v -0.35 -0.5 0.1
v -0.35 -0.4 0.1
v -0.45 -0.5 0
v -0.45 -0.4 0
v -0.35 -0.4 0
v -0.35 -0.5 0
v -0.45 -0.3 0.1
v -0.45 -0.4 0.1
v -0.35 -0.4 0.1
v -0.35 -0.3 0.1
v -0.45 -0.4 0
v -0.45 -0.3 0
v -0.35 -0.3 0
v -0.35 -0.4 0
v -0.45 -0.2 0.1
v -0.45 -0.3 0.1
v -0.35 -0.3 0.1
v -0.35 -0.2 0.1
v -0.45 -0.3 0
v -0.45 -0.2 0
v -0.35 -0.2 0
v -0.35 -0.3 0
v -0.45 -0.1 0.1
v -0.45 -0.2 0.1
v -0.35 -0.2 0.1
v -0.35 -0.1 0.1
v -0.45 -0.2 0
v -0.45 -0.1 0
v -0.35 -0.1 0
v -0.35 -0.2 0
v -0.45 0 0.1
v -0.45 -0.1 0.1
v -0.35 -0.1 0.1
v -0.35 0 0.1
v -0.45 -0.1 0
v -0.45 0 0
v -0.35 0 0
v -0.35 -0.1 0
v -0.45 0.1 0.1
v -0.45 0 0.1
v -0.35 0 0.1
v -0.35 0.1 0.1
v -0.45 0 0
v -0.45 0.1 0
v -0.35 0.1 0
v -0.35 0 0
v -0.45 0.2 0.1
v -0.45 0.1 0.1
v -0.35 0.1 0.1
v -0.35 0.2 0.1
v -0.45 0.1 0
v -0.45 0.2 0
v -0.35 0.2 0
v -0.35 0.1 0
v -0.45 0.3 0.1
v -0.45 0.2 0.1
v -0.35 0.2 0.1
v -0.35 0.3 0.1
v -0.45 0.2 0
v -0.45 0.3 0
v -0.35 0.3 0
v -0.35 0.2 0
v -0.45 0.4 0.1
v -0.45 0.3 0.1
v -0.35 0.3 0.1
v -0.35 0.4 0.1
v -0.45 0.3 0
v -0.45 0.4 0
v -0.35 0.4 0
v -0.35 0.3 0
v -0.45 0.5 0.1
v -0.45 0.4 0.1
v -0.35 0.4 0.1
v -0.35 0.5 0.1
v -0.45 0.4 0
v -0.45 0.5 0
v -0.35 0.5 0
v -0.35 0.4 0
v -0.45 0.6 0.1
v -0.45 0.5 0.1
v -0.35 0.5 0.1
v -0.35 0.6 0.1
v -0.45 0.5 0
v -0.45 0.6 0
v -0.35 0.6 0
v -0.35 0.5 0
v -0.45 0.7 0.1
v -0.45 0.6 0.1
v -0.35 0.6 0.1
v -0.35 0.7 0.1
v -0.45 0.6 0
v -0.45 0.7 0
v -0.35 0.7 0
v -0.35 0.6 0
v -0.45 0.8 0.1
v -0.45 0.7 0.1
v -0.35 0.7 0.1
v -0.35 0.8 0.1
v -0.45 0.7 0
v -0.45 0.8 0
v -0.35 0.8 0
v -0.35 0.7 0
v -0.45 0.9 0.1
v -0.45 0.8 0.1
v -0.35 0.8 0.1
v -0.35 0.9 0.1
v -0.45 0.8 0
v -0.45 0.9 0
v -0.35 0.9 0
v -0.35 0.8 0
v -0.45 1 0.1
v -0.45 0.9 0.1
v -0.35 0.9 0.1
v -0.35 1 0.1
v -0.45 0.9 0
v -0.45 1 0
v -0.35 1 0
v -0.35 0.9 0
v -0.45 1.1 0.1
v -0.45 1 0.1
v -0.35 1 0.1
v -0.35 1.1 0.1
v -0.45 1 0
v -0.45 1.1 0
v -0.35 1.1 0
v -0.35 1 0
v -0.45 1.2 0.1
v -0.45 1.1 0.1
v -0.35 1.1 0.1
v -0.35 1.2 0.1
v -0.45 1.1 0
v -0.45 1.2 0
v -0.35 1.2 0
v -0.35 1.1 0
v -0.35 1.2 0.1
v -0.35 1.2 0
v -0.45 1.2 0
v -0.45 1.2 0.1
v -0.35 -1.1 0.1
v -0.35 -1.2 0.1
v -0.25 -1.2 0.1
v -0.25 -1.1 0.1
v -0.35 -1.2 0
v -0.35 -1.1 0
v -0.25 -1.1 0
v -0.25 -1.2 0
v -0.35 -1.2 0.1
v -0.35 -1.2 0
v -0.25 -1.2 0
v -0.25 -1.2 0.1
v -0.35 -1 0.1
v -0.35 -1.1 0.1
v -0.25 -1.1 0.1
v -0.25 -1 0.1
v -0.35 -1.1 0
v -0.35 -1 0
v -0.25 -1 0
v -0.25 -1.1 0
v -0.35 -0.9 0.1
v -0.35 -1 0.1
v -0.25 -1 0.1
v -0.25 -0.9 0.1
v -0.35 -1 0
v -0.35 -0.9 0
v -0.25 -0.9 0
v -0.25 -1 0
v -0.35 -0.8 0.1
v -0.35 -0.9 0.1
v -0.25 -0.9 0.1
v -0.25 -0.8 0.1
v -0.35 -0.9 0
v -0.35 -0.8 0
v -0.25 -0.8 0
v -0.25 -0.9 0
v -0.35 -0.7 0.1
v -0.35 -0.8 0.1
v -0.25 -0.8 0.1
v -0.25 -0.7 0.1
v -0.35 -0.8 0
v -0.35 -0.7 0
v -0.25 -0.7 0
v -0.25 -0.8 0
v -0.35 -0.6 0.1
v -0.35 -0.7 0.1
v -0.25 -0.7 0.1
v -0.25 -0.6 0.1
v -0.35 -0.7 0
v -0.35 -0.6 0
v -0.25 -0.6 0
v -0.25 -0.7 0
v -0.35 -0.5 0.1
v -0.35 -0.6 0.1
v -0.25 -0.6 0.1
v -0.25 -0.5 0.1
v -0.35 -0.6 0
v -0.35 -0.5 0
v -0.25 -0.5 0
v -0.25 -0.6 0
v -0.35 -0.4 0.1
v -0.35 -0.5 0.1
v -0.25 -0.5 0.1
v -0.25 -0.4 0.1
v -0.35 -0.5 0
v -0.35 -0.4 0
v -0.25 -0.4 0
v -0.25 -0.5 0
v -0.35 -0.3 0.1
v -0.35 -0.4 0.1
v -0.25 -0.4 0.1
v -0.25 -0.3 0.1
v -0.35 -0.4 0
v -0.35 -0.3 0
v -0.25 -0.3 0
v -0.25 -0.4 0
v -0.35 -0.2 0.1
v -0.35 -0.3 0.1
v -0.25 -0.3 0.1
v -0.25 -0.2 0.1
v -0.35 -0.3 0
v -0.35 -0.2 0
v -0.25 -0.2 0
v -0.25 -0.3 0
v -0.35 -0.1 0.1
v -0.35 -0.2 0.1
v -0.25 -0.2 0.1
v -0.25 -0.1 0.1
v -0.35 -0.2 0
v -0.35 -0.1 0
v -0.25 -0.1 0
v -0.25 -0.2 0
v -0.35 0 0.1
v -0.35 -0.1 0.1
v -0.25 -0.1 0.1
v -0.25 0 0.1
v -0.35 -0.1 0
v -0.35 0 0
v -0.25 0 0
v -0.25 -0.1 0
v -0.35 0.1 0.1
v -0.35 0 0.1
v -0.25 0 0.1
v -0.25 0.1 0.1
v -0.35 0 0
v -0.35 0.1 0
v -0.25 0.1 0
v -0.25 0 0
v -0.35 0.2 0.1
v -0.35 0.1 0.1
v -0.25 0.1 0.1
v -0.25 0.2 0.1
v -0.35 0.1 0
v -0.35 0.2 0
v -0.25 0.2 0
v -0.25 0.1 0
v -0.35 0.3 0.1
v -0.35 0.2 0.1
v -0.25 0.2 0.1
v -0.25 0.3 0.1
v -0.35 0.2 0
v -0.35 0.3 0
v -0.25 0.3 0
v -0.25 0.2 0
v -0.35 0.4 0.1
v -0.35 0.3 0.1
v -0.25 0.3 0.1
v -0.25 0.4 0.1
v -0.35 0.3 0
v -0.35 0.4 0
v -0.25 0.4 0
v -0.25 0.3 0
v -0.35 0.5 0.1
v -0.35 0.4 0.1
v -0.25 0.4 0.1
v -0.25 0.5 0.1
v -0.35 0.4 0
v -0.35 0.5 0
v -0.25 0.5 0
v -0.25 0.4 0
v -0.35 0.6 0.1
v -0.35 0.5 0.1
v -0.25 0.5 0.1
v -0.25 0.6 0.1
v -0.35 0.5 0
v -0.35 0.6 0
v -0.25 0.6 0
v -0.25 0.5 0
v -0.35 0.7 0.1
v -0.35 0.6 0.1
v -0.25 0.6 0.1
v -0.25 0.7 0.1
v -0.35 0.6 0
v -0.35 0.7 0
v -0.25 0.7 0
v -0.25 0.6 0
v -0.35 0.8 0.1
v -0.35 0.7 0.1
v -0.25 0.7 0.1
v -0.25 0.8 0.1
v -0.35 0.7 0
v -0.35 0.8 0
v -0.25 0.8 0
v -0.25 0.7 0
v -0.35 0.9 0.1
v -0.35 0.8 0.1
v -0.25 0.8 0.1
v -0.25 0.9 0.1
v -0.35 0.8 0
v -0.35 0.9 0
v -0.25 0.9 0
v -0.25 0.8 0
v -0.35 1 0.1
v -0.35 0.9 0.1
v -0.25 0.9 0.1
v -0.25 1 0.1
v -0.35 0.9 0
v -0.35 1 0
v -0.25 1 0
v -0.25 0.9 0
v -0.35 1.1 0.1
v -0.35 1 0.1
v -0.25 1 0.1
v -0.25 1.1 0.1
v -0.35 1 0
v -0.35 1.1 0
v -0.25 1.1 0
v -0.25 1 0
v -0.35 1.2 0.1
v -0.35 1.1 0.1
v -0.25 1.1 0.1
v -0.25 1.2 0.1
v -0.35 1.1 0
v -0.35 1.2 0
v -0.25 1.2 0
v -0.25 1.1 0
v -0.25 1.2 0.1
v -0.25 1.2 0
v -0.35 1.2 0
v -0.35 1.2 0.1
v -0.25 -1.1 0.1
v -0.25 -1.2 0.1
v -0.15 -1.2 0.1
v -0.15 -1.1 0.1
v -0.25 -1.2 0
v -0.25 -1.1 0
v -0.15 -1.1 0
v -0.15 -1.2 0
v -0.25 -1.2 0.1
v -0.25 -1.2 0
v -0.15 -1.2 0
v -0.15 -1.2 0.1
v -0.25 -1 0.1
v -0.25 -1.1 0.1
v -0.15 -1.1 0.1
v -0.15 -1 0.1
v -0.25 -1.1 0
v -0.25 -1 0
v -0.15 -1 0
v -0.15 -1.1 0
v -0.25 -0.9 0.1
v -0.25 -1 0.1
v -0.15 -1 0.1
v -0.15 -0.9 0.1
v -0.25 -1 0
v -0.25 -0.9 0
v -0.15 -0.9 0
v -0.15 -1 0
v -0.25 -0.8 0.1
v -0.25 -0.9 0.1
v -0.15 -0.9 0.1
v -0.15 -0.8 0.1
v -0.25 -0.9 0
v -0.25 -0.8 0
v -0.15 -0.8 0
v -0.15 -0.9 0
v -0.25 -0.7 0.1
v -0.25 -0.8 0.1
v -0.15 -0.8 0.1
v -0.15 -0.7 0.1
v -0.25 -0.8 0
v -0.25 -0.7 0
v -0.15 -0.7 0
v -0.15 -0.8 0
v -0.25 -0.6 0.1
v -0.25 -0.7 0.1
v -0.15 -0.7 0.1
v -0.15 -0.6 0.1
v -0.25 -0.7 0
v -0.25 -0.6 0
v -0.15 -0.6 0
v -0.15 -0.7 0
v -0.25 -0.5 0.1
v -0.25 -0.6 0.1
v -0.15 -0.6 0.1
v -0.15 -0.5 0.1
v -0.25 -0.6 0
v -0.25 -0.5 0
v -0.15 -0.5 0
v -0.15 -0.6 0
v -0.25 -0.4 0.1
v -0.25 -0.5 0.1
v -0.15 -0.5 0.1
v -0.15 -0.4 0.1
v -0.25 -0.5 0
v -0.25 -0.4 0
v -0.15 -0.4 0
v -0.15 -0.5 0
v -0.25 -0.3 0.1
v -0.25 -0.4 0.1
v -0.15 -0.4 0.1
v -0.15 -0.3 0.1
v -0.25 -0.4 0
v -0.25 -0.3 0
v -0.15 -0.3 0
v -0.15 -0.4 0
v -0.25 -0.2 0.1
v -0.25 -0.3 0.1
v -0.15 -0.3 0.1
v -0.15 -0.2 0.1
v -0.25 -0.3 0
v -0.25 -0.2 0
v -0.15 -0.2 0
v -0.15 -0.3 0
v -0.25 -0.1 0.1
v -0.25 -0.2 0.1
v -0.15 -0.2 0.1
v -0.15 -0.1 0.1
v -0.25 -0.2 0
v -0.25 -0.1 0
v -0.15 -0.1 0
v -0.15 -0.2 0
v -0.25 0 0.1
v -0.25 -0.1 0.1
v -0.15 -0.1 0.1
v -0.15 0 0.1
v -0.25 -0.1 0
v -0.25 0 0
v -0.15 0 0
v -0.15 -0.1 0
v -0.25 0.1 0.1
v -0.25 0 0.1
v -0.15 0 0.1
v -0.15 0.1 0.1
v -0.25 0 0
v -0.25 0.1 0
v -0.15 0.1 0
v -0.15 0 0
v -0.25 0.2 0.1
v -0.25 0.1 0.1
v -0.15 0.1 0.1
v -0.15 0.2 0.1
v -0.25 0.1 0
v -0.25 0.2 0
v -0.15 0.2 0
v -0.15 0.1 0
v -0.25 0.3 0.1
v -0.25 0.2 0.1
v -0.15 0.2 0.1
v -0.15 0.3 0.1
v -0.25 0.2 0
v -0.25 0.3 0
v -0.15 0.3 0
v -0.15 0.2 0
v -0.25 0.4 0.1
v -0.25 0.3 0.1
v -0.15 0.3 0.1
v -0.15 0.4 0.1
v -0.25 0.3 0
v -0.25 0.4 0
v -0.15 0.4 0
v -0.15 0.3 0
v -0.25 0.5 0.1
v -0.25 0.4 0.1
v -0.15 0.4 0.1
v -0.15 0.5 0.1
v -0.25 0.4 0
v -0.25 0.5 0
v -0.15 0.5 0
v -0.15 0.4 0
v -0.25 0.6 0.1
v -0.25 0.5 0.1
v -0.15 0.5 0.1
v -0.15 0.6 0.1
v -0.25 0.5 0
v -0.25 0.6 0
v -0.15 0.6 0
v -0.15 0.5 0
v -0.25 0.7 0.1
v -0.25 0.6 0.1
v -0.15 0.6 0.1
v -0.15 0.7 0.1
v -0.25 0.6 0
v -0.25 0.7 0
v -0.15 0.7 0
v -0.15 0.6 0
v -0.25 0.8 0.1
v -0.25 0.7 0.1
v -0.15 0.7 0.1
v -0.15 0.8 0.1
v -0.25 0.7 0
v -0.25 0.8 0
v -0.15 0.8 0
v -0.15 0.7 0
v -0.25 0.9 0.1
v -0.25 0.8 0.1
v -0.15 0.8 0.1
v -0.15 0.9 0.1
v -0.25 0.8 0
v -0.25 0.9 0
v -0.15 0.9 0
v -0.15 0.8 0
v -0.25 1 0.1
v -0.25 0.9 0.1
v -0.15 0.9 0.1
v -0.15 1 0.1
v -0.25 0.9 0
v -0.25 1 0
v -0.15 1 0
v -0.15 0.9 0
v -0.25 1.1 0.1
v -0.25 1 0.1
v -0.15 1 0.1
v -0.15 1.1 0.1
v -0.25 1 0
v -0.25 1.1 0
v -0.15 1.1 0
v -0.15 1 0
v -0.25 1.2 0.1
v -0.25 1.1 0.1
v -0.15 1.1 0.1
v -0.15 1.2 0.1
v -0.25 1.1 0
v -0.25 1.2 0
v -0.15 1.2 0
v -0.15 1.1 0
v -0.15 1.2 0.1
v -0.15 1.2 0
v -0.25 1.2 0
v -0.25 1.2 0.1
v -0.15 -1.1 0.1
v -0.15 -1.2 0.1
v -0.05 -1.2 0.1
v -0.05 -1.1 0.1
v -0.15 -1.2 0
v -0.15 -1.1 0
v -0.05 -1.1 0
v -0.05 -1.2 0
v -0.15 -1.2 0.1
v -0.15 -1.2 0
v -0.05 -1.2 0
v -0.05 -1.2 0.1
v -0.15 -1 0.1
v -0.15 -1.1 0.1
v -0.05 -1.1 0.1
v -0.05 -1 0.1
v -0.15 -1.1 0
v -0.15 -1 0
v -0.05 -1 0
v -0.05 -1.1 0
v -0.15 -0.9 0.1
v -0.15 -1 0.1
v -0.05 -1 0.1
v -0.05 -0.9 0.1
v -0.15 -1 0
v -0.15 -0.9 0
v -0.05 -0.9 0
v -0.05 -1 0
v -0.15 -0.8 0.1
v -0.15 -0.9 0.1
v -0.05 -0.9 0.1
v -0.05 -0.8 0.1
v -0.15 -0.9 0
v -0.15 -0.8 0
v -0.05 -0.8 0
v -0.05 -0.9 0
v -0.15 -0.7 0.1
v -0.15 -0.8 0.1
v -0.05 -0.8 0.1
v -0.05 -0.7 0.1
v -0.15 -0.8 0
v -0.15 -0.7 0
v -0.05 -0.7 0
v -0.05 -0.8 0
v -0.15 -0.6 0.1
v -0.15 -0.7 0.1
v -0.05 -0.7 0.1
v -0.05 -0.6 0.1
v -0.15 -0.7 0
v -0.15 -0.6 0
v -0.05 -0.6 0
v -0.05 -0.7 0
v -0.15 -0.5 0.1
v -0.15 -0.6 0.1
v -0.05 -0.6 0.1
v -0.05 -0.5 0.1
v -0.15 -0.6 0
v -0.15 -0.5 0
v -0.05 -0.5 0
v -0.05 -0.6 0
v -0.15 -0.4 0.1
v -0.15 -0.5 0.1
v -0.05 -0.5 0.1
v -0.05 -0.4 0.1
v -0.15 -0.5 0
v -0.15 -0.4 0
v -0.05 -0.4 0
v -0.05 -0.5 0
v -0.15 -0.3 0.1
v -0.15 -0.4 0.1
v -0.05 -0.4 0.1
v -0.05 -0.3 0.1
v -0.15 -0.4 0
v -0.15 -0.3 0
v -0.05 -0.3 0
v -0.05 -0.4 0
v -0.15 -0.2 0.1
v -0.15 -0.3 0.1
v -0.05 -0.3 0.1
v -0.05 -0.2 0.1
v -0.15 -0.3 0
v -0.15 -0.2 0
v -0.05 -0.2 0
v -0.05 -0.3 0
v -0.15 -0.1 0.1
v -0.15 -0.2 0.1
v -0.05 -0.2 0.1
v -0.05 -0.1 0.1
v -0.15 -0.2 0
v -0.15 -0.1 0
v -0.05 -0.1 0
v -0.05 -0.2 0
v -0.15 0 0.1
v -0.15 -0.1 0.1
v -0.05 -0.1 0.1
v -0.05 0 0.1
v -0.15 -0.1 0
v -0.15 0 0
v -0.05 0 0
v -0.05 -0.1 0
v -0.15 0.1 0.1
v -0.15 0 0.1
v -0.05 0 0.1
v -0.05 0.1 0.1
v -0.15 0 0
v -0.15 0.1 0
v -0.05 0.1 0
v -0.05 0 0
v -0.15 0.2 0.1
v -0.15 0.1 0.1
v -0.05 0.1 0.1
v -0.05 0.2 0.1
v -0.15 0.1 0
v -0.15 0.2 0
v -0.05 0.2 0
v -0.05 0.1 0
v -0.15 0.3 0.1
v -0.15 0.2 0.1
v -0.05 0.2 0.1
v -0.05 0.3 0.1
v -0.15 0.2 0
v -0.15 0.3 0
v -0.05 0.3 0
v -0.05 0.2 0
v -0.15 0.4 0.1
v -0.15 0.3 0.1
v -0.05 0.3 0.1
v -0.05 0.4 0.1
v -0.15 0.3 0
v -0.15 0.4 0
v -0.05 0.4 0
v -0.05 0.3 0
v -0.15 0.5 0.1
v -0.15 0.4 0.1
v -0.05 0.4 0.1
v -0.05 0.5 0.1
v -0.15 0.4 0
v -0.15 0.5 0
v -0.05 0.5 0
v -0.05 0.4 0
v -0.15 0.6 0.1
v -0.15 0.5 0.1
v -0.05 0.5 0.1
v -0.05 0.6 0.1
v -0.15 0.5 0
v -0.15 0.6 0
v -0.05 0.6 0
v -0.05 0.5 0
v -0.15 0.7 0.1
v -0.15 0.6 0.1
v -0.05 0.6 0.1
v -0.05 0.7 0.1
v -0.15 0.6 0
v -0.15 0.7 0
v -0.05 0.7 0
v -0.05 0.6 0
v -0.15 0.8 0.1
v -0.15 0.7 0.1
v -0.05 0.7 0.1
v -0.05 0.8 0.1
v -0.15 0.7 0
v -0.15 0.8 0
v -0.05 0.8 0
v -0.05 0.7 0
v -0.15 0.9 0.1
v -0.15 0.8 0.1
v -0.05 0.8 0.1
v -0.05 0.9 0.1
v -0.15 0.8 0
v -0.15 0.9 0
v -0.05 0.9 0
v -0.05 0.8 0
v -0.15 1 0.1
v -0.15 0.9 0.1
v -0.05 0.9 0.1
v -0.05 1 0.1
v -0.15 0.9 0
v -0.15 1 0
v -0.05 1 0
v -0.05 0.9 0
v -0.15 1.1 0.1
v -0.15 1 0.1
v -0.05 1 0.1
v -0.05 1.1 0.1
v -0.15 1 0
v -0.15 1.1 0
v -0.05 1.1 0
v -0.05 1 0
v -0.15 1.2 0.1
v -0.15 1.1 0.1
v -0.05 1.1 0.1
v -0.05 1.2 0.1
v -0.15 1.1 0
v -0.15 1.2 0
v -0.05 1.2 0
v -0.05 1.1 0
v -0.05 1.2 0.1
v -0.05 1.2 0
v -0.15 1.2 0
v -0.15 1.2 0.1
v -0.05 -1.1 0.1
v -0.05 -1.2 0.1
v 0.05 -1.2 0.1
v 0.05 -1.1 0.1
v -0.05 -1.2 0
v -0.05 -1.1 0
v 0.05 -1.1 0
v 0.05 -1.2 0
v -0.05 -1.2 0.1
v -0.05 -1.2 0
v 0.05 -1.2 0
v 0.05 -1.2 0.1
v -0.05 -1 0.1
v -0.05 -1.1 0.1
v 0.05 -1.1 0.1
v 0.05 -1 0.1
v -0.05 -1.1 0
v -0.05 -1 0
v 0.05 -1 0
v 0.05 -1.1 0
v -0.05 -0.9 0.1
v -0.05 -1 0.1
v 0.05 -1 0.1
v 0.05 -0.9 0.1
v -0.05 -1 0
v -0.05 -0.9 0
v 0.05 -0.9 0
v 0.05 -1 0
v -0.05 -0.8 0.1
v -0.05 -0.9 0.1
v 0.05 -0.9 0.1
v 0.05 -0.8 0.1
v -0.05 -0.9 0
v -0.05 -0.8 0
v 0.05 -0.8 0
v 0.05 -0.9 0
v -0.05 -0.7 0.1
v -0.05 -0.8 0.1
v 0.05 -0.8 0.1
v 0.05 -0.7 0.1
v -0.05 -0.8 0
v -0.05 -0.7 0
v 0.05 -0.7 0
v 0.05 -0.8 0
v -0.05 -0.6 0.1
v -0.05 -0.7 0.1
v 0.05 -0.7 0.1
v 0.05 -0.6 0.1
v -0.05 -0.7 0
v -0.05 -0.6 0
v 0.05 -0.6 0
v 0.05 -0.7 0
v -0.05 -0.5 0.1
v -0.05 -0.6 0.1
v 0.05 -0.6 0.1
v 0.05 -0.5 0.1
v -0.05 -0.6 0
v -0.05 -0.5 0
v 0.05 -0.5 0
v 0.05 -0.6 0
v -0.05 -0.4 0.1
v -0.05 -0.5 0.1
v 0.05 -0.5 0.1
v 0.05 -0.4 0.1
v -0.05 -0.5 0
v -0.05 -0.4 0
v 0.05 -0.4 0
v 0.05 -0.5 0
v -0.05 -0.3 0.1
v -0.05 -0.4 0.1
v 0.05 -0.4 0.1
v 0.05 -0.3 0.1
v -0.05 -0.4 0
v -0.05 -0.3 0
v 0.05 -0.3 0
v 0.05 -0.4 0
v -0.05 -0.2 0.1
v -0.05 -0.3 0.1
v 0.05 -0.3 0.1
v 0.05 -0.2 0.1
v -0.05 -0.3 0
v -0.05 -0.2 0
v 0.05 -0.2 0
v 0.05 -0.3 0
v -0.05 -0.1 0.1
v -0.05 -0.2 0.1
v 0.05 -0.2 0.1
v 0.05 -0.1 0.1
v -0.05 -0.2 0
v -0.05 -0.1 0
v 0.05 -0.1 0
v 0.05 -0.2 0
v -0.05 0 0.1
v -0.05 -0.1 0.1
v 0.05 -0.1 0.1
v 0.05 0 0.1
v -0.05 -0.1 0
v -0.05 0 0
v 0.05 0 0
v 0.05 -0.1 0
v -0.05 0.1 0.1
v -0.05 0 0.1
v 0.05 0 0.1
v 0.05 0.1 0.1
v -0.05 0 0
v -0.05 0.1 0
v 0.05 0.1 0
v 0.05 0 0
v -0.05 0.2 0.1
v -0.05 0.1 0.1
v 0.05 0.1 0.1
v 0.05 0.2 0.1
v -0.05 0.1 0
v -0.05 0.2 0
v 0.05 0.2 0
v 0.05 0.1 0
v -0.05 0.3 0.1
v -0.05 0.2 0.1
v 0.05 0.2 0.1
v 0.05 0.3 0.1
v -0.05 0.2 0
v -0.05 0.3 0
v 0.05 0.3 0
v 0.05 0.2 0
v -0.05 0.4 0.1
v -0.05 0.3 0.1
v 0.05 0.3 0.1
v 0.05 0.4 0.1
v -0.05 0.3 0
v -0.05 0.4 0
v 0.05 0.4 0
v 0.05 0.3 0
v -0.05 0.5 0.1
v -0.05 0.4 0.1
v 0.05 0.4 0.1
v 0.05 0.5 0.1
v -0.05 0.4 0
v -0.05 0.5 0
v 0.05 0.5 0
v 0.05 0.4 0
v -0.05 0.6 0.1
v -0.05 0.5 0.1
v 0.05 0.5 0.1
v 0.05 0.6 0.1
v -0.05 0.5 0
v -0.05 0.6 0
v 0.05 0.6 0
v 0.05 0.5 0
v -0.05 0.7 0.1
v -0.05 0.6 0.1
v 0.05 0.6 0.1
v 0.05 0.7 0.1
v -0.05 0.6 0
v -0.05 0.7 0
v 0.05 0.7 0
v 0.05 0.6 0
v -0.05 0.8 0.1
v -0.05 0.7 0.1
v 0.05 0.7 0.1
v 0.05 0.8 0.1
v -0.05 0.7 0
v -0.05 0.8 0
v 0.05 0.8 0
v 0.05 0.7 0
v -0.05 0.9 0.1
v -0.05 0.8 0.1
v 0.05 0.8 0.1
v 0.05 0.9 0.1
v -0.05 0.8 0
v -0.05 0.9 0
v 0.05 0.9 0
v 0.05 0.8 0
v -0.05 1 0.1
v -0.05 0.9 0.1
v 0.05 0.9 0.1
v 0.05 1 0.1
v -0.05 0.9 0
v -0.05 1 0
v 0.05 1 0
v 0.05 0.9 0
v -0.05 1.1 0.1
v -0.05 1 0.1
v 0.05 1 0.1
v 0.05 1.1 0.1
v -0.05 1 0
v -0.05 1.1 0
v 0.05 1.1 0
v 0.05 1 0
v -0.05 1.2 0.1
v -0.05 1.1 0.1
v 0.05 1.1 0.1
v 0.05 1.2 0.1
v -0.05 1.1 0
v -0.05 1.2 0
v 0.05 1.2 0
v 0.05 1.1 0
v 0.05 1.2 0.1
v 0.05 1.2 0
v -0.05 1.2 0
v -0.05 1.2 0.1
v 0.05 -1.1 0.1
v 0.05 -1.2 0.1
v 0.15 -1.2 0.1
v 0.15 -1.1 0.1
v 0.05 -1.2 0
v 0.05 -1.1 0
v 0.15 -1.1 0
v 0.15 -1.2 0
v 0.05 -1.2 0.1
v 0.05 -1.2 0
v 0.15 -1.2 0
v 0.15 -1.2 0.1
v 0.05 -1 0.1
v 0.05 -1.1 0.1
v 0.15 -1.1 0.1
v 0.15 -1 0.1
v 0.05 -1.1 0
v 0.05 -1 0
v 0.15 -1 0
v 0.15 -1.1 0
v 0.05 -0.9 0.1
v 0.05 -1 0.1
v 0.15 -1 0.1
v 0.15 -0.9 0.1
v 0.05 -1 0
v 0.05 -0.9 0
v 0.15 -0.9 0
v 0.15 -1 0
v 0.05 -0.8 0.1
v 0.05 -0.9 0.1
v 0.15 -0.9 0.1
v 0.15 -0.8 0.1
v 0.05 -0.9 0
v 0.05 -0.8 0
v 0.15 -0.8 0
v 0.15 -0.9 0
v 0.05 -0.7 0.1
v 0.05 -0.8 0.1
v 0.15 -0.8 0.1
v 0.15 -0.7 0.1
v 0.05 -0.8 0
v 0.05 -0.7 0
v 0.15 -0.7 0
v 0.15 -0.8 0
v 0.05 -0.6 0.1
v 0.05 -0.7 0.1
v 0.15 -0.7 0.1
v 0.15 -0.6 0.1
v 0.05 -0.7 0
v 0.05 -0.6 0
v 0.15 -0.6 0
v 0.15 -0.7 0
v 0.05 -0.5 0.1
v 0.05 -0.6 0.1
v 0.15 -0.6 0.1
v 0.15 -0.5 0.1
v 0.05 -0.6 0
v 0.05 -0.5 0
v 0.15 -0.5 0
v 0.15 -0.6 0
v 0.05 -0.4 0.1
v 0.05 -0.5 0.1
v 0.15 -0.5 0.1
v 0.15 -0.4 0.1
v 0.05 -0.5 0
v 0.05 -0.4 0
v 0.15 -0.4 0
v 0.15 -0.5 0
v 0.05 -0.3 0.1
v 0.05 -0.4 0.1
v 0.15 -0.4 0.1
v 0.15 -0.3 0.1
v 0.05 -0.4 0
v 0.05 -0.3 0
v 0.15 -0.3 0
v 0.15 -0.4 0
v 0.05 -0.2 0.1
v 0.05 -0.3 0.1
v 0.15 -0.3 0.1
v 0.15 -0.2 0.1
v 0.05 -0.3 0
v 0.05 -0.2 0
v 0.15 -0.2 0
v 0.15 -0.3 0
v 0.05 -0.1 0.1
v 0.05 -0.2 0.1
v 0.15 -0.2 0.1
v 0.15 -0.1 0.1
v 0.05 -0.2 0
v 0.05 -0.1 0
v 0.15 -0.1 0
v 0.15 -0.2 0
v 0.05 0 0.1
v 0.05 -0.1 0.1
v 0.15 -0.1 0.1
v 0.15 0 0.1
v 0.05 -0.1 0
v 0.05 0 0
v 0.15 0 0
v 0.15 -0.1 0
v 0.05 0.1 0.1
v 0.05 0 0.1
v 0.15 0 0.1
v 0.15 0.1 0.1
v 0.05 0 0
v 0.05 0.1 0
v 0.15 0.1 0
v 0.15 0 0
v 0.05 0.2 0.1
v 0.05 0.1 0.1
v 0.15 0.1 0.1
v 0.15 0.2 0.1
v 0.05 0.1 0
v 0.05 0.2 0
v 0.15 0.2 0
v 0.15 0.1 0
v 0.05 0.3 0.1
v 0.05 0.2 0.1
v 0.15 0.2 0.1
v 0.15 0.3 0.1
v 0.05 0.2 0
v 0.05 0.3 0
v 0.15 0.3 0
v 0.15 0.2 0
v 0.05 0.4 0.1
v 0.05 0.3 0.1
v 0.15 0.3 0.1
v 0.15 0.4 0.1
v 0.05 0.3 0
v 0.05 0.4 0
v 0.15 0.4 0
v 0.15 0.3 0
v 0.05 0.5 0.1
v 0.05 0.4 0.1
v 0.15 0.4 0.1
v 0.15 0.5 0.1
v 0.05 0.4 0
v 0.05 0.5 0
v 0.15 0.5 0
v 0.15 0.4 0
v 0.05 0.6 0.1
v 0.05 0.5 0.1
v 0.15 0.5 0.1
v 0.15 0.6 0.1
v 0.05 0.5 0
v 0.05 0.6 0
v 0.15 0.6 0
v 0.15 0.5 0
v 0.05 0.7 0.1
v 0.05 0.6 0.1
v 0.15 0.6 0.1
v 0.15 0.7 0.1
v 0.05 0.6 0
v 0.05 0.7 0
v 0.15 0.7 0
v 0.15 0.6 0
v 0.05 0.8 0.1
v 0.05 0.7 0.1
v 0.15 0.7 0.1
v 0.15 0.8 0.1
v 0.05 0.7 0
v 0.05 0.8 0
v 0.15 0.8 0
v 0.15 0.7 0
v 0.05 0.9 0.1
v 0.05 0.8 0.1
v 0.15 0.8 0.1
v 0.15 0.9 0.1
v 0.05 0.8 0
v 0.05 0.9 0
v 0.15 0.9 0
v 0.15 0.8 0
v 0.05 1 0.1
v 0.05 0.9 0.1
v 0.15 0.9 0.1
v 0.15 1 0.1
v 0.05 0.9 0
v 0.05 1 0
v 0.15 1 0
v 0.15 0.9 0
v 0.05 1.1 0.1
v 0.05 1 0.1
v 0.15 1 0.1
v 0.15 1.1 0.1
v 0.05 1 0
v 0.05 1.1 0
v 0.15 1.1 0
v 0.15 1 0
v 0.05 1.2 0.1
v 0.05 1.1 0.1
v 0.15 1.1 0.1
v 0.15 1.2 0.1
v 0.05 1.1 0
v 0.05 1.2 0
v 0.15 1.2 0
v 0.15 1.1 0
v 0.15 1.2 0.1
v 0.15 1.2 0
v 0.05 1.2 0
v 0.05 1.2 0.1
v 0.15 -1.1 0.1
v 0.15 -1.2 0.1
v 0.25 -1.2 0.1
v 0.25 -1.1 0.1
v 0.15 -1.2 0
v 0.15 -1.1 0
v 0.25 -1.1 0
v 0.25 -1.2 0
v 0.15 -1.2 0.1
v 0.15 -1.2 0
v 0.25 -1.2 0
v 0.25 -1.2 0.1
v 0.15 -1 0.1
v 0.15 -1.1 0.1
v 0.25 -1.1 0.1
v 0.25 -1 0.1
v 0.15 -1.1 0
v 0.15 -1 0
v 0.25 -1 0
v 0.25 -1.1 0
v 0.15 -0.9 0.1
v 0.15 -1 0.1
v 0.25 -1 0.1
v 0.25 -0.9 0.1
v 0.15 -1 0
v 0.15 -0.9 0
v 0.25 -0.9 0
v 0.25 -1 0
v 0.15 -0.8 0.1
v 0.15 -0.9 0.1
v 0.25 -0.9 0.1
v 0.25 -0.8 0.1
v 0.15 -0.9 0
v 0.15 -0.8 0
v 0.25 -0.8 0
v 0.25 -0.9 0
v 0.15 -0.7 0.1
v 0.15 -0.8 0.1
v 0.25 -0.8 0.1
v 0.25 -0.7 0.1
v 0.15 -0.8 0
v 0.15 -0.7 0
v 0.25 -0.7 0
v 0.25 -0.8 0
v 0.15 -0.6 0.1
v 0.15 -0.7 0.1
v 0.25 -0.7 0.1
v 0.25 -0.6 0.1
v 0.15 -0.7 0
v 0.15 -0.6 0
v 0.25 -0.6 0
v 0.25 -0.7 0
v 0.15 -0.5 0.1
v 0.15 -0.6 0.1
v 0.25 -0.6 0.1
v 0.25 -0.5 0.1
v 0.15 -0.6 0
v 0.15 -0.5 0
v 0.25 -0.5 0
v 0.25 -0.6 0
v 0.15 -0.4 0.1
v 0.15 -0.5 0.1
v 0.25 -0.5 0.1
v 0.25 -0.4 0.1
v 0.15 -0.5 0
v 0.15 -0.4 0
v 0.25 -0.4 0
v 0.25 -0.5 0
v 0.15 -0.3 0.1
v 0.15 -0.4 0.1
v 0.25 -0.4 0.1
v 0.25 -0.3 0.1
v 0.15 -0.4 0
v 0.15 -0.3 0
v 0.25 -0.3 0
v 0.25 -0.4 0
v 0.15 -0.2 0.1
v 0.15 -0.3 0.1
v 0.25 -0.3 0.1
v 0.25 -0.2 0.1
v 0.15 -0.3 0
v 0.15 -0.2 0
v 0.25 -0.2 0
v 0.25 -0.3 0
v 0.15 -0.1 0.1
v 0.15 -0.2 0.1
v 0.25 -0.2 0.1
v 0.25 -0.1 0.1
v 0.15 -0.2 0
v 0.15 -0.1 0
v 0.25 -0.1 0
v 0.25 -0.2 0
v 0.15 0 0.1
v 0.15 -0.1 0.1
v 0.25 -0.1 0.1
v 0.25 0 0.1
v 0.15 -0.1 0
v 0.15 0 0
v 0.25 0 0
v 0.25 -0.1 0
v 0.15 0.1 0.1
v 0.15 0 0.1
v 0.25 0 0.1
v 0.25 0.1 0.1
v 0.15 0 0
v 0.15 0.1 0
v 0.25 0.1 0
v 0.25 0 0
v 0.15 0.2 0.1
v 0.15 0.1 0.1
v 0.25 0.1 0.1
v 0.25 0.2 0.1
v 0.15 0.1 0
v 0.15 0.2 0
v 0.25 0.2 0
v 0.25 0.1 0
v 0.15 0.3 0.1
v 0.15 0.2 0.1
v 0.25 0.2 0.1
v 0.25 0.3 0.1
v 0.15 0.2 0
v 0.15 0.3 0
v 0.25 0.3 0
v 0.25 0.2 0
v 0.15 0.4 0.1
v 0.15 0.3 0.1
v 0.25 0.3 0.1
v 0.25 0.4 0.1
v 0.15 0.3 0
v 0.15 0.4 0
v 0.25 0.4 0
v 0.25 0.3 0
v 0.15 0.5 0.1
v 0.15 0.4 0.1
v 0.25 0.4 0.1
v 0.25 0.5 0.1
v 0.15 0.4 0
v 0.15 0.5 0
v 0.25 0.5 0
v 0.25 0.4 0
v 0.15 0.6 0.1
v 0.15 0.5 0.1
v 0.25 0.5 0.1
v 0.25 0.6 0.1
v 0.15 0.5 0
v 0.15 0.6 0
v 0.25 0.6 0
v 0.25 0.5 0
v 0.15 0.7 0.1
v 0.15 0.6 0.1
v 0.25 0.6 0.1
v 0.25 0.7 0.1
v 0.15 0.6 0
v 0.15 0.7 0
v 0.25 0.7 0
v 0.25 0.6 0
v 0.15 0.8 0.1
v 0.15 0.7 0.1
v 0.25 0.7 0.1
v 0.25 0.8 0.1
v 0.15 0.7 0
v 0.15 0.8 0
v 0.25 0.8 0
v 0.25 0.7 0
v 0.15 0.9 0.1
v 0.15 0.8 0.1
v 0.25 0.8 0.1
v 0.25 0.9 0.1
v 0.15 0.8 0
v 0.15 0.9 0
v 0.25 0.9 0
v 0.25 0.8 0
v 0.15 1 0.1
v 0.15 0.9 0.1
v 0.25 0.9 0.1
v 0.25 1 0.1
v 0.15 0.9 0
v 0.15 1 0
v 0.25 1 0
v 0.25 0.9 0
v 0.15 1.1 0.1
v 0.15 1 0.1
v 0.25 1 0.1
v 0.25 1.1 0.1
v 0.15 1 0
v 0.15 1.1 0
v 0.25 1.1 0
v 0.25 1 0
v 0.15 1.2 0.1
v 0.15 1.1 0.1
v 0.25 1.1 0.1
v 0.25 1.2 0.1
v 0.15 1.1 0
v 0.15 1.2 0
v 0.25 1.2 0
v 0.25 1.1 0
v 0.25 1.2 0.1
v 0.25 1.2 0
v 0.15 1.2 0
v 0.15 1.2 0.1
v 0.25 -1.1 0.1
v 0.25 -1.2 0.1
v 0.35 -1.2 0.1
v 0.35 -1.1 0.1
v 0.25 -1.2 0
v 0.25 -1.1 0
v 0.35 -1.1 0
v 0.35 -1.2 0
v 0.25 -1.2 0.1
v 0.25 -1.2 0
v 0.35 -1.2 0
v 0.35 -1.2 0.1
v 0.25 -1 0.1
v 0.25 -1.1 0.1
v 0.35 -1.1 0.1
v 0.35 -1 0.1
v 0.25 -1.1 0
v 0.25 -1 0
v 0.35 -1 0
v 0.35 -1.1 0
v 0.25 -0.9 0.1
v 0.25 -1 0.1
v 0.35 -1 0.1
v 0.35 -0.9 0.1
v 0.25 -1 0
v 0.25 -0.9 0
v 0.35 -0.9 0
v 0.35 -1 0
v 0.25 -0.8 0.1
v 0.25 -0.9 0.1
v 0.35 -0.9 0.1
v 0.35 -0.8 0.1
v 0.25 -0.9 0
v 0.25 -0.8 0
v 0.35 -0.8 0
v 0.35 -0.9 0
v 0.25 -0.7 0.1
v 0.25 -0.8 0.1
v 0.35 -0.8 0.1
v 0.35 -0.7 0.1
v 0.25 -0.8 0
v 0.25 -0.7 0
v 0.35 -0.7 0
v 0.35 -0.8 0
v 0.25 -0.6 0.1
v 0.25 -0.7 0.1
v 0.35 -0.7 0.1
v 0.35 -0.6 0.1
v 0.25 -0.7 0
v 0.25 -0.6 0
v 0.35 -0.6 0
v 0.35 -0.7 0
v 0.25 -0.5 0.1
v 0.25 -0.6 0.1
v 0.35 -0.6 0.1
v 0.35 -0.5 0.1
v 0.25 -0.6 0
v 0.25 -0.5 0
v 0.35 -0.5 0
v 0.35 -0.6 0
v 0.25 -0.4 0.1
v 0.25 -0.5 0.1
v 0.35 -0.5 0.1
v 0.35 -0.4 0.1
v 0.25 -0.5 0
v 0.25 -0.4 0
v 0.35 -0.4 0
v 0.35 -0.5 0
v 0.25 -0.3 0.1
v 0.25 -0.4 0.1
v 0.35 -0.4 0.1
v 0.35 -0.3 0.1
v 0.25 -0.4 0
v 0.25 -0.3 0
v 0.35 -0.3 0
v 0.35 -0.4 0
v 0.25 -0.2 0.1
v 0.25 -0.3 0.1
v 0.35 -0.3 0.1
v 0.35 -0.2 0.1
v 0.25 -0.3 0
v 0.25 -0.2 0
v 0.35 -0.2 0
v 0.35 -0.3 0
v 0.25 -0.1 0.1
v 0.25 -0.2 0.1
v 0.35 -0.2 0.1
v 0.35 -0.1 0.1
v 0.25 -0.2 0
v 0.25 -0.1 0
v 0.35 -0.1 0
v 0.35 -0.2 0
v 0.25 0 0.1
v 0.25 -0.1 0.1
v 0.35 -0.1 0.1
v 0.35 0 0.1
v 0.25 -0.1 0
v 0.25 0 0
v 0.35 0 0
v 0.35 -0.1 0
v 0.25 0.1 0.1
v 0.25 0 0.1
v 0.35 0 0.1
v 0.35 0.1 0.1
v 0.25 0 0
v 0.25 0.1 0
v 0.35 0.1 0
v 0.35 0 0
v 0.25 0.2 0.1
v 0.25 0.1 0.1
v 0.35 0.1 0.1
v 0.35 0.2 0.1
v 0.25 0.1 0
v 0.25 0.2 0
v 0.35 0.2 0
v 0.35 0.1 0
v 0.25 0.3 0.1
v 0.25 0.2 0.1
v 0.35 0.2 0.1
v 0.35 0.3 0.1
v 0.25 0.2 0
v 0.25 0.3 0
v 0.35 0.3 0
v 0.35 0.2 0
v 0.25 0.4 0.1
v 0.25 0.3 0.1
v 0.35 0.3 0.1
v 0.35 0.4 0.1
v 0.25 0.3 0
v 0.25 0.4 0
v 0.35 0.4 0
v 0.35 0.3 0
v 0.25 0.5 0.1
v 0.25 0.4 0.1
v 0.35 0.4 0.1
v 0.35 0.5 0.1
v 0.25 0.4 0
v 0.25 0.5 0
v 0.35 0.5 0
v 0.35 0.4 0
v 0.25 0.6 0.1
v 0.25 0.5 0.1
v 0.35 0.5 0.1
v 0.35 0.6 0.1
v 0.25 0.5 0
v 0.25 0.6 0
v 0.35 0.6 0
v 0.35 0.5 0
v 0.25 0.7 0.1
v 0.25 0.6 0.1
v 0.35 0.6 0.1
v 0.35 0.7 0.1
v 0.25 0.6 0
v 0.25 0.7 0
v 0.35 0.7 0
v 0.35 0.6 0
v 0.25 0.8 0.1
v 0.25 0.7 0.1
v 0.35 0.7 0.1
v 0.35 0.8 0.1
v 0.25 0.7 0
v 0.25 0.8 0
v 0.35 0.8 0
v 0.35 0.7 0
v 0.25 0.9 0.1
v 0.25 0.8 0.1
v 0.35 0.8 0.1
v 0.35 0.9 0.1
v 0.25 0.8 0
v 0.25 0.9 0
v 0.35 0.9 0
v 0.35 0.8 0
v 0.25 1 0.1
v 0.25 0.9 0.1
v 0.35 0.9 0.1
v 0.35 1 0.1
v 0.25 0.9 0
v 0.25 1 0
v 0.35 1 0
v 0.35 0.9 0
v 0.25 1.1 0.1
v 0.25 1 0.1
v 0.35 1 0.1
v 0.35 1.1 0.1
v 0.25 1 0
v 0.25 1.1 0
v 0.35 1.1 0
v 0.35 1 0
v 0.25 1.2 0.1
v 0.25 1.1 0.1
v 0.35 1.1 0.1
v 0.35 1.2 0.1
v 0.25 1.1 0
v 0.25 1.2 0
v 0.35 1.2 0
v 0.35 1.1 0
v 0.35 1.2 0.1
v 0.35 1.2 0
v 0.25 1.2 0
v 0.25 1.2 0.1
v 0.35 -1.1 0.1
v 0.35 -1.2 0.1
v 0.45 -1.2 0.1
v 0.45 -1.1 0.1
v 0.35 -1.2 0
v 0.35 -1.1 0
v 0.45 -1.1 0
v 0.45 -1.2 0
v 0.35 -1.2 0.1
v 0.35 -1.2 0
v 0.45 -1.2 0
v 0.45 -1.2 0.1
v 0.35 -1 0.1
v 0.35 -1.1 0.1
v 0.45 -1.1 0.1
v 0.45 -1 0.1
v 0.35 -1.1 0
v 0.35 -1 0
v 0.45 -1 0
v 0.45 -1.1 0
v 0.35 -0.9 0.1
v 0.35 -1 0.1
v 0.45 -1 0.1
v 0.45 -0.9 0.1
v 0.35 -1 0
v 0.35 -0.9 0
v 0.45 -0.9 0
v 0.45 -1 0
v 0.35 -0.8 0.1
v 0.35 -0.9 0.1
v 0.45 -0.9 0.1
v 0.45 -0.8 0.1
v 0.35 -0.9 0
v 0.35 -0.8 0
v 0.45 -0.8 0
v 0.45 -0.9 0
v 0.35 -0.7 0.1
v 0.35 -0.8 0.1
v 0.45 -0.8 0.1
v 0.45 -0.7 0.1
v 0.35 -0.8 0
v 0.35 -0.7 0
v 0.45 -0.7 0
v 0.45 -0.8 0
v 0.35 -0.6 0.1
v 0.35 -0.7 0.1
v 0.45 -0.7 0.1
v 0.45 -0.6 0.1
v 0.35 -0.7 0
v 0.35 -0.6 0
v 0.45 -0.6 0
v 0.45 -0.7 0
v 0.35 -0.5 0.1
v 0.35 -0.6 0.1
v 0.45 -0.6 0.1
v 0.45 -0.5 0.1
v 0.35 -0.6 0
v 0.35 -0.5 0
v 0.45 -0.5 0
v 0.45 -0.6 0
v 0.35 -0.4 0.1
v 0.35 -0.5 0.1
v 0.45 -0.5 0.1
v 0.45 -0.4 0.1
v 0.35 -0.5 0
v 0.35 -0.4 0
v 0.45 -0.4 0
v 0.45 -0.5 0
v 0.35 -0.3 0.1
v 0.35 -0.4 0.1
v 0.45 -0.4 0.1
v 0.45 -0.3 0.1
v 0.35 -0.4 0
v 0.35 -0.3 0
v 0.45 -0.3 0
v 0.45 -0.4 0
v 0.35 -0.2 0.1
v 0.35 -0.3 0.1
v 0.45 -0.3 0.1
v 0.45 -0.2 0.1
v 0.35 -0.3 0
v 0.35 -0.2 0
v 0.45 -0.2 0
v 0.45 -0.3 0
v 0.35 -0.1 0.1
v 0.35 -0.2 0.1
v 0.45 -0.2 0.1
v 0.45 -0.1 0.1
v 0.35 -0.2 0
v 0.35 -0.1 0
v 0.45 -0.1 0
v 0.45 -0.2 0
v 0.35 0 0.1
v 0.35 -0.1 0.1
v 0.45 -0.1 0.1
v 0.45 0 0.1
v 0.35 -0.1 0
v 0.35 0 0
v 0.45 0 0
v 0.45 -0.1 0
v 0.35 0.1 0.1
v 0.35 0 0.1
v 0.45 0 0.1
v 0.45 0.1 0.1
v 0.35 0 0
v 0.35 0.1 0
v 0.45 0.1 0
v 0.45 0 0
v 0.35 0.2 0.1
v 0.35 0.1 0.1
v 0.45 0.1 0.1
v 0.45 0.2 0.1
v 0.35 0.1 0
v 0.35 0.2 0
v 0.45 0.2 0
v 0.45 0.1 0
v 0.35 0.3 0.1
v 0.35 0.2 0.1
v 0.45 0.2 0.1
v 0.45 0.3 0.1
v 0.35 0.2 0
v 0.35 0.3 0
v 0.45 0.3 0
v 0.45 0.2 0
v 0.35 0.4 0.1
v 0.35 0.3 0.1
v 0.45 0.3 0.1
v 0.45 0.4 0.1
v 0.35 0.3 0
v 0.35 0.4 0
v 0.45 0.4 0
v 0.45 0.3 0
v 0.35 0.5 0.1
v 0.35 0.4 0.1
v 0.45 0.4 0.1
v 0.45 0.5 0.1
v 0.35 0.4 0
v 0.35 0.5 0
v 0.45 0.5 0
v 0.45 0.4 0
v 0.35 0.6 0.1
v 0.35 0.5 0.1
v 0.45 0.5 0.1
v 0.45 0.6 0.1
v 0.35 0.5 0
v 0.35 0.6 0
v 0.45 0.6 0
v 0.45 0.5 0
v 0.35 0.7 0.1
v 0.35 0.6 0.1
v 0.45 0.6 0.1
v 0.45 0.7 0.1
v 0.35 0.6 0
v 0.35 0.7 0
v 0.45 0.7 0
v 0.45 0.6 0
v 0.35 0.8 0.1
v 0.35 0.7 0.1
v 0.45 0.7 0.1
v 0.45 0.8 0.1
v 0.35 0.7 0
v 0.35 0.8 0
v 0.45 0.8 0
v 0.45 0.7 0
v 0.35 0.9 0.1
v 0.35 0.8 0.1
v 0.45 0.8 0.1
v 0.45 0.9 0.1
v 0.35 0.8 0
v 0.35 0.9 0
v 0.45 0.9 0
v 0.45 0.8 0
v 0.35 1 0.1
v 0.35 0.9 0.1
v 0.45 0.9 0.1
v 0.45 1 0.1
v 0.35 0.9 0
v 0.35 1 0
v 0.45 1 0
v 0.45 0.9 0
v 0.35 1.1 0.1
v 0.35 1 0.1
v 0.45 1 0.1
v 0.45 1.1 0.1
v 0.35 1 0
v 0.35 1.1 0
v 0.45 1.1 0
v 0.45 1 0
v 0.35 1.2 0.1
v 0.35 1.1 0.1
v 0.45 1.1 0.1
v 0.45 1.2 0.1
v 0.35 1.1 0
v 0.35 1.2 0
v 0.45 1.2 0
v 0.45 1.1 0
v 0.45 1.2 0.1
v 0.45 1.2 0
v 0.35 1.2 0
v 0.35 1.2 0.1
v 0.45 -1.1 0.1
v 0.45 -1.2 0.1
v 0.55 -1.2 0.1
v 0.55 -1.1 0.1
v 0.45 -1.2 0
v 0.45 -1.1 0
v 0.55 -1.1 0
v 0.55 -1.2 0
v 0.45 -1.2 0.1
v 0.45 -1.2 0
v 0.55 -1.2 0
v 0.55 -1.2 0.1
v 0.45 -1 0.1
v 0.45 -1.1 0.1
v 0.55 -1.1 0.1
v 0.55 -1 0.1
v 0.45 -1.1 0
v 0.45 -1 0
v 0.55 -1 0
v 0.55 -1.1 0
v 0.45 -0.9 0.1
v 0.45 -1 0.1
v 0.55 -1 0.1
v 0.55 -0.9 0.1
v 0.45 -1 0
v 0.45 -0.9 0
v 0.55 -0.9 0
v 0.55 -1 0
v 0.45 -0.8 0.1
v 0.45 -0.9 0.1
v 0.55 -0.9 0.1
v 0.55 -0.8 0.1
v 0.45 -0.9 0
v 0.45 -0.8 0
v 0.55 -0.8 0
v 0.55 -0.9 0
v 0.45 -0.7 0.1
v 0.45 -0.8 0.1
v 0.55 -0.8 0.1
v 0.55 -0.7 0.1
v 0.45 -0.8 0
v 0.45 -0.7 0
v 0.55 -0.7 0
v 0.55 -0.8 0
v 0.45 -0.6 0.1
v 0.45 -0.7 0.1
v 0.55 -0.7 0.1
v 0.55 -0.6 0.1
v 0.45 -0.7 0
v 0.45 -0.6 0
v 0.55 -0.6 0
v 0.55 -0.7 0
v 0.45 -0.5 0.1
v 0.45 -0.6 0.1
v 0.55 -0.6 0.1
v 0.55 -0.5 0.1
v 0.45 -0.6 0
v 0.45 -0.5 0
v 0.55 -0.5 0
v 0.55 -0.6 0
v 0.45 -0.4 0.1
v 0.45 -0.5 0.1
v 0.55 -0.5 0.1
v 0.55 -0.4 0.1
v 0.45 -0.5 0
v 0.45 -0.4 0
v 0.55 -0.4 0
v 0.55 -0.5 0
v 0.45 -0.3 0.1
v 0.45 -0.4 0.1
v 0.55 -0.4 0.1
v 0.55 -0.3 0.1
v 0.45 -0.4 0
v 0.45 -0.3 0
v 0.55 -0.3 0
v 0.55 -0.4 0
v 0.45 -0.2 0.1
v 0.45 -0.3 0.1
v 0.55 -0.3 0.1
v 0.55 -0.2 0.1
v 0.45 -0.3 0
v 0.45 -0.2 0
v 0.55 -0.2 0
v 0.55 -0.3 0
v 0.45 -0.1 0.1
v 0.45 -0.2 0.1
v 0.55 -0.2 0.1
v 0.55 -0.1 0.1
v 0.45 -0.2 0
v 0.45 -0.1 0
v 0.55 -0.1 0
v 0.55 -0.2 0
v 0.45 0 0.1
v 0.45 -0.1 0.1
v 0.55 -0.1 0.1
v 0.55 0 0.1
v 0.45 -0.1 0
v 0.45 0 0
v 0.55 0 0
v 0.55 -0.1 0
v 0.45 0.1 0.1
v 0.45 0 0.1
v 0.55 0 0.1
v 0.55 0.1 0.1
v 0.45 0 0
v 0.45 0.1 0
v 0.55 0.1 0
v 0.55 0 0
v 0.45 0.2 0.1
v 0.45 0.1 0.1
v 0.55 0.1 0.1
v 0.55 0.2 0.1
v 0.45 0.1 0
v 0.45 0.2 0
v 0.55 0.2 0
v 0.55 0.1 0
v 0.45 0.3 0.1
v 0.45 0.2 0.1
v 0.55 0.2 0.1
v 0.55 0.3 0.1
v 0.45 0.2 0
v 0.45 0.3 0
v 0.55 0.3 0
v 0.55 0.2 0
v 0.45 0.4 0.1
v 0.45 0.3 0.1
v 0.55 0.3 0.1
v 0.55 0.4 0.1
v 0.45 0.3 0
v 0.45 0.4 0
v 0.55 0.4 0
v 0.55 0.3 0
v 0.45 0.5 0.1
v 0.45 0.4 0.1
v 0.55 0.4 0.1
v 0.55 0.5 0.1
v 0.45 0.4 0
v 0.45 0.5 0
v 0.55 0.5 0
v 0.55 0.4 0
v 0.45 0.6 0.1
v 0.45 0.5 0.1
v 0.55 0.5 0.1
v 0.55 0.6 0.1
v 0.45 0.5 0
v 0.45 0.6 0
v 0.55 0.6 0
v 0.55 0.5 0
v 0.45 0.7 0.1
v 0.45 0.6 0.1
v 0.55 0.6 0.1
v 0.55 0.7 0.1
v 0.45 0.6 0
v 0.45 0.7 0
v 0.55 0.7 0
v 0.55 0.6 0
v 0.45 0.8 0.1
v 0.45 0.7 0.1
v 0.55 0.7 0.1
v 0.55 0.8 0.1
v 0.45 0.7 0
v 0.45 0.8 0
v 0.55 0.8 0
v 0.55 0.7 0
v 0.45 0.9 0.1
v 0.45 0.8 0.1
v 0.55 0.8 0.1
v 0.55 0.9 0.1
v 0.45 0.8 0
v 0.45 0.9 0
v 0.55 0.9 0
v 0.55 0.8 0
v 0.45 1 0.1
v 0.45 0.9 0.1
v 0.55 0.9 0.1
v 0.55 1 0.1
v 0.45 0.9 0
v 0.45 1 0
v 0.55 1 0
v 0.55 0.9 0
v 0.45 1.1 0.1
v 0.45 1 0.1
v 0.55 1 0.1
v 0.55 1.1 0.1
v 0.45 1 0
v 0.45 1.1 0
v 0.55 1.1 0
v 0.55 1 0
v 0.45 1.2 0.1
v 0.45 1.1 0.1
v 0.55 1.1 0.1
v 0.55 1.2 0.1
v 0.45 1.1 0
v 0.45 1.2 0
v 0.55 1.2 0
v 0.55 1.1 0
v 0.55 1.2 0.1
v 0.55 1.2 0
v 0.45 1.2 0
v 0.45 1.2 0.1
v 0.65 -1.2 0.1
v 0.65 -1.2 0
v 0.65 -1.1 0
v 0.65 -1.1 0.1
v 0.55 -1.1 0.1
v 0.55 -1.2 0.1
v 0.65 -1.2 0.1
v 0.65 -1.1 0.1
v 0.55 -1.2 0
v 0.55 -1.1 0
v 0.65 -1.1 0
v 0.65 -1.2 0
v 0.55 -1.2 0.1
v 0.55 -1.2 0
v 0.65 -1.2 0
v 0.65 -1.2 0.1
v 0.65 -1.1 0.1
v 0.65 -1.1 0
v 0.65 -1 0
v 0.65 -1 0.1
v 0.55 -1 0.1
v 0.55 -1.1 0.1
v 0.65 -1.1 0.1
v 0.65 -1 0.1
v 0.55 -1.1 0
v 0.55 -1 0
v 0.65 -1 0
v 0.65 -1.1 0
v 0.65 -1 0.1
v 0.65 -1 0
v 0.65 -0.9 0
v 0.65 -0.9 0.1
v 0.55 -0.9 0.1
v 0.55 -1 0.1
v 0.65 -1 0.1
v 0.65 -0.9 0.1
v 0.55 -1 0
v 0.55 -0.9 0
v 0.65 -0.9 0
v 0.65 -1 0
v 0.65 -0.9 0.1
v 0.65 -0.9 0
v 0.65 -0.8 0
v 0.65 -0.8 0.1
v 0.55 -0.8 0.1
v 0.55 -0.9 0.1
v 0.65 -0.9 0.1
v 0.65 -0.8 0.1
v 0.55 -0.9 0
v 0.55 -0.8 0
v 0.65 -0.8 0
v 0.65 -0.9 0
v 0.65 -0.8 0.1
v 0.65 -0.8 0
v 0.65 -0.7 0
v 0.65 -0.7 0.1
v 0.55 -0.7 0.1
v 0.55 -0.8 0.1
v 0.65 -0.8 0.1
v 0.65 -0.7 0.1
v 0.55 -0.8 0
v 0.55 -0.7 0
v 0.65 -0.7 0
v 0.65 -0.8 0
v 0.65 -0.7 0.1
v 0.65 -0.7 0
v 0.65 -0.6 0
v 0.65 -0.6 0.1
v 0.55 -0.6 0.1
v 0.55 -0.7 0.1
v 0.65 -0.7 0.1
v 0.65 -0.6 0.1
v 0.55 -0.7 0
v 0.55 -0.6 0
v 0.65 -0.6 0
v 0.65 -0.7 0
v 0.65 -0.6 0.1
v 0.65 -0.6 0
v 0.65 -0.5 0
v 0.65 -0.5 0.1
v 0.55 -0.5 0.1
v 0.55 -0.6 0.1
v 0.65 -0.6 0.1
v 0.65 -0.5 0.1
v 0.55 -0.6 0
v 0.55 -0.5 0
v 0.65 -0.5 0
v 0.65 -0.6 0
v 0.65 -0.5 0.1
v 0.65 -0.5 0
v 0.65 -0.4 0
v 0.65 -0.4 0.1
v 0.55 -0.4 0.1
v 0.55 -0.5 0.1
v 0.65 -0.5 0.1
v 0.65 -0.4 0.1
v 0.55 -0.5 0
v 0.55 -0.4 0
v 0.65 -0.4 0
v 0.65 -0.5 0
v 0.65 -0.4 0.1
v 0.65 -0.4 0
v 0.65 -0.3 0
v 0.65 -0.3 0.1
v 0.55 -0.3 0.1
v 0.55 -0.4 0.1
v 0.65 -0.4 0.1
v 0.65 -0.3 0.1
v 0.55 -0.4 0
v 0.55 -0.3 0
v 0.65 -0.3 0
v 0.65 -0.4 0
v 0.65 -0.3 0.1
v 0.65 -0.3 0
v 0.65 -0.2 0
v 0.65 -0.2 0.1
v 0.55 -0.2 0.1
v 0.55 -0.3 0.1
v 0.65 -0.3 0.1
v 0.65 -0.2 0.1
v 0.55 -0.3 0
v 0.55 -0.2 0
v 0.65 -0.2 0
v 0.65 -0.3 0
v 0.65 -0.2 0.1
v 0.65 -0.2 0
v 0.65 -0.1 0
v 0.65 -0.1 0.1
v 0.55 -0.1 0.1
v 0.55 -0.2 0.1
v 0.65 -0.2 0.1
v 0.65 -0.1 0.1
v 0.55 -0.2 0
v 0.55 -0.1 0
v 0.65 -0.1 0
v 0.65 -0.2 0
v 0.65 -0.1 0.1
v 0.65 -0.1 0
v 0.65 0 0
v 0.65 0 0.1
v 0.55 0 0.1
v 0.55 -0.1 0.1
v 0.65 -0.1 0.1
v 0.65 0 0.1
v 0.55 -0.1 0
v 0.55 0 0
v 0.65 0 0
v 0.65 -0.1 0
v 0.65 0 0.1
v 0.65 0 0
v 0.65 0.1 0
v 0.65 0.1 0.1
v 0.55 0.1 0.1
v 0.55 0 0.1
v 0.65 0 0.1
v 0.65 0.1 0.1
v 0.55 0 0
v 0.55 0.1 0
v 0.65 0.1 0
v 0.65 0 0
v 0.65 0.1 0.1
v 0.65 0.1 0
v 0.65 0.2 0
v 0.65 0.2 0.1
v 0.55 0.2 0.1
v 0.55 0.1 0.1
v 0.65 0.1 0.1
v 0.65 0.2 0.1
v 0.55 0.1 0
v 0.55 0.2 0
v 0.65 0.2 0
v 0.65 0.1 0
v 0.65 0.2 0.1
v 0.65 0.2 0
v 0.65 0.3 0
v 0.65 0.3 0.1
v 0.55 0.3 0.1
v 0.55 0.2 0.1
v 0.65 0.2 0.1
v 0.65 0.3 0.1
v 0.55 0.2 0
v 0.55 0.3 0
v 0.65 0.3 0
v 0.65 0.2 0
v 0.65 0.3 0.1
v 0.65 0.3 0
v 0.65 0.4 0
v 0.65 0.4 0.1
v 0.55 0.4 0.1
v 0.55 0.3 0.1
v 0.65 0.3 0.1
v 0.65 0.4 0.1
v 0.55 0.3 0
v 0.55 0.4 0
v 0.65 0.4 0
v 0.65 0.3 0
v 0.65 0.4 0.1
v 0.65 0.4 0
v 0.65 0.5 0
v 0.65 0.5 0.1
v 0.55 0.5 0.1
v 0.55 0.4 0.1
v 0.65 0.4 0.1
v 0.65 0.5 0.1
v 0.55 0.4 0
v 0.55 0.5 0
v 0.65 0.5 0
v 0.65 0.4 0
v 0.65 0.5 0.1
v 0.65 0.5 0
v 0.65 0.6 0
v 0.65 0.6 0.1
v 0.55 0.6 0.1
v 0.55 0.5 0.1
v 0.65 0.5 0.1
v 0.65 0.6 0.1
v 0.55 0.5 0
v 0.55 0.6 0
v 0.65 0.6 0
v 0.65 0.5 0
v 0.65 0.6 0.1
v 0.65 0.6 0
v 0.65 0.7 0
v 0.65 0.7 0.1
v 0.55 0.7 0.1
v 0.55 0.6 0.1
v 0.65 0.6 0.1
v 0.65 0.7 0.1
v 0.55 0.6 0
v 0.55 0.7 0
v 0.65 0.7 0
v 0.65 0.6 0
v 0.65 0.7 0.1
v 0.65 0.7 0
v 0.65 0.8 0
v 0.65 0.8 0.1
v 0.55 0.8 0.1
v 0.55 0.7 0.1
v 0.65 0.7 0.1
v 0.65 0.8 0.1
v 0.55 0.7 0
v 0.55 0.8 0
v 0.65 0.8 0
v 0.65 0.7 0
v 0.65 0.8 0.1
v 0.65 0.8 0
v 0.65 0.9 0
v 0.65 0.9 0.1
v 0.55 0.9 0.1
v 0.55 0.8 0.1
v 0.65 0.8 0.1
v 0.65 0.9 0.1
v 0.55 0.8 0
v 0.55 0.9 0
v 0.65 0.9 0
v 0.65 0.8 0
v 0.65 0.9 0.1
v 0.65 0.9 0
v 0.65 1 0
v 0.65 1 0.1
v 0.55 1 0.1
v 0.55 0.9 0.1
v 0.65 0.9 0.1
v 0.65 1 0.1
v 0.55 0.9 0
v 0.55 1 0
v 0.65 1 0
v 0.65 0.9 0
v 0.65 1 0.1
v 0.65 1 0
v 0.65 1.1 0
v 0.65 1.1 0.1
v 0.55 1.1 0.1
v 0.55 1 0.1
v 0.65 1 0.1
v 0.65 1.1 0.1
v 0.55 1 0
v 0.55 1.1 0
v 0.65 1.1 0
v 0.65 1 0
v 0.65 1.1 0.1
v 0.65 1.1 0
v 0.65 1.2 0
v 0.65 1.2 0.1
v 0.55 1.2 0.1
v 0.55 1.1 0.1
v 0.65 1.1 0.1
v 0.65 1.2 0.1
v 0.55 1.1 0
v 0.55 1.2 0
v 0.65 1.2 0
v 0.65 1.1 0
v 0.65 1.2 0.1
v 0.65 1.2 0
v 0.55 1.2 0
v 0.55 1.2 0.1

# faces
f 1/2/1 2/2/1 3/2/1 4/2/1
f 5/2/3 6/2/3 7/2/3 8/2/3
f 9/2/4 10/2/4 11/2/4 12/2/4
f 13/2/5 14/2/5 15/2/5 16/2/5
f 17/2/6 18/2/6 19/2/6 20/2/6
f 21/1/1 22/1/1 23/1/1 24/1/1
f 25/1/3 26/1/3 27/1/3 28/1/3
f 29/1/4 30/1/4 31/1/4 32/1/4
f 33/1/5 34/1/5 35/1/5 36/1/5
f 37/1/1 38/1/1 39/1/1 40/1/1
f 41/1/3 42/1/3 43/1/3 44/1/3
f 45/1/4 46/1/4 47/1/4 48/1/4
f 49/1/1 50/1/1 51/1/1 52/1/1
f 53/1/3 54/1/3 55/1/3 56/1/3
f 57/1/4 58/1/4 59/1/4 60/1/4
f 61/1/1 62/1/1 63/1/1 64/1/1
f 65/1/3 66/1/3 67/1/3 68/1/3
f 69/1/4 70/1/4 71/1/4 72/1/4
f 73/1/1 74/1/1 75/1/1 76/1/1
f 77/1/3 78/1/3 79/1/3 80/1/3
f 81/1/4 82/1/4 83/1/4 84/1/4
f 85/1/1 86/1/1 87/1/1 88/1/1
f 89/1/3 90/1/3 91/1/3 92/1/3
f 93/1/4 94/1/4 95/1/4 96/1/4
f 97/1/1 98/1/1 99/1/1 100/1/1
f 101/1/3 102/1/3 103/1/3 104/1/3
f 105/1/4 106/1/4 107/1/4 108/1/4
f 109/1/1 110/1/1 111/1/1 112/1/1
f 113/1/3 114/1/3 115/1/3 116/1/3
f 117/1/4 118/1/4 119/1/4 120/1/4
f 121/3/1 122/3/1 123/3/1 124/3/1
f 125/3/3 126/3/3 127/3/3 128/3/3
f 129/3/4 130/3/4 131/3/4 132/3/4
f 133/4/3 134/4/3 135/4/3 136/4/3
f 137/4/4 138/4/4 139/4/4 140/4/4
f 141/4/1 142/4/1 143/4/1 144/4/1
f 145/4/3 146/4/3 147/4/3 148/4/3
f 149/4/4 150/4/4 151/4/4 152/4/4
f 153/3/1 154/3/1 155/3/1 156/3/1
f 157/3/3 158/3/3 159/3/3 160/3/3
f 161/3/4 162/3/4 163/3/4 164/3/4
f 165/2/1 166/2/1 167/2/1 168/2/1
f 169/2/3 170/2/3 171/2/3 172/2/3
f 173/2/4 174/2/4 175/2/4 176/2/4
f 177/1/1 178/1/1 179/1/1 180/1/1
f 181/1/3 182/1/3 183/1/3 184/1/3
f 185/1/4 186/1/4 187/1/4 188/1/4
f 189/1/1 190/1/1 191/1/1 192/1/1
f 193/1/3 194/1/3 195/1/3 196/1/3
f 197/1/4 198/1/4 199/1/4 200/1/4
f 201/1/1 202/1/1 203/1/1 204/1/1
f 205/1/3 206/1/3 207/1/3 208/1/3
f 209/1/4 210/1/4 211/1/4 212/1/4
f 213/2/1 214/2/1 215/2/1 216/2/1
f 217/2/3 218/2/3 219/2/3 220/2/3
f 221/2/4 222/2/4 223/2/4 224/2/4
f 225/2/1 226/2/1 227/2/1 228/2/1
f 229/2/3 230/2/3 231/2/3 232/2/3
f 233/2/4 234/2/4 235/2/4 236/2/4
f 237/2/1 238/2/1 239/2/1 240/2/1
f 241/2/3 242/2/3 243/2/3 244/2/3
f 245/2/4 246/2/4 247/2/4 248/2/4
f 249/1/1 250/1/1 251/1/1 252/1/1
f 253/1/3 254/1/3 255/1/3 256/1/3
f 257/1/4 258/1/4 259/1/4 260/1/4
f 261/1/1 262/1/1 263/1/1 264/1/1
f 265/1/3 266/1/3 267/1/3 268/1/3
f 269/1/4 270/1/4 271/1/4 272/1/4
f 273/1/1 274/1/1 275/1/1 276/1/1
f 277/1/3 278/1/3 279/1/3 280/1/3
f 281/1/4 282/1/4 283/1/4 284/1/4
f 285/1/1 286/1/1 287/1/1 288/1/1
f 289/1/3 290/1/3 291/1/3 292/1/3
f 293/1/4 294/1/4 295/1/4 296/1/4
f 297/1/1 298/1/1 299/1/1 300/1/1
f 301/1/3 302/1/3 303/1/3 304/1/3
f 305/1/4 306/1/4 307/1/4 308/1/4
f 309/1/6 310/1/6 311/1/6 312/1/6
f 313/1/3 314/1/3 315/1/3 316/1/3
f 317/1/4 318/1/4 319/1/4 320/1/4
f 321/1/5 322/1/5 323/1/5 324/1/5
f 325/1/3 326/1/3 327/1/3 328/1/3
f 329/1/4 330/1/4 331/1/4 332/1/4
f 333/1/3 334/1/3 335/1/3 336/1/3
f 337/1/4 338/1/4 339/1/4 340/1/4
f 341/1/3 342/1/3 343/1/3 344/1/3
f 345/1/4 346/1/4 347/1/4 348/1/4
f 349/1/3 350/1/3 351/1/3 352/1/3
f 353/1/4 354/1/4 355/1/4 356/1/4
f 357/1/3 358/1/3 359/1/3 360/1/3
f 361/1/4 362/1/4 363/1/4 364/1/4
f 365/1/3 366/1/3 367/1/3 368/1/3
f 369/1/4 370/1/4 371/1/4 372/1/4
f 373/2/3 374/2/3 375/2/3 376/2/3
f 377/2/4 378/2/4 379/2/4 380/2/4
f 381/4/3 382/4/3 383/4/3 384/4/3
f 385/4/4 386/4/4 387/4/4 388/4/4
f 389/4/3 390/4/3 391/4/3 392/4/3
f 393/4/4 394/4/4 395/4/4 396/4/4
f 397/4/3 398/4/3 399/4/3 400/4/3
f 401/4/4 402/4/4 403/4/4 404/4/4
f 405/3/3 406/3/3 407/3/3 408/3/3
f 409/3/4 410/3/4 411/3/4 412/3/4
f 413/1/3 414/1/3 415/1/3 416/1/3
f 417/1/4 418/1/4 419/1/4 420/1/4
f 421/1/3 422/1/3 423/1/3 424/1/3
f 425/1/4 426/1/4 427/1/4 428/1/4
f 429/1/3 430/1/3 431/1/3 432/1/3
f 433/1/4 434/1/4 435/1/4 436/1/4
f 437/1/3 438/1/3 439/1/3 440/1/3
f 441/1/4 442/1/4 443/1/4 444/1/4
f 445/1/3 446/1/3 447/1/3 448/1/3
f 449/1/4 450/1/4 451/1/4 452/1/4
f 453/1/3 454/1/3 455/1/3 456/1/3
f 457/1/4 458/1/4 459/1/4 460/1/4
f 461/1/3 462/1/3 463/1/3 464/1/3
f 465/1/4 466/1/4 467/1/4 468/1/4
f 469/1/3 470/1/3 471/1/3 472/1/3
f 473/1/4 474/1/4 475/1/4 476/1/4
f 477/1/3 478/1/3 479/1/3 480/1/3
f 481/1/4 482/1/4 483/1/4 484/1/4
f 485/1/3 486/1/3 487/1/3 488/1/3
f 489/1/4 490/1/4 491/1/4 492/1/4
f 493/1/3 494/1/3 495/1/3 496/1/3
f 497/1/4 498/1/4 499/1/4 500/1/4
f 501/1/3 502/1/3 503/1/3 504/1/3
f 505/1/4 506/1/4 507/1/4 508/1/4
f 509/1/6 510/1/6 511/1/6 512/1/6
f 513/1/3 514/1/3 515/1/3 516/1/3
f 517/1/4 518/1/4 519/1/4 520/1/4
f 521/1/5 522/1/5 523/1/5 524/1/5
f 525/1/3 526/1/3 527/1/3 528/1/3
f 529/1/4 530/1/4 531/1/4 532/1/4
f 533/1/3 534/1/3 535/1/3 536/1/3
f 537/1/4 538/1/4 539/1/4 540/1/4
f 541/1/3 542/1/3 543/1/3 544/1/3
f 545/1/4 546/1/4 547/1/4 548/1/4
f 549/1/3 550/1/3 551/1/3 552/1/3
f 553/1/4 554/1/4 555/1/4 556/1/4
f 557/1/3 558/1/3 559/1/3 560/1/3
f 561/1/4 562/1/4 563/1/4 564/1/4
f 565/2/3 566/2/3 567/2/3 568/2/3
f 569/2/4 570/2/4 571/2/4 572/2/4
f 573/4/3 574/4/3 575/4/3 576/4/3
f 577/4/4 578/4/4 579/4/4 580/4/4
f 581/4/3 582/4/3 583/4/3 584/4/3
f 585/4/4 586/4/4 587/4/4 588/4/4
f 589/4/3 590/4/3 591/4/3 592/4/3
f 593/4/4 594/4/4 595/4/4 596/4/4
f 597/4/3 598/4/3 599/4/3 600/4/3
f 601/4/4 602/4/4 603/4/4 604/4/4
f 605/2/3 606/2/3 607/2/3 608/2/3
f 609/2/4 610/2/4 611/2/4 612/2/4
f 613/1/3 614/1/3 615/1/3 616/1/3
f 617/1/4 618/1/4 619/1/4 620/1/4
f 621/1/3 622/1/3 623/1/3 624/1/3
f 625/1/4 626/1/4 627/1/4 628/1/4
f 629/1/3 630/1/3 631/1/3 632/1/3
f 633/1/4 634/1/4 635/1/4 636/1/4
f 637/1/3 638/1/3 639/1/3 640/1/3
f 641/1/4 642/1/4 643/1/4 644/1/4
f 645/1/3 646/1/3 647/1/3 648/1/3
f 649/1/4 650/1/4 651/1/4 652/1/4
f 653/1/3 654/1/3 655/1/3 656/1/3
f 657/1/4 658/1/4 659/1/4 660/1/4
f 661/1/3 662/1/3 663/1/3 664/1/3
f 665/1/4 666/1/4 667/1/4 668/1/4
f 669/1/3 670/1/3 671/1/3 672/1/3
f 673/1/4 674/1/4 675/1/4 676/1/4
f 677/1/3 678/1/3 679/1/3 680/1/3
f 681/1/4 682/1/4 683/1/4 684/1/4
f 685/1/3 686/1/3 687/1/3 688/1/3
f 689/1/4 690/1/4 691/1/4 692/1/4
f 693/2/3 694/2/3 695/2/3 696/2/3
f 697/2/4 698/2/4 699/2/4 700/2/4
f 701/1/3 702/1/3 703/1/3 704/1/3
f 705/1/4 706/1/4 707/1/4 708/1/4
f 709/1/6 710/1/6 711/1/6 712/1/6
f 713/1/3 714/1/3 715/1/3 716/1/3
f 717/1/4 718/1/4 719/1/4 720/1/4
f 721/1/5 722/1/5 723/1/5 724/1/5
f 725/1/3 726/1/3 727/1/3 728/1/3
f 729/1/4 730/1/4 731/1/4 732/1/4
f 733/1/3 734/1/3 735/1/3 736/1/3
f 737/1/4 738/1/4 739/1/4 740/1/4
f 741/1/3 742/1/3 743/1/3 744/1/3
f 745/1/4 746/1/4 747/1/4 748/1/4
f 749/1/3 750/1/3 751/1/3 752/1/3
f 753/1/4 754/1/4 755/1/4 756/1/4
f 757/1/3 758/1/3 759/1/3 760/1/3
f 761/1/4 762/1/4 763/1/4 764/1/4
f 765/3/3 766/3/3 767/3/3 768/3/3
f 769/3/4 770/3/4 771/3/4 772/3/4
f 773/4/3 774/4/3 775/4/3 776/4/3
f 777/4/4 778/4/4 779/4/4 780/4/4
f 781/4/3 782/4/3 783/4/3 784/4/3
f 785/4/4 786/4/4 787/4/4 788/4/4
f 789/4/3 790/4/3 791/4/3 792/4/3
f 793/4/4 794/4/4 795/4/4 796/4/4
f 797/2/3 798/2/3 799/2/3 800/2/3
f 801/2/4 802/2/4 803/2/4 804/2/4
f 805/1/3 806/1/3 807/1/3 808/1/3
f 809/1/4 810/1/4 811/1/4 812/1/4
f 813/1/3 814/1/3 815/1/3 816/1/3
f 817/1/4 818/1/4 819/1/4 820/1/4
f 821/1/3 822/1/3 823/1/3 824/1/3
f 825/1/4 826/1/4 827/1/4 828/1/4
f 829/1/3 830/1/3 831/1/3 832/1/3
f 833/1/4 834/1/4 835/1/4 836/1/4
f 837/1/3 838/1/3 839/1/3 840/1/3
f 841/1/4 842/1/4 843/1/4 844/1/4
f 845/1/3 846/1/3 847/1/3 848/1/3
f 849/1/4 850/1/4 851/1/4 852/1/4
f 853/1/3 854/1/3 855/1/3 856/1/3
f 857/1/4 858/1/4 859/1/4 860/1/4
f 861/1/3 862/1/3 863/1/3 864/1/3
f 865/1/4 866/1/4 867/1/4 868/1/4
f 869/1/3 870/1/3 871/1/3 872/1/3
f 873/1/4 874/1/4 875/1/4 876/1/4
f 877/3/3 878/3/3 879/3/3 880/3/3
f 881/3/4 882/3/4 883/3/4 884/3/4
f 885/3/3 886/3/3 887/3/3 888/3/3
f 889/3/4 890/3/4 891/3/4 892/3/4
f 893/3/3 894/3/3 895/3/3 896/3/3
f 897/3/4 898/3/4 899/3/4 900/3/4
f 901/1/3 902/1/3 903/1/3 904/1/3
f 905/1/4 906/1/4 907/1/4 908/1/4
f 909/1/6 910/1/6 911/1/6 912/1/6
f 913/2/3 914/2/3 915/2/3 916/2/3
f 917/2/4 918/2/4 919/2/4 920/2/4
f 921/2/5 922/2/5 923/2/5 924/2/5
f 925/1/3 926/1/3 927/1/3 928/1/3
f 929/1/4 930/1/4 931/1/4 932/1/4
f 933/1/3 934/1/3 935/1/3 936/1/3
f 937/1/4 938/1/4 939/1/4 940/1/4
f 941/1/3 942/1/3 943/1/3 944/1/3
f 945/1/4 946/1/4 947/1/4 948/1/4
f 949/1/3 950/1/3 951/1/3 952/1/3
f 953/1/4 954/1/4 955/1/4 956/1/4
f 957/2/3 958/2/3 959/2/3 960/2/3
f 961/2/4 962/2/4 963/2/4 964/2/4
f 965/3/3 966/3/3 967/3/3 968/3/3
f 969/3/4 970/3/4 971/3/4 972/3/4
f 973/3/3 974/3/3 975/3/3 976/3/3
f 977/3/4 978/3/4 979/3/4 980/3/4
f 981/3/3 982/3/3 983/3/3 984/3/3
f 985/3/4 986/3/4 987/3/4 988/3/4
f 989/2/3 990/2/3 991/2/3 992/2/3
f 993/2/4 994/2/4 995/2/4 996/2/4
f 997/1/3 998/1/3 999/1/3 1000/1/3
f 1001/1/4 1002/1/4 1003/1/4 1004/1/4
f 1005/1/3 1006/1/3 1007/1/3 1008/1/3
f 1009/1/4 1010/1/4 1011/1/4 1012/1/4
f 1013/1/3 1014/1/3 1015/1/3 1016/1/3
f 1017/1/4 1018/1/4 1019/1/4 1020/1/4
f 1021/1/3 1022/1/3 1023/1/3 1024/1/3
f 1025/1/4 1026/1/4 1027/1/4 1028/1/4
f 1029/1/3 1030/1/3 1031/1/3 1032/1/3
f 1033/1/4 1034/1/4 1035/1/4 1036/1/4
f 1037/1/3 1038/1/3 1039/1/3 1040/1/3
f 1041/1/4 1042/1/4 1043/1/4 1044/1/4
f 1045/1/3 1046/1/3 1047/1/3 1048/1/3
f 1049/1/4 1050/1/4 1051/1/4 1052/1/4
f 1053/1/3 1054/1/3 1055/1/3 1056/1/3
f 1057/1/4 1058/1/4 1059/1/4 1060/1/4
f 1061/1/3 1062/1/3 1063/1/3 1064/1/3
f 1065/1/4 1066/1/4 1067/1/4 1068/1/4
f 1069/3/3 1070/3/3 1071/3/3 1072/3/3
f 1073/3/4 1074/3/4 1075/3/4 1076/3/4
f 1077/4/3 1078/4/3 1079/4/3 1080/4/3
f 1081/4/4 1082/4/4 1083/4/4 1084/4/4
f 1085/4/3 1086/4/3 1087/4/3 1088/4/3
f 1089/4/4 1090/4/4 1091/4/4 1092/4/4
f 1093/3/3 1094/3/3 1095/3/3 1096/3/3
f 1097/3/4 1098/3/4 1099/3/4 1100/3/4
f 1101/2/3 1102/2/3 1103/2/3 1104/2/3
f 1105/2/4 1106/2/4 1107/2/4 1108/2/4
f 1109/2/6 1110/2/6 1111/2/6 1112/2/6
f 1113/2/3 1114/2/3 1115/2/3 1116/2/3
f 1117/2/4 1118/2/4 1119/2/4 1120/2/4
f 1121/2/5 1122/2/5 1123/2/5 1124/2/5
f 1125/2/3 1126/2/3 1127/2/3 1128/2/3
f 1129/2/4 1130/2/4 1131/2/4 1132/2/4
f 1133/2/3 1134/2/3 1135/2/3 1136/2/3
f 1137/2/4 1138/2/4 1139/2/4 1140/2/4
f 1141/2/3 1142/2/3 1143/2/3 1144/2/3
f 1145/2/4 1146/2/4 1147/2/4 1148/2/4
f 1149/2/3 1150/2/3 1151/2/3 1152/2/3
f 1153/2/4 1154/2/4 1155/2/4 1156/2/4
f 1157/2/3 1158/2/3 1159/2/3 1160/2/3
f 1161/2/4 1162/2/4 1163/2/4 1164/2/4
f 1165/2/3 1166/2/3 1167/2/3 1168/2/3
f 1169/2/4 1170/2/4 1171/2/4 1172/2/4
f 1173/1/3 1174/1/3 1175/1/3 1176/1/3
f 1177/1/4 1178/1/4 1179/1/4 1180/1/4
f 1181/1/3 1182/1/3 1183/1/3 1184/1/3
f 1185/1/4 1186/1/4 1187/1/4 1188/1/4
f 1189/1/3 1190/1/3 1191/1/3 1192/1/3
f 1193/1/4 1194/1/4 1195/1/4 1196/1/4
f 1197/1/3 1198/1/3 1199/1/3 1200/1/3
f 1201/1/4 1202/1/4 1203/1/4 1204/1/4
f 1205/1/3 1206/1/3 1207/1/3 1208/1/3
f 1209/1/4 1210/1/4 1211/1/4 1212/1/4
f 1213/1/3 1214/1/3 1215/1/3 1216/1/3
f 1217/1/4 1218/1/4 1219/1/4 1220/1/4
f 1221/1/3 1222/1/3 1223/1/3 1224/1/3
f 1225/1/4 1226/1/4 1227/1/4 1228/1/4
f 1229/1/3 1230/1/3 1231/1/3 1232/1/3
f 1233/1/4 1234/1/4 1235/1/4 1236/1/4
f 1237/1/3 1238/1/3 1239/1/3 1240/1/3
f 1241/1/4 1242/1/4 1243/1/4 1244/1/4
f 1245/1/3 1246/1/3 1247/1/3 1248/1/3
f 1249/1/4 1250/1/4 1251/1/4 1252/1/4
f 1253/1/3 1254/1/3 1255/1/3 1256/1/3
f 1257/1/4 1258/1/4 1259/1/4 1260/1/4
f 1261/2/3 1262/2/3 1263/2/3 1264/2/3
f 1265/2/4 1266/2/4 1267/2/4 1268/2/4
f 1269/4/3 1270/4/3 1271/4/3 1272/4/3
f 1273/4/4 1274/4/4 1275/4/4 1276/4/4
f 1277/4/3 1278/4/3 1279/4/3 1280/4/3
f 1281/4/4 1282/4/4 1283/4/4 1284/4/4
f 1285/4/3 1286/4/3 1287/4/3 1288/4/3
f 1289/4/4 1290/4/4 1291/4/4 1292/4/4
f 1293/3/3 1294/3/3 1295/3/3 1296/3/3
f 1297/3/4 1298/3/4 1299/3/4 1300/3/4
f 1301/2/3 1302/2/3 1303/2/3 1304/2/3
f 1305/2/4 1306/2/4 1307/2/4 1308/2/4
f 1309/2/6 1310/2/6 1311/2/6 1312/2/6
f 1313/3/3 1314/3/3 1315/3/3 1316/3/3
f 1317/3/4 1318/3/4 1319/3/4 1320/3/4
f 1321/3/5 1322/3/5 1323/3/5 1324/3/5
f 1325/3/3 1326/3/3 1327/3/3 1328/3/3
f 1329/3/4 1330/3/4 1331/3/4 1332/3/4
f 1333/3/3 1334/3/3 1335/3/3 1336/3/3
f 1337/3/4 1338/3/4 1339/3/4 1340/3/4
f 1341/3/3 1342/3/3 1343/3/3 1344/3/3
f 1345/3/4 1346/3/4 1347/3/4 1348/3/4
f 1349/3/3 1350/3/3 1351/3/3 1352/3/3
f 1353/3/4 1354/3/4 1355/3/4 1356/3/4
f 1357/1/3 1358/1/3 1359/1/3 1360/1/3
f 1361/1/4 1362/1/4 1363/1/4 1364/1/4
f 1365/1/3 1366/1/3 1367/1/3 1368/1/3
f 1369/1/4 1370/1/4 1371/1/4 1372/1/4
f 1373/1/3 1374/1/3 1375/1/3 1376/1/3
f 1377/1/4 1378/1/4 1379/1/4 1380/1/4
f 1381/1/3 1382/1/3 1383/1/3 1384/1/3
f 1385/1/4 1386/1/4 1387/1/4 1388/1/4
f 1389/1/3 1390/1/3 1391/1/3 1392/1/3
f 1393/1/4 1394/1/4 1395/1/4 1396/1/4
f 1397/1/3 1398/1/3 1399/1/3 1400/1/3
f 1401/1/4 1402/1/4 1403/1/4 1404/1/4
f 1405/1/3 1406/1/3 1407/1/3 1408/1/3
f 1409/1/4 1410/1/4 1411/1/4 1412/1/4
f 1413/1/3 1414/1/3 1415/1/3 1416/1/3
f 1417/1/4 1418/1/4 1419/1/4 1420/1/4
f 1421/1/3 1422/1/3 1423/1/3 1424/1/3
f 1425/1/4 1426/1/4 1427/1/4 1428/1/4
f 1429/1/3 1430/1/3 1431/1/3 1432/1/3
f 1433/1/4 1434/1/4 1435/1/4 1436/1/4
f 1437/1/3 1438/1/3 1439/1/3 1440/1/3
f 1441/1/4 1442/1/4 1443/1/4 1444/1/4
f 1445/1/3 1446/1/3 1447/1/3 1448/1/3
f 1449/1/4 1450/1/4 1451/1/4 1452/1/4
f 1453/1/3 1454/1/3 1455/1/3 1456/1/3
f 1457/1/4 1458/1/4 1459/1/4 1460/1/4
f 1461/3/3 1462/3/3 1463/3/3 1464/3/3
f 1465/3/4 1466/3/4 1467/3/4 1468/3/4
f 1469/4/3 1470/4/3 1471/4/3 1472/4/3
f 1473/4/4 1474/4/4 1475/4/4 1476/4/4
f 1477/4/3 1478/4/3 1479/4/3 1480/4/3
f 1481/4/4 1482/4/4 1483/4/4 1484/4/4
f 1485/3/3 1486/3/3 1487/3/3 1488/3/3
f 1489/3/4 1490/3/4 1491/3/4 1492/3/4
f 1493/3/3 1494/3/3 1495/3/3 1496/3/3
f 1497/3/4 1498/3/4 1499/3/4 1500/3/4
f 1501/3/3 1502/3/3 1503/3/3 1504/3/3
f 1505/3/4 1506/3/4 1507/3/4 1508/3/4
f 1509/3/6 1510/3/6 1511/3/6 1512/3/6
f 1513/3/3 1514/3/3 1515/3/3 1516/3/3
f 1517/3/4 1518/3/4 1519/3/4 1520/3/4
f 1521/3/5 1522/3/5 1523/3/5 1524/3/5
f 1525/4/3 1526/4/3 1527/4/3 1528/4/3
f 1529/4/4 1530/4/4 1531/4/4 1532/4/4
f 1533/4/3 1534/4/3 1535/4/3 1536/4/3
f 1537/4/4 1538/4/4 1539/4/4 1540/4/4
f 1541/4/3 1542/4/3 1543/4/3 1544/4/3
f 1545/4/4 1546/4/4 1547/4/4 1548/4/4
f 1549/2/3 1550/2/3 1551/2/3 1552/2/3
f 1553/2/4 1554/2/4 1555/2/4 1556/2/4
f 1557/1/3 1558/1/3 1559/1/3 1560/1/3
f 1561/1/4 1562/1/4 1563/1/4 1564/1/4
f 1565/1/3 1566/1/3 1567/1/3 1568/1/3
f 1569/1/4 1570/1/4 1571/1/4 1572/1/4
f 1573/1/3 1574/1/3 1575/1/3 1576/1/3
f 1577/1/4 1578/1/4 1579/1/4 1580/1/4
f 1581/1/3 1582/1/3 1583/1/3 1584/1/3
f 1585/1/4 1586/1/4 1587/1/4 1588/1/4
f 1589/1/3 1590/1/3 1591/1/3 1592/1/3
f 1593/1/4 1594/1/4 1595/1/4 1596/1/4
f 1597/1/3 1598/1/3 1599/1/3 1600/1/3
f 1601/1/4 1602/1/4 1603/1/4 1604/1/4
f 1605/1/3 1606/1/3 1607/1/3 1608/1/3
f 1609/1/4 1610/1/4 1611/1/4 1612/1/4
f 1613/1/3 1614/1/3 1615/1/3 1616/1/3
f 1617/1/4 1618/1/4 1619/1/4 1620/1/4
f 1621/1/3 1622/1/3 1623/1/3 1624/1/3
f 1625/1/4 1626/1/4 1627/1/4 1628/1/4
f 1629/1/3 1630/1/3 1631/1/3 1632/1/3
f 1633/1/4 1634/1/4 1635/1/4 1636/1/4
f 1637/1/3 1638/1/3 1639/1/3 1640/1/3
f 1641/1/4 1642/1/4 1643/1/4 1644/1/4
f 1645/1/3 1646/1/3 1647/1/3 1648/1/3
f 1649/1/4 1650/1/4 1651/1/4 1652/1/4
f 1653/2/3 1654/2/3 1655/2/3 1656/2/3
f 1657/2/4 1658/2/4 1659/2/4 1660/2/4
f 1661/3/3 1662/3/3 1663/3/3 1664/3/3
f 1665/3/4 1666/3/4 1667/3/4 1668/3/4
f 1669/3/3 1670/3/3 1671/3/3 1672/3/3
f 1673/3/4 1674/3/4 1675/3/4 1676/3/4
f 1677/3/3 1678/3/3 1679/3/3 1680/3/3
f 1681/3/4 1682/3/4 1683/3/4 1684/3/4
f 1685/3/3 1686/3/3 1687/3/3 1688/3/3
f 1689/3/4 1690/3/4 1691/3/4 1692/3/4
f 1693/3/3 1694/3/3 1695/3/3 1696/3/3
f 1697/3/4 1698/3/4 1699/3/4 1700/3/4
f 1701/3/3 1702/3/3 1703/3/3 1704/3/3
f 1705/3/4 1706/3/4 1707/3/4 1708/3/4
f 1709/3/6 1710/3/6 1711/3/6 1712/3/6
f 1713/4/3 1714/4/3 1715/4/3 1716/4/3
f 1717/4/4 1718/4/4 1719/4/4 1720/4/4
f 1721/4/5 1722/4/5 1723/4/5 1724/4/5
f 1725/4/3 1726/4/3 1727/4/3 1728/4/3
f 1729/4/4 1730/4/4 1731/4/4 1732/4/4
f 1733/4/3 1734/4/3 1735/4/3 1736/4/3
f 1737/4/4 1738/4/4 1739/4/4 1740/4/4
f 1741/3/3 1742/3/3 1743/3/3 1744/3/3
f 1745/3/4 1746/3/4 1747/3/4 1748/3/4
f 1749/1/3 1750/1/3 1751/1/3 1752/1/3
f 1753/1/4 1754/1/4 1755/1/4 1756/1/4
f 1757/1/3 1758/1/3 1759/1/3 1760/1/3
f 1761/1/4 1762/1/4 1763/1/4 1764/1/4
f 1765/1/3 1766/1/3 1767/1/3 1768/1/3
f 1769/1/4 1770/1/4 1771/1/4 1772/1/4
f 1773/1/3 1774/1/3 1775/1/3 1776/1/3
f 1777/1/4 1778/1/4 1779/1/4 1780/1/4
f 1781/1/3 1782/1/3 1783/1/3 1784/1/3
f 1785/1/4 1786/1/4 1787/1/4 1788/1/4
f 1789/1/3 1790/1/3 1791/1/3 1792/1/3
f 1793/1/4 1794/1/4 1795/1/4 1796/1/4
f 1797/1/3 1798/1/3 1799/1/3 1800/1/3
f 1801/1/4 1802/1/4 1803/1/4 1804/1/4
f 1805/1/3 1806/1/3 1807/1/3 1808/1/3
f 1809/1/4 1810/1/4 1811/1/4 1812/1/4
f 1813/1/3 1814/1/3 1815/1/3 1816/1/3
f 1817/1/4 1818/1/4 1819/1/4 1820/1/4
f 1821/1/3 1822/1/3 1823/1/3 1824/1/3
f 1825/1/4 1826/1/4 1827/1/4 1828/1/4
f 1829/1/3 1830/1/3 1831/1/3 1832/1/3
f 1833/1/4 1834/1/4 1835/1/4 1836/1/4
f 1837/2/3 1838/2/3 1839/2/3 1840/2/3
f 1841/2/4 1842/2/4 1843/2/4 1844/2/4
f 1845/2/3 1846/2/3 1847/2/3 1848/2/3
f 1849/2/4 1850/2/4 1851/2/4 1852/2/4
f 1853/2/3 1854/2/3 1855/2/3 1856/2/3
f 1857/2/4 1858/2/4 1859/2/4 1860/2/4
f 1861/2/3 1862/2/3 1863/2/3 1864/2/3
f 1865/2/4 1866/2/4 1867/2/4 1868/2/4
f 1869/1/3 1870/1/3 1871/1/3 1872/1/3
f 1873/1/4 1874/1/4 1875/1/4 1876/1/4
f 1877/2/3 1878/2/3 1879/2/3 1880/2/3
f 1881/2/4 1882/2/4 1883/2/4 1884/2/4
f 1885/3/3 1886/3/3 1887/3/3 1888/3/3
f 1889/3/4 1890/3/4 1891/3/4 1892/3/4
f 1893/3/3 1894/3/3 1895/3/3 1896/3/3
f 1897/3/4 1898/3/4 1899/3/4 1900/3/4
f 1901/2/3 1902/2/3 1903/2/3 1904/2/3
f 1905/2/4 1906/2/4 1907/2/4 1908/2/4
f 1909/2/6 1910/2/6 1911/2/6 1912/2/6
f 1913/4/3 1914/4/3 1915/4/3 1916/4/3
f 1917/4/4 1918/4/4 1919/4/4 1920/4/4
f 1921/4/5 1922/4/5 1923/4/5 1924/4/5
f 1925/4/3 1926/4/3 1927/4/3 1928/4/3
f 1929/4/4 1930/4/4 1931/4/4 1932/4/4
f 1933/3/3 1934/3/3 1935/3/3 1936/3/3
f 1937/3/4 1938/3/4 1939/3/4 1940/3/4
f 1941/1/3 1942/1/3 1943/1/3 1944/1/3
f 1945/1/4 1946/1/4 1947/1/4 1948/1/4
f 1949/1/3 1950/1/3 1951/1/3 1952/1/3
f 1953/1/4 1954/1/4 1955/1/4 1956/1/4
f 1957/1/3 1958/1/3 1959/1/3 1960/1/3
f 1961/1/4 1962/1/4 1963/1/4 1964/1/4
f 1965/1/3 1966/1/3 1967/1/3 1968/1/3
f 1969/1/4 1970/1/4 1971/1/4 1972/1/4
f 1973/1/3 1974/1/3 1975/1/3 1976/1/3
f 1977/1/4 1978/1/4 1979/1/4 1980/1/4
f 1981/1/3 1982/1/3 1983/1/3 1984/1/3
f 1985/1/4 1986/1/4 1987/1/4 1988/1/4
f 1989/1/3 1990/1/3 1991/1/3 1992/1/3
f 1993/1/4 1994/1/4 1995/1/4 1996/1/4
f 1997/1/3 1998/1/3 1999/1/3 2000/1/3
f 2001/1/4 2002/1/4 2003/1/4 2004/1/4
f 2005/1/3 2006/1/3 2007/1/3 2008/1/3
f 2009/1/4 2010/1/4 2011/1/4 2012/1/4
f 2013/2/3 2014/2/3 2015/2/3 2016/2/3
f 2017/2/4 2018/2/4 2019/2/4 2020/2/4
f 2021/3/3 2022/3/3 2023/3/3 2024/3/3
f 2025/3/4 2026/3/4 2027/3/4 2028/3/4
f 2029/4/3 2030/4/3 2031/4/3 2032/4/3
f 2033/4/4 2034/4/4 2035/4/4 2036/4/4
f 2037/3/3 2038/3/3 2039/3/3 2040/3/3
f 2041/3/4 2042/3/4 2043/3/4 2044/3/4
f 2045/2/3 2046/2/3 2047/2/3 2048/2/3
f 2049/2/4 2050/2/4 2051/2/4 2052/2/4
f 2053/1/3 2054/1/3 2055/1/3 2056/1/3
f 2057/1/4 2058/1/4 2059/1/4 2060/1/4
f 2061/1/3 2062/1/3 2063/1/3 2064/1/3
f 2065/1/4 2066/1/4 2067/1/4 2068/1/4
f 2069/1/3 2070/1/3 2071/1/3 2072/1/3
f 2073/1/4 2074/1/4 2075/1/4 2076/1/4
f 2077/1/3 2078/1/3 2079/1/3 2080/1/3
f 2081/1/4 2082/1/4 2083/1/4 2084/1/4
f 2085/2/3 2086/2/3 2087/2/3 2088/2/3
f 2089/2/4 2090/2/4 2091/2/4 2092/2/4
f 2093/2/3 2094/2/3 2095/2/3 2096/2/3
f 2097/2/4 2098/2/4 2099/2/4 2100/2/4
f 2101/1/3 2102/1/3 2103/1/3 2104/1/3
f 2105/1/4 2106/1/4 2107/1/4 2108/1/4
f 2109/1/6 2110/1/6 2111/1/6 2112/1/6
f 2113/3/3 2114/3/3 2115/3/3 2116/3/3
f 2117/3/4 2118/3/4 2119/3/4 2120/3/4
f 2121/3/5 2122/3/5 2123/3/5 2124/3/5
f 2125/3/3 2126/3/3 2127/3/3 2128/3/3
f 2129/3/4 2130/3/4 2131/3/4 2132/3/4
f 2133/1/3 2134/1/3 2135/1/3 2136/1/3
f 2137/1/4 2138/1/4 2139/1/4 2140/1/4
f 2141/1/3 2142/1/3 2143/1/3 2144/1/3
f 2145/1/4 2146/1/4 2147/1/4 2148/1/4
f 2149/1/3 2150/1/3 2151/1/3 2152/1/3
f 2153/1/4 2154/1/4 2155/1/4 2156/1/4
f 2157/1/3 2158/1/3 2159/1/3 2160/1/3
f 2161/1/4 2162/1/4 2163/1/4 2164/1/4
f 2165/1/3 2166/1/3 2167/1/3 2168/1/3
f 2169/1/4 2170/1/4 2171/1/4 2172/1/4
f 2173/1/3 2174/1/3 2175/1/3 2176/1/3
f 2177/1/4 2178/1/4 2179/1/4 2180/1/4
f 2181/1/3 2182/1/3 2183/1/3 2184/1/3
f 2185/1/4 2186/1/4 2187/1/4 2188/1/4
f 2189/1/3 2190/1/3 2191/1/3 2192/1/3
f 2193/1/4 2194/1/4 2195/1/4 2196/1/4
f 2197/1/3 2198/1/3 2199/1/3 2200/1/3
f 2201/1/4 2202/1/4 2203/1/4 2204/1/4
f 2205/2/3 2206/2/3 2207/2/3 2208/2/3
f 2209/2/4 2210/2/4 2211/2/4 2212/2/4
f 2213/4/3 2214/4/3 2215/4/3 2216/4/3
f 2217/4/4 2218/4/4 2219/4/4 2220/4/4
f 2221/4/3 2222/4/3 2223/4/3 2224/4/3
f 2225/4/4 2226/4/4 2227/4/4 2228/4/4
f 2229/4/3 2230/4/3 2231/4/3 2232/4/3
f 2233/4/4 2234/4/4 2235/4/4 2236/4/4
f 2237/3/3 2238/3/3 2239/3/3 2240/3/3
f 2241/3/4 2242/3/4 2243/3/4 2244/3/4
f 2245/1/3 2246/1/3 2247/1/3 2248/1/3
f 2249/1/4 2250/1/4 2251/1/4 2252/1/4
f 2253/1/3 2254/1/3 2255/1/3 2256/1/3
f 2257/1/4 2258/1/4 2259/1/4 2260/1/4
f 2261/1/3 2262/1/3 2263/1/3 2264/1/3
f 2265/1/4 2266/1/4 2267/1/4 2268/1/4
f 2269/1/3 2270/1/3 2271/1/3 2272/1/3
f 2273/1/4 2274/1/4 2275/1/4 2276/1/4
f 2277/1/3 2278/1/3 2279/1/3 2280/1/3
f 2281/1/4 2282/1/4 2283/1/4 2284/1/4
f 2285/1/3 2286/1/3 2287/1/3 2288/1/3
f 2289/1/4 2290/1/4 2291/1/4 2292/1/4
f 2293/1/3 2294/1/3 2295/1/3 2296/1/3
f 2297/1/4 2298/1/4 2299/1/4 2300/1/4
f 2301/1/3 2302/1/3 2303/1/3 2304/1/3
f 2305/1/4 2306/1/4 2307/1/4 2308/1/4
f 2309/1/6 2310/1/6 2311/1/6 2312/1/6
f 2313/1/2 2314/1/2 2315/1/2 2316/1/2
f 2317/1/3 2318/1/3 2319/1/3 2320/1/3
f 2321/1/4 2322/1/4 2323/1/4 2324/1/4
f 2325/1/5 2326/1/5 2327/1/5 2328/1/5
f 2329/1/2 2330/1/2 2331/1/2 2332/1/2
f 2333/1/3 2334/1/3 2335/1/3 2336/1/3
f 2337/1/4 2338/1/4 2339/1/4 2340/1/4
f 2341/1/2 2342/1/2 2343/1/2 2344/1/2
f 2345/1/3 2346/1/3 2347/1/3 2348/1/3
f 2349/1/4 2350/1/4 2351/1/4 2352/1/4
f 2353/1/2 2354/1/2 2355/1/2 2356/1/2
f 2357/1/3 2358/1/3 2359/1/3 2360/1/3
f 2361/1/4 2362/1/4 2363/1/4 2364/1/4
f 2365/1/2 2366/1/2 2367/1/2 2368/1/2
f 2369/1/3 2370/1/3 2371/1/3 2372/1/3
f 2373/1/4 2374/1/4 2375/1/4 2376/1/4
f 2377/1/2 2378/1/2 2379/1/2 2380/1/2
f 2381/1/3 2382/1/3 2383/1/3 2384/1/3
f 2385/1/4 2386/1/4 2387/1/4 2388/1/4
f 2389/1/2 2390/1/2 2391/1/2 2392/1/2
f 2393/1/3 2394/1/3 2395/1/3 2396/1/3
f 2397/1/4 2398/1/4 2399/1/4 2400/1/4
f 2401/1/2 2402/1/2 2403/1/2 2404/1/2
f 2405/1/3 2406/1/3 2407/1/3 2408/1/3
f 2409/1/4 2410/1/4 2411/1/4 2412/1/4
f 2413/1/2 2414/1/2 2415/1/2 2416/1/2
f 2417/1/3 2418/1/3 2419/1/3 2420/1/3
f 2421/1/4 2422/1/4 2423/1/4 2424/1/4
f 2425/1/2 2426/1/2 2427/1/2 2428/1/2
f 2429/1/3 2430/1/3 2431/1/3 2432/1/3
f 2433/1/4 2434/1/4 2435/1/4 2436/1/4
f 2437/1/2 2438/1/2 2439/1/2 2440/1/2
f 2441/1/3 2442/1/3 2443/1/3 2444/1/3
f 2445/1/4 2446/1/4 2447/1/4 2448/1/4
f 2449/3/2 2450/3/2 2451/3/2 2452/3/2
f 2453/3/3 2454/3/3 2455/3/3 2456/3/3
f 2457/3/4 2458/3/4 2459/3/4 2460/3/4
f 2461/4/2 2462/4/2 2463/4/2 2464/4/2
f 2465/4/3 2466/4/3 2467/4/3 2468/4/3
f 2469/4/4 2470/4/4 2471/4/4 2472/4/4
f 2473/4/2 2474/4/2 2475/4/2 2476/4/2
f 2477/4/3 2478/4/3 2479/4/3 2480/4/3
f 2481/4/4 2482/4/4 2483/4/4 2484/4/4
f 2485/4/2 2486/4/2 2487/4/2 2488/4/2
f 2489/4/3 2490/4/3 2491/4/3 2492/4/3
f 2493/4/4 2494/4/4 2495/4/4 2496/4/4
f 2497/2/2 2498/2/2 2499/2/2 2500/2/2
f 2501/2/3 2502/2/3 2503/2/3 2504/2/3
f 2505/2/4 2506/2/4 2507/2/4 2508/2/4
f 2509/1/2 2510/1/2 2511/1/2 2512/1/2
f 2513/1/3 2514/1/3 2515/1/3 2516/1/3
f 2517/1/4 2518/1/4 2519/1/4 2520/1/4
f 2521/1/2 2522/1/2 2523/1/2 2524/1/2
f 2525/1/3 2526/1/3 2527/1/3 2528/1/3
f 2529/1/4 2530/1/4 2531/1/4 2532/1/4
f 2533/1/2 2534/1/2 2535/1/2 2536/1/2
f 2537/1/3 2538/1/3 2539/1/3 2540/1/3
f 2541/1/4 2542/1/4 2543/1/4 2544/1/4
f 2545/1/2 2546/1/2 2547/1/2 2548/1/2
f 2549/1/3 2550/1/3 2551/1/3 2552/1/3
f 2553/1/4 2554/1/4 2555/1/4 2556/1/4
f 2557/1/2 2558/1/2 2559/1/2 2560/1/2
f 2561/1/3 2562/1/3 2563/1/3 2564/1/3
f 2565/1/4 2566/1/4 2567/1/4 2568/1/4
f 2569/1/2 2570/1/2 2571/1/2 2572/1/2
f 2573/1/3 2574/1/3 2575/1/3 2576/1/3
f 2577/1/4 2578/1/4 2579/1/4 2580/1/4
f 2581/1/2 2582/1/2 2583/1/2 2584/1/2
f 2585/1/3 2586/1/3 2587/1/3 2588/1/3
f 2589/1/4 2590/1/4 2591/1/4 2592/1/4
f 2593/1/2 2594/1/2 2595/1/2 2596/1/2
f 2597/1/3 2598/1/3 2599/1/3 2600/1/3
f 2601/1/4 2602/1/4 2603/1/4 2604/1/4
f 2605/1/6 2606/1/6 2607/1/6 2608/1/6

