# generated by vox_to_obj_exporter
# scale=0.1 center=true ground=true y_up=false

mtllib lava_25_15_f2.mtl
usemtl palette

# normals
vn -1 0 0
vn 1 0 0
vn 0 0 1
vn 0 0 -1
vn 0 -1 0
vn 0 1 0

# texcoords
vt 0.001953125 0.5
vt 0.044921875 0.5
vt 0.021484375 0.5
vt 0.068359375 0.5

# verts
v -0.6 -0.45 0.1
v -0.6 -0.45 0
v -0.6 -0.55 0
v -0.6 -0.55 0.1
v -0.6 -0.45 0.1
v -0.6 -0.55 0.1
v -0.5 -0.55 0.1
v -0.5 -0.45 0.1
v -0.6 -0.55 0
v -0.6 -0.45 0
v -0.5 -0.45 0
v -0.5 -0.55 0
v -0.6 -0.55 0.1
v -0.6 -0.55 0
v -0.5 -0.55 0
v -0.5 -0.55 0.1
v -0.6 -0.35 0.1
v -0.6 -0.35 0
v -0.6 -0.45 0
v -0.6 -0.45 0.1
v -0.6 -0.35 0.1
v -0.6 -0.45 0.1
v -0.5 -0.45 0.1
v -0.5 -0.35 0.1
v -0.6 -0.45 0
v -0.6 -0.35 0
v -0.5 -0.35 0
v -0.5 -0.45 0
v -0.6 -0.25 0.1
v -0.6 -0.25 0
v -0.6 -0.35 0
v -0.6 -0.35 0.1
v -0.6 -0.25 0.1
v -0.6 -0.35 0.1
v -0.5 -0.35 0.1
v -0.5 -0.25 0.1
v -0.6 -0.35 0
v -0.6 -0.25 0
v -0.5 -0.25 0
v -0.5 -0.35 0
v -0.6 -0.15 0.1
v -0.6 -0.15 0
v -0.6 -0.25 0
v -0.6 -0.25 0.1
v -0.6 -0.15 0.1
v -0.6 -0.25 0.1
v -0.5 -0.25 0.1
v -0.5 -0.15 0.1
v -0.6 -0.25 0
v -0.6 -0.15 0
v -0.5 -0.15 0
v -0.5 -0.25 0
v -0.6 -0.05 0.1
v -0.6 -0.05 0
v -0.6 -0.15 0
v -0.6 -0.15 0.1
v -0.6 -0.05 0.1
v -0.6 -0.15 0.1
v -0.5 -0.15 0.1
v -0.5 -0.05 0.1
v -0.6 -0.15 0
v -0.6 -0.05 0
v -0.5 -0.05 0
v -0.5 -0.15 0
v -0.6 0.05 0.1
v -0.6 0.05 0
v -0.6 -0.05 0
v -0.6 -0.05 0.1
v -0.6 0.05 0.1
v -0.6 -0.05 0.1
v -0.5 -0.05 0.1
v -0.5 0.05 0.1
v -0.6 -0.05 0
v -0.6 0.05 0
v -0.5 0.05 0
v -0.5 -0.05 0
v -0.6 0.15 0.1
v -0.6 0.15 0
v -0.6 0.05 0
v -0.6 0.05 0.1
v -0.6 0.15 0.1
v -0.6 0.05 0.1
v -0.5 0.05 0.1
v -0.5 0.15 0.1
v -0.6 0.05 0
v -0.6 0.15 0
v -0.5 0.15 0
v -0.5 0.05 0
v -0.6 0.25 0.1
v -0.6 0.25 0
v -0.6 0.15 0
v -0.6 0.15 0.1
v -0.6 0.25 0.1
v -0.6 0.15 0.1
v -0.5 0.15 0.1
v -0.5 0.25 0.1
v -0.6 0.15 0
v -0.6 0.25 0
v -0.5 0.25 0
v -0.5 0.15 0
v -0.6 0.35 0.1
v -0.6 0.35 0
v -0.6 0.25 0
v -0.6 0.25 0.1
v -0.6 0.35 0.1
v -0.6 0.25 0.1
v -0.5 0.25 0.1
v -0.5 0.35 0.1
v -0.6 0.25 0
v -0.6 0.35 0
v -0.5 0.35 0
v -0.5 0.25 0
v -0.6 0.45 0.1
v -0.6 0.45 0
v -0.6 0.35 0
v -0.6 0.35 0.1
v -0.6 0.45 0.1
v -0.6 0.35 0.1
v -0.5 0.35 0.1
v -0.5 0.45 0.1
v -0.6 0.35 0
v -0.6 0.45 0
v -0.5 0.45 0
v -0.5 0.35 0
v -0.6 0.55 0.1
v -0.6 0.55 0
v -0.6 0.45 0
v -0.6 0.45 0.1
v -0.6 0.55 0.1
v -0.6 0.45 0.1
v -0.5 0.45 0.1
v -0.5 0.55 0.1
v -0.6 0.45 0
v -0.6 0.55 0
v -0.5 0.55 0
v -0.5 0.45 0
v -0.5 0.55 0.1
v -0.5 0.55 0
v -0.6 0.55 0
v -0.6 0.55 0.1
v -0.5 -0.45 0.1
v -0.5 -0.55 0.1
v -0.4 -0.55 0.1
v -0.4 -0.45 0.1
v -0.5 -0.55 0
v -0.5 -0.45 0
v -0.4 -0.45 0
v -0.4 -0.55 0
v -0.5 -0.55 0.1
v -0.5 -0.55 0
v -0.4 -0.55 0
v -0.4 -0.55 0.1
v -0.5 -0.35 0.1
v -0.5 -0.45 0.1
v -0.4 -0.45 0.1
v -0.4 -0.35 0.1
v -0.5 -0.45 0
v -0.5 -0.35 0
v -0.4 -0.35 0
v -0.4 -0.45 0
v -0.5 -0.25 0.1
v -0.5 -0.35 0.1
v -0.4 -0.35 0.1
v -0.4 -0.25 0.1
v -0.5 -0.35 0
v -0.5 -0.25 0
v -0.4 -0.25 0
v -0.4 -0.35 0
v -0.5 -0.15 0.1
v -0.5 -0.25 0.1
v -0.4 -0.25 0.1
v -0.4 -0.15 0.1
v -0.5 -0.25 0
v -0.5 -0.15 0
v -0.4 -0.15 0
v -0.4 -0.25 0
v -0.5 -0.05 0.1
v -0.5 -0.15 0.1
v -0.4 -0.15 0.1
v -0.4 -0.05 0.1
v -0.5 -0.15 0
v -0.5 -0.05 0
v -0.4 -0.05 0
v -0.4 -0.15 0
v -0.5 0.05 0.1
v -0.5 -0.05 0.1
v -0.4 -0.05 0.1
v -0.4 0.05 0.1
v -0.5 -0.05 0
v -0.5 0.05 0
v -0.4 0.05 0
v -0.4 -0.05 0
v -0.5 0.15 0.1
v -0.5 0.05 0.1
v -0.4 0.05 0.1
v -0.4 0.15 0.1
v -0.5 0.05 0
v -0.5 0.15 0
v -0.4 0.15 0
v -0.4 0.05 0
v -0.5 0.25 0.1
v -0.5 0.15 0.1
v -0.4 0.15 0.1
v -0.4 0.25 0.1
v -0.5 0.15 0
v -0.5 0.25 0
v -0.4 0.25 0
v -0.4 0.15 0
v -0.5 0.35 0.1
v -0.5 0.25 0.1
v -0.4 0.25 0.1
v -0.4 0.35 0.1
v -0.5 0.25 0
v -0.5 0.35 0
v -0.4 0.35 0
v -0.4 0.25 0
v -0.5 0.45 0.1
v -0.5 0.35 0.1
v -0.4 0.35 0.1
v -0.4 0.45 0.1
v -0.5 0.35 0
v -0.5 0.45 0
v -0.4 0.45 0
v -0.4 0.35 0
v -0.5 0.55 0.1
v -0.5 0.45 0.1
v -0.4 0.45 0.1
v -0.4 0.55 0.1
v -0.5 0.45 0
v -0.5 0.55 0
v -0.4 0.55 0
v -0.4 0.45 0
v -0.4 0.55 0.1
v -0.4 0.55 0
v -0.5 0.55 0
v -0.5 0.55 0.1
v -0.4 -0.45 0.1
v -0.4 -0.55 0.1
v -0.3 -0.55 0.1
v -0.3 -0.45 0.1
v -0.4 -0.55 0
v -0.4 -0.45 0
v -0.3 -0.45 0
v -0.3 -0.55 0
v -0.4 -0.55 0.1
v -0.4 -0.55 0
v -0.3 -0.55 0
v -0.3 -0.55 0.1
v -0.4 -0.35 0.1
v -0.4 -0.45 0.1
v -0.3 -0.45 0.1
v -0.3 -0.35 0.1
v -0.4 -0.45 0
v -0.4 -0.35 0
v -0.3 -0.35 0
v -0.3 -0.45 0
v -0.4 -0.25 0.1
v -0.4 -0.35 0.1
v -0.3 -0.35 0.1
v -0.3 -0.25 0.1
v -0.4 -0.35 0
v -0.4 -0.25 0
v -0.3 -0.25 0
v -0.3 -0.35 0
v -0.4 -0.15 0.1
v -0.4 -0.25 0.1
v -0.3 -0.25 0.1
v -0.3 -0.15 0.1
v -0.4 -0.25 0
v -0.4 -0.15 0
v -0.3 -0.15 0
v -0.3 -0.25 0
v -0.4 -0.05 0.1
v -0.4 -0.15 0.1
v -0.3 -0.15 0.1
v -0.3 -0.05 0.1
v -0.4 -0.15 0
v -0.4 -0.05 0
v -0.3 -0.05 0
v -0.3 -0.15 0
v -0.4 0.05 0.1
v -0.4 -0.05 0.1
v -0.3 -0.05 0.1
v -0.3 0.05 0.1
v -0.4 -0.05 0
v -0.4 0.05 0
v -0.3 0.05 0
v -0.3 -0.05 0
v -0.4 0.15 0.1
v -0.4 0.05 0.1
v -0.3 0.05 0.1
v -0.3 0.15 0.1
v -0.4 0.05 0
v -0.4 0.15 0
v -0.3 0.15 0
v -0.3 0.05 0
v -0.4 0.25 0.1
v -0.4 0.15 0.1
v -0.3 0.15 0.1
v -0.3 0.25 0.1
v -0.4 0.15 0
v -0.4 0.25 0
v -0.3 0.25 0
v -0.3 0.15 0
v -0.4 0.35 0.1
v -0.4 0.25 0.1
v -0.3 0.25 0.1
v -0.3 0.35 0.1
v -0.4 0.25 0
v -0.4 0.35 0
v -0.3 0.35 0
v -0.3 0.25 0
v -0.4 0.45 0.1
v -0.4 0.35 0.1
v -0.3 0.35 0.1
v -0.3 0.45 0.1
v -0.4 0.35 0
v -0.4 0.45 0
v -0.3 0.45 0
v -0.3 0.35 0
v -0.4 0.55 0.1
v -0.4 0.45 0.1
v -0.3 0.45 0.1
v -0.3 0.55 0.1
v -0.4 0.45 0
v -0.4 0.55 0
v -0.3 0.55 0
v -0.3 0.45 0
v -0.3 0.55 0.1
v -0.3 0.55 0
v -0.4 0.55 0
v -0.4 0.55 0.1
v -0.3 -0.45 0.1
v -0.3 -0.55 0.1
v -0.2 -0.55 0.1
v -0.2 -0.45 0.1
v -0.3 -0.55 0
v -0.3 -0.45 0
v -0.2 -0.45 0
v -0.2 -0.55 0
v -0.3 -0.55 0.1
v -0.3 -0.55 0
v -0.2 -0.55 0
v -0.2 -0.55 0.1
v -0.3 -0.35 0.1
v -0.3 -0.45 0.1
v -0.2 -0.45 0.1
v -0.2 -0.35 0.1
v -0.3 -0.45 0
v -0.3 -0.35 0
v -0.2 -0.35 0
v -0.2 -0.45 0
v -0.3 -0.25 0.1
v -0.3 -0.35 0.1
v -0.2 -0.35 0.1
v -0.2 -0.25 0.1
v -0.3 -0.35 0
v -0.3 -0.25 0
v -0.2 -0.25 0
v -0.2 -0.35 0
v -0.3 -0.15 0.1
v -0.3 -0.25 0.1
v -0.2 -0.25 0.1
v -0.2 -0.15 0.1
v -0.3 -0.25 0
v -0.3 -0.15 0
v -0.2 -0.15 0
v -0.2 -0.25 0
v -0.3 -0.05 0.1
v -0.3 -0.15 0.1
v -0.2 -0.15 0.1
v -0.2 -0.05 0.1
v -0.3 -0.15 0
v -0.3 -0.05 0
v -0.2 -0.05 0
v -0.2 -0.15 0
v -0.3 0.05 0.1
v -0.3 -0.05 0.1
v -0.2 -0.05 0.1
v -0.2 0.05 0.1
v -0.3 -0.05 0
v -0.3 0.05 0
v -0.2 0.05 0
v -0.2 -0.05 0
v -0.3 0.15 0.1
v -0.3 0.05 0.1
v -0.2 0.05 0.1
v -0.2 0.15 0.1
v -0.3 0.05 0
v -0.3 0.15 0
v -0.2 0.15 0
v -0.2 0.05 0
v -0.3 0.25 0.1
v -0.3 0.15 0.1
v -0.2 0.15 0.1
v -0.2 0.25 0.1
v -0.3 0.15 0
v -0.3 0.25 0
v -0.2 0.25 0
v -0.2 0.15 0
v -0.3 0.35 0.1
v -0.3 0.25 0.1
v -0.2 0.25 0.1
v -0.2 0.35 0.1
v -0.3 0.25 0
v -0.3 0.35 0
v -0.2 0.35 0
v -0.2 0.25 0
v -0.3 0.45 0.1
v -0.3 0.35 0.1
v -0.2 0.35 0.1
v -0.2 0.45 0.1
v -0.3 0.35 0
v -0.3 0.45 0
v -0.2 0.45 0
v -0.2 0.35 0
v -0.3 0.55 0.1
v -0.3 0.45 0.1
v -0.2 0.45 0.1
v -0.2 0.55 0.1
v -0.3 0.45 0
v -0.3 0.55 0
v -0.2 0.55 0
v -0.2 0.45 0
v -0.2 0.55 0.1
v -0.2 0.55 0
v -0.3 0.55 0
v -0.3 0.55 0.1
v -0.1 -0.55 0.1
v -0.1 -0.55 0
v -0.1 -0.45 0
v -0.1 -0.45 0.1
v -0.2 -0.45 0.1
v -0.2 -0.55 0.1
v -0.1 -0.55 0.1
v -0.1 -0.45 0.1
v -0.2 -0.55 0
v -0.2 -0.45 0
v -0.1 -0.45 0
v -0.1 -0.55 0
v -0.2 -0.55 0.1
v -0.2 -0.55 0
v -0.1 -0.55 0
v -0.1 -0.55 0.1
v -0.2 -0.35 0.1
v -0.2 -0.45 0.1
v -0.1 -0.45 0.1
v -0.1 -0.35 0.1
v -0.2 -0.45 0
v -0.2 -0.35 0
v -0.1 -0.35 0
v -0.1 -0.45 0
v -0.2 -0.25 0.1
v -0.2 -0.35 0.1
v -0.1 -0.35 0.1
v -0.1 -0.25 0.1
v -0.2 -0.35 0
v -0.2 -0.25 0
v -0.1 -0.25 0
v -0.1 -0.35 0
v -0.2 -0.15 0.1
v -0.2 -0.25 0.1
v -0.1 -0.25 0.1
v -0.1 -0.15 0.1
v -0.2 -0.25 0
v -0.2 -0.15 0
v -0.1 -0.15 0
v -0.1 -0.25 0
v -0.2 -0.05 0.1
v -0.2 -0.15 0.1
v -0.1 -0.15 0.1
v -0.1 -0.05 0.1
v -0.2 -0.15 0
v -0.2 -0.05 0
v -0.1 -0.05 0
v -0.1 -0.15 0
v -0.2 0.05 0.1
v -0.2 -0.05 0.1
v -0.1 -0.05 0.1
v -0.1 0.05 0.1
v -0.2 -0.05 0
v -0.2 0.05 0
v -0.1 0.05 0
v -0.1 -0.05 0
v -0.2 0.15 0.1
v -0.2 0.05 0.1
v -0.1 0.05 0.1
v -0.1 0.15 0.1
v -0.2 0.05 0
v -0.2 0.15 0
v -0.1 0.15 0
v -0.1 0.05 0
v -0.2 0.25 0.1
v -0.2 0.15 0.1
v -0.1 0.15 0.1
v -0.1 0.25 0.1
v -0.2 0.15 0
v -0.2 0.25 0
v -0.1 0.25 0
v -0.1 0.15 0
v -0.2 0.35 0.1
v -0.2 0.25 0.1
v -0.1 0.25 0.1
v -0.1 0.35 0.1
v -0.2 0.25 0
v -0.2 0.35 0
v -0.1 0.35 0
v -0.1 0.25 0
v -0.2 0.45 0.1
v -0.2 0.35 0.1
v -0.1 0.35 0.1
v -0.1 0.45 0.1
v -0.2 0.35 0
v -0.2 0.45 0
v -0.1 0.45 0
v -0.1 0.35 0
v -0.2 0.55 0.1
v -0.2 0.45 0.1
v -0.1 0.45 0.1
v -0.1 0.55 0.1
v -0.2 0.45 0
v -0.2 0.55 0
v -0.1 0.55 0
v -0.1 0.45 0
v -0.1 0.55 0.1
v -0.1 0.55 0
v -0.2 0.55 0
v -0.2 0.55 0.1
v 0 -0.45 0.1
v 0 -0.45 0
v 0 -0.35 0
v 0 -0.35 0.1
v -0.1 -0.35 0.1
v -0.1 -0.45 0.1
v 0 -0.45 0.1
v 0 -0.35 0.1
v -0.1 -0.45 0
v -0.1 -0.35 0
v 0 -0.35 0
v 0 -0.45 0
v -0.1 -0.45 0.1
v -0.1 -0.45 0
v 0 -0.45 0
v 0 -0.45 0.1
v -0.1 -0.25 0.1
v -0.1 -0.35 0.1
v 0 -0.35 0.1
v 0 -0.25 0.1
v -0.1 -0.35 0
v -0.1 -0.25 0
v 0 -0.25 0
v 0 -0.35 0
v -0.1 -0.15 0.1
v -0.1 -0.25 0.1
v 0 -0.25 0.1
v 0 -0.15 0.1
v -0.1 -0.25 0
v -0.1 -0.15 0
v 0 -0.15 0
v 0 -0.25 0
v -0.1 -0.05 0.1
v -0.1 -0.15 0.1
v 0 -0.15 0.1
v 0 -0.05 0.1
v -0.1 -0.15 0
v -0.1 -0.05 0
v 0 -0.05 0
v 0 -0.15 0
v -0.1 0.05 0.1
v -0.1 -0.05 0.1
v 0 -0.05 0.1
v 0 0.05 0.1
v -0.1 -0.05 0
v -0.1 0.05 0
v 0 0.05 0
v 0 -0.05 0
v -0.1 0.15 0.1
v -0.1 0.05 0.1
v 0 0.05 0.1
v 0 0.15 0.1
v -0.1 0.05 0
v -0.1 0.15 0
v 0 0.15 0
v 0 0.05 0
v -0.1 0.25 0.1
v -0.1 0.15 0.1
v 0 0.15 0.1
v 0 0.25 0.1
v -0.1 0.15 0
v -0.1 0.25 0
v 0 0.25 0
v 0 0.15 0
v -0.1 0.35 0.1
v -0.1 0.25 0.1
v 0 0.25 0.1
v 0 0.35 0.1
v -0.1 0.25 0
v -0.1 0.35 0
v 0 0.35 0
v 0 0.25 0
v -0.1 0.45 0.1
v -0.1 0.35 0.1
v 0 0.35 0.1
v 0 0.45 0.1
v -0.1 0.35 0
v -0.1 0.45 0
v 0 0.45 0
v 0 0.35 0
v -0.1 0.55 0.1
v -0.1 0.45 0.1
v 0 0.45 0.1
v 0 0.55 0.1
v -0.1 0.45 0
v -0.1 0.55 0
v 0 0.55 0
v 0 0.45 0
v 0 0.55 0.1
v 0 0.55 0
v -0.1 0.55 0
v -0.1 0.55 0.1
v 0.1 -0.35 0.1
v 0.1 -0.35 0
v 0.1 -0.25 0
v 0.1 -0.25 0.1
v 0 -0.25 0.1
v 0 -0.35 0.1
v 0.1 -0.35 0.1
v 0.1 -0.25 0.1
v 0 -0.35 0
v 0 -0.25 0
v 0.1 -0.25 0
v 0.1 -0.35 0
v 0 -0.35 0.1
v 0 -0.35 0
v 0.1 -0.35 0
v 0.1 -0.35 0.1
v 0 -0.15 0.1
v 0 -0.25 0.1
v 0.1 -0.25 0.1
v 0.1 -0.15 0.1
v 0 -0.25 0
v 0 -0.15 0
v 0.1 -0.15 0
v 0.1 -0.25 0
v 0 -0.05 0.1
v 0 -0.15 0.1
v 0.1 -0.15 0.1
v 0.1 -0.05 0.1
v 0 -0.15 0
v 0 -0.05 0
v 0.1 -0.05 0
v 0.1 -0.15 0
v 0 0.05 0.1
v 0 -0.05 0.1
v 0.1 -0.05 0.1
v 0.1 0.05 0.1
v 0 -0.05 0
v 0 0.05 0
v 0.1 0.05 0
v 0.1 -0.05 0
v 0 0.15 0.1
v 0 0.05 0.1
v 0.1 0.05 0.1
v 0.1 0.15 0.1
v 0 0.05 0
v 0 0.15 0
v 0.1 0.15 0
v 0.1 0.05 0
v 0 0.25 0.1
v 0 0.15 0.1
v 0.1 0.15 0.1
v 0.1 0.25 0.1
v 0 0.15 0
v 0 0.25 0
v 0.1 0.25 0
v 0.1 0.15 0
v 0 0.35 0.1
v 0 0.25 0.1
v 0.1 0.25 0.1
v 0.1 0.35 0.1
v 0 0.25 0
v 0 0.35 0
v 0.1 0.35 0
v 0.1 0.25 0
v 0 0.45 0.1
v 0 0.35 0.1
v 0.1 0.35 0.1
v 0.1 0.45 0.1
v 0 0.35 0
v 0 0.45 0
v 0.1 0.45 0
v 0.1 0.35 0
v 0 0.55 0.1
v 0 0.45 0.1
v 0.1 0.45 0.1
v 0.1 0.55 0.1
v 0 0.45 0
v 0 0.55 0
v 0.1 0.55 0
v 0.1 0.45 0
v 0.1 0.55 0.1
v 0.1 0.55 0
v 0 0.55 0
v 0 0.55 0.1
v 0.2 -0.25 0.1
v 0.2 -0.25 0
v 0.2 -0.15 0
v 0.2 -0.15 0.1
v 0.1 -0.15 0.1
v 0.1 -0.25 0.1
v 0.2 -0.25 0.1
v 0.2 -0.15 0.1
v 0.1 -0.25 0
v 0.1 -0.15 0
v 0.2 -0.15 0
v 0.2 -0.25 0
v 0.1 -0.25 0.1
v 0.1 -0.25 0
v 0.2 -0.25 0
v 0.2 -0.25 0.1
v 0.1 -0.05 0.1
v 0.1 -0.15 0.1
v 0.2 -0.15 0.1
v 0.2 -0.05 0.1
v 0.1 -0.15 0
v 0.1 -0.05 0
v 0.2 -0.05 0
v 0.2 -0.15 0
v 0.1 0.05 0.1
v 0.1 -0.05 0.1
v 0.2 -0.05 0.1
v 0.2 0.05 0.1
v 0.1 -0.05 0
v 0.1 0.05 0
v 0.2 0.05 0
v 0.2 -0.05 0
v 0.1 0.15 0.1
v 0.1 0.05 0.1
v 0.2 0.05 0.1
v 0.2 0.15 0.1
v 0.1 0.05 0
v 0.1 0.15 0
v 0.2 0.15 0
v 0.2 0.05 0
v 0.1 0.25 0.1
v 0.1 0.15 0.1
v 0.2 0.15 0.1
v 0.2 0.25 0.1
v 0.1 0.15 0
v 0.1 0.25 0
v 0.2 0.25 0
v 0.2 0.15 0
v 0.1 0.35 0.1
v 0.1 0.25 0.1
v 0.2 0.25 0.1
v 0.2 0.35 0.1
v 0.1 0.25 0
v 0.1 0.35 0
v 0.2 0.35 0
v 0.2 0.25 0
v 0.1 0.45 0.1
v 0.1 0.35 0.1
v 0.2 0.35 0.1
v 0.2 0.45 0.1
v 0.1 0.35 0
v 0.1 0.45 0
v 0.2 0.45 0
v 0.2 0.35 0
v 0.1 0.55 0.1
v 0.1 0.45 0.1
v 0.2 0.45 0.1
v 0.2 0.55 0.1
v 0.1 0.45 0
v 0.1 0.55 0
v 0.2 0.55 0
v 0.2 0.45 0
v 0.2 0.55 0.1
v 0.2 0.55 0
v 0.1 0.55 0
v 0.1 0.55 0.1
v 0.3 -0.15 0.1
v 0.3 -0.15 0
v 0.3 -0.05 0
v 0.3 -0.05 0.1
v 0.2 -0.05 0.1
v 0.2 -0.15 0.1
v 0.3 -0.15 0.1
v 0.3 -0.05 0.1
v 0.2 -0.15 0
v 0.2 -0.05 0
v 0.3 -0.05 0
v 0.3 -0.15 0
v 0.2 -0.15 0.1
v 0.2 -0.15 0
v 0.3 -0.15 0
v 0.3 -0.15 0.1
v 0.2 0.05 0.1
v 0.2 -0.05 0.1
v 0.3 -0.05 0.1
v 0.3 0.05 0.1
v 0.2 -0.05 0
v 0.2 0.05 0
v 0.3 0.05 0
v 0.3 -0.05 0
v 0.2 0.15 0.1
v 0.2 0.05 0.1
v 0.3 0.05 0.1
v 0.3 0.15 0.1
v 0.2 0.05 0
v 0.2 0.15 0
v 0.3 0.15 0
v 0.3 0.05 0
v 0.2 0.25 0.1
v 0.2 0.15 0.1
v 0.3 0.15 0.1
v 0.3 0.25 0.1
v 0.2 0.15 0
v 0.2 0.25 0
v 0.3 0.25 0
v 0.3 0.15 0
v 0.2 0.35 0.1
v 0.2 0.25 0.1
v 0.3 0.25 0.1
v 0.3 0.35 0.1
v 0.2 0.25 0
v 0.2 0.35 0
v 0.3 0.35 0
v 0.3 0.25 0
v 0.2 0.45 0.1
v 0.2 0.35 0.1
v 0.3 0.35 0.1
v 0.3 0.45 0.1
v 0.2 0.35 0
v 0.2 0.45 0
v 0.3 0.45 0
v 0.3 0.35 0
v 0.2 0.55 0.1
v 0.2 0.45 0.1
v 0.3 0.45 0.1
v 0.3 0.55 0.1
v 0.2 0.45 0
v 0.2 0.55 0
v 0.3 0.55 0
v 0.3 0.45 0
v 0.3 0.55 0.1
v 0.3 0.55 0
v 0.2 0.55 0
v 0.2 0.55 0.1
v 0.4 -0.05 0.1
v 0.4 -0.05 0
v 0.4 0.05 0
v 0.4 0.05 0.1
v 0.3 0.05 0.1
v 0.3 -0.05 0.1
v 0.4 -0.05 0.1
v 0.4 0.05 0.1
v 0.3 -0.05 0
v 0.3 0.05 0
v 0.4 0.05 0
v 0.4 -0.05 0
v 0.3 -0.05 0.1
v 0.3 -0.05 0
v 0.4 -0.05 0
v 0.4 -0.05 0.1
v 0.4 0.05 0.1
v 0.4 0.05 0
v 0.4 0.15 0
v 0.4 0.15 0.1
v 0.3 0.15 0.1
v 0.3 0.05 0.1
v 0.4 0.05 0.1
v 0.4 0.15 0.1
v 0.3 0.05 0
v 0.3 0.15 0
v 0.4 0.15 0
v 0.4 0.05 0
v 0.3 0.25 0.1
v 0.3 0.15 0.1
v 0.4 0.15 0.1
v 0.4 0.25 0.1
v 0.3 0.15 0
v 0.3 0.25 0
v 0.4 0.25 0
v 0.4 0.15 0
v 0.3 0.35 0.1
v 0.3 0.25 0.1
v 0.4 0.25 0.1
v 0.4 0.35 0.1
v 0.3 0.25 0
v 0.3 0.35 0
v 0.4 0.35 0
v 0.4 0.25 0
v 0.3 0.45 0.1
v 0.3 0.35 0.1
v 0.4 0.35 0.1
v 0.4 0.45 0.1
v 0.3 0.35 0
v 0.3 0.45 0
v 0.4 0.45 0
v 0.4 0.35 0
v 0.3 0.55 0.1
v 0.3 0.45 0.1
v 0.4 0.45 0.1
v 0.4 0.55 0.1
v 0.3 0.45 0
v 0.3 0.55 0
v 0.4 0.55 0
v 0.4 0.45 0
v 0.4 0.55 0.1
v 0.4 0.55 0
v 0.3 0.55 0
v 0.3 0.55 0.1
v 0.5 0.15 0.1
v 0.5 0.15 0
v 0.5 0.25 0
v 0.5 0.25 0.1
v 0.4 0.25 0.1
v 0.4 0.15 0.1
v 0.5 0.15 0.1
v 0.5 0.25 0.1
v 0.4 0.15 0
v 0.4 0.25 0
v 0.5 0.25 0
v 0.5 0.15 0
v 0.4 0.15 0.1
v 0.4 0.15 0
v 0.5 0.15 0
v 0.5 0.15 0.1
v 0.5 0.25 0.1
v 0.5 0.25 0
v 0.5 0.35 0
v 0.5 0.35 0.1
v 0.4 0.35 0.1
v 0.4 0.25 0.1
v 0.5 0.25 0.1
v 0.5 0.35 0.1
v 0.4 0.25 0
v 0.4 0.35 0
v 0.5 0.35 0
v 0.5 0.25 0
v 0.4 0.45 0.1
v 0.4 0.35 0.1
v 0.5 0.35 0.1
v 0.5 0.45 0.1
v 0.4 0.35 0
v 0.4 0.45 0
v 0.5 0.45 0
v 0.5 0.35 0
v 0.4 0.55 0.1
v 0.4 0.45 0.1
v 0.5 0.45 0.1
v 0.5 0.55 0.1
v 0.4 0.45 0
v 0.4 0.55 0
v 0.5 0.55 0
v 0.5 0.45 0
v 0.5 0.55 0.1
v 0.5 0.55 0
v 0.4 0.55 0
v 0.4 0.55 0.1
v 0.6 0.35 0.1
v 0.6 0.35 0
v 0.6 0.45 0
v 0.6 0.45 0.1
v 0.5 0.45 0.1
v 0.5 0.35 0.1
v 0.6 0.35 0.1
v 0.6 0.45 0.1
v 0.5 0.35 0
v 0.5 0.45 0
v 0.6 0.45 0
v 0.6 0.35 0
v 0.5 0.35 0.1
v 0.5 0.35 0
v 0.6 0.35 0
v 0.6 0.35 0.1
v 0.6 0.45 0.1
v 0.6 0.45 0
v 0.6 0.55 0
v 0.6 0.55 0.1
v 0.5 0.55 0.1
v 0.5 0.45 0.1
v 0.6 0.45 0.1
v 0.6 0.55 0.1
v 0.5 0.45 0
v 0.5 0.55 0
v 0.6 0.55 0
v 0.6 0.45 0
v 0.6 0.55 0.1
v 0.6 0.55 0
v 0.5 0.55 0
v 0.5 0.55 0.1

# faces
f 1/1/1 2/1/1 3/1/1 4/1/1
f 5/1/3 6/1/3 7/1/3 8/1/3
f 9/1/4 10/1/4 11/1/4 12/1/4
f 13/1/5 14/1/5 15/1/5 16/1/5
f 17/1/1 18/1/1 19/1/1 20/1/1
f 21/1/3 22/1/3 23/1/3 24/1/3
f 25/1/4 26/1/4 27/1/4 28/1/4
f 29/2/1 30/2/1 31/2/1 32/2/1
f 33/2/3 34/2/3 35/2/3 36/2/3
f 37/2/4 38/2/4 39/2/4 40/2/4
f 41/4/1 42/4/1 43/4/1 44/4/1
f 45/4/3 46/4/3 47/4/3 48/4/3
f 49/4/4 50/4/4 51/4/4 52/4/4
f 53/4/1 54/4/1 55/4/1 56/4/1
f 57/4/3 58/4/3 59/4/3 60/4/3
f 61/4/4 62/4/4 63/4/4 64/4/4
f 65/2/1 66/2/1 67/2/1 68/2/1
f 69/2/3 70/2/3 71/2/3 72/2/3
f 73/2/4 74/2/4 75/2/4 76/2/4
f 77/3/1 78/3/1 79/3/1 80/3/1
f 81/3/3 82/3/3 83/3/3 84/3/3
f 85/3/4 86/3/4 87/3/4 88/3/4
f 89/3/1 90/3/1 91/3/1 92/3/1
f 93/3/3 94/3/3 95/3/3 96/3/3
f 97/3/4 98/3/4 99/3/4 100/3/4
f 101/1/1 102/1/1 103/1/1 104/1/1
f 105/1/3 106/1/3 107/1/3 108/1/3
f 109/1/4 110/1/4 111/1/4 112/1/4
f 113/1/1 114/1/1 115/1/1 116/1/1
f 117/1/3 118/1/3 119/1/3 120/1/3
f 121/1/4 122/1/4 123/1/4 124/1/4
f 125/1/1 126/1/1 127/1/1 128/1/1
f 129/1/3 130/1/3 131/1/3 132/1/3
f 133/1/4 134/1/4 135/1/4 136/1/4
f 137/1/6 138/1/6 139/1/6 140/1/6
f 141/1/3 142/1/3 143/1/3 144/1/3
f 145/1/4 146/1/4 147/1/4 148/1/4
f 149/1/5 150/1/5 151/1/5 152/1/5
f 153/3/3 154/3/3 155/3/3 156/3/3
f 157/3/4 158/3/4 159/3/4 160/3/4
f 161/4/3 162/4/3 163/4/3 164/4/3
f 165/4/4 166/4/4 167/4/4 168/4/4
f 169/4/3 170/4/3 171/4/3 172/4/3
f 173/4/4 174/4/4 175/4/4 176/4/4
f 177/4/3 178/4/3 179/4/3 180/4/3
f 181/4/4 182/4/4 183/4/4 184/4/4
f 185/2/3 186/2/3 187/2/3 188/2/3
f 189/2/4 190/2/4 191/2/4 192/2/4
f 193/2/3 194/2/3 195/2/3 196/2/3
f 197/2/4 198/2/4 199/2/4 200/2/4
f 201/3/3 202/3/3 203/3/3 204/3/3
f 205/3/4 206/3/4 207/3/4 208/3/4
f 209/1/3 210/1/3 211/1/3 212/1/3
f 213/1/4 214/1/4 215/1/4 216/1/4
f 217/1/3 218/1/3 219/1/3 220/1/3
f 221/1/4 222/1/4 223/1/4 224/1/4
f 225/1/3 226/1/3 227/1/3 228/1/3
f 229/1/4 230/1/4 231/1/4 232/1/4
f 233/1/6 234/1/6 235/1/6 236/1/6
f 237/3/3 238/3/3 239/3/3 240/3/3
f 241/3/4 242/3/4 243/3/4 244/3/4
f 245/3/5 246/3/5 247/3/5 248/3/5
f 249/2/3 250/2/3 251/2/3 252/2/3
f 253/2/4 254/2/4 255/2/4 256/2/4
f 257/2/3 258/2/3 259/2/3 260/2/3
f 261/2/4 262/2/4 263/2/4 264/2/4
f 265/2/3 266/2/3 267/2/3 268/2/3
f 269/2/4 270/2/4 271/2/4 272/2/4
f 273/2/3 274/2/3 275/2/3 276/2/3
f 277/2/4 278/2/4 279/2/4 280/2/4
f 281/2/3 282/2/3 283/2/3 284/2/3
f 285/2/4 286/2/4 287/2/4 288/2/4
f 289/2/3 290/2/3 291/2/3 292/2/3
f 293/2/4 294/2/4 295/2/4 296/2/4
f 297/3/3 298/3/3 299/3/3 300/3/3
f 301/3/4 302/3/4 303/3/4 304/3/4
f 305/1/3 306/1/3 307/1/3 308/1/3
f 309/1/4 310/1/4 311/1/4 312/1/4
f 313/1/3 314/1/3 315/1/3 316/1/3
f 317/1/4 318/1/4 319/1/4 320/1/4
f 321/1/3 322/1/3 323/1/3 324/1/3
f 325/1/4 326/1/4 327/1/4 328/1/4
f 329/1/6 330/1/6 331/1/6 332/1/6
f 333/3/3 334/3/3 335/3/3 336/3/3
f 337/3/4 338/3/4 339/3/4 340/3/4
f 341/3/5 342/3/5 343/3/5 344/3/5
f 345/3/3 346/3/3 347/3/3 348/3/3
f 349/3/4 350/3/4 351/3/4 352/3/4
f 353/3/3 354/3/3 355/3/3 356/3/3
f 357/3/4 358/3/4 359/3/4 360/3/4
f 361/3/3 362/3/3 363/3/3 364/3/3
f 365/3/4 366/3/4 367/3/4 368/3/4
f 369/2/3 370/2/3 371/2/3 372/2/3
f 373/2/4 374/2/4 375/2/4 376/2/4
f 377/2/3 378/2/3 379/2/3 380/2/3
f 381/2/4 382/2/4 383/2/4 384/2/4
f 385/2/3 386/2/3 387/2/3 388/2/3
f 389/2/4 390/2/4 391/2/4 392/2/4
f 393/1/3 394/1/3 395/1/3 396/1/3
f 397/1/4 398/1/4 399/1/4 400/1/4
f 401/1/3 402/1/3 403/1/3 404/1/3
f 405/1/4 406/1/4 407/1/4 408/1/4
f 409/1/3 410/1/3 411/1/3 412/1/3
f 413/1/4 414/1/4 415/1/4 416/1/4
f 417/1/3 418/1/3 419/1/3 420/1/3
f 421/1/4 422/1/4 423/1/4 424/1/4
f 425/1/6 426/1/6 427/1/6 428/1/6
f 429/3/2 430/3/2 431/3/2 432/3/2
f 433/3/3 434/3/3 435/3/3 436/3/3
f 437/3/4 438/3/4 439/3/4 440/3/4
f 441/3/5 442/3/5 443/3/5 444/3/5
f 445/1/3 446/1/3 447/1/3 448/1/3
f 449/1/4 450/1/4 451/1/4 452/1/4
f 453/1/3 454/1/3 455/1/3 456/1/3
f 457/1/4 458/1/4 459/1/4 460/1/4
f 461/1/3 462/1/3 463/1/3 464/1/3
f 465/1/4 466/1/4 467/1/4 468/1/4
f 469/2/3 470/2/3 471/2/3 472/2/3
f 473/2/4 474/2/4 475/2/4 476/2/4
f 477/2/3 478/2/3 479/2/3 480/2/3
f 481/2/4 482/2/4 483/2/4 484/2/4
f 485/3/3 486/3/3 487/3/3 488/3/3
f 489/3/4 490/3/4 491/3/4 492/3/4
f 493/1/3 494/1/3 495/1/3 496/1/3
f 497/1/4 498/1/4 499/1/4 500/1/4
f 501/1/3 502/1/3 503/1/3 504/1/3
f 505/1/4 506/1/4 507/1/4 508/1/4
f 509/1/3 510/1/3 511/1/3 512/1/3
f 513/1/4 514/1/4 515/1/4 516/1/4
f 517/1/3 518/1/3 519/1/3 520/1/3
f 521/1/4 522/1/4 523/1/4 524/1/4
f 525/1/6 526/1/6 527/1/6 528/1/6
f 529/1/2 530/1/2 531/1/2 532/1/2
f 533/1/3 534/1/3 535/1/3 536/1/3
f 537/1/4 538/1/4 539/1/4 540/1/4
f 541/1/5 542/1/5 543/1/5 544/1/5
f 545/1/3 546/1/3 547/1/3 548/1/3
f 549/1/4 550/1/4 551/1/4 552/1/4
f 553/1/3 554/1/3 555/1/3 556/1/3
f 557/1/4 558/1/4 559/1/4 560/1/4
f 561/3/3 562/3/3 563/3/3 564/3/3
f 565/3/4 566/3/4 567/3/4 568/3/4
f 569/3/3 570/3/3 571/3/3 572/3/3
f 573/3/4 574/3/4 575/3/4 576/3/4
f 577/1/3 578/1/3 579/1/3 580/1/3
f 581/1/4 582/1/4 583/1/4 584/1/4
f 585/1/3 586/1/3 587/1/3 588/1/3
f 589/1/4 590/1/4 591/1/4 592/1/4
f 593/1/3 594/1/3 595/1/3 596/1/3
f 597/1/4 598/1/4 599/1/4 600/1/4
f 601/1/3 602/1/3 603/1/3 604/1/3
f 605/1/4 606/1/4 607/1/4 608/1/4
f 609/1/3 610/1/3 611/1/3 612/1/3
f 613/1/4 614/1/4 615/1/4 616/1/4
f 617/1/6 618/1/6 619/1/6 620/1/6
f 621/1/2 622/1/2 623/1/2 624/1/2
f 625/1/3 626/1/3 627/1/3 628/1/3
f 629/1/4 630/1/4 631/1/4 632/1/4
f 633/1/5 634/1/5 635/1/5 636/1/5
f 637/1/3 638/1/3 639/1/3 640/1/3
f 641/1/4 642/1/4 643/1/4 644/1/4
f 645/1/3 646/1/3 647/1/3 648/1/3
f 649/1/4 650/1/4 651/1/4 652/1/4
f 653/1/3 654/1/3 655/1/3 656/1/3
f 657/1/4 658/1/4 659/1/4 660/1/4
f 661/1/3 662/1/3 663/1/3 664/1/3
f 665/1/4 666/1/4 667/1/4 668/1/4
f 669/1/3 670/1/3 671/1/3 672/1/3
f 673/1/4 674/1/4 675/1/4 676/1/4
f 677/1/3 678/1/3 679/1/3 680/1/3
f 681/1/4 682/1/4 683/1/4 684/1/4
f 685/1/3 686/1/3 687/1/3 688/1/3
f 689/1/4 690/1/4 691/1/4 692/1/4
f 693/1/3 694/1/3 695/1/3 696/1/3
f 697/1/4 698/1/4 699/1/4 700/1/4
f 701/1/6 702/1/6 703/1/6 704/1/6
f 705/1/2 706/1/2 707/1/2 708/1/2
f 709/1/3 710/1/3 711/1/3 712/1/3
f 713/1/4 714/1/4 715/1/4 716/1/4
f 717/1/5 718/1/5 719/1/5 720/1/5
f 721/1/3 722/1/3 723/1/3 724/1/3
f 725/1/4 726/1/4 727/1/4 728/1/4
f 729/1/3 730/1/3 731/1/3 732/1/3
f 733/1/4 734/1/4 735/1/4 736/1/4
f 737/1/3 738/1/3 739/1/3 740/1/3
f 741/1/4 742/1/4 743/1/4 744/1/4
f 745/1/3 746/1/3 747/1/3 748/1/3
f 749/1/4 750/1/4 751/1/4 752/1/4
f 753/3/3 754/3/3 755/3/3 756/3/3
f 757/3/4 758/3/4 759/3/4 760/3/4
f 761/3/3 762/3/3 763/3/3 764/3/3
f 765/3/4 766/3/4 767/3/4 768/3/4
f 769/3/3 770/3/3 771/3/3 772/3/3
f 773/3/4 774/3/4 775/3/4 776/3/4
f 777/3/6 778/3/6 779/3/6 780/3/6
f 781/1/2 782/1/2 783/1/2 784/1/2
f 785/1/3 786/1/3 787/1/3 788/1/3
f 789/1/4 790/1/4 791/1/4 792/1/4
f 793/1/5 794/1/5 795/1/5 796/1/5
f 797/1/3 798/1/3 799/1/3 800/1/3
f 801/1/4 802/1/4 803/1/4 804/1/4
f 805/1/3 806/1/3 807/1/3 808/1/3
f 809/1/4 810/1/4 811/1/4 812/1/4
f 813/2/3 814/2/3 815/2/3 816/2/3
f 817/2/4 818/2/4 819/2/4 820/2/4
f 821/4/3 822/4/3 823/4/3 824/4/3
f 825/4/4 826/4/4 827/4/4 828/4/4
f 829/4/3 830/4/3 831/4/3 832/4/3
f 833/4/4 834/4/4 835/4/4 836/4/4
f 837/3/3 838/3/3 839/3/3 840/3/3
f 841/3/4 842/3/4 843/3/4 844/3/4
f 845/3/6 846/3/6 847/3/6 848/3/6
f 849/1/2 850/1/2 851/1/2 852/1/2
f 853/1/3 854/1/3 855/1/3 856/1/3
f 857/1/4 858/1/4 859/1/4 860/1/4
f 861/1/5 862/1/5 863/1/5 864/1/5
f 865/2/2 866/2/2 867/2/2 868/2/2
f 869/2/3 870/2/3 871/2/3 872/2/3
f 873/2/4 874/2/4 875/2/4 876/2/4
f 877/4/3 878/4/3 879/4/3 880/4/3
f 881/4/4 882/4/4 883/4/4 884/4/4
f 885/4/3 886/4/3 887/4/3 888/4/3
f 889/4/4 890/4/4 891/4/4 892/4/4
f 893/4/3 894/4/3 895/4/3 896/4/3
f 897/4/4 898/4/4 899/4/4 900/4/4
f 901/3/3 902/3/3 903/3/3 904/3/3
f 905/3/4 906/3/4 907/3/4 908/3/4
f 909/3/6 910/3/6 911/3/6 912/3/6
f 913/4/2 914/4/2 915/4/2 916/4/2
f 917/4/3 918/4/3 919/4/3 920/4/3
f 921/4/4 922/4/4 923/4/4 924/4/4
f 925/4/5 926/4/5 927/4/5 928/4/5
f 929/4/2 930/4/2 931/4/2 932/4/2
f 933/4/3 934/4/3 935/4/3 936/4/3
f 937/4/4 938/4/4 939/4/4 940/4/4
f 941/2/3 942/2/3 943/2/3 944/2/3
f 945/2/4 946/2/4 947/2/4 948/2/4
f 949/3/3 950/3/3 951/3/3 952/3/3
f 953/3/4 954/3/4 955/3/4 956/3/4
f 957/3/6 958/3/6 959/3/6 960/3/6
f 961/2/2 962/2/2 963/2/2 964/2/2
f 965/2/3 966/2/3 967/2/3 968/2/3
f 969/2/4 970/2/4 971/2/4 972/2/4
f 973/2/5 974/2/5 975/2/5 976/2/5
f 977/3/2 978/3/2 979/3/2 980/3/2
f 981/3/3 982/3/3 983/3/3 984/3/3
f 985/3/4 986/3/4 987/3/4 988/3/4
f 989/3/6 990/3/6 991/3/6 992/3/6

