# generated by vox_to_obj_exporter
# scale=0.1 center=true ground=true y_up=false

mtllib lava_25_9_f2.mtl
usemtl palette

# normals
vn -1 0 0
vn 1 0 0
vn 0 0 1
vn 0 0 -1
vn 0 -1 0
vn 0 1 0

# texcoords
vt 0.001953125 0.5
vt 0.044921875 0.5
vt 0.021484375 0.5
vt 0.068359375 0.5

# verts
v -1.2 -1.1 0.1
v -1.2 -1.1 0
v -1.2 -1.2 0
v -1.2 -1.2 0.1
v -1.2 -1.1 0.1
v -1.2 -1.2 0.1
v -1.1 -1.2 0.1
v -1.1 -1.1 0.1
v -1.2 -1.2 0
v -1.2 -1.1 0
v -1.1 -1.1 0
v -1.1 -1.2 0
v -1.2 -1.2 0.1
v -1.2 -1.2 0
v -1.1 -1.2 0
v -1.1 -1.2 0.1
v -1.2 -1 0.1
v -1.2 -1 0
v -1.2 -1.1 0
v -1.2 -1.1 0.1
v -1.2 -1 0.1
v -1.2 -1.1 0.1
v -1.1 -1.1 0.1
v -1.1 -1 0.1
v -1.2 -1.1 0
v -1.2 -1 0
v -1.1 -1 0
v -1.1 -1.1 0
v -1.2 -0.9 0.1
v -1.2 -0.9 0
v -1.2 -1 0
v -1.2 -1 0.1
v -1.2 -0.9 0.1
v -1.2 -1 0.1
v -1.1 -1 0.1
v -1.1 -0.9 0.1
v -1.2 -1 0
v -1.2 -0.9 0
v -1.1 -0.9 0
v -1.1 -1 0
v -1.2 -0.8 0.1
v -1.2 -0.8 0
v -1.2 -0.9 0
v -1.2 -0.9 0.1
v -1.2 -0.8 0.1
v -1.2 -0.9 0.1
v -1.1 -0.9 0.1
v -1.1 -0.8 0.1
v -1.2 -0.9 0
v -1.2 -0.8 0
v -1.1 -0.8 0
v -1.1 -0.9 0
v -1.2 -0.7 0.1
v -1.2 -0.7 0
v -1.2 -0.8 0
v -1.2 -0.8 0.1
v -1.2 -0.7 0.1
v -1.2 -0.8 0.1
v -1.1 -0.8 0.1
v -1.1 -0.7 0.1
v -1.2 -0.8 0
v -1.2 -0.7 0
v -1.1 -0.7 0
v -1.1 -0.8 0
v -1.2 -0.6 0.1
v -1.2 -0.6 0
v -1.2 -0.7 0
v -1.2 -0.7 0.1
v -1.2 -0.6 0.1
v -1.2 -0.7 0.1
v -1.1 -0.7 0.1
v -1.1 -0.6 0.1
v -1.2 -0.7 0
v -1.2 -0.6 0
v -1.1 -0.6 0
v -1.1 -0.7 0
v -1.2 -0.5 0.1
v -1.2 -0.5 0
v -1.2 -0.6 0
v -1.2 -0.6 0.1
v -1.2 -0.5 0.1
v -1.2 -0.6 0.1
v -1.1 -0.6 0.1
v -1.1 -0.5 0.1
v -1.2 -0.6 0
v -1.2 -0.5 0
v -1.1 -0.5 0
v -1.1 -0.6 0
v -1.2 -0.4 0.1
v -1.2 -0.4 0
v -1.2 -0.5 0
v -1.2 -0.5 0.1
v -1.2 -0.4 0.1
v -1.2 -0.5 0.1
v -1.1 -0.5 0.1
v -1.1 -0.4 0.1
v -1.2 -0.5 0
v -1.2 -0.4 0
v -1.1 -0.4 0
v -1.1 -0.5 0
v -1.2 -0.3 0.1
v -1.2 -0.3 0
v -1.2 -0.4 0
v -1.2 -0.4 0.1
v -1.2 -0.3 0.1
v -1.2 -0.4 0.1
v -1.1 -0.4 0.1
v -1.1 -0.3 0.1
v -1.2 -0.4 0
v -1.2 -0.3 0
v -1.1 -0.3 0
v -1.1 -0.4 0
v -1.2 -0.2 0.1
v -1.2 -0.2 0
v -1.2 -0.3 0
v -1.2 -0.3 0.1
v -1.2 -0.2 0.1
v -1.2 -0.3 0.1
v -1.1 -0.3 0.1
v -1.1 -0.2 0.1
v -1.2 -0.3 0
v -1.2 -0.2 0
v -1.1 -0.2 0
v -1.1 -0.3 0
v -1.2 -0.1 0.1
v -1.2 -0.1 0
v -1.2 -0.2 0
v -1.2 -0.2 0.1
v -1.2 -0.1 0.1
v -1.2 -0.2 0.1
v -1.1 -0.2 0.1
v -1.1 -0.1 0.1
v -1.2 -0.2 0
v -1.2 -0.1 0
v -1.1 -0.1 0
v -1.1 -0.2 0
v -1.2 0 0.1
v -1.2 0 0
v -1.2 -0.1 0
v -1.2 -0.1 0.1
v -1.2 0 0.1
v -1.2 -0.1 0.1
v -1.1 -0.1 0.1
v -1.1 0 0.1
v -1.2 -0.1 0
v -1.2 0 0
v -1.1 0 0
v -1.1 -0.1 0
v -1.2 0.1 0.1
v -1.2 0.1 0
v -1.2 0 0
v -1.2 0 0.1
v -1.2 0.1 0.1
v -1.2 0 0.1
v -1.1 0 0.1
v -1.1 0.1 0.1
v -1.2 0 0
v -1.2 0.1 0
v -1.1 0.1 0
v -1.1 0 0
v -1.2 0.2 0.1
v -1.2 0.2 0
v -1.2 0.1 0
v -1.2 0.1 0.1
v -1.2 0.2 0.1
v -1.2 0.1 0.1
v -1.1 0.1 0.1
v -1.1 0.2 0.1
v -1.2 0.1 0
v -1.2 0.2 0
v -1.1 0.2 0
v -1.1 0.1 0
v -1.2 0.3 0.1
v -1.2 0.3 0
v -1.2 0.2 0
v -1.2 0.2 0.1
v -1.2 0.3 0.1
v -1.2 0.2 0.1
v -1.1 0.2 0.1
v -1.1 0.3 0.1
v -1.2 0.2 0
v -1.2 0.3 0
v -1.1 0.3 0
v -1.1 0.2 0
v -1.2 0.4 0.1
v -1.2 0.4 0
v -1.2 0.3 0
v -1.2 0.3 0.1
v -1.2 0.4 0.1
v -1.2 0.3 0.1
v -1.1 0.3 0.1
v -1.1 0.4 0.1
v -1.2 0.3 0
v -1.2 0.4 0
v -1.1 0.4 0
v -1.1 0.3 0
v -1.2 0.5 0.1
v -1.2 0.5 0
v -1.2 0.4 0
v -1.2 0.4 0.1
v -1.2 0.5 0.1
v -1.2 0.4 0.1
v -1.1 0.4 0.1
v -1.1 0.5 0.1
v -1.2 0.4 0
v -1.2 0.5 0
v -1.1 0.5 0
v -1.1 0.4 0
v -1.2 0.6 0.1
v -1.2 0.6 0
v -1.2 0.5 0
v -1.2 0.5 0.1
v -1.2 0.6 0.1
v -1.2 0.5 0.1
v -1.1 0.5 0.1
v -1.1 0.6 0.1
v -1.2 0.5 0
v -1.2 0.6 0
v -1.1 0.6 0
v -1.1 0.5 0
v -1.2 0.7 0.1
v -1.2 0.7 0
v -1.2 0.6 0
v -1.2 0.6 0.1
v -1.2 0.7 0.1
v -1.2 0.6 0.1
v -1.1 0.6 0.1
v -1.1 0.7 0.1
v -1.2 0.6 0
v -1.2 0.7 0
v -1.1 0.7 0
v -1.1 0.6 0
v -1.2 0.8 0.1
v -1.2 0.8 0
v -1.2 0.7 0
v -1.2 0.7 0.1
v -1.2 0.8 0.1
v -1.2 0.7 0.1
v -1.1 0.7 0.1
v -1.1 0.8 0.1
v -1.2 0.7 0
v -1.2 0.8 0
v -1.1 0.8 0
v -1.1 0.7 0
v -1.2 0.9 0.1
v -1.2 0.9 0
v -1.2 0.8 0
v -1.2 0.8 0.1
v -1.2 0.9 0.1
v -1.2 0.8 0.1
v -1.1 0.8 0.1
v -1.1 0.9 0.1
v -1.2 0.8 0
v -1.2 0.9 0
v -1.1 0.9 0
v -1.1 0.8 0
v -1.2 1 0.1
v -1.2 1 0
v -1.2 0.9 0
v -1.2 0.9 0.1
v -1.2 1 0.1
v -1.2 0.9 0.1
v -1.1 0.9 0.1
v -1.1 1 0.1
v -1.2 0.9 0
v -1.2 1 0
v -1.1 1 0
v -1.1 0.9 0
v -1.2 1.1 0.1
v -1.2 1.1 0
v -1.2 1 0
v -1.2 1 0.1
v -1.2 1.1 0.1
v -1.2 1 0.1
v -1.1 1 0.1
v -1.1 1.1 0.1
v -1.2 1 0
v -1.2 1.1 0
v -1.1 1.1 0
v -1.1 1 0
v -1.2 1.2 0.1
v -1.2 1.2 0
v -1.2 1.1 0
v -1.2 1.1 0.1
v -1.2 1.2 0.1
v -1.2 1.1 0.1
v -1.1 1.1 0.1
v -1.1 1.2 0.1
v -1.2 1.1 0
v -1.2 1.2 0
v -1.1 1.2 0
v -1.1 1.1 0
v -1.1 1.2 0.1
v -1.1 1.2 0
v -1.2 1.2 0
v -1.2 1.2 0.1
v -1.1 -1.1 0.1
v -1.1 -1.2 0.1
v -1 -1.2 0.1
v -1 -1.1 0.1
v -1.1 -1.2 0
v -1.1 -1.1 0
v -1 -1.1 0
v -1 -1.2 0
v -1.1 -1.2 0.1
v -1.1 -1.2 0
v -1 -1.2 0
v -1 -1.2 0.1
v -1.1 -1 0.1
v -1.1 -1.1 0.1
v -1 -1.1 0.1
v -1 -1 0.1
v -1.1 -1.1 0
v -1.1 -1 0
v -1 -1 0
v -1 -1.1 0
v -1.1 -0.9 0.1
v -1.1 -1 0.1
v -1 -1 0.1
v -1 -0.9 0.1
v -1.1 -1 0
v -1.1 -0.9 0
v -1 -0.9 0
v -1 -1 0
v -1.1 -0.8 0.1
v -1.1 -0.9 0.1
v -1 -0.9 0.1
v -1 -0.8 0.1
v -1.1 -0.9 0
v -1.1 -0.8 0
v -1 -0.8 0
v -1 -0.9 0
v -1.1 -0.7 0.1
v -1.1 -0.8 0.1
v -1 -0.8 0.1
v -1 -0.7 0.1
v -1.1 -0.8 0
v -1.1 -0.7 0
v -1 -0.7 0
v -1 -0.8 0
v -1.1 -0.6 0.1
v -1.1 -0.7 0.1
v -1 -0.7 0.1
v -1 -0.6 0.1
v -1.1 -0.7 0
v -1.1 -0.6 0
v -1 -0.6 0
v -1 -0.7 0
v -1.1 -0.5 0.1
v -1.1 -0.6 0.1
v -1 -0.6 0.1
v -1 -0.5 0.1
v -1.1 -0.6 0
v -1.1 -0.5 0
v -1 -0.5 0
v -1 -0.6 0
v -1.1 -0.4 0.1
v -1.1 -0.5 0.1
v -1 -0.5 0.1
v -1 -0.4 0.1
v -1.1 -0.5 0
v -1.1 -0.4 0
v -1 -0.4 0
v -1 -0.5 0
v -1.1 -0.3 0.1
v -1.1 -0.4 0.1
v -1 -0.4 0.1
v -1 -0.3 0.1
v -1.1 -0.4 0
v -1.1 -0.3 0
v -1 -0.3 0
v -1 -0.4 0
v -1.1 -0.2 0.1
v -1.1 -0.3 0.1
v -1 -0.3 0.1
v -1 -0.2 0.1
v -1.1 -0.3 0
v -1.1 -0.2 0
v -1 -0.2 0
v -1 -0.3 0
v -1.1 -0.1 0.1
v -1.1 -0.2 0.1
v -1 -0.2 0.1
v -1 -0.1 0.1
v -1.1 -0.2 0
v -1.1 -0.1 0
v -1 -0.1 0
v -1 -0.2 0
v -1.1 0 0.1
v -1.1 -0.1 0.1
v -1 -0.1 0.1
v -1 0 0.1
v -1.1 -0.1 0
v -1.1 0 0
v -1 0 0
v -1 -0.1 0
v -1.1 0.1 0.1
v -1.1 0 0.1
v -1 0 0.1
v -1 0.1 0.1
v -1.1 0 0
v -1.1 0.1 0
v -1 0.1 0
v -1 0 0
v -1.1 0.2 0.1
v -1.1 0.1 0.1
v -1 0.1 0.1
v -1 0.2 0.1
v -1.1 0.1 0
v -1.1 0.2 0
v -1 0.2 0
v -1 0.1 0
v -1.1 0.3 0.1
v -1.1 0.2 0.1
v -1 0.2 0.1
v -1 0.3 0.1
v -1.1 0.2 0
v -1.1 0.3 0
v -1 0.3 0
v -1 0.2 0
v -1.1 0.4 0.1
v -1.1 0.3 0.1
v -1 0.3 0.1
v -1 0.4 0.1
v -1.1 0.3 0
v -1.1 0.4 0
v -1 0.4 0
v -1 0.3 0
v -1.1 0.5 0.1
v -1.1 0.4 0.1
v -1 0.4 0.1
v -1 0.5 0.1
v -1.1 0.4 0
v -1.1 0.5 0
v -1 0.5 0
v -1 0.4 0
v -1.1 0.6 0.1
v -1.1 0.5 0.1
v -1 0.5 0.1
v -1 0.6 0.1
v -1.1 0.5 0
v -1.1 0.6 0
v -1 0.6 0
v -1 0.5 0
v -1.1 0.7 0.1
v -1.1 0.6 0.1
v -1 0.6 0.1
v -1 0.7 0.1
v -1.1 0.6 0
v -1.1 0.7 0
v -1 0.7 0
v -1 0.6 0
v -1.1 0.8 0.1
v -1.1 0.7 0.1
v -1 0.7 0.1
v -1 0.8 0.1
v -1.1 0.7 0
v -1.1 0.8 0
v -1 0.8 0
v -1 0.7 0
v -1.1 0.9 0.1
v -1.1 0.8 0.1
v -1 0.8 0.1
v -1 0.9 0.1
v -1.1 0.8 0
v -1.1 0.9 0
v -1 0.9 0
v -1 0.8 0
v -1.1 1 0.1
v -1.1 0.9 0.1
v -1 0.9 0.1
v -1 1 0.1
v -1.1 0.9 0
v -1.1 1 0
v -1 1 0
v -1 0.9 0
v -1.1 1.1 0.1
v -1.1 1 0.1
v -1 1 0.1
v -1 1.1 0.1
v -1.1 1 0
v -1.1 1.1 0
v -1 1.1 0
v -1 1 0
v -1.1 1.2 0.1
v -1.1 1.1 0.1
v -1 1.1 0.1
v -1 1.2 0.1
v -1.1 1.1 0
v -1.1 1.2 0
v -1 1.2 0
v -1 1.1 0
v -1 1.2 0.1
v -1 1.2 0
v -1.1 1.2 0
v -1.1 1.2 0.1
v -1 -1.1 0.1
v -1 -1.2 0.1
v -0.9 -1.2 0.1
v -0.9 -1.1 0.1
v -1 -1.2 0
v -1 -1.1 0
v -0.9 -1.1 0
v -0.9 -1.2 0
v -1 -1.2 0.1
v -1 -1.2 0
v -0.9 -1.2 0
v -0.9 -1.2 0.1
v -1 -1 0.1
v -1 -1.1 0.1
v -0.9 -1.1 0.1
v -0.9 -1 0.1
v -1 -1.1 0
v -1 -1 0
v -0.9 -1 0
v -0.9 -1.1 0
v -1 -0.9 0.1
v -1 -1 0.1
v -0.9 -1 0.1
v -0.9 -0.9 0.1
v -1 -1 0
v -1 -0.9 0
v -0.9 -0.9 0
v -0.9 -1 0
v -1 -0.8 0.1
v -1 -0.9 0.1
v -0.9 -0.9 0.1
v -0.9 -0.8 0.1
v -1 -0.9 0
v -1 -0.8 0
v -0.9 -0.8 0
v -0.9 -0.9 0
v -1 -0.7 0.1
v -1 -0.8 0.1
v -0.9 -0.8 0.1
v -0.9 -0.7 0.1
v -1 -0.8 0
v -1 -0.7 0
v -0.9 -0.7 0
v -0.9 -0.8 0
v -1 -0.6 0.1
v -1 -0.7 0.1
v -0.9 -0.7 0.1
v -0.9 -0.6 0.1
v -1 -0.7 0
v -1 -0.6 0
v -0.9 -0.6 0
v -0.9 -0.7 0
v -1 -0.5 0.1
v -1 -0.6 0.1
v -0.9 -0.6 0.1
v -0.9 -0.5 0.1
v -1 -0.6 0
v -1 -0.5 0
v -0.9 -0.5 0
v -0.9 -0.6 0
v -1 -0.4 0.1
v -1 -0.5 0.1
v -0.9 -0.5 0.1
v -0.9 -0.4 0.1
v -1 -0.5 0
v -1 -0.4 0
v -0.9 -0.4 0
v -0.9 -0.5 0
v -1 -0.3 0.1
v -1 -0.4 0.1
v -0.9 -0.4 0.1
v -0.9 -0.3 0.1
v -1 -0.4 0
v -1 -0.3 0
v -0.9 -0.3 0
v -0.9 -0.4 0
v -1 -0.2 0.1
v -1 -0.3 0.1
v -0.9 -0.3 0.1
v -0.9 -0.2 0.1
v -1 -0.3 0
v -1 -0.2 0
v -0.9 -0.2 0
v -0.9 -0.3 0
v -1 -0.1 0.1
v -1 -0.2 0.1
v -0.9 -0.2 0.1
v -0.9 -0.1 0.1
v -1 -0.2 0
v -1 -0.1 0
v -0.9 -0.1 0
v -0.9 -0.2 0
v -1 0 0.1
v -1 -0.1 0.1
v -0.9 -0.1 0.1
v -0.9 0 0.1
v -1 -0.1 0
v -1 0 0
v -0.9 0 0
v -0.9 -0.1 0
v -1 0.1 0.1
v -1 0 0.1
v -0.9 0 0.1
v -0.9 0.1 0.1
v -1 0 0
v -1 0.1 0
v -0.9 0.1 0
v -0.9 0 0
v -1 0.2 0.1
v -1 0.1 0.1
v -0.9 0.1 0.1
v -0.9 0.2 0.1
v -1 0.1 0
v -1 0.2 0
v -0.9 0.2 0
v -0.9 0.1 0
v -1 0.3 0.1
v -1 0.2 0.1
v -0.9 0.2 0.1
v -0.9 0.3 0.1
v -1 0.2 0
v -1 0.3 0
v -0.9 0.3 0
v -0.9 0.2 0
v -1 0.4 0.1
v -1 0.3 0.1
v -0.9 0.3 0.1
v -0.9 0.4 0.1
v -1 0.3 0
v -1 0.4 0
v -0.9 0.4 0
v -0.9 0.3 0
v -1 0.5 0.1
v -1 0.4 0.1
v -0.9 0.4 0.1
v -0.9 0.5 0.1
v -1 0.4 0
v -1 0.5 0
v -0.9 0.5 0
v -0.9 0.4 0
v -1 0.6 0.1
v -1 0.5 0.1
v -0.9 0.5 0.1
v -0.9 0.6 0.1
v -1 0.5 0
v -1 0.6 0
v -0.9 0.6 0
v -0.9 0.5 0
v -1 0.7 0.1
v -1 0.6 0.1
v -0.9 0.6 0.1
v -0.9 0.7 0.1
v -1 0.6 0
v -1 0.7 0
v -0.9 0.7 0
v -0.9 0.6 0
v -1 0.8 0.1
v -1 0.7 0.1
v -0.9 0.7 0.1
v -0.9 0.8 0.1
v -1 0.7 0
v -1 0.8 0
v -0.9 0.8 0
v -0.9 0.7 0
v -1 0.9 0.1
v -1 0.8 0.1
v -0.9 0.8 0.1
v -0.9 0.9 0.1
v -1 0.8 0
v -1 0.9 0
v -0.9 0.9 0
v -0.9 0.8 0
v -1 1 0.1
v -1 0.9 0.1
v -0.9 0.9 0.1
v -0.9 1 0.1
v -1 0.9 0
v -1 1 0
v -0.9 1 0
v -0.9 0.9 0
v -1 1.1 0.1
v -1 1 0.1
v -0.9 1 0.1
v -0.9 1.1 0.1
v -1 1 0
v -1 1.1 0
v -0.9 1.1 0
v -0.9 1 0
v -1 1.2 0.1
v -1 1.1 0.1
v -0.9 1.1 0.1
v -0.9 1.2 0.1
v -1 1.1 0
v -1 1.2 0
v -0.9 1.2 0
v -0.9 1.1 0
v -0.9 1.2 0.1
v -0.9 1.2 0
v -1 1.2 0
v -1 1.2 0.1
v -0.9 -1.1 0.1
v -0.9 -1.2 0.1
v -0.8 -1.2 0.1
v -0.8 -1.1 0.1
v -0.9 -1.2 0
v -0.9 -1.1 0
v -0.8 -1.1 0
v -0.8 -1.2 0
v -0.9 -1.2 0.1
v -0.9 -1.2 0
v -0.8 -1.2 0
v -0.8 -1.2 0.1
v -0.9 -1 0.1
v -0.9 -1.1 0.1
v -0.8 -1.1 0.1
v -0.8 -1 0.1
v -0.9 -1.1 0
v -0.9 -1 0
v -0.8 -1 0
v -0.8 -1.1 0
v -0.9 -0.9 0.1
v -0.9 -1 0.1
v -0.8 -1 0.1
v -0.8 -0.9 0.1
v -0.9 -1 0
v -0.9 -0.9 0
v -0.8 -0.9 0
v -0.8 -1 0
v -0.9 -0.8 0.1
v -0.9 -0.9 0.1
v -0.8 -0.9 0.1
v -0.8 -0.8 0.1
v -0.9 -0.9 0
v -0.9 -0.8 0
v -0.8 -0.8 0
v -0.8 -0.9 0
v -0.9 -0.7 0.1
v -0.9 -0.8 0.1
v -0.8 -0.8 0.1
v -0.8 -0.7 0.1
v -0.9 -0.8 0
v -0.9 -0.7 0
v -0.8 -0.7 0
v -0.8 -0.8 0
v -0.9 -0.6 0.1
v -0.9 -0.7 0.1
v -0.8 -0.7 0.1
v -0.8 -0.6 0.1
v -0.9 -0.7 0
v -0.9 -0.6 0
v -0.8 -0.6 0
v -0.8 -0.7 0
v -0.9 -0.5 0.1
v -0.9 -0.6 0.1
v -0.8 -0.6 0.1
v -0.8 -0.5 0.1
v -0.9 -0.6 0
v -0.9 -0.5 0
v -0.8 -0.5 0
v -0.8 -0.6 0
v -0.9 -0.4 0.1
v -0.9 -0.5 0.1
v -0.8 -0.5 0.1
v -0.8 -0.4 0.1
v -0.9 -0.5 0
v -0.9 -0.4 0
v -0.8 -0.4 0
v -0.8 -0.5 0
v -0.9 -0.3 0.1
v -0.9 -0.4 0.1
v -0.8 -0.4 0.1
v -0.8 -0.3 0.1
v -0.9 -0.4 0
v -0.9 -0.3 0
v -0.8 -0.3 0
v -0.8 -0.4 0
v -0.9 -0.2 0.1
v -0.9 -0.3 0.1
v -0.8 -0.3 0.1
v -0.8 -0.2 0.1
v -0.9 -0.3 0
v -0.9 -0.2 0
v -0.8 -0.2 0
v -0.8 -0.3 0
v -0.9 -0.1 0.1
v -0.9 -0.2 0.1
v -0.8 -0.2 0.1
v -0.8 -0.1 0.1
v -0.9 -0.2 0
v -0.9 -0.1 0
v -0.8 -0.1 0
v -0.8 -0.2 0
v -0.9 0 0.1
v -0.9 -0.1 0.1
v -0.8 -0.1 0.1
v -0.8 0 0.1
v -0.9 -0.1 0
v -0.9 0 0
v -0.8 0 0
v -0.8 -0.1 0
v -0.9 0.1 0.1
v -0.9 0 0.1
v -0.8 0 0.1
v -0.8 0.1 0.1
v -0.9 0 0
v -0.9 0.1 0
v -0.8 0.1 0
v -0.8 0 0
v -0.9 0.2 0.1
v -0.9 0.1 0.1
v -0.8 0.1 0.1
v -0.8 0.2 0.1
v -0.9 0.1 0
v -0.9 0.2 0
v -0.8 0.2 0
v -0.8 0.1 0
v -0.9 0.3 0.1
v -0.9 0.2 0.1
v -0.8 0.2 0.1
v -0.8 0.3 0.1
v -0.9 0.2 0
v -0.9 0.3 0
v -0.8 0.3 0
v -0.8 0.2 0
v -0.9 0.4 0.1
v -0.9 0.3 0.1
v -0.8 0.3 0.1
v -0.8 0.4 0.1
v -0.9 0.3 0
v -0.9 0.4 0
v -0.8 0.4 0
v -0.8 0.3 0
v -0.9 0.5 0.1
v -0.9 0.4 0.1
v -0.8 0.4 0.1
v -0.8 0.5 0.1
v -0.9 0.4 0
v -0.9 0.5 0
v -0.8 0.5 0
v -0.8 0.4 0
v -0.9 0.6 0.1
v -0.9 0.5 0.1
v -0.8 0.5 0.1
v -0.8 0.6 0.1
v -0.9 0.5 0
v -0.9 0.6 0
v -0.8 0.6 0
v -0.8 0.5 0
v -0.9 0.7 0.1
v -0.9 0.6 0.1
v -0.8 0.6 0.1
v -0.8 0.7 0.1
v -0.9 0.6 0
v -0.9 0.7 0
v -0.8 0.7 0
v -0.8 0.6 0
v -0.9 0.8 0.1
v -0.9 0.7 0.1
v -0.8 0.7 0.1
v -0.8 0.8 0.1
v -0.9 0.7 0
v -0.9 0.8 0
v -0.8 0.8 0
v -0.8 0.7 0
v -0.9 0.9 0.1
v -0.9 0.8 0.1
v -0.8 0.8 0.1
v -0.8 0.9 0.1
v -0.9 0.8 0
v -0.9 0.9 0
v -0.8 0.9 0
v -0.8 0.8 0
v -0.9 1 0.1
v -0.9 0.9 0.1
v -0.8 0.9 0.1
v -0.8 1 0.1
v -0.9 0.9 0
v -0.9 1 0
v -0.8 1 0
v -0.8 0.9 0
v -0.9 1.1 0.1
v -0.9 1 0.1
v -0.8 1 0.1
v -0.8 1.1 0.1
v -0.9 1 0
v -0.9 1.1 0
v -0.8 1.1 0
v -0.8 1 0
v -0.9 1.2 0.1
v -0.9 1.1 0.1
v -0.8 1.1 0.1
v -0.8 1.2 0.1
v -0.9 1.1 0
v -0.9 1.2 0
v -0.8 1.2 0
v -0.8 1.1 0
v -0.8 1.2 0.1
v -0.8 1.2 0
v -0.9 1.2 0
v -0.9 1.2 0.1
v -0.8 -1.1 0.1
v -0.8 -1.2 0.1
v -0.7 -1.2 0.1
v -0.7 -1.1 0.1
v -0.8 -1.2 0
v -0.8 -1.1 0
v -0.7 -1.1 0
v -0.7 -1.2 0
v -0.8 -1.2 0.1
v -0.8 -1.2 0
v -0.7 -1.2 0
v -0.7 -1.2 0.1
v -0.8 -1 0.1
v -0.8 -1.1 0.1
v -0.7 -1.1 0.1
v -0.7 -1 0.1
v -0.8 -1.1 0
v -0.8 -1 0
v -0.7 -1 0
v -0.7 -1.1 0
v -0.8 -0.9 0.1
v -0.8 -1 0.1
v -0.7 -1 0.1
v -0.7 -0.9 0.1
v -0.8 -1 0
v -0.8 -0.9 0
v -0.7 -0.9 0
v -0.7 -1 0
v -0.8 -0.8 0.1
v -0.8 -0.9 0.1
v -0.7 -0.9 0.1
v -0.7 -0.8 0.1
v -0.8 -0.9 0
v -0.8 -0.8 0
v -0.7 -0.8 0
v -0.7 -0.9 0
v -0.8 -0.7 0.1
v -0.8 -0.8 0.1
v -0.7 -0.8 0.1
v -0.7 -0.7 0.1
v -0.8 -0.8 0
v -0.8 -0.7 0
v -0.7 -0.7 0
v -0.7 -0.8 0
v -0.8 -0.6 0.1
v -0.8 -0.7 0.1
v -0.7 -0.7 0.1
v -0.7 -0.6 0.1
v -0.8 -0.7 0
v -0.8 -0.6 0
v -0.7 -0.6 0
v -0.7 -0.7 0
v -0.8 -0.5 0.1
v -0.8 -0.6 0.1
v -0.7 -0.6 0.1
v -0.7 -0.5 0.1
v -0.8 -0.6 0
v -0.8 -0.5 0
v -0.7 -0.5 0
v -0.7 -0.6 0
v -0.8 -0.4 0.1
v -0.8 -0.5 0.1
v -0.7 -0.5 0.1
v -0.7 -0.4 0.1
v -0.8 -0.5 0
v -0.8 -0.4 0
v -0.7 -0.4 0
v -0.7 -0.5 0
v -0.8 -0.3 0.1
v -0.8 -0.4 0.1
v -0.7 -0.4 0.1
v -0.7 -0.3 0.1
v -0.8 -0.4 0
v -0.8 -0.3 0
v -0.7 -0.3 0
v -0.7 -0.4 0
v -0.8 -0.2 0.1
v -0.8 -0.3 0.1
v -0.7 -0.3 0.1
v -0.7 -0.2 0.1
v -0.8 -0.3 0
v -0.8 -0.2 0
v -0.7 -0.2 0
v -0.7 -0.3 0
v -0.8 -0.1 0.1
v -0.8 -0.2 0.1
v -0.7 -0.2 0.1
v -0.7 -0.1 0.1
v -0.8 -0.2 0
v -0.8 -0.1 0
v -0.7 -0.1 0
v -0.7 -0.2 0
v -0.8 0 0.1
v -0.8 -0.1 0.1
v -0.7 -0.1 0.1
v -0.7 0 0.1
v -0.8 -0.1 0
v -0.8 0 0
v -0.7 0 0
v -0.7 -0.1 0
v -0.8 0.1 0.1
v -0.8 0 0.1
v -0.7 0 0.1
v -0.7 0.1 0.1
v -0.8 0 0
v -0.8 0.1 0
v -0.7 0.1 0
v -0.7 0 0
v -0.8 0.2 0.1
v -0.8 0.1 0.1
v -0.7 0.1 0.1
v -0.7 0.2 0.1
v -0.8 0.1 0
v -0.8 0.2 0
v -0.7 0.2 0
v -0.7 0.1 0
v -0.8 0.3 0.1
v -0.8 0.2 0.1
v -0.7 0.2 0.1
v -0.7 0.3 0.1
v -0.8 0.2 0
v -0.8 0.3 0
v -0.7 0.3 0
v -0.7 0.2 0
v -0.8 0.4 0.1
v -0.8 0.3 0.1
v -0.7 0.3 0.1
v -0.7 0.4 0.1
v -0.8 0.3 0
v -0.8 0.4 0
v -0.7 0.4 0
v -0.7 0.3 0
v -0.8 0.5 0.1
v -0.8 0.4 0.1
v -0.7 0.4 0.1
v -0.7 0.5 0.1
v -0.8 0.4 0
v -0.8 0.5 0
v -0.7 0.5 0
v -0.7 0.4 0
v -0.8 0.6 0.1
v -0.8 0.5 0.1
v -0.7 0.5 0.1
v -0.7 0.6 0.1
v -0.8 0.5 0
v -0.8 0.6 0
v -0.7 0.6 0
v -0.7 0.5 0
v -0.8 0.7 0.1
v -0.8 0.6 0.1
v -0.7 0.6 0.1
v -0.7 0.7 0.1
v -0.8 0.6 0
v -0.8 0.7 0
v -0.7 0.7 0
v -0.7 0.6 0
v -0.8 0.8 0.1
v -0.8 0.7 0.1
v -0.7 0.7 0.1
v -0.7 0.8 0.1
v -0.8 0.7 0
v -0.8 0.8 0
v -0.7 0.8 0
v -0.7 0.7 0
v -0.8 0.9 0.1
v -0.8 0.8 0.1
v -0.7 0.8 0.1
v -0.7 0.9 0.1
v -0.8 0.8 0
v -0.8 0.9 0
v -0.7 0.9 0
v -0.7 0.8 0
v -0.8 1 0.1
v -0.8 0.9 0.1
v -0.7 0.9 0.1
v -0.7 1 0.1
v -0.8 0.9 0
v -0.8 1 0
v -0.7 1 0
v -0.7 0.9 0
v -0.8 1.1 0.1
v -0.8 1 0.1
v -0.7 1 0.1
v -0.7 1.1 0.1
v -0.8 1 0
v -0.8 1.1 0
v -0.7 1.1 0
v -0.7 1 0
v -0.8 1.2 0.1
v -0.8 1.1 0.1
v -0.7 1.1 0.1
v -0.7 1.2 0.1
v -0.8 1.1 0
v -0.8 1.2 0
v -0.7 1.2 0
v -0.7 1.1 0
v -0.7 1.2 0.1
v -0.7 1.2 0
v -0.8 1.2 0
v -0.8 1.2 0.1
v -0.7 -1.1 0.1
v -0.7 -1.2 0.1
v -0.6 -1.2 0.1
v -0.6 -1.1 0.1
v -0.7 -1.2 0
v -0.7 -1.1 0
v -0.6 -1.1 0
v -0.6 -1.2 0
v -0.7 -1.2 0.1
v -0.7 -1.2 0
v -0.6 -1.2 0
v -0.6 -1.2 0.1
v -0.7 -1 0.1
v -0.7 -1.1 0.1
v -0.6 -1.1 0.1
v -0.6 -1 0.1
v -0.7 -1.1 0
v -0.7 -1 0
v -0.6 -1 0
v -0.6 -1.1 0
v -0.7 -0.9 0.1
v -0.7 -1 0.1
v -0.6 -1 0.1
v -0.6 -0.9 0.1
v -0.7 -1 0
v -0.7 -0.9 0
v -0.6 -0.9 0
v -0.6 -1 0
v -0.7 -0.8 0.1
v -0.7 -0.9 0.1
v -0.6 -0.9 0.1
v -0.6 -0.8 0.1
v -0.7 -0.9 0
v -0.7 -0.8 0
v -0.6 -0.8 0
v -0.6 -0.9 0
v -0.7 -0.7 0.1
v -0.7 -0.8 0.1
v -0.6 -0.8 0.1
v -0.6 -0.7 0.1
v -0.7 -0.8 0
v -0.7 -0.7 0
v -0.6 -0.7 0
v -0.6 -0.8 0
v -0.7 -0.6 0.1
v -0.7 -0.7 0.1
v -0.6 -0.7 0.1
v -0.6 -0.6 0.1
v -0.7 -0.7 0
v -0.7 -0.6 0
v -0.6 -0.6 0
v -0.6 -0.7 0
v -0.7 -0.5 0.1
v -0.7 -0.6 0.1
v -0.6 -0.6 0.1
v -0.6 -0.5 0.1
v -0.7 -0.6 0
v -0.7 -0.5 0
v -0.6 -0.5 0
v -0.6 -0.6 0
v -0.7 -0.4 0.1
v -0.7 -0.5 0.1
v -0.6 -0.5 0.1
v -0.6 -0.4 0.1
v -0.7 -0.5 0
v -0.7 -0.4 0
v -0.6 -0.4 0
v -0.6 -0.5 0
v -0.7 -0.3 0.1
v -0.7 -0.4 0.1
v -0.6 -0.4 0.1
v -0.6 -0.3 0.1
v -0.7 -0.4 0
v -0.7 -0.3 0
v -0.6 -0.3 0
v -0.6 -0.4 0
v -0.7 -0.2 0.1
v -0.7 -0.3 0.1
v -0.6 -0.3 0.1
v -0.6 -0.2 0.1
v -0.7 -0.3 0
v -0.7 -0.2 0
v -0.6 -0.2 0
v -0.6 -0.3 0
v -0.7 -0.1 0.1
v -0.7 -0.2 0.1
v -0.6 -0.2 0.1
v -0.6 -0.1 0.1
v -0.7 -0.2 0
v -0.7 -0.1 0
v -0.6 -0.1 0
v -0.6 -0.2 0
v -0.7 0 0.1
v -0.7 -0.1 0.1
v -0.6 -0.1 0.1
v -0.6 0 0.1
v -0.7 -0.1 0
v -0.7 0 0
v -0.6 0 0
v -0.6 -0.1 0
v -0.7 0.1 0.1
v -0.7 0 0.1
v -0.6 0 0.1
v -0.6 0.1 0.1
v -0.7 0 0
v -0.7 0.1 0
v -0.6 0.1 0
v -0.6 0 0
v -0.7 0.2 0.1
v -0.7 0.1 0.1
v -0.6 0.1 0.1
v -0.6 0.2 0.1
v -0.7 0.1 0
v -0.7 0.2 0
v -0.6 0.2 0
v -0.6 0.1 0
v -0.7 0.3 0.1
v -0.7 0.2 0.1
v -0.6 0.2 0.1
v -0.6 0.3 0.1
v -0.7 0.2 0
v -0.7 0.3 0
v -0.6 0.3 0
v -0.6 0.2 0
v -0.7 0.4 0.1
v -0.7 0.3 0.1
v -0.6 0.3 0.1
v -0.6 0.4 0.1
v -0.7 0.3 0
v -0.7 0.4 0
v -0.6 0.4 0
v -0.6 0.3 0
v -0.7 0.5 0.1
v -0.7 0.4 0.1
v -0.6 0.4 0.1
v -0.6 0.5 0.1
v -0.7 0.4 0
v -0.7 0.5 0
v -0.6 0.5 0
v -0.6 0.4 0
v -0.7 0.6 0.1
v -0.7 0.5 0.1
v -0.6 0.5 0.1
v -0.6 0.6 0.1
v -0.7 0.5 0
v -0.7 0.6 0
v -0.6 0.6 0
v -0.6 0.5 0
v -0.7 0.7 0.1
v -0.7 0.6 0.1
v -0.6 0.6 0.1
v -0.6 0.7 0.1
v -0.7 0.6 0
v -0.7 0.7 0
v -0.6 0.7 0
v -0.6 0.6 0
v -0.7 0.8 0.1
v -0.7 0.7 0.1
v -0.6 0.7 0.1
v -0.6 0.8 0.1
v -0.7 0.7 0
v -0.7 0.8 0
v -0.6 0.8 0
v -0.6 0.7 0
v -0.7 0.9 0.1
v -0.7 0.8 0.1
v -0.6 0.8 0.1
v -0.6 0.9 0.1
v -0.7 0.8 0
v -0.7 0.9 0
v -0.6 0.9 0
v -0.6 0.8 0
v -0.7 1 0.1
v -0.7 0.9 0.1
v -0.6 0.9 0.1
v -0.6 1 0.1
v -0.7 0.9 0
v -0.7 1 0
v -0.6 1 0
v -0.6 0.9 0
v -0.7 1.1 0.1
v -0.7 1 0.1
v -0.6 1 0.1
v -0.6 1.1 0.1
v -0.7 1 0
v -0.7 1.1 0
v -0.6 1.1 0
v -0.6 1 0
v -0.7 1.2 0.1
v -0.7 1.1 0.1
v -0.6 1.1 0.1
v -0.6 1.2 0.1
v -0.7 1.1 0
v -0.7 1.2 0
v -0.6 1.2 0
v -0.6 1.1 0
v -0.6 1.2 0.1
v -0.6 1.2 0
v -0.7 1.2 0
v -0.7 1.2 0.1
v -0.6 -1.1 0.1
v -0.6 -1.2 0.1
v -0.5 -1.2 0.1
v -0.5 -1.1 0.1
v -0.6 -1.2 0
v -0.6 -1.1 0
v -0.5 -1.1 0
v -0.5 -1.2 0
v -0.6 -1.2 0.1
v -0.6 -1.2 0
v -0.5 -1.2 0
v -0.5 -1.2 0.1
v -0.6 -1 0.1
v -0.6 -1.1 0.1
v -0.5 -1.1 0.1
v -0.5 -1 0.1
v -0.6 -1.1 0
v -0.6 -1 0
v -0.5 -1 0
v -0.5 -1.1 0
v -0.6 -0.9 0.1
v -0.6 -1 0.1
v -0.5 -1 0.1
v -0.5 -0.9 0.1
v -0.6 -1 0
v -0.6 -0.9 0
v -0.5 -0.9 0
v -0.5 -1 0
v -0.6 -0.8 0.1
v -0.6 -0.9 0.1
v -0.5 -0.9 0.1
v -0.5 -0.8 0.1
v -0.6 -0.9 0
v -0.6 -0.8 0
v -0.5 -0.8 0
v -0.5 -0.9 0
v -0.6 -0.7 0.1
v -0.6 -0.8 0.1
v -0.5 -0.8 0.1
v -0.5 -0.7 0.1
v -0.6 -0.8 0
v -0.6 -0.7 0
v -0.5 -0.7 0
v -0.5 -0.8 0
v -0.6 -0.6 0.1
v -0.6 -0.7 0.1
v -0.5 -0.7 0.1
v -0.5 -0.6 0.1
v -0.6 -0.7 0
v -0.6 -0.6 0
v -0.5 -0.6 0
v -0.5 -0.7 0
v -0.6 -0.5 0.1
v -0.6 -0.6 0.1
v -0.5 -0.6 0.1
v -0.5 -0.5 0.1
v -0.6 -0.6 0
v -0.6 -0.5 0
v -0.5 -0.5 0
v -0.5 -0.6 0
v -0.6 -0.4 0.1
v -0.6 -0.5 0.1
v -0.5 -0.5 0.1
v -0.5 -0.4 0.1
v -0.6 -0.5 0
v -0.6 -0.4 0
v -0.5 -0.4 0
v -0.5 -0.5 0
v -0.6 -0.3 0.1
v -0.6 -0.4 0.1
v -0.5 -0.4 0.1
v -0.5 -0.3 0.1
v -0.6 -0.4 0
v -0.6 -0.3 0
v -0.5 -0.3 0
v -0.5 -0.4 0
v -0.6 -0.2 0.1
v -0.6 -0.3 0.1
v -0.5 -0.3 0.1
v -0.5 -0.2 0.1
v -0.6 -0.3 0
v -0.6 -0.2 0
v -0.5 -0.2 0
v -0.5 -0.3 0
v -0.6 -0.1 0.1
v -0.6 -0.2 0.1
v -0.5 -0.2 0.1
v -0.5 -0.1 0.1
v -0.6 -0.2 0
v -0.6 -0.1 0
v -0.5 -0.1 0
v -0.5 -0.2 0
v -0.6 0 0.1
v -0.6 -0.1 0.1
v -0.5 -0.1 0.1
v -0.5 0 0.1
v -0.6 -0.1 0
v -0.6 0 0
v -0.5 0 0
v -0.5 -0.1 0
v -0.6 0.1 0.1
v -0.6 0 0.1
v -0.5 0 0.1
v -0.5 0.1 0.1
v -0.6 0 0
v -0.6 0.1 0
v -0.5 0.1 0
v -0.5 0 0
v -0.6 0.2 0.1
v -0.6 0.1 0.1
v -0.5 0.1 0.1
v -0.5 0.2 0.1
v -0.6 0.1 0
v -0.6 0.2 0
v -0.5 0.2 0
v -0.5 0.1 0
v -0.6 0.3 0.1
v -0.6 0.2 0.1
v -0.5 0.2 0.1
v -0.5 0.3 0.1
v -0.6 0.2 0
v -0.6 0.3 0
v -0.5 0.3 0
v -0.5 0.2 0
v -0.6 0.4 0.1
v -0.6 0.3 0.1
v -0.5 0.3 0.1
v -0.5 0.4 0.1
v -0.6 0.3 0
v -0.6 0.4 0
v -0.5 0.4 0
v -0.5 0.3 0
v -0.6 0.5 0.1
v -0.6 0.4 0.1
v -0.5 0.4 0.1
v -0.5 0.5 0.1
v -0.6 0.4 0
v -0.6 0.5 0
v -0.5 0.5 0
v -0.5 0.4 0
v -0.6 0.6 0.1
v -0.6 0.5 0.1
v -0.5 0.5 0.1
v -0.5 0.6 0.1
v -0.6 0.5 0
v -0.6 0.6 0
v -0.5 0.6 0
v -0.5 0.5 0
v -0.6 0.7 0.1
v -0.6 0.6 0.1
v -0.5 0.6 0.1
v -0.5 0.7 0.1
v -0.6 0.6 0
v -0.6 0.7 0
v -0.5 0.7 0
v -0.5 0.6 0
v -0.6 0.8 0.1
v -0.6 0.7 0.1
v -0.5 0.7 0.1
v -0.5 0.8 0.1
v -0.6 0.7 0
v -0.6 0.8 0
v -0.5 0.8 0
v -0.5 0.7 0
v -0.6 0.9 0.1
v -0.6 0.8 0.1
v -0.5 0.8 0.1
v -0.5 0.9 0.1
v -0.6 0.8 0
v -0.6 0.9 0
v -0.5 0.9 0
v -0.5 0.8 0
v -0.6 1 0.1
v -0.6 0.9 0.1
v -0.5 0.9 0.1
v -0.5 1 0.1
v -0.6 0.9 0
v -0.6 1 0
v -0.5 1 0
v -0.5 0.9 0
v -0.6 1.1 0.1
v -0.6 1 0.1
v -0.5 1 0.1
v -0.5 1.1 0.1
v -0.6 1 0
v -0.6 1.1 0
v -0.5 1.1 0
v -0.5 1 0
v -0.6 1.2 0.1
v -0.6 1.1 0.1
v -0.5 1.1 0.1
v -0.5 1.2 0.1
v -0.6 1.1 0
v -0.6 1.2 0
v -0.5 1.2 0
v -0.5 1.1 0
v -0.5 1.2 0.1
v -0.5 1.2 0
v -0.6 1.2 0
v -0.6 1.2 0.1
v -0.5 -1.1 0.1
v -0.5 -1.2 0.1
v -0.4 -1.2 0.1
v -0.4 -1.1 0.1
v -0.5 -1.2 0
v -0.5 -1.1 0
v -0.4 -1.1 0
v -0.4 -1.2 0
v -0.5 -1.2 0.1
v -0.5 -1.2 0
v -0.4 -1.2 0
v -0.4 -1.2 0.1
v -0.5 -1 0.1
v -0.5 -1.1 0.1
v -0.4 -1.1 0.1
v -0.4 -1 0.1
v -0.5 -1.1 0
v -0.5 -1 0
v -0.4 -1 0
v -0.4 -1.1 0
v -0.5 -0.9 0.1
v -0.5 -1 0.1
v -0.4 -1 0.1
v -0.4 -0.9 0.1
v -0.5 -1 0
v -0.5 -0.9 0
v -0.4 -0.9 0
v -0.4 -1 0
v -0.5 -0.8 0.1
v -0.5 -0.9 0.1
v -0.4 -0.9 0.1
v -0.4 -0.8 0.1
v -0.5 -0.9 0
v -0.5 -0.8 0
v -0.4 -0.8 0
v -0.4 -0.9 0
v -0.5 -0.7 0.1
v -0.5 -0.8 0.1
v -0.4 -0.8 0.1
v -0.4 -0.7 0.1
v -0.5 -0.8 0
v -0.5 -0.7 0
v -0.4 -0.7 0
v -0.4 -0.8 0
v -0.5 -0.6 0.1
v -0.5 -0.7 0.1
v -0.4 -0.7 0.1
v -0.4 -0.6 0.1
v -0.5 -0.7 0
v -0.5 -0.6 0
v -0.4 -0.6 0
v -0.4 -0.7 0
v -0.5 -0.5 0.1
v -0.5 -0.6 0.1
v -0.4 -0.6 0.1
v -0.4 -0.5 0.1
v -0.5 -0.6 0
v -0.5 -0.5 0
v -0.4 -0.5 0
v -0.4 -0.6 0
v -0.5 -0.4 0.1
v -0.5 -0.5 0.1
v -0.4 -0.5 0.1
v -0.4 -0.4 0.1
v -0.5 -0.5 0
v -0.5 -0.4 0
v -0.4 -0.4 0
v -0.4 -0.5 0
v -0.5 -0.3 0.1
v -0.5 -0.4 0.1
v -0.4 -0.4 0.1
v -0.4 -0.3 0.1
v -0.5 -0.4 0
v -0.5 -0.3 0
v -0.4 -0.3 0
v -0.4 -0.4 0
v -0.5 -0.2 0.1
v -0.5 -0.3 0.1
v -0.4 -0.3 0.1
v -0.4 -0.2 0.1
v -0.5 -0.3 0
v -0.5 -0.2 0
v -0.4 -0.2 0
v -0.4 -0.3 0
v -0.5 -0.1 0.1
v -0.5 -0.2 0.1
v -0.4 -0.2 0.1
v -0.4 -0.1 0.1
v -0.5 -0.2 0
v -0.5 -0.1 0
v -0.4 -0.1 0
v -0.4 -0.2 0
v -0.5 0 0.1
v -0.5 -0.1 0.1
v -0.4 -0.1 0.1
v -0.4 0 0.1
v -0.5 -0.1 0
v -0.5 0 0
v -0.4 0 0
v -0.4 -0.1 0
v -0.5 0.1 0.1
v -0.5 0 0.1
v -0.4 0 0.1
v -0.4 0.1 0.1
v -0.5 0 0
v -0.5 0.1 0
v -0.4 0.1 0
v -0.4 0 0
v -0.5 0.2 0.1
v -0.5 0.1 0.1
v -0.4 0.1 0.1
v -0.4 0.2 0.1
v -0.5 0.1 0
v -0.5 0.2 0
v -0.4 0.2 0
v -0.4 0.1 0
v -0.5 0.3 0.1
v -0.5 0.2 0.1
v -0.4 0.2 0.1
v -0.4 0.3 0.1
v -0.5 0.2 0
v -0.5 0.3 0
v -0.4 0.3 0
v -0.4 0.2 0
v -0.5 0.4 0.1
v -0.5 0.3 0.1
v -0.4 0.3 0.1
v -0.4 0.4 0.1
v -0.5 0.3 0
v -0.5 0.4 0
v -0.4 0.4 0
v -0.4 0.3 0
v -0.5 0.5 0.1
v -0.5 0.4 0.1
v -0.4 0.4 0.1
v -0.4 0.5 0.1
v -0.5 0.4 0
v -0.5 0.5 0
v -0.4 0.5 0
v -0.4 0.4 0
v -0.5 0.6 0.1
v -0.5 0.5 0.1
v -0.4 0.5 0.1
v -0.4 0.6 0.1
v -0.5 0.5 0
v -0.5 0.6 0
v -0.4 0.6 0
v -0.4 0.5 0
v -0.5 0.7 0.1
v -0.5 0.6 0.1
v -0.4 0.6 0.1
v -0.4 0.7 0.1
v -0.5 0.6 0
v -0.5 0.7 0
v -0.4 0.7 0
v -0.4 0.6 0
v -0.5 0.8 0.1
v -0.5 0.7 0.1
v -0.4 0.7 0.1
v -0.4 0.8 0.1
v -0.5 0.7 0
v -0.5 0.8 0
v -0.4 0.8 0
v -0.4 0.7 0
v -0.5 0.9 0.1
v -0.5 0.8 0.1
v -0.4 0.8 0.1
v -0.4 0.9 0.1
v -0.5 0.8 0
v -0.5 0.9 0
v -0.4 0.9 0
v -0.4 0.8 0
v -0.5 1 0.1
v -0.5 0.9 0.1
v -0.4 0.9 0.1
v -0.4 1 0.1
v -0.5 0.9 0
v -0.5 1 0
v -0.4 1 0
v -0.4 0.9 0
v -0.5 1.1 0.1
v -0.5 1 0.1
v -0.4 1 0.1
v -0.4 1.1 0.1
v -0.5 1 0
v -0.5 1.1 0
v -0.4 1.1 0
v -0.4 1 0
v -0.5 1.2 0.1
v -0.5 1.1 0.1
v -0.4 1.1 0.1
v -0.4 1.2 0.1
v -0.5 1.1 0
v -0.5 1.2 0
v -0.4 1.2 0
v -0.4 1.1 0
v -0.4 1.2 0.1
v -0.4 1.2 0
v -0.5 1.2 0
v -0.5 1.2 0.1
v -0.4 -1.1 0.1
v -0.4 -1.2 0.1
v -0.3 -1.2 0.1
v -0.3 -1.1 0.1
v -0.4 -1.2 0
v -0.4 -1.1 0
v -0.3 -1.1 0
v -0.3 -1.2 0
v -0.4 -1.2 0.1
v -0.4 -1.2 0
v -0.3 -1.2 0
v -0.3 -1.2 0.1
v -0.4 -1 0.1
v -0.4 -1.1 0.1
v -0.3 -1.1 0.1
v -0.3 -1 0.1
v -0.4 -1.1 0
v -0.4 -1 0
v -0.3 -1 0
v -0.3 -1.1 0
v -0.4 -0.9 0.1
v -0.4 -1 0.1
v -0.3 -1 0.1
v -0.3 -0.9 0.1
v -0.4 -1 0
v -0.4 -0.9 0
v -0.3 -0.9 0
v -0.3 -1 0
v -0.4 -0.8 0.1
v -0.4 -0.9 0.1
v -0.3 -0.9 0.1
v -0.3 -0.8 0.1
v -0.4 -0.9 0
v -0.4 -0.8 0
v -0.3 -0.8 0
v -0.3 -0.9 0
v -0.4 -0.7 0.1
v -0.4 -0.8 0.1
v -0.3 -0.8 0.1
v -0.3 -0.7 0.1
v -0.4 -0.8 0
v -0.4 -0.7 0
v -0.3 -0.7 0
v -0.3 -0.8 0
v -0.4 -0.6 0.1
v -0.4 -0.7 0.1
v -0.3 -0.7 0.1
v -0.3 -0.6 0.1
v -0.4 -0.7 0
v -0.4 -0.6 0
v -0.3 -0.6 0
v -0.3 -0.7 0
v -0.4 -0.5 0.1
v -0.4 -0.6 0.1
v -0.3 -0.6 0.1
v -0.3 -0.5 0.1
v -0.4 -0.6 0
v -0.4 -0.5 0
v -0.3 -0.5 0
v -0.3 -0.6 0
v -0.4 -0.4 0.1
v -0.4 -0.5 0.1
v -0.3 -0.5 0.1
v -0.3 -0.4 0.1
v -0.4 -0.5 0
v -0.4 -0.4 0
v -0.3 -0.4 0
v -0.3 -0.5 0
v -0.4 -0.3 0.1
v -0.4 -0.4 0.1
v -0.3 -0.4 0.1
v -0.3 -0.3 0.1
v -0.4 -0.4 0
v -0.4 -0.3 0
v -0.3 -0.3 0
v -0.3 -0.4 0
v -0.4 -0.2 0.1
v -0.4 -0.3 0.1
v -0.3 -0.3 0.1
v -0.3 -0.2 0.1
v -0.4 -0.3 0
v -0.4 -0.2 0
v -0.3 -0.2 0
v -0.3 -0.3 0
v -0.4 -0.1 0.1
v -0.4 -0.2 0.1
v -0.3 -0.2 0.1
v -0.3 -0.1 0.1
v -0.4 -0.2 0
v -0.4 -0.1 0
v -0.3 -0.1 0
v -0.3 -0.2 0
v -0.4 0 0.1
v -0.4 -0.1 0.1
v -0.3 -0.1 0.1
v -0.3 0 0.1
v -0.4 -0.1 0
v -0.4 0 0
v -0.3 0 0
v -0.3 -0.1 0
v -0.4 0.1 0.1
v -0.4 0 0.1
v -0.3 0 0.1
v -0.3 0.1 0.1
v -0.4 0 0
v -0.4 0.1 0
v -0.3 0.1 0
v -0.3 0 0
v -0.4 0.2 0.1
v -0.4 0.1 0.1
v -0.3 0.1 0.1
v -0.3 0.2 0.1
v -0.4 0.1 0
v -0.4 0.2 0
v -0.3 0.2 0
v -0.3 0.1 0
v -0.4 0.3 0.1
v -0.4 0.2 0.1
v -0.3 0.2 0.1
v -0.3 0.3 0.1
v -0.4 0.2 0
v -0.4 0.3 0
v -0.3 0.3 0
v -0.3 0.2 0
v -0.4 0.4 0.1
v -0.4 0.3 0.1
v -0.3 0.3 0.1
v -0.3 0.4 0.1
v -0.4 0.3 0
v -0.4 0.4 0
v -0.3 0.4 0
v -0.3 0.3 0
v -0.4 0.5 0.1
v -0.4 0.4 0.1
v -0.3 0.4 0.1
v -0.3 0.5 0.1
v -0.4 0.4 0
v -0.4 0.5 0
v -0.3 0.5 0
v -0.3 0.4 0
v -0.4 0.6 0.1
v -0.4 0.5 0.1
v -0.3 0.5 0.1
v -0.3 0.6 0.1
v -0.4 0.5 0
v -0.4 0.6 0
v -0.3 0.6 0
v -0.3 0.5 0
v -0.4 0.7 0.1
v -0.4 0.6 0.1
v -0.3 0.6 0.1
v -0.3 0.7 0.1
v -0.4 0.6 0
v -0.4 0.7 0
v -0.3 0.7 0
v -0.3 0.6 0
v -0.4 0.8 0.1
v -0.4 0.7 0.1
v -0.3 0.7 0.1
v -0.3 0.8 0.1
v -0.4 0.7 0
v -0.4 0.8 0
v -0.3 0.8 0
v -0.3 0.7 0
v -0.4 0.9 0.1
v -0.4 0.8 0.1
v -0.3 0.8 0.1
v -0.3 0.9 0.1
v -0.4 0.8 0
v -0.4 0.9 0
v -0.3 0.9 0
v -0.3 0.8 0
v -0.4 1 0.1
v -0.4 0.9 0.1
v -0.3 0.9 0.1
v -0.3 1 0.1
v -0.4 0.9 0
v -0.4 1 0
v -0.3 1 0
v -0.3 0.9 0
v -0.4 1.1 0.1
v -0.4 1 0.1
v -0.3 1 0.1
v -0.3 1.1 0.1
v -0.4 1 0
v -0.4 1.1 0
v -0.3 1.1 0
v -0.3 1 0
v -0.4 1.2 0.1
v -0.4 1.1 0.1
v -0.3 1.1 0.1
v -0.3 1.2 0.1
v -0.4 1.1 0
v -0.4 1.2 0
v -0.3 1.2 0
v -0.3 1.1 0
v -0.3 1.2 0.1
v -0.3 1.2 0
v -0.4 1.2 0
v -0.4 1.2 0.1
v -0.3 -1.1 0.1
v -0.3 -1.2 0.1
v -0.2 -1.2 0.1
v -0.2 -1.1 0.1
v -0.3 -1.2 0
v -0.3 -1.1 0
v -0.2 -1.1 0
v -0.2 -1.2 0
v -0.3 -1.2 0.1
v -0.3 -1.2 0
v -0.2 -1.2 0
v -0.2 -1.2 0.1
v -0.3 -1 0.1
v -0.3 -1.1 0.1
v -0.2 -1.1 0.1
v -0.2 -1 0.1
v -0.3 -1.1 0
v -0.3 -1 0
v -0.2 -1 0
v -0.2 -1.1 0
v -0.3 -0.9 0.1
v -0.3 -1 0.1
v -0.2 -1 0.1
v -0.2 -0.9 0.1
v -0.3 -1 0
v -0.3 -0.9 0
v -0.2 -0.9 0
v -0.2 -1 0
v -0.3 -0.8 0.1
v -0.3 -0.9 0.1
v -0.2 -0.9 0.1
v -0.2 -0.8 0.1
v -0.3 -0.9 0
v -0.3 -0.8 0
v -0.2 -0.8 0
v -0.2 -0.9 0
v -0.3 -0.7 0.1
v -0.3 -0.8 0.1
v -0.2 -0.8 0.1
v -0.2 -0.7 0.1
v -0.3 -0.8 0
v -0.3 -0.7 0
v -0.2 -0.7 0
v -0.2 -0.8 0
v -0.3 -0.6 0.1
v -0.3 -0.7 0.1
v -0.2 -0.7 0.1
v -0.2 -0.6 0.1
v -0.3 -0.7 0
v -0.3 -0.6 0
v -0.2 -0.6 0
v -0.2 -0.7 0
v -0.3 -0.5 0.1
v -0.3 -0.6 0.1
v -0.2 -0.6 0.1
v -0.2 -0.5 0.1
v -0.3 -0.6 0
v -0.3 -0.5 0
v -0.2 -0.5 0
v -0.2 -0.6 0
v -0.3 -0.4 0.1
v -0.3 -0.5 0.1
v -0.2 -0.5 0.1
v -0.2 -0.4 0.1
v -0.3 -0.5 0
v -0.3 -0.4 0
v -0.2 -0.4 0
v -0.2 -0.5 0
v -0.3 -0.3 0.1
v -0.3 -0.4 0.1
v -0.2 -0.4 0.1
v -0.2 -0.3 0.1
v -0.3 -0.4 0
v -0.3 -0.3 0
v -0.2 -0.3 0
v -0.2 -0.4 0
v -0.3 -0.2 0.1
v -0.3 -0.3 0.1
v -0.2 -0.3 0.1
v -0.2 -0.2 0.1
v -0.3 -0.3 0
v -0.3 -0.2 0
v -0.2 -0.2 0
v -0.2 -0.3 0
v -0.3 -0.1 0.1
v -0.3 -0.2 0.1
v -0.2 -0.2 0.1
v -0.2 -0.1 0.1
v -0.3 -0.2 0
v -0.3 -0.1 0
v -0.2 -0.1 0
v -0.2 -0.2 0
v -0.3 0 0.1
v -0.3 -0.1 0.1
v -0.2 -0.1 0.1
v -0.2 0 0.1
v -0.3 -0.1 0
v -0.3 0 0
v -0.2 0 0
v -0.2 -0.1 0
v -0.3 0.1 0.1
v -0.3 0 0.1
v -0.2 0 0.1
v -0.2 0.1 0.1
v -0.3 0 0
v -0.3 0.1 0
v -0.2 0.1 0
v -0.2 0 0
v -0.3 0.2 0.1
v -0.3 0.1 0.1
v -0.2 0.1 0.1
v -0.2 0.2 0.1
v -0.3 0.1 0
v -0.3 0.2 0
v -0.2 0.2 0
v -0.2 0.1 0
v -0.3 0.3 0.1
v -0.3 0.2 0.1
v -0.2 0.2 0.1
v -0.2 0.3 0.1
v -0.3 0.2 0
v -0.3 0.3 0
v -0.2 0.3 0
v -0.2 0.2 0
v -0.3 0.4 0.1
v -0.3 0.3 0.1
v -0.2 0.3 0.1
v -0.2 0.4 0.1
v -0.3 0.3 0
v -0.3 0.4 0
v -0.2 0.4 0
v -0.2 0.3 0
v -0.3 0.5 0.1
v -0.3 0.4 0.1
v -0.2 0.4 0.1
v -0.2 0.5 0.1
v -0.3 0.4 0
v -0.3 0.5 0
v -0.2 0.5 0
v -0.2 0.4 0
v -0.3 0.6 0.1
v -0.3 0.5 0.1
v -0.2 0.5 0.1
v -0.2 0.6 0.1
v -0.3 0.5 0
v -0.3 0.6 0
v -0.2 0.6 0
v -0.2 0.5 0
v -0.3 0.7 0.1
v -0.3 0.6 0.1
v -0.2 0.6 0.1
v -0.2 0.7 0.1
v -0.3 0.6 0
v -0.3 0.7 0
v -0.2 0.7 0
v -0.2 0.6 0
v -0.3 0.8 0.1
v -0.3 0.7 0.1
v -0.2 0.7 0.1
v -0.2 0.8 0.1
v -0.3 0.7 0
v -0.3 0.8 0
v -0.2 0.8 0
v -0.2 0.7 0
v -0.3 0.9 0.1
v -0.3 0.8 0.1
v -0.2 0.8 0.1
v -0.2 0.9 0.1
v -0.3 0.8 0
v -0.3 0.9 0
v -0.2 0.9 0
v -0.2 0.8 0
v -0.3 1 0.1
v -0.3 0.9 0.1
v -0.2 0.9 0.1
v -0.2 1 0.1
v -0.3 0.9 0
v -0.3 1 0
v -0.2 1 0
v -0.2 0.9 0
v -0.3 1.1 0.1
v -0.3 1 0.1
v -0.2 1 0.1
v -0.2 1.1 0.1
v -0.3 1 0
v -0.3 1.1 0
v -0.2 1.1 0
v -0.2 1 0
v -0.3 1.2 0.1
v -0.3 1.1 0.1
v -0.2 1.1 0.1
v -0.2 1.2 0.1
v -0.3 1.1 0
v -0.3 1.2 0
v -0.2 1.2 0
v -0.2 1.1 0
v -0.2 1.2 0.1
v -0.2 1.2 0
v -0.3 1.2 0
v -0.3 1.2 0.1
v -0.2 -1.1 0.1
v -0.2 -1.2 0.1
v -0.1 -1.2 0.1
v -0.1 -1.1 0.1
v -0.2 -1.2 0
v -0.2 -1.1 0
v -0.1 -1.1 0
v -0.1 -1.2 0
v -0.2 -1.2 0.1
v -0.2 -1.2 0
v -0.1 -1.2 0
v -0.1 -1.2 0.1
v -0.2 -1 0.1
v -0.2 -1.1 0.1
v -0.1 -1.1 0.1
v -0.1 -1 0.1
v -0.2 -1.1 0
v -0.2 -1 0
v -0.1 -1 0
v -0.1 -1.1 0
v -0.2 -0.9 0.1
v -0.2 -1 0.1
v -0.1 -1 0.1
v -0.1 -0.9 0.1
v -0.2 -1 0
v -0.2 -0.9 0
v -0.1 -0.9 0
v -0.1 -1 0
v -0.2 -0.8 0.1
v -0.2 -0.9 0.1
v -0.1 -0.9 0.1
v -0.1 -0.8 0.1
v -0.2 -0.9 0
v -0.2 -0.8 0
v -0.1 -0.8 0
v -0.1 -0.9 0
v -0.2 -0.7 0.1
v -0.2 -0.8 0.1
v -0.1 -0.8 0.1
v -0.1 -0.7 0.1
v -0.2 -0.8 0
v -0.2 -0.7 0
v -0.1 -0.7 0
v -0.1 -0.8 0
v -0.2 -0.6 0.1
v -0.2 -0.7 0.1
v -0.1 -0.7 0.1
v -0.1 -0.6 0.1
v -0.2 -0.7 0
v -0.2 -0.6 0
v -0.1 -0.6 0
v -0.1 -0.7 0
v -0.2 -0.5 0.1
v -0.2 -0.6 0.1
v -0.1 -0.6 0.1
v -0.1 -0.5 0.1
v -0.2 -0.6 0
v -0.2 -0.5 0
v -0.1 -0.5 0
v -0.1 -0.6 0
v -0.2 -0.4 0.1
v -0.2 -0.5 0.1
v -0.1 -0.5 0.1
v -0.1 -0.4 0.1
v -0.2 -0.5 0
v -0.2 -0.4 0
v -0.1 -0.4 0
v -0.1 -0.5 0
v -0.2 -0.3 0.1
v -0.2 -0.4 0.1
v -0.1 -0.4 0.1
v -0.1 -0.3 0.1
v -0.2 -0.4 0
v -0.2 -0.3 0
v -0.1 -0.3 0
v -0.1 -0.4 0
v -0.2 -0.2 0.1
v -0.2 -0.3 0.1
v -0.1 -0.3 0.1
v -0.1 -0.2 0.1
v -0.2 -0.3 0
v -0.2 -0.2 0
v -0.1 -0.2 0
v -0.1 -0.3 0
v -0.2 -0.1 0.1
v -0.2 -0.2 0.1
v -0.1 -0.2 0.1
v -0.1 -0.1 0.1
v -0.2 -0.2 0
v -0.2 -0.1 0
v -0.1 -0.1 0
v -0.1 -0.2 0
v -0.2 0 0.1
v -0.2 -0.1 0.1
v -0.1 -0.1 0.1
v -0.1 0 0.1
v -0.2 -0.1 0
v -0.2 0 0
v -0.1 0 0
v -0.1 -0.1 0
v -0.2 0.1 0.1
v -0.2 0 0.1
v -0.1 0 0.1
v -0.1 0.1 0.1
v -0.2 0 0
v -0.2 0.1 0
v -0.1 0.1 0
v -0.1 0 0
v -0.2 0.2 0.1
v -0.2 0.1 0.1
v -0.1 0.1 0.1
v -0.1 0.2 0.1
v -0.2 0.1 0
v -0.2 0.2 0
v -0.1 0.2 0
v -0.1 0.1 0
v -0.2 0.3 0.1
v -0.2 0.2 0.1
v -0.1 0.2 0.1
v -0.1 0.3 0.1
v -0.2 0.2 0
v -0.2 0.3 0
v -0.1 0.3 0
v -0.1 0.2 0
v -0.2 0.4 0.1
v -0.2 0.3 0.1
v -0.1 0.3 0.1
v -0.1 0.4 0.1
v -0.2 0.3 0
v -0.2 0.4 0
v -0.1 0.4 0
v -0.1 0.3 0
v -0.2 0.5 0.1
v -0.2 0.4 0.1
v -0.1 0.4 0.1
v -0.1 0.5 0.1
v -0.2 0.4 0
v -0.2 0.5 0
v -0.1 0.5 0
v -0.1 0.4 0
v -0.2 0.6 0.1
v -0.2 0.5 0.1
v -0.1 0.5 0.1
v -0.1 0.6 0.1
v -0.2 0.5 0
v -0.2 0.6 0
v -0.1 0.6 0
v -0.1 0.5 0
v -0.2 0.7 0.1
v -0.2 0.6 0.1
v -0.1 0.6 0.1
v -0.1 0.7 0.1
v -0.2 0.6 0
v -0.2 0.7 0
v -0.1 0.7 0
v -0.1 0.6 0
v -0.2 0.8 0.1
v -0.2 0.7 0.1
v -0.1 0.7 0.1
v -0.1 0.8 0.1
v -0.2 0.7 0
v -0.2 0.8 0
v -0.1 0.8 0
v -0.1 0.7 0
v -0.2 0.9 0.1
v -0.2 0.8 0.1
v -0.1 0.8 0.1
v -0.1 0.9 0.1
v -0.2 0.8 0
v -0.2 0.9 0
v -0.1 0.9 0
v -0.1 0.8 0
v -0.2 1 0.1
v -0.2 0.9 0.1
v -0.1 0.9 0.1
v -0.1 1 0.1
v -0.2 0.9 0
v -0.2 1 0
v -0.1 1 0
v -0.1 0.9 0
v -0.2 1.1 0.1
v -0.2 1 0.1
v -0.1 1 0.1
v -0.1 1.1 0.1
v -0.2 1 0
v -0.2 1.1 0
v -0.1 1.1 0
v -0.1 1 0
v -0.2 1.2 0.1
v -0.2 1.1 0.1
v -0.1 1.1 0.1
v -0.1 1.2 0.1
v -0.2 1.1 0
v -0.2 1.2 0
v -0.1 1.2 0
v -0.1 1.1 0
v -0.1 1.2 0.1
v -0.1 1.2 0
v -0.2 1.2 0
v -0.2 1.2 0.1
v -0.1 -1.1 0.1
v -0.1 -1.2 0.1
v 0 -1.2 0.1
v 0 -1.1 0.1
v -0.1 -1.2 0
v -0.1 -1.1 0
v 0 -1.1 0
v 0 -1.2 0
v -0.1 -1.2 0.1
v -0.1 -1.2 0
v 0 -1.2 0
v 0 -1.2 0.1
v -0.1 -1 0.1
v -0.1 -1.1 0.1
v 0 -1.1 0.1
v 0 -1 0.1
v -0.1 -1.1 0
v -0.1 -1 0
v 0 -1 0
v 0 -1.1 0
v -0.1 -0.9 0.1
v -0.1 -1 0.1
v 0 -1 0.1
v 0 -0.9 0.1
v -0.1 -1 0
v -0.1 -0.9 0
v 0 -0.9 0
v 0 -1 0
v -0.1 -0.8 0.1
v -0.1 -0.9 0.1
v 0 -0.9 0.1
v 0 -0.8 0.1
v -0.1 -0.9 0
v -0.1 -0.8 0
v 0 -0.8 0
v 0 -0.9 0
v -0.1 -0.7 0.1
v -0.1 -0.8 0.1
v 0 -0.8 0.1
v 0 -0.7 0.1
v -0.1 -0.8 0
v -0.1 -0.7 0
v 0 -0.7 0
v 0 -0.8 0
v -0.1 -0.6 0.1
v -0.1 -0.7 0.1
v 0 -0.7 0.1
v 0 -0.6 0.1
v -0.1 -0.7 0
v -0.1 -0.6 0
v 0 -0.6 0
v 0 -0.7 0
v -0.1 -0.5 0.1
v -0.1 -0.6 0.1
v 0 -0.6 0.1
v 0 -0.5 0.1
v -0.1 -0.6 0
v -0.1 -0.5 0
v 0 -0.5 0
v 0 -0.6 0
v -0.1 -0.4 0.1
v -0.1 -0.5 0.1
v 0 -0.5 0.1
v 0 -0.4 0.1
v -0.1 -0.5 0
v -0.1 -0.4 0
v 0 -0.4 0
v 0 -0.5 0
v -0.1 -0.3 0.1
v -0.1 -0.4 0.1
v 0 -0.4 0.1
v 0 -0.3 0.1
v -0.1 -0.4 0
v -0.1 -0.3 0
v 0 -0.3 0
v 0 -0.4 0
v -0.1 -0.2 0.1
v -0.1 -0.3 0.1
v 0 -0.3 0.1
v 0 -0.2 0.1
v -0.1 -0.3 0
v -0.1 -0.2 0
v 0 -0.2 0
v 0 -0.3 0
v 0 -0.2 0.1
v 0 -0.2 0
v 0 -0.1 0
v 0 -0.1 0.1
v -0.1 -0.1 0.1
v -0.1 -0.2 0.1
v 0 -0.2 0.1
v 0 -0.1 0.1
v -0.1 -0.2 0
v -0.1 -0.1 0
v 0 -0.1 0
v 0 -0.2 0
v 0 -0.1 0.1
v 0 -0.1 0
v 0 0 0
v 0 0 0.1
v -0.1 0 0.1
v -0.1 -0.1 0.1
v 0 -0.1 0.1
v 0 0 0.1
v -0.1 -0.1 0
v -0.1 0 0
v 0 0 0
v 0 -0.1 0
v 0 0 0.1
v 0 0 0
v 0 0.1 0
v 0 0.1 0.1
v -0.1 0.1 0.1
v -0.1 0 0.1
v 0 0 0.1
v 0 0.1 0.1
v -0.1 0 0
v -0.1 0.1 0
v 0 0.1 0
v 0 0 0
v 0 0.1 0.1
v 0 0.1 0
v 0 0.2 0
v 0 0.2 0.1
v -0.1 0.2 0.1
v -0.1 0.1 0.1
v 0 0.1 0.1
v 0 0.2 0.1
v -0.1 0.1 0
v -0.1 0.2 0
v 0 0.2 0
v 0 0.1 0
v 0 0.2 0.1
v 0 0.2 0
v 0 0.3 0
v 0 0.3 0.1
v -0.1 0.3 0.1
v -0.1 0.2 0.1
v 0 0.2 0.1
v 0 0.3 0.1
v -0.1 0.2 0
v -0.1 0.3 0
v 0 0.3 0
v 0 0.2 0
v 0 0.3 0.1
v 0 0.3 0
v 0 0.4 0
v 0 0.4 0.1
v -0.1 0.4 0.1
v -0.1 0.3 0.1
v 0 0.3 0.1
v 0 0.4 0.1
v -0.1 0.3 0
v -0.1 0.4 0
v 0 0.4 0
v 0 0.3 0
v 0 0.4 0.1
v 0 0.4 0
v 0 0.5 0
v 0 0.5 0.1
v -0.1 0.5 0.1
v -0.1 0.4 0.1
v 0 0.4 0.1
v 0 0.5 0.1
v -0.1 0.4 0
v -0.1 0.5 0
v 0 0.5 0
v 0 0.4 0
v 0 0.5 0.1
v 0 0.5 0
v 0 0.6 0
v 0 0.6 0.1
v -0.1 0.6 0.1
v -0.1 0.5 0.1
v 0 0.5 0.1
v 0 0.6 0.1
v -0.1 0.5 0
v -0.1 0.6 0
v 0 0.6 0
v 0 0.5 0
v 0 0.6 0.1
v 0 0.6 0
v 0 0.7 0
v 0 0.7 0.1
v -0.1 0.7 0.1
v -0.1 0.6 0.1
v 0 0.6 0.1
v 0 0.7 0.1
v -0.1 0.6 0
v -0.1 0.7 0
v 0 0.7 0
v 0 0.6 0
v 0 0.7 0.1
v 0 0.7 0
v 0 0.8 0
v 0 0.8 0.1
v -0.1 0.8 0.1
v -0.1 0.7 0.1
v 0 0.7 0.1
v 0 0.8 0.1
v -0.1 0.7 0
v -0.1 0.8 0
v 0 0.8 0
v 0 0.7 0
v 0 0.8 0.1
v 0 0.8 0
v 0 0.9 0
v 0 0.9 0.1
v -0.1 0.9 0.1
v -0.1 0.8 0.1
v 0 0.8 0.1
v 0 0.9 0.1
v -0.1 0.8 0
v -0.1 0.9 0
v 0 0.9 0
v 0 0.8 0
v 0 0.9 0.1
v 0 0.9 0
v 0 1 0
v 0 1 0.1
v -0.1 1 0.1
v -0.1 0.9 0.1
v 0 0.9 0.1
v 0 1 0.1
v -0.1 0.9 0
v -0.1 1 0
v 0 1 0
v 0 0.9 0
v 0 1 0.1
v 0 1 0
v 0 1.1 0
v 0 1.1 0.1
v -0.1 1.1 0.1
v -0.1 1 0.1
v 0 1 0.1
v 0 1.1 0.1
v -0.1 1 0
v -0.1 1.1 0
v 0 1.1 0
v 0 1 0
v 0 1.1 0.1
v 0 1.1 0
v 0 1.2 0
v 0 1.2 0.1
v -0.1 1.2 0.1
v -0.1 1.1 0.1
v 0 1.1 0.1
v 0 1.2 0.1
v -0.1 1.1 0
v -0.1 1.2 0
v 0 1.2 0
v 0 1.1 0
v 0 1.2 0.1
v 0 1.2 0
v -0.1 1.2 0
v -0.1 1.2 0.1
v 0 -1.1 0.1
v 0 -1.2 0.1
v 0.1 -1.2 0.1
v 0.1 -1.1 0.1
v 0 -1.2 0
v 0 -1.1 0
v 0.1 -1.1 0
v 0.1 -1.2 0
v 0 -1.2 0.1
v 0 -1.2 0
v 0.1 -1.2 0
v 0.1 -1.2 0.1
v 0 -1 0.1
v 0 -1.1 0.1
v 0.1 -1.1 0.1
v 0.1 -1 0.1
v 0 -1.1 0
v 0 -1 0
v 0.1 -1 0
v 0.1 -1.1 0
v 0 -0.9 0.1
v 0 -1 0.1
v 0.1 -1 0.1
v 0.1 -0.9 0.1
v 0 -1 0
v 0 -0.9 0
v 0.1 -0.9 0
v 0.1 -1 0
v 0 -0.8 0.1
v 0 -0.9 0.1
v 0.1 -0.9 0.1
v 0.1 -0.8 0.1
v 0 -0.9 0
v 0 -0.8 0
v 0.1 -0.8 0
v 0.1 -0.9 0
v 0 -0.7 0.1
v 0 -0.8 0.1
v 0.1 -0.8 0.1
v 0.1 -0.7 0.1
v 0 -0.8 0
v 0 -0.7 0
v 0.1 -0.7 0
v 0.1 -0.8 0
v 0 -0.6 0.1
v 0 -0.7 0.1
v 0.1 -0.7 0.1
v 0.1 -0.6 0.1
v 0 -0.7 0
v 0 -0.6 0
v 0.1 -0.6 0
v 0.1 -0.7 0
v 0.1 -0.6 0.1
v 0.1 -0.6 0
v 0.1 -0.5 0
v 0.1 -0.5 0.1
v 0 -0.5 0.1
v 0 -0.6 0.1
v 0.1 -0.6 0.1
v 0.1 -0.5 0.1
v 0 -0.6 0
v 0 -0.5 0
v 0.1 -0.5 0
v 0.1 -0.6 0
v 0.1 -0.5 0.1
v 0.1 -0.5 0
v 0.1 -0.4 0
v 0.1 -0.4 0.1
v 0 -0.4 0.1
v 0 -0.5 0.1
v 0.1 -0.5 0.1
v 0.1 -0.4 0.1
v 0 -0.5 0
v 0 -0.4 0
v 0.1 -0.4 0
v 0.1 -0.5 0
v 0.1 -0.4 0.1
v 0.1 -0.4 0
v 0.1 -0.3 0
v 0.1 -0.3 0.1
v 0 -0.3 0.1
v 0 -0.4 0.1
v 0.1 -0.4 0.1
v 0.1 -0.3 0.1
v 0 -0.4 0
v 0 -0.3 0
v 0.1 -0.3 0
v 0.1 -0.4 0
v 0.1 -0.3 0.1
v 0.1 -0.3 0
v 0.1 -0.2 0
v 0.1 -0.2 0.1
v 0 -0.2 0.1
v 0 -0.3 0.1
v 0.1 -0.3 0.1
v 0.1 -0.2 0.1
v 0 -0.3 0
v 0 -0.2 0
v 0.1 -0.2 0
v 0.1 -0.3 0
v 0.1 -0.2 0.1
v 0.1 -0.2 0
v 0 -0.2 0
v 0 -0.2 0.1
v 0.1 -1.1 0.1
v 0.1 -1.2 0.1
v 0.2 -1.2 0.1
v 0.2 -1.1 0.1
v 0.1 -1.2 0
v 0.1 -1.1 0
v 0.2 -1.1 0
v 0.2 -1.2 0
v 0.1 -1.2 0.1
v 0.1 -1.2 0
v 0.2 -1.2 0
v 0.2 -1.2 0.1
v 0.1 -1 0.1
v 0.1 -1.1 0.1
v 0.2 -1.1 0.1
v 0.2 -1 0.1
v 0.1 -1.1 0
v 0.1 -1 0
v 0.2 -1 0
v 0.2 -1.1 0
v 0.1 -0.9 0.1
v 0.1 -1 0.1
v 0.2 -1 0.1
v 0.2 -0.9 0.1
v 0.1 -1 0
v 0.1 -0.9 0
v 0.2 -0.9 0
v 0.2 -1 0
v 0.1 -0.8 0.1
v 0.1 -0.9 0.1
v 0.2 -0.9 0.1
v 0.2 -0.8 0.1
v 0.1 -0.9 0
v 0.1 -0.8 0
v 0.2 -0.8 0
v 0.2 -0.9 0
v 0.1 -0.7 0.1
v 0.1 -0.8 0.1
v 0.2 -0.8 0.1
v 0.2 -0.7 0.1
v 0.1 -0.8 0
v 0.1 -0.7 0
v 0.2 -0.7 0
v 0.2 -0.8 0
v 0.2 -0.7 0.1
v 0.2 -0.7 0
v 0.2 -0.6 0
v 0.2 -0.6 0.1
v 0.1 -0.6 0.1
v 0.1 -0.7 0.1
v 0.2 -0.7 0.1
v 0.2 -0.6 0.1
v 0.1 -0.7 0
v 0.1 -0.6 0
v 0.2 -0.6 0
v 0.2 -0.7 0
v 0.2 -0.6 0.1
v 0.2 -0.6 0
v 0.1 -0.6 0
v 0.1 -0.6 0.1
v 0.2 -1.1 0.1
v 0.2 -1.2 0.1
v 0.3 -1.2 0.1
v 0.3 -1.1 0.1
v 0.2 -1.2 0
v 0.2 -1.1 0
v 0.3 -1.1 0
v 0.3 -1.2 0
v 0.2 -1.2 0.1
v 0.2 -1.2 0
v 0.3 -1.2 0
v 0.3 -1.2 0.1
v 0.2 -1 0.1
v 0.2 -1.1 0.1
v 0.3 -1.1 0.1
v 0.3 -1 0.1
v 0.2 -1.1 0
v 0.2 -1 0
v 0.3 -1 0
v 0.3 -1.1 0
v 0.2 -0.9 0.1
v 0.2 -1 0.1
v 0.3 -1 0.1
v 0.3 -0.9 0.1
v 0.2 -1 0
v 0.2 -0.9 0
v 0.3 -0.9 0
v 0.3 -1 0
v 0.2 -0.8 0.1
v 0.2 -0.9 0.1
v 0.3 -0.9 0.1
v 0.3 -0.8 0.1
v 0.2 -0.9 0
v 0.2 -0.8 0
v 0.3 -0.8 0
v 0.3 -0.9 0
v 0.3 -0.8 0.1
v 0.3 -0.8 0
v 0.3 -0.7 0
v 0.3 -0.7 0.1
v 0.2 -0.7 0.1
v 0.2 -0.8 0.1
v 0.3 -0.8 0.1
v 0.3 -0.7 0.1
v 0.2 -0.8 0
v 0.2 -0.7 0
v 0.3 -0.7 0
v 0.3 -0.8 0
v 0.3 -0.7 0.1
v 0.3 -0.7 0
v 0.2 -0.7 0
v 0.2 -0.7 0.1
v 0.3 -1.1 0.1
v 0.3 -1.2 0.1
v 0.4 -1.2 0.1
v 0.4 -1.1 0.1
v 0.3 -1.2 0
v 0.3 -1.1 0
v 0.4 -1.1 0
v 0.4 -1.2 0
v 0.3 -1.2 0.1
v 0.3 -1.2 0
v 0.4 -1.2 0
v 0.4 -1.2 0.1
v 0.3 -1 0.1
v 0.3 -1.1 0.1
v 0.4 -1.1 0.1
v 0.4 -1 0.1
v 0.3 -1.1 0
v 0.3 -1 0
v 0.4 -1 0
v 0.4 -1.1 0
v 0.3 -0.9 0.1
v 0.3 -1 0.1
v 0.4 -1 0.1
v 0.4 -0.9 0.1
v 0.3 -1 0
v 0.3 -0.9 0
v 0.4 -0.9 0
v 0.4 -1 0
v 0.4 -0.9 0.1
v 0.4 -0.9 0
v 0.4 -0.8 0
v 0.4 -0.8 0.1
v 0.3 -0.8 0.1
v 0.3 -0.9 0.1
v 0.4 -0.9 0.1
v 0.4 -0.8 0.1
v 0.3 -0.9 0
v 0.3 -0.8 0
v 0.4 -0.8 0
v 0.4 -0.9 0
v 0.4 -0.8 0.1
v 0.4 -0.8 0
v 0.3 -0.8 0
v 0.3 -0.8 0.1
v 0.4 -1.1 0.1
v 0.4 -1.2 0.1
v 0.5 -1.2 0.1
v 0.5 -1.1 0.1
v 0.4 -1.2 0
v 0.4 -1.1 0
v 0.5 -1.1 0
v 0.5 -1.2 0
v 0.4 -1.2 0.1
v 0.4 -1.2 0
v 0.5 -1.2 0
v 0.5 -1.2 0.1
v 0.4 -1 0.1
v 0.4 -1.1 0.1
v 0.5 -1.1 0.1
v 0.5 -1 0.1
v 0.4 -1.1 0
v 0.4 -1 0
v 0.5 -1 0
v 0.5 -1.1 0
v 0.5 -1 0.1
v 0.5 -1 0
v 0.5 -0.9 0
v 0.5 -0.9 0.1
v 0.4 -0.9 0.1
v 0.4 -1 0.1
v 0.5 -1 0.1
v 0.5 -0.9 0.1
v 0.4 -1 0
v 0.4 -0.9 0
v 0.5 -0.9 0
v 0.5 -1 0
v 0.5 -0.9 0.1
v 0.5 -0.9 0
v 0.4 -0.9 0
v 0.4 -0.9 0.1
v 0.5 -1.1 0.1
v 0.5 -1.2 0.1
v 0.6 -1.2 0.1
v 0.6 -1.1 0.1
v 0.5 -1.2 0
v 0.5 -1.1 0
v 0.6 -1.1 0
v 0.6 -1.2 0
v 0.5 -1.2 0.1
v 0.5 -1.2 0
v 0.6 -1.2 0
v 0.6 -1.2 0.1
v 0.5 -1 0.1
v 0.5 -1.1 0.1
v 0.6 -1.1 0.1
v 0.6 -1 0.1
v 0.5 -1.1 0
v 0.5 -1 0
v 0.6 -1 0
v 0.6 -1.1 0
v 0.6 -1 0.1
v 0.6 -1 0
v 0.5 -1 0
v 0.5 -1 0.1
v 0.6 -1.1 0.1
v 0.6 -1.2 0.1
v 0.7 -1.2 0.1
v 0.7 -1.1 0.1
v 0.6 -1.2 0
v 0.6 -1.1 0
v 0.7 -1.1 0
v 0.7 -1.2 0
v 0.6 -1.2 0.1
v 0.6 -1.2 0
v 0.7 -1.2 0
v 0.7 -1.2 0.1
v 0.6 -1 0.1
v 0.6 -1.1 0.1
v 0.7 -1.1 0.1
v 0.7 -1 0.1
v 0.6 -1.1 0
v 0.6 -1 0
v 0.7 -1 0
v 0.7 -1.1 0
v 0.7 -1 0.1
v 0.7 -1 0
v 0.6 -1 0
v 0.6 -1 0.1
v 0.7 -1.1 0.1
v 0.7 -1.2 0.1
v 0.8 -1.2 0.1
v 0.8 -1.1 0.1
v 0.7 -1.2 0
v 0.7 -1.1 0
v 0.8 -1.1 0
v 0.8 -1.2 0
v 0.7 -1.2 0.1
v 0.7 -1.2 0
v 0.8 -1.2 0
v 0.8 -1.2 0.1
v 0.7 -1 0.1
v 0.7 -1.1 0.1
v 0.8 -1.1 0.1
v 0.8 -1 0.1
v 0.7 -1.1 0
v 0.7 -1 0
v 0.8 -1 0
v 0.8 -1.1 0
v 0.7 -0.9 0.1
v 0.7 -0.9 0
v 0.7 -1 0
v 0.7 -1 0.1
v 0.7 -0.9 0.1
v 0.7 -1 0.1
v 0.8 -1 0.1
v 0.8 -0.9 0.1
v 0.7 -1 0
v 0.7 -0.9 0
v 0.8 -0.9 0
v 0.8 -1 0
v 0.8 -0.9 0.1
v 0.8 -0.9 0
v 0.7 -0.9 0
v 0.7 -0.9 0.1
v 0.8 -1.1 0.1
v 0.8 -1.2 0.1
v 0.9 -1.2 0.1
v 0.9 -1.1 0.1
v 0.8 -1.2 0
v 0.8 -1.1 0
v 0.9 -1.1 0
v 0.9 -1.2 0
v 0.8 -1.2 0.1
v 0.8 -1.2 0
v 0.9 -1.2 0
v 0.9 -1.2 0.1
v 0.8 -1 0.1
v 0.8 -1.1 0.1
v 0.9 -1.1 0.1
v 0.9 -1 0.1
v 0.8 -1.1 0
v 0.8 -1 0
v 0.9 -1 0
v 0.9 -1.1 0
v 0.9 -1 0.1
v 0.9 -1 0
v 0.9 -0.9 0
v 0.9 -0.9 0.1
v 0.8 -0.9 0.1
v 0.8 -1 0.1
v 0.9 -1 0.1
v 0.9 -0.9 0.1
v 0.8 -1 0
v 0.8 -0.9 0
v 0.9 -0.9 0
v 0.9 -1 0
v 0.9 -0.9 0.1
v 0.9 -0.9 0
v 0.8 -0.9 0
v 0.8 -0.9 0.1
v 0.9 -1.1 0.1
v 0.9 -1.2 0.1
v 1 -1.2 0.1
v 1 -1.1 0.1
v 0.9 -1.2 0
v 0.9 -1.1 0
v 1 -1.1 0
v 1 -1.2 0
v 0.9 -1.2 0.1
v 0.9 -1.2 0
v 1 -1.2 0
v 1 -1.2 0.1
v 1 -1.1 0.1
v 1 -1.1 0
v 1 -1 0
v 1 -1 0.1
v 0.9 -1 0.1
v 0.9 -1.1 0.1
v 1 -1.1 0.1
v 1 -1 0.1
v 0.9 -1.1 0
v 0.9 -1 0
v 1 -1 0
v 1 -1.1 0
v 1 -1 0.1
v 1 -1 0
v 0.9 -1 0
v 0.9 -1 0.1
v 1 -1.1 0.1
v 1 -1.2 0.1
v 1.1 -1.2 0.1
v 1.1 -1.1 0.1
v 1 -1.2 0
v 1 -1.1 0
v 1.1 -1.1 0
v 1.1 -1.2 0
v 1 -1.2 0.1
v 1 -1.2 0
v 1.1 -1.2 0
v 1.1 -1.2 0.1
v 1.1 -1.1 0.1
v 1.1 -1.1 0
v 1 -1.1 0
v 1 -1.1 0.1
v 1.2 -1.2 0.1
v 1.2 -1.2 0
v 1.2 -1.1 0
v 1.2 -1.1 0.1
v 1.1 -1.1 0.1
v 1.1 -1.2 0.1
v 1.2 -1.2 0.1
v 1.2 -1.1 0.1
v 1.1 -1.2 0
v 1.1 -1.1 0
v 1.2 -1.1 0
v 1.2 -1.2 0
v 1.1 -1.2 0.1
v 1.1 -1.2 0
v 1.2 -1.2 0
v 1.2 -1.2 0.1
v 1.1 -1 0.1
v 1.1 -1 0
v 1.1 -1.1 0
v 1.1 -1.1 0.1
v 1.2 -1.1 0.1
v 1.2 -1.1 0
v 1.2 -1 0
v 1.2 -1 0.1
v 1.1 -1 0.1
v 1.1 -1.1 0.1
v 1.2 -1.1 0.1
v 1.2 -1 0.1
v 1.1 -1.1 0
v 1.1 -1 0
v 1.2 -1 0
v 1.2 -1.1 0
v 1.2 -1 0.1
v 1.2 -1 0
v 1.1 -1 0
v 1.1 -1 0.1

# faces
f 1/1/1 2/1/1 3/1/1 4/1/1
f 5/1/3 6/1/3 7/1/3 8/1/3
f 9/1/4 10/1/4 11/1/4 12/1/4
f 13/1/5 14/1/5 15/1/5 16/1/5
f 17/1/1 18/1/1 19/1/1 20/1/1
f 21/1/3 22/1/3 23/1/3 24/1/3
f 25/1/4 26/1/4 27/1/4 28/1/4
f 29/1/1 30/1/1 31/1/1 32/1/1
f 33/1/3 34/1/3 35/1/3 36/1/3
f 37/1/4 38/1/4 39/1/4 40/1/4
f 41/1/1 42/1/1 43/1/1 44/1/1
f 45/1/3 46/1/3 47/1/3 48/1/3
f 49/1/4 50/1/4 51/1/4 52/1/4
f 53/1/1 54/1/1 55/1/1 56/1/1
f 57/1/3 58/1/3 59/1/3 60/1/3
f 61/1/4 62/1/4 63/1/4 64/1/4
f 65/1/1 66/1/1 67/1/1 68/1/1
f 69/1/3 70/1/3 71/1/3 72/1/3
f 73/1/4 74/1/4 75/1/4 76/1/4
f 77/1/1 78/1/1 79/1/1 80/1/1
f 81/1/3 82/1/3 83/1/3 84/1/3
f 85/1/4 86/1/4 87/1/4 88/1/4
f 89/2/1 90/2/1 91/2/1 92/2/1
f 93/2/3 94/2/3 95/2/3 96/2/3
f 97/2/4 98/2/4 99/2/4 100/2/4
f 101/4/1 102/4/1 103/4/1 104/4/1
f 105/4/3 106/4/3 107/4/3 108/4/3
f 109/4/4 110/4/4 111/4/4 112/4/4
f 113/4/1 114/4/1 115/4/1 116/4/1
f 117/4/3 118/4/3 119/4/3 120/4/3
f 121/4/4 122/4/4 123/4/4 124/4/4
f 125/4/1 126/4/1 127/4/1 128/4/1
f 129/4/3 130/4/3 131/4/3 132/4/3
f 133/4/4 134/4/4 135/4/4 136/4/4
f 137/3/1 138/3/1 139/3/1 140/3/1
f 141/3/3 142/3/3 143/3/3 144/3/3
f 145/3/4 146/3/4 147/3/4 148/3/4
f 149/1/1 150/1/1 151/1/1 152/1/1
f 153/1/3 154/1/3 155/1/3 156/1/3
f 157/1/4 158/1/4 159/1/4 160/1/4
f 161/1/1 162/1/1 163/1/1 164/1/1
f 165/1/3 166/1/3 167/1/3 168/1/3
f 169/1/4 170/1/4 171/1/4 172/1/4
f 173/1/1 174/1/1 175/1/1 176/1/1
f 177/1/3 178/1/3 179/1/3 180/1/3
f 181/1/4 182/1/4 183/1/4 184/1/4
f 185/1/1 186/1/1 187/1/1 188/1/1
f 189/1/3 190/1/3 191/1/3 192/1/3
f 193/1/4 194/1/4 195/1/4 196/1/4
f 197/1/1 198/1/1 199/1/1 200/1/1
f 201/1/3 202/1/3 203/1/3 204/1/3
f 205/1/4 206/1/4 207/1/4 208/1/4
f 209/1/1 210/1/1 211/1/1 212/1/1
f 213/1/3 214/1/3 215/1/3 216/1/3
f 217/1/4 218/1/4 219/1/4 220/1/4
f 221/1/1 222/1/1 223/1/1 224/1/1
f 225/1/3 226/1/3 227/1/3 228/1/3
f 229/1/4 230/1/4 231/1/4 232/1/4
f 233/1/1 234/1/1 235/1/1 236/1/1
f 237/1/3 238/1/3 239/1/3 240/1/3
f 241/1/4 242/1/4 243/1/4 244/1/4
f 245/1/1 246/1/1 247/1/1 248/1/1
f 249/1/3 250/1/3 251/1/3 252/1/3
f 253/1/4 254/1/4 255/1/4 256/1/4
f 257/3/1 258/3/1 259/3/1 260/3/1
f 261/3/3 262/3/3 263/3/3 264/3/3
f 265/3/4 266/3/4 267/3/4 268/3/4
f 269/2/1 270/2/1 271/2/1 272/2/1
f 273/2/3 274/2/3 275/2/3 276/2/3
f 277/2/4 278/2/4 279/2/4 280/2/4
f 281/2/1 282/2/1 283/2/1 284/2/1
f 285/2/3 286/2/3 287/2/3 288/2/3
f 289/2/4 290/2/4 291/2/4 292/2/4
f 293/2/6 294/2/6 295/2/6 296/2/6
f 297/3/3 298/3/3 299/3/3 300/3/3
f 301/3/4 302/3/4 303/3/4 304/3/4
f 305/3/5 306/3/5 307/3/5 308/3/5
f 309/3/3 310/3/3 311/3/3 312/3/3
f 313/3/4 314/3/4 315/3/4 316/3/4
f 317/3/3 318/3/3 319/3/3 320/3/3
f 321/3/4 322/3/4 323/3/4 324/3/4
f 325/1/3 326/1/3 327/1/3 328/1/3
f 329/1/4 330/1/4 331/1/4 332/1/4
f 333/1/3 334/1/3 335/1/3 336/1/3
f 337/1/4 338/1/4 339/1/4 340/1/4
f 341/1/3 342/1/3 343/1/3 344/1/3
f 345/1/4 346/1/4 347/1/4 348/1/4
f 349/3/3 350/3/3 351/3/3 352/3/3
f 353/3/4 354/3/4 355/3/4 356/3/4
f 357/4/3 358/4/3 359/4/3 360/4/3
f 361/4/4 362/4/4 363/4/4 364/4/4
f 365/4/3 366/4/3 367/4/3 368/4/3
f 369/4/4 370/4/4 371/4/4 372/4/4
f 373/4/3 374/4/3 375/4/3 376/4/3
f 377/4/4 378/4/4 379/4/4 380/4/4
f 381/3/3 382/3/3 383/3/3 384/3/3
f 385/3/4 386/3/4 387/3/4 388/3/4
f 389/1/3 390/1/3 391/1/3 392/1/3
f 393/1/4 394/1/4 395/1/4 396/1/4
f 397/1/3 398/1/3 399/1/3 400/1/3
f 401/1/4 402/1/4 403/1/4 404/1/4
f 405/1/3 406/1/3 407/1/3 408/1/3
f 409/1/4 410/1/4 411/1/4 412/1/4
f 413/1/3 414/1/3 415/1/3 416/1/3
f 417/1/4 418/1/4 419/1/4 420/1/4
f 421/1/3 422/1/3 423/1/3 424/1/3
f 425/1/4 426/1/4 427/1/4 428/1/4
f 429/1/3 430/1/3 431/1/3 432/1/3
f 433/1/4 434/1/4 435/1/4 436/1/4
f 437/1/3 438/1/3 439/1/3 440/1/3
f 441/1/4 442/1/4 443/1/4 444/1/4
f 445/1/3 446/1/3 447/1/3 448/1/3
f 449/1/4 450/1/4 451/1/4 452/1/4
f 453/1/3 454/1/3 455/1/3 456/1/3
f 457/1/4 458/1/4 459/1/4 460/1/4
f 461/2/3 462/2/3 463/2/3 464/2/3
f 465/2/4 466/2/4 467/2/4 468/2/4
f 469/4/3 470/4/3 471/4/3 472/4/3
f 473/4/4 474/4/4 475/4/4 476/4/4
f 477/4/3 478/4/3 479/4/3 480/4/3
f 481/4/4 482/4/4 483/4/4 484/4/4
f 485/2/3 486/2/3 487/2/3 488/2/3
f 489/2/4 490/2/4 491/2/4 492/2/4
f 493/2/6 494/2/6 495/2/6 496/2/6
f 497/2/3 498/2/3 499/2/3 500/2/3
f 501/2/4 502/2/4 503/2/4 504/2/4
f 505/2/5 506/2/5 507/2/5 508/2/5
f 509/2/3 510/2/3 511/2/3 512/2/3
f 513/2/4 514/2/4 515/2/4 516/2/4
f 517/3/3 518/3/3 519/3/3 520/3/3
f 521/3/4 522/3/4 523/3/4 524/3/4
f 525/1/3 526/1/3 527/1/3 528/1/3
f 529/1/4 530/1/4 531/1/4 532/1/4
f 533/1/3 534/1/3 535/1/3 536/1/3
f 537/1/4 538/1/4 539/1/4 540/1/4
f 541/1/3 542/1/3 543/1/3 544/1/3
f 545/1/4 546/1/4 547/1/4 548/1/4
f 549/3/3 550/3/3 551/3/3 552/3/3
f 553/3/4 554/3/4 555/3/4 556/3/4
f 557/2/3 558/2/3 559/2/3 560/2/3
f 561/2/4 562/2/4 563/2/4 564/2/4
f 565/2/3 566/2/3 567/2/3 568/2/3
f 569/2/4 570/2/4 571/2/4 572/2/4
f 573/1/3 574/1/3 575/1/3 576/1/3
f 577/1/4 578/1/4 579/1/4 580/1/4
f 581/1/3 582/1/3 583/1/3 584/1/3
f 585/1/4 586/1/4 587/1/4 588/1/4
f 589/1/3 590/1/3 591/1/3 592/1/3
f 593/1/4 594/1/4 595/1/4 596/1/4
f 597/1/3 598/1/3 599/1/3 600/1/3
f 601/1/4 602/1/4 603/1/4 604/1/4
f 605/1/3 606/1/3 607/1/3 608/1/3
f 609/1/4 610/1/4 611/1/4 612/1/4
f 613/1/3 614/1/3 615/1/3 616/1/3
f 617/1/4 618/1/4 619/1/4 620/1/4
f 621/1/3 622/1/3 623/1/3 624/1/3
f 625/1/4 626/1/4 627/1/4 628/1/4
f 629/1/3 630/1/3 631/1/3 632/1/3
f 633/1/4 634/1/4 635/1/4 636/1/4
f 637/1/3 638/1/3 639/1/3 640/1/3
f 641/1/4 642/1/4 643/1/4 644/1/4
f 645/1/3 646/1/3 647/1/3 648/1/3
f 649/1/4 650/1/4 651/1/4 652/1/4
f 653/2/3 654/2/3 655/2/3 656/2/3
f 657/2/4 658/2/4 659/2/4 660/2/4
f 661/4/3 662/4/3 663/4/3 664/4/3
f 665/4/4 666/4/4 667/4/4 668/4/4
f 669/4/3 670/4/3 671/4/3 672/4/3
f 673/4/4 674/4/4 675/4/4 676/4/4
f 677/4/3 678/4/3 679/4/3 680/4/3
f 681/4/4 682/4/4 683/4/4 684/4/4
f 685/2/3 686/2/3 687/2/3 688/2/3
f 689/2/4 690/2/4 691/2/4 692/2/4
f 693/2/6 694/2/6 695/2/6 696/2/6
f 697/4/3 698/4/3 699/4/3 700/4/3
f 701/4/4 702/4/4 703/4/4 704/4/4
f 705/4/5 706/4/5 707/4/5 708/4/5
f 709/2/3 710/2/3 711/2/3 712/2/3
f 713/2/4 714/2/4 715/2/4 716/2/4
f 717/3/3 718/3/3 719/3/3 720/3/3
f 721/3/4 722/3/4 723/3/4 724/3/4
f 725/3/3 726/3/3 727/3/3 728/3/3
f 729/3/4 730/3/4 731/3/4 732/3/4
f 733/1/3 734/1/3 735/1/3 736/1/3
f 737/1/4 738/1/4 739/1/4 740/1/4
f 741/3/3 742/3/3 743/3/3 744/3/3
f 745/3/4 746/3/4 747/3/4 748/3/4
f 749/1/3 750/1/3 751/1/3 752/1/3
f 753/1/4 754/1/4 755/1/4 756/1/4
f 757/1/3 758/1/3 759/1/3 760/1/3
f 761/1/4 762/1/4 763/1/4 764/1/4
f 765/1/3 766/1/3 767/1/3 768/1/3
f 769/1/4 770/1/4 771/1/4 772/1/4
f 773/1/3 774/1/3 775/1/3 776/1/3
f 777/1/4 778/1/4 779/1/4 780/1/4
f 781/1/3 782/1/3 783/1/3 784/1/3
f 785/1/4 786/1/4 787/1/4 788/1/4
f 789/1/3 790/1/3 791/1/3 792/1/3
f 793/1/4 794/1/4 795/1/4 796/1/4
f 797/1/3 798/1/3 799/1/3 800/1/3
f 801/1/4 802/1/4 803/1/4 804/1/4
f 805/1/3 806/1/3 807/1/3 808/1/3
f 809/1/4 810/1/4 811/1/4 812/1/4
f 813/1/3 814/1/3 815/1/3 816/1/3
f 817/1/4 818/1/4 819/1/4 820/1/4
f 821/1/3 822/1/3 823/1/3 824/1/3
f 825/1/4 826/1/4 827/1/4 828/1/4
f 829/1/3 830/1/3 831/1/3 832/1/3
f 833/1/4 834/1/4 835/1/4 836/1/4
f 837/1/3 838/1/3 839/1/3 840/1/3
f 841/1/4 842/1/4 843/1/4 844/1/4
f 845/3/3 846/3/3 847/3/3 848/3/3
f 849/3/4 850/3/4 851/3/4 852/3/4
f 853/4/3 854/4/3 855/4/3 856/4/3
f 857/4/4 858/4/4 859/4/4 860/4/4
f 861/4/3 862/4/3 863/4/3 864/4/3
f 865/4/4 866/4/4 867/4/4 868/4/4
f 869/4/3 870/4/3 871/4/3 872/4/3
f 873/4/4 874/4/4 875/4/4 876/4/4
f 877/4/3 878/4/3 879/4/3 880/4/3
f 881/4/4 882/4/4 883/4/4 884/4/4
f 885/3/3 886/3/3 887/3/3 888/3/3
f 889/3/4 890/3/4 891/3/4 892/3/4
f 893/3/6 894/3/6 895/3/6 896/3/6
f 897/4/3 898/4/3 899/4/3 900/4/3
f 901/4/4 902/4/4 903/4/4 904/4/4
f 905/4/5 906/4/5 907/4/5 908/4/5
f 909/2/3 910/2/3 911/2/3 912/2/3
f 913/2/4 914/2/4 915/2/4 916/2/4
f 917/2/3 918/2/3 919/2/3 920/2/3
f 921/2/4 922/2/4 923/2/4 924/2/4
f 925/2/3 926/2/3 927/2/3 928/2/3
f 929/2/4 930/2/4 931/2/4 932/2/4
f 933/3/3 934/3/3 935/3/3 936/3/3
f 937/3/4 938/3/4 939/3/4 940/3/4
f 941/1/3 942/1/3 943/1/3 944/1/3
f 945/1/4 946/1/4 947/1/4 948/1/4
f 949/1/3 950/1/3 951/1/3 952/1/3
f 953/1/4 954/1/4 955/1/4 956/1/4
f 957/1/3 958/1/3 959/1/3 960/1/3
f 961/1/4 962/1/4 963/1/4 964/1/4
f 965/1/3 966/1/3 967/1/3 968/1/3
f 969/1/4 970/1/4 971/1/4 972/1/4
f 973/1/3 974/1/3 975/1/3 976/1/3
f 977/1/4 978/1/4 979/1/4 980/1/4
f 981/1/3 982/1/3 983/1/3 984/1/3
f 985/1/4 986/1/4 987/1/4 988/1/4
f 989/1/3 990/1/3 991/1/3 992/1/3
f 993/1/4 994/1/4 995/1/4 996/1/4
f 997/1/3 998/1/3 999/1/3 1000/1/3
f 1001/1/4 1002/1/4 1003/1/4 1004/1/4
f 1005/1/3 1006/1/3 1007/1/3 1008/1/3
f 1009/1/4 1010/1/4 1011/1/4 1012/1/4
f 1013/1/3 1014/1/3 1015/1/3 1016/1/3
f 1017/1/4 1018/1/4 1019/1/4 1020/1/4
f 1021/1/3 1022/1/3 1023/1/3 1024/1/3
f 1025/1/4 1026/1/4 1027/1/4 1028/1/4
f 1029/1/3 1030/1/3 1031/1/3 1032/1/3
f 1033/1/4 1034/1/4 1035/1/4 1036/1/4
f 1037/1/3 1038/1/3 1039/1/3 1040/1/3
f 1041/1/4 1042/1/4 1043/1/4 1044/1/4
f 1045/2/3 1046/2/3 1047/2/3 1048/2/3
f 1049/2/4 1050/2/4 1051/2/4 1052/2/4
f 1053/4/3 1054/4/3 1055/4/3 1056/4/3
f 1057/4/4 1058/4/4 1059/4/4 1060/4/4
f 1061/4/3 1062/4/3 1063/4/3 1064/4/3
f 1065/4/4 1066/4/4 1067/4/4 1068/4/4
f 1069/4/3 1070/4/3 1071/4/3 1072/4/3
f 1073/4/4 1074/4/4 1075/4/4 1076/4/4
f 1077/3/3 1078/3/3 1079/3/3 1080/3/3
f 1081/3/4 1082/3/4 1083/3/4 1084/3/4
f 1085/1/3 1086/1/3 1087/1/3 1088/1/3
f 1089/1/4 1090/1/4 1091/1/4 1092/1/4
f 1093/1/6 1094/1/6 1095/1/6 1096/1/6
f 1097/2/3 1098/2/3 1099/2/3 1100/2/3
f 1101/2/4 1102/2/4 1103/2/4 1104/2/4
f 1105/2/5 1106/2/5 1107/2/5 1108/2/5
f 1109/2/3 1110/2/3 1111/2/3 1112/2/3
f 1113/2/4 1114/2/4 1115/2/4 1116/2/4
f 1117/2/3 1118/2/3 1119/2/3 1120/2/3
f 1121/2/4 1122/2/4 1123/2/4 1124/2/4
f 1125/2/3 1126/2/3 1127/2/3 1128/2/3
f 1129/2/4 1130/2/4 1131/2/4 1132/2/4
f 1133/1/3 1134/1/3 1135/1/3 1136/1/3
f 1137/1/4 1138/1/4 1139/1/4 1140/1/4
f 1141/1/3 1142/1/3 1143/1/3 1144/1/3
f 1145/1/4 1146/1/4 1147/1/4 1148/1/4
f 1149/1/3 1150/1/3 1151/1/3 1152/1/3
f 1153/1/4 1154/1/4 1155/1/4 1156/1/4
f 1157/1/3 1158/1/3 1159/1/3 1160/1/3
f 1161/1/4 1162/1/4 1163/1/4 1164/1/4
f 1165/1/3 1166/1/3 1167/1/3 1168/1/3
f 1169/1/4 1170/1/4 1171/1/4 1172/1/4
f 1173/1/3 1174/1/3 1175/1/3 1176/1/3
f 1177/1/4 1178/1/4 1179/1/4 1180/1/4
f 1181/1/3 1182/1/3 1183/1/3 1184/1/3
f 1185/1/4 1186/1/4 1187/1/4 1188/1/4
f 1189/3/3 1190/3/3 1191/3/3 1192/3/3
f 1193/3/4 1194/3/4 1195/3/4 1196/3/4
f 1197/3/3 1198/3/3 1199/3/3 1200/3/3
f 1201/3/4 1202/3/4 1203/3/4 1204/3/4
f 1205/1/3 1206/1/3 1207/1/3 1208/1/3
f 1209/1/4 1210/1/4 1211/1/4 1212/1/4
f 1213/1/3 1214/1/3 1215/1/3 1216/1/3
f 1217/1/4 1218/1/4 1219/1/4 1220/1/4
f 1221/1/3 1222/1/3 1223/1/3 1224/1/3
f 1225/1/4 1226/1/4 1227/1/4 1228/1/4
f 1229/1/3 1230/1/3 1231/1/3 1232/1/3
f 1233/1/4 1234/1/4 1235/1/4 1236/1/4
f 1237/3/3 1238/3/3 1239/3/3 1240/3/3
f 1241/3/4 1242/3/4 1243/3/4 1244/3/4
f 1245/2/3 1246/2/3 1247/2/3 1248/2/3
f 1249/2/4 1250/2/4 1251/2/4 1252/2/4
f 1253/2/3 1254/2/3 1255/2/3 1256/2/3
f 1257/2/4 1258/2/4 1259/2/4 1260/2/4
f 1261/2/3 1262/2/3 1263/2/3 1264/2/3
f 1265/2/4 1266/2/4 1267/2/4 1268/2/4
f 1269/3/3 1270/3/3 1271/3/3 1272/3/3
f 1273/3/4 1274/3/4 1275/3/4 1276/3/4
f 1277/1/3 1278/1/3 1279/1/3 1280/1/3
f 1281/1/4 1282/1/4 1283/1/4 1284/1/4
f 1285/1/3 1286/1/3 1287/1/3 1288/1/3
f 1289/1/4 1290/1/4 1291/1/4 1292/1/4
f 1293/1/6 1294/1/6 1295/1/6 1296/1/6
f 1297/2/3 1298/2/3 1299/2/3 1300/2/3
f 1301/2/4 1302/2/4 1303/2/4 1304/2/4
f 1305/2/5 1306/2/5 1307/2/5 1308/2/5
f 1309/2/3 1310/2/3 1311/2/3 1312/2/3
f 1313/2/4 1314/2/4 1315/2/4 1316/2/4
f 1317/2/3 1318/2/3 1319/2/3 1320/2/3
f 1321/2/4 1322/2/4 1323/2/4 1324/2/4
f 1325/3/3 1326/3/3 1327/3/3 1328/3/3
f 1329/3/4 1330/3/4 1331/3/4 1332/3/4
f 1333/1/3 1334/1/3 1335/1/3 1336/1/3
f 1337/1/4 1338/1/4 1339/1/4 1340/1/4
f 1341/1/3 1342/1/3 1343/1/3 1344/1/3
f 1345/1/4 1346/1/4 1347/1/4 1348/1/4
f 1349/1/3 1350/1/3 1351/1/3 1352/1/3
f 1353/1/4 1354/1/4 1355/1/4 1356/1/4
f 1357/1/3 1358/1/3 1359/1/3 1360/1/3
f 1361/1/4 1362/1/4 1363/1/4 1364/1/4
f 1365/1/3 1366/1/3 1367/1/3 1368/1/3
f 1369/1/4 1370/1/4 1371/1/4 1372/1/4
f 1373/1/3 1374/1/3 1375/1/3 1376/1/3
f 1377/1/4 1378/1/4 1379/1/4 1380/1/4
f 1381/1/3 1382/1/3 1383/1/3 1384/1/3
f 1385/1/4 1386/1/4 1387/1/4 1388/1/4
f 1389/3/3 1390/3/3 1391/3/3 1392/3/3
f 1393/3/4 1394/3/4 1395/3/4 1396/3/4
f 1397/3/3 1398/3/3 1399/3/3 1400/3/3
f 1401/3/4 1402/3/4 1403/3/4 1404/3/4
f 1405/3/3 1406/3/3 1407/3/3 1408/3/3
f 1409/3/4 1410/3/4 1411/3/4 1412/3/4
f 1413/3/3 1414/3/3 1415/3/3 1416/3/3
f 1417/3/4 1418/3/4 1419/3/4 1420/3/4
f 1421/3/3 1422/3/3 1423/3/3 1424/3/3
f 1425/3/4 1426/3/4 1427/3/4 1428/3/4
f 1429/2/3 1430/2/3 1431/2/3 1432/2/3
f 1433/2/4 1434/2/4 1435/2/4 1436/2/4
f 1437/3/3 1438/3/3 1439/3/3 1440/3/3
f 1441/3/4 1442/3/4 1443/3/4 1444/3/4
f 1445/3/3 1446/3/3 1447/3/3 1448/3/3
f 1449/3/4 1450/3/4 1451/3/4 1452/3/4
f 1453/1/3 1454/1/3 1455/1/3 1456/1/3
f 1457/1/4 1458/1/4 1459/1/4 1460/1/4
f 1461/1/3 1462/1/3 1463/1/3 1464/1/3
f 1465/1/4 1466/1/4 1467/1/4 1468/1/4
f 1469/1/3 1470/1/3 1471/1/3 1472/1/3
f 1473/1/4 1474/1/4 1475/1/4 1476/1/4
f 1477/1/3 1478/1/3 1479/1/3 1480/1/3
f 1481/1/4 1482/1/4 1483/1/4 1484/1/4
f 1485/1/3 1486/1/3 1487/1/3 1488/1/3
f 1489/1/4 1490/1/4 1491/1/4 1492/1/4
f 1493/1/6 1494/1/6 1495/1/6 1496/1/6
f 1497/3/3 1498/3/3 1499/3/3 1500/3/3
f 1501/3/4 1502/3/4 1503/3/4 1504/3/4
f 1505/3/5 1506/3/5 1507/3/5 1508/3/5
f 1509/2/3 1510/2/3 1511/2/3 1512/2/3
f 1513/2/4 1514/2/4 1515/2/4 1516/2/4
f 1517/2/3 1518/2/3 1519/2/3 1520/2/3
f 1521/2/4 1522/2/4 1523/2/4 1524/2/4
f 1525/1/3 1526/1/3 1527/1/3 1528/1/3
f 1529/1/4 1530/1/4 1531/1/4 1532/1/4
f 1533/1/3 1534/1/3 1535/1/3 1536/1/3
f 1537/1/4 1538/1/4 1539/1/4 1540/1/4
f 1541/1/3 1542/1/3 1543/1/3 1544/1/3
f 1545/1/4 1546/1/4 1547/1/4 1548/1/4
f 1549/1/3 1550/1/3 1551/1/3 1552/1/3
f 1553/1/4 1554/1/4 1555/1/4 1556/1/4
f 1557/1/3 1558/1/3 1559/1/3 1560/1/3
f 1561/1/4 1562/1/4 1563/1/4 1564/1/4
f 1565/1/3 1566/1/3 1567/1/3 1568/1/3
f 1569/1/4 1570/1/4 1571/1/4 1572/1/4
f 1573/1/3 1574/1/3 1575/1/3 1576/1/3
f 1577/1/4 1578/1/4 1579/1/4 1580/1/4
f 1581/3/3 1582/3/3 1583/3/3 1584/3/3
f 1585/3/4 1586/3/4 1587/3/4 1588/3/4
f 1589/3/3 1590/3/3 1591/3/3 1592/3/3
f 1593/3/4 1594/3/4 1595/3/4 1596/3/4
f 1597/2/3 1598/2/3 1599/2/3 1600/2/3
f 1601/2/4 1602/2/4 1603/2/4 1604/2/4
f 1605/2/3 1606/2/3 1607/2/3 1608/2/3
f 1609/2/4 1610/2/4 1611/2/4 1612/2/4
f 1613/4/3 1614/4/3 1615/4/3 1616/4/3
f 1617/4/4 1618/4/4 1619/4/4 1620/4/4
f 1621/2/3 1622/2/3 1623/2/3 1624/2/3
f 1625/2/4 1626/2/4 1627/2/4 1628/2/4
f 1629/2/3 1630/2/3 1631/2/3 1632/2/3
f 1633/2/4 1634/2/4 1635/2/4 1636/2/4
f 1637/1/3 1638/1/3 1639/1/3 1640/1/3
f 1641/1/4 1642/1/4 1643/1/4 1644/1/4
f 1645/1/3 1646/1/3 1647/1/3 1648/1/3
f 1649/1/4 1650/1/4 1651/1/4 1652/1/4
f 1653/1/3 1654/1/3 1655/1/3 1656/1/3
f 1657/1/4 1658/1/4 1659/1/4 1660/1/4
f 1661/1/3 1662/1/3 1663/1/3 1664/1/3
f 1665/1/4 1666/1/4 1667/1/4 1668/1/4
f 1669/1/3 1670/1/3 1671/1/3 1672/1/3
f 1673/1/4 1674/1/4 1675/1/4 1676/1/4
f 1677/1/3 1678/1/3 1679/1/3 1680/1/3
f 1681/1/4 1682/1/4 1683/1/4 1684/1/4
f 1685/1/3 1686/1/3 1687/1/3 1688/1/3
f 1689/1/4 1690/1/4 1691/1/4 1692/1/4
f 1693/1/6 1694/1/6 1695/1/6 1696/1/6
f 1697/3/3 1698/3/3 1699/3/3 1700/3/3
f 1701/3/4 1702/3/4 1703/3/4 1704/3/4
f 1705/3/5 1706/3/5 1707/3/5 1708/3/5
f 1709/3/3 1710/3/3 1711/3/3 1712/3/3
f 1713/3/4 1714/3/4 1715/3/4 1716/3/4
f 1717/1/3 1718/1/3 1719/1/3 1720/1/3
f 1721/1/4 1722/1/4 1723/1/4 1724/1/4
f 1725/1/3 1726/1/3 1727/1/3 1728/1/3
f 1729/1/4 1730/1/4 1731/1/4 1732/1/4
f 1733/1/3 1734/1/3 1735/1/3 1736/1/3
f 1737/1/4 1738/1/4 1739/1/4 1740/1/4
f 1741/1/3 1742/1/3 1743/1/3 1744/1/3
f 1745/1/4 1746/1/4 1747/1/4 1748/1/4
f 1749/1/3 1750/1/3 1751/1/3 1752/1/3
f 1753/1/4 1754/1/4 1755/1/4 1756/1/4
f 1757/1/3 1758/1/3 1759/1/3 1760/1/3
f 1761/1/4 1762/1/4 1763/1/4 1764/1/4
f 1765/1/3 1766/1/3 1767/1/3 1768/1/3
f 1769/1/4 1770/1/4 1771/1/4 1772/1/4
f 1773/1/3 1774/1/3 1775/1/3 1776/1/3
f 1777/1/4 1778/1/4 1779/1/4 1780/1/4
f 1781/3/3 1782/3/3 1783/3/3 1784/3/3
f 1785/3/4 1786/3/4 1787/3/4 1788/3/4
f 1789/3/3 1790/3/3 1791/3/3 1792/3/3
f 1793/3/4 1794/3/4 1795/3/4 1796/3/4
f 1797/2/3 1798/2/3 1799/2/3 1800/2/3
f 1801/2/4 1802/2/4 1803/2/4 1804/2/4
f 1805/4/3 1806/4/3 1807/4/3 1808/4/3
f 1809/4/4 1810/4/4 1811/4/4 1812/4/4
f 1813/4/3 1814/4/3 1815/4/3 1816/4/3
f 1817/4/4 1818/4/4 1819/4/4 1820/4/4
f 1821/4/3 1822/4/3 1823/4/3 1824/4/3
f 1825/4/4 1826/4/4 1827/4/4 1828/4/4
f 1829/3/3 1830/3/3 1831/3/3 1832/3/3
f 1833/3/4 1834/3/4 1835/3/4 1836/3/4
f 1837/1/3 1838/1/3 1839/1/3 1840/1/3
f 1841/1/4 1842/1/4 1843/1/4 1844/1/4
f 1845/1/3 1846/1/3 1847/1/3 1848/1/3
f 1849/1/4 1850/1/4 1851/1/4 1852/1/4
f 1853/1/3 1854/1/3 1855/1/3 1856/1/3
f 1857/1/4 1858/1/4 1859/1/4 1860/1/4
f 1861/1/3 1862/1/3 1863/1/3 1864/1/3
f 1865/1/4 1866/1/4 1867/1/4 1868/1/4
f 1869/1/3 1870/1/3 1871/1/3 1872/1/3
f 1873/1/4 1874/1/4 1875/1/4 1876/1/4
f 1877/1/3 1878/1/3 1879/1/3 1880/1/3
f 1881/1/4 1882/1/4 1883/1/4 1884/1/4
f 1885/1/3 1886/1/3 1887/1/3 1888/1/3
f 1889/1/4 1890/1/4 1891/1/4 1892/1/4
f 1893/1/6 1894/1/6 1895/1/6 1896/1/6
f 1897/1/3 1898/1/3 1899/1/3 1900/1/3
f 1901/1/4 1902/1/4 1903/1/4 1904/1/4
f 1905/1/5 1906/1/5 1907/1/5 1908/1/5
f 1909/1/3 1910/1/3 1911/1/3 1912/1/3
f 1913/1/4 1914/1/4 1915/1/4 1916/1/4
f 1917/1/3 1918/1/3 1919/1/3 1920/1/3
f 1921/1/4 1922/1/4 1923/1/4 1924/1/4
f 1925/1/3 1926/1/3 1927/1/3 1928/1/3
f 1929/1/4 1930/1/4 1931/1/4 1932/1/4
f 1933/1/3 1934/1/3 1935/1/3 1936/1/3
f 1937/1/4 1938/1/4 1939/1/4 1940/1/4
f 1941/1/3 1942/1/3 1943/1/3 1944/1/3
f 1945/1/4 1946/1/4 1947/1/4 1948/1/4
f 1949/1/3 1950/1/3 1951/1/3 1952/1/3
f 1953/1/4 1954/1/4 1955/1/4 1956/1/4
f 1957/1/3 1958/1/3 1959/1/3 1960/1/3
f 1961/1/4 1962/1/4 1963/1/4 1964/1/4
f 1965/1/3 1966/1/3 1967/1/3 1968/1/3
f 1969/1/4 1970/1/4 1971/1/4 1972/1/4
f 1973/1/3 1974/1/3 1975/1/3 1976/1/3
f 1977/1/4 1978/1/4 1979/1/4 1980/1/4
f 1981/1/3 1982/1/3 1983/1/3 1984/1/3
f 1985/1/4 1986/1/4 1987/1/4 1988/1/4
f 1989/2/3 1990/2/3 1991/2/3 1992/2/3
f 1993/2/4 1994/2/4 1995/2/4 1996/2/4
f 1997/4/3 1998/4/3 1999/4/3 2000/4/3
f 2001/4/4 2002/4/4 2003/4/4 2004/4/4
f 2005/4/3 2006/4/3 2007/4/3 2008/4/3
f 2009/4/4 2010/4/4 2011/4/4 2012/4/4
f 2013/4/3 2014/4/3 2015/4/3 2016/4/3
f 2017/4/4 2018/4/4 2019/4/4 2020/4/4
f 2021/3/3 2022/3/3 2023/3/3 2024/3/3
f 2025/3/4 2026/3/4 2027/3/4 2028/3/4
f 2029/1/3 2030/1/3 2031/1/3 2032/1/3
f 2033/1/4 2034/1/4 2035/1/4 2036/1/4
f 2037/1/3 2038/1/3 2039/1/3 2040/1/3
f 2041/1/4 2042/1/4 2043/1/4 2044/1/4
f 2045/1/3 2046/1/3 2047/1/3 2048/1/3
f 2049/1/4 2050/1/4 2051/1/4 2052/1/4
f 2053/1/3 2054/1/3 2055/1/3 2056/1/3
f 2057/1/4 2058/1/4 2059/1/4 2060/1/4
f 2061/1/3 2062/1/3 2063/1/3 2064/1/3
f 2065/1/4 2066/1/4 2067/1/4 2068/1/4
f 2069/1/3 2070/1/3 2071/1/3 2072/1/3
f 2073/1/4 2074/1/4 2075/1/4 2076/1/4
f 2077/1/3 2078/1/3 2079/1/3 2080/1/3
f 2081/1/4 2082/1/4 2083/1/4 2084/1/4
f 2085/1/3 2086/1/3 2087/1/3 2088/1/3
f 2089/1/4 2090/1/4 2091/1/4 2092/1/4
f 2093/1/6 2094/1/6 2095/1/6 2096/1/6
f 2097/1/3 2098/1/3 2099/1/3 2100/1/3
f 2101/1/4 2102/1/4 2103/1/4 2104/1/4
f 2105/1/5 2106/1/5 2107/1/5 2108/1/5
f 2109/1/3 2110/1/3 2111/1/3 2112/1/3
f 2113/1/4 2114/1/4 2115/1/4 2116/1/4
f 2117/1/3 2118/1/3 2119/1/3 2120/1/3
f 2121/1/4 2122/1/4 2123/1/4 2124/1/4
f 2125/1/3 2126/1/3 2127/1/3 2128/1/3
f 2129/1/4 2130/1/4 2131/1/4 2132/1/4
f 2133/1/3 2134/1/3 2135/1/3 2136/1/3
f 2137/1/4 2138/1/4 2139/1/4 2140/1/4
f 2141/3/3 2142/3/3 2143/3/3 2144/3/3
f 2145/3/4 2146/3/4 2147/3/4 2148/3/4
f 2149/3/3 2150/3/3 2151/3/3 2152/3/3
f 2153/3/4 2154/3/4 2155/3/4 2156/3/4
f 2157/1/3 2158/1/3 2159/1/3 2160/1/3
f 2161/1/4 2162/1/4 2163/1/4 2164/1/4
f 2165/1/3 2166/1/3 2167/1/3 2168/1/3
f 2169/1/4 2170/1/4 2171/1/4 2172/1/4
f 2173/1/3 2174/1/3 2175/1/3 2176/1/3
f 2177/1/4 2178/1/4 2179/1/4 2180/1/4
f 2181/1/3 2182/1/3 2183/1/3 2184/1/3
f 2185/1/4 2186/1/4 2187/1/4 2188/1/4
f 2189/2/3 2190/2/3 2191/2/3 2192/2/3
f 2193/2/4 2194/2/4 2195/2/4 2196/2/4
f 2197/4/3 2198/4/3 2199/4/3 2200/4/3
f 2201/4/4 2202/4/4 2203/4/4 2204/4/4
f 2205/4/3 2206/4/3 2207/4/3 2208/4/3
f 2209/4/4 2210/4/4 2211/4/4 2212/4/4
f 2213/2/3 2214/2/3 2215/2/3 2216/2/3
f 2217/2/4 2218/2/4 2219/2/4 2220/2/4
f 2221/1/3 2222/1/3 2223/1/3 2224/1/3
f 2225/1/4 2226/1/4 2227/1/4 2228/1/4
f 2229/1/3 2230/1/3 2231/1/3 2232/1/3
f 2233/1/4 2234/1/4 2235/1/4 2236/1/4
f 2237/1/3 2238/1/3 2239/1/3 2240/1/3
f 2241/1/4 2242/1/4 2243/1/4 2244/1/4
f 2245/1/3 2246/1/3 2247/1/3 2248/1/3
f 2249/1/4 2250/1/4 2251/1/4 2252/1/4
f 2253/1/3 2254/1/3 2255/1/3 2256/1/3
f 2257/1/4 2258/1/4 2259/1/4 2260/1/4
f 2261/1/3 2262/1/3 2263/1/3 2264/1/3
f 2265/1/4 2266/1/4 2267/1/4 2268/1/4
f 2269/1/3 2270/1/3 2271/1/3 2272/1/3
f 2273/1/4 2274/1/4 2275/1/4 2276/1/4
f 2277/1/3 2278/1/3 2279/1/3 2280/1/3
f 2281/1/4 2282/1/4 2283/1/4 2284/1/4
f 2285/1/3 2286/1/3 2287/1/3 2288/1/3
f 2289/1/4 2290/1/4 2291/1/4 2292/1/4
f 2293/1/6 2294/1/6 2295/1/6 2296/1/6
f 2297/1/3 2298/1/3 2299/1/3 2300/1/3
f 2301/1/4 2302/1/4 2303/1/4 2304/1/4
f 2305/1/5 2306/1/5 2307/1/5 2308/1/5
f 2309/1/3 2310/1/3 2311/1/3 2312/1/3
f 2313/1/4 2314/1/4 2315/1/4 2316/1/4
f 2317/1/3 2318/1/3 2319/1/3 2320/1/3
f 2321/1/4 2322/1/4 2323/1/4 2324/1/4
f 2325/3/3 2326/3/3 2327/3/3 2328/3/3
f 2329/3/4 2330/3/4 2331/3/4 2332/3/4
f 2333/2/3 2334/2/3 2335/2/3 2336/2/3
f 2337/2/4 2338/2/4 2339/2/4 2340/2/4
f 2341/4/3 2342/4/3 2343/4/3 2344/4/3
f 2345/4/4 2346/4/4 2347/4/4 2348/4/4
f 2349/2/3 2350/2/3 2351/2/3 2352/2/3
f 2353/2/4 2354/2/4 2355/2/4 2356/2/4
f 2357/1/3 2358/1/3 2359/1/3 2360/1/3
f 2361/1/4 2362/1/4 2363/1/4 2364/1/4
f 2365/1/3 2366/1/3 2367/1/3 2368/1/3
f 2369/1/4 2370/1/4 2371/1/4 2372/1/4
f 2373/1/3 2374/1/3 2375/1/3 2376/1/3
f 2377/1/4 2378/1/4 2379/1/4 2380/1/4
f 2381/1/2 2382/1/2 2383/1/2 2384/1/2
f 2385/1/3 2386/1/3 2387/1/3 2388/1/3
f 2389/1/4 2390/1/4 2391/1/4 2392/1/4
f 2393/2/2 2394/2/2 2395/2/2 2396/2/2
f 2397/2/3 2398/2/3 2399/2/3 2400/2/3
f 2401/2/4 2402/2/4 2403/2/4 2404/2/4
f 2405/2/2 2406/2/2 2407/2/2 2408/2/2
f 2409/2/3 2410/2/3 2411/2/3 2412/2/3
f 2413/2/4 2414/2/4 2415/2/4 2416/2/4
f 2417/3/2 2418/3/2 2419/3/2 2420/3/2
f 2421/3/3 2422/3/3 2423/3/3 2424/3/3
f 2425/3/4 2426/3/4 2427/3/4 2428/3/4
f 2429/1/2 2430/1/2 2431/1/2 2432/1/2
f 2433/1/3 2434/1/3 2435/1/3 2436/1/3
f 2437/1/4 2438/1/4 2439/1/4 2440/1/4
f 2441/1/2 2442/1/2 2443/1/2 2444/1/2
f 2445/1/3 2446/1/3 2447/1/3 2448/1/3
f 2449/1/4 2450/1/4 2451/1/4 2452/1/4
f 2453/1/2 2454/1/2 2455/1/2 2456/1/2
f 2457/1/3 2458/1/3 2459/1/3 2460/1/3
f 2461/1/4 2462/1/4 2463/1/4 2464/1/4
f 2465/1/2 2466/1/2 2467/1/2 2468/1/2
f 2469/1/3 2470/1/3 2471/1/3 2472/1/3
f 2473/1/4 2474/1/4 2475/1/4 2476/1/4
f 2477/1/2 2478/1/2 2479/1/2 2480/1/2
f 2481/1/3 2482/1/3 2483/1/3 2484/1/3
f 2485/1/4 2486/1/4 2487/1/4 2488/1/4
f 2489/1/2 2490/1/2 2491/1/2 2492/1/2
f 2493/1/3 2494/1/3 2495/1/3 2496/1/3
f 2497/1/4 2498/1/4 2499/1/4 2500/1/4
f 2501/1/2 2502/1/2 2503/1/2 2504/1/2
f 2505/1/3 2506/1/3 2507/1/3 2508/1/3
f 2509/1/4 2510/1/4 2511/1/4 2512/1/4
f 2513/1/2 2514/1/2 2515/1/2 2516/1/2
f 2517/1/3 2518/1/3 2519/1/3 2520/1/3
f 2521/1/4 2522/1/4 2523/1/4 2524/1/4
f 2525/1/2 2526/1/2 2527/1/2 2528/1/2
f 2529/1/3 2530/1/3 2531/1/3 2532/1/3
f 2533/1/4 2534/1/4 2535/1/4 2536/1/4
f 2537/3/2 2538/3/2 2539/3/2 2540/3/2
f 2541/3/3 2542/3/3 2543/3/3 2544/3/3
f 2545/3/4 2546/3/4 2547/3/4 2548/3/4
f 2549/3/6 2550/3/6 2551/3/6 2552/3/6
f 2553/1/3 2554/1/3 2555/1/3 2556/1/3
f 2557/1/4 2558/1/4 2559/1/4 2560/1/4
f 2561/1/5 2562/1/5 2563/1/5 2564/1/5
f 2565/1/3 2566/1/3 2567/1/3 2568/1/3
f 2569/1/4 2570/1/4 2571/1/4 2572/1/4
f 2573/1/3 2574/1/3 2575/1/3 2576/1/3
f 2577/1/4 2578/1/4 2579/1/4 2580/1/4
f 2581/4/3 2582/4/3 2583/4/3 2584/4/3
f 2585/4/4 2586/4/4 2587/4/4 2588/4/4
f 2589/4/3 2590/4/3 2591/4/3 2592/4/3
f 2593/4/4 2594/4/4 2595/4/4 2596/4/4
f 2597/4/3 2598/4/3 2599/4/3 2600/4/3
f 2601/4/4 2602/4/4 2603/4/4 2604/4/4
f 2605/2/2 2606/2/2 2607/2/2 2608/2/2
f 2609/2/3 2610/2/3 2611/2/3 2612/2/3
f 2613/2/4 2614/2/4 2615/2/4 2616/2/4
f 2617/1/2 2618/1/2 2619/1/2 2620/1/2
f 2621/1/3 2622/1/3 2623/1/3 2624/1/3
f 2625/1/4 2626/1/4 2627/1/4 2628/1/4
f 2629/1/2 2630/1/2 2631/1/2 2632/1/2
f 2633/1/3 2634/1/3 2635/1/3 2636/1/3
f 2637/1/4 2638/1/4 2639/1/4 2640/1/4
f 2641/1/2 2642/1/2 2643/1/2 2644/1/2
f 2645/1/3 2646/1/3 2647/1/3 2648/1/3
f 2649/1/4 2650/1/4 2651/1/4 2652/1/4
f 2653/1/6 2654/1/6 2655/1/6 2656/1/6
f 2657/1/3 2658/1/3 2659/1/3 2660/1/3
f 2661/1/4 2662/1/4 2663/1/4 2664/1/4
f 2665/1/5 2666/1/5 2667/1/5 2668/1/5
f 2669/1/3 2670/1/3 2671/1/3 2672/1/3
f 2673/1/4 2674/1/4 2675/1/4 2676/1/4
f 2677/2/3 2678/2/3 2679/2/3 2680/2/3
f 2681/2/4 2682/2/4 2683/2/4 2684/2/4
f 2685/4/3 2686/4/3 2687/4/3 2688/4/3
f 2689/4/4 2690/4/4 2691/4/4 2692/4/4
f 2693/4/3 2694/4/3 2695/4/3 2696/4/3
f 2697/4/4 2698/4/4 2699/4/4 2700/4/4
f 2701/4/2 2702/4/2 2703/4/2 2704/4/2
f 2705/4/3 2706/4/3 2707/4/3 2708/4/3
f 2709/4/4 2710/4/4 2711/4/4 2712/4/4
f 2713/4/6 2714/4/6 2715/4/6 2716/4/6
f 2717/1/3 2718/1/3 2719/1/3 2720/1/3
f 2721/1/4 2722/1/4 2723/1/4 2724/1/4
f 2725/1/5 2726/1/5 2727/1/5 2728/1/5
f 2729/3/3 2730/3/3 2731/3/3 2732/3/3
f 2733/3/4 2734/3/4 2735/3/4 2736/3/4
f 2737/4/3 2738/4/3 2739/4/3 2740/4/3
f 2741/4/4 2742/4/4 2743/4/4 2744/4/4
f 2745/4/3 2746/4/3 2747/4/3 2748/4/3
f 2749/4/4 2750/4/4 2751/4/4 2752/4/4
f 2753/4/2 2754/4/2 2755/4/2 2756/4/2
f 2757/4/3 2758/4/3 2759/4/3 2760/4/3
f 2761/4/4 2762/4/4 2763/4/4 2764/4/4
f 2765/4/6 2766/4/6 2767/4/6 2768/4/6
f 2769/3/3 2770/3/3 2771/3/3 2772/3/3
f 2773/3/4 2774/3/4 2775/3/4 2776/3/4
f 2777/3/5 2778/3/5 2779/3/5 2780/3/5
f 2781/2/3 2782/2/3 2783/2/3 2784/2/3
f 2785/2/4 2786/2/4 2787/2/4 2788/2/4
f 2789/2/3 2790/2/3 2791/2/3 2792/2/3
f 2793/2/4 2794/2/4 2795/2/4 2796/2/4
f 2797/2/2 2798/2/2 2799/2/2 2800/2/2
f 2801/2/3 2802/2/3 2803/2/3 2804/2/3
f 2805/2/4 2806/2/4 2807/2/4 2808/2/4
f 2809/2/6 2810/2/6 2811/2/6 2812/2/6
f 2813/2/3 2814/2/3 2815/2/3 2816/2/3
f 2817/2/4 2818/2/4 2819/2/4 2820/2/4
f 2821/2/5 2822/2/5 2823/2/5 2824/2/5
f 2825/3/3 2826/3/3 2827/3/3 2828/3/3
f 2829/3/4 2830/3/4 2831/3/4 2832/3/4
f 2833/1/2 2834/1/2 2835/1/2 2836/1/2
f 2837/1/3 2838/1/3 2839/1/3 2840/1/3
f 2841/1/4 2842/1/4 2843/1/4 2844/1/4
f 2845/1/6 2846/1/6 2847/1/6 2848/1/6
f 2849/3/3 2850/3/3 2851/3/3 2852/3/3
f 2853/3/4 2854/3/4 2855/3/4 2856/3/4
f 2857/3/5 2858/3/5 2859/3/5 2860/3/5
f 2861/1/3 2862/1/3 2863/1/3 2864/1/3
f 2865/1/4 2866/1/4 2867/1/4 2868/1/4
f 2869/1/6 2870/1/6 2871/1/6 2872/1/6
f 2873/1/3 2874/1/3 2875/1/3 2876/1/3
f 2877/1/4 2878/1/4 2879/1/4 2880/1/4
f 2881/1/5 2882/1/5 2883/1/5 2884/1/5
f 2885/1/3 2886/1/3 2887/1/3 2888/1/3
f 2889/1/4 2890/1/4 2891/1/4 2892/1/4
f 2893/1/6 2894/1/6 2895/1/6 2896/1/6
f 2897/1/3 2898/1/3 2899/1/3 2900/1/3
f 2901/1/4 2902/1/4 2903/1/4 2904/1/4
f 2905/1/5 2906/1/5 2907/1/5 2908/1/5
f 2909/1/3 2910/1/3 2911/1/3 2912/1/3
f 2913/1/4 2914/1/4 2915/1/4 2916/1/4
f 2917/1/1 2918/1/1 2919/1/1 2920/1/1
f 2921/1/3 2922/1/3 2923/1/3 2924/1/3
f 2925/1/4 2926/1/4 2927/1/4 2928/1/4
f 2929/1/6 2930/1/6 2931/1/6 2932/1/6
f 2933/1/3 2934/1/3 2935/1/3 2936/1/3
f 2937/1/4 2938/1/4 2939/1/4 2940/1/4
f 2941/1/5 2942/1/5 2943/1/5 2944/1/5
f 2945/1/3 2946/1/3 2947/1/3 2948/1/3
f 2949/1/4 2950/1/4 2951/1/4 2952/1/4
f 2953/1/2 2954/1/2 2955/1/2 2956/1/2
f 2957/1/3 2958/1/3 2959/1/3 2960/1/3
f 2961/1/4 2962/1/4 2963/1/4 2964/1/4
f 2965/1/6 2966/1/6 2967/1/6 2968/1/6
f 2969/1/3 2970/1/3 2971/1/3 2972/1/3
f 2973/1/4 2974/1/4 2975/1/4 2976/1/4
f 2977/1/5 2978/1/5 2979/1/5 2980/1/5
f 2981/1/2 2982/1/2 2983/1/2 2984/1/2
f 2985/1/3 2986/1/3 2987/1/3 2988/1/3
f 2989/1/4 2990/1/4 2991/1/4 2992/1/4
f 2993/1/6 2994/1/6 2995/1/6 2996/1/6
f 2997/1/3 2998/1/3 2999/1/3 3000/1/3
f 3001/1/4 3002/1/4 3003/1/4 3004/1/4
f 3005/1/5 3006/1/5 3007/1/5 3008/1/5
f 3009/1/6 3010/1/6 3011/1/6 3012/1/6
f 3013/1/2 3014/1/2 3015/1/2 3016/1/2
f 3017/1/3 3018/1/3 3019/1/3 3020/1/3
f 3021/1/4 3022/1/4 3023/1/4 3024/1/4
f 3025/1/5 3026/1/5 3027/1/5 3028/1/5
f 3029/1/1 3030/1/1 3031/1/1 3032/1/1
f 3033/1/2 3034/1/2 3035/1/2 3036/1/2
f 3037/1/3 3038/1/3 3039/1/3 3040/1/3
f 3041/1/4 3042/1/4 3043/1/4 3044/1/4
f 3045/1/6 3046/1/6 3047/1/6 3048/1/6

