# generated by vox_to_obj_exporter
# scale=0.1 center=false ground=false y_up=true

mtllib Fight_741.mtl
usemtl palette

# normals
vn -1 0 0
vn 1 0 0
vn 0 1 0
vn 0 -1 0
vn 0 0 1
vn 0 0 -1

# texcoords
vt 0.189453125 0.5
vt 0.185546875 0.5
vt 0.193359375 0.5

# verts
v 12.2 4.2 -2.6
v 12.2 4.1 -2.6
v 12.2 4.1 -2.5
v 12.2 4.2 -2.5
v 12.3 4.2 -2.5
v 12.3 4.1 -2.5
v 12.3 4.1 -2.6
v 12.3 4.2 -2.6
v 12.2 4.2 -2.6
v 12.2 4.2 -2.5
v 12.3 4.2 -2.5
v 12.3 4.2 -2.6
v 12.2 4.1 -2.5
v 12.2 4.1 -2.6
v 12.3 4.1 -2.6
v 12.3 4.1 -2.5
v 12.2 4.2 -2.5
v 12.2 4.1 -2.5
v 12.3 4.1 -2.5
v 12.3 4.2 -2.5
v 12.3 4.2 -2.6
v 12.3 4.1 -2.6
v 12.2 4.1 -2.6
v 12.2 4.2 -2.6
v 13.5 4.2 -2.6
v 13.5 4.1 -2.6
v 13.5 4.1 -2.5
v 13.5 4.2 -2.5
v 13.6 4.2 -2.5
v 13.6 4.1 -2.5
v 13.6 4.1 -2.6
v 13.6 4.2 -2.6
v 13.5 4.2 -2.6
v 13.5 4.2 -2.5
v 13.6 4.2 -2.5
v 13.6 4.2 -2.6
v 13.5 4.2 -2.5
v 13.5 4.1 -2.5
v 13.6 4.1 -2.5
v 13.6 4.2 -2.5
v 13.6 4.2 -2.6
v 13.6 4.1 -2.6
v 13.5 4.1 -2.6
v 13.5 4.2 -2.6
v 12.3 4.1 -2.6
v 12.3 4 -2.6
v 12.3 4 -2.5
v 12.3 4.1 -2.5
v 12.3 4.1 -2.6
v 12.3 4.1 -2.5
v 12.4 4.1 -2.5
v 12.4 4.1 -2.6
v 12.3 4 -2.5
v 12.3 4 -2.6
v 12.4 4 -2.6
v 12.4 4 -2.5
v 12.3 4.1 -2.5
v 12.3 4 -2.5
v 12.4 4 -2.5
v 12.4 4.1 -2.5
v 12.4 4.1 -2.6
v 12.4 4 -2.6
v 12.3 4 -2.6
v 12.3 4.1 -2.6
v 12.5 4.1 -2.5
v 12.5 4 -2.5
v 12.5 4 -2.6
v 12.5 4.1 -2.6
v 12.4 4.1 -2.6
v 12.4 4.1 -2.5
v 12.5 4.1 -2.5
v 12.5 4.1 -2.6
v 12.4 4 -2.5
v 12.4 4 -2.6
v 12.5 4 -2.6
v 12.5 4 -2.5
v 12.4 4.1 -2.5
v 12.4 4 -2.5
v 12.5 4 -2.5
v 12.5 4.1 -2.5
v 12.5 4.1 -2.6
v 12.5 4 -2.6
v 12.4 4 -2.6
v 12.4 4.1 -2.6
v 13.2 4.1 -2.6
v 13.2 4 -2.6
v 13.2 4 -2.5
v 13.2 4.1 -2.5
v 13.2 4.1 -2.6
v 13.2 4.1 -2.5
v 13.3 4.1 -2.5
v 13.3 4.1 -2.6
v 13.2 4.1 -2.5
v 13.2 4 -2.5
v 13.3 4 -2.5
v 13.3 4.1 -2.5
v 13.3 4.1 -2.6
v 13.3 4 -2.6
v 13.2 4 -2.6
v 13.2 4.1 -2.6
v 13.3 4.1 -2.6
v 13.3 4.1 -2.5
v 13.4 4.1 -2.5
v 13.4 4.1 -2.6
v 13.3 4.1 -2.5
v 13.3 4 -2.5
v 13.4 4 -2.5
v 13.4 4.1 -2.5
v 13.4 4.1 -2.6
v 13.4 4 -2.6
v 13.3 4 -2.6
v 13.3 4.1 -2.6
v 13.4 4.1 -2.6
v 13.4 4.1 -2.5
v 13.5 4.1 -2.5
v 13.5 4.1 -2.6
v 13.4 4.1 -2.5
v 13.4 4 -2.5
v 13.5 4 -2.5
v 13.5 4.1 -2.5
v 13.5 4.1 -2.6
v 13.5 4 -2.6
v 13.4 4 -2.6
v 13.4 4.1 -2.6
v 13.6 4.1 -2.5
v 13.6 4 -2.5
v 13.6 4 -2.6
v 13.6 4.1 -2.6
v 13.5 4 -2.5
v 13.5 4 -2.6
v 13.6 4 -2.6
v 13.6 4 -2.5
v 13.5 4.1 -2.5
v 13.5 4 -2.5
v 13.6 4 -2.5
v 13.6 4.1 -2.5
v 13.6 4.1 -2.6
v 13.6 4 -2.6
v 13.5 4 -2.6
v 13.5 4.1 -2.6
v 12.5 4 -2.6
v 12.5 3.9 -2.6
v 12.5 3.9 -2.5
v 12.5 4 -2.5
v 12.5 4 -2.6
v 12.5 4 -2.5
v 12.6 4 -2.5
v 12.6 4 -2.6
v 12.5 4 -2.5
v 12.5 3.9 -2.5
v 12.6 3.9 -2.5
v 12.6 4 -2.5
v 12.6 4 -2.6
v 12.6 3.9 -2.6
v 12.5 3.9 -2.6
v 12.5 4 -2.6
v 12.6 4 -2.6
v 12.6 4 -2.5
v 12.7 4 -2.5
v 12.7 4 -2.6
v 12.6 4 -2.5
v 12.6 3.9 -2.5
v 12.7 3.9 -2.5
v 12.7 4 -2.5
v 12.7 4 -2.6
v 12.7 3.9 -2.6
v 12.6 3.9 -2.6
v 12.6 4 -2.6
v 12.7 4 -2.6
v 12.7 4 -2.5
v 12.8 4 -2.5
v 12.8 4 -2.6
v 12.7 4 -2.5
v 12.7 3.9 -2.5
v 12.8 3.9 -2.5
v 12.8 4 -2.5
v 12.8 4 -2.6
v 12.8 3.9 -2.6
v 12.7 3.9 -2.6
v 12.7 4 -2.6
v 12.8 4 -2.6
v 12.8 4 -2.5
v 12.9 4 -2.5
v 12.9 4 -2.6
v 12.8 4 -2.5
v 12.8 3.9 -2.5
v 12.9 3.9 -2.5
v 12.9 4 -2.5
v 12.9 4 -2.6
v 12.9 3.9 -2.6
v 12.8 3.9 -2.6
v 12.8 4 -2.6
v 12.9 4 -2.6
v 12.9 4 -2.5
v 13 4 -2.5
v 13 4 -2.6
v 12.9 4 -2.5
v 12.9 3.9 -2.5
v 13 3.9 -2.5
v 13 4 -2.5
v 13 4 -2.6
v 13 3.9 -2.6
v 12.9 3.9 -2.6
v 12.9 4 -2.6
v 13 4 -2.6
v 13 4 -2.5
v 13.1 4 -2.5
v 13.1 4 -2.6
v 13 4 -2.5
v 13 3.9 -2.5
v 13.1 3.9 -2.5
v 13.1 4 -2.5
v 13.1 4 -2.6
v 13.1 3.9 -2.6
v 13 3.9 -2.6
v 13 4 -2.6
v 13.1 4 -2.6
v 13.1 4 -2.5
v 13.2 4 -2.5
v 13.2 4 -2.6
v 13.1 4 -2.5
v 13.1 3.9 -2.5
v 13.2 3.9 -2.5
v 13.2 4 -2.5
v 13.2 4 -2.6
v 13.2 3.9 -2.6
v 13.1 3.9 -2.6
v 13.1 4 -2.6
v 13.2 4 -2.5
v 13.2 3.9 -2.5
v 13.3 3.9 -2.5
v 13.3 4 -2.5
v 13.3 4 -2.6
v 13.3 3.9 -2.6
v 13.2 3.9 -2.6
v 13.2 4 -2.6
v 13.3 4 -2.5
v 13.3 3.9 -2.5
v 13.4 3.9 -2.5
v 13.4 4 -2.5
v 13.4 4 -2.6
v 13.4 3.9 -2.6
v 13.3 3.9 -2.6
v 13.3 4 -2.6
v 13.5 4 -2.5
v 13.5 3.9 -2.5
v 13.5 3.9 -2.6
v 13.5 4 -2.6
v 13.4 3.9 -2.5
v 13.4 3.9 -2.6
v 13.5 3.9 -2.6
v 13.5 3.9 -2.5
v 13.4 4 -2.5
v 13.4 3.9 -2.5
v 13.5 3.9 -2.5
v 13.5 4 -2.5
v 13.5 4 -2.6
v 13.5 3.9 -2.6
v 13.4 3.9 -2.6
v 13.4 4 -2.6
v 12.5 3.9 -2.6
v 12.5 3.8 -2.6
v 12.5 3.8 -2.5
v 12.5 3.9 -2.5
v 12.5 3.8 -2.5
v 12.5 3.8 -2.6
v 12.6 3.8 -2.6
v 12.6 3.8 -2.5
v 12.5 3.9 -2.5
v 12.5 3.8 -2.5
v 12.6 3.8 -2.5
v 12.6 3.9 -2.5
v 12.6 3.9 -2.6
v 12.6 3.8 -2.6
v 12.5 3.8 -2.6
v 12.5 3.9 -2.6
v 12.6 3.8 -2.5
v 12.6 3.8 -2.6
v 12.7 3.8 -2.6
v 12.7 3.8 -2.5
v 12.6 3.9 -2.5
v 12.6 3.8 -2.5
v 12.7 3.8 -2.5
v 12.7 3.9 -2.5
v 12.7 3.9 -2.6
v 12.7 3.8 -2.6
v 12.6 3.8 -2.6
v 12.6 3.9 -2.6
v 12.7 3.9 -2.5
v 12.7 3.8 -2.5
v 12.8 3.8 -2.5
v 12.8 3.9 -2.5
v 12.8 3.9 -2.6
v 12.8 3.8 -2.6
v 12.7 3.8 -2.6
v 12.7 3.9 -2.6
v 12.8 3.9 -2.5
v 12.8 3.8 -2.5
v 12.9 3.8 -2.5
v 12.9 3.9 -2.5
v 12.9 3.9 -2.6
v 12.9 3.8 -2.6
v 12.8 3.8 -2.6
v 12.8 3.9 -2.6
v 12.9 3.9 -2.5
v 12.9 3.8 -2.5
v 13 3.8 -2.5
v 13 3.9 -2.5
v 13 3.9 -2.6
v 13 3.8 -2.6
v 12.9 3.8 -2.6
v 12.9 3.9 -2.6
v 13 3.9 -2.5
v 13 3.8 -2.5
v 13.1 3.8 -2.5
v 13.1 3.9 -2.5
v 13.1 3.9 -2.6
v 13.1 3.8 -2.6
v 13 3.8 -2.6
v 13 3.9 -2.6
v 13.1 3.9 -2.5
v 13.1 3.8 -2.5
v 13.2 3.8 -2.5
v 13.2 3.9 -2.5
v 13.2 3.9 -2.6
v 13.2 3.8 -2.6
v 13.1 3.8 -2.6
v 13.1 3.9 -2.6
v 13.2 3.9 -2.5
v 13.2 3.8 -2.5
v 13.3 3.8 -2.5
v 13.3 3.9 -2.5
v 13.3 3.9 -2.6
v 13.3 3.8 -2.6
v 13.2 3.8 -2.6
v 13.2 3.9 -2.6
v 13.4 3.9 -2.5
v 13.4 3.8 -2.5
v 13.4 3.8 -2.6
v 13.4 3.9 -2.6
v 13.3 3.8 -2.5
v 13.3 3.8 -2.6
v 13.4 3.8 -2.6
v 13.4 3.8 -2.5
v 13.3 3.9 -2.5
v 13.3 3.8 -2.5
v 13.4 3.8 -2.5
v 13.4 3.9 -2.5
v 13.4 3.9 -2.6
v 13.4 3.8 -2.6
v 13.3 3.8 -2.6
v 13.3 3.9 -2.6
v 19.3 3.9 -2.6
v 19.3 3.8 -2.6
v 19.3 3.8 -2.5
v 19.3 3.9 -2.5
v 19.4 3.9 -2.5
v 19.4 3.8 -2.5
v 19.4 3.8 -2.6
v 19.4 3.9 -2.6
v 19.3 3.9 -2.6
v 19.3 3.9 -2.5
v 19.4 3.9 -2.5
v 19.4 3.9 -2.6
v 19.3 3.8 -2.5
v 19.3 3.8 -2.6
v 19.4 3.8 -2.6
v 19.4 3.8 -2.5
v 19.3 3.9 -2.5
v 19.3 3.8 -2.5
v 19.4 3.8 -2.5
v 19.4 3.9 -2.5
v 19.4 3.9 -2.6
v 19.4 3.8 -2.6
v 19.3 3.8 -2.6
v 19.3 3.9 -2.6
v 12.7 3.8 -2.6
v 12.7 3.7 -2.6
v 12.7 3.7 -2.5
v 12.7 3.8 -2.5
v 12.7 3.7 -2.5
v 12.7 3.7 -2.6
v 12.8 3.7 -2.6
v 12.8 3.7 -2.5
v 12.7 3.8 -2.5
v 12.7 3.7 -2.5
v 12.8 3.7 -2.5
v 12.8 3.8 -2.5
v 12.8 3.8 -2.6
v 12.8 3.7 -2.6
v 12.7 3.7 -2.6
v 12.7 3.8 -2.6
v 12.8 3.7 -2.5
v 12.8 3.7 -2.6
v 12.9 3.7 -2.6
v 12.9 3.7 -2.5
v 12.8 3.8 -2.5
v 12.8 3.7 -2.5
v 12.9 3.7 -2.5
v 12.9 3.8 -2.5
v 12.9 3.8 -2.6
v 12.9 3.7 -2.6
v 12.8 3.7 -2.6
v 12.8 3.8 -2.6
v 12.9 3.7 -2.5
v 12.9 3.7 -2.6
v 13 3.7 -2.6
v 13 3.7 -2.5
v 12.9 3.8 -2.5
v 12.9 3.7 -2.5
v 13 3.7 -2.5
v 13 3.8 -2.5
v 13 3.8 -2.6
v 13 3.7 -2.6
v 12.9 3.7 -2.6
v 12.9 3.8 -2.6
v 13 3.8 -2.5
v 13 3.7 -2.5
v 13.1 3.7 -2.5
v 13.1 3.8 -2.5
v 13.1 3.8 -2.6
v 13.1 3.7 -2.6
v 13 3.7 -2.6
v 13 3.8 -2.6
v 13.1 3.8 -2.5
v 13.1 3.7 -2.5
v 13.2 3.7 -2.5
v 13.2 3.8 -2.5
v 13.2 3.8 -2.6
v 13.2 3.7 -2.6
v 13.1 3.7 -2.6
v 13.1 3.8 -2.6
v 13.3 3.8 -2.5
v 13.3 3.7 -2.5
v 13.3 3.7 -2.6
v 13.3 3.8 -2.6
v 13.2 3.8 -2.5
v 13.2 3.7 -2.5
v 13.3 3.7 -2.5
v 13.3 3.8 -2.5
v 13.3 3.8 -2.6
v 13.3 3.7 -2.6
v 13.2 3.7 -2.6
v 13.2 3.8 -2.6
v 13 3.7 -2.6
v 13 3.6 -2.6
v 13 3.6 -2.5
v 13 3.7 -2.5
v 13 3.6 -2.5
v 13 3.6 -2.6
v 13.1 3.6 -2.6
v 13.1 3.6 -2.5
v 13 3.7 -2.5
v 13 3.6 -2.5
v 13.1 3.6 -2.5
v 13.1 3.7 -2.5
v 13.1 3.7 -2.6
v 13.1 3.6 -2.6
v 13 3.6 -2.6
v 13 3.7 -2.6
v 13.1 3.6 -2.5
v 13.1 3.6 -2.6
v 13.2 3.6 -2.6
v 13.2 3.6 -2.5
v 13.1 3.7 -2.5
v 13.1 3.6 -2.5
v 13.2 3.6 -2.5
v 13.2 3.7 -2.5
v 13.2 3.7 -2.6
v 13.2 3.6 -2.6
v 13.1 3.6 -2.6
v 13.1 3.7 -2.6
v 13.2 3.6 -2.5
v 13.2 3.6 -2.6
v 13.3 3.6 -2.6
v 13.3 3.6 -2.5
v 13.2 3.7 -2.5
v 13.2 3.6 -2.5
v 13.3 3.6 -2.5
v 13.3 3.7 -2.5
v 13.3 3.7 -2.6
v 13.3 3.6 -2.6
v 13.2 3.6 -2.6
v 13.2 3.7 -2.6
v 13.4 3.7 -2.5
v 13.4 3.6 -2.5
v 13.4 3.6 -2.6
v 13.4 3.7 -2.6
v 13.3 3.7 -2.6
v 13.3 3.7 -2.5
v 13.4 3.7 -2.5
v 13.4 3.7 -2.6
v 13.3 3.6 -2.5
v 13.3 3.6 -2.6
v 13.4 3.6 -2.6
v 13.4 3.6 -2.5
v 13.3 3.7 -2.5
v 13.3 3.6 -2.5
v 13.4 3.6 -2.5
v 13.4 3.7 -2.5
v 13.4 3.7 -2.6
v 13.4 3.6 -2.6
v 13.3 3.6 -2.6
v 13.3 3.7 -2.6
v 16.5 3.7 -2.6
v 16.5 3.6 -2.6
v 16.5 3.6 -2.5
v 16.5 3.7 -2.5
v 16.6 3.7 -2.5
v 16.6 3.6 -2.5
v 16.6 3.6 -2.6
v 16.6 3.7 -2.6
v 16.5 3.7 -2.6
v 16.5 3.7 -2.5
v 16.6 3.7 -2.5
v 16.6 3.7 -2.6
v 16.5 3.7 -2.5
v 16.5 3.6 -2.5
v 16.6 3.6 -2.5
v 16.6 3.7 -2.5
v 16.6 3.7 -2.6
v 16.6 3.6 -2.6
v 16.5 3.6 -2.6
v 16.5 3.7 -2.6
v 16.5 3.6 -2.6
v 16.5 3.5 -2.6
v 16.5 3.5 -2.5
v 16.5 3.6 -2.5
v 16.6 3.6 -2.5
v 16.6 3.5 -2.5
v 16.6 3.5 -2.6
v 16.6 3.6 -2.6
v 16.5 3.6 -2.5
v 16.5 3.5 -2.5
v 16.6 3.5 -2.5
v 16.6 3.6 -2.5
v 16.6 3.6 -2.6
v 16.6 3.5 -2.6
v 16.5 3.5 -2.6
v 16.5 3.6 -2.6
v 19.2 3.6 -2.6
v 19.2 3.5 -2.6
v 19.2 3.5 -2.5
v 19.2 3.6 -2.5
v 19.3 3.6 -2.5
v 19.3 3.5 -2.5
v 19.3 3.5 -2.6
v 19.3 3.6 -2.6
v 19.2 3.6 -2.6
v 19.2 3.6 -2.5
v 19.3 3.6 -2.5
v 19.3 3.6 -2.6
v 19.2 3.6 -2.5
v 19.2 3.5 -2.5
v 19.3 3.5 -2.5
v 19.3 3.6 -2.5
v 19.3 3.6 -2.6
v 19.3 3.5 -2.6
v 19.2 3.5 -2.6
v 19.2 3.6 -2.6
v 16.5 3.5 -2.6
v 16.5 3.4 -2.6
v 16.5 3.4 -2.5
v 16.5 3.5 -2.5
v 16.6 3.5 -2.5
v 16.6 3.4 -2.5
v 16.6 3.4 -2.6
v 16.6 3.5 -2.6
v 16.5 3.5 -2.5
v 16.5 3.4 -2.5
v 16.6 3.4 -2.5
v 16.6 3.5 -2.5
v 16.6 3.5 -2.6
v 16.6 3.4 -2.6
v 16.5 3.4 -2.6
v 16.5 3.5 -2.6
v 19.2 3.5 -2.6
v 19.2 3.4 -2.6
v 19.2 3.4 -2.5
v 19.2 3.5 -2.5
v 19.3 3.5 -2.5
v 19.3 3.4 -2.5
v 19.3 3.4 -2.6
v 19.3 3.5 -2.6
v 19.2 3.4 -2.5
v 19.2 3.4 -2.6
v 19.3 3.4 -2.6
v 19.3 3.4 -2.5
v 19.2 3.5 -2.5
v 19.2 3.4 -2.5
v 19.3 3.4 -2.5
v 19.3 3.5 -2.5
v 19.3 3.5 -2.6
v 19.3 3.4 -2.6
v 19.2 3.4 -2.6
v 19.2 3.5 -2.6
v 16.5 3.4 -2.6
v 16.5 3.3 -2.6
v 16.5 3.3 -2.5
v 16.5 3.4 -2.5
v 16.6 3.4 -2.5
v 16.6 3.3 -2.5
v 16.6 3.3 -2.6
v 16.6 3.4 -2.6
v 16.5 3.3 -2.5
v 16.5 3.3 -2.6
v 16.6 3.3 -2.6
v 16.6 3.3 -2.5
v 16.5 3.4 -2.5
v 16.5 3.3 -2.5
v 16.6 3.3 -2.5
v 16.6 3.4 -2.5
v 16.6 3.4 -2.6
v 16.6 3.3 -2.6
v 16.5 3.3 -2.6
v 16.5 3.4 -2.6
v 19.1 3.4 -2.6
v 19.1 3.3 -2.6
v 19.1 3.3 -2.5
v 19.1 3.4 -2.5
v 19.2 3.4 -2.5
v 19.2 3.3 -2.5
v 19.2 3.3 -2.6
v 19.2 3.4 -2.6
v 19.1 3.4 -2.6
v 19.1 3.4 -2.5
v 19.2 3.4 -2.5
v 19.2 3.4 -2.6
v 19.1 3.4 -2.5
v 19.1 3.3 -2.5
v 19.2 3.3 -2.5
v 19.2 3.4 -2.5
v 19.2 3.4 -2.6
v 19.2 3.3 -2.6
v 19.1 3.3 -2.6
v 19.1 3.4 -2.6
v 16.4 3.3 -2.6
v 16.4 3.2 -2.6
v 16.4 3.2 -2.5
v 16.4 3.3 -2.5
v 16.5 3.3 -2.5
v 16.5 3.2 -2.5
v 16.5 3.2 -2.6
v 16.5 3.3 -2.6
v 16.4 3.3 -2.6
v 16.4 3.3 -2.5
v 16.5 3.3 -2.5
v 16.5 3.3 -2.6
v 16.4 3.3 -2.5
v 16.4 3.2 -2.5
v 16.5 3.2 -2.5
v 16.5 3.3 -2.5
v 16.5 3.3 -2.6
v 16.5 3.2 -2.6
v 16.4 3.2 -2.6
v 16.4 3.3 -2.6
v 19 3.3 -2.6
v 19 3.2 -2.6
v 19 3.2 -2.5
v 19 3.3 -2.5
v 19 3.3 -2.6
v 19 3.3 -2.5
v 19.1 3.3 -2.5
v 19.1 3.3 -2.6
v 19 3.3 -2.5
v 19 3.2 -2.5
v 19.1 3.2 -2.5
v 19.1 3.3 -2.5
v 19.1 3.3 -2.6
v 19.1 3.2 -2.6
v 19 3.2 -2.6
v 19 3.3 -2.6
v 19.2 3.3 -2.5
v 19.2 3.2 -2.5
v 19.2 3.2 -2.6
v 19.2 3.3 -2.6
v 19.1 3.2 -2.5
v 19.1 3.2 -2.6
v 19.2 3.2 -2.6
v 19.2 3.2 -2.5
v 19.1 3.3 -2.5
v 19.1 3.2 -2.5
v 19.2 3.2 -2.5
v 19.2 3.3 -2.5
v 19.2 3.3 -2.6
v 19.2 3.2 -2.6
v 19.1 3.2 -2.6
v 19.1 3.3 -2.6
v 16.4 3.2 -2.6
v 16.4 3.1 -2.6
v 16.4 3.1 -2.5
v 16.4 3.2 -2.5
v 16.5 3.2 -2.5
v 16.5 3.1 -2.5
v 16.5 3.1 -2.6
v 16.5 3.2 -2.6
v 16.4 3.2 -2.5
v 16.4 3.1 -2.5
v 16.5 3.1 -2.5
v 16.5 3.2 -2.5
v 16.5 3.2 -2.6
v 16.5 3.1 -2.6
v 16.4 3.1 -2.6
v 16.4 3.2 -2.6
v 18.9 3.2 -2.6
v 18.9 3.1 -2.6
v 18.9 3.1 -2.5
v 18.9 3.2 -2.5
v 18.9 3.2 -2.6
v 18.9 3.2 -2.5
v 19 3.2 -2.5
v 19 3.2 -2.6
v 18.9 3.2 -2.5
v 18.9 3.1 -2.5
v 19 3.1 -2.5
v 19 3.2 -2.5
v 19 3.2 -2.6
v 19 3.1 -2.6
v 18.9 3.1 -2.6
v 18.9 3.2 -2.6
v 19.1 3.2 -2.5
v 19.1 3.1 -2.5
v 19.1 3.1 -2.6
v 19.1 3.2 -2.6
v 19 3.1 -2.5
v 19 3.1 -2.6
v 19.1 3.1 -2.6
v 19.1 3.1 -2.5
v 19 3.2 -2.5
v 19 3.1 -2.5
v 19.1 3.1 -2.5
v 19.1 3.2 -2.5
v 19.1 3.2 -2.6
v 19.1 3.1 -2.6
v 19 3.1 -2.6
v 19 3.2 -2.6
v 16.4 3.1 -2.6
v 16.4 3 -2.6
v 16.4 3 -2.5
v 16.4 3.1 -2.5
v 16.5 3.1 -2.5
v 16.5 3 -2.5
v 16.5 3 -2.6
v 16.5 3.1 -2.6
v 16.4 3.1 -2.5
v 16.4 3 -2.5
v 16.5 3 -2.5
v 16.5 3.1 -2.5
v 16.5 3.1 -2.6
v 16.5 3 -2.6
v 16.4 3 -2.6
v 16.4 3.1 -2.6
v 18.8 3.1 -2.6
v 18.8 3 -2.6
v 18.8 3 -2.5
v 18.8 3.1 -2.5
v 18.8 3.1 -2.6
v 18.8 3.1 -2.5
v 18.9 3.1 -2.5
v 18.9 3.1 -2.6
v 18.8 3.1 -2.5
v 18.8 3 -2.5
v 18.9 3 -2.5
v 18.9 3.1 -2.5
v 18.9 3.1 -2.6
v 18.9 3 -2.6
v 18.8 3 -2.6
v 18.8 3.1 -2.6
v 19 3.1 -2.5
v 19 3 -2.5
v 19 3 -2.6
v 19 3.1 -2.6
v 18.9 3 -2.5
v 18.9 3 -2.6
v 19 3 -2.6
v 19 3 -2.5
v 18.9 3.1 -2.5
v 18.9 3 -2.5
v 19 3 -2.5
v 19 3.1 -2.5
v 19 3.1 -2.6
v 19 3 -2.6
v 18.9 3 -2.6
v 18.9 3.1 -2.6
v 16.4 3 -2.6
v 16.4 2.9 -2.6
v 16.4 2.9 -2.5
v 16.4 3 -2.5
v 16.4 3 -2.5
v 16.4 2.9 -2.5
v 16.5 2.9 -2.5
v 16.5 3 -2.5
v 16.5 3 -2.6
v 16.5 2.9 -2.6
v 16.4 2.9 -2.6
v 16.4 3 -2.6
v 16.6 3 -2.5
v 16.6 2.9 -2.5
v 16.6 2.9 -2.6
v 16.6 3 -2.6
v 16.5 3 -2.6
v 16.5 3 -2.5
v 16.6 3 -2.5
v 16.6 3 -2.6
v 16.5 3 -2.5
v 16.5 2.9 -2.5
v 16.6 2.9 -2.5
v 16.6 3 -2.5
v 16.6 3 -2.6
v 16.6 2.9 -2.6
v 16.5 2.9 -2.6
v 16.5 3 -2.6
v 18.7 3 -2.6
v 18.7 2.9 -2.6
v 18.7 2.9 -2.5
v 18.7 3 -2.5
v 18.7 3 -2.6
v 18.7 3 -2.5
v 18.8 3 -2.5
v 18.8 3 -2.6
v 18.7 3 -2.5
v 18.7 2.9 -2.5
v 18.8 2.9 -2.5
v 18.8 3 -2.5
v 18.8 3 -2.6
v 18.8 2.9 -2.6
v 18.7 2.9 -2.6
v 18.7 3 -2.6
v 18.9 3 -2.5
v 18.9 2.9 -2.5
v 18.9 2.9 -2.6
v 18.9 3 -2.6
v 18.8 2.9 -2.5
v 18.8 2.9 -2.6
v 18.9 2.9 -2.6
v 18.9 2.9 -2.5
v 18.8 3 -2.5
v 18.8 2.9 -2.5
v 18.9 2.9 -2.5
v 18.9 3 -2.5
v 18.9 3 -2.6
v 18.9 2.9 -2.6
v 18.8 2.9 -2.6
v 18.8 3 -2.6
v 16.4 2.9 -2.6
v 16.4 2.8 -2.6
v 16.4 2.8 -2.5
v 16.4 2.9 -2.5
v 16.4 2.9 -2.5
v 16.4 2.8 -2.5
v 16.5 2.8 -2.5
v 16.5 2.9 -2.5
v 16.5 2.9 -2.6
v 16.5 2.8 -2.6
v 16.4 2.8 -2.6
v 16.4 2.9 -2.6
v 16.6 2.9 -2.5
v 16.6 2.8 -2.5
v 16.6 2.8 -2.6
v 16.6 2.9 -2.6
v 16.5 2.9 -2.5
v 16.5 2.8 -2.5
v 16.6 2.8 -2.5
v 16.6 2.9 -2.5
v 16.6 2.9 -2.6
v 16.6 2.8 -2.6
v 16.5 2.8 -2.6
v 16.5 2.9 -2.6
v 18.6 2.9 -2.6
v 18.6 2.8 -2.6
v 18.6 2.8 -2.5
v 18.6 2.9 -2.5
v 18.6 2.9 -2.6
v 18.6 2.9 -2.5
v 18.7 2.9 -2.5
v 18.7 2.9 -2.6
v 18.6 2.9 -2.5
v 18.6 2.8 -2.5
v 18.7 2.8 -2.5
v 18.7 2.9 -2.5
v 18.7 2.9 -2.6
v 18.7 2.8 -2.6
v 18.6 2.8 -2.6
v 18.6 2.9 -2.6
v 18.8 2.9 -2.5
v 18.8 2.8 -2.5
v 18.8 2.8 -2.6
v 18.8 2.9 -2.6
v 18.7 2.8 -2.5
v 18.7 2.8 -2.6
v 18.8 2.8 -2.6
v 18.8 2.8 -2.5
v 18.7 2.9 -2.5
v 18.7 2.8 -2.5
v 18.8 2.8 -2.5
v 18.8 2.9 -2.5
v 18.8 2.9 -2.6
v 18.8 2.8 -2.6
v 18.7 2.8 -2.6
v 18.7 2.9 -2.6
v 16.4 2.8 -2.6
v 16.4 2.7 -2.6
v 16.4 2.7 -2.5
v 16.4 2.8 -2.5
v 16.4 2.8 -2.5
v 16.4 2.7 -2.5
v 16.5 2.7 -2.5
v 16.5 2.8 -2.5
v 16.5 2.8 -2.6
v 16.5 2.7 -2.6
v 16.4 2.7 -2.6
v 16.4 2.8 -2.6
v 16.6 2.8 -2.5
v 16.6 2.7 -2.5
v 16.6 2.7 -2.6
v 16.6 2.8 -2.6
v 16.5 2.8 -2.5
v 16.5 2.7 -2.5
v 16.6 2.7 -2.5
v 16.6 2.8 -2.5
v 16.6 2.8 -2.6
v 16.6 2.7 -2.6
v 16.5 2.7 -2.6
v 16.5 2.8 -2.6
v 18.5 2.8 -2.6
v 18.5 2.7 -2.6
v 18.5 2.7 -2.5
v 18.5 2.8 -2.5
v 18.5 2.8 -2.6
v 18.5 2.8 -2.5
v 18.6 2.8 -2.5
v 18.6 2.8 -2.6
v 18.5 2.8 -2.5
v 18.5 2.7 -2.5
v 18.6 2.7 -2.5
v 18.6 2.8 -2.5
v 18.6 2.8 -2.6
v 18.6 2.7 -2.6
v 18.5 2.7 -2.6
v 18.5 2.8 -2.6
v 18.7 2.8 -2.5
v 18.7 2.7 -2.5
v 18.7 2.7 -2.6
v 18.7 2.8 -2.6
v 18.6 2.7 -2.5
v 18.6 2.7 -2.6
v 18.7 2.7 -2.6
v 18.7 2.7 -2.5
v 18.6 2.8 -2.5
v 18.6 2.7 -2.5
v 18.7 2.7 -2.5
v 18.7 2.8 -2.5
v 18.7 2.8 -2.6
v 18.7 2.7 -2.6
v 18.6 2.7 -2.6
v 18.6 2.8 -2.6
v 16.3 2.7 -2.6
v 16.3 2.6 -2.6
v 16.3 2.6 -2.5
v 16.3 2.7 -2.5
v 16.3 2.7 -2.6
v 16.3 2.7 -2.5
v 16.4 2.7 -2.5
v 16.4 2.7 -2.6
v 16.3 2.7 -2.5
v 16.3 2.6 -2.5
v 16.4 2.6 -2.5
v 16.4 2.7 -2.5
v 16.4 2.7 -2.6
v 16.4 2.6 -2.6
v 16.3 2.6 -2.6
v 16.3 2.7 -2.6
v 16.4 2.7 -2.5
v 16.4 2.6 -2.5
v 16.5 2.6 -2.5
v 16.5 2.7 -2.5
v 16.5 2.7 -2.6
v 16.5 2.6 -2.6
v 16.4 2.6 -2.6
v 16.4 2.7 -2.6
v 16.6 2.7 -2.5
v 16.6 2.6 -2.5
v 16.6 2.6 -2.6
v 16.6 2.7 -2.6
v 16.5 2.7 -2.5
v 16.5 2.6 -2.5
v 16.6 2.6 -2.5
v 16.6 2.7 -2.5
v 16.6 2.7 -2.6
v 16.6 2.6 -2.6
v 16.5 2.6 -2.6
v 16.5 2.7 -2.6
v 18.4 2.7 -2.6
v 18.4 2.6 -2.6
v 18.4 2.6 -2.5
v 18.4 2.7 -2.5
v 18.4 2.7 -2.6
v 18.4 2.7 -2.5
v 18.5 2.7 -2.5
v 18.5 2.7 -2.6
v 18.4 2.7 -2.5
v 18.4 2.6 -2.5
v 18.5 2.6 -2.5
v 18.5 2.7 -2.5
v 18.5 2.7 -2.6
v 18.5 2.6 -2.6
v 18.4 2.6 -2.6
v 18.4 2.7 -2.6
v 18.6 2.7 -2.5
v 18.6 2.6 -2.5
v 18.6 2.6 -2.6
v 18.6 2.7 -2.6
v 18.5 2.6 -2.5
v 18.5 2.6 -2.6
v 18.6 2.6 -2.6
v 18.6 2.6 -2.5
v 18.5 2.7 -2.5
v 18.5 2.6 -2.5
v 18.6 2.6 -2.5
v 18.6 2.7 -2.5
v 18.6 2.7 -2.6
v 18.6 2.6 -2.6
v 18.5 2.6 -2.6
v 18.5 2.7 -2.6
v 16.3 2.6 -2.6
v 16.3 2.5 -2.6
v 16.3 2.5 -2.5
v 16.3 2.6 -2.5
v 16.3 2.6 -2.5
v 16.3 2.5 -2.5
v 16.4 2.5 -2.5
v 16.4 2.6 -2.5
v 16.4 2.6 -2.6
v 16.4 2.5 -2.6
v 16.3 2.5 -2.6
v 16.3 2.6 -2.6
v 16.4 2.6 -2.5
v 16.4 2.5 -2.5
v 16.5 2.5 -2.5
v 16.5 2.6 -2.5
v 16.5 2.6 -2.6
v 16.5 2.5 -2.6
v 16.4 2.5 -2.6
v 16.4 2.6 -2.6
v 16.6 2.6 -2.5
v 16.6 2.5 -2.5
v 16.6 2.5 -2.6
v 16.6 2.6 -2.6
v 16.5 2.6 -2.5
v 16.5 2.5 -2.5
v 16.6 2.5 -2.5
v 16.6 2.6 -2.5
v 16.6 2.6 -2.6
v 16.6 2.5 -2.6
v 16.5 2.5 -2.6
v 16.5 2.6 -2.6
v 18.3 2.6 -2.6
v 18.3 2.5 -2.6
v 18.3 2.5 -2.5
v 18.3 2.6 -2.5
v 18.3 2.6 -2.6
v 18.3 2.6 -2.5
v 18.4 2.6 -2.5
v 18.4 2.6 -2.6
v 18.3 2.6 -2.5
v 18.3 2.5 -2.5
v 18.4 2.5 -2.5
v 18.4 2.6 -2.5
v 18.4 2.6 -2.6
v 18.4 2.5 -2.6
v 18.3 2.5 -2.6
v 18.3 2.6 -2.6
v 18.5 2.6 -2.5
v 18.5 2.5 -2.5
v 18.5 2.5 -2.6
v 18.5 2.6 -2.6
v 18.4 2.5 -2.5
v 18.4 2.5 -2.6
v 18.5 2.5 -2.6
v 18.5 2.5 -2.5
v 18.4 2.6 -2.5
v 18.4 2.5 -2.5
v 18.5 2.5 -2.5
v 18.5 2.6 -2.5
v 18.5 2.6 -2.6
v 18.5 2.5 -2.6
v 18.4 2.5 -2.6
v 18.4 2.6 -2.6
v 16.3 2.5 -2.6
v 16.3 2.4 -2.6
v 16.3 2.4 -2.5
v 16.3 2.5 -2.5
v 16.3 2.5 -2.5
v 16.3 2.4 -2.5
v 16.4 2.4 -2.5
v 16.4 2.5 -2.5
v 16.4 2.5 -2.6
v 16.4 2.4 -2.6
v 16.3 2.4 -2.6
v 16.3 2.5 -2.6
v 16.4 2.5 -2.5
v 16.4 2.4 -2.5
v 16.5 2.4 -2.5
v 16.5 2.5 -2.5
v 16.5 2.5 -2.6
v 16.5 2.4 -2.6
v 16.4 2.4 -2.6
v 16.4 2.5 -2.6
v 16.5 2.5 -2.5
v 16.5 2.4 -2.5
v 16.6 2.4 -2.5
v 16.6 2.5 -2.5
v 16.6 2.5 -2.6
v 16.6 2.4 -2.6
v 16.5 2.4 -2.6
v 16.5 2.5 -2.6
v 16.7 2.5 -2.5
v 16.7 2.4 -2.5
v 16.7 2.4 -2.6
v 16.7 2.5 -2.6
v 16.6 2.5 -2.6
v 16.6 2.5 -2.5
v 16.7 2.5 -2.5
v 16.7 2.5 -2.6
v 16.6 2.5 -2.5
v 16.6 2.4 -2.5
v 16.7 2.4 -2.5
v 16.7 2.5 -2.5
v 16.7 2.5 -2.6
v 16.7 2.4 -2.6
v 16.6 2.4 -2.6
v 16.6 2.5 -2.6
v 18.1 2.5 -2.6
v 18.1 2.4 -2.6
v 18.1 2.4 -2.5
v 18.1 2.5 -2.5
v 18.1 2.5 -2.6
v 18.1 2.5 -2.5
v 18.2 2.5 -2.5
v 18.2 2.5 -2.6
v 18.1 2.5 -2.5
v 18.1 2.4 -2.5
v 18.2 2.4 -2.5
v 18.2 2.5 -2.5
v 18.2 2.5 -2.6
v 18.2 2.4 -2.6
v 18.1 2.4 -2.6
v 18.1 2.5 -2.6
v 18.2 2.5 -2.6
v 18.2 2.5 -2.5
v 18.3 2.5 -2.5
v 18.3 2.5 -2.6
v 18.2 2.5 -2.5
v 18.2 2.4 -2.5
v 18.3 2.4 -2.5
v 18.3 2.5 -2.5
v 18.3 2.5 -2.6
v 18.3 2.4 -2.6
v 18.2 2.4 -2.6
v 18.2 2.5 -2.6
v 18.4 2.5 -2.5
v 18.4 2.4 -2.5
v 18.4 2.4 -2.6
v 18.4 2.5 -2.6
v 18.3 2.4 -2.5
v 18.3 2.4 -2.6
v 18.4 2.4 -2.6
v 18.4 2.4 -2.5
v 18.3 2.5 -2.5
v 18.3 2.4 -2.5
v 18.4 2.4 -2.5
v 18.4 2.5 -2.5
v 18.4 2.5 -2.6
v 18.4 2.4 -2.6
v 18.3 2.4 -2.6
v 18.3 2.5 -2.6
v 16.3 2.4 -2.6
v 16.3 2.3 -2.6
v 16.3 2.3 -2.5
v 16.3 2.4 -2.5
v 16.3 2.4 -2.5
v 16.3 2.3 -2.5
v 16.4 2.3 -2.5
v 16.4 2.4 -2.5
v 16.4 2.4 -2.6
v 16.4 2.3 -2.6
v 16.3 2.3 -2.6
v 16.3 2.4 -2.6
v 16.4 2.4 -2.5
v 16.4 2.3 -2.5
v 16.5 2.3 -2.5
v 16.5 2.4 -2.5
v 16.5 2.4 -2.6
v 16.5 2.3 -2.6
v 16.4 2.3 -2.6
v 16.4 2.4 -2.6
v 16.5 2.4 -2.5
v 16.5 2.3 -2.5
v 16.6 2.3 -2.5
v 16.6 2.4 -2.5
v 16.6 2.4 -2.6
v 16.6 2.3 -2.6
v 16.5 2.3 -2.6
v 16.5 2.4 -2.6
v 16.7 2.4 -2.5
v 16.7 2.3 -2.5
v 16.7 2.3 -2.6
v 16.7 2.4 -2.6
v 16.6 2.4 -2.5
v 16.6 2.3 -2.5
v 16.7 2.3 -2.5
v 16.7 2.4 -2.5
v 16.7 2.4 -2.6
v 16.7 2.3 -2.6
v 16.6 2.3 -2.6
v 16.6 2.4 -2.6
v 18 2.4 -2.6
v 18 2.3 -2.6
v 18 2.3 -2.5
v 18 2.4 -2.5
v 18 2.4 -2.6
v 18 2.4 -2.5
v 18.1 2.4 -2.5
v 18.1 2.4 -2.6
v 18 2.4 -2.5
v 18 2.3 -2.5
v 18.1 2.3 -2.5
v 18.1 2.4 -2.5
v 18.1 2.4 -2.6
v 18.1 2.3 -2.6
v 18 2.3 -2.6
v 18 2.4 -2.6
v 18.1 2.4 -2.5
v 18.1 2.3 -2.5
v 18.2 2.3 -2.5
v 18.2 2.4 -2.5
v 18.2 2.4 -2.6
v 18.2 2.3 -2.6
v 18.1 2.3 -2.6
v 18.1 2.4 -2.6
v 18.3 2.4 -2.5
v 18.3 2.3 -2.5
v 18.3 2.3 -2.6
v 18.3 2.4 -2.6
v 18.2 2.3 -2.5
v 18.2 2.3 -2.6
v 18.3 2.3 -2.6
v 18.3 2.3 -2.5
v 18.2 2.4 -2.5
v 18.2 2.3 -2.5
v 18.3 2.3 -2.5
v 18.3 2.4 -2.5
v 18.3 2.4 -2.6
v 18.3 2.3 -2.6
v 18.2 2.3 -2.6
v 18.2 2.4 -2.6
v 16.3 2.3 -2.6
v 16.3 2.2 -2.6
v 16.3 2.2 -2.5
v 16.3 2.3 -2.5
v 16.3 2.3 -2.5
v 16.3 2.2 -2.5
v 16.4 2.2 -2.5
v 16.4 2.3 -2.5
v 16.4 2.3 -2.6
v 16.4 2.2 -2.6
v 16.3 2.2 -2.6
v 16.3 2.3 -2.6
v 16.4 2.3 -2.5
v 16.4 2.2 -2.5
v 16.5 2.2 -2.5
v 16.5 2.3 -2.5
v 16.5 2.3 -2.6
v 16.5 2.2 -2.6
v 16.4 2.2 -2.6
v 16.4 2.3 -2.6
v 16.5 2.3 -2.5
v 16.5 2.2 -2.5
v 16.6 2.2 -2.5
v 16.6 2.3 -2.5
v 16.6 2.3 -2.6
v 16.6 2.2 -2.6
v 16.5 2.2 -2.6
v 16.5 2.3 -2.6
v 16.6 2.3 -2.5
v 16.6 2.2 -2.5
v 16.7 2.2 -2.5
v 16.7 2.3 -2.5
v 16.7 2.3 -2.6
v 16.7 2.2 -2.6
v 16.6 2.2 -2.6
v 16.6 2.3 -2.6
v 16.8 2.3 -2.5
v 16.8 2.2 -2.5
v 16.8 2.2 -2.6
v 16.8 2.3 -2.6
v 16.7 2.3 -2.6
v 16.7 2.3 -2.5
v 16.8 2.3 -2.5
v 16.8 2.3 -2.6
v 16.7 2.3 -2.5
v 16.7 2.2 -2.5
v 16.8 2.2 -2.5
v 16.8 2.3 -2.5
v 16.8 2.3 -2.6
v 16.8 2.2 -2.6
v 16.7 2.2 -2.6
v 16.7 2.3 -2.6
v 17.8 2.3 -2.6
v 17.8 2.2 -2.6
v 17.8 2.2 -2.5
v 17.8 2.3 -2.5
v 17.8 2.3 -2.6
v 17.8 2.3 -2.5
v 17.9 2.3 -2.5
v 17.9 2.3 -2.6
v 17.8 2.3 -2.5
v 17.8 2.2 -2.5
v 17.9 2.2 -2.5
v 17.9 2.3 -2.5
v 17.9 2.3 -2.6
v 17.9 2.2 -2.6
v 17.8 2.2 -2.6
v 17.8 2.3 -2.6
v 17.9 2.3 -2.6
v 17.9 2.3 -2.5
v 18 2.3 -2.5
v 18 2.3 -2.6
v 17.9 2.3 -2.5
v 17.9 2.2 -2.5
v 18 2.2 -2.5
v 18 2.3 -2.5
v 18 2.3 -2.6
v 18 2.2 -2.6
v 17.9 2.2 -2.6
v 17.9 2.3 -2.6
v 18 2.3 -2.5
v 18 2.2 -2.5
v 18.1 2.2 -2.5
v 18.1 2.3 -2.5
v 18.1 2.3 -2.6
v 18.1 2.2 -2.6
v 18 2.2 -2.6
v 18 2.3 -2.6
v 18.2 2.3 -2.5
v 18.2 2.2 -2.5
v 18.2 2.2 -2.6
v 18.2 2.3 -2.6
v 18.1 2.2 -2.5
v 18.1 2.2 -2.6
v 18.2 2.2 -2.6
v 18.2 2.2 -2.5
v 18.1 2.3 -2.5
v 18.1 2.2 -2.5
v 18.2 2.2 -2.5
v 18.2 2.3 -2.5
v 18.2 2.3 -2.6
v 18.2 2.2 -2.6
v 18.1 2.2 -2.6
v 18.1 2.3 -2.6
v 16.3 2.2 -2.6
v 16.3 2.1 -2.6
v 16.3 2.1 -2.5
v 16.3 2.2 -2.5
v 16.3 2.1 -2.5
v 16.3 2.1 -2.6
v 16.4 2.1 -2.6
v 16.4 2.1 -2.5
v 16.3 2.2 -2.5
v 16.3 2.1 -2.5
v 16.4 2.1 -2.5
v 16.4 2.2 -2.5
v 16.4 2.2 -2.6
v 16.4 2.1 -2.6
v 16.3 2.1 -2.6
v 16.3 2.2 -2.6
v 16.4 2.2 -2.5
v 16.4 2.1 -2.5
v 16.5 2.1 -2.5
v 16.5 2.2 -2.5
v 16.5 2.2 -2.6
v 16.5 2.1 -2.6
v 16.4 2.1 -2.6
v 16.4 2.2 -2.6
v 16.5 2.2 -2.5
v 16.5 2.1 -2.5
v 16.6 2.1 -2.5
v 16.6 2.2 -2.5
v 16.6 2.2 -2.6
v 16.6 2.1 -2.6
v 16.5 2.1 -2.6
v 16.5 2.2 -2.6
v 16.6 2.2 -2.5
v 16.6 2.1 -2.5
v 16.7 2.1 -2.5
v 16.7 2.2 -2.5
v 16.7 2.2 -2.6
v 16.7 2.1 -2.6
v 16.6 2.1 -2.6
v 16.6 2.2 -2.6
v 16.7 2.2 -2.5
v 16.7 2.1 -2.5
v 16.8 2.1 -2.5
v 16.8 2.2 -2.5
v 16.8 2.2 -2.6
v 16.8 2.1 -2.6
v 16.7 2.1 -2.6
v 16.7 2.2 -2.6
v 16.8 2.2 -2.6
v 16.8 2.2 -2.5
v 16.9 2.2 -2.5
v 16.9 2.2 -2.6
v 16.8 2.2 -2.5
v 16.8 2.1 -2.5
v 16.9 2.1 -2.5
v 16.9 2.2 -2.5
v 16.9 2.2 -2.6
v 16.9 2.1 -2.6
v 16.8 2.1 -2.6
v 16.8 2.2 -2.6
v 17 2.2 -2.5
v 17 2.1 -2.5
v 17 2.1 -2.6
v 17 2.2 -2.6
v 16.9 2.2 -2.6
v 16.9 2.2 -2.5
v 17 2.2 -2.5
v 17 2.2 -2.6
v 16.9 2.2 -2.5
v 16.9 2.1 -2.5
v 17 2.1 -2.5
v 17 2.2 -2.5
v 17 2.2 -2.6
v 17 2.1 -2.6
v 16.9 2.1 -2.6
v 16.9 2.2 -2.6
v 17.6 2.2 -2.6
v 17.6 2.1 -2.6
v 17.6 2.1 -2.5
v 17.6 2.2 -2.5
v 17.6 2.2 -2.6
v 17.6 2.2 -2.5
v 17.7 2.2 -2.5
v 17.7 2.2 -2.6
v 17.6 2.2 -2.5
v 17.6 2.1 -2.5
v 17.7 2.1 -2.5
v 17.7 2.2 -2.5
v 17.7 2.2 -2.6
v 17.7 2.1 -2.6
v 17.6 2.1 -2.6
v 17.6 2.2 -2.6
v 17.7 2.2 -2.6
v 17.7 2.2 -2.5
v 17.8 2.2 -2.5
v 17.8 2.2 -2.6
v 17.7 2.2 -2.5
v 17.7 2.1 -2.5
v 17.8 2.1 -2.5
v 17.8 2.2 -2.5
v 17.8 2.2 -2.6
v 17.8 2.1 -2.6
v 17.7 2.1 -2.6
v 17.7 2.2 -2.6
v 17.8 2.2 -2.5
v 17.8 2.1 -2.5
v 17.9 2.1 -2.5
v 17.9 2.2 -2.5
v 17.9 2.2 -2.6
v 17.9 2.1 -2.6
v 17.8 2.1 -2.6
v 17.8 2.2 -2.6
v 17.9 2.2 -2.5
v 17.9 2.1 -2.5
v 18 2.1 -2.5
v 18 2.2 -2.5
v 18 2.2 -2.6
v 18 2.1 -2.6
v 17.9 2.1 -2.6
v 17.9 2.2 -2.6
v 18.1 2.2 -2.5
v 18.1 2.1 -2.5
v 18.1 2.1 -2.6
v 18.1 2.2 -2.6
v 18 2.1 -2.5
v 18 2.1 -2.6
v 18.1 2.1 -2.6
v 18.1 2.1 -2.5
v 18 2.2 -2.5
v 18 2.1 -2.5
v 18.1 2.1 -2.5
v 18.1 2.2 -2.5
v 18.1 2.2 -2.6
v 18.1 2.1 -2.6
v 18 2.1 -2.6
v 18 2.2 -2.6
v 16.4 2.1 -2.6
v 16.4 2 -2.6
v 16.4 2 -2.5
v 16.4 2.1 -2.5
v 16.4 2.1 -2.5
v 16.4 2 -2.5
v 16.5 2 -2.5
v 16.5 2.1 -2.5
v 16.5 2.1 -2.6
v 16.5 2 -2.6
v 16.4 2 -2.6
v 16.4 2.1 -2.6
v 16.5 2.1 -2.5
v 16.5 2 -2.5
v 16.6 2 -2.5
v 16.6 2.1 -2.5
v 16.6 2.1 -2.6
v 16.6 2 -2.6
v 16.5 2 -2.6
v 16.5 2.1 -2.6
v 16.6 2.1 -2.5
v 16.6 2 -2.5
v 16.7 2 -2.5
v 16.7 2.1 -2.5
v 16.7 2.1 -2.6
v 16.7 2 -2.6
v 16.6 2 -2.6
v 16.6 2.1 -2.6
v 16.7 2.1 -2.5
v 16.7 2 -2.5
v 16.8 2 -2.5
v 16.8 2.1 -2.5
v 16.8 2.1 -2.6
v 16.8 2 -2.6
v 16.7 2 -2.6
v 16.7 2.1 -2.6
v 16.8 2.1 -2.5
v 16.8 2 -2.5
v 16.9 2 -2.5
v 16.9 2.1 -2.5
v 16.9 2.1 -2.6
v 16.9 2 -2.6
v 16.8 2 -2.6
v 16.8 2.1 -2.6
v 16.9 2.1 -2.5
v 16.9 2 -2.5
v 17 2 -2.5
v 17 2.1 -2.5
v 17 2.1 -2.6
v 17 2 -2.6
v 16.9 2 -2.6
v 16.9 2.1 -2.6
v 17 2.1 -2.6
v 17 2.1 -2.5
v 17.1 2.1 -2.5
v 17.1 2.1 -2.6
v 17 2.1 -2.5
v 17 2 -2.5
v 17.1 2 -2.5
v 17.1 2.1 -2.5
v 17.1 2.1 -2.6
v 17.1 2 -2.6
v 17 2 -2.6
v 17 2.1 -2.6
v 17.1 2.1 -2.6
v 17.1 2.1 -2.5
v 17.2 2.1 -2.5
v 17.2 2.1 -2.6
v 17.1 2.1 -2.5
v 17.1 2 -2.5
v 17.2 2 -2.5
v 17.2 2.1 -2.5
v 17.2 2.1 -2.6
v 17.2 2 -2.6
v 17.1 2 -2.6
v 17.1 2.1 -2.6
v 17.2 2.1 -2.6
v 17.2 2.1 -2.5
v 17.3 2.1 -2.5
v 17.3 2.1 -2.6
v 17.2 2.1 -2.5
v 17.2 2 -2.5
v 17.3 2 -2.5
v 17.3 2.1 -2.5
v 17.3 2.1 -2.6
v 17.3 2 -2.6
v 17.2 2 -2.6
v 17.2 2.1 -2.6
v 17.3 2.1 -2.6
v 17.3 2.1 -2.5
v 17.4 2.1 -2.5
v 17.4 2.1 -2.6
v 17.3 2.1 -2.5
v 17.3 2 -2.5
v 17.4 2 -2.5
v 17.4 2.1 -2.5
v 17.4 2.1 -2.6
v 17.4 2 -2.6
v 17.3 2 -2.6
v 17.3 2.1 -2.6
v 17.4 2.1 -2.6
v 17.4 2.1 -2.5
v 17.5 2.1 -2.5
v 17.5 2.1 -2.6
v 17.4 2.1 -2.5
v 17.4 2 -2.5
v 17.5 2 -2.5
v 17.5 2.1 -2.5
v 17.5 2.1 -2.6
v 17.5 2 -2.6
v 17.4 2 -2.6
v 17.4 2.1 -2.6
v 17.5 2.1 -2.6
v 17.5 2.1 -2.5
v 17.6 2.1 -2.5
v 17.6 2.1 -2.6
v 17.5 2.1 -2.5
v 17.5 2 -2.5
v 17.6 2 -2.5
v 17.6 2.1 -2.5
v 17.6 2.1 -2.6
v 17.6 2 -2.6
v 17.5 2 -2.6
v 17.5 2.1 -2.6
v 17.6 2.1 -2.5
v 17.6 2 -2.5
v 17.7 2 -2.5
v 17.7 2.1 -2.5
v 17.7 2.1 -2.6
v 17.7 2 -2.6
v 17.6 2 -2.6
v 17.6 2.1 -2.6
v 17.7 2.1 -2.5
v 17.7 2 -2.5
v 17.8 2 -2.5
v 17.8 2.1 -2.5
v 17.8 2.1 -2.6
v 17.8 2 -2.6
v 17.7 2 -2.6
v 17.7 2.1 -2.6
v 17.8 2.1 -2.5
v 17.8 2 -2.5
v 17.9 2 -2.5
v 17.9 2.1 -2.5
v 17.9 2.1 -2.6
v 17.9 2 -2.6
v 17.8 2 -2.6
v 17.8 2.1 -2.6
v 18 2.1 -2.5
v 18 2 -2.5
v 18 2 -2.6
v 18 2.1 -2.6
v 17.9 2 -2.5
v 17.9 2 -2.6
v 18 2 -2.6
v 18 2 -2.5
v 17.9 2.1 -2.5
v 17.9 2 -2.5
v 18 2 -2.5
v 18 2.1 -2.5
v 18 2.1 -2.6
v 18 2 -2.6
v 17.9 2 -2.6
v 17.9 2.1 -2.6
v 16.4 2 -2.6
v 16.4 1.9 -2.6
v 16.4 1.9 -2.5
v 16.4 2 -2.5
v 16.4 2 -2.5
v 16.4 1.9 -2.5
v 16.5 1.9 -2.5
v 16.5 2 -2.5
v 16.5 2 -2.6
v 16.5 1.9 -2.6
v 16.4 1.9 -2.6
v 16.4 2 -2.6
v 16.5 2 -2.5
v 16.5 1.9 -2.5
v 16.6 1.9 -2.5
v 16.6 2 -2.5
v 16.6 2 -2.6
v 16.6 1.9 -2.6
v 16.5 1.9 -2.6
v 16.5 2 -2.6
v 16.6 2 -2.5
v 16.6 1.9 -2.5
v 16.7 1.9 -2.5
v 16.7 2 -2.5
v 16.7 2 -2.6
v 16.7 1.9 -2.6
v 16.6 1.9 -2.6
v 16.6 2 -2.6
v 16.7 2 -2.5
v 16.7 1.9 -2.5
v 16.8 1.9 -2.5
v 16.8 2 -2.5
v 16.8 2 -2.6
v 16.8 1.9 -2.6
v 16.7 1.9 -2.6
v 16.7 2 -2.6
v 16.8 2 -2.5
v 16.8 1.9 -2.5
v 16.9 1.9 -2.5
v 16.9 2 -2.5
v 16.9 2 -2.6
v 16.9 1.9 -2.6
v 16.8 1.9 -2.6
v 16.8 2 -2.6
v 16.9 2 -2.5
v 16.9 1.9 -2.5
v 17 1.9 -2.5
v 17 2 -2.5
v 17 2 -2.6
v 17 1.9 -2.6
v 16.9 1.9 -2.6
v 16.9 2 -2.6
v 17 2 -2.5
v 17 1.9 -2.5
v 17.1 1.9 -2.5
v 17.1 2 -2.5
v 17.1 2 -2.6
v 17.1 1.9 -2.6
v 17 1.9 -2.6
v 17 2 -2.6
v 17.1 2 -2.5
v 17.1 1.9 -2.5
v 17.2 1.9 -2.5
v 17.2 2 -2.5
v 17.2 2 -2.6
v 17.2 1.9 -2.6
v 17.1 1.9 -2.6
v 17.1 2 -2.6
v 17.2 2 -2.5
v 17.2 1.9 -2.5
v 17.3 1.9 -2.5
v 17.3 2 -2.5
v 17.3 2 -2.6
v 17.3 1.9 -2.6
v 17.2 1.9 -2.6
v 17.2 2 -2.6
v 17.3 2 -2.5
v 17.3 1.9 -2.5
v 17.4 1.9 -2.5
v 17.4 2 -2.5
v 17.4 2 -2.6
v 17.4 1.9 -2.6
v 17.3 1.9 -2.6
v 17.3 2 -2.6
v 17.4 2 -2.5
v 17.4 1.9 -2.5
v 17.5 1.9 -2.5
v 17.5 2 -2.5
v 17.5 2 -2.6
v 17.5 1.9 -2.6
v 17.4 1.9 -2.6
v 17.4 2 -2.6
v 17.5 2 -2.5
v 17.5 1.9 -2.5
v 17.6 1.9 -2.5
v 17.6 2 -2.5
v 17.6 2 -2.6
v 17.6 1.9 -2.6
v 17.5 1.9 -2.6
v 17.5 2 -2.6
v 17.6 2 -2.5
v 17.6 1.9 -2.5
v 17.7 1.9 -2.5
v 17.7 2 -2.5
v 17.7 2 -2.6
v 17.7 1.9 -2.6
v 17.6 1.9 -2.6
v 17.6 2 -2.6
v 17.7 1.9 -2.5
v 17.7 1.9 -2.6
v 17.8 1.9 -2.6
v 17.8 1.9 -2.5
v 17.7 2 -2.5
v 17.7 1.9 -2.5
v 17.8 1.9 -2.5
v 17.8 2 -2.5
v 17.8 2 -2.6
v 17.8 1.9 -2.6
v 17.7 1.9 -2.6
v 17.7 2 -2.6
v 17.9 2 -2.5
v 17.9 1.9 -2.5
v 17.9 1.9 -2.6
v 17.9 2 -2.6
v 17.8 1.9 -2.5
v 17.8 1.9 -2.6
v 17.9 1.9 -2.6
v 17.9 1.9 -2.5
v 17.8 2 -2.5
v 17.8 1.9 -2.5
v 17.9 1.9 -2.5
v 17.9 2 -2.5
v 17.9 2 -2.6
v 17.9 1.9 -2.6
v 17.8 1.9 -2.6
v 17.8 2 -2.6
v 16.4 1.9 -2.6
v 16.4 1.8 -2.6
v 16.4 1.8 -2.5
v 16.4 1.9 -2.5
v 16.4 1.9 -2.5
v 16.4 1.8 -2.5
v 16.5 1.8 -2.5
v 16.5 1.9 -2.5
v 16.5 1.9 -2.6
v 16.5 1.8 -2.6
v 16.4 1.8 -2.6
v 16.4 1.9 -2.6
v 16.5 1.9 -2.5
v 16.5 1.8 -2.5
v 16.6 1.8 -2.5
v 16.6 1.9 -2.5
v 16.6 1.9 -2.6
v 16.6 1.8 -2.6
v 16.5 1.8 -2.6
v 16.5 1.9 -2.6
v 16.6 1.9 -2.5
v 16.6 1.8 -2.5
v 16.7 1.8 -2.5
v 16.7 1.9 -2.5
v 16.7 1.9 -2.6
v 16.7 1.8 -2.6
v 16.6 1.8 -2.6
v 16.6 1.9 -2.6
v 16.7 1.9 -2.5
v 16.7 1.8 -2.5
v 16.8 1.8 -2.5
v 16.8 1.9 -2.5
v 16.8 1.9 -2.6
v 16.8 1.8 -2.6
v 16.7 1.8 -2.6
v 16.7 1.9 -2.6
v 16.8 1.9 -2.5
v 16.8 1.8 -2.5
v 16.9 1.8 -2.5
v 16.9 1.9 -2.5
v 16.9 1.9 -2.6
v 16.9 1.8 -2.6
v 16.8 1.8 -2.6
v 16.8 1.9 -2.6
v 16.9 1.9 -2.5
v 16.9 1.8 -2.5
v 17 1.8 -2.5
v 17 1.9 -2.5
v 17 1.9 -2.6
v 17 1.8 -2.6
v 16.9 1.8 -2.6
v 16.9 1.9 -2.6
v 17 1.9 -2.5
v 17 1.8 -2.5
v 17.1 1.8 -2.5
v 17.1 1.9 -2.5
v 17.1 1.9 -2.6
v 17.1 1.8 -2.6
v 17 1.8 -2.6
v 17 1.9 -2.6
v 17.1 1.9 -2.5
v 17.1 1.8 -2.5
v 17.2 1.8 -2.5
v 17.2 1.9 -2.5
v 17.2 1.9 -2.6
v 17.2 1.8 -2.6
v 17.1 1.8 -2.6
v 17.1 1.9 -2.6
v 17.2 1.9 -2.5
v 17.2 1.8 -2.5
v 17.3 1.8 -2.5
v 17.3 1.9 -2.5
v 17.3 1.9 -2.6
v 17.3 1.8 -2.6
v 17.2 1.8 -2.6
v 17.2 1.9 -2.6
v 17.3 1.9 -2.5
v 17.3 1.8 -2.5
v 17.4 1.8 -2.5
v 17.4 1.9 -2.5
v 17.4 1.9 -2.6
v 17.4 1.8 -2.6
v 17.3 1.8 -2.6
v 17.3 1.9 -2.6
v 17.4 1.9 -2.5
v 17.4 1.8 -2.5
v 17.5 1.8 -2.5
v 17.5 1.9 -2.5
v 17.5 1.9 -2.6
v 17.5 1.8 -2.6
v 17.4 1.8 -2.6
v 17.4 1.9 -2.6
v 17.5 1.9 -2.5
v 17.5 1.8 -2.5
v 17.6 1.8 -2.5
v 17.6 1.9 -2.5
v 17.6 1.9 -2.6
v 17.6 1.8 -2.6
v 17.5 1.8 -2.6
v 17.5 1.9 -2.6
v 17.7 1.9 -2.5
v 17.7 1.8 -2.5
v 17.7 1.8 -2.6
v 17.7 1.9 -2.6
v 17.6 1.8 -2.5
v 17.6 1.8 -2.6
v 17.7 1.8 -2.6
v 17.7 1.8 -2.5
v 17.6 1.9 -2.5
v 17.6 1.8 -2.5
v 17.7 1.8 -2.5
v 17.7 1.9 -2.5
v 17.7 1.9 -2.6
v 17.7 1.8 -2.6
v 17.6 1.8 -2.6
v 17.6 1.9 -2.6
v 16.4 1.8 -2.6
v 16.4 1.7 -2.6
v 16.4 1.7 -2.5
v 16.4 1.8 -2.5
v 16.4 1.7 -2.5
v 16.4 1.7 -2.6
v 16.5 1.7 -2.6
v 16.5 1.7 -2.5
v 16.4 1.8 -2.5
v 16.4 1.7 -2.5
v 16.5 1.7 -2.5
v 16.5 1.8 -2.5
v 16.5 1.8 -2.6
v 16.5 1.7 -2.6
v 16.4 1.7 -2.6
v 16.4 1.8 -2.6
v 16.5 1.8 -2.5
v 16.5 1.7 -2.5
v 16.6 1.7 -2.5
v 16.6 1.8 -2.5
v 16.6 1.8 -2.6
v 16.6 1.7 -2.6
v 16.5 1.7 -2.6
v 16.5 1.8 -2.6
v 16.6 1.8 -2.5
v 16.6 1.7 -2.5
v 16.7 1.7 -2.5
v 16.7 1.8 -2.5
v 16.7 1.8 -2.6
v 16.7 1.7 -2.6
v 16.6 1.7 -2.6
v 16.6 1.8 -2.6
v 16.7 1.8 -2.5
v 16.7 1.7 -2.5
v 16.8 1.7 -2.5
v 16.8 1.8 -2.5
v 16.8 1.8 -2.6
v 16.8 1.7 -2.6
v 16.7 1.7 -2.6
v 16.7 1.8 -2.6
v 16.8 1.8 -2.5
v 16.8 1.7 -2.5
v 16.9 1.7 -2.5
v 16.9 1.8 -2.5
v 16.9 1.8 -2.6
v 16.9 1.7 -2.6
v 16.8 1.7 -2.6
v 16.8 1.8 -2.6
v 16.9 1.8 -2.5
v 16.9 1.7 -2.5
v 17 1.7 -2.5
v 17 1.8 -2.5
v 17 1.8 -2.6
v 17 1.7 -2.6
v 16.9 1.7 -2.6
v 16.9 1.8 -2.6
v 17 1.8 -2.5
v 17 1.7 -2.5
v 17.1 1.7 -2.5
v 17.1 1.8 -2.5
v 17.1 1.8 -2.6
v 17.1 1.7 -2.6
v 17 1.7 -2.6
v 17 1.8 -2.6
v 17.1 1.8 -2.5
v 17.1 1.7 -2.5
v 17.2 1.7 -2.5
v 17.2 1.8 -2.5
v 17.2 1.8 -2.6
v 17.2 1.7 -2.6
v 17.1 1.7 -2.6
v 17.1 1.8 -2.6
v 17.2 1.8 -2.5
v 17.2 1.7 -2.5
v 17.3 1.7 -2.5
v 17.3 1.8 -2.5
v 17.3 1.8 -2.6
v 17.3 1.7 -2.6
v 17.2 1.7 -2.6
v 17.2 1.8 -2.6
v 17.3 1.8 -2.5
v 17.3 1.7 -2.5
v 17.4 1.7 -2.5
v 17.4 1.8 -2.5
v 17.4 1.8 -2.6
v 17.4 1.7 -2.6
v 17.3 1.7 -2.6
v 17.3 1.8 -2.6
v 17.4 1.8 -2.5
v 17.4 1.7 -2.5
v 17.5 1.7 -2.5
v 17.5 1.8 -2.5
v 17.5 1.8 -2.6
v 17.5 1.7 -2.6
v 17.4 1.7 -2.6
v 17.4 1.8 -2.6
v 17.6 1.8 -2.5
v 17.6 1.7 -2.5
v 17.6 1.7 -2.6
v 17.6 1.8 -2.6
v 17.5 1.7 -2.5
v 17.5 1.7 -2.6
v 17.6 1.7 -2.6
v 17.6 1.7 -2.5
v 17.5 1.8 -2.5
v 17.5 1.7 -2.5
v 17.6 1.7 -2.5
v 17.6 1.8 -2.5
v 17.6 1.8 -2.6
v 17.6 1.7 -2.6
v 17.5 1.7 -2.6
v 17.5 1.8 -2.6
v 16.5 1.7 -2.6
v 16.5 1.6 -2.6
v 16.5 1.6 -2.5
v 16.5 1.7 -2.5
v 16.5 1.6 -2.5
v 16.5 1.6 -2.6
v 16.6 1.6 -2.6
v 16.6 1.6 -2.5
v 16.5 1.7 -2.5
v 16.5 1.6 -2.5
v 16.6 1.6 -2.5
v 16.6 1.7 -2.5
v 16.6 1.7 -2.6
v 16.6 1.6 -2.6
v 16.5 1.6 -2.6
v 16.5 1.7 -2.6
v 16.6 1.7 -2.5
v 16.6 1.6 -2.5
v 16.7 1.6 -2.5
v 16.7 1.7 -2.5
v 16.7 1.7 -2.6
v 16.7 1.6 -2.6
v 16.6 1.6 -2.6
v 16.6 1.7 -2.6
v 16.7 1.7 -2.5
v 16.7 1.6 -2.5
v 16.8 1.6 -2.5
v 16.8 1.7 -2.5
v 16.8 1.7 -2.6
v 16.8 1.6 -2.6
v 16.7 1.6 -2.6
v 16.7 1.7 -2.6
v 16.8 1.7 -2.5
v 16.8 1.6 -2.5
v 16.9 1.6 -2.5
v 16.9 1.7 -2.5
v 16.9 1.7 -2.6
v 16.9 1.6 -2.6
v 16.8 1.6 -2.6
v 16.8 1.7 -2.6
v 16.9 1.7 -2.5
v 16.9 1.6 -2.5
v 17 1.6 -2.5
v 17 1.7 -2.5
v 17 1.7 -2.6
v 17 1.6 -2.6
v 16.9 1.6 -2.6
v 16.9 1.7 -2.6
v 17 1.7 -2.5
v 17 1.6 -2.5
v 17.1 1.6 -2.5
v 17.1 1.7 -2.5
v 17.1 1.7 -2.6
v 17.1 1.6 -2.6
v 17 1.6 -2.6
v 17 1.7 -2.6
v 17.1 1.7 -2.5
v 17.1 1.6 -2.5
v 17.2 1.6 -2.5
v 17.2 1.7 -2.5
v 17.2 1.7 -2.6
v 17.2 1.6 -2.6
v 17.1 1.6 -2.6
v 17.1 1.7 -2.6
v 17.2 1.7 -2.5
v 17.2 1.6 -2.5
v 17.3 1.6 -2.5
v 17.3 1.7 -2.5
v 17.3 1.7 -2.6
v 17.3 1.6 -2.6
v 17.2 1.6 -2.6
v 17.2 1.7 -2.6
v 17.3 1.6 -2.5
v 17.3 1.6 -2.6
v 17.4 1.6 -2.6
v 17.4 1.6 -2.5
v 17.3 1.7 -2.5
v 17.3 1.6 -2.5
v 17.4 1.6 -2.5
v 17.4 1.7 -2.5
v 17.4 1.7 -2.6
v 17.4 1.6 -2.6
v 17.3 1.6 -2.6
v 17.3 1.7 -2.6
v 17.5 1.7 -2.5
v 17.5 1.6 -2.5
v 17.5 1.6 -2.6
v 17.5 1.7 -2.6
v 17.4 1.6 -2.5
v 17.4 1.6 -2.6
v 17.5 1.6 -2.6
v 17.5 1.6 -2.5
v 17.4 1.7 -2.5
v 17.4 1.6 -2.5
v 17.5 1.6 -2.5
v 17.5 1.7 -2.5
v 17.5 1.7 -2.6
v 17.5 1.6 -2.6
v 17.4 1.6 -2.6
v 17.4 1.7 -2.6
v 16.6 1.6 -2.6
v 16.6 1.5 -2.6
v 16.6 1.5 -2.5
v 16.6 1.6 -2.5
v 16.6 1.5 -2.5
v 16.6 1.5 -2.6
v 16.7 1.5 -2.6
v 16.7 1.5 -2.5
v 16.6 1.6 -2.5
v 16.6 1.5 -2.5
v 16.7 1.5 -2.5
v 16.7 1.6 -2.5
v 16.7 1.6 -2.6
v 16.7 1.5 -2.6
v 16.6 1.5 -2.6
v 16.6 1.6 -2.6
v 16.7 1.6 -2.5
v 16.7 1.5 -2.5
v 16.8 1.5 -2.5
v 16.8 1.6 -2.5
v 16.8 1.6 -2.6
v 16.8 1.5 -2.6
v 16.7 1.5 -2.6
v 16.7 1.6 -2.6
v 16.8 1.6 -2.5
v 16.8 1.5 -2.5
v 16.9 1.5 -2.5
v 16.9 1.6 -2.5
v 16.9 1.6 -2.6
v 16.9 1.5 -2.6
v 16.8 1.5 -2.6
v 16.8 1.6 -2.6
v 16.9 1.6 -2.5
v 16.9 1.5 -2.5
v 17 1.5 -2.5
v 17 1.6 -2.5
v 17 1.6 -2.6
v 17 1.5 -2.6
v 16.9 1.5 -2.6
v 16.9 1.6 -2.6
v 17 1.6 -2.5
v 17 1.5 -2.5
v 17.1 1.5 -2.5
v 17.1 1.6 -2.5
v 17.1 1.6 -2.6
v 17.1 1.5 -2.6
v 17 1.5 -2.6
v 17 1.6 -2.6
v 17.1 1.5 -2.5
v 17.1 1.5 -2.6
v 17.2 1.5 -2.6
v 17.2 1.5 -2.5
v 17.1 1.6 -2.5
v 17.1 1.5 -2.5
v 17.2 1.5 -2.5
v 17.2 1.6 -2.5
v 17.2 1.6 -2.6
v 17.2 1.5 -2.6
v 17.1 1.5 -2.6
v 17.1 1.6 -2.6
v 17.3 1.6 -2.5
v 17.3 1.5 -2.5
v 17.3 1.5 -2.6
v 17.3 1.6 -2.6
v 17.2 1.5 -2.5
v 17.2 1.5 -2.6
v 17.3 1.5 -2.6
v 17.3 1.5 -2.5
v 17.2 1.6 -2.5
v 17.2 1.5 -2.5
v 17.3 1.5 -2.5
v 17.3 1.6 -2.5
v 17.3 1.6 -2.6
v 17.3 1.5 -2.6
v 17.2 1.5 -2.6
v 17.2 1.6 -2.6
v 16.7 1.5 -2.6
v 16.7 1.4 -2.6
v 16.7 1.4 -2.5
v 16.7 1.5 -2.5
v 16.7 1.4 -2.5
v 16.7 1.4 -2.6
v 16.8 1.4 -2.6
v 16.8 1.4 -2.5
v 16.7 1.5 -2.5
v 16.7 1.4 -2.5
v 16.8 1.4 -2.5
v 16.8 1.5 -2.5
v 16.8 1.5 -2.6
v 16.8 1.4 -2.6
v 16.7 1.4 -2.6
v 16.7 1.5 -2.6
v 16.8 1.4 -2.5
v 16.8 1.4 -2.6
v 16.9 1.4 -2.6
v 16.9 1.4 -2.5
v 16.8 1.5 -2.5
v 16.8 1.4 -2.5
v 16.9 1.4 -2.5
v 16.9 1.5 -2.5
v 16.9 1.5 -2.6
v 16.9 1.4 -2.6
v 16.8 1.4 -2.6
v 16.8 1.5 -2.6
v 16.9 1.5 -2.5
v 16.9 1.4 -2.5
v 17 1.4 -2.5
v 17 1.5 -2.5
v 17 1.5 -2.6
v 17 1.4 -2.6
v 16.9 1.4 -2.6
v 16.9 1.5 -2.6
v 17.1 1.5 -2.5
v 17.1 1.4 -2.5
v 17.1 1.4 -2.6
v 17.1 1.5 -2.6
v 17 1.4 -2.5
v 17 1.4 -2.6
v 17.1 1.4 -2.6
v 17.1 1.4 -2.5
v 17 1.5 -2.5
v 17 1.4 -2.5
v 17.1 1.4 -2.5
v 17.1 1.5 -2.5
v 17.1 1.5 -2.6
v 17.1 1.4 -2.6
v 17 1.4 -2.6
v 17 1.5 -2.6
v 16.9 1.4 -2.6
v 16.9 1.3 -2.6
v 16.9 1.3 -2.5
v 16.9 1.4 -2.5
v 17 1.4 -2.5
v 17 1.3 -2.5
v 17 1.3 -2.6
v 17 1.4 -2.6
v 16.9 1.3 -2.5
v 16.9 1.3 -2.6
v 17 1.3 -2.6
v 17 1.3 -2.5
v 16.9 1.4 -2.5
v 16.9 1.3 -2.5
v 17 1.3 -2.5
v 17 1.4 -2.5
v 17 1.4 -2.6
v 17 1.3 -2.6
v 16.9 1.3 -2.6
v 16.9 1.4 -2.6

# faces
f 1/2/1 2/2/1 3/2/1 4/2/1
f 5/2/2 6/2/2 7/2/2 8/2/2
f 9/2/3 10/2/3 11/2/3 12/2/3
f 13/2/4 14/2/4 15/2/4 16/2/4
f 17/2/5 18/2/5 19/2/5 20/2/5
f 21/2/6 22/2/6 23/2/6 24/2/6
f 25/2/1 26/2/1 27/2/1 28/2/1
f 29/2/2 30/2/2 31/2/2 32/2/2
f 33/2/3 34/2/3 35/2/3 36/2/3
f 37/2/5 38/2/5 39/2/5 40/2/5
f 41/2/6 42/2/6 43/2/6 44/2/6
f 45/2/1 46/2/1 47/2/1 48/2/1
f 49/2/3 50/2/3 51/2/3 52/2/3
f 53/2/4 54/2/4 55/2/4 56/2/4
f 57/2/5 58/2/5 59/2/5 60/2/5
f 61/2/6 62/2/6 63/2/6 64/2/6
f 65/2/2 66/2/2 67/2/2 68/2/2
f 69/2/3 70/2/3 71/2/3 72/2/3
f 73/2/4 74/2/4 75/2/4 76/2/4
f 77/2/5 78/2/5 79/2/5 80/2/5
f 81/2/6 82/2/6 83/2/6 84/2/6
f 85/2/1 86/2/1 87/2/1 88/2/1
f 89/2/3 90/2/3 91/2/3 92/2/3
f 93/2/5 94/2/5 95/2/5 96/2/5
f 97/2/6 98/2/6 99/2/6 100/2/6
f 101/2/3 102/2/3 103/2/3 104/2/3
f 105/2/5 106/2/5 107/2/5 108/2/5
f 109/2/6 110/2/6 111/2/6 112/2/6
f 113/2/3 114/2/3 115/2/3 116/2/3
f 117/2/5 118/2/5 119/2/5 120/2/5
f 121/2/6 122/2/6 123/2/6 124/2/6
f 125/2/2 126/2/2 127/2/2 128/2/2
f 129/2/4 130/2/4 131/2/4 132/2/4
f 133/2/5 134/2/5 135/2/5 136/2/5
f 137/2/6 138/2/6 139/2/6 140/2/6
f 141/2/1 142/2/1 143/2/1 144/2/1
f 145/2/3 146/2/3 147/2/3 148/2/3
f 149/2/5 150/2/5 151/2/5 152/2/5
f 153/2/6 154/2/6 155/2/6 156/2/6
f 157/2/3 158/2/3 159/2/3 160/2/3
f 161/2/5 162/2/5 163/2/5 164/2/5
f 165/2/6 166/2/6 167/2/6 168/2/6
f 169/2/3 170/2/3 171/2/3 172/2/3
f 173/2/5 174/2/5 175/2/5 176/2/5
f 177/2/6 178/2/6 179/2/6 180/2/6
f 181/2/3 182/2/3 183/2/3 184/2/3
f 185/2/5 186/2/5 187/2/5 188/2/5
f 189/2/6 190/2/6 191/2/6 192/2/6
f 193/2/3 194/2/3 195/2/3 196/2/3
f 197/2/5 198/2/5 199/2/5 200/2/5
f 201/2/6 202/2/6 203/2/6 204/2/6
f 205/2/3 206/2/3 207/2/3 208/2/3
f 209/2/5 210/2/5 211/2/5 212/2/5
f 213/2/6 214/2/6 215/2/6 216/2/6
f 217/2/3 218/2/3 219/2/3 220/2/3
f 221/2/5 222/2/5 223/2/5 224/2/5
f 225/2/6 226/2/6 227/2/6 228/2/6
f 229/1/5 230/1/5 231/1/5 232/1/5
f 233/1/6 234/1/6 235/1/6 236/1/6
f 237/1/5 238/1/5 239/1/5 240/1/5
f 241/1/6 242/1/6 243/1/6 244/1/6
f 245/2/2 246/2/2 247/2/2 248/2/2
f 249/2/4 250/2/4 251/2/4 252/2/4
f 253/2/5 254/2/5 255/2/5 256/2/5
f 257/2/6 258/2/6 259/2/6 260/2/6
f 261/1/1 262/1/1 263/1/1 264/1/1
f 265/1/4 266/1/4 267/1/4 268/1/4
f 269/1/5 270/1/5 271/1/5 272/1/5
f 273/1/6 274/1/6 275/1/6 276/1/6
f 277/1/4 278/1/4 279/1/4 280/1/4
f 281/1/5 282/1/5 283/1/5 284/1/5
f 285/1/6 286/1/6 287/1/6 288/1/6
f 289/1/5 290/1/5 291/1/5 292/1/5
f 293/1/6 294/1/6 295/1/6 296/1/6
f 297/1/5 298/1/5 299/1/5 300/1/5
f 301/1/6 302/1/6 303/1/6 304/1/6
f 305/1/5 306/1/5 307/1/5 308/1/5
f 309/1/6 310/1/6 311/1/6 312/1/6
f 313/1/5 314/1/5 315/1/5 316/1/5
f 317/1/6 318/1/6 319/1/6 320/1/6
f 321/1/5 322/1/5 323/1/5 324/1/5
f 325/1/6 326/1/6 327/1/6 328/1/6
f 329/1/5 330/1/5 331/1/5 332/1/5
f 333/1/6 334/1/6 335/1/6 336/1/6
f 337/2/2 338/2/2 339/2/2 340/2/2
f 341/2/4 342/2/4 343/2/4 344/2/4
f 345/2/5 346/2/5 347/2/5 348/2/5
f 349/2/6 350/2/6 351/2/6 352/2/6
f 353/2/1 354/2/1 355/2/1 356/2/1
f 357/2/2 358/2/2 359/2/2 360/2/2
f 361/2/3 362/2/3 363/2/3 364/2/3
f 365/2/4 366/2/4 367/2/4 368/2/4
f 369/2/5 370/2/5 371/2/5 372/2/5
f 373/2/6 374/2/6 375/2/6 376/2/6
f 377/3/1 378/3/1 379/3/1 380/3/1
f 381/3/4 382/3/4 383/3/4 384/3/4
f 385/3/5 386/3/5 387/3/5 388/3/5
f 389/3/6 390/3/6 391/3/6 392/3/6
f 393/3/4 394/3/4 395/3/4 396/3/4
f 397/3/5 398/3/5 399/3/5 400/3/5
f 401/3/6 402/3/6 403/3/6 404/3/6
f 405/3/4 406/3/4 407/3/4 408/3/4
f 409/3/5 410/3/5 411/3/5 412/3/5
f 413/3/6 414/3/6 415/3/6 416/3/6
f 417/3/5 418/3/5 419/3/5 420/3/5
f 421/3/6 422/3/6 423/3/6 424/3/6
f 425/1/5 426/1/5 427/1/5 428/1/5
f 429/1/6 430/1/6 431/1/6 432/1/6
f 433/2/2 434/2/2 435/2/2 436/2/2
f 437/2/5 438/2/5 439/2/5 440/2/5
f 441/2/6 442/2/6 443/2/6 444/2/6
f 445/3/1 446/3/1 447/3/1 448/3/1
f 449/3/4 450/3/4 451/3/4 452/3/4
f 453/3/5 454/3/5 455/3/5 456/3/5
f 457/3/6 458/3/6 459/3/6 460/3/6
f 461/3/4 462/3/4 463/3/4 464/3/4
f 465/3/5 466/3/5 467/3/5 468/3/5
f 469/3/6 470/3/6 471/3/6 472/3/6
f 473/1/4 474/1/4 475/1/4 476/1/4
f 477/1/5 478/1/5 479/1/5 480/1/5
f 481/1/6 482/1/6 483/1/6 484/1/6
f 485/2/2 486/2/2 487/2/2 488/2/2
f 489/2/3 490/2/3 491/2/3 492/2/3
f 493/2/4 494/2/4 495/2/4 496/2/4
f 497/2/5 498/2/5 499/2/5 500/2/5
f 501/2/6 502/2/6 503/2/6 504/2/6
f 505/2/1 506/2/1 507/2/1 508/2/1
f 509/2/2 510/2/2 511/2/2 512/2/2
f 513/2/3 514/2/3 515/2/3 516/2/3
f 517/2/5 518/2/5 519/2/5 520/2/5
f 521/2/6 522/2/6 523/2/6 524/2/6
f 525/2/1 526/2/1 527/2/1 528/2/1
f 529/2/2 530/2/2 531/2/2 532/2/2
f 533/2/5 534/2/5 535/2/5 536/2/5
f 537/2/6 538/2/6 539/2/6 540/2/6
f 541/2/1 542/2/1 543/2/1 544/2/1
f 545/2/2 546/2/2 547/2/2 548/2/2
f 549/2/3 550/2/3 551/2/3 552/2/3
f 553/2/5 554/2/5 555/2/5 556/2/5
f 557/2/6 558/2/6 559/2/6 560/2/6
f 561/2/1 562/2/1 563/2/1 564/2/1
f 565/2/2 566/2/2 567/2/2 568/2/2
f 569/2/5 570/2/5 571/2/5 572/2/5
f 573/2/6 574/2/6 575/2/6 576/2/6
f 577/2/1 578/2/1 579/2/1 580/2/1
f 581/2/2 582/2/2 583/2/2 584/2/2
f 585/2/4 586/2/4 587/2/4 588/2/4
f 589/2/5 590/2/5 591/2/5 592/2/5
f 593/2/6 594/2/6 595/2/6 596/2/6
f 597/2/1 598/2/1 599/2/1 600/2/1
f 601/2/2 602/2/2 603/2/2 604/2/2
f 605/2/4 606/2/4 607/2/4 608/2/4
f 609/2/5 610/2/5 611/2/5 612/2/5
f 613/2/6 614/2/6 615/2/6 616/2/6
f 617/2/1 618/2/1 619/2/1 620/2/1
f 621/2/2 622/2/2 623/2/2 624/2/2
f 625/2/3 626/2/3 627/2/3 628/2/3
f 629/2/5 630/2/5 631/2/5 632/2/5
f 633/2/6 634/2/6 635/2/6 636/2/6
f 637/2/1 638/2/1 639/2/1 640/2/1
f 641/2/2 642/2/2 643/2/2 644/2/2
f 645/2/3 646/2/3 647/2/3 648/2/3
f 649/2/5 650/2/5 651/2/5 652/2/5
f 653/2/6 654/2/6 655/2/6 656/2/6
f 657/2/1 658/2/1 659/2/1 660/2/1
f 661/2/3 662/2/3 663/2/3 664/2/3
f 665/2/5 666/2/5 667/2/5 668/2/5
f 669/2/6 670/2/6 671/2/6 672/2/6
f 673/2/2 674/2/2 675/2/2 676/2/2
f 677/2/4 678/2/4 679/2/4 680/2/4
f 681/2/5 682/2/5 683/2/5 684/2/5
f 685/2/6 686/2/6 687/2/6 688/2/6
f 689/2/1 690/2/1 691/2/1 692/2/1
f 693/2/2 694/2/2 695/2/2 696/2/2
f 697/2/5 698/2/5 699/2/5 700/2/5
f 701/2/6 702/2/6 703/2/6 704/2/6
f 705/2/1 706/2/1 707/2/1 708/2/1
f 709/2/3 710/2/3 711/2/3 712/2/3
f 713/2/5 714/2/5 715/2/5 716/2/5
f 717/2/6 718/2/6 719/2/6 720/2/6
f 721/2/2 722/2/2 723/2/2 724/2/2
f 725/2/4 726/2/4 727/2/4 728/2/4
f 729/2/5 730/2/5 731/2/5 732/2/5
f 733/2/6 734/2/6 735/2/6 736/2/6
f 737/2/1 738/2/1 739/2/1 740/2/1
f 741/2/2 742/2/2 743/2/2 744/2/2
f 745/2/5 746/2/5 747/2/5 748/2/5
f 749/2/6 750/2/6 751/2/6 752/2/6
f 753/2/1 754/2/1 755/2/1 756/2/1
f 757/2/3 758/2/3 759/2/3 760/2/3
f 761/2/5 762/2/5 763/2/5 764/2/5
f 765/2/6 766/2/6 767/2/6 768/2/6
f 769/2/2 770/2/2 771/2/2 772/2/2
f 773/2/4 774/2/4 775/2/4 776/2/4
f 777/2/5 778/2/5 779/2/5 780/2/5
f 781/2/6 782/2/6 783/2/6 784/2/6
f 785/1/1 786/1/1 787/1/1 788/1/1
f 789/1/5 790/1/5 791/1/5 792/1/5
f 793/1/6 794/1/6 795/1/6 796/1/6
f 797/2/2 798/2/2 799/2/2 800/2/2
f 801/2/3 802/2/3 803/2/3 804/2/3
f 805/2/5 806/2/5 807/2/5 808/2/5
f 809/2/6 810/2/6 811/2/6 812/2/6
f 813/2/1 814/2/1 815/2/1 816/2/1
f 817/2/3 818/2/3 819/2/3 820/2/3
f 821/2/5 822/2/5 823/2/5 824/2/5
f 825/2/6 826/2/6 827/2/6 828/2/6
f 829/2/2 830/2/2 831/2/2 832/2/2
f 833/2/4 834/2/4 835/2/4 836/2/4
f 837/2/5 838/2/5 839/2/5 840/2/5
f 841/2/6 842/2/6 843/2/6 844/2/6
f 845/1/1 846/1/1 847/1/1 848/1/1
f 849/1/5 850/1/5 851/1/5 852/1/5
f 853/1/6 854/1/6 855/1/6 856/1/6
f 857/2/2 858/2/2 859/2/2 860/2/2
f 861/2/5 862/2/5 863/2/5 864/2/5
f 865/2/6 866/2/6 867/2/6 868/2/6
f 869/2/1 870/2/1 871/2/1 872/2/1
f 873/2/3 874/2/3 875/2/3 876/2/3
f 877/2/5 878/2/5 879/2/5 880/2/5
f 881/2/6 882/2/6 883/2/6 884/2/6
f 885/2/2 886/2/2 887/2/2 888/2/2
f 889/2/4 890/2/4 891/2/4 892/2/4
f 893/2/5 894/2/5 895/2/5 896/2/5
f 897/2/6 898/2/6 899/2/6 900/2/6
f 901/1/1 902/1/1 903/1/1 904/1/1
f 905/1/5 906/1/5 907/1/5 908/1/5
f 909/1/6 910/1/6 911/1/6 912/1/6
f 913/2/2 914/2/2 915/2/2 916/2/2
f 917/2/5 918/2/5 919/2/5 920/2/5
f 921/2/6 922/2/6 923/2/6 924/2/6
f 925/2/1 926/2/1 927/2/1 928/2/1
f 929/2/3 930/2/3 931/2/3 932/2/3
f 933/2/5 934/2/5 935/2/5 936/2/5
f 937/2/6 938/2/6 939/2/6 940/2/6
f 941/2/2 942/2/2 943/2/2 944/2/2
f 945/2/4 946/2/4 947/2/4 948/2/4
f 949/2/5 950/2/5 951/2/5 952/2/5
f 953/2/6 954/2/6 955/2/6 956/2/6
f 957/3/1 958/3/1 959/3/1 960/3/1
f 961/3/3 962/3/3 963/3/3 964/3/3
f 965/3/5 966/3/5 967/3/5 968/3/5
f 969/3/6 970/3/6 971/3/6 972/3/6
f 973/1/5 974/1/5 975/1/5 976/1/5
f 977/1/6 978/1/6 979/1/6 980/1/6
f 981/2/2 982/2/2 983/2/2 984/2/2
f 985/2/5 986/2/5 987/2/5 988/2/5
f 989/2/6 990/2/6 991/2/6 992/2/6
f 993/2/1 994/2/1 995/2/1 996/2/1
f 997/2/3 998/2/3 999/2/3 1000/2/3
f 1001/2/5 1002/2/5 1003/2/5 1004/2/5
f 1005/2/6 1006/2/6 1007/2/6 1008/2/6
f 1009/2/2 1010/2/2 1011/2/2 1012/2/2
f 1013/2/4 1014/2/4 1015/2/4 1016/2/4
f 1017/2/5 1018/2/5 1019/2/5 1020/2/5
f 1021/2/6 1022/2/6 1023/2/6 1024/2/6
f 1025/3/1 1026/3/1 1027/3/1 1028/3/1
f 1029/3/5 1030/3/5 1031/3/5 1032/3/5
f 1033/3/6 1034/3/6 1035/3/6 1036/3/6
f 1037/1/5 1038/1/5 1039/1/5 1040/1/5
f 1041/1/6 1042/1/6 1043/1/6 1044/1/6
f 1045/2/2 1046/2/2 1047/2/2 1048/2/2
f 1049/2/5 1050/2/5 1051/2/5 1052/2/5
f 1053/2/6 1054/2/6 1055/2/6 1056/2/6
f 1057/2/1 1058/2/1 1059/2/1 1060/2/1
f 1061/2/3 1062/2/3 1063/2/3 1064/2/3
f 1065/2/5 1066/2/5 1067/2/5 1068/2/5
f 1069/2/6 1070/2/6 1071/2/6 1072/2/6
f 1073/2/2 1074/2/2 1075/2/2 1076/2/2
f 1077/2/4 1078/2/4 1079/2/4 1080/2/4
f 1081/2/5 1082/2/5 1083/2/5 1084/2/5
f 1085/2/6 1086/2/6 1087/2/6 1088/2/6
f 1089/3/1 1090/3/1 1091/3/1 1092/3/1
f 1093/3/5 1094/3/5 1095/3/5 1096/3/5
f 1097/3/6 1098/3/6 1099/3/6 1100/3/6
f 1101/3/5 1102/3/5 1103/3/5 1104/3/5
f 1105/3/6 1106/3/6 1107/3/6 1108/3/6
f 1109/1/5 1110/1/5 1111/1/5 1112/1/5
f 1113/1/6 1114/1/6 1115/1/6 1116/1/6
f 1117/2/2 1118/2/2 1119/2/2 1120/2/2
f 1121/2/3 1122/2/3 1123/2/3 1124/2/3
f 1125/2/5 1126/2/5 1127/2/5 1128/2/5
f 1129/2/6 1130/2/6 1131/2/6 1132/2/6
f 1133/2/1 1134/2/1 1135/2/1 1136/2/1
f 1137/2/3 1138/2/3 1139/2/3 1140/2/3
f 1141/2/5 1142/2/5 1143/2/5 1144/2/5
f 1145/2/6 1146/2/6 1147/2/6 1148/2/6
f 1149/2/3 1150/2/3 1151/2/3 1152/2/3
f 1153/2/5 1154/2/5 1155/2/5 1156/2/5
f 1157/2/6 1158/2/6 1159/2/6 1160/2/6
f 1161/2/2 1162/2/2 1163/2/2 1164/2/2
f 1165/2/4 1166/2/4 1167/2/4 1168/2/4
f 1169/2/5 1170/2/5 1171/2/5 1172/2/5
f 1173/2/6 1174/2/6 1175/2/6 1176/2/6
f 1177/3/1 1178/3/1 1179/3/1 1180/3/1
f 1181/3/5 1182/3/5 1183/3/5 1184/3/5
f 1185/3/6 1186/3/6 1187/3/6 1188/3/6
f 1189/3/5 1190/3/5 1191/3/5 1192/3/5
f 1193/3/6 1194/3/6 1195/3/6 1196/3/6
f 1197/1/5 1198/1/5 1199/1/5 1200/1/5
f 1201/1/6 1202/1/6 1203/1/6 1204/1/6
f 1205/2/2 1206/2/2 1207/2/2 1208/2/2
f 1209/2/5 1210/2/5 1211/2/5 1212/2/5
f 1213/2/6 1214/2/6 1215/2/6 1216/2/6
f 1217/2/1 1218/2/1 1219/2/1 1220/2/1
f 1221/2/3 1222/2/3 1223/2/3 1224/2/3
f 1225/2/5 1226/2/5 1227/2/5 1228/2/5
f 1229/2/6 1230/2/6 1231/2/6 1232/2/6
f 1233/1/5 1234/1/5 1235/1/5 1236/1/5
f 1237/1/6 1238/1/6 1239/1/6 1240/1/6
f 1241/2/2 1242/2/2 1243/2/2 1244/2/2
f 1245/2/4 1246/2/4 1247/2/4 1248/2/4
f 1249/2/5 1250/2/5 1251/2/5 1252/2/5
f 1253/2/6 1254/2/6 1255/2/6 1256/2/6
f 1257/3/1 1258/3/1 1259/3/1 1260/3/1
f 1261/3/5 1262/3/5 1263/3/5 1264/3/5
f 1265/3/6 1266/3/6 1267/3/6 1268/3/6
f 1269/3/5 1270/3/5 1271/3/5 1272/3/5
f 1273/3/6 1274/3/6 1275/3/6 1276/3/6
f 1277/3/5 1278/3/5 1279/3/5 1280/3/5
f 1281/3/6 1282/3/6 1283/3/6 1284/3/6
f 1285/1/5 1286/1/5 1287/1/5 1288/1/5
f 1289/1/6 1290/1/6 1291/1/6 1292/1/6
f 1293/2/2 1294/2/2 1295/2/2 1296/2/2
f 1297/2/3 1298/2/3 1299/2/3 1300/2/3
f 1301/2/5 1302/2/5 1303/2/5 1304/2/5
f 1305/2/6 1306/2/6 1307/2/6 1308/2/6
f 1309/2/1 1310/2/1 1311/2/1 1312/2/1
f 1313/2/3 1314/2/3 1315/2/3 1316/2/3
f 1317/2/5 1318/2/5 1319/2/5 1320/2/5
f 1321/2/6 1322/2/6 1323/2/6 1324/2/6
f 1325/2/3 1326/2/3 1327/2/3 1328/2/3
f 1329/2/5 1330/2/5 1331/2/5 1332/2/5
f 1333/2/6 1334/2/6 1335/2/6 1336/2/6
f 1337/1/5 1338/1/5 1339/1/5 1340/1/5
f 1341/1/6 1342/1/6 1343/1/6 1344/1/6
f 1345/2/2 1346/2/2 1347/2/2 1348/2/2
f 1349/2/4 1350/2/4 1351/2/4 1352/2/4
f 1353/2/5 1354/2/5 1355/2/5 1356/2/5
f 1357/2/6 1358/2/6 1359/2/6 1360/2/6
f 1361/3/1 1362/3/1 1363/3/1 1364/3/1
f 1365/3/4 1366/3/4 1367/3/4 1368/3/4
f 1369/3/5 1370/3/5 1371/3/5 1372/3/5
f 1373/3/6 1374/3/6 1375/3/6 1376/3/6
f 1377/3/5 1378/3/5 1379/3/5 1380/3/5
f 1381/3/6 1382/3/6 1383/3/6 1384/3/6
f 1385/3/5 1386/3/5 1387/3/5 1388/3/5
f 1389/3/6 1390/3/6 1391/3/6 1392/3/6
f 1393/3/5 1394/3/5 1395/3/5 1396/3/5
f 1397/3/6 1398/3/6 1399/3/6 1400/3/6
f 1401/1/5 1402/1/5 1403/1/5 1404/1/5
f 1405/1/6 1406/1/6 1407/1/6 1408/1/6
f 1409/2/3 1410/2/3 1411/2/3 1412/2/3
f 1413/2/5 1414/2/5 1415/2/5 1416/2/5
f 1417/2/6 1418/2/6 1419/2/6 1420/2/6
f 1421/2/2 1422/2/2 1423/2/2 1424/2/2
f 1425/2/3 1426/2/3 1427/2/3 1428/2/3
f 1429/2/5 1430/2/5 1431/2/5 1432/2/5
f 1433/2/6 1434/2/6 1435/2/6 1436/2/6
f 1437/2/1 1438/2/1 1439/2/1 1440/2/1
f 1441/2/3 1442/2/3 1443/2/3 1444/2/3
f 1445/2/5 1446/2/5 1447/2/5 1448/2/5
f 1449/2/6 1450/2/6 1451/2/6 1452/2/6
f 1453/2/3 1454/2/3 1455/2/3 1456/2/3
f 1457/2/5 1458/2/5 1459/2/5 1460/2/5
f 1461/2/6 1462/2/6 1463/2/6 1464/2/6
f 1465/1/5 1466/1/5 1467/1/5 1468/1/5
f 1469/1/6 1470/1/6 1471/1/6 1472/1/6
f 1473/1/5 1474/1/5 1475/1/5 1476/1/5
f 1477/1/6 1478/1/6 1479/1/6 1480/1/6
f 1481/2/2 1482/2/2 1483/2/2 1484/2/2
f 1485/2/4 1486/2/4 1487/2/4 1488/2/4
f 1489/2/5 1490/2/5 1491/2/5 1492/2/5
f 1493/2/6 1494/2/6 1495/2/6 1496/2/6
f 1497/3/1 1498/3/1 1499/3/1 1500/3/1
f 1501/3/5 1502/3/5 1503/3/5 1504/3/5
f 1505/3/6 1506/3/6 1507/3/6 1508/3/6
f 1509/3/5 1510/3/5 1511/3/5 1512/3/5
f 1513/3/6 1514/3/6 1515/3/6 1516/3/6
f 1517/3/5 1518/3/5 1519/3/5 1520/3/5
f 1521/3/6 1522/3/6 1523/3/6 1524/3/6
f 1525/3/5 1526/3/5 1527/3/5 1528/3/5
f 1529/3/6 1530/3/6 1531/3/6 1532/3/6
f 1533/1/5 1534/1/5 1535/1/5 1536/1/5
f 1537/1/6 1538/1/6 1539/1/6 1540/1/6
f 1541/1/5 1542/1/5 1543/1/5 1544/1/5
f 1545/1/6 1546/1/6 1547/1/6 1548/1/6
f 1549/2/3 1550/2/3 1551/2/3 1552/2/3
f 1553/2/5 1554/2/5 1555/2/5 1556/2/5
f 1557/2/6 1558/2/6 1559/2/6 1560/2/6
f 1561/2/3 1562/2/3 1563/2/3 1564/2/3
f 1565/2/5 1566/2/5 1567/2/5 1568/2/5
f 1569/2/6 1570/2/6 1571/2/6 1572/2/6
f 1573/2/3 1574/2/3 1575/2/3 1576/2/3
f 1577/2/5 1578/2/5 1579/2/5 1580/2/5
f 1581/2/6 1582/2/6 1583/2/6 1584/2/6
f 1585/2/3 1586/2/3 1587/2/3 1588/2/3
f 1589/2/5 1590/2/5 1591/2/5 1592/2/5
f 1593/2/6 1594/2/6 1595/2/6 1596/2/6
f 1597/2/3 1598/2/3 1599/2/3 1600/2/3
f 1601/2/5 1602/2/5 1603/2/5 1604/2/5
f 1605/2/6 1606/2/6 1607/2/6 1608/2/6
f 1609/2/3 1610/2/3 1611/2/3 1612/2/3
f 1613/2/5 1614/2/5 1615/2/5 1616/2/5
f 1617/2/6 1618/2/6 1619/2/6 1620/2/6
f 1621/1/5 1622/1/5 1623/1/5 1624/1/5
f 1625/1/6 1626/1/6 1627/1/6 1628/1/6
f 1629/1/5 1630/1/5 1631/1/5 1632/1/5
f 1633/1/6 1634/1/6 1635/1/6 1636/1/6
f 1637/1/5 1638/1/5 1639/1/5 1640/1/5
f 1641/1/6 1642/1/6 1643/1/6 1644/1/6
f 1645/2/2 1646/2/2 1647/2/2 1648/2/2
f 1649/2/4 1650/2/4 1651/2/4 1652/2/4
f 1653/2/5 1654/2/5 1655/2/5 1656/2/5
f 1657/2/6 1658/2/6 1659/2/6 1660/2/6
f 1661/3/1 1662/3/1 1663/3/1 1664/3/1
f 1665/3/5 1666/3/5 1667/3/5 1668/3/5
f 1669/3/6 1670/3/6 1671/3/6 1672/3/6
f 1673/3/5 1674/3/5 1675/3/5 1676/3/5
f 1677/3/6 1678/3/6 1679/3/6 1680/3/6
f 1681/3/5 1682/3/5 1683/3/5 1684/3/5
f 1685/3/6 1686/3/6 1687/3/6 1688/3/6
f 1689/3/5 1690/3/5 1691/3/5 1692/3/5
f 1693/3/6 1694/3/6 1695/3/6 1696/3/6
f 1697/3/5 1698/3/5 1699/3/5 1700/3/5
f 1701/3/6 1702/3/6 1703/3/6 1704/3/6
f 1705/3/5 1706/3/5 1707/3/5 1708/3/5
f 1709/3/6 1710/3/6 1711/3/6 1712/3/6
f 1713/1/5 1714/1/5 1715/1/5 1716/1/5
f 1717/1/6 1718/1/6 1719/1/6 1720/1/6
f 1721/1/5 1722/1/5 1723/1/5 1724/1/5
f 1725/1/6 1726/1/6 1727/1/6 1728/1/6
f 1729/1/5 1730/1/5 1731/1/5 1732/1/5
f 1733/1/6 1734/1/6 1735/1/6 1736/1/6
f 1737/1/5 1738/1/5 1739/1/5 1740/1/5
f 1741/1/6 1742/1/6 1743/1/6 1744/1/6
f 1745/1/5 1746/1/5 1747/1/5 1748/1/5
f 1749/1/6 1750/1/6 1751/1/6 1752/1/6
f 1753/1/5 1754/1/5 1755/1/5 1756/1/5
f 1757/1/6 1758/1/6 1759/1/6 1760/1/6
f 1761/1/5 1762/1/5 1763/1/5 1764/1/5
f 1765/1/6 1766/1/6 1767/1/6 1768/1/6
f 1769/2/4 1770/2/4 1771/2/4 1772/2/4
f 1773/2/5 1774/2/5 1775/2/5 1776/2/5
f 1777/2/6 1778/2/6 1779/2/6 1780/2/6
f 1781/2/2 1782/2/2 1783/2/2 1784/2/2
f 1785/2/4 1786/2/4 1787/2/4 1788/2/4
f 1789/2/5 1790/2/5 1791/2/5 1792/2/5
f 1793/2/6 1794/2/6 1795/2/6 1796/2/6
f 1797/3/1 1798/3/1 1799/3/1 1800/3/1
f 1801/3/5 1802/3/5 1803/3/5 1804/3/5
f 1805/3/6 1806/3/6 1807/3/6 1808/3/6
f 1809/3/5 1810/3/5 1811/3/5 1812/3/5
f 1813/3/6 1814/3/6 1815/3/6 1816/3/6
f 1817/3/5 1818/3/5 1819/3/5 1820/3/5
f 1821/3/6 1822/3/6 1823/3/6 1824/3/6
f 1825/3/5 1826/3/5 1827/3/5 1828/3/5
f 1829/3/6 1830/3/6 1831/3/6 1832/3/6
f 1833/3/5 1834/3/5 1835/3/5 1836/3/5
f 1837/3/6 1838/3/6 1839/3/6 1840/3/6
f 1841/3/5 1842/3/5 1843/3/5 1844/3/5
f 1845/3/6 1846/3/6 1847/3/6 1848/3/6
f 1849/3/5 1850/3/5 1851/3/5 1852/3/5
f 1853/3/6 1854/3/6 1855/3/6 1856/3/6
f 1857/3/5 1858/3/5 1859/3/5 1860/3/5
f 1861/3/6 1862/3/6 1863/3/6 1864/3/6
f 1865/3/5 1866/3/5 1867/3/5 1868/3/5
f 1869/3/6 1870/3/6 1871/3/6 1872/3/6
f 1873/3/5 1874/3/5 1875/3/5 1876/3/5
f 1877/3/6 1878/3/6 1879/3/6 1880/3/6
f 1881/3/5 1882/3/5 1883/3/5 1884/3/5
f 1885/3/6 1886/3/6 1887/3/6 1888/3/6
f 1889/1/5 1890/1/5 1891/1/5 1892/1/5
f 1893/1/6 1894/1/6 1895/1/6 1896/1/6
f 1897/2/2 1898/2/2 1899/2/2 1900/2/2
f 1901/2/4 1902/2/4 1903/2/4 1904/2/4
f 1905/2/5 1906/2/5 1907/2/5 1908/2/5
f 1909/2/6 1910/2/6 1911/2/6 1912/2/6
f 1913/3/1 1914/3/1 1915/3/1 1916/3/1
f 1917/3/4 1918/3/4 1919/3/4 1920/3/4
f 1921/3/5 1922/3/5 1923/3/5 1924/3/5
f 1925/3/6 1926/3/6 1927/3/6 1928/3/6
f 1929/3/5 1930/3/5 1931/3/5 1932/3/5
f 1933/3/6 1934/3/6 1935/3/6 1936/3/6
f 1937/3/5 1938/3/5 1939/3/5 1940/3/5
f 1941/3/6 1942/3/6 1943/3/6 1944/3/6
f 1945/3/5 1946/3/5 1947/3/5 1948/3/5
f 1949/3/6 1950/3/6 1951/3/6 1952/3/6
f 1953/3/5 1954/3/5 1955/3/5 1956/3/5
f 1957/3/6 1958/3/6 1959/3/6 1960/3/6
f 1961/3/5 1962/3/5 1963/3/5 1964/3/5
f 1965/3/6 1966/3/6 1967/3/6 1968/3/6
f 1969/3/5 1970/3/5 1971/3/5 1972/3/5
f 1973/3/6 1974/3/6 1975/3/6 1976/3/6
f 1977/3/5 1978/3/5 1979/3/5 1980/3/5
f 1981/3/6 1982/3/6 1983/3/6 1984/3/6
f 1985/3/5 1986/3/5 1987/3/5 1988/3/5
f 1989/3/6 1990/3/6 1991/3/6 1992/3/6
f 1993/1/5 1994/1/5 1995/1/5 1996/1/5
f 1997/1/6 1998/1/6 1999/1/6 2000/1/6
f 2001/1/5 2002/1/5 2003/1/5 2004/1/5
f 2005/1/6 2006/1/6 2007/1/6 2008/1/6
f 2009/2/2 2010/2/2 2011/2/2 2012/2/2
f 2013/2/4 2014/2/4 2015/2/4 2016/2/4
f 2017/2/5 2018/2/5 2019/2/5 2020/2/5
f 2021/2/6 2022/2/6 2023/2/6 2024/2/6
f 2025/3/1 2026/3/1 2027/3/1 2028/3/1
f 2029/3/4 2030/3/4 2031/3/4 2032/3/4
f 2033/3/5 2034/3/5 2035/3/5 2036/3/5
f 2037/3/6 2038/3/6 2039/3/6 2040/3/6
f 2041/3/5 2042/3/5 2043/3/5 2044/3/5
f 2045/3/6 2046/3/6 2047/3/6 2048/3/6
f 2049/3/5 2050/3/5 2051/3/5 2052/3/5
f 2053/3/6 2054/3/6 2055/3/6 2056/3/6
f 2057/3/5 2058/3/5 2059/3/5 2060/3/5
f 2061/3/6 2062/3/6 2063/3/6 2064/3/6
f 2065/3/5 2066/3/5 2067/3/5 2068/3/5
f 2069/3/6 2070/3/6 2071/3/6 2072/3/6
f 2073/3/5 2074/3/5 2075/3/5 2076/3/5
f 2077/3/6 2078/3/6 2079/3/6 2080/3/6
f 2081/1/5 2082/1/5 2083/1/5 2084/1/5
f 2085/1/6 2086/1/6 2087/1/6 2088/1/6
f 2089/1/5 2090/1/5 2091/1/5 2092/1/5
f 2093/1/6 2094/1/6 2095/1/6 2096/1/6
f 2097/2/4 2098/2/4 2099/2/4 2100/2/4
f 2101/2/5 2102/2/5 2103/2/5 2104/2/5
f 2105/2/6 2106/2/6 2107/2/6 2108/2/6
f 2109/2/2 2110/2/2 2111/2/2 2112/2/2
f 2113/2/4 2114/2/4 2115/2/4 2116/2/4
f 2117/2/5 2118/2/5 2119/2/5 2120/2/5
f 2121/2/6 2122/2/6 2123/2/6 2124/2/6
f 2125/3/1 2126/3/1 2127/3/1 2128/3/1
f 2129/3/4 2130/3/4 2131/3/4 2132/3/4
f 2133/3/5 2134/3/5 2135/3/5 2136/3/5
f 2137/3/6 2138/3/6 2139/3/6 2140/3/6
f 2141/3/5 2142/3/5 2143/3/5 2144/3/5
f 2145/3/6 2146/3/6 2147/3/6 2148/3/6
f 2149/3/5 2150/3/5 2151/3/5 2152/3/5
f 2153/3/6 2154/3/6 2155/3/6 2156/3/6
f 2157/1/5 2158/1/5 2159/1/5 2160/1/5
f 2161/1/6 2162/1/6 2163/1/6 2164/1/6
f 2165/1/5 2166/1/5 2167/1/5 2168/1/5
f 2169/1/6 2170/1/6 2171/1/6 2172/1/6
f 2173/2/4 2174/2/4 2175/2/4 2176/2/4
f 2177/2/5 2178/2/5 2179/2/5 2180/2/5
f 2181/2/6 2182/2/6 2183/2/6 2184/2/6
f 2185/2/2 2186/2/2 2187/2/2 2188/2/2
f 2189/2/4 2190/2/4 2191/2/4 2192/2/4
f 2193/2/5 2194/2/5 2195/2/5 2196/2/5
f 2197/2/6 2198/2/6 2199/2/6 2200/2/6
f 2201/1/1 2202/1/1 2203/1/1 2204/1/1
f 2205/1/4 2206/1/4 2207/1/4 2208/1/4
f 2209/1/5 2210/1/5 2211/1/5 2212/1/5
f 2213/1/6 2214/1/6 2215/1/6 2216/1/6
f 2217/1/4 2218/1/4 2219/1/4 2220/1/4
f 2221/1/5 2222/1/5 2223/1/5 2224/1/5
f 2225/1/6 2226/1/6 2227/1/6 2228/1/6
f 2229/2/5 2230/2/5 2231/2/5 2232/2/5
f 2233/2/6 2234/2/6 2235/2/6 2236/2/6
f 2237/2/2 2238/2/2 2239/2/2 2240/2/2
f 2241/2/4 2242/2/4 2243/2/4 2244/2/4
f 2245/2/5 2246/2/5 2247/2/5 2248/2/5
f 2249/2/6 2250/2/6 2251/2/6 2252/2/6
f 2253/2/1 2254/2/1 2255/2/1 2256/2/1
f 2257/2/2 2258/2/2 2259/2/2 2260/2/2
f 2261/2/4 2262/2/4 2263/2/4 2264/2/4
f 2265/2/5 2266/2/5 2267/2/5 2268/2/5
f 2269/2/6 2270/2/6 2271/2/6 2272/2/6

