# generated by vox_to_obj_exporter --round
# scale=0.1 center=false ground=false y_up=true
# welded, edge-relaxed, smooth vertex normals

mtllib Fight_761.mtl
usemtl palette

# verts
v 0.12167 13.07833 -2.57833
v 0.12167 13.02167 -2.57833
v 0.12167 13.02167 -2.52167
v 0.12167 13.07833 -2.52167
v 0.17833 13.07833 -2.52167
v 0.2 13 -2.513
v 0.2 13 -2.587
v 0.17833 13.07833 -2.57833
v 0.12167 14.27833 -2.57833
v 0.12167 14.22167 -2.57833
v 0.12167 14.22167 -2.52167
v 0.12167 14.27833 -2.52167
v 0.17833 14.27833 -2.52167
v 0.2 14.2 -2.513
v 0.2 14.2 -2.587
v 0.17833 14.27833 -2.57833
v 0.12167 15.47833 -2.57833
v 0.12167 15.42167 -2.57833
v 0.12167 15.42167 -2.52167
v 0.12167 15.47833 -2.52167
v 0.17833 15.47833 -2.52167
v 0.2 15.4 -2.513
v 0.2 15.4 -2.587
v 0.17833 15.47833 -2.57833
v 0.21625 12.9 -2.58375
v 0.22167 12.82167 -2.57833
v 0.22167 12.82167 -2.52167
v 0.21625 12.9 -2.51625
v 0.3 12.8 -2.587
v 0.3 12.8 -2.513
v 0.3 12.9 -2.513
v 0.3 12.9 -2.587
v 0.27833 12.97833 -2.52167
v 0.27833 12.97833 -2.57833
v 0.21625 14.1 -2.58375
v 0.22167 14.02167 -2.57833
v 0.22167 14.02167 -2.52167
v 0.21625 14.1 -2.51625
v 0.3 14 -2.587
v 0.3 14 -2.513
v 0.3 14.1 -2.513
v 0.3 14.1 -2.587
v 0.27833 14.17833 -2.52167
v 0.27833 14.17833 -2.57833
v 0.21625 15.3 -2.58375
v 0.22167 15.22167 -2.57833
v 0.22167 15.22167 -2.52167
v 0.21625 15.3 -2.51625
v 0.3 15.2 -2.587
v 0.3 15.2 -2.513
v 0.3 15.3 -2.513
v 0.3 15.3 -2.587
v 0.27833 15.37833 -2.52167
v 0.27833 15.37833 -2.57833
v 0.31625 12.7 -2.58375
v 0.32167 12.62167 -2.57833
v 0.32167 12.62167 -2.52167
v 0.31625 12.7 -2.51625
v 0.4 12.6 -2.587
v 0.4 12.6 -2.513
v 0.4 12.7 -2.5
v 0.4 12.7 -2.6
v 0.4 12.8 -2.513
v 0.4 12.8 -2.587
v 0.37833 12.87833 -2.52167
v 0.37833 12.87833 -2.57833
v 0.31625 13.9 -2.58375
v 0.32167 13.82167 -2.57833
v 0.32167 13.82167 -2.52167
v 0.31625 13.9 -2.51625
v 0.4 13.8 -2.587
v 0.4 13.8 -2.513
v 0.4 13.9 -2.5
v 0.4 13.9 -2.6
v 0.4 14 -2.513
v 0.4 14 -2.587
v 0.37833 14.07833 -2.52167
v 0.37833 14.07833 -2.57833
v 0.31625 15.1 -2.58375
v 0.32167 15.02167 -2.57833
v 0.32167 15.02167 -2.52167
v 0.31625 15.1 -2.51625
v 0.4 15 -2.587
v 0.4 15 -2.513
v 0.4 15.1 -2.5
v 0.4 15.1 -2.6
v 0.4 15.2 -2.513
v 0.4 15.2 -2.587
v 0.37833 15.27833 -2.52167
v 0.37833 15.27833 -2.57833
v 0.41625 12.5 -2.58375
v 0.42167 12.42167 -2.57833
v 0.42167 12.42167 -2.52167
v 0.41625 12.5 -2.51625
v 0.5 12.4 -2.587
v 0.5 12.4 -2.513
v 0.5 12.5 -2.5
v 0.5 12.5 -2.6
v 0.5 12.6 -2.513
v 0.5 12.6 -2.587
v 0.48375 12.7 -2.51625
v 0.48375 12.7 -2.58375
v 0.47833 12.77833 -2.52167
v 0.47833 12.77833 -2.57833
v 0.41625 13.7 -2.58375
v 0.42167 13.62167 -2.57833
v 0.42167 13.62167 -2.52167
v 0.41625 13.7 -2.51625
v 0.5 13.6 -2.587
v 0.5 13.6 -2.513
v 0.5 13.7 -2.5
v 0.5 13.7 -2.6
v 0.5 13.8 -2.513
v 0.5 13.8 -2.587
v 0.48375 13.9 -2.51625
v 0.48375 13.9 -2.58375
v 0.47833 13.97833 -2.52167
v 0.47833 13.97833 -2.57833
v 0.41625 14.9 -2.58375
v 0.42167 14.82167 -2.57833
v 0.42167 14.82167 -2.52167
v 0.41625 14.9 -2.51625
v 0.5 14.8 -2.587
v 0.5 14.8 -2.513
v 0.5 14.9 -2.5
v 0.5 14.9 -2.6
v 0.5 15 -2.513
v 0.5 15 -2.587
v 0.48375 15.1 -2.51625
v 0.48375 15.1 -2.58375
v 0.47833 15.17833 -2.52167
v 0.47833 15.17833 -2.57833
v 0.52167 12.32167 -2.57833
v 0.52167 12.32167 -2.52167
v 0.6 12.4 -2.513
v 0.57833 12.32167 -2.52167
v 0.57833 12.32167 -2.57833
v 0.6 12.4 -2.587
v 0.6 12.5 -2.513
v 0.6 12.5 -2.587
v 0.57833 12.57833 -2.52167
v 0.57833 12.57833 -2.57833
v 0.52167 13.52167 -2.57833
v 0.52167 13.52167 -2.52167
v 0.6 13.6 -2.513
v 0.57833 13.52167 -2.52167
v 0.57833 13.52167 -2.57833
v 0.6 13.6 -2.587
v 0.6 13.7 -2.513
v 0.6 13.7 -2.587
v 0.57833 13.77833 -2.52167
v 0.57833 13.77833 -2.57833
v 0.52167 14.72167 -2.57833
v 0.52167 14.72167 -2.52167
v 0.6 14.7 -2.587
v 0.6 14.7 -2.5
v 0.6 14.8 -2.487
v 0.6 14.8 -2.6
v 0.6 14.9 -2.513
v 0.6 14.9 -2.587
v 0.57833 14.97833 -2.52167
v 0.57833 14.97833 -2.57833
v 0.62167 14.72167 -2.42167
v 0.62167 14.77833 -2.42167
v 0.67833 14.77833 -2.42167
v 0.7 14.7 -2.413
v 0.7 14.7 -2.487
v 0.7 14.8 -2.5
v 0.62167 12.17833 -2.57833
v 0.62167 12.12167 -2.57833
v 0.62167 12.12167 -2.52167
v 0.62167 12.17833 -2.52167
v 0.67833 12.17833 -2.52167
v 0.7 12.1 -2.513
v 0.7 12.1 -2.587
v 0.67833 12.17833 -2.57833
v 0.67833 12.47833 -2.52167
v 0.67833 12.42167 -2.52167
v 0.67833 12.42167 -2.57833
v 0.67833 12.47833 -2.57833
v 0.62167 13.37833 -2.57833
v 0.62167 13.32167 -2.57833
v 0.62167 13.32167 -2.52167
v 0.62167 13.37833 -2.52167
v 0.67833 13.37833 -2.52167
v 0.7 13.3 -2.513
v 0.7 13.3 -2.587
v 0.67833 13.37833 -2.57833
v 0.67833 13.67833 -2.52167
v 0.67833 13.62167 -2.52167
v 0.67833 13.62167 -2.57833
v 0.67833 13.67833 -2.57833
v 0.61625 14.6 -2.58375
v 0.62167 14.52167 -2.57833
v 0.62167 14.52167 -2.52167
v 0.61625 14.6 -2.51625
v 0.7 14.5 -2.587
v 0.7 14.5 -2.5
v 0.68375 14.6 -2.48375
v 0.7 14.6 -2.6
v 0.7 14.7 -2.6
v 0.7 14.8 -2.587
v 0.67833 14.87833 -2.52167
v 0.67833 14.87833 -2.57833
v 0.72167 14.52167 -2.42167
v 0.71625 14.6 -2.41625
v 0.77833 14.47833 -2.47833
v 0.8 14.5 -2.413
v 0.8 14.6 -2.413
v 0.77833 14.67833 -2.42167
v 0.82167 14.62167 -2.47833
v 0.8 14.7 -2.5
v 0.72167 12.02167 -2.57833
v 0.72167 12.02167 -2.52167
v 0.77833 12.07833 -2.52167
v 0.8 12 -2.513
v 0.8 12 -2.587
v 0.77833 12.07833 -2.57833
v 0.72167 13.22167 -2.57833
v 0.72167 13.22167 -2.52167
v 0.77833 13.27833 -2.52167
v 0.8 13.2 -2.513
v 0.8 13.2 -2.587
v 0.77833 13.27833 -2.57833
v 0.72167 14.42167 -2.57833
v 0.72167 14.42167 -2.52167
v 0.8 14.4 -2.6
v 0.787 14.4 -2.5
v 0.8 14.5 -2.613
v 0.8 14.6 -2.6
v 0.8 14.7 -2.587
v 0.77833 14.77833 -2.52167
v 0.77833 14.77833 -2.57833
v 0.813 14.3 -2.5
v 0.82167 14.32167 -2.42167
v 0.81625 14.4 -2.41625
v 0.87833 14.27833 -2.47833
v 0.9 14.3 -2.413
v 0.9 14.4 -2.4
v 0.9 14.5 -2.413
v 0.87833 14.57833 -2.42167
v 0.92167 14.52167 -2.47833
v 0.9 14.6 -2.5
v 0.81625 11.9 -2.58375
v 0.82167 11.82167 -2.57833
v 0.82167 11.82167 -2.52167
v 0.81625 11.9 -2.51625
v 0.9 11.8 -2.587
v 0.9 11.8 -2.513
v 0.9 11.9 -2.513
v 0.9 11.9 -2.587
v 0.87833 11.97833 -2.52167
v 0.87833 11.97833 -2.57833
v 0.81625 13.1 -2.58375
v 0.82167 13.02167 -2.57833
v 0.82167 13.02167 -2.52167
v 0.81625 13.1 -2.51625
v 0.9 13 -2.587
v 0.9 13 -2.513
v 0.9 13.1 -2.513
v 0.9 13.1 -2.587
v 0.87833 13.17833 -2.52167
v 0.87833 13.17833 -2.57833
v 0.81625 14.3 -2.58375
v 0.82167 14.22167 -2.57833
v 0.82167 14.22167 -2.52167
v 0.9 14.2 -2.6
v 0.9 14.2 -2.5
v 0.88375 14.3 -2.61625
v 0.87833 14.37833 -2.62167
v 0.9 14.6 -2.587
v 0.9 14.51625 -2.61625
v 0.87833 14.67833 -2.52167
v 0.87833 14.67833 -2.57833
v 0.82167 14.47833 -2.67833
v 0.82167 14.42167 -2.67833
v 0.9 14.48375 -2.68375
v 0.9 14.4 -2.687
v 0.92167 14.22167 -2.42167
v 0.97833 14.17833 -2.47833
v 1 14.2 -2.413
v 1 14.3 -2.4
v 1 14.4 -2.413
v 0.97833 14.47833 -2.42167
v 1.02167 14.42167 -2.47833
v 1 14.5 -2.5
v 0.92167 11.72167 -2.57833
v 0.92167 11.72167 -2.52167
v 0.98375 11.8 -2.51625
v 1 11.7 -2.513
v 1 11.7 -2.587
v 0.98375 11.8 -2.58375
v 0.97833 11.87833 -2.52167
v 0.97833 11.87833 -2.57833
v 0.92167 12.92167 -2.57833
v 0.92167 12.92167 -2.52167
v 0.98375 13 -2.51625
v 1 12.9 -2.513
v 1 12.9 -2.587
v 0.98375 13 -2.58375
v 0.97833 13.07833 -2.52167
v 0.97833 13.07833 -2.57833
v 0.92167 14.12167 -2.57833
v 0.92167 14.12167 -2.52167
v 1 14.1 -2.587
v 1 14.1 -2.5
v 1 14.18375 -2.61625
v 0.97833 14.57833 -2.52167
v 1 14.5 -2.6
v 0.97833 14.57833 -2.57833
v 0.91625 14.3 -2.68375
v 0.92167 14.22167 -2.67833
v 1 14.21625 -2.68375
v 1 14.3 -2.7
v 1 14.4 -2.687
v 1.02167 14.42167 -2.62167
v 0.97833 14.47833 -2.67833
v 1.02167 14.12167 -2.42167
v 1.1 14.2 -2.413
v 1.07833 14.12167 -2.42167
v 1.1 14.1 -2.5
v 1.12167 14.17833 -2.47833
v 1.1 14.3 -2.413
v 1.07833 14.37833 -2.42167
v 1.12167 14.32167 -2.47833
v 1.1 14.4 -2.5
v 1.02167 11.62167 -2.57833
v 1.02167 11.62167 -2.52167
v 1.07833 11.67833 -2.52167
v 1.07833 11.62167 -2.52167
v 1.07833 11.62167 -2.57833
v 1.07833 11.67833 -2.57833
v 1.02167 12.82167 -2.57833
v 1.02167 12.82167 -2.52167
v 1.07833 12.87833 -2.52167
v 1.07833 12.82167 -2.52167
v 1.07833 12.82167 -2.57833
v 1.07833 12.87833 -2.57833
v 1.02167 14.02167 -2.57833
v 1.02167 14.02167 -2.52167
v 1.07833 14.02167 -2.52167
v 1.07833 14.02167 -2.57833
v 1.1 14.1 -2.587
v 1.1 14.2 -2.613
v 1.07833 14.47833 -2.52167
v 1.1 14.4 -2.6
v 1.07833 14.47833 -2.57833
v 1.11625 14.3 -2.61625
v 1.07833 14.22167 -2.67833
v 1.08375 14.3 -2.68375
v 1.07833 14.37833 -2.67833
v 1.17833 14.27833 -2.42167
v 1.17833 14.22167 -2.42167
v 1.2 14.2 -2.5
v 1.2 14.3 -2.5
v 1.17833 14.12167 -2.52167
v 1.17833 14.12167 -2.57833
v 1.2 14.2 -2.587
v 1.2 14.3 -2.587
v 1.17833 14.37833 -2.52167
v 1.17833 14.37833 -2.57833
v 1.27833 14.27833 -2.52167
v 1.27833 14.22167 -2.52167
v 1.27833 14.22167 -2.57833
v 1.27833 14.27833 -2.57833

# texcoords
vt 0.00195 0.5
vt 0.00586 0.5
vt 0.00977 0.5
vt 0.01367 0.5

# normals
vn -1 0 -0
vn 0.9638 0.2666 -0
vn 0.7071 0.7071 -0
vn 0 1 -0
vn -0.2666 -0.9638 -0
vn -0.0552 0.0552 0.997
vn -0.0083 0.0469 0.9989
vn -0.0552 0.0552 -0.997
vn -0.0083 0.0469 -0.9989
vn -0.9934 -0.1148 -0
vn -0.9976 -0.069 -0
vn -0.0196 0.003 0.9998
vn -0.0776 -0.0326 0.9964
vn -0.0369 0.0214 0.9991
vn 0.0054 0.0204 0.9998
vn 0.0054 0.0204 -0.9998
vn -0.0369 0.0214 -0.9991
vn -0.0776 -0.0326 -0.9964
vn -0.0196 0.003 -0.9998
vn -0.9871 -0.1604 -0
vn 0.0385 0.0385 0.9985
vn 0.0385 0.0385 -0.9985
vn -0.1269 -0.0326 0.9914
vn -0.1649 -0.1063 0.9806
vn -0.0554 -0.0357 0.9978
vn 0 -0 1
vn 0 0 -1
vn -0.0554 -0.0357 -0.9978
vn -0.1649 -0.1063 -0.9806
vn -0.1269 -0.0326 -0.9914
vn 0.0443 0.068 0.9967
vn 0.0443 0.068 -0.9967
vn 0.0552 0.0552 0.997
vn 0.0552 0.0552 -0.997
vn -0.7071 -0.7071 -0
vn -0.0336 -0.0941 0.995
vn -0.0133 0.0015 0.9999
vn -0.0133 0.0015 -0.9999
vn -0.0336 -0.0941 -0.995
vn 0.0456 0.0456 0.9979
vn 0.0456 0.0456 -0.9979
vn 0.9934 0.1148 -0
vn 0.9871 0.1604 -0
vn 0.1269 0.0326 0.9914
vn 0.1269 0.0326 -0.9914
vn 0.9976 0.069 -0
vn 0.2666 0.9638 -0
vn 0.1649 0.1063 0.9806
vn 0.1649 0.1063 -0.9806
vn -0.1686 -0.0639 0.9836
vn -0.046 0.0342 0.9984
vn -0.0296 0.0179 -0.9994
vn -0.1007 -0.081 -0.9916
vn -0.9638 -0.2666 -0
vn 0.7071 -0.7071 -0
vn 0.9638 -0.2666 -0
vn 0 -1 -0
vn 0 -0.11 0.9939
vn 0.0584 -0.0584 0.9966
vn 0.0584 -0.0584 -0.9966
vn 0 -0.11 -0.9939
vn 0.1039 0.0238 0.9943
vn 0.1039 0.0238 -0.9943
vn 0.1357 0.1357 0.9814
vn 0.1357 0.1357 -0.9814
vn -0.2034 -0.9758 0.0798
vn -0.2722 -0.1486 0.9507
vn -0.5584 -0.0881 0.8249
vn -0.3379 0.0485 0.9399
vn -0.098 -0.0551 -0.9937
vn -0.1357 -0.1357 -0.9814
vn -0.0647 0.0647 0.9958
vn 0.0738 0.1589 0.9845
vn 0.0909 0.0909 -0.9917
vn -0.7008 -0.0984 0.7066
vn -0.7422 -0.1185 0.6597
vn -0.9571 -0.024 0.2887
vn 0.9776 0.1381 0.1587
vn 0.9758 0.2034 0.0798
vn 0.0984 0.7008 0.7066
vn 0.024 0.9571 0.2887
vn 0.1717 0.8577 0.4847
vn -0.1381 -0.9776 0.1587
vn -0.0276 0.0276 0.9992
vn -0.0276 0.0276 -0.9992
vn 1 0 -0
vn 0.2666 -0.9638 -0
vn 0.11 0 0.9939
vn 0.11 0 -0.9939
vn -0.5849 -0.7996 0.1363
vn -0.3137 -0.1095 0.9432
vn -0.3642 -0.1558 0.9182
vn -0.5543 -0.4263 0.7149
vn -0.7101 -0.1055 0.6962
vn -0.0972 -0.0177 -0.9951
vn -0.1894 -0.0853 -0.9782
vn -0.1612 -0.0676 -0.9846
vn -0.9848 -0.0934 0.1462
vn -0.5613 -0.136 0.8163
vn -0.0262 0.0772 0.9967
vn 0.0109 0.0433 -0.999
vn 0.8484 0.5258 0.061
vn -0.0485 0.3379 0.9399
vn 0.1447 0.5431 0.8271
vn 0.1486 0.2722 0.9507
vn -0.6878 -0.4171 0.5941
vn -0.698 -0.5869 0.4104
vn -0.952 -0.0784 0.2958
vn -0.6505 -0.5584 0.5149
vn -0.6068 -0.5205 0.6007
vn -0.6983 -0.5965 0.3957
vn -0.9746 0 0.2239
vn -0.8264 -0.1141 0.5515
vn 0.8792 0.3128 0.3595
vn 0.6504 0.6504 0.3924
vn 0.5685 0.5685 0.5947
vn 0.6593 0.5188 0.5443
vn 0.1381 0.9776 0.1587
vn 0.2838 0.8725 0.3977
vn 0.0193 0.0193 0.9996
vn 0.0193 0.0193 -0.9996
vn -0.7152 -0.6988 -0.0137
vn -0.7192 -0.6619 0.2115
vn -0.3053 -0.9321 -0.1947
vn -0.2887 -0.9571 -0.024
vn -0.3595 -0.3128 0.8792
vn -0.8115 -0.2413 0.5323
vn -0.383 0.0148 -0.9236
vn -0.5639 -0.3572 -0.7446
vn -0.2722 -0.1486 -0.9507
vn 0.0254 0.107 -0.9939
vn -0.1264 0.0256 -0.9916
vn 0.1122 0.1122 -0.9873
vn 0.7996 0.5849 0.1363
vn 0.4942 0.8619 0.1137
vn 0.18 0.2419 0.9534
vn 0.5179 0.3123 0.7964
vn 0.2112 0.2112 0.9544
vn -0.8909 -0.2436 0.3832
vn -0.86 -0.3963 0.3215
vn -0.7306 -0.5977 0.3302
vn -0.9394 -0.1762 0.2941
vn -0.6358 -0.5274 0.5636
vn -0.5859 -0.5599 0.5859
vn -0.6608 -0.6483 0.3783
vn -0.4508 -0.0926 0.8878
vn -0.3307 -0.1555 0.9309
vn -0.0296 0.0179 0.9994
vn -0.7808 -0.1753 0.5997
vn 0.0345 0.0778 0.9964
vn 0.5241 0.5241 0.6713
vn 0.6153 0.6153 0.4927
vn -0.0129 -0.0129 0.9998
vn 0.0129 0.0129 0.9998
vn 0.0129 0.0129 -0.9998
vn -0.0129 -0.0129 -0.9998
vn -0.9871 -0.1503 -0.0547
vn -0.9959 -0.0871 -0.0231
vn -0.986 -0.1603 0.0463
vn -0.5367 -0.8319 -0.141
vn -0.692 -0.692 0.2054
vn -0.5217 -0.5088 0.6848
vn -0.6929 -0.1618 -0.7026
vn -0.4782 -0.4525 -0.7527
vn -0.3642 -0.1558 -0.9182
vn -0.8592 -0.4274 -0.2813
vn -0.9666 -0.1915 0.1701
vn -0.6149 -0.4511 -0.6469
vn 0.1214 0.227 -0.9663
vn 0.0707 0.6639 -0.7445
vn -0.1437 0.2826 -0.9484
vn 0.692 0.692 0.2054
vn 0.6578 0.7378 0.1517
vn 0.4643 0.5453 0.6979
vn 0.5153 0.5153 0.6848
vn 0.3363 0.3363 0.8796
vn -0.9571 -0.024 -0.2887
vn -0.7436 -0.1567 -0.65
vn -0.7008 -0.0984 -0.7066
vn -0.1297 0.9106 -0.3925
vn -0.0564 0.6377 -0.7682
vn 0.0132 0.9239 -0.3823
vn -0.5546 -0.5902 -0.5865
vn -0.3128 -0.8792 -0.3595
vn -0.6971 -0.5749 -0.4285
vn -0.0273 0.0504 -0.9984
vn -0.0476 0.0474 -0.9977
vn -0.0871 0.0231 -0.9959
vn -0.62 -0.6107 0.4927
vn -0.5241 -0.5241 0.6713
vn -0.4486 -0.4245 0.7865
vn -0.5685 -0.5685 0.5947
vn -0.3022 -0.3594 0.8829
vn 0.0163 -0.0163 0.9997
vn -0.1007 -0.081 0.9916
vn 0.0909 0.0909 0.9917
vn 0.432 0.432 0.7917
vn 0.3109 0.342 0.8868
vn 0.3465 0.3465 0.8717
vn -0.0385 -0.0385 0.9985
vn 0.0083 -0.0469 0.9989
vn 0.0196 -0.003 0.9998
vn 0.0196 -0.003 -0.9998
vn 0.0083 -0.0469 -0.9989
vn -0.0385 -0.0385 -0.9985
vn 0.0776 0.0326 0.9964
vn 0.0776 0.0326 -0.9964
vn -0.8319 -0.5367 -0.141
vn -0.6324 -0.7516 0.1877
vn -0.3363 -0.3363 0.8796
vn -0.3647 -0.5639 0.7409
vn -0.0512 -0.6768 -0.7343
vn -0.0533 -0.2409 -0.9691
vn -0.1971 -0.3177 -0.9275
vn 0.7996 0.5849 -0.1363
vn 0.1971 0.3177 -0.9275
vn 0.4451 0.5349 -0.7182
vn -0.7395 -0.1586 -0.6542
vn -0.6078 -0.1681 -0.7761
vn -0.7157 -0.2624 -0.6473
vn -0.2914 -0.6977 -0.6545
vn -0.1681 -0.6078 -0.7761
vn -0.0616 -0.7475 -0.6614
vn 0.0195 -0.0314 -0.9993
vn -0.0595 -0.4544 -0.8888
vn -0.5001 -0.5001 -0.7069
vn -0.5968 -0.1105 -0.7948
vn 0.0367 0.0755 -0.9965
vn -0.1123 -0.0474 -0.9925
vn 0.572 0.6367 -0.5172
vn 0.5685 0.5685 -0.5947
vn 0.5357 0.5126 -0.671
vn 0.5869 0.698 -0.4104
vn 0.4339 0.6736 -0.5984
vn 0.0326 0.0776 -0.9964
vn -0.7358 -0.5654 0.3728
vn -0.8792 -0.3128 0.3595
vn 0.6504 -0.6504 0.3924
vn 0.8792 -0.3128 0.3595
vn 0.7358 -0.5654 0.3728
vn 0.5685 -0.5685 0.5947
vn 0 -0.9638 0.2666
vn -0.18 -0.7555 0.6299
vn 0.18 -0.7555 0.6299
vn -0.0238 -0.1039 0.9943
vn 0.3594 0.3022 0.8829
vn 0.0552 -0.0552 0.997
vn 0.0552 -0.0552 -0.997
vn -0.7996 -0.5849 0.1363
vn 0.7996 -0.5849 0.1363
vn -0.1269 -0.5913 0.7964
vn 0 -0.2666 0.9638
vn 0.1269 -0.5913 0.7964
vn 0.084 -0.2044 -0.9753
vn 0.1839 -0.399 -0.8983
vn 0.7192 0.6619 -0.2115
vn 0.6619 0.7192 -0.2115
vn 0.3363 0.3363 -0.8796
vn 0.5349 0.4451 -0.7182
vn 0.6768 0.0512 -0.7343
vn 0.5168 -0.1393 -0.8447
vn 0.5988 -0.1519 -0.7863
vn 0.6166 -0.001 -0.7872
vn 0.0418 -0.7483 -0.662
vn 0.1519 -0.5988 -0.7863
vn 0.1393 -0.5168 -0.8447
vn 0.4566 -0.06 -0.8876
vn 0.4847 -0.4847 -0.7281
vn 0.0492 -0.448 -0.8927
vn 0.6736 0.4339 -0.5984
vn 0.753 0.05 -0.6561
vn 0.5626 0.46 -0.6869
vn 0.6504 0.6504 -0.3924
vn 0.6367 0.572 -0.5172
vn 0.698 0.5869 -0.4104
vn 0.6202 0.1501 -0.77
vn 0.2811 0.153 -0.9474
vn 0.9638 0 0.2666
vn 0.7555 -0.18 0.6299
vn 0.7555 0.18 0.6299
vn 0.3128 0.8792 0.3595
vn 0.5654 0.7358 0.3728
vn 0.5654 -0.7358 0.3728
vn 0.3128 -0.8792 0.3595
vn 0.7516 -0.6324 0.1877
vn 0.6324 -0.7516 0.1877
vn 0.3647 -0.5639 0.7409
vn 0.3363 -0.3363 0.8796
vn 0.5639 -0.3647 0.7409
vn 0.2044 -0.084 -0.9753
vn 0.2112 -0.2112 -0.9544
vn 0.3686 -0.3686 -0.8534
vn 0.2409 0.0533 -0.9691
vn 0.399 -0.1839 -0.8983
vn 0.7516 0.6324 0.1877
vn 0.5849 0.7996 -0.1363
vn 0.5639 0.3647 0.7409
vn 0.3177 0.1971 -0.9275
vn 0.5849 0.7996 0.1363
vn 0.5849 -0.7996 0.1363
vn 0.5913 0.1269 0.7964
vn 0.5913 -0.1269 0.7964
vn 0.2666 0 0.9638

# faces
f 1/1/1 2/1/1 3/1/1
f 1/1/1 3/1/1 4/1/1
f 6/1/3 7/1/3 8/1/2
f 6/1/3 8/1/2 5/1/2
f 1/1/4 4/1/4 5/1/4
f 1/1/4 5/1/4 8/1/4
f 2/1/5 7/1/5 6/1/5
f 2/1/5 6/1/5 3/1/5
f 3/1/6 6/1/7 5/1/6
f 3/1/6 5/1/6 4/1/6
f 8/1/8 7/1/9 2/1/8
f 8/1/8 2/1/8 1/1/8
f 9/1/1 10/1/1 11/1/1
f 9/1/1 11/1/1 12/1/1
f 14/1/3 15/1/3 16/1/2
f 14/1/3 16/1/2 13/1/2
f 9/1/4 12/1/4 13/1/4
f 9/1/4 13/1/4 16/1/4
f 10/1/5 15/1/5 14/1/5
f 10/1/5 14/1/5 11/1/5
f 11/1/6 14/1/7 13/1/6
f 11/1/6 13/1/6 12/1/6
f 16/1/8 15/1/9 10/1/8
f 16/1/8 10/1/8 9/1/8
f 17/1/1 18/1/1 19/1/1
f 17/1/1 19/1/1 20/1/1
f 22/1/3 23/1/3 24/1/2
f 22/1/3 24/1/2 21/1/2
f 17/1/4 20/1/4 21/1/4
f 17/1/4 21/1/4 24/1/4
f 18/1/5 23/1/5 22/1/5
f 18/1/5 22/1/5 19/1/5
f 19/1/6 22/1/7 21/1/6
f 19/1/6 21/1/6 20/1/6
f 24/1/8 23/1/9 18/1/8
f 24/1/8 18/1/8 17/1/8
f 26/1/11 27/1/11 28/1/10
f 26/1/11 28/1/10 25/1/10
f 26/1/5 29/1/5 30/1/5
f 26/1/5 30/1/5 27/1/5
f 27/1/13 30/1/14 31/1/15
f 27/1/13 31/1/15 28/1/12
f 32/1/16 29/1/17 26/1/18
f 32/1/16 26/1/18 25/1/19
f 25/1/10 28/1/10 6/1/20
f 25/1/10 6/1/20 7/1/20
f 31/1/3 32/1/3 34/1/3
f 31/1/3 34/1/3 33/1/3
f 6/1/3 33/1/3 34/1/3
f 6/1/3 34/1/3 7/1/3
f 28/1/12 31/1/15 33/1/21
f 28/1/12 33/1/21 6/1/7
f 34/1/22 32/1/16 25/1/19
f 34/1/22 25/1/19 7/1/9
f 36/1/11 37/1/11 38/1/10
f 36/1/11 38/1/10 35/1/10
f 36/1/5 39/1/5 40/1/5
f 36/1/5 40/1/5 37/1/5
f 37/1/13 40/1/14 41/1/15
f 37/1/13 41/1/15 38/1/12
f 42/1/16 39/1/17 36/1/18
f 42/1/16 36/1/18 35/1/19
f 35/1/10 38/1/10 14/1/20
f 35/1/10 14/1/20 15/1/20
f 41/1/3 42/1/3 44/1/3
f 41/1/3 44/1/3 43/1/3
f 14/1/3 43/1/3 44/1/3
f 14/1/3 44/1/3 15/1/3
f 38/1/12 41/1/15 43/1/21
f 38/1/12 43/1/21 14/1/7
f 44/1/22 42/1/16 35/1/19
f 44/1/22 35/1/19 15/1/9
f 46/1/11 47/1/11 48/1/10
f 46/1/11 48/1/10 45/1/10
f 46/1/5 49/1/5 50/1/5
f 46/1/5 50/1/5 47/1/5
f 47/1/13 50/1/14 51/1/15
f 47/1/13 51/1/15 48/1/12
f 52/1/16 49/1/17 46/1/18
f 52/1/16 46/1/18 45/1/19
f 45/1/10 48/1/10 22/1/20
f 45/1/10 22/1/20 23/1/20
f 51/1/3 52/1/3 54/1/3
f 51/1/3 54/1/3 53/1/3
f 22/1/3 53/1/3 54/1/3
f 22/1/3 54/1/3 23/1/3
f 48/1/12 51/1/15 53/1/21
f 48/1/12 53/1/21 22/1/7
f 54/1/22 52/1/16 45/1/19
f 54/1/22 45/1/19 23/1/9
f 56/1/11 57/1/11 58/1/10
f 56/1/11 58/1/10 55/1/10
f 56/1/5 59/1/5 60/1/5
f 56/1/5 60/1/5 57/1/5
f 57/1/24 60/1/25 61/1/26
f 57/1/24 61/1/26 58/1/23
f 62/1/27 59/1/28 56/1/29
f 62/1/27 56/1/29 55/1/30
f 55/1/10 58/1/10 30/1/20
f 55/1/10 30/1/20 29/1/20
f 58/1/23 61/1/26 63/1/31
f 58/1/23 63/1/31 30/1/14
f 64/1/32 62/1/27 55/1/30
f 64/1/32 55/1/30 29/1/17
f 63/1/3 64/1/3 66/1/3
f 63/1/3 66/1/3 65/1/3
f 31/1/3 65/1/3 66/1/3
f 31/1/3 66/1/3 32/1/3
f 30/1/14 63/1/31 65/1/33
f 30/1/14 65/1/33 31/1/15
f 66/1/34 64/1/32 29/1/17
f 66/1/34 29/1/17 32/1/16
f 68/1/11 69/1/11 70/1/10
f 68/1/11 70/1/10 67/1/10
f 68/1/5 71/1/5 72/1/5
f 68/1/5 72/1/5 69/1/5
f 69/1/24 72/1/25 73/1/26
f 69/1/24 73/1/26 70/1/23
f 74/1/27 71/1/28 68/1/29
f 74/1/27 68/1/29 67/1/30
f 67/1/10 70/1/10 40/1/20
f 67/1/10 40/1/20 39/1/20
f 70/1/23 73/1/26 75/1/31
f 70/1/23 75/1/31 40/1/14
f 76/1/32 74/1/27 67/1/30
f 76/1/32 67/1/30 39/1/17
f 75/1/3 76/1/3 78/1/3
f 75/1/3 78/1/3 77/1/3
f 41/1/3 77/1/3 78/1/3
f 41/1/3 78/1/3 42/1/3
f 40/1/14 75/1/31 77/1/33
f 40/1/14 77/1/33 41/1/15
f 78/1/34 76/1/32 39/1/17
f 78/1/34 39/1/17 42/1/16
f 80/1/11 81/1/11 82/1/10
f 80/1/11 82/1/10 79/1/10
f 80/1/5 83/1/5 84/1/5
f 80/1/5 84/1/5 81/1/5
f 81/1/24 84/1/25 85/1/26
f 81/1/24 85/1/26 82/1/23
f 86/1/27 83/1/28 80/1/29
f 86/1/27 80/1/29 79/1/30
f 79/1/10 82/1/10 50/1/20
f 79/1/10 50/1/20 49/1/20
f 82/1/23 85/1/26 87/1/31
f 82/1/23 87/1/31 50/1/14
f 88/1/32 86/1/27 79/1/30
f 88/1/32 79/1/30 49/1/17
f 87/1/3 88/1/3 90/1/3
f 87/1/3 90/1/3 89/1/3
f 51/1/3 89/1/3 90/1/3
f 51/1/3 90/1/3 52/1/3
f 50/1/14 87/1/31 89/1/33
f 50/1/14 89/1/33 51/1/15
f 90/1/34 88/1/32 49/1/17
f 90/1/34 49/1/17 52/1/16
f 92/2/11 93/2/11 94/2/10
f 92/2/11 94/2/10 91/2/10
f 92/2/5 95/2/35 96/2/35
f 92/2/5 96/2/35 93/2/5
f 93/2/24 96/2/36 97/2/37
f 93/2/24 97/2/37 94/2/23
f 98/2/38 95/2/39 92/2/29
f 98/2/38 92/2/29 91/2/30
f 91/1/10 94/1/10 60/1/20
f 91/1/10 60/1/20 59/1/20
f 94/1/23 97/1/37 99/1/40
f 94/1/23 99/1/40 60/1/25
f 100/1/41 98/1/38 91/1/30
f 100/1/41 91/1/30 59/1/28
f 99/1/43 100/1/43 102/1/42
f 99/1/43 102/1/42 101/1/42
f 60/1/25 99/1/40 101/1/44
f 60/1/25 101/1/44 61/1/26
f 102/1/45 100/1/41 59/1/28
f 102/1/45 59/1/28 62/1/27
f 101/1/42 102/1/42 104/1/46
f 101/1/42 104/1/46 103/1/46
f 63/1/3 103/1/47 104/1/47
f 63/1/3 104/1/47 64/1/3
f 61/1/26 101/1/44 103/1/48
f 61/1/26 103/1/48 63/1/31
f 104/1/49 102/1/45 62/1/27
f 104/1/49 62/1/27 64/1/32
f 106/2/11 107/2/11 108/2/10
f 106/2/11 108/2/10 105/2/10
f 106/2/5 109/2/35 110/2/35
f 106/2/5 110/2/35 107/2/5
f 107/2/24 110/2/36 111/2/37
f 107/2/24 111/2/37 108/2/23
f 112/2/38 109/2/39 106/2/29
f 112/2/38 106/2/29 105/2/30
f 105/1/10 108/1/10 72/1/20
f 105/1/10 72/1/20 71/1/20
f 108/1/23 111/1/37 113/1/40
f 108/1/23 113/1/40 72/1/25
f 114/1/41 112/1/38 105/1/30
f 114/1/41 105/1/30 71/1/28
f 113/1/43 114/1/43 116/1/42
f 113/1/43 116/1/42 115/1/42
f 72/1/25 113/1/40 115/1/44
f 72/1/25 115/1/44 73/1/26
f 116/1/45 114/1/41 71/1/28
f 116/1/45 71/1/28 74/1/27
f 115/1/42 116/1/42 118/1/46
f 115/1/42 118/1/46 117/1/46
f 75/1/3 117/1/47 118/1/47
f 75/1/3 118/1/47 76/1/3
f 73/1/26 115/1/44 117/1/48
f 73/1/26 117/1/48 75/1/31
f 118/1/49 116/1/45 74/1/27
f 118/1/49 74/1/27 76/1/32
f 120/2/11 121/2/11 122/2/10
f 120/2/11 122/2/10 119/2/10
f 120/2/5 123/2/35 124/2/35
f 120/2/5 124/2/35 121/2/5
f 121/2/24 124/2/50 125/2/51
f 121/2/24 125/2/51 122/2/23
f 126/2/52 123/2/53 120/2/29
f 126/2/52 120/2/29 119/2/30
f 119/1/10 122/1/10 84/1/20
f 119/1/10 84/1/20 83/1/20
f 122/1/23 125/1/51 127/1/40
f 122/1/23 127/1/40 84/1/25
f 128/1/41 126/1/52 119/1/30
f 128/1/41 119/1/30 83/1/28
f 127/1/43 128/1/43 130/1/42
f 127/1/43 130/1/42 129/1/42
f 84/1/25 127/1/40 129/1/44
f 84/1/25 129/1/44 85/1/26
f 130/1/45 128/1/41 83/1/28
f 130/1/45 83/1/28 86/1/27
f 129/1/42 130/1/42 132/1/46
f 129/1/42 132/1/46 131/1/46
f 87/1/3 131/1/47 132/1/47
f 87/1/3 132/1/47 88/1/3
f 85/1/26 129/1/44 131/1/48
f 85/1/26 131/1/48 87/1/31
f 132/1/49 130/1/45 86/1/27
f 132/1/49 86/1/27 88/1/32
f 133/2/54 134/2/54 96/2/35
f 133/2/54 96/2/35 95/2/35
f 135/2/55 136/2/56 137/2/56
f 135/2/55 137/2/56 138/2/55
f 134/2/57 133/2/57 137/2/57
f 134/2/57 137/2/57 136/2/57
f 96/2/36 134/2/58 136/2/58
f 96/2/36 136/2/58 135/2/59
f 138/2/60 137/2/61 133/2/61
f 138/2/60 133/2/61 95/2/39
f 96/2/36 135/2/59 139/2/62
f 96/2/36 139/2/62 97/2/37
f 140/2/63 138/2/60 95/2/39
f 140/2/63 95/2/39 98/2/38
f 139/2/3 140/2/3 142/2/3
f 139/2/3 142/2/3 141/2/3
f 99/2/47 141/2/3 142/2/3
f 99/2/47 142/2/3 100/2/47
f 97/2/37 139/2/62 141/2/64
f 97/2/37 141/2/64 99/2/40
f 142/2/65 140/2/63 98/2/38
f 142/2/65 98/2/38 100/2/41
f 143/2/54 144/2/54 110/2/35
f 143/2/54 110/2/35 109/2/35
f 145/2/55 146/2/56 147/2/56
f 145/2/55 147/2/56 148/2/55
f 144/2/57 143/2/57 147/2/57
f 144/2/57 147/2/57 146/2/57
f 110/2/36 144/2/58 146/2/58
f 110/2/36 146/2/58 145/2/59
f 148/2/60 147/2/61 143/2/61
f 148/2/60 143/2/61 109/2/39
f 110/2/36 145/2/59 149/2/62
f 110/2/36 149/2/62 111/2/37
f 150/2/63 148/2/60 109/2/39
f 150/2/63 109/2/39 112/2/38
f 149/2/3 150/2/3 152/2/3
f 149/2/3 152/2/3 151/2/3
f 113/2/47 151/2/3 152/2/3
f 113/2/47 152/2/3 114/2/47
f 111/2/37 149/2/62 151/2/64
f 111/2/37 151/2/64 113/2/40
f 152/2/65 150/2/63 112/2/38
f 152/2/65 112/2/38 114/2/41
f 153/2/35 154/2/35 124/2/35
f 153/2/35 124/2/35 123/2/35
f 154/2/35 153/2/35 155/2/5
f 154/2/35 155/2/5 156/2/66
f 154/2/67 156/2/68 157/2/69
f 154/2/67 157/2/69 124/2/50
f 158/2/27 155/2/70 153/2/71
f 158/2/27 153/2/71 123/2/53
f 124/2/50 157/2/72 159/2/73
f 124/2/50 159/2/73 125/2/51
f 160/2/74 158/2/27 123/2/53
f 160/2/74 123/2/53 126/2/52
f 159/2/3 160/2/3 162/2/3
f 159/2/3 162/2/3 161/2/3
f 127/2/47 161/2/3 162/2/3
f 127/2/47 162/2/3 128/2/47
f 125/2/51 159/2/73 161/2/64
f 125/2/51 161/2/64 127/2/40
f 162/2/65 160/2/74 126/2/52
f 162/2/65 126/2/52 128/2/41
f 157/2/75 156/2/76 163/2/77
f 157/2/75 163/2/77 164/2/77
f 165/2/78 166/2/78 167/2/78
f 165/2/78 167/2/78 168/2/79
f 157/2/80 164/2/81 165/2/81
f 157/2/80 165/2/81 168/2/82
f 163/2/83 156/2/66 167/2/83
f 163/2/83 167/2/83 166/2/83
f 163/2/6 166/2/7 165/2/6
f 163/2/6 165/2/6 164/2/6
f 169/2/1 170/2/1 171/2/1
f 169/2/1 171/2/1 172/2/1
f 174/2/3 175/2/3 176/2/2
f 174/2/3 176/2/2 173/2/2
f 169/2/4 172/2/4 173/2/4
f 169/2/4 173/2/4 176/2/4
f 170/2/5 175/2/35 174/2/35
f 170/2/5 174/2/35 171/2/5
f 171/2/6 174/2/84 173/2/6
f 171/2/6 173/2/6 172/2/6
f 176/2/8 175/2/85 170/2/8
f 176/2/8 170/2/8 169/2/8
f 177/2/86 178/2/86 179/2/86
f 177/2/86 179/2/86 180/2/86
f 139/2/3 177/2/47 180/2/47
f 139/2/3 180/2/47 140/2/3
f 135/2/55 138/2/55 179/2/87
f 135/2/55 179/2/87 178/2/87
f 139/2/62 135/2/59 178/2/88
f 139/2/62 178/2/88 177/2/88
f 180/2/89 179/2/89 138/2/60
f 180/2/89 138/2/60 140/2/63
f 181/2/1 182/2/1 183/2/1
f 181/2/1 183/2/1 184/2/1
f 186/2/3 187/2/3 188/2/2
f 186/2/3 188/2/2 185/2/2
f 181/2/4 184/2/4 185/2/4
f 181/2/4 185/2/4 188/2/4
f 182/2/5 187/2/35 186/2/35
f 182/2/5 186/2/35 183/2/5
f 183/2/6 186/2/84 185/2/6
f 183/2/6 185/2/6 184/2/6
f 188/2/8 187/2/85 182/2/8
f 188/2/8 182/2/8 181/2/8
f 189/2/86 190/2/86 191/2/86
f 189/2/86 191/2/86 192/2/86
f 149/2/3 189/2/47 192/2/47
f 149/2/3 192/2/47 150/2/3
f 145/2/55 148/2/55 191/2/87
f 145/2/55 191/2/87 190/2/87
f 145/2/59 190/2/88 189/2/88
f 145/2/59 189/2/88 149/2/62
f 192/2/89 191/2/89 148/2/60
f 192/2/89 148/2/60 150/2/63
f 194/2/11 195/2/11 196/2/10
f 194/2/11 196/2/10 193/2/10
f 195/2/5 194/2/5 197/2/35
f 195/2/5 197/2/35 198/2/90
f 195/2/92 198/2/93 199/2/94
f 195/2/92 199/2/94 196/2/91
f 200/2/95 197/2/96 194/2/29
f 200/2/95 194/2/29 193/2/97
f 155/2/20 193/2/10 196/2/10
f 155/2/20 196/2/10 156/2/98
f 156/2/68 196/2/91 199/2/99
f 156/2/68 199/2/99 167/2/100
f 201/2/101 200/2/95 193/2/97
f 201/2/101 193/2/97 155/2/70
f 202/2/74 201/2/101 155/2/70
f 202/2/74 155/2/70 158/2/27
f 203/2/3 168/2/102 202/2/3
f 203/2/3 202/2/3 204/2/3
f 159/2/3 203/2/3 204/2/3
f 159/2/3 204/2/3 160/2/3
f 157/2/103 168/2/104 203/2/105
f 157/2/103 203/2/105 159/2/73
f 204/2/65 202/2/74 158/2/27
f 204/2/65 158/2/27 160/2/74
f 199/2/94 198/2/106 205/2/107
f 199/2/94 205/2/107 206/2/108
f 205/2/107 198/2/109 207/2/110
f 205/2/107 207/2/110 208/2/111
f 205/2/13 208/2/14 209/2/15
f 205/2/13 209/2/15 206/2/12
f 199/2/113 206/2/108 166/2/112
f 199/2/113 166/2/112 167/2/112
f 210/2/114 209/2/115 211/2/116
f 210/2/114 211/2/116 212/2/117
f 167/2/118 166/2/118 210/2/118
f 167/2/118 210/2/118 212/2/119
f 206/2/12 209/2/15 210/2/21
f 206/2/12 210/2/21 166/2/7
f 213/2/35 214/2/35 174/2/35
f 213/2/35 174/2/35 175/2/35
f 216/2/3 217/2/3 218/2/3
f 216/2/3 218/2/3 215/2/3
f 174/2/3 215/2/3 218/2/3
f 174/2/3 218/2/3 175/2/3
f 213/2/35 217/2/5 216/2/5
f 213/2/35 216/2/5 214/2/35
f 214/2/26 216/2/120 215/2/26
f 214/2/26 215/2/26 174/2/84
f 218/2/27 217/2/121 213/2/27
f 218/2/27 213/2/27 175/2/85
f 219/2/35 220/2/35 186/2/35
f 219/2/35 186/2/35 187/2/35
f 222/2/3 223/2/3 224/2/3
f 222/2/3 224/2/3 221/2/3
f 186/2/3 221/2/3 224/2/3
f 186/2/3 224/2/3 187/2/3
f 219/2/35 223/2/5 222/2/5
f 219/2/35 222/2/5 220/2/35
f 220/2/26 222/2/120 221/2/26
f 220/2/26 221/2/26 186/2/84
f 224/2/27 223/2/121 219/2/27
f 224/2/27 219/2/27 187/2/85
f 197/2/35 225/2/122 226/2/122
f 197/2/35 226/2/122 198/2/123
f 225/2/122 227/2/124 228/2/125
f 225/2/122 228/2/125 226/2/122
f 226/2/126 228/2/127 207/2/110
f 226/2/126 207/2/110 198/2/93
f 229/2/128 227/2/129 225/2/130
f 229/2/128 225/2/130 197/2/96
f 230/2/131 229/2/132 197/2/96
f 230/2/131 197/2/96 200/2/95
f 230/2/131 200/2/95 201/2/101
f 230/2/131 201/2/101 231/2/133
f 232/2/3 212/2/134 231/2/3
f 232/2/3 231/2/3 233/2/3
f 202/2/3 168/2/135 232/2/3
f 202/2/3 232/2/3 233/2/3
f 167/2/100 212/2/137 232/2/138
f 167/2/100 232/2/138 168/2/136
f 233/2/65 231/2/133 201/2/101
f 233/2/65 201/2/101 202/2/74
f 228/3/139 234/3/140 235/3/141
f 228/3/139 235/3/141 236/3/142
f 235/3/141 234/3/143 237/3/144
f 235/3/141 237/3/144 238/3/145
f 235/3/24 238/3/147 239/3/148
f 235/3/24 239/3/148 236/3/146
f 207/3/110 228/3/139 236/3/149
f 207/3/110 236/3/149 208/3/111
f 236/3/23 239/3/148 240/3/150
f 236/3/23 240/3/150 208/3/14
f 241/3/115 240/3/151 242/3/116
f 241/3/115 242/3/116 243/3/152
f 211/3/116 209/3/115 241/3/115
f 211/3/116 241/3/115 243/3/152
f 208/3/14 240/3/150 241/3/33
f 208/3/14 241/3/33 209/3/15
f 245/3/11 246/3/11 247/3/10
f 245/3/11 247/3/10 244/3/10
f 245/3/5 248/3/35 249/3/35
f 245/3/5 249/3/35 246/3/5
f 246/3/13 249/3/153 250/3/154
f 246/3/13 250/3/154 247/3/12
f 251/3/155 248/3/156 245/3/18
f 251/3/155 245/3/18 244/3/19
f 244/3/10 247/3/10 216/3/20
f 244/3/10 216/3/20 217/3/20
f 250/3/3 251/3/3 253/3/3
f 250/3/3 253/3/3 252/3/3
f 216/3/3 252/3/3 253/3/3
f 216/3/3 253/3/3 217/3/3
f 247/3/12 250/3/154 252/3/21
f 247/3/12 252/3/21 216/3/120
f 253/3/22 251/3/155 244/3/19
f 253/3/22 244/3/19 217/3/121
f 255/3/11 256/3/11 257/3/10
f 255/3/11 257/3/10 254/3/10
f 255/3/5 258/3/35 259/3/35
f 255/3/5 259/3/35 256/3/5
f 256/3/13 259/3/153 260/3/154
f 256/3/13 260/3/154 257/3/12
f 261/3/155 258/3/156 255/3/18
f 261/3/155 255/3/18 254/3/19
f 254/3/10 257/3/10 222/3/20
f 254/3/10 222/3/20 223/3/20
f 260/3/3 261/3/3 263/3/3
f 260/3/3 263/3/3 262/3/3
f 222/3/3 262/3/3 263/3/3
f 222/3/3 263/3/3 223/3/3
f 257/3/12 260/3/154 262/3/21
f 257/3/12 262/3/21 222/3/120
f 263/3/22 261/3/155 254/3/19
f 263/3/22 254/3/19 223/3/121
f 264/3/157 265/3/158 266/3/158
f 264/3/157 266/3/158 234/3/159
f 265/3/5 267/3/160 268/3/161
f 265/3/5 268/3/161 266/3/5
f 266/3/126 268/3/162 237/3/144
f 266/3/126 237/3/144 234/3/143
f 269/3/163 267/3/164 265/3/165
f 269/3/163 265/3/165 264/3/165
f 264/3/157 234/3/159 228/3/167
f 264/3/157 228/3/167 227/3/166
f 270/3/168 269/3/163 264/3/165
f 270/3/168 264/3/165 227/3/129
f 272/3/170 229/3/171 230/3/131
f 272/3/170 230/3/131 271/3/169
f 273/2/3 243/2/172 271/2/3
f 273/2/3 271/2/3 274/2/3
f 231/2/3 212/2/173 273/2/3
f 231/2/3 273/2/3 274/2/3
f 211/2/116 243/2/175 273/2/176
f 211/2/116 273/2/176 212/2/174
f 274/2/65 271/2/169 230/2/131
f 274/2/65 230/2/131 231/2/133
f 276/3/177 227/3/178 229/3/179
f 276/3/177 229/3/179 275/3/177
f 275/3/180 229/3/181 272/3/170
f 275/3/180 272/3/170 277/3/182
f 276/3/184 278/3/185 270/3/168
f 276/3/184 270/3/168 227/3/183
f 277/3/186 278/3/187 276/3/188
f 277/3/186 276/3/188 275/3/188
f 237/3/144 268/3/189 279/3/190
f 237/3/144 279/3/190 238/3/191
f 279/3/190 268/3/189 280/3/192
f 279/3/190 280/3/192 281/3/190
f 279/3/190 281/3/193 282/3/194
f 279/3/190 282/3/194 238/3/147
f 239/3/148 238/3/195 282/3/194
f 239/3/148 282/3/194 283/3/196
f 284/3/151 283/3/197 285/3/116
f 284/3/151 285/3/116 286/3/152
f 242/3/116 240/3/151 284/3/151
f 242/3/116 284/3/151 286/3/152
f 239/3/148 283/3/199 284/3/151
f 239/3/148 284/3/151 240/3/198
f 287/3/35 288/3/35 249/3/35
f 287/3/35 249/3/35 248/3/35
f 290/3/43 291/3/43 292/3/42
f 290/3/43 292/3/42 289/3/42
f 287/3/35 291/3/35 290/3/35
f 287/3/35 290/3/35 288/3/35
f 288/3/200 290/3/201 289/3/202
f 288/3/200 289/3/202 249/3/153
f 292/3/203 291/3/204 287/3/205
f 292/3/203 287/3/205 248/3/156
f 289/3/42 292/3/42 294/3/46
f 289/3/42 294/3/46 293/3/46
f 250/3/3 293/3/47 294/3/47
f 250/3/3 294/3/47 251/3/3
f 249/3/153 289/3/202 293/3/206
f 249/3/153 293/3/206 250/3/154
f 294/3/207 292/3/203 248/3/156
f 294/3/207 248/3/156 251/3/155
f 295/3/35 296/3/35 259/3/35
f 295/3/35 259/3/35 258/3/35
f 298/3/43 299/3/43 300/3/42
f 298/3/43 300/3/42 297/3/42
f 295/3/35 299/3/35 298/3/35
f 295/3/35 298/3/35 296/3/35
f 296/3/200 298/3/201 297/3/202
f 296/3/200 297/3/202 259/3/153
f 300/3/203 299/3/204 295/3/205
f 300/3/203 295/3/205 258/3/156
f 297/3/42 300/3/42 302/3/46
f 297/3/42 302/3/46 301/3/46
f 260/3/3 301/3/47 302/3/47
f 260/3/3 302/3/47 261/3/3
f 259/3/153 297/3/202 301/3/206
f 259/3/153 301/3/206 260/3/154
f 302/3/207 300/3/203 258/3/156
f 302/3/207 258/3/156 261/3/155
f 303/3/35 304/3/35 268/3/161
f 303/3/35 268/3/161 267/3/208
f 304/3/35 303/3/35 305/3/35
f 304/3/35 305/3/35 306/3/209
f 304/3/210 306/3/211 280/3/192
f 304/3/210 280/3/192 268/3/162
f 307/3/212 305/3/213 303/3/214
f 307/3/212 303/3/214 267/3/164
f 286/3/172 309/3/215 310/3/3
f 286/3/172 310/3/3 308/3/3
f 271/3/3 243/3/172 308/3/3
f 271/3/3 308/3/3 310/3/3
f 242/3/116 286/3/175 308/3/176
f 242/3/116 308/3/176 243/3/175
f 310/3/216 309/3/217 272/3/170
f 310/3/216 272/3/170 271/3/169
f 312/3/219 267/3/220 269/3/163
f 312/3/219 269/3/163 311/3/218
f 312/3/222 313/3/223 307/3/212
f 312/3/222 307/3/212 267/3/221
f 314/3/224 313/3/225 312/3/226
f 314/3/224 312/3/226 311/3/227
f 311/3/218 269/3/163 270/3/168
f 311/3/218 270/3/168 278/3/185
f 315/3/228 314/3/224 311/3/229
f 315/3/228 311/3/229 278/3/187
f 316/3/231 315/3/232 317/3/233
f 316/3/231 317/3/233 309/3/230
f 272/3/170 309/3/234 317/3/233
f 272/3/170 317/3/233 277/3/182
f 317/3/235 315/3/228 278/3/187
f 317/3/235 278/3/187 277/3/186
f 280/4/192 306/4/236 318/4/237
f 280/4/192 318/4/237 281/4/190
f 320/4/239 321/4/240 322/4/241
f 320/4/239 322/4/241 319/4/238
f 306/4/243 321/4/244 320/4/242
f 306/4/243 320/4/242 318/4/242
f 281/4/245 318/4/58 320/4/58
f 281/4/245 320/4/58 319/4/59
f 281/3/245 319/3/59 323/3/62
f 281/3/245 323/3/62 282/3/194
f 324/4/151 323/4/151 325/4/116
f 324/4/151 325/4/116 326/4/152
f 285/4/116 283/4/197 324/4/151
f 285/4/116 324/4/151 326/4/152
f 282/4/194 323/4/246 324/4/151
f 282/4/194 324/4/151 283/4/199
f 327/4/54 328/4/54 290/4/35
f 327/4/54 290/4/35 291/4/35
f 329/4/86 330/4/86 331/4/86
f 329/4/86 331/4/86 332/4/86
f 290/4/47 329/4/47 332/4/47
f 290/4/47 332/4/47 291/4/47
f 328/4/57 327/4/57 331/4/57
f 328/4/57 331/4/57 330/4/57
f 328/4/247 330/4/247 329/4/247
f 328/4/247 329/4/247 290/4/201
f 332/4/248 331/4/248 327/4/248
f 332/4/248 327/4/248 291/4/204
f 333/4/54 334/4/54 298/4/35
f 333/4/54 298/4/35 299/4/35
f 335/4/86 336/4/86 337/4/86
f 335/4/86 337/4/86 338/4/86
f 298/4/47 335/4/47 338/4/47
f 298/4/47 338/4/47 299/4/47
f 334/4/57 333/4/57 337/4/57
f 334/4/57 337/4/57 336/4/57
f 334/4/247 336/4/247 335/4/247
f 334/4/247 335/4/247 298/4/201
f 338/4/248 337/4/248 333/4/248
f 338/4/248 333/4/248 299/4/204
f 305/4/35 339/4/54 340/4/54
f 305/4/35 340/4/54 306/4/249
f 341/4/56 342/4/56 343/4/55
f 341/4/56 343/4/55 321/4/250
f 340/4/57 339/4/57 342/4/57
f 340/4/57 342/4/57 341/4/57
f 306/4/251 340/4/252 341/4/252
f 306/4/251 341/4/252 321/4/253
f 342/4/61 339/4/61 305/4/213
f 342/4/61 305/4/213 343/4/254
f 343/4/254 305/4/213 307/4/212
f 343/4/254 307/4/212 344/4/255
f 326/3/172 346/3/256 347/3/3
f 326/3/172 347/3/3 345/3/3
f 286/3/172 345/3/3 347/3/3
f 286/3/172 347/3/3 309/3/257
f 285/3/116 326/3/175 345/3/176
f 285/3/116 345/3/176 286/3/175
f 347/3/258 346/3/259 316/3/231
f 347/3/258 316/3/231 309/3/217
f 348/3/260 344/3/261 349/3/262
f 348/3/260 349/3/262 350/3/263
f 307/3/212 313/3/264 349/3/265
f 307/3/212 349/3/265 344/3/266
f 349/3/268 313/3/269 314/3/224
f 349/3/268 314/3/224 350/3/267
f 348/4/260 350/4/271 351/4/272
f 348/4/260 351/4/272 346/4/270
f 316/4/231 346/4/274 351/4/275
f 316/4/231 351/4/275 315/4/273
f 351/4/276 350/4/263 314/4/224
f 351/4/276 314/4/224 315/4/277
f 352/4/278 353/4/278 354/4/279
f 352/4/278 354/4/279 355/4/280
f 325/4/116 323/4/151 352/4/281
f 325/4/116 352/4/281 355/4/282
f 322/4/241 354/4/283 353/4/284
f 322/4/241 353/4/284 319/4/238
f 319/4/59 353/4/88 352/4/88
f 319/4/59 352/4/88 323/4/62
f 356/4/55 357/4/55 358/4/55
f 356/4/55 358/4/55 354/4/285
f 343/4/55 357/4/55 356/4/55
f 343/4/55 356/4/55 321/4/286
f 322/4/241 321/4/287 356/4/288
f 322/4/241 356/4/288 354/4/289
f 357/4/291 343/4/254 344/4/292
f 357/4/291 344/4/292 358/4/290
f 358/4/290 344/4/294 348/4/260
f 358/4/290 348/4/260 359/4/293
f 360/3/3 355/3/295 359/3/3
f 360/3/3 359/3/3 361/3/3
f 326/3/172 360/3/3 361/3/3
f 326/3/172 361/3/3 346/3/296
f 325/3/116 355/3/297 360/3/176
f 325/3/116 360/3/176 326/3/175
f 361/3/298 359/3/293 348/3/260
f 361/3/298 348/3/260 346/3/259
f 362/3/86 363/3/86 364/3/86
f 362/3/86 364/3/86 365/3/86
f 359/3/3 355/3/299 362/3/47
f 359/3/3 362/3/47 365/3/47
f 358/3/55 364/3/87 363/3/87
f 358/3/55 363/3/87 354/3/300
f 354/3/302 363/3/303 362/3/303
f 354/3/302 362/3/303 355/3/301
f 365/3/89 364/3/89 358/3/290
f 365/3/89 358/3/290 359/3/293

