# generated by vox_to_obj_exporter
# scale=0.1 center=false ground=false y_up=true

mtllib Fight_761.mtl
usemtl palette

# normals
vn -1 0 0
vn 1 0 0
vn 0 1 0
vn 0 -1 0
vn 0 0 1
vn 0 0 -1

# texcoords
vt 0.041015625 0.5
vt 0.033203125 0.5
vt 0.037109375 0.5

# verts
v 9.9 5.1 -2.6
v 9.9 5 -2.6
v 9.9 5 -2.5
v 9.9 5.1 -2.5
v 9.9 5.1 -2.6
v 9.9 5.1 -2.5
v 10 5.1 -2.5
v 10 5.1 -2.6
v 9.9 5.1 -2.5
v 9.9 5 -2.5
v 10 5 -2.5
v 10 5.1 -2.5
v 10 5.1 -2.6
v 10 5 -2.6
v 9.9 5 -2.6
v 9.9 5.1 -2.6
v 10.1 5.1 -2.5
v 10.1 5 -2.5
v 10.1 5 -2.6
v 10.1 5.1 -2.6
v 10 5.1 -2.6
v 10 5.1 -2.5
v 10.1 5.1 -2.5
v 10.1 5.1 -2.6
v 10 5.1 -2.5
v 10 5 -2.5
v 10.1 5 -2.5
v 10.1 5.1 -2.5
v 10.1 5.1 -2.6
v 10.1 5 -2.6
v 10 5 -2.6
v 10 5.1 -2.6
v 9.9 5 -2.6
v 9.9 4.9 -2.6
v 9.9 4.9 -2.5
v 9.9 5 -2.5
v 9.9 4.9 -2.5
v 9.9 4.9 -2.6
v 10 4.9 -2.6
v 10 4.9 -2.5
v 9.9 5 -2.5
v 9.9 4.9 -2.5
v 10 4.9 -2.5
v 10 5 -2.5
v 10 5 -2.6
v 10 4.9 -2.6
v 9.9 4.9 -2.6
v 9.9 5 -2.6
v 10 5 -2.5
v 10 4.9 -2.5
v 10.1 4.9 -2.5
v 10.1 5 -2.5
v 10.1 5 -2.6
v 10.1 4.9 -2.6
v 10 4.9 -2.6
v 10 5 -2.6
v 10.1 5 -2.6
v 10.1 5 -2.5
v 10.2 5 -2.5
v 10.2 5 -2.6
v 10.1 5 -2.5
v 10.1 4.9 -2.5
v 10.2 4.9 -2.5
v 10.2 5 -2.5
v 10.2 5 -2.6
v 10.2 4.9 -2.6
v 10.1 4.9 -2.6
v 10.1 5 -2.6
v 10.3 5 -2.5
v 10.3 4.9 -2.5
v 10.3 4.9 -2.6
v 10.3 5 -2.6
v 10.2 5 -2.6
v 10.2 5 -2.5
v 10.3 5 -2.5
v 10.3 5 -2.6
v 10.2 5 -2.5
v 10.2 4.9 -2.5
v 10.3 4.9 -2.5
v 10.3 5 -2.5
v 10.3 5 -2.6
v 10.3 4.9 -2.6
v 10.2 4.9 -2.6
v 10.2 5 -2.6
v 10 4.9 -2.6
v 10 4.8 -2.6
v 10 4.8 -2.5
v 10 4.9 -2.5
v 10 4.8 -2.5
v 10 4.8 -2.6
v 10.1 4.8 -2.6
v 10.1 4.8 -2.5
v 10 4.9 -2.5
v 10 4.8 -2.5
v 10.1 4.8 -2.5
v 10.1 4.9 -2.5
v 10.1 4.9 -2.6
v 10.1 4.8 -2.6
v 10 4.8 -2.6
v 10 4.9 -2.6
v 10.1 4.9 -2.5
v 10.1 4.8 -2.5
v 10.2 4.8 -2.5
v 10.2 4.9 -2.5
v 10.2 4.9 -2.6
v 10.2 4.8 -2.6
v 10.1 4.8 -2.6
v 10.1 4.9 -2.6
v 10.2 4.9 -2.5
v 10.2 4.8 -2.5
v 10.3 4.8 -2.5
v 10.3 4.9 -2.5
v 10.3 4.9 -2.6
v 10.3 4.8 -2.6
v 10.2 4.8 -2.6
v 10.2 4.9 -2.6
v 10.4 4.9 -2.5
v 10.4 4.8 -2.5
v 10.4 4.8 -2.6
v 10.4 4.9 -2.6
v 10.3 4.9 -2.6
v 10.3 4.9 -2.5
v 10.4 4.9 -2.5
v 10.4 4.9 -2.6
v 10.3 4.9 -2.5
v 10.3 4.8 -2.5
v 10.4 4.8 -2.5
v 10.4 4.9 -2.5
v 10.4 4.9 -2.6
v 10.4 4.8 -2.6
v 10.3 4.8 -2.6
v 10.3 4.9 -2.6
v 10.1 4.8 -2.6
v 10.1 4.7 -2.6
v 10.1 4.7 -2.5
v 10.1 4.8 -2.5
v 10.1 4.7 -2.5
v 10.1 4.7 -2.6
v 10.2 4.7 -2.6
v 10.2 4.7 -2.5
v 10.1 4.8 -2.5
v 10.1 4.7 -2.5
v 10.2 4.7 -2.5
v 10.2 4.8 -2.5
v 10.2 4.8 -2.6
v 10.2 4.7 -2.6
v 10.1 4.7 -2.6
v 10.1 4.8 -2.6
v 10.2 4.8 -2.5
v 10.2 4.7 -2.5
v 10.3 4.7 -2.5
v 10.3 4.8 -2.5
v 10.3 4.8 -2.6
v 10.3 4.7 -2.6
v 10.2 4.7 -2.6
v 10.2 4.8 -2.6
v 10.3 4.8 -2.5
v 10.3 4.7 -2.5
v 10.4 4.7 -2.5
v 10.4 4.8 -2.5
v 10.4 4.8 -2.6
v 10.4 4.7 -2.6
v 10.3 4.7 -2.6
v 10.3 4.8 -2.6
v 10.5 4.8 -2.5
v 10.5 4.7 -2.5
v 10.5 4.7 -2.6
v 10.5 4.8 -2.6
v 10.4 4.8 -2.6
v 10.4 4.8 -2.5
v 10.5 4.8 -2.5
v 10.5 4.8 -2.6
v 10.4 4.8 -2.5
v 10.4 4.7 -2.5
v 10.5 4.7 -2.5
v 10.5 4.8 -2.5
v 10.5 4.8 -2.6
v 10.5 4.7 -2.6
v 10.4 4.7 -2.6
v 10.4 4.8 -2.6
v 10.2 4.7 -2.6
v 10.2 4.6 -2.6
v 10.2 4.6 -2.5
v 10.2 4.7 -2.5
v 10.2 4.6 -2.5
v 10.2 4.6 -2.6
v 10.3 4.6 -2.6
v 10.3 4.6 -2.5
v 10.2 4.7 -2.5
v 10.2 4.6 -2.5
v 10.3 4.6 -2.5
v 10.3 4.7 -2.5
v 10.3 4.7 -2.6
v 10.3 4.6 -2.6
v 10.2 4.6 -2.6
v 10.2 4.7 -2.6
v 10.3 4.7 -2.5
v 10.3 4.6 -2.5
v 10.4 4.6 -2.5
v 10.4 4.7 -2.5
v 10.4 4.7 -2.6
v 10.4 4.6 -2.6
v 10.3 4.6 -2.6
v 10.3 4.7 -2.6
v 10.4 4.7 -2.5
v 10.4 4.6 -2.5
v 10.5 4.6 -2.5
v 10.5 4.7 -2.5
v 10.5 4.7 -2.6
v 10.5 4.6 -2.6
v 10.4 4.6 -2.6
v 10.4 4.7 -2.6
v 10.5 4.7 -2.6
v 10.5 4.7 -2.5
v 10.6 4.7 -2.5
v 10.6 4.7 -2.6
v 10.5 4.7 -2.5
v 10.5 4.6 -2.5
v 10.6 4.6 -2.5
v 10.6 4.7 -2.5
v 10.6 4.7 -2.6
v 10.6 4.6 -2.6
v 10.5 4.6 -2.6
v 10.5 4.7 -2.6
v 10.7 4.7 -2.5
v 10.7 4.6 -2.5
v 10.7 4.6 -2.6
v 10.7 4.7 -2.6
v 10.6 4.7 -2.6
v 10.6 4.7 -2.5
v 10.7 4.7 -2.5
v 10.7 4.7 -2.6
v 10.6 4.7 -2.5
v 10.6 4.6 -2.5
v 10.7 4.6 -2.5
v 10.7 4.7 -2.5
v 10.7 4.7 -2.6
v 10.7 4.6 -2.6
v 10.6 4.6 -2.6
v 10.6 4.7 -2.6
v 10.3 4.6 -2.6
v 10.3 4.5 -2.6
v 10.3 4.5 -2.5
v 10.3 4.6 -2.5
v 10.3 4.5 -2.5
v 10.3 4.5 -2.6
v 10.4 4.5 -2.6
v 10.4 4.5 -2.5
v 10.3 4.6 -2.5
v 10.3 4.5 -2.5
v 10.4 4.5 -2.5
v 10.4 4.6 -2.5
v 10.4 4.6 -2.6
v 10.4 4.5 -2.6
v 10.3 4.5 -2.6
v 10.3 4.6 -2.6
v 10.4 4.6 -2.5
v 10.4 4.5 -2.5
v 10.5 4.5 -2.5
v 10.5 4.6 -2.5
v 10.5 4.6 -2.6
v 10.5 4.5 -2.6
v 10.4 4.5 -2.6
v 10.4 4.6 -2.6
v 10.5 4.6 -2.5
v 10.5 4.5 -2.5
v 10.6 4.5 -2.5
v 10.6 4.6 -2.5
v 10.6 4.6 -2.6
v 10.6 4.5 -2.6
v 10.5 4.5 -2.6
v 10.5 4.6 -2.6
v 10.6 4.6 -2.5
v 10.6 4.5 -2.5
v 10.7 4.5 -2.5
v 10.7 4.6 -2.5
v 10.7 4.6 -2.6
v 10.7 4.5 -2.6
v 10.6 4.5 -2.6
v 10.6 4.6 -2.6
v 10.8 4.6 -2.5
v 10.8 4.5 -2.5
v 10.8 4.5 -2.6
v 10.8 4.6 -2.6
v 10.7 4.6 -2.6
v 10.7 4.6 -2.5
v 10.8 4.6 -2.5
v 10.8 4.6 -2.6
v 10.7 4.6 -2.5
v 10.7 4.5 -2.5
v 10.8 4.5 -2.5
v 10.8 4.6 -2.5
v 10.8 4.6 -2.6
v 10.8 4.5 -2.6
v 10.7 4.5 -2.6
v 10.7 4.6 -2.6
v 10.4 4.5 -2.6
v 10.4 4.4 -2.6
v 10.4 4.4 -2.5
v 10.4 4.5 -2.5
v 10.4 4.4 -2.5
v 10.4 4.4 -2.6
v 10.5 4.4 -2.6
v 10.5 4.4 -2.5
v 10.4 4.5 -2.5
v 10.4 4.4 -2.5
v 10.5 4.4 -2.5
v 10.5 4.5 -2.5
v 10.5 4.5 -2.6
v 10.5 4.4 -2.6
v 10.4 4.4 -2.6
v 10.4 4.5 -2.6
v 10.5 4.4 -2.5
v 10.5 4.4 -2.6
v 10.6 4.4 -2.6
v 10.6 4.4 -2.5
v 10.5 4.5 -2.5
v 10.5 4.4 -2.5
v 10.6 4.4 -2.5
v 10.6 4.5 -2.5
v 10.6 4.5 -2.6
v 10.6 4.4 -2.6
v 10.5 4.4 -2.6
v 10.5 4.5 -2.6
v 10.6 4.5 -2.5
v 10.6 4.4 -2.5
v 10.7 4.4 -2.5
v 10.7 4.5 -2.5
v 10.7 4.5 -2.6
v 10.7 4.4 -2.6
v 10.6 4.4 -2.6
v 10.6 4.5 -2.6
v 10.7 4.5 -2.5
v 10.7 4.4 -2.5
v 10.8 4.4 -2.5
v 10.8 4.5 -2.5
v 10.8 4.5 -2.6
v 10.8 4.4 -2.6
v 10.7 4.4 -2.6
v 10.7 4.5 -2.6
v 10.9 4.5 -2.5
v 10.9 4.4 -2.5
v 10.9 4.4 -2.6
v 10.9 4.5 -2.6
v 10.8 4.5 -2.6
v 10.8 4.5 -2.5
v 10.9 4.5 -2.5
v 10.9 4.5 -2.6
v 10.8 4.5 -2.5
v 10.8 4.4 -2.5
v 10.9 4.4 -2.5
v 10.9 4.5 -2.5
v 10.9 4.5 -2.6
v 10.9 4.4 -2.6
v 10.8 4.4 -2.6
v 10.8 4.5 -2.6
v 10.6 4.4 -2.6
v 10.6 4.3 -2.6
v 10.6 4.3 -2.5
v 10.6 4.4 -2.5
v 10.6 4.3 -2.5
v 10.6 4.3 -2.6
v 10.7 4.3 -2.6
v 10.7 4.3 -2.5
v 10.6 4.4 -2.5
v 10.6 4.3 -2.5
v 10.7 4.3 -2.5
v 10.7 4.4 -2.5
v 10.7 4.4 -2.6
v 10.7 4.3 -2.6
v 10.6 4.3 -2.6
v 10.6 4.4 -2.6
v 10.7 4.4 -2.5
v 10.7 4.3 -2.5
v 10.8 4.3 -2.5
v 10.8 4.4 -2.5
v 10.8 4.4 -2.6
v 10.8 4.3 -2.6
v 10.7 4.3 -2.6
v 10.7 4.4 -2.6
v 10.8 4.4 -2.5
v 10.8 4.3 -2.5
v 10.9 4.3 -2.5
v 10.9 4.4 -2.5
v 10.9 4.4 -2.6
v 10.9 4.3 -2.6
v 10.8 4.3 -2.6
v 10.8 4.4 -2.6
v 10.9 4.4 -2.6
v 10.9 4.4 -2.5
v 11 4.4 -2.5
v 11 4.4 -2.6
v 10.9 4.4 -2.5
v 10.9 4.3 -2.5
v 11 4.3 -2.5
v 11 4.4 -2.5
v 11 4.4 -2.6
v 11 4.3 -2.6
v 10.9 4.3 -2.6
v 10.9 4.4 -2.6
v 11.1 4.4 -2.5
v 11.1 4.3 -2.5
v 11.1 4.3 -2.6
v 11.1 4.4 -2.6
v 11 4.4 -2.6
v 11 4.4 -2.5
v 11.1 4.4 -2.5
v 11.1 4.4 -2.6
v 11 4.4 -2.5
v 11 4.3 -2.5
v 11.1 4.3 -2.5
v 11.1 4.4 -2.5
v 11.1 4.4 -2.6
v 11.1 4.3 -2.6
v 11 4.3 -2.6
v 11 4.4 -2.6
v 10.7 4.3 -2.6
v 10.7 4.2 -2.6
v 10.7 4.2 -2.5
v 10.7 4.3 -2.5
v 10.7 4.2 -2.5
v 10.7 4.2 -2.6
v 10.8 4.2 -2.6
v 10.8 4.2 -2.5
v 10.7 4.3 -2.5
v 10.7 4.2 -2.5
v 10.8 4.2 -2.5
v 10.8 4.3 -2.5
v 10.8 4.3 -2.6
v 10.8 4.2 -2.6
v 10.7 4.2 -2.6
v 10.7 4.3 -2.6
v 10.8 4.3 -2.5
v 10.8 4.2 -2.5
v 10.9 4.2 -2.5
v 10.9 4.3 -2.5
v 10.9 4.3 -2.6
v 10.9 4.2 -2.6
v 10.8 4.2 -2.6
v 10.8 4.3 -2.6
v 10.9 4.3 -2.5
v 10.9 4.2 -2.5
v 11 4.2 -2.5
v 11 4.3 -2.5
v 11 4.3 -2.6
v 11 4.2 -2.6
v 10.9 4.2 -2.6
v 10.9 4.3 -2.6
v 11 4.3 -2.5
v 11 4.2 -2.5
v 11.1 4.2 -2.5
v 11.1 4.3 -2.5
v 11.1 4.3 -2.6
v 11.1 4.2 -2.6
v 11 4.2 -2.6
v 11 4.3 -2.6
v 11.2 4.3 -2.5
v 11.2 4.2 -2.5
v 11.2 4.2 -2.6
v 11.2 4.3 -2.6
v 11.1 4.3 -2.6
v 11.1 4.3 -2.5
v 11.2 4.3 -2.5
v 11.2 4.3 -2.6
v 11.1 4.3 -2.5
v 11.1 4.2 -2.5
v 11.2 4.2 -2.5
v 11.2 4.3 -2.5
v 11.2 4.3 -2.6
v 11.2 4.2 -2.6
v 11.1 4.2 -2.6
v 11.1 4.3 -2.6
v 10.8 4.2 -2.6
v 10.8 4.1 -2.6
v 10.8 4.1 -2.5
v 10.8 4.2 -2.5
v 10.8 4.1 -2.5
v 10.8 4.1 -2.6
v 10.9 4.1 -2.6
v 10.9 4.1 -2.5
v 10.8 4.2 -2.5
v 10.8 4.1 -2.5
v 10.9 4.1 -2.5
v 10.9 4.2 -2.5
v 10.9 4.2 -2.6
v 10.9 4.1 -2.6
v 10.8 4.1 -2.6
v 10.8 4.2 -2.6
v 10.9 4.2 -2.5
v 10.9 4.1 -2.5
v 11 4.1 -2.5
v 11 4.2 -2.5
v 11 4.2 -2.6
v 11 4.1 -2.6
v 10.9 4.1 -2.6
v 10.9 4.2 -2.6
v 11 4.2 -2.5
v 11 4.1 -2.5
v 11.1 4.1 -2.5
v 11.1 4.2 -2.5
v 11.1 4.2 -2.6
v 11.1 4.1 -2.6
v 11 4.1 -2.6
v 11 4.2 -2.6
v 11.1 4.2 -2.5
v 11.1 4.1 -2.5
v 11.2 4.1 -2.5
v 11.2 4.2 -2.5
v 11.2 4.2 -2.6
v 11.2 4.1 -2.6
v 11.1 4.1 -2.6
v 11.1 4.2 -2.6
v 11.3 4.2 -2.5
v 11.3 4.1 -2.5
v 11.3 4.1 -2.6
v 11.3 4.2 -2.6
v 11.2 4.2 -2.6
v 11.2 4.2 -2.5
v 11.3 4.2 -2.5
v 11.3 4.2 -2.6
v 11.2 4.2 -2.5
v 11.2 4.1 -2.5
v 11.3 4.1 -2.5
v 11.3 4.2 -2.5
v 11.3 4.2 -2.6
v 11.3 4.1 -2.6
v 11.2 4.1 -2.6
v 11.2 4.2 -2.6
v 10.9 4.1 -2.6
v 10.9 4 -2.6
v 10.9 4 -2.5
v 10.9 4.1 -2.5
v 10.9 4 -2.5
v 10.9 4 -2.6
v 11 4 -2.6
v 11 4 -2.5
v 10.9 4.1 -2.5
v 10.9 4 -2.5
v 11 4 -2.5
v 11 4.1 -2.5
v 11 4.1 -2.6
v 11 4 -2.6
v 10.9 4 -2.6
v 10.9 4.1 -2.6
v 11 4 -2.5
v 11 4 -2.6
v 11.1 4 -2.6
v 11.1 4 -2.5
v 11 4.1 -2.5
v 11 4 -2.5
v 11.1 4 -2.5
v 11.1 4.1 -2.5
v 11.1 4.1 -2.6
v 11.1 4 -2.6
v 11 4 -2.6
v 11 4.1 -2.6
v 11.1 4.1 -2.5
v 11.1 4 -2.5
v 11.2 4 -2.5
v 11.2 4.1 -2.5
v 11.2 4.1 -2.6
v 11.2 4 -2.6
v 11.1 4 -2.6
v 11.1 4.1 -2.6
v 11.2 4.1 -2.5
v 11.2 4 -2.5
v 11.3 4 -2.5
v 11.3 4.1 -2.5
v 11.3 4.1 -2.6
v 11.3 4 -2.6
v 11.2 4 -2.6
v 11.2 4.1 -2.6
v 11.4 4.1 -2.5
v 11.4 4 -2.5
v 11.4 4 -2.6
v 11.4 4.1 -2.6
v 11.3 4.1 -2.6
v 11.3 4.1 -2.5
v 11.4 4.1 -2.5
v 11.4 4.1 -2.6
v 11.3 4.1 -2.5
v 11.3 4 -2.5
v 11.4 4 -2.5
v 11.4 4.1 -2.5
v 11.4 4.1 -2.6
v 11.4 4 -2.6
v 11.3 4 -2.6
v 11.3 4.1 -2.6
v 11.1 4 -2.6
v 11.1 3.9 -2.6
v 11.1 3.9 -2.5
v 11.1 4 -2.5
v 11.1 3.9 -2.5
v 11.1 3.9 -2.6
v 11.2 3.9 -2.6
v 11.2 3.9 -2.5
v 11.1 4 -2.5
v 11.1 3.9 -2.5
v 11.2 3.9 -2.5
v 11.2 4 -2.5
v 11.2 4 -2.6
v 11.2 3.9 -2.6
v 11.1 3.9 -2.6
v 11.1 4 -2.6
v 11.2 4 -2.5
v 11.2 3.9 -2.5
v 11.3 3.9 -2.5
v 11.3 4 -2.5
v 11.3 4 -2.6
v 11.3 3.9 -2.6
v 11.2 3.9 -2.6
v 11.2 4 -2.6
v 11.3 4 -2.5
v 11.3 3.9 -2.5
v 11.4 3.9 -2.5
v 11.4 4 -2.5
v 11.4 4 -2.6
v 11.4 3.9 -2.6
v 11.3 3.9 -2.6
v 11.3 4 -2.6
v 11.4 4 -2.6
v 11.4 4 -2.5
v 11.5 4 -2.5
v 11.5 4 -2.6
v 11.4 4 -2.5
v 11.4 3.9 -2.5
v 11.5 3.9 -2.5
v 11.5 4 -2.5
v 11.5 4 -2.6
v 11.5 3.9 -2.6
v 11.4 3.9 -2.6
v 11.4 4 -2.6
v 11.6 4 -2.5
v 11.6 3.9 -2.5
v 11.6 3.9 -2.6
v 11.6 4 -2.6
v 11.5 4 -2.6
v 11.5 4 -2.5
v 11.6 4 -2.5
v 11.6 4 -2.6
v 11.5 4 -2.5
v 11.5 3.9 -2.5
v 11.6 3.9 -2.5
v 11.6 4 -2.5
v 11.6 4 -2.6
v 11.6 3.9 -2.6
v 11.5 3.9 -2.6
v 11.5 4 -2.6
v 9.9 3.9 -2.6
v 9.9 3.8 -2.6
v 9.9 3.8 -2.5
v 9.9 3.9 -2.5
v 9.9 3.9 -2.6
v 9.9 3.9 -2.5
v 10 3.9 -2.5
v 10 3.9 -2.6
v 9.9 3.9 -2.5
v 9.9 3.8 -2.5
v 10 3.8 -2.5
v 10 3.9 -2.5
v 10 3.9 -2.6
v 10 3.8 -2.6
v 9.9 3.8 -2.6
v 9.9 3.9 -2.6
v 10.1 3.9 -2.5
v 10.1 3.8 -2.5
v 10.1 3.8 -2.6
v 10.1 3.9 -2.6
v 10 3.9 -2.6
v 10 3.9 -2.5
v 10.1 3.9 -2.5
v 10.1 3.9 -2.6
v 10 3.9 -2.5
v 10 3.8 -2.5
v 10.1 3.8 -2.5
v 10.1 3.9 -2.5
v 10.1 3.9 -2.6
v 10.1 3.8 -2.6
v 10 3.8 -2.6
v 10 3.9 -2.6
v 11.2 3.9 -2.6
v 11.2 3.8 -2.6
v 11.2 3.8 -2.5
v 11.2 3.9 -2.5
v 11.2 3.8 -2.5
v 11.2 3.8 -2.6
v 11.3 3.8 -2.6
v 11.3 3.8 -2.5
v 11.2 3.9 -2.5
v 11.2 3.8 -2.5
v 11.3 3.8 -2.5
v 11.3 3.9 -2.5
v 11.3 3.9 -2.6
v 11.3 3.8 -2.6
v 11.2 3.8 -2.6
v 11.2 3.9 -2.6
v 11.3 3.9 -2.5
v 11.3 3.8 -2.5
v 11.4 3.8 -2.5
v 11.4 3.9 -2.5
v 11.4 3.9 -2.6
v 11.4 3.8 -2.6
v 11.3 3.8 -2.6
v 11.3 3.9 -2.6
v 11.4 3.9 -2.5
v 11.4 3.8 -2.5
v 11.5 3.8 -2.5
v 11.5 3.9 -2.5
v 11.5 3.9 -2.6
v 11.5 3.8 -2.6
v 11.4 3.8 -2.6
v 11.4 3.9 -2.6
v 11.5 3.9 -2.5
v 11.5 3.8 -2.5
v 11.6 3.8 -2.5
v 11.6 3.9 -2.5
v 11.6 3.9 -2.6
v 11.6 3.8 -2.6
v 11.5 3.8 -2.6
v 11.5 3.9 -2.6
v 11.7 3.9 -2.5
v 11.7 3.8 -2.5
v 11.7 3.8 -2.6
v 11.7 3.9 -2.6
v 11.6 3.9 -2.6
v 11.6 3.9 -2.5
v 11.7 3.9 -2.5
v 11.7 3.9 -2.6
v 11.6 3.9 -2.5
v 11.6 3.8 -2.5
v 11.7 3.8 -2.5
v 11.7 3.9 -2.5
v 11.7 3.9 -2.6
v 11.7 3.8 -2.6
v 11.6 3.8 -2.6
v 11.6 3.9 -2.6
v 9.9 3.8 -2.6
v 9.9 3.7 -2.6
v 9.9 3.7 -2.5
v 9.9 3.8 -2.5
v 9.9 3.7 -2.5
v 9.9 3.7 -2.6
v 10 3.7 -2.6
v 10 3.7 -2.5
v 9.9 3.8 -2.5
v 9.9 3.7 -2.5
v 10 3.7 -2.5
v 10 3.8 -2.5
v 10 3.8 -2.6
v 10 3.7 -2.6
v 9.9 3.7 -2.6
v 9.9 3.8 -2.6
v 10 3.8 -2.5
v 10 3.7 -2.5
v 10.1 3.7 -2.5
v 10.1 3.8 -2.5
v 10.1 3.8 -2.6
v 10.1 3.7 -2.6
v 10 3.7 -2.6
v 10 3.8 -2.6
v 10.1 3.8 -2.6
v 10.1 3.8 -2.5
v 10.2 3.8 -2.5
v 10.2 3.8 -2.6
v 10.1 3.8 -2.5
v 10.1 3.7 -2.5
v 10.2 3.7 -2.5
v 10.2 3.8 -2.5
v 10.2 3.8 -2.6
v 10.2 3.7 -2.6
v 10.1 3.7 -2.6
v 10.1 3.8 -2.6
v 10.3 3.8 -2.5
v 10.3 3.7 -2.5
v 10.3 3.7 -2.6
v 10.3 3.8 -2.6
v 10.2 3.8 -2.6
v 10.2 3.8 -2.5
v 10.3 3.8 -2.5
v 10.3 3.8 -2.6
v 10.2 3.8 -2.5
v 10.2 3.7 -2.5
v 10.3 3.7 -2.5
v 10.3 3.8 -2.5
v 10.3 3.8 -2.6
v 10.3 3.7 -2.6
v 10.2 3.7 -2.6
v 10.2 3.8 -2.6
v 11.3 3.8 -2.6
v 11.3 3.7 -2.6
v 11.3 3.7 -2.5
v 11.3 3.8 -2.5
v 11.3 3.7 -2.5
v 11.3 3.7 -2.6
v 11.4 3.7 -2.6
v 11.4 3.7 -2.5
v 11.3 3.8 -2.5
v 11.3 3.7 -2.5
v 11.4 3.7 -2.5
v 11.4 3.8 -2.5
v 11.4 3.8 -2.6
v 11.4 3.7 -2.6
v 11.3 3.7 -2.6
v 11.3 3.8 -2.6
v 11.4 3.7 -2.5
v 11.4 3.7 -2.6
v 11.5 3.7 -2.6
v 11.5 3.7 -2.5
v 11.4 3.8 -2.5
v 11.4 3.7 -2.5
v 11.5 3.7 -2.5
v 11.5 3.8 -2.5
v 11.5 3.8 -2.6
v 11.5 3.7 -2.6
v 11.4 3.7 -2.6
v 11.4 3.8 -2.6
v 11.5 3.8 -2.5
v 11.5 3.7 -2.5
v 11.6 3.7 -2.5
v 11.6 3.8 -2.5
v 11.6 3.8 -2.6
v 11.6 3.7 -2.6
v 11.5 3.7 -2.6
v 11.5 3.8 -2.6
v 11.6 3.8 -2.5
v 11.6 3.7 -2.5
v 11.7 3.7 -2.5
v 11.7 3.8 -2.5
v 11.7 3.8 -2.6
v 11.7 3.7 -2.6
v 11.6 3.7 -2.6
v 11.6 3.8 -2.6
v 11.8 3.8 -2.5
v 11.8 3.7 -2.5
v 11.8 3.7 -2.6
v 11.8 3.8 -2.6
v 11.7 3.8 -2.6
v 11.7 3.8 -2.5
v 11.8 3.8 -2.5
v 11.8 3.8 -2.6
v 11.7 3.8 -2.5
v 11.7 3.7 -2.5
v 11.8 3.7 -2.5
v 11.8 3.8 -2.5
v 11.8 3.8 -2.6
v 11.8 3.7 -2.6
v 11.7 3.7 -2.6
v 11.7 3.8 -2.6
v 10 3.7 -2.6
v 10 3.6 -2.6
v 10 3.6 -2.5
v 10 3.7 -2.5
v 10 3.6 -2.5
v 10 3.6 -2.6
v 10.1 3.6 -2.6
v 10.1 3.6 -2.5
v 10 3.7 -2.5
v 10 3.6 -2.5
v 10.1 3.6 -2.5
v 10.1 3.7 -2.5
v 10.1 3.7 -2.6
v 10.1 3.6 -2.6
v 10 3.6 -2.6
v 10 3.7 -2.6
v 10.1 3.7 -2.5
v 10.1 3.6 -2.5
v 10.2 3.6 -2.5
v 10.2 3.7 -2.5
v 10.2 3.7 -2.6
v 10.2 3.6 -2.6
v 10.1 3.6 -2.6
v 10.1 3.7 -2.6
v 10.2 3.7 -2.5
v 10.2 3.6 -2.5
v 10.3 3.6 -2.5
v 10.3 3.7 -2.5
v 10.3 3.7 -2.6
v 10.3 3.6 -2.6
v 10.2 3.6 -2.6
v 10.2 3.7 -2.6
v 10.4 3.7 -2.5
v 10.4 3.6 -2.5
v 10.4 3.6 -2.6
v 10.4 3.7 -2.6
v 10.3 3.7 -2.6
v 10.3 3.7 -2.5
v 10.4 3.7 -2.5
v 10.4 3.7 -2.6
v 10.3 3.7 -2.5
v 10.3 3.6 -2.5
v 10.4 3.6 -2.5
v 10.4 3.7 -2.5
v 10.4 3.7 -2.6
v 10.4 3.6 -2.6
v 10.3 3.6 -2.6
v 10.3 3.7 -2.6
v 11.5 3.7 -2.6
v 11.5 3.6 -2.6
v 11.5 3.6 -2.5
v 11.5 3.7 -2.5
v 11.5 3.6 -2.5
v 11.5 3.6 -2.6
v 11.6 3.6 -2.6
v 11.6 3.6 -2.5
v 11.5 3.7 -2.5
v 11.5 3.6 -2.5
v 11.6 3.6 -2.5
v 11.6 3.7 -2.5
v 11.6 3.7 -2.6
v 11.6 3.6 -2.6
v 11.5 3.6 -2.6
v 11.5 3.7 -2.6
v 11.6 3.7 -2.5
v 11.6 3.6 -2.5
v 11.7 3.6 -2.5
v 11.7 3.7 -2.5
v 11.7 3.7 -2.6
v 11.7 3.6 -2.6
v 11.6 3.6 -2.6
v 11.6 3.7 -2.6
v 11.7 3.7 -2.5
v 11.7 3.6 -2.5
v 11.8 3.6 -2.5
v 11.8 3.7 -2.5
v 11.8 3.7 -2.6
v 11.8 3.6 -2.6
v 11.7 3.6 -2.6
v 11.7 3.7 -2.6
v 11.9 3.7 -2.5
v 11.9 3.6 -2.5
v 11.9 3.6 -2.6
v 11.9 3.7 -2.6
v 11.8 3.7 -2.6
v 11.8 3.7 -2.5
v 11.9 3.7 -2.5
v 11.9 3.7 -2.6
v 11.8 3.7 -2.5
v 11.8 3.6 -2.5
v 11.9 3.6 -2.5
v 11.9 3.7 -2.5
v 11.9 3.7 -2.6
v 11.9 3.6 -2.6
v 11.8 3.6 -2.6
v 11.8 3.7 -2.6
v 10.1 3.6 -2.6
v 10.1 3.5 -2.6
v 10.1 3.5 -2.5
v 10.1 3.6 -2.5
v 10.1 3.5 -2.5
v 10.1 3.5 -2.6
v 10.2 3.5 -2.6
v 10.2 3.5 -2.5
v 10.1 3.6 -2.5
v 10.1 3.5 -2.5
v 10.2 3.5 -2.5
v 10.2 3.6 -2.5
v 10.2 3.6 -2.6
v 10.2 3.5 -2.6
v 10.1 3.5 -2.6
v 10.1 3.6 -2.6
v 10.2 3.6 -2.5
v 10.2 3.5 -2.5
v 10.3 3.5 -2.5
v 10.3 3.6 -2.5
v 10.3 3.6 -2.6
v 10.3 3.5 -2.6
v 10.2 3.5 -2.6
v 10.2 3.6 -2.6
v 10.3 3.6 -2.5
v 10.3 3.5 -2.5
v 10.4 3.5 -2.5
v 10.4 3.6 -2.5
v 10.4 3.6 -2.6
v 10.4 3.5 -2.6
v 10.3 3.5 -2.6
v 10.3 3.6 -2.6
v 10.5 3.6 -2.5
v 10.5 3.5 -2.5
v 10.5 3.5 -2.6
v 10.5 3.6 -2.6
v 10.4 3.6 -2.6
v 10.4 3.6 -2.5
v 10.5 3.6 -2.5
v 10.5 3.6 -2.6
v 10.4 3.6 -2.5
v 10.4 3.5 -2.5
v 10.5 3.5 -2.5
v 10.5 3.6 -2.5
v 10.5 3.6 -2.6
v 10.5 3.5 -2.6
v 10.4 3.5 -2.6
v 10.4 3.6 -2.6
v 11.6 3.6 -2.6
v 11.6 3.5 -2.6
v 11.6 3.5 -2.5
v 11.6 3.6 -2.5
v 11.6 3.5 -2.5
v 11.6 3.5 -2.6
v 11.7 3.5 -2.6
v 11.7 3.5 -2.5
v 11.6 3.6 -2.5
v 11.6 3.5 -2.5
v 11.7 3.5 -2.5
v 11.7 3.6 -2.5
v 11.7 3.6 -2.6
v 11.7 3.5 -2.6
v 11.6 3.5 -2.6
v 11.6 3.6 -2.6
v 11.7 3.6 -2.5
v 11.7 3.5 -2.5
v 11.8 3.5 -2.5
v 11.8 3.6 -2.5
v 11.8 3.6 -2.6
v 11.8 3.5 -2.6
v 11.7 3.5 -2.6
v 11.7 3.6 -2.6
v 11.8 3.6 -2.5
v 11.8 3.5 -2.5
v 11.9 3.5 -2.5
v 11.9 3.6 -2.5
v 11.9 3.6 -2.6
v 11.9 3.5 -2.6
v 11.8 3.5 -2.6
v 11.8 3.6 -2.6
v 11.9 3.6 -2.6
v 11.9 3.6 -2.5
v 12 3.6 -2.5
v 12 3.6 -2.6
v 11.9 3.6 -2.5
v 11.9 3.5 -2.5
v 12 3.5 -2.5
v 12 3.6 -2.5
v 12 3.6 -2.6
v 12 3.5 -2.6
v 11.9 3.5 -2.6
v 11.9 3.6 -2.6
v 12.1 3.6 -2.5
v 12.1 3.5 -2.5
v 12.1 3.5 -2.6
v 12.1 3.6 -2.6
v 12 3.6 -2.6
v 12 3.6 -2.5
v 12.1 3.6 -2.5
v 12.1 3.6 -2.6
v 12 3.6 -2.5
v 12 3.5 -2.5
v 12.1 3.5 -2.5
v 12.1 3.6 -2.5
v 12.1 3.6 -2.6
v 12.1 3.5 -2.6
v 12 3.5 -2.6
v 12 3.6 -2.6
v 10.2 3.5 -2.6
v 10.2 3.4 -2.6
v 10.2 3.4 -2.5
v 10.2 3.5 -2.5
v 10.2 3.4 -2.5
v 10.2 3.4 -2.6
v 10.3 3.4 -2.6
v 10.3 3.4 -2.5
v 10.2 3.5 -2.5
v 10.2 3.4 -2.5
v 10.3 3.4 -2.5
v 10.3 3.5 -2.5
v 10.3 3.5 -2.6
v 10.3 3.4 -2.6
v 10.2 3.4 -2.6
v 10.2 3.5 -2.6
v 10.3 3.5 -2.5
v 10.3 3.4 -2.5
v 10.4 3.4 -2.5
v 10.4 3.5 -2.5
v 10.4 3.5 -2.6
v 10.4 3.4 -2.6
v 10.3 3.4 -2.6
v 10.3 3.5 -2.6
v 10.4 3.5 -2.5
v 10.4 3.4 -2.5
v 10.5 3.4 -2.5
v 10.5 3.5 -2.5
v 10.5 3.5 -2.6
v 10.5 3.4 -2.6
v 10.4 3.4 -2.6
v 10.4 3.5 -2.6
v 10.5 3.5 -2.6
v 10.5 3.5 -2.5
v 10.6 3.5 -2.5
v 10.6 3.5 -2.6
v 10.5 3.5 -2.5
v 10.5 3.4 -2.5
v 10.6 3.4 -2.5
v 10.6 3.5 -2.5
v 10.6 3.5 -2.6
v 10.6 3.4 -2.6
v 10.5 3.4 -2.6
v 10.5 3.5 -2.6
v 10.7 3.5 -2.5
v 10.7 3.4 -2.5
v 10.7 3.4 -2.6
v 10.7 3.5 -2.6
v 10.6 3.5 -2.6
v 10.6 3.5 -2.5
v 10.7 3.5 -2.5
v 10.7 3.5 -2.6
v 10.6 3.5 -2.5
v 10.6 3.4 -2.5
v 10.7 3.4 -2.5
v 10.7 3.5 -2.5
v 10.7 3.5 -2.6
v 10.7 3.4 -2.6
v 10.6 3.4 -2.6
v 10.6 3.5 -2.6
v 11.7 3.5 -2.6
v 11.7 3.4 -2.6
v 11.7 3.4 -2.5
v 11.7 3.5 -2.5
v 11.7 3.4 -2.5
v 11.7 3.4 -2.6
v 11.8 3.4 -2.6
v 11.8 3.4 -2.5
v 11.7 3.5 -2.5
v 11.7 3.4 -2.5
v 11.8 3.4 -2.5
v 11.8 3.5 -2.5
v 11.8 3.5 -2.6
v 11.8 3.4 -2.6
v 11.7 3.4 -2.6
v 11.7 3.5 -2.6
v 11.8 3.4 -2.5
v 11.8 3.4 -2.6
v 11.9 3.4 -2.6
v 11.9 3.4 -2.5
v 11.8 3.5 -2.5
v 11.8 3.4 -2.5
v 11.9 3.4 -2.5
v 11.9 3.5 -2.5
v 11.9 3.5 -2.6
v 11.9 3.4 -2.6
v 11.8 3.4 -2.6
v 11.8 3.5 -2.6
v 11.9 3.5 -2.5
v 11.9 3.4 -2.5
v 12 3.4 -2.5
v 12 3.5 -2.5
v 12 3.5 -2.6
v 12 3.4 -2.6
v 11.9 3.4 -2.6
v 11.9 3.5 -2.6
v 12 3.5 -2.5
v 12 3.4 -2.5
v 12.1 3.4 -2.5
v 12.1 3.5 -2.5
v 12.1 3.5 -2.6
v 12.1 3.4 -2.6
v 12 3.4 -2.6
v 12 3.5 -2.6
v 12.2 3.5 -2.5
v 12.2 3.4 -2.5
v 12.2 3.4 -2.6
v 12.2 3.5 -2.6
v 12.1 3.5 -2.6
v 12.1 3.5 -2.5
v 12.2 3.5 -2.5
v 12.2 3.5 -2.6
v 12.1 3.5 -2.5
v 12.1 3.4 -2.5
v 12.2 3.4 -2.5
v 12.2 3.5 -2.5
v 12.2 3.5 -2.6
v 12.2 3.4 -2.6
v 12.1 3.4 -2.6
v 12.1 3.5 -2.6
v 10.3 3.4 -2.6
v 10.3 3.3 -2.6
v 10.3 3.3 -2.5
v 10.3 3.4 -2.5
v 10.3 3.3 -2.5
v 10.3 3.3 -2.6
v 10.4 3.3 -2.6
v 10.4 3.3 -2.5
v 10.3 3.4 -2.5
v 10.3 3.3 -2.5
v 10.4 3.3 -2.5
v 10.4 3.4 -2.5
v 10.4 3.4 -2.6
v 10.4 3.3 -2.6
v 10.3 3.3 -2.6
v 10.3 3.4 -2.6
v 10.4 3.4 -2.5
v 10.4 3.3 -2.5
v 10.5 3.3 -2.5
v 10.5 3.4 -2.5
v 10.5 3.4 -2.6
v 10.5 3.3 -2.6
v 10.4 3.3 -2.6
v 10.4 3.4 -2.6
v 10.5 3.4 -2.5
v 10.5 3.3 -2.5
v 10.6 3.3 -2.5
v 10.6 3.4 -2.5
v 10.6 3.4 -2.6
v 10.6 3.3 -2.6
v 10.5 3.3 -2.6
v 10.5 3.4 -2.6
v 10.6 3.4 -2.5
v 10.6 3.3 -2.5
v 10.7 3.3 -2.5
v 10.7 3.4 -2.5
v 10.7 3.4 -2.6
v 10.7 3.3 -2.6
v 10.6 3.3 -2.6
v 10.6 3.4 -2.6
v 10.8 3.4 -2.5
v 10.8 3.3 -2.5
v 10.8 3.3 -2.6
v 10.8 3.4 -2.6
v 10.7 3.4 -2.6
v 10.7 3.4 -2.5
v 10.8 3.4 -2.5
v 10.8 3.4 -2.6
v 10.7 3.4 -2.5
v 10.7 3.3 -2.5
v 10.8 3.3 -2.5
v 10.8 3.4 -2.5
v 10.8 3.4 -2.6
v 10.8 3.3 -2.6
v 10.7 3.3 -2.6
v 10.7 3.4 -2.6
v 11.9 3.4 -2.6
v 11.9 3.3 -2.6
v 11.9 3.3 -2.5
v 11.9 3.4 -2.5
v 11.9 3.3 -2.5
v 11.9 3.3 -2.6
v 12 3.3 -2.6
v 12 3.3 -2.5
v 11.9 3.4 -2.5
v 11.9 3.3 -2.5
v 12 3.3 -2.5
v 12 3.4 -2.5
v 12 3.4 -2.6
v 12 3.3 -2.6
v 11.9 3.3 -2.6
v 11.9 3.4 -2.6
v 12 3.4 -2.5
v 12 3.3 -2.5
v 12.1 3.3 -2.5
v 12.1 3.4 -2.5
v 12.1 3.4 -2.6
v 12.1 3.3 -2.6
v 12 3.3 -2.6
v 12 3.4 -2.6
v 12.1 3.4 -2.5
v 12.1 3.3 -2.5
v 12.2 3.3 -2.5
v 12.2 3.4 -2.5
v 12.2 3.4 -2.6
v 12.2 3.3 -2.6
v 12.1 3.3 -2.6
v 12.1 3.4 -2.6
v 12.3 3.4 -2.5
v 12.3 3.3 -2.5
v 12.3 3.3 -2.6
v 12.3 3.4 -2.6
v 12.2 3.4 -2.6
v 12.2 3.4 -2.5
v 12.3 3.4 -2.5
v 12.3 3.4 -2.6
v 12.2 3.4 -2.5
v 12.2 3.3 -2.5
v 12.3 3.3 -2.5
v 12.3 3.4 -2.5
v 12.3 3.4 -2.6
v 12.3 3.3 -2.6
v 12.2 3.3 -2.6
v 12.2 3.4 -2.6
v 10.4 3.3 -2.6
v 10.4 3.2 -2.6
v 10.4 3.2 -2.5
v 10.4 3.3 -2.5
v 10.4 3.2 -2.5
v 10.4 3.2 -2.6
v 10.5 3.2 -2.6
v 10.5 3.2 -2.5
v 10.4 3.3 -2.5
v 10.4 3.2 -2.5
v 10.5 3.2 -2.5
v 10.5 3.3 -2.5
v 10.5 3.3 -2.6
v 10.5 3.2 -2.6
v 10.4 3.2 -2.6
v 10.4 3.3 -2.6
v 10.5 3.2 -2.5
v 10.5 3.2 -2.6
v 10.6 3.2 -2.6
v 10.6 3.2 -2.5
v 10.5 3.3 -2.5
v 10.5 3.2 -2.5
v 10.6 3.2 -2.5
v 10.6 3.3 -2.5
v 10.6 3.3 -2.6
v 10.6 3.2 -2.6
v 10.5 3.2 -2.6
v 10.5 3.3 -2.6
v 10.6 3.3 -2.5
v 10.6 3.2 -2.5
v 10.7 3.2 -2.5
v 10.7 3.3 -2.5
v 10.7 3.3 -2.6
v 10.7 3.2 -2.6
v 10.6 3.2 -2.6
v 10.6 3.3 -2.6
v 10.7 3.3 -2.5
v 10.7 3.2 -2.5
v 10.8 3.2 -2.5
v 10.8 3.3 -2.5
v 10.8 3.3 -2.6
v 10.8 3.2 -2.6
v 10.7 3.2 -2.6
v 10.7 3.3 -2.6
v 10.9 3.3 -2.5
v 10.9 3.2 -2.5
v 10.9 3.2 -2.6
v 10.9 3.3 -2.6
v 10.8 3.3 -2.6
v 10.8 3.3 -2.5
v 10.9 3.3 -2.5
v 10.9 3.3 -2.6
v 10.8 3.3 -2.5
v 10.8 3.2 -2.5
v 10.9 3.2 -2.5
v 10.9 3.3 -2.5
v 10.9 3.3 -2.6
v 10.9 3.2 -2.6
v 10.8 3.2 -2.6
v 10.8 3.3 -2.6
v 12 3.3 -2.6
v 12 3.2 -2.6
v 12 3.2 -2.5
v 12 3.3 -2.5
v 12 3.2 -2.5
v 12 3.2 -2.6
v 12.1 3.2 -2.6
v 12.1 3.2 -2.5
v 12 3.3 -2.5
v 12 3.2 -2.5
v 12.1 3.2 -2.5
v 12.1 3.3 -2.5
v 12.1 3.3 -2.6
v 12.1 3.2 -2.6
v 12 3.2 -2.6
v 12 3.3 -2.6
v 12.1 3.2 -2.5
v 12.1 3.2 -2.6
v 12.2 3.2 -2.6
v 12.2 3.2 -2.5
v 12.1 3.3 -2.5
v 12.1 3.2 -2.5
v 12.2 3.2 -2.5
v 12.2 3.3 -2.5
v 12.2 3.3 -2.6
v 12.2 3.2 -2.6
v 12.1 3.2 -2.6
v 12.1 3.3 -2.6
v 12.2 3.3 -2.5
v 12.2 3.2 -2.5
v 12.3 3.2 -2.5
v 12.3 3.3 -2.5
v 12.3 3.3 -2.6
v 12.3 3.2 -2.6
v 12.2 3.2 -2.6
v 12.2 3.3 -2.6
v 12.4 3.3 -2.5
v 12.4 3.2 -2.5
v 12.4 3.2 -2.6
v 12.4 3.3 -2.6
v 12.3 3.3 -2.6
v 12.3 3.3 -2.5
v 12.4 3.3 -2.5
v 12.4 3.3 -2.6
v 12.3 3.3 -2.5
v 12.3 3.2 -2.5
v 12.4 3.2 -2.5
v 12.4 3.3 -2.5
v 12.4 3.3 -2.6
v 12.4 3.2 -2.6
v 12.3 3.2 -2.6
v 12.3 3.3 -2.6
v 10.6 3.2 -2.6
v 10.6 3.1 -2.6
v 10.6 3.1 -2.5
v 10.6 3.2 -2.5
v 10.6 3.1 -2.5
v 10.6 3.1 -2.6
v 10.7 3.1 -2.6
v 10.7 3.1 -2.5
v 10.6 3.2 -2.5
v 10.6 3.1 -2.5
v 10.7 3.1 -2.5
v 10.7 3.2 -2.5
v 10.7 3.2 -2.6
v 10.7 3.1 -2.6
v 10.6 3.1 -2.6
v 10.6 3.2 -2.6
v 10.7 3.2 -2.5
v 10.7 3.1 -2.5
v 10.8 3.1 -2.5
v 10.8 3.2 -2.5
v 10.8 3.2 -2.6
v 10.8 3.1 -2.6
v 10.7 3.1 -2.6
v 10.7 3.2 -2.6
v 10.8 3.2 -2.5
v 10.8 3.1 -2.5
v 10.9 3.1 -2.5
v 10.9 3.2 -2.5
v 10.9 3.2 -2.6
v 10.9 3.1 -2.6
v 10.8 3.1 -2.6
v 10.8 3.2 -2.6
v 10.9 3.2 -2.6
v 10.9 3.2 -2.5
v 11 3.2 -2.5
v 11 3.2 -2.6
v 10.9 3.2 -2.5
v 10.9 3.1 -2.5
v 11 3.1 -2.5
v 11 3.2 -2.5
v 11 3.2 -2.6
v 11 3.1 -2.6
v 10.9 3.1 -2.6
v 10.9 3.2 -2.6
v 11.1 3.2 -2.5
v 11.1 3.1 -2.5
v 11.1 3.1 -2.6
v 11.1 3.2 -2.6
v 11 3.2 -2.6
v 11 3.2 -2.5
v 11.1 3.2 -2.5
v 11.1 3.2 -2.6
v 11 3.2 -2.5
v 11 3.1 -2.5
v 11.1 3.1 -2.5
v 11.1 3.2 -2.5
v 11.1 3.2 -2.6
v 11.1 3.1 -2.6
v 11 3.1 -2.6
v 11 3.2 -2.6
v 12.2 3.2 -2.6
v 12.2 3.1 -2.6
v 12.2 3.1 -2.5
v 12.2 3.2 -2.5
v 12.2 3.1 -2.5
v 12.2 3.1 -2.6
v 12.3 3.1 -2.6
v 12.3 3.1 -2.5
v 12.2 3.2 -2.5
v 12.2 3.1 -2.5
v 12.3 3.1 -2.5
v 12.3 3.2 -2.5
v 12.3 3.2 -2.6
v 12.3 3.1 -2.6
v 12.2 3.1 -2.6
v 12.2 3.2 -2.6
v 12.3 3.2 -2.5
v 12.3 3.1 -2.5
v 12.4 3.1 -2.5
v 12.4 3.2 -2.5
v 12.4 3.2 -2.6
v 12.4 3.1 -2.6
v 12.3 3.1 -2.6
v 12.3 3.2 -2.6
v 12.4 3.2 -2.6
v 12.4 3.2 -2.5
v 12.5 3.2 -2.5
v 12.5 3.2 -2.6
v 12.4 3.2 -2.5
v 12.4 3.1 -2.5
v 12.5 3.1 -2.5
v 12.5 3.2 -2.5
v 12.5 3.2 -2.6
v 12.5 3.1 -2.6
v 12.4 3.1 -2.6
v 12.4 3.2 -2.6
v 12.6 3.2 -2.5
v 12.6 3.1 -2.5
v 12.6 3.1 -2.6
v 12.6 3.2 -2.6
v 12.5 3.2 -2.6
v 12.5 3.2 -2.5
v 12.6 3.2 -2.5
v 12.6 3.2 -2.6
v 12.5 3.2 -2.5
v 12.5 3.1 -2.5
v 12.6 3.1 -2.5
v 12.6 3.2 -2.5
v 12.6 3.2 -2.6
v 12.6 3.1 -2.6
v 12.5 3.1 -2.6
v 12.5 3.2 -2.6
v 10.7 3.1 -2.6
v 10.7 3 -2.6
v 10.7 3 -2.5
v 10.7 3.1 -2.5
v 10.7 3 -2.5
v 10.7 3 -2.6
v 10.8 3 -2.6
v 10.8 3 -2.5
v 10.7 3.1 -2.5
v 10.7 3 -2.5
v 10.8 3 -2.5
v 10.8 3.1 -2.5
v 10.8 3.1 -2.6
v 10.8 3 -2.6
v 10.7 3 -2.6
v 10.7 3.1 -2.6
v 10.8 3.1 -2.5
v 10.8 3 -2.5
v 10.9 3 -2.5
v 10.9 3.1 -2.5
v 10.9 3.1 -2.6
v 10.9 3 -2.6
v 10.8 3 -2.6
v 10.8 3.1 -2.6
v 10.9 3.1 -2.5
v 10.9 3 -2.5
v 11 3 -2.5
v 11 3.1 -2.5
v 11 3.1 -2.6
v 11 3 -2.6
v 10.9 3 -2.6
v 10.9 3.1 -2.6
v 11 3.1 -2.5
v 11 3 -2.5
v 11.1 3 -2.5
v 11.1 3.1 -2.5
v 11.1 3.1 -2.6
v 11.1 3 -2.6
v 11 3 -2.6
v 11 3.1 -2.6
v 11.2 3.1 -2.5
v 11.2 3 -2.5
v 11.2 3 -2.6
v 11.2 3.1 -2.6
v 11.1 3.1 -2.6
v 11.1 3.1 -2.5
v 11.2 3.1 -2.5
v 11.2 3.1 -2.6
v 11.1 3.1 -2.5
v 11.1 3 -2.5
v 11.2 3 -2.5
v 11.2 3.1 -2.5
v 11.2 3.1 -2.6
v 11.2 3 -2.6
v 11.1 3 -2.6
v 11.1 3.1 -2.6
v 12.3 3.1 -2.6
v 12.3 3 -2.6
v 12.3 3 -2.5
v 12.3 3.1 -2.5
v 12.3 3 -2.5
v 12.3 3 -2.6
v 12.4 3 -2.6
v 12.4 3 -2.5
v 12.3 3.1 -2.5
v 12.3 3 -2.5
v 12.4 3 -2.5
v 12.4 3.1 -2.5
v 12.4 3.1 -2.6
v 12.4 3 -2.6
v 12.3 3 -2.6
v 12.3 3.1 -2.6
v 12.4 3 -2.5
v 12.4 3 -2.6
v 12.5 3 -2.6
v 12.5 3 -2.5
v 12.4 3.1 -2.5
v 12.4 3 -2.5
v 12.5 3 -2.5
v 12.5 3.1 -2.5
v 12.5 3.1 -2.6
v 12.5 3 -2.6
v 12.4 3 -2.6
v 12.4 3.1 -2.6
v 12.5 3.1 -2.5
v 12.5 3 -2.5
v 12.6 3 -2.5
v 12.6 3.1 -2.5
v 12.6 3.1 -2.6
v 12.6 3 -2.6
v 12.5 3 -2.6
v 12.5 3.1 -2.6
v 12.7 3.1 -2.5
v 12.7 3 -2.5
v 12.7 3 -2.6
v 12.7 3.1 -2.6
v 12.6 3.1 -2.6
v 12.6 3.1 -2.5
v 12.7 3.1 -2.5
v 12.7 3.1 -2.6
v 12.6 3.1 -2.5
v 12.6 3 -2.5
v 12.7 3 -2.5
v 12.7 3.1 -2.5
v 12.7 3.1 -2.6
v 12.7 3 -2.6
v 12.6 3 -2.6
v 12.6 3.1 -2.6
v 10.8 3 -2.6
v 10.8 2.9 -2.6
v 10.8 2.9 -2.5
v 10.8 3 -2.5
v 10.8 2.9 -2.5
v 10.8 2.9 -2.6
v 10.9 2.9 -2.6
v 10.9 2.9 -2.5
v 10.8 3 -2.5
v 10.8 2.9 -2.5
v 10.9 2.9 -2.5
v 10.9 3 -2.5
v 10.9 3 -2.6
v 10.9 2.9 -2.6
v 10.8 2.9 -2.6
v 10.8 3 -2.6
v 10.9 3 -2.5
v 10.9 2.9 -2.5
v 11 2.9 -2.5
v 11 3 -2.5
v 11 3 -2.6
v 11 2.9 -2.6
v 10.9 2.9 -2.6
v 10.9 3 -2.6
v 11 3 -2.5
v 11 2.9 -2.5
v 11.1 2.9 -2.5
v 11.1 3 -2.5
v 11.1 3 -2.6
v 11.1 2.9 -2.6
v 11 2.9 -2.6
v 11 3 -2.6
v 11.1 3 -2.5
v 11.1 2.9 -2.5
v 11.2 2.9 -2.5
v 11.2 3 -2.5
v 11.2 3 -2.6
v 11.2 2.9 -2.6
v 11.1 2.9 -2.6
v 11.1 3 -2.6
v 11.3 3 -2.5
v 11.3 2.9 -2.5
v 11.3 2.9 -2.6
v 11.3 3 -2.6
v 11.2 3 -2.6
v 11.2 3 -2.5
v 11.3 3 -2.5
v 11.3 3 -2.6
v 11.2 3 -2.5
v 11.2 2.9 -2.5
v 11.3 2.9 -2.5
v 11.3 3 -2.5
v 11.3 3 -2.6
v 11.3 2.9 -2.6
v 11.2 2.9 -2.6
v 11.2 3 -2.6
v 12.5 3 -2.6
v 12.5 2.9 -2.6
v 12.5 2.9 -2.5
v 12.5 3 -2.5
v 12.5 2.9 -2.5
v 12.5 2.9 -2.6
v 12.6 2.9 -2.6
v 12.6 2.9 -2.5
v 12.5 3 -2.5
v 12.5 2.9 -2.5
v 12.6 2.9 -2.5
v 12.6 3 -2.5
v 12.6 3 -2.6
v 12.6 2.9 -2.6
v 12.5 2.9 -2.6
v 12.5 3 -2.6
v 12.6 3 -2.5
v 12.6 2.9 -2.5
v 12.7 2.9 -2.5
v 12.7 3 -2.5
v 12.7 3 -2.6
v 12.7 2.9 -2.6
v 12.6 2.9 -2.6
v 12.6 3 -2.6
v 12.8 3 -2.5
v 12.8 2.9 -2.5
v 12.8 2.9 -2.6
v 12.8 3 -2.6
v 12.7 3 -2.6
v 12.7 3 -2.5
v 12.8 3 -2.5
v 12.8 3 -2.6
v 12.7 3 -2.5
v 12.7 2.9 -2.5
v 12.8 2.9 -2.5
v 12.8 3 -2.5
v 12.8 3 -2.6
v 12.8 2.9 -2.6
v 12.7 2.9 -2.6
v 12.7 3 -2.6
v 10.9 2.9 -2.6
v 10.9 2.8 -2.6
v 10.9 2.8 -2.5
v 10.9 2.9 -2.5
v 10.9 2.8 -2.5
v 10.9 2.8 -2.6
v 11 2.8 -2.6
v 11 2.8 -2.5
v 10.9 2.9 -2.5
v 10.9 2.8 -2.5
v 11 2.8 -2.5
v 11 2.9 -2.5
v 11 2.9 -2.6
v 11 2.8 -2.6
v 10.9 2.8 -2.6
v 10.9 2.9 -2.6
v 11 2.8 -2.5
v 11 2.8 -2.6
v 11.1 2.8 -2.6
v 11.1 2.8 -2.5
v 11 2.9 -2.5
v 11 2.8 -2.5
v 11.1 2.8 -2.5
v 11.1 2.9 -2.5
v 11.1 2.9 -2.6
v 11.1 2.8 -2.6
v 11 2.8 -2.6
v 11 2.9 -2.6
v 11.1 2.9 -2.5
v 11.1 2.8 -2.5
v 11.2 2.8 -2.5
v 11.2 2.9 -2.5
v 11.2 2.9 -2.6
v 11.2 2.8 -2.6
v 11.1 2.8 -2.6
v 11.1 2.9 -2.6
v 11.2 2.9 -2.5
v 11.2 2.8 -2.5
v 11.3 2.8 -2.5
v 11.3 2.9 -2.5
v 11.3 2.9 -2.6
v 11.3 2.8 -2.6
v 11.2 2.8 -2.6
v 11.2 2.9 -2.6
v 11.4 2.9 -2.5
v 11.4 2.8 -2.5
v 11.4 2.8 -2.6
v 11.4 2.9 -2.6
v 11.3 2.9 -2.6
v 11.3 2.9 -2.5
v 11.4 2.9 -2.5
v 11.4 2.9 -2.6
v 11.3 2.9 -2.5
v 11.3 2.8 -2.5
v 11.4 2.8 -2.5
v 11.4 2.9 -2.5
v 11.4 2.9 -2.6
v 11.4 2.8 -2.6
v 11.3 2.8 -2.6
v 11.3 2.9 -2.6
v 12.6 2.9 -2.6
v 12.6 2.8 -2.6
v 12.6 2.8 -2.5
v 12.6 2.9 -2.5
v 12.6 2.8 -2.5
v 12.6 2.8 -2.6
v 12.7 2.8 -2.6
v 12.7 2.8 -2.5
v 12.6 2.9 -2.5
v 12.6 2.8 -2.5
v 12.7 2.8 -2.5
v 12.7 2.9 -2.5
v 12.7 2.9 -2.6
v 12.7 2.8 -2.6
v 12.6 2.8 -2.6
v 12.6 2.9 -2.6
v 12.7 2.8 -2.5
v 12.7 2.8 -2.6
v 12.8 2.8 -2.6
v 12.8 2.8 -2.5
v 12.7 2.9 -2.5
v 12.7 2.8 -2.5
v 12.8 2.8 -2.5
v 12.8 2.9 -2.5
v 12.8 2.9 -2.6
v 12.8 2.8 -2.6
v 12.7 2.8 -2.6
v 12.7 2.9 -2.6
v 12.9 2.9 -2.5
v 12.9 2.8 -2.5
v 12.9 2.8 -2.6
v 12.9 2.9 -2.6
v 12.8 2.9 -2.6
v 12.8 2.9 -2.5
v 12.9 2.9 -2.5
v 12.9 2.9 -2.6
v 12.8 2.9 -2.5
v 12.8 2.8 -2.5
v 12.9 2.8 -2.5
v 12.9 2.9 -2.5
v 12.9 2.9 -2.6
v 12.9 2.8 -2.6
v 12.8 2.8 -2.6
v 12.8 2.9 -2.6
v 11.1 2.8 -2.6
v 11.1 2.7 -2.6
v 11.1 2.7 -2.5
v 11.1 2.8 -2.5
v 11.1 2.7 -2.5
v 11.1 2.7 -2.6
v 11.2 2.7 -2.6
v 11.2 2.7 -2.5
v 11.1 2.8 -2.5
v 11.1 2.7 -2.5
v 11.2 2.7 -2.5
v 11.2 2.8 -2.5
v 11.2 2.8 -2.6
v 11.2 2.7 -2.6
v 11.1 2.7 -2.6
v 11.1 2.8 -2.6
v 11.2 2.8 -2.5
v 11.2 2.7 -2.5
v 11.3 2.7 -2.5
v 11.3 2.8 -2.5
v 11.3 2.8 -2.6
v 11.3 2.7 -2.6
v 11.2 2.7 -2.6
v 11.2 2.8 -2.6
v 11.3 2.8 -2.5
v 11.3 2.7 -2.5
v 11.4 2.7 -2.5
v 11.4 2.8 -2.5
v 11.4 2.8 -2.6
v 11.4 2.7 -2.6
v 11.3 2.7 -2.6
v 11.3 2.8 -2.6
v 11.4 2.8 -2.6
v 11.4 2.8 -2.5
v 11.5 2.8 -2.5
v 11.5 2.8 -2.6
v 11.4 2.8 -2.5
v 11.4 2.7 -2.5
v 11.5 2.7 -2.5
v 11.5 2.8 -2.5
v 11.5 2.8 -2.6
v 11.5 2.7 -2.6
v 11.4 2.7 -2.6
v 11.4 2.8 -2.6
v 11.6 2.8 -2.5
v 11.6 2.7 -2.5
v 11.6 2.7 -2.6
v 11.6 2.8 -2.6
v 11.5 2.8 -2.6
v 11.5 2.8 -2.5
v 11.6 2.8 -2.5
v 11.6 2.8 -2.6
v 11.5 2.8 -2.5
v 11.5 2.7 -2.5
v 11.6 2.7 -2.5
v 11.6 2.8 -2.5
v 11.6 2.8 -2.6
v 11.6 2.7 -2.6
v 11.5 2.7 -2.6
v 11.5 2.8 -2.6
v 12.8 2.8 -2.6
v 12.8 2.7 -2.6
v 12.8 2.7 -2.5
v 12.8 2.8 -2.5
v 12.8 2.7 -2.5
v 12.8 2.7 -2.6
v 12.9 2.7 -2.6
v 12.9 2.7 -2.5
v 12.8 2.8 -2.5
v 12.8 2.7 -2.5
v 12.9 2.7 -2.5
v 12.9 2.8 -2.5
v 12.9 2.8 -2.6
v 12.9 2.7 -2.6
v 12.8 2.7 -2.6
v 12.8 2.8 -2.6
v 13 2.8 -2.5
v 13 2.7 -2.5
v 13 2.7 -2.6
v 13 2.8 -2.6
v 12.9 2.8 -2.6
v 12.9 2.8 -2.5
v 13 2.8 -2.5
v 13 2.8 -2.6
v 12.9 2.7 -2.5
v 12.9 2.7 -2.6
v 13 2.7 -2.6
v 13 2.7 -2.5
v 12.9 2.8 -2.5
v 12.9 2.7 -2.5
v 13 2.7 -2.5
v 13 2.8 -2.5
v 13 2.8 -2.6
v 13 2.7 -2.6
v 12.9 2.7 -2.6
v 12.9 2.8 -2.6
v 9.9 2.7 -2.6
v 9.9 2.6 -2.6
v 9.9 2.6 -2.5
v 9.9 2.7 -2.5
v 9.9 2.7 -2.6
v 9.9 2.7 -2.5
v 10 2.7 -2.5
v 10 2.7 -2.6
v 9.9 2.7 -2.5
v 9.9 2.6 -2.5
v 10 2.6 -2.5
v 10 2.7 -2.5
v 10 2.7 -2.6
v 10 2.6 -2.6
v 9.9 2.6 -2.6
v 9.9 2.7 -2.6
v 10.1 2.7 -2.5
v 10.1 2.6 -2.5
v 10.1 2.6 -2.6
v 10.1 2.7 -2.6
v 10 2.7 -2.6
v 10 2.7 -2.5
v 10.1 2.7 -2.5
v 10.1 2.7 -2.6
v 10 2.7 -2.5
v 10 2.6 -2.5
v 10.1 2.6 -2.5
v 10.1 2.7 -2.5
v 10.1 2.7 -2.6
v 10.1 2.6 -2.6
v 10 2.6 -2.6
v 10 2.7 -2.6
v 11.2 2.7 -2.6
v 11.2 2.6 -2.6
v 11.2 2.6 -2.5
v 11.2 2.7 -2.5
v 11.2 2.6 -2.5
v 11.2 2.6 -2.6
v 11.3 2.6 -2.6
v 11.3 2.6 -2.5
v 11.2 2.7 -2.5
v 11.2 2.6 -2.5
v 11.3 2.6 -2.5
v 11.3 2.7 -2.5
v 11.3 2.7 -2.6
v 11.3 2.6 -2.6
v 11.2 2.6 -2.6
v 11.2 2.7 -2.6
v 11.3 2.7 -2.5
v 11.3 2.6 -2.5
v 11.4 2.6 -2.5
v 11.4 2.7 -2.5
v 11.4 2.7 -2.6
v 11.4 2.6 -2.6
v 11.3 2.6 -2.6
v 11.3 2.7 -2.6
v 11.4 2.7 -2.5
v 11.4 2.6 -2.5
v 11.5 2.6 -2.5
v 11.5 2.7 -2.5
v 11.5 2.7 -2.6
v 11.5 2.6 -2.6
v 11.4 2.6 -2.6
v 11.4 2.7 -2.6
v 11.5 2.7 -2.5
v 11.5 2.6 -2.5
v 11.6 2.6 -2.5
v 11.6 2.7 -2.5
v 11.6 2.7 -2.6
v 11.6 2.6 -2.6
v 11.5 2.6 -2.6
v 11.5 2.7 -2.6
v 11.7 2.7 -2.5
v 11.7 2.6 -2.5
v 11.7 2.6 -2.6
v 11.7 2.7 -2.6
v 11.6 2.7 -2.6
v 11.6 2.7 -2.5
v 11.7 2.7 -2.5
v 11.7 2.7 -2.6
v 11.6 2.7 -2.5
v 11.6 2.6 -2.5
v 11.7 2.6 -2.5
v 11.7 2.7 -2.5
v 11.7 2.7 -2.6
v 11.7 2.6 -2.6
v 11.6 2.6 -2.6
v 11.6 2.7 -2.6
v 13 2.7 -2.6
v 13 2.6 -2.6
v 13 2.6 -2.5
v 13 2.7 -2.5
v 13.1 2.7 -2.5
v 13.1 2.6 -2.5
v 13.1 2.6 -2.6
v 13.1 2.7 -2.6
v 13 2.7 -2.6
v 13 2.7 -2.5
v 13.1 2.7 -2.5
v 13.1 2.7 -2.6
v 13 2.6 -2.5
v 13 2.6 -2.6
v 13.1 2.6 -2.6
v 13.1 2.6 -2.5
v 13 2.7 -2.5
v 13 2.6 -2.5
v 13.1 2.6 -2.5
v 13.1 2.7 -2.5
v 13.1 2.7 -2.6
v 13.1 2.6 -2.6
v 13 2.6 -2.6
v 13 2.7 -2.6
v 9.9 2.6 -2.6
v 9.9 2.5 -2.6
v 9.9 2.5 -2.5
v 9.9 2.6 -2.5
v 9.9 2.5 -2.5
v 9.9 2.5 -2.6
v 10 2.5 -2.6
v 10 2.5 -2.5
v 9.9 2.6 -2.5
v 9.9 2.5 -2.5
v 10 2.5 -2.5
v 10 2.6 -2.5
v 10 2.6 -2.6
v 10 2.5 -2.6
v 9.9 2.5 -2.6
v 9.9 2.6 -2.6
v 10 2.6 -2.5
v 10 2.5 -2.5
v 10.1 2.5 -2.5
v 10.1 2.6 -2.5
v 10.1 2.6 -2.6
v 10.1 2.5 -2.6
v 10 2.5 -2.6
v 10 2.6 -2.6
v 10.1 2.6 -2.6
v 10.1 2.6 -2.5
v 10.2 2.6 -2.5
v 10.2 2.6 -2.6
v 10.1 2.6 -2.5
v 10.1 2.5 -2.5
v 10.2 2.5 -2.5
v 10.2 2.6 -2.5
v 10.2 2.6 -2.6
v 10.2 2.5 -2.6
v 10.1 2.5 -2.6
v 10.1 2.6 -2.6
v 10.3 2.6 -2.5
v 10.3 2.5 -2.5
v 10.3 2.5 -2.6
v 10.3 2.6 -2.6
v 10.2 2.6 -2.6
v 10.2 2.6 -2.5
v 10.3 2.6 -2.5
v 10.3 2.6 -2.6
v 10.2 2.6 -2.5
v 10.2 2.5 -2.5
v 10.3 2.5 -2.5
v 10.3 2.6 -2.5
v 10.3 2.6 -2.6
v 10.3 2.5 -2.6
v 10.2 2.5 -2.6
v 10.2 2.6 -2.6
v 11.3 2.6 -2.6
v 11.3 2.5 -2.6
v 11.3 2.5 -2.5
v 11.3 2.6 -2.5
v 11.3 2.5 -2.5
v 11.3 2.5 -2.6
v 11.4 2.5 -2.6
v 11.4 2.5 -2.5
v 11.3 2.6 -2.5
v 11.3 2.5 -2.5
v 11.4 2.5 -2.5
v 11.4 2.6 -2.5
v 11.4 2.6 -2.6
v 11.4 2.5 -2.6
v 11.3 2.5 -2.6
v 11.3 2.6 -2.6
v 11.4 2.5 -2.5
v 11.4 2.5 -2.6
v 11.5 2.5 -2.6
v 11.5 2.5 -2.5
v 11.4 2.6 -2.5
v 11.4 2.5 -2.5
v 11.5 2.5 -2.5
v 11.5 2.6 -2.5
v 11.5 2.6 -2.6
v 11.5 2.5 -2.6
v 11.4 2.5 -2.6
v 11.4 2.6 -2.6
v 11.5 2.6 -2.5
v 11.5 2.5 -2.5
v 11.6 2.5 -2.5
v 11.6 2.6 -2.5
v 11.6 2.6 -2.6
v 11.6 2.5 -2.6
v 11.5 2.5 -2.6
v 11.5 2.6 -2.6
v 11.6 2.6 -2.5
v 11.6 2.5 -2.5
v 11.7 2.5 -2.5
v 11.7 2.6 -2.5
v 11.7 2.6 -2.6
v 11.7 2.5 -2.6
v 11.6 2.5 -2.6
v 11.6 2.6 -2.6
v 11.8 2.6 -2.5
v 11.8 2.5 -2.5
v 11.8 2.5 -2.6
v 11.8 2.6 -2.6
v 11.7 2.6 -2.6
v 11.7 2.6 -2.5
v 11.8 2.6 -2.5
v 11.8 2.6 -2.6
v 11.7 2.6 -2.5
v 11.7 2.5 -2.5
v 11.8 2.5 -2.5
v 11.8 2.6 -2.5
v 11.8 2.6 -2.6
v 11.8 2.5 -2.6
v 11.7 2.5 -2.6
v 11.7 2.6 -2.6
v 10 2.5 -2.6
v 10 2.4 -2.6
v 10 2.4 -2.5
v 10 2.5 -2.5
v 10 2.4 -2.5
v 10 2.4 -2.6
v 10.1 2.4 -2.6
v 10.1 2.4 -2.5
v 10 2.5 -2.5
v 10 2.4 -2.5
v 10.1 2.4 -2.5
v 10.1 2.5 -2.5
v 10.1 2.5 -2.6
v 10.1 2.4 -2.6
v 10 2.4 -2.6
v 10 2.5 -2.6
v 10.1 2.5 -2.5
v 10.1 2.4 -2.5
v 10.2 2.4 -2.5
v 10.2 2.5 -2.5
v 10.2 2.5 -2.6
v 10.2 2.4 -2.6
v 10.1 2.4 -2.6
v 10.1 2.5 -2.6
v 10.2 2.5 -2.5
v 10.2 2.4 -2.5
v 10.3 2.4 -2.5
v 10.3 2.5 -2.5
v 10.3 2.5 -2.6
v 10.3 2.4 -2.6
v 10.2 2.4 -2.6
v 10.2 2.5 -2.6
v 10.4 2.5 -2.5
v 10.4 2.4 -2.5
v 10.4 2.4 -2.6
v 10.4 2.5 -2.6
v 10.3 2.5 -2.6
v 10.3 2.5 -2.5
v 10.4 2.5 -2.5
v 10.4 2.5 -2.6
v 10.3 2.5 -2.5
v 10.3 2.4 -2.5
v 10.4 2.4 -2.5
v 10.4 2.5 -2.5
v 10.4 2.5 -2.6
v 10.4 2.4 -2.6
v 10.3 2.4 -2.6
v 10.3 2.5 -2.6
v 11.5 2.5 -2.6
v 11.5 2.4 -2.6
v 11.5 2.4 -2.5
v 11.5 2.5 -2.5
v 11.5 2.4 -2.5
v 11.5 2.4 -2.6
v 11.6 2.4 -2.6
v 11.6 2.4 -2.5
v 11.5 2.5 -2.5
v 11.5 2.4 -2.5
v 11.6 2.4 -2.5
v 11.6 2.5 -2.5
v 11.6 2.5 -2.6
v 11.6 2.4 -2.6
v 11.5 2.4 -2.6
v 11.5 2.5 -2.6
v 11.6 2.5 -2.5
v 11.6 2.4 -2.5
v 11.7 2.4 -2.5
v 11.7 2.5 -2.5
v 11.7 2.5 -2.6
v 11.7 2.4 -2.6
v 11.6 2.4 -2.6
v 11.6 2.5 -2.6
v 11.7 2.5 -2.5
v 11.7 2.4 -2.5
v 11.8 2.4 -2.5
v 11.8 2.5 -2.5
v 11.8 2.5 -2.6
v 11.8 2.4 -2.6
v 11.7 2.4 -2.6
v 11.7 2.5 -2.6
v 11.9 2.5 -2.5
v 11.9 2.4 -2.5
v 11.9 2.4 -2.6
v 11.9 2.5 -2.6
v 11.8 2.5 -2.6
v 11.8 2.5 -2.5
v 11.9 2.5 -2.5
v 11.9 2.5 -2.6
v 11.8 2.5 -2.5
v 11.8 2.4 -2.5
v 11.9 2.4 -2.5
v 11.9 2.5 -2.5
v 11.9 2.5 -2.6
v 11.9 2.4 -2.6
v 11.8 2.4 -2.6
v 11.8 2.5 -2.6
v 10.1 2.4 -2.6
v 10.1 2.3 -2.6
v 10.1 2.3 -2.5
v 10.1 2.4 -2.5
v 10.1 2.3 -2.5
v 10.1 2.3 -2.6
v 10.2 2.3 -2.6
v 10.2 2.3 -2.5
v 10.1 2.4 -2.5
v 10.1 2.3 -2.5
v 10.2 2.3 -2.5
v 10.2 2.4 -2.5
v 10.2 2.4 -2.6
v 10.2 2.3 -2.6
v 10.1 2.3 -2.6
v 10.1 2.4 -2.6
v 10.2 2.4 -2.5
v 10.2 2.3 -2.5
v 10.3 2.3 -2.5
v 10.3 2.4 -2.5
v 10.3 2.4 -2.6
v 10.3 2.3 -2.6
v 10.2 2.3 -2.6
v 10.2 2.4 -2.6
v 10.3 2.4 -2.5
v 10.3 2.3 -2.5
v 10.4 2.3 -2.5
v 10.4 2.4 -2.5
v 10.4 2.4 -2.6
v 10.4 2.3 -2.6
v 10.3 2.3 -2.6
v 10.3 2.4 -2.6
v 10.5 2.4 -2.5
v 10.5 2.3 -2.5
v 10.5 2.3 -2.6
v 10.5 2.4 -2.6
v 10.4 2.4 -2.6
v 10.4 2.4 -2.5
v 10.5 2.4 -2.5
v 10.5 2.4 -2.6
v 10.4 2.4 -2.5
v 10.4 2.3 -2.5
v 10.5 2.3 -2.5
v 10.5 2.4 -2.5
v 10.5 2.4 -2.6
v 10.5 2.3 -2.6
v 10.4 2.3 -2.6
v 10.4 2.4 -2.6
v 11.6 2.4 -2.6
v 11.6 2.3 -2.6
v 11.6 2.3 -2.5
v 11.6 2.4 -2.5
v 11.6 2.3 -2.5
v 11.6 2.3 -2.6
v 11.7 2.3 -2.6
v 11.7 2.3 -2.5
v 11.6 2.4 -2.5
v 11.6 2.3 -2.5
v 11.7 2.3 -2.5
v 11.7 2.4 -2.5
v 11.7 2.4 -2.6
v 11.7 2.3 -2.6
v 11.6 2.3 -2.6
v 11.6 2.4 -2.6
v 11.7 2.4 -2.5
v 11.7 2.3 -2.5
v 11.8 2.3 -2.5
v 11.8 2.4 -2.5
v 11.8 2.4 -2.6
v 11.8 2.3 -2.6
v 11.7 2.3 -2.6
v 11.7 2.4 -2.6
v 11.8 2.4 -2.5
v 11.8 2.3 -2.5
v 11.9 2.3 -2.5
v 11.9 2.4 -2.5
v 11.9 2.4 -2.6
v 11.9 2.3 -2.6
v 11.8 2.3 -2.6
v 11.8 2.4 -2.6
v 11.9 2.4 -2.6
v 11.9 2.4 -2.5
v 12 2.4 -2.5
v 12 2.4 -2.6
v 11.9 2.4 -2.5
v 11.9 2.3 -2.5
v 12 2.3 -2.5
v 12 2.4 -2.5
v 12 2.4 -2.6
v 12 2.3 -2.6
v 11.9 2.3 -2.6
v 11.9 2.4 -2.6
v 12.1 2.4 -2.5
v 12.1 2.3 -2.5
v 12.1 2.3 -2.6
v 12.1 2.4 -2.6
v 12 2.4 -2.6
v 12 2.4 -2.5
v 12.1 2.4 -2.5
v 12.1 2.4 -2.6
v 12 2.4 -2.5
v 12 2.3 -2.5
v 12.1 2.3 -2.5
v 12.1 2.4 -2.5
v 12.1 2.4 -2.6
v 12.1 2.3 -2.6
v 12 2.3 -2.6
v 12 2.4 -2.6
v 10.2 2.3 -2.6
v 10.2 2.2 -2.6
v 10.2 2.2 -2.5
v 10.2 2.3 -2.5
v 10.2 2.2 -2.5
v 10.2 2.2 -2.6
v 10.3 2.2 -2.6
v 10.3 2.2 -2.5
v 10.2 2.3 -2.5
v 10.2 2.2 -2.5
v 10.3 2.2 -2.5
v 10.3 2.3 -2.5
v 10.3 2.3 -2.6
v 10.3 2.2 -2.6
v 10.2 2.2 -2.6
v 10.2 2.3 -2.6
v 10.3 2.3 -2.5
v 10.3 2.2 -2.5
v 10.4 2.2 -2.5
v 10.4 2.3 -2.5
v 10.4 2.3 -2.6
v 10.4 2.2 -2.6
v 10.3 2.2 -2.6
v 10.3 2.3 -2.6
v 10.4 2.3 -2.5
v 10.4 2.2 -2.5
v 10.5 2.2 -2.5
v 10.5 2.3 -2.5
v 10.5 2.3 -2.6
v 10.5 2.2 -2.6
v 10.4 2.2 -2.6
v 10.4 2.3 -2.6
v 10.5 2.3 -2.6
v 10.5 2.3 -2.5
v 10.6 2.3 -2.5
v 10.6 2.3 -2.6
v 10.5 2.3 -2.5
v 10.5 2.2 -2.5
v 10.6 2.2 -2.5
v 10.6 2.3 -2.5
v 10.6 2.3 -2.6
v 10.6 2.2 -2.6
v 10.5 2.2 -2.6
v 10.5 2.3 -2.6
v 10.7 2.3 -2.5
v 10.7 2.2 -2.5
v 10.7 2.2 -2.6
v 10.7 2.3 -2.6
v 10.6 2.3 -2.6
v 10.6 2.3 -2.5
v 10.7 2.3 -2.5
v 10.7 2.3 -2.6
v 10.6 2.3 -2.5
v 10.6 2.2 -2.5
v 10.7 2.2 -2.5
v 10.7 2.3 -2.5
v 10.7 2.3 -2.6
v 10.7 2.2 -2.6
v 10.6 2.2 -2.6
v 10.6 2.3 -2.6
v 11.7 2.3 -2.6
v 11.7 2.2 -2.6
v 11.7 2.2 -2.5
v 11.7 2.3 -2.5
v 11.7 2.2 -2.5
v 11.7 2.2 -2.6
v 11.8 2.2 -2.6
v 11.8 2.2 -2.5
v 11.7 2.3 -2.5
v 11.7 2.2 -2.5
v 11.8 2.2 -2.5
v 11.8 2.3 -2.5
v 11.8 2.3 -2.6
v 11.8 2.2 -2.6
v 11.7 2.2 -2.6
v 11.7 2.3 -2.6
v 11.8 2.2 -2.5
v 11.8 2.2 -2.6
v 11.9 2.2 -2.6
v 11.9 2.2 -2.5
v 11.8 2.3 -2.5
v 11.8 2.2 -2.5
v 11.9 2.2 -2.5
v 11.9 2.3 -2.5
v 11.9 2.3 -2.6
v 11.9 2.2 -2.6
v 11.8 2.2 -2.6
v 11.8 2.3 -2.6
v 11.9 2.3 -2.5
v 11.9 2.2 -2.5
v 12 2.2 -2.5
v 12 2.3 -2.5
v 12 2.3 -2.6
v 12 2.2 -2.6
v 11.9 2.2 -2.6
v 11.9 2.3 -2.6
v 12 2.3 -2.5
v 12 2.2 -2.5
v 12.1 2.2 -2.5
v 12.1 2.3 -2.5
v 12.1 2.3 -2.6
v 12.1 2.2 -2.6
v 12 2.2 -2.6
v 12 2.3 -2.6
v 12.2 2.3 -2.5
v 12.2 2.2 -2.5
v 12.2 2.2 -2.6
v 12.2 2.3 -2.6
v 12.1 2.3 -2.6
v 12.1 2.3 -2.5
v 12.2 2.3 -2.5
v 12.2 2.3 -2.6
v 12.1 2.3 -2.5
v 12.1 2.2 -2.5
v 12.2 2.2 -2.5
v 12.2 2.3 -2.5
v 12.2 2.3 -2.6
v 12.2 2.2 -2.6
v 12.1 2.2 -2.6
v 12.1 2.3 -2.6
v 10.3 2.2 -2.6
v 10.3 2.1 -2.6
v 10.3 2.1 -2.5
v 10.3 2.2 -2.5
v 10.3 2.1 -2.5
v 10.3 2.1 -2.6
v 10.4 2.1 -2.6
v 10.4 2.1 -2.5
v 10.3 2.2 -2.5
v 10.3 2.1 -2.5
v 10.4 2.1 -2.5
v 10.4 2.2 -2.5
v 10.4 2.2 -2.6
v 10.4 2.1 -2.6
v 10.3 2.1 -2.6
v 10.3 2.2 -2.6
v 10.4 2.2 -2.5
v 10.4 2.1 -2.5
v 10.5 2.1 -2.5
v 10.5 2.2 -2.5
v 10.5 2.2 -2.6
v 10.5 2.1 -2.6
v 10.4 2.1 -2.6
v 10.4 2.2 -2.6
v 10.5 2.2 -2.5
v 10.5 2.1 -2.5
v 10.6 2.1 -2.5
v 10.6 2.2 -2.5
v 10.6 2.2 -2.6
v 10.6 2.1 -2.6
v 10.5 2.1 -2.6
v 10.5 2.2 -2.6
v 10.6 2.2 -2.5
v 10.6 2.1 -2.5
v 10.7 2.1 -2.5
v 10.7 2.2 -2.5
v 10.7 2.2 -2.6
v 10.7 2.1 -2.6
v 10.6 2.1 -2.6
v 10.6 2.2 -2.6
v 10.8 2.2 -2.5
v 10.8 2.1 -2.5
v 10.8 2.1 -2.6
v 10.8 2.2 -2.6
v 10.7 2.2 -2.6
v 10.7 2.2 -2.5
v 10.8 2.2 -2.5
v 10.8 2.2 -2.6
v 10.7 2.2 -2.5
v 10.7 2.1 -2.5
v 10.8 2.1 -2.5
v 10.8 2.2 -2.5
v 10.8 2.2 -2.6
v 10.8 2.1 -2.6
v 10.7 2.1 -2.6
v 10.7 2.2 -2.6
v 11.9 2.2 -2.6
v 11.9 2.1 -2.6
v 11.9 2.1 -2.5
v 11.9 2.2 -2.5
v 11.9 2.1 -2.5
v 11.9 2.1 -2.6
v 12 2.1 -2.6
v 12 2.1 -2.5
v 11.9 2.2 -2.5
v 11.9 2.1 -2.5
v 12 2.1 -2.5
v 12 2.2 -2.5
v 12 2.2 -2.6
v 12 2.1 -2.6
v 11.9 2.1 -2.6
v 11.9 2.2 -2.6
v 12 2.2 -2.5
v 12 2.1 -2.5
v 12.1 2.1 -2.5
v 12.1 2.2 -2.5
v 12.1 2.2 -2.6
v 12.1 2.1 -2.6
v 12 2.1 -2.6
v 12 2.2 -2.6
v 12.1 2.2 -2.5
v 12.1 2.1 -2.5
v 12.2 2.1 -2.5
v 12.2 2.2 -2.5
v 12.2 2.2 -2.6
v 12.2 2.1 -2.6
v 12.1 2.1 -2.6
v 12.1 2.2 -2.6
v 12.3 2.2 -2.5
v 12.3 2.1 -2.5
v 12.3 2.1 -2.6
v 12.3 2.2 -2.6
v 12.2 2.2 -2.6
v 12.2 2.2 -2.5
v 12.3 2.2 -2.5
v 12.3 2.2 -2.6
v 12.2 2.2 -2.5
v 12.2 2.1 -2.5
v 12.3 2.1 -2.5
v 12.3 2.2 -2.5
v 12.3 2.2 -2.6
v 12.3 2.1 -2.6
v 12.2 2.1 -2.6
v 12.2 2.2 -2.6
v 10.4 2.1 -2.6
v 10.4 2 -2.6
v 10.4 2 -2.5
v 10.4 2.1 -2.5
v 10.4 2 -2.5
v 10.4 2 -2.6
v 10.5 2 -2.6
v 10.5 2 -2.5
v 10.4 2.1 -2.5
v 10.4 2 -2.5
v 10.5 2 -2.5
v 10.5 2.1 -2.5
v 10.5 2.1 -2.6
v 10.5 2 -2.6
v 10.4 2 -2.6
v 10.4 2.1 -2.6
v 10.5 2 -2.5
v 10.5 2 -2.6
v 10.6 2 -2.6
v 10.6 2 -2.5
v 10.5 2.1 -2.5
v 10.5 2 -2.5
v 10.6 2 -2.5
v 10.6 2.1 -2.5
v 10.6 2.1 -2.6
v 10.6 2 -2.6
v 10.5 2 -2.6
v 10.5 2.1 -2.6
v 10.6 2.1 -2.5
v 10.6 2 -2.5
v 10.7 2 -2.5
v 10.7 2.1 -2.5
v 10.7 2.1 -2.6
v 10.7 2 -2.6
v 10.6 2 -2.6
v 10.6 2.1 -2.6
v 10.7 2.1 -2.5
v 10.7 2 -2.5
v 10.8 2 -2.5
v 10.8 2.1 -2.5
v 10.8 2.1 -2.6
v 10.8 2 -2.6
v 10.7 2 -2.6
v 10.7 2.1 -2.6
v 10.9 2.1 -2.5
v 10.9 2 -2.5
v 10.9 2 -2.6
v 10.9 2.1 -2.6
v 10.8 2.1 -2.6
v 10.8 2.1 -2.5
v 10.9 2.1 -2.5
v 10.9 2.1 -2.6
v 10.8 2.1 -2.5
v 10.8 2 -2.5
v 10.9 2 -2.5
v 10.9 2.1 -2.5
v 10.9 2.1 -2.6
v 10.9 2 -2.6
v 10.8 2 -2.6
v 10.8 2.1 -2.6
v 12 2.1 -2.6
v 12 2 -2.6
v 12 2 -2.5
v 12 2.1 -2.5
v 12 2 -2.5
v 12 2 -2.6
v 12.1 2 -2.6
v 12.1 2 -2.5
v 12 2.1 -2.5
v 12 2 -2.5
v 12.1 2 -2.5
v 12.1 2.1 -2.5
v 12.1 2.1 -2.6
v 12.1 2 -2.6
v 12 2 -2.6
v 12 2.1 -2.6
v 12.1 2 -2.5
v 12.1 2 -2.6
v 12.2 2 -2.6
v 12.2 2 -2.5
v 12.1 2.1 -2.5
v 12.1 2 -2.5
v 12.2 2 -2.5
v 12.2 2.1 -2.5
v 12.2 2.1 -2.6
v 12.2 2 -2.6
v 12.1 2 -2.6
v 12.1 2.1 -2.6
v 12.2 2.1 -2.5
v 12.2 2 -2.5
v 12.3 2 -2.5
v 12.3 2.1 -2.5
v 12.3 2.1 -2.6
v 12.3 2 -2.6
v 12.2 2 -2.6
v 12.2 2.1 -2.6
v 12.4 2.1 -2.5
v 12.4 2 -2.5
v 12.4 2 -2.6
v 12.4 2.1 -2.6
v 12.3 2.1 -2.6
v 12.3 2.1 -2.5
v 12.4 2.1 -2.5
v 12.4 2.1 -2.6
v 12.3 2.1 -2.5
v 12.3 2 -2.5
v 12.4 2 -2.5
v 12.4 2.1 -2.5
v 12.4 2.1 -2.6
v 12.4 2 -2.6
v 12.3 2 -2.6
v 12.3 2.1 -2.6
v 10.6 2 -2.6
v 10.6 1.9 -2.6
v 10.6 1.9 -2.5
v 10.6 2 -2.5
v 10.6 1.9 -2.5
v 10.6 1.9 -2.6
v 10.7 1.9 -2.6
v 10.7 1.9 -2.5
v 10.6 2 -2.5
v 10.6 1.9 -2.5
v 10.7 1.9 -2.5
v 10.7 2 -2.5
v 10.7 2 -2.6
v 10.7 1.9 -2.6
v 10.6 1.9 -2.6
v 10.6 2 -2.6
v 10.7 2 -2.5
v 10.7 1.9 -2.5
v 10.8 1.9 -2.5
v 10.8 2 -2.5
v 10.8 2 -2.6
v 10.8 1.9 -2.6
v 10.7 1.9 -2.6
v 10.7 2 -2.6
v 10.8 2 -2.5
v 10.8 1.9 -2.5
v 10.9 1.9 -2.5
v 10.9 2 -2.5
v 10.9 2 -2.6
v 10.9 1.9 -2.6
v 10.8 1.9 -2.6
v 10.8 2 -2.6
v 10.9 2 -2.6
v 10.9 2 -2.5
v 11 2 -2.5
v 11 2 -2.6
v 10.9 2 -2.5
v 10.9 1.9 -2.5
v 11 1.9 -2.5
v 11 2 -2.5
v 11 2 -2.6
v 11 1.9 -2.6
v 10.9 1.9 -2.6
v 10.9 2 -2.6
v 11.1 2 -2.5
v 11.1 1.9 -2.5
v 11.1 1.9 -2.6
v 11.1 2 -2.6
v 11 2 -2.6
v 11 2 -2.5
v 11.1 2 -2.5
v 11.1 2 -2.6
v 11 2 -2.5
v 11 1.9 -2.5
v 11.1 1.9 -2.5
v 11.1 2 -2.5
v 11.1 2 -2.6
v 11.1 1.9 -2.6
v 11 1.9 -2.6
v 11 2 -2.6
v 12.2 2 -2.6
v 12.2 1.9 -2.6
v 12.2 1.9 -2.5
v 12.2 2 -2.5
v 12.2 1.9 -2.5
v 12.2 1.9 -2.6
v 12.3 1.9 -2.6
v 12.3 1.9 -2.5
v 12.2 2 -2.5
v 12.2 1.9 -2.5
v 12.3 1.9 -2.5
v 12.3 2 -2.5
v 12.3 2 -2.6
v 12.3 1.9 -2.6
v 12.2 1.9 -2.6
v 12.2 2 -2.6
v 12.3 2 -2.5
v 12.3 1.9 -2.5
v 12.4 1.9 -2.5
v 12.4 2 -2.5
v 12.4 2 -2.6
v 12.4 1.9 -2.6
v 12.3 1.9 -2.6
v 12.3 2 -2.6
v 12.4 2 -2.6
v 12.4 2 -2.5
v 12.5 2 -2.5
v 12.5 2 -2.6
v 12.4 2 -2.5
v 12.4 1.9 -2.5
v 12.5 1.9 -2.5
v 12.5 2 -2.5
v 12.5 2 -2.6
v 12.5 1.9 -2.6
v 12.4 1.9 -2.6
v 12.4 2 -2.6
v 12.6 2 -2.5
v 12.6 1.9 -2.5
v 12.6 1.9 -2.6
v 12.6 2 -2.6
v 12.5 2 -2.6
v 12.5 2 -2.5
v 12.6 2 -2.5
v 12.6 2 -2.6
v 12.5 2 -2.5
v 12.5 1.9 -2.5
v 12.6 1.9 -2.5
v 12.6 2 -2.5
v 12.6 2 -2.6
v 12.6 1.9 -2.6
v 12.5 1.9 -2.6
v 12.5 2 -2.6
v 10.7 1.9 -2.6
v 10.7 1.8 -2.6
v 10.7 1.8 -2.5
v 10.7 1.9 -2.5
v 10.7 1.8 -2.5
v 10.7 1.8 -2.6
v 10.8 1.8 -2.6
v 10.8 1.8 -2.5
v 10.7 1.9 -2.5
v 10.7 1.8 -2.5
v 10.8 1.8 -2.5
v 10.8 1.9 -2.5
v 10.8 1.9 -2.6
v 10.8 1.8 -2.6
v 10.7 1.8 -2.6
v 10.7 1.9 -2.6
v 10.8 1.9 -2.5
v 10.8 1.8 -2.5
v 10.9 1.8 -2.5
v 10.9 1.9 -2.5
v 10.9 1.9 -2.6
v 10.9 1.8 -2.6
v 10.8 1.8 -2.6
v 10.8 1.9 -2.6
v 10.9 1.9 -2.5
v 10.9 1.8 -2.5
v 11 1.8 -2.5
v 11 1.9 -2.5
v 11 1.9 -2.6
v 11 1.8 -2.6
v 10.9 1.8 -2.6
v 10.9 1.9 -2.6
v 11 1.9 -2.5
v 11 1.8 -2.5
v 11.1 1.8 -2.5
v 11.1 1.9 -2.5
v 11.1 1.9 -2.6
v 11.1 1.8 -2.6
v 11 1.8 -2.6
v 11 1.9 -2.6
v 11.2 1.9 -2.5
v 11.2 1.8 -2.5
v 11.2 1.8 -2.6
v 11.2 1.9 -2.6
v 11.1 1.9 -2.6
v 11.1 1.9 -2.5
v 11.2 1.9 -2.5
v 11.2 1.9 -2.6
v 11.1 1.9 -2.5
v 11.1 1.8 -2.5
v 11.2 1.8 -2.5
v 11.2 1.9 -2.5
v 11.2 1.9 -2.6
v 11.2 1.8 -2.6
v 11.1 1.8 -2.6
v 11.1 1.9 -2.6
v 12.3 1.9 -2.6
v 12.3 1.8 -2.6
v 12.3 1.8 -2.5
v 12.3 1.9 -2.5
v 12.3 1.8 -2.5
v 12.3 1.8 -2.6
v 12.4 1.8 -2.6
v 12.4 1.8 -2.5
v 12.3 1.9 -2.5
v 12.3 1.8 -2.5
v 12.4 1.8 -2.5
v 12.4 1.9 -2.5
v 12.4 1.9 -2.6
v 12.4 1.8 -2.6
v 12.3 1.8 -2.6
v 12.3 1.9 -2.6
v 12.4 1.8 -2.5
v 12.4 1.8 -2.6
v 12.5 1.8 -2.6
v 12.5 1.8 -2.5
v 12.4 1.9 -2.5
v 12.4 1.8 -2.5
v 12.5 1.8 -2.5
v 12.5 1.9 -2.5
v 12.5 1.9 -2.6
v 12.5 1.8 -2.6
v 12.4 1.8 -2.6
v 12.4 1.9 -2.6
v 12.5 1.9 -2.5
v 12.5 1.8 -2.5
v 12.6 1.8 -2.5
v 12.6 1.9 -2.5
v 12.6 1.9 -2.6
v 12.6 1.8 -2.6
v 12.5 1.8 -2.6
v 12.5 1.9 -2.6
v 12.7 1.9 -2.5
v 12.7 1.8 -2.5
v 12.7 1.8 -2.6
v 12.7 1.9 -2.6
v 12.6 1.9 -2.6
v 12.6 1.9 -2.5
v 12.7 1.9 -2.5
v 12.7 1.9 -2.6
v 12.6 1.9 -2.5
v 12.6 1.8 -2.5
v 12.7 1.8 -2.5
v 12.7 1.9 -2.5
v 12.7 1.9 -2.6
v 12.7 1.8 -2.6
v 12.6 1.8 -2.6
v 12.6 1.9 -2.6
v 10.8 1.8 -2.6
v 10.8 1.7 -2.6
v 10.8 1.7 -2.5
v 10.8 1.8 -2.5
v 10.8 1.7 -2.5
v 10.8 1.7 -2.6
v 10.9 1.7 -2.6
v 10.9 1.7 -2.5
v 10.8 1.8 -2.5
v 10.8 1.7 -2.5
v 10.9 1.7 -2.5
v 10.9 1.8 -2.5
v 10.9 1.8 -2.6
v 10.9 1.7 -2.6
v 10.8 1.7 -2.6
v 10.8 1.8 -2.6
v 10.9 1.8 -2.5
v 10.9 1.7 -2.5
v 11 1.7 -2.5
v 11 1.8 -2.5
v 11 1.8 -2.6
v 11 1.7 -2.6
v 10.9 1.7 -2.6
v 10.9 1.8 -2.6
v 11 1.8 -2.5
v 11 1.7 -2.5
v 11.1 1.7 -2.5
v 11.1 1.8 -2.5
v 11.1 1.8 -2.6
v 11.1 1.7 -2.6
v 11 1.7 -2.6
v 11 1.8 -2.6
v 11.1 1.8 -2.5
v 11.1 1.7 -2.5
v 11.2 1.7 -2.5
v 11.2 1.8 -2.5
v 11.2 1.8 -2.6
v 11.2 1.7 -2.6
v 11.1 1.7 -2.6
v 11.1 1.8 -2.6
v 11.3 1.8 -2.5
v 11.3 1.7 -2.5
v 11.3 1.7 -2.6
v 11.3 1.8 -2.6
v 11.2 1.8 -2.6
v 11.2 1.8 -2.5
v 11.3 1.8 -2.5
v 11.3 1.8 -2.6
v 11.2 1.8 -2.5
v 11.2 1.7 -2.5
v 11.3 1.7 -2.5
v 11.3 1.8 -2.5
v 11.3 1.8 -2.6
v 11.3 1.7 -2.6
v 11.2 1.7 -2.6
v 11.2 1.8 -2.6
v 12.5 1.8 -2.6
v 12.5 1.7 -2.6
v 12.5 1.7 -2.5
v 12.5 1.8 -2.5
v 12.5 1.7 -2.5
v 12.5 1.7 -2.6
v 12.6 1.7 -2.6
v 12.6 1.7 -2.5
v 12.5 1.8 -2.5
v 12.5 1.7 -2.5
v 12.6 1.7 -2.5
v 12.6 1.8 -2.5
v 12.6 1.8 -2.6
v 12.6 1.7 -2.6
v 12.5 1.7 -2.6
v 12.5 1.8 -2.6
v 12.6 1.8 -2.5
v 12.6 1.7 -2.5
v 12.7 1.7 -2.5
v 12.7 1.8 -2.5
v 12.7 1.8 -2.6
v 12.7 1.7 -2.6
v 12.6 1.7 -2.6
v 12.6 1.8 -2.6
v 12.8 1.8 -2.5
v 12.8 1.7 -2.5
v 12.8 1.7 -2.6
v 12.8 1.8 -2.6
v 12.7 1.8 -2.6
v 12.7 1.8 -2.5
v 12.8 1.8 -2.5
v 12.8 1.8 -2.6
v 12.7 1.8 -2.5
v 12.7 1.7 -2.5
v 12.8 1.7 -2.5
v 12.8 1.8 -2.5
v 12.8 1.8 -2.6
v 12.8 1.7 -2.6
v 12.7 1.7 -2.6
v 12.7 1.8 -2.6
v 10.9 1.7 -2.6
v 10.9 1.6 -2.6
v 10.9 1.6 -2.5
v 10.9 1.7 -2.5
v 10.9 1.6 -2.5
v 10.9 1.6 -2.6
v 11 1.6 -2.6
v 11 1.6 -2.5
v 10.9 1.7 -2.5
v 10.9 1.6 -2.5
v 11 1.6 -2.5
v 11 1.7 -2.5
v 11 1.7 -2.6
v 11 1.6 -2.6
v 10.9 1.6 -2.6
v 10.9 1.7 -2.6
v 11 1.6 -2.5
v 11 1.6 -2.6
v 11.1 1.6 -2.6
v 11.1 1.6 -2.5
v 11 1.7 -2.5
v 11 1.6 -2.5
v 11.1 1.6 -2.5
v 11.1 1.7 -2.5
v 11.1 1.7 -2.6
v 11.1 1.6 -2.6
v 11 1.6 -2.6
v 11 1.7 -2.6
v 11.1 1.7 -2.5
v 11.1 1.6 -2.5
v 11.2 1.6 -2.5
v 11.2 1.7 -2.5
v 11.2 1.7 -2.6
v 11.2 1.6 -2.6
v 11.1 1.6 -2.6
v 11.1 1.7 -2.6
v 11.2 1.7 -2.5
v 11.2 1.6 -2.5
v 11.3 1.6 -2.5
v 11.3 1.7 -2.5
v 11.3 1.7 -2.6
v 11.3 1.6 -2.6
v 11.2 1.6 -2.6
v 11.2 1.7 -2.6
v 11.4 1.7 -2.5
v 11.4 1.6 -2.5
v 11.4 1.6 -2.6
v 11.4 1.7 -2.6
v 11.3 1.7 -2.6
v 11.3 1.7 -2.5
v 11.4 1.7 -2.5
v 11.4 1.7 -2.6
v 11.3 1.7 -2.5
v 11.3 1.6 -2.5
v 11.4 1.6 -2.5
v 11.4 1.7 -2.5
v 11.4 1.7 -2.6
v 11.4 1.6 -2.6
v 11.3 1.6 -2.6
v 11.3 1.7 -2.6
v 12.6 1.7 -2.6
v 12.6 1.6 -2.6
v 12.6 1.6 -2.5
v 12.6 1.7 -2.5
v 12.6 1.6 -2.5
v 12.6 1.6 -2.6
v 12.7 1.6 -2.6
v 12.7 1.6 -2.5
v 12.6 1.7 -2.5
v 12.6 1.6 -2.5
v 12.7 1.6 -2.5
v 12.7 1.7 -2.5
v 12.7 1.7 -2.6
v 12.7 1.6 -2.6
v 12.6 1.6 -2.6
v 12.6 1.7 -2.6
v 12.7 1.6 -2.5
v 12.7 1.6 -2.6
v 12.8 1.6 -2.6
v 12.8 1.6 -2.5
v 12.7 1.7 -2.5
v 12.7 1.6 -2.5
v 12.8 1.6 -2.5
v 12.8 1.7 -2.5
v 12.8 1.7 -2.6
v 12.8 1.6 -2.6
v 12.7 1.6 -2.6
v 12.7 1.7 -2.6
v 12.9 1.7 -2.5
v 12.9 1.6 -2.5
v 12.9 1.6 -2.6
v 12.9 1.7 -2.6
v 12.8 1.7 -2.6
v 12.8 1.7 -2.5
v 12.9 1.7 -2.5
v 12.9 1.7 -2.6
v 12.8 1.7 -2.5
v 12.8 1.6 -2.5
v 12.9 1.6 -2.5
v 12.9 1.7 -2.5
v 12.9 1.7 -2.6
v 12.9 1.6 -2.6
v 12.8 1.6 -2.6
v 12.8 1.7 -2.6
v 11.1 1.6 -2.6
v 11.1 1.5 -2.6
v 11.1 1.5 -2.5
v 11.1 1.6 -2.5
v 11.1 1.5 -2.5
v 11.1 1.5 -2.6
v 11.2 1.5 -2.6
v 11.2 1.5 -2.5
v 11.1 1.6 -2.5
v 11.1 1.5 -2.5
v 11.2 1.5 -2.5
v 11.2 1.6 -2.5
v 11.2 1.6 -2.6
v 11.2 1.5 -2.6
v 11.1 1.5 -2.6
v 11.1 1.6 -2.6
v 11.2 1.6 -2.5
v 11.2 1.5 -2.5
v 11.3 1.5 -2.5
v 11.3 1.6 -2.5
v 11.3 1.6 -2.6
v 11.3 1.5 -2.6
v 11.2 1.5 -2.6
v 11.2 1.6 -2.6
v 11.3 1.6 -2.5
v 11.3 1.5 -2.5
v 11.4 1.5 -2.5
v 11.4 1.6 -2.5
v 11.4 1.6 -2.6
v 11.4 1.5 -2.6
v 11.3 1.5 -2.6
v 11.3 1.6 -2.6
v 11.4 1.6 -2.6
v 11.4 1.6 -2.5
v 11.5 1.6 -2.5
v 11.5 1.6 -2.6
v 11.4 1.6 -2.5
v 11.4 1.5 -2.5
v 11.5 1.5 -2.5
v 11.5 1.6 -2.5
v 11.5 1.6 -2.6
v 11.5 1.5 -2.6
v 11.4 1.5 -2.6
v 11.4 1.6 -2.6
v 11.6 1.6 -2.5
v 11.6 1.5 -2.5
v 11.6 1.5 -2.6
v 11.6 1.6 -2.6
v 11.5 1.6 -2.6
v 11.5 1.6 -2.5
v 11.6 1.6 -2.5
v 11.6 1.6 -2.6
v 11.5 1.6 -2.5
v 11.5 1.5 -2.5
v 11.6 1.5 -2.5
v 11.6 1.6 -2.5
v 11.6 1.6 -2.6
v 11.6 1.5 -2.6
v 11.5 1.5 -2.6
v 11.5 1.6 -2.6
v 12.8 1.6 -2.6
v 12.8 1.5 -2.6
v 12.8 1.5 -2.5
v 12.8 1.6 -2.5
v 12.8 1.5 -2.5
v 12.8 1.5 -2.6
v 12.9 1.5 -2.6
v 12.9 1.5 -2.5
v 12.8 1.6 -2.5
v 12.8 1.5 -2.5
v 12.9 1.5 -2.5
v 12.9 1.6 -2.5
v 12.9 1.6 -2.6
v 12.9 1.5 -2.6
v 12.8 1.5 -2.6
v 12.8 1.6 -2.6
v 13 1.6 -2.5
v 13 1.5 -2.5
v 13 1.5 -2.6
v 13 1.6 -2.6
v 12.9 1.6 -2.6
v 12.9 1.6 -2.5
v 13 1.6 -2.5
v 13 1.6 -2.6
v 12.9 1.5 -2.5
v 12.9 1.5 -2.6
v 13 1.5 -2.6
v 13 1.5 -2.5
v 12.9 1.6 -2.5
v 12.9 1.5 -2.5
v 13 1.5 -2.5
v 13 1.6 -2.5
v 13 1.6 -2.6
v 13 1.5 -2.6
v 12.9 1.5 -2.6
v 12.9 1.6 -2.6
v 11.2 1.5 -2.6
v 11.2 1.4 -2.6
v 11.2 1.4 -2.5
v 11.2 1.5 -2.5
v 11.2 1.4 -2.5
v 11.2 1.4 -2.6
v 11.3 1.4 -2.6
v 11.3 1.4 -2.5
v 11.2 1.5 -2.5
v 11.2 1.4 -2.5
v 11.3 1.4 -2.5
v 11.3 1.5 -2.5
v 11.3 1.5 -2.6
v 11.3 1.4 -2.6
v 11.2 1.4 -2.6
v 11.2 1.5 -2.6
v 11.3 1.5 -2.5
v 11.3 1.4 -2.5
v 11.4 1.4 -2.5
v 11.4 1.5 -2.5
v 11.4 1.5 -2.6
v 11.4 1.4 -2.6
v 11.3 1.4 -2.6
v 11.3 1.5 -2.6
v 11.4 1.5 -2.5
v 11.4 1.4 -2.5
v 11.5 1.4 -2.5
v 11.5 1.5 -2.5
v 11.5 1.5 -2.6
v 11.5 1.4 -2.6
v 11.4 1.4 -2.6
v 11.4 1.5 -2.6
v 11.5 1.5 -2.5
v 11.5 1.4 -2.5
v 11.6 1.4 -2.5
v 11.6 1.5 -2.5
v 11.6 1.5 -2.6
v 11.6 1.4 -2.6
v 11.5 1.4 -2.6
v 11.5 1.5 -2.6
v 11.7 1.5 -2.5
v 11.7 1.4 -2.5
v 11.7 1.4 -2.6
v 11.7 1.5 -2.6
v 11.6 1.5 -2.6
v 11.6 1.5 -2.5
v 11.7 1.5 -2.5
v 11.7 1.5 -2.6
v 11.6 1.5 -2.5
v 11.6 1.4 -2.5
v 11.7 1.4 -2.5
v 11.7 1.5 -2.5
v 11.7 1.5 -2.6
v 11.7 1.4 -2.6
v 11.6 1.4 -2.6
v 11.6 1.5 -2.6
v 13 1.5 -2.6
v 13 1.4 -2.6
v 13 1.4 -2.5
v 13 1.5 -2.5
v 13.1 1.5 -2.5
v 13.1 1.4 -2.5
v 13.1 1.4 -2.6
v 13.1 1.5 -2.6
v 13 1.5 -2.6
v 13 1.5 -2.5
v 13.1 1.5 -2.5
v 13.1 1.5 -2.6
v 13 1.4 -2.5
v 13 1.4 -2.6
v 13.1 1.4 -2.6
v 13.1 1.4 -2.5
v 13 1.5 -2.5
v 13 1.4 -2.5
v 13.1 1.4 -2.5
v 13.1 1.5 -2.5
v 13.1 1.5 -2.6
v 13.1 1.4 -2.6
v 13 1.4 -2.6
v 13 1.5 -2.6
v 11.3 1.4 -2.6
v 11.3 1.3 -2.6
v 11.3 1.3 -2.5
v 11.3 1.4 -2.5
v 11.3 1.3 -2.5
v 11.3 1.3 -2.6
v 11.4 1.3 -2.6
v 11.4 1.3 -2.5
v 11.3 1.4 -2.5
v 11.3 1.3 -2.5
v 11.4 1.3 -2.5
v 11.4 1.4 -2.5
v 11.4 1.4 -2.6
v 11.4 1.3 -2.6
v 11.3 1.3 -2.6
v 11.3 1.4 -2.6
v 11.4 1.3 -2.5
v 11.4 1.3 -2.6
v 11.5 1.3 -2.6
v 11.5 1.3 -2.5
v 11.4 1.4 -2.5
v 11.4 1.3 -2.5
v 11.5 1.3 -2.5
v 11.5 1.4 -2.5
v 11.5 1.4 -2.6
v 11.5 1.3 -2.6
v 11.4 1.3 -2.6
v 11.4 1.4 -2.6
v 11.5 1.4 -2.5
v 11.5 1.3 -2.5
v 11.6 1.3 -2.5
v 11.6 1.4 -2.5
v 11.6 1.4 -2.6
v 11.6 1.3 -2.6
v 11.5 1.3 -2.6
v 11.5 1.4 -2.6
v 11.6 1.4 -2.5
v 11.6 1.3 -2.5
v 11.7 1.3 -2.5
v 11.7 1.4 -2.5
v 11.7 1.4 -2.6
v 11.7 1.3 -2.6
v 11.6 1.3 -2.6
v 11.6 1.4 -2.6
v 11.8 1.4 -2.5
v 11.8 1.3 -2.5
v 11.8 1.3 -2.6
v 11.8 1.4 -2.6
v 11.7 1.4 -2.6
v 11.7 1.4 -2.5
v 11.8 1.4 -2.5
v 11.8 1.4 -2.6
v 11.7 1.4 -2.5
v 11.7 1.3 -2.5
v 11.8 1.3 -2.5
v 11.8 1.4 -2.5
v 11.8 1.4 -2.6
v 11.8 1.3 -2.6
v 11.7 1.3 -2.6
v 11.7 1.4 -2.6
v 11.5 1.3 -2.6
v 11.5 1.2 -2.6
v 11.5 1.2 -2.5
v 11.5 1.3 -2.5
v 11.5 1.2 -2.5
v 11.5 1.2 -2.6
v 11.6 1.2 -2.6
v 11.6 1.2 -2.5
v 11.5 1.3 -2.5
v 11.5 1.2 -2.5
v 11.6 1.2 -2.5
v 11.6 1.3 -2.5
v 11.6 1.3 -2.6
v 11.6 1.2 -2.6
v 11.5 1.2 -2.6
v 11.5 1.3 -2.6
v 11.6 1.3 -2.5
v 11.6 1.2 -2.5
v 11.7 1.2 -2.5
v 11.7 1.3 -2.5
v 11.7 1.3 -2.6
v 11.7 1.2 -2.6
v 11.6 1.2 -2.6
v 11.6 1.3 -2.6
v 11.7 1.3 -2.5
v 11.7 1.2 -2.5
v 11.8 1.2 -2.5
v 11.8 1.3 -2.5
v 11.8 1.3 -2.6
v 11.8 1.2 -2.6
v 11.7 1.2 -2.6
v 11.7 1.3 -2.6
v 11.9 1.3 -2.5
v 11.9 1.2 -2.5
v 11.9 1.2 -2.6
v 11.9 1.3 -2.6
v 11.8 1.3 -2.6
v 11.8 1.3 -2.5
v 11.9 1.3 -2.5
v 11.9 1.3 -2.6
v 11.8 1.3 -2.5
v 11.8 1.2 -2.5
v 11.9 1.2 -2.5
v 11.9 1.3 -2.5
v 11.9 1.3 -2.6
v 11.9 1.2 -2.6
v 11.8 1.2 -2.6
v 11.8 1.3 -2.6
v 11.6 1.2 -2.6
v 11.6 1.1 -2.6
v 11.6 1.1 -2.5
v 11.6 1.2 -2.5
v 11.6 1.1 -2.5
v 11.6 1.1 -2.6
v 11.7 1.1 -2.6
v 11.7 1.1 -2.5
v 11.6 1.2 -2.5
v 11.6 1.1 -2.5
v 11.7 1.1 -2.5
v 11.7 1.2 -2.5
v 11.7 1.2 -2.6
v 11.7 1.1 -2.6
v 11.6 1.1 -2.6
v 11.6 1.2 -2.6
v 11.7 1.2 -2.5
v 11.7 1.1 -2.5
v 11.8 1.1 -2.5
v 11.8 1.2 -2.5
v 11.8 1.2 -2.6
v 11.8 1.1 -2.6
v 11.7 1.1 -2.6
v 11.7 1.2 -2.6
v 11.8 1.2 -2.5
v 11.8 1.1 -2.5
v 11.9 1.1 -2.5
v 11.9 1.2 -2.5
v 11.9 1.2 -2.6
v 11.9 1.1 -2.6
v 11.8 1.1 -2.6
v 11.8 1.2 -2.6
v 11.9 1.2 -2.6
v 11.9 1.2 -2.5
v 12 1.2 -2.5
v 12 1.2 -2.6
v 11.9 1.2 -2.5
v 11.9 1.1 -2.5
v 12 1.1 -2.5
v 12 1.2 -2.5
v 12 1.2 -2.6
v 12 1.1 -2.6
v 11.9 1.1 -2.6
v 11.9 1.2 -2.6
v 12.1 1.2 -2.5
v 12.1 1.1 -2.5
v 12.1 1.1 -2.6
v 12.1 1.2 -2.6
v 12 1.2 -2.6
v 12 1.2 -2.5
v 12.1 1.2 -2.5
v 12.1 1.2 -2.6
v 12 1.2 -2.5
v 12 1.1 -2.5
v 12.1 1.1 -2.5
v 12.1 1.2 -2.5
v 12.1 1.2 -2.6
v 12.1 1.1 -2.6
v 12 1.1 -2.6
v 12 1.2 -2.6
v 11.7 1.1 -2.6
v 11.7 1 -2.6
v 11.7 1 -2.5
v 11.7 1.1 -2.5
v 11.7 1 -2.5
v 11.7 1 -2.6
v 11.8 1 -2.6
v 11.8 1 -2.5
v 11.7 1.1 -2.5
v 11.7 1 -2.5
v 11.8 1 -2.5
v 11.8 1.1 -2.5
v 11.8 1.1 -2.6
v 11.8 1 -2.6
v 11.7 1 -2.6
v 11.7 1.1 -2.6
v 11.8 1 -2.5
v 11.8 1 -2.6
v 11.9 1 -2.6
v 11.9 1 -2.5
v 11.8 1.1 -2.5
v 11.8 1 -2.5
v 11.9 1 -2.5
v 11.9 1.1 -2.5
v 11.9 1.1 -2.6
v 11.9 1 -2.6
v 11.8 1 -2.6
v 11.8 1.1 -2.6
v 11.9 1.1 -2.5
v 11.9 1 -2.5
v 12 1 -2.5
v 12 1.1 -2.5
v 12 1.1 -2.6
v 12 1 -2.6
v 11.9 1 -2.6
v 11.9 1.1 -2.6
v 12 1.1 -2.5
v 12 1 -2.5
v 12.1 1 -2.5
v 12.1 1.1 -2.5
v 12.1 1.1 -2.6
v 12.1 1 -2.6
v 12 1 -2.6
v 12 1.1 -2.6
v 12.2 1.1 -2.5
v 12.2 1 -2.5
v 12.2 1 -2.6
v 12.2 1.1 -2.6
v 12.1 1.1 -2.6
v 12.1 1.1 -2.5
v 12.2 1.1 -2.5
v 12.2 1.1 -2.6
v 12.1 1.1 -2.5
v 12.1 1 -2.5
v 12.2 1 -2.5
v 12.2 1.1 -2.5
v 12.2 1.1 -2.6
v 12.2 1 -2.6
v 12.1 1 -2.6
v 12.1 1.1 -2.6
v 11.9 1 -2.6
v 11.9 0.9 -2.6
v 11.9 0.9 -2.5
v 11.9 1 -2.5
v 11.9 0.9 -2.5
v 11.9 0.9 -2.6
v 12 0.9 -2.6
v 12 0.9 -2.5
v 11.9 1 -2.5
v 11.9 0.9 -2.5
v 12 0.9 -2.5
v 12 1 -2.5
v 12 1 -2.6
v 12 0.9 -2.6
v 11.9 0.9 -2.6
v 11.9 1 -2.6
v 12 1 -2.5
v 12 0.9 -2.5
v 12.1 0.9 -2.5
v 12.1 1 -2.5
v 12.1 1 -2.6
v 12.1 0.9 -2.6
v 12 0.9 -2.6
v 12 1 -2.6
v 12.1 1 -2.5
v 12.1 0.9 -2.5
v 12.2 0.9 -2.5
v 12.2 1 -2.5
v 12.2 1 -2.6
v 12.2 0.9 -2.6
v 12.1 0.9 -2.6
v 12.1 1 -2.6
v 12.3 1 -2.5
v 12.3 0.9 -2.5
v 12.3 0.9 -2.6
v 12.3 1 -2.6
v 12.2 1 -2.6
v 12.2 1 -2.5
v 12.3 1 -2.5
v 12.3 1 -2.6
v 12.2 1 -2.5
v 12.2 0.9 -2.5
v 12.3 0.9 -2.5
v 12.3 1 -2.5
v 12.3 1 -2.6
v 12.3 0.9 -2.6
v 12.2 0.9 -2.6
v 12.2 1 -2.6
v 12 0.9 -2.6
v 12 0.8 -2.6
v 12 0.8 -2.5
v 12 0.9 -2.5
v 12 0.8 -2.5
v 12 0.8 -2.6
v 12.1 0.8 -2.6
v 12.1 0.8 -2.5
v 12 0.9 -2.5
v 12 0.8 -2.5
v 12.1 0.8 -2.5
v 12.1 0.9 -2.5
v 12.1 0.9 -2.6
v 12.1 0.8 -2.6
v 12 0.8 -2.6
v 12 0.9 -2.6
v 12.1 0.8 -2.5
v 12.1 0.8 -2.6
v 12.2 0.8 -2.6
v 12.2 0.8 -2.5
v 12.1 0.9 -2.5
v 12.1 0.8 -2.5
v 12.2 0.8 -2.5
v 12.2 0.9 -2.5
v 12.2 0.9 -2.6
v 12.2 0.8 -2.6
v 12.1 0.8 -2.6
v 12.1 0.9 -2.6
v 12.2 0.9 -2.5
v 12.2 0.8 -2.5
v 12.3 0.8 -2.5
v 12.3 0.9 -2.5
v 12.3 0.9 -2.6
v 12.3 0.8 -2.6
v 12.2 0.8 -2.6
v 12.2 0.9 -2.6
v 12.4 0.9 -2.5
v 12.4 0.8 -2.5
v 12.4 0.8 -2.6
v 12.4 0.9 -2.6
v 12.3 0.9 -2.6
v 12.3 0.9 -2.5
v 12.4 0.9 -2.5
v 12.4 0.9 -2.6
v 12.3 0.9 -2.5
v 12.3 0.8 -2.5
v 12.4 0.8 -2.5
v 12.4 0.9 -2.5
v 12.4 0.9 -2.6
v 12.4 0.8 -2.6
v 12.3 0.8 -2.6
v 12.3 0.9 -2.6
v 12.2 0.8 -2.6
v 12.2 0.7 -2.6
v 12.2 0.7 -2.5
v 12.2 0.8 -2.5
v 12.2 0.7 -2.5
v 12.2 0.7 -2.6
v 12.3 0.7 -2.6
v 12.3 0.7 -2.5
v 12.2 0.8 -2.5
v 12.2 0.7 -2.5
v 12.3 0.7 -2.5
v 12.3 0.8 -2.5
v 12.3 0.8 -2.6
v 12.3 0.7 -2.6
v 12.2 0.7 -2.6
v 12.2 0.8 -2.6
v 12.3 0.8 -2.5
v 12.3 0.7 -2.5
v 12.4 0.7 -2.5
v 12.4 0.8 -2.5
v 12.4 0.8 -2.6
v 12.4 0.7 -2.6
v 12.3 0.7 -2.6
v 12.3 0.8 -2.6
v 12.4 0.8 -2.6
v 12.4 0.8 -2.5
v 12.5 0.8 -2.5
v 12.5 0.8 -2.6
v 12.4 0.8 -2.5
v 12.4 0.7 -2.5
v 12.5 0.7 -2.5
v 12.5 0.8 -2.5
v 12.5 0.8 -2.6
v 12.5 0.7 -2.6
v 12.4 0.7 -2.6
v 12.4 0.8 -2.6
v 12.6 0.8 -2.5
v 12.6 0.7 -2.5
v 12.6 0.7 -2.6
v 12.6 0.8 -2.6
v 12.5 0.8 -2.6
v 12.5 0.8 -2.5
v 12.6 0.8 -2.5
v 12.6 0.8 -2.6
v 12.5 0.8 -2.5
v 12.5 0.7 -2.5
v 12.6 0.7 -2.5
v 12.6 0.8 -2.5
v 12.6 0.8 -2.6
v 12.6 0.7 -2.6
v 12.5 0.7 -2.6
v 12.5 0.8 -2.6
v 12.3 0.7 -2.6
v 12.3 0.6 -2.6
v 12.3 0.6 -2.5
v 12.3 0.7 -2.5
v 12.3 0.6 -2.5
v 12.3 0.6 -2.6
v 12.4 0.6 -2.6
v 12.4 0.6 -2.5
v 12.3 0.7 -2.5
v 12.3 0.6 -2.5
v 12.4 0.6 -2.5
v 12.4 0.7 -2.5
v 12.4 0.7 -2.6
v 12.4 0.6 -2.6
v 12.3 0.6 -2.6
v 12.3 0.7 -2.6
v 12.4 0.6 -2.5
v 12.4 0.6 -2.6
v 12.5 0.6 -2.6
v 12.5 0.6 -2.5
v 12.4 0.7 -2.5
v 12.4 0.6 -2.5
v 12.5 0.6 -2.5
v 12.5 0.7 -2.5
v 12.5 0.7 -2.6
v 12.5 0.6 -2.6
v 12.4 0.6 -2.6
v 12.4 0.7 -2.6
v 12.5 0.7 -2.5
v 12.5 0.6 -2.5
v 12.6 0.6 -2.5
v 12.6 0.7 -2.5
v 12.6 0.7 -2.6
v 12.6 0.6 -2.6
v 12.5 0.6 -2.6
v 12.5 0.7 -2.6
v 12.7 0.7 -2.5
v 12.7 0.6 -2.5
v 12.7 0.6 -2.6
v 12.7 0.7 -2.6
v 12.6 0.7 -2.6
v 12.6 0.7 -2.5
v 12.7 0.7 -2.5
v 12.7 0.7 -2.6
v 12.6 0.7 -2.5
v 12.6 0.6 -2.5
v 12.7 0.6 -2.5
v 12.7 0.7 -2.5
v 12.7 0.7 -2.6
v 12.7 0.6 -2.6
v 12.6 0.6 -2.6
v 12.6 0.7 -2.6
v 12.5 0.6 -2.6
v 12.5 0.5 -2.6
v 12.5 0.5 -2.5
v 12.5 0.6 -2.5
v 12.5 0.5 -2.5
v 12.5 0.5 -2.6
v 12.6 0.5 -2.6
v 12.6 0.5 -2.5
v 12.5 0.6 -2.5
v 12.5 0.5 -2.5
v 12.6 0.5 -2.5
v 12.6 0.6 -2.5
v 12.6 0.6 -2.6
v 12.6 0.5 -2.6
v 12.5 0.5 -2.6
v 12.5 0.6 -2.6
v 12.6 0.6 -2.5
v 12.6 0.5 -2.5
v 12.7 0.5 -2.5
v 12.7 0.6 -2.5
v 12.7 0.6 -2.6
v 12.7 0.5 -2.6
v 12.6 0.5 -2.6
v 12.6 0.6 -2.6
v 12.8 0.6 -2.5
v 12.8 0.5 -2.5
v 12.8 0.5 -2.6
v 12.8 0.6 -2.6
v 12.7 0.6 -2.6
v 12.7 0.6 -2.5
v 12.8 0.6 -2.5
v 12.8 0.6 -2.6
v 12.7 0.6 -2.5
v 12.7 0.5 -2.5
v 12.8 0.5 -2.5
v 12.8 0.6 -2.5
v 12.8 0.6 -2.6
v 12.8 0.5 -2.6
v 12.7 0.5 -2.6
v 12.7 0.6 -2.6
v 12.6 0.5 -2.6
v 12.6 0.4 -2.6
v 12.6 0.4 -2.5
v 12.6 0.5 -2.5
v 12.6 0.4 -2.5
v 12.6 0.4 -2.6
v 12.7 0.4 -2.6
v 12.7 0.4 -2.5
v 12.6 0.5 -2.5
v 12.6 0.4 -2.5
v 12.7 0.4 -2.5
v 12.7 0.5 -2.5
v 12.7 0.5 -2.6
v 12.7 0.4 -2.6
v 12.6 0.4 -2.6
v 12.6 0.5 -2.6
v 12.7 0.4 -2.5
v 12.7 0.4 -2.6
v 12.8 0.4 -2.6
v 12.8 0.4 -2.5
v 12.7 0.5 -2.5
v 12.7 0.4 -2.5
v 12.8 0.4 -2.5
v 12.8 0.5 -2.5
v 12.8 0.5 -2.6
v 12.8 0.4 -2.6
v 12.7 0.4 -2.6
v 12.7 0.5 -2.6
v 12.9 0.5 -2.5
v 12.9 0.4 -2.5
v 12.9 0.4 -2.6
v 12.9 0.5 -2.6
v 12.8 0.5 -2.6
v 12.8 0.5 -2.5
v 12.9 0.5 -2.5
v 12.9 0.5 -2.6
v 12.8 0.5 -2.5
v 12.8 0.4 -2.5
v 12.9 0.4 -2.5
v 12.9 0.5 -2.5
v 12.9 0.5 -2.6
v 12.9 0.4 -2.6
v 12.8 0.4 -2.6
v 12.8 0.5 -2.6
v 12.8 0.4 -2.6
v 12.8 0.3 -2.6
v 12.8 0.3 -2.5
v 12.8 0.4 -2.5
v 12.8 0.3 -2.5
v 12.8 0.3 -2.6
v 12.9 0.3 -2.6
v 12.9 0.3 -2.5
v 12.8 0.4 -2.5
v 12.8 0.3 -2.5
v 12.9 0.3 -2.5
v 12.9 0.4 -2.5
v 12.9 0.4 -2.6
v 12.9 0.3 -2.6
v 12.8 0.3 -2.6
v 12.8 0.4 -2.6
v 13 0.4 -2.5
v 13 0.3 -2.5
v 13 0.3 -2.6
v 13 0.4 -2.6
v 12.9 0.4 -2.6
v 12.9 0.4 -2.5
v 13 0.4 -2.5
v 13 0.4 -2.6
v 12.9 0.3 -2.5
v 12.9 0.3 -2.6
v 13 0.3 -2.6
v 13 0.3 -2.5
v 12.9 0.4 -2.5
v 12.9 0.3 -2.5
v 13 0.3 -2.5
v 13 0.4 -2.5
v 13 0.4 -2.6
v 13 0.3 -2.6
v 12.9 0.3 -2.6
v 12.9 0.4 -2.6
v 13 0.3 -2.6
v 13 0.2 -2.6
v 13 0.2 -2.5
v 13 0.3 -2.5
v 13.1 0.3 -2.5
v 13.1 0.2 -2.5
v 13.1 0.2 -2.6
v 13.1 0.3 -2.6
v 13 0.3 -2.6
v 13 0.3 -2.5
v 13.1 0.3 -2.5
v 13.1 0.3 -2.6
v 13 0.2 -2.5
v 13 0.2 -2.6
v 13.1 0.2 -2.6
v 13.1 0.2 -2.5
v 13 0.3 -2.5
v 13 0.2 -2.5
v 13.1 0.2 -2.5
v 13.1 0.3 -2.5
v 13.1 0.3 -2.6
v 13.1 0.2 -2.6
v 13 0.2 -2.6
v 13 0.3 -2.6

# faces
f 1/2/1 2/2/1 3/2/1 4/2/1
f 5/2/3 6/2/3 7/2/3 8/2/3
f 9/2/5 10/2/5 11/2/5 12/2/5
f 13/2/6 14/2/6 15/2/6 16/2/6
f 17/2/2 18/2/2 19/2/2 20/2/2
f 21/2/3 22/2/3 23/2/3 24/2/3
f 25/2/5 26/2/5 27/2/5 28/2/5
f 29/2/6 30/2/6 31/2/6 32/2/6
f 33/2/1 34/2/1 35/2/1 36/2/1
f 37/2/4 38/2/4 39/2/4 40/2/4
f 41/2/5 42/2/5 43/2/5 44/2/5
f 45/2/6 46/2/6 47/2/6 48/2/6
f 49/2/5 50/2/5 51/2/5 52/2/5
f 53/2/6 54/2/6 55/2/6 56/2/6
f 57/2/3 58/2/3 59/2/3 60/2/3
f 61/2/5 62/2/5 63/2/5 64/2/5
f 65/2/6 66/2/6 67/2/6 68/2/6
f 69/2/2 70/2/2 71/2/2 72/2/2
f 73/2/3 74/2/3 75/2/3 76/2/3
f 77/2/5 78/2/5 79/2/5 80/2/5
f 81/2/6 82/2/6 83/2/6 84/2/6
f 85/2/1 86/2/1 87/2/1 88/2/1
f 89/2/4 90/2/4 91/2/4 92/2/4
f 93/2/5 94/2/5 95/2/5 96/2/5
f 97/2/6 98/2/6 99/2/6 100/2/6
f 101/3/5 102/3/5 103/3/5 104/3/5
f 105/3/6 106/3/6 107/3/6 108/3/6
f 109/2/5 110/2/5 111/2/5 112/2/5
f 113/2/6 114/2/6 115/2/6 116/2/6
f 117/2/2 118/2/2 119/2/2 120/2/2
f 121/2/3 122/2/3 123/2/3 124/2/3
f 125/2/5 126/2/5 127/2/5 128/2/5
f 129/2/6 130/2/6 131/2/6 132/2/6
f 133/2/1 134/2/1 135/2/1 136/2/1
f 137/2/4 138/2/4 139/2/4 140/2/4
f 141/2/5 142/2/5 143/2/5 144/2/5
f 145/2/6 146/2/6 147/2/6 148/2/6
f 149/2/5 150/2/5 151/2/5 152/2/5
f 153/2/6 154/2/6 155/2/6 156/2/6
f 157/3/5 158/3/5 159/3/5 160/3/5
f 161/3/6 162/3/6 163/3/6 164/3/6
f 165/2/2 166/2/2 167/2/2 168/2/2
f 169/2/3 170/2/3 171/2/3 172/2/3
f 173/2/5 174/2/5 175/2/5 176/2/5
f 177/2/6 178/2/6 179/2/6 180/2/6
f 181/2/1 182/2/1 183/2/1 184/2/1
f 185/2/4 186/2/4 187/2/4 188/2/4
f 189/2/5 190/2/5 191/2/5 192/2/5
f 193/2/6 194/2/6 195/2/6 196/2/6
f 197/3/5 198/3/5 199/3/5 200/3/5
f 201/3/6 202/3/6 203/3/6 204/3/6
f 205/3/5 206/3/5 207/3/5 208/3/5
f 209/3/6 210/3/6 211/3/6 212/3/6
f 213/3/3 214/3/3 215/3/3 216/3/3
f 217/3/5 218/3/5 219/3/5 220/3/5
f 221/3/6 222/3/6 223/3/6 224/3/6
f 225/3/2 226/3/2 227/3/2 228/3/2
f 229/3/3 230/3/3 231/3/3 232/3/3
f 233/3/5 234/3/5 235/3/5 236/3/5
f 237/3/6 238/3/6 239/3/6 240/3/6
f 241/3/1 242/3/1 243/3/1 244/3/1
f 245/3/4 246/3/4 247/3/4 248/3/4
f 249/3/5 250/3/5 251/3/5 252/3/5
f 253/3/6 254/3/6 255/3/6 256/3/6
f 257/1/5 258/1/5 259/1/5 260/1/5
f 261/1/6 262/1/6 263/1/6 264/1/6
f 265/3/5 266/3/5 267/3/5 268/3/5
f 269/3/6 270/3/6 271/3/6 272/3/6
f 273/3/5 274/3/5 275/3/5 276/3/5
f 277/3/6 278/3/6 279/3/6 280/3/6
f 281/3/2 282/3/2 283/3/2 284/3/2
f 285/3/3 286/3/3 287/3/3 288/3/3
f 289/3/5 290/3/5 291/3/5 292/3/5
f 293/3/6 294/3/6 295/3/6 296/3/6
f 297/3/1 298/3/1 299/3/1 300/3/1
f 301/3/4 302/3/4 303/3/4 304/3/4
f 305/3/5 306/3/5 307/3/5 308/3/5
f 309/3/6 310/3/6 311/3/6 312/3/6
f 313/1/4 314/1/4 315/1/4 316/1/4
f 317/1/5 318/1/5 319/1/5 320/1/5
f 321/1/6 322/1/6 323/1/6 324/1/6
f 325/3/5 326/3/5 327/3/5 328/3/5
f 329/3/6 330/3/6 331/3/6 332/3/6
f 333/3/5 334/3/5 335/3/5 336/3/5
f 337/3/6 338/3/6 339/3/6 340/3/6
f 341/1/2 342/1/2 343/1/2 344/1/2
f 345/1/3 346/1/3 347/1/3 348/1/3
f 349/1/5 350/1/5 351/1/5 352/1/5
f 353/1/6 354/1/6 355/1/6 356/1/6
f 357/1/1 358/1/1 359/1/1 360/1/1
f 361/1/4 362/1/4 363/1/4 364/1/4
f 365/1/5 366/1/5 367/1/5 368/1/5
f 369/1/6 370/1/6 371/1/6 372/1/6
f 373/3/5 374/3/5 375/3/5 376/3/5
f 377/3/6 378/3/6 379/3/6 380/3/6
f 381/3/5 382/3/5 383/3/5 384/3/5
f 385/3/6 386/3/6 387/3/6 388/3/6
f 389/1/3 390/1/3 391/1/3 392/1/3
f 393/1/5 394/1/5 395/1/5 396/1/5
f 397/1/6 398/1/6 399/1/6 400/1/6
f 401/3/2 402/3/2 403/3/2 404/3/2
f 405/3/3 406/3/3 407/3/3 408/3/3
f 409/3/5 410/3/5 411/3/5 412/3/5
f 413/3/6 414/3/6 415/3/6 416/3/6
f 417/1/1 418/1/1 419/1/1 420/1/1
f 421/1/4 422/1/4 423/1/4 424/1/4
f 425/1/5 426/1/5 427/1/5 428/1/5
f 429/1/6 430/1/6 431/1/6 432/1/6
f 433/1/5 434/1/5 435/1/5 436/1/5
f 437/1/6 438/1/6 439/1/6 440/1/6
f 441/3/5 442/3/5 443/3/5 444/3/5
f 445/3/6 446/3/6 447/3/6 448/3/6
f 449/1/5 450/1/5 451/1/5 452/1/5
f 453/1/6 454/1/6 455/1/6 456/1/6
f 457/1/2 458/1/2 459/1/2 460/1/2
f 461/1/3 462/1/3 463/1/3 464/1/3
f 465/1/5 466/1/5 467/1/5 468/1/5
f 469/1/6 470/1/6 471/1/6 472/1/6
f 473/1/1 474/1/1 475/1/1 476/1/1
f 477/1/4 478/1/4 479/1/4 480/1/4
f 481/1/5 482/1/5 483/1/5 484/1/5
f 485/1/6 486/1/6 487/1/6 488/1/6
f 489/1/5 490/1/5 491/1/5 492/1/5
f 493/1/6 494/1/6 495/1/6 496/1/6
f 497/1/5 498/1/5 499/1/5 500/1/5
f 501/1/6 502/1/6 503/1/6 504/1/6
f 505/1/5 506/1/5 507/1/5 508/1/5
f 509/1/6 510/1/6 511/1/6 512/1/6
f 513/1/2 514/1/2 515/1/2 516/1/2
f 517/1/3 518/1/3 519/1/3 520/1/3
f 521/1/5 522/1/5 523/1/5 524/1/5
f 525/1/6 526/1/6 527/1/6 528/1/6
f 529/1/1 530/1/1 531/1/1 532/1/1
f 533/1/4 534/1/4 535/1/4 536/1/4
f 537/1/5 538/1/5 539/1/5 540/1/5
f 541/1/6 542/1/6 543/1/6 544/1/6
f 545/1/4 546/1/4 547/1/4 548/1/4
f 549/1/5 550/1/5 551/1/5 552/1/5
f 553/1/6 554/1/6 555/1/6 556/1/6
f 557/1/5 558/1/5 559/1/5 560/1/5
f 561/1/6 562/1/6 563/1/6 564/1/6
f 565/1/5 566/1/5 567/1/5 568/1/5
f 569/1/6 570/1/6 571/1/6 572/1/6
f 573/1/2 574/1/2 575/1/2 576/1/2
f 577/1/3 578/1/3 579/1/3 580/1/3
f 581/1/5 582/1/5 583/1/5 584/1/5
f 585/1/6 586/1/6 587/1/6 588/1/6
f 589/1/1 590/1/1 591/1/1 592/1/1
f 593/1/4 594/1/4 595/1/4 596/1/4
f 597/1/5 598/1/5 599/1/5 600/1/5
f 601/1/6 602/1/6 603/1/6 604/1/6
f 605/1/5 606/1/5 607/1/5 608/1/5
f 609/1/6 610/1/6 611/1/6 612/1/6
f 613/1/5 614/1/5 615/1/5 616/1/5
f 617/1/6 618/1/6 619/1/6 620/1/6
f 621/1/3 622/1/3 623/1/3 624/1/3
f 625/1/5 626/1/5 627/1/5 628/1/5
f 629/1/6 630/1/6 631/1/6 632/1/6
f 633/1/2 634/1/2 635/1/2 636/1/2
f 637/1/3 638/1/3 639/1/3 640/1/3
f 641/1/5 642/1/5 643/1/5 644/1/5
f 645/1/6 646/1/6 647/1/6 648/1/6
f 649/2/1 650/2/1 651/2/1 652/2/1
f 653/2/3 654/2/3 655/2/3 656/2/3
f 657/2/5 658/2/5 659/2/5 660/2/5
f 661/2/6 662/2/6 663/2/6 664/2/6
f 665/2/2 666/2/2 667/2/2 668/2/2
f 669/2/3 670/2/3 671/2/3 672/2/3
f 673/2/5 674/2/5 675/2/5 676/2/5
f 677/2/6 678/2/6 679/2/6 680/2/6
f 681/1/1 682/1/1 683/1/1 684/1/1
f 685/1/4 686/1/4 687/1/4 688/1/4
f 689/1/5 690/1/5 691/1/5 692/1/5
f 693/1/6 694/1/6 695/1/6 696/1/6
f 697/1/5 698/1/5 699/1/5 700/1/5
f 701/1/6 702/1/6 703/1/6 704/1/6
f 705/1/5 706/1/5 707/1/5 708/1/5
f 709/1/6 710/1/6 711/1/6 712/1/6
f 713/1/5 714/1/5 715/1/5 716/1/5
f 717/1/6 718/1/6 719/1/6 720/1/6
f 721/1/2 722/1/2 723/1/2 724/1/2
f 725/1/3 726/1/3 727/1/3 728/1/3
f 729/1/5 730/1/5 731/1/5 732/1/5
f 733/1/6 734/1/6 735/1/6 736/1/6
f 737/2/1 738/2/1 739/2/1 740/2/1
f 741/2/4 742/2/4 743/2/4 744/2/4
f 745/2/5 746/2/5 747/2/5 748/2/5
f 749/2/6 750/2/6 751/2/6 752/2/6
f 753/2/5 754/2/5 755/2/5 756/2/5
f 757/2/6 758/2/6 759/2/6 760/2/6
f 761/2/3 762/2/3 763/2/3 764/2/3
f 765/2/5 766/2/5 767/2/5 768/2/5
f 769/2/6 770/2/6 771/2/6 772/2/6
f 773/2/2 774/2/2 775/2/2 776/2/2
f 777/2/3 778/2/3 779/2/3 780/2/3
f 781/2/5 782/2/5 783/2/5 784/2/5
f 785/2/6 786/2/6 787/2/6 788/2/6
f 789/1/1 790/1/1 791/1/1 792/1/1
f 793/1/4 794/1/4 795/1/4 796/1/4
f 797/1/5 798/1/5 799/1/5 800/1/5
f 801/1/6 802/1/6 803/1/6 804/1/6
f 805/1/4 806/1/4 807/1/4 808/1/4
f 809/1/5 810/1/5 811/1/5 812/1/5
f 813/1/6 814/1/6 815/1/6 816/1/6
f 817/1/5 818/1/5 819/1/5 820/1/5
f 821/1/6 822/1/6 823/1/6 824/1/6
f 825/1/5 826/1/5 827/1/5 828/1/5
f 829/1/6 830/1/6 831/1/6 832/1/6
f 833/1/2 834/1/2 835/1/2 836/1/2
f 837/1/3 838/1/3 839/1/3 840/1/3
f 841/1/5 842/1/5 843/1/5 844/1/5
f 845/1/6 846/1/6 847/1/6 848/1/6
f 849/2/1 850/2/1 851/2/1 852/2/1
f 853/2/4 854/2/4 855/2/4 856/2/4
f 857/2/5 858/2/5 859/2/5 860/2/5
f 861/2/6 862/2/6 863/2/6 864/2/6
f 865/3/5 866/3/5 867/3/5 868/3/5
f 869/3/6 870/3/6 871/3/6 872/3/6
f 873/2/5 874/2/5 875/2/5 876/2/5
f 877/2/6 878/2/6 879/2/6 880/2/6
f 881/2/2 882/2/2 883/2/2 884/2/2
f 885/2/3 886/2/3 887/2/3 888/2/3
f 889/2/5 890/2/5 891/2/5 892/2/5
f 893/2/6 894/2/6 895/2/6 896/2/6
f 897/1/1 898/1/1 899/1/1 900/1/1
f 901/1/4 902/1/4 903/1/4 904/1/4
f 905/1/5 906/1/5 907/1/5 908/1/5
f 909/1/6 910/1/6 911/1/6 912/1/6
f 913/1/5 914/1/5 915/1/5 916/1/5
f 917/1/6 918/1/6 919/1/6 920/1/6
f 921/1/5 922/1/5 923/1/5 924/1/5
f 925/1/6 926/1/6 927/1/6 928/1/6
f 929/1/2 930/1/2 931/1/2 932/1/2
f 933/1/3 934/1/3 935/1/3 936/1/3
f 937/1/5 938/1/5 939/1/5 940/1/5
f 941/1/6 942/1/6 943/1/6 944/1/6
f 945/2/1 946/2/1 947/2/1 948/2/1
f 949/2/4 950/2/4 951/2/4 952/2/4
f 953/2/5 954/2/5 955/2/5 956/2/5
f 957/2/6 958/2/6 959/2/6 960/2/6
f 961/2/5 962/2/5 963/2/5 964/2/5
f 965/2/6 966/2/6 967/2/6 968/2/6
f 969/3/5 970/3/5 971/3/5 972/3/5
f 973/3/6 974/3/6 975/3/6 976/3/6
f 977/2/2 978/2/2 979/2/2 980/2/2
f 981/2/3 982/2/3 983/2/3 984/2/3
f 985/2/5 986/2/5 987/2/5 988/2/5
f 989/2/6 990/2/6 991/2/6 992/2/6
f 993/1/1 994/1/1 995/1/1 996/1/1
f 997/1/4 998/1/4 999/1/4 1000/1/4
f 1001/1/5 1002/1/5 1003/1/5 1004/1/5
f 1005/1/6 1006/1/6 1007/1/6 1008/1/6
f 1009/1/5 1010/1/5 1011/1/5 1012/1/5
f 1013/1/6 1014/1/6 1015/1/6 1016/1/6
f 1017/1/5 1018/1/5 1019/1/5 1020/1/5
f 1021/1/6 1022/1/6 1023/1/6 1024/1/6
f 1025/1/3 1026/1/3 1027/1/3 1028/1/3
f 1029/1/5 1030/1/5 1031/1/5 1032/1/5
f 1033/1/6 1034/1/6 1035/1/6 1036/1/6
f 1037/1/2 1038/1/2 1039/1/2 1040/1/2
f 1041/1/3 1042/1/3 1043/1/3 1044/1/3
f 1045/1/5 1046/1/5 1047/1/5 1048/1/5
f 1049/1/6 1050/1/6 1051/1/6 1052/1/6
f 1053/2/1 1054/2/1 1055/2/1 1056/2/1
f 1057/2/4 1058/2/4 1059/2/4 1060/2/4
f 1061/2/5 1062/2/5 1063/2/5 1064/2/5
f 1065/2/6 1066/2/6 1067/2/6 1068/2/6
f 1069/3/5 1070/3/5 1071/3/5 1072/3/5
f 1073/3/6 1074/3/6 1075/3/6 1076/3/6
f 1077/3/5 1078/3/5 1079/3/5 1080/3/5
f 1081/3/6 1082/3/6 1083/3/6 1084/3/6
f 1085/3/3 1086/3/3 1087/3/3 1088/3/3
f 1089/3/5 1090/3/5 1091/3/5 1092/3/5
f 1093/3/6 1094/3/6 1095/3/6 1096/3/6
f 1097/3/2 1098/3/2 1099/3/2 1100/3/2
f 1101/3/3 1102/3/3 1103/3/3 1104/3/3
f 1105/3/5 1106/3/5 1107/3/5 1108/3/5
f 1109/3/6 1110/3/6 1111/3/6 1112/3/6
f 1113/1/1 1114/1/1 1115/1/1 1116/1/1
f 1117/1/4 1118/1/4 1119/1/4 1120/1/4
f 1121/1/5 1122/1/5 1123/1/5 1124/1/5
f 1125/1/6 1126/1/6 1127/1/6 1128/1/6
f 1129/1/4 1130/1/4 1131/1/4 1132/1/4
f 1133/1/5 1134/1/5 1135/1/5 1136/1/5
f 1137/1/6 1138/1/6 1139/1/6 1140/1/6
f 1141/1/5 1142/1/5 1143/1/5 1144/1/5
f 1145/1/6 1146/1/6 1147/1/6 1148/1/6
f 1149/1/5 1150/1/5 1151/1/5 1152/1/5
f 1153/1/6 1154/1/6 1155/1/6 1156/1/6
f 1157/1/2 1158/1/2 1159/1/2 1160/1/2
f 1161/1/3 1162/1/3 1163/1/3 1164/1/3
f 1165/1/5 1166/1/5 1167/1/5 1168/1/5
f 1169/1/6 1170/1/6 1171/1/6 1172/1/6
f 1173/3/1 1174/3/1 1175/3/1 1176/3/1
f 1177/3/4 1178/3/4 1179/3/4 1180/3/4
f 1181/3/5 1182/3/5 1183/3/5 1184/3/5
f 1185/3/6 1186/3/6 1187/3/6 1188/3/6
f 1189/1/5 1190/1/5 1191/1/5 1192/1/5
f 1193/1/6 1194/1/6 1195/1/6 1196/1/6
f 1197/3/5 1198/3/5 1199/3/5 1200/3/5
f 1201/3/6 1202/3/6 1203/3/6 1204/3/6
f 1205/3/5 1206/3/5 1207/3/5 1208/3/5
f 1209/3/6 1210/3/6 1211/3/6 1212/3/6
f 1213/3/2 1214/3/2 1215/3/2 1216/3/2
f 1217/3/3 1218/3/3 1219/3/3 1220/3/3
f 1221/3/5 1222/3/5 1223/3/5 1224/3/5
f 1225/3/6 1226/3/6 1227/3/6 1228/3/6
f 1229/1/1 1230/1/1 1231/1/1 1232/1/1
f 1233/1/4 1234/1/4 1235/1/4 1236/1/4
f 1237/1/5 1238/1/5 1239/1/5 1240/1/5
f 1241/1/6 1242/1/6 1243/1/6 1244/1/6
f 1245/1/5 1246/1/5 1247/1/5 1248/1/5
f 1249/1/6 1250/1/6 1251/1/6 1252/1/6
f 1253/1/5 1254/1/5 1255/1/5 1256/1/5
f 1257/1/6 1258/1/6 1259/1/6 1260/1/6
f 1261/1/2 1262/1/2 1263/1/2 1264/1/2
f 1265/1/3 1266/1/3 1267/1/3 1268/1/3
f 1269/1/5 1270/1/5 1271/1/5 1272/1/5
f 1273/1/6 1274/1/6 1275/1/6 1276/1/6
f 1277/3/1 1278/3/1 1279/3/1 1280/3/1
f 1281/3/4 1282/3/4 1283/3/4 1284/3/4
f 1285/3/5 1286/3/5 1287/3/5 1288/3/5
f 1289/3/6 1290/3/6 1291/3/6 1292/3/6
f 1293/1/4 1294/1/4 1295/1/4 1296/1/4
f 1297/1/5 1298/1/5 1299/1/5 1300/1/5
f 1301/1/6 1302/1/6 1303/1/6 1304/1/6
f 1305/3/5 1306/3/5 1307/3/5 1308/3/5
f 1309/3/6 1310/3/6 1311/3/6 1312/3/6
f 1313/3/5 1314/3/5 1315/3/5 1316/3/5
f 1317/3/6 1318/3/6 1319/3/6 1320/3/6
f 1321/1/2 1322/1/2 1323/1/2 1324/1/2
f 1325/1/3 1326/1/3 1327/1/3 1328/1/3
f 1329/1/5 1330/1/5 1331/1/5 1332/1/5
f 1333/1/6 1334/1/6 1335/1/6 1336/1/6
f 1337/1/1 1338/1/1 1339/1/1 1340/1/1
f 1341/1/4 1342/1/4 1343/1/4 1344/1/4
f 1345/1/5 1346/1/5 1347/1/5 1348/1/5
f 1349/1/6 1350/1/6 1351/1/6 1352/1/6
f 1353/1/4 1354/1/4 1355/1/4 1356/1/4
f 1357/1/5 1358/1/5 1359/1/5 1360/1/5
f 1361/1/6 1362/1/6 1363/1/6 1364/1/6
f 1365/1/5 1366/1/5 1367/1/5 1368/1/5
f 1369/1/6 1370/1/6 1371/1/6 1372/1/6
f 1373/1/2 1374/1/2 1375/1/2 1376/1/2
f 1377/1/3 1378/1/3 1379/1/3 1380/1/3
f 1381/1/5 1382/1/5 1383/1/5 1384/1/5
f 1385/1/6 1386/1/6 1387/1/6 1388/1/6
f 1389/1/1 1390/1/1 1391/1/1 1392/1/1
f 1393/1/4 1394/1/4 1395/1/4 1396/1/4
f 1397/1/5 1398/1/5 1399/1/5 1400/1/5
f 1401/1/6 1402/1/6 1403/1/6 1404/1/6
f 1405/3/5 1406/3/5 1407/3/5 1408/3/5
f 1409/3/6 1410/3/6 1411/3/6 1412/3/6
f 1413/3/5 1414/3/5 1415/3/5 1416/3/5
f 1417/3/6 1418/3/6 1419/3/6 1420/3/6
f 1421/1/3 1422/1/3 1423/1/3 1424/1/3
f 1425/1/5 1426/1/5 1427/1/5 1428/1/5
f 1429/1/6 1430/1/6 1431/1/6 1432/1/6
f 1433/3/2 1434/3/2 1435/3/2 1436/3/2
f 1437/3/3 1438/3/3 1439/3/3 1440/3/3
f 1441/3/5 1442/3/5 1443/3/5 1444/3/5
f 1445/3/6 1446/3/6 1447/3/6 1448/3/6
f 1449/1/1 1450/1/1 1451/1/1 1452/1/1
f 1453/1/4 1454/1/4 1455/1/4 1456/1/4
f 1457/1/5 1458/1/5 1459/1/5 1460/1/5
f 1461/1/6 1462/1/6 1463/1/6 1464/1/6
f 1465/1/5 1466/1/5 1467/1/5 1468/1/5
f 1469/1/6 1470/1/6 1471/1/6 1472/1/6
f 1473/1/3 1474/1/3 1475/1/3 1476/1/3
f 1477/1/5 1478/1/5 1479/1/5 1480/1/5
f 1481/1/6 1482/1/6 1483/1/6 1484/1/6
f 1485/1/2 1486/1/2 1487/1/2 1488/1/2
f 1489/1/3 1490/1/3 1491/1/3 1492/1/3
f 1493/1/5 1494/1/5 1495/1/5 1496/1/5
f 1497/1/6 1498/1/6 1499/1/6 1500/1/6
f 1501/1/1 1502/1/1 1503/1/1 1504/1/1
f 1505/1/4 1506/1/4 1507/1/4 1508/1/4
f 1509/1/5 1510/1/5 1511/1/5 1512/1/5
f 1513/1/6 1514/1/6 1515/1/6 1516/1/6
f 1517/1/5 1518/1/5 1519/1/5 1520/1/5
f 1521/1/6 1522/1/6 1523/1/6 1524/1/6
f 1525/3/5 1526/3/5 1527/3/5 1528/3/5
f 1529/3/6 1530/3/6 1531/3/6 1532/3/6
f 1533/1/5 1534/1/5 1535/1/5 1536/1/5
f 1537/1/6 1538/1/6 1539/1/6 1540/1/6
f 1541/1/2 1542/1/2 1543/1/2 1544/1/2
f 1545/1/3 1546/1/3 1547/1/3 1548/1/3
f 1549/1/5 1550/1/5 1551/1/5 1552/1/5
f 1553/1/6 1554/1/6 1555/1/6 1556/1/6
f 1557/1/1 1558/1/1 1559/1/1 1560/1/1
f 1561/1/4 1562/1/4 1563/1/4 1564/1/4
f 1565/1/5 1566/1/5 1567/1/5 1568/1/5
f 1569/1/6 1570/1/6 1571/1/6 1572/1/6
f 1573/1/4 1574/1/4 1575/1/4 1576/1/4
f 1577/1/5 1578/1/5 1579/1/5 1580/1/5
f 1581/1/6 1582/1/6 1583/1/6 1584/1/6
f 1585/1/5 1586/1/5 1587/1/5 1588/1/5
f 1589/1/6 1590/1/6 1591/1/6 1592/1/6
f 1593/1/2 1594/1/2 1595/1/2 1596/1/2
f 1597/1/3 1598/1/3 1599/1/3 1600/1/3
f 1601/1/5 1602/1/5 1603/1/5 1604/1/5
f 1605/1/6 1606/1/6 1607/1/6 1608/1/6
f 1609/1/1 1610/1/1 1611/1/1 1612/1/1
f 1613/1/4 1614/1/4 1615/1/4 1616/1/4
f 1617/1/5 1618/1/5 1619/1/5 1620/1/5
f 1621/1/6 1622/1/6 1623/1/6 1624/1/6
f 1625/1/5 1626/1/5 1627/1/5 1628/1/5
f 1629/1/6 1630/1/6 1631/1/6 1632/1/6
f 1633/1/5 1634/1/5 1635/1/5 1636/1/5
f 1637/1/6 1638/1/6 1639/1/6 1640/1/6
f 1641/1/5 1642/1/5 1643/1/5 1644/1/5
f 1645/1/6 1646/1/6 1647/1/6 1648/1/6
f 1649/1/2 1650/1/2 1651/1/2 1652/1/2
f 1653/1/3 1654/1/3 1655/1/3 1656/1/3
f 1657/1/5 1658/1/5 1659/1/5 1660/1/5
f 1661/1/6 1662/1/6 1663/1/6 1664/1/6
f 1665/1/1 1666/1/1 1667/1/1 1668/1/1
f 1669/1/4 1670/1/4 1671/1/4 1672/1/4
f 1673/1/5 1674/1/5 1675/1/5 1676/1/5
f 1677/1/6 1678/1/6 1679/1/6 1680/1/6
f 1681/1/5 1682/1/5 1683/1/5 1684/1/5
f 1685/1/6 1686/1/6 1687/1/6 1688/1/6
f 1689/1/2 1690/1/2 1691/1/2 1692/1/2
f 1693/1/3 1694/1/3 1695/1/3 1696/1/3
f 1697/1/5 1698/1/5 1699/1/5 1700/1/5
f 1701/1/6 1702/1/6 1703/1/6 1704/1/6
f 1705/1/1 1706/1/1 1707/1/1 1708/1/1
f 1709/1/4 1710/1/4 1711/1/4 1712/1/4
f 1713/1/5 1714/1/5 1715/1/5 1716/1/5
f 1717/1/6 1718/1/6 1719/1/6 1720/1/6
f 1721/1/4 1722/1/4 1723/1/4 1724/1/4
f 1725/1/5 1726/1/5 1727/1/5 1728/1/5
f 1729/1/6 1730/1/6 1731/1/6 1732/1/6
f 1733/1/5 1734/1/5 1735/1/5 1736/1/5
f 1737/1/6 1738/1/6 1739/1/6 1740/1/6
f 1741/1/5 1742/1/5 1743/1/5 1744/1/5
f 1745/1/6 1746/1/6 1747/1/6 1748/1/6
f 1749/1/2 1750/1/2 1751/1/2 1752/1/2
f 1753/1/3 1754/1/3 1755/1/3 1756/1/3
f 1757/1/5 1758/1/5 1759/1/5 1760/1/5
f 1761/1/6 1762/1/6 1763/1/6 1764/1/6
f 1765/1/1 1766/1/1 1767/1/1 1768/1/1
f 1769/1/4 1770/1/4 1771/1/4 1772/1/4
f 1773/1/5 1774/1/5 1775/1/5 1776/1/5
f 1777/1/6 1778/1/6 1779/1/6 1780/1/6
f 1781/1/4 1782/1/4 1783/1/4 1784/1/4
f 1785/1/5 1786/1/5 1787/1/5 1788/1/5
f 1789/1/6 1790/1/6 1791/1/6 1792/1/6
f 1793/1/2 1794/1/2 1795/1/2 1796/1/2
f 1797/1/3 1798/1/3 1799/1/3 1800/1/3
f 1801/1/5 1802/1/5 1803/1/5 1804/1/5
f 1805/1/6 1806/1/6 1807/1/6 1808/1/6
f 1809/1/1 1810/1/1 1811/1/1 1812/1/1
f 1813/1/4 1814/1/4 1815/1/4 1816/1/4
f 1817/1/5 1818/1/5 1819/1/5 1820/1/5
f 1821/1/6 1822/1/6 1823/1/6 1824/1/6
f 1825/1/5 1826/1/5 1827/1/5 1828/1/5
f 1829/1/6 1830/1/6 1831/1/6 1832/1/6
f 1833/1/5 1834/1/5 1835/1/5 1836/1/5
f 1837/1/6 1838/1/6 1839/1/6 1840/1/6
f 1841/1/3 1842/1/3 1843/1/3 1844/1/3
f 1845/1/5 1846/1/5 1847/1/5 1848/1/5
f 1849/1/6 1850/1/6 1851/1/6 1852/1/6
f 1853/1/2 1854/1/2 1855/1/2 1856/1/2
f 1857/1/3 1858/1/3 1859/1/3 1860/1/3
f 1861/1/5 1862/1/5 1863/1/5 1864/1/5
f 1865/1/6 1866/1/6 1867/1/6 1868/1/6
f 1869/1/1 1870/1/1 1871/1/1 1872/1/1
f 1873/1/4 1874/1/4 1875/1/4 1876/1/4
f 1877/1/5 1878/1/5 1879/1/5 1880/1/5
f 1881/1/6 1882/1/6 1883/1/6 1884/1/6
f 1885/1/2 1886/1/2 1887/1/2 1888/1/2
f 1889/1/3 1890/1/3 1891/1/3 1892/1/3
f 1893/1/4 1894/1/4 1895/1/4 1896/1/4
f 1897/1/5 1898/1/5 1899/1/5 1900/1/5
f 1901/1/6 1902/1/6 1903/1/6 1904/1/6
f 1905/2/1 1906/2/1 1907/2/1 1908/2/1
f 1909/2/3 1910/2/3 1911/2/3 1912/2/3
f 1913/2/5 1914/2/5 1915/2/5 1916/2/5
f 1917/2/6 1918/2/6 1919/2/6 1920/2/6
f 1921/2/2 1922/2/2 1923/2/2 1924/2/2
f 1925/2/3 1926/2/3 1927/2/3 1928/2/3
f 1929/2/5 1930/2/5 1931/2/5 1932/2/5
f 1933/2/6 1934/2/6 1935/2/6 1936/2/6
f 1937/1/1 1938/1/1 1939/1/1 1940/1/1
f 1941/1/4 1942/1/4 1943/1/4 1944/1/4
f 1945/1/5 1946/1/5 1947/1/5 1948/1/5
f 1949/1/6 1950/1/6 1951/1/6 1952/1/6
f 1953/1/5 1954/1/5 1955/1/5 1956/1/5
f 1957/1/6 1958/1/6 1959/1/6 1960/1/6
f 1961/1/5 1962/1/5 1963/1/5 1964/1/5
f 1965/1/6 1966/1/6 1967/1/6 1968/1/6
f 1969/1/5 1970/1/5 1971/1/5 1972/1/5
f 1973/1/6 1974/1/6 1975/1/6 1976/1/6
f 1977/1/2 1978/1/2 1979/1/2 1980/1/2
f 1981/1/3 1982/1/3 1983/1/3 1984/1/3
f 1985/1/5 1986/1/5 1987/1/5 1988/1/5
f 1989/1/6 1990/1/6 1991/1/6 1992/1/6
f 1993/1/1 1994/1/1 1995/1/1 1996/1/1
f 1997/1/2 1998/1/2 1999/1/2 2000/1/2
f 2001/1/3 2002/1/3 2003/1/3 2004/1/3
f 2005/1/4 2006/1/4 2007/1/4 2008/1/4
f 2009/1/5 2010/1/5 2011/1/5 2012/1/5
f 2013/1/6 2014/1/6 2015/1/6 2016/1/6
f 2017/2/1 2018/2/1 2019/2/1 2020/2/1
f 2021/2/4 2022/2/4 2023/2/4 2024/2/4
f 2025/2/5 2026/2/5 2027/2/5 2028/2/5
f 2029/2/6 2030/2/6 2031/2/6 2032/2/6
f 2033/2/5 2034/2/5 2035/2/5 2036/2/5
f 2037/2/6 2038/2/6 2039/2/6 2040/2/6
f 2041/2/3 2042/2/3 2043/2/3 2044/2/3
f 2045/2/5 2046/2/5 2047/2/5 2048/2/5
f 2049/2/6 2050/2/6 2051/2/6 2052/2/6
f 2053/2/2 2054/2/2 2055/2/2 2056/2/2
f 2057/2/3 2058/2/3 2059/2/3 2060/2/3
f 2061/2/5 2062/2/5 2063/2/5 2064/2/5
f 2065/2/6 2066/2/6 2067/2/6 2068/2/6
f 2069/1/1 2070/1/1 2071/1/1 2072/1/1
f 2073/1/4 2074/1/4 2075/1/4 2076/1/4
f 2077/1/5 2078/1/5 2079/1/5 2080/1/5
f 2081/1/6 2082/1/6 2083/1/6 2084/1/6
f 2085/1/4 2086/1/4 2087/1/4 2088/1/4
f 2089/1/5 2090/1/5 2091/1/5 2092/1/5
f 2093/1/6 2094/1/6 2095/1/6 2096/1/6
f 2097/1/5 2098/1/5 2099/1/5 2100/1/5
f 2101/1/6 2102/1/6 2103/1/6 2104/1/6
f 2105/1/5 2106/1/5 2107/1/5 2108/1/5
f 2109/1/6 2110/1/6 2111/1/6 2112/1/6
f 2113/1/2 2114/1/2 2115/1/2 2116/1/2
f 2117/1/3 2118/1/3 2119/1/3 2120/1/3
f 2121/1/5 2122/1/5 2123/1/5 2124/1/5
f 2125/1/6 2126/1/6 2127/1/6 2128/1/6
f 2129/2/1 2130/2/1 2131/2/1 2132/2/1
f 2133/2/4 2134/2/4 2135/2/4 2136/2/4
f 2137/2/5 2138/2/5 2139/2/5 2140/2/5
f 2141/2/6 2142/2/6 2143/2/6 2144/2/6
f 2145/3/5 2146/3/5 2147/3/5 2148/3/5
f 2149/3/6 2150/3/6 2151/3/6 2152/3/6
f 2153/2/5 2154/2/5 2155/2/5 2156/2/5
f 2157/2/6 2158/2/6 2159/2/6 2160/2/6
f 2161/2/2 2162/2/2 2163/2/2 2164/2/2
f 2165/2/3 2166/2/3 2167/2/3 2168/2/3
f 2169/2/5 2170/2/5 2171/2/5 2172/2/5
f 2173/2/6 2174/2/6 2175/2/6 2176/2/6
f 2177/1/1 2178/1/1 2179/1/1 2180/1/1
f 2181/1/4 2182/1/4 2183/1/4 2184/1/4
f 2185/1/5 2186/1/5 2187/1/5 2188/1/5
f 2189/1/6 2190/1/6 2191/1/6 2192/1/6
f 2193/1/5 2194/1/5 2195/1/5 2196/1/5
f 2197/1/6 2198/1/6 2199/1/6 2200/1/6
f 2201/1/5 2202/1/5 2203/1/5 2204/1/5
f 2205/1/6 2206/1/6 2207/1/6 2208/1/6
f 2209/1/2 2210/1/2 2211/1/2 2212/1/2
f 2213/1/3 2214/1/3 2215/1/3 2216/1/3
f 2217/1/5 2218/1/5 2219/1/5 2220/1/5
f 2221/1/6 2222/1/6 2223/1/6 2224/1/6
f 2225/2/1 2226/2/1 2227/2/1 2228/2/1
f 2229/2/4 2230/2/4 2231/2/4 2232/2/4
f 2233/2/5 2234/2/5 2235/2/5 2236/2/5
f 2237/2/6 2238/2/6 2239/2/6 2240/2/6
f 2241/2/5 2242/2/5 2243/2/5 2244/2/5
f 2245/2/6 2246/2/6 2247/2/6 2248/2/6
f 2249/3/5 2250/3/5 2251/3/5 2252/3/5
f 2253/3/6 2254/3/6 2255/3/6 2256/3/6
f 2257/2/2 2258/2/2 2259/2/2 2260/2/2
f 2261/2/3 2262/2/3 2263/2/3 2264/2/3
f 2265/2/5 2266/2/5 2267/2/5 2268/2/5
f 2269/2/6 2270/2/6 2271/2/6 2272/2/6
f 2273/1/1 2274/1/1 2275/1/1 2276/1/1
f 2277/1/4 2278/1/4 2279/1/4 2280/1/4
f 2281/1/5 2282/1/5 2283/1/5 2284/1/5
f 2285/1/6 2286/1/6 2287/1/6 2288/1/6
f 2289/1/5 2290/1/5 2291/1/5 2292/1/5
f 2293/1/6 2294/1/6 2295/1/6 2296/1/6
f 2297/1/5 2298/1/5 2299/1/5 2300/1/5
f 2301/1/6 2302/1/6 2303/1/6 2304/1/6
f 2305/1/3 2306/1/3 2307/1/3 2308/1/3
f 2309/1/5 2310/1/5 2311/1/5 2312/1/5
f 2313/1/6 2314/1/6 2315/1/6 2316/1/6
f 2317/1/2 2318/1/2 2319/1/2 2320/1/2
f 2321/1/3 2322/1/3 2323/1/3 2324/1/3
f 2325/1/5 2326/1/5 2327/1/5 2328/1/5
f 2329/1/6 2330/1/6 2331/1/6 2332/1/6
f 2333/2/1 2334/2/1 2335/2/1 2336/2/1
f 2337/2/4 2338/2/4 2339/2/4 2340/2/4
f 2341/2/5 2342/2/5 2343/2/5 2344/2/5
f 2345/2/6 2346/2/6 2347/2/6 2348/2/6
f 2349/3/5 2350/3/5 2351/3/5 2352/3/5
f 2353/3/6 2354/3/6 2355/3/6 2356/3/6
f 2357/3/5 2358/3/5 2359/3/5 2360/3/5
f 2361/3/6 2362/3/6 2363/3/6 2364/3/6
f 2365/3/3 2366/3/3 2367/3/3 2368/3/3
f 2369/3/5 2370/3/5 2371/3/5 2372/3/5
f 2373/3/6 2374/3/6 2375/3/6 2376/3/6
f 2377/3/2 2378/3/2 2379/3/2 2380/3/2
f 2381/3/3 2382/3/3 2383/3/3 2384/3/3
f 2385/3/5 2386/3/5 2387/3/5 2388/3/5
f 2389/3/6 2390/3/6 2391/3/6 2392/3/6
f 2393/1/1 2394/1/1 2395/1/1 2396/1/1
f 2397/1/4 2398/1/4 2399/1/4 2400/1/4
f 2401/1/5 2402/1/5 2403/1/5 2404/1/5
f 2405/1/6 2406/1/6 2407/1/6 2408/1/6
f 2409/1/4 2410/1/4 2411/1/4 2412/1/4
f 2413/1/5 2414/1/5 2415/1/5 2416/1/5
f 2417/1/6 2418/1/6 2419/1/6 2420/1/6
f 2421/1/5 2422/1/5 2423/1/5 2424/1/5
f 2425/1/6 2426/1/6 2427/1/6 2428/1/6
f 2429/1/5 2430/1/5 2431/1/5 2432/1/5
f 2433/1/6 2434/1/6 2435/1/6 2436/1/6
f 2437/1/2 2438/1/2 2439/1/2 2440/1/2
f 2441/1/3 2442/1/3 2443/1/3 2444/1/3
f 2445/1/5 2446/1/5 2447/1/5 2448/1/5
f 2449/1/6 2450/1/6 2451/1/6 2452/1/6
f 2453/3/1 2454/3/1 2455/3/1 2456/3/1
f 2457/3/4 2458/3/4 2459/3/4 2460/3/4
f 2461/3/5 2462/3/5 2463/3/5 2464/3/5
f 2465/3/6 2466/3/6 2467/3/6 2468/3/6
f 2469/1/5 2470/1/5 2471/1/5 2472/1/5
f 2473/1/6 2474/1/6 2475/1/6 2476/1/6
f 2477/3/5 2478/3/5 2479/3/5 2480/3/5
f 2481/3/6 2482/3/6 2483/3/6 2484/3/6
f 2485/3/5 2486/3/5 2487/3/5 2488/3/5
f 2489/3/6 2490/3/6 2491/3/6 2492/3/6
f 2493/3/2 2494/3/2 2495/3/2 2496/3/2
f 2497/3/3 2498/3/3 2499/3/3 2500/3/3
f 2501/3/5 2502/3/5 2503/3/5 2504/3/5
f 2505/3/6 2506/3/6 2507/3/6 2508/3/6
f 2509/1/1 2510/1/1 2511/1/1 2512/1/1
f 2513/1/4 2514/1/4 2515/1/4 2516/1/4
f 2517/1/5 2518/1/5 2519/1/5 2520/1/5
f 2521/1/6 2522/1/6 2523/1/6 2524/1/6
f 2525/1/5 2526/1/5 2527/1/5 2528/1/5
f 2529/1/6 2530/1/6 2531/1/6 2532/1/6
f 2533/1/5 2534/1/5 2535/1/5 2536/1/5
f 2537/1/6 2538/1/6 2539/1/6 2540/1/6
f 2541/1/2 2542/1/2 2543/1/2 2544/1/2
f 2545/1/3 2546/1/3 2547/1/3 2548/1/3
f 2549/1/5 2550/1/5 2551/1/5 2552/1/5
f 2553/1/6 2554/1/6 2555/1/6 2556/1/6
f 2557/3/1 2558/3/1 2559/3/1 2560/3/1
f 2561/3/4 2562/3/4 2563/3/4 2564/3/4
f 2565/3/5 2566/3/5 2567/3/5 2568/3/5
f 2569/3/6 2570/3/6 2571/3/6 2572/3/6
f 2573/1/4 2574/1/4 2575/1/4 2576/1/4
f 2577/1/5 2578/1/5 2579/1/5 2580/1/5
f 2581/1/6 2582/1/6 2583/1/6 2584/1/6
f 2585/3/5 2586/3/5 2587/3/5 2588/3/5
f 2589/3/6 2590/3/6 2591/3/6 2592/3/6
f 2593/3/5 2594/3/5 2595/3/5 2596/3/5
f 2597/3/6 2598/3/6 2599/3/6 2600/3/6
f 2601/1/2 2602/1/2 2603/1/2 2604/1/2
f 2605/1/3 2606/1/3 2607/1/3 2608/1/3
f 2609/1/5 2610/1/5 2611/1/5 2612/1/5
f 2613/1/6 2614/1/6 2615/1/6 2616/1/6
f 2617/1/1 2618/1/1 2619/1/1 2620/1/1
f 2621/1/4 2622/1/4 2623/1/4 2624/1/4
f 2625/1/5 2626/1/5 2627/1/5 2628/1/5
f 2629/1/6 2630/1/6 2631/1/6 2632/1/6
f 2633/1/4 2634/1/4 2635/1/4 2636/1/4
f 2637/1/5 2638/1/5 2639/1/5 2640/1/5
f 2641/1/6 2642/1/6 2643/1/6 2644/1/6
f 2645/1/5 2646/1/5 2647/1/5 2648/1/5
f 2649/1/6 2650/1/6 2651/1/6 2652/1/6
f 2653/1/2 2654/1/2 2655/1/2 2656/1/2
f 2657/1/3 2658/1/3 2659/1/3 2660/1/3
f 2661/1/5 2662/1/5 2663/1/5 2664/1/5
f 2665/1/6 2666/1/6 2667/1/6 2668/1/6
f 2669/1/1 2670/1/1 2671/1/1 2672/1/1
f 2673/1/4 2674/1/4 2675/1/4 2676/1/4
f 2677/1/5 2678/1/5 2679/1/5 2680/1/5
f 2681/1/6 2682/1/6 2683/1/6 2684/1/6
f 2685/3/5 2686/3/5 2687/3/5 2688/3/5
f 2689/3/6 2690/3/6 2691/3/6 2692/3/6
f 2693/3/5 2694/3/5 2695/3/5 2696/3/5
f 2697/3/6 2698/3/6 2699/3/6 2700/3/6
f 2701/1/3 2702/1/3 2703/1/3 2704/1/3
f 2705/1/5 2706/1/5 2707/1/5 2708/1/5
f 2709/1/6 2710/1/6 2711/1/6 2712/1/6
f 2713/3/2 2714/3/2 2715/3/2 2716/3/2
f 2717/3/3 2718/3/3 2719/3/3 2720/3/3
f 2721/3/5 2722/3/5 2723/3/5 2724/3/5
f 2725/3/6 2726/3/6 2727/3/6 2728/3/6
f 2729/1/1 2730/1/1 2731/1/1 2732/1/1
f 2733/1/4 2734/1/4 2735/1/4 2736/1/4
f 2737/1/5 2738/1/5 2739/1/5 2740/1/5
f 2741/1/6 2742/1/6 2743/1/6 2744/1/6
f 2745/1/5 2746/1/5 2747/1/5 2748/1/5
f 2749/1/6 2750/1/6 2751/1/6 2752/1/6
f 2753/1/3 2754/1/3 2755/1/3 2756/1/3
f 2757/1/5 2758/1/5 2759/1/5 2760/1/5
f 2761/1/6 2762/1/6 2763/1/6 2764/1/6
f 2765/1/2 2766/1/2 2767/1/2 2768/1/2
f 2769/1/3 2770/1/3 2771/1/3 2772/1/3
f 2773/1/5 2774/1/5 2775/1/5 2776/1/5
f 2777/1/6 2778/1/6 2779/1/6 2780/1/6
f 2781/1/1 2782/1/1 2783/1/1 2784/1/1
f 2785/1/4 2786/1/4 2787/1/4 2788/1/4
f 2789/1/5 2790/1/5 2791/1/5 2792/1/5
f 2793/1/6 2794/1/6 2795/1/6 2796/1/6
f 2797/1/5 2798/1/5 2799/1/5 2800/1/5
f 2801/1/6 2802/1/6 2803/1/6 2804/1/6
f 2805/3/5 2806/3/5 2807/3/5 2808/3/5
f 2809/3/6 2810/3/6 2811/3/6 2812/3/6
f 2813/1/5 2814/1/5 2815/1/5 2816/1/5
f 2817/1/6 2818/1/6 2819/1/6 2820/1/6
f 2821/1/2 2822/1/2 2823/1/2 2824/1/2
f 2825/1/3 2826/1/3 2827/1/3 2828/1/3
f 2829/1/5 2830/1/5 2831/1/5 2832/1/5
f 2833/1/6 2834/1/6 2835/1/6 2836/1/6
f 2837/1/1 2838/1/1 2839/1/1 2840/1/1
f 2841/1/4 2842/1/4 2843/1/4 2844/1/4
f 2845/1/5 2846/1/5 2847/1/5 2848/1/5
f 2849/1/6 2850/1/6 2851/1/6 2852/1/6
f 2853/1/4 2854/1/4 2855/1/4 2856/1/4
f 2857/1/5 2858/1/5 2859/1/5 2860/1/5
f 2861/1/6 2862/1/6 2863/1/6 2864/1/6
f 2865/1/5 2866/1/5 2867/1/5 2868/1/5
f 2869/1/6 2870/1/6 2871/1/6 2872/1/6
f 2873/1/2 2874/1/2 2875/1/2 2876/1/2
f 2877/1/3 2878/1/3 2879/1/3 2880/1/3
f 2881/1/5 2882/1/5 2883/1/5 2884/1/5
f 2885/1/6 2886/1/6 2887/1/6 2888/1/6
f 2889/1/1 2890/1/1 2891/1/1 2892/1/1
f 2893/1/4 2894/1/4 2895/1/4 2896/1/4
f 2897/1/5 2898/1/5 2899/1/5 2900/1/5
f 2901/1/6 2902/1/6 2903/1/6 2904/1/6
f 2905/1/5 2906/1/5 2907/1/5 2908/1/5
f 2909/1/6 2910/1/6 2911/1/6 2912/1/6
f 2913/1/5 2914/1/5 2915/1/5 2916/1/5
f 2917/1/6 2918/1/6 2919/1/6 2920/1/6
f 2921/1/5 2922/1/5 2923/1/5 2924/1/5
f 2925/1/6 2926/1/6 2927/1/6 2928/1/6
f 2929/1/2 2930/1/2 2931/1/2 2932/1/2
f 2933/1/3 2934/1/3 2935/1/3 2936/1/3
f 2937/1/5 2938/1/5 2939/1/5 2940/1/5
f 2941/1/6 2942/1/6 2943/1/6 2944/1/6
f 2945/1/1 2946/1/1 2947/1/1 2948/1/1
f 2949/1/4 2950/1/4 2951/1/4 2952/1/4
f 2953/1/5 2954/1/5 2955/1/5 2956/1/5
f 2957/1/6 2958/1/6 2959/1/6 2960/1/6
f 2961/1/5 2962/1/5 2963/1/5 2964/1/5
f 2965/1/6 2966/1/6 2967/1/6 2968/1/6
f 2969/1/2 2970/1/2 2971/1/2 2972/1/2
f 2973/1/3 2974/1/3 2975/1/3 2976/1/3
f 2977/1/5 2978/1/5 2979/1/5 2980/1/5
f 2981/1/6 2982/1/6 2983/1/6 2984/1/6
f 2985/1/1 2986/1/1 2987/1/1 2988/1/1
f 2989/1/4 2990/1/4 2991/1/4 2992/1/4
f 2993/1/5 2994/1/5 2995/1/5 2996/1/5
f 2997/1/6 2998/1/6 2999/1/6 3000/1/6
f 3001/1/4 3002/1/4 3003/1/4 3004/1/4
f 3005/1/5 3006/1/5 3007/1/5 3008/1/5
f 3009/1/6 3010/1/6 3011/1/6 3012/1/6
f 3013/1/5 3014/1/5 3015/1/5 3016/1/5
f 3017/1/6 3018/1/6 3019/1/6 3020/1/6
f 3021/1/5 3022/1/5 3023/1/5 3024/1/5
f 3025/1/6 3026/1/6 3027/1/6 3028/1/6
f 3029/1/2 3030/1/2 3031/1/2 3032/1/2
f 3033/1/3 3034/1/3 3035/1/3 3036/1/3
f 3037/1/5 3038/1/5 3039/1/5 3040/1/5
f 3041/1/6 3042/1/6 3043/1/6 3044/1/6
f 3045/1/1 3046/1/1 3047/1/1 3048/1/1
f 3049/1/4 3050/1/4 3051/1/4 3052/1/4
f 3053/1/5 3054/1/5 3055/1/5 3056/1/5
f 3057/1/6 3058/1/6 3059/1/6 3060/1/6
f 3061/1/4 3062/1/4 3063/1/4 3064/1/4
f 3065/1/5 3066/1/5 3067/1/5 3068/1/5
f 3069/1/6 3070/1/6 3071/1/6 3072/1/6
f 3073/1/2 3074/1/2 3075/1/2 3076/1/2
f 3077/1/3 3078/1/3 3079/1/3 3080/1/3
f 3081/1/5 3082/1/5 3083/1/5 3084/1/5
f 3085/1/6 3086/1/6 3087/1/6 3088/1/6
f 3089/1/1 3090/1/1 3091/1/1 3092/1/1
f 3093/1/4 3094/1/4 3095/1/4 3096/1/4
f 3097/1/5 3098/1/5 3099/1/5 3100/1/5
f 3101/1/6 3102/1/6 3103/1/6 3104/1/6
f 3105/1/5 3106/1/5 3107/1/5 3108/1/5
f 3109/1/6 3110/1/6 3111/1/6 3112/1/6
f 3113/1/5 3114/1/5 3115/1/5 3116/1/5
f 3117/1/6 3118/1/6 3119/1/6 3120/1/6
f 3121/1/3 3122/1/3 3123/1/3 3124/1/3
f 3125/1/5 3126/1/5 3127/1/5 3128/1/5
f 3129/1/6 3130/1/6 3131/1/6 3132/1/6
f 3133/1/2 3134/1/2 3135/1/2 3136/1/2
f 3137/1/3 3138/1/3 3139/1/3 3140/1/3
f 3141/1/5 3142/1/5 3143/1/5 3144/1/5
f 3145/1/6 3146/1/6 3147/1/6 3148/1/6
f 3149/1/1 3150/1/1 3151/1/1 3152/1/1
f 3153/1/4 3154/1/4 3155/1/4 3156/1/4
f 3157/1/5 3158/1/5 3159/1/5 3160/1/5
f 3161/1/6 3162/1/6 3163/1/6 3164/1/6
f 3165/1/2 3166/1/2 3167/1/2 3168/1/2
f 3169/1/3 3170/1/3 3171/1/3 3172/1/3
f 3173/1/4 3174/1/4 3175/1/4 3176/1/4
f 3177/1/5 3178/1/5 3179/1/5 3180/1/5
f 3181/1/6 3182/1/6 3183/1/6 3184/1/6
f 3185/1/1 3186/1/1 3187/1/1 3188/1/1
f 3189/1/4 3190/1/4 3191/1/4 3192/1/4
f 3193/1/5 3194/1/5 3195/1/5 3196/1/5
f 3197/1/6 3198/1/6 3199/1/6 3200/1/6
f 3201/1/5 3202/1/5 3203/1/5 3204/1/5
f 3205/1/6 3206/1/6 3207/1/6 3208/1/6
f 3209/1/5 3210/1/5 3211/1/5 3212/1/5
f 3213/1/6 3214/1/6 3215/1/6 3216/1/6
f 3217/1/5 3218/1/5 3219/1/5 3220/1/5
f 3221/1/6 3222/1/6 3223/1/6 3224/1/6
f 3225/1/2 3226/1/2 3227/1/2 3228/1/2
f 3229/1/3 3230/1/3 3231/1/3 3232/1/3
f 3233/1/5 3234/1/5 3235/1/5 3236/1/5
f 3237/1/6 3238/1/6 3239/1/6 3240/1/6
f 3241/1/1 3242/1/1 3243/1/1 3244/1/1
f 3245/1/2 3246/1/2 3247/1/2 3248/1/2
f 3249/1/3 3250/1/3 3251/1/3 3252/1/3
f 3253/1/4 3254/1/4 3255/1/4 3256/1/4
f 3257/1/5 3258/1/5 3259/1/5 3260/1/5
f 3261/1/6 3262/1/6 3263/1/6 3264/1/6
f 3265/1/1 3266/1/1 3267/1/1 3268/1/1
f 3269/1/4 3270/1/4 3271/1/4 3272/1/4
f 3273/1/5 3274/1/5 3275/1/5 3276/1/5
f 3277/1/6 3278/1/6 3279/1/6 3280/1/6
f 3281/1/4 3282/1/4 3283/1/4 3284/1/4
f 3285/1/5 3286/1/5 3287/1/5 3288/1/5
f 3289/1/6 3290/1/6 3291/1/6 3292/1/6
f 3293/1/5 3294/1/5 3295/1/5 3296/1/5
f 3297/1/6 3298/1/6 3299/1/6 3300/1/6
f 3301/1/5 3302/1/5 3303/1/5 3304/1/5
f 3305/1/6 3306/1/6 3307/1/6 3308/1/6
f 3309/1/2 3310/1/2 3311/1/2 3312/1/2
f 3313/1/3 3314/1/3 3315/1/3 3316/1/3
f 3317/1/5 3318/1/5 3319/1/5 3320/1/5
f 3321/1/6 3322/1/6 3323/1/6 3324/1/6
f 3325/1/1 3326/1/1 3327/1/1 3328/1/1
f 3329/1/4 3330/1/4 3331/1/4 3332/1/4
f 3333/1/5 3334/1/5 3335/1/5 3336/1/5
f 3337/1/6 3338/1/6 3339/1/6 3340/1/6
f 3341/1/5 3342/1/5 3343/1/5 3344/1/5
f 3345/1/6 3346/1/6 3347/1/6 3348/1/6
f 3349/1/5 3350/1/5 3351/1/5 3352/1/5
f 3353/1/6 3354/1/6 3355/1/6 3356/1/6
f 3357/1/2 3358/1/2 3359/1/2 3360/1/2
f 3361/1/3 3362/1/3 3363/1/3 3364/1/3
f 3365/1/5 3366/1/5 3367/1/5 3368/1/5
f 3369/1/6 3370/1/6 3371/1/6 3372/1/6
f 3373/1/1 3374/1/1 3375/1/1 3376/1/1
f 3377/1/4 3378/1/4 3379/1/4 3380/1/4
f 3381/1/5 3382/1/5 3383/1/5 3384/1/5
f 3385/1/6 3386/1/6 3387/1/6 3388/1/6
f 3389/1/5 3390/1/5 3391/1/5 3392/1/5
f 3393/1/6 3394/1/6 3395/1/6 3396/1/6
f 3397/1/5 3398/1/5 3399/1/5 3400/1/5
f 3401/1/6 3402/1/6 3403/1/6 3404/1/6
f 3405/1/3 3406/1/3 3407/1/3 3408/1/3
f 3409/1/5 3410/1/5 3411/1/5 3412/1/5
f 3413/1/6 3414/1/6 3415/1/6 3416/1/6
f 3417/1/2 3418/1/2 3419/1/2 3420/1/2
f 3421/1/3 3422/1/3 3423/1/3 3424/1/3
f 3425/1/5 3426/1/5 3427/1/5 3428/1/5
f 3429/1/6 3430/1/6 3431/1/6 3432/1/6
f 3433/1/1 3434/1/1 3435/1/1 3436/1/1
f 3437/1/4 3438/1/4 3439/1/4 3440/1/4
f 3441/1/5 3442/1/5 3443/1/5 3444/1/5
f 3445/1/6 3446/1/6 3447/1/6 3448/1/6
f 3449/1/4 3450/1/4 3451/1/4 3452/1/4
f 3453/1/5 3454/1/5 3455/1/5 3456/1/5
f 3457/1/6 3458/1/6 3459/1/6 3460/1/6
f 3461/1/5 3462/1/5 3463/1/5 3464/1/5
f 3465/1/6 3466/1/6 3467/1/6 3468/1/6
f 3469/1/5 3470/1/5 3471/1/5 3472/1/5
f 3473/1/6 3474/1/6 3475/1/6 3476/1/6
f 3477/1/2 3478/1/2 3479/1/2 3480/1/2
f 3481/1/3 3482/1/3 3483/1/3 3484/1/3
f 3485/1/5 3486/1/5 3487/1/5 3488/1/5
f 3489/1/6 3490/1/6 3491/1/6 3492/1/6
f 3493/1/1 3494/1/1 3495/1/1 3496/1/1
f 3497/1/4 3498/1/4 3499/1/4 3500/1/4
f 3501/1/5 3502/1/5 3503/1/5 3504/1/5
f 3505/1/6 3506/1/6 3507/1/6 3508/1/6
f 3509/1/5 3510/1/5 3511/1/5 3512/1/5
f 3513/1/6 3514/1/6 3515/1/6 3516/1/6
f 3517/1/5 3518/1/5 3519/1/5 3520/1/5
f 3521/1/6 3522/1/6 3523/1/6 3524/1/6
f 3525/1/2 3526/1/2 3527/1/2 3528/1/2
f 3529/1/3 3530/1/3 3531/1/3 3532/1/3
f 3533/1/5 3534/1/5 3535/1/5 3536/1/5
f 3537/1/6 3538/1/6 3539/1/6 3540/1/6
f 3541/1/1 3542/1/1 3543/1/1 3544/1/1
f 3545/1/4 3546/1/4 3547/1/4 3548/1/4
f 3549/1/5 3550/1/5 3551/1/5 3552/1/5
f 3553/1/6 3554/1/6 3555/1/6 3556/1/6
f 3557/1/4 3558/1/4 3559/1/4 3560/1/4
f 3561/1/5 3562/1/5 3563/1/5 3564/1/5
f 3565/1/6 3566/1/6 3567/1/6 3568/1/6
f 3569/1/5 3570/1/5 3571/1/5 3572/1/5
f 3573/1/6 3574/1/6 3575/1/6 3576/1/6
f 3577/1/2 3578/1/2 3579/1/2 3580/1/2
f 3581/1/3 3582/1/3 3583/1/3 3584/1/3
f 3585/1/5 3586/1/5 3587/1/5 3588/1/5
f 3589/1/6 3590/1/6 3591/1/6 3592/1/6
f 3593/1/1 3594/1/1 3595/1/1 3596/1/1
f 3597/1/4 3598/1/4 3599/1/4 3600/1/4
f 3601/1/5 3602/1/5 3603/1/5 3604/1/5
f 3605/1/6 3606/1/6 3607/1/6 3608/1/6
f 3609/1/5 3610/1/5 3611/1/5 3612/1/5
f 3613/1/6 3614/1/6 3615/1/6 3616/1/6
f 3617/1/3 3618/1/3 3619/1/3 3620/1/3
f 3621/1/5 3622/1/5 3623/1/5 3624/1/5
f 3625/1/6 3626/1/6 3627/1/6 3628/1/6
f 3629/1/2 3630/1/2 3631/1/2 3632/1/2
f 3633/1/3 3634/1/3 3635/1/3 3636/1/3
f 3637/1/5 3638/1/5 3639/1/5 3640/1/5
f 3641/1/6 3642/1/6 3643/1/6 3644/1/6
f 3645/1/1 3646/1/1 3647/1/1 3648/1/1
f 3649/1/4 3650/1/4 3651/1/4 3652/1/4
f 3653/1/5 3654/1/5 3655/1/5 3656/1/5
f 3657/1/6 3658/1/6 3659/1/6 3660/1/6
f 3661/1/4 3662/1/4 3663/1/4 3664/1/4
f 3665/1/5 3666/1/5 3667/1/5 3668/1/5
f 3669/1/6 3670/1/6 3671/1/6 3672/1/6
f 3673/1/5 3674/1/5 3675/1/5 3676/1/5
f 3677/1/6 3678/1/6 3679/1/6 3680/1/6
f 3681/1/2 3682/1/2 3683/1/2 3684/1/2
f 3685/1/3 3686/1/3 3687/1/3 3688/1/3
f 3689/1/5 3690/1/5 3691/1/5 3692/1/5
f 3693/1/6 3694/1/6 3695/1/6 3696/1/6
f 3697/1/1 3698/1/1 3699/1/1 3700/1/1
f 3701/1/4 3702/1/4 3703/1/4 3704/1/4
f 3705/1/5 3706/1/5 3707/1/5 3708/1/5
f 3709/1/6 3710/1/6 3711/1/6 3712/1/6
f 3713/1/5 3714/1/5 3715/1/5 3716/1/5
f 3717/1/6 3718/1/6 3719/1/6 3720/1/6
f 3721/1/2 3722/1/2 3723/1/2 3724/1/2
f 3725/1/3 3726/1/3 3727/1/3 3728/1/3
f 3729/1/5 3730/1/5 3731/1/5 3732/1/5
f 3733/1/6 3734/1/6 3735/1/6 3736/1/6
f 3737/1/1 3738/1/1 3739/1/1 3740/1/1
f 3741/1/4 3742/1/4 3743/1/4 3744/1/4
f 3745/1/5 3746/1/5 3747/1/5 3748/1/5
f 3749/1/6 3750/1/6 3751/1/6 3752/1/6
f 3753/1/4 3754/1/4 3755/1/4 3756/1/4
f 3757/1/5 3758/1/5 3759/1/5 3760/1/5
f 3761/1/6 3762/1/6 3763/1/6 3764/1/6
f 3765/1/2 3766/1/2 3767/1/2 3768/1/2
f 3769/1/3 3770/1/3 3771/1/3 3772/1/3
f 3773/1/5 3774/1/5 3775/1/5 3776/1/5
f 3777/1/6 3778/1/6 3779/1/6 3780/1/6
f 3781/1/1 3782/1/1 3783/1/1 3784/1/1
f 3785/1/4 3786/1/4 3787/1/4 3788/1/4
f 3789/1/5 3790/1/5 3791/1/5 3792/1/5
f 3793/1/6 3794/1/6 3795/1/6 3796/1/6
f 3797/1/2 3798/1/2 3799/1/2 3800/1/2
f 3801/1/3 3802/1/3 3803/1/3 3804/1/3
f 3805/1/4 3806/1/4 3807/1/4 3808/1/4
f 3809/1/5 3810/1/5 3811/1/5 3812/1/5
f 3813/1/6 3814/1/6 3815/1/6 3816/1/6
f 3817/1/1 3818/1/1 3819/1/1 3820/1/1
f 3821/1/2 3822/1/2 3823/1/2 3824/1/2
f 3825/1/3 3826/1/3 3827/1/3 3828/1/3
f 3829/1/4 3830/1/4 3831/1/4 3832/1/4
f 3833/1/5 3834/1/5 3835/1/5 3836/1/5
f 3837/1/6 3838/1/6 3839/1/6 3840/1/6

