# generated by vox_to_obj_exporter
# scale=0.1 center=false ground=false y_up=true

mtllib Fight_761.mtl
usemtl palette

# normals
vn -1 0 0
vn 1 0 0
vn 0 1 0
vn 0 -1 0
vn 0 0 1
vn 0 0 -1

# texcoords
vt 0.041015625 0.5

# verts
v 12.1 3.4 -2.6
v 12.1 3.3 -2.6
v 12.1 3.3 -2.5
v 12.1 3.4 -2.5
v 12.2 3.4 -2.5
v 12.2 3.3 -2.5
v 12.2 3.3 -2.6
v 12.2 3.4 -2.6
v 12.1 3.4 -2.6
v 12.1 3.4 -2.5
v 12.2 3.4 -2.5
v 12.2 3.4 -2.6
v 12.1 3.4 -2.5
v 12.1 3.3 -2.5
v 12.2 3.3 -2.5
v 12.2 3.4 -2.5
v 12.2 3.4 -2.6
v 12.2 3.3 -2.6
v 12.1 3.3 -2.6
v 12.1 3.4 -2.6
v 12 3.3 -2.6
v 12 3.2 -2.6
v 12 3.2 -2.5
v 12 3.3 -2.5
v 12 3.3 -2.6
v 12 3.3 -2.5
v 12.1 3.3 -2.5
v 12.1 3.3 -2.6
v 12 3.2 -2.5
v 12 3.2 -2.6
v 12.1 3.2 -2.6
v 12.1 3.2 -2.5
v 12 3.3 -2.5
v 12 3.2 -2.5
v 12.1 3.2 -2.5
v 12.1 3.3 -2.5
v 12.1 3.3 -2.6
v 12.1 3.2 -2.6
v 12 3.2 -2.6
v 12 3.3 -2.6
v 12.1 3.3 -2.5
v 12.1 3.2 -2.5
v 12.2 3.2 -2.5
v 12.2 3.3 -2.5
v 12.2 3.3 -2.6
v 12.2 3.2 -2.6
v 12.1 3.2 -2.6
v 12.1 3.3 -2.6
v 12.3 3.3 -2.5
v 12.3 3.2 -2.5
v 12.3 3.2 -2.6
v 12.3 3.3 -2.6
v 12.2 3.3 -2.6
v 12.2 3.3 -2.5
v 12.3 3.3 -2.5
v 12.3 3.3 -2.6
v 12.2 3.3 -2.5
v 12.2 3.2 -2.5
v 12.3 3.2 -2.5
v 12.3 3.3 -2.5
v 12.3 3.3 -2.6
v 12.3 3.2 -2.6
v 12.2 3.2 -2.6
v 12.2 3.3 -2.6
v 12.1 3.2 -2.6
v 12.1 3.1 -2.6
v 12.1 3.1 -2.5
v 12.1 3.2 -2.5
v 12.1 3.1 -2.5
v 12.1 3.1 -2.6
v 12.2 3.1 -2.6
v 12.2 3.1 -2.5
v 12.1 3.2 -2.5
v 12.1 3.1 -2.5
v 12.2 3.1 -2.5
v 12.2 3.2 -2.5
v 12.2 3.2 -2.6
v 12.2 3.1 -2.6
v 12.1 3.1 -2.6
v 12.1 3.2 -2.6
v 12.2 3.2 -2.5
v 12.2 3.1 -2.5
v 12.3 3.1 -2.5
v 12.3 3.2 -2.5
v 12.3 3.2 -2.6
v 12.3 3.1 -2.6
v 12.2 3.1 -2.6
v 12.2 3.2 -2.6
v 12.4 3.2 -2.5
v 12.4 3.1 -2.5
v 12.4 3.1 -2.6
v 12.4 3.2 -2.6
v 12.3 3.2 -2.6
v 12.3 3.2 -2.5
v 12.4 3.2 -2.5
v 12.4 3.2 -2.6
v 12.3 3.2 -2.5
v 12.3 3.1 -2.5
v 12.4 3.1 -2.5
v 12.4 3.2 -2.5
v 12.4 3.2 -2.6
v 12.4 3.1 -2.6
v 12.3 3.1 -2.6
v 12.3 3.2 -2.6
v 12.2 3.1 -2.6
v 12.2 3 -2.6
v 12.2 3 -2.5
v 12.2 3.1 -2.5
v 12.2 3 -2.5
v 12.2 3 -2.6
v 12.3 3 -2.6
v 12.3 3 -2.5
v 12.2 3.1 -2.5
v 12.2 3 -2.5
v 12.3 3 -2.5
v 12.3 3.1 -2.5
v 12.3 3.1 -2.6
v 12.3 3 -2.6
v 12.2 3 -2.6
v 12.2 3.1 -2.6
v 12.3 3.1 -2.5
v 12.3 3 -2.5
v 12.4 3 -2.5
v 12.4 3.1 -2.5
v 12.4 3.1 -2.6
v 12.4 3 -2.6
v 12.3 3 -2.6
v 12.3 3.1 -2.6
v 12.4 3.1 -2.6
v 12.4 3.1 -2.5
v 12.5 3.1 -2.5
v 12.5 3.1 -2.6
v 12.4 3.1 -2.5
v 12.4 3 -2.5
v 12.5 3 -2.5
v 12.5 3.1 -2.5
v 12.5 3.1 -2.6
v 12.5 3 -2.6
v 12.4 3 -2.6
v 12.4 3.1 -2.6
v 12.6 3.1 -2.5
v 12.6 3 -2.5
v 12.6 3 -2.6
v 12.6 3.1 -2.6
v 12.5 3.1 -2.6
v 12.5 3.1 -2.5
v 12.6 3.1 -2.5
v 12.6 3.1 -2.6
v 12.5 3.1 -2.5
v 12.5 3 -2.5
v 12.6 3 -2.5
v 12.6 3.1 -2.5
v 12.6 3.1 -2.6
v 12.6 3 -2.6
v 12.5 3 -2.6
v 12.5 3.1 -2.6
v 12.3 3 -2.6
v 12.3 2.9 -2.6
v 12.3 2.9 -2.5
v 12.3 3 -2.5
v 12.3 2.9 -2.5
v 12.3 2.9 -2.6
v 12.4 2.9 -2.6
v 12.4 2.9 -2.5
v 12.3 3 -2.5
v 12.3 2.9 -2.5
v 12.4 2.9 -2.5
v 12.4 3 -2.5
v 12.4 3 -2.6
v 12.4 2.9 -2.6
v 12.3 2.9 -2.6
v 12.3 3 -2.6
v 12.4 2.9 -2.5
v 12.4 2.9 -2.6
v 12.5 2.9 -2.6
v 12.5 2.9 -2.5
v 12.4 3 -2.5
v 12.4 2.9 -2.5
v 12.5 2.9 -2.5
v 12.5 3 -2.5
v 12.5 3 -2.6
v 12.5 2.9 -2.6
v 12.4 2.9 -2.6
v 12.4 3 -2.6
v 12.5 3 -2.5
v 12.5 2.9 -2.5
v 12.6 2.9 -2.5
v 12.6 3 -2.5
v 12.6 3 -2.6
v 12.6 2.9 -2.6
v 12.5 2.9 -2.6
v 12.5 3 -2.6
v 12.7 3 -2.5
v 12.7 2.9 -2.5
v 12.7 2.9 -2.6
v 12.7 3 -2.6
v 12.6 3 -2.6
v 12.6 3 -2.5
v 12.7 3 -2.5
v 12.7 3 -2.6
v 12.6 3 -2.5
v 12.6 2.9 -2.5
v 12.7 2.9 -2.5
v 12.7 3 -2.5
v 12.7 3 -2.6
v 12.7 2.9 -2.6
v 12.6 2.9 -2.6
v 12.6 3 -2.6
v 12.5 2.9 -2.6
v 12.5 2.8 -2.6
v 12.5 2.8 -2.5
v 12.5 2.9 -2.5
v 12.5 2.8 -2.5
v 12.5 2.8 -2.6
v 12.6 2.8 -2.6
v 12.6 2.8 -2.5
v 12.5 2.9 -2.5
v 12.5 2.8 -2.5
v 12.6 2.8 -2.5
v 12.6 2.9 -2.5
v 12.6 2.9 -2.6
v 12.6 2.8 -2.6
v 12.5 2.8 -2.6
v 12.5 2.9 -2.6
v 12.6 2.8 -2.5
v 12.6 2.8 -2.6
v 12.7 2.8 -2.6
v 12.7 2.8 -2.5
v 12.6 2.9 -2.5
v 12.6 2.8 -2.5
v 12.7 2.8 -2.5
v 12.7 2.9 -2.5
v 12.7 2.9 -2.6
v 12.7 2.8 -2.6
v 12.6 2.8 -2.6
v 12.6 2.9 -2.6
v 12.8 2.9 -2.5
v 12.8 2.8 -2.5
v 12.8 2.8 -2.6
v 12.8 2.9 -2.6
v 12.7 2.9 -2.6
v 12.7 2.9 -2.5
v 12.8 2.9 -2.5
v 12.8 2.9 -2.6
v 12.7 2.9 -2.5
v 12.7 2.8 -2.5
v 12.8 2.8 -2.5
v 12.8 2.9 -2.5
v 12.8 2.9 -2.6
v 12.8 2.8 -2.6
v 12.7 2.8 -2.6
v 12.7 2.9 -2.6
v 12.7 2.8 -2.6
v 12.7 2.7 -2.6
v 12.7 2.7 -2.5
v 12.7 2.8 -2.5
v 12.7 2.7 -2.5
v 12.7 2.7 -2.6
v 12.8 2.7 -2.6
v 12.8 2.7 -2.5
v 12.7 2.8 -2.5
v 12.7 2.7 -2.5
v 12.8 2.7 -2.5
v 12.8 2.8 -2.5
v 12.8 2.8 -2.6
v 12.8 2.7 -2.6
v 12.7 2.7 -2.6
v 12.7 2.8 -2.6
v 12.8 2.8 -2.6
v 12.8 2.8 -2.5
v 12.9 2.8 -2.5
v 12.9 2.8 -2.6
v 12.8 2.7 -2.5
v 12.8 2.7 -2.6
v 12.9 2.7 -2.6
v 12.9 2.7 -2.5
v 12.8 2.8 -2.5
v 12.8 2.7 -2.5
v 12.9 2.7 -2.5
v 12.9 2.8 -2.5
v 12.9 2.8 -2.6
v 12.9 2.7 -2.6
v 12.8 2.7 -2.6
v 12.8 2.8 -2.6
v 13 2.8 -2.5
v 13 2.7 -2.5
v 13 2.7 -2.6
v 13 2.8 -2.6
v 12.9 2.8 -2.6
v 12.9 2.8 -2.5
v 13 2.8 -2.5
v 13 2.8 -2.6
v 12.9 2.8 -2.5
v 12.9 2.7 -2.5
v 13 2.7 -2.5
v 13 2.8 -2.5
v 13 2.8 -2.6
v 13 2.7 -2.6
v 12.9 2.7 -2.6
v 12.9 2.8 -2.6
v 12.9 2.7 -2.6
v 12.9 2.6 -2.6
v 12.9 2.6 -2.5
v 12.9 2.7 -2.5
v 12.9 2.6 -2.5
v 12.9 2.6 -2.6
v 13 2.6 -2.6
v 13 2.6 -2.5
v 12.9 2.7 -2.5
v 12.9 2.6 -2.5
v 13 2.6 -2.5
v 13 2.7 -2.5
v 13 2.7 -2.6
v 13 2.6 -2.6
v 12.9 2.6 -2.6
v 12.9 2.7 -2.6
v 13.1 2.7 -2.5
v 13.1 2.6 -2.5
v 13.1 2.6 -2.6
v 13.1 2.7 -2.6
v 13 2.7 -2.6
v 13 2.7 -2.5
v 13.1 2.7 -2.5
v 13.1 2.7 -2.6
v 13 2.6 -2.5
v 13 2.6 -2.6
v 13.1 2.6 -2.6
v 13.1 2.6 -2.5
v 13 2.7 -2.5
v 13 2.6 -2.5
v 13.1 2.6 -2.5
v 13.1 2.7 -2.5
v 13.1 2.7 -2.6
v 13.1 2.6 -2.6
v 13 2.6 -2.6
v 13 2.7 -2.6
v 13.1 2.6 -2.6
v 13.1 2.5 -2.6
v 13.1 2.5 -2.5
v 13.1 2.6 -2.5
v 13.2 2.6 -2.5
v 13.2 2.5 -2.5
v 13.2 2.5 -2.6
v 13.2 2.6 -2.6
v 13.1 2.6 -2.6
v 13.1 2.6 -2.5
v 13.2 2.6 -2.5
v 13.2 2.6 -2.6
v 13.1 2.5 -2.5
v 13.1 2.5 -2.6
v 13.2 2.5 -2.6
v 13.2 2.5 -2.5
v 13.1 2.6 -2.5
v 13.1 2.5 -2.5
v 13.2 2.5 -2.5
v 13.2 2.6 -2.5
v 13.2 2.6 -2.6
v 13.2 2.5 -2.6
v 13.1 2.5 -2.6
v 13.1 2.6 -2.6
v 12.1 2.2 -2.6
v 12.1 2.1 -2.6
v 12.1 2.1 -2.5
v 12.1 2.2 -2.5
v 12.2 2.2 -2.5
v 12.2 2.1 -2.5
v 12.2 2.1 -2.6
v 12.2 2.2 -2.6
v 12.1 2.2 -2.6
v 12.1 2.2 -2.5
v 12.2 2.2 -2.5
v 12.2 2.2 -2.6
v 12.1 2.2 -2.5
v 12.1 2.1 -2.5
v 12.2 2.1 -2.5
v 12.2 2.2 -2.5
v 12.2 2.2 -2.6
v 12.2 2.1 -2.6
v 12.1 2.1 -2.6
v 12.1 2.2 -2.6
v 12 2.1 -2.6
v 12 2 -2.6
v 12 2 -2.5
v 12 2.1 -2.5
v 12 2.1 -2.6
v 12 2.1 -2.5
v 12.1 2.1 -2.5
v 12.1 2.1 -2.6
v 12 2 -2.5
v 12 2 -2.6
v 12.1 2 -2.6
v 12.1 2 -2.5
v 12 2.1 -2.5
v 12 2 -2.5
v 12.1 2 -2.5
v 12.1 2.1 -2.5
v 12.1 2.1 -2.6
v 12.1 2 -2.6
v 12 2 -2.6
v 12 2.1 -2.6
v 12.1 2.1 -2.5
v 12.1 2 -2.5
v 12.2 2 -2.5
v 12.2 2.1 -2.5
v 12.2 2.1 -2.6
v 12.2 2 -2.6
v 12.1 2 -2.6
v 12.1 2.1 -2.6
v 12.3 2.1 -2.5
v 12.3 2 -2.5
v 12.3 2 -2.6
v 12.3 2.1 -2.6
v 12.2 2.1 -2.6
v 12.2 2.1 -2.5
v 12.3 2.1 -2.5
v 12.3 2.1 -2.6
v 12.2 2.1 -2.5
v 12.2 2 -2.5
v 12.3 2 -2.5
v 12.3 2.1 -2.5
v 12.3 2.1 -2.6
v 12.3 2 -2.6
v 12.2 2 -2.6
v 12.2 2.1 -2.6
v 12.1 2 -2.6
v 12.1 1.9 -2.6
v 12.1 1.9 -2.5
v 12.1 2 -2.5
v 12.1 1.9 -2.5
v 12.1 1.9 -2.6
v 12.2 1.9 -2.6
v 12.2 1.9 -2.5
v 12.1 2 -2.5
v 12.1 1.9 -2.5
v 12.2 1.9 -2.5
v 12.2 2 -2.5
v 12.2 2 -2.6
v 12.2 1.9 -2.6
v 12.1 1.9 -2.6
v 12.1 2 -2.6
v 12.2 2 -2.5
v 12.2 1.9 -2.5
v 12.3 1.9 -2.5
v 12.3 2 -2.5
v 12.3 2 -2.6
v 12.3 1.9 -2.6
v 12.2 1.9 -2.6
v 12.2 2 -2.6
v 12.4 2 -2.5
v 12.4 1.9 -2.5
v 12.4 1.9 -2.6
v 12.4 2 -2.6
v 12.3 2 -2.6
v 12.3 2 -2.5
v 12.4 2 -2.5
v 12.4 2 -2.6
v 12.3 2 -2.5
v 12.3 1.9 -2.5
v 12.4 1.9 -2.5
v 12.4 2 -2.5
v 12.4 2 -2.6
v 12.4 1.9 -2.6
v 12.3 1.9 -2.6
v 12.3 2 -2.6
v 12.2 1.9 -2.6
v 12.2 1.8 -2.6
v 12.2 1.8 -2.5
v 12.2 1.9 -2.5
v 12.2 1.8 -2.5
v 12.2 1.8 -2.6
v 12.3 1.8 -2.6
v 12.3 1.8 -2.5
v 12.2 1.9 -2.5
v 12.2 1.8 -2.5
v 12.3 1.8 -2.5
v 12.3 1.9 -2.5
v 12.3 1.9 -2.6
v 12.3 1.8 -2.6
v 12.2 1.8 -2.6
v 12.2 1.9 -2.6
v 12.3 1.9 -2.5
v 12.3 1.8 -2.5
v 12.4 1.8 -2.5
v 12.4 1.9 -2.5
v 12.4 1.9 -2.6
v 12.4 1.8 -2.6
v 12.3 1.8 -2.6
v 12.3 1.9 -2.6
v 12.4 1.9 -2.6
v 12.4 1.9 -2.5
v 12.5 1.9 -2.5
v 12.5 1.9 -2.6
v 12.4 1.9 -2.5
v 12.4 1.8 -2.5
v 12.5 1.8 -2.5
v 12.5 1.9 -2.5
v 12.5 1.9 -2.6
v 12.5 1.8 -2.6
v 12.4 1.8 -2.6
v 12.4 1.9 -2.6
v 12.6 1.9 -2.5
v 12.6 1.8 -2.5
v 12.6 1.8 -2.6
v 12.6 1.9 -2.6
v 12.5 1.9 -2.6
v 12.5 1.9 -2.5
v 12.6 1.9 -2.5
v 12.6 1.9 -2.6
v 12.5 1.9 -2.5
v 12.5 1.8 -2.5
v 12.6 1.8 -2.5
v 12.6 1.9 -2.5
v 12.6 1.9 -2.6
v 12.6 1.8 -2.6
v 12.5 1.8 -2.6
v 12.5 1.9 -2.6
v 12.3 1.8 -2.6
v 12.3 1.7 -2.6
v 12.3 1.7 -2.5
v 12.3 1.8 -2.5
v 12.3 1.7 -2.5
v 12.3 1.7 -2.6
v 12.4 1.7 -2.6
v 12.4 1.7 -2.5
v 12.3 1.8 -2.5
v 12.3 1.7 -2.5
v 12.4 1.7 -2.5
v 12.4 1.8 -2.5
v 12.4 1.8 -2.6
v 12.4 1.7 -2.6
v 12.3 1.7 -2.6
v 12.3 1.8 -2.6
v 12.4 1.7 -2.5
v 12.4 1.7 -2.6
v 12.5 1.7 -2.6
v 12.5 1.7 -2.5
v 12.4 1.8 -2.5
v 12.4 1.7 -2.5
v 12.5 1.7 -2.5
v 12.5 1.8 -2.5
v 12.5 1.8 -2.6
v 12.5 1.7 -2.6
v 12.4 1.7 -2.6
v 12.4 1.8 -2.6
v 12.5 1.8 -2.5
v 12.5 1.7 -2.5
v 12.6 1.7 -2.5
v 12.6 1.8 -2.5
v 12.6 1.8 -2.6
v 12.6 1.7 -2.6
v 12.5 1.7 -2.6
v 12.5 1.8 -2.6
v 12.7 1.8 -2.5
v 12.7 1.7 -2.5
v 12.7 1.7 -2.6
v 12.7 1.8 -2.6
v 12.6 1.8 -2.6
v 12.6 1.8 -2.5
v 12.7 1.8 -2.5
v 12.7 1.8 -2.6
v 12.6 1.8 -2.5
v 12.6 1.7 -2.5
v 12.7 1.7 -2.5
v 12.7 1.8 -2.5
v 12.7 1.8 -2.6
v 12.7 1.7 -2.6
v 12.6 1.7 -2.6
v 12.6 1.8 -2.6
v 12.5 1.7 -2.6
v 12.5 1.6 -2.6
v 12.5 1.6 -2.5
v 12.5 1.7 -2.5
v 12.5 1.6 -2.5
v 12.5 1.6 -2.6
v 12.6 1.6 -2.6
v 12.6 1.6 -2.5
v 12.5 1.7 -2.5
v 12.5 1.6 -2.5
v 12.6 1.6 -2.5
v 12.6 1.7 -2.5
v 12.6 1.7 -2.6
v 12.6 1.6 -2.6
v 12.5 1.6 -2.6
v 12.5 1.7 -2.6
v 12.6 1.6 -2.5
v 12.6 1.6 -2.6
v 12.7 1.6 -2.6
v 12.7 1.6 -2.5
v 12.6 1.7 -2.5
v 12.6 1.6 -2.5
v 12.7 1.6 -2.5
v 12.7 1.7 -2.5
v 12.7 1.7 -2.6
v 12.7 1.6 -2.6
v 12.6 1.6 -2.6
v 12.6 1.7 -2.6
v 12.8 1.7 -2.5
v 12.8 1.6 -2.5
v 12.8 1.6 -2.6
v 12.8 1.7 -2.6
v 12.7 1.7 -2.6
v 12.7 1.7 -2.5
v 12.8 1.7 -2.5
v 12.8 1.7 -2.6
v 12.7 1.7 -2.5
v 12.7 1.6 -2.5
v 12.8 1.6 -2.5
v 12.8 1.7 -2.5
v 12.8 1.7 -2.6
v 12.8 1.6 -2.6
v 12.7 1.6 -2.6
v 12.7 1.7 -2.6
v 12.7 1.6 -2.6
v 12.7 1.5 -2.6
v 12.7 1.5 -2.5
v 12.7 1.6 -2.5
v 12.7 1.5 -2.5
v 12.7 1.5 -2.6
v 12.8 1.5 -2.6
v 12.8 1.5 -2.5
v 12.7 1.6 -2.5
v 12.7 1.5 -2.5
v 12.8 1.5 -2.5
v 12.8 1.6 -2.5
v 12.8 1.6 -2.6
v 12.8 1.5 -2.6
v 12.7 1.5 -2.6
v 12.7 1.6 -2.6
v 12.8 1.6 -2.6
v 12.8 1.6 -2.5
v 12.9 1.6 -2.5
v 12.9 1.6 -2.6
v 12.8 1.5 -2.5
v 12.8 1.5 -2.6
v 12.9 1.5 -2.6
v 12.9 1.5 -2.5
v 12.8 1.6 -2.5
v 12.8 1.5 -2.5
v 12.9 1.5 -2.5
v 12.9 1.6 -2.5
v 12.9 1.6 -2.6
v 12.9 1.5 -2.6
v 12.8 1.5 -2.6
v 12.8 1.6 -2.6
v 13 1.6 -2.5
v 13 1.5 -2.5
v 13 1.5 -2.6
v 13 1.6 -2.6
v 12.9 1.6 -2.6
v 12.9 1.6 -2.5
v 13 1.6 -2.5
v 13 1.6 -2.6
v 12.9 1.6 -2.5
v 12.9 1.5 -2.5
v 13 1.5 -2.5
v 13 1.6 -2.5
v 13 1.6 -2.6
v 13 1.5 -2.6
v 12.9 1.5 -2.6
v 12.9 1.6 -2.6
v 12.9 1.5 -2.6
v 12.9 1.4 -2.6
v 12.9 1.4 -2.5
v 12.9 1.5 -2.5
v 12.9 1.4 -2.5
v 12.9 1.4 -2.6
v 13 1.4 -2.6
v 13 1.4 -2.5
v 12.9 1.5 -2.5
v 12.9 1.4 -2.5
v 13 1.4 -2.5
v 13 1.5 -2.5
v 13 1.5 -2.6
v 13 1.4 -2.6
v 12.9 1.4 -2.6
v 12.9 1.5 -2.6
v 13.1 1.5 -2.5
v 13.1 1.4 -2.5
v 13.1 1.4 -2.6
v 13.1 1.5 -2.6
v 13 1.5 -2.6
v 13 1.5 -2.5
v 13.1 1.5 -2.5
v 13.1 1.5 -2.6
v 13 1.4 -2.5
v 13 1.4 -2.6
v 13.1 1.4 -2.6
v 13.1 1.4 -2.5
v 13 1.5 -2.5
v 13 1.4 -2.5
v 13.1 1.4 -2.5
v 13.1 1.5 -2.5
v 13.1 1.5 -2.6
v 13.1 1.4 -2.6
v 13 1.4 -2.6
v 13 1.5 -2.6
v 13.1 1.4 -2.6
v 13.1 1.3 -2.6
v 13.1 1.3 -2.5
v 13.1 1.4 -2.5
v 13.2 1.4 -2.5
v 13.2 1.3 -2.5
v 13.2 1.3 -2.6
v 13.2 1.4 -2.6
v 13.1 1.4 -2.6
v 13.1 1.4 -2.5
v 13.2 1.4 -2.5
v 13.2 1.4 -2.6
v 13.1 1.3 -2.5
v 13.1 1.3 -2.6
v 13.2 1.3 -2.6
v 13.2 1.3 -2.5
v 13.1 1.4 -2.5
v 13.1 1.3 -2.5
v 13.2 1.3 -2.5
v 13.2 1.4 -2.5
v 13.2 1.4 -2.6
v 13.2 1.3 -2.6
v 13.1 1.3 -2.6
v 13.1 1.4 -2.6
v 12.1 1 -2.6
v 12.1 0.9 -2.6
v 12.1 0.9 -2.5
v 12.1 1 -2.5
v 12.2 1 -2.5
v 12.2 0.9 -2.5
v 12.2 0.9 -2.6
v 12.2 1 -2.6
v 12.1 1 -2.6
v 12.1 1 -2.5
v 12.2 1 -2.5
v 12.2 1 -2.6
v 12.1 1 -2.5
v 12.1 0.9 -2.5
v 12.2 0.9 -2.5
v 12.2 1 -2.5
v 12.2 1 -2.6
v 12.2 0.9 -2.6
v 12.1 0.9 -2.6
v 12.1 1 -2.6
v 12 0.9 -2.6
v 12 0.8 -2.6
v 12 0.8 -2.5
v 12 0.9 -2.5
v 12 0.9 -2.6
v 12 0.9 -2.5
v 12.1 0.9 -2.5
v 12.1 0.9 -2.6
v 12 0.8 -2.5
v 12 0.8 -2.6
v 12.1 0.8 -2.6
v 12.1 0.8 -2.5
v 12 0.9 -2.5
v 12 0.8 -2.5
v 12.1 0.8 -2.5
v 12.1 0.9 -2.5
v 12.1 0.9 -2.6
v 12.1 0.8 -2.6
v 12 0.8 -2.6
v 12 0.9 -2.6
v 12.1 0.9 -2.5
v 12.1 0.8 -2.5
v 12.2 0.8 -2.5
v 12.2 0.9 -2.5
v 12.2 0.9 -2.6
v 12.2 0.8 -2.6
v 12.1 0.8 -2.6
v 12.1 0.9 -2.6
v 12.3 0.9 -2.5
v 12.3 0.8 -2.5
v 12.3 0.8 -2.6
v 12.3 0.9 -2.6
v 12.2 0.9 -2.6
v 12.2 0.9 -2.5
v 12.3 0.9 -2.5
v 12.3 0.9 -2.6
v 12.2 0.9 -2.5
v 12.2 0.8 -2.5
v 12.3 0.8 -2.5
v 12.3 0.9 -2.5
v 12.3 0.9 -2.6
v 12.3 0.8 -2.6
v 12.2 0.8 -2.6
v 12.2 0.9 -2.6
v 12.1 0.8 -2.6
v 12.1 0.7 -2.6
v 12.1 0.7 -2.5
v 12.1 0.8 -2.5
v 12.1 0.7 -2.5
v 12.1 0.7 -2.6
v 12.2 0.7 -2.6
v 12.2 0.7 -2.5
v 12.1 0.8 -2.5
v 12.1 0.7 -2.5
v 12.2 0.7 -2.5
v 12.2 0.8 -2.5
v 12.2 0.8 -2.6
v 12.2 0.7 -2.6
v 12.1 0.7 -2.6
v 12.1 0.8 -2.6
v 12.2 0.8 -2.5
v 12.2 0.7 -2.5
v 12.3 0.7 -2.5
v 12.3 0.8 -2.5
v 12.3 0.8 -2.6
v 12.3 0.7 -2.6
v 12.2 0.7 -2.6
v 12.2 0.8 -2.6
v 12.4 0.8 -2.5
v 12.4 0.7 -2.5
v 12.4 0.7 -2.6
v 12.4 0.8 -2.6
v 12.3 0.8 -2.6
v 12.3 0.8 -2.5
v 12.4 0.8 -2.5
v 12.4 0.8 -2.6
v 12.3 0.8 -2.5
v 12.3 0.7 -2.5
v 12.4 0.7 -2.5
v 12.4 0.8 -2.5
v 12.4 0.8 -2.6
v 12.4 0.7 -2.6
v 12.3 0.7 -2.6
v 12.3 0.8 -2.6
v 12.2 0.7 -2.6
v 12.2 0.6 -2.6
v 12.2 0.6 -2.5
v 12.2 0.7 -2.5
v 12.2 0.6 -2.5
v 12.2 0.6 -2.6
v 12.3 0.6 -2.6
v 12.3 0.6 -2.5
v 12.2 0.7 -2.5
v 12.2 0.6 -2.5
v 12.3 0.6 -2.5
v 12.3 0.7 -2.5
v 12.3 0.7 -2.6
v 12.3 0.6 -2.6
v 12.2 0.6 -2.6
v 12.2 0.7 -2.6
v 12.3 0.7 -2.5
v 12.3 0.6 -2.5
v 12.4 0.6 -2.5
v 12.4 0.7 -2.5
v 12.4 0.7 -2.6
v 12.4 0.6 -2.6
v 12.3 0.6 -2.6
v 12.3 0.7 -2.6
v 12.4 0.7 -2.6
v 12.4 0.7 -2.5
v 12.5 0.7 -2.5
v 12.5 0.7 -2.6
v 12.4 0.7 -2.5
v 12.4 0.6 -2.5
v 12.5 0.6 -2.5
v 12.5 0.7 -2.5
v 12.5 0.7 -2.6
v 12.5 0.6 -2.6
v 12.4 0.6 -2.6
v 12.4 0.7 -2.6
v 12.6 0.7 -2.5
v 12.6 0.6 -2.5
v 12.6 0.6 -2.6
v 12.6 0.7 -2.6
v 12.5 0.7 -2.6
v 12.5 0.7 -2.5
v 12.6 0.7 -2.5
v 12.6 0.7 -2.6
v 12.5 0.7 -2.5
v 12.5 0.6 -2.5
v 12.6 0.6 -2.5
v 12.6 0.7 -2.5
v 12.6 0.7 -2.6
v 12.6 0.6 -2.6
v 12.5 0.6 -2.6
v 12.5 0.7 -2.6
v 12.3 0.6 -2.6
v 12.3 0.5 -2.6
v 12.3 0.5 -2.5
v 12.3 0.6 -2.5
v 12.3 0.5 -2.5
v 12.3 0.5 -2.6
v 12.4 0.5 -2.6
v 12.4 0.5 -2.5
v 12.3 0.6 -2.5
v 12.3 0.5 -2.5
v 12.4 0.5 -2.5
v 12.4 0.6 -2.5
v 12.4 0.6 -2.6
v 12.4 0.5 -2.6
v 12.3 0.5 -2.6
v 12.3 0.6 -2.6
v 12.4 0.5 -2.5
v 12.4 0.5 -2.6
v 12.5 0.5 -2.6
v 12.5 0.5 -2.5
v 12.4 0.6 -2.5
v 12.4 0.5 -2.5
v 12.5 0.5 -2.5
v 12.5 0.6 -2.5
v 12.5 0.6 -2.6
v 12.5 0.5 -2.6
v 12.4 0.5 -2.6
v 12.4 0.6 -2.6
v 12.5 0.6 -2.5
v 12.5 0.5 -2.5
v 12.6 0.5 -2.5
v 12.6 0.6 -2.5
v 12.6 0.6 -2.6
v 12.6 0.5 -2.6
v 12.5 0.5 -2.6
v 12.5 0.6 -2.6
v 12.7 0.6 -2.5
v 12.7 0.5 -2.5
v 12.7 0.5 -2.6
v 12.7 0.6 -2.6
v 12.6 0.6 -2.6
v 12.6 0.6 -2.5
v 12.7 0.6 -2.5
v 12.7 0.6 -2.6
v 12.6 0.6 -2.5
v 12.6 0.5 -2.5
v 12.7 0.5 -2.5
v 12.7 0.6 -2.5
v 12.7 0.6 -2.6
v 12.7 0.5 -2.6
v 12.6 0.5 -2.6
v 12.6 0.6 -2.6
v 12.5 0.5 -2.6
v 12.5 0.4 -2.6
v 12.5 0.4 -2.5
v 12.5 0.5 -2.5
v 12.5 0.4 -2.5
v 12.5 0.4 -2.6
v 12.6 0.4 -2.6
v 12.6 0.4 -2.5
v 12.5 0.5 -2.5
v 12.5 0.4 -2.5
v 12.6 0.4 -2.5
v 12.6 0.5 -2.5
v 12.6 0.5 -2.6
v 12.6 0.4 -2.6
v 12.5 0.4 -2.6
v 12.5 0.5 -2.6
v 12.6 0.4 -2.5
v 12.6 0.4 -2.6
v 12.7 0.4 -2.6
v 12.7 0.4 -2.5
v 12.6 0.5 -2.5
v 12.6 0.4 -2.5
v 12.7 0.4 -2.5
v 12.7 0.5 -2.5
v 12.7 0.5 -2.6
v 12.7 0.4 -2.6
v 12.6 0.4 -2.6
v 12.6 0.5 -2.6
v 12.8 0.5 -2.5
v 12.8 0.4 -2.5
v 12.8 0.4 -2.6
v 12.8 0.5 -2.6
v 12.7 0.5 -2.6
v 12.7 0.5 -2.5
v 12.8 0.5 -2.5
v 12.8 0.5 -2.6
v 12.7 0.5 -2.5
v 12.7 0.4 -2.5
v 12.8 0.4 -2.5
v 12.8 0.5 -2.5
v 12.8 0.5 -2.6
v 12.8 0.4 -2.6
v 12.7 0.4 -2.6
v 12.7 0.5 -2.6
v 12.7 0.4 -2.6
v 12.7 0.3 -2.6
v 12.7 0.3 -2.5
v 12.7 0.4 -2.5
v 12.7 0.3 -2.5
v 12.7 0.3 -2.6
v 12.8 0.3 -2.6
v 12.8 0.3 -2.5
v 12.7 0.4 -2.5
v 12.7 0.3 -2.5
v 12.8 0.3 -2.5
v 12.8 0.4 -2.5
v 12.8 0.4 -2.6
v 12.8 0.3 -2.6
v 12.7 0.3 -2.6
v 12.7 0.4 -2.6
v 12.8 0.4 -2.6
v 12.8 0.4 -2.5
v 12.9 0.4 -2.5
v 12.9 0.4 -2.6
v 12.8 0.3 -2.5
v 12.8 0.3 -2.6
v 12.9 0.3 -2.6
v 12.9 0.3 -2.5
v 12.8 0.4 -2.5
v 12.8 0.3 -2.5
v 12.9 0.3 -2.5
v 12.9 0.4 -2.5
v 12.9 0.4 -2.6
v 12.9 0.3 -2.6
v 12.8 0.3 -2.6
v 12.8 0.4 -2.6
v 13 0.4 -2.5
v 13 0.3 -2.5
v 13 0.3 -2.6
v 13 0.4 -2.6
v 12.9 0.4 -2.6
v 12.9 0.4 -2.5
v 13 0.4 -2.5
v 13 0.4 -2.6
v 12.9 0.4 -2.5
v 12.9 0.3 -2.5
v 13 0.3 -2.5
v 13 0.4 -2.5
v 13 0.4 -2.6
v 13 0.3 -2.6
v 12.9 0.3 -2.6
v 12.9 0.4 -2.6
v 12.9 0.3 -2.6
v 12.9 0.2 -2.6
v 12.9 0.2 -2.5
v 12.9 0.3 -2.5
v 12.9 0.2 -2.5
v 12.9 0.2 -2.6
v 13 0.2 -2.6
v 13 0.2 -2.5
v 12.9 0.3 -2.5
v 12.9 0.2 -2.5
v 13 0.2 -2.5
v 13 0.3 -2.5
v 13 0.3 -2.6
v 13 0.2 -2.6
v 12.9 0.2 -2.6
v 12.9 0.3 -2.6
v 13.1 0.3 -2.5
v 13.1 0.2 -2.5
v 13.1 0.2 -2.6
v 13.1 0.3 -2.6
v 13 0.3 -2.6
v 13 0.3 -2.5
v 13.1 0.3 -2.5
v 13.1 0.3 -2.6
v 13 0.2 -2.5
v 13 0.2 -2.6
v 13.1 0.2 -2.6
v 13.1 0.2 -2.5
v 13 0.3 -2.5
v 13 0.2 -2.5
v 13.1 0.2 -2.5
v 13.1 0.3 -2.5
v 13.1 0.3 -2.6
v 13.1 0.2 -2.6
v 13 0.2 -2.6
v 13 0.3 -2.6
v 13.1 0.2 -2.6
v 13.1 0.1 -2.6
v 13.1 0.1 -2.5
v 13.1 0.2 -2.5
v 13.2 0.2 -2.5
v 13.2 0.1 -2.5
v 13.2 0.1 -2.6
v 13.2 0.2 -2.6
v 13.1 0.2 -2.6
v 13.1 0.2 -2.5
v 13.2 0.2 -2.5
v 13.2 0.2 -2.6
v 13.1 0.1 -2.5
v 13.1 0.1 -2.6
v 13.2 0.1 -2.6
v 13.2 0.1 -2.5
v 13.1 0.2 -2.5
v 13.1 0.1 -2.5
v 13.2 0.1 -2.5
v 13.2 0.2 -2.5
v 13.2 0.2 -2.6
v 13.2 0.1 -2.6
v 13.1 0.1 -2.6
v 13.1 0.2 -2.6

# faces
f 1/1/1 2/1/1 3/1/1 4/1/1
f 5/1/2 6/1/2 7/1/2 8/1/2
f 9/1/3 10/1/3 11/1/3 12/1/3
f 13/1/5 14/1/5 15/1/5 16/1/5
f 17/1/6 18/1/6 19/1/6 20/1/6
f 21/1/1 22/1/1 23/1/1 24/1/1
f 25/1/3 26/1/3 27/1/3 28/1/3
f 29/1/4 30/1/4 31/1/4 32/1/4
f 33/1/5 34/1/5 35/1/5 36/1/5
f 37/1/6 38/1/6 39/1/6 40/1/6
f 41/1/5 42/1/5 43/1/5 44/1/5
f 45/1/6 46/1/6 47/1/6 48/1/6
f 49/1/2 50/1/2 51/1/2 52/1/2
f 53/1/3 54/1/3 55/1/3 56/1/3
f 57/1/5 58/1/5 59/1/5 60/1/5
f 61/1/6 62/1/6 63/1/6 64/1/6
f 65/1/1 66/1/1 67/1/1 68/1/1
f 69/1/4 70/1/4 71/1/4 72/1/4
f 73/1/5 74/1/5 75/1/5 76/1/5
f 77/1/6 78/1/6 79/1/6 80/1/6
f 81/1/5 82/1/5 83/1/5 84/1/5
f 85/1/6 86/1/6 87/1/6 88/1/6
f 89/1/2 90/1/2 91/1/2 92/1/2
f 93/1/3 94/1/3 95/1/3 96/1/3
f 97/1/5 98/1/5 99/1/5 100/1/5
f 101/1/6 102/1/6 103/1/6 104/1/6
f 105/1/1 106/1/1 107/1/1 108/1/1
f 109/1/4 110/1/4 111/1/4 112/1/4
f 113/1/5 114/1/5 115/1/5 116/1/5
f 117/1/6 118/1/6 119/1/6 120/1/6
f 121/1/5 122/1/5 123/1/5 124/1/5
f 125/1/6 126/1/6 127/1/6 128/1/6
f 129/1/3 130/1/3 131/1/3 132/1/3
f 133/1/5 134/1/5 135/1/5 136/1/5
f 137/1/6 138/1/6 139/1/6 140/1/6
f 141/1/2 142/1/2 143/1/2 144/1/2
f 145/1/3 146/1/3 147/1/3 148/1/3
f 149/1/5 150/1/5 151/1/5 152/1/5
f 153/1/6 154/1/6 155/1/6 156/1/6
f 157/1/1 158/1/1 159/1/1 160/1/1
f 161/1/4 162/1/4 163/1/4 164/1/4
f 165/1/5 166/1/5 167/1/5 168/1/5
f 169/1/6 170/1/6 171/1/6 172/1/6
f 173/1/4 174/1/4 175/1/4 176/1/4
f 177/1/5 178/1/5 179/1/5 180/1/5
f 181/1/6 182/1/6 183/1/6 184/1/6
f 185/1/5 186/1/5 187/1/5 188/1/5
f 189/1/6 190/1/6 191/1/6 192/1/6
f 193/1/2 194/1/2 195/1/2 196/1/2
f 197/1/3 198/1/3 199/1/3 200/1/3
f 201/1/5 202/1/5 203/1/5 204/1/5
f 205/1/6 206/1/6 207/1/6 208/1/6
f 209/1/1 210/1/1 211/1/1 212/1/1
f 213/1/4 214/1/4 215/1/4 216/1/4
f 217/1/5 218/1/5 219/1/5 220/1/5
f 221/1/6 222/1/6 223/1/6 224/1/6
f 225/1/4 226/1/4 227/1/4 228/1/4
f 229/1/5 230/1/5 231/1/5 232/1/5
f 233/1/6 234/1/6 235/1/6 236/1/6
f 237/1/2 238/1/2 239/1/2 240/1/2
f 241/1/3 242/1/3 243/1/3 244/1/3
f 245/1/5 246/1/5 247/1/5 248/1/5
f 249/1/6 250/1/6 251/1/6 252/1/6
f 253/1/1 254/1/1 255/1/1 256/1/1
f 257/1/4 258/1/4 259/1/4 260/1/4
f 261/1/5 262/1/5 263/1/5 264/1/5
f 265/1/6 266/1/6 267/1/6 268/1/6
f 269/1/3 270/1/3 271/1/3 272/1/3
f 273/1/4 274/1/4 275/1/4 276/1/4
f 277/1/5 278/1/5 279/1/5 280/1/5
f 281/1/6 282/1/6 283/1/6 284/1/6
f 285/1/2 286/1/2 287/1/2 288/1/2
f 289/1/3 290/1/3 291/1/3 292/1/3
f 293/1/5 294/1/5 295/1/5 296/1/5
f 297/1/6 298/1/6 299/1/6 300/1/6
f 301/1/1 302/1/1 303/1/1 304/1/1
f 305/1/4 306/1/4 307/1/4 308/1/4
f 309/1/5 310/1/5 311/1/5 312/1/5
f 313/1/6 314/1/6 315/1/6 316/1/6
f 317/1/2 318/1/2 319/1/2 320/1/2
f 321/1/3 322/1/3 323/1/3 324/1/3
f 325/1/4 326/1/4 327/1/4 328/1/4
f 329/1/5 330/1/5 331/1/5 332/1/5
f 333/1/6 334/1/6 335/1/6 336/1/6
f 337/1/1 338/1/1 339/1/1 340/1/1
f 341/1/2 342/1/2 343/1/2 344/1/2
f 345/1/3 346/1/3 347/1/3 348/1/3
f 349/1/4 350/1/4 351/1/4 352/1/4
f 353/1/5 354/1/5 355/1/5 356/1/5
f 357/1/6 358/1/6 359/1/6 360/1/6
f 361/1/1 362/1/1 363/1/1 364/1/1
f 365/1/2 366/1/2 367/1/2 368/1/2
f 369/1/3 370/1/3 371/1/3 372/1/3
f 373/1/5 374/1/5 375/1/5 376/1/5
f 377/1/6 378/1/6 379/1/6 380/1/6
f 381/1/1 382/1/1 383/1/1 384/1/1
f 385/1/3 386/1/3 387/1/3 388/1/3
f 389/1/4 390/1/4 391/1/4 392/1/4
f 393/1/5 394/1/5 395/1/5 396/1/5
f 397/1/6 398/1/6 399/1/6 400/1/6
f 401/1/5 402/1/5 403/1/5 404/1/5
f 405/1/6 406/1/6 407/1/6 408/1/6
f 409/1/2 410/1/2 411/1/2 412/1/2
f 413/1/3 414/1/3 415/1/3 416/1/3
f 417/1/5 418/1/5 419/1/5 420/1/5
f 421/1/6 422/1/6 423/1/6 424/1/6
f 425/1/1 426/1/1 427/1/1 428/1/1
f 429/1/4 430/1/4 431/1/4 432/1/4
f 433/1/5 434/1/5 435/1/5 436/1/5
f 437/1/6 438/1/6 439/1/6 440/1/6
f 441/1/5 442/1/5 443/1/5 444/1/5
f 445/1/6 446/1/6 447/1/6 448/1/6
f 449/1/2 450/1/2 451/1/2 452/1/2
f 453/1/3 454/1/3 455/1/3 456/1/3
f 457/1/5 458/1/5 459/1/5 460/1/5
f 461/1/6 462/1/6 463/1/6 464/1/6
f 465/1/1 466/1/1 467/1/1 468/1/1
f 469/1/4 470/1/4 471/1/4 472/1/4
f 473/1/5 474/1/5 475/1/5 476/1/5
f 477/1/6 478/1/6 479/1/6 480/1/6
f 481/1/5 482/1/5 483/1/5 484/1/5
f 485/1/6 486/1/6 487/1/6 488/1/6
f 489/1/3 490/1/3 491/1/3 492/1/3
f 493/1/5 494/1/5 495/1/5 496/1/5
f 497/1/6 498/1/6 499/1/6 500/1/6
f 501/1/2 502/1/2 503/1/2 504/1/2
f 505/1/3 506/1/3 507/1/3 508/1/3
f 509/1/5 510/1/5 511/1/5 512/1/5
f 513/1/6 514/1/6 515/1/6 516/1/6
f 517/1/1 518/1/1 519/1/1 520/1/1
f 521/1/4 522/1/4 523/1/4 524/1/4
f 525/1/5 526/1/5 527/1/5 528/1/5
f 529/1/6 530/1/6 531/1/6 532/1/6
f 533/1/4 534/1/4 535/1/4 536/1/4
f 537/1/5 538/1/5 539/1/5 540/1/5
f 541/1/6 542/1/6 543/1/6 544/1/6
f 545/1/5 546/1/5 547/1/5 548/1/5
f 549/1/6 550/1/6 551/1/6 552/1/6
f 553/1/2 554/1/2 555/1/2 556/1/2
f 557/1/3 558/1/3 559/1/3 560/1/3
f 561/1/5 562/1/5 563/1/5 564/1/5
f 565/1/6 566/1/6 567/1/6 568/1/6
f 569/1/1 570/1/1 571/1/1 572/1/1
f 573/1/4 574/1/4 575/1/4 576/1/4
f 577/1/5 578/1/5 579/1/5 580/1/5
f 581/1/6 582/1/6 583/1/6 584/1/6
f 585/1/4 586/1/4 587/1/4 588/1/4
f 589/1/5 590/1/5 591/1/5 592/1/5
f 593/1/6 594/1/6 595/1/6 596/1/6
f 597/1/2 598/1/2 599/1/2 600/1/2
f 601/1/3 602/1/3 603/1/3 604/1/3
f 605/1/5 606/1/5 607/1/5 608/1/5
f 609/1/6 610/1/6 611/1/6 612/1/6
f 613/1/1 614/1/1 615/1/1 616/1/1
f 617/1/4 618/1/4 619/1/4 620/1/4
f 621/1/5 622/1/5 623/1/5 624/1/5
f 625/1/6 626/1/6 627/1/6 628/1/6
f 629/1/3 630/1/3 631/1/3 632/1/3
f 633/1/4 634/1/4 635/1/4 636/1/4
f 637/1/5 638/1/5 639/1/5 640/1/5
f 641/1/6 642/1/6 643/1/6 644/1/6
f 645/1/2 646/1/2 647/1/2 648/1/2
f 649/1/3 650/1/3 651/1/3 652/1/3
f 653/1/5 654/1/5 655/1/5 656/1/5
f 657/1/6 658/1/6 659/1/6 660/1/6
f 661/1/1 662/1/1 663/1/1 664/1/1
f 665/1/4 666/1/4 667/1/4 668/1/4
f 669/1/5 670/1/5 671/1/5 672/1/5
f 673/1/6 674/1/6 675/1/6 676/1/6
f 677/1/2 678/1/2 679/1/2 680/1/2
f 681/1/3 682/1/3 683/1/3 684/1/3
f 685/1/4 686/1/4 687/1/4 688/1/4
f 689/1/5 690/1/5 691/1/5 692/1/5
f 693/1/6 694/1/6 695/1/6 696/1/6
f 697/1/1 698/1/1 699/1/1 700/1/1
f 701/1/2 702/1/2 703/1/2 704/1/2
f 705/1/3 706/1/3 707/1/3 708/1/3
f 709/1/4 710/1/4 711/1/4 712/1/4
f 713/1/5 714/1/5 715/1/5 716/1/5
f 717/1/6 718/1/6 719/1/6 720/1/6
f 721/1/1 722/1/1 723/1/1 724/1/1
f 725/1/2 726/1/2 727/1/2 728/1/2
f 729/1/3 730/1/3 731/1/3 732/1/3
f 733/1/5 734/1/5 735/1/5 736/1/5
f 737/1/6 738/1/6 739/1/6 740/1/6
f 741/1/1 742/1/1 743/1/1 744/1/1
f 745/1/3 746/1/3 747/1/3 748/1/3
f 749/1/4 750/1/4 751/1/4 752/1/4
f 753/1/5 754/1/5 755/1/5 756/1/5
f 757/1/6 758/1/6 759/1/6 760/1/6
f 761/1/5 762/1/5 763/1/5 764/1/5
f 765/1/6 766/1/6 767/1/6 768/1/6
f 769/1/2 770/1/2 771/1/2 772/1/2
f 773/1/3 774/1/3 775/1/3 776/1/3
f 777/1/5 778/1/5 779/1/5 780/1/5
f 781/1/6 782/1/6 783/1/6 784/1/6
f 785/1/1 786/1/1 787/1/1 788/1/1
f 789/1/4 790/1/4 791/1/4 792/1/4
f 793/1/5 794/1/5 795/1/5 796/1/5
f 797/1/6 798/1/6 799/1/6 800/1/6
f 801/1/5 802/1/5 803/1/5 804/1/5
f 805/1/6 806/1/6 807/1/6 808/1/6
f 809/1/2 810/1/2 811/1/2 812/1/2
f 813/1/3 814/1/3 815/1/3 816/1/3
f 817/1/5 818/1/5 819/1/5 820/1/5
f 821/1/6 822/1/6 823/1/6 824/1/6
f 825/1/1 826/1/1 827/1/1 828/1/1
f 829/1/4 830/1/4 831/1/4 832/1/4
f 833/1/5 834/1/5 835/1/5 836/1/5
f 837/1/6 838/1/6 839/1/6 840/1/6
f 841/1/5 842/1/5 843/1/5 844/1/5
f 845/1/6 846/1/6 847/1/6 848/1/6
f 849/1/3 850/1/3 851/1/3 852/1/3
f 853/1/5 854/1/5 855/1/5 856/1/5
f 857/1/6 858/1/6 859/1/6 860/1/6
f 861/1/2 862/1/2 863/1/2 864/1/2
f 865/1/3 866/1/3 867/1/3 868/1/3
f 869/1/5 870/1/5 871/1/5 872/1/5
f 873/1/6 874/1/6 875/1/6 876/1/6
f 877/1/1 878/1/1 879/1/1 880/1/1
f 881/1/4 882/1/4 883/1/4 884/1/4
f 885/1/5 886/1/5 887/1/5 888/1/5
f 889/1/6 890/1/6 891/1/6 892/1/6
f 893/1/4 894/1/4 895/1/4 896/1/4
f 897/1/5 898/1/5 899/1/5 900/1/5
f 901/1/6 902/1/6 903/1/6 904/1/6
f 905/1/5 906/1/5 907/1/5 908/1/5
f 909/1/6 910/1/6 911/1/6 912/1/6
f 913/1/2 914/1/2 915/1/2 916/1/2
f 917/1/3 918/1/3 919/1/3 920/1/3
f 921/1/5 922/1/5 923/1/5 924/1/5
f 925/1/6 926/1/6 927/1/6 928/1/6
f 929/1/1 930/1/1 931/1/1 932/1/1
f 933/1/4 934/1/4 935/1/4 936/1/4
f 937/1/5 938/1/5 939/1/5 940/1/5
f 941/1/6 942/1/6 943/1/6 944/1/6
f 945/1/4 946/1/4 947/1/4 948/1/4
f 949/1/5 950/1/5 951/1/5 952/1/5
f 953/1/6 954/1/6 955/1/6 956/1/6
f 957/1/2 958/1/2 959/1/2 960/1/2
f 961/1/3 962/1/3 963/1/3 964/1/3
f 965/1/5 966/1/5 967/1/5 968/1/5
f 969/1/6 970/1/6 971/1/6 972/1/6
f 973/1/1 974/1/1 975/1/1 976/1/1
f 977/1/4 978/1/4 979/1/4 980/1/4
f 981/1/5 982/1/5 983/1/5 984/1/5
f 985/1/6 986/1/6 987/1/6 988/1/6
f 989/1/3 990/1/3 991/1/3 992/1/3
f 993/1/4 994/1/4 995/1/4 996/1/4
f 997/1/5 998/1/5 999/1/5 1000/1/5
f 1001/1/6 1002/1/6 1003/1/6 1004/1/6
f 1005/1/2 1006/1/2 1007/1/2 1008/1/2
f 1009/1/3 1010/1/3 1011/1/3 1012/1/3
f 1013/1/5 1014/1/5 1015/1/5 1016/1/5
f 1017/1/6 1018/1/6 1019/1/6 1020/1/6
f 1021/1/1 1022/1/1 1023/1/1 1024/1/1
f 1025/1/4 1026/1/4 1027/1/4 1028/1/4
f 1029/1/5 1030/1/5 1031/1/5 1032/1/5
f 1033/1/6 1034/1/6 1035/1/6 1036/1/6
f 1037/1/2 1038/1/2 1039/1/2 1040/1/2
f 1041/1/3 1042/1/3 1043/1/3 1044/1/3
f 1045/1/4 1046/1/4 1047/1/4 1048/1/4
f 1049/1/5 1050/1/5 1051/1/5 1052/1/5
f 1053/1/6 1054/1/6 1055/1/6 1056/1/6
f 1057/1/1 1058/1/1 1059/1/1 1060/1/1
f 1061/1/2 1062/1/2 1063/1/2 1064/1/2
f 1065/1/3 1066/1/3 1067/1/3 1068/1/3
f 1069/1/4 1070/1/4 1071/1/4 1072/1/4
f 1073/1/5 1074/1/5 1075/1/5 1076/1/5
f 1077/1/6 1078/1/6 1079/1/6 1080/1/6

