# generated by vox_to_obj_exporter --round
# scale=0.1 center=false ground=false y_up=true
# welded, edge-relaxed, smooth vertex normals

mtllib Fight_761.mtl
usemtl palette

# verts
v 12.01625 0.9 -2.58375
v 12.02167 0.82167 -2.57833
v 12.02167 0.82167 -2.52167
v 12.01625 0.9 -2.51625
v 12.1 0.8 -2.587
v 12.1 0.8 -2.513
v 12.1 0.9 -2.513
v 12.1 0.9 -2.587
v 12.02167 0.97833 -2.57833
v 12.02167 0.97833 -2.52167
v 12.07833 0.97833 -2.52167
v 12.07833 0.97833 -2.57833
v 12.01625 2.1 -2.58375
v 12.02167 2.02167 -2.57833
v 12.02167 2.02167 -2.52167
v 12.01625 2.1 -2.51625
v 12.1 2 -2.587
v 12.1 2 -2.513
v 12.1 2.1 -2.513
v 12.1 2.1 -2.587
v 12.02167 2.17833 -2.57833
v 12.02167 2.17833 -2.52167
v 12.07833 2.17833 -2.52167
v 12.07833 2.17833 -2.57833
v 12.01625 3.3 -2.58375
v 12.02167 3.22167 -2.57833
v 12.02167 3.22167 -2.52167
v 12.01625 3.3 -2.51625
v 12.1 3.2 -2.587
v 12.1 3.2 -2.513
v 12.1 3.3 -2.513
v 12.1 3.3 -2.587
v 12.02167 3.37833 -2.57833
v 12.02167 3.37833 -2.52167
v 12.07833 3.37833 -2.52167
v 12.07833 3.37833 -2.57833
v 12.12167 0.72167 -2.57833
v 12.12167 0.72167 -2.52167
v 12.2 0.7 -2.587
v 12.2 0.7 -2.513
v 12.2 0.8 -2.5
v 12.2 0.8 -2.6
v 12.2 0.88375 -2.51625
v 12.2 0.88375 -2.58375
v 12.12167 1.92167 -2.57833
v 12.12167 1.92167 -2.52167
v 12.2 1.9 -2.587
v 12.2 1.9 -2.513
v 12.2 2 -2.5
v 12.2 2 -2.6
v 12.2 2.08375 -2.51625
v 12.2 2.08375 -2.58375
v 12.12167 3.12167 -2.57833
v 12.12167 3.12167 -2.52167
v 12.2 3.1 -2.587
v 12.2 3.1 -2.513
v 12.2 3.2 -2.5
v 12.2 3.2 -2.6
v 12.2 3.28375 -2.51625
v 12.2 3.28375 -2.58375
v 12.22167 0.62167 -2.57833
v 12.22167 0.62167 -2.52167
v 12.3 0.61625 -2.58375
v 12.3 0.61625 -2.51625
v 12.3 0.7 -2.5
v 12.3 0.7 -2.6
v 12.3 0.8 -2.513
v 12.3 0.8 -2.587
v 12.27833 0.87833 -2.52167
v 12.27833 0.87833 -2.57833
v 12.22167 1.82167 -2.57833
v 12.22167 1.82167 -2.52167
v 12.3 1.81625 -2.58375
v 12.3 1.81625 -2.51625
v 12.3 1.9 -2.5
v 12.3 1.9 -2.6
v 12.3 2 -2.513
v 12.3 2 -2.587
v 12.27833 2.07833 -2.52167
v 12.27833 2.07833 -2.57833
v 12.22167 3.02167 -2.57833
v 12.22167 3.02167 -2.52167
v 12.3 3.01625 -2.58375
v 12.3 3.01625 -2.51625
v 12.3 3.1 -2.5
v 12.3 3.1 -2.6
v 12.3 3.2 -2.513
v 12.3 3.2 -2.587
v 12.27833 3.27833 -2.52167
v 12.27833 3.27833 -2.57833
v 12.4 0.6 -2.587
v 12.4 0.6 -2.513
v 12.4 0.7 -2.513
v 12.4 0.7 -2.587
v 12.37833 0.77833 -2.52167
v 12.37833 0.77833 -2.57833
v 12.4 1.8 -2.587
v 12.4 1.8 -2.513
v 12.4 1.9 -2.513
v 12.4 1.9 -2.587
v 12.37833 1.97833 -2.52167
v 12.37833 1.97833 -2.57833
v 12.4 3 -2.587
v 12.4 3 -2.513
v 12.4 3.1 -2.513
v 12.4 3.1 -2.587
v 12.37833 3.17833 -2.52167
v 12.37833 3.17833 -2.57833
v 12.42167 0.52167 -2.57833
v 12.42167 0.52167 -2.52167
v 12.5 0.5 -2.587
v 12.5 0.5 -2.513
v 12.5 0.6 -2.513
v 12.5 0.6 -2.587
v 12.47833 0.67833 -2.52167
v 12.47833 0.67833 -2.57833
v 12.42167 1.72167 -2.57833
v 12.42167 1.72167 -2.52167
v 12.5 1.7 -2.587
v 12.5 1.7 -2.513
v 12.5 1.8 -2.513
v 12.5 1.8 -2.587
v 12.47833 1.87833 -2.52167
v 12.47833 1.87833 -2.57833
v 12.42167 2.92167 -2.57833
v 12.42167 2.92167 -2.52167
v 12.5 2.9 -2.587
v 12.5 2.9 -2.513
v 12.5 3 -2.513
v 12.5 3 -2.587
v 12.47833 3.07833 -2.52167
v 12.47833 3.07833 -2.57833
v 12.52167 0.42167 -2.57833
v 12.52167 0.42167 -2.52167
v 12.6 0.41625 -2.58375
v 12.6 0.41625 -2.51625
v 12.6 0.5 -2.5
v 12.6 0.5 -2.6
v 12.6 0.58375 -2.51625
v 12.6 0.58375 -2.58375
v 12.52167 1.62167 -2.57833
v 12.52167 1.62167 -2.52167
v 12.6 1.61625 -2.58375
v 12.6 1.61625 -2.51625
v 12.6 1.7 -2.5
v 12.6 1.7 -2.6
v 12.6 1.78375 -2.51625
v 12.6 1.78375 -2.58375
v 12.52167 2.82167 -2.57833
v 12.52167 2.82167 -2.52167
v 12.6 2.81625 -2.58375
v 12.6 2.81625 -2.51625
v 12.6 2.9 -2.5
v 12.6 2.9 -2.6
v 12.6 2.98375 -2.51625
v 12.6 2.98375 -2.58375
v 12.7 0.4 -2.587
v 12.7 0.4 -2.513
v 12.7 0.5 -2.513
v 12.7 0.5 -2.587
v 12.67833 0.57833 -2.52167
v 12.67833 0.57833 -2.57833
v 12.7 1.6 -2.587
v 12.7 1.6 -2.513
v 12.7 1.7 -2.513
v 12.7 1.7 -2.587
v 12.67833 1.77833 -2.52167
v 12.67833 1.77833 -2.57833
v 12.7 2.8 -2.587
v 12.7 2.8 -2.513
v 12.7 2.9 -2.513
v 12.7 2.9 -2.587
v 12.67833 2.97833 -2.52167
v 12.67833 2.97833 -2.57833
v 12.72167 0.32167 -2.57833
v 12.72167 0.32167 -2.52167
v 12.8 0.31625 -2.58375
v 12.8 0.31625 -2.51625
v 12.8 0.4 -2.513
v 12.8 0.4 -2.587
v 12.77833 0.47833 -2.52167
v 12.77833 0.47833 -2.57833
v 12.72167 1.52167 -2.57833
v 12.72167 1.52167 -2.52167
v 12.8 1.51625 -2.58375
v 12.8 1.51625 -2.51625
v 12.8 1.6 -2.513
v 12.8 1.6 -2.587
v 12.77833 1.67833 -2.52167
v 12.77833 1.67833 -2.57833
v 12.72167 2.72167 -2.57833
v 12.72167 2.72167 -2.52167
v 12.8 2.71625 -2.58375
v 12.8 2.71625 -2.51625
v 12.8 2.8 -2.513
v 12.8 2.8 -2.587
v 12.77833 2.87833 -2.52167
v 12.77833 2.87833 -2.57833
v 12.87833 0.37833 -2.52167
v 12.9 0.3 -2.513
v 12.9 0.3 -2.587
v 12.87833 0.37833 -2.57833
v 12.87833 1.57833 -2.52167
v 12.9 1.5 -2.513
v 12.9 1.5 -2.587
v 12.87833 1.57833 -2.57833
v 12.87833 2.77833 -2.52167
v 12.9 2.7 -2.513
v 12.9 2.7 -2.587
v 12.87833 2.77833 -2.57833
v 12.92167 0.22167 -2.57833
v 12.92167 0.22167 -2.52167
v 13 0.28375 -2.51625
v 13 0.28375 -2.58375
v 13 0.21625 -2.58375
v 13 0.21625 -2.51625
v 12.92167 1.42167 -2.57833
v 12.92167 1.42167 -2.52167
v 13 1.48375 -2.51625
v 13 1.48375 -2.58375
v 13 1.41625 -2.58375
v 13 1.41625 -2.51625
v 12.92167 2.62167 -2.57833
v 12.92167 2.62167 -2.52167
v 13 2.68375 -2.51625
v 13 2.68375 -2.58375
v 13 2.61625 -2.58375
v 13 2.61625 -2.51625
v 13.07833 0.27833 -2.52167
v 13.1 0.2 -2.513
v 13.1 0.2 -2.587
v 13.07833 0.27833 -2.57833
v 13.07833 1.47833 -2.52167
v 13.1 1.4 -2.513
v 13.1 1.4 -2.587
v 13.07833 1.47833 -2.57833
v 13.07833 2.67833 -2.52167
v 13.1 2.6 -2.513
v 13.1 2.6 -2.587
v 13.07833 2.67833 -2.57833
v 13.12167 0.12167 -2.57833
v 13.12167 0.12167 -2.52167
v 13.17833 0.17833 -2.52167
v 13.17833 0.12167 -2.52167
v 13.17833 0.12167 -2.57833
v 13.17833 0.17833 -2.57833
v 13.12167 1.32167 -2.57833
v 13.12167 1.32167 -2.52167
v 13.17833 1.37833 -2.52167
v 13.17833 1.32167 -2.52167
v 13.17833 1.32167 -2.57833
v 13.17833 1.37833 -2.57833
v 13.12167 2.52167 -2.57833
v 13.12167 2.52167 -2.52167
v 13.17833 2.57833 -2.52167
v 13.17833 2.52167 -2.52167
v 13.17833 2.52167 -2.57833
v 13.17833 2.57833 -2.57833

# texcoords
vt 0.02148 0.5
vt 0.02539 0.5
vt 0.03711 0.5
vt 0.0332 0.5
vt 0.04102 0.5

# normals
vn -1 0 -0
vn -0.9976 -0.069 -0
vn -0.2666 -0.9638 -0
vn -0.7071 -0.7071 -0
vn -0.0504 0.0273 0.9984
vn -0.0776 -0.0326 0.9964
vn -0.0853 -0.0269 0.996
vn -0.0474 0.0476 0.9977
vn -0.0474 0.0476 -0.9977
vn -0.0853 -0.0269 -0.996
vn -0.0776 -0.0326 -0.9964
vn -0.0504 0.0273 -0.9984
vn -0.9976 0.069 -0
vn 0.9638 0.2666 -0
vn 0 1 -0
vn -0.0231 0.0871 0.9959
vn -0.0231 0.0871 -0.9959
vn -0.1357 -0.1357 0.9814
vn -0.081 -0.1007 0.9916
vn -0.0179 0.0296 0.9994
vn -0.0179 0.0296 -0.9994
vn -0.081 -0.1007 -0.9916
vn -0.1357 -0.1357 -0.9814
vn 0.1604 0.9871 -0
vn 0.1148 0.9934 -0
vn 0.0326 0.1269 0.9914
vn 0.0326 0.1269 -0.9914
vn -0.9638 -0.2666 -0
vn -0.069 -0.9976 -0
vn -0.1148 -0.9934 -0
vn -0.1063 -0.1649 0.9806
vn -0.0326 -0.1269 0.9914
vn 0.0179 -0.0296 0.9994
vn 0.0179 -0.0296 -0.9994
vn -0.0326 -0.1269 -0.9914
vn -0.1063 -0.1649 -0.9806
vn 0.081 0.1007 0.9916
vn 0.081 0.1007 -0.9916
vn 0.7071 0.7071 -0
vn 0.069 0.9976 -0
vn 0.1063 0.1649 0.9806
vn 0.1063 0.1649 -0.9806
vn -0.1604 -0.9871 -0
vn 0.0138 -0.0294 0.9995
vn 0.0778 0.0345 0.9964
vn 0.0778 0.0345 -0.9964
vn 0.0138 -0.0294 -0.9995
vn 0.1357 0.1357 0.9814
vn 0.1357 0.1357 -0.9814
vn -0.0552 -0.0552 0.997
vn -0.068 -0.0443 0.9967
vn -0.0138 0.0294 0.9995
vn -0.0138 0.0294 -0.9995
vn -0.068 -0.0443 -0.9967
vn -0.0552 -0.0552 -0.997
vn 0.0552 0.0552 0.997
vn 0.0552 0.0552 -0.997
vn 0 0 1
vn 0 0 -1
vn 0.0214 -0.0369 0.9991
vn 0.068 0.0443 0.9967
vn 0.068 0.0443 -0.9967
vn 0.0214 -0.0369 -0.9991
vn -0.0326 -0.0776 0.9964
vn 0.003 -0.0196 0.9998
vn 0.0204 0.0054 0.9998
vn 0.0204 0.0054 -0.9998
vn 0.003 -0.0196 -0.9998
vn -0.0326 -0.0776 -0.9964
vn 0.0094 -0.0119 0.9999
vn 0.0385 0.0385 0.9985
vn 0.0385 0.0385 -0.9985
vn 0.0094 -0.0119 -0.9999
vn -0.0197 -0.0622 0.9979
vn -0.0197 -0.0622 -0.9979
vn 0.0375 0.0035 0.9993
vn 0.0197 0.0622 0.9979
vn 0.0197 0.0622 -0.9979
vn 0.0375 0.0035 -0.9993
vn 1 0 -0
vn 0.2666 0.9638 -0
vn 0 -1 -0
vn 0.0552 -0.0552 0.997
vn 0.0552 -0.0552 -0.997

# faces
f 2/1/2 3/1/2 4/1/1
f 2/1/2 4/1/1 1/1/1
f 2/1/3 5/1/4 6/1/4
f 2/1/3 6/1/4 3/1/3
f 3/1/6 6/1/7 7/1/8
f 3/1/6 7/1/8 4/1/5
f 8/1/9 5/1/10 2/1/11
f 8/1/9 2/1/11 1/1/12
f 9/1/13 1/1/1 4/1/1
f 9/1/13 4/1/1 10/1/13
f 7/1/14 8/1/14 12/1/14
f 7/1/14 12/1/14 11/1/14
f 9/1/15 10/1/15 11/1/15
f 9/1/15 11/1/15 12/1/15
f 4/1/5 7/1/8 11/1/16
f 4/1/5 11/1/16 10/1/16
f 12/1/17 8/1/9 1/1/12
f 12/1/17 1/1/12 9/1/17
f 14/1/2 15/1/2 16/1/1
f 14/1/2 16/1/1 13/1/1
f 14/1/3 17/1/4 18/1/4
f 14/1/3 18/1/4 15/1/3
f 15/1/6 18/1/7 19/1/8
f 15/1/6 19/1/8 16/1/5
f 20/1/9 17/1/10 14/1/11
f 20/1/9 14/1/11 13/1/12
f 21/1/13 13/1/1 16/1/1
f 21/1/13 16/1/1 22/1/13
f 19/1/14 20/1/14 24/1/14
f 19/1/14 24/1/14 23/1/14
f 21/1/15 22/1/15 23/1/15
f 21/1/15 23/1/15 24/1/15
f 16/1/5 19/1/8 23/1/16
f 16/1/5 23/1/16 22/1/16
f 24/1/17 20/1/9 13/1/12
f 24/1/17 13/1/12 21/1/17
f 26/1/2 27/1/2 28/1/1
f 26/1/2 28/1/1 25/1/1
f 26/1/3 29/1/4 30/1/4
f 26/1/3 30/1/4 27/1/3
f 27/1/6 30/1/7 31/1/8
f 27/1/6 31/1/8 28/1/5
f 32/1/9 29/1/10 26/1/11
f 32/1/9 26/1/11 25/1/12
f 33/1/13 25/1/1 28/1/1
f 33/1/13 28/1/1 34/1/13
f 31/1/14 32/1/14 36/1/14
f 31/1/14 36/1/14 35/1/14
f 33/1/15 34/1/15 35/1/15
f 33/1/15 35/1/15 36/1/15
f 28/1/5 31/1/8 35/1/16
f 28/1/5 35/1/16 34/1/16
f 36/1/17 32/1/9 25/1/12
f 36/1/17 25/1/12 33/1/17
f 37/1/4 38/1/4 6/1/4
f 37/1/4 6/1/4 5/1/4
f 37/1/4 39/1/4 40/1/4
f 37/1/4 40/1/4 38/1/4
f 38/1/18 40/1/19 41/1/20
f 38/1/18 41/1/20 6/1/7
f 42/1/21 39/1/22 37/1/23
f 42/1/21 37/1/23 5/1/10
f 7/1/24 43/1/25 44/1/25
f 7/1/24 44/1/25 8/1/24
f 6/1/7 41/1/20 43/1/26
f 6/1/7 43/1/26 7/1/8
f 44/1/27 42/1/21 5/1/10
f 44/1/27 5/1/10 8/1/9
f 45/1/4 46/1/4 18/1/4
f 45/1/4 18/1/4 17/1/4
f 45/1/4 47/1/4 48/1/4
f 45/1/4 48/1/4 46/1/4
f 46/1/18 48/1/19 49/1/20
f 46/1/18 49/1/20 18/1/7
f 50/1/21 47/1/22 45/1/23
f 50/1/21 45/1/23 17/1/10
f 19/1/24 51/1/25 52/1/25
f 19/1/24 52/1/25 20/1/24
f 18/1/7 49/1/20 51/1/26
f 18/1/7 51/1/26 19/1/8
f 52/1/27 50/1/21 17/1/10
f 52/1/27 17/1/10 20/1/9
f 53/1/4 54/1/4 30/1/4
f 53/1/4 30/1/4 29/1/4
f 53/1/4 55/1/4 56/1/4
f 53/1/4 56/1/4 54/1/4
f 54/1/18 56/1/19 57/1/20
f 54/1/18 57/1/20 30/1/7
f 58/1/21 55/1/22 53/1/23
f 58/1/21 53/1/23 29/1/10
f 31/1/24 59/1/25 60/1/25
f 31/1/24 60/1/25 32/1/24
f 30/1/7 57/1/20 59/1/26
f 30/1/7 59/1/26 31/1/8
f 60/1/27 58/1/21 29/1/10
f 60/1/27 29/1/10 32/1/9
f 61/1/28 62/1/28 40/1/4
f 61/1/28 40/1/4 39/1/4
f 61/1/29 63/1/30 64/1/30
f 61/1/29 64/1/30 62/1/29
f 62/1/31 64/1/32 65/1/33
f 62/1/31 65/1/33 40/1/19
f 66/1/34 63/1/35 61/1/36
f 66/1/34 61/1/36 39/1/22
f 41/1/20 40/1/19 65/1/33
f 41/1/20 65/1/33 67/1/37
f 68/1/38 66/1/34 39/1/22
f 68/1/38 39/1/22 42/1/21
f 67/1/39 68/1/39 70/1/14
f 67/1/39 70/1/14 69/1/14
f 43/1/25 69/1/40 70/1/40
f 43/1/25 70/1/40 44/1/25
f 41/1/20 67/1/37 69/1/41
f 41/1/20 69/1/41 43/1/26
f 70/1/42 68/1/38 42/1/21
f 70/1/42 42/1/21 44/1/27
f 71/1/28 72/1/28 48/1/4
f 71/1/28 48/1/4 47/1/4
f 71/1/29 73/1/30 74/1/30
f 71/1/29 74/1/30 72/1/29
f 72/1/31 74/1/32 75/1/33
f 72/1/31 75/1/33 48/1/19
f 76/1/34 73/1/35 71/1/36
f 76/1/34 71/1/36 47/1/22
f 49/1/20 48/1/19 75/1/33
f 49/1/20 75/1/33 77/1/37
f 78/1/38 76/1/34 47/1/22
f 78/1/38 47/1/22 50/1/21
f 77/1/39 78/1/39 80/1/14
f 77/1/39 80/1/14 79/1/14
f 51/1/25 79/1/40 80/1/40
f 51/1/25 80/1/40 52/1/25
f 49/1/20 77/1/37 79/1/41
f 49/1/20 79/1/41 51/1/26
f 80/1/42 78/1/38 50/1/21
f 80/1/42 50/1/21 52/1/27
f 81/1/28 82/1/28 56/1/4
f 81/1/28 56/1/4 55/1/4
f 81/1/29 83/1/30 84/1/30
f 81/1/29 84/1/30 82/1/29
f 82/1/31 84/1/32 85/1/33
f 82/1/31 85/1/33 56/1/19
f 86/1/34 83/1/35 81/1/36
f 86/1/34 81/1/36 55/1/22
f 57/1/20 56/1/19 85/1/33
f 57/1/20 85/1/33 87/1/37
f 88/1/38 86/1/34 55/1/22
f 88/1/38 55/1/22 58/1/21
f 87/1/39 88/1/39 90/1/14
f 87/1/39 90/1/14 89/1/14
f 59/1/25 89/1/40 90/1/40
f 59/1/25 90/1/40 60/1/25
f 57/1/20 87/1/37 89/1/41
f 57/1/20 89/1/41 59/1/26
f 90/1/42 88/1/38 58/1/21
f 90/1/42 58/1/21 60/1/27
f 63/2/30 91/2/43 92/2/43
f 63/2/30 92/2/43 64/2/30
f 64/2/32 92/2/44 93/2/45
f 64/2/32 93/2/45 65/2/33
f 94/2/46 91/2/47 63/2/35
f 94/2/46 63/2/35 66/2/34
f 93/2/39 94/2/39 96/2/39
f 93/2/39 96/2/39 95/2/39
f 67/2/39 95/2/39 96/2/39
f 67/2/39 96/2/39 68/2/39
f 65/2/33 93/2/45 95/2/48
f 65/2/33 95/2/48 67/2/37
f 96/2/49 94/2/46 66/2/34
f 96/2/49 66/2/34 68/2/38
f 73/2/30 97/2/43 98/2/43
f 73/2/30 98/2/43 74/2/30
f 74/2/32 98/2/44 99/2/45
f 74/2/32 99/2/45 75/2/33
f 100/2/46 97/2/47 73/2/35
f 100/2/46 73/2/35 76/2/34
f 99/2/39 100/2/39 102/2/39
f 99/2/39 102/2/39 101/2/39
f 77/2/39 101/2/39 102/2/39
f 77/2/39 102/2/39 78/2/39
f 75/2/33 99/2/45 101/2/48
f 75/2/33 101/2/48 77/2/37
f 102/2/49 100/2/46 76/2/34
f 102/2/49 76/2/34 78/2/38
f 83/2/30 103/2/43 104/2/43
f 83/2/30 104/2/43 84/2/30
f 84/2/32 104/2/44 105/2/45
f 84/2/32 105/2/45 85/2/33
f 106/2/46 103/2/47 83/2/35
f 106/2/46 83/2/35 86/2/34
f 105/2/39 106/2/39 108/2/39
f 105/2/39 108/2/39 107/2/39
f 87/2/39 107/2/39 108/2/39
f 87/2/39 108/2/39 88/2/39
f 85/2/33 105/2/45 107/2/48
f 85/2/33 107/2/48 87/2/37
f 108/2/49 106/2/46 86/2/34
f 108/2/49 86/2/34 88/2/38
f 109/3/4 110/3/4 92/3/28
f 109/3/4 92/3/28 91/3/28
f 109/3/4 111/3/4 112/3/4
f 109/3/4 112/3/4 110/3/4
f 110/3/50 112/3/51 113/3/52
f 110/3/50 113/3/52 92/3/44
f 114/3/53 111/3/54 109/3/55
f 114/3/53 109/3/55 91/3/47
f 113/4/14 114/4/14 116/4/39
f 113/4/14 116/4/39 115/4/39
f 93/4/39 115/4/39 116/4/39
f 93/4/39 116/4/39 94/4/39
f 92/4/44 113/4/52 115/4/56
f 92/4/44 115/4/56 93/4/45
f 116/4/57 114/4/53 91/4/47
f 116/4/57 91/4/47 94/4/46
f 117/3/4 118/3/4 98/3/28
f 117/3/4 98/3/28 97/3/28
f 117/3/4 119/3/4 120/3/4
f 117/3/4 120/3/4 118/3/4
f 118/3/50 120/3/51 121/3/52
f 118/3/50 121/3/52 98/3/44
f 122/3/53 119/3/54 117/3/55
f 122/3/53 117/3/55 97/3/47
f 121/4/14 122/4/14 124/4/39
f 121/4/14 124/4/39 123/4/39
f 99/4/39 123/4/39 124/4/39
f 99/4/39 124/4/39 100/4/39
f 98/4/44 121/4/52 123/4/56
f 98/4/44 123/4/56 99/4/45
f 124/4/57 122/4/53 97/4/47
f 124/4/57 97/4/47 100/4/46
f 125/3/4 126/3/4 104/3/28
f 125/3/4 104/3/28 103/3/28
f 125/3/4 127/3/4 128/3/4
f 125/3/4 128/3/4 126/3/4
f 126/3/50 128/3/51 129/3/52
f 126/3/50 129/3/52 104/3/44
f 130/3/53 127/3/54 125/3/55
f 130/3/53 125/3/55 103/3/47
f 129/4/14 130/4/14 132/4/39
f 129/4/14 132/4/39 131/4/39
f 105/4/39 131/4/39 132/4/39
f 105/4/39 132/4/39 106/4/39
f 104/4/44 129/4/52 131/4/56
f 104/4/44 131/4/56 105/4/45
f 132/4/57 130/4/53 103/4/47
f 132/4/57 103/4/47 106/4/46
f 133/3/28 134/3/28 112/3/4
f 133/3/28 112/3/4 111/3/4
f 133/3/29 135/3/30 136/3/30
f 133/3/29 136/3/30 134/3/29
f 134/3/31 136/3/32 137/3/58
f 134/3/31 137/3/58 112/3/51
f 138/3/59 135/3/35 133/3/36
f 138/3/59 133/3/36 111/3/54
f 113/5/24 139/5/25 140/5/25
f 113/5/24 140/5/25 114/5/24
f 112/5/51 137/5/58 139/5/26
f 112/5/51 139/5/26 113/5/52
f 140/5/27 138/5/59 111/5/54
f 140/5/27 111/5/54 114/5/53
f 141/3/28 142/3/28 120/3/4
f 141/3/28 120/3/4 119/3/4
f 141/3/29 143/3/30 144/3/30
f 141/3/29 144/3/30 142/3/29
f 142/3/31 144/3/32 145/3/58
f 142/3/31 145/3/58 120/3/51
f 146/3/59 143/3/35 141/3/36
f 146/3/59 141/3/36 119/3/54
f 121/5/24 147/5/25 148/5/25
f 121/5/24 148/5/25 122/5/24
f 120/5/51 145/5/58 147/5/26
f 120/5/51 147/5/26 121/5/52
f 148/5/27 146/5/59 119/5/54
f 148/5/27 119/5/54 122/5/53
f 149/3/28 150/3/28 128/3/4
f 149/3/28 128/3/4 127/3/4
f 149/3/29 151/3/30 152/3/30
f 149/3/29 152/3/30 150/3/29
f 150/3/31 152/3/32 153/3/58
f 150/3/31 153/3/58 128/3/51
f 154/3/59 151/3/35 149/3/36
f 154/3/59 149/3/36 127/3/54
f 129/5/24 155/5/25 156/5/25
f 129/5/24 156/5/25 130/5/24
f 128/5/51 153/5/58 155/5/26
f 128/5/51 155/5/26 129/5/52
f 156/5/27 154/5/59 127/5/54
f 156/5/27 127/5/54 130/5/53
f 135/5/30 157/5/43 158/5/43
f 135/5/30 158/5/43 136/5/30
f 136/5/32 158/5/60 159/5/61
f 136/5/32 159/5/61 137/5/58
f 160/5/62 157/5/63 135/5/35
f 160/5/62 135/5/35 138/5/59
f 159/5/39 160/5/39 162/5/14
f 159/5/39 162/5/14 161/5/14
f 139/5/25 161/5/40 162/5/40
f 139/5/25 162/5/40 140/5/25
f 137/5/58 159/5/61 161/5/41
f 137/5/58 161/5/41 139/5/26
f 162/5/42 160/5/62 138/5/59
f 162/5/42 138/5/59 140/5/27
f 143/5/30 163/5/43 164/5/43
f 143/5/30 164/5/43 144/5/30
f 144/5/32 164/5/60 165/5/61
f 144/5/32 165/5/61 145/5/58
f 166/5/62 163/5/63 143/5/35
f 166/5/62 143/5/35 146/5/59
f 165/5/39 166/5/39 168/5/14
f 165/5/39 168/5/14 167/5/14
f 147/5/25 167/5/40 168/5/40
f 147/5/25 168/5/40 148/5/25
f 145/5/58 165/5/61 167/5/41
f 145/5/58 167/5/41 147/5/26
f 168/5/42 166/5/62 146/5/59
f 168/5/42 146/5/59 148/5/27
f 151/5/30 169/5/43 170/5/43
f 151/5/30 170/5/43 152/5/30
f 152/5/32 170/5/60 171/5/61
f 152/5/32 171/5/61 153/5/58
f 172/5/62 169/5/63 151/5/35
f 172/5/62 151/5/35 154/5/59
f 171/5/39 172/5/39 174/5/14
f 171/5/39 174/5/14 173/5/14
f 155/5/25 173/5/40 174/5/40
f 155/5/25 174/5/40 156/5/25
f 153/5/58 171/5/61 173/5/41
f 153/5/58 173/5/41 155/5/26
f 174/5/42 172/5/62 154/5/59
f 174/5/42 154/5/59 156/5/27
f 175/5/28 176/5/28 158/5/28
f 175/5/28 158/5/28 157/5/28
f 175/5/29 177/5/30 178/5/30
f 175/5/29 178/5/30 176/5/29
f 176/5/64 178/5/65 179/5/66
f 176/5/64 179/5/66 158/5/60
f 180/5/67 177/5/68 175/5/69
f 180/5/67 175/5/69 157/5/63
f 179/5/39 180/5/39 182/5/39
f 179/5/39 182/5/39 181/5/39
f 159/5/39 181/5/39 182/5/39
f 159/5/39 182/5/39 160/5/39
f 158/5/60 179/5/66 181/5/56
f 158/5/60 181/5/56 159/5/61
f 182/5/57 180/5/67 157/5/63
f 182/5/57 157/5/63 160/5/62
f 183/5/28 184/5/28 164/5/28
f 183/5/28 164/5/28 163/5/28
f 183/5/29 185/5/30 186/5/30
f 183/5/29 186/5/30 184/5/29
f 184/5/64 186/5/65 187/5/66
f 184/5/64 187/5/66 164/5/60
f 188/5/67 185/5/68 183/5/69
f 188/5/67 183/5/69 163/5/63
f 187/5/39 188/5/39 190/5/39
f 187/5/39 190/5/39 189/5/39
f 165/5/39 189/5/39 190/5/39
f 165/5/39 190/5/39 166/5/39
f 164/5/60 187/5/66 189/5/56
f 164/5/60 189/5/56 165/5/61
f 190/5/57 188/5/67 163/5/63
f 190/5/57 163/5/63 166/5/62
f 191/5/28 192/5/28 170/5/28
f 191/5/28 170/5/28 169/5/28
f 191/5/29 193/5/30 194/5/30
f 191/5/29 194/5/30 192/5/29
f 192/5/64 194/5/65 195/5/66
f 192/5/64 195/5/66 170/5/60
f 196/5/67 193/5/68 191/5/69
f 196/5/67 191/5/69 169/5/63
f 195/5/39 196/5/39 198/5/39
f 195/5/39 198/5/39 197/5/39
f 171/5/39 197/5/39 198/5/39
f 171/5/39 198/5/39 172/5/39
f 170/5/60 195/5/66 197/5/56
f 170/5/60 197/5/56 171/5/61
f 198/5/57 196/5/67 169/5/63
f 198/5/57 169/5/63 172/5/62
f 200/5/14 201/5/14 202/5/39
f 200/5/14 202/5/39 199/5/39
f 179/5/39 199/5/39 202/5/39
f 179/5/39 202/5/39 180/5/39
f 177/5/30 201/5/43 200/5/43
f 177/5/30 200/5/43 178/5/30
f 178/5/65 200/5/70 199/5/71
f 178/5/65 199/5/71 179/5/66
f 202/5/72 201/5/73 177/5/68
f 202/5/72 177/5/68 180/5/67
f 204/5/14 205/5/14 206/5/39
f 204/5/14 206/5/39 203/5/39
f 187/5/39 203/5/39 206/5/39
f 187/5/39 206/5/39 188/5/39
f 185/5/30 205/5/43 204/5/43
f 185/5/30 204/5/43 186/5/30
f 186/5/65 204/5/70 203/5/71
f 186/5/65 203/5/71 187/5/66
f 206/5/72 205/5/73 185/5/68
f 206/5/72 185/5/68 188/5/67
f 208/5/14 209/5/14 210/5/39
f 208/5/14 210/5/39 207/5/39
f 195/5/39 207/5/39 210/5/39
f 195/5/39 210/5/39 196/5/39
f 193/5/30 209/5/43 208/5/43
f 193/5/30 208/5/43 194/5/30
f 194/5/65 208/5/70 207/5/71
f 194/5/65 207/5/71 195/5/66
f 210/5/72 209/5/73 193/5/68
f 210/5/72 193/5/68 196/5/67
f 211/5/28 212/5/28 200/5/28
f 211/5/28 200/5/28 201/5/28
f 200/5/24 213/5/25 214/5/25
f 200/5/24 214/5/25 201/5/24
f 211/5/29 215/5/30 216/5/30
f 211/5/29 216/5/30 212/5/29
f 212/5/74 216/5/58 213/5/58
f 212/5/74 213/5/58 200/5/70
f 214/5/59 215/5/59 211/5/75
f 214/5/59 211/5/75 201/5/73
f 217/5/28 218/5/28 204/5/28
f 217/5/28 204/5/28 205/5/28
f 204/5/24 219/5/25 220/5/25
f 204/5/24 220/5/25 205/5/24
f 217/5/29 221/5/30 222/5/30
f 217/5/29 222/5/30 218/5/29
f 218/5/74 222/5/58 219/5/58
f 218/5/74 219/5/58 204/5/70
f 220/5/59 221/5/59 217/5/75
f 220/5/59 217/5/75 205/5/73
f 223/5/28 224/5/28 208/5/28
f 223/5/28 208/5/28 209/5/28
f 208/5/24 225/5/25 226/5/25
f 208/5/24 226/5/25 209/5/24
f 223/5/29 227/5/30 228/5/30
f 223/5/29 228/5/30 224/5/29
f 224/5/74 228/5/58 225/5/58
f 224/5/74 225/5/58 208/5/70
f 226/5/59 227/5/59 223/5/75
f 226/5/59 223/5/75 209/5/73
f 230/5/39 231/5/39 232/5/14
f 230/5/39 232/5/14 229/5/14
f 213/5/25 229/5/40 232/5/40
f 213/5/25 232/5/40 214/5/25
f 215/5/30 231/5/43 230/5/43
f 215/5/30 230/5/43 216/5/30
f 216/5/58 230/5/76 229/5/77
f 216/5/58 229/5/77 213/5/58
f 232/5/78 231/5/79 215/5/59
f 232/5/78 215/5/59 214/5/59
f 234/5/39 235/5/39 236/5/14
f 234/5/39 236/5/14 233/5/14
f 219/5/25 233/5/40 236/5/40
f 219/5/25 236/5/40 220/5/25
f 221/5/30 235/5/43 234/5/43
f 221/5/30 234/5/43 222/5/30
f 222/5/58 234/5/76 233/5/77
f 222/5/58 233/5/77 219/5/58
f 236/5/78 235/5/79 221/5/59
f 236/5/78 221/5/59 220/5/59
f 238/5/39 239/5/39 240/5/14
f 238/5/39 240/5/14 237/5/14
f 225/5/25 237/5/40 240/5/40
f 225/5/25 240/5/40 226/5/25
f 227/5/30 239/5/43 238/5/43
f 227/5/30 238/5/43 228/5/30
f 228/5/58 238/5/76 237/5/77
f 228/5/58 237/5/77 225/5/58
f 240/5/78 239/5/79 227/5/59
f 240/5/78 227/5/59 226/5/59
f 241/5/28 242/5/28 230/5/28
f 241/5/28 230/5/28 231/5/28
f 243/5/80 244/5/80 245/5/80
f 243/5/80 245/5/80 246/5/80
f 230/5/39 243/5/81 246/5/81
f 230/5/39 246/5/81 231/5/39
f 242/5/82 241/5/82 245/5/82
f 242/5/82 245/5/82 244/5/82
f 242/5/83 244/5/83 243/5/83
f 242/5/83 243/5/83 230/5/76
f 246/5/84 245/5/84 241/5/84
f 246/5/84 241/5/84 231/5/79
f 247/5/28 248/5/28 234/5/28
f 247/5/28 234/5/28 235/5/28
f 249/5/80 250/5/80 251/5/80
f 249/5/80 251/5/80 252/5/80
f 234/5/39 249/5/81 252/5/81
f 234/5/39 252/5/81 235/5/39
f 248/5/82 247/5/82 251/5/82
f 248/5/82 251/5/82 250/5/82
f 248/5/83 250/5/83 249/5/83
f 248/5/83 249/5/83 234/5/76
f 252/5/84 251/5/84 247/5/84
f 252/5/84 247/5/84 235/5/79
f 253/5/28 254/5/28 238/5/28
f 253/5/28 238/5/28 239/5/28
f 255/5/80 256/5/80 257/5/80
f 255/5/80 257/5/80 258/5/80
f 238/5/39 255/5/81 258/5/81
f 238/5/39 258/5/81 239/5/39
f 254/5/82 253/5/82 257/5/82
f 254/5/82 257/5/82 256/5/82
f 254/5/83 256/5/83 255/5/83
f 254/5/83 255/5/83 238/5/76
f 258/5/84 257/5/84 253/5/84
f 258/5/84 253/5/84 239/5/79

