# generated by vox_to_obj_exporter
# scale=0.1 center=true ground=true y_up=false

mtllib lava_25_13.mtl
usemtl palette

# normals
vn -1 0 0
vn 1 0 0
vn 0 0 1
vn 0 0 -1
vn 0 -1 0
vn 0 1 0

# texcoords
vt 0.001953125 0.5
vt 0.044921875 0.5
vt 0.021484375 0.5
vt 0.068359375 0.5

# verts
v -1.2 -0.5 0.1
v -1.2 -0.5 0
v -1.2 -0.6 0
v -1.2 -0.6 0.1
v -1.2 -0.5 0.1
v -1.2 -0.6 0.1
v -1.1 -0.6 0.1
v -1.1 -0.5 0.1
v -1.2 -0.6 0
v -1.2 -0.5 0
v -1.1 -0.5 0
v -1.1 -0.6 0
v -1.2 -0.6 0.1
v -1.2 -0.6 0
v -1.1 -0.6 0
v -1.1 -0.6 0.1
v -1.2 -0.4 0.1
v -1.2 -0.4 0
v -1.2 -0.5 0
v -1.2 -0.5 0.1
v -1.2 -0.4 0.1
v -1.2 -0.5 0.1
v -1.1 -0.5 0.1
v -1.1 -0.4 0.1
v -1.2 -0.5 0
v -1.2 -0.4 0
v -1.1 -0.4 0
v -1.1 -0.5 0
v -1.2 -0.3 0.1
v -1.2 -0.3 0
v -1.2 -0.4 0
v -1.2 -0.4 0.1
v -1.2 -0.3 0.1
v -1.2 -0.4 0.1
v -1.1 -0.4 0.1
v -1.1 -0.3 0.1
v -1.2 -0.4 0
v -1.2 -0.3 0
v -1.1 -0.3 0
v -1.1 -0.4 0
v -1.2 -0.2 0.1
v -1.2 -0.2 0
v -1.2 -0.3 0
v -1.2 -0.3 0.1
v -1.2 -0.2 0.1
v -1.2 -0.3 0.1
v -1.1 -0.3 0.1
v -1.1 -0.2 0.1
v -1.2 -0.3 0
v -1.2 -0.2 0
v -1.1 -0.2 0
v -1.1 -0.3 0
v -1.2 -0.1 0.1
v -1.2 -0.1 0
v -1.2 -0.2 0
v -1.2 -0.2 0.1
v -1.2 -0.1 0.1
v -1.2 -0.2 0.1
v -1.1 -0.2 0.1
v -1.1 -0.1 0.1
v -1.2 -0.2 0
v -1.2 -0.1 0
v -1.1 -0.1 0
v -1.1 -0.2 0
v -1.2 0 0.1
v -1.2 0 0
v -1.2 -0.1 0
v -1.2 -0.1 0.1
v -1.2 0 0.1
v -1.2 -0.1 0.1
v -1.1 -0.1 0.1
v -1.1 0 0.1
v -1.2 -0.1 0
v -1.2 0 0
v -1.1 0 0
v -1.1 -0.1 0
v -1.2 0.1 0.1
v -1.2 0.1 0
v -1.2 0 0
v -1.2 0 0.1
v -1.2 0.1 0.1
v -1.2 0 0.1
v -1.1 0 0.1
v -1.1 0.1 0.1
v -1.2 0 0
v -1.2 0.1 0
v -1.1 0.1 0
v -1.1 0 0
v -1.2 0.2 0.1
v -1.2 0.2 0
v -1.2 0.1 0
v -1.2 0.1 0.1
v -1.2 0.2 0.1
v -1.2 0.1 0.1
v -1.1 0.1 0.1
v -1.1 0.2 0.1
v -1.2 0.1 0
v -1.2 0.2 0
v -1.1 0.2 0
v -1.1 0.1 0
v -1.2 0.3 0.1
v -1.2 0.3 0
v -1.2 0.2 0
v -1.2 0.2 0.1
v -1.2 0.3 0.1
v -1.2 0.2 0.1
v -1.1 0.2 0.1
v -1.1 0.3 0.1
v -1.2 0.2 0
v -1.2 0.3 0
v -1.1 0.3 0
v -1.1 0.2 0
v -1.2 0.4 0.1
v -1.2 0.4 0
v -1.2 0.3 0
v -1.2 0.3 0.1
v -1.2 0.4 0.1
v -1.2 0.3 0.1
v -1.1 0.3 0.1
v -1.1 0.4 0.1
v -1.2 0.3 0
v -1.2 0.4 0
v -1.1 0.4 0
v -1.1 0.3 0
v -1.2 0.5 0.1
v -1.2 0.5 0
v -1.2 0.4 0
v -1.2 0.4 0.1
v -1.2 0.5 0.1
v -1.2 0.4 0.1
v -1.1 0.4 0.1
v -1.1 0.5 0.1
v -1.2 0.4 0
v -1.2 0.5 0
v -1.1 0.5 0
v -1.1 0.4 0
v -1.2 0.6 0.1
v -1.2 0.6 0
v -1.2 0.5 0
v -1.2 0.5 0.1
v -1.2 0.6 0.1
v -1.2 0.5 0.1
v -1.1 0.5 0.1
v -1.1 0.6 0.1
v -1.2 0.5 0
v -1.2 0.6 0
v -1.1 0.6 0
v -1.1 0.5 0
v -1.1 0.6 0.1
v -1.1 0.6 0
v -1.2 0.6 0
v -1.2 0.6 0.1
v -1.1 -0.5 0.1
v -1.1 -0.6 0.1
v -1 -0.6 0.1
v -1 -0.5 0.1
v -1.1 -0.6 0
v -1.1 -0.5 0
v -1 -0.5 0
v -1 -0.6 0
v -1.1 -0.6 0.1
v -1.1 -0.6 0
v -1 -0.6 0
v -1 -0.6 0.1
v -1.1 -0.4 0.1
v -1.1 -0.5 0.1
v -1 -0.5 0.1
v -1 -0.4 0.1
v -1.1 -0.5 0
v -1.1 -0.4 0
v -1 -0.4 0
v -1 -0.5 0
v -1.1 -0.3 0.1
v -1.1 -0.4 0.1
v -1 -0.4 0.1
v -1 -0.3 0.1
v -1.1 -0.4 0
v -1.1 -0.3 0
v -1 -0.3 0
v -1 -0.4 0
v -1.1 -0.2 0.1
v -1.1 -0.3 0.1
v -1 -0.3 0.1
v -1 -0.2 0.1
v -1.1 -0.3 0
v -1.1 -0.2 0
v -1 -0.2 0
v -1 -0.3 0
v -1.1 -0.1 0.1
v -1.1 -0.2 0.1
v -1 -0.2 0.1
v -1 -0.1 0.1
v -1.1 -0.2 0
v -1.1 -0.1 0
v -1 -0.1 0
v -1 -0.2 0
v -1.1 0 0.1
v -1.1 -0.1 0.1
v -1 -0.1 0.1
v -1 0 0.1
v -1.1 -0.1 0
v -1.1 0 0
v -1 0 0
v -1 -0.1 0
v -1.1 0.1 0.1
v -1.1 0 0.1
v -1 0 0.1
v -1 0.1 0.1
v -1.1 0 0
v -1.1 0.1 0
v -1 0.1 0
v -1 0 0
v -1.1 0.2 0.1
v -1.1 0.1 0.1
v -1 0.1 0.1
v -1 0.2 0.1
v -1.1 0.1 0
v -1.1 0.2 0
v -1 0.2 0
v -1 0.1 0
v -1.1 0.3 0.1
v -1.1 0.2 0.1
v -1 0.2 0.1
v -1 0.3 0.1
v -1.1 0.2 0
v -1.1 0.3 0
v -1 0.3 0
v -1 0.2 0
v -1.1 0.4 0.1
v -1.1 0.3 0.1
v -1 0.3 0.1
v -1 0.4 0.1
v -1.1 0.3 0
v -1.1 0.4 0
v -1 0.4 0
v -1 0.3 0
v -1.1 0.5 0.1
v -1.1 0.4 0.1
v -1 0.4 0.1
v -1 0.5 0.1
v -1.1 0.4 0
v -1.1 0.5 0
v -1 0.5 0
v -1 0.4 0
v -1.1 0.6 0.1
v -1.1 0.5 0.1
v -1 0.5 0.1
v -1 0.6 0.1
v -1.1 0.5 0
v -1.1 0.6 0
v -1 0.6 0
v -1 0.5 0
v -1 0.6 0.1
v -1 0.6 0
v -1.1 0.6 0
v -1.1 0.6 0.1
v -1 -0.5 0.1
v -1 -0.6 0.1
v -0.9 -0.6 0.1
v -0.9 -0.5 0.1
v -1 -0.6 0
v -1 -0.5 0
v -0.9 -0.5 0
v -0.9 -0.6 0
v -1 -0.6 0.1
v -1 -0.6 0
v -0.9 -0.6 0
v -0.9 -0.6 0.1
v -1 -0.4 0.1
v -1 -0.5 0.1
v -0.9 -0.5 0.1
v -0.9 -0.4 0.1
v -1 -0.5 0
v -1 -0.4 0
v -0.9 -0.4 0
v -0.9 -0.5 0
v -1 -0.3 0.1
v -1 -0.4 0.1
v -0.9 -0.4 0.1
v -0.9 -0.3 0.1
v -1 -0.4 0
v -1 -0.3 0
v -0.9 -0.3 0
v -0.9 -0.4 0
v -1 -0.2 0.1
v -1 -0.3 0.1
v -0.9 -0.3 0.1
v -0.9 -0.2 0.1
v -1 -0.3 0
v -1 -0.2 0
v -0.9 -0.2 0
v -0.9 -0.3 0
v -1 -0.1 0.1
v -1 -0.2 0.1
v -0.9 -0.2 0.1
v -0.9 -0.1 0.1
v -1 -0.2 0
v -1 -0.1 0
v -0.9 -0.1 0
v -0.9 -0.2 0
v -1 0 0.1
v -1 -0.1 0.1
v -0.9 -0.1 0.1
v -0.9 0 0.1
v -1 -0.1 0
v -1 0 0
v -0.9 0 0
v -0.9 -0.1 0
v -1 0.1 0.1
v -1 0 0.1
v -0.9 0 0.1
v -0.9 0.1 0.1
v -1 0 0
v -1 0.1 0
v -0.9 0.1 0
v -0.9 0 0
v -1 0.2 0.1
v -1 0.1 0.1
v -0.9 0.1 0.1
v -0.9 0.2 0.1
v -1 0.1 0
v -1 0.2 0
v -0.9 0.2 0
v -0.9 0.1 0
v -1 0.3 0.1
v -1 0.2 0.1
v -0.9 0.2 0.1
v -0.9 0.3 0.1
v -1 0.2 0
v -1 0.3 0
v -0.9 0.3 0
v -0.9 0.2 0
v -1 0.4 0.1
v -1 0.3 0.1
v -0.9 0.3 0.1
v -0.9 0.4 0.1
v -1 0.3 0
v -1 0.4 0
v -0.9 0.4 0
v -0.9 0.3 0
v -1 0.5 0.1
v -1 0.4 0.1
v -0.9 0.4 0.1
v -0.9 0.5 0.1
v -1 0.4 0
v -1 0.5 0
v -0.9 0.5 0
v -0.9 0.4 0
v -1 0.6 0.1
v -1 0.5 0.1
v -0.9 0.5 0.1
v -0.9 0.6 0.1
v -1 0.5 0
v -1 0.6 0
v -0.9 0.6 0
v -0.9 0.5 0
v -0.9 0.6 0.1
v -0.9 0.6 0
v -1 0.6 0
v -1 0.6 0.1
v -0.9 -0.5 0.1
v -0.9 -0.6 0.1
v -0.8 -0.6 0.1
v -0.8 -0.5 0.1
v -0.9 -0.6 0
v -0.9 -0.5 0
v -0.8 -0.5 0
v -0.8 -0.6 0
v -0.9 -0.6 0.1
v -0.9 -0.6 0
v -0.8 -0.6 0
v -0.8 -0.6 0.1
v -0.9 -0.4 0.1
v -0.9 -0.5 0.1
v -0.8 -0.5 0.1
v -0.8 -0.4 0.1
v -0.9 -0.5 0
v -0.9 -0.4 0
v -0.8 -0.4 0
v -0.8 -0.5 0
v -0.9 -0.3 0.1
v -0.9 -0.4 0.1
v -0.8 -0.4 0.1
v -0.8 -0.3 0.1
v -0.9 -0.4 0
v -0.9 -0.3 0
v -0.8 -0.3 0
v -0.8 -0.4 0
v -0.9 -0.2 0.1
v -0.9 -0.3 0.1
v -0.8 -0.3 0.1
v -0.8 -0.2 0.1
v -0.9 -0.3 0
v -0.9 -0.2 0
v -0.8 -0.2 0
v -0.8 -0.3 0
v -0.9 -0.1 0.1
v -0.9 -0.2 0.1
v -0.8 -0.2 0.1
v -0.8 -0.1 0.1
v -0.9 -0.2 0
v -0.9 -0.1 0
v -0.8 -0.1 0
v -0.8 -0.2 0
v -0.9 0 0.1
v -0.9 -0.1 0.1
v -0.8 -0.1 0.1
v -0.8 0 0.1
v -0.9 -0.1 0
v -0.9 0 0
v -0.8 0 0
v -0.8 -0.1 0
v -0.9 0.1 0.1
v -0.9 0 0.1
v -0.8 0 0.1
v -0.8 0.1 0.1
v -0.9 0 0
v -0.9 0.1 0
v -0.8 0.1 0
v -0.8 0 0
v -0.9 0.2 0.1
v -0.9 0.1 0.1
v -0.8 0.1 0.1
v -0.8 0.2 0.1
v -0.9 0.1 0
v -0.9 0.2 0
v -0.8 0.2 0
v -0.8 0.1 0
v -0.9 0.3 0.1
v -0.9 0.2 0.1
v -0.8 0.2 0.1
v -0.8 0.3 0.1
v -0.9 0.2 0
v -0.9 0.3 0
v -0.8 0.3 0
v -0.8 0.2 0
v -0.9 0.4 0.1
v -0.9 0.3 0.1
v -0.8 0.3 0.1
v -0.8 0.4 0.1
v -0.9 0.3 0
v -0.9 0.4 0
v -0.8 0.4 0
v -0.8 0.3 0
v -0.9 0.5 0.1
v -0.9 0.4 0.1
v -0.8 0.4 0.1
v -0.8 0.5 0.1
v -0.9 0.4 0
v -0.9 0.5 0
v -0.8 0.5 0
v -0.8 0.4 0
v -0.9 0.6 0.1
v -0.9 0.5 0.1
v -0.8 0.5 0.1
v -0.8 0.6 0.1
v -0.9 0.5 0
v -0.9 0.6 0
v -0.8 0.6 0
v -0.8 0.5 0
v -0.8 0.6 0.1
v -0.8 0.6 0
v -0.9 0.6 0
v -0.9 0.6 0.1
v -0.8 -0.5 0.1
v -0.8 -0.6 0.1
v -0.7 -0.6 0.1
v -0.7 -0.5 0.1
v -0.8 -0.6 0
v -0.8 -0.5 0
v -0.7 -0.5 0
v -0.7 -0.6 0
v -0.8 -0.6 0.1
v -0.8 -0.6 0
v -0.7 -0.6 0
v -0.7 -0.6 0.1
v -0.8 -0.4 0.1
v -0.8 -0.5 0.1
v -0.7 -0.5 0.1
v -0.7 -0.4 0.1
v -0.8 -0.5 0
v -0.8 -0.4 0
v -0.7 -0.4 0
v -0.7 -0.5 0
v -0.8 -0.3 0.1
v -0.8 -0.4 0.1
v -0.7 -0.4 0.1
v -0.7 -0.3 0.1
v -0.8 -0.4 0
v -0.8 -0.3 0
v -0.7 -0.3 0
v -0.7 -0.4 0
v -0.8 -0.2 0.1
v -0.8 -0.3 0.1
v -0.7 -0.3 0.1
v -0.7 -0.2 0.1
v -0.8 -0.3 0
v -0.8 -0.2 0
v -0.7 -0.2 0
v -0.7 -0.3 0
v -0.8 -0.1 0.1
v -0.8 -0.2 0.1
v -0.7 -0.2 0.1
v -0.7 -0.1 0.1
v -0.8 -0.2 0
v -0.8 -0.1 0
v -0.7 -0.1 0
v -0.7 -0.2 0
v -0.8 0 0.1
v -0.8 -0.1 0.1
v -0.7 -0.1 0.1
v -0.7 0 0.1
v -0.8 -0.1 0
v -0.8 0 0
v -0.7 0 0
v -0.7 -0.1 0
v -0.8 0.1 0.1
v -0.8 0 0.1
v -0.7 0 0.1
v -0.7 0.1 0.1
v -0.8 0 0
v -0.8 0.1 0
v -0.7 0.1 0
v -0.7 0 0
v -0.8 0.2 0.1
v -0.8 0.1 0.1
v -0.7 0.1 0.1
v -0.7 0.2 0.1
v -0.8 0.1 0
v -0.8 0.2 0
v -0.7 0.2 0
v -0.7 0.1 0
v -0.8 0.3 0.1
v -0.8 0.2 0.1
v -0.7 0.2 0.1
v -0.7 0.3 0.1
v -0.8 0.2 0
v -0.8 0.3 0
v -0.7 0.3 0
v -0.7 0.2 0
v -0.8 0.4 0.1
v -0.8 0.3 0.1
v -0.7 0.3 0.1
v -0.7 0.4 0.1
v -0.8 0.3 0
v -0.8 0.4 0
v -0.7 0.4 0
v -0.7 0.3 0
v -0.8 0.5 0.1
v -0.8 0.4 0.1
v -0.7 0.4 0.1
v -0.7 0.5 0.1
v -0.8 0.4 0
v -0.8 0.5 0
v -0.7 0.5 0
v -0.7 0.4 0
v -0.8 0.6 0.1
v -0.8 0.5 0.1
v -0.7 0.5 0.1
v -0.7 0.6 0.1
v -0.8 0.5 0
v -0.8 0.6 0
v -0.7 0.6 0
v -0.7 0.5 0
v -0.7 0.6 0.1
v -0.7 0.6 0
v -0.8 0.6 0
v -0.8 0.6 0.1
v -0.7 -0.5 0.1
v -0.7 -0.6 0.1
v -0.6 -0.6 0.1
v -0.6 -0.5 0.1
v -0.7 -0.6 0
v -0.7 -0.5 0
v -0.6 -0.5 0
v -0.6 -0.6 0
v -0.7 -0.6 0.1
v -0.7 -0.6 0
v -0.6 -0.6 0
v -0.6 -0.6 0.1
v -0.7 -0.4 0.1
v -0.7 -0.5 0.1
v -0.6 -0.5 0.1
v -0.6 -0.4 0.1
v -0.7 -0.5 0
v -0.7 -0.4 0
v -0.6 -0.4 0
v -0.6 -0.5 0
v -0.7 -0.3 0.1
v -0.7 -0.4 0.1
v -0.6 -0.4 0.1
v -0.6 -0.3 0.1
v -0.7 -0.4 0
v -0.7 -0.3 0
v -0.6 -0.3 0
v -0.6 -0.4 0
v -0.7 -0.2 0.1
v -0.7 -0.3 0.1
v -0.6 -0.3 0.1
v -0.6 -0.2 0.1
v -0.7 -0.3 0
v -0.7 -0.2 0
v -0.6 -0.2 0
v -0.6 -0.3 0
v -0.7 -0.1 0.1
v -0.7 -0.2 0.1
v -0.6 -0.2 0.1
v -0.6 -0.1 0.1
v -0.7 -0.2 0
v -0.7 -0.1 0
v -0.6 -0.1 0
v -0.6 -0.2 0
v -0.7 0 0.1
v -0.7 -0.1 0.1
v -0.6 -0.1 0.1
v -0.6 0 0.1
v -0.7 -0.1 0
v -0.7 0 0
v -0.6 0 0
v -0.6 -0.1 0
v -0.7 0.1 0.1
v -0.7 0 0.1
v -0.6 0 0.1
v -0.6 0.1 0.1
v -0.7 0 0
v -0.7 0.1 0
v -0.6 0.1 0
v -0.6 0 0
v -0.7 0.2 0.1
v -0.7 0.1 0.1
v -0.6 0.1 0.1
v -0.6 0.2 0.1
v -0.7 0.1 0
v -0.7 0.2 0
v -0.6 0.2 0
v -0.6 0.1 0
v -0.7 0.3 0.1
v -0.7 0.2 0.1
v -0.6 0.2 0.1
v -0.6 0.3 0.1
v -0.7 0.2 0
v -0.7 0.3 0
v -0.6 0.3 0
v -0.6 0.2 0
v -0.7 0.4 0.1
v -0.7 0.3 0.1
v -0.6 0.3 0.1
v -0.6 0.4 0.1
v -0.7 0.3 0
v -0.7 0.4 0
v -0.6 0.4 0
v -0.6 0.3 0
v -0.7 0.5 0.1
v -0.7 0.4 0.1
v -0.6 0.4 0.1
v -0.6 0.5 0.1
v -0.7 0.4 0
v -0.7 0.5 0
v -0.6 0.5 0
v -0.6 0.4 0
v -0.7 0.6 0.1
v -0.7 0.5 0.1
v -0.6 0.5 0.1
v -0.6 0.6 0.1
v -0.7 0.5 0
v -0.7 0.6 0
v -0.6 0.6 0
v -0.6 0.5 0
v -0.6 0.6 0.1
v -0.6 0.6 0
v -0.7 0.6 0
v -0.7 0.6 0.1
v -0.6 -0.5 0.1
v -0.6 -0.6 0.1
v -0.5 -0.6 0.1
v -0.5 -0.5 0.1
v -0.6 -0.6 0
v -0.6 -0.5 0
v -0.5 -0.5 0
v -0.5 -0.6 0
v -0.6 -0.6 0.1
v -0.6 -0.6 0
v -0.5 -0.6 0
v -0.5 -0.6 0.1
v -0.6 -0.4 0.1
v -0.6 -0.5 0.1
v -0.5 -0.5 0.1
v -0.5 -0.4 0.1
v -0.6 -0.5 0
v -0.6 -0.4 0
v -0.5 -0.4 0
v -0.5 -0.5 0
v -0.6 -0.3 0.1
v -0.6 -0.4 0.1
v -0.5 -0.4 0.1
v -0.5 -0.3 0.1
v -0.6 -0.4 0
v -0.6 -0.3 0
v -0.5 -0.3 0
v -0.5 -0.4 0
v -0.6 -0.2 0.1
v -0.6 -0.3 0.1
v -0.5 -0.3 0.1
v -0.5 -0.2 0.1
v -0.6 -0.3 0
v -0.6 -0.2 0
v -0.5 -0.2 0
v -0.5 -0.3 0
v -0.6 -0.1 0.1
v -0.6 -0.2 0.1
v -0.5 -0.2 0.1
v -0.5 -0.1 0.1
v -0.6 -0.2 0
v -0.6 -0.1 0
v -0.5 -0.1 0
v -0.5 -0.2 0
v -0.6 0 0.1
v -0.6 -0.1 0.1
v -0.5 -0.1 0.1
v -0.5 0 0.1
v -0.6 -0.1 0
v -0.6 0 0
v -0.5 0 0
v -0.5 -0.1 0
v -0.6 0.1 0.1
v -0.6 0 0.1
v -0.5 0 0.1
v -0.5 0.1 0.1
v -0.6 0 0
v -0.6 0.1 0
v -0.5 0.1 0
v -0.5 0 0
v -0.6 0.2 0.1
v -0.6 0.1 0.1
v -0.5 0.1 0.1
v -0.5 0.2 0.1
v -0.6 0.1 0
v -0.6 0.2 0
v -0.5 0.2 0
v -0.5 0.1 0
v -0.6 0.3 0.1
v -0.6 0.2 0.1
v -0.5 0.2 0.1
v -0.5 0.3 0.1
v -0.6 0.2 0
v -0.6 0.3 0
v -0.5 0.3 0
v -0.5 0.2 0
v -0.6 0.4 0.1
v -0.6 0.3 0.1
v -0.5 0.3 0.1
v -0.5 0.4 0.1
v -0.6 0.3 0
v -0.6 0.4 0
v -0.5 0.4 0
v -0.5 0.3 0
v -0.6 0.5 0.1
v -0.6 0.4 0.1
v -0.5 0.4 0.1
v -0.5 0.5 0.1
v -0.6 0.4 0
v -0.6 0.5 0
v -0.5 0.5 0
v -0.5 0.4 0
v -0.6 0.6 0.1
v -0.6 0.5 0.1
v -0.5 0.5 0.1
v -0.5 0.6 0.1
v -0.6 0.5 0
v -0.6 0.6 0
v -0.5 0.6 0
v -0.5 0.5 0
v -0.5 0.6 0.1
v -0.5 0.6 0
v -0.6 0.6 0
v -0.6 0.6 0.1
v -0.5 -0.5 0.1
v -0.5 -0.6 0.1
v -0.4 -0.6 0.1
v -0.4 -0.5 0.1
v -0.5 -0.6 0
v -0.5 -0.5 0
v -0.4 -0.5 0
v -0.4 -0.6 0
v -0.5 -0.6 0.1
v -0.5 -0.6 0
v -0.4 -0.6 0
v -0.4 -0.6 0.1
v -0.5 -0.4 0.1
v -0.5 -0.5 0.1
v -0.4 -0.5 0.1
v -0.4 -0.4 0.1
v -0.5 -0.5 0
v -0.5 -0.4 0
v -0.4 -0.4 0
v -0.4 -0.5 0
v -0.5 -0.3 0.1
v -0.5 -0.4 0.1
v -0.4 -0.4 0.1
v -0.4 -0.3 0.1
v -0.5 -0.4 0
v -0.5 -0.3 0
v -0.4 -0.3 0
v -0.4 -0.4 0
v -0.5 -0.2 0.1
v -0.5 -0.3 0.1
v -0.4 -0.3 0.1
v -0.4 -0.2 0.1
v -0.5 -0.3 0
v -0.5 -0.2 0
v -0.4 -0.2 0
v -0.4 -0.3 0
v -0.5 -0.1 0.1
v -0.5 -0.2 0.1
v -0.4 -0.2 0.1
v -0.4 -0.1 0.1
v -0.5 -0.2 0
v -0.5 -0.1 0
v -0.4 -0.1 0
v -0.4 -0.2 0
v -0.5 0 0.1
v -0.5 -0.1 0.1
v -0.4 -0.1 0.1
v -0.4 0 0.1
v -0.5 -0.1 0
v -0.5 0 0
v -0.4 0 0
v -0.4 -0.1 0
v -0.5 0.1 0.1
v -0.5 0 0.1
v -0.4 0 0.1
v -0.4 0.1 0.1
v -0.5 0 0
v -0.5 0.1 0
v -0.4 0.1 0
v -0.4 0 0
v -0.5 0.2 0.1
v -0.5 0.1 0.1
v -0.4 0.1 0.1
v -0.4 0.2 0.1
v -0.5 0.1 0
v -0.5 0.2 0
v -0.4 0.2 0
v -0.4 0.1 0
v -0.5 0.3 0.1
v -0.5 0.2 0.1
v -0.4 0.2 0.1
v -0.4 0.3 0.1
v -0.5 0.2 0
v -0.5 0.3 0
v -0.4 0.3 0
v -0.4 0.2 0
v -0.5 0.4 0.1
v -0.5 0.3 0.1
v -0.4 0.3 0.1
v -0.4 0.4 0.1
v -0.5 0.3 0
v -0.5 0.4 0
v -0.4 0.4 0
v -0.4 0.3 0
v -0.5 0.5 0.1
v -0.5 0.4 0.1
v -0.4 0.4 0.1
v -0.4 0.5 0.1
v -0.5 0.4 0
v -0.5 0.5 0
v -0.4 0.5 0
v -0.4 0.4 0
v -0.5 0.6 0.1
v -0.5 0.5 0.1
v -0.4 0.5 0.1
v -0.4 0.6 0.1
v -0.5 0.5 0
v -0.5 0.6 0
v -0.4 0.6 0
v -0.4 0.5 0
v -0.4 0.6 0.1
v -0.4 0.6 0
v -0.5 0.6 0
v -0.5 0.6 0.1
v -0.4 -0.5 0.1
v -0.4 -0.6 0.1
v -0.3 -0.6 0.1
v -0.3 -0.5 0.1
v -0.4 -0.6 0
v -0.4 -0.5 0
v -0.3 -0.5 0
v -0.3 -0.6 0
v -0.4 -0.6 0.1
v -0.4 -0.6 0
v -0.3 -0.6 0
v -0.3 -0.6 0.1
v -0.4 -0.4 0.1
v -0.4 -0.5 0.1
v -0.3 -0.5 0.1
v -0.3 -0.4 0.1
v -0.4 -0.5 0
v -0.4 -0.4 0
v -0.3 -0.4 0
v -0.3 -0.5 0
v -0.4 -0.3 0.1
v -0.4 -0.4 0.1
v -0.3 -0.4 0.1
v -0.3 -0.3 0.1
v -0.4 -0.4 0
v -0.4 -0.3 0
v -0.3 -0.3 0
v -0.3 -0.4 0
v -0.4 -0.2 0.1
v -0.4 -0.3 0.1
v -0.3 -0.3 0.1
v -0.3 -0.2 0.1
v -0.4 -0.3 0
v -0.4 -0.2 0
v -0.3 -0.2 0
v -0.3 -0.3 0
v -0.4 -0.1 0.1
v -0.4 -0.2 0.1
v -0.3 -0.2 0.1
v -0.3 -0.1 0.1
v -0.4 -0.2 0
v -0.4 -0.1 0
v -0.3 -0.1 0
v -0.3 -0.2 0
v -0.4 0 0.1
v -0.4 -0.1 0.1
v -0.3 -0.1 0.1
v -0.3 0 0.1
v -0.4 -0.1 0
v -0.4 0 0
v -0.3 0 0
v -0.3 -0.1 0
v -0.4 0.1 0.1
v -0.4 0 0.1
v -0.3 0 0.1
v -0.3 0.1 0.1
v -0.4 0 0
v -0.4 0.1 0
v -0.3 0.1 0
v -0.3 0 0
v -0.4 0.2 0.1
v -0.4 0.1 0.1
v -0.3 0.1 0.1
v -0.3 0.2 0.1
v -0.4 0.1 0
v -0.4 0.2 0
v -0.3 0.2 0
v -0.3 0.1 0
v -0.4 0.3 0.1
v -0.4 0.2 0.1
v -0.3 0.2 0.1
v -0.3 0.3 0.1
v -0.4 0.2 0
v -0.4 0.3 0
v -0.3 0.3 0
v -0.3 0.2 0
v -0.4 0.4 0.1
v -0.4 0.3 0.1
v -0.3 0.3 0.1
v -0.3 0.4 0.1
v -0.4 0.3 0
v -0.4 0.4 0
v -0.3 0.4 0
v -0.3 0.3 0
v -0.4 0.5 0.1
v -0.4 0.4 0.1
v -0.3 0.4 0.1
v -0.3 0.5 0.1
v -0.4 0.4 0
v -0.4 0.5 0
v -0.3 0.5 0
v -0.3 0.4 0
v -0.4 0.6 0.1
v -0.4 0.5 0.1
v -0.3 0.5 0.1
v -0.3 0.6 0.1
v -0.4 0.5 0
v -0.4 0.6 0
v -0.3 0.6 0
v -0.3 0.5 0
v -0.3 0.6 0.1
v -0.3 0.6 0
v -0.4 0.6 0
v -0.4 0.6 0.1
v -0.3 -0.5 0.1
v -0.3 -0.6 0.1
v -0.2 -0.6 0.1
v -0.2 -0.5 0.1
v -0.3 -0.6 0
v -0.3 -0.5 0
v -0.2 -0.5 0
v -0.2 -0.6 0
v -0.3 -0.6 0.1
v -0.3 -0.6 0
v -0.2 -0.6 0
v -0.2 -0.6 0.1
v -0.3 -0.4 0.1
v -0.3 -0.5 0.1
v -0.2 -0.5 0.1
v -0.2 -0.4 0.1
v -0.3 -0.5 0
v -0.3 -0.4 0
v -0.2 -0.4 0
v -0.2 -0.5 0
v -0.3 -0.3 0.1
v -0.3 -0.4 0.1
v -0.2 -0.4 0.1
v -0.2 -0.3 0.1
v -0.3 -0.4 0
v -0.3 -0.3 0
v -0.2 -0.3 0
v -0.2 -0.4 0
v -0.3 -0.2 0.1
v -0.3 -0.3 0.1
v -0.2 -0.3 0.1
v -0.2 -0.2 0.1
v -0.3 -0.3 0
v -0.3 -0.2 0
v -0.2 -0.2 0
v -0.2 -0.3 0
v -0.3 -0.1 0.1
v -0.3 -0.2 0.1
v -0.2 -0.2 0.1
v -0.2 -0.1 0.1
v -0.3 -0.2 0
v -0.3 -0.1 0
v -0.2 -0.1 0
v -0.2 -0.2 0
v -0.3 0 0.1
v -0.3 -0.1 0.1
v -0.2 -0.1 0.1
v -0.2 0 0.1
v -0.3 -0.1 0
v -0.3 0 0
v -0.2 0 0
v -0.2 -0.1 0
v -0.3 0.1 0.1
v -0.3 0 0.1
v -0.2 0 0.1
v -0.2 0.1 0.1
v -0.3 0 0
v -0.3 0.1 0
v -0.2 0.1 0
v -0.2 0 0
v -0.3 0.2 0.1
v -0.3 0.1 0.1
v -0.2 0.1 0.1
v -0.2 0.2 0.1
v -0.3 0.1 0
v -0.3 0.2 0
v -0.2 0.2 0
v -0.2 0.1 0
v -0.3 0.3 0.1
v -0.3 0.2 0.1
v -0.2 0.2 0.1
v -0.2 0.3 0.1
v -0.3 0.2 0
v -0.3 0.3 0
v -0.2 0.3 0
v -0.2 0.2 0
v -0.3 0.4 0.1
v -0.3 0.3 0.1
v -0.2 0.3 0.1
v -0.2 0.4 0.1
v -0.3 0.3 0
v -0.3 0.4 0
v -0.2 0.4 0
v -0.2 0.3 0
v -0.3 0.5 0.1
v -0.3 0.4 0.1
v -0.2 0.4 0.1
v -0.2 0.5 0.1
v -0.3 0.4 0
v -0.3 0.5 0
v -0.2 0.5 0
v -0.2 0.4 0
v -0.3 0.6 0.1
v -0.3 0.5 0.1
v -0.2 0.5 0.1
v -0.2 0.6 0.1
v -0.3 0.5 0
v -0.3 0.6 0
v -0.2 0.6 0
v -0.2 0.5 0
v -0.2 0.6 0.1
v -0.2 0.6 0
v -0.3 0.6 0
v -0.3 0.6 0.1
v -0.2 -0.5 0.1
v -0.2 -0.6 0.1
v -0.1 -0.6 0.1
v -0.1 -0.5 0.1
v -0.2 -0.6 0
v -0.2 -0.5 0
v -0.1 -0.5 0
v -0.1 -0.6 0
v -0.2 -0.6 0.1
v -0.2 -0.6 0
v -0.1 -0.6 0
v -0.1 -0.6 0.1
v -0.2 -0.4 0.1
v -0.2 -0.5 0.1
v -0.1 -0.5 0.1
v -0.1 -0.4 0.1
v -0.2 -0.5 0
v -0.2 -0.4 0
v -0.1 -0.4 0
v -0.1 -0.5 0
v -0.2 -0.3 0.1
v -0.2 -0.4 0.1
v -0.1 -0.4 0.1
v -0.1 -0.3 0.1
v -0.2 -0.4 0
v -0.2 -0.3 0
v -0.1 -0.3 0
v -0.1 -0.4 0
v -0.2 -0.2 0.1
v -0.2 -0.3 0.1
v -0.1 -0.3 0.1
v -0.1 -0.2 0.1
v -0.2 -0.3 0
v -0.2 -0.2 0
v -0.1 -0.2 0
v -0.1 -0.3 0
v -0.2 -0.1 0.1
v -0.2 -0.2 0.1
v -0.1 -0.2 0.1
v -0.1 -0.1 0.1
v -0.2 -0.2 0
v -0.2 -0.1 0
v -0.1 -0.1 0
v -0.1 -0.2 0
v -0.2 0 0.1
v -0.2 -0.1 0.1
v -0.1 -0.1 0.1
v -0.1 0 0.1
v -0.2 -0.1 0
v -0.2 0 0
v -0.1 0 0
v -0.1 -0.1 0
v -0.2 0.1 0.1
v -0.2 0 0.1
v -0.1 0 0.1
v -0.1 0.1 0.1
v -0.2 0 0
v -0.2 0.1 0
v -0.1 0.1 0
v -0.1 0 0
v -0.2 0.2 0.1
v -0.2 0.1 0.1
v -0.1 0.1 0.1
v -0.1 0.2 0.1
v -0.2 0.1 0
v -0.2 0.2 0
v -0.1 0.2 0
v -0.1 0.1 0
v -0.2 0.3 0.1
v -0.2 0.2 0.1
v -0.1 0.2 0.1
v -0.1 0.3 0.1
v -0.2 0.2 0
v -0.2 0.3 0
v -0.1 0.3 0
v -0.1 0.2 0
v -0.2 0.4 0.1
v -0.2 0.3 0.1
v -0.1 0.3 0.1
v -0.1 0.4 0.1
v -0.2 0.3 0
v -0.2 0.4 0
v -0.1 0.4 0
v -0.1 0.3 0
v -0.2 0.5 0.1
v -0.2 0.4 0.1
v -0.1 0.4 0.1
v -0.1 0.5 0.1
v -0.2 0.4 0
v -0.2 0.5 0
v -0.1 0.5 0
v -0.1 0.4 0
v -0.2 0.6 0.1
v -0.2 0.5 0.1
v -0.1 0.5 0.1
v -0.1 0.6 0.1
v -0.2 0.5 0
v -0.2 0.6 0
v -0.1 0.6 0
v -0.1 0.5 0
v -0.1 0.6 0.1
v -0.1 0.6 0
v -0.2 0.6 0
v -0.2 0.6 0.1
v -0.1 -0.5 0.1
v -0.1 -0.6 0.1
v 0 -0.6 0.1
v 0 -0.5 0.1
v -0.1 -0.6 0
v -0.1 -0.5 0
v 0 -0.5 0
v 0 -0.6 0
v -0.1 -0.6 0.1
v -0.1 -0.6 0
v 0 -0.6 0
v 0 -0.6 0.1
v -0.1 -0.4 0.1
v -0.1 -0.5 0.1
v 0 -0.5 0.1
v 0 -0.4 0.1
v -0.1 -0.5 0
v -0.1 -0.4 0
v 0 -0.4 0
v 0 -0.5 0
v -0.1 -0.3 0.1
v -0.1 -0.4 0.1
v 0 -0.4 0.1
v 0 -0.3 0.1
v -0.1 -0.4 0
v -0.1 -0.3 0
v 0 -0.3 0
v 0 -0.4 0
v -0.1 -0.2 0.1
v -0.1 -0.3 0.1
v 0 -0.3 0.1
v 0 -0.2 0.1
v -0.1 -0.3 0
v -0.1 -0.2 0
v 0 -0.2 0
v 0 -0.3 0
v -0.1 -0.1 0.1
v -0.1 -0.2 0.1
v 0 -0.2 0.1
v 0 -0.1 0.1
v -0.1 -0.2 0
v -0.1 -0.1 0
v 0 -0.1 0
v 0 -0.2 0
v -0.1 0 0.1
v -0.1 -0.1 0.1
v 0 -0.1 0.1
v 0 0 0.1
v -0.1 -0.1 0
v -0.1 0 0
v 0 0 0
v 0 -0.1 0
v -0.1 0.1 0.1
v -0.1 0 0.1
v 0 0 0.1
v 0 0.1 0.1
v -0.1 0 0
v -0.1 0.1 0
v 0 0.1 0
v 0 0 0
v -0.1 0.2 0.1
v -0.1 0.1 0.1
v 0 0.1 0.1
v 0 0.2 0.1
v -0.1 0.1 0
v -0.1 0.2 0
v 0 0.2 0
v 0 0.1 0
v -0.1 0.3 0.1
v -0.1 0.2 0.1
v 0 0.2 0.1
v 0 0.3 0.1
v -0.1 0.2 0
v -0.1 0.3 0
v 0 0.3 0
v 0 0.2 0
v -0.1 0.4 0.1
v -0.1 0.3 0.1
v 0 0.3 0.1
v 0 0.4 0.1
v -0.1 0.3 0
v -0.1 0.4 0
v 0 0.4 0
v 0 0.3 0
v -0.1 0.5 0.1
v -0.1 0.4 0.1
v 0 0.4 0.1
v 0 0.5 0.1
v -0.1 0.4 0
v -0.1 0.5 0
v 0 0.5 0
v 0 0.4 0
v -0.1 0.6 0.1
v -0.1 0.5 0.1
v 0 0.5 0.1
v 0 0.6 0.1
v -0.1 0.5 0
v -0.1 0.6 0
v 0 0.6 0
v 0 0.5 0
v 0 0.6 0.1
v 0 0.6 0
v -0.1 0.6 0
v -0.1 0.6 0.1
v 0 -0.5 0.1
v 0 -0.6 0.1
v 0.1 -0.6 0.1
v 0.1 -0.5 0.1
v 0 -0.6 0
v 0 -0.5 0
v 0.1 -0.5 0
v 0.1 -0.6 0
v 0 -0.6 0.1
v 0 -0.6 0
v 0.1 -0.6 0
v 0.1 -0.6 0.1
v 0 -0.4 0.1
v 0 -0.5 0.1
v 0.1 -0.5 0.1
v 0.1 -0.4 0.1
v 0 -0.5 0
v 0 -0.4 0
v 0.1 -0.4 0
v 0.1 -0.5 0
v 0 -0.3 0.1
v 0 -0.4 0.1
v 0.1 -0.4 0.1
v 0.1 -0.3 0.1
v 0 -0.4 0
v 0 -0.3 0
v 0.1 -0.3 0
v 0.1 -0.4 0
v 0 -0.2 0.1
v 0 -0.3 0.1
v 0.1 -0.3 0.1
v 0.1 -0.2 0.1
v 0 -0.3 0
v 0 -0.2 0
v 0.1 -0.2 0
v 0.1 -0.3 0
v 0 -0.1 0.1
v 0 -0.2 0.1
v 0.1 -0.2 0.1
v 0.1 -0.1 0.1
v 0 -0.2 0
v 0 -0.1 0
v 0.1 -0.1 0
v 0.1 -0.2 0
v 0 0 0.1
v 0 -0.1 0.1
v 0.1 -0.1 0.1
v 0.1 0 0.1
v 0 -0.1 0
v 0 0 0
v 0.1 0 0
v 0.1 -0.1 0
v 0 0.1 0.1
v 0 0 0.1
v 0.1 0 0.1
v 0.1 0.1 0.1
v 0 0 0
v 0 0.1 0
v 0.1 0.1 0
v 0.1 0 0
v 0 0.2 0.1
v 0 0.1 0.1
v 0.1 0.1 0.1
v 0.1 0.2 0.1
v 0 0.1 0
v 0 0.2 0
v 0.1 0.2 0
v 0.1 0.1 0
v 0 0.3 0.1
v 0 0.2 0.1
v 0.1 0.2 0.1
v 0.1 0.3 0.1
v 0 0.2 0
v 0 0.3 0
v 0.1 0.3 0
v 0.1 0.2 0
v 0 0.4 0.1
v 0 0.3 0.1
v 0.1 0.3 0.1
v 0.1 0.4 0.1
v 0 0.3 0
v 0 0.4 0
v 0.1 0.4 0
v 0.1 0.3 0
v 0 0.5 0.1
v 0 0.4 0.1
v 0.1 0.4 0.1
v 0.1 0.5 0.1
v 0 0.4 0
v 0 0.5 0
v 0.1 0.5 0
v 0.1 0.4 0
v 0 0.6 0.1
v 0 0.5 0.1
v 0.1 0.5 0.1
v 0.1 0.6 0.1
v 0 0.5 0
v 0 0.6 0
v 0.1 0.6 0
v 0.1 0.5 0
v 0.1 0.6 0.1
v 0.1 0.6 0
v 0 0.6 0
v 0 0.6 0.1
v 0.1 -0.5 0.1
v 0.1 -0.6 0.1
v 0.2 -0.6 0.1
v 0.2 -0.5 0.1
v 0.1 -0.6 0
v 0.1 -0.5 0
v 0.2 -0.5 0
v 0.2 -0.6 0
v 0.1 -0.6 0.1
v 0.1 -0.6 0
v 0.2 -0.6 0
v 0.2 -0.6 0.1
v 0.1 -0.4 0.1
v 0.1 -0.5 0.1
v 0.2 -0.5 0.1
v 0.2 -0.4 0.1
v 0.1 -0.5 0
v 0.1 -0.4 0
v 0.2 -0.4 0
v 0.2 -0.5 0
v 0.1 -0.3 0.1
v 0.1 -0.4 0.1
v 0.2 -0.4 0.1
v 0.2 -0.3 0.1
v 0.1 -0.4 0
v 0.1 -0.3 0
v 0.2 -0.3 0
v 0.2 -0.4 0
v 0.1 -0.2 0.1
v 0.1 -0.3 0.1
v 0.2 -0.3 0.1
v 0.2 -0.2 0.1
v 0.1 -0.3 0
v 0.1 -0.2 0
v 0.2 -0.2 0
v 0.2 -0.3 0
v 0.1 -0.1 0.1
v 0.1 -0.2 0.1
v 0.2 -0.2 0.1
v 0.2 -0.1 0.1
v 0.1 -0.2 0
v 0.1 -0.1 0
v 0.2 -0.1 0
v 0.2 -0.2 0
v 0.1 0 0.1
v 0.1 -0.1 0.1
v 0.2 -0.1 0.1
v 0.2 0 0.1
v 0.1 -0.1 0
v 0.1 0 0
v 0.2 0 0
v 0.2 -0.1 0
v 0.1 0.1 0.1
v 0.1 0 0.1
v 0.2 0 0.1
v 0.2 0.1 0.1
v 0.1 0 0
v 0.1 0.1 0
v 0.2 0.1 0
v 0.2 0 0
v 0.1 0.2 0.1
v 0.1 0.1 0.1
v 0.2 0.1 0.1
v 0.2 0.2 0.1
v 0.1 0.1 0
v 0.1 0.2 0
v 0.2 0.2 0
v 0.2 0.1 0
v 0.1 0.3 0.1
v 0.1 0.2 0.1
v 0.2 0.2 0.1
v 0.2 0.3 0.1
v 0.1 0.2 0
v 0.1 0.3 0
v 0.2 0.3 0
v 0.2 0.2 0
v 0.1 0.4 0.1
v 0.1 0.3 0.1
v 0.2 0.3 0.1
v 0.2 0.4 0.1
v 0.1 0.3 0
v 0.1 0.4 0
v 0.2 0.4 0
v 0.2 0.3 0
v 0.1 0.5 0.1
v 0.1 0.4 0.1
v 0.2 0.4 0.1
v 0.2 0.5 0.1
v 0.1 0.4 0
v 0.1 0.5 0
v 0.2 0.5 0
v 0.2 0.4 0
v 0.1 0.6 0.1
v 0.1 0.5 0.1
v 0.2 0.5 0.1
v 0.2 0.6 0.1
v 0.1 0.5 0
v 0.1 0.6 0
v 0.2 0.6 0
v 0.2 0.5 0
v 0.2 0.6 0.1
v 0.2 0.6 0
v 0.1 0.6 0
v 0.1 0.6 0.1
v 0.2 -0.5 0.1
v 0.2 -0.6 0.1
v 0.3 -0.6 0.1
v 0.3 -0.5 0.1
v 0.2 -0.6 0
v 0.2 -0.5 0
v 0.3 -0.5 0
v 0.3 -0.6 0
v 0.2 -0.6 0.1
v 0.2 -0.6 0
v 0.3 -0.6 0
v 0.3 -0.6 0.1
v 0.2 -0.4 0.1
v 0.2 -0.5 0.1
v 0.3 -0.5 0.1
v 0.3 -0.4 0.1
v 0.2 -0.5 0
v 0.2 -0.4 0
v 0.3 -0.4 0
v 0.3 -0.5 0
v 0.2 -0.3 0.1
v 0.2 -0.4 0.1
v 0.3 -0.4 0.1
v 0.3 -0.3 0.1
v 0.2 -0.4 0
v 0.2 -0.3 0
v 0.3 -0.3 0
v 0.3 -0.4 0
v 0.2 -0.2 0.1
v 0.2 -0.3 0.1
v 0.3 -0.3 0.1
v 0.3 -0.2 0.1
v 0.2 -0.3 0
v 0.2 -0.2 0
v 0.3 -0.2 0
v 0.3 -0.3 0
v 0.2 -0.1 0.1
v 0.2 -0.2 0.1
v 0.3 -0.2 0.1
v 0.3 -0.1 0.1
v 0.2 -0.2 0
v 0.2 -0.1 0
v 0.3 -0.1 0
v 0.3 -0.2 0
v 0.2 0 0.1
v 0.2 -0.1 0.1
v 0.3 -0.1 0.1
v 0.3 0 0.1
v 0.2 -0.1 0
v 0.2 0 0
v 0.3 0 0
v 0.3 -0.1 0
v 0.2 0.1 0.1
v 0.2 0 0.1
v 0.3 0 0.1
v 0.3 0.1 0.1
v 0.2 0 0
v 0.2 0.1 0
v 0.3 0.1 0
v 0.3 0 0
v 0.2 0.2 0.1
v 0.2 0.1 0.1
v 0.3 0.1 0.1
v 0.3 0.2 0.1
v 0.2 0.1 0
v 0.2 0.2 0
v 0.3 0.2 0
v 0.3 0.1 0
v 0.2 0.3 0.1
v 0.2 0.2 0.1
v 0.3 0.2 0.1
v 0.3 0.3 0.1
v 0.2 0.2 0
v 0.2 0.3 0
v 0.3 0.3 0
v 0.3 0.2 0
v 0.2 0.4 0.1
v 0.2 0.3 0.1
v 0.3 0.3 0.1
v 0.3 0.4 0.1
v 0.2 0.3 0
v 0.2 0.4 0
v 0.3 0.4 0
v 0.3 0.3 0
v 0.2 0.5 0.1
v 0.2 0.4 0.1
v 0.3 0.4 0.1
v 0.3 0.5 0.1
v 0.2 0.4 0
v 0.2 0.5 0
v 0.3 0.5 0
v 0.3 0.4 0
v 0.2 0.6 0.1
v 0.2 0.5 0.1
v 0.3 0.5 0.1
v 0.3 0.6 0.1
v 0.2 0.5 0
v 0.2 0.6 0
v 0.3 0.6 0
v 0.3 0.5 0
v 0.3 0.6 0.1
v 0.3 0.6 0
v 0.2 0.6 0
v 0.2 0.6 0.1
v 0.3 -0.5 0.1
v 0.3 -0.6 0.1
v 0.4 -0.6 0.1
v 0.4 -0.5 0.1
v 0.3 -0.6 0
v 0.3 -0.5 0
v 0.4 -0.5 0
v 0.4 -0.6 0
v 0.3 -0.6 0.1
v 0.3 -0.6 0
v 0.4 -0.6 0
v 0.4 -0.6 0.1
v 0.3 -0.4 0.1
v 0.3 -0.5 0.1
v 0.4 -0.5 0.1
v 0.4 -0.4 0.1
v 0.3 -0.5 0
v 0.3 -0.4 0
v 0.4 -0.4 0
v 0.4 -0.5 0
v 0.3 -0.3 0.1
v 0.3 -0.4 0.1
v 0.4 -0.4 0.1
v 0.4 -0.3 0.1
v 0.3 -0.4 0
v 0.3 -0.3 0
v 0.4 -0.3 0
v 0.4 -0.4 0
v 0.3 -0.2 0.1
v 0.3 -0.3 0.1
v 0.4 -0.3 0.1
v 0.4 -0.2 0.1
v 0.3 -0.3 0
v 0.3 -0.2 0
v 0.4 -0.2 0
v 0.4 -0.3 0
v 0.3 -0.1 0.1
v 0.3 -0.2 0.1
v 0.4 -0.2 0.1
v 0.4 -0.1 0.1
v 0.3 -0.2 0
v 0.3 -0.1 0
v 0.4 -0.1 0
v 0.4 -0.2 0
v 0.3 0 0.1
v 0.3 -0.1 0.1
v 0.4 -0.1 0.1
v 0.4 0 0.1
v 0.3 -0.1 0
v 0.3 0 0
v 0.4 0 0
v 0.4 -0.1 0
v 0.3 0.1 0.1
v 0.3 0 0.1
v 0.4 0 0.1
v 0.4 0.1 0.1
v 0.3 0 0
v 0.3 0.1 0
v 0.4 0.1 0
v 0.4 0 0
v 0.3 0.2 0.1
v 0.3 0.1 0.1
v 0.4 0.1 0.1
v 0.4 0.2 0.1
v 0.3 0.1 0
v 0.3 0.2 0
v 0.4 0.2 0
v 0.4 0.1 0
v 0.3 0.3 0.1
v 0.3 0.2 0.1
v 0.4 0.2 0.1
v 0.4 0.3 0.1
v 0.3 0.2 0
v 0.3 0.3 0
v 0.4 0.3 0
v 0.4 0.2 0
v 0.3 0.4 0.1
v 0.3 0.3 0.1
v 0.4 0.3 0.1
v 0.4 0.4 0.1
v 0.3 0.3 0
v 0.3 0.4 0
v 0.4 0.4 0
v 0.4 0.3 0
v 0.3 0.5 0.1
v 0.3 0.4 0.1
v 0.4 0.4 0.1
v 0.4 0.5 0.1
v 0.3 0.4 0
v 0.3 0.5 0
v 0.4 0.5 0
v 0.4 0.4 0
v 0.3 0.6 0.1
v 0.3 0.5 0.1
v 0.4 0.5 0.1
v 0.4 0.6 0.1
v 0.3 0.5 0
v 0.3 0.6 0
v 0.4 0.6 0
v 0.4 0.5 0
v 0.4 0.6 0.1
v 0.4 0.6 0
v 0.3 0.6 0
v 0.3 0.6 0.1
v 0.4 -0.5 0.1
v 0.4 -0.6 0.1
v 0.5 -0.6 0.1
v 0.5 -0.5 0.1
v 0.4 -0.6 0
v 0.4 -0.5 0
v 0.5 -0.5 0
v 0.5 -0.6 0
v 0.4 -0.6 0.1
v 0.4 -0.6 0
v 0.5 -0.6 0
v 0.5 -0.6 0.1
v 0.4 -0.4 0.1
v 0.4 -0.5 0.1
v 0.5 -0.5 0.1
v 0.5 -0.4 0.1
v 0.4 -0.5 0
v 0.4 -0.4 0
v 0.5 -0.4 0
v 0.5 -0.5 0
v 0.4 -0.3 0.1
v 0.4 -0.4 0.1
v 0.5 -0.4 0.1
v 0.5 -0.3 0.1
v 0.4 -0.4 0
v 0.4 -0.3 0
v 0.5 -0.3 0
v 0.5 -0.4 0
v 0.4 -0.2 0.1
v 0.4 -0.3 0.1
v 0.5 -0.3 0.1
v 0.5 -0.2 0.1
v 0.4 -0.3 0
v 0.4 -0.2 0
v 0.5 -0.2 0
v 0.5 -0.3 0
v 0.4 -0.1 0.1
v 0.4 -0.2 0.1
v 0.5 -0.2 0.1
v 0.5 -0.1 0.1
v 0.4 -0.2 0
v 0.4 -0.1 0
v 0.5 -0.1 0
v 0.5 -0.2 0
v 0.4 0 0.1
v 0.4 -0.1 0.1
v 0.5 -0.1 0.1
v 0.5 0 0.1
v 0.4 -0.1 0
v 0.4 0 0
v 0.5 0 0
v 0.5 -0.1 0
v 0.4 0.1 0.1
v 0.4 0 0.1
v 0.5 0 0.1
v 0.5 0.1 0.1
v 0.4 0 0
v 0.4 0.1 0
v 0.5 0.1 0
v 0.5 0 0
v 0.4 0.2 0.1
v 0.4 0.1 0.1
v 0.5 0.1 0.1
v 0.5 0.2 0.1
v 0.4 0.1 0
v 0.4 0.2 0
v 0.5 0.2 0
v 0.5 0.1 0
v 0.4 0.3 0.1
v 0.4 0.2 0.1
v 0.5 0.2 0.1
v 0.5 0.3 0.1
v 0.4 0.2 0
v 0.4 0.3 0
v 0.5 0.3 0
v 0.5 0.2 0
v 0.4 0.4 0.1
v 0.4 0.3 0.1
v 0.5 0.3 0.1
v 0.5 0.4 0.1
v 0.4 0.3 0
v 0.4 0.4 0
v 0.5 0.4 0
v 0.5 0.3 0
v 0.4 0.5 0.1
v 0.4 0.4 0.1
v 0.5 0.4 0.1
v 0.5 0.5 0.1
v 0.4 0.4 0
v 0.4 0.5 0
v 0.5 0.5 0
v 0.5 0.4 0
v 0.4 0.6 0.1
v 0.4 0.5 0.1
v 0.5 0.5 0.1
v 0.5 0.6 0.1
v 0.4 0.5 0
v 0.4 0.6 0
v 0.5 0.6 0
v 0.5 0.5 0
v 0.5 0.6 0.1
v 0.5 0.6 0
v 0.4 0.6 0
v 0.4 0.6 0.1
v 0.5 -0.5 0.1
v 0.5 -0.6 0.1
v 0.6 -0.6 0.1
v 0.6 -0.5 0.1
v 0.5 -0.6 0
v 0.5 -0.5 0
v 0.6 -0.5 0
v 0.6 -0.6 0
v 0.5 -0.6 0.1
v 0.5 -0.6 0
v 0.6 -0.6 0
v 0.6 -0.6 0.1
v 0.5 -0.4 0.1
v 0.5 -0.5 0.1
v 0.6 -0.5 0.1
v 0.6 -0.4 0.1
v 0.5 -0.5 0
v 0.5 -0.4 0
v 0.6 -0.4 0
v 0.6 -0.5 0
v 0.5 -0.3 0.1
v 0.5 -0.4 0.1
v 0.6 -0.4 0.1
v 0.6 -0.3 0.1
v 0.5 -0.4 0
v 0.5 -0.3 0
v 0.6 -0.3 0
v 0.6 -0.4 0
v 0.5 -0.2 0.1
v 0.5 -0.3 0.1
v 0.6 -0.3 0.1
v 0.6 -0.2 0.1
v 0.5 -0.3 0
v 0.5 -0.2 0
v 0.6 -0.2 0
v 0.6 -0.3 0
v 0.5 -0.1 0.1
v 0.5 -0.2 0.1
v 0.6 -0.2 0.1
v 0.6 -0.1 0.1
v 0.5 -0.2 0
v 0.5 -0.1 0
v 0.6 -0.1 0
v 0.6 -0.2 0
v 0.5 0 0.1
v 0.5 -0.1 0.1
v 0.6 -0.1 0.1
v 0.6 0 0.1
v 0.5 -0.1 0
v 0.5 0 0
v 0.6 0 0
v 0.6 -0.1 0
v 0.5 0.1 0.1
v 0.5 0 0.1
v 0.6 0 0.1
v 0.6 0.1 0.1
v 0.5 0 0
v 0.5 0.1 0
v 0.6 0.1 0
v 0.6 0 0
v 0.5 0.2 0.1
v 0.5 0.1 0.1
v 0.6 0.1 0.1
v 0.6 0.2 0.1
v 0.5 0.1 0
v 0.5 0.2 0
v 0.6 0.2 0
v 0.6 0.1 0
v 0.5 0.3 0.1
v 0.5 0.2 0.1
v 0.6 0.2 0.1
v 0.6 0.3 0.1
v 0.5 0.2 0
v 0.5 0.3 0
v 0.6 0.3 0
v 0.6 0.2 0
v 0.5 0.4 0.1
v 0.5 0.3 0.1
v 0.6 0.3 0.1
v 0.6 0.4 0.1
v 0.5 0.3 0
v 0.5 0.4 0
v 0.6 0.4 0
v 0.6 0.3 0
v 0.5 0.5 0.1
v 0.5 0.4 0.1
v 0.6 0.4 0.1
v 0.6 0.5 0.1
v 0.5 0.4 0
v 0.5 0.5 0
v 0.6 0.5 0
v 0.6 0.4 0
v 0.5 0.6 0.1
v 0.5 0.5 0.1
v 0.6 0.5 0.1
v 0.6 0.6 0.1
v 0.5 0.5 0
v 0.5 0.6 0
v 0.6 0.6 0
v 0.6 0.5 0
v 0.6 0.6 0.1
v 0.6 0.6 0
v 0.5 0.6 0
v 0.5 0.6 0.1
v 0.6 -0.5 0.1
v 0.6 -0.6 0.1
v 0.7 -0.6 0.1
v 0.7 -0.5 0.1
v 0.6 -0.6 0
v 0.6 -0.5 0
v 0.7 -0.5 0
v 0.7 -0.6 0
v 0.6 -0.6 0.1
v 0.6 -0.6 0
v 0.7 -0.6 0
v 0.7 -0.6 0.1
v 0.6 -0.4 0.1
v 0.6 -0.5 0.1
v 0.7 -0.5 0.1
v 0.7 -0.4 0.1
v 0.6 -0.5 0
v 0.6 -0.4 0
v 0.7 -0.4 0
v 0.7 -0.5 0
v 0.6 -0.3 0.1
v 0.6 -0.4 0.1
v 0.7 -0.4 0.1
v 0.7 -0.3 0.1
v 0.6 -0.4 0
v 0.6 -0.3 0
v 0.7 -0.3 0
v 0.7 -0.4 0
v 0.6 -0.2 0.1
v 0.6 -0.3 0.1
v 0.7 -0.3 0.1
v 0.7 -0.2 0.1
v 0.6 -0.3 0
v 0.6 -0.2 0
v 0.7 -0.2 0
v 0.7 -0.3 0
v 0.6 -0.1 0.1
v 0.6 -0.2 0.1
v 0.7 -0.2 0.1
v 0.7 -0.1 0.1
v 0.6 -0.2 0
v 0.6 -0.1 0
v 0.7 -0.1 0
v 0.7 -0.2 0
v 0.6 0 0.1
v 0.6 -0.1 0.1
v 0.7 -0.1 0.1
v 0.7 0 0.1
v 0.6 -0.1 0
v 0.6 0 0
v 0.7 0 0
v 0.7 -0.1 0
v 0.6 0.1 0.1
v 0.6 0 0.1
v 0.7 0 0.1
v 0.7 0.1 0.1
v 0.6 0 0
v 0.6 0.1 0
v 0.7 0.1 0
v 0.7 0 0
v 0.6 0.2 0.1
v 0.6 0.1 0.1
v 0.7 0.1 0.1
v 0.7 0.2 0.1
v 0.6 0.1 0
v 0.6 0.2 0
v 0.7 0.2 0
v 0.7 0.1 0
v 0.6 0.3 0.1
v 0.6 0.2 0.1
v 0.7 0.2 0.1
v 0.7 0.3 0.1
v 0.6 0.2 0
v 0.6 0.3 0
v 0.7 0.3 0
v 0.7 0.2 0
v 0.6 0.4 0.1
v 0.6 0.3 0.1
v 0.7 0.3 0.1
v 0.7 0.4 0.1
v 0.6 0.3 0
v 0.6 0.4 0
v 0.7 0.4 0
v 0.7 0.3 0
v 0.6 0.5 0.1
v 0.6 0.4 0.1
v 0.7 0.4 0.1
v 0.7 0.5 0.1
v 0.6 0.4 0
v 0.6 0.5 0
v 0.7 0.5 0
v 0.7 0.4 0
v 0.6 0.6 0.1
v 0.6 0.5 0.1
v 0.7 0.5 0.1
v 0.7 0.6 0.1
v 0.6 0.5 0
v 0.6 0.6 0
v 0.7 0.6 0
v 0.7 0.5 0
v 0.7 0.6 0.1
v 0.7 0.6 0
v 0.6 0.6 0
v 0.6 0.6 0.1
v 0.7 -0.5 0.1
v 0.7 -0.6 0.1
v 0.8 -0.6 0.1
v 0.8 -0.5 0.1
v 0.7 -0.6 0
v 0.7 -0.5 0
v 0.8 -0.5 0
v 0.8 -0.6 0
v 0.7 -0.6 0.1
v 0.7 -0.6 0
v 0.8 -0.6 0
v 0.8 -0.6 0.1
v 0.7 -0.4 0.1
v 0.7 -0.5 0.1
v 0.8 -0.5 0.1
v 0.8 -0.4 0.1
v 0.7 -0.5 0
v 0.7 -0.4 0
v 0.8 -0.4 0
v 0.8 -0.5 0
v 0.7 -0.3 0.1
v 0.7 -0.4 0.1
v 0.8 -0.4 0.1
v 0.8 -0.3 0.1
v 0.7 -0.4 0
v 0.7 -0.3 0
v 0.8 -0.3 0
v 0.8 -0.4 0
v 0.7 -0.2 0.1
v 0.7 -0.3 0.1
v 0.8 -0.3 0.1
v 0.8 -0.2 0.1
v 0.7 -0.3 0
v 0.7 -0.2 0
v 0.8 -0.2 0
v 0.8 -0.3 0
v 0.7 -0.1 0.1
v 0.7 -0.2 0.1
v 0.8 -0.2 0.1
v 0.8 -0.1 0.1
v 0.7 -0.2 0
v 0.7 -0.1 0
v 0.8 -0.1 0
v 0.8 -0.2 0
v 0.7 0 0.1
v 0.7 -0.1 0.1
v 0.8 -0.1 0.1
v 0.8 0 0.1
v 0.7 -0.1 0
v 0.7 0 0
v 0.8 0 0
v 0.8 -0.1 0
v 0.7 0.1 0.1
v 0.7 0 0.1
v 0.8 0 0.1
v 0.8 0.1 0.1
v 0.7 0 0
v 0.7 0.1 0
v 0.8 0.1 0
v 0.8 0 0
v 0.7 0.2 0.1
v 0.7 0.1 0.1
v 0.8 0.1 0.1
v 0.8 0.2 0.1
v 0.7 0.1 0
v 0.7 0.2 0
v 0.8 0.2 0
v 0.8 0.1 0
v 0.7 0.3 0.1
v 0.7 0.2 0.1
v 0.8 0.2 0.1
v 0.8 0.3 0.1
v 0.7 0.2 0
v 0.7 0.3 0
v 0.8 0.3 0
v 0.8 0.2 0
v 0.7 0.4 0.1
v 0.7 0.3 0.1
v 0.8 0.3 0.1
v 0.8 0.4 0.1
v 0.7 0.3 0
v 0.7 0.4 0
v 0.8 0.4 0
v 0.8 0.3 0
v 0.7 0.5 0.1
v 0.7 0.4 0.1
v 0.8 0.4 0.1
v 0.8 0.5 0.1
v 0.7 0.4 0
v 0.7 0.5 0
v 0.8 0.5 0
v 0.8 0.4 0
v 0.7 0.6 0.1
v 0.7 0.5 0.1
v 0.8 0.5 0.1
v 0.8 0.6 0.1
v 0.7 0.5 0
v 0.7 0.6 0
v 0.8 0.6 0
v 0.8 0.5 0
v 0.8 0.6 0.1
v 0.8 0.6 0
v 0.7 0.6 0
v 0.7 0.6 0.1
v 0.8 -0.5 0.1
v 0.8 -0.6 0.1
v 0.9 -0.6 0.1
v 0.9 -0.5 0.1
v 0.8 -0.6 0
v 0.8 -0.5 0
v 0.9 -0.5 0
v 0.9 -0.6 0
v 0.8 -0.6 0.1
v 0.8 -0.6 0
v 0.9 -0.6 0
v 0.9 -0.6 0.1
v 0.8 -0.4 0.1
v 0.8 -0.5 0.1
v 0.9 -0.5 0.1
v 0.9 -0.4 0.1
v 0.8 -0.5 0
v 0.8 -0.4 0
v 0.9 -0.4 0
v 0.9 -0.5 0
v 0.8 -0.3 0.1
v 0.8 -0.4 0.1
v 0.9 -0.4 0.1
v 0.9 -0.3 0.1
v 0.8 -0.4 0
v 0.8 -0.3 0
v 0.9 -0.3 0
v 0.9 -0.4 0
v 0.8 -0.2 0.1
v 0.8 -0.3 0.1
v 0.9 -0.3 0.1
v 0.9 -0.2 0.1
v 0.8 -0.3 0
v 0.8 -0.2 0
v 0.9 -0.2 0
v 0.9 -0.3 0
v 0.8 -0.1 0.1
v 0.8 -0.2 0.1
v 0.9 -0.2 0.1
v 0.9 -0.1 0.1
v 0.8 -0.2 0
v 0.8 -0.1 0
v 0.9 -0.1 0
v 0.9 -0.2 0
v 0.8 0 0.1
v 0.8 -0.1 0.1
v 0.9 -0.1 0.1
v 0.9 0 0.1
v 0.8 -0.1 0
v 0.8 0 0
v 0.9 0 0
v 0.9 -0.1 0
v 0.8 0.1 0.1
v 0.8 0 0.1
v 0.9 0 0.1
v 0.9 0.1 0.1
v 0.8 0 0
v 0.8 0.1 0
v 0.9 0.1 0
v 0.9 0 0
v 0.8 0.2 0.1
v 0.8 0.1 0.1
v 0.9 0.1 0.1
v 0.9 0.2 0.1
v 0.8 0.1 0
v 0.8 0.2 0
v 0.9 0.2 0
v 0.9 0.1 0
v 0.8 0.3 0.1
v 0.8 0.2 0.1
v 0.9 0.2 0.1
v 0.9 0.3 0.1
v 0.8 0.2 0
v 0.8 0.3 0
v 0.9 0.3 0
v 0.9 0.2 0
v 0.8 0.4 0.1
v 0.8 0.3 0.1
v 0.9 0.3 0.1
v 0.9 0.4 0.1
v 0.8 0.3 0
v 0.8 0.4 0
v 0.9 0.4 0
v 0.9 0.3 0
v 0.8 0.5 0.1
v 0.8 0.4 0.1
v 0.9 0.4 0.1
v 0.9 0.5 0.1
v 0.8 0.4 0
v 0.8 0.5 0
v 0.9 0.5 0
v 0.9 0.4 0
v 0.8 0.6 0.1
v 0.8 0.5 0.1
v 0.9 0.5 0.1
v 0.9 0.6 0.1
v 0.8 0.5 0
v 0.8 0.6 0
v 0.9 0.6 0
v 0.9 0.5 0
v 0.9 0.6 0.1
v 0.9 0.6 0
v 0.8 0.6 0
v 0.8 0.6 0.1
v 0.9 -0.5 0.1
v 0.9 -0.6 0.1
v 1 -0.6 0.1
v 1 -0.5 0.1
v 0.9 -0.6 0
v 0.9 -0.5 0
v 1 -0.5 0
v 1 -0.6 0
v 0.9 -0.6 0.1
v 0.9 -0.6 0
v 1 -0.6 0
v 1 -0.6 0.1
v 0.9 -0.4 0.1
v 0.9 -0.5 0.1
v 1 -0.5 0.1
v 1 -0.4 0.1
v 0.9 -0.5 0
v 0.9 -0.4 0
v 1 -0.4 0
v 1 -0.5 0
v 0.9 -0.3 0.1
v 0.9 -0.4 0.1
v 1 -0.4 0.1
v 1 -0.3 0.1
v 0.9 -0.4 0
v 0.9 -0.3 0
v 1 -0.3 0
v 1 -0.4 0
v 0.9 -0.2 0.1
v 0.9 -0.3 0.1
v 1 -0.3 0.1
v 1 -0.2 0.1
v 0.9 -0.3 0
v 0.9 -0.2 0
v 1 -0.2 0
v 1 -0.3 0
v 0.9 -0.1 0.1
v 0.9 -0.2 0.1
v 1 -0.2 0.1
v 1 -0.1 0.1
v 0.9 -0.2 0
v 0.9 -0.1 0
v 1 -0.1 0
v 1 -0.2 0
v 0.9 0 0.1
v 0.9 -0.1 0.1
v 1 -0.1 0.1
v 1 0 0.1
v 0.9 -0.1 0
v 0.9 0 0
v 1 0 0
v 1 -0.1 0
v 0.9 0.1 0.1
v 0.9 0 0.1
v 1 0 0.1
v 1 0.1 0.1
v 0.9 0 0
v 0.9 0.1 0
v 1 0.1 0
v 1 0 0
v 0.9 0.2 0.1
v 0.9 0.1 0.1
v 1 0.1 0.1
v 1 0.2 0.1
v 0.9 0.1 0
v 0.9 0.2 0
v 1 0.2 0
v 1 0.1 0
v 0.9 0.3 0.1
v 0.9 0.2 0.1
v 1 0.2 0.1
v 1 0.3 0.1
v 0.9 0.2 0
v 0.9 0.3 0
v 1 0.3 0
v 1 0.2 0
v 0.9 0.4 0.1
v 0.9 0.3 0.1
v 1 0.3 0.1
v 1 0.4 0.1
v 0.9 0.3 0
v 0.9 0.4 0
v 1 0.4 0
v 1 0.3 0
v 0.9 0.5 0.1
v 0.9 0.4 0.1
v 1 0.4 0.1
v 1 0.5 0.1
v 0.9 0.4 0
v 0.9 0.5 0
v 1 0.5 0
v 1 0.4 0
v 0.9 0.6 0.1
v 0.9 0.5 0.1
v 1 0.5 0.1
v 1 0.6 0.1
v 0.9 0.5 0
v 0.9 0.6 0
v 1 0.6 0
v 1 0.5 0
v 1 0.6 0.1
v 1 0.6 0
v 0.9 0.6 0
v 0.9 0.6 0.1
v 1 -0.5 0.1
v 1 -0.6 0.1
v 1.1 -0.6 0.1
v 1.1 -0.5 0.1
v 1 -0.6 0
v 1 -0.5 0
v 1.1 -0.5 0
v 1.1 -0.6 0
v 1 -0.6 0.1
v 1 -0.6 0
v 1.1 -0.6 0
v 1.1 -0.6 0.1
v 1 -0.4 0.1
v 1 -0.5 0.1
v 1.1 -0.5 0.1
v 1.1 -0.4 0.1
v 1 -0.5 0
v 1 -0.4 0
v 1.1 -0.4 0
v 1.1 -0.5 0
v 1 -0.3 0.1
v 1 -0.4 0.1
v 1.1 -0.4 0.1
v 1.1 -0.3 0.1
v 1 -0.4 0
v 1 -0.3 0
v 1.1 -0.3 0
v 1.1 -0.4 0
v 1 -0.2 0.1
v 1 -0.3 0.1
v 1.1 -0.3 0.1
v 1.1 -0.2 0.1
v 1 -0.3 0
v 1 -0.2 0
v 1.1 -0.2 0
v 1.1 -0.3 0
v 1 -0.1 0.1
v 1 -0.2 0.1
v 1.1 -0.2 0.1
v 1.1 -0.1 0.1
v 1 -0.2 0
v 1 -0.1 0
v 1.1 -0.1 0
v 1.1 -0.2 0
v 1 0 0.1
v 1 -0.1 0.1
v 1.1 -0.1 0.1
v 1.1 0 0.1
v 1 -0.1 0
v 1 0 0
v 1.1 0 0
v 1.1 -0.1 0
v 1 0.1 0.1
v 1 0 0.1
v 1.1 0 0.1
v 1.1 0.1 0.1
v 1 0 0
v 1 0.1 0
v 1.1 0.1 0
v 1.1 0 0
v 1 0.2 0.1
v 1 0.1 0.1
v 1.1 0.1 0.1
v 1.1 0.2 0.1
v 1 0.1 0
v 1 0.2 0
v 1.1 0.2 0
v 1.1 0.1 0
v 1 0.3 0.1
v 1 0.2 0.1
v 1.1 0.2 0.1
v 1.1 0.3 0.1
v 1 0.2 0
v 1 0.3 0
v 1.1 0.3 0
v 1.1 0.2 0
v 1 0.4 0.1
v 1 0.3 0.1
v 1.1 0.3 0.1
v 1.1 0.4 0.1
v 1 0.3 0
v 1 0.4 0
v 1.1 0.4 0
v 1.1 0.3 0
v 1 0.5 0.1
v 1 0.4 0.1
v 1.1 0.4 0.1
v 1.1 0.5 0.1
v 1 0.4 0
v 1 0.5 0
v 1.1 0.5 0
v 1.1 0.4 0
v 1 0.6 0.1
v 1 0.5 0.1
v 1.1 0.5 0.1
v 1.1 0.6 0.1
v 1 0.5 0
v 1 0.6 0
v 1.1 0.6 0
v 1.1 0.5 0
v 1.1 0.6 0.1
v 1.1 0.6 0
v 1 0.6 0
v 1 0.6 0.1
v 1.2 -0.6 0.1
v 1.2 -0.6 0
v 1.2 -0.5 0
v 1.2 -0.5 0.1
v 1.1 -0.5 0.1
v 1.1 -0.6 0.1
v 1.2 -0.6 0.1
v 1.2 -0.5 0.1
v 1.1 -0.6 0
v 1.1 -0.5 0
v 1.2 -0.5 0
v 1.2 -0.6 0
v 1.1 -0.6 0.1
v 1.1 -0.6 0
v 1.2 -0.6 0
v 1.2 -0.6 0.1
v 1.2 -0.5 0.1
v 1.2 -0.5 0
v 1.2 -0.4 0
v 1.2 -0.4 0.1
v 1.1 -0.4 0.1
v 1.1 -0.5 0.1
v 1.2 -0.5 0.1
v 1.2 -0.4 0.1
v 1.1 -0.5 0
v 1.1 -0.4 0
v 1.2 -0.4 0
v 1.2 -0.5 0
v 1.2 -0.4 0.1
v 1.2 -0.4 0
v 1.2 -0.3 0
v 1.2 -0.3 0.1
v 1.1 -0.3 0.1
v 1.1 -0.4 0.1
v 1.2 -0.4 0.1
v 1.2 -0.3 0.1
v 1.1 -0.4 0
v 1.1 -0.3 0
v 1.2 -0.3 0
v 1.2 -0.4 0
v 1.2 -0.3 0.1
v 1.2 -0.3 0
v 1.2 -0.2 0
v 1.2 -0.2 0.1
v 1.1 -0.2 0.1
v 1.1 -0.3 0.1
v 1.2 -0.3 0.1
v 1.2 -0.2 0.1
v 1.1 -0.3 0
v 1.1 -0.2 0
v 1.2 -0.2 0
v 1.2 -0.3 0
v 1.2 -0.2 0.1
v 1.2 -0.2 0
v 1.2 -0.1 0
v 1.2 -0.1 0.1
v 1.1 -0.1 0.1
v 1.1 -0.2 0.1
v 1.2 -0.2 0.1
v 1.2 -0.1 0.1
v 1.1 -0.2 0
v 1.1 -0.1 0
v 1.2 -0.1 0
v 1.2 -0.2 0
v 1.2 -0.1 0.1
v 1.2 -0.1 0
v 1.2 0 0
v 1.2 0 0.1
v 1.1 0 0.1
v 1.1 -0.1 0.1
v 1.2 -0.1 0.1
v 1.2 0 0.1
v 1.1 -0.1 0
v 1.1 0 0
v 1.2 0 0
v 1.2 -0.1 0
v 1.2 0 0.1
v 1.2 0 0
v 1.2 0.1 0
v 1.2 0.1 0.1
v 1.1 0.1 0.1
v 1.1 0 0.1
v 1.2 0 0.1
v 1.2 0.1 0.1
v 1.1 0 0
v 1.1 0.1 0
v 1.2 0.1 0
v 1.2 0 0
v 1.2 0.1 0.1
v 1.2 0.1 0
v 1.2 0.2 0
v 1.2 0.2 0.1
v 1.1 0.2 0.1
v 1.1 0.1 0.1
v 1.2 0.1 0.1
v 1.2 0.2 0.1
v 1.1 0.1 0
v 1.1 0.2 0
v 1.2 0.2 0
v 1.2 0.1 0
v 1.2 0.2 0.1
v 1.2 0.2 0
v 1.2 0.3 0
v 1.2 0.3 0.1
v 1.1 0.3 0.1
v 1.1 0.2 0.1
v 1.2 0.2 0.1
v 1.2 0.3 0.1
v 1.1 0.2 0
v 1.1 0.3 0
v 1.2 0.3 0
v 1.2 0.2 0
v 1.2 0.3 0.1
v 1.2 0.3 0
v 1.2 0.4 0
v 1.2 0.4 0.1
v 1.1 0.4 0.1
v 1.1 0.3 0.1
v 1.2 0.3 0.1
v 1.2 0.4 0.1
v 1.1 0.3 0
v 1.1 0.4 0
v 1.2 0.4 0
v 1.2 0.3 0
v 1.2 0.4 0.1
v 1.2 0.4 0
v 1.2 0.5 0
v 1.2 0.5 0.1
v 1.1 0.5 0.1
v 1.1 0.4 0.1
v 1.2 0.4 0.1
v 1.2 0.5 0.1
v 1.1 0.4 0
v 1.1 0.5 0
v 1.2 0.5 0
v 1.2 0.4 0
v 1.2 0.5 0.1
v 1.2 0.5 0
v 1.2 0.6 0
v 1.2 0.6 0.1
v 1.1 0.6 0.1
v 1.1 0.5 0.1
v 1.2 0.5 0.1
v 1.2 0.6 0.1
v 1.1 0.5 0
v 1.1 0.6 0
v 1.2 0.6 0
v 1.2 0.5 0
v 1.2 0.6 0.1
v 1.2 0.6 0
v 1.1 0.6 0
v 1.1 0.6 0.1

# faces
f 1/1/1 2/1/1 3/1/1 4/1/1
f 5/1/3 6/1/3 7/1/3 8/1/3
f 9/1/4 10/1/4 11/1/4 12/1/4
f 13/1/5 14/1/5 15/1/5 16/1/5
f 17/1/1 18/1/1 19/1/1 20/1/1
f 21/1/3 22/1/3 23/1/3 24/1/3
f 25/1/4 26/1/4 27/1/4 28/1/4
f 29/3/1 30/3/1 31/3/1 32/3/1
f 33/3/3 34/3/3 35/3/3 36/3/3
f 37/3/4 38/3/4 39/3/4 40/3/4
f 41/1/1 42/1/1 43/1/1 44/1/1
f 45/1/3 46/1/3 47/1/3 48/1/3
f 49/1/4 50/1/4 51/1/4 52/1/4
f 53/1/1 54/1/1 55/1/1 56/1/1
f 57/1/3 58/1/3 59/1/3 60/1/3
f 61/1/4 62/1/4 63/1/4 64/1/4
f 65/1/1 66/1/1 67/1/1 68/1/1
f 69/1/3 70/1/3 71/1/3 72/1/3
f 73/1/4 74/1/4 75/1/4 76/1/4
f 77/1/1 78/1/1 79/1/1 80/1/1
f 81/1/3 82/1/3 83/1/3 84/1/3
f 85/1/4 86/1/4 87/1/4 88/1/4
f 89/1/1 90/1/1 91/1/1 92/1/1
f 93/1/3 94/1/3 95/1/3 96/1/3
f 97/1/4 98/1/4 99/1/4 100/1/4
f 101/1/1 102/1/1 103/1/1 104/1/1
f 105/1/3 106/1/3 107/1/3 108/1/3
f 109/1/4 110/1/4 111/1/4 112/1/4
f 113/1/1 114/1/1 115/1/1 116/1/1
f 117/1/3 118/1/3 119/1/3 120/1/3
f 121/1/4 122/1/4 123/1/4 124/1/4
f 125/1/1 126/1/1 127/1/1 128/1/1
f 129/1/3 130/1/3 131/1/3 132/1/3
f 133/1/4 134/1/4 135/1/4 136/1/4
f 137/1/1 138/1/1 139/1/1 140/1/1
f 141/1/3 142/1/3 143/1/3 144/1/3
f 145/1/4 146/1/4 147/1/4 148/1/4
f 149/1/6 150/1/6 151/1/6 152/1/6
f 153/1/3 154/1/3 155/1/3 156/1/3
f 157/1/4 158/1/4 159/1/4 160/1/4
f 161/1/5 162/1/5 163/1/5 164/1/5
f 165/1/3 166/1/3 167/1/3 168/1/3
f 169/1/4 170/1/4 171/1/4 172/1/4
f 173/1/3 174/1/3 175/1/3 176/1/3
f 177/1/4 178/1/4 179/1/4 180/1/4
f 181/1/3 182/1/3 183/1/3 184/1/3
f 185/1/4 186/1/4 187/1/4 188/1/4
f 189/1/3 190/1/3 191/1/3 192/1/3
f 193/1/4 194/1/4 195/1/4 196/1/4
f 197/1/3 198/1/3 199/1/3 200/1/3
f 201/1/4 202/1/4 203/1/4 204/1/4
f 205/1/3 206/1/3 207/1/3 208/1/3
f 209/1/4 210/1/4 211/1/4 212/1/4
f 213/1/3 214/1/3 215/1/3 216/1/3
f 217/1/4 218/1/4 219/1/4 220/1/4
f 221/1/3 222/1/3 223/1/3 224/1/3
f 225/1/4 226/1/4 227/1/4 228/1/4
f 229/1/3 230/1/3 231/1/3 232/1/3
f 233/1/4 234/1/4 235/1/4 236/1/4
f 237/1/3 238/1/3 239/1/3 240/1/3
f 241/1/4 242/1/4 243/1/4 244/1/4
f 245/1/3 246/1/3 247/1/3 248/1/3
f 249/1/4 250/1/4 251/1/4 252/1/4
f 253/1/6 254/1/6 255/1/6 256/1/6
f 257/1/3 258/1/3 259/1/3 260/1/3
f 261/1/4 262/1/4 263/1/4 264/1/4
f 265/1/5 266/1/5 267/1/5 268/1/5
f 269/1/3 270/1/3 271/1/3 272/1/3
f 273/1/4 274/1/4 275/1/4 276/1/4
f 277/1/3 278/1/3 279/1/3 280/1/3
f 281/1/4 282/1/4 283/1/4 284/1/4
f 285/1/3 286/1/3 287/1/3 288/1/3
f 289/1/4 290/1/4 291/1/4 292/1/4
f 293/1/3 294/1/3 295/1/3 296/1/3
f 297/1/4 298/1/4 299/1/4 300/1/4
f 301/1/3 302/1/3 303/1/3 304/1/3
f 305/1/4 306/1/4 307/1/4 308/1/4
f 309/3/3 310/3/3 311/3/3 312/3/3
f 313/3/4 314/3/4 315/3/4 316/3/4
f 317/3/3 318/3/3 319/3/3 320/3/3
f 321/3/4 322/3/4 323/3/4 324/3/4
f 325/1/3 326/1/3 327/1/3 328/1/3
f 329/1/4 330/1/4 331/1/4 332/1/4
f 333/1/3 334/1/3 335/1/3 336/1/3
f 337/1/4 338/1/4 339/1/4 340/1/4
f 341/1/3 342/1/3 343/1/3 344/1/3
f 345/1/4 346/1/4 347/1/4 348/1/4
f 349/1/3 350/1/3 351/1/3 352/1/3
f 353/1/4 354/1/4 355/1/4 356/1/4
f 357/1/6 358/1/6 359/1/6 360/1/6
f 361/1/3 362/1/3 363/1/3 364/1/3
f 365/1/4 366/1/4 367/1/4 368/1/4
f 369/1/5 370/1/5 371/1/5 372/1/5
f 373/1/3 374/1/3 375/1/3 376/1/3
f 377/1/4 378/1/4 379/1/4 380/1/4
f 381/1/3 382/1/3 383/1/3 384/1/3
f 385/1/4 386/1/4 387/1/4 388/1/4
f 389/1/3 390/1/3 391/1/3 392/1/3
f 393/1/4 394/1/4 395/1/4 396/1/4
f 397/1/3 398/1/3 399/1/3 400/1/3
f 401/1/4 402/1/4 403/1/4 404/1/4
f 405/2/3 406/2/3 407/2/3 408/2/3
f 409/2/4 410/2/4 411/2/4 412/2/4
f 413/4/3 414/4/3 415/4/3 416/4/3
f 417/4/4 418/4/4 419/4/4 420/4/4
f 421/2/3 422/2/3 423/2/3 424/2/3
f 425/2/4 426/2/4 427/2/4 428/2/4
f 429/3/3 430/3/3 431/3/3 432/3/3
f 433/3/4 434/3/4 435/3/4 436/3/4
f 437/1/3 438/1/3 439/1/3 440/1/3
f 441/1/4 442/1/4 443/1/4 444/1/4
f 445/1/3 446/1/3 447/1/3 448/1/3
f 449/1/4 450/1/4 451/1/4 452/1/4
f 453/1/3 454/1/3 455/1/3 456/1/3
f 457/1/4 458/1/4 459/1/4 460/1/4
f 461/1/6 462/1/6 463/1/6 464/1/6
f 465/1/3 466/1/3 467/1/3 468/1/3
f 469/1/4 470/1/4 471/1/4 472/1/4
f 473/1/5 474/1/5 475/1/5 476/1/5
f 477/1/3 478/1/3 479/1/3 480/1/3
f 481/1/4 482/1/4 483/1/4 484/1/4
f 485/1/3 486/1/3 487/1/3 488/1/3
f 489/1/4 490/1/4 491/1/4 492/1/4
f 493/1/3 494/1/3 495/1/3 496/1/3
f 497/1/4 498/1/4 499/1/4 500/1/4
f 501/2/3 502/2/3 503/2/3 504/2/3
f 505/2/4 506/2/4 507/2/4 508/2/4
f 509/4/3 510/4/3 511/4/3 512/4/3
f 513/4/4 514/4/4 515/4/4 516/4/4
f 517/4/3 518/4/3 519/4/3 520/4/3
f 521/4/4 522/4/4 523/4/4 524/4/4
f 525/2/3 526/2/3 527/2/3 528/2/3
f 529/2/4 530/2/4 531/2/4 532/2/4
f 533/3/3 534/3/3 535/3/3 536/3/3
f 537/3/4 538/3/4 539/3/4 540/3/4
f 541/1/3 542/1/3 543/1/3 544/1/3
f 545/1/4 546/1/4 547/1/4 548/1/4
f 549/1/3 550/1/3 551/1/3 552/1/3
f 553/1/4 554/1/4 555/1/4 556/1/4
f 557/1/3 558/1/3 559/1/3 560/1/3
f 561/1/4 562/1/4 563/1/4 564/1/4
f 565/1/6 566/1/6 567/1/6 568/1/6
f 569/1/3 570/1/3 571/1/3 572/1/3
f 573/1/4 574/1/4 575/1/4 576/1/4
f 577/1/5 578/1/5 579/1/5 580/1/5
f 581/1/3 582/1/3 583/1/3 584/1/3
f 585/1/4 586/1/4 587/1/4 588/1/4
f 589/1/3 590/1/3 591/1/3 592/1/3
f 593/1/4 594/1/4 595/1/4 596/1/4
f 597/3/3 598/3/3 599/3/3 600/3/3
f 601/3/4 602/3/4 603/3/4 604/3/4
f 605/2/3 606/2/3 607/2/3 608/2/3
f 609/2/4 610/2/4 611/2/4 612/2/4
f 613/4/3 614/4/3 615/4/3 616/4/3
f 617/4/4 618/4/4 619/4/4 620/4/4
f 621/4/3 622/4/3 623/4/3 624/4/3
f 625/4/4 626/4/4 627/4/4 628/4/4
f 629/2/3 630/2/3 631/2/3 632/2/3
f 633/2/4 634/2/4 635/2/4 636/2/4
f 637/2/3 638/2/3 639/2/3 640/2/3
f 641/2/4 642/2/4 643/2/4 644/2/4
f 645/3/3 646/3/3 647/3/3 648/3/3
f 649/3/4 650/3/4 651/3/4 652/3/4
f 653/3/3 654/3/3 655/3/3 656/3/3
f 657/3/4 658/3/4 659/3/4 660/3/4
f 661/1/3 662/1/3 663/1/3 664/1/3
f 665/1/4 666/1/4 667/1/4 668/1/4
f 669/1/6 670/1/6 671/1/6 672/1/6
f 673/1/3 674/1/3 675/1/3 676/1/3
f 677/1/4 678/1/4 679/1/4 680/1/4
f 681/1/5 682/1/5 683/1/5 684/1/5
f 685/1/3 686/1/3 687/1/3 688/1/3
f 689/1/4 690/1/4 691/1/4 692/1/4
f 693/1/3 694/1/3 695/1/3 696/1/3
f 697/1/4 698/1/4 699/1/4 700/1/4
f 701/2/3 702/2/3 703/2/3 704/2/3
f 705/2/4 706/2/4 707/2/4 708/2/4
f 709/2/3 710/2/3 711/2/3 712/2/3
f 713/2/4 714/2/4 715/2/4 716/2/4
f 717/2/3 718/2/3 719/2/3 720/2/3
f 721/2/4 722/2/4 723/2/4 724/2/4
f 725/2/3 726/2/3 727/2/3 728/2/3
f 729/2/4 730/2/4 731/2/4 732/2/4
f 733/2/3 734/2/3 735/2/3 736/2/3
f 737/2/4 738/2/4 739/2/4 740/2/4
f 741/2/3 742/2/3 743/2/3 744/2/3
f 745/2/4 746/2/4 747/2/4 748/2/4
f 749/3/3 750/3/3 751/3/3 752/3/3
f 753/3/4 754/3/4 755/3/4 756/3/4
f 757/1/3 758/1/3 759/1/3 760/1/3
f 761/1/4 762/1/4 763/1/4 764/1/4
f 765/1/3 766/1/3 767/1/3 768/1/3
f 769/1/4 770/1/4 771/1/4 772/1/4
f 773/1/6 774/1/6 775/1/6 776/1/6
f 777/1/3 778/1/3 779/1/3 780/1/3
f 781/1/4 782/1/4 783/1/4 784/1/4
f 785/1/5 786/1/5 787/1/5 788/1/5
f 789/3/3 790/3/3 791/3/3 792/3/3
f 793/3/4 794/3/4 795/3/4 796/3/4
f 797/3/3 798/3/3 799/3/3 800/3/3
f 801/3/4 802/3/4 803/3/4 804/3/4
f 805/3/3 806/3/3 807/3/3 808/3/3
f 809/3/4 810/3/4 811/3/4 812/3/4
f 813/3/3 814/3/3 815/3/3 816/3/3
f 817/3/4 818/3/4 819/3/4 820/3/4
f 821/3/3 822/3/3 823/3/3 824/3/3
f 825/3/4 826/3/4 827/3/4 828/3/4
f 829/2/3 830/2/3 831/2/3 832/2/3
f 833/2/4 834/2/4 835/2/4 836/2/4
f 837/2/3 838/2/3 839/2/3 840/2/3
f 841/2/4 842/2/4 843/2/4 844/2/4
f 845/2/3 846/2/3 847/2/3 848/2/3
f 849/2/4 850/2/4 851/2/4 852/2/4
f 853/3/3 854/3/3 855/3/3 856/3/3
f 857/3/4 858/3/4 859/3/4 860/3/4
f 861/1/3 862/1/3 863/1/3 864/1/3
f 865/1/4 866/1/4 867/1/4 868/1/4
f 869/1/3 870/1/3 871/1/3 872/1/3
f 873/1/4 874/1/4 875/1/4 876/1/4
f 877/1/6 878/1/6 879/1/6 880/1/6
f 881/2/3 882/2/3 883/2/3 884/2/3
f 885/2/4 886/2/4 887/2/4 888/2/4
f 889/2/5 890/2/5 891/2/5 892/2/5
f 893/2/3 894/2/3 895/2/3 896/2/3
f 897/2/4 898/2/4 899/2/4 900/2/4
f 901/3/3 902/3/3 903/3/3 904/3/3
f 905/3/4 906/3/4 907/3/4 908/3/4
f 909/1/3 910/1/3 911/1/3 912/1/3
f 913/1/4 914/1/4 915/1/4 916/1/4
f 917/1/3 918/1/3 919/1/3 920/1/3
f 921/1/4 922/1/4 923/1/4 924/1/4
f 925/1/3 926/1/3 927/1/3 928/1/3
f 929/1/4 930/1/4 931/1/4 932/1/4
f 933/3/3 934/3/3 935/3/3 936/3/3
f 937/3/4 938/3/4 939/3/4 940/3/4
f 941/2/3 942/2/3 943/2/3 944/2/3
f 945/2/4 946/2/4 947/2/4 948/2/4
f 949/3/3 950/3/3 951/3/3 952/3/3
f 953/3/4 954/3/4 955/3/4 956/3/4
f 957/1/3 958/1/3 959/1/3 960/1/3
f 961/1/4 962/1/4 963/1/4 964/1/4
f 965/1/3 966/1/3 967/1/3 968/1/3
f 969/1/4 970/1/4 971/1/4 972/1/4
f 973/1/3 974/1/3 975/1/3 976/1/3
f 977/1/4 978/1/4 979/1/4 980/1/4
f 981/1/6 982/1/6 983/1/6 984/1/6
f 985/4/3 986/4/3 987/4/3 988/4/3
f 989/4/4 990/4/4 991/4/4 992/4/4
f 993/4/5 994/4/5 995/4/5 996/4/5
f 997/3/3 998/3/3 999/3/3 1000/3/3
f 1001/3/4 1002/3/4 1003/3/4 1004/3/4
f 1005/1/3 1006/1/3 1007/1/3 1008/1/3
f 1009/1/4 1010/1/4 1011/1/4 1012/1/4
f 1013/1/3 1014/1/3 1015/1/3 1016/1/3
f 1017/1/4 1018/1/4 1019/1/4 1020/1/4
f 1021/1/3 1022/1/3 1023/1/3 1024/1/3
f 1025/1/4 1026/1/4 1027/1/4 1028/1/4
f 1029/1/3 1030/1/3 1031/1/3 1032/1/3
f 1033/1/4 1034/1/4 1035/1/4 1036/1/4
f 1037/3/3 1038/3/3 1039/3/3 1040/3/3
f 1041/3/4 1042/3/4 1043/3/4 1044/3/4
f 1045/3/3 1046/3/3 1047/3/3 1048/3/3
f 1049/3/4 1050/3/4 1051/3/4 1052/3/4
f 1053/1/3 1054/1/3 1055/1/3 1056/1/3
f 1057/1/4 1058/1/4 1059/1/4 1060/1/4
f 1061/1/3 1062/1/3 1063/1/3 1064/1/3
f 1065/1/4 1066/1/4 1067/1/4 1068/1/4
f 1069/1/3 1070/1/3 1071/1/3 1072/1/3
f 1073/1/4 1074/1/4 1075/1/4 1076/1/4
f 1077/1/3 1078/1/3 1079/1/3 1080/1/3
f 1081/1/4 1082/1/4 1083/1/4 1084/1/4
f 1085/1/6 1086/1/6 1087/1/6 1088/1/6
f 1089/2/3 1090/2/3 1091/2/3 1092/2/3
f 1093/2/4 1094/2/4 1095/2/4 1096/2/4
f 1097/2/5 1098/2/5 1099/2/5 1100/2/5
f 1101/1/3 1102/1/3 1103/1/3 1104/1/3
f 1105/1/4 1106/1/4 1107/1/4 1108/1/4
f 1109/1/3 1110/1/3 1111/1/3 1112/1/3
f 1113/1/4 1114/1/4 1115/1/4 1116/1/4
f 1117/1/3 1118/1/3 1119/1/3 1120/1/3
f 1121/1/4 1122/1/4 1123/1/4 1124/1/4
f 1125/1/3 1126/1/3 1127/1/3 1128/1/3
f 1129/1/4 1130/1/4 1131/1/4 1132/1/4
f 1133/1/3 1134/1/3 1135/1/3 1136/1/3
f 1137/1/4 1138/1/4 1139/1/4 1140/1/4
f 1141/1/3 1142/1/3 1143/1/3 1144/1/3
f 1145/1/4 1146/1/4 1147/1/4 1148/1/4
f 1149/1/3 1150/1/3 1151/1/3 1152/1/3
f 1153/1/4 1154/1/4 1155/1/4 1156/1/4
f 1157/1/3 1158/1/3 1159/1/3 1160/1/3
f 1161/1/4 1162/1/4 1163/1/4 1164/1/4
f 1165/1/3 1166/1/3 1167/1/3 1168/1/3
f 1169/1/4 1170/1/4 1171/1/4 1172/1/4
f 1173/1/3 1174/1/3 1175/1/3 1176/1/3
f 1177/1/4 1178/1/4 1179/1/4 1180/1/4
f 1181/1/3 1182/1/3 1183/1/3 1184/1/3
f 1185/1/4 1186/1/4 1187/1/4 1188/1/4
f 1189/1/6 1190/1/6 1191/1/6 1192/1/6
f 1193/3/3 1194/3/3 1195/3/3 1196/3/3
f 1197/3/4 1198/3/4 1199/3/4 1200/3/4
f 1201/3/5 1202/3/5 1203/3/5 1204/3/5
f 1205/1/3 1206/1/3 1207/1/3 1208/1/3
f 1209/1/4 1210/1/4 1211/1/4 1212/1/4
f 1213/1/3 1214/1/3 1215/1/3 1216/1/3
f 1217/1/4 1218/1/4 1219/1/4 1220/1/4
f 1221/1/3 1222/1/3 1223/1/3 1224/1/3
f 1225/1/4 1226/1/4 1227/1/4 1228/1/4
f 1229/1/3 1230/1/3 1231/1/3 1232/1/3
f 1233/1/4 1234/1/4 1235/1/4 1236/1/4
f 1237/1/3 1238/1/3 1239/1/3 1240/1/3
f 1241/1/4 1242/1/4 1243/1/4 1244/1/4
f 1245/1/3 1246/1/3 1247/1/3 1248/1/3
f 1249/1/4 1250/1/4 1251/1/4 1252/1/4
f 1253/1/3 1254/1/3 1255/1/3 1256/1/3
f 1257/1/4 1258/1/4 1259/1/4 1260/1/4
f 1261/1/3 1262/1/3 1263/1/3 1264/1/3
f 1265/1/4 1266/1/4 1267/1/4 1268/1/4
f 1269/1/3 1270/1/3 1271/1/3 1272/1/3
f 1273/1/4 1274/1/4 1275/1/4 1276/1/4
f 1277/1/3 1278/1/3 1279/1/3 1280/1/3
f 1281/1/4 1282/1/4 1283/1/4 1284/1/4
f 1285/3/3 1286/3/3 1287/3/3 1288/3/3
f 1289/3/4 1290/3/4 1291/3/4 1292/3/4
f 1293/3/6 1294/3/6 1295/3/6 1296/3/6
f 1297/1/3 1298/1/3 1299/1/3 1300/1/3
f 1301/1/4 1302/1/4 1303/1/4 1304/1/4
f 1305/1/5 1306/1/5 1307/1/5 1308/1/5
f 1309/1/3 1310/1/3 1311/1/3 1312/1/3
f 1313/1/4 1314/1/4 1315/1/4 1316/1/4
f 1317/1/3 1318/1/3 1319/1/3 1320/1/3
f 1321/1/4 1322/1/4 1323/1/4 1324/1/4
f 1325/1/3 1326/1/3 1327/1/3 1328/1/3
f 1329/1/4 1330/1/4 1331/1/4 1332/1/4
f 1333/1/3 1334/1/3 1335/1/3 1336/1/3
f 1337/1/4 1338/1/4 1339/1/4 1340/1/4
f 1341/1/3 1342/1/3 1343/1/3 1344/1/3
f 1345/1/4 1346/1/4 1347/1/4 1348/1/4
f 1349/1/3 1350/1/3 1351/1/3 1352/1/3
f 1353/1/4 1354/1/4 1355/1/4 1356/1/4
f 1357/1/3 1358/1/3 1359/1/3 1360/1/3
f 1361/1/4 1362/1/4 1363/1/4 1364/1/4
f 1365/1/3 1366/1/3 1367/1/3 1368/1/3
f 1369/1/4 1370/1/4 1371/1/4 1372/1/4
f 1373/3/3 1374/3/3 1375/3/3 1376/3/3
f 1377/3/4 1378/3/4 1379/3/4 1380/3/4
f 1381/4/3 1382/4/3 1383/4/3 1384/4/3
f 1385/4/4 1386/4/4 1387/4/4 1388/4/4
f 1389/4/3 1390/4/3 1391/4/3 1392/4/3
f 1393/4/4 1394/4/4 1395/4/4 1396/4/4
f 1397/4/6 1398/4/6 1399/4/6 1400/4/6
f 1401/1/3 1402/1/3 1403/1/3 1404/1/3
f 1405/1/4 1406/1/4 1407/1/4 1408/1/4
f 1409/1/5 1410/1/5 1411/1/5 1412/1/5
f 1413/1/3 1414/1/3 1415/1/3 1416/1/3
f 1417/1/4 1418/1/4 1419/1/4 1420/1/4
f 1421/1/3 1422/1/3 1423/1/3 1424/1/3
f 1425/1/4 1426/1/4 1427/1/4 1428/1/4
f 1429/1/3 1430/1/3 1431/1/3 1432/1/3
f 1433/1/4 1434/1/4 1435/1/4 1436/1/4
f 1437/1/3 1438/1/3 1439/1/3 1440/1/3
f 1441/1/4 1442/1/4 1443/1/4 1444/1/4
f 1445/1/3 1446/1/3 1447/1/3 1448/1/3
f 1449/1/4 1450/1/4 1451/1/4 1452/1/4
f 1453/1/3 1454/1/3 1455/1/3 1456/1/3
f 1457/1/4 1458/1/4 1459/1/4 1460/1/4
f 1461/1/3 1462/1/3 1463/1/3 1464/1/3
f 1465/1/4 1466/1/4 1467/1/4 1468/1/4
f 1469/3/3 1470/3/3 1471/3/3 1472/3/3
f 1473/3/4 1474/3/4 1475/3/4 1476/3/4
f 1477/4/3 1478/4/3 1479/4/3 1480/4/3
f 1481/4/4 1482/4/4 1483/4/4 1484/4/4
f 1485/4/3 1486/4/3 1487/4/3 1488/4/3
f 1489/4/4 1490/4/4 1491/4/4 1492/4/4
f 1493/4/3 1494/4/3 1495/4/3 1496/4/3
f 1497/4/4 1498/4/4 1499/4/4 1500/4/4
f 1501/4/6 1502/4/6 1503/4/6 1504/4/6
f 1505/1/3 1506/1/3 1507/1/3 1508/1/3
f 1509/1/4 1510/1/4 1511/1/4 1512/1/4
f 1513/1/5 1514/1/5 1515/1/5 1516/1/5
f 1517/1/3 1518/1/3 1519/1/3 1520/1/3
f 1521/1/4 1522/1/4 1523/1/4 1524/1/4
f 1525/1/3 1526/1/3 1527/1/3 1528/1/3
f 1529/1/4 1530/1/4 1531/1/4 1532/1/4
f 1533/1/3 1534/1/3 1535/1/3 1536/1/3
f 1537/1/4 1538/1/4 1539/1/4 1540/1/4
f 1541/1/3 1542/1/3 1543/1/3 1544/1/3
f 1545/1/4 1546/1/4 1547/1/4 1548/1/4
f 1549/1/3 1550/1/3 1551/1/3 1552/1/3
f 1553/1/4 1554/1/4 1555/1/4 1556/1/4
f 1557/1/3 1558/1/3 1559/1/3 1560/1/3
f 1561/1/4 1562/1/4 1563/1/4 1564/1/4
f 1565/1/3 1566/1/3 1567/1/3 1568/1/3
f 1569/1/4 1570/1/4 1571/1/4 1572/1/4
f 1573/4/3 1574/4/3 1575/4/3 1576/4/3
f 1577/4/4 1578/4/4 1579/4/4 1580/4/4
f 1581/4/3 1582/4/3 1583/4/3 1584/4/3
f 1585/4/4 1586/4/4 1587/4/4 1588/4/4
f 1589/4/3 1590/4/3 1591/4/3 1592/4/3
f 1593/4/4 1594/4/4 1595/4/4 1596/4/4
f 1597/2/3 1598/2/3 1599/2/3 1600/2/3
f 1601/2/4 1602/2/4 1603/2/4 1604/2/4
f 1605/2/6 1606/2/6 1607/2/6 1608/2/6
f 1609/1/3 1610/1/3 1611/1/3 1612/1/3
f 1613/1/4 1614/1/4 1615/1/4 1616/1/4
f 1617/1/5 1618/1/5 1619/1/5 1620/1/5
f 1621/1/3 1622/1/3 1623/1/3 1624/1/3
f 1625/1/4 1626/1/4 1627/1/4 1628/1/4
f 1629/1/3 1630/1/3 1631/1/3 1632/1/3
f 1633/1/4 1634/1/4 1635/1/4 1636/1/4
f 1637/1/3 1638/1/3 1639/1/3 1640/1/3
f 1641/1/4 1642/1/4 1643/1/4 1644/1/4
f 1645/1/3 1646/1/3 1647/1/3 1648/1/3
f 1649/1/4 1650/1/4 1651/1/4 1652/1/4
f 1653/1/3 1654/1/3 1655/1/3 1656/1/3
f 1657/1/4 1658/1/4 1659/1/4 1660/1/4
f 1661/1/3 1662/1/3 1663/1/3 1664/1/3
f 1665/1/4 1666/1/4 1667/1/4 1668/1/4
f 1669/2/3 1670/2/3 1671/2/3 1672/2/3
f 1673/2/4 1674/2/4 1675/2/4 1676/2/4
f 1677/4/3 1678/4/3 1679/4/3 1680/4/3
f 1681/4/4 1682/4/4 1683/4/4 1684/4/4
f 1685/4/3 1686/4/3 1687/4/3 1688/4/3
f 1689/4/4 1690/4/4 1691/4/4 1692/4/4
f 1693/4/3 1694/4/3 1695/4/3 1696/4/3
f 1697/4/4 1698/4/4 1699/4/4 1700/4/4
f 1701/2/3 1702/2/3 1703/2/3 1704/2/3
f 1705/2/4 1706/2/4 1707/2/4 1708/2/4
f 1709/2/6 1710/2/6 1711/2/6 1712/2/6
f 1713/1/3 1714/1/3 1715/1/3 1716/1/3
f 1717/1/4 1718/1/4 1719/1/4 1720/1/4
f 1721/1/5 1722/1/5 1723/1/5 1724/1/5
f 1725/1/3 1726/1/3 1727/1/3 1728/1/3
f 1729/1/4 1730/1/4 1731/1/4 1732/1/4
f 1733/1/3 1734/1/3 1735/1/3 1736/1/3
f 1737/1/4 1738/1/4 1739/1/4 1740/1/4
f 1741/1/3 1742/1/3 1743/1/3 1744/1/3
f 1745/1/4 1746/1/4 1747/1/4 1748/1/4
f 1749/1/3 1750/1/3 1751/1/3 1752/1/3
f 1753/1/4 1754/1/4 1755/1/4 1756/1/4
f 1757/1/3 1758/1/3 1759/1/3 1760/1/3
f 1761/1/4 1762/1/4 1763/1/4 1764/1/4
f 1765/3/3 1766/3/3 1767/3/3 1768/3/3
f 1769/3/4 1770/3/4 1771/3/4 1772/3/4
f 1773/2/3 1774/2/3 1775/2/3 1776/2/3
f 1777/2/4 1778/2/4 1779/2/4 1780/2/4
f 1781/2/3 1782/2/3 1783/2/3 1784/2/3
f 1785/2/4 1786/2/4 1787/2/4 1788/2/4
f 1789/2/3 1790/2/3 1791/2/3 1792/2/3
f 1793/2/4 1794/2/4 1795/2/4 1796/2/4
f 1797/2/3 1798/2/3 1799/2/3 1800/2/3
f 1801/2/4 1802/2/4 1803/2/4 1804/2/4
f 1805/3/3 1806/3/3 1807/3/3 1808/3/3
f 1809/3/4 1810/3/4 1811/3/4 1812/3/4
f 1813/3/6 1814/3/6 1815/3/6 1816/3/6
f 1817/1/3 1818/1/3 1819/1/3 1820/1/3
f 1821/1/4 1822/1/4 1823/1/4 1824/1/4
f 1825/1/5 1826/1/5 1827/1/5 1828/1/5
f 1829/1/3 1830/1/3 1831/1/3 1832/1/3
f 1833/1/4 1834/1/4 1835/1/4 1836/1/4
f 1837/1/3 1838/1/3 1839/1/3 1840/1/3
f 1841/1/4 1842/1/4 1843/1/4 1844/1/4
f 1845/1/3 1846/1/3 1847/1/3 1848/1/3
f 1849/1/4 1850/1/4 1851/1/4 1852/1/4
f 1853/3/3 1854/3/3 1855/3/3 1856/3/3
f 1857/3/4 1858/3/4 1859/3/4 1860/3/4
f 1861/2/3 1862/2/3 1863/2/3 1864/2/3
f 1865/2/4 1866/2/4 1867/2/4 1868/2/4
f 1869/2/3 1870/2/3 1871/2/3 1872/2/3
f 1873/2/4 1874/2/4 1875/2/4 1876/2/4
f 1877/3/3 1878/3/3 1879/3/3 1880/3/3
f 1881/3/4 1882/3/4 1883/3/4 1884/3/4
f 1885/1/3 1886/1/3 1887/1/3 1888/1/3
f 1889/1/4 1890/1/4 1891/1/4 1892/1/4
f 1893/1/3 1894/1/3 1895/1/3 1896/1/3
f 1897/1/4 1898/1/4 1899/1/4 1900/1/4
f 1901/1/3 1902/1/3 1903/1/3 1904/1/3
f 1905/1/4 1906/1/4 1907/1/4 1908/1/4
f 1909/3/3 1910/3/3 1911/3/3 1912/3/3
f 1913/3/4 1914/3/4 1915/3/4 1916/3/4
f 1917/3/6 1918/3/6 1919/3/6 1920/3/6
f 1921/1/3 1922/1/3 1923/1/3 1924/1/3
f 1925/1/4 1926/1/4 1927/1/4 1928/1/4
f 1929/1/5 1930/1/5 1931/1/5 1932/1/5
f 1933/3/3 1934/3/3 1935/3/3 1936/3/3
f 1937/3/4 1938/3/4 1939/3/4 1940/3/4
f 1941/2/3 1942/2/3 1943/2/3 1944/2/3
f 1945/2/4 1946/2/4 1947/2/4 1948/2/4
f 1949/2/3 1950/2/3 1951/2/3 1952/2/3
f 1953/2/4 1954/2/4 1955/2/4 1956/2/4
f 1957/4/3 1958/4/3 1959/4/3 1960/4/3
f 1961/4/4 1962/4/4 1963/4/4 1964/4/4
f 1965/2/3 1966/2/3 1967/2/3 1968/2/3
f 1969/2/4 1970/2/4 1971/2/4 1972/2/4
f 1973/1/3 1974/1/3 1975/1/3 1976/1/3
f 1977/1/4 1978/1/4 1979/1/4 1980/1/4
f 1981/1/3 1982/1/3 1983/1/3 1984/1/3
f 1985/1/4 1986/1/4 1987/1/4 1988/1/4
f 1989/1/3 1990/1/3 1991/1/3 1992/1/3
f 1993/1/4 1994/1/4 1995/1/4 1996/1/4
f 1997/1/3 1998/1/3 1999/1/3 2000/1/3
f 2001/1/4 2002/1/4 2003/1/4 2004/1/4
f 2005/1/3 2006/1/3 2007/1/3 2008/1/3
f 2009/1/4 2010/1/4 2011/1/4 2012/1/4
f 2013/3/3 2014/3/3 2015/3/3 2016/3/3
f 2017/3/4 2018/3/4 2019/3/4 2020/3/4
f 2021/3/6 2022/3/6 2023/3/6 2024/3/6
f 2025/3/3 2026/3/3 2027/3/3 2028/3/3
f 2029/3/4 2030/3/4 2031/3/4 2032/3/4
f 2033/3/5 2034/3/5 2035/3/5 2036/3/5
f 2037/2/3 2038/2/3 2039/2/3 2040/2/3
f 2041/2/4 2042/2/4 2043/2/4 2044/2/4
f 2045/4/3 2046/4/3 2047/4/3 2048/4/3
f 2049/4/4 2050/4/4 2051/4/4 2052/4/4
f 2053/4/3 2054/4/3 2055/4/3 2056/4/3
f 2057/4/4 2058/4/4 2059/4/4 2060/4/4
f 2061/4/3 2062/4/3 2063/4/3 2064/4/3
f 2065/4/4 2066/4/4 2067/4/4 2068/4/4
f 2069/3/3 2070/3/3 2071/3/3 2072/3/3
f 2073/3/4 2074/3/4 2075/3/4 2076/3/4
f 2077/1/3 2078/1/3 2079/1/3 2080/1/3
f 2081/1/4 2082/1/4 2083/1/4 2084/1/4
f 2085/1/3 2086/1/3 2087/1/3 2088/1/3
f 2089/1/4 2090/1/4 2091/1/4 2092/1/4
f 2093/1/3 2094/1/3 2095/1/3 2096/1/3
f 2097/1/4 2098/1/4 2099/1/4 2100/1/4
f 2101/1/3 2102/1/3 2103/1/3 2104/1/3
f 2105/1/4 2106/1/4 2107/1/4 2108/1/4
f 2109/1/3 2110/1/3 2111/1/3 2112/1/3
f 2113/1/4 2114/1/4 2115/1/4 2116/1/4
f 2117/1/3 2118/1/3 2119/1/3 2120/1/3
f 2121/1/4 2122/1/4 2123/1/4 2124/1/4
f 2125/1/6 2126/1/6 2127/1/6 2128/1/6
f 2129/2/3 2130/2/3 2131/2/3 2132/2/3
f 2133/2/4 2134/2/4 2135/2/4 2136/2/4
f 2137/2/5 2138/2/5 2139/2/5 2140/2/5
f 2141/4/3 2142/4/3 2143/4/3 2144/4/3
f 2145/4/4 2146/4/4 2147/4/4 2148/4/4
f 2149/4/3 2150/4/3 2151/4/3 2152/4/3
f 2153/4/4 2154/4/4 2155/4/4 2156/4/4
f 2157/4/3 2158/4/3 2159/4/3 2160/4/3
f 2161/4/4 2162/4/4 2163/4/4 2164/4/4
f 2165/2/3 2166/2/3 2167/2/3 2168/2/3
f 2169/2/4 2170/2/4 2171/2/4 2172/2/4
f 2173/1/3 2174/1/3 2175/1/3 2176/1/3
f 2177/1/4 2178/1/4 2179/1/4 2180/1/4
f 2181/1/3 2182/1/3 2183/1/3 2184/1/3
f 2185/1/4 2186/1/4 2187/1/4 2188/1/4
f 2189/1/3 2190/1/3 2191/1/3 2192/1/3
f 2193/1/4 2194/1/4 2195/1/4 2196/1/4
f 2197/1/3 2198/1/3 2199/1/3 2200/1/3
f 2201/1/4 2202/1/4 2203/1/4 2204/1/4
f 2205/1/3 2206/1/3 2207/1/3 2208/1/3
f 2209/1/4 2210/1/4 2211/1/4 2212/1/4
f 2213/1/3 2214/1/3 2215/1/3 2216/1/3
f 2217/1/4 2218/1/4 2219/1/4 2220/1/4
f 2221/1/3 2222/1/3 2223/1/3 2224/1/3
f 2225/1/4 2226/1/4 2227/1/4 2228/1/4
f 2229/1/6 2230/1/6 2231/1/6 2232/1/6
f 2233/2/3 2234/2/3 2235/2/3 2236/2/3
f 2237/2/4 2238/2/4 2239/2/4 2240/2/4
f 2241/2/5 2242/2/5 2243/2/5 2244/2/5
f 2245/4/3 2246/4/3 2247/4/3 2248/4/3
f 2249/4/4 2250/4/4 2251/4/4 2252/4/4
f 2253/4/3 2254/4/3 2255/4/3 2256/4/3
f 2257/4/4 2258/4/4 2259/4/4 2260/4/4
f 2261/2/3 2262/2/3 2263/2/3 2264/2/3
f 2265/2/4 2266/2/4 2267/2/4 2268/2/4
f 2269/1/3 2270/1/3 2271/1/3 2272/1/3
f 2273/1/4 2274/1/4 2275/1/4 2276/1/4
f 2277/1/3 2278/1/3 2279/1/3 2280/1/3
f 2281/1/4 2282/1/4 2283/1/4 2284/1/4
f 2285/1/3 2286/1/3 2287/1/3 2288/1/3
f 2289/1/4 2290/1/4 2291/1/4 2292/1/4
f 2293/1/3 2294/1/3 2295/1/3 2296/1/3
f 2297/1/4 2298/1/4 2299/1/4 2300/1/4
f 2301/1/3 2302/1/3 2303/1/3 2304/1/3
f 2305/1/4 2306/1/4 2307/1/4 2308/1/4
f 2309/1/3 2310/1/3 2311/1/3 2312/1/3
f 2313/1/4 2314/1/4 2315/1/4 2316/1/4
f 2317/1/3 2318/1/3 2319/1/3 2320/1/3
f 2321/1/4 2322/1/4 2323/1/4 2324/1/4
f 2325/1/3 2326/1/3 2327/1/3 2328/1/3
f 2329/1/4 2330/1/4 2331/1/4 2332/1/4
f 2333/1/6 2334/1/6 2335/1/6 2336/1/6
f 2337/2/3 2338/2/3 2339/2/3 2340/2/3
f 2341/2/4 2342/2/4 2343/2/4 2344/2/4
f 2345/2/5 2346/2/5 2347/2/5 2348/2/5
f 2349/4/3 2350/4/3 2351/4/3 2352/4/3
f 2353/4/4 2354/4/4 2355/4/4 2356/4/4
f 2357/2/3 2358/2/3 2359/2/3 2360/2/3
f 2361/2/4 2362/2/4 2363/2/4 2364/2/4
f 2365/1/3 2366/1/3 2367/1/3 2368/1/3
f 2369/1/4 2370/1/4 2371/1/4 2372/1/4
f 2373/1/3 2374/1/3 2375/1/3 2376/1/3
f 2377/1/4 2378/1/4 2379/1/4 2380/1/4
f 2381/1/3 2382/1/3 2383/1/3 2384/1/3
f 2385/1/4 2386/1/4 2387/1/4 2388/1/4
f 2389/1/3 2390/1/3 2391/1/3 2392/1/3
f 2393/1/4 2394/1/4 2395/1/4 2396/1/4
f 2397/1/3 2398/1/3 2399/1/3 2400/1/3
f 2401/1/4 2402/1/4 2403/1/4 2404/1/4
f 2405/1/3 2406/1/3 2407/1/3 2408/1/3
f 2409/1/4 2410/1/4 2411/1/4 2412/1/4
f 2413/1/3 2414/1/3 2415/1/3 2416/1/3
f 2417/1/4 2418/1/4 2419/1/4 2420/1/4
f 2421/1/3 2422/1/3 2423/1/3 2424/1/3
f 2425/1/4 2426/1/4 2427/1/4 2428/1/4
f 2429/1/3 2430/1/3 2431/1/3 2432/1/3
f 2433/1/4 2434/1/4 2435/1/4 2436/1/4
f 2437/1/6 2438/1/6 2439/1/6 2440/1/6
f 2441/3/2 2442/3/2 2443/3/2 2444/3/2
f 2445/3/3 2446/3/3 2447/3/3 2448/3/3
f 2449/3/4 2450/3/4 2451/3/4 2452/3/4
f 2453/3/5 2454/3/5 2455/3/5 2456/3/5
f 2457/1/2 2458/1/2 2459/1/2 2460/1/2
f 2461/1/3 2462/1/3 2463/1/3 2464/1/3
f 2465/1/4 2466/1/4 2467/1/4 2468/1/4
f 2469/1/2 2470/1/2 2471/1/2 2472/1/2
f 2473/1/3 2474/1/3 2475/1/3 2476/1/3
f 2477/1/4 2478/1/4 2479/1/4 2480/1/4
f 2481/1/2 2482/1/2 2483/1/2 2484/1/2
f 2485/1/3 2486/1/3 2487/1/3 2488/1/3
f 2489/1/4 2490/1/4 2491/1/4 2492/1/4
f 2493/1/2 2494/1/2 2495/1/2 2496/1/2
f 2497/1/3 2498/1/3 2499/1/3 2500/1/3
f 2501/1/4 2502/1/4 2503/1/4 2504/1/4
f 2505/1/2 2506/1/2 2507/1/2 2508/1/2
f 2509/1/3 2510/1/3 2511/1/3 2512/1/3
f 2513/1/4 2514/1/4 2515/1/4 2516/1/4
f 2517/1/2 2518/1/2 2519/1/2 2520/1/2
f 2521/1/3 2522/1/3 2523/1/3 2524/1/3
f 2525/1/4 2526/1/4 2527/1/4 2528/1/4
f 2529/1/2 2530/1/2 2531/1/2 2532/1/2
f 2533/1/3 2534/1/3 2535/1/3 2536/1/3
f 2537/1/4 2538/1/4 2539/1/4 2540/1/4
f 2541/1/2 2542/1/2 2543/1/2 2544/1/2
f 2545/1/3 2546/1/3 2547/1/3 2548/1/3
f 2549/1/4 2550/1/4 2551/1/4 2552/1/4
f 2553/1/2 2554/1/2 2555/1/2 2556/1/2
f 2557/1/3 2558/1/3 2559/1/3 2560/1/3
f 2561/1/4 2562/1/4 2563/1/4 2564/1/4
f 2565/1/2 2566/1/2 2567/1/2 2568/1/2
f 2569/1/3 2570/1/3 2571/1/3 2572/1/3
f 2573/1/4 2574/1/4 2575/1/4 2576/1/4
f 2577/1/2 2578/1/2 2579/1/2 2580/1/2
f 2581/1/3 2582/1/3 2583/1/3 2584/1/3
f 2585/1/4 2586/1/4 2587/1/4 2588/1/4
f 2589/1/6 2590/1/6 2591/1/6 2592/1/6

