# generated by vox_to_obj_exporter
# scale=0.1 center=true ground=true y_up=false

mtllib lava_25_6_f2.mtl
usemtl palette

# normals
vn -1 0 0
vn 1 0 0
vn 0 0 1
vn 0 0 -1
vn 0 -1 0
vn 0 1 0

# texcoords
vt 0.001953125 0.5
vt 0.044921875 0.5
vt 0.021484375 0.5
vt 0.068359375 0.5

# verts
v -1.2 0.1 0.1
v -1.2 0.1 0
v -1.2 0 0
v -1.2 0 0.1
v -1.2 0.1 0.1
v -1.2 0 0.1
v -1.1 0 0.1
v -1.1 0.1 0.1
v -1.2 0 0
v -1.2 0.1 0
v -1.1 0.1 0
v -1.1 0 0
v -1.2 0 0.1
v -1.2 0 0
v -1.1 0 0
v -1.1 0 0.1
v -1.2 0.2 0.1
v -1.2 0.2 0
v -1.2 0.1 0
v -1.2 0.1 0.1
v -1.2 0.2 0.1
v -1.2 0.1 0.1
v -1.1 0.1 0.1
v -1.1 0.2 0.1
v -1.2 0.1 0
v -1.2 0.2 0
v -1.1 0.2 0
v -1.1 0.1 0
v -1.2 0.3 0.1
v -1.2 0.3 0
v -1.2 0.2 0
v -1.2 0.2 0.1
v -1.2 0.3 0.1
v -1.2 0.2 0.1
v -1.1 0.2 0.1
v -1.1 0.3 0.1
v -1.2 0.2 0
v -1.2 0.3 0
v -1.1 0.3 0
v -1.1 0.2 0
v -1.2 0.4 0.1
v -1.2 0.4 0
v -1.2 0.3 0
v -1.2 0.3 0.1
v -1.2 0.4 0.1
v -1.2 0.3 0.1
v -1.1 0.3 0.1
v -1.1 0.4 0.1
v -1.2 0.3 0
v -1.2 0.4 0
v -1.1 0.4 0
v -1.1 0.3 0
v -1.2 0.5 0.1
v -1.2 0.5 0
v -1.2 0.4 0
v -1.2 0.4 0.1
v -1.2 0.5 0.1
v -1.2 0.4 0.1
v -1.1 0.4 0.1
v -1.1 0.5 0.1
v -1.2 0.4 0
v -1.2 0.5 0
v -1.1 0.5 0
v -1.1 0.4 0
v -1.2 0.6 0.1
v -1.2 0.6 0
v -1.2 0.5 0
v -1.2 0.5 0.1
v -1.2 0.6 0.1
v -1.2 0.5 0.1
v -1.1 0.5 0.1
v -1.1 0.6 0.1
v -1.2 0.5 0
v -1.2 0.6 0
v -1.1 0.6 0
v -1.1 0.5 0
v -1.2 0.7 0.1
v -1.2 0.7 0
v -1.2 0.6 0
v -1.2 0.6 0.1
v -1.2 0.7 0.1
v -1.2 0.6 0.1
v -1.1 0.6 0.1
v -1.1 0.7 0.1
v -1.2 0.6 0
v -1.2 0.7 0
v -1.1 0.7 0
v -1.1 0.6 0
v -1.2 0.8 0.1
v -1.2 0.8 0
v -1.2 0.7 0
v -1.2 0.7 0.1
v -1.2 0.8 0.1
v -1.2 0.7 0.1
v -1.1 0.7 0.1
v -1.1 0.8 0.1
v -1.2 0.7 0
v -1.2 0.8 0
v -1.1 0.8 0
v -1.1 0.7 0
v -1.2 0.9 0.1
v -1.2 0.9 0
v -1.2 0.8 0
v -1.2 0.8 0.1
v -1.2 0.9 0.1
v -1.2 0.8 0.1
v -1.1 0.8 0.1
v -1.1 0.9 0.1
v -1.2 0.8 0
v -1.2 0.9 0
v -1.1 0.9 0
v -1.1 0.8 0
v -1.2 1 0.1
v -1.2 1 0
v -1.2 0.9 0
v -1.2 0.9 0.1
v -1.2 1 0.1
v -1.2 0.9 0.1
v -1.1 0.9 0.1
v -1.1 1 0.1
v -1.2 0.9 0
v -1.2 1 0
v -1.1 1 0
v -1.1 0.9 0
v -1.2 1.1 0.1
v -1.2 1.1 0
v -1.2 1 0
v -1.2 1 0.1
v -1.2 1.1 0.1
v -1.2 1 0.1
v -1.1 1 0.1
v -1.1 1.1 0.1
v -1.2 1 0
v -1.2 1.1 0
v -1.1 1.1 0
v -1.1 1 0
v -1.2 1.2 0.1
v -1.2 1.2 0
v -1.2 1.1 0
v -1.2 1.1 0.1
v -1.2 1.2 0.1
v -1.2 1.1 0.1
v -1.1 1.1 0.1
v -1.1 1.2 0.1
v -1.2 1.1 0
v -1.2 1.2 0
v -1.1 1.2 0
v -1.1 1.1 0
v -1.1 1.2 0.1
v -1.1 1.2 0
v -1.2 1.2 0
v -1.2 1.2 0.1
v -1.1 0.1 0.1
v -1.1 0 0.1
v -1 0 0.1
v -1 0.1 0.1
v -1.1 0 0
v -1.1 0.1 0
v -1 0.1 0
v -1 0 0
v -1.1 0 0.1
v -1.1 0 0
v -1 0 0
v -1 0 0.1
v -1.1 0.2 0.1
v -1.1 0.1 0.1
v -1 0.1 0.1
v -1 0.2 0.1
v -1.1 0.1 0
v -1.1 0.2 0
v -1 0.2 0
v -1 0.1 0
v -1.1 0.3 0.1
v -1.1 0.2 0.1
v -1 0.2 0.1
v -1 0.3 0.1
v -1.1 0.2 0
v -1.1 0.3 0
v -1 0.3 0
v -1 0.2 0
v -1.1 0.4 0.1
v -1.1 0.3 0.1
v -1 0.3 0.1
v -1 0.4 0.1
v -1.1 0.3 0
v -1.1 0.4 0
v -1 0.4 0
v -1 0.3 0
v -1.1 0.5 0.1
v -1.1 0.4 0.1
v -1 0.4 0.1
v -1 0.5 0.1
v -1.1 0.4 0
v -1.1 0.5 0
v -1 0.5 0
v -1 0.4 0
v -1.1 0.6 0.1
v -1.1 0.5 0.1
v -1 0.5 0.1
v -1 0.6 0.1
v -1.1 0.5 0
v -1.1 0.6 0
v -1 0.6 0
v -1 0.5 0
v -1.1 0.7 0.1
v -1.1 0.6 0.1
v -1 0.6 0.1
v -1 0.7 0.1
v -1.1 0.6 0
v -1.1 0.7 0
v -1 0.7 0
v -1 0.6 0
v -1.1 0.8 0.1
v -1.1 0.7 0.1
v -1 0.7 0.1
v -1 0.8 0.1
v -1.1 0.7 0
v -1.1 0.8 0
v -1 0.8 0
v -1 0.7 0
v -1.1 0.9 0.1
v -1.1 0.8 0.1
v -1 0.8 0.1
v -1 0.9 0.1
v -1.1 0.8 0
v -1.1 0.9 0
v -1 0.9 0
v -1 0.8 0
v -1.1 1 0.1
v -1.1 0.9 0.1
v -1 0.9 0.1
v -1 1 0.1
v -1.1 0.9 0
v -1.1 1 0
v -1 1 0
v -1 0.9 0
v -1.1 1.1 0.1
v -1.1 1 0.1
v -1 1 0.1
v -1 1.1 0.1
v -1.1 1 0
v -1.1 1.1 0
v -1 1.1 0
v -1 1 0
v -1.1 1.2 0.1
v -1.1 1.1 0.1
v -1 1.1 0.1
v -1 1.2 0.1
v -1.1 1.1 0
v -1.1 1.2 0
v -1 1.2 0
v -1 1.1 0
v -1 1.2 0.1
v -1 1.2 0
v -1.1 1.2 0
v -1.1 1.2 0.1
v -1 0.1 0.1
v -1 0 0.1
v -0.9 0 0.1
v -0.9 0.1 0.1
v -1 0 0
v -1 0.1 0
v -0.9 0.1 0
v -0.9 0 0
v -1 0 0.1
v -1 0 0
v -0.9 0 0
v -0.9 0 0.1
v -1 0.2 0.1
v -1 0.1 0.1
v -0.9 0.1 0.1
v -0.9 0.2 0.1
v -1 0.1 0
v -1 0.2 0
v -0.9 0.2 0
v -0.9 0.1 0
v -1 0.3 0.1
v -1 0.2 0.1
v -0.9 0.2 0.1
v -0.9 0.3 0.1
v -1 0.2 0
v -1 0.3 0
v -0.9 0.3 0
v -0.9 0.2 0
v -1 0.4 0.1
v -1 0.3 0.1
v -0.9 0.3 0.1
v -0.9 0.4 0.1
v -1 0.3 0
v -1 0.4 0
v -0.9 0.4 0
v -0.9 0.3 0
v -1 0.5 0.1
v -1 0.4 0.1
v -0.9 0.4 0.1
v -0.9 0.5 0.1
v -1 0.4 0
v -1 0.5 0
v -0.9 0.5 0
v -0.9 0.4 0
v -1 0.6 0.1
v -1 0.5 0.1
v -0.9 0.5 0.1
v -0.9 0.6 0.1
v -1 0.5 0
v -1 0.6 0
v -0.9 0.6 0
v -0.9 0.5 0
v -1 0.7 0.1
v -1 0.6 0.1
v -0.9 0.6 0.1
v -0.9 0.7 0.1
v -1 0.6 0
v -1 0.7 0
v -0.9 0.7 0
v -0.9 0.6 0
v -1 0.8 0.1
v -1 0.7 0.1
v -0.9 0.7 0.1
v -0.9 0.8 0.1
v -1 0.7 0
v -1 0.8 0
v -0.9 0.8 0
v -0.9 0.7 0
v -1 0.9 0.1
v -1 0.8 0.1
v -0.9 0.8 0.1
v -0.9 0.9 0.1
v -1 0.8 0
v -1 0.9 0
v -0.9 0.9 0
v -0.9 0.8 0
v -1 1 0.1
v -1 0.9 0.1
v -0.9 0.9 0.1
v -0.9 1 0.1
v -1 0.9 0
v -1 1 0
v -0.9 1 0
v -0.9 0.9 0
v -1 1.1 0.1
v -1 1 0.1
v -0.9 1 0.1
v -0.9 1.1 0.1
v -1 1 0
v -1 1.1 0
v -0.9 1.1 0
v -0.9 1 0
v -1 1.2 0.1
v -1 1.1 0.1
v -0.9 1.1 0.1
v -0.9 1.2 0.1
v -1 1.1 0
v -1 1.2 0
v -0.9 1.2 0
v -0.9 1.1 0
v -0.9 1.2 0.1
v -0.9 1.2 0
v -1 1.2 0
v -1 1.2 0.1
v -0.9 0 0.1
v -0.9 0 0
v -0.9 -0.1 0
v -0.9 -0.1 0.1
v -0.9 0 0.1
v -0.9 -0.1 0.1
v -0.8 -0.1 0.1
v -0.8 0 0.1
v -0.9 -0.1 0
v -0.9 0 0
v -0.8 0 0
v -0.8 -0.1 0
v -0.9 -0.1 0.1
v -0.9 -0.1 0
v -0.8 -0.1 0
v -0.8 -0.1 0.1
v -0.9 0.1 0.1
v -0.9 0 0.1
v -0.8 0 0.1
v -0.8 0.1 0.1
v -0.9 0 0
v -0.9 0.1 0
v -0.8 0.1 0
v -0.8 0 0
v -0.9 0.2 0.1
v -0.9 0.1 0.1
v -0.8 0.1 0.1
v -0.8 0.2 0.1
v -0.9 0.1 0
v -0.9 0.2 0
v -0.8 0.2 0
v -0.8 0.1 0
v -0.9 0.3 0.1
v -0.9 0.2 0.1
v -0.8 0.2 0.1
v -0.8 0.3 0.1
v -0.9 0.2 0
v -0.9 0.3 0
v -0.8 0.3 0
v -0.8 0.2 0
v -0.9 0.4 0.1
v -0.9 0.3 0.1
v -0.8 0.3 0.1
v -0.8 0.4 0.1
v -0.9 0.3 0
v -0.9 0.4 0
v -0.8 0.4 0
v -0.8 0.3 0
v -0.9 0.5 0.1
v -0.9 0.4 0.1
v -0.8 0.4 0.1
v -0.8 0.5 0.1
v -0.9 0.4 0
v -0.9 0.5 0
v -0.8 0.5 0
v -0.8 0.4 0
v -0.9 0.6 0.1
v -0.9 0.5 0.1
v -0.8 0.5 0.1
v -0.8 0.6 0.1
v -0.9 0.5 0
v -0.9 0.6 0
v -0.8 0.6 0
v -0.8 0.5 0
v -0.9 0.7 0.1
v -0.9 0.6 0.1
v -0.8 0.6 0.1
v -0.8 0.7 0.1
v -0.9 0.6 0
v -0.9 0.7 0
v -0.8 0.7 0
v -0.8 0.6 0
v -0.9 0.8 0.1
v -0.9 0.7 0.1
v -0.8 0.7 0.1
v -0.8 0.8 0.1
v -0.9 0.7 0
v -0.9 0.8 0
v -0.8 0.8 0
v -0.8 0.7 0
v -0.9 0.9 0.1
v -0.9 0.8 0.1
v -0.8 0.8 0.1
v -0.8 0.9 0.1
v -0.9 0.8 0
v -0.9 0.9 0
v -0.8 0.9 0
v -0.8 0.8 0
v -0.9 1 0.1
v -0.9 0.9 0.1
v -0.8 0.9 0.1
v -0.8 1 0.1
v -0.9 0.9 0
v -0.9 1 0
v -0.8 1 0
v -0.8 0.9 0
v -0.9 1.1 0.1
v -0.9 1 0.1
v -0.8 1 0.1
v -0.8 1.1 0.1
v -0.9 1 0
v -0.9 1.1 0
v -0.8 1.1 0
v -0.8 1 0
v -0.9 1.2 0.1
v -0.9 1.1 0.1
v -0.8 1.1 0.1
v -0.8 1.2 0.1
v -0.9 1.1 0
v -0.9 1.2 0
v -0.8 1.2 0
v -0.8 1.1 0
v -0.8 1.2 0.1
v -0.8 1.2 0
v -0.9 1.2 0
v -0.9 1.2 0.1
v -0.8 0 0.1
v -0.8 -0.1 0.1
v -0.7 -0.1 0.1
v -0.7 0 0.1
v -0.8 -0.1 0
v -0.8 0 0
v -0.7 0 0
v -0.7 -0.1 0
v -0.8 -0.1 0.1
v -0.8 -0.1 0
v -0.7 -0.1 0
v -0.7 -0.1 0.1
v -0.8 0.1 0.1
v -0.8 0 0.1
v -0.7 0 0.1
v -0.7 0.1 0.1
v -0.8 0 0
v -0.8 0.1 0
v -0.7 0.1 0
v -0.7 0 0
v -0.8 0.2 0.1
v -0.8 0.1 0.1
v -0.7 0.1 0.1
v -0.7 0.2 0.1
v -0.8 0.1 0
v -0.8 0.2 0
v -0.7 0.2 0
v -0.7 0.1 0
v -0.8 0.3 0.1
v -0.8 0.2 0.1
v -0.7 0.2 0.1
v -0.7 0.3 0.1
v -0.8 0.2 0
v -0.8 0.3 0
v -0.7 0.3 0
v -0.7 0.2 0
v -0.8 0.4 0.1
v -0.8 0.3 0.1
v -0.7 0.3 0.1
v -0.7 0.4 0.1
v -0.8 0.3 0
v -0.8 0.4 0
v -0.7 0.4 0
v -0.7 0.3 0
v -0.8 0.5 0.1
v -0.8 0.4 0.1
v -0.7 0.4 0.1
v -0.7 0.5 0.1
v -0.8 0.4 0
v -0.8 0.5 0
v -0.7 0.5 0
v -0.7 0.4 0
v -0.8 0.6 0.1
v -0.8 0.5 0.1
v -0.7 0.5 0.1
v -0.7 0.6 0.1
v -0.8 0.5 0
v -0.8 0.6 0
v -0.7 0.6 0
v -0.7 0.5 0
v -0.8 0.7 0.1
v -0.8 0.6 0.1
v -0.7 0.6 0.1
v -0.7 0.7 0.1
v -0.8 0.6 0
v -0.8 0.7 0
v -0.7 0.7 0
v -0.7 0.6 0
v -0.8 0.8 0.1
v -0.8 0.7 0.1
v -0.7 0.7 0.1
v -0.7 0.8 0.1
v -0.8 0.7 0
v -0.8 0.8 0
v -0.7 0.8 0
v -0.7 0.7 0
v -0.8 0.9 0.1
v -0.8 0.8 0.1
v -0.7 0.8 0.1
v -0.7 0.9 0.1
v -0.8 0.8 0
v -0.8 0.9 0
v -0.7 0.9 0
v -0.7 0.8 0
v -0.8 1 0.1
v -0.8 0.9 0.1
v -0.7 0.9 0.1
v -0.7 1 0.1
v -0.8 0.9 0
v -0.8 1 0
v -0.7 1 0
v -0.7 0.9 0
v -0.8 1.1 0.1
v -0.8 1 0.1
v -0.7 1 0.1
v -0.7 1.1 0.1
v -0.8 1 0
v -0.8 1.1 0
v -0.7 1.1 0
v -0.7 1 0
v -0.8 1.2 0.1
v -0.8 1.1 0.1
v -0.7 1.1 0.1
v -0.7 1.2 0.1
v -0.8 1.1 0
v -0.8 1.2 0
v -0.7 1.2 0
v -0.7 1.1 0
v -0.7 1.2 0.1
v -0.7 1.2 0
v -0.8 1.2 0
v -0.8 1.2 0.1
v -0.7 0 0.1
v -0.7 -0.1 0.1
v -0.6 -0.1 0.1
v -0.6 0 0.1
v -0.7 -0.1 0
v -0.7 0 0
v -0.6 0 0
v -0.6 -0.1 0
v -0.7 -0.1 0.1
v -0.7 -0.1 0
v -0.6 -0.1 0
v -0.6 -0.1 0.1
v -0.7 0.1 0.1
v -0.7 0 0.1
v -0.6 0 0.1
v -0.6 0.1 0.1
v -0.7 0 0
v -0.7 0.1 0
v -0.6 0.1 0
v -0.6 0 0
v -0.7 0.2 0.1
v -0.7 0.1 0.1
v -0.6 0.1 0.1
v -0.6 0.2 0.1
v -0.7 0.1 0
v -0.7 0.2 0
v -0.6 0.2 0
v -0.6 0.1 0
v -0.7 0.3 0.1
v -0.7 0.2 0.1
v -0.6 0.2 0.1
v -0.6 0.3 0.1
v -0.7 0.2 0
v -0.7 0.3 0
v -0.6 0.3 0
v -0.6 0.2 0
v -0.7 0.4 0.1
v -0.7 0.3 0.1
v -0.6 0.3 0.1
v -0.6 0.4 0.1
v -0.7 0.3 0
v -0.7 0.4 0
v -0.6 0.4 0
v -0.6 0.3 0
v -0.7 0.5 0.1
v -0.7 0.4 0.1
v -0.6 0.4 0.1
v -0.6 0.5 0.1
v -0.7 0.4 0
v -0.7 0.5 0
v -0.6 0.5 0
v -0.6 0.4 0
v -0.7 0.6 0.1
v -0.7 0.5 0.1
v -0.6 0.5 0.1
v -0.6 0.6 0.1
v -0.7 0.5 0
v -0.7 0.6 0
v -0.6 0.6 0
v -0.6 0.5 0
v -0.7 0.7 0.1
v -0.7 0.6 0.1
v -0.6 0.6 0.1
v -0.6 0.7 0.1
v -0.7 0.6 0
v -0.7 0.7 0
v -0.6 0.7 0
v -0.6 0.6 0
v -0.7 0.8 0.1
v -0.7 0.7 0.1
v -0.6 0.7 0.1
v -0.6 0.8 0.1
v -0.7 0.7 0
v -0.7 0.8 0
v -0.6 0.8 0
v -0.6 0.7 0
v -0.7 0.9 0.1
v -0.7 0.8 0.1
v -0.6 0.8 0.1
v -0.6 0.9 0.1
v -0.7 0.8 0
v -0.7 0.9 0
v -0.6 0.9 0
v -0.6 0.8 0
v -0.7 1 0.1
v -0.7 0.9 0.1
v -0.6 0.9 0.1
v -0.6 1 0.1
v -0.7 0.9 0
v -0.7 1 0
v -0.6 1 0
v -0.6 0.9 0
v -0.7 1.1 0.1
v -0.7 1 0.1
v -0.6 1 0.1
v -0.6 1.1 0.1
v -0.7 1 0
v -0.7 1.1 0
v -0.6 1.1 0
v -0.6 1 0
v -0.7 1.2 0.1
v -0.7 1.1 0.1
v -0.6 1.1 0.1
v -0.6 1.2 0.1
v -0.7 1.1 0
v -0.7 1.2 0
v -0.6 1.2 0
v -0.6 1.1 0
v -0.6 1.2 0.1
v -0.6 1.2 0
v -0.7 1.2 0
v -0.7 1.2 0.1
v -0.6 0 0.1
v -0.6 -0.1 0.1
v -0.5 -0.1 0.1
v -0.5 0 0.1
v -0.6 -0.1 0
v -0.6 0 0
v -0.5 0 0
v -0.5 -0.1 0
v -0.6 -0.1 0.1
v -0.6 -0.1 0
v -0.5 -0.1 0
v -0.5 -0.1 0.1
v -0.6 0.1 0.1
v -0.6 0 0.1
v -0.5 0 0.1
v -0.5 0.1 0.1
v -0.6 0 0
v -0.6 0.1 0
v -0.5 0.1 0
v -0.5 0 0
v -0.6 0.2 0.1
v -0.6 0.1 0.1
v -0.5 0.1 0.1
v -0.5 0.2 0.1
v -0.6 0.1 0
v -0.6 0.2 0
v -0.5 0.2 0
v -0.5 0.1 0
v -0.6 0.3 0.1
v -0.6 0.2 0.1
v -0.5 0.2 0.1
v -0.5 0.3 0.1
v -0.6 0.2 0
v -0.6 0.3 0
v -0.5 0.3 0
v -0.5 0.2 0
v -0.6 0.4 0.1
v -0.6 0.3 0.1
v -0.5 0.3 0.1
v -0.5 0.4 0.1
v -0.6 0.3 0
v -0.6 0.4 0
v -0.5 0.4 0
v -0.5 0.3 0
v -0.6 0.5 0.1
v -0.6 0.4 0.1
v -0.5 0.4 0.1
v -0.5 0.5 0.1
v -0.6 0.4 0
v -0.6 0.5 0
v -0.5 0.5 0
v -0.5 0.4 0
v -0.6 0.6 0.1
v -0.6 0.5 0.1
v -0.5 0.5 0.1
v -0.5 0.6 0.1
v -0.6 0.5 0
v -0.6 0.6 0
v -0.5 0.6 0
v -0.5 0.5 0
v -0.6 0.7 0.1
v -0.6 0.6 0.1
v -0.5 0.6 0.1
v -0.5 0.7 0.1
v -0.6 0.6 0
v -0.6 0.7 0
v -0.5 0.7 0
v -0.5 0.6 0
v -0.6 0.8 0.1
v -0.6 0.7 0.1
v -0.5 0.7 0.1
v -0.5 0.8 0.1
v -0.6 0.7 0
v -0.6 0.8 0
v -0.5 0.8 0
v -0.5 0.7 0
v -0.6 0.9 0.1
v -0.6 0.8 0.1
v -0.5 0.8 0.1
v -0.5 0.9 0.1
v -0.6 0.8 0
v -0.6 0.9 0
v -0.5 0.9 0
v -0.5 0.8 0
v -0.6 1 0.1
v -0.6 0.9 0.1
v -0.5 0.9 0.1
v -0.5 1 0.1
v -0.6 0.9 0
v -0.6 1 0
v -0.5 1 0
v -0.5 0.9 0
v -0.6 1.1 0.1
v -0.6 1 0.1
v -0.5 1 0.1
v -0.5 1.1 0.1
v -0.6 1 0
v -0.6 1.1 0
v -0.5 1.1 0
v -0.5 1 0
v -0.6 1.2 0.1
v -0.6 1.1 0.1
v -0.5 1.1 0.1
v -0.5 1.2 0.1
v -0.6 1.1 0
v -0.6 1.2 0
v -0.5 1.2 0
v -0.5 1.1 0
v -0.5 1.2 0.1
v -0.5 1.2 0
v -0.6 1.2 0
v -0.6 1.2 0.1
v -0.5 -0.1 0.1
v -0.5 -0.1 0
v -0.5 -0.2 0
v -0.5 -0.2 0.1
v -0.5 -0.1 0.1
v -0.5 -0.2 0.1
v -0.4 -0.2 0.1
v -0.4 -0.1 0.1
v -0.5 -0.2 0
v -0.5 -0.1 0
v -0.4 -0.1 0
v -0.4 -0.2 0
v -0.5 -0.2 0.1
v -0.5 -0.2 0
v -0.4 -0.2 0
v -0.4 -0.2 0.1
v -0.5 0 0.1
v -0.5 -0.1 0.1
v -0.4 -0.1 0.1
v -0.4 0 0.1
v -0.5 -0.1 0
v -0.5 0 0
v -0.4 0 0
v -0.4 -0.1 0
v -0.5 0.1 0.1
v -0.5 0 0.1
v -0.4 0 0.1
v -0.4 0.1 0.1
v -0.5 0 0
v -0.5 0.1 0
v -0.4 0.1 0
v -0.4 0 0
v -0.5 0.2 0.1
v -0.5 0.1 0.1
v -0.4 0.1 0.1
v -0.4 0.2 0.1
v -0.5 0.1 0
v -0.5 0.2 0
v -0.4 0.2 0
v -0.4 0.1 0
v -0.5 0.3 0.1
v -0.5 0.2 0.1
v -0.4 0.2 0.1
v -0.4 0.3 0.1
v -0.5 0.2 0
v -0.5 0.3 0
v -0.4 0.3 0
v -0.4 0.2 0
v -0.5 0.4 0.1
v -0.5 0.3 0.1
v -0.4 0.3 0.1
v -0.4 0.4 0.1
v -0.5 0.3 0
v -0.5 0.4 0
v -0.4 0.4 0
v -0.4 0.3 0
v -0.5 0.5 0.1
v -0.5 0.4 0.1
v -0.4 0.4 0.1
v -0.4 0.5 0.1
v -0.5 0.4 0
v -0.5 0.5 0
v -0.4 0.5 0
v -0.4 0.4 0
v -0.5 0.6 0.1
v -0.5 0.5 0.1
v -0.4 0.5 0.1
v -0.4 0.6 0.1
v -0.5 0.5 0
v -0.5 0.6 0
v -0.4 0.6 0
v -0.4 0.5 0
v -0.5 0.7 0.1
v -0.5 0.6 0.1
v -0.4 0.6 0.1
v -0.4 0.7 0.1
v -0.5 0.6 0
v -0.5 0.7 0
v -0.4 0.7 0
v -0.4 0.6 0
v -0.5 0.8 0.1
v -0.5 0.7 0.1
v -0.4 0.7 0.1
v -0.4 0.8 0.1
v -0.5 0.7 0
v -0.5 0.8 0
v -0.4 0.8 0
v -0.4 0.7 0
v -0.5 0.9 0.1
v -0.5 0.8 0.1
v -0.4 0.8 0.1
v -0.4 0.9 0.1
v -0.5 0.8 0
v -0.5 0.9 0
v -0.4 0.9 0
v -0.4 0.8 0
v -0.5 1 0.1
v -0.5 0.9 0.1
v -0.4 0.9 0.1
v -0.4 1 0.1
v -0.5 0.9 0
v -0.5 1 0
v -0.4 1 0
v -0.4 0.9 0
v -0.5 1.1 0.1
v -0.5 1 0.1
v -0.4 1 0.1
v -0.4 1.1 0.1
v -0.5 1 0
v -0.5 1.1 0
v -0.4 1.1 0
v -0.4 1 0
v -0.5 1.2 0.1
v -0.5 1.1 0.1
v -0.4 1.1 0.1
v -0.4 1.2 0.1
v -0.5 1.1 0
v -0.5 1.2 0
v -0.4 1.2 0
v -0.4 1.1 0
v -0.4 1.2 0.1
v -0.4 1.2 0
v -0.5 1.2 0
v -0.5 1.2 0.1
v -0.4 -0.1 0.1
v -0.4 -0.2 0.1
v -0.3 -0.2 0.1
v -0.3 -0.1 0.1
v -0.4 -0.2 0
v -0.4 -0.1 0
v -0.3 -0.1 0
v -0.3 -0.2 0
v -0.4 -0.2 0.1
v -0.4 -0.2 0
v -0.3 -0.2 0
v -0.3 -0.2 0.1
v -0.4 0 0.1
v -0.4 -0.1 0.1
v -0.3 -0.1 0.1
v -0.3 0 0.1
v -0.4 -0.1 0
v -0.4 0 0
v -0.3 0 0
v -0.3 -0.1 0
v -0.4 0.1 0.1
v -0.4 0 0.1
v -0.3 0 0.1
v -0.3 0.1 0.1
v -0.4 0 0
v -0.4 0.1 0
v -0.3 0.1 0
v -0.3 0 0
v -0.4 0.2 0.1
v -0.4 0.1 0.1
v -0.3 0.1 0.1
v -0.3 0.2 0.1
v -0.4 0.1 0
v -0.4 0.2 0
v -0.3 0.2 0
v -0.3 0.1 0
v -0.4 0.3 0.1
v -0.4 0.2 0.1
v -0.3 0.2 0.1
v -0.3 0.3 0.1
v -0.4 0.2 0
v -0.4 0.3 0
v -0.3 0.3 0
v -0.3 0.2 0
v -0.4 0.4 0.1
v -0.4 0.3 0.1
v -0.3 0.3 0.1
v -0.3 0.4 0.1
v -0.4 0.3 0
v -0.4 0.4 0
v -0.3 0.4 0
v -0.3 0.3 0
v -0.4 0.5 0.1
v -0.4 0.4 0.1
v -0.3 0.4 0.1
v -0.3 0.5 0.1
v -0.4 0.4 0
v -0.4 0.5 0
v -0.3 0.5 0
v -0.3 0.4 0
v -0.4 0.6 0.1
v -0.4 0.5 0.1
v -0.3 0.5 0.1
v -0.3 0.6 0.1
v -0.4 0.5 0
v -0.4 0.6 0
v -0.3 0.6 0
v -0.3 0.5 0
v -0.4 0.7 0.1
v -0.4 0.6 0.1
v -0.3 0.6 0.1
v -0.3 0.7 0.1
v -0.4 0.6 0
v -0.4 0.7 0
v -0.3 0.7 0
v -0.3 0.6 0
v -0.4 0.8 0.1
v -0.4 0.7 0.1
v -0.3 0.7 0.1
v -0.3 0.8 0.1
v -0.4 0.7 0
v -0.4 0.8 0
v -0.3 0.8 0
v -0.3 0.7 0
v -0.4 0.9 0.1
v -0.4 0.8 0.1
v -0.3 0.8 0.1
v -0.3 0.9 0.1
v -0.4 0.8 0
v -0.4 0.9 0
v -0.3 0.9 0
v -0.3 0.8 0
v -0.4 1 0.1
v -0.4 0.9 0.1
v -0.3 0.9 0.1
v -0.3 1 0.1
v -0.4 0.9 0
v -0.4 1 0
v -0.3 1 0
v -0.3 0.9 0
v -0.4 1.1 0.1
v -0.4 1 0.1
v -0.3 1 0.1
v -0.3 1.1 0.1
v -0.4 1 0
v -0.4 1.1 0
v -0.3 1.1 0
v -0.3 1 0
v -0.4 1.2 0.1
v -0.4 1.1 0.1
v -0.3 1.1 0.1
v -0.3 1.2 0.1
v -0.4 1.1 0
v -0.4 1.2 0
v -0.3 1.2 0
v -0.3 1.1 0
v -0.3 1.2 0.1
v -0.3 1.2 0
v -0.4 1.2 0
v -0.4 1.2 0.1
v -0.3 -0.2 0.1
v -0.3 -0.2 0
v -0.3 -0.3 0
v -0.3 -0.3 0.1
v -0.3 -0.2 0.1
v -0.3 -0.3 0.1
v -0.2 -0.3 0.1
v -0.2 -0.2 0.1
v -0.3 -0.3 0
v -0.3 -0.2 0
v -0.2 -0.2 0
v -0.2 -0.3 0
v -0.3 -0.3 0.1
v -0.3 -0.3 0
v -0.2 -0.3 0
v -0.2 -0.3 0.1
v -0.3 -0.1 0.1
v -0.3 -0.2 0.1
v -0.2 -0.2 0.1
v -0.2 -0.1 0.1
v -0.3 -0.2 0
v -0.3 -0.1 0
v -0.2 -0.1 0
v -0.2 -0.2 0
v -0.3 0 0.1
v -0.3 -0.1 0.1
v -0.2 -0.1 0.1
v -0.2 0 0.1
v -0.3 -0.1 0
v -0.3 0 0
v -0.2 0 0
v -0.2 -0.1 0
v -0.3 0.1 0.1
v -0.3 0 0.1
v -0.2 0 0.1
v -0.2 0.1 0.1
v -0.3 0 0
v -0.3 0.1 0
v -0.2 0.1 0
v -0.2 0 0
v -0.3 0.2 0.1
v -0.3 0.1 0.1
v -0.2 0.1 0.1
v -0.2 0.2 0.1
v -0.3 0.1 0
v -0.3 0.2 0
v -0.2 0.2 0
v -0.2 0.1 0
v -0.3 0.3 0.1
v -0.3 0.2 0.1
v -0.2 0.2 0.1
v -0.2 0.3 0.1
v -0.3 0.2 0
v -0.3 0.3 0
v -0.2 0.3 0
v -0.2 0.2 0
v -0.3 0.4 0.1
v -0.3 0.3 0.1
v -0.2 0.3 0.1
v -0.2 0.4 0.1
v -0.3 0.3 0
v -0.3 0.4 0
v -0.2 0.4 0
v -0.2 0.3 0
v -0.3 0.5 0.1
v -0.3 0.4 0.1
v -0.2 0.4 0.1
v -0.2 0.5 0.1
v -0.3 0.4 0
v -0.3 0.5 0
v -0.2 0.5 0
v -0.2 0.4 0
v -0.3 0.6 0.1
v -0.3 0.5 0.1
v -0.2 0.5 0.1
v -0.2 0.6 0.1
v -0.3 0.5 0
v -0.3 0.6 0
v -0.2 0.6 0
v -0.2 0.5 0
v -0.3 0.7 0.1
v -0.3 0.6 0.1
v -0.2 0.6 0.1
v -0.2 0.7 0.1
v -0.3 0.6 0
v -0.3 0.7 0
v -0.2 0.7 0
v -0.2 0.6 0
v -0.3 0.8 0.1
v -0.3 0.7 0.1
v -0.2 0.7 0.1
v -0.2 0.8 0.1
v -0.3 0.7 0
v -0.3 0.8 0
v -0.2 0.8 0
v -0.2 0.7 0
v -0.3 0.9 0.1
v -0.3 0.8 0.1
v -0.2 0.8 0.1
v -0.2 0.9 0.1
v -0.3 0.8 0
v -0.3 0.9 0
v -0.2 0.9 0
v -0.2 0.8 0
v -0.3 1 0.1
v -0.3 0.9 0.1
v -0.2 0.9 0.1
v -0.2 1 0.1
v -0.3 0.9 0
v -0.3 1 0
v -0.2 1 0
v -0.2 0.9 0
v -0.3 1.1 0.1
v -0.3 1 0.1
v -0.2 1 0.1
v -0.2 1.1 0.1
v -0.3 1 0
v -0.3 1.1 0
v -0.2 1.1 0
v -0.2 1 0
v -0.3 1.2 0.1
v -0.3 1.1 0.1
v -0.2 1.1 0.1
v -0.2 1.2 0.1
v -0.3 1.1 0
v -0.3 1.2 0
v -0.2 1.2 0
v -0.2 1.1 0
v -0.2 1.2 0.1
v -0.2 1.2 0
v -0.3 1.2 0
v -0.3 1.2 0.1
v -0.2 -0.3 0.1
v -0.2 -0.3 0
v -0.2 -0.4 0
v -0.2 -0.4 0.1
v -0.2 -0.3 0.1
v -0.2 -0.4 0.1
v -0.1 -0.4 0.1
v -0.1 -0.3 0.1
v -0.2 -0.4 0
v -0.2 -0.3 0
v -0.1 -0.3 0
v -0.1 -0.4 0
v -0.2 -0.4 0.1
v -0.2 -0.4 0
v -0.1 -0.4 0
v -0.1 -0.4 0.1
v -0.2 -0.2 0.1
v -0.2 -0.3 0.1
v -0.1 -0.3 0.1
v -0.1 -0.2 0.1
v -0.2 -0.3 0
v -0.2 -0.2 0
v -0.1 -0.2 0
v -0.1 -0.3 0
v -0.2 -0.1 0.1
v -0.2 -0.2 0.1
v -0.1 -0.2 0.1
v -0.1 -0.1 0.1
v -0.2 -0.2 0
v -0.2 -0.1 0
v -0.1 -0.1 0
v -0.1 -0.2 0
v -0.2 0 0.1
v -0.2 -0.1 0.1
v -0.1 -0.1 0.1
v -0.1 0 0.1
v -0.2 -0.1 0
v -0.2 0 0
v -0.1 0 0
v -0.1 -0.1 0
v -0.2 0.1 0.1
v -0.2 0 0.1
v -0.1 0 0.1
v -0.1 0.1 0.1
v -0.2 0 0
v -0.2 0.1 0
v -0.1 0.1 0
v -0.1 0 0
v -0.2 0.2 0.1
v -0.2 0.1 0.1
v -0.1 0.1 0.1
v -0.1 0.2 0.1
v -0.2 0.1 0
v -0.2 0.2 0
v -0.1 0.2 0
v -0.1 0.1 0
v -0.2 0.3 0.1
v -0.2 0.2 0.1
v -0.1 0.2 0.1
v -0.1 0.3 0.1
v -0.2 0.2 0
v -0.2 0.3 0
v -0.1 0.3 0
v -0.1 0.2 0
v -0.2 0.4 0.1
v -0.2 0.3 0.1
v -0.1 0.3 0.1
v -0.1 0.4 0.1
v -0.2 0.3 0
v -0.2 0.4 0
v -0.1 0.4 0
v -0.1 0.3 0
v -0.2 0.5 0.1
v -0.2 0.4 0.1
v -0.1 0.4 0.1
v -0.1 0.5 0.1
v -0.2 0.4 0
v -0.2 0.5 0
v -0.1 0.5 0
v -0.1 0.4 0
v -0.2 0.6 0.1
v -0.2 0.5 0.1
v -0.1 0.5 0.1
v -0.1 0.6 0.1
v -0.2 0.5 0
v -0.2 0.6 0
v -0.1 0.6 0
v -0.1 0.5 0
v -0.2 0.7 0.1
v -0.2 0.6 0.1
v -0.1 0.6 0.1
v -0.1 0.7 0.1
v -0.2 0.6 0
v -0.2 0.7 0
v -0.1 0.7 0
v -0.1 0.6 0
v -0.2 0.8 0.1
v -0.2 0.7 0.1
v -0.1 0.7 0.1
v -0.1 0.8 0.1
v -0.2 0.7 0
v -0.2 0.8 0
v -0.1 0.8 0
v -0.1 0.7 0
v -0.2 0.9 0.1
v -0.2 0.8 0.1
v -0.1 0.8 0.1
v -0.1 0.9 0.1
v -0.2 0.8 0
v -0.2 0.9 0
v -0.1 0.9 0
v -0.1 0.8 0
v -0.2 1 0.1
v -0.2 0.9 0.1
v -0.1 0.9 0.1
v -0.1 1 0.1
v -0.2 0.9 0
v -0.2 1 0
v -0.1 1 0
v -0.1 0.9 0
v -0.2 1.1 0.1
v -0.2 1 0.1
v -0.1 1 0.1
v -0.1 1.1 0.1
v -0.2 1 0
v -0.2 1.1 0
v -0.1 1.1 0
v -0.1 1 0
v -0.2 1.2 0.1
v -0.2 1.1 0.1
v -0.1 1.1 0.1
v -0.1 1.2 0.1
v -0.2 1.1 0
v -0.2 1.2 0
v -0.1 1.2 0
v -0.1 1.1 0
v -0.1 1.2 0.1
v -0.1 1.2 0
v -0.2 1.2 0
v -0.2 1.2 0.1
v -0.1 -0.4 0.1
v -0.1 -0.4 0
v -0.1 -0.5 0
v -0.1 -0.5 0.1
v -0.1 -0.4 0.1
v -0.1 -0.5 0.1
v 0 -0.5 0.1
v 0 -0.4 0.1
v -0.1 -0.5 0
v -0.1 -0.4 0
v 0 -0.4 0
v 0 -0.5 0
v -0.1 -0.5 0.1
v -0.1 -0.5 0
v 0 -0.5 0
v 0 -0.5 0.1
v -0.1 -0.3 0.1
v -0.1 -0.4 0.1
v 0 -0.4 0.1
v 0 -0.3 0.1
v -0.1 -0.4 0
v -0.1 -0.3 0
v 0 -0.3 0
v 0 -0.4 0
v -0.1 -0.2 0.1
v -0.1 -0.3 0.1
v 0 -0.3 0.1
v 0 -0.2 0.1
v -0.1 -0.3 0
v -0.1 -0.2 0
v 0 -0.2 0
v 0 -0.3 0
v -0.1 -0.1 0.1
v -0.1 -0.2 0.1
v 0 -0.2 0.1
v 0 -0.1 0.1
v -0.1 -0.2 0
v -0.1 -0.1 0
v 0 -0.1 0
v 0 -0.2 0
v -0.1 0 0.1
v -0.1 -0.1 0.1
v 0 -0.1 0.1
v 0 0 0.1
v -0.1 -0.1 0
v -0.1 0 0
v 0 0 0
v 0 -0.1 0
v -0.1 0.1 0.1
v -0.1 0 0.1
v 0 0 0.1
v 0 0.1 0.1
v -0.1 0 0
v -0.1 0.1 0
v 0 0.1 0
v 0 0 0
v -0.1 0.2 0.1
v -0.1 0.1 0.1
v 0 0.1 0.1
v 0 0.2 0.1
v -0.1 0.1 0
v -0.1 0.2 0
v 0 0.2 0
v 0 0.1 0
v -0.1 0.3 0.1
v -0.1 0.2 0.1
v 0 0.2 0.1
v 0 0.3 0.1
v -0.1 0.2 0
v -0.1 0.3 0
v 0 0.3 0
v 0 0.2 0
v -0.1 0.4 0.1
v -0.1 0.3 0.1
v 0 0.3 0.1
v 0 0.4 0.1
v -0.1 0.3 0
v -0.1 0.4 0
v 0 0.4 0
v 0 0.3 0
v -0.1 0.5 0.1
v -0.1 0.4 0.1
v 0 0.4 0.1
v 0 0.5 0.1
v -0.1 0.4 0
v -0.1 0.5 0
v 0 0.5 0
v 0 0.4 0
v -0.1 0.6 0.1
v -0.1 0.5 0.1
v 0 0.5 0.1
v 0 0.6 0.1
v -0.1 0.5 0
v -0.1 0.6 0
v 0 0.6 0
v 0 0.5 0
v -0.1 0.7 0.1
v -0.1 0.6 0.1
v 0 0.6 0.1
v 0 0.7 0.1
v -0.1 0.6 0
v -0.1 0.7 0
v 0 0.7 0
v 0 0.6 0
v -0.1 0.8 0.1
v -0.1 0.7 0.1
v 0 0.7 0.1
v 0 0.8 0.1
v -0.1 0.7 0
v -0.1 0.8 0
v 0 0.8 0
v 0 0.7 0
v -0.1 0.9 0.1
v -0.1 0.8 0.1
v 0 0.8 0.1
v 0 0.9 0.1
v -0.1 0.8 0
v -0.1 0.9 0
v 0 0.9 0
v 0 0.8 0
v -0.1 1 0.1
v -0.1 0.9 0.1
v 0 0.9 0.1
v 0 1 0.1
v -0.1 0.9 0
v -0.1 1 0
v 0 1 0
v 0 0.9 0
v -0.1 1.1 0.1
v -0.1 1 0.1
v 0 1 0.1
v 0 1.1 0.1
v -0.1 1 0
v -0.1 1.1 0
v 0 1.1 0
v 0 1 0
v -0.1 1.2 0.1
v -0.1 1.1 0.1
v 0 1.1 0.1
v 0 1.2 0.1
v -0.1 1.1 0
v -0.1 1.2 0
v 0 1.2 0
v 0 1.1 0
v 0 1.2 0.1
v 0 1.2 0
v -0.1 1.2 0
v -0.1 1.2 0.1
v 0 -1.1 0.1
v 0 -1.1 0
v 0 -1.2 0
v 0 -1.2 0.1
v 0 -1.1 0.1
v 0 -1.2 0.1
v 0.1 -1.2 0.1
v 0.1 -1.1 0.1
v 0 -1.2 0
v 0 -1.1 0
v 0.1 -1.1 0
v 0.1 -1.2 0
v 0 -1.2 0.1
v 0 -1.2 0
v 0.1 -1.2 0
v 0.1 -1.2 0.1
v 0 -1 0.1
v 0 -1 0
v 0 -1.1 0
v 0 -1.1 0.1
v 0 -1 0.1
v 0 -1.1 0.1
v 0.1 -1.1 0.1
v 0.1 -1 0.1
v 0 -1.1 0
v 0 -1 0
v 0.1 -1 0
v 0.1 -1.1 0
v 0 -0.9 0.1
v 0 -0.9 0
v 0 -1 0
v 0 -1 0.1
v 0 -0.9 0.1
v 0 -1 0.1
v 0.1 -1 0.1
v 0.1 -0.9 0.1
v 0 -1 0
v 0 -0.9 0
v 0.1 -0.9 0
v 0.1 -1 0
v 0 -0.8 0.1
v 0 -0.8 0
v 0 -0.9 0
v 0 -0.9 0.1
v 0 -0.8 0.1
v 0 -0.9 0.1
v 0.1 -0.9 0.1
v 0.1 -0.8 0.1
v 0 -0.9 0
v 0 -0.8 0
v 0.1 -0.8 0
v 0.1 -0.9 0
v 0 -0.7 0.1
v 0 -0.7 0
v 0 -0.8 0
v 0 -0.8 0.1
v 0 -0.7 0.1
v 0 -0.8 0.1
v 0.1 -0.8 0.1
v 0.1 -0.7 0.1
v 0 -0.8 0
v 0 -0.7 0
v 0.1 -0.7 0
v 0.1 -0.8 0
v 0 -0.6 0.1
v 0 -0.6 0
v 0 -0.7 0
v 0 -0.7 0.1
v 0 -0.6 0.1
v 0 -0.7 0.1
v 0.1 -0.7 0.1
v 0.1 -0.6 0.1
v 0 -0.7 0
v 0 -0.6 0
v 0.1 -0.6 0
v 0.1 -0.7 0
v 0 -0.5 0.1
v 0 -0.5 0
v 0 -0.6 0
v 0 -0.6 0.1
v 0 -0.5 0.1
v 0 -0.6 0.1
v 0.1 -0.6 0.1
v 0.1 -0.5 0.1
v 0 -0.6 0
v 0 -0.5 0
v 0.1 -0.5 0
v 0.1 -0.6 0
v 0 -0.4 0.1
v 0 -0.5 0.1
v 0.1 -0.5 0.1
v 0.1 -0.4 0.1
v 0 -0.5 0
v 0 -0.4 0
v 0.1 -0.4 0
v 0.1 -0.5 0
v 0 -0.3 0.1
v 0 -0.4 0.1
v 0.1 -0.4 0.1
v 0.1 -0.3 0.1
v 0 -0.4 0
v 0 -0.3 0
v 0.1 -0.3 0
v 0.1 -0.4 0
v 0 -0.2 0.1
v 0 -0.3 0.1
v 0.1 -0.3 0.1
v 0.1 -0.2 0.1
v 0 -0.3 0
v 0 -0.2 0
v 0.1 -0.2 0
v 0.1 -0.3 0
v 0 -0.1 0.1
v 0 -0.2 0.1
v 0.1 -0.2 0.1
v 0.1 -0.1 0.1
v 0 -0.2 0
v 0 -0.1 0
v 0.1 -0.1 0
v 0.1 -0.2 0
v 0 0 0.1
v 0 -0.1 0.1
v 0.1 -0.1 0.1
v 0.1 0 0.1
v 0 -0.1 0
v 0 0 0
v 0.1 0 0
v 0.1 -0.1 0
v 0 0.1 0.1
v 0 0 0.1
v 0.1 0 0.1
v 0.1 0.1 0.1
v 0 0 0
v 0 0.1 0
v 0.1 0.1 0
v 0.1 0 0
v 0 0.2 0.1
v 0 0.1 0.1
v 0.1 0.1 0.1
v 0.1 0.2 0.1
v 0 0.1 0
v 0 0.2 0
v 0.1 0.2 0
v 0.1 0.1 0
v 0 0.3 0.1
v 0 0.2 0.1
v 0.1 0.2 0.1
v 0.1 0.3 0.1
v 0 0.2 0
v 0 0.3 0
v 0.1 0.3 0
v 0.1 0.2 0
v 0 0.4 0.1
v 0 0.3 0.1
v 0.1 0.3 0.1
v 0.1 0.4 0.1
v 0 0.3 0
v 0 0.4 0
v 0.1 0.4 0
v 0.1 0.3 0
v 0 0.5 0.1
v 0 0.4 0.1
v 0.1 0.4 0.1
v 0.1 0.5 0.1
v 0 0.4 0
v 0 0.5 0
v 0.1 0.5 0
v 0.1 0.4 0
v 0 0.6 0.1
v 0 0.5 0.1
v 0.1 0.5 0.1
v 0.1 0.6 0.1
v 0 0.5 0
v 0 0.6 0
v 0.1 0.6 0
v 0.1 0.5 0
v 0 0.7 0.1
v 0 0.6 0.1
v 0.1 0.6 0.1
v 0.1 0.7 0.1
v 0 0.6 0
v 0 0.7 0
v 0.1 0.7 0
v 0.1 0.6 0
v 0 0.8 0.1
v 0 0.7 0.1
v 0.1 0.7 0.1
v 0.1 0.8 0.1
v 0 0.7 0
v 0 0.8 0
v 0.1 0.8 0
v 0.1 0.7 0
v 0 0.9 0.1
v 0 0.8 0.1
v 0.1 0.8 0.1
v 0.1 0.9 0.1
v 0 0.8 0
v 0 0.9 0
v 0.1 0.9 0
v 0.1 0.8 0
v 0 1 0.1
v 0 0.9 0.1
v 0.1 0.9 0.1
v 0.1 1 0.1
v 0 0.9 0
v 0 1 0
v 0.1 1 0
v 0.1 0.9 0
v 0 1.1 0.1
v 0 1 0.1
v 0.1 1 0.1
v 0.1 1.1 0.1
v 0 1 0
v 0 1.1 0
v 0.1 1.1 0
v 0.1 1 0
v 0 1.2 0.1
v 0 1.1 0.1
v 0.1 1.1 0.1
v 0.1 1.2 0.1
v 0 1.1 0
v 0 1.2 0
v 0.1 1.2 0
v 0.1 1.1 0
v 0.1 1.2 0.1
v 0.1 1.2 0
v 0 1.2 0
v 0 1.2 0.1
v 0.1 -1.1 0.1
v 0.1 -1.2 0.1
v 0.2 -1.2 0.1
v 0.2 -1.1 0.1
v 0.1 -1.2 0
v 0.1 -1.1 0
v 0.2 -1.1 0
v 0.2 -1.2 0
v 0.1 -1.2 0.1
v 0.1 -1.2 0
v 0.2 -1.2 0
v 0.2 -1.2 0.1
v 0.1 -1 0.1
v 0.1 -1.1 0.1
v 0.2 -1.1 0.1
v 0.2 -1 0.1
v 0.1 -1.1 0
v 0.1 -1 0
v 0.2 -1 0
v 0.2 -1.1 0
v 0.1 -0.9 0.1
v 0.1 -1 0.1
v 0.2 -1 0.1
v 0.2 -0.9 0.1
v 0.1 -1 0
v 0.1 -0.9 0
v 0.2 -0.9 0
v 0.2 -1 0
v 0.1 -0.8 0.1
v 0.1 -0.9 0.1
v 0.2 -0.9 0.1
v 0.2 -0.8 0.1
v 0.1 -0.9 0
v 0.1 -0.8 0
v 0.2 -0.8 0
v 0.2 -0.9 0
v 0.1 -0.7 0.1
v 0.1 -0.8 0.1
v 0.2 -0.8 0.1
v 0.2 -0.7 0.1
v 0.1 -0.8 0
v 0.1 -0.7 0
v 0.2 -0.7 0
v 0.2 -0.8 0
v 0.1 -0.6 0.1
v 0.1 -0.7 0.1
v 0.2 -0.7 0.1
v 0.2 -0.6 0.1
v 0.1 -0.7 0
v 0.1 -0.6 0
v 0.2 -0.6 0
v 0.2 -0.7 0
v 0.1 -0.5 0.1
v 0.1 -0.6 0.1
v 0.2 -0.6 0.1
v 0.2 -0.5 0.1
v 0.1 -0.6 0
v 0.1 -0.5 0
v 0.2 -0.5 0
v 0.2 -0.6 0
v 0.1 -0.4 0.1
v 0.1 -0.5 0.1
v 0.2 -0.5 0.1
v 0.2 -0.4 0.1
v 0.1 -0.5 0
v 0.1 -0.4 0
v 0.2 -0.4 0
v 0.2 -0.5 0
v 0.1 -0.3 0.1
v 0.1 -0.4 0.1
v 0.2 -0.4 0.1
v 0.2 -0.3 0.1
v 0.1 -0.4 0
v 0.1 -0.3 0
v 0.2 -0.3 0
v 0.2 -0.4 0
v 0.1 -0.2 0.1
v 0.1 -0.3 0.1
v 0.2 -0.3 0.1
v 0.2 -0.2 0.1
v 0.1 -0.3 0
v 0.1 -0.2 0
v 0.2 -0.2 0
v 0.2 -0.3 0
v 0.1 -0.1 0.1
v 0.1 -0.2 0.1
v 0.2 -0.2 0.1
v 0.2 -0.1 0.1
v 0.1 -0.2 0
v 0.1 -0.1 0
v 0.2 -0.1 0
v 0.2 -0.2 0
v 0.1 0 0.1
v 0.1 -0.1 0.1
v 0.2 -0.1 0.1
v 0.2 0 0.1
v 0.1 -0.1 0
v 0.1 0 0
v 0.2 0 0
v 0.2 -0.1 0
v 0.1 0.1 0.1
v 0.1 0 0.1
v 0.2 0 0.1
v 0.2 0.1 0.1
v 0.1 0 0
v 0.1 0.1 0
v 0.2 0.1 0
v 0.2 0 0
v 0.1 0.2 0.1
v 0.1 0.1 0.1
v 0.2 0.1 0.1
v 0.2 0.2 0.1
v 0.1 0.1 0
v 0.1 0.2 0
v 0.2 0.2 0
v 0.2 0.1 0
v 0.1 0.3 0.1
v 0.1 0.2 0.1
v 0.2 0.2 0.1
v 0.2 0.3 0.1
v 0.1 0.2 0
v 0.1 0.3 0
v 0.2 0.3 0
v 0.2 0.2 0
v 0.1 0.4 0.1
v 0.1 0.3 0.1
v 0.2 0.3 0.1
v 0.2 0.4 0.1
v 0.1 0.3 0
v 0.1 0.4 0
v 0.2 0.4 0
v 0.2 0.3 0
v 0.1 0.5 0.1
v 0.1 0.4 0.1
v 0.2 0.4 0.1
v 0.2 0.5 0.1
v 0.1 0.4 0
v 0.1 0.5 0
v 0.2 0.5 0
v 0.2 0.4 0
v 0.1 0.6 0.1
v 0.1 0.5 0.1
v 0.2 0.5 0.1
v 0.2 0.6 0.1
v 0.1 0.5 0
v 0.1 0.6 0
v 0.2 0.6 0
v 0.2 0.5 0
v 0.1 0.7 0.1
v 0.1 0.6 0.1
v 0.2 0.6 0.1
v 0.2 0.7 0.1
v 0.1 0.6 0
v 0.1 0.7 0
v 0.2 0.7 0
v 0.2 0.6 0
v 0.1 0.8 0.1
v 0.1 0.7 0.1
v 0.2 0.7 0.1
v 0.2 0.8 0.1
v 0.1 0.7 0
v 0.1 0.8 0
v 0.2 0.8 0
v 0.2 0.7 0
v 0.1 0.9 0.1
v 0.1 0.8 0.1
v 0.2 0.8 0.1
v 0.2 0.9 0.1
v 0.1 0.8 0
v 0.1 0.9 0
v 0.2 0.9 0
v 0.2 0.8 0
v 0.1 1 0.1
v 0.1 0.9 0.1
v 0.2 0.9 0.1
v 0.2 1 0.1
v 0.1 0.9 0
v 0.1 1 0
v 0.2 1 0
v 0.2 0.9 0
v 0.1 1.1 0.1
v 0.1 1 0.1
v 0.2 1 0.1
v 0.2 1.1 0.1
v 0.1 1 0
v 0.1 1.1 0
v 0.2 1.1 0
v 0.2 1 0
v 0.1 1.2 0.1
v 0.1 1.1 0.1
v 0.2 1.1 0.1
v 0.2 1.2 0.1
v 0.1 1.1 0
v 0.1 1.2 0
v 0.2 1.2 0
v 0.2 1.1 0
v 0.2 1.2 0.1
v 0.2 1.2 0
v 0.1 1.2 0
v 0.1 1.2 0.1
v 0.2 -1.1 0.1
v 0.2 -1.2 0.1
v 0.3 -1.2 0.1
v 0.3 -1.1 0.1
v 0.2 -1.2 0
v 0.2 -1.1 0
v 0.3 -1.1 0
v 0.3 -1.2 0
v 0.2 -1.2 0.1
v 0.2 -1.2 0
v 0.3 -1.2 0
v 0.3 -1.2 0.1
v 0.2 -1 0.1
v 0.2 -1.1 0.1
v 0.3 -1.1 0.1
v 0.3 -1 0.1
v 0.2 -1.1 0
v 0.2 -1 0
v 0.3 -1 0
v 0.3 -1.1 0
v 0.2 -0.9 0.1
v 0.2 -1 0.1
v 0.3 -1 0.1
v 0.3 -0.9 0.1
v 0.2 -1 0
v 0.2 -0.9 0
v 0.3 -0.9 0
v 0.3 -1 0
v 0.2 -0.8 0.1
v 0.2 -0.9 0.1
v 0.3 -0.9 0.1
v 0.3 -0.8 0.1
v 0.2 -0.9 0
v 0.2 -0.8 0
v 0.3 -0.8 0
v 0.3 -0.9 0
v 0.2 -0.7 0.1
v 0.2 -0.8 0.1
v 0.3 -0.8 0.1
v 0.3 -0.7 0.1
v 0.2 -0.8 0
v 0.2 -0.7 0
v 0.3 -0.7 0
v 0.3 -0.8 0
v 0.2 -0.6 0.1
v 0.2 -0.7 0.1
v 0.3 -0.7 0.1
v 0.3 -0.6 0.1
v 0.2 -0.7 0
v 0.2 -0.6 0
v 0.3 -0.6 0
v 0.3 -0.7 0
v 0.2 -0.5 0.1
v 0.2 -0.6 0.1
v 0.3 -0.6 0.1
v 0.3 -0.5 0.1
v 0.2 -0.6 0
v 0.2 -0.5 0
v 0.3 -0.5 0
v 0.3 -0.6 0
v 0.2 -0.4 0.1
v 0.2 -0.5 0.1
v 0.3 -0.5 0.1
v 0.3 -0.4 0.1
v 0.2 -0.5 0
v 0.2 -0.4 0
v 0.3 -0.4 0
v 0.3 -0.5 0
v 0.2 -0.3 0.1
v 0.2 -0.4 0.1
v 0.3 -0.4 0.1
v 0.3 -0.3 0.1
v 0.2 -0.4 0
v 0.2 -0.3 0
v 0.3 -0.3 0
v 0.3 -0.4 0
v 0.2 -0.2 0.1
v 0.2 -0.3 0.1
v 0.3 -0.3 0.1
v 0.3 -0.2 0.1
v 0.2 -0.3 0
v 0.2 -0.2 0
v 0.3 -0.2 0
v 0.3 -0.3 0
v 0.2 -0.1 0.1
v 0.2 -0.2 0.1
v 0.3 -0.2 0.1
v 0.3 -0.1 0.1
v 0.2 -0.2 0
v 0.2 -0.1 0
v 0.3 -0.1 0
v 0.3 -0.2 0
v 0.2 0 0.1
v 0.2 -0.1 0.1
v 0.3 -0.1 0.1
v 0.3 0 0.1
v 0.2 -0.1 0
v 0.2 0 0
v 0.3 0 0
v 0.3 -0.1 0
v 0.2 0.1 0.1
v 0.2 0 0.1
v 0.3 0 0.1
v 0.3 0.1 0.1
v 0.2 0 0
v 0.2 0.1 0
v 0.3 0.1 0
v 0.3 0 0
v 0.2 0.2 0.1
v 0.2 0.1 0.1
v 0.3 0.1 0.1
v 0.3 0.2 0.1
v 0.2 0.1 0
v 0.2 0.2 0
v 0.3 0.2 0
v 0.3 0.1 0
v 0.2 0.3 0.1
v 0.2 0.2 0.1
v 0.3 0.2 0.1
v 0.3 0.3 0.1
v 0.2 0.2 0
v 0.2 0.3 0
v 0.3 0.3 0
v 0.3 0.2 0
v 0.2 0.4 0.1
v 0.2 0.3 0.1
v 0.3 0.3 0.1
v 0.3 0.4 0.1
v 0.2 0.3 0
v 0.2 0.4 0
v 0.3 0.4 0
v 0.3 0.3 0
v 0.2 0.5 0.1
v 0.2 0.4 0.1
v 0.3 0.4 0.1
v 0.3 0.5 0.1
v 0.2 0.4 0
v 0.2 0.5 0
v 0.3 0.5 0
v 0.3 0.4 0
v 0.2 0.6 0.1
v 0.2 0.5 0.1
v 0.3 0.5 0.1
v 0.3 0.6 0.1
v 0.2 0.5 0
v 0.2 0.6 0
v 0.3 0.6 0
v 0.3 0.5 0
v 0.2 0.7 0.1
v 0.2 0.6 0.1
v 0.3 0.6 0.1
v 0.3 0.7 0.1
v 0.2 0.6 0
v 0.2 0.7 0
v 0.3 0.7 0
v 0.3 0.6 0
v 0.2 0.8 0.1
v 0.2 0.7 0.1
v 0.3 0.7 0.1
v 0.3 0.8 0.1
v 0.2 0.7 0
v 0.2 0.8 0
v 0.3 0.8 0
v 0.3 0.7 0
v 0.2 0.9 0.1
v 0.2 0.8 0.1
v 0.3 0.8 0.1
v 0.3 0.9 0.1
v 0.2 0.8 0
v 0.2 0.9 0
v 0.3 0.9 0
v 0.3 0.8 0
v 0.2 1 0.1
v 0.2 0.9 0.1
v 0.3 0.9 0.1
v 0.3 1 0.1
v 0.2 0.9 0
v 0.2 1 0
v 0.3 1 0
v 0.3 0.9 0
v 0.2 1.1 0.1
v 0.2 1 0.1
v 0.3 1 0.1
v 0.3 1.1 0.1
v 0.2 1 0
v 0.2 1.1 0
v 0.3 1.1 0
v 0.3 1 0
v 0.2 1.2 0.1
v 0.2 1.1 0.1
v 0.3 1.1 0.1
v 0.3 1.2 0.1
v 0.2 1.1 0
v 0.2 1.2 0
v 0.3 1.2 0
v 0.3 1.1 0
v 0.3 1.2 0.1
v 0.3 1.2 0
v 0.2 1.2 0
v 0.2 1.2 0.1
v 0.3 -1.1 0.1
v 0.3 -1.2 0.1
v 0.4 -1.2 0.1
v 0.4 -1.1 0.1
v 0.3 -1.2 0
v 0.3 -1.1 0
v 0.4 -1.1 0
v 0.4 -1.2 0
v 0.3 -1.2 0.1
v 0.3 -1.2 0
v 0.4 -1.2 0
v 0.4 -1.2 0.1
v 0.3 -1 0.1
v 0.3 -1.1 0.1
v 0.4 -1.1 0.1
v 0.4 -1 0.1
v 0.3 -1.1 0
v 0.3 -1 0
v 0.4 -1 0
v 0.4 -1.1 0
v 0.3 -0.9 0.1
v 0.3 -1 0.1
v 0.4 -1 0.1
v 0.4 -0.9 0.1
v 0.3 -1 0
v 0.3 -0.9 0
v 0.4 -0.9 0
v 0.4 -1 0
v 0.3 -0.8 0.1
v 0.3 -0.9 0.1
v 0.4 -0.9 0.1
v 0.4 -0.8 0.1
v 0.3 -0.9 0
v 0.3 -0.8 0
v 0.4 -0.8 0
v 0.4 -0.9 0
v 0.3 -0.7 0.1
v 0.3 -0.8 0.1
v 0.4 -0.8 0.1
v 0.4 -0.7 0.1
v 0.3 -0.8 0
v 0.3 -0.7 0
v 0.4 -0.7 0
v 0.4 -0.8 0
v 0.3 -0.6 0.1
v 0.3 -0.7 0.1
v 0.4 -0.7 0.1
v 0.4 -0.6 0.1
v 0.3 -0.7 0
v 0.3 -0.6 0
v 0.4 -0.6 0
v 0.4 -0.7 0
v 0.3 -0.5 0.1
v 0.3 -0.6 0.1
v 0.4 -0.6 0.1
v 0.4 -0.5 0.1
v 0.3 -0.6 0
v 0.3 -0.5 0
v 0.4 -0.5 0
v 0.4 -0.6 0
v 0.3 -0.4 0.1
v 0.3 -0.5 0.1
v 0.4 -0.5 0.1
v 0.4 -0.4 0.1
v 0.3 -0.5 0
v 0.3 -0.4 0
v 0.4 -0.4 0
v 0.4 -0.5 0
v 0.3 -0.3 0.1
v 0.3 -0.4 0.1
v 0.4 -0.4 0.1
v 0.4 -0.3 0.1
v 0.3 -0.4 0
v 0.3 -0.3 0
v 0.4 -0.3 0
v 0.4 -0.4 0
v 0.3 -0.2 0.1
v 0.3 -0.3 0.1
v 0.4 -0.3 0.1
v 0.4 -0.2 0.1
v 0.3 -0.3 0
v 0.3 -0.2 0
v 0.4 -0.2 0
v 0.4 -0.3 0
v 0.3 -0.1 0.1
v 0.3 -0.2 0.1
v 0.4 -0.2 0.1
v 0.4 -0.1 0.1
v 0.3 -0.2 0
v 0.3 -0.1 0
v 0.4 -0.1 0
v 0.4 -0.2 0
v 0.3 0 0.1
v 0.3 -0.1 0.1
v 0.4 -0.1 0.1
v 0.4 0 0.1
v 0.3 -0.1 0
v 0.3 0 0
v 0.4 0 0
v 0.4 -0.1 0
v 0.3 0.1 0.1
v 0.3 0 0.1
v 0.4 0 0.1
v 0.4 0.1 0.1
v 0.3 0 0
v 0.3 0.1 0
v 0.4 0.1 0
v 0.4 0 0
v 0.3 0.2 0.1
v 0.3 0.1 0.1
v 0.4 0.1 0.1
v 0.4 0.2 0.1
v 0.3 0.1 0
v 0.3 0.2 0
v 0.4 0.2 0
v 0.4 0.1 0
v 0.3 0.3 0.1
v 0.3 0.2 0.1
v 0.4 0.2 0.1
v 0.4 0.3 0.1
v 0.3 0.2 0
v 0.3 0.3 0
v 0.4 0.3 0
v 0.4 0.2 0
v 0.3 0.4 0.1
v 0.3 0.3 0.1
v 0.4 0.3 0.1
v 0.4 0.4 0.1
v 0.3 0.3 0
v 0.3 0.4 0
v 0.4 0.4 0
v 0.4 0.3 0
v 0.3 0.5 0.1
v 0.3 0.4 0.1
v 0.4 0.4 0.1
v 0.4 0.5 0.1
v 0.3 0.4 0
v 0.3 0.5 0
v 0.4 0.5 0
v 0.4 0.4 0
v 0.3 0.6 0.1
v 0.3 0.5 0.1
v 0.4 0.5 0.1
v 0.4 0.6 0.1
v 0.3 0.5 0
v 0.3 0.6 0
v 0.4 0.6 0
v 0.4 0.5 0
v 0.3 0.7 0.1
v 0.3 0.6 0.1
v 0.4 0.6 0.1
v 0.4 0.7 0.1
v 0.3 0.6 0
v 0.3 0.7 0
v 0.4 0.7 0
v 0.4 0.6 0
v 0.3 0.8 0.1
v 0.3 0.7 0.1
v 0.4 0.7 0.1
v 0.4 0.8 0.1
v 0.3 0.7 0
v 0.3 0.8 0
v 0.4 0.8 0
v 0.4 0.7 0
v 0.3 0.9 0.1
v 0.3 0.8 0.1
v 0.4 0.8 0.1
v 0.4 0.9 0.1
v 0.3 0.8 0
v 0.3 0.9 0
v 0.4 0.9 0
v 0.4 0.8 0
v 0.3 1 0.1
v 0.3 0.9 0.1
v 0.4 0.9 0.1
v 0.4 1 0.1
v 0.3 0.9 0
v 0.3 1 0
v 0.4 1 0
v 0.4 0.9 0
v 0.3 1.1 0.1
v 0.3 1 0.1
v 0.4 1 0.1
v 0.4 1.1 0.1
v 0.3 1 0
v 0.3 1.1 0
v 0.4 1.1 0
v 0.4 1 0
v 0.3 1.2 0.1
v 0.3 1.1 0.1
v 0.4 1.1 0.1
v 0.4 1.2 0.1
v 0.3 1.1 0
v 0.3 1.2 0
v 0.4 1.2 0
v 0.4 1.1 0
v 0.4 1.2 0.1
v 0.4 1.2 0
v 0.3 1.2 0
v 0.3 1.2 0.1
v 0.4 -1.1 0.1
v 0.4 -1.2 0.1
v 0.5 -1.2 0.1
v 0.5 -1.1 0.1
v 0.4 -1.2 0
v 0.4 -1.1 0
v 0.5 -1.1 0
v 0.5 -1.2 0
v 0.4 -1.2 0.1
v 0.4 -1.2 0
v 0.5 -1.2 0
v 0.5 -1.2 0.1
v 0.4 -1 0.1
v 0.4 -1.1 0.1
v 0.5 -1.1 0.1
v 0.5 -1 0.1
v 0.4 -1.1 0
v 0.4 -1 0
v 0.5 -1 0
v 0.5 -1.1 0
v 0.4 -0.9 0.1
v 0.4 -1 0.1
v 0.5 -1 0.1
v 0.5 -0.9 0.1
v 0.4 -1 0
v 0.4 -0.9 0
v 0.5 -0.9 0
v 0.5 -1 0
v 0.4 -0.8 0.1
v 0.4 -0.9 0.1
v 0.5 -0.9 0.1
v 0.5 -0.8 0.1
v 0.4 -0.9 0
v 0.4 -0.8 0
v 0.5 -0.8 0
v 0.5 -0.9 0
v 0.4 -0.7 0.1
v 0.4 -0.8 0.1
v 0.5 -0.8 0.1
v 0.5 -0.7 0.1
v 0.4 -0.8 0
v 0.4 -0.7 0
v 0.5 -0.7 0
v 0.5 -0.8 0
v 0.4 -0.6 0.1
v 0.4 -0.7 0.1
v 0.5 -0.7 0.1
v 0.5 -0.6 0.1
v 0.4 -0.7 0
v 0.4 -0.6 0
v 0.5 -0.6 0
v 0.5 -0.7 0
v 0.4 -0.5 0.1
v 0.4 -0.6 0.1
v 0.5 -0.6 0.1
v 0.5 -0.5 0.1
v 0.4 -0.6 0
v 0.4 -0.5 0
v 0.5 -0.5 0
v 0.5 -0.6 0
v 0.4 -0.4 0.1
v 0.4 -0.5 0.1
v 0.5 -0.5 0.1
v 0.5 -0.4 0.1
v 0.4 -0.5 0
v 0.4 -0.4 0
v 0.5 -0.4 0
v 0.5 -0.5 0
v 0.4 -0.3 0.1
v 0.4 -0.4 0.1
v 0.5 -0.4 0.1
v 0.5 -0.3 0.1
v 0.4 -0.4 0
v 0.4 -0.3 0
v 0.5 -0.3 0
v 0.5 -0.4 0
v 0.4 -0.2 0.1
v 0.4 -0.3 0.1
v 0.5 -0.3 0.1
v 0.5 -0.2 0.1
v 0.4 -0.3 0
v 0.4 -0.2 0
v 0.5 -0.2 0
v 0.5 -0.3 0
v 0.4 -0.1 0.1
v 0.4 -0.2 0.1
v 0.5 -0.2 0.1
v 0.5 -0.1 0.1
v 0.4 -0.2 0
v 0.4 -0.1 0
v 0.5 -0.1 0
v 0.5 -0.2 0
v 0.4 0 0.1
v 0.4 -0.1 0.1
v 0.5 -0.1 0.1
v 0.5 0 0.1
v 0.4 -0.1 0
v 0.4 0 0
v 0.5 0 0
v 0.5 -0.1 0
v 0.4 0.1 0.1
v 0.4 0 0.1
v 0.5 0 0.1
v 0.5 0.1 0.1
v 0.4 0 0
v 0.4 0.1 0
v 0.5 0.1 0
v 0.5 0 0
v 0.4 0.2 0.1
v 0.4 0.1 0.1
v 0.5 0.1 0.1
v 0.5 0.2 0.1
v 0.4 0.1 0
v 0.4 0.2 0
v 0.5 0.2 0
v 0.5 0.1 0
v 0.4 0.3 0.1
v 0.4 0.2 0.1
v 0.5 0.2 0.1
v 0.5 0.3 0.1
v 0.4 0.2 0
v 0.4 0.3 0
v 0.5 0.3 0
v 0.5 0.2 0
v 0.4 0.4 0.1
v 0.4 0.3 0.1
v 0.5 0.3 0.1
v 0.5 0.4 0.1
v 0.4 0.3 0
v 0.4 0.4 0
v 0.5 0.4 0
v 0.5 0.3 0
v 0.4 0.5 0.1
v 0.4 0.4 0.1
v 0.5 0.4 0.1
v 0.5 0.5 0.1
v 0.4 0.4 0
v 0.4 0.5 0
v 0.5 0.5 0
v 0.5 0.4 0
v 0.4 0.6 0.1
v 0.4 0.5 0.1
v 0.5 0.5 0.1
v 0.5 0.6 0.1
v 0.4 0.5 0
v 0.4 0.6 0
v 0.5 0.6 0
v 0.5 0.5 0
v 0.4 0.7 0.1
v 0.4 0.6 0.1
v 0.5 0.6 0.1
v 0.5 0.7 0.1
v 0.4 0.6 0
v 0.4 0.7 0
v 0.5 0.7 0
v 0.5 0.6 0
v 0.4 0.8 0.1
v 0.4 0.7 0.1
v 0.5 0.7 0.1
v 0.5 0.8 0.1
v 0.4 0.7 0
v 0.4 0.8 0
v 0.5 0.8 0
v 0.5 0.7 0
v 0.4 0.9 0.1
v 0.4 0.8 0.1
v 0.5 0.8 0.1
v 0.5 0.9 0.1
v 0.4 0.8 0
v 0.4 0.9 0
v 0.5 0.9 0
v 0.5 0.8 0
v 0.4 1 0.1
v 0.4 0.9 0.1
v 0.5 0.9 0.1
v 0.5 1 0.1
v 0.4 0.9 0
v 0.4 1 0
v 0.5 1 0
v 0.5 0.9 0
v 0.4 1.1 0.1
v 0.4 1 0.1
v 0.5 1 0.1
v 0.5 1.1 0.1
v 0.4 1 0
v 0.4 1.1 0
v 0.5 1.1 0
v 0.5 1 0
v 0.4 1.2 0.1
v 0.4 1.1 0.1
v 0.5 1.1 0.1
v 0.5 1.2 0.1
v 0.4 1.1 0
v 0.4 1.2 0
v 0.5 1.2 0
v 0.5 1.1 0
v 0.5 1.2 0.1
v 0.5 1.2 0
v 0.4 1.2 0
v 0.4 1.2 0.1
v 0.5 -1.1 0.1
v 0.5 -1.2 0.1
v 0.6 -1.2 0.1
v 0.6 -1.1 0.1
v 0.5 -1.2 0
v 0.5 -1.1 0
v 0.6 -1.1 0
v 0.6 -1.2 0
v 0.5 -1.2 0.1
v 0.5 -1.2 0
v 0.6 -1.2 0
v 0.6 -1.2 0.1
v 0.5 -1 0.1
v 0.5 -1.1 0.1
v 0.6 -1.1 0.1
v 0.6 -1 0.1
v 0.5 -1.1 0
v 0.5 -1 0
v 0.6 -1 0
v 0.6 -1.1 0
v 0.5 -0.9 0.1
v 0.5 -1 0.1
v 0.6 -1 0.1
v 0.6 -0.9 0.1
v 0.5 -1 0
v 0.5 -0.9 0
v 0.6 -0.9 0
v 0.6 -1 0
v 0.5 -0.8 0.1
v 0.5 -0.9 0.1
v 0.6 -0.9 0.1
v 0.6 -0.8 0.1
v 0.5 -0.9 0
v 0.5 -0.8 0
v 0.6 -0.8 0
v 0.6 -0.9 0
v 0.5 -0.7 0.1
v 0.5 -0.8 0.1
v 0.6 -0.8 0.1
v 0.6 -0.7 0.1
v 0.5 -0.8 0
v 0.5 -0.7 0
v 0.6 -0.7 0
v 0.6 -0.8 0
v 0.5 -0.6 0.1
v 0.5 -0.7 0.1
v 0.6 -0.7 0.1
v 0.6 -0.6 0.1
v 0.5 -0.7 0
v 0.5 -0.6 0
v 0.6 -0.6 0
v 0.6 -0.7 0
v 0.5 -0.5 0.1
v 0.5 -0.6 0.1
v 0.6 -0.6 0.1
v 0.6 -0.5 0.1
v 0.5 -0.6 0
v 0.5 -0.5 0
v 0.6 -0.5 0
v 0.6 -0.6 0
v 0.5 -0.4 0.1
v 0.5 -0.5 0.1
v 0.6 -0.5 0.1
v 0.6 -0.4 0.1
v 0.5 -0.5 0
v 0.5 -0.4 0
v 0.6 -0.4 0
v 0.6 -0.5 0
v 0.5 -0.3 0.1
v 0.5 -0.4 0.1
v 0.6 -0.4 0.1
v 0.6 -0.3 0.1
v 0.5 -0.4 0
v 0.5 -0.3 0
v 0.6 -0.3 0
v 0.6 -0.4 0
v 0.5 -0.2 0.1
v 0.5 -0.3 0.1
v 0.6 -0.3 0.1
v 0.6 -0.2 0.1
v 0.5 -0.3 0
v 0.5 -0.2 0
v 0.6 -0.2 0
v 0.6 -0.3 0
v 0.5 -0.1 0.1
v 0.5 -0.2 0.1
v 0.6 -0.2 0.1
v 0.6 -0.1 0.1
v 0.5 -0.2 0
v 0.5 -0.1 0
v 0.6 -0.1 0
v 0.6 -0.2 0
v 0.5 0 0.1
v 0.5 -0.1 0.1
v 0.6 -0.1 0.1
v 0.6 0 0.1
v 0.5 -0.1 0
v 0.5 0 0
v 0.6 0 0
v 0.6 -0.1 0
v 0.5 0.1 0.1
v 0.5 0 0.1
v 0.6 0 0.1
v 0.6 0.1 0.1
v 0.5 0 0
v 0.5 0.1 0
v 0.6 0.1 0
v 0.6 0 0
v 0.5 0.2 0.1
v 0.5 0.1 0.1
v 0.6 0.1 0.1
v 0.6 0.2 0.1
v 0.5 0.1 0
v 0.5 0.2 0
v 0.6 0.2 0
v 0.6 0.1 0
v 0.5 0.3 0.1
v 0.5 0.2 0.1
v 0.6 0.2 0.1
v 0.6 0.3 0.1
v 0.5 0.2 0
v 0.5 0.3 0
v 0.6 0.3 0
v 0.6 0.2 0
v 0.5 0.4 0.1
v 0.5 0.3 0.1
v 0.6 0.3 0.1
v 0.6 0.4 0.1
v 0.5 0.3 0
v 0.5 0.4 0
v 0.6 0.4 0
v 0.6 0.3 0
v 0.5 0.5 0.1
v 0.5 0.4 0.1
v 0.6 0.4 0.1
v 0.6 0.5 0.1
v 0.5 0.4 0
v 0.5 0.5 0
v 0.6 0.5 0
v 0.6 0.4 0
v 0.5 0.6 0.1
v 0.5 0.5 0.1
v 0.6 0.5 0.1
v 0.6 0.6 0.1
v 0.5 0.5 0
v 0.5 0.6 0
v 0.6 0.6 0
v 0.6 0.5 0
v 0.5 0.7 0.1
v 0.5 0.6 0.1
v 0.6 0.6 0.1
v 0.6 0.7 0.1
v 0.5 0.6 0
v 0.5 0.7 0
v 0.6 0.7 0
v 0.6 0.6 0
v 0.5 0.8 0.1
v 0.5 0.7 0.1
v 0.6 0.7 0.1
v 0.6 0.8 0.1
v 0.5 0.7 0
v 0.5 0.8 0
v 0.6 0.8 0
v 0.6 0.7 0
v 0.5 0.9 0.1
v 0.5 0.8 0.1
v 0.6 0.8 0.1
v 0.6 0.9 0.1
v 0.5 0.8 0
v 0.5 0.9 0
v 0.6 0.9 0
v 0.6 0.8 0
v 0.5 1 0.1
v 0.5 0.9 0.1
v 0.6 0.9 0.1
v 0.6 1 0.1
v 0.5 0.9 0
v 0.5 1 0
v 0.6 1 0
v 0.6 0.9 0
v 0.5 1.1 0.1
v 0.5 1 0.1
v 0.6 1 0.1
v 0.6 1.1 0.1
v 0.5 1 0
v 0.5 1.1 0
v 0.6 1.1 0
v 0.6 1 0
v 0.5 1.2 0.1
v 0.5 1.1 0.1
v 0.6 1.1 0.1
v 0.6 1.2 0.1
v 0.5 1.1 0
v 0.5 1.2 0
v 0.6 1.2 0
v 0.6 1.1 0
v 0.6 1.2 0.1
v 0.6 1.2 0
v 0.5 1.2 0
v 0.5 1.2 0.1
v 0.6 -1.1 0.1
v 0.6 -1.2 0.1
v 0.7 -1.2 0.1
v 0.7 -1.1 0.1
v 0.6 -1.2 0
v 0.6 -1.1 0
v 0.7 -1.1 0
v 0.7 -1.2 0
v 0.6 -1.2 0.1
v 0.6 -1.2 0
v 0.7 -1.2 0
v 0.7 -1.2 0.1
v 0.6 -1 0.1
v 0.6 -1.1 0.1
v 0.7 -1.1 0.1
v 0.7 -1 0.1
v 0.6 -1.1 0
v 0.6 -1 0
v 0.7 -1 0
v 0.7 -1.1 0
v 0.6 -0.9 0.1
v 0.6 -1 0.1
v 0.7 -1 0.1
v 0.7 -0.9 0.1
v 0.6 -1 0
v 0.6 -0.9 0
v 0.7 -0.9 0
v 0.7 -1 0
v 0.6 -0.8 0.1
v 0.6 -0.9 0.1
v 0.7 -0.9 0.1
v 0.7 -0.8 0.1
v 0.6 -0.9 0
v 0.6 -0.8 0
v 0.7 -0.8 0
v 0.7 -0.9 0
v 0.6 -0.7 0.1
v 0.6 -0.8 0.1
v 0.7 -0.8 0.1
v 0.7 -0.7 0.1
v 0.6 -0.8 0
v 0.6 -0.7 0
v 0.7 -0.7 0
v 0.7 -0.8 0
v 0.6 -0.6 0.1
v 0.6 -0.7 0.1
v 0.7 -0.7 0.1
v 0.7 -0.6 0.1
v 0.6 -0.7 0
v 0.6 -0.6 0
v 0.7 -0.6 0
v 0.7 -0.7 0
v 0.6 -0.5 0.1
v 0.6 -0.6 0.1
v 0.7 -0.6 0.1
v 0.7 -0.5 0.1
v 0.6 -0.6 0
v 0.6 -0.5 0
v 0.7 -0.5 0
v 0.7 -0.6 0
v 0.6 -0.4 0.1
v 0.6 -0.5 0.1
v 0.7 -0.5 0.1
v 0.7 -0.4 0.1
v 0.6 -0.5 0
v 0.6 -0.4 0
v 0.7 -0.4 0
v 0.7 -0.5 0
v 0.6 -0.3 0.1
v 0.6 -0.4 0.1
v 0.7 -0.4 0.1
v 0.7 -0.3 0.1
v 0.6 -0.4 0
v 0.6 -0.3 0
v 0.7 -0.3 0
v 0.7 -0.4 0
v 0.6 -0.2 0.1
v 0.6 -0.3 0.1
v 0.7 -0.3 0.1
v 0.7 -0.2 0.1
v 0.6 -0.3 0
v 0.6 -0.2 0
v 0.7 -0.2 0
v 0.7 -0.3 0
v 0.6 -0.1 0.1
v 0.6 -0.2 0.1
v 0.7 -0.2 0.1
v 0.7 -0.1 0.1
v 0.6 -0.2 0
v 0.6 -0.1 0
v 0.7 -0.1 0
v 0.7 -0.2 0
v 0.6 0 0.1
v 0.6 -0.1 0.1
v 0.7 -0.1 0.1
v 0.7 0 0.1
v 0.6 -0.1 0
v 0.6 0 0
v 0.7 0 0
v 0.7 -0.1 0
v 0.6 0.1 0.1
v 0.6 0 0.1
v 0.7 0 0.1
v 0.7 0.1 0.1
v 0.6 0 0
v 0.6 0.1 0
v 0.7 0.1 0
v 0.7 0 0
v 0.6 0.2 0.1
v 0.6 0.1 0.1
v 0.7 0.1 0.1
v 0.7 0.2 0.1
v 0.6 0.1 0
v 0.6 0.2 0
v 0.7 0.2 0
v 0.7 0.1 0
v 0.6 0.3 0.1
v 0.6 0.2 0.1
v 0.7 0.2 0.1
v 0.7 0.3 0.1
v 0.6 0.2 0
v 0.6 0.3 0
v 0.7 0.3 0
v 0.7 0.2 0
v 0.6 0.4 0.1
v 0.6 0.3 0.1
v 0.7 0.3 0.1
v 0.7 0.4 0.1
v 0.6 0.3 0
v 0.6 0.4 0
v 0.7 0.4 0
v 0.7 0.3 0
v 0.6 0.5 0.1
v 0.6 0.4 0.1
v 0.7 0.4 0.1
v 0.7 0.5 0.1
v 0.6 0.4 0
v 0.6 0.5 0
v 0.7 0.5 0
v 0.7 0.4 0
v 0.6 0.6 0.1
v 0.6 0.5 0.1
v 0.7 0.5 0.1
v 0.7 0.6 0.1
v 0.6 0.5 0
v 0.6 0.6 0
v 0.7 0.6 0
v 0.7 0.5 0
v 0.6 0.7 0.1
v 0.6 0.6 0.1
v 0.7 0.6 0.1
v 0.7 0.7 0.1
v 0.6 0.6 0
v 0.6 0.7 0
v 0.7 0.7 0
v 0.7 0.6 0
v 0.6 0.8 0.1
v 0.6 0.7 0.1
v 0.7 0.7 0.1
v 0.7 0.8 0.1
v 0.6 0.7 0
v 0.6 0.8 0
v 0.7 0.8 0
v 0.7 0.7 0
v 0.6 0.9 0.1
v 0.6 0.8 0.1
v 0.7 0.8 0.1
v 0.7 0.9 0.1
v 0.6 0.8 0
v 0.6 0.9 0
v 0.7 0.9 0
v 0.7 0.8 0
v 0.6 1 0.1
v 0.6 0.9 0.1
v 0.7 0.9 0.1
v 0.7 1 0.1
v 0.6 0.9 0
v 0.6 1 0
v 0.7 1 0
v 0.7 0.9 0
v 0.6 1.1 0.1
v 0.6 1 0.1
v 0.7 1 0.1
v 0.7 1.1 0.1
v 0.6 1 0
v 0.6 1.1 0
v 0.7 1.1 0
v 0.7 1 0
v 0.6 1.2 0.1
v 0.6 1.1 0.1
v 0.7 1.1 0.1
v 0.7 1.2 0.1
v 0.6 1.1 0
v 0.6 1.2 0
v 0.7 1.2 0
v 0.7 1.1 0
v 0.7 1.2 0.1
v 0.7 1.2 0
v 0.6 1.2 0
v 0.6 1.2 0.1
v 0.7 -1.1 0.1
v 0.7 -1.2 0.1
v 0.8 -1.2 0.1
v 0.8 -1.1 0.1
v 0.7 -1.2 0
v 0.7 -1.1 0
v 0.8 -1.1 0
v 0.8 -1.2 0
v 0.7 -1.2 0.1
v 0.7 -1.2 0
v 0.8 -1.2 0
v 0.8 -1.2 0.1
v 0.7 -1 0.1
v 0.7 -1.1 0.1
v 0.8 -1.1 0.1
v 0.8 -1 0.1
v 0.7 -1.1 0
v 0.7 -1 0
v 0.8 -1 0
v 0.8 -1.1 0
v 0.7 -0.9 0.1
v 0.7 -1 0.1
v 0.8 -1 0.1
v 0.8 -0.9 0.1
v 0.7 -1 0
v 0.7 -0.9 0
v 0.8 -0.9 0
v 0.8 -1 0
v 0.7 -0.8 0.1
v 0.7 -0.9 0.1
v 0.8 -0.9 0.1
v 0.8 -0.8 0.1
v 0.7 -0.9 0
v 0.7 -0.8 0
v 0.8 -0.8 0
v 0.8 -0.9 0
v 0.7 -0.7 0.1
v 0.7 -0.8 0.1
v 0.8 -0.8 0.1
v 0.8 -0.7 0.1
v 0.7 -0.8 0
v 0.7 -0.7 0
v 0.8 -0.7 0
v 0.8 -0.8 0
v 0.7 -0.6 0.1
v 0.7 -0.7 0.1
v 0.8 -0.7 0.1
v 0.8 -0.6 0.1
v 0.7 -0.7 0
v 0.7 -0.6 0
v 0.8 -0.6 0
v 0.8 -0.7 0
v 0.7 -0.5 0.1
v 0.7 -0.6 0.1
v 0.8 -0.6 0.1
v 0.8 -0.5 0.1
v 0.7 -0.6 0
v 0.7 -0.5 0
v 0.8 -0.5 0
v 0.8 -0.6 0
v 0.7 -0.4 0.1
v 0.7 -0.5 0.1
v 0.8 -0.5 0.1
v 0.8 -0.4 0.1
v 0.7 -0.5 0
v 0.7 -0.4 0
v 0.8 -0.4 0
v 0.8 -0.5 0
v 0.7 -0.3 0.1
v 0.7 -0.4 0.1
v 0.8 -0.4 0.1
v 0.8 -0.3 0.1
v 0.7 -0.4 0
v 0.7 -0.3 0
v 0.8 -0.3 0
v 0.8 -0.4 0
v 0.7 -0.2 0.1
v 0.7 -0.3 0.1
v 0.8 -0.3 0.1
v 0.8 -0.2 0.1
v 0.7 -0.3 0
v 0.7 -0.2 0
v 0.8 -0.2 0
v 0.8 -0.3 0
v 0.7 -0.1 0.1
v 0.7 -0.2 0.1
v 0.8 -0.2 0.1
v 0.8 -0.1 0.1
v 0.7 -0.2 0
v 0.7 -0.1 0
v 0.8 -0.1 0
v 0.8 -0.2 0
v 0.7 0 0.1
v 0.7 -0.1 0.1
v 0.8 -0.1 0.1
v 0.8 0 0.1
v 0.7 -0.1 0
v 0.7 0 0
v 0.8 0 0
v 0.8 -0.1 0
v 0.7 0.1 0.1
v 0.7 0 0.1
v 0.8 0 0.1
v 0.8 0.1 0.1
v 0.7 0 0
v 0.7 0.1 0
v 0.8 0.1 0
v 0.8 0 0
v 0.7 0.2 0.1
v 0.7 0.1 0.1
v 0.8 0.1 0.1
v 0.8 0.2 0.1
v 0.7 0.1 0
v 0.7 0.2 0
v 0.8 0.2 0
v 0.8 0.1 0
v 0.7 0.3 0.1
v 0.7 0.2 0.1
v 0.8 0.2 0.1
v 0.8 0.3 0.1
v 0.7 0.2 0
v 0.7 0.3 0
v 0.8 0.3 0
v 0.8 0.2 0
v 0.7 0.4 0.1
v 0.7 0.3 0.1
v 0.8 0.3 0.1
v 0.8 0.4 0.1
v 0.7 0.3 0
v 0.7 0.4 0
v 0.8 0.4 0
v 0.8 0.3 0
v 0.7 0.5 0.1
v 0.7 0.4 0.1
v 0.8 0.4 0.1
v 0.8 0.5 0.1
v 0.7 0.4 0
v 0.7 0.5 0
v 0.8 0.5 0
v 0.8 0.4 0
v 0.7 0.6 0.1
v 0.7 0.5 0.1
v 0.8 0.5 0.1
v 0.8 0.6 0.1
v 0.7 0.5 0
v 0.7 0.6 0
v 0.8 0.6 0
v 0.8 0.5 0
v 0.7 0.7 0.1
v 0.7 0.6 0.1
v 0.8 0.6 0.1
v 0.8 0.7 0.1
v 0.7 0.6 0
v 0.7 0.7 0
v 0.8 0.7 0
v 0.8 0.6 0
v 0.7 0.8 0.1
v 0.7 0.7 0.1
v 0.8 0.7 0.1
v 0.8 0.8 0.1
v 0.7 0.7 0
v 0.7 0.8 0
v 0.8 0.8 0
v 0.8 0.7 0
v 0.7 0.9 0.1
v 0.7 0.8 0.1
v 0.8 0.8 0.1
v 0.8 0.9 0.1
v 0.7 0.8 0
v 0.7 0.9 0
v 0.8 0.9 0
v 0.8 0.8 0
v 0.7 1 0.1
v 0.7 0.9 0.1
v 0.8 0.9 0.1
v 0.8 1 0.1
v 0.7 0.9 0
v 0.7 1 0
v 0.8 1 0
v 0.8 0.9 0
v 0.7 1.1 0.1
v 0.7 1 0.1
v 0.8 1 0.1
v 0.8 1.1 0.1
v 0.7 1 0
v 0.7 1.1 0
v 0.8 1.1 0
v 0.8 1 0
v 0.7 1.2 0.1
v 0.7 1.1 0.1
v 0.8 1.1 0.1
v 0.8 1.2 0.1
v 0.7 1.1 0
v 0.7 1.2 0
v 0.8 1.2 0
v 0.8 1.1 0
v 0.8 1.2 0.1
v 0.8 1.2 0
v 0.7 1.2 0
v 0.7 1.2 0.1
v 0.8 -1.1 0.1
v 0.8 -1.2 0.1
v 0.9 -1.2 0.1
v 0.9 -1.1 0.1
v 0.8 -1.2 0
v 0.8 -1.1 0
v 0.9 -1.1 0
v 0.9 -1.2 0
v 0.8 -1.2 0.1
v 0.8 -1.2 0
v 0.9 -1.2 0
v 0.9 -1.2 0.1
v 0.8 -1 0.1
v 0.8 -1.1 0.1
v 0.9 -1.1 0.1
v 0.9 -1 0.1
v 0.8 -1.1 0
v 0.8 -1 0
v 0.9 -1 0
v 0.9 -1.1 0
v 0.8 -0.9 0.1
v 0.8 -1 0.1
v 0.9 -1 0.1
v 0.9 -0.9 0.1
v 0.8 -1 0
v 0.8 -0.9 0
v 0.9 -0.9 0
v 0.9 -1 0
v 0.8 -0.8 0.1
v 0.8 -0.9 0.1
v 0.9 -0.9 0.1
v 0.9 -0.8 0.1
v 0.8 -0.9 0
v 0.8 -0.8 0
v 0.9 -0.8 0
v 0.9 -0.9 0
v 0.8 -0.7 0.1
v 0.8 -0.8 0.1
v 0.9 -0.8 0.1
v 0.9 -0.7 0.1
v 0.8 -0.8 0
v 0.8 -0.7 0
v 0.9 -0.7 0
v 0.9 -0.8 0
v 0.8 -0.6 0.1
v 0.8 -0.7 0.1
v 0.9 -0.7 0.1
v 0.9 -0.6 0.1
v 0.8 -0.7 0
v 0.8 -0.6 0
v 0.9 -0.6 0
v 0.9 -0.7 0
v 0.8 -0.5 0.1
v 0.8 -0.6 0.1
v 0.9 -0.6 0.1
v 0.9 -0.5 0.1
v 0.8 -0.6 0
v 0.8 -0.5 0
v 0.9 -0.5 0
v 0.9 -0.6 0
v 0.8 -0.4 0.1
v 0.8 -0.5 0.1
v 0.9 -0.5 0.1
v 0.9 -0.4 0.1
v 0.8 -0.5 0
v 0.8 -0.4 0
v 0.9 -0.4 0
v 0.9 -0.5 0
v 0.8 -0.3 0.1
v 0.8 -0.4 0.1
v 0.9 -0.4 0.1
v 0.9 -0.3 0.1
v 0.8 -0.4 0
v 0.8 -0.3 0
v 0.9 -0.3 0
v 0.9 -0.4 0
v 0.8 -0.2 0.1
v 0.8 -0.3 0.1
v 0.9 -0.3 0.1
v 0.9 -0.2 0.1
v 0.8 -0.3 0
v 0.8 -0.2 0
v 0.9 -0.2 0
v 0.9 -0.3 0
v 0.8 -0.1 0.1
v 0.8 -0.2 0.1
v 0.9 -0.2 0.1
v 0.9 -0.1 0.1
v 0.8 -0.2 0
v 0.8 -0.1 0
v 0.9 -0.1 0
v 0.9 -0.2 0
v 0.8 0 0.1
v 0.8 -0.1 0.1
v 0.9 -0.1 0.1
v 0.9 0 0.1
v 0.8 -0.1 0
v 0.8 0 0
v 0.9 0 0
v 0.9 -0.1 0
v 0.8 0.1 0.1
v 0.8 0 0.1
v 0.9 0 0.1
v 0.9 0.1 0.1
v 0.8 0 0
v 0.8 0.1 0
v 0.9 0.1 0
v 0.9 0 0
v 0.8 0.2 0.1
v 0.8 0.1 0.1
v 0.9 0.1 0.1
v 0.9 0.2 0.1
v 0.8 0.1 0
v 0.8 0.2 0
v 0.9 0.2 0
v 0.9 0.1 0
v 0.8 0.3 0.1
v 0.8 0.2 0.1
v 0.9 0.2 0.1
v 0.9 0.3 0.1
v 0.8 0.2 0
v 0.8 0.3 0
v 0.9 0.3 0
v 0.9 0.2 0
v 0.8 0.4 0.1
v 0.8 0.3 0.1
v 0.9 0.3 0.1
v 0.9 0.4 0.1
v 0.8 0.3 0
v 0.8 0.4 0
v 0.9 0.4 0
v 0.9 0.3 0
v 0.8 0.5 0.1
v 0.8 0.4 0.1
v 0.9 0.4 0.1
v 0.9 0.5 0.1
v 0.8 0.4 0
v 0.8 0.5 0
v 0.9 0.5 0
v 0.9 0.4 0
v 0.8 0.6 0.1
v 0.8 0.5 0.1
v 0.9 0.5 0.1
v 0.9 0.6 0.1
v 0.8 0.5 0
v 0.8 0.6 0
v 0.9 0.6 0
v 0.9 0.5 0
v 0.8 0.7 0.1
v 0.8 0.6 0.1
v 0.9 0.6 0.1
v 0.9 0.7 0.1
v 0.8 0.6 0
v 0.8 0.7 0
v 0.9 0.7 0
v 0.9 0.6 0
v 0.8 0.8 0.1
v 0.8 0.7 0.1
v 0.9 0.7 0.1
v 0.9 0.8 0.1
v 0.8 0.7 0
v 0.8 0.8 0
v 0.9 0.8 0
v 0.9 0.7 0
v 0.8 0.9 0.1
v 0.8 0.8 0.1
v 0.9 0.8 0.1
v 0.9 0.9 0.1
v 0.8 0.8 0
v 0.8 0.9 0
v 0.9 0.9 0
v 0.9 0.8 0
v 0.8 1 0.1
v 0.8 0.9 0.1
v 0.9 0.9 0.1
v 0.9 1 0.1
v 0.8 0.9 0
v 0.8 1 0
v 0.9 1 0
v 0.9 0.9 0
v 0.8 1.1 0.1
v 0.8 1 0.1
v 0.9 1 0.1
v 0.9 1.1 0.1
v 0.8 1 0
v 0.8 1.1 0
v 0.9 1.1 0
v 0.9 1 0
v 0.8 1.2 0.1
v 0.8 1.1 0.1
v 0.9 1.1 0.1
v 0.9 1.2 0.1
v 0.8 1.1 0
v 0.8 1.2 0
v 0.9 1.2 0
v 0.9 1.1 0
v 0.9 1.2 0.1
v 0.9 1.2 0
v 0.8 1.2 0
v 0.8 1.2 0.1
v 0.9 -1.1 0.1
v 0.9 -1.2 0.1
v 1 -1.2 0.1
v 1 -1.1 0.1
v 0.9 -1.2 0
v 0.9 -1.1 0
v 1 -1.1 0
v 1 -1.2 0
v 0.9 -1.2 0.1
v 0.9 -1.2 0
v 1 -1.2 0
v 1 -1.2 0.1
v 0.9 -1 0.1
v 0.9 -1.1 0.1
v 1 -1.1 0.1
v 1 -1 0.1
v 0.9 -1.1 0
v 0.9 -1 0
v 1 -1 0
v 1 -1.1 0
v 0.9 -0.9 0.1
v 0.9 -1 0.1
v 1 -1 0.1
v 1 -0.9 0.1
v 0.9 -1 0
v 0.9 -0.9 0
v 1 -0.9 0
v 1 -1 0
v 0.9 -0.8 0.1
v 0.9 -0.9 0.1
v 1 -0.9 0.1
v 1 -0.8 0.1
v 0.9 -0.9 0
v 0.9 -0.8 0
v 1 -0.8 0
v 1 -0.9 0
v 0.9 -0.7 0.1
v 0.9 -0.8 0.1
v 1 -0.8 0.1
v 1 -0.7 0.1
v 0.9 -0.8 0
v 0.9 -0.7 0
v 1 -0.7 0
v 1 -0.8 0
v 0.9 -0.6 0.1
v 0.9 -0.7 0.1
v 1 -0.7 0.1
v 1 -0.6 0.1
v 0.9 -0.7 0
v 0.9 -0.6 0
v 1 -0.6 0
v 1 -0.7 0
v 0.9 -0.5 0.1
v 0.9 -0.6 0.1
v 1 -0.6 0.1
v 1 -0.5 0.1
v 0.9 -0.6 0
v 0.9 -0.5 0
v 1 -0.5 0
v 1 -0.6 0
v 0.9 -0.4 0.1
v 0.9 -0.5 0.1
v 1 -0.5 0.1
v 1 -0.4 0.1
v 0.9 -0.5 0
v 0.9 -0.4 0
v 1 -0.4 0
v 1 -0.5 0
v 0.9 -0.3 0.1
v 0.9 -0.4 0.1
v 1 -0.4 0.1
v 1 -0.3 0.1
v 0.9 -0.4 0
v 0.9 -0.3 0
v 1 -0.3 0
v 1 -0.4 0
v 0.9 -0.2 0.1
v 0.9 -0.3 0.1
v 1 -0.3 0.1
v 1 -0.2 0.1
v 0.9 -0.3 0
v 0.9 -0.2 0
v 1 -0.2 0
v 1 -0.3 0
v 0.9 -0.1 0.1
v 0.9 -0.2 0.1
v 1 -0.2 0.1
v 1 -0.1 0.1
v 0.9 -0.2 0
v 0.9 -0.1 0
v 1 -0.1 0
v 1 -0.2 0
v 0.9 0 0.1
v 0.9 -0.1 0.1
v 1 -0.1 0.1
v 1 0 0.1
v 0.9 -0.1 0
v 0.9 0 0
v 1 0 0
v 1 -0.1 0
v 0.9 0.1 0.1
v 0.9 0 0.1
v 1 0 0.1
v 1 0.1 0.1
v 0.9 0 0
v 0.9 0.1 0
v 1 0.1 0
v 1 0 0
v 0.9 0.2 0.1
v 0.9 0.1 0.1
v 1 0.1 0.1
v 1 0.2 0.1
v 0.9 0.1 0
v 0.9 0.2 0
v 1 0.2 0
v 1 0.1 0
v 0.9 0.3 0.1
v 0.9 0.2 0.1
v 1 0.2 0.1
v 1 0.3 0.1
v 0.9 0.2 0
v 0.9 0.3 0
v 1 0.3 0
v 1 0.2 0
v 0.9 0.4 0.1
v 0.9 0.3 0.1
v 1 0.3 0.1
v 1 0.4 0.1
v 0.9 0.3 0
v 0.9 0.4 0
v 1 0.4 0
v 1 0.3 0
v 0.9 0.5 0.1
v 0.9 0.4 0.1
v 1 0.4 0.1
v 1 0.5 0.1
v 0.9 0.4 0
v 0.9 0.5 0
v 1 0.5 0
v 1 0.4 0
v 0.9 0.6 0.1
v 0.9 0.5 0.1
v 1 0.5 0.1
v 1 0.6 0.1
v 0.9 0.5 0
v 0.9 0.6 0
v 1 0.6 0
v 1 0.5 0
v 0.9 0.7 0.1
v 0.9 0.6 0.1
v 1 0.6 0.1
v 1 0.7 0.1
v 0.9 0.6 0
v 0.9 0.7 0
v 1 0.7 0
v 1 0.6 0
v 0.9 0.8 0.1
v 0.9 0.7 0.1
v 1 0.7 0.1
v 1 0.8 0.1
v 0.9 0.7 0
v 0.9 0.8 0
v 1 0.8 0
v 1 0.7 0
v 0.9 0.9 0.1
v 0.9 0.8 0.1
v 1 0.8 0.1
v 1 0.9 0.1
v 0.9 0.8 0
v 0.9 0.9 0
v 1 0.9 0
v 1 0.8 0
v 0.9 1 0.1
v 0.9 0.9 0.1
v 1 0.9 0.1
v 1 1 0.1
v 0.9 0.9 0
v 0.9 1 0
v 1 1 0
v 1 0.9 0
v 0.9 1.1 0.1
v 0.9 1 0.1
v 1 1 0.1
v 1 1.1 0.1
v 0.9 1 0
v 0.9 1.1 0
v 1 1.1 0
v 1 1 0
v 0.9 1.2 0.1
v 0.9 1.1 0.1
v 1 1.1 0.1
v 1 1.2 0.1
v 0.9 1.1 0
v 0.9 1.2 0
v 1 1.2 0
v 1 1.1 0
v 1 1.2 0.1
v 1 1.2 0
v 0.9 1.2 0
v 0.9 1.2 0.1
v 1 -1.1 0.1
v 1 -1.2 0.1
v 1.1 -1.2 0.1
v 1.1 -1.1 0.1
v 1 -1.2 0
v 1 -1.1 0
v 1.1 -1.1 0
v 1.1 -1.2 0
v 1 -1.2 0.1
v 1 -1.2 0
v 1.1 -1.2 0
v 1.1 -1.2 0.1
v 1 -1 0.1
v 1 -1.1 0.1
v 1.1 -1.1 0.1
v 1.1 -1 0.1
v 1 -1.1 0
v 1 -1 0
v 1.1 -1 0
v 1.1 -1.1 0
v 1 -0.9 0.1
v 1 -1 0.1
v 1.1 -1 0.1
v 1.1 -0.9 0.1
v 1 -1 0
v 1 -0.9 0
v 1.1 -0.9 0
v 1.1 -1 0
v 1 -0.8 0.1
v 1 -0.9 0.1
v 1.1 -0.9 0.1
v 1.1 -0.8 0.1
v 1 -0.9 0
v 1 -0.8 0
v 1.1 -0.8 0
v 1.1 -0.9 0
v 1 -0.7 0.1
v 1 -0.8 0.1
v 1.1 -0.8 0.1
v 1.1 -0.7 0.1
v 1 -0.8 0
v 1 -0.7 0
v 1.1 -0.7 0
v 1.1 -0.8 0
v 1 -0.6 0.1
v 1 -0.7 0.1
v 1.1 -0.7 0.1
v 1.1 -0.6 0.1
v 1 -0.7 0
v 1 -0.6 0
v 1.1 -0.6 0
v 1.1 -0.7 0
v 1 -0.5 0.1
v 1 -0.6 0.1
v 1.1 -0.6 0.1
v 1.1 -0.5 0.1
v 1 -0.6 0
v 1 -0.5 0
v 1.1 -0.5 0
v 1.1 -0.6 0
v 1 -0.4 0.1
v 1 -0.5 0.1
v 1.1 -0.5 0.1
v 1.1 -0.4 0.1
v 1 -0.5 0
v 1 -0.4 0
v 1.1 -0.4 0
v 1.1 -0.5 0
v 1 -0.3 0.1
v 1 -0.4 0.1
v 1.1 -0.4 0.1
v 1.1 -0.3 0.1
v 1 -0.4 0
v 1 -0.3 0
v 1.1 -0.3 0
v 1.1 -0.4 0
v 1 -0.2 0.1
v 1 -0.3 0.1
v 1.1 -0.3 0.1
v 1.1 -0.2 0.1
v 1 -0.3 0
v 1 -0.2 0
v 1.1 -0.2 0
v 1.1 -0.3 0
v 1 -0.1 0.1
v 1 -0.2 0.1
v 1.1 -0.2 0.1
v 1.1 -0.1 0.1
v 1 -0.2 0
v 1 -0.1 0
v 1.1 -0.1 0
v 1.1 -0.2 0
v 1 0 0.1
v 1 -0.1 0.1
v 1.1 -0.1 0.1
v 1.1 0 0.1
v 1 -0.1 0
v 1 0 0
v 1.1 0 0
v 1.1 -0.1 0
v 1 0.1 0.1
v 1 0 0.1
v 1.1 0 0.1
v 1.1 0.1 0.1
v 1 0 0
v 1 0.1 0
v 1.1 0.1 0
v 1.1 0 0
v 1 0.2 0.1
v 1 0.1 0.1
v 1.1 0.1 0.1
v 1.1 0.2 0.1
v 1 0.1 0
v 1 0.2 0
v 1.1 0.2 0
v 1.1 0.1 0
v 1 0.3 0.1
v 1 0.2 0.1
v 1.1 0.2 0.1
v 1.1 0.3 0.1
v 1 0.2 0
v 1 0.3 0
v 1.1 0.3 0
v 1.1 0.2 0
v 1 0.4 0.1
v 1 0.3 0.1
v 1.1 0.3 0.1
v 1.1 0.4 0.1
v 1 0.3 0
v 1 0.4 0
v 1.1 0.4 0
v 1.1 0.3 0
v 1 0.5 0.1
v 1 0.4 0.1
v 1.1 0.4 0.1
v 1.1 0.5 0.1
v 1 0.4 0
v 1 0.5 0
v 1.1 0.5 0
v 1.1 0.4 0
v 1 0.6 0.1
v 1 0.5 0.1
v 1.1 0.5 0.1
v 1.1 0.6 0.1
v 1 0.5 0
v 1 0.6 0
v 1.1 0.6 0
v 1.1 0.5 0
v 1 0.7 0.1
v 1 0.6 0.1
v 1.1 0.6 0.1
v 1.1 0.7 0.1
v 1 0.6 0
v 1 0.7 0
v 1.1 0.7 0
v 1.1 0.6 0
v 1 0.8 0.1
v 1 0.7 0.1
v 1.1 0.7 0.1
v 1.1 0.8 0.1
v 1 0.7 0
v 1 0.8 0
v 1.1 0.8 0
v 1.1 0.7 0
v 1 0.9 0.1
v 1 0.8 0.1
v 1.1 0.8 0.1
v 1.1 0.9 0.1
v 1 0.8 0
v 1 0.9 0
v 1.1 0.9 0
v 1.1 0.8 0
v 1 1 0.1
v 1 0.9 0.1
v 1.1 0.9 0.1
v 1.1 1 0.1
v 1 0.9 0
v 1 1 0
v 1.1 1 0
v 1.1 0.9 0
v 1 1.1 0.1
v 1 1 0.1
v 1.1 1 0.1
v 1.1 1.1 0.1
v 1 1 0
v 1 1.1 0
v 1.1 1.1 0
v 1.1 1 0
v 1 1.2 0.1
v 1 1.1 0.1
v 1.1 1.1 0.1
v 1.1 1.2 0.1
v 1 1.1 0
v 1 1.2 0
v 1.1 1.2 0
v 1.1 1.1 0
v 1.1 1.2 0.1
v 1.1 1.2 0
v 1 1.2 0
v 1 1.2 0.1
v 1.2 -1.2 0.1
v 1.2 -1.2 0
v 1.2 -1.1 0
v 1.2 -1.1 0.1
v 1.1 -1.1 0.1
v 1.1 -1.2 0.1
v 1.2 -1.2 0.1
v 1.2 -1.1 0.1
v 1.1 -1.2 0
v 1.1 -1.1 0
v 1.2 -1.1 0
v 1.2 -1.2 0
v 1.1 -1.2 0.1
v 1.1 -1.2 0
v 1.2 -1.2 0
v 1.2 -1.2 0.1
v 1.2 -1.1 0.1
v 1.2 -1.1 0
v 1.2 -1 0
v 1.2 -1 0.1
v 1.1 -1 0.1
v 1.1 -1.1 0.1
v 1.2 -1.1 0.1
v 1.2 -1 0.1
v 1.1 -1.1 0
v 1.1 -1 0
v 1.2 -1 0
v 1.2 -1.1 0
v 1.2 -1 0.1
v 1.2 -1 0
v 1.2 -0.9 0
v 1.2 -0.9 0.1
v 1.1 -0.9 0.1
v 1.1 -1 0.1
v 1.2 -1 0.1
v 1.2 -0.9 0.1
v 1.1 -1 0
v 1.1 -0.9 0
v 1.2 -0.9 0
v 1.2 -1 0
v 1.2 -0.9 0.1
v 1.2 -0.9 0
v 1.2 -0.8 0
v 1.2 -0.8 0.1
v 1.1 -0.8 0.1
v 1.1 -0.9 0.1
v 1.2 -0.9 0.1
v 1.2 -0.8 0.1
v 1.1 -0.9 0
v 1.1 -0.8 0
v 1.2 -0.8 0
v 1.2 -0.9 0
v 1.2 -0.8 0.1
v 1.2 -0.8 0
v 1.2 -0.7 0
v 1.2 -0.7 0.1
v 1.1 -0.7 0.1
v 1.1 -0.8 0.1
v 1.2 -0.8 0.1
v 1.2 -0.7 0.1
v 1.1 -0.8 0
v 1.1 -0.7 0
v 1.2 -0.7 0
v 1.2 -0.8 0
v 1.2 -0.7 0.1
v 1.2 -0.7 0
v 1.2 -0.6 0
v 1.2 -0.6 0.1
v 1.1 -0.6 0.1
v 1.1 -0.7 0.1
v 1.2 -0.7 0.1
v 1.2 -0.6 0.1
v 1.1 -0.7 0
v 1.1 -0.6 0
v 1.2 -0.6 0
v 1.2 -0.7 0
v 1.2 -0.6 0.1
v 1.2 -0.6 0
v 1.2 -0.5 0
v 1.2 -0.5 0.1
v 1.1 -0.5 0.1
v 1.1 -0.6 0.1
v 1.2 -0.6 0.1
v 1.2 -0.5 0.1
v 1.1 -0.6 0
v 1.1 -0.5 0
v 1.2 -0.5 0
v 1.2 -0.6 0
v 1.2 -0.5 0.1
v 1.2 -0.5 0
v 1.2 -0.4 0
v 1.2 -0.4 0.1
v 1.1 -0.4 0.1
v 1.1 -0.5 0.1
v 1.2 -0.5 0.1
v 1.2 -0.4 0.1
v 1.1 -0.5 0
v 1.1 -0.4 0
v 1.2 -0.4 0
v 1.2 -0.5 0
v 1.2 -0.4 0.1
v 1.2 -0.4 0
v 1.2 -0.3 0
v 1.2 -0.3 0.1
v 1.1 -0.3 0.1
v 1.1 -0.4 0.1
v 1.2 -0.4 0.1
v 1.2 -0.3 0.1
v 1.1 -0.4 0
v 1.1 -0.3 0
v 1.2 -0.3 0
v 1.2 -0.4 0
v 1.2 -0.3 0.1
v 1.2 -0.3 0
v 1.2 -0.2 0
v 1.2 -0.2 0.1
v 1.1 -0.2 0.1
v 1.1 -0.3 0.1
v 1.2 -0.3 0.1
v 1.2 -0.2 0.1
v 1.1 -0.3 0
v 1.1 -0.2 0
v 1.2 -0.2 0
v 1.2 -0.3 0
v 1.2 -0.2 0.1
v 1.2 -0.2 0
v 1.2 -0.1 0
v 1.2 -0.1 0.1
v 1.1 -0.1 0.1
v 1.1 -0.2 0.1
v 1.2 -0.2 0.1
v 1.2 -0.1 0.1
v 1.1 -0.2 0
v 1.1 -0.1 0
v 1.2 -0.1 0
v 1.2 -0.2 0
v 1.2 -0.1 0.1
v 1.2 -0.1 0
v 1.2 0 0
v 1.2 0 0.1
v 1.1 0 0.1
v 1.1 -0.1 0.1
v 1.2 -0.1 0.1
v 1.2 0 0.1
v 1.1 -0.1 0
v 1.1 0 0
v 1.2 0 0
v 1.2 -0.1 0
v 1.2 0 0.1
v 1.2 0 0
v 1.2 0.1 0
v 1.2 0.1 0.1
v 1.1 0.1 0.1
v 1.1 0 0.1
v 1.2 0 0.1
v 1.2 0.1 0.1
v 1.1 0 0
v 1.1 0.1 0
v 1.2 0.1 0
v 1.2 0 0
v 1.2 0.1 0.1
v 1.2 0.1 0
v 1.2 0.2 0
v 1.2 0.2 0.1
v 1.1 0.2 0.1
v 1.1 0.1 0.1
v 1.2 0.1 0.1
v 1.2 0.2 0.1
v 1.1 0.1 0
v 1.1 0.2 0
v 1.2 0.2 0
v 1.2 0.1 0
v 1.2 0.2 0.1
v 1.2 0.2 0
v 1.2 0.3 0
v 1.2 0.3 0.1
v 1.1 0.3 0.1
v 1.1 0.2 0.1
v 1.2 0.2 0.1
v 1.2 0.3 0.1
v 1.1 0.2 0
v 1.1 0.3 0
v 1.2 0.3 0
v 1.2 0.2 0
v 1.2 0.3 0.1
v 1.2 0.3 0
v 1.2 0.4 0
v 1.2 0.4 0.1
v 1.1 0.4 0.1
v 1.1 0.3 0.1
v 1.2 0.3 0.1
v 1.2 0.4 0.1
v 1.1 0.3 0
v 1.1 0.4 0
v 1.2 0.4 0
v 1.2 0.3 0
v 1.2 0.4 0.1
v 1.2 0.4 0
v 1.2 0.5 0
v 1.2 0.5 0.1
v 1.1 0.5 0.1
v 1.1 0.4 0.1
v 1.2 0.4 0.1
v 1.2 0.5 0.1
v 1.1 0.4 0
v 1.1 0.5 0
v 1.2 0.5 0
v 1.2 0.4 0
v 1.2 0.5 0.1
v 1.2 0.5 0
v 1.2 0.6 0
v 1.2 0.6 0.1
v 1.1 0.6 0.1
v 1.1 0.5 0.1
v 1.2 0.5 0.1
v 1.2 0.6 0.1
v 1.1 0.5 0
v 1.1 0.6 0
v 1.2 0.6 0
v 1.2 0.5 0
v 1.2 0.6 0.1
v 1.2 0.6 0
v 1.2 0.7 0
v 1.2 0.7 0.1
v 1.1 0.7 0.1
v 1.1 0.6 0.1
v 1.2 0.6 0.1
v 1.2 0.7 0.1
v 1.1 0.6 0
v 1.1 0.7 0
v 1.2 0.7 0
v 1.2 0.6 0
v 1.2 0.7 0.1
v 1.2 0.7 0
v 1.2 0.8 0
v 1.2 0.8 0.1
v 1.1 0.8 0.1
v 1.1 0.7 0.1
v 1.2 0.7 0.1
v 1.2 0.8 0.1
v 1.1 0.7 0
v 1.1 0.8 0
v 1.2 0.8 0
v 1.2 0.7 0
v 1.2 0.8 0.1
v 1.2 0.8 0
v 1.2 0.9 0
v 1.2 0.9 0.1
v 1.1 0.9 0.1
v 1.1 0.8 0.1
v 1.2 0.8 0.1
v 1.2 0.9 0.1
v 1.1 0.8 0
v 1.1 0.9 0
v 1.2 0.9 0
v 1.2 0.8 0
v 1.2 0.9 0.1
v 1.2 0.9 0
v 1.2 1 0
v 1.2 1 0.1
v 1.1 1 0.1
v 1.1 0.9 0.1
v 1.2 0.9 0.1
v 1.2 1 0.1
v 1.1 0.9 0
v 1.1 1 0
v 1.2 1 0
v 1.2 0.9 0
v 1.2 1 0.1
v 1.2 1 0
v 1.2 1.1 0
v 1.2 1.1 0.1
v 1.1 1.1 0.1
v 1.1 1 0.1
v 1.2 1 0.1
v 1.2 1.1 0.1
v 1.1 1 0
v 1.1 1.1 0
v 1.2 1.1 0
v 1.2 1 0
v 1.2 1.1 0.1
v 1.2 1.1 0
v 1.2 1.2 0
v 1.2 1.2 0.1
v 1.1 1.2 0.1
v 1.1 1.1 0.1
v 1.2 1.1 0.1
v 1.2 1.2 0.1
v 1.1 1.1 0
v 1.1 1.2 0
v 1.2 1.2 0
v 1.2 1.1 0
v 1.2 1.2 0.1
v 1.2 1.2 0
v 1.1 1.2 0
v 1.1 1.2 0.1

# faces
f 1/2/1 2/2/1 3/2/1 4/2/1
f 5/2/3 6/2/3 7/2/3 8/2/3
f 9/2/4 10/2/4 11/2/4 12/2/4
f 13/2/5 14/2/5 15/2/5 16/2/5
f 17/2/1 18/2/1 19/2/1 20/2/1
f 21/2/3 22/2/3 23/2/3 24/2/3
f 25/2/4 26/2/4 27/2/4 28/2/4
f 29/2/1 30/2/1 31/2/1 32/2/1
f 33/2/3 34/2/3 35/2/3 36/2/3
f 37/2/4 38/2/4 39/2/4 40/2/4
f 41/1/1 42/1/1 43/1/1 44/1/1
f 45/1/3 46/1/3 47/1/3 48/1/3
f 49/1/4 50/1/4 51/1/4 52/1/4
f 53/1/1 54/1/1 55/1/1 56/1/1
f 57/1/3 58/1/3 59/1/3 60/1/3
f 61/1/4 62/1/4 63/1/4 64/1/4
f 65/1/1 66/1/1 67/1/1 68/1/1
f 69/1/3 70/1/3 71/1/3 72/1/3
f 73/1/4 74/1/4 75/1/4 76/1/4
f 77/1/1 78/1/1 79/1/1 80/1/1
f 81/1/3 82/1/3 83/1/3 84/1/3
f 85/1/4 86/1/4 87/1/4 88/1/4
f 89/1/1 90/1/1 91/1/1 92/1/1
f 93/1/3 94/1/3 95/1/3 96/1/3
f 97/1/4 98/1/4 99/1/4 100/1/4
f 101/1/1 102/1/1 103/1/1 104/1/1
f 105/1/3 106/1/3 107/1/3 108/1/3
f 109/1/4 110/1/4 111/1/4 112/1/4
f 113/1/1 114/1/1 115/1/1 116/1/1
f 117/1/3 118/1/3 119/1/3 120/1/3
f 121/1/4 122/1/4 123/1/4 124/1/4
f 125/1/1 126/1/1 127/1/1 128/1/1
f 129/1/3 130/1/3 131/1/3 132/1/3
f 133/1/4 134/1/4 135/1/4 136/1/4
f 137/1/1 138/1/1 139/1/1 140/1/1
f 141/1/3 142/1/3 143/1/3 144/1/3
f 145/1/4 146/1/4 147/1/4 148/1/4
f 149/1/6 150/1/6 151/1/6 152/1/6
f 153/3/3 154/3/3 155/3/3 156/3/3
f 157/3/4 158/3/4 159/3/4 160/3/4
f 161/3/5 162/3/5 163/3/5 164/3/5
f 165/1/3 166/1/3 167/1/3 168/1/3
f 169/1/4 170/1/4 171/1/4 172/1/4
f 173/1/3 174/1/3 175/1/3 176/1/3
f 177/1/4 178/1/4 179/1/4 180/1/4
f 181/1/3 182/1/3 183/1/3 184/1/3
f 185/1/4 186/1/4 187/1/4 188/1/4
f 189/1/3 190/1/3 191/1/3 192/1/3
f 193/1/4 194/1/4 195/1/4 196/1/4
f 197/1/3 198/1/3 199/1/3 200/1/3
f 201/1/4 202/1/4 203/1/4 204/1/4
f 205/1/3 206/1/3 207/1/3 208/1/3
f 209/1/4 210/1/4 211/1/4 212/1/4
f 213/1/3 214/1/3 215/1/3 216/1/3
f 217/1/4 218/1/4 219/1/4 220/1/4
f 221/1/3 222/1/3 223/1/3 224/1/3
f 225/1/4 226/1/4 227/1/4 228/1/4
f 229/1/3 230/1/3 231/1/3 232/1/3
f 233/1/4 234/1/4 235/1/4 236/1/4
f 237/1/3 238/1/3 239/1/3 240/1/3
f 241/1/4 242/1/4 243/1/4 244/1/4
f 245/1/3 246/1/3 247/1/3 248/1/3
f 249/1/4 250/1/4 251/1/4 252/1/4
f 253/1/6 254/1/6 255/1/6 256/1/6
f 257/1/3 258/1/3 259/1/3 260/1/3
f 261/1/4 262/1/4 263/1/4 264/1/4
f 265/1/5 266/1/5 267/1/5 268/1/5
f 269/1/3 270/1/3 271/1/3 272/1/3
f 273/1/4 274/1/4 275/1/4 276/1/4
f 277/1/3 278/1/3 279/1/3 280/1/3
f 281/1/4 282/1/4 283/1/4 284/1/4
f 285/1/3 286/1/3 287/1/3 288/1/3
f 289/1/4 290/1/4 291/1/4 292/1/4
f 293/1/3 294/1/3 295/1/3 296/1/3
f 297/1/4 298/1/4 299/1/4 300/1/4
f 301/1/3 302/1/3 303/1/3 304/1/3
f 305/1/4 306/1/4 307/1/4 308/1/4
f 309/1/3 310/1/3 311/1/3 312/1/3
f 313/1/4 314/1/4 315/1/4 316/1/4
f 317/1/3 318/1/3 319/1/3 320/1/3
f 321/1/4 322/1/4 323/1/4 324/1/4
f 325/1/3 326/1/3 327/1/3 328/1/3
f 329/1/4 330/1/4 331/1/4 332/1/4
f 333/1/3 334/1/3 335/1/3 336/1/3
f 337/1/4 338/1/4 339/1/4 340/1/4
f 341/1/3 342/1/3 343/1/3 344/1/3
f 345/1/4 346/1/4 347/1/4 348/1/4
f 349/1/3 350/1/3 351/1/3 352/1/3
f 353/1/4 354/1/4 355/1/4 356/1/4
f 357/1/6 358/1/6 359/1/6 360/1/6
f 361/1/1 362/1/1 363/1/1 364/1/1
f 365/1/3 366/1/3 367/1/3 368/1/3
f 369/1/4 370/1/4 371/1/4 372/1/4
f 373/1/5 374/1/5 375/1/5 376/1/5
f 377/1/3 378/1/3 379/1/3 380/1/3
f 381/1/4 382/1/4 383/1/4 384/1/4
f 385/1/3 386/1/3 387/1/3 388/1/3
f 389/1/4 390/1/4 391/1/4 392/1/4
f 393/1/3 394/1/3 395/1/3 396/1/3
f 397/1/4 398/1/4 399/1/4 400/1/4
f 401/1/3 402/1/3 403/1/3 404/1/3
f 405/1/4 406/1/4 407/1/4 408/1/4
f 409/1/3 410/1/3 411/1/3 412/1/3
f 413/1/4 414/1/4 415/1/4 416/1/4
f 417/3/3 418/3/3 419/3/3 420/3/3
f 421/3/4 422/3/4 423/3/4 424/3/4
f 425/1/3 426/1/3 427/1/3 428/1/3
f 429/1/4 430/1/4 431/1/4 432/1/4
f 433/1/3 434/1/3 435/1/3 436/1/3
f 437/1/4 438/1/4 439/1/4 440/1/4
f 441/1/3 442/1/3 443/1/3 444/1/3
f 445/1/4 446/1/4 447/1/4 448/1/4
f 449/1/3 450/1/3 451/1/3 452/1/3
f 453/1/4 454/1/4 455/1/4 456/1/4
f 457/1/3 458/1/3 459/1/3 460/1/3
f 461/1/4 462/1/4 463/1/4 464/1/4
f 465/3/3 466/3/3 467/3/3 468/3/3
f 469/3/4 470/3/4 471/3/4 472/3/4
f 473/3/6 474/3/6 475/3/6 476/3/6
f 477/1/3 478/1/3 479/1/3 480/1/3
f 481/1/4 482/1/4 483/1/4 484/1/4
f 485/1/5 486/1/5 487/1/5 488/1/5
f 489/1/3 490/1/3 491/1/3 492/1/3
f 493/1/4 494/1/4 495/1/4 496/1/4
f 497/1/3 498/1/3 499/1/3 500/1/3
f 501/1/4 502/1/4 503/1/4 504/1/4
f 505/1/3 506/1/3 507/1/3 508/1/3
f 509/1/4 510/1/4 511/1/4 512/1/4
f 513/1/3 514/1/3 515/1/3 516/1/3
f 517/1/4 518/1/4 519/1/4 520/1/4
f 521/1/3 522/1/3 523/1/3 524/1/3
f 525/1/4 526/1/4 527/1/4 528/1/4
f 529/3/3 530/3/3 531/3/3 532/3/3
f 533/3/4 534/3/4 535/3/4 536/3/4
f 537/3/3 538/3/3 539/3/3 540/3/3
f 541/3/4 542/3/4 543/3/4 544/3/4
f 545/3/3 546/3/3 547/3/3 548/3/3
f 549/3/4 550/3/4 551/3/4 552/3/4
f 553/3/3 554/3/3 555/3/3 556/3/3
f 557/3/4 558/3/4 559/3/4 560/3/4
f 561/3/3 562/3/3 563/3/3 564/3/3
f 565/3/4 566/3/4 567/3/4 568/3/4
f 569/2/3 570/2/3 571/2/3 572/2/3
f 573/2/4 574/2/4 575/2/4 576/2/4
f 577/3/3 578/3/3 579/3/3 580/3/3
f 581/3/4 582/3/4 583/3/4 584/3/4
f 585/3/6 586/3/6 587/3/6 588/3/6
f 589/1/3 590/1/3 591/1/3 592/1/3
f 593/1/4 594/1/4 595/1/4 596/1/4
f 597/1/5 598/1/5 599/1/5 600/1/5
f 601/1/3 602/1/3 603/1/3 604/1/3
f 605/1/4 606/1/4 607/1/4 608/1/4
f 609/1/3 610/1/3 611/1/3 612/1/3
f 613/1/4 614/1/4 615/1/4 616/1/4
f 617/1/3 618/1/3 619/1/3 620/1/3
f 621/1/4 622/1/4 623/1/4 624/1/4
f 625/1/3 626/1/3 627/1/3 628/1/3
f 629/1/4 630/1/4 631/1/4 632/1/4
f 633/1/3 634/1/3 635/1/3 636/1/3
f 637/1/4 638/1/4 639/1/4 640/1/4
f 641/3/3 642/3/3 643/3/3 644/3/3
f 645/3/4 646/3/4 647/3/4 648/3/4
f 649/2/3 650/2/3 651/2/3 652/2/3
f 653/2/4 654/2/4 655/2/4 656/2/4
f 657/2/3 658/2/3 659/2/3 660/2/3
f 661/2/4 662/2/4 663/2/4 664/2/4
f 665/4/3 666/4/3 667/4/3 668/4/3
f 669/4/4 670/4/4 671/4/4 672/4/4
f 673/4/3 674/4/3 675/4/3 676/4/3
f 677/4/4 678/4/4 679/4/4 680/4/4
f 681/2/3 682/2/3 683/2/3 684/2/3
f 685/2/4 686/2/4 687/2/4 688/2/4
f 689/1/3 690/1/3 691/1/3 692/1/3
f 693/1/4 694/1/4 695/1/4 696/1/4
f 697/1/6 698/1/6 699/1/6 700/1/6
f 701/1/3 702/1/3 703/1/3 704/1/3
f 705/1/4 706/1/4 707/1/4 708/1/4
f 709/1/5 710/1/5 711/1/5 712/1/5
f 713/1/3 714/1/3 715/1/3 716/1/3
f 717/1/4 718/1/4 719/1/4 720/1/4
f 721/1/3 722/1/3 723/1/3 724/1/3
f 725/1/4 726/1/4 727/1/4 728/1/4
f 729/1/3 730/1/3 731/1/3 732/1/3
f 733/1/4 734/1/4 735/1/4 736/1/4
f 737/1/3 738/1/3 739/1/3 740/1/3
f 741/1/4 742/1/4 743/1/4 744/1/4
f 745/1/3 746/1/3 747/1/3 748/1/3
f 749/1/4 750/1/4 751/1/4 752/1/4
f 753/3/3 754/3/3 755/3/3 756/3/3
f 757/3/4 758/3/4 759/3/4 760/3/4
f 761/4/3 762/4/3 763/4/3 764/4/3
f 765/4/4 766/4/4 767/4/4 768/4/4
f 769/4/3 770/4/3 771/4/3 772/4/3
f 773/4/4 774/4/4 775/4/4 776/4/4
f 777/4/3 778/4/3 779/4/3 780/4/3
f 781/4/4 782/4/4 783/4/4 784/4/4
f 785/4/3 786/4/3 787/4/3 788/4/3
f 789/4/4 790/4/4 791/4/4 792/4/4
f 793/1/3 794/1/3 795/1/3 796/1/3
f 797/1/4 798/1/4 799/1/4 800/1/4
f 801/1/3 802/1/3 803/1/3 804/1/3
f 805/1/4 806/1/4 807/1/4 808/1/4
f 809/1/6 810/1/6 811/1/6 812/1/6
f 813/1/1 814/1/1 815/1/1 816/1/1
f 817/1/3 818/1/3 819/1/3 820/1/3
f 821/1/4 822/1/4 823/1/4 824/1/4
f 825/1/5 826/1/5 827/1/5 828/1/5
f 829/1/3 830/1/3 831/1/3 832/1/3
f 833/1/4 834/1/4 835/1/4 836/1/4
f 837/1/3 838/1/3 839/1/3 840/1/3
f 841/1/4 842/1/4 843/1/4 844/1/4
f 845/1/3 846/1/3 847/1/3 848/1/3
f 849/1/4 850/1/4 851/1/4 852/1/4
f 853/1/3 854/1/3 855/1/3 856/1/3
f 857/1/4 858/1/4 859/1/4 860/1/4
f 861/1/3 862/1/3 863/1/3 864/1/3
f 865/1/4 866/1/4 867/1/4 868/1/4
f 869/1/3 870/1/3 871/1/3 872/1/3
f 873/1/4 874/1/4 875/1/4 876/1/4
f 877/2/3 878/2/3 879/2/3 880/2/3
f 881/2/4 882/2/4 883/2/4 884/2/4
f 885/4/3 886/4/3 887/4/3 888/4/3
f 889/4/4 890/4/4 891/4/4 892/4/4
f 893/4/3 894/4/3 895/4/3 896/4/3
f 897/4/4 898/4/4 899/4/4 900/4/4
f 901/4/3 902/4/3 903/4/3 904/4/3
f 905/4/4 906/4/4 907/4/4 908/4/4
f 909/3/3 910/3/3 911/3/3 912/3/3
f 913/3/4 914/3/4 915/3/4 916/3/4
f 917/1/3 918/1/3 919/1/3 920/1/3
f 921/1/4 922/1/4 923/1/4 924/1/4
f 925/1/3 926/1/3 927/1/3 928/1/3
f 929/1/4 930/1/4 931/1/4 932/1/4
f 933/1/6 934/1/6 935/1/6 936/1/6
f 937/1/3 938/1/3 939/1/3 940/1/3
f 941/1/4 942/1/4 943/1/4 944/1/4
f 945/1/5 946/1/5 947/1/5 948/1/5
f 949/3/3 950/3/3 951/3/3 952/3/3
f 953/3/4 954/3/4 955/3/4 956/3/4
f 957/3/3 958/3/3 959/3/3 960/3/3
f 961/3/4 962/3/4 963/3/4 964/3/4
f 965/1/3 966/1/3 967/1/3 968/1/3
f 969/1/4 970/1/4 971/1/4 972/1/4
f 973/1/3 974/1/3 975/1/3 976/1/3
f 977/1/4 978/1/4 979/1/4 980/1/4
f 981/1/3 982/1/3 983/1/3 984/1/3
f 985/1/4 986/1/4 987/1/4 988/1/4
f 989/3/3 990/3/3 991/3/3 992/3/3
f 993/3/4 994/3/4 995/3/4 996/3/4
f 997/2/3 998/2/3 999/2/3 1000/2/3
f 1001/2/4 1002/2/4 1003/2/4 1004/2/4
f 1005/4/3 1006/4/3 1007/4/3 1008/4/3
f 1009/4/4 1010/4/4 1011/4/4 1012/4/4
f 1013/4/3 1014/4/3 1015/4/3 1016/4/3
f 1017/4/4 1018/4/4 1019/4/4 1020/4/4
f 1021/2/3 1022/2/3 1023/2/3 1024/2/3
f 1025/2/4 1026/2/4 1027/2/4 1028/2/4
f 1029/1/3 1030/1/3 1031/1/3 1032/1/3
f 1033/1/4 1034/1/4 1035/1/4 1036/1/4
f 1037/1/3 1038/1/3 1039/1/3 1040/1/3
f 1041/1/4 1042/1/4 1043/1/4 1044/1/4
f 1045/1/3 1046/1/3 1047/1/3 1048/1/3
f 1049/1/4 1050/1/4 1051/1/4 1052/1/4
f 1053/1/6 1054/1/6 1055/1/6 1056/1/6
f 1057/3/1 1058/3/1 1059/3/1 1060/3/1
f 1061/3/3 1062/3/3 1063/3/3 1064/3/3
f 1065/3/4 1066/3/4 1067/3/4 1068/3/4
f 1069/3/5 1070/3/5 1071/3/5 1072/3/5
f 1073/2/3 1074/2/3 1075/2/3 1076/2/3
f 1077/2/4 1078/2/4 1079/2/4 1080/2/4
f 1081/2/3 1082/2/3 1083/2/3 1084/2/3
f 1085/2/4 1086/2/4 1087/2/4 1088/2/4
f 1089/3/3 1090/3/3 1091/3/3 1092/3/3
f 1093/3/4 1094/3/4 1095/3/4 1096/3/4
f 1097/1/3 1098/1/3 1099/1/3 1100/1/3
f 1101/1/4 1102/1/4 1103/1/4 1104/1/4
f 1105/1/3 1106/1/3 1107/1/3 1108/1/3
f 1109/1/4 1110/1/4 1111/1/4 1112/1/4
f 1113/1/3 1114/1/3 1115/1/3 1116/1/3
f 1117/1/4 1118/1/4 1119/1/4 1120/1/4
f 1121/3/3 1122/3/3 1123/3/3 1124/3/3
f 1125/3/4 1126/3/4 1127/3/4 1128/3/4
f 1129/2/3 1130/2/3 1131/2/3 1132/2/3
f 1133/2/4 1134/2/4 1135/2/4 1136/2/4
f 1137/2/3 1138/2/3 1139/2/3 1140/2/3
f 1141/2/4 1142/2/4 1143/2/4 1144/2/4
f 1145/3/3 1146/3/3 1147/3/3 1148/3/3
f 1149/3/4 1150/3/4 1151/3/4 1152/3/4
f 1153/1/3 1154/1/3 1155/1/3 1156/1/3
f 1157/1/4 1158/1/4 1159/1/4 1160/1/4
f 1161/1/3 1162/1/3 1163/1/3 1164/1/3
f 1165/1/4 1166/1/4 1167/1/4 1168/1/4
f 1169/1/3 1170/1/3 1171/1/3 1172/1/3
f 1173/1/4 1174/1/4 1175/1/4 1176/1/4
f 1177/1/3 1178/1/3 1179/1/3 1180/1/3
f 1181/1/4 1182/1/4 1183/1/4 1184/1/4
f 1185/1/6 1186/1/6 1187/1/6 1188/1/6
f 1189/1/1 1190/1/1 1191/1/1 1192/1/1
f 1193/1/3 1194/1/3 1195/1/3 1196/1/3
f 1197/1/4 1198/1/4 1199/1/4 1200/1/4
f 1201/1/5 1202/1/5 1203/1/5 1204/1/5
f 1205/4/3 1206/4/3 1207/4/3 1208/4/3
f 1209/4/4 1210/4/4 1211/4/4 1212/4/4
f 1213/4/3 1214/4/3 1215/4/3 1216/4/3
f 1217/4/4 1218/4/4 1219/4/4 1220/4/4
f 1221/4/3 1222/4/3 1223/4/3 1224/4/3
f 1225/4/4 1226/4/4 1227/4/4 1228/4/4
f 1229/2/3 1230/2/3 1231/2/3 1232/2/3
f 1233/2/4 1234/2/4 1235/2/4 1236/2/4
f 1237/1/3 1238/1/3 1239/1/3 1240/1/3
f 1241/1/4 1242/1/4 1243/1/4 1244/1/4
f 1245/1/3 1246/1/3 1247/1/3 1248/1/3
f 1249/1/4 1250/1/4 1251/1/4 1252/1/4
f 1253/1/3 1254/1/3 1255/1/3 1256/1/3
f 1257/1/4 1258/1/4 1259/1/4 1260/1/4
f 1261/3/3 1262/3/3 1263/3/3 1264/3/3
f 1265/3/4 1266/3/4 1267/3/4 1268/3/4
f 1269/3/3 1270/3/3 1271/3/3 1272/3/3
f 1273/3/4 1274/3/4 1275/3/4 1276/3/4
f 1277/1/3 1278/1/3 1279/1/3 1280/1/3
f 1281/1/4 1282/1/4 1283/1/4 1284/1/4
f 1285/1/3 1286/1/3 1287/1/3 1288/1/3
f 1289/1/4 1290/1/4 1291/1/4 1292/1/4
f 1293/1/3 1294/1/3 1295/1/3 1296/1/3
f 1297/1/4 1298/1/4 1299/1/4 1300/1/4
f 1301/1/3 1302/1/3 1303/1/3 1304/1/3
f 1305/1/4 1306/1/4 1307/1/4 1308/1/4
f 1309/1/3 1310/1/3 1311/1/3 1312/1/3
f 1313/1/4 1314/1/4 1315/1/4 1316/1/4
f 1317/1/3 1318/1/3 1319/1/3 1320/1/3
f 1321/1/4 1322/1/4 1323/1/4 1324/1/4
f 1325/1/6 1326/1/6 1327/1/6 1328/1/6
f 1329/1/1 1330/1/1 1331/1/1 1332/1/1
f 1333/1/3 1334/1/3 1335/1/3 1336/1/3
f 1337/1/4 1338/1/4 1339/1/4 1340/1/4
f 1341/1/5 1342/1/5 1343/1/5 1344/1/5
f 1345/2/3 1346/2/3 1347/2/3 1348/2/3
f 1349/2/4 1350/2/4 1351/2/4 1352/2/4
f 1353/4/3 1354/4/3 1355/4/3 1356/4/3
f 1357/4/4 1358/4/4 1359/4/4 1360/4/4
f 1361/4/3 1362/4/3 1363/4/3 1364/4/3
f 1365/4/4 1366/4/4 1367/4/4 1368/4/4
f 1369/4/3 1370/4/3 1371/4/3 1372/4/3
f 1373/4/4 1374/4/4 1375/4/4 1376/4/4
f 1377/2/3 1378/2/3 1379/2/3 1380/2/3
f 1381/2/4 1382/2/4 1383/2/4 1384/2/4
f 1385/3/3 1386/3/3 1387/3/3 1388/3/3
f 1389/3/4 1390/3/4 1391/3/4 1392/3/4
f 1393/1/3 1394/1/3 1395/1/3 1396/1/3
f 1397/1/4 1398/1/4 1399/1/4 1400/1/4
f 1401/1/3 1402/1/3 1403/1/3 1404/1/3
f 1405/1/4 1406/1/4 1407/1/4 1408/1/4
f 1409/1/3 1410/1/3 1411/1/3 1412/1/3
f 1413/1/4 1414/1/4 1415/1/4 1416/1/4
f 1417/1/3 1418/1/3 1419/1/3 1420/1/3
f 1421/1/4 1422/1/4 1423/1/4 1424/1/4
f 1425/1/3 1426/1/3 1427/1/3 1428/1/3
f 1429/1/4 1430/1/4 1431/1/4 1432/1/4
f 1433/1/3 1434/1/3 1435/1/3 1436/1/3
f 1437/1/4 1438/1/4 1439/1/4 1440/1/4
f 1441/1/3 1442/1/3 1443/1/3 1444/1/3
f 1445/1/4 1446/1/4 1447/1/4 1448/1/4
f 1449/1/3 1450/1/3 1451/1/3 1452/1/3
f 1453/1/4 1454/1/4 1455/1/4 1456/1/4
f 1457/1/3 1458/1/3 1459/1/3 1460/1/3
f 1461/1/4 1462/1/4 1463/1/4 1464/1/4
f 1465/1/3 1466/1/3 1467/1/3 1468/1/3
f 1469/1/4 1470/1/4 1471/1/4 1472/1/4
f 1473/1/6 1474/1/6 1475/1/6 1476/1/6
f 1477/1/1 1478/1/1 1479/1/1 1480/1/1
f 1481/1/3 1482/1/3 1483/1/3 1484/1/3
f 1485/1/4 1486/1/4 1487/1/4 1488/1/4
f 1489/1/5 1490/1/5 1491/1/5 1492/1/5
f 1493/1/1 1494/1/1 1495/1/1 1496/1/1
f 1497/1/3 1498/1/3 1499/1/3 1500/1/3
f 1501/1/4 1502/1/4 1503/1/4 1504/1/4
f 1505/1/1 1506/1/1 1507/1/1 1508/1/1
f 1509/1/3 1510/1/3 1511/1/3 1512/1/3
f 1513/1/4 1514/1/4 1515/1/4 1516/1/4
f 1517/1/1 1518/1/1 1519/1/1 1520/1/1
f 1521/1/3 1522/1/3 1523/1/3 1524/1/3
f 1525/1/4 1526/1/4 1527/1/4 1528/1/4
f 1529/1/1 1530/1/1 1531/1/1 1532/1/1
f 1533/1/3 1534/1/3 1535/1/3 1536/1/3
f 1537/1/4 1538/1/4 1539/1/4 1540/1/4
f 1541/1/1 1542/1/1 1543/1/1 1544/1/1
f 1545/1/3 1546/1/3 1547/1/3 1548/1/3
f 1549/1/4 1550/1/4 1551/1/4 1552/1/4
f 1553/1/1 1554/1/1 1555/1/1 1556/1/1
f 1557/1/3 1558/1/3 1559/1/3 1560/1/3
f 1561/1/4 1562/1/4 1563/1/4 1564/1/4
f 1565/3/3 1566/3/3 1567/3/3 1568/3/3
f 1569/3/4 1570/3/4 1571/3/4 1572/3/4
f 1573/4/3 1574/4/3 1575/4/3 1576/4/3
f 1577/4/4 1578/4/4 1579/4/4 1580/4/4
f 1581/4/3 1582/4/3 1583/4/3 1584/4/3
f 1585/4/4 1586/4/4 1587/4/4 1588/4/4
f 1589/4/3 1590/4/3 1591/4/3 1592/4/3
f 1593/4/4 1594/4/4 1595/4/4 1596/4/4
f 1597/2/3 1598/2/3 1599/2/3 1600/2/3
f 1601/2/4 1602/2/4 1603/2/4 1604/2/4
f 1605/2/3 1606/2/3 1607/2/3 1608/2/3
f 1609/2/4 1610/2/4 1611/2/4 1612/2/4
f 1613/3/3 1614/3/3 1615/3/3 1616/3/3
f 1617/3/4 1618/3/4 1619/3/4 1620/3/4
f 1621/1/3 1622/1/3 1623/1/3 1624/1/3
f 1625/1/4 1626/1/4 1627/1/4 1628/1/4
f 1629/1/3 1630/1/3 1631/1/3 1632/1/3
f 1633/1/4 1634/1/4 1635/1/4 1636/1/4
f 1637/1/3 1638/1/3 1639/1/3 1640/1/3
f 1641/1/4 1642/1/4 1643/1/4 1644/1/4
f 1645/1/3 1646/1/3 1647/1/3 1648/1/3
f 1649/1/4 1650/1/4 1651/1/4 1652/1/4
f 1653/1/3 1654/1/3 1655/1/3 1656/1/3
f 1657/1/4 1658/1/4 1659/1/4 1660/1/4
f 1661/1/3 1662/1/3 1663/1/3 1664/1/3
f 1665/1/4 1666/1/4 1667/1/4 1668/1/4
f 1669/1/3 1670/1/3 1671/1/3 1672/1/3
f 1673/1/4 1674/1/4 1675/1/4 1676/1/4
f 1677/3/3 1678/3/3 1679/3/3 1680/3/3
f 1681/3/4 1682/3/4 1683/3/4 1684/3/4
f 1685/3/3 1686/3/3 1687/3/3 1688/3/3
f 1689/3/4 1690/3/4 1691/3/4 1692/3/4
f 1693/1/3 1694/1/3 1695/1/3 1696/1/3
f 1697/1/4 1698/1/4 1699/1/4 1700/1/4
f 1701/1/6 1702/1/6 1703/1/6 1704/1/6
f 1705/1/3 1706/1/3 1707/1/3 1708/1/3
f 1709/1/4 1710/1/4 1711/1/4 1712/1/4
f 1713/1/5 1714/1/5 1715/1/5 1716/1/5
f 1717/1/3 1718/1/3 1719/1/3 1720/1/3
f 1721/1/4 1722/1/4 1723/1/4 1724/1/4
f 1725/1/3 1726/1/3 1727/1/3 1728/1/3
f 1729/1/4 1730/1/4 1731/1/4 1732/1/4
f 1733/1/3 1734/1/3 1735/1/3 1736/1/3
f 1737/1/4 1738/1/4 1739/1/4 1740/1/4
f 1741/1/3 1742/1/3 1743/1/3 1744/1/3
f 1745/1/4 1746/1/4 1747/1/4 1748/1/4
f 1749/1/3 1750/1/3 1751/1/3 1752/1/3
f 1753/1/4 1754/1/4 1755/1/4 1756/1/4
f 1757/3/3 1758/3/3 1759/3/3 1760/3/3
f 1761/3/4 1762/3/4 1763/3/4 1764/3/4
f 1765/2/3 1766/2/3 1767/2/3 1768/2/3
f 1769/2/4 1770/2/4 1771/2/4 1772/2/4
f 1773/2/3 1774/2/3 1775/2/3 1776/2/3
f 1777/2/4 1778/2/4 1779/2/4 1780/2/4
f 1781/2/3 1782/2/3 1783/2/3 1784/2/3
f 1785/2/4 1786/2/4 1787/2/4 1788/2/4
f 1789/2/3 1790/2/3 1791/2/3 1792/2/3
f 1793/2/4 1794/2/4 1795/2/4 1796/2/4
f 1797/2/3 1798/2/3 1799/2/3 1800/2/3
f 1801/2/4 1802/2/4 1803/2/4 1804/2/4
f 1805/2/3 1806/2/3 1807/2/3 1808/2/3
f 1809/2/4 1810/2/4 1811/2/4 1812/2/4
f 1813/3/3 1814/3/3 1815/3/3 1816/3/3
f 1817/3/4 1818/3/4 1819/3/4 1820/3/4
f 1821/1/3 1822/1/3 1823/1/3 1824/1/3
f 1825/1/4 1826/1/4 1827/1/4 1828/1/4
f 1829/1/3 1830/1/3 1831/1/3 1832/1/3
f 1833/1/4 1834/1/4 1835/1/4 1836/1/4
f 1837/1/3 1838/1/3 1839/1/3 1840/1/3
f 1841/1/4 1842/1/4 1843/1/4 1844/1/4
f 1845/1/3 1846/1/3 1847/1/3 1848/1/3
f 1849/1/4 1850/1/4 1851/1/4 1852/1/4
f 1853/1/3 1854/1/3 1855/1/3 1856/1/3
f 1857/1/4 1858/1/4 1859/1/4 1860/1/4
f 1861/1/3 1862/1/3 1863/1/3 1864/1/3
f 1865/1/4 1866/1/4 1867/1/4 1868/1/4
f 1869/3/3 1870/3/3 1871/3/3 1872/3/3
f 1873/3/4 1874/3/4 1875/3/4 1876/3/4
f 1877/2/3 1878/2/3 1879/2/3 1880/2/3
f 1881/2/4 1882/2/4 1883/2/4 1884/2/4
f 1885/2/3 1886/2/3 1887/2/3 1888/2/3
f 1889/2/4 1890/2/4 1891/2/4 1892/2/4
f 1893/3/3 1894/3/3 1895/3/3 1896/3/3
f 1897/3/4 1898/3/4 1899/3/4 1900/3/4
f 1901/3/6 1902/3/6 1903/3/6 1904/3/6
f 1905/1/3 1906/1/3 1907/1/3 1908/1/3
f 1909/1/4 1910/1/4 1911/1/4 1912/1/4
f 1913/1/5 1914/1/5 1915/1/5 1916/1/5
f 1917/1/3 1918/1/3 1919/1/3 1920/1/3
f 1921/1/4 1922/1/4 1923/1/4 1924/1/4
f 1925/1/3 1926/1/3 1927/1/3 1928/1/3
f 1929/1/4 1930/1/4 1931/1/4 1932/1/4
f 1933/1/3 1934/1/3 1935/1/3 1936/1/3
f 1937/1/4 1938/1/4 1939/1/4 1940/1/4
f 1941/3/3 1942/3/3 1943/3/3 1944/3/3
f 1945/3/4 1946/3/4 1947/3/4 1948/3/4
f 1949/3/3 1950/3/3 1951/3/3 1952/3/3
f 1953/3/4 1954/3/4 1955/3/4 1956/3/4
f 1957/3/3 1958/3/3 1959/3/3 1960/3/3
f 1961/3/4 1962/3/4 1963/3/4 1964/3/4
f 1965/3/3 1966/3/3 1967/3/3 1968/3/3
f 1969/3/4 1970/3/4 1971/3/4 1972/3/4
f 1973/1/3 1974/1/3 1975/1/3 1976/1/3
f 1977/1/4 1978/1/4 1979/1/4 1980/1/4
f 1981/1/3 1982/1/3 1983/1/3 1984/1/3
f 1985/1/4 1986/1/4 1987/1/4 1988/1/4
f 1989/3/3 1990/3/3 1991/3/3 1992/3/3
f 1993/3/4 1994/3/4 1995/3/4 1996/3/4
f 1997/2/3 1998/2/3 1999/2/3 2000/2/3
f 2001/2/4 2002/2/4 2003/2/4 2004/2/4
f 2005/2/3 2006/2/3 2007/2/3 2008/2/3
f 2009/2/4 2010/2/4 2011/2/4 2012/2/4
f 2013/1/3 2014/1/3 2015/1/3 2016/1/3
f 2017/1/4 2018/1/4 2019/1/4 2020/1/4
f 2021/1/3 2022/1/3 2023/1/3 2024/1/3
f 2025/1/4 2026/1/4 2027/1/4 2028/1/4
f 2029/1/3 2030/1/3 2031/1/3 2032/1/3
f 2033/1/4 2034/1/4 2035/1/4 2036/1/4
f 2037/1/3 2038/1/3 2039/1/3 2040/1/3
f 2041/1/4 2042/1/4 2043/1/4 2044/1/4
f 2045/1/3 2046/1/3 2047/1/3 2048/1/3
f 2049/1/4 2050/1/4 2051/1/4 2052/1/4
f 2053/1/3 2054/1/3 2055/1/3 2056/1/3
f 2057/1/4 2058/1/4 2059/1/4 2060/1/4
f 2061/1/3 2062/1/3 2063/1/3 2064/1/3
f 2065/1/4 2066/1/4 2067/1/4 2068/1/4
f 2069/3/3 2070/3/3 2071/3/3 2072/3/3
f 2073/3/4 2074/3/4 2075/3/4 2076/3/4
f 2077/2/3 2078/2/3 2079/2/3 2080/2/3
f 2081/2/4 2082/2/4 2083/2/4 2084/2/4
f 2085/2/3 2086/2/3 2087/2/3 2088/2/3
f 2089/2/4 2090/2/4 2091/2/4 2092/2/4
f 2093/2/3 2094/2/3 2095/2/3 2096/2/3
f 2097/2/4 2098/2/4 2099/2/4 2100/2/4
f 2101/2/6 2102/2/6 2103/2/6 2104/2/6
f 2105/1/3 2106/1/3 2107/1/3 2108/1/3
f 2109/1/4 2110/1/4 2111/1/4 2112/1/4
f 2113/1/5 2114/1/5 2115/1/5 2116/1/5
f 2117/1/3 2118/1/3 2119/1/3 2120/1/3
f 2121/1/4 2122/1/4 2123/1/4 2124/1/4
f 2125/2/3 2126/2/3 2127/2/3 2128/2/3
f 2129/2/4 2130/2/4 2131/2/4 2132/2/4
f 2133/2/3 2134/2/3 2135/2/3 2136/2/3
f 2137/2/4 2138/2/4 2139/2/4 2140/2/4
f 2141/4/3 2142/4/3 2143/4/3 2144/4/3
f 2145/4/4 2146/4/4 2147/4/4 2148/4/4
f 2149/2/3 2150/2/3 2151/2/3 2152/2/3
f 2153/2/4 2154/2/4 2155/2/4 2156/2/4
f 2157/3/3 2158/3/3 2159/3/3 2160/3/3
f 2161/3/4 2162/3/4 2163/3/4 2164/3/4
f 2165/1/3 2166/1/3 2167/1/3 2168/1/3
f 2169/1/4 2170/1/4 2171/1/4 2172/1/4
f 2173/1/3 2174/1/3 2175/1/3 2176/1/3
f 2177/1/4 2178/1/4 2179/1/4 2180/1/4
f 2181/1/3 2182/1/3 2183/1/3 2184/1/3
f 2185/1/4 2186/1/4 2187/1/4 2188/1/4
f 2189/1/3 2190/1/3 2191/1/3 2192/1/3
f 2193/1/4 2194/1/4 2195/1/4 2196/1/4
f 2197/3/3 2198/3/3 2199/3/3 2200/3/3
f 2201/3/4 2202/3/4 2203/3/4 2204/3/4
f 2205/3/3 2206/3/3 2207/3/3 2208/3/3
f 2209/3/4 2210/3/4 2211/3/4 2212/3/4
f 2213/1/3 2214/1/3 2215/1/3 2216/1/3
f 2217/1/4 2218/1/4 2219/1/4 2220/1/4
f 2221/1/3 2222/1/3 2223/1/3 2224/1/3
f 2225/1/4 2226/1/4 2227/1/4 2228/1/4
f 2229/1/3 2230/1/3 2231/1/3 2232/1/3
f 2233/1/4 2234/1/4 2235/1/4 2236/1/4
f 2237/1/3 2238/1/3 2239/1/3 2240/1/3
f 2241/1/4 2242/1/4 2243/1/4 2244/1/4
f 2245/1/3 2246/1/3 2247/1/3 2248/1/3
f 2249/1/4 2250/1/4 2251/1/4 2252/1/4
f 2253/1/3 2254/1/3 2255/1/3 2256/1/3
f 2257/1/4 2258/1/4 2259/1/4 2260/1/4
f 2261/3/3 2262/3/3 2263/3/3 2264/3/3
f 2265/3/4 2266/3/4 2267/3/4 2268/3/4
f 2269/2/3 2270/2/3 2271/2/3 2272/2/3
f 2273/2/4 2274/2/4 2275/2/4 2276/2/4
f 2277/2/3 2278/2/3 2279/2/3 2280/2/3
f 2281/2/4 2282/2/4 2283/2/4 2284/2/4
f 2285/2/3 2286/2/3 2287/2/3 2288/2/3
f 2289/2/4 2290/2/4 2291/2/4 2292/2/4
f 2293/4/3 2294/4/3 2295/4/3 2296/4/3
f 2297/4/4 2298/4/4 2299/4/4 2300/4/4
f 2301/4/6 2302/4/6 2303/4/6 2304/4/6
f 2305/1/3 2306/1/3 2307/1/3 2308/1/3
f 2309/1/4 2310/1/4 2311/1/4 2312/1/4
f 2313/1/5 2314/1/5 2315/1/5 2316/1/5
f 2317/2/3 2318/2/3 2319/2/3 2320/2/3
f 2321/2/4 2322/2/4 2323/2/4 2324/2/4
f 2325/4/3 2326/4/3 2327/4/3 2328/4/3
f 2329/4/4 2330/4/4 2331/4/4 2332/4/4
f 2333/4/3 2334/4/3 2335/4/3 2336/4/3
f 2337/4/4 2338/4/4 2339/4/4 2340/4/4
f 2341/4/3 2342/4/3 2343/4/3 2344/4/3
f 2345/4/4 2346/4/4 2347/4/4 2348/4/4
f 2349/3/3 2350/3/3 2351/3/3 2352/3/3
f 2353/3/4 2354/3/4 2355/3/4 2356/3/4
f 2357/1/3 2358/1/3 2359/1/3 2360/1/3
f 2361/1/4 2362/1/4 2363/1/4 2364/1/4
f 2365/1/3 2366/1/3 2367/1/3 2368/1/3
f 2369/1/4 2370/1/4 2371/1/4 2372/1/4
f 2373/1/3 2374/1/3 2375/1/3 2376/1/3
f 2377/1/4 2378/1/4 2379/1/4 2380/1/4
f 2381/1/3 2382/1/3 2383/1/3 2384/1/3
f 2385/1/4 2386/1/4 2387/1/4 2388/1/4
f 2389/1/3 2390/1/3 2391/1/3 2392/1/3
f 2393/1/4 2394/1/4 2395/1/4 2396/1/4
f 2397/1/3 2398/1/3 2399/1/3 2400/1/3
f 2401/1/4 2402/1/4 2403/1/4 2404/1/4
f 2405/1/3 2406/1/3 2407/1/3 2408/1/3
f 2409/1/4 2410/1/4 2411/1/4 2412/1/4
f 2413/1/3 2414/1/3 2415/1/3 2416/1/3
f 2417/1/4 2418/1/4 2419/1/4 2420/1/4
f 2421/1/3 2422/1/3 2423/1/3 2424/1/3
f 2425/1/4 2426/1/4 2427/1/4 2428/1/4
f 2429/1/3 2430/1/3 2431/1/3 2432/1/3
f 2433/1/4 2434/1/4 2435/1/4 2436/1/4
f 2437/1/3 2438/1/3 2439/1/3 2440/1/3
f 2441/1/4 2442/1/4 2443/1/4 2444/1/4
f 2445/1/3 2446/1/3 2447/1/3 2448/1/3
f 2449/1/4 2450/1/4 2451/1/4 2452/1/4
f 2453/1/3 2454/1/3 2455/1/3 2456/1/3
f 2457/1/4 2458/1/4 2459/1/4 2460/1/4
f 2461/3/3 2462/3/3 2463/3/3 2464/3/3
f 2465/3/4 2466/3/4 2467/3/4 2468/3/4
f 2469/3/3 2470/3/3 2471/3/3 2472/3/3
f 2473/3/4 2474/3/4 2475/3/4 2476/3/4
f 2477/2/3 2478/2/3 2479/2/3 2480/2/3
f 2481/2/4 2482/2/4 2483/2/4 2484/2/4
f 2485/4/3 2486/4/3 2487/4/3 2488/4/3
f 2489/4/4 2490/4/4 2491/4/4 2492/4/4
f 2493/4/3 2494/4/3 2495/4/3 2496/4/3
f 2497/4/4 2498/4/4 2499/4/4 2500/4/4
f 2501/4/6 2502/4/6 2503/4/6 2504/4/6
f 2505/3/3 2506/3/3 2507/3/3 2508/3/3
f 2509/3/4 2510/3/4 2511/3/4 2512/3/4
f 2513/3/5 2514/3/5 2515/3/5 2516/3/5
f 2517/4/3 2518/4/3 2519/4/3 2520/4/3
f 2521/4/4 2522/4/4 2523/4/4 2524/4/4
f 2525/4/3 2526/4/3 2527/4/3 2528/4/3
f 2529/4/4 2530/4/4 2531/4/4 2532/4/4
f 2533/4/3 2534/4/3 2535/4/3 2536/4/3
f 2537/4/4 2538/4/4 2539/4/4 2540/4/4
f 2541/2/3 2542/2/3 2543/2/3 2544/2/3
f 2545/2/4 2546/2/4 2547/2/4 2548/2/4
f 2549/1/3 2550/1/3 2551/1/3 2552/1/3
f 2553/1/4 2554/1/4 2555/1/4 2556/1/4
f 2557/1/3 2558/1/3 2559/1/3 2560/1/3
f 2561/1/4 2562/1/4 2563/1/4 2564/1/4
f 2565/1/3 2566/1/3 2567/1/3 2568/1/3
f 2569/1/4 2570/1/4 2571/1/4 2572/1/4
f 2573/1/3 2574/1/3 2575/1/3 2576/1/3
f 2577/1/4 2578/1/4 2579/1/4 2580/1/4
f 2581/1/3 2582/1/3 2583/1/3 2584/1/3
f 2585/1/4 2586/1/4 2587/1/4 2588/1/4
f 2589/1/3 2590/1/3 2591/1/3 2592/1/3
f 2593/1/4 2594/1/4 2595/1/4 2596/1/4
f 2597/1/3 2598/1/3 2599/1/3 2600/1/3
f 2601/1/4 2602/1/4 2603/1/4 2604/1/4
f 2605/1/3 2606/1/3 2607/1/3 2608/1/3
f 2609/1/4 2610/1/4 2611/1/4 2612/1/4
f 2613/1/3 2614/1/3 2615/1/3 2616/1/3
f 2617/1/4 2618/1/4 2619/1/4 2620/1/4
f 2621/1/3 2622/1/3 2623/1/3 2624/1/3
f 2625/1/4 2626/1/4 2627/1/4 2628/1/4
f 2629/1/3 2630/1/3 2631/1/3 2632/1/3
f 2633/1/4 2634/1/4 2635/1/4 2636/1/4
f 2637/1/3 2638/1/3 2639/1/3 2640/1/3
f 2641/1/4 2642/1/4 2643/1/4 2644/1/4
f 2645/3/3 2646/3/3 2647/3/3 2648/3/3
f 2649/3/4 2650/3/4 2651/3/4 2652/3/4
f 2653/1/3 2654/1/3 2655/1/3 2656/1/3
f 2657/1/4 2658/1/4 2659/1/4 2660/1/4
f 2661/1/3 2662/1/3 2663/1/3 2664/1/3
f 2665/1/4 2666/1/4 2667/1/4 2668/1/4
f 2669/1/3 2670/1/3 2671/1/3 2672/1/3
f 2673/1/4 2674/1/4 2675/1/4 2676/1/4
f 2677/2/3 2678/2/3 2679/2/3 2680/2/3
f 2681/2/4 2682/2/4 2683/2/4 2684/2/4
f 2685/4/3 2686/4/3 2687/4/3 2688/4/3
f 2689/4/4 2690/4/4 2691/4/4 2692/4/4
f 2693/4/3 2694/4/3 2695/4/3 2696/4/3
f 2697/4/4 2698/4/4 2699/4/4 2700/4/4
f 2701/4/6 2702/4/6 2703/4/6 2704/4/6
f 2705/2/3 2706/2/3 2707/2/3 2708/2/3
f 2709/2/4 2710/2/4 2711/2/4 2712/2/4
f 2713/2/5 2714/2/5 2715/2/5 2716/2/5
f 2717/4/3 2718/4/3 2719/4/3 2720/4/3
f 2721/4/4 2722/4/4 2723/4/4 2724/4/4
f 2725/4/3 2726/4/3 2727/4/3 2728/4/3
f 2729/4/4 2730/4/4 2731/4/4 2732/4/4
f 2733/4/3 2734/4/3 2735/4/3 2736/4/3
f 2737/4/4 2738/4/4 2739/4/4 2740/4/4
f 2741/3/3 2742/3/3 2743/3/3 2744/3/3
f 2745/3/4 2746/3/4 2747/3/4 2748/3/4
f 2749/1/3 2750/1/3 2751/1/3 2752/1/3
f 2753/1/4 2754/1/4 2755/1/4 2756/1/4
f 2757/1/3 2758/1/3 2759/1/3 2760/1/3
f 2761/1/4 2762/1/4 2763/1/4 2764/1/4
f 2765/1/3 2766/1/3 2767/1/3 2768/1/3
f 2769/1/4 2770/1/4 2771/1/4 2772/1/4
f 2773/1/3 2774/1/3 2775/1/3 2776/1/3
f 2777/1/4 2778/1/4 2779/1/4 2780/1/4
f 2781/1/3 2782/1/3 2783/1/3 2784/1/3
f 2785/1/4 2786/1/4 2787/1/4 2788/1/4
f 2789/1/3 2790/1/3 2791/1/3 2792/1/3
f 2793/1/4 2794/1/4 2795/1/4 2796/1/4
f 2797/1/3 2798/1/3 2799/1/3 2800/1/3
f 2801/1/4 2802/1/4 2803/1/4 2804/1/4
f 2805/1/3 2806/1/3 2807/1/3 2808/1/3
f 2809/1/4 2810/1/4 2811/1/4 2812/1/4
f 2813/1/3 2814/1/3 2815/1/3 2816/1/3
f 2817/1/4 2818/1/4 2819/1/4 2820/1/4
f 2821/2/3 2822/2/3 2823/2/3 2824/2/3
f 2825/2/4 2826/2/4 2827/2/4 2828/2/4
f 2829/2/3 2830/2/3 2831/2/3 2832/2/3
f 2833/2/4 2834/2/4 2835/2/4 2836/2/4
f 2837/2/3 2838/2/3 2839/2/3 2840/2/3
f 2841/2/4 2842/2/4 2843/2/4 2844/2/4
f 2845/3/3 2846/3/3 2847/3/3 2848/3/3
f 2849/3/4 2850/3/4 2851/3/4 2852/3/4
f 2853/1/3 2854/1/3 2855/1/3 2856/1/3
f 2857/1/4 2858/1/4 2859/1/4 2860/1/4
f 2861/1/3 2862/1/3 2863/1/3 2864/1/3
f 2865/1/4 2866/1/4 2867/1/4 2868/1/4
f 2869/1/3 2870/1/3 2871/1/3 2872/1/3
f 2873/1/4 2874/1/4 2875/1/4 2876/1/4
f 2877/2/3 2878/2/3 2879/2/3 2880/2/3
f 2881/2/4 2882/2/4 2883/2/4 2884/2/4
f 2885/2/3 2886/2/3 2887/2/3 2888/2/3
f 2889/2/4 2890/2/4 2891/2/4 2892/2/4
f 2893/2/3 2894/2/3 2895/2/3 2896/2/3
f 2897/2/4 2898/2/4 2899/2/4 2900/2/4
f 2901/2/6 2902/2/6 2903/2/6 2904/2/6
f 2905/2/3 2906/2/3 2907/2/3 2908/2/3
f 2909/2/4 2910/2/4 2911/2/4 2912/2/4
f 2913/2/5 2914/2/5 2915/2/5 2916/2/5
f 2917/4/3 2918/4/3 2919/4/3 2920/4/3
f 2921/4/4 2922/4/4 2923/4/4 2924/4/4
f 2925/2/3 2926/2/3 2927/2/3 2928/2/3
f 2929/2/4 2930/2/4 2931/2/4 2932/2/4
f 2933/3/3 2934/3/3 2935/3/3 2936/3/3
f 2937/3/4 2938/3/4 2939/3/4 2940/3/4
f 2941/1/3 2942/1/3 2943/1/3 2944/1/3
f 2945/1/4 2946/1/4 2947/1/4 2948/1/4
f 2949/1/3 2950/1/3 2951/1/3 2952/1/3
f 2953/1/4 2954/1/4 2955/1/4 2956/1/4
f 2957/1/3 2958/1/3 2959/1/3 2960/1/3
f 2961/1/4 2962/1/4 2963/1/4 2964/1/4
f 2965/1/3 2966/1/3 2967/1/3 2968/1/3
f 2969/1/4 2970/1/4 2971/1/4 2972/1/4
f 2973/1/3 2974/1/3 2975/1/3 2976/1/3
f 2977/1/4 2978/1/4 2979/1/4 2980/1/4
f 2981/1/3 2982/1/3 2983/1/3 2984/1/3
f 2985/1/4 2986/1/4 2987/1/4 2988/1/4
f 2989/1/3 2990/1/3 2991/1/3 2992/1/3
f 2993/1/4 2994/1/4 2995/1/4 2996/1/4
f 2997/1/3 2998/1/3 2999/1/3 3000/1/3
f 3001/1/4 3002/1/4 3003/1/4 3004/1/4
f 3005/1/3 3006/1/3 3007/1/3 3008/1/3
f 3009/1/4 3010/1/4 3011/1/4 3012/1/4
f 3013/2/3 3014/2/3 3015/2/3 3016/2/3
f 3017/2/4 3018/2/4 3019/2/4 3020/2/4
f 3021/4/3 3022/4/3 3023/4/3 3024/4/3
f 3025/4/4 3026/4/4 3027/4/4 3028/4/4
f 3029/4/3 3030/4/3 3031/4/3 3032/4/3
f 3033/4/4 3034/4/4 3035/4/4 3036/4/4
f 3037/2/3 3038/2/3 3039/2/3 3040/2/3
f 3041/2/4 3042/2/4 3043/2/4 3044/2/4
f 3045/1/3 3046/1/3 3047/1/3 3048/1/3
f 3049/1/4 3050/1/4 3051/1/4 3052/1/4
f 3053/1/3 3054/1/3 3055/1/3 3056/1/3
f 3057/1/4 3058/1/4 3059/1/4 3060/1/4
f 3061/1/3 3062/1/3 3063/1/3 3064/1/3
f 3065/1/4 3066/1/4 3067/1/4 3068/1/4
f 3069/1/3 3070/1/3 3071/1/3 3072/1/3
f 3073/1/4 3074/1/4 3075/1/4 3076/1/4
f 3077/3/3 3078/3/3 3079/3/3 3080/3/3
f 3081/3/4 3082/3/4 3083/3/4 3084/3/4
f 3085/3/3 3086/3/3 3087/3/3 3088/3/3
f 3089/3/4 3090/3/4 3091/3/4 3092/3/4
f 3093/1/3 3094/1/3 3095/1/3 3096/1/3
f 3097/1/4 3098/1/4 3099/1/4 3100/1/4
f 3101/1/6 3102/1/6 3103/1/6 3104/1/6
f 3105/3/3 3106/3/3 3107/3/3 3108/3/3
f 3109/3/4 3110/3/4 3111/3/4 3112/3/4
f 3113/3/5 3114/3/5 3115/3/5 3116/3/5
f 3117/3/3 3118/3/3 3119/3/3 3120/3/3
f 3121/3/4 3122/3/4 3123/3/4 3124/3/4
f 3125/1/3 3126/1/3 3127/1/3 3128/1/3
f 3129/1/4 3130/1/4 3131/1/4 3132/1/4
f 3133/1/3 3134/1/3 3135/1/3 3136/1/3
f 3137/1/4 3138/1/4 3139/1/4 3140/1/4
f 3141/1/3 3142/1/3 3143/1/3 3144/1/3
f 3145/1/4 3146/1/4 3147/1/4 3148/1/4
f 3149/1/3 3150/1/3 3151/1/3 3152/1/3
f 3153/1/4 3154/1/4 3155/1/4 3156/1/4
f 3157/1/3 3158/1/3 3159/1/3 3160/1/3
f 3161/1/4 3162/1/4 3163/1/4 3164/1/4
f 3165/1/3 3166/1/3 3167/1/3 3168/1/3
f 3169/1/4 3170/1/4 3171/1/4 3172/1/4
f 3173/1/3 3174/1/3 3175/1/3 3176/1/3
f 3177/1/4 3178/1/4 3179/1/4 3180/1/4
f 3181/1/3 3182/1/3 3183/1/3 3184/1/3
f 3185/1/4 3186/1/4 3187/1/4 3188/1/4
f 3189/1/3 3190/1/3 3191/1/3 3192/1/3
f 3193/1/4 3194/1/4 3195/1/4 3196/1/4
f 3197/1/3 3198/1/3 3199/1/3 3200/1/3
f 3201/1/4 3202/1/4 3203/1/4 3204/1/4
f 3205/2/3 3206/2/3 3207/2/3 3208/2/3
f 3209/2/4 3210/2/4 3211/2/4 3212/2/4
f 3213/4/3 3214/4/3 3215/4/3 3216/4/3
f 3217/4/4 3218/4/4 3219/4/4 3220/4/4
f 3221/4/3 3222/4/3 3223/4/3 3224/4/3
f 3225/4/4 3226/4/4 3227/4/4 3228/4/4
f 3229/4/3 3230/4/3 3231/4/3 3232/4/3
f 3233/4/4 3234/4/4 3235/4/4 3236/4/4
f 3237/2/3 3238/2/3 3239/2/3 3240/2/3
f 3241/2/4 3242/2/4 3243/2/4 3244/2/4
f 3245/1/3 3246/1/3 3247/1/3 3248/1/3
f 3249/1/4 3250/1/4 3251/1/4 3252/1/4
f 3253/1/3 3254/1/3 3255/1/3 3256/1/3
f 3257/1/4 3258/1/4 3259/1/4 3260/1/4
f 3261/1/3 3262/1/3 3263/1/3 3264/1/3
f 3265/1/4 3266/1/4 3267/1/4 3268/1/4
f 3269/1/3 3270/1/3 3271/1/3 3272/1/3
f 3273/1/4 3274/1/4 3275/1/4 3276/1/4
f 3277/1/3 3278/1/3 3279/1/3 3280/1/3
f 3281/1/4 3282/1/4 3283/1/4 3284/1/4
f 3285/1/3 3286/1/3 3287/1/3 3288/1/3
f 3289/1/4 3290/1/4 3291/1/4 3292/1/4
f 3293/1/3 3294/1/3 3295/1/3 3296/1/3
f 3297/1/4 3298/1/4 3299/1/4 3300/1/4
f 3301/1/6 3302/1/6 3303/1/6 3304/1/6
f 3305/1/3 3306/1/3 3307/1/3 3308/1/3
f 3309/1/4 3310/1/4 3311/1/4 3312/1/4
f 3313/1/5 3314/1/5 3315/1/5 3316/1/5
f 3317/1/3 3318/1/3 3319/1/3 3320/1/3
f 3321/1/4 3322/1/4 3323/1/4 3324/1/4
f 3325/1/3 3326/1/3 3327/1/3 3328/1/3
f 3329/1/4 3330/1/4 3331/1/4 3332/1/4
f 3333/1/3 3334/1/3 3335/1/3 3336/1/3
f 3337/1/4 3338/1/4 3339/1/4 3340/1/4
f 3341/1/3 3342/1/3 3343/1/3 3344/1/3
f 3345/1/4 3346/1/4 3347/1/4 3348/1/4
f 3349/1/3 3350/1/3 3351/1/3 3352/1/3
f 3353/1/4 3354/1/4 3355/1/4 3356/1/4
f 3357/1/3 3358/1/3 3359/1/3 3360/1/3
f 3361/1/4 3362/1/4 3363/1/4 3364/1/4
f 3365/1/3 3366/1/3 3367/1/3 3368/1/3
f 3369/1/4 3370/1/4 3371/1/4 3372/1/4
f 3373/1/3 3374/1/3 3375/1/3 3376/1/3
f 3377/1/4 3378/1/4 3379/1/4 3380/1/4
f 3381/1/3 3382/1/3 3383/1/3 3384/1/3
f 3385/1/4 3386/1/4 3387/1/4 3388/1/4
f 3389/1/3 3390/1/3 3391/1/3 3392/1/3
f 3393/1/4 3394/1/4 3395/1/4 3396/1/4
f 3397/3/3 3398/3/3 3399/3/3 3400/3/3
f 3401/3/4 3402/3/4 3403/3/4 3404/3/4
f 3405/4/3 3406/4/3 3407/4/3 3408/4/3
f 3409/4/4 3410/4/4 3411/4/4 3412/4/4
f 3413/4/3 3414/4/3 3415/4/3 3416/4/3
f 3417/4/4 3418/4/4 3419/4/4 3420/4/4
f 3421/4/3 3422/4/3 3423/4/3 3424/4/3
f 3425/4/4 3426/4/4 3427/4/4 3428/4/4
f 3429/2/3 3430/2/3 3431/2/3 3432/2/3
f 3433/2/4 3434/2/4 3435/2/4 3436/2/4
f 3437/3/3 3438/3/3 3439/3/3 3440/3/3
f 3441/3/4 3442/3/4 3443/3/4 3444/3/4
f 3445/1/3 3446/1/3 3447/1/3 3448/1/3
f 3449/1/4 3450/1/4 3451/1/4 3452/1/4
f 3453/1/3 3454/1/3 3455/1/3 3456/1/3
f 3457/1/4 3458/1/4 3459/1/4 3460/1/4
f 3461/1/3 3462/1/3 3463/1/3 3464/1/3
f 3465/1/4 3466/1/4 3467/1/4 3468/1/4
f 3469/1/3 3470/1/3 3471/1/3 3472/1/3
f 3473/1/4 3474/1/4 3475/1/4 3476/1/4
f 3477/1/3 3478/1/3 3479/1/3 3480/1/3
f 3481/1/4 3482/1/4 3483/1/4 3484/1/4
f 3485/1/3 3486/1/3 3487/1/3 3488/1/3
f 3489/1/4 3490/1/4 3491/1/4 3492/1/4
f 3493/1/3 3494/1/3 3495/1/3 3496/1/3
f 3497/1/4 3498/1/4 3499/1/4 3500/1/4
f 3501/1/6 3502/1/6 3503/1/6 3504/1/6
f 3505/1/3 3506/1/3 3507/1/3 3508/1/3
f 3509/1/4 3510/1/4 3511/1/4 3512/1/4
f 3513/1/5 3514/1/5 3515/1/5 3516/1/5
f 3517/1/3 3518/1/3 3519/1/3 3520/1/3
f 3521/1/4 3522/1/4 3523/1/4 3524/1/4
f 3525/1/3 3526/1/3 3527/1/3 3528/1/3
f 3529/1/4 3530/1/4 3531/1/4 3532/1/4
f 3533/1/3 3534/1/3 3535/1/3 3536/1/3
f 3537/1/4 3538/1/4 3539/1/4 3540/1/4
f 3541/1/3 3542/1/3 3543/1/3 3544/1/3
f 3545/1/4 3546/1/4 3547/1/4 3548/1/4
f 3549/1/3 3550/1/3 3551/1/3 3552/1/3
f 3553/1/4 3554/1/4 3555/1/4 3556/1/4
f 3557/1/3 3558/1/3 3559/1/3 3560/1/3
f 3561/1/4 3562/1/4 3563/1/4 3564/1/4
f 3565/1/3 3566/1/3 3567/1/3 3568/1/3
f 3569/1/4 3570/1/4 3571/1/4 3572/1/4
f 3573/1/3 3574/1/3 3575/1/3 3576/1/3
f 3577/1/4 3578/1/4 3579/1/4 3580/1/4
f 3581/1/3 3582/1/3 3583/1/3 3584/1/3
f 3585/1/4 3586/1/4 3587/1/4 3588/1/4
f 3589/1/3 3590/1/3 3591/1/3 3592/1/3
f 3593/1/4 3594/1/4 3595/1/4 3596/1/4
f 3597/2/3 3598/2/3 3599/2/3 3600/2/3
f 3601/2/4 3602/2/4 3603/2/4 3604/2/4
f 3605/4/3 3606/4/3 3607/4/3 3608/4/3
f 3609/4/4 3610/4/4 3611/4/4 3612/4/4
f 3613/4/3 3614/4/3 3615/4/3 3616/4/3
f 3617/4/4 3618/4/4 3619/4/4 3620/4/4
f 3621/2/3 3622/2/3 3623/2/3 3624/2/3
f 3625/2/4 3626/2/4 3627/2/4 3628/2/4
f 3629/3/3 3630/3/3 3631/3/3 3632/3/3
f 3633/3/4 3634/3/4 3635/3/4 3636/3/4
f 3637/3/3 3638/3/3 3639/3/3 3640/3/3
f 3641/3/4 3642/3/4 3643/3/4 3644/3/4
f 3645/1/3 3646/1/3 3647/1/3 3648/1/3
f 3649/1/4 3650/1/4 3651/1/4 3652/1/4
f 3653/1/3 3654/1/3 3655/1/3 3656/1/3
f 3657/1/4 3658/1/4 3659/1/4 3660/1/4
f 3661/1/3 3662/1/3 3663/1/3 3664/1/3
f 3665/1/4 3666/1/4 3667/1/4 3668/1/4
f 3669/1/3 3670/1/3 3671/1/3 3672/1/3
f 3673/1/4 3674/1/4 3675/1/4 3676/1/4
f 3677/1/3 3678/1/3 3679/1/3 3680/1/3
f 3681/1/4 3682/1/4 3683/1/4 3684/1/4
f 3685/1/3 3686/1/3 3687/1/3 3688/1/3
f 3689/1/4 3690/1/4 3691/1/4 3692/1/4
f 3693/1/3 3694/1/3 3695/1/3 3696/1/3
f 3697/1/4 3698/1/4 3699/1/4 3700/1/4
f 3701/1/6 3702/1/6 3703/1/6 3704/1/6
f 3705/1/2 3706/1/2 3707/1/2 3708/1/2
f 3709/1/3 3710/1/3 3711/1/3 3712/1/3
f 3713/1/4 3714/1/4 3715/1/4 3716/1/4
f 3717/1/5 3718/1/5 3719/1/5 3720/1/5
f 3721/1/2 3722/1/2 3723/1/2 3724/1/2
f 3725/1/3 3726/1/3 3727/1/3 3728/1/3
f 3729/1/4 3730/1/4 3731/1/4 3732/1/4
f 3733/1/2 3734/1/2 3735/1/2 3736/1/2
f 3737/1/3 3738/1/3 3739/1/3 3740/1/3
f 3741/1/4 3742/1/4 3743/1/4 3744/1/4
f 3745/1/2 3746/1/2 3747/1/2 3748/1/2
f 3749/1/3 3750/1/3 3751/1/3 3752/1/3
f 3753/1/4 3754/1/4 3755/1/4 3756/1/4
f 3757/3/2 3758/3/2 3759/3/2 3760/3/2
f 3761/3/3 3762/3/3 3763/3/3 3764/3/3
f 3765/3/4 3766/3/4 3767/3/4 3768/3/4
f 3769/3/2 3770/3/2 3771/3/2 3772/3/2
f 3773/3/3 3774/3/3 3775/3/3 3776/3/3
f 3777/3/4 3778/3/4 3779/3/4 3780/3/4
f 3781/1/2 3782/1/2 3783/1/2 3784/1/2
f 3785/1/3 3786/1/3 3787/1/3 3788/1/3
f 3789/1/4 3790/1/4 3791/1/4 3792/1/4
f 3793/1/2 3794/1/2 3795/1/2 3796/1/2
f 3797/1/3 3798/1/3 3799/1/3 3800/1/3
f 3801/1/4 3802/1/4 3803/1/4 3804/1/4
f 3805/1/2 3806/1/2 3807/1/2 3808/1/2
f 3809/1/3 3810/1/3 3811/1/3 3812/1/3
f 3813/1/4 3814/1/4 3815/1/4 3816/1/4
f 3817/3/2 3818/3/2 3819/3/2 3820/3/2
f 3821/3/3 3822/3/3 3823/3/3 3824/3/3
f 3825/3/4 3826/3/4 3827/3/4 3828/3/4
f 3829/3/2 3830/3/2 3831/3/2 3832/3/2
f 3833/3/3 3834/3/3 3835/3/3 3836/3/3
f 3837/3/4 3838/3/4 3839/3/4 3840/3/4
f 3841/2/2 3842/2/2 3843/2/2 3844/2/2
f 3845/2/3 3846/2/3 3847/2/3 3848/2/3
f 3849/2/4 3850/2/4 3851/2/4 3852/2/4
f 3853/2/2 3854/2/2 3855/2/2 3856/2/2
f 3857/2/3 3858/2/3 3859/2/3 3860/2/3
f 3861/2/4 3862/2/4 3863/2/4 3864/2/4
f 3865/3/2 3866/3/2 3867/3/2 3868/3/2
f 3869/3/3 3870/3/3 3871/3/3 3872/3/3
f 3873/3/4 3874/3/4 3875/3/4 3876/3/4
f 3877/3/2 3878/3/2 3879/3/2 3880/3/2
f 3881/3/3 3882/3/3 3883/3/3 3884/3/3
f 3885/3/4 3886/3/4 3887/3/4 3888/3/4
f 3889/3/2 3890/3/2 3891/3/2 3892/3/2
f 3893/3/3 3894/3/3 3895/3/3 3896/3/3
f 3897/3/4 3898/3/4 3899/3/4 3900/3/4
f 3901/1/2 3902/1/2 3903/1/2 3904/1/2
f 3905/1/3 3906/1/3 3907/1/3 3908/1/3
f 3909/1/4 3910/1/4 3911/1/4 3912/1/4
f 3913/1/2 3914/1/2 3915/1/2 3916/1/2
f 3917/1/3 3918/1/3 3919/1/3 3920/1/3
f 3921/1/4 3922/1/4 3923/1/4 3924/1/4
f 3925/1/2 3926/1/2 3927/1/2 3928/1/2
f 3929/1/3 3930/1/3 3931/1/3 3932/1/3
f 3933/1/4 3934/1/4 3935/1/4 3936/1/4
f 3937/1/2 3938/1/2 3939/1/2 3940/1/2
f 3941/1/3 3942/1/3 3943/1/3 3944/1/3
f 3945/1/4 3946/1/4 3947/1/4 3948/1/4
f 3949/1/2 3950/1/2 3951/1/2 3952/1/2
f 3953/1/3 3954/1/3 3955/1/3 3956/1/3
f 3957/1/4 3958/1/4 3959/1/4 3960/1/4
f 3961/1/2 3962/1/2 3963/1/2 3964/1/2
f 3965/1/3 3966/1/3 3967/1/3 3968/1/3
f 3969/1/4 3970/1/4 3971/1/4 3972/1/4
f 3973/1/2 3974/1/2 3975/1/2 3976/1/2
f 3977/1/3 3978/1/3 3979/1/3 3980/1/3
f 3981/1/4 3982/1/4 3983/1/4 3984/1/4
f 3985/1/2 3986/1/2 3987/1/2 3988/1/2
f 3989/1/3 3990/1/3 3991/1/3 3992/1/3
f 3993/1/4 3994/1/4 3995/1/4 3996/1/4
f 3997/1/6 3998/1/6 3999/1/6 4000/1/6

