# generated by vox_to_obj_exporter
# scale=0.1 center=true ground=true y_up=false

mtllib lava_25_12_f2.mtl
usemtl palette

# normals
vn -1 0 0
vn 1 0 0
vn 0 0 1
vn 0 0 -1
vn 0 -1 0
vn 0 1 0

# texcoords
vt 0.001953125 0.5
vt 0.068359375 0.5
vt 0.044921875 0.5
vt 0.021484375 0.5

# verts
v -0.6 0.55 0.1
v -0.6 0.55 0
v -0.6 0.45 0
v -0.6 0.45 0.1
v -0.6 0.55 0.1
v -0.6 0.45 0.1
v -0.5 0.45 0.1
v -0.5 0.55 0.1
v -0.6 0.45 0
v -0.6 0.55 0
v -0.5 0.55 0
v -0.5 0.45 0
v -0.6 0.45 0.1
v -0.6 0.45 0
v -0.5 0.45 0
v -0.5 0.45 0.1
v -0.5 0.55 0.1
v -0.5 0.55 0
v -0.6 0.55 0
v -0.6 0.55 0.1
v -0.5 0.05 0.1
v -0.5 0.05 0
v -0.5 -0.05 0
v -0.5 -0.05 0.1
v -0.5 0.05 0.1
v -0.5 -0.05 0.1
v -0.4 -0.05 0.1
v -0.4 0.05 0.1
v -0.5 -0.05 0
v -0.5 0.05 0
v -0.4 0.05 0
v -0.4 -0.05 0
v -0.5 -0.05 0.1
v -0.5 -0.05 0
v -0.4 -0.05 0
v -0.4 -0.05 0.1
v -0.5 0.15 0.1
v -0.5 0.15 0
v -0.5 0.05 0
v -0.5 0.05 0.1
v -0.5 0.15 0.1
v -0.5 0.05 0.1
v -0.4 0.05 0.1
v -0.4 0.15 0.1
v -0.5 0.05 0
v -0.5 0.15 0
v -0.4 0.15 0
v -0.4 0.05 0
v -0.5 0.25 0.1
v -0.5 0.25 0
v -0.5 0.15 0
v -0.5 0.15 0.1
v -0.5 0.25 0.1
v -0.5 0.15 0.1
v -0.4 0.15 0.1
v -0.4 0.25 0.1
v -0.5 0.15 0
v -0.5 0.25 0
v -0.4 0.25 0
v -0.4 0.15 0
v -0.5 0.35 0.1
v -0.5 0.35 0
v -0.5 0.25 0
v -0.5 0.25 0.1
v -0.5 0.35 0.1
v -0.5 0.25 0.1
v -0.4 0.25 0.1
v -0.4 0.35 0.1
v -0.5 0.25 0
v -0.5 0.35 0
v -0.4 0.35 0
v -0.4 0.25 0
v -0.5 0.45 0.1
v -0.5 0.45 0
v -0.5 0.35 0
v -0.5 0.35 0.1
v -0.5 0.45 0.1
v -0.5 0.35 0.1
v -0.4 0.35 0.1
v -0.4 0.45 0.1
v -0.5 0.35 0
v -0.5 0.45 0
v -0.4 0.45 0
v -0.4 0.35 0
v -0.5 0.55 0.1
v -0.5 0.45 0.1
v -0.4 0.45 0.1
v -0.4 0.55 0.1
v -0.5 0.45 0
v -0.5 0.55 0
v -0.4 0.55 0
v -0.4 0.45 0
v -0.4 0.55 0.1
v -0.4 0.55 0
v -0.5 0.55 0
v -0.5 0.55 0.1
v -0.4 -0.05 0.1
v -0.4 -0.05 0
v -0.4 -0.15 0
v -0.4 -0.15 0.1
v -0.4 -0.05 0.1
v -0.4 -0.15 0.1
v -0.3 -0.15 0.1
v -0.3 -0.05 0.1
v -0.4 -0.15 0
v -0.4 -0.05 0
v -0.3 -0.05 0
v -0.3 -0.15 0
v -0.4 -0.15 0.1
v -0.4 -0.15 0
v -0.3 -0.15 0
v -0.3 -0.15 0.1
v -0.4 0.05 0.1
v -0.4 -0.05 0.1
v -0.3 -0.05 0.1
v -0.3 0.05 0.1
v -0.4 -0.05 0
v -0.4 0.05 0
v -0.3 0.05 0
v -0.3 -0.05 0
v -0.4 0.15 0.1
v -0.4 0.05 0.1
v -0.3 0.05 0.1
v -0.3 0.15 0.1
v -0.4 0.05 0
v -0.4 0.15 0
v -0.3 0.15 0
v -0.3 0.05 0
v -0.4 0.25 0.1
v -0.4 0.15 0.1
v -0.3 0.15 0.1
v -0.3 0.25 0.1
v -0.4 0.15 0
v -0.4 0.25 0
v -0.3 0.25 0
v -0.3 0.15 0
v -0.4 0.35 0.1
v -0.4 0.25 0.1
v -0.3 0.25 0.1
v -0.3 0.35 0.1
v -0.4 0.25 0
v -0.4 0.35 0
v -0.3 0.35 0
v -0.3 0.25 0
v -0.4 0.45 0.1
v -0.4 0.35 0.1
v -0.3 0.35 0.1
v -0.3 0.45 0.1
v -0.4 0.35 0
v -0.4 0.45 0
v -0.3 0.45 0
v -0.3 0.35 0
v -0.4 0.55 0.1
v -0.4 0.45 0.1
v -0.3 0.45 0.1
v -0.3 0.55 0.1
v -0.4 0.45 0
v -0.4 0.55 0
v -0.3 0.55 0
v -0.3 0.45 0
v -0.3 0.55 0.1
v -0.3 0.55 0
v -0.4 0.55 0
v -0.4 0.55 0.1
v -0.3 -0.15 0.1
v -0.3 -0.15 0
v -0.3 -0.25 0
v -0.3 -0.25 0.1
v -0.3 -0.15 0.1
v -0.3 -0.25 0.1
v -0.2 -0.25 0.1
v -0.2 -0.15 0.1
v -0.3 -0.25 0
v -0.3 -0.15 0
v -0.2 -0.15 0
v -0.2 -0.25 0
v -0.3 -0.25 0.1
v -0.3 -0.25 0
v -0.2 -0.25 0
v -0.2 -0.25 0.1
v -0.3 -0.05 0.1
v -0.3 -0.15 0.1
v -0.2 -0.15 0.1
v -0.2 -0.05 0.1
v -0.3 -0.15 0
v -0.3 -0.05 0
v -0.2 -0.05 0
v -0.2 -0.15 0
v -0.3 0.05 0.1
v -0.3 -0.05 0.1
v -0.2 -0.05 0.1
v -0.2 0.05 0.1
v -0.3 -0.05 0
v -0.3 0.05 0
v -0.2 0.05 0
v -0.2 -0.05 0
v -0.3 0.15 0.1
v -0.3 0.05 0.1
v -0.2 0.05 0.1
v -0.2 0.15 0.1
v -0.3 0.05 0
v -0.3 0.15 0
v -0.2 0.15 0
v -0.2 0.05 0
v -0.3 0.25 0.1
v -0.3 0.15 0.1
v -0.2 0.15 0.1
v -0.2 0.25 0.1
v -0.3 0.15 0
v -0.3 0.25 0
v -0.2 0.25 0
v -0.2 0.15 0
v -0.3 0.35 0.1
v -0.3 0.25 0.1
v -0.2 0.25 0.1
v -0.2 0.35 0.1
v -0.3 0.25 0
v -0.3 0.35 0
v -0.2 0.35 0
v -0.2 0.25 0
v -0.3 0.45 0.1
v -0.3 0.35 0.1
v -0.2 0.35 0.1
v -0.2 0.45 0.1
v -0.3 0.35 0
v -0.3 0.45 0
v -0.2 0.45 0
v -0.2 0.35 0
v -0.3 0.55 0.1
v -0.3 0.45 0.1
v -0.2 0.45 0.1
v -0.2 0.55 0.1
v -0.3 0.45 0
v -0.3 0.55 0
v -0.2 0.55 0
v -0.2 0.45 0
v -0.2 0.55 0.1
v -0.2 0.55 0
v -0.3 0.55 0
v -0.3 0.55 0.1
v -0.2 -0.25 0.1
v -0.2 -0.25 0
v -0.2 -0.35 0
v -0.2 -0.35 0.1
v -0.2 -0.25 0.1
v -0.2 -0.35 0.1
v -0.1 -0.35 0.1
v -0.1 -0.25 0.1
v -0.2 -0.35 0
v -0.2 -0.25 0
v -0.1 -0.25 0
v -0.1 -0.35 0
v -0.2 -0.35 0.1
v -0.2 -0.35 0
v -0.1 -0.35 0
v -0.1 -0.35 0.1
v -0.2 -0.15 0.1
v -0.2 -0.25 0.1
v -0.1 -0.25 0.1
v -0.1 -0.15 0.1
v -0.2 -0.25 0
v -0.2 -0.15 0
v -0.1 -0.15 0
v -0.1 -0.25 0
v -0.2 -0.05 0.1
v -0.2 -0.15 0.1
v -0.1 -0.15 0.1
v -0.1 -0.05 0.1
v -0.2 -0.15 0
v -0.2 -0.05 0
v -0.1 -0.05 0
v -0.1 -0.15 0
v -0.2 0.05 0.1
v -0.2 -0.05 0.1
v -0.1 -0.05 0.1
v -0.1 0.05 0.1
v -0.2 -0.05 0
v -0.2 0.05 0
v -0.1 0.05 0
v -0.1 -0.05 0
v -0.2 0.15 0.1
v -0.2 0.05 0.1
v -0.1 0.05 0.1
v -0.1 0.15 0.1
v -0.2 0.05 0
v -0.2 0.15 0
v -0.1 0.15 0
v -0.1 0.05 0
v -0.2 0.25 0.1
v -0.2 0.15 0.1
v -0.1 0.15 0.1
v -0.1 0.25 0.1
v -0.2 0.15 0
v -0.2 0.25 0
v -0.1 0.25 0
v -0.1 0.15 0
v -0.2 0.35 0.1
v -0.2 0.25 0.1
v -0.1 0.25 0.1
v -0.1 0.35 0.1
v -0.2 0.25 0
v -0.2 0.35 0
v -0.1 0.35 0
v -0.1 0.25 0
v -0.2 0.45 0.1
v -0.2 0.35 0.1
v -0.1 0.35 0.1
v -0.1 0.45 0.1
v -0.2 0.35 0
v -0.2 0.45 0
v -0.1 0.45 0
v -0.1 0.35 0
v -0.2 0.55 0.1
v -0.2 0.45 0.1
v -0.1 0.45 0.1
v -0.1 0.55 0.1
v -0.2 0.45 0
v -0.2 0.55 0
v -0.1 0.55 0
v -0.1 0.45 0
v -0.1 0.55 0.1
v -0.1 0.55 0
v -0.2 0.55 0
v -0.2 0.55 0.1
v -0.1 -0.35 0.1
v -0.1 -0.35 0
v -0.1 -0.45 0
v -0.1 -0.45 0.1
v -0.1 -0.35 0.1
v -0.1 -0.45 0.1
v 0 -0.45 0.1
v 0 -0.35 0.1
v -0.1 -0.45 0
v -0.1 -0.35 0
v 0 -0.35 0
v 0 -0.45 0
v -0.1 -0.45 0.1
v -0.1 -0.45 0
v 0 -0.45 0
v 0 -0.45 0.1
v -0.1 -0.25 0.1
v -0.1 -0.35 0.1
v 0 -0.35 0.1
v 0 -0.25 0.1
v -0.1 -0.35 0
v -0.1 -0.25 0
v 0 -0.25 0
v 0 -0.35 0
v -0.1 -0.15 0.1
v -0.1 -0.25 0.1
v 0 -0.25 0.1
v 0 -0.15 0.1
v -0.1 -0.25 0
v -0.1 -0.15 0
v 0 -0.15 0
v 0 -0.25 0
v -0.1 -0.05 0.1
v -0.1 -0.15 0.1
v 0 -0.15 0.1
v 0 -0.05 0.1
v -0.1 -0.15 0
v -0.1 -0.05 0
v 0 -0.05 0
v 0 -0.15 0
v -0.1 0.05 0.1
v -0.1 -0.05 0.1
v 0 -0.05 0.1
v 0 0.05 0.1
v -0.1 -0.05 0
v -0.1 0.05 0
v 0 0.05 0
v 0 -0.05 0
v -0.1 0.15 0.1
v -0.1 0.05 0.1
v 0 0.05 0.1
v 0 0.15 0.1
v -0.1 0.05 0
v -0.1 0.15 0
v 0 0.15 0
v 0 0.05 0
v -0.1 0.25 0.1
v -0.1 0.15 0.1
v 0 0.15 0.1
v 0 0.25 0.1
v -0.1 0.15 0
v -0.1 0.25 0
v 0 0.25 0
v 0 0.15 0
v -0.1 0.35 0.1
v -0.1 0.25 0.1
v 0 0.25 0.1
v 0 0.35 0.1
v -0.1 0.25 0
v -0.1 0.35 0
v 0 0.35 0
v 0 0.25 0
v -0.1 0.45 0.1
v -0.1 0.35 0.1
v 0 0.35 0.1
v 0 0.45 0.1
v -0.1 0.35 0
v -0.1 0.45 0
v 0 0.45 0
v 0 0.35 0
v -0.1 0.55 0.1
v -0.1 0.45 0.1
v 0 0.45 0.1
v 0 0.55 0.1
v -0.1 0.45 0
v -0.1 0.55 0
v 0 0.55 0
v 0 0.45 0
v 0 0.55 0.1
v 0 0.55 0
v -0.1 0.55 0
v -0.1 0.55 0.1
v 0 -0.45 0.1
v 0 -0.45 0
v 0 -0.55 0
v 0 -0.55 0.1
v 0 -0.45 0.1
v 0 -0.55 0.1
v 0.1 -0.55 0.1
v 0.1 -0.45 0.1
v 0 -0.55 0
v 0 -0.45 0
v 0.1 -0.45 0
v 0.1 -0.55 0
v 0 -0.55 0.1
v 0 -0.55 0
v 0.1 -0.55 0
v 0.1 -0.55 0.1
v 0 -0.35 0.1
v 0 -0.45 0.1
v 0.1 -0.45 0.1
v 0.1 -0.35 0.1
v 0 -0.45 0
v 0 -0.35 0
v 0.1 -0.35 0
v 0.1 -0.45 0
v 0 -0.25 0.1
v 0 -0.35 0.1
v 0.1 -0.35 0.1
v 0.1 -0.25 0.1
v 0 -0.35 0
v 0 -0.25 0
v 0.1 -0.25 0
v 0.1 -0.35 0
v 0 -0.15 0.1
v 0 -0.25 0.1
v 0.1 -0.25 0.1
v 0.1 -0.15 0.1
v 0 -0.25 0
v 0 -0.15 0
v 0.1 -0.15 0
v 0.1 -0.25 0
v 0 -0.05 0.1
v 0 -0.15 0.1
v 0.1 -0.15 0.1
v 0.1 -0.05 0.1
v 0 -0.15 0
v 0 -0.05 0
v 0.1 -0.05 0
v 0.1 -0.15 0
v 0 0.05 0.1
v 0 -0.05 0.1
v 0.1 -0.05 0.1
v 0.1 0.05 0.1
v 0 -0.05 0
v 0 0.05 0
v 0.1 0.05 0
v 0.1 -0.05 0
v 0 0.15 0.1
v 0 0.05 0.1
v 0.1 0.05 0.1
v 0.1 0.15 0.1
v 0 0.05 0
v 0 0.15 0
v 0.1 0.15 0
v 0.1 0.05 0
v 0 0.25 0.1
v 0 0.15 0.1
v 0.1 0.15 0.1
v 0.1 0.25 0.1
v 0 0.15 0
v 0 0.25 0
v 0.1 0.25 0
v 0.1 0.15 0
v 0 0.35 0.1
v 0 0.25 0.1
v 0.1 0.25 0.1
v 0.1 0.35 0.1
v 0 0.25 0
v 0 0.35 0
v 0.1 0.35 0
v 0.1 0.25 0
v 0 0.45 0.1
v 0 0.35 0.1
v 0.1 0.35 0.1
v 0.1 0.45 0.1
v 0 0.35 0
v 0 0.45 0
v 0.1 0.45 0
v 0.1 0.35 0
v 0 0.55 0.1
v 0 0.45 0.1
v 0.1 0.45 0.1
v 0.1 0.55 0.1
v 0 0.45 0
v 0 0.55 0
v 0.1 0.55 0
v 0.1 0.45 0
v 0.1 0.55 0.1
v 0.1 0.55 0
v 0 0.55 0
v 0 0.55 0.1
v 0.1 -0.45 0.1
v 0.1 -0.55 0.1
v 0.2 -0.55 0.1
v 0.2 -0.45 0.1
v 0.1 -0.55 0
v 0.1 -0.45 0
v 0.2 -0.45 0
v 0.2 -0.55 0
v 0.1 -0.55 0.1
v 0.1 -0.55 0
v 0.2 -0.55 0
v 0.2 -0.55 0.1
v 0.1 -0.35 0.1
v 0.1 -0.45 0.1
v 0.2 -0.45 0.1
v 0.2 -0.35 0.1
v 0.1 -0.45 0
v 0.1 -0.35 0
v 0.2 -0.35 0
v 0.2 -0.45 0
v 0.1 -0.25 0.1
v 0.1 -0.35 0.1
v 0.2 -0.35 0.1
v 0.2 -0.25 0.1
v 0.1 -0.35 0
v 0.1 -0.25 0
v 0.2 -0.25 0
v 0.2 -0.35 0
v 0.1 -0.15 0.1
v 0.1 -0.25 0.1
v 0.2 -0.25 0.1
v 0.2 -0.15 0.1
v 0.1 -0.25 0
v 0.1 -0.15 0
v 0.2 -0.15 0
v 0.2 -0.25 0
v 0.1 -0.05 0.1
v 0.1 -0.15 0.1
v 0.2 -0.15 0.1
v 0.2 -0.05 0.1
v 0.1 -0.15 0
v 0.1 -0.05 0
v 0.2 -0.05 0
v 0.2 -0.15 0
v 0.1 0.05 0.1
v 0.1 -0.05 0.1
v 0.2 -0.05 0.1
v 0.2 0.05 0.1
v 0.1 -0.05 0
v 0.1 0.05 0
v 0.2 0.05 0
v 0.2 -0.05 0
v 0.1 0.15 0.1
v 0.1 0.05 0.1
v 0.2 0.05 0.1
v 0.2 0.15 0.1
v 0.1 0.05 0
v 0.1 0.15 0
v 0.2 0.15 0
v 0.2 0.05 0
v 0.1 0.25 0.1
v 0.1 0.15 0.1
v 0.2 0.15 0.1
v 0.2 0.25 0.1
v 0.1 0.15 0
v 0.1 0.25 0
v 0.2 0.25 0
v 0.2 0.15 0
v 0.1 0.35 0.1
v 0.1 0.25 0.1
v 0.2 0.25 0.1
v 0.2 0.35 0.1
v 0.1 0.25 0
v 0.1 0.35 0
v 0.2 0.35 0
v 0.2 0.25 0
v 0.1 0.45 0.1
v 0.1 0.35 0.1
v 0.2 0.35 0.1
v 0.2 0.45 0.1
v 0.1 0.35 0
v 0.1 0.45 0
v 0.2 0.45 0
v 0.2 0.35 0
v 0.1 0.55 0.1
v 0.1 0.45 0.1
v 0.2 0.45 0.1
v 0.2 0.55 0.1
v 0.1 0.45 0
v 0.1 0.55 0
v 0.2 0.55 0
v 0.2 0.45 0
v 0.2 0.55 0.1
v 0.2 0.55 0
v 0.1 0.55 0
v 0.1 0.55 0.1
v 0.2 -0.45 0.1
v 0.2 -0.55 0.1
v 0.3 -0.55 0.1
v 0.3 -0.45 0.1
v 0.2 -0.55 0
v 0.2 -0.45 0
v 0.3 -0.45 0
v 0.3 -0.55 0
v 0.2 -0.55 0.1
v 0.2 -0.55 0
v 0.3 -0.55 0
v 0.3 -0.55 0.1
v 0.2 -0.35 0.1
v 0.2 -0.45 0.1
v 0.3 -0.45 0.1
v 0.3 -0.35 0.1
v 0.2 -0.45 0
v 0.2 -0.35 0
v 0.3 -0.35 0
v 0.3 -0.45 0
v 0.2 -0.25 0.1
v 0.2 -0.35 0.1
v 0.3 -0.35 0.1
v 0.3 -0.25 0.1
v 0.2 -0.35 0
v 0.2 -0.25 0
v 0.3 -0.25 0
v 0.3 -0.35 0
v 0.2 -0.15 0.1
v 0.2 -0.25 0.1
v 0.3 -0.25 0.1
v 0.3 -0.15 0.1
v 0.2 -0.25 0
v 0.2 -0.15 0
v 0.3 -0.15 0
v 0.3 -0.25 0
v 0.2 -0.05 0.1
v 0.2 -0.15 0.1
v 0.3 -0.15 0.1
v 0.3 -0.05 0.1
v 0.2 -0.15 0
v 0.2 -0.05 0
v 0.3 -0.05 0
v 0.3 -0.15 0
v 0.2 0.05 0.1
v 0.2 -0.05 0.1
v 0.3 -0.05 0.1
v 0.3 0.05 0.1
v 0.2 -0.05 0
v 0.2 0.05 0
v 0.3 0.05 0
v 0.3 -0.05 0
v 0.2 0.15 0.1
v 0.2 0.05 0.1
v 0.3 0.05 0.1
v 0.3 0.15 0.1
v 0.2 0.05 0
v 0.2 0.15 0
v 0.3 0.15 0
v 0.3 0.05 0
v 0.2 0.25 0.1
v 0.2 0.15 0.1
v 0.3 0.15 0.1
v 0.3 0.25 0.1
v 0.2 0.15 0
v 0.2 0.25 0
v 0.3 0.25 0
v 0.3 0.15 0
v 0.2 0.35 0.1
v 0.2 0.25 0.1
v 0.3 0.25 0.1
v 0.3 0.35 0.1
v 0.2 0.25 0
v 0.2 0.35 0
v 0.3 0.35 0
v 0.3 0.25 0
v 0.2 0.45 0.1
v 0.2 0.35 0.1
v 0.3 0.35 0.1
v 0.3 0.45 0.1
v 0.2 0.35 0
v 0.2 0.45 0
v 0.3 0.45 0
v 0.3 0.35 0
v 0.2 0.55 0.1
v 0.2 0.45 0.1
v 0.3 0.45 0.1
v 0.3 0.55 0.1
v 0.2 0.45 0
v 0.2 0.55 0
v 0.3 0.55 0
v 0.3 0.45 0
v 0.3 0.55 0.1
v 0.3 0.55 0
v 0.2 0.55 0
v 0.2 0.55 0.1
v 0.3 -0.45 0.1
v 0.3 -0.55 0.1
v 0.4 -0.55 0.1
v 0.4 -0.45 0.1
v 0.3 -0.55 0
v 0.3 -0.45 0
v 0.4 -0.45 0
v 0.4 -0.55 0
v 0.3 -0.55 0.1
v 0.3 -0.55 0
v 0.4 -0.55 0
v 0.4 -0.55 0.1
v 0.3 -0.35 0.1
v 0.3 -0.45 0.1
v 0.4 -0.45 0.1
v 0.4 -0.35 0.1
v 0.3 -0.45 0
v 0.3 -0.35 0
v 0.4 -0.35 0
v 0.4 -0.45 0
v 0.3 -0.25 0.1
v 0.3 -0.35 0.1
v 0.4 -0.35 0.1
v 0.4 -0.25 0.1
v 0.3 -0.35 0
v 0.3 -0.25 0
v 0.4 -0.25 0
v 0.4 -0.35 0
v 0.3 -0.15 0.1
v 0.3 -0.25 0.1
v 0.4 -0.25 0.1
v 0.4 -0.15 0.1
v 0.3 -0.25 0
v 0.3 -0.15 0
v 0.4 -0.15 0
v 0.4 -0.25 0
v 0.3 -0.05 0.1
v 0.3 -0.15 0.1
v 0.4 -0.15 0.1
v 0.4 -0.05 0.1
v 0.3 -0.15 0
v 0.3 -0.05 0
v 0.4 -0.05 0
v 0.4 -0.15 0
v 0.3 0.05 0.1
v 0.3 -0.05 0.1
v 0.4 -0.05 0.1
v 0.4 0.05 0.1
v 0.3 -0.05 0
v 0.3 0.05 0
v 0.4 0.05 0
v 0.4 -0.05 0
v 0.3 0.15 0.1
v 0.3 0.05 0.1
v 0.4 0.05 0.1
v 0.4 0.15 0.1
v 0.3 0.05 0
v 0.3 0.15 0
v 0.4 0.15 0
v 0.4 0.05 0
v 0.3 0.25 0.1
v 0.3 0.15 0.1
v 0.4 0.15 0.1
v 0.4 0.25 0.1
v 0.3 0.15 0
v 0.3 0.25 0
v 0.4 0.25 0
v 0.4 0.15 0
v 0.3 0.35 0.1
v 0.3 0.25 0.1
v 0.4 0.25 0.1
v 0.4 0.35 0.1
v 0.3 0.25 0
v 0.3 0.35 0
v 0.4 0.35 0
v 0.4 0.25 0
v 0.3 0.45 0.1
v 0.3 0.35 0.1
v 0.4 0.35 0.1
v 0.4 0.45 0.1
v 0.3 0.35 0
v 0.3 0.45 0
v 0.4 0.45 0
v 0.4 0.35 0
v 0.3 0.55 0.1
v 0.3 0.45 0.1
v 0.4 0.45 0.1
v 0.4 0.55 0.1
v 0.3 0.45 0
v 0.3 0.55 0
v 0.4 0.55 0
v 0.4 0.45 0
v 0.4 0.55 0.1
v 0.4 0.55 0
v 0.3 0.55 0
v 0.3 0.55 0.1
v 0.4 -0.45 0.1
v 0.4 -0.55 0.1
v 0.5 -0.55 0.1
v 0.5 -0.45 0.1
v 0.4 -0.55 0
v 0.4 -0.45 0
v 0.5 -0.45 0
v 0.5 -0.55 0
v 0.4 -0.55 0.1
v 0.4 -0.55 0
v 0.5 -0.55 0
v 0.5 -0.55 0.1
v 0.4 -0.35 0.1
v 0.4 -0.45 0.1
v 0.5 -0.45 0.1
v 0.5 -0.35 0.1
v 0.4 -0.45 0
v 0.4 -0.35 0
v 0.5 -0.35 0
v 0.5 -0.45 0
v 0.4 -0.25 0.1
v 0.4 -0.35 0.1
v 0.5 -0.35 0.1
v 0.5 -0.25 0.1
v 0.4 -0.35 0
v 0.4 -0.25 0
v 0.5 -0.25 0
v 0.5 -0.35 0
v 0.4 -0.15 0.1
v 0.4 -0.25 0.1
v 0.5 -0.25 0.1
v 0.5 -0.15 0.1
v 0.4 -0.25 0
v 0.4 -0.15 0
v 0.5 -0.15 0
v 0.5 -0.25 0
v 0.4 -0.05 0.1
v 0.4 -0.15 0.1
v 0.5 -0.15 0.1
v 0.5 -0.05 0.1
v 0.4 -0.15 0
v 0.4 -0.05 0
v 0.5 -0.05 0
v 0.5 -0.15 0
v 0.4 0.05 0.1
v 0.4 -0.05 0.1
v 0.5 -0.05 0.1
v 0.5 0.05 0.1
v 0.4 -0.05 0
v 0.4 0.05 0
v 0.5 0.05 0
v 0.5 -0.05 0
v 0.4 0.15 0.1
v 0.4 0.05 0.1
v 0.5 0.05 0.1
v 0.5 0.15 0.1
v 0.4 0.05 0
v 0.4 0.15 0
v 0.5 0.15 0
v 0.5 0.05 0
v 0.4 0.25 0.1
v 0.4 0.15 0.1
v 0.5 0.15 0.1
v 0.5 0.25 0.1
v 0.4 0.15 0
v 0.4 0.25 0
v 0.5 0.25 0
v 0.5 0.15 0
v 0.4 0.35 0.1
v 0.4 0.25 0.1
v 0.5 0.25 0.1
v 0.5 0.35 0.1
v 0.4 0.25 0
v 0.4 0.35 0
v 0.5 0.35 0
v 0.5 0.25 0
v 0.4 0.45 0.1
v 0.4 0.35 0.1
v 0.5 0.35 0.1
v 0.5 0.45 0.1
v 0.4 0.35 0
v 0.4 0.45 0
v 0.5 0.45 0
v 0.5 0.35 0
v 0.4 0.55 0.1
v 0.4 0.45 0.1
v 0.5 0.45 0.1
v 0.5 0.55 0.1
v 0.4 0.45 0
v 0.4 0.55 0
v 0.5 0.55 0
v 0.5 0.45 0
v 0.5 0.55 0.1
v 0.5 0.55 0
v 0.4 0.55 0
v 0.4 0.55 0.1
v 0.6 -0.55 0.1
v 0.6 -0.55 0
v 0.6 -0.45 0
v 0.6 -0.45 0.1
v 0.5 -0.45 0.1
v 0.5 -0.55 0.1
v 0.6 -0.55 0.1
v 0.6 -0.45 0.1
v 0.5 -0.55 0
v 0.5 -0.45 0
v 0.6 -0.45 0
v 0.6 -0.55 0
v 0.5 -0.55 0.1
v 0.5 -0.55 0
v 0.6 -0.55 0
v 0.6 -0.55 0.1
v 0.6 -0.45 0.1
v 0.6 -0.45 0
v 0.6 -0.35 0
v 0.6 -0.35 0.1
v 0.5 -0.35 0.1
v 0.5 -0.45 0.1
v 0.6 -0.45 0.1
v 0.6 -0.35 0.1
v 0.5 -0.45 0
v 0.5 -0.35 0
v 0.6 -0.35 0
v 0.6 -0.45 0
v 0.6 -0.35 0.1
v 0.6 -0.35 0
v 0.6 -0.25 0
v 0.6 -0.25 0.1
v 0.5 -0.25 0.1
v 0.5 -0.35 0.1
v 0.6 -0.35 0.1
v 0.6 -0.25 0.1
v 0.5 -0.35 0
v 0.5 -0.25 0
v 0.6 -0.25 0
v 0.6 -0.35 0
v 0.6 -0.25 0.1
v 0.6 -0.25 0
v 0.6 -0.15 0
v 0.6 -0.15 0.1
v 0.5 -0.15 0.1
v 0.5 -0.25 0.1
v 0.6 -0.25 0.1
v 0.6 -0.15 0.1
v 0.5 -0.25 0
v 0.5 -0.15 0
v 0.6 -0.15 0
v 0.6 -0.25 0
v 0.6 -0.15 0.1
v 0.6 -0.15 0
v 0.6 -0.05 0
v 0.6 -0.05 0.1
v 0.5 -0.05 0.1
v 0.5 -0.15 0.1
v 0.6 -0.15 0.1
v 0.6 -0.05 0.1
v 0.5 -0.15 0
v 0.5 -0.05 0
v 0.6 -0.05 0
v 0.6 -0.15 0
v 0.6 -0.05 0.1
v 0.6 -0.05 0
v 0.6 0.05 0
v 0.6 0.05 0.1
v 0.5 0.05 0.1
v 0.5 -0.05 0.1
v 0.6 -0.05 0.1
v 0.6 0.05 0.1
v 0.5 -0.05 0
v 0.5 0.05 0
v 0.6 0.05 0
v 0.6 -0.05 0
v 0.6 0.05 0.1
v 0.6 0.05 0
v 0.6 0.15 0
v 0.6 0.15 0.1
v 0.5 0.15 0.1
v 0.5 0.05 0.1
v 0.6 0.05 0.1
v 0.6 0.15 0.1
v 0.5 0.05 0
v 0.5 0.15 0
v 0.6 0.15 0
v 0.6 0.05 0
v 0.6 0.15 0.1
v 0.6 0.15 0
v 0.6 0.25 0
v 0.6 0.25 0.1
v 0.5 0.25 0.1
v 0.5 0.15 0.1
v 0.6 0.15 0.1
v 0.6 0.25 0.1
v 0.5 0.15 0
v 0.5 0.25 0
v 0.6 0.25 0
v 0.6 0.15 0
v 0.6 0.25 0.1
v 0.6 0.25 0
v 0.6 0.35 0
v 0.6 0.35 0.1
v 0.5 0.35 0.1
v 0.5 0.25 0.1
v 0.6 0.25 0.1
v 0.6 0.35 0.1
v 0.5 0.25 0
v 0.5 0.35 0
v 0.6 0.35 0
v 0.6 0.25 0
v 0.6 0.35 0.1
v 0.6 0.35 0
v 0.6 0.45 0
v 0.6 0.45 0.1
v 0.5 0.45 0.1
v 0.5 0.35 0.1
v 0.6 0.35 0.1
v 0.6 0.45 0.1
v 0.5 0.35 0
v 0.5 0.45 0
v 0.6 0.45 0
v 0.6 0.35 0
v 0.6 0.45 0.1
v 0.6 0.45 0
v 0.6 0.55 0
v 0.6 0.55 0.1
v 0.5 0.55 0.1
v 0.5 0.45 0.1
v 0.6 0.45 0.1
v 0.6 0.55 0.1
v 0.5 0.45 0
v 0.5 0.55 0
v 0.6 0.55 0
v 0.6 0.45 0
v 0.6 0.55 0.1
v 0.6 0.55 0
v 0.5 0.55 0
v 0.5 0.55 0.1

# faces
f 1/1/1 2/1/1 3/1/1 4/1/1
f 5/1/3 6/1/3 7/1/3 8/1/3
f 9/1/4 10/1/4 11/1/4 12/1/4
f 13/1/5 14/1/5 15/1/5 16/1/5
f 17/1/6 18/1/6 19/1/6 20/1/6
f 21/2/1 22/2/1 23/2/1 24/2/1
f 25/2/3 26/2/3 27/2/3 28/2/3
f 29/2/4 30/2/4 31/2/4 32/2/4
f 33/2/5 34/2/5 35/2/5 36/2/5
f 37/2/1 38/2/1 39/2/1 40/2/1
f 41/2/3 42/2/3 43/2/3 44/2/3
f 45/2/4 46/2/4 47/2/4 48/2/4
f 49/2/1 50/2/1 51/2/1 52/2/1
f 53/2/3 54/2/3 55/2/3 56/2/3
f 57/2/4 58/2/4 59/2/4 60/2/4
f 61/3/1 62/3/1 63/3/1 64/3/1
f 65/3/3 66/3/3 67/3/3 68/3/3
f 69/3/4 70/3/4 71/3/4 72/3/4
f 73/1/1 74/1/1 75/1/1 76/1/1
f 77/1/3 78/1/3 79/1/3 80/1/3
f 81/1/4 82/1/4 83/1/4 84/1/4
f 85/1/3 86/1/3 87/1/3 88/1/3
f 89/1/4 90/1/4 91/1/4 92/1/4
f 93/1/6 94/1/6 95/1/6 96/1/6
f 97/3/1 98/3/1 99/3/1 100/3/1
f 101/3/3 102/3/3 103/3/3 104/3/3
f 105/3/4 106/3/4 107/3/4 108/3/4
f 109/3/5 110/3/5 111/3/5 112/3/5
f 113/2/3 114/2/3 115/2/3 116/2/3
f 117/2/4 118/2/4 119/2/4 120/2/4
f 121/2/3 122/2/3 123/2/3 124/2/3
f 125/2/4 126/2/4 127/2/4 128/2/4
f 129/2/3 130/2/3 131/2/3 132/2/3
f 133/2/4 134/2/4 135/2/4 136/2/4
f 137/4/3 138/4/3 139/4/3 140/4/3
f 141/4/4 142/4/4 143/4/4 144/4/4
f 145/1/3 146/1/3 147/1/3 148/1/3
f 149/1/4 150/1/4 151/1/4 152/1/4
f 153/1/3 154/1/3 155/1/3 156/1/3
f 157/1/4 158/1/4 159/1/4 160/1/4
f 161/1/6 162/1/6 163/1/6 164/1/6
f 165/4/1 166/4/1 167/4/1 168/4/1
f 169/4/3 170/4/3 171/4/3 172/4/3
f 173/4/4 174/4/4 175/4/4 176/4/4
f 177/4/5 178/4/5 179/4/5 180/4/5
f 181/2/3 182/2/3 183/2/3 184/2/3
f 185/2/4 186/2/4 187/2/4 188/2/4
f 189/2/3 190/2/3 191/2/3 192/2/3
f 193/2/4 194/2/4 195/2/4 196/2/4
f 197/2/3 198/2/3 199/2/3 200/2/3
f 201/2/4 202/2/4 203/2/4 204/2/4
f 205/3/3 206/3/3 207/3/3 208/3/3
f 209/3/4 210/3/4 211/3/4 212/3/4
f 213/1/3 214/1/3 215/1/3 216/1/3
f 217/1/4 218/1/4 219/1/4 220/1/4
f 221/1/3 222/1/3 223/1/3 224/1/3
f 225/1/4 226/1/4 227/1/4 228/1/4
f 229/1/3 230/1/3 231/1/3 232/1/3
f 233/1/4 234/1/4 235/1/4 236/1/4
f 237/1/6 238/1/6 239/1/6 240/1/6
f 241/1/1 242/1/1 243/1/1 244/1/1
f 245/1/3 246/1/3 247/1/3 248/1/3
f 249/1/4 250/1/4 251/1/4 252/1/4
f 253/1/5 254/1/5 255/1/5 256/1/5
f 257/3/3 258/3/3 259/3/3 260/3/3
f 261/3/4 262/3/4 263/3/4 264/3/4
f 265/2/3 266/2/3 267/2/3 268/2/3
f 269/2/4 270/2/4 271/2/4 272/2/4
f 273/2/3 274/2/3 275/2/3 276/2/3
f 277/2/4 278/2/4 279/2/4 280/2/4
f 281/3/3 282/3/3 283/3/3 284/3/3
f 285/3/4 286/3/4 287/3/4 288/3/4
f 289/1/3 290/1/3 291/1/3 292/1/3
f 293/1/4 294/1/4 295/1/4 296/1/4
f 297/1/3 298/1/3 299/1/3 300/1/3
f 301/1/4 302/1/4 303/1/4 304/1/4
f 305/1/3 306/1/3 307/1/3 308/1/3
f 309/1/4 310/1/4 311/1/4 312/1/4
f 313/1/3 314/1/3 315/1/3 316/1/3
f 317/1/4 318/1/4 319/1/4 320/1/4
f 321/1/6 322/1/6 323/1/6 324/1/6
f 325/1/1 326/1/1 327/1/1 328/1/1
f 329/1/3 330/1/3 331/1/3 332/1/3
f 333/1/4 334/1/4 335/1/4 336/1/4
f 337/1/5 338/1/5 339/1/5 340/1/5
f 341/4/3 342/4/3 343/4/3 344/4/3
f 345/4/4 346/4/4 347/4/4 348/4/4
f 349/4/3 350/4/3 351/4/3 352/4/3
f 353/4/4 354/4/4 355/4/4 356/4/4
f 357/4/3 358/4/3 359/4/3 360/4/3
f 361/4/4 362/4/4 363/4/4 364/4/4
f 365/1/3 366/1/3 367/1/3 368/1/3
f 369/1/4 370/1/4 371/1/4 372/1/4
f 373/1/3 374/1/3 375/1/3 376/1/3
f 377/1/4 378/1/4 379/1/4 380/1/4
f 381/1/3 382/1/3 383/1/3 384/1/3
f 385/1/4 386/1/4 387/1/4 388/1/4
f 389/1/3 390/1/3 391/1/3 392/1/3
f 393/1/4 394/1/4 395/1/4 396/1/4
f 397/1/3 398/1/3 399/1/3 400/1/3
f 401/1/4 402/1/4 403/1/4 404/1/4
f 405/1/3 406/1/3 407/1/3 408/1/3
f 409/1/4 410/1/4 411/1/4 412/1/4
f 413/1/6 414/1/6 415/1/6 416/1/6
f 417/4/1 418/4/1 419/4/1 420/4/1
f 421/4/3 422/4/3 423/4/3 424/4/3
f 425/4/4 426/4/4 427/4/4 428/4/4
f 429/4/5 430/4/5 431/4/5 432/4/5
f 433/4/3 434/4/3 435/4/3 436/4/3
f 437/4/4 438/4/4 439/4/4 440/4/4
f 441/1/3 442/1/3 443/1/3 444/1/3
f 445/1/4 446/1/4 447/1/4 448/1/4
f 449/1/3 450/1/3 451/1/3 452/1/3
f 453/1/4 454/1/4 455/1/4 456/1/4
f 457/1/3 458/1/3 459/1/3 460/1/3
f 461/1/4 462/1/4 463/1/4 464/1/4
f 465/1/3 466/1/3 467/1/3 468/1/3
f 469/1/4 470/1/4 471/1/4 472/1/4
f 473/1/3 474/1/3 475/1/3 476/1/3
f 477/1/4 478/1/4 479/1/4 480/1/4
f 481/1/3 482/1/3 483/1/3 484/1/3
f 485/1/4 486/1/4 487/1/4 488/1/4
f 489/1/3 490/1/3 491/1/3 492/1/3
f 493/1/4 494/1/4 495/1/4 496/1/4
f 497/1/3 498/1/3 499/1/3 500/1/3
f 501/1/4 502/1/4 503/1/4 504/1/4
f 505/1/3 506/1/3 507/1/3 508/1/3
f 509/1/4 510/1/4 511/1/4 512/1/4
f 513/1/6 514/1/6 515/1/6 516/1/6
f 517/3/3 518/3/3 519/3/3 520/3/3
f 521/3/4 522/3/4 523/3/4 524/3/4
f 525/3/5 526/3/5 527/3/5 528/3/5
f 529/4/3 530/4/3 531/4/3 532/4/3
f 533/4/4 534/4/4 535/4/4 536/4/4
f 537/1/3 538/1/3 539/1/3 540/1/3
f 541/1/4 542/1/4 543/1/4 544/1/4
f 545/1/3 546/1/3 547/1/3 548/1/3
f 549/1/4 550/1/4 551/1/4 552/1/4
f 553/1/3 554/1/3 555/1/3 556/1/3
f 557/1/4 558/1/4 559/1/4 560/1/4
f 561/1/3 562/1/3 563/1/3 564/1/3
f 565/1/4 566/1/4 567/1/4 568/1/4
f 569/1/3 570/1/3 571/1/3 572/1/3
f 573/1/4 574/1/4 575/1/4 576/1/4
f 577/1/3 578/1/3 579/1/3 580/1/3
f 581/1/4 582/1/4 583/1/4 584/1/4
f 585/4/3 586/4/3 587/4/3 588/4/3
f 589/4/4 590/4/4 591/4/4 592/4/4
f 593/1/3 594/1/3 595/1/3 596/1/3
f 597/1/4 598/1/4 599/1/4 600/1/4
f 601/1/3 602/1/3 603/1/3 604/1/3
f 605/1/4 606/1/4 607/1/4 608/1/4
f 609/1/6 610/1/6 611/1/6 612/1/6
f 613/3/3 614/3/3 615/3/3 616/3/3
f 617/3/4 618/3/4 619/3/4 620/3/4
f 621/3/5 622/3/5 623/3/5 624/3/5
f 625/1/3 626/1/3 627/1/3 628/1/3
f 629/1/4 630/1/4 631/1/4 632/1/4
f 633/1/3 634/1/3 635/1/3 636/1/3
f 637/1/4 638/1/4 639/1/4 640/1/4
f 641/1/3 642/1/3 643/1/3 644/1/3
f 645/1/4 646/1/4 647/1/4 648/1/4
f 649/1/3 650/1/3 651/1/3 652/1/3
f 653/1/4 654/1/4 655/1/4 656/1/4
f 657/1/3 658/1/3 659/1/3 660/1/3
f 661/1/4 662/1/4 663/1/4 664/1/4
f 665/1/3 666/1/3 667/1/3 668/1/3
f 669/1/4 670/1/4 671/1/4 672/1/4
f 673/1/3 674/1/3 675/1/3 676/1/3
f 677/1/4 678/1/4 679/1/4 680/1/4
f 681/4/3 682/4/3 683/4/3 684/4/3
f 685/4/4 686/4/4 687/4/4 688/4/4
f 689/4/3 690/4/3 691/4/3 692/4/3
f 693/4/4 694/4/4 695/4/4 696/4/4
f 697/1/3 698/1/3 699/1/3 700/1/3
f 701/1/4 702/1/4 703/1/4 704/1/4
f 705/1/6 706/1/6 707/1/6 708/1/6
f 709/1/3 710/1/3 711/1/3 712/1/3
f 713/1/4 714/1/4 715/1/4 716/1/4
f 717/1/5 718/1/5 719/1/5 720/1/5
f 721/1/3 722/1/3 723/1/3 724/1/3
f 725/1/4 726/1/4 727/1/4 728/1/4
f 729/1/3 730/1/3 731/1/3 732/1/3
f 733/1/4 734/1/4 735/1/4 736/1/4
f 737/1/3 738/1/3 739/1/3 740/1/3
f 741/1/4 742/1/4 743/1/4 744/1/4
f 745/1/3 746/1/3 747/1/3 748/1/3
f 749/1/4 750/1/4 751/1/4 752/1/4
f 753/1/3 754/1/3 755/1/3 756/1/3
f 757/1/4 758/1/4 759/1/4 760/1/4
f 761/1/3 762/1/3 763/1/3 764/1/3
f 765/1/4 766/1/4 767/1/4 768/1/4
f 769/4/3 770/4/3 771/4/3 772/4/3
f 773/4/4 774/4/4 775/4/4 776/4/4
f 777/4/3 778/4/3 779/4/3 780/4/3
f 781/4/4 782/4/4 783/4/4 784/4/4
f 785/4/3 786/4/3 787/4/3 788/4/3
f 789/4/4 790/4/4 791/4/4 792/4/4
f 793/4/3 794/4/3 795/4/3 796/4/3
f 797/4/4 798/4/4 799/4/4 800/4/4
f 801/4/6 802/4/6 803/4/6 804/4/6
f 805/1/3 806/1/3 807/1/3 808/1/3
f 809/1/4 810/1/4 811/1/4 812/1/4
f 813/1/5 814/1/5 815/1/5 816/1/5
f 817/1/3 818/1/3 819/1/3 820/1/3
f 821/1/4 822/1/4 823/1/4 824/1/4
f 825/1/3 826/1/3 827/1/3 828/1/3
f 829/1/4 830/1/4 831/1/4 832/1/4
f 833/1/3 834/1/3 835/1/3 836/1/3
f 837/1/4 838/1/4 839/1/4 840/1/4
f 841/1/3 842/1/3 843/1/3 844/1/3
f 845/1/4 846/1/4 847/1/4 848/1/4
f 849/1/3 850/1/3 851/1/3 852/1/3
f 853/1/4 854/1/4 855/1/4 856/1/4
f 857/1/3 858/1/3 859/1/3 860/1/3
f 861/1/4 862/1/4 863/1/4 864/1/4
f 865/4/3 866/4/3 867/4/3 868/4/3
f 869/4/4 870/4/4 871/4/4 872/4/4
f 873/4/3 874/4/3 875/4/3 876/4/3
f 877/4/4 878/4/4 879/4/4 880/4/4
f 881/3/3 882/3/3 883/3/3 884/3/3
f 885/3/4 886/3/4 887/3/4 888/3/4
f 889/2/3 890/2/3 891/2/3 892/2/3
f 893/2/4 894/2/4 895/2/4 896/2/4
f 897/2/6 898/2/6 899/2/6 900/2/6
f 901/1/2 902/1/2 903/1/2 904/1/2
f 905/1/3 906/1/3 907/1/3 908/1/3
f 909/1/4 910/1/4 911/1/4 912/1/4
f 913/1/5 914/1/5 915/1/5 916/1/5
f 917/1/2 918/1/2 919/1/2 920/1/2
f 921/1/3 922/1/3 923/1/3 924/1/3
f 925/1/4 926/1/4 927/1/4 928/1/4
f 929/1/2 930/1/2 931/1/2 932/1/2
f 933/1/3 934/1/3 935/1/3 936/1/3
f 937/1/4 938/1/4 939/1/4 940/1/4
f 941/1/2 942/1/2 943/1/2 944/1/2
f 945/1/3 946/1/3 947/1/3 948/1/3
f 949/1/4 950/1/4 951/1/4 952/1/4
f 953/1/2 954/1/2 955/1/2 956/1/2
f 957/1/3 958/1/3 959/1/3 960/1/3
f 961/1/4 962/1/4 963/1/4 964/1/4
f 965/1/2 966/1/2 967/1/2 968/1/2
f 969/1/3 970/1/3 971/1/3 972/1/3
f 973/1/4 974/1/4 975/1/4 976/1/4
f 977/1/2 978/1/2 979/1/2 980/1/2
f 981/1/3 982/1/3 983/1/3 984/1/3
f 985/1/4 986/1/4 987/1/4 988/1/4
f 989/4/2 990/4/2 991/4/2 992/4/2
f 993/4/3 994/4/3 995/4/3 996/4/3
f 997/4/4 998/4/4 999/4/4 1000/4/4
f 1001/3/2 1002/3/2 1003/3/2 1004/3/2
f 1005/3/3 1006/3/3 1007/3/3 1008/3/3
f 1009/3/4 1010/3/4 1011/3/4 1012/3/4
f 1013/2/2 1014/2/2 1015/2/2 1016/2/2
f 1017/2/3 1018/2/3 1019/2/3 1020/2/3
f 1021/2/4 1022/2/4 1023/2/4 1024/2/4
f 1025/2/2 1026/2/2 1027/2/2 1028/2/2
f 1029/2/3 1030/2/3 1031/2/3 1032/2/3
f 1033/2/4 1034/2/4 1035/2/4 1036/2/4
f 1037/2/6 1038/2/6 1039/2/6 1040/2/6

