# generated by vox_to_obj_exporter
# scale=0.1 center=true ground=true y_up=false

mtllib lava_25_10.mtl
usemtl palette

# normals
vn -1 0 0
vn 1 0 0
vn 0 0 1
vn 0 0 -1
vn 0 -1 0
vn 0 1 0

# texcoords
vt 0.001953125 0.5
vt 0.044921875 0.5
vt 0.021484375 0.5
vt 0.068359375 0.5

# verts
v -1.2 -1.1 0.1
v -1.2 -1.1 0
v -1.2 -1.2 0
v -1.2 -1.2 0.1
v -1.2 -1.1 0.1
v -1.2 -1.2 0.1
v -1.1 -1.2 0.1
v -1.1 -1.1 0.1
v -1.2 -1.2 0
v -1.2 -1.1 0
v -1.1 -1.1 0
v -1.1 -1.2 0
v -1.2 -1.2 0.1
v -1.2 -1.2 0
v -1.1 -1.2 0
v -1.1 -1.2 0.1
v -1.2 -1 0.1
v -1.2 -1 0
v -1.2 -1.1 0
v -1.2 -1.1 0.1
v -1.1 -1.1 0.1
v -1.1 -1.1 0
v -1.1 -1 0
v -1.1 -1 0.1
v -1.2 -1 0.1
v -1.2 -1.1 0.1
v -1.1 -1.1 0.1
v -1.1 -1 0.1
v -1.2 -1.1 0
v -1.2 -1 0
v -1.1 -1 0
v -1.1 -1.1 0
v -1.1 -1 0.1
v -1.1 -1 0
v -1.2 -1 0
v -1.2 -1 0.1
v -1.1 -1.1 0.1
v -1.1 -1.2 0.1
v -1 -1.2 0.1
v -1 -1.1 0.1
v -1.1 -1.2 0
v -1.1 -1.1 0
v -1 -1.1 0
v -1 -1.2 0
v -1.1 -1.2 0.1
v -1.1 -1.2 0
v -1 -1.2 0
v -1 -1.2 0.1
v -1 -1.1 0.1
v -1 -1.1 0
v -1.1 -1.1 0
v -1.1 -1.1 0.1
v -1 -1.1 0.1
v -1 -1.2 0.1
v -0.9 -1.2 0.1
v -0.9 -1.1 0.1
v -1 -1.2 0
v -1 -1.1 0
v -0.9 -1.1 0
v -0.9 -1.2 0
v -1 -1.2 0.1
v -1 -1.2 0
v -0.9 -1.2 0
v -0.9 -1.2 0.1
v -0.9 -1.1 0.1
v -0.9 -1.1 0
v -1 -1.1 0
v -1 -1.1 0.1
v -0.9 -1.1 0.1
v -0.9 -1.2 0.1
v -0.8 -1.2 0.1
v -0.8 -1.1 0.1
v -0.9 -1.2 0
v -0.9 -1.1 0
v -0.8 -1.1 0
v -0.8 -1.2 0
v -0.9 -1.2 0.1
v -0.9 -1.2 0
v -0.8 -1.2 0
v -0.8 -1.2 0.1
v -0.9 -1 0.1
v -0.9 -1 0
v -0.9 -1.1 0
v -0.9 -1.1 0.1
v -0.9 -1 0.1
v -0.9 -1.1 0.1
v -0.8 -1.1 0.1
v -0.8 -1 0.1
v -0.9 -1.1 0
v -0.9 -1 0
v -0.8 -1 0
v -0.8 -1.1 0
v -0.8 -1 0.1
v -0.8 -1 0
v -0.9 -1 0
v -0.9 -1 0.1
v -0.8 -1.1 0.1
v -0.8 -1.2 0.1
v -0.7 -1.2 0.1
v -0.7 -1.1 0.1
v -0.8 -1.2 0
v -0.8 -1.1 0
v -0.7 -1.1 0
v -0.7 -1.2 0
v -0.8 -1.2 0.1
v -0.8 -1.2 0
v -0.7 -1.2 0
v -0.7 -1.2 0.1
v -0.8 -1 0.1
v -0.8 -1.1 0.1
v -0.7 -1.1 0.1
v -0.7 -1 0.1
v -0.8 -1.1 0
v -0.8 -1 0
v -0.7 -1 0
v -0.7 -1.1 0
v -0.7 -1 0.1
v -0.7 -1 0
v -0.8 -1 0
v -0.8 -1 0.1
v -0.7 -1.1 0.1
v -0.7 -1.2 0.1
v -0.6 -1.2 0.1
v -0.6 -1.1 0.1
v -0.7 -1.2 0
v -0.7 -1.1 0
v -0.6 -1.1 0
v -0.6 -1.2 0
v -0.7 -1.2 0.1
v -0.7 -1.2 0
v -0.6 -1.2 0
v -0.6 -1.2 0.1
v -0.7 -1 0.1
v -0.7 -1.1 0.1
v -0.6 -1.1 0.1
v -0.6 -1 0.1
v -0.7 -1.1 0
v -0.7 -1 0
v -0.6 -1 0
v -0.6 -1.1 0
v -0.7 -0.9 0.1
v -0.7 -0.9 0
v -0.7 -1 0
v -0.7 -1 0.1
v -0.7 -0.9 0.1
v -0.7 -1 0.1
v -0.6 -1 0.1
v -0.6 -0.9 0.1
v -0.7 -1 0
v -0.7 -0.9 0
v -0.6 -0.9 0
v -0.6 -1 0
v -0.6 -0.9 0.1
v -0.6 -0.9 0
v -0.7 -0.9 0
v -0.7 -0.9 0.1
v -0.6 -1.1 0.1
v -0.6 -1.2 0.1
v -0.5 -1.2 0.1
v -0.5 -1.1 0.1
v -0.6 -1.2 0
v -0.6 -1.1 0
v -0.5 -1.1 0
v -0.5 -1.2 0
v -0.6 -1.2 0.1
v -0.6 -1.2 0
v -0.5 -1.2 0
v -0.5 -1.2 0.1
v -0.6 -1 0.1
v -0.6 -1.1 0.1
v -0.5 -1.1 0.1
v -0.5 -1 0.1
v -0.6 -1.1 0
v -0.6 -1 0
v -0.5 -1 0
v -0.5 -1.1 0
v -0.5 -1 0.1
v -0.5 -1 0
v -0.5 -0.9 0
v -0.5 -0.9 0.1
v -0.6 -0.9 0.1
v -0.6 -1 0.1
v -0.5 -1 0.1
v -0.5 -0.9 0.1
v -0.6 -1 0
v -0.6 -0.9 0
v -0.5 -0.9 0
v -0.5 -1 0
v -0.5 -0.9 0.1
v -0.5 -0.9 0
v -0.6 -0.9 0
v -0.6 -0.9 0.1
v -0.5 -1.1 0.1
v -0.5 -1.2 0.1
v -0.4 -1.2 0.1
v -0.4 -1.1 0.1
v -0.5 -1.2 0
v -0.5 -1.1 0
v -0.4 -1.1 0
v -0.4 -1.2 0
v -0.5 -1.2 0.1
v -0.5 -1.2 0
v -0.4 -1.2 0
v -0.4 -1.2 0.1
v -0.5 -1 0.1
v -0.5 -1.1 0.1
v -0.4 -1.1 0.1
v -0.4 -1 0.1
v -0.5 -1.1 0
v -0.5 -1 0
v -0.4 -1 0
v -0.4 -1.1 0
v -0.4 -1 0.1
v -0.4 -1 0
v -0.5 -1 0
v -0.5 -1 0.1
v -0.4 -1.1 0.1
v -0.4 -1.2 0.1
v -0.3 -1.2 0.1
v -0.3 -1.1 0.1
v -0.4 -1.2 0
v -0.4 -1.1 0
v -0.3 -1.1 0
v -0.3 -1.2 0
v -0.4 -1.2 0.1
v -0.4 -1.2 0
v -0.3 -1.2 0
v -0.3 -1.2 0.1
v -0.4 -1 0.1
v -0.4 -1.1 0.1
v -0.3 -1.1 0.1
v -0.3 -1 0.1
v -0.4 -1.1 0
v -0.4 -1 0
v -0.3 -1 0
v -0.3 -1.1 0
v -0.4 -0.9 0.1
v -0.4 -0.9 0
v -0.4 -1 0
v -0.4 -1 0.1
v -0.4 -0.9 0.1
v -0.4 -1 0.1
v -0.3 -1 0.1
v -0.3 -0.9 0.1
v -0.4 -1 0
v -0.4 -0.9 0
v -0.3 -0.9 0
v -0.3 -1 0
v -0.3 -0.9 0.1
v -0.3 -0.9 0
v -0.4 -0.9 0
v -0.4 -0.9 0.1
v -0.3 -1.1 0.1
v -0.3 -1.2 0.1
v -0.2 -1.2 0.1
v -0.2 -1.1 0.1
v -0.3 -1.2 0
v -0.3 -1.1 0
v -0.2 -1.1 0
v -0.2 -1.2 0
v -0.3 -1.2 0.1
v -0.3 -1.2 0
v -0.2 -1.2 0
v -0.2 -1.2 0.1
v -0.3 -1 0.1
v -0.3 -1.1 0.1
v -0.2 -1.1 0.1
v -0.2 -1 0.1
v -0.3 -1.1 0
v -0.3 -1 0
v -0.2 -1 0
v -0.2 -1.1 0
v -0.3 -0.9 0.1
v -0.3 -1 0.1
v -0.2 -1 0.1
v -0.2 -0.9 0.1
v -0.3 -1 0
v -0.3 -0.9 0
v -0.2 -0.9 0
v -0.2 -1 0
v -0.3 -0.8 0.1
v -0.3 -0.8 0
v -0.3 -0.9 0
v -0.3 -0.9 0.1
v -0.3 -0.8 0.1
v -0.3 -0.9 0.1
v -0.2 -0.9 0.1
v -0.2 -0.8 0.1
v -0.3 -0.9 0
v -0.3 -0.8 0
v -0.2 -0.8 0
v -0.2 -0.9 0
v -0.2 -0.8 0.1
v -0.2 -0.8 0
v -0.3 -0.8 0
v -0.3 -0.8 0.1
v -0.2 -1.1 0.1
v -0.2 -1.2 0.1
v -0.1 -1.2 0.1
v -0.1 -1.1 0.1
v -0.2 -1.2 0
v -0.2 -1.1 0
v -0.1 -1.1 0
v -0.1 -1.2 0
v -0.2 -1.2 0.1
v -0.2 -1.2 0
v -0.1 -1.2 0
v -0.1 -1.2 0.1
v -0.2 -1 0.1
v -0.2 -1.1 0.1
v -0.1 -1.1 0.1
v -0.1 -1 0.1
v -0.2 -1.1 0
v -0.2 -1 0
v -0.1 -1 0
v -0.1 -1.1 0
v -0.2 -0.9 0.1
v -0.2 -1 0.1
v -0.1 -1 0.1
v -0.1 -0.9 0.1
v -0.2 -1 0
v -0.2 -0.9 0
v -0.1 -0.9 0
v -0.1 -1 0
v -0.2 -0.8 0.1
v -0.2 -0.9 0.1
v -0.1 -0.9 0.1
v -0.1 -0.8 0.1
v -0.2 -0.9 0
v -0.2 -0.8 0
v -0.1 -0.8 0
v -0.1 -0.9 0
v -0.2 -0.7 0.1
v -0.2 -0.7 0
v -0.2 -0.8 0
v -0.2 -0.8 0.1
v -0.2 -0.7 0.1
v -0.2 -0.8 0.1
v -0.1 -0.8 0.1
v -0.1 -0.7 0.1
v -0.2 -0.8 0
v -0.2 -0.7 0
v -0.1 -0.7 0
v -0.1 -0.8 0
v -0.2 -0.6 0.1
v -0.2 -0.6 0
v -0.2 -0.7 0
v -0.2 -0.7 0.1
v -0.2 -0.6 0.1
v -0.2 -0.7 0.1
v -0.1 -0.7 0.1
v -0.1 -0.6 0.1
v -0.2 -0.7 0
v -0.2 -0.6 0
v -0.1 -0.6 0
v -0.1 -0.7 0
v -0.1 -0.6 0.1
v -0.1 -0.6 0
v -0.2 -0.6 0
v -0.2 -0.6 0.1
v -0.1 -1.1 0.1
v -0.1 -1.2 0.1
v 0 -1.2 0.1
v 0 -1.1 0.1
v -0.1 -1.2 0
v -0.1 -1.1 0
v 0 -1.1 0
v 0 -1.2 0
v -0.1 -1.2 0.1
v -0.1 -1.2 0
v 0 -1.2 0
v 0 -1.2 0.1
v -0.1 -1 0.1
v -0.1 -1.1 0.1
v 0 -1.1 0.1
v 0 -1 0.1
v -0.1 -1.1 0
v -0.1 -1 0
v 0 -1 0
v 0 -1.1 0
v -0.1 -0.9 0.1
v -0.1 -1 0.1
v 0 -1 0.1
v 0 -0.9 0.1
v -0.1 -1 0
v -0.1 -0.9 0
v 0 -0.9 0
v 0 -1 0
v -0.1 -0.8 0.1
v -0.1 -0.9 0.1
v 0 -0.9 0.1
v 0 -0.8 0.1
v -0.1 -0.9 0
v -0.1 -0.8 0
v 0 -0.8 0
v 0 -0.9 0
v -0.1 -0.7 0.1
v -0.1 -0.8 0.1
v 0 -0.8 0.1
v 0 -0.7 0.1
v -0.1 -0.8 0
v -0.1 -0.7 0
v 0 -0.7 0
v 0 -0.8 0
v -0.1 -0.6 0.1
v -0.1 -0.7 0.1
v 0 -0.7 0.1
v 0 -0.6 0.1
v -0.1 -0.7 0
v -0.1 -0.6 0
v 0 -0.6 0
v 0 -0.7 0
v -0.1 -0.5 0.1
v -0.1 -0.5 0
v -0.1 -0.6 0
v -0.1 -0.6 0.1
v -0.1 -0.5 0.1
v -0.1 -0.6 0.1
v 0 -0.6 0.1
v 0 -0.5 0.1
v -0.1 -0.6 0
v -0.1 -0.5 0
v 0 -0.5 0
v 0 -0.6 0
v -0.1 -0.4 0.1
v -0.1 -0.4 0
v -0.1 -0.5 0
v -0.1 -0.5 0.1
v -0.1 -0.4 0.1
v -0.1 -0.5 0.1
v 0 -0.5 0.1
v 0 -0.4 0.1
v -0.1 -0.5 0
v -0.1 -0.4 0
v 0 -0.4 0
v 0 -0.5 0
v -0.1 -0.3 0.1
v -0.1 -0.3 0
v -0.1 -0.4 0
v -0.1 -0.4 0.1
v -0.1 -0.3 0.1
v -0.1 -0.4 0.1
v 0 -0.4 0.1
v 0 -0.3 0.1
v -0.1 -0.4 0
v -0.1 -0.3 0
v 0 -0.3 0
v 0 -0.4 0
v -0.1 -0.2 0.1
v -0.1 -0.2 0
v -0.1 -0.3 0
v -0.1 -0.3 0.1
v -0.1 -0.2 0.1
v -0.1 -0.3 0.1
v 0 -0.3 0.1
v 0 -0.2 0.1
v -0.1 -0.3 0
v -0.1 -0.2 0
v 0 -0.2 0
v 0 -0.3 0
v 0 -0.2 0.1
v 0 -0.2 0
v -0.1 -0.2 0
v -0.1 -0.2 0.1
v 0 -1.1 0.1
v 0 -1.2 0.1
v 0.1 -1.2 0.1
v 0.1 -1.1 0.1
v 0 -1.2 0
v 0 -1.1 0
v 0.1 -1.1 0
v 0.1 -1.2 0
v 0 -1.2 0.1
v 0 -1.2 0
v 0.1 -1.2 0
v 0.1 -1.2 0.1
v 0 -1 0.1
v 0 -1.1 0.1
v 0.1 -1.1 0.1
v 0.1 -1 0.1
v 0 -1.1 0
v 0 -1 0
v 0.1 -1 0
v 0.1 -1.1 0
v 0 -0.9 0.1
v 0 -1 0.1
v 0.1 -1 0.1
v 0.1 -0.9 0.1
v 0 -1 0
v 0 -0.9 0
v 0.1 -0.9 0
v 0.1 -1 0
v 0 -0.8 0.1
v 0 -0.9 0.1
v 0.1 -0.9 0.1
v 0.1 -0.8 0.1
v 0 -0.9 0
v 0 -0.8 0
v 0.1 -0.8 0
v 0.1 -0.9 0
v 0 -0.7 0.1
v 0 -0.8 0.1
v 0.1 -0.8 0.1
v 0.1 -0.7 0.1
v 0 -0.8 0
v 0 -0.7 0
v 0.1 -0.7 0
v 0.1 -0.8 0
v 0 -0.6 0.1
v 0 -0.7 0.1
v 0.1 -0.7 0.1
v 0.1 -0.6 0.1
v 0 -0.7 0
v 0 -0.6 0
v 0.1 -0.6 0
v 0.1 -0.7 0
v 0 -0.5 0.1
v 0 -0.6 0.1
v 0.1 -0.6 0.1
v 0.1 -0.5 0.1
v 0 -0.6 0
v 0 -0.5 0
v 0.1 -0.5 0
v 0.1 -0.6 0
v 0 -0.4 0.1
v 0 -0.5 0.1
v 0.1 -0.5 0.1
v 0.1 -0.4 0.1
v 0 -0.5 0
v 0 -0.4 0
v 0.1 -0.4 0
v 0.1 -0.5 0
v 0 -0.3 0.1
v 0 -0.4 0.1
v 0.1 -0.4 0.1
v 0.1 -0.3 0.1
v 0 -0.4 0
v 0 -0.3 0
v 0.1 -0.3 0
v 0.1 -0.4 0
v 0 -0.2 0.1
v 0 -0.3 0.1
v 0.1 -0.3 0.1
v 0.1 -0.2 0.1
v 0 -0.3 0
v 0 -0.2 0
v 0.1 -0.2 0
v 0.1 -0.3 0
v 0 -0.1 0.1
v 0 -0.1 0
v 0 -0.2 0
v 0 -0.2 0.1
v 0 -0.1 0.1
v 0 -0.2 0.1
v 0.1 -0.2 0.1
v 0.1 -0.1 0.1
v 0 -0.2 0
v 0 -0.1 0
v 0.1 -0.1 0
v 0.1 -0.2 0
v 0 0 0.1
v 0 0 0
v 0 -0.1 0
v 0 -0.1 0.1
v 0 0 0.1
v 0 -0.1 0.1
v 0.1 -0.1 0.1
v 0.1 0 0.1
v 0 -0.1 0
v 0 0 0
v 0.1 0 0
v 0.1 -0.1 0
v 0 0.1 0.1
v 0 0.1 0
v 0 0 0
v 0 0 0.1
v 0 0.1 0.1
v 0 0 0.1
v 0.1 0 0.1
v 0.1 0.1 0.1
v 0 0 0
v 0 0.1 0
v 0.1 0.1 0
v 0.1 0 0
v 0.1 0.1 0.1
v 0.1 0.1 0
v 0 0.1 0
v 0 0.1 0.1
v 0 1 0.1
v 0 1 0
v 0 0.9 0
v 0 0.9 0.1
v 0 1 0.1
v 0 0.9 0.1
v 0.1 0.9 0.1
v 0.1 1 0.1
v 0 0.9 0
v 0 1 0
v 0.1 1 0
v 0.1 0.9 0
v 0 0.9 0.1
v 0 0.9 0
v 0.1 0.9 0
v 0.1 0.9 0.1
v 0 1.1 0.1
v 0 1.1 0
v 0 1 0
v 0 1 0.1
v 0 1.1 0.1
v 0 1 0.1
v 0.1 1 0.1
v 0.1 1.1 0.1
v 0 1 0
v 0 1.1 0
v 0.1 1.1 0
v 0.1 1 0
v 0 1.2 0.1
v 0 1.2 0
v 0 1.1 0
v 0 1.1 0.1
v 0 1.2 0.1
v 0 1.1 0.1
v 0.1 1.1 0.1
v 0.1 1.2 0.1
v 0 1.1 0
v 0 1.2 0
v 0.1 1.2 0
v 0.1 1.1 0
v 0.1 1.2 0.1
v 0.1 1.2 0
v 0 1.2 0
v 0 1.2 0.1
v 0.1 -1.1 0.1
v 0.1 -1.2 0.1
v 0.2 -1.2 0.1
v 0.2 -1.1 0.1
v 0.1 -1.2 0
v 0.1 -1.1 0
v 0.2 -1.1 0
v 0.2 -1.2 0
v 0.1 -1.2 0.1
v 0.1 -1.2 0
v 0.2 -1.2 0
v 0.2 -1.2 0.1
v 0.1 -1 0.1
v 0.1 -1.1 0.1
v 0.2 -1.1 0.1
v 0.2 -1 0.1
v 0.1 -1.1 0
v 0.1 -1 0
v 0.2 -1 0
v 0.2 -1.1 0
v 0.1 -0.9 0.1
v 0.1 -1 0.1
v 0.2 -1 0.1
v 0.2 -0.9 0.1
v 0.1 -1 0
v 0.1 -0.9 0
v 0.2 -0.9 0
v 0.2 -1 0
v 0.1 -0.8 0.1
v 0.1 -0.9 0.1
v 0.2 -0.9 0.1
v 0.2 -0.8 0.1
v 0.1 -0.9 0
v 0.1 -0.8 0
v 0.2 -0.8 0
v 0.2 -0.9 0
v 0.1 -0.7 0.1
v 0.1 -0.8 0.1
v 0.2 -0.8 0.1
v 0.2 -0.7 0.1
v 0.1 -0.8 0
v 0.1 -0.7 0
v 0.2 -0.7 0
v 0.2 -0.8 0
v 0.1 -0.6 0.1
v 0.1 -0.7 0.1
v 0.2 -0.7 0.1
v 0.2 -0.6 0.1
v 0.1 -0.7 0
v 0.1 -0.6 0
v 0.2 -0.6 0
v 0.2 -0.7 0
v 0.1 -0.5 0.1
v 0.1 -0.6 0.1
v 0.2 -0.6 0.1
v 0.2 -0.5 0.1
v 0.1 -0.6 0
v 0.1 -0.5 0
v 0.2 -0.5 0
v 0.2 -0.6 0
v 0.1 -0.4 0.1
v 0.1 -0.5 0.1
v 0.2 -0.5 0.1
v 0.2 -0.4 0.1
v 0.1 -0.5 0
v 0.1 -0.4 0
v 0.2 -0.4 0
v 0.2 -0.5 0
v 0.1 -0.3 0.1
v 0.1 -0.4 0.1
v 0.2 -0.4 0.1
v 0.2 -0.3 0.1
v 0.1 -0.4 0
v 0.1 -0.3 0
v 0.2 -0.3 0
v 0.2 -0.4 0
v 0.1 -0.2 0.1
v 0.1 -0.3 0.1
v 0.2 -0.3 0.1
v 0.2 -0.2 0.1
v 0.1 -0.3 0
v 0.1 -0.2 0
v 0.2 -0.2 0
v 0.2 -0.3 0
v 0.1 -0.1 0.1
v 0.1 -0.2 0.1
v 0.2 -0.2 0.1
v 0.2 -0.1 0.1
v 0.1 -0.2 0
v 0.1 -0.1 0
v 0.2 -0.1 0
v 0.2 -0.2 0
v 0.1 0 0.1
v 0.1 -0.1 0.1
v 0.2 -0.1 0.1
v 0.2 0 0.1
v 0.1 -0.1 0
v 0.1 0 0
v 0.2 0 0
v 0.2 -0.1 0
v 0.1 0.1 0.1
v 0.1 0 0.1
v 0.2 0 0.1
v 0.2 0.1 0.1
v 0.1 0 0
v 0.1 0.1 0
v 0.2 0.1 0
v 0.2 0 0
v 0.1 0.2 0.1
v 0.1 0.2 0
v 0.1 0.1 0
v 0.1 0.1 0.1
v 0.1 0.2 0.1
v 0.1 0.1 0.1
v 0.2 0.1 0.1
v 0.2 0.2 0.1
v 0.1 0.1 0
v 0.1 0.2 0
v 0.2 0.2 0
v 0.2 0.1 0
v 0.1 0.3 0.1
v 0.1 0.3 0
v 0.1 0.2 0
v 0.1 0.2 0.1
v 0.1 0.3 0.1
v 0.1 0.2 0.1
v 0.2 0.2 0.1
v 0.2 0.3 0.1
v 0.1 0.2 0
v 0.1 0.3 0
v 0.2 0.3 0
v 0.2 0.2 0
v 0.1 0.4 0.1
v 0.1 0.4 0
v 0.1 0.3 0
v 0.1 0.3 0.1
v 0.1 0.4 0.1
v 0.1 0.3 0.1
v 0.2 0.3 0.1
v 0.2 0.4 0.1
v 0.1 0.3 0
v 0.1 0.4 0
v 0.2 0.4 0
v 0.2 0.3 0
v 0.1 0.5 0.1
v 0.1 0.5 0
v 0.1 0.4 0
v 0.1 0.4 0.1
v 0.1 0.5 0.1
v 0.1 0.4 0.1
v 0.2 0.4 0.1
v 0.2 0.5 0.1
v 0.1 0.4 0
v 0.1 0.5 0
v 0.2 0.5 0
v 0.2 0.4 0
v 0.1 0.6 0.1
v 0.1 0.6 0
v 0.1 0.5 0
v 0.1 0.5 0.1
v 0.1 0.6 0.1
v 0.1 0.5 0.1
v 0.2 0.5 0.1
v 0.2 0.6 0.1
v 0.1 0.5 0
v 0.1 0.6 0
v 0.2 0.6 0
v 0.2 0.5 0
v 0.1 0.7 0.1
v 0.1 0.7 0
v 0.1 0.6 0
v 0.1 0.6 0.1
v 0.1 0.7 0.1
v 0.1 0.6 0.1
v 0.2 0.6 0.1
v 0.2 0.7 0.1
v 0.1 0.6 0
v 0.1 0.7 0
v 0.2 0.7 0
v 0.2 0.6 0
v 0.1 0.8 0.1
v 0.1 0.8 0
v 0.1 0.7 0
v 0.1 0.7 0.1
v 0.1 0.8 0.1
v 0.1 0.7 0.1
v 0.2 0.7 0.1
v 0.2 0.8 0.1
v 0.1 0.7 0
v 0.1 0.8 0
v 0.2 0.8 0
v 0.2 0.7 0
v 0.1 0.9 0.1
v 0.1 0.9 0
v 0.1 0.8 0
v 0.1 0.8 0.1
v 0.1 0.9 0.1
v 0.1 0.8 0.1
v 0.2 0.8 0.1
v 0.2 0.9 0.1
v 0.1 0.8 0
v 0.1 0.9 0
v 0.2 0.9 0
v 0.2 0.8 0
v 0.1 1 0.1
v 0.1 0.9 0.1
v 0.2 0.9 0.1
v 0.2 1 0.1
v 0.1 0.9 0
v 0.1 1 0
v 0.2 1 0
v 0.2 0.9 0
v 0.1 1.1 0.1
v 0.1 1 0.1
v 0.2 1 0.1
v 0.2 1.1 0.1
v 0.1 1 0
v 0.1 1.1 0
v 0.2 1.1 0
v 0.2 1 0
v 0.1 1.2 0.1
v 0.1 1.1 0.1
v 0.2 1.1 0.1
v 0.2 1.2 0.1
v 0.1 1.1 0
v 0.1 1.2 0
v 0.2 1.2 0
v 0.2 1.1 0
v 0.2 1.2 0.1
v 0.2 1.2 0
v 0.1 1.2 0
v 0.1 1.2 0.1
v 0.2 -1.1 0.1
v 0.2 -1.2 0.1
v 0.3 -1.2 0.1
v 0.3 -1.1 0.1
v 0.2 -1.2 0
v 0.2 -1.1 0
v 0.3 -1.1 0
v 0.3 -1.2 0
v 0.2 -1.2 0.1
v 0.2 -1.2 0
v 0.3 -1.2 0
v 0.3 -1.2 0.1
v 0.2 -1 0.1
v 0.2 -1.1 0.1
v 0.3 -1.1 0.1
v 0.3 -1 0.1
v 0.2 -1.1 0
v 0.2 -1 0
v 0.3 -1 0
v 0.3 -1.1 0
v 0.2 -0.9 0.1
v 0.2 -1 0.1
v 0.3 -1 0.1
v 0.3 -0.9 0.1
v 0.2 -1 0
v 0.2 -0.9 0
v 0.3 -0.9 0
v 0.3 -1 0
v 0.2 -0.8 0.1
v 0.2 -0.9 0.1
v 0.3 -0.9 0.1
v 0.3 -0.8 0.1
v 0.2 -0.9 0
v 0.2 -0.8 0
v 0.3 -0.8 0
v 0.3 -0.9 0
v 0.2 -0.7 0.1
v 0.2 -0.8 0.1
v 0.3 -0.8 0.1
v 0.3 -0.7 0.1
v 0.2 -0.8 0
v 0.2 -0.7 0
v 0.3 -0.7 0
v 0.3 -0.8 0
v 0.2 -0.6 0.1
v 0.2 -0.7 0.1
v 0.3 -0.7 0.1
v 0.3 -0.6 0.1
v 0.2 -0.7 0
v 0.2 -0.6 0
v 0.3 -0.6 0
v 0.3 -0.7 0
v 0.2 -0.5 0.1
v 0.2 -0.6 0.1
v 0.3 -0.6 0.1
v 0.3 -0.5 0.1
v 0.2 -0.6 0
v 0.2 -0.5 0
v 0.3 -0.5 0
v 0.3 -0.6 0
v 0.2 -0.4 0.1
v 0.2 -0.5 0.1
v 0.3 -0.5 0.1
v 0.3 -0.4 0.1
v 0.2 -0.5 0
v 0.2 -0.4 0
v 0.3 -0.4 0
v 0.3 -0.5 0
v 0.2 -0.3 0.1
v 0.2 -0.4 0.1
v 0.3 -0.4 0.1
v 0.3 -0.3 0.1
v 0.2 -0.4 0
v 0.2 -0.3 0
v 0.3 -0.3 0
v 0.3 -0.4 0
v 0.2 -0.2 0.1
v 0.2 -0.3 0.1
v 0.3 -0.3 0.1
v 0.3 -0.2 0.1
v 0.2 -0.3 0
v 0.2 -0.2 0
v 0.3 -0.2 0
v 0.3 -0.3 0
v 0.2 -0.1 0.1
v 0.2 -0.2 0.1
v 0.3 -0.2 0.1
v 0.3 -0.1 0.1
v 0.2 -0.2 0
v 0.2 -0.1 0
v 0.3 -0.1 0
v 0.3 -0.2 0
v 0.2 0 0.1
v 0.2 -0.1 0.1
v 0.3 -0.1 0.1
v 0.3 0 0.1
v 0.2 -0.1 0
v 0.2 0 0
v 0.3 0 0
v 0.3 -0.1 0
v 0.2 0.1 0.1
v 0.2 0 0.1
v 0.3 0 0.1
v 0.3 0.1 0.1
v 0.2 0 0
v 0.2 0.1 0
v 0.3 0.1 0
v 0.3 0 0
v 0.2 0.2 0.1
v 0.2 0.1 0.1
v 0.3 0.1 0.1
v 0.3 0.2 0.1
v 0.2 0.1 0
v 0.2 0.2 0
v 0.3 0.2 0
v 0.3 0.1 0
v 0.2 0.3 0.1
v 0.2 0.2 0.1
v 0.3 0.2 0.1
v 0.3 0.3 0.1
v 0.2 0.2 0
v 0.2 0.3 0
v 0.3 0.3 0
v 0.3 0.2 0
v 0.2 0.4 0.1
v 0.2 0.3 0.1
v 0.3 0.3 0.1
v 0.3 0.4 0.1
v 0.2 0.3 0
v 0.2 0.4 0
v 0.3 0.4 0
v 0.3 0.3 0
v 0.2 0.5 0.1
v 0.2 0.4 0.1
v 0.3 0.4 0.1
v 0.3 0.5 0.1
v 0.2 0.4 0
v 0.2 0.5 0
v 0.3 0.5 0
v 0.3 0.4 0
v 0.2 0.6 0.1
v 0.2 0.5 0.1
v 0.3 0.5 0.1
v 0.3 0.6 0.1
v 0.2 0.5 0
v 0.2 0.6 0
v 0.3 0.6 0
v 0.3 0.5 0
v 0.2 0.7 0.1
v 0.2 0.6 0.1
v 0.3 0.6 0.1
v 0.3 0.7 0.1
v 0.2 0.6 0
v 0.2 0.7 0
v 0.3 0.7 0
v 0.3 0.6 0
v 0.2 0.8 0.1
v 0.2 0.7 0.1
v 0.3 0.7 0.1
v 0.3 0.8 0.1
v 0.2 0.7 0
v 0.2 0.8 0
v 0.3 0.8 0
v 0.3 0.7 0
v 0.2 0.9 0.1
v 0.2 0.8 0.1
v 0.3 0.8 0.1
v 0.3 0.9 0.1
v 0.2 0.8 0
v 0.2 0.9 0
v 0.3 0.9 0
v 0.3 0.8 0
v 0.2 1 0.1
v 0.2 0.9 0.1
v 0.3 0.9 0.1
v 0.3 1 0.1
v 0.2 0.9 0
v 0.2 1 0
v 0.3 1 0
v 0.3 0.9 0
v 0.2 1.1 0.1
v 0.2 1 0.1
v 0.3 1 0.1
v 0.3 1.1 0.1
v 0.2 1 0
v 0.2 1.1 0
v 0.3 1.1 0
v 0.3 1 0
v 0.2 1.2 0.1
v 0.2 1.1 0.1
v 0.3 1.1 0.1
v 0.3 1.2 0.1
v 0.2 1.1 0
v 0.2 1.2 0
v 0.3 1.2 0
v 0.3 1.1 0
v 0.3 1.2 0.1
v 0.3 1.2 0
v 0.2 1.2 0
v 0.2 1.2 0.1
v 0.3 -1.1 0.1
v 0.3 -1.2 0.1
v 0.4 -1.2 0.1
v 0.4 -1.1 0.1
v 0.3 -1.2 0
v 0.3 -1.1 0
v 0.4 -1.1 0
v 0.4 -1.2 0
v 0.3 -1.2 0.1
v 0.3 -1.2 0
v 0.4 -1.2 0
v 0.4 -1.2 0.1
v 0.3 -1 0.1
v 0.3 -1.1 0.1
v 0.4 -1.1 0.1
v 0.4 -1 0.1
v 0.3 -1.1 0
v 0.3 -1 0
v 0.4 -1 0
v 0.4 -1.1 0
v 0.3 -0.9 0.1
v 0.3 -1 0.1
v 0.4 -1 0.1
v 0.4 -0.9 0.1
v 0.3 -1 0
v 0.3 -0.9 0
v 0.4 -0.9 0
v 0.4 -1 0
v 0.3 -0.8 0.1
v 0.3 -0.9 0.1
v 0.4 -0.9 0.1
v 0.4 -0.8 0.1
v 0.3 -0.9 0
v 0.3 -0.8 0
v 0.4 -0.8 0
v 0.4 -0.9 0
v 0.3 -0.7 0.1
v 0.3 -0.8 0.1
v 0.4 -0.8 0.1
v 0.4 -0.7 0.1
v 0.3 -0.8 0
v 0.3 -0.7 0
v 0.4 -0.7 0
v 0.4 -0.8 0
v 0.3 -0.6 0.1
v 0.3 -0.7 0.1
v 0.4 -0.7 0.1
v 0.4 -0.6 0.1
v 0.3 -0.7 0
v 0.3 -0.6 0
v 0.4 -0.6 0
v 0.4 -0.7 0
v 0.3 -0.5 0.1
v 0.3 -0.6 0.1
v 0.4 -0.6 0.1
v 0.4 -0.5 0.1
v 0.3 -0.6 0
v 0.3 -0.5 0
v 0.4 -0.5 0
v 0.4 -0.6 0
v 0.3 -0.4 0.1
v 0.3 -0.5 0.1
v 0.4 -0.5 0.1
v 0.4 -0.4 0.1
v 0.3 -0.5 0
v 0.3 -0.4 0
v 0.4 -0.4 0
v 0.4 -0.5 0
v 0.3 -0.3 0.1
v 0.3 -0.4 0.1
v 0.4 -0.4 0.1
v 0.4 -0.3 0.1
v 0.3 -0.4 0
v 0.3 -0.3 0
v 0.4 -0.3 0
v 0.4 -0.4 0
v 0.3 -0.2 0.1
v 0.3 -0.3 0.1
v 0.4 -0.3 0.1
v 0.4 -0.2 0.1
v 0.3 -0.3 0
v 0.3 -0.2 0
v 0.4 -0.2 0
v 0.4 -0.3 0
v 0.3 -0.1 0.1
v 0.3 -0.2 0.1
v 0.4 -0.2 0.1
v 0.4 -0.1 0.1
v 0.3 -0.2 0
v 0.3 -0.1 0
v 0.4 -0.1 0
v 0.4 -0.2 0
v 0.3 0 0.1
v 0.3 -0.1 0.1
v 0.4 -0.1 0.1
v 0.4 0 0.1
v 0.3 -0.1 0
v 0.3 0 0
v 0.4 0 0
v 0.4 -0.1 0
v 0.3 0.1 0.1
v 0.3 0 0.1
v 0.4 0 0.1
v 0.4 0.1 0.1
v 0.3 0 0
v 0.3 0.1 0
v 0.4 0.1 0
v 0.4 0 0
v 0.3 0.2 0.1
v 0.3 0.1 0.1
v 0.4 0.1 0.1
v 0.4 0.2 0.1
v 0.3 0.1 0
v 0.3 0.2 0
v 0.4 0.2 0
v 0.4 0.1 0
v 0.3 0.3 0.1
v 0.3 0.2 0.1
v 0.4 0.2 0.1
v 0.4 0.3 0.1
v 0.3 0.2 0
v 0.3 0.3 0
v 0.4 0.3 0
v 0.4 0.2 0
v 0.3 0.4 0.1
v 0.3 0.3 0.1
v 0.4 0.3 0.1
v 0.4 0.4 0.1
v 0.3 0.3 0
v 0.3 0.4 0
v 0.4 0.4 0
v 0.4 0.3 0
v 0.3 0.5 0.1
v 0.3 0.4 0.1
v 0.4 0.4 0.1
v 0.4 0.5 0.1
v 0.3 0.4 0
v 0.3 0.5 0
v 0.4 0.5 0
v 0.4 0.4 0
v 0.3 0.6 0.1
v 0.3 0.5 0.1
v 0.4 0.5 0.1
v 0.4 0.6 0.1
v 0.3 0.5 0
v 0.3 0.6 0
v 0.4 0.6 0
v 0.4 0.5 0
v 0.3 0.7 0.1
v 0.3 0.6 0.1
v 0.4 0.6 0.1
v 0.4 0.7 0.1
v 0.3 0.6 0
v 0.3 0.7 0
v 0.4 0.7 0
v 0.4 0.6 0
v 0.3 0.8 0.1
v 0.3 0.7 0.1
v 0.4 0.7 0.1
v 0.4 0.8 0.1
v 0.3 0.7 0
v 0.3 0.8 0
v 0.4 0.8 0
v 0.4 0.7 0
v 0.3 0.9 0.1
v 0.3 0.8 0.1
v 0.4 0.8 0.1
v 0.4 0.9 0.1
v 0.3 0.8 0
v 0.3 0.9 0
v 0.4 0.9 0
v 0.4 0.8 0
v 0.3 1 0.1
v 0.3 0.9 0.1
v 0.4 0.9 0.1
v 0.4 1 0.1
v 0.3 0.9 0
v 0.3 1 0
v 0.4 1 0
v 0.4 0.9 0
v 0.3 1.1 0.1
v 0.3 1 0.1
v 0.4 1 0.1
v 0.4 1.1 0.1
v 0.3 1 0
v 0.3 1.1 0
v 0.4 1.1 0
v 0.4 1 0
v 0.3 1.2 0.1
v 0.3 1.1 0.1
v 0.4 1.1 0.1
v 0.4 1.2 0.1
v 0.3 1.1 0
v 0.3 1.2 0
v 0.4 1.2 0
v 0.4 1.1 0
v 0.4 1.2 0.1
v 0.4 1.2 0
v 0.3 1.2 0
v 0.3 1.2 0.1
v 0.4 -1.1 0.1
v 0.4 -1.2 0.1
v 0.5 -1.2 0.1
v 0.5 -1.1 0.1
v 0.4 -1.2 0
v 0.4 -1.1 0
v 0.5 -1.1 0
v 0.5 -1.2 0
v 0.4 -1.2 0.1
v 0.4 -1.2 0
v 0.5 -1.2 0
v 0.5 -1.2 0.1
v 0.4 -1 0.1
v 0.4 -1.1 0.1
v 0.5 -1.1 0.1
v 0.5 -1 0.1
v 0.4 -1.1 0
v 0.4 -1 0
v 0.5 -1 0
v 0.5 -1.1 0
v 0.4 -0.9 0.1
v 0.4 -1 0.1
v 0.5 -1 0.1
v 0.5 -0.9 0.1
v 0.4 -1 0
v 0.4 -0.9 0
v 0.5 -0.9 0
v 0.5 -1 0
v 0.4 -0.8 0.1
v 0.4 -0.9 0.1
v 0.5 -0.9 0.1
v 0.5 -0.8 0.1
v 0.4 -0.9 0
v 0.4 -0.8 0
v 0.5 -0.8 0
v 0.5 -0.9 0
v 0.4 -0.7 0.1
v 0.4 -0.8 0.1
v 0.5 -0.8 0.1
v 0.5 -0.7 0.1
v 0.4 -0.8 0
v 0.4 -0.7 0
v 0.5 -0.7 0
v 0.5 -0.8 0
v 0.4 -0.6 0.1
v 0.4 -0.7 0.1
v 0.5 -0.7 0.1
v 0.5 -0.6 0.1
v 0.4 -0.7 0
v 0.4 -0.6 0
v 0.5 -0.6 0
v 0.5 -0.7 0
v 0.4 -0.5 0.1
v 0.4 -0.6 0.1
v 0.5 -0.6 0.1
v 0.5 -0.5 0.1
v 0.4 -0.6 0
v 0.4 -0.5 0
v 0.5 -0.5 0
v 0.5 -0.6 0
v 0.4 -0.4 0.1
v 0.4 -0.5 0.1
v 0.5 -0.5 0.1
v 0.5 -0.4 0.1
v 0.4 -0.5 0
v 0.4 -0.4 0
v 0.5 -0.4 0
v 0.5 -0.5 0
v 0.4 -0.3 0.1
v 0.4 -0.4 0.1
v 0.5 -0.4 0.1
v 0.5 -0.3 0.1
v 0.4 -0.4 0
v 0.4 -0.3 0
v 0.5 -0.3 0
v 0.5 -0.4 0
v 0.4 -0.2 0.1
v 0.4 -0.3 0.1
v 0.5 -0.3 0.1
v 0.5 -0.2 0.1
v 0.4 -0.3 0
v 0.4 -0.2 0
v 0.5 -0.2 0
v 0.5 -0.3 0
v 0.4 -0.1 0.1
v 0.4 -0.2 0.1
v 0.5 -0.2 0.1
v 0.5 -0.1 0.1
v 0.4 -0.2 0
v 0.4 -0.1 0
v 0.5 -0.1 0
v 0.5 -0.2 0
v 0.4 0 0.1
v 0.4 -0.1 0.1
v 0.5 -0.1 0.1
v 0.5 0 0.1
v 0.4 -0.1 0
v 0.4 0 0
v 0.5 0 0
v 0.5 -0.1 0
v 0.4 0.1 0.1
v 0.4 0 0.1
v 0.5 0 0.1
v 0.5 0.1 0.1
v 0.4 0 0
v 0.4 0.1 0
v 0.5 0.1 0
v 0.5 0 0
v 0.4 0.2 0.1
v 0.4 0.1 0.1
v 0.5 0.1 0.1
v 0.5 0.2 0.1
v 0.4 0.1 0
v 0.4 0.2 0
v 0.5 0.2 0
v 0.5 0.1 0
v 0.4 0.3 0.1
v 0.4 0.2 0.1
v 0.5 0.2 0.1
v 0.5 0.3 0.1
v 0.4 0.2 0
v 0.4 0.3 0
v 0.5 0.3 0
v 0.5 0.2 0
v 0.4 0.4 0.1
v 0.4 0.3 0.1
v 0.5 0.3 0.1
v 0.5 0.4 0.1
v 0.4 0.3 0
v 0.4 0.4 0
v 0.5 0.4 0
v 0.5 0.3 0
v 0.4 0.5 0.1
v 0.4 0.4 0.1
v 0.5 0.4 0.1
v 0.5 0.5 0.1
v 0.4 0.4 0
v 0.4 0.5 0
v 0.5 0.5 0
v 0.5 0.4 0
v 0.4 0.6 0.1
v 0.4 0.5 0.1
v 0.5 0.5 0.1
v 0.5 0.6 0.1
v 0.4 0.5 0
v 0.4 0.6 0
v 0.5 0.6 0
v 0.5 0.5 0
v 0.4 0.7 0.1
v 0.4 0.6 0.1
v 0.5 0.6 0.1
v 0.5 0.7 0.1
v 0.4 0.6 0
v 0.4 0.7 0
v 0.5 0.7 0
v 0.5 0.6 0
v 0.4 0.8 0.1
v 0.4 0.7 0.1
v 0.5 0.7 0.1
v 0.5 0.8 0.1
v 0.4 0.7 0
v 0.4 0.8 0
v 0.5 0.8 0
v 0.5 0.7 0
v 0.4 0.9 0.1
v 0.4 0.8 0.1
v 0.5 0.8 0.1
v 0.5 0.9 0.1
v 0.4 0.8 0
v 0.4 0.9 0
v 0.5 0.9 0
v 0.5 0.8 0
v 0.4 1 0.1
v 0.4 0.9 0.1
v 0.5 0.9 0.1
v 0.5 1 0.1
v 0.4 0.9 0
v 0.4 1 0
v 0.5 1 0
v 0.5 0.9 0
v 0.4 1.1 0.1
v 0.4 1 0.1
v 0.5 1 0.1
v 0.5 1.1 0.1
v 0.4 1 0
v 0.4 1.1 0
v 0.5 1.1 0
v 0.5 1 0
v 0.4 1.2 0.1
v 0.4 1.1 0.1
v 0.5 1.1 0.1
v 0.5 1.2 0.1
v 0.4 1.1 0
v 0.4 1.2 0
v 0.5 1.2 0
v 0.5 1.1 0
v 0.5 1.2 0.1
v 0.5 1.2 0
v 0.4 1.2 0
v 0.4 1.2 0.1
v 0.5 -1.1 0.1
v 0.5 -1.2 0.1
v 0.6 -1.2 0.1
v 0.6 -1.1 0.1
v 0.5 -1.2 0
v 0.5 -1.1 0
v 0.6 -1.1 0
v 0.6 -1.2 0
v 0.5 -1.2 0.1
v 0.5 -1.2 0
v 0.6 -1.2 0
v 0.6 -1.2 0.1
v 0.5 -1 0.1
v 0.5 -1.1 0.1
v 0.6 -1.1 0.1
v 0.6 -1 0.1
v 0.5 -1.1 0
v 0.5 -1 0
v 0.6 -1 0
v 0.6 -1.1 0
v 0.5 -0.9 0.1
v 0.5 -1 0.1
v 0.6 -1 0.1
v 0.6 -0.9 0.1
v 0.5 -1 0
v 0.5 -0.9 0
v 0.6 -0.9 0
v 0.6 -1 0
v 0.5 -0.8 0.1
v 0.5 -0.9 0.1
v 0.6 -0.9 0.1
v 0.6 -0.8 0.1
v 0.5 -0.9 0
v 0.5 -0.8 0
v 0.6 -0.8 0
v 0.6 -0.9 0
v 0.5 -0.7 0.1
v 0.5 -0.8 0.1
v 0.6 -0.8 0.1
v 0.6 -0.7 0.1
v 0.5 -0.8 0
v 0.5 -0.7 0
v 0.6 -0.7 0
v 0.6 -0.8 0
v 0.5 -0.6 0.1
v 0.5 -0.7 0.1
v 0.6 -0.7 0.1
v 0.6 -0.6 0.1
v 0.5 -0.7 0
v 0.5 -0.6 0
v 0.6 -0.6 0
v 0.6 -0.7 0
v 0.5 -0.5 0.1
v 0.5 -0.6 0.1
v 0.6 -0.6 0.1
v 0.6 -0.5 0.1
v 0.5 -0.6 0
v 0.5 -0.5 0
v 0.6 -0.5 0
v 0.6 -0.6 0
v 0.5 -0.4 0.1
v 0.5 -0.5 0.1
v 0.6 -0.5 0.1
v 0.6 -0.4 0.1
v 0.5 -0.5 0
v 0.5 -0.4 0
v 0.6 -0.4 0
v 0.6 -0.5 0
v 0.5 -0.3 0.1
v 0.5 -0.4 0.1
v 0.6 -0.4 0.1
v 0.6 -0.3 0.1
v 0.5 -0.4 0
v 0.5 -0.3 0
v 0.6 -0.3 0
v 0.6 -0.4 0
v 0.5 -0.2 0.1
v 0.5 -0.3 0.1
v 0.6 -0.3 0.1
v 0.6 -0.2 0.1
v 0.5 -0.3 0
v 0.5 -0.2 0
v 0.6 -0.2 0
v 0.6 -0.3 0
v 0.5 -0.1 0.1
v 0.5 -0.2 0.1
v 0.6 -0.2 0.1
v 0.6 -0.1 0.1
v 0.5 -0.2 0
v 0.5 -0.1 0
v 0.6 -0.1 0
v 0.6 -0.2 0
v 0.5 0 0.1
v 0.5 -0.1 0.1
v 0.6 -0.1 0.1
v 0.6 0 0.1
v 0.5 -0.1 0
v 0.5 0 0
v 0.6 0 0
v 0.6 -0.1 0
v 0.5 0.1 0.1
v 0.5 0 0.1
v 0.6 0 0.1
v 0.6 0.1 0.1
v 0.5 0 0
v 0.5 0.1 0
v 0.6 0.1 0
v 0.6 0 0
v 0.5 0.2 0.1
v 0.5 0.1 0.1
v 0.6 0.1 0.1
v 0.6 0.2 0.1
v 0.5 0.1 0
v 0.5 0.2 0
v 0.6 0.2 0
v 0.6 0.1 0
v 0.5 0.3 0.1
v 0.5 0.2 0.1
v 0.6 0.2 0.1
v 0.6 0.3 0.1
v 0.5 0.2 0
v 0.5 0.3 0
v 0.6 0.3 0
v 0.6 0.2 0
v 0.5 0.4 0.1
v 0.5 0.3 0.1
v 0.6 0.3 0.1
v 0.6 0.4 0.1
v 0.5 0.3 0
v 0.5 0.4 0
v 0.6 0.4 0
v 0.6 0.3 0
v 0.5 0.5 0.1
v 0.5 0.4 0.1
v 0.6 0.4 0.1
v 0.6 0.5 0.1
v 0.5 0.4 0
v 0.5 0.5 0
v 0.6 0.5 0
v 0.6 0.4 0
v 0.5 0.6 0.1
v 0.5 0.5 0.1
v 0.6 0.5 0.1
v 0.6 0.6 0.1
v 0.5 0.5 0
v 0.5 0.6 0
v 0.6 0.6 0
v 0.6 0.5 0
v 0.5 0.7 0.1
v 0.5 0.6 0.1
v 0.6 0.6 0.1
v 0.6 0.7 0.1
v 0.5 0.6 0
v 0.5 0.7 0
v 0.6 0.7 0
v 0.6 0.6 0
v 0.5 0.8 0.1
v 0.5 0.7 0.1
v 0.6 0.7 0.1
v 0.6 0.8 0.1
v 0.5 0.7 0
v 0.5 0.8 0
v 0.6 0.8 0
v 0.6 0.7 0
v 0.5 0.9 0.1
v 0.5 0.8 0.1
v 0.6 0.8 0.1
v 0.6 0.9 0.1
v 0.5 0.8 0
v 0.5 0.9 0
v 0.6 0.9 0
v 0.6 0.8 0
v 0.5 1 0.1
v 0.5 0.9 0.1
v 0.6 0.9 0.1
v 0.6 1 0.1
v 0.5 0.9 0
v 0.5 1 0
v 0.6 1 0
v 0.6 0.9 0
v 0.5 1.1 0.1
v 0.5 1 0.1
v 0.6 1 0.1
v 0.6 1.1 0.1
v 0.5 1 0
v 0.5 1.1 0
v 0.6 1.1 0
v 0.6 1 0
v 0.5 1.2 0.1
v 0.5 1.1 0.1
v 0.6 1.1 0.1
v 0.6 1.2 0.1
v 0.5 1.1 0
v 0.5 1.2 0
v 0.6 1.2 0
v 0.6 1.1 0
v 0.6 1.2 0.1
v 0.6 1.2 0
v 0.5 1.2 0
v 0.5 1.2 0.1
v 0.6 -1.1 0.1
v 0.6 -1.2 0.1
v 0.7 -1.2 0.1
v 0.7 -1.1 0.1
v 0.6 -1.2 0
v 0.6 -1.1 0
v 0.7 -1.1 0
v 0.7 -1.2 0
v 0.6 -1.2 0.1
v 0.6 -1.2 0
v 0.7 -1.2 0
v 0.7 -1.2 0.1
v 0.6 -1 0.1
v 0.6 -1.1 0.1
v 0.7 -1.1 0.1
v 0.7 -1 0.1
v 0.6 -1.1 0
v 0.6 -1 0
v 0.7 -1 0
v 0.7 -1.1 0
v 0.6 -0.9 0.1
v 0.6 -1 0.1
v 0.7 -1 0.1
v 0.7 -0.9 0.1
v 0.6 -1 0
v 0.6 -0.9 0
v 0.7 -0.9 0
v 0.7 -1 0
v 0.6 -0.8 0.1
v 0.6 -0.9 0.1
v 0.7 -0.9 0.1
v 0.7 -0.8 0.1
v 0.6 -0.9 0
v 0.6 -0.8 0
v 0.7 -0.8 0
v 0.7 -0.9 0
v 0.6 -0.7 0.1
v 0.6 -0.8 0.1
v 0.7 -0.8 0.1
v 0.7 -0.7 0.1
v 0.6 -0.8 0
v 0.6 -0.7 0
v 0.7 -0.7 0
v 0.7 -0.8 0
v 0.6 -0.6 0.1
v 0.6 -0.7 0.1
v 0.7 -0.7 0.1
v 0.7 -0.6 0.1
v 0.6 -0.7 0
v 0.6 -0.6 0
v 0.7 -0.6 0
v 0.7 -0.7 0
v 0.6 -0.5 0.1
v 0.6 -0.6 0.1
v 0.7 -0.6 0.1
v 0.7 -0.5 0.1
v 0.6 -0.6 0
v 0.6 -0.5 0
v 0.7 -0.5 0
v 0.7 -0.6 0
v 0.6 -0.4 0.1
v 0.6 -0.5 0.1
v 0.7 -0.5 0.1
v 0.7 -0.4 0.1
v 0.6 -0.5 0
v 0.6 -0.4 0
v 0.7 -0.4 0
v 0.7 -0.5 0
v 0.6 -0.3 0.1
v 0.6 -0.4 0.1
v 0.7 -0.4 0.1
v 0.7 -0.3 0.1
v 0.6 -0.4 0
v 0.6 -0.3 0
v 0.7 -0.3 0
v 0.7 -0.4 0
v 0.6 -0.2 0.1
v 0.6 -0.3 0.1
v 0.7 -0.3 0.1
v 0.7 -0.2 0.1
v 0.6 -0.3 0
v 0.6 -0.2 0
v 0.7 -0.2 0
v 0.7 -0.3 0
v 0.6 -0.1 0.1
v 0.6 -0.2 0.1
v 0.7 -0.2 0.1
v 0.7 -0.1 0.1
v 0.6 -0.2 0
v 0.6 -0.1 0
v 0.7 -0.1 0
v 0.7 -0.2 0
v 0.6 0 0.1
v 0.6 -0.1 0.1
v 0.7 -0.1 0.1
v 0.7 0 0.1
v 0.6 -0.1 0
v 0.6 0 0
v 0.7 0 0
v 0.7 -0.1 0
v 0.6 0.1 0.1
v 0.6 0 0.1
v 0.7 0 0.1
v 0.7 0.1 0.1
v 0.6 0 0
v 0.6 0.1 0
v 0.7 0.1 0
v 0.7 0 0
v 0.6 0.2 0.1
v 0.6 0.1 0.1
v 0.7 0.1 0.1
v 0.7 0.2 0.1
v 0.6 0.1 0
v 0.6 0.2 0
v 0.7 0.2 0
v 0.7 0.1 0
v 0.6 0.3 0.1
v 0.6 0.2 0.1
v 0.7 0.2 0.1
v 0.7 0.3 0.1
v 0.6 0.2 0
v 0.6 0.3 0
v 0.7 0.3 0
v 0.7 0.2 0
v 0.6 0.4 0.1
v 0.6 0.3 0.1
v 0.7 0.3 0.1
v 0.7 0.4 0.1
v 0.6 0.3 0
v 0.6 0.4 0
v 0.7 0.4 0
v 0.7 0.3 0
v 0.6 0.5 0.1
v 0.6 0.4 0.1
v 0.7 0.4 0.1
v 0.7 0.5 0.1
v 0.6 0.4 0
v 0.6 0.5 0
v 0.7 0.5 0
v 0.7 0.4 0
v 0.6 0.6 0.1
v 0.6 0.5 0.1
v 0.7 0.5 0.1
v 0.7 0.6 0.1
v 0.6 0.5 0
v 0.6 0.6 0
v 0.7 0.6 0
v 0.7 0.5 0
v 0.6 0.7 0.1
v 0.6 0.6 0.1
v 0.7 0.6 0.1
v 0.7 0.7 0.1
v 0.6 0.6 0
v 0.6 0.7 0
v 0.7 0.7 0
v 0.7 0.6 0
v 0.6 0.8 0.1
v 0.6 0.7 0.1
v 0.7 0.7 0.1
v 0.7 0.8 0.1
v 0.6 0.7 0
v 0.6 0.8 0
v 0.7 0.8 0
v 0.7 0.7 0
v 0.6 0.9 0.1
v 0.6 0.8 0.1
v 0.7 0.8 0.1
v 0.7 0.9 0.1
v 0.6 0.8 0
v 0.6 0.9 0
v 0.7 0.9 0
v 0.7 0.8 0
v 0.6 1 0.1
v 0.6 0.9 0.1
v 0.7 0.9 0.1
v 0.7 1 0.1
v 0.6 0.9 0
v 0.6 1 0
v 0.7 1 0
v 0.7 0.9 0
v 0.6 1.1 0.1
v 0.6 1 0.1
v 0.7 1 0.1
v 0.7 1.1 0.1
v 0.6 1 0
v 0.6 1.1 0
v 0.7 1.1 0
v 0.7 1 0
v 0.6 1.2 0.1
v 0.6 1.1 0.1
v 0.7 1.1 0.1
v 0.7 1.2 0.1
v 0.6 1.1 0
v 0.6 1.2 0
v 0.7 1.2 0
v 0.7 1.1 0
v 0.7 1.2 0.1
v 0.7 1.2 0
v 0.6 1.2 0
v 0.6 1.2 0.1
v 0.7 -1.1 0.1
v 0.7 -1.2 0.1
v 0.8 -1.2 0.1
v 0.8 -1.1 0.1
v 0.7 -1.2 0
v 0.7 -1.1 0
v 0.8 -1.1 0
v 0.8 -1.2 0
v 0.7 -1.2 0.1
v 0.7 -1.2 0
v 0.8 -1.2 0
v 0.8 -1.2 0.1
v 0.7 -1 0.1
v 0.7 -1.1 0.1
v 0.8 -1.1 0.1
v 0.8 -1 0.1
v 0.7 -1.1 0
v 0.7 -1 0
v 0.8 -1 0
v 0.8 -1.1 0
v 0.7 -0.9 0.1
v 0.7 -1 0.1
v 0.8 -1 0.1
v 0.8 -0.9 0.1
v 0.7 -1 0
v 0.7 -0.9 0
v 0.8 -0.9 0
v 0.8 -1 0
v 0.7 -0.8 0.1
v 0.7 -0.9 0.1
v 0.8 -0.9 0.1
v 0.8 -0.8 0.1
v 0.7 -0.9 0
v 0.7 -0.8 0
v 0.8 -0.8 0
v 0.8 -0.9 0
v 0.7 -0.7 0.1
v 0.7 -0.8 0.1
v 0.8 -0.8 0.1
v 0.8 -0.7 0.1
v 0.7 -0.8 0
v 0.7 -0.7 0
v 0.8 -0.7 0
v 0.8 -0.8 0
v 0.7 -0.6 0.1
v 0.7 -0.7 0.1
v 0.8 -0.7 0.1
v 0.8 -0.6 0.1
v 0.7 -0.7 0
v 0.7 -0.6 0
v 0.8 -0.6 0
v 0.8 -0.7 0
v 0.7 -0.5 0.1
v 0.7 -0.6 0.1
v 0.8 -0.6 0.1
v 0.8 -0.5 0.1
v 0.7 -0.6 0
v 0.7 -0.5 0
v 0.8 -0.5 0
v 0.8 -0.6 0
v 0.7 -0.4 0.1
v 0.7 -0.5 0.1
v 0.8 -0.5 0.1
v 0.8 -0.4 0.1
v 0.7 -0.5 0
v 0.7 -0.4 0
v 0.8 -0.4 0
v 0.8 -0.5 0
v 0.7 -0.3 0.1
v 0.7 -0.4 0.1
v 0.8 -0.4 0.1
v 0.8 -0.3 0.1
v 0.7 -0.4 0
v 0.7 -0.3 0
v 0.8 -0.3 0
v 0.8 -0.4 0
v 0.7 -0.2 0.1
v 0.7 -0.3 0.1
v 0.8 -0.3 0.1
v 0.8 -0.2 0.1
v 0.7 -0.3 0
v 0.7 -0.2 0
v 0.8 -0.2 0
v 0.8 -0.3 0
v 0.7 -0.1 0.1
v 0.7 -0.2 0.1
v 0.8 -0.2 0.1
v 0.8 -0.1 0.1
v 0.7 -0.2 0
v 0.7 -0.1 0
v 0.8 -0.1 0
v 0.8 -0.2 0
v 0.7 0 0.1
v 0.7 -0.1 0.1
v 0.8 -0.1 0.1
v 0.8 0 0.1
v 0.7 -0.1 0
v 0.7 0 0
v 0.8 0 0
v 0.8 -0.1 0
v 0.7 0.1 0.1
v 0.7 0 0.1
v 0.8 0 0.1
v 0.8 0.1 0.1
v 0.7 0 0
v 0.7 0.1 0
v 0.8 0.1 0
v 0.8 0 0
v 0.7 0.2 0.1
v 0.7 0.1 0.1
v 0.8 0.1 0.1
v 0.8 0.2 0.1
v 0.7 0.1 0
v 0.7 0.2 0
v 0.8 0.2 0
v 0.8 0.1 0
v 0.7 0.3 0.1
v 0.7 0.2 0.1
v 0.8 0.2 0.1
v 0.8 0.3 0.1
v 0.7 0.2 0
v 0.7 0.3 0
v 0.8 0.3 0
v 0.8 0.2 0
v 0.7 0.4 0.1
v 0.7 0.3 0.1
v 0.8 0.3 0.1
v 0.8 0.4 0.1
v 0.7 0.3 0
v 0.7 0.4 0
v 0.8 0.4 0
v 0.8 0.3 0
v 0.7 0.5 0.1
v 0.7 0.4 0.1
v 0.8 0.4 0.1
v 0.8 0.5 0.1
v 0.7 0.4 0
v 0.7 0.5 0
v 0.8 0.5 0
v 0.8 0.4 0
v 0.7 0.6 0.1
v 0.7 0.5 0.1
v 0.8 0.5 0.1
v 0.8 0.6 0.1
v 0.7 0.5 0
v 0.7 0.6 0
v 0.8 0.6 0
v 0.8 0.5 0
v 0.7 0.7 0.1
v 0.7 0.6 0.1
v 0.8 0.6 0.1
v 0.8 0.7 0.1
v 0.7 0.6 0
v 0.7 0.7 0
v 0.8 0.7 0
v 0.8 0.6 0
v 0.7 0.8 0.1
v 0.7 0.7 0.1
v 0.8 0.7 0.1
v 0.8 0.8 0.1
v 0.7 0.7 0
v 0.7 0.8 0
v 0.8 0.8 0
v 0.8 0.7 0
v 0.7 0.9 0.1
v 0.7 0.8 0.1
v 0.8 0.8 0.1
v 0.8 0.9 0.1
v 0.7 0.8 0
v 0.7 0.9 0
v 0.8 0.9 0
v 0.8 0.8 0
v 0.7 1 0.1
v 0.7 0.9 0.1
v 0.8 0.9 0.1
v 0.8 1 0.1
v 0.7 0.9 0
v 0.7 1 0
v 0.8 1 0
v 0.8 0.9 0
v 0.7 1.1 0.1
v 0.7 1 0.1
v 0.8 1 0.1
v 0.8 1.1 0.1
v 0.7 1 0
v 0.7 1.1 0
v 0.8 1.1 0
v 0.8 1 0
v 0.7 1.2 0.1
v 0.7 1.1 0.1
v 0.8 1.1 0.1
v 0.8 1.2 0.1
v 0.7 1.1 0
v 0.7 1.2 0
v 0.8 1.2 0
v 0.8 1.1 0
v 0.8 1.2 0.1
v 0.8 1.2 0
v 0.7 1.2 0
v 0.7 1.2 0.1
v 0.8 -1.1 0.1
v 0.8 -1.2 0.1
v 0.9 -1.2 0.1
v 0.9 -1.1 0.1
v 0.8 -1.2 0
v 0.8 -1.1 0
v 0.9 -1.1 0
v 0.9 -1.2 0
v 0.8 -1.2 0.1
v 0.8 -1.2 0
v 0.9 -1.2 0
v 0.9 -1.2 0.1
v 0.8 -1 0.1
v 0.8 -1.1 0.1
v 0.9 -1.1 0.1
v 0.9 -1 0.1
v 0.8 -1.1 0
v 0.8 -1 0
v 0.9 -1 0
v 0.9 -1.1 0
v 0.8 -0.9 0.1
v 0.8 -1 0.1
v 0.9 -1 0.1
v 0.9 -0.9 0.1
v 0.8 -1 0
v 0.8 -0.9 0
v 0.9 -0.9 0
v 0.9 -1 0
v 0.8 -0.8 0.1
v 0.8 -0.9 0.1
v 0.9 -0.9 0.1
v 0.9 -0.8 0.1
v 0.8 -0.9 0
v 0.8 -0.8 0
v 0.9 -0.8 0
v 0.9 -0.9 0
v 0.8 -0.7 0.1
v 0.8 -0.8 0.1
v 0.9 -0.8 0.1
v 0.9 -0.7 0.1
v 0.8 -0.8 0
v 0.8 -0.7 0
v 0.9 -0.7 0
v 0.9 -0.8 0
v 0.8 -0.6 0.1
v 0.8 -0.7 0.1
v 0.9 -0.7 0.1
v 0.9 -0.6 0.1
v 0.8 -0.7 0
v 0.8 -0.6 0
v 0.9 -0.6 0
v 0.9 -0.7 0
v 0.8 -0.5 0.1
v 0.8 -0.6 0.1
v 0.9 -0.6 0.1
v 0.9 -0.5 0.1
v 0.8 -0.6 0
v 0.8 -0.5 0
v 0.9 -0.5 0
v 0.9 -0.6 0
v 0.8 -0.4 0.1
v 0.8 -0.5 0.1
v 0.9 -0.5 0.1
v 0.9 -0.4 0.1
v 0.8 -0.5 0
v 0.8 -0.4 0
v 0.9 -0.4 0
v 0.9 -0.5 0
v 0.8 -0.3 0.1
v 0.8 -0.4 0.1
v 0.9 -0.4 0.1
v 0.9 -0.3 0.1
v 0.8 -0.4 0
v 0.8 -0.3 0
v 0.9 -0.3 0
v 0.9 -0.4 0
v 0.8 -0.2 0.1
v 0.8 -0.3 0.1
v 0.9 -0.3 0.1
v 0.9 -0.2 0.1
v 0.8 -0.3 0
v 0.8 -0.2 0
v 0.9 -0.2 0
v 0.9 -0.3 0
v 0.8 -0.1 0.1
v 0.8 -0.2 0.1
v 0.9 -0.2 0.1
v 0.9 -0.1 0.1
v 0.8 -0.2 0
v 0.8 -0.1 0
v 0.9 -0.1 0
v 0.9 -0.2 0
v 0.8 0 0.1
v 0.8 -0.1 0.1
v 0.9 -0.1 0.1
v 0.9 0 0.1
v 0.8 -0.1 0
v 0.8 0 0
v 0.9 0 0
v 0.9 -0.1 0
v 0.8 0.1 0.1
v 0.8 0 0.1
v 0.9 0 0.1
v 0.9 0.1 0.1
v 0.8 0 0
v 0.8 0.1 0
v 0.9 0.1 0
v 0.9 0 0
v 0.8 0.2 0.1
v 0.8 0.1 0.1
v 0.9 0.1 0.1
v 0.9 0.2 0.1
v 0.8 0.1 0
v 0.8 0.2 0
v 0.9 0.2 0
v 0.9 0.1 0
v 0.8 0.3 0.1
v 0.8 0.2 0.1
v 0.9 0.2 0.1
v 0.9 0.3 0.1
v 0.8 0.2 0
v 0.8 0.3 0
v 0.9 0.3 0
v 0.9 0.2 0
v 0.8 0.4 0.1
v 0.8 0.3 0.1
v 0.9 0.3 0.1
v 0.9 0.4 0.1
v 0.8 0.3 0
v 0.8 0.4 0
v 0.9 0.4 0
v 0.9 0.3 0
v 0.8 0.5 0.1
v 0.8 0.4 0.1
v 0.9 0.4 0.1
v 0.9 0.5 0.1
v 0.8 0.4 0
v 0.8 0.5 0
v 0.9 0.5 0
v 0.9 0.4 0
v 0.8 0.6 0.1
v 0.8 0.5 0.1
v 0.9 0.5 0.1
v 0.9 0.6 0.1
v 0.8 0.5 0
v 0.8 0.6 0
v 0.9 0.6 0
v 0.9 0.5 0
v 0.8 0.7 0.1
v 0.8 0.6 0.1
v 0.9 0.6 0.1
v 0.9 0.7 0.1
v 0.8 0.6 0
v 0.8 0.7 0
v 0.9 0.7 0
v 0.9 0.6 0
v 0.8 0.8 0.1
v 0.8 0.7 0.1
v 0.9 0.7 0.1
v 0.9 0.8 0.1
v 0.8 0.7 0
v 0.8 0.8 0
v 0.9 0.8 0
v 0.9 0.7 0
v 0.8 0.9 0.1
v 0.8 0.8 0.1
v 0.9 0.8 0.1
v 0.9 0.9 0.1
v 0.8 0.8 0
v 0.8 0.9 0
v 0.9 0.9 0
v 0.9 0.8 0
v 0.8 1 0.1
v 0.8 0.9 0.1
v 0.9 0.9 0.1
v 0.9 1 0.1
v 0.8 0.9 0
v 0.8 1 0
v 0.9 1 0
v 0.9 0.9 0
v 0.8 1.1 0.1
v 0.8 1 0.1
v 0.9 1 0.1
v 0.9 1.1 0.1
v 0.8 1 0
v 0.8 1.1 0
v 0.9 1.1 0
v 0.9 1 0
v 0.8 1.2 0.1
v 0.8 1.1 0.1
v 0.9 1.1 0.1
v 0.9 1.2 0.1
v 0.8 1.1 0
v 0.8 1.2 0
v 0.9 1.2 0
v 0.9 1.1 0
v 0.9 1.2 0.1
v 0.9 1.2 0
v 0.8 1.2 0
v 0.8 1.2 0.1
v 0.9 -1.1 0.1
v 0.9 -1.2 0.1
v 1 -1.2 0.1
v 1 -1.1 0.1
v 0.9 -1.2 0
v 0.9 -1.1 0
v 1 -1.1 0
v 1 -1.2 0
v 0.9 -1.2 0.1
v 0.9 -1.2 0
v 1 -1.2 0
v 1 -1.2 0.1
v 0.9 -1 0.1
v 0.9 -1.1 0.1
v 1 -1.1 0.1
v 1 -1 0.1
v 0.9 -1.1 0
v 0.9 -1 0
v 1 -1 0
v 1 -1.1 0
v 0.9 -0.9 0.1
v 0.9 -1 0.1
v 1 -1 0.1
v 1 -0.9 0.1
v 0.9 -1 0
v 0.9 -0.9 0
v 1 -0.9 0
v 1 -1 0
v 0.9 -0.8 0.1
v 0.9 -0.9 0.1
v 1 -0.9 0.1
v 1 -0.8 0.1
v 0.9 -0.9 0
v 0.9 -0.8 0
v 1 -0.8 0
v 1 -0.9 0
v 0.9 -0.7 0.1
v 0.9 -0.8 0.1
v 1 -0.8 0.1
v 1 -0.7 0.1
v 0.9 -0.8 0
v 0.9 -0.7 0
v 1 -0.7 0
v 1 -0.8 0
v 0.9 -0.6 0.1
v 0.9 -0.7 0.1
v 1 -0.7 0.1
v 1 -0.6 0.1
v 0.9 -0.7 0
v 0.9 -0.6 0
v 1 -0.6 0
v 1 -0.7 0
v 0.9 -0.5 0.1
v 0.9 -0.6 0.1
v 1 -0.6 0.1
v 1 -0.5 0.1
v 0.9 -0.6 0
v 0.9 -0.5 0
v 1 -0.5 0
v 1 -0.6 0
v 0.9 -0.4 0.1
v 0.9 -0.5 0.1
v 1 -0.5 0.1
v 1 -0.4 0.1
v 0.9 -0.5 0
v 0.9 -0.4 0
v 1 -0.4 0
v 1 -0.5 0
v 0.9 -0.3 0.1
v 0.9 -0.4 0.1
v 1 -0.4 0.1
v 1 -0.3 0.1
v 0.9 -0.4 0
v 0.9 -0.3 0
v 1 -0.3 0
v 1 -0.4 0
v 0.9 -0.2 0.1
v 0.9 -0.3 0.1
v 1 -0.3 0.1
v 1 -0.2 0.1
v 0.9 -0.3 0
v 0.9 -0.2 0
v 1 -0.2 0
v 1 -0.3 0
v 0.9 -0.1 0.1
v 0.9 -0.2 0.1
v 1 -0.2 0.1
v 1 -0.1 0.1
v 0.9 -0.2 0
v 0.9 -0.1 0
v 1 -0.1 0
v 1 -0.2 0
v 0.9 0 0.1
v 0.9 -0.1 0.1
v 1 -0.1 0.1
v 1 0 0.1
v 0.9 -0.1 0
v 0.9 0 0
v 1 0 0
v 1 -0.1 0
v 0.9 0.1 0.1
v 0.9 0 0.1
v 1 0 0.1
v 1 0.1 0.1
v 0.9 0 0
v 0.9 0.1 0
v 1 0.1 0
v 1 0 0
v 0.9 0.2 0.1
v 0.9 0.1 0.1
v 1 0.1 0.1
v 1 0.2 0.1
v 0.9 0.1 0
v 0.9 0.2 0
v 1 0.2 0
v 1 0.1 0
v 0.9 0.3 0.1
v 0.9 0.2 0.1
v 1 0.2 0.1
v 1 0.3 0.1
v 0.9 0.2 0
v 0.9 0.3 0
v 1 0.3 0
v 1 0.2 0
v 0.9 0.4 0.1
v 0.9 0.3 0.1
v 1 0.3 0.1
v 1 0.4 0.1
v 0.9 0.3 0
v 0.9 0.4 0
v 1 0.4 0
v 1 0.3 0
v 0.9 0.5 0.1
v 0.9 0.4 0.1
v 1 0.4 0.1
v 1 0.5 0.1
v 0.9 0.4 0
v 0.9 0.5 0
v 1 0.5 0
v 1 0.4 0
v 0.9 0.6 0.1
v 0.9 0.5 0.1
v 1 0.5 0.1
v 1 0.6 0.1
v 0.9 0.5 0
v 0.9 0.6 0
v 1 0.6 0
v 1 0.5 0
v 0.9 0.7 0.1
v 0.9 0.6 0.1
v 1 0.6 0.1
v 1 0.7 0.1
v 0.9 0.6 0
v 0.9 0.7 0
v 1 0.7 0
v 1 0.6 0
v 0.9 0.8 0.1
v 0.9 0.7 0.1
v 1 0.7 0.1
v 1 0.8 0.1
v 0.9 0.7 0
v 0.9 0.8 0
v 1 0.8 0
v 1 0.7 0
v 0.9 0.9 0.1
v 0.9 0.8 0.1
v 1 0.8 0.1
v 1 0.9 0.1
v 0.9 0.8 0
v 0.9 0.9 0
v 1 0.9 0
v 1 0.8 0
v 0.9 1 0.1
v 0.9 0.9 0.1
v 1 0.9 0.1
v 1 1 0.1
v 0.9 0.9 0
v 0.9 1 0
v 1 1 0
v 1 0.9 0
v 0.9 1.1 0.1
v 0.9 1 0.1
v 1 1 0.1
v 1 1.1 0.1
v 0.9 1 0
v 0.9 1.1 0
v 1 1.1 0
v 1 1 0
v 0.9 1.2 0.1
v 0.9 1.1 0.1
v 1 1.1 0.1
v 1 1.2 0.1
v 0.9 1.1 0
v 0.9 1.2 0
v 1 1.2 0
v 1 1.1 0
v 1 1.2 0.1
v 1 1.2 0
v 0.9 1.2 0
v 0.9 1.2 0.1
v 1 -1.1 0.1
v 1 -1.2 0.1
v 1.1 -1.2 0.1
v 1.1 -1.1 0.1
v 1 -1.2 0
v 1 -1.1 0
v 1.1 -1.1 0
v 1.1 -1.2 0
v 1 -1.2 0.1
v 1 -1.2 0
v 1.1 -1.2 0
v 1.1 -1.2 0.1
v 1 -1 0.1
v 1 -1.1 0.1
v 1.1 -1.1 0.1
v 1.1 -1 0.1
v 1 -1.1 0
v 1 -1 0
v 1.1 -1 0
v 1.1 -1.1 0
v 1 -0.9 0.1
v 1 -1 0.1
v 1.1 -1 0.1
v 1.1 -0.9 0.1
v 1 -1 0
v 1 -0.9 0
v 1.1 -0.9 0
v 1.1 -1 0
v 1 -0.8 0.1
v 1 -0.9 0.1
v 1.1 -0.9 0.1
v 1.1 -0.8 0.1
v 1 -0.9 0
v 1 -0.8 0
v 1.1 -0.8 0
v 1.1 -0.9 0
v 1 -0.7 0.1
v 1 -0.8 0.1
v 1.1 -0.8 0.1
v 1.1 -0.7 0.1
v 1 -0.8 0
v 1 -0.7 0
v 1.1 -0.7 0
v 1.1 -0.8 0
v 1 -0.6 0.1
v 1 -0.7 0.1
v 1.1 -0.7 0.1
v 1.1 -0.6 0.1
v 1 -0.7 0
v 1 -0.6 0
v 1.1 -0.6 0
v 1.1 -0.7 0
v 1 -0.5 0.1
v 1 -0.6 0.1
v 1.1 -0.6 0.1
v 1.1 -0.5 0.1
v 1 -0.6 0
v 1 -0.5 0
v 1.1 -0.5 0
v 1.1 -0.6 0
v 1 -0.4 0.1
v 1 -0.5 0.1
v 1.1 -0.5 0.1
v 1.1 -0.4 0.1
v 1 -0.5 0
v 1 -0.4 0
v 1.1 -0.4 0
v 1.1 -0.5 0
v 1 -0.3 0.1
v 1 -0.4 0.1
v 1.1 -0.4 0.1
v 1.1 -0.3 0.1
v 1 -0.4 0
v 1 -0.3 0
v 1.1 -0.3 0
v 1.1 -0.4 0
v 1 -0.2 0.1
v 1 -0.3 0.1
v 1.1 -0.3 0.1
v 1.1 -0.2 0.1
v 1 -0.3 0
v 1 -0.2 0
v 1.1 -0.2 0
v 1.1 -0.3 0
v 1 -0.1 0.1
v 1 -0.2 0.1
v 1.1 -0.2 0.1
v 1.1 -0.1 0.1
v 1 -0.2 0
v 1 -0.1 0
v 1.1 -0.1 0
v 1.1 -0.2 0
v 1 0 0.1
v 1 -0.1 0.1
v 1.1 -0.1 0.1
v 1.1 0 0.1
v 1 -0.1 0
v 1 0 0
v 1.1 0 0
v 1.1 -0.1 0
v 1 0.1 0.1
v 1 0 0.1
v 1.1 0 0.1
v 1.1 0.1 0.1
v 1 0 0
v 1 0.1 0
v 1.1 0.1 0
v 1.1 0 0
v 1 0.2 0.1
v 1 0.1 0.1
v 1.1 0.1 0.1
v 1.1 0.2 0.1
v 1 0.1 0
v 1 0.2 0
v 1.1 0.2 0
v 1.1 0.1 0
v 1 0.3 0.1
v 1 0.2 0.1
v 1.1 0.2 0.1
v 1.1 0.3 0.1
v 1 0.2 0
v 1 0.3 0
v 1.1 0.3 0
v 1.1 0.2 0
v 1 0.4 0.1
v 1 0.3 0.1
v 1.1 0.3 0.1
v 1.1 0.4 0.1
v 1 0.3 0
v 1 0.4 0
v 1.1 0.4 0
v 1.1 0.3 0
v 1 0.5 0.1
v 1 0.4 0.1
v 1.1 0.4 0.1
v 1.1 0.5 0.1
v 1 0.4 0
v 1 0.5 0
v 1.1 0.5 0
v 1.1 0.4 0
v 1 0.6 0.1
v 1 0.5 0.1
v 1.1 0.5 0.1
v 1.1 0.6 0.1
v 1 0.5 0
v 1 0.6 0
v 1.1 0.6 0
v 1.1 0.5 0
v 1 0.7 0.1
v 1 0.6 0.1
v 1.1 0.6 0.1
v 1.1 0.7 0.1
v 1 0.6 0
v 1 0.7 0
v 1.1 0.7 0
v 1.1 0.6 0
v 1 0.8 0.1
v 1 0.7 0.1
v 1.1 0.7 0.1
v 1.1 0.8 0.1
v 1 0.7 0
v 1 0.8 0
v 1.1 0.8 0
v 1.1 0.7 0
v 1 0.9 0.1
v 1 0.8 0.1
v 1.1 0.8 0.1
v 1.1 0.9 0.1
v 1 0.8 0
v 1 0.9 0
v 1.1 0.9 0
v 1.1 0.8 0
v 1 1 0.1
v 1 0.9 0.1
v 1.1 0.9 0.1
v 1.1 1 0.1
v 1 0.9 0
v 1 1 0
v 1.1 1 0
v 1.1 0.9 0
v 1 1.1 0.1
v 1 1 0.1
v 1.1 1 0.1
v 1.1 1.1 0.1
v 1 1 0
v 1 1.1 0
v 1.1 1.1 0
v 1.1 1 0
v 1 1.2 0.1
v 1 1.1 0.1
v 1.1 1.1 0.1
v 1.1 1.2 0.1
v 1 1.1 0
v 1 1.2 0
v 1.1 1.2 0
v 1.1 1.1 0
v 1.1 1.2 0.1
v 1.1 1.2 0
v 1 1.2 0
v 1 1.2 0.1
v 1.2 -1.2 0.1
v 1.2 -1.2 0
v 1.2 -1.1 0
v 1.2 -1.1 0.1
v 1.1 -1.1 0.1
v 1.1 -1.2 0.1
v 1.2 -1.2 0.1
v 1.2 -1.1 0.1
v 1.1 -1.2 0
v 1.1 -1.1 0
v 1.2 -1.1 0
v 1.2 -1.2 0
v 1.1 -1.2 0.1
v 1.1 -1.2 0
v 1.2 -1.2 0
v 1.2 -1.2 0.1
v 1.2 -1.1 0.1
v 1.2 -1.1 0
v 1.2 -1 0
v 1.2 -1 0.1
v 1.1 -1 0.1
v 1.1 -1.1 0.1
v 1.2 -1.1 0.1
v 1.2 -1 0.1
v 1.1 -1.1 0
v 1.1 -1 0
v 1.2 -1 0
v 1.2 -1.1 0
v 1.2 -1 0.1
v 1.2 -1 0
v 1.2 -0.9 0
v 1.2 -0.9 0.1
v 1.1 -0.9 0.1
v 1.1 -1 0.1
v 1.2 -1 0.1
v 1.2 -0.9 0.1
v 1.1 -1 0
v 1.1 -0.9 0
v 1.2 -0.9 0
v 1.2 -1 0
v 1.2 -0.9 0.1
v 1.2 -0.9 0
v 1.2 -0.8 0
v 1.2 -0.8 0.1
v 1.1 -0.8 0.1
v 1.1 -0.9 0.1
v 1.2 -0.9 0.1
v 1.2 -0.8 0.1
v 1.1 -0.9 0
v 1.1 -0.8 0
v 1.2 -0.8 0
v 1.2 -0.9 0
v 1.2 -0.8 0.1
v 1.2 -0.8 0
v 1.2 -0.7 0
v 1.2 -0.7 0.1
v 1.1 -0.7 0.1
v 1.1 -0.8 0.1
v 1.2 -0.8 0.1
v 1.2 -0.7 0.1
v 1.1 -0.8 0
v 1.1 -0.7 0
v 1.2 -0.7 0
v 1.2 -0.8 0
v 1.2 -0.7 0.1
v 1.2 -0.7 0
v 1.2 -0.6 0
v 1.2 -0.6 0.1
v 1.1 -0.6 0.1
v 1.1 -0.7 0.1
v 1.2 -0.7 0.1
v 1.2 -0.6 0.1
v 1.1 -0.7 0
v 1.1 -0.6 0
v 1.2 -0.6 0
v 1.2 -0.7 0
v 1.2 -0.6 0.1
v 1.2 -0.6 0
v 1.2 -0.5 0
v 1.2 -0.5 0.1
v 1.1 -0.5 0.1
v 1.1 -0.6 0.1
v 1.2 -0.6 0.1
v 1.2 -0.5 0.1
v 1.1 -0.6 0
v 1.1 -0.5 0
v 1.2 -0.5 0
v 1.2 -0.6 0
v 1.2 -0.5 0.1
v 1.2 -0.5 0
v 1.2 -0.4 0
v 1.2 -0.4 0.1
v 1.1 -0.4 0.1
v 1.1 -0.5 0.1
v 1.2 -0.5 0.1
v 1.2 -0.4 0.1
v 1.1 -0.5 0
v 1.1 -0.4 0
v 1.2 -0.4 0
v 1.2 -0.5 0
v 1.2 -0.4 0.1
v 1.2 -0.4 0
v 1.2 -0.3 0
v 1.2 -0.3 0.1
v 1.1 -0.3 0.1
v 1.1 -0.4 0.1
v 1.2 -0.4 0.1
v 1.2 -0.3 0.1
v 1.1 -0.4 0
v 1.1 -0.3 0
v 1.2 -0.3 0
v 1.2 -0.4 0
v 1.2 -0.3 0.1
v 1.2 -0.3 0
v 1.2 -0.2 0
v 1.2 -0.2 0.1
v 1.1 -0.2 0.1
v 1.1 -0.3 0.1
v 1.2 -0.3 0.1
v 1.2 -0.2 0.1
v 1.1 -0.3 0
v 1.1 -0.2 0
v 1.2 -0.2 0
v 1.2 -0.3 0
v 1.2 -0.2 0.1
v 1.2 -0.2 0
v 1.2 -0.1 0
v 1.2 -0.1 0.1
v 1.1 -0.1 0.1
v 1.1 -0.2 0.1
v 1.2 -0.2 0.1
v 1.2 -0.1 0.1
v 1.1 -0.2 0
v 1.1 -0.1 0
v 1.2 -0.1 0
v 1.2 -0.2 0
v 1.2 -0.1 0.1
v 1.2 -0.1 0
v 1.2 0 0
v 1.2 0 0.1
v 1.1 0 0.1
v 1.1 -0.1 0.1
v 1.2 -0.1 0.1
v 1.2 0 0.1
v 1.1 -0.1 0
v 1.1 0 0
v 1.2 0 0
v 1.2 -0.1 0
v 1.2 0 0.1
v 1.2 0 0
v 1.2 0.1 0
v 1.2 0.1 0.1
v 1.1 0.1 0.1
v 1.1 0 0.1
v 1.2 0 0.1
v 1.2 0.1 0.1
v 1.1 0 0
v 1.1 0.1 0
v 1.2 0.1 0
v 1.2 0 0
v 1.2 0.1 0.1
v 1.2 0.1 0
v 1.2 0.2 0
v 1.2 0.2 0.1
v 1.1 0.2 0.1
v 1.1 0.1 0.1
v 1.2 0.1 0.1
v 1.2 0.2 0.1
v 1.1 0.1 0
v 1.1 0.2 0
v 1.2 0.2 0
v 1.2 0.1 0
v 1.2 0.2 0.1
v 1.2 0.2 0
v 1.2 0.3 0
v 1.2 0.3 0.1
v 1.1 0.3 0.1
v 1.1 0.2 0.1
v 1.2 0.2 0.1
v 1.2 0.3 0.1
v 1.1 0.2 0
v 1.1 0.3 0
v 1.2 0.3 0
v 1.2 0.2 0
v 1.2 0.3 0.1
v 1.2 0.3 0
v 1.2 0.4 0
v 1.2 0.4 0.1
v 1.1 0.4 0.1
v 1.1 0.3 0.1
v 1.2 0.3 0.1
v 1.2 0.4 0.1
v 1.1 0.3 0
v 1.1 0.4 0
v 1.2 0.4 0
v 1.2 0.3 0
v 1.2 0.4 0.1
v 1.2 0.4 0
v 1.2 0.5 0
v 1.2 0.5 0.1
v 1.1 0.5 0.1
v 1.1 0.4 0.1
v 1.2 0.4 0.1
v 1.2 0.5 0.1
v 1.1 0.4 0
v 1.1 0.5 0
v 1.2 0.5 0
v 1.2 0.4 0
v 1.2 0.5 0.1
v 1.2 0.5 0
v 1.2 0.6 0
v 1.2 0.6 0.1
v 1.1 0.6 0.1
v 1.1 0.5 0.1
v 1.2 0.5 0.1
v 1.2 0.6 0.1
v 1.1 0.5 0
v 1.1 0.6 0
v 1.2 0.6 0
v 1.2 0.5 0
v 1.2 0.6 0.1
v 1.2 0.6 0
v 1.2 0.7 0
v 1.2 0.7 0.1
v 1.1 0.7 0.1
v 1.1 0.6 0.1
v 1.2 0.6 0.1
v 1.2 0.7 0.1
v 1.1 0.6 0
v 1.1 0.7 0
v 1.2 0.7 0
v 1.2 0.6 0
v 1.2 0.7 0.1
v 1.2 0.7 0
v 1.2 0.8 0
v 1.2 0.8 0.1
v 1.1 0.8 0.1
v 1.1 0.7 0.1
v 1.2 0.7 0.1
v 1.2 0.8 0.1
v 1.1 0.7 0
v 1.1 0.8 0
v 1.2 0.8 0
v 1.2 0.7 0
v 1.2 0.8 0.1
v 1.2 0.8 0
v 1.2 0.9 0
v 1.2 0.9 0.1
v 1.1 0.9 0.1
v 1.1 0.8 0.1
v 1.2 0.8 0.1
v 1.2 0.9 0.1
v 1.1 0.8 0
v 1.1 0.9 0
v 1.2 0.9 0
v 1.2 0.8 0
v 1.2 0.9 0.1
v 1.2 0.9 0
v 1.2 1 0
v 1.2 1 0.1
v 1.1 1 0.1
v 1.1 0.9 0.1
v 1.2 0.9 0.1
v 1.2 1 0.1
v 1.1 0.9 0
v 1.1 1 0
v 1.2 1 0
v 1.2 0.9 0
v 1.2 1 0.1
v 1.2 1 0
v 1.2 1.1 0
v 1.2 1.1 0.1
v 1.1 1.1 0.1
v 1.1 1 0.1
v 1.2 1 0.1
v 1.2 1.1 0.1
v 1.1 1 0
v 1.1 1.1 0
v 1.2 1.1 0
v 1.2 1 0
v 1.2 1.1 0.1
v 1.2 1.1 0
v 1.2 1.2 0
v 1.2 1.2 0.1
v 1.1 1.2 0.1
v 1.1 1.1 0.1
v 1.2 1.1 0.1
v 1.2 1.2 0.1
v 1.1 1.1 0
v 1.1 1.2 0
v 1.2 1.2 0
v 1.2 1.1 0
v 1.2 1.2 0.1
v 1.2 1.2 0
v 1.1 1.2 0
v 1.1 1.2 0.1

# faces
f 1/1/1 2/1/1 3/1/1 4/1/1
f 5/1/3 6/1/3 7/1/3 8/1/3
f 9/1/4 10/1/4 11/1/4 12/1/4
f 13/1/5 14/1/5 15/1/5 16/1/5
f 17/1/1 18/1/1 19/1/1 20/1/1
f 21/1/2 22/1/2 23/1/2 24/1/2
f 25/1/3 26/1/3 27/1/3 28/1/3
f 29/1/4 30/1/4 31/1/4 32/1/4
f 33/1/6 34/1/6 35/1/6 36/1/6
f 37/1/3 38/1/3 39/1/3 40/1/3
f 41/1/4 42/1/4 43/1/4 44/1/4
f 45/1/5 46/1/5 47/1/5 48/1/5
f 49/1/6 50/1/6 51/1/6 52/1/6
f 53/1/3 54/1/3 55/1/3 56/1/3
f 57/1/4 58/1/4 59/1/4 60/1/4
f 61/1/5 62/1/5 63/1/5 64/1/5
f 65/1/6 66/1/6 67/1/6 68/1/6
f 69/1/3 70/1/3 71/1/3 72/1/3
f 73/1/4 74/1/4 75/1/4 76/1/4
f 77/1/5 78/1/5 79/1/5 80/1/5
f 81/1/1 82/1/1 83/1/1 84/1/1
f 85/1/3 86/1/3 87/1/3 88/1/3
f 89/1/4 90/1/4 91/1/4 92/1/4
f 93/1/6 94/1/6 95/1/6 96/1/6
f 97/1/3 98/1/3 99/1/3 100/1/3
f 101/1/4 102/1/4 103/1/4 104/1/4
f 105/1/5 106/1/5 107/1/5 108/1/5
f 109/1/3 110/1/3 111/1/3 112/1/3
f 113/1/4 114/1/4 115/1/4 116/1/4
f 117/1/6 118/1/6 119/1/6 120/1/6
f 121/1/3 122/1/3 123/1/3 124/1/3
f 125/1/4 126/1/4 127/1/4 128/1/4
f 129/1/5 130/1/5 131/1/5 132/1/5
f 133/1/3 134/1/3 135/1/3 136/1/3
f 137/1/4 138/1/4 139/1/4 140/1/4
f 141/3/1 142/3/1 143/3/1 144/3/1
f 145/3/3 146/3/3 147/3/3 148/3/3
f 149/3/4 150/3/4 151/3/4 152/3/4
f 153/3/6 154/3/6 155/3/6 156/3/6
f 157/1/3 158/1/3 159/1/3 160/1/3
f 161/1/4 162/1/4 163/1/4 164/1/4
f 165/1/5 166/1/5 167/1/5 168/1/5
f 169/1/3 170/1/3 171/1/3 172/1/3
f 173/1/4 174/1/4 175/1/4 176/1/4
f 177/2/2 178/2/2 179/2/2 180/2/2
f 181/2/3 182/2/3 183/2/3 184/2/3
f 185/2/4 186/2/4 187/2/4 188/2/4
f 189/2/6 190/2/6 191/2/6 192/2/6
f 193/1/3 194/1/3 195/1/3 196/1/3
f 197/1/4 198/1/4 199/1/4 200/1/4
f 201/1/5 202/1/5 203/1/5 204/1/5
f 205/1/3 206/1/3 207/1/3 208/1/3
f 209/1/4 210/1/4 211/1/4 212/1/4
f 213/1/6 214/1/6 215/1/6 216/1/6
f 217/1/3 218/1/3 219/1/3 220/1/3
f 221/1/4 222/1/4 223/1/4 224/1/4
f 225/1/5 226/1/5 227/1/5 228/1/5
f 229/3/3 230/3/3 231/3/3 232/3/3
f 233/3/4 234/3/4 235/3/4 236/3/4
f 237/2/1 238/2/1 239/2/1 240/2/1
f 241/2/3 242/2/3 243/2/3 244/2/3
f 245/2/4 246/2/4 247/2/4 248/2/4
f 249/2/6 250/2/6 251/2/6 252/2/6
f 253/1/3 254/1/3 255/1/3 256/1/3
f 257/1/4 258/1/4 259/1/4 260/1/4
f 261/1/5 262/1/5 263/1/5 264/1/5
f 265/1/3 266/1/3 267/1/3 268/1/3
f 269/1/4 270/1/4 271/1/4 272/1/4
f 273/1/3 274/1/3 275/1/3 276/1/3
f 277/1/4 278/1/4 279/1/4 280/1/4
f 281/1/1 282/1/1 283/1/1 284/1/1
f 285/1/3 286/1/3 287/1/3 288/1/3
f 289/1/4 290/1/4 291/1/4 292/1/4
f 293/1/6 294/1/6 295/1/6 296/1/6
f 297/1/3 298/1/3 299/1/3 300/1/3
f 301/1/4 302/1/4 303/1/4 304/1/4
f 305/1/5 306/1/5 307/1/5 308/1/5
f 309/1/3 310/1/3 311/1/3 312/1/3
f 313/1/4 314/1/4 315/1/4 316/1/4
f 317/1/3 318/1/3 319/1/3 320/1/3
f 321/1/4 322/1/4 323/1/4 324/1/4
f 325/1/3 326/1/3 327/1/3 328/1/3
f 329/1/4 330/1/4 331/1/4 332/1/4
f 333/1/1 334/1/1 335/1/1 336/1/1
f 337/1/3 338/1/3 339/1/3 340/1/3
f 341/1/4 342/1/4 343/1/4 344/1/4
f 345/1/1 346/1/1 347/1/1 348/1/1
f 349/1/3 350/1/3 351/1/3 352/1/3
f 353/1/4 354/1/4 355/1/4 356/1/4
f 357/1/6 358/1/6 359/1/6 360/1/6
f 361/1/3 362/1/3 363/1/3 364/1/3
f 365/1/4 366/1/4 367/1/4 368/1/4
f 369/1/5 370/1/5 371/1/5 372/1/5
f 373/1/3 374/1/3 375/1/3 376/1/3
f 377/1/4 378/1/4 379/1/4 380/1/4
f 381/1/3 382/1/3 383/1/3 384/1/3
f 385/1/4 386/1/4 387/1/4 388/1/4
f 389/1/3 390/1/3 391/1/3 392/1/3
f 393/1/4 394/1/4 395/1/4 396/1/4
f 397/1/3 398/1/3 399/1/3 400/1/3
f 401/1/4 402/1/4 403/1/4 404/1/4
f 405/1/3 406/1/3 407/1/3 408/1/3
f 409/1/4 410/1/4 411/1/4 412/1/4
f 413/3/1 414/3/1 415/3/1 416/3/1
f 417/3/3 418/3/3 419/3/3 420/3/3
f 421/3/4 422/3/4 423/3/4 424/3/4
f 425/3/1 426/3/1 427/3/1 428/3/1
f 429/3/3 430/3/3 431/3/3 432/3/3
f 433/3/4 434/3/4 435/3/4 436/3/4
f 437/3/1 438/3/1 439/3/1 440/3/1
f 441/3/3 442/3/3 443/3/3 444/3/3
f 445/3/4 446/3/4 447/3/4 448/3/4
f 449/1/1 450/1/1 451/1/1 452/1/1
f 453/1/3 454/1/3 455/1/3 456/1/3
f 457/1/4 458/1/4 459/1/4 460/1/4
f 461/1/6 462/1/6 463/1/6 464/1/6
f 465/1/3 466/1/3 467/1/3 468/1/3
f 469/1/4 470/1/4 471/1/4 472/1/4
f 473/1/5 474/1/5 475/1/5 476/1/5
f 477/1/3 478/1/3 479/1/3 480/1/3
f 481/1/4 482/1/4 483/1/4 484/1/4
f 485/1/3 486/1/3 487/1/3 488/1/3
f 489/1/4 490/1/4 491/1/4 492/1/4
f 493/1/3 494/1/3 495/1/3 496/1/3
f 497/1/4 498/1/4 499/1/4 500/1/4
f 501/1/3 502/1/3 503/1/3 504/1/3
f 505/1/4 506/1/4 507/1/4 508/1/4
f 509/1/3 510/1/3 511/1/3 512/1/3
f 513/1/4 514/1/4 515/1/4 516/1/4
f 517/2/3 518/2/3 519/2/3 520/2/3
f 521/2/4 522/2/4 523/2/4 524/2/4
f 525/2/3 526/2/3 527/2/3 528/2/3
f 529/2/4 530/2/4 531/2/4 532/2/4
f 533/3/3 534/3/3 535/3/3 536/3/3
f 537/3/4 538/3/4 539/3/4 540/3/4
f 541/3/3 542/3/3 543/3/3 544/3/3
f 545/3/4 546/3/4 547/3/4 548/3/4
f 549/3/1 550/3/1 551/3/1 552/3/1
f 553/3/3 554/3/3 555/3/3 556/3/3
f 557/3/4 558/3/4 559/3/4 560/3/4
f 561/3/1 562/3/1 563/3/1 564/3/1
f 565/3/3 566/3/3 567/3/3 568/3/3
f 569/3/4 570/3/4 571/3/4 572/3/4
f 573/3/1 574/3/1 575/3/1 576/3/1
f 577/3/3 578/3/3 579/3/3 580/3/3
f 581/3/4 582/3/4 583/3/4 584/3/4
f 585/3/6 586/3/6 587/3/6 588/3/6
f 589/1/1 590/1/1 591/1/1 592/1/1
f 593/1/3 594/1/3 595/1/3 596/1/3
f 597/1/4 598/1/4 599/1/4 600/1/4
f 601/1/5 602/1/5 603/1/5 604/1/5
f 605/1/1 606/1/1 607/1/1 608/1/1
f 609/1/3 610/1/3 611/1/3 612/1/3
f 613/1/4 614/1/4 615/1/4 616/1/4
f 617/1/1 618/1/1 619/1/1 620/1/1
f 621/1/3 622/1/3 623/1/3 624/1/3
f 625/1/4 626/1/4 627/1/4 628/1/4
f 629/1/6 630/1/6 631/1/6 632/1/6
f 633/1/3 634/1/3 635/1/3 636/1/3
f 637/1/4 638/1/4 639/1/4 640/1/4
f 641/1/5 642/1/5 643/1/5 644/1/5
f 645/1/3 646/1/3 647/1/3 648/1/3
f 649/1/4 650/1/4 651/1/4 652/1/4
f 653/1/3 654/1/3 655/1/3 656/1/3
f 657/1/4 658/1/4 659/1/4 660/1/4
f 661/1/3 662/1/3 663/1/3 664/1/3
f 665/1/4 666/1/4 667/1/4 668/1/4
f 669/1/3 670/1/3 671/1/3 672/1/3
f 673/1/4 674/1/4 675/1/4 676/1/4
f 677/3/3 678/3/3 679/3/3 680/3/3
f 681/3/4 682/3/4 683/3/4 684/3/4
f 685/2/3 686/2/3 687/2/3 688/2/3
f 689/2/4 690/2/4 691/2/4 692/2/4
f 693/2/3 694/2/3 695/2/3 696/2/3
f 697/2/4 698/2/4 699/2/4 700/2/4
f 701/2/3 702/2/3 703/2/3 704/2/3
f 705/2/4 706/2/4 707/2/4 708/2/4
f 709/2/3 710/2/3 711/2/3 712/2/3
f 713/2/4 714/2/4 715/2/4 716/2/4
f 717/2/3 718/2/3 719/2/3 720/2/3
f 721/2/4 722/2/4 723/2/4 724/2/4
f 725/2/3 726/2/3 727/2/3 728/2/3
f 729/2/4 730/2/4 731/2/4 732/2/4
f 733/3/3 734/3/3 735/3/3 736/3/3
f 737/3/4 738/3/4 739/3/4 740/3/4
f 741/1/1 742/1/1 743/1/1 744/1/1
f 745/1/3 746/1/3 747/1/3 748/1/3
f 749/1/4 750/1/4 751/1/4 752/1/4
f 753/1/1 754/1/1 755/1/1 756/1/1
f 757/1/3 758/1/3 759/1/3 760/1/3
f 761/1/4 762/1/4 763/1/4 764/1/4
f 765/1/1 766/1/1 767/1/1 768/1/1
f 769/1/3 770/1/3 771/1/3 772/1/3
f 773/1/4 774/1/4 775/1/4 776/1/4
f 777/1/1 778/1/1 779/1/1 780/1/1
f 781/1/3 782/1/3 783/1/3 784/1/3
f 785/1/4 786/1/4 787/1/4 788/1/4
f 789/1/1 790/1/1 791/1/1 792/1/1
f 793/1/3 794/1/3 795/1/3 796/1/3
f 797/1/4 798/1/4 799/1/4 800/1/4
f 801/1/1 802/1/1 803/1/1 804/1/1
f 805/1/3 806/1/3 807/1/3 808/1/3
f 809/1/4 810/1/4 811/1/4 812/1/4
f 813/1/1 814/1/1 815/1/1 816/1/1
f 817/1/3 818/1/3 819/1/3 820/1/3
f 821/1/4 822/1/4 823/1/4 824/1/4
f 825/1/1 826/1/1 827/1/1 828/1/1
f 829/1/3 830/1/3 831/1/3 832/1/3
f 833/1/4 834/1/4 835/1/4 836/1/4
f 837/1/3 838/1/3 839/1/3 840/1/3
f 841/1/4 842/1/4 843/1/4 844/1/4
f 845/1/3 846/1/3 847/1/3 848/1/3
f 849/1/4 850/1/4 851/1/4 852/1/4
f 853/1/3 854/1/3 855/1/3 856/1/3
f 857/1/4 858/1/4 859/1/4 860/1/4
f 861/1/6 862/1/6 863/1/6 864/1/6
f 865/1/3 866/1/3 867/1/3 868/1/3
f 869/1/4 870/1/4 871/1/4 872/1/4
f 873/1/5 874/1/5 875/1/5 876/1/5
f 877/1/3 878/1/3 879/1/3 880/1/3
f 881/1/4 882/1/4 883/1/4 884/1/4
f 885/1/3 886/1/3 887/1/3 888/1/3
f 889/1/4 890/1/4 891/1/4 892/1/4
f 893/1/3 894/1/3 895/1/3 896/1/3
f 897/1/4 898/1/4 899/1/4 900/1/4
f 901/1/3 902/1/3 903/1/3 904/1/3
f 905/1/4 906/1/4 907/1/4 908/1/4
f 909/3/3 910/3/3 911/3/3 912/3/3
f 913/3/4 914/3/4 915/3/4 916/3/4
f 917/2/3 918/2/3 919/2/3 920/2/3
f 921/2/4 922/2/4 923/2/4 924/2/4
f 925/2/3 926/2/3 927/2/3 928/2/3
f 929/2/4 930/2/4 931/2/4 932/2/4
f 933/4/3 934/4/3 935/4/3 936/4/3
f 937/4/4 938/4/4 939/4/4 940/4/4
f 941/4/3 942/4/3 943/4/3 944/4/3
f 945/4/4 946/4/4 947/4/4 948/4/4
f 949/4/3 950/4/3 951/4/3 952/4/3
f 953/4/4 954/4/4 955/4/4 956/4/4
f 957/3/3 958/3/3 959/3/3 960/3/3
f 961/3/4 962/3/4 963/3/4 964/3/4
f 965/1/3 966/1/3 967/1/3 968/1/3
f 969/1/4 970/1/4 971/1/4 972/1/4
f 973/1/3 974/1/3 975/1/3 976/1/3
f 977/1/4 978/1/4 979/1/4 980/1/4
f 981/1/3 982/1/3 983/1/3 984/1/3
f 985/1/4 986/1/4 987/1/4 988/1/4
f 989/1/3 990/1/3 991/1/3 992/1/3
f 993/1/4 994/1/4 995/1/4 996/1/4
f 997/1/3 998/1/3 999/1/3 1000/1/3
f 1001/1/4 1002/1/4 1003/1/4 1004/1/4
f 1005/1/3 1006/1/3 1007/1/3 1008/1/3
f 1009/1/4 1010/1/4 1011/1/4 1012/1/4
f 1013/1/3 1014/1/3 1015/1/3 1016/1/3
f 1017/1/4 1018/1/4 1019/1/4 1020/1/4
f 1021/1/3 1022/1/3 1023/1/3 1024/1/3
f 1025/1/4 1026/1/4 1027/1/4 1028/1/4
f 1029/1/3 1030/1/3 1031/1/3 1032/1/3
f 1033/1/4 1034/1/4 1035/1/4 1036/1/4
f 1037/1/3 1038/1/3 1039/1/3 1040/1/3
f 1041/1/4 1042/1/4 1043/1/4 1044/1/4
f 1045/1/3 1046/1/3 1047/1/3 1048/1/3
f 1049/1/4 1050/1/4 1051/1/4 1052/1/4
f 1053/1/3 1054/1/3 1055/1/3 1056/1/3
f 1057/1/4 1058/1/4 1059/1/4 1060/1/4
f 1061/1/6 1062/1/6 1063/1/6 1064/1/6
f 1065/1/3 1066/1/3 1067/1/3 1068/1/3
f 1069/1/4 1070/1/4 1071/1/4 1072/1/4
f 1073/1/5 1074/1/5 1075/1/5 1076/1/5
f 1077/1/3 1078/1/3 1079/1/3 1080/1/3
f 1081/1/4 1082/1/4 1083/1/4 1084/1/4
f 1085/1/3 1086/1/3 1087/1/3 1088/1/3
f 1089/1/4 1090/1/4 1091/1/4 1092/1/4
f 1093/1/3 1094/1/3 1095/1/3 1096/1/3
f 1097/1/4 1098/1/4 1099/1/4 1100/1/4
f 1101/1/3 1102/1/3 1103/1/3 1104/1/3
f 1105/1/4 1106/1/4 1107/1/4 1108/1/4
f 1109/1/3 1110/1/3 1111/1/3 1112/1/3
f 1113/1/4 1114/1/4 1115/1/4 1116/1/4
f 1117/3/3 1118/3/3 1119/3/3 1120/3/3
f 1121/3/4 1122/3/4 1123/3/4 1124/3/4
f 1125/4/3 1126/4/3 1127/4/3 1128/4/3
f 1129/4/4 1130/4/4 1131/4/4 1132/4/4
f 1133/4/3 1134/4/3 1135/4/3 1136/4/3
f 1137/4/4 1138/4/4 1139/4/4 1140/4/4
f 1141/4/3 1142/4/3 1143/4/3 1144/4/3
f 1145/4/4 1146/4/4 1147/4/4 1148/4/4
f 1149/2/3 1150/2/3 1151/2/3 1152/2/3
f 1153/2/4 1154/2/4 1155/2/4 1156/2/4
f 1157/1/3 1158/1/3 1159/1/3 1160/1/3
f 1161/1/4 1162/1/4 1163/1/4 1164/1/4
f 1165/1/3 1166/1/3 1167/1/3 1168/1/3
f 1169/1/4 1170/1/4 1171/1/4 1172/1/4
f 1173/1/3 1174/1/3 1175/1/3 1176/1/3
f 1177/1/4 1178/1/4 1179/1/4 1180/1/4
f 1181/1/3 1182/1/3 1183/1/3 1184/1/3
f 1185/1/4 1186/1/4 1187/1/4 1188/1/4
f 1189/1/3 1190/1/3 1191/1/3 1192/1/3
f 1193/1/4 1194/1/4 1195/1/4 1196/1/4
f 1197/1/3 1198/1/3 1199/1/3 1200/1/3
f 1201/1/4 1202/1/4 1203/1/4 1204/1/4
f 1205/1/3 1206/1/3 1207/1/3 1208/1/3
f 1209/1/4 1210/1/4 1211/1/4 1212/1/4
f 1213/1/3 1214/1/3 1215/1/3 1216/1/3
f 1217/1/4 1218/1/4 1219/1/4 1220/1/4
f 1221/1/3 1222/1/3 1223/1/3 1224/1/3
f 1225/1/4 1226/1/4 1227/1/4 1228/1/4
f 1229/1/3 1230/1/3 1231/1/3 1232/1/3
f 1233/1/4 1234/1/4 1235/1/4 1236/1/4
f 1237/1/3 1238/1/3 1239/1/3 1240/1/3
f 1241/1/4 1242/1/4 1243/1/4 1244/1/4
f 1245/3/3 1246/3/3 1247/3/3 1248/3/3
f 1249/3/4 1250/3/4 1251/3/4 1252/3/4
f 1253/2/3 1254/2/3 1255/2/3 1256/2/3
f 1257/2/4 1258/2/4 1259/2/4 1260/2/4
f 1261/2/6 1262/2/6 1263/2/6 1264/2/6
f 1265/3/3 1266/3/3 1267/3/3 1268/3/3
f 1269/3/4 1270/3/4 1271/3/4 1272/3/4
f 1273/3/5 1274/3/5 1275/3/5 1276/3/5
f 1277/3/3 1278/3/3 1279/3/3 1280/3/3
f 1281/3/4 1282/3/4 1283/3/4 1284/3/4
f 1285/3/3 1286/3/3 1287/3/3 1288/3/3
f 1289/3/4 1290/3/4 1291/3/4 1292/3/4
f 1293/1/3 1294/1/3 1295/1/3 1296/1/3
f 1297/1/4 1298/1/4 1299/1/4 1300/1/4
f 1301/1/3 1302/1/3 1303/1/3 1304/1/3
f 1305/1/4 1306/1/4 1307/1/4 1308/1/4
f 1309/1/3 1310/1/3 1311/1/3 1312/1/3
f 1313/1/4 1314/1/4 1315/1/4 1316/1/4
f 1317/3/3 1318/3/3 1319/3/3 1320/3/3
f 1321/3/4 1322/3/4 1323/3/4 1324/3/4
f 1325/4/3 1326/4/3 1327/4/3 1328/4/3
f 1329/4/4 1330/4/4 1331/4/4 1332/4/4
f 1333/4/3 1334/4/3 1335/4/3 1336/4/3
f 1337/4/4 1338/4/4 1339/4/4 1340/4/4
f 1341/2/3 1342/2/3 1343/2/3 1344/2/3
f 1345/2/4 1346/2/4 1347/2/4 1348/2/4
f 1349/1/3 1350/1/3 1351/1/3 1352/1/3
f 1353/1/4 1354/1/4 1355/1/4 1356/1/4
f 1357/1/3 1358/1/3 1359/1/3 1360/1/3
f 1361/1/4 1362/1/4 1363/1/4 1364/1/4
f 1365/1/3 1366/1/3 1367/1/3 1368/1/3
f 1369/1/4 1370/1/4 1371/1/4 1372/1/4
f 1373/1/3 1374/1/3 1375/1/3 1376/1/3
f 1377/1/4 1378/1/4 1379/1/4 1380/1/4
f 1381/1/3 1382/1/3 1383/1/3 1384/1/3
f 1385/1/4 1386/1/4 1387/1/4 1388/1/4
f 1389/1/3 1390/1/3 1391/1/3 1392/1/3
f 1393/1/4 1394/1/4 1395/1/4 1396/1/4
f 1397/1/3 1398/1/3 1399/1/3 1400/1/3
f 1401/1/4 1402/1/4 1403/1/4 1404/1/4
f 1405/1/3 1406/1/3 1407/1/3 1408/1/3
f 1409/1/4 1410/1/4 1411/1/4 1412/1/4
f 1413/1/3 1414/1/3 1415/1/3 1416/1/3
f 1417/1/4 1418/1/4 1419/1/4 1420/1/4
f 1421/3/3 1422/3/3 1423/3/3 1424/3/3
f 1425/3/4 1426/3/4 1427/3/4 1428/3/4
f 1429/2/3 1430/2/3 1431/2/3 1432/2/3
f 1433/2/4 1434/2/4 1435/2/4 1436/2/4
f 1437/4/3 1438/4/3 1439/4/3 1440/4/3
f 1441/4/4 1442/4/4 1443/4/4 1444/4/4
f 1445/4/3 1446/4/3 1447/4/3 1448/4/3
f 1449/4/4 1450/4/4 1451/4/4 1452/4/4
f 1453/2/3 1454/2/3 1455/2/3 1456/2/3
f 1457/2/4 1458/2/4 1459/2/4 1460/2/4
f 1461/2/6 1462/2/6 1463/2/6 1464/2/6
f 1465/4/3 1466/4/3 1467/4/3 1468/4/3
f 1469/4/4 1470/4/4 1471/4/4 1472/4/4
f 1473/4/5 1474/4/5 1475/4/5 1476/4/5
f 1477/2/3 1478/2/3 1479/2/3 1480/2/3
f 1481/2/4 1482/2/4 1483/2/4 1484/2/4
f 1485/3/3 1486/3/3 1487/3/3 1488/3/3
f 1489/3/4 1490/3/4 1491/3/4 1492/3/4
f 1493/1/3 1494/1/3 1495/1/3 1496/1/3
f 1497/1/4 1498/1/4 1499/1/4 1500/1/4
f 1501/1/3 1502/1/3 1503/1/3 1504/1/3
f 1505/1/4 1506/1/4 1507/1/4 1508/1/4
f 1509/1/3 1510/1/3 1511/1/3 1512/1/3
f 1513/1/4 1514/1/4 1515/1/4 1516/1/4
f 1517/3/3 1518/3/3 1519/3/3 1520/3/3
f 1521/3/4 1522/3/4 1523/3/4 1524/3/4
f 1525/2/3 1526/2/3 1527/2/3 1528/2/3
f 1529/2/4 1530/2/4 1531/2/4 1532/2/4
f 1533/2/3 1534/2/3 1535/2/3 1536/2/3
f 1537/2/4 1538/2/4 1539/2/4 1540/2/4
f 1541/1/3 1542/1/3 1543/1/3 1544/1/3
f 1545/1/4 1546/1/4 1547/1/4 1548/1/4
f 1549/1/3 1550/1/3 1551/1/3 1552/1/3
f 1553/1/4 1554/1/4 1555/1/4 1556/1/4
f 1557/1/3 1558/1/3 1559/1/3 1560/1/3
f 1561/1/4 1562/1/4 1563/1/4 1564/1/4
f 1565/1/3 1566/1/3 1567/1/3 1568/1/3
f 1569/1/4 1570/1/4 1571/1/4 1572/1/4
f 1573/1/3 1574/1/3 1575/1/3 1576/1/3
f 1577/1/4 1578/1/4 1579/1/4 1580/1/4
f 1581/1/3 1582/1/3 1583/1/3 1584/1/3
f 1585/1/4 1586/1/4 1587/1/4 1588/1/4
f 1589/1/3 1590/1/3 1591/1/3 1592/1/3
f 1593/1/4 1594/1/4 1595/1/4 1596/1/4
f 1597/1/3 1598/1/3 1599/1/3 1600/1/3
f 1601/1/4 1602/1/4 1603/1/4 1604/1/4
f 1605/1/3 1606/1/3 1607/1/3 1608/1/3
f 1609/1/4 1610/1/4 1611/1/4 1612/1/4
f 1613/3/3 1614/3/3 1615/3/3 1616/3/3
f 1617/3/4 1618/3/4 1619/3/4 1620/3/4
f 1621/2/3 1622/2/3 1623/2/3 1624/2/3
f 1625/2/4 1626/2/4 1627/2/4 1628/2/4
f 1629/4/3 1630/4/3 1631/4/3 1632/4/3
f 1633/4/4 1634/4/4 1635/4/4 1636/4/4
f 1637/4/3 1638/4/3 1639/4/3 1640/4/3
f 1641/4/4 1642/4/4 1643/4/4 1644/4/4
f 1645/4/3 1646/4/3 1647/4/3 1648/4/3
f 1649/4/4 1650/4/4 1651/4/4 1652/4/4
f 1653/3/3 1654/3/3 1655/3/3 1656/3/3
f 1657/3/4 1658/3/4 1659/3/4 1660/3/4
f 1661/3/6 1662/3/6 1663/3/6 1664/3/6
f 1665/4/3 1666/4/3 1667/4/3 1668/4/3
f 1669/4/4 1670/4/4 1671/4/4 1672/4/4
f 1673/4/5 1674/4/5 1675/4/5 1676/4/5
f 1677/2/3 1678/2/3 1679/2/3 1680/2/3
f 1681/2/4 1682/2/4 1683/2/4 1684/2/4
f 1685/3/3 1686/3/3 1687/3/3 1688/3/3
f 1689/3/4 1690/3/4 1691/3/4 1692/3/4
f 1693/1/3 1694/1/3 1695/1/3 1696/1/3
f 1697/1/4 1698/1/4 1699/1/4 1700/1/4
f 1701/1/3 1702/1/3 1703/1/3 1704/1/3
f 1705/1/4 1706/1/4 1707/1/4 1708/1/4
f 1709/1/3 1710/1/3 1711/1/3 1712/1/3
f 1713/1/4 1714/1/4 1715/1/4 1716/1/4
f 1717/1/3 1718/1/3 1719/1/3 1720/1/3
f 1721/1/4 1722/1/4 1723/1/4 1724/1/4
f 1725/1/3 1726/1/3 1727/1/3 1728/1/3
f 1729/1/4 1730/1/4 1731/1/4 1732/1/4
f 1733/1/3 1734/1/3 1735/1/3 1736/1/3
f 1737/1/4 1738/1/4 1739/1/4 1740/1/4
f 1741/1/3 1742/1/3 1743/1/3 1744/1/3
f 1745/1/4 1746/1/4 1747/1/4 1748/1/4
f 1749/1/3 1750/1/3 1751/1/3 1752/1/3
f 1753/1/4 1754/1/4 1755/1/4 1756/1/4
f 1757/1/3 1758/1/3 1759/1/3 1760/1/3
f 1761/1/4 1762/1/4 1763/1/4 1764/1/4
f 1765/1/3 1766/1/3 1767/1/3 1768/1/3
f 1769/1/4 1770/1/4 1771/1/4 1772/1/4
f 1773/1/3 1774/1/3 1775/1/3 1776/1/3
f 1777/1/4 1778/1/4 1779/1/4 1780/1/4
f 1781/1/3 1782/1/3 1783/1/3 1784/1/3
f 1785/1/4 1786/1/4 1787/1/4 1788/1/4
f 1789/1/3 1790/1/3 1791/1/3 1792/1/3
f 1793/1/4 1794/1/4 1795/1/4 1796/1/4
f 1797/1/3 1798/1/3 1799/1/3 1800/1/3
f 1801/1/4 1802/1/4 1803/1/4 1804/1/4
f 1805/1/3 1806/1/3 1807/1/3 1808/1/3
f 1809/1/4 1810/1/4 1811/1/4 1812/1/4
f 1813/2/3 1814/2/3 1815/2/3 1816/2/3
f 1817/2/4 1818/2/4 1819/2/4 1820/2/4
f 1821/4/3 1822/4/3 1823/4/3 1824/4/3
f 1825/4/4 1826/4/4 1827/4/4 1828/4/4
f 1829/4/3 1830/4/3 1831/4/3 1832/4/3
f 1833/4/4 1834/4/4 1835/4/4 1836/4/4
f 1837/4/3 1838/4/3 1839/4/3 1840/4/3
f 1841/4/4 1842/4/4 1843/4/4 1844/4/4
f 1845/2/3 1846/2/3 1847/2/3 1848/2/3
f 1849/2/4 1850/2/4 1851/2/4 1852/2/4
f 1853/1/3 1854/1/3 1855/1/3 1856/1/3
f 1857/1/4 1858/1/4 1859/1/4 1860/1/4
f 1861/1/6 1862/1/6 1863/1/6 1864/1/6
f 1865/4/3 1866/4/3 1867/4/3 1868/4/3
f 1869/4/4 1870/4/4 1871/4/4 1872/4/4
f 1873/4/5 1874/4/5 1875/4/5 1876/4/5
f 1877/2/3 1878/2/3 1879/2/3 1880/2/3
f 1881/2/4 1882/2/4 1883/2/4 1884/2/4
f 1885/1/3 1886/1/3 1887/1/3 1888/1/3
f 1889/1/4 1890/1/4 1891/1/4 1892/1/4
f 1893/1/3 1894/1/3 1895/1/3 1896/1/3
f 1897/1/4 1898/1/4 1899/1/4 1900/1/4
f 1901/1/3 1902/1/3 1903/1/3 1904/1/3
f 1905/1/4 1906/1/4 1907/1/4 1908/1/4
f 1909/1/3 1910/1/3 1911/1/3 1912/1/3
f 1913/1/4 1914/1/4 1915/1/4 1916/1/4
f 1917/1/3 1918/1/3 1919/1/3 1920/1/3
f 1921/1/4 1922/1/4 1923/1/4 1924/1/4
f 1925/1/3 1926/1/3 1927/1/3 1928/1/3
f 1929/1/4 1930/1/4 1931/1/4 1932/1/4
f 1933/1/3 1934/1/3 1935/1/3 1936/1/3
f 1937/1/4 1938/1/4 1939/1/4 1940/1/4
f 1941/1/3 1942/1/3 1943/1/3 1944/1/3
f 1945/1/4 1946/1/4 1947/1/4 1948/1/4
f 1949/1/3 1950/1/3 1951/1/3 1952/1/3
f 1953/1/4 1954/1/4 1955/1/4 1956/1/4
f 1957/1/3 1958/1/3 1959/1/3 1960/1/3
f 1961/1/4 1962/1/4 1963/1/4 1964/1/4
f 1965/1/3 1966/1/3 1967/1/3 1968/1/3
f 1969/1/4 1970/1/4 1971/1/4 1972/1/4
f 1973/1/3 1974/1/3 1975/1/3 1976/1/3
f 1977/1/4 1978/1/4 1979/1/4 1980/1/4
f 1981/1/3 1982/1/3 1983/1/3 1984/1/3
f 1985/1/4 1986/1/4 1987/1/4 1988/1/4
f 1989/1/3 1990/1/3 1991/1/3 1992/1/3
f 1993/1/4 1994/1/4 1995/1/4 1996/1/4
f 1997/1/3 1998/1/3 1999/1/3 2000/1/3
f 2001/1/4 2002/1/4 2003/1/4 2004/1/4
f 2005/3/3 2006/3/3 2007/3/3 2008/3/3
f 2009/3/4 2010/3/4 2011/3/4 2012/3/4
f 2013/4/3 2014/4/3 2015/4/3 2016/4/3
f 2017/4/4 2018/4/4 2019/4/4 2020/4/4
f 2021/4/3 2022/4/3 2023/4/3 2024/4/3
f 2025/4/4 2026/4/4 2027/4/4 2028/4/4
f 2029/4/3 2030/4/3 2031/4/3 2032/4/3
f 2033/4/4 2034/4/4 2035/4/4 2036/4/4
f 2037/2/3 2038/2/3 2039/2/3 2040/2/3
f 2041/2/4 2042/2/4 2043/2/4 2044/2/4
f 2045/1/3 2046/1/3 2047/1/3 2048/1/3
f 2049/1/4 2050/1/4 2051/1/4 2052/1/4
f 2053/1/3 2054/1/3 2055/1/3 2056/1/3
f 2057/1/4 2058/1/4 2059/1/4 2060/1/4
f 2061/1/6 2062/1/6 2063/1/6 2064/1/6
f 2065/2/3 2066/2/3 2067/2/3 2068/2/3
f 2069/2/4 2070/2/4 2071/2/4 2072/2/4
f 2073/2/5 2074/2/5 2075/2/5 2076/2/5
f 2077/3/3 2078/3/3 2079/3/3 2080/3/3
f 2081/3/4 2082/3/4 2083/3/4 2084/3/4
f 2085/1/3 2086/1/3 2087/1/3 2088/1/3
f 2089/1/4 2090/1/4 2091/1/4 2092/1/4
f 2093/1/3 2094/1/3 2095/1/3 2096/1/3
f 2097/1/4 2098/1/4 2099/1/4 2100/1/4
f 2101/1/3 2102/1/3 2103/1/3 2104/1/3
f 2105/1/4 2106/1/4 2107/1/4 2108/1/4
f 2109/1/3 2110/1/3 2111/1/3 2112/1/3
f 2113/1/4 2114/1/4 2115/1/4 2116/1/4
f 2117/1/3 2118/1/3 2119/1/3 2120/1/3
f 2121/1/4 2122/1/4 2123/1/4 2124/1/4
f 2125/1/3 2126/1/3 2127/1/3 2128/1/3
f 2129/1/4 2130/1/4 2131/1/4 2132/1/4
f 2133/1/3 2134/1/3 2135/1/3 2136/1/3
f 2137/1/4 2138/1/4 2139/1/4 2140/1/4
f 2141/1/3 2142/1/3 2143/1/3 2144/1/3
f 2145/1/4 2146/1/4 2147/1/4 2148/1/4
f 2149/1/3 2150/1/3 2151/1/3 2152/1/3
f 2153/1/4 2154/1/4 2155/1/4 2156/1/4
f 2157/2/3 2158/2/3 2159/2/3 2160/2/3
f 2161/2/4 2162/2/4 2163/2/4 2164/2/4
f 2165/2/3 2166/2/3 2167/2/3 2168/2/3
f 2169/2/4 2170/2/4 2171/2/4 2172/2/4
f 2173/1/3 2174/1/3 2175/1/3 2176/1/3
f 2177/1/4 2178/1/4 2179/1/4 2180/1/4
f 2181/1/3 2182/1/3 2183/1/3 2184/1/3
f 2185/1/4 2186/1/4 2187/1/4 2188/1/4
f 2189/1/3 2190/1/3 2191/1/3 2192/1/3
f 2193/1/4 2194/1/4 2195/1/4 2196/1/4
f 2197/1/3 2198/1/3 2199/1/3 2200/1/3
f 2201/1/4 2202/1/4 2203/1/4 2204/1/4
f 2205/2/3 2206/2/3 2207/2/3 2208/2/3
f 2209/2/4 2210/2/4 2211/2/4 2212/2/4
f 2213/4/3 2214/4/3 2215/4/3 2216/4/3
f 2217/4/4 2218/4/4 2219/4/4 2220/4/4
f 2221/4/3 2222/4/3 2223/4/3 2224/4/3
f 2225/4/4 2226/4/4 2227/4/4 2228/4/4
f 2229/2/3 2230/2/3 2231/2/3 2232/2/3
f 2233/2/4 2234/2/4 2235/2/4 2236/2/4
f 2237/1/3 2238/1/3 2239/1/3 2240/1/3
f 2241/1/4 2242/1/4 2243/1/4 2244/1/4
f 2245/1/3 2246/1/3 2247/1/3 2248/1/3
f 2249/1/4 2250/1/4 2251/1/4 2252/1/4
f 2253/1/3 2254/1/3 2255/1/3 2256/1/3
f 2257/1/4 2258/1/4 2259/1/4 2260/1/4
f 2261/1/6 2262/1/6 2263/1/6 2264/1/6
f 2265/3/3 2266/3/3 2267/3/3 2268/3/3
f 2269/3/4 2270/3/4 2271/3/4 2272/3/4
f 2273/3/5 2274/3/5 2275/3/5 2276/3/5
f 2277/3/3 2278/3/3 2279/3/3 2280/3/3
f 2281/3/4 2282/3/4 2283/3/4 2284/3/4
f 2285/1/3 2286/1/3 2287/1/3 2288/1/3
f 2289/1/4 2290/1/4 2291/1/4 2292/1/4
f 2293/1/3 2294/1/3 2295/1/3 2296/1/3
f 2297/1/4 2298/1/4 2299/1/4 2300/1/4
f 2301/1/3 2302/1/3 2303/1/3 2304/1/3
f 2305/1/4 2306/1/4 2307/1/4 2308/1/4
f 2309/1/3 2310/1/3 2311/1/3 2312/1/3
f 2313/1/4 2314/1/4 2315/1/4 2316/1/4
f 2317/1/3 2318/1/3 2319/1/3 2320/1/3
f 2321/1/4 2322/1/4 2323/1/4 2324/1/4
f 2325/1/3 2326/1/3 2327/1/3 2328/1/3
f 2329/1/4 2330/1/4 2331/1/4 2332/1/4
f 2333/1/3 2334/1/3 2335/1/3 2336/1/3
f 2337/1/4 2338/1/4 2339/1/4 2340/1/4
f 2341/1/3 2342/1/3 2343/1/3 2344/1/3
f 2345/1/4 2346/1/4 2347/1/4 2348/1/4
f 2349/2/3 2350/2/3 2351/2/3 2352/2/3
f 2353/2/4 2354/2/4 2355/2/4 2356/2/4
f 2357/4/3 2358/4/3 2359/4/3 2360/4/3
f 2361/4/4 2362/4/4 2363/4/4 2364/4/4
f 2365/2/3 2366/2/3 2367/2/3 2368/2/3
f 2369/2/4 2370/2/4 2371/2/4 2372/2/4
f 2373/3/3 2374/3/3 2375/3/3 2376/3/3
f 2377/3/4 2378/3/4 2379/3/4 2380/3/4
f 2381/1/3 2382/1/3 2383/1/3 2384/1/3
f 2385/1/4 2386/1/4 2387/1/4 2388/1/4
f 2389/1/3 2390/1/3 2391/1/3 2392/1/3
f 2393/1/4 2394/1/4 2395/1/4 2396/1/4
f 2397/3/3 2398/3/3 2399/3/3 2400/3/3
f 2401/3/4 2402/3/4 2403/3/4 2404/3/4
f 2405/3/3 2406/3/3 2407/3/3 2408/3/3
f 2409/3/4 2410/3/4 2411/3/4 2412/3/4
f 2413/3/3 2414/3/3 2415/3/3 2416/3/3
f 2417/3/4 2418/3/4 2419/3/4 2420/3/4
f 2421/1/3 2422/1/3 2423/1/3 2424/1/3
f 2425/1/4 2426/1/4 2427/1/4 2428/1/4
f 2429/1/3 2430/1/3 2431/1/3 2432/1/3
f 2433/1/4 2434/1/4 2435/1/4 2436/1/4
f 2437/1/3 2438/1/3 2439/1/3 2440/1/3
f 2441/1/4 2442/1/4 2443/1/4 2444/1/4
f 2445/1/3 2446/1/3 2447/1/3 2448/1/3
f 2449/1/4 2450/1/4 2451/1/4 2452/1/4
f 2453/1/3 2454/1/3 2455/1/3 2456/1/3
f 2457/1/4 2458/1/4 2459/1/4 2460/1/4
f 2461/1/6 2462/1/6 2463/1/6 2464/1/6
f 2465/1/3 2466/1/3 2467/1/3 2468/1/3
f 2469/1/4 2470/1/4 2471/1/4 2472/1/4
f 2473/1/5 2474/1/5 2475/1/5 2476/1/5
f 2477/3/3 2478/3/3 2479/3/3 2480/3/3
f 2481/3/4 2482/3/4 2483/3/4 2484/3/4
f 2485/1/3 2486/1/3 2487/1/3 2488/1/3
f 2489/1/4 2490/1/4 2491/1/4 2492/1/4
f 2493/1/3 2494/1/3 2495/1/3 2496/1/3
f 2497/1/4 2498/1/4 2499/1/4 2500/1/4
f 2501/1/3 2502/1/3 2503/1/3 2504/1/3
f 2505/1/4 2506/1/4 2507/1/4 2508/1/4
f 2509/1/3 2510/1/3 2511/1/3 2512/1/3
f 2513/1/4 2514/1/4 2515/1/4 2516/1/4
f 2517/1/3 2518/1/3 2519/1/3 2520/1/3
f 2521/1/4 2522/1/4 2523/1/4 2524/1/4
f 2525/1/3 2526/1/3 2527/1/3 2528/1/3
f 2529/1/4 2530/1/4 2531/1/4 2532/1/4
f 2533/1/3 2534/1/3 2535/1/3 2536/1/3
f 2537/1/4 2538/1/4 2539/1/4 2540/1/4
f 2541/2/3 2542/2/3 2543/2/3 2544/2/3
f 2545/2/4 2546/2/4 2547/2/4 2548/2/4
f 2549/4/3 2550/4/3 2551/4/3 2552/4/3
f 2553/4/4 2554/4/4 2555/4/4 2556/4/4
f 2557/4/3 2558/4/3 2559/4/3 2560/4/3
f 2561/4/4 2562/4/4 2563/4/4 2564/4/4
f 2565/2/3 2566/2/3 2567/2/3 2568/2/3
f 2569/2/4 2570/2/4 2571/2/4 2572/2/4
f 2573/2/3 2574/2/3 2575/2/3 2576/2/3
f 2577/2/4 2578/2/4 2579/2/4 2580/2/4
f 2581/3/3 2582/3/3 2583/3/3 2584/3/3
f 2585/3/4 2586/3/4 2587/3/4 2588/3/4
f 2589/3/3 2590/3/3 2591/3/3 2592/3/3
f 2593/3/4 2594/3/4 2595/3/4 2596/3/4
f 2597/3/3 2598/3/3 2599/3/3 2600/3/3
f 2601/3/4 2602/3/4 2603/3/4 2604/3/4
f 2605/1/3 2606/1/3 2607/1/3 2608/1/3
f 2609/1/4 2610/1/4 2611/1/4 2612/1/4
f 2613/1/3 2614/1/3 2615/1/3 2616/1/3
f 2617/1/4 2618/1/4 2619/1/4 2620/1/4
f 2621/1/3 2622/1/3 2623/1/3 2624/1/3
f 2625/1/4 2626/1/4 2627/1/4 2628/1/4
f 2629/1/3 2630/1/3 2631/1/3 2632/1/3
f 2633/1/4 2634/1/4 2635/1/4 2636/1/4
f 2637/1/3 2638/1/3 2639/1/3 2640/1/3
f 2641/1/4 2642/1/4 2643/1/4 2644/1/4
f 2645/1/3 2646/1/3 2647/1/3 2648/1/3
f 2649/1/4 2650/1/4 2651/1/4 2652/1/4
f 2653/1/3 2654/1/3 2655/1/3 2656/1/3
f 2657/1/4 2658/1/4 2659/1/4 2660/1/4
f 2661/1/6 2662/1/6 2663/1/6 2664/1/6
f 2665/1/2 2666/1/2 2667/1/2 2668/1/2
f 2669/1/3 2670/1/3 2671/1/3 2672/1/3
f 2673/1/4 2674/1/4 2675/1/4 2676/1/4
f 2677/1/5 2678/1/5 2679/1/5 2680/1/5
f 2681/1/2 2682/1/2 2683/1/2 2684/1/2
f 2685/1/3 2686/1/3 2687/1/3 2688/1/3
f 2689/1/4 2690/1/4 2691/1/4 2692/1/4
f 2693/1/2 2694/1/2 2695/1/2 2696/1/2
f 2697/1/3 2698/1/3 2699/1/3 2700/1/3
f 2701/1/4 2702/1/4 2703/1/4 2704/1/4
f 2705/1/2 2706/1/2 2707/1/2 2708/1/2
f 2709/1/3 2710/1/3 2711/1/3 2712/1/3
f 2713/1/4 2714/1/4 2715/1/4 2716/1/4
f 2717/1/2 2718/1/2 2719/1/2 2720/1/2
f 2721/1/3 2722/1/3 2723/1/3 2724/1/3
f 2725/1/4 2726/1/4 2727/1/4 2728/1/4
f 2729/1/2 2730/1/2 2731/1/2 2732/1/2
f 2733/1/3 2734/1/3 2735/1/3 2736/1/3
f 2737/1/4 2738/1/4 2739/1/4 2740/1/4
f 2741/1/2 2742/1/2 2743/1/2 2744/1/2
f 2745/1/3 2746/1/3 2747/1/3 2748/1/3
f 2749/1/4 2750/1/4 2751/1/4 2752/1/4
f 2753/1/2 2754/1/2 2755/1/2 2756/1/2
f 2757/1/3 2758/1/3 2759/1/3 2760/1/3
f 2761/1/4 2762/1/4 2763/1/4 2764/1/4
f 2765/3/2 2766/3/2 2767/3/2 2768/3/2
f 2769/3/3 2770/3/3 2771/3/3 2772/3/3
f 2773/3/4 2774/3/4 2775/3/4 2776/3/4
f 2777/2/2 2778/2/2 2779/2/2 2780/2/2
f 2781/2/3 2782/2/3 2783/2/3 2784/2/3
f 2785/2/4 2786/2/4 2787/2/4 2788/2/4
f 2789/4/2 2790/4/2 2791/4/2 2792/4/2
f 2793/4/3 2794/4/3 2795/4/3 2796/4/3
f 2797/4/4 2798/4/4 2799/4/4 2800/4/4
f 2801/4/2 2802/4/2 2803/4/2 2804/4/2
f 2805/4/3 2806/4/3 2807/4/3 2808/4/3
f 2809/4/4 2810/4/4 2811/4/4 2812/4/4
f 2813/2/2 2814/2/2 2815/2/2 2816/2/2
f 2817/2/3 2818/2/3 2819/2/3 2820/2/3
f 2821/2/4 2822/2/4 2823/2/4 2824/2/4
f 2825/2/2 2826/2/2 2827/2/2 2828/2/2
f 2829/2/3 2830/2/3 2831/2/3 2832/2/3
f 2833/2/4 2834/2/4 2835/2/4 2836/2/4
f 2837/2/2 2838/2/2 2839/2/2 2840/2/2
f 2841/2/3 2842/2/3 2843/2/3 2844/2/3
f 2845/2/4 2846/2/4 2847/2/4 2848/2/4
f 2849/3/2 2850/3/2 2851/3/2 2852/3/2
f 2853/3/3 2854/3/3 2855/3/3 2856/3/3
f 2857/3/4 2858/3/4 2859/3/4 2860/3/4
f 2861/1/2 2862/1/2 2863/1/2 2864/1/2
f 2865/1/3 2866/1/3 2867/1/3 2868/1/3
f 2869/1/4 2870/1/4 2871/1/4 2872/1/4
f 2873/1/2 2874/1/2 2875/1/2 2876/1/2
f 2877/1/3 2878/1/3 2879/1/3 2880/1/3
f 2881/1/4 2882/1/4 2883/1/4 2884/1/4
f 2885/1/2 2886/1/2 2887/1/2 2888/1/2
f 2889/1/3 2890/1/3 2891/1/3 2892/1/3
f 2893/1/4 2894/1/4 2895/1/4 2896/1/4
f 2897/1/2 2898/1/2 2899/1/2 2900/1/2
f 2901/1/3 2902/1/3 2903/1/3 2904/1/3
f 2905/1/4 2906/1/4 2907/1/4 2908/1/4
f 2909/1/2 2910/1/2 2911/1/2 2912/1/2
f 2913/1/3 2914/1/3 2915/1/3 2916/1/3
f 2917/1/4 2918/1/4 2919/1/4 2920/1/4
f 2921/1/2 2922/1/2 2923/1/2 2924/1/2
f 2925/1/3 2926/1/3 2927/1/3 2928/1/3
f 2929/1/4 2930/1/4 2931/1/4 2932/1/4
f 2933/1/2 2934/1/2 2935/1/2 2936/1/2
f 2937/1/3 2938/1/3 2939/1/3 2940/1/3
f 2941/1/4 2942/1/4 2943/1/4 2944/1/4
f 2945/1/2 2946/1/2 2947/1/2 2948/1/2
f 2949/1/3 2950/1/3 2951/1/3 2952/1/3
f 2953/1/4 2954/1/4 2955/1/4 2956/1/4
f 2957/1/6 2958/1/6 2959/1/6 2960/1/6

