# generated by vox_to_obj_exporter --round
# scale=0.1 center=false ground=false y_up=true
# welded, edge-relaxed, smooth vertex normals

mtllib Fight_009.mtl
usemtl palette

# verts
v 5.22167 11.27833 -2.57833
v 5.22167 11.22167 -2.57833
v 5.22167 11.22167 -2.52167
v 5.22167 11.27833 -2.52167
v 5.3 11.28375 -2.51625
v 5.3 11.28375 -2.58375
v 5.3 11.21625 -2.58375
v 5.3 11.21625 -2.51625
v 5.4 11.28375 -2.51625
v 5.4 11.28375 -2.58375
v 5.4 11.21625 -2.58375
v 5.4 11.21625 -2.51625
v 5.5 11.28375 -2.51625
v 5.5 11.28375 -2.58375
v 5.5 11.21625 -2.58375
v 5.5 11.21625 -2.51625
v 5.57833 11.27833 -2.52167
v 5.57833 11.22167 -2.52167
v 5.57833 11.22167 -2.57833
v 5.57833 11.27833 -2.57833
v 5.72167 11.27833 -2.57833
v 5.72167 11.22167 -2.57833
v 5.72167 11.22167 -2.52167
v 5.72167 11.27833 -2.52167
v 5.8 11.28375 -2.51625
v 5.8 11.28375 -2.58375
v 5.8 11.21625 -2.58375
v 5.8 11.21625 -2.51625
v 5.9 11.28375 -2.51625
v 5.9 11.28375 -2.58375
v 5.9 11.21625 -2.58375
v 5.9 11.21625 -2.51625
v 6 11.28375 -2.51625
v 6 11.28375 -2.58375
v 6 11.21625 -2.58375
v 6 11.21625 -2.51625
v 6.1 11.28375 -2.51625
v 6.1 11.28375 -2.58375
v 6.1 11.21625 -2.58375
v 6.1 11.21625 -2.51625
v 6.17833 11.27833 -2.52167
v 6.17833 11.22167 -2.52167
v 6.17833 11.22167 -2.57833
v 6.17833 11.27833 -2.57833
v 6.32167 11.67833 -2.57833
v 6.32167 11.62167 -2.57833
v 6.32167 11.62167 -2.52167
v 6.32167 11.67833 -2.52167
v 6.4 11.68375 -2.51625
v 6.4 11.68375 -2.58375
v 6.4 11.61625 -2.58375
v 6.4 11.61625 -2.51625
v 6.5 11.68375 -2.51625
v 6.5 11.68375 -2.58375
v 6.5 11.61625 -2.58375
v 6.5 11.61625 -2.51625
v 6.6 11.68375 -2.51625
v 6.6 11.68375 -2.58375
v 6.6 11.61625 -2.58375
v 6.6 11.61625 -2.51625
v 6.67833 11.67833 -2.52167
v 6.67833 11.62167 -2.52167
v 6.67833 11.62167 -2.57833
v 6.67833 11.67833 -2.57833

# texcoords
vt 0.07227 0.5
vt 0.06055 0.5
vt 0.15039 0.5
vt 0.04492 0.5
vt 0.04102 0.5
vt 0.04883 0.5
vt 0.05273 0.5
vt 0.22461 0.5

# normals
vn -1 0 -0
vn -0.069 0.9976 -0
vn -0.0345 0.9994 -0
vn -0.069 -0.9976 -0
vn -0.0345 -0.9994 -0
vn -0.069 0 0.9976
vn -0.0345 0 0.9994
vn -0.0345 0 -0.9994
vn -0.069 0 -0.9976
vn 0 1 -0
vn 0 -1 -0
vn 0 0 1
vn 0 0 -1
vn 0.0345 0.9994 -0
vn 0.0345 -0.9994 -0
vn 0.0345 0 0.9994
vn 0.0345 0 -0.9994
vn 1 0 -0
vn 0.069 0.9976 -0
vn 0.069 -0.9976 -0
vn 0.069 0 0.9976
vn 0.069 0 -0.9976

# faces
f 1/1/1 2/1/1 3/1/1
f 1/1/1 3/1/1 4/1/1
f 1/1/2 4/1/2 5/1/3
f 1/1/2 5/1/3 6/1/3
f 2/1/4 7/1/5 8/1/5
f 2/1/4 8/1/5 3/1/4
f 4/1/6 3/1/6 8/1/7
f 4/1/6 8/1/7 5/1/7
f 6/1/8 7/1/8 2/1/9
f 6/1/8 2/1/9 1/1/9
f 6/2/3 5/2/3 9/2/10
f 6/2/3 9/2/10 10/2/10
f 8/2/5 7/2/5 11/2/11
f 8/2/5 11/2/11 12/2/11
f 5/2/7 8/2/7 12/2/12
f 5/2/7 12/2/12 9/2/12
f 10/2/13 11/2/13 7/2/8
f 10/2/13 7/2/8 6/2/8
f 10/3/10 9/3/10 13/3/14
f 10/3/10 13/3/14 14/3/14
f 12/3/11 11/3/11 15/3/15
f 12/3/11 15/3/15 16/3/15
f 9/3/12 12/3/12 16/3/16
f 9/3/12 16/3/16 13/3/16
f 14/3/17 15/3/17 11/3/13
f 14/3/17 11/3/13 10/3/13
f 17/4/18 18/4/18 19/4/18
f 17/4/18 19/4/18 20/4/18
f 13/4/14 17/4/19 20/4/19
f 13/4/14 20/4/19 14/4/14
f 16/4/15 15/4/15 19/4/20
f 16/4/15 19/4/20 18/4/20
f 13/4/16 16/4/16 18/4/21
f 13/4/16 18/4/21 17/4/21
f 20/4/22 19/4/22 15/4/17
f 20/4/22 15/4/17 14/4/17
f 21/5/1 22/5/1 23/5/1
f 21/5/1 23/5/1 24/5/1
f 21/5/2 24/5/2 25/5/3
f 21/5/2 25/5/3 26/5/3
f 22/5/4 27/5/5 28/5/5
f 22/5/4 28/5/5 23/5/4
f 24/5/6 23/5/6 28/5/7
f 24/5/6 28/5/7 25/5/7
f 26/5/8 27/5/8 22/5/9
f 26/5/8 22/5/9 21/5/9
f 26/6/3 25/6/3 29/6/10
f 26/6/3 29/6/10 30/6/10
f 28/6/5 27/6/5 31/6/11
f 28/6/5 31/6/11 32/6/11
f 25/6/7 28/6/7 32/6/12
f 25/6/7 32/6/12 29/6/12
f 30/6/13 31/6/13 27/6/8
f 30/6/13 27/6/8 26/6/8
f 30/7/10 29/7/10 33/7/10
f 30/7/10 33/7/10 34/7/10
f 32/7/11 31/7/11 35/7/11
f 32/7/11 35/7/11 36/7/11
f 29/7/12 32/7/12 36/7/12
f 29/7/12 36/7/12 33/7/12
f 34/7/13 35/7/13 31/7/13
f 34/7/13 31/7/13 30/7/13
f 34/8/10 33/8/10 37/8/14
f 34/8/10 37/8/14 38/8/14
f 36/8/11 35/8/11 39/8/15
f 36/8/11 39/8/15 40/8/15
f 33/8/12 36/8/12 40/8/16
f 33/8/12 40/8/16 37/8/16
f 38/8/17 39/8/17 35/8/13
f 38/8/17 35/8/13 34/8/13
f 41/8/18 42/8/18 43/8/18
f 41/8/18 43/8/18 44/8/18
f 37/8/14 41/8/19 44/8/19
f 37/8/14 44/8/19 38/8/14
f 40/8/15 39/8/15 43/8/20
f 40/8/15 43/8/20 42/8/20
f 37/8/16 40/8/16 42/8/21
f 37/8/16 42/8/21 41/8/21
f 44/8/22 43/8/22 39/8/17
f 44/8/22 39/8/17 38/8/17
f 45/1/1 46/1/1 47/1/1
f 45/1/1 47/1/1 48/1/1
f 45/1/2 48/1/2 49/1/3
f 45/1/2 49/1/3 50/1/3
f 46/1/4 51/1/5 52/1/5
f 46/1/4 52/1/5 47/1/4
f 48/1/6 47/1/6 52/1/7
f 48/1/6 52/1/7 49/1/7
f 50/1/8 51/1/8 46/1/9
f 50/1/8 46/1/9 45/1/9
f 50/2/3 49/2/3 53/2/10
f 50/2/3 53/2/10 54/2/10
f 52/2/5 51/2/5 55/2/11
f 52/2/5 55/2/11 56/2/11
f 49/2/7 52/2/7 56/2/12
f 49/2/7 56/2/12 53/2/12
f 54/2/13 55/2/13 51/2/8
f 54/2/13 51/2/8 50/2/8
f 54/3/10 53/3/10 57/3/14
f 54/3/10 57/3/14 58/3/14
f 56/3/11 55/3/11 59/3/15
f 56/3/11 59/3/15 60/3/15
f 53/3/12 56/3/12 60/3/16
f 53/3/12 60/3/16 57/3/16
f 58/3/17 59/3/17 55/3/13
f 58/3/17 55/3/13 54/3/13
f 61/5/18 62/5/18 63/5/18
f 61/5/18 63/5/18 64/5/18
f 57/5/14 61/5/19 64/5/19
f 57/5/14 64/5/19 58/5/14
f 60/5/15 59/5/15 63/5/20
f 60/5/15 63/5/20 62/5/20
f 57/5/16 60/5/16 62/5/21
f 57/5/16 62/5/21 61/5/21
f 64/5/22 63/5/22 59/5/17
f 64/5/22 59/5/17 58/5/17

