# generated by vox_to_obj_exporter
# scale=0.1 center=false ground=false y_up=true

mtllib Fight_708.mtl
usemtl palette

# normals
vn -1 0 0
vn 1 0 0
vn 0 1 0
vn 0 -1 0
vn 0 0 1
vn 0 0 -1

# texcoords
vt 0.162109375 0.5
vt 0.166015625 0.5

# verts
v 1.5 11 -2.6
v 1.5 10.9 -2.6
v 1.5 10.9 -2.5
v 1.5 11 -2.5
v 1.6 11 -2.5
v 1.6 10.9 -2.5
v 1.6 10.9 -2.6
v 1.6 11 -2.6
v 1.5 11 -2.6
v 1.5 11 -2.5
v 1.6 11 -2.5
v 1.6 11 -2.6
v 1.5 11 -2.5
v 1.5 10.9 -2.5
v 1.6 10.9 -2.5
v 1.6 11 -2.5
v 1.6 11 -2.6
v 1.6 10.9 -2.6
v 1.5 10.9 -2.6
v 1.5 11 -2.6
v 1.1 10.9 -2.6
v 1.1 10.8 -2.6
v 1.1 10.8 -2.5
v 1.1 10.9 -2.5
v 1.1 10.9 -2.6
v 1.1 10.9 -2.5
v 1.2 10.9 -2.5
v 1.2 10.9 -2.6
v 1.1 10.9 -2.5
v 1.1 10.8 -2.5
v 1.2 10.8 -2.5
v 1.2 10.9 -2.5
v 1.2 10.9 -2.6
v 1.2 10.8 -2.6
v 1.1 10.8 -2.6
v 1.1 10.9 -2.6
v 1.2 10.9 -2.6
v 1.2 10.9 -2.5
v 1.3 10.9 -2.5
v 1.3 10.9 -2.6
v 1.2 10.9 -2.5
v 1.2 10.8 -2.5
v 1.3 10.8 -2.5
v 1.3 10.9 -2.5
v 1.3 10.9 -2.6
v 1.3 10.8 -2.6
v 1.2 10.8 -2.6
v 1.2 10.9 -2.6
v 1.3 10.9 -2.6
v 1.3 10.9 -2.5
v 1.4 10.9 -2.5
v 1.4 10.9 -2.6
v 1.3 10.9 -2.5
v 1.3 10.8 -2.5
v 1.4 10.8 -2.5
v 1.4 10.9 -2.5
v 1.4 10.9 -2.6
v 1.4 10.8 -2.6
v 1.3 10.8 -2.6
v 1.3 10.9 -2.6
v 1.4 10.9 -2.6
v 1.4 10.9 -2.5
v 1.5 10.9 -2.5
v 1.5 10.9 -2.6
v 1.4 10.9 -2.5
v 1.4 10.8 -2.5
v 1.5 10.8 -2.5
v 1.5 10.9 -2.5
v 1.5 10.9 -2.6
v 1.5 10.8 -2.6
v 1.4 10.8 -2.6
v 1.4 10.9 -2.6
v 1.5 10.9 -2.5
v 1.5 10.8 -2.5
v 1.6 10.8 -2.5
v 1.6 10.9 -2.5
v 1.6 10.9 -2.6
v 1.6 10.8 -2.6
v 1.5 10.8 -2.6
v 1.5 10.9 -2.6
v 1.6 10.9 -2.6
v 1.6 10.9 -2.5
v 1.7 10.9 -2.5
v 1.7 10.9 -2.6
v 1.6 10.9 -2.5
v 1.6 10.8 -2.5
v 1.7 10.8 -2.5
v 1.7 10.9 -2.5
v 1.7 10.9 -2.6
v 1.7 10.8 -2.6
v 1.6 10.8 -2.6
v 1.6 10.9 -2.6
v 1.8 10.9 -2.5
v 1.8 10.8 -2.5
v 1.8 10.8 -2.6
v 1.8 10.9 -2.6
v 1.7 10.9 -2.6
v 1.7 10.9 -2.5
v 1.8 10.9 -2.5
v 1.8 10.9 -2.6
v 1.7 10.9 -2.5
v 1.7 10.8 -2.5
v 1.8 10.8 -2.5
v 1.8 10.9 -2.5
v 1.8 10.9 -2.6
v 1.8 10.8 -2.6
v 1.7 10.8 -2.6
v 1.7 10.9 -2.6
v 1.9 10.9 -2.6
v 1.9 10.8 -2.6
v 1.9 10.8 -2.5
v 1.9 10.9 -2.5
v 2 10.9 -2.5
v 2 10.8 -2.5
v 2 10.8 -2.6
v 2 10.9 -2.6
v 1.9 10.9 -2.6
v 1.9 10.9 -2.5
v 2 10.9 -2.5
v 2 10.9 -2.6
v 1.9 10.9 -2.5
v 1.9 10.8 -2.5
v 2 10.8 -2.5
v 2 10.9 -2.5
v 2 10.9 -2.6
v 2 10.8 -2.6
v 1.9 10.8 -2.6
v 1.9 10.9 -2.6
v 0.9 10.8 -2.6
v 0.9 10.7 -2.6
v 0.9 10.7 -2.5
v 0.9 10.8 -2.5
v 0.9 10.8 -2.6
v 0.9 10.8 -2.5
v 1 10.8 -2.5
v 1 10.8 -2.6
v 0.9 10.8 -2.5
v 0.9 10.7 -2.5
v 1 10.7 -2.5
v 1 10.8 -2.5
v 1 10.8 -2.6
v 1 10.7 -2.6
v 0.9 10.7 -2.6
v 0.9 10.8 -2.6
v 1 10.8 -2.6
v 1 10.8 -2.5
v 1.1 10.8 -2.5
v 1.1 10.8 -2.6
v 1 10.8 -2.5
v 1 10.7 -2.5
v 1.1 10.7 -2.5
v 1.1 10.8 -2.5
v 1.1 10.8 -2.6
v 1.1 10.7 -2.6
v 1 10.7 -2.6
v 1 10.8 -2.6
v 1.1 10.8 -2.5
v 1.1 10.7 -2.5
v 1.2 10.7 -2.5
v 1.2 10.8 -2.5
v 1.2 10.8 -2.6
v 1.2 10.7 -2.6
v 1.1 10.7 -2.6
v 1.1 10.8 -2.6
v 1.2 10.8 -2.5
v 1.2 10.7 -2.5
v 1.3 10.7 -2.5
v 1.3 10.8 -2.5
v 1.3 10.8 -2.6
v 1.3 10.7 -2.6
v 1.2 10.7 -2.6
v 1.2 10.8 -2.6
v 1.3 10.7 -2.5
v 1.3 10.7 -2.6
v 1.4 10.7 -2.6
v 1.4 10.7 -2.5
v 1.3 10.8 -2.5
v 1.3 10.7 -2.5
v 1.4 10.7 -2.5
v 1.4 10.8 -2.5
v 1.4 10.8 -2.6
v 1.4 10.7 -2.6
v 1.3 10.7 -2.6
v 1.3 10.8 -2.6
v 1.4 10.7 -2.5
v 1.4 10.7 -2.6
v 1.5 10.7 -2.6
v 1.5 10.7 -2.5
v 1.4 10.8 -2.5
v 1.4 10.7 -2.5
v 1.5 10.7 -2.5
v 1.5 10.8 -2.5
v 1.5 10.8 -2.6
v 1.5 10.7 -2.6
v 1.4 10.7 -2.6
v 1.4 10.8 -2.6
v 1.5 10.7 -2.5
v 1.5 10.7 -2.6
v 1.6 10.7 -2.6
v 1.6 10.7 -2.5
v 1.5 10.8 -2.5
v 1.5 10.7 -2.5
v 1.6 10.7 -2.5
v 1.6 10.8 -2.5
v 1.6 10.8 -2.6
v 1.6 10.7 -2.6
v 1.5 10.7 -2.6
v 1.5 10.8 -2.6
v 1.6 10.7 -2.5
v 1.6 10.7 -2.6
v 1.7 10.7 -2.6
v 1.7 10.7 -2.5
v 1.6 10.8 -2.5
v 1.6 10.7 -2.5
v 1.7 10.7 -2.5
v 1.7 10.8 -2.5
v 1.7 10.8 -2.6
v 1.7 10.7 -2.6
v 1.6 10.7 -2.6
v 1.6 10.8 -2.6
v 1.7 10.7 -2.5
v 1.7 10.7 -2.6
v 1.8 10.7 -2.6
v 1.8 10.7 -2.5
v 1.7 10.8 -2.5
v 1.7 10.7 -2.5
v 1.8 10.7 -2.5
v 1.8 10.8 -2.5
v 1.8 10.8 -2.6
v 1.8 10.7 -2.6
v 1.7 10.7 -2.6
v 1.7 10.8 -2.6
v 1.8 10.8 -2.6
v 1.8 10.8 -2.5
v 1.9 10.8 -2.5
v 1.9 10.8 -2.6
v 1.8 10.7 -2.5
v 1.8 10.7 -2.6
v 1.9 10.7 -2.6
v 1.9 10.7 -2.5
v 1.8 10.8 -2.5
v 1.8 10.7 -2.5
v 1.9 10.7 -2.5
v 1.9 10.8 -2.5
v 1.9 10.8 -2.6
v 1.9 10.7 -2.6
v 1.8 10.7 -2.6
v 1.8 10.8 -2.6
v 1.9 10.8 -2.5
v 1.9 10.7 -2.5
v 2 10.7 -2.5
v 2 10.8 -2.5
v 2 10.8 -2.6
v 2 10.7 -2.6
v 1.9 10.7 -2.6
v 1.9 10.8 -2.6
v 2 10.8 -2.6
v 2 10.8 -2.5
v 2.1 10.8 -2.5
v 2.1 10.8 -2.6
v 2 10.8 -2.5
v 2 10.7 -2.5
v 2.1 10.7 -2.5
v 2.1 10.8 -2.5
v 2.1 10.8 -2.6
v 2.1 10.7 -2.6
v 2 10.7 -2.6
v 2 10.8 -2.6
v 2.2 10.8 -2.5
v 2.2 10.7 -2.5
v 2.2 10.7 -2.6
v 2.2 10.8 -2.6
v 2.1 10.8 -2.6
v 2.1 10.8 -2.5
v 2.2 10.8 -2.5
v 2.2 10.8 -2.6
v 2.1 10.8 -2.5
v 2.1 10.7 -2.5
v 2.2 10.7 -2.5
v 2.2 10.8 -2.5
v 2.2 10.8 -2.6
v 2.2 10.7 -2.6
v 2.1 10.7 -2.6
v 2.1 10.8 -2.6
v 0.9 10.7 -2.6
v 0.9 10.6 -2.6
v 0.9 10.6 -2.5
v 0.9 10.7 -2.5
v 0.9 10.7 -2.5
v 0.9 10.6 -2.5
v 1 10.6 -2.5
v 1 10.7 -2.5
v 1 10.7 -2.6
v 1 10.6 -2.6
v 0.9 10.6 -2.6
v 0.9 10.7 -2.6
v 1 10.7 -2.5
v 1 10.6 -2.5
v 1.1 10.6 -2.5
v 1.1 10.7 -2.5
v 1.1 10.7 -2.6
v 1.1 10.6 -2.6
v 1 10.6 -2.6
v 1 10.7 -2.6
v 1.1 10.6 -2.5
v 1.1 10.6 -2.6
v 1.2 10.6 -2.6
v 1.2 10.6 -2.5
v 1.1 10.7 -2.5
v 1.1 10.6 -2.5
v 1.2 10.6 -2.5
v 1.2 10.7 -2.5
v 1.2 10.7 -2.6
v 1.2 10.6 -2.6
v 1.1 10.6 -2.6
v 1.1 10.7 -2.6
v 1.3 10.7 -2.5
v 1.3 10.6 -2.5
v 1.3 10.6 -2.6
v 1.3 10.7 -2.6
v 1.2 10.6 -2.5
v 1.2 10.6 -2.6
v 1.3 10.6 -2.6
v 1.3 10.6 -2.5
v 1.2 10.7 -2.5
v 1.2 10.6 -2.5
v 1.3 10.6 -2.5
v 1.3 10.7 -2.5
v 1.3 10.7 -2.6
v 1.3 10.6 -2.6
v 1.2 10.6 -2.6
v 1.2 10.7 -2.6
v 1.9 10.7 -2.6
v 1.9 10.6 -2.6
v 1.9 10.6 -2.5
v 1.9 10.7 -2.5
v 1.9 10.6 -2.5
v 1.9 10.6 -2.6
v 2 10.6 -2.6
v 2 10.6 -2.5
v 1.9 10.7 -2.5
v 1.9 10.6 -2.5
v 2 10.6 -2.5
v 2 10.7 -2.5
v 2 10.7 -2.6
v 2 10.6 -2.6
v 1.9 10.6 -2.6
v 1.9 10.7 -2.6
v 2 10.7 -2.5
v 2 10.6 -2.5
v 2.1 10.6 -2.5
v 2.1 10.7 -2.5
v 2.1 10.7 -2.6
v 2.1 10.6 -2.6
v 2 10.6 -2.6
v 2 10.7 -2.6
v 2.1 10.7 -2.5
v 2.1 10.6 -2.5
v 2.2 10.6 -2.5
v 2.2 10.7 -2.5
v 2.2 10.7 -2.6
v 2.2 10.6 -2.6
v 2.1 10.6 -2.6
v 2.1 10.7 -2.6
v 2.3 10.7 -2.5
v 2.3 10.6 -2.5
v 2.3 10.6 -2.6
v 2.3 10.7 -2.6
v 2.2 10.7 -2.6
v 2.2 10.7 -2.5
v 2.3 10.7 -2.5
v 2.3 10.7 -2.6
v 2.2 10.7 -2.5
v 2.2 10.6 -2.5
v 2.3 10.6 -2.5
v 2.3 10.7 -2.5
v 2.3 10.7 -2.6
v 2.3 10.6 -2.6
v 2.2 10.6 -2.6
v 2.2 10.7 -2.6
v 0.8 10.6 -2.6
v 0.8 10.5 -2.6
v 0.8 10.5 -2.5
v 0.8 10.6 -2.5
v 0.8 10.6 -2.6
v 0.8 10.6 -2.5
v 0.9 10.6 -2.5
v 0.9 10.6 -2.6
v 0.8 10.6 -2.5
v 0.8 10.5 -2.5
v 0.9 10.5 -2.5
v 0.9 10.6 -2.5
v 0.9 10.6 -2.6
v 0.9 10.5 -2.6
v 0.8 10.5 -2.6
v 0.8 10.6 -2.6
v 0.9 10.6 -2.5
v 0.9 10.5 -2.5
v 1 10.5 -2.5
v 1 10.6 -2.5
v 1 10.6 -2.6
v 1 10.5 -2.6
v 0.9 10.5 -2.6
v 0.9 10.6 -2.6
v 1.1 10.6 -2.5
v 1.1 10.5 -2.5
v 1.1 10.5 -2.6
v 1.1 10.6 -2.6
v 1 10.5 -2.5
v 1 10.5 -2.6
v 1.1 10.5 -2.6
v 1.1 10.5 -2.5
v 1 10.6 -2.5
v 1 10.5 -2.5
v 1.1 10.5 -2.5
v 1.1 10.6 -2.5
v 1.1 10.6 -2.6
v 1.1 10.5 -2.6
v 1 10.5 -2.6
v 1 10.6 -2.6
v 2 10.6 -2.6
v 2 10.5 -2.6
v 2 10.5 -2.5
v 2 10.6 -2.5
v 2 10.5 -2.5
v 2 10.5 -2.6
v 2.1 10.5 -2.6
v 2.1 10.5 -2.5
v 2 10.6 -2.5
v 2 10.5 -2.5
v 2.1 10.5 -2.5
v 2.1 10.6 -2.5
v 2.1 10.6 -2.6
v 2.1 10.5 -2.6
v 2 10.5 -2.6
v 2 10.6 -2.6
v 2.1 10.6 -2.5
v 2.1 10.5 -2.5
v 2.2 10.5 -2.5
v 2.2 10.6 -2.5
v 2.2 10.6 -2.6
v 2.2 10.5 -2.6
v 2.1 10.5 -2.6
v 2.1 10.6 -2.6
v 2.2 10.6 -2.5
v 2.2 10.5 -2.5
v 2.3 10.5 -2.5
v 2.3 10.6 -2.5
v 2.3 10.6 -2.6
v 2.3 10.5 -2.6
v 2.2 10.5 -2.6
v 2.2 10.6 -2.6
v 2.4 10.6 -2.5
v 2.4 10.5 -2.5
v 2.4 10.5 -2.6
v 2.4 10.6 -2.6
v 2.3 10.6 -2.6
v 2.3 10.6 -2.5
v 2.4 10.6 -2.5
v 2.4 10.6 -2.6
v 2.3 10.6 -2.5
v 2.3 10.5 -2.5
v 2.4 10.5 -2.5
v 2.4 10.6 -2.5
v 2.4 10.6 -2.6
v 2.4 10.5 -2.6
v 2.3 10.5 -2.6
v 2.3 10.6 -2.6
v 0.8 10.5 -2.6
v 0.8 10.4 -2.6
v 0.8 10.4 -2.5
v 0.8 10.5 -2.5
v 0.8 10.5 -2.5
v 0.8 10.4 -2.5
v 0.9 10.4 -2.5
v 0.9 10.5 -2.5
v 0.9 10.5 -2.6
v 0.9 10.4 -2.6
v 0.8 10.4 -2.6
v 0.8 10.5 -2.6
v 1 10.5 -2.5
v 1 10.4 -2.5
v 1 10.4 -2.6
v 1 10.5 -2.6
v 0.9 10.5 -2.5
v 0.9 10.4 -2.5
v 1 10.4 -2.5
v 1 10.5 -2.5
v 1 10.5 -2.6
v 1 10.4 -2.6
v 0.9 10.4 -2.6
v 0.9 10.5 -2.6
v 2.1 10.5 -2.6
v 2.1 10.4 -2.6
v 2.1 10.4 -2.5
v 2.1 10.5 -2.5
v 2.1 10.4 -2.5
v 2.1 10.4 -2.6
v 2.2 10.4 -2.6
v 2.2 10.4 -2.5
v 2.1 10.5 -2.5
v 2.1 10.4 -2.5
v 2.2 10.4 -2.5
v 2.2 10.5 -2.5
v 2.2 10.5 -2.6
v 2.2 10.4 -2.6
v 2.1 10.4 -2.6
v 2.1 10.5 -2.6
v 2.2 10.5 -2.5
v 2.2 10.4 -2.5
v 2.3 10.4 -2.5
v 2.3 10.5 -2.5
v 2.3 10.5 -2.6
v 2.3 10.4 -2.6
v 2.2 10.4 -2.6
v 2.2 10.5 -2.6
v 2.4 10.5 -2.5
v 2.4 10.4 -2.5
v 2.4 10.4 -2.6
v 2.4 10.5 -2.6
v 2.3 10.5 -2.5
v 2.3 10.4 -2.5
v 2.4 10.4 -2.5
v 2.4 10.5 -2.5
v 2.4 10.5 -2.6
v 2.4 10.4 -2.6
v 2.3 10.4 -2.6
v 2.3 10.5 -2.6
v 0.8 10.4 -2.6
v 0.8 10.3 -2.6
v 0.8 10.3 -2.5
v 0.8 10.4 -2.5
v 0.8 10.4 -2.5
v 0.8 10.3 -2.5
v 0.9 10.3 -2.5
v 0.9 10.4 -2.5
v 0.9 10.4 -2.6
v 0.9 10.3 -2.6
v 0.8 10.3 -2.6
v 0.8 10.4 -2.6
v 1 10.4 -2.5
v 1 10.3 -2.5
v 1 10.3 -2.6
v 1 10.4 -2.6
v 0.9 10.4 -2.5
v 0.9 10.3 -2.5
v 1 10.3 -2.5
v 1 10.4 -2.5
v 1 10.4 -2.6
v 1 10.3 -2.6
v 0.9 10.3 -2.6
v 0.9 10.4 -2.6
v 2.2 10.4 -2.6
v 2.2 10.3 -2.6
v 2.2 10.3 -2.5
v 2.2 10.4 -2.5
v 2.2 10.4 -2.5
v 2.2 10.3 -2.5
v 2.3 10.3 -2.5
v 2.3 10.4 -2.5
v 2.3 10.4 -2.6
v 2.3 10.3 -2.6
v 2.2 10.3 -2.6
v 2.2 10.4 -2.6
v 2.3 10.4 -2.5
v 2.3 10.3 -2.5
v 2.4 10.3 -2.5
v 2.4 10.4 -2.5
v 2.4 10.4 -2.6
v 2.4 10.3 -2.6
v 2.3 10.3 -2.6
v 2.3 10.4 -2.6
v 2.5 10.4 -2.5
v 2.5 10.3 -2.5
v 2.5 10.3 -2.6
v 2.5 10.4 -2.6
v 2.4 10.4 -2.6
v 2.4 10.4 -2.5
v 2.5 10.4 -2.5
v 2.5 10.4 -2.6
v 2.4 10.4 -2.5
v 2.4 10.3 -2.5
v 2.5 10.3 -2.5
v 2.5 10.4 -2.5
v 2.5 10.4 -2.6
v 2.5 10.3 -2.6
v 2.4 10.3 -2.6
v 2.4 10.4 -2.6
v 0.7 10.3 -2.6
v 0.7 10.2 -2.6
v 0.7 10.2 -2.5
v 0.7 10.3 -2.5
v 0.7 10.3 -2.6
v 0.7 10.3 -2.5
v 0.8 10.3 -2.5
v 0.8 10.3 -2.6
v 0.7 10.3 -2.5
v 0.7 10.2 -2.5
v 0.8 10.2 -2.5
v 0.8 10.3 -2.5
v 0.8 10.3 -2.6
v 0.8 10.2 -2.6
v 0.7 10.2 -2.6
v 0.7 10.3 -2.6
v 0.8 10.3 -2.5
v 0.8 10.2 -2.5
v 0.9 10.2 -2.5
v 0.9 10.3 -2.5
v 0.9 10.3 -2.6
v 0.9 10.2 -2.6
v 0.8 10.2 -2.6
v 0.8 10.3 -2.6
v 1 10.3 -2.5
v 1 10.2 -2.5
v 1 10.2 -2.6
v 1 10.3 -2.6
v 0.9 10.3 -2.5
v 0.9 10.2 -2.5
v 1 10.2 -2.5
v 1 10.3 -2.5
v 1 10.3 -2.6
v 1 10.2 -2.6
v 0.9 10.2 -2.6
v 0.9 10.3 -2.6
v 2.2 10.3 -2.6
v 2.2 10.2 -2.6
v 2.2 10.2 -2.5
v 2.2 10.3 -2.5
v 2.2 10.2 -2.5
v 2.2 10.2 -2.6
v 2.3 10.2 -2.6
v 2.3 10.2 -2.5
v 2.2 10.3 -2.5
v 2.2 10.2 -2.5
v 2.3 10.2 -2.5
v 2.3 10.3 -2.5
v 2.3 10.3 -2.6
v 2.3 10.2 -2.6
v 2.2 10.2 -2.6
v 2.2 10.3 -2.6
v 2.3 10.3 -2.5
v 2.3 10.2 -2.5
v 2.4 10.2 -2.5
v 2.4 10.3 -2.5
v 2.4 10.3 -2.6
v 2.4 10.2 -2.6
v 2.3 10.2 -2.6
v 2.3 10.3 -2.6
v 2.5 10.3 -2.5
v 2.5 10.2 -2.5
v 2.5 10.2 -2.6
v 2.5 10.3 -2.6
v 2.4 10.3 -2.5
v 2.4 10.2 -2.5
v 2.5 10.2 -2.5
v 2.5 10.3 -2.5
v 2.5 10.3 -2.6
v 2.5 10.2 -2.6
v 2.4 10.2 -2.6
v 2.4 10.3 -2.6
v 0.7 10.2 -2.6
v 0.7 10.1 -2.6
v 0.7 10.1 -2.5
v 0.7 10.2 -2.5
v 0.7 10.2 -2.5
v 0.7 10.1 -2.5
v 0.8 10.1 -2.5
v 0.8 10.2 -2.5
v 0.8 10.2 -2.6
v 0.8 10.1 -2.6
v 0.7 10.1 -2.6
v 0.7 10.2 -2.6
v 0.8 10.2 -2.5
v 0.8 10.1 -2.5
v 0.9 10.1 -2.5
v 0.9 10.2 -2.5
v 0.9 10.2 -2.6
v 0.9 10.1 -2.6
v 0.8 10.1 -2.6
v 0.8 10.2 -2.6
v 1 10.2 -2.5
v 1 10.1 -2.5
v 1 10.1 -2.6
v 1 10.2 -2.6
v 0.9 10.2 -2.5
v 0.9 10.1 -2.5
v 1 10.1 -2.5
v 1 10.2 -2.5
v 1 10.2 -2.6
v 1 10.1 -2.6
v 0.9 10.1 -2.6
v 0.9 10.2 -2.6
v 2.3 10.2 -2.6
v 2.3 10.1 -2.6
v 2.3 10.1 -2.5
v 2.3 10.2 -2.5
v 2.3 10.2 -2.5
v 2.3 10.1 -2.5
v 2.4 10.1 -2.5
v 2.4 10.2 -2.5
v 2.4 10.2 -2.6
v 2.4 10.1 -2.6
v 2.3 10.1 -2.6
v 2.3 10.2 -2.6
v 2.4 10.2 -2.5
v 2.4 10.1 -2.5
v 2.5 10.1 -2.5
v 2.5 10.2 -2.5
v 2.5 10.2 -2.6
v 2.5 10.1 -2.6
v 2.4 10.1 -2.6
v 2.4 10.2 -2.6
v 2.6 10.2 -2.5
v 2.6 10.1 -2.5
v 2.6 10.1 -2.6
v 2.6 10.2 -2.6
v 2.5 10.2 -2.6
v 2.5 10.2 -2.5
v 2.6 10.2 -2.5
v 2.6 10.2 -2.6
v 2.5 10.2 -2.5
v 2.5 10.1 -2.5
v 2.6 10.1 -2.5
v 2.6 10.2 -2.5
v 2.6 10.2 -2.6
v 2.6 10.1 -2.6
v 2.5 10.1 -2.6
v 2.5 10.2 -2.6
v 0.7 10.1 -2.6
v 0.7 10 -2.6
v 0.7 10 -2.5
v 0.7 10.1 -2.5
v 0.7 10 -2.5
v 0.7 10 -2.6
v 0.8 10 -2.6
v 0.8 10 -2.5
v 0.7 10.1 -2.5
v 0.7 10 -2.5
v 0.8 10 -2.5
v 0.8 10.1 -2.5
v 0.8 10.1 -2.6
v 0.8 10 -2.6
v 0.7 10 -2.6
v 0.7 10.1 -2.6
v 0.8 10.1 -2.5
v 0.8 10 -2.5
v 0.9 10 -2.5
v 0.9 10.1 -2.5
v 0.9 10.1 -2.6
v 0.9 10 -2.6
v 0.8 10 -2.6
v 0.8 10.1 -2.6
v 1 10.1 -2.5
v 1 10 -2.5
v 1 10 -2.6
v 1 10.1 -2.6
v 0.9 10.1 -2.5
v 0.9 10 -2.5
v 1 10 -2.5
v 1 10.1 -2.5
v 1 10.1 -2.6
v 1 10 -2.6
v 0.9 10 -2.6
v 0.9 10.1 -2.6
v 2.3 10.1 -2.6
v 2.3 10 -2.6
v 2.3 10 -2.5
v 2.3 10.1 -2.5
v 2.3 10.1 -2.5
v 2.3 10 -2.5
v 2.4 10 -2.5
v 2.4 10.1 -2.5
v 2.4 10.1 -2.6
v 2.4 10 -2.6
v 2.3 10 -2.6
v 2.3 10.1 -2.6
v 2.4 10.1 -2.5
v 2.4 10 -2.5
v 2.5 10 -2.5
v 2.5 10.1 -2.5
v 2.5 10.1 -2.6
v 2.5 10 -2.6
v 2.4 10 -2.6
v 2.4 10.1 -2.6
v 2.6 10.1 -2.5
v 2.6 10 -2.5
v 2.6 10 -2.6
v 2.6 10.1 -2.6
v 2.5 10.1 -2.5
v 2.5 10 -2.5
v 2.6 10 -2.5
v 2.6 10.1 -2.5
v 2.6 10.1 -2.6
v 2.6 10 -2.6
v 2.5 10 -2.6
v 2.5 10.1 -2.6
v 0.8 10 -2.6
v 0.8 9.9 -2.6
v 0.8 9.9 -2.5
v 0.8 10 -2.5
v 0.8 9.9 -2.5
v 0.8 9.9 -2.6
v 0.9 9.9 -2.6
v 0.9 9.9 -2.5
v 0.8 10 -2.5
v 0.8 9.9 -2.5
v 0.9 9.9 -2.5
v 0.9 10 -2.5
v 0.9 10 -2.6
v 0.9 9.9 -2.6
v 0.8 9.9 -2.6
v 0.8 10 -2.6
v 0.9 10 -2.5
v 0.9 9.9 -2.5
v 1 9.9 -2.5
v 1 10 -2.5
v 1 10 -2.6
v 1 9.9 -2.6
v 0.9 9.9 -2.6
v 0.9 10 -2.6
v 1.1 10 -2.5
v 1.1 9.9 -2.5
v 1.1 9.9 -2.6
v 1.1 10 -2.6
v 1 10 -2.6
v 1 10 -2.5
v 1.1 10 -2.5
v 1.1 10 -2.6
v 1 10 -2.5
v 1 9.9 -2.5
v 1.1 9.9 -2.5
v 1.1 10 -2.5
v 1.1 10 -2.6
v 1.1 9.9 -2.6
v 1 9.9 -2.6
v 1 10 -2.6
v 2.3 10 -2.6
v 2.3 9.9 -2.6
v 2.3 9.9 -2.5
v 2.3 10 -2.5
v 2.3 10 -2.5
v 2.3 9.9 -2.5
v 2.4 9.9 -2.5
v 2.4 10 -2.5
v 2.4 10 -2.6
v 2.4 9.9 -2.6
v 2.3 9.9 -2.6
v 2.3 10 -2.6
v 2.4 10 -2.5
v 2.4 9.9 -2.5
v 2.5 9.9 -2.5
v 2.5 10 -2.5
v 2.5 10 -2.6
v 2.5 9.9 -2.6
v 2.4 9.9 -2.6
v 2.4 10 -2.6
v 2.6 10 -2.5
v 2.6 9.9 -2.5
v 2.6 9.9 -2.6
v 2.6 10 -2.6
v 2.5 10 -2.5
v 2.5 9.9 -2.5
v 2.6 9.9 -2.5
v 2.6 10 -2.5
v 2.6 10 -2.6
v 2.6 9.9 -2.6
v 2.5 9.9 -2.6
v 2.5 10 -2.6
v 0.9 9.9 -2.6
v 0.9 9.8 -2.6
v 0.9 9.8 -2.5
v 0.9 9.9 -2.5
v 0.9 9.8 -2.5
v 0.9 9.8 -2.6
v 1 9.8 -2.6
v 1 9.8 -2.5
v 0.9 9.9 -2.5
v 0.9 9.8 -2.5
v 1 9.8 -2.5
v 1 9.9 -2.5
v 1 9.9 -2.6
v 1 9.8 -2.6
v 0.9 9.8 -2.6
v 0.9 9.9 -2.6
v 1 9.9 -2.5
v 1 9.8 -2.5
v 1.1 9.8 -2.5
v 1.1 9.9 -2.5
v 1.1 9.9 -2.6
v 1.1 9.8 -2.6
v 1 9.8 -2.6
v 1 9.9 -2.6
v 1.2 9.9 -2.5
v 1.2 9.8 -2.5
v 1.2 9.8 -2.6
v 1.2 9.9 -2.6
v 1.1 9.9 -2.6
v 1.1 9.9 -2.5
v 1.2 9.9 -2.5
v 1.2 9.9 -2.6
v 1.1 9.8 -2.5
v 1.1 9.8 -2.6
v 1.2 9.8 -2.6
v 1.2 9.8 -2.5
v 1.1 9.9 -2.5
v 1.1 9.8 -2.5
v 1.2 9.8 -2.5
v 1.2 9.9 -2.5
v 1.2 9.9 -2.6
v 1.2 9.8 -2.6
v 1.1 9.8 -2.6
v 1.1 9.9 -2.6
v 2.3 9.9 -2.6
v 2.3 9.8 -2.6
v 2.3 9.8 -2.5
v 2.3 9.9 -2.5
v 2.3 9.9 -2.5
v 2.3 9.8 -2.5
v 2.4 9.8 -2.5
v 2.4 9.9 -2.5
v 2.4 9.9 -2.6
v 2.4 9.8 -2.6
v 2.3 9.8 -2.6
v 2.3 9.9 -2.6
v 2.4 9.9 -2.5
v 2.4 9.8 -2.5
v 2.5 9.8 -2.5
v 2.5 9.9 -2.5
v 2.5 9.9 -2.6
v 2.5 9.8 -2.6
v 2.4 9.8 -2.6
v 2.4 9.9 -2.6
v 2.6 9.9 -2.5
v 2.6 9.8 -2.5
v 2.6 9.8 -2.6
v 2.6 9.9 -2.6
v 2.5 9.9 -2.5
v 2.5 9.8 -2.5
v 2.6 9.8 -2.5
v 2.6 9.9 -2.5
v 2.6 9.9 -2.6
v 2.6 9.8 -2.6
v 2.5 9.8 -2.6
v 2.5 9.9 -2.6
v 1 9.8 -2.6
v 1 9.7 -2.6
v 1 9.7 -2.5
v 1 9.8 -2.5
v 1.1 9.8 -2.5
v 1.1 9.7 -2.5
v 1.1 9.7 -2.6
v 1.1 9.8 -2.6
v 1 9.7 -2.5
v 1 9.7 -2.6
v 1.1 9.7 -2.6
v 1.1 9.7 -2.5
v 1 9.8 -2.5
v 1 9.7 -2.5
v 1.1 9.7 -2.5
v 1.1 9.8 -2.5
v 1.1 9.8 -2.6
v 1.1 9.7 -2.6
v 1 9.7 -2.6
v 1 9.8 -2.6
v 2.2 9.8 -2.6
v 2.2 9.7 -2.6
v 2.2 9.7 -2.5
v 2.2 9.8 -2.5
v 2.2 9.8 -2.6
v 2.2 9.8 -2.5
v 2.3 9.8 -2.5
v 2.3 9.8 -2.6
v 2.2 9.8 -2.5
v 2.2 9.7 -2.5
v 2.3 9.7 -2.5
v 2.3 9.8 -2.5
v 2.3 9.8 -2.6
v 2.3 9.7 -2.6
v 2.2 9.7 -2.6
v 2.2 9.8 -2.6
v 2.3 9.8 -2.5
v 2.3 9.7 -2.5
v 2.4 9.7 -2.5
v 2.4 9.8 -2.5
v 2.4 9.8 -2.6
v 2.4 9.7 -2.6
v 2.3 9.7 -2.6
v 2.3 9.8 -2.6
v 2.4 9.8 -2.5
v 2.4 9.7 -2.5
v 2.5 9.7 -2.5
v 2.5 9.8 -2.5
v 2.5 9.8 -2.6
v 2.5 9.7 -2.6
v 2.4 9.7 -2.6
v 2.4 9.8 -2.6
v 2.6 9.8 -2.5
v 2.6 9.7 -2.5
v 2.6 9.7 -2.6
v 2.6 9.8 -2.6
v 2.5 9.8 -2.5
v 2.5 9.7 -2.5
v 2.6 9.7 -2.5
v 2.6 9.8 -2.5
v 2.6 9.8 -2.6
v 2.6 9.7 -2.6
v 2.5 9.7 -2.6
v 2.5 9.8 -2.6
v 2.2 9.7 -2.6
v 2.2 9.6 -2.6
v 2.2 9.6 -2.5
v 2.2 9.7 -2.5
v 2.2 9.7 -2.5
v 2.2 9.6 -2.5
v 2.3 9.6 -2.5
v 2.3 9.7 -2.5
v 2.3 9.7 -2.6
v 2.3 9.6 -2.6
v 2.2 9.6 -2.6
v 2.2 9.7 -2.6
v 2.3 9.7 -2.5
v 2.3 9.6 -2.5
v 2.4 9.6 -2.5
v 2.4 9.7 -2.5
v 2.4 9.7 -2.6
v 2.4 9.6 -2.6
v 2.3 9.6 -2.6
v 2.3 9.7 -2.6
v 2.4 9.7 -2.5
v 2.4 9.6 -2.5
v 2.5 9.6 -2.5
v 2.5 9.7 -2.5
v 2.5 9.7 -2.6
v 2.5 9.6 -2.6
v 2.4 9.6 -2.6
v 2.4 9.7 -2.6
v 2.6 9.7 -2.5
v 2.6 9.6 -2.5
v 2.6 9.6 -2.6
v 2.6 9.7 -2.6
v 2.5 9.6 -2.5
v 2.5 9.6 -2.6
v 2.6 9.6 -2.6
v 2.6 9.6 -2.5
v 2.5 9.7 -2.5
v 2.5 9.6 -2.5
v 2.6 9.6 -2.5
v 2.6 9.7 -2.5
v 2.6 9.7 -2.6
v 2.6 9.6 -2.6
v 2.5 9.6 -2.6
v 2.5 9.7 -2.6
v 2.2 9.6 -2.6
v 2.2 9.5 -2.6
v 2.2 9.5 -2.5
v 2.2 9.6 -2.5
v 2.2 9.5 -2.5
v 2.2 9.5 -2.6
v 2.3 9.5 -2.6
v 2.3 9.5 -2.5
v 2.2 9.6 -2.5
v 2.2 9.5 -2.5
v 2.3 9.5 -2.5
v 2.3 9.6 -2.5
v 2.3 9.6 -2.6
v 2.3 9.5 -2.6
v 2.2 9.5 -2.6
v 2.2 9.6 -2.6
v 2.3 9.6 -2.5
v 2.3 9.5 -2.5
v 2.4 9.5 -2.5
v 2.4 9.6 -2.5
v 2.4 9.6 -2.6
v 2.4 9.5 -2.6
v 2.3 9.5 -2.6
v 2.3 9.6 -2.6
v 2.5 9.6 -2.5
v 2.5 9.5 -2.5
v 2.5 9.5 -2.6
v 2.5 9.6 -2.6
v 2.4 9.6 -2.5
v 2.4 9.5 -2.5
v 2.5 9.5 -2.5
v 2.5 9.6 -2.5
v 2.5 9.6 -2.6
v 2.5 9.5 -2.6
v 2.4 9.5 -2.6
v 2.4 9.6 -2.6
v 2.3 9.5 -2.6
v 2.3 9.4 -2.6
v 2.3 9.4 -2.5
v 2.3 9.5 -2.5
v 2.3 9.5 -2.5
v 2.3 9.4 -2.5
v 2.4 9.4 -2.5
v 2.4 9.5 -2.5
v 2.4 9.5 -2.6
v 2.4 9.4 -2.6
v 2.3 9.4 -2.6
v 2.3 9.5 -2.6
v 2.5 9.5 -2.5
v 2.5 9.4 -2.5
v 2.5 9.4 -2.6
v 2.5 9.5 -2.6
v 2.4 9.4 -2.5
v 2.4 9.4 -2.6
v 2.5 9.4 -2.6
v 2.5 9.4 -2.5
v 2.4 9.5 -2.5
v 2.4 9.4 -2.5
v 2.5 9.4 -2.5
v 2.5 9.5 -2.5
v 2.5 9.5 -2.6
v 2.5 9.4 -2.6
v 2.4 9.4 -2.6
v 2.4 9.5 -2.6
v 2.3 9.4 -2.6
v 2.3 9.3 -2.6
v 2.3 9.3 -2.5
v 2.3 9.4 -2.5
v 2.4 9.4 -2.5
v 2.4 9.3 -2.5
v 2.4 9.3 -2.6
v 2.4 9.4 -2.6
v 2.3 9.3 -2.5
v 2.3 9.3 -2.6
v 2.4 9.3 -2.6
v 2.4 9.3 -2.5
v 2.3 9.4 -2.5
v 2.3 9.3 -2.5
v 2.4 9.3 -2.5
v 2.4 9.4 -2.5
v 2.4 9.4 -2.6
v 2.4 9.3 -2.6
v 2.3 9.3 -2.6
v 2.3 9.4 -2.6

# faces
f 1/1/1 2/1/1 3/1/1 4/1/1
f 5/1/2 6/1/2 7/1/2 8/1/2
f 9/1/3 10/1/3 11/1/3 12/1/3
f 13/1/5 14/1/5 15/1/5 16/1/5
f 17/1/6 18/1/6 19/1/6 20/1/6
f 21/1/1 22/1/1 23/1/1 24/1/1
f 25/1/3 26/1/3 27/1/3 28/1/3
f 29/1/5 30/1/5 31/1/5 32/1/5
f 33/1/6 34/1/6 35/1/6 36/1/6
f 37/1/3 38/1/3 39/1/3 40/1/3
f 41/1/5 42/1/5 43/1/5 44/1/5
f 45/1/6 46/1/6 47/1/6 48/1/6
f 49/1/3 50/1/3 51/1/3 52/1/3
f 53/1/5 54/1/5 55/1/5 56/1/5
f 57/1/6 58/1/6 59/1/6 60/1/6
f 61/2/3 62/2/3 63/2/3 64/2/3
f 65/2/5 66/2/5 67/2/5 68/2/5
f 69/2/6 70/2/6 71/2/6 72/2/6
f 73/2/5 74/2/5 75/2/5 76/2/5
f 77/2/6 78/2/6 79/2/6 80/2/6
f 81/2/3 82/2/3 83/2/3 84/2/3
f 85/2/5 86/2/5 87/2/5 88/2/5
f 89/2/6 90/2/6 91/2/6 92/2/6
f 93/1/2 94/1/2 95/1/2 96/1/2
f 97/1/3 98/1/3 99/1/3 100/1/3
f 101/1/5 102/1/5 103/1/5 104/1/5
f 105/1/6 106/1/6 107/1/6 108/1/6
f 109/1/1 110/1/1 111/1/1 112/1/1
f 113/1/2 114/1/2 115/1/2 116/1/2
f 117/1/3 118/1/3 119/1/3 120/1/3
f 121/1/5 122/1/5 123/1/5 124/1/5
f 125/1/6 126/1/6 127/1/6 128/1/6
f 129/1/1 130/1/1 131/1/1 132/1/1
f 133/1/3 134/1/3 135/1/3 136/1/3
f 137/1/5 138/1/5 139/1/5 140/1/5
f 141/1/6 142/1/6 143/1/6 144/1/6
f 145/2/3 146/2/3 147/2/3 148/2/3
f 149/2/5 150/2/5 151/2/5 152/2/5
f 153/2/6 154/2/6 155/2/6 156/2/6
f 157/2/5 158/2/5 159/2/5 160/2/5
f 161/2/6 162/2/6 163/2/6 164/2/6
f 165/2/5 166/2/5 167/2/5 168/2/5
f 169/2/6 170/2/6 171/2/6 172/2/6
f 173/1/4 174/1/4 175/1/4 176/1/4
f 177/1/5 178/1/5 179/1/5 180/1/5
f 181/1/6 182/1/6 183/1/6 184/1/6
f 185/1/4 186/1/4 187/1/4 188/1/4
f 189/1/5 190/1/5 191/1/5 192/1/5
f 193/1/6 194/1/6 195/1/6 196/1/6
f 197/1/4 198/1/4 199/1/4 200/1/4
f 201/1/5 202/1/5 203/1/5 204/1/5
f 205/1/6 206/1/6 207/1/6 208/1/6
f 209/1/4 210/1/4 211/1/4 212/1/4
f 213/1/5 214/1/5 215/1/5 216/1/5
f 217/1/6 218/1/6 219/1/6 220/1/6
f 221/2/4 222/2/4 223/2/4 224/2/4
f 225/2/5 226/2/5 227/2/5 228/2/5
f 229/2/6 230/2/6 231/2/6 232/2/6
f 233/1/3 234/1/3 235/1/3 236/1/3
f 237/1/4 238/1/4 239/1/4 240/1/4
f 241/1/5 242/1/5 243/1/5 244/1/5
f 245/1/6 246/1/6 247/1/6 248/1/6
f 249/2/5 250/2/5 251/2/5 252/2/5
f 253/2/6 254/2/6 255/2/6 256/2/6
f 257/2/3 258/2/3 259/2/3 260/2/3
f 261/2/5 262/2/5 263/2/5 264/2/5
f 265/2/6 266/2/6 267/2/6 268/2/6
f 269/1/2 270/1/2 271/1/2 272/1/2
f 273/1/3 274/1/3 275/1/3 276/1/3
f 277/1/5 278/1/5 279/1/5 280/1/5
f 281/1/6 282/1/6 283/1/6 284/1/6
f 285/2/1 286/2/1 287/2/1 288/2/1
f 289/2/5 290/2/5 291/2/5 292/2/5
f 293/2/6 294/2/6 295/2/6 296/2/6
f 297/2/5 298/2/5 299/2/5 300/2/5
f 301/2/6 302/2/6 303/2/6 304/2/6
f 305/1/4 306/1/4 307/1/4 308/1/4
f 309/1/5 310/1/5 311/1/5 312/1/5
f 313/1/6 314/1/6 315/1/6 316/1/6
f 317/1/2 318/1/2 319/1/2 320/1/2
f 321/1/4 322/1/4 323/1/4 324/1/4
f 325/1/5 326/1/5 327/1/5 328/1/5
f 329/1/6 330/1/6 331/1/6 332/1/6
f 333/1/1 334/1/1 335/1/1 336/1/1
f 337/1/4 338/1/4 339/1/4 340/1/4
f 341/1/5 342/1/5 343/1/5 344/1/5
f 345/1/6 346/1/6 347/1/6 348/1/6
f 349/2/5 350/2/5 351/2/5 352/2/5
f 353/2/6 354/2/6 355/2/6 356/2/6
f 357/2/5 358/2/5 359/2/5 360/2/5
f 361/2/6 362/2/6 363/2/6 364/2/6
f 365/1/2 366/1/2 367/1/2 368/1/2
f 369/1/3 370/1/3 371/1/3 372/1/3
f 373/1/5 374/1/5 375/1/5 376/1/5
f 377/1/6 378/1/6 379/1/6 380/1/6
f 381/1/1 382/1/1 383/1/1 384/1/1
f 385/1/3 386/1/3 387/1/3 388/1/3
f 389/1/5 390/1/5 391/1/5 392/1/5
f 393/1/6 394/1/6 395/1/6 396/1/6
f 397/2/5 398/2/5 399/2/5 400/2/5
f 401/2/6 402/2/6 403/2/6 404/2/6
f 405/1/2 406/1/2 407/1/2 408/1/2
f 409/1/4 410/1/4 411/1/4 412/1/4
f 413/1/5 414/1/5 415/1/5 416/1/5
f 417/1/6 418/1/6 419/1/6 420/1/6
f 421/1/1 422/1/1 423/1/1 424/1/1
f 425/1/4 426/1/4 427/1/4 428/1/4
f 429/1/5 430/1/5 431/1/5 432/1/5
f 433/1/6 434/1/6 435/1/6 436/1/6
f 437/2/5 438/2/5 439/2/5 440/2/5
f 441/2/6 442/2/6 443/2/6 444/2/6
f 445/2/5 446/2/5 447/2/5 448/2/5
f 449/2/6 450/2/6 451/2/6 452/2/6
f 453/1/2 454/1/2 455/1/2 456/1/2
f 457/1/3 458/1/3 459/1/3 460/1/3
f 461/1/5 462/1/5 463/1/5 464/1/5
f 465/1/6 466/1/6 467/1/6 468/1/6
f 469/1/1 470/1/1 471/1/1 472/1/1
f 473/1/5 474/1/5 475/1/5 476/1/5
f 477/1/6 478/1/6 479/1/6 480/1/6
f 481/1/2 482/1/2 483/1/2 484/1/2
f 485/1/5 486/1/5 487/1/5 488/1/5
f 489/1/6 490/1/6 491/1/6 492/1/6
f 493/1/1 494/1/1 495/1/1 496/1/1
f 497/1/4 498/1/4 499/1/4 500/1/4
f 501/1/5 502/1/5 503/1/5 504/1/5
f 505/1/6 506/1/6 507/1/6 508/1/6
f 509/2/5 510/2/5 511/2/5 512/2/5
f 513/2/6 514/2/6 515/2/6 516/2/6
f 517/2/2 518/2/2 519/2/2 520/2/2
f 521/2/5 522/2/5 523/2/5 524/2/5
f 525/2/6 526/2/6 527/2/6 528/2/6
f 529/2/1 530/2/1 531/2/1 532/2/1
f 533/2/5 534/2/5 535/2/5 536/2/5
f 537/2/6 538/2/6 539/2/6 540/2/6
f 541/1/2 542/1/2 543/1/2 544/1/2
f 545/1/5 546/1/5 547/1/5 548/1/5
f 549/1/6 550/1/6 551/1/6 552/1/6
f 553/2/1 554/2/1 555/2/1 556/2/1
f 557/2/5 558/2/5 559/2/5 560/2/5
f 561/2/6 562/2/6 563/2/6 564/2/6
f 565/2/5 566/2/5 567/2/5 568/2/5
f 569/2/6 570/2/6 571/2/6 572/2/6
f 573/1/2 574/1/2 575/1/2 576/1/2
f 577/1/3 578/1/3 579/1/3 580/1/3
f 581/1/5 582/1/5 583/1/5 584/1/5
f 585/1/6 586/1/6 587/1/6 588/1/6
f 589/1/1 590/1/1 591/1/1 592/1/1
f 593/1/3 594/1/3 595/1/3 596/1/3
f 597/1/5 598/1/5 599/1/5 600/1/5
f 601/1/6 602/1/6 603/1/6 604/1/6
f 605/2/5 606/2/5 607/2/5 608/2/5
f 609/2/6 610/2/6 611/2/6 612/2/6
f 613/1/2 614/1/2 615/1/2 616/1/2
f 617/1/5 618/1/5 619/1/5 620/1/5
f 621/1/6 622/1/6 623/1/6 624/1/6
f 625/1/1 626/1/1 627/1/1 628/1/1
f 629/1/4 630/1/4 631/1/4 632/1/4
f 633/1/5 634/1/5 635/1/5 636/1/5
f 637/1/6 638/1/6 639/1/6 640/1/6
f 641/2/5 642/2/5 643/2/5 644/2/5
f 645/2/6 646/2/6 647/2/6 648/2/6
f 649/2/2 650/2/2 651/2/2 652/2/2
f 653/2/5 654/2/5 655/2/5 656/2/5
f 657/2/6 658/2/6 659/2/6 660/2/6
f 661/1/1 662/1/1 663/1/1 664/1/1
f 665/1/5 666/1/5 667/1/5 668/1/5
f 669/1/6 670/1/6 671/1/6 672/1/6
f 673/2/5 674/2/5 675/2/5 676/2/5
f 677/2/6 678/2/6 679/2/6 680/2/6
f 681/1/2 682/1/2 683/1/2 684/1/2
f 685/1/5 686/1/5 687/1/5 688/1/5
f 689/1/6 690/1/6 691/1/6 692/1/6
f 693/2/1 694/2/1 695/2/1 696/2/1
f 697/2/5 698/2/5 699/2/5 700/2/5
f 701/2/6 702/2/6 703/2/6 704/2/6
f 705/2/5 706/2/5 707/2/5 708/2/5
f 709/2/6 710/2/6 711/2/6 712/2/6
f 713/1/2 714/1/2 715/1/2 716/1/2
f 717/1/3 718/1/3 719/1/3 720/1/3
f 721/1/5 722/1/5 723/1/5 724/1/5
f 725/1/6 726/1/6 727/1/6 728/1/6
f 729/1/1 730/1/1 731/1/1 732/1/1
f 733/1/4 734/1/4 735/1/4 736/1/4
f 737/1/5 738/1/5 739/1/5 740/1/5
f 741/1/6 742/1/6 743/1/6 744/1/6
f 745/2/5 746/2/5 747/2/5 748/2/5
f 749/2/6 750/2/6 751/2/6 752/2/6
f 753/1/2 754/1/2 755/1/2 756/1/2
f 757/1/5 758/1/5 759/1/5 760/1/5
f 761/1/6 762/1/6 763/1/6 764/1/6
f 765/1/1 766/1/1 767/1/1 768/1/1
f 769/1/5 770/1/5 771/1/5 772/1/5
f 773/1/6 774/1/6 775/1/6 776/1/6
f 777/2/5 778/2/5 779/2/5 780/2/5
f 781/2/6 782/2/6 783/2/6 784/2/6
f 785/1/2 786/1/2 787/1/2 788/1/2
f 789/1/5 790/1/5 791/1/5 792/1/5
f 793/1/6 794/1/6 795/1/6 796/1/6
f 797/2/1 798/2/1 799/2/1 800/2/1
f 801/2/4 802/2/4 803/2/4 804/2/4
f 805/2/5 806/2/5 807/2/5 808/2/5
f 809/2/6 810/2/6 811/2/6 812/2/6
f 813/2/5 814/2/5 815/2/5 816/2/5
f 817/2/6 818/2/6 819/2/6 820/2/6
f 821/1/2 822/1/2 823/1/2 824/1/2
f 825/1/3 826/1/3 827/1/3 828/1/3
f 829/1/5 830/1/5 831/1/5 832/1/5
f 833/1/6 834/1/6 835/1/6 836/1/6
f 837/1/1 838/1/1 839/1/1 840/1/1
f 841/1/5 842/1/5 843/1/5 844/1/5
f 845/1/6 846/1/6 847/1/6 848/1/6
f 849/2/5 850/2/5 851/2/5 852/2/5
f 853/2/6 854/2/6 855/2/6 856/2/6
f 857/1/2 858/1/2 859/1/2 860/1/2
f 861/1/5 862/1/5 863/1/5 864/1/5
f 865/1/6 866/1/6 867/1/6 868/1/6
f 869/1/1 870/1/1 871/1/1 872/1/1
f 873/1/4 874/1/4 875/1/4 876/1/4
f 877/1/5 878/1/5 879/1/5 880/1/5
f 881/1/6 882/1/6 883/1/6 884/1/6
f 885/2/5 886/2/5 887/2/5 888/2/5
f 889/2/6 890/2/6 891/2/6 892/2/6
f 893/1/2 894/1/2 895/1/2 896/1/2
f 897/1/3 898/1/3 899/1/3 900/1/3
f 901/1/4 902/1/4 903/1/4 904/1/4
f 905/1/5 906/1/5 907/1/5 908/1/5
f 909/1/6 910/1/6 911/1/6 912/1/6
f 913/2/1 914/2/1 915/2/1 916/2/1
f 917/2/5 918/2/5 919/2/5 920/2/5
f 921/2/6 922/2/6 923/2/6 924/2/6
f 925/2/5 926/2/5 927/2/5 928/2/5
f 929/2/6 930/2/6 931/2/6 932/2/6
f 933/1/2 934/1/2 935/1/2 936/1/2
f 937/1/5 938/1/5 939/1/5 940/1/5
f 941/1/6 942/1/6 943/1/6 944/1/6
f 945/1/1 946/1/1 947/1/1 948/1/1
f 949/1/2 950/1/2 951/1/2 952/1/2
f 953/1/4 954/1/4 955/1/4 956/1/4
f 957/1/5 958/1/5 959/1/5 960/1/5
f 961/1/6 962/1/6 963/1/6 964/1/6
f 965/1/1 966/1/1 967/1/1 968/1/1
f 969/1/3 970/1/3 971/1/3 972/1/3
f 973/1/5 974/1/5 975/1/5 976/1/5
f 977/1/6 978/1/6 979/1/6 980/1/6
f 981/2/5 982/2/5 983/2/5 984/2/5
f 985/2/6 986/2/6 987/2/6 988/2/6
f 989/2/5 990/2/5 991/2/5 992/2/5
f 993/2/6 994/2/6 995/2/6 996/2/6
f 997/1/2 998/1/2 999/1/2 1000/1/2
f 1001/1/5 1002/1/5 1003/1/5 1004/1/5
f 1005/1/6 1006/1/6 1007/1/6 1008/1/6
f 1009/1/1 1010/1/1 1011/1/1 1012/1/1
f 1013/1/5 1014/1/5 1015/1/5 1016/1/5
f 1017/1/6 1018/1/6 1019/1/6 1020/1/6
f 1021/2/5 1022/2/5 1023/2/5 1024/2/5
f 1025/2/6 1026/2/6 1027/2/6 1028/2/6
f 1029/2/5 1030/2/5 1031/2/5 1032/2/5
f 1033/2/6 1034/2/6 1035/2/6 1036/2/6
f 1037/1/2 1038/1/2 1039/1/2 1040/1/2
f 1041/1/4 1042/1/4 1043/1/4 1044/1/4
f 1045/1/5 1046/1/5 1047/1/5 1048/1/5
f 1049/1/6 1050/1/6 1051/1/6 1052/1/6
f 1053/1/1 1054/1/1 1055/1/1 1056/1/1
f 1057/1/4 1058/1/4 1059/1/4 1060/1/4
f 1061/1/5 1062/1/5 1063/1/5 1064/1/5
f 1065/1/6 1066/1/6 1067/1/6 1068/1/6
f 1069/2/5 1070/2/5 1071/2/5 1072/2/5
f 1073/2/6 1074/2/6 1075/2/6 1076/2/6
f 1077/1/2 1078/1/2 1079/1/2 1080/1/2
f 1081/1/5 1082/1/5 1083/1/5 1084/1/5
f 1085/1/6 1086/1/6 1087/1/6 1088/1/6
f 1089/2/1 1090/2/1 1091/2/1 1092/2/1
f 1093/2/5 1094/2/5 1095/2/5 1096/2/5
f 1097/2/6 1098/2/6 1099/2/6 1100/2/6
f 1101/1/2 1102/1/2 1103/1/2 1104/1/2
f 1105/1/4 1106/1/4 1107/1/4 1108/1/4
f 1109/1/5 1110/1/5 1111/1/5 1112/1/5
f 1113/1/6 1114/1/6 1115/1/6 1116/1/6
f 1117/1/1 1118/1/1 1119/1/1 1120/1/1
f 1121/1/2 1122/1/2 1123/1/2 1124/1/2
f 1125/1/4 1126/1/4 1127/1/4 1128/1/4
f 1129/1/5 1130/1/5 1131/1/5 1132/1/5
f 1133/1/6 1134/1/6 1135/1/6 1136/1/6

