# generated by vox_to_obj_exporter
# scale=0.1 center=false ground=false y_up=true

mtllib Fight_011.mtl
usemtl palette

# normals
vn -1 0 0
vn 1 0 0
vn 0 1 0
vn 0 -1 0
vn 0 0 1
vn 0 0 -1

# texcoords
vt 0.025390625 0.5

# verts
v 6.1 7.4 -2.6
v 6.1 7.3 -2.6
v 6.1 7.3 -2.5
v 6.1 7.4 -2.5
v 6.2 7.4 -2.5
v 6.2 7.3 -2.5
v 6.2 7.3 -2.6
v 6.2 7.4 -2.6
v 6.1 7.4 -2.6
v 6.1 7.4 -2.5
v 6.2 7.4 -2.5
v 6.2 7.4 -2.6
v 6.1 7.4 -2.5
v 6.1 7.3 -2.5
v 6.2 7.3 -2.5
v 6.2 7.4 -2.5
v 6.2 7.4 -2.6
v 6.2 7.3 -2.6
v 6.1 7.3 -2.6
v 6.1 7.4 -2.6
v 5.9 7.3 -2.6
v 5.9 7.2 -2.6
v 5.9 7.2 -2.5
v 5.9 7.3 -2.5
v 5.9 7.3 -2.6
v 5.9 7.3 -2.5
v 6 7.3 -2.5
v 6 7.3 -2.6
v 5.9 7.3 -2.5
v 5.9 7.2 -2.5
v 6 7.2 -2.5
v 6 7.3 -2.5
v 6 7.3 -2.6
v 6 7.2 -2.6
v 5.9 7.2 -2.6
v 5.9 7.3 -2.6
v 6 7.3 -2.6
v 6 7.3 -2.5
v 6.1 7.3 -2.5
v 6.1 7.3 -2.6
v 6 7.3 -2.5
v 6 7.2 -2.5
v 6.1 7.2 -2.5
v 6.1 7.3 -2.5
v 6.1 7.3 -2.6
v 6.1 7.2 -2.6
v 6 7.2 -2.6
v 6 7.3 -2.6
v 6.2 7.3 -2.5
v 6.2 7.2 -2.5
v 6.2 7.2 -2.6
v 6.2 7.3 -2.6
v 6.1 7.2 -2.5
v 6.1 7.2 -2.6
v 6.2 7.2 -2.6
v 6.2 7.2 -2.5
v 6.1 7.3 -2.5
v 6.1 7.2 -2.5
v 6.2 7.2 -2.5
v 6.2 7.3 -2.5
v 6.2 7.3 -2.6
v 6.2 7.2 -2.6
v 6.1 7.2 -2.6
v 6.1 7.3 -2.6
v 5.8 7.2 -2.6
v 5.8 7.1 -2.6
v 5.8 7.1 -2.5
v 5.8 7.2 -2.5
v 5.8 7.2 -2.6
v 5.8 7.2 -2.5
v 5.9 7.2 -2.5
v 5.9 7.2 -2.6
v 5.8 7.2 -2.5
v 5.8 7.1 -2.5
v 5.9 7.1 -2.5
v 5.9 7.2 -2.5
v 5.9 7.2 -2.6
v 5.9 7.1 -2.6
v 5.8 7.1 -2.6
v 5.8 7.2 -2.6
v 5.9 7.2 -2.5
v 5.9 7.1 -2.5
v 6 7.1 -2.5
v 6 7.2 -2.5
v 6 7.2 -2.6
v 6 7.1 -2.6
v 5.9 7.1 -2.6
v 5.9 7.2 -2.6
v 6.1 7.2 -2.5
v 6.1 7.1 -2.5
v 6.1 7.1 -2.6
v 6.1 7.2 -2.6
v 6 7.1 -2.5
v 6 7.1 -2.6
v 6.1 7.1 -2.6
v 6.1 7.1 -2.5
v 6 7.2 -2.5
v 6 7.1 -2.5
v 6.1 7.1 -2.5
v 6.1 7.2 -2.5
v 6.1 7.2 -2.6
v 6.1 7.1 -2.6
v 6 7.1 -2.6
v 6 7.2 -2.6
v 5.7 7.1 -2.6
v 5.7 7 -2.6
v 5.7 7 -2.5
v 5.7 7.1 -2.5
v 5.7 7.1 -2.6
v 5.7 7.1 -2.5
v 5.8 7.1 -2.5
v 5.8 7.1 -2.6
v 5.7 7.1 -2.5
v 5.7 7 -2.5
v 5.8 7 -2.5
v 5.8 7.1 -2.5
v 5.8 7.1 -2.6
v 5.8 7 -2.6
v 5.7 7 -2.6
v 5.7 7.1 -2.6
v 5.8 7.1 -2.5
v 5.8 7 -2.5
v 5.9 7 -2.5
v 5.9 7.1 -2.5
v 5.9 7.1 -2.6
v 5.9 7 -2.6
v 5.8 7 -2.6
v 5.8 7.1 -2.6
v 6 7.1 -2.5
v 6 7 -2.5
v 6 7 -2.6
v 6 7.1 -2.6
v 5.9 7 -2.5
v 5.9 7 -2.6
v 6 7 -2.6
v 6 7 -2.5
v 5.9 7.1 -2.5
v 5.9 7 -2.5
v 6 7 -2.5
v 6 7.1 -2.5
v 6 7.1 -2.6
v 6 7 -2.6
v 5.9 7 -2.6
v 5.9 7.1 -2.6
v 5.6 7 -2.6
v 5.6 6.9 -2.6
v 5.6 6.9 -2.5
v 5.6 7 -2.5
v 5.6 7 -2.6
v 5.6 7 -2.5
v 5.7 7 -2.5
v 5.7 7 -2.6
v 5.6 7 -2.5
v 5.6 6.9 -2.5
v 5.7 6.9 -2.5
v 5.7 7 -2.5
v 5.7 7 -2.6
v 5.7 6.9 -2.6
v 5.6 6.9 -2.6
v 5.6 7 -2.6
v 5.7 7 -2.5
v 5.7 6.9 -2.5
v 5.8 6.9 -2.5
v 5.8 7 -2.5
v 5.8 7 -2.6
v 5.8 6.9 -2.6
v 5.7 6.9 -2.6
v 5.7 7 -2.6
v 5.9 7 -2.5
v 5.9 6.9 -2.5
v 5.9 6.9 -2.6
v 5.9 7 -2.6
v 5.8 6.9 -2.5
v 5.8 6.9 -2.6
v 5.9 6.9 -2.6
v 5.9 6.9 -2.5
v 5.8 7 -2.5
v 5.8 6.9 -2.5
v 5.9 6.9 -2.5
v 5.9 7 -2.5
v 5.9 7 -2.6
v 5.9 6.9 -2.6
v 5.8 6.9 -2.6
v 5.8 7 -2.6
v 5.5 6.9 -2.6
v 5.5 6.8 -2.6
v 5.5 6.8 -2.5
v 5.5 6.9 -2.5
v 5.5 6.9 -2.6
v 5.5 6.9 -2.5
v 5.6 6.9 -2.5
v 5.6 6.9 -2.6
v 5.5 6.9 -2.5
v 5.5 6.8 -2.5
v 5.6 6.8 -2.5
v 5.6 6.9 -2.5
v 5.6 6.9 -2.6
v 5.6 6.8 -2.6
v 5.5 6.8 -2.6
v 5.5 6.9 -2.6
v 5.6 6.9 -2.5
v 5.6 6.8 -2.5
v 5.7 6.8 -2.5
v 5.7 6.9 -2.5
v 5.7 6.9 -2.6
v 5.7 6.8 -2.6
v 5.6 6.8 -2.6
v 5.6 6.9 -2.6
v 5.8 6.9 -2.5
v 5.8 6.8 -2.5
v 5.8 6.8 -2.6
v 5.8 6.9 -2.6
v 5.7 6.8 -2.5
v 5.7 6.8 -2.6
v 5.8 6.8 -2.6
v 5.8 6.8 -2.5
v 5.7 6.9 -2.5
v 5.7 6.8 -2.5
v 5.8 6.8 -2.5
v 5.8 6.9 -2.5
v 5.8 6.9 -2.6
v 5.8 6.8 -2.6
v 5.7 6.8 -2.6
v 5.7 6.9 -2.6
v 5.4 6.8 -2.6
v 5.4 6.7 -2.6
v 5.4 6.7 -2.5
v 5.4 6.8 -2.5
v 5.4 6.8 -2.6
v 5.4 6.8 -2.5
v 5.5 6.8 -2.5
v 5.5 6.8 -2.6
v 5.4 6.8 -2.5
v 5.4 6.7 -2.5
v 5.5 6.7 -2.5
v 5.5 6.8 -2.5
v 5.5 6.8 -2.6
v 5.5 6.7 -2.6
v 5.4 6.7 -2.6
v 5.4 6.8 -2.6
v 5.5 6.8 -2.5
v 5.5 6.7 -2.5
v 5.6 6.7 -2.5
v 5.6 6.8 -2.5
v 5.6 6.8 -2.6
v 5.6 6.7 -2.6
v 5.5 6.7 -2.6
v 5.5 6.8 -2.6
v 5.7 6.8 -2.5
v 5.7 6.7 -2.5
v 5.7 6.7 -2.6
v 5.7 6.8 -2.6
v 5.6 6.7 -2.5
v 5.6 6.7 -2.6
v 5.7 6.7 -2.6
v 5.7 6.7 -2.5
v 5.6 6.8 -2.5
v 5.6 6.7 -2.5
v 5.7 6.7 -2.5
v 5.7 6.8 -2.5
v 5.7 6.8 -2.6
v 5.7 6.7 -2.6
v 5.6 6.7 -2.6
v 5.6 6.8 -2.6
v 5.3 6.7 -2.6
v 5.3 6.6 -2.6
v 5.3 6.6 -2.5
v 5.3 6.7 -2.5
v 5.3 6.7 -2.6
v 5.3 6.7 -2.5
v 5.4 6.7 -2.5
v 5.4 6.7 -2.6
v 5.3 6.7 -2.5
v 5.3 6.6 -2.5
v 5.4 6.6 -2.5
v 5.4 6.7 -2.5
v 5.4 6.7 -2.6
v 5.4 6.6 -2.6
v 5.3 6.6 -2.6
v 5.3 6.7 -2.6
v 5.4 6.7 -2.5
v 5.4 6.6 -2.5
v 5.5 6.6 -2.5
v 5.5 6.7 -2.5
v 5.5 6.7 -2.6
v 5.5 6.6 -2.6
v 5.4 6.6 -2.6
v 5.4 6.7 -2.6
v 5.6 6.7 -2.5
v 5.6 6.6 -2.5
v 5.6 6.6 -2.6
v 5.6 6.7 -2.6
v 5.5 6.7 -2.5
v 5.5 6.6 -2.5
v 5.6 6.6 -2.5
v 5.6 6.7 -2.5
v 5.6 6.7 -2.6
v 5.6 6.6 -2.6
v 5.5 6.6 -2.6
v 5.5 6.7 -2.6
v 5.2 6.6 -2.6
v 5.2 6.5 -2.6
v 5.2 6.5 -2.5
v 5.2 6.6 -2.5
v 5.2 6.6 -2.6
v 5.2 6.6 -2.5
v 5.3 6.6 -2.5
v 5.3 6.6 -2.6
v 5.2 6.6 -2.5
v 5.2 6.5 -2.5
v 5.3 6.5 -2.5
v 5.3 6.6 -2.5
v 5.3 6.6 -2.6
v 5.3 6.5 -2.6
v 5.2 6.5 -2.6
v 5.2 6.6 -2.6
v 5.3 6.6 -2.5
v 5.3 6.5 -2.5
v 5.4 6.5 -2.5
v 5.4 6.6 -2.5
v 5.4 6.6 -2.6
v 5.4 6.5 -2.6
v 5.3 6.5 -2.6
v 5.3 6.6 -2.6
v 5.4 6.6 -2.5
v 5.4 6.5 -2.5
v 5.5 6.5 -2.5
v 5.5 6.6 -2.5
v 5.5 6.6 -2.6
v 5.5 6.5 -2.6
v 5.4 6.5 -2.6
v 5.4 6.6 -2.6
v 5.6 6.6 -2.5
v 5.6 6.5 -2.5
v 5.6 6.5 -2.6
v 5.6 6.6 -2.6
v 5.5 6.5 -2.5
v 5.5 6.5 -2.6
v 5.6 6.5 -2.6
v 5.6 6.5 -2.5
v 5.5 6.6 -2.5
v 5.5 6.5 -2.5
v 5.6 6.5 -2.5
v 5.6 6.6 -2.5
v 5.6 6.6 -2.6
v 5.6 6.5 -2.6
v 5.5 6.5 -2.6
v 5.5 6.6 -2.6
v 5.1 6.5 -2.6
v 5.1 6.4 -2.6
v 5.1 6.4 -2.5
v 5.1 6.5 -2.5
v 5.1 6.5 -2.6
v 5.1 6.5 -2.5
v 5.2 6.5 -2.5
v 5.2 6.5 -2.6
v 5.1 6.5 -2.5
v 5.1 6.4 -2.5
v 5.2 6.4 -2.5
v 5.2 6.5 -2.5
v 5.2 6.5 -2.6
v 5.2 6.4 -2.6
v 5.1 6.4 -2.6
v 5.1 6.5 -2.6
v 5.2 6.5 -2.5
v 5.2 6.4 -2.5
v 5.3 6.4 -2.5
v 5.3 6.5 -2.5
v 5.3 6.5 -2.6
v 5.3 6.4 -2.6
v 5.2 6.4 -2.6
v 5.2 6.5 -2.6
v 5.3 6.5 -2.5
v 5.3 6.4 -2.5
v 5.4 6.4 -2.5
v 5.4 6.5 -2.5
v 5.4 6.5 -2.6
v 5.4 6.4 -2.6
v 5.3 6.4 -2.6
v 5.3 6.5 -2.6
v 5.5 6.5 -2.5
v 5.5 6.4 -2.5
v 5.5 6.4 -2.6
v 5.5 6.5 -2.6
v 5.4 6.4 -2.5
v 5.4 6.4 -2.6
v 5.5 6.4 -2.6
v 5.5 6.4 -2.5
v 5.4 6.5 -2.5
v 5.4 6.4 -2.5
v 5.5 6.4 -2.5
v 5.5 6.5 -2.5
v 5.5 6.5 -2.6
v 5.5 6.4 -2.6
v 5.4 6.4 -2.6
v 5.4 6.5 -2.6
v 5 6.4 -2.6
v 5 6.3 -2.6
v 5 6.3 -2.5
v 5 6.4 -2.5
v 5 6.4 -2.6
v 5 6.4 -2.5
v 5.1 6.4 -2.5
v 5.1 6.4 -2.6
v 5 6.4 -2.5
v 5 6.3 -2.5
v 5.1 6.3 -2.5
v 5.1 6.4 -2.5
v 5.1 6.4 -2.6
v 5.1 6.3 -2.6
v 5 6.3 -2.6
v 5 6.4 -2.6
v 5.1 6.4 -2.5
v 5.1 6.3 -2.5
v 5.2 6.3 -2.5
v 5.2 6.4 -2.5
v 5.2 6.4 -2.6
v 5.2 6.3 -2.6
v 5.1 6.3 -2.6
v 5.1 6.4 -2.6
v 5.2 6.4 -2.5
v 5.2 6.3 -2.5
v 5.3 6.3 -2.5
v 5.3 6.4 -2.5
v 5.3 6.4 -2.6
v 5.3 6.3 -2.6
v 5.2 6.3 -2.6
v 5.2 6.4 -2.6
v 5.4 6.4 -2.5
v 5.4 6.3 -2.5
v 5.4 6.3 -2.6
v 5.4 6.4 -2.6
v 5.3 6.3 -2.5
v 5.3 6.3 -2.6
v 5.4 6.3 -2.6
v 5.4 6.3 -2.5
v 5.3 6.4 -2.5
v 5.3 6.3 -2.5
v 5.4 6.3 -2.5
v 5.4 6.4 -2.5
v 5.4 6.4 -2.6
v 5.4 6.3 -2.6
v 5.3 6.3 -2.6
v 5.3 6.4 -2.6
v 5 6.3 -2.6
v 5 6.2 -2.6
v 5 6.2 -2.5
v 5 6.3 -2.5
v 5 6.3 -2.5
v 5 6.2 -2.5
v 5.1 6.2 -2.5
v 5.1 6.3 -2.5
v 5.1 6.3 -2.6
v 5.1 6.2 -2.6
v 5 6.2 -2.6
v 5 6.3 -2.6
v 5.1 6.3 -2.5
v 5.1 6.2 -2.5
v 5.2 6.2 -2.5
v 5.2 6.3 -2.5
v 5.2 6.3 -2.6
v 5.2 6.2 -2.6
v 5.1 6.2 -2.6
v 5.1 6.3 -2.6
v 5.3 6.3 -2.5
v 5.3 6.2 -2.5
v 5.3 6.2 -2.6
v 5.3 6.3 -2.6
v 5.2 6.3 -2.5
v 5.2 6.2 -2.5
v 5.3 6.2 -2.5
v 5.3 6.3 -2.5
v 5.3 6.3 -2.6
v 5.3 6.2 -2.6
v 5.2 6.2 -2.6
v 5.2 6.3 -2.6
v 4.9 6.2 -2.6
v 4.9 6.1 -2.6
v 4.9 6.1 -2.5
v 4.9 6.2 -2.5
v 4.9 6.2 -2.6
v 4.9 6.2 -2.5
v 5 6.2 -2.5
v 5 6.2 -2.6
v 4.9 6.2 -2.5
v 4.9 6.1 -2.5
v 5 6.1 -2.5
v 5 6.2 -2.5
v 5 6.2 -2.6
v 5 6.1 -2.6
v 4.9 6.1 -2.6
v 4.9 6.2 -2.6
v 5 6.2 -2.5
v 5 6.1 -2.5
v 5.1 6.1 -2.5
v 5.1 6.2 -2.5
v 5.1 6.2 -2.6
v 5.1 6.1 -2.6
v 5 6.1 -2.6
v 5 6.2 -2.6
v 5.1 6.2 -2.5
v 5.1 6.1 -2.5
v 5.2 6.1 -2.5
v 5.2 6.2 -2.5
v 5.2 6.2 -2.6
v 5.2 6.1 -2.6
v 5.1 6.1 -2.6
v 5.1 6.2 -2.6
v 5.3 6.2 -2.5
v 5.3 6.1 -2.5
v 5.3 6.1 -2.6
v 5.3 6.2 -2.6
v 5.2 6.1 -2.5
v 5.2 6.1 -2.6
v 5.3 6.1 -2.6
v 5.3 6.1 -2.5
v 5.2 6.2 -2.5
v 5.2 6.1 -2.5
v 5.3 6.1 -2.5
v 5.3 6.2 -2.5
v 5.3 6.2 -2.6
v 5.3 6.1 -2.6
v 5.2 6.1 -2.6
v 5.2 6.2 -2.6
v 4.8 6.1 -2.6
v 4.8 6 -2.6
v 4.8 6 -2.5
v 4.8 6.1 -2.5
v 4.8 6.1 -2.6
v 4.8 6.1 -2.5
v 4.9 6.1 -2.5
v 4.9 6.1 -2.6
v 4.8 6.1 -2.5
v 4.8 6 -2.5
v 4.9 6 -2.5
v 4.9 6.1 -2.5
v 4.9 6.1 -2.6
v 4.9 6 -2.6
v 4.8 6 -2.6
v 4.8 6.1 -2.6
v 4.9 6.1 -2.5
v 4.9 6 -2.5
v 5 6 -2.5
v 5 6.1 -2.5
v 5 6.1 -2.6
v 5 6 -2.6
v 4.9 6 -2.6
v 4.9 6.1 -2.6
v 5 6.1 -2.5
v 5 6 -2.5
v 5.1 6 -2.5
v 5.1 6.1 -2.5
v 5.1 6.1 -2.6
v 5.1 6 -2.6
v 5 6 -2.6
v 5 6.1 -2.6
v 5.2 6.1 -2.5
v 5.2 6 -2.5
v 5.2 6 -2.6
v 5.2 6.1 -2.6
v 5.1 6.1 -2.5
v 5.1 6 -2.5
v 5.2 6 -2.5
v 5.2 6.1 -2.5
v 5.2 6.1 -2.6
v 5.2 6 -2.6
v 5.1 6 -2.6
v 5.1 6.1 -2.6
v 4.8 6 -2.6
v 4.8 5.9 -2.6
v 4.8 5.9 -2.5
v 4.8 6 -2.5
v 4.8 6 -2.5
v 4.8 5.9 -2.5
v 4.9 5.9 -2.5
v 4.9 6 -2.5
v 4.9 6 -2.6
v 4.9 5.9 -2.6
v 4.8 5.9 -2.6
v 4.8 6 -2.6
v 4.9 6 -2.5
v 4.9 5.9 -2.5
v 5 5.9 -2.5
v 5 6 -2.5
v 5 6 -2.6
v 5 5.9 -2.6
v 4.9 5.9 -2.6
v 4.9 6 -2.6
v 5 6 -2.5
v 5 5.9 -2.5
v 5.1 5.9 -2.5
v 5.1 6 -2.5
v 5.1 6 -2.6
v 5.1 5.9 -2.6
v 5 5.9 -2.6
v 5 6 -2.6
v 5.2 6 -2.5
v 5.2 5.9 -2.5
v 5.2 5.9 -2.6
v 5.2 6 -2.6
v 5.1 5.9 -2.5
v 5.1 5.9 -2.6
v 5.2 5.9 -2.6
v 5.2 5.9 -2.5
v 5.1 6 -2.5
v 5.1 5.9 -2.5
v 5.2 5.9 -2.5
v 5.2 6 -2.5
v 5.2 6 -2.6
v 5.2 5.9 -2.6
v 5.1 5.9 -2.6
v 5.1 6 -2.6
v 4.7 5.9 -2.6
v 4.7 5.8 -2.6
v 4.7 5.8 -2.5
v 4.7 5.9 -2.5
v 4.7 5.9 -2.6
v 4.7 5.9 -2.5
v 4.8 5.9 -2.5
v 4.8 5.9 -2.6
v 4.7 5.9 -2.5
v 4.7 5.8 -2.5
v 4.8 5.8 -2.5
v 4.8 5.9 -2.5
v 4.8 5.9 -2.6
v 4.8 5.8 -2.6
v 4.7 5.8 -2.6
v 4.7 5.9 -2.6
v 4.8 5.9 -2.5
v 4.8 5.8 -2.5
v 4.9 5.8 -2.5
v 4.9 5.9 -2.5
v 4.9 5.9 -2.6
v 4.9 5.8 -2.6
v 4.8 5.8 -2.6
v 4.8 5.9 -2.6
v 4.9 5.9 -2.5
v 4.9 5.8 -2.5
v 5 5.8 -2.5
v 5 5.9 -2.5
v 5 5.9 -2.6
v 5 5.8 -2.6
v 4.9 5.8 -2.6
v 4.9 5.9 -2.6
v 5.1 5.9 -2.5
v 5.1 5.8 -2.5
v 5.1 5.8 -2.6
v 5.1 5.9 -2.6
v 5 5.8 -2.5
v 5 5.8 -2.6
v 5.1 5.8 -2.6
v 5.1 5.8 -2.5
v 5 5.9 -2.5
v 5 5.8 -2.5
v 5.1 5.8 -2.5
v 5.1 5.9 -2.5
v 5.1 5.9 -2.6
v 5.1 5.8 -2.6
v 5 5.8 -2.6
v 5 5.9 -2.6
v 4.7 5.8 -2.6
v 4.7 5.7 -2.6
v 4.7 5.7 -2.5
v 4.7 5.8 -2.5
v 4.7 5.8 -2.5
v 4.7 5.7 -2.5
v 4.8 5.7 -2.5
v 4.8 5.8 -2.5
v 4.8 5.8 -2.6
v 4.8 5.7 -2.6
v 4.7 5.7 -2.6
v 4.7 5.8 -2.6
v 4.8 5.8 -2.5
v 4.8 5.7 -2.5
v 4.9 5.7 -2.5
v 4.9 5.8 -2.5
v 4.9 5.8 -2.6
v 4.9 5.7 -2.6
v 4.8 5.7 -2.6
v 4.8 5.8 -2.6
v 5 5.8 -2.5
v 5 5.7 -2.5
v 5 5.7 -2.6
v 5 5.8 -2.6
v 4.9 5.7 -2.5
v 4.9 5.7 -2.6
v 5 5.7 -2.6
v 5 5.7 -2.5
v 4.9 5.8 -2.5
v 4.9 5.7 -2.5
v 5 5.7 -2.5
v 5 5.8 -2.5
v 5 5.8 -2.6
v 5 5.7 -2.6
v 4.9 5.7 -2.6
v 4.9 5.8 -2.6
v 4.2 5.7 -2.6
v 4.2 5.6 -2.6
v 4.2 5.6 -2.5
v 4.2 5.7 -2.5
v 4.3 5.7 -2.5
v 4.3 5.6 -2.5
v 4.3 5.6 -2.6
v 4.3 5.7 -2.6
v 4.2 5.7 -2.6
v 4.2 5.7 -2.5
v 4.3 5.7 -2.5
v 4.3 5.7 -2.6
v 4.2 5.7 -2.5
v 4.2 5.6 -2.5
v 4.3 5.6 -2.5
v 4.3 5.7 -2.5
v 4.3 5.7 -2.6
v 4.3 5.6 -2.6
v 4.2 5.6 -2.6
v 4.2 5.7 -2.6
v 4.6 5.7 -2.6
v 4.6 5.6 -2.6
v 4.6 5.6 -2.5
v 4.6 5.7 -2.5
v 4.6 5.7 -2.6
v 4.6 5.7 -2.5
v 4.7 5.7 -2.5
v 4.7 5.7 -2.6
v 4.6 5.7 -2.5
v 4.6 5.6 -2.5
v 4.7 5.6 -2.5
v 4.7 5.7 -2.5
v 4.7 5.7 -2.6
v 4.7 5.6 -2.6
v 4.6 5.6 -2.6
v 4.6 5.7 -2.6
v 4.7 5.7 -2.5
v 4.7 5.6 -2.5
v 4.8 5.6 -2.5
v 4.8 5.7 -2.5
v 4.8 5.7 -2.6
v 4.8 5.6 -2.6
v 4.7 5.6 -2.6
v 4.7 5.7 -2.6
v 4.9 5.7 -2.5
v 4.9 5.6 -2.5
v 4.9 5.6 -2.6
v 4.9 5.7 -2.6
v 4.8 5.7 -2.5
v 4.8 5.6 -2.5
v 4.9 5.6 -2.5
v 4.9 5.7 -2.5
v 4.9 5.7 -2.6
v 4.9 5.6 -2.6
v 4.8 5.6 -2.6
v 4.8 5.7 -2.6
v 4.1 5.6 -2.6
v 4.1 5.5 -2.6
v 4.1 5.5 -2.5
v 4.1 5.6 -2.5
v 4.1 5.6 -2.6
v 4.1 5.6 -2.5
v 4.2 5.6 -2.5
v 4.2 5.6 -2.6
v 4.1 5.6 -2.5
v 4.1 5.5 -2.5
v 4.2 5.5 -2.5
v 4.2 5.6 -2.5
v 4.2 5.6 -2.6
v 4.2 5.5 -2.6
v 4.1 5.5 -2.6
v 4.1 5.6 -2.6
v 4.3 5.6 -2.5
v 4.3 5.5 -2.5
v 4.3 5.5 -2.6
v 4.3 5.6 -2.6
v 4.2 5.6 -2.5
v 4.2 5.5 -2.5
v 4.3 5.5 -2.5
v 4.3 5.6 -2.5
v 4.3 5.6 -2.6
v 4.3 5.5 -2.6
v 4.2 5.5 -2.6
v 4.2 5.6 -2.6
v 4.6 5.6 -2.6
v 4.6 5.5 -2.6
v 4.6 5.5 -2.5
v 4.6 5.6 -2.5
v 4.6 5.6 -2.5
v 4.6 5.5 -2.5
v 4.7 5.5 -2.5
v 4.7 5.6 -2.5
v 4.7 5.6 -2.6
v 4.7 5.5 -2.6
v 4.6 5.5 -2.6
v 4.6 5.6 -2.6
v 4.7 5.6 -2.5
v 4.7 5.5 -2.5
v 4.8 5.5 -2.5
v 4.8 5.6 -2.5
v 4.8 5.6 -2.6
v 4.8 5.5 -2.6
v 4.7 5.5 -2.6
v 4.7 5.6 -2.6
v 4.9 5.6 -2.5
v 4.9 5.5 -2.5
v 4.9 5.5 -2.6
v 4.9 5.6 -2.6
v 4.8 5.5 -2.5
v 4.8 5.5 -2.6
v 4.9 5.5 -2.6
v 4.9 5.5 -2.5
v 4.8 5.6 -2.5
v 4.8 5.5 -2.5
v 4.9 5.5 -2.5
v 4.9 5.6 -2.5
v 4.9 5.6 -2.6
v 4.9 5.5 -2.6
v 4.8 5.5 -2.6
v 4.8 5.6 -2.6
v 4.1 5.5 -2.6
v 4.1 5.4 -2.6
v 4.1 5.4 -2.5
v 4.1 5.5 -2.5
v 4.1 5.5 -2.5
v 4.1 5.4 -2.5
v 4.2 5.4 -2.5
v 4.2 5.5 -2.5
v 4.2 5.5 -2.6
v 4.2 5.4 -2.6
v 4.1 5.4 -2.6
v 4.1 5.5 -2.6
v 4.2 5.5 -2.5
v 4.2 5.4 -2.5
v 4.3 5.4 -2.5
v 4.3 5.5 -2.5
v 4.3 5.5 -2.6
v 4.3 5.4 -2.6
v 4.2 5.4 -2.6
v 4.2 5.5 -2.6
v 4.4 5.5 -2.5
v 4.4 5.4 -2.5
v 4.4 5.4 -2.6
v 4.4 5.5 -2.6
v 4.3 5.5 -2.6
v 4.3 5.5 -2.5
v 4.4 5.5 -2.5
v 4.4 5.5 -2.6
v 4.3 5.5 -2.5
v 4.3 5.4 -2.5
v 4.4 5.4 -2.5
v 4.4 5.5 -2.5
v 4.4 5.5 -2.6
v 4.4 5.4 -2.6
v 4.3 5.4 -2.6
v 4.3 5.5 -2.6
v 4.5 5.5 -2.6
v 4.5 5.4 -2.6
v 4.5 5.4 -2.5
v 4.5 5.5 -2.5
v 4.5 5.5 -2.6
v 4.5 5.5 -2.5
v 4.6 5.5 -2.5
v 4.6 5.5 -2.6
v 4.5 5.5 -2.5
v 4.5 5.4 -2.5
v 4.6 5.4 -2.5
v 4.6 5.5 -2.5
v 4.6 5.5 -2.6
v 4.6 5.4 -2.6
v 4.5 5.4 -2.6
v 4.5 5.5 -2.6
v 4.6 5.5 -2.5
v 4.6 5.4 -2.5
v 4.7 5.4 -2.5
v 4.7 5.5 -2.5
v 4.7 5.5 -2.6
v 4.7 5.4 -2.6
v 4.6 5.4 -2.6
v 4.6 5.5 -2.6
v 4.8 5.5 -2.5
v 4.8 5.4 -2.5
v 4.8 5.4 -2.6
v 4.8 5.5 -2.6
v 4.7 5.5 -2.5
v 4.7 5.4 -2.5
v 4.8 5.4 -2.5
v 4.8 5.5 -2.5
v 4.8 5.5 -2.6
v 4.8 5.4 -2.6
v 4.7 5.4 -2.6
v 4.7 5.5 -2.6
v 4.1 5.4 -2.6
v 4.1 5.3 -2.6
v 4.1 5.3 -2.5
v 4.1 5.4 -2.5
v 4.1 5.4 -2.5
v 4.1 5.3 -2.5
v 4.2 5.3 -2.5
v 4.2 5.4 -2.5
v 4.2 5.4 -2.6
v 4.2 5.3 -2.6
v 4.1 5.3 -2.6
v 4.1 5.4 -2.6
v 4.2 5.4 -2.5
v 4.2 5.3 -2.5
v 4.3 5.3 -2.5
v 4.3 5.4 -2.5
v 4.3 5.4 -2.6
v 4.3 5.3 -2.6
v 4.2 5.3 -2.6
v 4.2 5.4 -2.6
v 4.3 5.4 -2.5
v 4.3 5.3 -2.5
v 4.4 5.3 -2.5
v 4.4 5.4 -2.5
v 4.4 5.4 -2.6
v 4.4 5.3 -2.6
v 4.3 5.3 -2.6
v 4.3 5.4 -2.6
v 4.4 5.4 -2.6
v 4.4 5.4 -2.5
v 4.5 5.4 -2.5
v 4.5 5.4 -2.6
v 4.4 5.4 -2.5
v 4.4 5.3 -2.5
v 4.5 5.3 -2.5
v 4.5 5.4 -2.5
v 4.5 5.4 -2.6
v 4.5 5.3 -2.6
v 4.4 5.3 -2.6
v 4.4 5.4 -2.6
v 4.5 5.4 -2.5
v 4.5 5.3 -2.5
v 4.6 5.3 -2.5
v 4.6 5.4 -2.5
v 4.6 5.4 -2.6
v 4.6 5.3 -2.6
v 4.5 5.3 -2.6
v 4.5 5.4 -2.6
v 4.6 5.4 -2.5
v 4.6 5.3 -2.5
v 4.7 5.3 -2.5
v 4.7 5.4 -2.5
v 4.7 5.4 -2.6
v 4.7 5.3 -2.6
v 4.6 5.3 -2.6
v 4.6 5.4 -2.6
v 4.8 5.4 -2.5
v 4.8 5.3 -2.5
v 4.8 5.3 -2.6
v 4.8 5.4 -2.6
v 4.7 5.3 -2.5
v 4.7 5.3 -2.6
v 4.8 5.3 -2.6
v 4.8 5.3 -2.5
v 4.7 5.4 -2.5
v 4.7 5.3 -2.5
v 4.8 5.3 -2.5
v 4.8 5.4 -2.5
v 4.8 5.4 -2.6
v 4.8 5.3 -2.6
v 4.7 5.3 -2.6
v 4.7 5.4 -2.6
v 4.1 5.3 -2.6
v 4.1 5.2 -2.6
v 4.1 5.2 -2.5
v 4.1 5.3 -2.5
v 4.1 5.2 -2.5
v 4.1 5.2 -2.6
v 4.2 5.2 -2.6
v 4.2 5.2 -2.5
v 4.1 5.3 -2.5
v 4.1 5.2 -2.5
v 4.2 5.2 -2.5
v 4.2 5.3 -2.5
v 4.2 5.3 -2.6
v 4.2 5.2 -2.6
v 4.1 5.2 -2.6
v 4.1 5.3 -2.6
v 4.2 5.3 -2.5
v 4.2 5.2 -2.5
v 4.3 5.2 -2.5
v 4.3 5.3 -2.5
v 4.3 5.3 -2.6
v 4.3 5.2 -2.6
v 4.2 5.2 -2.6
v 4.2 5.3 -2.6
v 4.3 5.3 -2.5
v 4.3 5.2 -2.5
v 4.4 5.2 -2.5
v 4.4 5.3 -2.5
v 4.4 5.3 -2.6
v 4.4 5.2 -2.6
v 4.3 5.2 -2.6
v 4.3 5.3 -2.6
v 4.4 5.3 -2.5
v 4.4 5.2 -2.5
v 4.5 5.2 -2.5
v 4.5 5.3 -2.5
v 4.5 5.3 -2.6
v 4.5 5.2 -2.6
v 4.4 5.2 -2.6
v 4.4 5.3 -2.6
v 4.5 5.3 -2.5
v 4.5 5.2 -2.5
v 4.6 5.2 -2.5
v 4.6 5.3 -2.5
v 4.6 5.3 -2.6
v 4.6 5.2 -2.6
v 4.5 5.2 -2.6
v 4.5 5.3 -2.6
v 4.7 5.3 -2.5
v 4.7 5.2 -2.5
v 4.7 5.2 -2.6
v 4.7 5.3 -2.6
v 4.6 5.2 -2.5
v 4.6 5.2 -2.6
v 4.7 5.2 -2.6
v 4.7 5.2 -2.5
v 4.6 5.3 -2.5
v 4.6 5.2 -2.5
v 4.7 5.2 -2.5
v 4.7 5.3 -2.5
v 4.7 5.3 -2.6
v 4.7 5.2 -2.6
v 4.6 5.2 -2.6
v 4.6 5.3 -2.6
v 4.2 5.2 -2.6
v 4.2 5.1 -2.6
v 4.2 5.1 -2.5
v 4.2 5.2 -2.5
v 4.2 5.2 -2.5
v 4.2 5.1 -2.5
v 4.3 5.1 -2.5
v 4.3 5.2 -2.5
v 4.3 5.2 -2.6
v 4.3 5.1 -2.6
v 4.2 5.1 -2.6
v 4.2 5.2 -2.6
v 4.3 5.1 -2.5
v 4.3 5.1 -2.6
v 4.4 5.1 -2.6
v 4.4 5.1 -2.5
v 4.3 5.2 -2.5
v 4.3 5.1 -2.5
v 4.4 5.1 -2.5
v 4.4 5.2 -2.5
v 4.4 5.2 -2.6
v 4.4 5.1 -2.6
v 4.3 5.1 -2.6
v 4.3 5.2 -2.6
v 4.4 5.1 -2.5
v 4.4 5.1 -2.6
v 4.5 5.1 -2.6
v 4.5 5.1 -2.5
v 4.4 5.2 -2.5
v 4.4 5.1 -2.5
v 4.5 5.1 -2.5
v 4.5 5.2 -2.5
v 4.5 5.2 -2.6
v 4.5 5.1 -2.6
v 4.4 5.1 -2.6
v 4.4 5.2 -2.6
v 4.6 5.2 -2.5
v 4.6 5.1 -2.5
v 4.6 5.1 -2.6
v 4.6 5.2 -2.6
v 4.5 5.1 -2.5
v 4.5 5.1 -2.6
v 4.6 5.1 -2.6
v 4.6 5.1 -2.5
v 4.5 5.2 -2.5
v 4.5 5.1 -2.5
v 4.6 5.1 -2.5
v 4.6 5.2 -2.5
v 4.6 5.2 -2.6
v 4.6 5.1 -2.6
v 4.5 5.1 -2.6
v 4.5 5.2 -2.6
v 4.2 5.1 -2.6
v 4.2 5 -2.6
v 4.2 5 -2.5
v 4.2 5.1 -2.5
v 4.3 5.1 -2.5
v 4.3 5 -2.5
v 4.3 5 -2.6
v 4.3 5.1 -2.6
v 4.2 5 -2.5
v 4.2 5 -2.6
v 4.3 5 -2.6
v 4.3 5 -2.5
v 4.2 5.1 -2.5
v 4.2 5 -2.5
v 4.3 5 -2.5
v 4.3 5.1 -2.5
v 4.3 5.1 -2.6
v 4.3 5 -2.6
v 4.2 5 -2.6
v 4.2 5.1 -2.6

# faces
f 1/1/1 2/1/1 3/1/1 4/1/1
f 5/1/2 6/1/2 7/1/2 8/1/2
f 9/1/3 10/1/3 11/1/3 12/1/3
f 13/1/5 14/1/5 15/1/5 16/1/5
f 17/1/6 18/1/6 19/1/6 20/1/6
f 21/1/1 22/1/1 23/1/1 24/1/1
f 25/1/3 26/1/3 27/1/3 28/1/3
f 29/1/5 30/1/5 31/1/5 32/1/5
f 33/1/6 34/1/6 35/1/6 36/1/6
f 37/1/3 38/1/3 39/1/3 40/1/3
f 41/1/5 42/1/5 43/1/5 44/1/5
f 45/1/6 46/1/6 47/1/6 48/1/6
f 49/1/2 50/1/2 51/1/2 52/1/2
f 53/1/4 54/1/4 55/1/4 56/1/4
f 57/1/5 58/1/5 59/1/5 60/1/5
f 61/1/6 62/1/6 63/1/6 64/1/6
f 65/1/1 66/1/1 67/1/1 68/1/1
f 69/1/3 70/1/3 71/1/3 72/1/3
f 73/1/5 74/1/5 75/1/5 76/1/5
f 77/1/6 78/1/6 79/1/6 80/1/6
f 81/1/5 82/1/5 83/1/5 84/1/5
f 85/1/6 86/1/6 87/1/6 88/1/6
f 89/1/2 90/1/2 91/1/2 92/1/2
f 93/1/4 94/1/4 95/1/4 96/1/4
f 97/1/5 98/1/5 99/1/5 100/1/5
f 101/1/6 102/1/6 103/1/6 104/1/6
f 105/1/1 106/1/1 107/1/1 108/1/1
f 109/1/3 110/1/3 111/1/3 112/1/3
f 113/1/5 114/1/5 115/1/5 116/1/5
f 117/1/6 118/1/6 119/1/6 120/1/6
f 121/1/5 122/1/5 123/1/5 124/1/5
f 125/1/6 126/1/6 127/1/6 128/1/6
f 129/1/2 130/1/2 131/1/2 132/1/2
f 133/1/4 134/1/4 135/1/4 136/1/4
f 137/1/5 138/1/5 139/1/5 140/1/5
f 141/1/6 142/1/6 143/1/6 144/1/6
f 145/1/1 146/1/1 147/1/1 148/1/1
f 149/1/3 150/1/3 151/1/3 152/1/3
f 153/1/5 154/1/5 155/1/5 156/1/5
f 157/1/6 158/1/6 159/1/6 160/1/6
f 161/1/5 162/1/5 163/1/5 164/1/5
f 165/1/6 166/1/6 167/1/6 168/1/6
f 169/1/2 170/1/2 171/1/2 172/1/2
f 173/1/4 174/1/4 175/1/4 176/1/4
f 177/1/5 178/1/5 179/1/5 180/1/5
f 181/1/6 182/1/6 183/1/6 184/1/6
f 185/1/1 186/1/1 187/1/1 188/1/1
f 189/1/3 190/1/3 191/1/3 192/1/3
f 193/1/5 194/1/5 195/1/5 196/1/5
f 197/1/6 198/1/6 199/1/6 200/1/6
f 201/1/5 202/1/5 203/1/5 204/1/5
f 205/1/6 206/1/6 207/1/6 208/1/6
f 209/1/2 210/1/2 211/1/2 212/1/2
f 213/1/4 214/1/4 215/1/4 216/1/4
f 217/1/5 218/1/5 219/1/5 220/1/5
f 221/1/6 222/1/6 223/1/6 224/1/6
f 225/1/1 226/1/1 227/1/1 228/1/1
f 229/1/3 230/1/3 231/1/3 232/1/3
f 233/1/5 234/1/5 235/1/5 236/1/5
f 237/1/6 238/1/6 239/1/6 240/1/6
f 241/1/5 242/1/5 243/1/5 244/1/5
f 245/1/6 246/1/6 247/1/6 248/1/6
f 249/1/2 250/1/2 251/1/2 252/1/2
f 253/1/4 254/1/4 255/1/4 256/1/4
f 257/1/5 258/1/5 259/1/5 260/1/5
f 261/1/6 262/1/6 263/1/6 264/1/6
f 265/1/1 266/1/1 267/1/1 268/1/1
f 269/1/3 270/1/3 271/1/3 272/1/3
f 273/1/5 274/1/5 275/1/5 276/1/5
f 277/1/6 278/1/6 279/1/6 280/1/6
f 281/1/5 282/1/5 283/1/5 284/1/5
f 285/1/6 286/1/6 287/1/6 288/1/6
f 289/1/2 290/1/2 291/1/2 292/1/2
f 293/1/5 294/1/5 295/1/5 296/1/5
f 297/1/6 298/1/6 299/1/6 300/1/6
f 301/1/1 302/1/1 303/1/1 304/1/1
f 305/1/3 306/1/3 307/1/3 308/1/3
f 309/1/5 310/1/5 311/1/5 312/1/5
f 313/1/6 314/1/6 315/1/6 316/1/6
f 317/1/5 318/1/5 319/1/5 320/1/5
f 321/1/6 322/1/6 323/1/6 324/1/6
f 325/1/5 326/1/5 327/1/5 328/1/5
f 329/1/6 330/1/6 331/1/6 332/1/6
f 333/1/2 334/1/2 335/1/2 336/1/2
f 337/1/4 338/1/4 339/1/4 340/1/4
f 341/1/5 342/1/5 343/1/5 344/1/5
f 345/1/6 346/1/6 347/1/6 348/1/6
f 349/1/1 350/1/1 351/1/1 352/1/1
f 353/1/3 354/1/3 355/1/3 356/1/3
f 357/1/5 358/1/5 359/1/5 360/1/5
f 361/1/6 362/1/6 363/1/6 364/1/6
f 365/1/5 366/1/5 367/1/5 368/1/5
f 369/1/6 370/1/6 371/1/6 372/1/6
f 373/1/5 374/1/5 375/1/5 376/1/5
f 377/1/6 378/1/6 379/1/6 380/1/6
f 381/1/2 382/1/2 383/1/2 384/1/2
f 385/1/4 386/1/4 387/1/4 388/1/4
f 389/1/5 390/1/5 391/1/5 392/1/5
f 393/1/6 394/1/6 395/1/6 396/1/6
f 397/1/1 398/1/1 399/1/1 400/1/1
f 401/1/3 402/1/3 403/1/3 404/1/3
f 405/1/5 406/1/5 407/1/5 408/1/5
f 409/1/6 410/1/6 411/1/6 412/1/6
f 413/1/5 414/1/5 415/1/5 416/1/5
f 417/1/6 418/1/6 419/1/6 420/1/6
f 421/1/5 422/1/5 423/1/5 424/1/5
f 425/1/6 426/1/6 427/1/6 428/1/6
f 429/1/2 430/1/2 431/1/2 432/1/2
f 433/1/4 434/1/4 435/1/4 436/1/4
f 437/1/5 438/1/5 439/1/5 440/1/5
f 441/1/6 442/1/6 443/1/6 444/1/6
f 445/1/1 446/1/1 447/1/1 448/1/1
f 449/1/5 450/1/5 451/1/5 452/1/5
f 453/1/6 454/1/6 455/1/6 456/1/6
f 457/1/5 458/1/5 459/1/5 460/1/5
f 461/1/6 462/1/6 463/1/6 464/1/6
f 465/1/2 466/1/2 467/1/2 468/1/2
f 469/1/5 470/1/5 471/1/5 472/1/5
f 473/1/6 474/1/6 475/1/6 476/1/6
f 477/1/1 478/1/1 479/1/1 480/1/1
f 481/1/3 482/1/3 483/1/3 484/1/3
f 485/1/5 486/1/5 487/1/5 488/1/5
f 489/1/6 490/1/6 491/1/6 492/1/6
f 493/1/5 494/1/5 495/1/5 496/1/5
f 497/1/6 498/1/6 499/1/6 500/1/6
f 501/1/5 502/1/5 503/1/5 504/1/5
f 505/1/6 506/1/6 507/1/6 508/1/6
f 509/1/2 510/1/2 511/1/2 512/1/2
f 513/1/4 514/1/4 515/1/4 516/1/4
f 517/1/5 518/1/5 519/1/5 520/1/5
f 521/1/6 522/1/6 523/1/6 524/1/6
f 525/1/1 526/1/1 527/1/1 528/1/1
f 529/1/3 530/1/3 531/1/3 532/1/3
f 533/1/5 534/1/5 535/1/5 536/1/5
f 537/1/6 538/1/6 539/1/6 540/1/6
f 541/1/5 542/1/5 543/1/5 544/1/5
f 545/1/6 546/1/6 547/1/6 548/1/6
f 549/1/5 550/1/5 551/1/5 552/1/5
f 553/1/6 554/1/6 555/1/6 556/1/6
f 557/1/2 558/1/2 559/1/2 560/1/2
f 561/1/5 562/1/5 563/1/5 564/1/5
f 565/1/6 566/1/6 567/1/6 568/1/6
f 569/1/1 570/1/1 571/1/1 572/1/1
f 573/1/5 574/1/5 575/1/5 576/1/5
f 577/1/6 578/1/6 579/1/6 580/1/6
f 581/1/5 582/1/5 583/1/5 584/1/5
f 585/1/6 586/1/6 587/1/6 588/1/6
f 589/1/5 590/1/5 591/1/5 592/1/5
f 593/1/6 594/1/6 595/1/6 596/1/6
f 597/1/2 598/1/2 599/1/2 600/1/2
f 601/1/4 602/1/4 603/1/4 604/1/4
f 605/1/5 606/1/5 607/1/5 608/1/5
f 609/1/6 610/1/6 611/1/6 612/1/6
f 613/1/1 614/1/1 615/1/1 616/1/1
f 617/1/3 618/1/3 619/1/3 620/1/3
f 621/1/5 622/1/5 623/1/5 624/1/5
f 625/1/6 626/1/6 627/1/6 628/1/6
f 629/1/5 630/1/5 631/1/5 632/1/5
f 633/1/6 634/1/6 635/1/6 636/1/6
f 637/1/5 638/1/5 639/1/5 640/1/5
f 641/1/6 642/1/6 643/1/6 644/1/6
f 645/1/2 646/1/2 647/1/2 648/1/2
f 649/1/4 650/1/4 651/1/4 652/1/4
f 653/1/5 654/1/5 655/1/5 656/1/5
f 657/1/6 658/1/6 659/1/6 660/1/6
f 661/1/1 662/1/1 663/1/1 664/1/1
f 665/1/5 666/1/5 667/1/5 668/1/5
f 669/1/6 670/1/6 671/1/6 672/1/6
f 673/1/5 674/1/5 675/1/5 676/1/5
f 677/1/6 678/1/6 679/1/6 680/1/6
f 681/1/2 682/1/2 683/1/2 684/1/2
f 685/1/4 686/1/4 687/1/4 688/1/4
f 689/1/5 690/1/5 691/1/5 692/1/5
f 693/1/6 694/1/6 695/1/6 696/1/6
f 697/1/1 698/1/1 699/1/1 700/1/1
f 701/1/2 702/1/2 703/1/2 704/1/2
f 705/1/3 706/1/3 707/1/3 708/1/3
f 709/1/5 710/1/5 711/1/5 712/1/5
f 713/1/6 714/1/6 715/1/6 716/1/6
f 717/1/1 718/1/1 719/1/1 720/1/1
f 721/1/3 722/1/3 723/1/3 724/1/3
f 725/1/5 726/1/5 727/1/5 728/1/5
f 729/1/6 730/1/6 731/1/6 732/1/6
f 733/1/5 734/1/5 735/1/5 736/1/5
f 737/1/6 738/1/6 739/1/6 740/1/6
f 741/1/2 742/1/2 743/1/2 744/1/2
f 745/1/5 746/1/5 747/1/5 748/1/5
f 749/1/6 750/1/6 751/1/6 752/1/6
f 753/1/1 754/1/1 755/1/1 756/1/1
f 757/1/3 758/1/3 759/1/3 760/1/3
f 761/1/5 762/1/5 763/1/5 764/1/5
f 765/1/6 766/1/6 767/1/6 768/1/6
f 769/1/2 770/1/2 771/1/2 772/1/2
f 773/1/5 774/1/5 775/1/5 776/1/5
f 777/1/6 778/1/6 779/1/6 780/1/6
f 781/1/1 782/1/1 783/1/1 784/1/1
f 785/1/5 786/1/5 787/1/5 788/1/5
f 789/1/6 790/1/6 791/1/6 792/1/6
f 793/1/5 794/1/5 795/1/5 796/1/5
f 797/1/6 798/1/6 799/1/6 800/1/6
f 801/1/2 802/1/2 803/1/2 804/1/2
f 805/1/4 806/1/4 807/1/4 808/1/4
f 809/1/5 810/1/5 811/1/5 812/1/5
f 813/1/6 814/1/6 815/1/6 816/1/6
f 817/1/1 818/1/1 819/1/1 820/1/1
f 821/1/5 822/1/5 823/1/5 824/1/5
f 825/1/6 826/1/6 827/1/6 828/1/6
f 829/1/5 830/1/5 831/1/5 832/1/5
f 833/1/6 834/1/6 835/1/6 836/1/6
f 837/1/2 838/1/2 839/1/2 840/1/2
f 841/1/3 842/1/3 843/1/3 844/1/3
f 845/1/5 846/1/5 847/1/5 848/1/5
f 849/1/6 850/1/6 851/1/6 852/1/6
f 853/1/1 854/1/1 855/1/1 856/1/1
f 857/1/3 858/1/3 859/1/3 860/1/3
f 861/1/5 862/1/5 863/1/5 864/1/5
f 865/1/6 866/1/6 867/1/6 868/1/6
f 869/1/5 870/1/5 871/1/5 872/1/5
f 873/1/6 874/1/6 875/1/6 876/1/6
f 877/1/2 878/1/2 879/1/2 880/1/2
f 881/1/5 882/1/5 883/1/5 884/1/5
f 885/1/6 886/1/6 887/1/6 888/1/6
f 889/1/1 890/1/1 891/1/1 892/1/1
f 893/1/5 894/1/5 895/1/5 896/1/5
f 897/1/6 898/1/6 899/1/6 900/1/6
f 901/1/5 902/1/5 903/1/5 904/1/5
f 905/1/6 906/1/6 907/1/6 908/1/6
f 909/1/5 910/1/5 911/1/5 912/1/5
f 913/1/6 914/1/6 915/1/6 916/1/6
f 917/1/3 918/1/3 919/1/3 920/1/3
f 921/1/5 922/1/5 923/1/5 924/1/5
f 925/1/6 926/1/6 927/1/6 928/1/6
f 929/1/5 930/1/5 931/1/5 932/1/5
f 933/1/6 934/1/6 935/1/6 936/1/6
f 937/1/5 938/1/5 939/1/5 940/1/5
f 941/1/6 942/1/6 943/1/6 944/1/6
f 945/1/2 946/1/2 947/1/2 948/1/2
f 949/1/4 950/1/4 951/1/4 952/1/4
f 953/1/5 954/1/5 955/1/5 956/1/5
f 957/1/6 958/1/6 959/1/6 960/1/6
f 961/1/1 962/1/1 963/1/1 964/1/1
f 965/1/4 966/1/4 967/1/4 968/1/4
f 969/1/5 970/1/5 971/1/5 972/1/5
f 973/1/6 974/1/6 975/1/6 976/1/6
f 977/1/5 978/1/5 979/1/5 980/1/5
f 981/1/6 982/1/6 983/1/6 984/1/6
f 985/1/5 986/1/5 987/1/5 988/1/5
f 989/1/6 990/1/6 991/1/6 992/1/6
f 993/1/5 994/1/5 995/1/5 996/1/5
f 997/1/6 998/1/6 999/1/6 1000/1/6
f 1001/1/5 1002/1/5 1003/1/5 1004/1/5
f 1005/1/6 1006/1/6 1007/1/6 1008/1/6
f 1009/1/2 1010/1/2 1011/1/2 1012/1/2
f 1013/1/4 1014/1/4 1015/1/4 1016/1/4
f 1017/1/5 1018/1/5 1019/1/5 1020/1/5
f 1021/1/6 1022/1/6 1023/1/6 1024/1/6
f 1025/1/1 1026/1/1 1027/1/1 1028/1/1
f 1029/1/5 1030/1/5 1031/1/5 1032/1/5
f 1033/1/6 1034/1/6 1035/1/6 1036/1/6
f 1037/1/4 1038/1/4 1039/1/4 1040/1/4
f 1041/1/5 1042/1/5 1043/1/5 1044/1/5
f 1045/1/6 1046/1/6 1047/1/6 1048/1/6
f 1049/1/4 1050/1/4 1051/1/4 1052/1/4
f 1053/1/5 1054/1/5 1055/1/5 1056/1/5
f 1057/1/6 1058/1/6 1059/1/6 1060/1/6
f 1061/1/2 1062/1/2 1063/1/2 1064/1/2
f 1065/1/4 1066/1/4 1067/1/4 1068/1/4
f 1069/1/5 1070/1/5 1071/1/5 1072/1/5
f 1073/1/6 1074/1/6 1075/1/6 1076/1/6
f 1077/1/1 1078/1/1 1079/1/1 1080/1/1
f 1081/1/2 1082/1/2 1083/1/2 1084/1/2
f 1085/1/4 1086/1/4 1087/1/4 1088/1/4
f 1089/1/5 1090/1/5 1091/1/5 1092/1/5
f 1093/1/6 1094/1/6 1095/1/6 1096/1/6

