# generated by vox_to_obj_exporter
# scale=0.1 center=false ground=false y_up=true

mtllib Fight_746.mtl
usemtl palette

# normals
vn -1 0 0
vn 1 0 0
vn 0 1 0
vn 0 -1 0
vn 0 0 1
vn 0 0 -1

# texcoords
vt 0.138671875 0.5
vt 0.177734375 0.5

# verts
v 4.8 11.7 -2.6
v 4.8 11.6 -2.6
v 4.8 11.6 -2.5
v 4.8 11.7 -2.5
v 4.9 11.7 -2.5
v 4.9 11.6 -2.5
v 4.9 11.6 -2.6
v 4.9 11.7 -2.6
v 4.8 11.7 -2.6
v 4.8 11.7 -2.5
v 4.9 11.7 -2.5
v 4.9 11.7 -2.6
v 4.8 11.6 -2.5
v 4.8 11.6 -2.6
v 4.9 11.6 -2.6
v 4.9 11.6 -2.5
v 4.8 11.7 -2.5
v 4.8 11.6 -2.5
v 4.9 11.6 -2.5
v 4.9 11.7 -2.5
v 4.9 11.7 -2.6
v 4.9 11.6 -2.6
v 4.8 11.6 -2.6
v 4.8 11.7 -2.6
v 4.7 11.6 -2.6
v 4.7 11.5 -2.6
v 4.7 11.5 -2.5
v 4.7 11.6 -2.5
v 4.8 11.6 -2.5
v 4.8 11.5 -2.5
v 4.8 11.5 -2.6
v 4.8 11.6 -2.6
v 4.7 11.6 -2.6
v 4.7 11.6 -2.5
v 4.8 11.6 -2.5
v 4.8 11.6 -2.6
v 4.7 11.5 -2.5
v 4.7 11.5 -2.6
v 4.8 11.5 -2.6
v 4.8 11.5 -2.5
v 4.7 11.6 -2.5
v 4.7 11.5 -2.5
v 4.8 11.5 -2.5
v 4.8 11.6 -2.5
v 4.8 11.6 -2.6
v 4.8 11.5 -2.6
v 4.7 11.5 -2.6
v 4.7 11.6 -2.6
v 4.5 11.5 -2.6
v 4.5 11.4 -2.6
v 4.5 11.4 -2.5
v 4.5 11.5 -2.5
v 4.6 11.5 -2.5
v 4.6 11.4 -2.5
v 4.6 11.4 -2.6
v 4.6 11.5 -2.6
v 4.5 11.5 -2.6
v 4.5 11.5 -2.5
v 4.6 11.5 -2.5
v 4.6 11.5 -2.6
v 4.5 11.4 -2.5
v 4.5 11.4 -2.6
v 4.6 11.4 -2.6
v 4.6 11.4 -2.5
v 4.5 11.5 -2.5
v 4.5 11.4 -2.5
v 4.6 11.4 -2.5
v 4.6 11.5 -2.5
v 4.6 11.5 -2.6
v 4.6 11.4 -2.6
v 4.5 11.4 -2.6
v 4.5 11.5 -2.6
v 4.4 11.4 -2.6
v 4.4 11.3 -2.6
v 4.4 11.3 -2.5
v 4.4 11.4 -2.5
v 4.5 11.4 -2.5
v 4.5 11.3 -2.5
v 4.5 11.3 -2.6
v 4.5 11.4 -2.6
v 4.4 11.4 -2.6
v 4.4 11.4 -2.5
v 4.5 11.4 -2.5
v 4.5 11.4 -2.6
v 4.4 11.3 -2.5
v 4.4 11.3 -2.6
v 4.5 11.3 -2.6
v 4.5 11.3 -2.5
v 4.4 11.4 -2.5
v 4.4 11.3 -2.5
v 4.5 11.3 -2.5
v 4.5 11.4 -2.5
v 4.5 11.4 -2.6
v 4.5 11.3 -2.6
v 4.4 11.3 -2.6
v 4.4 11.4 -2.6
v 4.2 11.3 -2.6
v 4.2 11.2 -2.6
v 4.2 11.2 -2.5
v 4.2 11.3 -2.5
v 4.2 11.3 -2.6
v 4.2 11.3 -2.5
v 4.3 11.3 -2.5
v 4.3 11.3 -2.6
v 4.2 11.2 -2.5
v 4.2 11.2 -2.6
v 4.3 11.2 -2.6
v 4.3 11.2 -2.5
v 4.2 11.3 -2.5
v 4.2 11.2 -2.5
v 4.3 11.2 -2.5
v 4.3 11.3 -2.5
v 4.3 11.3 -2.6
v 4.3 11.2 -2.6
v 4.2 11.2 -2.6
v 4.2 11.3 -2.6
v 4.4 11.3 -2.5
v 4.4 11.2 -2.5
v 4.4 11.2 -2.6
v 4.4 11.3 -2.6
v 4.3 11.3 -2.6
v 4.3 11.3 -2.5
v 4.4 11.3 -2.5
v 4.4 11.3 -2.6
v 4.3 11.2 -2.5
v 4.3 11.2 -2.6
v 4.4 11.2 -2.6
v 4.4 11.2 -2.5
v 4.3 11.3 -2.5
v 4.3 11.2 -2.5
v 4.4 11.2 -2.5
v 4.4 11.3 -2.5
v 4.4 11.3 -2.6
v 4.4 11.2 -2.6
v 4.3 11.2 -2.6
v 4.3 11.3 -2.6
v 4.1 11.2 -2.6
v 4.1 11.1 -2.6
v 4.1 11.1 -2.5
v 4.1 11.2 -2.5
v 4.2 11.2 -2.5
v 4.2 11.1 -2.5
v 4.2 11.1 -2.6
v 4.2 11.2 -2.6
v 4.1 11.2 -2.6
v 4.1 11.2 -2.5
v 4.2 11.2 -2.5
v 4.2 11.2 -2.6
v 4.1 11.1 -2.5
v 4.1 11.1 -2.6
v 4.2 11.1 -2.6
v 4.2 11.1 -2.5
v 4.1 11.2 -2.5
v 4.1 11.1 -2.5
v 4.2 11.1 -2.5
v 4.2 11.2 -2.5
v 4.2 11.2 -2.6
v 4.2 11.1 -2.6
v 4.1 11.1 -2.6
v 4.1 11.2 -2.6
v 4 11.1 -2.6
v 4 11 -2.6
v 4 11 -2.5
v 4 11.1 -2.5
v 4.1 11.1 -2.5
v 4.1 11 -2.5
v 4.1 11 -2.6
v 4.1 11.1 -2.6
v 4 11.1 -2.6
v 4 11.1 -2.5
v 4.1 11.1 -2.5
v 4.1 11.1 -2.6
v 4 11 -2.5
v 4 11 -2.6
v 4.1 11 -2.6
v 4.1 11 -2.5
v 4 11.1 -2.5
v 4 11 -2.5
v 4.1 11 -2.5
v 4.1 11.1 -2.5
v 4.1 11.1 -2.6
v 4.1 11 -2.6
v 4 11 -2.6
v 4 11.1 -2.6
v 3.8 11 -2.6
v 3.8 10.9 -2.6
v 3.8 10.9 -2.5
v 3.8 11 -2.5
v 3.8 11 -2.6
v 3.8 11 -2.5
v 3.9 11 -2.5
v 3.9 11 -2.6
v 3.8 10.9 -2.5
v 3.8 10.9 -2.6
v 3.9 10.9 -2.6
v 3.9 10.9 -2.5
v 3.8 11 -2.5
v 3.8 10.9 -2.5
v 3.9 10.9 -2.5
v 3.9 11 -2.5
v 3.9 11 -2.6
v 3.9 10.9 -2.6
v 3.8 10.9 -2.6
v 3.8 11 -2.6
v 4 11 -2.5
v 4 10.9 -2.5
v 4 10.9 -2.6
v 4 11 -2.6
v 3.9 11 -2.6
v 3.9 11 -2.5
v 4 11 -2.5
v 4 11 -2.6
v 3.9 10.9 -2.5
v 3.9 10.9 -2.6
v 4 10.9 -2.6
v 4 10.9 -2.5
v 3.9 11 -2.5
v 3.9 10.9 -2.5
v 4 10.9 -2.5
v 4 11 -2.5
v 4 11 -2.6
v 4 10.9 -2.6
v 3.9 10.9 -2.6
v 3.9 11 -2.6
v 3.7 10.9 -2.6
v 3.7 10.8 -2.6
v 3.7 10.8 -2.5
v 3.7 10.9 -2.5
v 3.8 10.9 -2.5
v 3.8 10.8 -2.5
v 3.8 10.8 -2.6
v 3.8 10.9 -2.6
v 3.7 10.9 -2.6
v 3.7 10.9 -2.5
v 3.8 10.9 -2.5
v 3.8 10.9 -2.6
v 3.7 10.8 -2.5
v 3.7 10.8 -2.6
v 3.8 10.8 -2.6
v 3.8 10.8 -2.5
v 3.7 10.9 -2.5
v 3.7 10.8 -2.5
v 3.8 10.8 -2.5
v 3.8 10.9 -2.5
v 3.8 10.9 -2.6
v 3.8 10.8 -2.6
v 3.7 10.8 -2.6
v 3.7 10.9 -2.6
v 3.6 10.8 -2.6
v 3.6 10.7 -2.6
v 3.6 10.7 -2.5
v 3.6 10.8 -2.5
v 3.7 10.8 -2.5
v 3.7 10.7 -2.5
v 3.7 10.7 -2.6
v 3.7 10.8 -2.6
v 3.6 10.8 -2.6
v 3.6 10.8 -2.5
v 3.7 10.8 -2.5
v 3.7 10.8 -2.6
v 3.6 10.7 -2.5
v 3.6 10.7 -2.6
v 3.7 10.7 -2.6
v 3.7 10.7 -2.5
v 3.6 10.8 -2.5
v 3.6 10.7 -2.5
v 3.7 10.7 -2.5
v 3.7 10.8 -2.5
v 3.7 10.8 -2.6
v 3.7 10.7 -2.6
v 3.6 10.7 -2.6
v 3.6 10.8 -2.6
v 3.4 10.7 -2.6
v 3.4 10.6 -2.6
v 3.4 10.6 -2.5
v 3.4 10.7 -2.5
v 3.4 10.7 -2.6
v 3.4 10.7 -2.5
v 3.5 10.7 -2.5
v 3.5 10.7 -2.6
v 3.4 10.6 -2.5
v 3.4 10.6 -2.6
v 3.5 10.6 -2.6
v 3.5 10.6 -2.5
v 3.4 10.7 -2.5
v 3.4 10.6 -2.5
v 3.5 10.6 -2.5
v 3.5 10.7 -2.5
v 3.5 10.7 -2.6
v 3.5 10.6 -2.6
v 3.4 10.6 -2.6
v 3.4 10.7 -2.6
v 3.6 10.7 -2.5
v 3.6 10.6 -2.5
v 3.6 10.6 -2.6
v 3.6 10.7 -2.6
v 3.5 10.7 -2.6
v 3.5 10.7 -2.5
v 3.6 10.7 -2.5
v 3.6 10.7 -2.6
v 3.5 10.6 -2.5
v 3.5 10.6 -2.6
v 3.6 10.6 -2.6
v 3.6 10.6 -2.5
v 3.5 10.7 -2.5
v 3.5 10.6 -2.5
v 3.6 10.6 -2.5
v 3.6 10.7 -2.5
v 3.6 10.7 -2.6
v 3.6 10.6 -2.6
v 3.5 10.6 -2.6
v 3.5 10.7 -2.6
v 3.3 10.6 -2.6
v 3.3 10.5 -2.6
v 3.3 10.5 -2.5
v 3.3 10.6 -2.5
v 3.4 10.6 -2.5
v 3.4 10.5 -2.5
v 3.4 10.5 -2.6
v 3.4 10.6 -2.6
v 3.3 10.6 -2.6
v 3.3 10.6 -2.5
v 3.4 10.6 -2.5
v 3.4 10.6 -2.6
v 3.3 10.5 -2.5
v 3.3 10.5 -2.6
v 3.4 10.5 -2.6
v 3.4 10.5 -2.5
v 3.3 10.6 -2.5
v 3.3 10.5 -2.5
v 3.4 10.5 -2.5
v 3.4 10.6 -2.5
v 3.4 10.6 -2.6
v 3.4 10.5 -2.6
v 3.3 10.5 -2.6
v 3.3 10.6 -2.6
v 3.2 10.5 -2.6
v 3.2 10.4 -2.6
v 3.2 10.4 -2.5
v 3.2 10.5 -2.5
v 3.3 10.5 -2.5
v 3.3 10.4 -2.5
v 3.3 10.4 -2.6
v 3.3 10.5 -2.6
v 3.2 10.5 -2.6
v 3.2 10.5 -2.5
v 3.3 10.5 -2.5
v 3.3 10.5 -2.6
v 3.2 10.4 -2.5
v 3.2 10.4 -2.6
v 3.3 10.4 -2.6
v 3.3 10.4 -2.5
v 3.2 10.5 -2.5
v 3.2 10.4 -2.5
v 3.3 10.4 -2.5
v 3.3 10.5 -2.5
v 3.3 10.5 -2.6
v 3.3 10.4 -2.6
v 3.2 10.4 -2.6
v 3.2 10.5 -2.6
v 3.1 10.4 -2.6
v 3.1 10.3 -2.6
v 3.1 10.3 -2.5
v 3.1 10.4 -2.5
v 3.2 10.4 -2.5
v 3.2 10.3 -2.5
v 3.2 10.3 -2.6
v 3.2 10.4 -2.6
v 3.1 10.4 -2.6
v 3.1 10.4 -2.5
v 3.2 10.4 -2.5
v 3.2 10.4 -2.6
v 3.1 10.3 -2.5
v 3.1 10.3 -2.6
v 3.2 10.3 -2.6
v 3.2 10.3 -2.5
v 3.1 10.4 -2.5
v 3.1 10.3 -2.5
v 3.2 10.3 -2.5
v 3.2 10.4 -2.5
v 3.2 10.4 -2.6
v 3.2 10.3 -2.6
v 3.1 10.3 -2.6
v 3.1 10.4 -2.6
v 2.9 10.3 -2.6
v 2.9 10.2 -2.6
v 2.9 10.2 -2.5
v 2.9 10.3 -2.5
v 3 10.3 -2.5
v 3 10.2 -2.5
v 3 10.2 -2.6
v 3 10.3 -2.6
v 2.9 10.3 -2.6
v 2.9 10.3 -2.5
v 3 10.3 -2.5
v 3 10.3 -2.6
v 2.9 10.2 -2.5
v 2.9 10.2 -2.6
v 3 10.2 -2.6
v 3 10.2 -2.5
v 2.9 10.3 -2.5
v 2.9 10.2 -2.5
v 3 10.2 -2.5
v 3 10.3 -2.5
v 3 10.3 -2.6
v 3 10.2 -2.6
v 2.9 10.2 -2.6
v 2.9 10.3 -2.6
v 2.8 10.2 -2.6
v 2.8 10.1 -2.6
v 2.8 10.1 -2.5
v 2.8 10.2 -2.5
v 2.9 10.2 -2.5
v 2.9 10.1 -2.5
v 2.9 10.1 -2.6
v 2.9 10.2 -2.6
v 2.8 10.2 -2.6
v 2.8 10.2 -2.5
v 2.9 10.2 -2.5
v 2.9 10.2 -2.6
v 2.8 10.1 -2.5
v 2.8 10.1 -2.6
v 2.9 10.1 -2.6
v 2.9 10.1 -2.5
v 2.8 10.2 -2.5
v 2.8 10.1 -2.5
v 2.9 10.1 -2.5
v 2.9 10.2 -2.5
v 2.9 10.2 -2.6
v 2.9 10.1 -2.6
v 2.8 10.1 -2.6
v 2.8 10.2 -2.6
v 2.7 10.1 -2.6
v 2.7 10 -2.6
v 2.7 10 -2.5
v 2.7 10.1 -2.5
v 2.8 10.1 -2.5
v 2.8 10 -2.5
v 2.8 10 -2.6
v 2.8 10.1 -2.6
v 2.7 10.1 -2.6
v 2.7 10.1 -2.5
v 2.8 10.1 -2.5
v 2.8 10.1 -2.6
v 2.7 10 -2.5
v 2.7 10 -2.6
v 2.8 10 -2.6
v 2.8 10 -2.5
v 2.7 10.1 -2.5
v 2.7 10 -2.5
v 2.8 10 -2.5
v 2.8 10.1 -2.5
v 2.8 10.1 -2.6
v 2.8 10 -2.6
v 2.7 10 -2.6
v 2.7 10.1 -2.6
v 17.8 9.5 -2.6
v 17.8 9.4 -2.6
v 17.8 9.4 -2.5
v 17.8 9.5 -2.5
v 17.9 9.5 -2.5
v 17.9 9.4 -2.5
v 17.9 9.4 -2.6
v 17.9 9.5 -2.6
v 17.8 9.5 -2.6
v 17.8 9.5 -2.5
v 17.9 9.5 -2.5
v 17.9 9.5 -2.6
v 17.8 9.5 -2.5
v 17.8 9.4 -2.5
v 17.9 9.4 -2.5
v 17.9 9.5 -2.5
v 17.9 9.5 -2.6
v 17.9 9.4 -2.6
v 17.8 9.4 -2.6
v 17.8 9.5 -2.6
v 17.7 9.4 -2.6
v 17.7 9.3 -2.6
v 17.7 9.3 -2.5
v 17.7 9.4 -2.5
v 17.7 9.4 -2.6
v 17.7 9.4 -2.5
v 17.8 9.4 -2.5
v 17.8 9.4 -2.6
v 17.7 9.4 -2.5
v 17.7 9.3 -2.5
v 17.8 9.3 -2.5
v 17.8 9.4 -2.5
v 17.8 9.4 -2.6
v 17.8 9.3 -2.6
v 17.7 9.3 -2.6
v 17.7 9.4 -2.6
v 17.8 9.4 -2.5
v 17.8 9.3 -2.5
v 17.9 9.3 -2.5
v 17.9 9.4 -2.5
v 17.9 9.4 -2.6
v 17.9 9.3 -2.6
v 17.8 9.3 -2.6
v 17.8 9.4 -2.6
v 17.9 9.4 -2.6
v 17.9 9.4 -2.5
v 18 9.4 -2.5
v 18 9.4 -2.6
v 17.9 9.4 -2.5
v 17.9 9.3 -2.5
v 18 9.3 -2.5
v 18 9.4 -2.5
v 18 9.4 -2.6
v 18 9.3 -2.6
v 17.9 9.3 -2.6
v 17.9 9.4 -2.6
v 18.1 9.4 -2.5
v 18.1 9.3 -2.5
v 18.1 9.3 -2.6
v 18.1 9.4 -2.6
v 18 9.4 -2.6
v 18 9.4 -2.5
v 18.1 9.4 -2.5
v 18.1 9.4 -2.6
v 18 9.4 -2.5
v 18 9.3 -2.5
v 18.1 9.3 -2.5
v 18.1 9.4 -2.5
v 18.1 9.4 -2.6
v 18.1 9.3 -2.6
v 18 9.3 -2.6
v 18 9.4 -2.6
v 17.7 9.3 -2.6
v 17.7 9.2 -2.6
v 17.7 9.2 -2.5
v 17.7 9.3 -2.5
v 17.7 9.2 -2.5
v 17.7 9.2 -2.6
v 17.8 9.2 -2.6
v 17.8 9.2 -2.5
v 17.7 9.3 -2.5
v 17.7 9.2 -2.5
v 17.8 9.2 -2.5
v 17.8 9.3 -2.5
v 17.8 9.3 -2.6
v 17.8 9.2 -2.6
v 17.7 9.2 -2.6
v 17.7 9.3 -2.6
v 17.8 9.2 -2.5
v 17.8 9.2 -2.6
v 17.9 9.2 -2.6
v 17.9 9.2 -2.5
v 17.8 9.3 -2.5
v 17.8 9.2 -2.5
v 17.9 9.2 -2.5
v 17.9 9.3 -2.5
v 17.9 9.3 -2.6
v 17.9 9.2 -2.6
v 17.8 9.2 -2.6
v 17.8 9.3 -2.6
v 17.9 9.3 -2.5
v 17.9 9.2 -2.5
v 18 9.2 -2.5
v 18 9.3 -2.5
v 18 9.3 -2.6
v 18 9.2 -2.6
v 17.9 9.2 -2.6
v 17.9 9.3 -2.6
v 18 9.3 -2.5
v 18 9.2 -2.5
v 18.1 9.2 -2.5
v 18.1 9.3 -2.5
v 18.1 9.3 -2.6
v 18.1 9.2 -2.6
v 18 9.2 -2.6
v 18 9.3 -2.6
v 18.1 9.3 -2.6
v 18.1 9.3 -2.5
v 18.2 9.3 -2.5
v 18.2 9.3 -2.6
v 18.1 9.3 -2.5
v 18.1 9.2 -2.5
v 18.2 9.2 -2.5
v 18.2 9.3 -2.5
v 18.2 9.3 -2.6
v 18.2 9.2 -2.6
v 18.1 9.2 -2.6
v 18.1 9.3 -2.6
v 18.3 9.3 -2.5
v 18.3 9.2 -2.5
v 18.3 9.2 -2.6
v 18.3 9.3 -2.6
v 18.2 9.3 -2.6
v 18.2 9.3 -2.5
v 18.3 9.3 -2.5
v 18.3 9.3 -2.6
v 18.2 9.3 -2.5
v 18.2 9.2 -2.5
v 18.3 9.2 -2.5
v 18.3 9.3 -2.5
v 18.3 9.3 -2.6
v 18.3 9.2 -2.6
v 18.2 9.2 -2.6
v 18.2 9.3 -2.6
v 17.9 9.2 -2.6
v 17.9 9.1 -2.6
v 17.9 9.1 -2.5
v 17.9 9.2 -2.5
v 17.9 9.1 -2.5
v 17.9 9.1 -2.6
v 18 9.1 -2.6
v 18 9.1 -2.5
v 17.9 9.2 -2.5
v 17.9 9.1 -2.5
v 18 9.1 -2.5
v 18 9.2 -2.5
v 18 9.2 -2.6
v 18 9.1 -2.6
v 17.9 9.1 -2.6
v 17.9 9.2 -2.6
v 18 9.1 -2.5
v 18 9.1 -2.6
v 18.1 9.1 -2.6
v 18.1 9.1 -2.5
v 18 9.2 -2.5
v 18 9.1 -2.5
v 18.1 9.1 -2.5
v 18.1 9.2 -2.5
v 18.1 9.2 -2.6
v 18.1 9.1 -2.6
v 18 9.1 -2.6
v 18 9.2 -2.6
v 18.1 9.1 -2.5
v 18.1 9.1 -2.6
v 18.2 9.1 -2.6
v 18.2 9.1 -2.5
v 18.1 9.2 -2.5
v 18.1 9.1 -2.5
v 18.2 9.1 -2.5
v 18.2 9.2 -2.5
v 18.2 9.2 -2.6
v 18.2 9.1 -2.6
v 18.1 9.1 -2.6
v 18.1 9.2 -2.6
v 18.2 9.2 -2.5
v 18.2 9.1 -2.5
v 18.3 9.1 -2.5
v 18.3 9.2 -2.5
v 18.3 9.2 -2.6
v 18.3 9.1 -2.6
v 18.2 9.1 -2.6
v 18.2 9.2 -2.6
v 18.3 9.2 -2.6
v 18.3 9.2 -2.5
v 18.4 9.2 -2.5
v 18.4 9.2 -2.6
v 18.3 9.2 -2.5
v 18.3 9.1 -2.5
v 18.4 9.1 -2.5
v 18.4 9.2 -2.5
v 18.4 9.2 -2.6
v 18.4 9.1 -2.6
v 18.3 9.1 -2.6
v 18.3 9.2 -2.6
v 18.4 9.2 -2.6
v 18.4 9.2 -2.5
v 18.5 9.2 -2.5
v 18.5 9.2 -2.6
v 18.4 9.2 -2.5
v 18.4 9.1 -2.5
v 18.5 9.1 -2.5
v 18.5 9.2 -2.5
v 18.5 9.2 -2.6
v 18.5 9.1 -2.6
v 18.4 9.1 -2.6
v 18.4 9.2 -2.6
v 18.6 9.2 -2.5
v 18.6 9.1 -2.5
v 18.6 9.1 -2.6
v 18.6 9.2 -2.6
v 18.5 9.2 -2.6
v 18.5 9.2 -2.5
v 18.6 9.2 -2.5
v 18.6 9.2 -2.6
v 18.5 9.2 -2.5
v 18.5 9.1 -2.5
v 18.6 9.1 -2.5
v 18.6 9.2 -2.5
v 18.6 9.2 -2.6
v 18.6 9.1 -2.6
v 18.5 9.1 -2.6
v 18.5 9.2 -2.6
v 18.2 9.1 -2.6
v 18.2 9 -2.6
v 18.2 9 -2.5
v 18.2 9.1 -2.5
v 18.2 9 -2.5
v 18.2 9 -2.6
v 18.3 9 -2.6
v 18.3 9 -2.5
v 18.2 9.1 -2.5
v 18.2 9 -2.5
v 18.3 9 -2.5
v 18.3 9.1 -2.5
v 18.3 9.1 -2.6
v 18.3 9 -2.6
v 18.2 9 -2.6
v 18.2 9.1 -2.6
v 18.3 9 -2.5
v 18.3 9 -2.6
v 18.4 9 -2.6
v 18.4 9 -2.5
v 18.3 9.1 -2.5
v 18.3 9 -2.5
v 18.4 9 -2.5
v 18.4 9.1 -2.5
v 18.4 9.1 -2.6
v 18.4 9 -2.6
v 18.3 9 -2.6
v 18.3 9.1 -2.6
v 18.4 9 -2.5
v 18.4 9 -2.6
v 18.5 9 -2.6
v 18.5 9 -2.5
v 18.4 9.1 -2.5
v 18.4 9 -2.5
v 18.5 9 -2.5
v 18.5 9.1 -2.5
v 18.5 9.1 -2.6
v 18.5 9 -2.6
v 18.4 9 -2.6
v 18.4 9.1 -2.6
v 18.5 9.1 -2.5
v 18.5 9 -2.5
v 18.6 9 -2.5
v 18.6 9.1 -2.5
v 18.6 9.1 -2.6
v 18.6 9 -2.6
v 18.5 9 -2.6
v 18.5 9.1 -2.6
v 18.6 9.1 -2.6
v 18.6 9.1 -2.5
v 18.7 9.1 -2.5
v 18.7 9.1 -2.6
v 18.6 9.1 -2.5
v 18.6 9 -2.5
v 18.7 9 -2.5
v 18.7 9.1 -2.5
v 18.7 9.1 -2.6
v 18.7 9 -2.6
v 18.6 9 -2.6
v 18.6 9.1 -2.6
v 18.8 9.1 -2.5
v 18.8 9 -2.5
v 18.8 9 -2.6
v 18.8 9.1 -2.6
v 18.7 9.1 -2.6
v 18.7 9.1 -2.5
v 18.8 9.1 -2.5
v 18.8 9.1 -2.6
v 18.7 9.1 -2.5
v 18.7 9 -2.5
v 18.8 9 -2.5
v 18.8 9.1 -2.5
v 18.8 9.1 -2.6
v 18.8 9 -2.6
v 18.7 9 -2.6
v 18.7 9.1 -2.6
v 18.5 9 -2.6
v 18.5 8.9 -2.6
v 18.5 8.9 -2.5
v 18.5 9 -2.5
v 18.5 8.9 -2.5
v 18.5 8.9 -2.6
v 18.6 8.9 -2.6
v 18.6 8.9 -2.5
v 18.5 9 -2.5
v 18.5 8.9 -2.5
v 18.6 8.9 -2.5
v 18.6 9 -2.5
v 18.6 9 -2.6
v 18.6 8.9 -2.6
v 18.5 8.9 -2.6
v 18.5 9 -2.6
v 18.6 8.9 -2.5
v 18.6 8.9 -2.6
v 18.7 8.9 -2.6
v 18.7 8.9 -2.5
v 18.6 9 -2.5
v 18.6 8.9 -2.5
v 18.7 8.9 -2.5
v 18.7 9 -2.5
v 18.7 9 -2.6
v 18.7 8.9 -2.6
v 18.6 8.9 -2.6
v 18.6 9 -2.6
v 18.7 8.9 -2.5
v 18.7 8.9 -2.6
v 18.8 8.9 -2.6
v 18.8 8.9 -2.5
v 18.7 9 -2.5
v 18.7 8.9 -2.5
v 18.8 8.9 -2.5
v 18.8 9 -2.5
v 18.8 9 -2.6
v 18.8 8.9 -2.6
v 18.7 8.9 -2.6
v 18.7 9 -2.6
v 18.8 9 -2.6
v 18.8 9 -2.5
v 18.9 9 -2.5
v 18.9 9 -2.6
v 18.8 9 -2.5
v 18.8 8.9 -2.5
v 18.9 8.9 -2.5
v 18.9 9 -2.5
v 18.9 9 -2.6
v 18.9 8.9 -2.6
v 18.8 8.9 -2.6
v 18.8 9 -2.6
v 19 9 -2.5
v 19 8.9 -2.5
v 19 8.9 -2.6
v 19 9 -2.6
v 18.9 9 -2.6
v 18.9 9 -2.5
v 19 9 -2.5
v 19 9 -2.6
v 18.9 9 -2.5
v 18.9 8.9 -2.5
v 19 8.9 -2.5
v 19 9 -2.5
v 19 9 -2.6
v 19 8.9 -2.6
v 18.9 8.9 -2.6
v 18.9 9 -2.6
v 18.8 8.9 -2.6
v 18.8 8.8 -2.6
v 18.8 8.8 -2.5
v 18.8 8.9 -2.5
v 18.8 8.8 -2.5
v 18.8 8.8 -2.6
v 18.9 8.8 -2.6
v 18.9 8.8 -2.5
v 18.8 8.9 -2.5
v 18.8 8.8 -2.5
v 18.9 8.8 -2.5
v 18.9 8.9 -2.5
v 18.9 8.9 -2.6
v 18.9 8.8 -2.6
v 18.8 8.8 -2.6
v 18.8 8.9 -2.6
v 18.9 8.8 -2.5
v 18.9 8.8 -2.6
v 19 8.8 -2.6
v 19 8.8 -2.5
v 18.9 8.9 -2.5
v 18.9 8.8 -2.5
v 19 8.8 -2.5
v 19 8.9 -2.5
v 19 8.9 -2.6
v 19 8.8 -2.6
v 18.9 8.8 -2.6
v 18.9 8.9 -2.6
v 19 8.9 -2.6
v 19 8.9 -2.5
v 19.1 8.9 -2.5
v 19.1 8.9 -2.6
v 19 8.8 -2.5
v 19 8.8 -2.6
v 19.1 8.8 -2.6
v 19.1 8.8 -2.5
v 19 8.9 -2.5
v 19 8.8 -2.5
v 19.1 8.8 -2.5
v 19.1 8.9 -2.5
v 19.1 8.9 -2.6
v 19.1 8.8 -2.6
v 19 8.8 -2.6
v 19 8.9 -2.6
v 19.2 8.9 -2.5
v 19.2 8.8 -2.5
v 19.2 8.8 -2.6
v 19.2 8.9 -2.6
v 19.1 8.9 -2.6
v 19.1 8.9 -2.5
v 19.2 8.9 -2.5
v 19.2 8.9 -2.6
v 19.1 8.9 -2.5
v 19.1 8.8 -2.5
v 19.2 8.8 -2.5
v 19.2 8.9 -2.5
v 19.2 8.9 -2.6
v 19.2 8.8 -2.6
v 19.1 8.8 -2.6
v 19.1 8.9 -2.6
v 19.1 8.8 -2.6
v 19.1 8.7 -2.6
v 19.1 8.7 -2.5
v 19.1 8.8 -2.5
v 19.1 8.7 -2.5
v 19.1 8.7 -2.6
v 19.2 8.7 -2.6
v 19.2 8.7 -2.5
v 19.1 8.8 -2.5
v 19.1 8.7 -2.5
v 19.2 8.7 -2.5
v 19.2 8.8 -2.5
v 19.2 8.8 -2.6
v 19.2 8.7 -2.6
v 19.1 8.7 -2.6
v 19.1 8.8 -2.6
v 19.2 8.8 -2.6
v 19.2 8.8 -2.5
v 19.3 8.8 -2.5
v 19.3 8.8 -2.6
v 19.2 8.7 -2.5
v 19.2 8.7 -2.6
v 19.3 8.7 -2.6
v 19.3 8.7 -2.5
v 19.2 8.8 -2.5
v 19.2 8.7 -2.5
v 19.3 8.7 -2.5
v 19.3 8.8 -2.5
v 19.3 8.8 -2.6
v 19.3 8.7 -2.6
v 19.2 8.7 -2.6
v 19.2 8.8 -2.6
v 19.4 8.8 -2.5
v 19.4 8.7 -2.5
v 19.4 8.7 -2.6
v 19.4 8.8 -2.6
v 19.3 8.8 -2.6
v 19.3 8.8 -2.5
v 19.4 8.8 -2.5
v 19.4 8.8 -2.6
v 19.3 8.8 -2.5
v 19.3 8.7 -2.5
v 19.4 8.7 -2.5
v 19.4 8.8 -2.5
v 19.4 8.8 -2.6
v 19.4 8.7 -2.6
v 19.3 8.7 -2.6
v 19.3 8.8 -2.6
v 19.3 8.7 -2.6
v 19.3 8.6 -2.6
v 19.3 8.6 -2.5
v 19.3 8.7 -2.5
v 19.3 8.6 -2.5
v 19.3 8.6 -2.6
v 19.4 8.6 -2.6
v 19.4 8.6 -2.5
v 19.3 8.7 -2.5
v 19.3 8.6 -2.5
v 19.4 8.6 -2.5
v 19.4 8.7 -2.5
v 19.4 8.7 -2.6
v 19.4 8.6 -2.6
v 19.3 8.6 -2.6
v 19.3 8.7 -2.6
v 19.4 8.7 -2.6
v 19.4 8.7 -2.5
v 19.5 8.7 -2.5
v 19.5 8.7 -2.6
v 19.4 8.6 -2.5
v 19.4 8.6 -2.6
v 19.5 8.6 -2.6
v 19.5 8.6 -2.5
v 19.4 8.7 -2.5
v 19.4 8.6 -2.5
v 19.5 8.6 -2.5
v 19.5 8.7 -2.5
v 19.5 8.7 -2.6
v 19.5 8.6 -2.6
v 19.4 8.6 -2.6
v 19.4 8.7 -2.6
v 19.5 8.7 -2.6
v 19.5 8.7 -2.5
v 19.6 8.7 -2.5
v 19.6 8.7 -2.6
v 19.5 8.6 -2.5
v 19.5 8.6 -2.6
v 19.6 8.6 -2.6
v 19.6 8.6 -2.5
v 19.5 8.7 -2.5
v 19.5 8.6 -2.5
v 19.6 8.6 -2.5
v 19.6 8.7 -2.5
v 19.6 8.7 -2.6
v 19.6 8.6 -2.6
v 19.5 8.6 -2.6
v 19.5 8.7 -2.6
v 19.7 8.7 -2.5
v 19.7 8.6 -2.5
v 19.7 8.6 -2.6
v 19.7 8.7 -2.6
v 19.6 8.7 -2.6
v 19.6 8.7 -2.5
v 19.7 8.7 -2.5
v 19.7 8.7 -2.6
v 19.6 8.7 -2.5
v 19.6 8.6 -2.5
v 19.7 8.6 -2.5
v 19.7 8.7 -2.5
v 19.7 8.7 -2.6
v 19.7 8.6 -2.6
v 19.6 8.6 -2.6
v 19.6 8.7 -2.6
v 19.6 8.6 -2.6
v 19.6 8.5 -2.6
v 19.6 8.5 -2.5
v 19.6 8.6 -2.5
v 19.6 8.5 -2.5
v 19.6 8.5 -2.6
v 19.7 8.5 -2.6
v 19.7 8.5 -2.5
v 19.6 8.6 -2.5
v 19.6 8.5 -2.5
v 19.7 8.5 -2.5
v 19.7 8.6 -2.5
v 19.7 8.6 -2.6
v 19.7 8.5 -2.6
v 19.6 8.5 -2.6
v 19.6 8.6 -2.6
v 19.7 8.6 -2.6
v 19.7 8.6 -2.5
v 19.8 8.6 -2.5
v 19.8 8.6 -2.6
v 19.7 8.5 -2.5
v 19.7 8.5 -2.6
v 19.8 8.5 -2.6
v 19.8 8.5 -2.5
v 19.7 8.6 -2.5
v 19.7 8.5 -2.5
v 19.8 8.5 -2.5
v 19.8 8.6 -2.5
v 19.8 8.6 -2.6
v 19.8 8.5 -2.6
v 19.7 8.5 -2.6
v 19.7 8.6 -2.6
v 19.9 8.6 -2.5
v 19.9 8.5 -2.5
v 19.9 8.5 -2.6
v 19.9 8.6 -2.6
v 19.8 8.6 -2.6
v 19.8 8.6 -2.5
v 19.9 8.6 -2.5
v 19.9 8.6 -2.6
v 19.8 8.5 -2.5
v 19.8 8.5 -2.6
v 19.9 8.5 -2.6
v 19.9 8.5 -2.5
v 19.8 8.6 -2.5
v 19.8 8.5 -2.5
v 19.9 8.5 -2.5
v 19.9 8.6 -2.5
v 19.9 8.6 -2.6
v 19.9 8.5 -2.6
v 19.8 8.5 -2.6
v 19.8 8.6 -2.6
v 19.9 8.5 -2.6
v 19.9 8.4 -2.6
v 19.9 8.4 -2.5
v 19.9 8.5 -2.5
v 19.9 8.5 -2.6
v 19.9 8.5 -2.5
v 20 8.5 -2.5
v 20 8.5 -2.6
v 19.9 8.4 -2.5
v 19.9 8.4 -2.6
v 20 8.4 -2.6
v 20 8.4 -2.5
v 19.9 8.5 -2.5
v 19.9 8.4 -2.5
v 20 8.4 -2.5
v 20 8.5 -2.5
v 20 8.5 -2.6
v 20 8.4 -2.6
v 19.9 8.4 -2.6
v 19.9 8.5 -2.6
v 20.1 8.5 -2.5
v 20.1 8.4 -2.5
v 20.1 8.4 -2.6
v 20.1 8.5 -2.6
v 20 8.5 -2.6
v 20 8.5 -2.5
v 20.1 8.5 -2.5
v 20.1 8.5 -2.6
v 20 8.4 -2.5
v 20 8.4 -2.6
v 20.1 8.4 -2.6
v 20.1 8.4 -2.5
v 20 8.5 -2.5
v 20 8.4 -2.5
v 20.1 8.4 -2.5
v 20.1 8.5 -2.5
v 20.1 8.5 -2.6
v 20.1 8.4 -2.6
v 20 8.4 -2.6
v 20 8.5 -2.6
v 20.2 8.4 -2.6
v 20.2 8.3 -2.6
v 20.2 8.3 -2.5
v 20.2 8.4 -2.5
v 20.2 8.4 -2.6
v 20.2 8.4 -2.5
v 20.3 8.4 -2.5
v 20.3 8.4 -2.6
v 20.2 8.3 -2.5
v 20.2 8.3 -2.6
v 20.3 8.3 -2.6
v 20.3 8.3 -2.5
v 20.2 8.4 -2.5
v 20.2 8.3 -2.5
v 20.3 8.3 -2.5
v 20.3 8.4 -2.5
v 20.3 8.4 -2.6
v 20.3 8.3 -2.6
v 20.2 8.3 -2.6
v 20.2 8.4 -2.6
v 20.4 8.4 -2.5
v 20.4 8.3 -2.5
v 20.4 8.3 -2.6
v 20.4 8.4 -2.6
v 20.3 8.4 -2.6
v 20.3 8.4 -2.5
v 20.4 8.4 -2.5
v 20.4 8.4 -2.6
v 20.3 8.3 -2.5
v 20.3 8.3 -2.6
v 20.4 8.3 -2.6
v 20.4 8.3 -2.5
v 20.3 8.4 -2.5
v 20.3 8.3 -2.5
v 20.4 8.3 -2.5
v 20.4 8.4 -2.5
v 20.4 8.4 -2.6
v 20.4 8.3 -2.6
v 20.3 8.3 -2.6
v 20.3 8.4 -2.6
v 20.4 8.3 -2.6
v 20.4 8.2 -2.6
v 20.4 8.2 -2.5
v 20.4 8.3 -2.5
v 20.4 8.3 -2.6
v 20.4 8.3 -2.5
v 20.5 8.3 -2.5
v 20.5 8.3 -2.6
v 20.4 8.2 -2.5
v 20.4 8.2 -2.6
v 20.5 8.2 -2.6
v 20.5 8.2 -2.5
v 20.4 8.3 -2.5
v 20.4 8.2 -2.5
v 20.5 8.2 -2.5
v 20.5 8.3 -2.5
v 20.5 8.3 -2.6
v 20.5 8.2 -2.6
v 20.4 8.2 -2.6
v 20.4 8.3 -2.6
v 20.6 8.3 -2.5
v 20.6 8.2 -2.5
v 20.6 8.2 -2.6
v 20.6 8.3 -2.6
v 20.5 8.3 -2.6
v 20.5 8.3 -2.5
v 20.6 8.3 -2.5
v 20.6 8.3 -2.6
v 20.5 8.2 -2.5
v 20.5 8.2 -2.6
v 20.6 8.2 -2.6
v 20.6 8.2 -2.5
v 20.5 8.3 -2.5
v 20.5 8.2 -2.5
v 20.6 8.2 -2.5
v 20.6 8.3 -2.5
v 20.6 8.3 -2.6
v 20.6 8.2 -2.6
v 20.5 8.2 -2.6
v 20.5 8.3 -2.6
v 20.9 7.7 -2.6
v 20.9 7.6 -2.6
v 20.9 7.6 -2.5
v 20.9 7.7 -2.5
v 21 7.7 -2.5
v 21 7.6 -2.5
v 21 7.6 -2.6
v 21 7.7 -2.6
v 20.9 7.7 -2.6
v 20.9 7.7 -2.5
v 21 7.7 -2.5
v 21 7.7 -2.6
v 20.9 7.6 -2.5
v 20.9 7.6 -2.6
v 21 7.6 -2.6
v 21 7.6 -2.5
v 20.9 7.7 -2.5
v 20.9 7.6 -2.5
v 21 7.6 -2.5
v 21 7.7 -2.5
v 21 7.7 -2.6
v 21 7.6 -2.6
v 20.9 7.6 -2.6
v 20.9 7.7 -2.6
v 21 7.6 -2.6
v 21 7.5 -2.6
v 21 7.5 -2.5
v 21 7.6 -2.5
v 21 7.6 -2.6
v 21 7.6 -2.5
v 21.1 7.6 -2.5
v 21.1 7.6 -2.6
v 21 7.5 -2.5
v 21 7.5 -2.6
v 21.1 7.5 -2.6
v 21.1 7.5 -2.5
v 21 7.6 -2.5
v 21 7.5 -2.5
v 21.1 7.5 -2.5
v 21.1 7.6 -2.5
v 21.1 7.6 -2.6
v 21.1 7.5 -2.6
v 21 7.5 -2.6
v 21 7.6 -2.6
v 21.1 7.6 -2.6
v 21.1 7.6 -2.5
v 21.2 7.6 -2.5
v 21.2 7.6 -2.6
v 21.1 7.5 -2.5
v 21.1 7.5 -2.6
v 21.2 7.5 -2.6
v 21.2 7.5 -2.5
v 21.1 7.6 -2.5
v 21.1 7.5 -2.5
v 21.2 7.5 -2.5
v 21.2 7.6 -2.5
v 21.2 7.6 -2.6
v 21.2 7.5 -2.6
v 21.1 7.5 -2.6
v 21.1 7.6 -2.6
v 21.2 7.6 -2.6
v 21.2 7.6 -2.5
v 21.3 7.6 -2.5
v 21.3 7.6 -2.6
v 21.2 7.5 -2.5
v 21.2 7.5 -2.6
v 21.3 7.5 -2.6
v 21.3 7.5 -2.5
v 21.2 7.6 -2.5
v 21.2 7.5 -2.5
v 21.3 7.5 -2.5
v 21.3 7.6 -2.5
v 21.3 7.6 -2.6
v 21.3 7.5 -2.6
v 21.2 7.5 -2.6
v 21.2 7.6 -2.6
v 21.4 7.6 -2.5
v 21.4 7.5 -2.5
v 21.4 7.5 -2.6
v 21.4 7.6 -2.6
v 21.3 7.6 -2.6
v 21.3 7.6 -2.5
v 21.4 7.6 -2.5
v 21.4 7.6 -2.6
v 21.3 7.6 -2.5
v 21.3 7.5 -2.5
v 21.4 7.5 -2.5
v 21.4 7.6 -2.5
v 21.4 7.6 -2.6
v 21.4 7.5 -2.6
v 21.3 7.5 -2.6
v 21.3 7.6 -2.6
v 21.3 7.5 -2.6
v 21.3 7.4 -2.6
v 21.3 7.4 -2.5
v 21.3 7.5 -2.5
v 21.3 7.4 -2.5
v 21.3 7.4 -2.6
v 21.4 7.4 -2.6
v 21.4 7.4 -2.5
v 21.3 7.5 -2.5
v 21.3 7.4 -2.5
v 21.4 7.4 -2.5
v 21.4 7.5 -2.5
v 21.4 7.5 -2.6
v 21.4 7.4 -2.6
v 21.3 7.4 -2.6
v 21.3 7.5 -2.6
v 21.4 7.5 -2.6
v 21.4 7.5 -2.5
v 21.5 7.5 -2.5
v 21.5 7.5 -2.6
v 21.4 7.4 -2.5
v 21.4 7.4 -2.6
v 21.5 7.4 -2.6
v 21.5 7.4 -2.5
v 21.4 7.5 -2.5
v 21.4 7.4 -2.5
v 21.5 7.4 -2.5
v 21.5 7.5 -2.5
v 21.5 7.5 -2.6
v 21.5 7.4 -2.6
v 21.4 7.4 -2.6
v 21.4 7.5 -2.6
v 21.5 7.5 -2.6
v 21.5 7.5 -2.5
v 21.6 7.5 -2.5
v 21.6 7.5 -2.6
v 21.5 7.4 -2.5
v 21.5 7.4 -2.6
v 21.6 7.4 -2.6
v 21.6 7.4 -2.5
v 21.5 7.5 -2.5
v 21.5 7.4 -2.5
v 21.6 7.4 -2.5
v 21.6 7.5 -2.5
v 21.6 7.5 -2.6
v 21.6 7.4 -2.6
v 21.5 7.4 -2.6
v 21.5 7.5 -2.6
v 21.7 7.5 -2.5
v 21.7 7.4 -2.5
v 21.7 7.4 -2.6
v 21.7 7.5 -2.6
v 21.6 7.5 -2.6
v 21.6 7.5 -2.5
v 21.7 7.5 -2.5
v 21.7 7.5 -2.6
v 21.6 7.5 -2.5
v 21.6 7.4 -2.5
v 21.7 7.4 -2.5
v 21.7 7.5 -2.5
v 21.7 7.5 -2.6
v 21.7 7.4 -2.6
v 21.6 7.4 -2.6
v 21.6 7.5 -2.6
v 21.6 7.4 -2.6
v 21.6 7.3 -2.6
v 21.6 7.3 -2.5
v 21.6 7.4 -2.5
v 21.6 7.3 -2.5
v 21.6 7.3 -2.6
v 21.7 7.3 -2.6
v 21.7 7.3 -2.5
v 21.6 7.4 -2.5
v 21.6 7.3 -2.5
v 21.7 7.3 -2.5
v 21.7 7.4 -2.5
v 21.7 7.4 -2.6
v 21.7 7.3 -2.6
v 21.6 7.3 -2.6
v 21.6 7.4 -2.6
v 21.7 7.4 -2.6
v 21.7 7.4 -2.5
v 21.8 7.4 -2.5
v 21.8 7.4 -2.6
v 21.7 7.3 -2.5
v 21.7 7.3 -2.6
v 21.8 7.3 -2.6
v 21.8 7.3 -2.5
v 21.7 7.4 -2.5
v 21.7 7.3 -2.5
v 21.8 7.3 -2.5
v 21.8 7.4 -2.5
v 21.8 7.4 -2.6
v 21.8 7.3 -2.6
v 21.7 7.3 -2.6
v 21.7 7.4 -2.6
v 21.8 7.4 -2.6
v 21.8 7.4 -2.5
v 21.9 7.4 -2.5
v 21.9 7.4 -2.6
v 21.8 7.4 -2.5
v 21.8 7.3 -2.5
v 21.9 7.3 -2.5
v 21.9 7.4 -2.5
v 21.9 7.4 -2.6
v 21.9 7.3 -2.6
v 21.8 7.3 -2.6
v 21.8 7.4 -2.6
v 21.9 7.4 -2.6
v 21.9 7.4 -2.5
v 22 7.4 -2.5
v 22 7.4 -2.6
v 21.9 7.4 -2.5
v 21.9 7.3 -2.5
v 22 7.3 -2.5
v 22 7.4 -2.5
v 22 7.4 -2.6
v 22 7.3 -2.6
v 21.9 7.3 -2.6
v 21.9 7.4 -2.6
v 22.1 7.4 -2.5
v 22.1 7.3 -2.5
v 22.1 7.3 -2.6
v 22.1 7.4 -2.6
v 22 7.4 -2.6
v 22 7.4 -2.5
v 22.1 7.4 -2.5
v 22.1 7.4 -2.6
v 22 7.4 -2.5
v 22 7.3 -2.5
v 22.1 7.3 -2.5
v 22.1 7.4 -2.5
v 22.1 7.4 -2.6
v 22.1 7.3 -2.6
v 22 7.3 -2.6
v 22 7.4 -2.6
v 21.8 7.3 -2.6
v 21.8 7.2 -2.6
v 21.8 7.2 -2.5
v 21.8 7.3 -2.5
v 21.8 7.2 -2.5
v 21.8 7.2 -2.6
v 21.9 7.2 -2.6
v 21.9 7.2 -2.5
v 21.8 7.3 -2.5
v 21.8 7.2 -2.5
v 21.9 7.2 -2.5
v 21.9 7.3 -2.5
v 21.9 7.3 -2.6
v 21.9 7.2 -2.6
v 21.8 7.2 -2.6
v 21.8 7.3 -2.6
v 21.9 7.2 -2.5
v 21.9 7.2 -2.6
v 22 7.2 -2.6
v 22 7.2 -2.5
v 21.9 7.3 -2.5
v 21.9 7.2 -2.5
v 22 7.2 -2.5
v 22 7.3 -2.5
v 22 7.3 -2.6
v 22 7.2 -2.6
v 21.9 7.2 -2.6
v 21.9 7.3 -2.6
v 22 7.3 -2.5
v 22 7.2 -2.5
v 22.1 7.2 -2.5
v 22.1 7.3 -2.5
v 22.1 7.3 -2.6
v 22.1 7.2 -2.6
v 22 7.2 -2.6
v 22 7.3 -2.6
v 22.1 7.3 -2.6
v 22.1 7.3 -2.5
v 22.2 7.3 -2.5
v 22.2 7.3 -2.6
v 22.1 7.3 -2.5
v 22.1 7.2 -2.5
v 22.2 7.2 -2.5
v 22.2 7.3 -2.5
v 22.2 7.3 -2.6
v 22.2 7.2 -2.6
v 22.1 7.2 -2.6
v 22.1 7.3 -2.6
v 22.2 7.3 -2.6
v 22.2 7.3 -2.5
v 22.3 7.3 -2.5
v 22.3 7.3 -2.6
v 22.2 7.3 -2.5
v 22.2 7.2 -2.5
v 22.3 7.2 -2.5
v 22.3 7.3 -2.5
v 22.3 7.3 -2.6
v 22.3 7.2 -2.6
v 22.2 7.2 -2.6
v 22.2 7.3 -2.6
v 22.3 7.3 -2.6
v 22.3 7.3 -2.5
v 22.4 7.3 -2.5
v 22.4 7.3 -2.6
v 22.3 7.3 -2.5
v 22.3 7.2 -2.5
v 22.4 7.2 -2.5
v 22.4 7.3 -2.5
v 22.4 7.3 -2.6
v 22.4 7.2 -2.6
v 22.3 7.2 -2.6
v 22.3 7.3 -2.6
v 22.5 7.3 -2.5
v 22.5 7.2 -2.5
v 22.5 7.2 -2.6
v 22.5 7.3 -2.6
v 22.4 7.3 -2.6
v 22.4 7.3 -2.5
v 22.5 7.3 -2.5
v 22.5 7.3 -2.6
v 22.4 7.3 -2.5
v 22.4 7.2 -2.5
v 22.5 7.2 -2.5
v 22.5 7.3 -2.5
v 22.5 7.3 -2.6
v 22.5 7.2 -2.6
v 22.4 7.2 -2.6
v 22.4 7.3 -2.6
v 22 7.2 -2.6
v 22 7.1 -2.6
v 22 7.1 -2.5
v 22 7.2 -2.5
v 22 7.1 -2.5
v 22 7.1 -2.6
v 22.1 7.1 -2.6
v 22.1 7.1 -2.5
v 22 7.2 -2.5
v 22 7.1 -2.5
v 22.1 7.1 -2.5
v 22.1 7.2 -2.5
v 22.1 7.2 -2.6
v 22.1 7.1 -2.6
v 22 7.1 -2.6
v 22 7.2 -2.6
v 22.1 7.1 -2.5
v 22.1 7.1 -2.6
v 22.2 7.1 -2.6
v 22.2 7.1 -2.5
v 22.1 7.2 -2.5
v 22.1 7.1 -2.5
v 22.2 7.1 -2.5
v 22.2 7.2 -2.5
v 22.2 7.2 -2.6
v 22.2 7.1 -2.6
v 22.1 7.1 -2.6
v 22.1 7.2 -2.6
v 22.2 7.2 -2.5
v 22.2 7.1 -2.5
v 22.3 7.1 -2.5
v 22.3 7.2 -2.5
v 22.3 7.2 -2.6
v 22.3 7.1 -2.6
v 22.2 7.1 -2.6
v 22.2 7.2 -2.6
v 22.3 7.2 -2.5
v 22.3 7.1 -2.5
v 22.4 7.1 -2.5
v 22.4 7.2 -2.5
v 22.4 7.2 -2.6
v 22.4 7.1 -2.6
v 22.3 7.1 -2.6
v 22.3 7.2 -2.6
v 22.4 7.2 -2.5
v 22.4 7.1 -2.5
v 22.5 7.1 -2.5
v 22.5 7.2 -2.5
v 22.5 7.2 -2.6
v 22.5 7.1 -2.6
v 22.4 7.1 -2.6
v 22.4 7.2 -2.6
v 22.5 7.2 -2.6
v 22.5 7.2 -2.5
v 22.6 7.2 -2.5
v 22.6 7.2 -2.6
v 22.5 7.2 -2.5
v 22.5 7.1 -2.5
v 22.6 7.1 -2.5
v 22.6 7.2 -2.5
v 22.6 7.2 -2.6
v 22.6 7.1 -2.6
v 22.5 7.1 -2.6
v 22.5 7.2 -2.6
v 22.6 7.2 -2.6
v 22.6 7.2 -2.5
v 22.7 7.2 -2.5
v 22.7 7.2 -2.6
v 22.6 7.2 -2.5
v 22.6 7.1 -2.5
v 22.7 7.1 -2.5
v 22.7 7.2 -2.5
v 22.7 7.2 -2.6
v 22.7 7.1 -2.6
v 22.6 7.1 -2.6
v 22.6 7.2 -2.6
v 22.7 7.2 -2.6
v 22.7 7.2 -2.5
v 22.8 7.2 -2.5
v 22.8 7.2 -2.6
v 22.7 7.2 -2.5
v 22.7 7.1 -2.5
v 22.8 7.1 -2.5
v 22.8 7.2 -2.5
v 22.8 7.2 -2.6
v 22.8 7.1 -2.6
v 22.7 7.1 -2.6
v 22.7 7.2 -2.6
v 22.9 7.2 -2.5
v 22.9 7.1 -2.5
v 22.9 7.1 -2.6
v 22.9 7.2 -2.6
v 22.8 7.2 -2.6
v 22.8 7.2 -2.5
v 22.9 7.2 -2.5
v 22.9 7.2 -2.6
v 22.8 7.2 -2.5
v 22.8 7.1 -2.5
v 22.9 7.1 -2.5
v 22.9 7.2 -2.5
v 22.9 7.2 -2.6
v 22.9 7.1 -2.6
v 22.8 7.1 -2.6
v 22.8 7.2 -2.6
v 22.2 7.1 -2.6
v 22.2 7 -2.6
v 22.2 7 -2.5
v 22.2 7.1 -2.5
v 22.2 7.1 -2.5
v 22.2 7 -2.5
v 22.3 7 -2.5
v 22.3 7.1 -2.5
v 22.3 7.1 -2.6
v 22.3 7 -2.6
v 22.2 7 -2.6
v 22.2 7.1 -2.6
v 22.3 7.1 -2.5
v 22.3 7 -2.5
v 22.4 7 -2.5
v 22.4 7.1 -2.5
v 22.4 7.1 -2.6
v 22.4 7 -2.6
v 22.3 7 -2.6
v 22.3 7.1 -2.6
v 22.4 7.1 -2.5
v 22.4 7 -2.5
v 22.5 7 -2.5
v 22.5 7.1 -2.5
v 22.5 7.1 -2.6
v 22.5 7 -2.6
v 22.4 7 -2.6
v 22.4 7.1 -2.6
v 22.5 7.1 -2.5
v 22.5 7 -2.5
v 22.6 7 -2.5
v 22.6 7.1 -2.5
v 22.6 7.1 -2.6
v 22.6 7 -2.6
v 22.5 7 -2.6
v 22.5 7.1 -2.6
v 22.6 7.1 -2.5
v 22.6 7 -2.5
v 22.7 7 -2.5
v 22.7 7.1 -2.5
v 22.7 7.1 -2.6
v 22.7 7 -2.6
v 22.6 7 -2.6
v 22.6 7.1 -2.6
v 22.7 7.1 -2.5
v 22.7 7 -2.5
v 22.8 7 -2.5
v 22.8 7.1 -2.5
v 22.8 7.1 -2.6
v 22.8 7 -2.6
v 22.7 7 -2.6
v 22.7 7.1 -2.6
v 22.8 7.1 -2.5
v 22.8 7 -2.5
v 22.9 7 -2.5
v 22.9 7.1 -2.5
v 22.9 7.1 -2.6
v 22.9 7 -2.6
v 22.8 7 -2.6
v 22.8 7.1 -2.6
v 22.9 7.1 -2.6
v 22.9 7.1 -2.5
v 23 7.1 -2.5
v 23 7.1 -2.6
v 22.9 7.1 -2.5
v 22.9 7 -2.5
v 23 7 -2.5
v 23 7.1 -2.5
v 23 7.1 -2.6
v 23 7 -2.6
v 22.9 7 -2.6
v 22.9 7.1 -2.6
v 23 7.1 -2.6
v 23 7.1 -2.5
v 23.1 7.1 -2.5
v 23.1 7.1 -2.6
v 23 7.1 -2.5
v 23 7 -2.5
v 23.1 7 -2.5
v 23.1 7.1 -2.5
v 23.1 7.1 -2.6
v 23.1 7 -2.6
v 23 7 -2.6
v 23 7.1 -2.6
v 23.1 7.1 -2.6
v 23.1 7.1 -2.5
v 23.2 7.1 -2.5
v 23.2 7.1 -2.6
v 23.1 7.1 -2.5
v 23.1 7 -2.5
v 23.2 7 -2.5
v 23.2 7.1 -2.5
v 23.2 7.1 -2.6
v 23.2 7 -2.6
v 23.1 7 -2.6
v 23.1 7.1 -2.6
v 23.2 7.1 -2.6
v 23.2 7.1 -2.5
v 23.3 7.1 -2.5
v 23.3 7.1 -2.6
v 23.2 7.1 -2.5
v 23.2 7 -2.5
v 23.3 7 -2.5
v 23.3 7.1 -2.5
v 23.3 7.1 -2.6
v 23.3 7 -2.6
v 23.2 7 -2.6
v 23.2 7.1 -2.6
v 23.4 7.1 -2.5
v 23.4 7 -2.5
v 23.4 7 -2.6
v 23.4 7.1 -2.6
v 23.3 7.1 -2.6
v 23.3 7.1 -2.5
v 23.4 7.1 -2.5
v 23.4 7.1 -2.6
v 23.3 7.1 -2.5
v 23.3 7 -2.5
v 23.4 7 -2.5
v 23.4 7.1 -2.5
v 23.4 7.1 -2.6
v 23.4 7 -2.6
v 23.3 7 -2.6
v 23.3 7.1 -2.6
v 22.2 7 -2.6
v 22.2 6.9 -2.6
v 22.2 6.9 -2.5
v 22.2 7 -2.5
v 22.2 7 -2.5
v 22.2 6.9 -2.5
v 22.3 6.9 -2.5
v 22.3 7 -2.5
v 22.3 7 -2.6
v 22.3 6.9 -2.6
v 22.2 6.9 -2.6
v 22.2 7 -2.6
v 22.3 7 -2.5
v 22.3 6.9 -2.5
v 22.4 6.9 -2.5
v 22.4 7 -2.5
v 22.4 7 -2.6
v 22.4 6.9 -2.6
v 22.3 6.9 -2.6
v 22.3 7 -2.6
v 22.4 7 -2.5
v 22.4 6.9 -2.5
v 22.5 6.9 -2.5
v 22.5 7 -2.5
v 22.5 7 -2.6
v 22.5 6.9 -2.6
v 22.4 6.9 -2.6
v 22.4 7 -2.6
v 22.5 7 -2.5
v 22.5 6.9 -2.5
v 22.6 6.9 -2.5
v 22.6 7 -2.5
v 22.6 7 -2.6
v 22.6 6.9 -2.6
v 22.5 6.9 -2.6
v 22.5 7 -2.6
v 22.6 7 -2.5
v 22.6 6.9 -2.5
v 22.7 6.9 -2.5
v 22.7 7 -2.5
v 22.7 7 -2.6
v 22.7 6.9 -2.6
v 22.6 6.9 -2.6
v 22.6 7 -2.6
v 22.7 7 -2.5
v 22.7 6.9 -2.5
v 22.8 6.9 -2.5
v 22.8 7 -2.5
v 22.8 7 -2.6
v 22.8 6.9 -2.6
v 22.7 6.9 -2.6
v 22.7 7 -2.6
v 22.8 7 -2.5
v 22.8 6.9 -2.5
v 22.9 6.9 -2.5
v 22.9 7 -2.5
v 22.9 7 -2.6
v 22.9 6.9 -2.6
v 22.8 6.9 -2.6
v 22.8 7 -2.6
v 22.9 7 -2.5
v 22.9 6.9 -2.5
v 23 6.9 -2.5
v 23 7 -2.5
v 23 7 -2.6
v 23 6.9 -2.6
v 22.9 6.9 -2.6
v 22.9 7 -2.6
v 23 7 -2.5
v 23 6.9 -2.5
v 23.1 6.9 -2.5
v 23.1 7 -2.5
v 23.1 7 -2.6
v 23.1 6.9 -2.6
v 23 6.9 -2.6
v 23 7 -2.6
v 23.1 7 -2.5
v 23.1 6.9 -2.5
v 23.2 6.9 -2.5
v 23.2 7 -2.5
v 23.2 7 -2.6
v 23.2 6.9 -2.6
v 23.1 6.9 -2.6
v 23.1 7 -2.6
v 23.2 7 -2.5
v 23.2 6.9 -2.5
v 23.3 6.9 -2.5
v 23.3 7 -2.5
v 23.3 7 -2.6
v 23.3 6.9 -2.6
v 23.2 6.9 -2.6
v 23.2 7 -2.6
v 23.3 6.9 -2.5
v 23.3 6.9 -2.6
v 23.4 6.9 -2.6
v 23.4 6.9 -2.5
v 23.3 7 -2.5
v 23.3 6.9 -2.5
v 23.4 6.9 -2.5
v 23.4 7 -2.5
v 23.4 7 -2.6
v 23.4 6.9 -2.6
v 23.3 6.9 -2.6
v 23.3 7 -2.6
v 23.5 7 -2.5
v 23.5 6.9 -2.5
v 23.5 6.9 -2.6
v 23.5 7 -2.6
v 23.4 7 -2.6
v 23.4 7 -2.5
v 23.5 7 -2.5
v 23.5 7 -2.6
v 23.4 6.9 -2.5
v 23.4 6.9 -2.6
v 23.5 6.9 -2.6
v 23.5 6.9 -2.5
v 23.4 7 -2.5
v 23.4 6.9 -2.5
v 23.5 6.9 -2.5
v 23.5 7 -2.5
v 23.5 7 -2.6
v 23.5 6.9 -2.6
v 23.4 6.9 -2.6
v 23.4 7 -2.6
v 22.2 6.9 -2.6
v 22.2 6.8 -2.6
v 22.2 6.8 -2.5
v 22.2 6.9 -2.5
v 22.2 6.9 -2.5
v 22.2 6.8 -2.5
v 22.3 6.8 -2.5
v 22.3 6.9 -2.5
v 22.3 6.9 -2.6
v 22.3 6.8 -2.6
v 22.2 6.8 -2.6
v 22.2 6.9 -2.6
v 22.3 6.9 -2.5
v 22.3 6.8 -2.5
v 22.4 6.8 -2.5
v 22.4 6.9 -2.5
v 22.4 6.9 -2.6
v 22.4 6.8 -2.6
v 22.3 6.8 -2.6
v 22.3 6.9 -2.6
v 22.4 6.9 -2.5
v 22.4 6.8 -2.5
v 22.5 6.8 -2.5
v 22.5 6.9 -2.5
v 22.5 6.9 -2.6
v 22.5 6.8 -2.6
v 22.4 6.8 -2.6
v 22.4 6.9 -2.6
v 22.5 6.9 -2.5
v 22.5 6.8 -2.5
v 22.6 6.8 -2.5
v 22.6 6.9 -2.5
v 22.6 6.9 -2.6
v 22.6 6.8 -2.6
v 22.5 6.8 -2.6
v 22.5 6.9 -2.6
v 22.6 6.9 -2.5
v 22.6 6.8 -2.5
v 22.7 6.8 -2.5
v 22.7 6.9 -2.5
v 22.7 6.9 -2.6
v 22.7 6.8 -2.6
v 22.6 6.8 -2.6
v 22.6 6.9 -2.6
v 22.7 6.9 -2.5
v 22.7 6.8 -2.5
v 22.8 6.8 -2.5
v 22.8 6.9 -2.5
v 22.8 6.9 -2.6
v 22.8 6.8 -2.6
v 22.7 6.8 -2.6
v 22.7 6.9 -2.6
v 22.8 6.9 -2.5
v 22.8 6.8 -2.5
v 22.9 6.8 -2.5
v 22.9 6.9 -2.5
v 22.9 6.9 -2.6
v 22.9 6.8 -2.6
v 22.8 6.8 -2.6
v 22.8 6.9 -2.6
v 22.9 6.9 -2.5
v 22.9 6.8 -2.5
v 23 6.8 -2.5
v 23 6.9 -2.5
v 23 6.9 -2.6
v 23 6.8 -2.6
v 22.9 6.8 -2.6
v 22.9 6.9 -2.6
v 23 6.8 -2.5
v 23 6.8 -2.6
v 23.1 6.8 -2.6
v 23.1 6.8 -2.5
v 23 6.9 -2.5
v 23 6.8 -2.5
v 23.1 6.8 -2.5
v 23.1 6.9 -2.5
v 23.1 6.9 -2.6
v 23.1 6.8 -2.6
v 23 6.8 -2.6
v 23 6.9 -2.6
v 23.1 6.8 -2.5
v 23.1 6.8 -2.6
v 23.2 6.8 -2.6
v 23.2 6.8 -2.5
v 23.1 6.9 -2.5
v 23.1 6.8 -2.5
v 23.2 6.8 -2.5
v 23.2 6.9 -2.5
v 23.2 6.9 -2.6
v 23.2 6.8 -2.6
v 23.1 6.8 -2.6
v 23.1 6.9 -2.6
v 23.3 6.9 -2.5
v 23.3 6.8 -2.5
v 23.3 6.8 -2.6
v 23.3 6.9 -2.6
v 23.2 6.8 -2.5
v 23.2 6.8 -2.6
v 23.3 6.8 -2.6
v 23.3 6.8 -2.5
v 23.2 6.9 -2.5
v 23.2 6.8 -2.5
v 23.3 6.8 -2.5
v 23.3 6.9 -2.5
v 23.3 6.9 -2.6
v 23.3 6.8 -2.6
v 23.2 6.8 -2.6
v 23.2 6.9 -2.6
v 22.1 6.8 -2.6
v 22.1 6.7 -2.6
v 22.1 6.7 -2.5
v 22.1 6.8 -2.5
v 22.1 6.8 -2.6
v 22.1 6.8 -2.5
v 22.2 6.8 -2.5
v 22.2 6.8 -2.6
v 22.1 6.8 -2.5
v 22.1 6.7 -2.5
v 22.2 6.7 -2.5
v 22.2 6.8 -2.5
v 22.2 6.8 -2.6
v 22.2 6.7 -2.6
v 22.1 6.7 -2.6
v 22.1 6.8 -2.6
v 22.2 6.8 -2.5
v 22.2 6.7 -2.5
v 22.3 6.7 -2.5
v 22.3 6.8 -2.5
v 22.3 6.8 -2.6
v 22.3 6.7 -2.6
v 22.2 6.7 -2.6
v 22.2 6.8 -2.6
v 22.3 6.8 -2.5
v 22.3 6.7 -2.5
v 22.4 6.7 -2.5
v 22.4 6.8 -2.5
v 22.4 6.8 -2.6
v 22.4 6.7 -2.6
v 22.3 6.7 -2.6
v 22.3 6.8 -2.6
v 22.4 6.8 -2.5
v 22.4 6.7 -2.5
v 22.5 6.7 -2.5
v 22.5 6.8 -2.5
v 22.5 6.8 -2.6
v 22.5 6.7 -2.6
v 22.4 6.7 -2.6
v 22.4 6.8 -2.6
v 22.5 6.8 -2.5
v 22.5 6.7 -2.5
v 22.6 6.7 -2.5
v 22.6 6.8 -2.5
v 22.6 6.8 -2.6
v 22.6 6.7 -2.6
v 22.5 6.7 -2.6
v 22.5 6.8 -2.6
v 22.6 6.7 -2.5
v 22.6 6.7 -2.6
v 22.7 6.7 -2.6
v 22.7 6.7 -2.5
v 22.6 6.8 -2.5
v 22.6 6.7 -2.5
v 22.7 6.7 -2.5
v 22.7 6.8 -2.5
v 22.7 6.8 -2.6
v 22.7 6.7 -2.6
v 22.6 6.7 -2.6
v 22.6 6.8 -2.6
v 22.7 6.7 -2.5
v 22.7 6.7 -2.6
v 22.8 6.7 -2.6
v 22.8 6.7 -2.5
v 22.7 6.8 -2.5
v 22.7 6.7 -2.5
v 22.8 6.7 -2.5
v 22.8 6.8 -2.5
v 22.8 6.8 -2.6
v 22.8 6.7 -2.6
v 22.7 6.7 -2.6
v 22.7 6.8 -2.6
v 22.8 6.7 -2.5
v 22.8 6.7 -2.6
v 22.9 6.7 -2.6
v 22.9 6.7 -2.5
v 22.8 6.8 -2.5
v 22.8 6.7 -2.5
v 22.9 6.7 -2.5
v 22.9 6.8 -2.5
v 22.9 6.8 -2.6
v 22.9 6.7 -2.6
v 22.8 6.7 -2.6
v 22.8 6.8 -2.6
v 23 6.8 -2.5
v 23 6.7 -2.5
v 23 6.7 -2.6
v 23 6.8 -2.6
v 22.9 6.7 -2.5
v 22.9 6.7 -2.6
v 23 6.7 -2.6
v 23 6.7 -2.5
v 22.9 6.8 -2.5
v 22.9 6.7 -2.5
v 23 6.7 -2.5
v 23 6.8 -2.5
v 23 6.8 -2.6
v 23 6.7 -2.6
v 22.9 6.7 -2.6
v 22.9 6.8 -2.6
v 21.9 6.7 -2.6
v 21.9 6.6 -2.6
v 21.9 6.6 -2.5
v 21.9 6.7 -2.5
v 21.9 6.7 -2.6
v 21.9 6.7 -2.5
v 22 6.7 -2.5
v 22 6.7 -2.6
v 21.9 6.7 -2.5
v 21.9 6.6 -2.5
v 22 6.6 -2.5
v 22 6.7 -2.5
v 22 6.7 -2.6
v 22 6.6 -2.6
v 21.9 6.6 -2.6
v 21.9 6.7 -2.6
v 22 6.7 -2.6
v 22 6.7 -2.5
v 22.1 6.7 -2.5
v 22.1 6.7 -2.6
v 22 6.7 -2.5
v 22 6.6 -2.5
v 22.1 6.6 -2.5
v 22.1 6.7 -2.5
v 22.1 6.7 -2.6
v 22.1 6.6 -2.6
v 22 6.6 -2.6
v 22 6.7 -2.6
v 22.1 6.6 -2.5
v 22.1 6.6 -2.6
v 22.2 6.6 -2.6
v 22.2 6.6 -2.5
v 22.1 6.7 -2.5
v 22.1 6.6 -2.5
v 22.2 6.6 -2.5
v 22.2 6.7 -2.5
v 22.2 6.7 -2.6
v 22.2 6.6 -2.6
v 22.1 6.6 -2.6
v 22.1 6.7 -2.6
v 22.2 6.6 -2.5
v 22.2 6.6 -2.6
v 22.3 6.6 -2.6
v 22.3 6.6 -2.5
v 22.2 6.7 -2.5
v 22.2 6.6 -2.5
v 22.3 6.6 -2.5
v 22.3 6.7 -2.5
v 22.3 6.7 -2.6
v 22.3 6.6 -2.6
v 22.2 6.6 -2.6
v 22.2 6.7 -2.6
v 22.3 6.6 -2.5
v 22.3 6.6 -2.6
v 22.4 6.6 -2.6
v 22.4 6.6 -2.5
v 22.3 6.7 -2.5
v 22.3 6.6 -2.5
v 22.4 6.6 -2.5
v 22.4 6.7 -2.5
v 22.4 6.7 -2.6
v 22.4 6.6 -2.6
v 22.3 6.6 -2.6
v 22.3 6.7 -2.6
v 22.4 6.6 -2.5
v 22.4 6.6 -2.6
v 22.5 6.6 -2.6
v 22.5 6.6 -2.5
v 22.4 6.7 -2.5
v 22.4 6.6 -2.5
v 22.5 6.6 -2.5
v 22.5 6.7 -2.5
v 22.5 6.7 -2.6
v 22.5 6.6 -2.6
v 22.4 6.6 -2.6
v 22.4 6.7 -2.6
v 22.6 6.7 -2.5
v 22.6 6.6 -2.5
v 22.6 6.6 -2.6
v 22.6 6.7 -2.6
v 22.5 6.6 -2.5
v 22.5 6.6 -2.6
v 22.6 6.6 -2.6
v 22.6 6.6 -2.5
v 22.5 6.7 -2.5
v 22.5 6.6 -2.5
v 22.6 6.6 -2.5
v 22.6 6.7 -2.5
v 22.6 6.7 -2.6
v 22.6 6.6 -2.6
v 22.5 6.6 -2.6
v 22.5 6.7 -2.6
v 21.8 6.6 -2.6
v 21.8 6.5 -2.6
v 21.8 6.5 -2.5
v 21.8 6.6 -2.5
v 21.8 6.6 -2.6
v 21.8 6.6 -2.5
v 21.9 6.6 -2.5
v 21.9 6.6 -2.6
v 21.8 6.5 -2.5
v 21.8 6.5 -2.6
v 21.9 6.5 -2.6
v 21.9 6.5 -2.5
v 21.8 6.6 -2.5
v 21.8 6.5 -2.5
v 21.9 6.5 -2.5
v 21.9 6.6 -2.5
v 21.9 6.6 -2.6
v 21.9 6.5 -2.6
v 21.8 6.5 -2.6
v 21.8 6.6 -2.6
v 21.9 6.5 -2.5
v 21.9 6.5 -2.6
v 22 6.5 -2.6
v 22 6.5 -2.5
v 21.9 6.6 -2.5
v 21.9 6.5 -2.5
v 22 6.5 -2.5
v 22 6.6 -2.5
v 22 6.6 -2.6
v 22 6.5 -2.6
v 21.9 6.5 -2.6
v 21.9 6.6 -2.6
v 22.1 6.6 -2.5
v 22.1 6.5 -2.5
v 22.1 6.5 -2.6
v 22.1 6.6 -2.6
v 22 6.5 -2.5
v 22 6.5 -2.6
v 22.1 6.5 -2.6
v 22.1 6.5 -2.5
v 22 6.6 -2.5
v 22 6.5 -2.5
v 22.1 6.5 -2.5
v 22.1 6.6 -2.5
v 22.1 6.6 -2.6
v 22.1 6.5 -2.6
v 22 6.5 -2.6
v 22 6.6 -2.6

# faces
f 1/1/1 2/1/1 3/1/1 4/1/1
f 5/1/2 6/1/2 7/1/2 8/1/2
f 9/1/3 10/1/3 11/1/3 12/1/3
f 13/1/4 14/1/4 15/1/4 16/1/4
f 17/1/5 18/1/5 19/1/5 20/1/5
f 21/1/6 22/1/6 23/1/6 24/1/6
f 25/1/1 26/1/1 27/1/1 28/1/1
f 29/1/2 30/1/2 31/1/2 32/1/2
f 33/1/3 34/1/3 35/1/3 36/1/3
f 37/1/4 38/1/4 39/1/4 40/1/4
f 41/1/5 42/1/5 43/1/5 44/1/5
f 45/1/6 46/1/6 47/1/6 48/1/6
f 49/1/1 50/1/1 51/1/1 52/1/1
f 53/1/2 54/1/2 55/1/2 56/1/2
f 57/1/3 58/1/3 59/1/3 60/1/3
f 61/1/4 62/1/4 63/1/4 64/1/4
f 65/1/5 66/1/5 67/1/5 68/1/5
f 69/1/6 70/1/6 71/1/6 72/1/6
f 73/1/1 74/1/1 75/1/1 76/1/1
f 77/1/2 78/1/2 79/1/2 80/1/2
f 81/1/3 82/1/3 83/1/3 84/1/3
f 85/1/4 86/1/4 87/1/4 88/1/4
f 89/1/5 90/1/5 91/1/5 92/1/5
f 93/1/6 94/1/6 95/1/6 96/1/6
f 97/1/1 98/1/1 99/1/1 100/1/1
f 101/1/3 102/1/3 103/1/3 104/1/3
f 105/1/4 106/1/4 107/1/4 108/1/4
f 109/1/5 110/1/5 111/1/5 112/1/5
f 113/1/6 114/1/6 115/1/6 116/1/6
f 117/1/2 118/1/2 119/1/2 120/1/2
f 121/1/3 122/1/3 123/1/3 124/1/3
f 125/1/4 126/1/4 127/1/4 128/1/4
f 129/1/5 130/1/5 131/1/5 132/1/5
f 133/1/6 134/1/6 135/1/6 136/1/6
f 137/1/1 138/1/1 139/1/1 140/1/1
f 141/1/2 142/1/2 143/1/2 144/1/2
f 145/1/3 146/1/3 147/1/3 148/1/3
f 149/1/4 150/1/4 151/1/4 152/1/4
f 153/1/5 154/1/5 155/1/5 156/1/5
f 157/1/6 158/1/6 159/1/6 160/1/6
f 161/1/1 162/1/1 163/1/1 164/1/1
f 165/1/2 166/1/2 167/1/2 168/1/2
f 169/1/3 170/1/3 171/1/3 172/1/3
f 173/1/4 174/1/4 175/1/4 176/1/4
f 177/1/5 178/1/5 179/1/5 180/1/5
f 181/1/6 182/1/6 183/1/6 184/1/6
f 185/1/1 186/1/1 187/1/1 188/1/1
f 189/1/3 190/1/3 191/1/3 192/1/3
f 193/1/4 194/1/4 195/1/4 196/1/4
f 197/1/5 198/1/5 199/1/5 200/1/5
f 201/1/6 202/1/6 203/1/6 204/1/6
f 205/1/2 206/1/2 207/1/2 208/1/2
f 209/1/3 210/1/3 211/1/3 212/1/3
f 213/1/4 214/1/4 215/1/4 216/1/4
f 217/1/5 218/1/5 219/1/5 220/1/5
f 221/1/6 222/1/6 223/1/6 224/1/6
f 225/1/1 226/1/1 227/1/1 228/1/1
f 229/1/2 230/1/2 231/1/2 232/1/2
f 233/1/3 234/1/3 235/1/3 236/1/3
f 237/1/4 238/1/4 239/1/4 240/1/4
f 241/1/5 242/1/5 243/1/5 244/1/5
f 245/1/6 246/1/6 247/1/6 248/1/6
f 249/1/1 250/1/1 251/1/1 252/1/1
f 253/1/2 254/1/2 255/1/2 256/1/2
f 257/1/3 258/1/3 259/1/3 260/1/3
f 261/1/4 262/1/4 263/1/4 264/1/4
f 265/1/5 266/1/5 267/1/5 268/1/5
f 269/1/6 270/1/6 271/1/6 272/1/6
f 273/1/1 274/1/1 275/1/1 276/1/1
f 277/1/3 278/1/3 279/1/3 280/1/3
f 281/1/4 282/1/4 283/1/4 284/1/4
f 285/1/5 286/1/5 287/1/5 288/1/5
f 289/1/6 290/1/6 291/1/6 292/1/6
f 293/1/2 294/1/2 295/1/2 296/1/2
f 297/1/3 298/1/3 299/1/3 300/1/3
f 301/1/4 302/1/4 303/1/4 304/1/4
f 305/1/5 306/1/5 307/1/5 308/1/5
f 309/1/6 310/1/6 311/1/6 312/1/6
f 313/1/1 314/1/1 315/1/1 316/1/1
f 317/1/2 318/1/2 319/1/2 320/1/2
f 321/1/3 322/1/3 323/1/3 324/1/3
f 325/1/4 326/1/4 327/1/4 328/1/4
f 329/1/5 330/1/5 331/1/5 332/1/5
f 333/1/6 334/1/6 335/1/6 336/1/6
f 337/1/1 338/1/1 339/1/1 340/1/1
f 341/1/2 342/1/2 343/1/2 344/1/2
f 345/1/3 346/1/3 347/1/3 348/1/3
f 349/1/4 350/1/4 351/1/4 352/1/4
f 353/1/5 354/1/5 355/1/5 356/1/5
f 357/1/6 358/1/6 359/1/6 360/1/6
f 361/1/1 362/1/1 363/1/1 364/1/1
f 365/1/2 366/1/2 367/1/2 368/1/2
f 369/1/3 370/1/3 371/1/3 372/1/3
f 373/1/4 374/1/4 375/1/4 376/1/4
f 377/1/5 378/1/5 379/1/5 380/1/5
f 381/1/6 382/1/6 383/1/6 384/1/6
f 385/1/1 386/1/1 387/1/1 388/1/1
f 389/1/2 390/1/2 391/1/2 392/1/2
f 393/1/3 394/1/3 395/1/3 396/1/3
f 397/1/4 398/1/4 399/1/4 400/1/4
f 401/1/5 402/1/5 403/1/5 404/1/5
f 405/1/6 406/1/6 407/1/6 408/1/6
f 409/1/1 410/1/1 411/1/1 412/1/1
f 413/1/2 414/1/2 415/1/2 416/1/2
f 417/1/3 418/1/3 419/1/3 420/1/3
f 421/1/4 422/1/4 423/1/4 424/1/4
f 425/1/5 426/1/5 427/1/5 428/1/5
f 429/1/6 430/1/6 431/1/6 432/1/6
f 433/1/1 434/1/1 435/1/1 436/1/1
f 437/1/2 438/1/2 439/1/2 440/1/2
f 441/1/3 442/1/3 443/1/3 444/1/3
f 445/1/4 446/1/4 447/1/4 448/1/4
f 449/1/5 450/1/5 451/1/5 452/1/5
f 453/1/6 454/1/6 455/1/6 456/1/6
f 457/1/1 458/1/1 459/1/1 460/1/1
f 461/1/2 462/1/2 463/1/2 464/1/2
f 465/1/3 466/1/3 467/1/3 468/1/3
f 469/1/5 470/1/5 471/1/5 472/1/5
f 473/1/6 474/1/6 475/1/6 476/1/6
f 477/1/1 478/1/1 479/1/1 480/1/1
f 481/1/3 482/1/3 483/1/3 484/1/3
f 485/1/5 486/1/5 487/1/5 488/1/5
f 489/1/6 490/1/6 491/1/6 492/1/6
f 493/1/5 494/1/5 495/1/5 496/1/5
f 497/1/6 498/1/6 499/1/6 500/1/6
f 501/1/3 502/1/3 503/1/3 504/1/3
f 505/1/5 506/1/5 507/1/5 508/1/5
f 509/1/6 510/1/6 511/1/6 512/1/6
f 513/1/2 514/1/2 515/1/2 516/1/2
f 517/1/3 518/1/3 519/1/3 520/1/3
f 521/1/5 522/1/5 523/1/5 524/1/5
f 525/1/6 526/1/6 527/1/6 528/1/6
f 529/1/1 530/1/1 531/1/1 532/1/1
f 533/1/4 534/1/4 535/1/4 536/1/4
f 537/1/5 538/1/5 539/1/5 540/1/5
f 541/1/6 542/1/6 543/1/6 544/1/6
f 545/1/4 546/1/4 547/1/4 548/1/4
f 549/1/5 550/1/5 551/1/5 552/1/5
f 553/1/6 554/1/6 555/1/6 556/1/6
f 557/1/5 558/1/5 559/1/5 560/1/5
f 561/1/6 562/1/6 563/1/6 564/1/6
f 565/1/5 566/1/5 567/1/5 568/1/5
f 569/1/6 570/1/6 571/1/6 572/1/6
f 573/1/3 574/1/3 575/1/3 576/1/3
f 577/1/5 578/1/5 579/1/5 580/1/5
f 581/1/6 582/1/6 583/1/6 584/1/6
f 585/1/2 586/1/2 587/1/2 588/1/2
f 589/1/3 590/1/3 591/1/3 592/1/3
f 593/1/5 594/1/5 595/1/5 596/1/5
f 597/1/6 598/1/6 599/1/6 600/1/6
f 601/1/1 602/1/1 603/1/1 604/1/1
f 605/1/4 606/1/4 607/1/4 608/1/4
f 609/1/5 610/1/5 611/1/5 612/1/5
f 613/1/6 614/1/6 615/1/6 616/1/6
f 617/1/4 618/1/4 619/1/4 620/1/4
f 621/1/5 622/1/5 623/1/5 624/1/5
f 625/1/6 626/1/6 627/1/6 628/1/6
f 629/1/4 630/1/4 631/1/4 632/1/4
f 633/1/5 634/1/5 635/1/5 636/1/5
f 637/1/6 638/1/6 639/1/6 640/1/6
f 641/1/5 642/1/5 643/1/5 644/1/5
f 645/1/6 646/1/6 647/1/6 648/1/6
f 649/1/3 650/1/3 651/1/3 652/1/3
f 653/1/5 654/1/5 655/1/5 656/1/5
f 657/1/6 658/1/6 659/1/6 660/1/6
f 661/1/3 662/1/3 663/1/3 664/1/3
f 665/1/5 666/1/5 667/1/5 668/1/5
f 669/1/6 670/1/6 671/1/6 672/1/6
f 673/1/2 674/1/2 675/1/2 676/1/2
f 677/1/3 678/1/3 679/1/3 680/1/3
f 681/1/5 682/1/5 683/1/5 684/1/5
f 685/1/6 686/1/6 687/1/6 688/1/6
f 689/1/1 690/1/1 691/1/1 692/1/1
f 693/1/4 694/1/4 695/1/4 696/1/4
f 697/1/5 698/1/5 699/1/5 700/1/5
f 701/1/6 702/1/6 703/1/6 704/1/6
f 705/1/4 706/1/4 707/1/4 708/1/4
f 709/1/5 710/1/5 711/1/5 712/1/5
f 713/1/6 714/1/6 715/1/6 716/1/6
f 717/1/4 718/1/4 719/1/4 720/1/4
f 721/1/5 722/1/5 723/1/5 724/1/5
f 725/1/6 726/1/6 727/1/6 728/1/6
f 729/1/5 730/1/5 731/1/5 732/1/5
f 733/1/6 734/1/6 735/1/6 736/1/6
f 737/1/3 738/1/3 739/1/3 740/1/3
f 741/1/5 742/1/5 743/1/5 744/1/5
f 745/1/6 746/1/6 747/1/6 748/1/6
f 749/1/2 750/1/2 751/1/2 752/1/2
f 753/1/3 754/1/3 755/1/3 756/1/3
f 757/1/5 758/1/5 759/1/5 760/1/5
f 761/1/6 762/1/6 763/1/6 764/1/6
f 765/1/1 766/1/1 767/1/1 768/1/1
f 769/1/4 770/1/4 771/1/4 772/1/4
f 773/1/5 774/1/5 775/1/5 776/1/5
f 777/1/6 778/1/6 779/1/6 780/1/6
f 781/1/4 782/1/4 783/1/4 784/1/4
f 785/1/5 786/1/5 787/1/5 788/1/5
f 789/1/6 790/1/6 791/1/6 792/1/6
f 793/1/4 794/1/4 795/1/4 796/1/4
f 797/1/5 798/1/5 799/1/5 800/1/5
f 801/1/6 802/1/6 803/1/6 804/1/6
f 805/1/3 806/1/3 807/1/3 808/1/3
f 809/1/5 810/1/5 811/1/5 812/1/5
f 813/1/6 814/1/6 815/1/6 816/1/6
f 817/1/2 818/1/2 819/1/2 820/1/2
f 821/1/3 822/1/3 823/1/3 824/1/3
f 825/1/5 826/1/5 827/1/5 828/1/5
f 829/1/6 830/1/6 831/1/6 832/1/6
f 833/1/1 834/1/1 835/1/1 836/1/1
f 837/1/4 838/1/4 839/1/4 840/1/4
f 841/1/5 842/1/5 843/1/5 844/1/5
f 845/1/6 846/1/6 847/1/6 848/1/6
f 849/1/4 850/1/4 851/1/4 852/1/4
f 853/1/5 854/1/5 855/1/5 856/1/5
f 857/1/6 858/1/6 859/1/6 860/1/6
f 861/1/3 862/1/3 863/1/3 864/1/3
f 865/1/4 866/1/4 867/1/4 868/1/4
f 869/1/5 870/1/5 871/1/5 872/1/5
f 873/1/6 874/1/6 875/1/6 876/1/6
f 877/1/2 878/1/2 879/1/2 880/1/2
f 881/1/3 882/1/3 883/1/3 884/1/3
f 885/1/5 886/1/5 887/1/5 888/1/5
f 889/1/6 890/1/6 891/1/6 892/1/6
f 893/1/1 894/1/1 895/1/1 896/1/1
f 897/1/4 898/1/4 899/1/4 900/1/4
f 901/1/5 902/1/5 903/1/5 904/1/5
f 905/1/6 906/1/6 907/1/6 908/1/6
f 909/1/3 910/1/3 911/1/3 912/1/3
f 913/1/4 914/1/4 915/1/4 916/1/4
f 917/1/5 918/1/5 919/1/5 920/1/5
f 921/1/6 922/1/6 923/1/6 924/1/6
f 925/1/2 926/1/2 927/1/2 928/1/2
f 929/1/3 930/1/3 931/1/3 932/1/3
f 933/1/5 934/1/5 935/1/5 936/1/5
f 937/1/6 938/1/6 939/1/6 940/1/6
f 941/1/1 942/1/1 943/1/1 944/1/1
f 945/1/4 946/1/4 947/1/4 948/1/4
f 949/1/5 950/1/5 951/1/5 952/1/5
f 953/1/6 954/1/6 955/1/6 956/1/6
f 957/1/3 958/1/3 959/1/3 960/1/3
f 961/1/4 962/1/4 963/1/4 964/1/4
f 965/1/5 966/1/5 967/1/5 968/1/5
f 969/1/6 970/1/6 971/1/6 972/1/6
f 973/1/3 974/1/3 975/1/3 976/1/3
f 977/1/4 978/1/4 979/1/4 980/1/4
f 981/1/5 982/1/5 983/1/5 984/1/5
f 985/1/6 986/1/6 987/1/6 988/1/6
f 989/1/2 990/1/2 991/1/2 992/1/2
f 993/1/3 994/1/3 995/1/3 996/1/3
f 997/1/5 998/1/5 999/1/5 1000/1/5
f 1001/1/6 1002/1/6 1003/1/6 1004/1/6
f 1005/1/1 1006/1/1 1007/1/1 1008/1/1
f 1009/1/4 1010/1/4 1011/1/4 1012/1/4
f 1013/1/5 1014/1/5 1015/1/5 1016/1/5
f 1017/1/6 1018/1/6 1019/1/6 1020/1/6
f 1021/1/3 1022/1/3 1023/1/3 1024/1/3
f 1025/1/4 1026/1/4 1027/1/4 1028/1/4
f 1029/1/5 1030/1/5 1031/1/5 1032/1/5
f 1033/1/6 1034/1/6 1035/1/6 1036/1/6
f 1037/1/2 1038/1/2 1039/1/2 1040/1/2
f 1041/1/3 1042/1/3 1043/1/3 1044/1/3
f 1045/1/4 1046/1/4 1047/1/4 1048/1/4
f 1049/1/5 1050/1/5 1051/1/5 1052/1/5
f 1053/1/6 1054/1/6 1055/1/6 1056/1/6
f 1057/1/1 1058/1/1 1059/1/1 1060/1/1
f 1061/1/3 1062/1/3 1063/1/3 1064/1/3
f 1065/1/4 1066/1/4 1067/1/4 1068/1/4
f 1069/1/5 1070/1/5 1071/1/5 1072/1/5
f 1073/1/6 1074/1/6 1075/1/6 1076/1/6
f 1077/1/2 1078/1/2 1079/1/2 1080/1/2
f 1081/1/3 1082/1/3 1083/1/3 1084/1/3
f 1085/1/4 1086/1/4 1087/1/4 1088/1/4
f 1089/1/5 1090/1/5 1091/1/5 1092/1/5
f 1093/1/6 1094/1/6 1095/1/6 1096/1/6
f 1097/1/1 1098/1/1 1099/1/1 1100/1/1
f 1101/1/3 1102/1/3 1103/1/3 1104/1/3
f 1105/1/4 1106/1/4 1107/1/4 1108/1/4
f 1109/1/5 1110/1/5 1111/1/5 1112/1/5
f 1113/1/6 1114/1/6 1115/1/6 1116/1/6
f 1117/1/2 1118/1/2 1119/1/2 1120/1/2
f 1121/1/3 1122/1/3 1123/1/3 1124/1/3
f 1125/1/4 1126/1/4 1127/1/4 1128/1/4
f 1129/1/5 1130/1/5 1131/1/5 1132/1/5
f 1133/1/6 1134/1/6 1135/1/6 1136/1/6
f 1137/1/1 1138/1/1 1139/1/1 1140/1/1
f 1141/1/3 1142/1/3 1143/1/3 1144/1/3
f 1145/1/4 1146/1/4 1147/1/4 1148/1/4
f 1149/1/5 1150/1/5 1151/1/5 1152/1/5
f 1153/1/6 1154/1/6 1155/1/6 1156/1/6
f 1157/1/2 1158/1/2 1159/1/2 1160/1/2
f 1161/1/3 1162/1/3 1163/1/3 1164/1/3
f 1165/1/4 1166/1/4 1167/1/4 1168/1/4
f 1169/1/5 1170/1/5 1171/1/5 1172/1/5
f 1173/1/6 1174/1/6 1175/1/6 1176/1/6
f 1177/2/1 1178/2/1 1179/2/1 1180/2/1
f 1181/2/2 1182/2/2 1183/2/2 1184/2/2
f 1185/2/3 1186/2/3 1187/2/3 1188/2/3
f 1189/2/4 1190/2/4 1191/2/4 1192/2/4
f 1193/2/5 1194/2/5 1195/2/5 1196/2/5
f 1197/2/6 1198/2/6 1199/2/6 1200/2/6
f 1201/2/1 1202/2/1 1203/2/1 1204/2/1
f 1205/2/3 1206/2/3 1207/2/3 1208/2/3
f 1209/2/4 1210/2/4 1211/2/4 1212/2/4
f 1213/2/5 1214/2/5 1215/2/5 1216/2/5
f 1217/2/6 1218/2/6 1219/2/6 1220/2/6
f 1221/2/3 1222/2/3 1223/2/3 1224/2/3
f 1225/2/4 1226/2/4 1227/2/4 1228/2/4
f 1229/2/5 1230/2/5 1231/2/5 1232/2/5
f 1233/2/6 1234/2/6 1235/2/6 1236/2/6
f 1237/2/3 1238/2/3 1239/2/3 1240/2/3
f 1241/2/4 1242/2/4 1243/2/4 1244/2/4
f 1245/2/5 1246/2/5 1247/2/5 1248/2/5
f 1249/2/6 1250/2/6 1251/2/6 1252/2/6
f 1253/2/2 1254/2/2 1255/2/2 1256/2/2
f 1257/2/3 1258/2/3 1259/2/3 1260/2/3
f 1261/2/5 1262/2/5 1263/2/5 1264/2/5
f 1265/2/6 1266/2/6 1267/2/6 1268/2/6
f 1269/2/1 1270/2/1 1271/2/1 1272/2/1
f 1273/2/4 1274/2/4 1275/2/4 1276/2/4
f 1277/2/5 1278/2/5 1279/2/5 1280/2/5
f 1281/2/6 1282/2/6 1283/2/6 1284/2/6
f 1285/2/3 1286/2/3 1287/2/3 1288/2/3
f 1289/2/4 1290/2/4 1291/2/4 1292/2/4
f 1293/2/5 1294/2/5 1295/2/5 1296/2/5
f 1297/2/6 1298/2/6 1299/2/6 1300/2/6
f 1301/2/3 1302/2/3 1303/2/3 1304/2/3
f 1305/2/4 1306/2/4 1307/2/4 1308/2/4
f 1309/2/5 1310/2/5 1311/2/5 1312/2/5
f 1313/2/6 1314/2/6 1315/2/6 1316/2/6
f 1317/2/2 1318/2/2 1319/2/2 1320/2/2
f 1321/2/3 1322/2/3 1323/2/3 1324/2/3
f 1325/2/5 1326/2/5 1327/2/5 1328/2/5
f 1329/2/6 1330/2/6 1331/2/6 1332/2/6
f 1333/2/1 1334/2/1 1335/2/1 1336/2/1
f 1337/2/4 1338/2/4 1339/2/4 1340/2/4
f 1341/2/5 1342/2/5 1343/2/5 1344/2/5
f 1345/2/6 1346/2/6 1347/2/6 1348/2/6
f 1349/2/3 1350/2/3 1351/2/3 1352/2/3
f 1353/2/4 1354/2/4 1355/2/4 1356/2/4
f 1357/2/5 1358/2/5 1359/2/5 1360/2/5
f 1361/2/6 1362/2/6 1363/2/6 1364/2/6
f 1365/2/3 1366/2/3 1367/2/3 1368/2/3
f 1369/2/5 1370/2/5 1371/2/5 1372/2/5
f 1373/2/6 1374/2/6 1375/2/6 1376/2/6
f 1377/2/3 1378/2/3 1379/2/3 1380/2/3
f 1381/2/5 1382/2/5 1383/2/5 1384/2/5
f 1385/2/6 1386/2/6 1387/2/6 1388/2/6
f 1389/2/2 1390/2/2 1391/2/2 1392/2/2
f 1393/2/3 1394/2/3 1395/2/3 1396/2/3
f 1397/2/5 1398/2/5 1399/2/5 1400/2/5
f 1401/2/6 1402/2/6 1403/2/6 1404/2/6
f 1405/2/1 1406/2/1 1407/2/1 1408/2/1
f 1409/2/4 1410/2/4 1411/2/4 1412/2/4
f 1413/2/5 1414/2/5 1415/2/5 1416/2/5
f 1417/2/6 1418/2/6 1419/2/6 1420/2/6
f 1421/2/4 1422/2/4 1423/2/4 1424/2/4
f 1425/2/5 1426/2/5 1427/2/5 1428/2/5
f 1429/2/6 1430/2/6 1431/2/6 1432/2/6
f 1433/2/5 1434/2/5 1435/2/5 1436/2/5
f 1437/2/6 1438/2/6 1439/2/6 1440/2/6
f 1441/2/3 1442/2/3 1443/2/3 1444/2/3
f 1445/2/5 1446/2/5 1447/2/5 1448/2/5
f 1449/2/6 1450/2/6 1451/2/6 1452/2/6
f 1453/2/3 1454/2/3 1455/2/3 1456/2/3
f 1457/2/5 1458/2/5 1459/2/5 1460/2/5
f 1461/2/6 1462/2/6 1463/2/6 1464/2/6
f 1465/2/3 1466/2/3 1467/2/3 1468/2/3
f 1469/2/5 1470/2/5 1471/2/5 1472/2/5
f 1473/2/6 1474/2/6 1475/2/6 1476/2/6
f 1477/2/2 1478/2/2 1479/2/2 1480/2/2
f 1481/2/3 1482/2/3 1483/2/3 1484/2/3
f 1485/2/5 1486/2/5 1487/2/5 1488/2/5
f 1489/2/6 1490/2/6 1491/2/6 1492/2/6
f 1493/2/1 1494/2/1 1495/2/1 1496/2/1
f 1497/2/4 1498/2/4 1499/2/4 1500/2/4
f 1501/2/5 1502/2/5 1503/2/5 1504/2/5
f 1505/2/6 1506/2/6 1507/2/6 1508/2/6
f 1509/2/4 1510/2/4 1511/2/4 1512/2/4
f 1513/2/5 1514/2/5 1515/2/5 1516/2/5
f 1517/2/6 1518/2/6 1519/2/6 1520/2/6
f 1521/2/5 1522/2/5 1523/2/5 1524/2/5
f 1525/2/6 1526/2/6 1527/2/6 1528/2/6
f 1529/2/5 1530/2/5 1531/2/5 1532/2/5
f 1533/2/6 1534/2/6 1535/2/6 1536/2/6
f 1537/2/5 1538/2/5 1539/2/5 1540/2/5
f 1541/2/6 1542/2/6 1543/2/6 1544/2/6
f 1545/2/3 1546/2/3 1547/2/3 1548/2/3
f 1549/2/5 1550/2/5 1551/2/5 1552/2/5
f 1553/2/6 1554/2/6 1555/2/6 1556/2/6
f 1557/2/3 1558/2/3 1559/2/3 1560/2/3
f 1561/2/5 1562/2/5 1563/2/5 1564/2/5
f 1565/2/6 1566/2/6 1567/2/6 1568/2/6
f 1569/2/3 1570/2/3 1571/2/3 1572/2/3
f 1573/2/5 1574/2/5 1575/2/5 1576/2/5
f 1577/2/6 1578/2/6 1579/2/6 1580/2/6
f 1581/2/2 1582/2/2 1583/2/2 1584/2/2
f 1585/2/3 1586/2/3 1587/2/3 1588/2/3
f 1589/2/5 1590/2/5 1591/2/5 1592/2/5
f 1593/2/6 1594/2/6 1595/2/6 1596/2/6
f 1597/2/1 1598/2/1 1599/2/1 1600/2/1
f 1601/2/5 1602/2/5 1603/2/5 1604/2/5
f 1605/2/6 1606/2/6 1607/2/6 1608/2/6
f 1609/2/5 1610/2/5 1611/2/5 1612/2/5
f 1613/2/6 1614/2/6 1615/2/6 1616/2/6
f 1617/2/5 1618/2/5 1619/2/5 1620/2/5
f 1621/2/6 1622/2/6 1623/2/6 1624/2/6
f 1625/2/5 1626/2/5 1627/2/5 1628/2/5
f 1629/2/6 1630/2/6 1631/2/6 1632/2/6
f 1633/2/5 1634/2/5 1635/2/5 1636/2/5
f 1637/2/6 1638/2/6 1639/2/6 1640/2/6
f 1641/2/5 1642/2/5 1643/2/5 1644/2/5
f 1645/2/6 1646/2/6 1647/2/6 1648/2/6
f 1649/2/5 1650/2/5 1651/2/5 1652/2/5
f 1653/2/6 1654/2/6 1655/2/6 1656/2/6
f 1657/2/3 1658/2/3 1659/2/3 1660/2/3
f 1661/2/5 1662/2/5 1663/2/5 1664/2/5
f 1665/2/6 1666/2/6 1667/2/6 1668/2/6
f 1669/2/3 1670/2/3 1671/2/3 1672/2/3
f 1673/2/5 1674/2/5 1675/2/5 1676/2/5
f 1677/2/6 1678/2/6 1679/2/6 1680/2/6
f 1681/2/3 1682/2/3 1683/2/3 1684/2/3
f 1685/2/5 1686/2/5 1687/2/5 1688/2/5
f 1689/2/6 1690/2/6 1691/2/6 1692/2/6
f 1693/2/3 1694/2/3 1695/2/3 1696/2/3
f 1697/2/5 1698/2/5 1699/2/5 1700/2/5
f 1701/2/6 1702/2/6 1703/2/6 1704/2/6
f 1705/2/2 1706/2/2 1707/2/2 1708/2/2
f 1709/2/3 1710/2/3 1711/2/3 1712/2/3
f 1713/2/5 1714/2/5 1715/2/5 1716/2/5
f 1717/2/6 1718/2/6 1719/2/6 1720/2/6
f 1721/2/1 1722/2/1 1723/2/1 1724/2/1
f 1725/2/5 1726/2/5 1727/2/5 1728/2/5
f 1729/2/6 1730/2/6 1731/2/6 1732/2/6
f 1733/2/5 1734/2/5 1735/2/5 1736/2/5
f 1737/2/6 1738/2/6 1739/2/6 1740/2/6
f 1741/2/5 1742/2/5 1743/2/5 1744/2/5
f 1745/2/6 1746/2/6 1747/2/6 1748/2/6
f 1749/2/5 1750/2/5 1751/2/5 1752/2/5
f 1753/2/6 1754/2/6 1755/2/6 1756/2/6
f 1757/2/5 1758/2/5 1759/2/5 1760/2/5
f 1761/2/6 1762/2/6 1763/2/6 1764/2/6
f 1765/2/5 1766/2/5 1767/2/5 1768/2/5
f 1769/2/6 1770/2/6 1771/2/6 1772/2/6
f 1773/2/5 1774/2/5 1775/2/5 1776/2/5
f 1777/2/6 1778/2/6 1779/2/6 1780/2/6
f 1781/2/5 1782/2/5 1783/2/5 1784/2/5
f 1785/2/6 1786/2/6 1787/2/6 1788/2/6
f 1789/2/5 1790/2/5 1791/2/5 1792/2/5
f 1793/2/6 1794/2/6 1795/2/6 1796/2/6
f 1797/2/5 1798/2/5 1799/2/5 1800/2/5
f 1801/2/6 1802/2/6 1803/2/6 1804/2/6
f 1805/2/5 1806/2/5 1807/2/5 1808/2/5
f 1809/2/6 1810/2/6 1811/2/6 1812/2/6
f 1813/2/4 1814/2/4 1815/2/4 1816/2/4
f 1817/2/5 1818/2/5 1819/2/5 1820/2/5
f 1821/2/6 1822/2/6 1823/2/6 1824/2/6
f 1825/2/2 1826/2/2 1827/2/2 1828/2/2
f 1829/2/3 1830/2/3 1831/2/3 1832/2/3
f 1833/2/4 1834/2/4 1835/2/4 1836/2/4
f 1837/2/5 1838/2/5 1839/2/5 1840/2/5
f 1841/2/6 1842/2/6 1843/2/6 1844/2/6
f 1845/2/1 1846/2/1 1847/2/1 1848/2/1
f 1849/2/5 1850/2/5 1851/2/5 1852/2/5
f 1853/2/6 1854/2/6 1855/2/6 1856/2/6
f 1857/2/5 1858/2/5 1859/2/5 1860/2/5
f 1861/2/6 1862/2/6 1863/2/6 1864/2/6
f 1865/2/5 1866/2/5 1867/2/5 1868/2/5
f 1869/2/6 1870/2/6 1871/2/6 1872/2/6
f 1873/2/5 1874/2/5 1875/2/5 1876/2/5
f 1877/2/6 1878/2/6 1879/2/6 1880/2/6
f 1881/2/5 1882/2/5 1883/2/5 1884/2/5
f 1885/2/6 1886/2/6 1887/2/6 1888/2/6
f 1889/2/5 1890/2/5 1891/2/5 1892/2/5
f 1893/2/6 1894/2/6 1895/2/6 1896/2/6
f 1897/2/5 1898/2/5 1899/2/5 1900/2/5
f 1901/2/6 1902/2/6 1903/2/6 1904/2/6
f 1905/2/5 1906/2/5 1907/2/5 1908/2/5
f 1909/2/6 1910/2/6 1911/2/6 1912/2/6
f 1913/2/4 1914/2/4 1915/2/4 1916/2/4
f 1917/2/5 1918/2/5 1919/2/5 1920/2/5
f 1921/2/6 1922/2/6 1923/2/6 1924/2/6
f 1925/2/4 1926/2/4 1927/2/4 1928/2/4
f 1929/2/5 1930/2/5 1931/2/5 1932/2/5
f 1933/2/6 1934/2/6 1935/2/6 1936/2/6
f 1937/2/2 1938/2/2 1939/2/2 1940/2/2
f 1941/2/4 1942/2/4 1943/2/4 1944/2/4
f 1945/2/5 1946/2/5 1947/2/5 1948/2/5
f 1949/2/6 1950/2/6 1951/2/6 1952/2/6
f 1953/2/1 1954/2/1 1955/2/1 1956/2/1
f 1957/2/3 1958/2/3 1959/2/3 1960/2/3
f 1961/2/5 1962/2/5 1963/2/5 1964/2/5
f 1965/2/6 1966/2/6 1967/2/6 1968/2/6
f 1969/2/5 1970/2/5 1971/2/5 1972/2/5
f 1973/2/6 1974/2/6 1975/2/6 1976/2/6
f 1977/2/5 1978/2/5 1979/2/5 1980/2/5
f 1981/2/6 1982/2/6 1983/2/6 1984/2/6
f 1985/2/5 1986/2/5 1987/2/5 1988/2/5
f 1989/2/6 1990/2/6 1991/2/6 1992/2/6
f 1993/2/5 1994/2/5 1995/2/5 1996/2/5
f 1997/2/6 1998/2/6 1999/2/6 2000/2/6
f 2001/2/4 2002/2/4 2003/2/4 2004/2/4
f 2005/2/5 2006/2/5 2007/2/5 2008/2/5
f 2009/2/6 2010/2/6 2011/2/6 2012/2/6
f 2013/2/4 2014/2/4 2015/2/4 2016/2/4
f 2017/2/5 2018/2/5 2019/2/5 2020/2/5
f 2021/2/6 2022/2/6 2023/2/6 2024/2/6
f 2025/2/4 2026/2/4 2027/2/4 2028/2/4
f 2029/2/5 2030/2/5 2031/2/5 2032/2/5
f 2033/2/6 2034/2/6 2035/2/6 2036/2/6
f 2037/2/2 2038/2/2 2039/2/2 2040/2/2
f 2041/2/4 2042/2/4 2043/2/4 2044/2/4
f 2045/2/5 2046/2/5 2047/2/5 2048/2/5
f 2049/2/6 2050/2/6 2051/2/6 2052/2/6
f 2053/2/1 2054/2/1 2055/2/1 2056/2/1
f 2057/2/3 2058/2/3 2059/2/3 2060/2/3
f 2061/2/5 2062/2/5 2063/2/5 2064/2/5
f 2065/2/6 2066/2/6 2067/2/6 2068/2/6
f 2069/2/3 2070/2/3 2071/2/3 2072/2/3
f 2073/2/5 2074/2/5 2075/2/5 2076/2/5
f 2077/2/6 2078/2/6 2079/2/6 2080/2/6
f 2081/2/4 2082/2/4 2083/2/4 2084/2/4
f 2085/2/5 2086/2/5 2087/2/5 2088/2/5
f 2089/2/6 2090/2/6 2091/2/6 2092/2/6
f 2093/2/4 2094/2/4 2095/2/4 2096/2/4
f 2097/2/5 2098/2/5 2099/2/5 2100/2/5
f 2101/2/6 2102/2/6 2103/2/6 2104/2/6
f 2105/2/4 2106/2/4 2107/2/4 2108/2/4
f 2109/2/5 2110/2/5 2111/2/5 2112/2/5
f 2113/2/6 2114/2/6 2115/2/6 2116/2/6
f 2117/2/4 2118/2/4 2119/2/4 2120/2/4
f 2121/2/5 2122/2/5 2123/2/5 2124/2/5
f 2125/2/6 2126/2/6 2127/2/6 2128/2/6
f 2129/2/2 2130/2/2 2131/2/2 2132/2/2
f 2133/2/4 2134/2/4 2135/2/4 2136/2/4
f 2137/2/5 2138/2/5 2139/2/5 2140/2/5
f 2141/2/6 2142/2/6 2143/2/6 2144/2/6
f 2145/2/1 2146/2/1 2147/2/1 2148/2/1
f 2149/2/3 2150/2/3 2151/2/3 2152/2/3
f 2153/2/4 2154/2/4 2155/2/4 2156/2/4
f 2157/2/5 2158/2/5 2159/2/5 2160/2/5
f 2161/2/6 2162/2/6 2163/2/6 2164/2/6
f 2165/2/4 2166/2/4 2167/2/4 2168/2/4
f 2169/2/5 2170/2/5 2171/2/5 2172/2/5
f 2173/2/6 2174/2/6 2175/2/6 2176/2/6
f 2177/2/2 2178/2/2 2179/2/2 2180/2/2
f 2181/2/4 2182/2/4 2183/2/4 2184/2/4
f 2185/2/5 2186/2/5 2187/2/5 2188/2/5
f 2189/2/6 2190/2/6 2191/2/6 2192/2/6

