# generated by vox_to_obj_exporter
# scale=0.1 center=false ground=false y_up=true

mtllib Fight_760.mtl
usemtl palette

# normals
vn -1 0 0
vn 1 0 0
vn 0 1 0
vn 0 -1 0
vn 0 0 1
vn 0 0 -1

# texcoords
vt 0.162109375 0.5

# verts
v 26.4 4 -2.6
v 26.4 3.9 -2.6
v 26.4 3.9 -2.5
v 26.4 4 -2.5
v 26.5 4 -2.5
v 26.5 3.9 -2.5
v 26.5 3.9 -2.6
v 26.5 4 -2.6
v 26.4 4 -2.6
v 26.4 4 -2.5
v 26.5 4 -2.5
v 26.5 4 -2.6
v 26.4 4 -2.5
v 26.4 3.9 -2.5
v 26.5 3.9 -2.5
v 26.5 4 -2.5
v 26.5 4 -2.6
v 26.5 3.9 -2.6
v 26.4 3.9 -2.6
v 26.4 4 -2.6
v 26.4 3.9 -2.6
v 26.4 3.8 -2.6
v 26.4 3.8 -2.5
v 26.4 3.9 -2.5
v 26.4 3.9 -2.5
v 26.4 3.8 -2.5
v 26.5 3.8 -2.5
v 26.5 3.9 -2.5
v 26.5 3.9 -2.6
v 26.5 3.8 -2.6
v 26.4 3.8 -2.6
v 26.4 3.9 -2.6
v 26.6 3.9 -2.5
v 26.6 3.8 -2.5
v 26.6 3.8 -2.6
v 26.6 3.9 -2.6
v 26.5 3.9 -2.6
v 26.5 3.9 -2.5
v 26.6 3.9 -2.5
v 26.6 3.9 -2.6
v 26.5 3.9 -2.5
v 26.5 3.8 -2.5
v 26.6 3.8 -2.5
v 26.6 3.9 -2.5
v 26.6 3.9 -2.6
v 26.6 3.8 -2.6
v 26.5 3.8 -2.6
v 26.5 3.9 -2.6
v 26.4 3.8 -2.6
v 26.4 3.7 -2.6
v 26.4 3.7 -2.5
v 26.4 3.8 -2.5
v 26.4 3.8 -2.5
v 26.4 3.7 -2.5
v 26.5 3.7 -2.5
v 26.5 3.8 -2.5
v 26.5 3.8 -2.6
v 26.5 3.7 -2.6
v 26.4 3.7 -2.6
v 26.4 3.8 -2.6
v 26.5 3.8 -2.5
v 26.5 3.7 -2.5
v 26.6 3.7 -2.5
v 26.6 3.8 -2.5
v 26.6 3.8 -2.6
v 26.6 3.7 -2.6
v 26.5 3.7 -2.6
v 26.5 3.8 -2.6
v 26.7 3.8 -2.5
v 26.7 3.7 -2.5
v 26.7 3.7 -2.6
v 26.7 3.8 -2.6
v 26.6 3.8 -2.6
v 26.6 3.8 -2.5
v 26.7 3.8 -2.5
v 26.7 3.8 -2.6
v 26.6 3.8 -2.5
v 26.6 3.7 -2.5
v 26.7 3.7 -2.5
v 26.7 3.8 -2.5
v 26.7 3.8 -2.6
v 26.7 3.7 -2.6
v 26.6 3.7 -2.6
v 26.6 3.8 -2.6
v 26.4 3.7 -2.6
v 26.4 3.6 -2.6
v 26.4 3.6 -2.5
v 26.4 3.7 -2.5
v 26.4 3.7 -2.5
v 26.4 3.6 -2.5
v 26.5 3.6 -2.5
v 26.5 3.7 -2.5
v 26.5 3.7 -2.6
v 26.5 3.6 -2.6
v 26.4 3.6 -2.6
v 26.4 3.7 -2.6
v 26.5 3.7 -2.5
v 26.5 3.6 -2.5
v 26.6 3.6 -2.5
v 26.6 3.7 -2.5
v 26.6 3.7 -2.6
v 26.6 3.6 -2.6
v 26.5 3.6 -2.6
v 26.5 3.7 -2.6
v 26.6 3.7 -2.5
v 26.6 3.6 -2.5
v 26.7 3.6 -2.5
v 26.7 3.7 -2.5
v 26.7 3.7 -2.6
v 26.7 3.6 -2.6
v 26.6 3.6 -2.6
v 26.6 3.7 -2.6
v 26.8 3.7 -2.5
v 26.8 3.6 -2.5
v 26.8 3.6 -2.6
v 26.8 3.7 -2.6
v 26.7 3.7 -2.6
v 26.7 3.7 -2.5
v 26.8 3.7 -2.5
v 26.8 3.7 -2.6
v 26.7 3.7 -2.5
v 26.7 3.6 -2.5
v 26.8 3.6 -2.5
v 26.8 3.7 -2.5
v 26.8 3.7 -2.6
v 26.8 3.6 -2.6
v 26.7 3.6 -2.6
v 26.7 3.7 -2.6
v 25.7 3.6 -2.6
v 25.7 3.5 -2.6
v 25.7 3.5 -2.5
v 25.7 3.6 -2.5
v 25.8 3.6 -2.5
v 25.8 3.5 -2.5
v 25.8 3.5 -2.6
v 25.8 3.6 -2.6
v 25.7 3.6 -2.6
v 25.7 3.6 -2.5
v 25.8 3.6 -2.5
v 25.8 3.6 -2.6
v 25.7 3.6 -2.5
v 25.7 3.5 -2.5
v 25.8 3.5 -2.5
v 25.8 3.6 -2.5
v 25.8 3.6 -2.6
v 25.8 3.5 -2.6
v 25.7 3.5 -2.6
v 25.7 3.6 -2.6
v 26.3 3.6 -2.6
v 26.3 3.5 -2.6
v 26.3 3.5 -2.5
v 26.3 3.6 -2.5
v 26.3 3.6 -2.6
v 26.3 3.6 -2.5
v 26.4 3.6 -2.5
v 26.4 3.6 -2.6
v 26.3 3.6 -2.5
v 26.3 3.5 -2.5
v 26.4 3.5 -2.5
v 26.4 3.6 -2.5
v 26.4 3.6 -2.6
v 26.4 3.5 -2.6
v 26.3 3.5 -2.6
v 26.3 3.6 -2.6
v 26.4 3.6 -2.5
v 26.4 3.5 -2.5
v 26.5 3.5 -2.5
v 26.5 3.6 -2.5
v 26.5 3.6 -2.6
v 26.5 3.5 -2.6
v 26.4 3.5 -2.6
v 26.4 3.6 -2.6
v 26.5 3.6 -2.5
v 26.5 3.5 -2.5
v 26.6 3.5 -2.5
v 26.6 3.6 -2.5
v 26.6 3.6 -2.6
v 26.6 3.5 -2.6
v 26.5 3.5 -2.6
v 26.5 3.6 -2.6
v 26.6 3.6 -2.5
v 26.6 3.5 -2.5
v 26.7 3.5 -2.5
v 26.7 3.6 -2.5
v 26.7 3.6 -2.6
v 26.7 3.5 -2.6
v 26.6 3.5 -2.6
v 26.6 3.6 -2.6
v 26.7 3.5 -2.5
v 26.7 3.5 -2.6
v 26.8 3.5 -2.6
v 26.8 3.5 -2.5
v 26.7 3.6 -2.5
v 26.7 3.5 -2.5
v 26.8 3.5 -2.5
v 26.8 3.6 -2.5
v 26.8 3.6 -2.6
v 26.8 3.5 -2.6
v 26.7 3.5 -2.6
v 26.7 3.6 -2.6
v 26.9 3.6 -2.5
v 26.9 3.5 -2.5
v 26.9 3.5 -2.6
v 26.9 3.6 -2.6
v 26.8 3.6 -2.6
v 26.8 3.6 -2.5
v 26.9 3.6 -2.5
v 26.9 3.6 -2.6
v 26.8 3.6 -2.5
v 26.8 3.5 -2.5
v 26.9 3.5 -2.5
v 26.9 3.6 -2.5
v 26.9 3.6 -2.6
v 26.9 3.5 -2.6
v 26.8 3.5 -2.6
v 26.8 3.6 -2.6
v 25.6 3.5 -2.6
v 25.6 3.4 -2.6
v 25.6 3.4 -2.5
v 25.6 3.5 -2.5
v 25.6 3.5 -2.6
v 25.6 3.5 -2.5
v 25.7 3.5 -2.5
v 25.7 3.5 -2.6
v 25.6 3.5 -2.5
v 25.6 3.4 -2.5
v 25.7 3.4 -2.5
v 25.7 3.5 -2.5
v 25.7 3.5 -2.6
v 25.7 3.4 -2.6
v 25.6 3.4 -2.6
v 25.6 3.5 -2.6
v 25.7 3.5 -2.5
v 25.7 3.4 -2.5
v 25.8 3.4 -2.5
v 25.8 3.5 -2.5
v 25.8 3.5 -2.6
v 25.8 3.4 -2.6
v 25.7 3.4 -2.6
v 25.7 3.5 -2.6
v 25.9 3.5 -2.5
v 25.9 3.4 -2.5
v 25.9 3.4 -2.6
v 25.9 3.5 -2.6
v 25.8 3.5 -2.6
v 25.8 3.5 -2.5
v 25.9 3.5 -2.5
v 25.9 3.5 -2.6
v 25.8 3.5 -2.5
v 25.8 3.4 -2.5
v 25.9 3.4 -2.5
v 25.9 3.5 -2.5
v 25.9 3.5 -2.6
v 25.9 3.4 -2.6
v 25.8 3.4 -2.6
v 25.8 3.5 -2.6
v 26.3 3.5 -2.6
v 26.3 3.4 -2.6
v 26.3 3.4 -2.5
v 26.3 3.5 -2.5
v 26.3 3.5 -2.5
v 26.3 3.4 -2.5
v 26.4 3.4 -2.5
v 26.4 3.5 -2.5
v 26.4 3.5 -2.6
v 26.4 3.4 -2.6
v 26.3 3.4 -2.6
v 26.3 3.5 -2.6
v 26.4 3.4 -2.5
v 26.4 3.4 -2.6
v 26.5 3.4 -2.6
v 26.5 3.4 -2.5
v 26.4 3.5 -2.5
v 26.4 3.4 -2.5
v 26.5 3.4 -2.5
v 26.5 3.5 -2.5
v 26.5 3.5 -2.6
v 26.5 3.4 -2.6
v 26.4 3.4 -2.6
v 26.4 3.5 -2.6
v 26.5 3.4 -2.5
v 26.5 3.4 -2.6
v 26.6 3.4 -2.6
v 26.6 3.4 -2.5
v 26.5 3.5 -2.5
v 26.5 3.4 -2.5
v 26.6 3.4 -2.5
v 26.6 3.5 -2.5
v 26.6 3.5 -2.6
v 26.6 3.4 -2.6
v 26.5 3.4 -2.6
v 26.5 3.5 -2.6
v 26.7 3.5 -2.5
v 26.7 3.4 -2.5
v 26.7 3.4 -2.6
v 26.7 3.5 -2.6
v 26.6 3.4 -2.5
v 26.6 3.4 -2.6
v 26.7 3.4 -2.6
v 26.7 3.4 -2.5
v 26.6 3.5 -2.5
v 26.6 3.4 -2.5
v 26.7 3.4 -2.5
v 26.7 3.5 -2.5
v 26.7 3.5 -2.6
v 26.7 3.4 -2.6
v 26.6 3.4 -2.6
v 26.6 3.5 -2.6
v 26.8 3.5 -2.6
v 26.8 3.4 -2.6
v 26.8 3.4 -2.5
v 26.8 3.5 -2.5
v 26.8 3.4 -2.5
v 26.8 3.4 -2.6
v 26.9 3.4 -2.6
v 26.9 3.4 -2.5
v 26.8 3.5 -2.5
v 26.8 3.4 -2.5
v 26.9 3.4 -2.5
v 26.9 3.5 -2.5
v 26.9 3.5 -2.6
v 26.9 3.4 -2.6
v 26.8 3.4 -2.6
v 26.8 3.5 -2.6
v 26.9 3.5 -2.6
v 26.9 3.5 -2.5
v 27 3.5 -2.5
v 27 3.5 -2.6
v 26.9 3.5 -2.5
v 26.9 3.4 -2.5
v 27 3.4 -2.5
v 27 3.5 -2.5
v 27 3.5 -2.6
v 27 3.4 -2.6
v 26.9 3.4 -2.6
v 26.9 3.5 -2.6
v 27.1 3.5 -2.5
v 27.1 3.4 -2.5
v 27.1 3.4 -2.6
v 27.1 3.5 -2.6
v 27 3.5 -2.6
v 27 3.5 -2.5
v 27.1 3.5 -2.5
v 27.1 3.5 -2.6
v 27 3.5 -2.5
v 27 3.4 -2.5
v 27.1 3.4 -2.5
v 27.1 3.5 -2.5
v 27.1 3.5 -2.6
v 27.1 3.4 -2.6
v 27 3.4 -2.6
v 27 3.5 -2.6
v 25.5 3.4 -2.6
v 25.5 3.3 -2.6
v 25.5 3.3 -2.5
v 25.5 3.4 -2.5
v 25.5 3.4 -2.6
v 25.5 3.4 -2.5
v 25.6 3.4 -2.5
v 25.6 3.4 -2.6
v 25.5 3.3 -2.5
v 25.5 3.3 -2.6
v 25.6 3.3 -2.6
v 25.6 3.3 -2.5
v 25.5 3.4 -2.5
v 25.5 3.3 -2.5
v 25.6 3.3 -2.5
v 25.6 3.4 -2.5
v 25.6 3.4 -2.6
v 25.6 3.3 -2.6
v 25.5 3.3 -2.6
v 25.5 3.4 -2.6
v 25.6 3.4 -2.5
v 25.6 3.3 -2.5
v 25.7 3.3 -2.5
v 25.7 3.4 -2.5
v 25.7 3.4 -2.6
v 25.7 3.3 -2.6
v 25.6 3.3 -2.6
v 25.6 3.4 -2.6
v 25.7 3.4 -2.5
v 25.7 3.3 -2.5
v 25.8 3.3 -2.5
v 25.8 3.4 -2.5
v 25.8 3.4 -2.6
v 25.8 3.3 -2.6
v 25.7 3.3 -2.6
v 25.7 3.4 -2.6
v 25.9 3.4 -2.5
v 25.9 3.3 -2.5
v 25.9 3.3 -2.6
v 25.9 3.4 -2.6
v 25.8 3.4 -2.5
v 25.8 3.3 -2.5
v 25.9 3.3 -2.5
v 25.9 3.4 -2.5
v 25.9 3.4 -2.6
v 25.9 3.3 -2.6
v 25.8 3.3 -2.6
v 25.8 3.4 -2.6
v 26.2 3.4 -2.6
v 26.2 3.3 -2.6
v 26.2 3.3 -2.5
v 26.2 3.4 -2.5
v 26.2 3.4 -2.6
v 26.2 3.4 -2.5
v 26.3 3.4 -2.5
v 26.3 3.4 -2.6
v 26.2 3.3 -2.5
v 26.2 3.3 -2.6
v 26.3 3.3 -2.6
v 26.3 3.3 -2.5
v 26.2 3.4 -2.5
v 26.2 3.3 -2.5
v 26.3 3.3 -2.5
v 26.3 3.4 -2.5
v 26.3 3.4 -2.6
v 26.3 3.3 -2.6
v 26.2 3.3 -2.6
v 26.2 3.4 -2.6
v 26.4 3.4 -2.5
v 26.4 3.3 -2.5
v 26.4 3.3 -2.6
v 26.4 3.4 -2.6
v 26.3 3.3 -2.5
v 26.3 3.3 -2.6
v 26.4 3.3 -2.6
v 26.4 3.3 -2.5
v 26.3 3.4 -2.5
v 26.3 3.3 -2.5
v 26.4 3.3 -2.5
v 26.4 3.4 -2.5
v 26.4 3.4 -2.6
v 26.4 3.3 -2.6
v 26.3 3.3 -2.6
v 26.3 3.4 -2.6
v 26.9 3.4 -2.6
v 26.9 3.3 -2.6
v 26.9 3.3 -2.5
v 26.9 3.4 -2.5
v 26.9 3.3 -2.5
v 26.9 3.3 -2.6
v 27 3.3 -2.6
v 27 3.3 -2.5
v 26.9 3.4 -2.5
v 26.9 3.3 -2.5
v 27 3.3 -2.5
v 27 3.4 -2.5
v 27 3.4 -2.6
v 27 3.3 -2.6
v 26.9 3.3 -2.6
v 26.9 3.4 -2.6
v 27 3.3 -2.5
v 27 3.3 -2.6
v 27.1 3.3 -2.6
v 27.1 3.3 -2.5
v 27 3.4 -2.5
v 27 3.3 -2.5
v 27.1 3.3 -2.5
v 27.1 3.4 -2.5
v 27.1 3.4 -2.6
v 27.1 3.3 -2.6
v 27 3.3 -2.6
v 27 3.4 -2.6
v 27.1 3.4 -2.6
v 27.1 3.4 -2.5
v 27.2 3.4 -2.5
v 27.2 3.4 -2.6
v 27.1 3.4 -2.5
v 27.1 3.3 -2.5
v 27.2 3.3 -2.5
v 27.2 3.4 -2.5
v 27.2 3.4 -2.6
v 27.2 3.3 -2.6
v 27.1 3.3 -2.6
v 27.1 3.4 -2.6
v 27.3 3.4 -2.5
v 27.3 3.3 -2.5
v 27.3 3.3 -2.6
v 27.3 3.4 -2.6
v 27.2 3.4 -2.6
v 27.2 3.4 -2.5
v 27.3 3.4 -2.5
v 27.3 3.4 -2.6
v 27.2 3.4 -2.5
v 27.2 3.3 -2.5
v 27.3 3.3 -2.5
v 27.3 3.4 -2.5
v 27.3 3.4 -2.6
v 27.3 3.3 -2.6
v 27.2 3.3 -2.6
v 27.2 3.4 -2.6
v 25.6 3.3 -2.6
v 25.6 3.2 -2.6
v 25.6 3.2 -2.5
v 25.6 3.3 -2.5
v 25.6 3.2 -2.5
v 25.6 3.2 -2.6
v 25.7 3.2 -2.6
v 25.7 3.2 -2.5
v 25.6 3.3 -2.5
v 25.6 3.2 -2.5
v 25.7 3.2 -2.5
v 25.7 3.3 -2.5
v 25.7 3.3 -2.6
v 25.7 3.2 -2.6
v 25.6 3.2 -2.6
v 25.6 3.3 -2.6
v 25.7 3.2 -2.5
v 25.7 3.2 -2.6
v 25.8 3.2 -2.6
v 25.8 3.2 -2.5
v 25.7 3.3 -2.5
v 25.7 3.2 -2.5
v 25.8 3.2 -2.5
v 25.8 3.3 -2.5
v 25.8 3.3 -2.6
v 25.8 3.2 -2.6
v 25.7 3.2 -2.6
v 25.7 3.3 -2.6
v 25.8 3.2 -2.5
v 25.8 3.2 -2.6
v 25.9 3.2 -2.6
v 25.9 3.2 -2.5
v 25.8 3.3 -2.5
v 25.8 3.2 -2.5
v 25.9 3.2 -2.5
v 25.9 3.3 -2.5
v 25.9 3.3 -2.6
v 25.9 3.2 -2.6
v 25.8 3.2 -2.6
v 25.8 3.3 -2.6
v 26 3.3 -2.5
v 26 3.2 -2.5
v 26 3.2 -2.6
v 26 3.3 -2.6
v 25.9 3.3 -2.6
v 25.9 3.3 -2.5
v 26 3.3 -2.5
v 26 3.3 -2.6
v 25.9 3.2 -2.5
v 25.9 3.2 -2.6
v 26 3.2 -2.6
v 26 3.2 -2.5
v 25.9 3.3 -2.5
v 25.9 3.2 -2.5
v 26 3.2 -2.5
v 26 3.3 -2.5
v 26 3.3 -2.6
v 26 3.2 -2.6
v 25.9 3.2 -2.6
v 25.9 3.3 -2.6
v 27.1 3.3 -2.6
v 27.1 3.2 -2.6
v 27.1 3.2 -2.5
v 27.1 3.3 -2.5
v 27.1 3.2 -2.5
v 27.1 3.2 -2.6
v 27.2 3.2 -2.6
v 27.2 3.2 -2.5
v 27.1 3.3 -2.5
v 27.1 3.2 -2.5
v 27.2 3.2 -2.5
v 27.2 3.3 -2.5
v 27.2 3.3 -2.6
v 27.2 3.2 -2.6
v 27.1 3.2 -2.6
v 27.1 3.3 -2.6
v 27.2 3.2 -2.5
v 27.2 3.2 -2.6
v 27.3 3.2 -2.6
v 27.3 3.2 -2.5
v 27.2 3.3 -2.5
v 27.2 3.2 -2.5
v 27.3 3.2 -2.5
v 27.3 3.3 -2.5
v 27.3 3.3 -2.6
v 27.3 3.2 -2.6
v 27.2 3.2 -2.6
v 27.2 3.3 -2.6
v 27.4 3.3 -2.5
v 27.4 3.2 -2.5
v 27.4 3.2 -2.6
v 27.4 3.3 -2.6
v 27.3 3.3 -2.6
v 27.3 3.3 -2.5
v 27.4 3.3 -2.5
v 27.4 3.3 -2.6
v 27.3 3.3 -2.5
v 27.3 3.2 -2.5
v 27.4 3.2 -2.5
v 27.4 3.3 -2.5
v 27.4 3.3 -2.6
v 27.4 3.2 -2.6
v 27.3 3.2 -2.6
v 27.3 3.3 -2.6
v 28.1 3.3 -2.6
v 28.1 3.2 -2.6
v 28.1 3.2 -2.5
v 28.1 3.3 -2.5
v 28.1 3.3 -2.6
v 28.1 3.3 -2.5
v 28.2 3.3 -2.5
v 28.2 3.3 -2.6
v 28.1 3.3 -2.5
v 28.1 3.2 -2.5
v 28.2 3.2 -2.5
v 28.2 3.3 -2.5
v 28.2 3.3 -2.6
v 28.2 3.2 -2.6
v 28.1 3.2 -2.6
v 28.1 3.3 -2.6
v 28.3 3.3 -2.5
v 28.3 3.2 -2.5
v 28.3 3.2 -2.6
v 28.3 3.3 -2.6
v 28.2 3.3 -2.6
v 28.2 3.3 -2.5
v 28.3 3.3 -2.5
v 28.3 3.3 -2.6
v 28.2 3.3 -2.5
v 28.2 3.2 -2.5
v 28.3 3.2 -2.5
v 28.3 3.3 -2.5
v 28.3 3.3 -2.6
v 28.3 3.2 -2.6
v 28.2 3.2 -2.6
v 28.2 3.3 -2.6
v 22.2 3.2 -2.6
v 22.2 3.1 -2.6
v 22.2 3.1 -2.5
v 22.2 3.2 -2.5
v 22.2 3.2 -2.6
v 22.2 3.2 -2.5
v 22.3 3.2 -2.5
v 22.3 3.2 -2.6
v 22.2 3.2 -2.5
v 22.2 3.1 -2.5
v 22.3 3.1 -2.5
v 22.3 3.2 -2.5
v 22.3 3.2 -2.6
v 22.3 3.1 -2.6
v 22.2 3.1 -2.6
v 22.2 3.2 -2.6
v 22.3 3.2 -2.6
v 22.3 3.2 -2.5
v 22.4 3.2 -2.5
v 22.4 3.2 -2.6
v 22.3 3.2 -2.5
v 22.3 3.1 -2.5
v 22.4 3.1 -2.5
v 22.4 3.2 -2.5
v 22.4 3.2 -2.6
v 22.4 3.1 -2.6
v 22.3 3.1 -2.6
v 22.3 3.2 -2.6
v 22.5 3.2 -2.5
v 22.5 3.1 -2.5
v 22.5 3.1 -2.6
v 22.5 3.2 -2.6
v 22.4 3.2 -2.6
v 22.4 3.2 -2.5
v 22.5 3.2 -2.5
v 22.5 3.2 -2.6
v 22.4 3.2 -2.5
v 22.4 3.1 -2.5
v 22.5 3.1 -2.5
v 22.5 3.2 -2.5
v 22.5 3.2 -2.6
v 22.5 3.1 -2.6
v 22.4 3.1 -2.6
v 22.4 3.2 -2.6
v 27.3 3.2 -2.6
v 27.3 3.1 -2.6
v 27.3 3.1 -2.5
v 27.3 3.2 -2.5
v 27.3 3.1 -2.5
v 27.3 3.1 -2.6
v 27.4 3.1 -2.6
v 27.4 3.1 -2.5
v 27.3 3.2 -2.5
v 27.3 3.1 -2.5
v 27.4 3.1 -2.5
v 27.4 3.2 -2.5
v 27.4 3.2 -2.6
v 27.4 3.1 -2.6
v 27.3 3.1 -2.6
v 27.3 3.2 -2.6
v 27.4 3.2 -2.6
v 27.4 3.2 -2.5
v 27.5 3.2 -2.5
v 27.5 3.2 -2.6
v 27.4 3.1 -2.5
v 27.4 3.1 -2.6
v 27.5 3.1 -2.6
v 27.5 3.1 -2.5
v 27.4 3.2 -2.5
v 27.4 3.1 -2.5
v 27.5 3.1 -2.5
v 27.5 3.2 -2.5
v 27.5 3.2 -2.6
v 27.5 3.1 -2.6
v 27.4 3.1 -2.6
v 27.4 3.2 -2.6
v 27.5 3.2 -2.6
v 27.5 3.2 -2.5
v 27.6 3.2 -2.5
v 27.6 3.2 -2.6
v 27.5 3.1 -2.5
v 27.5 3.1 -2.6
v 27.6 3.1 -2.6
v 27.6 3.1 -2.5
v 27.5 3.2 -2.5
v 27.5 3.1 -2.5
v 27.6 3.1 -2.5
v 27.6 3.2 -2.5
v 27.6 3.2 -2.6
v 27.6 3.1 -2.6
v 27.5 3.1 -2.6
v 27.5 3.2 -2.6
v 27.7 3.2 -2.5
v 27.7 3.1 -2.5
v 27.7 3.1 -2.6
v 27.7 3.2 -2.6
v 27.6 3.2 -2.6
v 27.6 3.2 -2.5
v 27.7 3.2 -2.5
v 27.7 3.2 -2.6
v 27.6 3.1 -2.5
v 27.6 3.1 -2.6
v 27.7 3.1 -2.6
v 27.7 3.1 -2.5
v 27.6 3.2 -2.5
v 27.6 3.1 -2.5
v 27.7 3.1 -2.5
v 27.7 3.2 -2.5
v 27.7 3.2 -2.6
v 27.7 3.1 -2.6
v 27.6 3.1 -2.6
v 27.6 3.2 -2.6
v 28 3.2 -2.6
v 28 3.1 -2.6
v 28 3.1 -2.5
v 28 3.2 -2.5
v 28 3.2 -2.6
v 28 3.2 -2.5
v 28.1 3.2 -2.5
v 28.1 3.2 -2.6
v 28 3.1 -2.5
v 28 3.1 -2.6
v 28.1 3.1 -2.6
v 28.1 3.1 -2.5
v 28 3.2 -2.5
v 28 3.1 -2.5
v 28.1 3.1 -2.5
v 28.1 3.2 -2.5
v 28.1 3.2 -2.6
v 28.1 3.1 -2.6
v 28 3.1 -2.6
v 28 3.2 -2.6
v 28.1 3.1 -2.5
v 28.1 3.1 -2.6
v 28.2 3.1 -2.6
v 28.2 3.1 -2.5
v 28.1 3.2 -2.5
v 28.1 3.1 -2.5
v 28.2 3.1 -2.5
v 28.2 3.2 -2.5
v 28.2 3.2 -2.6
v 28.2 3.1 -2.6
v 28.1 3.1 -2.6
v 28.1 3.2 -2.6
v 28.3 3.2 -2.5
v 28.3 3.1 -2.5
v 28.3 3.1 -2.6
v 28.3 3.2 -2.6
v 28.2 3.1 -2.5
v 28.2 3.1 -2.6
v 28.3 3.1 -2.6
v 28.3 3.1 -2.5
v 28.2 3.2 -2.5
v 28.2 3.1 -2.5
v 28.3 3.1 -2.5
v 28.3 3.2 -2.5
v 28.3 3.2 -2.6
v 28.3 3.1 -2.6
v 28.2 3.1 -2.6
v 28.2 3.2 -2.6
v 22.1 3.1 -2.6
v 22.1 3 -2.6
v 22.1 3 -2.5
v 22.1 3.1 -2.5
v 22.1 3.1 -2.6
v 22.1 3.1 -2.5
v 22.2 3.1 -2.5
v 22.2 3.1 -2.6
v 22.1 3 -2.5
v 22.1 3 -2.6
v 22.2 3 -2.6
v 22.2 3 -2.5
v 22.1 3.1 -2.5
v 22.1 3 -2.5
v 22.2 3 -2.5
v 22.2 3.1 -2.5
v 22.2 3.1 -2.6
v 22.2 3 -2.6
v 22.1 3 -2.6
v 22.1 3.1 -2.6
v 22.2 3 -2.5
v 22.2 3 -2.6
v 22.3 3 -2.6
v 22.3 3 -2.5
v 22.2 3.1 -2.5
v 22.2 3 -2.5
v 22.3 3 -2.5
v 22.3 3.1 -2.5
v 22.3 3.1 -2.6
v 22.3 3 -2.6
v 22.2 3 -2.6
v 22.2 3.1 -2.6
v 22.3 3 -2.5
v 22.3 3 -2.6
v 22.4 3 -2.6
v 22.4 3 -2.5
v 22.3 3.1 -2.5
v 22.3 3 -2.5
v 22.4 3 -2.5
v 22.4 3.1 -2.5
v 22.4 3.1 -2.6
v 22.4 3 -2.6
v 22.3 3 -2.6
v 22.3 3.1 -2.6
v 22.4 3 -2.5
v 22.4 3 -2.6
v 22.5 3 -2.6
v 22.5 3 -2.5
v 22.4 3.1 -2.5
v 22.4 3 -2.5
v 22.5 3 -2.5
v 22.5 3.1 -2.5
v 22.5 3.1 -2.6
v 22.5 3 -2.6
v 22.4 3 -2.6
v 22.4 3.1 -2.6
v 22.6 3.1 -2.5
v 22.6 3 -2.5
v 22.6 3 -2.6
v 22.6 3.1 -2.6
v 22.5 3.1 -2.6
v 22.5 3.1 -2.5
v 22.6 3.1 -2.5
v 22.6 3.1 -2.6
v 22.5 3 -2.5
v 22.5 3 -2.6
v 22.6 3 -2.6
v 22.6 3 -2.5
v 22.5 3.1 -2.5
v 22.5 3 -2.5
v 22.6 3 -2.5
v 22.6 3.1 -2.5
v 22.6 3.1 -2.6
v 22.6 3 -2.6
v 22.5 3 -2.6
v 22.5 3.1 -2.6
v 29.7 3 -2.6
v 29.7 2.9 -2.6
v 29.7 2.9 -2.5
v 29.7 3 -2.5
v 29.8 3 -2.5
v 29.8 2.9 -2.5
v 29.8 2.9 -2.6
v 29.8 3 -2.6
v 29.7 3 -2.6
v 29.7 3 -2.5
v 29.8 3 -2.5
v 29.8 3 -2.6
v 29.7 3 -2.5
v 29.7 2.9 -2.5
v 29.8 2.9 -2.5
v 29.8 3 -2.5
v 29.8 3 -2.6
v 29.8 2.9 -2.6
v 29.7 2.9 -2.6
v 29.7 3 -2.6
v 29.7 2.9 -2.6
v 29.7 2.8 -2.6
v 29.7 2.8 -2.5
v 29.7 2.9 -2.5
v 29.7 2.9 -2.5
v 29.7 2.8 -2.5
v 29.8 2.8 -2.5
v 29.8 2.9 -2.5
v 29.8 2.9 -2.6
v 29.8 2.8 -2.6
v 29.7 2.8 -2.6
v 29.7 2.9 -2.6
v 29.9 2.9 -2.5
v 29.9 2.8 -2.5
v 29.9 2.8 -2.6
v 29.9 2.9 -2.6
v 29.8 2.9 -2.6
v 29.8 2.9 -2.5
v 29.9 2.9 -2.5
v 29.9 2.9 -2.6
v 29.8 2.9 -2.5
v 29.8 2.8 -2.5
v 29.9 2.8 -2.5
v 29.9 2.9 -2.5
v 29.9 2.9 -2.6
v 29.9 2.8 -2.6
v 29.8 2.8 -2.6
v 29.8 2.9 -2.6
v 29.7 2.8 -2.6
v 29.7 2.7 -2.6
v 29.7 2.7 -2.5
v 29.7 2.8 -2.5
v 29.7 2.7 -2.5
v 29.7 2.7 -2.6
v 29.8 2.7 -2.6
v 29.8 2.7 -2.5
v 29.7 2.8 -2.5
v 29.7 2.7 -2.5
v 29.8 2.7 -2.5
v 29.8 2.8 -2.5
v 29.8 2.8 -2.6
v 29.8 2.7 -2.6
v 29.7 2.7 -2.6
v 29.7 2.8 -2.6
v 29.9 2.8 -2.5
v 29.9 2.7 -2.5
v 29.9 2.7 -2.6
v 29.9 2.8 -2.6
v 29.8 2.8 -2.5
v 29.8 2.7 -2.5
v 29.9 2.7 -2.5
v 29.9 2.8 -2.5
v 29.9 2.8 -2.6
v 29.9 2.7 -2.6
v 29.8 2.7 -2.6
v 29.8 2.8 -2.6
v 29.8 2.7 -2.6
v 29.8 2.6 -2.6
v 29.8 2.6 -2.5
v 29.8 2.7 -2.5
v 29.8 2.7 -2.5
v 29.8 2.6 -2.5
v 29.9 2.6 -2.5
v 29.9 2.7 -2.5
v 29.9 2.7 -2.6
v 29.9 2.6 -2.6
v 29.8 2.6 -2.6
v 29.8 2.7 -2.6
v 30 2.7 -2.5
v 30 2.6 -2.5
v 30 2.6 -2.6
v 30 2.7 -2.6
v 29.9 2.7 -2.6
v 29.9 2.7 -2.5
v 30 2.7 -2.5
v 30 2.7 -2.6
v 29.9 2.7 -2.5
v 29.9 2.6 -2.5
v 30 2.6 -2.5
v 30 2.7 -2.5
v 30 2.7 -2.6
v 30 2.6 -2.6
v 29.9 2.6 -2.6
v 29.9 2.7 -2.6
v 29.8 2.6 -2.6
v 29.8 2.5 -2.6
v 29.8 2.5 -2.5
v 29.8 2.6 -2.5
v 29.8 2.6 -2.5
v 29.8 2.5 -2.5
v 29.9 2.5 -2.5
v 29.9 2.6 -2.5
v 29.9 2.6 -2.6
v 29.9 2.5 -2.6
v 29.8 2.5 -2.6
v 29.8 2.6 -2.6
v 30 2.6 -2.5
v 30 2.5 -2.5
v 30 2.5 -2.6
v 30 2.6 -2.6
v 29.9 2.6 -2.5
v 29.9 2.5 -2.5
v 30 2.5 -2.5
v 30 2.6 -2.5
v 30 2.6 -2.6
v 30 2.5 -2.6
v 29.9 2.5 -2.6
v 29.9 2.6 -2.6
v 29.7 2.5 -2.6
v 29.7 2.4 -2.6
v 29.7 2.4 -2.5
v 29.7 2.5 -2.5
v 29.7 2.5 -2.6
v 29.7 2.5 -2.5
v 29.8 2.5 -2.5
v 29.8 2.5 -2.6
v 29.7 2.5 -2.5
v 29.7 2.4 -2.5
v 29.8 2.4 -2.5
v 29.8 2.5 -2.5
v 29.8 2.5 -2.6
v 29.8 2.4 -2.6
v 29.7 2.4 -2.6
v 29.7 2.5 -2.6
v 29.8 2.5 -2.5
v 29.8 2.4 -2.5
v 29.9 2.4 -2.5
v 29.9 2.5 -2.5
v 29.9 2.5 -2.6
v 29.9 2.4 -2.6
v 29.8 2.4 -2.6
v 29.8 2.5 -2.6
v 30 2.5 -2.5
v 30 2.4 -2.5
v 30 2.4 -2.6
v 30 2.5 -2.6
v 29.9 2.5 -2.5
v 29.9 2.4 -2.5
v 30 2.4 -2.5
v 30 2.5 -2.5
v 30 2.5 -2.6
v 30 2.4 -2.6
v 29.9 2.4 -2.6
v 29.9 2.5 -2.6
v 29.7 2.4 -2.6
v 29.7 2.3 -2.6
v 29.7 2.3 -2.5
v 29.7 2.4 -2.5
v 29.7 2.4 -2.5
v 29.7 2.3 -2.5
v 29.8 2.3 -2.5
v 29.8 2.4 -2.5
v 29.8 2.4 -2.6
v 29.8 2.3 -2.6
v 29.7 2.3 -2.6
v 29.7 2.4 -2.6
v 29.8 2.4 -2.5
v 29.8 2.3 -2.5
v 29.9 2.3 -2.5
v 29.9 2.4 -2.5
v 29.9 2.4 -2.6
v 29.9 2.3 -2.6
v 29.8 2.3 -2.6
v 29.8 2.4 -2.6
v 30 2.4 -2.5
v 30 2.3 -2.5
v 30 2.3 -2.6
v 30 2.4 -2.6
v 29.9 2.4 -2.5
v 29.9 2.3 -2.5
v 30 2.3 -2.5
v 30 2.4 -2.5
v 30 2.4 -2.6
v 30 2.3 -2.6
v 29.9 2.3 -2.6
v 29.9 2.4 -2.6
v 29.7 2.3 -2.6
v 29.7 2.2 -2.6
v 29.7 2.2 -2.5
v 29.7 2.3 -2.5
v 29.7 2.3 -2.5
v 29.7 2.2 -2.5
v 29.8 2.2 -2.5
v 29.8 2.3 -2.5
v 29.8 2.3 -2.6
v 29.8 2.2 -2.6
v 29.7 2.2 -2.6
v 29.7 2.3 -2.6
v 29.8 2.3 -2.5
v 29.8 2.2 -2.5
v 29.9 2.2 -2.5
v 29.9 2.3 -2.5
v 29.9 2.3 -2.6
v 29.9 2.2 -2.6
v 29.8 2.2 -2.6
v 29.8 2.3 -2.6
v 30 2.3 -2.5
v 30 2.2 -2.5
v 30 2.2 -2.6
v 30 2.3 -2.6
v 29.9 2.3 -2.5
v 29.9 2.2 -2.5
v 30 2.2 -2.5
v 30 2.3 -2.5
v 30 2.3 -2.6
v 30 2.2 -2.6
v 29.9 2.2 -2.6
v 29.9 2.3 -2.6
v 29.6 2.2 -2.6
v 29.6 2.1 -2.6
v 29.6 2.1 -2.5
v 29.6 2.2 -2.5
v 29.6 2.2 -2.6
v 29.6 2.2 -2.5
v 29.7 2.2 -2.5
v 29.7 2.2 -2.6
v 29.6 2.2 -2.5
v 29.6 2.1 -2.5
v 29.7 2.1 -2.5
v 29.7 2.2 -2.5
v 29.7 2.2 -2.6
v 29.7 2.1 -2.6
v 29.6 2.1 -2.6
v 29.6 2.2 -2.6
v 29.7 2.2 -2.5
v 29.7 2.1 -2.5
v 29.8 2.1 -2.5
v 29.8 2.2 -2.5
v 29.8 2.2 -2.6
v 29.8 2.1 -2.6
v 29.7 2.1 -2.6
v 29.7 2.2 -2.6
v 29.8 2.2 -2.5
v 29.8 2.1 -2.5
v 29.9 2.1 -2.5
v 29.9 2.2 -2.5
v 29.9 2.2 -2.6
v 29.9 2.1 -2.6
v 29.8 2.1 -2.6
v 29.8 2.2 -2.6
v 30 2.2 -2.5
v 30 2.1 -2.5
v 30 2.1 -2.6
v 30 2.2 -2.6
v 29.9 2.1 -2.5
v 29.9 2.1 -2.6
v 30 2.1 -2.6
v 30 2.1 -2.5
v 29.9 2.2 -2.5
v 29.9 2.1 -2.5
v 30 2.1 -2.5
v 30 2.2 -2.5
v 30 2.2 -2.6
v 30 2.1 -2.6
v 29.9 2.1 -2.6
v 29.9 2.2 -2.6
v 29.6 2.1 -2.6
v 29.6 2 -2.6
v 29.6 2 -2.5
v 29.6 2.1 -2.5
v 29.6 2.1 -2.5
v 29.6 2 -2.5
v 29.7 2 -2.5
v 29.7 2.1 -2.5
v 29.7 2.1 -2.6
v 29.7 2 -2.6
v 29.6 2 -2.6
v 29.6 2.1 -2.6
v 29.7 2 -2.5
v 29.7 2 -2.6
v 29.8 2 -2.6
v 29.8 2 -2.5
v 29.7 2.1 -2.5
v 29.7 2 -2.5
v 29.8 2 -2.5
v 29.8 2.1 -2.5
v 29.8 2.1 -2.6
v 29.8 2 -2.6
v 29.7 2 -2.6
v 29.7 2.1 -2.6
v 29.9 2.1 -2.5
v 29.9 2 -2.5
v 29.9 2 -2.6
v 29.9 2.1 -2.6
v 29.8 2 -2.5
v 29.8 2 -2.6
v 29.9 2 -2.6
v 29.9 2 -2.5
v 29.8 2.1 -2.5
v 29.8 2 -2.5
v 29.9 2 -2.5
v 29.9 2.1 -2.5
v 29.9 2.1 -2.6
v 29.9 2 -2.6
v 29.8 2 -2.6
v 29.8 2.1 -2.6
v 29.5 2 -2.6
v 29.5 1.9 -2.6
v 29.5 1.9 -2.5
v 29.5 2 -2.5
v 29.5 2 -2.6
v 29.5 2 -2.5
v 29.6 2 -2.5
v 29.6 2 -2.6
v 29.5 1.9 -2.5
v 29.5 1.9 -2.6
v 29.6 1.9 -2.6
v 29.6 1.9 -2.5
v 29.5 2 -2.5
v 29.5 1.9 -2.5
v 29.6 1.9 -2.5
v 29.6 2 -2.5
v 29.6 2 -2.6
v 29.6 1.9 -2.6
v 29.5 1.9 -2.6
v 29.5 2 -2.6
v 29.7 2 -2.5
v 29.7 1.9 -2.5
v 29.7 1.9 -2.6
v 29.7 2 -2.6
v 29.6 1.9 -2.5
v 29.6 1.9 -2.6
v 29.7 1.9 -2.6
v 29.7 1.9 -2.5
v 29.6 2 -2.5
v 29.6 1.9 -2.5
v 29.7 1.9 -2.5
v 29.7 2 -2.5
v 29.7 2 -2.6
v 29.7 1.9 -2.6
v 29.6 1.9 -2.6
v 29.6 2 -2.6
v 29.4 1.9 -2.6
v 29.4 1.8 -2.6
v 29.4 1.8 -2.5
v 29.4 1.9 -2.5
v 29.5 1.9 -2.5
v 29.5 1.8 -2.5
v 29.5 1.8 -2.6
v 29.5 1.9 -2.6
v 29.4 1.9 -2.6
v 29.4 1.9 -2.5
v 29.5 1.9 -2.5
v 29.5 1.9 -2.6
v 29.4 1.8 -2.5
v 29.4 1.8 -2.6
v 29.5 1.8 -2.6
v 29.5 1.8 -2.5
v 29.4 1.9 -2.5
v 29.4 1.8 -2.5
v 29.5 1.8 -2.5
v 29.5 1.9 -2.5
v 29.5 1.9 -2.6
v 29.5 1.8 -2.6
v 29.4 1.8 -2.6
v 29.4 1.9 -2.6
v 21.5 1.5 -2.6
v 21.5 1.4 -2.6
v 21.5 1.4 -2.5
v 21.5 1.5 -2.5
v 21.5 1.5 -2.6
v 21.5 1.5 -2.5
v 21.6 1.5 -2.5
v 21.6 1.5 -2.6
v 21.5 1.5 -2.5
v 21.5 1.4 -2.5
v 21.6 1.4 -2.5
v 21.6 1.5 -2.5
v 21.6 1.5 -2.6
v 21.6 1.4 -2.6
v 21.5 1.4 -2.6
v 21.5 1.5 -2.6
v 21.7 1.5 -2.5
v 21.7 1.4 -2.5
v 21.7 1.4 -2.6
v 21.7 1.5 -2.6
v 21.6 1.5 -2.6
v 21.6 1.5 -2.5
v 21.7 1.5 -2.5
v 21.7 1.5 -2.6
v 21.6 1.5 -2.5
v 21.6 1.4 -2.5
v 21.7 1.4 -2.5
v 21.7 1.5 -2.5
v 21.7 1.5 -2.6
v 21.7 1.4 -2.6
v 21.6 1.4 -2.6
v 21.6 1.5 -2.6
v 24.6 1.5 -2.6
v 24.6 1.4 -2.6
v 24.6 1.4 -2.5
v 24.6 1.5 -2.5
v 24.7 1.5 -2.5
v 24.7 1.4 -2.5
v 24.7 1.4 -2.6
v 24.7 1.5 -2.6
v 24.6 1.5 -2.6
v 24.6 1.5 -2.5
v 24.7 1.5 -2.5
v 24.7 1.5 -2.6
v 24.6 1.5 -2.5
v 24.6 1.4 -2.5
v 24.7 1.4 -2.5
v 24.7 1.5 -2.5
v 24.7 1.5 -2.6
v 24.7 1.4 -2.6
v 24.6 1.4 -2.6
v 24.6 1.5 -2.6
v 21.4 1.4 -2.6
v 21.4 1.3 -2.6
v 21.4 1.3 -2.5
v 21.4 1.4 -2.5
v 21.4 1.4 -2.6
v 21.4 1.4 -2.5
v 21.5 1.4 -2.5
v 21.5 1.4 -2.6
v 21.4 1.4 -2.5
v 21.4 1.3 -2.5
v 21.5 1.3 -2.5
v 21.5 1.4 -2.5
v 21.5 1.4 -2.6
v 21.5 1.3 -2.6
v 21.4 1.3 -2.6
v 21.4 1.4 -2.6
v 21.5 1.4 -2.5
v 21.5 1.3 -2.5
v 21.6 1.3 -2.5
v 21.6 1.4 -2.5
v 21.6 1.4 -2.6
v 21.6 1.3 -2.6
v 21.5 1.3 -2.6
v 21.5 1.4 -2.6
v 21.6 1.4 -2.5
v 21.6 1.3 -2.5
v 21.7 1.3 -2.5
v 21.7 1.4 -2.5
v 21.7 1.4 -2.6
v 21.7 1.3 -2.6
v 21.6 1.3 -2.6
v 21.6 1.4 -2.6
v 21.8 1.4 -2.5
v 21.8 1.3 -2.5
v 21.8 1.3 -2.6
v 21.8 1.4 -2.6
v 21.7 1.4 -2.6
v 21.7 1.4 -2.5
v 21.8 1.4 -2.5
v 21.8 1.4 -2.6
v 21.7 1.4 -2.5
v 21.7 1.3 -2.5
v 21.8 1.3 -2.5
v 21.8 1.4 -2.5
v 21.8 1.4 -2.6
v 21.8 1.3 -2.6
v 21.7 1.3 -2.6
v 21.7 1.4 -2.6
v 24.5 1.4 -2.6
v 24.5 1.3 -2.6
v 24.5 1.3 -2.5
v 24.5 1.4 -2.5
v 24.5 1.4 -2.6
v 24.5 1.4 -2.5
v 24.6 1.4 -2.5
v 24.6 1.4 -2.6
v 24.5 1.4 -2.5
v 24.5 1.3 -2.5
v 24.6 1.3 -2.5
v 24.6 1.4 -2.5
v 24.6 1.4 -2.6
v 24.6 1.3 -2.6
v 24.5 1.3 -2.6
v 24.5 1.4 -2.6
v 24.6 1.4 -2.5
v 24.6 1.3 -2.5
v 24.7 1.3 -2.5
v 24.7 1.4 -2.5
v 24.7 1.4 -2.6
v 24.7 1.3 -2.6
v 24.6 1.3 -2.6
v 24.6 1.4 -2.6
v 24.8 1.4 -2.5
v 24.8 1.3 -2.5
v 24.8 1.3 -2.6
v 24.8 1.4 -2.6
v 24.7 1.4 -2.6
v 24.7 1.4 -2.5
v 24.8 1.4 -2.5
v 24.8 1.4 -2.6
v 24.7 1.4 -2.5
v 24.7 1.3 -2.5
v 24.8 1.3 -2.5
v 24.8 1.4 -2.5
v 24.8 1.4 -2.6
v 24.8 1.3 -2.6
v 24.7 1.3 -2.6
v 24.7 1.4 -2.6
v 21.4 1.3 -2.6
v 21.4 1.2 -2.6
v 21.4 1.2 -2.5
v 21.4 1.3 -2.5
v 21.4 1.2 -2.5
v 21.4 1.2 -2.6
v 21.5 1.2 -2.6
v 21.5 1.2 -2.5
v 21.4 1.3 -2.5
v 21.4 1.2 -2.5
v 21.5 1.2 -2.5
v 21.5 1.3 -2.5
v 21.5 1.3 -2.6
v 21.5 1.2 -2.6
v 21.4 1.2 -2.6
v 21.4 1.3 -2.6
v 21.5 1.2 -2.5
v 21.5 1.2 -2.6
v 21.6 1.2 -2.6
v 21.6 1.2 -2.5
v 21.5 1.3 -2.5
v 21.5 1.2 -2.5
v 21.6 1.2 -2.5
v 21.6 1.3 -2.5
v 21.6 1.3 -2.6
v 21.6 1.2 -2.6
v 21.5 1.2 -2.6
v 21.5 1.3 -2.6
v 21.6 1.2 -2.5
v 21.6 1.2 -2.6
v 21.7 1.2 -2.6
v 21.7 1.2 -2.5
v 21.6 1.3 -2.5
v 21.6 1.2 -2.5
v 21.7 1.2 -2.5
v 21.7 1.3 -2.5
v 21.7 1.3 -2.6
v 21.7 1.2 -2.6
v 21.6 1.2 -2.6
v 21.6 1.3 -2.6
v 21.7 1.2 -2.5
v 21.7 1.2 -2.6
v 21.8 1.2 -2.6
v 21.8 1.2 -2.5
v 21.7 1.3 -2.5
v 21.7 1.2 -2.5
v 21.8 1.2 -2.5
v 21.8 1.3 -2.5
v 21.8 1.3 -2.6
v 21.8 1.2 -2.6
v 21.7 1.2 -2.6
v 21.7 1.3 -2.6
v 21.8 1.3 -2.6
v 21.8 1.3 -2.5
v 21.9 1.3 -2.5
v 21.9 1.3 -2.6
v 21.8 1.2 -2.5
v 21.8 1.2 -2.6
v 21.9 1.2 -2.6
v 21.9 1.2 -2.5
v 21.8 1.3 -2.5
v 21.8 1.2 -2.5
v 21.9 1.2 -2.5
v 21.9 1.3 -2.5
v 21.9 1.3 -2.6
v 21.9 1.2 -2.6
v 21.8 1.2 -2.6
v 21.8 1.3 -2.6
v 22 1.3 -2.5
v 22 1.2 -2.5
v 22 1.2 -2.6
v 22 1.3 -2.6
v 21.9 1.3 -2.6
v 21.9 1.3 -2.5
v 22 1.3 -2.5
v 22 1.3 -2.6
v 21.9 1.2 -2.5
v 21.9 1.2 -2.6
v 22 1.2 -2.6
v 22 1.2 -2.5
v 21.9 1.3 -2.5
v 21.9 1.2 -2.5
v 22 1.2 -2.5
v 22 1.3 -2.5
v 22 1.3 -2.6
v 22 1.2 -2.6
v 21.9 1.2 -2.6
v 21.9 1.3 -2.6
v 24.4 1.3 -2.6
v 24.4 1.2 -2.6
v 24.4 1.2 -2.5
v 24.4 1.3 -2.5
v 24.4 1.3 -2.6
v 24.4 1.3 -2.5
v 24.5 1.3 -2.5
v 24.5 1.3 -2.6
v 24.4 1.2 -2.5
v 24.4 1.2 -2.6
v 24.5 1.2 -2.6
v 24.5 1.2 -2.5
v 24.4 1.3 -2.5
v 24.4 1.2 -2.5
v 24.5 1.2 -2.5
v 24.5 1.3 -2.5
v 24.5 1.3 -2.6
v 24.5 1.2 -2.6
v 24.4 1.2 -2.6
v 24.4 1.3 -2.6
v 24.5 1.2 -2.5
v 24.5 1.2 -2.6
v 24.6 1.2 -2.6
v 24.6 1.2 -2.5
v 24.5 1.3 -2.5
v 24.5 1.2 -2.5
v 24.6 1.2 -2.5
v 24.6 1.3 -2.5
v 24.6 1.3 -2.6
v 24.6 1.2 -2.6
v 24.5 1.2 -2.6
v 24.5 1.3 -2.6
v 24.6 1.2 -2.5
v 24.6 1.2 -2.6
v 24.7 1.2 -2.6
v 24.7 1.2 -2.5
v 24.6 1.3 -2.5
v 24.6 1.2 -2.5
v 24.7 1.2 -2.5
v 24.7 1.3 -2.5
v 24.7 1.3 -2.6
v 24.7 1.2 -2.6
v 24.6 1.2 -2.6
v 24.6 1.3 -2.6
v 24.8 1.3 -2.5
v 24.8 1.2 -2.5
v 24.8 1.2 -2.6
v 24.8 1.3 -2.6
v 24.7 1.2 -2.5
v 24.7 1.2 -2.6
v 24.8 1.2 -2.6
v 24.8 1.2 -2.5
v 24.7 1.3 -2.5
v 24.7 1.2 -2.5
v 24.8 1.2 -2.5
v 24.8 1.3 -2.5
v 24.8 1.3 -2.6
v 24.8 1.2 -2.6
v 24.7 1.2 -2.6
v 24.7 1.3 -2.6

# faces
f 1/1/1 2/1/1 3/1/1 4/1/1
f 5/1/2 6/1/2 7/1/2 8/1/2
f 9/1/3 10/1/3 11/1/3 12/1/3
f 13/1/5 14/1/5 15/1/5 16/1/5
f 17/1/6 18/1/6 19/1/6 20/1/6
f 21/1/1 22/1/1 23/1/1 24/1/1
f 25/1/5 26/1/5 27/1/5 28/1/5
f 29/1/6 30/1/6 31/1/6 32/1/6
f 33/1/2 34/1/2 35/1/2 36/1/2
f 37/1/3 38/1/3 39/1/3 40/1/3
f 41/1/5 42/1/5 43/1/5 44/1/5
f 45/1/6 46/1/6 47/1/6 48/1/6
f 49/1/1 50/1/1 51/1/1 52/1/1
f 53/1/5 54/1/5 55/1/5 56/1/5
f 57/1/6 58/1/6 59/1/6 60/1/6
f 61/1/5 62/1/5 63/1/5 64/1/5
f 65/1/6 66/1/6 67/1/6 68/1/6
f 69/1/2 70/1/2 71/1/2 72/1/2
f 73/1/3 74/1/3 75/1/3 76/1/3
f 77/1/5 78/1/5 79/1/5 80/1/5
f 81/1/6 82/1/6 83/1/6 84/1/6
f 85/1/1 86/1/1 87/1/1 88/1/1
f 89/1/5 90/1/5 91/1/5 92/1/5
f 93/1/6 94/1/6 95/1/6 96/1/6
f 97/1/5 98/1/5 99/1/5 100/1/5
f 101/1/6 102/1/6 103/1/6 104/1/6
f 105/1/5 106/1/5 107/1/5 108/1/5
f 109/1/6 110/1/6 111/1/6 112/1/6
f 113/1/2 114/1/2 115/1/2 116/1/2
f 117/1/3 118/1/3 119/1/3 120/1/3
f 121/1/5 122/1/5 123/1/5 124/1/5
f 125/1/6 126/1/6 127/1/6 128/1/6
f 129/1/1 130/1/1 131/1/1 132/1/1
f 133/1/2 134/1/2 135/1/2 136/1/2
f 137/1/3 138/1/3 139/1/3 140/1/3
f 141/1/5 142/1/5 143/1/5 144/1/5
f 145/1/6 146/1/6 147/1/6 148/1/6
f 149/1/1 150/1/1 151/1/1 152/1/1
f 153/1/3 154/1/3 155/1/3 156/1/3
f 157/1/5 158/1/5 159/1/5 160/1/5
f 161/1/6 162/1/6 163/1/6 164/1/6
f 165/1/5 166/1/5 167/1/5 168/1/5
f 169/1/6 170/1/6 171/1/6 172/1/6
f 173/1/5 174/1/5 175/1/5 176/1/5
f 177/1/6 178/1/6 179/1/6 180/1/6
f 181/1/5 182/1/5 183/1/5 184/1/5
f 185/1/6 186/1/6 187/1/6 188/1/6
f 189/1/4 190/1/4 191/1/4 192/1/4
f 193/1/5 194/1/5 195/1/5 196/1/5
f 197/1/6 198/1/6 199/1/6 200/1/6
f 201/1/2 202/1/2 203/1/2 204/1/2
f 205/1/3 206/1/3 207/1/3 208/1/3
f 209/1/5 210/1/5 211/1/5 212/1/5
f 213/1/6 214/1/6 215/1/6 216/1/6
f 217/1/1 218/1/1 219/1/1 220/1/1
f 221/1/3 222/1/3 223/1/3 224/1/3
f 225/1/5 226/1/5 227/1/5 228/1/5
f 229/1/6 230/1/6 231/1/6 232/1/6
f 233/1/5 234/1/5 235/1/5 236/1/5
f 237/1/6 238/1/6 239/1/6 240/1/6
f 241/1/2 242/1/2 243/1/2 244/1/2
f 245/1/3 246/1/3 247/1/3 248/1/3
f 249/1/5 250/1/5 251/1/5 252/1/5
f 253/1/6 254/1/6 255/1/6 256/1/6
f 257/1/1 258/1/1 259/1/1 260/1/1
f 261/1/5 262/1/5 263/1/5 264/1/5
f 265/1/6 266/1/6 267/1/6 268/1/6
f 269/1/4 270/1/4 271/1/4 272/1/4
f 273/1/5 274/1/5 275/1/5 276/1/5
f 277/1/6 278/1/6 279/1/6 280/1/6
f 281/1/4 282/1/4 283/1/4 284/1/4
f 285/1/5 286/1/5 287/1/5 288/1/5
f 289/1/6 290/1/6 291/1/6 292/1/6
f 293/1/2 294/1/2 295/1/2 296/1/2
f 297/1/4 298/1/4 299/1/4 300/1/4
f 301/1/5 302/1/5 303/1/5 304/1/5
f 305/1/6 306/1/6 307/1/6 308/1/6
f 309/1/1 310/1/1 311/1/1 312/1/1
f 313/1/4 314/1/4 315/1/4 316/1/4
f 317/1/5 318/1/5 319/1/5 320/1/5
f 321/1/6 322/1/6 323/1/6 324/1/6
f 325/1/3 326/1/3 327/1/3 328/1/3
f 329/1/5 330/1/5 331/1/5 332/1/5
f 333/1/6 334/1/6 335/1/6 336/1/6
f 337/1/2 338/1/2 339/1/2 340/1/2
f 341/1/3 342/1/3 343/1/3 344/1/3
f 345/1/5 346/1/5 347/1/5 348/1/5
f 349/1/6 350/1/6 351/1/6 352/1/6
f 353/1/1 354/1/1 355/1/1 356/1/1
f 357/1/3 358/1/3 359/1/3 360/1/3
f 361/1/4 362/1/4 363/1/4 364/1/4
f 365/1/5 366/1/5 367/1/5 368/1/5
f 369/1/6 370/1/6 371/1/6 372/1/6
f 373/1/5 374/1/5 375/1/5 376/1/5
f 377/1/6 378/1/6 379/1/6 380/1/6
f 381/1/5 382/1/5 383/1/5 384/1/5
f 385/1/6 386/1/6 387/1/6 388/1/6
f 389/1/2 390/1/2 391/1/2 392/1/2
f 393/1/5 394/1/5 395/1/5 396/1/5
f 397/1/6 398/1/6 399/1/6 400/1/6
f 401/1/1 402/1/1 403/1/1 404/1/1
f 405/1/3 406/1/3 407/1/3 408/1/3
f 409/1/4 410/1/4 411/1/4 412/1/4
f 413/1/5 414/1/5 415/1/5 416/1/5
f 417/1/6 418/1/6 419/1/6 420/1/6
f 421/1/2 422/1/2 423/1/2 424/1/2
f 425/1/4 426/1/4 427/1/4 428/1/4
f 429/1/5 430/1/5 431/1/5 432/1/5
f 433/1/6 434/1/6 435/1/6 436/1/6
f 437/1/1 438/1/1 439/1/1 440/1/1
f 441/1/4 442/1/4 443/1/4 444/1/4
f 445/1/5 446/1/5 447/1/5 448/1/5
f 449/1/6 450/1/6 451/1/6 452/1/6
f 453/1/4 454/1/4 455/1/4 456/1/4
f 457/1/5 458/1/5 459/1/5 460/1/5
f 461/1/6 462/1/6 463/1/6 464/1/6
f 465/1/3 466/1/3 467/1/3 468/1/3
f 469/1/5 470/1/5 471/1/5 472/1/5
f 473/1/6 474/1/6 475/1/6 476/1/6
f 477/1/2 478/1/2 479/1/2 480/1/2
f 481/1/3 482/1/3 483/1/3 484/1/3
f 485/1/5 486/1/5 487/1/5 488/1/5
f 489/1/6 490/1/6 491/1/6 492/1/6
f 493/1/1 494/1/1 495/1/1 496/1/1
f 497/1/4 498/1/4 499/1/4 500/1/4
f 501/1/5 502/1/5 503/1/5 504/1/5
f 505/1/6 506/1/6 507/1/6 508/1/6
f 509/1/4 510/1/4 511/1/4 512/1/4
f 513/1/5 514/1/5 515/1/5 516/1/5
f 517/1/6 518/1/6 519/1/6 520/1/6
f 521/1/4 522/1/4 523/1/4 524/1/4
f 525/1/5 526/1/5 527/1/5 528/1/5
f 529/1/6 530/1/6 531/1/6 532/1/6
f 533/1/2 534/1/2 535/1/2 536/1/2
f 537/1/3 538/1/3 539/1/3 540/1/3
f 541/1/4 542/1/4 543/1/4 544/1/4
f 545/1/5 546/1/5 547/1/5 548/1/5
f 549/1/6 550/1/6 551/1/6 552/1/6
f 553/1/1 554/1/1 555/1/1 556/1/1
f 557/1/4 558/1/4 559/1/4 560/1/4
f 561/1/5 562/1/5 563/1/5 564/1/5
f 565/1/6 566/1/6 567/1/6 568/1/6
f 569/1/4 570/1/4 571/1/4 572/1/4
f 573/1/5 574/1/5 575/1/5 576/1/5
f 577/1/6 578/1/6 579/1/6 580/1/6
f 581/1/2 582/1/2 583/1/2 584/1/2
f 585/1/3 586/1/3 587/1/3 588/1/3
f 589/1/5 590/1/5 591/1/5 592/1/5
f 593/1/6 594/1/6 595/1/6 596/1/6
f 597/1/1 598/1/1 599/1/1 600/1/1
f 601/1/3 602/1/3 603/1/3 604/1/3
f 605/1/5 606/1/5 607/1/5 608/1/5
f 609/1/6 610/1/6 611/1/6 612/1/6
f 613/1/2 614/1/2 615/1/2 616/1/2
f 617/1/3 618/1/3 619/1/3 620/1/3
f 621/1/5 622/1/5 623/1/5 624/1/5
f 625/1/6 626/1/6 627/1/6 628/1/6
f 629/1/1 630/1/1 631/1/1 632/1/1
f 633/1/3 634/1/3 635/1/3 636/1/3
f 637/1/5 638/1/5 639/1/5 640/1/5
f 641/1/6 642/1/6 643/1/6 644/1/6
f 645/1/3 646/1/3 647/1/3 648/1/3
f 649/1/5 650/1/5 651/1/5 652/1/5
f 653/1/6 654/1/6 655/1/6 656/1/6
f 657/1/2 658/1/2 659/1/2 660/1/2
f 661/1/3 662/1/3 663/1/3 664/1/3
f 665/1/5 666/1/5 667/1/5 668/1/5
f 669/1/6 670/1/6 671/1/6 672/1/6
f 673/1/1 674/1/1 675/1/1 676/1/1
f 677/1/4 678/1/4 679/1/4 680/1/4
f 681/1/5 682/1/5 683/1/5 684/1/5
f 685/1/6 686/1/6 687/1/6 688/1/6
f 689/1/3 690/1/3 691/1/3 692/1/3
f 693/1/4 694/1/4 695/1/4 696/1/4
f 697/1/5 698/1/5 699/1/5 700/1/5
f 701/1/6 702/1/6 703/1/6 704/1/6
f 705/1/3 706/1/3 707/1/3 708/1/3
f 709/1/4 710/1/4 711/1/4 712/1/4
f 713/1/5 714/1/5 715/1/5 716/1/5
f 717/1/6 718/1/6 719/1/6 720/1/6
f 721/1/2 722/1/2 723/1/2 724/1/2
f 725/1/3 726/1/3 727/1/3 728/1/3
f 729/1/4 730/1/4 731/1/4 732/1/4
f 733/1/5 734/1/5 735/1/5 736/1/5
f 737/1/6 738/1/6 739/1/6 740/1/6
f 741/1/1 742/1/1 743/1/1 744/1/1
f 745/1/3 746/1/3 747/1/3 748/1/3
f 749/1/4 750/1/4 751/1/4 752/1/4
f 753/1/5 754/1/5 755/1/5 756/1/5
f 757/1/6 758/1/6 759/1/6 760/1/6
f 761/1/4 762/1/4 763/1/4 764/1/4
f 765/1/5 766/1/5 767/1/5 768/1/5
f 769/1/6 770/1/6 771/1/6 772/1/6
f 773/1/2 774/1/2 775/1/2 776/1/2
f 777/1/4 778/1/4 779/1/4 780/1/4
f 781/1/5 782/1/5 783/1/5 784/1/5
f 785/1/6 786/1/6 787/1/6 788/1/6
f 789/1/1 790/1/1 791/1/1 792/1/1
f 793/1/3 794/1/3 795/1/3 796/1/3
f 797/1/4 798/1/4 799/1/4 800/1/4
f 801/1/5 802/1/5 803/1/5 804/1/5
f 805/1/6 806/1/6 807/1/6 808/1/6
f 809/1/4 810/1/4 811/1/4 812/1/4
f 813/1/5 814/1/5 815/1/5 816/1/5
f 817/1/6 818/1/6 819/1/6 820/1/6
f 821/1/4 822/1/4 823/1/4 824/1/4
f 825/1/5 826/1/5 827/1/5 828/1/5
f 829/1/6 830/1/6 831/1/6 832/1/6
f 833/1/4 834/1/4 835/1/4 836/1/4
f 837/1/5 838/1/5 839/1/5 840/1/5
f 841/1/6 842/1/6 843/1/6 844/1/6
f 845/1/2 846/1/2 847/1/2 848/1/2
f 849/1/3 850/1/3 851/1/3 852/1/3
f 853/1/4 854/1/4 855/1/4 856/1/4
f 857/1/5 858/1/5 859/1/5 860/1/5
f 861/1/6 862/1/6 863/1/6 864/1/6
f 865/1/1 866/1/1 867/1/1 868/1/1
f 869/1/2 870/1/2 871/1/2 872/1/2
f 873/1/3 874/1/3 875/1/3 876/1/3
f 877/1/5 878/1/5 879/1/5 880/1/5
f 881/1/6 882/1/6 883/1/6 884/1/6
f 885/1/1 886/1/1 887/1/1 888/1/1
f 889/1/5 890/1/5 891/1/5 892/1/5
f 893/1/6 894/1/6 895/1/6 896/1/6
f 897/1/2 898/1/2 899/1/2 900/1/2
f 901/1/3 902/1/3 903/1/3 904/1/3
f 905/1/5 906/1/5 907/1/5 908/1/5
f 909/1/6 910/1/6 911/1/6 912/1/6
f 913/1/1 914/1/1 915/1/1 916/1/1
f 917/1/4 918/1/4 919/1/4 920/1/4
f 921/1/5 922/1/5 923/1/5 924/1/5
f 925/1/6 926/1/6 927/1/6 928/1/6
f 929/1/2 930/1/2 931/1/2 932/1/2
f 933/1/5 934/1/5 935/1/5 936/1/5
f 937/1/6 938/1/6 939/1/6 940/1/6
f 941/1/1 942/1/1 943/1/1 944/1/1
f 945/1/5 946/1/5 947/1/5 948/1/5
f 949/1/6 950/1/6 951/1/6 952/1/6
f 953/1/2 954/1/2 955/1/2 956/1/2
f 957/1/3 958/1/3 959/1/3 960/1/3
f 961/1/5 962/1/5 963/1/5 964/1/5
f 965/1/6 966/1/6 967/1/6 968/1/6
f 969/1/1 970/1/1 971/1/1 972/1/1
f 973/1/5 974/1/5 975/1/5 976/1/5
f 977/1/6 978/1/6 979/1/6 980/1/6
f 981/1/2 982/1/2 983/1/2 984/1/2
f 985/1/5 986/1/5 987/1/5 988/1/5
f 989/1/6 990/1/6 991/1/6 992/1/6
f 993/1/1 994/1/1 995/1/1 996/1/1
f 997/1/3 998/1/3 999/1/3 1000/1/3
f 1001/1/5 1002/1/5 1003/1/5 1004/1/5
f 1005/1/6 1006/1/6 1007/1/6 1008/1/6
f 1009/1/5 1010/1/5 1011/1/5 1012/1/5
f 1013/1/6 1014/1/6 1015/1/6 1016/1/6
f 1017/1/2 1018/1/2 1019/1/2 1020/1/2
f 1021/1/5 1022/1/5 1023/1/5 1024/1/5
f 1025/1/6 1026/1/6 1027/1/6 1028/1/6
f 1029/1/1 1030/1/1 1031/1/1 1032/1/1
f 1033/1/5 1034/1/5 1035/1/5 1036/1/5
f 1037/1/6 1038/1/6 1039/1/6 1040/1/6
f 1041/1/5 1042/1/5 1043/1/5 1044/1/5
f 1045/1/6 1046/1/6 1047/1/6 1048/1/6
f 1049/1/2 1050/1/2 1051/1/2 1052/1/2
f 1053/1/5 1054/1/5 1055/1/5 1056/1/5
f 1057/1/6 1058/1/6 1059/1/6 1060/1/6
f 1061/1/1 1062/1/1 1063/1/1 1064/1/1
f 1065/1/5 1066/1/5 1067/1/5 1068/1/5
f 1069/1/6 1070/1/6 1071/1/6 1072/1/6
f 1073/1/5 1074/1/5 1075/1/5 1076/1/5
f 1077/1/6 1078/1/6 1079/1/6 1080/1/6
f 1081/1/2 1082/1/2 1083/1/2 1084/1/2
f 1085/1/5 1086/1/5 1087/1/5 1088/1/5
f 1089/1/6 1090/1/6 1091/1/6 1092/1/6
f 1093/1/1 1094/1/1 1095/1/1 1096/1/1
f 1097/1/3 1098/1/3 1099/1/3 1100/1/3
f 1101/1/5 1102/1/5 1103/1/5 1104/1/5
f 1105/1/6 1106/1/6 1107/1/6 1108/1/6
f 1109/1/5 1110/1/5 1111/1/5 1112/1/5
f 1113/1/6 1114/1/6 1115/1/6 1116/1/6
f 1117/1/5 1118/1/5 1119/1/5 1120/1/5
f 1121/1/6 1122/1/6 1123/1/6 1124/1/6
f 1125/1/2 1126/1/2 1127/1/2 1128/1/2
f 1129/1/4 1130/1/4 1131/1/4 1132/1/4
f 1133/1/5 1134/1/5 1135/1/5 1136/1/5
f 1137/1/6 1138/1/6 1139/1/6 1140/1/6
f 1141/1/1 1142/1/1 1143/1/1 1144/1/1
f 1145/1/5 1146/1/5 1147/1/5 1148/1/5
f 1149/1/6 1150/1/6 1151/1/6 1152/1/6
f 1153/1/4 1154/1/4 1155/1/4 1156/1/4
f 1157/1/5 1158/1/5 1159/1/5 1160/1/5
f 1161/1/6 1162/1/6 1163/1/6 1164/1/6
f 1165/1/2 1166/1/2 1167/1/2 1168/1/2
f 1169/1/4 1170/1/4 1171/1/4 1172/1/4
f 1173/1/5 1174/1/5 1175/1/5 1176/1/5
f 1177/1/6 1178/1/6 1179/1/6 1180/1/6
f 1181/1/1 1182/1/1 1183/1/1 1184/1/1
f 1185/1/3 1186/1/3 1187/1/3 1188/1/3
f 1189/1/4 1190/1/4 1191/1/4 1192/1/4
f 1193/1/5 1194/1/5 1195/1/5 1196/1/5
f 1197/1/6 1198/1/6 1199/1/6 1200/1/6
f 1201/1/2 1202/1/2 1203/1/2 1204/1/2
f 1205/1/4 1206/1/4 1207/1/4 1208/1/4
f 1209/1/5 1210/1/5 1211/1/5 1212/1/5
f 1213/1/6 1214/1/6 1215/1/6 1216/1/6
f 1217/1/1 1218/1/1 1219/1/1 1220/1/1
f 1221/1/2 1222/1/2 1223/1/2 1224/1/2
f 1225/1/3 1226/1/3 1227/1/3 1228/1/3
f 1229/1/4 1230/1/4 1231/1/4 1232/1/4
f 1233/1/5 1234/1/5 1235/1/5 1236/1/5
f 1237/1/6 1238/1/6 1239/1/6 1240/1/6
f 1241/1/1 1242/1/1 1243/1/1 1244/1/1
f 1245/1/3 1246/1/3 1247/1/3 1248/1/3
f 1249/1/5 1250/1/5 1251/1/5 1252/1/5
f 1253/1/6 1254/1/6 1255/1/6 1256/1/6
f 1257/1/2 1258/1/2 1259/1/2 1260/1/2
f 1261/1/3 1262/1/3 1263/1/3 1264/1/3
f 1265/1/5 1266/1/5 1267/1/5 1268/1/5
f 1269/1/6 1270/1/6 1271/1/6 1272/1/6
f 1273/1/1 1274/1/1 1275/1/1 1276/1/1
f 1277/1/2 1278/1/2 1279/1/2 1280/1/2
f 1281/1/3 1282/1/3 1283/1/3 1284/1/3
f 1285/1/5 1286/1/5 1287/1/5 1288/1/5
f 1289/1/6 1290/1/6 1291/1/6 1292/1/6
f 1293/1/1 1294/1/1 1295/1/1 1296/1/1
f 1297/1/3 1298/1/3 1299/1/3 1300/1/3
f 1301/1/5 1302/1/5 1303/1/5 1304/1/5
f 1305/1/6 1306/1/6 1307/1/6 1308/1/6
f 1309/1/5 1310/1/5 1311/1/5 1312/1/5
f 1313/1/6 1314/1/6 1315/1/6 1316/1/6
f 1317/1/5 1318/1/5 1319/1/5 1320/1/5
f 1321/1/6 1322/1/6 1323/1/6 1324/1/6
f 1325/1/2 1326/1/2 1327/1/2 1328/1/2
f 1329/1/3 1330/1/3 1331/1/3 1332/1/3
f 1333/1/5 1334/1/5 1335/1/5 1336/1/5
f 1337/1/6 1338/1/6 1339/1/6 1340/1/6
f 1341/1/1 1342/1/1 1343/1/1 1344/1/1
f 1345/1/3 1346/1/3 1347/1/3 1348/1/3
f 1349/1/5 1350/1/5 1351/1/5 1352/1/5
f 1353/1/6 1354/1/6 1355/1/6 1356/1/6
f 1357/1/5 1358/1/5 1359/1/5 1360/1/5
f 1361/1/6 1362/1/6 1363/1/6 1364/1/6
f 1365/1/2 1366/1/2 1367/1/2 1368/1/2
f 1369/1/3 1370/1/3 1371/1/3 1372/1/3
f 1373/1/5 1374/1/5 1375/1/5 1376/1/5
f 1377/1/6 1378/1/6 1379/1/6 1380/1/6
f 1381/1/1 1382/1/1 1383/1/1 1384/1/1
f 1385/1/4 1386/1/4 1387/1/4 1388/1/4
f 1389/1/5 1390/1/5 1391/1/5 1392/1/5
f 1393/1/6 1394/1/6 1395/1/6 1396/1/6
f 1397/1/4 1398/1/4 1399/1/4 1400/1/4
f 1401/1/5 1402/1/5 1403/1/5 1404/1/5
f 1405/1/6 1406/1/6 1407/1/6 1408/1/6
f 1409/1/4 1410/1/4 1411/1/4 1412/1/4
f 1413/1/5 1414/1/5 1415/1/5 1416/1/5
f 1417/1/6 1418/1/6 1419/1/6 1420/1/6
f 1421/1/4 1422/1/4 1423/1/4 1424/1/4
f 1425/1/5 1426/1/5 1427/1/5 1428/1/5
f 1429/1/6 1430/1/6 1431/1/6 1432/1/6
f 1433/1/3 1434/1/3 1435/1/3 1436/1/3
f 1437/1/4 1438/1/4 1439/1/4 1440/1/4
f 1441/1/5 1442/1/5 1443/1/5 1444/1/5
f 1445/1/6 1446/1/6 1447/1/6 1448/1/6
f 1449/1/2 1450/1/2 1451/1/2 1452/1/2
f 1453/1/3 1454/1/3 1455/1/3 1456/1/3
f 1457/1/4 1458/1/4 1459/1/4 1460/1/4
f 1461/1/5 1462/1/5 1463/1/5 1464/1/5
f 1465/1/6 1466/1/6 1467/1/6 1468/1/6
f 1469/1/1 1470/1/1 1471/1/1 1472/1/1
f 1473/1/3 1474/1/3 1475/1/3 1476/1/3
f 1477/1/4 1478/1/4 1479/1/4 1480/1/4
f 1481/1/5 1482/1/5 1483/1/5 1484/1/5
f 1485/1/6 1486/1/6 1487/1/6 1488/1/6
f 1489/1/4 1490/1/4 1491/1/4 1492/1/4
f 1493/1/5 1494/1/5 1495/1/5 1496/1/5
f 1497/1/6 1498/1/6 1499/1/6 1500/1/6
f 1501/1/4 1502/1/4 1503/1/4 1504/1/4
f 1505/1/5 1506/1/5 1507/1/5 1508/1/5
f 1509/1/6 1510/1/6 1511/1/6 1512/1/6
f 1513/1/2 1514/1/2 1515/1/2 1516/1/2
f 1517/1/4 1518/1/4 1519/1/4 1520/1/4
f 1521/1/5 1522/1/5 1523/1/5 1524/1/5
f 1525/1/6 1526/1/6 1527/1/6 1528/1/6

