# generated by vox_to_obj_exporter
# scale=0.1 center=false ground=false y_up=true

mtllib Fight_113.mtl
usemtl palette

# normals
vn -1 0 0
vn 1 0 0
vn 0 1 0
vn 0 -1 0
vn 0 0 1
vn 0 0 -1

# texcoords
vt 0.041015625 0.5

# verts
v 9.4 4.4 -2.6
v 9.4 4.3 -2.6
v 9.4 4.3 -2.5
v 9.4 4.4 -2.5
v 9.4 4.4 -2.6
v 9.4 4.4 -2.5
v 9.5 4.4 -2.5
v 9.5 4.4 -2.6
v 9.4 4.4 -2.5
v 9.4 4.3 -2.5
v 9.5 4.3 -2.5
v 9.5 4.4 -2.5
v 9.5 4.4 -2.6
v 9.5 4.3 -2.6
v 9.4 4.3 -2.6
v 9.4 4.4 -2.6
v 9.5 4.4 -2.6
v 9.5 4.4 -2.5
v 9.6 4.4 -2.5
v 9.6 4.4 -2.6
v 9.5 4.4 -2.5
v 9.5 4.3 -2.5
v 9.6 4.3 -2.5
v 9.6 4.4 -2.5
v 9.6 4.4 -2.6
v 9.6 4.3 -2.6
v 9.5 4.3 -2.6
v 9.5 4.4 -2.6
v 9.6 4.4 -2.6
v 9.6 4.4 -2.5
v 9.7 4.4 -2.5
v 9.7 4.4 -2.6
v 9.6 4.4 -2.5
v 9.6 4.3 -2.5
v 9.7 4.3 -2.5
v 9.7 4.4 -2.5
v 9.7 4.4 -2.6
v 9.7 4.3 -2.6
v 9.6 4.3 -2.6
v 9.6 4.4 -2.6
v 9.8 4.4 -2.5
v 9.8 4.3 -2.5
v 9.8 4.3 -2.6
v 9.8 4.4 -2.6
v 9.7 4.4 -2.6
v 9.7 4.4 -2.5
v 9.8 4.4 -2.5
v 9.8 4.4 -2.6
v 9.7 4.4 -2.5
v 9.7 4.3 -2.5
v 9.8 4.3 -2.5
v 9.8 4.4 -2.5
v 9.8 4.4 -2.6
v 9.8 4.3 -2.6
v 9.7 4.3 -2.6
v 9.7 4.4 -2.6
v 11.2 4.4 -2.6
v 11.2 4.3 -2.6
v 11.2 4.3 -2.5
v 11.2 4.4 -2.5
v 11.3 4.4 -2.5
v 11.3 4.3 -2.5
v 11.3 4.3 -2.6
v 11.3 4.4 -2.6
v 11.2 4.4 -2.6
v 11.2 4.4 -2.5
v 11.3 4.4 -2.5
v 11.3 4.4 -2.6
v 11.2 4.3 -2.5
v 11.2 4.3 -2.6
v 11.3 4.3 -2.6
v 11.3 4.3 -2.5
v 11.2 4.4 -2.5
v 11.2 4.3 -2.5
v 11.3 4.3 -2.5
v 11.3 4.4 -2.5
v 11.3 4.4 -2.6
v 11.3 4.3 -2.6
v 11.2 4.3 -2.6
v 11.2 4.4 -2.6
v 9.3 4.3 -2.6
v 9.3 4.2 -2.6
v 9.3 4.2 -2.5
v 9.3 4.3 -2.5
v 9.3 4.3 -2.6
v 9.3 4.3 -2.5
v 9.4 4.3 -2.5
v 9.4 4.3 -2.6
v 9.3 4.3 -2.5
v 9.3 4.2 -2.5
v 9.4 4.2 -2.5
v 9.4 4.3 -2.5
v 9.4 4.3 -2.6
v 9.4 4.2 -2.6
v 9.3 4.2 -2.6
v 9.3 4.3 -2.6
v 9.4 4.3 -2.5
v 9.4 4.2 -2.5
v 9.5 4.2 -2.5
v 9.5 4.3 -2.5
v 9.5 4.3 -2.6
v 9.5 4.2 -2.6
v 9.4 4.2 -2.6
v 9.4 4.3 -2.6
v 9.5 4.3 -2.5
v 9.5 4.2 -2.5
v 9.6 4.2 -2.5
v 9.6 4.3 -2.5
v 9.6 4.3 -2.6
v 9.6 4.2 -2.6
v 9.5 4.2 -2.6
v 9.5 4.3 -2.6
v 9.6 4.3 -2.5
v 9.6 4.2 -2.5
v 9.7 4.2 -2.5
v 9.7 4.3 -2.5
v 9.7 4.3 -2.6
v 9.7 4.2 -2.6
v 9.6 4.2 -2.6
v 9.6 4.3 -2.6
v 9.7 4.3 -2.5
v 9.7 4.2 -2.5
v 9.8 4.2 -2.5
v 9.8 4.3 -2.5
v 9.8 4.3 -2.6
v 9.8 4.2 -2.6
v 9.7 4.2 -2.6
v 9.7 4.3 -2.6
v 9.8 4.3 -2.6
v 9.8 4.3 -2.5
v 9.9 4.3 -2.5
v 9.9 4.3 -2.6
v 9.8 4.3 -2.5
v 9.8 4.2 -2.5
v 9.9 4.2 -2.5
v 9.9 4.3 -2.5
v 9.9 4.3 -2.6
v 9.9 4.2 -2.6
v 9.8 4.2 -2.6
v 9.8 4.3 -2.6
v 10 4.3 -2.5
v 10 4.2 -2.5
v 10 4.2 -2.6
v 10 4.3 -2.6
v 9.9 4.3 -2.6
v 9.9 4.3 -2.5
v 10 4.3 -2.5
v 10 4.3 -2.6
v 9.9 4.3 -2.5
v 9.9 4.2 -2.5
v 10 4.2 -2.5
v 10 4.3 -2.5
v 10 4.3 -2.6
v 10 4.2 -2.6
v 9.9 4.2 -2.6
v 9.9 4.3 -2.6
v 10.6 4.3 -2.6
v 10.6 4.2 -2.6
v 10.6 4.2 -2.5
v 10.6 4.3 -2.5
v 10.6 4.3 -2.6
v 10.6 4.3 -2.5
v 10.7 4.3 -2.5
v 10.7 4.3 -2.6
v 10.6 4.3 -2.5
v 10.6 4.2 -2.5
v 10.7 4.2 -2.5
v 10.7 4.3 -2.5
v 10.7 4.3 -2.6
v 10.7 4.2 -2.6
v 10.6 4.2 -2.6
v 10.6 4.3 -2.6
v 10.7 4.3 -2.6
v 10.7 4.3 -2.5
v 10.8 4.3 -2.5
v 10.8 4.3 -2.6
v 10.7 4.3 -2.5
v 10.7 4.2 -2.5
v 10.8 4.2 -2.5
v 10.8 4.3 -2.5
v 10.8 4.3 -2.6
v 10.8 4.2 -2.6
v 10.7 4.2 -2.6
v 10.7 4.3 -2.6
v 10.8 4.3 -2.6
v 10.8 4.3 -2.5
v 10.9 4.3 -2.5
v 10.9 4.3 -2.6
v 10.8 4.3 -2.5
v 10.8 4.2 -2.5
v 10.9 4.2 -2.5
v 10.9 4.3 -2.5
v 10.9 4.3 -2.6
v 10.9 4.2 -2.6
v 10.8 4.2 -2.6
v 10.8 4.3 -2.6
v 10.9 4.3 -2.6
v 10.9 4.3 -2.5
v 11 4.3 -2.5
v 11 4.3 -2.6
v 10.9 4.2 -2.5
v 10.9 4.2 -2.6
v 11 4.2 -2.6
v 11 4.2 -2.5
v 10.9 4.3 -2.5
v 10.9 4.2 -2.5
v 11 4.2 -2.5
v 11 4.3 -2.5
v 11 4.3 -2.6
v 11 4.2 -2.6
v 10.9 4.2 -2.6
v 10.9 4.3 -2.6
v 11.1 4.3 -2.5
v 11.1 4.2 -2.5
v 11.1 4.2 -2.6
v 11.1 4.3 -2.6
v 11 4.3 -2.6
v 11 4.3 -2.5
v 11.1 4.3 -2.5
v 11.1 4.3 -2.6
v 11 4.2 -2.5
v 11 4.2 -2.6
v 11.1 4.2 -2.6
v 11.1 4.2 -2.5
v 11 4.3 -2.5
v 11 4.2 -2.5
v 11.1 4.2 -2.5
v 11.1 4.3 -2.5
v 11.1 4.3 -2.6
v 11.1 4.2 -2.6
v 11 4.2 -2.6
v 11 4.3 -2.6
v 9.1 4.2 -2.6
v 9.1 4.1 -2.6
v 9.1 4.1 -2.5
v 9.1 4.2 -2.5
v 9.1 4.2 -2.6
v 9.1 4.2 -2.5
v 9.2 4.2 -2.5
v 9.2 4.2 -2.6
v 9.1 4.2 -2.5
v 9.1 4.1 -2.5
v 9.2 4.1 -2.5
v 9.2 4.2 -2.5
v 9.2 4.2 -2.6
v 9.2 4.1 -2.6
v 9.1 4.1 -2.6
v 9.1 4.2 -2.6
v 9.2 4.2 -2.6
v 9.2 4.2 -2.5
v 9.3 4.2 -2.5
v 9.3 4.2 -2.6
v 9.2 4.2 -2.5
v 9.2 4.1 -2.5
v 9.3 4.1 -2.5
v 9.3 4.2 -2.5
v 9.3 4.2 -2.6
v 9.3 4.1 -2.6
v 9.2 4.1 -2.6
v 9.2 4.2 -2.6
v 9.3 4.2 -2.5
v 9.3 4.1 -2.5
v 9.4 4.1 -2.5
v 9.4 4.2 -2.5
v 9.4 4.2 -2.6
v 9.4 4.1 -2.6
v 9.3 4.1 -2.6
v 9.3 4.2 -2.6
v 9.4 4.2 -2.5
v 9.4 4.1 -2.5
v 9.5 4.1 -2.5
v 9.5 4.2 -2.5
v 9.5 4.2 -2.6
v 9.5 4.1 -2.6
v 9.4 4.1 -2.6
v 9.4 4.2 -2.6
v 9.5 4.2 -2.5
v 9.5 4.1 -2.5
v 9.6 4.1 -2.5
v 9.6 4.2 -2.5
v 9.6 4.2 -2.6
v 9.6 4.1 -2.6
v 9.5 4.1 -2.6
v 9.5 4.2 -2.6
v 9.6 4.2 -2.5
v 9.6 4.1 -2.5
v 9.7 4.1 -2.5
v 9.7 4.2 -2.5
v 9.7 4.2 -2.6
v 9.7 4.1 -2.6
v 9.6 4.1 -2.6
v 9.6 4.2 -2.6
v 9.7 4.2 -2.5
v 9.7 4.1 -2.5
v 9.8 4.1 -2.5
v 9.8 4.2 -2.5
v 9.8 4.2 -2.6
v 9.8 4.1 -2.6
v 9.7 4.1 -2.6
v 9.7 4.2 -2.6
v 9.8 4.2 -2.5
v 9.8 4.1 -2.5
v 9.9 4.1 -2.5
v 9.9 4.2 -2.5
v 9.9 4.2 -2.6
v 9.9 4.1 -2.6
v 9.8 4.1 -2.6
v 9.8 4.2 -2.6
v 9.9 4.2 -2.5
v 9.9 4.1 -2.5
v 10 4.1 -2.5
v 10 4.2 -2.5
v 10 4.2 -2.6
v 10 4.1 -2.6
v 9.9 4.1 -2.6
v 9.9 4.2 -2.6
v 10 4.2 -2.6
v 10 4.2 -2.5
v 10.1 4.2 -2.5
v 10.1 4.2 -2.6
v 10 4.2 -2.5
v 10 4.1 -2.5
v 10.1 4.1 -2.5
v 10.1 4.2 -2.5
v 10.1 4.2 -2.6
v 10.1 4.1 -2.6
v 10 4.1 -2.6
v 10 4.2 -2.6
v 10.1 4.2 -2.6
v 10.1 4.2 -2.5
v 10.2 4.2 -2.5
v 10.2 4.2 -2.6
v 10.1 4.2 -2.5
v 10.1 4.1 -2.5
v 10.2 4.1 -2.5
v 10.2 4.2 -2.5
v 10.2 4.2 -2.6
v 10.2 4.1 -2.6
v 10.1 4.1 -2.6
v 10.1 4.2 -2.6
v 10.2 4.2 -2.6
v 10.2 4.2 -2.5
v 10.3 4.2 -2.5
v 10.3 4.2 -2.6
v 10.2 4.2 -2.5
v 10.2 4.1 -2.5
v 10.3 4.1 -2.5
v 10.3 4.2 -2.5
v 10.3 4.2 -2.6
v 10.3 4.1 -2.6
v 10.2 4.1 -2.6
v 10.2 4.2 -2.6
v 10.3 4.2 -2.6
v 10.3 4.2 -2.5
v 10.4 4.2 -2.5
v 10.4 4.2 -2.6
v 10.3 4.2 -2.5
v 10.3 4.1 -2.5
v 10.4 4.1 -2.5
v 10.4 4.2 -2.5
v 10.4 4.2 -2.6
v 10.4 4.1 -2.6
v 10.3 4.1 -2.6
v 10.3 4.2 -2.6
v 10.4 4.2 -2.6
v 10.4 4.2 -2.5
v 10.5 4.2 -2.5
v 10.5 4.2 -2.6
v 10.4 4.2 -2.5
v 10.4 4.1 -2.5
v 10.5 4.1 -2.5
v 10.5 4.2 -2.5
v 10.5 4.2 -2.6
v 10.5 4.1 -2.6
v 10.4 4.1 -2.6
v 10.4 4.2 -2.6
v 10.5 4.2 -2.6
v 10.5 4.2 -2.5
v 10.6 4.2 -2.5
v 10.6 4.2 -2.6
v 10.5 4.2 -2.5
v 10.5 4.1 -2.5
v 10.6 4.1 -2.5
v 10.6 4.2 -2.5
v 10.6 4.2 -2.6
v 10.6 4.1 -2.6
v 10.5 4.1 -2.6
v 10.5 4.2 -2.6
v 10.6 4.1 -2.5
v 10.6 4.1 -2.6
v 10.7 4.1 -2.6
v 10.7 4.1 -2.5
v 10.6 4.2 -2.5
v 10.6 4.1 -2.5
v 10.7 4.1 -2.5
v 10.7 4.2 -2.5
v 10.7 4.2 -2.6
v 10.7 4.1 -2.6
v 10.6 4.1 -2.6
v 10.6 4.2 -2.6
v 10.7 4.1 -2.5
v 10.7 4.1 -2.6
v 10.8 4.1 -2.6
v 10.8 4.1 -2.5
v 10.7 4.2 -2.5
v 10.7 4.1 -2.5
v 10.8 4.1 -2.5
v 10.8 4.2 -2.5
v 10.8 4.2 -2.6
v 10.8 4.1 -2.6
v 10.7 4.1 -2.6
v 10.7 4.2 -2.6
v 10.9 4.2 -2.5
v 10.9 4.1 -2.5
v 10.9 4.1 -2.6
v 10.9 4.2 -2.6
v 10.8 4.1 -2.5
v 10.8 4.1 -2.6
v 10.9 4.1 -2.6
v 10.9 4.1 -2.5
v 10.8 4.2 -2.5
v 10.8 4.1 -2.5
v 10.9 4.1 -2.5
v 10.9 4.2 -2.5
v 10.9 4.2 -2.6
v 10.9 4.1 -2.6
v 10.8 4.1 -2.6
v 10.8 4.2 -2.6
v 8.7 4.1 -2.6
v 8.7 4 -2.6
v 8.7 4 -2.5
v 8.7 4.1 -2.5
v 8.7 4.1 -2.6
v 8.7 4.1 -2.5
v 8.8 4.1 -2.5
v 8.8 4.1 -2.6
v 8.7 4.1 -2.5
v 8.7 4 -2.5
v 8.8 4 -2.5
v 8.8 4.1 -2.5
v 8.8 4.1 -2.6
v 8.8 4 -2.6
v 8.7 4 -2.6
v 8.7 4.1 -2.6
v 8.8 4.1 -2.6
v 8.8 4.1 -2.5
v 8.9 4.1 -2.5
v 8.9 4.1 -2.6
v 8.8 4.1 -2.5
v 8.8 4 -2.5
v 8.9 4 -2.5
v 8.9 4.1 -2.5
v 8.9 4.1 -2.6
v 8.9 4 -2.6
v 8.8 4 -2.6
v 8.8 4.1 -2.6
v 8.9 4.1 -2.6
v 8.9 4.1 -2.5
v 9 4.1 -2.5
v 9 4.1 -2.6
v 8.9 4.1 -2.5
v 8.9 4 -2.5
v 9 4 -2.5
v 9 4.1 -2.5
v 9 4.1 -2.6
v 9 4 -2.6
v 8.9 4 -2.6
v 8.9 4.1 -2.6
v 9 4.1 -2.6
v 9 4.1 -2.5
v 9.1 4.1 -2.5
v 9.1 4.1 -2.6
v 9 4.1 -2.5
v 9 4 -2.5
v 9.1 4 -2.5
v 9.1 4.1 -2.5
v 9.1 4.1 -2.6
v 9.1 4 -2.6
v 9 4 -2.6
v 9 4.1 -2.6
v 9.1 4.1 -2.5
v 9.1 4 -2.5
v 9.2 4 -2.5
v 9.2 4.1 -2.5
v 9.2 4.1 -2.6
v 9.2 4 -2.6
v 9.1 4 -2.6
v 9.1 4.1 -2.6
v 9.2 4.1 -2.5
v 9.2 4 -2.5
v 9.3 4 -2.5
v 9.3 4.1 -2.5
v 9.3 4.1 -2.6
v 9.3 4 -2.6
v 9.2 4 -2.6
v 9.2 4.1 -2.6
v 9.3 4.1 -2.5
v 9.3 4 -2.5
v 9.4 4 -2.5
v 9.4 4.1 -2.5
v 9.4 4.1 -2.6
v 9.4 4 -2.6
v 9.3 4 -2.6
v 9.3 4.1 -2.6
v 9.4 4.1 -2.5
v 9.4 4 -2.5
v 9.5 4 -2.5
v 9.5 4.1 -2.5
v 9.5 4.1 -2.6
v 9.5 4 -2.6
v 9.4 4 -2.6
v 9.4 4.1 -2.6
v 9.5 4.1 -2.5
v 9.5 4 -2.5
v 9.6 4 -2.5
v 9.6 4.1 -2.5
v 9.6 4.1 -2.6
v 9.6 4 -2.6
v 9.5 4 -2.6
v 9.5 4.1 -2.6
v 9.6 4.1 -2.5
v 9.6 4 -2.5
v 9.7 4 -2.5
v 9.7 4.1 -2.5
v 9.7 4.1 -2.6
v 9.7 4 -2.6
v 9.6 4 -2.6
v 9.6 4.1 -2.6
v 9.7 4.1 -2.5
v 9.7 4 -2.5
v 9.8 4 -2.5
v 9.8 4.1 -2.5
v 9.8 4.1 -2.6
v 9.8 4 -2.6
v 9.7 4 -2.6
v 9.7 4.1 -2.6
v 9.8 4.1 -2.5
v 9.8 4 -2.5
v 9.9 4 -2.5
v 9.9 4.1 -2.5
v 9.9 4.1 -2.6
v 9.9 4 -2.6
v 9.8 4 -2.6
v 9.8 4.1 -2.6
v 9.9 4.1 -2.5
v 9.9 4 -2.5
v 10 4 -2.5
v 10 4.1 -2.5
v 10 4.1 -2.6
v 10 4 -2.6
v 9.9 4 -2.6
v 9.9 4.1 -2.6
v 10 4.1 -2.5
v 10 4 -2.5
v 10.1 4 -2.5
v 10.1 4.1 -2.5
v 10.1 4.1 -2.6
v 10.1 4 -2.6
v 10 4 -2.6
v 10 4.1 -2.6
v 10.1 4.1 -2.5
v 10.1 4 -2.5
v 10.2 4 -2.5
v 10.2 4.1 -2.5
v 10.2 4.1 -2.6
v 10.2 4 -2.6
v 10.1 4 -2.6
v 10.1 4.1 -2.6
v 10.2 4.1 -2.5
v 10.2 4 -2.5
v 10.3 4 -2.5
v 10.3 4.1 -2.5
v 10.3 4.1 -2.6
v 10.3 4 -2.6
v 10.2 4 -2.6
v 10.2 4.1 -2.6
v 10.3 4 -2.5
v 10.3 4 -2.6
v 10.4 4 -2.6
v 10.4 4 -2.5
v 10.3 4.1 -2.5
v 10.3 4 -2.5
v 10.4 4 -2.5
v 10.4 4.1 -2.5
v 10.4 4.1 -2.6
v 10.4 4 -2.6
v 10.3 4 -2.6
v 10.3 4.1 -2.6
v 10.4 4 -2.5
v 10.4 4 -2.6
v 10.5 4 -2.6
v 10.5 4 -2.5
v 10.4 4.1 -2.5
v 10.4 4 -2.5
v 10.5 4 -2.5
v 10.5 4.1 -2.5
v 10.5 4.1 -2.6
v 10.5 4 -2.6
v 10.4 4 -2.6
v 10.4 4.1 -2.6
v 10.6 4.1 -2.5
v 10.6 4 -2.5
v 10.6 4 -2.6
v 10.6 4.1 -2.6
v 10.5 4 -2.5
v 10.5 4 -2.6
v 10.6 4 -2.6
v 10.6 4 -2.5
v 10.5 4.1 -2.5
v 10.5 4 -2.5
v 10.6 4 -2.5
v 10.6 4.1 -2.5
v 10.6 4.1 -2.6
v 10.6 4 -2.6
v 10.5 4 -2.6
v 10.5 4.1 -2.6
v 8.2 4 -2.6
v 8.2 3.9 -2.6
v 8.2 3.9 -2.5
v 8.2 4 -2.5
v 8.2 4 -2.6
v 8.2 4 -2.5
v 8.3 4 -2.5
v 8.3 4 -2.6
v 8.2 3.9 -2.5
v 8.2 3.9 -2.6
v 8.3 3.9 -2.6
v 8.3 3.9 -2.5
v 8.2 4 -2.5
v 8.2 3.9 -2.5
v 8.3 3.9 -2.5
v 8.3 4 -2.5
v 8.3 4 -2.6
v 8.3 3.9 -2.6
v 8.2 3.9 -2.6
v 8.2 4 -2.6
v 8.3 4 -2.6
v 8.3 4 -2.5
v 8.4 4 -2.5
v 8.4 4 -2.6
v 8.3 3.9 -2.5
v 8.3 3.9 -2.6
v 8.4 3.9 -2.6
v 8.4 3.9 -2.5
v 8.3 4 -2.5
v 8.3 3.9 -2.5
v 8.4 3.9 -2.5
v 8.4 4 -2.5
v 8.4 4 -2.6
v 8.4 3.9 -2.6
v 8.3 3.9 -2.6
v 8.3 4 -2.6
v 8.4 4 -2.6
v 8.4 4 -2.5
v 8.5 4 -2.5
v 8.5 4 -2.6
v 8.4 3.9 -2.5
v 8.4 3.9 -2.6
v 8.5 3.9 -2.6
v 8.5 3.9 -2.5
v 8.4 4 -2.5
v 8.4 3.9 -2.5
v 8.5 3.9 -2.5
v 8.5 4 -2.5
v 8.5 4 -2.6
v 8.5 3.9 -2.6
v 8.4 3.9 -2.6
v 8.4 4 -2.6
v 8.5 4 -2.6
v 8.5 4 -2.5
v 8.6 4 -2.5
v 8.6 4 -2.6
v 8.5 3.9 -2.5
v 8.5 3.9 -2.6
v 8.6 3.9 -2.6
v 8.6 3.9 -2.5
v 8.5 4 -2.5
v 8.5 3.9 -2.5
v 8.6 3.9 -2.5
v 8.6 4 -2.5
v 8.6 4 -2.6
v 8.6 3.9 -2.6
v 8.5 3.9 -2.6
v 8.5 4 -2.6
v 8.6 4 -2.6
v 8.6 4 -2.5
v 8.7 4 -2.5
v 8.7 4 -2.6
v 8.6 3.9 -2.5
v 8.6 3.9 -2.6
v 8.7 3.9 -2.6
v 8.7 3.9 -2.5
v 8.6 4 -2.5
v 8.6 3.9 -2.5
v 8.7 3.9 -2.5
v 8.7 4 -2.5
v 8.7 4 -2.6
v 8.7 3.9 -2.6
v 8.6 3.9 -2.6
v 8.6 4 -2.6
v 8.7 4 -2.5
v 8.7 3.9 -2.5
v 8.8 3.9 -2.5
v 8.8 4 -2.5
v 8.8 4 -2.6
v 8.8 3.9 -2.6
v 8.7 3.9 -2.6
v 8.7 4 -2.6
v 8.8 4 -2.5
v 8.8 3.9 -2.5
v 8.9 3.9 -2.5
v 8.9 4 -2.5
v 8.9 4 -2.6
v 8.9 3.9 -2.6
v 8.8 3.9 -2.6
v 8.8 4 -2.6
v 8.9 4 -2.5
v 8.9 3.9 -2.5
v 9 3.9 -2.5
v 9 4 -2.5
v 9 4 -2.6
v 9 3.9 -2.6
v 8.9 3.9 -2.6
v 8.9 4 -2.6
v 9 4 -2.5
v 9 3.9 -2.5
v 9.1 3.9 -2.5
v 9.1 4 -2.5
v 9.1 4 -2.6
v 9.1 3.9 -2.6
v 9 3.9 -2.6
v 9 4 -2.6
v 9.1 4 -2.5
v 9.1 3.9 -2.5
v 9.2 3.9 -2.5
v 9.2 4 -2.5
v 9.2 4 -2.6
v 9.2 3.9 -2.6
v 9.1 3.9 -2.6
v 9.1 4 -2.6
v 9.2 4 -2.5
v 9.2 3.9 -2.5
v 9.3 3.9 -2.5
v 9.3 4 -2.5
v 9.3 4 -2.6
v 9.3 3.9 -2.6
v 9.2 3.9 -2.6
v 9.2 4 -2.6
v 9.3 4 -2.5
v 9.3 3.9 -2.5
v 9.4 3.9 -2.5
v 9.4 4 -2.5
v 9.4 4 -2.6
v 9.4 3.9 -2.6
v 9.3 3.9 -2.6
v 9.3 4 -2.6
v 9.4 4 -2.5
v 9.4 3.9 -2.5
v 9.5 3.9 -2.5
v 9.5 4 -2.5
v 9.5 4 -2.6
v 9.5 3.9 -2.6
v 9.4 3.9 -2.6
v 9.4 4 -2.6
v 9.5 4 -2.5
v 9.5 3.9 -2.5
v 9.6 3.9 -2.5
v 9.6 4 -2.5
v 9.6 4 -2.6
v 9.6 3.9 -2.6
v 9.5 3.9 -2.6
v 9.5 4 -2.6
v 9.6 4 -2.5
v 9.6 3.9 -2.5
v 9.7 3.9 -2.5
v 9.7 4 -2.5
v 9.7 4 -2.6
v 9.7 3.9 -2.6
v 9.6 3.9 -2.6
v 9.6 4 -2.6
v 9.7 3.9 -2.5
v 9.7 3.9 -2.6
v 9.8 3.9 -2.6
v 9.8 3.9 -2.5
v 9.7 4 -2.5
v 9.7 3.9 -2.5
v 9.8 3.9 -2.5
v 9.8 4 -2.5
v 9.8 4 -2.6
v 9.8 3.9 -2.6
v 9.7 3.9 -2.6
v 9.7 4 -2.6
v 9.8 3.9 -2.5
v 9.8 3.9 -2.6
v 9.9 3.9 -2.6
v 9.9 3.9 -2.5
v 9.8 4 -2.5
v 9.8 3.9 -2.5
v 9.9 3.9 -2.5
v 9.9 4 -2.5
v 9.9 4 -2.6
v 9.9 3.9 -2.6
v 9.8 3.9 -2.6
v 9.8 4 -2.6
v 9.9 3.9 -2.5
v 9.9 3.9 -2.6
v 10 3.9 -2.6
v 10 3.9 -2.5
v 9.9 4 -2.5
v 9.9 3.9 -2.5
v 10 3.9 -2.5
v 10 4 -2.5
v 10 4 -2.6
v 10 3.9 -2.6
v 9.9 3.9 -2.6
v 9.9 4 -2.6
v 10 3.9 -2.5
v 10 3.9 -2.6
v 10.1 3.9 -2.6
v 10.1 3.9 -2.5
v 10 4 -2.5
v 10 3.9 -2.5
v 10.1 3.9 -2.5
v 10.1 4 -2.5
v 10.1 4 -2.6
v 10.1 3.9 -2.6
v 10 3.9 -2.6
v 10 4 -2.6
v 10.1 3.9 -2.5
v 10.1 3.9 -2.6
v 10.2 3.9 -2.6
v 10.2 3.9 -2.5
v 10.1 4 -2.5
v 10.1 3.9 -2.5
v 10.2 3.9 -2.5
v 10.2 4 -2.5
v 10.2 4 -2.6
v 10.2 3.9 -2.6
v 10.1 3.9 -2.6
v 10.1 4 -2.6
v 10.3 4 -2.5
v 10.3 3.9 -2.5
v 10.3 3.9 -2.6
v 10.3 4 -2.6
v 10.2 3.9 -2.5
v 10.2 3.9 -2.6
v 10.3 3.9 -2.6
v 10.3 3.9 -2.5
v 10.2 4 -2.5
v 10.2 3.9 -2.5
v 10.3 3.9 -2.5
v 10.3 4 -2.5
v 10.3 4 -2.6
v 10.3 3.9 -2.6
v 10.2 3.9 -2.6
v 10.2 4 -2.6
v 8.7 3.9 -2.6
v 8.7 3.8 -2.6
v 8.7 3.8 -2.5
v 8.7 3.9 -2.5
v 8.7 3.8 -2.5
v 8.7 3.8 -2.6
v 8.8 3.8 -2.6
v 8.8 3.8 -2.5
v 8.7 3.9 -2.5
v 8.7 3.8 -2.5
v 8.8 3.8 -2.5
v 8.8 3.9 -2.5
v 8.8 3.9 -2.6
v 8.8 3.8 -2.6
v 8.7 3.8 -2.6
v 8.7 3.9 -2.6
v 8.8 3.8 -2.5
v 8.8 3.8 -2.6
v 8.9 3.8 -2.6
v 8.9 3.8 -2.5
v 8.8 3.9 -2.5
v 8.8 3.8 -2.5
v 8.9 3.8 -2.5
v 8.9 3.9 -2.5
v 8.9 3.9 -2.6
v 8.9 3.8 -2.6
v 8.8 3.8 -2.6
v 8.8 3.9 -2.6
v 8.9 3.8 -2.5
v 8.9 3.8 -2.6
v 9 3.8 -2.6
v 9 3.8 -2.5
v 8.9 3.9 -2.5
v 8.9 3.8 -2.5
v 9 3.8 -2.5
v 9 3.9 -2.5
v 9 3.9 -2.6
v 9 3.8 -2.6
v 8.9 3.8 -2.6
v 8.9 3.9 -2.6
v 9 3.8 -2.5
v 9 3.8 -2.6
v 9.1 3.8 -2.6
v 9.1 3.8 -2.5
v 9 3.9 -2.5
v 9 3.8 -2.5
v 9.1 3.8 -2.5
v 9.1 3.9 -2.5
v 9.1 3.9 -2.6
v 9.1 3.8 -2.6
v 9 3.8 -2.6
v 9 3.9 -2.6
v 9.1 3.8 -2.5
v 9.1 3.8 -2.6
v 9.2 3.8 -2.6
v 9.2 3.8 -2.5
v 9.1 3.9 -2.5
v 9.1 3.8 -2.5
v 9.2 3.8 -2.5
v 9.2 3.9 -2.5
v 9.2 3.9 -2.6
v 9.2 3.8 -2.6
v 9.1 3.8 -2.6
v 9.1 3.9 -2.6
v 9.2 3.8 -2.5
v 9.2 3.8 -2.6
v 9.3 3.8 -2.6
v 9.3 3.8 -2.5
v 9.2 3.9 -2.5
v 9.2 3.8 -2.5
v 9.3 3.8 -2.5
v 9.3 3.9 -2.5
v 9.3 3.9 -2.6
v 9.3 3.8 -2.6
v 9.2 3.8 -2.6
v 9.2 3.9 -2.6
v 9.3 3.8 -2.5
v 9.3 3.8 -2.6
v 9.4 3.8 -2.6
v 9.4 3.8 -2.5
v 9.3 3.9 -2.5
v 9.3 3.8 -2.5
v 9.4 3.8 -2.5
v 9.4 3.9 -2.5
v 9.4 3.9 -2.6
v 9.4 3.8 -2.6
v 9.3 3.8 -2.6
v 9.3 3.9 -2.6
v 9.4 3.8 -2.5
v 9.4 3.8 -2.6
v 9.5 3.8 -2.6
v 9.5 3.8 -2.5
v 9.4 3.9 -2.5
v 9.4 3.8 -2.5
v 9.5 3.8 -2.5
v 9.5 3.9 -2.5
v 9.5 3.9 -2.6
v 9.5 3.8 -2.6
v 9.4 3.8 -2.6
v 9.4 3.9 -2.6
v 9.5 3.8 -2.5
v 9.5 3.8 -2.6
v 9.6 3.8 -2.6
v 9.6 3.8 -2.5
v 9.5 3.9 -2.5
v 9.5 3.8 -2.5
v 9.6 3.8 -2.5
v 9.6 3.9 -2.5
v 9.6 3.9 -2.6
v 9.6 3.8 -2.6
v 9.5 3.8 -2.6
v 9.5 3.9 -2.6
v 9.7 3.9 -2.5
v 9.7 3.8 -2.5
v 9.7 3.8 -2.6
v 9.7 3.9 -2.6
v 9.6 3.8 -2.5
v 9.6 3.8 -2.6
v 9.7 3.8 -2.6
v 9.7 3.8 -2.5
v 9.6 3.9 -2.5
v 9.6 3.8 -2.5
v 9.7 3.8 -2.5
v 9.7 3.9 -2.5
v 9.7 3.9 -2.6
v 9.7 3.8 -2.6
v 9.6 3.8 -2.6
v 9.6 3.9 -2.6

# faces
f 1/1/1 2/1/1 3/1/1 4/1/1
f 5/1/3 6/1/3 7/1/3 8/1/3
f 9/1/5 10/1/5 11/1/5 12/1/5
f 13/1/6 14/1/6 15/1/6 16/1/6
f 17/1/3 18/1/3 19/1/3 20/1/3
f 21/1/5 22/1/5 23/1/5 24/1/5
f 25/1/6 26/1/6 27/1/6 28/1/6
f 29/1/3 30/1/3 31/1/3 32/1/3
f 33/1/5 34/1/5 35/1/5 36/1/5
f 37/1/6 38/1/6 39/1/6 40/1/6
f 41/1/2 42/1/2 43/1/2 44/1/2
f 45/1/3 46/1/3 47/1/3 48/1/3
f 49/1/5 50/1/5 51/1/5 52/1/5
f 53/1/6 54/1/6 55/1/6 56/1/6
f 57/1/1 58/1/1 59/1/1 60/1/1
f 61/1/2 62/1/2 63/1/2 64/1/2
f 65/1/3 66/1/3 67/1/3 68/1/3
f 69/1/4 70/1/4 71/1/4 72/1/4
f 73/1/5 74/1/5 75/1/5 76/1/5
f 77/1/6 78/1/6 79/1/6 80/1/6
f 81/1/1 82/1/1 83/1/1 84/1/1
f 85/1/3 86/1/3 87/1/3 88/1/3
f 89/1/5 90/1/5 91/1/5 92/1/5
f 93/1/6 94/1/6 95/1/6 96/1/6
f 97/1/5 98/1/5 99/1/5 100/1/5
f 101/1/6 102/1/6 103/1/6 104/1/6
f 105/1/5 106/1/5 107/1/5 108/1/5
f 109/1/6 110/1/6 111/1/6 112/1/6
f 113/1/5 114/1/5 115/1/5 116/1/5
f 117/1/6 118/1/6 119/1/6 120/1/6
f 121/1/5 122/1/5 123/1/5 124/1/5
f 125/1/6 126/1/6 127/1/6 128/1/6
f 129/1/3 130/1/3 131/1/3 132/1/3
f 133/1/5 134/1/5 135/1/5 136/1/5
f 137/1/6 138/1/6 139/1/6 140/1/6
f 141/1/2 142/1/2 143/1/2 144/1/2
f 145/1/3 146/1/3 147/1/3 148/1/3
f 149/1/5 150/1/5 151/1/5 152/1/5
f 153/1/6 154/1/6 155/1/6 156/1/6
f 157/1/1 158/1/1 159/1/1 160/1/1
f 161/1/3 162/1/3 163/1/3 164/1/3
f 165/1/5 166/1/5 167/1/5 168/1/5
f 169/1/6 170/1/6 171/1/6 172/1/6
f 173/1/3 174/1/3 175/1/3 176/1/3
f 177/1/5 178/1/5 179/1/5 180/1/5
f 181/1/6 182/1/6 183/1/6 184/1/6
f 185/1/3 186/1/3 187/1/3 188/1/3
f 189/1/5 190/1/5 191/1/5 192/1/5
f 193/1/6 194/1/6 195/1/6 196/1/6
f 197/1/3 198/1/3 199/1/3 200/1/3
f 201/1/4 202/1/4 203/1/4 204/1/4
f 205/1/5 206/1/5 207/1/5 208/1/5
f 209/1/6 210/1/6 211/1/6 212/1/6
f 213/1/2 214/1/2 215/1/2 216/1/2
f 217/1/3 218/1/3 219/1/3 220/1/3
f 221/1/4 222/1/4 223/1/4 224/1/4
f 225/1/5 226/1/5 227/1/5 228/1/5
f 229/1/6 230/1/6 231/1/6 232/1/6
f 233/1/1 234/1/1 235/1/1 236/1/1
f 237/1/3 238/1/3 239/1/3 240/1/3
f 241/1/5 242/1/5 243/1/5 244/1/5
f 245/1/6 246/1/6 247/1/6 248/1/6
f 249/1/3 250/1/3 251/1/3 252/1/3
f 253/1/5 254/1/5 255/1/5 256/1/5
f 257/1/6 258/1/6 259/1/6 260/1/6
f 261/1/5 262/1/5 263/1/5 264/1/5
f 265/1/6 266/1/6 267/1/6 268/1/6
f 269/1/5 270/1/5 271/1/5 272/1/5
f 273/1/6 274/1/6 275/1/6 276/1/6
f 277/1/5 278/1/5 279/1/5 280/1/5
f 281/1/6 282/1/6 283/1/6 284/1/6
f 285/1/5 286/1/5 287/1/5 288/1/5
f 289/1/6 290/1/6 291/1/6 292/1/6
f 293/1/5 294/1/5 295/1/5 296/1/5
f 297/1/6 298/1/6 299/1/6 300/1/6
f 301/1/5 302/1/5 303/1/5 304/1/5
f 305/1/6 306/1/6 307/1/6 308/1/6
f 309/1/5 310/1/5 311/1/5 312/1/5
f 313/1/6 314/1/6 315/1/6 316/1/6
f 317/1/3 318/1/3 319/1/3 320/1/3
f 321/1/5 322/1/5 323/1/5 324/1/5
f 325/1/6 326/1/6 327/1/6 328/1/6
f 329/1/3 330/1/3 331/1/3 332/1/3
f 333/1/5 334/1/5 335/1/5 336/1/5
f 337/1/6 338/1/6 339/1/6 340/1/6
f 341/1/3 342/1/3 343/1/3 344/1/3
f 345/1/5 346/1/5 347/1/5 348/1/5
f 349/1/6 350/1/6 351/1/6 352/1/6
f 353/1/3 354/1/3 355/1/3 356/1/3
f 357/1/5 358/1/5 359/1/5 360/1/5
f 361/1/6 362/1/6 363/1/6 364/1/6
f 365/1/3 366/1/3 367/1/3 368/1/3
f 369/1/5 370/1/5 371/1/5 372/1/5
f 373/1/6 374/1/6 375/1/6 376/1/6
f 377/1/3 378/1/3 379/1/3 380/1/3
f 381/1/5 382/1/5 383/1/5 384/1/5
f 385/1/6 386/1/6 387/1/6 388/1/6
f 389/1/4 390/1/4 391/1/4 392/1/4
f 393/1/5 394/1/5 395/1/5 396/1/5
f 397/1/6 398/1/6 399/1/6 400/1/6
f 401/1/4 402/1/4 403/1/4 404/1/4
f 405/1/5 406/1/5 407/1/5 408/1/5
f 409/1/6 410/1/6 411/1/6 412/1/6
f 413/1/2 414/1/2 415/1/2 416/1/2
f 417/1/4 418/1/4 419/1/4 420/1/4
f 421/1/5 422/1/5 423/1/5 424/1/5
f 425/1/6 426/1/6 427/1/6 428/1/6
f 429/1/1 430/1/1 431/1/1 432/1/1
f 433/1/3 434/1/3 435/1/3 436/1/3
f 437/1/5 438/1/5 439/1/5 440/1/5
f 441/1/6 442/1/6 443/1/6 444/1/6
f 445/1/3 446/1/3 447/1/3 448/1/3
f 449/1/5 450/1/5 451/1/5 452/1/5
f 453/1/6 454/1/6 455/1/6 456/1/6
f 457/1/3 458/1/3 459/1/3 460/1/3
f 461/1/5 462/1/5 463/1/5 464/1/5
f 465/1/6 466/1/6 467/1/6 468/1/6
f 469/1/3 470/1/3 471/1/3 472/1/3
f 473/1/5 474/1/5 475/1/5 476/1/5
f 477/1/6 478/1/6 479/1/6 480/1/6
f 481/1/5 482/1/5 483/1/5 484/1/5
f 485/1/6 486/1/6 487/1/6 488/1/6
f 489/1/5 490/1/5 491/1/5 492/1/5
f 493/1/6 494/1/6 495/1/6 496/1/6
f 497/1/5 498/1/5 499/1/5 500/1/5
f 501/1/6 502/1/6 503/1/6 504/1/6
f 505/1/5 506/1/5 507/1/5 508/1/5
f 509/1/6 510/1/6 511/1/6 512/1/6
f 513/1/5 514/1/5 515/1/5 516/1/5
f 517/1/6 518/1/6 519/1/6 520/1/6
f 521/1/5 522/1/5 523/1/5 524/1/5
f 525/1/6 526/1/6 527/1/6 528/1/6
f 529/1/5 530/1/5 531/1/5 532/1/5
f 533/1/6 534/1/6 535/1/6 536/1/6
f 537/1/5 538/1/5 539/1/5 540/1/5
f 541/1/6 542/1/6 543/1/6 544/1/6
f 545/1/5 546/1/5 547/1/5 548/1/5
f 549/1/6 550/1/6 551/1/6 552/1/6
f 553/1/5 554/1/5 555/1/5 556/1/5
f 557/1/6 558/1/6 559/1/6 560/1/6
f 561/1/5 562/1/5 563/1/5 564/1/5
f 565/1/6 566/1/6 567/1/6 568/1/6
f 569/1/5 570/1/5 571/1/5 572/1/5
f 573/1/6 574/1/6 575/1/6 576/1/6
f 577/1/4 578/1/4 579/1/4 580/1/4
f 581/1/5 582/1/5 583/1/5 584/1/5
f 585/1/6 586/1/6 587/1/6 588/1/6
f 589/1/4 590/1/4 591/1/4 592/1/4
f 593/1/5 594/1/5 595/1/5 596/1/5
f 597/1/6 598/1/6 599/1/6 600/1/6
f 601/1/2 602/1/2 603/1/2 604/1/2
f 605/1/4 606/1/4 607/1/4 608/1/4
f 609/1/5 610/1/5 611/1/5 612/1/5
f 613/1/6 614/1/6 615/1/6 616/1/6
f 617/1/1 618/1/1 619/1/1 620/1/1
f 621/1/3 622/1/3 623/1/3 624/1/3
f 625/1/4 626/1/4 627/1/4 628/1/4
f 629/1/5 630/1/5 631/1/5 632/1/5
f 633/1/6 634/1/6 635/1/6 636/1/6
f 637/1/3 638/1/3 639/1/3 640/1/3
f 641/1/4 642/1/4 643/1/4 644/1/4
f 645/1/5 646/1/5 647/1/5 648/1/5
f 649/1/6 650/1/6 651/1/6 652/1/6
f 653/1/3 654/1/3 655/1/3 656/1/3
f 657/1/4 658/1/4 659/1/4 660/1/4
f 661/1/5 662/1/5 663/1/5 664/1/5
f 665/1/6 666/1/6 667/1/6 668/1/6
f 669/1/3 670/1/3 671/1/3 672/1/3
f 673/1/4 674/1/4 675/1/4 676/1/4
f 677/1/5 678/1/5 679/1/5 680/1/5
f 681/1/6 682/1/6 683/1/6 684/1/6
f 685/1/3 686/1/3 687/1/3 688/1/3
f 689/1/4 690/1/4 691/1/4 692/1/4
f 693/1/5 694/1/5 695/1/5 696/1/5
f 697/1/6 698/1/6 699/1/6 700/1/6
f 701/1/5 702/1/5 703/1/5 704/1/5
f 705/1/6 706/1/6 707/1/6 708/1/6
f 709/1/5 710/1/5 711/1/5 712/1/5
f 713/1/6 714/1/6 715/1/6 716/1/6
f 717/1/5 718/1/5 719/1/5 720/1/5
f 721/1/6 722/1/6 723/1/6 724/1/6
f 725/1/5 726/1/5 727/1/5 728/1/5
f 729/1/6 730/1/6 731/1/6 732/1/6
f 733/1/5 734/1/5 735/1/5 736/1/5
f 737/1/6 738/1/6 739/1/6 740/1/6
f 741/1/5 742/1/5 743/1/5 744/1/5
f 745/1/6 746/1/6 747/1/6 748/1/6
f 749/1/5 750/1/5 751/1/5 752/1/5
f 753/1/6 754/1/6 755/1/6 756/1/6
f 757/1/5 758/1/5 759/1/5 760/1/5
f 761/1/6 762/1/6 763/1/6 764/1/6
f 765/1/5 766/1/5 767/1/5 768/1/5
f 769/1/6 770/1/6 771/1/6 772/1/6
f 773/1/5 774/1/5 775/1/5 776/1/5
f 777/1/6 778/1/6 779/1/6 780/1/6
f 781/1/4 782/1/4 783/1/4 784/1/4
f 785/1/5 786/1/5 787/1/5 788/1/5
f 789/1/6 790/1/6 791/1/6 792/1/6
f 793/1/4 794/1/4 795/1/4 796/1/4
f 797/1/5 798/1/5 799/1/5 800/1/5
f 801/1/6 802/1/6 803/1/6 804/1/6
f 805/1/4 806/1/4 807/1/4 808/1/4
f 809/1/5 810/1/5 811/1/5 812/1/5
f 813/1/6 814/1/6 815/1/6 816/1/6
f 817/1/4 818/1/4 819/1/4 820/1/4
f 821/1/5 822/1/5 823/1/5 824/1/5
f 825/1/6 826/1/6 827/1/6 828/1/6
f 829/1/4 830/1/4 831/1/4 832/1/4
f 833/1/5 834/1/5 835/1/5 836/1/5
f 837/1/6 838/1/6 839/1/6 840/1/6
f 841/1/2 842/1/2 843/1/2 844/1/2
f 845/1/4 846/1/4 847/1/4 848/1/4
f 849/1/5 850/1/5 851/1/5 852/1/5
f 853/1/6 854/1/6 855/1/6 856/1/6
f 857/1/1 858/1/1 859/1/1 860/1/1
f 861/1/4 862/1/4 863/1/4 864/1/4
f 865/1/5 866/1/5 867/1/5 868/1/5
f 869/1/6 870/1/6 871/1/6 872/1/6
f 873/1/4 874/1/4 875/1/4 876/1/4
f 877/1/5 878/1/5 879/1/5 880/1/5
f 881/1/6 882/1/6 883/1/6 884/1/6
f 885/1/4 886/1/4 887/1/4 888/1/4
f 889/1/5 890/1/5 891/1/5 892/1/5
f 893/1/6 894/1/6 895/1/6 896/1/6
f 897/1/4 898/1/4 899/1/4 900/1/4
f 901/1/5 902/1/5 903/1/5 904/1/5
f 905/1/6 906/1/6 907/1/6 908/1/6
f 909/1/4 910/1/4 911/1/4 912/1/4
f 913/1/5 914/1/5 915/1/5 916/1/5
f 917/1/6 918/1/6 919/1/6 920/1/6
f 921/1/4 922/1/4 923/1/4 924/1/4
f 925/1/5 926/1/5 927/1/5 928/1/5
f 929/1/6 930/1/6 931/1/6 932/1/6
f 933/1/4 934/1/4 935/1/4 936/1/4
f 937/1/5 938/1/5 939/1/5 940/1/5
f 941/1/6 942/1/6 943/1/6 944/1/6
f 945/1/4 946/1/4 947/1/4 948/1/4
f 949/1/5 950/1/5 951/1/5 952/1/5
f 953/1/6 954/1/6 955/1/6 956/1/6
f 957/1/4 958/1/4 959/1/4 960/1/4
f 961/1/5 962/1/5 963/1/5 964/1/5
f 965/1/6 966/1/6 967/1/6 968/1/6
f 969/1/2 970/1/2 971/1/2 972/1/2
f 973/1/4 974/1/4 975/1/4 976/1/4
f 977/1/5 978/1/5 979/1/5 980/1/5
f 981/1/6 982/1/6 983/1/6 984/1/6

