# generated by vox_to_obj_exporter
# scale=0.1 center=false ground=false y_up=true

mtllib Fight_001.mtl
usemtl palette

# normals
vn -1 0 0
vn 1 0 0
vn 0 1 0
vn 0 -1 0
vn 0 0 1
vn 0 0 -1

# texcoords
vt 0.279296875 0.5

# verts
v 17.1 11.3 -2.6
v 17.1 11.2 -2.6
v 17.1 11.2 -2.5
v 17.1 11.3 -2.5
v 17.1 11.3 -2.6
v 17.1 11.3 -2.5
v 17.2 11.3 -2.5
v 17.2 11.3 -2.6
v 17.1 11.3 -2.5
v 17.1 11.2 -2.5
v 17.2 11.2 -2.5
v 17.2 11.3 -2.5
v 17.2 11.3 -2.6
v 17.2 11.2 -2.6
v 17.1 11.2 -2.6
v 17.1 11.3 -2.6
v 17.2 11.3 -2.6
v 17.2 11.3 -2.5
v 17.3 11.3 -2.5
v 17.3 11.3 -2.6
v 17.2 11.3 -2.5
v 17.2 11.2 -2.5
v 17.3 11.2 -2.5
v 17.3 11.3 -2.5
v 17.3 11.3 -2.6
v 17.3 11.2 -2.6
v 17.2 11.2 -2.6
v 17.2 11.3 -2.6
v 17.3 11.3 -2.6
v 17.3 11.3 -2.5
v 17.4 11.3 -2.5
v 17.4 11.3 -2.6
v 17.3 11.3 -2.5
v 17.3 11.2 -2.5
v 17.4 11.2 -2.5
v 17.4 11.3 -2.5
v 17.4 11.3 -2.6
v 17.4 11.2 -2.6
v 17.3 11.2 -2.6
v 17.3 11.3 -2.6
v 17.4 11.3 -2.6
v 17.4 11.3 -2.5
v 17.5 11.3 -2.5
v 17.5 11.3 -2.6
v 17.4 11.3 -2.5
v 17.4 11.2 -2.5
v 17.5 11.2 -2.5
v 17.5 11.3 -2.5
v 17.5 11.3 -2.6
v 17.5 11.2 -2.6
v 17.4 11.2 -2.6
v 17.4 11.3 -2.6
v 17.6 11.3 -2.5
v 17.6 11.2 -2.5
v 17.6 11.2 -2.6
v 17.6 11.3 -2.6
v 17.5 11.3 -2.6
v 17.5 11.3 -2.5
v 17.6 11.3 -2.5
v 17.6 11.3 -2.6
v 17.5 11.3 -2.5
v 17.5 11.2 -2.5
v 17.6 11.2 -2.5
v 17.6 11.3 -2.5
v 17.6 11.3 -2.6
v 17.6 11.2 -2.6
v 17.5 11.2 -2.6
v 17.5 11.3 -2.6
v 16.3 11.2 -2.6
v 16.3 11.1 -2.6
v 16.3 11.1 -2.5
v 16.3 11.2 -2.5
v 16.3 11.2 -2.6
v 16.3 11.2 -2.5
v 16.4 11.2 -2.5
v 16.4 11.2 -2.6
v 16.3 11.2 -2.5
v 16.3 11.1 -2.5
v 16.4 11.1 -2.5
v 16.4 11.2 -2.5
v 16.4 11.2 -2.6
v 16.4 11.1 -2.6
v 16.3 11.1 -2.6
v 16.3 11.2 -2.6
v 16.4 11.2 -2.6
v 16.4 11.2 -2.5
v 16.5 11.2 -2.5
v 16.5 11.2 -2.6
v 16.4 11.2 -2.5
v 16.4 11.1 -2.5
v 16.5 11.1 -2.5
v 16.5 11.2 -2.5
v 16.5 11.2 -2.6
v 16.5 11.1 -2.6
v 16.4 11.1 -2.6
v 16.4 11.2 -2.6
v 16.5 11.2 -2.6
v 16.5 11.2 -2.5
v 16.6 11.2 -2.5
v 16.6 11.2 -2.6
v 16.5 11.2 -2.5
v 16.5 11.1 -2.5
v 16.6 11.1 -2.5
v 16.6 11.2 -2.5
v 16.6 11.2 -2.6
v 16.6 11.1 -2.6
v 16.5 11.1 -2.6
v 16.5 11.2 -2.6
v 16.6 11.2 -2.6
v 16.6 11.2 -2.5
v 16.7 11.2 -2.5
v 16.7 11.2 -2.6
v 16.6 11.2 -2.5
v 16.6 11.1 -2.5
v 16.7 11.1 -2.5
v 16.7 11.2 -2.5
v 16.7 11.2 -2.6
v 16.7 11.1 -2.6
v 16.6 11.1 -2.6
v 16.6 11.2 -2.6
v 16.7 11.2 -2.6
v 16.7 11.2 -2.5
v 16.8 11.2 -2.5
v 16.8 11.2 -2.6
v 16.7 11.2 -2.5
v 16.7 11.1 -2.5
v 16.8 11.1 -2.5
v 16.8 11.2 -2.5
v 16.8 11.2 -2.6
v 16.8 11.1 -2.6
v 16.7 11.1 -2.6
v 16.7 11.2 -2.6
v 16.8 11.2 -2.6
v 16.8 11.2 -2.5
v 16.9 11.2 -2.5
v 16.9 11.2 -2.6
v 16.8 11.2 -2.5
v 16.8 11.1 -2.5
v 16.9 11.1 -2.5
v 16.9 11.2 -2.5
v 16.9 11.2 -2.6
v 16.9 11.1 -2.6
v 16.8 11.1 -2.6
v 16.8 11.2 -2.6
v 16.9 11.2 -2.6
v 16.9 11.2 -2.5
v 17 11.2 -2.5
v 17 11.2 -2.6
v 16.9 11.2 -2.5
v 16.9 11.1 -2.5
v 17 11.1 -2.5
v 17 11.2 -2.5
v 17 11.2 -2.6
v 17 11.1 -2.6
v 16.9 11.1 -2.6
v 16.9 11.2 -2.6
v 17 11.2 -2.6
v 17 11.2 -2.5
v 17.1 11.2 -2.5
v 17.1 11.2 -2.6
v 17 11.2 -2.5
v 17 11.1 -2.5
v 17.1 11.1 -2.5
v 17.1 11.2 -2.5
v 17.1 11.2 -2.6
v 17.1 11.1 -2.6
v 17 11.1 -2.6
v 17 11.2 -2.6
v 17.1 11.2 -2.5
v 17.1 11.1 -2.5
v 17.2 11.1 -2.5
v 17.2 11.2 -2.5
v 17.2 11.2 -2.6
v 17.2 11.1 -2.6
v 17.1 11.1 -2.6
v 17.1 11.2 -2.6
v 17.2 11.2 -2.5
v 17.2 11.1 -2.5
v 17.3 11.1 -2.5
v 17.3 11.2 -2.5
v 17.3 11.2 -2.6
v 17.3 11.1 -2.6
v 17.2 11.1 -2.6
v 17.2 11.2 -2.6
v 17.3 11.2 -2.5
v 17.3 11.1 -2.5
v 17.4 11.1 -2.5
v 17.4 11.2 -2.5
v 17.4 11.2 -2.6
v 17.4 11.1 -2.6
v 17.3 11.1 -2.6
v 17.3 11.2 -2.6
v 17.4 11.2 -2.5
v 17.4 11.1 -2.5
v 17.5 11.1 -2.5
v 17.5 11.2 -2.5
v 17.5 11.2 -2.6
v 17.5 11.1 -2.6
v 17.4 11.1 -2.6
v 17.4 11.2 -2.6
v 17.5 11.2 -2.5
v 17.5 11.1 -2.5
v 17.6 11.1 -2.5
v 17.6 11.2 -2.5
v 17.6 11.2 -2.6
v 17.6 11.1 -2.6
v 17.5 11.1 -2.6
v 17.5 11.2 -2.6
v 17.7 11.2 -2.5
v 17.7 11.1 -2.5
v 17.7 11.1 -2.6
v 17.7 11.2 -2.6
v 17.6 11.2 -2.6
v 17.6 11.2 -2.5
v 17.7 11.2 -2.5
v 17.7 11.2 -2.6
v 17.6 11.2 -2.5
v 17.6 11.1 -2.5
v 17.7 11.1 -2.5
v 17.7 11.2 -2.5
v 17.7 11.2 -2.6
v 17.7 11.1 -2.6
v 17.6 11.1 -2.6
v 17.6 11.2 -2.6
v 16.1 11.1 -2.6
v 16.1 11 -2.6
v 16.1 11 -2.5
v 16.1 11.1 -2.5
v 16.1 11.1 -2.6
v 16.1 11.1 -2.5
v 16.2 11.1 -2.5
v 16.2 11.1 -2.6
v 16.1 11 -2.5
v 16.1 11 -2.6
v 16.2 11 -2.6
v 16.2 11 -2.5
v 16.1 11.1 -2.5
v 16.1 11 -2.5
v 16.2 11 -2.5
v 16.2 11.1 -2.5
v 16.2 11.1 -2.6
v 16.2 11 -2.6
v 16.1 11 -2.6
v 16.1 11.1 -2.6
v 16.2 11.1 -2.6
v 16.2 11.1 -2.5
v 16.3 11.1 -2.5
v 16.3 11.1 -2.6
v 16.2 11 -2.5
v 16.2 11 -2.6
v 16.3 11 -2.6
v 16.3 11 -2.5
v 16.2 11.1 -2.5
v 16.2 11 -2.5
v 16.3 11 -2.5
v 16.3 11.1 -2.5
v 16.3 11.1 -2.6
v 16.3 11 -2.6
v 16.2 11 -2.6
v 16.2 11.1 -2.6
v 16.3 11 -2.5
v 16.3 11 -2.6
v 16.4 11 -2.6
v 16.4 11 -2.5
v 16.3 11.1 -2.5
v 16.3 11 -2.5
v 16.4 11 -2.5
v 16.4 11.1 -2.5
v 16.4 11.1 -2.6
v 16.4 11 -2.6
v 16.3 11 -2.6
v 16.3 11.1 -2.6
v 16.4 11.1 -2.5
v 16.4 11 -2.5
v 16.5 11 -2.5
v 16.5 11.1 -2.5
v 16.5 11.1 -2.6
v 16.5 11 -2.6
v 16.4 11 -2.6
v 16.4 11.1 -2.6
v 16.5 11.1 -2.5
v 16.5 11 -2.5
v 16.6 11 -2.5
v 16.6 11.1 -2.5
v 16.6 11.1 -2.6
v 16.6 11 -2.6
v 16.5 11 -2.6
v 16.5 11.1 -2.6
v 16.6 11.1 -2.5
v 16.6 11 -2.5
v 16.7 11 -2.5
v 16.7 11.1 -2.5
v 16.7 11.1 -2.6
v 16.7 11 -2.6
v 16.6 11 -2.6
v 16.6 11.1 -2.6
v 16.7 11.1 -2.5
v 16.7 11 -2.5
v 16.8 11 -2.5
v 16.8 11.1 -2.5
v 16.8 11.1 -2.6
v 16.8 11 -2.6
v 16.7 11 -2.6
v 16.7 11.1 -2.6
v 16.8 11.1 -2.5
v 16.8 11 -2.5
v 16.9 11 -2.5
v 16.9 11.1 -2.5
v 16.9 11.1 -2.6
v 16.9 11 -2.6
v 16.8 11 -2.6
v 16.8 11.1 -2.6
v 16.9 11.1 -2.5
v 16.9 11 -2.5
v 17 11 -2.5
v 17 11.1 -2.5
v 17 11.1 -2.6
v 17 11 -2.6
v 16.9 11 -2.6
v 16.9 11.1 -2.6
v 17 11.1 -2.5
v 17 11 -2.5
v 17.1 11 -2.5
v 17.1 11.1 -2.5
v 17.1 11.1 -2.6
v 17.1 11 -2.6
v 17 11 -2.6
v 17 11.1 -2.6
v 17.1 11.1 -2.5
v 17.1 11 -2.5
v 17.2 11 -2.5
v 17.2 11.1 -2.5
v 17.2 11.1 -2.6
v 17.2 11 -2.6
v 17.1 11 -2.6
v 17.1 11.1 -2.6
v 17.2 11.1 -2.5
v 17.2 11 -2.5
v 17.3 11 -2.5
v 17.3 11.1 -2.5
v 17.3 11.1 -2.6
v 17.3 11 -2.6
v 17.2 11 -2.6
v 17.2 11.1 -2.6
v 17.3 11.1 -2.5
v 17.3 11 -2.5
v 17.4 11 -2.5
v 17.4 11.1 -2.5
v 17.4 11.1 -2.6
v 17.4 11 -2.6
v 17.3 11 -2.6
v 17.3 11.1 -2.6
v 17.4 11.1 -2.5
v 17.4 11 -2.5
v 17.5 11 -2.5
v 17.5 11.1 -2.5
v 17.5 11.1 -2.6
v 17.5 11 -2.6
v 17.4 11 -2.6
v 17.4 11.1 -2.6
v 17.5 11.1 -2.5
v 17.5 11 -2.5
v 17.6 11 -2.5
v 17.6 11.1 -2.5
v 17.6 11.1 -2.6
v 17.6 11 -2.6
v 17.5 11 -2.6
v 17.5 11.1 -2.6
v 17.6 11.1 -2.5
v 17.6 11 -2.5
v 17.7 11 -2.5
v 17.7 11.1 -2.5
v 17.7 11.1 -2.6
v 17.7 11 -2.6
v 17.6 11 -2.6
v 17.6 11.1 -2.6
v 17.7 11.1 -2.6
v 17.7 11.1 -2.5
v 17.8 11.1 -2.5
v 17.8 11.1 -2.6
v 17.7 11.1 -2.5
v 17.7 11 -2.5
v 17.8 11 -2.5
v 17.8 11.1 -2.5
v 17.8 11.1 -2.6
v 17.8 11 -2.6
v 17.7 11 -2.6
v 17.7 11.1 -2.6
v 17.9 11.1 -2.5
v 17.9 11 -2.5
v 17.9 11 -2.6
v 17.9 11.1 -2.6
v 17.8 11.1 -2.6
v 17.8 11.1 -2.5
v 17.9 11.1 -2.5
v 17.9 11.1 -2.6
v 17.8 11.1 -2.5
v 17.8 11 -2.5
v 17.9 11 -2.5
v 17.9 11.1 -2.5
v 17.9 11.1 -2.6
v 17.9 11 -2.6
v 17.8 11 -2.6
v 17.8 11.1 -2.6
v 16.4 11 -2.6
v 16.4 10.9 -2.6
v 16.4 10.9 -2.5
v 16.4 11 -2.5
v 16.4 10.9 -2.5
v 16.4 10.9 -2.6
v 16.5 10.9 -2.6
v 16.5 10.9 -2.5
v 16.4 11 -2.5
v 16.4 10.9 -2.5
v 16.5 10.9 -2.5
v 16.5 11 -2.5
v 16.5 11 -2.6
v 16.5 10.9 -2.6
v 16.4 10.9 -2.6
v 16.4 11 -2.6
v 16.5 11 -2.5
v 16.5 10.9 -2.5
v 16.6 10.9 -2.5
v 16.6 11 -2.5
v 16.6 11 -2.6
v 16.6 10.9 -2.6
v 16.5 10.9 -2.6
v 16.5 11 -2.6
v 16.6 11 -2.5
v 16.6 10.9 -2.5
v 16.7 10.9 -2.5
v 16.7 11 -2.5
v 16.7 11 -2.6
v 16.7 10.9 -2.6
v 16.6 10.9 -2.6
v 16.6 11 -2.6
v 16.7 11 -2.5
v 16.7 10.9 -2.5
v 16.8 10.9 -2.5
v 16.8 11 -2.5
v 16.8 11 -2.6
v 16.8 10.9 -2.6
v 16.7 10.9 -2.6
v 16.7 11 -2.6
v 16.8 11 -2.5
v 16.8 10.9 -2.5
v 16.9 10.9 -2.5
v 16.9 11 -2.5
v 16.9 11 -2.6
v 16.9 10.9 -2.6
v 16.8 10.9 -2.6
v 16.8 11 -2.6
v 16.9 10.9 -2.5
v 16.9 10.9 -2.6
v 17 10.9 -2.6
v 17 10.9 -2.5
v 16.9 11 -2.5
v 16.9 10.9 -2.5
v 17 10.9 -2.5
v 17 11 -2.5
v 17 11 -2.6
v 17 10.9 -2.6
v 16.9 10.9 -2.6
v 16.9 11 -2.6
v 17 10.9 -2.5
v 17 10.9 -2.6
v 17.1 10.9 -2.6
v 17.1 10.9 -2.5
v 17 11 -2.5
v 17 10.9 -2.5
v 17.1 10.9 -2.5
v 17.1 11 -2.5
v 17.1 11 -2.6
v 17.1 10.9 -2.6
v 17 10.9 -2.6
v 17 11 -2.6
v 17.1 10.9 -2.5
v 17.1 10.9 -2.6
v 17.2 10.9 -2.6
v 17.2 10.9 -2.5
v 17.1 11 -2.5
v 17.1 10.9 -2.5
v 17.2 10.9 -2.5
v 17.2 11 -2.5
v 17.2 11 -2.6
v 17.2 10.9 -2.6
v 17.1 10.9 -2.6
v 17.1 11 -2.6
v 17.2 10.9 -2.5
v 17.2 10.9 -2.6
v 17.3 10.9 -2.6
v 17.3 10.9 -2.5
v 17.2 11 -2.5
v 17.2 10.9 -2.5
v 17.3 10.9 -2.5
v 17.3 11 -2.5
v 17.3 11 -2.6
v 17.3 10.9 -2.6
v 17.2 10.9 -2.6
v 17.2 11 -2.6
v 17.3 10.9 -2.5
v 17.3 10.9 -2.6
v 17.4 10.9 -2.6
v 17.4 10.9 -2.5
v 17.3 11 -2.5
v 17.3 10.9 -2.5
v 17.4 10.9 -2.5
v 17.4 11 -2.5
v 17.4 11 -2.6
v 17.4 10.9 -2.6
v 17.3 10.9 -2.6
v 17.3 11 -2.6
v 17.4 11 -2.5
v 17.4 10.9 -2.5
v 17.5 10.9 -2.5
v 17.5 11 -2.5
v 17.5 11 -2.6
v 17.5 10.9 -2.6
v 17.4 10.9 -2.6
v 17.4 11 -2.6
v 17.5 11 -2.5
v 17.5 10.9 -2.5
v 17.6 10.9 -2.5
v 17.6 11 -2.5
v 17.6 11 -2.6
v 17.6 10.9 -2.6
v 17.5 10.9 -2.6
v 17.5 11 -2.6
v 17.6 11 -2.5
v 17.6 10.9 -2.5
v 17.7 10.9 -2.5
v 17.7 11 -2.5
v 17.7 11 -2.6
v 17.7 10.9 -2.6
v 17.6 10.9 -2.6
v 17.6 11 -2.6
v 17.7 11 -2.5
v 17.7 10.9 -2.5
v 17.8 10.9 -2.5
v 17.8 11 -2.5
v 17.8 11 -2.6
v 17.8 10.9 -2.6
v 17.7 10.9 -2.6
v 17.7 11 -2.6
v 17.8 11 -2.5
v 17.8 10.9 -2.5
v 17.9 10.9 -2.5
v 17.9 11 -2.5
v 17.9 11 -2.6
v 17.9 10.9 -2.6
v 17.8 10.9 -2.6
v 17.8 11 -2.6
v 17.9 11 -2.6
v 17.9 11 -2.5
v 18 11 -2.5
v 18 11 -2.6
v 17.9 11 -2.5
v 17.9 10.9 -2.5
v 18 10.9 -2.5
v 18 11 -2.5
v 18 11 -2.6
v 18 10.9 -2.6
v 17.9 10.9 -2.6
v 17.9 11 -2.6
v 18.1 11 -2.5
v 18.1 10.9 -2.5
v 18.1 10.9 -2.6
v 18.1 11 -2.6
v 18 11 -2.6
v 18 11 -2.5
v 18.1 11 -2.5
v 18.1 11 -2.6
v 18 11 -2.5
v 18 10.9 -2.5
v 18.1 10.9 -2.5
v 18.1 11 -2.5
v 18.1 11 -2.6
v 18.1 10.9 -2.6
v 18 10.9 -2.6
v 18 11 -2.6
v 16.5 10.9 -2.6
v 16.5 10.8 -2.6
v 16.5 10.8 -2.5
v 16.5 10.9 -2.5
v 16.5 10.8 -2.5
v 16.5 10.8 -2.6
v 16.6 10.8 -2.6
v 16.6 10.8 -2.5
v 16.5 10.9 -2.5
v 16.5 10.8 -2.5
v 16.6 10.8 -2.5
v 16.6 10.9 -2.5
v 16.6 10.9 -2.6
v 16.6 10.8 -2.6
v 16.5 10.8 -2.6
v 16.5 10.9 -2.6
v 16.6 10.9 -2.5
v 16.6 10.8 -2.5
v 16.7 10.8 -2.5
v 16.7 10.9 -2.5
v 16.7 10.9 -2.6
v 16.7 10.8 -2.6
v 16.6 10.8 -2.6
v 16.6 10.9 -2.6
v 16.7 10.8 -2.5
v 16.7 10.8 -2.6
v 16.8 10.8 -2.6
v 16.8 10.8 -2.5
v 16.7 10.9 -2.5
v 16.7 10.8 -2.5
v 16.8 10.8 -2.5
v 16.8 10.9 -2.5
v 16.8 10.9 -2.6
v 16.8 10.8 -2.6
v 16.7 10.8 -2.6
v 16.7 10.9 -2.6
v 16.9 10.9 -2.5
v 16.9 10.8 -2.5
v 16.9 10.8 -2.6
v 16.9 10.9 -2.6
v 16.8 10.8 -2.5
v 16.8 10.8 -2.6
v 16.9 10.8 -2.6
v 16.9 10.8 -2.5
v 16.8 10.9 -2.5
v 16.8 10.8 -2.5
v 16.9 10.8 -2.5
v 16.9 10.9 -2.5
v 16.9 10.9 -2.6
v 16.9 10.8 -2.6
v 16.8 10.8 -2.6
v 16.8 10.9 -2.6
v 17.4 10.9 -2.6
v 17.4 10.8 -2.6
v 17.4 10.8 -2.5
v 17.4 10.9 -2.5
v 17.4 10.8 -2.5
v 17.4 10.8 -2.6
v 17.5 10.8 -2.6
v 17.5 10.8 -2.5
v 17.4 10.9 -2.5
v 17.4 10.8 -2.5
v 17.5 10.8 -2.5
v 17.5 10.9 -2.5
v 17.5 10.9 -2.6
v 17.5 10.8 -2.6
v 17.4 10.8 -2.6
v 17.4 10.9 -2.6
v 17.5 10.9 -2.5
v 17.5 10.8 -2.5
v 17.6 10.8 -2.5
v 17.6 10.9 -2.5
v 17.6 10.9 -2.6
v 17.6 10.8 -2.6
v 17.5 10.8 -2.6
v 17.5 10.9 -2.6
v 17.6 10.9 -2.5
v 17.6 10.8 -2.5
v 17.7 10.8 -2.5
v 17.7 10.9 -2.5
v 17.7 10.9 -2.6
v 17.7 10.8 -2.6
v 17.6 10.8 -2.6
v 17.6 10.9 -2.6
v 17.7 10.9 -2.5
v 17.7 10.8 -2.5
v 17.8 10.8 -2.5
v 17.8 10.9 -2.5
v 17.8 10.9 -2.6
v 17.8 10.8 -2.6
v 17.7 10.8 -2.6
v 17.7 10.9 -2.6
v 17.8 10.9 -2.5
v 17.8 10.8 -2.5
v 17.9 10.8 -2.5
v 17.9 10.9 -2.5
v 17.9 10.9 -2.6
v 17.9 10.8 -2.6
v 17.8 10.8 -2.6
v 17.8 10.9 -2.6
v 17.9 10.9 -2.5
v 17.9 10.8 -2.5
v 18 10.8 -2.5
v 18 10.9 -2.5
v 18 10.9 -2.6
v 18 10.8 -2.6
v 17.9 10.8 -2.6
v 17.9 10.9 -2.6
v 18 10.9 -2.5
v 18 10.8 -2.5
v 18.1 10.8 -2.5
v 18.1 10.9 -2.5
v 18.1 10.9 -2.6
v 18.1 10.8 -2.6
v 18 10.8 -2.6
v 18 10.9 -2.6
v 18.1 10.9 -2.6
v 18.1 10.9 -2.5
v 18.2 10.9 -2.5
v 18.2 10.9 -2.6
v 18.1 10.9 -2.5
v 18.1 10.8 -2.5
v 18.2 10.8 -2.5
v 18.2 10.9 -2.5
v 18.2 10.9 -2.6
v 18.2 10.8 -2.6
v 18.1 10.8 -2.6
v 18.1 10.9 -2.6
v 18.3 10.9 -2.5
v 18.3 10.8 -2.5
v 18.3 10.8 -2.6
v 18.3 10.9 -2.6
v 18.2 10.9 -2.6
v 18.2 10.9 -2.5
v 18.3 10.9 -2.5
v 18.3 10.9 -2.6
v 18.2 10.9 -2.5
v 18.2 10.8 -2.5
v 18.3 10.8 -2.5
v 18.3 10.9 -2.5
v 18.3 10.9 -2.6
v 18.3 10.8 -2.6
v 18.2 10.8 -2.6
v 18.2 10.9 -2.6
v 16.6 10.8 -2.6
v 16.6 10.7 -2.6
v 16.6 10.7 -2.5
v 16.6 10.8 -2.5
v 16.7 10.8 -2.5
v 16.7 10.7 -2.5
v 16.7 10.7 -2.6
v 16.7 10.8 -2.6
v 16.6 10.7 -2.5
v 16.6 10.7 -2.6
v 16.7 10.7 -2.6
v 16.7 10.7 -2.5
v 16.6 10.8 -2.5
v 16.6 10.7 -2.5
v 16.7 10.7 -2.5
v 16.7 10.8 -2.5
v 16.7 10.8 -2.6
v 16.7 10.7 -2.6
v 16.6 10.7 -2.6
v 16.6 10.8 -2.6
v 17.5 10.8 -2.6
v 17.5 10.7 -2.6
v 17.5 10.7 -2.5
v 17.5 10.8 -2.5
v 17.5 10.7 -2.5
v 17.5 10.7 -2.6
v 17.6 10.7 -2.6
v 17.6 10.7 -2.5
v 17.5 10.8 -2.5
v 17.5 10.7 -2.5
v 17.6 10.7 -2.5
v 17.6 10.8 -2.5
v 17.6 10.8 -2.6
v 17.6 10.7 -2.6
v 17.5 10.7 -2.6
v 17.5 10.8 -2.6
v 17.6 10.8 -2.5
v 17.6 10.7 -2.5
v 17.7 10.7 -2.5
v 17.7 10.8 -2.5
v 17.7 10.8 -2.6
v 17.7 10.7 -2.6
v 17.6 10.7 -2.6
v 17.6 10.8 -2.6
v 17.7 10.8 -2.5
v 17.7 10.7 -2.5
v 17.8 10.7 -2.5
v 17.8 10.8 -2.5
v 17.8 10.8 -2.6
v 17.8 10.7 -2.6
v 17.7 10.7 -2.6
v 17.7 10.8 -2.6
v 17.8 10.8 -2.5
v 17.8 10.7 -2.5
v 17.9 10.7 -2.5
v 17.9 10.8 -2.5
v 17.9 10.8 -2.6
v 17.9 10.7 -2.6
v 17.8 10.7 -2.6
v 17.8 10.8 -2.6
v 17.9 10.8 -2.5
v 17.9 10.7 -2.5
v 18 10.7 -2.5
v 18 10.8 -2.5
v 18 10.8 -2.6
v 18 10.7 -2.6
v 17.9 10.7 -2.6
v 17.9 10.8 -2.6
v 18 10.8 -2.5
v 18 10.7 -2.5
v 18.1 10.7 -2.5
v 18.1 10.8 -2.5
v 18.1 10.8 -2.6
v 18.1 10.7 -2.6
v 18 10.7 -2.6
v 18 10.8 -2.6
v 18.1 10.8 -2.5
v 18.1 10.7 -2.5
v 18.2 10.7 -2.5
v 18.2 10.8 -2.5
v 18.2 10.8 -2.6
v 18.2 10.7 -2.6
v 18.1 10.7 -2.6
v 18.1 10.8 -2.6
v 18.2 10.8 -2.5
v 18.2 10.7 -2.5
v 18.3 10.7 -2.5
v 18.3 10.8 -2.5
v 18.3 10.8 -2.6
v 18.3 10.7 -2.6
v 18.2 10.7 -2.6
v 18.2 10.8 -2.6
v 18.3 10.8 -2.6
v 18.3 10.8 -2.5
v 18.4 10.8 -2.5
v 18.4 10.8 -2.6
v 18.3 10.8 -2.5
v 18.3 10.7 -2.5
v 18.4 10.7 -2.5
v 18.4 10.8 -2.5
v 18.4 10.8 -2.6
v 18.4 10.7 -2.6
v 18.3 10.7 -2.6
v 18.3 10.8 -2.6
v 18.5 10.8 -2.5
v 18.5 10.7 -2.5
v 18.5 10.7 -2.6
v 18.5 10.8 -2.6
v 18.4 10.8 -2.6
v 18.4 10.8 -2.5
v 18.5 10.8 -2.5
v 18.5 10.8 -2.6
v 18.4 10.8 -2.5
v 18.4 10.7 -2.5
v 18.5 10.7 -2.5
v 18.5 10.8 -2.5
v 18.5 10.8 -2.6
v 18.5 10.7 -2.6
v 18.4 10.7 -2.6
v 18.4 10.8 -2.6
v 17.6 10.7 -2.6
v 17.6 10.6 -2.6
v 17.6 10.6 -2.5
v 17.6 10.7 -2.5
v 17.6 10.6 -2.5
v 17.6 10.6 -2.6
v 17.7 10.6 -2.6
v 17.7 10.6 -2.5
v 17.6 10.7 -2.5
v 17.6 10.6 -2.5
v 17.7 10.6 -2.5
v 17.7 10.7 -2.5
v 17.7 10.7 -2.6
v 17.7 10.6 -2.6
v 17.6 10.6 -2.6
v 17.6 10.7 -2.6
v 17.7 10.6 -2.5
v 17.7 10.6 -2.6
v 17.8 10.6 -2.6
v 17.8 10.6 -2.5
v 17.7 10.7 -2.5
v 17.7 10.6 -2.5
v 17.8 10.6 -2.5
v 17.8 10.7 -2.5
v 17.8 10.7 -2.6
v 17.8 10.6 -2.6
v 17.7 10.6 -2.6
v 17.7 10.7 -2.6
v 17.8 10.6 -2.5
v 17.8 10.6 -2.6
v 17.9 10.6 -2.6
v 17.9 10.6 -2.5
v 17.8 10.7 -2.5
v 17.8 10.6 -2.5
v 17.9 10.6 -2.5
v 17.9 10.7 -2.5
v 17.9 10.7 -2.6
v 17.9 10.6 -2.6
v 17.8 10.6 -2.6
v 17.8 10.7 -2.6
v 17.9 10.6 -2.5
v 17.9 10.6 -2.6
v 18 10.6 -2.6
v 18 10.6 -2.5
v 17.9 10.7 -2.5
v 17.9 10.6 -2.5
v 18 10.6 -2.5
v 18 10.7 -2.5
v 18 10.7 -2.6
v 18 10.6 -2.6
v 17.9 10.6 -2.6
v 17.9 10.7 -2.6
v 18 10.6 -2.5
v 18 10.6 -2.6
v 18.1 10.6 -2.6
v 18.1 10.6 -2.5
v 18 10.7 -2.5
v 18 10.6 -2.5
v 18.1 10.6 -2.5
v 18.1 10.7 -2.5
v 18.1 10.7 -2.6
v 18.1 10.6 -2.6
v 18 10.6 -2.6
v 18 10.7 -2.6
v 18.1 10.7 -2.5
v 18.1 10.6 -2.5
v 18.2 10.6 -2.5
v 18.2 10.7 -2.5
v 18.2 10.7 -2.6
v 18.2 10.6 -2.6
v 18.1 10.6 -2.6
v 18.1 10.7 -2.6
v 18.2 10.7 -2.5
v 18.2 10.6 -2.5
v 18.3 10.6 -2.5
v 18.3 10.7 -2.5
v 18.3 10.7 -2.6
v 18.3 10.6 -2.6
v 18.2 10.6 -2.6
v 18.2 10.7 -2.6
v 18.3 10.7 -2.5
v 18.3 10.6 -2.5
v 18.4 10.6 -2.5
v 18.4 10.7 -2.5
v 18.4 10.7 -2.6
v 18.4 10.6 -2.6
v 18.3 10.6 -2.6
v 18.3 10.7 -2.6
v 18.4 10.7 -2.5
v 18.4 10.6 -2.5
v 18.5 10.6 -2.5
v 18.5 10.7 -2.5
v 18.5 10.7 -2.6
v 18.5 10.6 -2.6
v 18.4 10.6 -2.6
v 18.4 10.7 -2.6
v 18.5 10.7 -2.6
v 18.5 10.7 -2.5
v 18.6 10.7 -2.5
v 18.6 10.7 -2.6
v 18.5 10.7 -2.5
v 18.5 10.6 -2.5
v 18.6 10.6 -2.5
v 18.6 10.7 -2.5
v 18.6 10.7 -2.6
v 18.6 10.6 -2.6
v 18.5 10.6 -2.6
v 18.5 10.7 -2.6
v 18.7 10.7 -2.5
v 18.7 10.6 -2.5
v 18.7 10.6 -2.6
v 18.7 10.7 -2.6
v 18.6 10.7 -2.6
v 18.6 10.7 -2.5
v 18.7 10.7 -2.5
v 18.7 10.7 -2.6
v 18.6 10.7 -2.5
v 18.6 10.6 -2.5
v 18.7 10.6 -2.5
v 18.7 10.7 -2.5
v 18.7 10.7 -2.6
v 18.7 10.6 -2.6
v 18.6 10.6 -2.6
v 18.6 10.7 -2.6
v 18.1 10.6 -2.6
v 18.1 10.5 -2.6
v 18.1 10.5 -2.5
v 18.1 10.6 -2.5
v 18.1 10.5 -2.5
v 18.1 10.5 -2.6
v 18.2 10.5 -2.6
v 18.2 10.5 -2.5
v 18.1 10.6 -2.5
v 18.1 10.5 -2.5
v 18.2 10.5 -2.5
v 18.2 10.6 -2.5
v 18.2 10.6 -2.6
v 18.2 10.5 -2.6
v 18.1 10.5 -2.6
v 18.1 10.6 -2.6
v 18.2 10.5 -2.5
v 18.2 10.5 -2.6
v 18.3 10.5 -2.6
v 18.3 10.5 -2.5
v 18.2 10.6 -2.5
v 18.2 10.5 -2.5
v 18.3 10.5 -2.5
v 18.3 10.6 -2.5
v 18.3 10.6 -2.6
v 18.3 10.5 -2.6
v 18.2 10.5 -2.6
v 18.2 10.6 -2.6
v 18.3 10.5 -2.5
v 18.3 10.5 -2.6
v 18.4 10.5 -2.6
v 18.4 10.5 -2.5
v 18.3 10.6 -2.5
v 18.3 10.5 -2.5
v 18.4 10.5 -2.5
v 18.4 10.6 -2.5
v 18.4 10.6 -2.6
v 18.4 10.5 -2.6
v 18.3 10.5 -2.6
v 18.3 10.6 -2.6
v 18.4 10.5 -2.5
v 18.4 10.5 -2.6
v 18.5 10.5 -2.6
v 18.5 10.5 -2.5
v 18.4 10.6 -2.5
v 18.4 10.5 -2.5
v 18.5 10.5 -2.5
v 18.5 10.6 -2.5
v 18.5 10.6 -2.6
v 18.5 10.5 -2.6
v 18.4 10.5 -2.6
v 18.4 10.6 -2.6
v 18.5 10.6 -2.5
v 18.5 10.5 -2.5
v 18.6 10.5 -2.5
v 18.6 10.6 -2.5
v 18.6 10.6 -2.6
v 18.6 10.5 -2.6
v 18.5 10.5 -2.6
v 18.5 10.6 -2.6
v 18.6 10.6 -2.5
v 18.6 10.5 -2.5
v 18.7 10.5 -2.5
v 18.7 10.6 -2.5
v 18.7 10.6 -2.6
v 18.7 10.5 -2.6
v 18.6 10.5 -2.6
v 18.6 10.6 -2.6
v 18.7 10.6 -2.6
v 18.7 10.6 -2.5
v 18.8 10.6 -2.5
v 18.8 10.6 -2.6
v 18.7 10.6 -2.5
v 18.7 10.5 -2.5
v 18.8 10.5 -2.5
v 18.8 10.6 -2.5
v 18.8 10.6 -2.6
v 18.8 10.5 -2.6
v 18.7 10.5 -2.6
v 18.7 10.6 -2.6
v 18.9 10.6 -2.5
v 18.9 10.5 -2.5
v 18.9 10.5 -2.6
v 18.9 10.6 -2.6
v 18.8 10.6 -2.6
v 18.8 10.6 -2.5
v 18.9 10.6 -2.5
v 18.9 10.6 -2.6
v 18.8 10.6 -2.5
v 18.8 10.5 -2.5
v 18.9 10.5 -2.5
v 18.9 10.6 -2.5
v 18.9 10.6 -2.6
v 18.9 10.5 -2.6
v 18.8 10.5 -2.6
v 18.8 10.6 -2.6
v 18.5 10.5 -2.6
v 18.5 10.4 -2.6
v 18.5 10.4 -2.5
v 18.5 10.5 -2.5
v 18.5 10.4 -2.5
v 18.5 10.4 -2.6
v 18.6 10.4 -2.6
v 18.6 10.4 -2.5
v 18.5 10.5 -2.5
v 18.5 10.4 -2.5
v 18.6 10.4 -2.5
v 18.6 10.5 -2.5
v 18.6 10.5 -2.6
v 18.6 10.4 -2.6
v 18.5 10.4 -2.6
v 18.5 10.5 -2.6
v 18.6 10.4 -2.5
v 18.6 10.4 -2.6
v 18.7 10.4 -2.6
v 18.7 10.4 -2.5
v 18.6 10.5 -2.5
v 18.6 10.4 -2.5
v 18.7 10.4 -2.5
v 18.7 10.5 -2.5
v 18.7 10.5 -2.6
v 18.7 10.4 -2.6
v 18.6 10.4 -2.6
v 18.6 10.5 -2.6
v 18.7 10.5 -2.5
v 18.7 10.4 -2.5
v 18.8 10.4 -2.5
v 18.8 10.5 -2.5
v 18.8 10.5 -2.6
v 18.8 10.4 -2.6
v 18.7 10.4 -2.6
v 18.7 10.5 -2.6
v 18.8 10.5 -2.5
v 18.8 10.4 -2.5
v 18.9 10.4 -2.5
v 18.9 10.5 -2.5
v 18.9 10.5 -2.6
v 18.9 10.4 -2.6
v 18.8 10.4 -2.6
v 18.8 10.5 -2.6
v 18.9 10.5 -2.6
v 18.9 10.5 -2.5
v 19 10.5 -2.5
v 19 10.5 -2.6
v 18.9 10.5 -2.5
v 18.9 10.4 -2.5
v 19 10.4 -2.5
v 19 10.5 -2.5
v 19 10.5 -2.6
v 19 10.4 -2.6
v 18.9 10.4 -2.6
v 18.9 10.5 -2.6
v 19.1 10.5 -2.5
v 19.1 10.4 -2.5
v 19.1 10.4 -2.6
v 19.1 10.5 -2.6
v 19 10.5 -2.6
v 19 10.5 -2.5
v 19.1 10.5 -2.5
v 19.1 10.5 -2.6
v 19 10.5 -2.5
v 19 10.4 -2.5
v 19.1 10.4 -2.5
v 19.1 10.5 -2.5
v 19.1 10.5 -2.6
v 19.1 10.4 -2.6
v 19 10.4 -2.6
v 19 10.5 -2.6
v 18.7 10.4 -2.6
v 18.7 10.3 -2.6
v 18.7 10.3 -2.5
v 18.7 10.4 -2.5
v 18.7 10.3 -2.5
v 18.7 10.3 -2.6
v 18.8 10.3 -2.6
v 18.8 10.3 -2.5
v 18.7 10.4 -2.5
v 18.7 10.3 -2.5
v 18.8 10.3 -2.5
v 18.8 10.4 -2.5
v 18.8 10.4 -2.6
v 18.8 10.3 -2.6
v 18.7 10.3 -2.6
v 18.7 10.4 -2.6
v 18.8 10.3 -2.5
v 18.8 10.3 -2.6
v 18.9 10.3 -2.6
v 18.9 10.3 -2.5
v 18.8 10.4 -2.5
v 18.8 10.3 -2.5
v 18.9 10.3 -2.5
v 18.9 10.4 -2.5
v 18.9 10.4 -2.6
v 18.9 10.3 -2.6
v 18.8 10.3 -2.6
v 18.8 10.4 -2.6
v 18.9 10.4 -2.5
v 18.9 10.3 -2.5
v 19 10.3 -2.5
v 19 10.4 -2.5
v 19 10.4 -2.6
v 19 10.3 -2.6
v 18.9 10.3 -2.6
v 18.9 10.4 -2.6
v 19 10.4 -2.5
v 19 10.3 -2.5
v 19.1 10.3 -2.5
v 19.1 10.4 -2.5
v 19.1 10.4 -2.6
v 19.1 10.3 -2.6
v 19 10.3 -2.6
v 19 10.4 -2.6
v 19.1 10.4 -2.6
v 19.1 10.4 -2.5
v 19.2 10.4 -2.5
v 19.2 10.4 -2.6
v 19.1 10.4 -2.5
v 19.1 10.3 -2.5
v 19.2 10.3 -2.5
v 19.2 10.4 -2.5
v 19.2 10.4 -2.6
v 19.2 10.3 -2.6
v 19.1 10.3 -2.6
v 19.1 10.4 -2.6
v 19.3 10.4 -2.5
v 19.3 10.3 -2.5
v 19.3 10.3 -2.6
v 19.3 10.4 -2.6
v 19.2 10.4 -2.6
v 19.2 10.4 -2.5
v 19.3 10.4 -2.5
v 19.3 10.4 -2.6
v 19.2 10.4 -2.5
v 19.2 10.3 -2.5
v 19.3 10.3 -2.5
v 19.3 10.4 -2.5
v 19.3 10.4 -2.6
v 19.3 10.3 -2.6
v 19.2 10.3 -2.6
v 19.2 10.4 -2.6
v 18.9 10.3 -2.6
v 18.9 10.2 -2.6
v 18.9 10.2 -2.5
v 18.9 10.3 -2.5
v 18.9 10.2 -2.5
v 18.9 10.2 -2.6
v 19 10.2 -2.6
v 19 10.2 -2.5
v 18.9 10.3 -2.5
v 18.9 10.2 -2.5
v 19 10.2 -2.5
v 19 10.3 -2.5
v 19 10.3 -2.6
v 19 10.2 -2.6
v 18.9 10.2 -2.6
v 18.9 10.3 -2.6
v 19 10.2 -2.5
v 19 10.2 -2.6
v 19.1 10.2 -2.6
v 19.1 10.2 -2.5
v 19 10.3 -2.5
v 19 10.2 -2.5
v 19.1 10.2 -2.5
v 19.1 10.3 -2.5
v 19.1 10.3 -2.6
v 19.1 10.2 -2.6
v 19 10.2 -2.6
v 19 10.3 -2.6
v 19.1 10.3 -2.5
v 19.1 10.2 -2.5
v 19.2 10.2 -2.5
v 19.2 10.3 -2.5
v 19.2 10.3 -2.6
v 19.2 10.2 -2.6
v 19.1 10.2 -2.6
v 19.1 10.3 -2.6
v 19.2 10.3 -2.5
v 19.2 10.2 -2.5
v 19.3 10.2 -2.5
v 19.3 10.3 -2.5
v 19.3 10.3 -2.6
v 19.3 10.2 -2.6
v 19.2 10.2 -2.6
v 19.2 10.3 -2.6
v 19.3 10.3 -2.6
v 19.3 10.3 -2.5
v 19.4 10.3 -2.5
v 19.4 10.3 -2.6
v 19.3 10.3 -2.5
v 19.3 10.2 -2.5
v 19.4 10.2 -2.5
v 19.4 10.3 -2.5
v 19.4 10.3 -2.6
v 19.4 10.2 -2.6
v 19.3 10.2 -2.6
v 19.3 10.3 -2.6
v 19.5 10.3 -2.5
v 19.5 10.2 -2.5
v 19.5 10.2 -2.6
v 19.5 10.3 -2.6
v 19.4 10.3 -2.6
v 19.4 10.3 -2.5
v 19.5 10.3 -2.5
v 19.5 10.3 -2.6
v 19.4 10.3 -2.5
v 19.4 10.2 -2.5
v 19.5 10.2 -2.5
v 19.5 10.3 -2.5
v 19.5 10.3 -2.6
v 19.5 10.2 -2.6
v 19.4 10.2 -2.6
v 19.4 10.3 -2.6
v 19.1 10.2 -2.6
v 19.1 10.1 -2.6
v 19.1 10.1 -2.5
v 19.1 10.2 -2.5
v 19.1 10.1 -2.5
v 19.1 10.1 -2.6
v 19.2 10.1 -2.6
v 19.2 10.1 -2.5
v 19.1 10.2 -2.5
v 19.1 10.1 -2.5
v 19.2 10.1 -2.5
v 19.2 10.2 -2.5
v 19.2 10.2 -2.6
v 19.2 10.1 -2.6
v 19.1 10.1 -2.6
v 19.1 10.2 -2.6
v 19.2 10.2 -2.5
v 19.2 10.1 -2.5
v 19.3 10.1 -2.5
v 19.3 10.2 -2.5
v 19.3 10.2 -2.6
v 19.3 10.1 -2.6
v 19.2 10.1 -2.6
v 19.2 10.2 -2.6
v 19.3 10.2 -2.5
v 19.3 10.1 -2.5
v 19.4 10.1 -2.5
v 19.4 10.2 -2.5
v 19.4 10.2 -2.6
v 19.4 10.1 -2.6
v 19.3 10.1 -2.6
v 19.3 10.2 -2.6
v 19.4 10.2 -2.5
v 19.4 10.1 -2.5
v 19.5 10.1 -2.5
v 19.5 10.2 -2.5
v 19.5 10.2 -2.6
v 19.5 10.1 -2.6
v 19.4 10.1 -2.6
v 19.4 10.2 -2.6
v 19.5 10.2 -2.6
v 19.5 10.2 -2.5
v 19.6 10.2 -2.5
v 19.6 10.2 -2.6
v 19.5 10.2 -2.5
v 19.5 10.1 -2.5
v 19.6 10.1 -2.5
v 19.6 10.2 -2.5
v 19.6 10.2 -2.6
v 19.6 10.1 -2.6
v 19.5 10.1 -2.6
v 19.5 10.2 -2.6
v 19.7 10.2 -2.5
v 19.7 10.1 -2.5
v 19.7 10.1 -2.6
v 19.7 10.2 -2.6
v 19.6 10.2 -2.6
v 19.6 10.2 -2.5
v 19.7 10.2 -2.5
v 19.7 10.2 -2.6
v 19.6 10.2 -2.5
v 19.6 10.1 -2.5
v 19.7 10.1 -2.5
v 19.7 10.2 -2.5
v 19.7 10.2 -2.6
v 19.7 10.1 -2.6
v 19.6 10.1 -2.6
v 19.6 10.2 -2.6
v 19.2 10.1 -2.6
v 19.2 10 -2.6
v 19.2 10 -2.5
v 19.2 10.1 -2.5
v 19.2 10 -2.5
v 19.2 10 -2.6
v 19.3 10 -2.6
v 19.3 10 -2.5
v 19.2 10.1 -2.5
v 19.2 10 -2.5
v 19.3 10 -2.5
v 19.3 10.1 -2.5
v 19.3 10.1 -2.6
v 19.3 10 -2.6
v 19.2 10 -2.6
v 19.2 10.1 -2.6
v 19.3 10 -2.5
v 19.3 10 -2.6
v 19.4 10 -2.6
v 19.4 10 -2.5
v 19.3 10.1 -2.5
v 19.3 10 -2.5
v 19.4 10 -2.5
v 19.4 10.1 -2.5
v 19.4 10.1 -2.6
v 19.4 10 -2.6
v 19.3 10 -2.6
v 19.3 10.1 -2.6
v 19.4 10 -2.5
v 19.4 10 -2.6
v 19.5 10 -2.6
v 19.5 10 -2.5
v 19.4 10.1 -2.5
v 19.4 10 -2.5
v 19.5 10 -2.5
v 19.5 10.1 -2.5
v 19.5 10.1 -2.6
v 19.5 10 -2.6
v 19.4 10 -2.6
v 19.4 10.1 -2.6
v 19.5 10 -2.5
v 19.5 10 -2.6
v 19.6 10 -2.6
v 19.6 10 -2.5
v 19.5 10.1 -2.5
v 19.5 10 -2.5
v 19.6 10 -2.5
v 19.6 10.1 -2.5
v 19.6 10.1 -2.6
v 19.6 10 -2.6
v 19.5 10 -2.6
v 19.5 10.1 -2.6
v 19.6 10 -2.5
v 19.6 10 -2.6
v 19.7 10 -2.6
v 19.7 10 -2.5
v 19.6 10.1 -2.5
v 19.6 10 -2.5
v 19.7 10 -2.5
v 19.7 10.1 -2.5
v 19.7 10.1 -2.6
v 19.7 10 -2.6
v 19.6 10 -2.6
v 19.6 10.1 -2.6
v 19.7 10.1 -2.6
v 19.7 10.1 -2.5
v 19.8 10.1 -2.5
v 19.8 10.1 -2.6
v 19.7 10.1 -2.5
v 19.7 10 -2.5
v 19.8 10 -2.5
v 19.8 10.1 -2.5
v 19.8 10.1 -2.6
v 19.8 10 -2.6
v 19.7 10 -2.6
v 19.7 10.1 -2.6
v 19.9 10.1 -2.5
v 19.9 10 -2.5
v 19.9 10 -2.6
v 19.9 10.1 -2.6
v 19.8 10.1 -2.6
v 19.8 10.1 -2.5
v 19.9 10.1 -2.5
v 19.9 10.1 -2.6
v 19.8 10.1 -2.5
v 19.8 10 -2.5
v 19.9 10 -2.5
v 19.9 10.1 -2.5
v 19.9 10.1 -2.6
v 19.9 10 -2.6
v 19.8 10 -2.6
v 19.8 10.1 -2.6
v 19.7 10 -2.6
v 19.7 9.9 -2.6
v 19.7 9.9 -2.5
v 19.7 10 -2.5
v 19.7 9.9 -2.5
v 19.7 9.9 -2.6
v 19.8 9.9 -2.6
v 19.8 9.9 -2.5
v 19.7 10 -2.5
v 19.7 9.9 -2.5
v 19.8 9.9 -2.5
v 19.8 10 -2.5
v 19.8 10 -2.6
v 19.8 9.9 -2.6
v 19.7 9.9 -2.6
v 19.7 10 -2.6
v 19.8 9.9 -2.5
v 19.8 9.9 -2.6
v 19.9 9.9 -2.6
v 19.9 9.9 -2.5
v 19.8 10 -2.5
v 19.8 9.9 -2.5
v 19.9 9.9 -2.5
v 19.9 10 -2.5
v 19.9 10 -2.6
v 19.9 9.9 -2.6
v 19.8 9.9 -2.6
v 19.8 10 -2.6
v 19.9 10 -2.6
v 19.9 10 -2.5
v 20 10 -2.5
v 20 10 -2.6
v 19.9 9.9 -2.5
v 19.9 9.9 -2.6
v 20 9.9 -2.6
v 20 9.9 -2.5
v 19.9 10 -2.5
v 19.9 9.9 -2.5
v 20 9.9 -2.5
v 20 10 -2.5
v 20 10 -2.6
v 20 9.9 -2.6
v 19.9 9.9 -2.6
v 19.9 10 -2.6
v 20.1 10 -2.5
v 20.1 9.9 -2.5
v 20.1 9.9 -2.6
v 20.1 10 -2.6
v 20 10 -2.6
v 20 10 -2.5
v 20.1 10 -2.5
v 20.1 10 -2.6
v 20 9.9 -2.5
v 20 9.9 -2.6
v 20.1 9.9 -2.6
v 20.1 9.9 -2.5
v 20 10 -2.5
v 20 9.9 -2.5
v 20.1 9.9 -2.5
v 20.1 10 -2.5
v 20.1 10 -2.6
v 20.1 9.9 -2.6
v 20 9.9 -2.6
v 20 10 -2.6

# faces
f 1/1/1 2/1/1 3/1/1 4/1/1
f 5/1/3 6/1/3 7/1/3 8/1/3
f 9/1/5 10/1/5 11/1/5 12/1/5
f 13/1/6 14/1/6 15/1/6 16/1/6
f 17/1/3 18/1/3 19/1/3 20/1/3
f 21/1/5 22/1/5 23/1/5 24/1/5
f 25/1/6 26/1/6 27/1/6 28/1/6
f 29/1/3 30/1/3 31/1/3 32/1/3
f 33/1/5 34/1/5 35/1/5 36/1/5
f 37/1/6 38/1/6 39/1/6 40/1/6
f 41/1/3 42/1/3 43/1/3 44/1/3
f 45/1/5 46/1/5 47/1/5 48/1/5
f 49/1/6 50/1/6 51/1/6 52/1/6
f 53/1/2 54/1/2 55/1/2 56/1/2
f 57/1/3 58/1/3 59/1/3 60/1/3
f 61/1/5 62/1/5 63/1/5 64/1/5
f 65/1/6 66/1/6 67/1/6 68/1/6
f 69/1/1 70/1/1 71/1/1 72/1/1
f 73/1/3 74/1/3 75/1/3 76/1/3
f 77/1/5 78/1/5 79/1/5 80/1/5
f 81/1/6 82/1/6 83/1/6 84/1/6
f 85/1/3 86/1/3 87/1/3 88/1/3
f 89/1/5 90/1/5 91/1/5 92/1/5
f 93/1/6 94/1/6 95/1/6 96/1/6
f 97/1/3 98/1/3 99/1/3 100/1/3
f 101/1/5 102/1/5 103/1/5 104/1/5
f 105/1/6 106/1/6 107/1/6 108/1/6
f 109/1/3 110/1/3 111/1/3 112/1/3
f 113/1/5 114/1/5 115/1/5 116/1/5
f 117/1/6 118/1/6 119/1/6 120/1/6
f 121/1/3 122/1/3 123/1/3 124/1/3
f 125/1/5 126/1/5 127/1/5 128/1/5
f 129/1/6 130/1/6 131/1/6 132/1/6
f 133/1/3 134/1/3 135/1/3 136/1/3
f 137/1/5 138/1/5 139/1/5 140/1/5
f 141/1/6 142/1/6 143/1/6 144/1/6
f 145/1/3 146/1/3 147/1/3 148/1/3
f 149/1/5 150/1/5 151/1/5 152/1/5
f 153/1/6 154/1/6 155/1/6 156/1/6
f 157/1/3 158/1/3 159/1/3 160/1/3
f 161/1/5 162/1/5 163/1/5 164/1/5
f 165/1/6 166/1/6 167/1/6 168/1/6
f 169/1/5 170/1/5 171/1/5 172/1/5
f 173/1/6 174/1/6 175/1/6 176/1/6
f 177/1/5 178/1/5 179/1/5 180/1/5
f 181/1/6 182/1/6 183/1/6 184/1/6
f 185/1/5 186/1/5 187/1/5 188/1/5
f 189/1/6 190/1/6 191/1/6 192/1/6
f 193/1/5 194/1/5 195/1/5 196/1/5
f 197/1/6 198/1/6 199/1/6 200/1/6
f 201/1/5 202/1/5 203/1/5 204/1/5
f 205/1/6 206/1/6 207/1/6 208/1/6
f 209/1/2 210/1/2 211/1/2 212/1/2
f 213/1/3 214/1/3 215/1/3 216/1/3
f 217/1/5 218/1/5 219/1/5 220/1/5
f 221/1/6 222/1/6 223/1/6 224/1/6
f 225/1/1 226/1/1 227/1/1 228/1/1
f 229/1/3 230/1/3 231/1/3 232/1/3
f 233/1/4 234/1/4 235/1/4 236/1/4
f 237/1/5 238/1/5 239/1/5 240/1/5
f 241/1/6 242/1/6 243/1/6 244/1/6
f 245/1/3 246/1/3 247/1/3 248/1/3
f 249/1/4 250/1/4 251/1/4 252/1/4
f 253/1/5 254/1/5 255/1/5 256/1/5
f 257/1/6 258/1/6 259/1/6 260/1/6
f 261/1/4 262/1/4 263/1/4 264/1/4
f 265/1/5 266/1/5 267/1/5 268/1/5
f 269/1/6 270/1/6 271/1/6 272/1/6
f 273/1/5 274/1/5 275/1/5 276/1/5
f 277/1/6 278/1/6 279/1/6 280/1/6
f 281/1/5 282/1/5 283/1/5 284/1/5
f 285/1/6 286/1/6 287/1/6 288/1/6
f 289/1/5 290/1/5 291/1/5 292/1/5
f 293/1/6 294/1/6 295/1/6 296/1/6
f 297/1/5 298/1/5 299/1/5 300/1/5
f 301/1/6 302/1/6 303/1/6 304/1/6
f 305/1/5 306/1/5 307/1/5 308/1/5
f 309/1/6 310/1/6 311/1/6 312/1/6
f 313/1/5 314/1/5 315/1/5 316/1/5
f 317/1/6 318/1/6 319/1/6 320/1/6
f 321/1/5 322/1/5 323/1/5 324/1/5
f 325/1/6 326/1/6 327/1/6 328/1/6
f 329/1/5 330/1/5 331/1/5 332/1/5
f 333/1/6 334/1/6 335/1/6 336/1/6
f 337/1/5 338/1/5 339/1/5 340/1/5
f 341/1/6 342/1/6 343/1/6 344/1/6
f 345/1/5 346/1/5 347/1/5 348/1/5
f 349/1/6 350/1/6 351/1/6 352/1/6
f 353/1/5 354/1/5 355/1/5 356/1/5
f 357/1/6 358/1/6 359/1/6 360/1/6
f 361/1/5 362/1/5 363/1/5 364/1/5
f 365/1/6 366/1/6 367/1/6 368/1/6
f 369/1/5 370/1/5 371/1/5 372/1/5
f 373/1/6 374/1/6 375/1/6 376/1/6
f 377/1/3 378/1/3 379/1/3 380/1/3
f 381/1/5 382/1/5 383/1/5 384/1/5
f 385/1/6 386/1/6 387/1/6 388/1/6
f 389/1/2 390/1/2 391/1/2 392/1/2
f 393/1/3 394/1/3 395/1/3 396/1/3
f 397/1/5 398/1/5 399/1/5 400/1/5
f 401/1/6 402/1/6 403/1/6 404/1/6
f 405/1/1 406/1/1 407/1/1 408/1/1
f 409/1/4 410/1/4 411/1/4 412/1/4
f 413/1/5 414/1/5 415/1/5 416/1/5
f 417/1/6 418/1/6 419/1/6 420/1/6
f 421/1/5 422/1/5 423/1/5 424/1/5
f 425/1/6 426/1/6 427/1/6 428/1/6
f 429/1/5 430/1/5 431/1/5 432/1/5
f 433/1/6 434/1/6 435/1/6 436/1/6
f 437/1/5 438/1/5 439/1/5 440/1/5
f 441/1/6 442/1/6 443/1/6 444/1/6
f 445/1/5 446/1/5 447/1/5 448/1/5
f 449/1/6 450/1/6 451/1/6 452/1/6
f 453/1/4 454/1/4 455/1/4 456/1/4
f 457/1/5 458/1/5 459/1/5 460/1/5
f 461/1/6 462/1/6 463/1/6 464/1/6
f 465/1/4 466/1/4 467/1/4 468/1/4
f 469/1/5 470/1/5 471/1/5 472/1/5
f 473/1/6 474/1/6 475/1/6 476/1/6
f 477/1/4 478/1/4 479/1/4 480/1/4
f 481/1/5 482/1/5 483/1/5 484/1/5
f 485/1/6 486/1/6 487/1/6 488/1/6
f 489/1/4 490/1/4 491/1/4 492/1/4
f 493/1/5 494/1/5 495/1/5 496/1/5
f 497/1/6 498/1/6 499/1/6 500/1/6
f 501/1/4 502/1/4 503/1/4 504/1/4
f 505/1/5 506/1/5 507/1/5 508/1/5
f 509/1/6 510/1/6 511/1/6 512/1/6
f 513/1/5 514/1/5 515/1/5 516/1/5
f 517/1/6 518/1/6 519/1/6 520/1/6
f 521/1/5 522/1/5 523/1/5 524/1/5
f 525/1/6 526/1/6 527/1/6 528/1/6
f 529/1/5 530/1/5 531/1/5 532/1/5
f 533/1/6 534/1/6 535/1/6 536/1/6
f 537/1/5 538/1/5 539/1/5 540/1/5
f 541/1/6 542/1/6 543/1/6 544/1/6
f 545/1/5 546/1/5 547/1/5 548/1/5
f 549/1/6 550/1/6 551/1/6 552/1/6
f 553/1/3 554/1/3 555/1/3 556/1/3
f 557/1/5 558/1/5 559/1/5 560/1/5
f 561/1/6 562/1/6 563/1/6 564/1/6
f 565/1/2 566/1/2 567/1/2 568/1/2
f 569/1/3 570/1/3 571/1/3 572/1/3
f 573/1/5 574/1/5 575/1/5 576/1/5
f 577/1/6 578/1/6 579/1/6 580/1/6
f 581/1/1 582/1/1 583/1/1 584/1/1
f 585/1/4 586/1/4 587/1/4 588/1/4
f 589/1/5 590/1/5 591/1/5 592/1/5
f 593/1/6 594/1/6 595/1/6 596/1/6
f 597/1/5 598/1/5 599/1/5 600/1/5
f 601/1/6 602/1/6 603/1/6 604/1/6
f 605/1/4 606/1/4 607/1/4 608/1/4
f 609/1/5 610/1/5 611/1/5 612/1/5
f 613/1/6 614/1/6 615/1/6 616/1/6
f 617/1/2 618/1/2 619/1/2 620/1/2
f 621/1/4 622/1/4 623/1/4 624/1/4
f 625/1/5 626/1/5 627/1/5 628/1/5
f 629/1/6 630/1/6 631/1/6 632/1/6
f 633/1/1 634/1/1 635/1/1 636/1/1
f 637/1/4 638/1/4 639/1/4 640/1/4
f 641/1/5 642/1/5 643/1/5 644/1/5
f 645/1/6 646/1/6 647/1/6 648/1/6
f 649/1/5 650/1/5 651/1/5 652/1/5
f 653/1/6 654/1/6 655/1/6 656/1/6
f 657/1/5 658/1/5 659/1/5 660/1/5
f 661/1/6 662/1/6 663/1/6 664/1/6
f 665/1/5 666/1/5 667/1/5 668/1/5
f 669/1/6 670/1/6 671/1/6 672/1/6
f 673/1/5 674/1/5 675/1/5 676/1/5
f 677/1/6 678/1/6 679/1/6 680/1/6
f 681/1/5 682/1/5 683/1/5 684/1/5
f 685/1/6 686/1/6 687/1/6 688/1/6
f 689/1/5 690/1/5 691/1/5 692/1/5
f 693/1/6 694/1/6 695/1/6 696/1/6
f 697/1/3 698/1/3 699/1/3 700/1/3
f 701/1/5 702/1/5 703/1/5 704/1/5
f 705/1/6 706/1/6 707/1/6 708/1/6
f 709/1/2 710/1/2 711/1/2 712/1/2
f 713/1/3 714/1/3 715/1/3 716/1/3
f 717/1/5 718/1/5 719/1/5 720/1/5
f 721/1/6 722/1/6 723/1/6 724/1/6
f 725/1/1 726/1/1 727/1/1 728/1/1
f 729/1/2 730/1/2 731/1/2 732/1/2
f 733/1/4 734/1/4 735/1/4 736/1/4
f 737/1/5 738/1/5 739/1/5 740/1/5
f 741/1/6 742/1/6 743/1/6 744/1/6
f 745/1/1 746/1/1 747/1/1 748/1/1
f 749/1/4 750/1/4 751/1/4 752/1/4
f 753/1/5 754/1/5 755/1/5 756/1/5
f 757/1/6 758/1/6 759/1/6 760/1/6
f 761/1/5 762/1/5 763/1/5 764/1/5
f 765/1/6 766/1/6 767/1/6 768/1/6
f 769/1/5 770/1/5 771/1/5 772/1/5
f 773/1/6 774/1/6 775/1/6 776/1/6
f 777/1/5 778/1/5 779/1/5 780/1/5
f 781/1/6 782/1/6 783/1/6 784/1/6
f 785/1/5 786/1/5 787/1/5 788/1/5
f 789/1/6 790/1/6 791/1/6 792/1/6
f 793/1/5 794/1/5 795/1/5 796/1/5
f 797/1/6 798/1/6 799/1/6 800/1/6
f 801/1/5 802/1/5 803/1/5 804/1/5
f 805/1/6 806/1/6 807/1/6 808/1/6
f 809/1/5 810/1/5 811/1/5 812/1/5
f 813/1/6 814/1/6 815/1/6 816/1/6
f 817/1/3 818/1/3 819/1/3 820/1/3
f 821/1/5 822/1/5 823/1/5 824/1/5
f 825/1/6 826/1/6 827/1/6 828/1/6
f 829/1/2 830/1/2 831/1/2 832/1/2
f 833/1/3 834/1/3 835/1/3 836/1/3
f 837/1/5 838/1/5 839/1/5 840/1/5
f 841/1/6 842/1/6 843/1/6 844/1/6
f 845/1/1 846/1/1 847/1/1 848/1/1
f 849/1/4 850/1/4 851/1/4 852/1/4
f 853/1/5 854/1/5 855/1/5 856/1/5
f 857/1/6 858/1/6 859/1/6 860/1/6
f 861/1/4 862/1/4 863/1/4 864/1/4
f 865/1/5 866/1/5 867/1/5 868/1/5
f 869/1/6 870/1/6 871/1/6 872/1/6
f 873/1/4 874/1/4 875/1/4 876/1/4
f 877/1/5 878/1/5 879/1/5 880/1/5
f 881/1/6 882/1/6 883/1/6 884/1/6
f 885/1/4 886/1/4 887/1/4 888/1/4
f 889/1/5 890/1/5 891/1/5 892/1/5
f 893/1/6 894/1/6 895/1/6 896/1/6
f 897/1/4 898/1/4 899/1/4 900/1/4
f 901/1/5 902/1/5 903/1/5 904/1/5
f 905/1/6 906/1/6 907/1/6 908/1/6
f 909/1/5 910/1/5 911/1/5 912/1/5
f 913/1/6 914/1/6 915/1/6 916/1/6
f 917/1/5 918/1/5 919/1/5 920/1/5
f 921/1/6 922/1/6 923/1/6 924/1/6
f 925/1/5 926/1/5 927/1/5 928/1/5
f 929/1/6 930/1/6 931/1/6 932/1/6
f 933/1/5 934/1/5 935/1/5 936/1/5
f 937/1/6 938/1/6 939/1/6 940/1/6
f 941/1/3 942/1/3 943/1/3 944/1/3
f 945/1/5 946/1/5 947/1/5 948/1/5
f 949/1/6 950/1/6 951/1/6 952/1/6
f 953/1/2 954/1/2 955/1/2 956/1/2
f 957/1/3 958/1/3 959/1/3 960/1/3
f 961/1/5 962/1/5 963/1/5 964/1/5
f 965/1/6 966/1/6 967/1/6 968/1/6
f 969/1/1 970/1/1 971/1/1 972/1/1
f 973/1/4 974/1/4 975/1/4 976/1/4
f 977/1/5 978/1/5 979/1/5 980/1/5
f 981/1/6 982/1/6 983/1/6 984/1/6
f 985/1/4 986/1/4 987/1/4 988/1/4
f 989/1/5 990/1/5 991/1/5 992/1/5
f 993/1/6 994/1/6 995/1/6 996/1/6
f 997/1/4 998/1/4 999/1/4 1000/1/4
f 1001/1/5 1002/1/5 1003/1/5 1004/1/5
f 1005/1/6 1006/1/6 1007/1/6 1008/1/6
f 1009/1/4 1010/1/4 1011/1/4 1012/1/4
f 1013/1/5 1014/1/5 1015/1/5 1016/1/5
f 1017/1/6 1018/1/6 1019/1/6 1020/1/6
f 1021/1/5 1022/1/5 1023/1/5 1024/1/5
f 1025/1/6 1026/1/6 1027/1/6 1028/1/6
f 1029/1/5 1030/1/5 1031/1/5 1032/1/5
f 1033/1/6 1034/1/6 1035/1/6 1036/1/6
f 1037/1/3 1038/1/3 1039/1/3 1040/1/3
f 1041/1/5 1042/1/5 1043/1/5 1044/1/5
f 1045/1/6 1046/1/6 1047/1/6 1048/1/6
f 1049/1/2 1050/1/2 1051/1/2 1052/1/2
f 1053/1/3 1054/1/3 1055/1/3 1056/1/3
f 1057/1/5 1058/1/5 1059/1/5 1060/1/5
f 1061/1/6 1062/1/6 1063/1/6 1064/1/6
f 1065/1/1 1066/1/1 1067/1/1 1068/1/1
f 1069/1/4 1070/1/4 1071/1/4 1072/1/4
f 1073/1/5 1074/1/5 1075/1/5 1076/1/5
f 1077/1/6 1078/1/6 1079/1/6 1080/1/6
f 1081/1/4 1082/1/4 1083/1/4 1084/1/4
f 1085/1/5 1086/1/5 1087/1/5 1088/1/5
f 1089/1/6 1090/1/6 1091/1/6 1092/1/6
f 1093/1/5 1094/1/5 1095/1/5 1096/1/5
f 1097/1/6 1098/1/6 1099/1/6 1100/1/6
f 1101/1/5 1102/1/5 1103/1/5 1104/1/5
f 1105/1/6 1106/1/6 1107/1/6 1108/1/6
f 1109/1/3 1110/1/3 1111/1/3 1112/1/3
f 1113/1/5 1114/1/5 1115/1/5 1116/1/5
f 1117/1/6 1118/1/6 1119/1/6 1120/1/6
f 1121/1/2 1122/1/2 1123/1/2 1124/1/2
f 1125/1/3 1126/1/3 1127/1/3 1128/1/3
f 1129/1/5 1130/1/5 1131/1/5 1132/1/5
f 1133/1/6 1134/1/6 1135/1/6 1136/1/6
f 1137/1/1 1138/1/1 1139/1/1 1140/1/1
f 1141/1/4 1142/1/4 1143/1/4 1144/1/4
f 1145/1/5 1146/1/5 1147/1/5 1148/1/5
f 1149/1/6 1150/1/6 1151/1/6 1152/1/6
f 1153/1/4 1154/1/4 1155/1/4 1156/1/4
f 1157/1/5 1158/1/5 1159/1/5 1160/1/5
f 1161/1/6 1162/1/6 1163/1/6 1164/1/6
f 1165/1/5 1166/1/5 1167/1/5 1168/1/5
f 1169/1/6 1170/1/6 1171/1/6 1172/1/6
f 1173/1/5 1174/1/5 1175/1/5 1176/1/5
f 1177/1/6 1178/1/6 1179/1/6 1180/1/6
f 1181/1/3 1182/1/3 1183/1/3 1184/1/3
f 1185/1/5 1186/1/5 1187/1/5 1188/1/5
f 1189/1/6 1190/1/6 1191/1/6 1192/1/6
f 1193/1/2 1194/1/2 1195/1/2 1196/1/2
f 1197/1/3 1198/1/3 1199/1/3 1200/1/3
f 1201/1/5 1202/1/5 1203/1/5 1204/1/5
f 1205/1/6 1206/1/6 1207/1/6 1208/1/6
f 1209/1/1 1210/1/1 1211/1/1 1212/1/1
f 1213/1/4 1214/1/4 1215/1/4 1216/1/4
f 1217/1/5 1218/1/5 1219/1/5 1220/1/5
f 1221/1/6 1222/1/6 1223/1/6 1224/1/6
f 1225/1/4 1226/1/4 1227/1/4 1228/1/4
f 1229/1/5 1230/1/5 1231/1/5 1232/1/5
f 1233/1/6 1234/1/6 1235/1/6 1236/1/6
f 1237/1/5 1238/1/5 1239/1/5 1240/1/5
f 1241/1/6 1242/1/6 1243/1/6 1244/1/6
f 1245/1/5 1246/1/5 1247/1/5 1248/1/5
f 1249/1/6 1250/1/6 1251/1/6 1252/1/6
f 1253/1/3 1254/1/3 1255/1/3 1256/1/3
f 1257/1/5 1258/1/5 1259/1/5 1260/1/5
f 1261/1/6 1262/1/6 1263/1/6 1264/1/6
f 1265/1/2 1266/1/2 1267/1/2 1268/1/2
f 1269/1/3 1270/1/3 1271/1/3 1272/1/3
f 1273/1/5 1274/1/5 1275/1/5 1276/1/5
f 1277/1/6 1278/1/6 1279/1/6 1280/1/6
f 1281/1/1 1282/1/1 1283/1/1 1284/1/1
f 1285/1/4 1286/1/4 1287/1/4 1288/1/4
f 1289/1/5 1290/1/5 1291/1/5 1292/1/5
f 1293/1/6 1294/1/6 1295/1/6 1296/1/6
f 1297/1/5 1298/1/5 1299/1/5 1300/1/5
f 1301/1/6 1302/1/6 1303/1/6 1304/1/6
f 1305/1/5 1306/1/5 1307/1/5 1308/1/5
f 1309/1/6 1310/1/6 1311/1/6 1312/1/6
f 1313/1/5 1314/1/5 1315/1/5 1316/1/5
f 1317/1/6 1318/1/6 1319/1/6 1320/1/6
f 1321/1/3 1322/1/3 1323/1/3 1324/1/3
f 1325/1/5 1326/1/5 1327/1/5 1328/1/5
f 1329/1/6 1330/1/6 1331/1/6 1332/1/6
f 1333/1/2 1334/1/2 1335/1/2 1336/1/2
f 1337/1/3 1338/1/3 1339/1/3 1340/1/3
f 1341/1/5 1342/1/5 1343/1/5 1344/1/5
f 1345/1/6 1346/1/6 1347/1/6 1348/1/6
f 1349/1/1 1350/1/1 1351/1/1 1352/1/1
f 1353/1/4 1354/1/4 1355/1/4 1356/1/4
f 1357/1/5 1358/1/5 1359/1/5 1360/1/5
f 1361/1/6 1362/1/6 1363/1/6 1364/1/6
f 1365/1/4 1366/1/4 1367/1/4 1368/1/4
f 1369/1/5 1370/1/5 1371/1/5 1372/1/5
f 1373/1/6 1374/1/6 1375/1/6 1376/1/6
f 1377/1/4 1378/1/4 1379/1/4 1380/1/4
f 1381/1/5 1382/1/5 1383/1/5 1384/1/5
f 1385/1/6 1386/1/6 1387/1/6 1388/1/6
f 1389/1/4 1390/1/4 1391/1/4 1392/1/4
f 1393/1/5 1394/1/5 1395/1/5 1396/1/5
f 1397/1/6 1398/1/6 1399/1/6 1400/1/6
f 1401/1/4 1402/1/4 1403/1/4 1404/1/4
f 1405/1/5 1406/1/5 1407/1/5 1408/1/5
f 1409/1/6 1410/1/6 1411/1/6 1412/1/6
f 1413/1/3 1414/1/3 1415/1/3 1416/1/3
f 1417/1/5 1418/1/5 1419/1/5 1420/1/5
f 1421/1/6 1422/1/6 1423/1/6 1424/1/6
f 1425/1/2 1426/1/2 1427/1/2 1428/1/2
f 1429/1/3 1430/1/3 1431/1/3 1432/1/3
f 1433/1/5 1434/1/5 1435/1/5 1436/1/5
f 1437/1/6 1438/1/6 1439/1/6 1440/1/6
f 1441/1/1 1442/1/1 1443/1/1 1444/1/1
f 1445/1/4 1446/1/4 1447/1/4 1448/1/4
f 1449/1/5 1450/1/5 1451/1/5 1452/1/5
f 1453/1/6 1454/1/6 1455/1/6 1456/1/6
f 1457/1/4 1458/1/4 1459/1/4 1460/1/4
f 1461/1/5 1462/1/5 1463/1/5 1464/1/5
f 1465/1/6 1466/1/6 1467/1/6 1468/1/6
f 1469/1/3 1470/1/3 1471/1/3 1472/1/3
f 1473/1/4 1474/1/4 1475/1/4 1476/1/4
f 1477/1/5 1478/1/5 1479/1/5 1480/1/5
f 1481/1/6 1482/1/6 1483/1/6 1484/1/6
f 1485/1/2 1486/1/2 1487/1/2 1488/1/2
f 1489/1/3 1490/1/3 1491/1/3 1492/1/3
f 1493/1/4 1494/1/4 1495/1/4 1496/1/4
f 1497/1/5 1498/1/5 1499/1/5 1500/1/5
f 1501/1/6 1502/1/6 1503/1/6 1504/1/6

