# generated by vox_to_obj_exporter
# scale=0.1 center=false ground=false y_up=true

mtllib Fight_109.mtl
usemtl palette

# normals
vn -1 0 0
vn 1 0 0
vn 0 1 0
vn 0 -1 0
vn 0 0 1
vn 0 0 -1

# texcoords
vt 0.224609375 0.5

# verts
v 20.2 16.5 -2.6
v 20.2 16.4 -2.6
v 20.2 16.4 -2.5
v 20.2 16.5 -2.5
v 20.2 16.5 -2.6
v 20.2 16.5 -2.5
v 20.3 16.5 -2.5
v 20.3 16.5 -2.6
v 20.2 16.4 -2.5
v 20.2 16.4 -2.6
v 20.3 16.4 -2.6
v 20.3 16.4 -2.5
v 20.2 16.5 -2.5
v 20.2 16.4 -2.5
v 20.3 16.4 -2.5
v 20.3 16.5 -2.5
v 20.3 16.5 -2.6
v 20.3 16.4 -2.6
v 20.2 16.4 -2.6
v 20.2 16.5 -2.6
v 20.3 16.5 -2.6
v 20.3 16.5 -2.5
v 20.4 16.5 -2.5
v 20.4 16.5 -2.6
v 20.3 16.5 -2.5
v 20.3 16.4 -2.5
v 20.4 16.4 -2.5
v 20.4 16.5 -2.5
v 20.4 16.5 -2.6
v 20.4 16.4 -2.6
v 20.3 16.4 -2.6
v 20.3 16.5 -2.6
v 20.4 16.5 -2.6
v 20.4 16.5 -2.5
v 20.5 16.5 -2.5
v 20.5 16.5 -2.6
v 20.4 16.5 -2.5
v 20.4 16.4 -2.5
v 20.5 16.4 -2.5
v 20.5 16.5 -2.5
v 20.5 16.5 -2.6
v 20.5 16.4 -2.6
v 20.4 16.4 -2.6
v 20.4 16.5 -2.6
v 20.6 16.5 -2.5
v 20.6 16.4 -2.5
v 20.6 16.4 -2.6
v 20.6 16.5 -2.6
v 20.5 16.5 -2.6
v 20.5 16.5 -2.5
v 20.6 16.5 -2.5
v 20.6 16.5 -2.6
v 20.5 16.5 -2.5
v 20.5 16.4 -2.5
v 20.6 16.4 -2.5
v 20.6 16.5 -2.5
v 20.6 16.5 -2.6
v 20.6 16.4 -2.6
v 20.5 16.4 -2.6
v 20.5 16.5 -2.6
v 20.3 16.4 -2.6
v 20.3 16.3 -2.6
v 20.3 16.3 -2.5
v 20.3 16.4 -2.5
v 20.3 16.3 -2.5
v 20.3 16.3 -2.6
v 20.4 16.3 -2.6
v 20.4 16.3 -2.5
v 20.3 16.4 -2.5
v 20.3 16.3 -2.5
v 20.4 16.3 -2.5
v 20.4 16.4 -2.5
v 20.4 16.4 -2.6
v 20.4 16.3 -2.6
v 20.3 16.3 -2.6
v 20.3 16.4 -2.6
v 20.4 16.4 -2.5
v 20.4 16.3 -2.5
v 20.5 16.3 -2.5
v 20.5 16.4 -2.5
v 20.5 16.4 -2.6
v 20.5 16.3 -2.6
v 20.4 16.3 -2.6
v 20.4 16.4 -2.6
v 20.5 16.4 -2.5
v 20.5 16.3 -2.5
v 20.6 16.3 -2.5
v 20.6 16.4 -2.5
v 20.6 16.4 -2.6
v 20.6 16.3 -2.6
v 20.5 16.3 -2.6
v 20.5 16.4 -2.6
v 20.6 16.4 -2.6
v 20.6 16.4 -2.5
v 20.7 16.4 -2.5
v 20.7 16.4 -2.6
v 20.6 16.4 -2.5
v 20.6 16.3 -2.5
v 20.7 16.3 -2.5
v 20.7 16.4 -2.5
v 20.7 16.4 -2.6
v 20.7 16.3 -2.6
v 20.6 16.3 -2.6
v 20.6 16.4 -2.6
v 20.7 16.4 -2.6
v 20.7 16.4 -2.5
v 20.8 16.4 -2.5
v 20.8 16.4 -2.6
v 20.7 16.4 -2.5
v 20.7 16.3 -2.5
v 20.8 16.3 -2.5
v 20.8 16.4 -2.5
v 20.8 16.4 -2.6
v 20.8 16.3 -2.6
v 20.7 16.3 -2.6
v 20.7 16.4 -2.6
v 20.8 16.4 -2.6
v 20.8 16.4 -2.5
v 20.9 16.4 -2.5
v 20.9 16.4 -2.6
v 20.8 16.4 -2.5
v 20.8 16.3 -2.5
v 20.9 16.3 -2.5
v 20.9 16.4 -2.5
v 20.9 16.4 -2.6
v 20.9 16.3 -2.6
v 20.8 16.3 -2.6
v 20.8 16.4 -2.6
v 21 16.4 -2.5
v 21 16.3 -2.5
v 21 16.3 -2.6
v 21 16.4 -2.6
v 20.9 16.4 -2.6
v 20.9 16.4 -2.5
v 21 16.4 -2.5
v 21 16.4 -2.6
v 20.9 16.4 -2.5
v 20.9 16.3 -2.5
v 21 16.3 -2.5
v 21 16.4 -2.5
v 21 16.4 -2.6
v 21 16.3 -2.6
v 20.9 16.3 -2.6
v 20.9 16.4 -2.6
v 20.4 16.3 -2.6
v 20.4 16.2 -2.6
v 20.4 16.2 -2.5
v 20.4 16.3 -2.5
v 20.4 16.2 -2.5
v 20.4 16.2 -2.6
v 20.5 16.2 -2.6
v 20.5 16.2 -2.5
v 20.4 16.3 -2.5
v 20.4 16.2 -2.5
v 20.5 16.2 -2.5
v 20.5 16.3 -2.5
v 20.5 16.3 -2.6
v 20.5 16.2 -2.6
v 20.4 16.2 -2.6
v 20.4 16.3 -2.6
v 20.5 16.3 -2.5
v 20.5 16.2 -2.5
v 20.6 16.2 -2.5
v 20.6 16.3 -2.5
v 20.6 16.3 -2.6
v 20.6 16.2 -2.6
v 20.5 16.2 -2.6
v 20.5 16.3 -2.6
v 20.6 16.3 -2.5
v 20.6 16.2 -2.5
v 20.7 16.2 -2.5
v 20.7 16.3 -2.5
v 20.7 16.3 -2.6
v 20.7 16.2 -2.6
v 20.6 16.2 -2.6
v 20.6 16.3 -2.6
v 20.7 16.3 -2.5
v 20.7 16.2 -2.5
v 20.8 16.2 -2.5
v 20.8 16.3 -2.5
v 20.8 16.3 -2.6
v 20.8 16.2 -2.6
v 20.7 16.2 -2.6
v 20.7 16.3 -2.6
v 20.8 16.3 -2.5
v 20.8 16.2 -2.5
v 20.9 16.2 -2.5
v 20.9 16.3 -2.5
v 20.9 16.3 -2.6
v 20.9 16.2 -2.6
v 20.8 16.2 -2.6
v 20.8 16.3 -2.6
v 20.9 16.3 -2.5
v 20.9 16.2 -2.5
v 21 16.2 -2.5
v 21 16.3 -2.5
v 21 16.3 -2.6
v 21 16.2 -2.6
v 20.9 16.2 -2.6
v 20.9 16.3 -2.6
v 21 16.3 -2.6
v 21 16.3 -2.5
v 21.1 16.3 -2.5
v 21.1 16.3 -2.6
v 21 16.3 -2.5
v 21 16.2 -2.5
v 21.1 16.2 -2.5
v 21.1 16.3 -2.5
v 21.1 16.3 -2.6
v 21.1 16.2 -2.6
v 21 16.2 -2.6
v 21 16.3 -2.6
v 21.1 16.3 -2.6
v 21.1 16.3 -2.5
v 21.2 16.3 -2.5
v 21.2 16.3 -2.6
v 21.1 16.3 -2.5
v 21.1 16.2 -2.5
v 21.2 16.2 -2.5
v 21.2 16.3 -2.5
v 21.2 16.3 -2.6
v 21.2 16.2 -2.6
v 21.1 16.2 -2.6
v 21.1 16.3 -2.6
v 21.3 16.3 -2.5
v 21.3 16.2 -2.5
v 21.3 16.2 -2.6
v 21.3 16.3 -2.6
v 21.2 16.3 -2.6
v 21.2 16.3 -2.5
v 21.3 16.3 -2.5
v 21.3 16.3 -2.6
v 21.2 16.3 -2.5
v 21.2 16.2 -2.5
v 21.3 16.2 -2.5
v 21.3 16.3 -2.5
v 21.3 16.3 -2.6
v 21.3 16.2 -2.6
v 21.2 16.2 -2.6
v 21.2 16.3 -2.6
v 20.5 16.2 -2.6
v 20.5 16.1 -2.6
v 20.5 16.1 -2.5
v 20.5 16.2 -2.5
v 20.5 16.1 -2.5
v 20.5 16.1 -2.6
v 20.6 16.1 -2.6
v 20.6 16.1 -2.5
v 20.5 16.2 -2.5
v 20.5 16.1 -2.5
v 20.6 16.1 -2.5
v 20.6 16.2 -2.5
v 20.6 16.2 -2.6
v 20.6 16.1 -2.6
v 20.5 16.1 -2.6
v 20.5 16.2 -2.6
v 20.6 16.2 -2.5
v 20.6 16.1 -2.5
v 20.7 16.1 -2.5
v 20.7 16.2 -2.5
v 20.7 16.2 -2.6
v 20.7 16.1 -2.6
v 20.6 16.1 -2.6
v 20.6 16.2 -2.6
v 20.7 16.2 -2.5
v 20.7 16.1 -2.5
v 20.8 16.1 -2.5
v 20.8 16.2 -2.5
v 20.8 16.2 -2.6
v 20.8 16.1 -2.6
v 20.7 16.1 -2.6
v 20.7 16.2 -2.6
v 20.8 16.2 -2.5
v 20.8 16.1 -2.5
v 20.9 16.1 -2.5
v 20.9 16.2 -2.5
v 20.9 16.2 -2.6
v 20.9 16.1 -2.6
v 20.8 16.1 -2.6
v 20.8 16.2 -2.6
v 20.9 16.2 -2.5
v 20.9 16.1 -2.5
v 21 16.1 -2.5
v 21 16.2 -2.5
v 21 16.2 -2.6
v 21 16.1 -2.6
v 20.9 16.1 -2.6
v 20.9 16.2 -2.6
v 21 16.2 -2.5
v 21 16.1 -2.5
v 21.1 16.1 -2.5
v 21.1 16.2 -2.5
v 21.1 16.2 -2.6
v 21.1 16.1 -2.6
v 21 16.1 -2.6
v 21 16.2 -2.6
v 21.1 16.2 -2.5
v 21.1 16.1 -2.5
v 21.2 16.1 -2.5
v 21.2 16.2 -2.5
v 21.2 16.2 -2.6
v 21.2 16.1 -2.6
v 21.1 16.1 -2.6
v 21.1 16.2 -2.6
v 21.2 16.2 -2.5
v 21.2 16.1 -2.5
v 21.3 16.1 -2.5
v 21.3 16.2 -2.5
v 21.3 16.2 -2.6
v 21.3 16.1 -2.6
v 21.2 16.1 -2.6
v 21.2 16.2 -2.6
v 21.3 16.2 -2.6
v 21.3 16.2 -2.5
v 21.4 16.2 -2.5
v 21.4 16.2 -2.6
v 21.3 16.2 -2.5
v 21.3 16.1 -2.5
v 21.4 16.1 -2.5
v 21.4 16.2 -2.5
v 21.4 16.2 -2.6
v 21.4 16.1 -2.6
v 21.3 16.1 -2.6
v 21.3 16.2 -2.6
v 21.5 16.2 -2.5
v 21.5 16.1 -2.5
v 21.5 16.1 -2.6
v 21.5 16.2 -2.6
v 21.4 16.2 -2.6
v 21.4 16.2 -2.5
v 21.5 16.2 -2.5
v 21.5 16.2 -2.6
v 21.4 16.2 -2.5
v 21.4 16.1 -2.5
v 21.5 16.1 -2.5
v 21.5 16.2 -2.5
v 21.5 16.2 -2.6
v 21.5 16.1 -2.6
v 21.4 16.1 -2.6
v 21.4 16.2 -2.6
v 20.6 16.1 -2.6
v 20.6 16 -2.6
v 20.6 16 -2.5
v 20.6 16.1 -2.5
v 20.6 16 -2.5
v 20.6 16 -2.6
v 20.7 16 -2.6
v 20.7 16 -2.5
v 20.6 16.1 -2.5
v 20.6 16 -2.5
v 20.7 16 -2.5
v 20.7 16.1 -2.5
v 20.7 16.1 -2.6
v 20.7 16 -2.6
v 20.6 16 -2.6
v 20.6 16.1 -2.6
v 20.7 16.1 -2.5
v 20.7 16 -2.5
v 20.8 16 -2.5
v 20.8 16.1 -2.5
v 20.8 16.1 -2.6
v 20.8 16 -2.6
v 20.7 16 -2.6
v 20.7 16.1 -2.6
v 20.8 16.1 -2.5
v 20.8 16 -2.5
v 20.9 16 -2.5
v 20.9 16.1 -2.5
v 20.9 16.1 -2.6
v 20.9 16 -2.6
v 20.8 16 -2.6
v 20.8 16.1 -2.6
v 20.9 16.1 -2.5
v 20.9 16 -2.5
v 21 16 -2.5
v 21 16.1 -2.5
v 21 16.1 -2.6
v 21 16 -2.6
v 20.9 16 -2.6
v 20.9 16.1 -2.6
v 21 16.1 -2.5
v 21 16 -2.5
v 21.1 16 -2.5
v 21.1 16.1 -2.5
v 21.1 16.1 -2.6
v 21.1 16 -2.6
v 21 16 -2.6
v 21 16.1 -2.6
v 21.1 16.1 -2.5
v 21.1 16 -2.5
v 21.2 16 -2.5
v 21.2 16.1 -2.5
v 21.2 16.1 -2.6
v 21.2 16 -2.6
v 21.1 16 -2.6
v 21.1 16.1 -2.6
v 21.2 16.1 -2.5
v 21.2 16 -2.5
v 21.3 16 -2.5
v 21.3 16.1 -2.5
v 21.3 16.1 -2.6
v 21.3 16 -2.6
v 21.2 16 -2.6
v 21.2 16.1 -2.6
v 21.3 16.1 -2.5
v 21.3 16 -2.5
v 21.4 16 -2.5
v 21.4 16.1 -2.5
v 21.4 16.1 -2.6
v 21.4 16 -2.6
v 21.3 16 -2.6
v 21.3 16.1 -2.6
v 21.4 16.1 -2.5
v 21.4 16 -2.5
v 21.5 16 -2.5
v 21.5 16.1 -2.5
v 21.5 16.1 -2.6
v 21.5 16 -2.6
v 21.4 16 -2.6
v 21.4 16.1 -2.6
v 21.5 16.1 -2.6
v 21.5 16.1 -2.5
v 21.6 16.1 -2.5
v 21.6 16.1 -2.6
v 21.5 16.1 -2.5
v 21.5 16 -2.5
v 21.6 16 -2.5
v 21.6 16.1 -2.5
v 21.6 16.1 -2.6
v 21.6 16 -2.6
v 21.5 16 -2.6
v 21.5 16.1 -2.6
v 21.7 16.1 -2.5
v 21.7 16 -2.5
v 21.7 16 -2.6
v 21.7 16.1 -2.6
v 21.6 16.1 -2.6
v 21.6 16.1 -2.5
v 21.7 16.1 -2.5
v 21.7 16.1 -2.6
v 21.6 16.1 -2.5
v 21.6 16 -2.5
v 21.7 16 -2.5
v 21.7 16.1 -2.5
v 21.7 16.1 -2.6
v 21.7 16 -2.6
v 21.6 16 -2.6
v 21.6 16.1 -2.6
v 20.7 16 -2.6
v 20.7 15.9 -2.6
v 20.7 15.9 -2.5
v 20.7 16 -2.5
v 20.7 15.9 -2.5
v 20.7 15.9 -2.6
v 20.8 15.9 -2.6
v 20.8 15.9 -2.5
v 20.7 16 -2.5
v 20.7 15.9 -2.5
v 20.8 15.9 -2.5
v 20.8 16 -2.5
v 20.8 16 -2.6
v 20.8 15.9 -2.6
v 20.7 15.9 -2.6
v 20.7 16 -2.6
v 20.8 16 -2.5
v 20.8 15.9 -2.5
v 20.9 15.9 -2.5
v 20.9 16 -2.5
v 20.9 16 -2.6
v 20.9 15.9 -2.6
v 20.8 15.9 -2.6
v 20.8 16 -2.6
v 20.9 16 -2.5
v 20.9 15.9 -2.5
v 21 15.9 -2.5
v 21 16 -2.5
v 21 16 -2.6
v 21 15.9 -2.6
v 20.9 15.9 -2.6
v 20.9 16 -2.6
v 21 16 -2.5
v 21 15.9 -2.5
v 21.1 15.9 -2.5
v 21.1 16 -2.5
v 21.1 16 -2.6
v 21.1 15.9 -2.6
v 21 15.9 -2.6
v 21 16 -2.6
v 21.1 16 -2.5
v 21.1 15.9 -2.5
v 21.2 15.9 -2.5
v 21.2 16 -2.5
v 21.2 16 -2.6
v 21.2 15.9 -2.6
v 21.1 15.9 -2.6
v 21.1 16 -2.6
v 21.2 16 -2.5
v 21.2 15.9 -2.5
v 21.3 15.9 -2.5
v 21.3 16 -2.5
v 21.3 16 -2.6
v 21.3 15.9 -2.6
v 21.2 15.9 -2.6
v 21.2 16 -2.6
v 21.3 16 -2.5
v 21.3 15.9 -2.5
v 21.4 15.9 -2.5
v 21.4 16 -2.5
v 21.4 16 -2.6
v 21.4 15.9 -2.6
v 21.3 15.9 -2.6
v 21.3 16 -2.6
v 21.4 16 -2.5
v 21.4 15.9 -2.5
v 21.5 15.9 -2.5
v 21.5 16 -2.5
v 21.5 16 -2.6
v 21.5 15.9 -2.6
v 21.4 15.9 -2.6
v 21.4 16 -2.6
v 21.5 16 -2.5
v 21.5 15.9 -2.5
v 21.6 15.9 -2.5
v 21.6 16 -2.5
v 21.6 16 -2.6
v 21.6 15.9 -2.6
v 21.5 15.9 -2.6
v 21.5 16 -2.6
v 21.6 16 -2.5
v 21.6 15.9 -2.5
v 21.7 15.9 -2.5
v 21.7 16 -2.5
v 21.7 16 -2.6
v 21.7 15.9 -2.6
v 21.6 15.9 -2.6
v 21.6 16 -2.6
v 21.7 16 -2.6
v 21.7 16 -2.5
v 21.8 16 -2.5
v 21.8 16 -2.6
v 21.7 16 -2.5
v 21.7 15.9 -2.5
v 21.8 15.9 -2.5
v 21.8 16 -2.5
v 21.8 16 -2.6
v 21.8 15.9 -2.6
v 21.7 15.9 -2.6
v 21.7 16 -2.6
v 21.9 16 -2.5
v 21.9 15.9 -2.5
v 21.9 15.9 -2.6
v 21.9 16 -2.6
v 21.8 16 -2.6
v 21.8 16 -2.5
v 21.9 16 -2.5
v 21.9 16 -2.6
v 21.8 16 -2.5
v 21.8 15.9 -2.5
v 21.9 15.9 -2.5
v 21.9 16 -2.5
v 21.9 16 -2.6
v 21.9 15.9 -2.6
v 21.8 15.9 -2.6
v 21.8 16 -2.6
v 20.8 15.9 -2.6
v 20.8 15.8 -2.6
v 20.8 15.8 -2.5
v 20.8 15.9 -2.5
v 20.8 15.9 -2.5
v 20.8 15.8 -2.5
v 20.9 15.8 -2.5
v 20.9 15.9 -2.5
v 20.9 15.9 -2.6
v 20.9 15.8 -2.6
v 20.8 15.8 -2.6
v 20.8 15.9 -2.6
v 20.9 15.9 -2.5
v 20.9 15.8 -2.5
v 21 15.8 -2.5
v 21 15.9 -2.5
v 21 15.9 -2.6
v 21 15.8 -2.6
v 20.9 15.8 -2.6
v 20.9 15.9 -2.6
v 21 15.9 -2.5
v 21 15.8 -2.5
v 21.1 15.8 -2.5
v 21.1 15.9 -2.5
v 21.1 15.9 -2.6
v 21.1 15.8 -2.6
v 21 15.8 -2.6
v 21 15.9 -2.6
v 21.1 15.9 -2.5
v 21.1 15.8 -2.5
v 21.2 15.8 -2.5
v 21.2 15.9 -2.5
v 21.2 15.9 -2.6
v 21.2 15.8 -2.6
v 21.1 15.8 -2.6
v 21.1 15.9 -2.6
v 21.2 15.9 -2.5
v 21.2 15.8 -2.5
v 21.3 15.8 -2.5
v 21.3 15.9 -2.5
v 21.3 15.9 -2.6
v 21.3 15.8 -2.6
v 21.2 15.8 -2.6
v 21.2 15.9 -2.6
v 21.3 15.9 -2.5
v 21.3 15.8 -2.5
v 21.4 15.8 -2.5
v 21.4 15.9 -2.5
v 21.4 15.9 -2.6
v 21.4 15.8 -2.6
v 21.3 15.8 -2.6
v 21.3 15.9 -2.6
v 21.4 15.9 -2.5
v 21.4 15.8 -2.5
v 21.5 15.8 -2.5
v 21.5 15.9 -2.5
v 21.5 15.9 -2.6
v 21.5 15.8 -2.6
v 21.4 15.8 -2.6
v 21.4 15.9 -2.6
v 21.5 15.9 -2.5
v 21.5 15.8 -2.5
v 21.6 15.8 -2.5
v 21.6 15.9 -2.5
v 21.6 15.9 -2.6
v 21.6 15.8 -2.6
v 21.5 15.8 -2.6
v 21.5 15.9 -2.6
v 21.6 15.9 -2.5
v 21.6 15.8 -2.5
v 21.7 15.8 -2.5
v 21.7 15.9 -2.5
v 21.7 15.9 -2.6
v 21.7 15.8 -2.6
v 21.6 15.8 -2.6
v 21.6 15.9 -2.6
v 21.7 15.9 -2.5
v 21.7 15.8 -2.5
v 21.8 15.8 -2.5
v 21.8 15.9 -2.5
v 21.8 15.9 -2.6
v 21.8 15.8 -2.6
v 21.7 15.8 -2.6
v 21.7 15.9 -2.6
v 21.8 15.9 -2.5
v 21.8 15.8 -2.5
v 21.9 15.8 -2.5
v 21.9 15.9 -2.5
v 21.9 15.9 -2.6
v 21.9 15.8 -2.6
v 21.8 15.8 -2.6
v 21.8 15.9 -2.6
v 22 15.9 -2.5
v 22 15.8 -2.5
v 22 15.8 -2.6
v 22 15.9 -2.6
v 21.9 15.9 -2.6
v 21.9 15.9 -2.5
v 22 15.9 -2.5
v 22 15.9 -2.6
v 21.9 15.9 -2.5
v 21.9 15.8 -2.5
v 22 15.8 -2.5
v 22 15.9 -2.5
v 22 15.9 -2.6
v 22 15.8 -2.6
v 21.9 15.8 -2.6
v 21.9 15.9 -2.6
v 20.8 15.8 -2.6
v 20.8 15.7 -2.6
v 20.8 15.7 -2.5
v 20.8 15.8 -2.5
v 20.8 15.7 -2.5
v 20.8 15.7 -2.6
v 20.9 15.7 -2.6
v 20.9 15.7 -2.5
v 20.8 15.8 -2.5
v 20.8 15.7 -2.5
v 20.9 15.7 -2.5
v 20.9 15.8 -2.5
v 20.9 15.8 -2.6
v 20.9 15.7 -2.6
v 20.8 15.7 -2.6
v 20.8 15.8 -2.6
v 20.9 15.8 -2.5
v 20.9 15.7 -2.5
v 21 15.7 -2.5
v 21 15.8 -2.5
v 21 15.8 -2.6
v 21 15.7 -2.6
v 20.9 15.7 -2.6
v 20.9 15.8 -2.6
v 21 15.8 -2.5
v 21 15.7 -2.5
v 21.1 15.7 -2.5
v 21.1 15.8 -2.5
v 21.1 15.8 -2.6
v 21.1 15.7 -2.6
v 21 15.7 -2.6
v 21 15.8 -2.6
v 21.1 15.8 -2.5
v 21.1 15.7 -2.5
v 21.2 15.7 -2.5
v 21.2 15.8 -2.5
v 21.2 15.8 -2.6
v 21.2 15.7 -2.6
v 21.1 15.7 -2.6
v 21.1 15.8 -2.6
v 21.2 15.8 -2.5
v 21.2 15.7 -2.5
v 21.3 15.7 -2.5
v 21.3 15.8 -2.5
v 21.3 15.8 -2.6
v 21.3 15.7 -2.6
v 21.2 15.7 -2.6
v 21.2 15.8 -2.6
v 21.3 15.8 -2.5
v 21.3 15.7 -2.5
v 21.4 15.7 -2.5
v 21.4 15.8 -2.5
v 21.4 15.8 -2.6
v 21.4 15.7 -2.6
v 21.3 15.7 -2.6
v 21.3 15.8 -2.6
v 21.4 15.8 -2.5
v 21.4 15.7 -2.5
v 21.5 15.7 -2.5
v 21.5 15.8 -2.5
v 21.5 15.8 -2.6
v 21.5 15.7 -2.6
v 21.4 15.7 -2.6
v 21.4 15.8 -2.6
v 21.5 15.8 -2.5
v 21.5 15.7 -2.5
v 21.6 15.7 -2.5
v 21.6 15.8 -2.5
v 21.6 15.8 -2.6
v 21.6 15.7 -2.6
v 21.5 15.7 -2.6
v 21.5 15.8 -2.6
v 21.6 15.8 -2.5
v 21.6 15.7 -2.5
v 21.7 15.7 -2.5
v 21.7 15.8 -2.5
v 21.7 15.8 -2.6
v 21.7 15.7 -2.6
v 21.6 15.7 -2.6
v 21.6 15.8 -2.6
v 21.7 15.8 -2.5
v 21.7 15.7 -2.5
v 21.8 15.7 -2.5
v 21.8 15.8 -2.5
v 21.8 15.8 -2.6
v 21.8 15.7 -2.6
v 21.7 15.7 -2.6
v 21.7 15.8 -2.6
v 21.8 15.8 -2.5
v 21.8 15.7 -2.5
v 21.9 15.7 -2.5
v 21.9 15.8 -2.5
v 21.9 15.8 -2.6
v 21.9 15.7 -2.6
v 21.8 15.7 -2.6
v 21.8 15.8 -2.6
v 22 15.8 -2.5
v 22 15.7 -2.5
v 22 15.7 -2.6
v 22 15.8 -2.6
v 21.9 15.7 -2.5
v 21.9 15.7 -2.6
v 22 15.7 -2.6
v 22 15.7 -2.5
v 21.9 15.8 -2.5
v 21.9 15.7 -2.5
v 22 15.7 -2.5
v 22 15.8 -2.5
v 22 15.8 -2.6
v 22 15.7 -2.6
v 21.9 15.7 -2.6
v 21.9 15.8 -2.6
v 20.9 15.7 -2.6
v 20.9 15.6 -2.6
v 20.9 15.6 -2.5
v 20.9 15.7 -2.5
v 20.9 15.7 -2.5
v 20.9 15.6 -2.5
v 21 15.6 -2.5
v 21 15.7 -2.5
v 21 15.7 -2.6
v 21 15.6 -2.6
v 20.9 15.6 -2.6
v 20.9 15.7 -2.6
v 21 15.7 -2.5
v 21 15.6 -2.5
v 21.1 15.6 -2.5
v 21.1 15.7 -2.5
v 21.1 15.7 -2.6
v 21.1 15.6 -2.6
v 21 15.6 -2.6
v 21 15.7 -2.6
v 21.1 15.7 -2.5
v 21.1 15.6 -2.5
v 21.2 15.6 -2.5
v 21.2 15.7 -2.5
v 21.2 15.7 -2.6
v 21.2 15.6 -2.6
v 21.1 15.6 -2.6
v 21.1 15.7 -2.6
v 21.2 15.7 -2.5
v 21.2 15.6 -2.5
v 21.3 15.6 -2.5
v 21.3 15.7 -2.5
v 21.3 15.7 -2.6
v 21.3 15.6 -2.6
v 21.2 15.6 -2.6
v 21.2 15.7 -2.6
v 21.3 15.7 -2.5
v 21.3 15.6 -2.5
v 21.4 15.6 -2.5
v 21.4 15.7 -2.5
v 21.4 15.7 -2.6
v 21.4 15.6 -2.6
v 21.3 15.6 -2.6
v 21.3 15.7 -2.6
v 21.4 15.7 -2.5
v 21.4 15.6 -2.5
v 21.5 15.6 -2.5
v 21.5 15.7 -2.5
v 21.5 15.7 -2.6
v 21.5 15.6 -2.6
v 21.4 15.6 -2.6
v 21.4 15.7 -2.6
v 21.5 15.7 -2.5
v 21.5 15.6 -2.5
v 21.6 15.6 -2.5
v 21.6 15.7 -2.5
v 21.6 15.7 -2.6
v 21.6 15.6 -2.6
v 21.5 15.6 -2.6
v 21.5 15.7 -2.6
v 21.6 15.7 -2.5
v 21.6 15.6 -2.5
v 21.7 15.6 -2.5
v 21.7 15.7 -2.5
v 21.7 15.7 -2.6
v 21.7 15.6 -2.6
v 21.6 15.6 -2.6
v 21.6 15.7 -2.6
v 21.7 15.7 -2.5
v 21.7 15.6 -2.5
v 21.8 15.6 -2.5
v 21.8 15.7 -2.5
v 21.8 15.7 -2.6
v 21.8 15.6 -2.6
v 21.7 15.6 -2.6
v 21.7 15.7 -2.6
v 21.9 15.7 -2.5
v 21.9 15.6 -2.5
v 21.9 15.6 -2.6
v 21.9 15.7 -2.6
v 21.8 15.6 -2.5
v 21.8 15.6 -2.6
v 21.9 15.6 -2.6
v 21.9 15.6 -2.5
v 21.8 15.7 -2.5
v 21.8 15.6 -2.5
v 21.9 15.6 -2.5
v 21.9 15.7 -2.5
v 21.9 15.7 -2.6
v 21.9 15.6 -2.6
v 21.8 15.6 -2.6
v 21.8 15.7 -2.6
v 20.9 15.6 -2.6
v 20.9 15.5 -2.6
v 20.9 15.5 -2.5
v 20.9 15.6 -2.5
v 20.9 15.6 -2.5
v 20.9 15.5 -2.5
v 21 15.5 -2.5
v 21 15.6 -2.5
v 21 15.6 -2.6
v 21 15.5 -2.6
v 20.9 15.5 -2.6
v 20.9 15.6 -2.6
v 21 15.6 -2.5
v 21 15.5 -2.5
v 21.1 15.5 -2.5
v 21.1 15.6 -2.5
v 21.1 15.6 -2.6
v 21.1 15.5 -2.6
v 21 15.5 -2.6
v 21 15.6 -2.6
v 21.1 15.6 -2.5
v 21.1 15.5 -2.5
v 21.2 15.5 -2.5
v 21.2 15.6 -2.5
v 21.2 15.6 -2.6
v 21.2 15.5 -2.6
v 21.1 15.5 -2.6
v 21.1 15.6 -2.6
v 21.2 15.6 -2.5
v 21.2 15.5 -2.5
v 21.3 15.5 -2.5
v 21.3 15.6 -2.5
v 21.3 15.6 -2.6
v 21.3 15.5 -2.6
v 21.2 15.5 -2.6
v 21.2 15.6 -2.6
v 21.3 15.6 -2.5
v 21.3 15.5 -2.5
v 21.4 15.5 -2.5
v 21.4 15.6 -2.5
v 21.4 15.6 -2.6
v 21.4 15.5 -2.6
v 21.3 15.5 -2.6
v 21.3 15.6 -2.6
v 21.4 15.6 -2.5
v 21.4 15.5 -2.5
v 21.5 15.5 -2.5
v 21.5 15.6 -2.5
v 21.5 15.6 -2.6
v 21.5 15.5 -2.6
v 21.4 15.5 -2.6
v 21.4 15.6 -2.6
v 21.5 15.6 -2.5
v 21.5 15.5 -2.5
v 21.6 15.5 -2.5
v 21.6 15.6 -2.5
v 21.6 15.6 -2.6
v 21.6 15.5 -2.6
v 21.5 15.5 -2.6
v 21.5 15.6 -2.6
v 21.6 15.6 -2.5
v 21.6 15.5 -2.5
v 21.7 15.5 -2.5
v 21.7 15.6 -2.5
v 21.7 15.6 -2.6
v 21.7 15.5 -2.6
v 21.6 15.5 -2.6
v 21.6 15.6 -2.6
v 21.8 15.6 -2.5
v 21.8 15.5 -2.5
v 21.8 15.5 -2.6
v 21.8 15.6 -2.6
v 21.7 15.5 -2.5
v 21.7 15.5 -2.6
v 21.8 15.5 -2.6
v 21.8 15.5 -2.5
v 21.7 15.6 -2.5
v 21.7 15.5 -2.5
v 21.8 15.5 -2.5
v 21.8 15.6 -2.5
v 21.8 15.6 -2.6
v 21.8 15.5 -2.6
v 21.7 15.5 -2.6
v 21.7 15.6 -2.6
v 20.9 15.5 -2.6
v 20.9 15.4 -2.6
v 20.9 15.4 -2.5
v 20.9 15.5 -2.5
v 20.9 15.5 -2.5
v 20.9 15.4 -2.5
v 21 15.4 -2.5
v 21 15.5 -2.5
v 21 15.5 -2.6
v 21 15.4 -2.6
v 20.9 15.4 -2.6
v 20.9 15.5 -2.6
v 21 15.5 -2.5
v 21 15.4 -2.5
v 21.1 15.4 -2.5
v 21.1 15.5 -2.5
v 21.1 15.5 -2.6
v 21.1 15.4 -2.6
v 21 15.4 -2.6
v 21 15.5 -2.6
v 21.1 15.5 -2.5
v 21.1 15.4 -2.5
v 21.2 15.4 -2.5
v 21.2 15.5 -2.5
v 21.2 15.5 -2.6
v 21.2 15.4 -2.6
v 21.1 15.4 -2.6
v 21.1 15.5 -2.6
v 21.2 15.5 -2.5
v 21.2 15.4 -2.5
v 21.3 15.4 -2.5
v 21.3 15.5 -2.5
v 21.3 15.5 -2.6
v 21.3 15.4 -2.6
v 21.2 15.4 -2.6
v 21.2 15.5 -2.6
v 21.3 15.5 -2.5
v 21.3 15.4 -2.5
v 21.4 15.4 -2.5
v 21.4 15.5 -2.5
v 21.4 15.5 -2.6
v 21.4 15.4 -2.6
v 21.3 15.4 -2.6
v 21.3 15.5 -2.6
v 21.4 15.5 -2.5
v 21.4 15.4 -2.5
v 21.5 15.4 -2.5
v 21.5 15.5 -2.5
v 21.5 15.5 -2.6
v 21.5 15.4 -2.6
v 21.4 15.4 -2.6
v 21.4 15.5 -2.6
v 21.5 15.5 -2.5
v 21.5 15.4 -2.5
v 21.6 15.4 -2.5
v 21.6 15.5 -2.5
v 21.6 15.5 -2.6
v 21.6 15.4 -2.6
v 21.5 15.4 -2.6
v 21.5 15.5 -2.6
v 21.7 15.5 -2.5
v 21.7 15.4 -2.5
v 21.7 15.4 -2.6
v 21.7 15.5 -2.6
v 21.6 15.4 -2.5
v 21.6 15.4 -2.6
v 21.7 15.4 -2.6
v 21.7 15.4 -2.5
v 21.6 15.5 -2.5
v 21.6 15.4 -2.5
v 21.7 15.4 -2.5
v 21.7 15.5 -2.5
v 21.7 15.5 -2.6
v 21.7 15.4 -2.6
v 21.6 15.4 -2.6
v 21.6 15.5 -2.6
v 20.9 15.4 -2.6
v 20.9 15.3 -2.6
v 20.9 15.3 -2.5
v 20.9 15.4 -2.5
v 20.9 15.4 -2.5
v 20.9 15.3 -2.5
v 21 15.3 -2.5
v 21 15.4 -2.5
v 21 15.4 -2.6
v 21 15.3 -2.6
v 20.9 15.3 -2.6
v 20.9 15.4 -2.6
v 21 15.4 -2.5
v 21 15.3 -2.5
v 21.1 15.3 -2.5
v 21.1 15.4 -2.5
v 21.1 15.4 -2.6
v 21.1 15.3 -2.6
v 21 15.3 -2.6
v 21 15.4 -2.6
v 21.1 15.4 -2.5
v 21.1 15.3 -2.5
v 21.2 15.3 -2.5
v 21.2 15.4 -2.5
v 21.2 15.4 -2.6
v 21.2 15.3 -2.6
v 21.1 15.3 -2.6
v 21.1 15.4 -2.6
v 21.2 15.4 -2.5
v 21.2 15.3 -2.5
v 21.3 15.3 -2.5
v 21.3 15.4 -2.5
v 21.3 15.4 -2.6
v 21.3 15.3 -2.6
v 21.2 15.3 -2.6
v 21.2 15.4 -2.6
v 21.3 15.4 -2.5
v 21.3 15.3 -2.5
v 21.4 15.3 -2.5
v 21.4 15.4 -2.5
v 21.4 15.4 -2.6
v 21.4 15.3 -2.6
v 21.3 15.3 -2.6
v 21.3 15.4 -2.6
v 21.4 15.4 -2.5
v 21.4 15.3 -2.5
v 21.5 15.3 -2.5
v 21.5 15.4 -2.5
v 21.5 15.4 -2.6
v 21.5 15.3 -2.6
v 21.4 15.3 -2.6
v 21.4 15.4 -2.6
v 21.6 15.4 -2.5
v 21.6 15.3 -2.5
v 21.6 15.3 -2.6
v 21.6 15.4 -2.6
v 21.5 15.3 -2.5
v 21.5 15.3 -2.6
v 21.6 15.3 -2.6
v 21.6 15.3 -2.5
v 21.5 15.4 -2.5
v 21.5 15.3 -2.5
v 21.6 15.3 -2.5
v 21.6 15.4 -2.5
v 21.6 15.4 -2.6
v 21.6 15.3 -2.6
v 21.5 15.3 -2.6
v 21.5 15.4 -2.6
v 20.9 15.3 -2.6
v 20.9 15.2 -2.6
v 20.9 15.2 -2.5
v 20.9 15.3 -2.5
v 20.9 15.3 -2.5
v 20.9 15.2 -2.5
v 21 15.2 -2.5
v 21 15.3 -2.5
v 21 15.3 -2.6
v 21 15.2 -2.6
v 20.9 15.2 -2.6
v 20.9 15.3 -2.6
v 21 15.3 -2.5
v 21 15.2 -2.5
v 21.1 15.2 -2.5
v 21.1 15.3 -2.5
v 21.1 15.3 -2.6
v 21.1 15.2 -2.6
v 21 15.2 -2.6
v 21 15.3 -2.6
v 21.1 15.3 -2.5
v 21.1 15.2 -2.5
v 21.2 15.2 -2.5
v 21.2 15.3 -2.5
v 21.2 15.3 -2.6
v 21.2 15.2 -2.6
v 21.1 15.2 -2.6
v 21.1 15.3 -2.6
v 21.2 15.3 -2.5
v 21.2 15.2 -2.5
v 21.3 15.2 -2.5
v 21.3 15.3 -2.5
v 21.3 15.3 -2.6
v 21.3 15.2 -2.6
v 21.2 15.2 -2.6
v 21.2 15.3 -2.6
v 21.3 15.3 -2.5
v 21.3 15.2 -2.5
v 21.4 15.2 -2.5
v 21.4 15.3 -2.5
v 21.4 15.3 -2.6
v 21.4 15.2 -2.6
v 21.3 15.2 -2.6
v 21.3 15.3 -2.6
v 21.5 15.3 -2.5
v 21.5 15.2 -2.5
v 21.5 15.2 -2.6
v 21.5 15.3 -2.6
v 21.4 15.2 -2.5
v 21.4 15.2 -2.6
v 21.5 15.2 -2.6
v 21.5 15.2 -2.5
v 21.4 15.3 -2.5
v 21.4 15.2 -2.5
v 21.5 15.2 -2.5
v 21.5 15.3 -2.5
v 21.5 15.3 -2.6
v 21.5 15.2 -2.6
v 21.4 15.2 -2.6
v 21.4 15.3 -2.6
v 20.9 15.2 -2.6
v 20.9 15.1 -2.6
v 20.9 15.1 -2.5
v 20.9 15.2 -2.5
v 20.9 15.2 -2.5
v 20.9 15.1 -2.5
v 21 15.1 -2.5
v 21 15.2 -2.5
v 21 15.2 -2.6
v 21 15.1 -2.6
v 20.9 15.1 -2.6
v 20.9 15.2 -2.6
v 21 15.2 -2.5
v 21 15.1 -2.5
v 21.1 15.1 -2.5
v 21.1 15.2 -2.5
v 21.1 15.2 -2.6
v 21.1 15.1 -2.6
v 21 15.1 -2.6
v 21 15.2 -2.6
v 21.1 15.2 -2.5
v 21.1 15.1 -2.5
v 21.2 15.1 -2.5
v 21.2 15.2 -2.5
v 21.2 15.2 -2.6
v 21.2 15.1 -2.6
v 21.1 15.1 -2.6
v 21.1 15.2 -2.6
v 21.2 15.2 -2.5
v 21.2 15.1 -2.5
v 21.3 15.1 -2.5
v 21.3 15.2 -2.5
v 21.3 15.2 -2.6
v 21.3 15.1 -2.6
v 21.2 15.1 -2.6
v 21.2 15.2 -2.6
v 21.4 15.2 -2.5
v 21.4 15.1 -2.5
v 21.4 15.1 -2.6
v 21.4 15.2 -2.6
v 21.3 15.1 -2.5
v 21.3 15.1 -2.6
v 21.4 15.1 -2.6
v 21.4 15.1 -2.5
v 21.3 15.2 -2.5
v 21.3 15.1 -2.5
v 21.4 15.1 -2.5
v 21.4 15.2 -2.5
v 21.4 15.2 -2.6
v 21.4 15.1 -2.6
v 21.3 15.1 -2.6
v 21.3 15.2 -2.6
v 20.9 15.1 -2.6
v 20.9 15 -2.6
v 20.9 15 -2.5
v 20.9 15.1 -2.5
v 20.9 15 -2.5
v 20.9 15 -2.6
v 21 15 -2.6
v 21 15 -2.5
v 20.9 15.1 -2.5
v 20.9 15 -2.5
v 21 15 -2.5
v 21 15.1 -2.5
v 21 15.1 -2.6
v 21 15 -2.6
v 20.9 15 -2.6
v 20.9 15.1 -2.6
v 21 15.1 -2.5
v 21 15 -2.5
v 21.1 15 -2.5
v 21.1 15.1 -2.5
v 21.1 15.1 -2.6
v 21.1 15 -2.6
v 21 15 -2.6
v 21 15.1 -2.6
v 21.1 15.1 -2.5
v 21.1 15 -2.5
v 21.2 15 -2.5
v 21.2 15.1 -2.5
v 21.2 15.1 -2.6
v 21.2 15 -2.6
v 21.1 15 -2.6
v 21.1 15.1 -2.6
v 21.3 15.1 -2.5
v 21.3 15 -2.5
v 21.3 15 -2.6
v 21.3 15.1 -2.6
v 21.2 15 -2.5
v 21.2 15 -2.6
v 21.3 15 -2.6
v 21.3 15 -2.5
v 21.2 15.1 -2.5
v 21.2 15 -2.5
v 21.3 15 -2.5
v 21.3 15.1 -2.5
v 21.3 15.1 -2.6
v 21.3 15 -2.6
v 21.2 15 -2.6
v 21.2 15.1 -2.6
v 21 15 -2.6
v 21 14.9 -2.6
v 21 14.9 -2.5
v 21 15 -2.5
v 21 15 -2.5
v 21 14.9 -2.5
v 21.1 14.9 -2.5
v 21.1 15 -2.5
v 21.1 15 -2.6
v 21.1 14.9 -2.6
v 21 14.9 -2.6
v 21 15 -2.6
v 21.2 15 -2.5
v 21.2 14.9 -2.5
v 21.2 14.9 -2.6
v 21.2 15 -2.6
v 21.1 14.9 -2.5
v 21.1 14.9 -2.6
v 21.2 14.9 -2.6
v 21.2 14.9 -2.5
v 21.1 15 -2.5
v 21.1 14.9 -2.5
v 21.2 14.9 -2.5
v 21.2 15 -2.5
v 21.2 15 -2.6
v 21.2 14.9 -2.6
v 21.1 14.9 -2.6
v 21.1 15 -2.6
v 21 14.9 -2.6
v 21 14.8 -2.6
v 21 14.8 -2.5
v 21 14.9 -2.5
v 21.1 14.9 -2.5
v 21.1 14.8 -2.5
v 21.1 14.8 -2.6
v 21.1 14.9 -2.6
v 21 14.8 -2.5
v 21 14.8 -2.6
v 21.1 14.8 -2.6
v 21.1 14.8 -2.5
v 21 14.9 -2.5
v 21 14.8 -2.5
v 21.1 14.8 -2.5
v 21.1 14.9 -2.5
v 21.1 14.9 -2.6
v 21.1 14.8 -2.6
v 21 14.8 -2.6
v 21 14.9 -2.6
v 15.1 14 -2.6
v 15.1 13.9 -2.6
v 15.1 13.9 -2.5
v 15.1 14 -2.5
v 15.2 14 -2.5
v 15.2 13.9 -2.5
v 15.2 13.9 -2.6
v 15.2 14 -2.6
v 15.1 14 -2.6
v 15.1 14 -2.5
v 15.2 14 -2.5
v 15.2 14 -2.6
v 15.1 14 -2.5
v 15.1 13.9 -2.5
v 15.2 13.9 -2.5
v 15.2 14 -2.5
v 15.2 14 -2.6
v 15.2 13.9 -2.6
v 15.1 13.9 -2.6
v 15.1 14 -2.6
v 15.1 13.9 -2.6
v 15.1 13.8 -2.6
v 15.1 13.8 -2.5
v 15.1 13.9 -2.5
v 15.2 13.9 -2.5
v 15.2 13.8 -2.5
v 15.2 13.8 -2.6
v 15.2 13.9 -2.6
v 15.1 13.9 -2.5
v 15.1 13.8 -2.5
v 15.2 13.8 -2.5
v 15.2 13.9 -2.5
v 15.2 13.9 -2.6
v 15.2 13.8 -2.6
v 15.1 13.8 -2.6
v 15.1 13.9 -2.6
v 15 13.8 -2.6
v 15 13.7 -2.6
v 15 13.7 -2.5
v 15 13.8 -2.5
v 15 13.8 -2.6
v 15 13.8 -2.5
v 15.1 13.8 -2.5
v 15.1 13.8 -2.6
v 15 13.8 -2.5
v 15 13.7 -2.5
v 15.1 13.7 -2.5
v 15.1 13.8 -2.5
v 15.1 13.8 -2.6
v 15.1 13.7 -2.6
v 15 13.7 -2.6
v 15 13.8 -2.6
v 15.2 13.8 -2.5
v 15.2 13.7 -2.5
v 15.2 13.7 -2.6
v 15.2 13.8 -2.6
v 15.1 13.8 -2.5
v 15.1 13.7 -2.5
v 15.2 13.7 -2.5
v 15.2 13.8 -2.5
v 15.2 13.8 -2.6
v 15.2 13.7 -2.6
v 15.1 13.7 -2.6
v 15.1 13.8 -2.6
v 15 13.7 -2.6
v 15 13.6 -2.6
v 15 13.6 -2.5
v 15 13.7 -2.5
v 15 13.7 -2.5
v 15 13.6 -2.5
v 15.1 13.6 -2.5
v 15.1 13.7 -2.5
v 15.1 13.7 -2.6
v 15.1 13.6 -2.6
v 15 13.6 -2.6
v 15 13.7 -2.6
v 15.2 13.7 -2.5
v 15.2 13.6 -2.5
v 15.2 13.6 -2.6
v 15.2 13.7 -2.6
v 15.1 13.6 -2.5
v 15.1 13.6 -2.6
v 15.2 13.6 -2.6
v 15.2 13.6 -2.5
v 15.1 13.7 -2.5
v 15.1 13.6 -2.5
v 15.2 13.6 -2.5
v 15.2 13.7 -2.5
v 15.2 13.7 -2.6
v 15.2 13.6 -2.6
v 15.1 13.6 -2.6
v 15.1 13.7 -2.6
v 14.9 13.6 -2.6
v 14.9 13.5 -2.6
v 14.9 13.5 -2.5
v 14.9 13.6 -2.5
v 14.9 13.6 -2.6
v 14.9 13.6 -2.5
v 15 13.6 -2.5
v 15 13.6 -2.6
v 14.9 13.6 -2.5
v 14.9 13.5 -2.5
v 15 13.5 -2.5
v 15 13.6 -2.5
v 15 13.6 -2.6
v 15 13.5 -2.6
v 14.9 13.5 -2.6
v 14.9 13.6 -2.6
v 15.1 13.6 -2.5
v 15.1 13.5 -2.5
v 15.1 13.5 -2.6
v 15.1 13.6 -2.6
v 15 13.6 -2.5
v 15 13.5 -2.5
v 15.1 13.5 -2.5
v 15.1 13.6 -2.5
v 15.1 13.6 -2.6
v 15.1 13.5 -2.6
v 15 13.5 -2.6
v 15 13.6 -2.6
v 14.8 13.5 -2.6
v 14.8 13.4 -2.6
v 14.8 13.4 -2.5
v 14.8 13.5 -2.5
v 14.8 13.5 -2.6
v 14.8 13.5 -2.5
v 14.9 13.5 -2.5
v 14.9 13.5 -2.6
v 14.8 13.5 -2.5
v 14.8 13.4 -2.5
v 14.9 13.4 -2.5
v 14.9 13.5 -2.5
v 14.9 13.5 -2.6
v 14.9 13.4 -2.6
v 14.8 13.4 -2.6
v 14.8 13.5 -2.6
v 14.9 13.5 -2.5
v 14.9 13.4 -2.5
v 15 13.4 -2.5
v 15 13.5 -2.5
v 15 13.5 -2.6
v 15 13.4 -2.6
v 14.9 13.4 -2.6
v 14.9 13.5 -2.6
v 15.1 13.5 -2.5
v 15.1 13.4 -2.5
v 15.1 13.4 -2.6
v 15.1 13.5 -2.6
v 15 13.4 -2.5
v 15 13.4 -2.6
v 15.1 13.4 -2.6
v 15.1 13.4 -2.5
v 15 13.5 -2.5
v 15 13.4 -2.5
v 15.1 13.4 -2.5
v 15.1 13.5 -2.5
v 15.1 13.5 -2.6
v 15.1 13.4 -2.6
v 15 13.4 -2.6
v 15 13.5 -2.6
v 14.6 13.4 -2.6
v 14.6 13.3 -2.6
v 14.6 13.3 -2.5
v 14.6 13.4 -2.5
v 14.6 13.4 -2.6
v 14.6 13.4 -2.5
v 14.7 13.4 -2.5
v 14.7 13.4 -2.6
v 14.6 13.4 -2.5
v 14.6 13.3 -2.5
v 14.7 13.3 -2.5
v 14.7 13.4 -2.5
v 14.7 13.4 -2.6
v 14.7 13.3 -2.6
v 14.6 13.3 -2.6
v 14.6 13.4 -2.6
v 14.7 13.4 -2.6
v 14.7 13.4 -2.5
v 14.8 13.4 -2.5
v 14.8 13.4 -2.6
v 14.7 13.4 -2.5
v 14.7 13.3 -2.5
v 14.8 13.3 -2.5
v 14.8 13.4 -2.5
v 14.8 13.4 -2.6
v 14.8 13.3 -2.6
v 14.7 13.3 -2.6
v 14.7 13.4 -2.6
v 14.8 13.4 -2.5
v 14.8 13.3 -2.5
v 14.9 13.3 -2.5
v 14.9 13.4 -2.5
v 14.9 13.4 -2.6
v 14.9 13.3 -2.6
v 14.8 13.3 -2.6
v 14.8 13.4 -2.6
v 15 13.4 -2.5
v 15 13.3 -2.5
v 15 13.3 -2.6
v 15 13.4 -2.6
v 14.9 13.3 -2.5
v 14.9 13.3 -2.6
v 15 13.3 -2.6
v 15 13.3 -2.5
v 14.9 13.4 -2.5
v 14.9 13.3 -2.5
v 15 13.3 -2.5
v 15 13.4 -2.5
v 15 13.4 -2.6
v 15 13.3 -2.6
v 14.9 13.3 -2.6
v 14.9 13.4 -2.6
v 14.4 13.3 -2.6
v 14.4 13.2 -2.6
v 14.4 13.2 -2.5
v 14.4 13.3 -2.5
v 14.4 13.3 -2.6
v 14.4 13.3 -2.5
v 14.5 13.3 -2.5
v 14.5 13.3 -2.6
v 14.4 13.3 -2.5
v 14.4 13.2 -2.5
v 14.5 13.2 -2.5
v 14.5 13.3 -2.5
v 14.5 13.3 -2.6
v 14.5 13.2 -2.6
v 14.4 13.2 -2.6
v 14.4 13.3 -2.6
v 14.5 13.3 -2.6
v 14.5 13.3 -2.5
v 14.6 13.3 -2.5
v 14.6 13.3 -2.6
v 14.5 13.3 -2.5
v 14.5 13.2 -2.5
v 14.6 13.2 -2.5
v 14.6 13.3 -2.5
v 14.6 13.3 -2.6
v 14.6 13.2 -2.6
v 14.5 13.2 -2.6
v 14.5 13.3 -2.6
v 14.6 13.3 -2.5
v 14.6 13.2 -2.5
v 14.7 13.2 -2.5
v 14.7 13.3 -2.5
v 14.7 13.3 -2.6
v 14.7 13.2 -2.6
v 14.6 13.2 -2.6
v 14.6 13.3 -2.6
v 14.7 13.2 -2.5
v 14.7 13.2 -2.6
v 14.8 13.2 -2.6
v 14.8 13.2 -2.5
v 14.7 13.3 -2.5
v 14.7 13.2 -2.5
v 14.8 13.2 -2.5
v 14.8 13.3 -2.5
v 14.8 13.3 -2.6
v 14.8 13.2 -2.6
v 14.7 13.2 -2.6
v 14.7 13.3 -2.6
v 14.9 13.3 -2.5
v 14.9 13.2 -2.5
v 14.9 13.2 -2.6
v 14.9 13.3 -2.6
v 14.8 13.2 -2.5
v 14.8 13.2 -2.6
v 14.9 13.2 -2.6
v 14.9 13.2 -2.5
v 14.8 13.3 -2.5
v 14.8 13.2 -2.5
v 14.9 13.2 -2.5
v 14.9 13.3 -2.5
v 14.9 13.3 -2.6
v 14.9 13.2 -2.6
v 14.8 13.2 -2.6
v 14.8 13.3 -2.6
v 14.1 13.2 -2.6
v 14.1 13.1 -2.6
v 14.1 13.1 -2.5
v 14.1 13.2 -2.5
v 14.1 13.2 -2.6
v 14.1 13.2 -2.5
v 14.2 13.2 -2.5
v 14.2 13.2 -2.6
v 14.1 13.1 -2.5
v 14.1 13.1 -2.6
v 14.2 13.1 -2.6
v 14.2 13.1 -2.5
v 14.1 13.2 -2.5
v 14.1 13.1 -2.5
v 14.2 13.1 -2.5
v 14.2 13.2 -2.5
v 14.2 13.2 -2.6
v 14.2 13.1 -2.6
v 14.1 13.1 -2.6
v 14.1 13.2 -2.6
v 14.2 13.2 -2.6
v 14.2 13.2 -2.5
v 14.3 13.2 -2.5
v 14.3 13.2 -2.6
v 14.2 13.1 -2.5
v 14.2 13.1 -2.6
v 14.3 13.1 -2.6
v 14.3 13.1 -2.5
v 14.2 13.2 -2.5
v 14.2 13.1 -2.5
v 14.3 13.1 -2.5
v 14.3 13.2 -2.5
v 14.3 13.2 -2.6
v 14.3 13.1 -2.6
v 14.2 13.1 -2.6
v 14.2 13.2 -2.6
v 14.3 13.2 -2.6
v 14.3 13.2 -2.5
v 14.4 13.2 -2.5
v 14.4 13.2 -2.6
v 14.3 13.1 -2.5
v 14.3 13.1 -2.6
v 14.4 13.1 -2.6
v 14.4 13.1 -2.5
v 14.3 13.2 -2.5
v 14.3 13.1 -2.5
v 14.4 13.1 -2.5
v 14.4 13.2 -2.5
v 14.4 13.2 -2.6
v 14.4 13.1 -2.6
v 14.3 13.1 -2.6
v 14.3 13.2 -2.6
v 14.4 13.1 -2.5
v 14.4 13.1 -2.6
v 14.5 13.1 -2.6
v 14.5 13.1 -2.5
v 14.4 13.2 -2.5
v 14.4 13.1 -2.5
v 14.5 13.1 -2.5
v 14.5 13.2 -2.5
v 14.5 13.2 -2.6
v 14.5 13.1 -2.6
v 14.4 13.1 -2.6
v 14.4 13.2 -2.6
v 14.5 13.1 -2.5
v 14.5 13.1 -2.6
v 14.6 13.1 -2.6
v 14.6 13.1 -2.5
v 14.5 13.2 -2.5
v 14.5 13.1 -2.5
v 14.6 13.1 -2.5
v 14.6 13.2 -2.5
v 14.6 13.2 -2.6
v 14.6 13.1 -2.6
v 14.5 13.1 -2.6
v 14.5 13.2 -2.6
v 14.7 13.2 -2.5
v 14.7 13.1 -2.5
v 14.7 13.1 -2.6
v 14.7 13.2 -2.6
v 14.6 13.1 -2.5
v 14.6 13.1 -2.6
v 14.7 13.1 -2.6
v 14.7 13.1 -2.5
v 14.6 13.2 -2.5
v 14.6 13.1 -2.5
v 14.7 13.1 -2.5
v 14.7 13.2 -2.5
v 14.7 13.2 -2.6
v 14.7 13.1 -2.6
v 14.6 13.1 -2.6
v 14.6 13.2 -2.6

# faces
f 1/1/1 2/1/1 3/1/1 4/1/1
f 5/1/3 6/1/3 7/1/3 8/1/3
f 9/1/4 10/1/4 11/1/4 12/1/4
f 13/1/5 14/1/5 15/1/5 16/1/5
f 17/1/6 18/1/6 19/1/6 20/1/6
f 21/1/3 22/1/3 23/1/3 24/1/3
f 25/1/5 26/1/5 27/1/5 28/1/5
f 29/1/6 30/1/6 31/1/6 32/1/6
f 33/1/3 34/1/3 35/1/3 36/1/3
f 37/1/5 38/1/5 39/1/5 40/1/5
f 41/1/6 42/1/6 43/1/6 44/1/6
f 45/1/2 46/1/2 47/1/2 48/1/2
f 49/1/3 50/1/3 51/1/3 52/1/3
f 53/1/5 54/1/5 55/1/5 56/1/5
f 57/1/6 58/1/6 59/1/6 60/1/6
f 61/1/1 62/1/1 63/1/1 64/1/1
f 65/1/4 66/1/4 67/1/4 68/1/4
f 69/1/5 70/1/5 71/1/5 72/1/5
f 73/1/6 74/1/6 75/1/6 76/1/6
f 77/1/5 78/1/5 79/1/5 80/1/5
f 81/1/6 82/1/6 83/1/6 84/1/6
f 85/1/5 86/1/5 87/1/5 88/1/5
f 89/1/6 90/1/6 91/1/6 92/1/6
f 93/1/3 94/1/3 95/1/3 96/1/3
f 97/1/5 98/1/5 99/1/5 100/1/5
f 101/1/6 102/1/6 103/1/6 104/1/6
f 105/1/3 106/1/3 107/1/3 108/1/3
f 109/1/5 110/1/5 111/1/5 112/1/5
f 113/1/6 114/1/6 115/1/6 116/1/6
f 117/1/3 118/1/3 119/1/3 120/1/3
f 121/1/5 122/1/5 123/1/5 124/1/5
f 125/1/6 126/1/6 127/1/6 128/1/6
f 129/1/2 130/1/2 131/1/2 132/1/2
f 133/1/3 134/1/3 135/1/3 136/1/3
f 137/1/5 138/1/5 139/1/5 140/1/5
f 141/1/6 142/1/6 143/1/6 144/1/6
f 145/1/1 146/1/1 147/1/1 148/1/1
f 149/1/4 150/1/4 151/1/4 152/1/4
f 153/1/5 154/1/5 155/1/5 156/1/5
f 157/1/6 158/1/6 159/1/6 160/1/6
f 161/1/5 162/1/5 163/1/5 164/1/5
f 165/1/6 166/1/6 167/1/6 168/1/6
f 169/1/5 170/1/5 171/1/5 172/1/5
f 173/1/6 174/1/6 175/1/6 176/1/6
f 177/1/5 178/1/5 179/1/5 180/1/5
f 181/1/6 182/1/6 183/1/6 184/1/6
f 185/1/5 186/1/5 187/1/5 188/1/5
f 189/1/6 190/1/6 191/1/6 192/1/6
f 193/1/5 194/1/5 195/1/5 196/1/5
f 197/1/6 198/1/6 199/1/6 200/1/6
f 201/1/3 202/1/3 203/1/3 204/1/3
f 205/1/5 206/1/5 207/1/5 208/1/5
f 209/1/6 210/1/6 211/1/6 212/1/6
f 213/1/3 214/1/3 215/1/3 216/1/3
f 217/1/5 218/1/5 219/1/5 220/1/5
f 221/1/6 222/1/6 223/1/6 224/1/6
f 225/1/2 226/1/2 227/1/2 228/1/2
f 229/1/3 230/1/3 231/1/3 232/1/3
f 233/1/5 234/1/5 235/1/5 236/1/5
f 237/1/6 238/1/6 239/1/6 240/1/6
f 241/1/1 242/1/1 243/1/1 244/1/1
f 245/1/4 246/1/4 247/1/4 248/1/4
f 249/1/5 250/1/5 251/1/5 252/1/5
f 253/1/6 254/1/6 255/1/6 256/1/6
f 257/1/5 258/1/5 259/1/5 260/1/5
f 261/1/6 262/1/6 263/1/6 264/1/6
f 265/1/5 266/1/5 267/1/5 268/1/5
f 269/1/6 270/1/6 271/1/6 272/1/6
f 273/1/5 274/1/5 275/1/5 276/1/5
f 277/1/6 278/1/6 279/1/6 280/1/6
f 281/1/5 282/1/5 283/1/5 284/1/5
f 285/1/6 286/1/6 287/1/6 288/1/6
f 289/1/5 290/1/5 291/1/5 292/1/5
f 293/1/6 294/1/6 295/1/6 296/1/6
f 297/1/5 298/1/5 299/1/5 300/1/5
f 301/1/6 302/1/6 303/1/6 304/1/6
f 305/1/5 306/1/5 307/1/5 308/1/5
f 309/1/6 310/1/6 311/1/6 312/1/6
f 313/1/3 314/1/3 315/1/3 316/1/3
f 317/1/5 318/1/5 319/1/5 320/1/5
f 321/1/6 322/1/6 323/1/6 324/1/6
f 325/1/2 326/1/2 327/1/2 328/1/2
f 329/1/3 330/1/3 331/1/3 332/1/3
f 333/1/5 334/1/5 335/1/5 336/1/5
f 337/1/6 338/1/6 339/1/6 340/1/6
f 341/1/1 342/1/1 343/1/1 344/1/1
f 345/1/4 346/1/4 347/1/4 348/1/4
f 349/1/5 350/1/5 351/1/5 352/1/5
f 353/1/6 354/1/6 355/1/6 356/1/6
f 357/1/5 358/1/5 359/1/5 360/1/5
f 361/1/6 362/1/6 363/1/6 364/1/6
f 365/1/5 366/1/5 367/1/5 368/1/5
f 369/1/6 370/1/6 371/1/6 372/1/6
f 373/1/5 374/1/5 375/1/5 376/1/5
f 377/1/6 378/1/6 379/1/6 380/1/6
f 381/1/5 382/1/5 383/1/5 384/1/5
f 385/1/6 386/1/6 387/1/6 388/1/6
f 389/1/5 390/1/5 391/1/5 392/1/5
f 393/1/6 394/1/6 395/1/6 396/1/6
f 397/1/5 398/1/5 399/1/5 400/1/5
f 401/1/6 402/1/6 403/1/6 404/1/6
f 405/1/5 406/1/5 407/1/5 408/1/5
f 409/1/6 410/1/6 411/1/6 412/1/6
f 413/1/5 414/1/5 415/1/5 416/1/5
f 417/1/6 418/1/6 419/1/6 420/1/6
f 421/1/3 422/1/3 423/1/3 424/1/3
f 425/1/5 426/1/5 427/1/5 428/1/5
f 429/1/6 430/1/6 431/1/6 432/1/6
f 433/1/2 434/1/2 435/1/2 436/1/2
f 437/1/3 438/1/3 439/1/3 440/1/3
f 441/1/5 442/1/5 443/1/5 444/1/5
f 445/1/6 446/1/6 447/1/6 448/1/6
f 449/1/1 450/1/1 451/1/1 452/1/1
f 453/1/4 454/1/4 455/1/4 456/1/4
f 457/1/5 458/1/5 459/1/5 460/1/5
f 461/1/6 462/1/6 463/1/6 464/1/6
f 465/1/5 466/1/5 467/1/5 468/1/5
f 469/1/6 470/1/6 471/1/6 472/1/6
f 473/1/5 474/1/5 475/1/5 476/1/5
f 477/1/6 478/1/6 479/1/6 480/1/6
f 481/1/5 482/1/5 483/1/5 484/1/5
f 485/1/6 486/1/6 487/1/6 488/1/6
f 489/1/5 490/1/5 491/1/5 492/1/5
f 493/1/6 494/1/6 495/1/6 496/1/6
f 497/1/5 498/1/5 499/1/5 500/1/5
f 501/1/6 502/1/6 503/1/6 504/1/6
f 505/1/5 506/1/5 507/1/5 508/1/5
f 509/1/6 510/1/6 511/1/6 512/1/6
f 513/1/5 514/1/5 515/1/5 516/1/5
f 517/1/6 518/1/6 519/1/6 520/1/6
f 521/1/5 522/1/5 523/1/5 524/1/5
f 525/1/6 526/1/6 527/1/6 528/1/6
f 529/1/5 530/1/5 531/1/5 532/1/5
f 533/1/6 534/1/6 535/1/6 536/1/6
f 537/1/3 538/1/3 539/1/3 540/1/3
f 541/1/5 542/1/5 543/1/5 544/1/5
f 545/1/6 546/1/6 547/1/6 548/1/6
f 549/1/2 550/1/2 551/1/2 552/1/2
f 553/1/3 554/1/3 555/1/3 556/1/3
f 557/1/5 558/1/5 559/1/5 560/1/5
f 561/1/6 562/1/6 563/1/6 564/1/6
f 565/1/1 566/1/1 567/1/1 568/1/1
f 569/1/5 570/1/5 571/1/5 572/1/5
f 573/1/6 574/1/6 575/1/6 576/1/6
f 577/1/5 578/1/5 579/1/5 580/1/5
f 581/1/6 582/1/6 583/1/6 584/1/6
f 585/1/5 586/1/5 587/1/5 588/1/5
f 589/1/6 590/1/6 591/1/6 592/1/6
f 593/1/5 594/1/5 595/1/5 596/1/5
f 597/1/6 598/1/6 599/1/6 600/1/6
f 601/1/5 602/1/5 603/1/5 604/1/5
f 605/1/6 606/1/6 607/1/6 608/1/6
f 609/1/5 610/1/5 611/1/5 612/1/5
f 613/1/6 614/1/6 615/1/6 616/1/6
f 617/1/5 618/1/5 619/1/5 620/1/5
f 621/1/6 622/1/6 623/1/6 624/1/6
f 625/1/5 626/1/5 627/1/5 628/1/5
f 629/1/6 630/1/6 631/1/6 632/1/6
f 633/1/5 634/1/5 635/1/5 636/1/5
f 637/1/6 638/1/6 639/1/6 640/1/6
f 641/1/5 642/1/5 643/1/5 644/1/5
f 645/1/6 646/1/6 647/1/6 648/1/6
f 649/1/5 650/1/5 651/1/5 652/1/5
f 653/1/6 654/1/6 655/1/6 656/1/6
f 657/1/2 658/1/2 659/1/2 660/1/2
f 661/1/3 662/1/3 663/1/3 664/1/3
f 665/1/5 666/1/5 667/1/5 668/1/5
f 669/1/6 670/1/6 671/1/6 672/1/6
f 673/1/1 674/1/1 675/1/1 676/1/1
f 677/1/4 678/1/4 679/1/4 680/1/4
f 681/1/5 682/1/5 683/1/5 684/1/5
f 685/1/6 686/1/6 687/1/6 688/1/6
f 689/1/5 690/1/5 691/1/5 692/1/5
f 693/1/6 694/1/6 695/1/6 696/1/6
f 697/1/5 698/1/5 699/1/5 700/1/5
f 701/1/6 702/1/6 703/1/6 704/1/6
f 705/1/5 706/1/5 707/1/5 708/1/5
f 709/1/6 710/1/6 711/1/6 712/1/6
f 713/1/5 714/1/5 715/1/5 716/1/5
f 717/1/6 718/1/6 719/1/6 720/1/6
f 721/1/5 722/1/5 723/1/5 724/1/5
f 725/1/6 726/1/6 727/1/6 728/1/6
f 729/1/5 730/1/5 731/1/5 732/1/5
f 733/1/6 734/1/6 735/1/6 736/1/6
f 737/1/5 738/1/5 739/1/5 740/1/5
f 741/1/6 742/1/6 743/1/6 744/1/6
f 745/1/5 746/1/5 747/1/5 748/1/5
f 749/1/6 750/1/6 751/1/6 752/1/6
f 753/1/5 754/1/5 755/1/5 756/1/5
f 757/1/6 758/1/6 759/1/6 760/1/6
f 761/1/5 762/1/5 763/1/5 764/1/5
f 765/1/6 766/1/6 767/1/6 768/1/6
f 769/1/2 770/1/2 771/1/2 772/1/2
f 773/1/4 774/1/4 775/1/4 776/1/4
f 777/1/5 778/1/5 779/1/5 780/1/5
f 781/1/6 782/1/6 783/1/6 784/1/6
f 785/1/1 786/1/1 787/1/1 788/1/1
f 789/1/5 790/1/5 791/1/5 792/1/5
f 793/1/6 794/1/6 795/1/6 796/1/6
f 797/1/5 798/1/5 799/1/5 800/1/5
f 801/1/6 802/1/6 803/1/6 804/1/6
f 805/1/5 806/1/5 807/1/5 808/1/5
f 809/1/6 810/1/6 811/1/6 812/1/6
f 813/1/5 814/1/5 815/1/5 816/1/5
f 817/1/6 818/1/6 819/1/6 820/1/6
f 821/1/5 822/1/5 823/1/5 824/1/5
f 825/1/6 826/1/6 827/1/6 828/1/6
f 829/1/5 830/1/5 831/1/5 832/1/5
f 833/1/6 834/1/6 835/1/6 836/1/6
f 837/1/5 838/1/5 839/1/5 840/1/5
f 841/1/6 842/1/6 843/1/6 844/1/6
f 845/1/5 846/1/5 847/1/5 848/1/5
f 849/1/6 850/1/6 851/1/6 852/1/6
f 853/1/5 854/1/5 855/1/5 856/1/5
f 857/1/6 858/1/6 859/1/6 860/1/6
f 861/1/2 862/1/2 863/1/2 864/1/2
f 865/1/4 866/1/4 867/1/4 868/1/4
f 869/1/5 870/1/5 871/1/5 872/1/5
f 873/1/6 874/1/6 875/1/6 876/1/6
f 877/1/1 878/1/1 879/1/1 880/1/1
f 881/1/5 882/1/5 883/1/5 884/1/5
f 885/1/6 886/1/6 887/1/6 888/1/6
f 889/1/5 890/1/5 891/1/5 892/1/5
f 893/1/6 894/1/6 895/1/6 896/1/6
f 897/1/5 898/1/5 899/1/5 900/1/5
f 901/1/6 902/1/6 903/1/6 904/1/6
f 905/1/5 906/1/5 907/1/5 908/1/5
f 909/1/6 910/1/6 911/1/6 912/1/6
f 913/1/5 914/1/5 915/1/5 916/1/5
f 917/1/6 918/1/6 919/1/6 920/1/6
f 921/1/5 922/1/5 923/1/5 924/1/5
f 925/1/6 926/1/6 927/1/6 928/1/6
f 929/1/5 930/1/5 931/1/5 932/1/5
f 933/1/6 934/1/6 935/1/6 936/1/6
f 937/1/5 938/1/5 939/1/5 940/1/5
f 941/1/6 942/1/6 943/1/6 944/1/6
f 945/1/2 946/1/2 947/1/2 948/1/2
f 949/1/4 950/1/4 951/1/4 952/1/4
f 953/1/5 954/1/5 955/1/5 956/1/5
f 957/1/6 958/1/6 959/1/6 960/1/6
f 961/1/1 962/1/1 963/1/1 964/1/1
f 965/1/5 966/1/5 967/1/5 968/1/5
f 969/1/6 970/1/6 971/1/6 972/1/6
f 973/1/5 974/1/5 975/1/5 976/1/5
f 977/1/6 978/1/6 979/1/6 980/1/6
f 981/1/5 982/1/5 983/1/5 984/1/5
f 985/1/6 986/1/6 987/1/6 988/1/6
f 989/1/5 990/1/5 991/1/5 992/1/5
f 993/1/6 994/1/6 995/1/6 996/1/6
f 997/1/5 998/1/5 999/1/5 1000/1/5
f 1001/1/6 1002/1/6 1003/1/6 1004/1/6
f 1005/1/5 1006/1/5 1007/1/5 1008/1/5
f 1009/1/6 1010/1/6 1011/1/6 1012/1/6
f 1013/1/5 1014/1/5 1015/1/5 1016/1/5
f 1017/1/6 1018/1/6 1019/1/6 1020/1/6
f 1021/1/2 1022/1/2 1023/1/2 1024/1/2
f 1025/1/4 1026/1/4 1027/1/4 1028/1/4
f 1029/1/5 1030/1/5 1031/1/5 1032/1/5
f 1033/1/6 1034/1/6 1035/1/6 1036/1/6
f 1037/1/1 1038/1/1 1039/1/1 1040/1/1
f 1041/1/5 1042/1/5 1043/1/5 1044/1/5
f 1045/1/6 1046/1/6 1047/1/6 1048/1/6
f 1049/1/5 1050/1/5 1051/1/5 1052/1/5
f 1053/1/6 1054/1/6 1055/1/6 1056/1/6
f 1057/1/5 1058/1/5 1059/1/5 1060/1/5
f 1061/1/6 1062/1/6 1063/1/6 1064/1/6
f 1065/1/5 1066/1/5 1067/1/5 1068/1/5
f 1069/1/6 1070/1/6 1071/1/6 1072/1/6
f 1073/1/5 1074/1/5 1075/1/5 1076/1/5
f 1077/1/6 1078/1/6 1079/1/6 1080/1/6
f 1081/1/5 1082/1/5 1083/1/5 1084/1/5
f 1085/1/6 1086/1/6 1087/1/6 1088/1/6
f 1089/1/2 1090/1/2 1091/1/2 1092/1/2
f 1093/1/4 1094/1/4 1095/1/4 1096/1/4
f 1097/1/5 1098/1/5 1099/1/5 1100/1/5
f 1101/1/6 1102/1/6 1103/1/6 1104/1/6
f 1105/1/1 1106/1/1 1107/1/1 1108/1/1
f 1109/1/5 1110/1/5 1111/1/5 1112/1/5
f 1113/1/6 1114/1/6 1115/1/6 1116/1/6
f 1117/1/5 1118/1/5 1119/1/5 1120/1/5
f 1121/1/6 1122/1/6 1123/1/6 1124/1/6
f 1125/1/5 1126/1/5 1127/1/5 1128/1/5
f 1129/1/6 1130/1/6 1131/1/6 1132/1/6
f 1133/1/5 1134/1/5 1135/1/5 1136/1/5
f 1137/1/6 1138/1/6 1139/1/6 1140/1/6
f 1141/1/5 1142/1/5 1143/1/5 1144/1/5
f 1145/1/6 1146/1/6 1147/1/6 1148/1/6
f 1149/1/2 1150/1/2 1151/1/2 1152/1/2
f 1153/1/4 1154/1/4 1155/1/4 1156/1/4
f 1157/1/5 1158/1/5 1159/1/5 1160/1/5
f 1161/1/6 1162/1/6 1163/1/6 1164/1/6
f 1165/1/1 1166/1/1 1167/1/1 1168/1/1
f 1169/1/5 1170/1/5 1171/1/5 1172/1/5
f 1173/1/6 1174/1/6 1175/1/6 1176/1/6
f 1177/1/5 1178/1/5 1179/1/5 1180/1/5
f 1181/1/6 1182/1/6 1183/1/6 1184/1/6
f 1185/1/5 1186/1/5 1187/1/5 1188/1/5
f 1189/1/6 1190/1/6 1191/1/6 1192/1/6
f 1193/1/5 1194/1/5 1195/1/5 1196/1/5
f 1197/1/6 1198/1/6 1199/1/6 1200/1/6
f 1201/1/2 1202/1/2 1203/1/2 1204/1/2
f 1205/1/4 1206/1/4 1207/1/4 1208/1/4
f 1209/1/5 1210/1/5 1211/1/5 1212/1/5
f 1213/1/6 1214/1/6 1215/1/6 1216/1/6
f 1217/1/1 1218/1/1 1219/1/1 1220/1/1
f 1221/1/4 1222/1/4 1223/1/4 1224/1/4
f 1225/1/5 1226/1/5 1227/1/5 1228/1/5
f 1229/1/6 1230/1/6 1231/1/6 1232/1/6
f 1233/1/5 1234/1/5 1235/1/5 1236/1/5
f 1237/1/6 1238/1/6 1239/1/6 1240/1/6
f 1241/1/5 1242/1/5 1243/1/5 1244/1/5
f 1245/1/6 1246/1/6 1247/1/6 1248/1/6
f 1249/1/2 1250/1/2 1251/1/2 1252/1/2
f 1253/1/4 1254/1/4 1255/1/4 1256/1/4
f 1257/1/5 1258/1/5 1259/1/5 1260/1/5
f 1261/1/6 1262/1/6 1263/1/6 1264/1/6
f 1265/1/1 1266/1/1 1267/1/1 1268/1/1
f 1269/1/5 1270/1/5 1271/1/5 1272/1/5
f 1273/1/6 1274/1/6 1275/1/6 1276/1/6
f 1277/1/2 1278/1/2 1279/1/2 1280/1/2
f 1281/1/4 1282/1/4 1283/1/4 1284/1/4
f 1285/1/5 1286/1/5 1287/1/5 1288/1/5
f 1289/1/6 1290/1/6 1291/1/6 1292/1/6
f 1293/1/1 1294/1/1 1295/1/1 1296/1/1
f 1297/1/2 1298/1/2 1299/1/2 1300/1/2
f 1301/1/4 1302/1/4 1303/1/4 1304/1/4
f 1305/1/5 1306/1/5 1307/1/5 1308/1/5
f 1309/1/6 1310/1/6 1311/1/6 1312/1/6
f 1313/1/1 1314/1/1 1315/1/1 1316/1/1
f 1317/1/2 1318/1/2 1319/1/2 1320/1/2
f 1321/1/3 1322/1/3 1323/1/3 1324/1/3
f 1325/1/5 1326/1/5 1327/1/5 1328/1/5
f 1329/1/6 1330/1/6 1331/1/6 1332/1/6
f 1333/1/1 1334/1/1 1335/1/1 1336/1/1
f 1337/1/2 1338/1/2 1339/1/2 1340/1/2
f 1341/1/5 1342/1/5 1343/1/5 1344/1/5
f 1345/1/6 1346/1/6 1347/1/6 1348/1/6
f 1349/1/1 1350/1/1 1351/1/1 1352/1/1
f 1353/1/3 1354/1/3 1355/1/3 1356/1/3
f 1357/1/5 1358/1/5 1359/1/5 1360/1/5
f 1361/1/6 1362/1/6 1363/1/6 1364/1/6
f 1365/1/2 1366/1/2 1367/1/2 1368/1/2
f 1369/1/5 1370/1/5 1371/1/5 1372/1/5
f 1373/1/6 1374/1/6 1375/1/6 1376/1/6
f 1377/1/1 1378/1/1 1379/1/1 1380/1/1
f 1381/1/5 1382/1/5 1383/1/5 1384/1/5
f 1385/1/6 1386/1/6 1387/1/6 1388/1/6
f 1389/1/2 1390/1/2 1391/1/2 1392/1/2
f 1393/1/4 1394/1/4 1395/1/4 1396/1/4
f 1397/1/5 1398/1/5 1399/1/5 1400/1/5
f 1401/1/6 1402/1/6 1403/1/6 1404/1/6
f 1405/1/1 1406/1/1 1407/1/1 1408/1/1
f 1409/1/3 1410/1/3 1411/1/3 1412/1/3
f 1413/1/5 1414/1/5 1415/1/5 1416/1/5
f 1417/1/6 1418/1/6 1419/1/6 1420/1/6
f 1421/1/2 1422/1/2 1423/1/2 1424/1/2
f 1425/1/5 1426/1/5 1427/1/5 1428/1/5
f 1429/1/6 1430/1/6 1431/1/6 1432/1/6
f 1433/1/1 1434/1/1 1435/1/1 1436/1/1
f 1437/1/3 1438/1/3 1439/1/3 1440/1/3
f 1441/1/5 1442/1/5 1443/1/5 1444/1/5
f 1445/1/6 1446/1/6 1447/1/6 1448/1/6
f 1449/1/5 1450/1/5 1451/1/5 1452/1/5
f 1453/1/6 1454/1/6 1455/1/6 1456/1/6
f 1457/1/2 1458/1/2 1459/1/2 1460/1/2
f 1461/1/4 1462/1/4 1463/1/4 1464/1/4
f 1465/1/5 1466/1/5 1467/1/5 1468/1/5
f 1469/1/6 1470/1/6 1471/1/6 1472/1/6
f 1473/1/1 1474/1/1 1475/1/1 1476/1/1
f 1477/1/3 1478/1/3 1479/1/3 1480/1/3
f 1481/1/5 1482/1/5 1483/1/5 1484/1/5
f 1485/1/6 1486/1/6 1487/1/6 1488/1/6
f 1489/1/3 1490/1/3 1491/1/3 1492/1/3
f 1493/1/5 1494/1/5 1495/1/5 1496/1/5
f 1497/1/6 1498/1/6 1499/1/6 1500/1/6
f 1501/1/5 1502/1/5 1503/1/5 1504/1/5
f 1505/1/6 1506/1/6 1507/1/6 1508/1/6
f 1509/1/2 1510/1/2 1511/1/2 1512/1/2
f 1513/1/4 1514/1/4 1515/1/4 1516/1/4
f 1517/1/5 1518/1/5 1519/1/5 1520/1/5
f 1521/1/6 1522/1/6 1523/1/6 1524/1/6
f 1525/1/1 1526/1/1 1527/1/1 1528/1/1
f 1529/1/3 1530/1/3 1531/1/3 1532/1/3
f 1533/1/5 1534/1/5 1535/1/5 1536/1/5
f 1537/1/6 1538/1/6 1539/1/6 1540/1/6
f 1541/1/3 1542/1/3 1543/1/3 1544/1/3
f 1545/1/5 1546/1/5 1547/1/5 1548/1/5
f 1549/1/6 1550/1/6 1551/1/6 1552/1/6
f 1553/1/5 1554/1/5 1555/1/5 1556/1/5
f 1557/1/6 1558/1/6 1559/1/6 1560/1/6
f 1561/1/4 1562/1/4 1563/1/4 1564/1/4
f 1565/1/5 1566/1/5 1567/1/5 1568/1/5
f 1569/1/6 1570/1/6 1571/1/6 1572/1/6
f 1573/1/2 1574/1/2 1575/1/2 1576/1/2
f 1577/1/4 1578/1/4 1579/1/4 1580/1/4
f 1581/1/5 1582/1/5 1583/1/5 1584/1/5
f 1585/1/6 1586/1/6 1587/1/6 1588/1/6
f 1589/1/1 1590/1/1 1591/1/1 1592/1/1
f 1593/1/3 1594/1/3 1595/1/3 1596/1/3
f 1597/1/4 1598/1/4 1599/1/4 1600/1/4
f 1601/1/5 1602/1/5 1603/1/5 1604/1/5
f 1605/1/6 1606/1/6 1607/1/6 1608/1/6
f 1609/1/3 1610/1/3 1611/1/3 1612/1/3
f 1613/1/4 1614/1/4 1615/1/4 1616/1/4
f 1617/1/5 1618/1/5 1619/1/5 1620/1/5
f 1621/1/6 1622/1/6 1623/1/6 1624/1/6
f 1625/1/3 1626/1/3 1627/1/3 1628/1/3
f 1629/1/4 1630/1/4 1631/1/4 1632/1/4
f 1633/1/5 1634/1/5 1635/1/5 1636/1/5
f 1637/1/6 1638/1/6 1639/1/6 1640/1/6
f 1641/1/4 1642/1/4 1643/1/4 1644/1/4
f 1645/1/5 1646/1/5 1647/1/5 1648/1/5
f 1649/1/6 1650/1/6 1651/1/6 1652/1/6
f 1653/1/4 1654/1/4 1655/1/4 1656/1/4
f 1657/1/5 1658/1/5 1659/1/5 1660/1/5
f 1661/1/6 1662/1/6 1663/1/6 1664/1/6
f 1665/1/2 1666/1/2 1667/1/2 1668/1/2
f 1669/1/4 1670/1/4 1671/1/4 1672/1/4
f 1673/1/5 1674/1/5 1675/1/5 1676/1/5
f 1677/1/6 1678/1/6 1679/1/6 1680/1/6

