# generated by vox_to_obj_exporter --round
# scale=0.1 center=false ground=false y_up=true
# welded, edge-relaxed, smooth vertex normals

mtllib Fight_761.mtl
usemtl palette

# verts
v 9.12167 3.37833 -2.57833
v 9.12167 3.32167 -2.57833
v 9.12167 3.32167 -2.52167
v 9.12167 3.37833 -2.52167
v 9.17833 3.37833 -2.52167
v 9.2 3.3 -2.513
v 9.2 3.3 -2.587
v 9.17833 3.37833 -2.57833
v 9.12167 4.57833 -2.57833
v 9.12167 4.52167 -2.57833
v 9.12167 4.52167 -2.52167
v 9.12167 4.57833 -2.52167
v 9.17833 4.57833 -2.52167
v 9.2 4.5 -2.513
v 9.2 4.5 -2.587
v 9.17833 4.57833 -2.57833
v 9.12167 5.77833 -2.57833
v 9.12167 5.72167 -2.57833
v 9.12167 5.72167 -2.52167
v 9.12167 5.77833 -2.52167
v 9.17833 5.77833 -2.52167
v 9.2 5.7 -2.513
v 9.2 5.7 -2.587
v 9.17833 5.77833 -2.57833
v 9.21625 3.2 -2.58375
v 9.22167 3.12167 -2.57833
v 9.22167 3.12167 -2.52167
v 9.21625 3.2 -2.51625
v 9.3 3.1 -2.587
v 9.3 3.1 -2.513
v 9.3 3.2 -2.5
v 9.3 3.2 -2.6
v 9.3 3.28375 -2.51625
v 9.3 3.28375 -2.58375
v 9.21625 4.4 -2.58375
v 9.22167 4.32167 -2.57833
v 9.22167 4.32167 -2.52167
v 9.21625 4.4 -2.51625
v 9.3 4.3 -2.587
v 9.3 4.3 -2.513
v 9.3 4.4 -2.5
v 9.3 4.4 -2.6
v 9.3 4.48375 -2.51625
v 9.3 4.48375 -2.58375
v 9.21625 5.6 -2.58375
v 9.22167 5.52167 -2.57833
v 9.22167 5.52167 -2.52167
v 9.21625 5.6 -2.51625
v 9.3 5.5 -2.587
v 9.3 5.5 -2.513
v 9.3 5.6 -2.5
v 9.3 5.6 -2.6
v 9.3 5.68375 -2.51625
v 9.3 5.68375 -2.58375
v 9.32167 3.02167 -2.57833
v 9.32167 3.02167 -2.52167
v 9.4 3 -2.587
v 9.4 3 -2.513
v 9.4 3.1 -2.5
v 9.4 3.1 -2.6
v 9.4 3.2 -2.513
v 9.4 3.2 -2.587
v 9.37833 3.27833 -2.52167
v 9.37833 3.27833 -2.57833
v 9.32167 4.22167 -2.57833
v 9.32167 4.22167 -2.52167
v 9.4 4.2 -2.587
v 9.4 4.2 -2.513
v 9.4 4.3 -2.5
v 9.4 4.3 -2.6
v 9.4 4.4 -2.513
v 9.4 4.4 -2.587
v 9.37833 4.47833 -2.52167
v 9.37833 4.47833 -2.57833
v 9.32167 5.42167 -2.57833
v 9.32167 5.42167 -2.52167
v 9.4 5.4 -2.587
v 9.4 5.4 -2.513
v 9.4 5.5 -2.5
v 9.4 5.5 -2.6
v 9.4 5.6 -2.513
v 9.4 5.6 -2.587
v 9.37833 5.67833 -2.52167
v 9.37833 5.67833 -2.57833
v 9.42167 2.92167 -2.57833
v 9.42167 2.92167 -2.52167
v 9.5 2.9 -2.587
v 9.5 2.9 -2.513
v 9.5 3 -2.5
v 9.5 3 -2.6
v 9.5 3.1 -2.513
v 9.5 3.1 -2.587
v 9.47833 3.17833 -2.52167
v 9.47833 3.17833 -2.57833
v 9.42167 4.12167 -2.57833
v 9.42167 4.12167 -2.52167
v 9.5 4.1 -2.587
v 9.5 4.1 -2.513
v 9.5 4.2 -2.5
v 9.5 4.2 -2.6
v 9.5 4.3 -2.513
v 9.5 4.3 -2.587
v 9.47833 4.37833 -2.52167
v 9.47833 4.37833 -2.57833
v 9.42167 5.32167 -2.57833
v 9.42167 5.32167 -2.52167
v 9.5 5.3 -2.587
v 9.5 5.3 -2.513
v 9.5 5.4 -2.5
v 9.5 5.4 -2.6
v 9.5 5.5 -2.513
v 9.5 5.5 -2.587
v 9.47833 5.57833 -2.52167
v 9.47833 5.57833 -2.57833
v 9.52167 2.82167 -2.57833
v 9.52167 2.82167 -2.52167
v 9.6 2.8 -2.587
v 9.6 2.8 -2.513
v 9.6 2.9 -2.5
v 9.6 2.9 -2.6
v 9.6 3 -2.513
v 9.6 3 -2.587
v 9.57833 3.07833 -2.52167
v 9.57833 3.07833 -2.57833
v 9.52167 4.02167 -2.57833
v 9.52167 4.02167 -2.52167
v 9.6 4 -2.587
v 9.6 4 -2.513
v 9.6 4.1 -2.5
v 9.6 4.1 -2.6
v 9.6 4.2 -2.513
v 9.6 4.2 -2.587
v 9.57833 4.27833 -2.52167
v 9.57833 4.27833 -2.57833
v 9.52167 5.22167 -2.57833
v 9.52167 5.22167 -2.52167
v 9.6 5.2 -2.587
v 9.6 5.2 -2.513
v 9.6 5.3 -2.5
v 9.6 5.3 -2.6
v 9.6 5.4 -2.513
v 9.6 5.4 -2.587
v 9.57833 5.47833 -2.52167
v 9.57833 5.47833 -2.57833
v 9.62167 2.72167 -2.57833
v 9.62167 2.72167 -2.52167
v 9.7 2.71625 -2.58375
v 9.7 2.71625 -2.51625
v 9.7 2.8 -2.5
v 9.7 2.8 -2.6
v 9.7 2.9 -2.513
v 9.7 2.9 -2.587
v 9.67833 2.97833 -2.52167
v 9.67833 2.97833 -2.57833
v 9.62167 3.92167 -2.57833
v 9.62167 3.92167 -2.52167
v 9.7 3.91625 -2.58375
v 9.7 3.91625 -2.51625
v 9.7 4 -2.5
v 9.7 4 -2.6
v 9.7 4.1 -2.513
v 9.7 4.1 -2.587
v 9.67833 4.17833 -2.52167
v 9.67833 4.17833 -2.57833
v 9.62167 5.12167 -2.57833
v 9.62167 5.12167 -2.52167
v 9.7 5.11625 -2.58375
v 9.7 5.11625 -2.51625
v 9.7 5.2 -2.5
v 9.7 5.2 -2.6
v 9.7 5.3 -2.513
v 9.7 5.3 -2.587
v 9.67833 5.37833 -2.52167
v 9.67833 5.37833 -2.57833
v 9.8 2.7 -2.587
v 9.8 2.7 -2.513
v 9.8 2.8 -2.5
v 9.8 2.8 -2.6
v 9.8 2.88375 -2.51625
v 9.8 2.88375 -2.58375
v 9.8 3.9 -2.587
v 9.8 3.9 -2.513
v 9.8 4 -2.5
v 9.8 4 -2.6
v 9.8 4.08375 -2.51625
v 9.8 4.08375 -2.58375
v 9.8 5.1 -2.587
v 9.8 5.1 -2.513
v 9.8 5.2 -2.5
v 9.8 5.2 -2.6
v 9.8 5.28375 -2.51625
v 9.8 5.28375 -2.58375
v 9.82167 2.62167 -2.57833
v 9.82167 2.62167 -2.52167
v 9.9 2.7 -2.513
v 9.87833 2.62167 -2.52167
v 9.87833 2.62167 -2.57833
v 9.9 2.7 -2.587
v 9.9 2.8 -2.513
v 9.9 2.8 -2.587
v 9.87833 2.87833 -2.52167
v 9.87833 2.87833 -2.57833
v 9.82167 3.82167 -2.57833
v 9.82167 3.82167 -2.52167
v 9.9 3.9 -2.513
v 9.87833 3.82167 -2.52167
v 9.87833 3.82167 -2.57833
v 9.9 3.9 -2.587
v 9.9 4 -2.513
v 9.9 4 -2.587
v 9.87833 4.07833 -2.52167
v 9.87833 4.07833 -2.57833
v 9.82167 5.02167 -2.57833
v 9.82167 5.02167 -2.52167
v 9.9 5.1 -2.513
v 9.87833 5.02167 -2.52167
v 9.87833 5.02167 -2.57833
v 9.9 5.1 -2.587
v 9.9 5.2 -2.513
v 9.9 5.2 -2.587
v 9.87833 5.27833 -2.52167
v 9.87833 5.27833 -2.57833
v 9.97833 2.77833 -2.52167
v 9.97833 2.72167 -2.52167
v 9.97833 2.72167 -2.57833
v 9.97833 2.77833 -2.57833
v 9.97833 3.97833 -2.52167
v 9.97833 3.92167 -2.52167
v 9.97833 3.92167 -2.57833
v 9.97833 3.97833 -2.57833
v 9.97833 5.17833 -2.52167
v 9.97833 5.12167 -2.52167
v 9.97833 5.12167 -2.57833
v 9.97833 5.17833 -2.57833

# texcoords
vt 0.02148 0.5
vt 0.02539 0.5
vt 0.0293 0.5

# normals
vn -1 0 -0
vn 0.9638 0.2666 -0
vn 0 1 -0
vn -0.2666 -0.9638 -0
vn -0.0552 0.0552 0.997
vn -0.0599 0.0599 0.9964
vn -0.0552 0.0552 -0.997
vn -0.0599 0.0599 -0.9964
vn -0.9934 -0.1148 -0
vn -0.9976 -0.069 -0
vn -0.7071 -0.7071 -0
vn -0.1154 -0.0209 0.9931
vn -0.1649 -0.1063 0.9806
vn -0.1007 -0.081 0.9916
vn -0.0312 0.0312 0.999
vn -0.0312 0.0312 -0.999
vn -0.1007 -0.081 -0.9916
vn -0.1649 -0.1063 -0.9806
vn -0.1154 -0.0209 -0.9931
vn -0.9871 -0.1604 -0
vn 0.1604 0.9871 -0
vn 0.1148 0.9934 -0
vn 0.0209 0.1154 0.9931
vn 0.0209 0.1154 -0.9931
vn -0.1357 -0.1357 0.9814
vn -0.0909 -0.0909 0.9917
vn -0 -0 1
vn 0 0 -1
vn -0.0909 -0.0909 -0.9917
vn -0.1357 -0.1357 -0.9814
vn 0.081 0.1007 0.9916
vn 0.081 0.1007 -0.9916
vn 0.7071 0.7071 -0
vn 0.069 0.9976 -0
vn 0.1063 0.1649 0.9806
vn 0.1063 0.1649 -0.9806
vn 0.0909 0.0909 0.9917
vn 0.0909 0.0909 -0.9917
vn 0.1357 0.1357 0.9814
vn 0.1357 0.1357 -0.9814
vn -0.081 -0.1007 0.9916
vn -0.081 -0.1007 -0.9916
vn -0.9638 -0.2666 -0
vn -0.069 -0.9976 -0
vn -0.1148 -0.9934 -0
vn -0.1063 -0.1649 0.9806
vn -0.0676 -0.1612 0.9846
vn -0.0268 -0.0417 0.9988
vn -0.0268 -0.0417 -0.9988
vn -0.0676 -0.1612 -0.9846
vn -0.1063 -0.1649 -0.9806
vn 0.0551 0.098 0.9937
vn 0.0551 0.098 -0.9937
vn -0.1604 -0.9871 -0
vn 0.012 -0.1108 0.9938
vn 0.0432 0.0253 0.9987
vn 0.0432 0.0253 -0.9987
vn 0.012 -0.1108 -0.9938
vn 0.0676 0.1612 0.9846
vn 0.0676 0.1612 -0.9846
vn 0.7071 -0.7071 -0
vn 0.9638 -0.2666 -0
vn 0 -1 -0
vn 0 -0.11 0.9939
vn 0.0584 -0.0584 0.9966
vn 0.0584 -0.0584 -0.9966
vn 0 -0.11 -0.9939
vn 0.0941 0.0336 0.995
vn 0.0941 0.0336 -0.995
vn 1 0 -0
vn 0.2666 0.9638 -0
vn 0.2666 -0.9638 -0
vn 0.11 0 0.9939
vn 0.11 0 -0.9939

# faces
f 1/1/1 2/1/1 3/1/1
f 1/1/1 3/1/1 4/1/1
f 6/1/2 7/1/2 8/1/2
f 6/1/2 8/1/2 5/1/2
f 1/1/3 4/1/3 5/1/3
f 1/1/3 5/1/3 8/1/3
f 2/1/4 7/1/4 6/1/4
f 2/1/4 6/1/4 3/1/4
f 3/1/5 6/1/6 5/1/5
f 3/1/5 5/1/5 4/1/5
f 8/1/7 7/1/8 2/1/7
f 8/1/7 2/1/7 1/1/7
f 9/1/1 10/1/1 11/1/1
f 9/1/1 11/1/1 12/1/1
f 14/1/2 15/1/2 16/1/2
f 14/1/2 16/1/2 13/1/2
f 9/1/3 12/1/3 13/1/3
f 9/1/3 13/1/3 16/1/3
f 10/1/4 15/1/4 14/1/4
f 10/1/4 14/1/4 11/1/4
f 11/1/5 14/1/6 13/1/5
f 11/1/5 13/1/5 12/1/5
f 16/1/7 15/1/8 10/1/7
f 16/1/7 10/1/7 9/1/7
f 17/1/1 18/1/1 19/1/1
f 17/1/1 19/1/1 20/1/1
f 22/1/2 23/1/2 24/1/2
f 22/1/2 24/1/2 21/1/2
f 17/1/3 20/1/3 21/1/3
f 17/1/3 21/1/3 24/1/3
f 18/1/4 23/1/4 22/1/4
f 18/1/4 22/1/4 19/1/4
f 19/1/5 22/1/6 21/1/5
f 19/1/5 21/1/5 20/1/5
f 24/1/7 23/1/8 18/1/7
f 24/1/7 18/1/7 17/1/7
f 26/1/10 27/1/10 28/1/9
f 26/1/10 28/1/9 25/1/9
f 26/1/4 29/1/11 30/1/11
f 26/1/4 30/1/11 27/1/4
f 27/1/13 30/1/14 31/1/15
f 27/1/13 31/1/15 28/1/12
f 32/1/16 29/1/17 26/1/18
f 32/1/16 26/1/18 25/1/19
f 25/1/9 28/1/9 6/1/20
f 25/1/9 6/1/20 7/1/20
f 6/1/21 33/1/22 34/1/22
f 6/1/21 34/1/22 7/1/21
f 28/1/12 31/1/15 33/1/23
f 28/1/12 33/1/23 6/1/6
f 34/1/24 32/1/16 25/1/19
f 34/1/24 25/1/19 7/1/8
f 36/1/10 37/1/10 38/1/9
f 36/1/10 38/1/9 35/1/9
f 36/1/4 39/1/11 40/1/11
f 36/1/4 40/1/11 37/1/4
f 37/1/13 40/1/14 41/1/15
f 37/1/13 41/1/15 38/1/12
f 42/1/16 39/1/17 36/1/18
f 42/1/16 36/1/18 35/1/19
f 35/1/9 38/1/9 14/1/20
f 35/1/9 14/1/20 15/1/20
f 14/1/21 43/1/22 44/1/22
f 14/1/21 44/1/22 15/1/21
f 38/1/12 41/1/15 43/1/23
f 38/1/12 43/1/23 14/1/6
f 44/1/24 42/1/16 35/1/19
f 44/1/24 35/1/19 15/1/8
f 46/1/10 47/1/10 48/1/9
f 46/1/10 48/1/9 45/1/9
f 46/1/4 49/1/11 50/1/11
f 46/1/4 50/1/11 47/1/4
f 47/1/13 50/1/14 51/1/15
f 47/1/13 51/1/15 48/1/12
f 52/1/16 49/1/17 46/1/18
f 52/1/16 46/1/18 45/1/19
f 45/1/9 48/1/9 22/1/20
f 45/1/9 22/1/20 23/1/20
f 22/1/21 53/1/22 54/1/22
f 22/1/21 54/1/22 23/1/21
f 48/1/12 51/1/15 53/1/23
f 48/1/12 53/1/23 22/1/6
f 54/1/24 52/1/16 45/1/19
f 54/1/24 45/1/19 23/1/8
f 55/1/11 56/1/11 30/1/11
f 55/1/11 30/1/11 29/1/11
f 55/1/11 57/1/11 58/1/11
f 55/1/11 58/1/11 56/1/11
f 56/1/25 58/1/26 59/1/27
f 56/1/25 59/1/27 30/1/14
f 60/1/28 57/1/29 55/1/30
f 60/1/28 55/1/30 29/1/17
f 31/2/15 30/2/14 59/2/27
f 31/2/15 59/2/27 61/2/31
f 62/2/32 60/2/28 29/2/17
f 62/2/32 29/2/17 32/2/16
f 61/1/33 62/1/33 64/1/2
f 61/1/33 64/1/2 63/1/2
f 33/1/22 63/1/34 64/1/34
f 33/1/22 64/1/34 34/1/22
f 31/1/15 61/1/31 63/1/35
f 31/1/15 63/1/35 33/1/23
f 64/1/36 62/1/32 32/1/16
f 64/1/36 32/1/16 34/1/24
f 65/1/11 66/1/11 40/1/11
f 65/1/11 40/1/11 39/1/11
f 65/1/11 67/1/11 68/1/11
f 65/1/11 68/1/11 66/1/11
f 66/1/25 68/1/26 69/1/27
f 66/1/25 69/1/27 40/1/14
f 70/1/28 67/1/29 65/1/30
f 70/1/28 65/1/30 39/1/17
f 41/2/15 40/2/14 69/2/27
f 41/2/15 69/2/27 71/2/31
f 72/2/32 70/2/28 39/2/17
f 72/2/32 39/2/17 42/2/16
f 71/1/33 72/1/33 74/1/2
f 71/1/33 74/1/2 73/1/2
f 43/1/22 73/1/34 74/1/34
f 43/1/22 74/1/34 44/1/22
f 41/1/15 71/1/31 73/1/35
f 41/1/15 73/1/35 43/1/23
f 74/1/36 72/1/32 42/1/16
f 74/1/36 42/1/16 44/1/24
f 75/1/11 76/1/11 50/1/11
f 75/1/11 50/1/11 49/1/11
f 75/1/11 77/1/11 78/1/11
f 75/1/11 78/1/11 76/1/11
f 76/1/25 78/1/26 79/1/27
f 76/1/25 79/1/27 50/1/14
f 80/1/28 77/1/29 75/1/30
f 80/1/28 75/1/30 49/1/17
f 51/2/15 50/2/14 79/2/27
f 51/2/15 79/2/27 81/2/31
f 82/2/32 80/2/28 49/2/17
f 82/2/32 49/2/17 52/2/16
f 81/1/33 82/1/33 84/1/2
f 81/1/33 84/1/2 83/1/2
f 53/1/22 83/1/34 84/1/34
f 53/1/22 84/1/34 54/1/22
f 51/1/15 81/1/31 83/1/35
f 51/1/15 83/1/35 53/1/23
f 84/1/36 82/1/32 52/1/16
f 84/1/36 52/1/16 54/1/24
f 85/2/11 86/2/11 58/2/11
f 85/2/11 58/2/11 57/2/11
f 85/2/11 87/2/11 88/2/11
f 85/2/11 88/2/11 86/2/11
f 86/2/25 88/2/26 89/2/27
f 86/2/25 89/2/27 58/2/26
f 90/2/28 87/2/29 85/2/30
f 90/2/28 85/2/30 57/2/29
f 59/2/27 58/2/26 89/2/27
f 59/2/27 89/2/27 91/2/37
f 92/2/38 90/2/28 57/2/29
f 92/2/38 57/2/29 60/2/28
f 91/1/33 92/1/33 94/1/33
f 91/1/33 94/1/33 93/1/33
f 61/1/33 93/1/33 94/1/33
f 61/1/33 94/1/33 62/1/33
f 59/1/27 91/1/37 93/1/39
f 59/1/27 93/1/39 61/1/31
f 94/1/40 92/1/38 60/1/28
f 94/1/40 60/1/28 62/1/32
f 95/2/11 96/2/11 68/2/11
f 95/2/11 68/2/11 67/2/11
f 95/2/11 97/2/11 98/2/11
f 95/2/11 98/2/11 96/2/11
f 96/2/25 98/2/26 99/2/27
f 96/2/25 99/2/27 68/2/26
f 100/2/28 97/2/29 95/2/30
f 100/2/28 95/2/30 67/2/29
f 69/2/27 68/2/26 99/2/27
f 69/2/27 99/2/27 101/2/37
f 102/2/38 100/2/28 67/2/29
f 102/2/38 67/2/29 70/2/28
f 101/1/33 102/1/33 104/1/33
f 101/1/33 104/1/33 103/1/33
f 71/1/33 103/1/33 104/1/33
f 71/1/33 104/1/33 72/1/33
f 69/1/27 101/1/37 103/1/39
f 69/1/27 103/1/39 71/1/31
f 104/1/40 102/1/38 70/1/28
f 104/1/40 70/1/28 72/1/32
f 105/2/11 106/2/11 78/2/11
f 105/2/11 78/2/11 77/2/11
f 105/2/11 107/2/11 108/2/11
f 105/2/11 108/2/11 106/2/11
f 106/2/25 108/2/26 109/2/27
f 106/2/25 109/2/27 78/2/26
f 110/2/28 107/2/29 105/2/30
f 110/2/28 105/2/30 77/2/29
f 79/2/27 78/2/26 109/2/27
f 79/2/27 109/2/27 111/2/37
f 112/2/38 110/2/28 77/2/29
f 112/2/38 77/2/29 80/2/28
f 111/1/33 112/1/33 114/1/33
f 111/1/33 114/1/33 113/1/33
f 81/1/33 113/1/33 114/1/33
f 81/1/33 114/1/33 82/1/33
f 79/1/27 111/1/37 113/1/39
f 79/1/27 113/1/39 81/1/31
f 114/1/40 112/1/38 80/1/28
f 114/1/40 80/1/28 82/1/32
f 115/2/11 116/2/11 88/2/11
f 115/2/11 88/2/11 87/2/11
f 115/2/11 117/2/11 118/2/11
f 115/2/11 118/2/11 116/2/11
f 116/2/25 118/2/41 119/2/27
f 116/2/25 119/2/27 88/2/26
f 120/2/28 117/2/42 115/2/30
f 120/2/28 115/2/30 87/2/29
f 89/2/27 88/2/26 119/2/27
f 89/2/27 119/2/27 121/2/37
f 122/2/38 120/2/28 87/2/29
f 122/2/38 87/2/29 90/2/28
f 121/2/33 122/2/33 124/2/33
f 121/2/33 124/2/33 123/2/33
f 91/2/33 123/2/33 124/2/33
f 91/2/33 124/2/33 92/2/33
f 89/2/27 121/2/37 123/2/39
f 89/2/27 123/2/39 91/2/37
f 124/2/40 122/2/38 90/2/28
f 124/2/40 90/2/28 92/2/38
f 125/2/11 126/2/11 98/2/11
f 125/2/11 98/2/11 97/2/11
f 125/2/11 127/2/11 128/2/11
f 125/2/11 128/2/11 126/2/11
f 126/2/25 128/2/41 129/2/27
f 126/2/25 129/2/27 98/2/26
f 130/2/28 127/2/42 125/2/30
f 130/2/28 125/2/30 97/2/29
f 99/2/27 98/2/26 129/2/27
f 99/2/27 129/2/27 131/2/37
f 132/2/38 130/2/28 97/2/29
f 132/2/38 97/2/29 100/2/28
f 131/2/33 132/2/33 134/2/33
f 131/2/33 134/2/33 133/2/33
f 101/2/33 133/2/33 134/2/33
f 101/2/33 134/2/33 102/2/33
f 99/2/27 131/2/37 133/2/39
f 99/2/27 133/2/39 101/2/37
f 134/2/40 132/2/38 100/2/28
f 134/2/40 100/2/28 102/2/38
f 135/2/11 136/2/11 108/2/11
f 135/2/11 108/2/11 107/2/11
f 135/2/11 137/2/11 138/2/11
f 135/2/11 138/2/11 136/2/11
f 136/2/25 138/2/41 139/2/27
f 136/2/25 139/2/27 108/2/26
f 140/2/28 137/2/42 135/2/30
f 140/2/28 135/2/30 107/2/29
f 109/2/27 108/2/26 139/2/27
f 109/2/27 139/2/27 141/2/37
f 142/2/38 140/2/28 107/2/29
f 142/2/38 107/2/29 110/2/28
f 141/2/33 142/2/33 144/2/33
f 141/2/33 144/2/33 143/2/33
f 111/2/33 143/2/33 144/2/33
f 111/2/33 144/2/33 112/2/33
f 109/2/27 141/2/37 143/2/39
f 109/2/27 143/2/39 111/2/37
f 144/2/40 142/2/38 110/2/28
f 144/2/40 110/2/28 112/2/38
f 145/2/43 146/2/43 118/2/11
f 145/2/43 118/2/11 117/2/11
f 145/2/44 147/2/45 148/2/45
f 145/2/44 148/2/45 146/2/44
f 146/2/46 148/2/47 149/2/48
f 146/2/46 149/2/48 118/2/41
f 150/2/49 147/2/50 145/2/51
f 150/2/49 145/2/51 117/2/42
f 119/3/27 118/3/41 149/3/48
f 119/3/27 149/3/48 151/3/52
f 152/3/53 150/3/49 117/3/42
f 152/3/53 117/3/42 120/3/28
f 151/2/2 152/2/2 154/2/33
f 151/2/2 154/2/33 153/2/33
f 121/2/33 153/2/33 154/2/33
f 121/2/33 154/2/33 122/2/33
f 119/2/27 151/2/52 153/2/39
f 119/2/27 153/2/39 121/2/37
f 154/2/40 152/2/53 120/2/28
f 154/2/40 120/2/28 122/2/38
f 155/2/43 156/2/43 128/2/11
f 155/2/43 128/2/11 127/2/11
f 155/2/44 157/2/45 158/2/45
f 155/2/44 158/2/45 156/2/44
f 156/2/46 158/2/47 159/2/48
f 156/2/46 159/2/48 128/2/41
f 160/2/49 157/2/50 155/2/51
f 160/2/49 155/2/51 127/2/42
f 129/3/27 128/3/41 159/3/48
f 129/3/27 159/3/48 161/3/52
f 162/3/53 160/3/49 127/3/42
f 162/3/53 127/3/42 130/3/28
f 161/2/2 162/2/2 164/2/33
f 161/2/2 164/2/33 163/2/33
f 131/2/33 163/2/33 164/2/33
f 131/2/33 164/2/33 132/2/33
f 129/2/27 161/2/52 163/2/39
f 129/2/27 163/2/39 131/2/37
f 164/2/40 162/2/53 130/2/28
f 164/2/40 130/2/28 132/2/38
f 165/2/43 166/2/43 138/2/11
f 165/2/43 138/2/11 137/2/11
f 165/2/44 167/2/45 168/2/45
f 165/2/44 168/2/45 166/2/44
f 166/2/46 168/2/47 169/2/48
f 166/2/46 169/2/48 138/2/41
f 170/2/49 167/2/50 165/2/51
f 170/2/49 165/2/51 137/2/42
f 139/3/27 138/3/41 169/3/48
f 139/3/27 169/3/48 171/3/52
f 172/3/53 170/3/49 137/3/42
f 172/3/53 137/3/42 140/3/28
f 171/2/2 172/2/2 174/2/33
f 171/2/2 174/2/33 173/2/33
f 141/2/33 173/2/33 174/2/33
f 141/2/33 174/2/33 142/2/33
f 139/2/27 171/2/52 173/2/39
f 139/2/27 173/2/39 141/2/37
f 174/2/40 172/2/53 140/2/28
f 174/2/40 140/2/28 142/2/38
f 147/3/45 175/3/54 176/3/54
f 147/3/45 176/3/54 148/3/45
f 148/3/47 176/3/55 177/3/56
f 148/3/47 177/3/56 149/3/48
f 178/3/57 175/3/58 147/3/50
f 178/3/57 147/3/50 150/3/49
f 151/3/21 179/3/22 180/3/22
f 151/3/21 180/3/22 152/3/21
f 149/3/48 177/3/56 179/3/59
f 149/3/48 179/3/59 151/3/52
f 180/3/60 178/3/57 150/3/49
f 180/3/60 150/3/49 152/3/53
f 157/3/45 181/3/54 182/3/54
f 157/3/45 182/3/54 158/3/45
f 158/3/47 182/3/55 183/3/56
f 158/3/47 183/3/56 159/3/48
f 184/3/57 181/3/58 157/3/50
f 184/3/57 157/3/50 160/3/49
f 161/3/21 185/3/22 186/3/22
f 161/3/21 186/3/22 162/3/21
f 159/3/48 183/3/56 185/3/59
f 159/3/48 185/3/59 161/3/52
f 186/3/60 184/3/57 160/3/49
f 186/3/60 160/3/49 162/3/53
f 167/3/45 187/3/54 188/3/54
f 167/3/45 188/3/54 168/3/45
f 168/3/47 188/3/55 189/3/56
f 168/3/47 189/3/56 169/3/48
f 190/3/57 187/3/58 167/3/50
f 190/3/57 167/3/50 170/3/49
f 171/3/21 191/3/22 192/3/22
f 171/3/21 192/3/22 172/3/21
f 169/3/48 189/3/56 191/3/59
f 169/3/48 191/3/59 171/3/52
f 192/3/60 190/3/57 170/3/49
f 192/3/60 170/3/49 172/3/53
f 193/3/43 194/3/43 176/3/43
f 193/3/43 176/3/43 175/3/43
f 195/3/61 196/3/62 197/3/62
f 195/3/61 197/3/62 198/3/61
f 194/3/63 193/3/63 197/3/63
f 194/3/63 197/3/63 196/3/63
f 176/3/55 194/3/64 196/3/64
f 176/3/55 196/3/64 195/3/65
f 198/3/66 197/3/67 193/3/67
f 198/3/66 193/3/67 175/3/58
f 176/3/55 195/3/65 199/3/68
f 176/3/55 199/3/68 177/3/56
f 200/3/69 198/3/66 175/3/58
f 200/3/69 175/3/58 178/3/57
f 199/3/33 200/3/33 202/3/2
f 199/3/33 202/3/2 201/3/2
f 179/3/22 201/3/34 202/3/34
f 179/3/22 202/3/34 180/3/22
f 177/3/56 199/3/68 201/3/35
f 177/3/56 201/3/35 179/3/59
f 202/3/36 200/3/69 178/3/57
f 202/3/36 178/3/57 180/3/60
f 203/3/43 204/3/43 182/3/43
f 203/3/43 182/3/43 181/3/43
f 205/3/61 206/3/62 207/3/62
f 205/3/61 207/3/62 208/3/61
f 204/3/63 203/3/63 207/3/63
f 204/3/63 207/3/63 206/3/63
f 182/3/55 204/3/64 206/3/64
f 182/3/55 206/3/64 205/3/65
f 208/3/66 207/3/67 203/3/67
f 208/3/66 203/3/67 181/3/58
f 182/3/55 205/3/65 209/3/68
f 182/3/55 209/3/68 183/3/56
f 210/3/69 208/3/66 181/3/58
f 210/3/69 181/3/58 184/3/57
f 209/3/33 210/3/33 212/3/2
f 209/3/33 212/3/2 211/3/2
f 185/3/22 211/3/34 212/3/34
f 185/3/22 212/3/34 186/3/22
f 183/3/56 209/3/68 211/3/35
f 183/3/56 211/3/35 185/3/59
f 212/3/36 210/3/69 184/3/57
f 212/3/36 184/3/57 186/3/60
f 213/3/43 214/3/43 188/3/43
f 213/3/43 188/3/43 187/3/43
f 215/3/61 216/3/62 217/3/62
f 215/3/61 217/3/62 218/3/61
f 214/3/63 213/3/63 217/3/63
f 214/3/63 217/3/63 216/3/63
f 188/3/55 214/3/64 216/3/64
f 188/3/55 216/3/64 215/3/65
f 218/3/66 217/3/67 213/3/67
f 218/3/66 213/3/67 187/3/58
f 188/3/55 215/3/65 219/3/68
f 188/3/55 219/3/68 189/3/56
f 220/3/69 218/3/66 187/3/58
f 220/3/69 187/3/58 190/3/57
f 219/3/33 220/3/33 222/3/2
f 219/3/33 222/3/2 221/3/2
f 191/3/22 221/3/34 222/3/34
f 191/3/22 222/3/34 192/3/22
f 189/3/56 219/3/68 221/3/35
f 189/3/56 221/3/35 191/3/59
f 222/3/36 220/3/69 190/3/57
f 222/3/36 190/3/57 192/3/60
f 223/3/70 224/3/70 225/3/70
f 223/3/70 225/3/70 226/3/70
f 199/3/33 223/3/71 226/3/71
f 199/3/33 226/3/71 200/3/33
f 195/3/61 198/3/61 225/3/72
f 195/3/61 225/3/72 224/3/72
f 195/3/65 224/3/73 223/3/73
f 195/3/65 223/3/73 199/3/68
f 226/3/74 225/3/74 198/3/66
f 226/3/74 198/3/66 200/3/69
f 227/3/70 228/3/70 229/3/70
f 227/3/70 229/3/70 230/3/70
f 209/3/33 227/3/71 230/3/71
f 209/3/33 230/3/71 210/3/33
f 205/3/61 208/3/61 229/3/72
f 205/3/61 229/3/72 228/3/72
f 205/3/65 228/3/73 227/3/73
f 205/3/65 227/3/73 209/3/68
f 230/3/74 229/3/74 208/3/66
f 230/3/74 208/3/66 210/3/69
f 231/3/70 232/3/70 233/3/70
f 231/3/70 233/3/70 234/3/70
f 219/3/33 231/3/71 234/3/71
f 219/3/33 234/3/71 220/3/33
f 215/3/61 218/3/61 233/3/72
f 215/3/61 233/3/72 232/3/72
f 215/3/65 232/3/73 231/3/73
f 215/3/65 231/3/73 219/3/68
f 234/3/74 233/3/74 218/3/66
f 234/3/74 218/3/66 220/3/69

