# generated by vox_to_obj_exporter
# scale=0.1 center=false ground=false y_up=true

mtllib Fight_755.mtl
usemtl palette

# normals
vn -1 0 0
vn 1 0 0
vn 0 1 0
vn 0 -1 0
vn 0 0 1
vn 0 0 -1

# texcoords
vt 0.197265625 0.5
vt 0.205078125 0.5
vt 0.201171875 0.5
vt 0.189453125 0.5
vt 0.193359375 0.5
vt 0.208984375 0.5
vt 0.212890625 0.5

# verts
v 4.8 3.3 -2.6
v 4.8 3.2 -2.6
v 4.8 3.2 -2.5
v 4.8 3.3 -2.5
v 4.9 3.3 -2.5
v 4.9 3.2 -2.5
v 4.9 3.2 -2.6
v 4.9 3.3 -2.6
v 4.8 3.3 -2.6
v 4.8 3.3 -2.5
v 4.9 3.3 -2.5
v 4.9 3.3 -2.6
v 4.8 3.2 -2.5
v 4.8 3.2 -2.6
v 4.9 3.2 -2.6
v 4.9 3.2 -2.5
v 4.8 3.3 -2.5
v 4.8 3.2 -2.5
v 4.9 3.2 -2.5
v 4.9 3.3 -2.5
v 4.9 3.3 -2.6
v 4.9 3.2 -2.6
v 4.8 3.2 -2.6
v 4.8 3.3 -2.6
v 4.7 3.2 -2.6
v 4.7 3.1 -2.6
v 4.7 3.1 -2.5
v 4.7 3.2 -2.5
v 4.8 3.2 -2.5
v 4.8 3.1 -2.5
v 4.8 3.1 -2.6
v 4.8 3.2 -2.6
v 4.7 3.2 -2.6
v 4.7 3.2 -2.5
v 4.8 3.2 -2.5
v 4.8 3.2 -2.6
v 4.7 3.2 -2.5
v 4.7 3.1 -2.5
v 4.8 3.1 -2.5
v 4.8 3.2 -2.5
v 4.8 3.2 -2.6
v 4.8 3.1 -2.6
v 4.7 3.1 -2.6
v 4.7 3.2 -2.6
v 4.6 3.1 -2.6
v 4.6 3 -2.6
v 4.6 3 -2.5
v 4.6 3.1 -2.5
v 4.6 3.1 -2.6
v 4.6 3.1 -2.5
v 4.7 3.1 -2.5
v 4.7 3.1 -2.6
v 4.6 3.1 -2.5
v 4.6 3 -2.5
v 4.7 3 -2.5
v 4.7 3.1 -2.5
v 4.7 3.1 -2.6
v 4.7 3 -2.6
v 4.6 3 -2.6
v 4.6 3.1 -2.6
v 4.8 3.1 -2.5
v 4.8 3 -2.5
v 4.8 3 -2.6
v 4.8 3.1 -2.6
v 4.7 3.1 -2.5
v 4.7 3 -2.5
v 4.8 3 -2.5
v 4.8 3.1 -2.5
v 4.8 3.1 -2.6
v 4.8 3 -2.6
v 4.7 3 -2.6
v 4.7 3.1 -2.6
v 4.5 3 -2.6
v 4.5 2.9 -2.6
v 4.5 2.9 -2.5
v 4.5 3 -2.5
v 4.5 3 -2.6
v 4.5 3 -2.5
v 4.6 3 -2.5
v 4.6 3 -2.6
v 4.5 3 -2.5
v 4.5 2.9 -2.5
v 4.6 2.9 -2.5
v 4.6 3 -2.5
v 4.6 3 -2.6
v 4.6 2.9 -2.6
v 4.5 2.9 -2.6
v 4.5 3 -2.6
v 4.6 3 -2.5
v 4.6 2.9 -2.5
v 4.7 2.9 -2.5
v 4.7 3 -2.5
v 4.7 3 -2.6
v 4.7 2.9 -2.6
v 4.6 2.9 -2.6
v 4.6 3 -2.6
v 4.8 3 -2.5
v 4.8 2.9 -2.5
v 4.8 2.9 -2.6
v 4.8 3 -2.6
v 4.7 3 -2.5
v 4.7 2.9 -2.5
v 4.8 2.9 -2.5
v 4.8 3 -2.5
v 4.8 3 -2.6
v 4.8 2.9 -2.6
v 4.7 2.9 -2.6
v 4.7 3 -2.6
v 4.4 2.9 -2.6
v 4.4 2.8 -2.6
v 4.4 2.8 -2.5
v 4.4 2.9 -2.5
v 4.4 2.9 -2.6
v 4.4 2.9 -2.5
v 4.5 2.9 -2.5
v 4.5 2.9 -2.6
v 4.4 2.9 -2.5
v 4.4 2.8 -2.5
v 4.5 2.8 -2.5
v 4.5 2.9 -2.5
v 4.5 2.9 -2.6
v 4.5 2.8 -2.6
v 4.4 2.8 -2.6
v 4.4 2.9 -2.6
v 4.5 2.9 -2.5
v 4.5 2.8 -2.5
v 4.6 2.8 -2.5
v 4.6 2.9 -2.5
v 4.6 2.9 -2.6
v 4.6 2.8 -2.6
v 4.5 2.8 -2.6
v 4.5 2.9 -2.6
v 4.6 2.9 -2.5
v 4.6 2.8 -2.5
v 4.7 2.8 -2.5
v 4.7 2.9 -2.5
v 4.7 2.9 -2.6
v 4.7 2.8 -2.6
v 4.6 2.8 -2.6
v 4.6 2.9 -2.6
v 4.8 2.9 -2.5
v 4.8 2.8 -2.5
v 4.8 2.8 -2.6
v 4.8 2.9 -2.6
v 4.7 2.9 -2.5
v 4.7 2.8 -2.5
v 4.8 2.8 -2.5
v 4.8 2.9 -2.5
v 4.8 2.9 -2.6
v 4.8 2.8 -2.6
v 4.7 2.8 -2.6
v 4.7 2.9 -2.6
v 4.3 2.8 -2.6
v 4.3 2.7 -2.6
v 4.3 2.7 -2.5
v 4.3 2.8 -2.5
v 4.3 2.8 -2.6
v 4.3 2.8 -2.5
v 4.4 2.8 -2.5
v 4.4 2.8 -2.6
v 4.3 2.8 -2.5
v 4.3 2.7 -2.5
v 4.4 2.7 -2.5
v 4.4 2.8 -2.5
v 4.4 2.8 -2.6
v 4.4 2.7 -2.6
v 4.3 2.7 -2.6
v 4.3 2.8 -2.6
v 4.4 2.8 -2.5
v 4.4 2.7 -2.5
v 4.5 2.7 -2.5
v 4.5 2.8 -2.5
v 4.5 2.8 -2.6
v 4.5 2.7 -2.6
v 4.4 2.7 -2.6
v 4.4 2.8 -2.6
v 4.5 2.8 -2.5
v 4.5 2.7 -2.5
v 4.6 2.7 -2.5
v 4.6 2.8 -2.5
v 4.6 2.8 -2.6
v 4.6 2.7 -2.6
v 4.5 2.7 -2.6
v 4.5 2.8 -2.6
v 4.6 2.8 -2.5
v 4.6 2.7 -2.5
v 4.7 2.7 -2.5
v 4.7 2.8 -2.5
v 4.7 2.8 -2.6
v 4.7 2.7 -2.6
v 4.6 2.7 -2.6
v 4.6 2.8 -2.6
v 4.8 2.8 -2.5
v 4.8 2.7 -2.5
v 4.8 2.7 -2.6
v 4.8 2.8 -2.6
v 4.7 2.8 -2.5
v 4.7 2.7 -2.5
v 4.8 2.7 -2.5
v 4.8 2.8 -2.5
v 4.8 2.8 -2.6
v 4.8 2.7 -2.6
v 4.7 2.7 -2.6
v 4.7 2.8 -2.6
v 4.2 2.7 -2.6
v 4.2 2.6 -2.6
v 4.2 2.6 -2.5
v 4.2 2.7 -2.5
v 4.2 2.7 -2.6
v 4.2 2.7 -2.5
v 4.3 2.7 -2.5
v 4.3 2.7 -2.6
v 4.2 2.7 -2.5
v 4.2 2.6 -2.5
v 4.3 2.6 -2.5
v 4.3 2.7 -2.5
v 4.3 2.7 -2.6
v 4.3 2.6 -2.6
v 4.2 2.6 -2.6
v 4.2 2.7 -2.6
v 4.3 2.7 -2.5
v 4.3 2.6 -2.5
v 4.4 2.6 -2.5
v 4.4 2.7 -2.5
v 4.4 2.7 -2.6
v 4.4 2.6 -2.6
v 4.3 2.6 -2.6
v 4.3 2.7 -2.6
v 4.4 2.7 -2.5
v 4.4 2.6 -2.5
v 4.5 2.6 -2.5
v 4.5 2.7 -2.5
v 4.5 2.7 -2.6
v 4.5 2.6 -2.6
v 4.4 2.6 -2.6
v 4.4 2.7 -2.6
v 4.5 2.7 -2.5
v 4.5 2.6 -2.5
v 4.6 2.6 -2.5
v 4.6 2.7 -2.5
v 4.6 2.7 -2.6
v 4.6 2.6 -2.6
v 4.5 2.6 -2.6
v 4.5 2.7 -2.6
v 4.6 2.7 -2.5
v 4.6 2.6 -2.5
v 4.7 2.6 -2.5
v 4.7 2.7 -2.5
v 4.7 2.7 -2.6
v 4.7 2.6 -2.6
v 4.6 2.6 -2.6
v 4.6 2.7 -2.6
v 4.7 2.7 -2.5
v 4.7 2.6 -2.5
v 4.8 2.6 -2.5
v 4.8 2.7 -2.5
v 4.8 2.7 -2.6
v 4.8 2.6 -2.6
v 4.7 2.6 -2.6
v 4.7 2.7 -2.6
v 4.9 2.7 -2.5
v 4.9 2.6 -2.5
v 4.9 2.6 -2.6
v 4.9 2.7 -2.6
v 4.8 2.7 -2.6
v 4.8 2.7 -2.5
v 4.9 2.7 -2.5
v 4.9 2.7 -2.6
v 4.8 2.7 -2.5
v 4.8 2.6 -2.5
v 4.9 2.6 -2.5
v 4.9 2.7 -2.5
v 4.9 2.7 -2.6
v 4.9 2.6 -2.6
v 4.8 2.6 -2.6
v 4.8 2.7 -2.6
v 4.1 2.6 -2.6
v 4.1 2.5 -2.6
v 4.1 2.5 -2.5
v 4.1 2.6 -2.5
v 4.1 2.6 -2.6
v 4.1 2.6 -2.5
v 4.2 2.6 -2.5
v 4.2 2.6 -2.6
v 4.1 2.6 -2.5
v 4.1 2.5 -2.5
v 4.2 2.5 -2.5
v 4.2 2.6 -2.5
v 4.2 2.6 -2.6
v 4.2 2.5 -2.6
v 4.1 2.5 -2.6
v 4.1 2.6 -2.6
v 4.2 2.6 -2.5
v 4.2 2.5 -2.5
v 4.3 2.5 -2.5
v 4.3 2.6 -2.5
v 4.3 2.6 -2.6
v 4.3 2.5 -2.6
v 4.2 2.5 -2.6
v 4.2 2.6 -2.6
v 4.3 2.6 -2.5
v 4.3 2.5 -2.5
v 4.4 2.5 -2.5
v 4.4 2.6 -2.5
v 4.4 2.6 -2.6
v 4.4 2.5 -2.6
v 4.3 2.5 -2.6
v 4.3 2.6 -2.6
v 4.4 2.6 -2.5
v 4.4 2.5 -2.5
v 4.5 2.5 -2.5
v 4.5 2.6 -2.5
v 4.5 2.6 -2.6
v 4.5 2.5 -2.6
v 4.4 2.5 -2.6
v 4.4 2.6 -2.6
v 4.5 2.6 -2.5
v 4.5 2.5 -2.5
v 4.6 2.5 -2.5
v 4.6 2.6 -2.5
v 4.6 2.6 -2.6
v 4.6 2.5 -2.6
v 4.5 2.5 -2.6
v 4.5 2.6 -2.6
v 4.6 2.6 -2.5
v 4.6 2.5 -2.5
v 4.7 2.5 -2.5
v 4.7 2.6 -2.5
v 4.7 2.6 -2.6
v 4.7 2.5 -2.6
v 4.6 2.5 -2.6
v 4.6 2.6 -2.6
v 4.7 2.6 -2.5
v 4.7 2.5 -2.5
v 4.8 2.5 -2.5
v 4.8 2.6 -2.5
v 4.8 2.6 -2.6
v 4.8 2.5 -2.6
v 4.7 2.5 -2.6
v 4.7 2.6 -2.6
v 4.8 2.6 -2.5
v 4.8 2.5 -2.5
v 4.9 2.5 -2.5
v 4.9 2.6 -2.5
v 4.9 2.6 -2.6
v 4.9 2.5 -2.6
v 4.8 2.5 -2.6
v 4.8 2.6 -2.6
v 4.9 2.6 -2.6
v 4.9 2.6 -2.5
v 5 2.6 -2.5
v 5 2.6 -2.6
v 4.9 2.6 -2.5
v 4.9 2.5 -2.5
v 5 2.5 -2.5
v 5 2.6 -2.5
v 5 2.6 -2.6
v 5 2.5 -2.6
v 4.9 2.5 -2.6
v 4.9 2.6 -2.6
v 5 2.6 -2.6
v 5 2.6 -2.5
v 5.1 2.6 -2.5
v 5.1 2.6 -2.6
v 5 2.6 -2.5
v 5 2.5 -2.5
v 5.1 2.5 -2.5
v 5.1 2.6 -2.5
v 5.1 2.6 -2.6
v 5.1 2.5 -2.6
v 5 2.5 -2.6
v 5 2.6 -2.6
v 5.2 2.6 -2.5
v 5.2 2.5 -2.5
v 5.2 2.5 -2.6
v 5.2 2.6 -2.6
v 5.1 2.6 -2.6
v 5.1 2.6 -2.5
v 5.2 2.6 -2.5
v 5.2 2.6 -2.6
v 5.1 2.6 -2.5
v 5.1 2.5 -2.5
v 5.2 2.5 -2.5
v 5.2 2.6 -2.5
v 5.2 2.6 -2.6
v 5.2 2.5 -2.6
v 5.1 2.5 -2.6
v 5.1 2.6 -2.6
v 4 2.5 -2.6
v 4 2.4 -2.6
v 4 2.4 -2.5
v 4 2.5 -2.5
v 4 2.5 -2.6
v 4 2.5 -2.5
v 4.1 2.5 -2.5
v 4.1 2.5 -2.6
v 4 2.5 -2.5
v 4 2.4 -2.5
v 4.1 2.4 -2.5
v 4.1 2.5 -2.5
v 4.1 2.5 -2.6
v 4.1 2.4 -2.6
v 4 2.4 -2.6
v 4 2.5 -2.6
v 4.1 2.5 -2.5
v 4.1 2.4 -2.5
v 4.2 2.4 -2.5
v 4.2 2.5 -2.5
v 4.2 2.5 -2.6
v 4.2 2.4 -2.6
v 4.1 2.4 -2.6
v 4.1 2.5 -2.6
v 4.2 2.5 -2.5
v 4.2 2.4 -2.5
v 4.3 2.4 -2.5
v 4.3 2.5 -2.5
v 4.3 2.5 -2.6
v 4.3 2.4 -2.6
v 4.2 2.4 -2.6
v 4.2 2.5 -2.6
v 4.3 2.5 -2.5
v 4.3 2.4 -2.5
v 4.4 2.4 -2.5
v 4.4 2.5 -2.5
v 4.4 2.5 -2.6
v 4.4 2.4 -2.6
v 4.3 2.4 -2.6
v 4.3 2.5 -2.6
v 4.4 2.5 -2.5
v 4.4 2.4 -2.5
v 4.5 2.4 -2.5
v 4.5 2.5 -2.5
v 4.5 2.5 -2.6
v 4.5 2.4 -2.6
v 4.4 2.4 -2.6
v 4.4 2.5 -2.6
v 4.5 2.5 -2.5
v 4.5 2.4 -2.5
v 4.6 2.4 -2.5
v 4.6 2.5 -2.5
v 4.6 2.5 -2.6
v 4.6 2.4 -2.6
v 4.5 2.4 -2.6
v 4.5 2.5 -2.6
v 4.6 2.5 -2.5
v 4.6 2.4 -2.5
v 4.7 2.4 -2.5
v 4.7 2.5 -2.5
v 4.7 2.5 -2.6
v 4.7 2.4 -2.6
v 4.6 2.4 -2.6
v 4.6 2.5 -2.6
v 4.7 2.5 -2.5
v 4.7 2.4 -2.5
v 4.8 2.4 -2.5
v 4.8 2.5 -2.5
v 4.8 2.5 -2.6
v 4.8 2.4 -2.6
v 4.7 2.4 -2.6
v 4.7 2.5 -2.6
v 4.8 2.5 -2.5
v 4.8 2.4 -2.5
v 4.9 2.4 -2.5
v 4.9 2.5 -2.5
v 4.9 2.5 -2.6
v 4.9 2.4 -2.6
v 4.8 2.4 -2.6
v 4.8 2.5 -2.6
v 4.9 2.5 -2.5
v 4.9 2.4 -2.5
v 5 2.4 -2.5
v 5 2.5 -2.5
v 5 2.5 -2.6
v 5 2.4 -2.6
v 4.9 2.4 -2.6
v 4.9 2.5 -2.6
v 5 2.5 -2.5
v 5 2.4 -2.5
v 5.1 2.4 -2.5
v 5.1 2.5 -2.5
v 5.1 2.5 -2.6
v 5.1 2.4 -2.6
v 5 2.4 -2.6
v 5 2.5 -2.6
v 5.1 2.5 -2.5
v 5.1 2.4 -2.5
v 5.2 2.4 -2.5
v 5.2 2.5 -2.5
v 5.2 2.5 -2.6
v 5.2 2.4 -2.6
v 5.1 2.4 -2.6
v 5.1 2.5 -2.6
v 5.2 2.5 -2.6
v 5.2 2.5 -2.5
v 5.3 2.5 -2.5
v 5.3 2.5 -2.6
v 5.2 2.5 -2.5
v 5.2 2.4 -2.5
v 5.3 2.4 -2.5
v 5.3 2.5 -2.5
v 5.3 2.5 -2.6
v 5.3 2.4 -2.6
v 5.2 2.4 -2.6
v 5.2 2.5 -2.6
v 5.3 2.5 -2.6
v 5.3 2.5 -2.5
v 5.4 2.5 -2.5
v 5.4 2.5 -2.6
v 5.3 2.5 -2.5
v 5.3 2.4 -2.5
v 5.4 2.4 -2.5
v 5.4 2.5 -2.5
v 5.4 2.5 -2.6
v 5.4 2.4 -2.6
v 5.3 2.4 -2.6
v 5.3 2.5 -2.6
v 5.4 2.5 -2.6
v 5.4 2.5 -2.5
v 5.5 2.5 -2.5
v 5.5 2.5 -2.6
v 5.4 2.5 -2.5
v 5.4 2.4 -2.5
v 5.5 2.4 -2.5
v 5.5 2.5 -2.5
v 5.5 2.5 -2.6
v 5.5 2.4 -2.6
v 5.4 2.4 -2.6
v 5.4 2.5 -2.6
v 5.5 2.5 -2.6
v 5.5 2.5 -2.5
v 5.6 2.5 -2.5
v 5.6 2.5 -2.6
v 5.5 2.5 -2.5
v 5.5 2.4 -2.5
v 5.6 2.4 -2.5
v 5.6 2.5 -2.5
v 5.6 2.5 -2.6
v 5.6 2.4 -2.6
v 5.5 2.4 -2.6
v 5.5 2.5 -2.6
v 5.7 2.5 -2.5
v 5.7 2.4 -2.5
v 5.7 2.4 -2.6
v 5.7 2.5 -2.6
v 5.6 2.5 -2.6
v 5.6 2.5 -2.5
v 5.7 2.5 -2.5
v 5.7 2.5 -2.6
v 5.6 2.5 -2.5
v 5.6 2.4 -2.5
v 5.7 2.4 -2.5
v 5.7 2.5 -2.5
v 5.7 2.5 -2.6
v 5.7 2.4 -2.6
v 5.6 2.4 -2.6
v 5.6 2.5 -2.6
v 3.9 2.4 -2.6
v 3.9 2.3 -2.6
v 3.9 2.3 -2.5
v 3.9 2.4 -2.5
v 3.9 2.4 -2.6
v 3.9 2.4 -2.5
v 4 2.4 -2.5
v 4 2.4 -2.6
v 3.9 2.4 -2.5
v 3.9 2.3 -2.5
v 4 2.3 -2.5
v 4 2.4 -2.5
v 4 2.4 -2.6
v 4 2.3 -2.6
v 3.9 2.3 -2.6
v 3.9 2.4 -2.6
v 4 2.4 -2.5
v 4 2.3 -2.5
v 4.1 2.3 -2.5
v 4.1 2.4 -2.5
v 4.1 2.4 -2.6
v 4.1 2.3 -2.6
v 4 2.3 -2.6
v 4 2.4 -2.6
v 4.1 2.4 -2.5
v 4.1 2.3 -2.5
v 4.2 2.3 -2.5
v 4.2 2.4 -2.5
v 4.2 2.4 -2.6
v 4.2 2.3 -2.6
v 4.1 2.3 -2.6
v 4.1 2.4 -2.6
v 4.2 2.4 -2.5
v 4.2 2.3 -2.5
v 4.3 2.3 -2.5
v 4.3 2.4 -2.5
v 4.3 2.4 -2.6
v 4.3 2.3 -2.6
v 4.2 2.3 -2.6
v 4.2 2.4 -2.6
v 4.3 2.4 -2.5
v 4.3 2.3 -2.5
v 4.4 2.3 -2.5
v 4.4 2.4 -2.5
v 4.4 2.4 -2.6
v 4.4 2.3 -2.6
v 4.3 2.3 -2.6
v 4.3 2.4 -2.6
v 4.4 2.4 -2.5
v 4.4 2.3 -2.5
v 4.5 2.3 -2.5
v 4.5 2.4 -2.5
v 4.5 2.4 -2.6
v 4.5 2.3 -2.6
v 4.4 2.3 -2.6
v 4.4 2.4 -2.6
v 4.5 2.4 -2.5
v 4.5 2.3 -2.5
v 4.6 2.3 -2.5
v 4.6 2.4 -2.5
v 4.6 2.4 -2.6
v 4.6 2.3 -2.6
v 4.5 2.3 -2.6
v 4.5 2.4 -2.6
v 4.6 2.4 -2.5
v 4.6 2.3 -2.5
v 4.7 2.3 -2.5
v 4.7 2.4 -2.5
v 4.7 2.4 -2.6
v 4.7 2.3 -2.6
v 4.6 2.3 -2.6
v 4.6 2.4 -2.6
v 4.7 2.4 -2.5
v 4.7 2.3 -2.5
v 4.8 2.3 -2.5
v 4.8 2.4 -2.5
v 4.8 2.4 -2.6
v 4.8 2.3 -2.6
v 4.7 2.3 -2.6
v 4.7 2.4 -2.6
v 4.8 2.4 -2.5
v 4.8 2.3 -2.5
v 4.9 2.3 -2.5
v 4.9 2.4 -2.5
v 4.9 2.4 -2.6
v 4.9 2.3 -2.6
v 4.8 2.3 -2.6
v 4.8 2.4 -2.6
v 4.9 2.4 -2.5
v 4.9 2.3 -2.5
v 5 2.3 -2.5
v 5 2.4 -2.5
v 5 2.4 -2.6
v 5 2.3 -2.6
v 4.9 2.3 -2.6
v 4.9 2.4 -2.6
v 5 2.4 -2.5
v 5 2.3 -2.5
v 5.1 2.3 -2.5
v 5.1 2.4 -2.5
v 5.1 2.4 -2.6
v 5.1 2.3 -2.6
v 5 2.3 -2.6
v 5 2.4 -2.6
v 5.1 2.4 -2.5
v 5.1 2.3 -2.5
v 5.2 2.3 -2.5
v 5.2 2.4 -2.5
v 5.2 2.4 -2.6
v 5.2 2.3 -2.6
v 5.1 2.3 -2.6
v 5.1 2.4 -2.6
v 5.2 2.4 -2.5
v 5.2 2.3 -2.5
v 5.3 2.3 -2.5
v 5.3 2.4 -2.5
v 5.3 2.4 -2.6
v 5.3 2.3 -2.6
v 5.2 2.3 -2.6
v 5.2 2.4 -2.6
v 5.3 2.4 -2.5
v 5.3 2.3 -2.5
v 5.4 2.3 -2.5
v 5.4 2.4 -2.5
v 5.4 2.4 -2.6
v 5.4 2.3 -2.6
v 5.3 2.3 -2.6
v 5.3 2.4 -2.6
v 5.4 2.4 -2.5
v 5.4 2.3 -2.5
v 5.5 2.3 -2.5
v 5.5 2.4 -2.5
v 5.5 2.4 -2.6
v 5.5 2.3 -2.6
v 5.4 2.3 -2.6
v 5.4 2.4 -2.6
v 5.5 2.3 -2.5
v 5.5 2.3 -2.6
v 5.6 2.3 -2.6
v 5.6 2.3 -2.5
v 5.5 2.4 -2.5
v 5.5 2.3 -2.5
v 5.6 2.3 -2.5
v 5.6 2.4 -2.5
v 5.6 2.4 -2.6
v 5.6 2.3 -2.6
v 5.5 2.3 -2.6
v 5.5 2.4 -2.6
v 5.6 2.3 -2.5
v 5.6 2.3 -2.6
v 5.7 2.3 -2.6
v 5.7 2.3 -2.5
v 5.6 2.4 -2.5
v 5.6 2.3 -2.5
v 5.7 2.3 -2.5
v 5.7 2.4 -2.5
v 5.7 2.4 -2.6
v 5.7 2.3 -2.6
v 5.6 2.3 -2.6
v 5.6 2.4 -2.6
v 5.7 2.4 -2.6
v 5.7 2.4 -2.5
v 5.8 2.4 -2.5
v 5.8 2.4 -2.6
v 5.7 2.3 -2.5
v 5.7 2.3 -2.6
v 5.8 2.3 -2.6
v 5.8 2.3 -2.5
v 5.7 2.4 -2.5
v 5.7 2.3 -2.5
v 5.8 2.3 -2.5
v 5.8 2.4 -2.5
v 5.8 2.4 -2.6
v 5.8 2.3 -2.6
v 5.7 2.3 -2.6
v 5.7 2.4 -2.6
v 5.9 2.4 -2.5
v 5.9 2.3 -2.5
v 5.9 2.3 -2.6
v 5.9 2.4 -2.6
v 5.8 2.4 -2.6
v 5.8 2.4 -2.5
v 5.9 2.4 -2.5
v 5.9 2.4 -2.6
v 5.8 2.3 -2.5
v 5.8 2.3 -2.6
v 5.9 2.3 -2.6
v 5.9 2.3 -2.5
v 5.8 2.4 -2.5
v 5.8 2.3 -2.5
v 5.9 2.3 -2.5
v 5.9 2.4 -2.5
v 5.9 2.4 -2.6
v 5.9 2.3 -2.6
v 5.8 2.3 -2.6
v 5.8 2.4 -2.6
v 3.8 2.3 -2.6
v 3.8 2.2 -2.6
v 3.8 2.2 -2.5
v 3.8 2.3 -2.5
v 3.8 2.3 -2.6
v 3.8 2.3 -2.5
v 3.9 2.3 -2.5
v 3.9 2.3 -2.6
v 3.8 2.3 -2.5
v 3.8 2.2 -2.5
v 3.9 2.2 -2.5
v 3.9 2.3 -2.5
v 3.9 2.3 -2.6
v 3.9 2.2 -2.6
v 3.8 2.2 -2.6
v 3.8 2.3 -2.6
v 3.9 2.3 -2.5
v 3.9 2.2 -2.5
v 4 2.2 -2.5
v 4 2.3 -2.5
v 4 2.3 -2.6
v 4 2.2 -2.6
v 3.9 2.2 -2.6
v 3.9 2.3 -2.6
v 4 2.3 -2.5
v 4 2.2 -2.5
v 4.1 2.2 -2.5
v 4.1 2.3 -2.5
v 4.1 2.3 -2.6
v 4.1 2.2 -2.6
v 4 2.2 -2.6
v 4 2.3 -2.6
v 4.1 2.3 -2.5
v 4.1 2.2 -2.5
v 4.2 2.2 -2.5
v 4.2 2.3 -2.5
v 4.2 2.3 -2.6
v 4.2 2.2 -2.6
v 4.1 2.2 -2.6
v 4.1 2.3 -2.6
v 4.2 2.3 -2.5
v 4.2 2.2 -2.5
v 4.3 2.2 -2.5
v 4.3 2.3 -2.5
v 4.3 2.3 -2.6
v 4.3 2.2 -2.6
v 4.2 2.2 -2.6
v 4.2 2.3 -2.6
v 4.3 2.3 -2.5
v 4.3 2.2 -2.5
v 4.4 2.2 -2.5
v 4.4 2.3 -2.5
v 4.4 2.3 -2.6
v 4.4 2.2 -2.6
v 4.3 2.2 -2.6
v 4.3 2.3 -2.6
v 4.4 2.3 -2.5
v 4.4 2.2 -2.5
v 4.5 2.2 -2.5
v 4.5 2.3 -2.5
v 4.5 2.3 -2.6
v 4.5 2.2 -2.6
v 4.4 2.2 -2.6
v 4.4 2.3 -2.6
v 4.5 2.3 -2.5
v 4.5 2.2 -2.5
v 4.6 2.2 -2.5
v 4.6 2.3 -2.5
v 4.6 2.3 -2.6
v 4.6 2.2 -2.6
v 4.5 2.2 -2.6
v 4.5 2.3 -2.6
v 4.6 2.3 -2.5
v 4.6 2.2 -2.5
v 4.7 2.2 -2.5
v 4.7 2.3 -2.5
v 4.7 2.3 -2.6
v 4.7 2.2 -2.6
v 4.6 2.2 -2.6
v 4.6 2.3 -2.6
v 4.7 2.3 -2.5
v 4.7 2.2 -2.5
v 4.8 2.2 -2.5
v 4.8 2.3 -2.5
v 4.8 2.3 -2.6
v 4.8 2.2 -2.6
v 4.7 2.2 -2.6
v 4.7 2.3 -2.6
v 4.8 2.3 -2.5
v 4.8 2.2 -2.5
v 4.9 2.2 -2.5
v 4.9 2.3 -2.5
v 4.9 2.3 -2.6
v 4.9 2.2 -2.6
v 4.8 2.2 -2.6
v 4.8 2.3 -2.6
v 4.9 2.3 -2.5
v 4.9 2.2 -2.5
v 5 2.2 -2.5
v 5 2.3 -2.5
v 5 2.3 -2.6
v 5 2.2 -2.6
v 4.9 2.2 -2.6
v 4.9 2.3 -2.6
v 5 2.2 -2.5
v 5 2.2 -2.6
v 5.1 2.2 -2.6
v 5.1 2.2 -2.5
v 5 2.3 -2.5
v 5 2.2 -2.5
v 5.1 2.2 -2.5
v 5.1 2.3 -2.5
v 5.1 2.3 -2.6
v 5.1 2.2 -2.6
v 5 2.2 -2.6
v 5 2.3 -2.6
v 5.1 2.2 -2.5
v 5.1 2.2 -2.6
v 5.2 2.2 -2.6
v 5.2 2.2 -2.5
v 5.1 2.3 -2.5
v 5.1 2.2 -2.5
v 5.2 2.2 -2.5
v 5.2 2.3 -2.5
v 5.2 2.3 -2.6
v 5.2 2.2 -2.6
v 5.1 2.2 -2.6
v 5.1 2.3 -2.6
v 5.2 2.2 -2.5
v 5.2 2.2 -2.6
v 5.3 2.2 -2.6
v 5.3 2.2 -2.5
v 5.2 2.3 -2.5
v 5.2 2.2 -2.5
v 5.3 2.2 -2.5
v 5.3 2.3 -2.5
v 5.3 2.3 -2.6
v 5.3 2.2 -2.6
v 5.2 2.2 -2.6
v 5.2 2.3 -2.6
v 5.3 2.2 -2.5
v 5.3 2.2 -2.6
v 5.4 2.2 -2.6
v 5.4 2.2 -2.5
v 5.3 2.3 -2.5
v 5.3 2.2 -2.5
v 5.4 2.2 -2.5
v 5.4 2.3 -2.5
v 5.4 2.3 -2.6
v 5.4 2.2 -2.6
v 5.3 2.2 -2.6
v 5.3 2.3 -2.6
v 5.5 2.3 -2.5
v 5.5 2.2 -2.5
v 5.5 2.2 -2.6
v 5.5 2.3 -2.6
v 5.4 2.2 -2.5
v 5.4 2.2 -2.6
v 5.5 2.2 -2.6
v 5.5 2.2 -2.5
v 5.4 2.3 -2.5
v 5.4 2.2 -2.5
v 5.5 2.2 -2.5
v 5.5 2.3 -2.5
v 5.5 2.3 -2.6
v 5.5 2.2 -2.6
v 5.4 2.2 -2.6
v 5.4 2.3 -2.6
v 3.7 2.2 -2.6
v 3.7 2.1 -2.6
v 3.7 2.1 -2.5
v 3.7 2.2 -2.5
v 3.7 2.2 -2.6
v 3.7 2.2 -2.5
v 3.8 2.2 -2.5
v 3.8 2.2 -2.6
v 3.7 2.2 -2.5
v 3.7 2.1 -2.5
v 3.8 2.1 -2.5
v 3.8 2.2 -2.5
v 3.8 2.2 -2.6
v 3.8 2.1 -2.6
v 3.7 2.1 -2.6
v 3.7 2.2 -2.6
v 3.8 2.2 -2.5
v 3.8 2.1 -2.5
v 3.9 2.1 -2.5
v 3.9 2.2 -2.5
v 3.9 2.2 -2.6
v 3.9 2.1 -2.6
v 3.8 2.1 -2.6
v 3.8 2.2 -2.6
v 3.9 2.2 -2.5
v 3.9 2.1 -2.5
v 4 2.1 -2.5
v 4 2.2 -2.5
v 4 2.2 -2.6
v 4 2.1 -2.6
v 3.9 2.1 -2.6
v 3.9 2.2 -2.6
v 4 2.2 -2.5
v 4 2.1 -2.5
v 4.1 2.1 -2.5
v 4.1 2.2 -2.5
v 4.1 2.2 -2.6
v 4.1 2.1 -2.6
v 4 2.1 -2.6
v 4 2.2 -2.6
v 4.1 2.2 -2.5
v 4.1 2.1 -2.5
v 4.2 2.1 -2.5
v 4.2 2.2 -2.5
v 4.2 2.2 -2.6
v 4.2 2.1 -2.6
v 4.1 2.1 -2.6
v 4.1 2.2 -2.6
v 4.2 2.2 -2.5
v 4.2 2.1 -2.5
v 4.3 2.1 -2.5
v 4.3 2.2 -2.5
v 4.3 2.2 -2.6
v 4.3 2.1 -2.6
v 4.2 2.1 -2.6
v 4.2 2.2 -2.6
v 4.3 2.2 -2.5
v 4.3 2.1 -2.5
v 4.4 2.1 -2.5
v 4.4 2.2 -2.5
v 4.4 2.2 -2.6
v 4.4 2.1 -2.6
v 4.3 2.1 -2.6
v 4.3 2.2 -2.6
v 4.4 2.2 -2.5
v 4.4 2.1 -2.5
v 4.5 2.1 -2.5
v 4.5 2.2 -2.5
v 4.5 2.2 -2.6
v 4.5 2.1 -2.6
v 4.4 2.1 -2.6
v 4.4 2.2 -2.6
v 4.5 2.1 -2.5
v 4.5 2.1 -2.6
v 4.6 2.1 -2.6
v 4.6 2.1 -2.5
v 4.5 2.2 -2.5
v 4.5 2.1 -2.5
v 4.6 2.1 -2.5
v 4.6 2.2 -2.5
v 4.6 2.2 -2.6
v 4.6 2.1 -2.6
v 4.5 2.1 -2.6
v 4.5 2.2 -2.6
v 4.6 2.1 -2.5
v 4.6 2.1 -2.6
v 4.7 2.1 -2.6
v 4.7 2.1 -2.5
v 4.6 2.2 -2.5
v 4.6 2.1 -2.5
v 4.7 2.1 -2.5
v 4.7 2.2 -2.5
v 4.7 2.2 -2.6
v 4.7 2.1 -2.6
v 4.6 2.1 -2.6
v 4.6 2.2 -2.6
v 4.7 2.1 -2.5
v 4.7 2.1 -2.6
v 4.8 2.1 -2.6
v 4.8 2.1 -2.5
v 4.7 2.2 -2.5
v 4.7 2.1 -2.5
v 4.8 2.1 -2.5
v 4.8 2.2 -2.5
v 4.8 2.2 -2.6
v 4.8 2.1 -2.6
v 4.7 2.1 -2.6
v 4.7 2.2 -2.6
v 4.8 2.1 -2.5
v 4.8 2.1 -2.6
v 4.9 2.1 -2.6
v 4.9 2.1 -2.5
v 4.8 2.2 -2.5
v 4.8 2.1 -2.5
v 4.9 2.1 -2.5
v 4.9 2.2 -2.5
v 4.9 2.2 -2.6
v 4.9 2.1 -2.6
v 4.8 2.1 -2.6
v 4.8 2.2 -2.6
v 5 2.2 -2.5
v 5 2.1 -2.5
v 5 2.1 -2.6
v 5 2.2 -2.6
v 4.9 2.1 -2.5
v 4.9 2.1 -2.6
v 5 2.1 -2.6
v 5 2.1 -2.5
v 4.9 2.2 -2.5
v 4.9 2.1 -2.5
v 5 2.1 -2.5
v 5 2.2 -2.5
v 5 2.2 -2.6
v 5 2.1 -2.6
v 4.9 2.1 -2.6
v 4.9 2.2 -2.6
v 3.3 2.1 -2.6
v 3.3 2 -2.6
v 3.3 2 -2.5
v 3.3 2.1 -2.5
v 3.3 2.1 -2.6
v 3.3 2.1 -2.5
v 3.4 2.1 -2.5
v 3.4 2.1 -2.6
v 3.3 2 -2.5
v 3.3 2 -2.6
v 3.4 2 -2.6
v 3.4 2 -2.5
v 3.3 2.1 -2.5
v 3.3 2 -2.5
v 3.4 2 -2.5
v 3.4 2.1 -2.5
v 3.4 2.1 -2.6
v 3.4 2 -2.6
v 3.3 2 -2.6
v 3.3 2.1 -2.6
v 3.4 2.1 -2.6
v 3.4 2.1 -2.5
v 3.5 2.1 -2.5
v 3.5 2.1 -2.6
v 3.4 2 -2.5
v 3.4 2 -2.6
v 3.5 2 -2.6
v 3.5 2 -2.5
v 3.4 2.1 -2.5
v 3.4 2 -2.5
v 3.5 2 -2.5
v 3.5 2.1 -2.5
v 3.5 2.1 -2.6
v 3.5 2 -2.6
v 3.4 2 -2.6
v 3.4 2.1 -2.6
v 3.5 2.1 -2.6
v 3.5 2.1 -2.5
v 3.6 2.1 -2.5
v 3.6 2.1 -2.6
v 3.5 2 -2.5
v 3.5 2 -2.6
v 3.6 2 -2.6
v 3.6 2 -2.5
v 3.5 2.1 -2.5
v 3.5 2 -2.5
v 3.6 2 -2.5
v 3.6 2.1 -2.5
v 3.6 2.1 -2.6
v 3.6 2 -2.6
v 3.5 2 -2.6
v 3.5 2.1 -2.6
v 3.6 2.1 -2.6
v 3.6 2.1 -2.5
v 3.7 2.1 -2.5
v 3.7 2.1 -2.6
v 3.6 2 -2.5
v 3.6 2 -2.6
v 3.7 2 -2.6
v 3.7 2 -2.5
v 3.6 2.1 -2.5
v 3.6 2 -2.5
v 3.7 2 -2.5
v 3.7 2.1 -2.5
v 3.7 2.1 -2.6
v 3.7 2 -2.6
v 3.6 2 -2.6
v 3.6 2.1 -2.6
v 3.7 2 -2.5
v 3.7 2 -2.6
v 3.8 2 -2.6
v 3.8 2 -2.5
v 3.7 2.1 -2.5
v 3.7 2 -2.5
v 3.8 2 -2.5
v 3.8 2.1 -2.5
v 3.8 2.1 -2.6
v 3.8 2 -2.6
v 3.7 2 -2.6
v 3.7 2.1 -2.6
v 3.8 2 -2.5
v 3.8 2 -2.6
v 3.9 2 -2.6
v 3.9 2 -2.5
v 3.8 2.1 -2.5
v 3.8 2 -2.5
v 3.9 2 -2.5
v 3.9 2.1 -2.5
v 3.9 2.1 -2.6
v 3.9 2 -2.6
v 3.8 2 -2.6
v 3.8 2.1 -2.6
v 3.9 2 -2.5
v 3.9 2 -2.6
v 4 2 -2.6
v 4 2 -2.5
v 3.9 2.1 -2.5
v 3.9 2 -2.5
v 4 2 -2.5
v 4 2.1 -2.5
v 4 2.1 -2.6
v 4 2 -2.6
v 3.9 2 -2.6
v 3.9 2.1 -2.6
v 4 2 -2.5
v 4 2 -2.6
v 4.1 2 -2.6
v 4.1 2 -2.5
v 4 2.1 -2.5
v 4 2 -2.5
v 4.1 2 -2.5
v 4.1 2.1 -2.5
v 4.1 2.1 -2.6
v 4.1 2 -2.6
v 4 2 -2.6
v 4 2.1 -2.6
v 4.1 2 -2.5
v 4.1 2 -2.6
v 4.2 2 -2.6
v 4.2 2 -2.5
v 4.1 2.1 -2.5
v 4.1 2 -2.5
v 4.2 2 -2.5
v 4.2 2.1 -2.5
v 4.2 2.1 -2.6
v 4.2 2 -2.6
v 4.1 2 -2.6
v 4.1 2.1 -2.6
v 4.2 2 -2.5
v 4.2 2 -2.6
v 4.3 2 -2.6
v 4.3 2 -2.5
v 4.2 2.1 -2.5
v 4.2 2 -2.5
v 4.3 2 -2.5
v 4.3 2.1 -2.5
v 4.3 2.1 -2.6
v 4.3 2 -2.6
v 4.2 2 -2.6
v 4.2 2.1 -2.6
v 4.3 2 -2.5
v 4.3 2 -2.6
v 4.4 2 -2.6
v 4.4 2 -2.5
v 4.3 2.1 -2.5
v 4.3 2 -2.5
v 4.4 2 -2.5
v 4.4 2.1 -2.5
v 4.4 2.1 -2.6
v 4.4 2 -2.6
v 4.3 2 -2.6
v 4.3 2.1 -2.6
v 4.5 2.1 -2.5
v 4.5 2 -2.5
v 4.5 2 -2.6
v 4.5 2.1 -2.6
v 4.4 2 -2.5
v 4.4 2 -2.6
v 4.5 2 -2.6
v 4.5 2 -2.5
v 4.4 2.1 -2.5
v 4.4 2 -2.5
v 4.5 2 -2.5
v 4.5 2.1 -2.5
v 4.5 2.1 -2.6
v 4.5 2 -2.6
v 4.4 2 -2.6
v 4.4 2.1 -2.6

# faces
f 1/4/1 2/4/1 3/4/1 4/4/1
f 5/4/2 6/4/2 7/4/2 8/4/2
f 9/4/3 10/4/3 11/4/3 12/4/3
f 13/4/4 14/4/4 15/4/4 16/4/4
f 17/4/5 18/4/5 19/4/5 20/4/5
f 21/4/6 22/4/6 23/4/6 24/4/6
f 25/4/1 26/4/1 27/4/1 28/4/1
f 29/4/2 30/4/2 31/4/2 32/4/2
f 33/4/3 34/4/3 35/4/3 36/4/3
f 37/4/5 38/4/5 39/4/5 40/4/5
f 41/4/6 42/4/6 43/4/6 44/4/6
f 45/5/1 46/5/1 47/5/1 48/5/1
f 49/5/3 50/5/3 51/5/3 52/5/3
f 53/5/5 54/5/5 55/5/5 56/5/5
f 57/5/6 58/5/6 59/5/6 60/5/6
f 61/4/2 62/4/2 63/4/2 64/4/2
f 65/4/5 66/4/5 67/4/5 68/4/5
f 69/4/6 70/4/6 71/4/6 72/4/6
f 73/1/1 74/1/1 75/1/1 76/1/1
f 77/1/3 78/1/3 79/1/3 80/1/3
f 81/1/5 82/1/5 83/1/5 84/1/5
f 85/1/6 86/1/6 87/1/6 88/1/6
f 89/5/5 90/5/5 91/5/5 92/5/5
f 93/5/6 94/5/6 95/5/6 96/5/6
f 97/4/2 98/4/2 99/4/2 100/4/2
f 101/4/5 102/4/5 103/4/5 104/4/5
f 105/4/6 106/4/6 107/4/6 108/4/6
f 109/1/1 110/1/1 111/1/1 112/1/1
f 113/1/3 114/1/3 115/1/3 116/1/3
f 117/1/5 118/1/5 119/1/5 120/1/5
f 121/1/6 122/1/6 123/1/6 124/1/6
f 125/1/5 126/1/5 127/1/5 128/1/5
f 129/1/6 130/1/6 131/1/6 132/1/6
f 133/5/5 134/5/5 135/5/5 136/5/5
f 137/5/6 138/5/6 139/5/6 140/5/6
f 141/4/2 142/4/2 143/4/2 144/4/2
f 145/4/5 146/4/5 147/4/5 148/4/5
f 149/4/6 150/4/6 151/4/6 152/4/6
f 153/1/1 154/1/1 155/1/1 156/1/1
f 157/1/3 158/1/3 159/1/3 160/1/3
f 161/1/5 162/1/5 163/1/5 164/1/5
f 165/1/6 166/1/6 167/1/6 168/1/6
f 169/1/5 170/1/5 171/1/5 172/1/5
f 173/1/6 174/1/6 175/1/6 176/1/6
f 177/1/5 178/1/5 179/1/5 180/1/5
f 181/1/6 182/1/6 183/1/6 184/1/6
f 185/5/5 186/5/5 187/5/5 188/5/5
f 189/5/6 190/5/6 191/5/6 192/5/6
f 193/4/2 194/4/2 195/4/2 196/4/2
f 197/4/5 198/4/5 199/4/5 200/4/5
f 201/4/6 202/4/6 203/4/6 204/4/6
f 205/1/1 206/1/1 207/1/1 208/1/1
f 209/1/3 210/1/3 211/1/3 212/1/3
f 213/1/5 214/1/5 215/1/5 216/1/5
f 217/1/6 218/1/6 219/1/6 220/1/6
f 221/1/5 222/1/5 223/1/5 224/1/5
f 225/1/6 226/1/6 227/1/6 228/1/6
f 229/1/5 230/1/5 231/1/5 232/1/5
f 233/1/6 234/1/6 235/1/6 236/1/6
f 237/1/5 238/1/5 239/1/5 240/1/5
f 241/1/6 242/1/6 243/1/6 244/1/6
f 245/1/5 246/1/5 247/1/5 248/1/5
f 249/1/6 250/1/6 251/1/6 252/1/6
f 253/5/5 254/5/5 255/5/5 256/5/5
f 257/5/6 258/5/6 259/5/6 260/5/6
f 261/4/2 262/4/2 263/4/2 264/4/2
f 265/4/3 266/4/3 267/4/3 268/4/3
f 269/4/5 270/4/5 271/4/5 272/4/5
f 273/4/6 274/4/6 275/4/6 276/4/6
f 277/1/1 278/1/1 279/1/1 280/1/1
f 281/1/3 282/1/3 283/1/3 284/1/3
f 285/1/5 286/1/5 287/1/5 288/1/5
f 289/1/6 290/1/6 291/1/6 292/1/6
f 293/1/5 294/1/5 295/1/5 296/1/5
f 297/1/6 298/1/6 299/1/6 300/1/6
f 301/1/5 302/1/5 303/1/5 304/1/5
f 305/1/6 306/1/6 307/1/6 308/1/6
f 309/1/5 310/1/5 311/1/5 312/1/5
f 313/1/6 314/1/6 315/1/6 316/1/6
f 317/1/5 318/1/5 319/1/5 320/1/5
f 321/1/6 322/1/6 323/1/6 324/1/6
f 325/1/5 326/1/5 327/1/5 328/1/5
f 329/1/6 330/1/6 331/1/6 332/1/6
f 333/1/5 334/1/5 335/1/5 336/1/5
f 337/1/6 338/1/6 339/1/6 340/1/6
f 341/5/5 342/5/5 343/5/5 344/5/5
f 345/5/6 346/5/6 347/5/6 348/5/6
f 349/4/3 350/4/3 351/4/3 352/4/3
f 353/4/5 354/4/5 355/4/5 356/4/5
f 357/4/6 358/4/6 359/4/6 360/4/6
f 361/4/3 362/4/3 363/4/3 364/4/3
f 365/4/5 366/4/5 367/4/5 368/4/5
f 369/4/6 370/4/6 371/4/6 372/4/6
f 373/3/2 374/3/2 375/3/2 376/3/2
f 377/3/3 378/3/3 379/3/3 380/3/3
f 381/3/5 382/3/5 383/3/5 384/3/5
f 385/3/6 386/3/6 387/3/6 388/3/6
f 389/1/1 390/1/1 391/1/1 392/1/1
f 393/1/3 394/1/3 395/1/3 396/1/3
f 397/1/5 398/1/5 399/1/5 400/1/5
f 401/1/6 402/1/6 403/1/6 404/1/6
f 405/1/5 406/1/5 407/1/5 408/1/5
f 409/1/6 410/1/6 411/1/6 412/1/6
f 413/1/5 414/1/5 415/1/5 416/1/5
f 417/1/6 418/1/6 419/1/6 420/1/6
f 421/1/5 422/1/5 423/1/5 424/1/5
f 425/1/6 426/1/6 427/1/6 428/1/6
f 429/1/5 430/1/5 431/1/5 432/1/5
f 433/1/6 434/1/6 435/1/6 436/1/6
f 437/1/5 438/1/5 439/1/5 440/1/5
f 441/1/6 442/1/6 443/1/6 444/1/6
f 445/1/5 446/1/5 447/1/5 448/1/5
f 449/1/6 450/1/6 451/1/6 452/1/6
f 453/1/5 454/1/5 455/1/5 456/1/5
f 457/1/6 458/1/6 459/1/6 460/1/6
f 461/1/5 462/1/5 463/1/5 464/1/5
f 465/1/6 466/1/6 467/1/6 468/1/6
f 469/5/5 470/5/5 471/5/5 472/5/5
f 473/5/6 474/5/6 475/5/6 476/5/6
f 477/5/5 478/5/5 479/5/5 480/5/5
f 481/5/6 482/5/6 483/5/6 484/5/6
f 485/4/5 486/4/5 487/4/5 488/4/5
f 489/4/6 490/4/6 491/4/6 492/4/6
f 493/4/3 494/4/3 495/4/3 496/4/3
f 497/4/5 498/4/5 499/4/5 500/4/5
f 501/4/6 502/4/6 503/4/6 504/4/6
f 505/3/3 506/3/3 507/3/3 508/3/3
f 509/3/5 510/3/5 511/3/5 512/3/5
f 513/3/6 514/3/6 515/3/6 516/3/6
f 517/2/3 518/2/3 519/2/3 520/2/3
f 521/2/5 522/2/5 523/2/5 524/2/5
f 525/2/6 526/2/6 527/2/6 528/2/6
f 529/6/3 530/6/3 531/6/3 532/6/3
f 533/6/5 534/6/5 535/6/5 536/6/5
f 537/6/6 538/6/6 539/6/6 540/6/6
f 541/7/2 542/7/2 543/7/2 544/7/2
f 545/7/3 546/7/3 547/7/3 548/7/3
f 549/7/5 550/7/5 551/7/5 552/7/5
f 553/7/6 554/7/6 555/7/6 556/7/6
f 557/1/1 558/1/1 559/1/1 560/1/1
f 561/1/3 562/1/3 563/1/3 564/1/3
f 565/1/5 566/1/5 567/1/5 568/1/5
f 569/1/6 570/1/6 571/1/6 572/1/6
f 573/1/5 574/1/5 575/1/5 576/1/5
f 577/1/6 578/1/6 579/1/6 580/1/6
f 581/1/5 582/1/5 583/1/5 584/1/5
f 585/1/6 586/1/6 587/1/6 588/1/6
f 589/1/5 590/1/5 591/1/5 592/1/5
f 593/1/6 594/1/6 595/1/6 596/1/6
f 597/1/5 598/1/5 599/1/5 600/1/5
f 601/1/6 602/1/6 603/1/6 604/1/6
f 605/1/5 606/1/5 607/1/5 608/1/5
f 609/1/6 610/1/6 611/1/6 612/1/6
f 613/1/5 614/1/5 615/1/5 616/1/5
f 617/1/6 618/1/6 619/1/6 620/1/6
f 621/1/5 622/1/5 623/1/5 624/1/5
f 625/1/6 626/1/6 627/1/6 628/1/6
f 629/1/5 630/1/5 631/1/5 632/1/5
f 633/1/6 634/1/6 635/1/6 636/1/6
f 637/1/5 638/1/5 639/1/5 640/1/5
f 641/1/6 642/1/6 643/1/6 644/1/6
f 645/1/5 646/1/5 647/1/5 648/1/5
f 649/1/6 650/1/6 651/1/6 652/1/6
f 653/5/5 654/5/5 655/5/5 656/5/5
f 657/5/6 658/5/6 659/5/6 660/5/6
f 661/5/5 662/5/5 663/5/5 664/5/5
f 665/5/6 666/5/6 667/5/6 668/5/6
f 669/5/5 670/5/5 671/5/5 672/5/5
f 673/5/6 674/5/6 675/5/6 676/5/6
f 677/4/5 678/4/5 679/4/5 680/4/5
f 681/4/6 682/4/6 683/4/6 684/4/6
f 685/4/5 686/4/5 687/4/5 688/4/5
f 689/4/6 690/4/6 691/4/6 692/4/6
f 693/3/4 694/3/4 695/3/4 696/3/4
f 697/3/5 698/3/5 699/3/5 700/3/5
f 701/3/6 702/3/6 703/3/6 704/3/6
f 705/2/4 706/2/4 707/2/4 708/2/4
f 709/2/5 710/2/5 711/2/5 712/2/5
f 713/2/6 714/2/6 715/2/6 716/2/6
f 717/6/3 718/6/3 719/6/3 720/6/3
f 721/6/4 722/6/4 723/6/4 724/6/4
f 725/6/5 726/6/5 727/6/5 728/6/5
f 729/6/6 730/6/6 731/6/6 732/6/6
f 733/7/2 734/7/2 735/7/2 736/7/2
f 737/7/3 738/7/3 739/7/3 740/7/3
f 741/7/4 742/7/4 743/7/4 744/7/4
f 745/7/5 746/7/5 747/7/5 748/7/5
f 749/7/6 750/7/6 751/7/6 752/7/6
f 753/1/1 754/1/1 755/1/1 756/1/1
f 757/1/3 758/1/3 759/1/3 760/1/3
f 761/1/5 762/1/5 763/1/5 764/1/5
f 765/1/6 766/1/6 767/1/6 768/1/6
f 769/1/5 770/1/5 771/1/5 772/1/5
f 773/1/6 774/1/6 775/1/6 776/1/6
f 777/1/5 778/1/5 779/1/5 780/1/5
f 781/1/6 782/1/6 783/1/6 784/1/6
f 785/1/5 786/1/5 787/1/5 788/1/5
f 789/1/6 790/1/6 791/1/6 792/1/6
f 793/1/5 794/1/5 795/1/5 796/1/5
f 797/1/6 798/1/6 799/1/6 800/1/6
f 801/1/5 802/1/5 803/1/5 804/1/5
f 805/1/6 806/1/6 807/1/6 808/1/6
f 809/1/5 810/1/5 811/1/5 812/1/5
f 813/1/6 814/1/6 815/1/6 816/1/6
f 817/5/5 818/5/5 819/5/5 820/5/5
f 821/5/6 822/5/6 823/5/6 824/5/6
f 825/5/5 826/5/5 827/5/5 828/5/5
f 829/5/6 830/5/6 831/5/6 832/5/6
f 833/5/5 834/5/5 835/5/5 836/5/5
f 837/5/6 838/5/6 839/5/6 840/5/6
f 841/5/5 842/5/5 843/5/5 844/5/5
f 845/5/6 846/5/6 847/5/6 848/5/6
f 849/5/5 850/5/5 851/5/5 852/5/5
f 853/5/6 854/5/6 855/5/6 856/5/6
f 857/4/4 858/4/4 859/4/4 860/4/4
f 861/4/5 862/4/5 863/4/5 864/4/5
f 865/4/6 866/4/6 867/4/6 868/4/6
f 869/4/4 870/4/4 871/4/4 872/4/4
f 873/4/5 874/4/5 875/4/5 876/4/5
f 877/4/6 878/4/6 879/4/6 880/4/6
f 881/4/4 882/4/4 883/4/4 884/4/4
f 885/4/5 886/4/5 887/4/5 888/4/5
f 889/4/6 890/4/6 891/4/6 892/4/6
f 893/4/4 894/4/4 895/4/4 896/4/4
f 897/4/5 898/4/5 899/4/5 900/4/5
f 901/4/6 902/4/6 903/4/6 904/4/6
f 905/3/2 906/3/2 907/3/2 908/3/2
f 909/3/4 910/3/4 911/3/4 912/3/4
f 913/3/5 914/3/5 915/3/5 916/3/5
f 917/3/6 918/3/6 919/3/6 920/3/6
f 921/5/1 922/5/1 923/5/1 924/5/1
f 925/5/3 926/5/3 927/5/3 928/5/3
f 929/5/5 930/5/5 931/5/5 932/5/5
f 933/5/6 934/5/6 935/5/6 936/5/6
f 937/5/5 938/5/5 939/5/5 940/5/5
f 941/5/6 942/5/6 943/5/6 944/5/6
f 945/5/5 946/5/5 947/5/5 948/5/5
f 949/5/6 950/5/6 951/5/6 952/5/6
f 953/5/5 954/5/5 955/5/5 956/5/5
f 957/5/6 958/5/6 959/5/6 960/5/6
f 961/5/5 962/5/5 963/5/5 964/5/5
f 965/5/6 966/5/6 967/5/6 968/5/6
f 969/5/5 970/5/5 971/5/5 972/5/5
f 973/5/6 974/5/6 975/5/6 976/5/6
f 977/5/5 978/5/5 979/5/5 980/5/5
f 981/5/6 982/5/6 983/5/6 984/5/6
f 985/5/5 986/5/5 987/5/5 988/5/5
f 989/5/6 990/5/6 991/5/6 992/5/6
f 993/4/4 994/4/4 995/4/4 996/4/4
f 997/4/5 998/4/5 999/4/5 1000/4/5
f 1001/4/6 1002/4/6 1003/4/6 1004/4/6
f 1005/4/4 1006/4/4 1007/4/4 1008/4/4
f 1009/4/5 1010/4/5 1011/4/5 1012/4/5
f 1013/4/6 1014/4/6 1015/4/6 1016/4/6
f 1017/4/4 1018/4/4 1019/4/4 1020/4/4
f 1021/4/5 1022/4/5 1023/4/5 1024/4/5
f 1025/4/6 1026/4/6 1027/4/6 1028/4/6
f 1029/4/4 1030/4/4 1031/4/4 1032/4/4
f 1033/4/5 1034/4/5 1035/4/5 1036/4/5
f 1037/4/6 1038/4/6 1039/4/6 1040/4/6
f 1041/4/2 1042/4/2 1043/4/2 1044/4/2
f 1045/4/4 1046/4/4 1047/4/4 1048/4/4
f 1049/4/5 1050/4/5 1051/4/5 1052/4/5
f 1053/4/6 1054/4/6 1055/4/6 1056/4/6
f 1057/4/1 1058/4/1 1059/4/1 1060/4/1
f 1061/4/3 1062/4/3 1063/4/3 1064/4/3
f 1065/4/4 1066/4/4 1067/4/4 1068/4/4
f 1069/4/5 1070/4/5 1071/4/5 1072/4/5
f 1073/4/6 1074/4/6 1075/4/6 1076/4/6
f 1077/4/3 1078/4/3 1079/4/3 1080/4/3
f 1081/4/4 1082/4/4 1083/4/4 1084/4/4
f 1085/4/5 1086/4/5 1087/4/5 1088/4/5
f 1089/4/6 1090/4/6 1091/4/6 1092/4/6
f 1093/4/3 1094/4/3 1095/4/3 1096/4/3
f 1097/4/4 1098/4/4 1099/4/4 1100/4/4
f 1101/4/5 1102/4/5 1103/4/5 1104/4/5
f 1105/4/6 1106/4/6 1107/4/6 1108/4/6
f 1109/4/3 1110/4/3 1111/4/3 1112/4/3
f 1113/4/4 1114/4/4 1115/4/4 1116/4/4
f 1117/4/5 1118/4/5 1119/4/5 1120/4/5
f 1121/4/6 1122/4/6 1123/4/6 1124/4/6
f 1125/4/4 1126/4/4 1127/4/4 1128/4/4
f 1129/4/5 1130/4/5 1131/4/5 1132/4/5
f 1133/4/6 1134/4/6 1135/4/6 1136/4/6
f 1137/4/4 1138/4/4 1139/4/4 1140/4/4
f 1141/4/5 1142/4/5 1143/4/5 1144/4/5
f 1145/4/6 1146/4/6 1147/4/6 1148/4/6
f 1149/4/4 1150/4/4 1151/4/4 1152/4/4
f 1153/4/5 1154/4/5 1155/4/5 1156/4/5
f 1157/4/6 1158/4/6 1159/4/6 1160/4/6
f 1161/4/4 1162/4/4 1163/4/4 1164/4/4
f 1165/4/5 1166/4/5 1167/4/5 1168/4/5
f 1169/4/6 1170/4/6 1171/4/6 1172/4/6
f 1173/4/4 1174/4/4 1175/4/4 1176/4/4
f 1177/4/5 1178/4/5 1179/4/5 1180/4/5
f 1181/4/6 1182/4/6 1183/4/6 1184/4/6
f 1185/4/4 1186/4/4 1187/4/4 1188/4/4
f 1189/4/5 1190/4/5 1191/4/5 1192/4/5
f 1193/4/6 1194/4/6 1195/4/6 1196/4/6
f 1197/4/4 1198/4/4 1199/4/4 1200/4/4
f 1201/4/5 1202/4/5 1203/4/5 1204/4/5
f 1205/4/6 1206/4/6 1207/4/6 1208/4/6
f 1209/4/2 1210/4/2 1211/4/2 1212/4/2
f 1213/4/4 1214/4/4 1215/4/4 1216/4/4
f 1217/4/5 1218/4/5 1219/4/5 1220/4/5
f 1221/4/6 1222/4/6 1223/4/6 1224/4/6

