# generated by vox_to_obj_exporter --round
# scale=0.1 center=false ground=false y_up=true
# welded, edge-relaxed, smooth vertex normals

mtllib Fight_739.mtl
usemtl palette

# verts
v 0.01625 2.6 -2.58375
v 0.02167 2.52167 -2.57833
v 0.02167 2.52167 -2.52167
v 0.01625 2.6 -2.51625
v 0.1 2.51625 -2.58375
v 0.1 2.51625 -2.51625
v 0.1 2.6 -2.5
v 0.1 2.6 -2.6
v 0.02167 2.67833 -2.57833
v 0.02167 2.67833 -2.52167
v 0.1 2.68375 -2.51625
v 0.1 2.68375 -2.58375
v 0.01625 4.1 -2.58375
v 0.02167 4.02167 -2.57833
v 0.02167 4.02167 -2.52167
v 0.01625 4.1 -2.51625
v 0.1 4.01625 -2.58375
v 0.1 4.01625 -2.51625
v 0.1 4.1 -2.5
v 0.1 4.1 -2.6
v 0.02167 4.17833 -2.57833
v 0.02167 4.17833 -2.52167
v 0.1 4.18375 -2.51625
v 0.1 4.18375 -2.58375
v 0.2 2.51625 -2.58375
v 0.2 2.51625 -2.51625
v 0.2 2.6 -2.5
v 0.2 2.6 -2.6
v 0.2 2.68375 -2.51625
v 0.2 2.68375 -2.58375
v 0.2 4.01625 -2.58375
v 0.2 4.01625 -2.51625
v 0.2 4.1 -2.5
v 0.2 4.1 -2.6
v 0.2 4.18375 -2.51625
v 0.2 4.18375 -2.58375
v 0.3 2.51625 -2.58375
v 0.3 2.51625 -2.51625
v 0.3 2.6 -2.5
v 0.3 2.6 -2.6
v 0.3 2.68375 -2.51625
v 0.3 2.68375 -2.58375
v 0.3 4.01625 -2.58375
v 0.3 4.01625 -2.51625
v 0.3 4.1 -2.5
v 0.3 4.1 -2.6
v 0.3 4.18375 -2.51625
v 0.3 4.18375 -2.58375
v 0.4 2.51625 -2.58375
v 0.4 2.51625 -2.51625
v 0.4 2.6 -2.5
v 0.4 2.6 -2.6
v 0.4 2.68375 -2.51625
v 0.4 2.68375 -2.58375
v 0.4 4.01625 -2.58375
v 0.4 4.01625 -2.51625
v 0.4 4.1 -2.5
v 0.4 4.1 -2.6
v 0.4 4.18375 -2.51625
v 0.4 4.18375 -2.58375
v 0.5 2.51625 -2.58375
v 0.5 2.51625 -2.51625
v 0.5 2.6 -2.5
v 0.5 2.6 -2.6
v 0.5 2.68375 -2.51625
v 0.5 2.68375 -2.58375
v 0.5 4.01625 -2.58375
v 0.5 4.01625 -2.51625
v 0.5 4.1 -2.5
v 0.5 4.1 -2.6
v 0.5 4.18375 -2.51625
v 0.5 4.18375 -2.58375
v 0.6 2.51625 -2.58375
v 0.6 2.51625 -2.51625
v 0.6 2.6 -2.5
v 0.6 2.6 -2.6
v 0.6 2.68375 -2.51625
v 0.6 2.68375 -2.58375
v 0.6 4.01625 -2.58375
v 0.6 4.01625 -2.51625
v 0.6 4.1 -2.5
v 0.6 4.1 -2.6
v 0.6 4.18375 -2.51625
v 0.6 4.18375 -2.58375
v 0.7 2.51625 -2.58375
v 0.7 2.51625 -2.51625
v 0.7 2.6 -2.5
v 0.7 2.6 -2.6
v 0.7 2.68375 -2.51625
v 0.7 2.68375 -2.58375
v 0.7 4.01625 -2.58375
v 0.7 4.01625 -2.51625
v 0.7 4.1 -2.5
v 0.7 4.1 -2.6
v 0.7 4.18375 -2.51625
v 0.7 4.18375 -2.58375
v 0.8 2.51625 -2.58375
v 0.8 2.51625 -2.51625
v 0.8 2.6 -2.5
v 0.8 2.6 -2.6
v 0.8 2.68375 -2.51625
v 0.8 2.68375 -2.58375
v 0.8 4.01625 -2.58375
v 0.8 4.01625 -2.51625
v 0.8 4.1 -2.5
v 0.8 4.1 -2.6
v 0.8 4.18375 -2.51625
v 0.8 4.18375 -2.58375
v 0.9 2.51625 -2.58375
v 0.9 2.51625 -2.51625
v 0.9 2.6 -2.5
v 0.9 2.6 -2.6
v 0.9 2.68375 -2.51625
v 0.9 2.68375 -2.58375
v 0.9 4.01625 -2.58375
v 0.9 4.01625 -2.51625
v 0.9 4.1 -2.5
v 0.9 4.1 -2.6
v 0.9 4.18375 -2.51625
v 0.9 4.18375 -2.58375
v 1 2.51625 -2.58375
v 1 2.51625 -2.51625
v 1 2.6 -2.5
v 1 2.6 -2.6
v 1 2.68375 -2.51625
v 1 2.68375 -2.58375
v 1 4.01625 -2.58375
v 1 4.01625 -2.51625
v 1 4.1 -2.5
v 1 4.1 -2.6
v 1 4.18375 -2.51625
v 1 4.18375 -2.58375
v 1.1 2.51625 -2.58375
v 1.1 2.51625 -2.51625
v 1.1 2.6 -2.5
v 1.1 2.6 -2.6
v 1.1 2.68375 -2.51625
v 1.1 2.68375 -2.58375
v 1.1 4.01625 -2.58375
v 1.1 4.01625 -2.51625
v 1.1 4.1 -2.5
v 1.1 4.1 -2.6
v 1.1 4.18375 -2.51625
v 1.1 4.18375 -2.58375
v 1.2 2.51625 -2.58375
v 1.2 2.51625 -2.51625
v 1.2 2.6 -2.5
v 1.2 2.6 -2.6
v 1.2 2.68375 -2.51625
v 1.2 2.68375 -2.58375
v 1.2 4.01625 -2.58375
v 1.2 4.01625 -2.51625
v 1.2 4.1 -2.5
v 1.2 4.1 -2.6
v 1.2 4.18375 -2.51625
v 1.2 4.18375 -2.58375
v 1.3 2.51625 -2.58375
v 1.3 2.51625 -2.51625
v 1.3 2.6 -2.5
v 1.3 2.6 -2.6
v 1.3 2.68375 -2.51625
v 1.3 2.68375 -2.58375
v 1.3 4.01625 -2.58375
v 1.3 4.01625 -2.51625
v 1.3 4.1 -2.5
v 1.3 4.1 -2.6
v 1.3 4.18375 -2.51625
v 1.3 4.18375 -2.58375
v 1.4 2.51625 -2.58375
v 1.4 2.51625 -2.51625
v 1.4 2.6 -2.5
v 1.4 2.6 -2.6
v 1.4 2.68375 -2.51625
v 1.4 2.68375 -2.58375
v 1.4 4.01625 -2.58375
v 1.4 4.01625 -2.51625
v 1.4 4.1 -2.5
v 1.4 4.1 -2.6
v 1.4 4.18375 -2.51625
v 1.4 4.18375 -2.58375
v 1.5 2.51625 -2.58375
v 1.5 2.51625 -2.51625
v 1.5 2.6 -2.5
v 1.5 2.6 -2.6
v 1.5 2.68375 -2.51625
v 1.5 2.68375 -2.58375
v 1.5 4 -2.587
v 1.5 4 -2.513
v 1.5 4.1 -2.5
v 1.5 4.1 -2.6
v 1.5 4.18375 -2.51625
v 1.5 4.18375 -2.58375
v 1.6 2.51625 -2.58375
v 1.6 2.51625 -2.51625
v 1.6 2.6 -2.487
v 1.6 2.6 -2.6
v 1.6 2.7 -2.5
v 1.6 2.7 -2.587
v 1.52167 3.92167 -2.57833
v 1.52167 3.92167 -2.52167
v 1.6 3.91625 -2.58375
v 1.6 3.91625 -2.51625
v 1.6 4 -2.5
v 1.6 4 -2.6
v 1.6 4.1 -2.513
v 1.6 4.1 -2.587
v 1.57833 4.17833 -2.52167
v 1.57833 4.17833 -2.57833
v 1.62167 2.62167 -2.42167
v 1.62167 2.67833 -2.42167
v 1.67833 2.67833 -2.42167
v 1.67833 2.62167 -2.42167
v 1.7 2.6 -2.5
v 1.7 2.7 -2.487
v 1.67833 2.52167 -2.52167
v 1.67833 2.52167 -2.57833
v 1.7 2.6 -2.587
v 1.7 2.7 -2.6
v 1.62167 2.77833 -2.57833
v 1.62167 2.77833 -2.52167
v 1.7 2.78375 -2.51625
v 1.7 2.78375 -2.58375
v 1.7 3.9 -2.587
v 1.7 3.9 -2.513
v 1.7 4 -2.5
v 1.7 4 -2.6
v 1.7 4.08375 -2.51625
v 1.7 4.08375 -2.58375
v 1.8 2.61625 -2.58375
v 1.8 2.61625 -2.51625
v 1.8 2.7 -2.5
v 1.8 2.7 -2.6
v 1.8 2.8 -2.513
v 1.8 2.8 -2.587
v 1.72167 3.82167 -2.57833
v 1.72167 3.82167 -2.52167
v 1.8 3.81625 -2.58375
v 1.8 3.81625 -2.51625
v 1.8 3.9 -2.5
v 1.8 3.9 -2.6
v 1.8 4 -2.513
v 1.8 4 -2.587
v 1.77833 4.07833 -2.52167
v 1.77833 4.07833 -2.57833
v 1.9 2.7 -2.513
v 1.87833 2.62167 -2.52167
v 1.87833 2.62167 -2.57833
v 1.9 2.7 -2.587
v 1.9 2.8 -2.5
v 1.9 2.8 -2.6
v 1.82167 2.87833 -2.57833
v 1.82167 2.87833 -2.52167
v 1.9 2.88375 -2.51625
v 1.9 2.88375 -2.58375
v 1.9 3.8 -2.587
v 1.9 3.8 -2.513
v 1.9 3.9 -2.513
v 1.9 3.9 -2.587
v 1.87833 3.97833 -2.52167
v 1.87833 3.97833 -2.57833
v 2 2.71625 -2.58375
v 2 2.71625 -2.51625
v 2 2.8 -2.5
v 2 2.8 -2.6
v 2 2.9 -2.513
v 2 2.9 -2.587
v 1.92167 3.72167 -2.57833
v 1.92167 3.72167 -2.52167
v 2 3.7 -2.587
v 2 3.7 -2.513
v 2 3.8 -2.513
v 2 3.8 -2.587
v 1.97833 3.87833 -2.52167
v 1.97833 3.87833 -2.57833
v 2.1 2.8 -2.513
v 2.07833 2.72167 -2.52167
v 2.07833 2.72167 -2.57833
v 2.1 2.8 -2.587
v 2.1 2.9 -2.5
v 2.1 2.9 -2.6
v 2.02167 2.97833 -2.57833
v 2.02167 2.97833 -2.52167
v 2.1 3 -2.513
v 2.1 3 -2.587
v 2.02167 3.62167 -2.57833
v 2.02167 3.62167 -2.52167
v 2.1 3.6 -2.587
v 2.1 3.6 -2.513
v 2.1 3.7 -2.513
v 2.1 3.7 -2.587
v 2.07833 3.77833 -2.52167
v 2.07833 3.77833 -2.57833
v 2.2 2.9 -2.513
v 2.17833 2.82167 -2.52167
v 2.17833 2.82167 -2.57833
v 2.2 2.9 -2.587
v 2.2 3 -2.5
v 2.2 3 -2.6
v 2.12167 3.07833 -2.57833
v 2.12167 3.07833 -2.52167
v 2.2 3.1 -2.513
v 2.2 3.1 -2.587
v 2.11625 3.5 -2.58375
v 2.12167 3.42167 -2.57833
v 2.12167 3.42167 -2.52167
v 2.11625 3.5 -2.51625
v 2.2 3.4 -2.587
v 2.2 3.4 -2.513
v 2.2 3.5 -2.5
v 2.2 3.5 -2.6
v 2.2 3.6 -2.513
v 2.2 3.6 -2.587
v 2.17833 3.67833 -2.52167
v 2.17833 3.67833 -2.57833
v 2.3 3 -2.513
v 2.27833 2.92167 -2.52167
v 2.27833 2.92167 -2.57833
v 2.3 3 -2.587
v 2.3 3.1 -2.5
v 2.3 3.1 -2.6
v 2.21625 3.2 -2.58375
v 2.21625 3.2 -2.51625
v 2.3 3.2 -2.5
v 2.3 3.2 -2.6
v 2.21625 3.3 -2.58375
v 2.21625 3.3 -2.51625
v 2.3 3.3 -2.5
v 2.3 3.3 -2.6
v 2.3 3.4 -2.5
v 2.3 3.4 -2.6
v 2.3 3.5 -2.513
v 2.3 3.5 -2.587
v 2.27833 3.57833 -2.52167
v 2.27833 3.57833 -2.57833
v 2.38375 3.1 -2.51625
v 2.37833 3.02167 -2.52167
v 2.37833 3.02167 -2.57833
v 2.38375 3.1 -2.58375
v 2.38375 3.2 -2.51625
v 2.38375 3.2 -2.58375
v 2.38375 3.3 -2.51625
v 2.38375 3.3 -2.58375
v 2.38375 3.4 -2.51625
v 2.38375 3.4 -2.58375
v 2.37833 3.47833 -2.52167
v 2.37833 3.47833 -2.57833

# texcoords
vt 0.16992 0.5
vt 0.17773 0.5
vt 0.18164 0.5
vt 0.17383 0.5

# normals
vn -1 0 -0
vn -0.9976 -0.069 -0
vn -0.069 -0.9976 -0
vn -0.0345 -0.9994 -0
vn -0.137 0 0.9906
vn -0.1357 -0.1357 0.9814
vn -0.068 -0.1635 0.9842
vn -0.069 0 0.9976
vn -0.069 0 -0.9976
vn -0.068 -0.1635 -0.9842
vn -0.1357 -0.1357 -0.9814
vn -0.137 0 -0.9906
vn -0.9976 0.069 -0
vn -0.069 0.9976 -0
vn -0.0345 0.9994 -0
vn -0.1357 0.1357 0.9814
vn -0.068 0.1635 0.9842
vn -0.068 0.1635 -0.9842
vn -0.1357 0.1357 -0.9814
vn 0 -1 -0
vn 0 -0.1905 0.9817
vn 0 0 1
vn 0 0 -1
vn 0 -0.1905 -0.9817
vn 0 1 -0
vn 0 0.1905 0.9817
vn 0 0.1905 -0.9817
vn -0.0805 -0.9968 -0
vn -0.0144 -0.1739 0.9847
vn -0.0073 0.0085 0.9999
vn -0.0073 0.0085 -0.9999
vn -0.0144 -0.1739 -0.9847
vn -0.0313 -0.2263 0.9735
vn -0.0557 -0.0272 0.9981
vn -0.0073 -0.0085 -0.9999
vn -0.0805 0.9968 -0
vn -0.0779 0.1734 0.9818
vn -0.0144 0.1739 -0.9847
vn -0.1604 -0.9871 -0
vn -0.0452 -0.1078 0.9931
vn 0.0196 0.0501 0.9986
vn 0.0196 0.0501 -0.9986
vn -0.0452 -0.1078 -0.9931
vn 0.0345 0.9994 -0
vn 0.0532 0.178 0.9826
vn 0.0532 0.178 -0.9826
vn 0.0345 -0.9994 -0
vn 0.0223 -0.2874 0.9575
vn -0.0252 -0.3975 0.9173
vn 0.0196 -0.0501 -0.9986
vn 0.0532 -0.178 -0.9826
vn -0.0934 0.9848 0.1462
vn -0.1604 0.9871 -0
vn -0.0381 -0.1431 0.989
vn -0.1316 0.2339 0.9633
vn -0.0452 0.1078 -0.9931
vn -0.9638 -0.2666 -0
vn -0.1148 -0.9934 -0
vn -0.1063 -0.1649 0.9806
vn -0.0676 -0.1612 0.9846
vn -0.0268 -0.0417 0.9988
vn -0.0268 -0.0417 -0.9988
vn -0.0676 -0.1612 -0.9846
vn -0.1063 -0.1649 -0.9806
vn 0.0452 0.1078 0.9931
vn 0.0452 0.1078 -0.9931
vn 0.9638 0.2666 -0
vn 0.069 0.9976 -0
vn 0.1063 0.1649 0.9806
vn 0.1063 0.1649 -0.9806
vn -0.978 0.1479 0.147
vn -0.9571 0.024 0.2887
vn 0.9571 -0.024 0.2887
vn 0.978 -0.1479 0.147
vn -0.1126 0.8718 0.4767
vn -0.024 0.9571 0.2887
vn -0.0738 0.715 0.6952
vn 0.024 -0.9571 0.2887
vn 0.0255 -0.5714 0.8203
vn 0.1126 -0.8718 0.4767
vn 0.9638 -0.2666 -0
vn 0.069 -0.9976 -0
vn 0.107 -0.311 0.9444
vn 0.1083 -0.5385 0.8356
vn 0.0452 -0.1078 -0.9931
vn 0.1063 -0.1649 -0.9806
vn -0.0268 0.0417 -0.9988
vn -0.9638 0.2666 -0
vn -0.1148 0.9934 -0
vn -0.107 0.311 0.9444
vn -0.1083 0.5385 0.8356
vn 0.0155 0.3872 0.9219
vn -0.039 0.2684 0.9625
vn -0.0676 0.1612 -0.9846
vn -0.1063 0.1649 -0.9806
vn 0.0268 0.0417 0.9988
vn 0.0268 0.0417 -0.9988
vn 0.1604 0.9871 -0
vn 0.1148 0.9934 -0
vn 0.0676 0.1612 0.9846
vn 0.0676 0.1612 -0.9846
vn 0.0934 -0.9848 0.1462
vn 0.1604 -0.9871 -0
vn 0.1148 -0.9934 -0
vn 0.0266 0.13 0.9912
vn 0.1316 -0.2339 0.9633
vn 0.1308 -0.1602 0.9784
vn 0.0738 -0.0244 0.997
vn 0.0268 -0.0417 -0.9988
vn 0.0676 -0.1612 -0.9846
vn -0.0258 0.1305 0.9911
vn -0.0326 -0.1269 0.9914
vn 0.0179 -0.0296 0.9994
vn 0.0179 -0.0296 -0.9994
vn -0.0326 -0.1269 -0.9914
vn 0.081 0.1007 0.9916
vn 0.081 0.1007 -0.9916
vn 0.7071 0.7071 -0
vn 0.1063 -0.1649 0.9806
vn 0.0452 -0.1078 0.9931
vn -0.0268 0.0417 0.9988
vn -0.1063 0.1649 0.9806
vn -0.0676 0.1612 0.9846
vn 0.0138 -0.0294 0.9995
vn 0.0778 0.0345 0.9964
vn 0.0778 0.0345 -0.9964
vn 0.0138 -0.0294 -0.9995
vn 0.1357 0.1357 0.9814
vn 0.1357 0.1357 -0.9814
vn 0.0676 -0.1612 0.9846
vn 0.0268 -0.0417 0.9988
vn -0.0551 0.098 0.9937
vn -0.0551 0.098 -0.9937
vn -0.7071 -0.7071 -0
vn -0.0552 -0.0552 0.997
vn -0.0184 -0.0184 0.9997
vn 0.0184 0.0184 0.9997
vn 0.0184 0.0184 -0.9997
vn -0.0184 -0.0184 -0.9997
vn -0.0552 -0.0552 -0.997
vn 0.0552 0.0552 0.997
vn 0.0552 0.0552 -0.997
vn 0.7071 -0.7071 -0
vn 0.081 -0.1007 0.9916
vn 0.081 -0.1007 -0.9916
vn -0.7071 0.7071 -0
vn -0.0909 0.0909 0.9917
vn -0.0909 0.0909 -0.9917
vn -0.2666 -0.9638 -0
vn -0.0294 0.0138 0.9995
vn -0.0294 0.0138 -0.9995
vn 0.1357 -0.1357 0.9814
vn 0.0909 -0.0909 0.9917
vn 0.0909 -0.0909 -0.9917
vn 0.1357 -0.1357 -0.9814
vn -0.2666 0.9638 -0
vn -0.098 0.0551 0.9937
vn -0.098 0.0551 -0.9937
vn -0.9934 -0.1148 -0
vn -0.1269 -0.0326 0.9914
vn -0.1649 -0.1063 0.9806
vn -0.1078 -0.0452 0.9931
vn -0.0296 0.0179 0.9994
vn -0.0296 0.0179 -0.9994
vn -0.1078 -0.0452 -0.9931
vn -0.1649 -0.1063 -0.9806
vn -0.1269 -0.0326 -0.9914
vn -0.9871 -0.1604 -0
vn 0.0345 0.0778 0.9964
vn 0.0345 0.0778 -0.9964
vn 0.1007 -0.081 0.9916
vn 0.1007 -0.081 -0.9916
vn 0.0501 -0.0196 0.9986
vn 0.0501 -0.0196 -0.9986
vn -0.9968 0.0805 -0
vn -0.9871 0.1604 -0
vn -0.1739 0.0144 0.9847
vn 0.0085 0.0073 0.9999
vn 0.0085 0.0073 -0.9999
vn -0.1739 0.0144 -0.9847
vn -0.9968 -0.0805 -0
vn -0.1739 -0.0144 0.9847
vn 0.0085 -0.0073 0.9999
vn 0.0085 -0.0073 -0.9999
vn -0.1739 -0.0144 -0.9847
vn 0.0501 0.0196 0.9986
vn 0.0501 0.0196 -0.9986
vn 0.1007 0.081 0.9916
vn 0.1007 0.081 -0.9916
vn 0.9994 -0.0345 -0
vn 0.9976 -0.069 -0
vn 0.2666 -0.9638 -0
vn 0.1649 -0.1063 0.9806
vn 0.178 -0.0532 0.9826
vn 0.178 -0.0532 -0.9826
vn 0.1649 -0.1063 -0.9806
vn 1 0 -0
vn 0.1905 0 0.9817
vn 0.1905 0 -0.9817
vn 0.9994 0.0345 -0
vn 0.178 0.0532 0.9826
vn 0.178 0.0532 -0.9826
vn 0.9976 0.069 -0
vn 0.2666 0.9638 -0
vn 0.1649 0.1063 0.9806
vn 0.1649 0.1063 -0.9806

# faces
f 2/1/2 3/1/2 4/1/1
f 2/1/2 4/1/1 1/1/1
f 2/1/3 5/1/4 6/1/4
f 2/1/3 6/1/4 3/1/3
f 3/1/6 6/1/7 7/1/8
f 3/1/6 7/1/8 4/1/5
f 8/1/9 5/1/10 2/1/11
f 8/1/9 2/1/11 1/1/12
f 9/2/13 1/2/1 4/2/1
f 9/2/13 4/2/1 10/2/13
f 9/2/14 10/2/14 11/2/15
f 9/2/14 11/2/15 12/2/15
f 10/2/16 4/2/5 7/2/8
f 10/2/16 7/2/8 11/2/17
f 8/2/9 1/2/12 9/2/19
f 8/2/9 9/2/19 12/2/18
f 14/2/2 15/2/2 16/2/1
f 14/2/2 16/2/1 13/2/1
f 14/2/3 17/2/4 18/2/4
f 14/2/3 18/2/4 15/2/3
f 15/2/6 18/2/7 19/2/8
f 15/2/6 19/2/8 16/2/5
f 20/2/9 17/2/10 14/2/11
f 20/2/9 14/2/11 13/2/12
f 21/1/13 13/1/1 16/1/1
f 21/1/13 16/1/1 22/1/13
f 21/1/14 22/1/14 23/1/15
f 21/1/14 23/1/15 24/1/15
f 22/1/16 16/1/5 19/1/8
f 22/1/16 19/1/8 23/1/17
f 20/1/9 13/1/12 21/1/19
f 20/1/9 21/1/19 24/1/18
f 6/1/4 5/1/4 25/1/20
f 6/1/4 25/1/20 26/1/20
f 7/1/8 6/1/7 26/1/21
f 7/1/8 26/1/21 27/1/22
f 28/1/23 25/1/24 5/1/10
f 28/1/23 5/1/10 8/1/9
f 12/2/15 11/2/15 29/2/25
f 12/2/15 29/2/25 30/2/25
f 11/2/17 7/2/8 27/2/22
f 11/2/17 27/2/22 29/2/26
f 30/2/27 28/2/23 8/2/9
f 30/2/27 8/2/9 12/2/18
f 18/2/4 17/2/4 31/2/20
f 18/2/4 31/2/20 32/2/20
f 19/2/8 18/2/7 32/2/21
f 19/2/8 32/2/21 33/2/22
f 34/2/23 31/2/24 17/2/10
f 34/2/23 17/2/10 20/2/9
f 24/1/15 23/1/15 35/1/25
f 24/1/15 35/1/25 36/1/25
f 23/1/17 19/1/8 33/1/22
f 23/1/17 33/1/22 35/1/26
f 36/1/27 34/1/23 20/1/9
f 36/1/27 20/1/9 24/1/18
f 26/1/20 25/1/20 37/1/20
f 26/1/20 37/1/20 38/1/20
f 27/1/22 26/1/21 38/1/21
f 27/1/22 38/1/21 39/1/22
f 40/1/23 37/1/24 25/1/24
f 40/1/23 25/1/24 28/1/23
f 30/2/25 29/2/25 41/2/25
f 30/2/25 41/2/25 42/2/25
f 29/2/26 27/2/22 39/2/22
f 29/2/26 39/2/22 41/2/26
f 42/2/27 40/2/23 28/2/23
f 42/2/27 28/2/23 30/2/27
f 32/2/20 31/2/20 43/2/20
f 32/2/20 43/2/20 44/2/20
f 33/2/22 32/2/21 44/2/21
f 33/2/22 44/2/21 45/2/22
f 46/2/23 43/2/24 31/2/24
f 46/2/23 31/2/24 34/2/23
f 36/1/25 35/1/25 47/1/25
f 36/1/25 47/1/25 48/1/25
f 35/1/26 33/1/22 45/1/22
f 35/1/26 45/1/22 47/1/26
f 48/1/27 46/1/23 34/1/23
f 48/1/27 34/1/23 36/1/27
f 38/1/20 37/1/20 49/1/20
f 38/1/20 49/1/20 50/1/20
f 39/1/22 38/1/21 50/1/21
f 39/1/22 50/1/21 51/1/22
f 52/1/23 49/1/24 37/1/24
f 52/1/23 37/1/24 40/1/23
f 42/2/25 41/2/25 53/2/25
f 42/2/25 53/2/25 54/2/25
f 41/2/26 39/2/22 51/2/22
f 41/2/26 51/2/22 53/2/26
f 54/2/27 52/2/23 40/2/23
f 54/2/27 40/2/23 42/2/27
f 44/2/20 43/2/20 55/2/20
f 44/2/20 55/2/20 56/2/20
f 45/2/22 44/2/21 56/2/21
f 45/2/22 56/2/21 57/2/22
f 58/2/23 55/2/24 43/2/24
f 58/2/23 43/2/24 46/2/23
f 48/1/25 47/1/25 59/1/25
f 48/1/25 59/1/25 60/1/25
f 47/1/26 45/1/22 57/1/22
f 47/1/26 57/1/22 59/1/26
f 60/1/27 58/1/23 46/1/23
f 60/1/27 46/1/23 48/1/27
f 50/1/20 49/1/20 61/1/20
f 50/1/20 61/1/20 62/1/20
f 51/1/22 50/1/21 62/1/21
f 51/1/22 62/1/21 63/1/22
f 64/1/23 61/1/24 49/1/24
f 64/1/23 49/1/24 52/1/23
f 54/2/25 53/2/25 65/2/25
f 54/2/25 65/2/25 66/2/25
f 53/2/26 51/2/22 63/2/22
f 53/2/26 63/2/22 65/2/26
f 66/2/27 64/2/23 52/2/23
f 66/2/27 52/2/23 54/2/27
f 56/2/20 55/2/20 67/2/20
f 56/2/20 67/2/20 68/2/20
f 57/2/22 56/2/21 68/2/21
f 57/2/22 68/2/21 69/2/22
f 70/2/23 67/2/24 55/2/24
f 70/2/23 55/2/24 58/2/23
f 60/1/25 59/1/25 71/1/25
f 60/1/25 71/1/25 72/1/25
f 59/1/26 57/1/22 69/1/22
f 59/1/26 69/1/22 71/1/26
f 72/1/27 70/1/23 58/1/23
f 72/1/27 58/1/23 60/1/27
f 62/1/20 61/1/20 73/1/20
f 62/1/20 73/1/20 74/1/20
f 63/1/22 62/1/21 74/1/21
f 63/1/22 74/1/21 75/1/22
f 76/1/23 73/1/24 61/1/24
f 76/1/23 61/1/24 64/1/23
f 66/2/25 65/2/25 77/2/25
f 66/2/25 77/2/25 78/2/25
f 65/2/26 63/2/22 75/2/22
f 65/2/26 75/2/22 77/2/26
f 78/2/27 76/2/23 64/2/23
f 78/2/27 64/2/23 66/2/27
f 68/2/20 67/2/20 79/2/20
f 68/2/20 79/2/20 80/2/20
f 69/2/22 68/2/21 80/2/21
f 69/2/22 80/2/21 81/2/22
f 82/2/23 79/2/24 67/2/24
f 82/2/23 67/2/24 70/2/23
f 72/1/25 71/1/25 83/1/25
f 72/1/25 83/1/25 84/1/25
f 71/1/26 69/1/22 81/1/22
f 71/1/26 81/1/22 83/1/26
f 84/1/27 82/1/23 70/1/23
f 84/1/27 70/1/23 72/1/27
f 74/1/20 73/1/20 85/1/20
f 74/1/20 85/1/20 86/1/20
f 75/1/22 74/1/21 86/1/21
f 75/1/22 86/1/21 87/1/22
f 88/1/23 85/1/24 73/1/24
f 88/1/23 73/1/24 76/1/23
f 78/2/25 77/2/25 89/2/25
f 78/2/25 89/2/25 90/2/25
f 77/2/26 75/2/22 87/2/22
f 77/2/26 87/2/22 89/2/26
f 90/2/27 88/2/23 76/2/23
f 90/2/27 76/2/23 78/2/27
f 80/2/20 79/2/20 91/2/20
f 80/2/20 91/2/20 92/2/20
f 81/2/22 80/2/21 92/2/21
f 81/2/22 92/2/21 93/2/22
f 94/2/23 91/2/24 79/2/24
f 94/2/23 79/2/24 82/2/23
f 84/1/25 83/1/25 95/1/25
f 84/1/25 95/1/25 96/1/25
f 83/1/26 81/1/22 93/1/22
f 83/1/26 93/1/22 95/1/26
f 96/1/27 94/1/23 82/1/23
f 96/1/27 82/1/23 84/1/27
f 86/1/20 85/1/20 97/1/20
f 86/1/20 97/1/20 98/1/20
f 87/1/22 86/1/21 98/1/21
f 87/1/22 98/1/21 99/1/22
f 100/1/23 97/1/24 85/1/24
f 100/1/23 85/1/24 88/1/23
f 90/2/25 89/2/25 101/2/25
f 90/2/25 101/2/25 102/2/25
f 89/2/26 87/2/22 99/2/22
f 89/2/26 99/2/22 101/2/26
f 102/2/27 100/2/23 88/2/23
f 102/2/27 88/2/23 90/2/27
f 92/2/20 91/2/20 103/2/20
f 92/2/20 103/2/20 104/2/20
f 93/2/22 92/2/21 104/2/21
f 93/2/22 104/2/21 105/2/22
f 106/2/23 103/2/24 91/2/24
f 106/2/23 91/2/24 94/2/23
f 96/1/25 95/1/25 107/1/25
f 96/1/25 107/1/25 108/1/25
f 95/1/26 93/1/22 105/1/22
f 95/1/26 105/1/22 107/1/26
f 108/1/27 106/1/23 94/1/23
f 108/1/27 94/1/23 96/1/27
f 98/1/20 97/1/20 109/1/20
f 98/1/20 109/1/20 110/1/20
f 99/1/22 98/1/21 110/1/21
f 99/1/22 110/1/21 111/1/22
f 112/1/23 109/1/24 97/1/24
f 112/1/23 97/1/24 100/1/23
f 102/2/25 101/2/25 113/2/25
f 102/2/25 113/2/25 114/2/25
f 101/2/26 99/2/22 111/2/22
f 101/2/26 111/2/22 113/2/26
f 114/2/27 112/2/23 100/2/23
f 114/2/27 100/2/23 102/2/27
f 104/2/20 103/2/20 115/2/20
f 104/2/20 115/2/20 116/2/20
f 105/2/22 104/2/21 116/2/21
f 105/2/22 116/2/21 117/2/22
f 118/2/23 115/2/24 103/2/24
f 118/2/23 103/2/24 106/2/23
f 108/1/25 107/1/25 119/1/25
f 108/1/25 119/1/25 120/1/25
f 107/1/26 105/1/22 117/1/22
f 107/1/26 117/1/22 119/1/26
f 120/1/27 118/1/23 106/1/23
f 120/1/27 106/1/23 108/1/27
f 110/1/20 109/1/20 121/1/20
f 110/1/20 121/1/20 122/1/20
f 111/1/22 110/1/21 122/1/21
f 111/1/22 122/1/21 123/1/22
f 124/1/23 121/1/24 109/1/24
f 124/1/23 109/1/24 112/1/23
f 114/2/25 113/2/25 125/2/25
f 114/2/25 125/2/25 126/2/25
f 113/2/26 111/2/22 123/2/22
f 113/2/26 123/2/22 125/2/26
f 126/2/27 124/2/23 112/2/23
f 126/2/27 112/2/23 114/2/27
f 116/2/20 115/2/20 127/2/20
f 116/2/20 127/2/20 128/2/20
f 117/2/22 116/2/21 128/2/21
f 117/2/22 128/2/21 129/2/22
f 130/2/23 127/2/24 115/2/24
f 130/2/23 115/2/24 118/2/23
f 120/1/25 119/1/25 131/1/25
f 120/1/25 131/1/25 132/1/25
f 119/1/26 117/1/22 129/1/22
f 119/1/26 129/1/22 131/1/26
f 132/1/27 130/1/23 118/1/23
f 132/1/27 118/1/23 120/1/27
f 122/1/20 121/1/20 133/1/20
f 122/1/20 133/1/20 134/1/20
f 123/1/22 122/1/21 134/1/21
f 123/1/22 134/1/21 135/1/22
f 136/1/23 133/1/24 121/1/24
f 136/1/23 121/1/24 124/1/23
f 126/2/25 125/2/25 137/2/25
f 126/2/25 137/2/25 138/2/25
f 125/2/26 123/2/22 135/2/22
f 125/2/26 135/2/22 137/2/26
f 138/2/27 136/2/23 124/2/23
f 138/2/27 124/2/23 126/2/27
f 128/2/20 127/2/20 139/2/20
f 128/2/20 139/2/20 140/2/20
f 129/2/22 128/2/21 140/2/21
f 129/2/22 140/2/21 141/2/22
f 142/2/23 139/2/24 127/2/24
f 142/2/23 127/2/24 130/2/23
f 132/1/25 131/1/25 143/1/25
f 132/1/25 143/1/25 144/1/25
f 131/1/26 129/1/22 141/1/22
f 131/1/26 141/1/22 143/1/26
f 144/1/27 142/1/23 130/1/23
f 144/1/27 130/1/23 132/1/27
f 134/1/20 133/1/20 145/1/20
f 134/1/20 145/1/20 146/1/20
f 135/1/22 134/1/21 146/1/21
f 135/1/22 146/1/21 147/1/22
f 148/1/23 145/1/24 133/1/24
f 148/1/23 133/1/24 136/1/23
f 138/2/25 137/2/25 149/2/25
f 138/2/25 149/2/25 150/2/25
f 137/2/26 135/2/22 147/2/22
f 137/2/26 147/2/22 149/2/26
f 150/2/27 148/2/23 136/2/23
f 150/2/27 136/2/23 138/2/27
f 140/2/20 139/2/20 151/2/20
f 140/2/20 151/2/20 152/2/20
f 141/2/22 140/2/21 152/2/21
f 141/2/22 152/2/21 153/2/22
f 154/2/23 151/2/24 139/2/24
f 154/2/23 139/2/24 142/2/23
f 144/1/25 143/1/25 155/1/25
f 144/1/25 155/1/25 156/1/25
f 143/1/26 141/1/22 153/1/22
f 143/1/26 153/1/22 155/1/26
f 156/1/27 154/1/23 142/1/23
f 156/1/27 142/1/23 144/1/27
f 146/1/20 145/1/20 157/1/20
f 146/1/20 157/1/20 158/1/20
f 147/1/22 146/1/21 158/1/21
f 147/1/22 158/1/21 159/1/22
f 160/1/23 157/1/24 145/1/24
f 160/1/23 145/1/24 148/1/23
f 150/2/25 149/2/25 161/2/25
f 150/2/25 161/2/25 162/2/25
f 149/2/26 147/2/22 159/2/22
f 149/2/26 159/2/22 161/2/26
f 162/2/27 160/2/23 148/2/23
f 162/2/27 148/2/23 150/2/27
f 152/2/20 151/2/20 163/2/20
f 152/2/20 163/2/20 164/2/20
f 153/2/22 152/2/21 164/2/21
f 153/2/22 164/2/21 165/2/22
f 166/2/23 163/2/24 151/2/24
f 166/2/23 151/2/24 154/2/23
f 156/1/25 155/1/25 167/1/25
f 156/1/25 167/1/25 168/1/25
f 155/1/26 153/1/22 165/1/22
f 155/1/26 165/1/22 167/1/26
f 168/1/27 166/1/23 154/1/23
f 168/1/27 154/1/23 156/1/27
f 158/1/20 157/1/20 169/1/20
f 158/1/20 169/1/20 170/1/20
f 159/1/22 158/1/21 170/1/21
f 159/1/22 170/1/21 171/1/22
f 172/1/23 169/1/24 157/1/24
f 172/1/23 157/1/24 160/1/23
f 162/2/25 161/2/25 173/2/25
f 162/2/25 173/2/25 174/2/25
f 161/2/26 159/2/22 171/2/22
f 161/2/26 171/2/22 173/2/26
f 174/2/27 172/2/23 160/2/23
f 174/2/27 160/2/23 162/2/27
f 164/2/20 163/2/20 175/2/28
f 164/2/20 175/2/28 176/2/28
f 165/2/22 164/2/21 176/2/29
f 165/2/22 176/2/29 177/2/30
f 178/2/31 175/2/32 163/2/24
f 178/2/31 163/2/24 166/2/23
f 168/1/25 167/1/25 179/1/25
f 168/1/25 179/1/25 180/1/25
f 167/1/26 165/1/22 177/1/30
f 167/1/26 177/1/30 179/1/26
f 180/1/27 178/1/31 166/1/23
f 180/1/27 166/1/23 168/1/27
f 170/1/20 169/1/20 181/1/20
f 170/1/20 181/1/20 182/1/20
f 171/1/22 170/1/21 182/1/33
f 171/1/22 182/1/33 183/1/34
f 184/1/35 181/1/24 169/1/24
f 184/1/35 169/1/24 172/1/23
f 174/2/25 173/2/25 185/2/36
f 174/2/25 185/2/36 186/2/36
f 173/2/26 171/2/22 183/2/34
f 173/2/26 183/2/34 185/2/37
f 186/2/38 184/2/35 172/2/23
f 186/2/38 172/2/23 174/2/27
f 175/2/28 187/2/39 188/2/39
f 175/2/28 188/2/39 176/2/28
f 176/2/29 188/2/40 189/2/41
f 176/2/29 189/2/41 177/2/30
f 190/2/42 187/2/43 175/2/32
f 190/2/42 175/2/32 178/2/31
f 180/1/25 179/1/25 191/1/44
f 180/1/25 191/1/44 192/1/44
f 179/1/26 177/1/30 189/1/41
f 179/1/26 189/1/41 191/1/45
f 192/1/46 190/1/42 178/1/31
f 192/1/46 178/1/31 180/1/27
f 182/1/20 181/1/20 193/1/47
f 182/1/20 193/1/47 194/1/47
f 183/1/34 182/1/33 194/1/48
f 183/1/34 194/1/48 195/1/49
f 196/1/50 193/1/51 181/1/24
f 196/1/50 181/1/24 184/1/35
f 185/2/36 197/2/52 198/2/53
f 185/2/36 198/2/53 186/2/36
f 185/2/37 183/2/34 195/2/54
f 185/2/37 195/2/54 197/2/55
f 196/2/50 184/2/35 186/2/38
f 196/2/50 186/2/38 198/2/56
f 199/3/57 200/3/57 188/3/57
f 199/3/57 188/3/57 187/3/57
f 199/3/3 201/3/58 202/3/58
f 199/3/3 202/3/58 200/3/3
f 200/3/59 202/3/60 203/3/61
f 200/3/59 203/3/61 188/3/40
f 204/3/62 201/3/63 199/3/64
f 204/3/62 199/3/64 187/3/43
f 189/4/41 188/4/40 203/4/61
f 189/4/41 203/4/61 205/4/65
f 206/4/66 204/4/62 187/4/43
f 206/4/66 187/4/43 190/4/42
f 205/1/67 206/1/67 208/1/67
f 205/1/67 208/1/67 207/1/67
f 191/1/44 207/1/68 208/1/68
f 191/1/44 208/1/68 192/1/44
f 189/1/41 205/1/65 207/1/69
f 189/1/41 207/1/69 191/1/45
f 208/1/70 206/1/66 190/1/42
f 208/1/70 190/1/42 192/1/46
f 195/4/72 209/4/72 210/4/72
f 195/4/72 210/4/72 197/4/71
f 212/4/73 213/4/74 214/4/73
f 212/4/73 214/4/73 211/4/73
f 210/4/76 211/4/76 214/4/77
f 210/4/76 214/4/77 197/4/75
f 195/4/79 213/4/80 212/4/78
f 195/4/79 212/4/78 209/4/78
f 210/4/22 209/4/22 212/4/22
f 210/4/22 212/4/22 211/4/22
f 215/1/81 216/1/81 217/1/81
f 215/1/81 217/1/81 213/1/74
f 194/1/47 193/1/47 216/1/82
f 194/1/47 216/1/82 215/1/82
f 195/1/49 194/1/48 215/1/83
f 195/1/49 215/1/83 213/1/84
f 216/1/86 193/1/51 196/1/50
f 216/1/86 196/1/50 217/1/85
f 218/4/87 217/4/85 196/4/50
f 218/4/87 196/4/50 198/4/56
f 198/3/88 197/3/71 220/3/88
f 198/3/88 220/3/88 219/3/88
f 219/3/14 220/3/14 221/3/89
f 219/3/14 221/3/89 222/3/89
f 220/3/90 197/3/91 214/3/92
f 220/3/90 214/3/92 221/3/93
f 218/3/87 198/3/56 219/3/95
f 218/3/87 219/3/95 222/3/94
f 201/2/58 223/2/39 224/2/39
f 201/2/58 224/2/39 202/2/58
f 202/2/60 224/2/40 225/2/96
f 202/2/60 225/2/96 203/2/61
f 226/2/97 223/2/43 201/2/63
f 226/2/97 201/2/63 204/2/62
f 205/1/98 227/1/99 228/1/99
f 205/1/98 228/1/99 206/1/98
f 203/1/61 225/1/96 227/1/100
f 203/1/61 227/1/100 205/1/65
f 228/1/101 226/1/97 204/1/62
f 228/1/101 204/1/62 206/1/66
f 217/1/103 229/1/104 230/1/104
f 217/1/103 230/1/104 213/1/102
f 214/1/105 213/1/106 230/1/107
f 214/1/105 230/1/107 231/1/108
f 229/1/110 217/1/85 218/1/87
f 229/1/110 218/1/87 232/1/109
f 222/2/89 221/2/89 233/2/53
f 222/2/89 233/2/53 234/2/53
f 221/2/93 214/2/105 231/2/108
f 221/2/93 231/2/108 233/2/111
f 232/2/109 218/2/87 222/2/94
f 232/2/109 222/2/94 234/2/56
f 235/3/57 236/3/57 224/3/57
f 235/3/57 224/3/57 223/3/57
f 235/3/3 237/3/58 238/3/58
f 235/3/3 238/3/58 236/3/3
f 236/3/59 238/3/112 239/3/113
f 236/3/59 239/3/113 224/3/40
f 240/3/114 237/3/115 235/3/64
f 240/3/114 235/3/64 223/3/43
f 225/4/96 224/4/40 239/4/113
f 225/4/96 239/4/113 241/4/116
f 242/4/117 240/4/114 223/4/43
f 242/4/117 223/4/43 226/4/97
f 241/1/118 242/1/118 244/1/67
f 241/1/118 244/1/67 243/1/67
f 227/1/99 243/1/68 244/1/68
f 227/1/99 244/1/68 228/1/99
f 225/1/96 241/1/116 243/1/69
f 225/1/96 243/1/69 227/1/100
f 244/1/70 242/1/117 226/1/97
f 244/1/70 226/1/97 228/1/101
f 245/1/81 246/1/81 247/1/81
f 245/1/81 247/1/81 248/1/81
f 230/1/104 229/1/104 247/1/82
f 230/1/104 247/1/82 246/1/82
f 231/1/108 230/1/107 246/1/119
f 231/1/108 246/1/119 245/1/120
f 247/1/86 229/1/110 232/1/109
f 247/1/86 232/1/109 248/1/85
f 233/4/111 231/4/108 245/4/120
f 233/4/111 245/4/120 249/4/121
f 250/4/87 248/4/85 232/4/109
f 250/4/87 232/4/109 234/4/56
f 251/3/88 234/3/88 233/3/88
f 251/3/88 233/3/88 252/3/88
f 251/3/14 252/3/14 253/3/89
f 251/3/14 253/3/89 254/3/89
f 252/3/122 233/3/111 249/3/121
f 252/3/122 249/3/121 253/3/123
f 250/3/87 234/3/56 251/3/95
f 250/3/87 251/3/95 254/3/94
f 237/2/58 255/2/39 256/2/39
f 237/2/58 256/2/39 238/2/58
f 238/2/112 256/2/124 257/2/125
f 238/2/112 257/2/125 239/2/113
f 258/2/126 255/2/127 237/2/115
f 258/2/126 237/2/115 240/2/114
f 257/1/118 258/1/118 260/1/118
f 257/1/118 260/1/118 259/1/118
f 241/1/118 259/1/118 260/1/118
f 241/1/118 260/1/118 242/1/118
f 239/1/113 257/1/125 259/1/128
f 239/1/113 259/1/128 241/1/116
f 260/1/129 258/1/126 240/1/114
f 260/1/129 240/1/114 242/1/117
f 245/1/103 248/1/103 261/1/104
f 245/1/103 261/1/104 262/1/104
f 249/1/121 245/1/120 262/1/130
f 249/1/121 262/1/130 263/1/131
f 261/1/110 248/1/85 250/1/87
f 261/1/110 250/1/87 264/1/109
f 254/2/89 253/2/89 265/2/53
f 254/2/89 265/2/53 266/2/53
f 253/2/123 249/2/121 263/2/131
f 253/2/123 263/2/131 265/2/132
f 264/2/109 250/2/87 254/2/94
f 264/2/109 254/2/94 266/2/133
f 267/2/134 268/2/134 256/2/57
f 267/2/134 256/2/57 255/2/57
f 267/2/134 269/2/134 270/2/134
f 267/2/134 270/2/134 268/2/134
f 268/2/135 270/2/136 271/2/137
f 268/2/135 271/2/137 256/2/124
f 272/2/138 269/2/139 267/2/140
f 272/2/138 267/2/140 255/2/127
f 271/1/118 272/1/118 274/1/118
f 271/1/118 274/1/118 273/1/118
f 257/1/118 273/1/118 274/1/118
f 257/1/118 274/1/118 258/1/118
f 256/1/124 271/1/137 273/1/141
f 256/1/124 273/1/141 257/1/125
f 274/1/142 272/1/138 255/1/127
f 274/1/142 255/1/127 258/1/126
f 275/1/143 276/1/81 277/1/81
f 275/1/143 277/1/81 278/1/143
f 262/1/104 261/1/104 277/1/82
f 262/1/104 277/1/82 276/1/82
f 263/1/131 262/1/130 276/1/119
f 263/1/131 276/1/119 275/1/144
f 277/1/86 261/1/110 264/1/109
f 277/1/86 264/1/109 278/1/145
f 265/4/132 263/4/131 275/4/144
f 265/4/132 275/4/144 279/4/22
f 280/4/23 278/4/145 264/4/109
f 280/4/23 264/4/109 266/4/133
f 281/3/146 266/3/88 265/3/88
f 281/3/146 265/3/88 282/3/146
f 281/3/146 282/3/146 283/3/146
f 281/3/146 283/3/146 284/3/146
f 282/3/16 265/3/132 279/3/22
f 282/3/16 279/3/22 283/3/147
f 280/3/23 266/3/133 281/3/19
f 280/3/23 281/3/19 284/3/148
f 285/2/134 286/2/134 270/2/134
f 285/2/134 270/2/134 269/2/134
f 285/2/134 287/2/149 288/2/149
f 285/2/134 288/2/149 286/2/134
f 286/2/135 288/2/150 289/2/137
f 286/2/135 289/2/137 270/2/136
f 290/2/138 287/2/151 285/2/140
f 290/2/138 285/2/140 269/2/139
f 289/1/118 290/1/118 292/1/118
f 289/1/118 292/1/118 291/1/118
f 271/1/118 291/1/118 292/1/118
f 271/1/118 292/1/118 272/1/118
f 270/1/136 289/1/137 291/1/141
f 270/1/136 291/1/141 271/1/137
f 292/1/142 290/1/138 269/1/139
f 292/1/142 269/1/139 272/1/138
f 293/1/143 294/1/143 295/1/143
f 293/1/143 295/1/143 296/1/143
f 275/1/143 278/1/143 295/1/143
f 275/1/143 295/1/143 294/1/143
f 279/1/22 275/1/144 294/1/152
f 279/1/22 294/1/152 293/1/153
f 295/1/155 278/1/145 280/1/23
f 295/1/155 280/1/23 296/1/154
f 283/2/147 279/2/22 293/2/153
f 283/2/147 293/2/153 297/2/22
f 298/2/23 296/2/154 280/2/23
f 298/2/23 280/2/23 284/2/148
f 299/3/146 284/3/146 283/3/146
f 299/3/146 283/3/146 300/3/146
f 299/3/146 300/3/146 301/3/156
f 299/3/146 301/3/156 302/3/156
f 300/3/16 283/3/147 297/3/22
f 300/3/16 297/3/22 301/3/157
f 298/3/23 284/3/148 299/3/19
f 298/3/23 299/3/19 302/3/158
f 304/3/2 305/3/2 306/3/159
f 304/3/2 306/3/159 303/3/159
f 304/3/149 307/3/149 308/3/149
f 304/3/149 308/3/149 305/3/149
f 305/3/161 308/3/162 309/3/163
f 305/3/161 309/3/163 306/3/160
f 310/3/164 307/3/165 304/3/166
f 310/3/164 304/3/166 303/3/167
f 303/2/159 306/2/159 288/2/168
f 303/2/159 288/2/168 287/2/168
f 306/2/160 309/2/163 311/2/169
f 306/2/160 311/2/169 288/2/150
f 312/2/170 310/2/164 303/2/167
f 312/2/170 303/2/167 287/2/151
f 311/1/118 312/1/118 314/1/118
f 311/1/118 314/1/118 313/1/118
f 289/1/118 313/1/118 314/1/118
f 289/1/118 314/1/118 290/1/118
f 288/1/150 311/1/169 313/1/141
f 288/1/150 313/1/141 289/1/137
f 314/1/142 312/1/170 287/1/151
f 314/1/142 287/1/151 290/1/138
f 315/1/143 316/1/143 317/1/143
f 315/1/143 317/1/143 318/1/143
f 293/1/143 296/1/143 317/1/143
f 293/1/143 317/1/143 316/1/143
f 297/1/22 293/1/153 316/1/152
f 297/1/22 316/1/152 315/1/171
f 317/1/155 296/1/154 298/1/23
f 317/1/155 298/1/23 318/1/172
f 301/4/157 297/4/22 315/4/171
f 301/4/157 315/4/171 319/4/173
f 320/4/174 318/4/172 298/4/23
f 320/4/174 298/4/23 302/4/158
f 321/2/175 302/2/176 301/2/176
f 321/2/175 301/2/176 322/2/175
f 322/2/177 301/2/157 319/2/173
f 322/2/177 319/2/173 323/2/178
f 320/2/174 302/2/158 321/2/180
f 320/2/174 321/2/180 324/2/179
f 325/2/181 321/2/175 322/2/175
f 325/2/181 322/2/175 326/2/181
f 326/2/182 322/2/177 323/2/178
f 326/2/182 323/2/178 327/2/183
f 328/2/184 324/2/179 321/2/180
f 328/2/184 321/2/180 325/2/185
f 325/2/181 326/2/181 308/2/168
f 325/2/181 308/2/168 307/2/168
f 326/2/182 327/2/183 329/2/186
f 326/2/182 329/2/186 308/2/162
f 330/2/187 328/2/184 325/2/185
f 330/2/187 325/2/185 307/2/165
f 309/4/163 308/4/162 329/4/186
f 309/4/163 329/4/186 331/4/188
f 332/4/189 330/4/187 307/4/165
f 332/4/189 307/4/165 310/4/164
f 331/1/118 332/1/118 334/1/118
f 331/1/118 334/1/118 333/1/118
f 311/1/118 333/1/118 334/1/118
f 311/1/118 334/1/118 312/1/118
f 309/1/163 331/1/188 333/1/128
f 309/1/163 333/1/128 311/1/169
f 334/1/129 332/1/189 310/1/164
f 334/1/129 310/1/164 312/1/170
f 335/1/190 336/1/191 337/1/191
f 335/1/190 337/1/191 338/1/190
f 315/1/143 318/1/143 337/1/192
f 315/1/143 337/1/192 336/1/192
f 319/1/173 315/1/171 336/1/193
f 319/1/173 336/1/193 335/1/194
f 337/1/196 318/1/172 320/1/174
f 337/1/196 320/1/174 338/1/195
f 339/1/197 335/1/190 338/1/190
f 339/1/197 338/1/190 340/1/197
f 323/1/178 319/1/173 335/1/194
f 323/1/178 335/1/194 339/1/198
f 340/1/199 338/1/195 320/1/174
f 340/1/199 320/1/174 324/1/179
f 341/1/197 339/1/197 340/1/197
f 341/1/197 340/1/197 342/1/197
f 327/1/183 323/1/178 339/1/198
f 327/1/183 339/1/198 341/1/198
f 342/1/199 340/1/199 324/1/179
f 342/1/199 324/1/179 328/1/184
f 343/1/200 341/1/197 342/1/197
f 343/1/200 342/1/197 344/1/200
f 329/1/186 327/1/183 341/1/198
f 329/1/186 341/1/198 343/1/201
f 344/1/202 342/1/199 328/1/184
f 344/1/202 328/1/184 330/1/187
f 343/1/200 344/1/200 346/1/203
f 343/1/200 346/1/203 345/1/203
f 331/1/118 345/1/204 346/1/204
f 331/1/118 346/1/204 332/1/118
f 329/1/186 343/1/201 345/1/205
f 329/1/186 345/1/205 331/1/188
f 346/1/206 344/1/202 330/1/187
f 346/1/206 330/1/187 332/1/189

