# generated by vox_to_obj_exporter
# scale=0.1 center=false ground=false y_up=true

mtllib Fight_714.mtl
usemtl palette

# normals
vn -1 0 0
vn 1 0 0
vn 0 1 0
vn 0 -1 0
vn 0 0 1
vn 0 0 -1

# texcoords
vt 0.271484375 0.5
vt 0.279296875 0.5
vt 0.275390625 0.5

# verts
v 14.5 4.3 -2.6
v 14.5 4.2 -2.6
v 14.5 4.2 -2.5
v 14.5 4.3 -2.5
v 14.6 4.3 -2.5
v 14.6 4.2 -2.5
v 14.6 4.2 -2.6
v 14.6 4.3 -2.6
v 14.5 4.3 -2.6
v 14.5 4.3 -2.5
v 14.6 4.3 -2.5
v 14.6 4.3 -2.6
v 14.5 4.3 -2.5
v 14.5 4.2 -2.5
v 14.6 4.2 -2.5
v 14.6 4.3 -2.5
v 14.6 4.3 -2.6
v 14.6 4.2 -2.6
v 14.5 4.2 -2.6
v 14.5 4.3 -2.6
v 14.5 4.2 -2.6
v 14.5 4.1 -2.6
v 14.5 4.1 -2.5
v 14.5 4.2 -2.5
v 14.6 4.2 -2.5
v 14.6 4.1 -2.5
v 14.6 4.1 -2.6
v 14.6 4.2 -2.6
v 14.5 4.2 -2.5
v 14.5 4.1 -2.5
v 14.6 4.1 -2.5
v 14.6 4.2 -2.5
v 14.6 4.2 -2.6
v 14.6 4.1 -2.6
v 14.5 4.1 -2.6
v 14.5 4.2 -2.6
v 14.5 4.1 -2.6
v 14.5 4 -2.6
v 14.5 4 -2.5
v 14.5 4.1 -2.5
v 14.6 4.1 -2.5
v 14.6 4 -2.5
v 14.6 4 -2.6
v 14.6 4.1 -2.6
v 14.5 4.1 -2.5
v 14.5 4 -2.5
v 14.6 4 -2.5
v 14.6 4.1 -2.5
v 14.6 4.1 -2.6
v 14.6 4 -2.6
v 14.5 4 -2.6
v 14.5 4.1 -2.6
v 14.5 4 -2.6
v 14.5 3.9 -2.6
v 14.5 3.9 -2.5
v 14.5 4 -2.5
v 14.6 4 -2.5
v 14.6 3.9 -2.5
v 14.6 3.9 -2.6
v 14.6 4 -2.6
v 14.5 4 -2.5
v 14.5 3.9 -2.5
v 14.6 3.9 -2.5
v 14.6 4 -2.5
v 14.6 4 -2.6
v 14.6 3.9 -2.6
v 14.5 3.9 -2.6
v 14.5 4 -2.6
v 14.5 3.9 -2.6
v 14.5 3.8 -2.6
v 14.5 3.8 -2.5
v 14.5 3.9 -2.5
v 14.5 3.9 -2.5
v 14.5 3.8 -2.5
v 14.6 3.8 -2.5
v 14.6 3.9 -2.5
v 14.6 3.9 -2.6
v 14.6 3.8 -2.6
v 14.5 3.8 -2.6
v 14.5 3.9 -2.6
v 14.7 3.9 -2.5
v 14.7 3.8 -2.5
v 14.7 3.8 -2.6
v 14.7 3.9 -2.6
v 14.6 3.9 -2.6
v 14.6 3.9 -2.5
v 14.7 3.9 -2.5
v 14.7 3.9 -2.6
v 14.6 3.9 -2.5
v 14.6 3.8 -2.5
v 14.7 3.8 -2.5
v 14.7 3.9 -2.5
v 14.7 3.9 -2.6
v 14.7 3.8 -2.6
v 14.6 3.8 -2.6
v 14.6 3.9 -2.6
v 14.5 3.8 -2.6
v 14.5 3.7 -2.6
v 14.5 3.7 -2.5
v 14.5 3.8 -2.5
v 14.5 3.8 -2.5
v 14.5 3.7 -2.5
v 14.6 3.7 -2.5
v 14.6 3.8 -2.5
v 14.6 3.8 -2.6
v 14.6 3.7 -2.6
v 14.5 3.7 -2.6
v 14.5 3.8 -2.6
v 14.7 3.8 -2.5
v 14.7 3.7 -2.5
v 14.7 3.7 -2.6
v 14.7 3.8 -2.6
v 14.6 3.8 -2.5
v 14.6 3.7 -2.5
v 14.7 3.7 -2.5
v 14.7 3.8 -2.5
v 14.7 3.8 -2.6
v 14.7 3.7 -2.6
v 14.6 3.7 -2.6
v 14.6 3.8 -2.6
v 14.5 3.7 -2.6
v 14.5 3.6 -2.6
v 14.5 3.6 -2.5
v 14.5 3.7 -2.5
v 14.5 3.7 -2.5
v 14.5 3.6 -2.5
v 14.6 3.6 -2.5
v 14.6 3.7 -2.5
v 14.6 3.7 -2.6
v 14.6 3.6 -2.6
v 14.5 3.6 -2.6
v 14.5 3.7 -2.6
v 14.7 3.7 -2.5
v 14.7 3.6 -2.5
v 14.7 3.6 -2.6
v 14.7 3.7 -2.6
v 14.6 3.7 -2.5
v 14.6 3.6 -2.5
v 14.7 3.6 -2.5
v 14.7 3.7 -2.5
v 14.7 3.7 -2.6
v 14.7 3.6 -2.6
v 14.6 3.6 -2.6
v 14.6 3.7 -2.6
v 14.5 3.6 -2.6
v 14.5 3.5 -2.6
v 14.5 3.5 -2.5
v 14.5 3.6 -2.5
v 14.5 3.6 -2.5
v 14.5 3.5 -2.5
v 14.6 3.5 -2.5
v 14.6 3.6 -2.5
v 14.6 3.6 -2.6
v 14.6 3.5 -2.6
v 14.5 3.5 -2.6
v 14.5 3.6 -2.6
v 14.7 3.6 -2.5
v 14.7 3.5 -2.5
v 14.7 3.5 -2.6
v 14.7 3.6 -2.6
v 14.6 3.6 -2.5
v 14.6 3.5 -2.5
v 14.7 3.5 -2.5
v 14.7 3.6 -2.5
v 14.7 3.6 -2.6
v 14.7 3.5 -2.6
v 14.6 3.5 -2.6
v 14.6 3.6 -2.6
v 14.5 3.5 -2.6
v 14.5 3.4 -2.6
v 14.5 3.4 -2.5
v 14.5 3.5 -2.5
v 14.5 3.5 -2.5
v 14.5 3.4 -2.5
v 14.6 3.4 -2.5
v 14.6 3.5 -2.5
v 14.6 3.5 -2.6
v 14.6 3.4 -2.6
v 14.5 3.4 -2.6
v 14.5 3.5 -2.6
v 14.7 3.5 -2.5
v 14.7 3.4 -2.5
v 14.7 3.4 -2.6
v 14.7 3.5 -2.6
v 14.6 3.5 -2.5
v 14.6 3.4 -2.5
v 14.7 3.4 -2.5
v 14.7 3.5 -2.5
v 14.7 3.5 -2.6
v 14.7 3.4 -2.6
v 14.6 3.4 -2.6
v 14.6 3.5 -2.6
v 14.5 3.4 -2.6
v 14.5 3.3 -2.6
v 14.5 3.3 -2.5
v 14.5 3.4 -2.5
v 14.5 3.4 -2.5
v 14.5 3.3 -2.5
v 14.6 3.3 -2.5
v 14.6 3.4 -2.5
v 14.6 3.4 -2.6
v 14.6 3.3 -2.6
v 14.5 3.3 -2.6
v 14.5 3.4 -2.6
v 14.6 3.4 -2.5
v 14.6 3.3 -2.5
v 14.7 3.3 -2.5
v 14.7 3.4 -2.5
v 14.7 3.4 -2.6
v 14.7 3.3 -2.6
v 14.6 3.3 -2.6
v 14.6 3.4 -2.6
v 14.8 3.4 -2.5
v 14.8 3.3 -2.5
v 14.8 3.3 -2.6
v 14.8 3.4 -2.6
v 14.7 3.4 -2.6
v 14.7 3.4 -2.5
v 14.8 3.4 -2.5
v 14.8 3.4 -2.6
v 14.7 3.4 -2.5
v 14.7 3.3 -2.5
v 14.8 3.3 -2.5
v 14.8 3.4 -2.5
v 14.8 3.4 -2.6
v 14.8 3.3 -2.6
v 14.7 3.3 -2.6
v 14.7 3.4 -2.6
v 14.5 3.3 -2.6
v 14.5 3.2 -2.6
v 14.5 3.2 -2.5
v 14.5 3.3 -2.5
v 14.5 3.3 -2.5
v 14.5 3.2 -2.5
v 14.6 3.2 -2.5
v 14.6 3.3 -2.5
v 14.6 3.3 -2.6
v 14.6 3.2 -2.6
v 14.5 3.2 -2.6
v 14.5 3.3 -2.6
v 14.6 3.3 -2.5
v 14.6 3.2 -2.5
v 14.7 3.2 -2.5
v 14.7 3.3 -2.5
v 14.7 3.3 -2.6
v 14.7 3.2 -2.6
v 14.6 3.2 -2.6
v 14.6 3.3 -2.6
v 14.8 3.3 -2.5
v 14.8 3.2 -2.5
v 14.8 3.2 -2.6
v 14.8 3.3 -2.6
v 14.7 3.2 -2.5
v 14.7 3.2 -2.6
v 14.8 3.2 -2.6
v 14.8 3.2 -2.5
v 14.7 3.3 -2.5
v 14.7 3.2 -2.5
v 14.8 3.2 -2.5
v 14.8 3.3 -2.5
v 14.8 3.3 -2.6
v 14.8 3.2 -2.6
v 14.7 3.2 -2.6
v 14.7 3.3 -2.6
v 14.5 3.2 -2.6
v 14.5 3.1 -2.6
v 14.5 3.1 -2.5
v 14.5 3.2 -2.5
v 14.5 3.2 -2.5
v 14.5 3.1 -2.5
v 14.6 3.1 -2.5
v 14.6 3.2 -2.5
v 14.6 3.2 -2.6
v 14.6 3.1 -2.6
v 14.5 3.1 -2.6
v 14.5 3.2 -2.6
v 14.7 3.2 -2.5
v 14.7 3.1 -2.5
v 14.7 3.1 -2.6
v 14.7 3.2 -2.6
v 14.6 3.2 -2.5
v 14.6 3.1 -2.5
v 14.7 3.1 -2.5
v 14.7 3.2 -2.5
v 14.7 3.2 -2.6
v 14.7 3.1 -2.6
v 14.6 3.1 -2.6
v 14.6 3.2 -2.6
v 14.5 3.1 -2.6
v 14.5 3 -2.6
v 14.5 3 -2.5
v 14.5 3.1 -2.5
v 14.5 3.1 -2.5
v 14.5 3 -2.5
v 14.6 3 -2.5
v 14.6 3.1 -2.5
v 14.6 3.1 -2.6
v 14.6 3 -2.6
v 14.5 3 -2.6
v 14.5 3.1 -2.6
v 14.7 3.1 -2.5
v 14.7 3 -2.5
v 14.7 3 -2.6
v 14.7 3.1 -2.6
v 14.6 3.1 -2.5
v 14.6 3 -2.5
v 14.7 3 -2.5
v 14.7 3.1 -2.5
v 14.7 3.1 -2.6
v 14.7 3 -2.6
v 14.6 3 -2.6
v 14.6 3.1 -2.6
v 14.5 3 -2.6
v 14.5 2.9 -2.6
v 14.5 2.9 -2.5
v 14.5 3 -2.5
v 14.5 3 -2.5
v 14.5 2.9 -2.5
v 14.6 2.9 -2.5
v 14.6 3 -2.5
v 14.6 3 -2.6
v 14.6 2.9 -2.6
v 14.5 2.9 -2.6
v 14.5 3 -2.6
v 14.7 3 -2.5
v 14.7 2.9 -2.5
v 14.7 2.9 -2.6
v 14.7 3 -2.6
v 14.6 3 -2.5
v 14.6 2.9 -2.5
v 14.7 2.9 -2.5
v 14.7 3 -2.5
v 14.7 3 -2.6
v 14.7 2.9 -2.6
v 14.6 2.9 -2.6
v 14.6 3 -2.6
v 14.5 2.9 -2.6
v 14.5 2.8 -2.6
v 14.5 2.8 -2.5
v 14.5 2.9 -2.5
v 14.5 2.9 -2.5
v 14.5 2.8 -2.5
v 14.6 2.8 -2.5
v 14.6 2.9 -2.5
v 14.6 2.9 -2.6
v 14.6 2.8 -2.6
v 14.5 2.8 -2.6
v 14.5 2.9 -2.6
v 14.7 2.9 -2.5
v 14.7 2.8 -2.5
v 14.7 2.8 -2.6
v 14.7 2.9 -2.6
v 14.6 2.8 -2.5
v 14.6 2.8 -2.6
v 14.7 2.8 -2.6
v 14.7 2.8 -2.5
v 14.6 2.9 -2.5
v 14.6 2.8 -2.5
v 14.7 2.8 -2.5
v 14.7 2.9 -2.5
v 14.7 2.9 -2.6
v 14.7 2.8 -2.6
v 14.6 2.8 -2.6
v 14.6 2.9 -2.6
v 14.4 2.8 -2.6
v 14.4 2.7 -2.6
v 14.4 2.7 -2.5
v 14.4 2.8 -2.5
v 14.4 2.8 -2.6
v 14.4 2.8 -2.5
v 14.5 2.8 -2.5
v 14.5 2.8 -2.6
v 14.4 2.8 -2.5
v 14.4 2.7 -2.5
v 14.5 2.7 -2.5
v 14.5 2.8 -2.5
v 14.5 2.8 -2.6
v 14.5 2.7 -2.6
v 14.4 2.7 -2.6
v 14.4 2.8 -2.6
v 14.6 2.8 -2.5
v 14.6 2.7 -2.5
v 14.6 2.7 -2.6
v 14.6 2.8 -2.6
v 14.5 2.8 -2.5
v 14.5 2.7 -2.5
v 14.6 2.7 -2.5
v 14.6 2.8 -2.5
v 14.6 2.8 -2.6
v 14.6 2.7 -2.6
v 14.5 2.7 -2.6
v 14.5 2.8 -2.6
v 14.7 2.8 -2.6
v 14.7 2.7 -2.6
v 14.7 2.7 -2.5
v 14.7 2.8 -2.5
v 14.8 2.8 -2.5
v 14.8 2.7 -2.5
v 14.8 2.7 -2.6
v 14.8 2.8 -2.6
v 14.7 2.8 -2.6
v 14.7 2.8 -2.5
v 14.8 2.8 -2.5
v 14.8 2.8 -2.6
v 14.7 2.8 -2.5
v 14.7 2.7 -2.5
v 14.8 2.7 -2.5
v 14.8 2.8 -2.5
v 14.8 2.8 -2.6
v 14.8 2.7 -2.6
v 14.7 2.7 -2.6
v 14.7 2.8 -2.6
v 14.4 2.7 -2.6
v 14.4 2.6 -2.6
v 14.4 2.6 -2.5
v 14.4 2.7 -2.5
v 14.4 2.7 -2.5
v 14.4 2.6 -2.5
v 14.5 2.6 -2.5
v 14.5 2.7 -2.5
v 14.5 2.7 -2.6
v 14.5 2.6 -2.6
v 14.4 2.6 -2.6
v 14.4 2.7 -2.6
v 14.6 2.7 -2.5
v 14.6 2.6 -2.5
v 14.6 2.6 -2.6
v 14.6 2.7 -2.6
v 14.5 2.7 -2.5
v 14.5 2.6 -2.5
v 14.6 2.6 -2.5
v 14.6 2.7 -2.5
v 14.6 2.7 -2.6
v 14.6 2.6 -2.6
v 14.5 2.6 -2.6
v 14.5 2.7 -2.6
v 14.7 2.7 -2.6
v 14.7 2.6 -2.6
v 14.7 2.6 -2.5
v 14.7 2.7 -2.5
v 14.8 2.7 -2.5
v 14.8 2.6 -2.5
v 14.8 2.6 -2.6
v 14.8 2.7 -2.6
v 14.7 2.7 -2.5
v 14.7 2.6 -2.5
v 14.8 2.6 -2.5
v 14.8 2.7 -2.5
v 14.8 2.7 -2.6
v 14.8 2.6 -2.6
v 14.7 2.6 -2.6
v 14.7 2.7 -2.6
v 12.1 2.6 -2.6
v 12.1 2.5 -2.6
v 12.1 2.5 -2.5
v 12.1 2.6 -2.5
v 12.2 2.6 -2.5
v 12.2 2.5 -2.5
v 12.2 2.5 -2.6
v 12.2 2.6 -2.6
v 12.1 2.6 -2.6
v 12.1 2.6 -2.5
v 12.2 2.6 -2.5
v 12.2 2.6 -2.6
v 12.1 2.5 -2.5
v 12.1 2.5 -2.6
v 12.2 2.5 -2.6
v 12.2 2.5 -2.5
v 12.1 2.6 -2.5
v 12.1 2.5 -2.5
v 12.2 2.5 -2.5
v 12.2 2.6 -2.5
v 12.2 2.6 -2.6
v 12.2 2.5 -2.6
v 12.1 2.5 -2.6
v 12.1 2.6 -2.6
v 14.4 2.6 -2.6
v 14.4 2.5 -2.6
v 14.4 2.5 -2.5
v 14.4 2.6 -2.5
v 14.4 2.6 -2.5
v 14.4 2.5 -2.5
v 14.5 2.5 -2.5
v 14.5 2.6 -2.5
v 14.5 2.6 -2.6
v 14.5 2.5 -2.6
v 14.4 2.5 -2.6
v 14.4 2.6 -2.6
v 14.6 2.6 -2.5
v 14.6 2.5 -2.5
v 14.6 2.5 -2.6
v 14.6 2.6 -2.6
v 14.5 2.5 -2.5
v 14.5 2.5 -2.6
v 14.6 2.5 -2.6
v 14.6 2.5 -2.5
v 14.5 2.6 -2.5
v 14.5 2.5 -2.5
v 14.6 2.5 -2.5
v 14.6 2.6 -2.5
v 14.6 2.6 -2.6
v 14.6 2.5 -2.6
v 14.5 2.5 -2.6
v 14.5 2.6 -2.6
v 14.7 2.6 -2.6
v 14.7 2.5 -2.6
v 14.7 2.5 -2.5
v 14.7 2.6 -2.5
v 14.8 2.6 -2.5
v 14.8 2.5 -2.5
v 14.8 2.5 -2.6
v 14.8 2.6 -2.6
v 14.7 2.6 -2.5
v 14.7 2.5 -2.5
v 14.8 2.5 -2.5
v 14.8 2.6 -2.5
v 14.8 2.6 -2.6
v 14.8 2.5 -2.6
v 14.7 2.5 -2.6
v 14.7 2.6 -2.6
v 14.3 2.5 -2.6
v 14.3 2.4 -2.6
v 14.3 2.4 -2.5
v 14.3 2.5 -2.5
v 14.3 2.5 -2.6
v 14.3 2.5 -2.5
v 14.4 2.5 -2.5
v 14.4 2.5 -2.6
v 14.3 2.5 -2.5
v 14.3 2.4 -2.5
v 14.4 2.4 -2.5
v 14.4 2.5 -2.5
v 14.4 2.5 -2.6
v 14.4 2.4 -2.6
v 14.3 2.4 -2.6
v 14.3 2.5 -2.6
v 14.5 2.5 -2.5
v 14.5 2.4 -2.5
v 14.5 2.4 -2.6
v 14.5 2.5 -2.6
v 14.4 2.5 -2.5
v 14.4 2.4 -2.5
v 14.5 2.4 -2.5
v 14.5 2.5 -2.5
v 14.5 2.5 -2.6
v 14.5 2.4 -2.6
v 14.4 2.4 -2.6
v 14.4 2.5 -2.6
v 14.6 2.5 -2.6
v 14.6 2.4 -2.6
v 14.6 2.4 -2.5
v 14.6 2.5 -2.5
v 14.6 2.5 -2.6
v 14.6 2.5 -2.5
v 14.7 2.5 -2.5
v 14.7 2.5 -2.6
v 14.6 2.5 -2.5
v 14.6 2.4 -2.5
v 14.7 2.4 -2.5
v 14.7 2.5 -2.5
v 14.7 2.5 -2.6
v 14.7 2.4 -2.6
v 14.6 2.4 -2.6
v 14.6 2.5 -2.6
v 14.8 2.5 -2.5
v 14.8 2.4 -2.5
v 14.8 2.4 -2.6
v 14.8 2.5 -2.6
v 14.7 2.5 -2.5
v 14.7 2.4 -2.5
v 14.8 2.4 -2.5
v 14.8 2.5 -2.5
v 14.8 2.5 -2.6
v 14.8 2.4 -2.6
v 14.7 2.4 -2.6
v 14.7 2.5 -2.6
v 12.3 2.4 -2.6
v 12.3 2.3 -2.6
v 12.3 2.3 -2.5
v 12.3 2.4 -2.5
v 12.4 2.4 -2.5
v 12.4 2.3 -2.5
v 12.4 2.3 -2.6
v 12.4 2.4 -2.6
v 12.3 2.4 -2.6
v 12.3 2.4 -2.5
v 12.4 2.4 -2.5
v 12.4 2.4 -2.6
v 12.3 2.3 -2.5
v 12.3 2.3 -2.6
v 12.4 2.3 -2.6
v 12.4 2.3 -2.5
v 12.3 2.4 -2.5
v 12.3 2.3 -2.5
v 12.4 2.3 -2.5
v 12.4 2.4 -2.5
v 12.4 2.4 -2.6
v 12.4 2.3 -2.6
v 12.3 2.3 -2.6
v 12.3 2.4 -2.6
v 14.3 2.4 -2.6
v 14.3 2.3 -2.6
v 14.3 2.3 -2.5
v 14.3 2.4 -2.5
v 14.3 2.4 -2.5
v 14.3 2.3 -2.5
v 14.4 2.3 -2.5
v 14.4 2.4 -2.5
v 14.4 2.4 -2.6
v 14.4 2.3 -2.6
v 14.3 2.3 -2.6
v 14.3 2.4 -2.6
v 14.5 2.4 -2.5
v 14.5 2.3 -2.5
v 14.5 2.3 -2.6
v 14.5 2.4 -2.6
v 14.4 2.4 -2.5
v 14.4 2.3 -2.5
v 14.5 2.3 -2.5
v 14.5 2.4 -2.5
v 14.5 2.4 -2.6
v 14.5 2.3 -2.6
v 14.4 2.3 -2.6
v 14.4 2.4 -2.6
v 14.6 2.4 -2.6
v 14.6 2.3 -2.6
v 14.6 2.3 -2.5
v 14.6 2.4 -2.5
v 14.6 2.4 -2.5
v 14.6 2.3 -2.5
v 14.7 2.3 -2.5
v 14.7 2.4 -2.5
v 14.7 2.4 -2.6
v 14.7 2.3 -2.6
v 14.6 2.3 -2.6
v 14.6 2.4 -2.6
v 14.8 2.4 -2.5
v 14.8 2.3 -2.5
v 14.8 2.3 -2.6
v 14.8 2.4 -2.6
v 14.7 2.4 -2.5
v 14.7 2.3 -2.5
v 14.8 2.3 -2.5
v 14.8 2.4 -2.5
v 14.8 2.4 -2.6
v 14.8 2.3 -2.6
v 14.7 2.3 -2.6
v 14.7 2.4 -2.6
v 12.4 2.3 -2.6
v 12.4 2.2 -2.6
v 12.4 2.2 -2.5
v 12.4 2.3 -2.5
v 12.5 2.3 -2.5
v 12.5 2.2 -2.5
v 12.5 2.2 -2.6
v 12.5 2.3 -2.6
v 12.4 2.3 -2.6
v 12.4 2.3 -2.5
v 12.5 2.3 -2.5
v 12.5 2.3 -2.6
v 12.4 2.2 -2.5
v 12.4 2.2 -2.6
v 12.5 2.2 -2.6
v 12.5 2.2 -2.5
v 12.4 2.3 -2.5
v 12.4 2.2 -2.5
v 12.5 2.2 -2.5
v 12.5 2.3 -2.5
v 12.5 2.3 -2.6
v 12.5 2.2 -2.6
v 12.4 2.2 -2.6
v 12.4 2.3 -2.6
v 14.2 2.3 -2.6
v 14.2 2.2 -2.6
v 14.2 2.2 -2.5
v 14.2 2.3 -2.5
v 14.2 2.3 -2.6
v 14.2 2.3 -2.5
v 14.3 2.3 -2.5
v 14.3 2.3 -2.6
v 14.2 2.3 -2.5
v 14.2 2.2 -2.5
v 14.3 2.2 -2.5
v 14.3 2.3 -2.5
v 14.3 2.3 -2.6
v 14.3 2.2 -2.6
v 14.2 2.2 -2.6
v 14.2 2.3 -2.6
v 14.3 2.3 -2.5
v 14.3 2.2 -2.5
v 14.4 2.2 -2.5
v 14.4 2.3 -2.5
v 14.4 2.3 -2.6
v 14.4 2.2 -2.6
v 14.3 2.2 -2.6
v 14.3 2.3 -2.6
v 14.5 2.3 -2.5
v 14.5 2.2 -2.5
v 14.5 2.2 -2.6
v 14.5 2.3 -2.6
v 14.4 2.2 -2.5
v 14.4 2.2 -2.6
v 14.5 2.2 -2.6
v 14.5 2.2 -2.5
v 14.4 2.3 -2.5
v 14.4 2.2 -2.5
v 14.5 2.2 -2.5
v 14.5 2.3 -2.5
v 14.5 2.3 -2.6
v 14.5 2.2 -2.6
v 14.4 2.2 -2.6
v 14.4 2.3 -2.6
v 14.6 2.3 -2.6
v 14.6 2.2 -2.6
v 14.6 2.2 -2.5
v 14.6 2.3 -2.5
v 14.6 2.3 -2.5
v 14.6 2.2 -2.5
v 14.7 2.2 -2.5
v 14.7 2.3 -2.5
v 14.7 2.3 -2.6
v 14.7 2.2 -2.6
v 14.6 2.2 -2.6
v 14.6 2.3 -2.6
v 14.8 2.3 -2.5
v 14.8 2.2 -2.5
v 14.8 2.2 -2.6
v 14.8 2.3 -2.6
v 14.7 2.3 -2.5
v 14.7 2.2 -2.5
v 14.8 2.2 -2.5
v 14.8 2.3 -2.5
v 14.8 2.3 -2.6
v 14.8 2.2 -2.6
v 14.7 2.2 -2.6
v 14.7 2.3 -2.6
v 12.5 2.2 -2.6
v 12.5 2.1 -2.6
v 12.5 2.1 -2.5
v 12.5 2.2 -2.5
v 12.5 2.2 -2.6
v 12.5 2.2 -2.5
v 12.6 2.2 -2.5
v 12.6 2.2 -2.6
v 12.5 2.1 -2.5
v 12.5 2.1 -2.6
v 12.6 2.1 -2.6
v 12.6 2.1 -2.5
v 12.5 2.2 -2.5
v 12.5 2.1 -2.5
v 12.6 2.1 -2.5
v 12.6 2.2 -2.5
v 12.6 2.2 -2.6
v 12.6 2.1 -2.6
v 12.5 2.1 -2.6
v 12.5 2.2 -2.6
v 12.7 2.2 -2.5
v 12.7 2.1 -2.5
v 12.7 2.1 -2.6
v 12.7 2.2 -2.6
v 12.6 2.2 -2.6
v 12.6 2.2 -2.5
v 12.7 2.2 -2.5
v 12.7 2.2 -2.6
v 12.6 2.2 -2.5
v 12.6 2.1 -2.5
v 12.7 2.1 -2.5
v 12.7 2.2 -2.5
v 12.7 2.2 -2.6
v 12.7 2.1 -2.6
v 12.6 2.1 -2.6
v 12.6 2.2 -2.6
v 14.2 2.2 -2.6
v 14.2 2.1 -2.6
v 14.2 2.1 -2.5
v 14.2 2.2 -2.5
v 14.2 2.2 -2.5
v 14.2 2.1 -2.5
v 14.3 2.1 -2.5
v 14.3 2.2 -2.5
v 14.3 2.2 -2.6
v 14.3 2.1 -2.6
v 14.2 2.1 -2.6
v 14.2 2.2 -2.6
v 14.4 2.2 -2.5
v 14.4 2.1 -2.5
v 14.4 2.1 -2.6
v 14.4 2.2 -2.6
v 14.3 2.1 -2.5
v 14.3 2.1 -2.6
v 14.4 2.1 -2.6
v 14.4 2.1 -2.5
v 14.3 2.2 -2.5
v 14.3 2.1 -2.5
v 14.4 2.1 -2.5
v 14.4 2.2 -2.5
v 14.4 2.2 -2.6
v 14.4 2.1 -2.6
v 14.3 2.1 -2.6
v 14.3 2.2 -2.6
v 14.5 2.2 -2.6
v 14.5 2.1 -2.6
v 14.5 2.1 -2.5
v 14.5 2.2 -2.5
v 14.5 2.2 -2.6
v 14.5 2.2 -2.5
v 14.6 2.2 -2.5
v 14.6 2.2 -2.6
v 14.5 2.2 -2.5
v 14.5 2.1 -2.5
v 14.6 2.1 -2.5
v 14.6 2.2 -2.5
v 14.6 2.2 -2.6
v 14.6 2.1 -2.6
v 14.5 2.1 -2.6
v 14.5 2.2 -2.6
v 14.6 2.2 -2.5
v 14.6 2.1 -2.5
v 14.7 2.1 -2.5
v 14.7 2.2 -2.5
v 14.7 2.2 -2.6
v 14.7 2.1 -2.6
v 14.6 2.1 -2.6
v 14.6 2.2 -2.6
v 14.8 2.2 -2.5
v 14.8 2.1 -2.5
v 14.8 2.1 -2.6
v 14.8 2.2 -2.6
v 14.7 2.2 -2.5
v 14.7 2.1 -2.5
v 14.8 2.1 -2.5
v 14.8 2.2 -2.5
v 14.8 2.2 -2.6
v 14.8 2.1 -2.6
v 14.7 2.1 -2.6
v 14.7 2.2 -2.6
v 12.6 2.1 -2.6
v 12.6 2 -2.6
v 12.6 2 -2.5
v 12.6 2.1 -2.5
v 12.6 2 -2.5
v 12.6 2 -2.6
v 12.7 2 -2.6
v 12.7 2 -2.5
v 12.6 2.1 -2.5
v 12.6 2 -2.5
v 12.7 2 -2.5
v 12.7 2.1 -2.5
v 12.7 2.1 -2.6
v 12.7 2 -2.6
v 12.6 2 -2.6
v 12.6 2.1 -2.6
v 12.7 2.1 -2.6
v 12.7 2.1 -2.5
v 12.8 2.1 -2.5
v 12.8 2.1 -2.6
v 12.7 2.1 -2.5
v 12.7 2 -2.5
v 12.8 2 -2.5
v 12.8 2.1 -2.5
v 12.8 2.1 -2.6
v 12.8 2 -2.6
v 12.7 2 -2.6
v 12.7 2.1 -2.6
v 12.9 2.1 -2.5
v 12.9 2 -2.5
v 12.9 2 -2.6
v 12.9 2.1 -2.6
v 12.8 2.1 -2.6
v 12.8 2.1 -2.5
v 12.9 2.1 -2.5
v 12.9 2.1 -2.6
v 12.8 2.1 -2.5
v 12.8 2 -2.5
v 12.9 2 -2.5
v 12.9 2.1 -2.5
v 12.9 2.1 -2.6
v 12.9 2 -2.6
v 12.8 2 -2.6
v 12.8 2.1 -2.6
v 14.1 2.1 -2.6
v 14.1 2 -2.6
v 14.1 2 -2.5
v 14.1 2.1 -2.5
v 14.1 2.1 -2.6
v 14.1 2.1 -2.5
v 14.2 2.1 -2.5
v 14.2 2.1 -2.6
v 14.1 2.1 -2.5
v 14.1 2 -2.5
v 14.2 2 -2.5
v 14.2 2.1 -2.5
v 14.2 2.1 -2.6
v 14.2 2 -2.6
v 14.1 2 -2.6
v 14.1 2.1 -2.6
v 14.3 2.1 -2.5
v 14.3 2 -2.5
v 14.3 2 -2.6
v 14.3 2.1 -2.6
v 14.2 2.1 -2.5
v 14.2 2 -2.5
v 14.3 2 -2.5
v 14.3 2.1 -2.5
v 14.3 2.1 -2.6
v 14.3 2 -2.6
v 14.2 2 -2.6
v 14.2 2.1 -2.6
v 14.4 2.1 -2.6
v 14.4 2 -2.6
v 14.4 2 -2.5
v 14.4 2.1 -2.5
v 14.4 2.1 -2.6
v 14.4 2.1 -2.5
v 14.5 2.1 -2.5
v 14.5 2.1 -2.6
v 14.4 2.1 -2.5
v 14.4 2 -2.5
v 14.5 2 -2.5
v 14.5 2.1 -2.5
v 14.5 2.1 -2.6
v 14.5 2 -2.6
v 14.4 2 -2.6
v 14.4 2.1 -2.6
v 14.5 2.1 -2.5
v 14.5 2 -2.5
v 14.6 2 -2.5
v 14.6 2.1 -2.5
v 14.6 2.1 -2.6
v 14.6 2 -2.6
v 14.5 2 -2.6
v 14.5 2.1 -2.6
v 14.6 2.1 -2.5
v 14.6 2 -2.5
v 14.7 2 -2.5
v 14.7 2.1 -2.5
v 14.7 2.1 -2.6
v 14.7 2 -2.6
v 14.6 2 -2.6
v 14.6 2.1 -2.6
v 14.8 2.1 -2.5
v 14.8 2 -2.5
v 14.8 2 -2.6
v 14.8 2.1 -2.6
v 14.7 2.1 -2.5
v 14.7 2 -2.5
v 14.8 2 -2.5
v 14.8 2.1 -2.5
v 14.8 2.1 -2.6
v 14.8 2 -2.6
v 14.7 2 -2.6
v 14.7 2.1 -2.6
v 12.7 2 -2.6
v 12.7 1.9 -2.6
v 12.7 1.9 -2.5
v 12.7 2 -2.5
v 12.7 1.9 -2.5
v 12.7 1.9 -2.6
v 12.8 1.9 -2.6
v 12.8 1.9 -2.5
v 12.7 2 -2.5
v 12.7 1.9 -2.5
v 12.8 1.9 -2.5
v 12.8 2 -2.5
v 12.8 2 -2.6
v 12.8 1.9 -2.6
v 12.7 1.9 -2.6
v 12.7 2 -2.6
v 12.8 2 -2.5
v 12.8 1.9 -2.5
v 12.9 1.9 -2.5
v 12.9 2 -2.5
v 12.9 2 -2.6
v 12.9 1.9 -2.6
v 12.8 1.9 -2.6
v 12.8 2 -2.6
v 12.9 2 -2.6
v 12.9 2 -2.5
v 13 2 -2.5
v 13 2 -2.6
v 12.9 2 -2.5
v 12.9 1.9 -2.5
v 13 1.9 -2.5
v 13 2 -2.5
v 13 2 -2.6
v 13 1.9 -2.6
v 12.9 1.9 -2.6
v 12.9 2 -2.6
v 13.1 2 -2.5
v 13.1 1.9 -2.5
v 13.1 1.9 -2.6
v 13.1 2 -2.6
v 13 2 -2.6
v 13 2 -2.5
v 13.1 2 -2.5
v 13.1 2 -2.6
v 13 2 -2.5
v 13 1.9 -2.5
v 13.1 1.9 -2.5
v 13.1 2 -2.5
v 13.1 2 -2.6
v 13.1 1.9 -2.6
v 13 1.9 -2.6
v 13 2 -2.6
v 14 2 -2.6
v 14 1.9 -2.6
v 14 1.9 -2.5
v 14 2 -2.5
v 14 2 -2.6
v 14 2 -2.5
v 14.1 2 -2.5
v 14.1 2 -2.6
v 14 2 -2.5
v 14 1.9 -2.5
v 14.1 1.9 -2.5
v 14.1 2 -2.5
v 14.1 2 -2.6
v 14.1 1.9 -2.6
v 14 1.9 -2.6
v 14 2 -2.6
v 14.1 2 -2.5
v 14.1 1.9 -2.5
v 14.2 1.9 -2.5
v 14.2 2 -2.5
v 14.2 2 -2.6
v 14.2 1.9 -2.6
v 14.1 1.9 -2.6
v 14.1 2 -2.6
v 14.3 2 -2.5
v 14.3 1.9 -2.5
v 14.3 1.9 -2.6
v 14.3 2 -2.6
v 14.2 1.9 -2.5
v 14.2 1.9 -2.6
v 14.3 1.9 -2.6
v 14.3 1.9 -2.5
v 14.2 2 -2.5
v 14.2 1.9 -2.5
v 14.3 1.9 -2.5
v 14.3 2 -2.5
v 14.3 2 -2.6
v 14.3 1.9 -2.6
v 14.2 1.9 -2.6
v 14.2 2 -2.6
v 14.4 2 -2.6
v 14.4 1.9 -2.6
v 14.4 1.9 -2.5
v 14.4 2 -2.5
v 14.4 2 -2.5
v 14.4 1.9 -2.5
v 14.5 1.9 -2.5
v 14.5 2 -2.5
v 14.5 2 -2.6
v 14.5 1.9 -2.6
v 14.4 1.9 -2.6
v 14.4 2 -2.6
v 14.5 2 -2.5
v 14.5 1.9 -2.5
v 14.6 1.9 -2.5
v 14.6 2 -2.5
v 14.6 2 -2.6
v 14.6 1.9 -2.6
v 14.5 1.9 -2.6
v 14.5 2 -2.6
v 14.6 2 -2.5
v 14.6 1.9 -2.5
v 14.7 1.9 -2.5
v 14.7 2 -2.5
v 14.7 2 -2.6
v 14.7 1.9 -2.6
v 14.6 1.9 -2.6
v 14.6 2 -2.6
v 14.8 2 -2.5
v 14.8 1.9 -2.5
v 14.8 1.9 -2.6
v 14.8 2 -2.6
v 14.7 2 -2.5
v 14.7 1.9 -2.5
v 14.8 1.9 -2.5
v 14.8 2 -2.5
v 14.8 2 -2.6
v 14.8 1.9 -2.6
v 14.7 1.9 -2.6
v 14.7 2 -2.6
v 12.8 1.9 -2.6
v 12.8 1.8 -2.6
v 12.8 1.8 -2.5
v 12.8 1.9 -2.5
v 12.8 1.8 -2.5
v 12.8 1.8 -2.6
v 12.9 1.8 -2.6
v 12.9 1.8 -2.5
v 12.8 1.9 -2.5
v 12.8 1.8 -2.5
v 12.9 1.8 -2.5
v 12.9 1.9 -2.5
v 12.9 1.9 -2.6
v 12.9 1.8 -2.6
v 12.8 1.8 -2.6
v 12.8 1.9 -2.6
v 12.9 1.9 -2.5
v 12.9 1.8 -2.5
v 13 1.8 -2.5
v 13 1.9 -2.5
v 13 1.9 -2.6
v 13 1.8 -2.6
v 12.9 1.8 -2.6
v 12.9 1.9 -2.6
v 13 1.9 -2.5
v 13 1.8 -2.5
v 13.1 1.8 -2.5
v 13.1 1.9 -2.5
v 13.1 1.9 -2.6
v 13.1 1.8 -2.6
v 13 1.8 -2.6
v 13 1.9 -2.6
v 13.1 1.9 -2.6
v 13.1 1.9 -2.5
v 13.2 1.9 -2.5
v 13.2 1.9 -2.6
v 13.1 1.9 -2.5
v 13.1 1.8 -2.5
v 13.2 1.8 -2.5
v 13.2 1.9 -2.5
v 13.2 1.9 -2.6
v 13.2 1.8 -2.6
v 13.1 1.8 -2.6
v 13.1 1.9 -2.6
v 13.2 1.9 -2.6
v 13.2 1.9 -2.5
v 13.3 1.9 -2.5
v 13.3 1.9 -2.6
v 13.2 1.9 -2.5
v 13.2 1.8 -2.5
v 13.3 1.8 -2.5
v 13.3 1.9 -2.5
v 13.3 1.9 -2.6
v 13.3 1.8 -2.6
v 13.2 1.8 -2.6
v 13.2 1.9 -2.6
v 13.4 1.9 -2.5
v 13.4 1.8 -2.5
v 13.4 1.8 -2.6
v 13.4 1.9 -2.6
v 13.3 1.9 -2.6
v 13.3 1.9 -2.5
v 13.4 1.9 -2.5
v 13.4 1.9 -2.6
v 13.3 1.9 -2.5
v 13.3 1.8 -2.5
v 13.4 1.8 -2.5
v 13.4 1.9 -2.5
v 13.4 1.9 -2.6
v 13.4 1.8 -2.6
v 13.3 1.8 -2.6
v 13.3 1.9 -2.6
v 13.7 1.9 -2.6
v 13.7 1.8 -2.6
v 13.7 1.8 -2.5
v 13.7 1.9 -2.5
v 13.7 1.9 -2.6
v 13.7 1.9 -2.5
v 13.8 1.9 -2.5
v 13.8 1.9 -2.6
v 13.7 1.9 -2.5
v 13.7 1.8 -2.5
v 13.8 1.8 -2.5
v 13.8 1.9 -2.5
v 13.8 1.9 -2.6
v 13.8 1.8 -2.6
v 13.7 1.8 -2.6
v 13.7 1.9 -2.6
v 13.8 1.9 -2.6
v 13.8 1.9 -2.5
v 13.9 1.9 -2.5
v 13.9 1.9 -2.6
v 13.8 1.9 -2.5
v 13.8 1.8 -2.5
v 13.9 1.8 -2.5
v 13.9 1.9 -2.5
v 13.9 1.9 -2.6
v 13.9 1.8 -2.6
v 13.8 1.8 -2.6
v 13.8 1.9 -2.6
v 13.9 1.9 -2.6
v 13.9 1.9 -2.5
v 14 1.9 -2.5
v 14 1.9 -2.6
v 13.9 1.9 -2.5
v 13.9 1.8 -2.5
v 14 1.8 -2.5
v 14 1.9 -2.5
v 14 1.9 -2.6
v 14 1.8 -2.6
v 13.9 1.8 -2.6
v 13.9 1.9 -2.6
v 14 1.9 -2.5
v 14 1.8 -2.5
v 14.1 1.8 -2.5
v 14.1 1.9 -2.5
v 14.1 1.9 -2.6
v 14.1 1.8 -2.6
v 14 1.8 -2.6
v 14 1.9 -2.6
v 14.2 1.9 -2.5
v 14.2 1.8 -2.5
v 14.2 1.8 -2.6
v 14.2 1.9 -2.6
v 14.1 1.8 -2.5
v 14.1 1.8 -2.6
v 14.2 1.8 -2.6
v 14.2 1.8 -2.5
v 14.1 1.9 -2.5
v 14.1 1.8 -2.5
v 14.2 1.8 -2.5
v 14.2 1.9 -2.5
v 14.2 1.9 -2.6
v 14.2 1.8 -2.6
v 14.1 1.8 -2.6
v 14.1 1.9 -2.6
v 14.3 1.9 -2.6
v 14.3 1.8 -2.6
v 14.3 1.8 -2.5
v 14.3 1.9 -2.5
v 14.3 1.9 -2.6
v 14.3 1.9 -2.5
v 14.4 1.9 -2.5
v 14.4 1.9 -2.6
v 14.3 1.9 -2.5
v 14.3 1.8 -2.5
v 14.4 1.8 -2.5
v 14.4 1.9 -2.5
v 14.4 1.9 -2.6
v 14.4 1.8 -2.6
v 14.3 1.8 -2.6
v 14.3 1.9 -2.6
v 14.4 1.9 -2.5
v 14.4 1.8 -2.5
v 14.5 1.8 -2.5
v 14.5 1.9 -2.5
v 14.5 1.9 -2.6
v 14.5 1.8 -2.6
v 14.4 1.8 -2.6
v 14.4 1.9 -2.6
v 14.5 1.9 -2.5
v 14.5 1.8 -2.5
v 14.6 1.8 -2.5
v 14.6 1.9 -2.5
v 14.6 1.9 -2.6
v 14.6 1.8 -2.6
v 14.5 1.8 -2.6
v 14.5 1.9 -2.6
v 14.6 1.9 -2.5
v 14.6 1.8 -2.5
v 14.7 1.8 -2.5
v 14.7 1.9 -2.5
v 14.7 1.9 -2.6
v 14.7 1.8 -2.6
v 14.6 1.8 -2.6
v 14.6 1.9 -2.6
v 14.8 1.9 -2.5
v 14.8 1.8 -2.5
v 14.8 1.8 -2.6
v 14.8 1.9 -2.6
v 14.7 1.9 -2.5
v 14.7 1.8 -2.5
v 14.8 1.8 -2.5
v 14.8 1.9 -2.5
v 14.8 1.9 -2.6
v 14.8 1.8 -2.6
v 14.7 1.8 -2.6
v 14.7 1.9 -2.6
v 12.9 1.8 -2.6
v 12.9 1.7 -2.6
v 12.9 1.7 -2.5
v 12.9 1.8 -2.5
v 12.9 1.7 -2.5
v 12.9 1.7 -2.6
v 13 1.7 -2.6
v 13 1.7 -2.5
v 12.9 1.8 -2.5
v 12.9 1.7 -2.5
v 13 1.7 -2.5
v 13 1.8 -2.5
v 13 1.8 -2.6
v 13 1.7 -2.6
v 12.9 1.7 -2.6
v 12.9 1.8 -2.6
v 13 1.7 -2.5
v 13 1.7 -2.6
v 13.1 1.7 -2.6
v 13.1 1.7 -2.5
v 13 1.8 -2.5
v 13 1.7 -2.5
v 13.1 1.7 -2.5
v 13.1 1.8 -2.5
v 13.1 1.8 -2.6
v 13.1 1.7 -2.6
v 13 1.7 -2.6
v 13 1.8 -2.6
v 13.1 1.8 -2.5
v 13.1 1.7 -2.5
v 13.2 1.7 -2.5
v 13.2 1.8 -2.5
v 13.2 1.8 -2.6
v 13.2 1.7 -2.6
v 13.1 1.7 -2.6
v 13.1 1.8 -2.6
v 13.2 1.8 -2.5
v 13.2 1.7 -2.5
v 13.3 1.7 -2.5
v 13.3 1.8 -2.5
v 13.3 1.8 -2.6
v 13.3 1.7 -2.6
v 13.2 1.7 -2.6
v 13.2 1.8 -2.6
v 13.3 1.8 -2.5
v 13.3 1.7 -2.5
v 13.4 1.7 -2.5
v 13.4 1.8 -2.5
v 13.4 1.8 -2.6
v 13.4 1.7 -2.6
v 13.3 1.7 -2.6
v 13.3 1.8 -2.6
v 13.4 1.8 -2.6
v 13.4 1.8 -2.5
v 13.5 1.8 -2.5
v 13.5 1.8 -2.6
v 13.4 1.8 -2.5
v 13.4 1.7 -2.5
v 13.5 1.7 -2.5
v 13.5 1.8 -2.5
v 13.5 1.8 -2.6
v 13.5 1.7 -2.6
v 13.4 1.7 -2.6
v 13.4 1.8 -2.6
v 13.5 1.8 -2.6
v 13.5 1.8 -2.5
v 13.6 1.8 -2.5
v 13.6 1.8 -2.6
v 13.5 1.8 -2.5
v 13.5 1.7 -2.5
v 13.6 1.7 -2.5
v 13.6 1.8 -2.5
v 13.6 1.8 -2.6
v 13.6 1.7 -2.6
v 13.5 1.7 -2.6
v 13.5 1.8 -2.6
v 13.6 1.8 -2.6
v 13.6 1.8 -2.5
v 13.7 1.8 -2.5
v 13.7 1.8 -2.6
v 13.6 1.8 -2.5
v 13.6 1.7 -2.5
v 13.7 1.7 -2.5
v 13.7 1.8 -2.5
v 13.7 1.8 -2.6
v 13.7 1.7 -2.6
v 13.6 1.7 -2.6
v 13.6 1.8 -2.6
v 13.7 1.8 -2.5
v 13.7 1.7 -2.5
v 13.8 1.7 -2.5
v 13.8 1.8 -2.5
v 13.8 1.8 -2.6
v 13.8 1.7 -2.6
v 13.7 1.7 -2.6
v 13.7 1.8 -2.6
v 13.8 1.8 -2.5
v 13.8 1.7 -2.5
v 13.9 1.7 -2.5
v 13.9 1.8 -2.5
v 13.9 1.8 -2.6
v 13.9 1.7 -2.6
v 13.8 1.7 -2.6
v 13.8 1.8 -2.6
v 13.9 1.8 -2.5
v 13.9 1.7 -2.5
v 14 1.7 -2.5
v 14 1.8 -2.5
v 14 1.8 -2.6
v 14 1.7 -2.6
v 13.9 1.7 -2.6
v 13.9 1.8 -2.6
v 14.1 1.8 -2.5
v 14.1 1.7 -2.5
v 14.1 1.7 -2.6
v 14.1 1.8 -2.6
v 14 1.7 -2.5
v 14 1.7 -2.6
v 14.1 1.7 -2.6
v 14.1 1.7 -2.5
v 14 1.8 -2.5
v 14 1.7 -2.5
v 14.1 1.7 -2.5
v 14.1 1.8 -2.5
v 14.1 1.8 -2.6
v 14.1 1.7 -2.6
v 14 1.7 -2.6
v 14 1.8 -2.6
v 14.2 1.8 -2.6
v 14.2 1.7 -2.6
v 14.2 1.7 -2.5
v 14.2 1.8 -2.5
v 14.2 1.8 -2.6
v 14.2 1.8 -2.5
v 14.3 1.8 -2.5
v 14.3 1.8 -2.6
v 14.2 1.8 -2.5
v 14.2 1.7 -2.5
v 14.3 1.7 -2.5
v 14.3 1.8 -2.5
v 14.3 1.8 -2.6
v 14.3 1.7 -2.6
v 14.2 1.7 -2.6
v 14.2 1.8 -2.6
v 14.3 1.8 -2.5
v 14.3 1.7 -2.5
v 14.4 1.7 -2.5
v 14.4 1.8 -2.5
v 14.4 1.8 -2.6
v 14.4 1.7 -2.6
v 14.3 1.7 -2.6
v 14.3 1.8 -2.6
v 14.4 1.8 -2.5
v 14.4 1.7 -2.5
v 14.5 1.7 -2.5
v 14.5 1.8 -2.5
v 14.5 1.8 -2.6
v 14.5 1.7 -2.6
v 14.4 1.7 -2.6
v 14.4 1.8 -2.6
v 14.5 1.8 -2.5
v 14.5 1.7 -2.5
v 14.6 1.7 -2.5
v 14.6 1.8 -2.5
v 14.6 1.8 -2.6
v 14.6 1.7 -2.6
v 14.5 1.7 -2.6
v 14.5 1.8 -2.6
v 14.6 1.8 -2.5
v 14.6 1.7 -2.5
v 14.7 1.7 -2.5
v 14.7 1.8 -2.5
v 14.7 1.8 -2.6
v 14.7 1.7 -2.6
v 14.6 1.7 -2.6
v 14.6 1.8 -2.6
v 14.8 1.8 -2.5
v 14.8 1.7 -2.5
v 14.8 1.7 -2.6
v 14.8 1.8 -2.6
v 14.7 1.8 -2.5
v 14.7 1.7 -2.5
v 14.8 1.7 -2.5
v 14.8 1.8 -2.5
v 14.8 1.8 -2.6
v 14.8 1.7 -2.6
v 14.7 1.7 -2.6
v 14.7 1.8 -2.6
v 13.1 1.7 -2.6
v 13.1 1.6 -2.6
v 13.1 1.6 -2.5
v 13.1 1.7 -2.5
v 13.1 1.6 -2.5
v 13.1 1.6 -2.6
v 13.2 1.6 -2.6
v 13.2 1.6 -2.5
v 13.1 1.7 -2.5
v 13.1 1.6 -2.5
v 13.2 1.6 -2.5
v 13.2 1.7 -2.5
v 13.2 1.7 -2.6
v 13.2 1.6 -2.6
v 13.1 1.6 -2.6
v 13.1 1.7 -2.6
v 13.2 1.6 -2.5
v 13.2 1.6 -2.6
v 13.3 1.6 -2.6
v 13.3 1.6 -2.5
v 13.2 1.7 -2.5
v 13.2 1.6 -2.5
v 13.3 1.6 -2.5
v 13.3 1.7 -2.5
v 13.3 1.7 -2.6
v 13.3 1.6 -2.6
v 13.2 1.6 -2.6
v 13.2 1.7 -2.6
v 13.3 1.7 -2.5
v 13.3 1.6 -2.5
v 13.4 1.6 -2.5
v 13.4 1.7 -2.5
v 13.4 1.7 -2.6
v 13.4 1.6 -2.6
v 13.3 1.6 -2.6
v 13.3 1.7 -2.6
v 13.4 1.7 -2.5
v 13.4 1.6 -2.5
v 13.5 1.6 -2.5
v 13.5 1.7 -2.5
v 13.5 1.7 -2.6
v 13.5 1.6 -2.6
v 13.4 1.6 -2.6
v 13.4 1.7 -2.6
v 13.5 1.7 -2.5
v 13.5 1.6 -2.5
v 13.6 1.6 -2.5
v 13.6 1.7 -2.5
v 13.6 1.7 -2.6
v 13.6 1.6 -2.6
v 13.5 1.6 -2.6
v 13.5 1.7 -2.6
v 13.6 1.7 -2.5
v 13.6 1.6 -2.5
v 13.7 1.6 -2.5
v 13.7 1.7 -2.5
v 13.7 1.7 -2.6
v 13.7 1.6 -2.6
v 13.6 1.6 -2.6
v 13.6 1.7 -2.6
v 13.7 1.6 -2.5
v 13.7 1.6 -2.6
v 13.8 1.6 -2.6
v 13.8 1.6 -2.5
v 13.7 1.7 -2.5
v 13.7 1.6 -2.5
v 13.8 1.6 -2.5
v 13.8 1.7 -2.5
v 13.8 1.7 -2.6
v 13.8 1.6 -2.6
v 13.7 1.6 -2.6
v 13.7 1.7 -2.6
v 13.8 1.6 -2.5
v 13.8 1.6 -2.6
v 13.9 1.6 -2.6
v 13.9 1.6 -2.5
v 13.8 1.7 -2.5
v 13.8 1.6 -2.5
v 13.9 1.6 -2.5
v 13.9 1.7 -2.5
v 13.9 1.7 -2.6
v 13.9 1.6 -2.6
v 13.8 1.6 -2.6
v 13.8 1.7 -2.6
v 14 1.7 -2.5
v 14 1.6 -2.5
v 14 1.6 -2.6
v 14 1.7 -2.6
v 13.9 1.6 -2.5
v 13.9 1.6 -2.6
v 14 1.6 -2.6
v 14 1.6 -2.5
v 13.9 1.7 -2.5
v 13.9 1.6 -2.5
v 14 1.6 -2.5
v 14 1.7 -2.5
v 14 1.7 -2.6
v 14 1.6 -2.6
v 13.9 1.6 -2.6
v 13.9 1.7 -2.6
v 14.1 1.7 -2.6
v 14.1 1.6 -2.6
v 14.1 1.6 -2.5
v 14.1 1.7 -2.5
v 14.1 1.7 -2.6
v 14.1 1.7 -2.5
v 14.2 1.7 -2.5
v 14.2 1.7 -2.6
v 14.1 1.7 -2.5
v 14.1 1.6 -2.5
v 14.2 1.6 -2.5
v 14.2 1.7 -2.5
v 14.2 1.7 -2.6
v 14.2 1.6 -2.6
v 14.1 1.6 -2.6
v 14.1 1.7 -2.6
v 14.2 1.7 -2.5
v 14.2 1.6 -2.5
v 14.3 1.6 -2.5
v 14.3 1.7 -2.5
v 14.3 1.7 -2.6
v 14.3 1.6 -2.6
v 14.2 1.6 -2.6
v 14.2 1.7 -2.6
v 14.3 1.7 -2.5
v 14.3 1.6 -2.5
v 14.4 1.6 -2.5
v 14.4 1.7 -2.5
v 14.4 1.7 -2.6
v 14.4 1.6 -2.6
v 14.3 1.6 -2.6
v 14.3 1.7 -2.6
v 14.4 1.7 -2.5
v 14.4 1.6 -2.5
v 14.5 1.6 -2.5
v 14.5 1.7 -2.5
v 14.5 1.7 -2.6
v 14.5 1.6 -2.6
v 14.4 1.6 -2.6
v 14.4 1.7 -2.6
v 14.5 1.7 -2.5
v 14.5 1.6 -2.5
v 14.6 1.6 -2.5
v 14.6 1.7 -2.5
v 14.6 1.7 -2.6
v 14.6 1.6 -2.6
v 14.5 1.6 -2.6
v 14.5 1.7 -2.6
v 14.6 1.7 -2.5
v 14.6 1.6 -2.5
v 14.7 1.6 -2.5
v 14.7 1.7 -2.5
v 14.7 1.7 -2.6
v 14.7 1.6 -2.6
v 14.6 1.6 -2.6
v 14.6 1.7 -2.6
v 14.8 1.7 -2.5
v 14.8 1.6 -2.5
v 14.8 1.6 -2.6
v 14.8 1.7 -2.6
v 14.7 1.6 -2.5
v 14.7 1.6 -2.6
v 14.8 1.6 -2.6
v 14.8 1.6 -2.5
v 14.7 1.7 -2.5
v 14.7 1.6 -2.5
v 14.8 1.6 -2.5
v 14.8 1.7 -2.5
v 14.8 1.7 -2.6
v 14.8 1.6 -2.6
v 14.7 1.6 -2.6
v 14.7 1.7 -2.6
v 13.3 1.6 -2.6
v 13.3 1.5 -2.6
v 13.3 1.5 -2.5
v 13.3 1.6 -2.5
v 13.3 1.5 -2.5
v 13.3 1.5 -2.6
v 13.4 1.5 -2.6
v 13.4 1.5 -2.5
v 13.3 1.6 -2.5
v 13.3 1.5 -2.5
v 13.4 1.5 -2.5
v 13.4 1.6 -2.5
v 13.4 1.6 -2.6
v 13.4 1.5 -2.6
v 13.3 1.5 -2.6
v 13.3 1.6 -2.6
v 13.4 1.5 -2.5
v 13.4 1.5 -2.6
v 13.5 1.5 -2.6
v 13.5 1.5 -2.5
v 13.4 1.6 -2.5
v 13.4 1.5 -2.5
v 13.5 1.5 -2.5
v 13.5 1.6 -2.5
v 13.5 1.6 -2.6
v 13.5 1.5 -2.6
v 13.4 1.5 -2.6
v 13.4 1.6 -2.6
v 13.5 1.5 -2.5
v 13.5 1.5 -2.6
v 13.6 1.5 -2.6
v 13.6 1.5 -2.5
v 13.5 1.6 -2.5
v 13.5 1.5 -2.5
v 13.6 1.5 -2.5
v 13.6 1.6 -2.5
v 13.6 1.6 -2.6
v 13.6 1.5 -2.6
v 13.5 1.5 -2.6
v 13.5 1.6 -2.6
v 13.7 1.6 -2.5
v 13.7 1.5 -2.5
v 13.7 1.5 -2.6
v 13.7 1.6 -2.6
v 13.6 1.5 -2.5
v 13.6 1.5 -2.6
v 13.7 1.5 -2.6
v 13.7 1.5 -2.5
v 13.6 1.6 -2.5
v 13.6 1.5 -2.5
v 13.7 1.5 -2.5
v 13.7 1.6 -2.5
v 13.7 1.6 -2.6
v 13.7 1.5 -2.6
v 13.6 1.5 -2.6
v 13.6 1.6 -2.6
v 14 1.6 -2.6
v 14 1.5 -2.6
v 14 1.5 -2.5
v 14 1.6 -2.5
v 14 1.6 -2.6
v 14 1.6 -2.5
v 14.1 1.6 -2.5
v 14.1 1.6 -2.6
v 14 1.6 -2.5
v 14 1.5 -2.5
v 14.1 1.5 -2.5
v 14.1 1.6 -2.5
v 14.1 1.6 -2.6
v 14.1 1.5 -2.6
v 14 1.5 -2.6
v 14 1.6 -2.6
v 14.1 1.6 -2.5
v 14.1 1.5 -2.5
v 14.2 1.5 -2.5
v 14.2 1.6 -2.5
v 14.2 1.6 -2.6
v 14.2 1.5 -2.6
v 14.1 1.5 -2.6
v 14.1 1.6 -2.6
v 14.2 1.6 -2.5
v 14.2 1.5 -2.5
v 14.3 1.5 -2.5
v 14.3 1.6 -2.5
v 14.3 1.6 -2.6
v 14.3 1.5 -2.6
v 14.2 1.5 -2.6
v 14.2 1.6 -2.6
v 14.3 1.6 -2.5
v 14.3 1.5 -2.5
v 14.4 1.5 -2.5
v 14.4 1.6 -2.5
v 14.4 1.6 -2.6
v 14.4 1.5 -2.6
v 14.3 1.5 -2.6
v 14.3 1.6 -2.6
v 14.4 1.6 -2.5
v 14.4 1.5 -2.5
v 14.5 1.5 -2.5
v 14.5 1.6 -2.5
v 14.5 1.6 -2.6
v 14.5 1.5 -2.6
v 14.4 1.5 -2.6
v 14.4 1.6 -2.6
v 14.5 1.6 -2.5
v 14.5 1.5 -2.5
v 14.6 1.5 -2.5
v 14.6 1.6 -2.5
v 14.6 1.6 -2.6
v 14.6 1.5 -2.6
v 14.5 1.5 -2.6
v 14.5 1.6 -2.6
v 14.7 1.6 -2.5
v 14.7 1.5 -2.5
v 14.7 1.5 -2.6
v 14.7 1.6 -2.6
v 14.6 1.6 -2.5
v 14.6 1.5 -2.5
v 14.7 1.5 -2.5
v 14.7 1.6 -2.5
v 14.7 1.6 -2.6
v 14.7 1.5 -2.6
v 14.6 1.5 -2.6
v 14.6 1.6 -2.6
v 13.2 1.5 -2.6
v 13.2 1.4 -2.6
v 13.2 1.4 -2.5
v 13.2 1.5 -2.5
v 13.3 1.5 -2.5
v 13.3 1.4 -2.5
v 13.3 1.4 -2.6
v 13.3 1.5 -2.6
v 13.2 1.5 -2.6
v 13.2 1.5 -2.5
v 13.3 1.5 -2.5
v 13.3 1.5 -2.6
v 13.2 1.4 -2.5
v 13.2 1.4 -2.6
v 13.3 1.4 -2.6
v 13.3 1.4 -2.5
v 13.2 1.5 -2.5
v 13.2 1.4 -2.5
v 13.3 1.4 -2.5
v 13.3 1.5 -2.5
v 13.3 1.5 -2.6
v 13.3 1.4 -2.6
v 13.2 1.4 -2.6
v 13.2 1.5 -2.6
v 13.7 1.5 -2.6
v 13.7 1.4 -2.6
v 13.7 1.4 -2.5
v 13.7 1.5 -2.5
v 13.7 1.5 -2.6
v 13.7 1.5 -2.5
v 13.8 1.5 -2.5
v 13.8 1.5 -2.6
v 13.7 1.5 -2.5
v 13.7 1.4 -2.5
v 13.8 1.4 -2.5
v 13.8 1.5 -2.5
v 13.8 1.5 -2.6
v 13.8 1.4 -2.6
v 13.7 1.4 -2.6
v 13.7 1.5 -2.6
v 13.8 1.5 -2.6
v 13.8 1.5 -2.5
v 13.9 1.5 -2.5
v 13.9 1.5 -2.6
v 13.8 1.5 -2.5
v 13.8 1.4 -2.5
v 13.9 1.4 -2.5
v 13.9 1.5 -2.5
v 13.9 1.5 -2.6
v 13.9 1.4 -2.6
v 13.8 1.4 -2.6
v 13.8 1.5 -2.6
v 13.9 1.5 -2.6
v 13.9 1.5 -2.5
v 14 1.5 -2.5
v 14 1.5 -2.6
v 13.9 1.5 -2.5
v 13.9 1.4 -2.5
v 14 1.4 -2.5
v 14 1.5 -2.5
v 14 1.5 -2.6
v 14 1.4 -2.6
v 13.9 1.4 -2.6
v 13.9 1.5 -2.6
v 14 1.5 -2.5
v 14 1.4 -2.5
v 14.1 1.4 -2.5
v 14.1 1.5 -2.5
v 14.1 1.5 -2.6
v 14.1 1.4 -2.6
v 14 1.4 -2.6
v 14 1.5 -2.6
v 14.1 1.5 -2.5
v 14.1 1.4 -2.5
v 14.2 1.4 -2.5
v 14.2 1.5 -2.5
v 14.2 1.5 -2.6
v 14.2 1.4 -2.6
v 14.1 1.4 -2.6
v 14.1 1.5 -2.6
v 14.2 1.5 -2.5
v 14.2 1.4 -2.5
v 14.3 1.4 -2.5
v 14.3 1.5 -2.5
v 14.3 1.5 -2.6
v 14.3 1.4 -2.6
v 14.2 1.4 -2.6
v 14.2 1.5 -2.6
v 14.3 1.5 -2.5
v 14.3 1.4 -2.5
v 14.4 1.4 -2.5
v 14.4 1.5 -2.5
v 14.4 1.5 -2.6
v 14.4 1.4 -2.6
v 14.3 1.4 -2.6
v 14.3 1.5 -2.6
v 14.4 1.5 -2.5
v 14.4 1.4 -2.5
v 14.5 1.4 -2.5
v 14.5 1.5 -2.5
v 14.5 1.5 -2.6
v 14.5 1.4 -2.6
v 14.4 1.4 -2.6
v 14.4 1.5 -2.6
v 14.5 1.5 -2.5
v 14.5 1.4 -2.5
v 14.6 1.4 -2.5
v 14.6 1.5 -2.5
v 14.6 1.5 -2.6
v 14.6 1.4 -2.6
v 14.5 1.4 -2.6
v 14.5 1.5 -2.6
v 14.7 1.5 -2.5
v 14.7 1.4 -2.5
v 14.7 1.4 -2.6
v 14.7 1.5 -2.6
v 14.6 1.5 -2.5
v 14.6 1.4 -2.5
v 14.7 1.4 -2.5
v 14.7 1.5 -2.5
v 14.7 1.5 -2.6
v 14.7 1.4 -2.6
v 14.6 1.4 -2.6
v 14.6 1.5 -2.6
v 13.3 1.4 -2.6
v 13.3 1.3 -2.6
v 13.3 1.3 -2.5
v 13.3 1.4 -2.5
v 13.3 1.4 -2.6
v 13.3 1.4 -2.5
v 13.4 1.4 -2.5
v 13.4 1.4 -2.6
v 13.3 1.3 -2.5
v 13.3 1.3 -2.6
v 13.4 1.3 -2.6
v 13.4 1.3 -2.5
v 13.3 1.4 -2.5
v 13.3 1.3 -2.5
v 13.4 1.3 -2.5
v 13.4 1.4 -2.5
v 13.4 1.4 -2.6
v 13.4 1.3 -2.6
v 13.3 1.3 -2.6
v 13.3 1.4 -2.6
v 13.4 1.4 -2.6
v 13.4 1.4 -2.5
v 13.5 1.4 -2.5
v 13.5 1.4 -2.6
v 13.4 1.4 -2.5
v 13.4 1.3 -2.5
v 13.5 1.3 -2.5
v 13.5 1.4 -2.5
v 13.5 1.4 -2.6
v 13.5 1.3 -2.6
v 13.4 1.3 -2.6
v 13.4 1.4 -2.6
v 13.5 1.4 -2.6
v 13.5 1.4 -2.5
v 13.6 1.4 -2.5
v 13.6 1.4 -2.6
v 13.5 1.4 -2.5
v 13.5 1.3 -2.5
v 13.6 1.3 -2.5
v 13.6 1.4 -2.5
v 13.6 1.4 -2.6
v 13.6 1.3 -2.6
v 13.5 1.3 -2.6
v 13.5 1.4 -2.6
v 13.6 1.4 -2.6
v 13.6 1.4 -2.5
v 13.7 1.4 -2.5
v 13.7 1.4 -2.6
v 13.6 1.4 -2.5
v 13.6 1.3 -2.5
v 13.7 1.3 -2.5
v 13.7 1.4 -2.5
v 13.7 1.4 -2.6
v 13.7 1.3 -2.6
v 13.6 1.3 -2.6
v 13.6 1.4 -2.6
v 13.7 1.4 -2.5
v 13.7 1.3 -2.5
v 13.8 1.3 -2.5
v 13.8 1.4 -2.5
v 13.8 1.4 -2.6
v 13.8 1.3 -2.6
v 13.7 1.3 -2.6
v 13.7 1.4 -2.6
v 13.8 1.4 -2.5
v 13.8 1.3 -2.5
v 13.9 1.3 -2.5
v 13.9 1.4 -2.5
v 13.9 1.4 -2.6
v 13.9 1.3 -2.6
v 13.8 1.3 -2.6
v 13.8 1.4 -2.6
v 13.9 1.4 -2.5
v 13.9 1.3 -2.5
v 14 1.3 -2.5
v 14 1.4 -2.5
v 14 1.4 -2.6
v 14 1.3 -2.6
v 13.9 1.3 -2.6
v 13.9 1.4 -2.6
v 14 1.4 -2.5
v 14 1.3 -2.5
v 14.1 1.3 -2.5
v 14.1 1.4 -2.5
v 14.1 1.4 -2.6
v 14.1 1.3 -2.6
v 14 1.3 -2.6
v 14 1.4 -2.6
v 14.1 1.4 -2.5
v 14.1 1.3 -2.5
v 14.2 1.3 -2.5
v 14.2 1.4 -2.5
v 14.2 1.4 -2.6
v 14.2 1.3 -2.6
v 14.1 1.3 -2.6
v 14.1 1.4 -2.6
v 14.2 1.4 -2.5
v 14.2 1.3 -2.5
v 14.3 1.3 -2.5
v 14.3 1.4 -2.5
v 14.3 1.4 -2.6
v 14.3 1.3 -2.6
v 14.2 1.3 -2.6
v 14.2 1.4 -2.6
v 14.3 1.4 -2.5
v 14.3 1.3 -2.5
v 14.4 1.3 -2.5
v 14.4 1.4 -2.5
v 14.4 1.4 -2.6
v 14.4 1.3 -2.6
v 14.3 1.3 -2.6
v 14.3 1.4 -2.6
v 14.4 1.4 -2.5
v 14.4 1.3 -2.5
v 14.5 1.3 -2.5
v 14.5 1.4 -2.5
v 14.5 1.4 -2.6
v 14.5 1.3 -2.6
v 14.4 1.3 -2.6
v 14.4 1.4 -2.6
v 14.5 1.4 -2.5
v 14.5 1.3 -2.5
v 14.6 1.3 -2.5
v 14.6 1.4 -2.5
v 14.6 1.4 -2.6
v 14.6 1.3 -2.6
v 14.5 1.3 -2.6
v 14.5 1.4 -2.6
v 14.7 1.4 -2.5
v 14.7 1.3 -2.5
v 14.7 1.3 -2.6
v 14.7 1.4 -2.6
v 14.6 1.4 -2.5
v 14.6 1.3 -2.5
v 14.7 1.3 -2.5
v 14.7 1.4 -2.5
v 14.7 1.4 -2.6
v 14.7 1.3 -2.6
v 14.6 1.3 -2.6
v 14.6 1.4 -2.6
v 13.4 1.3 -2.6
v 13.4 1.2 -2.6
v 13.4 1.2 -2.5
v 13.4 1.3 -2.5
v 13.4 1.2 -2.5
v 13.4 1.2 -2.6
v 13.5 1.2 -2.6
v 13.5 1.2 -2.5
v 13.4 1.3 -2.5
v 13.4 1.2 -2.5
v 13.5 1.2 -2.5
v 13.5 1.3 -2.5
v 13.5 1.3 -2.6
v 13.5 1.2 -2.6
v 13.4 1.2 -2.6
v 13.4 1.3 -2.6
v 13.5 1.3 -2.5
v 13.5 1.2 -2.5
v 13.6 1.2 -2.5
v 13.6 1.3 -2.5
v 13.6 1.3 -2.6
v 13.6 1.2 -2.6
v 13.5 1.2 -2.6
v 13.5 1.3 -2.6
v 13.6 1.3 -2.5
v 13.6 1.2 -2.5
v 13.7 1.2 -2.5
v 13.7 1.3 -2.5
v 13.7 1.3 -2.6
v 13.7 1.2 -2.6
v 13.6 1.2 -2.6
v 13.6 1.3 -2.6
v 13.7 1.3 -2.5
v 13.7 1.2 -2.5
v 13.8 1.2 -2.5
v 13.8 1.3 -2.5
v 13.8 1.3 -2.6
v 13.8 1.2 -2.6
v 13.7 1.2 -2.6
v 13.7 1.3 -2.6
v 13.8 1.3 -2.5
v 13.8 1.2 -2.5
v 13.9 1.2 -2.5
v 13.9 1.3 -2.5
v 13.9 1.3 -2.6
v 13.9 1.2 -2.6
v 13.8 1.2 -2.6
v 13.8 1.3 -2.6
v 13.9 1.3 -2.5
v 13.9 1.2 -2.5
v 14 1.2 -2.5
v 14 1.3 -2.5
v 14 1.3 -2.6
v 14 1.2 -2.6
v 13.9 1.2 -2.6
v 13.9 1.3 -2.6
v 14 1.3 -2.5
v 14 1.2 -2.5
v 14.1 1.2 -2.5
v 14.1 1.3 -2.5
v 14.1 1.3 -2.6
v 14.1 1.2 -2.6
v 14 1.2 -2.6
v 14 1.3 -2.6
v 14.1 1.3 -2.5
v 14.1 1.2 -2.5
v 14.2 1.2 -2.5
v 14.2 1.3 -2.5
v 14.2 1.3 -2.6
v 14.2 1.2 -2.6
v 14.1 1.2 -2.6
v 14.1 1.3 -2.6
v 14.2 1.3 -2.5
v 14.2 1.2 -2.5
v 14.3 1.2 -2.5
v 14.3 1.3 -2.5
v 14.3 1.3 -2.6
v 14.3 1.2 -2.6
v 14.2 1.2 -2.6
v 14.2 1.3 -2.6
v 14.3 1.3 -2.5
v 14.3 1.2 -2.5
v 14.4 1.2 -2.5
v 14.4 1.3 -2.5
v 14.4 1.3 -2.6
v 14.4 1.2 -2.6
v 14.3 1.2 -2.6
v 14.3 1.3 -2.6
v 14.4 1.3 -2.5
v 14.4 1.2 -2.5
v 14.5 1.2 -2.5
v 14.5 1.3 -2.5
v 14.5 1.3 -2.6
v 14.5 1.2 -2.6
v 14.4 1.2 -2.6
v 14.4 1.3 -2.6
v 14.5 1.3 -2.5
v 14.5 1.2 -2.5
v 14.6 1.2 -2.5
v 14.6 1.3 -2.5
v 14.6 1.3 -2.6
v 14.6 1.2 -2.6
v 14.5 1.2 -2.6
v 14.5 1.3 -2.6
v 14.7 1.3 -2.5
v 14.7 1.2 -2.5
v 14.7 1.2 -2.6
v 14.7 1.3 -2.6
v 14.6 1.3 -2.5
v 14.6 1.2 -2.5
v 14.7 1.2 -2.5
v 14.7 1.3 -2.5
v 14.7 1.3 -2.6
v 14.7 1.2 -2.6
v 14.6 1.2 -2.6
v 14.6 1.3 -2.6
v 13.5 1.2 -2.6
v 13.5 1.1 -2.6
v 13.5 1.1 -2.5
v 13.5 1.2 -2.5
v 13.5 1.1 -2.5
v 13.5 1.1 -2.6
v 13.6 1.1 -2.6
v 13.6 1.1 -2.5
v 13.5 1.2 -2.5
v 13.5 1.1 -2.5
v 13.6 1.1 -2.5
v 13.6 1.2 -2.5
v 13.6 1.2 -2.6
v 13.6 1.1 -2.6
v 13.5 1.1 -2.6
v 13.5 1.2 -2.6
v 13.6 1.2 -2.5
v 13.6 1.1 -2.5
v 13.7 1.1 -2.5
v 13.7 1.2 -2.5
v 13.7 1.2 -2.6
v 13.7 1.1 -2.6
v 13.6 1.1 -2.6
v 13.6 1.2 -2.6
v 13.7 1.2 -2.5
v 13.7 1.1 -2.5
v 13.8 1.1 -2.5
v 13.8 1.2 -2.5
v 13.8 1.2 -2.6
v 13.8 1.1 -2.6
v 13.7 1.1 -2.6
v 13.7 1.2 -2.6
v 13.8 1.2 -2.5
v 13.8 1.1 -2.5
v 13.9 1.1 -2.5
v 13.9 1.2 -2.5
v 13.9 1.2 -2.6
v 13.9 1.1 -2.6
v 13.8 1.1 -2.6
v 13.8 1.2 -2.6
v 13.9 1.2 -2.5
v 13.9 1.1 -2.5
v 14 1.1 -2.5
v 14 1.2 -2.5
v 14 1.2 -2.6
v 14 1.1 -2.6
v 13.9 1.1 -2.6
v 13.9 1.2 -2.6
v 14 1.2 -2.5
v 14 1.1 -2.5
v 14.1 1.1 -2.5
v 14.1 1.2 -2.5
v 14.1 1.2 -2.6
v 14.1 1.1 -2.6
v 14 1.1 -2.6
v 14 1.2 -2.6
v 14.1 1.2 -2.5
v 14.1 1.1 -2.5
v 14.2 1.1 -2.5
v 14.2 1.2 -2.5
v 14.2 1.2 -2.6
v 14.2 1.1 -2.6
v 14.1 1.1 -2.6
v 14.1 1.2 -2.6
v 14.2 1.2 -2.5
v 14.2 1.1 -2.5
v 14.3 1.1 -2.5
v 14.3 1.2 -2.5
v 14.3 1.2 -2.6
v 14.3 1.1 -2.6
v 14.2 1.1 -2.6
v 14.2 1.2 -2.6
v 14.3 1.2 -2.5
v 14.3 1.1 -2.5
v 14.4 1.1 -2.5
v 14.4 1.2 -2.5
v 14.4 1.2 -2.6
v 14.4 1.1 -2.6
v 14.3 1.1 -2.6
v 14.3 1.2 -2.6
v 14.4 1.2 -2.5
v 14.4 1.1 -2.5
v 14.5 1.1 -2.5
v 14.5 1.2 -2.5
v 14.5 1.2 -2.6
v 14.5 1.1 -2.6
v 14.4 1.1 -2.6
v 14.4 1.2 -2.6
v 14.5 1.2 -2.5
v 14.5 1.1 -2.5
v 14.6 1.1 -2.5
v 14.6 1.2 -2.5
v 14.6 1.2 -2.6
v 14.6 1.1 -2.6
v 14.5 1.1 -2.6
v 14.5 1.2 -2.6
v 14.7 1.2 -2.5
v 14.7 1.1 -2.5
v 14.7 1.1 -2.6
v 14.7 1.2 -2.6
v 14.6 1.1 -2.5
v 14.6 1.1 -2.6
v 14.7 1.1 -2.6
v 14.7 1.1 -2.5
v 14.6 1.2 -2.5
v 14.6 1.1 -2.5
v 14.7 1.1 -2.5
v 14.7 1.2 -2.5
v 14.7 1.2 -2.6
v 14.7 1.1 -2.6
v 14.6 1.1 -2.6
v 14.6 1.2 -2.6
v 13.6 1.1 -2.6
v 13.6 1 -2.6
v 13.6 1 -2.5
v 13.6 1.1 -2.5
v 13.6 1 -2.5
v 13.6 1 -2.6
v 13.7 1 -2.6
v 13.7 1 -2.5
v 13.6 1.1 -2.5
v 13.6 1 -2.5
v 13.7 1 -2.5
v 13.7 1.1 -2.5
v 13.7 1.1 -2.6
v 13.7 1 -2.6
v 13.6 1 -2.6
v 13.6 1.1 -2.6
v 13.7 1.1 -2.5
v 13.7 1 -2.5
v 13.8 1 -2.5
v 13.8 1.1 -2.5
v 13.8 1.1 -2.6
v 13.8 1 -2.6
v 13.7 1 -2.6
v 13.7 1.1 -2.6
v 13.8 1.1 -2.5
v 13.8 1 -2.5
v 13.9 1 -2.5
v 13.9 1.1 -2.5
v 13.9 1.1 -2.6
v 13.9 1 -2.6
v 13.8 1 -2.6
v 13.8 1.1 -2.6
v 13.9 1.1 -2.5
v 13.9 1 -2.5
v 14 1 -2.5
v 14 1.1 -2.5
v 14 1.1 -2.6
v 14 1 -2.6
v 13.9 1 -2.6
v 13.9 1.1 -2.6
v 14 1.1 -2.5
v 14 1 -2.5
v 14.1 1 -2.5
v 14.1 1.1 -2.5
v 14.1 1.1 -2.6
v 14.1 1 -2.6
v 14 1 -2.6
v 14 1.1 -2.6
v 14.1 1.1 -2.5
v 14.1 1 -2.5
v 14.2 1 -2.5
v 14.2 1.1 -2.5
v 14.2 1.1 -2.6
v 14.2 1 -2.6
v 14.1 1 -2.6
v 14.1 1.1 -2.6
v 14.2 1.1 -2.5
v 14.2 1 -2.5
v 14.3 1 -2.5
v 14.3 1.1 -2.5
v 14.3 1.1 -2.6
v 14.3 1 -2.6
v 14.2 1 -2.6
v 14.2 1.1 -2.6
v 14.3 1.1 -2.5
v 14.3 1 -2.5
v 14.4 1 -2.5
v 14.4 1.1 -2.5
v 14.4 1.1 -2.6
v 14.4 1 -2.6
v 14.3 1 -2.6
v 14.3 1.1 -2.6
v 14.4 1.1 -2.5
v 14.4 1 -2.5
v 14.5 1 -2.5
v 14.5 1.1 -2.5
v 14.5 1.1 -2.6
v 14.5 1 -2.6
v 14.4 1 -2.6
v 14.4 1.1 -2.6
v 14.6 1.1 -2.5
v 14.6 1 -2.5
v 14.6 1 -2.6
v 14.6 1.1 -2.6
v 14.5 1.1 -2.5
v 14.5 1 -2.5
v 14.6 1 -2.5
v 14.6 1.1 -2.5
v 14.6 1.1 -2.6
v 14.6 1 -2.6
v 14.5 1 -2.6
v 14.5 1.1 -2.6
v 13.7 1 -2.6
v 13.7 0.9 -2.6
v 13.7 0.9 -2.5
v 13.7 1 -2.5
v 13.7 0.9 -2.5
v 13.7 0.9 -2.6
v 13.8 0.9 -2.6
v 13.8 0.9 -2.5
v 13.7 1 -2.5
v 13.7 0.9 -2.5
v 13.8 0.9 -2.5
v 13.8 1 -2.5
v 13.8 1 -2.6
v 13.8 0.9 -2.6
v 13.7 0.9 -2.6
v 13.7 1 -2.6
v 13.8 1 -2.5
v 13.8 0.9 -2.5
v 13.9 0.9 -2.5
v 13.9 1 -2.5
v 13.9 1 -2.6
v 13.9 0.9 -2.6
v 13.8 0.9 -2.6
v 13.8 1 -2.6
v 13.9 1 -2.5
v 13.9 0.9 -2.5
v 14 0.9 -2.5
v 14 1 -2.5
v 14 1 -2.6
v 14 0.9 -2.6
v 13.9 0.9 -2.6
v 13.9 1 -2.6
v 14 1 -2.5
v 14 0.9 -2.5
v 14.1 0.9 -2.5
v 14.1 1 -2.5
v 14.1 1 -2.6
v 14.1 0.9 -2.6
v 14 0.9 -2.6
v 14 1 -2.6
v 14.1 1 -2.5
v 14.1 0.9 -2.5
v 14.2 0.9 -2.5
v 14.2 1 -2.5
v 14.2 1 -2.6
v 14.2 0.9 -2.6
v 14.1 0.9 -2.6
v 14.1 1 -2.6
v 14.2 1 -2.5
v 14.2 0.9 -2.5
v 14.3 0.9 -2.5
v 14.3 1 -2.5
v 14.3 1 -2.6
v 14.3 0.9 -2.6
v 14.2 0.9 -2.6
v 14.2 1 -2.6
v 14.3 1 -2.5
v 14.3 0.9 -2.5
v 14.4 0.9 -2.5
v 14.4 1 -2.5
v 14.4 1 -2.6
v 14.4 0.9 -2.6
v 14.3 0.9 -2.6
v 14.3 1 -2.6
v 14.4 1 -2.5
v 14.4 0.9 -2.5
v 14.5 0.9 -2.5
v 14.5 1 -2.5
v 14.5 1 -2.6
v 14.5 0.9 -2.6
v 14.4 0.9 -2.6
v 14.4 1 -2.6
v 14.6 1 -2.5
v 14.6 0.9 -2.5
v 14.6 0.9 -2.6
v 14.6 1 -2.6
v 14.5 1 -2.5
v 14.5 0.9 -2.5
v 14.6 0.9 -2.5
v 14.6 1 -2.5
v 14.6 1 -2.6
v 14.6 0.9 -2.6
v 14.5 0.9 -2.6
v 14.5 1 -2.6
v 13.8 0.9 -2.6
v 13.8 0.8 -2.6
v 13.8 0.8 -2.5
v 13.8 0.9 -2.5
v 13.8 0.8 -2.5
v 13.8 0.8 -2.6
v 13.9 0.8 -2.6
v 13.9 0.8 -2.5
v 13.8 0.9 -2.5
v 13.8 0.8 -2.5
v 13.9 0.8 -2.5
v 13.9 0.9 -2.5
v 13.9 0.9 -2.6
v 13.9 0.8 -2.6
v 13.8 0.8 -2.6
v 13.8 0.9 -2.6
v 13.9 0.9 -2.5
v 13.9 0.8 -2.5
v 14 0.8 -2.5
v 14 0.9 -2.5
v 14 0.9 -2.6
v 14 0.8 -2.6
v 13.9 0.8 -2.6
v 13.9 0.9 -2.6
v 14 0.9 -2.5
v 14 0.8 -2.5
v 14.1 0.8 -2.5
v 14.1 0.9 -2.5
v 14.1 0.9 -2.6
v 14.1 0.8 -2.6
v 14 0.8 -2.6
v 14 0.9 -2.6
v 14.1 0.9 -2.5
v 14.1 0.8 -2.5
v 14.2 0.8 -2.5
v 14.2 0.9 -2.5
v 14.2 0.9 -2.6
v 14.2 0.8 -2.6
v 14.1 0.8 -2.6
v 14.1 0.9 -2.6
v 14.2 0.9 -2.5
v 14.2 0.8 -2.5
v 14.3 0.8 -2.5
v 14.3 0.9 -2.5
v 14.3 0.9 -2.6
v 14.3 0.8 -2.6
v 14.2 0.8 -2.6
v 14.2 0.9 -2.6
v 14.3 0.9 -2.5
v 14.3 0.8 -2.5
v 14.4 0.8 -2.5
v 14.4 0.9 -2.5
v 14.4 0.9 -2.6
v 14.4 0.8 -2.6
v 14.3 0.8 -2.6
v 14.3 0.9 -2.6
v 14.4 0.9 -2.5
v 14.4 0.8 -2.5
v 14.5 0.8 -2.5
v 14.5 0.9 -2.5
v 14.5 0.9 -2.6
v 14.5 0.8 -2.6
v 14.4 0.8 -2.6
v 14.4 0.9 -2.6
v 14.6 0.9 -2.5
v 14.6 0.8 -2.5
v 14.6 0.8 -2.6
v 14.6 0.9 -2.6
v 14.5 0.8 -2.5
v 14.5 0.8 -2.6
v 14.6 0.8 -2.6
v 14.6 0.8 -2.5
v 14.5 0.9 -2.5
v 14.5 0.8 -2.5
v 14.6 0.8 -2.5
v 14.6 0.9 -2.5
v 14.6 0.9 -2.6
v 14.6 0.8 -2.6
v 14.5 0.8 -2.6
v 14.5 0.9 -2.6
v 13.9 0.8 -2.6
v 13.9 0.7 -2.6
v 13.9 0.7 -2.5
v 13.9 0.8 -2.5
v 13.9 0.7 -2.5
v 13.9 0.7 -2.6
v 14 0.7 -2.6
v 14 0.7 -2.5
v 13.9 0.8 -2.5
v 13.9 0.7 -2.5
v 14 0.7 -2.5
v 14 0.8 -2.5
v 14 0.8 -2.6
v 14 0.7 -2.6
v 13.9 0.7 -2.6
v 13.9 0.8 -2.6
v 14 0.8 -2.5
v 14 0.7 -2.5
v 14.1 0.7 -2.5
v 14.1 0.8 -2.5
v 14.1 0.8 -2.6
v 14.1 0.7 -2.6
v 14 0.7 -2.6
v 14 0.8 -2.6
v 14.1 0.8 -2.5
v 14.1 0.7 -2.5
v 14.2 0.7 -2.5
v 14.2 0.8 -2.5
v 14.2 0.8 -2.6
v 14.2 0.7 -2.6
v 14.1 0.7 -2.6
v 14.1 0.8 -2.6
v 14.2 0.8 -2.5
v 14.2 0.7 -2.5
v 14.3 0.7 -2.5
v 14.3 0.8 -2.5
v 14.3 0.8 -2.6
v 14.3 0.7 -2.6
v 14.2 0.7 -2.6
v 14.2 0.8 -2.6
v 14.3 0.8 -2.5
v 14.3 0.7 -2.5
v 14.4 0.7 -2.5
v 14.4 0.8 -2.5
v 14.4 0.8 -2.6
v 14.4 0.7 -2.6
v 14.3 0.7 -2.6
v 14.3 0.8 -2.6
v 14.5 0.8 -2.5
v 14.5 0.7 -2.5
v 14.5 0.7 -2.6
v 14.5 0.8 -2.6
v 14.4 0.8 -2.5
v 14.4 0.7 -2.5
v 14.5 0.7 -2.5
v 14.5 0.8 -2.5
v 14.5 0.8 -2.6
v 14.5 0.7 -2.6
v 14.4 0.7 -2.6
v 14.4 0.8 -2.6
v 14 0.7 -2.6
v 14 0.6 -2.6
v 14 0.6 -2.5
v 14 0.7 -2.5
v 14 0.6 -2.5
v 14 0.6 -2.6
v 14.1 0.6 -2.6
v 14.1 0.6 -2.5
v 14 0.7 -2.5
v 14 0.6 -2.5
v 14.1 0.6 -2.5
v 14.1 0.7 -2.5
v 14.1 0.7 -2.6
v 14.1 0.6 -2.6
v 14 0.6 -2.6
v 14 0.7 -2.6
v 14.1 0.7 -2.5
v 14.1 0.6 -2.5
v 14.2 0.6 -2.5
v 14.2 0.7 -2.5
v 14.2 0.7 -2.6
v 14.2 0.6 -2.6
v 14.1 0.6 -2.6
v 14.1 0.7 -2.6
v 14.2 0.7 -2.5
v 14.2 0.6 -2.5
v 14.3 0.6 -2.5
v 14.3 0.7 -2.5
v 14.3 0.7 -2.6
v 14.3 0.6 -2.6
v 14.2 0.6 -2.6
v 14.2 0.7 -2.6
v 14.3 0.7 -2.5
v 14.3 0.6 -2.5
v 14.4 0.6 -2.5
v 14.4 0.7 -2.5
v 14.4 0.7 -2.6
v 14.4 0.6 -2.6
v 14.3 0.6 -2.6
v 14.3 0.7 -2.6
v 14.5 0.7 -2.5
v 14.5 0.6 -2.5
v 14.5 0.6 -2.6
v 14.5 0.7 -2.6
v 14.4 0.6 -2.5
v 14.4 0.6 -2.6
v 14.5 0.6 -2.6
v 14.5 0.6 -2.5
v 14.4 0.7 -2.5
v 14.4 0.6 -2.5
v 14.5 0.6 -2.5
v 14.5 0.7 -2.5
v 14.5 0.7 -2.6
v 14.5 0.6 -2.6
v 14.4 0.6 -2.6
v 14.4 0.7 -2.6
v 14.1 0.6 -2.6
v 14.1 0.5 -2.6
v 14.1 0.5 -2.5
v 14.1 0.6 -2.5
v 14.1 0.5 -2.5
v 14.1 0.5 -2.6
v 14.2 0.5 -2.6
v 14.2 0.5 -2.5
v 14.1 0.6 -2.5
v 14.1 0.5 -2.5
v 14.2 0.5 -2.5
v 14.2 0.6 -2.5
v 14.2 0.6 -2.6
v 14.2 0.5 -2.6
v 14.1 0.5 -2.6
v 14.1 0.6 -2.6
v 14.2 0.6 -2.5
v 14.2 0.5 -2.5
v 14.3 0.5 -2.5
v 14.3 0.6 -2.5
v 14.3 0.6 -2.6
v 14.3 0.5 -2.6
v 14.2 0.5 -2.6
v 14.2 0.6 -2.6
v 14.4 0.6 -2.5
v 14.4 0.5 -2.5
v 14.4 0.5 -2.6
v 14.4 0.6 -2.6
v 14.3 0.5 -2.5
v 14.3 0.5 -2.6
v 14.4 0.5 -2.6
v 14.4 0.5 -2.5
v 14.3 0.6 -2.5
v 14.3 0.5 -2.5
v 14.4 0.5 -2.5
v 14.4 0.6 -2.5
v 14.4 0.6 -2.6
v 14.4 0.5 -2.6
v 14.3 0.5 -2.6
v 14.3 0.6 -2.6
v 14.2 0.5 -2.6
v 14.2 0.4 -2.6
v 14.2 0.4 -2.5
v 14.2 0.5 -2.5
v 14.3 0.5 -2.5
v 14.3 0.4 -2.5
v 14.3 0.4 -2.6
v 14.3 0.5 -2.6
v 14.2 0.4 -2.5
v 14.2 0.4 -2.6
v 14.3 0.4 -2.6
v 14.3 0.4 -2.5
v 14.2 0.5 -2.5
v 14.2 0.4 -2.5
v 14.3 0.4 -2.5
v 14.3 0.5 -2.5
v 14.3 0.5 -2.6
v 14.3 0.4 -2.6
v 14.2 0.4 -2.6
v 14.2 0.5 -2.6

# faces
f 1/1/1 2/1/1 3/1/1 4/1/1
f 5/1/2 6/1/2 7/1/2 8/1/2
f 9/1/3 10/1/3 11/1/3 12/1/3
f 13/1/5 14/1/5 15/1/5 16/1/5
f 17/1/6 18/1/6 19/1/6 20/1/6
f 21/1/1 22/1/1 23/1/1 24/1/1
f 25/1/2 26/1/2 27/1/2 28/1/2
f 29/1/5 30/1/5 31/1/5 32/1/5
f 33/1/6 34/1/6 35/1/6 36/1/6
f 37/1/1 38/1/1 39/1/1 40/1/1
f 41/1/2 42/1/2 43/1/2 44/1/2
f 45/1/5 46/1/5 47/1/5 48/1/5
f 49/1/6 50/1/6 51/1/6 52/1/6
f 53/1/1 54/1/1 55/1/1 56/1/1
f 57/1/2 58/1/2 59/1/2 60/1/2
f 61/1/5 62/1/5 63/1/5 64/1/5
f 65/1/6 66/1/6 67/1/6 68/1/6
f 69/1/1 70/1/1 71/1/1 72/1/1
f 73/1/5 74/1/5 75/1/5 76/1/5
f 77/1/6 78/1/6 79/1/6 80/1/6
f 81/3/2 82/3/2 83/3/2 84/3/2
f 85/3/3 86/3/3 87/3/3 88/3/3
f 89/3/5 90/3/5 91/3/5 92/3/5
f 93/3/6 94/3/6 95/3/6 96/3/6
f 97/1/1 98/1/1 99/1/1 100/1/1
f 101/1/5 102/1/5 103/1/5 104/1/5
f 105/1/6 106/1/6 107/1/6 108/1/6
f 109/3/2 110/3/2 111/3/2 112/3/2
f 113/3/5 114/3/5 115/3/5 116/3/5
f 117/3/6 118/3/6 119/3/6 120/3/6
f 121/1/1 122/1/1 123/1/1 124/1/1
f 125/1/5 126/1/5 127/1/5 128/1/5
f 129/1/6 130/1/6 131/1/6 132/1/6
f 133/3/2 134/3/2 135/3/2 136/3/2
f 137/3/5 138/3/5 139/3/5 140/3/5
f 141/3/6 142/3/6 143/3/6 144/3/6
f 145/1/1 146/1/1 147/1/1 148/1/1
f 149/1/5 150/1/5 151/1/5 152/1/5
f 153/1/6 154/1/6 155/1/6 156/1/6
f 157/3/2 158/3/2 159/3/2 160/3/2
f 161/3/5 162/3/5 163/3/5 164/3/5
f 165/3/6 166/3/6 167/3/6 168/3/6
f 169/1/1 170/1/1 171/1/1 172/1/1
f 173/1/5 174/1/5 175/1/5 176/1/5
f 177/1/6 178/1/6 179/1/6 180/1/6
f 181/3/2 182/3/2 183/3/2 184/3/2
f 185/3/5 186/3/5 187/3/5 188/3/5
f 189/3/6 190/3/6 191/3/6 192/3/6
f 193/1/1 194/1/1 195/1/1 196/1/1
f 197/1/5 198/1/5 199/1/5 200/1/5
f 201/1/6 202/1/6 203/1/6 204/1/6
f 205/3/5 206/3/5 207/3/5 208/3/5
f 209/3/6 210/3/6 211/3/6 212/3/6
f 213/3/2 214/3/2 215/3/2 216/3/2
f 217/3/3 218/3/3 219/3/3 220/3/3
f 221/3/5 222/3/5 223/3/5 224/3/5
f 225/3/6 226/3/6 227/3/6 228/3/6
f 229/1/1 230/1/1 231/1/1 232/1/1
f 233/1/5 234/1/5 235/1/5 236/1/5
f 237/1/6 238/1/6 239/1/6 240/1/6
f 241/3/5 242/3/5 243/3/5 244/3/5
f 245/3/6 246/3/6 247/3/6 248/3/6
f 249/3/2 250/3/2 251/3/2 252/3/2
f 253/3/4 254/3/4 255/3/4 256/3/4
f 257/3/5 258/3/5 259/3/5 260/3/5
f 261/3/6 262/3/6 263/3/6 264/3/6
f 265/1/1 266/1/1 267/1/1 268/1/1
f 269/1/5 270/1/5 271/1/5 272/1/5
f 273/1/6 274/1/6 275/1/6 276/1/6
f 277/3/2 278/3/2 279/3/2 280/3/2
f 281/3/5 282/3/5 283/3/5 284/3/5
f 285/3/6 286/3/6 287/3/6 288/3/6
f 289/1/1 290/1/1 291/1/1 292/1/1
f 293/1/5 294/1/5 295/1/5 296/1/5
f 297/1/6 298/1/6 299/1/6 300/1/6
f 301/3/2 302/3/2 303/3/2 304/3/2
f 305/3/5 306/3/5 307/3/5 308/3/5
f 309/3/6 310/3/6 311/3/6 312/3/6
f 313/1/1 314/1/1 315/1/1 316/1/1
f 317/1/5 318/1/5 319/1/5 320/1/5
f 321/1/6 322/1/6 323/1/6 324/1/6
f 325/3/2 326/3/2 327/3/2 328/3/2
f 329/3/5 330/3/5 331/3/5 332/3/5
f 333/3/6 334/3/6 335/3/6 336/3/6
f 337/1/1 338/1/1 339/1/1 340/1/1
f 341/1/5 342/1/5 343/1/5 344/1/5
f 345/1/6 346/1/6 347/1/6 348/1/6
f 349/3/2 350/3/2 351/3/2 352/3/2
f 353/3/4 354/3/4 355/3/4 356/3/4
f 357/3/5 358/3/5 359/3/5 360/3/5
f 361/3/6 362/3/6 363/3/6 364/3/6
f 365/1/1 366/1/1 367/1/1 368/1/1
f 369/1/3 370/1/3 371/1/3 372/1/3
f 373/1/5 374/1/5 375/1/5 376/1/5
f 377/1/6 378/1/6 379/1/6 380/1/6
f 381/3/2 382/3/2 383/3/2 384/3/2
f 385/3/5 386/3/5 387/3/5 388/3/5
f 389/3/6 390/3/6 391/3/6 392/3/6
f 393/2/1 394/2/1 395/2/1 396/2/1
f 397/2/2 398/2/2 399/2/2 400/2/2
f 401/2/3 402/2/3 403/2/3 404/2/3
f 405/2/5 406/2/5 407/2/5 408/2/5
f 409/2/6 410/2/6 411/2/6 412/2/6
f 413/1/1 414/1/1 415/1/1 416/1/1
f 417/1/5 418/1/5 419/1/5 420/1/5
f 421/1/6 422/1/6 423/1/6 424/1/6
f 425/3/2 426/3/2 427/3/2 428/3/2
f 429/3/5 430/3/5 431/3/5 432/3/5
f 433/3/6 434/3/6 435/3/6 436/3/6
f 437/2/1 438/2/1 439/2/1 440/2/1
f 441/2/2 442/2/2 443/2/2 444/2/2
f 445/2/5 446/2/5 447/2/5 448/2/5
f 449/2/6 450/2/6 451/2/6 452/2/6
f 453/1/1 454/1/1 455/1/1 456/1/1
f 457/1/2 458/1/2 459/1/2 460/1/2
f 461/1/3 462/1/3 463/1/3 464/1/3
f 465/1/4 466/1/4 467/1/4 468/1/4
f 469/1/5 470/1/5 471/1/5 472/1/5
f 473/1/6 474/1/6 475/1/6 476/1/6
f 477/1/1 478/1/1 479/1/1 480/1/1
f 481/1/5 482/1/5 483/1/5 484/1/5
f 485/1/6 486/1/6 487/1/6 488/1/6
f 489/3/2 490/3/2 491/3/2 492/3/2
f 493/3/4 494/3/4 495/3/4 496/3/4
f 497/3/5 498/3/5 499/3/5 500/3/5
f 501/3/6 502/3/6 503/3/6 504/3/6
f 505/2/1 506/2/1 507/2/1 508/2/1
f 509/2/2 510/2/2 511/2/2 512/2/2
f 513/2/5 514/2/5 515/2/5 516/2/5
f 517/2/6 518/2/6 519/2/6 520/2/6
f 521/1/1 522/1/1 523/1/1 524/1/1
f 525/1/3 526/1/3 527/1/3 528/1/3
f 529/1/5 530/1/5 531/1/5 532/1/5
f 533/1/6 534/1/6 535/1/6 536/1/6
f 537/3/2 538/3/2 539/3/2 540/3/2
f 541/3/5 542/3/5 543/3/5 544/3/5
f 545/3/6 546/3/6 547/3/6 548/3/6
f 549/2/1 550/2/1 551/2/1 552/2/1
f 553/2/3 554/2/3 555/2/3 556/2/3
f 557/2/5 558/2/5 559/2/5 560/2/5
f 561/2/6 562/2/6 563/2/6 564/2/6
f 565/2/2 566/2/2 567/2/2 568/2/2
f 569/2/5 570/2/5 571/2/5 572/2/5
f 573/2/6 574/2/6 575/2/6 576/2/6
f 577/1/1 578/1/1 579/1/1 580/1/1
f 581/1/2 582/1/2 583/1/2 584/1/2
f 585/1/3 586/1/3 587/1/3 588/1/3
f 589/1/4 590/1/4 591/1/4 592/1/4
f 593/1/5 594/1/5 595/1/5 596/1/5
f 597/1/6 598/1/6 599/1/6 600/1/6
f 601/1/1 602/1/1 603/1/1 604/1/1
f 605/1/5 606/1/5 607/1/5 608/1/5
f 609/1/6 610/1/6 611/1/6 612/1/6
f 613/3/2 614/3/2 615/3/2 616/3/2
f 617/3/5 618/3/5 619/3/5 620/3/5
f 621/3/6 622/3/6 623/3/6 624/3/6
f 625/2/1 626/2/1 627/2/1 628/2/1
f 629/2/5 630/2/5 631/2/5 632/2/5
f 633/2/6 634/2/6 635/2/6 636/2/6
f 637/2/2 638/2/2 639/2/2 640/2/2
f 641/2/5 642/2/5 643/2/5 644/2/5
f 645/2/6 646/2/6 647/2/6 648/2/6
f 649/1/1 650/1/1 651/1/1 652/1/1
f 653/1/2 654/1/2 655/1/2 656/1/2
f 657/1/3 658/1/3 659/1/3 660/1/3
f 661/1/4 662/1/4 663/1/4 664/1/4
f 665/1/5 666/1/5 667/1/5 668/1/5
f 669/1/6 670/1/6 671/1/6 672/1/6
f 673/1/1 674/1/1 675/1/1 676/1/1
f 677/1/3 678/1/3 679/1/3 680/1/3
f 681/1/5 682/1/5 683/1/5 684/1/5
f 685/1/6 686/1/6 687/1/6 688/1/6
f 689/3/5 690/3/5 691/3/5 692/3/5
f 693/3/6 694/3/6 695/3/6 696/3/6
f 697/3/2 698/3/2 699/3/2 700/3/2
f 701/3/4 702/3/4 703/3/4 704/3/4
f 705/3/5 706/3/5 707/3/5 708/3/5
f 709/3/6 710/3/6 711/3/6 712/3/6
f 713/2/1 714/2/1 715/2/1 716/2/1
f 717/2/5 718/2/5 719/2/5 720/2/5
f 721/2/6 722/2/6 723/2/6 724/2/6
f 725/2/2 726/2/2 727/2/2 728/2/2
f 729/2/5 730/2/5 731/2/5 732/2/5
f 733/2/6 734/2/6 735/2/6 736/2/6
f 737/1/1 738/1/1 739/1/1 740/1/1
f 741/1/3 742/1/3 743/1/3 744/1/3
f 745/1/4 746/1/4 747/1/4 748/1/4
f 749/1/5 750/1/5 751/1/5 752/1/5
f 753/1/6 754/1/6 755/1/6 756/1/6
f 757/1/2 758/1/2 759/1/2 760/1/2
f 761/1/3 762/1/3 763/1/3 764/1/3
f 765/1/5 766/1/5 767/1/5 768/1/5
f 769/1/6 770/1/6 771/1/6 772/1/6
f 773/1/1 774/1/1 775/1/1 776/1/1
f 777/1/5 778/1/5 779/1/5 780/1/5
f 781/1/6 782/1/6 783/1/6 784/1/6
f 785/3/2 786/3/2 787/3/2 788/3/2
f 789/3/4 790/3/4 791/3/4 792/3/4
f 793/3/5 794/3/5 795/3/5 796/3/5
f 797/3/6 798/3/6 799/3/6 800/3/6
f 801/2/1 802/2/1 803/2/1 804/2/1
f 805/2/3 806/2/3 807/2/3 808/2/3
f 809/2/5 810/2/5 811/2/5 812/2/5
f 813/2/6 814/2/6 815/2/6 816/2/6
f 817/2/5 818/2/5 819/2/5 820/2/5
f 821/2/6 822/2/6 823/2/6 824/2/6
f 825/2/2 826/2/2 827/2/2 828/2/2
f 829/2/5 830/2/5 831/2/5 832/2/5
f 833/2/6 834/2/6 835/2/6 836/2/6
f 837/3/1 838/3/1 839/3/1 840/3/1
f 841/3/4 842/3/4 843/3/4 844/3/4
f 845/3/5 846/3/5 847/3/5 848/3/5
f 849/3/6 850/3/6 851/3/6 852/3/6
f 853/1/3 854/1/3 855/1/3 856/1/3
f 857/1/5 858/1/5 859/1/5 860/1/5
f 861/1/6 862/1/6 863/1/6 864/1/6
f 865/1/2 866/1/2 867/1/2 868/1/2
f 869/1/3 870/1/3 871/1/3 872/1/3
f 873/1/5 874/1/5 875/1/5 876/1/5
f 877/1/6 878/1/6 879/1/6 880/1/6
f 881/1/1 882/1/1 883/1/1 884/1/1
f 885/1/3 886/1/3 887/1/3 888/1/3
f 889/1/5 890/1/5 891/1/5 892/1/5
f 893/1/6 894/1/6 895/1/6 896/1/6
f 897/3/2 898/3/2 899/3/2 900/3/2
f 901/3/5 902/3/5 903/3/5 904/3/5
f 905/3/6 906/3/6 907/3/6 908/3/6
f 909/2/1 910/2/1 911/2/1 912/2/1
f 913/2/3 914/2/3 915/2/3 916/2/3
f 917/2/5 918/2/5 919/2/5 920/2/5
f 921/2/6 922/2/6 923/2/6 924/2/6
f 925/2/5 926/2/5 927/2/5 928/2/5
f 929/2/6 930/2/6 931/2/6 932/2/6
f 933/2/5 934/2/5 935/2/5 936/2/5
f 937/2/6 938/2/6 939/2/6 940/2/6
f 941/2/2 942/2/2 943/2/2 944/2/2
f 945/2/5 946/2/5 947/2/5 948/2/5
f 949/2/6 950/2/6 951/2/6 952/2/6
f 953/3/1 954/3/1 955/3/1 956/3/1
f 957/3/4 958/3/4 959/3/4 960/3/4
f 961/3/5 962/3/5 963/3/5 964/3/5
f 965/3/6 966/3/6 967/3/6 968/3/6
f 969/3/5 970/3/5 971/3/5 972/3/5
f 973/3/6 974/3/6 975/3/6 976/3/6
f 977/1/3 978/1/3 979/1/3 980/1/3
f 981/1/5 982/1/5 983/1/5 984/1/5
f 985/1/6 986/1/6 987/1/6 988/1/6
f 989/1/2 990/1/2 991/1/2 992/1/2
f 993/1/3 994/1/3 995/1/3 996/1/3
f 997/1/5 998/1/5 999/1/5 1000/1/5
f 1001/1/6 1002/1/6 1003/1/6 1004/1/6
f 1005/1/1 1006/1/1 1007/1/1 1008/1/1
f 1009/1/3 1010/1/3 1011/1/3 1012/1/3
f 1013/1/5 1014/1/5 1015/1/5 1016/1/5
f 1017/1/6 1018/1/6 1019/1/6 1020/1/6
f 1021/3/5 1022/3/5 1023/3/5 1024/3/5
f 1025/3/6 1026/3/6 1027/3/6 1028/3/6
f 1029/3/2 1030/3/2 1031/3/2 1032/3/2
f 1033/3/4 1034/3/4 1035/3/4 1036/3/4
f 1037/3/5 1038/3/5 1039/3/5 1040/3/5
f 1041/3/6 1042/3/6 1043/3/6 1044/3/6
f 1045/2/1 1046/2/1 1047/2/1 1048/2/1
f 1049/2/5 1050/2/5 1051/2/5 1052/2/5
f 1053/2/6 1054/2/6 1055/2/6 1056/2/6
f 1057/2/5 1058/2/5 1059/2/5 1060/2/5
f 1061/2/6 1062/2/6 1063/2/6 1064/2/6
f 1065/2/5 1066/2/5 1067/2/5 1068/2/5
f 1069/2/6 1070/2/6 1071/2/6 1072/2/6
f 1073/2/2 1074/2/2 1075/2/2 1076/2/2
f 1077/2/5 1078/2/5 1079/2/5 1080/2/5
f 1081/2/6 1082/2/6 1083/2/6 1084/2/6
f 1085/3/1 1086/3/1 1087/3/1 1088/3/1
f 1089/3/4 1090/3/4 1091/3/4 1092/3/4
f 1093/3/5 1094/3/5 1095/3/5 1096/3/5
f 1097/3/6 1098/3/6 1099/3/6 1100/3/6
f 1101/3/5 1102/3/5 1103/3/5 1104/3/5
f 1105/3/6 1106/3/6 1107/3/6 1108/3/6
f 1109/3/5 1110/3/5 1111/3/5 1112/3/5
f 1113/3/6 1114/3/6 1115/3/6 1116/3/6
f 1117/1/3 1118/1/3 1119/1/3 1120/1/3
f 1121/1/5 1122/1/5 1123/1/5 1124/1/5
f 1125/1/6 1126/1/6 1127/1/6 1128/1/6
f 1129/1/3 1130/1/3 1131/1/3 1132/1/3
f 1133/1/5 1134/1/5 1135/1/5 1136/1/5
f 1137/1/6 1138/1/6 1139/1/6 1140/1/6
f 1141/1/2 1142/1/2 1143/1/2 1144/1/2
f 1145/1/3 1146/1/3 1147/1/3 1148/1/3
f 1149/1/5 1150/1/5 1151/1/5 1152/1/5
f 1153/1/6 1154/1/6 1155/1/6 1156/1/6
f 1157/1/1 1158/1/1 1159/1/1 1160/1/1
f 1161/1/3 1162/1/3 1163/1/3 1164/1/3
f 1165/1/5 1166/1/5 1167/1/5 1168/1/5
f 1169/1/6 1170/1/6 1171/1/6 1172/1/6
f 1173/1/3 1174/1/3 1175/1/3 1176/1/3
f 1177/1/5 1178/1/5 1179/1/5 1180/1/5
f 1181/1/6 1182/1/6 1183/1/6 1184/1/6
f 1185/1/3 1186/1/3 1187/1/3 1188/1/3
f 1189/1/5 1190/1/5 1191/1/5 1192/1/5
f 1193/1/6 1194/1/6 1195/1/6 1196/1/6
f 1197/3/5 1198/3/5 1199/3/5 1200/3/5
f 1201/3/6 1202/3/6 1203/3/6 1204/3/6
f 1205/3/2 1206/3/2 1207/3/2 1208/3/2
f 1209/3/4 1210/3/4 1211/3/4 1212/3/4
f 1213/3/5 1214/3/5 1215/3/5 1216/3/5
f 1217/3/6 1218/3/6 1219/3/6 1220/3/6
f 1221/2/1 1222/2/1 1223/2/1 1224/2/1
f 1225/2/3 1226/2/3 1227/2/3 1228/2/3
f 1229/2/5 1230/2/5 1231/2/5 1232/2/5
f 1233/2/6 1234/2/6 1235/2/6 1236/2/6
f 1237/2/5 1238/2/5 1239/2/5 1240/2/5
f 1241/2/6 1242/2/6 1243/2/6 1244/2/6
f 1245/2/5 1246/2/5 1247/2/5 1248/2/5
f 1249/2/6 1250/2/6 1251/2/6 1252/2/6
f 1253/2/5 1254/2/5 1255/2/5 1256/2/5
f 1257/2/6 1258/2/6 1259/2/6 1260/2/6
f 1261/2/2 1262/2/2 1263/2/2 1264/2/2
f 1265/2/5 1266/2/5 1267/2/5 1268/2/5
f 1269/2/6 1270/2/6 1271/2/6 1272/2/6
f 1273/3/1 1274/3/1 1275/3/1 1276/3/1
f 1277/3/4 1278/3/4 1279/3/4 1280/3/4
f 1281/3/5 1282/3/5 1283/3/5 1284/3/5
f 1285/3/6 1286/3/6 1287/3/6 1288/3/6
f 1289/3/4 1290/3/4 1291/3/4 1292/3/4
f 1293/3/5 1294/3/5 1295/3/5 1296/3/5
f 1297/3/6 1298/3/6 1299/3/6 1300/3/6
f 1301/3/5 1302/3/5 1303/3/5 1304/3/5
f 1305/3/6 1306/3/6 1307/3/6 1308/3/6
f 1309/3/5 1310/3/5 1311/3/5 1312/3/5
f 1313/3/6 1314/3/6 1315/3/6 1316/3/6
f 1317/3/5 1318/3/5 1319/3/5 1320/3/5
f 1321/3/6 1322/3/6 1323/3/6 1324/3/6
f 1325/1/3 1326/1/3 1327/1/3 1328/1/3
f 1329/1/5 1330/1/5 1331/1/5 1332/1/5
f 1333/1/6 1334/1/6 1335/1/6 1336/1/6
f 1337/1/3 1338/1/3 1339/1/3 1340/1/3
f 1341/1/5 1342/1/5 1343/1/5 1344/1/5
f 1345/1/6 1346/1/6 1347/1/6 1348/1/6
f 1349/1/3 1350/1/3 1351/1/3 1352/1/3
f 1353/1/5 1354/1/5 1355/1/5 1356/1/5
f 1357/1/6 1358/1/6 1359/1/6 1360/1/6
f 1361/3/5 1362/3/5 1363/3/5 1364/3/5
f 1365/3/6 1366/3/6 1367/3/6 1368/3/6
f 1369/3/5 1370/3/5 1371/3/5 1372/3/5
f 1373/3/6 1374/3/6 1375/3/6 1376/3/6
f 1377/3/5 1378/3/5 1379/3/5 1380/3/5
f 1381/3/6 1382/3/6 1383/3/6 1384/3/6
f 1385/3/2 1386/3/2 1387/3/2 1388/3/2
f 1389/3/4 1390/3/4 1391/3/4 1392/3/4
f 1393/3/5 1394/3/5 1395/3/5 1396/3/5
f 1397/3/6 1398/3/6 1399/3/6 1400/3/6
f 1401/2/1 1402/2/1 1403/2/1 1404/2/1
f 1405/2/3 1406/2/3 1407/2/3 1408/2/3
f 1409/2/5 1410/2/5 1411/2/5 1412/2/5
f 1413/2/6 1414/2/6 1415/2/6 1416/2/6
f 1417/2/5 1418/2/5 1419/2/5 1420/2/5
f 1421/2/6 1422/2/6 1423/2/6 1424/2/6
f 1425/2/5 1426/2/5 1427/2/5 1428/2/5
f 1429/2/6 1430/2/6 1431/2/6 1432/2/6
f 1433/2/5 1434/2/5 1435/2/5 1436/2/5
f 1437/2/6 1438/2/6 1439/2/6 1440/2/6
f 1441/2/5 1442/2/5 1443/2/5 1444/2/5
f 1445/2/6 1446/2/6 1447/2/6 1448/2/6
f 1449/2/2 1450/2/2 1451/2/2 1452/2/2
f 1453/2/5 1454/2/5 1455/2/5 1456/2/5
f 1457/2/6 1458/2/6 1459/2/6 1460/2/6
f 1461/3/1 1462/3/1 1463/3/1 1464/3/1
f 1465/3/4 1466/3/4 1467/3/4 1468/3/4
f 1469/3/5 1470/3/5 1471/3/5 1472/3/5
f 1473/3/6 1474/3/6 1475/3/6 1476/3/6
f 1477/3/4 1478/3/4 1479/3/4 1480/3/4
f 1481/3/5 1482/3/5 1483/3/5 1484/3/5
f 1485/3/6 1486/3/6 1487/3/6 1488/3/6
f 1489/3/5 1490/3/5 1491/3/5 1492/3/5
f 1493/3/6 1494/3/6 1495/3/6 1496/3/6
f 1497/3/5 1498/3/5 1499/3/5 1500/3/5
f 1501/3/6 1502/3/6 1503/3/6 1504/3/6
f 1505/3/5 1506/3/5 1507/3/5 1508/3/5
f 1509/3/6 1510/3/6 1511/3/6 1512/3/6
f 1513/3/5 1514/3/5 1515/3/5 1516/3/5
f 1517/3/6 1518/3/6 1519/3/6 1520/3/6
f 1521/3/4 1522/3/4 1523/3/4 1524/3/4
f 1525/3/5 1526/3/5 1527/3/5 1528/3/5
f 1529/3/6 1530/3/6 1531/3/6 1532/3/6
f 1533/3/4 1534/3/4 1535/3/4 1536/3/4
f 1537/3/5 1538/3/5 1539/3/5 1540/3/5
f 1541/3/6 1542/3/6 1543/3/6 1544/3/6
f 1545/3/2 1546/3/2 1547/3/2 1548/3/2
f 1549/3/4 1550/3/4 1551/3/4 1552/3/4
f 1553/3/5 1554/3/5 1555/3/5 1556/3/5
f 1557/3/6 1558/3/6 1559/3/6 1560/3/6
f 1561/2/1 1562/2/1 1563/2/1 1564/2/1
f 1565/2/3 1566/2/3 1567/2/3 1568/2/3
f 1569/2/5 1570/2/5 1571/2/5 1572/2/5
f 1573/2/6 1574/2/6 1575/2/6 1576/2/6
f 1577/2/5 1578/2/5 1579/2/5 1580/2/5
f 1581/2/6 1582/2/6 1583/2/6 1584/2/6
f 1585/2/5 1586/2/5 1587/2/5 1588/2/5
f 1589/2/6 1590/2/6 1591/2/6 1592/2/6
f 1593/2/5 1594/2/5 1595/2/5 1596/2/5
f 1597/2/6 1598/2/6 1599/2/6 1600/2/6
f 1601/2/5 1602/2/5 1603/2/5 1604/2/5
f 1605/2/6 1606/2/6 1607/2/6 1608/2/6
f 1609/2/5 1610/2/5 1611/2/5 1612/2/5
f 1613/2/6 1614/2/6 1615/2/6 1616/2/6
f 1617/2/2 1618/2/2 1619/2/2 1620/2/2
f 1621/2/4 1622/2/4 1623/2/4 1624/2/4
f 1625/2/5 1626/2/5 1627/2/5 1628/2/5
f 1629/2/6 1630/2/6 1631/2/6 1632/2/6
f 1633/3/1 1634/3/1 1635/3/1 1636/3/1
f 1637/3/4 1638/3/4 1639/3/4 1640/3/4
f 1641/3/5 1642/3/5 1643/3/5 1644/3/5
f 1645/3/6 1646/3/6 1647/3/6 1648/3/6
f 1649/3/4 1650/3/4 1651/3/4 1652/3/4
f 1653/3/5 1654/3/5 1655/3/5 1656/3/5
f 1657/3/6 1658/3/6 1659/3/6 1660/3/6
f 1661/3/4 1662/3/4 1663/3/4 1664/3/4
f 1665/3/5 1666/3/5 1667/3/5 1668/3/5
f 1669/3/6 1670/3/6 1671/3/6 1672/3/6
f 1673/3/2 1674/3/2 1675/3/2 1676/3/2
f 1677/3/4 1678/3/4 1679/3/4 1680/3/4
f 1681/3/5 1682/3/5 1683/3/5 1684/3/5
f 1685/3/6 1686/3/6 1687/3/6 1688/3/6
f 1689/2/1 1690/2/1 1691/2/1 1692/2/1
f 1693/2/3 1694/2/3 1695/2/3 1696/2/3
f 1697/2/5 1698/2/5 1699/2/5 1700/2/5
f 1701/2/6 1702/2/6 1703/2/6 1704/2/6
f 1705/2/5 1706/2/5 1707/2/5 1708/2/5
f 1709/2/6 1710/2/6 1711/2/6 1712/2/6
f 1713/2/5 1714/2/5 1715/2/5 1716/2/5
f 1717/2/6 1718/2/6 1719/2/6 1720/2/6
f 1721/2/5 1722/2/5 1723/2/5 1724/2/5
f 1725/2/6 1726/2/6 1727/2/6 1728/2/6
f 1729/2/5 1730/2/5 1731/2/5 1732/2/5
f 1733/2/6 1734/2/6 1735/2/6 1736/2/6
f 1737/2/5 1738/2/5 1739/2/5 1740/2/5
f 1741/2/6 1742/2/6 1743/2/6 1744/2/6
f 1745/2/2 1746/2/2 1747/2/2 1748/2/2
f 1749/2/5 1750/2/5 1751/2/5 1752/2/5
f 1753/2/6 1754/2/6 1755/2/6 1756/2/6
f 1757/2/1 1758/2/1 1759/2/1 1760/2/1
f 1761/2/2 1762/2/2 1763/2/2 1764/2/2
f 1765/2/3 1766/2/3 1767/2/3 1768/2/3
f 1769/2/4 1770/2/4 1771/2/4 1772/2/4
f 1773/2/5 1774/2/5 1775/2/5 1776/2/5
f 1777/2/6 1778/2/6 1779/2/6 1780/2/6
f 1781/2/1 1782/2/1 1783/2/1 1784/2/1
f 1785/2/3 1786/2/3 1787/2/3 1788/2/3
f 1789/2/5 1790/2/5 1791/2/5 1792/2/5
f 1793/2/6 1794/2/6 1795/2/6 1796/2/6
f 1797/2/3 1798/2/3 1799/2/3 1800/2/3
f 1801/2/5 1802/2/5 1803/2/5 1804/2/5
f 1805/2/6 1806/2/6 1807/2/6 1808/2/6
f 1809/2/3 1810/2/3 1811/2/3 1812/2/3
f 1813/2/5 1814/2/5 1815/2/5 1816/2/5
f 1817/2/6 1818/2/6 1819/2/6 1820/2/6
f 1821/2/5 1822/2/5 1823/2/5 1824/2/5
f 1825/2/6 1826/2/6 1827/2/6 1828/2/6
f 1829/2/5 1830/2/5 1831/2/5 1832/2/5
f 1833/2/6 1834/2/6 1835/2/6 1836/2/6
f 1837/2/5 1838/2/5 1839/2/5 1840/2/5
f 1841/2/6 1842/2/6 1843/2/6 1844/2/6
f 1845/2/5 1846/2/5 1847/2/5 1848/2/5
f 1849/2/6 1850/2/6 1851/2/6 1852/2/6
f 1853/2/5 1854/2/5 1855/2/5 1856/2/5
f 1857/2/6 1858/2/6 1859/2/6 1860/2/6
f 1861/2/5 1862/2/5 1863/2/5 1864/2/5
f 1865/2/6 1866/2/6 1867/2/6 1868/2/6
f 1869/2/2 1870/2/2 1871/2/2 1872/2/2
f 1873/2/5 1874/2/5 1875/2/5 1876/2/5
f 1877/2/6 1878/2/6 1879/2/6 1880/2/6
f 1881/2/1 1882/2/1 1883/2/1 1884/2/1
f 1885/2/3 1886/2/3 1887/2/3 1888/2/3
f 1889/2/4 1890/2/4 1891/2/4 1892/2/4
f 1893/2/5 1894/2/5 1895/2/5 1896/2/5
f 1897/2/6 1898/2/6 1899/2/6 1900/2/6
f 1901/2/3 1902/2/3 1903/2/3 1904/2/3
f 1905/2/5 1906/2/5 1907/2/5 1908/2/5
f 1909/2/6 1910/2/6 1911/2/6 1912/2/6
f 1913/2/3 1914/2/3 1915/2/3 1916/2/3
f 1917/2/5 1918/2/5 1919/2/5 1920/2/5
f 1921/2/6 1922/2/6 1923/2/6 1924/2/6
f 1925/2/3 1926/2/3 1927/2/3 1928/2/3
f 1929/2/5 1930/2/5 1931/2/5 1932/2/5
f 1933/2/6 1934/2/6 1935/2/6 1936/2/6
f 1937/2/5 1938/2/5 1939/2/5 1940/2/5
f 1941/2/6 1942/2/6 1943/2/6 1944/2/6
f 1945/2/5 1946/2/5 1947/2/5 1948/2/5
f 1949/2/6 1950/2/6 1951/2/6 1952/2/6
f 1953/2/5 1954/2/5 1955/2/5 1956/2/5
f 1957/2/6 1958/2/6 1959/2/6 1960/2/6
f 1961/2/5 1962/2/5 1963/2/5 1964/2/5
f 1965/2/6 1966/2/6 1967/2/6 1968/2/6
f 1969/2/5 1970/2/5 1971/2/5 1972/2/5
f 1973/2/6 1974/2/6 1975/2/6 1976/2/6
f 1977/2/5 1978/2/5 1979/2/5 1980/2/5
f 1981/2/6 1982/2/6 1983/2/6 1984/2/6
f 1985/2/5 1986/2/5 1987/2/5 1988/2/5
f 1989/2/6 1990/2/6 1991/2/6 1992/2/6
f 1993/2/5 1994/2/5 1995/2/5 1996/2/5
f 1997/2/6 1998/2/6 1999/2/6 2000/2/6
f 2001/2/5 2002/2/5 2003/2/5 2004/2/5
f 2005/2/6 2006/2/6 2007/2/6 2008/2/6
f 2009/2/2 2010/2/2 2011/2/2 2012/2/2
f 2013/2/5 2014/2/5 2015/2/5 2016/2/5
f 2017/2/6 2018/2/6 2019/2/6 2020/2/6
f 2021/2/1 2022/2/1 2023/2/1 2024/2/1
f 2025/2/4 2026/2/4 2027/2/4 2028/2/4
f 2029/2/5 2030/2/5 2031/2/5 2032/2/5
f 2033/2/6 2034/2/6 2035/2/6 2036/2/6
f 2037/2/5 2038/2/5 2039/2/5 2040/2/5
f 2041/2/6 2042/2/6 2043/2/6 2044/2/6
f 2045/2/5 2046/2/5 2047/2/5 2048/2/5
f 2049/2/6 2050/2/6 2051/2/6 2052/2/6
f 2053/2/5 2054/2/5 2055/2/5 2056/2/5
f 2057/2/6 2058/2/6 2059/2/6 2060/2/6
f 2061/2/5 2062/2/5 2063/2/5 2064/2/5
f 2065/2/6 2066/2/6 2067/2/6 2068/2/6
f 2069/2/5 2070/2/5 2071/2/5 2072/2/5
f 2073/2/6 2074/2/6 2075/2/6 2076/2/6
f 2077/2/5 2078/2/5 2079/2/5 2080/2/5
f 2081/2/6 2082/2/6 2083/2/6 2084/2/6
f 2085/2/5 2086/2/5 2087/2/5 2088/2/5
f 2089/2/6 2090/2/6 2091/2/6 2092/2/6
f 2093/2/5 2094/2/5 2095/2/5 2096/2/5
f 2097/2/6 2098/2/6 2099/2/6 2100/2/6
f 2101/2/5 2102/2/5 2103/2/5 2104/2/5
f 2105/2/6 2106/2/6 2107/2/6 2108/2/6
f 2109/2/5 2110/2/5 2111/2/5 2112/2/5
f 2113/2/6 2114/2/6 2115/2/6 2116/2/6
f 2117/2/5 2118/2/5 2119/2/5 2120/2/5
f 2121/2/6 2122/2/6 2123/2/6 2124/2/6
f 2125/2/2 2126/2/2 2127/2/2 2128/2/2
f 2129/2/5 2130/2/5 2131/2/5 2132/2/5
f 2133/2/6 2134/2/6 2135/2/6 2136/2/6
f 2137/2/1 2138/2/1 2139/2/1 2140/2/1
f 2141/2/4 2142/2/4 2143/2/4 2144/2/4
f 2145/2/5 2146/2/5 2147/2/5 2148/2/5
f 2149/2/6 2150/2/6 2151/2/6 2152/2/6
f 2153/2/5 2154/2/5 2155/2/5 2156/2/5
f 2157/2/6 2158/2/6 2159/2/6 2160/2/6
f 2161/2/5 2162/2/5 2163/2/5 2164/2/5
f 2165/2/6 2166/2/6 2167/2/6 2168/2/6
f 2169/2/5 2170/2/5 2171/2/5 2172/2/5
f 2173/2/6 2174/2/6 2175/2/6 2176/2/6
f 2177/2/5 2178/2/5 2179/2/5 2180/2/5
f 2181/2/6 2182/2/6 2183/2/6 2184/2/6
f 2185/2/5 2186/2/5 2187/2/5 2188/2/5
f 2189/2/6 2190/2/6 2191/2/6 2192/2/6
f 2193/2/5 2194/2/5 2195/2/5 2196/2/5
f 2197/2/6 2198/2/6 2199/2/6 2200/2/6
f 2201/2/5 2202/2/5 2203/2/5 2204/2/5
f 2205/2/6 2206/2/6 2207/2/6 2208/2/6
f 2209/2/5 2210/2/5 2211/2/5 2212/2/5
f 2213/2/6 2214/2/6 2215/2/6 2216/2/6
f 2217/2/5 2218/2/5 2219/2/5 2220/2/5
f 2221/2/6 2222/2/6 2223/2/6 2224/2/6
f 2225/2/5 2226/2/5 2227/2/5 2228/2/5
f 2229/2/6 2230/2/6 2231/2/6 2232/2/6
f 2233/2/2 2234/2/2 2235/2/2 2236/2/2
f 2237/2/4 2238/2/4 2239/2/4 2240/2/4
f 2241/2/5 2242/2/5 2243/2/5 2244/2/5
f 2245/2/6 2246/2/6 2247/2/6 2248/2/6
f 2249/2/1 2250/2/1 2251/2/1 2252/2/1
f 2253/2/4 2254/2/4 2255/2/4 2256/2/4
f 2257/2/5 2258/2/5 2259/2/5 2260/2/5
f 2261/2/6 2262/2/6 2263/2/6 2264/2/6
f 2265/2/5 2266/2/5 2267/2/5 2268/2/5
f 2269/2/6 2270/2/6 2271/2/6 2272/2/6
f 2273/2/5 2274/2/5 2275/2/5 2276/2/5
f 2277/2/6 2278/2/6 2279/2/6 2280/2/6
f 2281/2/5 2282/2/5 2283/2/5 2284/2/5
f 2285/2/6 2286/2/6 2287/2/6 2288/2/6
f 2289/2/5 2290/2/5 2291/2/5 2292/2/5
f 2293/2/6 2294/2/6 2295/2/6 2296/2/6
f 2297/2/5 2298/2/5 2299/2/5 2300/2/5
f 2301/2/6 2302/2/6 2303/2/6 2304/2/6
f 2305/2/5 2306/2/5 2307/2/5 2308/2/5
f 2309/2/6 2310/2/6 2311/2/6 2312/2/6
f 2313/2/5 2314/2/5 2315/2/5 2316/2/5
f 2317/2/6 2318/2/6 2319/2/6 2320/2/6
f 2321/2/5 2322/2/5 2323/2/5 2324/2/5
f 2325/2/6 2326/2/6 2327/2/6 2328/2/6
f 2329/2/2 2330/2/2 2331/2/2 2332/2/2
f 2333/2/5 2334/2/5 2335/2/5 2336/2/5
f 2337/2/6 2338/2/6 2339/2/6 2340/2/6
f 2341/2/1 2342/2/1 2343/2/1 2344/2/1
f 2345/2/4 2346/2/4 2347/2/4 2348/2/4
f 2349/2/5 2350/2/5 2351/2/5 2352/2/5
f 2353/2/6 2354/2/6 2355/2/6 2356/2/6
f 2357/2/5 2358/2/5 2359/2/5 2360/2/5
f 2361/2/6 2362/2/6 2363/2/6 2364/2/6
f 2365/2/5 2366/2/5 2367/2/5 2368/2/5
f 2369/2/6 2370/2/6 2371/2/6 2372/2/6
f 2373/2/5 2374/2/5 2375/2/5 2376/2/5
f 2377/2/6 2378/2/6 2379/2/6 2380/2/6
f 2381/2/5 2382/2/5 2383/2/5 2384/2/5
f 2385/2/6 2386/2/6 2387/2/6 2388/2/6
f 2389/2/5 2390/2/5 2391/2/5 2392/2/5
f 2393/2/6 2394/2/6 2395/2/6 2396/2/6
f 2397/2/5 2398/2/5 2399/2/5 2400/2/5
f 2401/2/6 2402/2/6 2403/2/6 2404/2/6
f 2405/2/5 2406/2/5 2407/2/5 2408/2/5
f 2409/2/6 2410/2/6 2411/2/6 2412/2/6
f 2413/2/2 2414/2/2 2415/2/2 2416/2/2
f 2417/2/5 2418/2/5 2419/2/5 2420/2/5
f 2421/2/6 2422/2/6 2423/2/6 2424/2/6
f 2425/2/1 2426/2/1 2427/2/1 2428/2/1
f 2429/2/4 2430/2/4 2431/2/4 2432/2/4
f 2433/2/5 2434/2/5 2435/2/5 2436/2/5
f 2437/2/6 2438/2/6 2439/2/6 2440/2/6
f 2441/2/5 2442/2/5 2443/2/5 2444/2/5
f 2445/2/6 2446/2/6 2447/2/6 2448/2/6
f 2449/2/5 2450/2/5 2451/2/5 2452/2/5
f 2453/2/6 2454/2/6 2455/2/6 2456/2/6
f 2457/2/5 2458/2/5 2459/2/5 2460/2/5
f 2461/2/6 2462/2/6 2463/2/6 2464/2/6
f 2465/2/5 2466/2/5 2467/2/5 2468/2/5
f 2469/2/6 2470/2/6 2471/2/6 2472/2/6
f 2473/2/5 2474/2/5 2475/2/5 2476/2/5
f 2477/2/6 2478/2/6 2479/2/6 2480/2/6
f 2481/2/5 2482/2/5 2483/2/5 2484/2/5
f 2485/2/6 2486/2/6 2487/2/6 2488/2/6
f 2489/2/2 2490/2/2 2491/2/2 2492/2/2
f 2493/2/4 2494/2/4 2495/2/4 2496/2/4
f 2497/2/5 2498/2/5 2499/2/5 2500/2/5
f 2501/2/6 2502/2/6 2503/2/6 2504/2/6
f 2505/2/1 2506/2/1 2507/2/1 2508/2/1
f 2509/2/4 2510/2/4 2511/2/4 2512/2/4
f 2513/2/5 2514/2/5 2515/2/5 2516/2/5
f 2517/2/6 2518/2/6 2519/2/6 2520/2/6
f 2521/2/5 2522/2/5 2523/2/5 2524/2/5
f 2525/2/6 2526/2/6 2527/2/6 2528/2/6
f 2529/2/5 2530/2/5 2531/2/5 2532/2/5
f 2533/2/6 2534/2/6 2535/2/6 2536/2/6
f 2537/2/5 2538/2/5 2539/2/5 2540/2/5
f 2541/2/6 2542/2/6 2543/2/6 2544/2/6
f 2545/2/5 2546/2/5 2547/2/5 2548/2/5
f 2549/2/6 2550/2/6 2551/2/6 2552/2/6
f 2553/2/2 2554/2/2 2555/2/2 2556/2/2
f 2557/2/5 2558/2/5 2559/2/5 2560/2/5
f 2561/2/6 2562/2/6 2563/2/6 2564/2/6
f 2565/2/1 2566/2/1 2567/2/1 2568/2/1
f 2569/2/4 2570/2/4 2571/2/4 2572/2/4
f 2573/2/5 2574/2/5 2575/2/5 2576/2/5
f 2577/2/6 2578/2/6 2579/2/6 2580/2/6
f 2581/2/5 2582/2/5 2583/2/5 2584/2/5
f 2585/2/6 2586/2/6 2587/2/6 2588/2/6
f 2589/2/5 2590/2/5 2591/2/5 2592/2/5
f 2593/2/6 2594/2/6 2595/2/6 2596/2/6
f 2597/2/5 2598/2/5 2599/2/5 2600/2/5
f 2601/2/6 2602/2/6 2603/2/6 2604/2/6
f 2605/2/2 2606/2/2 2607/2/2 2608/2/2
f 2609/2/4 2610/2/4 2611/2/4 2612/2/4
f 2613/2/5 2614/2/5 2615/2/5 2616/2/5
f 2617/2/6 2618/2/6 2619/2/6 2620/2/6
f 2621/2/1 2622/2/1 2623/2/1 2624/2/1
f 2625/2/4 2626/2/4 2627/2/4 2628/2/4
f 2629/2/5 2630/2/5 2631/2/5 2632/2/5
f 2633/2/6 2634/2/6 2635/2/6 2636/2/6
f 2637/2/5 2638/2/5 2639/2/5 2640/2/5
f 2641/2/6 2642/2/6 2643/2/6 2644/2/6
f 2645/2/2 2646/2/2 2647/2/2 2648/2/2
f 2649/2/4 2650/2/4 2651/2/4 2652/2/4
f 2653/2/5 2654/2/5 2655/2/5 2656/2/5
f 2657/2/6 2658/2/6 2659/2/6 2660/2/6
f 2661/2/1 2662/2/1 2663/2/1 2664/2/1
f 2665/2/2 2666/2/2 2667/2/2 2668/2/2
f 2669/2/4 2670/2/4 2671/2/4 2672/2/4
f 2673/2/5 2674/2/5 2675/2/5 2676/2/5
f 2677/2/6 2678/2/6 2679/2/6 2680/2/6

