# generated by vox_to_obj_exporter
# scale=0.1 center=false ground=false y_up=true

mtllib Fight_710.mtl
usemtl palette

# normals
vn -1 0 0
vn 1 0 0
vn 0 1 0
vn 0 -1 0
vn 0 0 1
vn 0 0 -1

# texcoords
vt 0.103515625 0.5

# verts
v 2 16 -2.6
v 2 15.9 -2.6
v 2 15.9 -2.5
v 2 16 -2.5
v 2.1 16 -2.5
v 2.1 15.9 -2.5
v 2.1 15.9 -2.6
v 2.1 16 -2.6
v 2 16 -2.6
v 2 16 -2.5
v 2.1 16 -2.5
v 2.1 16 -2.6
v 2 15.9 -2.5
v 2 15.9 -2.6
v 2.1 15.9 -2.6
v 2.1 15.9 -2.5
v 2 16 -2.5
v 2 15.9 -2.5
v 2.1 15.9 -2.5
v 2.1 16 -2.5
v 2.1 16 -2.6
v 2.1 15.9 -2.6
v 2 15.9 -2.6
v 2 16 -2.6
v 2 15.6 -2.6
v 2 15.5 -2.6
v 2 15.5 -2.5
v 2 15.6 -2.5
v 2.1 15.6 -2.5
v 2.1 15.5 -2.5
v 2.1 15.5 -2.6
v 2.1 15.6 -2.6
v 2 15.6 -2.6
v 2 15.6 -2.5
v 2.1 15.6 -2.5
v 2.1 15.6 -2.6
v 2 15.5 -2.5
v 2 15.5 -2.6
v 2.1 15.5 -2.6
v 2.1 15.5 -2.5
v 2 15.6 -2.5
v 2 15.5 -2.5
v 2.1 15.5 -2.5
v 2.1 15.6 -2.5
v 2.1 15.6 -2.6
v 2.1 15.5 -2.6
v 2 15.5 -2.6
v 2 15.6 -2.6
v 1.8 15.5 -2.6
v 1.8 15.4 -2.6
v 1.8 15.4 -2.5
v 1.8 15.5 -2.5
v 1.9 15.5 -2.5
v 1.9 15.4 -2.5
v 1.9 15.4 -2.6
v 1.9 15.5 -2.6
v 1.8 15.5 -2.6
v 1.8 15.5 -2.5
v 1.9 15.5 -2.5
v 1.9 15.5 -2.6
v 1.8 15.5 -2.5
v 1.8 15.4 -2.5
v 1.9 15.4 -2.5
v 1.9 15.5 -2.5
v 1.9 15.5 -2.6
v 1.9 15.4 -2.6
v 1.8 15.4 -2.6
v 1.8 15.5 -2.6
v 2.1 15.5 -2.6
v 2.1 15.4 -2.6
v 2.1 15.4 -2.5
v 2.1 15.5 -2.5
v 2.2 15.5 -2.5
v 2.2 15.4 -2.5
v 2.2 15.4 -2.6
v 2.2 15.5 -2.6
v 2.1 15.5 -2.6
v 2.1 15.5 -2.5
v 2.2 15.5 -2.5
v 2.2 15.5 -2.6
v 2.1 15.5 -2.5
v 2.1 15.4 -2.5
v 2.2 15.4 -2.5
v 2.2 15.5 -2.5
v 2.2 15.5 -2.6
v 2.2 15.4 -2.6
v 2.1 15.4 -2.6
v 2.1 15.5 -2.6
v 1.7 15.4 -2.6
v 1.7 15.3 -2.6
v 1.7 15.3 -2.5
v 1.7 15.4 -2.5
v 1.7 15.4 -2.6
v 1.7 15.4 -2.5
v 1.8 15.4 -2.5
v 1.8 15.4 -2.6
v 1.7 15.4 -2.5
v 1.7 15.3 -2.5
v 1.8 15.3 -2.5
v 1.8 15.4 -2.5
v 1.8 15.4 -2.6
v 1.8 15.3 -2.6
v 1.7 15.3 -2.6
v 1.7 15.4 -2.6
v 1.9 15.4 -2.5
v 1.9 15.3 -2.5
v 1.9 15.3 -2.6
v 1.9 15.4 -2.6
v 1.8 15.3 -2.5
v 1.8 15.3 -2.6
v 1.9 15.3 -2.6
v 1.9 15.3 -2.5
v 1.8 15.4 -2.5
v 1.8 15.3 -2.5
v 1.9 15.3 -2.5
v 1.9 15.4 -2.5
v 1.9 15.4 -2.6
v 1.9 15.3 -2.6
v 1.8 15.3 -2.6
v 1.8 15.4 -2.6
v 2 15.4 -2.6
v 2 15.3 -2.6
v 2 15.3 -2.5
v 2 15.4 -2.5
v 2 15.4 -2.6
v 2 15.4 -2.5
v 2.1 15.4 -2.5
v 2.1 15.4 -2.6
v 2 15.3 -2.5
v 2 15.3 -2.6
v 2.1 15.3 -2.6
v 2.1 15.3 -2.5
v 2 15.4 -2.5
v 2 15.3 -2.5
v 2.1 15.3 -2.5
v 2.1 15.4 -2.5
v 2.1 15.4 -2.6
v 2.1 15.3 -2.6
v 2 15.3 -2.6
v 2 15.4 -2.6
v 2.2 15.4 -2.5
v 2.2 15.3 -2.5
v 2.2 15.3 -2.6
v 2.2 15.4 -2.6
v 2.1 15.4 -2.5
v 2.1 15.3 -2.5
v 2.2 15.3 -2.5
v 2.2 15.4 -2.5
v 2.2 15.4 -2.6
v 2.2 15.3 -2.6
v 2.1 15.3 -2.6
v 2.1 15.4 -2.6
v 1.7 15.3 -2.6
v 1.7 15.2 -2.6
v 1.7 15.2 -2.5
v 1.7 15.3 -2.5
v 1.8 15.3 -2.5
v 1.8 15.2 -2.5
v 1.8 15.2 -2.6
v 1.8 15.3 -2.6
v 1.7 15.2 -2.5
v 1.7 15.2 -2.6
v 1.8 15.2 -2.6
v 1.8 15.2 -2.5
v 1.7 15.3 -2.5
v 1.7 15.2 -2.5
v 1.8 15.2 -2.5
v 1.8 15.3 -2.5
v 1.8 15.3 -2.6
v 1.8 15.2 -2.6
v 1.7 15.2 -2.6
v 1.7 15.3 -2.6
v 2.1 15.3 -2.6
v 2.1 15.2 -2.6
v 2.1 15.2 -2.5
v 2.1 15.3 -2.5
v 2.2 15.3 -2.5
v 2.2 15.2 -2.5
v 2.2 15.2 -2.6
v 2.2 15.3 -2.6
v 2.1 15.3 -2.5
v 2.1 15.2 -2.5
v 2.2 15.2 -2.5
v 2.2 15.3 -2.5
v 2.2 15.3 -2.6
v 2.2 15.2 -2.6
v 2.1 15.2 -2.6
v 2.1 15.3 -2.6
v 2.1 15.2 -2.6
v 2.1 15.1 -2.6
v 2.1 15.1 -2.5
v 2.1 15.2 -2.5
v 2.2 15.2 -2.5
v 2.2 15.1 -2.5
v 2.2 15.1 -2.6
v 2.2 15.2 -2.6
v 2.1 15.2 -2.5
v 2.1 15.1 -2.5
v 2.2 15.1 -2.5
v 2.2 15.2 -2.5
v 2.2 15.2 -2.6
v 2.2 15.1 -2.6
v 2.1 15.1 -2.6
v 2.1 15.2 -2.6
v 2.1 15.1 -2.6
v 2.1 15 -2.6
v 2.1 15 -2.5
v 2.1 15.1 -2.5
v 2.1 15.1 -2.5
v 2.1 15 -2.5
v 2.2 15 -2.5
v 2.2 15.1 -2.5
v 2.2 15.1 -2.6
v 2.2 15 -2.6
v 2.1 15 -2.6
v 2.1 15.1 -2.6
v 2.3 15.1 -2.5
v 2.3 15 -2.5
v 2.3 15 -2.6
v 2.3 15.1 -2.6
v 2.2 15.1 -2.6
v 2.2 15.1 -2.5
v 2.3 15.1 -2.5
v 2.3 15.1 -2.6
v 2.2 15.1 -2.5
v 2.2 15 -2.5
v 2.3 15 -2.5
v 2.3 15.1 -2.5
v 2.3 15.1 -2.6
v 2.3 15 -2.6
v 2.2 15 -2.6
v 2.2 15.1 -2.6
v 0.6 15 -2.6
v 0.6 14.9 -2.6
v 0.6 14.9 -2.5
v 0.6 15 -2.5
v 0.7 15 -2.5
v 0.7 14.9 -2.5
v 0.7 14.9 -2.6
v 0.7 15 -2.6
v 0.6 15 -2.6
v 0.6 15 -2.5
v 0.7 15 -2.5
v 0.7 15 -2.6
v 0.6 15 -2.5
v 0.6 14.9 -2.5
v 0.7 14.9 -2.5
v 0.7 15 -2.5
v 0.7 15 -2.6
v 0.7 14.9 -2.6
v 0.6 14.9 -2.6
v 0.6 15 -2.6
v 2.1 15 -2.6
v 2.1 14.9 -2.6
v 2.1 14.9 -2.5
v 2.1 15 -2.5
v 2.1 14.9 -2.5
v 2.1 14.9 -2.6
v 2.2 14.9 -2.6
v 2.2 14.9 -2.5
v 2.1 15 -2.5
v 2.1 14.9 -2.5
v 2.2 14.9 -2.5
v 2.2 15 -2.5
v 2.2 15 -2.6
v 2.2 14.9 -2.6
v 2.1 14.9 -2.6
v 2.1 15 -2.6
v 2.3 15 -2.5
v 2.3 14.9 -2.5
v 2.3 14.9 -2.6
v 2.3 15 -2.6
v 2.2 15 -2.5
v 2.2 14.9 -2.5
v 2.3 14.9 -2.5
v 2.3 15 -2.5
v 2.3 15 -2.6
v 2.3 14.9 -2.6
v 2.2 14.9 -2.6
v 2.2 15 -2.6
v 0.3 14.9 -2.6
v 0.3 14.8 -2.6
v 0.3 14.8 -2.5
v 0.3 14.9 -2.5
v 0.4 14.9 -2.5
v 0.4 14.8 -2.5
v 0.4 14.8 -2.6
v 0.4 14.9 -2.6
v 0.3 14.9 -2.6
v 0.3 14.9 -2.5
v 0.4 14.9 -2.5
v 0.4 14.9 -2.6
v 0.3 14.8 -2.5
v 0.3 14.8 -2.6
v 0.4 14.8 -2.6
v 0.4 14.8 -2.5
v 0.3 14.9 -2.5
v 0.3 14.8 -2.5
v 0.4 14.8 -2.5
v 0.4 14.9 -2.5
v 0.4 14.9 -2.6
v 0.4 14.8 -2.6
v 0.3 14.8 -2.6
v 0.3 14.9 -2.6
v 0.5 14.9 -2.6
v 0.5 14.8 -2.6
v 0.5 14.8 -2.5
v 0.5 14.9 -2.5
v 0.5 14.9 -2.6
v 0.5 14.9 -2.5
v 0.6 14.9 -2.5
v 0.6 14.9 -2.6
v 0.5 14.8 -2.5
v 0.5 14.8 -2.6
v 0.6 14.8 -2.6
v 0.6 14.8 -2.5
v 0.5 14.9 -2.5
v 0.5 14.8 -2.5
v 0.6 14.8 -2.5
v 0.6 14.9 -2.5
v 0.6 14.9 -2.6
v 0.6 14.8 -2.6
v 0.5 14.8 -2.6
v 0.5 14.9 -2.6
v 0.6 14.9 -2.5
v 0.6 14.8 -2.5
v 0.7 14.8 -2.5
v 0.7 14.9 -2.5
v 0.7 14.9 -2.6
v 0.7 14.8 -2.6
v 0.6 14.8 -2.6
v 0.6 14.9 -2.6
v 0.8 14.9 -2.5
v 0.8 14.8 -2.5
v 0.8 14.8 -2.6
v 0.8 14.9 -2.6
v 0.7 14.9 -2.6
v 0.7 14.9 -2.5
v 0.8 14.9 -2.5
v 0.8 14.9 -2.6
v 0.7 14.9 -2.5
v 0.7 14.8 -2.5
v 0.8 14.8 -2.5
v 0.8 14.9 -2.5
v 0.8 14.9 -2.6
v 0.8 14.8 -2.6
v 0.7 14.8 -2.6
v 0.7 14.9 -2.6
v 1.4 14.9 -2.6
v 1.4 14.8 -2.6
v 1.4 14.8 -2.5
v 1.4 14.9 -2.5
v 1.4 14.9 -2.6
v 1.4 14.9 -2.5
v 1.5 14.9 -2.5
v 1.5 14.9 -2.6
v 1.4 14.8 -2.5
v 1.4 14.8 -2.6
v 1.5 14.8 -2.6
v 1.5 14.8 -2.5
v 1.4 14.9 -2.5
v 1.4 14.8 -2.5
v 1.5 14.8 -2.5
v 1.5 14.9 -2.5
v 1.5 14.9 -2.6
v 1.5 14.8 -2.6
v 1.4 14.8 -2.6
v 1.4 14.9 -2.6
v 1.5 14.9 -2.6
v 1.5 14.9 -2.5
v 1.6 14.9 -2.5
v 1.6 14.9 -2.6
v 1.5 14.8 -2.5
v 1.5 14.8 -2.6
v 1.6 14.8 -2.6
v 1.6 14.8 -2.5
v 1.5 14.9 -2.5
v 1.5 14.8 -2.5
v 1.6 14.8 -2.5
v 1.6 14.9 -2.5
v 1.6 14.9 -2.6
v 1.6 14.8 -2.6
v 1.5 14.8 -2.6
v 1.5 14.9 -2.6
v 1.7 14.9 -2.5
v 1.7 14.8 -2.5
v 1.7 14.8 -2.6
v 1.7 14.9 -2.6
v 1.6 14.9 -2.6
v 1.6 14.9 -2.5
v 1.7 14.9 -2.5
v 1.7 14.9 -2.6
v 1.6 14.8 -2.5
v 1.6 14.8 -2.6
v 1.7 14.8 -2.6
v 1.7 14.8 -2.5
v 1.6 14.9 -2.5
v 1.6 14.8 -2.5
v 1.7 14.8 -2.5
v 1.7 14.9 -2.5
v 1.7 14.9 -2.6
v 1.7 14.8 -2.6
v 1.6 14.8 -2.6
v 1.6 14.9 -2.6
v 2.2 14.9 -2.6
v 2.2 14.8 -2.6
v 2.2 14.8 -2.5
v 2.2 14.9 -2.5
v 2.2 14.9 -2.5
v 2.2 14.8 -2.5
v 2.3 14.8 -2.5
v 2.3 14.9 -2.5
v 2.3 14.9 -2.6
v 2.3 14.8 -2.6
v 2.2 14.8 -2.6
v 2.2 14.9 -2.6
v 2.4 14.9 -2.5
v 2.4 14.8 -2.5
v 2.4 14.8 -2.6
v 2.4 14.9 -2.6
v 2.3 14.9 -2.6
v 2.3 14.9 -2.5
v 2.4 14.9 -2.5
v 2.4 14.9 -2.6
v 2.3 14.9 -2.5
v 2.3 14.8 -2.5
v 2.4 14.8 -2.5
v 2.4 14.9 -2.5
v 2.4 14.9 -2.6
v 2.4 14.8 -2.6
v 2.3 14.8 -2.6
v 2.3 14.9 -2.6
v 0.4 14.8 -2.6
v 0.4 14.7 -2.6
v 0.4 14.7 -2.5
v 0.4 14.8 -2.5
v 0.5 14.8 -2.5
v 0.5 14.7 -2.5
v 0.5 14.7 -2.6
v 0.5 14.8 -2.6
v 0.4 14.8 -2.6
v 0.4 14.8 -2.5
v 0.5 14.8 -2.5
v 0.5 14.8 -2.6
v 0.4 14.8 -2.5
v 0.4 14.7 -2.5
v 0.5 14.7 -2.5
v 0.5 14.8 -2.5
v 0.5 14.8 -2.6
v 0.5 14.7 -2.6
v 0.4 14.7 -2.6
v 0.4 14.8 -2.6
v 0.6 14.8 -2.6
v 0.6 14.7 -2.6
v 0.6 14.7 -2.5
v 0.6 14.8 -2.5
v 0.6 14.7 -2.5
v 0.6 14.7 -2.6
v 0.7 14.7 -2.6
v 0.7 14.7 -2.5
v 0.6 14.8 -2.5
v 0.6 14.7 -2.5
v 0.7 14.7 -2.5
v 0.7 14.8 -2.5
v 0.7 14.8 -2.6
v 0.7 14.7 -2.6
v 0.6 14.7 -2.6
v 0.6 14.8 -2.6
v 0.8 14.8 -2.5
v 0.8 14.7 -2.5
v 0.8 14.7 -2.6
v 0.8 14.8 -2.6
v 0.7 14.8 -2.5
v 0.7 14.7 -2.5
v 0.8 14.7 -2.5
v 0.8 14.8 -2.5
v 0.8 14.8 -2.6
v 0.8 14.7 -2.6
v 0.7 14.7 -2.6
v 0.7 14.8 -2.6
v 1 14.8 -2.6
v 1 14.7 -2.6
v 1 14.7 -2.5
v 1 14.8 -2.5
v 1 14.8 -2.6
v 1 14.8 -2.5
v 1.1 14.8 -2.5
v 1.1 14.8 -2.6
v 1 14.8 -2.5
v 1 14.7 -2.5
v 1.1 14.7 -2.5
v 1.1 14.8 -2.5
v 1.1 14.8 -2.6
v 1.1 14.7 -2.6
v 1 14.7 -2.6
v 1 14.8 -2.6
v 1.1 14.8 -2.6
v 1.1 14.8 -2.5
v 1.2 14.8 -2.5
v 1.2 14.8 -2.6
v 1.1 14.7 -2.5
v 1.1 14.7 -2.6
v 1.2 14.7 -2.6
v 1.2 14.7 -2.5
v 1.1 14.8 -2.5
v 1.1 14.7 -2.5
v 1.2 14.7 -2.5
v 1.2 14.8 -2.5
v 1.2 14.8 -2.6
v 1.2 14.7 -2.6
v 1.1 14.7 -2.6
v 1.1 14.8 -2.6
v 1.3 14.8 -2.5
v 1.3 14.7 -2.5
v 1.3 14.7 -2.6
v 1.3 14.8 -2.6
v 1.2 14.8 -2.6
v 1.2 14.8 -2.5
v 1.3 14.8 -2.5
v 1.3 14.8 -2.6
v 1.2 14.7 -2.5
v 1.2 14.7 -2.6
v 1.3 14.7 -2.6
v 1.3 14.7 -2.5
v 1.2 14.8 -2.5
v 1.2 14.7 -2.5
v 1.3 14.7 -2.5
v 1.3 14.8 -2.5
v 1.3 14.8 -2.6
v 1.3 14.7 -2.6
v 1.2 14.7 -2.6
v 1.2 14.8 -2.6
v 1.9 14.8 -2.6
v 1.9 14.7 -2.6
v 1.9 14.7 -2.5
v 1.9 14.8 -2.5
v 1.9 14.8 -2.6
v 1.9 14.8 -2.5
v 2 14.8 -2.5
v 2 14.8 -2.6
v 1.9 14.7 -2.5
v 1.9 14.7 -2.6
v 2 14.7 -2.6
v 2 14.7 -2.5
v 1.9 14.8 -2.5
v 1.9 14.7 -2.5
v 2 14.7 -2.5
v 2 14.8 -2.5
v 2 14.8 -2.6
v 2 14.7 -2.6
v 1.9 14.7 -2.6
v 1.9 14.8 -2.6
v 2.1 14.8 -2.5
v 2.1 14.7 -2.5
v 2.1 14.7 -2.6
v 2.1 14.8 -2.6
v 2 14.8 -2.6
v 2 14.8 -2.5
v 2.1 14.8 -2.5
v 2.1 14.8 -2.6
v 2 14.8 -2.5
v 2 14.7 -2.5
v 2.1 14.7 -2.5
v 2.1 14.8 -2.5
v 2.1 14.8 -2.6
v 2.1 14.7 -2.6
v 2 14.7 -2.6
v 2 14.8 -2.6
v 2.2 14.8 -2.6
v 2.2 14.7 -2.6
v 2.2 14.7 -2.5
v 2.2 14.8 -2.5
v 2.2 14.7 -2.5
v 2.2 14.7 -2.6
v 2.3 14.7 -2.6
v 2.3 14.7 -2.5
v 2.2 14.8 -2.5
v 2.2 14.7 -2.5
v 2.3 14.7 -2.5
v 2.3 14.8 -2.5
v 2.3 14.8 -2.6
v 2.3 14.7 -2.6
v 2.2 14.7 -2.6
v 2.2 14.8 -2.6
v 2.3 14.8 -2.5
v 2.3 14.7 -2.5
v 2.4 14.7 -2.5
v 2.4 14.8 -2.5
v 2.4 14.8 -2.6
v 2.4 14.7 -2.6
v 2.3 14.7 -2.6
v 2.3 14.8 -2.6
v 2.5 14.8 -2.5
v 2.5 14.7 -2.5
v 2.5 14.7 -2.6
v 2.5 14.8 -2.6
v 2.4 14.8 -2.6
v 2.4 14.8 -2.5
v 2.5 14.8 -2.5
v 2.5 14.8 -2.6
v 2.4 14.8 -2.5
v 2.4 14.7 -2.5
v 2.5 14.7 -2.5
v 2.5 14.8 -2.5
v 2.5 14.8 -2.6
v 2.5 14.7 -2.6
v 2.4 14.7 -2.6
v 2.4 14.8 -2.6
v 0.4 14.7 -2.6
v 0.4 14.6 -2.6
v 0.4 14.6 -2.5
v 0.4 14.7 -2.5
v 0.5 14.7 -2.5
v 0.5 14.6 -2.5
v 0.5 14.6 -2.6
v 0.5 14.7 -2.6
v 0.4 14.7 -2.5
v 0.4 14.6 -2.5
v 0.5 14.6 -2.5
v 0.5 14.7 -2.5
v 0.5 14.7 -2.6
v 0.5 14.6 -2.6
v 0.4 14.6 -2.6
v 0.4 14.7 -2.6
v 0.7 14.7 -2.6
v 0.7 14.6 -2.6
v 0.7 14.6 -2.5
v 0.7 14.7 -2.5
v 0.7 14.6 -2.5
v 0.7 14.6 -2.6
v 0.8 14.6 -2.6
v 0.8 14.6 -2.5
v 0.7 14.7 -2.5
v 0.7 14.6 -2.5
v 0.8 14.6 -2.5
v 0.8 14.7 -2.5
v 0.8 14.7 -2.6
v 0.8 14.6 -2.6
v 0.7 14.6 -2.6
v 0.7 14.7 -2.6
v 0.8 14.7 -2.6
v 0.8 14.7 -2.5
v 0.9 14.7 -2.5
v 0.9 14.7 -2.6
v 0.8 14.6 -2.5
v 0.8 14.6 -2.6
v 0.9 14.6 -2.6
v 0.9 14.6 -2.5
v 0.8 14.7 -2.5
v 0.8 14.6 -2.5
v 0.9 14.6 -2.5
v 0.9 14.7 -2.5
v 0.9 14.7 -2.6
v 0.9 14.6 -2.6
v 0.8 14.6 -2.6
v 0.8 14.7 -2.6
v 0.9 14.7 -2.6
v 0.9 14.7 -2.5
v 1 14.7 -2.5
v 1 14.7 -2.6
v 0.9 14.7 -2.5
v 0.9 14.6 -2.5
v 1 14.6 -2.5
v 1 14.7 -2.5
v 1 14.7 -2.6
v 1 14.6 -2.6
v 0.9 14.6 -2.6
v 0.9 14.7 -2.6
v 1.1 14.7 -2.5
v 1.1 14.6 -2.5
v 1.1 14.6 -2.6
v 1.1 14.7 -2.6
v 1 14.6 -2.5
v 1 14.6 -2.6
v 1.1 14.6 -2.6
v 1.1 14.6 -2.5
v 1 14.7 -2.5
v 1 14.6 -2.5
v 1.1 14.6 -2.5
v 1.1 14.7 -2.5
v 1.1 14.7 -2.6
v 1.1 14.6 -2.6
v 1 14.6 -2.6
v 1 14.7 -2.6
v 1.6 14.7 -2.6
v 1.6 14.6 -2.6
v 1.6 14.6 -2.5
v 1.6 14.7 -2.5
v 1.7 14.7 -2.5
v 1.7 14.6 -2.5
v 1.7 14.6 -2.6
v 1.7 14.7 -2.6
v 1.6 14.7 -2.6
v 1.6 14.7 -2.5
v 1.7 14.7 -2.5
v 1.7 14.7 -2.6
v 1.6 14.6 -2.5
v 1.6 14.6 -2.6
v 1.7 14.6 -2.6
v 1.7 14.6 -2.5
v 1.6 14.7 -2.5
v 1.6 14.6 -2.5
v 1.7 14.6 -2.5
v 1.7 14.7 -2.5
v 1.7 14.7 -2.6
v 1.7 14.6 -2.6
v 1.6 14.6 -2.6
v 1.6 14.7 -2.6
v 2 14.7 -2.6
v 2 14.6 -2.6
v 2 14.6 -2.5
v 2 14.7 -2.5
v 2 14.6 -2.5
v 2 14.6 -2.6
v 2.1 14.6 -2.6
v 2.1 14.6 -2.5
v 2 14.7 -2.5
v 2 14.6 -2.5
v 2.1 14.6 -2.5
v 2.1 14.7 -2.5
v 2.1 14.7 -2.6
v 2.1 14.6 -2.6
v 2 14.6 -2.6
v 2 14.7 -2.6
v 2.2 14.7 -2.5
v 2.2 14.6 -2.5
v 2.2 14.6 -2.6
v 2.2 14.7 -2.6
v 2.1 14.7 -2.6
v 2.1 14.7 -2.5
v 2.2 14.7 -2.5
v 2.2 14.7 -2.6
v 2.1 14.7 -2.5
v 2.1 14.6 -2.5
v 2.2 14.6 -2.5
v 2.2 14.7 -2.5
v 2.2 14.7 -2.6
v 2.2 14.6 -2.6
v 2.1 14.6 -2.6
v 2.1 14.7 -2.6
v 2.3 14.7 -2.6
v 2.3 14.6 -2.6
v 2.3 14.6 -2.5
v 2.3 14.7 -2.5
v 2.3 14.6 -2.5
v 2.3 14.6 -2.6
v 2.4 14.6 -2.6
v 2.4 14.6 -2.5
v 2.3 14.7 -2.5
v 2.3 14.6 -2.5
v 2.4 14.6 -2.5
v 2.4 14.7 -2.5
v 2.4 14.7 -2.6
v 2.4 14.6 -2.6
v 2.3 14.6 -2.6
v 2.3 14.7 -2.6
v 2.4 14.7 -2.5
v 2.4 14.6 -2.5
v 2.5 14.6 -2.5
v 2.5 14.7 -2.5
v 2.5 14.7 -2.6
v 2.5 14.6 -2.6
v 2.4 14.6 -2.6
v 2.4 14.7 -2.6
v 2.6 14.7 -2.5
v 2.6 14.6 -2.5
v 2.6 14.6 -2.6
v 2.6 14.7 -2.6
v 2.5 14.7 -2.6
v 2.5 14.7 -2.5
v 2.6 14.7 -2.5
v 2.6 14.7 -2.6
v 2.5 14.7 -2.5
v 2.5 14.6 -2.5
v 2.6 14.6 -2.5
v 2.6 14.7 -2.5
v 2.6 14.7 -2.6
v 2.6 14.6 -2.6
v 2.5 14.6 -2.6
v 2.5 14.7 -2.6
v 0.4 14.6 -2.6
v 0.4 14.5 -2.6
v 0.4 14.5 -2.5
v 0.4 14.6 -2.5
v 0.5 14.6 -2.5
v 0.5 14.5 -2.5
v 0.5 14.5 -2.6
v 0.5 14.6 -2.6
v 0.4 14.6 -2.5
v 0.4 14.5 -2.5
v 0.5 14.5 -2.5
v 0.5 14.6 -2.5
v 0.5 14.6 -2.6
v 0.5 14.5 -2.6
v 0.4 14.5 -2.6
v 0.4 14.6 -2.6
v 0.9 14.6 -2.6
v 0.9 14.5 -2.6
v 0.9 14.5 -2.5
v 0.9 14.6 -2.5
v 1 14.6 -2.5
v 1 14.5 -2.5
v 1 14.5 -2.6
v 1 14.6 -2.6
v 0.9 14.6 -2.5
v 0.9 14.5 -2.5
v 1 14.5 -2.5
v 1 14.6 -2.5
v 1 14.6 -2.6
v 1 14.5 -2.6
v 0.9 14.5 -2.6
v 0.9 14.6 -2.6
v 2.1 14.6 -2.6
v 2.1 14.5 -2.6
v 2.1 14.5 -2.5
v 2.1 14.6 -2.5
v 2.1 14.5 -2.5
v 2.1 14.5 -2.6
v 2.2 14.5 -2.6
v 2.2 14.5 -2.5
v 2.1 14.6 -2.5
v 2.1 14.5 -2.5
v 2.2 14.5 -2.5
v 2.2 14.6 -2.5
v 2.2 14.6 -2.6
v 2.2 14.5 -2.6
v 2.1 14.5 -2.6
v 2.1 14.6 -2.6
v 2.3 14.6 -2.5
v 2.3 14.5 -2.5
v 2.3 14.5 -2.6
v 2.3 14.6 -2.6
v 2.2 14.6 -2.6
v 2.2 14.6 -2.5
v 2.3 14.6 -2.5
v 2.3 14.6 -2.6
v 2.2 14.6 -2.5
v 2.2 14.5 -2.5
v 2.3 14.5 -2.5
v 2.3 14.6 -2.5
v 2.3 14.6 -2.6
v 2.3 14.5 -2.6
v 2.2 14.5 -2.6
v 2.2 14.6 -2.6
v 2.4 14.6 -2.6
v 2.4 14.5 -2.6
v 2.4 14.5 -2.5
v 2.4 14.6 -2.5
v 2.4 14.5 -2.5
v 2.4 14.5 -2.6
v 2.5 14.5 -2.6
v 2.5 14.5 -2.5
v 2.4 14.6 -2.5
v 2.4 14.5 -2.5
v 2.5 14.5 -2.5
v 2.5 14.6 -2.5
v 2.5 14.6 -2.6
v 2.5 14.5 -2.6
v 2.4 14.5 -2.6
v 2.4 14.6 -2.6
v 2.6 14.6 -2.5
v 2.6 14.5 -2.5
v 2.6 14.5 -2.6
v 2.6 14.6 -2.6
v 2.5 14.6 -2.5
v 2.5 14.5 -2.5
v 2.6 14.5 -2.5
v 2.6 14.6 -2.5
v 2.6 14.6 -2.6
v 2.6 14.5 -2.6
v 2.5 14.5 -2.6
v 2.5 14.6 -2.6
v 0.4 14.5 -2.6
v 0.4 14.4 -2.6
v 0.4 14.4 -2.5
v 0.4 14.5 -2.5
v 0.4 14.5 -2.5
v 0.4 14.4 -2.5
v 0.5 14.4 -2.5
v 0.5 14.5 -2.5
v 0.5 14.5 -2.6
v 0.5 14.4 -2.6
v 0.4 14.4 -2.6
v 0.4 14.5 -2.6
v 0.6 14.5 -2.5
v 0.6 14.4 -2.5
v 0.6 14.4 -2.6
v 0.6 14.5 -2.6
v 0.5 14.5 -2.6
v 0.5 14.5 -2.5
v 0.6 14.5 -2.5
v 0.6 14.5 -2.6
v 0.5 14.5 -2.5
v 0.5 14.4 -2.5
v 0.6 14.4 -2.5
v 0.6 14.5 -2.5
v 0.6 14.5 -2.6
v 0.6 14.4 -2.6
v 0.5 14.4 -2.6
v 0.5 14.5 -2.6
v 0.9 14.5 -2.6
v 0.9 14.4 -2.6
v 0.9 14.4 -2.5
v 0.9 14.5 -2.5
v 0.9 14.4 -2.5
v 0.9 14.4 -2.6
v 1 14.4 -2.6
v 1 14.4 -2.5
v 0.9 14.5 -2.5
v 0.9 14.4 -2.5
v 1 14.4 -2.5
v 1 14.5 -2.5
v 1 14.5 -2.6
v 1 14.4 -2.6
v 0.9 14.4 -2.6
v 0.9 14.5 -2.6
v 1.1 14.5 -2.5
v 1.1 14.4 -2.5
v 1.1 14.4 -2.6
v 1.1 14.5 -2.6
v 1 14.5 -2.6
v 1 14.5 -2.5
v 1.1 14.5 -2.5
v 1.1 14.5 -2.6
v 1 14.4 -2.5
v 1 14.4 -2.6
v 1.1 14.4 -2.6
v 1.1 14.4 -2.5
v 1 14.5 -2.5
v 1 14.4 -2.5
v 1.1 14.4 -2.5
v 1.1 14.5 -2.5
v 1.1 14.5 -2.6
v 1.1 14.4 -2.6
v 1 14.4 -2.6
v 1 14.5 -2.6
v 1.7 14.5 -2.6
v 1.7 14.4 -2.6
v 1.7 14.4 -2.5
v 1.7 14.5 -2.5
v 1.8 14.5 -2.5
v 1.8 14.4 -2.5
v 1.8 14.4 -2.6
v 1.8 14.5 -2.6
v 1.7 14.5 -2.6
v 1.7 14.5 -2.5
v 1.8 14.5 -2.5
v 1.8 14.5 -2.6
v 1.7 14.5 -2.5
v 1.7 14.4 -2.5
v 1.8 14.4 -2.5
v 1.8 14.5 -2.5
v 1.8 14.5 -2.6
v 1.8 14.4 -2.6
v 1.7 14.4 -2.6
v 1.7 14.5 -2.6
v 2.2 14.5 -2.6
v 2.2 14.4 -2.6
v 2.2 14.4 -2.5
v 2.2 14.5 -2.5
v 2.2 14.5 -2.5
v 2.2 14.4 -2.5
v 2.3 14.4 -2.5
v 2.3 14.5 -2.5
v 2.3 14.5 -2.6
v 2.3 14.4 -2.6
v 2.2 14.4 -2.6
v 2.2 14.5 -2.6
v 2.4 14.5 -2.5
v 2.4 14.4 -2.5
v 2.4 14.4 -2.6
v 2.4 14.5 -2.6
v 2.3 14.5 -2.6
v 2.3 14.5 -2.5
v 2.4 14.5 -2.5
v 2.4 14.5 -2.6
v 2.3 14.5 -2.5
v 2.3 14.4 -2.5
v 2.4 14.4 -2.5
v 2.4 14.5 -2.5
v 2.4 14.5 -2.6
v 2.4 14.4 -2.6
v 2.3 14.4 -2.6
v 2.3 14.5 -2.6
v 2.5 14.5 -2.6
v 2.5 14.4 -2.6
v 2.5 14.4 -2.5
v 2.5 14.5 -2.5
v 2.5 14.4 -2.5
v 2.5 14.4 -2.6
v 2.6 14.4 -2.6
v 2.6 14.4 -2.5
v 2.5 14.5 -2.5
v 2.5 14.4 -2.5
v 2.6 14.4 -2.5
v 2.6 14.5 -2.5
v 2.6 14.5 -2.6
v 2.6 14.4 -2.6
v 2.5 14.4 -2.6
v 2.5 14.5 -2.6
v 2.7 14.5 -2.5
v 2.7 14.4 -2.5
v 2.7 14.4 -2.6
v 2.7 14.5 -2.6
v 2.6 14.5 -2.6
v 2.6 14.5 -2.5
v 2.7 14.5 -2.5
v 2.7 14.5 -2.6
v 2.6 14.5 -2.5
v 2.6 14.4 -2.5
v 2.7 14.4 -2.5
v 2.7 14.5 -2.5
v 2.7 14.5 -2.6
v 2.7 14.4 -2.6
v 2.6 14.4 -2.6
v 2.6 14.5 -2.6
v 0.4 14.4 -2.6
v 0.4 14.3 -2.6
v 0.4 14.3 -2.5
v 0.4 14.4 -2.5
v 0.4 14.3 -2.5
v 0.4 14.3 -2.6
v 0.5 14.3 -2.6
v 0.5 14.3 -2.5
v 0.4 14.4 -2.5
v 0.4 14.3 -2.5
v 0.5 14.3 -2.5
v 0.5 14.4 -2.5
v 0.5 14.4 -2.6
v 0.5 14.3 -2.6
v 0.4 14.3 -2.6
v 0.4 14.4 -2.6
v 0.6 14.4 -2.5
v 0.6 14.3 -2.5
v 0.6 14.3 -2.6
v 0.6 14.4 -2.6
v 0.5 14.4 -2.5
v 0.5 14.3 -2.5
v 0.6 14.3 -2.5
v 0.6 14.4 -2.5
v 0.6 14.4 -2.6
v 0.6 14.3 -2.6
v 0.5 14.3 -2.6
v 0.5 14.4 -2.6
v 0.8 14.4 -2.6
v 0.8 14.3 -2.6
v 0.8 14.3 -2.5
v 0.8 14.4 -2.5
v 0.9 14.4 -2.5
v 0.9 14.3 -2.5
v 0.9 14.3 -2.6
v 0.9 14.4 -2.6
v 0.8 14.4 -2.6
v 0.8 14.4 -2.5
v 0.9 14.4 -2.5
v 0.9 14.4 -2.6
v 0.8 14.4 -2.5
v 0.8 14.3 -2.5
v 0.9 14.3 -2.5
v 0.9 14.4 -2.5
v 0.9 14.4 -2.6
v 0.9 14.3 -2.6
v 0.8 14.3 -2.6
v 0.8 14.4 -2.6
v 1.7 14.4 -2.6
v 1.7 14.3 -2.6
v 1.7 14.3 -2.5
v 1.7 14.4 -2.5
v 1.8 14.4 -2.5
v 1.8 14.3 -2.5
v 1.8 14.3 -2.6
v 1.8 14.4 -2.6
v 1.7 14.4 -2.5
v 1.7 14.3 -2.5
v 1.8 14.3 -2.5
v 1.8 14.4 -2.5
v 1.8 14.4 -2.6
v 1.8 14.3 -2.6
v 1.7 14.3 -2.6
v 1.7 14.4 -2.6
v 2.2 14.4 -2.6
v 2.2 14.3 -2.6
v 2.2 14.3 -2.5
v 2.2 14.4 -2.5
v 2.2 14.3 -2.5
v 2.2 14.3 -2.6
v 2.3 14.3 -2.6
v 2.3 14.3 -2.5
v 2.2 14.4 -2.5
v 2.2 14.3 -2.5
v 2.3 14.3 -2.5
v 2.3 14.4 -2.5
v 2.3 14.4 -2.6
v 2.3 14.3 -2.6
v 2.2 14.3 -2.6
v 2.2 14.4 -2.6
v 2.4 14.4 -2.5
v 2.4 14.3 -2.5
v 2.4 14.3 -2.6
v 2.4 14.4 -2.6
v 2.3 14.4 -2.5
v 2.3 14.3 -2.5
v 2.4 14.3 -2.5
v 2.4 14.4 -2.5
v 2.4 14.4 -2.6
v 2.4 14.3 -2.6
v 2.3 14.3 -2.6
v 2.3 14.4 -2.6
v 2.6 14.4 -2.6
v 2.6 14.3 -2.6
v 2.6 14.3 -2.5
v 2.6 14.4 -2.5
v 2.7 14.4 -2.5
v 2.7 14.3 -2.5
v 2.7 14.3 -2.6
v 2.7 14.4 -2.6
v 2.6 14.4 -2.5
v 2.6 14.3 -2.5
v 2.7 14.3 -2.5
v 2.7 14.4 -2.5
v 2.7 14.4 -2.6
v 2.7 14.3 -2.6
v 2.6 14.3 -2.6
v 2.6 14.4 -2.6
v 0.5 14.3 -2.6
v 0.5 14.2 -2.6
v 0.5 14.2 -2.5
v 0.5 14.3 -2.5
v 0.6 14.3 -2.5
v 0.6 14.2 -2.5
v 0.6 14.2 -2.6
v 0.6 14.3 -2.6
v 0.5 14.2 -2.5
v 0.5 14.2 -2.6
v 0.6 14.2 -2.6
v 0.6 14.2 -2.5
v 0.5 14.3 -2.5
v 0.5 14.2 -2.5
v 0.6 14.2 -2.5
v 0.6 14.3 -2.5
v 0.6 14.3 -2.6
v 0.6 14.2 -2.6
v 0.5 14.2 -2.6
v 0.5 14.3 -2.6
v 0.8 14.3 -2.6
v 0.8 14.2 -2.6
v 0.8 14.2 -2.5
v 0.8 14.3 -2.5
v 0.9 14.3 -2.5
v 0.9 14.2 -2.5
v 0.9 14.2 -2.6
v 0.9 14.3 -2.6
v 0.8 14.3 -2.5
v 0.8 14.2 -2.5
v 0.9 14.2 -2.5
v 0.9 14.3 -2.5
v 0.9 14.3 -2.6
v 0.9 14.2 -2.6
v 0.8 14.2 -2.6
v 0.8 14.3 -2.6
v 1.2 14.3 -2.6
v 1.2 14.2 -2.6
v 1.2 14.2 -2.5
v 1.2 14.3 -2.5
v 1.3 14.3 -2.5
v 1.3 14.2 -2.5
v 1.3 14.2 -2.6
v 1.3 14.3 -2.6
v 1.2 14.3 -2.6
v 1.2 14.3 -2.5
v 1.3 14.3 -2.5
v 1.3 14.3 -2.6
v 1.2 14.2 -2.5
v 1.2 14.2 -2.6
v 1.3 14.2 -2.6
v 1.3 14.2 -2.5
v 1.2 14.3 -2.5
v 1.2 14.2 -2.5
v 1.3 14.2 -2.5
v 1.3 14.3 -2.5
v 1.3 14.3 -2.6
v 1.3 14.2 -2.6
v 1.2 14.2 -2.6
v 1.2 14.3 -2.6
v 1.7 14.3 -2.6
v 1.7 14.2 -2.6
v 1.7 14.2 -2.5
v 1.7 14.3 -2.5
v 1.8 14.3 -2.5
v 1.8 14.2 -2.5
v 1.8 14.2 -2.6
v 1.8 14.3 -2.6
v 1.7 14.3 -2.5
v 1.7 14.2 -2.5
v 1.8 14.2 -2.5
v 1.8 14.3 -2.5
v 1.8 14.3 -2.6
v 1.8 14.2 -2.6
v 1.7 14.2 -2.6
v 1.7 14.3 -2.6
v 2.3 14.3 -2.6
v 2.3 14.2 -2.6
v 2.3 14.2 -2.5
v 2.3 14.3 -2.5
v 2.3 14.3 -2.5
v 2.3 14.2 -2.5
v 2.4 14.2 -2.5
v 2.4 14.3 -2.5
v 2.4 14.3 -2.6
v 2.4 14.2 -2.6
v 2.3 14.2 -2.6
v 2.3 14.3 -2.6
v 2.5 14.3 -2.5
v 2.5 14.2 -2.5
v 2.5 14.2 -2.6
v 2.5 14.3 -2.6
v 2.4 14.3 -2.6
v 2.4 14.3 -2.5
v 2.5 14.3 -2.5
v 2.5 14.3 -2.6
v 2.4 14.3 -2.5
v 2.4 14.2 -2.5
v 2.5 14.2 -2.5
v 2.5 14.3 -2.5
v 2.5 14.3 -2.6
v 2.5 14.2 -2.6
v 2.4 14.2 -2.6
v 2.4 14.3 -2.6
v 2.6 14.3 -2.6
v 2.6 14.2 -2.6
v 2.6 14.2 -2.5
v 2.6 14.3 -2.5
v 2.6 14.2 -2.5
v 2.6 14.2 -2.6
v 2.7 14.2 -2.6
v 2.7 14.2 -2.5
v 2.6 14.3 -2.5
v 2.6 14.2 -2.5
v 2.7 14.2 -2.5
v 2.7 14.3 -2.5
v 2.7 14.3 -2.6
v 2.7 14.2 -2.6
v 2.6 14.2 -2.6
v 2.6 14.3 -2.6
v 2.8 14.3 -2.5
v 2.8 14.2 -2.5
v 2.8 14.2 -2.6
v 2.8 14.3 -2.6
v 2.7 14.3 -2.6
v 2.7 14.3 -2.5
v 2.8 14.3 -2.5
v 2.8 14.3 -2.6
v 2.7 14.3 -2.5
v 2.7 14.2 -2.5
v 2.8 14.2 -2.5
v 2.8 14.3 -2.5
v 2.8 14.3 -2.6
v 2.8 14.2 -2.6
v 2.7 14.2 -2.6
v 2.7 14.3 -2.6
v 0.8 14.2 -2.6
v 0.8 14.1 -2.6
v 0.8 14.1 -2.5
v 0.8 14.2 -2.5
v 0.9 14.2 -2.5
v 0.9 14.1 -2.5
v 0.9 14.1 -2.6
v 0.9 14.2 -2.6
v 0.8 14.2 -2.5
v 0.8 14.1 -2.5
v 0.9 14.1 -2.5
v 0.9 14.2 -2.5
v 0.9 14.2 -2.6
v 0.9 14.1 -2.6
v 0.8 14.1 -2.6
v 0.8 14.2 -2.6
v 1.7 14.2 -2.6
v 1.7 14.1 -2.6
v 1.7 14.1 -2.5
v 1.7 14.2 -2.5
v 1.8 14.2 -2.5
v 1.8 14.1 -2.5
v 1.8 14.1 -2.6
v 1.8 14.2 -2.6
v 1.7 14.2 -2.5
v 1.7 14.1 -2.5
v 1.8 14.1 -2.5
v 1.8 14.2 -2.5
v 1.8 14.2 -2.6
v 1.8 14.1 -2.6
v 1.7 14.1 -2.6
v 1.7 14.2 -2.6
v 2.3 14.2 -2.6
v 2.3 14.1 -2.6
v 2.3 14.1 -2.5
v 2.3 14.2 -2.5
v 2.3 14.1 -2.5
v 2.3 14.1 -2.6
v 2.4 14.1 -2.6
v 2.4 14.1 -2.5
v 2.3 14.2 -2.5
v 2.3 14.1 -2.5
v 2.4 14.1 -2.5
v 2.4 14.2 -2.5
v 2.4 14.2 -2.6
v 2.4 14.1 -2.6
v 2.3 14.1 -2.6
v 2.3 14.2 -2.6
v 2.5 14.2 -2.5
v 2.5 14.1 -2.5
v 2.5 14.1 -2.6
v 2.5 14.2 -2.6
v 2.4 14.2 -2.5
v 2.4 14.1 -2.5
v 2.5 14.1 -2.5
v 2.5 14.2 -2.5
v 2.5 14.2 -2.6
v 2.5 14.1 -2.6
v 2.4 14.1 -2.6
v 2.4 14.2 -2.6
v 2.7 14.2 -2.6
v 2.7 14.1 -2.6
v 2.7 14.1 -2.5
v 2.7 14.2 -2.5
v 2.8 14.2 -2.5
v 2.8 14.1 -2.5
v 2.8 14.1 -2.6
v 2.8 14.2 -2.6
v 2.7 14.2 -2.5
v 2.7 14.1 -2.5
v 2.8 14.1 -2.5
v 2.8 14.2 -2.5
v 2.8 14.2 -2.6
v 2.8 14.1 -2.6
v 2.7 14.1 -2.6
v 2.7 14.2 -2.6
v 0.7 14.1 -2.6
v 0.7 14 -2.6
v 0.7 14 -2.5
v 0.7 14.1 -2.5
v 0.7 14.1 -2.6
v 0.7 14.1 -2.5
v 0.8 14.1 -2.5
v 0.8 14.1 -2.6
v 0.7 14 -2.5
v 0.7 14 -2.6
v 0.8 14 -2.6
v 0.8 14 -2.5
v 0.7 14.1 -2.5
v 0.7 14 -2.5
v 0.8 14 -2.5
v 0.8 14.1 -2.5
v 0.8 14.1 -2.6
v 0.8 14 -2.6
v 0.7 14 -2.6
v 0.7 14.1 -2.6
v 0.9 14.1 -2.5
v 0.9 14 -2.5
v 0.9 14 -2.6
v 0.9 14.1 -2.6
v 0.8 14.1 -2.5
v 0.8 14 -2.5
v 0.9 14 -2.5
v 0.9 14.1 -2.5
v 0.9 14.1 -2.6
v 0.9 14 -2.6
v 0.8 14 -2.6
v 0.8 14.1 -2.6
v 1.7 14.1 -2.6
v 1.7 14 -2.6
v 1.7 14 -2.5
v 1.7 14.1 -2.5
v 1.7 14 -2.5
v 1.7 14 -2.6
v 1.8 14 -2.6
v 1.8 14 -2.5
v 1.7 14.1 -2.5
v 1.7 14 -2.5
v 1.8 14 -2.5
v 1.8 14.1 -2.5
v 1.8 14.1 -2.6
v 1.8 14 -2.6
v 1.7 14 -2.6
v 1.7 14.1 -2.6
v 1.9 14.1 -2.5
v 1.9 14 -2.5
v 1.9 14 -2.6
v 1.9 14.1 -2.6
v 1.8 14.1 -2.6
v 1.8 14.1 -2.5
v 1.9 14.1 -2.5
v 1.9 14.1 -2.6
v 1.8 14.1 -2.5
v 1.8 14 -2.5
v 1.9 14 -2.5
v 1.9 14.1 -2.5
v 1.9 14.1 -2.6
v 1.9 14 -2.6
v 1.8 14 -2.6
v 1.8 14.1 -2.6
v 2.4 14.1 -2.6
v 2.4 14 -2.6
v 2.4 14 -2.5
v 2.4 14.1 -2.5
v 2.5 14.1 -2.5
v 2.5 14 -2.5
v 2.5 14 -2.6
v 2.5 14.1 -2.6
v 2.4 14.1 -2.5
v 2.4 14 -2.5
v 2.5 14 -2.5
v 2.5 14.1 -2.5
v 2.5 14.1 -2.6
v 2.5 14 -2.6
v 2.4 14 -2.6
v 2.4 14.1 -2.6
v 2.7 14.1 -2.6
v 2.7 14 -2.6
v 2.7 14 -2.5
v 2.7 14.1 -2.5
v 2.8 14.1 -2.5
v 2.8 14 -2.5
v 2.8 14 -2.6
v 2.8 14.1 -2.6
v 2.7 14 -2.5
v 2.7 14 -2.6
v 2.8 14 -2.6
v 2.8 14 -2.5
v 2.7 14.1 -2.5
v 2.7 14 -2.5
v 2.8 14 -2.5
v 2.8 14.1 -2.5
v 2.8 14.1 -2.6
v 2.8 14 -2.6
v 2.7 14 -2.6
v 2.7 14.1 -2.6
v 0.8 14 -2.6
v 0.8 13.9 -2.6
v 0.8 13.9 -2.5
v 0.8 14 -2.5
v 0.8 13.9 -2.5
v 0.8 13.9 -2.6
v 0.9 13.9 -2.6
v 0.9 13.9 -2.5
v 0.8 14 -2.5
v 0.8 13.9 -2.5
v 0.9 13.9 -2.5
v 0.9 14 -2.5
v 0.9 14 -2.6
v 0.9 13.9 -2.6
v 0.8 13.9 -2.6
v 0.8 14 -2.6
v 1 14 -2.5
v 1 13.9 -2.5
v 1 13.9 -2.6
v 1 14 -2.6
v 0.9 14 -2.6
v 0.9 14 -2.5
v 1 14 -2.5
v 1 14 -2.6
v 0.9 13.9 -2.5
v 0.9 13.9 -2.6
v 1 13.9 -2.6
v 1 13.9 -2.5
v 0.9 14 -2.5
v 0.9 13.9 -2.5
v 1 13.9 -2.5
v 1 14 -2.5
v 1 14 -2.6
v 1 13.9 -2.6
v 0.9 13.9 -2.6
v 0.9 14 -2.6
v 1.4 14 -2.6
v 1.4 13.9 -2.6
v 1.4 13.9 -2.5
v 1.4 14 -2.5
v 1.4 14 -2.6
v 1.4 14 -2.5
v 1.5 14 -2.5
v 1.5 14 -2.6
v 1.4 13.9 -2.5
v 1.4 13.9 -2.6
v 1.5 13.9 -2.6
v 1.5 13.9 -2.5
v 1.4 14 -2.5
v 1.4 13.9 -2.5
v 1.5 13.9 -2.5
v 1.5 14 -2.5
v 1.5 14 -2.6
v 1.5 13.9 -2.6
v 1.4 13.9 -2.6
v 1.4 14 -2.6
v 1.5 14 -2.6
v 1.5 14 -2.5
v 1.6 14 -2.5
v 1.6 14 -2.6
v 1.5 13.9 -2.5
v 1.5 13.9 -2.6
v 1.6 13.9 -2.6
v 1.6 13.9 -2.5
v 1.5 14 -2.5
v 1.5 13.9 -2.5
v 1.6 13.9 -2.5
v 1.6 14 -2.5
v 1.6 14 -2.6
v 1.6 13.9 -2.6
v 1.5 13.9 -2.6
v 1.5 14 -2.6
v 1.7 14 -2.5
v 1.7 13.9 -2.5
v 1.7 13.9 -2.6
v 1.7 14 -2.6
v 1.6 14 -2.6
v 1.6 14 -2.5
v 1.7 14 -2.5
v 1.7 14 -2.6
v 1.6 14 -2.5
v 1.6 13.9 -2.5
v 1.7 13.9 -2.5
v 1.7 14 -2.5
v 1.7 14 -2.6
v 1.7 13.9 -2.6
v 1.6 13.9 -2.6
v 1.6 14 -2.6
v 1.8 14 -2.6
v 1.8 13.9 -2.6
v 1.8 13.9 -2.5
v 1.8 14 -2.5
v 1.9 14 -2.5
v 1.9 13.9 -2.5
v 1.9 13.9 -2.6
v 1.9 14 -2.6
v 1.8 13.9 -2.5
v 1.8 13.9 -2.6
v 1.9 13.9 -2.6
v 1.9 13.9 -2.5
v 1.8 14 -2.5
v 1.8 13.9 -2.5
v 1.9 13.9 -2.5
v 1.9 14 -2.5
v 1.9 14 -2.6
v 1.9 13.9 -2.6
v 1.8 13.9 -2.6
v 1.8 14 -2.6
v 2.4 14 -2.6
v 2.4 13.9 -2.6
v 2.4 13.9 -2.5
v 2.4 14 -2.5
v 2.5 14 -2.5
v 2.5 13.9 -2.5
v 2.5 13.9 -2.6
v 2.5 14 -2.6
v 2.4 14 -2.5
v 2.4 13.9 -2.5
v 2.5 13.9 -2.5
v 2.5 14 -2.5
v 2.5 14 -2.6
v 2.5 13.9 -2.6
v 2.4 13.9 -2.6
v 2.4 14 -2.6
v 1 13.9 -2.6
v 1 13.8 -2.6
v 1 13.8 -2.5
v 1 13.9 -2.5
v 1.1 13.9 -2.5
v 1.1 13.8 -2.5
v 1.1 13.8 -2.6
v 1.1 13.9 -2.6
v 1 13.9 -2.6
v 1 13.9 -2.5
v 1.1 13.9 -2.5
v 1.1 13.9 -2.6
v 1 13.8 -2.5
v 1 13.8 -2.6
v 1.1 13.8 -2.6
v 1.1 13.8 -2.5
v 1 13.9 -2.5
v 1 13.8 -2.5
v 1.1 13.8 -2.5
v 1.1 13.9 -2.5
v 1.1 13.9 -2.6
v 1.1 13.8 -2.6
v 1 13.8 -2.6
v 1 13.9 -2.6
v 1.6 13.9 -2.6
v 1.6 13.8 -2.6
v 1.6 13.8 -2.5
v 1.6 13.9 -2.5
v 1.7 13.9 -2.5
v 1.7 13.8 -2.5
v 1.7 13.8 -2.6
v 1.7 13.9 -2.6
v 1.6 13.9 -2.5
v 1.6 13.8 -2.5
v 1.7 13.8 -2.5
v 1.7 13.9 -2.5
v 1.7 13.9 -2.6
v 1.7 13.8 -2.6
v 1.6 13.8 -2.6
v 1.6 13.9 -2.6
v 2 13.9 -2.6
v 2 13.8 -2.6
v 2 13.8 -2.5
v 2 13.9 -2.5
v 2.1 13.9 -2.5
v 2.1 13.8 -2.5
v 2.1 13.8 -2.6
v 2.1 13.9 -2.6
v 2 13.9 -2.6
v 2 13.9 -2.5
v 2.1 13.9 -2.5
v 2.1 13.9 -2.6
v 2 13.8 -2.5
v 2 13.8 -2.6
v 2.1 13.8 -2.6
v 2.1 13.8 -2.5
v 2 13.9 -2.5
v 2 13.8 -2.5
v 2.1 13.8 -2.5
v 2.1 13.9 -2.5
v 2.1 13.9 -2.6
v 2.1 13.8 -2.6
v 2 13.8 -2.6
v 2 13.9 -2.6
v 2.3 13.9 -2.6
v 2.3 13.8 -2.6
v 2.3 13.8 -2.5
v 2.3 13.9 -2.5
v 2.3 13.9 -2.6
v 2.3 13.9 -2.5
v 2.4 13.9 -2.5
v 2.4 13.9 -2.6
v 2.3 13.9 -2.5
v 2.3 13.8 -2.5
v 2.4 13.8 -2.5
v 2.4 13.9 -2.5
v 2.4 13.9 -2.6
v 2.4 13.8 -2.6
v 2.3 13.8 -2.6
v 2.3 13.9 -2.6
v 2.5 13.9 -2.5
v 2.5 13.8 -2.5
v 2.5 13.8 -2.6
v 2.5 13.9 -2.6
v 2.4 13.9 -2.5
v 2.4 13.8 -2.5
v 2.5 13.8 -2.5
v 2.5 13.9 -2.5
v 2.5 13.9 -2.6
v 2.5 13.8 -2.6
v 2.4 13.8 -2.6
v 2.4 13.9 -2.6
v 2.7 13.9 -2.6
v 2.7 13.8 -2.6
v 2.7 13.8 -2.5
v 2.7 13.9 -2.5
v 2.8 13.9 -2.5
v 2.8 13.8 -2.5
v 2.8 13.8 -2.6
v 2.8 13.9 -2.6
v 2.7 13.9 -2.6
v 2.7 13.9 -2.5
v 2.8 13.9 -2.5
v 2.8 13.9 -2.6
v 2.7 13.8 -2.5
v 2.7 13.8 -2.6
v 2.8 13.8 -2.6
v 2.8 13.8 -2.5
v 2.7 13.9 -2.5
v 2.7 13.8 -2.5
v 2.8 13.8 -2.5
v 2.8 13.9 -2.5
v 2.8 13.9 -2.6
v 2.8 13.8 -2.6
v 2.7 13.8 -2.6
v 2.7 13.9 -2.6
v 1.5 13.8 -2.6
v 1.5 13.7 -2.6
v 1.5 13.7 -2.5
v 1.5 13.8 -2.5
v 1.5 13.8 -2.6
v 1.5 13.8 -2.5
v 1.6 13.8 -2.5
v 1.6 13.8 -2.6
v 1.5 13.8 -2.5
v 1.5 13.7 -2.5
v 1.6 13.7 -2.5
v 1.6 13.8 -2.5
v 1.6 13.8 -2.6
v 1.6 13.7 -2.6
v 1.5 13.7 -2.6
v 1.5 13.8 -2.6
v 1.7 13.8 -2.5
v 1.7 13.7 -2.5
v 1.7 13.7 -2.6
v 1.7 13.8 -2.6
v 1.6 13.7 -2.5
v 1.6 13.7 -2.6
v 1.7 13.7 -2.6
v 1.7 13.7 -2.5
v 1.6 13.8 -2.5
v 1.6 13.7 -2.5
v 1.7 13.7 -2.5
v 1.7 13.8 -2.5
v 1.7 13.8 -2.6
v 1.7 13.7 -2.6
v 1.6 13.7 -2.6
v 1.6 13.8 -2.6
v 2.1 13.8 -2.6
v 2.1 13.7 -2.6
v 2.1 13.7 -2.5
v 2.1 13.8 -2.5
v 2.2 13.8 -2.5
v 2.2 13.7 -2.5
v 2.2 13.7 -2.6
v 2.2 13.8 -2.6
v 2.1 13.8 -2.6
v 2.1 13.8 -2.5
v 2.2 13.8 -2.5
v 2.2 13.8 -2.6
v 2.1 13.7 -2.5
v 2.1 13.7 -2.6
v 2.2 13.7 -2.6
v 2.2 13.7 -2.5
v 2.1 13.8 -2.5
v 2.1 13.7 -2.5
v 2.2 13.7 -2.5
v 2.2 13.8 -2.5
v 2.2 13.8 -2.6
v 2.2 13.7 -2.6
v 2.1 13.7 -2.6
v 2.1 13.8 -2.6
v 2.3 13.8 -2.6
v 2.3 13.7 -2.6
v 2.3 13.7 -2.5
v 2.3 13.8 -2.5
v 2.3 13.8 -2.5
v 2.3 13.7 -2.5
v 2.4 13.7 -2.5
v 2.4 13.8 -2.5
v 2.4 13.8 -2.6
v 2.4 13.7 -2.6
v 2.3 13.7 -2.6
v 2.3 13.8 -2.6
v 2.5 13.8 -2.5
v 2.5 13.7 -2.5
v 2.5 13.7 -2.6
v 2.5 13.8 -2.6
v 2.4 13.8 -2.5
v 2.4 13.7 -2.5
v 2.5 13.7 -2.5
v 2.5 13.8 -2.5
v 2.5 13.8 -2.6
v 2.5 13.7 -2.6
v 2.4 13.7 -2.6
v 2.4 13.8 -2.6
v 1.4 13.7 -2.6
v 1.4 13.6 -2.6
v 1.4 13.6 -2.5
v 1.4 13.7 -2.5
v 1.4 13.7 -2.6
v 1.4 13.7 -2.5
v 1.5 13.7 -2.5
v 1.5 13.7 -2.6
v 1.4 13.7 -2.5
v 1.4 13.6 -2.5
v 1.5 13.6 -2.5
v 1.5 13.7 -2.5
v 1.5 13.7 -2.6
v 1.5 13.6 -2.6
v 1.4 13.6 -2.6
v 1.4 13.7 -2.6
v 1.6 13.7 -2.5
v 1.6 13.6 -2.5
v 1.6 13.6 -2.6
v 1.6 13.7 -2.6
v 1.5 13.6 -2.5
v 1.5 13.6 -2.6
v 1.6 13.6 -2.6
v 1.6 13.6 -2.5
v 1.5 13.7 -2.5
v 1.5 13.6 -2.5
v 1.6 13.6 -2.5
v 1.6 13.7 -2.5
v 1.6 13.7 -2.6
v 1.6 13.6 -2.6
v 1.5 13.6 -2.6
v 1.5 13.7 -2.6
v 2.2 13.7 -2.6
v 2.2 13.6 -2.6
v 2.2 13.6 -2.5
v 2.2 13.7 -2.5
v 2.2 13.7 -2.6
v 2.2 13.7 -2.5
v 2.3 13.7 -2.5
v 2.3 13.7 -2.6
v 2.2 13.7 -2.5
v 2.2 13.6 -2.5
v 2.3 13.6 -2.5
v 2.3 13.7 -2.5
v 2.3 13.7 -2.6
v 2.3 13.6 -2.6
v 2.2 13.6 -2.6
v 2.2 13.7 -2.6
v 2.3 13.7 -2.5
v 2.3 13.6 -2.5
v 2.4 13.6 -2.5
v 2.4 13.7 -2.5
v 2.4 13.7 -2.6
v 2.4 13.6 -2.6
v 2.3 13.6 -2.6
v 2.3 13.7 -2.6
v 2.5 13.7 -2.5
v 2.5 13.6 -2.5
v 2.5 13.6 -2.6
v 2.5 13.7 -2.6
v 2.4 13.6 -2.5
v 2.4 13.6 -2.6
v 2.5 13.6 -2.6
v 2.5 13.6 -2.5
v 2.4 13.7 -2.5
v 2.4 13.6 -2.5
v 2.5 13.6 -2.5
v 2.5 13.7 -2.5
v 2.5 13.7 -2.6
v 2.5 13.6 -2.6
v 2.4 13.6 -2.6
v 2.4 13.7 -2.6
v 1.4 13.6 -2.6
v 1.4 13.5 -2.6
v 1.4 13.5 -2.5
v 1.4 13.6 -2.5
v 1.5 13.6 -2.5
v 1.5 13.5 -2.5
v 1.5 13.5 -2.6
v 1.5 13.6 -2.6
v 1.4 13.5 -2.5
v 1.4 13.5 -2.6
v 1.5 13.5 -2.6
v 1.5 13.5 -2.5
v 1.4 13.6 -2.5
v 1.4 13.5 -2.5
v 1.5 13.5 -2.5
v 1.5 13.6 -2.5
v 1.5 13.6 -2.6
v 1.5 13.5 -2.6
v 1.4 13.5 -2.6
v 1.4 13.6 -2.6
v 2.2 13.6 -2.6
v 2.2 13.5 -2.6
v 2.2 13.5 -2.5
v 2.2 13.6 -2.5
v 2.2 13.6 -2.5
v 2.2 13.5 -2.5
v 2.3 13.5 -2.5
v 2.3 13.6 -2.5
v 2.3 13.6 -2.6
v 2.3 13.5 -2.6
v 2.2 13.5 -2.6
v 2.2 13.6 -2.6
v 2.4 13.6 -2.5
v 2.4 13.5 -2.5
v 2.4 13.5 -2.6
v 2.4 13.6 -2.6
v 2.3 13.6 -2.5
v 2.3 13.5 -2.5
v 2.4 13.5 -2.5
v 2.4 13.6 -2.5
v 2.4 13.6 -2.6
v 2.4 13.5 -2.6
v 2.3 13.5 -2.6
v 2.3 13.6 -2.6
v 2.6 13.6 -2.6
v 2.6 13.5 -2.6
v 2.6 13.5 -2.5
v 2.6 13.6 -2.5
v 2.7 13.6 -2.5
v 2.7 13.5 -2.5
v 2.7 13.5 -2.6
v 2.7 13.6 -2.6
v 2.6 13.6 -2.6
v 2.6 13.6 -2.5
v 2.7 13.6 -2.5
v 2.7 13.6 -2.6
v 2.6 13.5 -2.5
v 2.6 13.5 -2.6
v 2.7 13.5 -2.6
v 2.7 13.5 -2.5
v 2.6 13.6 -2.5
v 2.6 13.5 -2.5
v 2.7 13.5 -2.5
v 2.7 13.6 -2.5
v 2.7 13.6 -2.6
v 2.7 13.5 -2.6
v 2.6 13.5 -2.6
v 2.6 13.6 -2.6
v 2.2 13.5 -2.6
v 2.2 13.4 -2.6
v 2.2 13.4 -2.5
v 2.2 13.5 -2.5
v 2.2 13.5 -2.5
v 2.2 13.4 -2.5
v 2.3 13.4 -2.5
v 2.3 13.5 -2.5
v 2.3 13.5 -2.6
v 2.3 13.4 -2.6
v 2.2 13.4 -2.6
v 2.2 13.5 -2.6
v 2.4 13.5 -2.5
v 2.4 13.4 -2.5
v 2.4 13.4 -2.6
v 2.4 13.5 -2.6
v 2.3 13.4 -2.5
v 2.3 13.4 -2.6
v 2.4 13.4 -2.6
v 2.4 13.4 -2.5
v 2.3 13.5 -2.5
v 2.3 13.4 -2.5
v 2.4 13.4 -2.5
v 2.4 13.5 -2.5
v 2.4 13.5 -2.6
v 2.4 13.4 -2.6
v 2.3 13.4 -2.6
v 2.3 13.5 -2.6
v 2.2 13.4 -2.6
v 2.2 13.3 -2.6
v 2.2 13.3 -2.5
v 2.2 13.4 -2.5
v 2.3 13.4 -2.5
v 2.3 13.3 -2.5
v 2.3 13.3 -2.6
v 2.3 13.4 -2.6
v 2.2 13.3 -2.5
v 2.2 13.3 -2.6
v 2.3 13.3 -2.6
v 2.3 13.3 -2.5
v 2.2 13.4 -2.5
v 2.2 13.3 -2.5
v 2.3 13.3 -2.5
v 2.3 13.4 -2.5
v 2.3 13.4 -2.6
v 2.3 13.3 -2.6
v 2.2 13.3 -2.6
v 2.2 13.4 -2.6
v 2.3 13.1 -2.6
v 2.3 13 -2.6
v 2.3 13 -2.5
v 2.3 13.1 -2.5
v 2.4 13.1 -2.5
v 2.4 13 -2.5
v 2.4 13 -2.6
v 2.4 13.1 -2.6
v 2.3 13.1 -2.6
v 2.3 13.1 -2.5
v 2.4 13.1 -2.5
v 2.4 13.1 -2.6
v 2.3 13 -2.5
v 2.3 13 -2.6
v 2.4 13 -2.6
v 2.4 13 -2.5
v 2.3 13.1 -2.5
v 2.3 13 -2.5
v 2.4 13 -2.5
v 2.4 13.1 -2.5
v 2.4 13.1 -2.6
v 2.4 13 -2.6
v 2.3 13 -2.6
v 2.3 13.1 -2.6
v 13.7 12.7 -2.6
v 13.7 12.6 -2.6
v 13.7 12.6 -2.5
v 13.7 12.7 -2.5
v 13.7 12.7 -2.6
v 13.7 12.7 -2.5
v 13.8 12.7 -2.5
v 13.8 12.7 -2.6
v 13.7 12.7 -2.5
v 13.7 12.6 -2.5
v 13.8 12.6 -2.5
v 13.8 12.7 -2.5
v 13.8 12.7 -2.6
v 13.8 12.6 -2.6
v 13.7 12.6 -2.6
v 13.7 12.7 -2.6
v 13.9 12.7 -2.5
v 13.9 12.6 -2.5
v 13.9 12.6 -2.6
v 13.9 12.7 -2.6
v 13.8 12.7 -2.6
v 13.8 12.7 -2.5
v 13.9 12.7 -2.5
v 13.9 12.7 -2.6
v 13.8 12.7 -2.5
v 13.8 12.6 -2.5
v 13.9 12.6 -2.5
v 13.9 12.7 -2.5
v 13.9 12.7 -2.6
v 13.9 12.6 -2.6
v 13.8 12.6 -2.6
v 13.8 12.7 -2.6
v 13.3 12.6 -2.6
v 13.3 12.5 -2.6
v 13.3 12.5 -2.5
v 13.3 12.6 -2.5
v 13.4 12.6 -2.5
v 13.4 12.5 -2.5
v 13.4 12.5 -2.6
v 13.4 12.6 -2.6
v 13.3 12.6 -2.6
v 13.3 12.6 -2.5
v 13.4 12.6 -2.5
v 13.4 12.6 -2.6
v 13.3 12.6 -2.5
v 13.3 12.5 -2.5
v 13.4 12.5 -2.5
v 13.4 12.6 -2.5
v 13.4 12.6 -2.6
v 13.4 12.5 -2.6
v 13.3 12.5 -2.6
v 13.3 12.6 -2.6
v 13.6 12.6 -2.6
v 13.6 12.5 -2.6
v 13.6 12.5 -2.5
v 13.6 12.6 -2.5
v 13.6 12.6 -2.6
v 13.6 12.6 -2.5
v 13.7 12.6 -2.5
v 13.7 12.6 -2.6
v 13.6 12.6 -2.5
v 13.6 12.5 -2.5
v 13.7 12.5 -2.5
v 13.7 12.6 -2.5
v 13.7 12.6 -2.6
v 13.7 12.5 -2.6
v 13.6 12.5 -2.6
v 13.6 12.6 -2.6
v 13.7 12.6 -2.5
v 13.7 12.5 -2.5
v 13.8 12.5 -2.5
v 13.8 12.6 -2.5
v 13.8 12.6 -2.6
v 13.8 12.5 -2.6
v 13.7 12.5 -2.6
v 13.7 12.6 -2.6
v 13.9 12.6 -2.5
v 13.9 12.5 -2.5
v 13.9 12.5 -2.6
v 13.9 12.6 -2.6
v 13.8 12.6 -2.5
v 13.8 12.5 -2.5
v 13.9 12.5 -2.5
v 13.9 12.6 -2.5
v 13.9 12.6 -2.6
v 13.9 12.5 -2.6
v 13.8 12.5 -2.6
v 13.8 12.6 -2.6
v 13.2 12.5 -2.6
v 13.2 12.4 -2.6
v 13.2 12.4 -2.5
v 13.2 12.5 -2.5
v 13.2 12.5 -2.6
v 13.2 12.5 -2.5
v 13.3 12.5 -2.5
v 13.3 12.5 -2.6
v 13.2 12.5 -2.5
v 13.2 12.4 -2.5
v 13.3 12.4 -2.5
v 13.3 12.5 -2.5
v 13.3 12.5 -2.6
v 13.3 12.4 -2.6
v 13.2 12.4 -2.6
v 13.2 12.5 -2.6
v 13.3 12.5 -2.5
v 13.3 12.4 -2.5
v 13.4 12.4 -2.5
v 13.4 12.5 -2.5
v 13.4 12.5 -2.6
v 13.4 12.4 -2.6
v 13.3 12.4 -2.6
v 13.3 12.5 -2.6
v 13.4 12.5 -2.6
v 13.4 12.5 -2.5
v 13.5 12.5 -2.5
v 13.5 12.5 -2.6
v 13.4 12.5 -2.5
v 13.4 12.4 -2.5
v 13.5 12.4 -2.5
v 13.5 12.5 -2.5
v 13.5 12.5 -2.6
v 13.5 12.4 -2.6
v 13.4 12.4 -2.6
v 13.4 12.5 -2.6
v 13.5 12.5 -2.6
v 13.5 12.5 -2.5
v 13.6 12.5 -2.5
v 13.6 12.5 -2.6
v 13.5 12.5 -2.5
v 13.5 12.4 -2.5
v 13.6 12.4 -2.5
v 13.6 12.5 -2.5
v 13.6 12.5 -2.6
v 13.6 12.4 -2.6
v 13.5 12.4 -2.6
v 13.5 12.5 -2.6
v 13.6 12.5 -2.5
v 13.6 12.4 -2.5
v 13.7 12.4 -2.5
v 13.7 12.5 -2.5
v 13.7 12.5 -2.6
v 13.7 12.4 -2.6
v 13.6 12.4 -2.6
v 13.6 12.5 -2.6
v 13.7 12.5 -2.5
v 13.7 12.4 -2.5
v 13.8 12.4 -2.5
v 13.8 12.5 -2.5
v 13.8 12.5 -2.6
v 13.8 12.4 -2.6
v 13.7 12.4 -2.6
v 13.7 12.5 -2.6
v 13.9 12.5 -2.5
v 13.9 12.4 -2.5
v 13.9 12.4 -2.6
v 13.9 12.5 -2.6
v 13.8 12.4 -2.5
v 13.8 12.4 -2.6
v 13.9 12.4 -2.6
v 13.9 12.4 -2.5
v 13.8 12.5 -2.5
v 13.8 12.4 -2.5
v 13.9 12.4 -2.5
v 13.9 12.5 -2.5
v 13.9 12.5 -2.6
v 13.9 12.4 -2.6
v 13.8 12.4 -2.6
v 13.8 12.5 -2.6
v 13.1 12.4 -2.6
v 13.1 12.3 -2.6
v 13.1 12.3 -2.5
v 13.1 12.4 -2.5
v 13.1 12.4 -2.6
v 13.1 12.4 -2.5
v 13.2 12.4 -2.5
v 13.2 12.4 -2.6
v 13.1 12.4 -2.5
v 13.1 12.3 -2.5
v 13.2 12.3 -2.5
v 13.2 12.4 -2.5
v 13.2 12.4 -2.6
v 13.2 12.3 -2.6
v 13.1 12.3 -2.6
v 13.1 12.4 -2.6
v 13.2 12.3 -2.5
v 13.2 12.3 -2.6
v 13.3 12.3 -2.6
v 13.3 12.3 -2.5
v 13.2 12.4 -2.5
v 13.2 12.3 -2.5
v 13.3 12.3 -2.5
v 13.3 12.4 -2.5
v 13.3 12.4 -2.6
v 13.3 12.3 -2.6
v 13.2 12.3 -2.6
v 13.2 12.4 -2.6
v 13.3 12.3 -2.5
v 13.3 12.3 -2.6
v 13.4 12.3 -2.6
v 13.4 12.3 -2.5
v 13.3 12.4 -2.5
v 13.3 12.3 -2.5
v 13.4 12.3 -2.5
v 13.4 12.4 -2.5
v 13.4 12.4 -2.6
v 13.4 12.3 -2.6
v 13.3 12.3 -2.6
v 13.3 12.4 -2.6
v 13.4 12.3 -2.5
v 13.4 12.3 -2.6
v 13.5 12.3 -2.6
v 13.5 12.3 -2.5
v 13.4 12.4 -2.5
v 13.4 12.3 -2.5
v 13.5 12.3 -2.5
v 13.5 12.4 -2.5
v 13.5 12.4 -2.6
v 13.5 12.3 -2.6
v 13.4 12.3 -2.6
v 13.4 12.4 -2.6
v 13.5 12.4 -2.5
v 13.5 12.3 -2.5
v 13.6 12.3 -2.5
v 13.6 12.4 -2.5
v 13.6 12.4 -2.6
v 13.6 12.3 -2.6
v 13.5 12.3 -2.6
v 13.5 12.4 -2.6
v 13.6 12.4 -2.5
v 13.6 12.3 -2.5
v 13.7 12.3 -2.5
v 13.7 12.4 -2.5
v 13.7 12.4 -2.6
v 13.7 12.3 -2.6
v 13.6 12.3 -2.6
v 13.6 12.4 -2.6
v 13.8 12.4 -2.5
v 13.8 12.3 -2.5
v 13.8 12.3 -2.6
v 13.8 12.4 -2.6
v 13.7 12.4 -2.5
v 13.7 12.3 -2.5
v 13.8 12.3 -2.5
v 13.8 12.4 -2.5
v 13.8 12.4 -2.6
v 13.8 12.3 -2.6
v 13.7 12.3 -2.6
v 13.7 12.4 -2.6
v 12.8 12.3 -2.6
v 12.8 12.2 -2.6
v 12.8 12.2 -2.5
v 12.8 12.3 -2.5
v 12.8 12.3 -2.6
v 12.8 12.3 -2.5
v 12.9 12.3 -2.5
v 12.9 12.3 -2.6
v 12.8 12.2 -2.5
v 12.8 12.2 -2.6
v 12.9 12.2 -2.6
v 12.9 12.2 -2.5
v 12.8 12.3 -2.5
v 12.8 12.2 -2.5
v 12.9 12.2 -2.5
v 12.9 12.3 -2.5
v 12.9 12.3 -2.6
v 12.9 12.2 -2.6
v 12.8 12.2 -2.6
v 12.8 12.3 -2.6
v 12.9 12.3 -2.6
v 12.9 12.3 -2.5
v 13 12.3 -2.5
v 13 12.3 -2.6
v 12.9 12.2 -2.5
v 12.9 12.2 -2.6
v 13 12.2 -2.6
v 13 12.2 -2.5
v 12.9 12.3 -2.5
v 12.9 12.2 -2.5
v 13 12.2 -2.5
v 13 12.3 -2.5
v 13 12.3 -2.6
v 13 12.2 -2.6
v 12.9 12.2 -2.6
v 12.9 12.3 -2.6
v 13 12.3 -2.6
v 13 12.3 -2.5
v 13.1 12.3 -2.5
v 13.1 12.3 -2.6
v 13 12.2 -2.5
v 13 12.2 -2.6
v 13.1 12.2 -2.6
v 13.1 12.2 -2.5
v 13 12.3 -2.5
v 13 12.2 -2.5
v 13.1 12.2 -2.5
v 13.1 12.3 -2.5
v 13.1 12.3 -2.6
v 13.1 12.2 -2.6
v 13 12.2 -2.6
v 13 12.3 -2.6
v 13.2 12.3 -2.5
v 13.2 12.2 -2.5
v 13.2 12.2 -2.6
v 13.2 12.3 -2.6
v 13.1 12.2 -2.5
v 13.1 12.2 -2.6
v 13.2 12.2 -2.6
v 13.2 12.2 -2.5
v 13.1 12.3 -2.5
v 13.1 12.2 -2.5
v 13.2 12.2 -2.5
v 13.2 12.3 -2.5
v 13.2 12.3 -2.6
v 13.2 12.2 -2.6
v 13.1 12.2 -2.6
v 13.1 12.3 -2.6
v 13.5 12.3 -2.6
v 13.5 12.2 -2.6
v 13.5 12.2 -2.5
v 13.5 12.3 -2.5
v 13.5 12.2 -2.5
v 13.5 12.2 -2.6
v 13.6 12.2 -2.6
v 13.6 12.2 -2.5
v 13.5 12.3 -2.5
v 13.5 12.2 -2.5
v 13.6 12.2 -2.5
v 13.6 12.3 -2.5
v 13.6 12.3 -2.6
v 13.6 12.2 -2.6
v 13.5 12.2 -2.6
v 13.5 12.3 -2.6
v 13.6 12.2 -2.5
v 13.6 12.2 -2.6
v 13.7 12.2 -2.6
v 13.7 12.2 -2.5
v 13.6 12.3 -2.5
v 13.6 12.2 -2.5
v 13.7 12.2 -2.5
v 13.7 12.3 -2.5
v 13.7 12.3 -2.6
v 13.7 12.2 -2.6
v 13.6 12.2 -2.6
v 13.6 12.3 -2.6
v 13.8 12.3 -2.5
v 13.8 12.2 -2.5
v 13.8 12.2 -2.6
v 13.8 12.3 -2.6
v 13.7 12.2 -2.5
v 13.7 12.2 -2.6
v 13.8 12.2 -2.6
v 13.8 12.2 -2.5
v 13.7 12.3 -2.5
v 13.7 12.2 -2.5
v 13.8 12.2 -2.5
v 13.8 12.3 -2.5
v 13.8 12.3 -2.6
v 13.8 12.2 -2.6
v 13.7 12.2 -2.6
v 13.7 12.3 -2.6
v 12.5 12.2 -2.6
v 12.5 12.1 -2.6
v 12.5 12.1 -2.5
v 12.5 12.2 -2.5
v 12.6 12.2 -2.5
v 12.6 12.1 -2.5
v 12.6 12.1 -2.6
v 12.6 12.2 -2.6
v 12.5 12.2 -2.6
v 12.5 12.2 -2.5
v 12.6 12.2 -2.5
v 12.6 12.2 -2.6
v 12.5 12.1 -2.5
v 12.5 12.1 -2.6
v 12.6 12.1 -2.6
v 12.6 12.1 -2.5
v 12.5 12.2 -2.5
v 12.5 12.1 -2.5
v 12.6 12.1 -2.5
v 12.6 12.2 -2.5
v 12.6 12.2 -2.6
v 12.6 12.1 -2.6
v 12.5 12.1 -2.6
v 12.5 12.2 -2.6

# faces
f 1/1/1 2/1/1 3/1/1 4/1/1
f 5/1/2 6/1/2 7/1/2 8/1/2
f 9/1/3 10/1/3 11/1/3 12/1/3
f 13/1/4 14/1/4 15/1/4 16/1/4
f 17/1/5 18/1/5 19/1/5 20/1/5
f 21/1/6 22/1/6 23/1/6 24/1/6
f 25/1/1 26/1/1 27/1/1 28/1/1
f 29/1/2 30/1/2 31/1/2 32/1/2
f 33/1/3 34/1/3 35/1/3 36/1/3
f 37/1/4 38/1/4 39/1/4 40/1/4
f 41/1/5 42/1/5 43/1/5 44/1/5
f 45/1/6 46/1/6 47/1/6 48/1/6
f 49/1/1 50/1/1 51/1/1 52/1/1
f 53/1/2 54/1/2 55/1/2 56/1/2
f 57/1/3 58/1/3 59/1/3 60/1/3
f 61/1/5 62/1/5 63/1/5 64/1/5
f 65/1/6 66/1/6 67/1/6 68/1/6
f 69/1/1 70/1/1 71/1/1 72/1/1
f 73/1/2 74/1/2 75/1/2 76/1/2
f 77/1/3 78/1/3 79/1/3 80/1/3
f 81/1/5 82/1/5 83/1/5 84/1/5
f 85/1/6 86/1/6 87/1/6 88/1/6
f 89/1/1 90/1/1 91/1/1 92/1/1
f 93/1/3 94/1/3 95/1/3 96/1/3
f 97/1/5 98/1/5 99/1/5 100/1/5
f 101/1/6 102/1/6 103/1/6 104/1/6
f 105/1/2 106/1/2 107/1/2 108/1/2
f 109/1/4 110/1/4 111/1/4 112/1/4
f 113/1/5 114/1/5 115/1/5 116/1/5
f 117/1/6 118/1/6 119/1/6 120/1/6
f 121/1/1 122/1/1 123/1/1 124/1/1
f 125/1/3 126/1/3 127/1/3 128/1/3
f 129/1/4 130/1/4 131/1/4 132/1/4
f 133/1/5 134/1/5 135/1/5 136/1/5
f 137/1/6 138/1/6 139/1/6 140/1/6
f 141/1/2 142/1/2 143/1/2 144/1/2
f 145/1/5 146/1/5 147/1/5 148/1/5
f 149/1/6 150/1/6 151/1/6 152/1/6
f 153/1/1 154/1/1 155/1/1 156/1/1
f 157/1/2 158/1/2 159/1/2 160/1/2
f 161/1/4 162/1/4 163/1/4 164/1/4
f 165/1/5 166/1/5 167/1/5 168/1/5
f 169/1/6 170/1/6 171/1/6 172/1/6
f 173/1/1 174/1/1 175/1/1 176/1/1
f 177/1/2 178/1/2 179/1/2 180/1/2
f 181/1/5 182/1/5 183/1/5 184/1/5
f 185/1/6 186/1/6 187/1/6 188/1/6
f 189/1/1 190/1/1 191/1/1 192/1/1
f 193/1/2 194/1/2 195/1/2 196/1/2
f 197/1/5 198/1/5 199/1/5 200/1/5
f 201/1/6 202/1/6 203/1/6 204/1/6
f 205/1/1 206/1/1 207/1/1 208/1/1
f 209/1/5 210/1/5 211/1/5 212/1/5
f 213/1/6 214/1/6 215/1/6 216/1/6
f 217/1/2 218/1/2 219/1/2 220/1/2
f 221/1/3 222/1/3 223/1/3 224/1/3
f 225/1/5 226/1/5 227/1/5 228/1/5
f 229/1/6 230/1/6 231/1/6 232/1/6
f 233/1/1 234/1/1 235/1/1 236/1/1
f 237/1/2 238/1/2 239/1/2 240/1/2
f 241/1/3 242/1/3 243/1/3 244/1/3
f 245/1/5 246/1/5 247/1/5 248/1/5
f 249/1/6 250/1/6 251/1/6 252/1/6
f 253/1/1 254/1/1 255/1/1 256/1/1
f 257/1/4 258/1/4 259/1/4 260/1/4
f 261/1/5 262/1/5 263/1/5 264/1/5
f 265/1/6 266/1/6 267/1/6 268/1/6
f 269/1/2 270/1/2 271/1/2 272/1/2
f 273/1/5 274/1/5 275/1/5 276/1/5
f 277/1/6 278/1/6 279/1/6 280/1/6
f 281/1/1 282/1/1 283/1/1 284/1/1
f 285/1/2 286/1/2 287/1/2 288/1/2
f 289/1/3 290/1/3 291/1/3 292/1/3
f 293/1/4 294/1/4 295/1/4 296/1/4
f 297/1/5 298/1/5 299/1/5 300/1/5
f 301/1/6 302/1/6 303/1/6 304/1/6
f 305/1/1 306/1/1 307/1/1 308/1/1
f 309/1/3 310/1/3 311/1/3 312/1/3
f 313/1/4 314/1/4 315/1/4 316/1/4
f 317/1/5 318/1/5 319/1/5 320/1/5
f 321/1/6 322/1/6 323/1/6 324/1/6
f 325/1/5 326/1/5 327/1/5 328/1/5
f 329/1/6 330/1/6 331/1/6 332/1/6
f 333/1/2 334/1/2 335/1/2 336/1/2
f 337/1/3 338/1/3 339/1/3 340/1/3
f 341/1/5 342/1/5 343/1/5 344/1/5
f 345/1/6 346/1/6 347/1/6 348/1/6
f 349/1/1 350/1/1 351/1/1 352/1/1
f 353/1/3 354/1/3 355/1/3 356/1/3
f 357/1/4 358/1/4 359/1/4 360/1/4
f 361/1/5 362/1/5 363/1/5 364/1/5
f 365/1/6 366/1/6 367/1/6 368/1/6
f 369/1/3 370/1/3 371/1/3 372/1/3
f 373/1/4 374/1/4 375/1/4 376/1/4
f 377/1/5 378/1/5 379/1/5 380/1/5
f 381/1/6 382/1/6 383/1/6 384/1/6
f 385/1/2 386/1/2 387/1/2 388/1/2
f 389/1/3 390/1/3 391/1/3 392/1/3
f 393/1/4 394/1/4 395/1/4 396/1/4
f 397/1/5 398/1/5 399/1/5 400/1/5
f 401/1/6 402/1/6 403/1/6 404/1/6
f 405/1/1 406/1/1 407/1/1 408/1/1
f 409/1/5 410/1/5 411/1/5 412/1/5
f 413/1/6 414/1/6 415/1/6 416/1/6
f 417/1/2 418/1/2 419/1/2 420/1/2
f 421/1/3 422/1/3 423/1/3 424/1/3
f 425/1/5 426/1/5 427/1/5 428/1/5
f 429/1/6 430/1/6 431/1/6 432/1/6
f 433/1/1 434/1/1 435/1/1 436/1/1
f 437/1/2 438/1/2 439/1/2 440/1/2
f 441/1/3 442/1/3 443/1/3 444/1/3
f 445/1/5 446/1/5 447/1/5 448/1/5
f 449/1/6 450/1/6 451/1/6 452/1/6
f 453/1/1 454/1/1 455/1/1 456/1/1
f 457/1/4 458/1/4 459/1/4 460/1/4
f 461/1/5 462/1/5 463/1/5 464/1/5
f 465/1/6 466/1/6 467/1/6 468/1/6
f 469/1/2 470/1/2 471/1/2 472/1/2
f 473/1/5 474/1/5 475/1/5 476/1/5
f 477/1/6 478/1/6 479/1/6 480/1/6
f 481/1/1 482/1/1 483/1/1 484/1/1
f 485/1/3 486/1/3 487/1/3 488/1/3
f 489/1/5 490/1/5 491/1/5 492/1/5
f 493/1/6 494/1/6 495/1/6 496/1/6
f 497/1/3 498/1/3 499/1/3 500/1/3
f 501/1/4 502/1/4 503/1/4 504/1/4
f 505/1/5 506/1/5 507/1/5 508/1/5
f 509/1/6 510/1/6 511/1/6 512/1/6
f 513/1/2 514/1/2 515/1/2 516/1/2
f 517/1/3 518/1/3 519/1/3 520/1/3
f 521/1/4 522/1/4 523/1/4 524/1/4
f 525/1/5 526/1/5 527/1/5 528/1/5
f 529/1/6 530/1/6 531/1/6 532/1/6
f 533/1/1 534/1/1 535/1/1 536/1/1
f 537/1/3 538/1/3 539/1/3 540/1/3
f 541/1/4 542/1/4 543/1/4 544/1/4
f 545/1/5 546/1/5 547/1/5 548/1/5
f 549/1/6 550/1/6 551/1/6 552/1/6
f 553/1/2 554/1/2 555/1/2 556/1/2
f 557/1/3 558/1/3 559/1/3 560/1/3
f 561/1/5 562/1/5 563/1/5 564/1/5
f 565/1/6 566/1/6 567/1/6 568/1/6
f 569/1/1 570/1/1 571/1/1 572/1/1
f 573/1/4 574/1/4 575/1/4 576/1/4
f 577/1/5 578/1/5 579/1/5 580/1/5
f 581/1/6 582/1/6 583/1/6 584/1/6
f 585/1/5 586/1/5 587/1/5 588/1/5
f 589/1/6 590/1/6 591/1/6 592/1/6
f 593/1/2 594/1/2 595/1/2 596/1/2
f 597/1/3 598/1/3 599/1/3 600/1/3
f 601/1/5 602/1/5 603/1/5 604/1/5
f 605/1/6 606/1/6 607/1/6 608/1/6
f 609/1/1 610/1/1 611/1/1 612/1/1
f 613/1/2 614/1/2 615/1/2 616/1/2
f 617/1/5 618/1/5 619/1/5 620/1/5
f 621/1/6 622/1/6 623/1/6 624/1/6
f 625/1/1 626/1/1 627/1/1 628/1/1
f 629/1/4 630/1/4 631/1/4 632/1/4
f 633/1/5 634/1/5 635/1/5 636/1/5
f 637/1/6 638/1/6 639/1/6 640/1/6
f 641/1/3 642/1/3 643/1/3 644/1/3
f 645/1/4 646/1/4 647/1/4 648/1/4
f 649/1/5 650/1/5 651/1/5 652/1/5
f 653/1/6 654/1/6 655/1/6 656/1/6
f 657/1/3 658/1/3 659/1/3 660/1/3
f 661/1/5 662/1/5 663/1/5 664/1/5
f 665/1/6 666/1/6 667/1/6 668/1/6
f 669/1/2 670/1/2 671/1/2 672/1/2
f 673/1/4 674/1/4 675/1/4 676/1/4
f 677/1/5 678/1/5 679/1/5 680/1/5
f 681/1/6 682/1/6 683/1/6 684/1/6
f 685/1/1 686/1/1 687/1/1 688/1/1
f 689/1/2 690/1/2 691/1/2 692/1/2
f 693/1/3 694/1/3 695/1/3 696/1/3
f 697/1/4 698/1/4 699/1/4 700/1/4
f 701/1/5 702/1/5 703/1/5 704/1/5
f 705/1/6 706/1/6 707/1/6 708/1/6
f 709/1/1 710/1/1 711/1/1 712/1/1
f 713/1/4 714/1/4 715/1/4 716/1/4
f 717/1/5 718/1/5 719/1/5 720/1/5
f 721/1/6 722/1/6 723/1/6 724/1/6
f 725/1/2 726/1/2 727/1/2 728/1/2
f 729/1/3 730/1/3 731/1/3 732/1/3
f 733/1/5 734/1/5 735/1/5 736/1/5
f 737/1/6 738/1/6 739/1/6 740/1/6
f 741/1/1 742/1/1 743/1/1 744/1/1
f 745/1/4 746/1/4 747/1/4 748/1/4
f 749/1/5 750/1/5 751/1/5 752/1/5
f 753/1/6 754/1/6 755/1/6 756/1/6
f 757/1/5 758/1/5 759/1/5 760/1/5
f 761/1/6 762/1/6 763/1/6 764/1/6
f 765/1/2 766/1/2 767/1/2 768/1/2
f 769/1/3 770/1/3 771/1/3 772/1/3
f 773/1/5 774/1/5 775/1/5 776/1/5
f 777/1/6 778/1/6 779/1/6 780/1/6
f 781/1/1 782/1/1 783/1/1 784/1/1
f 785/1/2 786/1/2 787/1/2 788/1/2
f 789/1/5 790/1/5 791/1/5 792/1/5
f 793/1/6 794/1/6 795/1/6 796/1/6
f 797/1/1 798/1/1 799/1/1 800/1/1
f 801/1/2 802/1/2 803/1/2 804/1/2
f 805/1/5 806/1/5 807/1/5 808/1/5
f 809/1/6 810/1/6 811/1/6 812/1/6
f 813/1/1 814/1/1 815/1/1 816/1/1
f 817/1/4 818/1/4 819/1/4 820/1/4
f 821/1/5 822/1/5 823/1/5 824/1/5
f 825/1/6 826/1/6 827/1/6 828/1/6
f 829/1/2 830/1/2 831/1/2 832/1/2
f 833/1/3 834/1/3 835/1/3 836/1/3
f 837/1/5 838/1/5 839/1/5 840/1/5
f 841/1/6 842/1/6 843/1/6 844/1/6
f 845/1/1 846/1/1 847/1/1 848/1/1
f 849/1/4 850/1/4 851/1/4 852/1/4
f 853/1/5 854/1/5 855/1/5 856/1/5
f 857/1/6 858/1/6 859/1/6 860/1/6
f 861/1/2 862/1/2 863/1/2 864/1/2
f 865/1/5 866/1/5 867/1/5 868/1/5
f 869/1/6 870/1/6 871/1/6 872/1/6
f 873/1/1 874/1/1 875/1/1 876/1/1
f 877/1/5 878/1/5 879/1/5 880/1/5
f 881/1/6 882/1/6 883/1/6 884/1/6
f 885/1/2 886/1/2 887/1/2 888/1/2
f 889/1/3 890/1/3 891/1/3 892/1/3
f 893/1/5 894/1/5 895/1/5 896/1/5
f 897/1/6 898/1/6 899/1/6 900/1/6
f 901/1/1 902/1/1 903/1/1 904/1/1
f 905/1/4 906/1/4 907/1/4 908/1/4
f 909/1/5 910/1/5 911/1/5 912/1/5
f 913/1/6 914/1/6 915/1/6 916/1/6
f 917/1/2 918/1/2 919/1/2 920/1/2
f 921/1/3 922/1/3 923/1/3 924/1/3
f 925/1/4 926/1/4 927/1/4 928/1/4
f 929/1/5 930/1/5 931/1/5 932/1/5
f 933/1/6 934/1/6 935/1/6 936/1/6
f 937/1/1 938/1/1 939/1/1 940/1/1
f 941/1/2 942/1/2 943/1/2 944/1/2
f 945/1/3 946/1/3 947/1/3 948/1/3
f 949/1/5 950/1/5 951/1/5 952/1/5
f 953/1/6 954/1/6 955/1/6 956/1/6
f 957/1/1 958/1/1 959/1/1 960/1/1
f 961/1/5 962/1/5 963/1/5 964/1/5
f 965/1/6 966/1/6 967/1/6 968/1/6
f 969/1/2 970/1/2 971/1/2 972/1/2
f 973/1/3 974/1/3 975/1/3 976/1/3
f 977/1/5 978/1/5 979/1/5 980/1/5
f 981/1/6 982/1/6 983/1/6 984/1/6
f 985/1/1 986/1/1 987/1/1 988/1/1
f 989/1/4 990/1/4 991/1/4 992/1/4
f 993/1/5 994/1/5 995/1/5 996/1/5
f 997/1/6 998/1/6 999/1/6 1000/1/6
f 1001/1/2 1002/1/2 1003/1/2 1004/1/2
f 1005/1/3 1006/1/3 1007/1/3 1008/1/3
f 1009/1/5 1010/1/5 1011/1/5 1012/1/5
f 1013/1/6 1014/1/6 1015/1/6 1016/1/6
f 1017/1/1 1018/1/1 1019/1/1 1020/1/1
f 1021/1/4 1022/1/4 1023/1/4 1024/1/4
f 1025/1/5 1026/1/5 1027/1/5 1028/1/5
f 1029/1/6 1030/1/6 1031/1/6 1032/1/6
f 1033/1/2 1034/1/2 1035/1/2 1036/1/2
f 1037/1/5 1038/1/5 1039/1/5 1040/1/5
f 1041/1/6 1042/1/6 1043/1/6 1044/1/6
f 1045/1/1 1046/1/1 1047/1/1 1048/1/1
f 1049/1/2 1050/1/2 1051/1/2 1052/1/2
f 1053/1/3 1054/1/3 1055/1/3 1056/1/3
f 1057/1/5 1058/1/5 1059/1/5 1060/1/5
f 1061/1/6 1062/1/6 1063/1/6 1064/1/6
f 1065/1/1 1066/1/1 1067/1/1 1068/1/1
f 1069/1/2 1070/1/2 1071/1/2 1072/1/2
f 1073/1/5 1074/1/5 1075/1/5 1076/1/5
f 1077/1/6 1078/1/6 1079/1/6 1080/1/6
f 1081/1/1 1082/1/1 1083/1/1 1084/1/1
f 1085/1/4 1086/1/4 1087/1/4 1088/1/4
f 1089/1/5 1090/1/5 1091/1/5 1092/1/5
f 1093/1/6 1094/1/6 1095/1/6 1096/1/6
f 1097/1/2 1098/1/2 1099/1/2 1100/1/2
f 1101/1/5 1102/1/5 1103/1/5 1104/1/5
f 1105/1/6 1106/1/6 1107/1/6 1108/1/6
f 1109/1/1 1110/1/1 1111/1/1 1112/1/1
f 1113/1/2 1114/1/2 1115/1/2 1116/1/2
f 1117/1/5 1118/1/5 1119/1/5 1120/1/5
f 1121/1/6 1122/1/6 1123/1/6 1124/1/6
f 1125/1/1 1126/1/1 1127/1/1 1128/1/1
f 1129/1/2 1130/1/2 1131/1/2 1132/1/2
f 1133/1/4 1134/1/4 1135/1/4 1136/1/4
f 1137/1/5 1138/1/5 1139/1/5 1140/1/5
f 1141/1/6 1142/1/6 1143/1/6 1144/1/6
f 1145/1/1 1146/1/1 1147/1/1 1148/1/1
f 1149/1/2 1150/1/2 1151/1/2 1152/1/2
f 1153/1/5 1154/1/5 1155/1/5 1156/1/5
f 1157/1/6 1158/1/6 1159/1/6 1160/1/6
f 1161/1/1 1162/1/1 1163/1/1 1164/1/1
f 1165/1/2 1166/1/2 1167/1/2 1168/1/2
f 1169/1/3 1170/1/3 1171/1/3 1172/1/3
f 1173/1/4 1174/1/4 1175/1/4 1176/1/4
f 1177/1/5 1178/1/5 1179/1/5 1180/1/5
f 1181/1/6 1182/1/6 1183/1/6 1184/1/6
f 1185/1/1 1186/1/1 1187/1/1 1188/1/1
f 1189/1/2 1190/1/2 1191/1/2 1192/1/2
f 1193/1/5 1194/1/5 1195/1/5 1196/1/5
f 1197/1/6 1198/1/6 1199/1/6 1200/1/6
f 1201/1/1 1202/1/1 1203/1/1 1204/1/1
f 1205/1/5 1206/1/5 1207/1/5 1208/1/5
f 1209/1/6 1210/1/6 1211/1/6 1212/1/6
f 1213/1/2 1214/1/2 1215/1/2 1216/1/2
f 1217/1/3 1218/1/3 1219/1/3 1220/1/3
f 1221/1/5 1222/1/5 1223/1/5 1224/1/5
f 1225/1/6 1226/1/6 1227/1/6 1228/1/6
f 1229/1/1 1230/1/1 1231/1/1 1232/1/1
f 1233/1/4 1234/1/4 1235/1/4 1236/1/4
f 1237/1/5 1238/1/5 1239/1/5 1240/1/5
f 1241/1/6 1242/1/6 1243/1/6 1244/1/6
f 1245/1/2 1246/1/2 1247/1/2 1248/1/2
f 1249/1/3 1250/1/3 1251/1/3 1252/1/3
f 1253/1/5 1254/1/5 1255/1/5 1256/1/5
f 1257/1/6 1258/1/6 1259/1/6 1260/1/6
f 1261/1/1 1262/1/1 1263/1/1 1264/1/1
f 1265/1/2 1266/1/2 1267/1/2 1268/1/2
f 1269/1/5 1270/1/5 1271/1/5 1272/1/5
f 1273/1/6 1274/1/6 1275/1/6 1276/1/6
f 1277/1/1 1278/1/1 1279/1/1 1280/1/1
f 1281/1/2 1282/1/2 1283/1/2 1284/1/2
f 1285/1/5 1286/1/5 1287/1/5 1288/1/5
f 1289/1/6 1290/1/6 1291/1/6 1292/1/6
f 1293/1/1 1294/1/1 1295/1/1 1296/1/1
f 1297/1/4 1298/1/4 1299/1/4 1300/1/4
f 1301/1/5 1302/1/5 1303/1/5 1304/1/5
f 1305/1/6 1306/1/6 1307/1/6 1308/1/6
f 1309/1/2 1310/1/2 1311/1/2 1312/1/2
f 1313/1/5 1314/1/5 1315/1/5 1316/1/5
f 1317/1/6 1318/1/6 1319/1/6 1320/1/6
f 1321/1/1 1322/1/1 1323/1/1 1324/1/1
f 1325/1/2 1326/1/2 1327/1/2 1328/1/2
f 1329/1/5 1330/1/5 1331/1/5 1332/1/5
f 1333/1/6 1334/1/6 1335/1/6 1336/1/6
f 1337/1/1 1338/1/1 1339/1/1 1340/1/1
f 1341/1/3 1342/1/3 1343/1/3 1344/1/3
f 1345/1/4 1346/1/4 1347/1/4 1348/1/4
f 1349/1/5 1350/1/5 1351/1/5 1352/1/5
f 1353/1/6 1354/1/6 1355/1/6 1356/1/6
f 1357/1/2 1358/1/2 1359/1/2 1360/1/2
f 1361/1/5 1362/1/5 1363/1/5 1364/1/5
f 1365/1/6 1366/1/6 1367/1/6 1368/1/6
f 1369/1/1 1370/1/1 1371/1/1 1372/1/1
f 1373/1/4 1374/1/4 1375/1/4 1376/1/4
f 1377/1/5 1378/1/5 1379/1/5 1380/1/5
f 1381/1/6 1382/1/6 1383/1/6 1384/1/6
f 1385/1/2 1386/1/2 1387/1/2 1388/1/2
f 1389/1/3 1390/1/3 1391/1/3 1392/1/3
f 1393/1/5 1394/1/5 1395/1/5 1396/1/5
f 1397/1/6 1398/1/6 1399/1/6 1400/1/6
f 1401/1/1 1402/1/1 1403/1/1 1404/1/1
f 1405/1/2 1406/1/2 1407/1/2 1408/1/2
f 1409/1/5 1410/1/5 1411/1/5 1412/1/5
f 1413/1/6 1414/1/6 1415/1/6 1416/1/6
f 1417/1/1 1418/1/1 1419/1/1 1420/1/1
f 1421/1/2 1422/1/2 1423/1/2 1424/1/2
f 1425/1/4 1426/1/4 1427/1/4 1428/1/4
f 1429/1/5 1430/1/5 1431/1/5 1432/1/5
f 1433/1/6 1434/1/6 1435/1/6 1436/1/6
f 1437/1/1 1438/1/1 1439/1/1 1440/1/1
f 1441/1/4 1442/1/4 1443/1/4 1444/1/4
f 1445/1/5 1446/1/5 1447/1/5 1448/1/5
f 1449/1/6 1450/1/6 1451/1/6 1452/1/6
f 1453/1/2 1454/1/2 1455/1/2 1456/1/2
f 1457/1/3 1458/1/3 1459/1/3 1460/1/3
f 1461/1/4 1462/1/4 1463/1/4 1464/1/4
f 1465/1/5 1466/1/5 1467/1/5 1468/1/5
f 1469/1/6 1470/1/6 1471/1/6 1472/1/6
f 1473/1/1 1474/1/1 1475/1/1 1476/1/1
f 1477/1/3 1478/1/3 1479/1/3 1480/1/3
f 1481/1/4 1482/1/4 1483/1/4 1484/1/4
f 1485/1/5 1486/1/5 1487/1/5 1488/1/5
f 1489/1/6 1490/1/6 1491/1/6 1492/1/6
f 1493/1/3 1494/1/3 1495/1/3 1496/1/3
f 1497/1/4 1498/1/4 1499/1/4 1500/1/4
f 1501/1/5 1502/1/5 1503/1/5 1504/1/5
f 1505/1/6 1506/1/6 1507/1/6 1508/1/6
f 1509/1/2 1510/1/2 1511/1/2 1512/1/2
f 1513/1/3 1514/1/3 1515/1/3 1516/1/3
f 1517/1/5 1518/1/5 1519/1/5 1520/1/5
f 1521/1/6 1522/1/6 1523/1/6 1524/1/6
f 1525/1/1 1526/1/1 1527/1/1 1528/1/1
f 1529/1/2 1530/1/2 1531/1/2 1532/1/2
f 1533/1/4 1534/1/4 1535/1/4 1536/1/4
f 1537/1/5 1538/1/5 1539/1/5 1540/1/5
f 1541/1/6 1542/1/6 1543/1/6 1544/1/6
f 1545/1/1 1546/1/1 1547/1/1 1548/1/1
f 1549/1/2 1550/1/2 1551/1/2 1552/1/2
f 1553/1/5 1554/1/5 1555/1/5 1556/1/5
f 1557/1/6 1558/1/6 1559/1/6 1560/1/6
f 1561/1/1 1562/1/1 1563/1/1 1564/1/1
f 1565/1/2 1566/1/2 1567/1/2 1568/1/2
f 1569/1/3 1570/1/3 1571/1/3 1572/1/3
f 1573/1/4 1574/1/4 1575/1/4 1576/1/4
f 1577/1/5 1578/1/5 1579/1/5 1580/1/5
f 1581/1/6 1582/1/6 1583/1/6 1584/1/6
f 1585/1/1 1586/1/1 1587/1/1 1588/1/1
f 1589/1/2 1590/1/2 1591/1/2 1592/1/2
f 1593/1/5 1594/1/5 1595/1/5 1596/1/5
f 1597/1/6 1598/1/6 1599/1/6 1600/1/6
f 1601/1/1 1602/1/1 1603/1/1 1604/1/1
f 1605/1/2 1606/1/2 1607/1/2 1608/1/2
f 1609/1/3 1610/1/3 1611/1/3 1612/1/3
f 1613/1/4 1614/1/4 1615/1/4 1616/1/4
f 1617/1/5 1618/1/5 1619/1/5 1620/1/5
f 1621/1/6 1622/1/6 1623/1/6 1624/1/6
f 1625/1/1 1626/1/1 1627/1/1 1628/1/1
f 1629/1/3 1630/1/3 1631/1/3 1632/1/3
f 1633/1/5 1634/1/5 1635/1/5 1636/1/5
f 1637/1/6 1638/1/6 1639/1/6 1640/1/6
f 1641/1/2 1642/1/2 1643/1/2 1644/1/2
f 1645/1/5 1646/1/5 1647/1/5 1648/1/5
f 1649/1/6 1650/1/6 1651/1/6 1652/1/6
f 1653/1/1 1654/1/1 1655/1/1 1656/1/1
f 1657/1/2 1658/1/2 1659/1/2 1660/1/2
f 1661/1/3 1662/1/3 1663/1/3 1664/1/3
f 1665/1/4 1666/1/4 1667/1/4 1668/1/4
f 1669/1/5 1670/1/5 1671/1/5 1672/1/5
f 1673/1/6 1674/1/6 1675/1/6 1676/1/6
f 1677/1/1 1678/1/1 1679/1/1 1680/1/1
f 1681/1/3 1682/1/3 1683/1/3 1684/1/3
f 1685/1/5 1686/1/5 1687/1/5 1688/1/5
f 1689/1/6 1690/1/6 1691/1/6 1692/1/6
f 1693/1/2 1694/1/2 1695/1/2 1696/1/2
f 1697/1/4 1698/1/4 1699/1/4 1700/1/4
f 1701/1/5 1702/1/5 1703/1/5 1704/1/5
f 1705/1/6 1706/1/6 1707/1/6 1708/1/6
f 1709/1/1 1710/1/1 1711/1/1 1712/1/1
f 1713/1/2 1714/1/2 1715/1/2 1716/1/2
f 1717/1/3 1718/1/3 1719/1/3 1720/1/3
f 1721/1/4 1722/1/4 1723/1/4 1724/1/4
f 1725/1/5 1726/1/5 1727/1/5 1728/1/5
f 1729/1/6 1730/1/6 1731/1/6 1732/1/6
f 1733/1/1 1734/1/1 1735/1/1 1736/1/1
f 1737/1/5 1738/1/5 1739/1/5 1740/1/5
f 1741/1/6 1742/1/6 1743/1/6 1744/1/6
f 1745/1/2 1746/1/2 1747/1/2 1748/1/2
f 1749/1/5 1750/1/5 1751/1/5 1752/1/5
f 1753/1/6 1754/1/6 1755/1/6 1756/1/6
f 1757/1/1 1758/1/1 1759/1/1 1760/1/1
f 1761/1/3 1762/1/3 1763/1/3 1764/1/3
f 1765/1/5 1766/1/5 1767/1/5 1768/1/5
f 1769/1/6 1770/1/6 1771/1/6 1772/1/6
f 1773/1/2 1774/1/2 1775/1/2 1776/1/2
f 1777/1/4 1778/1/4 1779/1/4 1780/1/4
f 1781/1/5 1782/1/5 1783/1/5 1784/1/5
f 1785/1/6 1786/1/6 1787/1/6 1788/1/6
f 1789/1/1 1790/1/1 1791/1/1 1792/1/1
f 1793/1/3 1794/1/3 1795/1/3 1796/1/3
f 1797/1/5 1798/1/5 1799/1/5 1800/1/5
f 1801/1/6 1802/1/6 1803/1/6 1804/1/6
f 1805/1/5 1806/1/5 1807/1/5 1808/1/5
f 1809/1/6 1810/1/6 1811/1/6 1812/1/6
f 1813/1/2 1814/1/2 1815/1/2 1816/1/2
f 1817/1/4 1818/1/4 1819/1/4 1820/1/4
f 1821/1/5 1822/1/5 1823/1/5 1824/1/5
f 1825/1/6 1826/1/6 1827/1/6 1828/1/6
f 1829/1/1 1830/1/1 1831/1/1 1832/1/1
f 1833/1/2 1834/1/2 1835/1/2 1836/1/2
f 1837/1/4 1838/1/4 1839/1/4 1840/1/4
f 1841/1/5 1842/1/5 1843/1/5 1844/1/5
f 1845/1/6 1846/1/6 1847/1/6 1848/1/6
f 1849/1/1 1850/1/1 1851/1/1 1852/1/1
f 1853/1/5 1854/1/5 1855/1/5 1856/1/5
f 1857/1/6 1858/1/6 1859/1/6 1860/1/6
f 1861/1/2 1862/1/2 1863/1/2 1864/1/2
f 1865/1/5 1866/1/5 1867/1/5 1868/1/5
f 1869/1/6 1870/1/6 1871/1/6 1872/1/6
f 1873/1/1 1874/1/1 1875/1/1 1876/1/1
f 1877/1/2 1878/1/2 1879/1/2 1880/1/2
f 1881/1/3 1882/1/3 1883/1/3 1884/1/3
f 1885/1/4 1886/1/4 1887/1/4 1888/1/4
f 1889/1/5 1890/1/5 1891/1/5 1892/1/5
f 1893/1/6 1894/1/6 1895/1/6 1896/1/6
f 1897/1/1 1898/1/1 1899/1/1 1900/1/1
f 1901/1/5 1902/1/5 1903/1/5 1904/1/5
f 1905/1/6 1906/1/6 1907/1/6 1908/1/6
f 1909/1/2 1910/1/2 1911/1/2 1912/1/2
f 1913/1/4 1914/1/4 1915/1/4 1916/1/4
f 1917/1/5 1918/1/5 1919/1/5 1920/1/5
f 1921/1/6 1922/1/6 1923/1/6 1924/1/6
f 1925/1/1 1926/1/1 1927/1/1 1928/1/1
f 1929/1/2 1930/1/2 1931/1/2 1932/1/2
f 1933/1/4 1934/1/4 1935/1/4 1936/1/4
f 1937/1/5 1938/1/5 1939/1/5 1940/1/5
f 1941/1/6 1942/1/6 1943/1/6 1944/1/6
f 1945/1/1 1946/1/1 1947/1/1 1948/1/1
f 1949/1/2 1950/1/2 1951/1/2 1952/1/2
f 1953/1/3 1954/1/3 1955/1/3 1956/1/3
f 1957/1/4 1958/1/4 1959/1/4 1960/1/4
f 1961/1/5 1962/1/5 1963/1/5 1964/1/5
f 1965/1/6 1966/1/6 1967/1/6 1968/1/6
f 1969/1/1 1970/1/1 1971/1/1 1972/1/1
f 1973/1/3 1974/1/3 1975/1/3 1976/1/3
f 1977/1/5 1978/1/5 1979/1/5 1980/1/5
f 1981/1/6 1982/1/6 1983/1/6 1984/1/6
f 1985/1/2 1986/1/2 1987/1/2 1988/1/2
f 1989/1/3 1990/1/3 1991/1/3 1992/1/3
f 1993/1/5 1994/1/5 1995/1/5 1996/1/5
f 1997/1/6 1998/1/6 1999/1/6 2000/1/6
f 2001/1/1 2002/1/1 2003/1/1 2004/1/1
f 2005/1/2 2006/1/2 2007/1/2 2008/1/2
f 2009/1/3 2010/1/3 2011/1/3 2012/1/3
f 2013/1/5 2014/1/5 2015/1/5 2016/1/5
f 2017/1/6 2018/1/6 2019/1/6 2020/1/6
f 2021/1/1 2022/1/1 2023/1/1 2024/1/1
f 2025/1/3 2026/1/3 2027/1/3 2028/1/3
f 2029/1/5 2030/1/5 2031/1/5 2032/1/5
f 2033/1/6 2034/1/6 2035/1/6 2036/1/6
f 2037/1/5 2038/1/5 2039/1/5 2040/1/5
f 2041/1/6 2042/1/6 2043/1/6 2044/1/6
f 2045/1/2 2046/1/2 2047/1/2 2048/1/2
f 2049/1/5 2050/1/5 2051/1/5 2052/1/5
f 2053/1/6 2054/1/6 2055/1/6 2056/1/6
f 2057/1/1 2058/1/1 2059/1/1 2060/1/1
f 2061/1/3 2062/1/3 2063/1/3 2064/1/3
f 2065/1/5 2066/1/5 2067/1/5 2068/1/5
f 2069/1/6 2070/1/6 2071/1/6 2072/1/6
f 2073/1/5 2074/1/5 2075/1/5 2076/1/5
f 2077/1/6 2078/1/6 2079/1/6 2080/1/6
f 2081/1/3 2082/1/3 2083/1/3 2084/1/3
f 2085/1/5 2086/1/5 2087/1/5 2088/1/5
f 2089/1/6 2090/1/6 2091/1/6 2092/1/6
f 2093/1/3 2094/1/3 2095/1/3 2096/1/3
f 2097/1/5 2098/1/5 2099/1/5 2100/1/5
f 2101/1/6 2102/1/6 2103/1/6 2104/1/6
f 2105/1/5 2106/1/5 2107/1/5 2108/1/5
f 2109/1/6 2110/1/6 2111/1/6 2112/1/6
f 2113/1/5 2114/1/5 2115/1/5 2116/1/5
f 2117/1/6 2118/1/6 2119/1/6 2120/1/6
f 2121/1/2 2122/1/2 2123/1/2 2124/1/2
f 2125/1/4 2126/1/4 2127/1/4 2128/1/4
f 2129/1/5 2130/1/5 2131/1/5 2132/1/5
f 2133/1/6 2134/1/6 2135/1/6 2136/1/6
f 2137/1/1 2138/1/1 2139/1/1 2140/1/1
f 2141/1/3 2142/1/3 2143/1/3 2144/1/3
f 2145/1/5 2146/1/5 2147/1/5 2148/1/5
f 2149/1/6 2150/1/6 2151/1/6 2152/1/6
f 2153/1/4 2154/1/4 2155/1/4 2156/1/4
f 2157/1/5 2158/1/5 2159/1/5 2160/1/5
f 2161/1/6 2162/1/6 2163/1/6 2164/1/6
f 2165/1/4 2166/1/4 2167/1/4 2168/1/4
f 2169/1/5 2170/1/5 2171/1/5 2172/1/5
f 2173/1/6 2174/1/6 2175/1/6 2176/1/6
f 2177/1/4 2178/1/4 2179/1/4 2180/1/4
f 2181/1/5 2182/1/5 2183/1/5 2184/1/5
f 2185/1/6 2186/1/6 2187/1/6 2188/1/6
f 2189/1/5 2190/1/5 2191/1/5 2192/1/5
f 2193/1/6 2194/1/6 2195/1/6 2196/1/6
f 2197/1/5 2198/1/5 2199/1/5 2200/1/5
f 2201/1/6 2202/1/6 2203/1/6 2204/1/6
f 2205/1/2 2206/1/2 2207/1/2 2208/1/2
f 2209/1/5 2210/1/5 2211/1/5 2212/1/5
f 2213/1/6 2214/1/6 2215/1/6 2216/1/6
f 2217/1/1 2218/1/1 2219/1/1 2220/1/1
f 2221/1/3 2222/1/3 2223/1/3 2224/1/3
f 2225/1/4 2226/1/4 2227/1/4 2228/1/4
f 2229/1/5 2230/1/5 2231/1/5 2232/1/5
f 2233/1/6 2234/1/6 2235/1/6 2236/1/6
f 2237/1/3 2238/1/3 2239/1/3 2240/1/3
f 2241/1/4 2242/1/4 2243/1/4 2244/1/4
f 2245/1/5 2246/1/5 2247/1/5 2248/1/5
f 2249/1/6 2250/1/6 2251/1/6 2252/1/6
f 2253/1/3 2254/1/3 2255/1/3 2256/1/3
f 2257/1/4 2258/1/4 2259/1/4 2260/1/4
f 2261/1/5 2262/1/5 2263/1/5 2264/1/5
f 2265/1/6 2266/1/6 2267/1/6 2268/1/6
f 2269/1/2 2270/1/2 2271/1/2 2272/1/2
f 2273/1/4 2274/1/4 2275/1/4 2276/1/4
f 2277/1/5 2278/1/5 2279/1/5 2280/1/5
f 2281/1/6 2282/1/6 2283/1/6 2284/1/6
f 2285/1/1 2286/1/1 2287/1/1 2288/1/1
f 2289/1/4 2290/1/4 2291/1/4 2292/1/4
f 2293/1/5 2294/1/5 2295/1/5 2296/1/5
f 2297/1/6 2298/1/6 2299/1/6 2300/1/6
f 2301/1/4 2302/1/4 2303/1/4 2304/1/4
f 2305/1/5 2306/1/5 2307/1/5 2308/1/5
f 2309/1/6 2310/1/6 2311/1/6 2312/1/6
f 2313/1/2 2314/1/2 2315/1/2 2316/1/2
f 2317/1/4 2318/1/4 2319/1/4 2320/1/4
f 2321/1/5 2322/1/5 2323/1/5 2324/1/5
f 2325/1/6 2326/1/6 2327/1/6 2328/1/6
f 2329/1/1 2330/1/1 2331/1/1 2332/1/1
f 2333/1/2 2334/1/2 2335/1/2 2336/1/2
f 2337/1/3 2338/1/3 2339/1/3 2340/1/3
f 2341/1/4 2342/1/4 2343/1/4 2344/1/4
f 2345/1/5 2346/1/5 2347/1/5 2348/1/5
f 2349/1/6 2350/1/6 2351/1/6 2352/1/6

