# generated by vox_to_obj_exporter
# scale=0.1 center=false ground=false y_up=true

mtllib Fight_710.mtl
usemtl palette

# normals
vn -1 0 0
vn 1 0 0
vn 0 1 0
vn 0 -1 0
vn 0 0 1
vn 0 0 -1

# texcoords
vt 0.025390625 0.5
vt 0.103515625 0.5
vt 0.197265625 0.5

# verts
v 12.7 15.7 -2.6
v 12.7 15.6 -2.6
v 12.7 15.6 -2.5
v 12.7 15.7 -2.5
v 12.7 15.7 -2.6
v 12.7 15.7 -2.5
v 12.8 15.7 -2.5
v 12.8 15.7 -2.6
v 12.7 15.7 -2.5
v 12.7 15.6 -2.5
v 12.8 15.6 -2.5
v 12.8 15.7 -2.5
v 12.8 15.7 -2.6
v 12.8 15.6 -2.6
v 12.7 15.6 -2.6
v 12.7 15.7 -2.6
v 12.8 15.7 -2.6
v 12.8 15.7 -2.5
v 12.9 15.7 -2.5
v 12.9 15.7 -2.6
v 12.8 15.6 -2.5
v 12.8 15.6 -2.6
v 12.9 15.6 -2.6
v 12.9 15.6 -2.5
v 12.8 15.7 -2.5
v 12.8 15.6 -2.5
v 12.9 15.6 -2.5
v 12.9 15.7 -2.5
v 12.9 15.7 -2.6
v 12.9 15.6 -2.6
v 12.8 15.6 -2.6
v 12.8 15.7 -2.6
v 12.9 15.7 -2.6
v 12.9 15.7 -2.5
v 13 15.7 -2.5
v 13 15.7 -2.6
v 12.9 15.6 -2.5
v 12.9 15.6 -2.6
v 13 15.6 -2.6
v 13 15.6 -2.5
v 12.9 15.7 -2.5
v 12.9 15.6 -2.5
v 13 15.6 -2.5
v 13 15.7 -2.5
v 13 15.7 -2.6
v 13 15.6 -2.6
v 12.9 15.6 -2.6
v 12.9 15.7 -2.6
v 13 15.7 -2.6
v 13 15.7 -2.5
v 13.1 15.7 -2.5
v 13.1 15.7 -2.6
v 13 15.6 -2.5
v 13 15.6 -2.6
v 13.1 15.6 -2.6
v 13.1 15.6 -2.5
v 13 15.7 -2.5
v 13 15.6 -2.5
v 13.1 15.6 -2.5
v 13.1 15.7 -2.5
v 13.1 15.7 -2.6
v 13.1 15.6 -2.6
v 13 15.6 -2.6
v 13 15.7 -2.6
v 13.2 15.7 -2.5
v 13.2 15.6 -2.5
v 13.2 15.6 -2.6
v 13.2 15.7 -2.6
v 13.1 15.7 -2.6
v 13.1 15.7 -2.5
v 13.2 15.7 -2.5
v 13.2 15.7 -2.6
v 13.1 15.7 -2.5
v 13.1 15.6 -2.5
v 13.2 15.6 -2.5
v 13.2 15.7 -2.5
v 13.2 15.7 -2.6
v 13.2 15.6 -2.6
v 13.1 15.6 -2.6
v 13.1 15.7 -2.6
v 12.4 15.6 -2.6
v 12.4 15.5 -2.6
v 12.4 15.5 -2.5
v 12.4 15.6 -2.5
v 12.4 15.6 -2.6
v 12.4 15.6 -2.5
v 12.5 15.6 -2.5
v 12.5 15.6 -2.6
v 12.4 15.5 -2.5
v 12.4 15.5 -2.6
v 12.5 15.5 -2.6
v 12.5 15.5 -2.5
v 12.4 15.6 -2.5
v 12.4 15.5 -2.5
v 12.5 15.5 -2.5
v 12.5 15.6 -2.5
v 12.5 15.6 -2.6
v 12.5 15.5 -2.6
v 12.4 15.5 -2.6
v 12.4 15.6 -2.6
v 12.5 15.6 -2.6
v 12.5 15.6 -2.5
v 12.6 15.6 -2.5
v 12.6 15.6 -2.6
v 12.5 15.5 -2.5
v 12.5 15.5 -2.6
v 12.6 15.5 -2.6
v 12.6 15.5 -2.5
v 12.5 15.6 -2.5
v 12.5 15.5 -2.5
v 12.6 15.5 -2.5
v 12.6 15.6 -2.5
v 12.6 15.6 -2.6
v 12.6 15.5 -2.6
v 12.5 15.5 -2.6
v 12.5 15.6 -2.6
v 12.6 15.6 -2.6
v 12.6 15.6 -2.5
v 12.7 15.6 -2.5
v 12.7 15.6 -2.6
v 12.6 15.5 -2.5
v 12.6 15.5 -2.6
v 12.7 15.5 -2.6
v 12.7 15.5 -2.5
v 12.6 15.6 -2.5
v 12.6 15.5 -2.5
v 12.7 15.5 -2.5
v 12.7 15.6 -2.5
v 12.7 15.6 -2.6
v 12.7 15.5 -2.6
v 12.6 15.5 -2.6
v 12.6 15.6 -2.6
v 12.8 15.6 -2.5
v 12.8 15.5 -2.5
v 12.8 15.5 -2.6
v 12.8 15.6 -2.6
v 12.7 15.5 -2.5
v 12.7 15.5 -2.6
v 12.8 15.5 -2.6
v 12.8 15.5 -2.5
v 12.7 15.6 -2.5
v 12.7 15.5 -2.5
v 12.8 15.5 -2.5
v 12.8 15.6 -2.5
v 12.8 15.6 -2.6
v 12.8 15.5 -2.6
v 12.7 15.5 -2.6
v 12.7 15.6 -2.6
v 13.1 15.6 -2.6
v 13.1 15.5 -2.6
v 13.1 15.5 -2.5
v 13.1 15.6 -2.5
v 13.1 15.5 -2.5
v 13.1 15.5 -2.6
v 13.2 15.5 -2.6
v 13.2 15.5 -2.5
v 13.1 15.6 -2.5
v 13.1 15.5 -2.5
v 13.2 15.5 -2.5
v 13.2 15.6 -2.5
v 13.2 15.6 -2.6
v 13.2 15.5 -2.6
v 13.1 15.5 -2.6
v 13.1 15.6 -2.6
v 13.2 15.6 -2.6
v 13.2 15.6 -2.5
v 13.3 15.6 -2.5
v 13.3 15.6 -2.6
v 13.2 15.5 -2.5
v 13.2 15.5 -2.6
v 13.3 15.5 -2.6
v 13.3 15.5 -2.5
v 13.2 15.6 -2.5
v 13.2 15.5 -2.5
v 13.3 15.5 -2.5
v 13.3 15.6 -2.5
v 13.3 15.6 -2.6
v 13.3 15.5 -2.6
v 13.2 15.5 -2.6
v 13.2 15.6 -2.6
v 13.3 15.6 -2.6
v 13.3 15.6 -2.5
v 13.4 15.6 -2.5
v 13.4 15.6 -2.6
v 13.3 15.5 -2.5
v 13.3 15.5 -2.6
v 13.4 15.5 -2.6
v 13.4 15.5 -2.5
v 13.3 15.6 -2.5
v 13.3 15.5 -2.5
v 13.4 15.5 -2.5
v 13.4 15.6 -2.5
v 13.4 15.6 -2.6
v 13.4 15.5 -2.6
v 13.3 15.5 -2.6
v 13.3 15.6 -2.6
v 13.5 15.6 -2.5
v 13.5 15.5 -2.5
v 13.5 15.5 -2.6
v 13.5 15.6 -2.6
v 13.4 15.6 -2.6
v 13.4 15.6 -2.5
v 13.5 15.6 -2.5
v 13.5 15.6 -2.6
v 13.4 15.5 -2.5
v 13.4 15.5 -2.6
v 13.5 15.5 -2.6
v 13.5 15.5 -2.5
v 13.4 15.6 -2.5
v 13.4 15.5 -2.5
v 13.5 15.5 -2.5
v 13.5 15.6 -2.5
v 13.5 15.6 -2.6
v 13.5 15.5 -2.6
v 13.4 15.5 -2.6
v 13.4 15.6 -2.6
v 12 15.5 -2.6
v 12 15.4 -2.6
v 12 15.4 -2.5
v 12 15.5 -2.5
v 12 15.5 -2.6
v 12 15.5 -2.5
v 12.1 15.5 -2.5
v 12.1 15.5 -2.6
v 12 15.5 -2.5
v 12 15.4 -2.5
v 12.1 15.4 -2.5
v 12.1 15.5 -2.5
v 12.1 15.5 -2.6
v 12.1 15.4 -2.6
v 12 15.4 -2.6
v 12 15.5 -2.6
v 12.1 15.5 -2.6
v 12.1 15.5 -2.5
v 12.2 15.5 -2.5
v 12.2 15.5 -2.6
v 12.1 15.5 -2.5
v 12.1 15.4 -2.5
v 12.2 15.4 -2.5
v 12.2 15.5 -2.5
v 12.2 15.5 -2.6
v 12.2 15.4 -2.6
v 12.1 15.4 -2.6
v 12.1 15.5 -2.6
v 12.2 15.5 -2.6
v 12.2 15.5 -2.5
v 12.3 15.5 -2.5
v 12.3 15.5 -2.6
v 12.2 15.4 -2.5
v 12.2 15.4 -2.6
v 12.3 15.4 -2.6
v 12.3 15.4 -2.5
v 12.2 15.5 -2.5
v 12.2 15.4 -2.5
v 12.3 15.4 -2.5
v 12.3 15.5 -2.5
v 12.3 15.5 -2.6
v 12.3 15.4 -2.6
v 12.2 15.4 -2.6
v 12.2 15.5 -2.6
v 12.4 15.5 -2.5
v 12.4 15.4 -2.5
v 12.4 15.4 -2.6
v 12.4 15.5 -2.6
v 12.3 15.5 -2.6
v 12.3 15.5 -2.5
v 12.4 15.5 -2.5
v 12.4 15.5 -2.6
v 12.3 15.4 -2.5
v 12.3 15.4 -2.6
v 12.4 15.4 -2.6
v 12.4 15.4 -2.5
v 12.3 15.5 -2.5
v 12.3 15.4 -2.5
v 12.4 15.4 -2.5
v 12.4 15.5 -2.5
v 12.4 15.5 -2.6
v 12.4 15.4 -2.6
v 12.3 15.4 -2.6
v 12.3 15.5 -2.6
v 13.6 15.5 -2.6
v 13.6 15.4 -2.6
v 13.6 15.4 -2.5
v 13.6 15.5 -2.5
v 13.6 15.5 -2.6
v 13.6 15.5 -2.5
v 13.7 15.5 -2.5
v 13.7 15.5 -2.6
v 13.6 15.4 -2.5
v 13.6 15.4 -2.6
v 13.7 15.4 -2.6
v 13.7 15.4 -2.5
v 13.6 15.5 -2.5
v 13.6 15.4 -2.5
v 13.7 15.4 -2.5
v 13.7 15.5 -2.5
v 13.7 15.5 -2.6
v 13.7 15.4 -2.6
v 13.6 15.4 -2.6
v 13.6 15.5 -2.6
v 13.7 15.5 -2.6
v 13.7 15.5 -2.5
v 13.8 15.5 -2.5
v 13.8 15.5 -2.6
v 13.7 15.5 -2.5
v 13.7 15.4 -2.5
v 13.8 15.4 -2.5
v 13.8 15.5 -2.5
v 13.8 15.5 -2.6
v 13.8 15.4 -2.6
v 13.7 15.4 -2.6
v 13.7 15.5 -2.6
v 13.9 15.5 -2.5
v 13.9 15.4 -2.5
v 13.9 15.4 -2.6
v 13.9 15.5 -2.6
v 13.8 15.5 -2.6
v 13.8 15.5 -2.5
v 13.9 15.5 -2.5
v 13.9 15.5 -2.6
v 13.8 15.5 -2.5
v 13.8 15.4 -2.5
v 13.9 15.4 -2.5
v 13.9 15.5 -2.5
v 13.9 15.5 -2.6
v 13.9 15.4 -2.6
v 13.8 15.4 -2.6
v 13.8 15.5 -2.6
v 11.8 15.4 -2.6
v 11.8 15.3 -2.6
v 11.8 15.3 -2.5
v 11.8 15.4 -2.5
v 11.8 15.4 -2.6
v 11.8 15.4 -2.5
v 11.9 15.4 -2.5
v 11.9 15.4 -2.6
v 11.8 15.4 -2.5
v 11.8 15.3 -2.5
v 11.9 15.3 -2.5
v 11.9 15.4 -2.5
v 11.9 15.4 -2.6
v 11.9 15.3 -2.6
v 11.8 15.3 -2.6
v 11.8 15.4 -2.6
v 11.9 15.4 -2.6
v 11.9 15.4 -2.5
v 12 15.4 -2.5
v 12 15.4 -2.6
v 11.9 15.4 -2.5
v 11.9 15.3 -2.5
v 12 15.3 -2.5
v 12 15.4 -2.5
v 12 15.4 -2.6
v 12 15.3 -2.6
v 11.9 15.3 -2.6
v 11.9 15.4 -2.6
v 12 15.3 -2.5
v 12 15.3 -2.6
v 12.1 15.3 -2.6
v 12.1 15.3 -2.5
v 12 15.4 -2.5
v 12 15.3 -2.5
v 12.1 15.3 -2.5
v 12.1 15.4 -2.5
v 12.1 15.4 -2.6
v 12.1 15.3 -2.6
v 12 15.3 -2.6
v 12 15.4 -2.6
v 12.2 15.4 -2.5
v 12.2 15.3 -2.5
v 12.2 15.3 -2.6
v 12.2 15.4 -2.6
v 12.1 15.3 -2.5
v 12.1 15.3 -2.6
v 12.2 15.3 -2.6
v 12.2 15.3 -2.5
v 12.1 15.4 -2.5
v 12.1 15.3 -2.5
v 12.2 15.3 -2.5
v 12.2 15.4 -2.5
v 12.2 15.4 -2.6
v 12.2 15.3 -2.6
v 12.1 15.3 -2.6
v 12.1 15.4 -2.6
v 13.7 15.4 -2.6
v 13.7 15.3 -2.6
v 13.7 15.3 -2.5
v 13.7 15.4 -2.5
v 13.7 15.3 -2.5
v 13.7 15.3 -2.6
v 13.8 15.3 -2.6
v 13.8 15.3 -2.5
v 13.7 15.4 -2.5
v 13.7 15.3 -2.5
v 13.8 15.3 -2.5
v 13.8 15.4 -2.5
v 13.8 15.4 -2.6
v 13.8 15.3 -2.6
v 13.7 15.3 -2.6
v 13.7 15.4 -2.6
v 13.8 15.3 -2.5
v 13.8 15.3 -2.6
v 13.9 15.3 -2.6
v 13.9 15.3 -2.5
v 13.8 15.4 -2.5
v 13.8 15.3 -2.5
v 13.9 15.3 -2.5
v 13.9 15.4 -2.5
v 13.9 15.4 -2.6
v 13.9 15.3 -2.6
v 13.8 15.3 -2.6
v 13.8 15.4 -2.6
v 14 15.4 -2.5
v 14 15.3 -2.5
v 14 15.3 -2.6
v 14 15.4 -2.6
v 13.9 15.4 -2.6
v 13.9 15.4 -2.5
v 14 15.4 -2.5
v 14 15.4 -2.6
v 13.9 15.3 -2.5
v 13.9 15.3 -2.6
v 14 15.3 -2.6
v 14 15.3 -2.5
v 13.9 15.4 -2.5
v 13.9 15.3 -2.5
v 14 15.3 -2.5
v 14 15.4 -2.5
v 14 15.4 -2.6
v 14 15.3 -2.6
v 13.9 15.3 -2.6
v 13.9 15.4 -2.6
v 11.7 15.3 -2.6
v 11.7 15.2 -2.6
v 11.7 15.2 -2.5
v 11.7 15.3 -2.5
v 11.7 15.3 -2.6
v 11.7 15.3 -2.5
v 11.8 15.3 -2.5
v 11.8 15.3 -2.6
v 11.7 15.3 -2.5
v 11.7 15.2 -2.5
v 11.8 15.2 -2.5
v 11.8 15.3 -2.5
v 11.8 15.3 -2.6
v 11.8 15.2 -2.6
v 11.7 15.2 -2.6
v 11.7 15.3 -2.6
v 11.8 15.2 -2.5
v 11.8 15.2 -2.6
v 11.9 15.2 -2.6
v 11.9 15.2 -2.5
v 11.8 15.3 -2.5
v 11.8 15.2 -2.5
v 11.9 15.2 -2.5
v 11.9 15.3 -2.5
v 11.9 15.3 -2.6
v 11.9 15.2 -2.6
v 11.8 15.2 -2.6
v 11.8 15.3 -2.6
v 12 15.3 -2.5
v 12 15.2 -2.5
v 12 15.2 -2.6
v 12 15.3 -2.6
v 11.9 15.2 -2.5
v 11.9 15.2 -2.6
v 12 15.2 -2.6
v 12 15.2 -2.5
v 11.9 15.3 -2.5
v 11.9 15.2 -2.5
v 12 15.2 -2.5
v 12 15.3 -2.5
v 12 15.3 -2.6
v 12 15.2 -2.6
v 11.9 15.2 -2.6
v 11.9 15.3 -2.6
v 14 15.3 -2.6
v 14 15.2 -2.6
v 14 15.2 -2.5
v 14 15.3 -2.5
v 14 15.3 -2.6
v 14 15.3 -2.5
v 14.1 15.3 -2.5
v 14.1 15.3 -2.6
v 14 15.2 -2.5
v 14 15.2 -2.6
v 14.1 15.2 -2.6
v 14.1 15.2 -2.5
v 14 15.3 -2.5
v 14 15.2 -2.5
v 14.1 15.2 -2.5
v 14.1 15.3 -2.5
v 14.1 15.3 -2.6
v 14.1 15.2 -2.6
v 14 15.2 -2.6
v 14 15.3 -2.6
v 14.2 15.3 -2.5
v 14.2 15.2 -2.5
v 14.2 15.2 -2.6
v 14.2 15.3 -2.6
v 14.1 15.3 -2.6
v 14.1 15.3 -2.5
v 14.2 15.3 -2.5
v 14.2 15.3 -2.6
v 14.1 15.2 -2.5
v 14.1 15.2 -2.6
v 14.2 15.2 -2.6
v 14.2 15.2 -2.5
v 14.1 15.3 -2.5
v 14.1 15.2 -2.5
v 14.2 15.2 -2.5
v 14.2 15.3 -2.5
v 14.2 15.3 -2.6
v 14.2 15.2 -2.6
v 14.1 15.2 -2.6
v 14.1 15.3 -2.6
v 11.6 15.2 -2.6
v 11.6 15.1 -2.6
v 11.6 15.1 -2.5
v 11.6 15.2 -2.5
v 11.6 15.2 -2.6
v 11.6 15.2 -2.5
v 11.7 15.2 -2.5
v 11.7 15.2 -2.6
v 11.6 15.1 -2.5
v 11.6 15.1 -2.6
v 11.7 15.1 -2.6
v 11.7 15.1 -2.5
v 11.6 15.2 -2.5
v 11.6 15.1 -2.5
v 11.7 15.1 -2.5
v 11.7 15.2 -2.5
v 11.7 15.2 -2.6
v 11.7 15.1 -2.6
v 11.6 15.1 -2.6
v 11.6 15.2 -2.6
v 11.8 15.2 -2.5
v 11.8 15.1 -2.5
v 11.8 15.1 -2.6
v 11.8 15.2 -2.6
v 11.7 15.1 -2.5
v 11.7 15.1 -2.6
v 11.8 15.1 -2.6
v 11.8 15.1 -2.5
v 11.7 15.2 -2.5
v 11.7 15.1 -2.5
v 11.8 15.1 -2.5
v 11.8 15.2 -2.5
v 11.8 15.2 -2.6
v 11.8 15.1 -2.6
v 11.7 15.1 -2.6
v 11.7 15.2 -2.6
v 11.4 15.1 -2.6
v 11.4 15 -2.6
v 11.4 15 -2.5
v 11.4 15.1 -2.5
v 11.4 15.1 -2.6
v 11.4 15.1 -2.5
v 11.5 15.1 -2.5
v 11.5 15.1 -2.6
v 11.4 15 -2.5
v 11.4 15 -2.6
v 11.5 15 -2.6
v 11.5 15 -2.5
v 11.4 15.1 -2.5
v 11.4 15 -2.5
v 11.5 15 -2.5
v 11.5 15.1 -2.5
v 11.5 15.1 -2.6
v 11.5 15 -2.6
v 11.4 15 -2.6
v 11.4 15.1 -2.6
v 11.6 15.1 -2.5
v 11.6 15 -2.5
v 11.6 15 -2.6
v 11.6 15.1 -2.6
v 11.5 15.1 -2.6
v 11.5 15.1 -2.5
v 11.6 15.1 -2.5
v 11.6 15.1 -2.6
v 11.5 15 -2.5
v 11.5 15 -2.6
v 11.6 15 -2.6
v 11.6 15 -2.5
v 11.5 15.1 -2.5
v 11.5 15 -2.5
v 11.6 15 -2.5
v 11.6 15.1 -2.5
v 11.6 15.1 -2.6
v 11.6 15 -2.6
v 11.5 15 -2.6
v 11.5 15.1 -2.6
v 14.1 15.1 -2.6
v 14.1 15 -2.6
v 14.1 15 -2.5
v 14.1 15.1 -2.5
v 14.2 15.1 -2.5
v 14.2 15 -2.5
v 14.2 15 -2.6
v 14.2 15.1 -2.6
v 14.1 15.1 -2.6
v 14.1 15.1 -2.5
v 14.2 15.1 -2.5
v 14.2 15.1 -2.6
v 14.1 15 -2.5
v 14.1 15 -2.6
v 14.2 15 -2.6
v 14.2 15 -2.5
v 14.1 15.1 -2.5
v 14.1 15 -2.5
v 14.2 15 -2.5
v 14.2 15.1 -2.5
v 14.2 15.1 -2.6
v 14.2 15 -2.6
v 14.1 15 -2.6
v 14.1 15.1 -2.6
v 11.3 15 -2.6
v 11.3 14.9 -2.6
v 11.3 14.9 -2.5
v 11.3 15 -2.5
v 11.4 15 -2.5
v 11.4 14.9 -2.5
v 11.4 14.9 -2.6
v 11.4 15 -2.6
v 11.3 15 -2.6
v 11.3 15 -2.5
v 11.4 15 -2.5
v 11.4 15 -2.6
v 11.3 14.9 -2.5
v 11.3 14.9 -2.6
v 11.4 14.9 -2.6
v 11.4 14.9 -2.5
v 11.3 15 -2.5
v 11.3 14.9 -2.5
v 11.4 14.9 -2.5
v 11.4 15 -2.5
v 11.4 15 -2.6
v 11.4 14.9 -2.6
v 11.3 14.9 -2.6
v 11.3 15 -2.6
v 14.2 15 -2.6
v 14.2 14.9 -2.6
v 14.2 14.9 -2.5
v 14.2 15 -2.5
v 14.3 15 -2.5
v 14.3 14.9 -2.5
v 14.3 14.9 -2.6
v 14.3 15 -2.6
v 14.2 15 -2.6
v 14.2 15 -2.5
v 14.3 15 -2.5
v 14.3 15 -2.6
v 14.2 15 -2.5
v 14.2 14.9 -2.5
v 14.3 14.9 -2.5
v 14.3 15 -2.5
v 14.3 15 -2.6
v 14.3 14.9 -2.6
v 14.2 14.9 -2.6
v 14.2 15 -2.6
v 11.2 14.9 -2.6
v 11.2 14.8 -2.6
v 11.2 14.8 -2.5
v 11.2 14.9 -2.5
v 11.3 14.9 -2.5
v 11.3 14.8 -2.5
v 11.3 14.8 -2.6
v 11.3 14.9 -2.6
v 11.2 14.9 -2.6
v 11.2 14.9 -2.5
v 11.3 14.9 -2.5
v 11.3 14.9 -2.6
v 11.2 14.8 -2.5
v 11.2 14.8 -2.6
v 11.3 14.8 -2.6
v 11.3 14.8 -2.5
v 11.2 14.9 -2.5
v 11.2 14.8 -2.5
v 11.3 14.8 -2.5
v 11.3 14.9 -2.5
v 11.3 14.9 -2.6
v 11.3 14.8 -2.6
v 11.2 14.8 -2.6
v 11.2 14.9 -2.6
v 14.2 14.9 -2.6
v 14.2 14.8 -2.6
v 14.2 14.8 -2.5
v 14.2 14.9 -2.5
v 14.2 14.8 -2.5
v 14.2 14.8 -2.6
v 14.3 14.8 -2.6
v 14.3 14.8 -2.5
v 14.2 14.9 -2.5
v 14.2 14.8 -2.5
v 14.3 14.8 -2.5
v 14.3 14.9 -2.5
v 14.3 14.9 -2.6
v 14.3 14.8 -2.6
v 14.2 14.8 -2.6
v 14.2 14.9 -2.6
v 14.4 14.9 -2.5
v 14.4 14.8 -2.5
v 14.4 14.8 -2.6
v 14.4 14.9 -2.6
v 14.3 14.9 -2.6
v 14.3 14.9 -2.5
v 14.4 14.9 -2.5
v 14.4 14.9 -2.6
v 14.3 14.9 -2.5
v 14.3 14.8 -2.5
v 14.4 14.8 -2.5
v 14.4 14.9 -2.5
v 14.4 14.9 -2.6
v 14.4 14.8 -2.6
v 14.3 14.8 -2.6
v 14.3 14.9 -2.6
v 1.4 14.8 -2.6
v 1.4 14.7 -2.6
v 1.4 14.7 -2.5
v 1.4 14.8 -2.5
v 1.4 14.8 -2.6
v 1.4 14.8 -2.5
v 1.5 14.8 -2.5
v 1.5 14.8 -2.6
v 1.4 14.7 -2.5
v 1.4 14.7 -2.6
v 1.5 14.7 -2.6
v 1.5 14.7 -2.5
v 1.4 14.8 -2.5
v 1.4 14.7 -2.5
v 1.5 14.7 -2.5
v 1.5 14.8 -2.5
v 1.5 14.8 -2.6
v 1.5 14.7 -2.6
v 1.4 14.7 -2.6
v 1.4 14.8 -2.6
v 1.5 14.8 -2.6
v 1.5 14.8 -2.5
v 1.6 14.8 -2.5
v 1.6 14.8 -2.6
v 1.5 14.7 -2.5
v 1.5 14.7 -2.6
v 1.6 14.7 -2.6
v 1.6 14.7 -2.5
v 1.5 14.8 -2.5
v 1.5 14.7 -2.5
v 1.6 14.7 -2.5
v 1.6 14.8 -2.5
v 1.6 14.8 -2.6
v 1.6 14.7 -2.6
v 1.5 14.7 -2.6
v 1.5 14.8 -2.6
v 1.7 14.8 -2.5
v 1.7 14.7 -2.5
v 1.7 14.7 -2.6
v 1.7 14.8 -2.6
v 1.6 14.8 -2.6
v 1.6 14.8 -2.5
v 1.7 14.8 -2.5
v 1.7 14.8 -2.6
v 1.6 14.7 -2.5
v 1.6 14.7 -2.6
v 1.7 14.7 -2.6
v 1.7 14.7 -2.5
v 1.6 14.8 -2.5
v 1.6 14.7 -2.5
v 1.7 14.7 -2.5
v 1.7 14.8 -2.5
v 1.7 14.8 -2.6
v 1.7 14.7 -2.6
v 1.6 14.7 -2.6
v 1.6 14.8 -2.6
v 11.1 14.8 -2.6
v 11.1 14.7 -2.6
v 11.1 14.7 -2.5
v 11.1 14.8 -2.5
v 11.2 14.8 -2.5
v 11.2 14.7 -2.5
v 11.2 14.7 -2.6
v 11.2 14.8 -2.6
v 11.1 14.8 -2.6
v 11.1 14.8 -2.5
v 11.2 14.8 -2.5
v 11.2 14.8 -2.6
v 11.1 14.8 -2.5
v 11.1 14.7 -2.5
v 11.2 14.7 -2.5
v 11.2 14.8 -2.5
v 11.2 14.8 -2.6
v 11.2 14.7 -2.6
v 11.1 14.7 -2.6
v 11.1 14.8 -2.6
v 11.4 14.8 -2.6
v 11.4 14.7 -2.6
v 11.4 14.7 -2.5
v 11.4 14.8 -2.5
v 11.5 14.8 -2.5
v 11.5 14.7 -2.5
v 11.5 14.7 -2.6
v 11.5 14.8 -2.6
v 11.4 14.8 -2.6
v 11.4 14.8 -2.5
v 11.5 14.8 -2.5
v 11.5 14.8 -2.6
v 11.4 14.7 -2.5
v 11.4 14.7 -2.6
v 11.5 14.7 -2.6
v 11.5 14.7 -2.5
v 11.4 14.8 -2.5
v 11.4 14.7 -2.5
v 11.5 14.7 -2.5
v 11.5 14.8 -2.5
v 11.5 14.8 -2.6
v 11.5 14.7 -2.6
v 11.4 14.7 -2.6
v 11.4 14.8 -2.6
v 14.3 14.8 -2.6
v 14.3 14.7 -2.6
v 14.3 14.7 -2.5
v 14.3 14.8 -2.5
v 14.3 14.7 -2.5
v 14.3 14.7 -2.6
v 14.4 14.7 -2.6
v 14.4 14.7 -2.5
v 14.3 14.8 -2.5
v 14.3 14.7 -2.5
v 14.4 14.7 -2.5
v 14.4 14.8 -2.5
v 14.4 14.8 -2.6
v 14.4 14.7 -2.6
v 14.3 14.7 -2.6
v 14.3 14.8 -2.6
v 14.5 14.8 -2.5
v 14.5 14.7 -2.5
v 14.5 14.7 -2.6
v 14.5 14.8 -2.6
v 14.4 14.8 -2.6
v 14.4 14.8 -2.5
v 14.5 14.8 -2.5
v 14.5 14.8 -2.6
v 14.4 14.8 -2.5
v 14.4 14.7 -2.5
v 14.5 14.7 -2.5
v 14.5 14.8 -2.5
v 14.5 14.8 -2.6
v 14.5 14.7 -2.6
v 14.4 14.7 -2.6
v 14.4 14.8 -2.6
v 1.9 14.7 -2.6
v 1.9 14.6 -2.6
v 1.9 14.6 -2.5
v 1.9 14.7 -2.5
v 1.9 14.7 -2.6
v 1.9 14.7 -2.5
v 2 14.7 -2.5
v 2 14.7 -2.6
v 1.9 14.6 -2.5
v 1.9 14.6 -2.6
v 2 14.6 -2.6
v 2 14.6 -2.5
v 1.9 14.7 -2.5
v 1.9 14.6 -2.5
v 2 14.6 -2.5
v 2 14.7 -2.5
v 2 14.7 -2.6
v 2 14.6 -2.6
v 1.9 14.6 -2.6
v 1.9 14.7 -2.6
v 2.1 14.7 -2.5
v 2.1 14.6 -2.5
v 2.1 14.6 -2.6
v 2.1 14.7 -2.6
v 2 14.7 -2.6
v 2 14.7 -2.5
v 2.1 14.7 -2.5
v 2.1 14.7 -2.6
v 2 14.7 -2.5
v 2 14.6 -2.5
v 2.1 14.6 -2.5
v 2.1 14.7 -2.5
v 2.1 14.7 -2.6
v 2.1 14.6 -2.6
v 2 14.6 -2.6
v 2 14.7 -2.6
v 11.1 14.7 -2.6
v 11.1 14.6 -2.6
v 11.1 14.6 -2.5
v 11.1 14.7 -2.5
v 11.2 14.7 -2.5
v 11.2 14.6 -2.5
v 11.2 14.6 -2.6
v 11.2 14.7 -2.6
v 11.1 14.7 -2.5
v 11.1 14.6 -2.5
v 11.2 14.6 -2.5
v 11.2 14.7 -2.5
v 11.2 14.7 -2.6
v 11.2 14.6 -2.6
v 11.1 14.6 -2.6
v 11.1 14.7 -2.6
v 11.3 14.7 -2.6
v 11.3 14.6 -2.6
v 11.3 14.6 -2.5
v 11.3 14.7 -2.5
v 11.4 14.7 -2.5
v 11.4 14.6 -2.5
v 11.4 14.6 -2.6
v 11.4 14.7 -2.6
v 11.3 14.7 -2.6
v 11.3 14.7 -2.5
v 11.4 14.7 -2.5
v 11.4 14.7 -2.6
v 11.3 14.7 -2.5
v 11.3 14.6 -2.5
v 11.4 14.6 -2.5
v 11.4 14.7 -2.5
v 11.4 14.7 -2.6
v 11.4 14.6 -2.6
v 11.3 14.6 -2.6
v 11.3 14.7 -2.6
v 14.4 14.7 -2.6
v 14.4 14.6 -2.6
v 14.4 14.6 -2.5
v 14.4 14.7 -2.5
v 14.5 14.7 -2.5
v 14.5 14.6 -2.5
v 14.5 14.6 -2.6
v 14.5 14.7 -2.6
v 14.4 14.7 -2.5
v 14.4 14.6 -2.5
v 14.5 14.6 -2.5
v 14.5 14.7 -2.5
v 14.5 14.7 -2.6
v 14.5 14.6 -2.6
v 14.4 14.6 -2.6
v 14.4 14.7 -2.6
v 2 14.6 -2.6
v 2 14.5 -2.6
v 2 14.5 -2.5
v 2 14.6 -2.5
v 2 14.5 -2.5
v 2 14.5 -2.6
v 2.1 14.5 -2.6
v 2.1 14.5 -2.5
v 2 14.6 -2.5
v 2 14.5 -2.5
v 2.1 14.5 -2.5
v 2.1 14.6 -2.5
v 2.1 14.6 -2.6
v 2.1 14.5 -2.6
v 2 14.5 -2.6
v 2 14.6 -2.6
v 2.2 14.6 -2.5
v 2.2 14.5 -2.5
v 2.2 14.5 -2.6
v 2.2 14.6 -2.6
v 2.1 14.6 -2.6
v 2.1 14.6 -2.5
v 2.2 14.6 -2.5
v 2.2 14.6 -2.6
v 2.1 14.6 -2.5
v 2.1 14.5 -2.5
v 2.2 14.5 -2.5
v 2.2 14.6 -2.5
v 2.2 14.6 -2.6
v 2.2 14.5 -2.6
v 2.1 14.5 -2.6
v 2.1 14.6 -2.6
v 11.1 14.6 -2.6
v 11.1 14.5 -2.6
v 11.1 14.5 -2.5
v 11.1 14.6 -2.5
v 11.2 14.6 -2.5
v 11.2 14.5 -2.5
v 11.2 14.5 -2.6
v 11.2 14.6 -2.6
v 11.1 14.5 -2.5
v 11.1 14.5 -2.6
v 11.2 14.5 -2.6
v 11.2 14.5 -2.5
v 11.1 14.6 -2.5
v 11.1 14.5 -2.5
v 11.2 14.5 -2.5
v 11.2 14.6 -2.5
v 11.2 14.6 -2.6
v 11.2 14.5 -2.6
v 11.1 14.5 -2.6
v 11.1 14.6 -2.6
v 11.3 14.6 -2.6
v 11.3 14.5 -2.6
v 11.3 14.5 -2.5
v 11.3 14.6 -2.5
v 11.4 14.6 -2.5
v 11.4 14.5 -2.5
v 11.4 14.5 -2.6
v 11.4 14.6 -2.6
v 11.3 14.5 -2.5
v 11.3 14.5 -2.6
v 11.4 14.5 -2.6
v 11.4 14.5 -2.5
v 11.3 14.6 -2.5
v 11.3 14.5 -2.5
v 11.4 14.5 -2.5
v 11.4 14.6 -2.5
v 11.4 14.6 -2.6
v 11.4 14.5 -2.6
v 11.3 14.5 -2.6
v 11.3 14.6 -2.6
v 14.4 14.6 -2.6
v 14.4 14.5 -2.6
v 14.4 14.5 -2.5
v 14.4 14.6 -2.5
v 14.5 14.6 -2.5
v 14.5 14.5 -2.5
v 14.5 14.5 -2.6
v 14.5 14.6 -2.6
v 14.4 14.5 -2.5
v 14.4 14.5 -2.6
v 14.5 14.5 -2.6
v 14.5 14.5 -2.5
v 14.4 14.6 -2.5
v 14.4 14.5 -2.5
v 14.5 14.5 -2.5
v 14.5 14.6 -2.5
v 14.5 14.6 -2.6
v 14.5 14.5 -2.6
v 14.4 14.5 -2.6
v 14.4 14.6 -2.6
v 1.7 14.5 -2.6
v 1.7 14.4 -2.6
v 1.7 14.4 -2.5
v 1.7 14.5 -2.5
v 1.8 14.5 -2.5
v 1.8 14.4 -2.5
v 1.8 14.4 -2.6
v 1.8 14.5 -2.6
v 1.7 14.5 -2.6
v 1.7 14.5 -2.5
v 1.8 14.5 -2.5
v 1.8 14.5 -2.6
v 1.7 14.4 -2.5
v 1.7 14.4 -2.6
v 1.8 14.4 -2.6
v 1.8 14.4 -2.5
v 1.7 14.5 -2.5
v 1.7 14.4 -2.5
v 1.8 14.4 -2.5
v 1.8 14.5 -2.5
v 1.8 14.5 -2.6
v 1.8 14.4 -2.6
v 1.7 14.4 -2.6
v 1.7 14.5 -2.6
v 2.1 14.5 -2.6
v 2.1 14.4 -2.6
v 2.1 14.4 -2.5
v 2.1 14.5 -2.5
v 2.1 14.4 -2.5
v 2.1 14.4 -2.6
v 2.2 14.4 -2.6
v 2.2 14.4 -2.5
v 2.1 14.5 -2.5
v 2.1 14.4 -2.5
v 2.2 14.4 -2.5
v 2.2 14.5 -2.5
v 2.2 14.5 -2.6
v 2.2 14.4 -2.6
v 2.1 14.4 -2.6
v 2.1 14.5 -2.6
v 2.3 14.5 -2.5
v 2.3 14.4 -2.5
v 2.3 14.4 -2.6
v 2.3 14.5 -2.6
v 2.2 14.5 -2.6
v 2.2 14.5 -2.5
v 2.3 14.5 -2.5
v 2.3 14.5 -2.6
v 2.2 14.5 -2.5
v 2.2 14.4 -2.5
v 2.3 14.4 -2.5
v 2.3 14.5 -2.5
v 2.3 14.5 -2.6
v 2.3 14.4 -2.6
v 2.2 14.4 -2.6
v 2.2 14.5 -2.6
v 11.2 14.5 -2.6
v 11.2 14.4 -2.6
v 11.2 14.4 -2.5
v 11.2 14.5 -2.5
v 11.3 14.5 -2.5
v 11.3 14.4 -2.5
v 11.3 14.4 -2.6
v 11.3 14.5 -2.6
v 11.2 14.5 -2.6
v 11.2 14.5 -2.5
v 11.3 14.5 -2.5
v 11.3 14.5 -2.6
v 11.2 14.4 -2.5
v 11.2 14.4 -2.6
v 11.3 14.4 -2.6
v 11.3 14.4 -2.5
v 11.2 14.5 -2.5
v 11.2 14.4 -2.5
v 11.3 14.4 -2.5
v 11.3 14.5 -2.5
v 11.3 14.5 -2.6
v 11.3 14.4 -2.6
v 11.2 14.4 -2.6
v 11.2 14.5 -2.6
v 2.2 14.4 -2.6
v 2.2 14.3 -2.6
v 2.2 14.3 -2.5
v 2.2 14.4 -2.5
v 2.2 14.4 -2.5
v 2.2 14.3 -2.5
v 2.3 14.3 -2.5
v 2.3 14.4 -2.5
v 2.3 14.4 -2.6
v 2.3 14.3 -2.6
v 2.2 14.3 -2.6
v 2.2 14.4 -2.6
v 2.4 14.4 -2.5
v 2.4 14.3 -2.5
v 2.4 14.3 -2.6
v 2.4 14.4 -2.6
v 2.3 14.4 -2.6
v 2.3 14.4 -2.5
v 2.4 14.4 -2.5
v 2.4 14.4 -2.6
v 2.3 14.4 -2.5
v 2.3 14.3 -2.5
v 2.4 14.3 -2.5
v 2.4 14.4 -2.5
v 2.4 14.4 -2.6
v 2.4 14.3 -2.6
v 2.3 14.3 -2.6
v 2.3 14.4 -2.6
v 11.1 14.4 -2.6
v 11.1 14.3 -2.6
v 11.1 14.3 -2.5
v 11.1 14.4 -2.5
v 11.2 14.4 -2.5
v 11.2 14.3 -2.5
v 11.2 14.3 -2.6
v 11.2 14.4 -2.6
v 11.1 14.4 -2.6
v 11.1 14.4 -2.5
v 11.2 14.4 -2.5
v 11.2 14.4 -2.6
v 11.1 14.3 -2.5
v 11.1 14.3 -2.6
v 11.2 14.3 -2.6
v 11.2 14.3 -2.5
v 11.1 14.4 -2.5
v 11.1 14.3 -2.5
v 11.2 14.3 -2.5
v 11.2 14.4 -2.5
v 11.2 14.4 -2.6
v 11.2 14.3 -2.6
v 11.1 14.3 -2.6
v 11.1 14.4 -2.6
v 2.2 14.3 -2.6
v 2.2 14.2 -2.6
v 2.2 14.2 -2.5
v 2.2 14.3 -2.5
v 2.2 14.2 -2.5
v 2.2 14.2 -2.6
v 2.3 14.2 -2.6
v 2.3 14.2 -2.5
v 2.2 14.3 -2.5
v 2.2 14.2 -2.5
v 2.3 14.2 -2.5
v 2.3 14.3 -2.5
v 2.3 14.3 -2.6
v 2.3 14.2 -2.6
v 2.2 14.2 -2.6
v 2.2 14.3 -2.6
v 2.4 14.3 -2.5
v 2.4 14.2 -2.5
v 2.4 14.2 -2.6
v 2.4 14.3 -2.6
v 2.3 14.3 -2.5
v 2.3 14.2 -2.5
v 2.4 14.2 -2.5
v 2.4 14.3 -2.5
v 2.4 14.3 -2.6
v 2.4 14.2 -2.6
v 2.3 14.2 -2.6
v 2.3 14.3 -2.6
v 11.2 14.3 -2.6
v 11.2 14.2 -2.6
v 11.2 14.2 -2.5
v 11.2 14.3 -2.5
v 11.3 14.3 -2.5
v 11.3 14.2 -2.5
v 11.3 14.2 -2.6
v 11.3 14.3 -2.6
v 11.2 14.3 -2.6
v 11.2 14.3 -2.5
v 11.3 14.3 -2.5
v 11.3 14.3 -2.6
v 11.2 14.2 -2.5
v 11.2 14.2 -2.6
v 11.3 14.2 -2.6
v 11.3 14.2 -2.5
v 11.2 14.3 -2.5
v 11.2 14.2 -2.5
v 11.3 14.2 -2.5
v 11.3 14.3 -2.5
v 11.3 14.3 -2.6
v 11.3 14.2 -2.6
v 11.2 14.2 -2.6
v 11.2 14.3 -2.6
v 2.3 14.2 -2.6
v 2.3 14.1 -2.6
v 2.3 14.1 -2.5
v 2.3 14.2 -2.5
v 2.3 14.2 -2.5
v 2.3 14.1 -2.5
v 2.4 14.1 -2.5
v 2.4 14.2 -2.5
v 2.4 14.2 -2.6
v 2.4 14.1 -2.6
v 2.3 14.1 -2.6
v 2.3 14.2 -2.6
v 2.5 14.2 -2.5
v 2.5 14.1 -2.5
v 2.5 14.1 -2.6
v 2.5 14.2 -2.6
v 2.4 14.2 -2.6
v 2.4 14.2 -2.5
v 2.5 14.2 -2.5
v 2.5 14.2 -2.6
v 2.4 14.2 -2.5
v 2.4 14.1 -2.5
v 2.5 14.1 -2.5
v 2.5 14.2 -2.5
v 2.5 14.2 -2.6
v 2.5 14.1 -2.6
v 2.4 14.1 -2.6
v 2.4 14.2 -2.6
v 2.8 14.2 -2.6
v 2.8 14.1 -2.6
v 2.8 14.1 -2.5
v 2.8 14.2 -2.5
v 2.9 14.2 -2.5
v 2.9 14.1 -2.5
v 2.9 14.1 -2.6
v 2.9 14.2 -2.6
v 2.8 14.2 -2.6
v 2.8 14.2 -2.5
v 2.9 14.2 -2.5
v 2.9 14.2 -2.6
v 2.8 14.1 -2.5
v 2.8 14.1 -2.6
v 2.9 14.1 -2.6
v 2.9 14.1 -2.5
v 2.8 14.2 -2.5
v 2.8 14.1 -2.5
v 2.9 14.1 -2.5
v 2.9 14.2 -2.5
v 2.9 14.2 -2.6
v 2.9 14.1 -2.6
v 2.8 14.1 -2.6
v 2.8 14.2 -2.6
v 2.3 14.1 -2.6
v 2.3 14 -2.6
v 2.3 14 -2.5
v 2.3 14.1 -2.5
v 2.3 14 -2.5
v 2.3 14 -2.6
v 2.4 14 -2.6
v 2.4 14 -2.5
v 2.3 14.1 -2.5
v 2.3 14 -2.5
v 2.4 14 -2.5
v 2.4 14.1 -2.5
v 2.4 14.1 -2.6
v 2.4 14 -2.6
v 2.3 14 -2.6
v 2.3 14.1 -2.6
v 2.5 14.1 -2.5
v 2.5 14 -2.5
v 2.5 14 -2.6
v 2.5 14.1 -2.6
v 2.4 14.1 -2.5
v 2.4 14 -2.5
v 2.5 14 -2.5
v 2.5 14.1 -2.5
v 2.5 14.1 -2.6
v 2.5 14 -2.6
v 2.4 14 -2.6
v 2.4 14.1 -2.6
v 11.1 14.1 -2.6
v 11.1 14 -2.6
v 11.1 14 -2.5
v 11.1 14.1 -2.5
v 11.2 14.1 -2.5
v 11.2 14 -2.5
v 11.2 14 -2.6
v 11.2 14.1 -2.6
v 11.1 14.1 -2.6
v 11.1 14.1 -2.5
v 11.2 14.1 -2.5
v 11.2 14.1 -2.6
v 11.1 14.1 -2.5
v 11.1 14 -2.5
v 11.2 14 -2.5
v 11.2 14.1 -2.5
v 11.2 14.1 -2.6
v 11.2 14 -2.6
v 11.1 14 -2.6
v 11.1 14.1 -2.6
v 2.4 14 -2.6
v 2.4 13.9 -2.6
v 2.4 13.9 -2.5
v 2.4 14 -2.5
v 2.5 14 -2.5
v 2.5 13.9 -2.5
v 2.5 13.9 -2.6
v 2.5 14 -2.6
v 2.4 14 -2.5
v 2.4 13.9 -2.5
v 2.5 13.9 -2.5
v 2.5 14 -2.5
v 2.5 14 -2.6
v 2.5 13.9 -2.6
v 2.4 13.9 -2.6
v 2.4 14 -2.6
v 11.1 14 -2.6
v 11.1 13.9 -2.6
v 11.1 13.9 -2.5
v 11.1 14 -2.5
v 11.2 14 -2.5
v 11.2 13.9 -2.5
v 11.2 13.9 -2.6
v 11.2 14 -2.6
v 11.1 13.9 -2.5
v 11.1 13.9 -2.6
v 11.2 13.9 -2.6
v 11.2 13.9 -2.5
v 11.1 14 -2.5
v 11.1 13.9 -2.5
v 11.2 13.9 -2.5
v 11.2 14 -2.5
v 11.2 14 -2.6
v 11.2 13.9 -2.6
v 11.1 13.9 -2.6
v 11.1 14 -2.6
v 2.4 13.9 -2.6
v 2.4 13.8 -2.6
v 2.4 13.8 -2.5
v 2.4 13.9 -2.5
v 2.5 13.9 -2.5
v 2.5 13.8 -2.5
v 2.5 13.8 -2.6
v 2.5 13.9 -2.6
v 2.4 13.9 -2.5
v 2.4 13.8 -2.5
v 2.5 13.8 -2.5
v 2.5 13.9 -2.5
v 2.5 13.9 -2.6
v 2.5 13.8 -2.6
v 2.4 13.8 -2.6
v 2.4 13.9 -2.6
v 2.3 13.8 -2.6
v 2.3 13.7 -2.6
v 2.3 13.7 -2.5
v 2.3 13.8 -2.5
v 2.3 13.8 -2.6
v 2.3 13.8 -2.5
v 2.4 13.8 -2.5
v 2.4 13.8 -2.6
v 2.3 13.8 -2.5
v 2.3 13.7 -2.5
v 2.4 13.7 -2.5
v 2.4 13.8 -2.5
v 2.4 13.8 -2.6
v 2.4 13.7 -2.6
v 2.3 13.7 -2.6
v 2.3 13.8 -2.6
v 2.5 13.8 -2.5
v 2.5 13.7 -2.5
v 2.5 13.7 -2.6
v 2.5 13.8 -2.6
v 2.4 13.8 -2.5
v 2.4 13.7 -2.5
v 2.5 13.7 -2.5
v 2.5 13.8 -2.5
v 2.5 13.8 -2.6
v 2.5 13.7 -2.6
v 2.4 13.7 -2.6
v 2.4 13.8 -2.6
v 2.3 13.7 -2.6
v 2.3 13.6 -2.6
v 2.3 13.6 -2.5
v 2.3 13.7 -2.5
v 2.3 13.7 -2.5
v 2.3 13.6 -2.5
v 2.4 13.6 -2.5
v 2.4 13.7 -2.5
v 2.4 13.7 -2.6
v 2.4 13.6 -2.6
v 2.3 13.6 -2.6
v 2.3 13.7 -2.6
v 2.5 13.7 -2.5
v 2.5 13.6 -2.5
v 2.5 13.6 -2.6
v 2.5 13.7 -2.6
v 2.4 13.7 -2.5
v 2.4 13.6 -2.5
v 2.5 13.6 -2.5
v 2.5 13.7 -2.5
v 2.5 13.7 -2.6
v 2.5 13.6 -2.6
v 2.4 13.6 -2.6
v 2.4 13.7 -2.6
v 2.3 13.6 -2.6
v 2.3 13.5 -2.6
v 2.3 13.5 -2.5
v 2.3 13.6 -2.5
v 2.3 13.6 -2.5
v 2.3 13.5 -2.5
v 2.4 13.5 -2.5
v 2.4 13.6 -2.5
v 2.4 13.6 -2.6
v 2.4 13.5 -2.6
v 2.3 13.5 -2.6
v 2.3 13.6 -2.6
v 2.5 13.6 -2.5
v 2.5 13.5 -2.5
v 2.5 13.5 -2.6
v 2.5 13.6 -2.6
v 2.4 13.5 -2.5
v 2.4 13.5 -2.6
v 2.5 13.5 -2.6
v 2.5 13.5 -2.5
v 2.4 13.6 -2.5
v 2.4 13.5 -2.5
v 2.5 13.5 -2.5
v 2.5 13.6 -2.5
v 2.5 13.6 -2.6
v 2.5 13.5 -2.6
v 2.4 13.5 -2.6
v 2.4 13.6 -2.6
v 2.3 13.5 -2.6
v 2.3 13.4 -2.6
v 2.3 13.4 -2.5
v 2.3 13.5 -2.5
v 2.4 13.5 -2.5
v 2.4 13.4 -2.5
v 2.4 13.4 -2.6
v 2.4 13.5 -2.6
v 2.3 13.5 -2.5
v 2.3 13.4 -2.5
v 2.4 13.4 -2.5
v 2.4 13.5 -2.5
v 2.4 13.5 -2.6
v 2.4 13.4 -2.6
v 2.3 13.4 -2.6
v 2.3 13.5 -2.6
v 2.3 13.4 -2.6
v 2.3 13.3 -2.6
v 2.3 13.3 -2.5
v 2.3 13.4 -2.5
v 2.4 13.4 -2.5
v 2.4 13.3 -2.5
v 2.4 13.3 -2.6
v 2.4 13.4 -2.6
v 2.3 13.3 -2.5
v 2.3 13.3 -2.6
v 2.4 13.3 -2.6
v 2.4 13.3 -2.5
v 2.3 13.4 -2.5
v 2.3 13.3 -2.5
v 2.4 13.3 -2.5
v 2.4 13.4 -2.5
v 2.4 13.4 -2.6
v 2.4 13.3 -2.6
v 2.3 13.3 -2.6
v 2.3 13.4 -2.6
v 23.6 8.2 -2.6
v 23.6 8.1 -2.6
v 23.6 8.1 -2.5
v 23.6 8.2 -2.5
v 23.7 8.2 -2.5
v 23.7 8.1 -2.5
v 23.7 8.1 -2.6
v 23.7 8.2 -2.6
v 23.6 8.2 -2.6
v 23.6 8.2 -2.5
v 23.7 8.2 -2.5
v 23.7 8.2 -2.6
v 23.6 8.2 -2.5
v 23.6 8.1 -2.5
v 23.7 8.1 -2.5
v 23.7 8.2 -2.5
v 23.7 8.2 -2.6
v 23.7 8.1 -2.6
v 23.6 8.1 -2.6
v 23.6 8.2 -2.6
v 23.6 8.1 -2.6
v 23.6 8 -2.6
v 23.6 8 -2.5
v 23.6 8.1 -2.5
v 23.7 8.1 -2.5
v 23.7 8 -2.5
v 23.7 8 -2.6
v 23.7 8.1 -2.6
v 23.6 8.1 -2.5
v 23.6 8 -2.5
v 23.7 8 -2.5
v 23.7 8.1 -2.5
v 23.7 8.1 -2.6
v 23.7 8 -2.6
v 23.6 8 -2.6
v 23.6 8.1 -2.6
v 23.6 8 -2.6
v 23.6 7.9 -2.6
v 23.6 7.9 -2.5
v 23.6 8 -2.5
v 23.7 8 -2.5
v 23.7 7.9 -2.5
v 23.7 7.9 -2.6
v 23.7 8 -2.6
v 23.6 8 -2.5
v 23.6 7.9 -2.5
v 23.7 7.9 -2.5
v 23.7 8 -2.5
v 23.7 8 -2.6
v 23.7 7.9 -2.6
v 23.6 7.9 -2.6
v 23.6 8 -2.6
v 24.3 8 -2.6
v 24.3 7.9 -2.6
v 24.3 7.9 -2.5
v 24.3 8 -2.5
v 24.4 8 -2.5
v 24.4 7.9 -2.5
v 24.4 7.9 -2.6
v 24.4 8 -2.6
v 24.3 8 -2.6
v 24.3 8 -2.5
v 24.4 8 -2.5
v 24.4 8 -2.6
v 24.3 8 -2.5
v 24.3 7.9 -2.5
v 24.4 7.9 -2.5
v 24.4 8 -2.5
v 24.4 8 -2.6
v 24.4 7.9 -2.6
v 24.3 7.9 -2.6
v 24.3 8 -2.6
v 23.6 7.9 -2.6
v 23.6 7.8 -2.6
v 23.6 7.8 -2.5
v 23.6 7.9 -2.5
v 23.7 7.9 -2.5
v 23.7 7.8 -2.5
v 23.7 7.8 -2.6
v 23.7 7.9 -2.6
v 23.6 7.9 -2.5
v 23.6 7.8 -2.5
v 23.7 7.8 -2.5
v 23.7 7.9 -2.5
v 23.7 7.9 -2.6
v 23.7 7.8 -2.6
v 23.6 7.8 -2.6
v 23.6 7.9 -2.6
v 24.3 7.9 -2.6
v 24.3 7.8 -2.6
v 24.3 7.8 -2.5
v 24.3 7.9 -2.5
v 24.4 7.9 -2.5
v 24.4 7.8 -2.5
v 24.4 7.8 -2.6
v 24.4 7.9 -2.6
v 24.3 7.9 -2.5
v 24.3 7.8 -2.5
v 24.4 7.8 -2.5
v 24.4 7.9 -2.5
v 24.4 7.9 -2.6
v 24.4 7.8 -2.6
v 24.3 7.8 -2.6
v 24.3 7.9 -2.6
v 23.6 7.8 -2.6
v 23.6 7.7 -2.6
v 23.6 7.7 -2.5
v 23.6 7.8 -2.5
v 23.6 7.8 -2.5
v 23.6 7.7 -2.5
v 23.7 7.7 -2.5
v 23.7 7.8 -2.5
v 23.7 7.8 -2.6
v 23.7 7.7 -2.6
v 23.6 7.7 -2.6
v 23.6 7.8 -2.6
v 23.8 7.8 -2.5
v 23.8 7.7 -2.5
v 23.8 7.7 -2.6
v 23.8 7.8 -2.6
v 23.7 7.8 -2.6
v 23.7 7.8 -2.5
v 23.8 7.8 -2.5
v 23.8 7.8 -2.6
v 23.7 7.8 -2.5
v 23.7 7.7 -2.5
v 23.8 7.7 -2.5
v 23.8 7.8 -2.5
v 23.8 7.8 -2.6
v 23.8 7.7 -2.6
v 23.7 7.7 -2.6
v 23.7 7.8 -2.6
v 24.3 7.8 -2.6
v 24.3 7.7 -2.6
v 24.3 7.7 -2.5
v 24.3 7.8 -2.5
v 24.4 7.8 -2.5
v 24.4 7.7 -2.5
v 24.4 7.7 -2.6
v 24.4 7.8 -2.6
v 24.3 7.8 -2.5
v 24.3 7.7 -2.5
v 24.4 7.7 -2.5
v 24.4 7.8 -2.5
v 24.4 7.8 -2.6
v 24.4 7.7 -2.6
v 24.3 7.7 -2.6
v 24.3 7.8 -2.6
v 23.6 7.7 -2.6
v 23.6 7.6 -2.6
v 23.6 7.6 -2.5
v 23.6 7.7 -2.5
v 23.6 7.7 -2.5
v 23.6 7.6 -2.5
v 23.7 7.6 -2.5
v 23.7 7.7 -2.5
v 23.7 7.7 -2.6
v 23.7 7.6 -2.6
v 23.6 7.6 -2.6
v 23.6 7.7 -2.6
v 23.8 7.7 -2.5
v 23.8 7.6 -2.5
v 23.8 7.6 -2.6
v 23.8 7.7 -2.6
v 23.7 7.7 -2.5
v 23.7 7.6 -2.5
v 23.8 7.6 -2.5
v 23.8 7.7 -2.5
v 23.8 7.7 -2.6
v 23.8 7.6 -2.6
v 23.7 7.6 -2.6
v 23.7 7.7 -2.6
v 24.3 7.7 -2.6
v 24.3 7.6 -2.6
v 24.3 7.6 -2.5
v 24.3 7.7 -2.5
v 24.4 7.7 -2.5
v 24.4 7.6 -2.5
v 24.4 7.6 -2.6
v 24.4 7.7 -2.6
v 24.3 7.7 -2.5
v 24.3 7.6 -2.5
v 24.4 7.6 -2.5
v 24.4 7.7 -2.5
v 24.4 7.7 -2.6
v 24.4 7.6 -2.6
v 24.3 7.6 -2.6
v 24.3 7.7 -2.6
v 23.5 7.6 -2.6
v 23.5 7.5 -2.6
v 23.5 7.5 -2.5
v 23.5 7.6 -2.5
v 23.5 7.6 -2.6
v 23.5 7.6 -2.5
v 23.6 7.6 -2.5
v 23.6 7.6 -2.6
v 23.5 7.6 -2.5
v 23.5 7.5 -2.5
v 23.6 7.5 -2.5
v 23.6 7.6 -2.5
v 23.6 7.6 -2.6
v 23.6 7.5 -2.6
v 23.5 7.5 -2.6
v 23.5 7.6 -2.6
v 23.6 7.6 -2.5
v 23.6 7.5 -2.5
v 23.7 7.5 -2.5
v 23.7 7.6 -2.5
v 23.7 7.6 -2.6
v 23.7 7.5 -2.6
v 23.6 7.5 -2.6
v 23.6 7.6 -2.6
v 23.8 7.6 -2.5
v 23.8 7.5 -2.5
v 23.8 7.5 -2.6
v 23.8 7.6 -2.6
v 23.7 7.6 -2.5
v 23.7 7.5 -2.5
v 23.8 7.5 -2.5
v 23.8 7.6 -2.5
v 23.8 7.6 -2.6
v 23.8 7.5 -2.6
v 23.7 7.5 -2.6
v 23.7 7.6 -2.6
v 24.2 7.6 -2.6
v 24.2 7.5 -2.6
v 24.2 7.5 -2.5
v 24.2 7.6 -2.5
v 24.2 7.6 -2.6
v 24.2 7.6 -2.5
v 24.3 7.6 -2.5
v 24.3 7.6 -2.6
v 24.2 7.6 -2.5
v 24.2 7.5 -2.5
v 24.3 7.5 -2.5
v 24.3 7.6 -2.5
v 24.3 7.6 -2.6
v 24.3 7.5 -2.6
v 24.2 7.5 -2.6
v 24.2 7.6 -2.6
v 24.4 7.6 -2.5
v 24.4 7.5 -2.5
v 24.4 7.5 -2.6
v 24.4 7.6 -2.6
v 24.3 7.6 -2.5
v 24.3 7.5 -2.5
v 24.4 7.5 -2.5
v 24.4 7.6 -2.5
v 24.4 7.6 -2.6
v 24.4 7.5 -2.6
v 24.3 7.5 -2.6
v 24.3 7.6 -2.6
v 23.5 7.5 -2.6
v 23.5 7.4 -2.6
v 23.5 7.4 -2.5
v 23.5 7.5 -2.5
v 23.5 7.5 -2.5
v 23.5 7.4 -2.5
v 23.6 7.4 -2.5
v 23.6 7.5 -2.5
v 23.6 7.5 -2.6
v 23.6 7.4 -2.6
v 23.5 7.4 -2.6
v 23.5 7.5 -2.6
v 23.6 7.5 -2.5
v 23.6 7.4 -2.5
v 23.7 7.4 -2.5
v 23.7 7.5 -2.5
v 23.7 7.5 -2.6
v 23.7 7.4 -2.6
v 23.6 7.4 -2.6
v 23.6 7.5 -2.6
v 23.8 7.5 -2.5
v 23.8 7.4 -2.5
v 23.8 7.4 -2.6
v 23.8 7.5 -2.6
v 23.7 7.5 -2.5
v 23.7 7.4 -2.5
v 23.8 7.4 -2.5
v 23.8 7.5 -2.5
v 23.8 7.5 -2.6
v 23.8 7.4 -2.6
v 23.7 7.4 -2.6
v 23.7 7.5 -2.6
v 24.2 7.5 -2.6
v 24.2 7.4 -2.6
v 24.2 7.4 -2.5
v 24.2 7.5 -2.5
v 24.2 7.5 -2.5
v 24.2 7.4 -2.5
v 24.3 7.4 -2.5
v 24.3 7.5 -2.5
v 24.3 7.5 -2.6
v 24.3 7.4 -2.6
v 24.2 7.4 -2.6
v 24.2 7.5 -2.6
v 24.4 7.5 -2.5
v 24.4 7.4 -2.5
v 24.4 7.4 -2.6
v 24.4 7.5 -2.6
v 24.3 7.5 -2.5
v 24.3 7.4 -2.5
v 24.4 7.4 -2.5
v 24.4 7.5 -2.5
v 24.4 7.5 -2.6
v 24.4 7.4 -2.6
v 24.3 7.4 -2.6
v 24.3 7.5 -2.6
v 23.5 7.4 -2.6
v 23.5 7.3 -2.6
v 23.5 7.3 -2.5
v 23.5 7.4 -2.5
v 23.5 7.4 -2.5
v 23.5 7.3 -2.5
v 23.6 7.3 -2.5
v 23.6 7.4 -2.5
v 23.6 7.4 -2.6
v 23.6 7.3 -2.6
v 23.5 7.3 -2.6
v 23.5 7.4 -2.6
v 23.6 7.4 -2.5
v 23.6 7.3 -2.5
v 23.7 7.3 -2.5
v 23.7 7.4 -2.5
v 23.7 7.4 -2.6
v 23.7 7.3 -2.6
v 23.6 7.3 -2.6
v 23.6 7.4 -2.6
v 23.8 7.4 -2.5
v 23.8 7.3 -2.5
v 23.8 7.3 -2.6
v 23.8 7.4 -2.6
v 23.7 7.4 -2.5
v 23.7 7.3 -2.5
v 23.8 7.3 -2.5
v 23.8 7.4 -2.5
v 23.8 7.4 -2.6
v 23.8 7.3 -2.6
v 23.7 7.3 -2.6
v 23.7 7.4 -2.6
v 24.2 7.4 -2.6
v 24.2 7.3 -2.6
v 24.2 7.3 -2.5
v 24.2 7.4 -2.5
v 24.2 7.4 -2.5
v 24.2 7.3 -2.5
v 24.3 7.3 -2.5
v 24.3 7.4 -2.5
v 24.3 7.4 -2.6
v 24.3 7.3 -2.6
v 24.2 7.3 -2.6
v 24.2 7.4 -2.6
v 24.4 7.4 -2.5
v 24.4 7.3 -2.5
v 24.4 7.3 -2.6
v 24.4 7.4 -2.6
v 24.3 7.4 -2.5
v 24.3 7.3 -2.5
v 24.4 7.3 -2.5
v 24.4 7.4 -2.5
v 24.4 7.4 -2.6
v 24.4 7.3 -2.6
v 24.3 7.3 -2.6
v 24.3 7.4 -2.6
v 23.4 7.3 -2.6
v 23.4 7.2 -2.6
v 23.4 7.2 -2.5
v 23.4 7.3 -2.5
v 23.4 7.3 -2.6
v 23.4 7.3 -2.5
v 23.5 7.3 -2.5
v 23.5 7.3 -2.6
v 23.4 7.3 -2.5
v 23.4 7.2 -2.5
v 23.5 7.2 -2.5
v 23.5 7.3 -2.5
v 23.5 7.3 -2.6
v 23.5 7.2 -2.6
v 23.4 7.2 -2.6
v 23.4 7.3 -2.6
v 23.5 7.3 -2.5
v 23.5 7.2 -2.5
v 23.6 7.2 -2.5
v 23.6 7.3 -2.5
v 23.6 7.3 -2.6
v 23.6 7.2 -2.6
v 23.5 7.2 -2.6
v 23.5 7.3 -2.6
v 23.6 7.3 -2.5
v 23.6 7.2 -2.5
v 23.7 7.2 -2.5
v 23.7 7.3 -2.5
v 23.7 7.3 -2.6
v 23.7 7.2 -2.6
v 23.6 7.2 -2.6
v 23.6 7.3 -2.6
v 23.8 7.3 -2.5
v 23.8 7.2 -2.5
v 23.8 7.2 -2.6
v 23.8 7.3 -2.6
v 23.7 7.3 -2.5
v 23.7 7.2 -2.5
v 23.8 7.2 -2.5
v 23.8 7.3 -2.5
v 23.8 7.3 -2.6
v 23.8 7.2 -2.6
v 23.7 7.2 -2.6
v 23.7 7.3 -2.6
v 24.2 7.3 -2.6
v 24.2 7.2 -2.6
v 24.2 7.2 -2.5
v 24.2 7.3 -2.5
v 24.2 7.3 -2.5
v 24.2 7.2 -2.5
v 24.3 7.2 -2.5
v 24.3 7.3 -2.5
v 24.3 7.3 -2.6
v 24.3 7.2 -2.6
v 24.2 7.2 -2.6
v 24.2 7.3 -2.6
v 24.4 7.3 -2.5
v 24.4 7.2 -2.5
v 24.4 7.2 -2.6
v 24.4 7.3 -2.6
v 24.3 7.3 -2.5
v 24.3 7.2 -2.5
v 24.4 7.2 -2.5
v 24.4 7.3 -2.5
v 24.4 7.3 -2.6
v 24.4 7.2 -2.6
v 24.3 7.2 -2.6
v 24.3 7.3 -2.6
v 23.4 7.2 -2.6
v 23.4 7.1 -2.6
v 23.4 7.1 -2.5
v 23.4 7.2 -2.5
v 23.4 7.2 -2.5
v 23.4 7.1 -2.5
v 23.5 7.1 -2.5
v 23.5 7.2 -2.5
v 23.5 7.2 -2.6
v 23.5 7.1 -2.6
v 23.4 7.1 -2.6
v 23.4 7.2 -2.6
v 23.5 7.2 -2.5
v 23.5 7.1 -2.5
v 23.6 7.1 -2.5
v 23.6 7.2 -2.5
v 23.6 7.2 -2.6
v 23.6 7.1 -2.6
v 23.5 7.1 -2.6
v 23.5 7.2 -2.6
v 23.6 7.2 -2.5
v 23.6 7.1 -2.5
v 23.7 7.1 -2.5
v 23.7 7.2 -2.5
v 23.7 7.2 -2.6
v 23.7 7.1 -2.6
v 23.6 7.1 -2.6
v 23.6 7.2 -2.6
v 23.8 7.2 -2.5
v 23.8 7.1 -2.5
v 23.8 7.1 -2.6
v 23.8 7.2 -2.6
v 23.7 7.2 -2.5
v 23.7 7.1 -2.5
v 23.8 7.1 -2.5
v 23.8 7.2 -2.5
v 23.8 7.2 -2.6
v 23.8 7.1 -2.6
v 23.7 7.1 -2.6
v 23.7 7.2 -2.6
v 24.2 7.2 -2.6
v 24.2 7.1 -2.6
v 24.2 7.1 -2.5
v 24.2 7.2 -2.5
v 24.2 7.2 -2.5
v 24.2 7.1 -2.5
v 24.3 7.1 -2.5
v 24.3 7.2 -2.5
v 24.3 7.2 -2.6
v 24.3 7.1 -2.6
v 24.2 7.1 -2.6
v 24.2 7.2 -2.6
v 24.3 7.2 -2.5
v 24.3 7.1 -2.5
v 24.4 7.1 -2.5
v 24.4 7.2 -2.5
v 24.4 7.2 -2.6
v 24.4 7.1 -2.6
v 24.3 7.1 -2.6
v 24.3 7.2 -2.6
v 24.5 7.2 -2.5
v 24.5 7.1 -2.5
v 24.5 7.1 -2.6
v 24.5 7.2 -2.6
v 24.4 7.2 -2.6
v 24.4 7.2 -2.5
v 24.5 7.2 -2.5
v 24.5 7.2 -2.6
v 24.4 7.2 -2.5
v 24.4 7.1 -2.5
v 24.5 7.1 -2.5
v 24.5 7.2 -2.5
v 24.5 7.2 -2.6
v 24.5 7.1 -2.6
v 24.4 7.1 -2.6
v 24.4 7.2 -2.6
v 23.4 7.1 -2.6
v 23.4 7 -2.6
v 23.4 7 -2.5
v 23.4 7.1 -2.5
v 23.4 7.1 -2.5
v 23.4 7 -2.5
v 23.5 7 -2.5
v 23.5 7.1 -2.5
v 23.5 7.1 -2.6
v 23.5 7 -2.6
v 23.4 7 -2.6
v 23.4 7.1 -2.6
v 23.5 7.1 -2.5
v 23.5 7 -2.5
v 23.6 7 -2.5
v 23.6 7.1 -2.5
v 23.6 7.1 -2.6
v 23.6 7 -2.6
v 23.5 7 -2.6
v 23.5 7.1 -2.6
v 23.6 7 -2.5
v 23.6 7 -2.6
v 23.7 7 -2.6
v 23.7 7 -2.5
v 23.6 7.1 -2.5
v 23.6 7 -2.5
v 23.7 7 -2.5
v 23.7 7.1 -2.5
v 23.7 7.1 -2.6
v 23.7 7 -2.6
v 23.6 7 -2.6
v 23.6 7.1 -2.6
v 23.7 7.1 -2.5
v 23.7 7 -2.5
v 23.8 7 -2.5
v 23.8 7.1 -2.5
v 23.8 7.1 -2.6
v 23.8 7 -2.6
v 23.7 7 -2.6
v 23.7 7.1 -2.6
v 23.9 7.1 -2.5
v 23.9 7 -2.5
v 23.9 7 -2.6
v 23.9 7.1 -2.6
v 23.8 7.1 -2.6
v 23.8 7.1 -2.5
v 23.9 7.1 -2.5
v 23.9 7.1 -2.6
v 23.8 7.1 -2.5
v 23.8 7 -2.5
v 23.9 7 -2.5
v 23.9 7.1 -2.5
v 23.9 7.1 -2.6
v 23.9 7 -2.6
v 23.8 7 -2.6
v 23.8 7.1 -2.6
v 24.1 7.1 -2.6
v 24.1 7 -2.6
v 24.1 7 -2.5
v 24.1 7.1 -2.5
v 24.1 7.1 -2.6
v 24.1 7.1 -2.5
v 24.2 7.1 -2.5
v 24.2 7.1 -2.6
v 24.1 7.1 -2.5
v 24.1 7 -2.5
v 24.2 7 -2.5
v 24.2 7.1 -2.5
v 24.2 7.1 -2.6
v 24.2 7 -2.6
v 24.1 7 -2.6
v 24.1 7.1 -2.6
v 24.2 7.1 -2.5
v 24.2 7 -2.5
v 24.3 7 -2.5
v 24.3 7.1 -2.5
v 24.3 7.1 -2.6
v 24.3 7 -2.6
v 24.2 7 -2.6
v 24.2 7.1 -2.6
v 24.3 7.1 -2.5
v 24.3 7 -2.5
v 24.4 7 -2.5
v 24.4 7.1 -2.5
v 24.4 7.1 -2.6
v 24.4 7 -2.6
v 24.3 7 -2.6
v 24.3 7.1 -2.6
v 24.5 7.1 -2.5
v 24.5 7 -2.5
v 24.5 7 -2.6
v 24.5 7.1 -2.6
v 24.4 7.1 -2.5
v 24.4 7 -2.5
v 24.5 7 -2.5
v 24.5 7.1 -2.5
v 24.5 7.1 -2.6
v 24.5 7 -2.6
v 24.4 7 -2.6
v 24.4 7.1 -2.6
v 23.3 7 -2.6
v 23.3 6.9 -2.6
v 23.3 6.9 -2.5
v 23.3 7 -2.5
v 23.3 7 -2.6
v 23.3 7 -2.5
v 23.4 7 -2.5
v 23.4 7 -2.6
v 23.3 7 -2.5
v 23.3 6.9 -2.5
v 23.4 6.9 -2.5
v 23.4 7 -2.5
v 23.4 7 -2.6
v 23.4 6.9 -2.6
v 23.3 6.9 -2.6
v 23.3 7 -2.6
v 23.4 7 -2.5
v 23.4 6.9 -2.5
v 23.5 6.9 -2.5
v 23.5 7 -2.5
v 23.5 7 -2.6
v 23.5 6.9 -2.6
v 23.4 6.9 -2.6
v 23.4 7 -2.6
v 23.6 7 -2.5
v 23.6 6.9 -2.5
v 23.6 6.9 -2.6
v 23.6 7 -2.6
v 23.5 7 -2.5
v 23.5 6.9 -2.5
v 23.6 6.9 -2.5
v 23.6 7 -2.5
v 23.6 7 -2.6
v 23.6 6.9 -2.6
v 23.5 6.9 -2.6
v 23.5 7 -2.6
v 23.7 7 -2.6
v 23.7 6.9 -2.6
v 23.7 6.9 -2.5
v 23.7 7 -2.5
v 23.7 7 -2.5
v 23.7 6.9 -2.5
v 23.8 6.9 -2.5
v 23.8 7 -2.5
v 23.8 7 -2.6
v 23.8 6.9 -2.6
v 23.7 6.9 -2.6
v 23.7 7 -2.6
v 23.9 7 -2.5
v 23.9 6.9 -2.5
v 23.9 6.9 -2.6
v 23.9 7 -2.6
v 23.8 7 -2.5
v 23.8 6.9 -2.5
v 23.9 6.9 -2.5
v 23.9 7 -2.5
v 23.9 7 -2.6
v 23.9 6.9 -2.6
v 23.8 6.9 -2.6
v 23.8 7 -2.6
v 24.1 7 -2.6
v 24.1 6.9 -2.6
v 24.1 6.9 -2.5
v 24.1 7 -2.5
v 24.1 7 -2.5
v 24.1 6.9 -2.5
v 24.2 6.9 -2.5
v 24.2 7 -2.5
v 24.2 7 -2.6
v 24.2 6.9 -2.6
v 24.1 6.9 -2.6
v 24.1 7 -2.6
v 24.2 7 -2.5
v 24.2 6.9 -2.5
v 24.3 6.9 -2.5
v 24.3 7 -2.5
v 24.3 7 -2.6
v 24.3 6.9 -2.6
v 24.2 6.9 -2.6
v 24.2 7 -2.6
v 24.3 7 -2.5
v 24.3 6.9 -2.5
v 24.4 6.9 -2.5
v 24.4 7 -2.5
v 24.4 7 -2.6
v 24.4 6.9 -2.6
v 24.3 6.9 -2.6
v 24.3 7 -2.6
v 24.5 7 -2.5
v 24.5 6.9 -2.5
v 24.5 6.9 -2.6
v 24.5 7 -2.6
v 24.4 7 -2.5
v 24.4 6.9 -2.5
v 24.5 6.9 -2.5
v 24.5 7 -2.5
v 24.5 7 -2.6
v 24.5 6.9 -2.6
v 24.4 6.9 -2.6
v 24.4 7 -2.6
v 23.3 6.9 -2.6
v 23.3 6.8 -2.6
v 23.3 6.8 -2.5
v 23.3 6.9 -2.5
v 23.3 6.9 -2.5
v 23.3 6.8 -2.5
v 23.4 6.8 -2.5
v 23.4 6.9 -2.5
v 23.4 6.9 -2.6
v 23.4 6.8 -2.6
v 23.3 6.8 -2.6
v 23.3 6.9 -2.6
v 23.4 6.9 -2.5
v 23.4 6.8 -2.5
v 23.5 6.8 -2.5
v 23.5 6.9 -2.5
v 23.5 6.9 -2.6
v 23.5 6.8 -2.6
v 23.4 6.8 -2.6
v 23.4 6.9 -2.6
v 23.6 6.9 -2.5
v 23.6 6.8 -2.5
v 23.6 6.8 -2.6
v 23.6 6.9 -2.6
v 23.5 6.9 -2.5
v 23.5 6.8 -2.5
v 23.6 6.8 -2.5
v 23.6 6.9 -2.5
v 23.6 6.9 -2.6
v 23.6 6.8 -2.6
v 23.5 6.8 -2.6
v 23.5 6.9 -2.6
v 23.7 6.9 -2.6
v 23.7 6.8 -2.6
v 23.7 6.8 -2.5
v 23.7 6.9 -2.5
v 23.7 6.9 -2.5
v 23.7 6.8 -2.5
v 23.8 6.8 -2.5
v 23.8 6.9 -2.5
v 23.8 6.9 -2.6
v 23.8 6.8 -2.6
v 23.7 6.8 -2.6
v 23.7 6.9 -2.6
v 23.9 6.9 -2.5
v 23.9 6.8 -2.5
v 23.9 6.8 -2.6
v 23.9 6.9 -2.6
v 23.8 6.9 -2.5
v 23.8 6.8 -2.5
v 23.9 6.8 -2.5
v 23.9 6.9 -2.5
v 23.9 6.9 -2.6
v 23.9 6.8 -2.6
v 23.8 6.8 -2.6
v 23.8 6.9 -2.6
v 24.1 6.9 -2.6
v 24.1 6.8 -2.6
v 24.1 6.8 -2.5
v 24.1 6.9 -2.5
v 24.1 6.9 -2.5
v 24.1 6.8 -2.5
v 24.2 6.8 -2.5
v 24.2 6.9 -2.5
v 24.2 6.9 -2.6
v 24.2 6.8 -2.6
v 24.1 6.8 -2.6
v 24.1 6.9 -2.6
v 24.2 6.9 -2.5
v 24.2 6.8 -2.5
v 24.3 6.8 -2.5
v 24.3 6.9 -2.5
v 24.3 6.9 -2.6
v 24.3 6.8 -2.6
v 24.2 6.8 -2.6
v 24.2 6.9 -2.6
v 24.3 6.8 -2.5
v 24.3 6.8 -2.6
v 24.4 6.8 -2.6
v 24.4 6.8 -2.5
v 24.3 6.9 -2.5
v 24.3 6.8 -2.5
v 24.4 6.8 -2.5
v 24.4 6.9 -2.5
v 24.4 6.9 -2.6
v 24.4 6.8 -2.6
v 24.3 6.8 -2.6
v 24.3 6.9 -2.6
v 24.5 6.9 -2.5
v 24.5 6.8 -2.5
v 24.5 6.8 -2.6
v 24.5 6.9 -2.6
v 24.4 6.9 -2.5
v 24.4 6.8 -2.5
v 24.5 6.8 -2.5
v 24.5 6.9 -2.5
v 24.5 6.9 -2.6
v 24.5 6.8 -2.6
v 24.4 6.8 -2.6
v 24.4 6.9 -2.6
v 24.8 6.9 -2.6
v 24.8 6.8 -2.6
v 24.8 6.8 -2.5
v 24.8 6.9 -2.5
v 24.9 6.9 -2.5
v 24.9 6.8 -2.5
v 24.9 6.8 -2.6
v 24.9 6.9 -2.6
v 24.8 6.9 -2.6
v 24.8 6.9 -2.5
v 24.9 6.9 -2.5
v 24.9 6.9 -2.6
v 24.8 6.9 -2.5
v 24.8 6.8 -2.5
v 24.9 6.8 -2.5
v 24.9 6.9 -2.5
v 24.9 6.9 -2.6
v 24.9 6.8 -2.6
v 24.8 6.8 -2.6
v 24.8 6.9 -2.6
v 23.3 6.8 -2.6
v 23.3 6.7 -2.6
v 23.3 6.7 -2.5
v 23.3 6.8 -2.5
v 23.3 6.8 -2.5
v 23.3 6.7 -2.5
v 23.4 6.7 -2.5
v 23.4 6.8 -2.5
v 23.4 6.8 -2.6
v 23.4 6.7 -2.6
v 23.3 6.7 -2.6
v 23.3 6.8 -2.6
v 23.4 6.8 -2.5
v 23.4 6.7 -2.5
v 23.5 6.7 -2.5
v 23.5 6.8 -2.5
v 23.5 6.8 -2.6
v 23.5 6.7 -2.6
v 23.4 6.7 -2.6
v 23.4 6.8 -2.6
v 23.6 6.8 -2.5
v 23.6 6.7 -2.5
v 23.6 6.7 -2.6
v 23.6 6.8 -2.6
v 23.5 6.8 -2.5
v 23.5 6.7 -2.5
v 23.6 6.7 -2.5
v 23.6 6.8 -2.5
v 23.6 6.8 -2.6
v 23.6 6.7 -2.6
v 23.5 6.7 -2.6
v 23.5 6.8 -2.6
v 23.7 6.8 -2.6
v 23.7 6.7 -2.6
v 23.7 6.7 -2.5
v 23.7 6.8 -2.5
v 23.7 6.8 -2.5
v 23.7 6.7 -2.5
v 23.8 6.7 -2.5
v 23.8 6.8 -2.5
v 23.8 6.8 -2.6
v 23.8 6.7 -2.6
v 23.7 6.7 -2.6
v 23.7 6.8 -2.6
v 23.9 6.8 -2.5
v 23.9 6.7 -2.5
v 23.9 6.7 -2.6
v 23.9 6.8 -2.6
v 23.8 6.8 -2.5
v 23.8 6.7 -2.5
v 23.9 6.7 -2.5
v 23.9 6.8 -2.5
v 23.9 6.8 -2.6
v 23.9 6.7 -2.6
v 23.8 6.7 -2.6
v 23.8 6.8 -2.6
v 24 6.8 -2.6
v 24 6.7 -2.6
v 24 6.7 -2.5
v 24 6.8 -2.5
v 24 6.8 -2.6
v 24 6.8 -2.5
v 24.1 6.8 -2.5
v 24.1 6.8 -2.6
v 24 6.8 -2.5
v 24 6.7 -2.5
v 24.1 6.7 -2.5
v 24.1 6.8 -2.5
v 24.1 6.8 -2.6
v 24.1 6.7 -2.6
v 24 6.7 -2.6
v 24 6.8 -2.6
v 24.1 6.8 -2.5
v 24.1 6.7 -2.5
v 24.2 6.7 -2.5
v 24.2 6.8 -2.5
v 24.2 6.8 -2.6
v 24.2 6.7 -2.6
v 24.1 6.7 -2.6
v 24.1 6.8 -2.6
v 24.3 6.8 -2.5
v 24.3 6.7 -2.5
v 24.3 6.7 -2.6
v 24.3 6.8 -2.6
v 24.2 6.8 -2.5
v 24.2 6.7 -2.5
v 24.3 6.7 -2.5
v 24.3 6.8 -2.5
v 24.3 6.8 -2.6
v 24.3 6.7 -2.6
v 24.2 6.7 -2.6
v 24.2 6.8 -2.6
v 24.4 6.8 -2.6
v 24.4 6.7 -2.6
v 24.4 6.7 -2.5
v 24.4 6.8 -2.5
v 24.4 6.8 -2.5
v 24.4 6.7 -2.5
v 24.5 6.7 -2.5
v 24.5 6.8 -2.5
v 24.5 6.8 -2.6
v 24.5 6.7 -2.6
v 24.4 6.7 -2.6
v 24.4 6.8 -2.6
v 24.6 6.8 -2.5
v 24.6 6.7 -2.5
v 24.6 6.7 -2.6
v 24.6 6.8 -2.6
v 24.5 6.8 -2.6
v 24.5 6.8 -2.5
v 24.6 6.8 -2.5
v 24.6 6.8 -2.6
v 24.5 6.8 -2.5
v 24.5 6.7 -2.5
v 24.6 6.7 -2.5
v 24.6 6.8 -2.5
v 24.6 6.8 -2.6
v 24.6 6.7 -2.6
v 24.5 6.7 -2.6
v 24.5 6.8 -2.6
v 24.8 6.8 -2.6
v 24.8 6.7 -2.6
v 24.8 6.7 -2.5
v 24.8 6.8 -2.5
v 24.9 6.8 -2.5
v 24.9 6.7 -2.5
v 24.9 6.7 -2.6
v 24.9 6.8 -2.6
v 24.8 6.8 -2.5
v 24.8 6.7 -2.5
v 24.9 6.7 -2.5
v 24.9 6.8 -2.5
v 24.9 6.8 -2.6
v 24.9 6.7 -2.6
v 24.8 6.7 -2.6
v 24.8 6.8 -2.6
v 23.3 6.7 -2.6
v 23.3 6.6 -2.6
v 23.3 6.6 -2.5
v 23.3 6.7 -2.5
v 23.3 6.7 -2.5
v 23.3 6.6 -2.5
v 23.4 6.6 -2.5
v 23.4 6.7 -2.5
v 23.4 6.7 -2.6
v 23.4 6.6 -2.6
v 23.3 6.6 -2.6
v 23.3 6.7 -2.6
v 23.4 6.7 -2.5
v 23.4 6.6 -2.5
v 23.5 6.6 -2.5
v 23.5 6.7 -2.5
v 23.5 6.7 -2.6
v 23.5 6.6 -2.6
v 23.4 6.6 -2.6
v 23.4 6.7 -2.6
v 23.6 6.7 -2.5
v 23.6 6.6 -2.5
v 23.6 6.6 -2.6
v 23.6 6.7 -2.6
v 23.5 6.7 -2.5
v 23.5 6.6 -2.5
v 23.6 6.6 -2.5
v 23.6 6.7 -2.5
v 23.6 6.7 -2.6
v 23.6 6.6 -2.6
v 23.5 6.6 -2.6
v 23.5 6.7 -2.6
v 23.7 6.7 -2.6
v 23.7 6.6 -2.6
v 23.7 6.6 -2.5
v 23.7 6.7 -2.5
v 23.7 6.6 -2.5
v 23.7 6.6 -2.6
v 23.8 6.6 -2.6
v 23.8 6.6 -2.5
v 23.7 6.7 -2.5
v 23.7 6.6 -2.5
v 23.8 6.6 -2.5
v 23.8 6.7 -2.5
v 23.8 6.7 -2.6
v 23.8 6.6 -2.6
v 23.7 6.6 -2.6
v 23.7 6.7 -2.6
v 23.8 6.7 -2.5
v 23.8 6.6 -2.5
v 23.9 6.6 -2.5
v 23.9 6.7 -2.5
v 23.9 6.7 -2.6
v 23.9 6.6 -2.6
v 23.8 6.6 -2.6
v 23.8 6.7 -2.6
v 23.9 6.7 -2.6
v 23.9 6.7 -2.5
v 24 6.7 -2.5
v 24 6.7 -2.6
v 23.9 6.7 -2.5
v 23.9 6.6 -2.5
v 24 6.6 -2.5
v 24 6.7 -2.5
v 24 6.7 -2.6
v 24 6.6 -2.6
v 23.9 6.6 -2.6
v 23.9 6.7 -2.6
v 24 6.7 -2.5
v 24 6.6 -2.5
v 24.1 6.6 -2.5
v 24.1 6.7 -2.5
v 24.1 6.7 -2.6
v 24.1 6.6 -2.6
v 24 6.6 -2.6
v 24 6.7 -2.6
v 24.1 6.7 -2.5
v 24.1 6.6 -2.5
v 24.2 6.6 -2.5
v 24.2 6.7 -2.5
v 24.2 6.7 -2.6
v 24.2 6.6 -2.6
v 24.1 6.6 -2.6
v 24.1 6.7 -2.6
v 24.3 6.7 -2.5
v 24.3 6.6 -2.5
v 24.3 6.6 -2.6
v 24.3 6.7 -2.6
v 24.2 6.7 -2.5
v 24.2 6.6 -2.5
v 24.3 6.6 -2.5
v 24.3 6.7 -2.5
v 24.3 6.7 -2.6
v 24.3 6.6 -2.6
v 24.2 6.6 -2.6
v 24.2 6.7 -2.6
v 24.4 6.7 -2.6
v 24.4 6.6 -2.6
v 24.4 6.6 -2.5
v 24.4 6.7 -2.5
v 24.4 6.7 -2.5
v 24.4 6.6 -2.5
v 24.5 6.6 -2.5
v 24.5 6.7 -2.5
v 24.5 6.7 -2.6
v 24.5 6.6 -2.6
v 24.4 6.6 -2.6
v 24.4 6.7 -2.6
v 24.6 6.7 -2.5
v 24.6 6.6 -2.5
v 24.6 6.6 -2.6
v 24.6 6.7 -2.6
v 24.5 6.7 -2.5
v 24.5 6.6 -2.5
v 24.6 6.6 -2.5
v 24.6 6.7 -2.5
v 24.6 6.7 -2.6
v 24.6 6.6 -2.6
v 24.5 6.6 -2.6
v 24.5 6.7 -2.6
v 24.8 6.7 -2.6
v 24.8 6.6 -2.6
v 24.8 6.6 -2.5
v 24.8 6.7 -2.5
v 24.9 6.7 -2.5
v 24.9 6.6 -2.5
v 24.9 6.6 -2.6
v 24.9 6.7 -2.6
v 24.8 6.7 -2.5
v 24.8 6.6 -2.5
v 24.9 6.6 -2.5
v 24.9 6.7 -2.5
v 24.9 6.7 -2.6
v 24.9 6.6 -2.6
v 24.8 6.6 -2.6
v 24.8 6.7 -2.6
v 23.3 6.6 -2.6
v 23.3 6.5 -2.6
v 23.3 6.5 -2.5
v 23.3 6.6 -2.5
v 23.3 6.6 -2.5
v 23.3 6.5 -2.5
v 23.4 6.5 -2.5
v 23.4 6.6 -2.5
v 23.4 6.6 -2.6
v 23.4 6.5 -2.6
v 23.3 6.5 -2.6
v 23.3 6.6 -2.6
v 23.4 6.6 -2.5
v 23.4 6.5 -2.5
v 23.5 6.5 -2.5
v 23.5 6.6 -2.5
v 23.5 6.6 -2.6
v 23.5 6.5 -2.6
v 23.4 6.5 -2.6
v 23.4 6.6 -2.6
v 23.6 6.6 -2.5
v 23.6 6.5 -2.5
v 23.6 6.5 -2.6
v 23.6 6.6 -2.6
v 23.5 6.6 -2.5
v 23.5 6.5 -2.5
v 23.6 6.5 -2.5
v 23.6 6.6 -2.5
v 23.6 6.6 -2.6
v 23.6 6.5 -2.6
v 23.5 6.5 -2.6
v 23.5 6.6 -2.6
v 23.8 6.6 -2.6
v 23.8 6.5 -2.6
v 23.8 6.5 -2.5
v 23.8 6.6 -2.5
v 23.8 6.6 -2.5
v 23.8 6.5 -2.5
v 23.9 6.5 -2.5
v 23.9 6.6 -2.5
v 23.9 6.6 -2.6
v 23.9 6.5 -2.6
v 23.8 6.5 -2.6
v 23.8 6.6 -2.6
v 23.9 6.6 -2.5
v 23.9 6.5 -2.5
v 24 6.5 -2.5
v 24 6.6 -2.5
v 24 6.6 -2.6
v 24 6.5 -2.6
v 23.9 6.5 -2.6
v 23.9 6.6 -2.6
v 24 6.6 -2.5
v 24 6.5 -2.5
v 24.1 6.5 -2.5
v 24.1 6.6 -2.5
v 24.1 6.6 -2.6
v 24.1 6.5 -2.6
v 24 6.5 -2.6
v 24 6.6 -2.6
v 24.1 6.6 -2.5
v 24.1 6.5 -2.5
v 24.2 6.5 -2.5
v 24.2 6.6 -2.5
v 24.2 6.6 -2.6
v 24.2 6.5 -2.6
v 24.1 6.5 -2.6
v 24.1 6.6 -2.6
v 24.3 6.6 -2.5
v 24.3 6.5 -2.5
v 24.3 6.5 -2.6
v 24.3 6.6 -2.6
v 24.2 6.6 -2.5
v 24.2 6.5 -2.5
v 24.3 6.5 -2.5
v 24.3 6.6 -2.5
v 24.3 6.6 -2.6
v 24.3 6.5 -2.6
v 24.2 6.5 -2.6
v 24.2 6.6 -2.6
v 24.4 6.6 -2.6
v 24.4 6.5 -2.6
v 24.4 6.5 -2.5
v 24.4 6.6 -2.5
v 24.4 6.6 -2.5
v 24.4 6.5 -2.5
v 24.5 6.5 -2.5
v 24.5 6.6 -2.5
v 24.5 6.6 -2.6
v 24.5 6.5 -2.6
v 24.4 6.5 -2.6
v 24.4 6.6 -2.6
v 24.6 6.6 -2.5
v 24.6 6.5 -2.5
v 24.6 6.5 -2.6
v 24.6 6.6 -2.6
v 24.5 6.6 -2.5
v 24.5 6.5 -2.5
v 24.6 6.5 -2.5
v 24.6 6.6 -2.5
v 24.6 6.6 -2.6
v 24.6 6.5 -2.6
v 24.5 6.5 -2.6
v 24.5 6.6 -2.6
v 24.7 6.6 -2.6
v 24.7 6.5 -2.6
v 24.7 6.5 -2.5
v 24.7 6.6 -2.5
v 24.7 6.6 -2.6
v 24.7 6.6 -2.5
v 24.8 6.6 -2.5
v 24.8 6.6 -2.6
v 24.7 6.6 -2.5
v 24.7 6.5 -2.5
v 24.8 6.5 -2.5
v 24.8 6.6 -2.5
v 24.8 6.6 -2.6
v 24.8 6.5 -2.6
v 24.7 6.5 -2.6
v 24.7 6.6 -2.6
v 24.9 6.6 -2.5
v 24.9 6.5 -2.5
v 24.9 6.5 -2.6
v 24.9 6.6 -2.6
v 24.8 6.6 -2.5
v 24.8 6.5 -2.5
v 24.9 6.5 -2.5
v 24.9 6.6 -2.5
v 24.9 6.6 -2.6
v 24.9 6.5 -2.6
v 24.8 6.5 -2.6
v 24.8 6.6 -2.6
v 23.3 6.5 -2.6
v 23.3 6.4 -2.6
v 23.3 6.4 -2.5
v 23.3 6.5 -2.5
v 23.3 6.5 -2.5
v 23.3 6.4 -2.5
v 23.4 6.4 -2.5
v 23.4 6.5 -2.5
v 23.4 6.5 -2.6
v 23.4 6.4 -2.6
v 23.3 6.4 -2.6
v 23.3 6.5 -2.6
v 23.4 6.5 -2.5
v 23.4 6.4 -2.5
v 23.5 6.4 -2.5
v 23.5 6.5 -2.5
v 23.5 6.5 -2.6
v 23.5 6.4 -2.6
v 23.4 6.4 -2.6
v 23.4 6.5 -2.6
v 23.6 6.5 -2.5
v 23.6 6.4 -2.5
v 23.6 6.4 -2.6
v 23.6 6.5 -2.6
v 23.5 6.4 -2.5
v 23.5 6.4 -2.6
v 23.6 6.4 -2.6
v 23.6 6.4 -2.5
v 23.5 6.5 -2.5
v 23.5 6.4 -2.5
v 23.6 6.4 -2.5
v 23.6 6.5 -2.5
v 23.6 6.5 -2.6
v 23.6 6.4 -2.6
v 23.5 6.4 -2.6
v 23.5 6.5 -2.6
v 23.8 6.5 -2.6
v 23.8 6.4 -2.6
v 23.8 6.4 -2.5
v 23.8 6.5 -2.5
v 23.8 6.5 -2.5
v 23.8 6.4 -2.5
v 23.9 6.4 -2.5
v 23.9 6.5 -2.5
v 23.9 6.5 -2.6
v 23.9 6.4 -2.6
v 23.8 6.4 -2.6
v 23.8 6.5 -2.6
v 23.9 6.5 -2.5
v 23.9 6.4 -2.5
v 24 6.4 -2.5
v 24 6.5 -2.5
v 24 6.5 -2.6
v 24 6.4 -2.6
v 23.9 6.4 -2.6
v 23.9 6.5 -2.6
v 24 6.5 -2.5
v 24 6.4 -2.5
v 24.1 6.4 -2.5
v 24.1 6.5 -2.5
v 24.1 6.5 -2.6
v 24.1 6.4 -2.6
v 24 6.4 -2.6
v 24 6.5 -2.6
v 24.1 6.5 -2.5
v 24.1 6.4 -2.5
v 24.2 6.4 -2.5
v 24.2 6.5 -2.5
v 24.2 6.5 -2.6
v 24.2 6.4 -2.6
v 24.1 6.4 -2.6
v 24.1 6.5 -2.6
v 24.3 6.5 -2.5
v 24.3 6.4 -2.5
v 24.3 6.4 -2.6
v 24.3 6.5 -2.6
v 24.2 6.4 -2.5
v 24.2 6.4 -2.6
v 24.3 6.4 -2.6
v 24.3 6.4 -2.5
v 24.2 6.5 -2.5
v 24.2 6.4 -2.5
v 24.3 6.4 -2.5
v 24.3 6.5 -2.5
v 24.3 6.5 -2.6
v 24.3 6.4 -2.6
v 24.2 6.4 -2.6
v 24.2 6.5 -2.6
v 24.4 6.5 -2.6
v 24.4 6.4 -2.6
v 24.4 6.4 -2.5
v 24.4 6.5 -2.5
v 24.4 6.5 -2.5
v 24.4 6.4 -2.5
v 24.5 6.4 -2.5
v 24.5 6.5 -2.5
v 24.5 6.5 -2.6
v 24.5 6.4 -2.6
v 24.4 6.4 -2.6
v 24.4 6.5 -2.6
v 24.5 6.5 -2.5
v 24.5 6.4 -2.5
v 24.6 6.4 -2.5
v 24.6 6.5 -2.5
v 24.6 6.5 -2.6
v 24.6 6.4 -2.6
v 24.5 6.4 -2.6
v 24.5 6.5 -2.6
v 24.6 6.5 -2.6
v 24.6 6.5 -2.5
v 24.7 6.5 -2.5
v 24.7 6.5 -2.6
v 24.6 6.5 -2.5
v 24.6 6.4 -2.5
v 24.7 6.4 -2.5
v 24.7 6.5 -2.5
v 24.7 6.5 -2.6
v 24.7 6.4 -2.6
v 24.6 6.4 -2.6
v 24.6 6.5 -2.6
v 24.7 6.5 -2.5
v 24.7 6.4 -2.5
v 24.8 6.4 -2.5
v 24.8 6.5 -2.5
v 24.8 6.5 -2.6
v 24.8 6.4 -2.6
v 24.7 6.4 -2.6
v 24.7 6.5 -2.6
v 24.9 6.5 -2.5
v 24.9 6.4 -2.5
v 24.9 6.4 -2.6
v 24.9 6.5 -2.6
v 24.8 6.5 -2.5
v 24.8 6.4 -2.5
v 24.9 6.4 -2.5
v 24.9 6.5 -2.5
v 24.9 6.5 -2.6
v 24.9 6.4 -2.6
v 24.8 6.4 -2.6
v 24.8 6.5 -2.6
v 23.3 6.4 -2.6
v 23.3 6.3 -2.6
v 23.3 6.3 -2.5
v 23.3 6.4 -2.5
v 23.3 6.4 -2.5
v 23.3 6.3 -2.5
v 23.4 6.3 -2.5
v 23.4 6.4 -2.5
v 23.4 6.4 -2.6
v 23.4 6.3 -2.6
v 23.3 6.3 -2.6
v 23.3 6.4 -2.6
v 23.5 6.4 -2.5
v 23.5 6.3 -2.5
v 23.5 6.3 -2.6
v 23.5 6.4 -2.6
v 23.4 6.4 -2.5
v 23.4 6.3 -2.5
v 23.5 6.3 -2.5
v 23.5 6.4 -2.5
v 23.5 6.4 -2.6
v 23.5 6.3 -2.6
v 23.4 6.3 -2.6
v 23.4 6.4 -2.6
v 23.8 6.4 -2.6
v 23.8 6.3 -2.6
v 23.8 6.3 -2.5
v 23.8 6.4 -2.5
v 23.8 6.4 -2.5
v 23.8 6.3 -2.5
v 23.9 6.3 -2.5
v 23.9 6.4 -2.5
v 23.9 6.4 -2.6
v 23.9 6.3 -2.6
v 23.8 6.3 -2.6
v 23.8 6.4 -2.6
v 23.9 6.4 -2.5
v 23.9 6.3 -2.5
v 24 6.3 -2.5
v 24 6.4 -2.5
v 24 6.4 -2.6
v 24 6.3 -2.6
v 23.9 6.3 -2.6
v 23.9 6.4 -2.6
v 24 6.4 -2.5
v 24 6.3 -2.5
v 24.1 6.3 -2.5
v 24.1 6.4 -2.5
v 24.1 6.4 -2.6
v 24.1 6.3 -2.6
v 24 6.3 -2.6
v 24 6.4 -2.6
v 24.2 6.4 -2.5
v 24.2 6.3 -2.5
v 24.2 6.3 -2.6
v 24.2 6.4 -2.6
v 24.1 6.4 -2.5
v 24.1 6.3 -2.5
v 24.2 6.3 -2.5
v 24.2 6.4 -2.5
v 24.2 6.4 -2.6
v 24.2 6.3 -2.6
v 24.1 6.3 -2.6
v 24.1 6.4 -2.6
v 24.4 6.4 -2.6
v 24.4 6.3 -2.6
v 24.4 6.3 -2.5
v 24.4 6.4 -2.5
v 24.4 6.4 -2.5
v 24.4 6.3 -2.5
v 24.5 6.3 -2.5
v 24.5 6.4 -2.5
v 24.5 6.4 -2.6
v 24.5 6.3 -2.6
v 24.4 6.3 -2.6
v 24.4 6.4 -2.6
v 24.5 6.4 -2.5
v 24.5 6.3 -2.5
v 24.6 6.3 -2.5
v 24.6 6.4 -2.5
v 24.6 6.4 -2.6
v 24.6 6.3 -2.6
v 24.5 6.3 -2.6
v 24.5 6.4 -2.6
v 24.6 6.4 -2.5
v 24.6 6.3 -2.5
v 24.7 6.3 -2.5
v 24.7 6.4 -2.5
v 24.7 6.4 -2.6
v 24.7 6.3 -2.6
v 24.6 6.3 -2.6
v 24.6 6.4 -2.6
v 24.7 6.4 -2.5
v 24.7 6.3 -2.5
v 24.8 6.3 -2.5
v 24.8 6.4 -2.5
v 24.8 6.4 -2.6
v 24.8 6.3 -2.6
v 24.7 6.3 -2.6
v 24.7 6.4 -2.6
v 24.9 6.4 -2.5
v 24.9 6.3 -2.5
v 24.9 6.3 -2.6
v 24.9 6.4 -2.6
v 24.8 6.4 -2.5
v 24.8 6.3 -2.5
v 24.9 6.3 -2.5
v 24.9 6.4 -2.5
v 24.9 6.4 -2.6
v 24.9 6.3 -2.6
v 24.8 6.3 -2.6
v 24.8 6.4 -2.6
v 23.3 6.3 -2.6
v 23.3 6.2 -2.6
v 23.3 6.2 -2.5
v 23.3 6.3 -2.5
v 23.3 6.3 -2.5
v 23.3 6.2 -2.5
v 23.4 6.2 -2.5
v 23.4 6.3 -2.5
v 23.4 6.3 -2.6
v 23.4 6.2 -2.6
v 23.3 6.2 -2.6
v 23.3 6.3 -2.6
v 23.5 6.3 -2.5
v 23.5 6.2 -2.5
v 23.5 6.2 -2.6
v 23.5 6.3 -2.6
v 23.4 6.3 -2.5
v 23.4 6.2 -2.5
v 23.5 6.2 -2.5
v 23.5 6.3 -2.5
v 23.5 6.3 -2.6
v 23.5 6.2 -2.6
v 23.4 6.2 -2.6
v 23.4 6.3 -2.6
v 23.8 6.3 -2.6
v 23.8 6.2 -2.6
v 23.8 6.2 -2.5
v 23.8 6.3 -2.5
v 23.8 6.3 -2.5
v 23.8 6.2 -2.5
v 23.9 6.2 -2.5
v 23.9 6.3 -2.5
v 23.9 6.3 -2.6
v 23.9 6.2 -2.6
v 23.8 6.2 -2.6
v 23.8 6.3 -2.6
v 23.9 6.3 -2.5
v 23.9 6.2 -2.5
v 24 6.2 -2.5
v 24 6.3 -2.5
v 24 6.3 -2.6
v 24 6.2 -2.6
v 23.9 6.2 -2.6
v 23.9 6.3 -2.6
v 24 6.3 -2.5
v 24 6.2 -2.5
v 24.1 6.2 -2.5
v 24.1 6.3 -2.5
v 24.1 6.3 -2.6
v 24.1 6.2 -2.6
v 24 6.2 -2.6
v 24 6.3 -2.6
v 24.2 6.3 -2.5
v 24.2 6.2 -2.5
v 24.2 6.2 -2.6
v 24.2 6.3 -2.6
v 24.1 6.3 -2.5
v 24.1 6.2 -2.5
v 24.2 6.2 -2.5
v 24.2 6.3 -2.5
v 24.2 6.3 -2.6
v 24.2 6.2 -2.6
v 24.1 6.2 -2.6
v 24.1 6.3 -2.6
v 24.4 6.3 -2.6
v 24.4 6.2 -2.6
v 24.4 6.2 -2.5
v 24.4 6.3 -2.5
v 24.4 6.3 -2.5
v 24.4 6.2 -2.5
v 24.5 6.2 -2.5
v 24.5 6.3 -2.5
v 24.5 6.3 -2.6
v 24.5 6.2 -2.6
v 24.4 6.2 -2.6
v 24.4 6.3 -2.6
v 24.5 6.3 -2.5
v 24.5 6.2 -2.5
v 24.6 6.2 -2.5
v 24.6 6.3 -2.5
v 24.6 6.3 -2.6
v 24.6 6.2 -2.6
v 24.5 6.2 -2.6
v 24.5 6.3 -2.6
v 24.6 6.3 -2.5
v 24.6 6.2 -2.5
v 24.7 6.2 -2.5
v 24.7 6.3 -2.5
v 24.7 6.3 -2.6
v 24.7 6.2 -2.6
v 24.6 6.2 -2.6
v 24.6 6.3 -2.6
v 24.7 6.3 -2.5
v 24.7 6.2 -2.5
v 24.8 6.2 -2.5
v 24.8 6.3 -2.5
v 24.8 6.3 -2.6
v 24.8 6.2 -2.6
v 24.7 6.2 -2.6
v 24.7 6.3 -2.6
v 24.9 6.3 -2.5
v 24.9 6.2 -2.5
v 24.9 6.2 -2.6
v 24.9 6.3 -2.6
v 24.8 6.3 -2.5
v 24.8 6.2 -2.5
v 24.9 6.2 -2.5
v 24.9 6.3 -2.5
v 24.9 6.3 -2.6
v 24.9 6.2 -2.6
v 24.8 6.2 -2.6
v 24.8 6.3 -2.6
v 23.3 6.2 -2.6
v 23.3 6.1 -2.6
v 23.3 6.1 -2.5
v 23.3 6.2 -2.5
v 23.3 6.2 -2.5
v 23.3 6.1 -2.5
v 23.4 6.1 -2.5
v 23.4 6.2 -2.5
v 23.4 6.2 -2.6
v 23.4 6.1 -2.6
v 23.3 6.1 -2.6
v 23.3 6.2 -2.6
v 23.5 6.2 -2.5
v 23.5 6.1 -2.5
v 23.5 6.1 -2.6
v 23.5 6.2 -2.6
v 23.4 6.1 -2.5
v 23.4 6.1 -2.6
v 23.5 6.1 -2.6
v 23.5 6.1 -2.5
v 23.4 6.2 -2.5
v 23.4 6.1 -2.5
v 23.5 6.1 -2.5
v 23.5 6.2 -2.5
v 23.5 6.2 -2.6
v 23.5 6.1 -2.6
v 23.4 6.1 -2.6
v 23.4 6.2 -2.6
v 23.8 6.2 -2.6
v 23.8 6.1 -2.6
v 23.8 6.1 -2.5
v 23.8 6.2 -2.5
v 23.8 6.2 -2.5
v 23.8 6.1 -2.5
v 23.9 6.1 -2.5
v 23.9 6.2 -2.5
v 23.9 6.2 -2.6
v 23.9 6.1 -2.6
v 23.8 6.1 -2.6
v 23.8 6.2 -2.6
v 23.9 6.2 -2.5
v 23.9 6.1 -2.5
v 24 6.1 -2.5
v 24 6.2 -2.5
v 24 6.2 -2.6
v 24 6.1 -2.6
v 23.9 6.1 -2.6
v 23.9 6.2 -2.6
v 24 6.2 -2.5
v 24 6.1 -2.5
v 24.1 6.1 -2.5
v 24.1 6.2 -2.5
v 24.1 6.2 -2.6
v 24.1 6.1 -2.6
v 24 6.1 -2.6
v 24 6.2 -2.6
v 24.2 6.2 -2.5
v 24.2 6.1 -2.5
v 24.2 6.1 -2.6
v 24.2 6.2 -2.6
v 24.1 6.2 -2.5
v 24.1 6.1 -2.5
v 24.2 6.1 -2.5
v 24.2 6.2 -2.5
v 24.2 6.2 -2.6
v 24.2 6.1 -2.6
v 24.1 6.1 -2.6
v 24.1 6.2 -2.6
v 24.4 6.2 -2.6
v 24.4 6.1 -2.6
v 24.4 6.1 -2.5
v 24.4 6.2 -2.5
v 24.4 6.2 -2.5
v 24.4 6.1 -2.5
v 24.5 6.1 -2.5
v 24.5 6.2 -2.5
v 24.5 6.2 -2.6
v 24.5 6.1 -2.6
v 24.4 6.1 -2.6
v 24.4 6.2 -2.6
v 24.5 6.2 -2.5
v 24.5 6.1 -2.5
v 24.6 6.1 -2.5
v 24.6 6.2 -2.5
v 24.6 6.2 -2.6
v 24.6 6.1 -2.6
v 24.5 6.1 -2.6
v 24.5 6.2 -2.6
v 24.6 6.2 -2.5
v 24.6 6.1 -2.5
v 24.7 6.1 -2.5
v 24.7 6.2 -2.5
v 24.7 6.2 -2.6
v 24.7 6.1 -2.6
v 24.6 6.1 -2.6
v 24.6 6.2 -2.6
v 24.7 6.2 -2.5
v 24.7 6.1 -2.5
v 24.8 6.1 -2.5
v 24.8 6.2 -2.5
v 24.8 6.2 -2.6
v 24.8 6.1 -2.6
v 24.7 6.1 -2.6
v 24.7 6.2 -2.6
v 24.9 6.2 -2.5
v 24.9 6.1 -2.5
v 24.9 6.1 -2.6
v 24.9 6.2 -2.6
v 24.8 6.2 -2.5
v 24.8 6.1 -2.5
v 24.9 6.1 -2.5
v 24.9 6.2 -2.5
v 24.9 6.2 -2.6
v 24.9 6.1 -2.6
v 24.8 6.1 -2.6
v 24.8 6.2 -2.6
v 23.3 6.1 -2.6
v 23.3 6 -2.6
v 23.3 6 -2.5
v 23.3 6.1 -2.5
v 23.4 6.1 -2.5
v 23.4 6 -2.5
v 23.4 6 -2.6
v 23.4 6.1 -2.6
v 23.3 6.1 -2.5
v 23.3 6 -2.5
v 23.4 6 -2.5
v 23.4 6.1 -2.5
v 23.4 6.1 -2.6
v 23.4 6 -2.6
v 23.3 6 -2.6
v 23.3 6.1 -2.6
v 23.8 6.1 -2.6
v 23.8 6 -2.6
v 23.8 6 -2.5
v 23.8 6.1 -2.5
v 23.8 6.1 -2.5
v 23.8 6 -2.5
v 23.9 6 -2.5
v 23.9 6.1 -2.5
v 23.9 6.1 -2.6
v 23.9 6 -2.6
v 23.8 6 -2.6
v 23.8 6.1 -2.6
v 23.9 6.1 -2.5
v 23.9 6 -2.5
v 24 6 -2.5
v 24 6.1 -2.5
v 24 6.1 -2.6
v 24 6 -2.6
v 23.9 6 -2.6
v 23.9 6.1 -2.6
v 24 6.1 -2.5
v 24 6 -2.5
v 24.1 6 -2.5
v 24.1 6.1 -2.5
v 24.1 6.1 -2.6
v 24.1 6 -2.6
v 24 6 -2.6
v 24 6.1 -2.6
v 24.2 6.1 -2.5
v 24.2 6 -2.5
v 24.2 6 -2.6
v 24.2 6.1 -2.6
v 24.1 6.1 -2.5
v 24.1 6 -2.5
v 24.2 6 -2.5
v 24.2 6.1 -2.5
v 24.2 6.1 -2.6
v 24.2 6 -2.6
v 24.1 6 -2.6
v 24.1 6.1 -2.6
v 24.4 6.1 -2.6
v 24.4 6 -2.6
v 24.4 6 -2.5
v 24.4 6.1 -2.5
v 24.4 6 -2.5
v 24.4 6 -2.6
v 24.5 6 -2.6
v 24.5 6 -2.5
v 24.4 6.1 -2.5
v 24.4 6 -2.5
v 24.5 6 -2.5
v 24.5 6.1 -2.5
v 24.5 6.1 -2.6
v 24.5 6 -2.6
v 24.4 6 -2.6
v 24.4 6.1 -2.6
v 24.5 6.1 -2.5
v 24.5 6 -2.5
v 24.6 6 -2.5
v 24.6 6.1 -2.5
v 24.6 6.1 -2.6
v 24.6 6 -2.6
v 24.5 6 -2.6
v 24.5 6.1 -2.6
v 24.6 6.1 -2.5
v 24.6 6 -2.5
v 24.7 6 -2.5
v 24.7 6.1 -2.5
v 24.7 6.1 -2.6
v 24.7 6 -2.6
v 24.6 6 -2.6
v 24.6 6.1 -2.6
v 24.7 6.1 -2.5
v 24.7 6 -2.5
v 24.8 6 -2.5
v 24.8 6.1 -2.5
v 24.8 6.1 -2.6
v 24.8 6 -2.6
v 24.7 6 -2.6
v 24.7 6.1 -2.6
v 24.9 6.1 -2.5
v 24.9 6 -2.5
v 24.9 6 -2.6
v 24.9 6.1 -2.6
v 24.8 6.1 -2.5
v 24.8 6 -2.5
v 24.9 6 -2.5
v 24.9 6.1 -2.5
v 24.9 6.1 -2.6
v 24.9 6 -2.6
v 24.8 6 -2.6
v 24.8 6.1 -2.6
v 23.3 6 -2.6
v 23.3 5.9 -2.6
v 23.3 5.9 -2.5
v 23.3 6 -2.5
v 23.4 6 -2.5
v 23.4 5.9 -2.5
v 23.4 5.9 -2.6
v 23.4 6 -2.6
v 23.3 6 -2.5
v 23.3 5.9 -2.5
v 23.4 5.9 -2.5
v 23.4 6 -2.5
v 23.4 6 -2.6
v 23.4 5.9 -2.6
v 23.3 5.9 -2.6
v 23.3 6 -2.6
v 23.8 6 -2.6
v 23.8 5.9 -2.6
v 23.8 5.9 -2.5
v 23.8 6 -2.5
v 23.8 5.9 -2.5
v 23.8 5.9 -2.6
v 23.9 5.9 -2.6
v 23.9 5.9 -2.5
v 23.8 6 -2.5
v 23.8 5.9 -2.5
v 23.9 5.9 -2.5
v 23.9 6 -2.5
v 23.9 6 -2.6
v 23.9 5.9 -2.6
v 23.8 5.9 -2.6
v 23.8 6 -2.6
v 23.9 6 -2.5
v 23.9 5.9 -2.5
v 24 5.9 -2.5
v 24 6 -2.5
v 24 6 -2.6
v 24 5.9 -2.6
v 23.9 5.9 -2.6
v 23.9 6 -2.6
v 24 6 -2.5
v 24 5.9 -2.5
v 24.1 5.9 -2.5
v 24.1 6 -2.5
v 24.1 6 -2.6
v 24.1 5.9 -2.6
v 24 5.9 -2.6
v 24 6 -2.6
v 24.2 6 -2.5
v 24.2 5.9 -2.5
v 24.2 5.9 -2.6
v 24.2 6 -2.6
v 24.1 5.9 -2.5
v 24.1 5.9 -2.6
v 24.2 5.9 -2.6
v 24.2 5.9 -2.5
v 24.1 6 -2.5
v 24.1 5.9 -2.5
v 24.2 5.9 -2.5
v 24.2 6 -2.5
v 24.2 6 -2.6
v 24.2 5.9 -2.6
v 24.1 5.9 -2.6
v 24.1 6 -2.6
v 24.5 6 -2.6
v 24.5 5.9 -2.6
v 24.5 5.9 -2.5
v 24.5 6 -2.5
v 24.5 6 -2.5
v 24.5 5.9 -2.5
v 24.6 5.9 -2.5
v 24.6 6 -2.5
v 24.6 6 -2.6
v 24.6 5.9 -2.6
v 24.5 5.9 -2.6
v 24.5 6 -2.6
v 24.6 6 -2.5
v 24.6 5.9 -2.5
v 24.7 5.9 -2.5
v 24.7 6 -2.5
v 24.7 6 -2.6
v 24.7 5.9 -2.6
v 24.6 5.9 -2.6
v 24.6 6 -2.6
v 24.7 6 -2.5
v 24.7 5.9 -2.5
v 24.8 5.9 -2.5
v 24.8 6 -2.5
v 24.8 6 -2.6
v 24.8 5.9 -2.6
v 24.7 5.9 -2.6
v 24.7 6 -2.6
v 24.9 6 -2.5
v 24.9 5.9 -2.5
v 24.9 5.9 -2.6
v 24.9 6 -2.6
v 24.8 6 -2.5
v 24.8 5.9 -2.5
v 24.9 5.9 -2.5
v 24.9 6 -2.5
v 24.9 6 -2.6
v 24.9 5.9 -2.6
v 24.8 5.9 -2.6
v 24.8 6 -2.6
v 23.3 5.9 -2.6
v 23.3 5.8 -2.6
v 23.3 5.8 -2.5
v 23.3 5.9 -2.5
v 23.4 5.9 -2.5
v 23.4 5.8 -2.5
v 23.4 5.8 -2.6
v 23.4 5.9 -2.6
v 23.3 5.8 -2.5
v 23.3 5.8 -2.6
v 23.4 5.8 -2.6
v 23.4 5.8 -2.5
v 23.3 5.9 -2.5
v 23.3 5.8 -2.5
v 23.4 5.8 -2.5
v 23.4 5.9 -2.5
v 23.4 5.9 -2.6
v 23.4 5.8 -2.6
v 23.3 5.8 -2.6
v 23.3 5.9 -2.6
v 23.9 5.9 -2.6
v 23.9 5.8 -2.6
v 23.9 5.8 -2.5
v 23.9 5.9 -2.5
v 23.9 5.9 -2.5
v 23.9 5.8 -2.5
v 24 5.8 -2.5
v 24 5.9 -2.5
v 24 5.9 -2.6
v 24 5.8 -2.6
v 23.9 5.8 -2.6
v 23.9 5.9 -2.6
v 24.1 5.9 -2.5
v 24.1 5.8 -2.5
v 24.1 5.8 -2.6
v 24.1 5.9 -2.6
v 24 5.9 -2.5
v 24 5.8 -2.5
v 24.1 5.8 -2.5
v 24.1 5.9 -2.5
v 24.1 5.9 -2.6
v 24.1 5.8 -2.6
v 24 5.8 -2.6
v 24 5.9 -2.6
v 24.5 5.9 -2.6
v 24.5 5.8 -2.6
v 24.5 5.8 -2.5
v 24.5 5.9 -2.5
v 24.5 5.9 -2.5
v 24.5 5.8 -2.5
v 24.6 5.8 -2.5
v 24.6 5.9 -2.5
v 24.6 5.9 -2.6
v 24.6 5.8 -2.6
v 24.5 5.8 -2.6
v 24.5 5.9 -2.6
v 24.6 5.9 -2.5
v 24.6 5.8 -2.5
v 24.7 5.8 -2.5
v 24.7 5.9 -2.5
v 24.7 5.9 -2.6
v 24.7 5.8 -2.6
v 24.6 5.8 -2.6
v 24.6 5.9 -2.6
v 24.7 5.9 -2.5
v 24.7 5.8 -2.5
v 24.8 5.8 -2.5
v 24.8 5.9 -2.5
v 24.8 5.9 -2.6
v 24.8 5.8 -2.6
v 24.7 5.8 -2.6
v 24.7 5.9 -2.6
v 24.9 5.9 -2.5
v 24.9 5.8 -2.5
v 24.9 5.8 -2.6
v 24.9 5.9 -2.6
v 24.8 5.9 -2.5
v 24.8 5.8 -2.5
v 24.9 5.8 -2.5
v 24.9 5.9 -2.5
v 24.9 5.9 -2.6
v 24.9 5.8 -2.6
v 24.8 5.8 -2.6
v 24.8 5.9 -2.6
v 23.9 5.8 -2.6
v 23.9 5.7 -2.6
v 23.9 5.7 -2.5
v 23.9 5.8 -2.5
v 23.9 5.8 -2.5
v 23.9 5.7 -2.5
v 24 5.7 -2.5
v 24 5.8 -2.5
v 24 5.8 -2.6
v 24 5.7 -2.6
v 23.9 5.7 -2.6
v 23.9 5.8 -2.6
v 24.1 5.8 -2.5
v 24.1 5.7 -2.5
v 24.1 5.7 -2.6
v 24.1 5.8 -2.6
v 24 5.8 -2.5
v 24 5.7 -2.5
v 24.1 5.7 -2.5
v 24.1 5.8 -2.5
v 24.1 5.8 -2.6
v 24.1 5.7 -2.6
v 24 5.7 -2.6
v 24 5.8 -2.6
v 24.5 5.8 -2.6
v 24.5 5.7 -2.6
v 24.5 5.7 -2.5
v 24.5 5.8 -2.5
v 24.5 5.8 -2.5
v 24.5 5.7 -2.5
v 24.6 5.7 -2.5
v 24.6 5.8 -2.5
v 24.6 5.8 -2.6
v 24.6 5.7 -2.6
v 24.5 5.7 -2.6
v 24.5 5.8 -2.6
v 24.6 5.8 -2.5
v 24.6 5.7 -2.5
v 24.7 5.7 -2.5
v 24.7 5.8 -2.5
v 24.7 5.8 -2.6
v 24.7 5.7 -2.6
v 24.6 5.7 -2.6
v 24.6 5.8 -2.6
v 24.7 5.8 -2.5
v 24.7 5.7 -2.5
v 24.8 5.7 -2.5
v 24.8 5.8 -2.5
v 24.8 5.8 -2.6
v 24.8 5.7 -2.6
v 24.7 5.7 -2.6
v 24.7 5.8 -2.6
v 24.9 5.8 -2.5
v 24.9 5.7 -2.5
v 24.9 5.7 -2.6
v 24.9 5.8 -2.6
v 24.8 5.7 -2.5
v 24.8 5.7 -2.6
v 24.9 5.7 -2.6
v 24.9 5.7 -2.5
v 24.8 5.8 -2.5
v 24.8 5.7 -2.5
v 24.9 5.7 -2.5
v 24.9 5.8 -2.5
v 24.9 5.8 -2.6
v 24.9 5.7 -2.6
v 24.8 5.7 -2.6
v 24.8 5.8 -2.6
v 23.9 5.7 -2.6
v 23.9 5.6 -2.6
v 23.9 5.6 -2.5
v 23.9 5.7 -2.5
v 23.9 5.7 -2.5
v 23.9 5.6 -2.5
v 24 5.6 -2.5
v 24 5.7 -2.5
v 24 5.7 -2.6
v 24 5.6 -2.6
v 23.9 5.6 -2.6
v 23.9 5.7 -2.6
v 24.1 5.7 -2.5
v 24.1 5.6 -2.5
v 24.1 5.6 -2.6
v 24.1 5.7 -2.6
v 24 5.6 -2.5
v 24 5.6 -2.6
v 24.1 5.6 -2.6
v 24.1 5.6 -2.5
v 24 5.7 -2.5
v 24 5.6 -2.5
v 24.1 5.6 -2.5
v 24.1 5.7 -2.5
v 24.1 5.7 -2.6
v 24.1 5.6 -2.6
v 24 5.6 -2.6
v 24 5.7 -2.6
v 24.5 5.7 -2.6
v 24.5 5.6 -2.6
v 24.5 5.6 -2.5
v 24.5 5.7 -2.5
v 24.5 5.6 -2.5
v 24.5 5.6 -2.6
v 24.6 5.6 -2.6
v 24.6 5.6 -2.5
v 24.5 5.7 -2.5
v 24.5 5.6 -2.5
v 24.6 5.6 -2.5
v 24.6 5.7 -2.5
v 24.6 5.7 -2.6
v 24.6 5.6 -2.6
v 24.5 5.6 -2.6
v 24.5 5.7 -2.6
v 24.6 5.7 -2.5
v 24.6 5.6 -2.5
v 24.7 5.6 -2.5
v 24.7 5.7 -2.5
v 24.7 5.7 -2.6
v 24.7 5.6 -2.6
v 24.6 5.6 -2.6
v 24.6 5.7 -2.6
v 24.8 5.7 -2.5
v 24.8 5.6 -2.5
v 24.8 5.6 -2.6
v 24.8 5.7 -2.6
v 24.7 5.7 -2.5
v 24.7 5.6 -2.5
v 24.8 5.6 -2.5
v 24.8 5.7 -2.5
v 24.8 5.7 -2.6
v 24.8 5.6 -2.6
v 24.7 5.6 -2.6
v 24.7 5.7 -2.6
v 23.9 5.6 -2.6
v 23.9 5.5 -2.6
v 23.9 5.5 -2.5
v 23.9 5.6 -2.5
v 24 5.6 -2.5
v 24 5.5 -2.5
v 24 5.5 -2.6
v 24 5.6 -2.6
v 23.9 5.5 -2.5
v 23.9 5.5 -2.6
v 24 5.5 -2.6
v 24 5.5 -2.5
v 23.9 5.6 -2.5
v 23.9 5.5 -2.5
v 24 5.5 -2.5
v 24 5.6 -2.5
v 24 5.6 -2.6
v 24 5.5 -2.6
v 23.9 5.5 -2.6
v 23.9 5.6 -2.6
v 24.6 5.6 -2.6
v 24.6 5.5 -2.6
v 24.6 5.5 -2.5
v 24.6 5.6 -2.5
v 24.6 5.6 -2.5
v 24.6 5.5 -2.5
v 24.7 5.5 -2.5
v 24.7 5.6 -2.5
v 24.7 5.6 -2.6
v 24.7 5.5 -2.6
v 24.6 5.5 -2.6
v 24.6 5.6 -2.6
v 24.8 5.6 -2.5
v 24.8 5.5 -2.5
v 24.8 5.5 -2.6
v 24.8 5.6 -2.6
v 24.7 5.6 -2.5
v 24.7 5.5 -2.5
v 24.8 5.5 -2.5
v 24.8 5.6 -2.5
v 24.8 5.6 -2.6
v 24.8 5.5 -2.6
v 24.7 5.5 -2.6
v 24.7 5.6 -2.6
v 24.6 5.5 -2.6
v 24.6 5.4 -2.6
v 24.6 5.4 -2.5
v 24.6 5.5 -2.5
v 24.6 5.5 -2.5
v 24.6 5.4 -2.5
v 24.7 5.4 -2.5
v 24.7 5.5 -2.5
v 24.7 5.5 -2.6
v 24.7 5.4 -2.6
v 24.6 5.4 -2.6
v 24.6 5.5 -2.6
v 24.8 5.5 -2.5
v 24.8 5.4 -2.5
v 24.8 5.4 -2.6
v 24.8 5.5 -2.6
v 24.7 5.4 -2.5
v 24.7 5.4 -2.6
v 24.8 5.4 -2.6
v 24.8 5.4 -2.5
v 24.7 5.5 -2.5
v 24.7 5.4 -2.5
v 24.8 5.4 -2.5
v 24.8 5.5 -2.5
v 24.8 5.5 -2.6
v 24.8 5.4 -2.6
v 24.7 5.4 -2.6
v 24.7 5.5 -2.6
v 24.6 5.4 -2.6
v 24.6 5.3 -2.6
v 24.6 5.3 -2.5
v 24.6 5.4 -2.5
v 24.7 5.4 -2.5
v 24.7 5.3 -2.5
v 24.7 5.3 -2.6
v 24.7 5.4 -2.6
v 24.6 5.3 -2.5
v 24.6 5.3 -2.6
v 24.7 5.3 -2.6
v 24.7 5.3 -2.5
v 24.6 5.4 -2.5
v 24.6 5.3 -2.5
v 24.7 5.3 -2.5
v 24.7 5.4 -2.5
v 24.7 5.4 -2.6
v 24.7 5.3 -2.6
v 24.6 5.3 -2.6
v 24.6 5.4 -2.6

# faces
f 1/2/1 2/2/1 3/2/1 4/2/1
f 5/2/3 6/2/3 7/2/3 8/2/3
f 9/2/5 10/2/5 11/2/5 12/2/5
f 13/2/6 14/2/6 15/2/6 16/2/6
f 17/2/3 18/2/3 19/2/3 20/2/3
f 21/2/4 22/2/4 23/2/4 24/2/4
f 25/2/5 26/2/5 27/2/5 28/2/5
f 29/2/6 30/2/6 31/2/6 32/2/6
f 33/2/3 34/2/3 35/2/3 36/2/3
f 37/2/4 38/2/4 39/2/4 40/2/4
f 41/2/5 42/2/5 43/2/5 44/2/5
f 45/2/6 46/2/6 47/2/6 48/2/6
f 49/2/3 50/2/3 51/2/3 52/2/3
f 53/2/4 54/2/4 55/2/4 56/2/4
f 57/2/5 58/2/5 59/2/5 60/2/5
f 61/2/6 62/2/6 63/2/6 64/2/6
f 65/2/2 66/2/2 67/2/2 68/2/2
f 69/2/3 70/2/3 71/2/3 72/2/3
f 73/2/5 74/2/5 75/2/5 76/2/5
f 77/2/6 78/2/6 79/2/6 80/2/6
f 81/2/1 82/2/1 83/2/1 84/2/1
f 85/2/3 86/2/3 87/2/3 88/2/3
f 89/2/4 90/2/4 91/2/4 92/2/4
f 93/2/5 94/2/5 95/2/5 96/2/5
f 97/2/6 98/2/6 99/2/6 100/2/6
f 101/2/3 102/2/3 103/2/3 104/2/3
f 105/2/4 106/2/4 107/2/4 108/2/4
f 109/2/5 110/2/5 111/2/5 112/2/5
f 113/2/6 114/2/6 115/2/6 116/2/6
f 117/2/3 118/2/3 119/2/3 120/2/3
f 121/2/4 122/2/4 123/2/4 124/2/4
f 125/2/5 126/2/5 127/2/5 128/2/5
f 129/2/6 130/2/6 131/2/6 132/2/6
f 133/2/2 134/2/2 135/2/2 136/2/2
f 137/2/4 138/2/4 139/2/4 140/2/4
f 141/2/5 142/2/5 143/2/5 144/2/5
f 145/2/6 146/2/6 147/2/6 148/2/6
f 149/2/1 150/2/1 151/2/1 152/2/1
f 153/2/4 154/2/4 155/2/4 156/2/4
f 157/2/5 158/2/5 159/2/5 160/2/5
f 161/2/6 162/2/6 163/2/6 164/2/6
f 165/2/3 166/2/3 167/2/3 168/2/3
f 169/2/4 170/2/4 171/2/4 172/2/4
f 173/2/5 174/2/5 175/2/5 176/2/5
f 177/2/6 178/2/6 179/2/6 180/2/6
f 181/2/3 182/2/3 183/2/3 184/2/3
f 185/2/4 186/2/4 187/2/4 188/2/4
f 189/2/5 190/2/5 191/2/5 192/2/5
f 193/2/6 194/2/6 195/2/6 196/2/6
f 197/2/2 198/2/2 199/2/2 200/2/2
f 201/2/3 202/2/3 203/2/3 204/2/3
f 205/2/4 206/2/4 207/2/4 208/2/4
f 209/2/5 210/2/5 211/2/5 212/2/5
f 213/2/6 214/2/6 215/2/6 216/2/6
f 217/2/1 218/2/1 219/2/1 220/2/1
f 221/2/3 222/2/3 223/2/3 224/2/3
f 225/2/5 226/2/5 227/2/5 228/2/5
f 229/2/6 230/2/6 231/2/6 232/2/6
f 233/2/3 234/2/3 235/2/3 236/2/3
f 237/2/5 238/2/5 239/2/5 240/2/5
f 241/2/6 242/2/6 243/2/6 244/2/6
f 245/2/3 246/2/3 247/2/3 248/2/3
f 249/2/4 250/2/4 251/2/4 252/2/4
f 253/2/5 254/2/5 255/2/5 256/2/5
f 257/2/6 258/2/6 259/2/6 260/2/6
f 261/2/2 262/2/2 263/2/2 264/2/2
f 265/2/3 266/2/3 267/2/3 268/2/3
f 269/2/4 270/2/4 271/2/4 272/2/4
f 273/2/5 274/2/5 275/2/5 276/2/5
f 277/2/6 278/2/6 279/2/6 280/2/6
f 281/2/1 282/2/1 283/2/1 284/2/1
f 285/2/3 286/2/3 287/2/3 288/2/3
f 289/2/4 290/2/4 291/2/4 292/2/4
f 293/2/5 294/2/5 295/2/5 296/2/5
f 297/2/6 298/2/6 299/2/6 300/2/6
f 301/2/3 302/2/3 303/2/3 304/2/3
f 305/2/5 306/2/5 307/2/5 308/2/5
f 309/2/6 310/2/6 311/2/6 312/2/6
f 313/2/2 314/2/2 315/2/2 316/2/2
f 317/2/3 318/2/3 319/2/3 320/2/3
f 321/2/5 322/2/5 323/2/5 324/2/5
f 325/2/6 326/2/6 327/2/6 328/2/6
f 329/2/1 330/2/1 331/2/1 332/2/1
f 333/2/3 334/2/3 335/2/3 336/2/3
f 337/2/5 338/2/5 339/2/5 340/2/5
f 341/2/6 342/2/6 343/2/6 344/2/6
f 345/2/3 346/2/3 347/2/3 348/2/3
f 349/2/5 350/2/5 351/2/5 352/2/5
f 353/2/6 354/2/6 355/2/6 356/2/6
f 357/2/4 358/2/4 359/2/4 360/2/4
f 361/2/5 362/2/5 363/2/5 364/2/5
f 365/2/6 366/2/6 367/2/6 368/2/6
f 369/2/2 370/2/2 371/2/2 372/2/2
f 373/2/4 374/2/4 375/2/4 376/2/4
f 377/2/5 378/2/5 379/2/5 380/2/5
f 381/2/6 382/2/6 383/2/6 384/2/6
f 385/2/1 386/2/1 387/2/1 388/2/1
f 389/2/4 390/2/4 391/2/4 392/2/4
f 393/2/5 394/2/5 395/2/5 396/2/5
f 397/2/6 398/2/6 399/2/6 400/2/6
f 401/2/4 402/2/4 403/2/4 404/2/4
f 405/2/5 406/2/5 407/2/5 408/2/5
f 409/2/6 410/2/6 411/2/6 412/2/6
f 413/2/2 414/2/2 415/2/2 416/2/2
f 417/2/3 418/2/3 419/2/3 420/2/3
f 421/2/4 422/2/4 423/2/4 424/2/4
f 425/2/5 426/2/5 427/2/5 428/2/5
f 429/2/6 430/2/6 431/2/6 432/2/6
f 433/2/1 434/2/1 435/2/1 436/2/1
f 437/2/3 438/2/3 439/2/3 440/2/3
f 441/2/5 442/2/5 443/2/5 444/2/5
f 445/2/6 446/2/6 447/2/6 448/2/6
f 449/2/4 450/2/4 451/2/4 452/2/4
f 453/2/5 454/2/5 455/2/5 456/2/5
f 457/2/6 458/2/6 459/2/6 460/2/6
f 461/2/2 462/2/2 463/2/2 464/2/2
f 465/2/4 466/2/4 467/2/4 468/2/4
f 469/2/5 470/2/5 471/2/5 472/2/5
f 473/2/6 474/2/6 475/2/6 476/2/6
f 477/2/1 478/2/1 479/2/1 480/2/1
f 481/2/3 482/2/3 483/2/3 484/2/3
f 485/2/4 486/2/4 487/2/4 488/2/4
f 489/2/5 490/2/5 491/2/5 492/2/5
f 493/2/6 494/2/6 495/2/6 496/2/6
f 497/2/2 498/2/2 499/2/2 500/2/2
f 501/2/3 502/2/3 503/2/3 504/2/3
f 505/2/4 506/2/4 507/2/4 508/2/4
f 509/2/5 510/2/5 511/2/5 512/2/5
f 513/2/6 514/2/6 515/2/6 516/2/6
f 517/2/1 518/2/1 519/2/1 520/2/1
f 521/2/3 522/2/3 523/2/3 524/2/3
f 525/2/4 526/2/4 527/2/4 528/2/4
f 529/2/5 530/2/5 531/2/5 532/2/5
f 533/2/6 534/2/6 535/2/6 536/2/6
f 537/2/2 538/2/2 539/2/2 540/2/2
f 541/2/4 542/2/4 543/2/4 544/2/4
f 545/2/5 546/2/5 547/2/5 548/2/5
f 549/2/6 550/2/6 551/2/6 552/2/6
f 553/2/1 554/2/1 555/2/1 556/2/1
f 557/2/3 558/2/3 559/2/3 560/2/3
f 561/2/4 562/2/4 563/2/4 564/2/4
f 565/2/5 566/2/5 567/2/5 568/2/5
f 569/2/6 570/2/6 571/2/6 572/2/6
f 573/2/2 574/2/2 575/2/2 576/2/2
f 577/2/3 578/2/3 579/2/3 580/2/3
f 581/2/4 582/2/4 583/2/4 584/2/4
f 585/2/5 586/2/5 587/2/5 588/2/5
f 589/2/6 590/2/6 591/2/6 592/2/6
f 593/2/1 594/2/1 595/2/1 596/2/1
f 597/2/2 598/2/2 599/2/2 600/2/2
f 601/2/3 602/2/3 603/2/3 604/2/3
f 605/2/4 606/2/4 607/2/4 608/2/4
f 609/2/5 610/2/5 611/2/5 612/2/5
f 613/2/6 614/2/6 615/2/6 616/2/6
f 617/2/1 618/2/1 619/2/1 620/2/1
f 621/2/2 622/2/2 623/2/2 624/2/2
f 625/2/3 626/2/3 627/2/3 628/2/3
f 629/2/4 630/2/4 631/2/4 632/2/4
f 633/2/5 634/2/5 635/2/5 636/2/5
f 637/2/6 638/2/6 639/2/6 640/2/6
f 641/2/1 642/2/1 643/2/1 644/2/1
f 645/2/2 646/2/2 647/2/2 648/2/2
f 649/2/3 650/2/3 651/2/3 652/2/3
f 653/2/5 654/2/5 655/2/5 656/2/5
f 657/2/6 658/2/6 659/2/6 660/2/6
f 661/2/1 662/2/1 663/2/1 664/2/1
f 665/2/2 666/2/2 667/2/2 668/2/2
f 669/2/3 670/2/3 671/2/3 672/2/3
f 673/2/4 674/2/4 675/2/4 676/2/4
f 677/2/5 678/2/5 679/2/5 680/2/5
f 681/2/6 682/2/6 683/2/6 684/2/6
f 685/2/1 686/2/1 687/2/1 688/2/1
f 689/2/4 690/2/4 691/2/4 692/2/4
f 693/2/5 694/2/5 695/2/5 696/2/5
f 697/2/6 698/2/6 699/2/6 700/2/6
f 701/2/2 702/2/2 703/2/2 704/2/2
f 705/2/3 706/2/3 707/2/3 708/2/3
f 709/2/5 710/2/5 711/2/5 712/2/5
f 713/2/6 714/2/6 715/2/6 716/2/6
f 717/2/1 718/2/1 719/2/1 720/2/1
f 721/2/3 722/2/3 723/2/3 724/2/3
f 725/2/4 726/2/4 727/2/4 728/2/4
f 729/2/5 730/2/5 731/2/5 732/2/5
f 733/2/6 734/2/6 735/2/6 736/2/6
f 737/2/3 738/2/3 739/2/3 740/2/3
f 741/2/4 742/2/4 743/2/4 744/2/4
f 745/2/5 746/2/5 747/2/5 748/2/5
f 749/2/6 750/2/6 751/2/6 752/2/6
f 753/2/2 754/2/2 755/2/2 756/2/2
f 757/2/3 758/2/3 759/2/3 760/2/3
f 761/2/4 762/2/4 763/2/4 764/2/4
f 765/2/5 766/2/5 767/2/5 768/2/5
f 769/2/6 770/2/6 771/2/6 772/2/6
f 773/2/1 774/2/1 775/2/1 776/2/1
f 777/2/2 778/2/2 779/2/2 780/2/2
f 781/2/3 782/2/3 783/2/3 784/2/3
f 785/2/5 786/2/5 787/2/5 788/2/5
f 789/2/6 790/2/6 791/2/6 792/2/6
f 793/2/1 794/2/1 795/2/1 796/2/1
f 797/2/2 798/2/2 799/2/2 800/2/2
f 801/2/3 802/2/3 803/2/3 804/2/3
f 805/2/4 806/2/4 807/2/4 808/2/4
f 809/2/5 810/2/5 811/2/5 812/2/5
f 813/2/6 814/2/6 815/2/6 816/2/6
f 817/2/1 818/2/1 819/2/1 820/2/1
f 821/2/4 822/2/4 823/2/4 824/2/4
f 825/2/5 826/2/5 827/2/5 828/2/5
f 829/2/6 830/2/6 831/2/6 832/2/6
f 833/2/2 834/2/2 835/2/2 836/2/2
f 837/2/3 838/2/3 839/2/3 840/2/3
f 841/2/5 842/2/5 843/2/5 844/2/5
f 845/2/6 846/2/6 847/2/6 848/2/6
f 849/2/1 850/2/1 851/2/1 852/2/1
f 853/2/3 854/2/3 855/2/3 856/2/3
f 857/2/4 858/2/4 859/2/4 860/2/4
f 861/2/5 862/2/5 863/2/5 864/2/5
f 865/2/6 866/2/6 867/2/6 868/2/6
f 869/2/2 870/2/2 871/2/2 872/2/2
f 873/2/3 874/2/3 875/2/3 876/2/3
f 877/2/5 878/2/5 879/2/5 880/2/5
f 881/2/6 882/2/6 883/2/6 884/2/6
f 885/2/1 886/2/1 887/2/1 888/2/1
f 889/2/2 890/2/2 891/2/2 892/2/2
f 893/2/5 894/2/5 895/2/5 896/2/5
f 897/2/6 898/2/6 899/2/6 900/2/6
f 901/2/1 902/2/1 903/2/1 904/2/1
f 905/2/2 906/2/2 907/2/2 908/2/2
f 909/2/3 910/2/3 911/2/3 912/2/3
f 913/2/5 914/2/5 915/2/5 916/2/5
f 917/2/6 918/2/6 919/2/6 920/2/6
f 921/2/1 922/2/1 923/2/1 924/2/1
f 925/2/2 926/2/2 927/2/2 928/2/2
f 929/2/5 930/2/5 931/2/5 932/2/5
f 933/2/6 934/2/6 935/2/6 936/2/6
f 937/2/1 938/2/1 939/2/1 940/2/1
f 941/2/4 942/2/4 943/2/4 944/2/4
f 945/2/5 946/2/5 947/2/5 948/2/5
f 949/2/6 950/2/6 951/2/6 952/2/6
f 953/2/2 954/2/2 955/2/2 956/2/2
f 957/2/3 958/2/3 959/2/3 960/2/3
f 961/2/5 962/2/5 963/2/5 964/2/5
f 965/2/6 966/2/6 967/2/6 968/2/6
f 969/2/1 970/2/1 971/2/1 972/2/1
f 973/2/2 974/2/2 975/2/2 976/2/2
f 977/2/4 978/2/4 979/2/4 980/2/4
f 981/2/5 982/2/5 983/2/5 984/2/5
f 985/2/6 986/2/6 987/2/6 988/2/6
f 989/2/1 990/2/1 991/2/1 992/2/1
f 993/2/2 994/2/2 995/2/2 996/2/2
f 997/2/4 998/2/4 999/2/4 1000/2/4
f 1001/2/5 1002/2/5 1003/2/5 1004/2/5
f 1005/2/6 1006/2/6 1007/2/6 1008/2/6
f 1009/2/1 1010/2/1 1011/2/1 1012/2/1
f 1013/2/2 1014/2/2 1015/2/2 1016/2/2
f 1017/2/4 1018/2/4 1019/2/4 1020/2/4
f 1021/2/5 1022/2/5 1023/2/5 1024/2/5
f 1025/2/6 1026/2/6 1027/2/6 1028/2/6
f 1029/2/1 1030/2/1 1031/2/1 1032/2/1
f 1033/2/2 1034/2/2 1035/2/2 1036/2/2
f 1037/2/3 1038/2/3 1039/2/3 1040/2/3
f 1041/2/4 1042/2/4 1043/2/4 1044/2/4
f 1045/2/5 1046/2/5 1047/2/5 1048/2/5
f 1049/2/6 1050/2/6 1051/2/6 1052/2/6
f 1053/2/1 1054/2/1 1055/2/1 1056/2/1
f 1057/2/4 1058/2/4 1059/2/4 1060/2/4
f 1061/2/5 1062/2/5 1063/2/5 1064/2/5
f 1065/2/6 1066/2/6 1067/2/6 1068/2/6
f 1069/2/2 1070/2/2 1071/2/2 1072/2/2
f 1073/2/3 1074/2/3 1075/2/3 1076/2/3
f 1077/2/5 1078/2/5 1079/2/5 1080/2/5
f 1081/2/6 1082/2/6 1083/2/6 1084/2/6
f 1085/2/1 1086/2/1 1087/2/1 1088/2/1
f 1089/2/2 1090/2/2 1091/2/2 1092/2/2
f 1093/2/3 1094/2/3 1095/2/3 1096/2/3
f 1097/2/4 1098/2/4 1099/2/4 1100/2/4
f 1101/2/5 1102/2/5 1103/2/5 1104/2/5
f 1105/2/6 1106/2/6 1107/2/6 1108/2/6
f 1109/2/1 1110/2/1 1111/2/1 1112/2/1
f 1113/2/5 1114/2/5 1115/2/5 1116/2/5
f 1117/2/6 1118/2/6 1119/2/6 1120/2/6
f 1121/2/2 1122/2/2 1123/2/2 1124/2/2
f 1125/2/3 1126/2/3 1127/2/3 1128/2/3
f 1129/2/5 1130/2/5 1131/2/5 1132/2/5
f 1133/2/6 1134/2/6 1135/2/6 1136/2/6
f 1137/2/1 1138/2/1 1139/2/1 1140/2/1
f 1141/2/2 1142/2/2 1143/2/2 1144/2/2
f 1145/2/3 1146/2/3 1147/2/3 1148/2/3
f 1149/2/4 1150/2/4 1151/2/4 1152/2/4
f 1153/2/5 1154/2/5 1155/2/5 1156/2/5
f 1157/2/6 1158/2/6 1159/2/6 1160/2/6
f 1161/2/1 1162/2/1 1163/2/1 1164/2/1
f 1165/2/4 1166/2/4 1167/2/4 1168/2/4
f 1169/2/5 1170/2/5 1171/2/5 1172/2/5
f 1173/2/6 1174/2/6 1175/2/6 1176/2/6
f 1177/2/2 1178/2/2 1179/2/2 1180/2/2
f 1181/2/5 1182/2/5 1183/2/5 1184/2/5
f 1185/2/6 1186/2/6 1187/2/6 1188/2/6
f 1189/2/1 1190/2/1 1191/2/1 1192/2/1
f 1193/2/2 1194/2/2 1195/2/2 1196/2/2
f 1197/2/3 1198/2/3 1199/2/3 1200/2/3
f 1201/2/4 1202/2/4 1203/2/4 1204/2/4
f 1205/2/5 1206/2/5 1207/2/5 1208/2/5
f 1209/2/6 1210/2/6 1211/2/6 1212/2/6
f 1213/2/1 1214/2/1 1215/2/1 1216/2/1
f 1217/2/5 1218/2/5 1219/2/5 1220/2/5
f 1221/2/6 1222/2/6 1223/2/6 1224/2/6
f 1225/2/2 1226/2/2 1227/2/2 1228/2/2
f 1229/2/3 1230/2/3 1231/2/3 1232/2/3
f 1233/2/5 1234/2/5 1235/2/5 1236/2/5
f 1237/2/6 1238/2/6 1239/2/6 1240/2/6
f 1241/2/1 1242/2/1 1243/2/1 1244/2/1
f 1245/2/2 1246/2/2 1247/2/2 1248/2/2
f 1249/2/3 1250/2/3 1251/2/3 1252/2/3
f 1253/2/4 1254/2/4 1255/2/4 1256/2/4
f 1257/2/5 1258/2/5 1259/2/5 1260/2/5
f 1261/2/6 1262/2/6 1263/2/6 1264/2/6
f 1265/2/1 1266/2/1 1267/2/1 1268/2/1
f 1269/2/4 1270/2/4 1271/2/4 1272/2/4
f 1273/2/5 1274/2/5 1275/2/5 1276/2/5
f 1277/2/6 1278/2/6 1279/2/6 1280/2/6
f 1281/2/2 1282/2/2 1283/2/2 1284/2/2
f 1285/2/5 1286/2/5 1287/2/5 1288/2/5
f 1289/2/6 1290/2/6 1291/2/6 1292/2/6
f 1293/2/1 1294/2/1 1295/2/1 1296/2/1
f 1297/2/2 1298/2/2 1299/2/2 1300/2/2
f 1301/2/3 1302/2/3 1303/2/3 1304/2/3
f 1305/2/5 1306/2/5 1307/2/5 1308/2/5
f 1309/2/6 1310/2/6 1311/2/6 1312/2/6
f 1313/2/1 1314/2/1 1315/2/1 1316/2/1
f 1317/2/2 1318/2/2 1319/2/2 1320/2/2
f 1321/2/5 1322/2/5 1323/2/5 1324/2/5
f 1325/2/6 1326/2/6 1327/2/6 1328/2/6
f 1329/2/1 1330/2/1 1331/2/1 1332/2/1
f 1333/2/2 1334/2/2 1335/2/2 1336/2/2
f 1337/2/4 1338/2/4 1339/2/4 1340/2/4
f 1341/2/5 1342/2/5 1343/2/5 1344/2/5
f 1345/2/6 1346/2/6 1347/2/6 1348/2/6
f 1349/2/1 1350/2/1 1351/2/1 1352/2/1
f 1353/2/2 1354/2/2 1355/2/2 1356/2/2
f 1357/2/5 1358/2/5 1359/2/5 1360/2/5
f 1361/2/6 1362/2/6 1363/2/6 1364/2/6
f 1365/2/1 1366/2/1 1367/2/1 1368/2/1
f 1369/2/3 1370/2/3 1371/2/3 1372/2/3
f 1373/2/5 1374/2/5 1375/2/5 1376/2/5
f 1377/2/6 1378/2/6 1379/2/6 1380/2/6
f 1381/2/2 1382/2/2 1383/2/2 1384/2/2
f 1385/2/5 1386/2/5 1387/2/5 1388/2/5
f 1389/2/6 1390/2/6 1391/2/6 1392/2/6
f 1393/2/1 1394/2/1 1395/2/1 1396/2/1
f 1397/2/5 1398/2/5 1399/2/5 1400/2/5
f 1401/2/6 1402/2/6 1403/2/6 1404/2/6
f 1405/2/2 1406/2/2 1407/2/2 1408/2/2
f 1409/2/5 1410/2/5 1411/2/5 1412/2/5
f 1413/2/6 1414/2/6 1415/2/6 1416/2/6
f 1417/2/1 1418/2/1 1419/2/1 1420/2/1
f 1421/2/5 1422/2/5 1423/2/5 1424/2/5
f 1425/2/6 1426/2/6 1427/2/6 1428/2/6
f 1429/2/2 1430/2/2 1431/2/2 1432/2/2
f 1433/2/4 1434/2/4 1435/2/4 1436/2/4
f 1437/2/5 1438/2/5 1439/2/5 1440/2/5
f 1441/2/6 1442/2/6 1443/2/6 1444/2/6
f 1445/2/1 1446/2/1 1447/2/1 1448/2/1
f 1449/2/2 1450/2/2 1451/2/2 1452/2/2
f 1453/2/5 1454/2/5 1455/2/5 1456/2/5
f 1457/2/6 1458/2/6 1459/2/6 1460/2/6
f 1461/2/1 1462/2/1 1463/2/1 1464/2/1
f 1465/2/2 1466/2/2 1467/2/2 1468/2/2
f 1469/2/4 1470/2/4 1471/2/4 1472/2/4
f 1473/2/5 1474/2/5 1475/2/5 1476/2/5
f 1477/2/6 1478/2/6 1479/2/6 1480/2/6
f 1481/3/1 1482/3/1 1483/3/1 1484/3/1
f 1485/3/2 1486/3/2 1487/3/2 1488/3/2
f 1489/3/3 1490/3/3 1491/3/3 1492/3/3
f 1493/3/5 1494/3/5 1495/3/5 1496/3/5
f 1497/3/6 1498/3/6 1499/3/6 1500/3/6
f 1501/1/1 1502/1/1 1503/1/1 1504/1/1
f 1505/1/2 1506/1/2 1507/1/2 1508/1/2
f 1509/1/5 1510/1/5 1511/1/5 1512/1/5
f 1513/1/6 1514/1/6 1515/1/6 1516/1/6
f 1517/1/1 1518/1/1 1519/1/1 1520/1/1
f 1521/1/2 1522/1/2 1523/1/2 1524/1/2
f 1525/1/5 1526/1/5 1527/1/5 1528/1/5
f 1529/1/6 1530/1/6 1531/1/6 1532/1/6
f 1533/3/1 1534/3/1 1535/3/1 1536/3/1
f 1537/3/2 1538/3/2 1539/3/2 1540/3/2
f 1541/3/3 1542/3/3 1543/3/3 1544/3/3
f 1545/3/5 1546/3/5 1547/3/5 1548/3/5
f 1549/3/6 1550/3/6 1551/3/6 1552/3/6
f 1553/1/1 1554/1/1 1555/1/1 1556/1/1
f 1557/1/2 1558/1/2 1559/1/2 1560/1/2
f 1561/1/5 1562/1/5 1563/1/5 1564/1/5
f 1565/1/6 1566/1/6 1567/1/6 1568/1/6
f 1569/1/1 1570/1/1 1571/1/1 1572/1/1
f 1573/1/2 1574/1/2 1575/1/2 1576/1/2
f 1577/1/5 1578/1/5 1579/1/5 1580/1/5
f 1581/1/6 1582/1/6 1583/1/6 1584/1/6
f 1585/1/1 1586/1/1 1587/1/1 1588/1/1
f 1589/1/5 1590/1/5 1591/1/5 1592/1/5
f 1593/1/6 1594/1/6 1595/1/6 1596/1/6
f 1597/3/2 1598/3/2 1599/3/2 1600/3/2
f 1601/3/3 1602/3/3 1603/3/3 1604/3/3
f 1605/3/5 1606/3/5 1607/3/5 1608/3/5
f 1609/3/6 1610/3/6 1611/3/6 1612/3/6
f 1613/1/1 1614/1/1 1615/1/1 1616/1/1
f 1617/1/2 1618/1/2 1619/1/2 1620/1/2
f 1621/1/5 1622/1/5 1623/1/5 1624/1/5
f 1625/1/6 1626/1/6 1627/1/6 1628/1/6
f 1629/1/1 1630/1/1 1631/1/1 1632/1/1
f 1633/1/5 1634/1/5 1635/1/5 1636/1/5
f 1637/1/6 1638/1/6 1639/1/6 1640/1/6
f 1641/1/2 1642/1/2 1643/1/2 1644/1/2
f 1645/1/5 1646/1/5 1647/1/5 1648/1/5
f 1649/1/6 1650/1/6 1651/1/6 1652/1/6
f 1653/1/1 1654/1/1 1655/1/1 1656/1/1
f 1657/1/2 1658/1/2 1659/1/2 1660/1/2
f 1661/1/5 1662/1/5 1663/1/5 1664/1/5
f 1665/1/6 1666/1/6 1667/1/6 1668/1/6
f 1669/3/1 1670/3/1 1671/3/1 1672/3/1
f 1673/3/3 1674/3/3 1675/3/3 1676/3/3
f 1677/3/5 1678/3/5 1679/3/5 1680/3/5
f 1681/3/6 1682/3/6 1683/3/6 1684/3/6
f 1685/1/5 1686/1/5 1687/1/5 1688/1/5
f 1689/1/6 1690/1/6 1691/1/6 1692/1/6
f 1693/1/2 1694/1/2 1695/1/2 1696/1/2
f 1697/1/5 1698/1/5 1699/1/5 1700/1/5
f 1701/1/6 1702/1/6 1703/1/6 1704/1/6
f 1705/3/1 1706/3/1 1707/3/1 1708/3/1
f 1709/3/3 1710/3/3 1711/3/3 1712/3/3
f 1713/3/5 1714/3/5 1715/3/5 1716/3/5
f 1717/3/6 1718/3/6 1719/3/6 1720/3/6
f 1721/1/2 1722/1/2 1723/1/2 1724/1/2
f 1725/1/5 1726/1/5 1727/1/5 1728/1/5
f 1729/1/6 1730/1/6 1731/1/6 1732/1/6
f 1733/1/1 1734/1/1 1735/1/1 1736/1/1
f 1737/1/5 1738/1/5 1739/1/5 1740/1/5
f 1741/1/6 1742/1/6 1743/1/6 1744/1/6
f 1745/1/5 1746/1/5 1747/1/5 1748/1/5
f 1749/1/6 1750/1/6 1751/1/6 1752/1/6
f 1753/1/2 1754/1/2 1755/1/2 1756/1/2
f 1757/1/5 1758/1/5 1759/1/5 1760/1/5
f 1761/1/6 1762/1/6 1763/1/6 1764/1/6
f 1765/1/1 1766/1/1 1767/1/1 1768/1/1
f 1769/1/5 1770/1/5 1771/1/5 1772/1/5
f 1773/1/6 1774/1/6 1775/1/6 1776/1/6
f 1777/1/2 1778/1/2 1779/1/2 1780/1/2
f 1781/1/5 1782/1/5 1783/1/5 1784/1/5
f 1785/1/6 1786/1/6 1787/1/6 1788/1/6
f 1789/1/1 1790/1/1 1791/1/1 1792/1/1
f 1793/1/5 1794/1/5 1795/1/5 1796/1/5
f 1797/1/6 1798/1/6 1799/1/6 1800/1/6
f 1801/1/5 1802/1/5 1803/1/5 1804/1/5
f 1805/1/6 1806/1/6 1807/1/6 1808/1/6
f 1809/1/2 1810/1/2 1811/1/2 1812/1/2
f 1813/1/5 1814/1/5 1815/1/5 1816/1/5
f 1817/1/6 1818/1/6 1819/1/6 1820/1/6
f 1821/1/1 1822/1/1 1823/1/1 1824/1/1
f 1825/1/5 1826/1/5 1827/1/5 1828/1/5
f 1829/1/6 1830/1/6 1831/1/6 1832/1/6
f 1833/1/2 1834/1/2 1835/1/2 1836/1/2
f 1837/1/5 1838/1/5 1839/1/5 1840/1/5
f 1841/1/6 1842/1/6 1843/1/6 1844/1/6
f 1845/3/1 1846/3/1 1847/3/1 1848/3/1
f 1849/3/3 1850/3/3 1851/3/3 1852/3/3
f 1853/3/5 1854/3/5 1855/3/5 1856/3/5
f 1857/3/6 1858/3/6 1859/3/6 1860/3/6
f 1861/1/5 1862/1/5 1863/1/5 1864/1/5
f 1865/1/6 1866/1/6 1867/1/6 1868/1/6
f 1869/1/5 1870/1/5 1871/1/5 1872/1/5
f 1873/1/6 1874/1/6 1875/1/6 1876/1/6
f 1877/1/2 1878/1/2 1879/1/2 1880/1/2
f 1881/1/5 1882/1/5 1883/1/5 1884/1/5
f 1885/1/6 1886/1/6 1887/1/6 1888/1/6
f 1889/1/1 1890/1/1 1891/1/1 1892/1/1
f 1893/1/5 1894/1/5 1895/1/5 1896/1/5
f 1897/1/6 1898/1/6 1899/1/6 1900/1/6
f 1901/1/2 1902/1/2 1903/1/2 1904/1/2
f 1905/1/5 1906/1/5 1907/1/5 1908/1/5
f 1909/1/6 1910/1/6 1911/1/6 1912/1/6
f 1913/1/1 1914/1/1 1915/1/1 1916/1/1
f 1917/1/5 1918/1/5 1919/1/5 1920/1/5
f 1921/1/6 1922/1/6 1923/1/6 1924/1/6
f 1925/1/5 1926/1/5 1927/1/5 1928/1/5
f 1929/1/6 1930/1/6 1931/1/6 1932/1/6
f 1933/1/5 1934/1/5 1935/1/5 1936/1/5
f 1937/1/6 1938/1/6 1939/1/6 1940/1/6
f 1941/1/2 1942/1/2 1943/1/2 1944/1/2
f 1945/1/5 1946/1/5 1947/1/5 1948/1/5
f 1949/1/6 1950/1/6 1951/1/6 1952/1/6
f 1953/1/1 1954/1/1 1955/1/1 1956/1/1
f 1957/1/5 1958/1/5 1959/1/5 1960/1/5
f 1961/1/6 1962/1/6 1963/1/6 1964/1/6
f 1965/1/5 1966/1/5 1967/1/5 1968/1/5
f 1969/1/6 1970/1/6 1971/1/6 1972/1/6
f 1973/3/2 1974/3/2 1975/3/2 1976/3/2
f 1977/3/3 1978/3/3 1979/3/3 1980/3/3
f 1981/3/5 1982/3/5 1983/3/5 1984/3/5
f 1985/3/6 1986/3/6 1987/3/6 1988/3/6
f 1989/1/1 1990/1/1 1991/1/1 1992/1/1
f 1993/1/5 1994/1/5 1995/1/5 1996/1/5
f 1997/1/6 1998/1/6 1999/1/6 2000/1/6
f 2001/1/5 2002/1/5 2003/1/5 2004/1/5
f 2005/1/6 2006/1/6 2007/1/6 2008/1/6
f 2009/3/4 2010/3/4 2011/3/4 2012/3/4
f 2013/3/5 2014/3/5 2015/3/5 2016/3/5
f 2017/3/6 2018/3/6 2019/3/6 2020/3/6
f 2021/1/5 2022/1/5 2023/1/5 2024/1/5
f 2025/1/6 2026/1/6 2027/1/6 2028/1/6
f 2029/3/2 2030/3/2 2031/3/2 2032/3/2
f 2033/3/3 2034/3/3 2035/3/3 2036/3/3
f 2037/3/5 2038/3/5 2039/3/5 2040/3/5
f 2041/3/6 2042/3/6 2043/3/6 2044/3/6
f 2045/3/1 2046/3/1 2047/3/1 2048/3/1
f 2049/3/3 2050/3/3 2051/3/3 2052/3/3
f 2053/3/5 2054/3/5 2055/3/5 2056/3/5
f 2057/3/6 2058/3/6 2059/3/6 2060/3/6
f 2061/1/5 2062/1/5 2063/1/5 2064/1/5
f 2065/1/6 2066/1/6 2067/1/6 2068/1/6
f 2069/1/5 2070/1/5 2071/1/5 2072/1/5
f 2073/1/6 2074/1/6 2075/1/6 2076/1/6
f 2077/1/2 2078/1/2 2079/1/2 2080/1/2
f 2081/1/5 2082/1/5 2083/1/5 2084/1/5
f 2085/1/6 2086/1/6 2087/1/6 2088/1/6
f 2089/3/1 2090/3/1 2091/3/1 2092/3/1
f 2093/3/3 2094/3/3 2095/3/3 2096/3/3
f 2097/3/5 2098/3/5 2099/3/5 2100/3/5
f 2101/3/6 2102/3/6 2103/3/6 2104/3/6
f 2105/1/5 2106/1/5 2107/1/5 2108/1/5
f 2109/1/6 2110/1/6 2111/1/6 2112/1/6
f 2113/1/2 2114/1/2 2115/1/2 2116/1/2
f 2117/1/5 2118/1/5 2119/1/5 2120/1/5
f 2121/1/6 2122/1/6 2123/1/6 2124/1/6
f 2125/1/1 2126/1/1 2127/1/1 2128/1/1
f 2129/1/5 2130/1/5 2131/1/5 2132/1/5
f 2133/1/6 2134/1/6 2135/1/6 2136/1/6
f 2137/1/2 2138/1/2 2139/1/2 2140/1/2
f 2141/1/5 2142/1/5 2143/1/5 2144/1/5
f 2145/1/6 2146/1/6 2147/1/6 2148/1/6
f 2149/1/1 2150/1/1 2151/1/1 2152/1/1
f 2153/1/5 2154/1/5 2155/1/5 2156/1/5
f 2157/1/6 2158/1/6 2159/1/6 2160/1/6
f 2161/1/5 2162/1/5 2163/1/5 2164/1/5
f 2165/1/6 2166/1/6 2167/1/6 2168/1/6
f 2169/1/5 2170/1/5 2171/1/5 2172/1/5
f 2173/1/6 2174/1/6 2175/1/6 2176/1/6
f 2177/1/2 2178/1/2 2179/1/2 2180/1/2
f 2181/1/5 2182/1/5 2183/1/5 2184/1/5
f 2185/1/6 2186/1/6 2187/1/6 2188/1/6
f 2189/1/1 2190/1/1 2191/1/1 2192/1/1
f 2193/1/5 2194/1/5 2195/1/5 2196/1/5
f 2197/1/6 2198/1/6 2199/1/6 2200/1/6
f 2201/1/5 2202/1/5 2203/1/5 2204/1/5
f 2205/1/6 2206/1/6 2207/1/6 2208/1/6
f 2209/1/2 2210/1/2 2211/1/2 2212/1/2
f 2213/1/5 2214/1/5 2215/1/5 2216/1/5
f 2217/1/6 2218/1/6 2219/1/6 2220/1/6
f 2221/1/1 2222/1/1 2223/1/1 2224/1/1
f 2225/1/5 2226/1/5 2227/1/5 2228/1/5
f 2229/1/6 2230/1/6 2231/1/6 2232/1/6
f 2233/1/2 2234/1/2 2235/1/2 2236/1/2
f 2237/1/5 2238/1/5 2239/1/5 2240/1/5
f 2241/1/6 2242/1/6 2243/1/6 2244/1/6
f 2245/1/1 2246/1/1 2247/1/1 2248/1/1
f 2249/1/5 2250/1/5 2251/1/5 2252/1/5
f 2253/1/6 2254/1/6 2255/1/6 2256/1/6
f 2257/1/5 2258/1/5 2259/1/5 2260/1/5
f 2261/1/6 2262/1/6 2263/1/6 2264/1/6
f 2265/3/4 2266/3/4 2267/3/4 2268/3/4
f 2269/3/5 2270/3/5 2271/3/5 2272/3/5
f 2273/3/6 2274/3/6 2275/3/6 2276/3/6
f 2277/1/2 2278/1/2 2279/1/2 2280/1/2
f 2281/1/5 2282/1/5 2283/1/5 2284/1/5
f 2285/1/6 2286/1/6 2287/1/6 2288/1/6
f 2289/3/1 2290/3/1 2291/3/1 2292/3/1
f 2293/3/2 2294/3/2 2295/3/2 2296/3/2
f 2297/3/3 2298/3/3 2299/3/3 2300/3/3
f 2301/3/5 2302/3/5 2303/3/5 2304/3/5
f 2305/3/6 2306/3/6 2307/3/6 2308/3/6
f 2309/1/1 2310/1/1 2311/1/1 2312/1/1
f 2313/1/5 2314/1/5 2315/1/5 2316/1/5
f 2317/1/6 2318/1/6 2319/1/6 2320/1/6
f 2321/1/5 2322/1/5 2323/1/5 2324/1/5
f 2325/1/6 2326/1/6 2327/1/6 2328/1/6
f 2329/1/2 2330/1/2 2331/1/2 2332/1/2
f 2333/1/5 2334/1/5 2335/1/5 2336/1/5
f 2337/1/6 2338/1/6 2339/1/6 2340/1/6
f 2341/1/1 2342/1/1 2343/1/1 2344/1/1
f 2345/1/5 2346/1/5 2347/1/5 2348/1/5
f 2349/1/6 2350/1/6 2351/1/6 2352/1/6
f 2353/1/2 2354/1/2 2355/1/2 2356/1/2
f 2357/1/5 2358/1/5 2359/1/5 2360/1/5
f 2361/1/6 2362/1/6 2363/1/6 2364/1/6
f 2365/3/1 2366/3/1 2367/3/1 2368/3/1
f 2369/3/3 2370/3/3 2371/3/3 2372/3/3
f 2373/3/5 2374/3/5 2375/3/5 2376/3/5
f 2377/3/6 2378/3/6 2379/3/6 2380/3/6
f 2381/1/5 2382/1/5 2383/1/5 2384/1/5
f 2385/1/6 2386/1/6 2387/1/6 2388/1/6
f 2389/1/2 2390/1/2 2391/1/2 2392/1/2
f 2393/1/5 2394/1/5 2395/1/5 2396/1/5
f 2397/1/6 2398/1/6 2399/1/6 2400/1/6
f 2401/1/1 2402/1/1 2403/1/1 2404/1/1
f 2405/1/5 2406/1/5 2407/1/5 2408/1/5
f 2409/1/6 2410/1/6 2411/1/6 2412/1/6
f 2413/3/2 2414/3/2 2415/3/2 2416/3/2
f 2417/3/3 2418/3/3 2419/3/3 2420/3/3
f 2421/3/5 2422/3/5 2423/3/5 2424/3/5
f 2425/3/6 2426/3/6 2427/3/6 2428/3/6
f 2429/1/1 2430/1/1 2431/1/1 2432/1/1
f 2433/1/2 2434/1/2 2435/1/2 2436/1/2
f 2437/1/5 2438/1/5 2439/1/5 2440/1/5
f 2441/1/6 2442/1/6 2443/1/6 2444/1/6
f 2445/1/1 2446/1/1 2447/1/1 2448/1/1
f 2449/1/5 2450/1/5 2451/1/5 2452/1/5
f 2453/1/6 2454/1/6 2455/1/6 2456/1/6
f 2457/1/5 2458/1/5 2459/1/5 2460/1/5
f 2461/1/6 2462/1/6 2463/1/6 2464/1/6
f 2465/1/2 2466/1/2 2467/1/2 2468/1/2
f 2469/1/5 2470/1/5 2471/1/5 2472/1/5
f 2473/1/6 2474/1/6 2475/1/6 2476/1/6
f 2477/3/1 2478/3/1 2479/3/1 2480/3/1
f 2481/3/4 2482/3/4 2483/3/4 2484/3/4
f 2485/3/5 2486/3/5 2487/3/5 2488/3/5
f 2489/3/6 2490/3/6 2491/3/6 2492/3/6
f 2493/1/5 2494/1/5 2495/1/5 2496/1/5
f 2497/1/6 2498/1/6 2499/1/6 2500/1/6
f 2501/3/3 2502/3/3 2503/3/3 2504/3/3
f 2505/3/5 2506/3/5 2507/3/5 2508/3/5
f 2509/3/6 2510/3/6 2511/3/6 2512/3/6
f 2513/1/5 2514/1/5 2515/1/5 2516/1/5
f 2517/1/6 2518/1/6 2519/1/6 2520/1/6
f 2521/1/5 2522/1/5 2523/1/5 2524/1/5
f 2525/1/6 2526/1/6 2527/1/6 2528/1/6
f 2529/1/2 2530/1/2 2531/1/2 2532/1/2
f 2533/1/5 2534/1/5 2535/1/5 2536/1/5
f 2537/1/6 2538/1/6 2539/1/6 2540/1/6
f 2541/1/1 2542/1/1 2543/1/1 2544/1/1
f 2545/1/5 2546/1/5 2547/1/5 2548/1/5
f 2549/1/6 2550/1/6 2551/1/6 2552/1/6
f 2553/1/2 2554/1/2 2555/1/2 2556/1/2
f 2557/1/5 2558/1/5 2559/1/5 2560/1/5
f 2561/1/6 2562/1/6 2563/1/6 2564/1/6
f 2565/1/1 2566/1/1 2567/1/1 2568/1/1
f 2569/1/2 2570/1/2 2571/1/2 2572/1/2
f 2573/1/5 2574/1/5 2575/1/5 2576/1/5
f 2577/1/6 2578/1/6 2579/1/6 2580/1/6
f 2581/1/1 2582/1/1 2583/1/1 2584/1/1
f 2585/1/5 2586/1/5 2587/1/5 2588/1/5
f 2589/1/6 2590/1/6 2591/1/6 2592/1/6
f 2593/1/5 2594/1/5 2595/1/5 2596/1/5
f 2597/1/6 2598/1/6 2599/1/6 2600/1/6
f 2601/1/2 2602/1/2 2603/1/2 2604/1/2
f 2605/1/5 2606/1/5 2607/1/5 2608/1/5
f 2609/1/6 2610/1/6 2611/1/6 2612/1/6
f 2613/1/1 2614/1/1 2615/1/1 2616/1/1
f 2617/1/5 2618/1/5 2619/1/5 2620/1/5
f 2621/1/6 2622/1/6 2623/1/6 2624/1/6
f 2625/1/5 2626/1/5 2627/1/5 2628/1/5
f 2629/1/6 2630/1/6 2631/1/6 2632/1/6
f 2633/1/5 2634/1/5 2635/1/5 2636/1/5
f 2637/1/6 2638/1/6 2639/1/6 2640/1/6
f 2641/1/5 2642/1/5 2643/1/5 2644/1/5
f 2645/1/6 2646/1/6 2647/1/6 2648/1/6
f 2649/1/2 2650/1/2 2651/1/2 2652/1/2
f 2653/1/5 2654/1/5 2655/1/5 2656/1/5
f 2657/1/6 2658/1/6 2659/1/6 2660/1/6
f 2661/1/1 2662/1/1 2663/1/1 2664/1/1
f 2665/1/5 2666/1/5 2667/1/5 2668/1/5
f 2669/1/6 2670/1/6 2671/1/6 2672/1/6
f 2673/1/2 2674/1/2 2675/1/2 2676/1/2
f 2677/1/5 2678/1/5 2679/1/5 2680/1/5
f 2681/1/6 2682/1/6 2683/1/6 2684/1/6
f 2685/3/1 2686/3/1 2687/3/1 2688/3/1
f 2689/3/3 2690/3/3 2691/3/3 2692/3/3
f 2693/3/5 2694/3/5 2695/3/5 2696/3/5
f 2697/3/6 2698/3/6 2699/3/6 2700/3/6
f 2701/1/2 2702/1/2 2703/1/2 2704/1/2
f 2705/1/5 2706/1/5 2707/1/5 2708/1/5
f 2709/1/6 2710/1/6 2711/1/6 2712/1/6
f 2713/1/1 2714/1/1 2715/1/1 2716/1/1
f 2717/1/5 2718/1/5 2719/1/5 2720/1/5
f 2721/1/6 2722/1/6 2723/1/6 2724/1/6
f 2725/1/5 2726/1/5 2727/1/5 2728/1/5
f 2729/1/6 2730/1/6 2731/1/6 2732/1/6
f 2733/3/2 2734/3/2 2735/3/2 2736/3/2
f 2737/3/4 2738/3/4 2739/3/4 2740/3/4
f 2741/3/5 2742/3/5 2743/3/5 2744/3/5
f 2745/3/6 2746/3/6 2747/3/6 2748/3/6
f 2749/1/1 2750/1/1 2751/1/1 2752/1/1
f 2753/1/5 2754/1/5 2755/1/5 2756/1/5
f 2757/1/6 2758/1/6 2759/1/6 2760/1/6
f 2761/1/5 2762/1/5 2763/1/5 2764/1/5
f 2765/1/6 2766/1/6 2767/1/6 2768/1/6
f 2769/1/5 2770/1/5 2771/1/5 2772/1/5
f 2773/1/6 2774/1/6 2775/1/6 2776/1/6
f 2777/1/5 2778/1/5 2779/1/5 2780/1/5
f 2781/1/6 2782/1/6 2783/1/6 2784/1/6
f 2785/3/2 2786/3/2 2787/3/2 2788/3/2
f 2789/3/4 2790/3/4 2791/3/4 2792/3/4
f 2793/3/5 2794/3/5 2795/3/5 2796/3/5
f 2797/3/6 2798/3/6 2799/3/6 2800/3/6
f 2801/1/1 2802/1/1 2803/1/1 2804/1/1
f 2805/1/5 2806/1/5 2807/1/5 2808/1/5
f 2809/1/6 2810/1/6 2811/1/6 2812/1/6
f 2813/1/5 2814/1/5 2815/1/5 2816/1/5
f 2817/1/6 2818/1/6 2819/1/6 2820/1/6
f 2821/3/3 2822/3/3 2823/3/3 2824/3/3
f 2825/3/5 2826/3/5 2827/3/5 2828/3/5
f 2829/3/6 2830/3/6 2831/3/6 2832/3/6
f 2833/1/5 2834/1/5 2835/1/5 2836/1/5
f 2837/1/6 2838/1/6 2839/1/6 2840/1/6
f 2841/1/2 2842/1/2 2843/1/2 2844/1/2
f 2845/1/5 2846/1/5 2847/1/5 2848/1/5
f 2849/1/6 2850/1/6 2851/1/6 2852/1/6
f 2853/1/1 2854/1/1 2855/1/1 2856/1/1
f 2857/1/5 2858/1/5 2859/1/5 2860/1/5
f 2861/1/6 2862/1/6 2863/1/6 2864/1/6
f 2865/1/2 2866/1/2 2867/1/2 2868/1/2
f 2869/1/5 2870/1/5 2871/1/5 2872/1/5
f 2873/1/6 2874/1/6 2875/1/6 2876/1/6
f 2877/1/1 2878/1/1 2879/1/1 2880/1/1
f 2881/1/5 2882/1/5 2883/1/5 2884/1/5
f 2885/1/6 2886/1/6 2887/1/6 2888/1/6
f 2889/1/5 2890/1/5 2891/1/5 2892/1/5
f 2893/1/6 2894/1/6 2895/1/6 2896/1/6
f 2897/1/5 2898/1/5 2899/1/5 2900/1/5
f 2901/1/6 2902/1/6 2903/1/6 2904/1/6
f 2905/1/2 2906/1/2 2907/1/2 2908/1/2
f 2909/1/5 2910/1/5 2911/1/5 2912/1/5
f 2913/1/6 2914/1/6 2915/1/6 2916/1/6
f 2917/1/1 2918/1/1 2919/1/1 2920/1/1
f 2921/1/5 2922/1/5 2923/1/5 2924/1/5
f 2925/1/6 2926/1/6 2927/1/6 2928/1/6
f 2929/1/5 2930/1/5 2931/1/5 2932/1/5
f 2933/1/6 2934/1/6 2935/1/6 2936/1/6
f 2937/1/5 2938/1/5 2939/1/5 2940/1/5
f 2941/1/6 2942/1/6 2943/1/6 2944/1/6
f 2945/1/5 2946/1/5 2947/1/5 2948/1/5
f 2949/1/6 2950/1/6 2951/1/6 2952/1/6
f 2953/1/2 2954/1/2 2955/1/2 2956/1/2
f 2957/1/5 2958/1/5 2959/1/5 2960/1/5
f 2961/1/6 2962/1/6 2963/1/6 2964/1/6
f 2965/1/1 2966/1/1 2967/1/1 2968/1/1
f 2969/1/5 2970/1/5 2971/1/5 2972/1/5
f 2973/1/6 2974/1/6 2975/1/6 2976/1/6
f 2977/1/2 2978/1/2 2979/1/2 2980/1/2
f 2981/1/5 2982/1/5 2983/1/5 2984/1/5
f 2985/1/6 2986/1/6 2987/1/6 2988/1/6
f 2989/1/1 2990/1/1 2991/1/1 2992/1/1
f 2993/1/5 2994/1/5 2995/1/5 2996/1/5
f 2997/1/6 2998/1/6 2999/1/6 3000/1/6
f 3001/1/5 3002/1/5 3003/1/5 3004/1/5
f 3005/1/6 3006/1/6 3007/1/6 3008/1/6
f 3009/1/5 3010/1/5 3011/1/5 3012/1/5
f 3013/1/6 3014/1/6 3015/1/6 3016/1/6
f 3017/1/2 3018/1/2 3019/1/2 3020/1/2
f 3021/1/5 3022/1/5 3023/1/5 3024/1/5
f 3025/1/6 3026/1/6 3027/1/6 3028/1/6
f 3029/1/1 3030/1/1 3031/1/1 3032/1/1
f 3033/1/5 3034/1/5 3035/1/5 3036/1/5
f 3037/1/6 3038/1/6 3039/1/6 3040/1/6
f 3041/1/5 3042/1/5 3043/1/5 3044/1/5
f 3045/1/6 3046/1/6 3047/1/6 3048/1/6
f 3049/1/5 3050/1/5 3051/1/5 3052/1/5
f 3053/1/6 3054/1/6 3055/1/6 3056/1/6
f 3057/1/5 3058/1/5 3059/1/5 3060/1/5
f 3061/1/6 3062/1/6 3063/1/6 3064/1/6
f 3065/1/2 3066/1/2 3067/1/2 3068/1/2
f 3069/1/5 3070/1/5 3071/1/5 3072/1/5
f 3073/1/6 3074/1/6 3075/1/6 3076/1/6
f 3077/1/1 3078/1/1 3079/1/1 3080/1/1
f 3081/1/5 3082/1/5 3083/1/5 3084/1/5
f 3085/1/6 3086/1/6 3087/1/6 3088/1/6
f 3089/3/2 3090/3/2 3091/3/2 3092/3/2
f 3093/3/4 3094/3/4 3095/3/4 3096/3/4
f 3097/3/5 3098/3/5 3099/3/5 3100/3/5
f 3101/3/6 3102/3/6 3103/3/6 3104/3/6
f 3105/1/1 3106/1/1 3107/1/1 3108/1/1
f 3109/1/5 3110/1/5 3111/1/5 3112/1/5
f 3113/1/6 3114/1/6 3115/1/6 3116/1/6
f 3117/1/5 3118/1/5 3119/1/5 3120/1/5
f 3121/1/6 3122/1/6 3123/1/6 3124/1/6
f 3125/1/5 3126/1/5 3127/1/5 3128/1/5
f 3129/1/6 3130/1/6 3131/1/6 3132/1/6
f 3133/1/2 3134/1/2 3135/1/2 3136/1/2
f 3137/1/5 3138/1/5 3139/1/5 3140/1/5
f 3141/1/6 3142/1/6 3143/1/6 3144/1/6
f 3145/1/1 3146/1/1 3147/1/1 3148/1/1
f 3149/1/5 3150/1/5 3151/1/5 3152/1/5
f 3153/1/6 3154/1/6 3155/1/6 3156/1/6
f 3157/1/5 3158/1/5 3159/1/5 3160/1/5
f 3161/1/6 3162/1/6 3163/1/6 3164/1/6
f 3165/1/5 3166/1/5 3167/1/5 3168/1/5
f 3169/1/6 3170/1/6 3171/1/6 3172/1/6
f 3173/1/5 3174/1/5 3175/1/5 3176/1/5
f 3177/1/6 3178/1/6 3179/1/6 3180/1/6
f 3181/1/2 3182/1/2 3183/1/2 3184/1/2
f 3185/1/5 3186/1/5 3187/1/5 3188/1/5
f 3189/1/6 3190/1/6 3191/1/6 3192/1/6
f 3193/1/1 3194/1/1 3195/1/1 3196/1/1
f 3197/1/2 3198/1/2 3199/1/2 3200/1/2
f 3201/1/5 3202/1/5 3203/1/5 3204/1/5
f 3205/1/6 3206/1/6 3207/1/6 3208/1/6
f 3209/1/1 3210/1/1 3211/1/1 3212/1/1
f 3213/1/5 3214/1/5 3215/1/5 3216/1/5
f 3217/1/6 3218/1/6 3219/1/6 3220/1/6
f 3221/1/5 3222/1/5 3223/1/5 3224/1/5
f 3225/1/6 3226/1/6 3227/1/6 3228/1/6
f 3229/1/5 3230/1/5 3231/1/5 3232/1/5
f 3233/1/6 3234/1/6 3235/1/6 3236/1/6
f 3237/1/2 3238/1/2 3239/1/2 3240/1/2
f 3241/1/5 3242/1/5 3243/1/5 3244/1/5
f 3245/1/6 3246/1/6 3247/1/6 3248/1/6
f 3249/3/1 3250/3/1 3251/3/1 3252/3/1
f 3253/3/4 3254/3/4 3255/3/4 3256/3/4
f 3257/3/5 3258/3/5 3259/3/5 3260/3/5
f 3261/3/6 3262/3/6 3263/3/6 3264/3/6
f 3265/1/5 3266/1/5 3267/1/5 3268/1/5
f 3269/1/6 3270/1/6 3271/1/6 3272/1/6
f 3273/1/5 3274/1/5 3275/1/5 3276/1/5
f 3277/1/6 3278/1/6 3279/1/6 3280/1/6
f 3281/1/5 3282/1/5 3283/1/5 3284/1/5
f 3285/1/6 3286/1/6 3287/1/6 3288/1/6
f 3289/1/2 3290/1/2 3291/1/2 3292/1/2
f 3293/1/5 3294/1/5 3295/1/5 3296/1/5
f 3297/1/6 3298/1/6 3299/1/6 3300/1/6
f 3301/1/1 3302/1/1 3303/1/1 3304/1/1
f 3305/1/2 3306/1/2 3307/1/2 3308/1/2
f 3309/1/5 3310/1/5 3311/1/5 3312/1/5
f 3313/1/6 3314/1/6 3315/1/6 3316/1/6
f 3317/3/1 3318/3/1 3319/3/1 3320/3/1
f 3321/3/4 3322/3/4 3323/3/4 3324/3/4
f 3325/3/5 3326/3/5 3327/3/5 3328/3/5
f 3329/3/6 3330/3/6 3331/3/6 3332/3/6
f 3333/1/5 3334/1/5 3335/1/5 3336/1/5
f 3337/1/6 3338/1/6 3339/1/6 3340/1/6
f 3341/1/5 3342/1/5 3343/1/5 3344/1/5
f 3345/1/6 3346/1/6 3347/1/6 3348/1/6
f 3349/3/2 3350/3/2 3351/3/2 3352/3/2
f 3353/3/4 3354/3/4 3355/3/4 3356/3/4
f 3357/3/5 3358/3/5 3359/3/5 3360/3/5
f 3361/3/6 3362/3/6 3363/3/6 3364/3/6
f 3365/1/1 3366/1/1 3367/1/1 3368/1/1
f 3369/1/5 3370/1/5 3371/1/5 3372/1/5
f 3373/1/6 3374/1/6 3375/1/6 3376/1/6
f 3377/1/5 3378/1/5 3379/1/5 3380/1/5
f 3381/1/6 3382/1/6 3383/1/6 3384/1/6
f 3385/1/5 3386/1/5 3387/1/5 3388/1/5
f 3389/1/6 3390/1/6 3391/1/6 3392/1/6
f 3393/1/2 3394/1/2 3395/1/2 3396/1/2
f 3397/1/5 3398/1/5 3399/1/5 3400/1/5
f 3401/1/6 3402/1/6 3403/1/6 3404/1/6
f 3405/3/1 3406/3/1 3407/3/1 3408/3/1
f 3409/3/2 3410/3/2 3411/3/2 3412/3/2
f 3413/3/4 3414/3/4 3415/3/4 3416/3/4
f 3417/3/5 3418/3/5 3419/3/5 3420/3/5
f 3421/3/6 3422/3/6 3423/3/6 3424/3/6
f 3425/1/1 3426/1/1 3427/1/1 3428/1/1
f 3429/1/5 3430/1/5 3431/1/5 3432/1/5
f 3433/1/6 3434/1/6 3435/1/6 3436/1/6
f 3437/1/2 3438/1/2 3439/1/2 3440/1/2
f 3441/1/5 3442/1/5 3443/1/5 3444/1/5
f 3445/1/6 3446/1/6 3447/1/6 3448/1/6
f 3449/1/1 3450/1/1 3451/1/1 3452/1/1
f 3453/1/5 3454/1/5 3455/1/5 3456/1/5
f 3457/1/6 3458/1/6 3459/1/6 3460/1/6
f 3461/1/5 3462/1/5 3463/1/5 3464/1/5
f 3465/1/6 3466/1/6 3467/1/6 3468/1/6
f 3469/1/5 3470/1/5 3471/1/5 3472/1/5
f 3473/1/6 3474/1/6 3475/1/6 3476/1/6
f 3477/1/2 3478/1/2 3479/1/2 3480/1/2
f 3481/1/5 3482/1/5 3483/1/5 3484/1/5
f 3485/1/6 3486/1/6 3487/1/6 3488/1/6
f 3489/1/1 3490/1/1 3491/1/1 3492/1/1
f 3493/1/5 3494/1/5 3495/1/5 3496/1/5
f 3497/1/6 3498/1/6 3499/1/6 3500/1/6
f 3501/1/2 3502/1/2 3503/1/2 3504/1/2
f 3505/1/5 3506/1/5 3507/1/5 3508/1/5
f 3509/1/6 3510/1/6 3511/1/6 3512/1/6
f 3513/1/1 3514/1/1 3515/1/1 3516/1/1
f 3517/1/5 3518/1/5 3519/1/5 3520/1/5
f 3521/1/6 3522/1/6 3523/1/6 3524/1/6
f 3525/1/5 3526/1/5 3527/1/5 3528/1/5
f 3529/1/6 3530/1/6 3531/1/6 3532/1/6
f 3533/1/5 3534/1/5 3535/1/5 3536/1/5
f 3537/1/6 3538/1/6 3539/1/6 3540/1/6
f 3541/3/2 3542/3/2 3543/3/2 3544/3/2
f 3545/3/4 3546/3/4 3547/3/4 3548/3/4
f 3549/3/5 3550/3/5 3551/3/5 3552/3/5
f 3553/3/6 3554/3/6 3555/3/6 3556/3/6
f 3557/1/1 3558/1/1 3559/1/1 3560/1/1
f 3561/1/5 3562/1/5 3563/1/5 3564/1/5
f 3565/1/6 3566/1/6 3567/1/6 3568/1/6
f 3569/3/2 3570/3/2 3571/3/2 3572/3/2
f 3573/3/4 3574/3/4 3575/3/4 3576/3/4
f 3577/3/5 3578/3/5 3579/3/5 3580/3/5
f 3581/3/6 3582/3/6 3583/3/6 3584/3/6
f 3585/3/1 3586/3/1 3587/3/1 3588/3/1
f 3589/3/4 3590/3/4 3591/3/4 3592/3/4
f 3593/3/5 3594/3/5 3595/3/5 3596/3/5
f 3597/3/6 3598/3/6 3599/3/6 3600/3/6
f 3601/1/5 3602/1/5 3603/1/5 3604/1/5
f 3605/1/6 3606/1/6 3607/1/6 3608/1/6
f 3609/1/2 3610/1/2 3611/1/2 3612/1/2
f 3613/1/5 3614/1/5 3615/1/5 3616/1/5
f 3617/1/6 3618/1/6 3619/1/6 3620/1/6
f 3621/3/1 3622/3/1 3623/3/1 3624/3/1
f 3625/3/2 3626/3/2 3627/3/2 3628/3/2
f 3629/3/4 3630/3/4 3631/3/4 3632/3/4
f 3633/3/5 3634/3/5 3635/3/5 3636/3/5
f 3637/3/6 3638/3/6 3639/3/6 3640/3/6
f 3641/1/1 3642/1/1 3643/1/1 3644/1/1
f 3645/1/5 3646/1/5 3647/1/5 3648/1/5
f 3649/1/6 3650/1/6 3651/1/6 3652/1/6
f 3653/1/2 3654/1/2 3655/1/2 3656/1/2
f 3657/1/5 3658/1/5 3659/1/5 3660/1/5
f 3661/1/6 3662/1/6 3663/1/6 3664/1/6
f 3665/1/1 3666/1/1 3667/1/1 3668/1/1
f 3669/1/5 3670/1/5 3671/1/5 3672/1/5
f 3673/1/6 3674/1/6 3675/1/6 3676/1/6
f 3677/3/2 3678/3/2 3679/3/2 3680/3/2
f 3681/3/4 3682/3/4 3683/3/4 3684/3/4
f 3685/3/5 3686/3/5 3687/3/5 3688/3/5
f 3689/3/6 3690/3/6 3691/3/6 3692/3/6
f 3693/3/1 3694/3/1 3695/3/1 3696/3/1
f 3697/3/2 3698/3/2 3699/3/2 3700/3/2
f 3701/3/4 3702/3/4 3703/3/4 3704/3/4
f 3705/3/5 3706/3/5 3707/3/5 3708/3/5
f 3709/3/6 3710/3/6 3711/3/6 3712/3/6

