# generated by vox_to_obj_exporter
# scale=0.1 center=false ground=false y_up=true

mtllib Fight_018.mtl
usemtl palette

# normals
vn -1 0 0
vn 1 0 0
vn 0 1 0
vn 0 -1 0
vn 0 0 1
vn 0 0 -1

# texcoords
vt 0.251953125 0.5

# verts
v 13.4 3.8 -2.6
v 13.4 3.7 -2.6
v 13.4 3.7 -2.5
v 13.4 3.8 -2.5
v 13.5 3.8 -2.5
v 13.5 3.7 -2.5
v 13.5 3.7 -2.6
v 13.5 3.8 -2.6
v 13.4 3.8 -2.6
v 13.4 3.8 -2.5
v 13.5 3.8 -2.5
v 13.5 3.8 -2.6
v 13.4 3.7 -2.5
v 13.4 3.7 -2.6
v 13.5 3.7 -2.6
v 13.5 3.7 -2.5
v 13.4 3.8 -2.5
v 13.4 3.7 -2.5
v 13.5 3.7 -2.5
v 13.5 3.8 -2.5
v 13.5 3.8 -2.6
v 13.5 3.7 -2.6
v 13.4 3.7 -2.6
v 13.4 3.8 -2.6
v 13.2 3.7 -2.6
v 13.2 3.6 -2.6
v 13.2 3.6 -2.5
v 13.2 3.7 -2.5
v 13.3 3.7 -2.5
v 13.3 3.6 -2.5
v 13.3 3.6 -2.6
v 13.3 3.7 -2.6
v 13.2 3.7 -2.6
v 13.2 3.7 -2.5
v 13.3 3.7 -2.5
v 13.3 3.7 -2.6
v 13.2 3.6 -2.5
v 13.2 3.6 -2.6
v 13.3 3.6 -2.6
v 13.3 3.6 -2.5
v 13.2 3.7 -2.5
v 13.2 3.6 -2.5
v 13.3 3.6 -2.5
v 13.3 3.7 -2.5
v 13.3 3.7 -2.6
v 13.3 3.6 -2.6
v 13.2 3.6 -2.6
v 13.2 3.7 -2.6
v 12.9 3.6 -2.6
v 12.9 3.5 -2.6
v 12.9 3.5 -2.5
v 12.9 3.6 -2.5
v 12.9 3.6 -2.6
v 12.9 3.6 -2.5
v 13 3.6 -2.5
v 13 3.6 -2.6
v 12.9 3.6 -2.5
v 12.9 3.5 -2.5
v 13 3.5 -2.5
v 13 3.6 -2.5
v 13 3.6 -2.6
v 13 3.5 -2.6
v 12.9 3.5 -2.6
v 12.9 3.6 -2.6
v 13 3.6 -2.6
v 13 3.6 -2.5
v 13.1 3.6 -2.5
v 13.1 3.6 -2.6
v 13 3.5 -2.5
v 13 3.5 -2.6
v 13.1 3.5 -2.6
v 13.1 3.5 -2.5
v 13 3.6 -2.5
v 13 3.5 -2.5
v 13.1 3.5 -2.5
v 13.1 3.6 -2.5
v 13.1 3.6 -2.6
v 13.1 3.5 -2.6
v 13 3.5 -2.6
v 13 3.6 -2.6
v 13.2 3.6 -2.5
v 13.2 3.5 -2.5
v 13.2 3.5 -2.6
v 13.2 3.6 -2.6
v 13.1 3.6 -2.6
v 13.1 3.6 -2.5
v 13.2 3.6 -2.5
v 13.2 3.6 -2.6
v 13.1 3.5 -2.5
v 13.1 3.5 -2.6
v 13.2 3.5 -2.6
v 13.2 3.5 -2.5
v 13.1 3.6 -2.5
v 13.1 3.5 -2.5
v 13.2 3.5 -2.5
v 13.2 3.6 -2.5
v 13.2 3.6 -2.6
v 13.2 3.5 -2.6
v 13.1 3.5 -2.6
v 13.1 3.6 -2.6
v 12.8 3.5 -2.6
v 12.8 3.4 -2.6
v 12.8 3.4 -2.5
v 12.8 3.5 -2.5
v 12.8 3.5 -2.6
v 12.8 3.5 -2.5
v 12.9 3.5 -2.5
v 12.9 3.5 -2.6
v 12.8 3.5 -2.5
v 12.8 3.4 -2.5
v 12.9 3.4 -2.5
v 12.9 3.5 -2.5
v 12.9 3.5 -2.6
v 12.9 3.4 -2.6
v 12.8 3.4 -2.6
v 12.8 3.5 -2.6
v 13 3.5 -2.5
v 13 3.4 -2.5
v 13 3.4 -2.6
v 13 3.5 -2.6
v 12.9 3.4 -2.5
v 12.9 3.4 -2.6
v 13 3.4 -2.6
v 13 3.4 -2.5
v 12.9 3.5 -2.5
v 12.9 3.4 -2.5
v 13 3.4 -2.5
v 13 3.5 -2.5
v 13 3.5 -2.6
v 13 3.4 -2.6
v 12.9 3.4 -2.6
v 12.9 3.5 -2.6
v 12.7 3.4 -2.6
v 12.7 3.3 -2.6
v 12.7 3.3 -2.5
v 12.7 3.4 -2.5
v 12.7 3.4 -2.6
v 12.7 3.4 -2.5
v 12.8 3.4 -2.5
v 12.8 3.4 -2.6
v 12.7 3.4 -2.5
v 12.7 3.3 -2.5
v 12.8 3.3 -2.5
v 12.8 3.4 -2.5
v 12.8 3.4 -2.6
v 12.8 3.3 -2.6
v 12.7 3.3 -2.6
v 12.7 3.4 -2.6
v 12.9 3.4 -2.5
v 12.9 3.3 -2.5
v 12.9 3.3 -2.6
v 12.9 3.4 -2.6
v 12.8 3.3 -2.5
v 12.8 3.3 -2.6
v 12.9 3.3 -2.6
v 12.9 3.3 -2.5
v 12.8 3.4 -2.5
v 12.8 3.3 -2.5
v 12.9 3.3 -2.5
v 12.9 3.4 -2.5
v 12.9 3.4 -2.6
v 12.9 3.3 -2.6
v 12.8 3.3 -2.6
v 12.8 3.4 -2.6
v 12.5 3.3 -2.6
v 12.5 3.2 -2.6
v 12.5 3.2 -2.5
v 12.5 3.3 -2.5
v 12.5 3.3 -2.6
v 12.5 3.3 -2.5
v 12.6 3.3 -2.5
v 12.6 3.3 -2.6
v 12.5 3.3 -2.5
v 12.5 3.2 -2.5
v 12.6 3.2 -2.5
v 12.6 3.3 -2.5
v 12.6 3.3 -2.6
v 12.6 3.2 -2.6
v 12.5 3.2 -2.6
v 12.5 3.3 -2.6
v 12.6 3.3 -2.6
v 12.6 3.3 -2.5
v 12.7 3.3 -2.5
v 12.7 3.3 -2.6
v 12.6 3.3 -2.5
v 12.6 3.2 -2.5
v 12.7 3.2 -2.5
v 12.7 3.3 -2.5
v 12.7 3.3 -2.6
v 12.7 3.2 -2.6
v 12.6 3.2 -2.6
v 12.6 3.3 -2.6
v 12.8 3.3 -2.5
v 12.8 3.2 -2.5
v 12.8 3.2 -2.6
v 12.8 3.3 -2.6
v 12.7 3.2 -2.5
v 12.7 3.2 -2.6
v 12.8 3.2 -2.6
v 12.8 3.2 -2.5
v 12.7 3.3 -2.5
v 12.7 3.2 -2.5
v 12.8 3.2 -2.5
v 12.8 3.3 -2.5
v 12.8 3.3 -2.6
v 12.8 3.2 -2.6
v 12.7 3.2 -2.6
v 12.7 3.3 -2.6
v 12.4 3.2 -2.6
v 12.4 3.1 -2.6
v 12.4 3.1 -2.5
v 12.4 3.2 -2.5
v 12.4 3.2 -2.6
v 12.4 3.2 -2.5
v 12.5 3.2 -2.5
v 12.5 3.2 -2.6
v 12.4 3.2 -2.5
v 12.4 3.1 -2.5
v 12.5 3.1 -2.5
v 12.5 3.2 -2.5
v 12.5 3.2 -2.6
v 12.5 3.1 -2.6
v 12.4 3.1 -2.6
v 12.4 3.2 -2.6
v 12.5 3.2 -2.5
v 12.5 3.1 -2.5
v 12.6 3.1 -2.5
v 12.6 3.2 -2.5
v 12.6 3.2 -2.6
v 12.6 3.1 -2.6
v 12.5 3.1 -2.6
v 12.5 3.2 -2.6
v 12.7 3.2 -2.5
v 12.7 3.1 -2.5
v 12.7 3.1 -2.6
v 12.7 3.2 -2.6
v 12.6 3.2 -2.5
v 12.6 3.1 -2.5
v 12.7 3.1 -2.5
v 12.7 3.2 -2.5
v 12.7 3.2 -2.6
v 12.7 3.1 -2.6
v 12.6 3.1 -2.6
v 12.6 3.2 -2.6
v 12.2 3.1 -2.6
v 12.2 3 -2.6
v 12.2 3 -2.5
v 12.2 3.1 -2.5
v 12.2 3.1 -2.6
v 12.2 3.1 -2.5
v 12.3 3.1 -2.5
v 12.3 3.1 -2.6
v 12.2 3.1 -2.5
v 12.2 3 -2.5
v 12.3 3 -2.5
v 12.3 3.1 -2.5
v 12.3 3.1 -2.6
v 12.3 3 -2.6
v 12.2 3 -2.6
v 12.2 3.1 -2.6
v 12.3 3.1 -2.6
v 12.3 3.1 -2.5
v 12.4 3.1 -2.5
v 12.4 3.1 -2.6
v 12.3 3.1 -2.5
v 12.3 3 -2.5
v 12.4 3 -2.5
v 12.4 3.1 -2.5
v 12.4 3.1 -2.6
v 12.4 3 -2.6
v 12.3 3 -2.6
v 12.3 3.1 -2.6
v 12.4 3.1 -2.5
v 12.4 3 -2.5
v 12.5 3 -2.5
v 12.5 3.1 -2.5
v 12.5 3.1 -2.6
v 12.5 3 -2.6
v 12.4 3 -2.6
v 12.4 3.1 -2.6
v 12.5 3.1 -2.5
v 12.5 3 -2.5
v 12.6 3 -2.5
v 12.6 3.1 -2.5
v 12.6 3.1 -2.6
v 12.6 3 -2.6
v 12.5 3 -2.6
v 12.5 3.1 -2.6
v 12.7 3.1 -2.5
v 12.7 3 -2.5
v 12.7 3 -2.6
v 12.7 3.1 -2.6
v 12.6 3 -2.5
v 12.6 3 -2.6
v 12.7 3 -2.6
v 12.7 3 -2.5
v 12.6 3.1 -2.5
v 12.6 3 -2.5
v 12.7 3 -2.5
v 12.7 3.1 -2.5
v 12.7 3.1 -2.6
v 12.7 3 -2.6
v 12.6 3 -2.6
v 12.6 3.1 -2.6
v 12.1 3 -2.6
v 12.1 2.9 -2.6
v 12.1 2.9 -2.5
v 12.1 3 -2.5
v 12.1 3 -2.6
v 12.1 3 -2.5
v 12.2 3 -2.5
v 12.2 3 -2.6
v 12.1 3 -2.5
v 12.1 2.9 -2.5
v 12.2 2.9 -2.5
v 12.2 3 -2.5
v 12.2 3 -2.6
v 12.2 2.9 -2.6
v 12.1 2.9 -2.6
v 12.1 3 -2.6
v 12.2 3 -2.5
v 12.2 2.9 -2.5
v 12.3 2.9 -2.5
v 12.3 3 -2.5
v 12.3 3 -2.6
v 12.3 2.9 -2.6
v 12.2 2.9 -2.6
v 12.2 3 -2.6
v 12.3 3 -2.5
v 12.3 2.9 -2.5
v 12.4 2.9 -2.5
v 12.4 3 -2.5
v 12.4 3 -2.6
v 12.4 2.9 -2.6
v 12.3 2.9 -2.6
v 12.3 3 -2.6
v 12.4 3 -2.5
v 12.4 2.9 -2.5
v 12.5 2.9 -2.5
v 12.5 3 -2.5
v 12.5 3 -2.6
v 12.5 2.9 -2.6
v 12.4 2.9 -2.6
v 12.4 3 -2.6
v 12.6 3 -2.5
v 12.6 2.9 -2.5
v 12.6 2.9 -2.6
v 12.6 3 -2.6
v 12.5 3 -2.5
v 12.5 2.9 -2.5
v 12.6 2.9 -2.5
v 12.6 3 -2.5
v 12.6 3 -2.6
v 12.6 2.9 -2.6
v 12.5 2.9 -2.6
v 12.5 3 -2.6
v 12.1 2.9 -2.6
v 12.1 2.8 -2.6
v 12.1 2.8 -2.5
v 12.1 2.9 -2.5
v 12.1 2.8 -2.5
v 12.1 2.8 -2.6
v 12.2 2.8 -2.6
v 12.2 2.8 -2.5
v 12.1 2.9 -2.5
v 12.1 2.8 -2.5
v 12.2 2.8 -2.5
v 12.2 2.9 -2.5
v 12.2 2.9 -2.6
v 12.2 2.8 -2.6
v 12.1 2.8 -2.6
v 12.1 2.9 -2.6
v 12.2 2.9 -2.5
v 12.2 2.8 -2.5
v 12.3 2.8 -2.5
v 12.3 2.9 -2.5
v 12.3 2.9 -2.6
v 12.3 2.8 -2.6
v 12.2 2.8 -2.6
v 12.2 2.9 -2.6
v 12.3 2.9 -2.5
v 12.3 2.8 -2.5
v 12.4 2.8 -2.5
v 12.4 2.9 -2.5
v 12.4 2.9 -2.6
v 12.4 2.8 -2.6
v 12.3 2.8 -2.6
v 12.3 2.9 -2.6
v 12.4 2.9 -2.5
v 12.4 2.8 -2.5
v 12.5 2.8 -2.5
v 12.5 2.9 -2.5
v 12.5 2.9 -2.6
v 12.5 2.8 -2.6
v 12.4 2.8 -2.6
v 12.4 2.9 -2.6
v 12.6 2.9 -2.5
v 12.6 2.8 -2.5
v 12.6 2.8 -2.6
v 12.6 2.9 -2.6
v 12.5 2.9 -2.5
v 12.5 2.8 -2.5
v 12.6 2.8 -2.5
v 12.6 2.9 -2.5
v 12.6 2.9 -2.6
v 12.6 2.8 -2.6
v 12.5 2.8 -2.6
v 12.5 2.9 -2.6
v 12.2 2.8 -2.6
v 12.2 2.7 -2.6
v 12.2 2.7 -2.5
v 12.2 2.8 -2.5
v 12.2 2.8 -2.5
v 12.2 2.7 -2.5
v 12.3 2.7 -2.5
v 12.3 2.8 -2.5
v 12.3 2.8 -2.6
v 12.3 2.7 -2.6
v 12.2 2.7 -2.6
v 12.2 2.8 -2.6
v 12.3 2.7 -2.5
v 12.3 2.7 -2.6
v 12.4 2.7 -2.6
v 12.4 2.7 -2.5
v 12.3 2.8 -2.5
v 12.3 2.7 -2.5
v 12.4 2.7 -2.5
v 12.4 2.8 -2.5
v 12.4 2.8 -2.6
v 12.4 2.7 -2.6
v 12.3 2.7 -2.6
v 12.3 2.8 -2.6
v 12.4 2.8 -2.5
v 12.4 2.7 -2.5
v 12.5 2.7 -2.5
v 12.5 2.8 -2.5
v 12.5 2.8 -2.6
v 12.5 2.7 -2.6
v 12.4 2.7 -2.6
v 12.4 2.8 -2.6
v 12.6 2.8 -2.5
v 12.6 2.7 -2.5
v 12.6 2.7 -2.6
v 12.6 2.8 -2.6
v 12.5 2.8 -2.5
v 12.5 2.7 -2.5
v 12.6 2.7 -2.5
v 12.6 2.8 -2.5
v 12.6 2.8 -2.6
v 12.6 2.7 -2.6
v 12.5 2.7 -2.6
v 12.5 2.8 -2.6
v 12.2 2.7 -2.6
v 12.2 2.6 -2.6
v 12.2 2.6 -2.5
v 12.2 2.7 -2.5
v 12.3 2.7 -2.5
v 12.3 2.6 -2.5
v 12.3 2.6 -2.6
v 12.3 2.7 -2.6
v 12.2 2.7 -2.5
v 12.2 2.6 -2.5
v 12.3 2.6 -2.5
v 12.3 2.7 -2.5
v 12.3 2.7 -2.6
v 12.3 2.6 -2.6
v 12.2 2.6 -2.6
v 12.2 2.7 -2.6
v 12.4 2.7 -2.6
v 12.4 2.6 -2.6
v 12.4 2.6 -2.5
v 12.4 2.7 -2.5
v 12.4 2.7 -2.5
v 12.4 2.6 -2.5
v 12.5 2.6 -2.5
v 12.5 2.7 -2.5
v 12.5 2.7 -2.6
v 12.5 2.6 -2.6
v 12.4 2.6 -2.6
v 12.4 2.7 -2.6
v 12.6 2.7 -2.5
v 12.6 2.6 -2.5
v 12.6 2.6 -2.6
v 12.6 2.7 -2.6
v 12.5 2.7 -2.5
v 12.5 2.6 -2.5
v 12.6 2.6 -2.5
v 12.6 2.7 -2.5
v 12.6 2.7 -2.6
v 12.6 2.6 -2.6
v 12.5 2.6 -2.6
v 12.5 2.7 -2.6
v 12.2 2.6 -2.6
v 12.2 2.5 -2.6
v 12.2 2.5 -2.5
v 12.2 2.6 -2.5
v 12.3 2.6 -2.5
v 12.3 2.5 -2.5
v 12.3 2.5 -2.6
v 12.3 2.6 -2.6
v 12.2 2.5 -2.5
v 12.2 2.5 -2.6
v 12.3 2.5 -2.6
v 12.3 2.5 -2.5
v 12.2 2.6 -2.5
v 12.2 2.5 -2.5
v 12.3 2.5 -2.5
v 12.3 2.6 -2.5
v 12.3 2.6 -2.6
v 12.3 2.5 -2.6
v 12.2 2.5 -2.6
v 12.2 2.6 -2.6
v 12.4 2.6 -2.6
v 12.4 2.5 -2.6
v 12.4 2.5 -2.5
v 12.4 2.6 -2.5
v 12.4 2.6 -2.5
v 12.4 2.5 -2.5
v 12.5 2.5 -2.5
v 12.5 2.6 -2.5
v 12.5 2.6 -2.6
v 12.5 2.5 -2.6
v 12.4 2.5 -2.6
v 12.4 2.6 -2.6
v 12.6 2.6 -2.5
v 12.6 2.5 -2.5
v 12.6 2.5 -2.6
v 12.6 2.6 -2.6
v 12.5 2.6 -2.5
v 12.5 2.5 -2.5
v 12.6 2.5 -2.5
v 12.6 2.6 -2.5
v 12.6 2.6 -2.6
v 12.6 2.5 -2.6
v 12.5 2.5 -2.6
v 12.5 2.6 -2.6
v 12.4 2.5 -2.6
v 12.4 2.4 -2.6
v 12.4 2.4 -2.5
v 12.4 2.5 -2.5
v 12.4 2.5 -2.5
v 12.4 2.4 -2.5
v 12.5 2.4 -2.5
v 12.5 2.5 -2.5
v 12.5 2.5 -2.6
v 12.5 2.4 -2.6
v 12.4 2.4 -2.6
v 12.4 2.5 -2.6
v 12.5 2.5 -2.5
v 12.5 2.4 -2.5
v 12.6 2.4 -2.5
v 12.6 2.5 -2.5
v 12.6 2.5 -2.6
v 12.6 2.4 -2.6
v 12.5 2.4 -2.6
v 12.5 2.5 -2.6
v 12.7 2.5 -2.5
v 12.7 2.4 -2.5
v 12.7 2.4 -2.6
v 12.7 2.5 -2.6
v 12.6 2.5 -2.6
v 12.6 2.5 -2.5
v 12.7 2.5 -2.5
v 12.7 2.5 -2.6
v 12.6 2.5 -2.5
v 12.6 2.4 -2.5
v 12.7 2.4 -2.5
v 12.7 2.5 -2.5
v 12.7 2.5 -2.6
v 12.7 2.4 -2.6
v 12.6 2.4 -2.6
v 12.6 2.5 -2.6
v 12.4 2.4 -2.6
v 12.4 2.3 -2.6
v 12.4 2.3 -2.5
v 12.4 2.4 -2.5
v 12.4 2.4 -2.5
v 12.4 2.3 -2.5
v 12.5 2.3 -2.5
v 12.5 2.4 -2.5
v 12.5 2.4 -2.6
v 12.5 2.3 -2.6
v 12.4 2.3 -2.6
v 12.4 2.4 -2.6
v 12.5 2.3 -2.5
v 12.5 2.3 -2.6
v 12.6 2.3 -2.6
v 12.6 2.3 -2.5
v 12.5 2.4 -2.5
v 12.5 2.3 -2.5
v 12.6 2.3 -2.5
v 12.6 2.4 -2.5
v 12.6 2.4 -2.6
v 12.6 2.3 -2.6
v 12.5 2.3 -2.6
v 12.5 2.4 -2.6
v 12.7 2.4 -2.5
v 12.7 2.3 -2.5
v 12.7 2.3 -2.6
v 12.7 2.4 -2.6
v 12.6 2.4 -2.5
v 12.6 2.3 -2.5
v 12.7 2.3 -2.5
v 12.7 2.4 -2.5
v 12.7 2.4 -2.6
v 12.7 2.3 -2.6
v 12.6 2.3 -2.6
v 12.6 2.4 -2.6
v 12.4 2.3 -2.6
v 12.4 2.2 -2.6
v 12.4 2.2 -2.5
v 12.4 2.3 -2.5
v 12.5 2.3 -2.5
v 12.5 2.2 -2.5
v 12.5 2.2 -2.6
v 12.5 2.3 -2.6
v 12.4 2.3 -2.5
v 12.4 2.2 -2.5
v 12.5 2.2 -2.5
v 12.5 2.3 -2.5
v 12.5 2.3 -2.6
v 12.5 2.2 -2.6
v 12.4 2.2 -2.6
v 12.4 2.3 -2.6
v 12.6 2.3 -2.6
v 12.6 2.2 -2.6
v 12.6 2.2 -2.5
v 12.6 2.3 -2.5
v 12.6 2.2 -2.5
v 12.6 2.2 -2.6
v 12.7 2.2 -2.6
v 12.7 2.2 -2.5
v 12.6 2.3 -2.5
v 12.6 2.2 -2.5
v 12.7 2.2 -2.5
v 12.7 2.3 -2.5
v 12.7 2.3 -2.6
v 12.7 2.2 -2.6
v 12.6 2.2 -2.6
v 12.6 2.3 -2.6
v 12.8 2.3 -2.5
v 12.8 2.2 -2.5
v 12.8 2.2 -2.6
v 12.8 2.3 -2.6
v 12.7 2.3 -2.6
v 12.7 2.3 -2.5
v 12.8 2.3 -2.5
v 12.8 2.3 -2.6
v 12.7 2.3 -2.5
v 12.7 2.2 -2.5
v 12.8 2.2 -2.5
v 12.8 2.3 -2.5
v 12.8 2.3 -2.6
v 12.8 2.2 -2.6
v 12.7 2.2 -2.6
v 12.7 2.3 -2.6
v 12.4 2.2 -2.6
v 12.4 2.1 -2.6
v 12.4 2.1 -2.5
v 12.4 2.2 -2.5
v 12.5 2.2 -2.5
v 12.5 2.1 -2.5
v 12.5 2.1 -2.6
v 12.5 2.2 -2.6
v 12.4 2.1 -2.5
v 12.4 2.1 -2.6
v 12.5 2.1 -2.6
v 12.5 2.1 -2.5
v 12.4 2.2 -2.5
v 12.4 2.1 -2.5
v 12.5 2.1 -2.5
v 12.5 2.2 -2.5
v 12.5 2.2 -2.6
v 12.5 2.1 -2.6
v 12.4 2.1 -2.6
v 12.4 2.2 -2.6
v 12.7 2.2 -2.6
v 12.7 2.1 -2.6
v 12.7 2.1 -2.5
v 12.7 2.2 -2.5
v 12.7 2.1 -2.5
v 12.7 2.1 -2.6
v 12.8 2.1 -2.6
v 12.8 2.1 -2.5
v 12.7 2.2 -2.5
v 12.7 2.1 -2.5
v 12.8 2.1 -2.5
v 12.8 2.2 -2.5
v 12.8 2.2 -2.6
v 12.8 2.1 -2.6
v 12.7 2.1 -2.6
v 12.7 2.2 -2.6
v 12.9 2.2 -2.5
v 12.9 2.1 -2.5
v 12.9 2.1 -2.6
v 12.9 2.2 -2.6
v 12.8 2.2 -2.6
v 12.8 2.2 -2.5
v 12.9 2.2 -2.5
v 12.9 2.2 -2.6
v 12.8 2.1 -2.5
v 12.8 2.1 -2.6
v 12.9 2.1 -2.6
v 12.9 2.1 -2.5
v 12.8 2.2 -2.5
v 12.8 2.1 -2.5
v 12.9 2.1 -2.5
v 12.9 2.2 -2.5
v 12.9 2.2 -2.6
v 12.9 2.1 -2.6
v 12.8 2.1 -2.6
v 12.8 2.2 -2.6

# faces
f 1/1/1 2/1/1 3/1/1 4/1/1
f 5/1/2 6/1/2 7/1/2 8/1/2
f 9/1/3 10/1/3 11/1/3 12/1/3
f 13/1/4 14/1/4 15/1/4 16/1/4
f 17/1/5 18/1/5 19/1/5 20/1/5
f 21/1/6 22/1/6 23/1/6 24/1/6
f 25/1/1 26/1/1 27/1/1 28/1/1
f 29/1/2 30/1/2 31/1/2 32/1/2
f 33/1/3 34/1/3 35/1/3 36/1/3
f 37/1/4 38/1/4 39/1/4 40/1/4
f 41/1/5 42/1/5 43/1/5 44/1/5
f 45/1/6 46/1/6 47/1/6 48/1/6
f 49/1/1 50/1/1 51/1/1 52/1/1
f 53/1/3 54/1/3 55/1/3 56/1/3
f 57/1/5 58/1/5 59/1/5 60/1/5
f 61/1/6 62/1/6 63/1/6 64/1/6
f 65/1/3 66/1/3 67/1/3 68/1/3
f 69/1/4 70/1/4 71/1/4 72/1/4
f 73/1/5 74/1/5 75/1/5 76/1/5
f 77/1/6 78/1/6 79/1/6 80/1/6
f 81/1/2 82/1/2 83/1/2 84/1/2
f 85/1/3 86/1/3 87/1/3 88/1/3
f 89/1/4 90/1/4 91/1/4 92/1/4
f 93/1/5 94/1/5 95/1/5 96/1/5
f 97/1/6 98/1/6 99/1/6 100/1/6
f 101/1/1 102/1/1 103/1/1 104/1/1
f 105/1/3 106/1/3 107/1/3 108/1/3
f 109/1/5 110/1/5 111/1/5 112/1/5
f 113/1/6 114/1/6 115/1/6 116/1/6
f 117/1/2 118/1/2 119/1/2 120/1/2
f 121/1/4 122/1/4 123/1/4 124/1/4
f 125/1/5 126/1/5 127/1/5 128/1/5
f 129/1/6 130/1/6 131/1/6 132/1/6
f 133/1/1 134/1/1 135/1/1 136/1/1
f 137/1/3 138/1/3 139/1/3 140/1/3
f 141/1/5 142/1/5 143/1/5 144/1/5
f 145/1/6 146/1/6 147/1/6 148/1/6
f 149/1/2 150/1/2 151/1/2 152/1/2
f 153/1/4 154/1/4 155/1/4 156/1/4
f 157/1/5 158/1/5 159/1/5 160/1/5
f 161/1/6 162/1/6 163/1/6 164/1/6
f 165/1/1 166/1/1 167/1/1 168/1/1
f 169/1/3 170/1/3 171/1/3 172/1/3
f 173/1/5 174/1/5 175/1/5 176/1/5
f 177/1/6 178/1/6 179/1/6 180/1/6
f 181/1/3 182/1/3 183/1/3 184/1/3
f 185/1/5 186/1/5 187/1/5 188/1/5
f 189/1/6 190/1/6 191/1/6 192/1/6
f 193/1/2 194/1/2 195/1/2 196/1/2
f 197/1/4 198/1/4 199/1/4 200/1/4
f 201/1/5 202/1/5 203/1/5 204/1/5
f 205/1/6 206/1/6 207/1/6 208/1/6
f 209/1/1 210/1/1 211/1/1 212/1/1
f 213/1/3 214/1/3 215/1/3 216/1/3
f 217/1/5 218/1/5 219/1/5 220/1/5
f 221/1/6 222/1/6 223/1/6 224/1/6
f 225/1/5 226/1/5 227/1/5 228/1/5
f 229/1/6 230/1/6 231/1/6 232/1/6
f 233/1/2 234/1/2 235/1/2 236/1/2
f 237/1/5 238/1/5 239/1/5 240/1/5
f 241/1/6 242/1/6 243/1/6 244/1/6
f 245/1/1 246/1/1 247/1/1 248/1/1
f 249/1/3 250/1/3 251/1/3 252/1/3
f 253/1/5 254/1/5 255/1/5 256/1/5
f 257/1/6 258/1/6 259/1/6 260/1/6
f 261/1/3 262/1/3 263/1/3 264/1/3
f 265/1/5 266/1/5 267/1/5 268/1/5
f 269/1/6 270/1/6 271/1/6 272/1/6
f 273/1/5 274/1/5 275/1/5 276/1/5
f 277/1/6 278/1/6 279/1/6 280/1/6
f 281/1/5 282/1/5 283/1/5 284/1/5
f 285/1/6 286/1/6 287/1/6 288/1/6
f 289/1/2 290/1/2 291/1/2 292/1/2
f 293/1/4 294/1/4 295/1/4 296/1/4
f 297/1/5 298/1/5 299/1/5 300/1/5
f 301/1/6 302/1/6 303/1/6 304/1/6
f 305/1/1 306/1/1 307/1/1 308/1/1
f 309/1/3 310/1/3 311/1/3 312/1/3
f 313/1/5 314/1/5 315/1/5 316/1/5
f 317/1/6 318/1/6 319/1/6 320/1/6
f 321/1/5 322/1/5 323/1/5 324/1/5
f 325/1/6 326/1/6 327/1/6 328/1/6
f 329/1/5 330/1/5 331/1/5 332/1/5
f 333/1/6 334/1/6 335/1/6 336/1/6
f 337/1/5 338/1/5 339/1/5 340/1/5
f 341/1/6 342/1/6 343/1/6 344/1/6
f 345/1/2 346/1/2 347/1/2 348/1/2
f 349/1/5 350/1/5 351/1/5 352/1/5
f 353/1/6 354/1/6 355/1/6 356/1/6
f 357/1/1 358/1/1 359/1/1 360/1/1
f 361/1/4 362/1/4 363/1/4 364/1/4
f 365/1/5 366/1/5 367/1/5 368/1/5
f 369/1/6 370/1/6 371/1/6 372/1/6
f 373/1/5 374/1/5 375/1/5 376/1/5
f 377/1/6 378/1/6 379/1/6 380/1/6
f 381/1/5 382/1/5 383/1/5 384/1/5
f 385/1/6 386/1/6 387/1/6 388/1/6
f 389/1/5 390/1/5 391/1/5 392/1/5
f 393/1/6 394/1/6 395/1/6 396/1/6
f 397/1/2 398/1/2 399/1/2 400/1/2
f 401/1/5 402/1/5 403/1/5 404/1/5
f 405/1/6 406/1/6 407/1/6 408/1/6
f 409/1/1 410/1/1 411/1/1 412/1/1
f 413/1/5 414/1/5 415/1/5 416/1/5
f 417/1/6 418/1/6 419/1/6 420/1/6
f 421/1/4 422/1/4 423/1/4 424/1/4
f 425/1/5 426/1/5 427/1/5 428/1/5
f 429/1/6 430/1/6 431/1/6 432/1/6
f 433/1/5 434/1/5 435/1/5 436/1/5
f 437/1/6 438/1/6 439/1/6 440/1/6
f 441/1/2 442/1/2 443/1/2 444/1/2
f 445/1/5 446/1/5 447/1/5 448/1/5
f 449/1/6 450/1/6 451/1/6 452/1/6
f 453/1/1 454/1/1 455/1/1 456/1/1
f 457/1/2 458/1/2 459/1/2 460/1/2
f 461/1/5 462/1/5 463/1/5 464/1/5
f 465/1/6 466/1/6 467/1/6 468/1/6
f 469/1/1 470/1/1 471/1/1 472/1/1
f 473/1/5 474/1/5 475/1/5 476/1/5
f 477/1/6 478/1/6 479/1/6 480/1/6
f 481/1/2 482/1/2 483/1/2 484/1/2
f 485/1/5 486/1/5 487/1/5 488/1/5
f 489/1/6 490/1/6 491/1/6 492/1/6
f 493/1/1 494/1/1 495/1/1 496/1/1
f 497/1/2 498/1/2 499/1/2 500/1/2
f 501/1/4 502/1/4 503/1/4 504/1/4
f 505/1/5 506/1/5 507/1/5 508/1/5
f 509/1/6 510/1/6 511/1/6 512/1/6
f 513/1/1 514/1/1 515/1/1 516/1/1
f 517/1/5 518/1/5 519/1/5 520/1/5
f 521/1/6 522/1/6 523/1/6 524/1/6
f 525/1/2 526/1/2 527/1/2 528/1/2
f 529/1/5 530/1/5 531/1/5 532/1/5
f 533/1/6 534/1/6 535/1/6 536/1/6
f 537/1/1 538/1/1 539/1/1 540/1/1
f 541/1/5 542/1/5 543/1/5 544/1/5
f 545/1/6 546/1/6 547/1/6 548/1/6
f 549/1/5 550/1/5 551/1/5 552/1/5
f 553/1/6 554/1/6 555/1/6 556/1/6
f 557/1/2 558/1/2 559/1/2 560/1/2
f 561/1/3 562/1/3 563/1/3 564/1/3
f 565/1/5 566/1/5 567/1/5 568/1/5
f 569/1/6 570/1/6 571/1/6 572/1/6
f 573/1/1 574/1/1 575/1/1 576/1/1
f 577/1/5 578/1/5 579/1/5 580/1/5
f 581/1/6 582/1/6 583/1/6 584/1/6
f 585/1/4 586/1/4 587/1/4 588/1/4
f 589/1/5 590/1/5 591/1/5 592/1/5
f 593/1/6 594/1/6 595/1/6 596/1/6
f 597/1/2 598/1/2 599/1/2 600/1/2
f 601/1/5 602/1/5 603/1/5 604/1/5
f 605/1/6 606/1/6 607/1/6 608/1/6
f 609/1/1 610/1/1 611/1/1 612/1/1
f 613/1/2 614/1/2 615/1/2 616/1/2
f 617/1/5 618/1/5 619/1/5 620/1/5
f 621/1/6 622/1/6 623/1/6 624/1/6
f 625/1/1 626/1/1 627/1/1 628/1/1
f 629/1/4 630/1/4 631/1/4 632/1/4
f 633/1/5 634/1/5 635/1/5 636/1/5
f 637/1/6 638/1/6 639/1/6 640/1/6
f 641/1/2 642/1/2 643/1/2 644/1/2
f 645/1/3 646/1/3 647/1/3 648/1/3
f 649/1/5 650/1/5 651/1/5 652/1/5
f 653/1/6 654/1/6 655/1/6 656/1/6
f 657/1/1 658/1/1 659/1/1 660/1/1
f 661/1/2 662/1/2 663/1/2 664/1/2
f 665/1/4 666/1/4 667/1/4 668/1/4
f 669/1/5 670/1/5 671/1/5 672/1/5
f 673/1/6 674/1/6 675/1/6 676/1/6
f 677/1/1 678/1/1 679/1/1 680/1/1
f 681/1/4 682/1/4 683/1/4 684/1/4
f 685/1/5 686/1/5 687/1/5 688/1/5
f 689/1/6 690/1/6 691/1/6 692/1/6
f 693/1/2 694/1/2 695/1/2 696/1/2
f 697/1/3 698/1/3 699/1/3 700/1/3
f 701/1/4 702/1/4 703/1/4 704/1/4
f 705/1/5 706/1/5 707/1/5 708/1/5
f 709/1/6 710/1/6 711/1/6 712/1/6

