# generated by vox_to_obj_exporter --round
# scale=0.1 center=false ground=false y_up=true
# welded, edge-relaxed, smooth vertex normals

mtllib Fight_018.mtl
usemtl palette

# verts
v 0 5.2 -2.5
v 0.013 5.1 -2.5
v 0.02167 5.12167 -2.42167
v 0.01625 5.2 -2.41625
v 0.07833 5.07833 -2.47833
v 0.1 5.1 -2.413
v 0.1 5.2 -2.4
v 0 5.3 -2.5
v 0.01625 5.3 -2.41625
v 0.1 5.3 -2.4
v 0 5.4 -2.5
v 0.01625 5.4 -2.41625
v 0.1 5.4 -2.4
v 0 5.5 -2.5
v 0.01625 5.5 -2.41625
v 0.1 5.5 -2.4
v 0.013 5.6 -2.5
v 0.02167 5.57833 -2.42167
v 0.1 5.6 -2.413
v 0.07833 5.62167 -2.47833
v 0.013 5.1 -2.6
v 0.02167 5.02167 -2.57833
v 0.02167 5.02167 -2.52167
v 0.1 5.013 -2.6
v 0.1 5.013 -2.5
v 0.07833 5.07833 -2.62167
v 0 5.2 -2.6
v 0 5.3 -2.6
v 0 5.4 -2.6
v 0 5.5 -2.6
v 0.013 5.6 -2.6
v 0.02167 5.67833 -2.57833
v 0.02167 5.67833 -2.52167
v 0.1 5.687 -2.5
v 0.1 5.687 -2.6
v 0.07833 5.62167 -2.62167
v 0.01625 5.2 -2.68375
v 0.02167 5.12167 -2.67833
v 0.1 5.1 -2.687
v 0.1 5.2 -2.7
v 0.01625 5.3 -2.68375
v 0.1 5.3 -2.7
v 0.01625 5.4 -2.68375
v 0.1 5.4 -2.7
v 0.01625 5.5 -2.68375
v 0.1 5.5 -2.7
v 0.02167 5.57833 -2.67833
v 0.1 5.6 -2.687
v 0.12167 5.02167 -2.42167
v 0.2 5 -2.5
v 0.2 5.01625 -2.41625
v 0.2 5.1 -2.4
v 0.2 5.2 -2.387
v 0.18375 5.3 -2.38375
v 0.18375 5.4 -2.38375
v 0.2 5.5 -2.387
v 0.2 5.6 -2.4
v 0.12167 5.67833 -2.42167
v 0.2 5.68375 -2.41625
v 0.2 5.713 -2.5
v 0.2 5 -2.6
v 0.2 5.713 -2.6
v 0.12167 5.02167 -2.67833
v 0.2 5.01625 -2.68375
v 0.2 5.1 -2.7
v 0.2 5.2 -2.7
v 0.2 5.3 -2.7
v 0.2 5.4 -2.7
v 0.2 5.5 -2.7
v 0.2 5.6 -2.7
v 0.12167 5.67833 -2.67833
v 0.2 5.68375 -2.68375
v 0.22167 5.22167 -2.32167
v 0.21625 5.3 -2.31625
v 0.3 5.3 -2.313
v 0.27833 5.22167 -2.32167
v 0.3 5.2 -2.387
v 0.32167 5.27833 -2.37833
v 0.21625 5.4 -2.31625
v 0.3 5.4 -2.313
v 0.22167 5.47833 -2.32167
v 0.27833 5.47833 -2.32167
v 0.32167 5.42167 -2.37833
v 0.3 5.5 -2.387
v 0.3 5 -2.5
v 0.3 5.01625 -2.41625
v 0.3 5.1 -2.4
v 0.3 5.6 -2.4
v 0.3 5.7 -2.413
v 0.27833 5.72167 -2.47833
v 0.3 5 -2.6
v 0.22167 5.77833 -2.57833
v 0.22167 5.77833 -2.52167
v 0.3 5.8 -2.5
v 0.3 5.8 -2.587
v 0.3 5.71625 -2.61625
v 0.3 5.01625 -2.68375
v 0.3 5.1 -2.7
v 0.3 5.2 -2.7
v 0.3 5.3 -2.7
v 0.3 5.4 -2.7
v 0.3 5.5 -2.7
v 0.3 5.6 -2.7
v 0.3 5.68375 -2.68375
v 0.37833 5.37833 -2.32167
v 0.37833 5.32167 -2.32167
v 0.4 5.3 -2.387
v 0.4 5.4 -2.387
v 0.4 5 -2.5
v 0.4 5.01625 -2.41625
v 0.4 5.1 -2.4
v 0.4 5.2 -2.4
v 0.4 5.5 -2.413
v 0.38375 5.6 -2.41625
v 0.41625 5.51625 -2.5
v 0.4 5.6 -2.5
v 0.38375 5.7 -2.41625
v 0.413 5.7 -2.5
v 0.32167 5.77833 -2.42167
v 0.37833 5.77833 -2.42167
v 0.4 5.8 -2.487
v 0.4 5.013 -2.6
v 0.41625 5.51625 -2.6
v 0.4 5.6 -2.6
v 0.4 5.7 -2.6
v 0.4 5.8 -2.6
v 0.32167 5.87833 -2.57833
v 0.32167 5.87833 -2.52167
v 0.4 5.88375 -2.51625
v 0.4 5.88375 -2.58375
v 0.42167 5.07833 -2.62167
v 0.37833 5.02167 -2.67833
v 0.4 5.1 -2.687
v 0.4 5.2 -2.7
v 0.4 5.3 -2.7
v 0.4 5.4 -2.7
v 0.4 5.5 -2.687
v 0.38375 5.6 -2.68375
v 0.37833 5.67833 -2.67833
v 0.5 5 -2.5
v 0.5 5.01625 -2.41625
v 0.5 5.1 -2.4
v 0.5 5.2 -2.413
v 0.48375 5.3 -2.41625
v 0.51625 5.21625 -2.5
v 0.513 5.3 -2.5
v 0.5 5.4 -2.413
v 0.52167 5.37833 -2.47833
v 0.5 5.48375 -2.41625
v 0.5 5.5 -2.5
v 0.5 5.01625 -2.58375
v 0.5 5.1 -2.613
v 0.513 5.2 -2.6
v 0.513 5.3 -2.6
v 0.5 5.487 -2.6
v 0.5 5.8 -2.513
v 0.47833 5.72167 -2.52167
v 0.47833 5.72167 -2.57833
v 0.5 5.8 -2.587
v 0.5 5.9 -2.513
v 0.5 5.9 -2.587
v 0.47833 5.12167 -2.67833
v 0.48375 5.2 -2.68375
v 0.48375 5.3 -2.68375
v 0.51625 5.4 -2.61625
v 0.48375 5.4 -2.68375
v 0.47833 5.47833 -2.67833
v 0.58375 5.1 -2.41625
v 0.57833 5.02167 -2.42167
v 0.6 5.013 -2.5
v 0.61625 5.1 -2.48375
v 0.57833 5.17833 -2.42167
v 0.6 5.187 -2.5
v 0.57833 5.47833 -2.42167
v 0.57833 5.42167 -2.42167
v 0.6 5.4 -2.5
v 0.6 5.487 -2.5
v 0.6 5.01625 -2.58375
v 0.6 5.1 -2.6
v 0.6 5.18375 -2.58375
v 0.57833 5.32167 -2.52167
v 0.57833 5.32167 -2.57833
v 0.6 5.4 -2.587
v 0.6 5.48375 -2.58375
v 0.6 5.9 -2.513
v 0.57833 5.82167 -2.52167
v 0.57833 5.82167 -2.57833
v 0.6 5.9 -2.587
v 0.52167 5.97833 -2.57833
v 0.52167 5.97833 -2.52167
v 0.6 6 -2.513
v 0.6 6 -2.587
v 0.7 5.01625 -2.58375
v 0.7 5.01625 -2.51625
v 0.7 5.1 -2.513
v 0.7 5.1 -2.587
v 0.67833 5.17833 -2.52167
v 0.67833 5.17833 -2.57833
v 0.7 5.48375 -2.51625
v 0.7 5.48375 -2.58375
v 0.7 5.41625 -2.58375
v 0.7 5.41625 -2.51625
v 0.7 6 -2.513
v 0.67833 5.92167 -2.52167
v 0.67833 5.92167 -2.57833
v 0.7 6 -2.587
v 0.62167 6.07833 -2.57833
v 0.62167 6.07833 -2.52167
v 0.7 6.1 -2.513
v 0.7 6.1 -2.587
v 0.8 5.08375 -2.51625
v 0.8 5.08375 -2.58375
v 0.8 5.01625 -2.58375
v 0.8 5.01625 -2.51625
v 0.8 5.48375 -2.51625
v 0.8 5.48375 -2.58375
v 0.8 5.41625 -2.58375
v 0.8 5.41625 -2.51625
v 0.8 6.1 -2.513
v 0.77833 6.02167 -2.52167
v 0.77833 6.02167 -2.57833
v 0.8 6.1 -2.587
v 0.72167 6.17833 -2.57833
v 0.72167 6.17833 -2.52167
v 0.8 6.2 -2.513
v 0.8 6.2 -2.587
v 0.9 5.08375 -2.51625
v 0.9 5.08375 -2.58375
v 0.9 5.01625 -2.58375
v 0.9 5.01625 -2.51625
v 0.87833 5.47833 -2.52167
v 0.87833 5.42167 -2.52167
v 0.87833 5.42167 -2.57833
v 0.87833 5.47833 -2.57833
v 0.9 6.2 -2.513
v 0.87833 6.12167 -2.52167
v 0.87833 6.12167 -2.57833
v 0.9 6.2 -2.587
v 0.82167 6.27833 -2.57833
v 0.82167 6.27833 -2.52167
v 0.9 6.28375 -2.51625
v 0.9 6.28375 -2.58375
v 1 5.08375 -2.51625
v 1 5.08375 -2.58375
v 1 5.01625 -2.58375
v 1 5.01625 -2.51625
v 1 6.3 -2.513
v 0.97833 6.22167 -2.52167
v 0.97833 6.22167 -2.57833
v 1 6.3 -2.587
v 1.1 5.08375 -2.51625
v 1.1 5.08375 -2.58375
v 1.1 5.01625 -2.58375
v 1.1 5.01625 -2.51625
v 1.02167 6.37833 -2.57833
v 1.02167 6.37833 -2.52167
v 1.1 6.4 -2.513
v 1.1 6.4 -2.587
v 1.1 6.31625 -2.58375
v 1.1 6.31625 -2.51625
v 1.2 5.08375 -2.51625
v 1.2 5.08375 -2.58375
v 1.2 5.01625 -2.58375
v 1.2 5.01625 -2.51625
v 1.2 6.4 -2.513
v 1.17833 6.32167 -2.52167
v 1.17833 6.32167 -2.57833
v 1.2 6.4 -2.587
v 1.12167 6.47833 -2.57833
v 1.12167 6.47833 -2.52167
v 1.2 6.5 -2.513
v 1.2 6.5 -2.587
v 1.27833 5.07833 -2.52167
v 1.27833 5.02167 -2.52167
v 1.27833 5.02167 -2.57833
v 1.27833 5.07833 -2.57833
v 1.28375 6.5 -2.51625
v 1.27833 6.42167 -2.52167
v 1.27833 6.42167 -2.57833
v 1.28375 6.5 -2.58375
v 1.22167 6.57833 -2.57833
v 1.22167 6.57833 -2.52167
v 1.3 6.6 -2.513
v 1.3 6.6 -2.587
v 1.32167 6.67833 -2.57833
v 1.32167 6.67833 -2.52167
v 1.4 6.7 -2.513
v 1.37833 6.62167 -2.52167
v 1.37833 6.62167 -2.57833
v 1.4 6.7 -2.587
v 1.42167 6.77833 -2.57833
v 1.42167 6.77833 -2.52167
v 1.5 6.78375 -2.51625
v 1.5 6.78375 -2.58375
v 1.5 6.71625 -2.58375
v 1.5 6.71625 -2.51625
v 1.6 6.8 -2.513
v 1.57833 6.72167 -2.52167
v 1.57833 6.72167 -2.57833
v 1.6 6.8 -2.587
v 1.62167 6.87833 -2.57833
v 1.62167 6.87833 -2.52167
v 1.7 6.9 -2.513
v 1.67833 6.82167 -2.52167
v 1.67833 6.82167 -2.57833
v 1.7 6.9 -2.587
v 1.72167 6.97833 -2.57833
v 1.72167 6.97833 -2.52167
v 1.8 7 -2.513
v 1.77833 6.92167 -2.52167
v 1.77833 6.92167 -2.57833
v 1.8 7 -2.587
v 1.82167 5.07833 -2.57833
v 1.82167 5.02167 -2.57833
v 1.82167 5.02167 -2.52167
v 1.82167 5.07833 -2.52167
v 1.9 5.08375 -2.51625
v 1.9 5.08375 -2.58375
v 1.9 5.01625 -2.58375
v 1.9 5.01625 -2.51625
v 1.82167 7.07833 -2.57833
v 1.82167 7.07833 -2.52167
v 1.87833 7.07833 -2.52167
v 1.87833 7.02167 -2.52167
v 1.87833 7.02167 -2.57833
v 1.87833 7.07833 -2.57833
v 2 5.08375 -2.51625
v 2 5.08375 -2.58375
v 2 5.01625 -2.58375
v 2 5.01625 -2.51625
v 2.1 5.08375 -2.51625
v 2.1 5.08375 -2.58375
v 2.1 5.01625 -2.58375
v 2.1 5.01625 -2.51625
v 2.2 5.1 -2.513
v 2.2 5.1 -2.587
v 2.2 5.01625 -2.58375
v 2.2 5.01625 -2.51625
v 2.3 5.01625 -2.58375
v 2.3 5.01625 -2.51625
v 2.3 5.1 -2.5
v 2.3 5.1 -2.6
v 2.22167 5.17833 -2.57833
v 2.22167 5.17833 -2.52167
v 2.3 5.18375 -2.51625
v 2.3 5.18375 -2.58375
v 2.4 5.01625 -2.58375
v 2.4 5.01625 -2.51625
v 2.4 5.1 -2.487
v 2.4 5.1 -2.6
v 2.4 5.187 -2.5
v 2.4 5.18375 -2.58375
v 2.42167 5.12167 -2.42167
v 2.42167 5.17833 -2.42167
v 2.5 5.18375 -2.41625
v 2.5 5.213 -2.5
v 2.47833 5.07833 -2.47833
v 2.5 5.1 -2.413
v 2.5 5.01625 -2.58375
v 2.5 5.013 -2.5
v 2.5 5.1 -2.6
v 2.5 5.2 -2.587
v 2.52167 5.02167 -2.42167
v 2.6 5 -2.5
v 2.6 5.01625 -2.41625
v 2.6 5.1 -2.4
v 2.6 5.2 -2.413
v 2.57833 5.22167 -2.47833
v 2.6 5.01625 -2.58375
v 2.6 5.1 -2.613
v 2.6 5.2 -2.613
v 2.52167 5.27833 -2.57833
v 2.52167 5.27833 -2.52167
v 2.6 5.287 -2.5
v 2.6 5.28375 -2.58375
v 2.7 5 -2.5
v 2.7 5.01625 -2.41625
v 2.7 5.1 -2.4
v 2.7 5.2 -2.4
v 2.62167 5.27833 -2.42167
v 2.7 5.28375 -2.41625
v 2.7 5.3 -2.5
v 2.7 5.01625 -2.58375
v 2.7 5.08375 -2.61625
v 2.7 5.28375 -2.58375
v 2.7 5.21625 -2.61625
v 2.62167 5.17833 -2.67833
v 2.62167 5.12167 -2.67833
v 2.7 5.18375 -2.68375
v 2.7 5.11625 -2.68375
v 2.8 5 -2.5
v 2.8 5.01625 -2.41625
v 2.8 5.1 -2.4
v 2.8 5.2 -2.4
v 2.8 5.28375 -2.41625
v 2.8 5.313 -2.5
v 2.8 5.01625 -2.58375
v 2.8 5.08375 -2.61625
v 2.8 5.3 -2.6
v 2.77833 5.22167 -2.62167
v 2.8 5.2 -2.687
v 2.8 5.11625 -2.68375
v 2.9 5.1 -2.413
v 2.87833 5.02167 -2.42167
v 2.9 5.013 -2.5
v 2.92167 5.07833 -2.47833
v 2.9 5.2 -2.4
v 2.9 5.3 -2.413
v 2.87833 5.32167 -2.47833
v 2.9 5.01625 -2.58375
v 2.9 5.1 -2.613
v 2.82167 5.37833 -2.57833
v 2.82167 5.37833 -2.52167
v 2.9 5.4 -2.5
v 2.9 5.4 -2.587
v 2.9 5.3 -2.613
v 2.91625 5.2 -2.61625
v 2.87833 5.12167 -2.67833
v 2.88375 5.2 -2.68375
v 2.82167 5.27833 -2.67833
v 2.87833 5.27833 -2.67833
v 2.98375 5.2 -2.41625
v 2.97833 5.12167 -2.42167
v 3 5.1 -2.5
v 3 5.2 -2.5
v 2.98375 5.3 -2.41625
v 3.013 5.3 -2.5
v 2.92167 5.37833 -2.42167
v 2.97833 5.37833 -2.42167
v 3 5.4 -2.487
v 3 5.01625 -2.58375
v 3 5.01625 -2.51625
v 3 5.1 -2.587
v 2.98375 5.2 -2.58375
v 3 5.3 -2.587
v 3 5.4 -2.6
v 2.92167 5.47833 -2.57833
v 2.92167 5.47833 -2.52167
v 3 5.48375 -2.51625
v 3 5.48375 -2.58375
v 3.1 5.08375 -2.51625
v 3.1 5.08375 -2.58375
v 3.1 5.01625 -2.58375
v 3.1 5.01625 -2.51625
v 3.1 5.4 -2.513
v 3.07833 5.32167 -2.52167
v 3.07833 5.32167 -2.57833
v 3.1 5.4 -2.587
v 3.1 5.5 -2.513
v 3.1 5.5 -2.587
v 3.2 5.1 -2.513
v 3.17833 5.02167 -2.52167
v 3.17833 5.02167 -2.57833
v 3.2 5.1 -2.587
v 3.2 5.5 -2.513
v 3.17833 5.42167 -2.52167
v 3.17833 5.42167 -2.57833
v 3.2 5.5 -2.587
v 3.12167 5.57833 -2.57833
v 3.12167 5.57833 -2.52167
v 3.2 5.6 -2.513
v 3.2 5.6 -2.587
v 3.22167 5.17833 -2.57833
v 3.22167 5.17833 -2.52167
v 3.3 5.18375 -2.51625
v 3.3 5.18375 -2.58375
v 3.3 5.11625 -2.58375
v 3.3 5.11625 -2.51625
v 3.28375 5.6 -2.51625
v 3.27833 5.52167 -2.52167
v 3.27833 5.52167 -2.57833
v 3.28375 5.6 -2.58375
v 3.21625 5.7 -2.58375
v 3.21625 5.7 -2.51625
v 3.28375 5.7 -2.51625
v 3.28375 5.7 -2.58375
v 3.22167 5.77833 -2.57833
v 3.22167 5.77833 -2.52167
v 3.3 5.8 -2.513
v 3.3 5.8 -2.587
v 3.37833 5.17833 -2.52167
v 3.37833 5.12167 -2.52167
v 3.37833 5.12167 -2.57833
v 3.37833 5.17833 -2.57833
v 3.32167 5.87833 -2.57833
v 3.32167 5.87833 -2.52167
v 3.37833 5.87833 -2.52167
v 3.37833 5.82167 -2.52167
v 3.37833 5.82167 -2.57833
v 3.37833 5.87833 -2.57833
v 4.32167 5.07833 -2.57833
v 4.32167 5.02167 -2.57833
v 4.32167 5.02167 -2.52167
v 4.32167 5.07833 -2.52167
v 4.4 5.08375 -2.51625
v 4.4 5.08375 -2.58375
v 4.4 5.01625 -2.58375
v 4.4 5.01625 -2.51625
v 4.5 5.1 -2.513
v 4.5 5.1 -2.587
v 4.5 5.01625 -2.58375
v 4.5 5.01625 -2.51625
v 4.6 5.01625 -2.58375
v 4.6 5.01625 -2.51625
v 4.6 5.1 -2.5
v 4.6 5.1 -2.6
v 4.52167 5.17833 -2.57833
v 4.52167 5.17833 -2.52167
v 4.6 5.18375 -2.51625
v 4.6 5.18375 -2.58375
v 4.7 5.01625 -2.58375
v 4.7 5.01625 -2.51625
v 4.7 5.1 -2.487
v 4.7 5.1 -2.6
v 4.7 5.2 -2.5
v 4.7 5.2 -2.587
v 4.72167 5.12167 -2.42167
v 4.72167 5.17833 -2.42167
v 4.8 5.18375 -2.41625
v 4.8 5.21625 -2.48375
v 4.77833 5.07833 -2.47833
v 4.8 5.1 -2.413
v 4.8 5.01625 -2.58375
v 4.8 5.013 -2.5
v 4.8 5.1 -2.6
v 4.8 5.2 -2.6
v 4.72167 5.27833 -2.57833
v 4.72167 5.27833 -2.52167
v 4.8 5.3 -2.513
v 4.8 5.3 -2.587
v 4.82167 5.02167 -2.42167
v 4.88375 5.1 -2.41625
v 4.87833 5.02167 -2.42167
v 4.9 5.013 -2.5
v 4.91625 5.1 -2.48375
v 4.87833 5.17833 -2.42167
v 4.9 5.2 -2.5
v 4.9 5.01625 -2.58375
v 4.9 5.1 -2.6
v 4.9 5.2 -2.587
v 4.9 5.3 -2.513
v 4.9 5.3 -2.587
v 4.82167 5.37833 -2.57833
v 4.82167 5.37833 -2.52167
v 4.9 5.38375 -2.51625
v 4.9 5.38375 -2.58375
v 5 5.01625 -2.58375
v 5 5.01625 -2.51625
v 5 5.1 -2.5
v 5 5.1 -2.6
v 5 5.18375 -2.51625
v 5 5.18375 -2.58375
v 5 5.4 -2.513
v 4.97833 5.32167 -2.52167
v 4.97833 5.32167 -2.57833
v 5 5.4 -2.587
v 5.1 5.01625 -2.58375
v 5.1 5.01625 -2.51625
v 5.1 5.1 -2.5
v 5.1 5.1 -2.6
v 5.1 5.18375 -2.51625
v 5.1 5.18375 -2.58375
v 5.02167 5.47833 -2.57833
v 5.02167 5.47833 -2.52167
v 5.1 5.48375 -2.51625
v 5.1 5.48375 -2.58375
v 5.1 5.41625 -2.58375
v 5.1 5.41625 -2.51625
v 5.2 5.01625 -2.58375
v 5.2 5.01625 -2.51625
v 5.2 5.1 -2.5
v 5.2 5.1 -2.6
v 5.2 5.18375 -2.51625
v 5.2 5.18375 -2.58375
v 5.2 5.5 -2.513
v 5.17833 5.42167 -2.52167
v 5.17833 5.42167 -2.57833
v 5.2 5.5 -2.587
v 5.3 5.01625 -2.58375
v 5.3 5.01625 -2.51625
v 5.3 5.1 -2.5
v 5.3 5.1 -2.6
v 5.3 5.18375 -2.51625
v 5.3 5.18375 -2.58375
v 5.22167 5.57833 -2.57833
v 5.22167 5.57833 -2.52167
v 5.3 5.58375 -2.51625
v 5.3 5.58375 -2.58375
v 5.3 5.51625 -2.58375
v 5.3 5.51625 -2.51625
v 5.4 5.1 -2.513
v 5.37833 5.02167 -2.52167
v 5.37833 5.02167 -2.57833
v 5.4 5.1 -2.587
v 5.4 5.2 -2.513
v 5.4 5.2 -2.587
v 5.37833 5.57833 -2.52167
v 5.37833 5.52167 -2.52167
v 5.37833 5.52167 -2.57833
v 5.37833 5.57833 -2.57833
v 5.5 5.11625 -2.58375
v 5.5 5.11625 -2.51625
v 5.5 5.2 -2.5
v 5.5 5.2 -2.6
v 5.42167 5.27833 -2.57833
v 5.42167 5.27833 -2.52167
v 5.5 5.28375 -2.51625
v 5.5 5.28375 -2.58375
v 5.6 5.2 -2.513
v 5.57833 5.12167 -2.52167
v 5.57833 5.12167 -2.57833
v 5.6 5.2 -2.587
v 5.6 5.28375 -2.51625
v 5.6 5.28375 -2.58375
v 5.7 5.28375 -2.51625
v 5.7 5.28375 -2.58375
v 5.7 5.21625 -2.58375
v 5.7 5.21625 -2.51625
v 5.8 5.28375 -2.51625
v 5.8 5.28375 -2.58375
v 5.8 5.21625 -2.58375
v 5.8 5.21625 -2.51625
v 5.82167 5.07833 -2.57833
v 5.82167 5.02167 -2.57833
v 5.82167 5.02167 -2.52167
v 5.82167 5.07833 -2.52167
v 5.9 5.08375 -2.51625
v 5.9 5.08375 -2.58375
v 5.9 5.01625 -2.58375
v 5.9 5.01625 -2.51625
v 5.9 5.28375 -2.51625
v 5.9 5.28375 -2.58375
v 5.9 5.21625 -2.58375
v 5.9 5.21625 -2.51625
v 6 5.08375 -2.51625
v 6 5.08375 -2.58375
v 6 5.01625 -2.58375
v 6 5.01625 -2.51625
v 5.97833 5.27833 -2.52167
v 5.97833 5.22167 -2.52167
v 5.97833 5.22167 -2.57833
v 5.97833 5.27833 -2.57833
v 6.1 5.08375 -2.51625
v 6.1 5.08375 -2.58375
v 6.1 5.01625 -2.58375
v 6.1 5.01625 -2.51625
v 6.2 5.08375 -2.51625
v 6.2 5.08375 -2.58375
v 6.2 5.01625 -2.58375
v 6.2 5.01625 -2.51625
v 6.3 5.08375 -2.51625
v 6.3 5.08375 -2.58375
v 6.3 5.01625 -2.58375
v 6.3 5.01625 -2.51625
v 6.4 5.08375 -2.51625
v 6.4 5.08375 -2.58375
v 6.4 5.01625 -2.58375
v 6.4 5.01625 -2.51625
v 6.5 5.08375 -2.51625
v 6.5 5.08375 -2.58375
v 6.5 5.01625 -2.58375
v 6.5 5.01625 -2.51625
v 6.6 5.1 -2.513
v 6.57833 5.02167 -2.52167
v 6.57833 5.02167 -2.57833
v 6.6 5.1 -2.587
v 6.62167 5.17833 -2.57833
v 6.62167 5.17833 -2.52167
v 6.67833 5.17833 -2.52167
v 6.67833 5.12167 -2.52167
v 6.67833 5.12167 -2.57833
v 6.67833 5.17833 -2.57833
v 6.82167 5.07833 -2.57833
v 6.82167 5.02167 -2.57833
v 6.82167 5.02167 -2.52167
v 6.82167 5.07833 -2.52167
v 6.9 5.08375 -2.51625
v 6.9 5.08375 -2.58375
v 6.9 5.01625 -2.58375
v 6.9 5.01625 -2.51625
v 7 5.1 -2.513
v 7 5.1 -2.587
v 7 5.01625 -2.58375
v 7 5.01625 -2.51625
v 7.1 5.01625 -2.58375
v 7.1 5.01625 -2.51625
v 7.1 5.1 -2.5
v 7.1 5.1 -2.6
v 7.02167 5.17833 -2.57833
v 7.02167 5.17833 -2.52167
v 7.1 5.18375 -2.51625
v 7.1 5.18375 -2.58375
v 7.2 5.01625 -2.58375
v 7.2 5.01625 -2.51625
v 7.2 5.1 -2.513
v 7.2 5.1 -2.587
v 7.17833 5.17833 -2.52167
v 7.17833 5.17833 -2.57833
v 7.3 5.08375 -2.51625
v 7.3 5.08375 -2.58375
v 7.3 5.01625 -2.58375
v 7.3 5.01625 -2.51625
v 7.4 5.1 -2.513
v 7.4 5.1 -2.587
v 7.4 5.01625 -2.58375
v 7.4 5.01625 -2.51625
v 7.5 5.01625 -2.58375
v 7.5 5.01625 -2.51625
v 7.5 5.1 -2.5
v 7.5 5.1 -2.6
v 7.42167 5.17833 -2.57833
v 7.42167 5.17833 -2.52167
v 7.5 5.18375 -2.51625
v 7.5 5.18375 -2.58375
v 7.6 5.01625 -2.58375
v 7.6 5.01625 -2.51625
v 7.6 5.1 -2.5
v 7.6 5.1 -2.6
v 7.6 5.2 -2.513
v 7.6 5.2 -2.587
v 7.7 5.01625 -2.58375
v 7.7 5.01625 -2.51625
v 7.7 5.1 -2.5
v 7.7 5.1 -2.6
v 7.7 5.2 -2.513
v 7.7 5.2 -2.587
v 7.62167 5.27833 -2.57833
v 7.62167 5.27833 -2.52167
v 7.67833 5.27833 -2.52167
v 7.67833 5.27833 -2.57833
v 7.8 5.01625 -2.58375
v 7.8 5.01625 -2.51625
v 7.8 5.1 -2.513
v 7.8 5.1 -2.587
v 7.77833 5.17833 -2.52167
v 7.77833 5.17833 -2.57833
v 7.9 5.08375 -2.51625
v 7.9 5.08375 -2.58375
v 7.9 5.01625 -2.58375
v 7.9 5.01625 -2.51625
v 8 5.08375 -2.51625
v 8 5.08375 -2.58375
v 8 5.01625 -2.58375
v 8 5.01625 -2.51625
v 8.1 5.1 -2.513
v 8.07833 5.02167 -2.52167
v 8.07833 5.02167 -2.57833
v 8.1 5.1 -2.587
v 8.12167 5.17833 -2.57833
v 8.12167 5.17833 -2.52167
v 8.17833 5.17833 -2.52167
v 8.17833 5.12167 -2.52167
v 8.17833 5.12167 -2.57833
v 8.17833 5.17833 -2.57833
v 8.82167 5.07833 -2.57833
v 8.82167 5.02167 -2.57833
v 8.82167 5.02167 -2.52167
v 8.82167 5.07833 -2.52167
v 8.9 5.08375 -2.51625
v 8.9 5.08375 -2.58375
v 8.9 5.01625 -2.58375
v 8.9 5.01625 -2.51625
v 9 5.08375 -2.51625
v 9 5.08375 -2.58375
v 9 5.01625 -2.58375
v 9 5.01625 -2.51625
v 9.1 5.08375 -2.51625
v 9.1 5.08375 -2.58375
v 9.1 5.01625 -2.58375
v 9.1 5.01625 -2.51625
v 9.2 5.08375 -2.51625
v 9.2 5.08375 -2.58375
v 9.2 5.01625 -2.58375
v 9.2 5.01625 -2.51625
v 9.3 5.08375 -2.51625
v 9.3 5.08375 -2.58375
v 9.3 5.01625 -2.58375
v 9.3 5.01625 -2.51625
v 9.4 5.08375 -2.51625
v 9.4 5.08375 -2.58375
v 9.4 5.01625 -2.58375
v 9.4 5.01625 -2.51625
v 9.5 5.08375 -2.51625
v 9.5 5.08375 -2.58375
v 9.5 5.01625 -2.58375
v 9.5 5.01625 -2.51625
v 9.6 5.08375 -2.51625
v 9.6 5.08375 -2.58375
v 9.6 5.01625 -2.58375
v 9.6 5.01625 -2.51625
v 9.67833 5.07833 -2.52167
v 9.67833 5.02167 -2.52167
v 9.67833 5.02167 -2.57833
v 9.67833 5.07833 -2.57833

# texcoords
vt 0.31055 0.5
vt 0.27148 0.5
vt 0.30664 0.5
vt 0.25195 0.5
vt 0.29883 0.5
vt 0.30273 0.5
vt 0.31445 0.5

# normals
vn -0.9942 -0.0591 0.0894
vn -0.9355 -0.193 0.2959
vn -0.9806 -0.1063 0.1649
vn -0.9826 -0.0532 0.178
vn -0.3363 -0.8796 0.3363
vn -0.3643 -0.6585 0.6585
vn -0.5774 -0.5774 0.5774
vn -0.5231 -0.5463 0.6541
vn -0.178 -0.0532 0.9826
vn -0.1649 -0.1063 0.9806
vn -0.3555 -0.2044 0.9121
vn -0.1604 -0.0658 0.9849
vn -0.9954 0 0.0957
vn -0.9817 0 0.1905
vn -0.1905 0 0.9817
vn -0.1822 -0.0072 0.9832
vn -0.1822 0.0072 0.9832
vn -0.9942 0.0591 0.0894
vn -0.9826 0.0532 0.178
vn -0.178 0.0532 0.9826
vn -0.1604 0.0658 0.9849
vn -0.9355 0.193 0.2959
vn -0.9806 0.1063 0.1649
vn -0.3643 0.6585 0.6585
vn -0.3363 0.8796 0.3363
vn -0.5231 0.5463 0.6541
vn -0.5774 0.5774 0.5774
vn -0.1649 0.1063 0.9806
vn -0.3555 0.2044 0.9121
vn -0.9918 -0.1154 -0.0552
vn -0.9939 -0.11 -0
vn -0.9918 -0.1154 0.0552
vn -0.11 -0.9939 -0
vn -0.1154 -0.9918 -0.0552
vn -0.1154 -0.9918 0.0552
vn -0.6541 -0.5231 0.5463
vn -0.3363 -0.3363 0.8796
vn -0.5231 -0.6541 0.5463
vn -0.5774 -0.5774 -0.5774
vn -0.5231 -0.6541 -0.5463
vn -0.3363 -0.3363 -0.8796
vn -0.6541 -0.5231 -0.5463
vn -0.9942 -0.0591 -0.0894
vn -0.9954 0 -0.0957
vn -0.9942 0.0591 -0.0894
vn -0.9918 0.1154 -0.0552
vn -0.9918 0.1154 0.0552
vn -0.9939 0.11 -0
vn -0.11 0.9939 -0
vn -0.1806 0.9801 0.0829
vn -0.1806 0.9801 -0.0829
vn -0.3363 0.3363 0.8796
vn -0.6541 0.5231 0.5463
vn -0.5368 0.6273 0.5642
vn -0.5368 0.6273 -0.5642
vn -0.5774 0.5774 -0.5774
vn -0.6541 0.5231 -0.5463
vn -0.3363 0.3363 -0.8796
vn -0.9826 -0.0532 -0.178
vn -0.9806 -0.1063 -0.1649
vn -0.9355 -0.193 -0.2959
vn -0.3643 -0.6585 -0.6585
vn -0.3363 -0.8796 -0.3363
vn -0.5231 -0.5463 -0.6541
vn -0.1055 -0.0429 -0.9935
vn -0.3401 -0.1881 -0.9214
vn -0.1649 -0.1063 -0.9806
vn -0.178 -0.0532 -0.9826
vn -0.9817 0 -0.1905
vn -0.0957 0 -0.9954
vn -0.1905 0 -0.9817
vn -0.9826 0.0532 -0.178
vn -0.1055 0.0429 -0.9935
vn -0.178 0.0532 -0.9826
vn -0.9806 0.1063 -0.1649
vn -0.9355 0.193 -0.2959
vn -0.3363 0.8796 -0.3363
vn -0.3643 0.6585 -0.6585
vn -0.5231 0.5463 -0.6541
vn -0.3401 0.1881 -0.9214
vn -0.1649 0.1063 -0.9806
vn -0.6585 -0.3643 0.6585
vn -0.8796 -0.3363 0.3363
vn -0.5463 -0.5231 0.6541
vn -0.1063 -0.9806 0.1649
vn -0.193 -0.9355 0.2959
vn -0.0591 -0.9942 0.0894
vn -0.0532 -0.9826 0.178
vn -0.2044 -0.3555 0.9121
vn -0.1063 -0.1649 0.9806
vn -0.0532 -0.178 0.9826
vn -0.0587 -0.1534 0.9864
vn -0.1331 -0.1331 0.9821
vn -0.3334 -0.1158 0.9356
vn -0.6107 -0.0448 0.7906
vn -0.6107 0.0448 0.7906
vn -0.3334 0.1158 0.9356
vn -0.1331 0.1331 0.9821
vn -0.0658 0.1449 0.9872
vn -0.4831 0.7627 0.43
vn -0.5463 0.5231 0.6541
vn -0.5977 0.7306 0.3302
vn -0.4122 0.8437 0.3439
vn -0.1762 0.9394 0.2941
vn -0.2517 0.88 0.4028
vn -0.1063 0.1649 0.9806
vn -0.2044 0.3555 0.9121
vn -0.118 0.4714 0.874
vn -0.0591 -0.9942 -0.0894
vn -0.3942 0.9046 -0.1621
vn -0.3942 0.9046 0.1621
vn -0.4351 0.8852 0.1646
vn -0.4038 0.8975 -0.1772
vn -0.5463 -0.5231 -0.6541
vn -0.8796 -0.3363 -0.3363
vn -0.6585 -0.3643 -0.6585
vn -0.193 -0.9355 -0.2959
vn -0.1063 -0.9806 -0.1649
vn -0.0532 -0.9826 -0.178
vn -0.0429 -0.1055 -0.9935
vn -0.0532 -0.178 -0.9826
vn -0.1063 -0.1649 -0.9806
vn -0.1881 -0.3401 -0.9214
vn -0.0162 -0.0162 -0.9997
vn -0.1122 -0.1122 -0.9873
vn 0 0 -1
vn -0.0162 0.0162 -0.9997
vn -0.0429 0.1055 -0.9935
vn -0.1122 0.1122 -0.9873
vn -0.5977 0.7306 -0.3302
vn -0.5463 0.5231 -0.6541
vn -0.4831 0.7627 -0.43
vn -0.4122 0.8437 -0.3439
vn -0.1803 0.8848 -0.4296
vn -0.111 0.9431 -0.3134
vn -0.0569 0.4792 -0.8758
vn -0.1881 0.3401 -0.9214
vn -0.1063 0.1649 -0.9806
vn -0.4488 -0.1075 0.8871
vn -0.9106 -0.1297 0.3925
vn -0.9079 -0.065 0.4141
vn 0.6402 -0.6402 0.4246
vn 0.8774 -0.2854 0.3856
vn 0.578 -0.2402 0.7799
vn 0.5115 -0.5115 0.6904
vn 0 -0.9492 0.3148
vn -0.0309 -0.0436 0.9986
vn -0.0231 -0.0871 0.9959
vn 0.0161 -0.0291 0.9994
vn -0.9079 0.065 0.4141
vn -0.0309 0.0436 0.9986
vn 0.0161 0.0291 0.9994
vn -0.4488 0.1075 0.8871
vn -0.9106 0.1297 0.3925
vn 0.8774 0.2854 0.3856
vn 0.6402 0.6402 0.4246
vn 0.5287 0.5287 0.664
vn 0.4819 0.218 0.8487
vn 0 0.9492 0.3148
vn 0.1219 0.6697 0.7325
vn -0.0231 0.0871 0.9959
vn 0.0163 -0.9967 0.0796
vn 0 -0.9817 0.1905
vn 0 -0.1905 0.9817
vn 0.0162 -0.1439 0.9895
vn -0.0953 -0.0955 0.9909
vn 0.067 -0.11 0.9917
vn -0.0953 0.0955 0.9909
vn 0.1457 0.1466 0.9784
vn 0.0778 0.1125 0.9906
vn -0.1753 0.7808 0.5997
vn -0.5965 0.6983 0.3957
vn -0.5205 0.6068 0.6007
vn -0.0676 0.1612 0.9846
vn 0.0366 0.1032 0.994
vn 0.0429 -0.9935 -0.1055
vn -0.6891 0.7247 -0
vn -0.6834 0.73 -0
vn -0.6368 0.7463 0.1935
vn -0.7071 0.7071 -0
vn -0.3128 0.3595 0.8792
vn -0.2413 0.8115 0.5323
vn -0.388 0.5691 0.725
vn -0.0854 0.2227 -0.9711
vn -0.0107 0.6617 -0.7497
vn -0.1455 0.8115 -0.5659
vn -0.1767 0.341 -0.9233
vn 0.0532 -0.9826 -0.178
vn 0.0429 -0.1055 -0.9935
vn 0.0532 -0.178 -0.9826
vn 0.0162 -0.0162 -0.9997
vn 0.0162 0.0162 -0.9997
vn 0.0556 0.0234 -0.9982
vn 0.0736 0.0893 -0.9933
vn -0.0954 0.6506 -0.7534
vn 0.0413 0.7622 -0.646
vn 0.0707 0.6241 -0.7782
vn 0.9492 0 0.3148
vn 0.5451 -0.0255 0.838
vn 0.5441 0.0647 0.8365
vn 0.2854 0.8774 0.3856
vn 0.2407 0.4593 0.855
vn 0.2402 -0.578 0.7799
vn 0.2854 -0.8774 0.3856
vn 0.11 0 0.9939
vn 0.0237 -0.9989 0.0403
vn 0.0326 -0.0958 0.9949
vn 0.1229 -0.0415 0.9916
vn 0.3014 -0.1719 0.9379
vn 0.2595 -0.3009 0.9177
vn 0.3127 0.3985 0.8622
vn 0.4466 0.2849 0.8482
vn 0.1968 0.1547 0.9682
vn 0.9709 0.0562 0.2326
vn 0.9642 0.1741 0.2001
vn 0.9779 0.1832 0.1006
vn 0.9931 0.0603 0.101
vn 0.3618 0.1993 0.9107
vn 0.1695 0.0808 0.9822
vn 0.9544 0.0102 0.2982
vn 0.9062 -0.0494 0.42
vn 0.0693 0.0759 0.9947
vn -0.6311 0.5523 0.5447
vn -0.8792 0.3128 0.3595
vn 0.9393 0.0829 0.3329
vn 0.6923 -0.0262 0.7212
vn -0.2078 0.7582 0.618
vn -0.024 0.9571 0.2887
vn -0.0738 0.715 0.6952
vn 0.0231 0.0871 0.9959
vn 0.0667 -0.9894 -0.1291
vn 0.9779 0.1832 -0.1006
vn 0.9884 0.085 -0.1255
vn 0.9836 -0.0151 0.1798
vn 0.9887 -0.0141 -0.1492
vn 0.0411 0.0855 -0.9955
vn 0.1495 0.3914 -0.908
vn -0.9638 0.2666 -0
vn -0.7996 0.5849 0.1363
vn -0.069 0.9976 -0
vn -0.1148 0.9934 -0
vn -0.107 0.311 0.9444
vn 0.0754 0.3778 0.9228
vn -0.004 0.2357 0.9718
vn -0.0326 0.1269 -0.9914
vn 0.5099 -0.5909 -0.6252
vn 0.5941 -0.381 -0.7085
vn 0.8796 -0.3363 -0.3363
vn 0.5253 -0.5214 -0.6725
vn 0.1063 -0.9806 -0.1649
vn 0.1053 -0.9244 -0.3665
vn 0.1721 -0.3361 -0.926
vn 0.1063 -0.1649 -0.9806
vn 0.1055 -0.0429 -0.9935
vn 0.1122 -0.1122 -0.9873
vn 0.0957 0 -0.9954
vn 0.1055 0.0429 -0.9935
vn 0.1291 0.0667 -0.9894
vn 0.9642 0.1741 -0.2001
vn 0.9705 0.1056 -0.2167
vn 0.1467 0.0824 -0.9858
vn 0.972 0.0366 -0.2323
vn 0.1063 0.6191 -0.7781
vn 0.1681 0.6078 -0.7761
vn 0.1098 0.4687 -0.8765
vn 0.0506 -0.9985 0.021
vn 0.0532 -0.9826 0.178
vn 0.068 -0.1635 0.9842
vn 0.0923 -0.0392 0.995
vn 0.1518 0.0474 0.9873
vn 0.8106 -0.0408 0.5842
vn 0.9582 0.1064 0.2655
vn 0.9901 0.0627 0.1253
vn 0.9061 -0.1022 0.4105
vn 0.4427 -0.0566 0.8949
vn 0.5318 -0.0907 0.842
vn 0.6087 -0.4373 0.662
vn 0.6856 -0.0397 0.7269
vn 0.6068 -0.5205 0.6007
vn 0.4459 0.0911 0.8904
vn 0.4062 -0.0104 0.9137
vn 0.22 0.973 0.0694
vn 0.1741 0.9642 0.2001
vn 0.1403 0.9731 0.1827
vn 0.1592 0.9858 0.0543
vn 0.2601 0.3336 0.9061
vn 0.1779 0.0468 0.9829
vn 0.1216 0.0894 0.9885
vn 0.0466 -0.9896 -0.1363
vn 0.3895 -0.3394 -0.8562
vn 0.1199 -0.3021 -0.9457
vn 0.4696 -0.6696 -0.5754
vn 0.9796 -0.0179 0.2002
vn 0.973 -0.022 -0.2296
vn 0.9695 -0.0095 -0.245
vn 0.2833 0.9493 -0.1365
vn 0.219 0.9682 -0.1208
vn 0.7071 -0.7071 -0
vn 0.7152 -0.6988 -0.0137
vn 0.2887 -0.9571 -0.024
vn 0.3532 0.1217 0.9276
vn 0.8172 -0.0406 0.5749
vn 0.2903 -0.1293 0.9482
vn 0.1501 -0.0095 0.9886
vn 0.0989 -0.013 -0.995
vn 0.1987 -0.0716 -0.9774
vn 0.1149 0.0432 -0.9924
vn -0.1604 0.9871 -0
vn 0.0971 0.1162 0.9885
vn 0.0332 0.0525 0.9981
vn 0.0138 0.0294 -0.9995
vn 0.644 -0.2446 -0.7249
vn 0.9393 -0.0829 -0.3329
vn 0.7832 -0.0313 -0.621
vn 0.4241 -0.4385 -0.7923
vn 0.2584 -0.5645 -0.784
vn 0.1899 -0.5359 -0.8226
vn 0.178 -0.0532 -0.9826
vn 0.3519 -0.3634 -0.8626
vn 0.8881 -0.0566 -0.4561
vn 0.6442 -0.0131 -0.7647
vn 0.648 -0.0547 -0.7597
vn 0.6802 0.0216 -0.7327
vn 0.6317 0.0653 -0.7725
vn 0.5991 0.5028 -0.6231
vn 0.5791 0.5013 -0.6429
vn 0.3032 0.9296 -0.2096
vn 0.4487 0.8703 -0.203
vn 0.7049 0.6313 -0.3234
vn 0.6239 0.1569 -0.7656
vn 0.9341 0 0.357
vn 0.921 -0.1668 0.352
vn 0.6529 -0.1684 0.7385
vn 0.6766 0.0218 0.736
vn 0.0622 -0.998 0.0094
vn 0.1063 -0.9806 0.1649
vn 0.1357 -0.1357 0.9814
vn 0.1515 -0.0148 0.9884
vn 0.5791 0.5013 0.6429
vn 0.7653 0.0405 0.6424
vn 0.6104 0.5219 0.5959
vn 0.288 0.9562 0.0523
vn 0.3032 0.9296 0.2096
vn 0.7049 0.6313 0.3234
vn 0.4556 0.8814 0.1249
vn 0.4662 0.0524 0.8831
vn 0.6239 0.1569 0.7656
vn 0.9638 0 0.2666
vn 0.872 -0.2209 0.4368
vn 0.1063 0.9806 0.1649
vn 0.07 0.9974 0.0187
vn 0.6983 -0.5965 0.3957
vn 0.5481 -0.7462 0.3779
vn 0.3128 -0.8792 0.3595
vn 0.0871 0.0231 0.9959
vn 0.0395 -0.9969 -0.0685
vn 0.1013 -0.0174 -0.9947
vn 0.0637 -0.189 -0.9799
vn 0.1927 -0.3734 -0.9074
vn 0.2655 0.9582 -0.1064
vn 0.2217 0.9747 0.0271
vn 0.1772 0.982 -0.065
vn 0.1358 0.1544 -0.9786
vn 0.1382 -0.1568 -0.9779
vn 0.1651 0.1436 -0.9758
vn 0.864 -0.4418 0.2415
vn 0.7247 -0.6891 -0
vn 0.9638 -0.2666 -0
vn 0.3148 -0.9492 -0
vn 0.8252 -0.141 0.547
vn 0.3595 -0.3128 0.8792
vn 0.5452 -0.3617 0.7563
vn 0.2023 -0.0076 -0.9793
vn 0.341 -0.1767 -0.9233
vn 0.802 -0.0807 -0.5918
vn 0.0512 0.9972 -0.0547
vn 0.1285 0.0777 -0.9887
vn 0.6529 0.1684 -0.7385
vn 0.0552 -0.0552 0.997
vn 0.0184 -0.0184 0.9997
vn 0.0184 -0.0184 -0.9997
vn 0.0552 -0.0552 -0.997
vn -0.0552 0.0552 0.997
vn -0.0184 0.0184 0.9997
vn -0.0184 0.0184 -0.9997
vn -0.0552 0.0552 -0.997
vn 0.0073 -0.9999 -0.0107
vn 0.1285 -0.0777 0.9887
vn 0.1896 0.0188 0.9817
vn 0.0622 0.0094 -0.998
vn 0.0395 -0.0685 -0.9969
vn 0.9638 0.2666 -0
vn 0.0871 0.9959 -0.0231
vn 0.6757 0.2078 0.7073
vn 0.3032 0.2096 0.9296
vn 0.1063 0.1649 -0.9806
vn 0.0073 0.9999 -0.0107
vn 0.2416 -0.9529 0.1836
vn 0.1604 -0.9871 -0
vn 0.0805 -0.9968 -0
vn 0.1604 0 0.9871
vn 0.2649 -0.1594 0.951
vn 0.0805 0 0.9968
vn 0.0073 0.0107 -0.9999
vn 0.1604 0.9871 -0
vn 0.0805 0.9968 -0
vn 0 -1 -0
vn 0.0073 -0.0107 0.9999
vn 0.0073 -0.0107 -0.9999
vn 0.0345 0.9994 -0
vn 0.0345 -0.9994 -0
vn 0.0345 0 0.9994
vn 0.0345 0 -0.9994
vn -0.0109 0.0259 0.9996
vn -0.0109 0.0259 -0.9996
vn 0 1 -0
vn 0 0 1
vn 1 0 -0
vn 0.069 0.9976 -0
vn 0.069 -0.9976 -0
vn 0.069 0 0.9976
vn 0.069 0 -0.9976
vn 0.0204 -0.0054 0.9998
vn 0.0204 -0.0054 -0.9998
vn -0.0326 0.0776 0.9964
vn 0.003 0.0196 0.9998
vn 0.003 0.0196 -0.9998
vn -0.0326 0.0776 -0.9964
vn 0.0385 -0.0385 0.9985
vn 0.0385 -0.0385 -0.9985
vn 0.1148 -0.9934 -0
vn -0.0385 0.0385 0.9985
vn -0.003 -0.0196 0.9998
vn -0.0204 0.0054 0.9998
vn -0.0204 0.0054 -0.9998
vn -0.003 -0.0196 -0.9998
vn -0.0385 0.0385 -0.9985
vn 0.0326 -0.0776 0.9964
vn 0.0326 -0.0776 -0.9964
vn -0.0054 0.0204 0.9998
vn -0.0054 0.0204 -0.9998
vn 0.9934 -0.1148 -0
vn 0.9976 -0.069 -0
vn 0.2666 -0.9638 -0
vn 0.0776 -0.0326 0.9964
vn 0.0196 0.003 0.9998
vn 0.0196 0.003 -0.9998
vn 0.0776 -0.0326 -0.9964
vn 0.9871 -0.1604 -0
vn -0.0193 0.0193 0.9996
vn -0.0193 0.0193 -0.9996
vn -0.0098 0.0311 0.9995
vn -0.0098 0.0311 -0.9995
vn -0.0197 0.0622 0.9979
vn -0.0197 0.0622 -0.9979
vn 0.0197 -0.0622 0.9979
vn 0.0098 -0.0311 0.9995
vn 0.0098 -0.0311 -0.9995
vn 0.0197 -0.0622 -0.9979
vn 0.0276 0.0276 0.9992
vn 0.0276 0.0276 -0.9992
vn -1 0 -0
vn -0.0345 0.9994 -0
vn -0.069 -0.9976 -0
vn -0.0345 -0.9994 -0
vn -0.069 0 0.9976
vn -0.0345 0 0.9994
vn -0.0345 0 -0.9994
vn -0.069 0 -0.9976
vn 0.0552 0.0552 0.997
vn 0.0552 0.0552 -0.997
vn -0.0805 0.9968 -0
vn -0.0073 -0.0107 0.9999
vn -0.0073 -0.0107 -0.9999
vn -0.0395 -0.0685 0.9969
vn -0.0622 0.0094 0.998
vn -0.0622 0.0094 -0.998
vn -0.0395 -0.0685 -0.9969
vn -0.0637 -0.189 0.9799
vn -0.0964 -0.0115 0.9953
vn -0.0433 0.0126 -0.999
vn -0.0323 -0.1531 -0.9877
vn -0.0418 0.9991 -0.0107
vn -0.1258 0.166 0.9781
vn -0.0532 0.178 -0.9826
vn -0.0073 -0.9999 -0.0107
vn -0.1199 -0.3021 0.9457
vn -0.1879 -0.3682 0.9106
vn -0.0073 -0.0085 -0.9999
vn 0 -0.1905 -0.9817
vn -0.1343 0.9899 0.0447
vn -0.1115 0.9921 -0.0574
vn -0.1317 -0.1492 0.98
vn -0.1453 0.1671 0.9752
vn -0.0144 0.1739 -0.9847
vn -0.9577 0.0259 0.2865
vn -0.1754 0.9532 0.2464
vn -0.2337 0.8952 0.3796
vn -0.2854 -0.8774 0.3856
vn -0.1899 -0.5359 0.8226
vn -0.5099 -0.5909 0.6252
vn -0.5019 -0.5443 0.6722
vn -0.0871 0.0231 0.9959
vn -0.0943 -0.0182 0.9954
vn -0.0875 0.0554 0.9946
vn -0.0395 -0.9969 -0.0685
vn -0.0622 -0.998 0.0094
vn -0.4696 -0.6696 0.5754
vn -0.0719 -0.0589 -0.9957
vn -0.0313 -0.2263 -0.9735
vn -0.1898 0.9674 0.1679
vn -0.2072 0.9739 -0.0927
vn -0.1325 0.1566 -0.9787
vn -0.5941 -0.381 0.7085
vn -0.6363 -0.663 0.3943
vn -0.1044 -0.9559 0.2745
vn -0.0433 -0.999 0.0126
vn -0.1606 -0.2641 0.951
vn -0.0653 -0.0512 0.9966
vn -0.4696 0.5754 0.6696
vn -0.5099 0.6252 0.5909
vn -0.0863 0.1059 0.9906
vn -0.0323 -0.9877 -0.1531
vn -0.1189 -0.4119 -0.9035
vn -0.0543 -0.3202 -0.9458
vn -0.1389 0.2317 -0.9628
vn -0.1018 -0.1958 -0.9754
vn -0.9577 0.2865 -0.0259
vn -0.0871 0.9959 -0.0231
vn -0.0866 0.9962 0.0089
vn -0.0759 0.9947 -0.0693
vn -0.2854 0.3856 0.8774
vn -0.2302 0.8168 0.529
vn -0.5019 0.6722 0.5443
vn -0.111 0.3134 -0.9431
vn -0.148 0.4364 -0.8875
vn -0.1754 0.2464 -0.9532
vn -0.0163 -0.0796 0.9967
vn -0.0429 0.1055 0.9935
vn -0.6363 0.3943 0.663
vn -0.5941 0.7085 0.381
vn -0.8796 0.3363 0.3363
vn -0.1545 0.9539 0.2571
vn -0.1063 0.9806 0.1649
vn -0.0846 0.9733 0.2136
vn -0.0988 0.9943 0.0396
vn -0.1223 0.3484 0.9293
vn -0.0532 0.178 0.9826
vn -0.0415 -0.8851 -0.4635
vn -0.0129 -0.7826 -0.6224
vn -0.047 -0.7024 -0.7102
vn -0.0411 -0.6144 -0.7879
vn -0.11 0.9846 -0.1355
vn -0.1342 0.6459 -0.7516
vn -0.1246 0.6927 -0.7103
vn -0.9492 0 -0.3148
vn -0.1297 0.9106 -0.3925
vn -0.127 0.5554 -0.8218
vn -0.086 -0.56 -0.824
vn -0.1297 -0.9106 -0.3925
vn -0.065 -0.9079 -0.4141
vn -0.0418 -0.0107 -0.9991
vn 0.0433 -0.999 0.0126
vn 0.0532 -0.178 0.9826
vn 0.0429 -0.1055 0.9935
vn 0.009 0.0712 0.9974
vn -0.1199 0.9457 0.3021
vn -0.199 0.9062 0.3731
vn -0.0777 0.4806 0.8735
vn 0.0314 -0.7936 -0.6076
vn 0.047 -0.7024 -0.7102
vn -0.1217 0.7825 -0.6106
vn -0.135 0.979 0.153
vn -0.1245 0.8534 -0.5061
vn -0.3276 0.6928 -0.6424
vn -0.4511 0.6149 -0.6469
vn -0.5749 0.6971 -0.4285
vn 0.065 -0.9079 -0.4141
vn 0.0213 0.0035 -0.9998
vn 0.0203 -0.0383 -0.9991
vn 0.5366 -0.5225 0.6627
vn 0.8796 -0.3363 0.3363
vn 0.6213 -0.3385 0.7067
vn 0.5437 -0.5659 0.6198
vn 0.1063 -0.1649 0.9806
vn 0.1806 -0.3384 0.9235
vn 0.1122 -0.1122 0.9873
vn 0.0797 0.0127 0.9967
vn -0.0912 0.7918 0.604
vn -0.0144 0.1739 0.9847
vn 0.0239 -0.8936 -0.4481
vn 0.1749 -0.4089 -0.8957
vn 0.0866 -0.2849 -0.9546
vn 0.0169 -0.6644 -0.7472
vn -0.6988 0.7152 -0.0137
vn -0.9321 0.3053 -0.1947
vn -0.9571 0.2887 -0.024
vn -0.201 0.8177 0.5395
vn -0.0639 0.1686 -0.9836
vn 0.0645 0.3762 -0.9243
vn -0.3572 0.5639 -0.7446
vn -0.1486 0.2722 -0.9507
vn 0.6802 -0 -0.733
vn 0.5056 -0.1179 -0.8547
vn 0.9106 -0.1297 -0.3925
vn 0.9183 -0 -0.3958
vn 0.1297 -0.9106 -0.3925
vn 0.1101 -0.5386 -0.8354
vn 0.0392 0.016 -0.9991
vn -0.8792 0.3128 -0.3595
vn -0.64 0.3701 -0.6734
vn 0.6785 0.071 -0.7312
vn 0.9106 0.1297 -0.3925
vn -0.024 0.9571 -0.2887
vn -0.1386 0.736 -0.6626
vn -0.0984 0.7008 -0.7066
vn 0.0231 0.0871 -0.9959
vn 0.9677 -0.0496 0.247
vn 0.972 -0.0366 0.2323
vn 0.9973 0.0231 0.07
vn 0.9974 -0.0415 0.0594
vn 0.5133 -0.5456 0.6625
vn 0.3024 -0.6338 0.7119
vn 0.3401 -0.1881 0.9214
vn 0.1649 -0.1063 0.9806
vn 0.1407 -0.021 0.9898
vn 0.9148 -0.0735 0.3972
vn 0.1552 -0.1905 0.9693
vn 0.2317 -0.4691 0.8522
vn 0.1589 -0.071 -0.9847
vn 0.0709 -0.1058 -0.9919
vn 0.3623 -0.3775 -0.8522
vn 0.9921 0.0821 -0.0944
vn 0.9908 -0.0318 -0.1317
vn 0.3297 0 -0.9441
vn 0.3926 -0.1935 -0.8991
vn 0.9882 -0.043 0.1468
vn 0.9752 -0.1453 -0.1671
vn 0.1785 -0.0239 -0.9836
vn 0.3293 0.1329 -0.9348
vn 0.0342 0.046 -0.9984
vn 0.0842 0.1154 -0.9898
vn 0.0458 -0.0844 0.9954
vn 0.0171 -0.0419 -0.999
vn 0.7144 -0.6996 -0.0148
vn 0.2865 -0.9577 -0.0259
vn 0.0778 -0.0345 -0.9964
vn 0.1357 -0.1357 -0.9814
vn 0.0259 -0.0109 0.9996
vn 0.0259 -0.0109 -0.9996
vn -0.2666 0.9638 -0
vn 0.0147 0.0124 0.9998
vn 0.0147 0.0124 -0.9998
vn 0.0247 0.0312 0.9992
vn 0.0247 0.0312 -0.9992
vn 0.9994 -0.0345 -0
vn 0.0496 -0.0091 0.9987
vn 0.0496 -0.0091 -0.9987
vn -0.9934 0.1148 -0
vn -0.9871 0.1604 -0
vn 0.9968 -0.0805 -0
vn -0.0204 0.0171 0.9996
vn -0.0204 0.0171 -0.9996
vn -0.9976 0.069 -0
vn -0.0622 0.0197 0.9979
vn -0.0035 0.0375 0.9993
vn -0.0035 0.0375 -0.9993
vn -0.0622 0.0197 -0.9979
vn -0.0418 -0.0107 0.9991
vn -0.0989 -0.0144 0.995
vn -0.0506 0.0041 -0.9987
vn -0.1308 0.1602 0.9784
vn -0.0676 0.1612 -0.9846
vn -0.1903 -0.3708 0.909
vn -0.0237 -0.0403 -0.9989
vn -0.1609 0.9694 0.1853
vn -0.135 -0.153 0.979
vn -0.1877 0.5137 0.8372
vn -0.0766 0.1194 -0.9899
vn -0.978 0.1479 0.147
vn -0.9571 0.024 0.2887
vn -0.1994 0.7093 0.6762
vn -0.1558 0.9182 0.3642
vn 0 0.9296 0.3687
vn -0.0283 0.6709 0.741
vn -0.003 -0.003 1
vn -0.016 0.0392 0.9991
vn -0.0073 -0.9995 -0.0301
vn -0.0048 -0.9999 0.0166
vn 0 -0.0635 -0.998
vn -0.0178 0.0828 -0.9964
vn -0.1971 0.3177 0.9275
vn -0.0448 0.2087 0.9769
vn -0.0347 0.0931 -0.9951
vn -0.1357 0.1357 -0.9814
vn 0.9318 -0.0056 0.3629
vn 0.6254 -0.2095 0.7517
vn 0.7652 -0.0802 0.6387
vn 0 -0.9939 0.11
vn 0.0048 -0.9999 0.0166
vn 0.0231 -0.0871 0.9959
vn 0.0392 -0.016 0.9991
vn 0.9182 0.1558 0.3642
vn 0.768 0.0667 0.637
vn 0.8378 0.1365 0.5287
vn 0.1558 0.9182 0.3642
vn 0.1809 0.698 0.6929
vn 0.0073 -0.9995 -0.0301
vn 0.0237 -0.0403 -0.9989
vn 0.0528 0.0956 -0.994
vn 0.9793 0.0795 0.1859
vn 0.1635 0.4936 0.8542
vn 0.0345 0.088 0.9955
vn 0.0236 0.0347 -0.9991
vn 0.4889 -0.0686 0.8696
vn 0.0874 -0.196 0.9767
vn 0.0924 -0.0033 0.9957
vn 0.0073 -0.0085 -0.9999
vn 0.1609 0.9694 0.1853
vn 0.4069 0.4447 0.7979
vn 0.4866 0.0543 0.872
vn 0.094 0.1896 0.9773
vn 0.0144 0.1739 -0.9847
vn 0.0094 0.0119 0.9999
vn 0.0094 0.0119 -0.9999
vn 0 0.1905 0.9817
vn 0 0.1905 -0.9817
vn 0.0374 -0.0195 0.9991
vn 0.0374 -0.0195 -0.9991
vn 0.0207 0.1395 0.99
vn 0.0207 0.1395 -0.99
vn 0.0357 -0.0554 0.9978
vn 0.0357 -0.0554 -0.9978
vn -0.0357 0.0554 0.9978
vn -0.0357 0.0554 -0.9978
vn 0.0326 -0.1269 0.9914
vn 0.0058 0.0069 1
vn 0.0058 0.0069 -1
vn 0.0326 -0.1269 -0.9914
vn -0.021 0.1407 0.9898
vn -0.021 0.1407 -0.9898
vn 0.0622 -0.0094 0.998
vn 0.0622 -0.0094 -0.998
vn 0.0395 0.0685 0.9969
vn 0.0395 0.0685 -0.9969
vn 0.0073 0.0107 0.9999
vn 0.0375 -0.0035 0.9993
vn 0.0375 -0.0035 -0.9993
vn 0 -0.1156 0.9933
vn 0 0.0251 0.9997
vn -0 0.0251 -0.9997
vn 0 -0.1156 -0.9933
vn 0 0.1659 0.9861
vn 0 0.1659 -0.9861
vn 0.0395 -0.0685 0.9969
vn 0.0622 0.0094 0.998
vn 0.1063 0.1649 0.9806
vn 0 -0.0215 0.9998
vn 0 -0.0215 -0.9998
vn -0.0323 -0.1531 0.9877
vn -0.0506 0.0041 0.9987
vn -0.0073 -0.0241 0.9997
vn -0.0073 -0.0241 -0.9997
vn -0.0096 0.132 0.9912
vn -0.0096 0.132 -0.9912
vn 0.0323 -0.1531 0.9877
vn 0.0507 -0.0104 0.9987
vn 0.0507 -0.0104 -0.9987
vn 0.0323 -0.1531 -0.9877
vn 0.0453 0.1251 0.9911
vn 0.0453 0.1251 -0.9911
vn 0.7071 0.7071 -0
vn 0 0.11 0.9939
vn 0 0.11 -0.9939
vn 0.072 -0.0004 0.9974
vn 0.072 -0.0004 -0.9974
vn 0.1357 0.1357 0.9814
vn 0.1357 0.1357 -0.9814

# faces
f 1/1/1 2/1/2 3/1/3
f 1/1/1 3/1/3 4/1/4
f 3/1/5 2/1/6 5/1/7
f 3/1/5 5/1/7 6/1/8
f 3/1/10 6/1/11 7/1/12
f 3/1/10 7/1/12 4/1/9
f 8/2/13 1/2/1 4/2/4
f 8/2/13 4/2/4 9/2/14
f 9/2/15 4/2/9 7/2/12
f 9/2/15 7/2/12 10/2/16
f 11/3/13 8/3/13 9/3/14
f 11/3/13 9/3/14 12/3/14
f 12/3/15 9/3/15 10/3/16
f 12/3/15 10/3/16 13/3/17
f 14/4/18 11/4/13 12/4/14
f 14/4/18 12/4/14 15/4/19
f 15/4/20 12/4/15 13/4/17
f 15/4/20 13/4/17 16/4/21
f 14/2/18 15/2/19 18/2/23
f 14/2/18 18/2/23 17/2/22
f 18/2/25 19/2/26 20/2/27
f 18/2/25 20/2/27 17/2/24
f 18/2/28 15/2/20 16/2/21
f 18/2/28 16/2/21 19/2/29
f 22/5/31 23/5/31 2/5/32
f 22/5/31 2/5/32 21/5/30
f 22/5/33 24/5/34 25/5/35
f 22/5/33 25/5/35 23/5/33
f 23/5/37 25/5/38 5/5/7
f 23/5/37 5/5/7 2/5/36
f 26/5/39 24/5/40 22/5/41
f 26/5/39 22/5/41 21/5/42
f 27/1/43 21/1/30 2/1/32
f 27/1/43 2/1/32 1/1/1
f 28/2/44 27/2/43 1/2/1
f 28/2/44 1/2/1 8/2/13
f 29/3/44 28/3/44 8/3/13
f 29/3/44 8/3/13 11/3/13
f 30/4/45 29/4/44 11/4/13
f 30/4/45 11/4/13 14/4/18
f 31/2/46 30/2/45 14/2/18
f 31/2/46 14/2/18 17/2/47
f 32/5/48 31/5/46 17/5/47
f 32/5/48 17/5/47 33/5/48
f 32/5/49 33/5/49 34/5/50
f 32/5/49 34/5/50 35/5/51
f 33/5/52 17/5/53 20/5/27
f 33/5/52 20/5/27 34/5/54
f 36/5/56 31/5/57 32/5/58
f 36/5/56 32/5/58 35/5/55
f 38/1/60 21/1/61 27/1/43
f 38/1/60 27/1/43 37/1/59
f 38/1/63 39/1/64 26/1/39
f 38/1/63 26/1/39 21/1/62
f 40/1/65 39/1/66 38/1/67
f 40/1/65 38/1/67 37/1/68
f 41/2/69 37/2/59 27/2/43
f 41/2/69 27/2/43 28/2/44
f 42/2/70 40/2/65 37/2/68
f 42/2/70 37/2/68 41/2/71
f 43/3/69 41/3/69 28/3/44
f 43/3/69 28/3/44 29/3/44
f 44/3/70 42/3/70 41/3/71
f 44/3/70 41/3/71 43/3/71
f 45/4/72 43/4/69 29/4/44
f 45/4/72 29/4/44 30/4/45
f 46/4/73 44/4/70 43/4/71
f 46/4/73 43/4/71 45/4/74
f 47/2/75 45/2/72 30/2/45
f 47/2/75 30/2/45 31/2/76
f 47/2/77 31/2/78 36/2/56
f 47/2/77 36/2/56 48/2/79
f 46/2/73 45/2/74 47/2/81
f 46/2/73 47/2/81 48/2/80
f 5/5/7 25/5/82 49/5/83
f 5/5/7 49/5/83 6/5/84
f 49/5/85 25/5/86 50/5/87
f 49/5/85 50/5/87 51/5/88
f 49/5/90 51/5/91 52/5/92
f 49/5/90 52/5/92 6/5/89
f 7/1/12 6/1/93 52/1/92
f 7/1/12 52/1/92 53/1/94
f 7/5/12 53/5/94 54/5/95
f 7/5/12 54/5/95 10/5/16
f 13/2/17 10/2/16 54/2/95
f 13/2/17 54/2/95 55/2/96
f 16/6/21 13/6/17 55/6/96
f 16/6/21 55/6/96 56/6/97
f 16/4/21 56/4/97 57/4/99
f 16/4/21 57/4/99 19/4/98
f 20/2/27 19/2/101 58/2/102
f 20/2/27 58/2/102 34/2/100
f 58/2/102 59/2/104 60/2/105
f 58/2/102 60/2/105 34/2/103
f 58/2/106 19/2/107 57/2/99
f 58/2/106 57/2/99 59/2/108
f 25/5/35 24/5/34 61/5/109
f 25/5/35 61/5/109 50/5/87
f 35/2/110 34/2/111 60/2/112
f 35/2/110 60/2/112 62/2/113
f 63/5/115 24/5/116 26/5/39
f 63/5/115 26/5/39 39/5/114
f 63/5/118 64/5/119 61/5/109
f 63/5/118 61/5/109 24/5/117
f 65/5/120 64/5/121 63/5/122
f 65/5/120 63/5/122 39/5/123
f 65/1/120 39/1/125 40/1/65
f 65/1/120 40/1/65 66/1/124
f 67/5/126 66/5/124 40/5/65
f 67/5/126 40/5/65 42/5/70
f 68/2/126 67/2/126 42/2/70
f 68/2/126 42/2/70 44/2/70
f 69/6/127 68/6/126 44/6/70
f 69/6/127 44/6/70 46/6/73
f 70/4/128 69/4/127 46/4/73
f 70/4/128 46/4/73 48/4/129
f 71/2/130 48/2/131 36/2/56
f 71/2/130 36/2/56 35/2/132
f 71/2/130 35/2/133 62/2/134
f 71/2/130 62/2/134 72/2/135
f 70/2/128 48/2/137 71/2/138
f 70/2/128 71/2/138 72/2/136
f 54/4/95 53/4/139 73/4/140
f 54/4/95 73/4/140 74/4/141
f 76/4/143 77/4/144 78/4/145
f 76/4/143 78/4/145 75/4/142
f 53/4/146 77/4/146 76/4/146
f 53/4/146 76/4/146 73/4/146
f 74/4/147 73/4/148 76/4/148
f 74/4/147 76/4/148 75/4/149
f 55/5/96 54/5/95 74/5/141
f 55/5/96 74/5/141 79/5/150
f 79/5/151 74/5/147 75/5/149
f 79/5/151 75/5/149 80/5/152
f 55/2/96 79/2/150 81/2/154
f 55/2/96 81/2/154 56/2/153
f 82/2/155 80/2/156 83/2/157
f 82/2/155 83/2/157 84/2/158
f 56/2/159 81/2/159 82/2/159
f 56/2/159 82/2/159 84/2/160
f 79/2/151 80/2/152 82/2/161
f 79/2/151 82/2/161 81/2/161
f 51/1/88 50/1/87 85/1/162
f 51/1/88 85/1/162 86/1/163
f 52/1/92 51/1/91 86/1/164
f 52/1/92 86/1/164 87/1/165
f 53/4/166 52/4/92 87/4/165
f 53/4/166 87/4/165 77/4/167
f 57/2/99 56/2/168 84/2/169
f 57/2/99 84/2/169 88/2/170
f 59/4/171 89/4/172 90/4/173
f 59/4/171 90/4/173 60/4/105
f 59/4/174 57/4/99 88/4/170
f 59/4/174 88/4/170 89/4/175
f 50/1/87 61/1/109 91/1/176
f 50/1/87 91/1/176 85/1/162
f 92/2/177 62/2/178 60/2/178
f 92/2/177 60/2/178 93/2/177
f 93/2/177 94/2/179 95/2/180
f 93/2/177 95/2/180 92/2/177
f 93/2/181 60/2/182 90/2/173
f 93/2/181 90/2/173 94/2/183
f 96/2/185 62/2/186 92/2/187
f 96/2/185 92/2/187 95/2/184
f 61/1/109 64/1/119 97/1/188
f 61/1/109 97/1/188 91/1/176
f 98/1/189 97/1/190 64/1/121
f 98/1/189 64/1/121 65/1/120
f 99/4/191 98/4/189 65/4/120
f 99/4/191 65/4/120 66/4/124
f 100/4/126 99/4/191 66/4/124
f 100/4/126 66/4/124 67/4/126
f 101/5/192 100/5/126 67/5/126
f 101/5/192 67/5/126 68/5/126
f 102/2/193 101/2/192 68/2/126
f 102/2/193 68/2/126 69/2/127
f 103/2/194 102/2/193 69/2/127
f 103/2/194 69/2/127 70/2/128
f 72/4/195 62/4/134 96/4/185
f 72/4/195 96/4/185 104/4/196
f 104/4/197 103/4/194 70/4/128
f 104/4/197 70/4/128 72/4/136
f 105/2/198 106/2/198 107/2/199
f 105/2/198 107/2/199 108/2/200
f 83/2/157 80/2/156 105/2/201
f 83/2/157 105/2/201 108/2/202
f 78/2/145 107/2/203 106/2/204
f 78/2/145 106/2/204 75/2/142
f 75/2/149 106/2/205 105/2/205
f 75/2/149 105/2/205 80/2/152
f 86/1/163 85/1/162 109/1/206
f 86/1/163 109/1/206 110/1/163
f 87/1/165 86/1/164 110/1/164
f 87/1/165 110/1/164 111/1/207
f 87/2/165 111/2/207 112/2/208
f 87/2/165 112/2/208 77/2/167
f 78/4/145 77/4/209 112/4/208
f 78/4/145 112/4/208 107/4/210
f 83/5/157 108/5/212 113/5/213
f 83/5/157 113/5/213 84/5/211
f 114/5/214 113/5/215 115/5/216
f 114/5/214 115/5/216 116/5/217
f 84/5/218 113/5/213 114/5/219
f 84/5/218 114/5/219 88/5/170
f 117/2/220 114/2/214 116/2/217
f 117/2/220 116/2/217 118/2/221
f 89/2/175 88/2/170 114/2/219
f 89/2/175 114/2/219 117/2/222
f 90/2/173 89/2/172 119/2/224
f 90/2/173 119/2/224 94/2/223
f 120/2/225 117/2/220 118/2/221
f 120/2/225 118/2/221 121/2/226
f 119/2/228 120/2/228 121/2/229
f 119/2/228 121/2/229 94/2/227
f 119/2/230 89/2/175 117/2/222
f 119/2/230 117/2/222 120/2/230
f 91/1/176 122/1/231 109/1/206
f 91/1/176 109/1/206 85/1/162
f 116/5/217 115/5/216 123/5/232
f 116/5/217 123/5/232 124/5/233
f 116/2/217 124/2/233 125/2/235
f 116/2/217 125/2/235 118/2/234
f 126/2/236 125/2/237 96/2/185
f 126/2/236 96/2/185 95/2/184
f 95/5/180 94/5/239 128/5/238
f 95/5/180 128/5/238 127/5/238
f 127/5/240 128/5/240 129/5/241
f 127/5/240 129/5/241 130/5/241
f 128/5/242 94/5/183 121/5/243
f 128/5/242 121/5/243 129/5/244
f 126/5/236 95/5/184 127/5/138
f 126/5/236 127/5/138 130/5/245
f 131/1/246 122/1/247 132/1/248
f 131/1/246 132/1/248 133/1/249
f 91/1/176 97/1/188 132/1/250
f 91/1/176 132/1/250 122/1/251
f 132/1/253 97/1/190 98/1/189
f 132/1/253 98/1/189 133/1/252
f 134/2/254 133/2/255 98/2/189
f 134/2/254 98/2/189 99/2/191
f 135/4/256 134/4/254 99/4/191
f 135/4/256 99/4/191 100/4/126
f 136/2/257 135/2/256 100/2/126
f 136/2/257 100/2/126 101/2/192
f 136/5/257 101/5/192 102/5/193
f 136/5/257 102/5/193 137/5/258
f 123/5/232 137/5/259 138/5/260
f 123/5/232 138/5/260 124/5/233
f 138/5/261 137/5/258 102/5/193
f 138/5/261 102/5/193 103/5/194
f 124/2/233 138/2/260 139/2/262
f 124/2/233 139/2/262 125/2/235
f 96/2/185 125/2/263 139/2/264
f 96/2/185 139/2/264 104/2/197
f 139/2/264 138/2/261 103/2/194
f 139/2/264 103/2/194 104/2/265
f 110/2/163 109/2/206 140/2/266
f 110/2/163 140/2/266 141/2/267
f 111/2/207 110/2/164 141/2/268
f 111/2/207 141/2/268 142/2/269
f 112/5/208 111/5/207 142/5/269
f 112/5/208 142/5/269 143/5/270
f 144/2/271 143/2/272 145/2/273
f 144/2/271 145/2/273 146/2/274
f 112/2/208 143/2/270 144/2/276
f 112/2/208 144/2/276 107/2/275
f 144/4/278 146/4/274 148/4/279
f 144/4/278 148/4/279 147/4/277
f 108/4/280 107/4/275 144/4/278
f 108/4/280 144/4/278 147/4/281
f 115/2/282 113/2/283 149/2/284
f 115/2/282 149/2/284 150/2/285
f 108/2/286 147/2/287 149/2/288
f 108/2/286 149/2/288 113/2/213
f 109/2/206 122/2/231 151/2/289
f 109/2/206 151/2/289 140/2/266
f 151/2/291 122/2/292 131/2/246
f 151/2/291 131/2/246 152/2/290
f 145/2/273 153/2/294 154/2/295
f 145/2/273 154/2/295 146/2/293
f 123/2/296 115/2/282 150/2/285
f 123/2/296 150/2/285 155/2/297
f 156/5/298 157/5/299 158/5/299
f 156/5/298 158/5/299 159/5/298
f 118/5/300 125/5/300 158/5/299
f 118/5/300 158/5/299 157/5/299
f 121/5/301 118/5/302 157/5/303
f 121/5/301 157/5/303 156/5/304
f 158/5/306 125/5/307 126/5/236
f 158/5/306 126/5/236 159/5/305
f 130/5/241 129/5/241 160/5/308
f 130/5/241 160/5/308 161/5/308
f 129/5/244 121/5/309 156/5/304
f 129/5/244 156/5/304 160/5/310
f 159/5/305 126/5/236 130/5/245
f 159/5/305 130/5/245 161/5/311
f 153/5/294 152/5/312 162/5/313
f 153/5/294 162/5/313 163/5/314
f 131/5/246 133/5/315 162/5/316
f 131/5/246 162/5/316 152/5/317
f 162/5/316 133/5/319 134/5/254
f 162/5/316 134/5/254 163/5/318
f 154/2/320 153/2/294 163/2/314
f 154/2/320 163/2/314 164/2/321
f 164/2/321 163/2/322 134/2/254
f 164/2/321 134/2/254 135/2/256
f 165/4/323 154/4/320 164/4/321
f 165/4/323 164/4/321 166/4/324
f 166/4/324 164/4/321 135/4/256
f 166/4/324 135/4/256 136/4/257
f 165/2/323 166/2/324 167/2/326
f 165/2/323 167/2/326 155/2/325
f 123/2/296 155/2/328 167/2/329
f 123/2/296 167/2/329 137/2/327
f 167/2/330 166/2/324 136/2/257
f 167/2/330 136/2/257 137/2/258
f 169/3/332 170/3/333 171/3/334
f 169/3/332 171/3/334 168/3/331
f 140/3/266 170/3/335 169/3/336
f 140/3/266 169/3/336 141/3/267
f 142/3/269 141/3/268 169/3/337
f 142/3/269 169/3/337 168/3/338
f 172/5/339 168/5/340 171/5/334
f 172/5/339 171/5/334 173/5/341
f 145/5/342 143/5/343 172/5/344
f 145/5/342 172/5/344 173/5/345
f 142/5/269 168/5/346 172/5/347
f 142/5/269 172/5/347 143/5/270
f 175/5/348 176/5/349 177/5/348
f 175/5/348 177/5/348 174/5/348
f 150/5/285 149/5/284 174/5/350
f 150/5/285 174/5/350 177/5/351
f 148/5/279 176/5/353 175/5/354
f 148/5/279 175/5/354 147/5/352
f 149/5/288 147/5/287 175/5/355
f 149/5/288 175/5/355 174/5/355
f 151/3/289 178/3/356 170/3/335
f 151/3/289 170/3/335 140/3/266
f 179/3/357 178/3/358 151/3/291
f 179/3/357 151/3/291 152/3/359
f 145/5/342 173/5/361 180/5/362
f 145/5/342 180/5/362 153/5/360
f 179/5/357 152/5/364 153/5/365
f 179/5/357 153/5/365 180/5/363
f 181/2/367 182/2/367 183/2/368
f 181/2/367 183/2/368 176/2/366
f 146/2/369 154/2/369 182/2/367
f 146/2/369 182/2/367 181/2/367
f 148/2/279 146/2/370 181/2/371
f 148/2/279 181/2/371 176/2/372
f 182/2/374 154/2/375 165/2/323
f 182/2/374 165/2/323 183/2/373
f 150/5/285 177/5/351 184/5/376
f 150/5/285 184/5/376 155/5/297
f 184/5/377 183/5/373 165/5/323
f 184/5/377 165/5/323 155/5/378
f 185/1/298 186/1/298 187/1/298
f 185/1/298 187/1/298 188/1/298
f 156/1/298 159/1/298 187/1/298
f 156/1/298 187/1/298 186/1/298
f 160/1/310 156/1/304 186/1/379
f 160/1/310 186/1/379 185/1/380
f 187/1/382 159/1/305 161/1/311
f 187/1/382 161/1/311 188/1/381
f 189/5/180 161/5/238 160/5/238
f 189/5/180 160/5/238 190/5/180
f 189/5/180 190/5/180 191/5/180
f 189/5/180 191/5/180 192/5/180
f 190/5/383 160/5/310 185/5/380
f 190/5/383 185/5/380 191/5/384
f 188/5/381 161/5/311 189/5/386
f 188/5/381 189/5/386 192/5/385
f 178/3/356 193/3/387 194/3/387
f 178/3/356 194/3/387 170/3/335
f 171/3/334 170/3/333 194/3/388
f 171/3/334 194/3/388 195/3/389
f 196/3/390 193/3/391 178/3/358
f 196/3/390 178/3/358 179/3/357
f 195/5/392 196/5/392 198/5/392
f 195/5/392 198/5/392 197/5/392
f 180/5/362 173/5/361 197/5/393
f 180/5/362 197/5/393 198/5/393
f 171/5/334 195/5/389 197/5/395
f 171/5/334 197/5/395 173/5/394
f 198/5/396 196/5/390 179/5/357
f 198/5/396 179/5/357 180/5/363
f 184/5/376 177/5/351 199/5/397
f 184/5/376 199/5/397 200/5/397
f 183/5/399 201/5/400 202/5/400
f 183/5/399 202/5/400 176/5/398
f 177/5/401 176/5/402 202/5/403
f 177/5/401 202/5/403 199/5/403
f 201/5/404 183/5/373 184/5/377
f 201/5/404 184/5/377 200/5/404
f 203/1/298 204/1/298 205/1/298
f 203/1/298 205/1/298 206/1/298
f 185/1/298 188/1/298 205/1/298
f 185/1/298 205/1/298 204/1/298
f 191/1/384 185/1/380 204/1/379
f 191/1/384 204/1/379 203/1/380
f 205/1/382 188/1/381 192/1/385
f 205/1/382 192/1/385 206/1/381
f 207/3/180 192/3/180 191/3/180
f 207/3/180 191/3/180 208/3/180
f 207/3/180 208/3/180 209/3/180
f 207/3/180 209/3/180 210/3/180
f 208/3/383 191/3/384 203/3/380
f 208/3/383 203/3/380 209/3/384
f 206/3/381 192/3/385 207/3/386
f 206/3/381 207/3/386 210/3/385
f 195/5/405 211/5/406 212/5/406
f 195/5/405 212/5/406 196/5/405
f 194/5/387 193/5/387 213/5/407
f 194/5/387 213/5/407 214/5/407
f 194/5/388 214/5/408 211/5/408
f 194/5/388 211/5/408 195/5/389
f 212/5/409 213/5/409 193/5/391
f 212/5/409 193/5/391 196/5/390
f 200/1/397 199/1/397 215/1/410
f 200/1/397 215/1/410 216/1/410
f 202/1/400 201/1/400 217/1/411
f 202/1/400 217/1/411 218/1/411
f 199/1/403 202/1/403 218/1/412
f 199/1/403 218/1/412 215/1/412
f 216/1/413 217/1/413 201/1/404
f 216/1/413 201/1/404 200/1/404
f 219/1/298 220/1/298 221/1/298
f 219/1/298 221/1/298 222/1/298
f 203/1/298 206/1/298 221/1/298
f 203/1/298 221/1/298 220/1/298
f 209/1/384 203/1/380 220/1/379
f 209/1/384 220/1/379 219/1/380
f 221/1/382 206/1/381 210/1/385
f 221/1/382 210/1/385 222/1/381
f 223/3/180 210/3/180 209/3/180
f 223/3/180 209/3/180 224/3/180
f 223/3/180 224/3/180 225/3/180
f 223/3/180 225/3/180 226/3/180
f 224/3/383 209/3/384 219/3/380
f 224/3/383 219/3/380 225/3/414
f 222/3/381 210/3/385 223/3/386
f 222/3/381 223/3/386 226/3/415
f 212/2/406 211/2/406 227/2/416
f 212/2/406 227/2/416 228/2/416
f 214/2/407 213/2/407 229/2/407
f 214/2/407 229/2/407 230/2/407
f 211/2/408 214/2/408 230/2/417
f 211/2/408 230/2/417 227/2/417
f 228/2/126 229/2/126 213/2/409
f 228/2/126 213/2/409 212/2/409
f 231/1/418 232/1/418 233/1/418
f 231/1/418 233/1/418 234/1/418
f 215/1/410 231/1/419 234/1/419
f 215/1/410 234/1/419 216/1/410
f 218/1/411 217/1/411 233/1/420
f 218/1/411 233/1/420 232/1/420
f 218/1/412 232/1/421 231/1/421
f 218/1/412 231/1/421 215/1/412
f 234/1/422 233/1/422 217/1/413
f 234/1/422 217/1/413 216/1/413
f 235/1/298 236/1/298 237/1/298
f 235/1/298 237/1/298 238/1/298
f 219/1/298 222/1/298 237/1/298
f 219/1/298 237/1/298 236/1/298
f 225/1/414 219/1/380 236/1/379
f 225/1/414 236/1/379 235/1/423
f 237/1/382 222/1/381 226/1/415
f 237/1/382 226/1/415 238/1/424
f 239/3/238 226/3/180 225/3/180
f 239/3/238 225/3/180 240/3/238
f 239/3/240 240/3/240 241/3/241
f 239/3/240 241/3/241 242/3/241
f 240/3/425 225/3/414 235/3/423
f 240/3/425 235/3/423 241/3/426
f 238/3/424 226/3/415 239/3/428
f 238/3/424 239/3/428 242/3/427
f 228/4/416 227/4/416 243/4/416
f 228/4/416 243/4/416 244/4/416
f 230/4/407 229/4/407 245/4/407
f 230/4/407 245/4/407 246/4/407
f 227/4/417 230/4/417 246/4/417
f 227/4/417 246/4/417 243/4/417
f 244/4/126 245/4/126 229/4/126
f 244/4/126 229/4/126 228/4/126
f 247/1/368 248/1/298 249/1/298
f 247/1/368 249/1/298 250/1/368
f 242/1/241 241/1/241 247/1/308
f 242/1/241 247/1/308 250/1/308
f 235/1/298 238/1/298 249/1/298
f 235/1/298 249/1/298 248/1/298
f 241/1/426 235/1/423 248/1/429
f 241/1/426 248/1/429 247/1/417
f 249/1/430 238/1/424 242/1/427
f 249/1/430 242/1/427 250/1/126
f 244/4/416 243/4/416 251/4/416
f 244/4/416 251/4/416 252/4/416
f 246/4/407 245/4/407 253/4/407
f 246/4/407 253/4/407 254/4/407
f 243/4/417 246/4/417 254/4/417
f 243/4/417 254/4/417 251/4/417
f 252/4/126 253/4/126 245/4/126
f 252/4/126 245/4/126 244/4/126
f 255/3/180 250/3/238 247/3/238
f 255/3/180 247/3/238 256/3/180
f 255/3/180 256/3/180 257/3/180
f 255/3/180 257/3/180 258/3/180
f 247/3/399 250/3/399 259/3/431
f 247/3/399 259/3/431 260/3/431
f 256/3/432 247/3/417 260/3/433
f 256/3/432 260/3/433 257/3/434
f 259/3/436 250/3/126 255/3/437
f 259/3/436 255/3/437 258/3/435
f 252/2/416 251/2/416 261/2/410
f 252/2/416 261/2/410 262/2/410
f 254/2/407 253/2/407 263/2/411
f 254/2/407 263/2/411 264/2/411
f 251/2/417 254/2/417 264/2/412
f 251/2/417 264/2/412 261/2/412
f 262/2/413 263/2/413 253/2/126
f 262/2/413 253/2/126 252/2/126
f 265/6/298 266/6/368 267/6/368
f 265/6/298 267/6/368 268/6/298
f 260/6/431 259/6/431 267/6/420
f 260/6/431 267/6/420 266/6/420
f 257/6/434 260/6/433 266/6/438
f 257/6/434 266/6/438 265/6/380
f 267/6/439 259/6/436 258/6/435
f 267/6/439 258/6/435 268/6/381
f 269/3/180 258/3/180 257/3/180
f 269/3/180 257/3/180 270/3/180
f 269/3/180 270/3/180 271/3/180
f 269/3/180 271/3/180 272/3/180
f 270/3/383 257/3/434 265/3/380
f 270/3/383 265/3/380 271/3/440
f 268/3/381 258/3/435 269/3/386
f 268/3/381 269/3/386 272/3/441
f 273/5/418 274/5/418 275/5/418
f 273/5/418 275/5/418 276/5/418
f 261/5/410 273/5/419 276/5/419
f 261/5/410 276/5/419 262/5/410
f 264/5/411 263/5/411 275/5/420
f 264/5/411 275/5/420 274/5/420
f 264/5/412 274/5/421 273/5/421
f 264/5/412 273/5/421 261/5/412
f 276/5/422 275/5/422 263/5/413
f 276/5/422 263/5/413 262/5/413
f 277/6/442 278/6/443 279/6/443
f 277/6/442 279/6/443 280/6/442
f 265/6/298 268/6/298 279/6/444
f 265/6/298 279/6/444 278/6/444
f 271/6/440 265/6/380 278/6/445
f 271/6/440 278/6/445 277/6/446
f 279/6/448 268/6/381 272/6/441
f 279/6/448 272/6/441 280/6/447
f 281/3/180 272/3/180 271/3/180
f 281/3/180 271/3/180 282/3/180
f 283/3/449 277/3/442 280/3/442
f 283/3/449 280/3/442 284/3/449
f 281/3/180 282/3/180 283/3/180
f 281/3/180 283/3/180 284/3/180
f 282/3/432 271/3/440 277/3/446
f 282/3/432 277/3/446 283/3/450
f 280/3/447 272/3/441 281/3/437
f 280/3/447 281/3/437 284/3/451
f 285/6/180 284/6/180 283/6/180
f 285/6/180 283/6/180 286/6/180
f 287/6/368 288/6/298 289/6/298
f 287/6/368 289/6/298 290/6/368
f 285/6/180 286/6/180 287/6/180
f 285/6/180 287/6/180 290/6/180
f 283/6/444 284/6/444 289/6/298
f 283/6/444 289/6/298 288/6/298
f 286/6/417 283/6/450 288/6/417
f 286/6/417 288/6/417 287/6/452
f 289/6/126 284/6/451 285/6/126
f 289/6/126 285/6/126 290/6/453
f 291/6/238 290/6/180 287/6/180
f 291/6/238 287/6/180 292/6/238
f 291/6/240 292/6/240 293/6/241
f 291/6/240 293/6/241 294/6/241
f 287/6/399 290/6/399 295/6/431
f 287/6/399 295/6/431 296/6/431
f 292/6/454 287/6/452 296/6/417
f 292/6/454 296/6/417 293/6/417
f 295/6/126 290/6/453 291/6/455
f 295/6/126 291/6/455 294/6/126
f 297/6/298 298/6/368 299/6/368
f 297/6/298 299/6/368 300/6/298
f 294/6/241 293/6/241 297/6/308
f 294/6/241 297/6/308 300/6/308
f 296/6/431 295/6/431 299/6/420
f 296/6/431 299/6/420 298/6/420
f 293/6/417 296/6/417 298/6/456
f 293/6/417 298/6/456 297/6/457
f 299/6/459 295/6/126 294/6/126
f 299/6/459 294/6/126 300/6/458
f 301/6/180 300/6/238 297/6/238
f 301/6/180 297/6/238 302/6/180
f 303/6/298 304/6/298 305/6/298
f 303/6/298 305/6/298 306/6/298
f 301/6/180 302/6/180 303/6/180
f 301/6/180 303/6/180 306/6/180
f 297/6/298 300/6/298 305/6/298
f 297/6/298 305/6/298 304/6/298
f 302/6/417 297/6/457 304/6/417
f 302/6/417 304/6/417 303/6/417
f 305/6/126 300/6/458 301/6/126
f 305/6/126 301/6/126 306/6/126
f 307/7/180 306/7/180 303/7/180
f 307/7/180 303/7/180 308/7/180
f 309/7/298 310/7/298 311/7/298
f 309/7/298 311/7/298 312/7/298
f 307/7/180 308/7/180 309/7/180
f 307/7/180 309/7/180 312/7/180
f 303/7/298 306/7/298 311/7/298
f 303/7/298 311/7/298 310/7/298
f 308/7/417 303/7/417 310/7/417
f 308/7/417 310/7/417 309/7/460
f 311/7/126 306/7/126 307/7/126
f 311/7/126 307/7/126 312/7/461
f 313/5/462 314/5/462 315/5/462
f 313/5/462 315/5/462 316/5/462
f 313/5/240 316/5/240 317/5/463
f 313/5/240 317/5/463 318/5/463
f 314/5/464 319/5/465 320/5/465
f 314/5/464 320/5/465 315/5/464
f 316/5/466 315/5/466 320/5/467
f 316/5/466 320/5/467 317/5/467
f 319/5/468 314/5/469 313/5/469
f 319/5/468 313/5/469 318/5/468
f 321/7/238 312/7/180 309/7/180
f 321/7/238 309/7/180 322/7/238
f 323/7/418 324/7/418 325/7/418
f 323/7/418 325/7/418 326/7/418
f 321/7/416 322/7/416 323/7/416
f 321/7/416 323/7/416 326/7/416
f 309/7/298 312/7/298 325/7/444
f 309/7/298 325/7/444 324/7/444
f 322/7/470 309/7/460 324/7/470
f 322/7/470 324/7/470 323/7/470
f 325/7/471 312/7/461 321/7/471
f 325/7/471 321/7/471 326/7/471
f 318/5/463 317/5/463 327/5/416
f 318/5/463 327/5/416 328/5/416
f 320/5/465 319/5/465 329/5/407
f 320/5/465 329/5/407 330/5/407
f 317/5/467 320/5/467 330/5/417
f 317/5/467 330/5/417 327/5/417
f 328/5/126 329/5/126 319/5/468
f 328/5/126 319/5/468 318/5/468
f 328/2/416 327/2/416 331/2/472
f 328/2/416 331/2/472 332/2/472
f 330/2/407 329/2/407 333/2/407
f 330/2/407 333/2/407 334/2/407
f 327/2/417 330/2/417 334/2/473
f 327/2/417 334/2/473 331/2/473
f 332/2/474 333/2/474 329/2/126
f 332/2/474 329/2/126 328/2/126
f 332/4/472 331/4/472 335/4/308
f 332/4/472 335/4/308 336/4/308
f 334/4/407 333/4/407 337/4/407
f 334/4/407 337/4/407 338/4/407
f 331/4/473 334/4/473 338/4/475
f 331/4/473 338/4/475 335/4/476
f 337/4/478 333/4/474 332/4/474
f 337/4/478 332/4/474 336/4/477
f 338/4/407 337/4/407 339/4/407
f 338/4/407 339/4/407 340/4/407
f 335/4/476 338/4/475 340/4/479
f 335/4/476 340/4/479 341/4/480
f 339/4/482 337/4/478 336/4/477
f 339/4/482 336/4/477 342/4/481
f 343/5/238 336/5/238 335/5/238
f 343/5/238 335/5/238 344/5/238
f 343/5/240 344/5/240 345/5/483
f 343/5/240 345/5/483 346/5/483
f 344/5/106 335/5/476 341/5/480
f 344/5/106 341/5/480 345/5/484
f 342/5/481 336/5/477 343/5/138
f 342/5/481 343/5/138 346/5/485
f 340/4/407 339/4/407 347/4/486
f 340/4/407 347/4/486 348/4/486
f 341/4/480 340/4/479 348/4/487
f 341/4/480 348/4/487 349/4/488
f 350/4/489 347/4/490 339/4/482
f 350/4/489 339/4/482 342/4/481
f 345/2/483 351/2/491 352/2/492
f 345/2/483 352/2/492 346/2/483
f 341/2/480 349/2/493 351/2/494
f 341/2/480 351/2/494 345/2/484
f 352/2/495 350/2/489 342/2/481
f 352/2/495 342/2/481 346/2/485
f 349/2/496 353/2/496 354/2/496
f 349/2/496 354/2/496 351/2/496
f 354/2/497 355/2/104 356/2/498
f 354/2/497 356/2/498 351/2/491
f 353/2/499 349/2/500 357/2/501
f 353/2/499 357/2/501 358/2/502
f 353/2/503 358/2/504 355/2/505
f 353/2/503 355/2/505 354/2/503
f 348/4/486 347/4/486 359/4/506
f 348/4/486 359/4/506 360/4/507
f 348/4/487 360/4/508 357/4/501
f 348/4/487 357/4/501 349/4/488
f 361/4/509 359/4/510 347/4/490
f 361/4/509 347/4/490 350/4/489
f 351/2/491 356/2/511 362/2/512
f 351/2/491 362/2/512 352/2/492
f 361/2/509 350/2/489 352/2/495
f 361/2/509 352/2/495 362/2/513
f 357/4/501 360/4/514 363/4/83
f 357/4/501 363/4/83 358/4/515
f 363/4/85 360/4/516 364/4/517
f 363/4/85 364/4/517 365/4/88
f 363/4/90 365/4/91 366/4/519
f 363/4/90 366/4/519 358/4/518
f 355/4/104 367/4/520 368/4/521
f 355/4/104 368/4/521 356/4/498
f 355/4/505 358/4/504 366/4/519
f 355/4/505 366/4/519 367/4/522
f 360/4/507 359/4/506 369/4/523
f 360/4/507 369/4/523 364/4/517
f 369/4/525 359/4/510 361/4/509
f 369/4/525 361/4/509 370/4/524
f 371/4/526 370/4/527 361/4/509
f 371/4/526 361/4/509 362/4/513
f 372/2/528 362/2/528 356/2/528
f 372/2/528 356/2/528 373/2/528
f 373/2/529 374/2/530 375/2/531
f 373/2/529 375/2/531 372/2/529
f 373/2/532 356/2/533 368/2/521
f 373/2/532 368/2/521 374/2/534
f 371/2/536 362/2/513 372/2/537
f 371/2/536 372/2/537 375/2/535
f 365/2/88 364/2/517 376/2/407
f 365/2/88 376/2/407 377/2/163
f 366/2/519 365/2/91 377/2/164
f 366/2/519 377/2/164 378/2/538
f 366/4/519 378/4/538 379/4/539
f 366/4/519 379/4/539 367/4/522
f 368/2/521 367/2/541 380/2/542
f 368/2/521 380/2/542 374/2/540
f 380/2/544 381/2/545 382/2/546
f 380/2/544 382/2/546 374/2/543
f 380/2/106 367/2/547 379/2/539
f 380/2/106 379/2/539 381/2/548
f 364/2/517 369/2/549 383/2/550
f 364/2/517 383/2/550 376/2/407
f 384/2/551 383/2/550 369/2/552
f 384/2/551 369/2/552 370/2/524
f 374/2/530 382/2/546 385/2/553
f 374/2/530 385/2/553 375/2/531
f 386/2/555 371/2/536 375/2/535
f 386/2/555 375/2/535 385/2/554
f 387/4/556 388/4/556 370/4/556
f 387/4/556 370/4/556 371/4/556
f 387/4/557 371/4/558 386/4/555
f 387/4/557 386/4/555 389/4/557
f 388/4/560 390/4/561 384/4/551
f 388/4/560 384/4/551 370/4/559
f 390/4/562 388/4/469 387/4/469
f 390/4/562 387/4/469 389/4/562
f 377/2/163 376/2/407 391/2/563
f 377/2/163 391/2/563 392/2/267
f 378/2/538 377/2/164 392/2/564
f 378/2/538 392/2/564 393/2/565
f 379/2/539 378/2/538 393/2/565
f 379/2/539 393/2/565 394/2/566
f 382/5/546 381/5/545 395/5/567
f 382/5/546 395/5/567 396/5/568
f 381/5/548 379/5/539 394/5/566
f 381/5/548 394/5/566 395/5/569
f 376/2/407 383/2/550 397/2/570
f 376/2/407 397/2/570 391/2/563
f 398/2/571 397/2/570 383/2/550
f 398/2/571 383/2/550 384/2/551
f 385/5/572 382/5/546 396/5/573
f 385/5/572 396/5/573 399/5/574
f 400/5/576 386/5/555 385/5/554
f 400/5/576 385/5/554 399/5/575
f 389/2/557 386/2/555 400/2/576
f 389/2/557 400/2/576 401/2/577
f 384/2/551 390/2/561 402/2/578
f 384/2/551 402/2/578 398/2/571
f 402/2/580 390/2/562 389/2/562
f 402/2/580 389/2/562 401/2/579
f 404/4/582 405/4/583 406/4/584
f 404/4/582 406/4/584 403/4/581
f 391/4/563 405/4/335 404/4/336
f 391/4/563 404/4/336 392/4/267
f 393/4/565 392/4/564 404/4/585
f 393/4/565 404/4/585 403/4/586
f 393/2/565 403/2/587 407/2/588
f 393/2/565 407/2/588 394/2/566
f 395/5/589 408/5/172 409/5/173
f 395/5/589 409/5/173 396/5/568
f 395/5/590 394/5/566 407/5/588
f 395/5/590 407/5/588 408/5/175
f 397/4/591 410/4/356 405/4/335
f 397/4/591 405/4/335 391/4/563
f 410/4/593 397/4/594 398/4/571
f 410/4/593 398/4/571 411/4/592
f 412/1/595 399/1/596 396/1/597
f 412/1/595 396/1/597 413/1/595
f 413/1/595 414/1/179 415/1/180
f 413/1/595 415/1/180 412/1/595
f 413/1/181 396/1/598 409/1/173
f 413/1/181 409/1/173 414/1/183
f 416/1/600 399/1/601 412/1/602
f 416/1/600 412/1/602 415/1/599
f 417/2/603 411/2/604 418/2/605
f 417/2/603 418/2/605 419/2/606
f 398/2/571 402/2/578 418/2/607
f 398/2/571 418/2/607 411/2/608
f 418/2/382 402/2/580 401/2/579
f 418/2/382 401/2/579 419/2/609
f 420/5/610 401/5/577 400/5/576
f 420/5/610 400/5/576 399/5/611
f 417/5/603 419/5/606 421/5/613
f 417/5/603 421/5/613 416/5/612
f 420/5/614 399/5/615 416/5/616
f 420/5/614 416/5/616 421/5/614
f 419/5/609 401/5/579 420/5/617
f 419/5/609 420/5/617 421/5/617
f 423/5/619 424/5/620 425/5/621
f 423/5/619 425/5/621 422/5/618
f 406/5/584 424/5/623 423/5/354
f 406/5/584 423/5/354 403/5/622
f 407/5/588 403/5/624 423/5/625
f 407/5/588 423/5/625 422/5/626
f 426/5/220 422/5/618 425/5/621
f 426/5/220 425/5/621 427/5/627
f 408/5/175 407/5/588 422/5/626
f 408/5/175 422/5/626 426/5/222
f 409/5/173 408/5/172 428/5/224
f 409/5/173 428/5/224 414/5/223
f 429/5/225 426/5/220 427/5/627
f 429/5/225 427/5/627 430/5/226
f 428/5/228 429/5/228 430/5/229
f 428/5/228 430/5/229 414/5/227
f 428/5/230 408/5/175 426/5/222
f 428/5/230 426/5/222 429/5/230
f 410/2/356 431/2/387 432/2/387
f 410/2/356 432/2/387 405/2/335
f 406/2/584 405/2/583 432/2/628
f 406/2/584 432/2/628 424/2/629
f 433/2/630 431/2/631 410/2/593
f 433/2/630 410/2/593 411/2/632
f 424/5/620 433/5/633 434/5/634
f 424/5/620 434/5/634 425/5/621
f 433/5/630 411/5/636 417/5/603
f 433/5/630 417/5/603 434/5/635
f 425/5/621 434/5/634 435/5/638
f 425/5/621 435/5/638 427/5/637
f 435/5/639 434/5/635 417/5/603
f 435/5/639 417/5/603 416/5/640
f 435/5/639 416/5/642 415/5/599
f 435/5/639 415/5/599 436/5/641
f 415/1/180 414/1/239 438/1/238
f 415/1/180 438/1/238 437/1/238
f 437/1/240 438/1/240 439/1/241
f 437/1/240 439/1/241 440/1/241
f 438/1/242 414/1/183 430/1/243
f 438/1/242 430/1/243 439/1/244
f 436/1/641 415/1/599 437/1/138
f 436/1/641 437/1/138 440/1/245
f 433/5/405 424/5/405 441/5/416
f 433/5/405 441/5/416 442/5/416
f 432/5/387 431/5/387 443/5/411
f 432/5/387 443/5/411 444/5/411
f 432/5/628 444/5/643 441/5/643
f 432/5/628 441/5/643 424/5/628
f 442/5/644 443/5/644 431/5/631
f 442/5/644 431/5/631 433/5/630
f 445/1/298 446/1/645 447/1/645
f 445/1/298 447/1/645 448/1/298
f 427/1/646 435/1/646 447/1/645
f 427/1/646 447/1/645 446/1/645
f 430/1/301 427/1/302 446/1/303
f 430/1/301 446/1/303 445/1/304
f 447/1/648 435/1/639 436/1/641
f 447/1/648 436/1/641 448/1/647
f 440/5/241 439/5/241 449/5/308
f 440/5/241 449/5/308 450/5/308
f 439/5/244 430/5/309 445/5/304
f 439/5/244 445/5/304 449/5/310
f 448/5/647 436/5/641 440/5/245
f 448/5/647 440/5/245 450/5/311
f 451/5/368 452/5/368 453/5/368
f 451/5/368 453/5/368 454/5/368
f 442/5/416 441/5/416 451/5/308
f 442/5/416 451/5/308 454/5/308
f 444/5/411 443/5/411 453/5/420
f 444/5/411 453/5/420 452/5/420
f 441/5/643 444/5/643 452/5/456
f 441/5/643 452/5/456 451/5/417
f 453/5/459 443/5/644 442/5/644
f 453/5/459 442/5/644 454/5/126
f 455/1/298 456/1/298 457/1/298
f 455/1/298 457/1/298 458/1/298
f 445/1/298 448/1/298 457/1/298
f 445/1/298 457/1/298 456/1/298
f 449/1/310 445/1/304 456/1/379
f 449/1/310 456/1/379 455/1/649
f 457/1/382 448/1/647 450/1/311
f 457/1/382 450/1/311 458/1/650
f 459/1/180 450/1/238 449/1/238
f 459/1/180 449/1/238 460/1/180
f 459/1/180 460/1/180 461/1/651
f 459/1/180 461/1/651 462/1/651
f 460/1/383 449/1/310 455/1/649
f 460/1/383 455/1/649 461/1/652
f 458/1/650 450/1/311 459/1/386
f 458/1/650 459/1/386 462/1/653
f 463/2/238 454/2/238 451/2/238
f 463/2/238 451/2/238 464/2/238
f 463/2/240 464/2/240 465/2/416
f 463/2/240 465/2/416 466/2/416
f 451/2/399 454/2/399 467/2/431
f 451/2/399 467/2/431 468/2/431
f 464/2/454 451/2/417 468/2/654
f 464/2/454 468/2/654 465/2/654
f 467/2/655 454/2/126 463/2/455
f 467/2/655 463/2/455 466/2/655
f 469/3/656 470/3/443 471/3/443
f 469/3/656 471/3/443 472/3/656
f 455/3/298 458/3/298 471/3/444
f 455/3/298 471/3/444 470/3/444
f 461/3/652 455/3/649 470/3/445
f 461/3/652 470/3/445 469/3/657
f 471/3/448 458/3/650 462/3/653
f 471/3/448 462/3/653 472/3/658
f 473/3/659 462/3/660 461/3/660
f 473/3/659 461/3/660 474/3/659
f 475/3/661 469/3/656 472/3/656
f 475/3/661 472/3/656 476/3/661
f 474/3/662 461/3/652 469/3/657
f 474/3/662 469/3/657 475/3/662
f 472/3/658 462/3/653 473/3/663
f 472/3/658 473/3/663 476/3/663
f 477/6/664 473/6/659 474/6/659
f 477/6/664 474/6/659 478/6/664
f 479/6/449 475/6/661 476/6/661
f 479/6/449 476/6/661 480/6/449
f 477/6/651 478/6/651 479/6/180
f 477/6/651 479/6/180 480/6/180
f 478/6/665 474/6/662 475/6/662
f 478/6/665 475/6/662 479/6/666
f 476/6/663 473/6/663 477/6/668
f 476/6/663 477/6/668 480/6/667
f 481/2/418 482/2/418 483/2/418
f 481/2/418 483/2/418 484/2/418
f 465/2/416 481/2/419 484/2/419
f 465/2/416 484/2/419 466/2/416
f 468/2/431 467/2/431 483/2/420
f 468/2/431 483/2/420 482/2/420
f 468/2/654 482/2/421 481/2/421
f 468/2/654 481/2/421 465/2/654
f 484/2/422 483/2/422 467/2/655
f 484/2/422 467/2/655 466/2/655
f 485/6/238 480/6/180 479/6/180
f 485/6/238 479/6/180 486/6/238
f 487/6/418 488/6/418 489/6/418
f 487/6/418 489/6/418 490/6/418
f 485/6/416 486/6/416 487/6/416
f 485/6/416 487/6/416 490/6/416
f 479/6/444 480/6/444 489/6/444
f 479/6/444 489/6/444 488/6/444
f 486/6/470 479/6/666 488/6/470
f 486/6/470 488/6/470 487/6/470
f 489/6/471 480/6/667 485/6/471
f 489/6/471 485/6/471 490/6/471
f 491/5/462 492/5/462 493/5/462
f 491/5/462 493/5/462 494/5/462
f 491/5/240 494/5/240 495/5/241
f 491/5/240 495/5/241 496/5/241
f 492/5/464 497/5/465 498/5/465
f 492/5/464 498/5/465 493/5/464
f 494/5/466 493/5/466 498/5/669
f 494/5/466 498/5/669 495/5/669
f 497/5/562 492/5/469 491/5/469
f 497/5/562 491/5/469 496/5/562
f 496/2/241 495/2/241 499/2/308
f 496/2/241 499/2/308 500/2/308
f 498/2/465 497/2/465 501/2/407
f 498/2/465 501/2/407 502/2/407
f 495/2/669 498/2/669 502/2/475
f 495/2/669 502/2/475 499/2/476
f 501/2/478 497/2/562 496/2/562
f 501/2/478 496/2/562 500/2/477
f 502/4/407 501/4/407 503/4/407
f 502/4/407 503/4/407 504/4/407
f 499/4/476 502/4/475 504/4/479
f 499/4/476 504/4/479 505/4/670
f 503/4/482 501/4/478 500/4/477
f 503/4/482 500/4/477 506/4/671
f 507/5/238 500/5/238 499/5/238
f 507/5/238 499/5/238 508/5/238
f 507/5/240 508/5/240 509/5/241
f 507/5/240 509/5/241 510/5/241
f 508/5/106 499/5/476 505/5/670
f 508/5/106 505/5/670 509/5/672
f 506/5/671 500/5/477 507/5/138
f 506/5/671 507/5/138 510/5/673
f 504/4/407 503/4/407 511/4/486
f 504/4/407 511/4/486 512/4/486
f 505/4/670 504/4/479 512/4/487
f 505/4/670 512/4/487 513/4/674
f 514/4/675 511/4/490 503/4/482
f 514/4/675 503/4/482 506/4/671
f 509/2/241 515/2/676 516/2/308
f 509/2/241 516/2/308 510/2/241
f 509/2/672 505/2/670 513/2/677
f 509/2/672 513/2/677 515/2/678
f 514/2/675 506/2/671 510/2/673
f 514/2/675 510/2/673 516/2/679
f 513/5/681 517/5/681 518/5/681
f 513/5/681 518/5/681 515/5/680
f 518/5/683 519/5/684 520/5/685
f 518/5/683 520/5/685 515/5/682
f 517/5/499 513/5/500 521/5/501
f 517/5/499 521/5/501 522/5/515
f 517/5/503 522/5/686 519/5/687
f 517/5/503 519/5/687 518/5/503
f 512/2/486 511/2/486 523/2/688
f 512/2/486 523/2/688 524/2/689
f 512/2/487 524/2/514 521/2/501
f 512/2/487 521/2/501 513/2/674
f 525/2/690 523/2/490 511/2/490
f 525/2/690 511/2/490 514/2/675
f 526/5/691 525/5/690 514/5/675
f 526/5/691 514/5/675 516/5/679
f 516/5/238 515/5/680 528/5/180
f 516/5/238 528/5/180 527/5/180
f 527/5/180 528/5/180 529/5/180
f 527/5/180 529/5/180 530/5/180
f 528/5/692 515/5/678 520/5/685
f 528/5/692 520/5/685 529/5/693
f 526/5/691 516/5/679 527/5/695
f 526/5/691 527/5/695 530/5/694
f 521/2/501 524/2/514 531/2/83
f 521/2/501 531/2/83 522/2/515
f 533/2/332 534/2/697 535/2/698
f 533/2/332 535/2/698 532/2/696
f 524/2/689 534/2/700 533/2/699
f 524/2/689 533/2/699 531/2/699
f 531/2/701 533/2/701 532/2/702
f 531/2/701 532/2/702 522/2/686
f 536/5/703 532/5/696 535/5/704
f 536/5/703 535/5/704 537/5/705
f 520/5/685 519/5/684 536/5/706
f 520/5/685 536/5/706 537/5/707
f 522/5/686 532/5/702 536/5/470
f 522/5/686 536/5/470 519/5/687
f 524/2/689 523/2/688 538/2/708
f 524/2/689 538/2/708 534/2/700
f 539/2/709 538/2/490 523/2/490
f 539/2/709 523/2/490 525/2/690
f 539/5/709 525/5/690 526/5/691
f 539/5/709 526/5/691 540/5/710
f 541/5/418 537/5/711 540/5/418
f 541/5/418 540/5/418 542/5/418
f 520/5/685 537/5/712 541/5/713
f 520/5/685 541/5/713 529/5/693
f 540/5/710 526/5/691 530/5/694
f 540/5/710 530/5/694 542/5/714
f 543/1/238 530/1/180 529/1/180
f 543/1/238 529/1/180 544/1/238
f 543/1/240 544/1/240 545/1/241
f 543/1/240 545/1/241 546/1/241
f 544/1/425 529/1/693 541/1/713
f 544/1/425 541/1/713 545/1/426
f 542/1/714 530/1/694 543/1/428
f 542/1/714 543/1/428 546/1/427
f 538/2/708 547/2/387 548/2/387
f 538/2/708 548/2/387 534/2/700
f 535/2/715 534/2/697 548/2/716
f 535/2/715 548/2/716 549/2/717
f 550/2/718 547/2/490 538/2/490
f 550/2/718 538/2/490 539/2/709
f 540/5/405 537/5/719 551/5/406
f 540/5/405 551/5/406 552/5/406
f 535/5/721 549/5/717 551/5/722
f 535/5/721 551/5/722 537/5/720
f 552/5/723 550/5/718 539/5/709
f 552/5/723 539/5/709 540/5/710
f 553/1/368 554/1/298 555/1/298
f 553/1/368 555/1/298 556/1/368
f 546/1/241 545/1/241 553/1/308
f 546/1/241 553/1/308 556/1/308
f 541/1/444 542/1/444 555/1/298
f 541/1/444 555/1/298 554/1/298
f 545/1/426 541/1/713 554/1/429
f 545/1/426 554/1/429 553/1/724
f 555/1/430 542/1/714 546/1/427
f 555/1/430 546/1/427 556/1/725
f 548/2/387 547/2/387 557/2/407
f 548/2/387 557/2/407 558/2/407
f 549/2/717 548/2/716 558/2/164
f 549/2/717 558/2/164 559/2/417
f 560/2/126 557/2/490 547/2/490
f 560/2/126 547/2/490 550/2/718
f 552/5/406 551/5/406 561/5/416
f 552/5/406 561/5/416 562/5/416
f 551/5/722 549/5/717 559/5/417
f 551/5/722 559/5/417 561/5/726
f 562/5/727 560/5/126 550/5/718
f 562/5/727 550/5/718 552/5/723
f 563/1/238 556/1/238 553/1/238
f 563/1/238 553/1/238 564/1/238
f 563/1/240 564/1/240 565/1/241
f 563/1/240 565/1/241 566/1/241
f 553/1/399 556/1/399 567/1/431
f 553/1/399 567/1/431 568/1/431
f 564/1/454 553/1/724 568/1/417
f 564/1/454 568/1/417 565/1/417
f 567/1/126 556/1/725 563/1/455
f 567/1/126 563/1/455 566/1/126
f 558/4/407 557/4/407 569/4/407
f 558/4/407 569/4/407 570/4/407
f 559/4/417 558/4/164 570/4/164
f 559/4/417 570/4/164 571/4/417
f 572/4/126 569/4/490 557/4/490
f 572/4/126 557/4/490 560/4/126
f 562/2/416 561/2/416 573/2/416
f 562/2/416 573/2/416 574/2/416
f 561/2/726 559/2/417 571/2/417
f 561/2/726 571/2/417 573/2/726
f 574/2/727 572/2/126 560/2/126
f 574/2/727 560/2/126 562/2/727
f 575/1/368 576/1/368 577/1/368
f 575/1/368 577/1/368 578/1/368
f 566/1/241 565/1/241 575/1/308
f 566/1/241 575/1/308 578/1/308
f 568/1/431 567/1/431 577/1/420
f 568/1/431 577/1/420 576/1/420
f 565/1/417 568/1/417 576/1/456
f 565/1/417 576/1/456 575/1/417
f 577/1/459 567/1/126 566/1/126
f 577/1/459 566/1/126 578/1/126
f 570/4/407 569/4/407 579/4/411
f 570/4/407 579/4/411 580/4/411
f 571/4/417 570/4/164 580/4/564
f 571/4/417 580/4/564 581/4/728
f 582/4/729 579/4/190 569/4/490
f 582/4/729 569/4/490 572/4/126
f 574/2/416 573/2/416 583/2/472
f 574/2/416 583/2/472 584/2/472
f 573/2/726 571/2/417 581/2/728
f 573/2/726 581/2/728 583/2/730
f 584/2/731 582/2/729 572/2/126
f 584/2/731 572/2/126 574/2/727
f 585/1/238 578/1/238 575/1/238
f 585/1/238 575/1/238 586/1/238
f 585/1/240 586/1/240 587/1/416
f 585/1/240 587/1/416 588/1/416
f 575/1/399 578/1/399 589/1/431
f 575/1/399 589/1/431 590/1/431
f 586/1/454 575/1/417 590/1/654
f 586/1/454 590/1/654 587/1/654
f 589/1/655 578/1/126 585/1/455
f 589/1/655 585/1/455 588/1/655
f 591/4/368 592/4/368 593/4/368
f 591/4/368 593/4/368 594/4/368
f 580/4/411 579/4/411 593/4/420
f 580/4/411 593/4/420 592/4/420
f 581/4/728 580/4/564 592/4/585
f 581/4/728 592/4/585 591/4/732
f 593/4/253 579/4/190 582/4/729
f 593/4/253 582/4/729 594/4/733
f 584/2/472 583/2/472 595/2/308
f 584/2/472 595/2/308 596/2/308
f 583/2/730 581/2/728 591/2/732
f 583/2/730 591/2/732 595/2/734
f 594/2/733 582/2/729 584/2/731
f 594/2/733 584/2/731 596/2/735
f 597/1/418 598/1/418 599/1/418
f 597/1/418 599/1/418 600/1/418
f 587/1/416 597/1/419 600/1/419
f 587/1/416 600/1/419 588/1/416
f 590/1/431 589/1/431 599/1/420
f 590/1/431 599/1/420 598/1/420
f 590/1/654 598/1/421 597/1/421
f 590/1/654 597/1/421 587/1/654
f 600/1/422 599/1/422 589/1/655
f 600/1/422 589/1/655 588/1/655
f 591/5/399 594/5/399 601/5/431
f 591/5/399 601/5/431 602/5/431
f 595/5/734 591/5/732 602/5/736
f 595/5/734 602/5/736 603/5/737
f 601/5/739 594/5/733 596/5/735
f 601/5/739 596/5/735 604/5/738
f 605/5/238 596/5/238 595/5/238
f 605/5/238 595/5/238 606/5/238
f 605/5/240 606/5/240 607/5/463
f 605/5/240 607/5/463 608/5/463
f 606/5/106 595/5/734 603/5/737
f 606/5/106 603/5/737 607/5/740
f 604/5/738 596/5/735 605/5/138
f 604/5/738 605/5/138 608/5/741
f 609/1/368 610/1/368 611/1/368
f 609/1/368 611/1/368 612/1/368
f 602/1/431 601/1/431 611/1/420
f 602/1/431 611/1/420 610/1/420
f 603/1/737 602/1/736 610/1/585
f 603/1/737 610/1/585 609/1/742
f 611/1/253 601/1/739 604/1/738
f 611/1/253 604/1/738 612/1/743
f 608/5/463 607/5/463 613/5/416
f 608/5/463 613/5/416 614/5/416
f 607/5/740 603/5/737 609/5/742
f 607/5/740 609/5/742 613/5/744
f 612/5/743 604/5/738 608/5/741
f 612/5/743 608/5/741 614/5/745
f 614/5/416 613/5/416 615/5/416
f 614/5/416 615/5/416 616/5/416
f 609/5/399 612/5/399 617/5/400
f 609/5/399 617/5/400 618/5/400
f 613/5/744 609/5/742 618/5/746
f 613/5/744 618/5/746 615/5/746
f 617/5/404 612/5/743 614/5/745
f 617/5/404 614/5/745 616/5/404
f 616/1/416 615/1/416 619/1/416
f 616/1/416 619/1/416 620/1/416
f 618/1/400 617/1/400 621/1/407
f 618/1/400 621/1/407 622/1/407
f 615/1/746 618/1/746 622/1/417
f 615/1/746 622/1/417 619/1/417
f 620/1/126 621/1/126 617/1/404
f 620/1/126 617/1/404 616/1/404
f 623/4/462 624/4/462 625/4/462
f 623/4/462 625/4/462 626/4/462
f 623/4/240 626/4/240 627/4/463
f 623/4/240 627/4/463 628/4/463
f 624/4/464 629/4/465 630/4/465
f 624/4/464 630/4/465 625/4/464
f 626/4/466 625/4/466 630/4/467
f 626/4/466 630/4/467 627/4/467
f 629/4/468 624/4/469 623/4/469
f 629/4/468 623/4/469 628/4/468
f 620/1/416 619/1/416 631/1/410
f 620/1/416 631/1/410 632/1/410
f 622/1/407 621/1/407 633/1/411
f 622/1/407 633/1/411 634/1/411
f 619/1/417 622/1/417 634/1/412
f 619/1/417 634/1/412 631/1/412
f 632/1/413 633/1/413 621/1/126
f 632/1/413 621/1/126 620/1/126
f 628/2/463 627/2/463 635/2/416
f 628/2/463 635/2/416 636/2/416
f 630/2/465 629/2/465 637/2/407
f 630/2/465 637/2/407 638/2/407
f 627/2/467 630/2/467 638/2/417
f 627/2/467 638/2/417 635/2/417
f 636/2/126 637/2/126 629/2/468
f 636/2/126 629/2/468 628/2/468
f 639/1/418 640/1/418 641/1/418
f 639/1/418 641/1/418 642/1/418
f 631/1/410 639/1/419 642/1/419
f 631/1/410 642/1/419 632/1/410
f 634/1/411 633/1/411 641/1/420
f 634/1/411 641/1/420 640/1/420
f 634/1/412 640/1/421 639/1/421
f 634/1/412 639/1/421 631/1/412
f 642/1/422 641/1/422 633/1/413
f 642/1/422 633/1/413 632/1/413
f 636/5/416 635/5/416 643/5/416
f 636/5/416 643/5/416 644/5/416
f 638/5/407 637/5/407 645/5/407
f 638/5/407 645/5/407 646/5/407
f 635/5/417 638/5/417 646/5/417
f 635/5/417 646/5/417 643/5/417
f 644/5/126 645/5/126 637/5/126
f 644/5/126 637/5/126 636/5/126
f 644/5/416 643/5/416 647/5/416
f 644/5/416 647/5/416 648/5/416
f 646/5/407 645/5/407 649/5/407
f 646/5/407 649/5/407 650/5/407
f 643/5/417 646/5/417 650/5/417
f 643/5/417 650/5/417 647/5/417
f 648/5/126 649/5/126 645/5/126
f 648/5/126 645/5/126 644/5/126
f 648/1/416 647/1/416 651/1/416
f 648/1/416 651/1/416 652/1/416
f 650/1/407 649/1/407 653/1/407
f 650/1/407 653/1/407 654/1/407
f 647/1/417 650/1/417 654/1/417
f 647/1/417 654/1/417 651/1/417
f 652/1/126 653/1/126 649/1/126
f 652/1/126 649/1/126 648/1/126
f 652/5/416 651/5/416 655/5/416
f 652/5/416 655/5/416 656/5/416
f 654/5/407 653/5/407 657/5/407
f 654/5/407 657/5/407 658/5/407
f 651/5/417 654/5/417 658/5/417
f 651/5/417 658/5/417 655/5/417
f 656/5/126 657/5/126 653/5/126
f 656/5/126 653/5/126 652/5/126
f 656/5/416 655/5/416 659/5/472
f 656/5/416 659/5/472 660/5/472
f 658/5/407 657/5/407 661/5/411
f 658/5/407 661/5/411 662/5/411
f 655/5/417 658/5/417 662/5/457
f 655/5/417 662/5/457 659/5/457
f 660/5/458 661/5/458 657/5/126
f 660/5/458 657/5/126 656/5/126
f 663/4/298 664/4/368 665/4/368
f 663/4/298 665/4/368 666/4/298
f 660/4/472 659/4/472 663/4/308
f 660/4/472 663/4/308 666/4/308
f 662/4/411 661/4/411 665/4/420
f 662/4/411 665/4/420 664/4/420
f 659/4/457 662/4/457 664/4/456
f 659/4/457 664/4/456 663/4/747
f 665/4/459 661/4/458 660/4/458
f 665/4/459 660/4/458 666/4/748
f 667/5/238 666/5/238 663/5/238
f 667/5/238 663/5/238 668/5/238
f 669/5/418 670/5/418 671/5/418
f 669/5/418 671/5/418 672/5/418
f 667/5/416 668/5/416 669/5/416
f 667/5/416 669/5/416 672/5/416
f 663/5/298 666/5/298 671/5/444
f 663/5/298 671/5/444 670/5/444
f 668/5/470 663/5/747 670/5/470
f 668/5/470 670/5/470 669/5/470
f 671/5/471 666/5/748 667/5/471
f 671/5/471 667/5/471 672/5/471
f 673/3/462 674/3/462 675/3/462
f 673/3/462 675/3/462 676/3/462
f 673/3/240 676/3/240 677/3/241
f 673/3/240 677/3/241 678/3/241
f 674/3/464 679/3/465 680/3/465
f 674/3/464 680/3/465 675/3/464
f 676/3/466 675/3/466 680/3/669
f 676/3/466 680/3/669 677/3/669
f 679/3/562 674/3/469 673/3/469
f 679/3/562 673/3/469 678/3/562
f 678/3/241 677/3/241 681/3/308
f 678/3/241 681/3/308 682/3/308
f 680/3/465 679/3/465 683/3/407
f 680/3/465 683/3/407 684/3/407
f 677/3/669 680/3/669 684/3/475
f 677/3/669 684/3/475 681/3/476
f 683/3/478 679/3/562 678/3/562
f 683/3/478 678/3/562 682/3/477
f 684/1/407 683/1/407 685/1/407
f 684/1/407 685/1/407 686/1/407
f 681/1/476 684/1/475 686/1/749
f 681/1/476 686/1/749 687/1/750
f 685/1/752 683/1/478 682/1/477
f 685/1/752 682/1/477 688/1/751
f 689/3/238 682/3/238 681/3/238
f 689/3/238 681/3/238 690/3/238
f 689/3/240 690/3/240 691/3/416
f 689/3/240 691/3/416 692/3/416
f 690/3/106 681/3/476 687/3/750
f 690/3/106 687/3/750 691/3/753
f 688/3/751 682/3/477 689/3/138
f 688/3/751 689/3/138 692/3/754
f 686/1/407 685/1/407 693/1/407
f 686/1/407 693/1/407 694/1/407
f 686/1/749 694/1/755 695/1/756
f 686/1/749 695/1/756 687/1/750
f 696/1/390 693/1/391 685/1/752
f 696/1/390 685/1/752 688/1/751
f 695/3/392 696/3/392 698/3/392
f 695/3/392 698/3/392 697/3/392
f 691/3/416 697/3/419 698/3/419
f 691/3/416 698/3/419 692/3/416
f 687/3/750 695/3/756 697/3/757
f 687/3/750 697/3/757 691/3/753
f 698/3/396 696/3/390 688/3/751
f 698/3/396 688/3/751 692/3/754
f 695/5/405 699/5/416 700/5/416
f 695/5/405 700/5/416 696/5/405
f 694/5/407 693/5/407 701/5/407
f 694/5/407 701/5/407 702/5/407
f 694/5/755 702/5/758 699/5/758
f 694/5/755 699/5/758 695/5/756
f 700/5/759 701/5/759 693/5/391
f 700/5/759 693/5/391 696/5/390
f 700/2/416 699/2/416 703/2/308
f 700/2/416 703/2/308 704/2/308
f 702/2/407 701/2/407 705/2/407
f 702/2/407 705/2/407 706/2/407
f 699/2/758 702/2/758 706/2/475
f 699/2/758 706/2/475 703/2/476
f 705/2/478 701/2/759 700/2/759
f 705/2/478 700/2/759 704/2/477
f 706/2/407 705/2/407 707/2/407
f 706/2/407 707/2/407 708/2/407
f 703/2/476 706/2/475 708/2/760
f 703/2/476 708/2/760 709/2/761
f 707/2/482 705/2/478 704/2/477
f 707/2/482 704/2/477 710/2/671
f 711/5/238 704/5/238 703/5/238
f 711/5/238 703/5/238 712/5/238
f 711/5/240 712/5/240 713/5/241
f 711/5/240 713/5/241 714/5/241
f 712/5/106 703/5/476 709/5/761
f 712/5/106 709/5/761 713/5/174
f 710/5/671 704/5/477 711/5/138
f 710/5/671 711/5/138 714/5/673
f 708/4/407 707/4/407 715/4/407
f 708/4/407 715/4/407 716/4/407
f 709/4/761 708/4/760 716/4/164
f 709/4/761 716/4/164 717/4/762
f 718/4/763 715/4/490 707/4/482
f 718/4/763 707/4/482 710/4/671
f 714/2/241 713/2/241 719/2/308
f 714/2/241 719/2/308 720/2/308
f 713/2/174 709/2/761 717/2/762
f 713/2/174 717/2/762 719/2/764
f 718/2/763 710/2/671 714/2/673
f 718/2/763 714/2/673 720/2/765
f 716/4/407 715/4/407 721/4/407
f 716/4/407 721/4/407 722/4/407
f 717/4/762 716/4/164 722/4/766
f 717/4/762 722/4/766 723/4/767
f 724/4/768 721/4/769 715/4/490
f 724/4/768 715/4/490 718/4/763
f 719/2/764 717/2/762 723/2/767
f 719/2/764 723/2/767 725/2/770
f 726/2/771 724/2/768 718/2/763
f 726/2/771 718/2/763 720/2/765
f 727/5/238 720/5/238 719/5/238
f 727/5/238 719/5/238 728/5/238
f 725/5/772 726/5/772 730/5/392
f 725/5/772 730/5/392 729/5/392
f 727/5/416 728/5/416 729/5/416
f 727/5/416 729/5/416 730/5/416
f 728/5/773 719/5/764 725/5/770
f 728/5/773 725/5/770 729/5/773
f 730/5/774 726/5/771 720/5/765
f 730/5/774 720/5/765 727/5/774
f 722/2/407 721/2/407 731/2/407
f 722/2/407 731/2/407 732/2/407
f 722/2/766 732/2/755 733/2/775
f 722/2/766 733/2/775 723/2/767
f 734/2/776 731/2/391 721/2/769
f 734/2/776 721/2/769 724/2/768
f 733/5/392 734/5/392 736/5/772
f 733/5/392 736/5/772 735/5/772
f 725/5/772 735/5/772 736/5/772
f 725/5/772 736/5/772 726/5/772
f 723/5/767 733/5/775 735/5/777
f 723/5/767 735/5/777 725/5/770
f 736/5/778 734/5/776 724/5/768
f 736/5/778 724/5/768 726/5/771
f 733/5/405 737/5/406 738/5/406
f 733/5/405 738/5/406 734/5/405
f 732/5/407 731/5/407 739/5/407
f 732/5/407 739/5/407 740/5/407
f 732/5/755 740/5/408 737/5/408
f 732/5/755 737/5/408 733/5/775
f 738/5/409 739/5/409 731/5/391
f 738/5/409 731/5/391 734/5/776
f 738/5/406 737/5/406 741/5/472
f 738/5/406 741/5/472 742/5/472
f 740/5/407 739/5/407 743/5/411
f 740/5/407 743/5/411 744/5/411
f 737/5/408 740/5/408 744/5/457
f 737/5/408 744/5/457 741/5/457
f 742/5/458 743/5/458 739/5/409
f 742/5/458 739/5/409 738/5/409
f 745/5/298 746/5/368 747/5/368
f 745/5/298 747/5/368 748/5/298
f 742/5/472 741/5/472 745/5/308
f 742/5/472 745/5/308 748/5/308
f 744/5/411 743/5/411 747/5/420
f 744/5/411 747/5/420 746/5/420
f 741/5/457 744/5/457 746/5/456
f 741/5/457 746/5/456 745/5/747
f 747/5/459 743/5/458 742/5/458
f 747/5/459 742/5/458 748/5/748
f 749/1/238 748/1/238 745/1/238
f 749/1/238 745/1/238 750/1/238
f 751/1/418 752/1/418 753/1/418
f 751/1/418 753/1/418 754/1/418
f 749/1/416 750/1/416 751/1/416
f 749/1/416 751/1/416 754/1/416
f 745/1/298 748/1/298 753/1/444
f 745/1/298 753/1/444 752/1/444
f 750/1/470 745/1/747 752/1/470
f 750/1/470 752/1/470 751/1/470
f 753/1/471 748/1/748 749/1/471
f 753/1/471 749/1/471 754/1/471
f 755/2/462 756/2/462 757/2/462
f 755/2/462 757/2/462 758/2/462
f 755/2/240 758/2/240 759/2/463
f 755/2/240 759/2/463 760/2/463
f 756/2/464 761/2/465 762/2/465
f 756/2/464 762/2/465 757/2/464
f 758/2/466 757/2/466 762/2/467
f 758/2/466 762/2/467 759/2/467
f 761/2/468 756/2/469 755/2/469
f 761/2/468 755/2/469 760/2/468
f 760/2/463 759/2/463 763/2/416
f 760/2/463 763/2/416 764/2/416
f 762/2/465 761/2/465 765/2/407
f 762/2/465 765/2/407 766/2/407
f 759/2/467 762/2/467 766/2/417
f 759/2/467 766/2/417 763/2/417
f 764/2/126 765/2/126 761/2/468
f 764/2/126 761/2/468 760/2/468
f 764/2/416 763/2/416 767/2/416
f 764/2/416 767/2/416 768/2/416
f 766/2/407 765/2/407 769/2/407
f 766/2/407 769/2/407 770/2/407
f 763/2/417 766/2/417 770/2/417
f 763/2/417 770/2/417 767/2/417
f 768/2/126 769/2/126 765/2/126
f 768/2/126 765/2/126 764/2/126
f 768/5/416 767/5/416 771/5/416
f 768/5/416 771/5/416 772/5/416
f 770/5/407 769/5/407 773/5/407
f 770/5/407 773/5/407 774/5/407
f 767/5/417 770/5/417 774/5/417
f 767/5/417 774/5/417 771/5/417
f 772/5/126 773/5/126 769/5/126
f 772/5/126 769/5/126 768/5/126
f 772/5/416 771/5/416 775/5/416
f 772/5/416 775/5/416 776/5/416
f 774/5/407 773/5/407 777/5/407
f 774/5/407 777/5/407 778/5/407
f 771/5/417 774/5/417 778/5/417
f 771/5/417 778/5/417 775/5/417
f 776/5/126 777/5/126 773/5/126
f 776/5/126 773/5/126 772/5/126
f 776/1/416 775/1/416 779/1/416
f 776/1/416 779/1/416 780/1/416
f 778/1/407 777/1/407 781/1/407
f 778/1/407 781/1/407 782/1/407
f 775/1/417 778/1/417 782/1/417
f 775/1/417 782/1/417 779/1/417
f 780/1/126 781/1/126 777/1/126
f 780/1/126 777/1/126 776/1/126
f 780/1/416 779/1/416 783/1/416
f 780/1/416 783/1/416 784/1/416
f 782/1/407 781/1/407 785/1/407
f 782/1/407 785/1/407 786/1/407
f 779/1/417 782/1/417 786/1/417
f 779/1/417 786/1/417 783/1/417
f 784/1/126 785/1/126 781/1/126
f 784/1/126 781/1/126 780/1/126
f 784/3/416 783/3/416 787/3/410
f 784/3/416 787/3/410 788/3/410
f 786/3/407 785/3/407 789/3/411
f 786/3/407 789/3/411 790/3/411
f 783/3/417 786/3/417 790/3/412
f 783/3/417 790/3/412 787/3/412
f 788/3/413 789/3/413 785/3/126
f 788/3/413 785/3/126 784/3/126
f 791/3/418 792/3/418 793/3/418
f 791/3/418 793/3/418 794/3/418
f 787/3/410 791/3/419 794/3/419
f 787/3/410 794/3/419 788/3/410
f 790/3/411 789/3/411 793/3/420
f 790/3/411 793/3/420 792/3/420
f 790/3/412 792/3/421 791/3/421
f 790/3/412 791/3/421 787/3/412
f 794/3/422 793/3/422 789/3/413
f 794/3/422 789/3/413 788/3/413

