# generated by vox_to_obj_exporter
# scale=0.1 center=false ground=false y_up=true

mtllib Fight_710.mtl
usemtl palette

# normals
vn -1 0 0
vn 1 0 0
vn 0 1 0
vn 0 -1 0
vn 0 0 1
vn 0 0 -1

# texcoords
vt 0.103515625 0.5

# verts
v 0.5 15.5 -2.6
v 0.5 15.4 -2.6
v 0.5 15.4 -2.5
v 0.5 15.5 -2.5
v 0.6 15.5 -2.5
v 0.6 15.4 -2.5
v 0.6 15.4 -2.6
v 0.6 15.5 -2.6
v 0.5 15.5 -2.6
v 0.5 15.5 -2.5
v 0.6 15.5 -2.5
v 0.6 15.5 -2.6
v 0.5 15.4 -2.5
v 0.5 15.4 -2.6
v 0.6 15.4 -2.6
v 0.6 15.4 -2.5
v 0.5 15.5 -2.5
v 0.5 15.4 -2.5
v 0.6 15.4 -2.5
v 0.6 15.5 -2.5
v 0.6 15.5 -2.6
v 0.6 15.4 -2.6
v 0.5 15.4 -2.6
v 0.5 15.5 -2.6
v 0.7 15.5 -2.6
v 0.7 15.4 -2.6
v 0.7 15.4 -2.5
v 0.7 15.5 -2.5
v 0.8 15.5 -2.5
v 0.8 15.4 -2.5
v 0.8 15.4 -2.6
v 0.8 15.5 -2.6
v 0.7 15.5 -2.6
v 0.7 15.5 -2.5
v 0.8 15.5 -2.5
v 0.8 15.5 -2.6
v 0.7 15.4 -2.5
v 0.7 15.4 -2.6
v 0.8 15.4 -2.6
v 0.8 15.4 -2.5
v 0.7 15.5 -2.5
v 0.7 15.4 -2.5
v 0.8 15.4 -2.5
v 0.8 15.5 -2.5
v 0.8 15.5 -2.6
v 0.8 15.4 -2.6
v 0.7 15.4 -2.6
v 0.7 15.5 -2.6
v 0.6 15.3 -2.6
v 0.6 15.2 -2.6
v 0.6 15.2 -2.5
v 0.6 15.3 -2.5
v 0.7 15.3 -2.5
v 0.7 15.2 -2.5
v 0.7 15.2 -2.6
v 0.7 15.3 -2.6
v 0.6 15.3 -2.6
v 0.6 15.3 -2.5
v 0.7 15.3 -2.5
v 0.7 15.3 -2.6
v 0.6 15.3 -2.5
v 0.6 15.2 -2.5
v 0.7 15.2 -2.5
v 0.7 15.3 -2.5
v 0.7 15.3 -2.6
v 0.7 15.2 -2.6
v 0.6 15.2 -2.6
v 0.6 15.3 -2.6
v 0.6 15.2 -2.6
v 0.6 15.1 -2.6
v 0.6 15.1 -2.5
v 0.6 15.2 -2.5
v 0.7 15.2 -2.5
v 0.7 15.1 -2.5
v 0.7 15.1 -2.6
v 0.7 15.2 -2.6
v 0.6 15.2 -2.5
v 0.6 15.1 -2.5
v 0.7 15.1 -2.5
v 0.7 15.2 -2.5
v 0.7 15.2 -2.6
v 0.7 15.1 -2.6
v 0.6 15.1 -2.6
v 0.6 15.2 -2.6
v 0.6 15.1 -2.6
v 0.6 15 -2.6
v 0.6 15 -2.5
v 0.6 15.1 -2.5
v 0.7 15.1 -2.5
v 0.7 15 -2.5
v 0.7 15 -2.6
v 0.7 15.1 -2.6
v 0.6 15.1 -2.5
v 0.6 15 -2.5
v 0.7 15 -2.5
v 0.7 15.1 -2.5
v 0.7 15.1 -2.6
v 0.7 15 -2.6
v 0.6 15 -2.6
v 0.6 15.1 -2.6
v 0.4 15 -2.6
v 0.4 14.9 -2.6
v 0.4 14.9 -2.5
v 0.4 15 -2.5
v 0.5 15 -2.5
v 0.5 14.9 -2.5
v 0.5 14.9 -2.6
v 0.5 15 -2.6
v 0.4 15 -2.6
v 0.4 15 -2.5
v 0.5 15 -2.5
v 0.5 15 -2.6
v 0.4 15 -2.5
v 0.4 14.9 -2.5
v 0.5 14.9 -2.5
v 0.5 15 -2.5
v 0.5 15 -2.6
v 0.5 14.9 -2.6
v 0.4 14.9 -2.6
v 0.4 15 -2.6
v 0.6 15 -2.6
v 0.6 14.9 -2.6
v 0.6 14.9 -2.5
v 0.6 15 -2.5
v 0.6 14.9 -2.5
v 0.6 14.9 -2.6
v 0.7 14.9 -2.6
v 0.7 14.9 -2.5
v 0.6 15 -2.5
v 0.6 14.9 -2.5
v 0.7 14.9 -2.5
v 0.7 15 -2.5
v 0.7 15 -2.6
v 0.7 14.9 -2.6
v 0.6 14.9 -2.6
v 0.6 15 -2.6
v 0.8 15 -2.5
v 0.8 14.9 -2.5
v 0.8 14.9 -2.6
v 0.8 15 -2.6
v 0.7 15 -2.6
v 0.7 15 -2.5
v 0.8 15 -2.5
v 0.8 15 -2.6
v 0.7 15 -2.5
v 0.7 14.9 -2.5
v 0.8 14.9 -2.5
v 0.8 15 -2.5
v 0.8 15 -2.6
v 0.8 14.9 -2.6
v 0.7 14.9 -2.6
v 0.7 15 -2.6
v 0.4 14.9 -2.6
v 0.4 14.8 -2.6
v 0.4 14.8 -2.5
v 0.4 14.9 -2.5
v 0.5 14.9 -2.5
v 0.5 14.8 -2.5
v 0.5 14.8 -2.6
v 0.5 14.9 -2.6
v 0.4 14.9 -2.5
v 0.4 14.8 -2.5
v 0.5 14.8 -2.5
v 0.5 14.9 -2.5
v 0.5 14.9 -2.6
v 0.5 14.8 -2.6
v 0.4 14.8 -2.6
v 0.4 14.9 -2.6
v 0.7 14.9 -2.6
v 0.7 14.8 -2.6
v 0.7 14.8 -2.5
v 0.7 14.9 -2.5
v 0.8 14.9 -2.5
v 0.8 14.8 -2.5
v 0.8 14.8 -2.6
v 0.8 14.9 -2.6
v 0.7 14.9 -2.5
v 0.7 14.8 -2.5
v 0.8 14.8 -2.5
v 0.8 14.9 -2.5
v 0.8 14.9 -2.6
v 0.8 14.8 -2.6
v 0.7 14.8 -2.6
v 0.7 14.9 -2.6
v 2.4 14.9 -2.6
v 2.4 14.8 -2.6
v 2.4 14.8 -2.5
v 2.4 14.9 -2.5
v 2.5 14.9 -2.5
v 2.5 14.8 -2.5
v 2.5 14.8 -2.6
v 2.5 14.9 -2.6
v 2.4 14.9 -2.6
v 2.4 14.9 -2.5
v 2.5 14.9 -2.5
v 2.5 14.9 -2.6
v 2.4 14.9 -2.5
v 2.4 14.8 -2.5
v 2.5 14.8 -2.5
v 2.5 14.9 -2.5
v 2.5 14.9 -2.6
v 2.5 14.8 -2.6
v 2.4 14.8 -2.6
v 2.4 14.9 -2.6
v 0.4 14.8 -2.6
v 0.4 14.7 -2.6
v 0.4 14.7 -2.5
v 0.4 14.8 -2.5
v 0.5 14.8 -2.5
v 0.5 14.7 -2.5
v 0.5 14.7 -2.6
v 0.5 14.8 -2.6
v 0.4 14.7 -2.5
v 0.4 14.7 -2.6
v 0.5 14.7 -2.6
v 0.5 14.7 -2.5
v 0.4 14.8 -2.5
v 0.4 14.7 -2.5
v 0.5 14.7 -2.5
v 0.5 14.8 -2.5
v 0.5 14.8 -2.6
v 0.5 14.7 -2.6
v 0.4 14.7 -2.6
v 0.4 14.8 -2.6
v 0.7 14.8 -2.6
v 0.7 14.7 -2.6
v 0.7 14.7 -2.5
v 0.7 14.8 -2.5
v 0.8 14.8 -2.5
v 0.8 14.7 -2.5
v 0.8 14.7 -2.6
v 0.8 14.8 -2.6
v 0.7 14.8 -2.5
v 0.7 14.7 -2.5
v 0.8 14.7 -2.5
v 0.8 14.8 -2.5
v 0.8 14.8 -2.6
v 0.8 14.7 -2.6
v 0.7 14.7 -2.6
v 0.7 14.8 -2.6
v 1.4 14.8 -2.6
v 1.4 14.7 -2.6
v 1.4 14.7 -2.5
v 1.4 14.8 -2.5
v 1.4 14.8 -2.6
v 1.4 14.8 -2.5
v 1.5 14.8 -2.5
v 1.5 14.8 -2.6
v 1.4 14.7 -2.5
v 1.4 14.7 -2.6
v 1.5 14.7 -2.6
v 1.5 14.7 -2.5
v 1.4 14.8 -2.5
v 1.4 14.7 -2.5
v 1.5 14.7 -2.5
v 1.5 14.8 -2.5
v 1.5 14.8 -2.6
v 1.5 14.7 -2.6
v 1.4 14.7 -2.6
v 1.4 14.8 -2.6
v 1.5 14.8 -2.6
v 1.5 14.8 -2.5
v 1.6 14.8 -2.5
v 1.6 14.8 -2.6
v 1.5 14.7 -2.5
v 1.5 14.7 -2.6
v 1.6 14.7 -2.6
v 1.6 14.7 -2.5
v 1.5 14.8 -2.5
v 1.5 14.7 -2.5
v 1.6 14.7 -2.5
v 1.6 14.8 -2.5
v 1.6 14.8 -2.6
v 1.6 14.7 -2.6
v 1.5 14.7 -2.6
v 1.5 14.8 -2.6
v 1.7 14.8 -2.5
v 1.7 14.7 -2.5
v 1.7 14.7 -2.6
v 1.7 14.8 -2.6
v 1.6 14.8 -2.6
v 1.6 14.8 -2.5
v 1.7 14.8 -2.5
v 1.7 14.8 -2.6
v 1.6 14.7 -2.5
v 1.6 14.7 -2.6
v 1.7 14.7 -2.6
v 1.7 14.7 -2.5
v 1.6 14.8 -2.5
v 1.6 14.7 -2.5
v 1.7 14.7 -2.5
v 1.7 14.8 -2.5
v 1.7 14.8 -2.6
v 1.7 14.7 -2.6
v 1.6 14.7 -2.6
v 1.6 14.8 -2.6
v 2.4 14.8 -2.6
v 2.4 14.7 -2.6
v 2.4 14.7 -2.5
v 2.4 14.8 -2.5
v 2.5 14.8 -2.5
v 2.5 14.7 -2.5
v 2.5 14.7 -2.6
v 2.5 14.8 -2.6
v 2.4 14.7 -2.5
v 2.4 14.7 -2.6
v 2.5 14.7 -2.6
v 2.5 14.7 -2.5
v 2.4 14.8 -2.5
v 2.4 14.7 -2.5
v 2.5 14.7 -2.5
v 2.5 14.8 -2.5
v 2.5 14.8 -2.6
v 2.5 14.7 -2.6
v 2.4 14.7 -2.6
v 2.4 14.8 -2.6
v 0.7 14.7 -2.6
v 0.7 14.6 -2.6
v 0.7 14.6 -2.5
v 0.7 14.7 -2.5
v 0.7 14.6 -2.5
v 0.7 14.6 -2.6
v 0.8 14.6 -2.6
v 0.8 14.6 -2.5
v 0.7 14.7 -2.5
v 0.7 14.6 -2.5
v 0.8 14.6 -2.5
v 0.8 14.7 -2.5
v 0.8 14.7 -2.6
v 0.8 14.6 -2.6
v 0.7 14.6 -2.6
v 0.7 14.7 -2.6
v 0.9 14.7 -2.5
v 0.9 14.6 -2.5
v 0.9 14.6 -2.6
v 0.9 14.7 -2.6
v 0.8 14.7 -2.6
v 0.8 14.7 -2.5
v 0.9 14.7 -2.5
v 0.9 14.7 -2.6
v 0.8 14.7 -2.5
v 0.8 14.6 -2.5
v 0.9 14.6 -2.5
v 0.9 14.7 -2.5
v 0.9 14.7 -2.6
v 0.9 14.6 -2.6
v 0.8 14.6 -2.6
v 0.8 14.7 -2.6
v 1 14.7 -2.6
v 1 14.6 -2.6
v 1 14.6 -2.5
v 1 14.7 -2.5
v 1 14.7 -2.6
v 1 14.7 -2.5
v 1.1 14.7 -2.5
v 1.1 14.7 -2.6
v 1 14.7 -2.5
v 1 14.6 -2.5
v 1.1 14.6 -2.5
v 1.1 14.7 -2.5
v 1.1 14.7 -2.6
v 1.1 14.6 -2.6
v 1 14.6 -2.6
v 1 14.7 -2.6
v 1.1 14.7 -2.6
v 1.1 14.7 -2.5
v 1.2 14.7 -2.5
v 1.2 14.7 -2.6
v 1.1 14.6 -2.5
v 1.1 14.6 -2.6
v 1.2 14.6 -2.6
v 1.2 14.6 -2.5
v 1.1 14.7 -2.5
v 1.1 14.6 -2.5
v 1.2 14.6 -2.5
v 1.2 14.7 -2.5
v 1.2 14.7 -2.6
v 1.2 14.6 -2.6
v 1.1 14.6 -2.6
v 1.1 14.7 -2.6
v 1.3 14.7 -2.5
v 1.3 14.6 -2.5
v 1.3 14.6 -2.6
v 1.3 14.7 -2.6
v 1.2 14.7 -2.6
v 1.2 14.7 -2.5
v 1.3 14.7 -2.5
v 1.3 14.7 -2.6
v 1.2 14.6 -2.5
v 1.2 14.6 -2.6
v 1.3 14.6 -2.6
v 1.3 14.6 -2.5
v 1.2 14.7 -2.5
v 1.2 14.6 -2.5
v 1.3 14.6 -2.5
v 1.3 14.7 -2.5
v 1.3 14.7 -2.6
v 1.3 14.6 -2.6
v 1.2 14.6 -2.6
v 1.2 14.7 -2.6
v 1.9 14.7 -2.6
v 1.9 14.6 -2.6
v 1.9 14.6 -2.5
v 1.9 14.7 -2.5
v 1.9 14.7 -2.6
v 1.9 14.7 -2.5
v 2 14.7 -2.5
v 2 14.7 -2.6
v 1.9 14.6 -2.5
v 1.9 14.6 -2.6
v 2 14.6 -2.6
v 2 14.6 -2.5
v 1.9 14.7 -2.5
v 1.9 14.6 -2.5
v 2 14.6 -2.5
v 2 14.7 -2.5
v 2 14.7 -2.6
v 2 14.6 -2.6
v 1.9 14.6 -2.6
v 1.9 14.7 -2.6
v 2.1 14.7 -2.5
v 2.1 14.6 -2.5
v 2.1 14.6 -2.6
v 2.1 14.7 -2.6
v 2 14.7 -2.6
v 2 14.7 -2.5
v 2.1 14.7 -2.5
v 2.1 14.7 -2.6
v 2 14.7 -2.5
v 2 14.6 -2.5
v 2.1 14.6 -2.5
v 2.1 14.7 -2.5
v 2.1 14.7 -2.6
v 2.1 14.6 -2.6
v 2 14.6 -2.6
v 2 14.7 -2.6
v 2.5 14.7 -2.6
v 2.5 14.6 -2.6
v 2.5 14.6 -2.5
v 2.5 14.7 -2.5
v 2.6 14.7 -2.5
v 2.6 14.6 -2.5
v 2.6 14.6 -2.6
v 2.6 14.7 -2.6
v 2.5 14.7 -2.6
v 2.5 14.7 -2.5
v 2.6 14.7 -2.5
v 2.6 14.7 -2.6
v 2.5 14.6 -2.5
v 2.5 14.6 -2.6
v 2.6 14.6 -2.6
v 2.6 14.6 -2.5
v 2.5 14.7 -2.5
v 2.5 14.6 -2.5
v 2.6 14.6 -2.5
v 2.6 14.7 -2.5
v 2.6 14.7 -2.6
v 2.6 14.6 -2.6
v 2.5 14.6 -2.6
v 2.5 14.7 -2.6
v 0.8 14.6 -2.6
v 0.8 14.5 -2.6
v 0.8 14.5 -2.5
v 0.8 14.6 -2.5
v 0.8 14.5 -2.5
v 0.8 14.5 -2.6
v 0.9 14.5 -2.6
v 0.9 14.5 -2.5
v 0.8 14.6 -2.5
v 0.8 14.5 -2.5
v 0.9 14.5 -2.5
v 0.9 14.6 -2.5
v 0.9 14.6 -2.6
v 0.9 14.5 -2.6
v 0.8 14.5 -2.6
v 0.8 14.6 -2.6
v 0.9 14.6 -2.6
v 0.9 14.6 -2.5
v 1 14.6 -2.5
v 1 14.6 -2.6
v 0.9 14.6 -2.5
v 0.9 14.5 -2.5
v 1 14.5 -2.5
v 1 14.6 -2.5
v 1 14.6 -2.6
v 1 14.5 -2.6
v 0.9 14.5 -2.6
v 0.9 14.6 -2.6
v 1.1 14.6 -2.5
v 1.1 14.5 -2.5
v 1.1 14.5 -2.6
v 1.1 14.6 -2.6
v 1 14.5 -2.5
v 1 14.5 -2.6
v 1.1 14.5 -2.6
v 1.1 14.5 -2.5
v 1 14.6 -2.5
v 1 14.5 -2.5
v 1.1 14.5 -2.5
v 1.1 14.6 -2.5
v 1.1 14.6 -2.6
v 1.1 14.5 -2.6
v 1 14.5 -2.6
v 1 14.6 -2.6
v 1.6 14.6 -2.6
v 1.6 14.5 -2.6
v 1.6 14.5 -2.5
v 1.6 14.6 -2.5
v 1.7 14.6 -2.5
v 1.7 14.5 -2.5
v 1.7 14.5 -2.6
v 1.7 14.6 -2.6
v 1.6 14.6 -2.6
v 1.6 14.6 -2.5
v 1.7 14.6 -2.5
v 1.7 14.6 -2.6
v 1.6 14.5 -2.5
v 1.6 14.5 -2.6
v 1.7 14.5 -2.6
v 1.7 14.5 -2.5
v 1.6 14.6 -2.5
v 1.6 14.5 -2.5
v 1.7 14.5 -2.5
v 1.7 14.6 -2.5
v 1.7 14.6 -2.6
v 1.7 14.5 -2.6
v 1.6 14.5 -2.6
v 1.6 14.6 -2.6
v 2 14.6 -2.6
v 2 14.5 -2.6
v 2 14.5 -2.5
v 2 14.6 -2.5
v 2 14.5 -2.5
v 2 14.5 -2.6
v 2.1 14.5 -2.6
v 2.1 14.5 -2.5
v 2 14.6 -2.5
v 2 14.5 -2.5
v 2.1 14.5 -2.5
v 2.1 14.6 -2.5
v 2.1 14.6 -2.6
v 2.1 14.5 -2.6
v 2 14.5 -2.6
v 2 14.6 -2.6
v 2.2 14.6 -2.5
v 2.2 14.5 -2.5
v 2.2 14.5 -2.6
v 2.2 14.6 -2.6
v 2.1 14.6 -2.6
v 2.1 14.6 -2.5
v 2.2 14.6 -2.5
v 2.2 14.6 -2.6
v 2.1 14.6 -2.5
v 2.1 14.5 -2.5
v 2.2 14.5 -2.5
v 2.2 14.6 -2.5
v 2.2 14.6 -2.6
v 2.2 14.5 -2.6
v 2.1 14.5 -2.6
v 2.1 14.6 -2.6
v 0.5 14.5 -2.6
v 0.5 14.4 -2.6
v 0.5 14.4 -2.5
v 0.5 14.5 -2.5
v 0.6 14.5 -2.5
v 0.6 14.4 -2.5
v 0.6 14.4 -2.6
v 0.6 14.5 -2.6
v 0.5 14.5 -2.6
v 0.5 14.5 -2.5
v 0.6 14.5 -2.5
v 0.6 14.5 -2.6
v 0.5 14.4 -2.5
v 0.5 14.4 -2.6
v 0.6 14.4 -2.6
v 0.6 14.4 -2.5
v 0.5 14.5 -2.5
v 0.5 14.4 -2.5
v 0.6 14.4 -2.5
v 0.6 14.5 -2.5
v 0.6 14.5 -2.6
v 0.6 14.4 -2.6
v 0.5 14.4 -2.6
v 0.5 14.5 -2.6
v 0.9 14.5 -2.6
v 0.9 14.4 -2.6
v 0.9 14.4 -2.5
v 0.9 14.5 -2.5
v 1 14.5 -2.5
v 1 14.4 -2.5
v 1 14.4 -2.6
v 1 14.5 -2.6
v 0.9 14.4 -2.5
v 0.9 14.4 -2.6
v 1 14.4 -2.6
v 1 14.4 -2.5
v 0.9 14.5 -2.5
v 0.9 14.4 -2.5
v 1 14.4 -2.5
v 1 14.5 -2.5
v 1 14.5 -2.6
v 1 14.4 -2.6
v 0.9 14.4 -2.6
v 0.9 14.5 -2.6
v 1.7 14.5 -2.6
v 1.7 14.4 -2.6
v 1.7 14.4 -2.5
v 1.7 14.5 -2.5
v 1.8 14.5 -2.5
v 1.8 14.4 -2.5
v 1.8 14.4 -2.6
v 1.8 14.5 -2.6
v 1.7 14.5 -2.6
v 1.7 14.5 -2.5
v 1.8 14.5 -2.5
v 1.8 14.5 -2.6
v 1.7 14.5 -2.5
v 1.7 14.4 -2.5
v 1.8 14.4 -2.5
v 1.8 14.5 -2.5
v 1.8 14.5 -2.6
v 1.8 14.4 -2.6
v 1.7 14.4 -2.6
v 1.7 14.5 -2.6
v 2.1 14.5 -2.6
v 2.1 14.4 -2.6
v 2.1 14.4 -2.5
v 2.1 14.5 -2.5
v 2.1 14.4 -2.5
v 2.1 14.4 -2.6
v 2.2 14.4 -2.6
v 2.2 14.4 -2.5
v 2.1 14.5 -2.5
v 2.1 14.4 -2.5
v 2.2 14.4 -2.5
v 2.2 14.5 -2.5
v 2.2 14.5 -2.6
v 2.2 14.4 -2.6
v 2.1 14.4 -2.6
v 2.1 14.5 -2.6
v 2.3 14.5 -2.5
v 2.3 14.4 -2.5
v 2.3 14.4 -2.6
v 2.3 14.5 -2.6
v 2.2 14.5 -2.6
v 2.2 14.5 -2.5
v 2.3 14.5 -2.5
v 2.3 14.5 -2.6
v 2.2 14.5 -2.5
v 2.2 14.4 -2.5
v 2.3 14.4 -2.5
v 2.3 14.5 -2.5
v 2.3 14.5 -2.6
v 2.3 14.4 -2.6
v 2.2 14.4 -2.6
v 2.2 14.5 -2.6
v 2.5 14.5 -2.6
v 2.5 14.4 -2.6
v 2.5 14.4 -2.5
v 2.5 14.5 -2.5
v 2.6 14.5 -2.5
v 2.6 14.4 -2.5
v 2.6 14.4 -2.6
v 2.6 14.5 -2.6
v 2.5 14.5 -2.6
v 2.5 14.5 -2.5
v 2.6 14.5 -2.5
v 2.6 14.5 -2.6
v 2.5 14.4 -2.5
v 2.5 14.4 -2.6
v 2.6 14.4 -2.6
v 2.6 14.4 -2.5
v 2.5 14.5 -2.5
v 2.5 14.4 -2.5
v 2.6 14.4 -2.5
v 2.6 14.5 -2.5
v 2.6 14.5 -2.6
v 2.6 14.4 -2.6
v 2.5 14.4 -2.6
v 2.5 14.5 -2.6
v 1 14.4 -2.6
v 1 14.3 -2.6
v 1 14.3 -2.5
v 1 14.4 -2.5
v 1.1 14.4 -2.5
v 1.1 14.3 -2.5
v 1.1 14.3 -2.6
v 1.1 14.4 -2.6
v 1 14.4 -2.6
v 1 14.4 -2.5
v 1.1 14.4 -2.5
v 1.1 14.4 -2.6
v 1 14.3 -2.5
v 1 14.3 -2.6
v 1.1 14.3 -2.6
v 1.1 14.3 -2.5
v 1 14.4 -2.5
v 1 14.3 -2.5
v 1.1 14.3 -2.5
v 1.1 14.4 -2.5
v 1.1 14.4 -2.6
v 1.1 14.3 -2.6
v 1 14.3 -2.6
v 1 14.4 -2.6
v 1.7 14.4 -2.6
v 1.7 14.3 -2.6
v 1.7 14.3 -2.5
v 1.7 14.4 -2.5
v 1.8 14.4 -2.5
v 1.8 14.3 -2.5
v 1.8 14.3 -2.6
v 1.8 14.4 -2.6
v 1.7 14.4 -2.5
v 1.7 14.3 -2.5
v 1.8 14.3 -2.5
v 1.8 14.4 -2.5
v 1.8 14.4 -2.6
v 1.8 14.3 -2.6
v 1.7 14.3 -2.6
v 1.7 14.4 -2.6
v 2.2 14.4 -2.6
v 2.2 14.3 -2.6
v 2.2 14.3 -2.5
v 2.2 14.4 -2.5
v 2.2 14.4 -2.5
v 2.2 14.3 -2.5
v 2.3 14.3 -2.5
v 2.3 14.4 -2.5
v 2.3 14.4 -2.6
v 2.3 14.3 -2.6
v 2.2 14.3 -2.6
v 2.2 14.4 -2.6
v 2.4 14.4 -2.5
v 2.4 14.3 -2.5
v 2.4 14.3 -2.6
v 2.4 14.4 -2.6
v 2.3 14.4 -2.6
v 2.3 14.4 -2.5
v 2.4 14.4 -2.5
v 2.4 14.4 -2.6
v 2.3 14.4 -2.5
v 2.3 14.3 -2.5
v 2.4 14.3 -2.5
v 2.4 14.4 -2.5
v 2.4 14.4 -2.6
v 2.4 14.3 -2.6
v 2.3 14.3 -2.6
v 2.3 14.4 -2.6
v 2.6 14.4 -2.6
v 2.6 14.3 -2.6
v 2.6 14.3 -2.5
v 2.6 14.4 -2.5
v 2.7 14.4 -2.5
v 2.7 14.3 -2.5
v 2.7 14.3 -2.6
v 2.7 14.4 -2.6
v 2.6 14.4 -2.6
v 2.6 14.4 -2.5
v 2.7 14.4 -2.5
v 2.7 14.4 -2.6
v 2.6 14.4 -2.5
v 2.6 14.3 -2.5
v 2.7 14.3 -2.5
v 2.7 14.4 -2.5
v 2.7 14.4 -2.6
v 2.7 14.3 -2.6
v 2.6 14.3 -2.6
v 2.6 14.4 -2.6
v 0.8 14.3 -2.6
v 0.8 14.2 -2.6
v 0.8 14.2 -2.5
v 0.8 14.3 -2.5
v 0.9 14.3 -2.5
v 0.9 14.2 -2.5
v 0.9 14.2 -2.6
v 0.9 14.3 -2.6
v 0.8 14.3 -2.6
v 0.8 14.3 -2.5
v 0.9 14.3 -2.5
v 0.9 14.3 -2.6
v 0.8 14.3 -2.5
v 0.8 14.2 -2.5
v 0.9 14.2 -2.5
v 0.9 14.3 -2.5
v 0.9 14.3 -2.6
v 0.9 14.2 -2.6
v 0.8 14.2 -2.6
v 0.8 14.3 -2.6
v 1.7 14.3 -2.6
v 1.7 14.2 -2.6
v 1.7 14.2 -2.5
v 1.7 14.3 -2.5
v 1.8 14.3 -2.5
v 1.8 14.2 -2.5
v 1.8 14.2 -2.6
v 1.8 14.3 -2.6
v 1.7 14.2 -2.5
v 1.7 14.2 -2.6
v 1.8 14.2 -2.6
v 1.8 14.2 -2.5
v 1.7 14.3 -2.5
v 1.7 14.2 -2.5
v 1.8 14.2 -2.5
v 1.8 14.3 -2.5
v 1.8 14.3 -2.6
v 1.8 14.2 -2.6
v 1.7 14.2 -2.6
v 1.7 14.3 -2.6
v 2.2 14.3 -2.6
v 2.2 14.2 -2.6
v 2.2 14.2 -2.5
v 2.2 14.3 -2.5
v 2.2 14.2 -2.5
v 2.2 14.2 -2.6
v 2.3 14.2 -2.6
v 2.3 14.2 -2.5
v 2.2 14.3 -2.5
v 2.2 14.2 -2.5
v 2.3 14.2 -2.5
v 2.3 14.3 -2.5
v 2.3 14.3 -2.6
v 2.3 14.2 -2.6
v 2.2 14.2 -2.6
v 2.2 14.3 -2.6
v 2.4 14.3 -2.5
v 2.4 14.2 -2.5
v 2.4 14.2 -2.6
v 2.4 14.3 -2.6
v 2.3 14.3 -2.5
v 2.3 14.2 -2.5
v 2.4 14.2 -2.5
v 2.4 14.3 -2.5
v 2.4 14.3 -2.6
v 2.4 14.2 -2.6
v 2.3 14.2 -2.6
v 2.3 14.3 -2.6
v 2.6 14.3 -2.6
v 2.6 14.2 -2.6
v 2.6 14.2 -2.5
v 2.6 14.3 -2.5
v 2.7 14.3 -2.5
v 2.7 14.2 -2.5
v 2.7 14.2 -2.6
v 2.7 14.3 -2.6
v 2.6 14.2 -2.5
v 2.6 14.2 -2.6
v 2.7 14.2 -2.6
v 2.7 14.2 -2.5
v 2.6 14.3 -2.5
v 2.6 14.2 -2.5
v 2.7 14.2 -2.5
v 2.7 14.3 -2.5
v 2.7 14.3 -2.6
v 2.7 14.2 -2.6
v 2.6 14.2 -2.6
v 2.6 14.3 -2.6
v 0.8 14.2 -2.6
v 0.8 14.1 -2.6
v 0.8 14.1 -2.5
v 0.8 14.2 -2.5
v 0.9 14.2 -2.5
v 0.9 14.1 -2.5
v 0.9 14.1 -2.6
v 0.9 14.2 -2.6
v 0.8 14.2 -2.5
v 0.8 14.1 -2.5
v 0.9 14.1 -2.5
v 0.9 14.2 -2.5
v 0.9 14.2 -2.6
v 0.9 14.1 -2.6
v 0.8 14.1 -2.6
v 0.8 14.2 -2.6
v 2.3 14.2 -2.6
v 2.3 14.1 -2.6
v 2.3 14.1 -2.5
v 2.3 14.2 -2.5
v 2.3 14.2 -2.5
v 2.3 14.1 -2.5
v 2.4 14.1 -2.5
v 2.4 14.2 -2.5
v 2.4 14.2 -2.6
v 2.4 14.1 -2.6
v 2.3 14.1 -2.6
v 2.3 14.2 -2.6
v 2.5 14.2 -2.5
v 2.5 14.1 -2.5
v 2.5 14.1 -2.6
v 2.5 14.2 -2.6
v 2.4 14.2 -2.6
v 2.4 14.2 -2.5
v 2.5 14.2 -2.5
v 2.5 14.2 -2.6
v 2.4 14.2 -2.5
v 2.4 14.1 -2.5
v 2.5 14.1 -2.5
v 2.5 14.2 -2.5
v 2.5 14.2 -2.6
v 2.5 14.1 -2.6
v 2.4 14.1 -2.6
v 2.4 14.2 -2.6
v 2.7 14.2 -2.6
v 2.7 14.1 -2.6
v 2.7 14.1 -2.5
v 2.7 14.2 -2.5
v 2.7 14.2 -2.6
v 2.7 14.2 -2.5
v 2.8 14.2 -2.5
v 2.8 14.2 -2.6
v 2.7 14.1 -2.5
v 2.7 14.1 -2.6
v 2.8 14.1 -2.6
v 2.8 14.1 -2.5
v 2.7 14.2 -2.5
v 2.7 14.1 -2.5
v 2.8 14.1 -2.5
v 2.8 14.2 -2.5
v 2.8 14.2 -2.6
v 2.8 14.1 -2.6
v 2.7 14.1 -2.6
v 2.7 14.2 -2.6
v 2.9 14.2 -2.5
v 2.9 14.1 -2.5
v 2.9 14.1 -2.6
v 2.9 14.2 -2.6
v 2.8 14.2 -2.6
v 2.8 14.2 -2.5
v 2.9 14.2 -2.5
v 2.9 14.2 -2.6
v 2.8 14.2 -2.5
v 2.8 14.1 -2.5
v 2.9 14.1 -2.5
v 2.9 14.2 -2.5
v 2.9 14.2 -2.6
v 2.9 14.1 -2.6
v 2.8 14.1 -2.6
v 2.8 14.2 -2.6
v 0.8 14.1 -2.6
v 0.8 14 -2.6
v 0.8 14 -2.5
v 0.8 14.1 -2.5
v 0.9 14.1 -2.5
v 0.9 14 -2.5
v 0.9 14 -2.6
v 0.9 14.1 -2.6
v 0.8 14.1 -2.5
v 0.8 14 -2.5
v 0.9 14 -2.5
v 0.9 14.1 -2.5
v 0.9 14.1 -2.6
v 0.9 14 -2.6
v 0.8 14 -2.6
v 0.8 14.1 -2.6
v 2.3 14.1 -2.6
v 2.3 14 -2.6
v 2.3 14 -2.5
v 2.3 14.1 -2.5
v 2.3 14 -2.5
v 2.3 14 -2.6
v 2.4 14 -2.6
v 2.4 14 -2.5
v 2.3 14.1 -2.5
v 2.3 14 -2.5
v 2.4 14 -2.5
v 2.4 14.1 -2.5
v 2.4 14.1 -2.6
v 2.4 14 -2.6
v 2.3 14 -2.6
v 2.3 14.1 -2.6
v 2.5 14.1 -2.5
v 2.5 14 -2.5
v 2.5 14 -2.6
v 2.5 14.1 -2.6
v 2.4 14.1 -2.5
v 2.4 14 -2.5
v 2.5 14 -2.5
v 2.5 14.1 -2.5
v 2.5 14.1 -2.6
v 2.5 14 -2.6
v 2.4 14 -2.6
v 2.4 14.1 -2.6
v 2.8 14.1 -2.6
v 2.8 14 -2.6
v 2.8 14 -2.5
v 2.8 14.1 -2.5
v 2.9 14.1 -2.5
v 2.9 14 -2.5
v 2.9 14 -2.6
v 2.9 14.1 -2.6
v 2.8 14.1 -2.5
v 2.8 14 -2.5
v 2.9 14 -2.5
v 2.9 14.1 -2.5
v 2.9 14.1 -2.6
v 2.9 14 -2.6
v 2.8 14 -2.6
v 2.8 14.1 -2.6
v 0.8 14 -2.6
v 0.8 13.9 -2.6
v 0.8 13.9 -2.5
v 0.8 14 -2.5
v 0.8 14 -2.5
v 0.8 13.9 -2.5
v 0.9 13.9 -2.5
v 0.9 14 -2.5
v 0.9 14 -2.6
v 0.9 13.9 -2.6
v 0.8 13.9 -2.6
v 0.8 14 -2.6
v 1 14 -2.5
v 1 13.9 -2.5
v 1 13.9 -2.6
v 1 14 -2.6
v 0.9 14 -2.6
v 0.9 14 -2.5
v 1 14 -2.5
v 1 14 -2.6
v 0.9 14 -2.5
v 0.9 13.9 -2.5
v 1 13.9 -2.5
v 1 14 -2.5
v 1 14 -2.6
v 1 13.9 -2.6
v 0.9 13.9 -2.6
v 0.9 14 -2.6
v 1.4 14 -2.6
v 1.4 13.9 -2.6
v 1.4 13.9 -2.5
v 1.4 14 -2.5
v 1.5 14 -2.5
v 1.5 13.9 -2.5
v 1.5 13.9 -2.6
v 1.5 14 -2.6
v 1.4 14 -2.6
v 1.4 14 -2.5
v 1.5 14 -2.5
v 1.5 14 -2.6
v 1.4 13.9 -2.5
v 1.4 13.9 -2.6
v 1.5 13.9 -2.6
v 1.5 13.9 -2.5
v 1.4 14 -2.5
v 1.4 13.9 -2.5
v 1.5 13.9 -2.5
v 1.5 14 -2.5
v 1.5 14 -2.6
v 1.5 13.9 -2.6
v 1.4 13.9 -2.6
v 1.4 14 -2.6
v 2.4 14 -2.6
v 2.4 13.9 -2.6
v 2.4 13.9 -2.5
v 2.4 14 -2.5
v 2.5 14 -2.5
v 2.5 13.9 -2.5
v 2.5 13.9 -2.6
v 2.5 14 -2.6
v 2.4 14 -2.5
v 2.4 13.9 -2.5
v 2.5 13.9 -2.5
v 2.5 14 -2.5
v 2.5 14 -2.6
v 2.5 13.9 -2.6
v 2.4 13.9 -2.6
v 2.4 14 -2.6
v 2.8 14 -2.6
v 2.8 13.9 -2.6
v 2.8 13.9 -2.5
v 2.8 14 -2.5
v 2.9 14 -2.5
v 2.9 13.9 -2.5
v 2.9 13.9 -2.6
v 2.9 14 -2.6
v 2.8 14 -2.5
v 2.8 13.9 -2.5
v 2.9 13.9 -2.5
v 2.9 14 -2.5
v 2.9 14 -2.6
v 2.9 13.9 -2.6
v 2.8 13.9 -2.6
v 2.8 14 -2.6
v 0.8 13.9 -2.6
v 0.8 13.8 -2.6
v 0.8 13.8 -2.5
v 0.8 13.9 -2.5
v 0.8 13.8 -2.5
v 0.8 13.8 -2.6
v 0.9 13.8 -2.6
v 0.9 13.8 -2.5
v 0.8 13.9 -2.5
v 0.8 13.8 -2.5
v 0.9 13.8 -2.5
v 0.9 13.9 -2.5
v 0.9 13.9 -2.6
v 0.9 13.8 -2.6
v 0.8 13.8 -2.6
v 0.8 13.9 -2.6
v 1 13.9 -2.5
v 1 13.8 -2.5
v 1 13.8 -2.6
v 1 13.9 -2.6
v 0.9 13.8 -2.5
v 0.9 13.8 -2.6
v 1 13.8 -2.6
v 1 13.8 -2.5
v 0.9 13.9 -2.5
v 0.9 13.8 -2.5
v 1 13.8 -2.5
v 1 13.9 -2.5
v 1 13.9 -2.6
v 1 13.8 -2.6
v 0.9 13.8 -2.6
v 0.9 13.9 -2.6
v 1.9 13.9 -2.6
v 1.9 13.8 -2.6
v 1.9 13.8 -2.5
v 1.9 13.9 -2.5
v 2 13.9 -2.5
v 2 13.8 -2.5
v 2 13.8 -2.6
v 2 13.9 -2.6
v 1.9 13.9 -2.6
v 1.9 13.9 -2.5
v 2 13.9 -2.5
v 2 13.9 -2.6
v 1.9 13.8 -2.5
v 1.9 13.8 -2.6
v 2 13.8 -2.6
v 2 13.8 -2.5
v 1.9 13.9 -2.5
v 1.9 13.8 -2.5
v 2 13.8 -2.5
v 2 13.9 -2.5
v 2 13.9 -2.6
v 2 13.8 -2.6
v 1.9 13.8 -2.6
v 1.9 13.9 -2.6
v 2.4 13.9 -2.6
v 2.4 13.8 -2.6
v 2.4 13.8 -2.5
v 2.4 13.9 -2.5
v 2.5 13.9 -2.5
v 2.5 13.8 -2.5
v 2.5 13.8 -2.6
v 2.5 13.9 -2.6
v 2.4 13.9 -2.5
v 2.4 13.8 -2.5
v 2.5 13.8 -2.5
v 2.5 13.9 -2.5
v 2.5 13.9 -2.6
v 2.5 13.8 -2.6
v 2.4 13.8 -2.6
v 2.4 13.9 -2.6
v 2.8 13.9 -2.6
v 2.8 13.8 -2.6
v 2.8 13.8 -2.5
v 2.8 13.9 -2.5
v 2.9 13.9 -2.5
v 2.9 13.8 -2.5
v 2.9 13.8 -2.6
v 2.9 13.9 -2.6
v 2.8 13.8 -2.5
v 2.8 13.8 -2.6
v 2.9 13.8 -2.6
v 2.9 13.8 -2.5
v 2.8 13.9 -2.5
v 2.8 13.8 -2.5
v 2.9 13.8 -2.5
v 2.9 13.9 -2.5
v 2.9 13.9 -2.6
v 2.9 13.8 -2.6
v 2.8 13.8 -2.6
v 2.8 13.9 -2.6
v 1 13.8 -2.6
v 1 13.7 -2.6
v 1 13.7 -2.5
v 1 13.8 -2.5
v 1.1 13.8 -2.5
v 1.1 13.7 -2.5
v 1.1 13.7 -2.6
v 1.1 13.8 -2.6
v 1 13.8 -2.6
v 1 13.8 -2.5
v 1.1 13.8 -2.5
v 1.1 13.8 -2.6
v 1 13.7 -2.5
v 1 13.7 -2.6
v 1.1 13.7 -2.6
v 1.1 13.7 -2.5
v 1 13.8 -2.5
v 1 13.7 -2.5
v 1.1 13.7 -2.5
v 1.1 13.8 -2.5
v 1.1 13.8 -2.6
v 1.1 13.7 -2.6
v 1 13.7 -2.6
v 1 13.8 -2.6
v 2.1 13.8 -2.6
v 2.1 13.7 -2.6
v 2.1 13.7 -2.5
v 2.1 13.8 -2.5
v 2.2 13.8 -2.5
v 2.2 13.7 -2.5
v 2.2 13.7 -2.6
v 2.2 13.8 -2.6
v 2.1 13.8 -2.6
v 2.1 13.8 -2.5
v 2.2 13.8 -2.5
v 2.2 13.8 -2.6
v 2.1 13.7 -2.5
v 2.1 13.7 -2.6
v 2.2 13.7 -2.6
v 2.2 13.7 -2.5
v 2.1 13.8 -2.5
v 2.1 13.7 -2.5
v 2.2 13.7 -2.5
v 2.2 13.8 -2.5
v 2.2 13.8 -2.6
v 2.2 13.7 -2.6
v 2.1 13.7 -2.6
v 2.1 13.8 -2.6
v 2.3 13.8 -2.6
v 2.3 13.7 -2.6
v 2.3 13.7 -2.5
v 2.3 13.8 -2.5
v 2.3 13.8 -2.6
v 2.3 13.8 -2.5
v 2.4 13.8 -2.5
v 2.4 13.8 -2.6
v 2.3 13.8 -2.5
v 2.3 13.7 -2.5
v 2.4 13.7 -2.5
v 2.4 13.8 -2.5
v 2.4 13.8 -2.6
v 2.4 13.7 -2.6
v 2.3 13.7 -2.6
v 2.3 13.8 -2.6
v 2.5 13.8 -2.5
v 2.5 13.7 -2.5
v 2.5 13.7 -2.6
v 2.5 13.8 -2.6
v 2.4 13.8 -2.5
v 2.4 13.7 -2.5
v 2.5 13.7 -2.5
v 2.5 13.8 -2.5
v 2.5 13.8 -2.6
v 2.5 13.7 -2.6
v 2.4 13.7 -2.6
v 2.4 13.8 -2.6
v 1.4 13.7 -2.6
v 1.4 13.6 -2.6
v 1.4 13.6 -2.5
v 1.4 13.7 -2.5
v 1.5 13.7 -2.5
v 1.5 13.6 -2.5
v 1.5 13.6 -2.6
v 1.5 13.7 -2.6
v 1.4 13.7 -2.6
v 1.4 13.7 -2.5
v 1.5 13.7 -2.5
v 1.5 13.7 -2.6
v 1.4 13.7 -2.5
v 1.4 13.6 -2.5
v 1.5 13.6 -2.5
v 1.5 13.7 -2.5
v 1.5 13.7 -2.6
v 1.5 13.6 -2.6
v 1.4 13.6 -2.6
v 1.4 13.7 -2.6
v 2.2 13.7 -2.6
v 2.2 13.6 -2.6
v 2.2 13.6 -2.5
v 2.2 13.7 -2.5
v 2.2 13.7 -2.6
v 2.2 13.7 -2.5
v 2.3 13.7 -2.5
v 2.3 13.7 -2.6
v 2.2 13.6 -2.5
v 2.2 13.6 -2.6
v 2.3 13.6 -2.6
v 2.3 13.6 -2.5
v 2.2 13.7 -2.5
v 2.2 13.6 -2.5
v 2.3 13.6 -2.5
v 2.3 13.7 -2.5
v 2.3 13.7 -2.6
v 2.3 13.6 -2.6
v 2.2 13.6 -2.6
v 2.2 13.7 -2.6
v 2.3 13.7 -2.5
v 2.3 13.6 -2.5
v 2.4 13.6 -2.5
v 2.4 13.7 -2.5
v 2.4 13.7 -2.6
v 2.4 13.6 -2.6
v 2.3 13.6 -2.6
v 2.3 13.7 -2.6
v 2.5 13.7 -2.5
v 2.5 13.6 -2.5
v 2.5 13.6 -2.6
v 2.5 13.7 -2.6
v 2.4 13.7 -2.5
v 2.4 13.6 -2.5
v 2.5 13.6 -2.5
v 2.5 13.7 -2.5
v 2.5 13.7 -2.6
v 2.5 13.6 -2.6
v 2.4 13.6 -2.6
v 2.4 13.7 -2.6
v 1.3 13.6 -2.6
v 1.3 13.5 -2.6
v 1.3 13.5 -2.5
v 1.3 13.6 -2.5
v 1.3 13.6 -2.6
v 1.3 13.6 -2.5
v 1.4 13.6 -2.5
v 1.4 13.6 -2.6
v 1.3 13.6 -2.5
v 1.3 13.5 -2.5
v 1.4 13.5 -2.5
v 1.4 13.6 -2.5
v 1.4 13.6 -2.6
v 1.4 13.5 -2.6
v 1.3 13.5 -2.6
v 1.3 13.6 -2.6
v 1.5 13.6 -2.5
v 1.5 13.5 -2.5
v 1.5 13.5 -2.6
v 1.5 13.6 -2.6
v 1.4 13.5 -2.5
v 1.4 13.5 -2.6
v 1.5 13.5 -2.6
v 1.5 13.5 -2.5
v 1.4 13.6 -2.5
v 1.4 13.5 -2.5
v 1.5 13.5 -2.5
v 1.5 13.6 -2.5
v 1.5 13.6 -2.6
v 1.5 13.5 -2.6
v 1.4 13.5 -2.6
v 1.4 13.6 -2.6
v 2.3 13.6 -2.6
v 2.3 13.5 -2.6
v 2.3 13.5 -2.5
v 2.3 13.6 -2.5
v 2.3 13.6 -2.5
v 2.3 13.5 -2.5
v 2.4 13.5 -2.5
v 2.4 13.6 -2.5
v 2.4 13.6 -2.6
v 2.4 13.5 -2.6
v 2.3 13.5 -2.6
v 2.3 13.6 -2.6
v 2.5 13.6 -2.5
v 2.5 13.5 -2.5
v 2.5 13.5 -2.6
v 2.5 13.6 -2.6
v 2.4 13.5 -2.5
v 2.4 13.5 -2.6
v 2.5 13.5 -2.6
v 2.5 13.5 -2.5
v 2.4 13.6 -2.5
v 2.4 13.5 -2.5
v 2.5 13.5 -2.5
v 2.5 13.6 -2.5
v 2.5 13.6 -2.6
v 2.5 13.5 -2.6
v 2.4 13.5 -2.6
v 2.4 13.6 -2.6
v 2.7 13.6 -2.6
v 2.7 13.5 -2.6
v 2.7 13.5 -2.5
v 2.7 13.6 -2.5
v 2.8 13.6 -2.5
v 2.8 13.5 -2.5
v 2.8 13.5 -2.6
v 2.8 13.6 -2.6
v 2.7 13.6 -2.6
v 2.7 13.6 -2.5
v 2.8 13.6 -2.5
v 2.8 13.6 -2.6
v 2.7 13.5 -2.5
v 2.7 13.5 -2.6
v 2.8 13.5 -2.6
v 2.8 13.5 -2.5
v 2.7 13.6 -2.5
v 2.7 13.5 -2.5
v 2.8 13.5 -2.5
v 2.8 13.6 -2.5
v 2.8 13.6 -2.6
v 2.8 13.5 -2.6
v 2.7 13.5 -2.6
v 2.7 13.6 -2.6
v 1.3 13.5 -2.6
v 1.3 13.4 -2.6
v 1.3 13.4 -2.5
v 1.3 13.5 -2.5
v 1.4 13.5 -2.5
v 1.4 13.4 -2.5
v 1.4 13.4 -2.6
v 1.4 13.5 -2.6
v 1.3 13.5 -2.5
v 1.3 13.4 -2.5
v 1.4 13.4 -2.5
v 1.4 13.5 -2.5
v 1.4 13.5 -2.6
v 1.4 13.4 -2.6
v 1.3 13.4 -2.6
v 1.3 13.5 -2.6
v 2.3 13.5 -2.6
v 2.3 13.4 -2.6
v 2.3 13.4 -2.5
v 2.3 13.5 -2.5
v 2.4 13.5 -2.5
v 2.4 13.4 -2.5
v 2.4 13.4 -2.6
v 2.4 13.5 -2.6
v 2.3 13.5 -2.5
v 2.3 13.4 -2.5
v 2.4 13.4 -2.5
v 2.4 13.5 -2.5
v 2.4 13.5 -2.6
v 2.4 13.4 -2.6
v 2.3 13.4 -2.6
v 2.3 13.5 -2.6
v 1.2 13.4 -2.6
v 1.2 13.3 -2.6
v 1.2 13.3 -2.5
v 1.2 13.4 -2.5
v 1.2 13.4 -2.6
v 1.2 13.4 -2.5
v 1.3 13.4 -2.5
v 1.3 13.4 -2.6
v 1.2 13.4 -2.5
v 1.2 13.3 -2.5
v 1.3 13.3 -2.5
v 1.3 13.4 -2.5
v 1.3 13.4 -2.6
v 1.3 13.3 -2.6
v 1.2 13.3 -2.6
v 1.2 13.4 -2.6
v 1.4 13.4 -2.5
v 1.4 13.3 -2.5
v 1.4 13.3 -2.6
v 1.4 13.4 -2.6
v 1.3 13.3 -2.5
v 1.3 13.3 -2.6
v 1.4 13.3 -2.6
v 1.4 13.3 -2.5
v 1.3 13.4 -2.5
v 1.3 13.3 -2.5
v 1.4 13.3 -2.5
v 1.4 13.4 -2.5
v 1.4 13.4 -2.6
v 1.4 13.3 -2.6
v 1.3 13.3 -2.6
v 1.3 13.4 -2.6
v 2.3 13.4 -2.6
v 2.3 13.3 -2.6
v 2.3 13.3 -2.5
v 2.3 13.4 -2.5
v 2.3 13.3 -2.5
v 2.3 13.3 -2.6
v 2.4 13.3 -2.6
v 2.4 13.3 -2.5
v 2.3 13.4 -2.5
v 2.3 13.3 -2.5
v 2.4 13.3 -2.5
v 2.4 13.4 -2.5
v 2.4 13.4 -2.6
v 2.4 13.3 -2.6
v 2.3 13.3 -2.6
v 2.3 13.4 -2.6
v 2.5 13.4 -2.5
v 2.5 13.3 -2.5
v 2.5 13.3 -2.6
v 2.5 13.4 -2.6
v 2.4 13.4 -2.6
v 2.4 13.4 -2.5
v 2.5 13.4 -2.5
v 2.5 13.4 -2.6
v 2.4 13.3 -2.5
v 2.4 13.3 -2.6
v 2.5 13.3 -2.6
v 2.5 13.3 -2.5
v 2.4 13.4 -2.5
v 2.4 13.3 -2.5
v 2.5 13.3 -2.5
v 2.5 13.4 -2.5
v 2.5 13.4 -2.6
v 2.5 13.3 -2.6
v 2.4 13.3 -2.6
v 2.4 13.4 -2.6
v 14.2 13.4 -2.6
v 14.2 13.3 -2.6
v 14.2 13.3 -2.5
v 14.2 13.4 -2.5
v 14.3 13.4 -2.5
v 14.3 13.3 -2.5
v 14.3 13.3 -2.6
v 14.3 13.4 -2.6
v 14.2 13.4 -2.6
v 14.2 13.4 -2.5
v 14.3 13.4 -2.5
v 14.3 13.4 -2.6
v 14.2 13.3 -2.5
v 14.2 13.3 -2.6
v 14.3 13.3 -2.6
v 14.3 13.3 -2.5
v 14.2 13.4 -2.5
v 14.2 13.3 -2.5
v 14.3 13.3 -2.5
v 14.3 13.4 -2.5
v 14.3 13.4 -2.6
v 14.3 13.3 -2.6
v 14.2 13.3 -2.6
v 14.2 13.4 -2.6
v 1.2 13.3 -2.6
v 1.2 13.2 -2.6
v 1.2 13.2 -2.5
v 1.2 13.3 -2.5
v 1.3 13.3 -2.5
v 1.3 13.2 -2.5
v 1.3 13.2 -2.6
v 1.3 13.3 -2.6
v 1.2 13.3 -2.5
v 1.2 13.2 -2.5
v 1.3 13.2 -2.5
v 1.3 13.3 -2.5
v 1.3 13.3 -2.6
v 1.3 13.2 -2.6
v 1.2 13.2 -2.6
v 1.2 13.3 -2.6
v 2.6 13.3 -2.6
v 2.6 13.2 -2.6
v 2.6 13.2 -2.5
v 2.6 13.3 -2.5
v 2.7 13.3 -2.5
v 2.7 13.2 -2.5
v 2.7 13.2 -2.6
v 2.7 13.3 -2.6
v 2.6 13.3 -2.6
v 2.6 13.3 -2.5
v 2.7 13.3 -2.5
v 2.7 13.3 -2.6
v 2.6 13.2 -2.5
v 2.6 13.2 -2.6
v 2.7 13.2 -2.6
v 2.7 13.2 -2.5
v 2.6 13.3 -2.5
v 2.6 13.2 -2.5
v 2.7 13.2 -2.5
v 2.7 13.3 -2.5
v 2.7 13.3 -2.6
v 2.7 13.2 -2.6
v 2.6 13.2 -2.6
v 2.6 13.3 -2.6
v 14.3 13.3 -2.6
v 14.3 13.2 -2.6
v 14.3 13.2 -2.5
v 14.3 13.3 -2.5
v 14.4 13.3 -2.5
v 14.4 13.2 -2.5
v 14.4 13.2 -2.6
v 14.4 13.3 -2.6
v 14.3 13.3 -2.6
v 14.3 13.3 -2.5
v 14.4 13.3 -2.5
v 14.4 13.3 -2.6
v 14.3 13.2 -2.5
v 14.3 13.2 -2.6
v 14.4 13.2 -2.6
v 14.4 13.2 -2.5
v 14.3 13.3 -2.5
v 14.3 13.2 -2.5
v 14.4 13.2 -2.5
v 14.4 13.3 -2.5
v 14.4 13.3 -2.6
v 14.4 13.2 -2.6
v 14.3 13.2 -2.6
v 14.3 13.3 -2.6
v 1.2 13.2 -2.6
v 1.2 13.1 -2.6
v 1.2 13.1 -2.5
v 1.2 13.2 -2.5
v 1.3 13.2 -2.5
v 1.3 13.1 -2.5
v 1.3 13.1 -2.6
v 1.3 13.2 -2.6
v 1.2 13.2 -2.5
v 1.2 13.1 -2.5
v 1.3 13.1 -2.5
v 1.3 13.2 -2.5
v 1.3 13.2 -2.6
v 1.3 13.1 -2.6
v 1.2 13.1 -2.6
v 1.2 13.2 -2.6
v 14.1 13.2 -2.6
v 14.1 13.1 -2.6
v 14.1 13.1 -2.5
v 14.1 13.2 -2.5
v 14.1 13.2 -2.6
v 14.1 13.2 -2.5
v 14.2 13.2 -2.5
v 14.2 13.2 -2.6
v 14.1 13.1 -2.5
v 14.1 13.1 -2.6
v 14.2 13.1 -2.6
v 14.2 13.1 -2.5
v 14.1 13.2 -2.5
v 14.1 13.1 -2.5
v 14.2 13.1 -2.5
v 14.2 13.2 -2.5
v 14.2 13.2 -2.6
v 14.2 13.1 -2.6
v 14.1 13.1 -2.6
v 14.1 13.2 -2.6
v 14.3 13.2 -2.5
v 14.3 13.1 -2.5
v 14.3 13.1 -2.6
v 14.3 13.2 -2.6
v 14.2 13.2 -2.6
v 14.2 13.2 -2.5
v 14.3 13.2 -2.5
v 14.3 13.2 -2.6
v 14.2 13.1 -2.5
v 14.2 13.1 -2.6
v 14.3 13.1 -2.6
v 14.3 13.1 -2.5
v 14.2 13.2 -2.5
v 14.2 13.1 -2.5
v 14.3 13.1 -2.5
v 14.3 13.2 -2.5
v 14.3 13.2 -2.6
v 14.3 13.1 -2.6
v 14.2 13.1 -2.6
v 14.2 13.2 -2.6
v 1.2 13.1 -2.6
v 1.2 13 -2.6
v 1.2 13 -2.5
v 1.2 13.1 -2.5
v 1.3 13.1 -2.5
v 1.3 13 -2.5
v 1.3 13 -2.6
v 1.3 13.1 -2.6
v 1.2 13 -2.5
v 1.2 13 -2.6
v 1.3 13 -2.6
v 1.3 13 -2.5
v 1.2 13.1 -2.5
v 1.2 13 -2.5
v 1.3 13 -2.5
v 1.3 13.1 -2.5
v 1.3 13.1 -2.6
v 1.3 13 -2.6
v 1.2 13 -2.6
v 1.2 13.1 -2.6
v 14 13.1 -2.6
v 14 13 -2.6
v 14 13 -2.5
v 14 13.1 -2.5
v 14.1 13.1 -2.5
v 14.1 13 -2.5
v 14.1 13 -2.6
v 14.1 13.1 -2.6
v 14 13.1 -2.6
v 14 13.1 -2.5
v 14.1 13.1 -2.5
v 14.1 13.1 -2.6
v 14 13 -2.5
v 14 13 -2.6
v 14.1 13 -2.6
v 14.1 13 -2.5
v 14 13.1 -2.5
v 14 13 -2.5
v 14.1 13 -2.5
v 14.1 13.1 -2.5
v 14.1 13.1 -2.6
v 14.1 13 -2.6
v 14 13 -2.6
v 14 13.1 -2.6
v 13.7 13 -2.6
v 13.7 12.9 -2.6
v 13.7 12.9 -2.5
v 13.7 13 -2.5
v 13.7 13 -2.6
v 13.7 13 -2.5
v 13.8 13 -2.5
v 13.8 13 -2.6
v 13.7 13 -2.5
v 13.7 12.9 -2.5
v 13.8 12.9 -2.5
v 13.8 13 -2.5
v 13.8 13 -2.6
v 13.8 12.9 -2.6
v 13.7 12.9 -2.6
v 13.7 13 -2.6
v 13.9 13 -2.5
v 13.9 12.9 -2.5
v 13.9 12.9 -2.6
v 13.9 13 -2.6
v 13.8 13 -2.6
v 13.8 13 -2.5
v 13.9 13 -2.5
v 13.9 13 -2.6
v 13.8 13 -2.5
v 13.8 12.9 -2.5
v 13.9 12.9 -2.5
v 13.9 13 -2.5
v 13.9 13 -2.6
v 13.9 12.9 -2.6
v 13.8 12.9 -2.6
v 13.8 13 -2.6
v 14.1 13 -2.6
v 14.1 12.9 -2.6
v 14.1 12.9 -2.5
v 14.1 13 -2.5
v 14.2 13 -2.5
v 14.2 12.9 -2.5
v 14.2 12.9 -2.6
v 14.2 13 -2.6
v 14.1 13 -2.6
v 14.1 13 -2.5
v 14.2 13 -2.5
v 14.2 13 -2.6
v 14.1 12.9 -2.5
v 14.1 12.9 -2.6
v 14.2 12.9 -2.6
v 14.2 12.9 -2.5
v 14.1 13 -2.5
v 14.1 12.9 -2.5
v 14.2 12.9 -2.5
v 14.2 13 -2.5
v 14.2 13 -2.6
v 14.2 12.9 -2.6
v 14.1 12.9 -2.6
v 14.1 13 -2.6
v 13.6 12.9 -2.6
v 13.6 12.8 -2.6
v 13.6 12.8 -2.5
v 13.6 12.9 -2.5
v 13.6 12.9 -2.6
v 13.6 12.9 -2.5
v 13.7 12.9 -2.5
v 13.7 12.9 -2.6
v 13.6 12.9 -2.5
v 13.6 12.8 -2.5
v 13.7 12.8 -2.5
v 13.7 12.9 -2.5
v 13.7 12.9 -2.6
v 13.7 12.8 -2.6
v 13.6 12.8 -2.6
v 13.6 12.9 -2.6
v 13.7 12.9 -2.5
v 13.7 12.8 -2.5
v 13.8 12.8 -2.5
v 13.8 12.9 -2.5
v 13.8 12.9 -2.6
v 13.8 12.8 -2.6
v 13.7 12.8 -2.6
v 13.7 12.9 -2.6
v 13.9 12.9 -2.5
v 13.9 12.8 -2.5
v 13.9 12.8 -2.6
v 13.9 12.9 -2.6
v 13.8 12.9 -2.5
v 13.8 12.8 -2.5
v 13.9 12.8 -2.5
v 13.9 12.9 -2.5
v 13.9 12.9 -2.6
v 13.9 12.8 -2.6
v 13.8 12.8 -2.6
v 13.8 12.9 -2.6
v 14 12.9 -2.6
v 14 12.8 -2.6
v 14 12.8 -2.5
v 14 12.9 -2.5
v 14.1 12.9 -2.5
v 14.1 12.8 -2.5
v 14.1 12.8 -2.6
v 14.1 12.9 -2.6
v 14 12.9 -2.6
v 14 12.9 -2.5
v 14.1 12.9 -2.5
v 14.1 12.9 -2.6
v 14 12.8 -2.5
v 14 12.8 -2.6
v 14.1 12.8 -2.6
v 14.1 12.8 -2.5
v 14 12.9 -2.5
v 14 12.8 -2.5
v 14.1 12.8 -2.5
v 14.1 12.9 -2.5
v 14.1 12.9 -2.6
v 14.1 12.8 -2.6
v 14 12.8 -2.6
v 14 12.9 -2.6
v 13.4 12.8 -2.6
v 13.4 12.7 -2.6
v 13.4 12.7 -2.5
v 13.4 12.8 -2.5
v 13.4 12.8 -2.6
v 13.4 12.8 -2.5
v 13.5 12.8 -2.5
v 13.5 12.8 -2.6
v 13.4 12.8 -2.5
v 13.4 12.7 -2.5
v 13.5 12.7 -2.5
v 13.5 12.8 -2.5
v 13.5 12.8 -2.6
v 13.5 12.7 -2.6
v 13.4 12.7 -2.6
v 13.4 12.8 -2.6
v 13.5 12.8 -2.6
v 13.5 12.8 -2.5
v 13.6 12.8 -2.5
v 13.6 12.8 -2.6
v 13.5 12.8 -2.5
v 13.5 12.7 -2.5
v 13.6 12.7 -2.5
v 13.6 12.8 -2.5
v 13.6 12.8 -2.6
v 13.6 12.7 -2.6
v 13.5 12.7 -2.6
v 13.5 12.8 -2.6
v 13.6 12.8 -2.5
v 13.6 12.7 -2.5
v 13.7 12.7 -2.5
v 13.7 12.8 -2.5
v 13.7 12.8 -2.6
v 13.7 12.7 -2.6
v 13.6 12.7 -2.6
v 13.6 12.8 -2.6
v 13.7 12.8 -2.5
v 13.7 12.7 -2.5
v 13.8 12.7 -2.5
v 13.8 12.8 -2.5
v 13.8 12.8 -2.6
v 13.8 12.7 -2.6
v 13.7 12.7 -2.6
v 13.7 12.8 -2.6
v 13.9 12.8 -2.5
v 13.9 12.7 -2.5
v 13.9 12.7 -2.6
v 13.9 12.8 -2.6
v 13.8 12.7 -2.5
v 13.8 12.7 -2.6
v 13.9 12.7 -2.6
v 13.9 12.7 -2.5
v 13.8 12.8 -2.5
v 13.8 12.7 -2.5
v 13.9 12.7 -2.5
v 13.9 12.8 -2.5
v 13.9 12.8 -2.6
v 13.9 12.7 -2.6
v 13.8 12.7 -2.6
v 13.8 12.8 -2.6
v 13.3 12.7 -2.6
v 13.3 12.6 -2.6
v 13.3 12.6 -2.5
v 13.3 12.7 -2.5
v 13.3 12.7 -2.6
v 13.3 12.7 -2.5
v 13.4 12.7 -2.5
v 13.4 12.7 -2.6
v 13.3 12.7 -2.5
v 13.3 12.6 -2.5
v 13.4 12.6 -2.5
v 13.4 12.7 -2.5
v 13.4 12.7 -2.6
v 13.4 12.6 -2.6
v 13.3 12.6 -2.6
v 13.3 12.7 -2.6
v 13.4 12.7 -2.5
v 13.4 12.6 -2.5
v 13.5 12.6 -2.5
v 13.5 12.7 -2.5
v 13.5 12.7 -2.6
v 13.5 12.6 -2.6
v 13.4 12.6 -2.6
v 13.4 12.7 -2.6
v 13.5 12.7 -2.5
v 13.5 12.6 -2.5
v 13.6 12.6 -2.5
v 13.6 12.7 -2.5
v 13.6 12.7 -2.6
v 13.6 12.6 -2.6
v 13.5 12.6 -2.6
v 13.5 12.7 -2.6
v 13.6 12.7 -2.5
v 13.6 12.6 -2.5
v 13.7 12.6 -2.5
v 13.7 12.7 -2.5
v 13.7 12.7 -2.6
v 13.7 12.6 -2.6
v 13.6 12.6 -2.6
v 13.6 12.7 -2.6
v 13.8 12.7 -2.5
v 13.8 12.6 -2.5
v 13.8 12.6 -2.6
v 13.8 12.7 -2.6
v 13.7 12.7 -2.5
v 13.7 12.6 -2.5
v 13.8 12.6 -2.5
v 13.8 12.7 -2.5
v 13.8 12.7 -2.6
v 13.8 12.6 -2.6
v 13.7 12.6 -2.6
v 13.7 12.7 -2.6
v 13.2 12.6 -2.6
v 13.2 12.5 -2.6
v 13.2 12.5 -2.5
v 13.2 12.6 -2.5
v 13.2 12.6 -2.6
v 13.2 12.6 -2.5
v 13.3 12.6 -2.5
v 13.3 12.6 -2.6
v 13.2 12.6 -2.5
v 13.2 12.5 -2.5
v 13.3 12.5 -2.5
v 13.3 12.6 -2.5
v 13.3 12.6 -2.6
v 13.3 12.5 -2.6
v 13.2 12.5 -2.6
v 13.2 12.6 -2.6
v 13.3 12.6 -2.5
v 13.3 12.5 -2.5
v 13.4 12.5 -2.5
v 13.4 12.6 -2.5
v 13.4 12.6 -2.6
v 13.4 12.5 -2.6
v 13.3 12.5 -2.6
v 13.3 12.6 -2.6
v 13.4 12.6 -2.5
v 13.4 12.5 -2.5
v 13.5 12.5 -2.5
v 13.5 12.6 -2.5
v 13.5 12.6 -2.6
v 13.5 12.5 -2.6
v 13.4 12.5 -2.6
v 13.4 12.6 -2.6
v 13.5 12.6 -2.5
v 13.5 12.5 -2.5
v 13.6 12.5 -2.5
v 13.6 12.6 -2.5
v 13.6 12.6 -2.6
v 13.6 12.5 -2.6
v 13.5 12.5 -2.6
v 13.5 12.6 -2.6
v 13.6 12.5 -2.5
v 13.6 12.5 -2.6
v 13.7 12.5 -2.6
v 13.7 12.5 -2.5
v 13.6 12.6 -2.5
v 13.6 12.5 -2.5
v 13.7 12.5 -2.5
v 13.7 12.6 -2.5
v 13.7 12.6 -2.6
v 13.7 12.5 -2.6
v 13.6 12.5 -2.6
v 13.6 12.6 -2.6
v 13.8 12.6 -2.5
v 13.8 12.5 -2.5
v 13.8 12.5 -2.6
v 13.8 12.6 -2.6
v 13.7 12.5 -2.5
v 13.7 12.5 -2.6
v 13.8 12.5 -2.6
v 13.8 12.5 -2.5
v 13.7 12.6 -2.5
v 13.7 12.5 -2.5
v 13.8 12.5 -2.5
v 13.8 12.6 -2.5
v 13.8 12.6 -2.6
v 13.8 12.5 -2.6
v 13.7 12.5 -2.6
v 13.7 12.6 -2.6
v 13.9 12.6 -2.6
v 13.9 12.5 -2.6
v 13.9 12.5 -2.5
v 13.9 12.6 -2.5
v 14 12.6 -2.5
v 14 12.5 -2.5
v 14 12.5 -2.6
v 14 12.6 -2.6
v 13.9 12.6 -2.6
v 13.9 12.6 -2.5
v 14 12.6 -2.5
v 14 12.6 -2.6
v 13.9 12.5 -2.5
v 13.9 12.5 -2.6
v 14 12.5 -2.6
v 14 12.5 -2.5
v 13.9 12.6 -2.5
v 13.9 12.5 -2.5
v 14 12.5 -2.5
v 14 12.6 -2.5
v 14 12.6 -2.6
v 14 12.5 -2.6
v 13.9 12.5 -2.6
v 13.9 12.6 -2.6
v 13.2 12.5 -2.6
v 13.2 12.4 -2.6
v 13.2 12.4 -2.5
v 13.2 12.5 -2.5
v 13.2 12.5 -2.5
v 13.2 12.4 -2.5
v 13.3 12.4 -2.5
v 13.3 12.5 -2.5
v 13.3 12.5 -2.6
v 13.3 12.4 -2.6
v 13.2 12.4 -2.6
v 13.2 12.5 -2.6
v 13.3 12.5 -2.5
v 13.3 12.4 -2.5
v 13.4 12.4 -2.5
v 13.4 12.5 -2.5
v 13.4 12.5 -2.6
v 13.4 12.4 -2.6
v 13.3 12.4 -2.6
v 13.3 12.5 -2.6
v 13.4 12.5 -2.5
v 13.4 12.4 -2.5
v 13.5 12.4 -2.5
v 13.5 12.5 -2.5
v 13.5 12.5 -2.6
v 13.5 12.4 -2.6
v 13.4 12.4 -2.6
v 13.4 12.5 -2.6
v 13.6 12.5 -2.5
v 13.6 12.4 -2.5
v 13.6 12.4 -2.6
v 13.6 12.5 -2.6
v 13.5 12.5 -2.5
v 13.5 12.4 -2.5
v 13.6 12.4 -2.5
v 13.6 12.5 -2.5
v 13.6 12.5 -2.6
v 13.6 12.4 -2.6
v 13.5 12.4 -2.6
v 13.5 12.5 -2.6
v 13.8 12.5 -2.6
v 13.8 12.4 -2.6
v 13.8 12.4 -2.5
v 13.8 12.5 -2.5
v 13.9 12.5 -2.5
v 13.9 12.4 -2.5
v 13.9 12.4 -2.6
v 13.9 12.5 -2.6
v 13.8 12.5 -2.6
v 13.8 12.5 -2.5
v 13.9 12.5 -2.5
v 13.9 12.5 -2.6
v 13.8 12.5 -2.5
v 13.8 12.4 -2.5
v 13.9 12.4 -2.5
v 13.9 12.5 -2.5
v 13.9 12.5 -2.6
v 13.9 12.4 -2.6
v 13.8 12.4 -2.6
v 13.8 12.5 -2.6
v 12.8 12.4 -2.6
v 12.8 12.3 -2.6
v 12.8 12.3 -2.5
v 12.8 12.4 -2.5
v 12.9 12.4 -2.5
v 12.9 12.3 -2.5
v 12.9 12.3 -2.6
v 12.9 12.4 -2.6
v 12.8 12.4 -2.6
v 12.8 12.4 -2.5
v 12.9 12.4 -2.5
v 12.9 12.4 -2.6
v 12.8 12.3 -2.5
v 12.8 12.3 -2.6
v 12.9 12.3 -2.6
v 12.9 12.3 -2.5
v 12.8 12.4 -2.5
v 12.8 12.3 -2.5
v 12.9 12.3 -2.5
v 12.9 12.4 -2.5
v 12.9 12.4 -2.6
v 12.9 12.3 -2.6
v 12.8 12.3 -2.6
v 12.8 12.4 -2.6
v 13.1 12.4 -2.6
v 13.1 12.3 -2.6
v 13.1 12.3 -2.5
v 13.1 12.4 -2.5
v 13.1 12.4 -2.6
v 13.1 12.4 -2.5
v 13.2 12.4 -2.5
v 13.2 12.4 -2.6
v 13.1 12.4 -2.5
v 13.1 12.3 -2.5
v 13.2 12.3 -2.5
v 13.2 12.4 -2.5
v 13.2 12.4 -2.6
v 13.2 12.3 -2.6
v 13.1 12.3 -2.6
v 13.1 12.4 -2.6
v 13.2 12.3 -2.5
v 13.2 12.3 -2.6
v 13.3 12.3 -2.6
v 13.3 12.3 -2.5
v 13.2 12.4 -2.5
v 13.2 12.3 -2.5
v 13.3 12.3 -2.5
v 13.3 12.4 -2.5
v 13.3 12.4 -2.6
v 13.3 12.3 -2.6
v 13.2 12.3 -2.6
v 13.2 12.4 -2.6
v 13.3 12.3 -2.5
v 13.3 12.3 -2.6
v 13.4 12.3 -2.6
v 13.4 12.3 -2.5
v 13.3 12.4 -2.5
v 13.3 12.3 -2.5
v 13.4 12.3 -2.5
v 13.4 12.4 -2.5
v 13.4 12.4 -2.6
v 13.4 12.3 -2.6
v 13.3 12.3 -2.6
v 13.3 12.4 -2.6
v 13.4 12.3 -2.5
v 13.4 12.3 -2.6
v 13.5 12.3 -2.6
v 13.5 12.3 -2.5
v 13.4 12.4 -2.5
v 13.4 12.3 -2.5
v 13.5 12.3 -2.5
v 13.5 12.4 -2.5
v 13.5 12.4 -2.6
v 13.5 12.3 -2.6
v 13.4 12.3 -2.6
v 13.4 12.4 -2.6
v 13.6 12.4 -2.5
v 13.6 12.3 -2.5
v 13.6 12.3 -2.6
v 13.6 12.4 -2.6
v 13.5 12.4 -2.5
v 13.5 12.3 -2.5
v 13.6 12.3 -2.5
v 13.6 12.4 -2.5
v 13.6 12.4 -2.6
v 13.6 12.3 -2.6
v 13.5 12.3 -2.6
v 13.5 12.4 -2.6
v 13.7 12.4 -2.6
v 13.7 12.3 -2.6
v 13.7 12.3 -2.5
v 13.7 12.4 -2.5
v 13.7 12.4 -2.6
v 13.7 12.4 -2.5
v 13.8 12.4 -2.5
v 13.8 12.4 -2.6
v 13.7 12.4 -2.5
v 13.7 12.3 -2.5
v 13.8 12.3 -2.5
v 13.8 12.4 -2.5
v 13.8 12.4 -2.6
v 13.8 12.3 -2.6
v 13.7 12.3 -2.6
v 13.7 12.4 -2.6
v 13.9 12.4 -2.5
v 13.9 12.3 -2.5
v 13.9 12.3 -2.6
v 13.9 12.4 -2.6
v 13.8 12.3 -2.5
v 13.8 12.3 -2.6
v 13.9 12.3 -2.6
v 13.9 12.3 -2.5
v 13.8 12.4 -2.5
v 13.8 12.3 -2.5
v 13.9 12.3 -2.5
v 13.9 12.4 -2.5
v 13.9 12.4 -2.6
v 13.9 12.3 -2.6
v 13.8 12.3 -2.6
v 13.8 12.4 -2.6
v 13 12.3 -2.6
v 13 12.2 -2.6
v 13 12.2 -2.5
v 13 12.3 -2.5
v 13 12.3 -2.6
v 13 12.3 -2.5
v 13.1 12.3 -2.5
v 13.1 12.3 -2.6
v 13 12.2 -2.5
v 13 12.2 -2.6
v 13.1 12.2 -2.6
v 13.1 12.2 -2.5
v 13 12.3 -2.5
v 13 12.2 -2.5
v 13.1 12.2 -2.5
v 13.1 12.3 -2.5
v 13.1 12.3 -2.6
v 13.1 12.2 -2.6
v 13 12.2 -2.6
v 13 12.3 -2.6
v 13.2 12.3 -2.5
v 13.2 12.2 -2.5
v 13.2 12.2 -2.6
v 13.2 12.3 -2.6
v 13.1 12.2 -2.5
v 13.1 12.2 -2.6
v 13.2 12.2 -2.6
v 13.2 12.2 -2.5
v 13.1 12.3 -2.5
v 13.1 12.2 -2.5
v 13.2 12.2 -2.5
v 13.2 12.3 -2.5
v 13.2 12.3 -2.6
v 13.2 12.2 -2.6
v 13.1 12.2 -2.6
v 13.1 12.3 -2.6
v 13.5 12.3 -2.6
v 13.5 12.2 -2.6
v 13.5 12.2 -2.5
v 13.5 12.3 -2.5
v 13.6 12.3 -2.5
v 13.6 12.2 -2.5
v 13.6 12.2 -2.6
v 13.6 12.3 -2.6
v 13.5 12.2 -2.5
v 13.5 12.2 -2.6
v 13.6 12.2 -2.6
v 13.6 12.2 -2.5
v 13.5 12.3 -2.5
v 13.5 12.2 -2.5
v 13.6 12.2 -2.5
v 13.6 12.3 -2.5
v 13.6 12.3 -2.6
v 13.6 12.2 -2.6
v 13.5 12.2 -2.6
v 13.5 12.3 -2.6
v 13.7 12.3 -2.6
v 13.7 12.2 -2.6
v 13.7 12.2 -2.5
v 13.7 12.3 -2.5
v 13.8 12.3 -2.5
v 13.8 12.2 -2.5
v 13.8 12.2 -2.6
v 13.8 12.3 -2.6
v 13.7 12.2 -2.5
v 13.7 12.2 -2.6
v 13.8 12.2 -2.6
v 13.8 12.2 -2.5
v 13.7 12.3 -2.5
v 13.7 12.2 -2.5
v 13.8 12.2 -2.5
v 13.8 12.3 -2.5
v 13.8 12.3 -2.6
v 13.8 12.2 -2.6
v 13.7 12.2 -2.6
v 13.7 12.3 -2.6

# faces
f 1/1/1 2/1/1 3/1/1 4/1/1
f 5/1/2 6/1/2 7/1/2 8/1/2
f 9/1/3 10/1/3 11/1/3 12/1/3
f 13/1/4 14/1/4 15/1/4 16/1/4
f 17/1/5 18/1/5 19/1/5 20/1/5
f 21/1/6 22/1/6 23/1/6 24/1/6
f 25/1/1 26/1/1 27/1/1 28/1/1
f 29/1/2 30/1/2 31/1/2 32/1/2
f 33/1/3 34/1/3 35/1/3 36/1/3
f 37/1/4 38/1/4 39/1/4 40/1/4
f 41/1/5 42/1/5 43/1/5 44/1/5
f 45/1/6 46/1/6 47/1/6 48/1/6
f 49/1/1 50/1/1 51/1/1 52/1/1
f 53/1/2 54/1/2 55/1/2 56/1/2
f 57/1/3 58/1/3 59/1/3 60/1/3
f 61/1/5 62/1/5 63/1/5 64/1/5
f 65/1/6 66/1/6 67/1/6 68/1/6
f 69/1/1 70/1/1 71/1/1 72/1/1
f 73/1/2 74/1/2 75/1/2 76/1/2
f 77/1/5 78/1/5 79/1/5 80/1/5
f 81/1/6 82/1/6 83/1/6 84/1/6
f 85/1/1 86/1/1 87/1/1 88/1/1
f 89/1/2 90/1/2 91/1/2 92/1/2
f 93/1/5 94/1/5 95/1/5 96/1/5
f 97/1/6 98/1/6 99/1/6 100/1/6
f 101/1/1 102/1/1 103/1/1 104/1/1
f 105/1/2 106/1/2 107/1/2 108/1/2
f 109/1/3 110/1/3 111/1/3 112/1/3
f 113/1/5 114/1/5 115/1/5 116/1/5
f 117/1/6 118/1/6 119/1/6 120/1/6
f 121/1/1 122/1/1 123/1/1 124/1/1
f 125/1/4 126/1/4 127/1/4 128/1/4
f 129/1/5 130/1/5 131/1/5 132/1/5
f 133/1/6 134/1/6 135/1/6 136/1/6
f 137/1/2 138/1/2 139/1/2 140/1/2
f 141/1/3 142/1/3 143/1/3 144/1/3
f 145/1/5 146/1/5 147/1/5 148/1/5
f 149/1/6 150/1/6 151/1/6 152/1/6
f 153/1/1 154/1/1 155/1/1 156/1/1
f 157/1/2 158/1/2 159/1/2 160/1/2
f 161/1/5 162/1/5 163/1/5 164/1/5
f 165/1/6 166/1/6 167/1/6 168/1/6
f 169/1/1 170/1/1 171/1/1 172/1/1
f 173/1/2 174/1/2 175/1/2 176/1/2
f 177/1/5 178/1/5 179/1/5 180/1/5
f 181/1/6 182/1/6 183/1/6 184/1/6
f 185/1/1 186/1/1 187/1/1 188/1/1
f 189/1/2 190/1/2 191/1/2 192/1/2
f 193/1/3 194/1/3 195/1/3 196/1/3
f 197/1/5 198/1/5 199/1/5 200/1/5
f 201/1/6 202/1/6 203/1/6 204/1/6
f 205/1/1 206/1/1 207/1/1 208/1/1
f 209/1/2 210/1/2 211/1/2 212/1/2
f 213/1/4 214/1/4 215/1/4 216/1/4
f 217/1/5 218/1/5 219/1/5 220/1/5
f 221/1/6 222/1/6 223/1/6 224/1/6
f 225/1/1 226/1/1 227/1/1 228/1/1
f 229/1/2 230/1/2 231/1/2 232/1/2
f 233/1/5 234/1/5 235/1/5 236/1/5
f 237/1/6 238/1/6 239/1/6 240/1/6
f 241/1/1 242/1/1 243/1/1 244/1/1
f 245/1/3 246/1/3 247/1/3 248/1/3
f 249/1/4 250/1/4 251/1/4 252/1/4
f 253/1/5 254/1/5 255/1/5 256/1/5
f 257/1/6 258/1/6 259/1/6 260/1/6
f 261/1/3 262/1/3 263/1/3 264/1/3
f 265/1/4 266/1/4 267/1/4 268/1/4
f 269/1/5 270/1/5 271/1/5 272/1/5
f 273/1/6 274/1/6 275/1/6 276/1/6
f 277/1/2 278/1/2 279/1/2 280/1/2
f 281/1/3 282/1/3 283/1/3 284/1/3
f 285/1/4 286/1/4 287/1/4 288/1/4
f 289/1/5 290/1/5 291/1/5 292/1/5
f 293/1/6 294/1/6 295/1/6 296/1/6
f 297/1/1 298/1/1 299/1/1 300/1/1
f 301/1/2 302/1/2 303/1/2 304/1/2
f 305/1/4 306/1/4 307/1/4 308/1/4
f 309/1/5 310/1/5 311/1/5 312/1/5
f 313/1/6 314/1/6 315/1/6 316/1/6
f 317/1/1 318/1/1 319/1/1 320/1/1
f 321/1/4 322/1/4 323/1/4 324/1/4
f 325/1/5 326/1/5 327/1/5 328/1/5
f 329/1/6 330/1/6 331/1/6 332/1/6
f 333/1/2 334/1/2 335/1/2 336/1/2
f 337/1/3 338/1/3 339/1/3 340/1/3
f 341/1/5 342/1/5 343/1/5 344/1/5
f 345/1/6 346/1/6 347/1/6 348/1/6
f 349/1/1 350/1/1 351/1/1 352/1/1
f 353/1/3 354/1/3 355/1/3 356/1/3
f 357/1/5 358/1/5 359/1/5 360/1/5
f 361/1/6 362/1/6 363/1/6 364/1/6
f 365/1/3 366/1/3 367/1/3 368/1/3
f 369/1/4 370/1/4 371/1/4 372/1/4
f 373/1/5 374/1/5 375/1/5 376/1/5
f 377/1/6 378/1/6 379/1/6 380/1/6
f 381/1/2 382/1/2 383/1/2 384/1/2
f 385/1/3 386/1/3 387/1/3 388/1/3
f 389/1/4 390/1/4 391/1/4 392/1/4
f 393/1/5 394/1/5 395/1/5 396/1/5
f 397/1/6 398/1/6 399/1/6 400/1/6
f 401/1/1 402/1/1 403/1/1 404/1/1
f 405/1/3 406/1/3 407/1/3 408/1/3
f 409/1/4 410/1/4 411/1/4 412/1/4
f 413/1/5 414/1/5 415/1/5 416/1/5
f 417/1/6 418/1/6 419/1/6 420/1/6
f 421/1/2 422/1/2 423/1/2 424/1/2
f 425/1/3 426/1/3 427/1/3 428/1/3
f 429/1/5 430/1/5 431/1/5 432/1/5
f 433/1/6 434/1/6 435/1/6 436/1/6
f 437/1/1 438/1/1 439/1/1 440/1/1
f 441/1/2 442/1/2 443/1/2 444/1/2
f 445/1/3 446/1/3 447/1/3 448/1/3
f 449/1/4 450/1/4 451/1/4 452/1/4
f 453/1/5 454/1/5 455/1/5 456/1/5
f 457/1/6 458/1/6 459/1/6 460/1/6
f 461/1/1 462/1/1 463/1/1 464/1/1
f 465/1/4 466/1/4 467/1/4 468/1/4
f 469/1/5 470/1/5 471/1/5 472/1/5
f 473/1/6 474/1/6 475/1/6 476/1/6
f 477/1/3 478/1/3 479/1/3 480/1/3
f 481/1/5 482/1/5 483/1/5 484/1/5
f 485/1/6 486/1/6 487/1/6 488/1/6
f 489/1/2 490/1/2 491/1/2 492/1/2
f 493/1/4 494/1/4 495/1/4 496/1/4
f 497/1/5 498/1/5 499/1/5 500/1/5
f 501/1/6 502/1/6 503/1/6 504/1/6
f 505/1/1 506/1/1 507/1/1 508/1/1
f 509/1/2 510/1/2 511/1/2 512/1/2
f 513/1/3 514/1/3 515/1/3 516/1/3
f 517/1/4 518/1/4 519/1/4 520/1/4
f 521/1/5 522/1/5 523/1/5 524/1/5
f 525/1/6 526/1/6 527/1/6 528/1/6
f 529/1/1 530/1/1 531/1/1 532/1/1
f 533/1/4 534/1/4 535/1/4 536/1/4
f 537/1/5 538/1/5 539/1/5 540/1/5
f 541/1/6 542/1/6 543/1/6 544/1/6
f 545/1/2 546/1/2 547/1/2 548/1/2
f 549/1/3 550/1/3 551/1/3 552/1/3
f 553/1/5 554/1/5 555/1/5 556/1/5
f 557/1/6 558/1/6 559/1/6 560/1/6
f 561/1/1 562/1/1 563/1/1 564/1/1
f 565/1/2 566/1/2 567/1/2 568/1/2
f 569/1/3 570/1/3 571/1/3 572/1/3
f 573/1/4 574/1/4 575/1/4 576/1/4
f 577/1/5 578/1/5 579/1/5 580/1/5
f 581/1/6 582/1/6 583/1/6 584/1/6
f 585/1/1 586/1/1 587/1/1 588/1/1
f 589/1/2 590/1/2 591/1/2 592/1/2
f 593/1/4 594/1/4 595/1/4 596/1/4
f 597/1/5 598/1/5 599/1/5 600/1/5
f 601/1/6 602/1/6 603/1/6 604/1/6
f 605/1/1 606/1/1 607/1/1 608/1/1
f 609/1/2 610/1/2 611/1/2 612/1/2
f 613/1/3 614/1/3 615/1/3 616/1/3
f 617/1/5 618/1/5 619/1/5 620/1/5
f 621/1/6 622/1/6 623/1/6 624/1/6
f 625/1/1 626/1/1 627/1/1 628/1/1
f 629/1/4 630/1/4 631/1/4 632/1/4
f 633/1/5 634/1/5 635/1/5 636/1/5
f 637/1/6 638/1/6 639/1/6 640/1/6
f 641/1/2 642/1/2 643/1/2 644/1/2
f 645/1/3 646/1/3 647/1/3 648/1/3
f 649/1/5 650/1/5 651/1/5 652/1/5
f 653/1/6 654/1/6 655/1/6 656/1/6
f 657/1/1 658/1/1 659/1/1 660/1/1
f 661/1/2 662/1/2 663/1/2 664/1/2
f 665/1/3 666/1/3 667/1/3 668/1/3
f 669/1/4 670/1/4 671/1/4 672/1/4
f 673/1/5 674/1/5 675/1/5 676/1/5
f 677/1/6 678/1/6 679/1/6 680/1/6
f 681/1/1 682/1/1 683/1/1 684/1/1
f 685/1/2 686/1/2 687/1/2 688/1/2
f 689/1/3 690/1/3 691/1/3 692/1/3
f 693/1/4 694/1/4 695/1/4 696/1/4
f 697/1/5 698/1/5 699/1/5 700/1/5
f 701/1/6 702/1/6 703/1/6 704/1/6
f 705/1/1 706/1/1 707/1/1 708/1/1
f 709/1/2 710/1/2 711/1/2 712/1/2
f 713/1/5 714/1/5 715/1/5 716/1/5
f 717/1/6 718/1/6 719/1/6 720/1/6
f 721/1/1 722/1/1 723/1/1 724/1/1
f 725/1/5 726/1/5 727/1/5 728/1/5
f 729/1/6 730/1/6 731/1/6 732/1/6
f 733/1/2 734/1/2 735/1/2 736/1/2
f 737/1/3 738/1/3 739/1/3 740/1/3
f 741/1/5 742/1/5 743/1/5 744/1/5
f 745/1/6 746/1/6 747/1/6 748/1/6
f 749/1/1 750/1/1 751/1/1 752/1/1
f 753/1/2 754/1/2 755/1/2 756/1/2
f 757/1/3 758/1/3 759/1/3 760/1/3
f 761/1/5 762/1/5 763/1/5 764/1/5
f 765/1/6 766/1/6 767/1/6 768/1/6
f 769/1/1 770/1/1 771/1/1 772/1/1
f 773/1/2 774/1/2 775/1/2 776/1/2
f 777/1/3 778/1/3 779/1/3 780/1/3
f 781/1/5 782/1/5 783/1/5 784/1/5
f 785/1/6 786/1/6 787/1/6 788/1/6
f 789/1/1 790/1/1 791/1/1 792/1/1
f 793/1/2 794/1/2 795/1/2 796/1/2
f 797/1/4 798/1/4 799/1/4 800/1/4
f 801/1/5 802/1/5 803/1/5 804/1/5
f 805/1/6 806/1/6 807/1/6 808/1/6
f 809/1/1 810/1/1 811/1/1 812/1/1
f 813/1/4 814/1/4 815/1/4 816/1/4
f 817/1/5 818/1/5 819/1/5 820/1/5
f 821/1/6 822/1/6 823/1/6 824/1/6
f 825/1/2 826/1/2 827/1/2 828/1/2
f 829/1/5 830/1/5 831/1/5 832/1/5
f 833/1/6 834/1/6 835/1/6 836/1/6
f 837/1/1 838/1/1 839/1/1 840/1/1
f 841/1/2 842/1/2 843/1/2 844/1/2
f 845/1/4 846/1/4 847/1/4 848/1/4
f 849/1/5 850/1/5 851/1/5 852/1/5
f 853/1/6 854/1/6 855/1/6 856/1/6
f 857/1/1 858/1/1 859/1/1 860/1/1
f 861/1/2 862/1/2 863/1/2 864/1/2
f 865/1/5 866/1/5 867/1/5 868/1/5
f 869/1/6 870/1/6 871/1/6 872/1/6
f 873/1/1 874/1/1 875/1/1 876/1/1
f 877/1/5 878/1/5 879/1/5 880/1/5
f 881/1/6 882/1/6 883/1/6 884/1/6
f 885/1/2 886/1/2 887/1/2 888/1/2
f 889/1/3 890/1/3 891/1/3 892/1/3
f 893/1/5 894/1/5 895/1/5 896/1/5
f 897/1/6 898/1/6 899/1/6 900/1/6
f 901/1/1 902/1/1 903/1/1 904/1/1
f 905/1/3 906/1/3 907/1/3 908/1/3
f 909/1/4 910/1/4 911/1/4 912/1/4
f 913/1/5 914/1/5 915/1/5 916/1/5
f 917/1/6 918/1/6 919/1/6 920/1/6
f 921/1/2 922/1/2 923/1/2 924/1/2
f 925/1/3 926/1/3 927/1/3 928/1/3
f 929/1/5 930/1/5 931/1/5 932/1/5
f 933/1/6 934/1/6 935/1/6 936/1/6
f 937/1/1 938/1/1 939/1/1 940/1/1
f 941/1/2 942/1/2 943/1/2 944/1/2
f 945/1/5 946/1/5 947/1/5 948/1/5
f 949/1/6 950/1/6 951/1/6 952/1/6
f 953/1/1 954/1/1 955/1/1 956/1/1
f 957/1/4 958/1/4 959/1/4 960/1/4
f 961/1/5 962/1/5 963/1/5 964/1/5
f 965/1/6 966/1/6 967/1/6 968/1/6
f 969/1/2 970/1/2 971/1/2 972/1/2
f 973/1/5 974/1/5 975/1/5 976/1/5
f 977/1/6 978/1/6 979/1/6 980/1/6
f 981/1/1 982/1/1 983/1/1 984/1/1
f 985/1/2 986/1/2 987/1/2 988/1/2
f 989/1/5 990/1/5 991/1/5 992/1/5
f 993/1/6 994/1/6 995/1/6 996/1/6
f 997/1/1 998/1/1 999/1/1 1000/1/1
f 1001/1/5 1002/1/5 1003/1/5 1004/1/5
f 1005/1/6 1006/1/6 1007/1/6 1008/1/6
f 1009/1/2 1010/1/2 1011/1/2 1012/1/2
f 1013/1/3 1014/1/3 1015/1/3 1016/1/3
f 1017/1/5 1018/1/5 1019/1/5 1020/1/5
f 1021/1/6 1022/1/6 1023/1/6 1024/1/6
f 1025/1/1 1026/1/1 1027/1/1 1028/1/1
f 1029/1/2 1030/1/2 1031/1/2 1032/1/2
f 1033/1/3 1034/1/3 1035/1/3 1036/1/3
f 1037/1/4 1038/1/4 1039/1/4 1040/1/4
f 1041/1/5 1042/1/5 1043/1/5 1044/1/5
f 1045/1/6 1046/1/6 1047/1/6 1048/1/6
f 1049/1/1 1050/1/1 1051/1/1 1052/1/1
f 1053/1/2 1054/1/2 1055/1/2 1056/1/2
f 1057/1/5 1058/1/5 1059/1/5 1060/1/5
f 1061/1/6 1062/1/6 1063/1/6 1064/1/6
f 1065/1/1 1066/1/1 1067/1/1 1068/1/1
f 1069/1/2 1070/1/2 1071/1/2 1072/1/2
f 1073/1/5 1074/1/5 1075/1/5 1076/1/5
f 1077/1/6 1078/1/6 1079/1/6 1080/1/6
f 1081/1/1 1082/1/1 1083/1/1 1084/1/1
f 1085/1/4 1086/1/4 1087/1/4 1088/1/4
f 1089/1/5 1090/1/5 1091/1/5 1092/1/5
f 1093/1/6 1094/1/6 1095/1/6 1096/1/6
f 1097/1/2 1098/1/2 1099/1/2 1100/1/2
f 1101/1/4 1102/1/4 1103/1/4 1104/1/4
f 1105/1/5 1106/1/5 1107/1/5 1108/1/5
f 1109/1/6 1110/1/6 1111/1/6 1112/1/6
f 1113/1/1 1114/1/1 1115/1/1 1116/1/1
f 1117/1/2 1118/1/2 1119/1/2 1120/1/2
f 1121/1/3 1122/1/3 1123/1/3 1124/1/3
f 1125/1/4 1126/1/4 1127/1/4 1128/1/4
f 1129/1/5 1130/1/5 1131/1/5 1132/1/5
f 1133/1/6 1134/1/6 1135/1/6 1136/1/6
f 1137/1/1 1138/1/1 1139/1/1 1140/1/1
f 1141/1/2 1142/1/2 1143/1/2 1144/1/2
f 1145/1/5 1146/1/5 1147/1/5 1148/1/5
f 1149/1/6 1150/1/6 1151/1/6 1152/1/6
f 1153/1/1 1154/1/1 1155/1/1 1156/1/1
f 1157/1/2 1158/1/2 1159/1/2 1160/1/2
f 1161/1/4 1162/1/4 1163/1/4 1164/1/4
f 1165/1/5 1166/1/5 1167/1/5 1168/1/5
f 1169/1/6 1170/1/6 1171/1/6 1172/1/6
f 1173/1/1 1174/1/1 1175/1/1 1176/1/1
f 1177/1/2 1178/1/2 1179/1/2 1180/1/2
f 1181/1/3 1182/1/3 1183/1/3 1184/1/3
f 1185/1/4 1186/1/4 1187/1/4 1188/1/4
f 1189/1/5 1190/1/5 1191/1/5 1192/1/5
f 1193/1/6 1194/1/6 1195/1/6 1196/1/6
f 1197/1/1 1198/1/1 1199/1/1 1200/1/1
f 1201/1/2 1202/1/2 1203/1/2 1204/1/2
f 1205/1/3 1206/1/3 1207/1/3 1208/1/3
f 1209/1/4 1210/1/4 1211/1/4 1212/1/4
f 1213/1/5 1214/1/5 1215/1/5 1216/1/5
f 1217/1/6 1218/1/6 1219/1/6 1220/1/6
f 1221/1/1 1222/1/1 1223/1/1 1224/1/1
f 1225/1/3 1226/1/3 1227/1/3 1228/1/3
f 1229/1/5 1230/1/5 1231/1/5 1232/1/5
f 1233/1/6 1234/1/6 1235/1/6 1236/1/6
f 1237/1/2 1238/1/2 1239/1/2 1240/1/2
f 1241/1/5 1242/1/5 1243/1/5 1244/1/5
f 1245/1/6 1246/1/6 1247/1/6 1248/1/6
f 1249/1/1 1250/1/1 1251/1/1 1252/1/1
f 1253/1/2 1254/1/2 1255/1/2 1256/1/2
f 1257/1/3 1258/1/3 1259/1/3 1260/1/3
f 1261/1/5 1262/1/5 1263/1/5 1264/1/5
f 1265/1/6 1266/1/6 1267/1/6 1268/1/6
f 1269/1/1 1270/1/1 1271/1/1 1272/1/1
f 1273/1/3 1274/1/3 1275/1/3 1276/1/3
f 1277/1/4 1278/1/4 1279/1/4 1280/1/4
f 1281/1/5 1282/1/5 1283/1/5 1284/1/5
f 1285/1/6 1286/1/6 1287/1/6 1288/1/6
f 1289/1/5 1290/1/5 1291/1/5 1292/1/5
f 1293/1/6 1294/1/6 1295/1/6 1296/1/6
f 1297/1/2 1298/1/2 1299/1/2 1300/1/2
f 1301/1/5 1302/1/5 1303/1/5 1304/1/5
f 1305/1/6 1306/1/6 1307/1/6 1308/1/6
f 1309/1/1 1310/1/1 1311/1/1 1312/1/1
f 1313/1/3 1314/1/3 1315/1/3 1316/1/3
f 1317/1/5 1318/1/5 1319/1/5 1320/1/5
f 1321/1/6 1322/1/6 1323/1/6 1324/1/6
f 1325/1/2 1326/1/2 1327/1/2 1328/1/2
f 1329/1/4 1330/1/4 1331/1/4 1332/1/4
f 1333/1/5 1334/1/5 1335/1/5 1336/1/5
f 1337/1/6 1338/1/6 1339/1/6 1340/1/6
f 1341/1/1 1342/1/1 1343/1/1 1344/1/1
f 1345/1/5 1346/1/5 1347/1/5 1348/1/5
f 1349/1/6 1350/1/6 1351/1/6 1352/1/6
f 1353/1/2 1354/1/2 1355/1/2 1356/1/2
f 1357/1/4 1358/1/4 1359/1/4 1360/1/4
f 1361/1/5 1362/1/5 1363/1/5 1364/1/5
f 1365/1/6 1366/1/6 1367/1/6 1368/1/6
f 1369/1/1 1370/1/1 1371/1/1 1372/1/1
f 1373/1/2 1374/1/2 1375/1/2 1376/1/2
f 1377/1/3 1378/1/3 1379/1/3 1380/1/3
f 1381/1/4 1382/1/4 1383/1/4 1384/1/4
f 1385/1/5 1386/1/5 1387/1/5 1388/1/5
f 1389/1/6 1390/1/6 1391/1/6 1392/1/6
f 1393/1/1 1394/1/1 1395/1/1 1396/1/1
f 1397/1/2 1398/1/2 1399/1/2 1400/1/2
f 1401/1/5 1402/1/5 1403/1/5 1404/1/5
f 1405/1/6 1406/1/6 1407/1/6 1408/1/6
f 1409/1/1 1410/1/1 1411/1/1 1412/1/1
f 1413/1/2 1414/1/2 1415/1/2 1416/1/2
f 1417/1/5 1418/1/5 1419/1/5 1420/1/5
f 1421/1/6 1422/1/6 1423/1/6 1424/1/6
f 1425/1/1 1426/1/1 1427/1/1 1428/1/1
f 1429/1/3 1430/1/3 1431/1/3 1432/1/3
f 1433/1/5 1434/1/5 1435/1/5 1436/1/5
f 1437/1/6 1438/1/6 1439/1/6 1440/1/6
f 1441/1/2 1442/1/2 1443/1/2 1444/1/2
f 1445/1/4 1446/1/4 1447/1/4 1448/1/4
f 1449/1/5 1450/1/5 1451/1/5 1452/1/5
f 1453/1/6 1454/1/6 1455/1/6 1456/1/6
f 1457/1/1 1458/1/1 1459/1/1 1460/1/1
f 1461/1/4 1462/1/4 1463/1/4 1464/1/4
f 1465/1/5 1466/1/5 1467/1/5 1468/1/5
f 1469/1/6 1470/1/6 1471/1/6 1472/1/6
f 1473/1/2 1474/1/2 1475/1/2 1476/1/2
f 1477/1/3 1478/1/3 1479/1/3 1480/1/3
f 1481/1/4 1482/1/4 1483/1/4 1484/1/4
f 1485/1/5 1486/1/5 1487/1/5 1488/1/5
f 1489/1/6 1490/1/6 1491/1/6 1492/1/6
f 1493/1/1 1494/1/1 1495/1/1 1496/1/1
f 1497/1/2 1498/1/2 1499/1/2 1500/1/2
f 1501/1/3 1502/1/3 1503/1/3 1504/1/3
f 1505/1/4 1506/1/4 1507/1/4 1508/1/4
f 1509/1/5 1510/1/5 1511/1/5 1512/1/5
f 1513/1/6 1514/1/6 1515/1/6 1516/1/6
f 1517/1/1 1518/1/1 1519/1/1 1520/1/1
f 1521/1/2 1522/1/2 1523/1/2 1524/1/2
f 1525/1/5 1526/1/5 1527/1/5 1528/1/5
f 1529/1/6 1530/1/6 1531/1/6 1532/1/6
f 1533/1/1 1534/1/1 1535/1/1 1536/1/1
f 1537/1/2 1538/1/2 1539/1/2 1540/1/2
f 1541/1/3 1542/1/3 1543/1/3 1544/1/3
f 1545/1/4 1546/1/4 1547/1/4 1548/1/4
f 1549/1/5 1550/1/5 1551/1/5 1552/1/5
f 1553/1/6 1554/1/6 1555/1/6 1556/1/6
f 1557/1/1 1558/1/1 1559/1/1 1560/1/1
f 1561/1/2 1562/1/2 1563/1/2 1564/1/2
f 1565/1/3 1566/1/3 1567/1/3 1568/1/3
f 1569/1/4 1570/1/4 1571/1/4 1572/1/4
f 1573/1/5 1574/1/5 1575/1/5 1576/1/5
f 1577/1/6 1578/1/6 1579/1/6 1580/1/6
f 1581/1/1 1582/1/1 1583/1/1 1584/1/1
f 1585/1/2 1586/1/2 1587/1/2 1588/1/2
f 1589/1/5 1590/1/5 1591/1/5 1592/1/5
f 1593/1/6 1594/1/6 1595/1/6 1596/1/6
f 1597/1/1 1598/1/1 1599/1/1 1600/1/1
f 1601/1/3 1602/1/3 1603/1/3 1604/1/3
f 1605/1/4 1606/1/4 1607/1/4 1608/1/4
f 1609/1/5 1610/1/5 1611/1/5 1612/1/5
f 1613/1/6 1614/1/6 1615/1/6 1616/1/6
f 1617/1/2 1618/1/2 1619/1/2 1620/1/2
f 1621/1/3 1622/1/3 1623/1/3 1624/1/3
f 1625/1/4 1626/1/4 1627/1/4 1628/1/4
f 1629/1/5 1630/1/5 1631/1/5 1632/1/5
f 1633/1/6 1634/1/6 1635/1/6 1636/1/6
f 1637/1/1 1638/1/1 1639/1/1 1640/1/1
f 1641/1/2 1642/1/2 1643/1/2 1644/1/2
f 1645/1/4 1646/1/4 1647/1/4 1648/1/4
f 1649/1/5 1650/1/5 1651/1/5 1652/1/5
f 1653/1/6 1654/1/6 1655/1/6 1656/1/6
f 1657/1/1 1658/1/1 1659/1/1 1660/1/1
f 1661/1/2 1662/1/2 1663/1/2 1664/1/2
f 1665/1/3 1666/1/3 1667/1/3 1668/1/3
f 1669/1/4 1670/1/4 1671/1/4 1672/1/4
f 1673/1/5 1674/1/5 1675/1/5 1676/1/5
f 1677/1/6 1678/1/6 1679/1/6 1680/1/6
f 1681/1/1 1682/1/1 1683/1/1 1684/1/1
f 1685/1/3 1686/1/3 1687/1/3 1688/1/3
f 1689/1/5 1690/1/5 1691/1/5 1692/1/5
f 1693/1/6 1694/1/6 1695/1/6 1696/1/6
f 1697/1/2 1698/1/2 1699/1/2 1700/1/2
f 1701/1/3 1702/1/3 1703/1/3 1704/1/3
f 1705/1/5 1706/1/5 1707/1/5 1708/1/5
f 1709/1/6 1710/1/6 1711/1/6 1712/1/6
f 1713/1/1 1714/1/1 1715/1/1 1716/1/1
f 1717/1/2 1718/1/2 1719/1/2 1720/1/2
f 1721/1/3 1722/1/3 1723/1/3 1724/1/3
f 1725/1/4 1726/1/4 1727/1/4 1728/1/4
f 1729/1/5 1730/1/5 1731/1/5 1732/1/5
f 1733/1/6 1734/1/6 1735/1/6 1736/1/6
f 1737/1/1 1738/1/1 1739/1/1 1740/1/1
f 1741/1/3 1742/1/3 1743/1/3 1744/1/3
f 1745/1/5 1746/1/5 1747/1/5 1748/1/5
f 1749/1/6 1750/1/6 1751/1/6 1752/1/6
f 1753/1/5 1754/1/5 1755/1/5 1756/1/5
f 1757/1/6 1758/1/6 1759/1/6 1760/1/6
f 1761/1/2 1762/1/2 1763/1/2 1764/1/2
f 1765/1/5 1766/1/5 1767/1/5 1768/1/5
f 1769/1/6 1770/1/6 1771/1/6 1772/1/6
f 1773/1/1 1774/1/1 1775/1/1 1776/1/1
f 1777/1/2 1778/1/2 1779/1/2 1780/1/2
f 1781/1/3 1782/1/3 1783/1/3 1784/1/3
f 1785/1/4 1786/1/4 1787/1/4 1788/1/4
f 1789/1/5 1790/1/5 1791/1/5 1792/1/5
f 1793/1/6 1794/1/6 1795/1/6 1796/1/6
f 1797/1/1 1798/1/1 1799/1/1 1800/1/1
f 1801/1/3 1802/1/3 1803/1/3 1804/1/3
f 1805/1/5 1806/1/5 1807/1/5 1808/1/5
f 1809/1/6 1810/1/6 1811/1/6 1812/1/6
f 1813/1/3 1814/1/3 1815/1/3 1816/1/3
f 1817/1/5 1818/1/5 1819/1/5 1820/1/5
f 1821/1/6 1822/1/6 1823/1/6 1824/1/6
f 1825/1/5 1826/1/5 1827/1/5 1828/1/5
f 1829/1/6 1830/1/6 1831/1/6 1832/1/6
f 1833/1/5 1834/1/5 1835/1/5 1836/1/5
f 1837/1/6 1838/1/6 1839/1/6 1840/1/6
f 1841/1/2 1842/1/2 1843/1/2 1844/1/2
f 1845/1/4 1846/1/4 1847/1/4 1848/1/4
f 1849/1/5 1850/1/5 1851/1/5 1852/1/5
f 1853/1/6 1854/1/6 1855/1/6 1856/1/6
f 1857/1/1 1858/1/1 1859/1/1 1860/1/1
f 1861/1/3 1862/1/3 1863/1/3 1864/1/3
f 1865/1/5 1866/1/5 1867/1/5 1868/1/5
f 1869/1/6 1870/1/6 1871/1/6 1872/1/6
f 1873/1/5 1874/1/5 1875/1/5 1876/1/5
f 1877/1/6 1878/1/6 1879/1/6 1880/1/6
f 1881/1/5 1882/1/5 1883/1/5 1884/1/5
f 1885/1/6 1886/1/6 1887/1/6 1888/1/6
f 1889/1/5 1890/1/5 1891/1/5 1892/1/5
f 1893/1/6 1894/1/6 1895/1/6 1896/1/6
f 1897/1/2 1898/1/2 1899/1/2 1900/1/2
f 1901/1/5 1902/1/5 1903/1/5 1904/1/5
f 1905/1/6 1906/1/6 1907/1/6 1908/1/6
f 1909/1/1 1910/1/1 1911/1/1 1912/1/1
f 1913/1/3 1914/1/3 1915/1/3 1916/1/3
f 1917/1/5 1918/1/5 1919/1/5 1920/1/5
f 1921/1/6 1922/1/6 1923/1/6 1924/1/6
f 1925/1/5 1926/1/5 1927/1/5 1928/1/5
f 1929/1/6 1930/1/6 1931/1/6 1932/1/6
f 1933/1/5 1934/1/5 1935/1/5 1936/1/5
f 1937/1/6 1938/1/6 1939/1/6 1940/1/6
f 1941/1/5 1942/1/5 1943/1/5 1944/1/5
f 1945/1/6 1946/1/6 1947/1/6 1948/1/6
f 1949/1/4 1950/1/4 1951/1/4 1952/1/4
f 1953/1/5 1954/1/5 1955/1/5 1956/1/5
f 1957/1/6 1958/1/6 1959/1/6 1960/1/6
f 1961/1/2 1962/1/2 1963/1/2 1964/1/2
f 1965/1/4 1966/1/4 1967/1/4 1968/1/4
f 1969/1/5 1970/1/5 1971/1/5 1972/1/5
f 1973/1/6 1974/1/6 1975/1/6 1976/1/6
f 1977/1/1 1978/1/1 1979/1/1 1980/1/1
f 1981/1/2 1982/1/2 1983/1/2 1984/1/2
f 1985/1/3 1986/1/3 1987/1/3 1988/1/3
f 1989/1/4 1990/1/4 1991/1/4 1992/1/4
f 1993/1/5 1994/1/5 1995/1/5 1996/1/5
f 1997/1/6 1998/1/6 1999/1/6 2000/1/6
f 2001/1/1 2002/1/1 2003/1/1 2004/1/1
f 2005/1/5 2006/1/5 2007/1/5 2008/1/5
f 2009/1/6 2010/1/6 2011/1/6 2012/1/6
f 2013/1/5 2014/1/5 2015/1/5 2016/1/5
f 2017/1/6 2018/1/6 2019/1/6 2020/1/6
f 2021/1/5 2022/1/5 2023/1/5 2024/1/5
f 2025/1/6 2026/1/6 2027/1/6 2028/1/6
f 2029/1/2 2030/1/2 2031/1/2 2032/1/2
f 2033/1/5 2034/1/5 2035/1/5 2036/1/5
f 2037/1/6 2038/1/6 2039/1/6 2040/1/6
f 2041/1/1 2042/1/1 2043/1/1 2044/1/1
f 2045/1/2 2046/1/2 2047/1/2 2048/1/2
f 2049/1/3 2050/1/3 2051/1/3 2052/1/3
f 2053/1/5 2054/1/5 2055/1/5 2056/1/5
f 2057/1/6 2058/1/6 2059/1/6 2060/1/6
f 2061/1/1 2062/1/1 2063/1/1 2064/1/1
f 2065/1/2 2066/1/2 2067/1/2 2068/1/2
f 2069/1/3 2070/1/3 2071/1/3 2072/1/3
f 2073/1/4 2074/1/4 2075/1/4 2076/1/4
f 2077/1/5 2078/1/5 2079/1/5 2080/1/5
f 2081/1/6 2082/1/6 2083/1/6 2084/1/6
f 2085/1/1 2086/1/1 2087/1/1 2088/1/1
f 2089/1/3 2090/1/3 2091/1/3 2092/1/3
f 2093/1/5 2094/1/5 2095/1/5 2096/1/5
f 2097/1/6 2098/1/6 2099/1/6 2100/1/6
f 2101/1/4 2102/1/4 2103/1/4 2104/1/4
f 2105/1/5 2106/1/5 2107/1/5 2108/1/5
f 2109/1/6 2110/1/6 2111/1/6 2112/1/6
f 2113/1/4 2114/1/4 2115/1/4 2116/1/4
f 2117/1/5 2118/1/5 2119/1/5 2120/1/5
f 2121/1/6 2122/1/6 2123/1/6 2124/1/6
f 2125/1/4 2126/1/4 2127/1/4 2128/1/4
f 2129/1/5 2130/1/5 2131/1/5 2132/1/5
f 2133/1/6 2134/1/6 2135/1/6 2136/1/6
f 2137/1/2 2138/1/2 2139/1/2 2140/1/2
f 2141/1/5 2142/1/5 2143/1/5 2144/1/5
f 2145/1/6 2146/1/6 2147/1/6 2148/1/6
f 2149/1/1 2150/1/1 2151/1/1 2152/1/1
f 2153/1/3 2154/1/3 2155/1/3 2156/1/3
f 2157/1/5 2158/1/5 2159/1/5 2160/1/5
f 2161/1/6 2162/1/6 2163/1/6 2164/1/6
f 2165/1/2 2166/1/2 2167/1/2 2168/1/2
f 2169/1/4 2170/1/4 2171/1/4 2172/1/4
f 2173/1/5 2174/1/5 2175/1/5 2176/1/5
f 2177/1/6 2178/1/6 2179/1/6 2180/1/6
f 2181/1/1 2182/1/1 2183/1/1 2184/1/1
f 2185/1/3 2186/1/3 2187/1/3 2188/1/3
f 2189/1/4 2190/1/4 2191/1/4 2192/1/4
f 2193/1/5 2194/1/5 2195/1/5 2196/1/5
f 2197/1/6 2198/1/6 2199/1/6 2200/1/6
f 2201/1/2 2202/1/2 2203/1/2 2204/1/2
f 2205/1/4 2206/1/4 2207/1/4 2208/1/4
f 2209/1/5 2210/1/5 2211/1/5 2212/1/5
f 2213/1/6 2214/1/6 2215/1/6 2216/1/6
f 2217/1/1 2218/1/1 2219/1/1 2220/1/1
f 2221/1/2 2222/1/2 2223/1/2 2224/1/2
f 2225/1/4 2226/1/4 2227/1/4 2228/1/4
f 2229/1/5 2230/1/5 2231/1/5 2232/1/5
f 2233/1/6 2234/1/6 2235/1/6 2236/1/6
f 2237/1/1 2238/1/1 2239/1/1 2240/1/1
f 2241/1/2 2242/1/2 2243/1/2 2244/1/2
f 2245/1/4 2246/1/4 2247/1/4 2248/1/4
f 2249/1/5 2250/1/5 2251/1/5 2252/1/5
f 2253/1/6 2254/1/6 2255/1/6 2256/1/6

