# generated by vox_to_obj_exporter
# scale=0.1 center=false ground=false y_up=true

mtllib Fight_710.mtl
usemtl palette

# normals
vn -1 0 0
vn 1 0 0
vn 0 1 0
vn 0 -1 0
vn 0 0 1
vn 0 0 -1

# texcoords
vt 0.025390625 0.5
vt 0.103515625 0.5

# verts
v 2 16 -2.6
v 2 15.9 -2.6
v 2 15.9 -2.5
v 2 16 -2.5
v 2.1 16 -2.5
v 2.1 15.9 -2.5
v 2.1 15.9 -2.6
v 2.1 16 -2.6
v 2 16 -2.6
v 2 16 -2.5
v 2.1 16 -2.5
v 2.1 16 -2.6
v 2 15.9 -2.5
v 2 15.9 -2.6
v 2.1 15.9 -2.6
v 2.1 15.9 -2.5
v 2 16 -2.5
v 2 15.9 -2.5
v 2.1 15.9 -2.5
v 2.1 16 -2.5
v 2.1 16 -2.6
v 2.1 15.9 -2.6
v 2 15.9 -2.6
v 2 16 -2.6
v 2 15.6 -2.6
v 2 15.5 -2.6
v 2 15.5 -2.5
v 2 15.6 -2.5
v 2.1 15.6 -2.5
v 2.1 15.5 -2.5
v 2.1 15.5 -2.6
v 2.1 15.6 -2.6
v 2 15.6 -2.6
v 2 15.6 -2.5
v 2.1 15.6 -2.5
v 2.1 15.6 -2.6
v 2 15.5 -2.5
v 2 15.5 -2.6
v 2.1 15.5 -2.6
v 2.1 15.5 -2.5
v 2 15.6 -2.5
v 2 15.5 -2.5
v 2.1 15.5 -2.5
v 2.1 15.6 -2.5
v 2.1 15.6 -2.6
v 2.1 15.5 -2.6
v 2 15.5 -2.6
v 2 15.6 -2.6
v 1.8 15.5 -2.6
v 1.8 15.4 -2.6
v 1.8 15.4 -2.5
v 1.8 15.5 -2.5
v 1.9 15.5 -2.5
v 1.9 15.4 -2.5
v 1.9 15.4 -2.6
v 1.9 15.5 -2.6
v 1.8 15.5 -2.6
v 1.8 15.5 -2.5
v 1.9 15.5 -2.5
v 1.9 15.5 -2.6
v 1.8 15.5 -2.5
v 1.8 15.4 -2.5
v 1.9 15.4 -2.5
v 1.9 15.5 -2.5
v 1.9 15.5 -2.6
v 1.9 15.4 -2.6
v 1.8 15.4 -2.6
v 1.8 15.5 -2.6
v 2.1 15.5 -2.6
v 2.1 15.4 -2.6
v 2.1 15.4 -2.5
v 2.1 15.5 -2.5
v 2.2 15.5 -2.5
v 2.2 15.4 -2.5
v 2.2 15.4 -2.6
v 2.2 15.5 -2.6
v 2.1 15.5 -2.6
v 2.1 15.5 -2.5
v 2.2 15.5 -2.5
v 2.2 15.5 -2.6
v 2.1 15.5 -2.5
v 2.1 15.4 -2.5
v 2.2 15.4 -2.5
v 2.2 15.5 -2.5
v 2.2 15.5 -2.6
v 2.2 15.4 -2.6
v 2.1 15.4 -2.6
v 2.1 15.5 -2.6
v 1.7 15.4 -2.6
v 1.7 15.3 -2.6
v 1.7 15.3 -2.5
v 1.7 15.4 -2.5
v 1.7 15.4 -2.6
v 1.7 15.4 -2.5
v 1.8 15.4 -2.5
v 1.8 15.4 -2.6
v 1.7 15.4 -2.5
v 1.7 15.3 -2.5
v 1.8 15.3 -2.5
v 1.8 15.4 -2.5
v 1.8 15.4 -2.6
v 1.8 15.3 -2.6
v 1.7 15.3 -2.6
v 1.7 15.4 -2.6
v 1.9 15.4 -2.5
v 1.9 15.3 -2.5
v 1.9 15.3 -2.6
v 1.9 15.4 -2.6
v 1.8 15.3 -2.5
v 1.8 15.3 -2.6
v 1.9 15.3 -2.6
v 1.9 15.3 -2.5
v 1.8 15.4 -2.5
v 1.8 15.3 -2.5
v 1.9 15.3 -2.5
v 1.9 15.4 -2.5
v 1.9 15.4 -2.6
v 1.9 15.3 -2.6
v 1.8 15.3 -2.6
v 1.8 15.4 -2.6
v 2 15.4 -2.6
v 2 15.3 -2.6
v 2 15.3 -2.5
v 2 15.4 -2.5
v 2 15.4 -2.6
v 2 15.4 -2.5
v 2.1 15.4 -2.5
v 2.1 15.4 -2.6
v 2 15.3 -2.5
v 2 15.3 -2.6
v 2.1 15.3 -2.6
v 2.1 15.3 -2.5
v 2 15.4 -2.5
v 2 15.3 -2.5
v 2.1 15.3 -2.5
v 2.1 15.4 -2.5
v 2.1 15.4 -2.6
v 2.1 15.3 -2.6
v 2 15.3 -2.6
v 2 15.4 -2.6
v 2.2 15.4 -2.5
v 2.2 15.3 -2.5
v 2.2 15.3 -2.6
v 2.2 15.4 -2.6
v 2.1 15.4 -2.5
v 2.1 15.3 -2.5
v 2.2 15.3 -2.5
v 2.2 15.4 -2.5
v 2.2 15.4 -2.6
v 2.2 15.3 -2.6
v 2.1 15.3 -2.6
v 2.1 15.4 -2.6
v 1.7 15.3 -2.6
v 1.7 15.2 -2.6
v 1.7 15.2 -2.5
v 1.7 15.3 -2.5
v 1.8 15.3 -2.5
v 1.8 15.2 -2.5
v 1.8 15.2 -2.6
v 1.8 15.3 -2.6
v 1.7 15.2 -2.5
v 1.7 15.2 -2.6
v 1.8 15.2 -2.6
v 1.8 15.2 -2.5
v 1.7 15.3 -2.5
v 1.7 15.2 -2.5
v 1.8 15.2 -2.5
v 1.8 15.3 -2.5
v 1.8 15.3 -2.6
v 1.8 15.2 -2.6
v 1.7 15.2 -2.6
v 1.7 15.3 -2.6
v 2.1 15.3 -2.6
v 2.1 15.2 -2.6
v 2.1 15.2 -2.5
v 2.1 15.3 -2.5
v 2.2 15.3 -2.5
v 2.2 15.2 -2.5
v 2.2 15.2 -2.6
v 2.2 15.3 -2.6
v 2.1 15.3 -2.5
v 2.1 15.2 -2.5
v 2.2 15.2 -2.5
v 2.2 15.3 -2.5
v 2.2 15.3 -2.6
v 2.2 15.2 -2.6
v 2.1 15.2 -2.6
v 2.1 15.3 -2.6
v 2.1 15.2 -2.6
v 2.1 15.1 -2.6
v 2.1 15.1 -2.5
v 2.1 15.2 -2.5
v 2.2 15.2 -2.5
v 2.2 15.1 -2.5
v 2.2 15.1 -2.6
v 2.2 15.2 -2.6
v 2.1 15.2 -2.5
v 2.1 15.1 -2.5
v 2.2 15.1 -2.5
v 2.2 15.2 -2.5
v 2.2 15.2 -2.6
v 2.2 15.1 -2.6
v 2.1 15.1 -2.6
v 2.1 15.2 -2.6
v 2.1 15.1 -2.6
v 2.1 15 -2.6
v 2.1 15 -2.5
v 2.1 15.1 -2.5
v 2.1 15.1 -2.5
v 2.1 15 -2.5
v 2.2 15 -2.5
v 2.2 15.1 -2.5
v 2.2 15.1 -2.6
v 2.2 15 -2.6
v 2.1 15 -2.6
v 2.1 15.1 -2.6
v 2.3 15.1 -2.5
v 2.3 15 -2.5
v 2.3 15 -2.6
v 2.3 15.1 -2.6
v 2.2 15.1 -2.6
v 2.2 15.1 -2.5
v 2.3 15.1 -2.5
v 2.3 15.1 -2.6
v 2.2 15.1 -2.5
v 2.2 15 -2.5
v 2.3 15 -2.5
v 2.3 15.1 -2.5
v 2.3 15.1 -2.6
v 2.3 15 -2.6
v 2.2 15 -2.6
v 2.2 15.1 -2.6
v 0.6 15 -2.6
v 0.6 14.9 -2.6
v 0.6 14.9 -2.5
v 0.6 15 -2.5
v 0.7 15 -2.5
v 0.7 14.9 -2.5
v 0.7 14.9 -2.6
v 0.7 15 -2.6
v 0.6 15 -2.6
v 0.6 15 -2.5
v 0.7 15 -2.5
v 0.7 15 -2.6
v 0.6 15 -2.5
v 0.6 14.9 -2.5
v 0.7 14.9 -2.5
v 0.7 15 -2.5
v 0.7 15 -2.6
v 0.7 14.9 -2.6
v 0.6 14.9 -2.6
v 0.6 15 -2.6
v 2.1 15 -2.6
v 2.1 14.9 -2.6
v 2.1 14.9 -2.5
v 2.1 15 -2.5
v 2.1 14.9 -2.5
v 2.1 14.9 -2.6
v 2.2 14.9 -2.6
v 2.2 14.9 -2.5
v 2.1 15 -2.5
v 2.1 14.9 -2.5
v 2.2 14.9 -2.5
v 2.2 15 -2.5
v 2.2 15 -2.6
v 2.2 14.9 -2.6
v 2.1 14.9 -2.6
v 2.1 15 -2.6
v 2.3 15 -2.5
v 2.3 14.9 -2.5
v 2.3 14.9 -2.6
v 2.3 15 -2.6
v 2.2 15 -2.5
v 2.2 14.9 -2.5
v 2.3 14.9 -2.5
v 2.3 15 -2.5
v 2.3 15 -2.6
v 2.3 14.9 -2.6
v 2.2 14.9 -2.6
v 2.2 15 -2.6
v 0.3 14.9 -2.6
v 0.3 14.8 -2.6
v 0.3 14.8 -2.5
v 0.3 14.9 -2.5
v 0.4 14.9 -2.5
v 0.4 14.8 -2.5
v 0.4 14.8 -2.6
v 0.4 14.9 -2.6
v 0.3 14.9 -2.6
v 0.3 14.9 -2.5
v 0.4 14.9 -2.5
v 0.4 14.9 -2.6
v 0.3 14.8 -2.5
v 0.3 14.8 -2.6
v 0.4 14.8 -2.6
v 0.4 14.8 -2.5
v 0.3 14.9 -2.5
v 0.3 14.8 -2.5
v 0.4 14.8 -2.5
v 0.4 14.9 -2.5
v 0.4 14.9 -2.6
v 0.4 14.8 -2.6
v 0.3 14.8 -2.6
v 0.3 14.9 -2.6
v 0.5 14.9 -2.6
v 0.5 14.8 -2.6
v 0.5 14.8 -2.5
v 0.5 14.9 -2.5
v 0.5 14.9 -2.6
v 0.5 14.9 -2.5
v 0.6 14.9 -2.5
v 0.6 14.9 -2.6
v 0.5 14.8 -2.5
v 0.5 14.8 -2.6
v 0.6 14.8 -2.6
v 0.6 14.8 -2.5
v 0.5 14.9 -2.5
v 0.5 14.8 -2.5
v 0.6 14.8 -2.5
v 0.6 14.9 -2.5
v 0.6 14.9 -2.6
v 0.6 14.8 -2.6
v 0.5 14.8 -2.6
v 0.5 14.9 -2.6
v 0.6 14.9 -2.5
v 0.6 14.8 -2.5
v 0.7 14.8 -2.5
v 0.7 14.9 -2.5
v 0.7 14.9 -2.6
v 0.7 14.8 -2.6
v 0.6 14.8 -2.6
v 0.6 14.9 -2.6
v 0.8 14.9 -2.5
v 0.8 14.8 -2.5
v 0.8 14.8 -2.6
v 0.8 14.9 -2.6
v 0.7 14.9 -2.6
v 0.7 14.9 -2.5
v 0.8 14.9 -2.5
v 0.8 14.9 -2.6
v 0.7 14.9 -2.5
v 0.7 14.8 -2.5
v 0.8 14.8 -2.5
v 0.8 14.9 -2.5
v 0.8 14.9 -2.6
v 0.8 14.8 -2.6
v 0.7 14.8 -2.6
v 0.7 14.9 -2.6
v 1.4 14.9 -2.6
v 1.4 14.8 -2.6
v 1.4 14.8 -2.5
v 1.4 14.9 -2.5
v 1.4 14.9 -2.6
v 1.4 14.9 -2.5
v 1.5 14.9 -2.5
v 1.5 14.9 -2.6
v 1.4 14.8 -2.5
v 1.4 14.8 -2.6
v 1.5 14.8 -2.6
v 1.5 14.8 -2.5
v 1.4 14.9 -2.5
v 1.4 14.8 -2.5
v 1.5 14.8 -2.5
v 1.5 14.9 -2.5
v 1.5 14.9 -2.6
v 1.5 14.8 -2.6
v 1.4 14.8 -2.6
v 1.4 14.9 -2.6
v 1.5 14.9 -2.6
v 1.5 14.9 -2.5
v 1.6 14.9 -2.5
v 1.6 14.9 -2.6
v 1.5 14.8 -2.5
v 1.5 14.8 -2.6
v 1.6 14.8 -2.6
v 1.6 14.8 -2.5
v 1.5 14.9 -2.5
v 1.5 14.8 -2.5
v 1.6 14.8 -2.5
v 1.6 14.9 -2.5
v 1.6 14.9 -2.6
v 1.6 14.8 -2.6
v 1.5 14.8 -2.6
v 1.5 14.9 -2.6
v 1.7 14.9 -2.5
v 1.7 14.8 -2.5
v 1.7 14.8 -2.6
v 1.7 14.9 -2.6
v 1.6 14.9 -2.6
v 1.6 14.9 -2.5
v 1.7 14.9 -2.5
v 1.7 14.9 -2.6
v 1.6 14.8 -2.5
v 1.6 14.8 -2.6
v 1.7 14.8 -2.6
v 1.7 14.8 -2.5
v 1.6 14.9 -2.5
v 1.6 14.8 -2.5
v 1.7 14.8 -2.5
v 1.7 14.9 -2.5
v 1.7 14.9 -2.6
v 1.7 14.8 -2.6
v 1.6 14.8 -2.6
v 1.6 14.9 -2.6
v 2.2 14.9 -2.6
v 2.2 14.8 -2.6
v 2.2 14.8 -2.5
v 2.2 14.9 -2.5
v 2.2 14.9 -2.5
v 2.2 14.8 -2.5
v 2.3 14.8 -2.5
v 2.3 14.9 -2.5
v 2.3 14.9 -2.6
v 2.3 14.8 -2.6
v 2.2 14.8 -2.6
v 2.2 14.9 -2.6
v 2.4 14.9 -2.5
v 2.4 14.8 -2.5
v 2.4 14.8 -2.6
v 2.4 14.9 -2.6
v 2.3 14.9 -2.6
v 2.3 14.9 -2.5
v 2.4 14.9 -2.5
v 2.4 14.9 -2.6
v 2.3 14.9 -2.5
v 2.3 14.8 -2.5
v 2.4 14.8 -2.5
v 2.4 14.9 -2.5
v 2.4 14.9 -2.6
v 2.4 14.8 -2.6
v 2.3 14.8 -2.6
v 2.3 14.9 -2.6
v 0.4 14.8 -2.6
v 0.4 14.7 -2.6
v 0.4 14.7 -2.5
v 0.4 14.8 -2.5
v 0.5 14.8 -2.5
v 0.5 14.7 -2.5
v 0.5 14.7 -2.6
v 0.5 14.8 -2.6
v 0.4 14.8 -2.6
v 0.4 14.8 -2.5
v 0.5 14.8 -2.5
v 0.5 14.8 -2.6
v 0.4 14.8 -2.5
v 0.4 14.7 -2.5
v 0.5 14.7 -2.5
v 0.5 14.8 -2.5
v 0.5 14.8 -2.6
v 0.5 14.7 -2.6
v 0.4 14.7 -2.6
v 0.4 14.8 -2.6
v 0.6 14.8 -2.6
v 0.6 14.7 -2.6
v 0.6 14.7 -2.5
v 0.6 14.8 -2.5
v 0.6 14.7 -2.5
v 0.6 14.7 -2.6
v 0.7 14.7 -2.6
v 0.7 14.7 -2.5
v 0.6 14.8 -2.5
v 0.6 14.7 -2.5
v 0.7 14.7 -2.5
v 0.7 14.8 -2.5
v 0.7 14.8 -2.6
v 0.7 14.7 -2.6
v 0.6 14.7 -2.6
v 0.6 14.8 -2.6
v 0.8 14.8 -2.5
v 0.8 14.7 -2.5
v 0.8 14.7 -2.6
v 0.8 14.8 -2.6
v 0.7 14.8 -2.5
v 0.7 14.7 -2.5
v 0.8 14.7 -2.5
v 0.8 14.8 -2.5
v 0.8 14.8 -2.6
v 0.8 14.7 -2.6
v 0.7 14.7 -2.6
v 0.7 14.8 -2.6
v 1 14.8 -2.6
v 1 14.7 -2.6
v 1 14.7 -2.5
v 1 14.8 -2.5
v 1 14.8 -2.6
v 1 14.8 -2.5
v 1.1 14.8 -2.5
v 1.1 14.8 -2.6
v 1 14.8 -2.5
v 1 14.7 -2.5
v 1.1 14.7 -2.5
v 1.1 14.8 -2.5
v 1.1 14.8 -2.6
v 1.1 14.7 -2.6
v 1 14.7 -2.6
v 1 14.8 -2.6
v 1.1 14.8 -2.6
v 1.1 14.8 -2.5
v 1.2 14.8 -2.5
v 1.2 14.8 -2.6
v 1.1 14.7 -2.5
v 1.1 14.7 -2.6
v 1.2 14.7 -2.6
v 1.2 14.7 -2.5
v 1.1 14.8 -2.5
v 1.1 14.7 -2.5
v 1.2 14.7 -2.5
v 1.2 14.8 -2.5
v 1.2 14.8 -2.6
v 1.2 14.7 -2.6
v 1.1 14.7 -2.6
v 1.1 14.8 -2.6
v 1.3 14.8 -2.5
v 1.3 14.7 -2.5
v 1.3 14.7 -2.6
v 1.3 14.8 -2.6
v 1.2 14.8 -2.6
v 1.2 14.8 -2.5
v 1.3 14.8 -2.5
v 1.3 14.8 -2.6
v 1.2 14.7 -2.5
v 1.2 14.7 -2.6
v 1.3 14.7 -2.6
v 1.3 14.7 -2.5
v 1.2 14.8 -2.5
v 1.2 14.7 -2.5
v 1.3 14.7 -2.5
v 1.3 14.8 -2.5
v 1.3 14.8 -2.6
v 1.3 14.7 -2.6
v 1.2 14.7 -2.6
v 1.2 14.8 -2.6
v 1.9 14.8 -2.6
v 1.9 14.7 -2.6
v 1.9 14.7 -2.5
v 1.9 14.8 -2.5
v 1.9 14.8 -2.6
v 1.9 14.8 -2.5
v 2 14.8 -2.5
v 2 14.8 -2.6
v 1.9 14.7 -2.5
v 1.9 14.7 -2.6
v 2 14.7 -2.6
v 2 14.7 -2.5
v 1.9 14.8 -2.5
v 1.9 14.7 -2.5
v 2 14.7 -2.5
v 2 14.8 -2.5
v 2 14.8 -2.6
v 2 14.7 -2.6
v 1.9 14.7 -2.6
v 1.9 14.8 -2.6
v 2.1 14.8 -2.5
v 2.1 14.7 -2.5
v 2.1 14.7 -2.6
v 2.1 14.8 -2.6
v 2 14.8 -2.6
v 2 14.8 -2.5
v 2.1 14.8 -2.5
v 2.1 14.8 -2.6
v 2 14.8 -2.5
v 2 14.7 -2.5
v 2.1 14.7 -2.5
v 2.1 14.8 -2.5
v 2.1 14.8 -2.6
v 2.1 14.7 -2.6
v 2 14.7 -2.6
v 2 14.8 -2.6
v 2.2 14.8 -2.6
v 2.2 14.7 -2.6
v 2.2 14.7 -2.5
v 2.2 14.8 -2.5
v 2.2 14.7 -2.5
v 2.2 14.7 -2.6
v 2.3 14.7 -2.6
v 2.3 14.7 -2.5
v 2.2 14.8 -2.5
v 2.2 14.7 -2.5
v 2.3 14.7 -2.5
v 2.3 14.8 -2.5
v 2.3 14.8 -2.6
v 2.3 14.7 -2.6
v 2.2 14.7 -2.6
v 2.2 14.8 -2.6
v 2.3 14.8 -2.5
v 2.3 14.7 -2.5
v 2.4 14.7 -2.5
v 2.4 14.8 -2.5
v 2.4 14.8 -2.6
v 2.4 14.7 -2.6
v 2.3 14.7 -2.6
v 2.3 14.8 -2.6
v 2.5 14.8 -2.5
v 2.5 14.7 -2.5
v 2.5 14.7 -2.6
v 2.5 14.8 -2.6
v 2.4 14.8 -2.6
v 2.4 14.8 -2.5
v 2.5 14.8 -2.5
v 2.5 14.8 -2.6
v 2.4 14.8 -2.5
v 2.4 14.7 -2.5
v 2.5 14.7 -2.5
v 2.5 14.8 -2.5
v 2.5 14.8 -2.6
v 2.5 14.7 -2.6
v 2.4 14.7 -2.6
v 2.4 14.8 -2.6
v 0.4 14.7 -2.6
v 0.4 14.6 -2.6
v 0.4 14.6 -2.5
v 0.4 14.7 -2.5
v 0.5 14.7 -2.5
v 0.5 14.6 -2.5
v 0.5 14.6 -2.6
v 0.5 14.7 -2.6
v 0.4 14.7 -2.5
v 0.4 14.6 -2.5
v 0.5 14.6 -2.5
v 0.5 14.7 -2.5
v 0.5 14.7 -2.6
v 0.5 14.6 -2.6
v 0.4 14.6 -2.6
v 0.4 14.7 -2.6
v 0.7 14.7 -2.6
v 0.7 14.6 -2.6
v 0.7 14.6 -2.5
v 0.7 14.7 -2.5
v 0.7 14.6 -2.5
v 0.7 14.6 -2.6
v 0.8 14.6 -2.6
v 0.8 14.6 -2.5
v 0.7 14.7 -2.5
v 0.7 14.6 -2.5
v 0.8 14.6 -2.5
v 0.8 14.7 -2.5
v 0.8 14.7 -2.6
v 0.8 14.6 -2.6
v 0.7 14.6 -2.6
v 0.7 14.7 -2.6
v 0.8 14.7 -2.6
v 0.8 14.7 -2.5
v 0.9 14.7 -2.5
v 0.9 14.7 -2.6
v 0.8 14.6 -2.5
v 0.8 14.6 -2.6
v 0.9 14.6 -2.6
v 0.9 14.6 -2.5
v 0.8 14.7 -2.5
v 0.8 14.6 -2.5
v 0.9 14.6 -2.5
v 0.9 14.7 -2.5
v 0.9 14.7 -2.6
v 0.9 14.6 -2.6
v 0.8 14.6 -2.6
v 0.8 14.7 -2.6
v 0.9 14.7 -2.6
v 0.9 14.7 -2.5
v 1 14.7 -2.5
v 1 14.7 -2.6
v 0.9 14.7 -2.5
v 0.9 14.6 -2.5
v 1 14.6 -2.5
v 1 14.7 -2.5
v 1 14.7 -2.6
v 1 14.6 -2.6
v 0.9 14.6 -2.6
v 0.9 14.7 -2.6
v 1.1 14.7 -2.5
v 1.1 14.6 -2.5
v 1.1 14.6 -2.6
v 1.1 14.7 -2.6
v 1 14.6 -2.5
v 1 14.6 -2.6
v 1.1 14.6 -2.6
v 1.1 14.6 -2.5
v 1 14.7 -2.5
v 1 14.6 -2.5
v 1.1 14.6 -2.5
v 1.1 14.7 -2.5
v 1.1 14.7 -2.6
v 1.1 14.6 -2.6
v 1 14.6 -2.6
v 1 14.7 -2.6
v 1.6 14.7 -2.6
v 1.6 14.6 -2.6
v 1.6 14.6 -2.5
v 1.6 14.7 -2.5
v 1.7 14.7 -2.5
v 1.7 14.6 -2.5
v 1.7 14.6 -2.6
v 1.7 14.7 -2.6
v 1.6 14.7 -2.6
v 1.6 14.7 -2.5
v 1.7 14.7 -2.5
v 1.7 14.7 -2.6
v 1.6 14.6 -2.5
v 1.6 14.6 -2.6
v 1.7 14.6 -2.6
v 1.7 14.6 -2.5
v 1.6 14.7 -2.5
v 1.6 14.6 -2.5
v 1.7 14.6 -2.5
v 1.7 14.7 -2.5
v 1.7 14.7 -2.6
v 1.7 14.6 -2.6
v 1.6 14.6 -2.6
v 1.6 14.7 -2.6
v 2 14.7 -2.6
v 2 14.6 -2.6
v 2 14.6 -2.5
v 2 14.7 -2.5
v 2 14.6 -2.5
v 2 14.6 -2.6
v 2.1 14.6 -2.6
v 2.1 14.6 -2.5
v 2 14.7 -2.5
v 2 14.6 -2.5
v 2.1 14.6 -2.5
v 2.1 14.7 -2.5
v 2.1 14.7 -2.6
v 2.1 14.6 -2.6
v 2 14.6 -2.6
v 2 14.7 -2.6
v 2.2 14.7 -2.5
v 2.2 14.6 -2.5
v 2.2 14.6 -2.6
v 2.2 14.7 -2.6
v 2.1 14.7 -2.6
v 2.1 14.7 -2.5
v 2.2 14.7 -2.5
v 2.2 14.7 -2.6
v 2.1 14.7 -2.5
v 2.1 14.6 -2.5
v 2.2 14.6 -2.5
v 2.2 14.7 -2.5
v 2.2 14.7 -2.6
v 2.2 14.6 -2.6
v 2.1 14.6 -2.6
v 2.1 14.7 -2.6
v 2.3 14.7 -2.6
v 2.3 14.6 -2.6
v 2.3 14.6 -2.5
v 2.3 14.7 -2.5
v 2.3 14.6 -2.5
v 2.3 14.6 -2.6
v 2.4 14.6 -2.6
v 2.4 14.6 -2.5
v 2.3 14.7 -2.5
v 2.3 14.6 -2.5
v 2.4 14.6 -2.5
v 2.4 14.7 -2.5
v 2.4 14.7 -2.6
v 2.4 14.6 -2.6
v 2.3 14.6 -2.6
v 2.3 14.7 -2.6
v 2.4 14.7 -2.5
v 2.4 14.6 -2.5
v 2.5 14.6 -2.5
v 2.5 14.7 -2.5
v 2.5 14.7 -2.6
v 2.5 14.6 -2.6
v 2.4 14.6 -2.6
v 2.4 14.7 -2.6
v 2.6 14.7 -2.5
v 2.6 14.6 -2.5
v 2.6 14.6 -2.6
v 2.6 14.7 -2.6
v 2.5 14.7 -2.6
v 2.5 14.7 -2.5
v 2.6 14.7 -2.5
v 2.6 14.7 -2.6
v 2.5 14.7 -2.5
v 2.5 14.6 -2.5
v 2.6 14.6 -2.5
v 2.6 14.7 -2.5
v 2.6 14.7 -2.6
v 2.6 14.6 -2.6
v 2.5 14.6 -2.6
v 2.5 14.7 -2.6
v 0.4 14.6 -2.6
v 0.4 14.5 -2.6
v 0.4 14.5 -2.5
v 0.4 14.6 -2.5
v 0.5 14.6 -2.5
v 0.5 14.5 -2.5
v 0.5 14.5 -2.6
v 0.5 14.6 -2.6
v 0.4 14.6 -2.5
v 0.4 14.5 -2.5
v 0.5 14.5 -2.5
v 0.5 14.6 -2.5
v 0.5 14.6 -2.6
v 0.5 14.5 -2.6
v 0.4 14.5 -2.6
v 0.4 14.6 -2.6
v 0.9 14.6 -2.6
v 0.9 14.5 -2.6
v 0.9 14.5 -2.5
v 0.9 14.6 -2.5
v 1 14.6 -2.5
v 1 14.5 -2.5
v 1 14.5 -2.6
v 1 14.6 -2.6
v 0.9 14.6 -2.5
v 0.9 14.5 -2.5
v 1 14.5 -2.5
v 1 14.6 -2.5
v 1 14.6 -2.6
v 1 14.5 -2.6
v 0.9 14.5 -2.6
v 0.9 14.6 -2.6
v 2.1 14.6 -2.6
v 2.1 14.5 -2.6
v 2.1 14.5 -2.5
v 2.1 14.6 -2.5
v 2.1 14.5 -2.5
v 2.1 14.5 -2.6
v 2.2 14.5 -2.6
v 2.2 14.5 -2.5
v 2.1 14.6 -2.5
v 2.1 14.5 -2.5
v 2.2 14.5 -2.5
v 2.2 14.6 -2.5
v 2.2 14.6 -2.6
v 2.2 14.5 -2.6
v 2.1 14.5 -2.6
v 2.1 14.6 -2.6
v 2.3 14.6 -2.5
v 2.3 14.5 -2.5
v 2.3 14.5 -2.6
v 2.3 14.6 -2.6
v 2.2 14.6 -2.6
v 2.2 14.6 -2.5
v 2.3 14.6 -2.5
v 2.3 14.6 -2.6
v 2.2 14.6 -2.5
v 2.2 14.5 -2.5
v 2.3 14.5 -2.5
v 2.3 14.6 -2.5
v 2.3 14.6 -2.6
v 2.3 14.5 -2.6
v 2.2 14.5 -2.6
v 2.2 14.6 -2.6
v 2.4 14.6 -2.6
v 2.4 14.5 -2.6
v 2.4 14.5 -2.5
v 2.4 14.6 -2.5
v 2.4 14.5 -2.5
v 2.4 14.5 -2.6
v 2.5 14.5 -2.6
v 2.5 14.5 -2.5
v 2.4 14.6 -2.5
v 2.4 14.5 -2.5
v 2.5 14.5 -2.5
v 2.5 14.6 -2.5
v 2.5 14.6 -2.6
v 2.5 14.5 -2.6
v 2.4 14.5 -2.6
v 2.4 14.6 -2.6
v 2.6 14.6 -2.5
v 2.6 14.5 -2.5
v 2.6 14.5 -2.6
v 2.6 14.6 -2.6
v 2.5 14.6 -2.5
v 2.5 14.5 -2.5
v 2.6 14.5 -2.5
v 2.6 14.6 -2.5
v 2.6 14.6 -2.6
v 2.6 14.5 -2.6
v 2.5 14.5 -2.6
v 2.5 14.6 -2.6
v 0.4 14.5 -2.6
v 0.4 14.4 -2.6
v 0.4 14.4 -2.5
v 0.4 14.5 -2.5
v 0.4 14.5 -2.5
v 0.4 14.4 -2.5
v 0.5 14.4 -2.5
v 0.5 14.5 -2.5
v 0.5 14.5 -2.6
v 0.5 14.4 -2.6
v 0.4 14.4 -2.6
v 0.4 14.5 -2.6
v 0.6 14.5 -2.5
v 0.6 14.4 -2.5
v 0.6 14.4 -2.6
v 0.6 14.5 -2.6
v 0.5 14.5 -2.6
v 0.5 14.5 -2.5
v 0.6 14.5 -2.5
v 0.6 14.5 -2.6
v 0.5 14.5 -2.5
v 0.5 14.4 -2.5
v 0.6 14.4 -2.5
v 0.6 14.5 -2.5
v 0.6 14.5 -2.6
v 0.6 14.4 -2.6
v 0.5 14.4 -2.6
v 0.5 14.5 -2.6
v 0.9 14.5 -2.6
v 0.9 14.4 -2.6
v 0.9 14.4 -2.5
v 0.9 14.5 -2.5
v 0.9 14.4 -2.5
v 0.9 14.4 -2.6
v 1 14.4 -2.6
v 1 14.4 -2.5
v 0.9 14.5 -2.5
v 0.9 14.4 -2.5
v 1 14.4 -2.5
v 1 14.5 -2.5
v 1 14.5 -2.6
v 1 14.4 -2.6
v 0.9 14.4 -2.6
v 0.9 14.5 -2.6
v 1.1 14.5 -2.5
v 1.1 14.4 -2.5
v 1.1 14.4 -2.6
v 1.1 14.5 -2.6
v 1 14.5 -2.6
v 1 14.5 -2.5
v 1.1 14.5 -2.5
v 1.1 14.5 -2.6
v 1 14.4 -2.5
v 1 14.4 -2.6
v 1.1 14.4 -2.6
v 1.1 14.4 -2.5
v 1 14.5 -2.5
v 1 14.4 -2.5
v 1.1 14.4 -2.5
v 1.1 14.5 -2.5
v 1.1 14.5 -2.6
v 1.1 14.4 -2.6
v 1 14.4 -2.6
v 1 14.5 -2.6
v 1.7 14.5 -2.6
v 1.7 14.4 -2.6
v 1.7 14.4 -2.5
v 1.7 14.5 -2.5
v 1.8 14.5 -2.5
v 1.8 14.4 -2.5
v 1.8 14.4 -2.6
v 1.8 14.5 -2.6
v 1.7 14.5 -2.6
v 1.7 14.5 -2.5
v 1.8 14.5 -2.5
v 1.8 14.5 -2.6
v 1.7 14.5 -2.5
v 1.7 14.4 -2.5
v 1.8 14.4 -2.5
v 1.8 14.5 -2.5
v 1.8 14.5 -2.6
v 1.8 14.4 -2.6
v 1.7 14.4 -2.6
v 1.7 14.5 -2.6
v 2.2 14.5 -2.6
v 2.2 14.4 -2.6
v 2.2 14.4 -2.5
v 2.2 14.5 -2.5
v 2.2 14.5 -2.5
v 2.2 14.4 -2.5
v 2.3 14.4 -2.5
v 2.3 14.5 -2.5
v 2.3 14.5 -2.6
v 2.3 14.4 -2.6
v 2.2 14.4 -2.6
v 2.2 14.5 -2.6
v 2.4 14.5 -2.5
v 2.4 14.4 -2.5
v 2.4 14.4 -2.6
v 2.4 14.5 -2.6
v 2.3 14.5 -2.6
v 2.3 14.5 -2.5
v 2.4 14.5 -2.5
v 2.4 14.5 -2.6
v 2.3 14.5 -2.5
v 2.3 14.4 -2.5
v 2.4 14.4 -2.5
v 2.4 14.5 -2.5
v 2.4 14.5 -2.6
v 2.4 14.4 -2.6
v 2.3 14.4 -2.6
v 2.3 14.5 -2.6
v 2.5 14.5 -2.6
v 2.5 14.4 -2.6
v 2.5 14.4 -2.5
v 2.5 14.5 -2.5
v 2.5 14.4 -2.5
v 2.5 14.4 -2.6
v 2.6 14.4 -2.6
v 2.6 14.4 -2.5
v 2.5 14.5 -2.5
v 2.5 14.4 -2.5
v 2.6 14.4 -2.5
v 2.6 14.5 -2.5
v 2.6 14.5 -2.6
v 2.6 14.4 -2.6
v 2.5 14.4 -2.6
v 2.5 14.5 -2.6
v 2.7 14.5 -2.5
v 2.7 14.4 -2.5
v 2.7 14.4 -2.6
v 2.7 14.5 -2.6
v 2.6 14.5 -2.6
v 2.6 14.5 -2.5
v 2.7 14.5 -2.5
v 2.7 14.5 -2.6
v 2.6 14.5 -2.5
v 2.6 14.4 -2.5
v 2.7 14.4 -2.5
v 2.7 14.5 -2.5
v 2.7 14.5 -2.6
v 2.7 14.4 -2.6
v 2.6 14.4 -2.6
v 2.6 14.5 -2.6
v 0.4 14.4 -2.6
v 0.4 14.3 -2.6
v 0.4 14.3 -2.5
v 0.4 14.4 -2.5
v 0.4 14.3 -2.5
v 0.4 14.3 -2.6
v 0.5 14.3 -2.6
v 0.5 14.3 -2.5
v 0.4 14.4 -2.5
v 0.4 14.3 -2.5
v 0.5 14.3 -2.5
v 0.5 14.4 -2.5
v 0.5 14.4 -2.6
v 0.5 14.3 -2.6
v 0.4 14.3 -2.6
v 0.4 14.4 -2.6
v 0.6 14.4 -2.5
v 0.6 14.3 -2.5
v 0.6 14.3 -2.6
v 0.6 14.4 -2.6
v 0.5 14.4 -2.5
v 0.5 14.3 -2.5
v 0.6 14.3 -2.5
v 0.6 14.4 -2.5
v 0.6 14.4 -2.6
v 0.6 14.3 -2.6
v 0.5 14.3 -2.6
v 0.5 14.4 -2.6
v 0.8 14.4 -2.6
v 0.8 14.3 -2.6
v 0.8 14.3 -2.5
v 0.8 14.4 -2.5
v 0.9 14.4 -2.5
v 0.9 14.3 -2.5
v 0.9 14.3 -2.6
v 0.9 14.4 -2.6
v 0.8 14.4 -2.6
v 0.8 14.4 -2.5
v 0.9 14.4 -2.5
v 0.9 14.4 -2.6
v 0.8 14.4 -2.5
v 0.8 14.3 -2.5
v 0.9 14.3 -2.5
v 0.9 14.4 -2.5
v 0.9 14.4 -2.6
v 0.9 14.3 -2.6
v 0.8 14.3 -2.6
v 0.8 14.4 -2.6
v 1.7 14.4 -2.6
v 1.7 14.3 -2.6
v 1.7 14.3 -2.5
v 1.7 14.4 -2.5
v 1.8 14.4 -2.5
v 1.8 14.3 -2.5
v 1.8 14.3 -2.6
v 1.8 14.4 -2.6
v 1.7 14.4 -2.5
v 1.7 14.3 -2.5
v 1.8 14.3 -2.5
v 1.8 14.4 -2.5
v 1.8 14.4 -2.6
v 1.8 14.3 -2.6
v 1.7 14.3 -2.6
v 1.7 14.4 -2.6
v 2.2 14.4 -2.6
v 2.2 14.3 -2.6
v 2.2 14.3 -2.5
v 2.2 14.4 -2.5
v 2.2 14.3 -2.5
v 2.2 14.3 -2.6
v 2.3 14.3 -2.6
v 2.3 14.3 -2.5
v 2.2 14.4 -2.5
v 2.2 14.3 -2.5
v 2.3 14.3 -2.5
v 2.3 14.4 -2.5
v 2.3 14.4 -2.6
v 2.3 14.3 -2.6
v 2.2 14.3 -2.6
v 2.2 14.4 -2.6
v 2.4 14.4 -2.5
v 2.4 14.3 -2.5
v 2.4 14.3 -2.6
v 2.4 14.4 -2.6
v 2.3 14.4 -2.5
v 2.3 14.3 -2.5
v 2.4 14.3 -2.5
v 2.4 14.4 -2.5
v 2.4 14.4 -2.6
v 2.4 14.3 -2.6
v 2.3 14.3 -2.6
v 2.3 14.4 -2.6
v 2.6 14.4 -2.6
v 2.6 14.3 -2.6
v 2.6 14.3 -2.5
v 2.6 14.4 -2.5
v 2.7 14.4 -2.5
v 2.7 14.3 -2.5
v 2.7 14.3 -2.6
v 2.7 14.4 -2.6
v 2.6 14.4 -2.5
v 2.6 14.3 -2.5
v 2.7 14.3 -2.5
v 2.7 14.4 -2.5
v 2.7 14.4 -2.6
v 2.7 14.3 -2.6
v 2.6 14.3 -2.6
v 2.6 14.4 -2.6
v 0.5 14.3 -2.6
v 0.5 14.2 -2.6
v 0.5 14.2 -2.5
v 0.5 14.3 -2.5
v 0.6 14.3 -2.5
v 0.6 14.2 -2.5
v 0.6 14.2 -2.6
v 0.6 14.3 -2.6
v 0.5 14.2 -2.5
v 0.5 14.2 -2.6
v 0.6 14.2 -2.6
v 0.6 14.2 -2.5
v 0.5 14.3 -2.5
v 0.5 14.2 -2.5
v 0.6 14.2 -2.5
v 0.6 14.3 -2.5
v 0.6 14.3 -2.6
v 0.6 14.2 -2.6
v 0.5 14.2 -2.6
v 0.5 14.3 -2.6
v 0.8 14.3 -2.6
v 0.8 14.2 -2.6
v 0.8 14.2 -2.5
v 0.8 14.3 -2.5
v 0.9 14.3 -2.5
v 0.9 14.2 -2.5
v 0.9 14.2 -2.6
v 0.9 14.3 -2.6
v 0.8 14.3 -2.5
v 0.8 14.2 -2.5
v 0.9 14.2 -2.5
v 0.9 14.3 -2.5
v 0.9 14.3 -2.6
v 0.9 14.2 -2.6
v 0.8 14.2 -2.6
v 0.8 14.3 -2.6
v 1.2 14.3 -2.6
v 1.2 14.2 -2.6
v 1.2 14.2 -2.5
v 1.2 14.3 -2.5
v 1.3 14.3 -2.5
v 1.3 14.2 -2.5
v 1.3 14.2 -2.6
v 1.3 14.3 -2.6
v 1.2 14.3 -2.6
v 1.2 14.3 -2.5
v 1.3 14.3 -2.5
v 1.3 14.3 -2.6
v 1.2 14.2 -2.5
v 1.2 14.2 -2.6
v 1.3 14.2 -2.6
v 1.3 14.2 -2.5
v 1.2 14.3 -2.5
v 1.2 14.2 -2.5
v 1.3 14.2 -2.5
v 1.3 14.3 -2.5
v 1.3 14.3 -2.6
v 1.3 14.2 -2.6
v 1.2 14.2 -2.6
v 1.2 14.3 -2.6
v 1.7 14.3 -2.6
v 1.7 14.2 -2.6
v 1.7 14.2 -2.5
v 1.7 14.3 -2.5
v 1.8 14.3 -2.5
v 1.8 14.2 -2.5
v 1.8 14.2 -2.6
v 1.8 14.3 -2.6
v 1.7 14.3 -2.5
v 1.7 14.2 -2.5
v 1.8 14.2 -2.5
v 1.8 14.3 -2.5
v 1.8 14.3 -2.6
v 1.8 14.2 -2.6
v 1.7 14.2 -2.6
v 1.7 14.3 -2.6
v 2.3 14.3 -2.6
v 2.3 14.2 -2.6
v 2.3 14.2 -2.5
v 2.3 14.3 -2.5
v 2.3 14.3 -2.5
v 2.3 14.2 -2.5
v 2.4 14.2 -2.5
v 2.4 14.3 -2.5
v 2.4 14.3 -2.6
v 2.4 14.2 -2.6
v 2.3 14.2 -2.6
v 2.3 14.3 -2.6
v 2.5 14.3 -2.5
v 2.5 14.2 -2.5
v 2.5 14.2 -2.6
v 2.5 14.3 -2.6
v 2.4 14.3 -2.6
v 2.4 14.3 -2.5
v 2.5 14.3 -2.5
v 2.5 14.3 -2.6
v 2.4 14.3 -2.5
v 2.4 14.2 -2.5
v 2.5 14.2 -2.5
v 2.5 14.3 -2.5
v 2.5 14.3 -2.6
v 2.5 14.2 -2.6
v 2.4 14.2 -2.6
v 2.4 14.3 -2.6
v 2.6 14.3 -2.6
v 2.6 14.2 -2.6
v 2.6 14.2 -2.5
v 2.6 14.3 -2.5
v 2.6 14.2 -2.5
v 2.6 14.2 -2.6
v 2.7 14.2 -2.6
v 2.7 14.2 -2.5
v 2.6 14.3 -2.5
v 2.6 14.2 -2.5
v 2.7 14.2 -2.5
v 2.7 14.3 -2.5
v 2.7 14.3 -2.6
v 2.7 14.2 -2.6
v 2.6 14.2 -2.6
v 2.6 14.3 -2.6
v 2.8 14.3 -2.5
v 2.8 14.2 -2.5
v 2.8 14.2 -2.6
v 2.8 14.3 -2.6
v 2.7 14.3 -2.6
v 2.7 14.3 -2.5
v 2.8 14.3 -2.5
v 2.8 14.3 -2.6
v 2.7 14.3 -2.5
v 2.7 14.2 -2.5
v 2.8 14.2 -2.5
v 2.8 14.3 -2.5
v 2.8 14.3 -2.6
v 2.8 14.2 -2.6
v 2.7 14.2 -2.6
v 2.7 14.3 -2.6
v 0.8 14.2 -2.6
v 0.8 14.1 -2.6
v 0.8 14.1 -2.5
v 0.8 14.2 -2.5
v 0.9 14.2 -2.5
v 0.9 14.1 -2.5
v 0.9 14.1 -2.6
v 0.9 14.2 -2.6
v 0.8 14.2 -2.5
v 0.8 14.1 -2.5
v 0.9 14.1 -2.5
v 0.9 14.2 -2.5
v 0.9 14.2 -2.6
v 0.9 14.1 -2.6
v 0.8 14.1 -2.6
v 0.8 14.2 -2.6
v 1.7 14.2 -2.6
v 1.7 14.1 -2.6
v 1.7 14.1 -2.5
v 1.7 14.2 -2.5
v 1.8 14.2 -2.5
v 1.8 14.1 -2.5
v 1.8 14.1 -2.6
v 1.8 14.2 -2.6
v 1.7 14.2 -2.5
v 1.7 14.1 -2.5
v 1.8 14.1 -2.5
v 1.8 14.2 -2.5
v 1.8 14.2 -2.6
v 1.8 14.1 -2.6
v 1.7 14.1 -2.6
v 1.7 14.2 -2.6
v 2.3 14.2 -2.6
v 2.3 14.1 -2.6
v 2.3 14.1 -2.5
v 2.3 14.2 -2.5
v 2.3 14.1 -2.5
v 2.3 14.1 -2.6
v 2.4 14.1 -2.6
v 2.4 14.1 -2.5
v 2.3 14.2 -2.5
v 2.3 14.1 -2.5
v 2.4 14.1 -2.5
v 2.4 14.2 -2.5
v 2.4 14.2 -2.6
v 2.4 14.1 -2.6
v 2.3 14.1 -2.6
v 2.3 14.2 -2.6
v 2.5 14.2 -2.5
v 2.5 14.1 -2.5
v 2.5 14.1 -2.6
v 2.5 14.2 -2.6
v 2.4 14.2 -2.5
v 2.4 14.1 -2.5
v 2.5 14.1 -2.5
v 2.5 14.2 -2.5
v 2.5 14.2 -2.6
v 2.5 14.1 -2.6
v 2.4 14.1 -2.6
v 2.4 14.2 -2.6
v 2.7 14.2 -2.6
v 2.7 14.1 -2.6
v 2.7 14.1 -2.5
v 2.7 14.2 -2.5
v 2.8 14.2 -2.5
v 2.8 14.1 -2.5
v 2.8 14.1 -2.6
v 2.8 14.2 -2.6
v 2.7 14.2 -2.5
v 2.7 14.1 -2.5
v 2.8 14.1 -2.5
v 2.8 14.2 -2.5
v 2.8 14.2 -2.6
v 2.8 14.1 -2.6
v 2.7 14.1 -2.6
v 2.7 14.2 -2.6
v 0.7 14.1 -2.6
v 0.7 14 -2.6
v 0.7 14 -2.5
v 0.7 14.1 -2.5
v 0.7 14.1 -2.6
v 0.7 14.1 -2.5
v 0.8 14.1 -2.5
v 0.8 14.1 -2.6
v 0.7 14 -2.5
v 0.7 14 -2.6
v 0.8 14 -2.6
v 0.8 14 -2.5
v 0.7 14.1 -2.5
v 0.7 14 -2.5
v 0.8 14 -2.5
v 0.8 14.1 -2.5
v 0.8 14.1 -2.6
v 0.8 14 -2.6
v 0.7 14 -2.6
v 0.7 14.1 -2.6
v 0.9 14.1 -2.5
v 0.9 14 -2.5
v 0.9 14 -2.6
v 0.9 14.1 -2.6
v 0.8 14.1 -2.5
v 0.8 14 -2.5
v 0.9 14 -2.5
v 0.9 14.1 -2.5
v 0.9 14.1 -2.6
v 0.9 14 -2.6
v 0.8 14 -2.6
v 0.8 14.1 -2.6
v 1.7 14.1 -2.6
v 1.7 14 -2.6
v 1.7 14 -2.5
v 1.7 14.1 -2.5
v 1.7 14 -2.5
v 1.7 14 -2.6
v 1.8 14 -2.6
v 1.8 14 -2.5
v 1.7 14.1 -2.5
v 1.7 14 -2.5
v 1.8 14 -2.5
v 1.8 14.1 -2.5
v 1.8 14.1 -2.6
v 1.8 14 -2.6
v 1.7 14 -2.6
v 1.7 14.1 -2.6
v 1.9 14.1 -2.5
v 1.9 14 -2.5
v 1.9 14 -2.6
v 1.9 14.1 -2.6
v 1.8 14.1 -2.6
v 1.8 14.1 -2.5
v 1.9 14.1 -2.5
v 1.9 14.1 -2.6
v 1.8 14.1 -2.5
v 1.8 14 -2.5
v 1.9 14 -2.5
v 1.9 14.1 -2.5
v 1.9 14.1 -2.6
v 1.9 14 -2.6
v 1.8 14 -2.6
v 1.8 14.1 -2.6
v 2.4 14.1 -2.6
v 2.4 14 -2.6
v 2.4 14 -2.5
v 2.4 14.1 -2.5
v 2.5 14.1 -2.5
v 2.5 14 -2.5
v 2.5 14 -2.6
v 2.5 14.1 -2.6
v 2.4 14.1 -2.5
v 2.4 14 -2.5
v 2.5 14 -2.5
v 2.5 14.1 -2.5
v 2.5 14.1 -2.6
v 2.5 14 -2.6
v 2.4 14 -2.6
v 2.4 14.1 -2.6
v 2.7 14.1 -2.6
v 2.7 14 -2.6
v 2.7 14 -2.5
v 2.7 14.1 -2.5
v 2.8 14.1 -2.5
v 2.8 14 -2.5
v 2.8 14 -2.6
v 2.8 14.1 -2.6
v 2.7 14 -2.5
v 2.7 14 -2.6
v 2.8 14 -2.6
v 2.8 14 -2.5
v 2.7 14.1 -2.5
v 2.7 14 -2.5
v 2.8 14 -2.5
v 2.8 14.1 -2.5
v 2.8 14.1 -2.6
v 2.8 14 -2.6
v 2.7 14 -2.6
v 2.7 14.1 -2.6
v 0.8 14 -2.6
v 0.8 13.9 -2.6
v 0.8 13.9 -2.5
v 0.8 14 -2.5
v 0.8 13.9 -2.5
v 0.8 13.9 -2.6
v 0.9 13.9 -2.6
v 0.9 13.9 -2.5
v 0.8 14 -2.5
v 0.8 13.9 -2.5
v 0.9 13.9 -2.5
v 0.9 14 -2.5
v 0.9 14 -2.6
v 0.9 13.9 -2.6
v 0.8 13.9 -2.6
v 0.8 14 -2.6
v 1 14 -2.5
v 1 13.9 -2.5
v 1 13.9 -2.6
v 1 14 -2.6
v 0.9 14 -2.6
v 0.9 14 -2.5
v 1 14 -2.5
v 1 14 -2.6
v 0.9 13.9 -2.5
v 0.9 13.9 -2.6
v 1 13.9 -2.6
v 1 13.9 -2.5
v 0.9 14 -2.5
v 0.9 13.9 -2.5
v 1 13.9 -2.5
v 1 14 -2.5
v 1 14 -2.6
v 1 13.9 -2.6
v 0.9 13.9 -2.6
v 0.9 14 -2.6
v 1.4 14 -2.6
v 1.4 13.9 -2.6
v 1.4 13.9 -2.5
v 1.4 14 -2.5
v 1.4 14 -2.6
v 1.4 14 -2.5
v 1.5 14 -2.5
v 1.5 14 -2.6
v 1.4 13.9 -2.5
v 1.4 13.9 -2.6
v 1.5 13.9 -2.6
v 1.5 13.9 -2.5
v 1.4 14 -2.5
v 1.4 13.9 -2.5
v 1.5 13.9 -2.5
v 1.5 14 -2.5
v 1.5 14 -2.6
v 1.5 13.9 -2.6
v 1.4 13.9 -2.6
v 1.4 14 -2.6
v 1.5 14 -2.6
v 1.5 14 -2.5
v 1.6 14 -2.5
v 1.6 14 -2.6
v 1.5 13.9 -2.5
v 1.5 13.9 -2.6
v 1.6 13.9 -2.6
v 1.6 13.9 -2.5
v 1.5 14 -2.5
v 1.5 13.9 -2.5
v 1.6 13.9 -2.5
v 1.6 14 -2.5
v 1.6 14 -2.6
v 1.6 13.9 -2.6
v 1.5 13.9 -2.6
v 1.5 14 -2.6
v 1.7 14 -2.5
v 1.7 13.9 -2.5
v 1.7 13.9 -2.6
v 1.7 14 -2.6
v 1.6 14 -2.6
v 1.6 14 -2.5
v 1.7 14 -2.5
v 1.7 14 -2.6
v 1.6 14 -2.5
v 1.6 13.9 -2.5
v 1.7 13.9 -2.5
v 1.7 14 -2.5
v 1.7 14 -2.6
v 1.7 13.9 -2.6
v 1.6 13.9 -2.6
v 1.6 14 -2.6
v 1.8 14 -2.6
v 1.8 13.9 -2.6
v 1.8 13.9 -2.5
v 1.8 14 -2.5
v 1.9 14 -2.5
v 1.9 13.9 -2.5
v 1.9 13.9 -2.6
v 1.9 14 -2.6
v 1.8 13.9 -2.5
v 1.8 13.9 -2.6
v 1.9 13.9 -2.6
v 1.9 13.9 -2.5
v 1.8 14 -2.5
v 1.8 13.9 -2.5
v 1.9 13.9 -2.5
v 1.9 14 -2.5
v 1.9 14 -2.6
v 1.9 13.9 -2.6
v 1.8 13.9 -2.6
v 1.8 14 -2.6
v 2.4 14 -2.6
v 2.4 13.9 -2.6
v 2.4 13.9 -2.5
v 2.4 14 -2.5
v 2.5 14 -2.5
v 2.5 13.9 -2.5
v 2.5 13.9 -2.6
v 2.5 14 -2.6
v 2.4 14 -2.5
v 2.4 13.9 -2.5
v 2.5 13.9 -2.5
v 2.5 14 -2.5
v 2.5 14 -2.6
v 2.5 13.9 -2.6
v 2.4 13.9 -2.6
v 2.4 14 -2.6
v 1 13.9 -2.6
v 1 13.8 -2.6
v 1 13.8 -2.5
v 1 13.9 -2.5
v 1.1 13.9 -2.5
v 1.1 13.8 -2.5
v 1.1 13.8 -2.6
v 1.1 13.9 -2.6
v 1 13.9 -2.6
v 1 13.9 -2.5
v 1.1 13.9 -2.5
v 1.1 13.9 -2.6
v 1 13.8 -2.5
v 1 13.8 -2.6
v 1.1 13.8 -2.6
v 1.1 13.8 -2.5
v 1 13.9 -2.5
v 1 13.8 -2.5
v 1.1 13.8 -2.5
v 1.1 13.9 -2.5
v 1.1 13.9 -2.6
v 1.1 13.8 -2.6
v 1 13.8 -2.6
v 1 13.9 -2.6
v 1.6 13.9 -2.6
v 1.6 13.8 -2.6
v 1.6 13.8 -2.5
v 1.6 13.9 -2.5
v 1.7 13.9 -2.5
v 1.7 13.8 -2.5
v 1.7 13.8 -2.6
v 1.7 13.9 -2.6
v 1.6 13.9 -2.5
v 1.6 13.8 -2.5
v 1.7 13.8 -2.5
v 1.7 13.9 -2.5
v 1.7 13.9 -2.6
v 1.7 13.8 -2.6
v 1.6 13.8 -2.6
v 1.6 13.9 -2.6
v 2 13.9 -2.6
v 2 13.8 -2.6
v 2 13.8 -2.5
v 2 13.9 -2.5
v 2.1 13.9 -2.5
v 2.1 13.8 -2.5
v 2.1 13.8 -2.6
v 2.1 13.9 -2.6
v 2 13.9 -2.6
v 2 13.9 -2.5
v 2.1 13.9 -2.5
v 2.1 13.9 -2.6
v 2 13.8 -2.5
v 2 13.8 -2.6
v 2.1 13.8 -2.6
v 2.1 13.8 -2.5
v 2 13.9 -2.5
v 2 13.8 -2.5
v 2.1 13.8 -2.5
v 2.1 13.9 -2.5
v 2.1 13.9 -2.6
v 2.1 13.8 -2.6
v 2 13.8 -2.6
v 2 13.9 -2.6
v 2.3 13.9 -2.6
v 2.3 13.8 -2.6
v 2.3 13.8 -2.5
v 2.3 13.9 -2.5
v 2.3 13.9 -2.6
v 2.3 13.9 -2.5
v 2.4 13.9 -2.5
v 2.4 13.9 -2.6
v 2.3 13.9 -2.5
v 2.3 13.8 -2.5
v 2.4 13.8 -2.5
v 2.4 13.9 -2.5
v 2.4 13.9 -2.6
v 2.4 13.8 -2.6
v 2.3 13.8 -2.6
v 2.3 13.9 -2.6
v 2.5 13.9 -2.5
v 2.5 13.8 -2.5
v 2.5 13.8 -2.6
v 2.5 13.9 -2.6
v 2.4 13.9 -2.5
v 2.4 13.8 -2.5
v 2.5 13.8 -2.5
v 2.5 13.9 -2.5
v 2.5 13.9 -2.6
v 2.5 13.8 -2.6
v 2.4 13.8 -2.6
v 2.4 13.9 -2.6
v 2.7 13.9 -2.6
v 2.7 13.8 -2.6
v 2.7 13.8 -2.5
v 2.7 13.9 -2.5
v 2.8 13.9 -2.5
v 2.8 13.8 -2.5
v 2.8 13.8 -2.6
v 2.8 13.9 -2.6
v 2.7 13.9 -2.6
v 2.7 13.9 -2.5
v 2.8 13.9 -2.5
v 2.8 13.9 -2.6
v 2.7 13.8 -2.5
v 2.7 13.8 -2.6
v 2.8 13.8 -2.6
v 2.8 13.8 -2.5
v 2.7 13.9 -2.5
v 2.7 13.8 -2.5
v 2.8 13.8 -2.5
v 2.8 13.9 -2.5
v 2.8 13.9 -2.6
v 2.8 13.8 -2.6
v 2.7 13.8 -2.6
v 2.7 13.9 -2.6
v 1.5 13.8 -2.6
v 1.5 13.7 -2.6
v 1.5 13.7 -2.5
v 1.5 13.8 -2.5
v 1.5 13.8 -2.6
v 1.5 13.8 -2.5
v 1.6 13.8 -2.5
v 1.6 13.8 -2.6
v 1.5 13.8 -2.5
v 1.5 13.7 -2.5
v 1.6 13.7 -2.5
v 1.6 13.8 -2.5
v 1.6 13.8 -2.6
v 1.6 13.7 -2.6
v 1.5 13.7 -2.6
v 1.5 13.8 -2.6
v 1.7 13.8 -2.5
v 1.7 13.7 -2.5
v 1.7 13.7 -2.6
v 1.7 13.8 -2.6
v 1.6 13.7 -2.5
v 1.6 13.7 -2.6
v 1.7 13.7 -2.6
v 1.7 13.7 -2.5
v 1.6 13.8 -2.5
v 1.6 13.7 -2.5
v 1.7 13.7 -2.5
v 1.7 13.8 -2.5
v 1.7 13.8 -2.6
v 1.7 13.7 -2.6
v 1.6 13.7 -2.6
v 1.6 13.8 -2.6
v 2.1 13.8 -2.6
v 2.1 13.7 -2.6
v 2.1 13.7 -2.5
v 2.1 13.8 -2.5
v 2.2 13.8 -2.5
v 2.2 13.7 -2.5
v 2.2 13.7 -2.6
v 2.2 13.8 -2.6
v 2.1 13.8 -2.6
v 2.1 13.8 -2.5
v 2.2 13.8 -2.5
v 2.2 13.8 -2.6
v 2.1 13.7 -2.5
v 2.1 13.7 -2.6
v 2.2 13.7 -2.6
v 2.2 13.7 -2.5
v 2.1 13.8 -2.5
v 2.1 13.7 -2.5
v 2.2 13.7 -2.5
v 2.2 13.8 -2.5
v 2.2 13.8 -2.6
v 2.2 13.7 -2.6
v 2.1 13.7 -2.6
v 2.1 13.8 -2.6
v 2.3 13.8 -2.6
v 2.3 13.7 -2.6
v 2.3 13.7 -2.5
v 2.3 13.8 -2.5
v 2.3 13.8 -2.5
v 2.3 13.7 -2.5
v 2.4 13.7 -2.5
v 2.4 13.8 -2.5
v 2.4 13.8 -2.6
v 2.4 13.7 -2.6
v 2.3 13.7 -2.6
v 2.3 13.8 -2.6
v 2.5 13.8 -2.5
v 2.5 13.7 -2.5
v 2.5 13.7 -2.6
v 2.5 13.8 -2.6
v 2.4 13.8 -2.5
v 2.4 13.7 -2.5
v 2.5 13.7 -2.5
v 2.5 13.8 -2.5
v 2.5 13.8 -2.6
v 2.5 13.7 -2.6
v 2.4 13.7 -2.6
v 2.4 13.8 -2.6
v 1.4 13.7 -2.6
v 1.4 13.6 -2.6
v 1.4 13.6 -2.5
v 1.4 13.7 -2.5
v 1.4 13.7 -2.6
v 1.4 13.7 -2.5
v 1.5 13.7 -2.5
v 1.5 13.7 -2.6
v 1.4 13.7 -2.5
v 1.4 13.6 -2.5
v 1.5 13.6 -2.5
v 1.5 13.7 -2.5
v 1.5 13.7 -2.6
v 1.5 13.6 -2.6
v 1.4 13.6 -2.6
v 1.4 13.7 -2.6
v 1.6 13.7 -2.5
v 1.6 13.6 -2.5
v 1.6 13.6 -2.6
v 1.6 13.7 -2.6
v 1.5 13.6 -2.5
v 1.5 13.6 -2.6
v 1.6 13.6 -2.6
v 1.6 13.6 -2.5
v 1.5 13.7 -2.5
v 1.5 13.6 -2.5
v 1.6 13.6 -2.5
v 1.6 13.7 -2.5
v 1.6 13.7 -2.6
v 1.6 13.6 -2.6
v 1.5 13.6 -2.6
v 1.5 13.7 -2.6
v 2.2 13.7 -2.6
v 2.2 13.6 -2.6
v 2.2 13.6 -2.5
v 2.2 13.7 -2.5
v 2.2 13.7 -2.6
v 2.2 13.7 -2.5
v 2.3 13.7 -2.5
v 2.3 13.7 -2.6
v 2.2 13.7 -2.5
v 2.2 13.6 -2.5
v 2.3 13.6 -2.5
v 2.3 13.7 -2.5
v 2.3 13.7 -2.6
v 2.3 13.6 -2.6
v 2.2 13.6 -2.6
v 2.2 13.7 -2.6
v 2.3 13.7 -2.5
v 2.3 13.6 -2.5
v 2.4 13.6 -2.5
v 2.4 13.7 -2.5
v 2.4 13.7 -2.6
v 2.4 13.6 -2.6
v 2.3 13.6 -2.6
v 2.3 13.7 -2.6
v 2.5 13.7 -2.5
v 2.5 13.6 -2.5
v 2.5 13.6 -2.6
v 2.5 13.7 -2.6
v 2.4 13.6 -2.5
v 2.4 13.6 -2.6
v 2.5 13.6 -2.6
v 2.5 13.6 -2.5
v 2.4 13.7 -2.5
v 2.4 13.6 -2.5
v 2.5 13.6 -2.5
v 2.5 13.7 -2.5
v 2.5 13.7 -2.6
v 2.5 13.6 -2.6
v 2.4 13.6 -2.6
v 2.4 13.7 -2.6
v 1.4 13.6 -2.6
v 1.4 13.5 -2.6
v 1.4 13.5 -2.5
v 1.4 13.6 -2.5
v 1.5 13.6 -2.5
v 1.5 13.5 -2.5
v 1.5 13.5 -2.6
v 1.5 13.6 -2.6
v 1.4 13.5 -2.5
v 1.4 13.5 -2.6
v 1.5 13.5 -2.6
v 1.5 13.5 -2.5
v 1.4 13.6 -2.5
v 1.4 13.5 -2.5
v 1.5 13.5 -2.5
v 1.5 13.6 -2.5
v 1.5 13.6 -2.6
v 1.5 13.5 -2.6
v 1.4 13.5 -2.6
v 1.4 13.6 -2.6
v 2.2 13.6 -2.6
v 2.2 13.5 -2.6
v 2.2 13.5 -2.5
v 2.2 13.6 -2.5
v 2.2 13.6 -2.5
v 2.2 13.5 -2.5
v 2.3 13.5 -2.5
v 2.3 13.6 -2.5
v 2.3 13.6 -2.6
v 2.3 13.5 -2.6
v 2.2 13.5 -2.6
v 2.2 13.6 -2.6
v 2.4 13.6 -2.5
v 2.4 13.5 -2.5
v 2.4 13.5 -2.6
v 2.4 13.6 -2.6
v 2.3 13.6 -2.5
v 2.3 13.5 -2.5
v 2.4 13.5 -2.5
v 2.4 13.6 -2.5
v 2.4 13.6 -2.6
v 2.4 13.5 -2.6
v 2.3 13.5 -2.6
v 2.3 13.6 -2.6
v 2.6 13.6 -2.6
v 2.6 13.5 -2.6
v 2.6 13.5 -2.5
v 2.6 13.6 -2.5
v 2.7 13.6 -2.5
v 2.7 13.5 -2.5
v 2.7 13.5 -2.6
v 2.7 13.6 -2.6
v 2.6 13.6 -2.6
v 2.6 13.6 -2.5
v 2.7 13.6 -2.5
v 2.7 13.6 -2.6
v 2.6 13.5 -2.5
v 2.6 13.5 -2.6
v 2.7 13.5 -2.6
v 2.7 13.5 -2.5
v 2.6 13.6 -2.5
v 2.6 13.5 -2.5
v 2.7 13.5 -2.5
v 2.7 13.6 -2.5
v 2.7 13.6 -2.6
v 2.7 13.5 -2.6
v 2.6 13.5 -2.6
v 2.6 13.6 -2.6
v 2.2 13.5 -2.6
v 2.2 13.4 -2.6
v 2.2 13.4 -2.5
v 2.2 13.5 -2.5
v 2.2 13.5 -2.5
v 2.2 13.4 -2.5
v 2.3 13.4 -2.5
v 2.3 13.5 -2.5
v 2.3 13.5 -2.6
v 2.3 13.4 -2.6
v 2.2 13.4 -2.6
v 2.2 13.5 -2.6
v 2.4 13.5 -2.5
v 2.4 13.4 -2.5
v 2.4 13.4 -2.6
v 2.4 13.5 -2.6
v 2.3 13.4 -2.5
v 2.3 13.4 -2.6
v 2.4 13.4 -2.6
v 2.4 13.4 -2.5
v 2.3 13.5 -2.5
v 2.3 13.4 -2.5
v 2.4 13.4 -2.5
v 2.4 13.5 -2.5
v 2.4 13.5 -2.6
v 2.4 13.4 -2.6
v 2.3 13.4 -2.6
v 2.3 13.5 -2.6
v 2.2 13.4 -2.6
v 2.2 13.3 -2.6
v 2.2 13.3 -2.5
v 2.2 13.4 -2.5
v 2.3 13.4 -2.5
v 2.3 13.3 -2.5
v 2.3 13.3 -2.6
v 2.3 13.4 -2.6
v 2.2 13.3 -2.5
v 2.2 13.3 -2.6
v 2.3 13.3 -2.6
v 2.3 13.3 -2.5
v 2.2 13.4 -2.5
v 2.2 13.3 -2.5
v 2.3 13.3 -2.5
v 2.3 13.4 -2.5
v 2.3 13.4 -2.6
v 2.3 13.3 -2.6
v 2.2 13.3 -2.6
v 2.2 13.4 -2.6
v 2.3 13.1 -2.6
v 2.3 13 -2.6
v 2.3 13 -2.5
v 2.3 13.1 -2.5
v 2.4 13.1 -2.5
v 2.4 13 -2.5
v 2.4 13 -2.6
v 2.4 13.1 -2.6
v 2.3 13.1 -2.6
v 2.3 13.1 -2.5
v 2.4 13.1 -2.5
v 2.4 13.1 -2.6
v 2.3 13 -2.5
v 2.3 13 -2.6
v 2.4 13 -2.6
v 2.4 13 -2.5
v 2.3 13.1 -2.5
v 2.3 13 -2.5
v 2.4 13 -2.5
v 2.4 13.1 -2.5
v 2.4 13.1 -2.6
v 2.4 13 -2.6
v 2.3 13 -2.6
v 2.3 13.1 -2.6
v 13.7 12.7 -2.6
v 13.7 12.6 -2.6
v 13.7 12.6 -2.5
v 13.7 12.7 -2.5
v 13.7 12.7 -2.6
v 13.7 12.7 -2.5
v 13.8 12.7 -2.5
v 13.8 12.7 -2.6
v 13.7 12.7 -2.5
v 13.7 12.6 -2.5
v 13.8 12.6 -2.5
v 13.8 12.7 -2.5
v 13.8 12.7 -2.6
v 13.8 12.6 -2.6
v 13.7 12.6 -2.6
v 13.7 12.7 -2.6
v 13.9 12.7 -2.5
v 13.9 12.6 -2.5
v 13.9 12.6 -2.6
v 13.9 12.7 -2.6
v 13.8 12.7 -2.6
v 13.8 12.7 -2.5
v 13.9 12.7 -2.5
v 13.9 12.7 -2.6
v 13.8 12.7 -2.5
v 13.8 12.6 -2.5
v 13.9 12.6 -2.5
v 13.9 12.7 -2.5
v 13.9 12.7 -2.6
v 13.9 12.6 -2.6
v 13.8 12.6 -2.6
v 13.8 12.7 -2.6
v 13.3 12.6 -2.6
v 13.3 12.5 -2.6
v 13.3 12.5 -2.5
v 13.3 12.6 -2.5
v 13.4 12.6 -2.5
v 13.4 12.5 -2.5
v 13.4 12.5 -2.6
v 13.4 12.6 -2.6
v 13.3 12.6 -2.6
v 13.3 12.6 -2.5
v 13.4 12.6 -2.5
v 13.4 12.6 -2.6
v 13.3 12.6 -2.5
v 13.3 12.5 -2.5
v 13.4 12.5 -2.5
v 13.4 12.6 -2.5
v 13.4 12.6 -2.6
v 13.4 12.5 -2.6
v 13.3 12.5 -2.6
v 13.3 12.6 -2.6
v 13.6 12.6 -2.6
v 13.6 12.5 -2.6
v 13.6 12.5 -2.5
v 13.6 12.6 -2.5
v 13.6 12.6 -2.6
v 13.6 12.6 -2.5
v 13.7 12.6 -2.5
v 13.7 12.6 -2.6
v 13.6 12.6 -2.5
v 13.6 12.5 -2.5
v 13.7 12.5 -2.5
v 13.7 12.6 -2.5
v 13.7 12.6 -2.6
v 13.7 12.5 -2.6
v 13.6 12.5 -2.6
v 13.6 12.6 -2.6
v 13.7 12.6 -2.5
v 13.7 12.5 -2.5
v 13.8 12.5 -2.5
v 13.8 12.6 -2.5
v 13.8 12.6 -2.6
v 13.8 12.5 -2.6
v 13.7 12.5 -2.6
v 13.7 12.6 -2.6
v 13.9 12.6 -2.5
v 13.9 12.5 -2.5
v 13.9 12.5 -2.6
v 13.9 12.6 -2.6
v 13.8 12.6 -2.5
v 13.8 12.5 -2.5
v 13.9 12.5 -2.5
v 13.9 12.6 -2.5
v 13.9 12.6 -2.6
v 13.9 12.5 -2.6
v 13.8 12.5 -2.6
v 13.8 12.6 -2.6
v 13.2 12.5 -2.6
v 13.2 12.4 -2.6
v 13.2 12.4 -2.5
v 13.2 12.5 -2.5
v 13.2 12.5 -2.6
v 13.2 12.5 -2.5
v 13.3 12.5 -2.5
v 13.3 12.5 -2.6
v 13.2 12.5 -2.5
v 13.2 12.4 -2.5
v 13.3 12.4 -2.5
v 13.3 12.5 -2.5
v 13.3 12.5 -2.6
v 13.3 12.4 -2.6
v 13.2 12.4 -2.6
v 13.2 12.5 -2.6
v 13.3 12.5 -2.5
v 13.3 12.4 -2.5
v 13.4 12.4 -2.5
v 13.4 12.5 -2.5
v 13.4 12.5 -2.6
v 13.4 12.4 -2.6
v 13.3 12.4 -2.6
v 13.3 12.5 -2.6
v 13.4 12.5 -2.6
v 13.4 12.5 -2.5
v 13.5 12.5 -2.5
v 13.5 12.5 -2.6
v 13.4 12.5 -2.5
v 13.4 12.4 -2.5
v 13.5 12.4 -2.5
v 13.5 12.5 -2.5
v 13.5 12.5 -2.6
v 13.5 12.4 -2.6
v 13.4 12.4 -2.6
v 13.4 12.5 -2.6
v 13.5 12.5 -2.6
v 13.5 12.5 -2.5
v 13.6 12.5 -2.5
v 13.6 12.5 -2.6
v 13.5 12.5 -2.5
v 13.5 12.4 -2.5
v 13.6 12.4 -2.5
v 13.6 12.5 -2.5
v 13.6 12.5 -2.6
v 13.6 12.4 -2.6
v 13.5 12.4 -2.6
v 13.5 12.5 -2.6
v 13.6 12.5 -2.5
v 13.6 12.4 -2.5
v 13.7 12.4 -2.5
v 13.7 12.5 -2.5
v 13.7 12.5 -2.6
v 13.7 12.4 -2.6
v 13.6 12.4 -2.6
v 13.6 12.5 -2.6
v 13.7 12.5 -2.5
v 13.7 12.4 -2.5
v 13.8 12.4 -2.5
v 13.8 12.5 -2.5
v 13.8 12.5 -2.6
v 13.8 12.4 -2.6
v 13.7 12.4 -2.6
v 13.7 12.5 -2.6
v 13.9 12.5 -2.5
v 13.9 12.4 -2.5
v 13.9 12.4 -2.6
v 13.9 12.5 -2.6
v 13.8 12.4 -2.5
v 13.8 12.4 -2.6
v 13.9 12.4 -2.6
v 13.9 12.4 -2.5
v 13.8 12.5 -2.5
v 13.8 12.4 -2.5
v 13.9 12.4 -2.5
v 13.9 12.5 -2.5
v 13.9 12.5 -2.6
v 13.9 12.4 -2.6
v 13.8 12.4 -2.6
v 13.8 12.5 -2.6
v 13.1 12.4 -2.6
v 13.1 12.3 -2.6
v 13.1 12.3 -2.5
v 13.1 12.4 -2.5
v 13.1 12.4 -2.6
v 13.1 12.4 -2.5
v 13.2 12.4 -2.5
v 13.2 12.4 -2.6
v 13.1 12.4 -2.5
v 13.1 12.3 -2.5
v 13.2 12.3 -2.5
v 13.2 12.4 -2.5
v 13.2 12.4 -2.6
v 13.2 12.3 -2.6
v 13.1 12.3 -2.6
v 13.1 12.4 -2.6
v 13.2 12.3 -2.5
v 13.2 12.3 -2.6
v 13.3 12.3 -2.6
v 13.3 12.3 -2.5
v 13.2 12.4 -2.5
v 13.2 12.3 -2.5
v 13.3 12.3 -2.5
v 13.3 12.4 -2.5
v 13.3 12.4 -2.6
v 13.3 12.3 -2.6
v 13.2 12.3 -2.6
v 13.2 12.4 -2.6
v 13.3 12.3 -2.5
v 13.3 12.3 -2.6
v 13.4 12.3 -2.6
v 13.4 12.3 -2.5
v 13.3 12.4 -2.5
v 13.3 12.3 -2.5
v 13.4 12.3 -2.5
v 13.4 12.4 -2.5
v 13.4 12.4 -2.6
v 13.4 12.3 -2.6
v 13.3 12.3 -2.6
v 13.3 12.4 -2.6
v 13.4 12.3 -2.5
v 13.4 12.3 -2.6
v 13.5 12.3 -2.6
v 13.5 12.3 -2.5
v 13.4 12.4 -2.5
v 13.4 12.3 -2.5
v 13.5 12.3 -2.5
v 13.5 12.4 -2.5
v 13.5 12.4 -2.6
v 13.5 12.3 -2.6
v 13.4 12.3 -2.6
v 13.4 12.4 -2.6
v 13.5 12.4 -2.5
v 13.5 12.3 -2.5
v 13.6 12.3 -2.5
v 13.6 12.4 -2.5
v 13.6 12.4 -2.6
v 13.6 12.3 -2.6
v 13.5 12.3 -2.6
v 13.5 12.4 -2.6
v 13.6 12.4 -2.5
v 13.6 12.3 -2.5
v 13.7 12.3 -2.5
v 13.7 12.4 -2.5
v 13.7 12.4 -2.6
v 13.7 12.3 -2.6
v 13.6 12.3 -2.6
v 13.6 12.4 -2.6
v 13.8 12.4 -2.5
v 13.8 12.3 -2.5
v 13.8 12.3 -2.6
v 13.8 12.4 -2.6
v 13.7 12.4 -2.5
v 13.7 12.3 -2.5
v 13.8 12.3 -2.5
v 13.8 12.4 -2.5
v 13.8 12.4 -2.6
v 13.8 12.3 -2.6
v 13.7 12.3 -2.6
v 13.7 12.4 -2.6
v 12.8 12.3 -2.6
v 12.8 12.2 -2.6
v 12.8 12.2 -2.5
v 12.8 12.3 -2.5
v 12.8 12.3 -2.6
v 12.8 12.3 -2.5
v 12.9 12.3 -2.5
v 12.9 12.3 -2.6
v 12.8 12.2 -2.5
v 12.8 12.2 -2.6
v 12.9 12.2 -2.6
v 12.9 12.2 -2.5
v 12.8 12.3 -2.5
v 12.8 12.2 -2.5
v 12.9 12.2 -2.5
v 12.9 12.3 -2.5
v 12.9 12.3 -2.6
v 12.9 12.2 -2.6
v 12.8 12.2 -2.6
v 12.8 12.3 -2.6
v 12.9 12.3 -2.6
v 12.9 12.3 -2.5
v 13 12.3 -2.5
v 13 12.3 -2.6
v 12.9 12.2 -2.5
v 12.9 12.2 -2.6
v 13 12.2 -2.6
v 13 12.2 -2.5
v 12.9 12.3 -2.5
v 12.9 12.2 -2.5
v 13 12.2 -2.5
v 13 12.3 -2.5
v 13 12.3 -2.6
v 13 12.2 -2.6
v 12.9 12.2 -2.6
v 12.9 12.3 -2.6
v 13 12.3 -2.6
v 13 12.3 -2.5
v 13.1 12.3 -2.5
v 13.1 12.3 -2.6
v 13 12.2 -2.5
v 13 12.2 -2.6
v 13.1 12.2 -2.6
v 13.1 12.2 -2.5
v 13 12.3 -2.5
v 13 12.2 -2.5
v 13.1 12.2 -2.5
v 13.1 12.3 -2.5
v 13.1 12.3 -2.6
v 13.1 12.2 -2.6
v 13 12.2 -2.6
v 13 12.3 -2.6
v 13.2 12.3 -2.5
v 13.2 12.2 -2.5
v 13.2 12.2 -2.6
v 13.2 12.3 -2.6
v 13.1 12.2 -2.5
v 13.1 12.2 -2.6
v 13.2 12.2 -2.6
v 13.2 12.2 -2.5
v 13.1 12.3 -2.5
v 13.1 12.2 -2.5
v 13.2 12.2 -2.5
v 13.2 12.3 -2.5
v 13.2 12.3 -2.6
v 13.2 12.2 -2.6
v 13.1 12.2 -2.6
v 13.1 12.3 -2.6
v 13.5 12.3 -2.6
v 13.5 12.2 -2.6
v 13.5 12.2 -2.5
v 13.5 12.3 -2.5
v 13.5 12.2 -2.5
v 13.5 12.2 -2.6
v 13.6 12.2 -2.6
v 13.6 12.2 -2.5
v 13.5 12.3 -2.5
v 13.5 12.2 -2.5
v 13.6 12.2 -2.5
v 13.6 12.3 -2.5
v 13.6 12.3 -2.6
v 13.6 12.2 -2.6
v 13.5 12.2 -2.6
v 13.5 12.3 -2.6
v 13.6 12.2 -2.5
v 13.6 12.2 -2.6
v 13.7 12.2 -2.6
v 13.7 12.2 -2.5
v 13.6 12.3 -2.5
v 13.6 12.2 -2.5
v 13.7 12.2 -2.5
v 13.7 12.3 -2.5
v 13.7 12.3 -2.6
v 13.7 12.2 -2.6
v 13.6 12.2 -2.6
v 13.6 12.3 -2.6
v 13.8 12.3 -2.5
v 13.8 12.2 -2.5
v 13.8 12.2 -2.6
v 13.8 12.3 -2.6
v 13.7 12.2 -2.5
v 13.7 12.2 -2.6
v 13.8 12.2 -2.6
v 13.8 12.2 -2.5
v 13.7 12.3 -2.5
v 13.7 12.2 -2.5
v 13.8 12.2 -2.5
v 13.8 12.3 -2.5
v 13.8 12.3 -2.6
v 13.8 12.2 -2.6
v 13.7 12.2 -2.6
v 13.7 12.3 -2.6
v 12.5 12.2 -2.6
v 12.5 12.1 -2.6
v 12.5 12.1 -2.5
v 12.5 12.2 -2.5
v 12.6 12.2 -2.5
v 12.6 12.1 -2.5
v 12.6 12.1 -2.6
v 12.6 12.2 -2.6
v 12.5 12.2 -2.6
v 12.5 12.2 -2.5
v 12.6 12.2 -2.5
v 12.6 12.2 -2.6
v 12.5 12.1 -2.5
v 12.5 12.1 -2.6
v 12.6 12.1 -2.6
v 12.6 12.1 -2.5
v 12.5 12.2 -2.5
v 12.5 12.1 -2.5
v 12.6 12.1 -2.5
v 12.6 12.2 -2.5
v 12.6 12.2 -2.6
v 12.6 12.1 -2.6
v 12.5 12.1 -2.6
v 12.5 12.2 -2.6
v 23.9 0.7 -2.6
v 23.9 0.6 -2.6
v 23.9 0.6 -2.5
v 23.9 0.7 -2.5
v 23.9 0.7 -2.6
v 23.9 0.7 -2.5
v 24 0.7 -2.5
v 24 0.7 -2.6
v 23.9 0.7 -2.5
v 23.9 0.6 -2.5
v 24 0.6 -2.5
v 24 0.7 -2.5
v 24 0.7 -2.6
v 24 0.6 -2.6
v 23.9 0.6 -2.6
v 23.9 0.7 -2.6
v 24 0.7 -2.6
v 24 0.7 -2.5
v 24.1 0.7 -2.5
v 24.1 0.7 -2.6
v 24 0.7 -2.5
v 24 0.6 -2.5
v 24.1 0.6 -2.5
v 24.1 0.7 -2.5
v 24.1 0.7 -2.6
v 24.1 0.6 -2.6
v 24 0.6 -2.6
v 24 0.7 -2.6
v 24.1 0.7 -2.6
v 24.1 0.7 -2.5
v 24.2 0.7 -2.5
v 24.2 0.7 -2.6
v 24.1 0.7 -2.5
v 24.1 0.6 -2.5
v 24.2 0.6 -2.5
v 24.2 0.7 -2.5
v 24.2 0.7 -2.6
v 24.2 0.6 -2.6
v 24.1 0.6 -2.6
v 24.1 0.7 -2.6
v 24.3 0.7 -2.5
v 24.3 0.6 -2.5
v 24.3 0.6 -2.6
v 24.3 0.7 -2.6
v 24.2 0.7 -2.6
v 24.2 0.7 -2.5
v 24.3 0.7 -2.5
v 24.3 0.7 -2.6
v 24.2 0.7 -2.5
v 24.2 0.6 -2.5
v 24.3 0.6 -2.5
v 24.3 0.7 -2.5
v 24.3 0.7 -2.6
v 24.3 0.6 -2.6
v 24.2 0.6 -2.6
v 24.2 0.7 -2.6
v 23.7 0.6 -2.6
v 23.7 0.5 -2.6
v 23.7 0.5 -2.5
v 23.7 0.6 -2.5
v 23.7 0.6 -2.6
v 23.7 0.6 -2.5
v 23.8 0.6 -2.5
v 23.8 0.6 -2.6
v 23.7 0.6 -2.5
v 23.7 0.5 -2.5
v 23.8 0.5 -2.5
v 23.8 0.6 -2.5
v 23.8 0.6 -2.6
v 23.8 0.5 -2.6
v 23.7 0.5 -2.6
v 23.7 0.6 -2.6
v 23.8 0.6 -2.6
v 23.8 0.6 -2.5
v 23.9 0.6 -2.5
v 23.9 0.6 -2.6
v 23.8 0.6 -2.5
v 23.8 0.5 -2.5
v 23.9 0.5 -2.5
v 23.9 0.6 -2.5
v 23.9 0.6 -2.6
v 23.9 0.5 -2.6
v 23.8 0.5 -2.6
v 23.8 0.6 -2.6
v 23.9 0.6 -2.5
v 23.9 0.5 -2.5
v 24 0.5 -2.5
v 24 0.6 -2.5
v 24 0.6 -2.6
v 24 0.5 -2.6
v 23.9 0.5 -2.6
v 23.9 0.6 -2.6
v 24 0.6 -2.5
v 24 0.5 -2.5
v 24.1 0.5 -2.5
v 24.1 0.6 -2.5
v 24.1 0.6 -2.6
v 24.1 0.5 -2.6
v 24 0.5 -2.6
v 24 0.6 -2.6
v 24.1 0.6 -2.5
v 24.1 0.5 -2.5
v 24.2 0.5 -2.5
v 24.2 0.6 -2.5
v 24.2 0.6 -2.6
v 24.2 0.5 -2.6
v 24.1 0.5 -2.6
v 24.1 0.6 -2.6
v 24.2 0.6 -2.5
v 24.2 0.5 -2.5
v 24.3 0.5 -2.5
v 24.3 0.6 -2.5
v 24.3 0.6 -2.6
v 24.3 0.5 -2.6
v 24.2 0.5 -2.6
v 24.2 0.6 -2.6
v 24.3 0.6 -2.6
v 24.3 0.6 -2.5
v 24.4 0.6 -2.5
v 24.4 0.6 -2.6
v 24.3 0.6 -2.5
v 24.3 0.5 -2.5
v 24.4 0.5 -2.5
v 24.4 0.6 -2.5
v 24.4 0.6 -2.6
v 24.4 0.5 -2.6
v 24.3 0.5 -2.6
v 24.3 0.6 -2.6
v 24.5 0.6 -2.5
v 24.5 0.5 -2.5
v 24.5 0.5 -2.6
v 24.5 0.6 -2.6
v 24.4 0.6 -2.6
v 24.4 0.6 -2.5
v 24.5 0.6 -2.5
v 24.5 0.6 -2.6
v 24.4 0.6 -2.5
v 24.4 0.5 -2.5
v 24.5 0.5 -2.5
v 24.5 0.6 -2.5
v 24.5 0.6 -2.6
v 24.5 0.5 -2.6
v 24.4 0.5 -2.6
v 24.4 0.6 -2.6
v 23.6 0.5 -2.6
v 23.6 0.4 -2.6
v 23.6 0.4 -2.5
v 23.6 0.5 -2.5
v 23.6 0.5 -2.6
v 23.6 0.5 -2.5
v 23.7 0.5 -2.5
v 23.7 0.5 -2.6
v 23.6 0.4 -2.5
v 23.6 0.4 -2.6
v 23.7 0.4 -2.6
v 23.7 0.4 -2.5
v 23.6 0.5 -2.5
v 23.6 0.4 -2.5
v 23.7 0.4 -2.5
v 23.7 0.5 -2.5
v 23.7 0.5 -2.6
v 23.7 0.4 -2.6
v 23.6 0.4 -2.6
v 23.6 0.5 -2.6
v 23.7 0.5 -2.5
v 23.7 0.4 -2.5
v 23.8 0.4 -2.5
v 23.8 0.5 -2.5
v 23.8 0.5 -2.6
v 23.8 0.4 -2.6
v 23.7 0.4 -2.6
v 23.7 0.5 -2.6
v 23.8 0.5 -2.5
v 23.8 0.4 -2.5
v 23.9 0.4 -2.5
v 23.9 0.5 -2.5
v 23.9 0.5 -2.6
v 23.9 0.4 -2.6
v 23.8 0.4 -2.6
v 23.8 0.5 -2.6
v 23.9 0.5 -2.5
v 23.9 0.4 -2.5
v 24 0.4 -2.5
v 24 0.5 -2.5
v 24 0.5 -2.6
v 24 0.4 -2.6
v 23.9 0.4 -2.6
v 23.9 0.5 -2.6
v 24 0.5 -2.5
v 24 0.4 -2.5
v 24.1 0.4 -2.5
v 24.1 0.5 -2.5
v 24.1 0.5 -2.6
v 24.1 0.4 -2.6
v 24 0.4 -2.6
v 24 0.5 -2.6
v 24.1 0.5 -2.5
v 24.1 0.4 -2.5
v 24.2 0.4 -2.5
v 24.2 0.5 -2.5
v 24.2 0.5 -2.6
v 24.2 0.4 -2.6
v 24.1 0.4 -2.6
v 24.1 0.5 -2.6
v 24.2 0.5 -2.5
v 24.2 0.4 -2.5
v 24.3 0.4 -2.5
v 24.3 0.5 -2.5
v 24.3 0.5 -2.6
v 24.3 0.4 -2.6
v 24.2 0.4 -2.6
v 24.2 0.5 -2.6
v 24.3 0.5 -2.5
v 24.3 0.4 -2.5
v 24.4 0.4 -2.5
v 24.4 0.5 -2.5
v 24.4 0.5 -2.6
v 24.4 0.4 -2.6
v 24.3 0.4 -2.6
v 24.3 0.5 -2.6
v 24.4 0.5 -2.5
v 24.4 0.4 -2.5
v 24.5 0.4 -2.5
v 24.5 0.5 -2.5
v 24.5 0.5 -2.6
v 24.5 0.4 -2.6
v 24.4 0.4 -2.6
v 24.4 0.5 -2.6
v 24.6 0.5 -2.5
v 24.6 0.4 -2.5
v 24.6 0.4 -2.6
v 24.6 0.5 -2.6
v 24.5 0.5 -2.6
v 24.5 0.5 -2.5
v 24.6 0.5 -2.5
v 24.6 0.5 -2.6
v 24.5 0.4 -2.5
v 24.5 0.4 -2.6
v 24.6 0.4 -2.6
v 24.6 0.4 -2.5
v 24.5 0.5 -2.5
v 24.5 0.4 -2.5
v 24.6 0.4 -2.5
v 24.6 0.5 -2.5
v 24.6 0.5 -2.6
v 24.6 0.4 -2.6
v 24.5 0.4 -2.6
v 24.5 0.5 -2.6
v 23.7 0.4 -2.6
v 23.7 0.3 -2.6
v 23.7 0.3 -2.5
v 23.7 0.4 -2.5
v 23.7 0.3 -2.5
v 23.7 0.3 -2.6
v 23.8 0.3 -2.6
v 23.8 0.3 -2.5
v 23.7 0.4 -2.5
v 23.7 0.3 -2.5
v 23.8 0.3 -2.5
v 23.8 0.4 -2.5
v 23.8 0.4 -2.6
v 23.8 0.3 -2.6
v 23.7 0.3 -2.6
v 23.7 0.4 -2.6
v 23.8 0.3 -2.5
v 23.8 0.3 -2.6
v 23.9 0.3 -2.6
v 23.9 0.3 -2.5
v 23.8 0.4 -2.5
v 23.8 0.3 -2.5
v 23.9 0.3 -2.5
v 23.9 0.4 -2.5
v 23.9 0.4 -2.6
v 23.9 0.3 -2.6
v 23.8 0.3 -2.6
v 23.8 0.4 -2.6
v 23.9 0.4 -2.5
v 23.9 0.3 -2.5
v 24 0.3 -2.5
v 24 0.4 -2.5
v 24 0.4 -2.6
v 24 0.3 -2.6
v 23.9 0.3 -2.6
v 23.9 0.4 -2.6
v 24 0.4 -2.5
v 24 0.3 -2.5
v 24.1 0.3 -2.5
v 24.1 0.4 -2.5
v 24.1 0.4 -2.6
v 24.1 0.3 -2.6
v 24 0.3 -2.6
v 24 0.4 -2.6
v 24.1 0.4 -2.5
v 24.1 0.3 -2.5
v 24.2 0.3 -2.5
v 24.2 0.4 -2.5
v 24.2 0.4 -2.6
v 24.2 0.3 -2.6
v 24.1 0.3 -2.6
v 24.1 0.4 -2.6
v 24.2 0.4 -2.5
v 24.2 0.3 -2.5
v 24.3 0.3 -2.5
v 24.3 0.4 -2.5
v 24.3 0.4 -2.6
v 24.3 0.3 -2.6
v 24.2 0.3 -2.6
v 24.2 0.4 -2.6
v 24.3 0.3 -2.5
v 24.3 0.3 -2.6
v 24.4 0.3 -2.6
v 24.4 0.3 -2.5
v 24.3 0.4 -2.5
v 24.3 0.3 -2.5
v 24.4 0.3 -2.5
v 24.4 0.4 -2.5
v 24.4 0.4 -2.6
v 24.4 0.3 -2.6
v 24.3 0.3 -2.6
v 24.3 0.4 -2.6
v 24.5 0.4 -2.5
v 24.5 0.3 -2.5
v 24.5 0.3 -2.6
v 24.5 0.4 -2.6
v 24.4 0.3 -2.5
v 24.4 0.3 -2.6
v 24.5 0.3 -2.6
v 24.5 0.3 -2.5
v 24.4 0.4 -2.5
v 24.4 0.3 -2.5
v 24.5 0.3 -2.5
v 24.5 0.4 -2.5
v 24.5 0.4 -2.6
v 24.5 0.3 -2.6
v 24.4 0.3 -2.6
v 24.4 0.4 -2.6
v 23.9 0.3 -2.6
v 23.9 0.2 -2.6
v 23.9 0.2 -2.5
v 23.9 0.3 -2.5
v 23.9 0.2 -2.5
v 23.9 0.2 -2.6
v 24 0.2 -2.6
v 24 0.2 -2.5
v 23.9 0.3 -2.5
v 23.9 0.2 -2.5
v 24 0.2 -2.5
v 24 0.3 -2.5
v 24 0.3 -2.6
v 24 0.2 -2.6
v 23.9 0.2 -2.6
v 23.9 0.3 -2.6
v 24 0.2 -2.5
v 24 0.2 -2.6
v 24.1 0.2 -2.6
v 24.1 0.2 -2.5
v 24 0.3 -2.5
v 24 0.2 -2.5
v 24.1 0.2 -2.5
v 24.1 0.3 -2.5
v 24.1 0.3 -2.6
v 24.1 0.2 -2.6
v 24 0.2 -2.6
v 24 0.3 -2.6
v 24.1 0.2 -2.5
v 24.1 0.2 -2.6
v 24.2 0.2 -2.6
v 24.2 0.2 -2.5
v 24.1 0.3 -2.5
v 24.1 0.2 -2.5
v 24.2 0.2 -2.5
v 24.2 0.3 -2.5
v 24.2 0.3 -2.6
v 24.2 0.2 -2.6
v 24.1 0.2 -2.6
v 24.1 0.3 -2.6
v 24.3 0.3 -2.5
v 24.3 0.2 -2.5
v 24.3 0.2 -2.6
v 24.3 0.3 -2.6
v 24.2 0.2 -2.5
v 24.2 0.2 -2.6
v 24.3 0.2 -2.6
v 24.3 0.2 -2.5
v 24.2 0.3 -2.5
v 24.2 0.2 -2.5
v 24.3 0.2 -2.5
v 24.3 0.3 -2.5
v 24.3 0.3 -2.6
v 24.3 0.2 -2.6
v 24.2 0.2 -2.6
v 24.2 0.3 -2.6

# faces
f 1/2/1 2/2/1 3/2/1 4/2/1
f 5/2/2 6/2/2 7/2/2 8/2/2
f 9/2/3 10/2/3 11/2/3 12/2/3
f 13/2/4 14/2/4 15/2/4 16/2/4
f 17/2/5 18/2/5 19/2/5 20/2/5
f 21/2/6 22/2/6 23/2/6 24/2/6
f 25/2/1 26/2/1 27/2/1 28/2/1
f 29/2/2 30/2/2 31/2/2 32/2/2
f 33/2/3 34/2/3 35/2/3 36/2/3
f 37/2/4 38/2/4 39/2/4 40/2/4
f 41/2/5 42/2/5 43/2/5 44/2/5
f 45/2/6 46/2/6 47/2/6 48/2/6
f 49/2/1 50/2/1 51/2/1 52/2/1
f 53/2/2 54/2/2 55/2/2 56/2/2
f 57/2/3 58/2/3 59/2/3 60/2/3
f 61/2/5 62/2/5 63/2/5 64/2/5
f 65/2/6 66/2/6 67/2/6 68/2/6
f 69/2/1 70/2/1 71/2/1 72/2/1
f 73/2/2 74/2/2 75/2/2 76/2/2
f 77/2/3 78/2/3 79/2/3 80/2/3
f 81/2/5 82/2/5 83/2/5 84/2/5
f 85/2/6 86/2/6 87/2/6 88/2/6
f 89/2/1 90/2/1 91/2/1 92/2/1
f 93/2/3 94/2/3 95/2/3 96/2/3
f 97/2/5 98/2/5 99/2/5 100/2/5
f 101/2/6 102/2/6 103/2/6 104/2/6
f 105/2/2 106/2/2 107/2/2 108/2/2
f 109/2/4 110/2/4 111/2/4 112/2/4
f 113/2/5 114/2/5 115/2/5 116/2/5
f 117/2/6 118/2/6 119/2/6 120/2/6
f 121/2/1 122/2/1 123/2/1 124/2/1
f 125/2/3 126/2/3 127/2/3 128/2/3
f 129/2/4 130/2/4 131/2/4 132/2/4
f 133/2/5 134/2/5 135/2/5 136/2/5
f 137/2/6 138/2/6 139/2/6 140/2/6
f 141/2/2 142/2/2 143/2/2 144/2/2
f 145/2/5 146/2/5 147/2/5 148/2/5
f 149/2/6 150/2/6 151/2/6 152/2/6
f 153/2/1 154/2/1 155/2/1 156/2/1
f 157/2/2 158/2/2 159/2/2 160/2/2
f 161/2/4 162/2/4 163/2/4 164/2/4
f 165/2/5 166/2/5 167/2/5 168/2/5
f 169/2/6 170/2/6 171/2/6 172/2/6
f 173/2/1 174/2/1 175/2/1 176/2/1
f 177/2/2 178/2/2 179/2/2 180/2/2
f 181/2/5 182/2/5 183/2/5 184/2/5
f 185/2/6 186/2/6 187/2/6 188/2/6
f 189/2/1 190/2/1 191/2/1 192/2/1
f 193/2/2 194/2/2 195/2/2 196/2/2
f 197/2/5 198/2/5 199/2/5 200/2/5
f 201/2/6 202/2/6 203/2/6 204/2/6
f 205/2/1 206/2/1 207/2/1 208/2/1
f 209/2/5 210/2/5 211/2/5 212/2/5
f 213/2/6 214/2/6 215/2/6 216/2/6
f 217/2/2 218/2/2 219/2/2 220/2/2
f 221/2/3 222/2/3 223/2/3 224/2/3
f 225/2/5 226/2/5 227/2/5 228/2/5
f 229/2/6 230/2/6 231/2/6 232/2/6
f 233/2/1 234/2/1 235/2/1 236/2/1
f 237/2/2 238/2/2 239/2/2 240/2/2
f 241/2/3 242/2/3 243/2/3 244/2/3
f 245/2/5 246/2/5 247/2/5 248/2/5
f 249/2/6 250/2/6 251/2/6 252/2/6
f 253/2/1 254/2/1 255/2/1 256/2/1
f 257/2/4 258/2/4 259/2/4 260/2/4
f 261/2/5 262/2/5 263/2/5 264/2/5
f 265/2/6 266/2/6 267/2/6 268/2/6
f 269/2/2 270/2/2 271/2/2 272/2/2
f 273/2/5 274/2/5 275/2/5 276/2/5
f 277/2/6 278/2/6 279/2/6 280/2/6
f 281/2/1 282/2/1 283/2/1 284/2/1
f 285/2/2 286/2/2 287/2/2 288/2/2
f 289/2/3 290/2/3 291/2/3 292/2/3
f 293/2/4 294/2/4 295/2/4 296/2/4
f 297/2/5 298/2/5 299/2/5 300/2/5
f 301/2/6 302/2/6 303/2/6 304/2/6
f 305/2/1 306/2/1 307/2/1 308/2/1
f 309/2/3 310/2/3 311/2/3 312/2/3
f 313/2/4 314/2/4 315/2/4 316/2/4
f 317/2/5 318/2/5 319/2/5 320/2/5
f 321/2/6 322/2/6 323/2/6 324/2/6
f 325/2/5 326/2/5 327/2/5 328/2/5
f 329/2/6 330/2/6 331/2/6 332/2/6
f 333/2/2 334/2/2 335/2/2 336/2/2
f 337/2/3 338/2/3 339/2/3 340/2/3
f 341/2/5 342/2/5 343/2/5 344/2/5
f 345/2/6 346/2/6 347/2/6 348/2/6
f 349/2/1 350/2/1 351/2/1 352/2/1
f 353/2/3 354/2/3 355/2/3 356/2/3
f 357/2/4 358/2/4 359/2/4 360/2/4
f 361/2/5 362/2/5 363/2/5 364/2/5
f 365/2/6 366/2/6 367/2/6 368/2/6
f 369/2/3 370/2/3 371/2/3 372/2/3
f 373/2/4 374/2/4 375/2/4 376/2/4
f 377/2/5 378/2/5 379/2/5 380/2/5
f 381/2/6 382/2/6 383/2/6 384/2/6
f 385/2/2 386/2/2 387/2/2 388/2/2
f 389/2/3 390/2/3 391/2/3 392/2/3
f 393/2/4 394/2/4 395/2/4 396/2/4
f 397/2/5 398/2/5 399/2/5 400/2/5
f 401/2/6 402/2/6 403/2/6 404/2/6
f 405/2/1 406/2/1 407/2/1 408/2/1
f 409/2/5 410/2/5 411/2/5 412/2/5
f 413/2/6 414/2/6 415/2/6 416/2/6
f 417/2/2 418/2/2 419/2/2 420/2/2
f 421/2/3 422/2/3 423/2/3 424/2/3
f 425/2/5 426/2/5 427/2/5 428/2/5
f 429/2/6 430/2/6 431/2/6 432/2/6
f 433/2/1 434/2/1 435/2/1 436/2/1
f 437/2/2 438/2/2 439/2/2 440/2/2
f 441/2/3 442/2/3 443/2/3 444/2/3
f 445/2/5 446/2/5 447/2/5 448/2/5
f 449/2/6 450/2/6 451/2/6 452/2/6
f 453/2/1 454/2/1 455/2/1 456/2/1
f 457/2/4 458/2/4 459/2/4 460/2/4
f 461/2/5 462/2/5 463/2/5 464/2/5
f 465/2/6 466/2/6 467/2/6 468/2/6
f 469/2/2 470/2/2 471/2/2 472/2/2
f 473/2/5 474/2/5 475/2/5 476/2/5
f 477/2/6 478/2/6 479/2/6 480/2/6
f 481/2/1 482/2/1 483/2/1 484/2/1
f 485/2/3 486/2/3 487/2/3 488/2/3
f 489/2/5 490/2/5 491/2/5 492/2/5
f 493/2/6 494/2/6 495/2/6 496/2/6
f 497/2/3 498/2/3 499/2/3 500/2/3
f 501/2/4 502/2/4 503/2/4 504/2/4
f 505/2/5 506/2/5 507/2/5 508/2/5
f 509/2/6 510/2/6 511/2/6 512/2/6
f 513/2/2 514/2/2 515/2/2 516/2/2
f 517/2/3 518/2/3 519/2/3 520/2/3
f 521/2/4 522/2/4 523/2/4 524/2/4
f 525/2/5 526/2/5 527/2/5 528/2/5
f 529/2/6 530/2/6 531/2/6 532/2/6
f 533/2/1 534/2/1 535/2/1 536/2/1
f 537/2/3 538/2/3 539/2/3 540/2/3
f 541/2/4 542/2/4 543/2/4 544/2/4
f 545/2/5 546/2/5 547/2/5 548/2/5
f 549/2/6 550/2/6 551/2/6 552/2/6
f 553/2/2 554/2/2 555/2/2 556/2/2
f 557/2/3 558/2/3 559/2/3 560/2/3
f 561/2/5 562/2/5 563/2/5 564/2/5
f 565/2/6 566/2/6 567/2/6 568/2/6
f 569/2/1 570/2/1 571/2/1 572/2/1
f 573/2/4 574/2/4 575/2/4 576/2/4
f 577/2/5 578/2/5 579/2/5 580/2/5
f 581/2/6 582/2/6 583/2/6 584/2/6
f 585/2/5 586/2/5 587/2/5 588/2/5
f 589/2/6 590/2/6 591/2/6 592/2/6
f 593/2/2 594/2/2 595/2/2 596/2/2
f 597/2/3 598/2/3 599/2/3 600/2/3
f 601/2/5 602/2/5 603/2/5 604/2/5
f 605/2/6 606/2/6 607/2/6 608/2/6
f 609/2/1 610/2/1 611/2/1 612/2/1
f 613/2/2 614/2/2 615/2/2 616/2/2
f 617/2/5 618/2/5 619/2/5 620/2/5
f 621/2/6 622/2/6 623/2/6 624/2/6
f 625/2/1 626/2/1 627/2/1 628/2/1
f 629/2/4 630/2/4 631/2/4 632/2/4
f 633/2/5 634/2/5 635/2/5 636/2/5
f 637/2/6 638/2/6 639/2/6 640/2/6
f 641/2/3 642/2/3 643/2/3 644/2/3
f 645/2/4 646/2/4 647/2/4 648/2/4
f 649/2/5 650/2/5 651/2/5 652/2/5
f 653/2/6 654/2/6 655/2/6 656/2/6
f 657/2/3 658/2/3 659/2/3 660/2/3
f 661/2/5 662/2/5 663/2/5 664/2/5
f 665/2/6 666/2/6 667/2/6 668/2/6
f 669/2/2 670/2/2 671/2/2 672/2/2
f 673/2/4 674/2/4 675/2/4 676/2/4
f 677/2/5 678/2/5 679/2/5 680/2/5
f 681/2/6 682/2/6 683/2/6 684/2/6
f 685/2/1 686/2/1 687/2/1 688/2/1
f 689/2/2 690/2/2 691/2/2 692/2/2
f 693/2/3 694/2/3 695/2/3 696/2/3
f 697/2/4 698/2/4 699/2/4 700/2/4
f 701/2/5 702/2/5 703/2/5 704/2/5
f 705/2/6 706/2/6 707/2/6 708/2/6
f 709/2/1 710/2/1 711/2/1 712/2/1
f 713/2/4 714/2/4 715/2/4 716/2/4
f 717/2/5 718/2/5 719/2/5 720/2/5
f 721/2/6 722/2/6 723/2/6 724/2/6
f 725/2/2 726/2/2 727/2/2 728/2/2
f 729/2/3 730/2/3 731/2/3 732/2/3
f 733/2/5 734/2/5 735/2/5 736/2/5
f 737/2/6 738/2/6 739/2/6 740/2/6
f 741/2/1 742/2/1 743/2/1 744/2/1
f 745/2/4 746/2/4 747/2/4 748/2/4
f 749/2/5 750/2/5 751/2/5 752/2/5
f 753/2/6 754/2/6 755/2/6 756/2/6
f 757/2/5 758/2/5 759/2/5 760/2/5
f 761/2/6 762/2/6 763/2/6 764/2/6
f 765/2/2 766/2/2 767/2/2 768/2/2
f 769/2/3 770/2/3 771/2/3 772/2/3
f 773/2/5 774/2/5 775/2/5 776/2/5
f 777/2/6 778/2/6 779/2/6 780/2/6
f 781/2/1 782/2/1 783/2/1 784/2/1
f 785/2/2 786/2/2 787/2/2 788/2/2
f 789/2/5 790/2/5 791/2/5 792/2/5
f 793/2/6 794/2/6 795/2/6 796/2/6
f 797/2/1 798/2/1 799/2/1 800/2/1
f 801/2/2 802/2/2 803/2/2 804/2/2
f 805/2/5 806/2/5 807/2/5 808/2/5
f 809/2/6 810/2/6 811/2/6 812/2/6
f 813/2/1 814/2/1 815/2/1 816/2/1
f 817/2/4 818/2/4 819/2/4 820/2/4
f 821/2/5 822/2/5 823/2/5 824/2/5
f 825/2/6 826/2/6 827/2/6 828/2/6
f 829/2/2 830/2/2 831/2/2 832/2/2
f 833/2/3 834/2/3 835/2/3 836/2/3
f 837/2/5 838/2/5 839/2/5 840/2/5
f 841/2/6 842/2/6 843/2/6 844/2/6
f 845/2/1 846/2/1 847/2/1 848/2/1
f 849/2/4 850/2/4 851/2/4 852/2/4
f 853/2/5 854/2/5 855/2/5 856/2/5
f 857/2/6 858/2/6 859/2/6 860/2/6
f 861/2/2 862/2/2 863/2/2 864/2/2
f 865/2/5 866/2/5 867/2/5 868/2/5
f 869/2/6 870/2/6 871/2/6 872/2/6
f 873/2/1 874/2/1 875/2/1 876/2/1
f 877/2/5 878/2/5 879/2/5 880/2/5
f 881/2/6 882/2/6 883/2/6 884/2/6
f 885/2/2 886/2/2 887/2/2 888/2/2
f 889/2/3 890/2/3 891/2/3 892/2/3
f 893/2/5 894/2/5 895/2/5 896/2/5
f 897/2/6 898/2/6 899/2/6 900/2/6
f 901/2/1 902/2/1 903/2/1 904/2/1
f 905/2/4 906/2/4 907/2/4 908/2/4
f 909/2/5 910/2/5 911/2/5 912/2/5
f 913/2/6 914/2/6 915/2/6 916/2/6
f 917/2/2 918/2/2 919/2/2 920/2/2
f 921/2/3 922/2/3 923/2/3 924/2/3
f 925/2/4 926/2/4 927/2/4 928/2/4
f 929/2/5 930/2/5 931/2/5 932/2/5
f 933/2/6 934/2/6 935/2/6 936/2/6
f 937/2/1 938/2/1 939/2/1 940/2/1
f 941/2/2 942/2/2 943/2/2 944/2/2
f 945/2/3 946/2/3 947/2/3 948/2/3
f 949/2/5 950/2/5 951/2/5 952/2/5
f 953/2/6 954/2/6 955/2/6 956/2/6
f 957/2/1 958/2/1 959/2/1 960/2/1
f 961/2/5 962/2/5 963/2/5 964/2/5
f 965/2/6 966/2/6 967/2/6 968/2/6
f 969/2/2 970/2/2 971/2/2 972/2/2
f 973/2/3 974/2/3 975/2/3 976/2/3
f 977/2/5 978/2/5 979/2/5 980/2/5
f 981/2/6 982/2/6 983/2/6 984/2/6
f 985/2/1 986/2/1 987/2/1 988/2/1
f 989/2/4 990/2/4 991/2/4 992/2/4
f 993/2/5 994/2/5 995/2/5 996/2/5
f 997/2/6 998/2/6 999/2/6 1000/2/6
f 1001/2/2 1002/2/2 1003/2/2 1004/2/2
f 1005/2/3 1006/2/3 1007/2/3 1008/2/3
f 1009/2/5 1010/2/5 1011/2/5 1012/2/5
f 1013/2/6 1014/2/6 1015/2/6 1016/2/6
f 1017/2/1 1018/2/1 1019/2/1 1020/2/1
f 1021/2/4 1022/2/4 1023/2/4 1024/2/4
f 1025/2/5 1026/2/5 1027/2/5 1028/2/5
f 1029/2/6 1030/2/6 1031/2/6 1032/2/6
f 1033/2/2 1034/2/2 1035/2/2 1036/2/2
f 1037/2/5 1038/2/5 1039/2/5 1040/2/5
f 1041/2/6 1042/2/6 1043/2/6 1044/2/6
f 1045/2/1 1046/2/1 1047/2/1 1048/2/1
f 1049/2/2 1050/2/2 1051/2/2 1052/2/2
f 1053/2/3 1054/2/3 1055/2/3 1056/2/3
f 1057/2/5 1058/2/5 1059/2/5 1060/2/5
f 1061/2/6 1062/2/6 1063/2/6 1064/2/6
f 1065/2/1 1066/2/1 1067/2/1 1068/2/1
f 1069/2/2 1070/2/2 1071/2/2 1072/2/2
f 1073/2/5 1074/2/5 1075/2/5 1076/2/5
f 1077/2/6 1078/2/6 1079/2/6 1080/2/6
f 1081/2/1 1082/2/1 1083/2/1 1084/2/1
f 1085/2/4 1086/2/4 1087/2/4 1088/2/4
f 1089/2/5 1090/2/5 1091/2/5 1092/2/5
f 1093/2/6 1094/2/6 1095/2/6 1096/2/6
f 1097/2/2 1098/2/2 1099/2/2 1100/2/2
f 1101/2/5 1102/2/5 1103/2/5 1104/2/5
f 1105/2/6 1106/2/6 1107/2/6 1108/2/6
f 1109/2/1 1110/2/1 1111/2/1 1112/2/1
f 1113/2/2 1114/2/2 1115/2/2 1116/2/2
f 1117/2/5 1118/2/5 1119/2/5 1120/2/5
f 1121/2/6 1122/2/6 1123/2/6 1124/2/6
f 1125/2/1 1126/2/1 1127/2/1 1128/2/1
f 1129/2/2 1130/2/2 1131/2/2 1132/2/2
f 1133/2/4 1134/2/4 1135/2/4 1136/2/4
f 1137/2/5 1138/2/5 1139/2/5 1140/2/5
f 1141/2/6 1142/2/6 1143/2/6 1144/2/6
f 1145/2/1 1146/2/1 1147/2/1 1148/2/1
f 1149/2/2 1150/2/2 1151/2/2 1152/2/2
f 1153/2/5 1154/2/5 1155/2/5 1156/2/5
f 1157/2/6 1158/2/6 1159/2/6 1160/2/6
f 1161/2/1 1162/2/1 1163/2/1 1164/2/1
f 1165/2/2 1166/2/2 1167/2/2 1168/2/2
f 1169/2/3 1170/2/3 1171/2/3 1172/2/3
f 1173/2/4 1174/2/4 1175/2/4 1176/2/4
f 1177/2/5 1178/2/5 1179/2/5 1180/2/5
f 1181/2/6 1182/2/6 1183/2/6 1184/2/6
f 1185/2/1 1186/2/1 1187/2/1 1188/2/1
f 1189/2/2 1190/2/2 1191/2/2 1192/2/2
f 1193/2/5 1194/2/5 1195/2/5 1196/2/5
f 1197/2/6 1198/2/6 1199/2/6 1200/2/6
f 1201/2/1 1202/2/1 1203/2/1 1204/2/1
f 1205/2/5 1206/2/5 1207/2/5 1208/2/5
f 1209/2/6 1210/2/6 1211/2/6 1212/2/6
f 1213/2/2 1214/2/2 1215/2/2 1216/2/2
f 1217/2/3 1218/2/3 1219/2/3 1220/2/3
f 1221/2/5 1222/2/5 1223/2/5 1224/2/5
f 1225/2/6 1226/2/6 1227/2/6 1228/2/6
f 1229/2/1 1230/2/1 1231/2/1 1232/2/1
f 1233/2/4 1234/2/4 1235/2/4 1236/2/4
f 1237/2/5 1238/2/5 1239/2/5 1240/2/5
f 1241/2/6 1242/2/6 1243/2/6 1244/2/6
f 1245/2/2 1246/2/2 1247/2/2 1248/2/2
f 1249/2/3 1250/2/3 1251/2/3 1252/2/3
f 1253/2/5 1254/2/5 1255/2/5 1256/2/5
f 1257/2/6 1258/2/6 1259/2/6 1260/2/6
f 1261/2/1 1262/2/1 1263/2/1 1264/2/1
f 1265/2/2 1266/2/2 1267/2/2 1268/2/2
f 1269/2/5 1270/2/5 1271/2/5 1272/2/5
f 1273/2/6 1274/2/6 1275/2/6 1276/2/6
f 1277/2/1 1278/2/1 1279/2/1 1280/2/1
f 1281/2/2 1282/2/2 1283/2/2 1284/2/2
f 1285/2/5 1286/2/5 1287/2/5 1288/2/5
f 1289/2/6 1290/2/6 1291/2/6 1292/2/6
f 1293/2/1 1294/2/1 1295/2/1 1296/2/1
f 1297/2/4 1298/2/4 1299/2/4 1300/2/4
f 1301/2/5 1302/2/5 1303/2/5 1304/2/5
f 1305/2/6 1306/2/6 1307/2/6 1308/2/6
f 1309/2/2 1310/2/2 1311/2/2 1312/2/2
f 1313/2/5 1314/2/5 1315/2/5 1316/2/5
f 1317/2/6 1318/2/6 1319/2/6 1320/2/6
f 1321/2/1 1322/2/1 1323/2/1 1324/2/1
f 1325/2/2 1326/2/2 1327/2/2 1328/2/2
f 1329/2/5 1330/2/5 1331/2/5 1332/2/5
f 1333/2/6 1334/2/6 1335/2/6 1336/2/6
f 1337/2/1 1338/2/1 1339/2/1 1340/2/1
f 1341/2/3 1342/2/3 1343/2/3 1344/2/3
f 1345/2/4 1346/2/4 1347/2/4 1348/2/4
f 1349/2/5 1350/2/5 1351/2/5 1352/2/5
f 1353/2/6 1354/2/6 1355/2/6 1356/2/6
f 1357/2/2 1358/2/2 1359/2/2 1360/2/2
f 1361/2/5 1362/2/5 1363/2/5 1364/2/5
f 1365/2/6 1366/2/6 1367/2/6 1368/2/6
f 1369/2/1 1370/2/1 1371/2/1 1372/2/1
f 1373/2/4 1374/2/4 1375/2/4 1376/2/4
f 1377/2/5 1378/2/5 1379/2/5 1380/2/5
f 1381/2/6 1382/2/6 1383/2/6 1384/2/6
f 1385/2/2 1386/2/2 1387/2/2 1388/2/2
f 1389/2/3 1390/2/3 1391/2/3 1392/2/3
f 1393/2/5 1394/2/5 1395/2/5 1396/2/5
f 1397/2/6 1398/2/6 1399/2/6 1400/2/6
f 1401/2/1 1402/2/1 1403/2/1 1404/2/1
f 1405/2/2 1406/2/2 1407/2/2 1408/2/2
f 1409/2/5 1410/2/5 1411/2/5 1412/2/5
f 1413/2/6 1414/2/6 1415/2/6 1416/2/6
f 1417/2/1 1418/2/1 1419/2/1 1420/2/1
f 1421/2/2 1422/2/2 1423/2/2 1424/2/2
f 1425/2/4 1426/2/4 1427/2/4 1428/2/4
f 1429/2/5 1430/2/5 1431/2/5 1432/2/5
f 1433/2/6 1434/2/6 1435/2/6 1436/2/6
f 1437/2/1 1438/2/1 1439/2/1 1440/2/1
f 1441/2/4 1442/2/4 1443/2/4 1444/2/4
f 1445/2/5 1446/2/5 1447/2/5 1448/2/5
f 1449/2/6 1450/2/6 1451/2/6 1452/2/6
f 1453/2/2 1454/2/2 1455/2/2 1456/2/2
f 1457/2/3 1458/2/3 1459/2/3 1460/2/3
f 1461/2/4 1462/2/4 1463/2/4 1464/2/4
f 1465/2/5 1466/2/5 1467/2/5 1468/2/5
f 1469/2/6 1470/2/6 1471/2/6 1472/2/6
f 1473/2/1 1474/2/1 1475/2/1 1476/2/1
f 1477/2/3 1478/2/3 1479/2/3 1480/2/3
f 1481/2/4 1482/2/4 1483/2/4 1484/2/4
f 1485/2/5 1486/2/5 1487/2/5 1488/2/5
f 1489/2/6 1490/2/6 1491/2/6 1492/2/6
f 1493/2/3 1494/2/3 1495/2/3 1496/2/3
f 1497/2/4 1498/2/4 1499/2/4 1500/2/4
f 1501/2/5 1502/2/5 1503/2/5 1504/2/5
f 1505/2/6 1506/2/6 1507/2/6 1508/2/6
f 1509/2/2 1510/2/2 1511/2/2 1512/2/2
f 1513/2/3 1514/2/3 1515/2/3 1516/2/3
f 1517/2/5 1518/2/5 1519/2/5 1520/2/5
f 1521/2/6 1522/2/6 1523/2/6 1524/2/6
f 1525/2/1 1526/2/1 1527/2/1 1528/2/1
f 1529/2/2 1530/2/2 1531/2/2 1532/2/2
f 1533/2/4 1534/2/4 1535/2/4 1536/2/4
f 1537/2/5 1538/2/5 1539/2/5 1540/2/5
f 1541/2/6 1542/2/6 1543/2/6 1544/2/6
f 1545/2/1 1546/2/1 1547/2/1 1548/2/1
f 1549/2/2 1550/2/2 1551/2/2 1552/2/2
f 1553/2/5 1554/2/5 1555/2/5 1556/2/5
f 1557/2/6 1558/2/6 1559/2/6 1560/2/6
f 1561/2/1 1562/2/1 1563/2/1 1564/2/1
f 1565/2/2 1566/2/2 1567/2/2 1568/2/2
f 1569/2/3 1570/2/3 1571/2/3 1572/2/3
f 1573/2/4 1574/2/4 1575/2/4 1576/2/4
f 1577/2/5 1578/2/5 1579/2/5 1580/2/5
f 1581/2/6 1582/2/6 1583/2/6 1584/2/6
f 1585/2/1 1586/2/1 1587/2/1 1588/2/1
f 1589/2/2 1590/2/2 1591/2/2 1592/2/2
f 1593/2/5 1594/2/5 1595/2/5 1596/2/5
f 1597/2/6 1598/2/6 1599/2/6 1600/2/6
f 1601/2/1 1602/2/1 1603/2/1 1604/2/1
f 1605/2/2 1606/2/2 1607/2/2 1608/2/2
f 1609/2/3 1610/2/3 1611/2/3 1612/2/3
f 1613/2/4 1614/2/4 1615/2/4 1616/2/4
f 1617/2/5 1618/2/5 1619/2/5 1620/2/5
f 1621/2/6 1622/2/6 1623/2/6 1624/2/6
f 1625/2/1 1626/2/1 1627/2/1 1628/2/1
f 1629/2/3 1630/2/3 1631/2/3 1632/2/3
f 1633/2/5 1634/2/5 1635/2/5 1636/2/5
f 1637/2/6 1638/2/6 1639/2/6 1640/2/6
f 1641/2/2 1642/2/2 1643/2/2 1644/2/2
f 1645/2/5 1646/2/5 1647/2/5 1648/2/5
f 1649/2/6 1650/2/6 1651/2/6 1652/2/6
f 1653/2/1 1654/2/1 1655/2/1 1656/2/1
f 1657/2/2 1658/2/2 1659/2/2 1660/2/2
f 1661/2/3 1662/2/3 1663/2/3 1664/2/3
f 1665/2/4 1666/2/4 1667/2/4 1668/2/4
f 1669/2/5 1670/2/5 1671/2/5 1672/2/5
f 1673/2/6 1674/2/6 1675/2/6 1676/2/6
f 1677/2/1 1678/2/1 1679/2/1 1680/2/1
f 1681/2/3 1682/2/3 1683/2/3 1684/2/3
f 1685/2/5 1686/2/5 1687/2/5 1688/2/5
f 1689/2/6 1690/2/6 1691/2/6 1692/2/6
f 1693/2/2 1694/2/2 1695/2/2 1696/2/2
f 1697/2/4 1698/2/4 1699/2/4 1700/2/4
f 1701/2/5 1702/2/5 1703/2/5 1704/2/5
f 1705/2/6 1706/2/6 1707/2/6 1708/2/6
f 1709/2/1 1710/2/1 1711/2/1 1712/2/1
f 1713/2/2 1714/2/2 1715/2/2 1716/2/2
f 1717/2/3 1718/2/3 1719/2/3 1720/2/3
f 1721/2/4 1722/2/4 1723/2/4 1724/2/4
f 1725/2/5 1726/2/5 1727/2/5 1728/2/5
f 1729/2/6 1730/2/6 1731/2/6 1732/2/6
f 1733/2/1 1734/2/1 1735/2/1 1736/2/1
f 1737/2/5 1738/2/5 1739/2/5 1740/2/5
f 1741/2/6 1742/2/6 1743/2/6 1744/2/6
f 1745/2/2 1746/2/2 1747/2/2 1748/2/2
f 1749/2/5 1750/2/5 1751/2/5 1752/2/5
f 1753/2/6 1754/2/6 1755/2/6 1756/2/6
f 1757/2/1 1758/2/1 1759/2/1 1760/2/1
f 1761/2/3 1762/2/3 1763/2/3 1764/2/3
f 1765/2/5 1766/2/5 1767/2/5 1768/2/5
f 1769/2/6 1770/2/6 1771/2/6 1772/2/6
f 1773/2/2 1774/2/2 1775/2/2 1776/2/2
f 1777/2/4 1778/2/4 1779/2/4 1780/2/4
f 1781/2/5 1782/2/5 1783/2/5 1784/2/5
f 1785/2/6 1786/2/6 1787/2/6 1788/2/6
f 1789/2/1 1790/2/1 1791/2/1 1792/2/1
f 1793/2/3 1794/2/3 1795/2/3 1796/2/3
f 1797/2/5 1798/2/5 1799/2/5 1800/2/5
f 1801/2/6 1802/2/6 1803/2/6 1804/2/6
f 1805/2/5 1806/2/5 1807/2/5 1808/2/5
f 1809/2/6 1810/2/6 1811/2/6 1812/2/6
f 1813/2/2 1814/2/2 1815/2/2 1816/2/2
f 1817/2/4 1818/2/4 1819/2/4 1820/2/4
f 1821/2/5 1822/2/5 1823/2/5 1824/2/5
f 1825/2/6 1826/2/6 1827/2/6 1828/2/6
f 1829/2/1 1830/2/1 1831/2/1 1832/2/1
f 1833/2/2 1834/2/2 1835/2/2 1836/2/2
f 1837/2/4 1838/2/4 1839/2/4 1840/2/4
f 1841/2/5 1842/2/5 1843/2/5 1844/2/5
f 1845/2/6 1846/2/6 1847/2/6 1848/2/6
f 1849/2/1 1850/2/1 1851/2/1 1852/2/1
f 1853/2/5 1854/2/5 1855/2/5 1856/2/5
f 1857/2/6 1858/2/6 1859/2/6 1860/2/6
f 1861/2/2 1862/2/2 1863/2/2 1864/2/2
f 1865/2/5 1866/2/5 1867/2/5 1868/2/5
f 1869/2/6 1870/2/6 1871/2/6 1872/2/6
f 1873/2/1 1874/2/1 1875/2/1 1876/2/1
f 1877/2/2 1878/2/2 1879/2/2 1880/2/2
f 1881/2/3 1882/2/3 1883/2/3 1884/2/3
f 1885/2/4 1886/2/4 1887/2/4 1888/2/4
f 1889/2/5 1890/2/5 1891/2/5 1892/2/5
f 1893/2/6 1894/2/6 1895/2/6 1896/2/6
f 1897/2/1 1898/2/1 1899/2/1 1900/2/1
f 1901/2/5 1902/2/5 1903/2/5 1904/2/5
f 1905/2/6 1906/2/6 1907/2/6 1908/2/6
f 1909/2/2 1910/2/2 1911/2/2 1912/2/2
f 1913/2/4 1914/2/4 1915/2/4 1916/2/4
f 1917/2/5 1918/2/5 1919/2/5 1920/2/5
f 1921/2/6 1922/2/6 1923/2/6 1924/2/6
f 1925/2/1 1926/2/1 1927/2/1 1928/2/1
f 1929/2/2 1930/2/2 1931/2/2 1932/2/2
f 1933/2/4 1934/2/4 1935/2/4 1936/2/4
f 1937/2/5 1938/2/5 1939/2/5 1940/2/5
f 1941/2/6 1942/2/6 1943/2/6 1944/2/6
f 1945/2/1 1946/2/1 1947/2/1 1948/2/1
f 1949/2/2 1950/2/2 1951/2/2 1952/2/2
f 1953/2/3 1954/2/3 1955/2/3 1956/2/3
f 1957/2/4 1958/2/4 1959/2/4 1960/2/4
f 1961/2/5 1962/2/5 1963/2/5 1964/2/5
f 1965/2/6 1966/2/6 1967/2/6 1968/2/6
f 1969/2/1 1970/2/1 1971/2/1 1972/2/1
f 1973/2/3 1974/2/3 1975/2/3 1976/2/3
f 1977/2/5 1978/2/5 1979/2/5 1980/2/5
f 1981/2/6 1982/2/6 1983/2/6 1984/2/6
f 1985/2/2 1986/2/2 1987/2/2 1988/2/2
f 1989/2/3 1990/2/3 1991/2/3 1992/2/3
f 1993/2/5 1994/2/5 1995/2/5 1996/2/5
f 1997/2/6 1998/2/6 1999/2/6 2000/2/6
f 2001/2/1 2002/2/1 2003/2/1 2004/2/1
f 2005/2/2 2006/2/2 2007/2/2 2008/2/2
f 2009/2/3 2010/2/3 2011/2/3 2012/2/3
f 2013/2/5 2014/2/5 2015/2/5 2016/2/5
f 2017/2/6 2018/2/6 2019/2/6 2020/2/6
f 2021/2/1 2022/2/1 2023/2/1 2024/2/1
f 2025/2/3 2026/2/3 2027/2/3 2028/2/3
f 2029/2/5 2030/2/5 2031/2/5 2032/2/5
f 2033/2/6 2034/2/6 2035/2/6 2036/2/6
f 2037/2/5 2038/2/5 2039/2/5 2040/2/5
f 2041/2/6 2042/2/6 2043/2/6 2044/2/6
f 2045/2/2 2046/2/2 2047/2/2 2048/2/2
f 2049/2/5 2050/2/5 2051/2/5 2052/2/5
f 2053/2/6 2054/2/6 2055/2/6 2056/2/6
f 2057/2/1 2058/2/1 2059/2/1 2060/2/1
f 2061/2/3 2062/2/3 2063/2/3 2064/2/3
f 2065/2/5 2066/2/5 2067/2/5 2068/2/5
f 2069/2/6 2070/2/6 2071/2/6 2072/2/6
f 2073/2/5 2074/2/5 2075/2/5 2076/2/5
f 2077/2/6 2078/2/6 2079/2/6 2080/2/6
f 2081/2/3 2082/2/3 2083/2/3 2084/2/3
f 2085/2/5 2086/2/5 2087/2/5 2088/2/5
f 2089/2/6 2090/2/6 2091/2/6 2092/2/6
f 2093/2/3 2094/2/3 2095/2/3 2096/2/3
f 2097/2/5 2098/2/5 2099/2/5 2100/2/5
f 2101/2/6 2102/2/6 2103/2/6 2104/2/6
f 2105/2/5 2106/2/5 2107/2/5 2108/2/5
f 2109/2/6 2110/2/6 2111/2/6 2112/2/6
f 2113/2/5 2114/2/5 2115/2/5 2116/2/5
f 2117/2/6 2118/2/6 2119/2/6 2120/2/6
f 2121/2/2 2122/2/2 2123/2/2 2124/2/2
f 2125/2/4 2126/2/4 2127/2/4 2128/2/4
f 2129/2/5 2130/2/5 2131/2/5 2132/2/5
f 2133/2/6 2134/2/6 2135/2/6 2136/2/6
f 2137/2/1 2138/2/1 2139/2/1 2140/2/1
f 2141/2/3 2142/2/3 2143/2/3 2144/2/3
f 2145/2/5 2146/2/5 2147/2/5 2148/2/5
f 2149/2/6 2150/2/6 2151/2/6 2152/2/6
f 2153/2/4 2154/2/4 2155/2/4 2156/2/4
f 2157/2/5 2158/2/5 2159/2/5 2160/2/5
f 2161/2/6 2162/2/6 2163/2/6 2164/2/6
f 2165/2/4 2166/2/4 2167/2/4 2168/2/4
f 2169/2/5 2170/2/5 2171/2/5 2172/2/5
f 2173/2/6 2174/2/6 2175/2/6 2176/2/6
f 2177/2/4 2178/2/4 2179/2/4 2180/2/4
f 2181/2/5 2182/2/5 2183/2/5 2184/2/5
f 2185/2/6 2186/2/6 2187/2/6 2188/2/6
f 2189/2/5 2190/2/5 2191/2/5 2192/2/5
f 2193/2/6 2194/2/6 2195/2/6 2196/2/6
f 2197/2/5 2198/2/5 2199/2/5 2200/2/5
f 2201/2/6 2202/2/6 2203/2/6 2204/2/6
f 2205/2/2 2206/2/2 2207/2/2 2208/2/2
f 2209/2/5 2210/2/5 2211/2/5 2212/2/5
f 2213/2/6 2214/2/6 2215/2/6 2216/2/6
f 2217/2/1 2218/2/1 2219/2/1 2220/2/1
f 2221/2/3 2222/2/3 2223/2/3 2224/2/3
f 2225/2/4 2226/2/4 2227/2/4 2228/2/4
f 2229/2/5 2230/2/5 2231/2/5 2232/2/5
f 2233/2/6 2234/2/6 2235/2/6 2236/2/6
f 2237/2/3 2238/2/3 2239/2/3 2240/2/3
f 2241/2/4 2242/2/4 2243/2/4 2244/2/4
f 2245/2/5 2246/2/5 2247/2/5 2248/2/5
f 2249/2/6 2250/2/6 2251/2/6 2252/2/6
f 2253/2/3 2254/2/3 2255/2/3 2256/2/3
f 2257/2/4 2258/2/4 2259/2/4 2260/2/4
f 2261/2/5 2262/2/5 2263/2/5 2264/2/5
f 2265/2/6 2266/2/6 2267/2/6 2268/2/6
f 2269/2/2 2270/2/2 2271/2/2 2272/2/2
f 2273/2/4 2274/2/4 2275/2/4 2276/2/4
f 2277/2/5 2278/2/5 2279/2/5 2280/2/5
f 2281/2/6 2282/2/6 2283/2/6 2284/2/6
f 2285/2/1 2286/2/1 2287/2/1 2288/2/1
f 2289/2/4 2290/2/4 2291/2/4 2292/2/4
f 2293/2/5 2294/2/5 2295/2/5 2296/2/5
f 2297/2/6 2298/2/6 2299/2/6 2300/2/6
f 2301/2/4 2302/2/4 2303/2/4 2304/2/4
f 2305/2/5 2306/2/5 2307/2/5 2308/2/5
f 2309/2/6 2310/2/6 2311/2/6 2312/2/6
f 2313/2/2 2314/2/2 2315/2/2 2316/2/2
f 2317/2/4 2318/2/4 2319/2/4 2320/2/4
f 2321/2/5 2322/2/5 2323/2/5 2324/2/5
f 2325/2/6 2326/2/6 2327/2/6 2328/2/6
f 2329/2/1 2330/2/1 2331/2/1 2332/2/1
f 2333/2/2 2334/2/2 2335/2/2 2336/2/2
f 2337/2/3 2338/2/3 2339/2/3 2340/2/3
f 2341/2/4 2342/2/4 2343/2/4 2344/2/4
f 2345/2/5 2346/2/5 2347/2/5 2348/2/5
f 2349/2/6 2350/2/6 2351/2/6 2352/2/6
f 2353/1/1 2354/1/1 2355/1/1 2356/1/1
f 2357/1/3 2358/1/3 2359/1/3 2360/1/3
f 2361/1/5 2362/1/5 2363/1/5 2364/1/5
f 2365/1/6 2366/1/6 2367/1/6 2368/1/6
f 2369/1/3 2370/1/3 2371/1/3 2372/1/3
f 2373/1/5 2374/1/5 2375/1/5 2376/1/5
f 2377/1/6 2378/1/6 2379/1/6 2380/1/6
f 2381/1/3 2382/1/3 2383/1/3 2384/1/3
f 2385/1/5 2386/1/5 2387/1/5 2388/1/5
f 2389/1/6 2390/1/6 2391/1/6 2392/1/6
f 2393/1/2 2394/1/2 2395/1/2 2396/1/2
f 2397/1/3 2398/1/3 2399/1/3 2400/1/3
f 2401/1/5 2402/1/5 2403/1/5 2404/1/5
f 2405/1/6 2406/1/6 2407/1/6 2408/1/6
f 2409/1/1 2410/1/1 2411/1/1 2412/1/1
f 2413/1/3 2414/1/3 2415/1/3 2416/1/3
f 2417/1/5 2418/1/5 2419/1/5 2420/1/5
f 2421/1/6 2422/1/6 2423/1/6 2424/1/6
f 2425/1/3 2426/1/3 2427/1/3 2428/1/3
f 2429/1/5 2430/1/5 2431/1/5 2432/1/5
f 2433/1/6 2434/1/6 2435/1/6 2436/1/6
f 2437/1/5 2438/1/5 2439/1/5 2440/1/5
f 2441/1/6 2442/1/6 2443/1/6 2444/1/6
f 2445/1/5 2446/1/5 2447/1/5 2448/1/5
f 2449/1/6 2450/1/6 2451/1/6 2452/1/6
f 2453/1/5 2454/1/5 2455/1/5 2456/1/5
f 2457/1/6 2458/1/6 2459/1/6 2460/1/6
f 2461/1/5 2462/1/5 2463/1/5 2464/1/5
f 2465/1/6 2466/1/6 2467/1/6 2468/1/6
f 2469/1/3 2470/1/3 2471/1/3 2472/1/3
f 2473/1/5 2474/1/5 2475/1/5 2476/1/5
f 2477/1/6 2478/1/6 2479/1/6 2480/1/6
f 2481/1/2 2482/1/2 2483/1/2 2484/1/2
f 2485/1/3 2486/1/3 2487/1/3 2488/1/3
f 2489/1/5 2490/1/5 2491/1/5 2492/1/5
f 2493/1/6 2494/1/6 2495/1/6 2496/1/6
f 2497/1/1 2498/1/1 2499/1/1 2500/1/1
f 2501/1/3 2502/1/3 2503/1/3 2504/1/3
f 2505/1/4 2506/1/4 2507/1/4 2508/1/4
f 2509/1/5 2510/1/5 2511/1/5 2512/1/5
f 2513/1/6 2514/1/6 2515/1/6 2516/1/6
f 2517/1/5 2518/1/5 2519/1/5 2520/1/5
f 2521/1/6 2522/1/6 2523/1/6 2524/1/6
f 2525/1/5 2526/1/5 2527/1/5 2528/1/5
f 2529/1/6 2530/1/6 2531/1/6 2532/1/6
f 2533/1/5 2534/1/5 2535/1/5 2536/1/5
f 2537/1/6 2538/1/6 2539/1/6 2540/1/6
f 2541/1/5 2542/1/5 2543/1/5 2544/1/5
f 2545/1/6 2546/1/6 2547/1/6 2548/1/6
f 2549/1/5 2550/1/5 2551/1/5 2552/1/5
f 2553/1/6 2554/1/6 2555/1/6 2556/1/6
f 2557/1/5 2558/1/5 2559/1/5 2560/1/5
f 2561/1/6 2562/1/6 2563/1/6 2564/1/6
f 2565/1/5 2566/1/5 2567/1/5 2568/1/5
f 2569/1/6 2570/1/6 2571/1/6 2572/1/6
f 2573/1/5 2574/1/5 2575/1/5 2576/1/5
f 2577/1/6 2578/1/6 2579/1/6 2580/1/6
f 2581/1/2 2582/1/2 2583/1/2 2584/1/2
f 2585/1/3 2586/1/3 2587/1/3 2588/1/3
f 2589/1/4 2590/1/4 2591/1/4 2592/1/4
f 2593/1/5 2594/1/5 2595/1/5 2596/1/5
f 2597/1/6 2598/1/6 2599/1/6 2600/1/6
f 2601/1/1 2602/1/1 2603/1/1 2604/1/1
f 2605/1/4 2606/1/4 2607/1/4 2608/1/4
f 2609/1/5 2610/1/5 2611/1/5 2612/1/5
f 2613/1/6 2614/1/6 2615/1/6 2616/1/6
f 2617/1/4 2618/1/4 2619/1/4 2620/1/4
f 2621/1/5 2622/1/5 2623/1/5 2624/1/5
f 2625/1/6 2626/1/6 2627/1/6 2628/1/6
f 2629/1/5 2630/1/5 2631/1/5 2632/1/5
f 2633/1/6 2634/1/6 2635/1/6 2636/1/6
f 2637/1/5 2638/1/5 2639/1/5 2640/1/5
f 2641/1/6 2642/1/6 2643/1/6 2644/1/6
f 2645/1/5 2646/1/5 2647/1/5 2648/1/5
f 2649/1/6 2650/1/6 2651/1/6 2652/1/6
f 2653/1/5 2654/1/5 2655/1/5 2656/1/5
f 2657/1/6 2658/1/6 2659/1/6 2660/1/6
f 2661/1/4 2662/1/4 2663/1/4 2664/1/4
f 2665/1/5 2666/1/5 2667/1/5 2668/1/5
f 2669/1/6 2670/1/6 2671/1/6 2672/1/6
f 2673/1/2 2674/1/2 2675/1/2 2676/1/2
f 2677/1/4 2678/1/4 2679/1/4 2680/1/4
f 2681/1/5 2682/1/5 2683/1/5 2684/1/5
f 2685/1/6 2686/1/6 2687/1/6 2688/1/6
f 2689/1/1 2690/1/1 2691/1/1 2692/1/1
f 2693/1/4 2694/1/4 2695/1/4 2696/1/4
f 2697/1/5 2698/1/5 2699/1/5 2700/1/5
f 2701/1/6 2702/1/6 2703/1/6 2704/1/6
f 2705/1/4 2706/1/4 2707/1/4 2708/1/4
f 2709/1/5 2710/1/5 2711/1/5 2712/1/5
f 2713/1/6 2714/1/6 2715/1/6 2716/1/6
f 2717/1/4 2718/1/4 2719/1/4 2720/1/4
f 2721/1/5 2722/1/5 2723/1/5 2724/1/5
f 2725/1/6 2726/1/6 2727/1/6 2728/1/6
f 2729/1/2 2730/1/2 2731/1/2 2732/1/2
f 2733/1/4 2734/1/4 2735/1/4 2736/1/4
f 2737/1/5 2738/1/5 2739/1/5 2740/1/5
f 2741/1/6 2742/1/6 2743/1/6 2744/1/6

