# generated by vox_to_obj_exporter
# scale=0.1 center=false ground=false y_up=true

mtllib Fight_710.mtl
usemtl palette

# normals
vn -1 0 0
vn 1 0 0
vn 0 1 0
vn 0 -1 0
vn 0 0 1
vn 0 0 -1

# texcoords
vt 0.103515625 0.5

# verts
v 12.7 15.7 -2.6
v 12.7 15.6 -2.6
v 12.7 15.6 -2.5
v 12.7 15.7 -2.5
v 12.7 15.7 -2.6
v 12.7 15.7 -2.5
v 12.8 15.7 -2.5
v 12.8 15.7 -2.6
v 12.7 15.7 -2.5
v 12.7 15.6 -2.5
v 12.8 15.6 -2.5
v 12.8 15.7 -2.5
v 12.8 15.7 -2.6
v 12.8 15.6 -2.6
v 12.7 15.6 -2.6
v 12.7 15.7 -2.6
v 12.8 15.7 -2.6
v 12.8 15.7 -2.5
v 12.9 15.7 -2.5
v 12.9 15.7 -2.6
v 12.8 15.6 -2.5
v 12.8 15.6 -2.6
v 12.9 15.6 -2.6
v 12.9 15.6 -2.5
v 12.8 15.7 -2.5
v 12.8 15.6 -2.5
v 12.9 15.6 -2.5
v 12.9 15.7 -2.5
v 12.9 15.7 -2.6
v 12.9 15.6 -2.6
v 12.8 15.6 -2.6
v 12.8 15.7 -2.6
v 12.9 15.7 -2.6
v 12.9 15.7 -2.5
v 13 15.7 -2.5
v 13 15.7 -2.6
v 12.9 15.6 -2.5
v 12.9 15.6 -2.6
v 13 15.6 -2.6
v 13 15.6 -2.5
v 12.9 15.7 -2.5
v 12.9 15.6 -2.5
v 13 15.6 -2.5
v 13 15.7 -2.5
v 13 15.7 -2.6
v 13 15.6 -2.6
v 12.9 15.6 -2.6
v 12.9 15.7 -2.6
v 13 15.7 -2.6
v 13 15.7 -2.5
v 13.1 15.7 -2.5
v 13.1 15.7 -2.6
v 13 15.6 -2.5
v 13 15.6 -2.6
v 13.1 15.6 -2.6
v 13.1 15.6 -2.5
v 13 15.7 -2.5
v 13 15.6 -2.5
v 13.1 15.6 -2.5
v 13.1 15.7 -2.5
v 13.1 15.7 -2.6
v 13.1 15.6 -2.6
v 13 15.6 -2.6
v 13 15.7 -2.6
v 13.2 15.7 -2.5
v 13.2 15.6 -2.5
v 13.2 15.6 -2.6
v 13.2 15.7 -2.6
v 13.1 15.7 -2.6
v 13.1 15.7 -2.5
v 13.2 15.7 -2.5
v 13.2 15.7 -2.6
v 13.1 15.7 -2.5
v 13.1 15.6 -2.5
v 13.2 15.6 -2.5
v 13.2 15.7 -2.5
v 13.2 15.7 -2.6
v 13.2 15.6 -2.6
v 13.1 15.6 -2.6
v 13.1 15.7 -2.6
v 12.4 15.6 -2.6
v 12.4 15.5 -2.6
v 12.4 15.5 -2.5
v 12.4 15.6 -2.5
v 12.4 15.6 -2.6
v 12.4 15.6 -2.5
v 12.5 15.6 -2.5
v 12.5 15.6 -2.6
v 12.4 15.5 -2.5
v 12.4 15.5 -2.6
v 12.5 15.5 -2.6
v 12.5 15.5 -2.5
v 12.4 15.6 -2.5
v 12.4 15.5 -2.5
v 12.5 15.5 -2.5
v 12.5 15.6 -2.5
v 12.5 15.6 -2.6
v 12.5 15.5 -2.6
v 12.4 15.5 -2.6
v 12.4 15.6 -2.6
v 12.5 15.6 -2.6
v 12.5 15.6 -2.5
v 12.6 15.6 -2.5
v 12.6 15.6 -2.6
v 12.5 15.5 -2.5
v 12.5 15.5 -2.6
v 12.6 15.5 -2.6
v 12.6 15.5 -2.5
v 12.5 15.6 -2.5
v 12.5 15.5 -2.5
v 12.6 15.5 -2.5
v 12.6 15.6 -2.5
v 12.6 15.6 -2.6
v 12.6 15.5 -2.6
v 12.5 15.5 -2.6
v 12.5 15.6 -2.6
v 12.6 15.6 -2.6
v 12.6 15.6 -2.5
v 12.7 15.6 -2.5
v 12.7 15.6 -2.6
v 12.6 15.5 -2.5
v 12.6 15.5 -2.6
v 12.7 15.5 -2.6
v 12.7 15.5 -2.5
v 12.6 15.6 -2.5
v 12.6 15.5 -2.5
v 12.7 15.5 -2.5
v 12.7 15.6 -2.5
v 12.7 15.6 -2.6
v 12.7 15.5 -2.6
v 12.6 15.5 -2.6
v 12.6 15.6 -2.6
v 12.8 15.6 -2.5
v 12.8 15.5 -2.5
v 12.8 15.5 -2.6
v 12.8 15.6 -2.6
v 12.7 15.5 -2.5
v 12.7 15.5 -2.6
v 12.8 15.5 -2.6
v 12.8 15.5 -2.5
v 12.7 15.6 -2.5
v 12.7 15.5 -2.5
v 12.8 15.5 -2.5
v 12.8 15.6 -2.5
v 12.8 15.6 -2.6
v 12.8 15.5 -2.6
v 12.7 15.5 -2.6
v 12.7 15.6 -2.6
v 13.1 15.6 -2.6
v 13.1 15.5 -2.6
v 13.1 15.5 -2.5
v 13.1 15.6 -2.5
v 13.1 15.5 -2.5
v 13.1 15.5 -2.6
v 13.2 15.5 -2.6
v 13.2 15.5 -2.5
v 13.1 15.6 -2.5
v 13.1 15.5 -2.5
v 13.2 15.5 -2.5
v 13.2 15.6 -2.5
v 13.2 15.6 -2.6
v 13.2 15.5 -2.6
v 13.1 15.5 -2.6
v 13.1 15.6 -2.6
v 13.2 15.6 -2.6
v 13.2 15.6 -2.5
v 13.3 15.6 -2.5
v 13.3 15.6 -2.6
v 13.2 15.5 -2.5
v 13.2 15.5 -2.6
v 13.3 15.5 -2.6
v 13.3 15.5 -2.5
v 13.2 15.6 -2.5
v 13.2 15.5 -2.5
v 13.3 15.5 -2.5
v 13.3 15.6 -2.5
v 13.3 15.6 -2.6
v 13.3 15.5 -2.6
v 13.2 15.5 -2.6
v 13.2 15.6 -2.6
v 13.3 15.6 -2.6
v 13.3 15.6 -2.5
v 13.4 15.6 -2.5
v 13.4 15.6 -2.6
v 13.3 15.5 -2.5
v 13.3 15.5 -2.6
v 13.4 15.5 -2.6
v 13.4 15.5 -2.5
v 13.3 15.6 -2.5
v 13.3 15.5 -2.5
v 13.4 15.5 -2.5
v 13.4 15.6 -2.5
v 13.4 15.6 -2.6
v 13.4 15.5 -2.6
v 13.3 15.5 -2.6
v 13.3 15.6 -2.6
v 13.5 15.6 -2.5
v 13.5 15.5 -2.5
v 13.5 15.5 -2.6
v 13.5 15.6 -2.6
v 13.4 15.6 -2.6
v 13.4 15.6 -2.5
v 13.5 15.6 -2.5
v 13.5 15.6 -2.6
v 13.4 15.5 -2.5
v 13.4 15.5 -2.6
v 13.5 15.5 -2.6
v 13.5 15.5 -2.5
v 13.4 15.6 -2.5
v 13.4 15.5 -2.5
v 13.5 15.5 -2.5
v 13.5 15.6 -2.5
v 13.5 15.6 -2.6
v 13.5 15.5 -2.6
v 13.4 15.5 -2.6
v 13.4 15.6 -2.6
v 12 15.5 -2.6
v 12 15.4 -2.6
v 12 15.4 -2.5
v 12 15.5 -2.5
v 12 15.5 -2.6
v 12 15.5 -2.5
v 12.1 15.5 -2.5
v 12.1 15.5 -2.6
v 12 15.5 -2.5
v 12 15.4 -2.5
v 12.1 15.4 -2.5
v 12.1 15.5 -2.5
v 12.1 15.5 -2.6
v 12.1 15.4 -2.6
v 12 15.4 -2.6
v 12 15.5 -2.6
v 12.1 15.5 -2.6
v 12.1 15.5 -2.5
v 12.2 15.5 -2.5
v 12.2 15.5 -2.6
v 12.1 15.5 -2.5
v 12.1 15.4 -2.5
v 12.2 15.4 -2.5
v 12.2 15.5 -2.5
v 12.2 15.5 -2.6
v 12.2 15.4 -2.6
v 12.1 15.4 -2.6
v 12.1 15.5 -2.6
v 12.2 15.5 -2.6
v 12.2 15.5 -2.5
v 12.3 15.5 -2.5
v 12.3 15.5 -2.6
v 12.2 15.4 -2.5
v 12.2 15.4 -2.6
v 12.3 15.4 -2.6
v 12.3 15.4 -2.5
v 12.2 15.5 -2.5
v 12.2 15.4 -2.5
v 12.3 15.4 -2.5
v 12.3 15.5 -2.5
v 12.3 15.5 -2.6
v 12.3 15.4 -2.6
v 12.2 15.4 -2.6
v 12.2 15.5 -2.6
v 12.4 15.5 -2.5
v 12.4 15.4 -2.5
v 12.4 15.4 -2.6
v 12.4 15.5 -2.6
v 12.3 15.5 -2.6
v 12.3 15.5 -2.5
v 12.4 15.5 -2.5
v 12.4 15.5 -2.6
v 12.3 15.4 -2.5
v 12.3 15.4 -2.6
v 12.4 15.4 -2.6
v 12.4 15.4 -2.5
v 12.3 15.5 -2.5
v 12.3 15.4 -2.5
v 12.4 15.4 -2.5
v 12.4 15.5 -2.5
v 12.4 15.5 -2.6
v 12.4 15.4 -2.6
v 12.3 15.4 -2.6
v 12.3 15.5 -2.6
v 13.6 15.5 -2.6
v 13.6 15.4 -2.6
v 13.6 15.4 -2.5
v 13.6 15.5 -2.5
v 13.6 15.5 -2.6
v 13.6 15.5 -2.5
v 13.7 15.5 -2.5
v 13.7 15.5 -2.6
v 13.6 15.4 -2.5
v 13.6 15.4 -2.6
v 13.7 15.4 -2.6
v 13.7 15.4 -2.5
v 13.6 15.5 -2.5
v 13.6 15.4 -2.5
v 13.7 15.4 -2.5
v 13.7 15.5 -2.5
v 13.7 15.5 -2.6
v 13.7 15.4 -2.6
v 13.6 15.4 -2.6
v 13.6 15.5 -2.6
v 13.7 15.5 -2.6
v 13.7 15.5 -2.5
v 13.8 15.5 -2.5
v 13.8 15.5 -2.6
v 13.7 15.5 -2.5
v 13.7 15.4 -2.5
v 13.8 15.4 -2.5
v 13.8 15.5 -2.5
v 13.8 15.5 -2.6
v 13.8 15.4 -2.6
v 13.7 15.4 -2.6
v 13.7 15.5 -2.6
v 13.9 15.5 -2.5
v 13.9 15.4 -2.5
v 13.9 15.4 -2.6
v 13.9 15.5 -2.6
v 13.8 15.5 -2.6
v 13.8 15.5 -2.5
v 13.9 15.5 -2.5
v 13.9 15.5 -2.6
v 13.8 15.5 -2.5
v 13.8 15.4 -2.5
v 13.9 15.4 -2.5
v 13.9 15.5 -2.5
v 13.9 15.5 -2.6
v 13.9 15.4 -2.6
v 13.8 15.4 -2.6
v 13.8 15.5 -2.6
v 11.8 15.4 -2.6
v 11.8 15.3 -2.6
v 11.8 15.3 -2.5
v 11.8 15.4 -2.5
v 11.8 15.4 -2.6
v 11.8 15.4 -2.5
v 11.9 15.4 -2.5
v 11.9 15.4 -2.6
v 11.8 15.4 -2.5
v 11.8 15.3 -2.5
v 11.9 15.3 -2.5
v 11.9 15.4 -2.5
v 11.9 15.4 -2.6
v 11.9 15.3 -2.6
v 11.8 15.3 -2.6
v 11.8 15.4 -2.6
v 11.9 15.4 -2.6
v 11.9 15.4 -2.5
v 12 15.4 -2.5
v 12 15.4 -2.6
v 11.9 15.4 -2.5
v 11.9 15.3 -2.5
v 12 15.3 -2.5
v 12 15.4 -2.5
v 12 15.4 -2.6
v 12 15.3 -2.6
v 11.9 15.3 -2.6
v 11.9 15.4 -2.6
v 12 15.3 -2.5
v 12 15.3 -2.6
v 12.1 15.3 -2.6
v 12.1 15.3 -2.5
v 12 15.4 -2.5
v 12 15.3 -2.5
v 12.1 15.3 -2.5
v 12.1 15.4 -2.5
v 12.1 15.4 -2.6
v 12.1 15.3 -2.6
v 12 15.3 -2.6
v 12 15.4 -2.6
v 12.2 15.4 -2.5
v 12.2 15.3 -2.5
v 12.2 15.3 -2.6
v 12.2 15.4 -2.6
v 12.1 15.3 -2.5
v 12.1 15.3 -2.6
v 12.2 15.3 -2.6
v 12.2 15.3 -2.5
v 12.1 15.4 -2.5
v 12.1 15.3 -2.5
v 12.2 15.3 -2.5
v 12.2 15.4 -2.5
v 12.2 15.4 -2.6
v 12.2 15.3 -2.6
v 12.1 15.3 -2.6
v 12.1 15.4 -2.6
v 13.7 15.4 -2.6
v 13.7 15.3 -2.6
v 13.7 15.3 -2.5
v 13.7 15.4 -2.5
v 13.7 15.3 -2.5
v 13.7 15.3 -2.6
v 13.8 15.3 -2.6
v 13.8 15.3 -2.5
v 13.7 15.4 -2.5
v 13.7 15.3 -2.5
v 13.8 15.3 -2.5
v 13.8 15.4 -2.5
v 13.8 15.4 -2.6
v 13.8 15.3 -2.6
v 13.7 15.3 -2.6
v 13.7 15.4 -2.6
v 13.8 15.3 -2.5
v 13.8 15.3 -2.6
v 13.9 15.3 -2.6
v 13.9 15.3 -2.5
v 13.8 15.4 -2.5
v 13.8 15.3 -2.5
v 13.9 15.3 -2.5
v 13.9 15.4 -2.5
v 13.9 15.4 -2.6
v 13.9 15.3 -2.6
v 13.8 15.3 -2.6
v 13.8 15.4 -2.6
v 14 15.4 -2.5
v 14 15.3 -2.5
v 14 15.3 -2.6
v 14 15.4 -2.6
v 13.9 15.4 -2.6
v 13.9 15.4 -2.5
v 14 15.4 -2.5
v 14 15.4 -2.6
v 13.9 15.3 -2.5
v 13.9 15.3 -2.6
v 14 15.3 -2.6
v 14 15.3 -2.5
v 13.9 15.4 -2.5
v 13.9 15.3 -2.5
v 14 15.3 -2.5
v 14 15.4 -2.5
v 14 15.4 -2.6
v 14 15.3 -2.6
v 13.9 15.3 -2.6
v 13.9 15.4 -2.6
v 11.7 15.3 -2.6
v 11.7 15.2 -2.6
v 11.7 15.2 -2.5
v 11.7 15.3 -2.5
v 11.7 15.3 -2.6
v 11.7 15.3 -2.5
v 11.8 15.3 -2.5
v 11.8 15.3 -2.6
v 11.7 15.3 -2.5
v 11.7 15.2 -2.5
v 11.8 15.2 -2.5
v 11.8 15.3 -2.5
v 11.8 15.3 -2.6
v 11.8 15.2 -2.6
v 11.7 15.2 -2.6
v 11.7 15.3 -2.6
v 11.8 15.2 -2.5
v 11.8 15.2 -2.6
v 11.9 15.2 -2.6
v 11.9 15.2 -2.5
v 11.8 15.3 -2.5
v 11.8 15.2 -2.5
v 11.9 15.2 -2.5
v 11.9 15.3 -2.5
v 11.9 15.3 -2.6
v 11.9 15.2 -2.6
v 11.8 15.2 -2.6
v 11.8 15.3 -2.6
v 12 15.3 -2.5
v 12 15.2 -2.5
v 12 15.2 -2.6
v 12 15.3 -2.6
v 11.9 15.2 -2.5
v 11.9 15.2 -2.6
v 12 15.2 -2.6
v 12 15.2 -2.5
v 11.9 15.3 -2.5
v 11.9 15.2 -2.5
v 12 15.2 -2.5
v 12 15.3 -2.5
v 12 15.3 -2.6
v 12 15.2 -2.6
v 11.9 15.2 -2.6
v 11.9 15.3 -2.6
v 14 15.3 -2.6
v 14 15.2 -2.6
v 14 15.2 -2.5
v 14 15.3 -2.5
v 14 15.3 -2.6
v 14 15.3 -2.5
v 14.1 15.3 -2.5
v 14.1 15.3 -2.6
v 14 15.2 -2.5
v 14 15.2 -2.6
v 14.1 15.2 -2.6
v 14.1 15.2 -2.5
v 14 15.3 -2.5
v 14 15.2 -2.5
v 14.1 15.2 -2.5
v 14.1 15.3 -2.5
v 14.1 15.3 -2.6
v 14.1 15.2 -2.6
v 14 15.2 -2.6
v 14 15.3 -2.6
v 14.2 15.3 -2.5
v 14.2 15.2 -2.5
v 14.2 15.2 -2.6
v 14.2 15.3 -2.6
v 14.1 15.3 -2.6
v 14.1 15.3 -2.5
v 14.2 15.3 -2.5
v 14.2 15.3 -2.6
v 14.1 15.2 -2.5
v 14.1 15.2 -2.6
v 14.2 15.2 -2.6
v 14.2 15.2 -2.5
v 14.1 15.3 -2.5
v 14.1 15.2 -2.5
v 14.2 15.2 -2.5
v 14.2 15.3 -2.5
v 14.2 15.3 -2.6
v 14.2 15.2 -2.6
v 14.1 15.2 -2.6
v 14.1 15.3 -2.6
v 11.6 15.2 -2.6
v 11.6 15.1 -2.6
v 11.6 15.1 -2.5
v 11.6 15.2 -2.5
v 11.6 15.2 -2.6
v 11.6 15.2 -2.5
v 11.7 15.2 -2.5
v 11.7 15.2 -2.6
v 11.6 15.1 -2.5
v 11.6 15.1 -2.6
v 11.7 15.1 -2.6
v 11.7 15.1 -2.5
v 11.6 15.2 -2.5
v 11.6 15.1 -2.5
v 11.7 15.1 -2.5
v 11.7 15.2 -2.5
v 11.7 15.2 -2.6
v 11.7 15.1 -2.6
v 11.6 15.1 -2.6
v 11.6 15.2 -2.6
v 11.8 15.2 -2.5
v 11.8 15.1 -2.5
v 11.8 15.1 -2.6
v 11.8 15.2 -2.6
v 11.7 15.1 -2.5
v 11.7 15.1 -2.6
v 11.8 15.1 -2.6
v 11.8 15.1 -2.5
v 11.7 15.2 -2.5
v 11.7 15.1 -2.5
v 11.8 15.1 -2.5
v 11.8 15.2 -2.5
v 11.8 15.2 -2.6
v 11.8 15.1 -2.6
v 11.7 15.1 -2.6
v 11.7 15.2 -2.6
v 11.4 15.1 -2.6
v 11.4 15 -2.6
v 11.4 15 -2.5
v 11.4 15.1 -2.5
v 11.4 15.1 -2.6
v 11.4 15.1 -2.5
v 11.5 15.1 -2.5
v 11.5 15.1 -2.6
v 11.4 15 -2.5
v 11.4 15 -2.6
v 11.5 15 -2.6
v 11.5 15 -2.5
v 11.4 15.1 -2.5
v 11.4 15 -2.5
v 11.5 15 -2.5
v 11.5 15.1 -2.5
v 11.5 15.1 -2.6
v 11.5 15 -2.6
v 11.4 15 -2.6
v 11.4 15.1 -2.6
v 11.6 15.1 -2.5
v 11.6 15 -2.5
v 11.6 15 -2.6
v 11.6 15.1 -2.6
v 11.5 15.1 -2.6
v 11.5 15.1 -2.5
v 11.6 15.1 -2.5
v 11.6 15.1 -2.6
v 11.5 15 -2.5
v 11.5 15 -2.6
v 11.6 15 -2.6
v 11.6 15 -2.5
v 11.5 15.1 -2.5
v 11.5 15 -2.5
v 11.6 15 -2.5
v 11.6 15.1 -2.5
v 11.6 15.1 -2.6
v 11.6 15 -2.6
v 11.5 15 -2.6
v 11.5 15.1 -2.6
v 14.1 15.1 -2.6
v 14.1 15 -2.6
v 14.1 15 -2.5
v 14.1 15.1 -2.5
v 14.2 15.1 -2.5
v 14.2 15 -2.5
v 14.2 15 -2.6
v 14.2 15.1 -2.6
v 14.1 15.1 -2.6
v 14.1 15.1 -2.5
v 14.2 15.1 -2.5
v 14.2 15.1 -2.6
v 14.1 15 -2.5
v 14.1 15 -2.6
v 14.2 15 -2.6
v 14.2 15 -2.5
v 14.1 15.1 -2.5
v 14.1 15 -2.5
v 14.2 15 -2.5
v 14.2 15.1 -2.5
v 14.2 15.1 -2.6
v 14.2 15 -2.6
v 14.1 15 -2.6
v 14.1 15.1 -2.6
v 11.3 15 -2.6
v 11.3 14.9 -2.6
v 11.3 14.9 -2.5
v 11.3 15 -2.5
v 11.4 15 -2.5
v 11.4 14.9 -2.5
v 11.4 14.9 -2.6
v 11.4 15 -2.6
v 11.3 15 -2.6
v 11.3 15 -2.5
v 11.4 15 -2.5
v 11.4 15 -2.6
v 11.3 14.9 -2.5
v 11.3 14.9 -2.6
v 11.4 14.9 -2.6
v 11.4 14.9 -2.5
v 11.3 15 -2.5
v 11.3 14.9 -2.5
v 11.4 14.9 -2.5
v 11.4 15 -2.5
v 11.4 15 -2.6
v 11.4 14.9 -2.6
v 11.3 14.9 -2.6
v 11.3 15 -2.6
v 14.2 15 -2.6
v 14.2 14.9 -2.6
v 14.2 14.9 -2.5
v 14.2 15 -2.5
v 14.3 15 -2.5
v 14.3 14.9 -2.5
v 14.3 14.9 -2.6
v 14.3 15 -2.6
v 14.2 15 -2.6
v 14.2 15 -2.5
v 14.3 15 -2.5
v 14.3 15 -2.6
v 14.2 15 -2.5
v 14.2 14.9 -2.5
v 14.3 14.9 -2.5
v 14.3 15 -2.5
v 14.3 15 -2.6
v 14.3 14.9 -2.6
v 14.2 14.9 -2.6
v 14.2 15 -2.6
v 11.2 14.9 -2.6
v 11.2 14.8 -2.6
v 11.2 14.8 -2.5
v 11.2 14.9 -2.5
v 11.3 14.9 -2.5
v 11.3 14.8 -2.5
v 11.3 14.8 -2.6
v 11.3 14.9 -2.6
v 11.2 14.9 -2.6
v 11.2 14.9 -2.5
v 11.3 14.9 -2.5
v 11.3 14.9 -2.6
v 11.2 14.8 -2.5
v 11.2 14.8 -2.6
v 11.3 14.8 -2.6
v 11.3 14.8 -2.5
v 11.2 14.9 -2.5
v 11.2 14.8 -2.5
v 11.3 14.8 -2.5
v 11.3 14.9 -2.5
v 11.3 14.9 -2.6
v 11.3 14.8 -2.6
v 11.2 14.8 -2.6
v 11.2 14.9 -2.6
v 14.2 14.9 -2.6
v 14.2 14.8 -2.6
v 14.2 14.8 -2.5
v 14.2 14.9 -2.5
v 14.2 14.8 -2.5
v 14.2 14.8 -2.6
v 14.3 14.8 -2.6
v 14.3 14.8 -2.5
v 14.2 14.9 -2.5
v 14.2 14.8 -2.5
v 14.3 14.8 -2.5
v 14.3 14.9 -2.5
v 14.3 14.9 -2.6
v 14.3 14.8 -2.6
v 14.2 14.8 -2.6
v 14.2 14.9 -2.6
v 14.4 14.9 -2.5
v 14.4 14.8 -2.5
v 14.4 14.8 -2.6
v 14.4 14.9 -2.6
v 14.3 14.9 -2.6
v 14.3 14.9 -2.5
v 14.4 14.9 -2.5
v 14.4 14.9 -2.6
v 14.3 14.9 -2.5
v 14.3 14.8 -2.5
v 14.4 14.8 -2.5
v 14.4 14.9 -2.5
v 14.4 14.9 -2.6
v 14.4 14.8 -2.6
v 14.3 14.8 -2.6
v 14.3 14.9 -2.6
v 1.4 14.8 -2.6
v 1.4 14.7 -2.6
v 1.4 14.7 -2.5
v 1.4 14.8 -2.5
v 1.4 14.8 -2.6
v 1.4 14.8 -2.5
v 1.5 14.8 -2.5
v 1.5 14.8 -2.6
v 1.4 14.7 -2.5
v 1.4 14.7 -2.6
v 1.5 14.7 -2.6
v 1.5 14.7 -2.5
v 1.4 14.8 -2.5
v 1.4 14.7 -2.5
v 1.5 14.7 -2.5
v 1.5 14.8 -2.5
v 1.5 14.8 -2.6
v 1.5 14.7 -2.6
v 1.4 14.7 -2.6
v 1.4 14.8 -2.6
v 1.5 14.8 -2.6
v 1.5 14.8 -2.5
v 1.6 14.8 -2.5
v 1.6 14.8 -2.6
v 1.5 14.7 -2.5
v 1.5 14.7 -2.6
v 1.6 14.7 -2.6
v 1.6 14.7 -2.5
v 1.5 14.8 -2.5
v 1.5 14.7 -2.5
v 1.6 14.7 -2.5
v 1.6 14.8 -2.5
v 1.6 14.8 -2.6
v 1.6 14.7 -2.6
v 1.5 14.7 -2.6
v 1.5 14.8 -2.6
v 1.7 14.8 -2.5
v 1.7 14.7 -2.5
v 1.7 14.7 -2.6
v 1.7 14.8 -2.6
v 1.6 14.8 -2.6
v 1.6 14.8 -2.5
v 1.7 14.8 -2.5
v 1.7 14.8 -2.6
v 1.6 14.7 -2.5
v 1.6 14.7 -2.6
v 1.7 14.7 -2.6
v 1.7 14.7 -2.5
v 1.6 14.8 -2.5
v 1.6 14.7 -2.5
v 1.7 14.7 -2.5
v 1.7 14.8 -2.5
v 1.7 14.8 -2.6
v 1.7 14.7 -2.6
v 1.6 14.7 -2.6
v 1.6 14.8 -2.6
v 11.1 14.8 -2.6
v 11.1 14.7 -2.6
v 11.1 14.7 -2.5
v 11.1 14.8 -2.5
v 11.2 14.8 -2.5
v 11.2 14.7 -2.5
v 11.2 14.7 -2.6
v 11.2 14.8 -2.6
v 11.1 14.8 -2.6
v 11.1 14.8 -2.5
v 11.2 14.8 -2.5
v 11.2 14.8 -2.6
v 11.1 14.8 -2.5
v 11.1 14.7 -2.5
v 11.2 14.7 -2.5
v 11.2 14.8 -2.5
v 11.2 14.8 -2.6
v 11.2 14.7 -2.6
v 11.1 14.7 -2.6
v 11.1 14.8 -2.6
v 11.4 14.8 -2.6
v 11.4 14.7 -2.6
v 11.4 14.7 -2.5
v 11.4 14.8 -2.5
v 11.5 14.8 -2.5
v 11.5 14.7 -2.5
v 11.5 14.7 -2.6
v 11.5 14.8 -2.6
v 11.4 14.8 -2.6
v 11.4 14.8 -2.5
v 11.5 14.8 -2.5
v 11.5 14.8 -2.6
v 11.4 14.7 -2.5
v 11.4 14.7 -2.6
v 11.5 14.7 -2.6
v 11.5 14.7 -2.5
v 11.4 14.8 -2.5
v 11.4 14.7 -2.5
v 11.5 14.7 -2.5
v 11.5 14.8 -2.5
v 11.5 14.8 -2.6
v 11.5 14.7 -2.6
v 11.4 14.7 -2.6
v 11.4 14.8 -2.6
v 14.3 14.8 -2.6
v 14.3 14.7 -2.6
v 14.3 14.7 -2.5
v 14.3 14.8 -2.5
v 14.3 14.7 -2.5
v 14.3 14.7 -2.6
v 14.4 14.7 -2.6
v 14.4 14.7 -2.5
v 14.3 14.8 -2.5
v 14.3 14.7 -2.5
v 14.4 14.7 -2.5
v 14.4 14.8 -2.5
v 14.4 14.8 -2.6
v 14.4 14.7 -2.6
v 14.3 14.7 -2.6
v 14.3 14.8 -2.6
v 14.5 14.8 -2.5
v 14.5 14.7 -2.5
v 14.5 14.7 -2.6
v 14.5 14.8 -2.6
v 14.4 14.8 -2.6
v 14.4 14.8 -2.5
v 14.5 14.8 -2.5
v 14.5 14.8 -2.6
v 14.4 14.8 -2.5
v 14.4 14.7 -2.5
v 14.5 14.7 -2.5
v 14.5 14.8 -2.5
v 14.5 14.8 -2.6
v 14.5 14.7 -2.6
v 14.4 14.7 -2.6
v 14.4 14.8 -2.6
v 1.9 14.7 -2.6
v 1.9 14.6 -2.6
v 1.9 14.6 -2.5
v 1.9 14.7 -2.5
v 1.9 14.7 -2.6
v 1.9 14.7 -2.5
v 2 14.7 -2.5
v 2 14.7 -2.6
v 1.9 14.6 -2.5
v 1.9 14.6 -2.6
v 2 14.6 -2.6
v 2 14.6 -2.5
v 1.9 14.7 -2.5
v 1.9 14.6 -2.5
v 2 14.6 -2.5
v 2 14.7 -2.5
v 2 14.7 -2.6
v 2 14.6 -2.6
v 1.9 14.6 -2.6
v 1.9 14.7 -2.6
v 2.1 14.7 -2.5
v 2.1 14.6 -2.5
v 2.1 14.6 -2.6
v 2.1 14.7 -2.6
v 2 14.7 -2.6
v 2 14.7 -2.5
v 2.1 14.7 -2.5
v 2.1 14.7 -2.6
v 2 14.7 -2.5
v 2 14.6 -2.5
v 2.1 14.6 -2.5
v 2.1 14.7 -2.5
v 2.1 14.7 -2.6
v 2.1 14.6 -2.6
v 2 14.6 -2.6
v 2 14.7 -2.6
v 11.1 14.7 -2.6
v 11.1 14.6 -2.6
v 11.1 14.6 -2.5
v 11.1 14.7 -2.5
v 11.2 14.7 -2.5
v 11.2 14.6 -2.5
v 11.2 14.6 -2.6
v 11.2 14.7 -2.6
v 11.1 14.7 -2.5
v 11.1 14.6 -2.5
v 11.2 14.6 -2.5
v 11.2 14.7 -2.5
v 11.2 14.7 -2.6
v 11.2 14.6 -2.6
v 11.1 14.6 -2.6
v 11.1 14.7 -2.6
v 11.3 14.7 -2.6
v 11.3 14.6 -2.6
v 11.3 14.6 -2.5
v 11.3 14.7 -2.5
v 11.4 14.7 -2.5
v 11.4 14.6 -2.5
v 11.4 14.6 -2.6
v 11.4 14.7 -2.6
v 11.3 14.7 -2.6
v 11.3 14.7 -2.5
v 11.4 14.7 -2.5
v 11.4 14.7 -2.6
v 11.3 14.7 -2.5
v 11.3 14.6 -2.5
v 11.4 14.6 -2.5
v 11.4 14.7 -2.5
v 11.4 14.7 -2.6
v 11.4 14.6 -2.6
v 11.3 14.6 -2.6
v 11.3 14.7 -2.6
v 14.4 14.7 -2.6
v 14.4 14.6 -2.6
v 14.4 14.6 -2.5
v 14.4 14.7 -2.5
v 14.5 14.7 -2.5
v 14.5 14.6 -2.5
v 14.5 14.6 -2.6
v 14.5 14.7 -2.6
v 14.4 14.7 -2.5
v 14.4 14.6 -2.5
v 14.5 14.6 -2.5
v 14.5 14.7 -2.5
v 14.5 14.7 -2.6
v 14.5 14.6 -2.6
v 14.4 14.6 -2.6
v 14.4 14.7 -2.6
v 2 14.6 -2.6
v 2 14.5 -2.6
v 2 14.5 -2.5
v 2 14.6 -2.5
v 2 14.5 -2.5
v 2 14.5 -2.6
v 2.1 14.5 -2.6
v 2.1 14.5 -2.5
v 2 14.6 -2.5
v 2 14.5 -2.5
v 2.1 14.5 -2.5
v 2.1 14.6 -2.5
v 2.1 14.6 -2.6
v 2.1 14.5 -2.6
v 2 14.5 -2.6
v 2 14.6 -2.6
v 2.2 14.6 -2.5
v 2.2 14.5 -2.5
v 2.2 14.5 -2.6
v 2.2 14.6 -2.6
v 2.1 14.6 -2.6
v 2.1 14.6 -2.5
v 2.2 14.6 -2.5
v 2.2 14.6 -2.6
v 2.1 14.6 -2.5
v 2.1 14.5 -2.5
v 2.2 14.5 -2.5
v 2.2 14.6 -2.5
v 2.2 14.6 -2.6
v 2.2 14.5 -2.6
v 2.1 14.5 -2.6
v 2.1 14.6 -2.6
v 11.1 14.6 -2.6
v 11.1 14.5 -2.6
v 11.1 14.5 -2.5
v 11.1 14.6 -2.5
v 11.2 14.6 -2.5
v 11.2 14.5 -2.5
v 11.2 14.5 -2.6
v 11.2 14.6 -2.6
v 11.1 14.5 -2.5
v 11.1 14.5 -2.6
v 11.2 14.5 -2.6
v 11.2 14.5 -2.5
v 11.1 14.6 -2.5
v 11.1 14.5 -2.5
v 11.2 14.5 -2.5
v 11.2 14.6 -2.5
v 11.2 14.6 -2.6
v 11.2 14.5 -2.6
v 11.1 14.5 -2.6
v 11.1 14.6 -2.6
v 11.3 14.6 -2.6
v 11.3 14.5 -2.6
v 11.3 14.5 -2.5
v 11.3 14.6 -2.5
v 11.4 14.6 -2.5
v 11.4 14.5 -2.5
v 11.4 14.5 -2.6
v 11.4 14.6 -2.6
v 11.3 14.5 -2.5
v 11.3 14.5 -2.6
v 11.4 14.5 -2.6
v 11.4 14.5 -2.5
v 11.3 14.6 -2.5
v 11.3 14.5 -2.5
v 11.4 14.5 -2.5
v 11.4 14.6 -2.5
v 11.4 14.6 -2.6
v 11.4 14.5 -2.6
v 11.3 14.5 -2.6
v 11.3 14.6 -2.6
v 14.4 14.6 -2.6
v 14.4 14.5 -2.6
v 14.4 14.5 -2.5
v 14.4 14.6 -2.5
v 14.5 14.6 -2.5
v 14.5 14.5 -2.5
v 14.5 14.5 -2.6
v 14.5 14.6 -2.6
v 14.4 14.5 -2.5
v 14.4 14.5 -2.6
v 14.5 14.5 -2.6
v 14.5 14.5 -2.5
v 14.4 14.6 -2.5
v 14.4 14.5 -2.5
v 14.5 14.5 -2.5
v 14.5 14.6 -2.5
v 14.5 14.6 -2.6
v 14.5 14.5 -2.6
v 14.4 14.5 -2.6
v 14.4 14.6 -2.6
v 1.7 14.5 -2.6
v 1.7 14.4 -2.6
v 1.7 14.4 -2.5
v 1.7 14.5 -2.5
v 1.8 14.5 -2.5
v 1.8 14.4 -2.5
v 1.8 14.4 -2.6
v 1.8 14.5 -2.6
v 1.7 14.5 -2.6
v 1.7 14.5 -2.5
v 1.8 14.5 -2.5
v 1.8 14.5 -2.6
v 1.7 14.4 -2.5
v 1.7 14.4 -2.6
v 1.8 14.4 -2.6
v 1.8 14.4 -2.5
v 1.7 14.5 -2.5
v 1.7 14.4 -2.5
v 1.8 14.4 -2.5
v 1.8 14.5 -2.5
v 1.8 14.5 -2.6
v 1.8 14.4 -2.6
v 1.7 14.4 -2.6
v 1.7 14.5 -2.6
v 2.1 14.5 -2.6
v 2.1 14.4 -2.6
v 2.1 14.4 -2.5
v 2.1 14.5 -2.5
v 2.1 14.4 -2.5
v 2.1 14.4 -2.6
v 2.2 14.4 -2.6
v 2.2 14.4 -2.5
v 2.1 14.5 -2.5
v 2.1 14.4 -2.5
v 2.2 14.4 -2.5
v 2.2 14.5 -2.5
v 2.2 14.5 -2.6
v 2.2 14.4 -2.6
v 2.1 14.4 -2.6
v 2.1 14.5 -2.6
v 2.3 14.5 -2.5
v 2.3 14.4 -2.5
v 2.3 14.4 -2.6
v 2.3 14.5 -2.6
v 2.2 14.5 -2.6
v 2.2 14.5 -2.5
v 2.3 14.5 -2.5
v 2.3 14.5 -2.6
v 2.2 14.5 -2.5
v 2.2 14.4 -2.5
v 2.3 14.4 -2.5
v 2.3 14.5 -2.5
v 2.3 14.5 -2.6
v 2.3 14.4 -2.6
v 2.2 14.4 -2.6
v 2.2 14.5 -2.6
v 11.2 14.5 -2.6
v 11.2 14.4 -2.6
v 11.2 14.4 -2.5
v 11.2 14.5 -2.5
v 11.3 14.5 -2.5
v 11.3 14.4 -2.5
v 11.3 14.4 -2.6
v 11.3 14.5 -2.6
v 11.2 14.5 -2.6
v 11.2 14.5 -2.5
v 11.3 14.5 -2.5
v 11.3 14.5 -2.6
v 11.2 14.4 -2.5
v 11.2 14.4 -2.6
v 11.3 14.4 -2.6
v 11.3 14.4 -2.5
v 11.2 14.5 -2.5
v 11.2 14.4 -2.5
v 11.3 14.4 -2.5
v 11.3 14.5 -2.5
v 11.3 14.5 -2.6
v 11.3 14.4 -2.6
v 11.2 14.4 -2.6
v 11.2 14.5 -2.6
v 2.2 14.4 -2.6
v 2.2 14.3 -2.6
v 2.2 14.3 -2.5
v 2.2 14.4 -2.5
v 2.2 14.4 -2.5
v 2.2 14.3 -2.5
v 2.3 14.3 -2.5
v 2.3 14.4 -2.5
v 2.3 14.4 -2.6
v 2.3 14.3 -2.6
v 2.2 14.3 -2.6
v 2.2 14.4 -2.6
v 2.4 14.4 -2.5
v 2.4 14.3 -2.5
v 2.4 14.3 -2.6
v 2.4 14.4 -2.6
v 2.3 14.4 -2.6
v 2.3 14.4 -2.5
v 2.4 14.4 -2.5
v 2.4 14.4 -2.6
v 2.3 14.4 -2.5
v 2.3 14.3 -2.5
v 2.4 14.3 -2.5
v 2.4 14.4 -2.5
v 2.4 14.4 -2.6
v 2.4 14.3 -2.6
v 2.3 14.3 -2.6
v 2.3 14.4 -2.6
v 11.1 14.4 -2.6
v 11.1 14.3 -2.6
v 11.1 14.3 -2.5
v 11.1 14.4 -2.5
v 11.2 14.4 -2.5
v 11.2 14.3 -2.5
v 11.2 14.3 -2.6
v 11.2 14.4 -2.6
v 11.1 14.4 -2.6
v 11.1 14.4 -2.5
v 11.2 14.4 -2.5
v 11.2 14.4 -2.6
v 11.1 14.3 -2.5
v 11.1 14.3 -2.6
v 11.2 14.3 -2.6
v 11.2 14.3 -2.5
v 11.1 14.4 -2.5
v 11.1 14.3 -2.5
v 11.2 14.3 -2.5
v 11.2 14.4 -2.5
v 11.2 14.4 -2.6
v 11.2 14.3 -2.6
v 11.1 14.3 -2.6
v 11.1 14.4 -2.6
v 2.2 14.3 -2.6
v 2.2 14.2 -2.6
v 2.2 14.2 -2.5
v 2.2 14.3 -2.5
v 2.2 14.2 -2.5
v 2.2 14.2 -2.6
v 2.3 14.2 -2.6
v 2.3 14.2 -2.5
v 2.2 14.3 -2.5
v 2.2 14.2 -2.5
v 2.3 14.2 -2.5
v 2.3 14.3 -2.5
v 2.3 14.3 -2.6
v 2.3 14.2 -2.6
v 2.2 14.2 -2.6
v 2.2 14.3 -2.6
v 2.4 14.3 -2.5
v 2.4 14.2 -2.5
v 2.4 14.2 -2.6
v 2.4 14.3 -2.6
v 2.3 14.3 -2.5
v 2.3 14.2 -2.5
v 2.4 14.2 -2.5
v 2.4 14.3 -2.5
v 2.4 14.3 -2.6
v 2.4 14.2 -2.6
v 2.3 14.2 -2.6
v 2.3 14.3 -2.6
v 11.2 14.3 -2.6
v 11.2 14.2 -2.6
v 11.2 14.2 -2.5
v 11.2 14.3 -2.5
v 11.3 14.3 -2.5
v 11.3 14.2 -2.5
v 11.3 14.2 -2.6
v 11.3 14.3 -2.6
v 11.2 14.3 -2.6
v 11.2 14.3 -2.5
v 11.3 14.3 -2.5
v 11.3 14.3 -2.6
v 11.2 14.2 -2.5
v 11.2 14.2 -2.6
v 11.3 14.2 -2.6
v 11.3 14.2 -2.5
v 11.2 14.3 -2.5
v 11.2 14.2 -2.5
v 11.3 14.2 -2.5
v 11.3 14.3 -2.5
v 11.3 14.3 -2.6
v 11.3 14.2 -2.6
v 11.2 14.2 -2.6
v 11.2 14.3 -2.6
v 2.3 14.2 -2.6
v 2.3 14.1 -2.6
v 2.3 14.1 -2.5
v 2.3 14.2 -2.5
v 2.3 14.2 -2.5
v 2.3 14.1 -2.5
v 2.4 14.1 -2.5
v 2.4 14.2 -2.5
v 2.4 14.2 -2.6
v 2.4 14.1 -2.6
v 2.3 14.1 -2.6
v 2.3 14.2 -2.6
v 2.5 14.2 -2.5
v 2.5 14.1 -2.5
v 2.5 14.1 -2.6
v 2.5 14.2 -2.6
v 2.4 14.2 -2.6
v 2.4 14.2 -2.5
v 2.5 14.2 -2.5
v 2.5 14.2 -2.6
v 2.4 14.2 -2.5
v 2.4 14.1 -2.5
v 2.5 14.1 -2.5
v 2.5 14.2 -2.5
v 2.5 14.2 -2.6
v 2.5 14.1 -2.6
v 2.4 14.1 -2.6
v 2.4 14.2 -2.6
v 2.8 14.2 -2.6
v 2.8 14.1 -2.6
v 2.8 14.1 -2.5
v 2.8 14.2 -2.5
v 2.9 14.2 -2.5
v 2.9 14.1 -2.5
v 2.9 14.1 -2.6
v 2.9 14.2 -2.6
v 2.8 14.2 -2.6
v 2.8 14.2 -2.5
v 2.9 14.2 -2.5
v 2.9 14.2 -2.6
v 2.8 14.1 -2.5
v 2.8 14.1 -2.6
v 2.9 14.1 -2.6
v 2.9 14.1 -2.5
v 2.8 14.2 -2.5
v 2.8 14.1 -2.5
v 2.9 14.1 -2.5
v 2.9 14.2 -2.5
v 2.9 14.2 -2.6
v 2.9 14.1 -2.6
v 2.8 14.1 -2.6
v 2.8 14.2 -2.6
v 2.3 14.1 -2.6
v 2.3 14 -2.6
v 2.3 14 -2.5
v 2.3 14.1 -2.5
v 2.3 14 -2.5
v 2.3 14 -2.6
v 2.4 14 -2.6
v 2.4 14 -2.5
v 2.3 14.1 -2.5
v 2.3 14 -2.5
v 2.4 14 -2.5
v 2.4 14.1 -2.5
v 2.4 14.1 -2.6
v 2.4 14 -2.6
v 2.3 14 -2.6
v 2.3 14.1 -2.6
v 2.5 14.1 -2.5
v 2.5 14 -2.5
v 2.5 14 -2.6
v 2.5 14.1 -2.6
v 2.4 14.1 -2.5
v 2.4 14 -2.5
v 2.5 14 -2.5
v 2.5 14.1 -2.5
v 2.5 14.1 -2.6
v 2.5 14 -2.6
v 2.4 14 -2.6
v 2.4 14.1 -2.6
v 11.1 14.1 -2.6
v 11.1 14 -2.6
v 11.1 14 -2.5
v 11.1 14.1 -2.5
v 11.2 14.1 -2.5
v 11.2 14 -2.5
v 11.2 14 -2.6
v 11.2 14.1 -2.6
v 11.1 14.1 -2.6
v 11.1 14.1 -2.5
v 11.2 14.1 -2.5
v 11.2 14.1 -2.6
v 11.1 14.1 -2.5
v 11.1 14 -2.5
v 11.2 14 -2.5
v 11.2 14.1 -2.5
v 11.2 14.1 -2.6
v 11.2 14 -2.6
v 11.1 14 -2.6
v 11.1 14.1 -2.6
v 2.4 14 -2.6
v 2.4 13.9 -2.6
v 2.4 13.9 -2.5
v 2.4 14 -2.5
v 2.5 14 -2.5
v 2.5 13.9 -2.5
v 2.5 13.9 -2.6
v 2.5 14 -2.6
v 2.4 14 -2.5
v 2.4 13.9 -2.5
v 2.5 13.9 -2.5
v 2.5 14 -2.5
v 2.5 14 -2.6
v 2.5 13.9 -2.6
v 2.4 13.9 -2.6
v 2.4 14 -2.6
v 11.1 14 -2.6
v 11.1 13.9 -2.6
v 11.1 13.9 -2.5
v 11.1 14 -2.5
v 11.2 14 -2.5
v 11.2 13.9 -2.5
v 11.2 13.9 -2.6
v 11.2 14 -2.6
v 11.1 13.9 -2.5
v 11.1 13.9 -2.6
v 11.2 13.9 -2.6
v 11.2 13.9 -2.5
v 11.1 14 -2.5
v 11.1 13.9 -2.5
v 11.2 13.9 -2.5
v 11.2 14 -2.5
v 11.2 14 -2.6
v 11.2 13.9 -2.6
v 11.1 13.9 -2.6
v 11.1 14 -2.6
v 2.4 13.9 -2.6
v 2.4 13.8 -2.6
v 2.4 13.8 -2.5
v 2.4 13.9 -2.5
v 2.5 13.9 -2.5
v 2.5 13.8 -2.5
v 2.5 13.8 -2.6
v 2.5 13.9 -2.6
v 2.4 13.9 -2.5
v 2.4 13.8 -2.5
v 2.5 13.8 -2.5
v 2.5 13.9 -2.5
v 2.5 13.9 -2.6
v 2.5 13.8 -2.6
v 2.4 13.8 -2.6
v 2.4 13.9 -2.6
v 2.3 13.8 -2.6
v 2.3 13.7 -2.6
v 2.3 13.7 -2.5
v 2.3 13.8 -2.5
v 2.3 13.8 -2.6
v 2.3 13.8 -2.5
v 2.4 13.8 -2.5
v 2.4 13.8 -2.6
v 2.3 13.8 -2.5
v 2.3 13.7 -2.5
v 2.4 13.7 -2.5
v 2.4 13.8 -2.5
v 2.4 13.8 -2.6
v 2.4 13.7 -2.6
v 2.3 13.7 -2.6
v 2.3 13.8 -2.6
v 2.5 13.8 -2.5
v 2.5 13.7 -2.5
v 2.5 13.7 -2.6
v 2.5 13.8 -2.6
v 2.4 13.8 -2.5
v 2.4 13.7 -2.5
v 2.5 13.7 -2.5
v 2.5 13.8 -2.5
v 2.5 13.8 -2.6
v 2.5 13.7 -2.6
v 2.4 13.7 -2.6
v 2.4 13.8 -2.6
v 2.3 13.7 -2.6
v 2.3 13.6 -2.6
v 2.3 13.6 -2.5
v 2.3 13.7 -2.5
v 2.3 13.7 -2.5
v 2.3 13.6 -2.5
v 2.4 13.6 -2.5
v 2.4 13.7 -2.5
v 2.4 13.7 -2.6
v 2.4 13.6 -2.6
v 2.3 13.6 -2.6
v 2.3 13.7 -2.6
v 2.5 13.7 -2.5
v 2.5 13.6 -2.5
v 2.5 13.6 -2.6
v 2.5 13.7 -2.6
v 2.4 13.7 -2.5
v 2.4 13.6 -2.5
v 2.5 13.6 -2.5
v 2.5 13.7 -2.5
v 2.5 13.7 -2.6
v 2.5 13.6 -2.6
v 2.4 13.6 -2.6
v 2.4 13.7 -2.6
v 2.3 13.6 -2.6
v 2.3 13.5 -2.6
v 2.3 13.5 -2.5
v 2.3 13.6 -2.5
v 2.3 13.6 -2.5
v 2.3 13.5 -2.5
v 2.4 13.5 -2.5
v 2.4 13.6 -2.5
v 2.4 13.6 -2.6
v 2.4 13.5 -2.6
v 2.3 13.5 -2.6
v 2.3 13.6 -2.6
v 2.5 13.6 -2.5
v 2.5 13.5 -2.5
v 2.5 13.5 -2.6
v 2.5 13.6 -2.6
v 2.4 13.5 -2.5
v 2.4 13.5 -2.6
v 2.5 13.5 -2.6
v 2.5 13.5 -2.5
v 2.4 13.6 -2.5
v 2.4 13.5 -2.5
v 2.5 13.5 -2.5
v 2.5 13.6 -2.5
v 2.5 13.6 -2.6
v 2.5 13.5 -2.6
v 2.4 13.5 -2.6
v 2.4 13.6 -2.6
v 2.3 13.5 -2.6
v 2.3 13.4 -2.6
v 2.3 13.4 -2.5
v 2.3 13.5 -2.5
v 2.4 13.5 -2.5
v 2.4 13.4 -2.5
v 2.4 13.4 -2.6
v 2.4 13.5 -2.6
v 2.3 13.5 -2.5
v 2.3 13.4 -2.5
v 2.4 13.4 -2.5
v 2.4 13.5 -2.5
v 2.4 13.5 -2.6
v 2.4 13.4 -2.6
v 2.3 13.4 -2.6
v 2.3 13.5 -2.6
v 2.3 13.4 -2.6
v 2.3 13.3 -2.6
v 2.3 13.3 -2.5
v 2.3 13.4 -2.5
v 2.4 13.4 -2.5
v 2.4 13.3 -2.5
v 2.4 13.3 -2.6
v 2.4 13.4 -2.6
v 2.3 13.3 -2.5
v 2.3 13.3 -2.6
v 2.4 13.3 -2.6
v 2.4 13.3 -2.5
v 2.3 13.4 -2.5
v 2.3 13.3 -2.5
v 2.4 13.3 -2.5
v 2.4 13.4 -2.5
v 2.4 13.4 -2.6
v 2.4 13.3 -2.6
v 2.3 13.3 -2.6
v 2.3 13.4 -2.6

# faces
f 1/1/1 2/1/1 3/1/1 4/1/1
f 5/1/3 6/1/3 7/1/3 8/1/3
f 9/1/5 10/1/5 11/1/5 12/1/5
f 13/1/6 14/1/6 15/1/6 16/1/6
f 17/1/3 18/1/3 19/1/3 20/1/3
f 21/1/4 22/1/4 23/1/4 24/1/4
f 25/1/5 26/1/5 27/1/5 28/1/5
f 29/1/6 30/1/6 31/1/6 32/1/6
f 33/1/3 34/1/3 35/1/3 36/1/3
f 37/1/4 38/1/4 39/1/4 40/1/4
f 41/1/5 42/1/5 43/1/5 44/1/5
f 45/1/6 46/1/6 47/1/6 48/1/6
f 49/1/3 50/1/3 51/1/3 52/1/3
f 53/1/4 54/1/4 55/1/4 56/1/4
f 57/1/5 58/1/5 59/1/5 60/1/5
f 61/1/6 62/1/6 63/1/6 64/1/6
f 65/1/2 66/1/2 67/1/2 68/1/2
f 69/1/3 70/1/3 71/1/3 72/1/3
f 73/1/5 74/1/5 75/1/5 76/1/5
f 77/1/6 78/1/6 79/1/6 80/1/6
f 81/1/1 82/1/1 83/1/1 84/1/1
f 85/1/3 86/1/3 87/1/3 88/1/3
f 89/1/4 90/1/4 91/1/4 92/1/4
f 93/1/5 94/1/5 95/1/5 96/1/5
f 97/1/6 98/1/6 99/1/6 100/1/6
f 101/1/3 102/1/3 103/1/3 104/1/3
f 105/1/4 106/1/4 107/1/4 108/1/4
f 109/1/5 110/1/5 111/1/5 112/1/5
f 113/1/6 114/1/6 115/1/6 116/1/6
f 117/1/3 118/1/3 119/1/3 120/1/3
f 121/1/4 122/1/4 123/1/4 124/1/4
f 125/1/5 126/1/5 127/1/5 128/1/5
f 129/1/6 130/1/6 131/1/6 132/1/6
f 133/1/2 134/1/2 135/1/2 136/1/2
f 137/1/4 138/1/4 139/1/4 140/1/4
f 141/1/5 142/1/5 143/1/5 144/1/5
f 145/1/6 146/1/6 147/1/6 148/1/6
f 149/1/1 150/1/1 151/1/1 152/1/1
f 153/1/4 154/1/4 155/1/4 156/1/4
f 157/1/5 158/1/5 159/1/5 160/1/5
f 161/1/6 162/1/6 163/1/6 164/1/6
f 165/1/3 166/1/3 167/1/3 168/1/3
f 169/1/4 170/1/4 171/1/4 172/1/4
f 173/1/5 174/1/5 175/1/5 176/1/5
f 177/1/6 178/1/6 179/1/6 180/1/6
f 181/1/3 182/1/3 183/1/3 184/1/3
f 185/1/4 186/1/4 187/1/4 188/1/4
f 189/1/5 190/1/5 191/1/5 192/1/5
f 193/1/6 194/1/6 195/1/6 196/1/6
f 197/1/2 198/1/2 199/1/2 200/1/2
f 201/1/3 202/1/3 203/1/3 204/1/3
f 205/1/4 206/1/4 207/1/4 208/1/4
f 209/1/5 210/1/5 211/1/5 212/1/5
f 213/1/6 214/1/6 215/1/6 216/1/6
f 217/1/1 218/1/1 219/1/1 220/1/1
f 221/1/3 222/1/3 223/1/3 224/1/3
f 225/1/5 226/1/5 227/1/5 228/1/5
f 229/1/6 230/1/6 231/1/6 232/1/6
f 233/1/3 234/1/3 235/1/3 236/1/3
f 237/1/5 238/1/5 239/1/5 240/1/5
f 241/1/6 242/1/6 243/1/6 244/1/6
f 245/1/3 246/1/3 247/1/3 248/1/3
f 249/1/4 250/1/4 251/1/4 252/1/4
f 253/1/5 254/1/5 255/1/5 256/1/5
f 257/1/6 258/1/6 259/1/6 260/1/6
f 261/1/2 262/1/2 263/1/2 264/1/2
f 265/1/3 266/1/3 267/1/3 268/1/3
f 269/1/4 270/1/4 271/1/4 272/1/4
f 273/1/5 274/1/5 275/1/5 276/1/5
f 277/1/6 278/1/6 279/1/6 280/1/6
f 281/1/1 282/1/1 283/1/1 284/1/1
f 285/1/3 286/1/3 287/1/3 288/1/3
f 289/1/4 290/1/4 291/1/4 292/1/4
f 293/1/5 294/1/5 295/1/5 296/1/5
f 297/1/6 298/1/6 299/1/6 300/1/6
f 301/1/3 302/1/3 303/1/3 304/1/3
f 305/1/5 306/1/5 307/1/5 308/1/5
f 309/1/6 310/1/6 311/1/6 312/1/6
f 313/1/2 314/1/2 315/1/2 316/1/2
f 317/1/3 318/1/3 319/1/3 320/1/3
f 321/1/5 322/1/5 323/1/5 324/1/5
f 325/1/6 326/1/6 327/1/6 328/1/6
f 329/1/1 330/1/1 331/1/1 332/1/1
f 333/1/3 334/1/3 335/1/3 336/1/3
f 337/1/5 338/1/5 339/1/5 340/1/5
f 341/1/6 342/1/6 343/1/6 344/1/6
f 345/1/3 346/1/3 347/1/3 348/1/3
f 349/1/5 350/1/5 351/1/5 352/1/5
f 353/1/6 354/1/6 355/1/6 356/1/6
f 357/1/4 358/1/4 359/1/4 360/1/4
f 361/1/5 362/1/5 363/1/5 364/1/5
f 365/1/6 366/1/6 367/1/6 368/1/6
f 369/1/2 370/1/2 371/1/2 372/1/2
f 373/1/4 374/1/4 375/1/4 376/1/4
f 377/1/5 378/1/5 379/1/5 380/1/5
f 381/1/6 382/1/6 383/1/6 384/1/6
f 385/1/1 386/1/1 387/1/1 388/1/1
f 389/1/4 390/1/4 391/1/4 392/1/4
f 393/1/5 394/1/5 395/1/5 396/1/5
f 397/1/6 398/1/6 399/1/6 400/1/6
f 401/1/4 402/1/4 403/1/4 404/1/4
f 405/1/5 406/1/5 407/1/5 408/1/5
f 409/1/6 410/1/6 411/1/6 412/1/6
f 413/1/2 414/1/2 415/1/2 416/1/2
f 417/1/3 418/1/3 419/1/3 420/1/3
f 421/1/4 422/1/4 423/1/4 424/1/4
f 425/1/5 426/1/5 427/1/5 428/1/5
f 429/1/6 430/1/6 431/1/6 432/1/6
f 433/1/1 434/1/1 435/1/1 436/1/1
f 437/1/3 438/1/3 439/1/3 440/1/3
f 441/1/5 442/1/5 443/1/5 444/1/5
f 445/1/6 446/1/6 447/1/6 448/1/6
f 449/1/4 450/1/4 451/1/4 452/1/4
f 453/1/5 454/1/5 455/1/5 456/1/5
f 457/1/6 458/1/6 459/1/6 460/1/6
f 461/1/2 462/1/2 463/1/2 464/1/2
f 465/1/4 466/1/4 467/1/4 468/1/4
f 469/1/5 470/1/5 471/1/5 472/1/5
f 473/1/6 474/1/6 475/1/6 476/1/6
f 477/1/1 478/1/1 479/1/1 480/1/1
f 481/1/3 482/1/3 483/1/3 484/1/3
f 485/1/4 486/1/4 487/1/4 488/1/4
f 489/1/5 490/1/5 491/1/5 492/1/5
f 493/1/6 494/1/6 495/1/6 496/1/6
f 497/1/2 498/1/2 499/1/2 500/1/2
f 501/1/3 502/1/3 503/1/3 504/1/3
f 505/1/4 506/1/4 507/1/4 508/1/4
f 509/1/5 510/1/5 511/1/5 512/1/5
f 513/1/6 514/1/6 515/1/6 516/1/6
f 517/1/1 518/1/1 519/1/1 520/1/1
f 521/1/3 522/1/3 523/1/3 524/1/3
f 525/1/4 526/1/4 527/1/4 528/1/4
f 529/1/5 530/1/5 531/1/5 532/1/5
f 533/1/6 534/1/6 535/1/6 536/1/6
f 537/1/2 538/1/2 539/1/2 540/1/2
f 541/1/4 542/1/4 543/1/4 544/1/4
f 545/1/5 546/1/5 547/1/5 548/1/5
f 549/1/6 550/1/6 551/1/6 552/1/6
f 553/1/1 554/1/1 555/1/1 556/1/1
f 557/1/3 558/1/3 559/1/3 560/1/3
f 561/1/4 562/1/4 563/1/4 564/1/4
f 565/1/5 566/1/5 567/1/5 568/1/5
f 569/1/6 570/1/6 571/1/6 572/1/6
f 573/1/2 574/1/2 575/1/2 576/1/2
f 577/1/3 578/1/3 579/1/3 580/1/3
f 581/1/4 582/1/4 583/1/4 584/1/4
f 585/1/5 586/1/5 587/1/5 588/1/5
f 589/1/6 590/1/6 591/1/6 592/1/6
f 593/1/1 594/1/1 595/1/1 596/1/1
f 597/1/2 598/1/2 599/1/2 600/1/2
f 601/1/3 602/1/3 603/1/3 604/1/3
f 605/1/4 606/1/4 607/1/4 608/1/4
f 609/1/5 610/1/5 611/1/5 612/1/5
f 613/1/6 614/1/6 615/1/6 616/1/6
f 617/1/1 618/1/1 619/1/1 620/1/1
f 621/1/2 622/1/2 623/1/2 624/1/2
f 625/1/3 626/1/3 627/1/3 628/1/3
f 629/1/4 630/1/4 631/1/4 632/1/4
f 633/1/5 634/1/5 635/1/5 636/1/5
f 637/1/6 638/1/6 639/1/6 640/1/6
f 641/1/1 642/1/1 643/1/1 644/1/1
f 645/1/2 646/1/2 647/1/2 648/1/2
f 649/1/3 650/1/3 651/1/3 652/1/3
f 653/1/5 654/1/5 655/1/5 656/1/5
f 657/1/6 658/1/6 659/1/6 660/1/6
f 661/1/1 662/1/1 663/1/1 664/1/1
f 665/1/2 666/1/2 667/1/2 668/1/2
f 669/1/3 670/1/3 671/1/3 672/1/3
f 673/1/4 674/1/4 675/1/4 676/1/4
f 677/1/5 678/1/5 679/1/5 680/1/5
f 681/1/6 682/1/6 683/1/6 684/1/6
f 685/1/1 686/1/1 687/1/1 688/1/1
f 689/1/4 690/1/4 691/1/4 692/1/4
f 693/1/5 694/1/5 695/1/5 696/1/5
f 697/1/6 698/1/6 699/1/6 700/1/6
f 701/1/2 702/1/2 703/1/2 704/1/2
f 705/1/3 706/1/3 707/1/3 708/1/3
f 709/1/5 710/1/5 711/1/5 712/1/5
f 713/1/6 714/1/6 715/1/6 716/1/6
f 717/1/1 718/1/1 719/1/1 720/1/1
f 721/1/3 722/1/3 723/1/3 724/1/3
f 725/1/4 726/1/4 727/1/4 728/1/4
f 729/1/5 730/1/5 731/1/5 732/1/5
f 733/1/6 734/1/6 735/1/6 736/1/6
f 737/1/3 738/1/3 739/1/3 740/1/3
f 741/1/4 742/1/4 743/1/4 744/1/4
f 745/1/5 746/1/5 747/1/5 748/1/5
f 749/1/6 750/1/6 751/1/6 752/1/6
f 753/1/2 754/1/2 755/1/2 756/1/2
f 757/1/3 758/1/3 759/1/3 760/1/3
f 761/1/4 762/1/4 763/1/4 764/1/4
f 765/1/5 766/1/5 767/1/5 768/1/5
f 769/1/6 770/1/6 771/1/6 772/1/6
f 773/1/1 774/1/1 775/1/1 776/1/1
f 777/1/2 778/1/2 779/1/2 780/1/2
f 781/1/3 782/1/3 783/1/3 784/1/3
f 785/1/5 786/1/5 787/1/5 788/1/5
f 789/1/6 790/1/6 791/1/6 792/1/6
f 793/1/1 794/1/1 795/1/1 796/1/1
f 797/1/2 798/1/2 799/1/2 800/1/2
f 801/1/3 802/1/3 803/1/3 804/1/3
f 805/1/4 806/1/4 807/1/4 808/1/4
f 809/1/5 810/1/5 811/1/5 812/1/5
f 813/1/6 814/1/6 815/1/6 816/1/6
f 817/1/1 818/1/1 819/1/1 820/1/1
f 821/1/4 822/1/4 823/1/4 824/1/4
f 825/1/5 826/1/5 827/1/5 828/1/5
f 829/1/6 830/1/6 831/1/6 832/1/6
f 833/1/2 834/1/2 835/1/2 836/1/2
f 837/1/3 838/1/3 839/1/3 840/1/3
f 841/1/5 842/1/5 843/1/5 844/1/5
f 845/1/6 846/1/6 847/1/6 848/1/6
f 849/1/1 850/1/1 851/1/1 852/1/1
f 853/1/3 854/1/3 855/1/3 856/1/3
f 857/1/4 858/1/4 859/1/4 860/1/4
f 861/1/5 862/1/5 863/1/5 864/1/5
f 865/1/6 866/1/6 867/1/6 868/1/6
f 869/1/2 870/1/2 871/1/2 872/1/2
f 873/1/3 874/1/3 875/1/3 876/1/3
f 877/1/5 878/1/5 879/1/5 880/1/5
f 881/1/6 882/1/6 883/1/6 884/1/6
f 885/1/1 886/1/1 887/1/1 888/1/1
f 889/1/2 890/1/2 891/1/2 892/1/2
f 893/1/5 894/1/5 895/1/5 896/1/5
f 897/1/6 898/1/6 899/1/6 900/1/6
f 901/1/1 902/1/1 903/1/1 904/1/1
f 905/1/2 906/1/2 907/1/2 908/1/2
f 909/1/3 910/1/3 911/1/3 912/1/3
f 913/1/5 914/1/5 915/1/5 916/1/5
f 917/1/6 918/1/6 919/1/6 920/1/6
f 921/1/1 922/1/1 923/1/1 924/1/1
f 925/1/2 926/1/2 927/1/2 928/1/2
f 929/1/5 930/1/5 931/1/5 932/1/5
f 933/1/6 934/1/6 935/1/6 936/1/6
f 937/1/1 938/1/1 939/1/1 940/1/1
f 941/1/4 942/1/4 943/1/4 944/1/4
f 945/1/5 946/1/5 947/1/5 948/1/5
f 949/1/6 950/1/6 951/1/6 952/1/6
f 953/1/2 954/1/2 955/1/2 956/1/2
f 957/1/3 958/1/3 959/1/3 960/1/3
f 961/1/5 962/1/5 963/1/5 964/1/5
f 965/1/6 966/1/6 967/1/6 968/1/6
f 969/1/1 970/1/1 971/1/1 972/1/1
f 973/1/2 974/1/2 975/1/2 976/1/2
f 977/1/4 978/1/4 979/1/4 980/1/4
f 981/1/5 982/1/5 983/1/5 984/1/5
f 985/1/6 986/1/6 987/1/6 988/1/6
f 989/1/1 990/1/1 991/1/1 992/1/1
f 993/1/2 994/1/2 995/1/2 996/1/2
f 997/1/4 998/1/4 999/1/4 1000/1/4
f 1001/1/5 1002/1/5 1003/1/5 1004/1/5
f 1005/1/6 1006/1/6 1007/1/6 1008/1/6
f 1009/1/1 1010/1/1 1011/1/1 1012/1/1
f 1013/1/2 1014/1/2 1015/1/2 1016/1/2
f 1017/1/4 1018/1/4 1019/1/4 1020/1/4
f 1021/1/5 1022/1/5 1023/1/5 1024/1/5
f 1025/1/6 1026/1/6 1027/1/6 1028/1/6
f 1029/1/1 1030/1/1 1031/1/1 1032/1/1
f 1033/1/2 1034/1/2 1035/1/2 1036/1/2
f 1037/1/3 1038/1/3 1039/1/3 1040/1/3
f 1041/1/4 1042/1/4 1043/1/4 1044/1/4
f 1045/1/5 1046/1/5 1047/1/5 1048/1/5
f 1049/1/6 1050/1/6 1051/1/6 1052/1/6
f 1053/1/1 1054/1/1 1055/1/1 1056/1/1
f 1057/1/4 1058/1/4 1059/1/4 1060/1/4
f 1061/1/5 1062/1/5 1063/1/5 1064/1/5
f 1065/1/6 1066/1/6 1067/1/6 1068/1/6
f 1069/1/2 1070/1/2 1071/1/2 1072/1/2
f 1073/1/3 1074/1/3 1075/1/3 1076/1/3
f 1077/1/5 1078/1/5 1079/1/5 1080/1/5
f 1081/1/6 1082/1/6 1083/1/6 1084/1/6
f 1085/1/1 1086/1/1 1087/1/1 1088/1/1
f 1089/1/2 1090/1/2 1091/1/2 1092/1/2
f 1093/1/3 1094/1/3 1095/1/3 1096/1/3
f 1097/1/4 1098/1/4 1099/1/4 1100/1/4
f 1101/1/5 1102/1/5 1103/1/5 1104/1/5
f 1105/1/6 1106/1/6 1107/1/6 1108/1/6
f 1109/1/1 1110/1/1 1111/1/1 1112/1/1
f 1113/1/5 1114/1/5 1115/1/5 1116/1/5
f 1117/1/6 1118/1/6 1119/1/6 1120/1/6
f 1121/1/2 1122/1/2 1123/1/2 1124/1/2
f 1125/1/3 1126/1/3 1127/1/3 1128/1/3
f 1129/1/5 1130/1/5 1131/1/5 1132/1/5
f 1133/1/6 1134/1/6 1135/1/6 1136/1/6
f 1137/1/1 1138/1/1 1139/1/1 1140/1/1
f 1141/1/2 1142/1/2 1143/1/2 1144/1/2
f 1145/1/3 1146/1/3 1147/1/3 1148/1/3
f 1149/1/4 1150/1/4 1151/1/4 1152/1/4
f 1153/1/5 1154/1/5 1155/1/5 1156/1/5
f 1157/1/6 1158/1/6 1159/1/6 1160/1/6
f 1161/1/1 1162/1/1 1163/1/1 1164/1/1
f 1165/1/4 1166/1/4 1167/1/4 1168/1/4
f 1169/1/5 1170/1/5 1171/1/5 1172/1/5
f 1173/1/6 1174/1/6 1175/1/6 1176/1/6
f 1177/1/2 1178/1/2 1179/1/2 1180/1/2
f 1181/1/5 1182/1/5 1183/1/5 1184/1/5
f 1185/1/6 1186/1/6 1187/1/6 1188/1/6
f 1189/1/1 1190/1/1 1191/1/1 1192/1/1
f 1193/1/2 1194/1/2 1195/1/2 1196/1/2
f 1197/1/3 1198/1/3 1199/1/3 1200/1/3
f 1201/1/4 1202/1/4 1203/1/4 1204/1/4
f 1205/1/5 1206/1/5 1207/1/5 1208/1/5
f 1209/1/6 1210/1/6 1211/1/6 1212/1/6
f 1213/1/1 1214/1/1 1215/1/1 1216/1/1
f 1217/1/5 1218/1/5 1219/1/5 1220/1/5
f 1221/1/6 1222/1/6 1223/1/6 1224/1/6
f 1225/1/2 1226/1/2 1227/1/2 1228/1/2
f 1229/1/3 1230/1/3 1231/1/3 1232/1/3
f 1233/1/5 1234/1/5 1235/1/5 1236/1/5
f 1237/1/6 1238/1/6 1239/1/6 1240/1/6
f 1241/1/1 1242/1/1 1243/1/1 1244/1/1
f 1245/1/2 1246/1/2 1247/1/2 1248/1/2
f 1249/1/3 1250/1/3 1251/1/3 1252/1/3
f 1253/1/4 1254/1/4 1255/1/4 1256/1/4
f 1257/1/5 1258/1/5 1259/1/5 1260/1/5
f 1261/1/6 1262/1/6 1263/1/6 1264/1/6
f 1265/1/1 1266/1/1 1267/1/1 1268/1/1
f 1269/1/4 1270/1/4 1271/1/4 1272/1/4
f 1273/1/5 1274/1/5 1275/1/5 1276/1/5
f 1277/1/6 1278/1/6 1279/1/6 1280/1/6
f 1281/1/2 1282/1/2 1283/1/2 1284/1/2
f 1285/1/5 1286/1/5 1287/1/5 1288/1/5
f 1289/1/6 1290/1/6 1291/1/6 1292/1/6
f 1293/1/1 1294/1/1 1295/1/1 1296/1/1
f 1297/1/2 1298/1/2 1299/1/2 1300/1/2
f 1301/1/3 1302/1/3 1303/1/3 1304/1/3
f 1305/1/5 1306/1/5 1307/1/5 1308/1/5
f 1309/1/6 1310/1/6 1311/1/6 1312/1/6
f 1313/1/1 1314/1/1 1315/1/1 1316/1/1
f 1317/1/2 1318/1/2 1319/1/2 1320/1/2
f 1321/1/5 1322/1/5 1323/1/5 1324/1/5
f 1325/1/6 1326/1/6 1327/1/6 1328/1/6
f 1329/1/1 1330/1/1 1331/1/1 1332/1/1
f 1333/1/2 1334/1/2 1335/1/2 1336/1/2
f 1337/1/4 1338/1/4 1339/1/4 1340/1/4
f 1341/1/5 1342/1/5 1343/1/5 1344/1/5
f 1345/1/6 1346/1/6 1347/1/6 1348/1/6
f 1349/1/1 1350/1/1 1351/1/1 1352/1/1
f 1353/1/2 1354/1/2 1355/1/2 1356/1/2
f 1357/1/5 1358/1/5 1359/1/5 1360/1/5
f 1361/1/6 1362/1/6 1363/1/6 1364/1/6
f 1365/1/1 1366/1/1 1367/1/1 1368/1/1
f 1369/1/3 1370/1/3 1371/1/3 1372/1/3
f 1373/1/5 1374/1/5 1375/1/5 1376/1/5
f 1377/1/6 1378/1/6 1379/1/6 1380/1/6
f 1381/1/2 1382/1/2 1383/1/2 1384/1/2
f 1385/1/5 1386/1/5 1387/1/5 1388/1/5
f 1389/1/6 1390/1/6 1391/1/6 1392/1/6
f 1393/1/1 1394/1/1 1395/1/1 1396/1/1
f 1397/1/5 1398/1/5 1399/1/5 1400/1/5
f 1401/1/6 1402/1/6 1403/1/6 1404/1/6
f 1405/1/2 1406/1/2 1407/1/2 1408/1/2
f 1409/1/5 1410/1/5 1411/1/5 1412/1/5
f 1413/1/6 1414/1/6 1415/1/6 1416/1/6
f 1417/1/1 1418/1/1 1419/1/1 1420/1/1
f 1421/1/5 1422/1/5 1423/1/5 1424/1/5
f 1425/1/6 1426/1/6 1427/1/6 1428/1/6
f 1429/1/2 1430/1/2 1431/1/2 1432/1/2
f 1433/1/4 1434/1/4 1435/1/4 1436/1/4
f 1437/1/5 1438/1/5 1439/1/5 1440/1/5
f 1441/1/6 1442/1/6 1443/1/6 1444/1/6
f 1445/1/1 1446/1/1 1447/1/1 1448/1/1
f 1449/1/2 1450/1/2 1451/1/2 1452/1/2
f 1453/1/5 1454/1/5 1455/1/5 1456/1/5
f 1457/1/6 1458/1/6 1459/1/6 1460/1/6
f 1461/1/1 1462/1/1 1463/1/1 1464/1/1
f 1465/1/2 1466/1/2 1467/1/2 1468/1/2
f 1469/1/4 1470/1/4 1471/1/4 1472/1/4
f 1473/1/5 1474/1/5 1475/1/5 1476/1/5
f 1477/1/6 1478/1/6 1479/1/6 1480/1/6

