# explosion_06  death explosion, 1 unit = 1 original pixel (death_explosion_to_obj.py)
mtllib explosion_06.mtl
o explosion_06
v 18 2.5 35
v 18 2.5 36
v 18 3.5 36
v 18 3.5 35
v 19 3.5 36
v 19 3.5 35
v 19 2.5 35
v 19 2.5 36
v 20 2.5 35
v 20 2.5 36
v 20 3.5 36
v 20 3.5 35
v 19 4.5 36
v 19 4.5 35
v 20 4.5 36
v 20 4.5 35
v 21 2.5 35
v 21 2.5 36
v 21 3.5 36
v 21 3.5 35
v 21 4.5 36
v 21 4.5 35
v 22 2.5 35
v 22 2.5 36
v 22 3.5 36
v 22 3.5 35
v 22 4.5 36
v 22 4.5 35
v 31 1.5 31
v 31 2.5 31
v 31 2.5 32
v 31 1.5 32
v 30 1.5 31
v 30 1.5 32
v 30 2.5 31
v 31 3.5 31
v 31 3.5 32
v 30 3.5 31
v 31 4.5 31
v 31 4.5 32
v 30 4.5 31
v 30 4.5 32
v 21 2.5 28
v 21 3.5 28
v 21 3.5 29
v 21 2.5 29
v 20 2.5 28
v 20 2.5 29
v 20 3.5 29
v 20 3.5 28
v -23 2.5 14
v -23 3.5 14
v -23 3.5 15
v -23 2.5 15
v -24 2.5 14
v -24 2.5 15
v -24 3.5 15
v -24 3.5 14
v -23 2.5 13
v -23 3.5 13
v -24 2.5 13
v -24 3.5 13
v -22 2.5 12
v -22 3.5 12
v -22 3.5 13
v -22 2.5 13
v -23 2.5 12
v -23 3.5 12
v 33 2.5 11
v 33 3.5 11
v 33 3.5 12
v 33 2.5 12
v 32 2.5 11
v 32 2.5 12
v 32 3.5 12
v 32 3.5 11
v 7 2.5 5
v 7 3.5 5
v 7 3.5 6
v 7 2.5 6
v 6 2.5 5
v 6 2.5 6
v 6 3.5 6
v 6 3.5 5
v 25 1.5 1
v 25 1.5 2
v 25 2.5 2
v 25 2.5 1
v 26 1.5 1
v 26 1.5 2
v 26 2.5 2
v 25 3.5 2
v 25 3.5 1
v 26 3.5 2
v 25 4.5 2
v 25 4.5 1
v 26 4.5 2
v 26 4.5 1
v 27 1.5 1
v 27 1.5 2
v 27 2.5 2
v 27 3.5 2
v 27 4.5 2
v 26 5.5 2
v 26 5.5 1
v 27 5.5 2
v 27 5.5 1
v 28 1.5 1
v 28 2.5 1
v 28 2.5 2
v 28 1.5 2
v 28 3.5 1
v 28 3.5 2
v 28 4.5 1
v 28 4.5 2
v 28 5.5 1
v 28 5.5 2
v 22 2.5 0
v 22 2.5 1
v 22 3.5 1
v 22 3.5 0
v 23 2.5 0
v 23 2.5 1
v 23 3.5 1
v 23 3.5 0
v 22 4.5 1
v 22 4.5 0
v 23 4.5 1
v 23 4.5 0
v 24 2.5 0
v 24 2.5 1
v 24 3.5 1
v 24 3.5 0
v 24 4.5 1
v 24 4.5 0
v 24 1.5 0
v 24 1.5 1
v 25 1.5 0
v 25 2.5 0
v 25 3.5 0
v 25 4.5 0
v 26 1.5 0
v 25 5.5 1
v 25 5.5 0
v 26 5.5 0
v 27 1.5 0
v 27 5.5 0
v 18 1.5 -1
v 18 1.5 0
v 18 2.5 0
v 18 2.5 -1
v 19 1.5 -1
v 19 1.5 0
v 19 2.5 0
v 18 3.5 0
v 18 3.5 -1
v 19 3.5 0
v 18 4.5 0
v 18 4.5 -1
v 19 4.5 0
v 19 4.5 -1
v 20 1.5 -1
v 20 2.5 -1
v 20 2.5 0
v 20 1.5 0
v 20 3.5 -1
v 20 3.5 0
v 20 4.5 -1
v 20 4.5 0
v 25 1.5 -1
v 25 2.5 -1
v 26 1.5 -1
v 26 2.5 -1
v 25 3.5 -1
v 26 3.5 -1
v 25 4.5 -1
v 26 4.5 -1
v 25 5.5 -1
v 26 5.5 -1
v -29 2.5 -2
v -28 2.5 -2
v -28 2.5 -1
v -29 2.5 -1
v -28 3.5 -1
v -29 3.5 -1
v -29 3.5 -2
v -28 3.5 -2
v -29 4.5 -2
v -29 4.5 -1
v -28 4.5 -1
v -28 4.5 -2
v -27 2.5 -2
v -27 3.5 -2
v -27 3.5 -1
v -27 2.5 -1
v -27 4.5 -2
v -27 4.5 -1
v 17 1.5 -2
v 17 1.5 -1
v 17 2.5 -1
v 17 2.5 -2
v 18 1.5 -2
v 17 3.5 -1
v 17 3.5 -2
v 17 4.5 -1
v 17 4.5 -2
v 18 4.5 -2
v 19 1.5 -2
v 18 5.5 -1
v 18 5.5 -2
v 19 5.5 -1
v 19 5.5 -2
v 20 1.5 -2
v 20 4.5 -2
v 20 5.5 -2
v 20 5.5 -1
v 21 1.5 -2
v 21 2.5 -2
v 21 2.5 -1
v 21 1.5 -1
v 21 3.5 -2
v 21 3.5 -1
v 21 4.5 -2
v 21 4.5 -1
v 26 1.5 -2
v 26 2.5 -2
v 27 1.5 -2
v 27 1.5 -1
v 26 3.5 -2
v 26 4.5 -2
v 26 5.5 -2
v 27 5.5 -1
v 27 5.5 -2
v 17 1.5 -3
v 17 2.5 -3
v 18 1.5 -3
v 17 3.5 -3
v 17 4.5 -3
v 18 4.5 -3
v 19 1.5 -3
v 18 5.5 -3
v 19 5.5 -3
v 19 4.5 -3
v 20 1.5 -3
v 20 4.5 -3
v 20 5.5 -3
v 21 1.5 -3
v 21 2.5 -3
v 21 3.5 -3
v 21 4.5 -3
v 26 1.5 -3
v 26 2.5 -3
v 27 1.5 -3
v 26 3.5 -3
v 26 4.5 -3
v 26 5.5 -3
v 27 5.5 -3
v 27 0.5 -3
v 27 0.5 -2
v 28 0.5 -3
v 28 0.5 -2
v 27 6.5 -2
v 27 6.5 -3
v 28 6.5 -2
v 28 6.5 -3
v 16 2.5 -4
v 16 2.5 -3
v 16 3.5 -3
v 16 3.5 -4
v 17 2.5 -4
v 17 3.5 -4
v 16 4.5 -3
v 16 4.5 -4
v 17 4.5 -4
v 17 1.5 -4
v 18 1.5 -4
v 18 2.5 -4
v 18 3.5 -4
v 18 4.5 -4
v 19 1.5 -4
v 19 2.5 -4
v 19 3.5 -4
v 19 4.5 -4
v 20 1.5 -4
v 20 2.5 -4
v 20 3.5 -4
v 20 4.5 -4
v 21 1.5 -4
v 21 2.5 -4
v 21 3.5 -4
v 21 4.5 -4
v 21 2.5 -5
v 21 3.5 -5
v 20 2.5 -5
v 20 3.5 -5
v 21 4.5 -5
v 20 4.5 -5
v -32 1.5 -16
v -32 1.5 -15
v -32 2.5 -15
v -32 2.5 -16
v -31 1.5 -16
v -31 1.5 -15
v -31 2.5 -15
v -32 3.5 -15
v -32 3.5 -16
v -31 3.5 -15
v -32 4.5 -15
v -32 4.5 -16
v -31 4.5 -15
v -31 4.5 -16
v -30 1.5 -16
v -30 1.5 -15
v -30 2.5 -15
v -30 3.5 -15
v -30 4.5 -15
v -30 4.5 -16
v -29 1.5 -16
v -29 2.5 -16
v -29 2.5 -15
v -29 1.5 -15
v -29 3.5 -16
v -29 3.5 -15
v -29 4.5 -16
v -29 4.5 -15
v -31 1.5 -17
v -30 1.5 -17
v -30 4.5 -17
v -30 5.5 -17
v -30 5.5 -16
v -31 5.5 -17
v -31 5.5 -16
v -29 1.5 -17
v -29 2.5 -17
v -29 3.5 -17
v -29 4.5 -17
v -32 1.5 -18
v -31 1.5 -18
v -32 1.5 -17
v -32 5.5 -18
v -32 5.5 -17
v -31 5.5 -18
v -30 1.5 -18
v -30 5.5 -18
v -29 1.5 -18
v -29 2.5 -18
v -29 4.5 -18
v -29 5.5 -18
v -29 5.5 -17
v -30 4.5 -18
v -28 2.5 -18
v -28 3.5 -18
v -28 3.5 -17
v -28 2.5 -17
v -29 3.5 -18
v -28 4.5 -18
v -28 4.5 -17
v -29 1.5 -19
v -29 2.5 -19
v -30 1.5 -19
v -30 2.5 -19
v -29 3.5 -19
v -30 3.5 -19
v -29 4.5 -19
v -30 4.5 -19
v 21 2.5 -23
v 21 3.5 -23
v 21 3.5 -22
v 21 2.5 -22
v 20 2.5 -23
v 20 2.5 -22
v 20 3.5 -22
v 20 3.5 -23
v 21 2.5 -25
v 21 2.5 -24
v 21 3.5 -24
v 21 3.5 -25
v 22 2.5 -25
v 22 2.5 -24
v 22 3.5 -24
v 21 4.5 -24
v 21 4.5 -25
v 22 4.5 -24
v 22 4.5 -25
v 23 2.5 -25
v 23 3.5 -25
v 23 3.5 -24
v 23 2.5 -24
v 23 4.5 -25
v 23 4.5 -24
v 20 2.5 -26
v 20 2.5 -25
v 20 3.5 -25
v 20 3.5 -26
v 21 2.5 -26
v 21 3.5 -26
v 20 4.5 -25
v 20 4.5 -26
v 21 4.5 -26
v 21 1.5 -26
v 21 1.5 -25
v 22 1.5 -26
v 22 1.5 -25
v 22 2.5 -26
v 22 4.5 -26
v 23 1.5 -26
v 23 2.5 -26
v 23 1.5 -25
v 22 3.5 -26
v 23 3.5 -26
v 23 4.5 -26
v 24 2.5 -26
v 24 3.5 -26
v 24 3.5 -25
v 24 2.5 -25
v 24 4.5 -26
v 24 4.5 -25
v 22 2.5 -27
v 22 3.5 -27
v 21 2.5 -27
v 21 3.5 -27
v 22 4.5 -27
v 21 4.5 -27
v 23 2.5 -27
v 23 3.5 -27
v 24 2.5 -27
v 24 3.5 -27
v 23 4.5 -27
v 24 4.5 -27
v 25 2.5 -27
v 25 3.5 -27
v 25 3.5 -26
v 25 2.5 -26
v 25 4.5 -27
v 25 4.5 -26
v 24 1.5 -28
v 24 1.5 -27
v 24 2.5 -28
v 25 1.5 -28
v 25 1.5 -27
v 24 3.5 -28
v 24 4.5 -28
v 25 4.5 -28
v 24 1.5 -29
v 24 2.5 -29
v 25 1.5 -29
v 25 2.5 -29
v 24 3.5 -29
v 25 3.5 -29
v 24 4.5 -29
v 25 4.5 -29
v 26 1.5 -29
v 26 1.5 -28
v 25 5.5 -28
v 25 5.5 -29
v 26 5.5 -28
v 26 5.5 -29
v 26 4.5 -28
v 21 2.5 -30
v 21 3.5 -30
v 21 3.5 -29
v 21 2.5 -29
v 20 2.5 -30
v 20 2.5 -29
v 20 3.5 -29
v 20 3.5 -30
v 21 4.5 -30
v 21 4.5 -29
v 20 4.5 -29
v 20 4.5 -30
v 25 1.5 -30
v 25 2.5 -30
v 26 1.5 -30
v 25 3.5 -30
v 25 4.5 -30
v 25 5.5 -30
v 26 5.5 -30
v 19 2.5 -31
v 19 2.5 -30
v 19 3.5 -30
v 19 3.5 -31
v 20 2.5 -31
v 20 3.5 -31
v 19 4.5 -30
v 19 4.5 -31
v 20 4.5 -31
v 21 2.5 -31
v 21 3.5 -31
v 21 4.5 -31
v 22 2.5 -31
v 22 3.5 -31
v 22 3.5 -30
v 22 2.5 -30
v 22 4.5 -31
v 22 4.5 -30
v 24 1.5 -31
v 24 1.5 -30
v 24 2.5 -30
v 24 2.5 -31
v 25 1.5 -31
v 24 3.5 -30
v 24 3.5 -31
v 24 4.5 -30
v 24 4.5 -31
v 24 5.5 -30
v 24 5.5 -31
v 25 5.5 -31
v 23 2.5 35
v 23 2.5 36
v 23 3.5 36
v 23 3.5 35
v 23 4.5 36
v 23 4.5 35
v 24 2.5 35
v 24 2.5 36
v 24 3.5 36
v 24 3.5 35
v 24 4.5 36
v 24 4.5 35
v 29 1.5 32
v 30 1.5 33
v 29 1.5 33
v 30 5.5 32
v 30 5.5 33
v 30 4.5 33
v 29 4.5 32
v 29 4.5 33
v 29 5.5 33
v 29 5.5 32
v 31 2.5 33
v 31 1.5 33
v 31 4.5 33
v 32 2.5 32
v 32 3.5 32
v 32 3.5 33
v 32 2.5 33
v 31 3.5 33
v 32 4.5 32
v 32 4.5 33
v 28 1.5 31
v 28 1.5 32
v 28 2.5 32
v 28 2.5 31
v 29 1.5 31
v 29 2.5 31
v 28 3.5 32
v 28 3.5 31
v 29 3.5 31
v 28 4.5 32
v 28 4.5 31
v 29 4.5 31
v -33 1.5 16
v -33 2.5 16
v -33 2.5 17
v -33 1.5 17
v -34 1.5 16
v -34 1.5 17
v -33 3.5 16
v -33 3.5 17
v -33 4.5 16
v -33 4.5 17
v -34 4.5 16
v -34 4.5 17
v -33 1.5 15
v -33 2.5 15
v -34 1.5 15
v -34 2.5 15
v -33 3.5 15
v -33 4.5 15
v -34 4.5 15
v -33 2.5 14
v -33 3.5 14
v -34 2.5 14
v -34 3.5 15
v -34 3.5 14
v -33 4.5 14
v -34 4.5 14
v 34 1.5 7
v 34 2.5 7
v 34 2.5 8
v 34 1.5 8
v 33 1.5 7
v 33 1.5 8
v 33 2.5 8
v 33 2.5 7
v 33 3.5 8
v 33 3.5 7
v 33 4.5 8
v 33 4.5 7
v 34 4.5 8
v 34 4.5 7
v 28 1.5 0
v 28 5.5 0
v 28 6.5 0
v 28 6.5 1
v 27 6.5 1
v 27 6.5 0
v 29 1.5 0
v 29 1.5 1
v 29 2.5 1
v 29 3.5 1
v 29 4.5 1
v 29 5.5 1
v 29 5.5 0
v 30 1.5 0
v 30 1.5 1
v 30 2.5 1
v 30 3.5 1
v 30 4.5 1
v 30 5.5 1
v 30 5.5 0
v -30 1.5 -1
v -30 2.5 -1
v -30 2.5 0
v -30 1.5 0
v -31 1.5 -1
v -31 1.5 0
v -31 2.5 0
v -30 3.5 -1
v -30 3.5 0
v -31 3.5 0
v -30 4.5 -1
v -30 4.5 0
v -31 4.5 -1
v -31 4.5 0
v 26 6.5 0
v 26 6.5 -1
v 27 6.5 -1
v 27 0.5 -1
v 27 0.5 0
v 28 0.5 -1
v 28 0.5 0
v 28 6.5 -1
v 29 0.5 -1
v 29 0.5 0
v 29 6.5 0
v 29 6.5 -1
v -31 1.5 -2
v -30 1.5 -2
v -31 4.5 -2
v -30 4.5 -2
v -29 1.5 -2
v -29 1.5 -1
v -30 2.5 -2
v -30 3.5 -2
v 29 0.5 -2
v 28 7.5 -1
v 28 7.5 -2
v 29 7.5 -1
v 29 7.5 -2
v -30 1.5 -3
v -30 2.5 -3
v -31 1.5 -3
v -31 2.5 -3
v -30 3.5 -3
v -31 3.5 -3
v -30 4.5 -3
v -31 4.5 -3
v 26 1.5 -4
v 26 2.5 -4
v 27 1.5 -4
v 27 2.5 -4
v 26 3.5 -4
v 27 3.5 -4
v 26 4.5 -4
v 27 4.5 -4
v 26 5.5 -4
v 27 5.5 -4
v -32 2.5 -17
v -32 3.5 -17
v -32 4.5 -17
v -32 5.5 -16
v -34 1.5 -18
v -34 1.5 -17
v -34 2.5 -17
v -34 2.5 -18
v -33 1.5 -18
v -33 1.5 -17
v -33 2.5 -17
v -34 3.5 -17
v -34 3.5 -18
v -33 3.5 -17
v -34 4.5 -17
v -34 4.5 -18
v -33 4.5 -17
v -33 4.5 -18
v -33 5.5 -17
v -33 5.5 -18
v -33 1.5 -19
v -32 1.5 -19
v -33 5.5 -19
v -32 5.5 -19
v -31 1.5 -19
v -32 2.5 -19
v -31 2.5 -19
v -32 3.5 -19
v -31 3.5 -19
v -32 4.5 -19
v -31 4.5 -19
v -31 5.5 -19
v -30 5.5 -19
v 27 2.5 -26
v 27 3.5 -26
v 27 3.5 -25
v 27 2.5 -25
v 26 2.5 -26
v 26 2.5 -25
v 26 3.5 -25
v 26 3.5 -26
v 26 2.5 -28
v 26 2.5 -27
v 26 1.5 -27
v 26 3.5 -28
v 26 3.5 -27
v 26 4.5 -27
v 27 1.5 -29
v 27 1.5 -28
v 27 2.5 -28
v 27 3.5 -28
v 27 4.5 -28
v 27 5.5 -28
v 27 5.5 -29
v 27 0.5 -29
v 27 0.5 -28
v 28 0.5 -29
v 28 0.5 -28
v 28 1.5 -28
v 27 6.5 -28
v 27 6.5 -29
v 28 6.5 -28
v 28 6.5 -29
v 28 5.5 -28
v 26 0.5 -30
v 26 0.5 -29
v 27 0.5 -30
v 26 6.5 -29
v 26 6.5 -30
v 27 6.5 -30
v 28 0.5 -30
v 28 6.5 -30
v -16 1.5 -31
v -16 1.5 -30
v -16 2.5 -30
v -16 2.5 -31
v -15 1.5 -31
v -15 1.5 -30
v -15 2.5 -30
v -16 3.5 -30
v -16 3.5 -31
v -15 3.5 -30
v -16 4.5 -30
v -16 4.5 -31
v -15 4.5 -30
v -15 4.5 -31
v -14 1.5 -31
v -14 1.5 -30
v -14 2.5 -30
v -14 4.5 -30
v -14 4.5 -31
v 4 2.5 -31
v 4 3.5 -31
v 4 3.5 -30
v 4 2.5 -30
v 3 2.5 -31
v 3 2.5 -30
v 3 3.5 -30
v 3 3.5 -31
v 4 4.5 -31
v 4 4.5 -30
v 3 4.5 -30
v 3 4.5 -31
v 25 0.5 -31
v 25 0.5 -30
v 26 0.5 -31
v 25 6.5 -30
v 25 6.5 -31
v 26 6.5 -31
v 27 0.5 -31
v 27 6.5 -31
v 28 0.5 -31
v 28 6.5 -31
v 28 7.5 -31
v 28 7.5 -30
v 27 7.5 -30
v 27 7.5 -31
v -15 1.5 -32
v -14 1.5 -32
v -15 2.5 -32
v -14 2.5 -32
v -15 3.5 -32
v -14 3.5 -32
v -15 4.5 -32
v -14 4.5 -32
v -13 1.5 -32
v -13 2.5 -32
v -13 2.5 -31
v -13 1.5 -31
v -13 4.5 -31
v -13 4.5 -32
v -12 2.5 -32
v -12 3.5 -32
v -12 3.5 -31
v -12 2.5 -31
v -13 3.5 -31
v -13 3.5 -32
v -12 4.5 -32
v -12 4.5 -31
v 2 2.5 -32
v 2 2.5 -31
v 2 3.5 -31
v 2 3.5 -32
v 3 2.5 -32
v 3 3.5 -32
v 2 4.5 -31
v 2 4.5 -32
v 3 4.5 -32
v 4 2.5 -32
v 4 3.5 -32
v 4 4.5 -32
v 5 2.5 -32
v 5 3.5 -32
v 5 3.5 -31
v 5 2.5 -31
v 5 4.5 -32
v 5 4.5 -31
v 23 1.5 -32
v 23 1.5 -31
v 23 2.5 -31
v 23 2.5 -32
v 24 1.5 -32
v 24 2.5 -32
v 23 3.5 -31
v 23 3.5 -32
v 24 3.5 -32
v 23 4.5 -31
v 23 4.5 -32
v 24 4.5 -32
v 25 0.5 -32
v 25 1.5 -32
v 26 0.5 -32
v 25 5.5 -32
v 25 6.5 -32
v 26 6.5 -32
v 27 0.5 -32
v 27 6.5 -32
v -13 2.5 -33
v -13 3.5 -33
v -14 2.5 -33
v -14 3.5 -33
v -13 4.5 -33
v -14 4.5 -33
v 5 2.5 -33
v 5 3.5 -33
v 4 2.5 -33
v 4 3.5 -33
v 5 4.5 -33
v 4 4.5 -33
v 25 0.5 -33
v 25 1.5 -33
v 26 0.5 -33
v 25 5.5 -33
v 25 6.5 -33
v 26 6.5 -33
v 24 1.5 35
v 24 1.5 36
v 25 1.5 35
v 25 1.5 36
v 25 2.5 36
v 25 3.5 36
v 25 4.5 36
v 25 4.5 35
v 26 1.5 35
v 26 1.5 36
v 26 2.5 36
v 26 3.5 36
v 26 4.5 36
v 26 4.5 35
v 27 1.5 35
v 27 2.5 35
v 27 2.5 36
v 27 1.5 36
v 27 3.5 35
v 27 3.5 36
v 27 4.5 35
v 27 4.5 36
v 10 2.5 34
v 10 3.5 34
v 10 3.5 35
v 10 2.5 35
v 9 2.5 34
v 9 2.5 35
v 9 3.5 35
v 9 3.5 34
v 24 1.5 34
v 24 2.5 34
v 25 1.5 34
v 25 2.5 34
v 24 3.5 34
v 25 3.5 34
v 24 4.5 34
v 25 4.5 34
v 26 1.5 34
v 26 2.5 34
v 26 3.5 34
v 26 4.5 34
v 24 2.5 33
v 24 3.5 33
v 23 2.5 33
v 23 2.5 34
v 23 3.5 34
v 23 3.5 33
v 30 1.5 34
v 29 1.5 34
v 30 2.5 34
v 29 2.5 34
v 30 3.5 34
v 29 3.5 34
v 29 4.5 34
v 30 4.5 34
v 32 2.5 29
v 32 3.5 29
v 32 3.5 30
v 32 2.5 30
v 31 2.5 29
v 31 2.5 30
v 31 3.5 30
v 31 3.5 29
v -34 1.5 18
v -33 1.5 18
v -33 1.5 19
v -34 1.5 19
v -34 4.5 18
v -34 4.5 19
v -33 4.5 19
v -33 4.5 18
v -32 1.5 18
v -32 2.5 18
v -32 2.5 19
v -32 1.5 19
v -33 2.5 18
v -32 3.5 18
v -32 3.5 19
v -33 3.5 18
v -32 4.5 18
v -32 4.5 19
v -35 1.5 16
v -35 1.5 17
v -35 2.5 17
v -35 2.5 16
v -35 3.5 17
v -35 3.5 16
v -35 4.5 17
v -35 4.5 16
v -35 1.5 15
v -35 2.5 15
v -35 3.5 15
v -35 4.5 15
v 32 1.5 2
v 32 1.5 3
v 32 2.5 3
v 32 2.5 2
v 33 1.5 2
v 33 1.5 3
v 33 2.5 3
v 32 3.5 3
v 32 3.5 2
v 33 3.5 3
v 32 4.5 3
v 32 4.5 2
v 33 4.5 3
v 33 4.5 2
v 31 1.5 1
v 31 1.5 2
v 31 2.5 2
v 31 2.5 1
v 32 1.5 1
v 31 3.5 2
v 31 3.5 1
v 31 4.5 2
v 31 4.5 1
v 31 5.5 2
v 31 5.5 1
v 32 5.5 2
v 32 5.5 1
v 31 1.5 0
v 30 6.5 1
v 30 6.5 0
v 31 6.5 1
v 31 6.5 0
v -32 1.5 -1
v -32 1.5 0
v -32 2.5 0
v -32 2.5 -1
v -32 3.5 0
v -32 3.5 -1
v -32 4.5 0
v -32 4.5 -1
v -23 2.5 -1
v -23 3.5 -1
v -23 3.5 0
v -23 2.5 0
v -24 2.5 -1
v -24 2.5 0
v -24 3.5 0
v -24 3.5 -1
v 30 0.5 -1
v 30 0.5 0
v 30 6.5 -1
v 31 0.5 -1
v 31 0.5 0
v 31 6.5 -1
v -32 1.5 -2
v -32 4.5 -2
v -20 2.5 -2
v -20 2.5 -1
v -20 3.5 -1
v -20 3.5 -2
v -19 2.5 -2
v -19 2.5 -1
v -19 3.5 -1
v -20 4.5 -1
v -20 4.5 -2
v -19 4.5 -1
v -19 4.5 -2
v -18 2.5 -2
v -18 3.5 -2
v -18 3.5 -1
v -18 2.5 -1
v -18 4.5 -2
v -18 4.5 -1
v 30 0.5 -2
v 30 7.5 -1
v 30 7.5 -2
v 31 0.5 -2
v 31 6.5 -2
v 31 7.5 -2
v 31 7.5 -1
v -33 1.5 -3
v -32 1.5 -3
v -33 1.5 -2
v -33 2.5 -3
v -32 2.5 -3
v -33 3.5 -3
v -32 3.5 -3
v -33 4.5 -3
v -33 4.5 -2
v -32 4.5 -3
v -20 2.5 -3
v -20 3.5 -3
v -19 2.5 -3
v -19 3.5 -3
v -20 4.5 -3
v -19 4.5 -3
v -18 2.5 -3
v -18 3.5 -3
v -18 4.5 -3
v -17 2.5 -3
v -17 3.5 -3
v -17 3.5 -2
v -17 2.5 -2
v -17 4.5 -3
v -17 4.5 -2
v 29 0.5 -3
v 28 7.5 -3
v 29 7.5 -3
v 29 6.5 -3
v 30 0.5 -3
v 30 7.5 -3
v -8 2.5 -12
v -8 3.5 -12
v -8 3.5 -11
v -8 2.5 -11
v -9 2.5 -12
v -9 2.5 -11
v -9 3.5 -11
v -9 3.5 -12
v -5 2.5 -13
v -5 2.5 -12
v -5 3.5 -12
v -5 3.5 -13
v -4 3.5 -12
v -4 3.5 -13
v -4 2.5 -13
v -4 2.5 -12
v -3 2.5 -13
v -3 3.5 -13
v -3 3.5 -12
v -3 2.5 -12
v 4 1.5 -13
v 4 1.5 -12
v 4 2.5 -12
v 4 2.5 -13
v 5 1.5 -13
v 5 1.5 -12
v 5 2.5 -12
v 4 3.5 -12
v 4 3.5 -13
v 5 3.5 -12
v 4 4.5 -12
v 4 4.5 -13
v 5 4.5 -12
v 5 4.5 -13
v 6 1.5 -13
v 6 1.5 -12
v 6 2.5 -12
v 6 3.5 -12
v 6 4.5 -12
v 6 4.5 -13
v 7 1.5 -13
v 7 2.5 -13
v 7 2.5 -12
v 7 1.5 -12
v 7 3.5 -13
v 7 3.5 -12
v 7 4.5 -13
v 7 4.5 -12
v 3 1.5 -14
v 3 1.5 -13
v 3 2.5 -13
v 3 2.5 -14
v 4 1.5 -14
v 3 3.5 -13
v 3 3.5 -14
v 3 4.5 -13
v 3 4.5 -14
v 4 4.5 -14
v 5 1.5 -14
v 4 5.5 -13
v 4 5.5 -14
v 5 5.5 -13
v 5 5.5 -14
v 6 1.5 -14
v 6 5.5 -13
v 6 5.5 -14
v 7 1.5 -14
v 7 4.5 -14
v 7 5.5 -14
v 7 5.5 -13
v 6 4.5 -14
v 8 1.5 -14
v 8 2.5 -14
v 8 2.5 -13
v 8 1.5 -13
v 8 3.5 -14
v 8 3.5 -13
v 8 4.5 -14
v 8 4.5 -13
v -26 2.5 -15
v -26 3.5 -15
v -26 3.5 -14
v -26 2.5 -14
v -27 2.5 -15
v -27 2.5 -14
v -27 3.5 -14
v -27 3.5 -15
v 2 2.5 -15
v 2 2.5 -14
v 2 3.5 -14
v 2 3.5 -15
v 3 2.5 -15
v 3 3.5 -15
v 2 4.5 -14
v 2 4.5 -15
v 3 4.5 -15
v 3 1.5 -15
v 4 1.5 -15
v 4 4.5 -15
v 5 1.5 -15
v 4 5.5 -15
v 5 5.5 -15
v 5 4.5 -15
v 6 1.5 -15
v 5 2.5 -15
v 6 2.5 -15
v 5 3.5 -15
v 6 3.5 -15
v 6 4.5 -15
v 6 5.5 -15
v 7 1.5 -15
v 7 2.5 -15
v 7 3.5 -15
v 7 4.5 -15
v 8 1.5 -15
v 8 2.5 -15
v 8 3.5 -15
v 8 4.5 -15
v 3 1.5 -16
v 3 2.5 -16
v 4 1.5 -16
v 4 2.5 -16
v 3 3.5 -16
v 3 4.5 -16
v 4 4.5 -16
v 5 1.5 -16
v 5 2.5 -16
v 5 3.5 -16
v 4 3.5 -16
v 5 4.5 -16
v 4 2.5 -17
v 4 3.5 -17
v 3 2.5 -17
v 3 3.5 -17
v 4 4.5 -17
v 3 4.5 -17
v -35 2.5 -18
v -35 3.5 -18
v -35 3.5 -17
v -35 2.5 -17
v -36 2.5 -18
v -36 2.5 -17
v -36 3.5 -17
v -36 3.5 -18
v -35 4.5 -18
v -35 4.5 -17
v -36 4.5 -17
v -36 4.5 -18
v 3 2.5 -18
v 3 3.5 -18
v 4 2.5 -18
v 4 3.5 -18
v 3 4.5 -18
v 4 4.5 -18
v 5 2.5 -18
v 5 3.5 -18
v 5 3.5 -17
v 5 2.5 -17
v 5 4.5 -18
v 5 4.5 -17
v -35 1.5 -19
v -34 1.5 -19
v -35 1.5 -18
v -35 4.5 -19
v -34 4.5 -19
v -34 5.5 -18
v -34 5.5 -19
v -34 1.5 -20
v -33 1.5 -20
v -34 5.5 -20
v -33 5.5 -20
v -34 4.5 -20
v -33 4.5 -20
v -32 1.5 -20
v -32 2.5 -20
v -32 3.5 -20
v -32 4.5 -20
v -32 5.5 -20
v -32 1.5 -21
v -32 2.5 -21
v -33 1.5 -21
v -33 2.5 -21
v -33 4.5 -21
v -32 4.5 -21
v -31 2.5 -21
v -31 3.5 -21
v -31 3.5 -20
v -31 2.5 -20
v -32 3.5 -21
v -31 4.5 -21
v -31 4.5 -20
v -25 2.5 -25
v -25 3.5 -25
v -25 3.5 -24
v -25 2.5 -24
v -26 2.5 -25
v -26 2.5 -24
v -26 3.5 -24
v -26 3.5 -25
v 27 1.5 -27
v 27 1.5 -26
v 27 2.5 -27
v 28 1.5 -27
v 28 1.5 -26
v 28 2.5 -26
v 27 3.5 -27
v 28 3.5 -26
v 27 4.5 -26
v 27 4.5 -27
v 28 4.5 -26
v 27 5.5 -26
v 27 5.5 -27
v 28 5.5 -26
v 28 5.5 -27
v 29 1.5 -27
v 29 1.5 -26
v 29 2.5 -26
v 29 3.5 -26
v 29 4.5 -26
v 29 5.5 -26
v 29 5.5 -27
v 30 1.5 -27
v 30 1.5 -26
v 30 2.5 -26
v 30 3.5 -26
v 30 4.5 -26
v 30 5.5 -26
v 30 5.5 -27
v 28 0.5 -27
v 29 0.5 -28
v 29 0.5 -27
v 28 6.5 -27
v 29 6.5 -27
v 29 6.5 -28
v 30 0.5 -28
v 30 0.5 -27
v 30 6.5 -27
v 30 6.5 -28
v 29 0.5 -29
v 29 6.5 -29
v 30 0.5 -29
v 30 6.5 -29
v -14 3.5 -30
v -14 3.5 -29
v -14 2.5 -29
v -15 2.5 -29
v -15 3.5 -29
v -14 4.5 -29
v -15 4.5 -29
v 29 0.5 -30
v 29 6.5 -30
v 30 0.5 -30
v 30 1.5 -30
v 30 1.5 -29
v 30 5.5 -30
v 30 6.5 -30
v 30 5.5 -29
v -13 2.5 -30
v -13 1.5 -30
v -13 3.5 -30
v -13 4.5 -30
v 29 0.5 -31
v 29 6.5 -31
v 30 0.5 -31
v 30 1.5 -31
v 30 2.5 -31
v 30 2.5 -30
v 30 3.5 -31
v 30 3.5 -30
v 30 4.5 -31
v 30 4.5 -30
v 30 5.5 -31
v 30 6.5 -31
v -17 2.5 -32
v -17 2.5 -31
v -17 3.5 -31
v -17 3.5 -32
v -16 2.5 -32
v -16 3.5 -32
v -17 4.5 -31
v -17 4.5 -32
v -16 4.5 -32
v -16 1.5 -32
v 24 5.5 -32
v 28 0.5 -32
v 28 6.5 -32
v 28 7.5 -32
v 27 7.5 -32
v 29 0.5 -32
v 29 6.5 -32
v 30 0.5 -32
v 30 1.5 -32
v 30 5.5 -32
v 30 6.5 -32
v -15 1.5 -33
v -15 2.5 -33
v -16 1.5 -33
v -16 2.5 -33
v -15 3.5 -33
v -16 3.5 -33
v -15 4.5 -33
v -16 4.5 -33
v 24 1.5 -33
v 24 2.5 -33
v 24 3.5 -33
v 24 4.5 -33
v 24 5.5 -33
v 27 0.5 -33
v 27 6.5 -33
v 28 0.5 -33
v 28 6.5 -33
v -17 1.5 -34
v -17 1.5 -33
v -17 2.5 -33
v -17 2.5 -34
v -16 1.5 -34
v -16 2.5 -34
v -17 3.5 -33
v -17 3.5 -34
v -17 4.5 -33
v -17 4.5 -34
v -16 4.5 -34
v -15 1.5 -34
v -15 4.5 -34
v -14 1.5 -34
v -14 2.5 -34
v -14 1.5 -33
v -15 2.5 -34
v -14 3.5 -34
v -14 4.5 -34
v 4 2.5 -34
v 4 3.5 -34
v 5 2.5 -34
v 5 3.5 -34
v 4 4.5 -34
v 5 4.5 -34
v 25 0.5 -34
v 25 1.5 -34
v 26 0.5 -34
v 26 1.5 -34
v 25 5.5 -34
v 25 6.5 -34
v 26 6.5 -34
v 26 5.5 -34
v 27 0.5 -34
v 27 1.5 -34
v 27 6.5 -34
v 27 5.5 -34
v 28 0.5 -34
v 28 1.5 -34
v 28 6.5 -34
v 28 5.5 -34
v -13 2.5 35
v -13 2.5 36
v -13 3.5 36
v -13 3.5 35
v -12 3.5 36
v -12 3.5 35
v -12 2.5 35
v -12 2.5 36
v -11 2.5 35
v -11 2.5 36
v -11 3.5 36
v -11 3.5 35
v -12 4.5 36
v -12 4.5 35
v -11 4.5 36
v -11 4.5 35
v -10 2.5 35
v -10 2.5 36
v -10 3.5 36
v -10 3.5 35
v -10 4.5 35
v -10 4.5 36
v -9 2.5 35
v -9 3.5 35
v -9 3.5 36
v -9 2.5 36
v -17 2.5 34
v -17 3.5 34
v -17 3.5 35
v -17 2.5 35
v -18 2.5 34
v -18 2.5 35
v -18 3.5 35
v -18 3.5 34
v -8 2.5 34
v -8 3.5 34
v -8 3.5 35
v -8 2.5 35
v -9 2.5 34
v -9 3.5 34
v 27 1.5 34
v 27 2.5 34
v 27 3.5 34
v 27 4.5 34
v 28 1.5 34
v 28 1.5 35
v 28 2.5 35
v 28 3.5 35
v 28 4.5 35
v 28 4.5 34
v 29 2.5 35
v 29 1.5 35
v 29 3.5 35
v 29 4.5 35
v -18 2.5 33
v -18 3.5 33
v -19 2.5 33
v -19 2.5 34
v -19 3.5 34
v -19 3.5 33
v -5 2.5 33
v -5 3.5 33
v -5 3.5 34
v -5 2.5 34
v -6 2.5 33
v -6 2.5 34
v -6 3.5 34
v -6 3.5 33
v 27 1.5 33
v 27 2.5 33
v 28 1.5 33
v 28 2.5 33
v 27 3.5 33
v 28 3.5 33
v 27 4.5 33
v 28 4.5 33
v 31 2.5 34
v 31 1.5 34
v 31 3.5 34
v 31 4.5 34
v -14 2.5 30
v -14 3.5 30
v -14 3.5 31
v -14 2.5 31
v -15 2.5 30
v -15 2.5 31
v -15 3.5 31
v -15 3.5 30
v -14 4.5 30
v -14 4.5 31
v -15 4.5 31
v -15 4.5 30
v -16 2.5 29
v -16 2.5 30
v -16 3.5 30
v -16 3.5 29
v -15 2.5 29
v -15 3.5 29
v -16 4.5 30
v -16 4.5 29
v -15 4.5 29
v -14 2.5 29
v -14 3.5 29
v -14 4.5 29
v -14 2.5 28
v -14 3.5 28
v -15 2.5 28
v -15 3.5 28
v -14 4.5 28
v -15 4.5 28
v -32 2.5 20
v -32 3.5 20
v -32 3.5 21
v -32 2.5 21
v -33 2.5 20
v -33 2.5 21
v -33 3.5 21
v -33 3.5 20
v -32 4.5 20
v -32 4.5 21
v -33 4.5 21
v -33 4.5 20
v -34 1.5 20
v -34 2.5 20
v -34 2.5 19
v -33 1.5 20
v -34 3.5 20
v -34 3.5 19
v -34 4.5 20
v -32 1.5 20
v -35 1.5 18
v -35 1.5 19
v -35 2.5 19
v -35 2.5 18
v -35 3.5 19
v -35 3.5 18
v -35 4.5 19
v -35 4.5 18
v -1 2.5 16
v -1 2.5 17
v -1 3.5 17
v -1 3.5 16
v 0 2.5 16
v 0 2.5 17
v 0 3.5 17
v -1 4.5 17
v -1 4.5 16
v 0 4.5 17
v 0 4.5 16
v 1 2.5 16
v 1 3.5 16
v 1 3.5 17
v 1 2.5 17
v 1 4.5 16
v 1 4.5 17
v -1 1.5 15
v -1 1.5 16
v -1 2.5 15
v 0 1.5 15
v 0 1.5 16
v 0 2.5 15
v -1 3.5 15
v -1 4.5 15
v 0 4.5 15
v 1 1.5 15
v 1 2.5 15
v 1 1.5 16
v 1 3.5 15
v 1 4.5 15
v 33 2.5 15
v 33 2.5 16
v 33 3.5 16
v 33 3.5 15
v 34 2.5 15
v 34 2.5 16
v 34 3.5 16
v 33 4.5 16
v 33 4.5 15
v 34 4.5 16
v 34 4.5 15
v 35 2.5 15
v 35 2.5 16
v 35 3.5 16
v 34 3.5 15
v 35 3.5 15
v 35 4.5 15
v 35 4.5 16
v 36 2.5 15
v 36 3.5 15
v 36 3.5 16
v 36 2.5 16
v -1 2.5 14
v -1 3.5 14
v 0 2.5 14
v 0 3.5 14
v -1 4.5 14
v 0 4.5 14
v 1 2.5 14
v 1 3.5 14
v 1 4.5 14
v 31 2.5 14
v 31 2.5 15
v 31 3.5 15
v 31 3.5 14
v 32 3.5 15
v 32 3.5 14
v 32 2.5 14
v 32 2.5 15
v 33 2.5 14
v 33 3.5 14
v 32 4.5 15
v 32 4.5 14
v 33 4.5 14
v 34 2.5 14
v 34 3.5 14
v 34 4.5 14
v -34 2.5 13
v -34 3.5 13
v -33 2.5 13
v -33 3.5 13
v -34 4.5 13
v -33 4.5 13
v -32 2.5 13
v -32 3.5 13
v -32 3.5 14
v -32 2.5 14
v -32 4.5 13
v -32 4.5 14
v 25 2.5 13
v 25 2.5 14
v 25 3.5 14
v 25 3.5 13
v 26 2.5 13
v 26 2.5 14
v 26 3.5 14
v 26 3.5 13
v 26 4.5 13
v 26 4.5 14
v 25 4.5 14
v 25 4.5 13
v 27 2.5 13
v 27 3.5 13
v 27 3.5 14
v 27 2.5 14
v -32 2.5 12
v -32 3.5 12
v -33 2.5 12
v -33 3.5 12
v -32 4.5 12
v -33 4.5 12
v 26 2.5 12
v 26 3.5 12
v 25 2.5 12
v 25 3.5 12
v 34 2.5 9
v 34 3.5 9
v 34 3.5 10
v 34 2.5 10
v 33 2.5 9
v 33 2.5 10
v 33 3.5 10
v 33 3.5 9
v 34 4.5 9
v 34 4.5 10
v 33 4.5 10
v 33 4.5 9
v 34 3.5 8
v 35 2.5 7
v 35 3.5 7
v 35 3.5 8
v 35 2.5 8
v 35 4.5 7
v 35 4.5 8
v 33 2.5 6
v 33 3.5 6
v 34 2.5 6
v 34 3.5 6
v 33 4.5 6
v 34 4.5 6
v 35 1.5 6
v 35 2.5 6
v 35 1.5 7
v 34 1.5 6
v 35 3.5 6
v 35 4.5 6
v 34 1.5 5
v 34 2.5 5
v 35 1.5 5
v 34 3.5 5
v 34 4.5 5
v 35 4.5 5
v 36 1.5 5
v 36 2.5 5
v 36 2.5 6
v 36 1.5 6
v 36 3.5 5
v 36 3.5 6
v 36 4.5 5
v 36 4.5 6
v 34 1.5 4
v 34 2.5 4
v 35 1.5 4
v 34 3.5 4
v 34 4.5 4
v 35 4.5 4
v 36 1.5 4
v 36 2.5 4
v 36 3.5 4
v 36 4.5 4
v 33 1.5 4
v 33 2.5 4
v 34 1.5 3
v 33 3.5 4
v 33 4.5 4
v 34 4.5 3
v 35 1.5 3
v 35 4.5 3
v 36 1.5 3
v 36 2.5 3
v 35 2.5 3
v 36 3.5 3
v 35 3.5 3
v 36 4.5 3
v 34 1.5 2
v 34 4.5 2
v 34 5.5 2
v 34 5.5 3
v 33 5.5 3
v 33 5.5 2
v 35 1.5 2
v 35 2.5 2
v 34 2.5 2
v 35 3.5 2
v 34 3.5 2
v 35 4.5 2
v 33 1.5 1
v 33 5.5 1
v 34 1.5 1
v 34 2.5 1
v 34 3.5 1
v 34 4.5 1
v 34 5.5 1
v 32 0.5 0
v 32 1.5 0
v 32 0.5 1
v 31 0.5 1
v 32 6.5 1
v 32 6.5 0
v 33 1.5 0
v 33 5.5 0
v 33 6.5 0
v 33 6.5 1
v 34 1.5 0
v 34 2.5 0
v 34 3.5 0
v 34 4.5 0
v 34 5.5 0
v 32 0.5 -1
v 32 6.5 -1
v 33 0.5 -1
v 33 1.5 -1
v 33 0.5 0
v 33 5.5 -1
v 33 6.5 -1
v 34 1.5 -1
v 34 2.5 -1
v 34 3.5 -1
v 34 4.5 -1
v 34 5.5 -1
v -34 1.5 -2
v -34 1.5 -1
v -34 2.5 -1
v -34 2.5 -2
v -33 1.5 -1
v -33 2.5 -1
v -34 3.5 -1
v -34 3.5 -2
v -33 3.5 -1
v -34 4.5 -1
v -34 4.5 -2
v -33 4.5 -1
v 32 0.5 -2
v 32 6.5 -2
v 33 0.5 -2
v 33 1.5 -2
v 32 1.5 -2
v 33 5.5 -2
v 33 6.5 -2
v 34 1.5 -2
v 34 2.5 -2
v 33 2.5 -2
v 34 3.5 -2
v 33 3.5 -2
v 34 4.5 -2
v 33 4.5 -2
v 34 5.5 -2
v -35 2.5 -3
v -35 2.5 -2
v -35 3.5 -2
v -35 3.5 -3
v -34 2.5 -3
v -34 3.5 -3
v -35 4.5 -2
v -35 4.5 -3
v -34 4.5 -3
v -34 1.5 -3
v 31 0.5 -3
v 31 6.5 -3
v 31 7.5 -3
v 32 0.5 -3
v 32 1.5 -3
v 32 6.5 -3
v 33 1.5 -3
v 33 2.5 -3
v 33 3.5 -3
v 33 4.5 -3
v 33 5.5 -3
v 33 6.5 -3
v 32 5.5 -3
v 27 0.5 -4
v 28 0.5 -4
v 28 1.5 -4
v 27 6.5 -4
v 28 6.5 -4
v 28 5.5 -4
v 29 0.5 -4
v 29 6.5 -4
v 30 0.5 -4
v 29 7.5 -4
v 30 7.5 -4
v 30 6.5 -4
v 31 0.5 -4
v 31 6.5 -4
v 31 7.5 -4
v 32 0.5 -4
v 32 1.5 -4
v 32 5.5 -4
v 32 6.5 -4
v 33 1.5 -4
v 33 2.5 -4
v 33 3.5 -4
v 33 4.5 -4
v 33 5.5 -4
v 27 1.5 -5
v 27 2.5 -5
v 28 1.5 -5
v 27 3.5 -5
v 27 4.5 -5
v 27 5.5 -5
v 28 5.5 -5
v 28 0.5 -5
v 29 0.5 -5
v 29 1.5 -5
v 28 6.5 -5
v 29 6.5 -5
v 29 5.5 -5
v 30 0.5 -5
v 30 6.5 -5
v 31 0.5 -5
v 31 6.5 -5
v 32 0.5 -5
v 32 1.5 -5
v 31 1.5 -5
v 32 5.5 -5
v 32 6.5 -5
v 31 5.5 -5
v 33 1.5 -5
v 33 2.5 -5
v 33 3.5 -5
v 33 4.5 -5
v 33 5.5 -5
v 27 1.5 -6
v 27 2.5 -6
v 28 1.5 -6
v 28 2.5 -6
v 27 3.5 -6
v 28 3.5 -6
v 27 4.5 -6
v 28 4.5 -6
v 27 5.5 -6
v 28 5.5 -6
v 29 1.5 -6
v 29 2.5 -6
v 29 3.5 -6
v 29 4.5 -6
v 29 5.5 -6
v 29 0.5 -6
v 30 0.5 -6
v 30 1.5 -6
v 29 6.5 -6
v 30 6.5 -6
v 30 5.5 -6
v 31 0.5 -6
v 31 1.5 -6
v 31 5.5 -6
v 31 6.5 -6
v 32 1.5 -6
v 31 2.5 -6
v 32 2.5 -6
v 31 3.5 -6
v 32 3.5 -6
v 31 4.5 -6
v 32 4.5 -6
v 32 5.5 -6
v 33 1.5 -6
v 33 2.5 -6
v 33 3.5 -6
v 33 4.5 -6
v 33 5.5 -6
v 29 1.5 -7
v 29 2.5 -7
v 30 1.5 -7
v 29 3.5 -7
v 29 4.5 -7
v 29 5.5 -7
v 30 5.5 -7
v 30 4.5 -7
v 31 1.5 -7
v 31 2.5 -7
v 31 3.5 -7
v 31 4.5 -7
v 31 5.5 -7
v 33 2.5 -7
v 33 3.5 -7
v 32 2.5 -7
v 32 3.5 -7
v 33 4.5 -7
v 32 4.5 -7
v 29 1.5 -8
v 29 2.5 -8
v 30 1.5 -8
v 30 2.5 -8
v 29 3.5 -8
v 30 3.5 -8
v 29 4.5 -8
v 30 4.5 -8
v 31 1.5 -8
v 31 2.5 -8
v 31 3.5 -8
v 31 4.5 -8
v 31 1.5 -9
v 31 2.5 -9
v 30 1.5 -9
v 30 2.5 -9
v 31 3.5 -9
v 30 3.5 -9
v 31 4.5 -9
v 30 4.5 -9
v 31 2.5 -10
v 31 3.5 -10
v 30 2.5 -10
v 30 3.5 -10
v 31 4.5 -10
v 30 4.5 -10
v 31 2.5 -11
v 31 3.5 -11
v 30 2.5 -11
v 30 3.5 -11
v 31 4.5 -11
v 30 4.5 -11
v 31 2.5 -15
v 31 3.5 -15
v 31 3.5 -14
v 31 2.5 -14
v 30 2.5 -15
v 30 2.5 -14
v 30 3.5 -14
v 30 3.5 -15
v -36 1.5 -19
v -36 1.5 -18
v -36 2.5 -19
v -36 3.5 -19
v -36 4.5 -19
v 32 2.5 -19
v 32 3.5 -19
v 32 3.5 -18
v 32 2.5 -18
v 31 2.5 -19
v 31 2.5 -18
v 31 3.5 -18
v 31 3.5 -19
v 34 2.5 -19
v 34 3.5 -19
v 34 3.5 -18
v 34 2.5 -18
v 33 2.5 -19
v 33 2.5 -18
v 33 3.5 -18
v 33 3.5 -19
v -36 1.5 -20
v -36 2.5 -20
v -35 1.5 -20
v -35 2.5 -20
v -36 3.5 -20
v -35 3.5 -20
v -36 4.5 -20
v -35 4.5 -20
v -35 5.5 -19
v -35 5.5 -20
v 31 2.5 -20
v 31 3.5 -20
v 32 2.5 -20
v 32 3.5 -20
v 31 4.5 -19
v 31 4.5 -20
v 32 4.5 -19
v 32 4.5 -20
v 33 2.5 -20
v 33 3.5 -20
v 33 4.5 -20
v 33 4.5 -19
v -35 1.5 -21
v -35 2.5 -21
v -34 1.5 -21
v -34 2.5 -21
v -35 3.5 -21
v -34 3.5 -21
v -35 4.5 -21
v -34 4.5 -21
v -33 3.5 -21
v 33 2.5 -21
v 33 3.5 -21
v 32 2.5 -21
v 32 3.5 -21
v -32 2.5 -22
v -32 3.5 -22
v -33 2.5 -22
v -33 3.5 -22
v -32 4.5 -22
v -33 4.5 -22
v 31 1.5 -27
v 31 1.5 -26
v 31 2.5 -26
v 31 3.5 -26
v 31 4.5 -26
v 31 5.5 -26
v 31 5.5 -27
v 32 1.5 -27
v 32 1.5 -26
v 32 2.5 -26
v 32 3.5 -26
v 32 4.5 -26
v 32 4.5 -27
v 32 5.5 -27
v 32 5.5 -26
v 33 1.5 -27
v 33 2.5 -27
v 33 2.5 -26
v 33 1.5 -26
v 33 3.5 -27
v 33 3.5 -26
v 33 4.5 -27
v 33 4.5 -26
v 31 0.5 -28
v 31 1.5 -28
v 31 0.5 -27
v 31 5.5 -28
v 31 6.5 -28
v 31 6.5 -27
v 32 1.5 -28
v 32 5.5 -28
v 33 1.5 -28
v 33 2.5 -28
v 33 3.5 -28
v 33 4.5 -28
v 33 5.5 -28
v 33 5.5 -27
v 31 0.5 -29
v 31 1.5 -29
v 31 6.5 -29
v 31 5.5 -29
v 32 1.5 -29
v 32 5.5 -29
v 32 6.5 -29
v 32 6.5 -28
v 33 1.5 -29
v 33 2.5 -29
v 33 3.5 -29
v 33 4.5 -29
v 33 5.5 -29
v 31 1.5 -30
v 31 2.5 -30
v 31 3.5 -30
v 31 4.5 -30
v 31 5.5 -30
v 32 1.5 -30
v 32 5.5 -30
v 33 1.5 -30
v 33 2.5 -30
v 33 3.5 -30
v 33 4.5 -30
v 33 5.5 -30
v 31 1.5 -31
v 31 2.5 -31
v 32 1.5 -31
v 31 3.5 -31
v 31 4.5 -31
v 31 5.5 -31
v 32 5.5 -31
v 33 1.5 -31
v 33 2.5 -31
v 33 3.5 -31
v 33 4.5 -31
v 33 5.5 -31
v 32 4.5 -31
v 31 1.5 -32
v 31 5.5 -32
v 32 1.5 -32
v 32 4.5 -32
v 32 5.5 -32
v 33 1.5 -32
v 33 2.5 -32
v 32 2.5 -32
v 33 3.5 -32
v 32 3.5 -32
v 33 4.5 -32
v 29 0.5 -33
v 29 6.5 -33
v 30 0.5 -33
v 30 1.5 -33
v 29 1.5 -33
v 30 5.5 -33
v 30 6.5 -33
v 31 1.5 -33
v 31 5.5 -33
v 32 1.5 -33
v 32 2.5 -33
v 31 2.5 -33
v 32 3.5 -33
v 31 3.5 -33
v 32 4.5 -33
v 31 4.5 -33
v 32 5.5 -33
v 6 2.5 -34
v 6 3.5 -34
v 6 3.5 -33
v 6 2.5 -33
v 6 4.5 -34
v 6 4.5 -33
v 23 1.5 -34
v 23 1.5 -33
v 23 2.5 -33
v 23 2.5 -34
v 24 1.5 -34
v 24 2.5 -34
v 23 3.5 -33
v 23 3.5 -34
v 24 3.5 -34
v 23 4.5 -33
v 23 4.5 -34
v 24 4.5 -34
v 24 5.5 -34
v 25 4.5 -34
v 29 0.5 -34
v 29 1.5 -34
v 29 6.5 -34
v 29 5.5 -34
v 30 1.5 -34
v 30 5.5 -34
v 30 6.5 -34
v 31 1.5 -34
v 31 2.5 -34
v 30 2.5 -34
v 31 3.5 -34
v 30 3.5 -34
v 31 4.5 -34
v 30 4.5 -34
v 31 5.5 -34
v -17 2.5 -35
v -17 3.5 -35
v -16 2.5 -35
v -16 3.5 -35
v -17 4.5 -35
v -16 4.5 -35
v -15 1.5 -35
v -15 2.5 -35
v -16 1.5 -35
v -15 3.5 -35
v -15 4.5 -35
v -14 2.5 -35
v -14 3.5 -35
v -14 4.5 -35
v 6 2.5 -35
v 6 3.5 -35
v 5 2.5 -35
v 5 3.5 -35
v 24 1.5 -35
v 24 2.5 -35
v 25 1.5 -35
v 25 2.5 -35
v 24 3.5 -35
v 25 3.5 -35
v 24 4.5 -35
v 25 4.5 -35
v 26 1.5 -35
v 26 2.5 -35
v 26 3.5 -35
v 26 4.5 -35
v 25 5.5 -35
v 26 5.5 -35
v 27 1.5 -35
v 27 2.5 -35
v 27 3.5 -35
v 27 4.5 -35
v 27 5.5 -35
v 28 1.5 -35
v 28 2.5 -35
v 28 3.5 -35
v 28 4.5 -35
v 28 5.5 -35
v 29 1.5 -35
v 29 2.5 -35
v 29 3.5 -35
v 29 4.5 -35
v 29 5.5 -35
v 30 1.5 -35
v 30 2.5 -35
v 30 3.5 -35
v 30 4.5 -35
v 30 5.5 -35
g m_750000
usemtl m_750000
f 1 2 3 4
f 4 3 5 6
f 1 7 8 2
f 2 8 5 3
f 1 4 6 7
f 7 9 10 8
f 8 10 11 5
f 7 6 12 9
f 6 5 13 14
f 14 13 15 16
f 5 11 15 13
f 6 14 16 12
f 9 17 18 10
f 10 18 19 11
f 9 12 20 17
f 16 15 21 22
f 11 19 21 15
f 12 16 22 20
f 17 23 24 18
f 18 24 25 19
f 17 20 26 23
f 22 21 27 28
f 19 25 27 21
f 20 22 28 26
f 29 30 31 32
f 33 29 32 34
f 33 35 30 29
f 30 36 37 31
f 35 38 36 30
f 36 39 40 37
f 41 42 40 39
f 38 41 39 36
f 43 44 45 46
f 47 48 49 50
f 50 49 45 44
f 47 43 46 48
f 48 46 45 49
f 47 50 44 43
f 51 52 53 54
f 55 56 57 58
f 58 57 53 52
f 55 51 54 56
f 56 54 53 57
f 59 60 52 51
f 61 55 58 62
f 62 58 52 60
f 61 59 51 55
f 61 62 60 59
f 63 64 65 66
f 67 59 60 68
f 68 60 65 64
f 67 63 66 59
f 59 66 65 60
f 67 68 64 63
f 69 70 71 72
f 73 74 75 76
f 76 75 71 70
f 73 69 72 74
f 74 72 71 75
f 73 76 70 69
f 77 78 79 80
f 81 82 83 84
f 84 83 79 78
f 81 77 80 82
f 82 80 79 83
f 81 84 78 77
f 85 86 87 88
f 85 89 90 86
f 86 90 91 87
f 88 87 92 93
f 87 91 94 92
f 93 92 95 96
f 96 95 97 98
f 92 94 97 95
f 89 99 100 90
f 90 100 101 91
f 91 101 102 94
f 94 102 103 97
f 98 97 104 105
f 105 104 106 107
f 97 103 106 104
f 108 109 110 111
f 99 108 111 100
f 100 111 110 101
f 109 112 113 110
f 101 110 113 102
f 112 114 115 113
f 102 113 115 103
f 114 116 117 115
f 107 106 117 116
f 103 115 117 106
f 118 119 120 121
f 118 122 123 119
f 119 123 124 120
f 118 121 125 122
f 121 120 126 127
f 127 126 128 129
f 120 124 128 126
f 121 127 129 125
f 122 130 131 123
f 123 131 132 124
f 122 125 133 130
f 129 128 134 135
f 124 132 134 128
f 125 129 135 133
f 136 137 131 130
f 136 138 85 137
f 137 85 88 131
f 136 130 139 138
f 131 88 93 132
f 130 133 140 139
f 135 134 96 141
f 132 93 96 134
f 133 135 141 140
f 138 142 89 85
f 141 96 143 144
f 144 143 105 145
f 96 98 105 143
f 142 146 99 89
f 145 105 107 147
f 148 149 150 151
f 148 152 153 149
f 149 153 154 150
f 151 150 155 156
f 150 154 157 155
f 156 155 158 159
f 159 158 160 161
f 155 157 160 158
f 162 163 164 165
f 152 162 165 153
f 153 165 164 154
f 163 166 167 164
f 154 164 167 157
f 166 168 169 167
f 161 160 169 168
f 157 167 169 160
f 170 138 139 171
f 170 172 142 138
f 170 171 173 172
f 171 139 140 174
f 171 174 175 173
f 174 140 141 176
f 174 176 177 175
f 176 141 144 178
f 178 144 145 179
f 176 178 179 177
f 180 181 182 183
f 183 182 184 185
f 180 186 187 181
f 188 189 190 191
f 185 184 190 189
f 186 188 191 187
f 192 193 194 195
f 181 192 195 182
f 182 195 194 184
f 181 187 193 192
f 193 196 197 194
f 191 190 197 196
f 184 194 197 190
f 187 191 196 193
f 198 199 200 201
f 198 202 148 199
f 199 148 151 200
f 201 200 203 204
f 200 151 156 203
f 204 203 205 206
f 206 205 159 207
f 203 156 159 205
f 202 208 152 148
f 207 159 209 210
f 210 209 211 212
f 159 161 211 209
f 208 213 162 152
f 214 215 216 168
f 212 211 216 215
f 161 168 216 211
f 217 218 219 220
f 213 217 220 162
f 162 220 219 163
f 218 221 222 219
f 163 219 222 166
f 221 223 224 222
f 214 168 224 223
f 166 222 224 168
f 225 172 173 226
f 225 227 228 172
f 226 173 175 229
f 229 175 177 230
f 230 177 179 231
f 231 179 232 233
f 234 198 201 235
f 234 236 202 198
f 235 201 204 237
f 237 204 206 238
f 238 206 207 239
f 236 240 208 202
f 239 207 210 241
f 241 210 212 242
f 239 241 242 243
f 240 244 213 208
f 245 246 215 214
f 242 212 215 246
f 243 242 246 245
f 247 248 218 217
f 244 247 217 213
f 248 249 221 218
f 249 250 223 221
f 245 214 223 250
f 251 225 226 252
f 251 253 227 225
f 252 226 229 254
f 254 229 230 255
f 255 230 231 256
f 256 231 233 257
f 258 259 227 253
f 258 260 261 259
f 257 233 262 263
f 263 262 264 265
f 266 267 268 269
f 266 270 235 267
f 267 235 237 268
f 266 269 271 270
f 269 268 272 273
f 273 272 238 274
f 268 237 238 272
f 269 273 274 271
f 275 234 235 270
f 275 276 236 234
f 275 270 277 276
f 270 271 278 277
f 274 238 239 279
f 271 274 279 278
f 276 280 240 236
f 276 277 281 280
f 277 278 282 281
f 279 239 243 283
f 278 279 283 282
f 280 284 244 240
f 280 281 285 284
f 281 282 286 285
f 283 243 245 287
f 282 283 287 286
f 288 289 248 247
f 284 288 247 244
f 284 285 289 288
f 289 290 249 248
f 290 291 250 249
f 287 245 250 291
f 292 293 290 289
f 294 285 286 295
f 294 292 289 285
f 294 295 293 292
f 293 296 291 290
f 295 286 287 297
f 297 287 291 296
f 295 297 296 293
f 298 299 300 301
f 298 302 303 299
f 299 303 304 300
f 301 300 305 306
f 300 304 307 305
f 306 305 308 309
f 309 308 310 311
f 305 307 310 308
f 302 312 313 303
f 303 313 314 304
f 304 314 315 307
f 311 310 316 317
f 307 315 316 310
f 318 319 320 321
f 312 318 321 313
f 313 321 320 314
f 319 322 323 320
f 314 320 323 315
f 322 324 325 323
f 317 316 325 324
f 315 323 325 316
f 326 327 312 302
f 328 329 330 317
f 331 332 330 329
f 311 317 330 332
f 333 334 319 318
f 327 333 318 312
f 334 335 322 319
f 335 336 324 322
f 328 317 324 336
f 337 338 326 339
f 340 341 331 342
f 338 343 327 326
f 342 331 329 344
f 345 346 334 333
f 343 345 333 327
f 347 348 349 336
f 344 329 349 348
f 328 336 349 329
f 350 344 348 347
f 351 352 353 354
f 346 351 354 334
f 334 354 353 335
f 346 355 352 351
f 352 356 357 353
f 347 336 357 356
f 335 353 357 336
f 355 347 356 352
f 358 359 346 345
f 360 358 345 343
f 360 361 359 358
f 359 362 355 346
f 361 363 362 359
f 362 364 347 355
f 365 350 347 364
f 363 365 364 362
f 366 367 368 369
f 370 371 372 373
f 373 372 368 367
f 370 366 369 371
f 371 369 368 372
f 370 373 367 366
f 374 375 376 377
f 374 378 379 375
f 375 379 380 376
f 377 376 381 382
f 382 381 383 384
f 376 380 383 381
f 385 386 387 388
f 378 385 388 379
f 379 388 387 380
f 386 389 390 387
f 384 383 390 389
f 380 387 390 383
f 391 392 393 394
f 391 395 374 392
f 392 374 377 393
f 391 394 396 395
f 394 393 397 398
f 398 397 382 399
f 393 377 382 397
f 394 398 399 396
f 400 401 374 395
f 400 402 403 401
f 401 403 378 374
f 400 395 404 402
f 399 382 384 405
f 406 407 385 408
f 402 406 408 403
f 403 408 385 378
f 402 404 407 406
f 404 409 410 407
f 405 384 389 411
f 409 405 411 410
f 412 413 414 415
f 407 412 415 385
f 385 415 414 386
f 413 416 417 414
f 411 389 417 416
f 386 414 417 389
f 418 419 409 404
f 420 395 396 421
f 420 418 404 395
f 420 421 419 418
f 419 422 405 409
f 421 396 399 423
f 423 399 405 422
f 421 423 422 419
f 424 407 410 425
f 424 426 412 407
f 424 425 427 426
f 425 410 411 428
f 428 411 416 429
f 425 428 429 427
f 430 431 432 433
f 426 430 433 412
f 412 433 432 413
f 431 434 435 432
f 429 416 435 434
f 413 432 435 416
f 436 437 426 438
f 436 439 440 437
f 437 440 430 426
f 438 426 427 441
f 441 427 429 442
f 442 429 434 443
f 444 436 438 445
f 444 446 439 436
f 444 445 447 446
f 445 438 441 448
f 445 448 449 447
f 448 441 442 450
f 450 442 443 451
f 448 450 451 449
f 446 452 453 439
f 451 443 454 455
f 455 454 456 457
f 443 458 456 454
f 459 460 461 462
f 463 464 465 466
f 463 459 462 464
f 464 462 461 465
f 460 467 468 461
f 466 465 469 470
f 470 469 468 467
f 465 461 468 469
f 471 446 447 472
f 471 473 452 446
f 472 447 449 474
f 474 449 451 475
f 475 451 455 476
f 476 455 457 477
f 478 479 480 481
f 478 482 463 479
f 479 463 466 480
f 478 481 483 482
f 481 480 484 485
f 485 484 470 486
f 480 466 470 484
f 481 485 486 483
f 482 487 459 463
f 482 483 488 487
f 486 470 467 489
f 483 486 489 488
f 490 491 492 493
f 487 490 493 459
f 459 493 492 460
f 487 488 491 490
f 491 494 495 492
f 489 467 495 494
f 460 492 495 467
f 488 489 494 491
f 496 497 498 499
f 496 500 471 497
f 497 471 472 498
f 499 498 501 502
f 498 472 474 501
f 502 501 503 504
f 501 474 475 503
f 504 503 505 506
f 506 505 476 507
f 503 475 476 505
g m_5d0000
usemtl m_5d0000
f 23 508 509 24
f 24 509 510 25
f 23 26 511 508
f 28 27 512 513
f 25 510 512 27
f 26 28 513 511
f 508 514 515 509
f 509 515 516 510
f 508 511 517 514
f 513 512 518 519
f 510 516 518 512
f 511 513 519 517
f 520 34 521 522
f 42 523 524 525
f 526 527 528 529
f 529 528 524 523
f 527 525 524 528
f 526 529 523 42
f 32 31 530 531
f 34 32 531 521
f 42 525 532 40
f 533 534 535 536
f 31 533 536 530
f 530 536 535 537
f 31 37 534 533
f 534 538 539 535
f 40 532 539 538
f 537 535 539 532
f 37 40 538 534
f 540 541 542 543
f 540 544 520 541
f 540 543 545 544
f 543 542 546 547
f 543 547 548 545
f 547 546 549 550
f 550 549 526 551
f 547 550 551 548
f 552 553 554 555
f 556 552 555 557
f 553 558 559 554
f 558 560 561 559
f 562 563 561 560
f 564 565 553 552
f 566 564 552 556
f 566 567 565 564
f 565 568 558 553
f 568 569 560 558
f 570 562 560 569
f 571 572 568 565
f 573 567 574 575
f 573 571 565 567
f 572 576 569 568
f 575 574 570 577
f 577 570 569 576
f 578 579 580 581
f 582 583 584 585
f 582 578 581 583
f 583 581 580 584
f 582 585 579 578
f 585 584 586 587
f 587 586 588 589
f 589 588 590 591
f 146 592 108 99
f 593 594 595 116
f 147 107 596 597
f 597 596 595 594
f 107 116 595 596
f 592 598 599 108
f 108 599 600 109
f 109 600 601 112
f 112 601 602 114
f 593 116 603 604
f 114 602 603 116
f 598 605 606 599
f 599 606 607 600
f 600 607 608 601
f 601 608 609 602
f 604 603 610 611
f 602 609 610 603
f 612 613 614 615
f 616 612 615 617
f 617 615 614 618
f 613 619 620 614
f 618 614 620 621
f 619 622 623 620
f 624 625 623 622
f 621 620 623 625
f 172 228 146 142
f 179 145 626 627
f 627 626 597 628
f 145 147 597 626
f 179 627 628 232
f 629 630 146 228
f 629 631 632 630
f 630 632 592 146
f 628 597 594 633
f 631 634 635 632
f 632 635 598 592
f 633 594 636 637
f 593 604 636 594
f 638 639 612 616
f 640 624 622 641
f 642 180 183 643
f 639 642 643 612
f 612 643 183 613
f 639 644 180 642
f 613 183 185 619
f 644 645 186 180
f 641 622 189 188
f 619 185 189 622
f 645 641 188 186
f 259 629 228 227
f 259 261 631 629
f 233 232 628 262
f 262 628 633 264
f 261 646 634 631
f 264 633 647 648
f 648 647 649 650
f 633 637 649 647
f 651 652 644 639
f 653 651 639 638
f 653 654 652 651
f 652 655 645 644
f 654 656 655 652
f 655 657 641 645
f 658 640 641 657
f 656 658 657 655
f 659 251 252 660
f 659 661 253 251
f 659 660 662 661
f 660 252 254 663
f 660 663 664 662
f 663 254 255 665
f 663 665 666 664
f 665 255 256 667
f 667 256 257 668
f 665 667 668 666
f 339 298 301 669
f 339 326 302 298
f 669 301 306 670
f 670 306 309 671
f 671 309 672 341
f 341 672 332 331
f 309 311 332 672
f 673 674 675 676
f 673 677 678 674
f 674 678 679 675
f 676 675 680 681
f 675 679 682 680
f 681 680 683 684
f 684 683 685 686
f 680 682 685 683
f 677 337 339 678
f 678 339 669 679
f 679 669 670 682
f 682 670 671 685
f 686 685 687 688
f 688 687 341 340
f 685 671 341 687
f 689 690 337 677
f 691 688 340 692
f 690 693 338 337
f 690 694 695 693
f 694 696 697 695
f 696 698 699 697
f 692 340 342 700
f 698 692 700 699
f 693 360 343 338
f 693 695 361 360
f 695 697 363 361
f 697 699 365 363
f 365 701 344 350
f 700 342 344 701
f 699 700 701 365
f 702 703 704 705
f 706 707 708 709
f 709 708 704 703
f 706 702 705 707
f 707 705 704 708
f 706 709 703 702
f 453 710 711 712
f 439 453 712 440
f 440 712 711 430
f 710 713 714 711
f 430 711 714 431
f 713 458 715 714
f 443 434 715 458
f 431 714 715 434
f 452 716 717 453
f 453 717 718 710
f 710 718 719 713
f 713 719 720 458
f 457 456 721 722
f 458 720 721 456
f 723 724 717 716
f 723 725 726 724
f 724 726 727 717
f 722 721 728 729
f 729 728 730 731
f 721 732 730 728
f 733 734 452 473
f 733 735 723 734
f 734 723 716 452
f 477 457 736 737
f 737 736 729 738
f 457 722 729 736
f 735 739 725 723
f 738 729 731 740
f 741 742 743 744
f 741 745 746 742
f 742 746 747 743
f 744 743 748 749
f 743 747 750 748
f 749 748 751 752
f 752 751 753 754
f 748 750 753 751
f 745 755 756 746
f 746 756 757 747
f 754 753 758 759
f 760 761 762 763
f 764 765 766 767
f 764 760 763 765
f 765 763 762 766
f 761 768 769 762
f 767 766 770 771
f 771 770 769 768
f 766 762 769 770
f 772 773 471 500
f 772 774 733 773
f 773 733 473 471
f 507 476 775 776
f 776 775 737 777
f 476 477 737 775
f 774 778 735 733
f 777 737 738 779
f 778 780 739 735
f 781 782 783 740
f 779 738 784 785
f 785 784 783 782
f 738 740 783 784
f 786 787 755 745
f 786 788 789 787
f 788 790 791 789
f 792 754 759 793
f 790 792 793 791
f 794 795 796 797
f 787 794 797 755
f 787 789 795 794
f 793 759 798 799
f 800 801 802 803
f 795 800 803 796
f 796 803 802 804
f 795 805 801 800
f 801 806 807 802
f 799 798 807 806
f 804 802 807 798
f 805 799 806 801
f 808 809 810 811
f 808 812 764 809
f 809 764 767 810
f 808 811 813 812
f 811 810 814 815
f 815 814 771 816
f 810 767 771 814
f 811 815 816 813
f 812 817 760 764
f 812 813 818 817
f 816 771 768 819
f 813 816 819 818
f 820 821 822 823
f 817 820 823 760
f 760 823 822 761
f 821 824 825 822
f 819 768 825 824
f 761 822 825 768
f 826 827 828 829
f 826 830 496 827
f 827 496 499 828
f 826 829 831 830
f 829 828 832 833
f 828 499 502 832
f 829 833 834 831
f 833 832 835 836
f 836 835 504 837
f 832 502 504 835
f 833 836 837 834
f 838 772 500 839
f 838 840 774 772
f 841 507 776 842
f 842 776 777 843
f 840 844 778 774
f 843 777 779 845
f 846 847 805 795
f 848 789 791 849
f 848 846 795 789
f 848 849 847 846
f 847 850 799 805
f 849 791 793 851
f 851 793 799 850
f 849 851 850 847
f 852 853 821 820
f 854 817 818 855
f 854 852 820 817
f 853 856 824 821
f 855 818 819 857
f 857 819 824 856
f 858 838 839 859
f 858 860 840 838
f 861 841 842 862
f 862 842 843 863
g m_440000
usemtl m_440000
f 864 865 515 514
f 864 866 867 865
f 865 867 868 515
f 515 868 869 516
f 519 518 870 871
f 516 869 870 518
f 866 872 873 867
f 867 873 874 868
f 868 874 875 869
f 871 870 876 877
f 869 875 876 870
f 878 879 880 881
f 872 878 881 873
f 873 881 880 874
f 879 882 883 880
f 874 880 883 875
f 882 884 885 883
f 877 876 885 884
f 875 883 885 876
f 886 887 888 889
f 890 891 892 893
f 893 892 888 887
f 890 886 889 891
f 891 889 888 892
f 890 893 887 886
f 894 864 514 895
f 894 896 866 864
f 894 895 897 896
f 895 514 517 898
f 895 898 899 897
f 898 517 519 900
f 900 519 871 901
f 898 900 901 899
f 896 902 872 866
f 896 897 903 902
f 897 899 904 903
f 901 871 877 905
f 899 901 905 904
f 906 907 898 895
f 908 909 910 911
f 911 910 898 907
f 908 906 895 909
f 909 895 898 910
f 908 911 907 906
f 522 521 912 913
f 913 912 914 915
f 915 914 916 917
f 527 918 919 525
f 917 916 919 918
f 544 33 34 520
f 544 545 35 33
f 545 548 38 35
f 551 526 42 41
f 548 551 41 38
f 920 921 922 923
f 924 925 926 927
f 927 926 922 921
f 924 920 923 925
f 925 923 922 926
f 924 927 921 920
f 928 929 930 931
f 932 933 934 935
f 936 937 938 939
f 929 936 939 930
f 929 940 937 936
f 937 941 942 938
f 940 943 941 937
f 941 944 945 942
f 935 934 945 944
f 943 935 944 941
f 555 554 940 929
f 557 555 929 928
f 554 559 943 940
f 559 561 935 943
f 563 932 935 561
f 946 947 948 949
f 946 556 557 947
f 949 948 950 951
f 951 950 952 953
f 953 952 563 562
f 954 946 949 955
f 954 566 556 946
f 954 955 567 566
f 955 949 951 956
f 955 956 574 567
f 956 951 953 957
f 957 953 562 570
f 956 957 570 574
f 958 959 960 961
f 958 962 963 959
f 959 963 964 960
f 961 960 965 966
f 960 964 967 965
f 966 965 968 969
f 969 968 970 971
f 965 967 970 968
f 972 973 974 975
f 972 976 958 973
f 973 958 961 974
f 975 974 977 978
f 974 961 966 977
f 978 977 979 980
f 977 966 969 979
f 980 979 981 982
f 982 981 983 984
f 979 969 983 981
f 605 985 972 606
f 606 972 975 607
f 607 975 978 608
f 608 978 980 609
f 609 980 982 610
f 611 610 986 987
f 987 986 988 989
f 610 982 988 986
f 990 991 992 993
f 990 616 617 991
f 991 617 618 992
f 993 992 994 995
f 992 618 621 994
f 995 994 996 997
f 997 996 625 624
f 994 621 625 996
f 998 999 1000 1001
f 1002 1003 1004 1005
f 1005 1004 1000 999
f 1002 998 1001 1003
f 1003 1001 1000 1004
f 1002 1005 999 998
f 634 1006 1007 635
f 635 1007 605 598
f 637 636 987 1008
f 604 611 987 636
f 1006 1009 1010 1007
f 1007 1010 985 605
f 1008 987 989 1011
f 1012 638 616 990
f 1013 997 624 640
f 1014 1015 1016 1017
f 1014 1018 1019 1015
f 1015 1019 1020 1016
f 1017 1016 1021 1022
f 1022 1021 1023 1024
f 1016 1020 1023 1021
f 1025 1026 1027 1028
f 1018 1025 1028 1019
f 1019 1028 1027 1020
f 1026 1029 1030 1027
f 1024 1023 1030 1029
f 1020 1027 1030 1023
f 646 1031 1006 634
f 650 649 1032 1033
f 637 1008 1032 649
f 1031 1034 1009 1006
f 1035 1036 1037 1011
f 1033 1032 1037 1036
f 1008 1011 1037 1032
f 1038 1039 1012 1040
f 1038 1041 1042 1039
f 1041 1043 1044 1042
f 1045 1046 1013 1047
f 1043 1045 1047 1044
f 1039 653 638 1012
f 1039 1042 654 653
f 1042 1044 656 654
f 1047 1013 640 658
f 1044 1047 658 656
f 1048 1014 1017 1049
f 1048 1050 1018 1014
f 1048 1049 1051 1050
f 1049 1017 1022 1052
f 1052 1022 1024 1053
f 1049 1052 1053 1051
f 1050 1054 1025 1018
f 1050 1051 1055 1054
f 1053 1024 1029 1056
f 1051 1053 1056 1055
f 1057 1058 1059 1060
f 1054 1057 1060 1025
f 1025 1060 1059 1026
f 1054 1055 1058 1057
f 1058 1061 1062 1059
f 1056 1029 1062 1061
f 1026 1059 1062 1029
f 1055 1056 1061 1058
f 260 1063 646 261
f 265 264 648 1064
f 1064 648 650 1065
f 265 1064 1065 1066
f 1063 1067 1031 646
f 1065 650 1033 1068
f 1069 1070 1071 1072
f 1073 1074 1075 1076
f 1076 1075 1071 1070
f 1073 1069 1072 1074
f 1074 1072 1071 1075
f 1073 1076 1070 1069
f 1077 1078 1079 1080
f 1080 1079 1081 1082
f 1077 1083 1084 1078
f 1078 1084 1081 1079
f 1077 1080 1082 1083
f 1085 1086 1087 1088
f 1082 1081 1087 1086
f 1083 1085 1088 1084
f 1084 1088 1087 1081
f 1083 1082 1086 1085
f 1089 1090 1091 1092
f 1089 1093 1094 1090
f 1090 1094 1095 1091
f 1092 1091 1096 1097
f 1091 1095 1098 1096
f 1097 1096 1099 1100
f 1100 1099 1101 1102
f 1096 1098 1101 1099
f 1093 1103 1104 1094
f 1094 1104 1105 1095
f 1095 1105 1106 1098
f 1102 1101 1107 1108
f 1098 1106 1107 1101
f 1109 1110 1111 1112
f 1103 1109 1112 1104
f 1104 1112 1111 1105
f 1110 1113 1114 1111
f 1105 1111 1114 1106
f 1113 1115 1116 1114
f 1108 1107 1116 1115
f 1106 1114 1116 1107
f 1117 1118 1119 1120
f 1117 1121 1089 1118
f 1118 1089 1092 1119
f 1120 1119 1122 1123
f 1119 1092 1097 1122
f 1123 1122 1124 1125
f 1125 1124 1100 1126
f 1122 1097 1100 1124
f 1121 1127 1093 1089
f 1126 1100 1128 1129
f 1129 1128 1130 1131
f 1100 1102 1130 1128
f 1127 1132 1103 1093
f 1131 1130 1133 1134
f 1102 1108 1133 1130
f 1132 1135 1109 1103
f 1136 1137 1138 1115
f 1134 1133 1138 1137
f 1108 1115 1138 1133
f 1139 1134 1137 1136
f 1140 1141 1142 1143
f 1135 1140 1143 1109
f 1109 1143 1142 1110
f 1141 1144 1145 1142
f 1110 1142 1145 1113
f 1144 1146 1147 1145
f 1136 1115 1147 1146
f 1113 1145 1147 1115
f 1148 1149 1150 1151
f 1152 1153 1154 1155
f 1155 1154 1150 1149
f 1152 1148 1151 1153
f 1153 1151 1150 1154
f 1152 1155 1149 1148
f 1156 1157 1158 1159
f 1156 1160 1120 1157
f 1157 1120 1123 1158
f 1156 1159 1161 1160
f 1159 1158 1162 1163
f 1163 1162 1125 1164
f 1158 1123 1125 1162
f 1159 1163 1164 1161
f 1165 1117 1120 1160
f 1165 1166 1121 1117
f 1164 1125 1126 1167
f 1166 1168 1127 1121
f 1167 1126 1129 1169
f 1169 1129 1131 1170
f 1167 1169 1170 1171
f 1168 1172 1132 1127
f 1168 1173 1174 1172
f 1173 1175 1176 1174
f 1175 1171 1177 1176
f 1177 1178 1134 1139
f 1170 1131 1134 1178
f 1171 1170 1178 1177
f 1172 1179 1135 1132
f 1172 1174 1180 1179
f 1174 1176 1181 1180
f 1177 1139 1136 1182
f 1176 1177 1182 1181
f 1183 1184 1141 1140
f 1179 1183 1140 1135
f 1179 1180 1184 1183
f 1184 1185 1144 1141
f 1180 1181 1185 1184
f 1185 1186 1146 1144
f 1182 1136 1146 1186
f 1181 1182 1186 1185
f 1187 1165 1160 1188
f 1187 1189 1166 1165
f 1187 1188 1190 1189
f 1188 1160 1161 1191
f 1191 1161 1164 1192
f 1192 1164 1167 1193
f 1194 1195 1173 1168
f 1189 1194 1168 1166
f 1189 1190 1195 1194
f 1195 1196 1175 1173
f 1190 1197 1196 1195
f 1196 1198 1171 1175
f 1193 1167 1171 1198
f 1197 1193 1198 1196
f 1199 1200 1197 1190
f 1201 1188 1191 1202
f 1201 1199 1190 1188
f 1200 1203 1193 1197
f 1202 1191 1192 1204
f 1204 1192 1193 1203
f 1205 1206 1207 1208
f 1209 1210 1211 1212
f 1209 1205 1208 1210
f 1210 1208 1207 1211
f 1206 1213 1214 1207
f 1212 1211 1215 1216
f 1216 1215 1214 1213
f 1211 1207 1214 1215
f 1217 1201 1202 1218
f 1217 1219 1199 1201
f 1217 1218 1220 1219
f 1218 1202 1204 1221
f 1221 1204 1203 1222
f 1218 1221 1222 1220
f 1223 1224 1225 1226
f 1219 1223 1226 1199
f 1199 1226 1225 1200
f 1219 1220 1224 1223
f 1224 1227 1228 1225
f 1222 1203 1228 1227
f 1200 1225 1228 1203
f 1220 1222 1227 1224
f 1229 1230 673 1231
f 1231 673 676 1205
f 1205 676 681 1206
f 1232 1213 684 1233
f 1206 681 684 1213
f 1230 689 677 673
f 1233 684 1234 1235
f 1235 1234 688 691
f 684 686 688 1234
f 1236 1237 689 1230
f 1238 1235 691 1239
f 1240 1238 1239 1241
f 1242 1243 694 690
f 1237 1242 690 689
f 1243 1244 696 694
f 1244 1245 698 696
f 1245 1246 692 698
f 1239 691 692 1246
f 1241 1239 1246 1245
f 1247 1248 1243 1242
f 1249 1247 1242 1237
f 1249 1250 1248 1247
f 1251 1241 1245 1252
f 1253 1254 1255 1256
f 1248 1253 1256 1243
f 1243 1256 1255 1244
f 1248 1257 1254 1253
f 1254 1258 1259 1255
f 1252 1245 1259 1258
f 1244 1255 1259 1245
f 1257 1252 1258 1254
f 1260 1261 1262 1263
f 1264 1265 1266 1267
f 1267 1266 1262 1261
f 1264 1260 1263 1265
f 1265 1263 1262 1266
f 1264 1267 1261 1260
f 1268 1269 702 1270
f 1268 1271 1272 1269
f 1269 1272 1273 702
f 1270 702 703 1274
f 702 1273 1275 703
f 1274 703 1276 1277
f 703 1275 1278 1276
f 1277 1276 1279 1280
f 1280 1279 1281 1282
f 1276 1278 1281 1279
f 1271 1283 1284 1272
f 1272 1284 1285 1273
f 1273 1285 1286 1275
f 1275 1286 1287 1278
f 1282 1281 1288 1289
f 1278 1287 1288 1281
f 1283 1290 1291 1284
f 1284 1291 1292 1285
f 1285 1292 1293 1286
f 1286 1293 1294 1287
f 1289 1288 1295 1296
f 1287 1294 1295 1288
f 717 1268 1270 718
f 717 727 1271 1268
f 718 1270 1274 719
f 719 1274 1277 720
f 720 1277 1280 721
f 721 1280 1282 732
f 726 1297 1271 727
f 726 1298 1299 1297
f 1297 1299 1283 1271
f 732 1282 1300 730
f 730 1300 1301 1302
f 1282 1289 1301 1300
f 1298 1303 1304 1299
f 1299 1304 1290 1283
f 1302 1301 1305 1306
f 1289 1296 1305 1301
f 725 1307 1298 726
f 731 730 1302 1308
f 1307 1309 1303 1298
f 1308 1302 1306 1310
f 757 1311 1312 1313
f 747 1314 1315 750
f 747 757 1313 1314
f 1314 1313 1312 1315
f 1311 758 1316 1312
f 750 1315 1317 753
f 753 1317 1316 758
f 1315 1312 1316 1317
f 739 1318 1307 725
f 740 731 1308 1319
f 1320 1321 1322 1309
f 1318 1320 1309 1307
f 1323 1324 1310 1325
f 1319 1308 1310 1324
f 797 796 1326 1327
f 755 797 1327 756
f 756 1327 1326 757
f 796 804 1328 1326
f 757 1326 1328 1311
f 804 798 1329 1328
f 759 758 1329 798
f 1311 1328 1329 758
f 780 1330 1318 739
f 781 740 1319 1331
f 1332 1333 1321 1320
f 1330 1332 1320 1318
f 1333 1334 1335 1321
f 1334 1336 1337 1335
f 1336 1338 1339 1337
f 1338 1340 1323 1339
f 1340 1341 1324 1323
f 1331 1319 1324 1341
f 1342 1343 1344 1345
f 1342 1346 744 1343
f 1343 744 749 1344
f 1342 1345 1347 1346
f 1345 1344 1348 1349
f 1349 1348 752 1350
f 1344 749 752 1348
f 1345 1349 1350 1347
f 1351 741 744 1346
f 1351 786 745 741
f 1350 752 754 792
f 830 839 500 496
f 837 504 506 1352
f 1352 506 507 841
f 844 1353 780 778
f 1354 1355 782 781
f 845 779 785 1356
f 1356 785 782 1355
f 845 1356 1355 1354
f 1353 1357 1330 780
f 1354 781 1331 1358
f 1359 1360 1333 1332
f 1357 1359 1332 1330
f 1361 1362 1341 1340
f 1358 1331 1341 1362
f 1363 1364 788 786
f 1365 1351 1346 1366
f 1365 1363 786 1351
f 1364 1367 790 788
f 1366 1346 1347 1368
f 1367 1369 792 790
f 1368 1347 1350 1370
f 1370 1350 792 1369
f 1371 830 831 1372
f 1371 859 839 830
f 1372 831 834 1373
f 1373 834 837 1374
f 1374 837 1352 1375
f 1375 1352 841 861
f 860 1376 844 840
f 863 843 845 1377
f 1376 1378 1353 844
f 1377 845 1354 1379
f 1380 1381 1382 1383
f 1380 1384 1365 1381
f 1381 1365 1366 1382
f 1380 1383 1385 1384
f 1383 1382 1386 1387
f 1382 1366 1368 1386
f 1387 1386 1388 1389
f 1389 1388 1370 1390
f 1386 1368 1370 1388
f 1384 1391 1363 1365
f 1390 1370 1369 1392
f 1393 1394 848 1395
f 1391 1393 1395 1363
f 1363 1395 848 1364
f 1391 1396 1394 1393
f 1394 1397 849 848
f 1364 848 849 1367
f 1397 1398 851 849
f 1392 1369 851 1398
f 1367 849 851 1369
f 1399 854 855 1400
f 1399 1401 852 854
f 1399 1400 1402 1401
f 1400 855 857 1403
f 1403 857 856 1404
f 1400 1403 1404 1402
f 1405 858 859 1406
f 1405 1407 860 858
f 1405 1406 1408 1407
f 1409 861 862 1410
f 1410 862 863 1411
f 1409 1410 1411 1412
f 1407 1413 1376 860
f 1407 1408 1414 1413
f 1411 863 1377 1415
f 1412 1411 1415 1416
f 1413 1417 1378 1376
f 1413 1414 1418 1417
f 1415 1377 1379 1419
f 1416 1415 1419 1420
g m_300000
usemtl m_300000
f 1421 1422 1423 1424
f 1424 1423 1425 1426
f 1421 1427 1428 1422
f 1422 1428 1425 1423
f 1421 1424 1426 1427
f 1427 1429 1430 1428
f 1428 1430 1431 1425
f 1427 1426 1432 1429
f 1426 1425 1433 1434
f 1434 1433 1435 1436
f 1425 1431 1435 1433
f 1426 1434 1436 1432
f 1429 1437 1438 1430
f 1430 1438 1439 1431
f 1429 1432 1440 1437
f 1440 1441 1442 1439
f 1436 1435 1442 1441
f 1431 1439 1442 1435
f 1432 1436 1441 1440
f 1443 1444 1445 1446
f 1440 1439 1445 1444
f 1437 1443 1446 1438
f 1438 1446 1445 1439
f 1437 1440 1444 1443
f 1447 1448 1449 1450
f 1451 1452 1453 1454
f 1454 1453 1449 1448
f 1451 1447 1450 1452
f 1452 1450 1449 1453
f 1451 1454 1448 1447
f 1455 1456 1457 1458
f 1459 1443 1444 1460
f 1460 1444 1457 1456
f 1459 1455 1458 1443
f 1443 1458 1457 1444
f 1459 1460 1456 1455
f 902 1461 878 872
f 902 903 1462 1461
f 903 904 1463 1462
f 905 877 884 1464
f 904 905 1464 1463
f 1461 1465 1466 878
f 878 1466 1467 879
f 879 1467 1468 882
f 1464 884 1469 1470
f 882 1468 1469 884
f 913 915 1471 1472
f 1465 913 1472 1466
f 1466 1472 1471 1467
f 915 917 1473 1471
f 1467 1471 1473 1468
f 917 918 1474 1473
f 1470 1469 1474 918
f 1468 1473 1474 1469
f 1475 1476 1454 1451
f 1477 1478 1479 1480
f 1480 1479 1454 1476
f 1477 1475 1451 1478
f 1478 1451 1454 1479
f 1477 1480 1476 1475
f 1481 1482 1483 1484
f 1485 1486 1487 1488
f 1488 1487 1483 1482
f 1485 1481 1484 1486
f 1486 1484 1483 1487
f 1485 1488 1482 1481
f 1489 1461 1462 1490
f 1489 1491 1465 1461
f 1489 1490 1492 1491
f 1490 1462 1463 1493
f 1490 1493 1494 1492
f 1493 1463 1464 1495
f 1495 1464 1470 1496
f 1493 1495 1496 1494
f 1491 522 913 1465
f 1496 1470 918 527
f 531 530 1497 1498
f 521 531 1498 912
f 912 1498 1497 914
f 530 537 1499 1497
f 914 1497 1499 916
f 537 532 1500 1499
f 525 919 1500 532
f 916 1499 1500 919
f 541 1491 1492 542
f 541 520 522 1491
f 542 1492 1494 546
f 546 1494 1496 549
f 549 1496 527 526
f 1501 1502 1503 1504
f 1505 1506 1507 1508
f 1505 1501 1504 1506
f 1506 1504 1503 1507
f 1502 1509 1510 1503
f 1508 1507 1511 1512
f 1512 1511 1510 1509
f 1507 1503 1510 1511
f 1513 1514 1515 1516
f 1513 1517 1505 1514
f 1514 1505 1508 1515
f 1513 1516 1518 1517
f 1516 1515 1519 1520
f 1520 1519 1512 1521
f 1515 1508 1512 1519
f 1516 1520 1521 1518
f 1522 1523 1502 1501
f 1517 1522 1501 1505
f 1523 1524 1509 1502
f 1521 1512 1509 1524
f 1525 1526 1523 1522
f 1527 1517 1518 1528
f 1527 1525 1522 1517
f 1527 1528 1526 1525
f 1526 1529 1524 1523
f 1528 1518 1521 1530
f 1530 1521 1524 1529
f 1528 1530 1529 1526
f 1531 1532 1533 1534
f 1535 1536 1537 1538
f 1535 1531 1534 1536
f 1536 1534 1533 1537
f 1532 1539 1540 1533
f 1538 1537 1541 1542
f 1542 1541 1540 1539
f 1537 1533 1540 1541
f 931 1543 1544 1545
f 931 930 1546 1543
f 1543 1546 1535 1544
f 1545 1544 1547 1548
f 1544 1535 1538 1547
f 1548 1547 1549 933
f 933 1549 1542 934
f 1547 1538 1542 1549
f 939 938 1531 1550
f 930 939 1550 1546
f 1546 1550 1531 1535
f 938 942 1532 1531
f 942 945 1539 1532
f 934 1542 1539 945
f 1551 1552 1553 1554
f 1551 928 931 1552
f 1552 931 1545 1553
f 1554 1553 1555 1556
f 1553 1545 1548 1555
f 1556 1555 1557 1558
f 1558 1557 933 932
f 1555 1548 933 1557
f 947 1551 1554 948
f 947 557 928 1551
f 948 1554 1556 950
f 950 1556 1558 952
f 952 1558 932 563
f 1559 1560 1561 1562
f 1559 1563 1564 1560
f 1560 1564 1565 1561
f 1562 1561 1566 1567
f 1567 1566 1568 1569
f 1561 1565 1568 1566
f 1570 1571 1572 1573
f 1563 1570 1573 1564
f 1564 1573 1572 1565
f 1571 1574 1575 1572
f 1569 1568 1575 1574
f 1565 1572 1575 1568
f 1576 1577 1559 1578
f 1576 1579 1580 1577
f 1577 1580 1563 1559
f 1576 1578 1581 1579
f 1578 1559 1562 1582
f 1582 1562 1567 1583
f 1583 1567 1569 1584
f 1585 1586 1570 1587
f 1579 1585 1587 1580
f 1580 1587 1570 1563
f 1579 1581 1586 1585
f 1586 1588 1571 1570
f 1588 1589 1574 1571
f 1584 1569 1574 1589
f 1590 1591 1592 1593
f 1590 1594 1595 1591
f 1591 1595 1596 1592
f 1593 1592 1597 1598
f 1598 1597 1599 1600
f 1592 1596 1599 1597
f 1594 1601 1602 1595
f 1595 1602 1603 1596
f 1594 1604 1605 1601
f 1605 1606 1607 1603
f 1600 1599 1607 1606
f 1596 1603 1607 1599
f 1604 1600 1606 1605
f 1608 1609 1610 1611
f 1605 1603 1610 1609
f 1601 1608 1611 1602
f 1602 1611 1610 1603
f 1601 1605 1609 1608
f 1612 1578 1582 1613
f 1612 1614 1581 1578
f 1612 1613 1615 1614
f 1613 1582 1583 1616
f 1616 1583 1584 1617
f 1613 1616 1617 1615
f 1618 1619 1588 1586
f 1614 1618 1586 1581
f 1614 1615 1619 1618
f 1619 1620 1589 1588
f 1617 1584 1589 1620
f 1615 1617 1620 1619
f 1621 1622 1623 1624
f 1624 1623 1625 1626
f 1621 1627 1628 1622
f 1622 1628 1625 1623
f 1621 1624 1626 1627
f 1627 1629 1590 1628
f 1628 1590 1593 1625
f 1627 1626 1630 1629
f 1626 1625 1631 1632
f 1632 1631 1598 1633
f 1625 1593 1598 1631
f 1626 1632 1633 1630
f 1634 1635 1604 1594
f 1629 1634 1594 1590
f 1629 1630 1635 1634
f 1635 1636 1600 1604
f 1633 1598 1600 1636
f 1630 1633 1636 1635
f 1637 573 575 1638
f 1637 1639 571 573
f 1637 1638 1640 1639
f 1638 575 577 1641
f 1641 577 576 1642
f 1638 1641 1642 1640
f 1643 1644 1645 1646
f 1639 1643 1646 571
f 571 1646 1645 572
f 1644 1647 1648 1645
f 1642 576 1648 1647
f 572 1645 1648 576
f 1649 1650 1651 1652
f 1649 1653 1654 1650
f 1650 1654 1655 1651
f 1656 1657 1658 1655
f 1652 1651 1659 1660
f 1660 1659 1658 1657
f 1651 1655 1658 1659
f 1652 1660 1657 1656
f 1661 1662 1663 1664
f 1656 1655 1663 1662
f 1653 1661 1664 1654
f 1654 1664 1663 1655
f 1653 1656 1662 1661
f 1665 1666 1644 1643
f 1667 1639 1640 1668
f 1667 1665 1643 1639
f 1667 1668 1666 1665
f 1666 1669 1647 1644
f 1668 1640 1642 1670
f 1670 1642 1647 1669
f 1668 1670 1669 1666
f 1671 1672 1656 1653
f 1673 1649 1652 1674
f 1674 1652 1656 1672
f 1673 1671 1653 1649
f 1673 1674 1672 1671
f 1675 1676 1677 1678
f 1679 1680 1681 1682
f 1679 1675 1678 1680
f 1680 1678 1677 1681
f 1676 1683 1684 1677
f 1682 1681 1685 1686
f 1686 1685 1684 1683
f 1681 1677 1684 1685
f 580 1687 1676 1675
f 584 1679 1682 586
f 584 580 1675 1679
f 1687 590 1683 1676
f 586 1682 1686 588
f 588 1686 1683 590
f 1688 1689 1690 1691
f 579 1688 1691 580
f 580 1691 1690 1687
f 1689 1692 1693 1690
f 591 590 1693 1692
f 1687 1690 1693 590
f 1694 585 587 1695
f 1694 1696 579 585
f 1694 1695 1697 1696
f 1695 587 589 1698
f 1698 589 591 1699
f 1695 1698 1699 1697
f 1700 1701 1688 1702
f 1703 578 579 1696
f 1703 1700 1702 578
f 578 1702 1688 579
f 1701 1704 1689 1688
f 1704 1705 1692 1689
f 1699 591 1692 1705
f 1706 1703 1696 1707
f 1706 1708 1700 1703
f 1707 1696 1697 1709
f 1709 1697 1699 1710
f 1710 1699 1705 1711
f 1712 1713 1714 1715
f 1708 1712 1715 1700
f 1700 1715 1714 1701
f 1713 1716 1717 1714
f 1701 1714 1717 1704
f 1716 1718 1719 1717
f 1711 1705 1719 1718
f 1704 1717 1719 1705
f 1720 1706 1707 1721
f 1720 1722 1708 1706
f 1721 1707 1709 1723
f 1723 1709 1710 1724
f 1724 1710 1711 1725
f 1726 1727 1713 1712
f 1722 1726 1712 1708
f 1727 1728 1716 1713
f 1728 1729 1718 1716
f 1725 1711 1718 1729
f 963 1730 1731 964
f 963 1732 1720 1730
f 1730 1720 1721 1731
f 964 1731 1733 967
f 1731 1721 1723 1733
f 967 1733 1734 970
f 970 1734 1724 1735
f 1733 1723 1724 1734
f 1732 1736 1722 1720
f 1735 1724 1725 1737
f 1738 1739 1727 1726
f 1736 1738 1726 1722
f 1736 1740 1739 1738
f 1739 1741 1728 1727
f 1740 1742 1741 1739
f 1741 1743 1729 1728
f 1737 1725 1729 1743
f 1742 1737 1743 1741
f 962 1744 1732 963
f 1745 1746 1747 1735
f 971 970 1748 1749
f 1749 1748 1747 1746
f 970 1735 1747 1748
f 1750 1751 1740 1736
f 1744 1750 1736 1732
f 1744 1752 1751 1750
f 1751 1753 1742 1740
f 1752 1754 1753 1751
f 1753 1755 1737 1742
f 1745 1735 1737 1755
f 1754 1745 1755 1753
f 976 1756 962 958
f 984 983 1749 1757
f 969 971 1749 983
f 1758 1759 1752 1744
f 1756 1758 1744 962
f 1759 1760 1754 1752
f 1760 1761 1745 1754
f 1761 1762 1746 1745
f 1757 1749 1746 1762
f 1763 1764 976 1765
f 1010 1766 972 985
f 1010 1763 1765 1766
f 1766 1765 976 972
f 989 988 1767 1768
f 982 984 1767 988
f 1764 1769 1756 976
f 1770 1771 1772 1757
f 1768 1767 1772 1771
f 984 1757 1772 1767
f 1773 1774 1759 1758
f 1769 1773 1758 1756
f 1774 1775 1760 1759
f 1775 1776 1761 1760
f 1776 1777 1762 1761
f 1770 1757 1762 1777
f 1009 1778 1763 1010
f 1011 989 1768 1779
f 1780 1781 1769 1782
f 1778 1780 1782 1763
f 1763 1782 1769 1764
f 1783 1784 1771 1770
f 1779 1768 1771 1784
f 1785 1786 1774 1773
f 1781 1785 1773 1769
f 1786 1787 1775 1774
f 1787 1788 1776 1775
f 1788 1789 1777 1776
f 1783 1770 1777 1789
f 1790 1791 1792 1793
f 1790 1040 1794 1791
f 1791 1794 1795 1792
f 1793 1792 1796 1797
f 1792 1795 1798 1796
f 1797 1796 1799 1800
f 1800 1799 1801 1046
f 1796 1798 1801 1799
f 1040 1012 990 1794
f 1794 990 993 1795
f 1795 993 995 1798
f 1046 1801 997 1013
f 1798 995 997 1801
f 1034 1802 1778 1009
f 1035 1011 1779 1803
f 1804 1805 1781 1780
f 1802 1804 1780 1778
f 1802 1806 1805 1804
f 1807 1808 1784 1783
f 1803 1779 1784 1808
f 1809 1810 1786 1785
f 1805 1809 1785 1781
f 1805 1811 1810 1809
f 1810 1812 1787 1786
f 1811 1813 1812 1810
f 1812 1814 1788 1787
f 1813 1815 1814 1812
f 1814 1816 1789 1788
f 1807 1783 1789 1816
f 1815 1807 1816 1814
f 1817 1818 1819 1820
f 1817 1821 1793 1818
f 1818 1793 1797 1819
f 1817 1820 1822 1821
f 1820 1819 1823 1824
f 1824 1823 1800 1825
f 1819 1797 1800 1823
f 1820 1824 1825 1822
f 1826 1790 1793 1821
f 1826 1038 1040 1790
f 1826 1821 1041 1038
f 1821 1822 1043 1041
f 1825 1800 1046 1045
f 1822 1825 1045 1043
f 1067 1827 1034 1031
f 1828 1829 1036 1035
f 1068 1033 1036 1829
f 1830 1831 1806 1802
f 1827 1830 1802 1034
f 1828 1035 1803 1832
f 1833 1834 1811 1805
f 1831 1833 1805 1806
f 1834 1835 1813 1811
f 1835 1836 1815 1813
f 1836 1837 1807 1815
f 1837 1838 1808 1807
f 1832 1803 1808 1838
f 1839 1832 1838 1837
f 1840 258 253 661
f 1840 1841 260 258
f 1840 661 1842 1841
f 668 257 263 1843
f 1843 263 265 1844
f 668 1843 1844 1845
f 1841 1846 1063 260
f 1844 265 1066 1847
f 1846 1848 1067 1063
f 1847 1066 1065 1849
f 1849 1065 1068 1850
f 1847 1849 1850 1851
f 1848 1852 1827 1067
f 1853 1854 1829 1828
f 1850 1068 1829 1854
f 1851 1850 1854 1853
f 1855 1856 1831 1830
f 1852 1855 1830 1827
f 1857 1858 1832 1839
f 1853 1828 1832 1858
f 1859 1860 1834 1833
f 1856 1859 1833 1831
f 1860 1861 1835 1834
f 1861 1862 1836 1835
f 1862 1863 1837 1836
f 1857 1839 1837 1863
f 1864 661 662 1865
f 1864 1866 1842 661
f 1865 662 664 1867
f 1867 664 666 1868
f 1868 666 668 1869
f 1869 668 1845 1870
f 1871 1841 1842 1866
f 1871 1872 1846 1841
f 1871 1866 1873 1872
f 1870 1845 1844 1874
f 1874 1844 1847 1875
f 1870 1874 1875 1876
f 1872 1877 1848 1846
f 1875 1847 1851 1878
f 1877 1879 1852 1848
f 1878 1851 1853 1880
f 1881 1882 1856 1855
f 1879 1881 1855 1852
f 1879 1883 1882 1881
f 1884 1885 1858 1857
f 1880 1853 1858 1885
f 1886 1880 1885 1884
f 1887 1888 1860 1859
f 1882 1887 1859 1856
f 1888 1889 1861 1860
f 1889 1890 1862 1861
f 1890 1891 1863 1862
f 1884 1857 1863 1891
f 1892 1864 1865 1893
f 1892 1894 1866 1864
f 1892 1893 1895 1894
f 1893 1865 1867 1896
f 1893 1896 1897 1895
f 1896 1867 1868 1898
f 1896 1898 1899 1897
f 1898 1868 1869 1900
f 1900 1869 1870 1901
f 1898 1900 1901 1899
f 1894 1902 1873 1866
f 1894 1895 1903 1902
f 1895 1897 1904 1903
f 1897 1899 1905 1904
f 1901 1870 1876 1906
f 1899 1901 1906 1905
f 1907 1872 1873 1902
f 1907 1908 1877 1872
f 1907 1902 1909 1908
f 1906 1876 1875 1910
f 1910 1875 1878 1911
f 1906 1910 1911 1912
f 1913 1914 1883 1879
f 1908 1913 1879 1877
f 1908 1909 1914 1913
f 1915 1916 1880 1886
f 1911 1878 1880 1916
f 1912 1911 1916 1915
f 1914 1917 1882 1883
f 1914 1918 1919 1917
f 1918 1920 1921 1919
f 1920 1922 1923 1921
f 1915 1886 1884 1924
f 1922 1915 1924 1923
f 1925 1926 1888 1887
f 1917 1925 1887 1882
f 1917 1919 1926 1925
f 1926 1927 1889 1888
f 1927 1928 1890 1889
f 1928 1929 1891 1890
f 1924 1884 1891 1929
f 1923 1924 1929 1928
f 1930 1902 1903 1931
f 1930 1932 1909 1902
f 1931 1903 1904 1933
f 1933 1904 1905 1934
f 1934 1905 1906 1935
f 1935 1906 1912 1936
f 1934 1935 1936 1937
f 1938 1939 1918 1914
f 1932 1938 1914 1909
f 1939 1940 1920 1918
f 1940 1941 1922 1920
f 1941 1942 1915 1922
f 1936 1912 1915 1942
f 1937 1936 1942 1941
f 1943 1944 1927 1926
f 1945 1919 1921 1946
f 1945 1943 1926 1919
f 1945 1946 1944 1943
f 1944 1947 1928 1927
f 1946 1921 1923 1948
f 1948 1923 1928 1947
f 1946 1948 1947 1944
f 1949 1930 1931 1950
f 1949 1951 1932 1930
f 1949 1950 1952 1951
f 1950 1931 1933 1953
f 1950 1953 1954 1952
f 1953 1933 1934 1955
f 1955 1934 1937 1956
f 1953 1955 1956 1954
f 1957 1958 1939 1938
f 1951 1957 1938 1932
f 1958 1959 1940 1939
f 1959 1960 1941 1940
f 1956 1937 1941 1960
f 1961 1962 1958 1957
f 1963 1951 1952 1964
f 1963 1961 1957 1951
f 1963 1964 1962 1961
f 1962 1965 1959 1958
f 1964 1952 1954 1966
f 1965 1967 1960 1959
f 1966 1954 1956 1968
f 1968 1956 1960 1967
f 1969 1970 1965 1962
f 1971 1964 1966 1972
f 1971 1969 1962 1964
f 1970 1973 1967 1965
f 1972 1966 1968 1974
f 1974 1968 1967 1973
f 1975 1976 1970 1969
f 1977 1971 1972 1978
f 1977 1975 1969 1971
f 1977 1978 1976 1975
f 1976 1979 1973 1970
f 1978 1972 1974 1980
f 1980 1974 1973 1979
f 1978 1980 1979 1976
f 1981 1982 1983 1984
f 1985 1986 1987 1988
f 1988 1987 1983 1982
f 1985 1981 1984 1986
f 1986 1984 1983 1987
f 1985 1988 1982 1981
f 1989 1990 1209 1991
f 1989 1229 1231 1990
f 1990 1231 1205 1209
f 1991 1209 1212 1992
f 1992 1212 1216 1993
f 1993 1216 1213 1232
f 1994 1995 1996 1997
f 1998 1999 2000 2001
f 2001 2000 1996 1995
f 1998 1994 1997 1999
f 1999 1997 1996 2000
f 2002 2003 2004 2005
f 2006 2007 2008 2009
f 2009 2008 2004 2003
f 2006 2002 2005 2007
f 2007 2005 2004 2008
f 2006 2009 2003 2002
f 2010 1989 1991 2011
f 2010 2012 1229 1989
f 2010 2011 2013 2012
f 2011 1991 1992 2014
f 2011 2014 2015 2013
f 2014 1992 1993 2016
f 2016 1993 1232 2017
f 2014 2016 2017 2015
f 2012 1236 1230 1229
f 2017 1232 2018 2019
f 2019 2018 1235 1238
f 1232 1233 1235 2018
f 2017 2019 1238 1240
f 2020 1998 2001 2021
f 2020 2022 1994 1998
f 2020 2021 2023 2022
f 2021 2001 2024 2025
f 2025 2024 2026 2027
f 2001 1995 2026 2024
f 2021 2025 2027 2023
f 2028 2029 2009 2006
f 2022 2028 2006 1994
f 1994 2006 2009 1995
f 2029 2030 2031 2009
f 2027 2026 2031 2030
f 1995 2009 2031 2026
f 2023 2027 2030 2029
f 2032 2012 2013 2033
f 2032 2034 1236 2012
f 2032 2033 2035 2034
f 2033 2013 2015 2036
f 2033 2036 2037 2035
f 2036 2015 2017 2038
f 2038 2017 1240 2039
f 2036 2038 2039 2037
f 2034 1249 1237 1236
f 2034 2035 1250 1249
f 2035 2037 2040 1250
f 2039 1240 1241 1251
f 2037 2039 1251 2040
f 2041 2042 2029 2028
f 2043 2022 2023 2044
f 2044 2023 2029 2042
f 2043 2041 2028 2022
f 2043 2044 2042 2041
f 2045 2046 1257 1248
f 2047 1250 2040 2048
f 2047 2045 1248 1250
f 2047 2048 2046 2045
f 2046 2049 1252 1257
f 2048 2040 1251 2050
f 2050 1251 1252 2049
f 2048 2050 2049 2046
f 1290 2051 2052 1291
f 1291 2052 2053 1292
f 1292 2053 2054 1293
f 1293 2054 2055 1294
f 1296 1295 2056 2057
f 1294 2055 2056 1295
f 2051 2058 2059 2052
f 2052 2059 2060 2053
f 2053 2060 2061 2054
f 2054 2061 2062 2055
f 2063 2064 2065 2062
f 2057 2056 2065 2064
f 2055 2062 2065 2056
f 2066 2067 2068 2069
f 2058 2066 2069 2059
f 2059 2069 2068 2060
f 2067 2070 2071 2068
f 2060 2068 2071 2061
f 2070 2072 2073 2071
f 2063 2062 2073 2072
f 2061 2071 2073 2062
f 2074 2075 2051 2076
f 1303 2074 2076 1304
f 1304 2076 2051 1290
f 2077 2078 2079 2057
f 1306 1305 2079 2078
f 1296 2057 2079 1305
f 2075 2080 2058 2051
f 2077 2057 2064 2081
f 2082 2083 2067 2066
f 2080 2082 2066 2058
f 2083 2084 2070 2067
f 2084 2085 2072 2070
f 2085 2086 2087 2072
f 2081 2064 2087 2086
f 2063 2072 2087 2064
f 2088 2089 2075 2074
f 1309 2088 2074 1303
f 1309 1322 2089 2088
f 1310 1306 2078 2090
f 1325 1310 2090 2091
f 2089 2092 2080 2075
f 2093 2094 2095 2081
f 2090 2078 2095 2094
f 2077 2081 2095 2078
f 2091 2090 2094 2093
f 2096 2097 2083 2082
f 2092 2096 2082 2080
f 2097 2098 2084 2083
f 2098 2099 2085 2084
f 2099 2100 2086 2085
f 2093 2081 2086 2100
f 1321 2101 2089 1322
f 1321 1335 2102 2101
f 1335 1337 2103 2102
f 1337 1339 2104 2103
f 1323 1325 2091 2105
f 1339 1323 2105 2104
f 2101 2106 2092 2089
f 2105 2091 2093 2107
f 2108 2109 2097 2096
f 2106 2108 2096 2092
f 2109 2110 2098 2097
f 2110 2111 2099 2098
f 2111 2112 2100 2099
f 2107 2093 2100 2112
f 2113 2101 2102 2114
f 2113 2115 2106 2101
f 2114 2102 2103 2116
f 2116 2103 2104 2117
f 2117 2104 2105 2118
f 2118 2105 2107 2119
f 2120 2121 2109 2108
f 2115 2120 2108 2106
f 2121 2122 2110 2109
f 2122 2123 2111 2110
f 2123 2124 2112 2111
f 2119 2107 2112 2124
f 2125 2119 2124 2123
f 1360 2126 2113 1333
f 1333 2113 2114 1334
f 1334 2114 2116 1336
f 1336 2116 2117 1338
f 1361 1340 2118 2127
f 1338 2117 2118 1340
f 2126 2128 2115 2113
f 2129 2130 2119 2125
f 2127 2118 2119 2130
f 2131 2132 2121 2120
f 2128 2131 2120 2115
f 2128 2133 2132 2131
f 2132 2134 2122 2121
f 2133 2135 2134 2132
f 2134 2136 2123 2122
f 2129 2125 2123 2136
f 2135 2129 2136 2134
f 1378 2137 1357 1353
f 1379 1354 1358 2138
f 2139 2140 1360 1359
f 2137 2139 1359 1357
f 2137 2141 2140 2139
f 2142 2143 1362 1361
f 2138 1358 1362 2143
f 2140 2144 2126 1360
f 2142 1361 2127 2145
f 2146 2147 2133 2128
f 2144 2146 2128 2126
f 2144 2148 2147 2146
f 2147 2149 2135 2133
f 2148 2150 2149 2147
f 2149 2151 2129 2135
f 2150 2152 2151 2149
f 2151 2153 2130 2129
f 2145 2127 2130 2153
f 2152 2145 2153 2151
f 2154 2155 2156 2157
f 1401 2154 2157 852
f 852 2157 2156 853
f 2155 2158 2159 2156
f 1404 856 2159 2158
f 853 2156 2159 856
f 1402 1404 2158 2155
f 2160 2161 2162 2163
f 2160 2164 1371 2161
f 2161 1371 1372 2162
f 2160 2163 2165 2164
f 2163 2162 2166 2167
f 2162 1372 1373 2166
f 2163 2167 2168 2165
f 2167 2166 2169 2170
f 2170 2169 1374 2171
f 2166 1373 1374 2169
f 2167 2170 2171 2168
f 2164 1406 859 1371
f 2171 1374 1375 2172
f 2172 1375 861 1409
f 2171 2172 1409 2173
f 2174 2175 2141 2137
f 1417 2174 2137 1378
f 1417 1418 2175 2174
f 1419 1379 2138 2176
f 1420 1419 2176 2177
f 2175 2178 2140 2141
f 2179 2180 2143 2142
f 2176 2138 2143 2180
f 2177 2176 2180 2179
f 2181 2182 2148 2144
f 2178 2181 2144 2140
f 2178 2183 2182 2181
f 2182 2184 2150 2148
f 2183 2185 2184 2182
f 2184 2186 2152 2150
f 2185 2187 2186 2184
f 2186 2188 2145 2152
f 2179 2142 2145 2188
f 2187 2179 2188 2186
f 2189 1383 1387 2190
f 2189 2191 1385 1383
f 2189 2190 2192 2191
f 2190 1387 1389 2193
f 2193 1389 1390 2194
f 2190 2193 2194 2192
f 2195 2196 1396 1391
f 2197 1384 1385 2191
f 2197 2195 1391 1384
f 2197 2191 2196 2195
f 2191 2192 2198 2196
f 2194 1390 1392 2199
f 2192 2194 2199 2198
f 2200 2201 1397 1394
f 2196 2200 1394 1396
f 2196 2198 2201 2200
f 2201 2202 1398 1397
f 2199 1392 1398 2202
f 2198 2199 2202 2201
f 2203 2204 2155 2154
f 2205 1401 1402 2206
f 2206 1402 2155 2204
f 2205 2203 2154 1401
f 2205 2206 2204 2203
f 2207 2164 2165 2208
f 2207 2209 1406 2164
f 2207 2208 2210 2209
f 2208 2165 2168 2211
f 2208 2211 2212 2210
f 2211 2168 2171 2213
f 2213 2171 2173 2214
f 2211 2213 2214 2212
f 2209 2215 1408 1406
f 2209 2210 2216 2215
f 2210 2212 2217 2216
f 2212 2214 2218 2217
f 2214 2173 1409 2219
f 2219 1409 1412 2220
f 2214 2219 2220 2218
f 2215 2221 1414 1408
f 2215 2216 2222 2221
f 2216 2217 2223 2222
f 2217 2218 2224 2223
f 2220 1412 1416 2225
f 2218 2220 2225 2224
f 2221 2226 1418 1414
f 2221 2222 2227 2226
f 2222 2223 2228 2227
f 2223 2224 2229 2228
f 2225 1416 1420 2230
f 2224 2225 2230 2229
f 2226 2231 2175 1418
f 2226 2227 2232 2231
f 2227 2228 2233 2232
f 2228 2229 2234 2233
f 2230 1420 2177 2235
f 2229 2230 2235 2234
f 2236 2237 2183 2178
f 2231 2236 2178 2175
f 2231 2232 2237 2236
f 2237 2238 2185 2183
f 2232 2233 2238 2237
f 2238 2239 2187 2185
f 2233 2234 2239 2238
f 2239 2240 2179 2187
f 2235 2177 2179 2240
f 2234 2235 2240 2239
