# generated by vox_to_obj_exporter
# scale=0.1 center=false ground=false y_up=true

mtllib Fight_720.mtl
usemtl palette

# normals
vn -1 0 0
vn 1 0 0
vn 0 1 0
vn 0 -1 0
vn 0 0 1
vn 0 0 -1

# texcoords
vt 0.185546875 0.5
vt 0.189453125 0.5
vt 0.177734375 0.5
vt 0.197265625 0.5

# verts
v 1.6 9.6 -2.6
v 1.6 9.5 -2.6
v 1.6 9.5 -2.5
v 1.6 9.6 -2.5
v 1.6 9.6 -2.6
v 1.6 9.6 -2.5
v 1.7 9.6 -2.5
v 1.7 9.6 -2.6
v 1.6 9.6 -2.5
v 1.6 9.5 -2.5
v 1.7 9.5 -2.5
v 1.7 9.6 -2.5
v 1.7 9.6 -2.6
v 1.7 9.5 -2.6
v 1.6 9.5 -2.6
v 1.6 9.6 -2.6
v 1.7 9.6 -2.6
v 1.7 9.6 -2.5
v 1.8 9.6 -2.5
v 1.8 9.6 -2.6
v 1.7 9.6 -2.5
v 1.7 9.5 -2.5
v 1.8 9.5 -2.5
v 1.8 9.6 -2.5
v 1.8 9.6 -2.6
v 1.8 9.5 -2.6
v 1.7 9.5 -2.6
v 1.7 9.6 -2.6
v 1.8 9.6 -2.6
v 1.8 9.6 -2.5
v 1.9 9.6 -2.5
v 1.9 9.6 -2.6
v 1.8 9.6 -2.5
v 1.8 9.5 -2.5
v 1.9 9.5 -2.5
v 1.9 9.6 -2.5
v 1.9 9.6 -2.6
v 1.9 9.5 -2.6
v 1.8 9.5 -2.6
v 1.8 9.6 -2.6
v 1.9 9.6 -2.6
v 1.9 9.6 -2.5
v 2 9.6 -2.5
v 2 9.6 -2.6
v 1.9 9.6 -2.5
v 1.9 9.5 -2.5
v 2 9.5 -2.5
v 2 9.6 -2.5
v 2 9.6 -2.6
v 2 9.5 -2.6
v 1.9 9.5 -2.6
v 1.9 9.6 -2.6
v 2.1 9.6 -2.5
v 2.1 9.5 -2.5
v 2.1 9.5 -2.6
v 2.1 9.6 -2.6
v 2 9.6 -2.6
v 2 9.6 -2.5
v 2.1 9.6 -2.5
v 2.1 9.6 -2.6
v 2 9.6 -2.5
v 2 9.5 -2.5
v 2.1 9.5 -2.5
v 2.1 9.6 -2.5
v 2.1 9.6 -2.6
v 2.1 9.5 -2.6
v 2 9.5 -2.6
v 2 9.6 -2.6
v 1.6 9.5 -2.6
v 1.6 9.4 -2.6
v 1.6 9.4 -2.5
v 1.6 9.5 -2.5
v 1.6 9.5 -2.5
v 1.6 9.4 -2.5
v 1.7 9.4 -2.5
v 1.7 9.5 -2.5
v 1.7 9.5 -2.6
v 1.7 9.4 -2.6
v 1.6 9.4 -2.6
v 1.6 9.5 -2.6
v 1.7 9.5 -2.5
v 1.7 9.4 -2.5
v 1.8 9.4 -2.5
v 1.8 9.5 -2.5
v 1.8 9.5 -2.6
v 1.8 9.4 -2.6
v 1.7 9.4 -2.6
v 1.7 9.5 -2.6
v 1.8 9.5 -2.5
v 1.8 9.4 -2.5
v 1.9 9.4 -2.5
v 1.9 9.5 -2.5
v 1.9 9.5 -2.6
v 1.9 9.4 -2.6
v 1.8 9.4 -2.6
v 1.8 9.5 -2.6
v 1.9 9.5 -2.5
v 1.9 9.4 -2.5
v 2 9.4 -2.5
v 2 9.5 -2.5
v 2 9.5 -2.6
v 2 9.4 -2.6
v 1.9 9.4 -2.6
v 1.9 9.5 -2.6
v 2 9.5 -2.5
v 2 9.4 -2.5
v 2.1 9.4 -2.5
v 2.1 9.5 -2.5
v 2.1 9.5 -2.6
v 2.1 9.4 -2.6
v 2 9.4 -2.6
v 2 9.5 -2.6
v 2.1 9.5 -2.6
v 2.1 9.5 -2.5
v 2.2 9.5 -2.5
v 2.2 9.5 -2.6
v 2.1 9.5 -2.5
v 2.1 9.4 -2.5
v 2.2 9.4 -2.5
v 2.2 9.5 -2.5
v 2.2 9.5 -2.6
v 2.2 9.4 -2.6
v 2.1 9.4 -2.6
v 2.1 9.5 -2.6
v 2.2 9.5 -2.6
v 2.2 9.5 -2.5
v 2.3 9.5 -2.5
v 2.3 9.5 -2.6
v 2.2 9.5 -2.5
v 2.2 9.4 -2.5
v 2.3 9.4 -2.5
v 2.3 9.5 -2.5
v 2.3 9.5 -2.6
v 2.3 9.4 -2.6
v 2.2 9.4 -2.6
v 2.2 9.5 -2.6
v 2.3 9.5 -2.6
v 2.3 9.5 -2.5
v 2.4 9.5 -2.5
v 2.4 9.5 -2.6
v 2.3 9.5 -2.5
v 2.3 9.4 -2.5
v 2.4 9.4 -2.5
v 2.4 9.5 -2.5
v 2.4 9.5 -2.6
v 2.4 9.4 -2.6
v 2.3 9.4 -2.6
v 2.3 9.5 -2.6
v 2.4 9.5 -2.6
v 2.4 9.5 -2.5
v 2.5 9.5 -2.5
v 2.5 9.5 -2.6
v 2.4 9.5 -2.5
v 2.4 9.4 -2.5
v 2.5 9.4 -2.5
v 2.5 9.5 -2.5
v 2.5 9.5 -2.6
v 2.5 9.4 -2.6
v 2.4 9.4 -2.6
v 2.4 9.5 -2.6
v 2.6 9.5 -2.5
v 2.6 9.4 -2.5
v 2.6 9.4 -2.6
v 2.6 9.5 -2.6
v 2.5 9.5 -2.6
v 2.5 9.5 -2.5
v 2.6 9.5 -2.5
v 2.6 9.5 -2.6
v 2.5 9.5 -2.5
v 2.5 9.4 -2.5
v 2.6 9.4 -2.5
v 2.6 9.5 -2.5
v 2.6 9.5 -2.6
v 2.6 9.4 -2.6
v 2.5 9.4 -2.6
v 2.5 9.5 -2.6
v 1.5 9.4 -2.6
v 1.5 9.3 -2.6
v 1.5 9.3 -2.5
v 1.5 9.4 -2.5
v 1.5 9.4 -2.6
v 1.5 9.4 -2.5
v 1.6 9.4 -2.5
v 1.6 9.4 -2.6
v 1.5 9.4 -2.5
v 1.5 9.3 -2.5
v 1.6 9.3 -2.5
v 1.6 9.4 -2.5
v 1.6 9.4 -2.6
v 1.6 9.3 -2.6
v 1.5 9.3 -2.6
v 1.5 9.4 -2.6
v 1.6 9.4 -2.5
v 1.6 9.3 -2.5
v 1.7 9.3 -2.5
v 1.7 9.4 -2.5
v 1.7 9.4 -2.6
v 1.7 9.3 -2.6
v 1.6 9.3 -2.6
v 1.6 9.4 -2.6
v 1.7 9.4 -2.5
v 1.7 9.3 -2.5
v 1.8 9.3 -2.5
v 1.8 9.4 -2.5
v 1.8 9.4 -2.6
v 1.8 9.3 -2.6
v 1.7 9.3 -2.6
v 1.7 9.4 -2.6
v 1.8 9.4 -2.5
v 1.8 9.3 -2.5
v 1.9 9.3 -2.5
v 1.9 9.4 -2.5
v 1.9 9.4 -2.6
v 1.9 9.3 -2.6
v 1.8 9.3 -2.6
v 1.8 9.4 -2.6
v 1.9 9.4 -2.5
v 1.9 9.3 -2.5
v 2 9.3 -2.5
v 2 9.4 -2.5
v 2 9.4 -2.6
v 2 9.3 -2.6
v 1.9 9.3 -2.6
v 1.9 9.4 -2.6
v 2 9.4 -2.5
v 2 9.3 -2.5
v 2.1 9.3 -2.5
v 2.1 9.4 -2.5
v 2.1 9.4 -2.6
v 2.1 9.3 -2.6
v 2 9.3 -2.6
v 2 9.4 -2.6
v 2.1 9.4 -2.5
v 2.1 9.3 -2.5
v 2.2 9.3 -2.5
v 2.2 9.4 -2.5
v 2.2 9.4 -2.6
v 2.2 9.3 -2.6
v 2.1 9.3 -2.6
v 2.1 9.4 -2.6
v 2.2 9.4 -2.5
v 2.2 9.3 -2.5
v 2.3 9.3 -2.5
v 2.3 9.4 -2.5
v 2.3 9.4 -2.6
v 2.3 9.3 -2.6
v 2.2 9.3 -2.6
v 2.2 9.4 -2.6
v 2.3 9.4 -2.5
v 2.3 9.3 -2.5
v 2.4 9.3 -2.5
v 2.4 9.4 -2.5
v 2.4 9.4 -2.6
v 2.4 9.3 -2.6
v 2.3 9.3 -2.6
v 2.3 9.4 -2.6
v 2.4 9.4 -2.5
v 2.4 9.3 -2.5
v 2.5 9.3 -2.5
v 2.5 9.4 -2.5
v 2.5 9.4 -2.6
v 2.5 9.3 -2.6
v 2.4 9.3 -2.6
v 2.4 9.4 -2.6
v 2.5 9.4 -2.5
v 2.5 9.3 -2.5
v 2.6 9.3 -2.5
v 2.6 9.4 -2.5
v 2.6 9.4 -2.6
v 2.6 9.3 -2.6
v 2.5 9.3 -2.6
v 2.5 9.4 -2.6
v 2.6 9.4 -2.6
v 2.6 9.4 -2.5
v 2.7 9.4 -2.5
v 2.7 9.4 -2.6
v 2.6 9.4 -2.5
v 2.6 9.3 -2.5
v 2.7 9.3 -2.5
v 2.7 9.4 -2.5
v 2.7 9.4 -2.6
v 2.7 9.3 -2.6
v 2.6 9.3 -2.6
v 2.6 9.4 -2.6
v 2.8 9.4 -2.5
v 2.8 9.3 -2.5
v 2.8 9.3 -2.6
v 2.8 9.4 -2.6
v 2.7 9.4 -2.6
v 2.7 9.4 -2.5
v 2.8 9.4 -2.5
v 2.8 9.4 -2.6
v 2.7 9.4 -2.5
v 2.7 9.3 -2.5
v 2.8 9.3 -2.5
v 2.8 9.4 -2.5
v 2.8 9.4 -2.6
v 2.8 9.3 -2.6
v 2.7 9.3 -2.6
v 2.7 9.4 -2.6
v 1.5 9.3 -2.6
v 1.5 9.2 -2.6
v 1.5 9.2 -2.5
v 1.5 9.3 -2.5
v 1.5 9.2 -2.5
v 1.5 9.2 -2.6
v 1.6 9.2 -2.6
v 1.6 9.2 -2.5
v 1.5 9.3 -2.5
v 1.5 9.2 -2.5
v 1.6 9.2 -2.5
v 1.6 9.3 -2.5
v 1.6 9.3 -2.6
v 1.6 9.2 -2.6
v 1.5 9.2 -2.6
v 1.5 9.3 -2.6
v 1.6 9.3 -2.5
v 1.6 9.2 -2.5
v 1.7 9.2 -2.5
v 1.7 9.3 -2.5
v 1.7 9.3 -2.6
v 1.7 9.2 -2.6
v 1.6 9.2 -2.6
v 1.6 9.3 -2.6
v 1.7 9.3 -2.5
v 1.7 9.2 -2.5
v 1.8 9.2 -2.5
v 1.8 9.3 -2.5
v 1.8 9.3 -2.6
v 1.8 9.2 -2.6
v 1.7 9.2 -2.6
v 1.7 9.3 -2.6
v 1.8 9.3 -2.5
v 1.8 9.2 -2.5
v 1.9 9.2 -2.5
v 1.9 9.3 -2.5
v 1.9 9.3 -2.6
v 1.9 9.2 -2.6
v 1.8 9.2 -2.6
v 1.8 9.3 -2.6
v 1.9 9.3 -2.5
v 1.9 9.2 -2.5
v 2 9.2 -2.5
v 2 9.3 -2.5
v 2 9.3 -2.6
v 2 9.2 -2.6
v 1.9 9.2 -2.6
v 1.9 9.3 -2.6
v 2 9.3 -2.5
v 2 9.2 -2.5
v 2.1 9.2 -2.5
v 2.1 9.3 -2.5
v 2.1 9.3 -2.6
v 2.1 9.2 -2.6
v 2 9.2 -2.6
v 2 9.3 -2.6
v 2.1 9.3 -2.5
v 2.1 9.2 -2.5
v 2.2 9.2 -2.5
v 2.2 9.3 -2.5
v 2.2 9.3 -2.6
v 2.2 9.2 -2.6
v 2.1 9.2 -2.6
v 2.1 9.3 -2.6
v 2.2 9.3 -2.5
v 2.2 9.2 -2.5
v 2.3 9.2 -2.5
v 2.3 9.3 -2.5
v 2.3 9.3 -2.6
v 2.3 9.2 -2.6
v 2.2 9.2 -2.6
v 2.2 9.3 -2.6
v 2.3 9.3 -2.5
v 2.3 9.2 -2.5
v 2.4 9.2 -2.5
v 2.4 9.3 -2.5
v 2.4 9.3 -2.6
v 2.4 9.2 -2.6
v 2.3 9.2 -2.6
v 2.3 9.3 -2.6
v 2.4 9.3 -2.5
v 2.4 9.2 -2.5
v 2.5 9.2 -2.5
v 2.5 9.3 -2.5
v 2.5 9.3 -2.6
v 2.5 9.2 -2.6
v 2.4 9.2 -2.6
v 2.4 9.3 -2.6
v 2.5 9.3 -2.5
v 2.5 9.2 -2.5
v 2.6 9.2 -2.5
v 2.6 9.3 -2.5
v 2.6 9.3 -2.6
v 2.6 9.2 -2.6
v 2.5 9.2 -2.6
v 2.5 9.3 -2.6
v 2.6 9.3 -2.5
v 2.6 9.2 -2.5
v 2.7 9.2 -2.5
v 2.7 9.3 -2.5
v 2.7 9.3 -2.6
v 2.7 9.2 -2.6
v 2.6 9.2 -2.6
v 2.6 9.3 -2.6
v 2.7 9.3 -2.5
v 2.7 9.2 -2.5
v 2.8 9.2 -2.5
v 2.8 9.3 -2.5
v 2.8 9.3 -2.6
v 2.8 9.2 -2.6
v 2.7 9.2 -2.6
v 2.7 9.3 -2.6
v 2.8 9.3 -2.6
v 2.8 9.3 -2.5
v 2.9 9.3 -2.5
v 2.9 9.3 -2.6
v 2.8 9.3 -2.5
v 2.8 9.2 -2.5
v 2.9 9.2 -2.5
v 2.9 9.3 -2.5
v 2.9 9.3 -2.6
v 2.9 9.2 -2.6
v 2.8 9.2 -2.6
v 2.8 9.3 -2.6
v 3 9.3 -2.5
v 3 9.2 -2.5
v 3 9.2 -2.6
v 3 9.3 -2.6
v 2.9 9.3 -2.6
v 2.9 9.3 -2.5
v 3 9.3 -2.5
v 3 9.3 -2.6
v 2.9 9.3 -2.5
v 2.9 9.2 -2.5
v 3 9.2 -2.5
v 3 9.3 -2.5
v 3 9.3 -2.6
v 3 9.2 -2.6
v 2.9 9.2 -2.6
v 2.9 9.3 -2.6
v 1.6 9.2 -2.6
v 1.6 9.1 -2.6
v 1.6 9.1 -2.5
v 1.6 9.2 -2.5
v 1.6 9.2 -2.5
v 1.6 9.1 -2.5
v 1.7 9.1 -2.5
v 1.7 9.2 -2.5
v 1.7 9.2 -2.6
v 1.7 9.1 -2.6
v 1.6 9.1 -2.6
v 1.6 9.2 -2.6
v 1.7 9.2 -2.5
v 1.7 9.1 -2.5
v 1.8 9.1 -2.5
v 1.8 9.2 -2.5
v 1.8 9.2 -2.6
v 1.8 9.1 -2.6
v 1.7 9.1 -2.6
v 1.7 9.2 -2.6
v 1.8 9.2 -2.5
v 1.8 9.1 -2.5
v 1.9 9.1 -2.5
v 1.9 9.2 -2.5
v 1.9 9.2 -2.6
v 1.9 9.1 -2.6
v 1.8 9.1 -2.6
v 1.8 9.2 -2.6
v 1.9 9.2 -2.5
v 1.9 9.1 -2.5
v 2 9.1 -2.5
v 2 9.2 -2.5
v 2 9.2 -2.6
v 2 9.1 -2.6
v 1.9 9.1 -2.6
v 1.9 9.2 -2.6
v 2 9.2 -2.5
v 2 9.1 -2.5
v 2.1 9.1 -2.5
v 2.1 9.2 -2.5
v 2.1 9.2 -2.6
v 2.1 9.1 -2.6
v 2 9.1 -2.6
v 2 9.2 -2.6
v 2.1 9.2 -2.5
v 2.1 9.1 -2.5
v 2.2 9.1 -2.5
v 2.2 9.2 -2.5
v 2.2 9.2 -2.6
v 2.2 9.1 -2.6
v 2.1 9.1 -2.6
v 2.1 9.2 -2.6
v 2.2 9.2 -2.5
v 2.2 9.1 -2.5
v 2.3 9.1 -2.5
v 2.3 9.2 -2.5
v 2.3 9.2 -2.6
v 2.3 9.1 -2.6
v 2.2 9.1 -2.6
v 2.2 9.2 -2.6
v 2.3 9.2 -2.5
v 2.3 9.1 -2.5
v 2.4 9.1 -2.5
v 2.4 9.2 -2.5
v 2.4 9.2 -2.6
v 2.4 9.1 -2.6
v 2.3 9.1 -2.6
v 2.3 9.2 -2.6
v 2.4 9.2 -2.5
v 2.4 9.1 -2.5
v 2.5 9.1 -2.5
v 2.5 9.2 -2.5
v 2.5 9.2 -2.6
v 2.5 9.1 -2.6
v 2.4 9.1 -2.6
v 2.4 9.2 -2.6
v 2.5 9.2 -2.5
v 2.5 9.1 -2.5
v 2.6 9.1 -2.5
v 2.6 9.2 -2.5
v 2.6 9.2 -2.6
v 2.6 9.1 -2.6
v 2.5 9.1 -2.6
v 2.5 9.2 -2.6
v 2.6 9.2 -2.5
v 2.6 9.1 -2.5
v 2.7 9.1 -2.5
v 2.7 9.2 -2.5
v 2.7 9.2 -2.6
v 2.7 9.1 -2.6
v 2.6 9.1 -2.6
v 2.6 9.2 -2.6
v 2.7 9.2 -2.5
v 2.7 9.1 -2.5
v 2.8 9.1 -2.5
v 2.8 9.2 -2.5
v 2.8 9.2 -2.6
v 2.8 9.1 -2.6
v 2.7 9.1 -2.6
v 2.7 9.2 -2.6
v 2.8 9.2 -2.5
v 2.8 9.1 -2.5
v 2.9 9.1 -2.5
v 2.9 9.2 -2.5
v 2.9 9.2 -2.6
v 2.9 9.1 -2.6
v 2.8 9.1 -2.6
v 2.8 9.2 -2.6
v 2.9 9.2 -2.5
v 2.9 9.1 -2.5
v 3 9.1 -2.5
v 3 9.2 -2.5
v 3 9.2 -2.6
v 3 9.1 -2.6
v 2.9 9.1 -2.6
v 2.9 9.2 -2.6
v 3.1 9.2 -2.5
v 3.1 9.1 -2.5
v 3.1 9.1 -2.6
v 3.1 9.2 -2.6
v 3 9.2 -2.6
v 3 9.2 -2.5
v 3.1 9.2 -2.5
v 3.1 9.2 -2.6
v 3 9.2 -2.5
v 3 9.1 -2.5
v 3.1 9.1 -2.5
v 3.1 9.2 -2.5
v 3.1 9.2 -2.6
v 3.1 9.1 -2.6
v 3 9.1 -2.6
v 3 9.2 -2.6
v 1.6 9.1 -2.6
v 1.6 9 -2.6
v 1.6 9 -2.5
v 1.6 9.1 -2.5
v 1.6 9.1 -2.5
v 1.6 9 -2.5
v 1.7 9 -2.5
v 1.7 9.1 -2.5
v 1.7 9.1 -2.6
v 1.7 9 -2.6
v 1.6 9 -2.6
v 1.6 9.1 -2.6
v 1.7 9.1 -2.5
v 1.7 9 -2.5
v 1.8 9 -2.5
v 1.8 9.1 -2.5
v 1.8 9.1 -2.6
v 1.8 9 -2.6
v 1.7 9 -2.6
v 1.7 9.1 -2.6
v 1.8 9.1 -2.5
v 1.8 9 -2.5
v 1.9 9 -2.5
v 1.9 9.1 -2.5
v 1.9 9.1 -2.6
v 1.9 9 -2.6
v 1.8 9 -2.6
v 1.8 9.1 -2.6
v 1.9 9.1 -2.5
v 1.9 9 -2.5
v 2 9 -2.5
v 2 9.1 -2.5
v 2 9.1 -2.6
v 2 9 -2.6
v 1.9 9 -2.6
v 1.9 9.1 -2.6
v 2 9.1 -2.5
v 2 9 -2.5
v 2.1 9 -2.5
v 2.1 9.1 -2.5
v 2.1 9.1 -2.6
v 2.1 9 -2.6
v 2 9 -2.6
v 2 9.1 -2.6
v 2.1 9.1 -2.5
v 2.1 9 -2.5
v 2.2 9 -2.5
v 2.2 9.1 -2.5
v 2.2 9.1 -2.6
v 2.2 9 -2.6
v 2.1 9 -2.6
v 2.1 9.1 -2.6
v 2.2 9.1 -2.5
v 2.2 9 -2.5
v 2.3 9 -2.5
v 2.3 9.1 -2.5
v 2.3 9.1 -2.6
v 2.3 9 -2.6
v 2.2 9 -2.6
v 2.2 9.1 -2.6
v 2.3 9.1 -2.5
v 2.3 9 -2.5
v 2.4 9 -2.5
v 2.4 9.1 -2.5
v 2.4 9.1 -2.6
v 2.4 9 -2.6
v 2.3 9 -2.6
v 2.3 9.1 -2.6
v 2.4 9.1 -2.5
v 2.4 9 -2.5
v 2.5 9 -2.5
v 2.5 9.1 -2.5
v 2.5 9.1 -2.6
v 2.5 9 -2.6
v 2.4 9 -2.6
v 2.4 9.1 -2.6
v 2.5 9.1 -2.5
v 2.5 9 -2.5
v 2.6 9 -2.5
v 2.6 9.1 -2.5
v 2.6 9.1 -2.6
v 2.6 9 -2.6
v 2.5 9 -2.6
v 2.5 9.1 -2.6
v 2.6 9.1 -2.5
v 2.6 9 -2.5
v 2.7 9 -2.5
v 2.7 9.1 -2.5
v 2.7 9.1 -2.6
v 2.7 9 -2.6
v 2.6 9 -2.6
v 2.6 9.1 -2.6
v 2.7 9.1 -2.5
v 2.7 9 -2.5
v 2.8 9 -2.5
v 2.8 9.1 -2.5
v 2.8 9.1 -2.6
v 2.8 9 -2.6
v 2.7 9 -2.6
v 2.7 9.1 -2.6
v 2.8 9.1 -2.5
v 2.8 9 -2.5
v 2.9 9 -2.5
v 2.9 9.1 -2.5
v 2.9 9.1 -2.6
v 2.9 9 -2.6
v 2.8 9 -2.6
v 2.8 9.1 -2.6
v 2.9 9.1 -2.5
v 2.9 9 -2.5
v 3 9 -2.5
v 3 9.1 -2.5
v 3 9.1 -2.6
v 3 9 -2.6
v 2.9 9 -2.6
v 2.9 9.1 -2.6
v 3 9.1 -2.5
v 3 9 -2.5
v 3.1 9 -2.5
v 3.1 9.1 -2.5
v 3.1 9.1 -2.6
v 3.1 9 -2.6
v 3 9 -2.6
v 3 9.1 -2.6
v 3.2 9.1 -2.5
v 3.2 9 -2.5
v 3.2 9 -2.6
v 3.2 9.1 -2.6
v 3.1 9.1 -2.6
v 3.1 9.1 -2.5
v 3.2 9.1 -2.5
v 3.2 9.1 -2.6
v 3.1 9.1 -2.5
v 3.1 9 -2.5
v 3.2 9 -2.5
v 3.2 9.1 -2.5
v 3.2 9.1 -2.6
v 3.2 9 -2.6
v 3.1 9 -2.6
v 3.1 9.1 -2.6
v 1.6 9 -2.6
v 1.6 8.9 -2.6
v 1.6 8.9 -2.5
v 1.6 9 -2.5
v 1.6 9 -2.5
v 1.6 8.9 -2.5
v 1.7 8.9 -2.5
v 1.7 9 -2.5
v 1.7 9 -2.6
v 1.7 8.9 -2.6
v 1.6 8.9 -2.6
v 1.6 9 -2.6
v 1.7 9 -2.5
v 1.7 8.9 -2.5
v 1.8 8.9 -2.5
v 1.8 9 -2.5
v 1.8 9 -2.6
v 1.8 8.9 -2.6
v 1.7 8.9 -2.6
v 1.7 9 -2.6
v 1.8 9 -2.5
v 1.8 8.9 -2.5
v 1.9 8.9 -2.5
v 1.9 9 -2.5
v 1.9 9 -2.6
v 1.9 8.9 -2.6
v 1.8 8.9 -2.6
v 1.8 9 -2.6
v 1.9 9 -2.5
v 1.9 8.9 -2.5
v 2 8.9 -2.5
v 2 9 -2.5
v 2 9 -2.6
v 2 8.9 -2.6
v 1.9 8.9 -2.6
v 1.9 9 -2.6
v 2 9 -2.5
v 2 8.9 -2.5
v 2.1 8.9 -2.5
v 2.1 9 -2.5
v 2.1 9 -2.6
v 2.1 8.9 -2.6
v 2 8.9 -2.6
v 2 9 -2.6
v 2.1 9 -2.5
v 2.1 8.9 -2.5
v 2.2 8.9 -2.5
v 2.2 9 -2.5
v 2.2 9 -2.6
v 2.2 8.9 -2.6
v 2.1 8.9 -2.6
v 2.1 9 -2.6
v 2.2 9 -2.5
v 2.2 8.9 -2.5
v 2.3 8.9 -2.5
v 2.3 9 -2.5
v 2.3 9 -2.6
v 2.3 8.9 -2.6
v 2.2 8.9 -2.6
v 2.2 9 -2.6
v 2.3 9 -2.5
v 2.3 8.9 -2.5
v 2.4 8.9 -2.5
v 2.4 9 -2.5
v 2.4 9 -2.6
v 2.4 8.9 -2.6
v 2.3 8.9 -2.6
v 2.3 9 -2.6
v 2.4 9 -2.5
v 2.4 8.9 -2.5
v 2.5 8.9 -2.5
v 2.5 9 -2.5
v 2.5 9 -2.6
v 2.5 8.9 -2.6
v 2.4 8.9 -2.6
v 2.4 9 -2.6
v 2.5 9 -2.5
v 2.5 8.9 -2.5
v 2.6 8.9 -2.5
v 2.6 9 -2.5
v 2.6 9 -2.6
v 2.6 8.9 -2.6
v 2.5 8.9 -2.6
v 2.5 9 -2.6
v 2.6 9 -2.5
v 2.6 8.9 -2.5
v 2.7 8.9 -2.5
v 2.7 9 -2.5
v 2.7 9 -2.6
v 2.7 8.9 -2.6
v 2.6 8.9 -2.6
v 2.6 9 -2.6
v 2.7 9 -2.5
v 2.7 8.9 -2.5
v 2.8 8.9 -2.5
v 2.8 9 -2.5
v 2.8 9 -2.6
v 2.8 8.9 -2.6
v 2.7 8.9 -2.6
v 2.7 9 -2.6
v 2.8 9 -2.5
v 2.8 8.9 -2.5
v 2.9 8.9 -2.5
v 2.9 9 -2.5
v 2.9 9 -2.6
v 2.9 8.9 -2.6
v 2.8 8.9 -2.6
v 2.8 9 -2.6
v 2.9 9 -2.5
v 2.9 8.9 -2.5
v 3 8.9 -2.5
v 3 9 -2.5
v 3 9 -2.6
v 3 8.9 -2.6
v 2.9 8.9 -2.6
v 2.9 9 -2.6
v 3 9 -2.5
v 3 8.9 -2.5
v 3.1 8.9 -2.5
v 3.1 9 -2.5
v 3.1 9 -2.6
v 3.1 8.9 -2.6
v 3 8.9 -2.6
v 3 9 -2.6
v 3.2 9 -2.5
v 3.2 8.9 -2.5
v 3.2 8.9 -2.6
v 3.2 9 -2.6
v 3.1 9 -2.5
v 3.1 8.9 -2.5
v 3.2 8.9 -2.5
v 3.2 9 -2.5
v 3.2 9 -2.6
v 3.2 8.9 -2.6
v 3.1 8.9 -2.6
v 3.1 9 -2.6
v 1.6 8.9 -2.6
v 1.6 8.8 -2.6
v 1.6 8.8 -2.5
v 1.6 8.9 -2.5
v 1.6 8.9 -2.5
v 1.6 8.8 -2.5
v 1.7 8.8 -2.5
v 1.7 8.9 -2.5
v 1.7 8.9 -2.6
v 1.7 8.8 -2.6
v 1.6 8.8 -2.6
v 1.6 8.9 -2.6
v 1.7 8.9 -2.5
v 1.7 8.8 -2.5
v 1.8 8.8 -2.5
v 1.8 8.9 -2.5
v 1.8 8.9 -2.6
v 1.8 8.8 -2.6
v 1.7 8.8 -2.6
v 1.7 8.9 -2.6
v 1.8 8.9 -2.5
v 1.8 8.8 -2.5
v 1.9 8.8 -2.5
v 1.9 8.9 -2.5
v 1.9 8.9 -2.6
v 1.9 8.8 -2.6
v 1.8 8.8 -2.6
v 1.8 8.9 -2.6
v 1.9 8.9 -2.5
v 1.9 8.8 -2.5
v 2 8.8 -2.5
v 2 8.9 -2.5
v 2 8.9 -2.6
v 2 8.8 -2.6
v 1.9 8.8 -2.6
v 1.9 8.9 -2.6
v 2 8.9 -2.5
v 2 8.8 -2.5
v 2.1 8.8 -2.5
v 2.1 8.9 -2.5
v 2.1 8.9 -2.6
v 2.1 8.8 -2.6
v 2 8.8 -2.6
v 2 8.9 -2.6
v 2.1 8.9 -2.5
v 2.1 8.8 -2.5
v 2.2 8.8 -2.5
v 2.2 8.9 -2.5
v 2.2 8.9 -2.6
v 2.2 8.8 -2.6
v 2.1 8.8 -2.6
v 2.1 8.9 -2.6
v 2.2 8.9 -2.5
v 2.2 8.8 -2.5
v 2.3 8.8 -2.5
v 2.3 8.9 -2.5
v 2.3 8.9 -2.6
v 2.3 8.8 -2.6
v 2.2 8.8 -2.6
v 2.2 8.9 -2.6
v 2.3 8.9 -2.5
v 2.3 8.8 -2.5
v 2.4 8.8 -2.5
v 2.4 8.9 -2.5
v 2.4 8.9 -2.6
v 2.4 8.8 -2.6
v 2.3 8.8 -2.6
v 2.3 8.9 -2.6
v 2.4 8.9 -2.5
v 2.4 8.8 -2.5
v 2.5 8.8 -2.5
v 2.5 8.9 -2.5
v 2.5 8.9 -2.6
v 2.5 8.8 -2.6
v 2.4 8.8 -2.6
v 2.4 8.9 -2.6
v 2.5 8.9 -2.5
v 2.5 8.8 -2.5
v 2.6 8.8 -2.5
v 2.6 8.9 -2.5
v 2.6 8.9 -2.6
v 2.6 8.8 -2.6
v 2.5 8.8 -2.6
v 2.5 8.9 -2.6
v 2.6 8.9 -2.5
v 2.6 8.8 -2.5
v 2.7 8.8 -2.5
v 2.7 8.9 -2.5
v 2.7 8.9 -2.6
v 2.7 8.8 -2.6
v 2.6 8.8 -2.6
v 2.6 8.9 -2.6
v 2.7 8.9 -2.5
v 2.7 8.8 -2.5
v 2.8 8.8 -2.5
v 2.8 8.9 -2.5
v 2.8 8.9 -2.6
v 2.8 8.8 -2.6
v 2.7 8.8 -2.6
v 2.7 8.9 -2.6
v 2.8 8.9 -2.5
v 2.8 8.8 -2.5
v 2.9 8.8 -2.5
v 2.9 8.9 -2.5
v 2.9 8.9 -2.6
v 2.9 8.8 -2.6
v 2.8 8.8 -2.6
v 2.8 8.9 -2.6
v 2.9 8.9 -2.5
v 2.9 8.8 -2.5
v 3 8.8 -2.5
v 3 8.9 -2.5
v 3 8.9 -2.6
v 3 8.8 -2.6
v 2.9 8.8 -2.6
v 2.9 8.9 -2.6
v 3 8.9 -2.5
v 3 8.8 -2.5
v 3.1 8.8 -2.5
v 3.1 8.9 -2.5
v 3.1 8.9 -2.6
v 3.1 8.8 -2.6
v 3 8.8 -2.6
v 3 8.9 -2.6
v 3.1 8.9 -2.5
v 3.1 8.8 -2.5
v 3.2 8.8 -2.5
v 3.2 8.9 -2.5
v 3.2 8.9 -2.6
v 3.2 8.8 -2.6
v 3.1 8.8 -2.6
v 3.1 8.9 -2.6
v 3.3 8.9 -2.5
v 3.3 8.8 -2.5
v 3.3 8.8 -2.6
v 3.3 8.9 -2.6
v 3.2 8.9 -2.6
v 3.2 8.9 -2.5
v 3.3 8.9 -2.5
v 3.3 8.9 -2.6
v 3.2 8.9 -2.5
v 3.2 8.8 -2.5
v 3.3 8.8 -2.5
v 3.3 8.9 -2.5
v 3.3 8.9 -2.6
v 3.3 8.8 -2.6
v 3.2 8.8 -2.6
v 3.2 8.9 -2.6
v 1.6 8.8 -2.6
v 1.6 8.7 -2.6
v 1.6 8.7 -2.5
v 1.6 8.8 -2.5
v 1.6 8.7 -2.5
v 1.6 8.7 -2.6
v 1.7 8.7 -2.6
v 1.7 8.7 -2.5
v 1.6 8.8 -2.5
v 1.6 8.7 -2.5
v 1.7 8.7 -2.5
v 1.7 8.8 -2.5
v 1.7 8.8 -2.6
v 1.7 8.7 -2.6
v 1.6 8.7 -2.6
v 1.6 8.8 -2.6
v 1.7 8.8 -2.5
v 1.7 8.7 -2.5
v 1.8 8.7 -2.5
v 1.8 8.8 -2.5
v 1.8 8.8 -2.6
v 1.8 8.7 -2.6
v 1.7 8.7 -2.6
v 1.7 8.8 -2.6
v 1.8 8.8 -2.5
v 1.8 8.7 -2.5
v 1.9 8.7 -2.5
v 1.9 8.8 -2.5
v 1.9 8.8 -2.6
v 1.9 8.7 -2.6
v 1.8 8.7 -2.6
v 1.8 8.8 -2.6
v 1.9 8.8 -2.5
v 1.9 8.7 -2.5
v 2 8.7 -2.5
v 2 8.8 -2.5
v 2 8.8 -2.6
v 2 8.7 -2.6
v 1.9 8.7 -2.6
v 1.9 8.8 -2.6
v 2 8.8 -2.5
v 2 8.7 -2.5
v 2.1 8.7 -2.5
v 2.1 8.8 -2.5
v 2.1 8.8 -2.6
v 2.1 8.7 -2.6
v 2 8.7 -2.6
v 2 8.8 -2.6
v 2.1 8.8 -2.5
v 2.1 8.7 -2.5
v 2.2 8.7 -2.5
v 2.2 8.8 -2.5
v 2.2 8.8 -2.6
v 2.2 8.7 -2.6
v 2.1 8.7 -2.6
v 2.1 8.8 -2.6
v 2.2 8.8 -2.5
v 2.2 8.7 -2.5
v 2.3 8.7 -2.5
v 2.3 8.8 -2.5
v 2.3 8.8 -2.6
v 2.3 8.7 -2.6
v 2.2 8.7 -2.6
v 2.2 8.8 -2.6
v 2.3 8.8 -2.5
v 2.3 8.7 -2.5
v 2.4 8.7 -2.5
v 2.4 8.8 -2.5
v 2.4 8.8 -2.6
v 2.4 8.7 -2.6
v 2.3 8.7 -2.6
v 2.3 8.8 -2.6
v 2.4 8.8 -2.5
v 2.4 8.7 -2.5
v 2.5 8.7 -2.5
v 2.5 8.8 -2.5
v 2.5 8.8 -2.6
v 2.5 8.7 -2.6
v 2.4 8.7 -2.6
v 2.4 8.8 -2.6
v 2.5 8.8 -2.5
v 2.5 8.7 -2.5
v 2.6 8.7 -2.5
v 2.6 8.8 -2.5
v 2.6 8.8 -2.6
v 2.6 8.7 -2.6
v 2.5 8.7 -2.6
v 2.5 8.8 -2.6
v 2.6 8.8 -2.5
v 2.6 8.7 -2.5
v 2.7 8.7 -2.5
v 2.7 8.8 -2.5
v 2.7 8.8 -2.6
v 2.7 8.7 -2.6
v 2.6 8.7 -2.6
v 2.6 8.8 -2.6
v 2.7 8.8 -2.5
v 2.7 8.7 -2.5
v 2.8 8.7 -2.5
v 2.8 8.8 -2.5
v 2.8 8.8 -2.6
v 2.8 8.7 -2.6
v 2.7 8.7 -2.6
v 2.7 8.8 -2.6
v 2.8 8.8 -2.5
v 2.8 8.7 -2.5
v 2.9 8.7 -2.5
v 2.9 8.8 -2.5
v 2.9 8.8 -2.6
v 2.9 8.7 -2.6
v 2.8 8.7 -2.6
v 2.8 8.8 -2.6
v 2.9 8.8 -2.5
v 2.9 8.7 -2.5
v 3 8.7 -2.5
v 3 8.8 -2.5
v 3 8.8 -2.6
v 3 8.7 -2.6
v 2.9 8.7 -2.6
v 2.9 8.8 -2.6
v 3 8.8 -2.5
v 3 8.7 -2.5
v 3.1 8.7 -2.5
v 3.1 8.8 -2.5
v 3.1 8.8 -2.6
v 3.1 8.7 -2.6
v 3 8.7 -2.6
v 3 8.8 -2.6
v 3.1 8.8 -2.5
v 3.1 8.7 -2.5
v 3.2 8.7 -2.5
v 3.2 8.8 -2.5
v 3.2 8.8 -2.6
v 3.2 8.7 -2.6
v 3.1 8.7 -2.6
v 3.1 8.8 -2.6
v 3.3 8.8 -2.5
v 3.3 8.7 -2.5
v 3.3 8.7 -2.6
v 3.3 8.8 -2.6
v 3.2 8.8 -2.5
v 3.2 8.7 -2.5
v 3.3 8.7 -2.5
v 3.3 8.8 -2.5
v 3.3 8.8 -2.6
v 3.3 8.7 -2.6
v 3.2 8.7 -2.6
v 3.2 8.8 -2.6
v 1.7 8.7 -2.6
v 1.7 8.6 -2.6
v 1.7 8.6 -2.5
v 1.7 8.7 -2.5
v 1.7 8.7 -2.5
v 1.7 8.6 -2.5
v 1.8 8.6 -2.5
v 1.8 8.7 -2.5
v 1.8 8.7 -2.6
v 1.8 8.6 -2.6
v 1.7 8.6 -2.6
v 1.7 8.7 -2.6
v 1.8 8.7 -2.5
v 1.8 8.6 -2.5
v 1.9 8.6 -2.5
v 1.9 8.7 -2.5
v 1.9 8.7 -2.6
v 1.9 8.6 -2.6
v 1.8 8.6 -2.6
v 1.8 8.7 -2.6
v 1.9 8.7 -2.5
v 1.9 8.6 -2.5
v 2 8.6 -2.5
v 2 8.7 -2.5
v 2 8.7 -2.6
v 2 8.6 -2.6
v 1.9 8.6 -2.6
v 1.9 8.7 -2.6
v 2 8.7 -2.5
v 2 8.6 -2.5
v 2.1 8.6 -2.5
v 2.1 8.7 -2.5
v 2.1 8.7 -2.6
v 2.1 8.6 -2.6
v 2 8.6 -2.6
v 2 8.7 -2.6
v 2.1 8.7 -2.5
v 2.1 8.6 -2.5
v 2.2 8.6 -2.5
v 2.2 8.7 -2.5
v 2.2 8.7 -2.6
v 2.2 8.6 -2.6
v 2.1 8.6 -2.6
v 2.1 8.7 -2.6
v 2.2 8.7 -2.5
v 2.2 8.6 -2.5
v 2.3 8.6 -2.5
v 2.3 8.7 -2.5
v 2.3 8.7 -2.6
v 2.3 8.6 -2.6
v 2.2 8.6 -2.6
v 2.2 8.7 -2.6
v 2.3 8.7 -2.5
v 2.3 8.6 -2.5
v 2.4 8.6 -2.5
v 2.4 8.7 -2.5
v 2.4 8.7 -2.6
v 2.4 8.6 -2.6
v 2.3 8.6 -2.6
v 2.3 8.7 -2.6
v 2.4 8.7 -2.5
v 2.4 8.6 -2.5
v 2.5 8.6 -2.5
v 2.5 8.7 -2.5
v 2.5 8.7 -2.6
v 2.5 8.6 -2.6
v 2.4 8.6 -2.6
v 2.4 8.7 -2.6
v 2.5 8.7 -2.5
v 2.5 8.6 -2.5
v 2.6 8.6 -2.5
v 2.6 8.7 -2.5
v 2.6 8.7 -2.6
v 2.6 8.6 -2.6
v 2.5 8.6 -2.6
v 2.5 8.7 -2.6
v 2.6 8.7 -2.5
v 2.6 8.6 -2.5
v 2.7 8.6 -2.5
v 2.7 8.7 -2.5
v 2.7 8.7 -2.6
v 2.7 8.6 -2.6
v 2.6 8.6 -2.6
v 2.6 8.7 -2.6
v 2.7 8.7 -2.5
v 2.7 8.6 -2.5
v 2.8 8.6 -2.5
v 2.8 8.7 -2.5
v 2.8 8.7 -2.6
v 2.8 8.6 -2.6
v 2.7 8.6 -2.6
v 2.7 8.7 -2.6
v 2.8 8.7 -2.5
v 2.8 8.6 -2.5
v 2.9 8.6 -2.5
v 2.9 8.7 -2.5
v 2.9 8.7 -2.6
v 2.9 8.6 -2.6
v 2.8 8.6 -2.6
v 2.8 8.7 -2.6
v 2.9 8.7 -2.5
v 2.9 8.6 -2.5
v 3 8.6 -2.5
v 3 8.7 -2.5
v 3 8.7 -2.6
v 3 8.6 -2.6
v 2.9 8.6 -2.6
v 2.9 8.7 -2.6
v 3 8.7 -2.5
v 3 8.6 -2.5
v 3.1 8.6 -2.5
v 3.1 8.7 -2.5
v 3.1 8.7 -2.6
v 3.1 8.6 -2.6
v 3 8.6 -2.6
v 3 8.7 -2.6
v 3.1 8.7 -2.5
v 3.1 8.6 -2.5
v 3.2 8.6 -2.5
v 3.2 8.7 -2.5
v 3.2 8.7 -2.6
v 3.2 8.6 -2.6
v 3.1 8.6 -2.6
v 3.1 8.7 -2.6
v 3.2 8.7 -2.5
v 3.2 8.6 -2.5
v 3.3 8.6 -2.5
v 3.3 8.7 -2.5
v 3.3 8.7 -2.6
v 3.3 8.6 -2.6
v 3.2 8.6 -2.6
v 3.2 8.7 -2.6
v 3.4 8.7 -2.5
v 3.4 8.6 -2.5
v 3.4 8.6 -2.6
v 3.4 8.7 -2.6
v 3.3 8.7 -2.6
v 3.3 8.7 -2.5
v 3.4 8.7 -2.5
v 3.4 8.7 -2.6
v 3.3 8.7 -2.5
v 3.3 8.6 -2.5
v 3.4 8.6 -2.5
v 3.4 8.7 -2.5
v 3.4 8.7 -2.6
v 3.4 8.6 -2.6
v 3.3 8.6 -2.6
v 3.3 8.7 -2.6
v 1.7 8.6 -2.6
v 1.7 8.5 -2.6
v 1.7 8.5 -2.5
v 1.7 8.6 -2.5
v 1.7 8.5 -2.5
v 1.7 8.5 -2.6
v 1.8 8.5 -2.6
v 1.8 8.5 -2.5
v 1.7 8.6 -2.5
v 1.7 8.5 -2.5
v 1.8 8.5 -2.5
v 1.8 8.6 -2.5
v 1.8 8.6 -2.6
v 1.8 8.5 -2.6
v 1.7 8.5 -2.6
v 1.7 8.6 -2.6
v 1.8 8.6 -2.5
v 1.8 8.5 -2.5
v 1.9 8.5 -2.5
v 1.9 8.6 -2.5
v 1.9 8.6 -2.6
v 1.9 8.5 -2.6
v 1.8 8.5 -2.6
v 1.8 8.6 -2.6
v 1.9 8.6 -2.5
v 1.9 8.5 -2.5
v 2 8.5 -2.5
v 2 8.6 -2.5
v 2 8.6 -2.6
v 2 8.5 -2.6
v 1.9 8.5 -2.6
v 1.9 8.6 -2.6
v 2 8.6 -2.5
v 2 8.5 -2.5
v 2.1 8.5 -2.5
v 2.1 8.6 -2.5
v 2.1 8.6 -2.6
v 2.1 8.5 -2.6
v 2 8.5 -2.6
v 2 8.6 -2.6
v 2.1 8.6 -2.5
v 2.1 8.5 -2.5
v 2.2 8.5 -2.5
v 2.2 8.6 -2.5
v 2.2 8.6 -2.6
v 2.2 8.5 -2.6
v 2.1 8.5 -2.6
v 2.1 8.6 -2.6
v 2.2 8.6 -2.5
v 2.2 8.5 -2.5
v 2.3 8.5 -2.5
v 2.3 8.6 -2.5
v 2.3 8.6 -2.6
v 2.3 8.5 -2.6
v 2.2 8.5 -2.6
v 2.2 8.6 -2.6
v 2.3 8.6 -2.5
v 2.3 8.5 -2.5
v 2.4 8.5 -2.5
v 2.4 8.6 -2.5
v 2.4 8.6 -2.6
v 2.4 8.5 -2.6
v 2.3 8.5 -2.6
v 2.3 8.6 -2.6
v 2.4 8.6 -2.5
v 2.4 8.5 -2.5
v 2.5 8.5 -2.5
v 2.5 8.6 -2.5
v 2.5 8.6 -2.6
v 2.5 8.5 -2.6
v 2.4 8.5 -2.6
v 2.4 8.6 -2.6
v 2.5 8.6 -2.5
v 2.5 8.5 -2.5
v 2.6 8.5 -2.5
v 2.6 8.6 -2.5
v 2.6 8.6 -2.6
v 2.6 8.5 -2.6
v 2.5 8.5 -2.6
v 2.5 8.6 -2.6
v 2.6 8.6 -2.5
v 2.6 8.5 -2.5
v 2.7 8.5 -2.5
v 2.7 8.6 -2.5
v 2.7 8.6 -2.6
v 2.7 8.5 -2.6
v 2.6 8.5 -2.6
v 2.6 8.6 -2.6
v 2.7 8.6 -2.5
v 2.7 8.5 -2.5
v 2.8 8.5 -2.5
v 2.8 8.6 -2.5
v 2.8 8.6 -2.6
v 2.8 8.5 -2.6
v 2.7 8.5 -2.6
v 2.7 8.6 -2.6
v 2.8 8.6 -2.5
v 2.8 8.5 -2.5
v 2.9 8.5 -2.5
v 2.9 8.6 -2.5
v 2.9 8.6 -2.6
v 2.9 8.5 -2.6
v 2.8 8.5 -2.6
v 2.8 8.6 -2.6
v 2.9 8.6 -2.5
v 2.9 8.5 -2.5
v 3 8.5 -2.5
v 3 8.6 -2.5
v 3 8.6 -2.6
v 3 8.5 -2.6
v 2.9 8.5 -2.6
v 2.9 8.6 -2.6
v 3 8.6 -2.5
v 3 8.5 -2.5
v 3.1 8.5 -2.5
v 3.1 8.6 -2.5
v 3.1 8.6 -2.6
v 3.1 8.5 -2.6
v 3 8.5 -2.6
v 3 8.6 -2.6
v 3.1 8.6 -2.5
v 3.1 8.5 -2.5
v 3.2 8.5 -2.5
v 3.2 8.6 -2.5
v 3.2 8.6 -2.6
v 3.2 8.5 -2.6
v 3.1 8.5 -2.6
v 3.1 8.6 -2.6
v 3.2 8.6 -2.5
v 3.2 8.5 -2.5
v 3.3 8.5 -2.5
v 3.3 8.6 -2.5
v 3.3 8.6 -2.6
v 3.3 8.5 -2.6
v 3.2 8.5 -2.6
v 3.2 8.6 -2.6
v 3.4 8.6 -2.5
v 3.4 8.5 -2.5
v 3.4 8.5 -2.6
v 3.4 8.6 -2.6
v 3.3 8.6 -2.5
v 3.3 8.5 -2.5
v 3.4 8.5 -2.5
v 3.4 8.6 -2.5
v 3.4 8.6 -2.6
v 3.4 8.5 -2.6
v 3.3 8.5 -2.6
v 3.3 8.6 -2.6
v 1.8 8.5 -2.6
v 1.8 8.4 -2.6
v 1.8 8.4 -2.5
v 1.8 8.5 -2.5
v 1.8 8.5 -2.5
v 1.8 8.4 -2.5
v 1.9 8.4 -2.5
v 1.9 8.5 -2.5
v 1.9 8.5 -2.6
v 1.9 8.4 -2.6
v 1.8 8.4 -2.6
v 1.8 8.5 -2.6
v 1.9 8.5 -2.5
v 1.9 8.4 -2.5
v 2 8.4 -2.5
v 2 8.5 -2.5
v 2 8.5 -2.6
v 2 8.4 -2.6
v 1.9 8.4 -2.6
v 1.9 8.5 -2.6
v 2 8.5 -2.5
v 2 8.4 -2.5
v 2.1 8.4 -2.5
v 2.1 8.5 -2.5
v 2.1 8.5 -2.6
v 2.1 8.4 -2.6
v 2 8.4 -2.6
v 2 8.5 -2.6
v 2.1 8.5 -2.5
v 2.1 8.4 -2.5
v 2.2 8.4 -2.5
v 2.2 8.5 -2.5
v 2.2 8.5 -2.6
v 2.2 8.4 -2.6
v 2.1 8.4 -2.6
v 2.1 8.5 -2.6
v 2.2 8.5 -2.5
v 2.2 8.4 -2.5
v 2.3 8.4 -2.5
v 2.3 8.5 -2.5
v 2.3 8.5 -2.6
v 2.3 8.4 -2.6
v 2.2 8.4 -2.6
v 2.2 8.5 -2.6
v 2.3 8.5 -2.5
v 2.3 8.4 -2.5
v 2.4 8.4 -2.5
v 2.4 8.5 -2.5
v 2.4 8.5 -2.6
v 2.4 8.4 -2.6
v 2.3 8.4 -2.6
v 2.3 8.5 -2.6
v 2.4 8.5 -2.5
v 2.4 8.4 -2.5
v 2.5 8.4 -2.5
v 2.5 8.5 -2.5
v 2.5 8.5 -2.6
v 2.5 8.4 -2.6
v 2.4 8.4 -2.6
v 2.4 8.5 -2.6
v 2.5 8.5 -2.5
v 2.5 8.4 -2.5
v 2.6 8.4 -2.5
v 2.6 8.5 -2.5
v 2.6 8.5 -2.6
v 2.6 8.4 -2.6
v 2.5 8.4 -2.6
v 2.5 8.5 -2.6
v 2.6 8.5 -2.5
v 2.6 8.4 -2.5
v 2.7 8.4 -2.5
v 2.7 8.5 -2.5
v 2.7 8.5 -2.6
v 2.7 8.4 -2.6
v 2.6 8.4 -2.6
v 2.6 8.5 -2.6
v 2.7 8.5 -2.5
v 2.7 8.4 -2.5
v 2.8 8.4 -2.5
v 2.8 8.5 -2.5
v 2.8 8.5 -2.6
v 2.8 8.4 -2.6
v 2.7 8.4 -2.6
v 2.7 8.5 -2.6
v 2.8 8.5 -2.5
v 2.8 8.4 -2.5
v 2.9 8.4 -2.5
v 2.9 8.5 -2.5
v 2.9 8.5 -2.6
v 2.9 8.4 -2.6
v 2.8 8.4 -2.6
v 2.8 8.5 -2.6
v 2.9 8.5 -2.5
v 2.9 8.4 -2.5
v 3 8.4 -2.5
v 3 8.5 -2.5
v 3 8.5 -2.6
v 3 8.4 -2.6
v 2.9 8.4 -2.6
v 2.9 8.5 -2.6
v 3 8.5 -2.5
v 3 8.4 -2.5
v 3.1 8.4 -2.5
v 3.1 8.5 -2.5
v 3.1 8.5 -2.6
v 3.1 8.4 -2.6
v 3 8.4 -2.6
v 3 8.5 -2.6
v 3.1 8.5 -2.5
v 3.1 8.4 -2.5
v 3.2 8.4 -2.5
v 3.2 8.5 -2.5
v 3.2 8.5 -2.6
v 3.2 8.4 -2.6
v 3.1 8.4 -2.6
v 3.1 8.5 -2.6
v 3.2 8.5 -2.5
v 3.2 8.4 -2.5
v 3.3 8.4 -2.5
v 3.3 8.5 -2.5
v 3.3 8.5 -2.6
v 3.3 8.4 -2.6
v 3.2 8.4 -2.6
v 3.2 8.5 -2.6
v 3.3 8.5 -2.5
v 3.3 8.4 -2.5
v 3.4 8.4 -2.5
v 3.4 8.5 -2.5
v 3.4 8.5 -2.6
v 3.4 8.4 -2.6
v 3.3 8.4 -2.6
v 3.3 8.5 -2.6
v 3.5 8.5 -2.5
v 3.5 8.4 -2.5
v 3.5 8.4 -2.6
v 3.5 8.5 -2.6
v 3.4 8.5 -2.6
v 3.4 8.5 -2.5
v 3.5 8.5 -2.5
v 3.5 8.5 -2.6
v 3.4 8.5 -2.5
v 3.4 8.4 -2.5
v 3.5 8.4 -2.5
v 3.5 8.5 -2.5
v 3.5 8.5 -2.6
v 3.5 8.4 -2.6
v 3.4 8.4 -2.6
v 3.4 8.5 -2.6
v 1.8 8.4 -2.6
v 1.8 8.3 -2.6
v 1.8 8.3 -2.5
v 1.8 8.4 -2.5
v 1.8 8.3 -2.5
v 1.8 8.3 -2.6
v 1.9 8.3 -2.6
v 1.9 8.3 -2.5
v 1.8 8.4 -2.5
v 1.8 8.3 -2.5
v 1.9 8.3 -2.5
v 1.9 8.4 -2.5
v 1.9 8.4 -2.6
v 1.9 8.3 -2.6
v 1.8 8.3 -2.6
v 1.8 8.4 -2.6
v 1.9 8.3 -2.5
v 1.9 8.3 -2.6
v 2 8.3 -2.6
v 2 8.3 -2.5
v 1.9 8.4 -2.5
v 1.9 8.3 -2.5
v 2 8.3 -2.5
v 2 8.4 -2.5
v 2 8.4 -2.6
v 2 8.3 -2.6
v 1.9 8.3 -2.6
v 1.9 8.4 -2.6
v 2 8.4 -2.5
v 2 8.3 -2.5
v 2.1 8.3 -2.5
v 2.1 8.4 -2.5
v 2.1 8.4 -2.6
v 2.1 8.3 -2.6
v 2 8.3 -2.6
v 2 8.4 -2.6
v 2.1 8.4 -2.5
v 2.1 8.3 -2.5
v 2.2 8.3 -2.5
v 2.2 8.4 -2.5
v 2.2 8.4 -2.6
v 2.2 8.3 -2.6
v 2.1 8.3 -2.6
v 2.1 8.4 -2.6
v 2.2 8.4 -2.5
v 2.2 8.3 -2.5
v 2.3 8.3 -2.5
v 2.3 8.4 -2.5
v 2.3 8.4 -2.6
v 2.3 8.3 -2.6
v 2.2 8.3 -2.6
v 2.2 8.4 -2.6
v 2.3 8.4 -2.5
v 2.3 8.3 -2.5
v 2.4 8.3 -2.5
v 2.4 8.4 -2.5
v 2.4 8.4 -2.6
v 2.4 8.3 -2.6
v 2.3 8.3 -2.6
v 2.3 8.4 -2.6
v 2.4 8.4 -2.5
v 2.4 8.3 -2.5
v 2.5 8.3 -2.5
v 2.5 8.4 -2.5
v 2.5 8.4 -2.6
v 2.5 8.3 -2.6
v 2.4 8.3 -2.6
v 2.4 8.4 -2.6
v 2.5 8.4 -2.5
v 2.5 8.3 -2.5
v 2.6 8.3 -2.5
v 2.6 8.4 -2.5
v 2.6 8.4 -2.6
v 2.6 8.3 -2.6
v 2.5 8.3 -2.6
v 2.5 8.4 -2.6
v 2.6 8.4 -2.5
v 2.6 8.3 -2.5
v 2.7 8.3 -2.5
v 2.7 8.4 -2.5
v 2.7 8.4 -2.6
v 2.7 8.3 -2.6
v 2.6 8.3 -2.6
v 2.6 8.4 -2.6
v 2.7 8.4 -2.5
v 2.7 8.3 -2.5
v 2.8 8.3 -2.5
v 2.8 8.4 -2.5
v 2.8 8.4 -2.6
v 2.8 8.3 -2.6
v 2.7 8.3 -2.6
v 2.7 8.4 -2.6
v 2.8 8.4 -2.5
v 2.8 8.3 -2.5
v 2.9 8.3 -2.5
v 2.9 8.4 -2.5
v 2.9 8.4 -2.6
v 2.9 8.3 -2.6
v 2.8 8.3 -2.6
v 2.8 8.4 -2.6
v 2.9 8.4 -2.5
v 2.9 8.3 -2.5
v 3 8.3 -2.5
v 3 8.4 -2.5
v 3 8.4 -2.6
v 3 8.3 -2.6
v 2.9 8.3 -2.6
v 2.9 8.4 -2.6
v 3 8.4 -2.5
v 3 8.3 -2.5
v 3.1 8.3 -2.5
v 3.1 8.4 -2.5
v 3.1 8.4 -2.6
v 3.1 8.3 -2.6
v 3 8.3 -2.6
v 3 8.4 -2.6
v 3.1 8.4 -2.5
v 3.1 8.3 -2.5
v 3.2 8.3 -2.5
v 3.2 8.4 -2.5
v 3.2 8.4 -2.6
v 3.2 8.3 -2.6
v 3.1 8.3 -2.6
v 3.1 8.4 -2.6
v 3.2 8.4 -2.5
v 3.2 8.3 -2.5
v 3.3 8.3 -2.5
v 3.3 8.4 -2.5
v 3.3 8.4 -2.6
v 3.3 8.3 -2.6
v 3.2 8.3 -2.6
v 3.2 8.4 -2.6
v 3.3 8.4 -2.5
v 3.3 8.3 -2.5
v 3.4 8.3 -2.5
v 3.4 8.4 -2.5
v 3.4 8.4 -2.6
v 3.4 8.3 -2.6
v 3.3 8.3 -2.6
v 3.3 8.4 -2.6
v 3.4 8.4 -2.5
v 3.4 8.3 -2.5
v 3.5 8.3 -2.5
v 3.5 8.4 -2.5
v 3.5 8.4 -2.6
v 3.5 8.3 -2.6
v 3.4 8.3 -2.6
v 3.4 8.4 -2.6
v 3.5 8.4 -2.6
v 3.5 8.4 -2.5
v 3.6 8.4 -2.5
v 3.6 8.4 -2.6
v 3.5 8.4 -2.5
v 3.5 8.3 -2.5
v 3.6 8.3 -2.5
v 3.6 8.4 -2.5
v 3.6 8.4 -2.6
v 3.6 8.3 -2.6
v 3.5 8.3 -2.6
v 3.5 8.4 -2.6
v 3.7 8.4 -2.5
v 3.7 8.3 -2.5
v 3.7 8.3 -2.6
v 3.7 8.4 -2.6
v 3.6 8.4 -2.6
v 3.6 8.4 -2.5
v 3.7 8.4 -2.5
v 3.7 8.4 -2.6
v 3.6 8.4 -2.5
v 3.6 8.3 -2.5
v 3.7 8.3 -2.5
v 3.7 8.4 -2.5
v 3.7 8.4 -2.6
v 3.7 8.3 -2.6
v 3.6 8.3 -2.6
v 3.6 8.4 -2.6
v 2 8.3 -2.6
v 2 8.2 -2.6
v 2 8.2 -2.5
v 2 8.3 -2.5
v 2 8.2 -2.5
v 2 8.2 -2.6
v 2.1 8.2 -2.6
v 2.1 8.2 -2.5
v 2 8.3 -2.5
v 2 8.2 -2.5
v 2.1 8.2 -2.5
v 2.1 8.3 -2.5
v 2.1 8.3 -2.6
v 2.1 8.2 -2.6
v 2 8.2 -2.6
v 2 8.3 -2.6
v 2.1 8.2 -2.5
v 2.1 8.2 -2.6
v 2.2 8.2 -2.6
v 2.2 8.2 -2.5
v 2.1 8.3 -2.5
v 2.1 8.2 -2.5
v 2.2 8.2 -2.5
v 2.2 8.3 -2.5
v 2.2 8.3 -2.6
v 2.2 8.2 -2.6
v 2.1 8.2 -2.6
v 2.1 8.3 -2.6
v 2.2 8.3 -2.5
v 2.2 8.2 -2.5
v 2.3 8.2 -2.5
v 2.3 8.3 -2.5
v 2.3 8.3 -2.6
v 2.3 8.2 -2.6
v 2.2 8.2 -2.6
v 2.2 8.3 -2.6
v 2.3 8.3 -2.5
v 2.3 8.2 -2.5
v 2.4 8.2 -2.5
v 2.4 8.3 -2.5
v 2.4 8.3 -2.6
v 2.4 8.2 -2.6
v 2.3 8.2 -2.6
v 2.3 8.3 -2.6
v 2.4 8.3 -2.5
v 2.4 8.2 -2.5
v 2.5 8.2 -2.5
v 2.5 8.3 -2.5
v 2.5 8.3 -2.6
v 2.5 8.2 -2.6
v 2.4 8.2 -2.6
v 2.4 8.3 -2.6
v 2.5 8.3 -2.5
v 2.5 8.2 -2.5
v 2.6 8.2 -2.5
v 2.6 8.3 -2.5
v 2.6 8.3 -2.6
v 2.6 8.2 -2.6
v 2.5 8.2 -2.6
v 2.5 8.3 -2.6
v 2.6 8.3 -2.5
v 2.6 8.2 -2.5
v 2.7 8.2 -2.5
v 2.7 8.3 -2.5
v 2.7 8.3 -2.6
v 2.7 8.2 -2.6
v 2.6 8.2 -2.6
v 2.6 8.3 -2.6
v 2.7 8.3 -2.5
v 2.7 8.2 -2.5
v 2.8 8.2 -2.5
v 2.8 8.3 -2.5
v 2.8 8.3 -2.6
v 2.8 8.2 -2.6
v 2.7 8.2 -2.6
v 2.7 8.3 -2.6
v 2.8 8.3 -2.5
v 2.8 8.2 -2.5
v 2.9 8.2 -2.5
v 2.9 8.3 -2.5
v 2.9 8.3 -2.6
v 2.9 8.2 -2.6
v 2.8 8.2 -2.6
v 2.8 8.3 -2.6
v 2.9 8.3 -2.5
v 2.9 8.2 -2.5
v 3 8.2 -2.5
v 3 8.3 -2.5
v 3 8.3 -2.6
v 3 8.2 -2.6
v 2.9 8.2 -2.6
v 2.9 8.3 -2.6
v 3 8.3 -2.5
v 3 8.2 -2.5
v 3.1 8.2 -2.5
v 3.1 8.3 -2.5
v 3.1 8.3 -2.6
v 3.1 8.2 -2.6
v 3 8.2 -2.6
v 3 8.3 -2.6
v 3.1 8.3 -2.5
v 3.1 8.2 -2.5
v 3.2 8.2 -2.5
v 3.2 8.3 -2.5
v 3.2 8.3 -2.6
v 3.2 8.2 -2.6
v 3.1 8.2 -2.6
v 3.1 8.3 -2.6
v 3.2 8.3 -2.5
v 3.2 8.2 -2.5
v 3.3 8.2 -2.5
v 3.3 8.3 -2.5
v 3.3 8.3 -2.6
v 3.3 8.2 -2.6
v 3.2 8.2 -2.6
v 3.2 8.3 -2.6
v 3.3 8.3 -2.5
v 3.3 8.2 -2.5
v 3.4 8.2 -2.5
v 3.4 8.3 -2.5
v 3.4 8.3 -2.6
v 3.4 8.2 -2.6
v 3.3 8.2 -2.6
v 3.3 8.3 -2.6
v 3.4 8.3 -2.5
v 3.4 8.2 -2.5
v 3.5 8.2 -2.5
v 3.5 8.3 -2.5
v 3.5 8.3 -2.6
v 3.5 8.2 -2.6
v 3.4 8.2 -2.6
v 3.4 8.3 -2.6
v 3.5 8.3 -2.5
v 3.5 8.2 -2.5
v 3.6 8.2 -2.5
v 3.6 8.3 -2.5
v 3.6 8.3 -2.6
v 3.6 8.2 -2.6
v 3.5 8.2 -2.6
v 3.5 8.3 -2.6
v 3.7 8.3 -2.5
v 3.7 8.2 -2.5
v 3.7 8.2 -2.6
v 3.7 8.3 -2.6
v 3.6 8.2 -2.5
v 3.6 8.2 -2.6
v 3.7 8.2 -2.6
v 3.7 8.2 -2.5
v 3.6 8.3 -2.5
v 3.6 8.2 -2.5
v 3.7 8.2 -2.5
v 3.7 8.3 -2.5
v 3.7 8.3 -2.6
v 3.7 8.2 -2.6
v 3.6 8.2 -2.6
v 3.6 8.3 -2.6
v 2.2 8.2 -2.6
v 2.2 8.1 -2.6
v 2.2 8.1 -2.5
v 2.2 8.2 -2.5
v 2.2 8.1 -2.5
v 2.2 8.1 -2.6
v 2.3 8.1 -2.6
v 2.3 8.1 -2.5
v 2.2 8.2 -2.5
v 2.2 8.1 -2.5
v 2.3 8.1 -2.5
v 2.3 8.2 -2.5
v 2.3 8.2 -2.6
v 2.3 8.1 -2.6
v 2.2 8.1 -2.6
v 2.2 8.2 -2.6
v 2.3 8.1 -2.5
v 2.3 8.1 -2.6
v 2.4 8.1 -2.6
v 2.4 8.1 -2.5
v 2.3 8.2 -2.5
v 2.3 8.1 -2.5
v 2.4 8.1 -2.5
v 2.4 8.2 -2.5
v 2.4 8.2 -2.6
v 2.4 8.1 -2.6
v 2.3 8.1 -2.6
v 2.3 8.2 -2.6
v 2.4 8.2 -2.5
v 2.4 8.1 -2.5
v 2.5 8.1 -2.5
v 2.5 8.2 -2.5
v 2.5 8.2 -2.6
v 2.5 8.1 -2.6
v 2.4 8.1 -2.6
v 2.4 8.2 -2.6
v 2.5 8.2 -2.5
v 2.5 8.1 -2.5
v 2.6 8.1 -2.5
v 2.6 8.2 -2.5
v 2.6 8.2 -2.6
v 2.6 8.1 -2.6
v 2.5 8.1 -2.6
v 2.5 8.2 -2.6
v 2.6 8.2 -2.5
v 2.6 8.1 -2.5
v 2.7 8.1 -2.5
v 2.7 8.2 -2.5
v 2.7 8.2 -2.6
v 2.7 8.1 -2.6
v 2.6 8.1 -2.6
v 2.6 8.2 -2.6
v 2.7 8.2 -2.5
v 2.7 8.1 -2.5
v 2.8 8.1 -2.5
v 2.8 8.2 -2.5
v 2.8 8.2 -2.6
v 2.8 8.1 -2.6
v 2.7 8.1 -2.6
v 2.7 8.2 -2.6
v 2.8 8.2 -2.5
v 2.8 8.1 -2.5
v 2.9 8.1 -2.5
v 2.9 8.2 -2.5
v 2.9 8.2 -2.6
v 2.9 8.1 -2.6
v 2.8 8.1 -2.6
v 2.8 8.2 -2.6
v 2.9 8.2 -2.5
v 2.9 8.1 -2.5
v 3 8.1 -2.5
v 3 8.2 -2.5
v 3 8.2 -2.6
v 3 8.1 -2.6
v 2.9 8.1 -2.6
v 2.9 8.2 -2.6
v 3 8.2 -2.5
v 3 8.1 -2.5
v 3.1 8.1 -2.5
v 3.1 8.2 -2.5
v 3.1 8.2 -2.6
v 3.1 8.1 -2.6
v 3 8.1 -2.6
v 3 8.2 -2.6
v 3.1 8.2 -2.5
v 3.1 8.1 -2.5
v 3.2 8.1 -2.5
v 3.2 8.2 -2.5
v 3.2 8.2 -2.6
v 3.2 8.1 -2.6
v 3.1 8.1 -2.6
v 3.1 8.2 -2.6
v 3.2 8.2 -2.5
v 3.2 8.1 -2.5
v 3.3 8.1 -2.5
v 3.3 8.2 -2.5
v 3.3 8.2 -2.6
v 3.3 8.1 -2.6
v 3.2 8.1 -2.6
v 3.2 8.2 -2.6
v 3.3 8.2 -2.5
v 3.3 8.1 -2.5
v 3.4 8.1 -2.5
v 3.4 8.2 -2.5
v 3.4 8.2 -2.6
v 3.4 8.1 -2.6
v 3.3 8.1 -2.6
v 3.3 8.2 -2.6
v 3.4 8.2 -2.5
v 3.4 8.1 -2.5
v 3.5 8.1 -2.5
v 3.5 8.2 -2.5
v 3.5 8.2 -2.6
v 3.5 8.1 -2.6
v 3.4 8.1 -2.6
v 3.4 8.2 -2.6
v 3.6 8.2 -2.5
v 3.6 8.1 -2.5
v 3.6 8.1 -2.6
v 3.6 8.2 -2.6
v 3.5 8.2 -2.5
v 3.5 8.1 -2.5
v 3.6 8.1 -2.5
v 3.6 8.2 -2.5
v 3.6 8.2 -2.6
v 3.6 8.1 -2.6
v 3.5 8.1 -2.6
v 3.5 8.2 -2.6
v 2.4 8.1 -2.6
v 2.4 8 -2.6
v 2.4 8 -2.5
v 2.4 8.1 -2.5
v 2.4 8 -2.5
v 2.4 8 -2.6
v 2.5 8 -2.6
v 2.5 8 -2.5
v 2.4 8.1 -2.5
v 2.4 8 -2.5
v 2.5 8 -2.5
v 2.5 8.1 -2.5
v 2.5 8.1 -2.6
v 2.5 8 -2.6
v 2.4 8 -2.6
v 2.4 8.1 -2.6
v 2.5 8 -2.5
v 2.5 8 -2.6
v 2.6 8 -2.6
v 2.6 8 -2.5
v 2.5 8.1 -2.5
v 2.5 8 -2.5
v 2.6 8 -2.5
v 2.6 8.1 -2.5
v 2.6 8.1 -2.6
v 2.6 8 -2.6
v 2.5 8 -2.6
v 2.5 8.1 -2.6
v 2.6 8 -2.5
v 2.6 8 -2.6
v 2.7 8 -2.6
v 2.7 8 -2.5
v 2.6 8.1 -2.5
v 2.6 8 -2.5
v 2.7 8 -2.5
v 2.7 8.1 -2.5
v 2.7 8.1 -2.6
v 2.7 8 -2.6
v 2.6 8 -2.6
v 2.6 8.1 -2.6
v 2.7 8 -2.5
v 2.7 8 -2.6
v 2.8 8 -2.6
v 2.8 8 -2.5
v 2.7 8.1 -2.5
v 2.7 8 -2.5
v 2.8 8 -2.5
v 2.8 8.1 -2.5
v 2.8 8.1 -2.6
v 2.8 8 -2.6
v 2.7 8 -2.6
v 2.7 8.1 -2.6
v 2.8 8 -2.5
v 2.8 8 -2.6
v 2.9 8 -2.6
v 2.9 8 -2.5
v 2.8 8.1 -2.5
v 2.8 8 -2.5
v 2.9 8 -2.5
v 2.9 8.1 -2.5
v 2.9 8.1 -2.6
v 2.9 8 -2.6
v 2.8 8 -2.6
v 2.8 8.1 -2.6
v 2.9 8 -2.5
v 2.9 8 -2.6
v 3 8 -2.6
v 3 8 -2.5
v 2.9 8.1 -2.5
v 2.9 8 -2.5
v 3 8 -2.5
v 3 8.1 -2.5
v 3 8.1 -2.6
v 3 8 -2.6
v 2.9 8 -2.6
v 2.9 8.1 -2.6
v 3 8 -2.5
v 3 8 -2.6
v 3.1 8 -2.6
v 3.1 8 -2.5
v 3 8.1 -2.5
v 3 8 -2.5
v 3.1 8 -2.5
v 3.1 8.1 -2.5
v 3.1 8.1 -2.6
v 3.1 8 -2.6
v 3 8 -2.6
v 3 8.1 -2.6
v 3.1 8 -2.5
v 3.1 8 -2.6
v 3.2 8 -2.6
v 3.2 8 -2.5
v 3.1 8.1 -2.5
v 3.1 8 -2.5
v 3.2 8 -2.5
v 3.2 8.1 -2.5
v 3.2 8.1 -2.6
v 3.2 8 -2.6
v 3.1 8 -2.6
v 3.1 8.1 -2.6
v 3.2 8 -2.5
v 3.2 8 -2.6
v 3.3 8 -2.6
v 3.3 8 -2.5
v 3.2 8.1 -2.5
v 3.2 8 -2.5
v 3.3 8 -2.5
v 3.3 8.1 -2.5
v 3.3 8.1 -2.6
v 3.3 8 -2.6
v 3.2 8 -2.6
v 3.2 8.1 -2.6
v 3.3 8 -2.5
v 3.3 8 -2.6
v 3.4 8 -2.6
v 3.4 8 -2.5
v 3.3 8.1 -2.5
v 3.3 8 -2.5
v 3.4 8 -2.5
v 3.4 8.1 -2.5
v 3.4 8.1 -2.6
v 3.4 8 -2.6
v 3.3 8 -2.6
v 3.3 8.1 -2.6
v 3.4 8 -2.5
v 3.4 8 -2.6
v 3.5 8 -2.6
v 3.5 8 -2.5
v 3.4 8.1 -2.5
v 3.4 8 -2.5
v 3.5 8 -2.5
v 3.5 8.1 -2.5
v 3.5 8.1 -2.6
v 3.5 8 -2.6
v 3.4 8 -2.6
v 3.4 8.1 -2.6
v 3.6 8.1 -2.5
v 3.6 8 -2.5
v 3.6 8 -2.6
v 3.6 8.1 -2.6
v 3.5 8 -2.5
v 3.5 8 -2.6
v 3.6 8 -2.6
v 3.6 8 -2.5
v 3.5 8.1 -2.5
v 3.5 8 -2.5
v 3.6 8 -2.5
v 3.6 8.1 -2.5
v 3.6 8.1 -2.6
v 3.6 8 -2.6
v 3.5 8 -2.6
v 3.5 8.1 -2.6
v 4.5 7.8 -2.6
v 4.5 7.7 -2.6
v 4.5 7.7 -2.5
v 4.5 7.8 -2.5
v 4.5 7.8 -2.6
v 4.5 7.8 -2.5
v 4.6 7.8 -2.5
v 4.6 7.8 -2.6
v 4.5 7.8 -2.5
v 4.5 7.7 -2.5
v 4.6 7.7 -2.5
v 4.6 7.8 -2.5
v 4.6 7.8 -2.6
v 4.6 7.7 -2.6
v 4.5 7.7 -2.6
v 4.5 7.8 -2.6
v 4.7 7.8 -2.5
v 4.7 7.7 -2.5
v 4.7 7.7 -2.6
v 4.7 7.8 -2.6
v 4.6 7.8 -2.6
v 4.6 7.8 -2.5
v 4.7 7.8 -2.5
v 4.7 7.8 -2.6
v 4.6 7.8 -2.5
v 4.6 7.7 -2.5
v 4.7 7.7 -2.5
v 4.7 7.8 -2.5
v 4.7 7.8 -2.6
v 4.7 7.7 -2.6
v 4.6 7.7 -2.6
v 4.6 7.8 -2.6
v 4.5 7.7 -2.6
v 4.5 7.6 -2.6
v 4.5 7.6 -2.5
v 4.5 7.7 -2.5
v 4.5 7.7 -2.5
v 4.5 7.6 -2.5
v 4.6 7.6 -2.5
v 4.6 7.7 -2.5
v 4.6 7.7 -2.6
v 4.6 7.6 -2.6
v 4.5 7.6 -2.6
v 4.5 7.7 -2.6
v 4.6 7.7 -2.5
v 4.6 7.6 -2.5
v 4.7 7.6 -2.5
v 4.7 7.7 -2.5
v 4.7 7.7 -2.6
v 4.7 7.6 -2.6
v 4.6 7.6 -2.6
v 4.6 7.7 -2.6
v 4.8 7.7 -2.5
v 4.8 7.6 -2.5
v 4.8 7.6 -2.6
v 4.8 7.7 -2.6
v 4.7 7.7 -2.6
v 4.7 7.7 -2.5
v 4.8 7.7 -2.5
v 4.8 7.7 -2.6
v 4.7 7.7 -2.5
v 4.7 7.6 -2.5
v 4.8 7.6 -2.5
v 4.8 7.7 -2.5
v 4.8 7.7 -2.6
v 4.8 7.6 -2.6
v 4.7 7.6 -2.6
v 4.7 7.7 -2.6
v 4.4 7.6 -2.6
v 4.4 7.5 -2.6
v 4.4 7.5 -2.5
v 4.4 7.6 -2.5
v 4.4 7.6 -2.6
v 4.4 7.6 -2.5
v 4.5 7.6 -2.5
v 4.5 7.6 -2.6
v 4.4 7.6 -2.5
v 4.4 7.5 -2.5
v 4.5 7.5 -2.5
v 4.5 7.6 -2.5
v 4.5 7.6 -2.6
v 4.5 7.5 -2.6
v 4.4 7.5 -2.6
v 4.4 7.6 -2.6
v 4.5 7.6 -2.5
v 4.5 7.5 -2.5
v 4.6 7.5 -2.5
v 4.6 7.6 -2.5
v 4.6 7.6 -2.6
v 4.6 7.5 -2.6
v 4.5 7.5 -2.6
v 4.5 7.6 -2.6
v 4.6 7.6 -2.5
v 4.6 7.5 -2.5
v 4.7 7.5 -2.5
v 4.7 7.6 -2.5
v 4.7 7.6 -2.6
v 4.7 7.5 -2.6
v 4.6 7.5 -2.6
v 4.6 7.6 -2.6
v 4.7 7.6 -2.5
v 4.7 7.5 -2.5
v 4.8 7.5 -2.5
v 4.8 7.6 -2.5
v 4.8 7.6 -2.6
v 4.8 7.5 -2.6
v 4.7 7.5 -2.6
v 4.7 7.6 -2.6
v 4.9 7.6 -2.5
v 4.9 7.5 -2.5
v 4.9 7.5 -2.6
v 4.9 7.6 -2.6
v 4.8 7.6 -2.6
v 4.8 7.6 -2.5
v 4.9 7.6 -2.5
v 4.9 7.6 -2.6
v 4.8 7.6 -2.5
v 4.8 7.5 -2.5
v 4.9 7.5 -2.5
v 4.9 7.6 -2.5
v 4.9 7.6 -2.6
v 4.9 7.5 -2.6
v 4.8 7.5 -2.6
v 4.8 7.6 -2.6
v 4.3 7.5 -2.6
v 4.3 7.4 -2.6
v 4.3 7.4 -2.5
v 4.3 7.5 -2.5
v 4.3 7.5 -2.6
v 4.3 7.5 -2.5
v 4.4 7.5 -2.5
v 4.4 7.5 -2.6
v 4.3 7.4 -2.5
v 4.3 7.4 -2.6
v 4.4 7.4 -2.6
v 4.4 7.4 -2.5
v 4.3 7.5 -2.5
v 4.3 7.4 -2.5
v 4.4 7.4 -2.5
v 4.4 7.5 -2.5
v 4.4 7.5 -2.6
v 4.4 7.4 -2.6
v 4.3 7.4 -2.6
v 4.3 7.5 -2.6
v 4.4 7.5 -2.5
v 4.4 7.4 -2.5
v 4.5 7.4 -2.5
v 4.5 7.5 -2.5
v 4.5 7.5 -2.6
v 4.5 7.4 -2.6
v 4.4 7.4 -2.6
v 4.4 7.5 -2.6
v 4.5 7.5 -2.5
v 4.5 7.4 -2.5
v 4.6 7.4 -2.5
v 4.6 7.5 -2.5
v 4.6 7.5 -2.6
v 4.6 7.4 -2.6
v 4.5 7.4 -2.6
v 4.5 7.5 -2.6
v 4.6 7.5 -2.5
v 4.6 7.4 -2.5
v 4.7 7.4 -2.5
v 4.7 7.5 -2.5
v 4.7 7.5 -2.6
v 4.7 7.4 -2.6
v 4.6 7.4 -2.6
v 4.6 7.5 -2.6
v 4.7 7.5 -2.5
v 4.7 7.4 -2.5
v 4.8 7.4 -2.5
v 4.8 7.5 -2.5
v 4.8 7.5 -2.6
v 4.8 7.4 -2.6
v 4.7 7.4 -2.6
v 4.7 7.5 -2.6
v 4.8 7.5 -2.5
v 4.8 7.4 -2.5
v 4.9 7.4 -2.5
v 4.9 7.5 -2.5
v 4.9 7.5 -2.6
v 4.9 7.4 -2.6
v 4.8 7.4 -2.6
v 4.8 7.5 -2.6
v 5 7.5 -2.5
v 5 7.4 -2.5
v 5 7.4 -2.6
v 5 7.5 -2.6
v 4.9 7.5 -2.6
v 4.9 7.5 -2.5
v 5 7.5 -2.5
v 5 7.5 -2.6
v 4.9 7.5 -2.5
v 4.9 7.4 -2.5
v 5 7.4 -2.5
v 5 7.5 -2.5
v 5 7.5 -2.6
v 5 7.4 -2.6
v 4.9 7.4 -2.6
v 4.9 7.5 -2.6
v 4.4 7.4 -2.6
v 4.4 7.3 -2.6
v 4.4 7.3 -2.5
v 4.4 7.4 -2.5
v 4.4 7.3 -2.5
v 4.4 7.3 -2.6
v 4.5 7.3 -2.6
v 4.5 7.3 -2.5
v 4.4 7.4 -2.5
v 4.4 7.3 -2.5
v 4.5 7.3 -2.5
v 4.5 7.4 -2.5
v 4.5 7.4 -2.6
v 4.5 7.3 -2.6
v 4.4 7.3 -2.6
v 4.4 7.4 -2.6
v 4.5 7.4 -2.5
v 4.5 7.3 -2.5
v 4.6 7.3 -2.5
v 4.6 7.4 -2.5
v 4.6 7.4 -2.6
v 4.6 7.3 -2.6
v 4.5 7.3 -2.6
v 4.5 7.4 -2.6
v 4.6 7.4 -2.5
v 4.6 7.3 -2.5
v 4.7 7.3 -2.5
v 4.7 7.4 -2.5
v 4.7 7.4 -2.6
v 4.7 7.3 -2.6
v 4.6 7.3 -2.6
v 4.6 7.4 -2.6
v 4.7 7.4 -2.5
v 4.7 7.3 -2.5
v 4.8 7.3 -2.5
v 4.8 7.4 -2.5
v 4.8 7.4 -2.6
v 4.8 7.3 -2.6
v 4.7 7.3 -2.6
v 4.7 7.4 -2.6
v 4.8 7.4 -2.5
v 4.8 7.3 -2.5
v 4.9 7.3 -2.5
v 4.9 7.4 -2.5
v 4.9 7.4 -2.6
v 4.9 7.3 -2.6
v 4.8 7.3 -2.6
v 4.8 7.4 -2.6
v 4.9 7.4 -2.5
v 4.9 7.3 -2.5
v 5 7.3 -2.5
v 5 7.4 -2.5
v 5 7.4 -2.6
v 5 7.3 -2.6
v 4.9 7.3 -2.6
v 4.9 7.4 -2.6
v 5 7.4 -2.6
v 5 7.4 -2.5
v 5.1 7.4 -2.5
v 5.1 7.4 -2.6
v 5 7.4 -2.5
v 5 7.3 -2.5
v 5.1 7.3 -2.5
v 5.1 7.4 -2.5
v 5.1 7.4 -2.6
v 5.1 7.3 -2.6
v 5 7.3 -2.6
v 5 7.4 -2.6
v 5.2 7.4 -2.5
v 5.2 7.3 -2.5
v 5.2 7.3 -2.6
v 5.2 7.4 -2.6
v 5.1 7.4 -2.6
v 5.1 7.4 -2.5
v 5.2 7.4 -2.5
v 5.2 7.4 -2.6
v 5.1 7.4 -2.5
v 5.1 7.3 -2.5
v 5.2 7.3 -2.5
v 5.2 7.4 -2.5
v 5.2 7.4 -2.6
v 5.2 7.3 -2.6
v 5.1 7.3 -2.6
v 5.1 7.4 -2.6
v 4.5 7.3 -2.6
v 4.5 7.2 -2.6
v 4.5 7.2 -2.5
v 4.5 7.3 -2.5
v 4.5 7.2 -2.5
v 4.5 7.2 -2.6
v 4.6 7.2 -2.6
v 4.6 7.2 -2.5
v 4.5 7.3 -2.5
v 4.5 7.2 -2.5
v 4.6 7.2 -2.5
v 4.6 7.3 -2.5
v 4.6 7.3 -2.6
v 4.6 7.2 -2.6
v 4.5 7.2 -2.6
v 4.5 7.3 -2.6
v 4.6 7.3 -2.5
v 4.6 7.2 -2.5
v 4.7 7.2 -2.5
v 4.7 7.3 -2.5
v 4.7 7.3 -2.6
v 4.7 7.2 -2.6
v 4.6 7.2 -2.6
v 4.6 7.3 -2.6
v 4.7 7.3 -2.5
v 4.7 7.2 -2.5
v 4.8 7.2 -2.5
v 4.8 7.3 -2.5
v 4.8 7.3 -2.6
v 4.8 7.2 -2.6
v 4.7 7.2 -2.6
v 4.7 7.3 -2.6
v 4.8 7.3 -2.5
v 4.8 7.2 -2.5
v 4.9 7.2 -2.5
v 4.9 7.3 -2.5
v 4.9 7.3 -2.6
v 4.9 7.2 -2.6
v 4.8 7.2 -2.6
v 4.8 7.3 -2.6
v 4.9 7.3 -2.5
v 4.9 7.2 -2.5
v 5 7.2 -2.5
v 5 7.3 -2.5
v 5 7.3 -2.6
v 5 7.2 -2.6
v 4.9 7.2 -2.6
v 4.9 7.3 -2.6
v 5 7.3 -2.5
v 5 7.2 -2.5
v 5.1 7.2 -2.5
v 5.1 7.3 -2.5
v 5.1 7.3 -2.6
v 5.1 7.2 -2.6
v 5 7.2 -2.6
v 5 7.3 -2.6
v 5.1 7.3 -2.5
v 5.1 7.2 -2.5
v 5.2 7.2 -2.5
v 5.2 7.3 -2.5
v 5.2 7.3 -2.6
v 5.2 7.2 -2.6
v 5.1 7.2 -2.6
v 5.1 7.3 -2.6
v 5.3 7.3 -2.5
v 5.3 7.2 -2.5
v 5.3 7.2 -2.6
v 5.3 7.3 -2.6
v 5.2 7.3 -2.6
v 5.2 7.3 -2.5
v 5.3 7.3 -2.5
v 5.3 7.3 -2.6
v 5.2 7.3 -2.5
v 5.2 7.2 -2.5
v 5.3 7.2 -2.5
v 5.3 7.3 -2.5
v 5.3 7.3 -2.6
v 5.3 7.2 -2.6
v 5.2 7.2 -2.6
v 5.2 7.3 -2.6
v 4.6 7.2 -2.6
v 4.6 7.1 -2.6
v 4.6 7.1 -2.5
v 4.6 7.2 -2.5
v 4.6 7.1 -2.5
v 4.6 7.1 -2.6
v 4.7 7.1 -2.6
v 4.7 7.1 -2.5
v 4.6 7.2 -2.5
v 4.6 7.1 -2.5
v 4.7 7.1 -2.5
v 4.7 7.2 -2.5
v 4.7 7.2 -2.6
v 4.7 7.1 -2.6
v 4.6 7.1 -2.6
v 4.6 7.2 -2.6
v 4.7 7.1 -2.5
v 4.7 7.1 -2.6
v 4.8 7.1 -2.6
v 4.8 7.1 -2.5
v 4.7 7.2 -2.5
v 4.7 7.1 -2.5
v 4.8 7.1 -2.5
v 4.8 7.2 -2.5
v 4.8 7.2 -2.6
v 4.8 7.1 -2.6
v 4.7 7.1 -2.6
v 4.7 7.2 -2.6
v 4.8 7.2 -2.5
v 4.8 7.1 -2.5
v 4.9 7.1 -2.5
v 4.9 7.2 -2.5
v 4.9 7.2 -2.6
v 4.9 7.1 -2.6
v 4.8 7.1 -2.6
v 4.8 7.2 -2.6
v 4.9 7.2 -2.5
v 4.9 7.1 -2.5
v 5 7.1 -2.5
v 5 7.2 -2.5
v 5 7.2 -2.6
v 5 7.1 -2.6
v 4.9 7.1 -2.6
v 4.9 7.2 -2.6
v 5 7.2 -2.5
v 5 7.1 -2.5
v 5.1 7.1 -2.5
v 5.1 7.2 -2.5
v 5.1 7.2 -2.6
v 5.1 7.1 -2.6
v 5 7.1 -2.6
v 5 7.2 -2.6
v 5.1 7.2 -2.5
v 5.1 7.1 -2.5
v 5.2 7.1 -2.5
v 5.2 7.2 -2.5
v 5.2 7.2 -2.6
v 5.2 7.1 -2.6
v 5.1 7.1 -2.6
v 5.1 7.2 -2.6
v 5.2 7.2 -2.5
v 5.2 7.1 -2.5
v 5.3 7.1 -2.5
v 5.3 7.2 -2.5
v 5.3 7.2 -2.6
v 5.3 7.1 -2.6
v 5.2 7.1 -2.6
v 5.2 7.2 -2.6
v 5.3 7.2 -2.6
v 5.3 7.2 -2.5
v 5.4 7.2 -2.5
v 5.4 7.2 -2.6
v 5.3 7.2 -2.5
v 5.3 7.1 -2.5
v 5.4 7.1 -2.5
v 5.4 7.2 -2.5
v 5.4 7.2 -2.6
v 5.4 7.1 -2.6
v 5.3 7.1 -2.6
v 5.3 7.2 -2.6
v 5.5 7.2 -2.5
v 5.5 7.1 -2.5
v 5.5 7.1 -2.6
v 5.5 7.2 -2.6
v 5.4 7.2 -2.6
v 5.4 7.2 -2.5
v 5.5 7.2 -2.5
v 5.5 7.2 -2.6
v 5.4 7.2 -2.5
v 5.4 7.1 -2.5
v 5.5 7.1 -2.5
v 5.5 7.2 -2.5
v 5.5 7.2 -2.6
v 5.5 7.1 -2.6
v 5.4 7.1 -2.6
v 5.4 7.2 -2.6
v 4.8 7.1 -2.6
v 4.8 7 -2.6
v 4.8 7 -2.5
v 4.8 7.1 -2.5
v 4.8 7 -2.5
v 4.8 7 -2.6
v 4.9 7 -2.6
v 4.9 7 -2.5
v 4.8 7.1 -2.5
v 4.8 7 -2.5
v 4.9 7 -2.5
v 4.9 7.1 -2.5
v 4.9 7.1 -2.6
v 4.9 7 -2.6
v 4.8 7 -2.6
v 4.8 7.1 -2.6
v 4.9 7.1 -2.5
v 4.9 7 -2.5
v 5 7 -2.5
v 5 7.1 -2.5
v 5 7.1 -2.6
v 5 7 -2.6
v 4.9 7 -2.6
v 4.9 7.1 -2.6
v 5 7.1 -2.5
v 5 7 -2.5
v 5.1 7 -2.5
v 5.1 7.1 -2.5
v 5.1 7.1 -2.6
v 5.1 7 -2.6
v 5 7 -2.6
v 5 7.1 -2.6
v 5.1 7.1 -2.5
v 5.1 7 -2.5
v 5.2 7 -2.5
v 5.2 7.1 -2.5
v 5.2 7.1 -2.6
v 5.2 7 -2.6
v 5.1 7 -2.6
v 5.1 7.1 -2.6
v 5.2 7.1 -2.5
v 5.2 7 -2.5
v 5.3 7 -2.5
v 5.3 7.1 -2.5
v 5.3 7.1 -2.6
v 5.3 7 -2.6
v 5.2 7 -2.6
v 5.2 7.1 -2.6
v 5.3 7.1 -2.5
v 5.3 7 -2.5
v 5.4 7 -2.5
v 5.4 7.1 -2.5
v 5.4 7.1 -2.6
v 5.4 7 -2.6
v 5.3 7 -2.6
v 5.3 7.1 -2.6
v 5.4 7.1 -2.5
v 5.4 7 -2.5
v 5.5 7 -2.5
v 5.5 7.1 -2.5
v 5.5 7.1 -2.6
v 5.5 7 -2.6
v 5.4 7 -2.6
v 5.4 7.1 -2.6
v 5.6 7.1 -2.5
v 5.6 7 -2.5
v 5.6 7 -2.6
v 5.6 7.1 -2.6
v 5.5 7.1 -2.6
v 5.5 7.1 -2.5
v 5.6 7.1 -2.5
v 5.6 7.1 -2.6
v 5.5 7.1 -2.5
v 5.5 7 -2.5
v 5.6 7 -2.5
v 5.6 7.1 -2.5
v 5.6 7.1 -2.6
v 5.6 7 -2.6
v 5.5 7 -2.6
v 5.5 7.1 -2.6
v 4.9 7 -2.6
v 4.9 6.9 -2.6
v 4.9 6.9 -2.5
v 4.9 7 -2.5
v 4.9 6.9 -2.5
v 4.9 6.9 -2.6
v 5 6.9 -2.6
v 5 6.9 -2.5
v 4.9 7 -2.5
v 4.9 6.9 -2.5
v 5 6.9 -2.5
v 5 7 -2.5
v 5 7 -2.6
v 5 6.9 -2.6
v 4.9 6.9 -2.6
v 4.9 7 -2.6
v 5 7 -2.5
v 5 6.9 -2.5
v 5.1 6.9 -2.5
v 5.1 7 -2.5
v 5.1 7 -2.6
v 5.1 6.9 -2.6
v 5 6.9 -2.6
v 5 7 -2.6
v 5.1 7 -2.5
v 5.1 6.9 -2.5
v 5.2 6.9 -2.5
v 5.2 7 -2.5
v 5.2 7 -2.6
v 5.2 6.9 -2.6
v 5.1 6.9 -2.6
v 5.1 7 -2.6
v 5.2 7 -2.5
v 5.2 6.9 -2.5
v 5.3 6.9 -2.5
v 5.3 7 -2.5
v 5.3 7 -2.6
v 5.3 6.9 -2.6
v 5.2 6.9 -2.6
v 5.2 7 -2.6
v 5.3 7 -2.5
v 5.3 6.9 -2.5
v 5.4 6.9 -2.5
v 5.4 7 -2.5
v 5.4 7 -2.6
v 5.4 6.9 -2.6
v 5.3 6.9 -2.6
v 5.3 7 -2.6
v 5.4 7 -2.5
v 5.4 6.9 -2.5
v 5.5 6.9 -2.5
v 5.5 7 -2.5
v 5.5 7 -2.6
v 5.5 6.9 -2.6
v 5.4 6.9 -2.6
v 5.4 7 -2.6
v 5.5 7 -2.5
v 5.5 6.9 -2.5
v 5.6 6.9 -2.5
v 5.6 7 -2.5
v 5.6 7 -2.6
v 5.6 6.9 -2.6
v 5.5 6.9 -2.6
v 5.5 7 -2.6
v 5.7 7 -2.5
v 5.7 6.9 -2.5
v 5.7 6.9 -2.6
v 5.7 7 -2.6
v 5.6 7 -2.6
v 5.6 7 -2.5
v 5.7 7 -2.5
v 5.7 7 -2.6
v 5.6 7 -2.5
v 5.6 6.9 -2.5
v 5.7 6.9 -2.5
v 5.7 7 -2.5
v 5.7 7 -2.6
v 5.7 6.9 -2.6
v 5.6 6.9 -2.6
v 5.6 7 -2.6
v 5 6.9 -2.6
v 5 6.8 -2.6
v 5 6.8 -2.5
v 5 6.9 -2.5
v 5 6.8 -2.5
v 5 6.8 -2.6
v 5.1 6.8 -2.6
v 5.1 6.8 -2.5
v 5 6.9 -2.5
v 5 6.8 -2.5
v 5.1 6.8 -2.5
v 5.1 6.9 -2.5
v 5.1 6.9 -2.6
v 5.1 6.8 -2.6
v 5 6.8 -2.6
v 5 6.9 -2.6
v 5.1 6.9 -2.5
v 5.1 6.8 -2.5
v 5.2 6.8 -2.5
v 5.2 6.9 -2.5
v 5.2 6.9 -2.6
v 5.2 6.8 -2.6
v 5.1 6.8 -2.6
v 5.1 6.9 -2.6
v 5.2 6.9 -2.5
v 5.2 6.8 -2.5
v 5.3 6.8 -2.5
v 5.3 6.9 -2.5
v 5.3 6.9 -2.6
v 5.3 6.8 -2.6
v 5.2 6.8 -2.6
v 5.2 6.9 -2.6
v 5.3 6.9 -2.5
v 5.3 6.8 -2.5
v 5.4 6.8 -2.5
v 5.4 6.9 -2.5
v 5.4 6.9 -2.6
v 5.4 6.8 -2.6
v 5.3 6.8 -2.6
v 5.3 6.9 -2.6
v 5.4 6.9 -2.5
v 5.4 6.8 -2.5
v 5.5 6.8 -2.5
v 5.5 6.9 -2.5
v 5.5 6.9 -2.6
v 5.5 6.8 -2.6
v 5.4 6.8 -2.6
v 5.4 6.9 -2.6
v 5.5 6.9 -2.5
v 5.5 6.8 -2.5
v 5.6 6.8 -2.5
v 5.6 6.9 -2.5
v 5.6 6.9 -2.6
v 5.6 6.8 -2.6
v 5.5 6.8 -2.6
v 5.5 6.9 -2.6
v 5.6 6.9 -2.5
v 5.6 6.8 -2.5
v 5.7 6.8 -2.5
v 5.7 6.9 -2.5
v 5.7 6.9 -2.6
v 5.7 6.8 -2.6
v 5.6 6.8 -2.6
v 5.6 6.9 -2.6
v 5.7 6.9 -2.6
v 5.7 6.9 -2.5
v 5.8 6.9 -2.5
v 5.8 6.9 -2.6
v 5.7 6.9 -2.5
v 5.7 6.8 -2.5
v 5.8 6.8 -2.5
v 5.8 6.9 -2.5
v 5.8 6.9 -2.6
v 5.8 6.8 -2.6
v 5.7 6.8 -2.6
v 5.7 6.9 -2.6
v 5.9 6.9 -2.5
v 5.9 6.8 -2.5
v 5.9 6.8 -2.6
v 5.9 6.9 -2.6
v 5.8 6.9 -2.6
v 5.8 6.9 -2.5
v 5.9 6.9 -2.5
v 5.9 6.9 -2.6
v 5.8 6.9 -2.5
v 5.8 6.8 -2.5
v 5.9 6.8 -2.5
v 5.9 6.9 -2.5
v 5.9 6.9 -2.6
v 5.9 6.8 -2.6
v 5.8 6.8 -2.6
v 5.8 6.9 -2.6
v 5.1 6.8 -2.6
v 5.1 6.7 -2.6
v 5.1 6.7 -2.5
v 5.1 6.8 -2.5
v 5.1 6.8 -2.5
v 5.1 6.7 -2.5
v 5.2 6.7 -2.5
v 5.2 6.8 -2.5
v 5.2 6.8 -2.6
v 5.2 6.7 -2.6
v 5.1 6.7 -2.6
v 5.1 6.8 -2.6
v 5.2 6.8 -2.5
v 5.2 6.7 -2.5
v 5.3 6.7 -2.5
v 5.3 6.8 -2.5
v 5.3 6.8 -2.6
v 5.3 6.7 -2.6
v 5.2 6.7 -2.6
v 5.2 6.8 -2.6
v 5.3 6.8 -2.5
v 5.3 6.7 -2.5
v 5.4 6.7 -2.5
v 5.4 6.8 -2.5
v 5.4 6.8 -2.6
v 5.4 6.7 -2.6
v 5.3 6.7 -2.6
v 5.3 6.8 -2.6
v 5.4 6.8 -2.5
v 5.4 6.7 -2.5
v 5.5 6.7 -2.5
v 5.5 6.8 -2.5
v 5.5 6.8 -2.6
v 5.5 6.7 -2.6
v 5.4 6.7 -2.6
v 5.4 6.8 -2.6
v 5.5 6.8 -2.5
v 5.5 6.7 -2.5
v 5.6 6.7 -2.5
v 5.6 6.8 -2.5
v 5.6 6.8 -2.6
v 5.6 6.7 -2.6
v 5.5 6.7 -2.6
v 5.5 6.8 -2.6
v 5.6 6.8 -2.5
v 5.6 6.7 -2.5
v 5.7 6.7 -2.5
v 5.7 6.8 -2.5
v 5.7 6.8 -2.6
v 5.7 6.7 -2.6
v 5.6 6.7 -2.6
v 5.6 6.8 -2.6
v 5.7 6.8 -2.5
v 5.7 6.7 -2.5
v 5.8 6.7 -2.5
v 5.8 6.8 -2.5
v 5.8 6.8 -2.6
v 5.8 6.7 -2.6
v 5.7 6.7 -2.6
v 5.7 6.8 -2.6
v 5.8 6.8 -2.5
v 5.8 6.7 -2.5
v 5.9 6.7 -2.5
v 5.9 6.8 -2.5
v 5.9 6.8 -2.6
v 5.9 6.7 -2.6
v 5.8 6.7 -2.6
v 5.8 6.8 -2.6
v 6 6.8 -2.5
v 6 6.7 -2.5
v 6 6.7 -2.6
v 6 6.8 -2.6
v 5.9 6.8 -2.6
v 5.9 6.8 -2.5
v 6 6.8 -2.5
v 6 6.8 -2.6
v 5.9 6.8 -2.5
v 5.9 6.7 -2.5
v 6 6.7 -2.5
v 6 6.8 -2.5
v 6 6.8 -2.6
v 6 6.7 -2.6
v 5.9 6.7 -2.6
v 5.9 6.8 -2.6
v 5.1 6.7 -2.6
v 5.1 6.6 -2.6
v 5.1 6.6 -2.5
v 5.1 6.7 -2.5
v 5.1 6.6 -2.5
v 5.1 6.6 -2.6
v 5.2 6.6 -2.6
v 5.2 6.6 -2.5
v 5.1 6.7 -2.5
v 5.1 6.6 -2.5
v 5.2 6.6 -2.5
v 5.2 6.7 -2.5
v 5.2 6.7 -2.6
v 5.2 6.6 -2.6
v 5.1 6.6 -2.6
v 5.1 6.7 -2.6
v 5.2 6.7 -2.5
v 5.2 6.6 -2.5
v 5.3 6.6 -2.5
v 5.3 6.7 -2.5
v 5.3 6.7 -2.6
v 5.3 6.6 -2.6
v 5.2 6.6 -2.6
v 5.2 6.7 -2.6
v 5.3 6.7 -2.5
v 5.3 6.6 -2.5
v 5.4 6.6 -2.5
v 5.4 6.7 -2.5
v 5.4 6.7 -2.6
v 5.4 6.6 -2.6
v 5.3 6.6 -2.6
v 5.3 6.7 -2.6
v 5.4 6.7 -2.5
v 5.4 6.6 -2.5
v 5.5 6.6 -2.5
v 5.5 6.7 -2.5
v 5.5 6.7 -2.6
v 5.5 6.6 -2.6
v 5.4 6.6 -2.6
v 5.4 6.7 -2.6
v 5.5 6.7 -2.5
v 5.5 6.6 -2.5
v 5.6 6.6 -2.5
v 5.6 6.7 -2.5
v 5.6 6.7 -2.6
v 5.6 6.6 -2.6
v 5.5 6.6 -2.6
v 5.5 6.7 -2.6
v 5.6 6.7 -2.5
v 5.6 6.6 -2.5
v 5.7 6.6 -2.5
v 5.7 6.7 -2.5
v 5.7 6.7 -2.6
v 5.7 6.6 -2.6
v 5.6 6.6 -2.6
v 5.6 6.7 -2.6
v 5.7 6.7 -2.5
v 5.7 6.6 -2.5
v 5.8 6.6 -2.5
v 5.8 6.7 -2.5
v 5.8 6.7 -2.6
v 5.8 6.6 -2.6
v 5.7 6.6 -2.6
v 5.7 6.7 -2.6
v 5.8 6.7 -2.5
v 5.8 6.6 -2.5
v 5.9 6.6 -2.5
v 5.9 6.7 -2.5
v 5.9 6.7 -2.6
v 5.9 6.6 -2.6
v 5.8 6.6 -2.6
v 5.8 6.7 -2.6
v 5.9 6.7 -2.5
v 5.9 6.6 -2.5
v 6 6.6 -2.5
v 6 6.7 -2.5
v 6 6.7 -2.6
v 6 6.6 -2.6
v 5.9 6.6 -2.6
v 5.9 6.7 -2.6
v 6.1 6.7 -2.5
v 6.1 6.6 -2.5
v 6.1 6.6 -2.6
v 6.1 6.7 -2.6
v 6 6.7 -2.6
v 6 6.7 -2.5
v 6.1 6.7 -2.5
v 6.1 6.7 -2.6
v 6 6.7 -2.5
v 6 6.6 -2.5
v 6.1 6.6 -2.5
v 6.1 6.7 -2.5
v 6.1 6.7 -2.6
v 6.1 6.6 -2.6
v 6 6.6 -2.6
v 6 6.7 -2.6
v 5.2 6.6 -2.6
v 5.2 6.5 -2.6
v 5.2 6.5 -2.5
v 5.2 6.6 -2.5
v 5.2 6.5 -2.5
v 5.2 6.5 -2.6
v 5.3 6.5 -2.6
v 5.3 6.5 -2.5
v 5.2 6.6 -2.5
v 5.2 6.5 -2.5
v 5.3 6.5 -2.5
v 5.3 6.6 -2.5
v 5.3 6.6 -2.6
v 5.3 6.5 -2.6
v 5.2 6.5 -2.6
v 5.2 6.6 -2.6
v 5.3 6.6 -2.5
v 5.3 6.5 -2.5
v 5.4 6.5 -2.5
v 5.4 6.6 -2.5
v 5.4 6.6 -2.6
v 5.4 6.5 -2.6
v 5.3 6.5 -2.6
v 5.3 6.6 -2.6
v 5.4 6.6 -2.5
v 5.4 6.5 -2.5
v 5.5 6.5 -2.5
v 5.5 6.6 -2.5
v 5.5 6.6 -2.6
v 5.5 6.5 -2.6
v 5.4 6.5 -2.6
v 5.4 6.6 -2.6
v 5.5 6.6 -2.5
v 5.5 6.5 -2.5
v 5.6 6.5 -2.5
v 5.6 6.6 -2.5
v 5.6 6.6 -2.6
v 5.6 6.5 -2.6
v 5.5 6.5 -2.6
v 5.5 6.6 -2.6
v 5.6 6.6 -2.5
v 5.6 6.5 -2.5
v 5.7 6.5 -2.5
v 5.7 6.6 -2.5
v 5.7 6.6 -2.6
v 5.7 6.5 -2.6
v 5.6 6.5 -2.6
v 5.6 6.6 -2.6
v 5.7 6.6 -2.5
v 5.7 6.5 -2.5
v 5.8 6.5 -2.5
v 5.8 6.6 -2.5
v 5.8 6.6 -2.6
v 5.8 6.5 -2.6
v 5.7 6.5 -2.6
v 5.7 6.6 -2.6
v 5.8 6.6 -2.5
v 5.8 6.5 -2.5
v 5.9 6.5 -2.5
v 5.9 6.6 -2.5
v 5.9 6.6 -2.6
v 5.9 6.5 -2.6
v 5.8 6.5 -2.6
v 5.8 6.6 -2.6
v 5.9 6.6 -2.5
v 5.9 6.5 -2.5
v 6 6.5 -2.5
v 6 6.6 -2.5
v 6 6.6 -2.6
v 6 6.5 -2.6
v 5.9 6.5 -2.6
v 5.9 6.6 -2.6
v 6.1 6.6 -2.5
v 6.1 6.5 -2.5
v 6.1 6.5 -2.6
v 6.1 6.6 -2.6
v 6 6.5 -2.5
v 6 6.5 -2.6
v 6.1 6.5 -2.6
v 6.1 6.5 -2.5
v 6 6.6 -2.5
v 6 6.5 -2.5
v 6.1 6.5 -2.5
v 6.1 6.6 -2.5
v 6.1 6.6 -2.6
v 6.1 6.5 -2.6
v 6 6.5 -2.6
v 6 6.6 -2.6
v 5.3 6.5 -2.6
v 5.3 6.4 -2.6
v 5.3 6.4 -2.5
v 5.3 6.5 -2.5
v 5.3 6.4 -2.5
v 5.3 6.4 -2.6
v 5.4 6.4 -2.6
v 5.4 6.4 -2.5
v 5.3 6.5 -2.5
v 5.3 6.4 -2.5
v 5.4 6.4 -2.5
v 5.4 6.5 -2.5
v 5.4 6.5 -2.6
v 5.4 6.4 -2.6
v 5.3 6.4 -2.6
v 5.3 6.5 -2.6
v 5.4 6.5 -2.5
v 5.4 6.4 -2.5
v 5.5 6.4 -2.5
v 5.5 6.5 -2.5
v 5.5 6.5 -2.6
v 5.5 6.4 -2.6
v 5.4 6.4 -2.6
v 5.4 6.5 -2.6
v 5.5 6.5 -2.5
v 5.5 6.4 -2.5
v 5.6 6.4 -2.5
v 5.6 6.5 -2.5
v 5.6 6.5 -2.6
v 5.6 6.4 -2.6
v 5.5 6.4 -2.6
v 5.5 6.5 -2.6
v 5.6 6.5 -2.5
v 5.6 6.4 -2.5
v 5.7 6.4 -2.5
v 5.7 6.5 -2.5
v 5.7 6.5 -2.6
v 5.7 6.4 -2.6
v 5.6 6.4 -2.6
v 5.6 6.5 -2.6
v 5.7 6.5 -2.5
v 5.7 6.4 -2.5
v 5.8 6.4 -2.5
v 5.8 6.5 -2.5
v 5.8 6.5 -2.6
v 5.8 6.4 -2.6
v 5.7 6.4 -2.6
v 5.7 6.5 -2.6
v 5.8 6.5 -2.5
v 5.8 6.4 -2.5
v 5.9 6.4 -2.5
v 5.9 6.5 -2.5
v 5.9 6.5 -2.6
v 5.9 6.4 -2.6
v 5.8 6.4 -2.6
v 5.8 6.5 -2.6
v 6 6.5 -2.5
v 6 6.4 -2.5
v 6 6.4 -2.6
v 6 6.5 -2.6
v 5.9 6.4 -2.5
v 5.9 6.4 -2.6
v 6 6.4 -2.6
v 6 6.4 -2.5
v 5.9 6.5 -2.5
v 5.9 6.4 -2.5
v 6 6.4 -2.5
v 6 6.5 -2.5
v 6 6.5 -2.6
v 6 6.4 -2.6
v 5.9 6.4 -2.6
v 5.9 6.5 -2.6
v 5.4 6.4 -2.6
v 5.4 6.3 -2.6
v 5.4 6.3 -2.5
v 5.4 6.4 -2.5
v 5.4 6.3 -2.5
v 5.4 6.3 -2.6
v 5.5 6.3 -2.6
v 5.5 6.3 -2.5
v 5.4 6.4 -2.5
v 5.4 6.3 -2.5
v 5.5 6.3 -2.5
v 5.5 6.4 -2.5
v 5.5 6.4 -2.6
v 5.5 6.3 -2.6
v 5.4 6.3 -2.6
v 5.4 6.4 -2.6
v 5.5 6.4 -2.5
v 5.5 6.3 -2.5
v 5.6 6.3 -2.5
v 5.6 6.4 -2.5
v 5.6 6.4 -2.6
v 5.6 6.3 -2.6
v 5.5 6.3 -2.6
v 5.5 6.4 -2.6
v 5.6 6.4 -2.5
v 5.6 6.3 -2.5
v 5.7 6.3 -2.5
v 5.7 6.4 -2.5
v 5.7 6.4 -2.6
v 5.7 6.3 -2.6
v 5.6 6.3 -2.6
v 5.6 6.4 -2.6
v 5.7 6.4 -2.5
v 5.7 6.3 -2.5
v 5.8 6.3 -2.5
v 5.8 6.4 -2.5
v 5.8 6.4 -2.6
v 5.8 6.3 -2.6
v 5.7 6.3 -2.6
v 5.7 6.4 -2.6
v 5.9 6.4 -2.5
v 5.9 6.3 -2.5
v 5.9 6.3 -2.6
v 5.9 6.4 -2.6
v 5.8 6.3 -2.5
v 5.8 6.3 -2.6
v 5.9 6.3 -2.6
v 5.9 6.3 -2.5
v 5.8 6.4 -2.5
v 5.8 6.3 -2.5
v 5.9 6.3 -2.5
v 5.9 6.4 -2.5
v 5.9 6.4 -2.6
v 5.9 6.3 -2.6
v 5.8 6.3 -2.6
v 5.8 6.4 -2.6
v 5.5 6.3 -2.6
v 5.5 6.2 -2.6
v 5.5 6.2 -2.5
v 5.5 6.3 -2.5
v 5.5 6.2 -2.5
v 5.5 6.2 -2.6
v 5.6 6.2 -2.6
v 5.6 6.2 -2.5
v 5.5 6.3 -2.5
v 5.5 6.2 -2.5
v 5.6 6.2 -2.5
v 5.6 6.3 -2.5
v 5.6 6.3 -2.6
v 5.6 6.2 -2.6
v 5.5 6.2 -2.6
v 5.5 6.3 -2.6
v 5.6 6.2 -2.5
v 5.6 6.2 -2.6
v 5.7 6.2 -2.6
v 5.7 6.2 -2.5
v 5.6 6.3 -2.5
v 5.6 6.2 -2.5
v 5.7 6.2 -2.5
v 5.7 6.3 -2.5
v 5.7 6.3 -2.6
v 5.7 6.2 -2.6
v 5.6 6.2 -2.6
v 5.6 6.3 -2.6
v 5.8 6.3 -2.5
v 5.8 6.2 -2.5
v 5.8 6.2 -2.6
v 5.8 6.3 -2.6
v 5.7 6.2 -2.5
v 5.7 6.2 -2.6
v 5.8 6.2 -2.6
v 5.8 6.2 -2.5
v 5.7 6.3 -2.5
v 5.7 6.2 -2.5
v 5.8 6.2 -2.5
v 5.8 6.3 -2.5
v 5.8 6.3 -2.6
v 5.8 6.2 -2.6
v 5.7 6.2 -2.6
v 5.7 6.3 -2.6

# faces
f 1/3/1 2/3/1 3/3/1 4/3/1
f 5/3/3 6/3/3 7/3/3 8/3/3
f 9/3/5 10/3/5 11/3/5 12/3/5
f 13/3/6 14/3/6 15/3/6 16/3/6
f 17/3/3 18/3/3 19/3/3 20/3/3
f 21/3/5 22/3/5 23/3/5 24/3/5
f 25/3/6 26/3/6 27/3/6 28/3/6
f 29/3/3 30/3/3 31/3/3 32/3/3
f 33/3/5 34/3/5 35/3/5 36/3/5
f 37/3/6 38/3/6 39/3/6 40/3/6
f 41/3/3 42/3/3 43/3/3 44/3/3
f 45/3/5 46/3/5 47/3/5 48/3/5
f 49/3/6 50/3/6 51/3/6 52/3/6
f 53/3/2 54/3/2 55/3/2 56/3/2
f 57/3/3 58/3/3 59/3/3 60/3/3
f 61/3/5 62/3/5 63/3/5 64/3/5
f 65/3/6 66/3/6 67/3/6 68/3/6
f 69/3/1 70/3/1 71/3/1 72/3/1
f 73/3/5 74/3/5 75/3/5 76/3/5
f 77/3/6 78/3/6 79/3/6 80/3/6
f 81/1/5 82/1/5 83/1/5 84/1/5
f 85/1/6 86/1/6 87/1/6 88/1/6
f 89/1/5 90/1/5 91/1/5 92/1/5
f 93/1/6 94/1/6 95/1/6 96/1/6
f 97/1/5 98/1/5 99/1/5 100/1/5
f 101/1/6 102/1/6 103/1/6 104/1/6
f 105/1/5 106/1/5 107/1/5 108/1/5
f 109/1/6 110/1/6 111/1/6 112/1/6
f 113/3/3 114/3/3 115/3/3 116/3/3
f 117/3/5 118/3/5 119/3/5 120/3/5
f 121/3/6 122/3/6 123/3/6 124/3/6
f 125/3/3 126/3/3 127/3/3 128/3/3
f 129/3/5 130/3/5 131/3/5 132/3/5
f 133/3/6 134/3/6 135/3/6 136/3/6
f 137/3/3 138/3/3 139/3/3 140/3/3
f 141/3/5 142/3/5 143/3/5 144/3/5
f 145/3/6 146/3/6 147/3/6 148/3/6
f 149/3/3 150/3/3 151/3/3 152/3/3
f 153/3/5 154/3/5 155/3/5 156/3/5
f 157/3/6 158/3/6 159/3/6 160/3/6
f 161/3/2 162/3/2 163/3/2 164/3/2
f 165/3/3 166/3/3 167/3/3 168/3/3
f 169/3/5 170/3/5 171/3/5 172/3/5
f 173/3/6 174/3/6 175/3/6 176/3/6
f 177/3/1 178/3/1 179/3/1 180/3/1
f 181/3/3 182/3/3 183/3/3 184/3/3
f 185/3/5 186/3/5 187/3/5 188/3/5
f 189/3/6 190/3/6 191/3/6 192/3/6
f 193/1/5 194/1/5 195/1/5 196/1/5
f 197/1/6 198/1/6 199/1/6 200/1/6
f 201/2/5 202/2/5 203/2/5 204/2/5
f 205/2/6 206/2/6 207/2/6 208/2/6
f 209/2/5 210/2/5 211/2/5 212/2/5
f 213/2/6 214/2/6 215/2/6 216/2/6
f 217/2/5 218/2/5 219/2/5 220/2/5
f 221/2/6 222/2/6 223/2/6 224/2/6
f 225/2/5 226/2/5 227/2/5 228/2/5
f 229/2/6 230/2/6 231/2/6 232/2/6
f 233/1/5 234/1/5 235/1/5 236/1/5
f 237/1/6 238/1/6 239/1/6 240/1/6
f 241/1/5 242/1/5 243/1/5 244/1/5
f 245/1/6 246/1/6 247/1/6 248/1/6
f 249/1/5 250/1/5 251/1/5 252/1/5
f 253/1/6 254/1/6 255/1/6 256/1/6
f 257/1/5 258/1/5 259/1/5 260/1/5
f 261/1/6 262/1/6 263/1/6 264/1/6
f 265/1/5 266/1/5 267/1/5 268/1/5
f 269/1/6 270/1/6 271/1/6 272/1/6
f 273/3/3 274/3/3 275/3/3 276/3/3
f 277/3/5 278/3/5 279/3/5 280/3/5
f 281/3/6 282/3/6 283/3/6 284/3/6
f 285/3/2 286/3/2 287/3/2 288/3/2
f 289/3/3 290/3/3 291/3/3 292/3/3
f 293/3/5 294/3/5 295/3/5 296/3/5
f 297/3/6 298/3/6 299/3/6 300/3/6
f 301/3/1 302/3/1 303/3/1 304/3/1
f 305/3/4 306/3/4 307/3/4 308/3/4
f 309/3/5 310/3/5 311/3/5 312/3/5
f 313/3/6 314/3/6 315/3/6 316/3/6
f 317/1/5 318/1/5 319/1/5 320/1/5
f 321/1/6 322/1/6 323/1/6 324/1/6
f 325/2/5 326/2/5 327/2/5 328/2/5
f 329/2/6 330/2/6 331/2/6 332/2/6
f 333/4/5 334/4/5 335/4/5 336/4/5
f 337/4/6 338/4/6 339/4/6 340/4/6
f 341/4/5 342/4/5 343/4/5 344/4/5
f 345/4/6 346/4/6 347/4/6 348/4/6
f 349/4/5 350/4/5 351/4/5 352/4/5
f 353/4/6 354/4/6 355/4/6 356/4/6
f 357/2/5 358/2/5 359/2/5 360/2/5
f 361/2/6 362/2/6 363/2/6 364/2/6
f 365/2/5 366/2/5 367/2/5 368/2/5
f 369/2/6 370/2/6 371/2/6 372/2/6
f 373/2/5 374/2/5 375/2/5 376/2/5
f 377/2/6 378/2/6 379/2/6 380/2/6
f 381/2/5 382/2/5 383/2/5 384/2/5
f 385/2/6 386/2/6 387/2/6 388/2/6
f 389/2/5 390/2/5 391/2/5 392/2/5
f 393/2/6 394/2/6 395/2/6 396/2/6
f 397/1/5 398/1/5 399/1/5 400/1/5
f 401/1/6 402/1/6 403/1/6 404/1/6
f 405/1/5 406/1/5 407/1/5 408/1/5
f 409/1/6 410/1/6 411/1/6 412/1/6
f 413/3/3 414/3/3 415/3/3 416/3/3
f 417/3/5 418/3/5 419/3/5 420/3/5
f 421/3/6 422/3/6 423/3/6 424/3/6
f 425/3/2 426/3/2 427/3/2 428/3/2
f 429/3/3 430/3/3 431/3/3 432/3/3
f 433/3/5 434/3/5 435/3/5 436/3/5
f 437/3/6 438/3/6 439/3/6 440/3/6
f 441/3/1 442/3/1 443/3/1 444/3/1
f 445/3/5 446/3/5 447/3/5 448/3/5
f 449/3/6 450/3/6 451/3/6 452/3/6
f 453/1/5 454/1/5 455/1/5 456/1/5
f 457/1/6 458/1/6 459/1/6 460/1/6
f 461/2/5 462/2/5 463/2/5 464/2/5
f 465/2/6 466/2/6 467/2/6 468/2/6
f 469/4/5 470/4/5 471/4/5 472/4/5
f 473/4/6 474/4/6 475/4/6 476/4/6
f 477/4/5 478/4/5 479/4/5 480/4/5
f 481/4/6 482/4/6 483/4/6 484/4/6
f 485/4/5 486/4/5 487/4/5 488/4/5
f 489/4/6 490/4/6 491/4/6 492/4/6
f 493/4/5 494/4/5 495/4/5 496/4/5
f 497/4/6 498/4/6 499/4/6 500/4/6
f 501/4/5 502/4/5 503/4/5 504/4/5
f 505/4/6 506/4/6 507/4/6 508/4/6
f 509/4/5 510/4/5 511/4/5 512/4/5
f 513/4/6 514/4/6 515/4/6 516/4/6
f 517/4/5 518/4/5 519/4/5 520/4/5
f 521/4/6 522/4/6 523/4/6 524/4/6
f 525/2/5 526/2/5 527/2/5 528/2/5
f 529/2/6 530/2/6 531/2/6 532/2/6
f 533/2/5 534/2/5 535/2/5 536/2/5
f 537/2/6 538/2/6 539/2/6 540/2/6
f 541/1/5 542/1/5 543/1/5 544/1/5
f 545/1/6 546/1/6 547/1/6 548/1/6
f 549/1/5 550/1/5 551/1/5 552/1/5
f 553/1/6 554/1/6 555/1/6 556/1/6
f 557/3/2 558/3/2 559/3/2 560/3/2
f 561/3/3 562/3/3 563/3/3 564/3/3
f 565/3/5 566/3/5 567/3/5 568/3/5
f 569/3/6 570/3/6 571/3/6 572/3/6
f 573/3/1 574/3/1 575/3/1 576/3/1
f 577/3/5 578/3/5 579/3/5 580/3/5
f 581/3/6 582/3/6 583/3/6 584/3/6
f 585/1/5 586/1/5 587/1/5 588/1/5
f 589/1/6 590/1/6 591/1/6 592/1/6
f 593/2/5 594/2/5 595/2/5 596/2/5
f 597/2/6 598/2/6 599/2/6 600/2/6
f 601/4/5 602/4/5 603/4/5 604/4/5
f 605/4/6 606/4/6 607/4/6 608/4/6
f 609/4/5 610/4/5 611/4/5 612/4/5
f 613/4/6 614/4/6 615/4/6 616/4/6
f 617/4/5 618/4/5 619/4/5 620/4/5
f 621/4/6 622/4/6 623/4/6 624/4/6
f 625/4/5 626/4/5 627/4/5 628/4/5
f 629/4/6 630/4/6 631/4/6 632/4/6
f 633/4/5 634/4/5 635/4/5 636/4/5
f 637/4/6 638/4/6 639/4/6 640/4/6
f 641/4/5 642/4/5 643/4/5 644/4/5
f 645/4/6 646/4/6 647/4/6 648/4/6
f 649/4/5 650/4/5 651/4/5 652/4/5
f 653/4/6 654/4/6 655/4/6 656/4/6
f 657/4/5 658/4/5 659/4/5 660/4/5
f 661/4/6 662/4/6 663/4/6 664/4/6
f 665/4/5 666/4/5 667/4/5 668/4/5
f 669/4/6 670/4/6 671/4/6 672/4/6
f 673/2/5 674/2/5 675/2/5 676/2/5
f 677/2/6 678/2/6 679/2/6 680/2/6
f 681/2/5 682/2/5 683/2/5 684/2/5
f 685/2/6 686/2/6 687/2/6 688/2/6
f 689/1/5 690/1/5 691/1/5 692/1/5
f 693/1/6 694/1/6 695/1/6 696/1/6
f 697/3/2 698/3/2 699/3/2 700/3/2
f 701/3/3 702/3/3 703/3/3 704/3/3
f 705/3/5 706/3/5 707/3/5 708/3/5
f 709/3/6 710/3/6 711/3/6 712/3/6
f 713/3/1 714/3/1 715/3/1 716/3/1
f 717/3/5 718/3/5 719/3/5 720/3/5
f 721/3/6 722/3/6 723/3/6 724/3/6
f 725/1/5 726/1/5 727/1/5 728/1/5
f 729/1/6 730/1/6 731/1/6 732/1/6
f 733/2/5 734/2/5 735/2/5 736/2/5
f 737/2/6 738/2/6 739/2/6 740/2/6
f 741/4/5 742/4/5 743/4/5 744/4/5
f 745/4/6 746/4/6 747/4/6 748/4/6
f 749/4/5 750/4/5 751/4/5 752/4/5
f 753/4/6 754/4/6 755/4/6 756/4/6
f 757/4/5 758/4/5 759/4/5 760/4/5
f 761/4/6 762/4/6 763/4/6 764/4/6
f 765/4/5 766/4/5 767/4/5 768/4/5
f 769/4/6 770/4/6 771/4/6 772/4/6
f 773/4/5 774/4/5 775/4/5 776/4/5
f 777/4/6 778/4/6 779/4/6 780/4/6
f 781/4/5 782/4/5 783/4/5 784/4/5
f 785/4/6 786/4/6 787/4/6 788/4/6
f 789/4/5 790/4/5 791/4/5 792/4/5
f 793/4/6 794/4/6 795/4/6 796/4/6
f 797/4/5 798/4/5 799/4/5 800/4/5
f 801/4/6 802/4/6 803/4/6 804/4/6
f 805/4/5 806/4/5 807/4/5 808/4/5
f 809/4/6 810/4/6 811/4/6 812/4/6
f 813/4/5 814/4/5 815/4/5 816/4/5
f 817/4/6 818/4/6 819/4/6 820/4/6
f 821/2/5 822/2/5 823/2/5 824/2/5
f 825/2/6 826/2/6 827/2/6 828/2/6
f 829/1/5 830/1/5 831/1/5 832/1/5
f 833/1/6 834/1/6 835/1/6 836/1/6
f 837/3/2 838/3/2 839/3/2 840/3/2
f 841/3/5 842/3/5 843/3/5 844/3/5
f 845/3/6 846/3/6 847/3/6 848/3/6
f 849/3/1 850/3/1 851/3/1 852/3/1
f 853/3/5 854/3/5 855/3/5 856/3/5
f 857/3/6 858/3/6 859/3/6 860/3/6
f 861/1/5 862/1/5 863/1/5 864/1/5
f 865/1/6 866/1/6 867/1/6 868/1/6
f 869/2/5 870/2/5 871/2/5 872/2/5
f 873/2/6 874/2/6 875/2/6 876/2/6
f 877/4/5 878/4/5 879/4/5 880/4/5
f 881/4/6 882/4/6 883/4/6 884/4/6
f 885/4/5 886/4/5 887/4/5 888/4/5
f 889/4/6 890/4/6 891/4/6 892/4/6
f 893/4/5 894/4/5 895/4/5 896/4/5
f 897/4/6 898/4/6 899/4/6 900/4/6
f 901/4/5 902/4/5 903/4/5 904/4/5
f 905/4/6 906/4/6 907/4/6 908/4/6
f 909/4/5 910/4/5 911/4/5 912/4/5
f 913/4/6 914/4/6 915/4/6 916/4/6
f 917/4/5 918/4/5 919/4/5 920/4/5
f 921/4/6 922/4/6 923/4/6 924/4/6
f 925/4/5 926/4/5 927/4/5 928/4/5
f 929/4/6 930/4/6 931/4/6 932/4/6
f 933/4/5 934/4/5 935/4/5 936/4/5
f 937/4/6 938/4/6 939/4/6 940/4/6
f 941/4/5 942/4/5 943/4/5 944/4/5
f 945/4/6 946/4/6 947/4/6 948/4/6
f 949/4/5 950/4/5 951/4/5 952/4/5
f 953/4/6 954/4/6 955/4/6 956/4/6
f 957/4/5 958/4/5 959/4/5 960/4/5
f 961/4/6 962/4/6 963/4/6 964/4/6
f 965/2/5 966/2/5 967/2/5 968/2/5
f 969/2/6 970/2/6 971/2/6 972/2/6
f 973/1/5 974/1/5 975/1/5 976/1/5
f 977/1/6 978/1/6 979/1/6 980/1/6
f 981/3/2 982/3/2 983/3/2 984/3/2
f 985/3/3 986/3/3 987/3/3 988/3/3
f 989/3/5 990/3/5 991/3/5 992/3/5
f 993/3/6 994/3/6 995/3/6 996/3/6
f 997/3/1 998/3/1 999/3/1 1000/3/1
f 1001/3/4 1002/3/4 1003/3/4 1004/3/4
f 1005/3/5 1006/3/5 1007/3/5 1008/3/5
f 1009/3/6 1010/3/6 1011/3/6 1012/3/6
f 1013/1/5 1014/1/5 1015/1/5 1016/1/5
f 1017/1/6 1018/1/6 1019/1/6 1020/1/6
f 1021/2/5 1022/2/5 1023/2/5 1024/2/5
f 1025/2/6 1026/2/6 1027/2/6 1028/2/6
f 1029/4/5 1030/4/5 1031/4/5 1032/4/5
f 1033/4/6 1034/4/6 1035/4/6 1036/4/6
f 1037/4/5 1038/4/5 1039/4/5 1040/4/5
f 1041/4/6 1042/4/6 1043/4/6 1044/4/6
f 1045/4/5 1046/4/5 1047/4/5 1048/4/5
f 1049/4/6 1050/4/6 1051/4/6 1052/4/6
f 1053/4/5 1054/4/5 1055/4/5 1056/4/5
f 1057/4/6 1058/4/6 1059/4/6 1060/4/6
f 1061/4/5 1062/4/5 1063/4/5 1064/4/5
f 1065/4/6 1066/4/6 1067/4/6 1068/4/6
f 1069/4/5 1070/4/5 1071/4/5 1072/4/5
f 1073/4/6 1074/4/6 1075/4/6 1076/4/6
f 1077/4/5 1078/4/5 1079/4/5 1080/4/5
f 1081/4/6 1082/4/6 1083/4/6 1084/4/6
f 1085/4/5 1086/4/5 1087/4/5 1088/4/5
f 1089/4/6 1090/4/6 1091/4/6 1092/4/6
f 1093/4/5 1094/4/5 1095/4/5 1096/4/5
f 1097/4/6 1098/4/6 1099/4/6 1100/4/6
f 1101/4/5 1102/4/5 1103/4/5 1104/4/5
f 1105/4/6 1106/4/6 1107/4/6 1108/4/6
f 1109/4/5 1110/4/5 1111/4/5 1112/4/5
f 1113/4/6 1114/4/6 1115/4/6 1116/4/6
f 1117/2/5 1118/2/5 1119/2/5 1120/2/5
f 1121/2/6 1122/2/6 1123/2/6 1124/2/6
f 1125/1/5 1126/1/5 1127/1/5 1128/1/5
f 1129/1/6 1130/1/6 1131/1/6 1132/1/6
f 1133/3/2 1134/3/2 1135/3/2 1136/3/2
f 1137/3/5 1138/3/5 1139/3/5 1140/3/5
f 1141/3/6 1142/3/6 1143/3/6 1144/3/6
f 1145/3/1 1146/3/1 1147/3/1 1148/3/1
f 1149/3/5 1150/3/5 1151/3/5 1152/3/5
f 1153/3/6 1154/3/6 1155/3/6 1156/3/6
f 1157/1/5 1158/1/5 1159/1/5 1160/1/5
f 1161/1/6 1162/1/6 1163/1/6 1164/1/6
f 1165/2/5 1166/2/5 1167/2/5 1168/2/5
f 1169/2/6 1170/2/6 1171/2/6 1172/2/6
f 1173/4/5 1174/4/5 1175/4/5 1176/4/5
f 1177/4/6 1178/4/6 1179/4/6 1180/4/6
f 1181/4/5 1182/4/5 1183/4/5 1184/4/5
f 1185/4/6 1186/4/6 1187/4/6 1188/4/6
f 1189/4/5 1190/4/5 1191/4/5 1192/4/5
f 1193/4/6 1194/4/6 1195/4/6 1196/4/6
f 1197/4/5 1198/4/5 1199/4/5 1200/4/5
f 1201/4/6 1202/4/6 1203/4/6 1204/4/6
f 1205/4/5 1206/4/5 1207/4/5 1208/4/5
f 1209/4/6 1210/4/6 1211/4/6 1212/4/6
f 1213/4/5 1214/4/5 1215/4/5 1216/4/5
f 1217/4/6 1218/4/6 1219/4/6 1220/4/6
f 1221/4/5 1222/4/5 1223/4/5 1224/4/5
f 1225/4/6 1226/4/6 1227/4/6 1228/4/6
f 1229/4/5 1230/4/5 1231/4/5 1232/4/5
f 1233/4/6 1234/4/6 1235/4/6 1236/4/6
f 1237/4/5 1238/4/5 1239/4/5 1240/4/5
f 1241/4/6 1242/4/6 1243/4/6 1244/4/6
f 1245/4/5 1246/4/5 1247/4/5 1248/4/5
f 1249/4/6 1250/4/6 1251/4/6 1252/4/6
f 1253/4/5 1254/4/5 1255/4/5 1256/4/5
f 1257/4/6 1258/4/6 1259/4/6 1260/4/6
f 1261/2/5 1262/2/5 1263/2/5 1264/2/5
f 1265/2/6 1266/2/6 1267/2/6 1268/2/6
f 1269/1/5 1270/1/5 1271/1/5 1272/1/5
f 1273/1/6 1274/1/6 1275/1/6 1276/1/6
f 1277/3/2 1278/3/2 1279/3/2 1280/3/2
f 1281/3/3 1282/3/3 1283/3/3 1284/3/3
f 1285/3/5 1286/3/5 1287/3/5 1288/3/5
f 1289/3/6 1290/3/6 1291/3/6 1292/3/6
f 1293/3/1 1294/3/1 1295/3/1 1296/3/1
f 1297/3/4 1298/3/4 1299/3/4 1300/3/4
f 1301/3/5 1302/3/5 1303/3/5 1304/3/5
f 1305/3/6 1306/3/6 1307/3/6 1308/3/6
f 1309/1/5 1310/1/5 1311/1/5 1312/1/5
f 1313/1/6 1314/1/6 1315/1/6 1316/1/6
f 1317/2/5 1318/2/5 1319/2/5 1320/2/5
f 1321/2/6 1322/2/6 1323/2/6 1324/2/6
f 1325/4/5 1326/4/5 1327/4/5 1328/4/5
f 1329/4/6 1330/4/6 1331/4/6 1332/4/6
f 1333/4/5 1334/4/5 1335/4/5 1336/4/5
f 1337/4/6 1338/4/6 1339/4/6 1340/4/6
f 1341/4/5 1342/4/5 1343/4/5 1344/4/5
f 1345/4/6 1346/4/6 1347/4/6 1348/4/6
f 1349/4/5 1350/4/5 1351/4/5 1352/4/5
f 1353/4/6 1354/4/6 1355/4/6 1356/4/6
f 1357/4/5 1358/4/5 1359/4/5 1360/4/5
f 1361/4/6 1362/4/6 1363/4/6 1364/4/6
f 1365/4/5 1366/4/5 1367/4/5 1368/4/5
f 1369/4/6 1370/4/6 1371/4/6 1372/4/6
f 1373/4/5 1374/4/5 1375/4/5 1376/4/5
f 1377/4/6 1378/4/6 1379/4/6 1380/4/6
f 1381/4/5 1382/4/5 1383/4/5 1384/4/5
f 1385/4/6 1386/4/6 1387/4/6 1388/4/6
f 1389/4/5 1390/4/5 1391/4/5 1392/4/5
f 1393/4/6 1394/4/6 1395/4/6 1396/4/6
f 1397/4/5 1398/4/5 1399/4/5 1400/4/5
f 1401/4/6 1402/4/6 1403/4/6 1404/4/6
f 1405/4/5 1406/4/5 1407/4/5 1408/4/5
f 1409/4/6 1410/4/6 1411/4/6 1412/4/6
f 1413/2/5 1414/2/5 1415/2/5 1416/2/5
f 1417/2/6 1418/2/6 1419/2/6 1420/2/6
f 1421/1/5 1422/1/5 1423/1/5 1424/1/5
f 1425/1/6 1426/1/6 1427/1/6 1428/1/6
f 1429/3/2 1430/3/2 1431/3/2 1432/3/2
f 1433/3/5 1434/3/5 1435/3/5 1436/3/5
f 1437/3/6 1438/3/6 1439/3/6 1440/3/6
f 1441/3/1 1442/3/1 1443/3/1 1444/3/1
f 1445/3/5 1446/3/5 1447/3/5 1448/3/5
f 1449/3/6 1450/3/6 1451/3/6 1452/3/6
f 1453/1/5 1454/1/5 1455/1/5 1456/1/5
f 1457/1/6 1458/1/6 1459/1/6 1460/1/6
f 1461/2/5 1462/2/5 1463/2/5 1464/2/5
f 1465/2/6 1466/2/6 1467/2/6 1468/2/6
f 1469/2/5 1470/2/5 1471/2/5 1472/2/5
f 1473/2/6 1474/2/6 1475/2/6 1476/2/6
f 1477/4/5 1478/4/5 1479/4/5 1480/4/5
f 1481/4/6 1482/4/6 1483/4/6 1484/4/6
f 1485/4/5 1486/4/5 1487/4/5 1488/4/5
f 1489/4/6 1490/4/6 1491/4/6 1492/4/6
f 1493/4/5 1494/4/5 1495/4/5 1496/4/5
f 1497/4/6 1498/4/6 1499/4/6 1500/4/6
f 1501/4/5 1502/4/5 1503/4/5 1504/4/5
f 1505/4/6 1506/4/6 1507/4/6 1508/4/6
f 1509/4/5 1510/4/5 1511/4/5 1512/4/5
f 1513/4/6 1514/4/6 1515/4/6 1516/4/6
f 1517/4/5 1518/4/5 1519/4/5 1520/4/5
f 1521/4/6 1522/4/6 1523/4/6 1524/4/6
f 1525/4/5 1526/4/5 1527/4/5 1528/4/5
f 1529/4/6 1530/4/6 1531/4/6 1532/4/6
f 1533/4/5 1534/4/5 1535/4/5 1536/4/5
f 1537/4/6 1538/4/6 1539/4/6 1540/4/6
f 1541/4/5 1542/4/5 1543/4/5 1544/4/5
f 1545/4/6 1546/4/6 1547/4/6 1548/4/6
f 1549/4/5 1550/4/5 1551/4/5 1552/4/5
f 1553/4/6 1554/4/6 1555/4/6 1556/4/6
f 1557/2/5 1558/2/5 1559/2/5 1560/2/5
f 1561/2/6 1562/2/6 1563/2/6 1564/2/6
f 1565/1/5 1566/1/5 1567/1/5 1568/1/5
f 1569/1/6 1570/1/6 1571/1/6 1572/1/6
f 1573/3/2 1574/3/2 1575/3/2 1576/3/2
f 1577/3/3 1578/3/3 1579/3/3 1580/3/3
f 1581/3/5 1582/3/5 1583/3/5 1584/3/5
f 1585/3/6 1586/3/6 1587/3/6 1588/3/6
f 1589/3/1 1590/3/1 1591/3/1 1592/3/1
f 1593/3/4 1594/3/4 1595/3/4 1596/3/4
f 1597/3/5 1598/3/5 1599/3/5 1600/3/5
f 1601/3/6 1602/3/6 1603/3/6 1604/3/6
f 1605/3/4 1606/3/4 1607/3/4 1608/3/4
f 1609/3/5 1610/3/5 1611/3/5 1612/3/5
f 1613/3/6 1614/3/6 1615/3/6 1616/3/6
f 1617/1/5 1618/1/5 1619/1/5 1620/1/5
f 1621/1/6 1622/1/6 1623/1/6 1624/1/6
f 1625/1/5 1626/1/5 1627/1/5 1628/1/5
f 1629/1/6 1630/1/6 1631/1/6 1632/1/6
f 1633/2/5 1634/2/5 1635/2/5 1636/2/5
f 1637/2/6 1638/2/6 1639/2/6 1640/2/6
f 1641/2/5 1642/2/5 1643/2/5 1644/2/5
f 1645/2/6 1646/2/6 1647/2/6 1648/2/6
f 1649/4/5 1650/4/5 1651/4/5 1652/4/5
f 1653/4/6 1654/4/6 1655/4/6 1656/4/6
f 1657/4/5 1658/4/5 1659/4/5 1660/4/5
f 1661/4/6 1662/4/6 1663/4/6 1664/4/6
f 1665/4/5 1666/4/5 1667/4/5 1668/4/5
f 1669/4/6 1670/4/6 1671/4/6 1672/4/6
f 1673/4/5 1674/4/5 1675/4/5 1676/4/5
f 1677/4/6 1678/4/6 1679/4/6 1680/4/6
f 1681/4/5 1682/4/5 1683/4/5 1684/4/5
f 1685/4/6 1686/4/6 1687/4/6 1688/4/6
f 1689/4/5 1690/4/5 1691/4/5 1692/4/5
f 1693/4/6 1694/4/6 1695/4/6 1696/4/6
f 1697/4/5 1698/4/5 1699/4/5 1700/4/5
f 1701/4/6 1702/4/6 1703/4/6 1704/4/6
f 1705/4/5 1706/4/5 1707/4/5 1708/4/5
f 1709/4/6 1710/4/6 1711/4/6 1712/4/6
f 1713/4/5 1714/4/5 1715/4/5 1716/4/5
f 1717/4/6 1718/4/6 1719/4/6 1720/4/6
f 1721/2/5 1722/2/5 1723/2/5 1724/2/5
f 1725/2/6 1726/2/6 1727/2/6 1728/2/6
f 1729/1/5 1730/1/5 1731/1/5 1732/1/5
f 1733/1/6 1734/1/6 1735/1/6 1736/1/6
f 1737/3/3 1738/3/3 1739/3/3 1740/3/3
f 1741/3/5 1742/3/5 1743/3/5 1744/3/5
f 1745/3/6 1746/3/6 1747/3/6 1748/3/6
f 1749/3/2 1750/3/2 1751/3/2 1752/3/2
f 1753/3/3 1754/3/3 1755/3/3 1756/3/3
f 1757/3/5 1758/3/5 1759/3/5 1760/3/5
f 1761/3/6 1762/3/6 1763/3/6 1764/3/6
f 1765/3/1 1766/3/1 1767/3/1 1768/3/1
f 1769/3/4 1770/3/4 1771/3/4 1772/3/4
f 1773/3/5 1774/3/5 1775/3/5 1776/3/5
f 1777/3/6 1778/3/6 1779/3/6 1780/3/6
f 1781/3/4 1782/3/4 1783/3/4 1784/3/4
f 1785/3/5 1786/3/5 1787/3/5 1788/3/5
f 1789/3/6 1790/3/6 1791/3/6 1792/3/6
f 1793/1/5 1794/1/5 1795/1/5 1796/1/5
f 1797/1/6 1798/1/6 1799/1/6 1800/1/6
f 1801/1/5 1802/1/5 1803/1/5 1804/1/5
f 1805/1/6 1806/1/6 1807/1/6 1808/1/6
f 1809/2/5 1810/2/5 1811/2/5 1812/2/5
f 1813/2/6 1814/2/6 1815/2/6 1816/2/6
f 1817/2/5 1818/2/5 1819/2/5 1820/2/5
f 1821/2/6 1822/2/6 1823/2/6 1824/2/6
f 1825/2/5 1826/2/5 1827/2/5 1828/2/5
f 1829/2/6 1830/2/6 1831/2/6 1832/2/6
f 1833/2/5 1834/2/5 1835/2/5 1836/2/5
f 1837/2/6 1838/2/6 1839/2/6 1840/2/6
f 1841/2/5 1842/2/5 1843/2/5 1844/2/5
f 1845/2/6 1846/2/6 1847/2/6 1848/2/6
f 1849/2/5 1850/2/5 1851/2/5 1852/2/5
f 1853/2/6 1854/2/6 1855/2/6 1856/2/6
f 1857/2/5 1858/2/5 1859/2/5 1860/2/5
f 1861/2/6 1862/2/6 1863/2/6 1864/2/6
f 1865/2/5 1866/2/5 1867/2/5 1868/2/5
f 1869/2/6 1870/2/6 1871/2/6 1872/2/6
f 1873/2/5 1874/2/5 1875/2/5 1876/2/5
f 1877/2/6 1878/2/6 1879/2/6 1880/2/6
f 1881/2/5 1882/2/5 1883/2/5 1884/2/5
f 1885/2/6 1886/2/6 1887/2/6 1888/2/6
f 1889/2/5 1890/2/5 1891/2/5 1892/2/5
f 1893/2/6 1894/2/6 1895/2/6 1896/2/6
f 1897/1/5 1898/1/5 1899/1/5 1900/1/5
f 1901/1/6 1902/1/6 1903/1/6 1904/1/6
f 1905/1/2 1906/1/2 1907/1/2 1908/1/2
f 1909/1/4 1910/1/4 1911/1/4 1912/1/4
f 1913/1/5 1914/1/5 1915/1/5 1916/1/5
f 1917/1/6 1918/1/6 1919/1/6 1920/1/6
f 1921/3/1 1922/3/1 1923/3/1 1924/3/1
f 1925/3/4 1926/3/4 1927/3/4 1928/3/4
f 1929/3/5 1930/3/5 1931/3/5 1932/3/5
f 1933/3/6 1934/3/6 1935/3/6 1936/3/6
f 1937/3/4 1938/3/4 1939/3/4 1940/3/4
f 1941/3/5 1942/3/5 1943/3/5 1944/3/5
f 1945/3/6 1946/3/6 1947/3/6 1948/3/6
f 1949/1/5 1950/1/5 1951/1/5 1952/1/5
f 1953/1/6 1954/1/6 1955/1/6 1956/1/6
f 1957/1/5 1958/1/5 1959/1/5 1960/1/5
f 1961/1/6 1962/1/6 1963/1/6 1964/1/6
f 1965/1/5 1966/1/5 1967/1/5 1968/1/5
f 1969/1/6 1970/1/6 1971/1/6 1972/1/6
f 1973/1/5 1974/1/5 1975/1/5 1976/1/5
f 1977/1/6 1978/1/6 1979/1/6 1980/1/6
f 1981/1/5 1982/1/5 1983/1/5 1984/1/5
f 1985/1/6 1986/1/6 1987/1/6 1988/1/6
f 1989/1/5 1990/1/5 1991/1/5 1992/1/5
f 1993/1/6 1994/1/6 1995/1/6 1996/1/6
f 1997/1/5 1998/1/5 1999/1/5 2000/1/5
f 2001/1/6 2002/1/6 2003/1/6 2004/1/6
f 2005/1/5 2006/1/5 2007/1/5 2008/1/5
f 2009/1/6 2010/1/6 2011/1/6 2012/1/6
f 2013/1/5 2014/1/5 2015/1/5 2016/1/5
f 2017/1/6 2018/1/6 2019/1/6 2020/1/6
f 2021/1/5 2022/1/5 2023/1/5 2024/1/5
f 2025/1/6 2026/1/6 2027/1/6 2028/1/6
f 2029/1/5 2030/1/5 2031/1/5 2032/1/5
f 2033/1/6 2034/1/6 2035/1/6 2036/1/6
f 2037/1/2 2038/1/2 2039/1/2 2040/1/2
f 2041/1/5 2042/1/5 2043/1/5 2044/1/5
f 2045/1/6 2046/1/6 2047/1/6 2048/1/6
f 2049/3/1 2050/3/1 2051/3/1 2052/3/1
f 2053/3/4 2054/3/4 2055/3/4 2056/3/4
f 2057/3/5 2058/3/5 2059/3/5 2060/3/5
f 2061/3/6 2062/3/6 2063/3/6 2064/3/6
f 2065/3/4 2066/3/4 2067/3/4 2068/3/4
f 2069/3/5 2070/3/5 2071/3/5 2072/3/5
f 2073/3/6 2074/3/6 2075/3/6 2076/3/6
f 2077/3/4 2078/3/4 2079/3/4 2080/3/4
f 2081/3/5 2082/3/5 2083/3/5 2084/3/5
f 2085/3/6 2086/3/6 2087/3/6 2088/3/6
f 2089/3/4 2090/3/4 2091/3/4 2092/3/4
f 2093/3/5 2094/3/5 2095/3/5 2096/3/5
f 2097/3/6 2098/3/6 2099/3/6 2100/3/6
f 2101/3/4 2102/3/4 2103/3/4 2104/3/4
f 2105/3/5 2106/3/5 2107/3/5 2108/3/5
f 2109/3/6 2110/3/6 2111/3/6 2112/3/6
f 2113/3/4 2114/3/4 2115/3/4 2116/3/4
f 2117/3/5 2118/3/5 2119/3/5 2120/3/5
f 2121/3/6 2122/3/6 2123/3/6 2124/3/6
f 2125/3/4 2126/3/4 2127/3/4 2128/3/4
f 2129/3/5 2130/3/5 2131/3/5 2132/3/5
f 2133/3/6 2134/3/6 2135/3/6 2136/3/6
f 2137/3/4 2138/3/4 2139/3/4 2140/3/4
f 2141/3/5 2142/3/5 2143/3/5 2144/3/5
f 2145/3/6 2146/3/6 2147/3/6 2148/3/6
f 2149/3/4 2150/3/4 2151/3/4 2152/3/4
f 2153/3/5 2154/3/5 2155/3/5 2156/3/5
f 2157/3/6 2158/3/6 2159/3/6 2160/3/6
f 2161/3/4 2162/3/4 2163/3/4 2164/3/4
f 2165/3/5 2166/3/5 2167/3/5 2168/3/5
f 2169/3/6 2170/3/6 2171/3/6 2172/3/6
f 2173/3/4 2174/3/4 2175/3/4 2176/3/4
f 2177/3/5 2178/3/5 2179/3/5 2180/3/5
f 2181/3/6 2182/3/6 2183/3/6 2184/3/6
f 2185/3/2 2186/3/2 2187/3/2 2188/3/2
f 2189/3/4 2190/3/4 2191/3/4 2192/3/4
f 2193/3/5 2194/3/5 2195/3/5 2196/3/5
f 2197/3/6 2198/3/6 2199/3/6 2200/3/6
f 2201/1/1 2202/1/1 2203/1/1 2204/1/1
f 2205/1/3 2206/1/3 2207/1/3 2208/1/3
f 2209/1/5 2210/1/5 2211/1/5 2212/1/5
f 2213/1/6 2214/1/6 2215/1/6 2216/1/6
f 2217/3/2 2218/3/2 2219/3/2 2220/3/2
f 2221/3/3 2222/3/3 2223/3/3 2224/3/3
f 2225/3/5 2226/3/5 2227/3/5 2228/3/5
f 2229/3/6 2230/3/6 2231/3/6 2232/3/6
f 2233/2/1 2234/2/1 2235/2/1 2236/2/1
f 2237/2/5 2238/2/5 2239/2/5 2240/2/5
f 2241/2/6 2242/2/6 2243/2/6 2244/2/6
f 2245/1/5 2246/1/5 2247/1/5 2248/1/5
f 2249/1/6 2250/1/6 2251/1/6 2252/1/6
f 2253/3/2 2254/3/2 2255/3/2 2256/3/2
f 2257/3/3 2258/3/3 2259/3/3 2260/3/3
f 2261/3/5 2262/3/5 2263/3/5 2264/3/5
f 2265/3/6 2266/3/6 2267/3/6 2268/3/6
f 2269/2/1 2270/2/1 2271/2/1 2272/2/1
f 2273/2/3 2274/2/3 2275/2/3 2276/2/3
f 2277/2/5 2278/2/5 2279/2/5 2280/2/5
f 2281/2/6 2282/2/6 2283/2/6 2284/2/6
f 2285/4/5 2286/4/5 2287/4/5 2288/4/5
f 2289/4/6 2290/4/6 2291/4/6 2292/4/6
f 2293/2/5 2294/2/5 2295/2/5 2296/2/5
f 2297/2/6 2298/2/6 2299/2/6 2300/2/6
f 2301/1/5 2302/1/5 2303/1/5 2304/1/5
f 2305/1/6 2306/1/6 2307/1/6 2308/1/6
f 2309/3/2 2310/3/2 2311/3/2 2312/3/2
f 2313/3/3 2314/3/3 2315/3/3 2316/3/3
f 2317/3/5 2318/3/5 2319/3/5 2320/3/5
f 2321/3/6 2322/3/6 2323/3/6 2324/3/6
f 2325/3/1 2326/3/1 2327/3/1 2328/3/1
f 2329/3/3 2330/3/3 2331/3/3 2332/3/3
f 2333/3/4 2334/3/4 2335/3/4 2336/3/4
f 2337/3/5 2338/3/5 2339/3/5 2340/3/5
f 2341/3/6 2342/3/6 2343/3/6 2344/3/6
f 2345/1/5 2346/1/5 2347/1/5 2348/1/5
f 2349/1/6 2350/1/6 2351/1/6 2352/1/6
f 2353/2/5 2354/2/5 2355/2/5 2356/2/5
f 2357/2/6 2358/2/6 2359/2/6 2360/2/6
f 2361/4/5 2362/4/5 2363/4/5 2364/4/5
f 2365/4/6 2366/4/6 2367/4/6 2368/4/6
f 2369/2/5 2370/2/5 2371/2/5 2372/2/5
f 2373/2/6 2374/2/6 2375/2/6 2376/2/6
f 2377/1/5 2378/1/5 2379/1/5 2380/1/5
f 2381/1/6 2382/1/6 2383/1/6 2384/1/6
f 2385/3/2 2386/3/2 2387/3/2 2388/3/2
f 2389/3/3 2390/3/3 2391/3/3 2392/3/3
f 2393/3/5 2394/3/5 2395/3/5 2396/3/5
f 2397/3/6 2398/3/6 2399/3/6 2400/3/6
f 2401/3/1 2402/3/1 2403/3/1 2404/3/1
f 2405/3/4 2406/3/4 2407/3/4 2408/3/4
f 2409/3/5 2410/3/5 2411/3/5 2412/3/5
f 2413/3/6 2414/3/6 2415/3/6 2416/3/6
f 2417/1/5 2418/1/5 2419/1/5 2420/1/5
f 2421/1/6 2422/1/6 2423/1/6 2424/1/6
f 2425/2/5 2426/2/5 2427/2/5 2428/2/5
f 2429/2/6 2430/2/6 2431/2/6 2432/2/6
f 2433/2/5 2434/2/5 2435/2/5 2436/2/5
f 2437/2/6 2438/2/6 2439/2/6 2440/2/6
f 2441/2/5 2442/2/5 2443/2/5 2444/2/5
f 2445/2/6 2446/2/6 2447/2/6 2448/2/6
f 2449/1/5 2450/1/5 2451/1/5 2452/1/5
f 2453/1/6 2454/1/6 2455/1/6 2456/1/6
f 2457/3/3 2458/3/3 2459/3/3 2460/3/3
f 2461/3/5 2462/3/5 2463/3/5 2464/3/5
f 2465/3/6 2466/3/6 2467/3/6 2468/3/6
f 2469/3/2 2470/3/2 2471/3/2 2472/3/2
f 2473/3/3 2474/3/3 2475/3/3 2476/3/3
f 2477/3/5 2478/3/5 2479/3/5 2480/3/5
f 2481/3/6 2482/3/6 2483/3/6 2484/3/6
f 2485/3/1 2486/3/1 2487/3/1 2488/3/1
f 2489/3/4 2490/3/4 2491/3/4 2492/3/4
f 2493/3/5 2494/3/5 2495/3/5 2496/3/5
f 2497/3/6 2498/3/6 2499/3/6 2500/3/6
f 2501/1/5 2502/1/5 2503/1/5 2504/1/5
f 2505/1/6 2506/1/6 2507/1/6 2508/1/6
f 2509/1/5 2510/1/5 2511/1/5 2512/1/5
f 2513/1/6 2514/1/6 2515/1/6 2516/1/6
f 2517/2/5 2518/2/5 2519/2/5 2520/2/5
f 2521/2/6 2522/2/6 2523/2/6 2524/2/6
f 2525/2/5 2526/2/5 2527/2/5 2528/2/5
f 2529/2/6 2530/2/6 2531/2/6 2532/2/6
f 2533/1/5 2534/1/5 2535/1/5 2536/1/5
f 2537/1/6 2538/1/6 2539/1/6 2540/1/6
f 2541/1/5 2542/1/5 2543/1/5 2544/1/5
f 2545/1/6 2546/1/6 2547/1/6 2548/1/6
f 2549/3/2 2550/3/2 2551/3/2 2552/3/2
f 2553/3/3 2554/3/3 2555/3/3 2556/3/3
f 2557/3/5 2558/3/5 2559/3/5 2560/3/5
f 2561/3/6 2562/3/6 2563/3/6 2564/3/6
f 2565/3/1 2566/3/1 2567/3/1 2568/3/1
f 2569/3/4 2570/3/4 2571/3/4 2572/3/4
f 2573/3/5 2574/3/5 2575/3/5 2576/3/5
f 2577/3/6 2578/3/6 2579/3/6 2580/3/6
f 2581/3/4 2582/3/4 2583/3/4 2584/3/4
f 2585/3/5 2586/3/5 2587/3/5 2588/3/5
f 2589/3/6 2590/3/6 2591/3/6 2592/3/6
f 2593/1/5 2594/1/5 2595/1/5 2596/1/5
f 2597/1/6 2598/1/6 2599/1/6 2600/1/6
f 2601/2/5 2602/2/5 2603/2/5 2604/2/5
f 2605/2/6 2606/2/6 2607/2/6 2608/2/6
f 2609/2/5 2610/2/5 2611/2/5 2612/2/5
f 2613/2/6 2614/2/6 2615/2/6 2616/2/6
f 2617/2/5 2618/2/5 2619/2/5 2620/2/5
f 2621/2/6 2622/2/6 2623/2/6 2624/2/6
f 2625/1/5 2626/1/5 2627/1/5 2628/1/5
f 2629/1/6 2630/1/6 2631/1/6 2632/1/6
f 2633/3/3 2634/3/3 2635/3/3 2636/3/3
f 2637/3/5 2638/3/5 2639/3/5 2640/3/5
f 2641/3/6 2642/3/6 2643/3/6 2644/3/6
f 2645/3/2 2646/3/2 2647/3/2 2648/3/2
f 2649/3/3 2650/3/3 2651/3/3 2652/3/3
f 2653/3/5 2654/3/5 2655/3/5 2656/3/5
f 2657/3/6 2658/3/6 2659/3/6 2660/3/6
f 2661/3/1 2662/3/1 2663/3/1 2664/3/1
f 2665/3/4 2666/3/4 2667/3/4 2668/3/4
f 2669/3/5 2670/3/5 2671/3/5 2672/3/5
f 2673/3/6 2674/3/6 2675/3/6 2676/3/6
f 2677/1/5 2678/1/5 2679/1/5 2680/1/5
f 2681/1/6 2682/1/6 2683/1/6 2684/1/6
f 2685/2/5 2686/2/5 2687/2/5 2688/2/5
f 2689/2/6 2690/2/6 2691/2/6 2692/2/6
f 2693/4/5 2694/4/5 2695/4/5 2696/4/5
f 2697/4/6 2698/4/6 2699/4/6 2700/4/6
f 2701/2/5 2702/2/5 2703/2/5 2704/2/5
f 2705/2/6 2706/2/6 2707/2/6 2708/2/6
f 2709/1/5 2710/1/5 2711/1/5 2712/1/5
f 2713/1/6 2714/1/6 2715/1/6 2716/1/6
f 2717/1/5 2718/1/5 2719/1/5 2720/1/5
f 2721/1/6 2722/1/6 2723/1/6 2724/1/6
f 2725/3/2 2726/3/2 2727/3/2 2728/3/2
f 2729/3/3 2730/3/3 2731/3/3 2732/3/3
f 2733/3/5 2734/3/5 2735/3/5 2736/3/5
f 2737/3/6 2738/3/6 2739/3/6 2740/3/6
f 2741/3/1 2742/3/1 2743/3/1 2744/3/1
f 2745/3/4 2746/3/4 2747/3/4 2748/3/4
f 2749/3/5 2750/3/5 2751/3/5 2752/3/5
f 2753/3/6 2754/3/6 2755/3/6 2756/3/6
f 2757/1/5 2758/1/5 2759/1/5 2760/1/5
f 2761/1/6 2762/1/6 2763/1/6 2764/1/6
f 2765/2/5 2766/2/5 2767/2/5 2768/2/5
f 2769/2/6 2770/2/6 2771/2/6 2772/2/6
f 2773/4/5 2774/4/5 2775/4/5 2776/4/5
f 2777/4/6 2778/4/6 2779/4/6 2780/4/6
f 2781/2/5 2782/2/5 2783/2/5 2784/2/5
f 2785/2/6 2786/2/6 2787/2/6 2788/2/6
f 2789/2/5 2790/2/5 2791/2/5 2792/2/5
f 2793/2/6 2794/2/6 2795/2/6 2796/2/6
f 2797/1/5 2798/1/5 2799/1/5 2800/1/5
f 2801/1/6 2802/1/6 2803/1/6 2804/1/6
f 2805/3/2 2806/3/2 2807/3/2 2808/3/2
f 2809/3/3 2810/3/3 2811/3/3 2812/3/3
f 2813/3/5 2814/3/5 2815/3/5 2816/3/5
f 2817/3/6 2818/3/6 2819/3/6 2820/3/6
f 2821/3/1 2822/3/1 2823/3/1 2824/3/1
f 2825/3/4 2826/3/4 2827/3/4 2828/3/4
f 2829/3/5 2830/3/5 2831/3/5 2832/3/5
f 2833/3/6 2834/3/6 2835/3/6 2836/3/6
f 2837/1/5 2838/1/5 2839/1/5 2840/1/5
f 2841/1/6 2842/1/6 2843/1/6 2844/1/6
f 2845/2/5 2846/2/5 2847/2/5 2848/2/5
f 2849/2/6 2850/2/6 2851/2/6 2852/2/6
f 2853/4/5 2854/4/5 2855/4/5 2856/4/5
f 2857/4/6 2858/4/6 2859/4/6 2860/4/6
f 2861/4/5 2862/4/5 2863/4/5 2864/4/5
f 2865/4/6 2866/4/6 2867/4/6 2868/4/6
f 2869/2/5 2870/2/5 2871/2/5 2872/2/5
f 2873/2/6 2874/2/6 2875/2/6 2876/2/6
f 2877/1/5 2878/1/5 2879/1/5 2880/1/5
f 2881/1/6 2882/1/6 2883/1/6 2884/1/6
f 2885/3/3 2886/3/3 2887/3/3 2888/3/3
f 2889/3/5 2890/3/5 2891/3/5 2892/3/5
f 2893/3/6 2894/3/6 2895/3/6 2896/3/6
f 2897/3/2 2898/3/2 2899/3/2 2900/3/2
f 2901/3/3 2902/3/3 2903/3/3 2904/3/3
f 2905/3/5 2906/3/5 2907/3/5 2908/3/5
f 2909/3/6 2910/3/6 2911/3/6 2912/3/6
f 2913/3/1 2914/3/1 2915/3/1 2916/3/1
f 2917/3/5 2918/3/5 2919/3/5 2920/3/5
f 2921/3/6 2922/3/6 2923/3/6 2924/3/6
f 2925/1/5 2926/1/5 2927/1/5 2928/1/5
f 2929/1/6 2930/1/6 2931/1/6 2932/1/6
f 2933/2/5 2934/2/5 2935/2/5 2936/2/5
f 2937/2/6 2938/2/6 2939/2/6 2940/2/6
f 2941/4/5 2942/4/5 2943/4/5 2944/4/5
f 2945/4/6 2946/4/6 2947/4/6 2948/4/6
f 2949/4/5 2950/4/5 2951/4/5 2952/4/5
f 2953/4/6 2954/4/6 2955/4/6 2956/4/6
f 2957/2/5 2958/2/5 2959/2/5 2960/2/5
f 2961/2/6 2962/2/6 2963/2/6 2964/2/6
f 2965/1/5 2966/1/5 2967/1/5 2968/1/5
f 2969/1/6 2970/1/6 2971/1/6 2972/1/6
f 2973/1/5 2974/1/5 2975/1/5 2976/1/5
f 2977/1/6 2978/1/6 2979/1/6 2980/1/6
f 2981/3/2 2982/3/2 2983/3/2 2984/3/2
f 2985/3/3 2986/3/3 2987/3/3 2988/3/3
f 2989/3/5 2990/3/5 2991/3/5 2992/3/5
f 2993/3/6 2994/3/6 2995/3/6 2996/3/6
f 2997/3/1 2998/3/1 2999/3/1 3000/3/1
f 3001/3/4 3002/3/4 3003/3/4 3004/3/4
f 3005/3/5 3006/3/5 3007/3/5 3008/3/5
f 3009/3/6 3010/3/6 3011/3/6 3012/3/6
f 3013/1/5 3014/1/5 3015/1/5 3016/1/5
f 3017/1/6 3018/1/6 3019/1/6 3020/1/6
f 3021/2/5 3022/2/5 3023/2/5 3024/2/5
f 3025/2/6 3026/2/6 3027/2/6 3028/2/6
f 3029/4/5 3030/4/5 3031/4/5 3032/4/5
f 3033/4/6 3034/4/6 3035/4/6 3036/4/6
f 3037/4/5 3038/4/5 3039/4/5 3040/4/5
f 3041/4/6 3042/4/6 3043/4/6 3044/4/6
f 3045/4/5 3046/4/5 3047/4/5 3048/4/5
f 3049/4/6 3050/4/6 3051/4/6 3052/4/6
f 3053/2/5 3054/2/5 3055/2/5 3056/2/5
f 3057/2/6 3058/2/6 3059/2/6 3060/2/6
f 3061/2/5 3062/2/5 3063/2/5 3064/2/5
f 3065/2/6 3066/2/6 3067/2/6 3068/2/6
f 3069/1/5 3070/1/5 3071/1/5 3072/1/5
f 3073/1/6 3074/1/6 3075/1/6 3076/1/6
f 3077/3/2 3078/3/2 3079/3/2 3080/3/2
f 3081/3/3 3082/3/3 3083/3/3 3084/3/3
f 3085/3/5 3086/3/5 3087/3/5 3088/3/5
f 3089/3/6 3090/3/6 3091/3/6 3092/3/6
f 3093/3/1 3094/3/1 3095/3/1 3096/3/1
f 3097/3/4 3098/3/4 3099/3/4 3100/3/4
f 3101/3/5 3102/3/5 3103/3/5 3104/3/5
f 3105/3/6 3106/3/6 3107/3/6 3108/3/6
f 3109/1/5 3110/1/5 3111/1/5 3112/1/5
f 3113/1/6 3114/1/6 3115/1/6 3116/1/6
f 3117/2/5 3118/2/5 3119/2/5 3120/2/5
f 3121/2/6 3122/2/6 3123/2/6 3124/2/6
f 3125/4/5 3126/4/5 3127/4/5 3128/4/5
f 3129/4/6 3130/4/6 3131/4/6 3132/4/6
f 3133/4/5 3134/4/5 3135/4/5 3136/4/5
f 3137/4/6 3138/4/6 3139/4/6 3140/4/6
f 3141/4/5 3142/4/5 3143/4/5 3144/4/5
f 3145/4/6 3146/4/6 3147/4/6 3148/4/6
f 3149/2/5 3150/2/5 3151/2/5 3152/2/5
f 3153/2/6 3154/2/6 3155/2/6 3156/2/6
f 3157/1/5 3158/1/5 3159/1/5 3160/1/5
f 3161/1/6 3162/1/6 3163/1/6 3164/1/6
f 3165/3/2 3166/3/2 3167/3/2 3168/3/2
f 3169/3/4 3170/3/4 3171/3/4 3172/3/4
f 3173/3/5 3174/3/5 3175/3/5 3176/3/5
f 3177/3/6 3178/3/6 3179/3/6 3180/3/6
f 3181/3/1 3182/3/1 3183/3/1 3184/3/1
f 3185/3/4 3186/3/4 3187/3/4 3188/3/4
f 3189/3/5 3190/3/5 3191/3/5 3192/3/5
f 3193/3/6 3194/3/6 3195/3/6 3196/3/6
f 3197/1/5 3198/1/5 3199/1/5 3200/1/5
f 3201/1/6 3202/1/6 3203/1/6 3204/1/6
f 3205/2/5 3206/2/5 3207/2/5 3208/2/5
f 3209/2/6 3210/2/6 3211/2/6 3212/2/6
f 3213/2/5 3214/2/5 3215/2/5 3216/2/5
f 3217/2/6 3218/2/6 3219/2/6 3220/2/6
f 3221/2/5 3222/2/5 3223/2/5 3224/2/5
f 3225/2/6 3226/2/6 3227/2/6 3228/2/6
f 3229/1/5 3230/1/5 3231/1/5 3232/1/5
f 3233/1/6 3234/1/6 3235/1/6 3236/1/6
f 3237/3/2 3238/3/2 3239/3/2 3240/3/2
f 3241/3/4 3242/3/4 3243/3/4 3244/3/4
f 3245/3/5 3246/3/5 3247/3/5 3248/3/5
f 3249/3/6 3250/3/6 3251/3/6 3252/3/6
f 3253/3/1 3254/3/1 3255/3/1 3256/3/1
f 3257/3/4 3258/3/4 3259/3/4 3260/3/4
f 3261/3/5 3262/3/5 3263/3/5 3264/3/5
f 3265/3/6 3266/3/6 3267/3/6 3268/3/6
f 3269/1/5 3270/1/5 3271/1/5 3272/1/5
f 3273/1/6 3274/1/6 3275/1/6 3276/1/6
f 3277/1/5 3278/1/5 3279/1/5 3280/1/5
f 3281/1/6 3282/1/6 3283/1/6 3284/1/6
f 3285/1/5 3286/1/5 3287/1/5 3288/1/5
f 3289/1/6 3290/1/6 3291/1/6 3292/1/6
f 3293/3/2 3294/3/2 3295/3/2 3296/3/2
f 3297/3/4 3298/3/4 3299/3/4 3300/3/4
f 3301/3/5 3302/3/5 3303/3/5 3304/3/5
f 3305/3/6 3306/3/6 3307/3/6 3308/3/6
f 3309/3/1 3310/3/1 3311/3/1 3312/3/1
f 3313/3/4 3314/3/4 3315/3/4 3316/3/4
f 3317/3/5 3318/3/5 3319/3/5 3320/3/5
f 3321/3/6 3322/3/6 3323/3/6 3324/3/6
f 3325/3/4 3326/3/4 3327/3/4 3328/3/4
f 3329/3/5 3330/3/5 3331/3/5 3332/3/5
f 3333/3/6 3334/3/6 3335/3/6 3336/3/6
f 3337/3/2 3338/3/2 3339/3/2 3340/3/2
f 3341/3/4 3342/3/4 3343/3/4 3344/3/4
f 3345/3/5 3346/3/5 3347/3/5 3348/3/5
f 3349/3/6 3350/3/6 3351/3/6 3352/3/6

