# generated by vox_to_obj_exporter
# scale=0.1 center=false ground=false y_up=true

mtllib Fight_720.mtl
usemtl palette

# normals
vn -1 0 0
vn 1 0 0
vn 0 1 0
vn 0 -1 0
vn 0 0 1
vn 0 0 -1

# texcoords
vt 0.193359375 0.5
vt 0.201171875 0.5
vt 0.208984375 0.5
vt 0.181640625 0.5

# verts
v 10.3 11.4 -2.6
v 10.3 11.3 -2.6
v 10.3 11.3 -2.5
v 10.3 11.4 -2.5
v 10.4 11.4 -2.5
v 10.4 11.3 -2.5
v 10.4 11.3 -2.6
v 10.4 11.4 -2.6
v 10.3 11.4 -2.6
v 10.3 11.4 -2.5
v 10.4 11.4 -2.5
v 10.4 11.4 -2.6
v 10.3 11.4 -2.5
v 10.3 11.3 -2.5
v 10.4 11.3 -2.5
v 10.4 11.4 -2.5
v 10.4 11.4 -2.6
v 10.4 11.3 -2.6
v 10.3 11.3 -2.6
v 10.3 11.4 -2.6
v 10.3 11.3 -2.6
v 10.3 11.2 -2.6
v 10.3 11.2 -2.5
v 10.3 11.3 -2.5
v 10.4 11.3 -2.5
v 10.4 11.2 -2.5
v 10.4 11.2 -2.6
v 10.4 11.3 -2.6
v 10.3 11.3 -2.5
v 10.3 11.2 -2.5
v 10.4 11.2 -2.5
v 10.4 11.3 -2.5
v 10.4 11.3 -2.6
v 10.4 11.2 -2.6
v 10.3 11.2 -2.6
v 10.3 11.3 -2.6
v 10.3 11.2 -2.6
v 10.3 11.1 -2.6
v 10.3 11.1 -2.5
v 10.3 11.2 -2.5
v 10.3 11.1 -2.5
v 10.3 11.1 -2.6
v 10.4 11.1 -2.6
v 10.4 11.1 -2.5
v 10.3 11.2 -2.5
v 10.3 11.1 -2.5
v 10.4 11.1 -2.5
v 10.4 11.2 -2.5
v 10.4 11.2 -2.6
v 10.4 11.1 -2.6
v 10.3 11.1 -2.6
v 10.3 11.2 -2.6
v 10.5 11.2 -2.5
v 10.5 11.1 -2.5
v 10.5 11.1 -2.6
v 10.5 11.2 -2.6
v 10.4 11.2 -2.6
v 10.4 11.2 -2.5
v 10.5 11.2 -2.5
v 10.5 11.2 -2.6
v 10.4 11.2 -2.5
v 10.4 11.1 -2.5
v 10.5 11.1 -2.5
v 10.5 11.2 -2.5
v 10.5 11.2 -2.6
v 10.5 11.1 -2.6
v 10.4 11.1 -2.6
v 10.4 11.2 -2.6
v 10.4 11.1 -2.6
v 10.4 11 -2.6
v 10.4 11 -2.5
v 10.4 11.1 -2.5
v 10.5 11.1 -2.5
v 10.5 11 -2.5
v 10.5 11 -2.6
v 10.5 11.1 -2.6
v 10.4 11.1 -2.5
v 10.4 11 -2.5
v 10.5 11 -2.5
v 10.5 11.1 -2.5
v 10.5 11.1 -2.6
v 10.5 11 -2.6
v 10.4 11 -2.6
v 10.4 11.1 -2.6
v 10.4 11 -2.6
v 10.4 10.9 -2.6
v 10.4 10.9 -2.5
v 10.4 11 -2.5
v 10.5 11 -2.5
v 10.5 10.9 -2.5
v 10.5 10.9 -2.6
v 10.5 11 -2.6
v 10.4 11 -2.5
v 10.4 10.9 -2.5
v 10.5 10.9 -2.5
v 10.5 11 -2.5
v 10.5 11 -2.6
v 10.5 10.9 -2.6
v 10.4 10.9 -2.6
v 10.4 11 -2.6
v 10.4 10.9 -2.6
v 10.4 10.8 -2.6
v 10.4 10.8 -2.5
v 10.4 10.9 -2.5
v 10.4 10.9 -2.5
v 10.4 10.8 -2.5
v 10.5 10.8 -2.5
v 10.5 10.9 -2.5
v 10.5 10.9 -2.6
v 10.5 10.8 -2.6
v 10.4 10.8 -2.6
v 10.4 10.9 -2.6
v 10.6 10.9 -2.5
v 10.6 10.8 -2.5
v 10.6 10.8 -2.6
v 10.6 10.9 -2.6
v 10.5 10.9 -2.6
v 10.5 10.9 -2.5
v 10.6 10.9 -2.5
v 10.6 10.9 -2.6
v 10.5 10.9 -2.5
v 10.5 10.8 -2.5
v 10.6 10.8 -2.5
v 10.6 10.9 -2.5
v 10.6 10.9 -2.6
v 10.6 10.8 -2.6
v 10.5 10.8 -2.6
v 10.5 10.9 -2.6
v 10.4 10.8 -2.6
v 10.4 10.7 -2.6
v 10.4 10.7 -2.5
v 10.4 10.8 -2.5
v 10.4 10.8 -2.5
v 10.4 10.7 -2.5
v 10.5 10.7 -2.5
v 10.5 10.8 -2.5
v 10.5 10.8 -2.6
v 10.5 10.7 -2.6
v 10.4 10.7 -2.6
v 10.4 10.8 -2.6
v 10.6 10.8 -2.5
v 10.6 10.7 -2.5
v 10.6 10.7 -2.6
v 10.6 10.8 -2.6
v 10.5 10.8 -2.5
v 10.5 10.7 -2.5
v 10.6 10.7 -2.5
v 10.6 10.8 -2.5
v 10.6 10.8 -2.6
v 10.6 10.7 -2.6
v 10.5 10.7 -2.6
v 10.5 10.8 -2.6
v 10.4 10.7 -2.6
v 10.4 10.6 -2.6
v 10.4 10.6 -2.5
v 10.4 10.7 -2.5
v 10.4 10.7 -2.5
v 10.4 10.6 -2.5
v 10.5 10.6 -2.5
v 10.5 10.7 -2.5
v 10.5 10.7 -2.6
v 10.5 10.6 -2.6
v 10.4 10.6 -2.6
v 10.4 10.7 -2.6
v 10.6 10.7 -2.5
v 10.6 10.6 -2.5
v 10.6 10.6 -2.6
v 10.6 10.7 -2.6
v 10.5 10.7 -2.5
v 10.5 10.6 -2.5
v 10.6 10.6 -2.5
v 10.6 10.7 -2.5
v 10.6 10.7 -2.6
v 10.6 10.6 -2.6
v 10.5 10.6 -2.6
v 10.5 10.7 -2.6
v 10.4 10.6 -2.6
v 10.4 10.5 -2.6
v 10.4 10.5 -2.5
v 10.4 10.6 -2.5
v 10.4 10.5 -2.5
v 10.4 10.5 -2.6
v 10.5 10.5 -2.6
v 10.5 10.5 -2.5
v 10.4 10.6 -2.5
v 10.4 10.5 -2.5
v 10.5 10.5 -2.5
v 10.5 10.6 -2.5
v 10.5 10.6 -2.6
v 10.5 10.5 -2.6
v 10.4 10.5 -2.6
v 10.4 10.6 -2.6
v 10.5 10.6 -2.5
v 10.5 10.5 -2.5
v 10.6 10.5 -2.5
v 10.6 10.6 -2.5
v 10.6 10.6 -2.6
v 10.6 10.5 -2.6
v 10.5 10.5 -2.6
v 10.5 10.6 -2.6
v 10.7 10.6 -2.5
v 10.7 10.5 -2.5
v 10.7 10.5 -2.6
v 10.7 10.6 -2.6
v 10.6 10.6 -2.6
v 10.6 10.6 -2.5
v 10.7 10.6 -2.5
v 10.7 10.6 -2.6
v 10.6 10.6 -2.5
v 10.6 10.5 -2.5
v 10.7 10.5 -2.5
v 10.7 10.6 -2.5
v 10.7 10.6 -2.6
v 10.7 10.5 -2.6
v 10.6 10.5 -2.6
v 10.6 10.6 -2.6
v 10.5 10.5 -2.6
v 10.5 10.4 -2.6
v 10.5 10.4 -2.5
v 10.5 10.5 -2.5
v 10.5 10.5 -2.5
v 10.5 10.4 -2.5
v 10.6 10.4 -2.5
v 10.6 10.5 -2.5
v 10.6 10.5 -2.6
v 10.6 10.4 -2.6
v 10.5 10.4 -2.6
v 10.5 10.5 -2.6
v 10.7 10.5 -2.5
v 10.7 10.4 -2.5
v 10.7 10.4 -2.6
v 10.7 10.5 -2.6
v 10.6 10.5 -2.5
v 10.6 10.4 -2.5
v 10.7 10.4 -2.5
v 10.7 10.5 -2.5
v 10.7 10.5 -2.6
v 10.7 10.4 -2.6
v 10.6 10.4 -2.6
v 10.6 10.5 -2.6
v 10.5 10.4 -2.6
v 10.5 10.3 -2.6
v 10.5 10.3 -2.5
v 10.5 10.4 -2.5
v 10.5 10.3 -2.5
v 10.5 10.3 -2.6
v 10.6 10.3 -2.6
v 10.6 10.3 -2.5
v 10.5 10.4 -2.5
v 10.5 10.3 -2.5
v 10.6 10.3 -2.5
v 10.6 10.4 -2.5
v 10.6 10.4 -2.6
v 10.6 10.3 -2.6
v 10.5 10.3 -2.6
v 10.5 10.4 -2.6
v 10.7 10.4 -2.5
v 10.7 10.3 -2.5
v 10.7 10.3 -2.6
v 10.7 10.4 -2.6
v 10.6 10.4 -2.5
v 10.6 10.3 -2.5
v 10.7 10.3 -2.5
v 10.7 10.4 -2.5
v 10.7 10.4 -2.6
v 10.7 10.3 -2.6
v 10.6 10.3 -2.6
v 10.6 10.4 -2.6
v 10.6 10.3 -2.6
v 10.6 10.2 -2.6
v 10.6 10.2 -2.5
v 10.6 10.3 -2.5
v 10.7 10.3 -2.5
v 10.7 10.2 -2.5
v 10.7 10.2 -2.6
v 10.7 10.3 -2.6
v 10.6 10.2 -2.5
v 10.6 10.2 -2.6
v 10.7 10.2 -2.6
v 10.7 10.2 -2.5
v 10.6 10.3 -2.5
v 10.6 10.2 -2.5
v 10.7 10.2 -2.5
v 10.7 10.3 -2.5
v 10.7 10.3 -2.6
v 10.7 10.2 -2.6
v 10.6 10.2 -2.6
v 10.6 10.3 -2.6
v 11.6 5.6 -2.6
v 11.6 5.5 -2.6
v 11.6 5.5 -2.5
v 11.6 5.6 -2.5
v 11.7 5.6 -2.5
v 11.7 5.5 -2.5
v 11.7 5.5 -2.6
v 11.7 5.6 -2.6
v 11.6 5.6 -2.6
v 11.6 5.6 -2.5
v 11.7 5.6 -2.5
v 11.7 5.6 -2.6
v 11.6 5.6 -2.5
v 11.6 5.5 -2.5
v 11.7 5.5 -2.5
v 11.7 5.6 -2.5
v 11.7 5.6 -2.6
v 11.7 5.5 -2.6
v 11.6 5.5 -2.6
v 11.6 5.6 -2.6
v 10.3 5.5 -2.6
v 10.3 5.4 -2.6
v 10.3 5.4 -2.5
v 10.3 5.5 -2.5
v 10.4 5.5 -2.5
v 10.4 5.4 -2.5
v 10.4 5.4 -2.6
v 10.4 5.5 -2.6
v 10.3 5.5 -2.6
v 10.3 5.5 -2.5
v 10.4 5.5 -2.5
v 10.4 5.5 -2.6
v 10.3 5.5 -2.5
v 10.3 5.4 -2.5
v 10.4 5.4 -2.5
v 10.4 5.5 -2.5
v 10.4 5.5 -2.6
v 10.4 5.4 -2.6
v 10.3 5.4 -2.6
v 10.3 5.5 -2.6
v 11.5 5.5 -2.6
v 11.5 5.4 -2.6
v 11.5 5.4 -2.5
v 11.5 5.5 -2.5
v 11.5 5.5 -2.6
v 11.5 5.5 -2.5
v 11.6 5.5 -2.5
v 11.6 5.5 -2.6
v 11.5 5.5 -2.5
v 11.5 5.4 -2.5
v 11.6 5.4 -2.5
v 11.6 5.5 -2.5
v 11.6 5.5 -2.6
v 11.6 5.4 -2.6
v 11.5 5.4 -2.6
v 11.5 5.5 -2.6
v 11.6 5.5 -2.5
v 11.6 5.4 -2.5
v 11.7 5.4 -2.5
v 11.7 5.5 -2.5
v 11.7 5.5 -2.6
v 11.7 5.4 -2.6
v 11.6 5.4 -2.6
v 11.6 5.5 -2.6
v 11.8 5.5 -2.5
v 11.8 5.4 -2.5
v 11.8 5.4 -2.6
v 11.8 5.5 -2.6
v 11.7 5.5 -2.6
v 11.7 5.5 -2.5
v 11.8 5.5 -2.5
v 11.8 5.5 -2.6
v 11.7 5.5 -2.5
v 11.7 5.4 -2.5
v 11.8 5.4 -2.5
v 11.8 5.5 -2.5
v 11.8 5.5 -2.6
v 11.8 5.4 -2.6
v 11.7 5.4 -2.6
v 11.7 5.5 -2.6
v 10.3 5.4 -2.6
v 10.3 5.3 -2.6
v 10.3 5.3 -2.5
v 10.3 5.4 -2.5
v 10.4 5.4 -2.5
v 10.4 5.3 -2.5
v 10.4 5.3 -2.6
v 10.4 5.4 -2.6
v 10.3 5.4 -2.5
v 10.3 5.3 -2.5
v 10.4 5.3 -2.5
v 10.4 5.4 -2.5
v 10.4 5.4 -2.6
v 10.4 5.3 -2.6
v 10.3 5.3 -2.6
v 10.3 5.4 -2.6
v 11.4 5.4 -2.6
v 11.4 5.3 -2.6
v 11.4 5.3 -2.5
v 11.4 5.4 -2.5
v 11.4 5.4 -2.6
v 11.4 5.4 -2.5
v 11.5 5.4 -2.5
v 11.5 5.4 -2.6
v 11.4 5.4 -2.5
v 11.4 5.3 -2.5
v 11.5 5.3 -2.5
v 11.5 5.4 -2.5
v 11.5 5.4 -2.6
v 11.5 5.3 -2.6
v 11.4 5.3 -2.6
v 11.4 5.4 -2.6
v 11.5 5.4 -2.5
v 11.5 5.3 -2.5
v 11.6 5.3 -2.5
v 11.6 5.4 -2.5
v 11.6 5.4 -2.6
v 11.6 5.3 -2.6
v 11.5 5.3 -2.6
v 11.5 5.4 -2.6
v 11.6 5.4 -2.5
v 11.6 5.3 -2.5
v 11.7 5.3 -2.5
v 11.7 5.4 -2.5
v 11.7 5.4 -2.6
v 11.7 5.3 -2.6
v 11.6 5.3 -2.6
v 11.6 5.4 -2.6
v 11.8 5.4 -2.5
v 11.8 5.3 -2.5
v 11.8 5.3 -2.6
v 11.8 5.4 -2.6
v 11.7 5.4 -2.5
v 11.7 5.3 -2.5
v 11.8 5.3 -2.5
v 11.8 5.4 -2.5
v 11.8 5.4 -2.6
v 11.8 5.3 -2.6
v 11.7 5.3 -2.6
v 11.7 5.4 -2.6
v 10.2 5.3 -2.6
v 10.2 5.2 -2.6
v 10.2 5.2 -2.5
v 10.2 5.3 -2.5
v 10.2 5.3 -2.6
v 10.2 5.3 -2.5
v 10.3 5.3 -2.5
v 10.3 5.3 -2.6
v 10.2 5.3 -2.5
v 10.2 5.2 -2.5
v 10.3 5.2 -2.5
v 10.3 5.3 -2.5
v 10.3 5.3 -2.6
v 10.3 5.2 -2.6
v 10.2 5.2 -2.6
v 10.2 5.3 -2.6
v 10.4 5.3 -2.5
v 10.4 5.2 -2.5
v 10.4 5.2 -2.6
v 10.4 5.3 -2.6
v 10.3 5.3 -2.5
v 10.3 5.2 -2.5
v 10.4 5.2 -2.5
v 10.4 5.3 -2.5
v 10.4 5.3 -2.6
v 10.4 5.2 -2.6
v 10.3 5.2 -2.6
v 10.3 5.3 -2.6
v 11.3 5.3 -2.6
v 11.3 5.2 -2.6
v 11.3 5.2 -2.5
v 11.3 5.3 -2.5
v 11.3 5.3 -2.6
v 11.3 5.3 -2.5
v 11.4 5.3 -2.5
v 11.4 5.3 -2.6
v 11.3 5.3 -2.5
v 11.3 5.2 -2.5
v 11.4 5.2 -2.5
v 11.4 5.3 -2.5
v 11.4 5.3 -2.6
v 11.4 5.2 -2.6
v 11.3 5.2 -2.6
v 11.3 5.3 -2.6
v 11.4 5.3 -2.5
v 11.4 5.2 -2.5
v 11.5 5.2 -2.5
v 11.5 5.3 -2.5
v 11.5 5.3 -2.6
v 11.5 5.2 -2.6
v 11.4 5.2 -2.6
v 11.4 5.3 -2.6
v 11.5 5.3 -2.5
v 11.5 5.2 -2.5
v 11.6 5.2 -2.5
v 11.6 5.3 -2.5
v 11.6 5.3 -2.6
v 11.6 5.2 -2.6
v 11.5 5.2 -2.6
v 11.5 5.3 -2.6
v 11.6 5.3 -2.5
v 11.6 5.2 -2.5
v 11.7 5.2 -2.5
v 11.7 5.3 -2.5
v 11.7 5.3 -2.6
v 11.7 5.2 -2.6
v 11.6 5.2 -2.6
v 11.6 5.3 -2.6
v 11.8 5.3 -2.5
v 11.8 5.2 -2.5
v 11.8 5.2 -2.6
v 11.8 5.3 -2.6
v 11.7 5.3 -2.5
v 11.7 5.2 -2.5
v 11.8 5.2 -2.5
v 11.8 5.3 -2.5
v 11.8 5.3 -2.6
v 11.8 5.2 -2.6
v 11.7 5.2 -2.6
v 11.7 5.3 -2.6
v 10.2 5.2 -2.6
v 10.2 5.1 -2.6
v 10.2 5.1 -2.5
v 10.2 5.2 -2.5
v 10.2 5.1 -2.5
v 10.2 5.1 -2.6
v 10.3 5.1 -2.6
v 10.3 5.1 -2.5
v 10.2 5.2 -2.5
v 10.2 5.1 -2.5
v 10.3 5.1 -2.5
v 10.3 5.2 -2.5
v 10.3 5.2 -2.6
v 10.3 5.1 -2.6
v 10.2 5.1 -2.6
v 10.2 5.2 -2.6
v 10.3 5.2 -2.5
v 10.3 5.1 -2.5
v 10.4 5.1 -2.5
v 10.4 5.2 -2.5
v 10.4 5.2 -2.6
v 10.4 5.1 -2.6
v 10.3 5.1 -2.6
v 10.3 5.2 -2.6
v 10.5 5.2 -2.5
v 10.5 5.1 -2.5
v 10.5 5.1 -2.6
v 10.5 5.2 -2.6
v 10.4 5.2 -2.6
v 10.4 5.2 -2.5
v 10.5 5.2 -2.5
v 10.5 5.2 -2.6
v 10.4 5.2 -2.5
v 10.4 5.1 -2.5
v 10.5 5.1 -2.5
v 10.5 5.2 -2.5
v 10.5 5.2 -2.6
v 10.5 5.1 -2.6
v 10.4 5.1 -2.6
v 10.4 5.2 -2.6
v 11.3 5.2 -2.6
v 11.3 5.1 -2.6
v 11.3 5.1 -2.5
v 11.3 5.2 -2.5
v 11.3 5.2 -2.5
v 11.3 5.1 -2.5
v 11.4 5.1 -2.5
v 11.4 5.2 -2.5
v 11.4 5.2 -2.6
v 11.4 5.1 -2.6
v 11.3 5.1 -2.6
v 11.3 5.2 -2.6
v 11.4 5.2 -2.5
v 11.4 5.1 -2.5
v 11.5 5.1 -2.5
v 11.5 5.2 -2.5
v 11.5 5.2 -2.6
v 11.5 5.1 -2.6
v 11.4 5.1 -2.6
v 11.4 5.2 -2.6
v 11.5 5.2 -2.5
v 11.5 5.1 -2.5
v 11.6 5.1 -2.5
v 11.6 5.2 -2.5
v 11.6 5.2 -2.6
v 11.6 5.1 -2.6
v 11.5 5.1 -2.6
v 11.5 5.2 -2.6
v 11.6 5.2 -2.5
v 11.6 5.1 -2.5
v 11.7 5.1 -2.5
v 11.7 5.2 -2.5
v 11.7 5.2 -2.6
v 11.7 5.1 -2.6
v 11.6 5.1 -2.6
v 11.6 5.2 -2.6
v 11.8 5.2 -2.5
v 11.8 5.1 -2.5
v 11.8 5.1 -2.6
v 11.8 5.2 -2.6
v 11.7 5.2 -2.5
v 11.7 5.1 -2.5
v 11.8 5.1 -2.5
v 11.8 5.2 -2.5
v 11.8 5.2 -2.6
v 11.8 5.1 -2.6
v 11.7 5.1 -2.6
v 11.7 5.2 -2.6
v 12.4 5.2 -2.6
v 12.4 5.1 -2.6
v 12.4 5.1 -2.5
v 12.4 5.2 -2.5
v 12.5 5.2 -2.5
v 12.5 5.1 -2.5
v 12.5 5.1 -2.6
v 12.5 5.2 -2.6
v 12.4 5.2 -2.6
v 12.4 5.2 -2.5
v 12.5 5.2 -2.5
v 12.5 5.2 -2.6
v 12.4 5.2 -2.5
v 12.4 5.1 -2.5
v 12.5 5.1 -2.5
v 12.5 5.2 -2.5
v 12.5 5.2 -2.6
v 12.5 5.1 -2.6
v 12.4 5.1 -2.6
v 12.4 5.2 -2.6
v 10.3 5.1 -2.6
v 10.3 5 -2.6
v 10.3 5 -2.5
v 10.3 5.1 -2.5
v 10.3 5.1 -2.5
v 10.3 5 -2.5
v 10.4 5 -2.5
v 10.4 5.1 -2.5
v 10.4 5.1 -2.6
v 10.4 5 -2.6
v 10.3 5 -2.6
v 10.3 5.1 -2.6
v 10.5 5.1 -2.5
v 10.5 5 -2.5
v 10.5 5 -2.6
v 10.5 5.1 -2.6
v 10.4 5.1 -2.5
v 10.4 5 -2.5
v 10.5 5 -2.5
v 10.5 5.1 -2.5
v 10.5 5.1 -2.6
v 10.5 5 -2.6
v 10.4 5 -2.6
v 10.4 5.1 -2.6
v 11.3 5.1 -2.6
v 11.3 5 -2.6
v 11.3 5 -2.5
v 11.3 5.1 -2.5
v 11.3 5.1 -2.5
v 11.3 5 -2.5
v 11.4 5 -2.5
v 11.4 5.1 -2.5
v 11.4 5.1 -2.6
v 11.4 5 -2.6
v 11.3 5 -2.6
v 11.3 5.1 -2.6
v 11.4 5.1 -2.5
v 11.4 5 -2.5
v 11.5 5 -2.5
v 11.5 5.1 -2.5
v 11.5 5.1 -2.6
v 11.5 5 -2.6
v 11.4 5 -2.6
v 11.4 5.1 -2.6
v 11.5 5.1 -2.5
v 11.5 5 -2.5
v 11.6 5 -2.5
v 11.6 5.1 -2.5
v 11.6 5.1 -2.6
v 11.6 5 -2.6
v 11.5 5 -2.6
v 11.5 5.1 -2.6
v 11.6 5.1 -2.5
v 11.6 5 -2.5
v 11.7 5 -2.5
v 11.7 5.1 -2.5
v 11.7 5.1 -2.6
v 11.7 5 -2.6
v 11.6 5 -2.6
v 11.6 5.1 -2.6
v 11.8 5.1 -2.5
v 11.8 5 -2.5
v 11.8 5 -2.6
v 11.8 5.1 -2.6
v 11.7 5.1 -2.5
v 11.7 5 -2.5
v 11.8 5 -2.5
v 11.8 5.1 -2.5
v 11.8 5.1 -2.6
v 11.8 5 -2.6
v 11.7 5 -2.6
v 11.7 5.1 -2.6
v 12.4 5.1 -2.6
v 12.4 5 -2.6
v 12.4 5 -2.5
v 12.4 5.1 -2.5
v 12.5 5.1 -2.5
v 12.5 5 -2.5
v 12.5 5 -2.6
v 12.5 5.1 -2.6
v 12.4 5.1 -2.5
v 12.4 5 -2.5
v 12.5 5 -2.5
v 12.5 5.1 -2.5
v 12.5 5.1 -2.6
v 12.5 5 -2.6
v 12.4 5 -2.6
v 12.4 5.1 -2.6
v 10.3 5 -2.6
v 10.3 4.9 -2.6
v 10.3 4.9 -2.5
v 10.3 5 -2.5
v 10.3 4.9 -2.5
v 10.3 4.9 -2.6
v 10.4 4.9 -2.6
v 10.4 4.9 -2.5
v 10.3 5 -2.5
v 10.3 4.9 -2.5
v 10.4 4.9 -2.5
v 10.4 5 -2.5
v 10.4 5 -2.6
v 10.4 4.9 -2.6
v 10.3 4.9 -2.6
v 10.3 5 -2.6
v 10.5 5 -2.5
v 10.5 4.9 -2.5
v 10.5 4.9 -2.6
v 10.5 5 -2.6
v 10.4 5 -2.5
v 10.4 4.9 -2.5
v 10.5 4.9 -2.5
v 10.5 5 -2.5
v 10.5 5 -2.6
v 10.5 4.9 -2.6
v 10.4 4.9 -2.6
v 10.4 5 -2.6
v 11.3 5 -2.6
v 11.3 4.9 -2.6
v 11.3 4.9 -2.5
v 11.3 5 -2.5
v 11.3 4.9 -2.5
v 11.3 4.9 -2.6
v 11.4 4.9 -2.6
v 11.4 4.9 -2.5
v 11.3 5 -2.5
v 11.3 4.9 -2.5
v 11.4 4.9 -2.5
v 11.4 5 -2.5
v 11.4 5 -2.6
v 11.4 4.9 -2.6
v 11.3 4.9 -2.6
v 11.3 5 -2.6
v 11.4 5 -2.5
v 11.4 4.9 -2.5
v 11.5 4.9 -2.5
v 11.5 5 -2.5
v 11.5 5 -2.6
v 11.5 4.9 -2.6
v 11.4 4.9 -2.6
v 11.4 5 -2.6
v 11.5 5 -2.5
v 11.5 4.9 -2.5
v 11.6 4.9 -2.5
v 11.6 5 -2.5
v 11.6 5 -2.6
v 11.6 4.9 -2.6
v 11.5 4.9 -2.6
v 11.5 5 -2.6
v 11.6 5 -2.5
v 11.6 4.9 -2.5
v 11.7 4.9 -2.5
v 11.7 5 -2.5
v 11.7 5 -2.6
v 11.7 4.9 -2.6
v 11.6 4.9 -2.6
v 11.6 5 -2.6
v 11.8 5 -2.5
v 11.8 4.9 -2.5
v 11.8 4.9 -2.6
v 11.8 5 -2.6
v 11.7 5 -2.5
v 11.7 4.9 -2.5
v 11.8 4.9 -2.5
v 11.8 5 -2.5
v 11.8 5 -2.6
v 11.8 4.9 -2.6
v 11.7 4.9 -2.6
v 11.7 5 -2.6
v 12.4 5 -2.6
v 12.4 4.9 -2.6
v 12.4 4.9 -2.5
v 12.4 5 -2.5
v 12.5 5 -2.5
v 12.5 4.9 -2.5
v 12.5 4.9 -2.6
v 12.5 5 -2.6
v 12.4 4.9 -2.5
v 12.4 4.9 -2.6
v 12.5 4.9 -2.6
v 12.5 4.9 -2.5
v 12.4 5 -2.5
v 12.4 4.9 -2.5
v 12.5 4.9 -2.5
v 12.5 5 -2.5
v 12.5 5 -2.6
v 12.5 4.9 -2.6
v 12.4 4.9 -2.6
v 12.4 5 -2.6
v 10.4 4.9 -2.6
v 10.4 4.8 -2.6
v 10.4 4.8 -2.5
v 10.4 4.9 -2.5
v 10.5 4.9 -2.5
v 10.5 4.8 -2.5
v 10.5 4.8 -2.6
v 10.5 4.9 -2.6
v 10.4 4.8 -2.5
v 10.4 4.8 -2.6
v 10.5 4.8 -2.6
v 10.5 4.8 -2.5
v 10.4 4.9 -2.5
v 10.4 4.8 -2.5
v 10.5 4.8 -2.5
v 10.5 4.9 -2.5
v 10.5 4.9 -2.6
v 10.5 4.8 -2.6
v 10.4 4.8 -2.6
v 10.4 4.9 -2.6
v 11.4 4.9 -2.6
v 11.4 4.8 -2.6
v 11.4 4.8 -2.5
v 11.4 4.9 -2.5
v 11.4 4.9 -2.5
v 11.4 4.8 -2.5
v 11.5 4.8 -2.5
v 11.5 4.9 -2.5
v 11.5 4.9 -2.6
v 11.5 4.8 -2.6
v 11.4 4.8 -2.6
v 11.4 4.9 -2.6
v 11.5 4.9 -2.5
v 11.5 4.8 -2.5
v 11.6 4.8 -2.5
v 11.6 4.9 -2.5
v 11.6 4.9 -2.6
v 11.6 4.8 -2.6
v 11.5 4.8 -2.6
v 11.5 4.9 -2.6
v 11.6 4.9 -2.5
v 11.6 4.8 -2.5
v 11.7 4.8 -2.5
v 11.7 4.9 -2.5
v 11.7 4.9 -2.6
v 11.7 4.8 -2.6
v 11.6 4.8 -2.6
v 11.6 4.9 -2.6
v 11.8 4.9 -2.5
v 11.8 4.8 -2.5
v 11.8 4.8 -2.6
v 11.8 4.9 -2.6
v 11.7 4.9 -2.5
v 11.7 4.8 -2.5
v 11.8 4.8 -2.5
v 11.8 4.9 -2.5
v 11.8 4.9 -2.6
v 11.8 4.8 -2.6
v 11.7 4.8 -2.6
v 11.7 4.9 -2.6
v 12.3 4.9 -2.6
v 12.3 4.8 -2.6
v 12.3 4.8 -2.5
v 12.3 4.9 -2.5
v 12.4 4.9 -2.5
v 12.4 4.8 -2.5
v 12.4 4.8 -2.6
v 12.4 4.9 -2.6
v 12.3 4.9 -2.6
v 12.3 4.9 -2.5
v 12.4 4.9 -2.5
v 12.4 4.9 -2.6
v 12.3 4.9 -2.5
v 12.3 4.8 -2.5
v 12.4 4.8 -2.5
v 12.4 4.9 -2.5
v 12.4 4.9 -2.6
v 12.4 4.8 -2.6
v 12.3 4.8 -2.6
v 12.3 4.9 -2.6
v 11.4 4.8 -2.6
v 11.4 4.7 -2.6
v 11.4 4.7 -2.5
v 11.4 4.8 -2.5
v 11.4 4.8 -2.5
v 11.4 4.7 -2.5
v 11.5 4.7 -2.5
v 11.5 4.8 -2.5
v 11.5 4.8 -2.6
v 11.5 4.7 -2.6
v 11.4 4.7 -2.6
v 11.4 4.8 -2.6
v 11.5 4.8 -2.5
v 11.5 4.7 -2.5
v 11.6 4.7 -2.5
v 11.6 4.8 -2.5
v 11.6 4.8 -2.6
v 11.6 4.7 -2.6
v 11.5 4.7 -2.6
v 11.5 4.8 -2.6
v 11.6 4.8 -2.5
v 11.6 4.7 -2.5
v 11.7 4.7 -2.5
v 11.7 4.8 -2.5
v 11.7 4.8 -2.6
v 11.7 4.7 -2.6
v 11.6 4.7 -2.6
v 11.6 4.8 -2.6
v 11.8 4.8 -2.5
v 11.8 4.7 -2.5
v 11.8 4.7 -2.6
v 11.8 4.8 -2.6
v 11.7 4.8 -2.5
v 11.7 4.7 -2.5
v 11.8 4.7 -2.5
v 11.8 4.8 -2.5
v 11.8 4.8 -2.6
v 11.8 4.7 -2.6
v 11.7 4.7 -2.6
v 11.7 4.8 -2.6
v 12.3 4.8 -2.6
v 12.3 4.7 -2.6
v 12.3 4.7 -2.5
v 12.3 4.8 -2.5
v 12.4 4.8 -2.5
v 12.4 4.7 -2.5
v 12.4 4.7 -2.6
v 12.4 4.8 -2.6
v 12.3 4.8 -2.5
v 12.3 4.7 -2.5
v 12.4 4.7 -2.5
v 12.4 4.8 -2.5
v 12.4 4.8 -2.6
v 12.4 4.7 -2.6
v 12.3 4.7 -2.6
v 12.3 4.8 -2.6
v 9.7 4.7 -2.6
v 9.7 4.6 -2.6
v 9.7 4.6 -2.5
v 9.7 4.7 -2.5
v 9.8 4.7 -2.5
v 9.8 4.6 -2.5
v 9.8 4.6 -2.6
v 9.8 4.7 -2.6
v 9.7 4.7 -2.6
v 9.7 4.7 -2.5
v 9.8 4.7 -2.5
v 9.8 4.7 -2.6
v 9.7 4.6 -2.5
v 9.7 4.6 -2.6
v 9.8 4.6 -2.6
v 9.8 4.6 -2.5
v 9.7 4.7 -2.5
v 9.7 4.6 -2.5
v 9.8 4.6 -2.5
v 9.8 4.7 -2.5
v 9.8 4.7 -2.6
v 9.8 4.6 -2.6
v 9.7 4.6 -2.6
v 9.7 4.7 -2.6
v 11.4 4.7 -2.6
v 11.4 4.6 -2.6
v 11.4 4.6 -2.5
v 11.4 4.7 -2.5
v 11.4 4.7 -2.5
v 11.4 4.6 -2.5
v 11.5 4.6 -2.5
v 11.5 4.7 -2.5
v 11.5 4.7 -2.6
v 11.5 4.6 -2.6
v 11.4 4.6 -2.6
v 11.4 4.7 -2.6
v 11.5 4.7 -2.5
v 11.5 4.6 -2.5
v 11.6 4.6 -2.5
v 11.6 4.7 -2.5
v 11.6 4.7 -2.6
v 11.6 4.6 -2.6
v 11.5 4.6 -2.6
v 11.5 4.7 -2.6
v 11.6 4.7 -2.5
v 11.6 4.6 -2.5
v 11.7 4.6 -2.5
v 11.7 4.7 -2.5
v 11.7 4.7 -2.6
v 11.7 4.6 -2.6
v 11.6 4.6 -2.6
v 11.6 4.7 -2.6
v 11.8 4.7 -2.5
v 11.8 4.6 -2.5
v 11.8 4.6 -2.6
v 11.8 4.7 -2.6
v 11.7 4.7 -2.5
v 11.7 4.6 -2.5
v 11.8 4.6 -2.5
v 11.8 4.7 -2.5
v 11.8 4.7 -2.6
v 11.8 4.6 -2.6
v 11.7 4.6 -2.6
v 11.7 4.7 -2.6
v 12.2 4.7 -2.6
v 12.2 4.6 -2.6
v 12.2 4.6 -2.5
v 12.2 4.7 -2.5
v 12.2 4.7 -2.6
v 12.2 4.7 -2.5
v 12.3 4.7 -2.5
v 12.3 4.7 -2.6
v 12.2 4.7 -2.5
v 12.2 4.6 -2.5
v 12.3 4.6 -2.5
v 12.3 4.7 -2.5
v 12.3 4.7 -2.6
v 12.3 4.6 -2.6
v 12.2 4.6 -2.6
v 12.2 4.7 -2.6
v 12.4 4.7 -2.5
v 12.4 4.6 -2.5
v 12.4 4.6 -2.6
v 12.4 4.7 -2.6
v 12.3 4.7 -2.5
v 12.3 4.6 -2.5
v 12.4 4.6 -2.5
v 12.4 4.7 -2.5
v 12.4 4.7 -2.6
v 12.4 4.6 -2.6
v 12.3 4.6 -2.6
v 12.3 4.7 -2.6
v 11.4 4.6 -2.6
v 11.4 4.5 -2.6
v 11.4 4.5 -2.5
v 11.4 4.6 -2.5
v 11.4 4.6 -2.5
v 11.4 4.5 -2.5
v 11.5 4.5 -2.5
v 11.5 4.6 -2.5
v 11.5 4.6 -2.6
v 11.5 4.5 -2.6
v 11.4 4.5 -2.6
v 11.4 4.6 -2.6
v 11.5 4.6 -2.5
v 11.5 4.5 -2.5
v 11.6 4.5 -2.5
v 11.6 4.6 -2.5
v 11.6 4.6 -2.6
v 11.6 4.5 -2.6
v 11.5 4.5 -2.6
v 11.5 4.6 -2.6
v 11.6 4.6 -2.5
v 11.6 4.5 -2.5
v 11.7 4.5 -2.5
v 11.7 4.6 -2.5
v 11.7 4.6 -2.6
v 11.7 4.5 -2.6
v 11.6 4.5 -2.6
v 11.6 4.6 -2.6
v 11.8 4.6 -2.5
v 11.8 4.5 -2.5
v 11.8 4.5 -2.6
v 11.8 4.6 -2.6
v 11.7 4.6 -2.5
v 11.7 4.5 -2.5
v 11.8 4.5 -2.5
v 11.8 4.6 -2.5
v 11.8 4.6 -2.6
v 11.8 4.5 -2.6
v 11.7 4.5 -2.6
v 11.7 4.6 -2.6
v 12.2 4.6 -2.6
v 12.2 4.5 -2.6
v 12.2 4.5 -2.5
v 12.2 4.6 -2.5
v 12.2 4.6 -2.5
v 12.2 4.5 -2.5
v 12.3 4.5 -2.5
v 12.3 4.6 -2.5
v 12.3 4.6 -2.6
v 12.3 4.5 -2.6
v 12.2 4.5 -2.6
v 12.2 4.6 -2.6
v 12.4 4.6 -2.5
v 12.4 4.5 -2.5
v 12.4 4.5 -2.6
v 12.4 4.6 -2.6
v 12.3 4.6 -2.5
v 12.3 4.5 -2.5
v 12.4 4.5 -2.5
v 12.4 4.6 -2.5
v 12.4 4.6 -2.6
v 12.4 4.5 -2.6
v 12.3 4.5 -2.6
v 12.3 4.6 -2.6
v 9.9 4.5 -2.6
v 9.9 4.4 -2.6
v 9.9 4.4 -2.5
v 9.9 4.5 -2.5
v 10 4.5 -2.5
v 10 4.4 -2.5
v 10 4.4 -2.6
v 10 4.5 -2.6
v 9.9 4.5 -2.6
v 9.9 4.5 -2.5
v 10 4.5 -2.5
v 10 4.5 -2.6
v 9.9 4.4 -2.5
v 9.9 4.4 -2.6
v 10 4.4 -2.6
v 10 4.4 -2.5
v 9.9 4.5 -2.5
v 9.9 4.4 -2.5
v 10 4.4 -2.5
v 10 4.5 -2.5
v 10 4.5 -2.6
v 10 4.4 -2.6
v 9.9 4.4 -2.6
v 9.9 4.5 -2.6
v 11.4 4.5 -2.6
v 11.4 4.4 -2.6
v 11.4 4.4 -2.5
v 11.4 4.5 -2.5
v 11.4 4.5 -2.5
v 11.4 4.4 -2.5
v 11.5 4.4 -2.5
v 11.5 4.5 -2.5
v 11.5 4.5 -2.6
v 11.5 4.4 -2.6
v 11.4 4.4 -2.6
v 11.4 4.5 -2.6
v 11.5 4.5 -2.5
v 11.5 4.4 -2.5
v 11.6 4.4 -2.5
v 11.6 4.5 -2.5
v 11.6 4.5 -2.6
v 11.6 4.4 -2.6
v 11.5 4.4 -2.6
v 11.5 4.5 -2.6
v 11.6 4.5 -2.5
v 11.6 4.4 -2.5
v 11.7 4.4 -2.5
v 11.7 4.5 -2.5
v 11.7 4.5 -2.6
v 11.7 4.4 -2.6
v 11.6 4.4 -2.6
v 11.6 4.5 -2.6
v 11.8 4.5 -2.5
v 11.8 4.4 -2.5
v 11.8 4.4 -2.6
v 11.8 4.5 -2.6
v 11.7 4.5 -2.5
v 11.7 4.4 -2.5
v 11.8 4.4 -2.5
v 11.8 4.5 -2.5
v 11.8 4.5 -2.6
v 11.8 4.4 -2.6
v 11.7 4.4 -2.6
v 11.7 4.5 -2.6
v 12.1 4.5 -2.6
v 12.1 4.4 -2.6
v 12.1 4.4 -2.5
v 12.1 4.5 -2.5
v 12.1 4.5 -2.6
v 12.1 4.5 -2.5
v 12.2 4.5 -2.5
v 12.2 4.5 -2.6
v 12.1 4.5 -2.5
v 12.1 4.4 -2.5
v 12.2 4.4 -2.5
v 12.2 4.5 -2.5
v 12.2 4.5 -2.6
v 12.2 4.4 -2.6
v 12.1 4.4 -2.6
v 12.1 4.5 -2.6
v 12.2 4.5 -2.5
v 12.2 4.4 -2.5
v 12.3 4.4 -2.5
v 12.3 4.5 -2.5
v 12.3 4.5 -2.6
v 12.3 4.4 -2.6
v 12.2 4.4 -2.6
v 12.2 4.5 -2.6
v 12.4 4.5 -2.5
v 12.4 4.4 -2.5
v 12.4 4.4 -2.6
v 12.4 4.5 -2.6
v 12.3 4.5 -2.5
v 12.3 4.4 -2.5
v 12.4 4.4 -2.5
v 12.4 4.5 -2.5
v 12.4 4.5 -2.6
v 12.4 4.4 -2.6
v 12.3 4.4 -2.6
v 12.3 4.5 -2.6
v 10 4.4 -2.6
v 10 4.3 -2.6
v 10 4.3 -2.5
v 10 4.4 -2.5
v 10.1 4.4 -2.5
v 10.1 4.3 -2.5
v 10.1 4.3 -2.6
v 10.1 4.4 -2.6
v 10 4.4 -2.6
v 10 4.4 -2.5
v 10.1 4.4 -2.5
v 10.1 4.4 -2.6
v 10 4.4 -2.5
v 10 4.3 -2.5
v 10.1 4.3 -2.5
v 10.1 4.4 -2.5
v 10.1 4.4 -2.6
v 10.1 4.3 -2.6
v 10 4.3 -2.6
v 10 4.4 -2.6
v 11.4 4.4 -2.6
v 11.4 4.3 -2.6
v 11.4 4.3 -2.5
v 11.4 4.4 -2.5
v 11.4 4.4 -2.5
v 11.4 4.3 -2.5
v 11.5 4.3 -2.5
v 11.5 4.4 -2.5
v 11.5 4.4 -2.6
v 11.5 4.3 -2.6
v 11.4 4.3 -2.6
v 11.4 4.4 -2.6
v 11.5 4.4 -2.5
v 11.5 4.3 -2.5
v 11.6 4.3 -2.5
v 11.6 4.4 -2.5
v 11.6 4.4 -2.6
v 11.6 4.3 -2.6
v 11.5 4.3 -2.6
v 11.5 4.4 -2.6
v 11.6 4.4 -2.5
v 11.6 4.3 -2.5
v 11.7 4.3 -2.5
v 11.7 4.4 -2.5
v 11.7 4.4 -2.6
v 11.7 4.3 -2.6
v 11.6 4.3 -2.6
v 11.6 4.4 -2.6
v 11.8 4.4 -2.5
v 11.8 4.3 -2.5
v 11.8 4.3 -2.6
v 11.8 4.4 -2.6
v 11.7 4.4 -2.5
v 11.7 4.3 -2.5
v 11.8 4.3 -2.5
v 11.8 4.4 -2.5
v 11.8 4.4 -2.6
v 11.8 4.3 -2.6
v 11.7 4.3 -2.6
v 11.7 4.4 -2.6
v 12.1 4.4 -2.6
v 12.1 4.3 -2.6
v 12.1 4.3 -2.5
v 12.1 4.4 -2.5
v 12.1 4.4 -2.5
v 12.1 4.3 -2.5
v 12.2 4.3 -2.5
v 12.2 4.4 -2.5
v 12.2 4.4 -2.6
v 12.2 4.3 -2.6
v 12.1 4.3 -2.6
v 12.1 4.4 -2.6
v 12.2 4.4 -2.5
v 12.2 4.3 -2.5
v 12.3 4.3 -2.5
v 12.3 4.4 -2.5
v 12.3 4.4 -2.6
v 12.3 4.3 -2.6
v 12.2 4.3 -2.6
v 12.2 4.4 -2.6
v 12.4 4.4 -2.5
v 12.4 4.3 -2.5
v 12.4 4.3 -2.6
v 12.4 4.4 -2.6
v 12.3 4.3 -2.5
v 12.3 4.3 -2.6
v 12.4 4.3 -2.6
v 12.4 4.3 -2.5
v 12.3 4.4 -2.5
v 12.3 4.3 -2.5
v 12.4 4.3 -2.5
v 12.4 4.4 -2.5
v 12.4 4.4 -2.6
v 12.4 4.3 -2.6
v 12.3 4.3 -2.6
v 12.3 4.4 -2.6
v 10 4.3 -2.6
v 10 4.2 -2.6
v 10 4.2 -2.5
v 10 4.3 -2.5
v 10 4.2 -2.5
v 10 4.2 -2.6
v 10.1 4.2 -2.6
v 10.1 4.2 -2.5
v 10 4.3 -2.5
v 10 4.2 -2.5
v 10.1 4.2 -2.5
v 10.1 4.3 -2.5
v 10.1 4.3 -2.6
v 10.1 4.2 -2.6
v 10 4.2 -2.6
v 10 4.3 -2.6
v 10.2 4.3 -2.5
v 10.2 4.2 -2.5
v 10.2 4.2 -2.6
v 10.2 4.3 -2.6
v 10.1 4.3 -2.6
v 10.1 4.3 -2.5
v 10.2 4.3 -2.5
v 10.2 4.3 -2.6
v 10.1 4.3 -2.5
v 10.1 4.2 -2.5
v 10.2 4.2 -2.5
v 10.2 4.3 -2.5
v 10.2 4.3 -2.6
v 10.2 4.2 -2.6
v 10.1 4.2 -2.6
v 10.1 4.3 -2.6
v 11.4 4.3 -2.6
v 11.4 4.2 -2.6
v 11.4 4.2 -2.5
v 11.4 4.3 -2.5
v 11.4 4.3 -2.5
v 11.4 4.2 -2.5
v 11.5 4.2 -2.5
v 11.5 4.3 -2.5
v 11.5 4.3 -2.6
v 11.5 4.2 -2.6
v 11.4 4.2 -2.6
v 11.4 4.3 -2.6
v 11.5 4.3 -2.5
v 11.5 4.2 -2.5
v 11.6 4.2 -2.5
v 11.6 4.3 -2.5
v 11.6 4.3 -2.6
v 11.6 4.2 -2.6
v 11.5 4.2 -2.6
v 11.5 4.3 -2.6
v 11.6 4.3 -2.5
v 11.6 4.2 -2.5
v 11.7 4.2 -2.5
v 11.7 4.3 -2.5
v 11.7 4.3 -2.6
v 11.7 4.2 -2.6
v 11.6 4.2 -2.6
v 11.6 4.3 -2.6
v 11.8 4.3 -2.5
v 11.8 4.2 -2.5
v 11.8 4.2 -2.6
v 11.8 4.3 -2.6
v 11.7 4.3 -2.5
v 11.7 4.2 -2.5
v 11.8 4.2 -2.5
v 11.8 4.3 -2.5
v 11.8 4.3 -2.6
v 11.8 4.2 -2.6
v 11.7 4.2 -2.6
v 11.7 4.3 -2.6
v 12 4.3 -2.6
v 12 4.2 -2.6
v 12 4.2 -2.5
v 12 4.3 -2.5
v 12 4.3 -2.6
v 12 4.3 -2.5
v 12.1 4.3 -2.5
v 12.1 4.3 -2.6
v 12 4.3 -2.5
v 12 4.2 -2.5
v 12.1 4.2 -2.5
v 12.1 4.3 -2.5
v 12.1 4.3 -2.6
v 12.1 4.2 -2.6
v 12 4.2 -2.6
v 12 4.3 -2.6
v 12.1 4.3 -2.5
v 12.1 4.2 -2.5
v 12.2 4.2 -2.5
v 12.2 4.3 -2.5
v 12.2 4.3 -2.6
v 12.2 4.2 -2.6
v 12.1 4.2 -2.6
v 12.1 4.3 -2.6
v 12.3 4.3 -2.5
v 12.3 4.2 -2.5
v 12.3 4.2 -2.6
v 12.3 4.3 -2.6
v 12.2 4.3 -2.5
v 12.2 4.2 -2.5
v 12.3 4.2 -2.5
v 12.3 4.3 -2.5
v 12.3 4.3 -2.6
v 12.3 4.2 -2.6
v 12.2 4.2 -2.6
v 12.2 4.3 -2.6
v 10.1 4.2 -2.6
v 10.1 4.1 -2.6
v 10.1 4.1 -2.5
v 10.1 4.2 -2.5
v 10.1 4.2 -2.5
v 10.1 4.1 -2.5
v 10.2 4.1 -2.5
v 10.2 4.2 -2.5
v 10.2 4.2 -2.6
v 10.2 4.1 -2.6
v 10.1 4.1 -2.6
v 10.1 4.2 -2.6
v 10.3 4.2 -2.5
v 10.3 4.1 -2.5
v 10.3 4.1 -2.6
v 10.3 4.2 -2.6
v 10.2 4.2 -2.6
v 10.2 4.2 -2.5
v 10.3 4.2 -2.5
v 10.3 4.2 -2.6
v 10.2 4.2 -2.5
v 10.2 4.1 -2.5
v 10.3 4.1 -2.5
v 10.3 4.2 -2.5
v 10.3 4.2 -2.6
v 10.3 4.1 -2.6
v 10.2 4.1 -2.6
v 10.2 4.2 -2.6
v 11.4 4.2 -2.6
v 11.4 4.1 -2.6
v 11.4 4.1 -2.5
v 11.4 4.2 -2.5
v 11.4 4.2 -2.5
v 11.4 4.1 -2.5
v 11.5 4.1 -2.5
v 11.5 4.2 -2.5
v 11.5 4.2 -2.6
v 11.5 4.1 -2.6
v 11.4 4.1 -2.6
v 11.4 4.2 -2.6
v 11.5 4.2 -2.5
v 11.5 4.1 -2.5
v 11.6 4.1 -2.5
v 11.6 4.2 -2.5
v 11.6 4.2 -2.6
v 11.6 4.1 -2.6
v 11.5 4.1 -2.6
v 11.5 4.2 -2.6
v 11.6 4.2 -2.5
v 11.6 4.1 -2.5
v 11.7 4.1 -2.5
v 11.7 4.2 -2.5
v 11.7 4.2 -2.6
v 11.7 4.1 -2.6
v 11.6 4.1 -2.6
v 11.6 4.2 -2.6
v 11.8 4.2 -2.5
v 11.8 4.1 -2.5
v 11.8 4.1 -2.6
v 11.8 4.2 -2.6
v 11.7 4.1 -2.5
v 11.7 4.1 -2.6
v 11.8 4.1 -2.6
v 11.8 4.1 -2.5
v 11.7 4.2 -2.5
v 11.7 4.1 -2.5
v 11.8 4.1 -2.5
v 11.8 4.2 -2.5
v 11.8 4.2 -2.6
v 11.8 4.1 -2.6
v 11.7 4.1 -2.6
v 11.7 4.2 -2.6
v 12 4.2 -2.6
v 12 4.1 -2.6
v 12 4.1 -2.5
v 12 4.2 -2.5
v 12 4.2 -2.5
v 12 4.1 -2.5
v 12.1 4.1 -2.5
v 12.1 4.2 -2.5
v 12.1 4.2 -2.6
v 12.1 4.1 -2.6
v 12 4.1 -2.6
v 12 4.2 -2.6
v 12.1 4.2 -2.5
v 12.1 4.1 -2.5
v 12.2 4.1 -2.5
v 12.2 4.2 -2.5
v 12.2 4.2 -2.6
v 12.2 4.1 -2.6
v 12.1 4.1 -2.6
v 12.1 4.2 -2.6
v 12.3 4.2 -2.5
v 12.3 4.1 -2.5
v 12.3 4.1 -2.6
v 12.3 4.2 -2.6
v 12.2 4.2 -2.5
v 12.2 4.1 -2.5
v 12.3 4.1 -2.5
v 12.3 4.2 -2.5
v 12.3 4.2 -2.6
v 12.3 4.1 -2.6
v 12.2 4.1 -2.6
v 12.2 4.2 -2.6
v 10.1 4.1 -2.6
v 10.1 4 -2.6
v 10.1 4 -2.5
v 10.1 4.1 -2.5
v 10.1 4 -2.5
v 10.1 4 -2.6
v 10.2 4 -2.6
v 10.2 4 -2.5
v 10.1 4.1 -2.5
v 10.1 4 -2.5
v 10.2 4 -2.5
v 10.2 4.1 -2.5
v 10.2 4.1 -2.6
v 10.2 4 -2.6
v 10.1 4 -2.6
v 10.1 4.1 -2.6
v 10.2 4.1 -2.5
v 10.2 4 -2.5
v 10.3 4 -2.5
v 10.3 4.1 -2.5
v 10.3 4.1 -2.6
v 10.3 4 -2.6
v 10.2 4 -2.6
v 10.2 4.1 -2.6
v 10.4 4.1 -2.5
v 10.4 4 -2.5
v 10.4 4 -2.6
v 10.4 4.1 -2.6
v 10.3 4.1 -2.6
v 10.3 4.1 -2.5
v 10.4 4.1 -2.5
v 10.4 4.1 -2.6
v 10.3 4.1 -2.5
v 10.3 4 -2.5
v 10.4 4 -2.5
v 10.4 4.1 -2.5
v 10.4 4.1 -2.6
v 10.4 4 -2.6
v 10.3 4 -2.6
v 10.3 4.1 -2.6
v 11.4 4.1 -2.6
v 11.4 4 -2.6
v 11.4 4 -2.5
v 11.4 4.1 -2.5
v 11.4 4 -2.5
v 11.4 4 -2.6
v 11.5 4 -2.6
v 11.5 4 -2.5
v 11.4 4.1 -2.5
v 11.4 4 -2.5
v 11.5 4 -2.5
v 11.5 4.1 -2.5
v 11.5 4.1 -2.6
v 11.5 4 -2.6
v 11.4 4 -2.6
v 11.4 4.1 -2.6
v 11.5 4.1 -2.5
v 11.5 4 -2.5
v 11.6 4 -2.5
v 11.6 4.1 -2.5
v 11.6 4.1 -2.6
v 11.6 4 -2.6
v 11.5 4 -2.6
v 11.5 4.1 -2.6
v 11.7 4.1 -2.5
v 11.7 4 -2.5
v 11.7 4 -2.6
v 11.7 4.1 -2.6
v 11.6 4.1 -2.5
v 11.6 4 -2.5
v 11.7 4 -2.5
v 11.7 4.1 -2.5
v 11.7 4.1 -2.6
v 11.7 4 -2.6
v 11.6 4 -2.6
v 11.6 4.1 -2.6
v 11.9 4.1 -2.6
v 11.9 4 -2.6
v 11.9 4 -2.5
v 11.9 4.1 -2.5
v 11.9 4.1 -2.6
v 11.9 4.1 -2.5
v 12 4.1 -2.5
v 12 4.1 -2.6
v 11.9 4.1 -2.5
v 11.9 4 -2.5
v 12 4 -2.5
v 12 4.1 -2.5
v 12 4.1 -2.6
v 12 4 -2.6
v 11.9 4 -2.6
v 11.9 4.1 -2.6
v 12 4.1 -2.5
v 12 4 -2.5
v 12.1 4 -2.5
v 12.1 4.1 -2.5
v 12.1 4.1 -2.6
v 12.1 4 -2.6
v 12 4 -2.6
v 12 4.1 -2.6
v 12.1 4.1 -2.5
v 12.1 4 -2.5
v 12.2 4 -2.5
v 12.2 4.1 -2.5
v 12.2 4.1 -2.6
v 12.2 4 -2.6
v 12.1 4 -2.6
v 12.1 4.1 -2.6
v 12.3 4.1 -2.5
v 12.3 4 -2.5
v 12.3 4 -2.6
v 12.3 4.1 -2.6
v 12.2 4.1 -2.5
v 12.2 4 -2.5
v 12.3 4 -2.5
v 12.3 4.1 -2.5
v 12.3 4.1 -2.6
v 12.3 4 -2.6
v 12.2 4 -2.6
v 12.2 4.1 -2.6
v 10.2 4 -2.6
v 10.2 3.9 -2.6
v 10.2 3.9 -2.5
v 10.2 4 -2.5
v 10.2 4 -2.5
v 10.2 3.9 -2.5
v 10.3 3.9 -2.5
v 10.3 4 -2.5
v 10.3 4 -2.6
v 10.3 3.9 -2.6
v 10.2 3.9 -2.6
v 10.2 4 -2.6
v 10.3 4 -2.5
v 10.3 3.9 -2.5
v 10.4 3.9 -2.5
v 10.4 4 -2.5
v 10.4 4 -2.6
v 10.4 3.9 -2.6
v 10.3 3.9 -2.6
v 10.3 4 -2.6
v 10.5 4 -2.5
v 10.5 3.9 -2.5
v 10.5 3.9 -2.6
v 10.5 4 -2.6
v 10.4 4 -2.6
v 10.4 4 -2.5
v 10.5 4 -2.5
v 10.5 4 -2.6
v 10.4 4 -2.5
v 10.4 3.9 -2.5
v 10.5 3.9 -2.5
v 10.5 4 -2.5
v 10.5 4 -2.6
v 10.5 3.9 -2.6
v 10.4 3.9 -2.6
v 10.4 4 -2.6
v 10.7 4 -2.6
v 10.7 3.9 -2.6
v 10.7 3.9 -2.5
v 10.7 4 -2.5
v 10.8 4 -2.5
v 10.8 3.9 -2.5
v 10.8 3.9 -2.6
v 10.8 4 -2.6
v 10.7 4 -2.6
v 10.7 4 -2.5
v 10.8 4 -2.5
v 10.8 4 -2.6
v 10.7 4 -2.5
v 10.7 3.9 -2.5
v 10.8 3.9 -2.5
v 10.8 4 -2.5
v 10.8 4 -2.6
v 10.8 3.9 -2.6
v 10.7 3.9 -2.6
v 10.7 4 -2.6
v 11.5 4 -2.6
v 11.5 3.9 -2.6
v 11.5 3.9 -2.5
v 11.5 4 -2.5
v 11.5 4 -2.5
v 11.5 3.9 -2.5
v 11.6 3.9 -2.5
v 11.6 4 -2.5
v 11.6 4 -2.6
v 11.6 3.9 -2.6
v 11.5 3.9 -2.6
v 11.5 4 -2.6
v 11.7 4 -2.5
v 11.7 3.9 -2.5
v 11.7 3.9 -2.6
v 11.7 4 -2.6
v 11.6 4 -2.5
v 11.6 3.9 -2.5
v 11.7 3.9 -2.5
v 11.7 4 -2.5
v 11.7 4 -2.6
v 11.7 3.9 -2.6
v 11.6 3.9 -2.6
v 11.6 4 -2.6
v 11.9 4 -2.6
v 11.9 3.9 -2.6
v 11.9 3.9 -2.5
v 11.9 4 -2.5
v 11.9 4 -2.5
v 11.9 3.9 -2.5
v 12 3.9 -2.5
v 12 4 -2.5
v 12 4 -2.6
v 12 3.9 -2.6
v 11.9 3.9 -2.6
v 11.9 4 -2.6
v 12 4 -2.5
v 12 3.9 -2.5
v 12.1 3.9 -2.5
v 12.1 4 -2.5
v 12.1 4 -2.6
v 12.1 3.9 -2.6
v 12 3.9 -2.6
v 12 4 -2.6
v 12.1 4 -2.5
v 12.1 3.9 -2.5
v 12.2 3.9 -2.5
v 12.2 4 -2.5
v 12.2 4 -2.6
v 12.2 3.9 -2.6
v 12.1 3.9 -2.6
v 12.1 4 -2.6
v 12.3 4 -2.5
v 12.3 3.9 -2.5
v 12.3 3.9 -2.6
v 12.3 4 -2.6
v 12.2 4 -2.5
v 12.2 3.9 -2.5
v 12.3 3.9 -2.5
v 12.3 4 -2.5
v 12.3 4 -2.6
v 12.3 3.9 -2.6
v 12.2 3.9 -2.6
v 12.2 4 -2.6
v 10.2 3.9 -2.6
v 10.2 3.8 -2.6
v 10.2 3.8 -2.5
v 10.2 3.9 -2.5
v 10.2 3.8 -2.5
v 10.2 3.8 -2.6
v 10.3 3.8 -2.6
v 10.3 3.8 -2.5
v 10.2 3.9 -2.5
v 10.2 3.8 -2.5
v 10.3 3.8 -2.5
v 10.3 3.9 -2.5
v 10.3 3.9 -2.6
v 10.3 3.8 -2.6
v 10.2 3.8 -2.6
v 10.2 3.9 -2.6
v 10.3 3.9 -2.5
v 10.3 3.8 -2.5
v 10.4 3.8 -2.5
v 10.4 3.9 -2.5
v 10.4 3.9 -2.6
v 10.4 3.8 -2.6
v 10.3 3.8 -2.6
v 10.3 3.9 -2.6
v 10.4 3.9 -2.5
v 10.4 3.8 -2.5
v 10.5 3.8 -2.5
v 10.5 3.9 -2.5
v 10.5 3.9 -2.6
v 10.5 3.8 -2.6
v 10.4 3.8 -2.6
v 10.4 3.9 -2.6
v 10.6 3.9 -2.5
v 10.6 3.8 -2.5
v 10.6 3.8 -2.6
v 10.6 3.9 -2.6
v 10.5 3.9 -2.6
v 10.5 3.9 -2.5
v 10.6 3.9 -2.5
v 10.6 3.9 -2.6
v 10.5 3.9 -2.5
v 10.5 3.8 -2.5
v 10.6 3.8 -2.5
v 10.6 3.9 -2.5
v 10.6 3.9 -2.6
v 10.6 3.8 -2.6
v 10.5 3.8 -2.6
v 10.5 3.9 -2.6
v 10.7 3.9 -2.6
v 10.7 3.8 -2.6
v 10.7 3.8 -2.5
v 10.7 3.9 -2.5
v 10.8 3.9 -2.5
v 10.8 3.8 -2.5
v 10.8 3.8 -2.6
v 10.8 3.9 -2.6
v 10.7 3.9 -2.5
v 10.7 3.8 -2.5
v 10.8 3.8 -2.5
v 10.8 3.9 -2.5
v 10.8 3.9 -2.6
v 10.8 3.8 -2.6
v 10.7 3.8 -2.6
v 10.7 3.9 -2.6
v 11.5 3.9 -2.6
v 11.5 3.8 -2.6
v 11.5 3.8 -2.5
v 11.5 3.9 -2.5
v 11.5 3.9 -2.5
v 11.5 3.8 -2.5
v 11.6 3.8 -2.5
v 11.6 3.9 -2.5
v 11.6 3.9 -2.6
v 11.6 3.8 -2.6
v 11.5 3.8 -2.6
v 11.5 3.9 -2.6
v 11.7 3.9 -2.5
v 11.7 3.8 -2.5
v 11.7 3.8 -2.6
v 11.7 3.9 -2.6
v 11.6 3.9 -2.5
v 11.6 3.8 -2.5
v 11.7 3.8 -2.5
v 11.7 3.9 -2.5
v 11.7 3.9 -2.6
v 11.7 3.8 -2.6
v 11.6 3.8 -2.6
v 11.6 3.9 -2.6
v 11.9 3.9 -2.6
v 11.9 3.8 -2.6
v 11.9 3.8 -2.5
v 11.9 3.9 -2.5
v 11.9 3.9 -2.5
v 11.9 3.8 -2.5
v 12 3.8 -2.5
v 12 3.9 -2.5
v 12 3.9 -2.6
v 12 3.8 -2.6
v 11.9 3.8 -2.6
v 11.9 3.9 -2.6
v 12 3.9 -2.5
v 12 3.8 -2.5
v 12.1 3.8 -2.5
v 12.1 3.9 -2.5
v 12.1 3.9 -2.6
v 12.1 3.8 -2.6
v 12 3.8 -2.6
v 12 3.9 -2.6
v 12.1 3.9 -2.5
v 12.1 3.8 -2.5
v 12.2 3.8 -2.5
v 12.2 3.9 -2.5
v 12.2 3.9 -2.6
v 12.2 3.8 -2.6
v 12.1 3.8 -2.6
v 12.1 3.9 -2.6
v 12.3 3.9 -2.5
v 12.3 3.8 -2.5
v 12.3 3.8 -2.6
v 12.3 3.9 -2.6
v 12.2 3.9 -2.5
v 12.2 3.8 -2.5
v 12.3 3.8 -2.5
v 12.3 3.9 -2.5
v 12.3 3.9 -2.6
v 12.3 3.8 -2.6
v 12.2 3.8 -2.6
v 12.2 3.9 -2.6
v 10.3 3.8 -2.6
v 10.3 3.7 -2.6
v 10.3 3.7 -2.5
v 10.3 3.8 -2.5
v 10.3 3.7 -2.5
v 10.3 3.7 -2.6
v 10.4 3.7 -2.6
v 10.4 3.7 -2.5
v 10.3 3.8 -2.5
v 10.3 3.7 -2.5
v 10.4 3.7 -2.5
v 10.4 3.8 -2.5
v 10.4 3.8 -2.6
v 10.4 3.7 -2.6
v 10.3 3.7 -2.6
v 10.3 3.8 -2.6
v 10.4 3.8 -2.5
v 10.4 3.7 -2.5
v 10.5 3.7 -2.5
v 10.5 3.8 -2.5
v 10.5 3.8 -2.6
v 10.5 3.7 -2.6
v 10.4 3.7 -2.6
v 10.4 3.8 -2.6
v 10.5 3.8 -2.5
v 10.5 3.7 -2.5
v 10.6 3.7 -2.5
v 10.6 3.8 -2.5
v 10.6 3.8 -2.6
v 10.6 3.7 -2.6
v 10.5 3.7 -2.6
v 10.5 3.8 -2.6
v 10.6 3.8 -2.6
v 10.6 3.8 -2.5
v 10.7 3.8 -2.5
v 10.7 3.8 -2.6
v 10.6 3.8 -2.5
v 10.6 3.7 -2.5
v 10.7 3.7 -2.5
v 10.7 3.8 -2.5
v 10.7 3.8 -2.6
v 10.7 3.7 -2.6
v 10.6 3.7 -2.6
v 10.6 3.8 -2.6
v 10.7 3.8 -2.5
v 10.7 3.7 -2.5
v 10.8 3.7 -2.5
v 10.8 3.8 -2.5
v 10.8 3.8 -2.6
v 10.8 3.7 -2.6
v 10.7 3.7 -2.6
v 10.7 3.8 -2.6
v 10.9 3.8 -2.5
v 10.9 3.7 -2.5
v 10.9 3.7 -2.6
v 10.9 3.8 -2.6
v 10.8 3.8 -2.6
v 10.8 3.8 -2.5
v 10.9 3.8 -2.5
v 10.9 3.8 -2.6
v 10.8 3.8 -2.5
v 10.8 3.7 -2.5
v 10.9 3.7 -2.5
v 10.9 3.8 -2.5
v 10.9 3.8 -2.6
v 10.9 3.7 -2.6
v 10.8 3.7 -2.6
v 10.8 3.8 -2.6
v 11.5 3.8 -2.6
v 11.5 3.7 -2.6
v 11.5 3.7 -2.5
v 11.5 3.8 -2.5
v 11.5 3.8 -2.5
v 11.5 3.7 -2.5
v 11.6 3.7 -2.5
v 11.6 3.8 -2.5
v 11.6 3.8 -2.6
v 11.6 3.7 -2.6
v 11.5 3.7 -2.6
v 11.5 3.8 -2.6
v 11.7 3.8 -2.5
v 11.7 3.7 -2.5
v 11.7 3.7 -2.6
v 11.7 3.8 -2.6
v 11.6 3.8 -2.5
v 11.6 3.7 -2.5
v 11.7 3.7 -2.5
v 11.7 3.8 -2.5
v 11.7 3.8 -2.6
v 11.7 3.7 -2.6
v 11.6 3.7 -2.6
v 11.6 3.8 -2.6
v 11.9 3.8 -2.6
v 11.9 3.7 -2.6
v 11.9 3.7 -2.5
v 11.9 3.8 -2.5
v 11.9 3.8 -2.5
v 11.9 3.7 -2.5
v 12 3.7 -2.5
v 12 3.8 -2.5
v 12 3.8 -2.6
v 12 3.7 -2.6
v 11.9 3.7 -2.6
v 11.9 3.8 -2.6
v 12 3.8 -2.5
v 12 3.7 -2.5
v 12.1 3.7 -2.5
v 12.1 3.8 -2.5
v 12.1 3.8 -2.6
v 12.1 3.7 -2.6
v 12 3.7 -2.6
v 12 3.8 -2.6
v 12.1 3.8 -2.5
v 12.1 3.7 -2.5
v 12.2 3.7 -2.5
v 12.2 3.8 -2.5
v 12.2 3.8 -2.6
v 12.2 3.7 -2.6
v 12.1 3.7 -2.6
v 12.1 3.8 -2.6
v 12.3 3.8 -2.5
v 12.3 3.7 -2.5
v 12.3 3.7 -2.6
v 12.3 3.8 -2.6
v 12.2 3.7 -2.5
v 12.2 3.7 -2.6
v 12.3 3.7 -2.6
v 12.3 3.7 -2.5
v 12.2 3.8 -2.5
v 12.2 3.7 -2.5
v 12.3 3.7 -2.5
v 12.3 3.8 -2.5
v 12.3 3.8 -2.6
v 12.3 3.7 -2.6
v 12.2 3.7 -2.6
v 12.2 3.8 -2.6
v 10.4 3.7 -2.6
v 10.4 3.6 -2.6
v 10.4 3.6 -2.5
v 10.4 3.7 -2.5
v 10.4 3.7 -2.5
v 10.4 3.6 -2.5
v 10.5 3.6 -2.5
v 10.5 3.7 -2.5
v 10.5 3.7 -2.6
v 10.5 3.6 -2.6
v 10.4 3.6 -2.6
v 10.4 3.7 -2.6
v 10.5 3.7 -2.5
v 10.5 3.6 -2.5
v 10.6 3.6 -2.5
v 10.6 3.7 -2.5
v 10.6 3.7 -2.6
v 10.6 3.6 -2.6
v 10.5 3.6 -2.6
v 10.5 3.7 -2.6
v 10.6 3.7 -2.5
v 10.6 3.6 -2.5
v 10.7 3.6 -2.5
v 10.7 3.7 -2.5
v 10.7 3.7 -2.6
v 10.7 3.6 -2.6
v 10.6 3.6 -2.6
v 10.6 3.7 -2.6
v 10.7 3.7 -2.5
v 10.7 3.6 -2.5
v 10.8 3.6 -2.5
v 10.8 3.7 -2.5
v 10.8 3.7 -2.6
v 10.8 3.6 -2.6
v 10.7 3.6 -2.6
v 10.7 3.7 -2.6
v 10.9 3.7 -2.5
v 10.9 3.6 -2.5
v 10.9 3.6 -2.6
v 10.9 3.7 -2.6
v 10.8 3.7 -2.5
v 10.8 3.6 -2.5
v 10.9 3.6 -2.5
v 10.9 3.7 -2.5
v 10.9 3.7 -2.6
v 10.9 3.6 -2.6
v 10.8 3.6 -2.6
v 10.8 3.7 -2.6
v 11.5 3.7 -2.6
v 11.5 3.6 -2.6
v 11.5 3.6 -2.5
v 11.5 3.7 -2.5
v 11.5 3.7 -2.5
v 11.5 3.6 -2.5
v 11.6 3.6 -2.5
v 11.6 3.7 -2.5
v 11.6 3.7 -2.6
v 11.6 3.6 -2.6
v 11.5 3.6 -2.6
v 11.5 3.7 -2.6
v 11.7 3.7 -2.5
v 11.7 3.6 -2.5
v 11.7 3.6 -2.6
v 11.7 3.7 -2.6
v 11.6 3.7 -2.5
v 11.6 3.6 -2.5
v 11.7 3.6 -2.5
v 11.7 3.7 -2.5
v 11.7 3.7 -2.6
v 11.7 3.6 -2.6
v 11.6 3.6 -2.6
v 11.6 3.7 -2.6
v 11.9 3.7 -2.6
v 11.9 3.6 -2.6
v 11.9 3.6 -2.5
v 11.9 3.7 -2.5
v 11.9 3.7 -2.5
v 11.9 3.6 -2.5
v 12 3.6 -2.5
v 12 3.7 -2.5
v 12 3.7 -2.6
v 12 3.6 -2.6
v 11.9 3.6 -2.6
v 11.9 3.7 -2.6
v 12 3.7 -2.5
v 12 3.6 -2.5
v 12.1 3.6 -2.5
v 12.1 3.7 -2.5
v 12.1 3.7 -2.6
v 12.1 3.6 -2.6
v 12 3.6 -2.6
v 12 3.7 -2.6
v 12.2 3.7 -2.5
v 12.2 3.6 -2.5
v 12.2 3.6 -2.6
v 12.2 3.7 -2.6
v 12.1 3.7 -2.5
v 12.1 3.6 -2.5
v 12.2 3.6 -2.5
v 12.2 3.7 -2.5
v 12.2 3.7 -2.6
v 12.2 3.6 -2.6
v 12.1 3.6 -2.6
v 12.1 3.7 -2.6
v 10.4 3.6 -2.6
v 10.4 3.5 -2.6
v 10.4 3.5 -2.5
v 10.4 3.6 -2.5
v 10.4 3.5 -2.5
v 10.4 3.5 -2.6
v 10.5 3.5 -2.6
v 10.5 3.5 -2.5
v 10.4 3.6 -2.5
v 10.4 3.5 -2.5
v 10.5 3.5 -2.5
v 10.5 3.6 -2.5
v 10.5 3.6 -2.6
v 10.5 3.5 -2.6
v 10.4 3.5 -2.6
v 10.4 3.6 -2.6
v 10.5 3.6 -2.5
v 10.5 3.5 -2.5
v 10.6 3.5 -2.5
v 10.6 3.6 -2.5
v 10.6 3.6 -2.6
v 10.6 3.5 -2.6
v 10.5 3.5 -2.6
v 10.5 3.6 -2.6
v 10.6 3.6 -2.5
v 10.6 3.5 -2.5
v 10.7 3.5 -2.5
v 10.7 3.6 -2.5
v 10.7 3.6 -2.6
v 10.7 3.5 -2.6
v 10.6 3.5 -2.6
v 10.6 3.6 -2.6
v 10.7 3.6 -2.5
v 10.7 3.5 -2.5
v 10.8 3.5 -2.5
v 10.8 3.6 -2.5
v 10.8 3.6 -2.6
v 10.8 3.5 -2.6
v 10.7 3.5 -2.6
v 10.7 3.6 -2.6
v 10.9 3.6 -2.5
v 10.9 3.5 -2.5
v 10.9 3.5 -2.6
v 10.9 3.6 -2.6
v 10.8 3.6 -2.5
v 10.8 3.5 -2.5
v 10.9 3.5 -2.5
v 10.9 3.6 -2.5
v 10.9 3.6 -2.6
v 10.9 3.5 -2.6
v 10.8 3.5 -2.6
v 10.8 3.6 -2.6
v 11.5 3.6 -2.6
v 11.5 3.5 -2.6
v 11.5 3.5 -2.5
v 11.5 3.6 -2.5
v 11.5 3.6 -2.5
v 11.5 3.5 -2.5
v 11.6 3.5 -2.5
v 11.6 3.6 -2.5
v 11.6 3.6 -2.6
v 11.6 3.5 -2.6
v 11.5 3.5 -2.6
v 11.5 3.6 -2.6
v 11.7 3.6 -2.5
v 11.7 3.5 -2.5
v 11.7 3.5 -2.6
v 11.7 3.6 -2.6
v 11.6 3.6 -2.5
v 11.6 3.5 -2.5
v 11.7 3.5 -2.5
v 11.7 3.6 -2.5
v 11.7 3.6 -2.6
v 11.7 3.5 -2.6
v 11.6 3.5 -2.6
v 11.6 3.6 -2.6
v 11.9 3.6 -2.6
v 11.9 3.5 -2.6
v 11.9 3.5 -2.5
v 11.9 3.6 -2.5
v 11.9 3.6 -2.5
v 11.9 3.5 -2.5
v 12 3.5 -2.5
v 12 3.6 -2.5
v 12 3.6 -2.6
v 12 3.5 -2.6
v 11.9 3.5 -2.6
v 11.9 3.6 -2.6
v 12 3.6 -2.5
v 12 3.5 -2.5
v 12.1 3.5 -2.5
v 12.1 3.6 -2.5
v 12.1 3.6 -2.6
v 12.1 3.5 -2.6
v 12 3.5 -2.6
v 12 3.6 -2.6
v 12.2 3.6 -2.5
v 12.2 3.5 -2.5
v 12.2 3.5 -2.6
v 12.2 3.6 -2.6
v 12.1 3.6 -2.5
v 12.1 3.5 -2.5
v 12.2 3.5 -2.5
v 12.2 3.6 -2.5
v 12.2 3.6 -2.6
v 12.2 3.5 -2.6
v 12.1 3.5 -2.6
v 12.1 3.6 -2.6
v 10.5 3.5 -2.6
v 10.5 3.4 -2.6
v 10.5 3.4 -2.5
v 10.5 3.5 -2.5
v 10.5 3.5 -2.5
v 10.5 3.4 -2.5
v 10.6 3.4 -2.5
v 10.6 3.5 -2.5
v 10.6 3.5 -2.6
v 10.6 3.4 -2.6
v 10.5 3.4 -2.6
v 10.5 3.5 -2.6
v 10.6 3.5 -2.5
v 10.6 3.4 -2.5
v 10.7 3.4 -2.5
v 10.7 3.5 -2.5
v 10.7 3.5 -2.6
v 10.7 3.4 -2.6
v 10.6 3.4 -2.6
v 10.6 3.5 -2.6
v 10.7 3.5 -2.5
v 10.7 3.4 -2.5
v 10.8 3.4 -2.5
v 10.8 3.5 -2.5
v 10.8 3.5 -2.6
v 10.8 3.4 -2.6
v 10.7 3.4 -2.6
v 10.7 3.5 -2.6
v 10.8 3.5 -2.5
v 10.8 3.4 -2.5
v 10.9 3.4 -2.5
v 10.9 3.5 -2.5
v 10.9 3.5 -2.6
v 10.9 3.4 -2.6
v 10.8 3.4 -2.6
v 10.8 3.5 -2.6
v 11 3.5 -2.5
v 11 3.4 -2.5
v 11 3.4 -2.6
v 11 3.5 -2.6
v 10.9 3.5 -2.6
v 10.9 3.5 -2.5
v 11 3.5 -2.5
v 11 3.5 -2.6
v 10.9 3.5 -2.5
v 10.9 3.4 -2.5
v 11 3.4 -2.5
v 11 3.5 -2.5
v 11 3.5 -2.6
v 11 3.4 -2.6
v 10.9 3.4 -2.6
v 10.9 3.5 -2.6
v 11.5 3.5 -2.6
v 11.5 3.4 -2.6
v 11.5 3.4 -2.5
v 11.5 3.5 -2.5
v 11.5 3.5 -2.5
v 11.5 3.4 -2.5
v 11.6 3.4 -2.5
v 11.6 3.5 -2.5
v 11.6 3.5 -2.6
v 11.6 3.4 -2.6
v 11.5 3.4 -2.6
v 11.5 3.5 -2.6
v 11.7 3.5 -2.5
v 11.7 3.4 -2.5
v 11.7 3.4 -2.6
v 11.7 3.5 -2.6
v 11.6 3.5 -2.5
v 11.6 3.4 -2.5
v 11.7 3.4 -2.5
v 11.7 3.5 -2.5
v 11.7 3.5 -2.6
v 11.7 3.4 -2.6
v 11.6 3.4 -2.6
v 11.6 3.5 -2.6
v 11.9 3.5 -2.6
v 11.9 3.4 -2.6
v 11.9 3.4 -2.5
v 11.9 3.5 -2.5
v 11.9 3.5 -2.5
v 11.9 3.4 -2.5
v 12 3.4 -2.5
v 12 3.5 -2.5
v 12 3.5 -2.6
v 12 3.4 -2.6
v 11.9 3.4 -2.6
v 11.9 3.5 -2.6
v 12 3.5 -2.5
v 12 3.4 -2.5
v 12.1 3.4 -2.5
v 12.1 3.5 -2.5
v 12.1 3.5 -2.6
v 12.1 3.4 -2.6
v 12 3.4 -2.6
v 12 3.5 -2.6
v 12.2 3.5 -2.5
v 12.2 3.4 -2.5
v 12.2 3.4 -2.6
v 12.2 3.5 -2.6
v 12.1 3.5 -2.5
v 12.1 3.4 -2.5
v 12.2 3.4 -2.5
v 12.2 3.5 -2.5
v 12.2 3.5 -2.6
v 12.2 3.4 -2.6
v 12.1 3.4 -2.6
v 12.1 3.5 -2.6
v 10.5 3.4 -2.6
v 10.5 3.3 -2.6
v 10.5 3.3 -2.5
v 10.5 3.4 -2.5
v 10.5 3.3 -2.5
v 10.5 3.3 -2.6
v 10.6 3.3 -2.6
v 10.6 3.3 -2.5
v 10.5 3.4 -2.5
v 10.5 3.3 -2.5
v 10.6 3.3 -2.5
v 10.6 3.4 -2.5
v 10.6 3.4 -2.6
v 10.6 3.3 -2.6
v 10.5 3.3 -2.6
v 10.5 3.4 -2.6
v 10.6 3.4 -2.5
v 10.6 3.3 -2.5
v 10.7 3.3 -2.5
v 10.7 3.4 -2.5
v 10.7 3.4 -2.6
v 10.7 3.3 -2.6
v 10.6 3.3 -2.6
v 10.6 3.4 -2.6
v 10.7 3.4 -2.5
v 10.7 3.3 -2.5
v 10.8 3.3 -2.5
v 10.8 3.4 -2.5
v 10.8 3.4 -2.6
v 10.8 3.3 -2.6
v 10.7 3.3 -2.6
v 10.7 3.4 -2.6
v 10.8 3.4 -2.5
v 10.8 3.3 -2.5
v 10.9 3.3 -2.5
v 10.9 3.4 -2.5
v 10.9 3.4 -2.6
v 10.9 3.3 -2.6
v 10.8 3.3 -2.6
v 10.8 3.4 -2.6
v 11 3.4 -2.5
v 11 3.3 -2.5
v 11 3.3 -2.6
v 11 3.4 -2.6
v 10.9 3.4 -2.5
v 10.9 3.3 -2.5
v 11 3.3 -2.5
v 11 3.4 -2.5
v 11 3.4 -2.6
v 11 3.3 -2.6
v 10.9 3.3 -2.6
v 10.9 3.4 -2.6
v 11.5 3.4 -2.6
v 11.5 3.3 -2.6
v 11.5 3.3 -2.5
v 11.5 3.4 -2.5
v 11.5 3.4 -2.5
v 11.5 3.3 -2.5
v 11.6 3.3 -2.5
v 11.6 3.4 -2.5
v 11.6 3.4 -2.6
v 11.6 3.3 -2.6
v 11.5 3.3 -2.6
v 11.5 3.4 -2.6
v 11.7 3.4 -2.5
v 11.7 3.3 -2.5
v 11.7 3.3 -2.6
v 11.7 3.4 -2.6
v 11.6 3.4 -2.5
v 11.6 3.3 -2.5
v 11.7 3.3 -2.5
v 11.7 3.4 -2.5
v 11.7 3.4 -2.6
v 11.7 3.3 -2.6
v 11.6 3.3 -2.6
v 11.6 3.4 -2.6
v 11.9 3.4 -2.6
v 11.9 3.3 -2.6
v 11.9 3.3 -2.5
v 11.9 3.4 -2.5
v 11.9 3.4 -2.5
v 11.9 3.3 -2.5
v 12 3.3 -2.5
v 12 3.4 -2.5
v 12 3.4 -2.6
v 12 3.3 -2.6
v 11.9 3.3 -2.6
v 11.9 3.4 -2.6
v 12 3.4 -2.5
v 12 3.3 -2.5
v 12.1 3.3 -2.5
v 12.1 3.4 -2.5
v 12.1 3.4 -2.6
v 12.1 3.3 -2.6
v 12 3.3 -2.6
v 12 3.4 -2.6
v 12.2 3.4 -2.5
v 12.2 3.3 -2.5
v 12.2 3.3 -2.6
v 12.2 3.4 -2.6
v 12.1 3.4 -2.5
v 12.1 3.3 -2.5
v 12.2 3.3 -2.5
v 12.2 3.4 -2.5
v 12.2 3.4 -2.6
v 12.2 3.3 -2.6
v 12.1 3.3 -2.6
v 12.1 3.4 -2.6
v 10.6 3.3 -2.6
v 10.6 3.2 -2.6
v 10.6 3.2 -2.5
v 10.6 3.3 -2.5
v 10.6 3.3 -2.5
v 10.6 3.2 -2.5
v 10.7 3.2 -2.5
v 10.7 3.3 -2.5
v 10.7 3.3 -2.6
v 10.7 3.2 -2.6
v 10.6 3.2 -2.6
v 10.6 3.3 -2.6
v 10.7 3.3 -2.5
v 10.7 3.2 -2.5
v 10.8 3.2 -2.5
v 10.8 3.3 -2.5
v 10.8 3.3 -2.6
v 10.8 3.2 -2.6
v 10.7 3.2 -2.6
v 10.7 3.3 -2.6
v 10.8 3.3 -2.5
v 10.8 3.2 -2.5
v 10.9 3.2 -2.5
v 10.9 3.3 -2.5
v 10.9 3.3 -2.6
v 10.9 3.2 -2.6
v 10.8 3.2 -2.6
v 10.8 3.3 -2.6
v 10.9 3.3 -2.5
v 10.9 3.2 -2.5
v 11 3.2 -2.5
v 11 3.3 -2.5
v 11 3.3 -2.6
v 11 3.2 -2.6
v 10.9 3.2 -2.6
v 10.9 3.3 -2.6
v 11.1 3.3 -2.5
v 11.1 3.2 -2.5
v 11.1 3.2 -2.6
v 11.1 3.3 -2.6
v 11 3.3 -2.6
v 11 3.3 -2.5
v 11.1 3.3 -2.5
v 11.1 3.3 -2.6
v 11 3.3 -2.5
v 11 3.2 -2.5
v 11.1 3.2 -2.5
v 11.1 3.3 -2.5
v 11.1 3.3 -2.6
v 11.1 3.2 -2.6
v 11 3.2 -2.6
v 11 3.3 -2.6
v 11.5 3.3 -2.6
v 11.5 3.2 -2.6
v 11.5 3.2 -2.5
v 11.5 3.3 -2.5
v 11.5 3.3 -2.5
v 11.5 3.2 -2.5
v 11.6 3.2 -2.5
v 11.6 3.3 -2.5
v 11.6 3.3 -2.6
v 11.6 3.2 -2.6
v 11.5 3.2 -2.6
v 11.5 3.3 -2.6
v 11.7 3.3 -2.5
v 11.7 3.2 -2.5
v 11.7 3.2 -2.6
v 11.7 3.3 -2.6
v 11.6 3.3 -2.5
v 11.6 3.2 -2.5
v 11.7 3.2 -2.5
v 11.7 3.3 -2.5
v 11.7 3.3 -2.6
v 11.7 3.2 -2.6
v 11.6 3.2 -2.6
v 11.6 3.3 -2.6
v 11.8 3.3 -2.6
v 11.8 3.2 -2.6
v 11.8 3.2 -2.5
v 11.8 3.3 -2.5
v 11.8 3.3 -2.6
v 11.8 3.3 -2.5
v 11.9 3.3 -2.5
v 11.9 3.3 -2.6
v 11.8 3.3 -2.5
v 11.8 3.2 -2.5
v 11.9 3.2 -2.5
v 11.9 3.3 -2.5
v 11.9 3.3 -2.6
v 11.9 3.2 -2.6
v 11.8 3.2 -2.6
v 11.8 3.3 -2.6
v 11.9 3.3 -2.5
v 11.9 3.2 -2.5
v 12 3.2 -2.5
v 12 3.3 -2.5
v 12 3.3 -2.6
v 12 3.2 -2.6
v 11.9 3.2 -2.6
v 11.9 3.3 -2.6
v 12 3.3 -2.5
v 12 3.2 -2.5
v 12.1 3.2 -2.5
v 12.1 3.3 -2.5
v 12.1 3.3 -2.6
v 12.1 3.2 -2.6
v 12 3.2 -2.6
v 12 3.3 -2.6
v 12.2 3.3 -2.5
v 12.2 3.2 -2.5
v 12.2 3.2 -2.6
v 12.2 3.3 -2.6
v 12.1 3.3 -2.5
v 12.1 3.2 -2.5
v 12.2 3.2 -2.5
v 12.2 3.3 -2.5
v 12.2 3.3 -2.6
v 12.2 3.2 -2.6
v 12.1 3.2 -2.6
v 12.1 3.3 -2.6
v 10.6 3.2 -2.6
v 10.6 3.1 -2.6
v 10.6 3.1 -2.5
v 10.6 3.2 -2.5
v 10.6 3.1 -2.5
v 10.6 3.1 -2.6
v 10.7 3.1 -2.6
v 10.7 3.1 -2.5
v 10.6 3.2 -2.5
v 10.6 3.1 -2.5
v 10.7 3.1 -2.5
v 10.7 3.2 -2.5
v 10.7 3.2 -2.6
v 10.7 3.1 -2.6
v 10.6 3.1 -2.6
v 10.6 3.2 -2.6
v 10.7 3.2 -2.5
v 10.7 3.1 -2.5
v 10.8 3.1 -2.5
v 10.8 3.2 -2.5
v 10.8 3.2 -2.6
v 10.8 3.1 -2.6
v 10.7 3.1 -2.6
v 10.7 3.2 -2.6
v 10.8 3.2 -2.5
v 10.8 3.1 -2.5
v 10.9 3.1 -2.5
v 10.9 3.2 -2.5
v 10.9 3.2 -2.6
v 10.9 3.1 -2.6
v 10.8 3.1 -2.6
v 10.8 3.2 -2.6
v 10.9 3.2 -2.5
v 10.9 3.1 -2.5
v 11 3.1 -2.5
v 11 3.2 -2.5
v 11 3.2 -2.6
v 11 3.1 -2.6
v 10.9 3.1 -2.6
v 10.9 3.2 -2.6
v 11.1 3.2 -2.5
v 11.1 3.1 -2.5
v 11.1 3.1 -2.6
v 11.1 3.2 -2.6
v 11 3.2 -2.5
v 11 3.1 -2.5
v 11.1 3.1 -2.5
v 11.1 3.2 -2.5
v 11.1 3.2 -2.6
v 11.1 3.1 -2.6
v 11 3.1 -2.6
v 11 3.2 -2.6
v 11.5 3.2 -2.6
v 11.5 3.1 -2.6
v 11.5 3.1 -2.5
v 11.5 3.2 -2.5
v 11.5 3.2 -2.5
v 11.5 3.1 -2.5
v 11.6 3.1 -2.5
v 11.6 3.2 -2.5
v 11.6 3.2 -2.6
v 11.6 3.1 -2.6
v 11.5 3.1 -2.6
v 11.5 3.2 -2.6
v 11.7 3.2 -2.5
v 11.7 3.1 -2.5
v 11.7 3.1 -2.6
v 11.7 3.2 -2.6
v 11.6 3.2 -2.5
v 11.6 3.1 -2.5
v 11.7 3.1 -2.5
v 11.7 3.2 -2.5
v 11.7 3.2 -2.6
v 11.7 3.1 -2.6
v 11.6 3.1 -2.6
v 11.6 3.2 -2.6
v 11.8 3.2 -2.6
v 11.8 3.1 -2.6
v 11.8 3.1 -2.5
v 11.8 3.2 -2.5
v 11.8 3.2 -2.5
v 11.8 3.1 -2.5
v 11.9 3.1 -2.5
v 11.9 3.2 -2.5
v 11.9 3.2 -2.6
v 11.9 3.1 -2.6
v 11.8 3.1 -2.6
v 11.8 3.2 -2.6
v 11.9 3.2 -2.5
v 11.9 3.1 -2.5
v 12 3.1 -2.5
v 12 3.2 -2.5
v 12 3.2 -2.6
v 12 3.1 -2.6
v 11.9 3.1 -2.6
v 11.9 3.2 -2.6
v 12 3.2 -2.5
v 12 3.1 -2.5
v 12.1 3.1 -2.5
v 12.1 3.2 -2.5
v 12.1 3.2 -2.6
v 12.1 3.1 -2.6
v 12 3.1 -2.6
v 12 3.2 -2.6
v 12.2 3.2 -2.5
v 12.2 3.1 -2.5
v 12.2 3.1 -2.6
v 12.2 3.2 -2.6
v 12.1 3.1 -2.5
v 12.1 3.1 -2.6
v 12.2 3.1 -2.6
v 12.2 3.1 -2.5
v 12.1 3.2 -2.5
v 12.1 3.1 -2.5
v 12.2 3.1 -2.5
v 12.2 3.2 -2.5
v 12.2 3.2 -2.6
v 12.2 3.1 -2.6
v 12.1 3.1 -2.6
v 12.1 3.2 -2.6
v 10.7 3.1 -2.6
v 10.7 3 -2.6
v 10.7 3 -2.5
v 10.7 3.1 -2.5
v 10.7 3 -2.5
v 10.7 3 -2.6
v 10.8 3 -2.6
v 10.8 3 -2.5
v 10.7 3.1 -2.5
v 10.7 3 -2.5
v 10.8 3 -2.5
v 10.8 3.1 -2.5
v 10.8 3.1 -2.6
v 10.8 3 -2.6
v 10.7 3 -2.6
v 10.7 3.1 -2.6
v 10.8 3.1 -2.5
v 10.8 3 -2.5
v 10.9 3 -2.5
v 10.9 3.1 -2.5
v 10.9 3.1 -2.6
v 10.9 3 -2.6
v 10.8 3 -2.6
v 10.8 3.1 -2.6
v 10.9 3.1 -2.5
v 10.9 3 -2.5
v 11 3 -2.5
v 11 3.1 -2.5
v 11 3.1 -2.6
v 11 3 -2.6
v 10.9 3 -2.6
v 10.9 3.1 -2.6
v 11.1 3.1 -2.5
v 11.1 3 -2.5
v 11.1 3 -2.6
v 11.1 3.1 -2.6
v 11 3.1 -2.5
v 11 3 -2.5
v 11.1 3 -2.5
v 11.1 3.1 -2.5
v 11.1 3.1 -2.6
v 11.1 3 -2.6
v 11 3 -2.6
v 11 3.1 -2.6
v 11.5 3.1 -2.6
v 11.5 3 -2.6
v 11.5 3 -2.5
v 11.5 3.1 -2.5
v 11.5 3 -2.5
v 11.5 3 -2.6
v 11.6 3 -2.6
v 11.6 3 -2.5
v 11.5 3.1 -2.5
v 11.5 3 -2.5
v 11.6 3 -2.5
v 11.6 3.1 -2.5
v 11.6 3.1 -2.6
v 11.6 3 -2.6
v 11.5 3 -2.6
v 11.5 3.1 -2.6
v 11.7 3.1 -2.5
v 11.7 3 -2.5
v 11.7 3 -2.6
v 11.7 3.1 -2.6
v 11.6 3.1 -2.5
v 11.6 3 -2.5
v 11.7 3 -2.5
v 11.7 3.1 -2.5
v 11.7 3.1 -2.6
v 11.7 3 -2.6
v 11.6 3 -2.6
v 11.6 3.1 -2.6
v 11.8 3.1 -2.6
v 11.8 3 -2.6
v 11.8 3 -2.5
v 11.8 3.1 -2.5
v 11.8 3.1 -2.5
v 11.8 3 -2.5
v 11.9 3 -2.5
v 11.9 3.1 -2.5
v 11.9 3.1 -2.6
v 11.9 3 -2.6
v 11.8 3 -2.6
v 11.8 3.1 -2.6
v 11.9 3.1 -2.5
v 11.9 3 -2.5
v 12 3 -2.5
v 12 3.1 -2.5
v 12 3.1 -2.6
v 12 3 -2.6
v 11.9 3 -2.6
v 11.9 3.1 -2.6
v 12.1 3.1 -2.5
v 12.1 3 -2.5
v 12.1 3 -2.6
v 12.1 3.1 -2.6
v 12 3.1 -2.5
v 12 3 -2.5
v 12.1 3 -2.5
v 12.1 3.1 -2.5
v 12.1 3.1 -2.6
v 12.1 3 -2.6
v 12 3 -2.6
v 12 3.1 -2.6
v 10.8 3 -2.6
v 10.8 2.9 -2.6
v 10.8 2.9 -2.5
v 10.8 3 -2.5
v 10.8 3 -2.5
v 10.8 2.9 -2.5
v 10.9 2.9 -2.5
v 10.9 3 -2.5
v 10.9 3 -2.6
v 10.9 2.9 -2.6
v 10.8 2.9 -2.6
v 10.8 3 -2.6
v 10.9 3 -2.5
v 10.9 2.9 -2.5
v 11 2.9 -2.5
v 11 3 -2.5
v 11 3 -2.6
v 11 2.9 -2.6
v 10.9 2.9 -2.6
v 10.9 3 -2.6
v 11 3 -2.5
v 11 2.9 -2.5
v 11.1 2.9 -2.5
v 11.1 3 -2.5
v 11.1 3 -2.6
v 11.1 2.9 -2.6
v 11 2.9 -2.6
v 11 3 -2.6
v 11.2 3 -2.5
v 11.2 2.9 -2.5
v 11.2 2.9 -2.6
v 11.2 3 -2.6
v 11.1 3 -2.6
v 11.1 3 -2.5
v 11.2 3 -2.5
v 11.2 3 -2.6
v 11.1 3 -2.5
v 11.1 2.9 -2.5
v 11.2 2.9 -2.5
v 11.2 3 -2.5
v 11.2 3 -2.6
v 11.2 2.9 -2.6
v 11.1 2.9 -2.6
v 11.1 3 -2.6
v 11.6 3 -2.6
v 11.6 2.9 -2.6
v 11.6 2.9 -2.5
v 11.6 3 -2.5
v 11.7 3 -2.5
v 11.7 2.9 -2.5
v 11.7 2.9 -2.6
v 11.7 3 -2.6
v 11.6 3 -2.5
v 11.6 2.9 -2.5
v 11.7 2.9 -2.5
v 11.7 3 -2.5
v 11.7 3 -2.6
v 11.7 2.9 -2.6
v 11.6 2.9 -2.6
v 11.6 3 -2.6
v 11.8 3 -2.6
v 11.8 2.9 -2.6
v 11.8 2.9 -2.5
v 11.8 3 -2.5
v 11.8 3 -2.5
v 11.8 2.9 -2.5
v 11.9 2.9 -2.5
v 11.9 3 -2.5
v 11.9 3 -2.6
v 11.9 2.9 -2.6
v 11.8 2.9 -2.6
v 11.8 3 -2.6
v 11.9 3 -2.5
v 11.9 2.9 -2.5
v 12 2.9 -2.5
v 12 3 -2.5
v 12 3 -2.6
v 12 2.9 -2.6
v 11.9 2.9 -2.6
v 11.9 3 -2.6
v 12.1 3 -2.5
v 12.1 2.9 -2.5
v 12.1 2.9 -2.6
v 12.1 3 -2.6
v 12 3 -2.5
v 12 2.9 -2.5
v 12.1 2.9 -2.5
v 12.1 3 -2.5
v 12.1 3 -2.6
v 12.1 2.9 -2.6
v 12 2.9 -2.6
v 12 3 -2.6
v 10.8 2.9 -2.6
v 10.8 2.8 -2.6
v 10.8 2.8 -2.5
v 10.8 2.9 -2.5
v 10.8 2.8 -2.5
v 10.8 2.8 -2.6
v 10.9 2.8 -2.6
v 10.9 2.8 -2.5
v 10.8 2.9 -2.5
v 10.8 2.8 -2.5
v 10.9 2.8 -2.5
v 10.9 2.9 -2.5
v 10.9 2.9 -2.6
v 10.9 2.8 -2.6
v 10.8 2.8 -2.6
v 10.8 2.9 -2.6
v 10.9 2.9 -2.5
v 10.9 2.8 -2.5
v 11 2.8 -2.5
v 11 2.9 -2.5
v 11 2.9 -2.6
v 11 2.8 -2.6
v 10.9 2.8 -2.6
v 10.9 2.9 -2.6
v 11 2.9 -2.5
v 11 2.8 -2.5
v 11.1 2.8 -2.5
v 11.1 2.9 -2.5
v 11.1 2.9 -2.6
v 11.1 2.8 -2.6
v 11 2.8 -2.6
v 11 2.9 -2.6
v 11.2 2.9 -2.5
v 11.2 2.8 -2.5
v 11.2 2.8 -2.6
v 11.2 2.9 -2.6
v 11.1 2.9 -2.5
v 11.1 2.8 -2.5
v 11.2 2.8 -2.5
v 11.2 2.9 -2.5
v 11.2 2.9 -2.6
v 11.2 2.8 -2.6
v 11.1 2.8 -2.6
v 11.1 2.9 -2.6
v 11.6 2.9 -2.6
v 11.6 2.8 -2.6
v 11.6 2.8 -2.5
v 11.6 2.9 -2.5
v 11.7 2.9 -2.5
v 11.7 2.8 -2.5
v 11.7 2.8 -2.6
v 11.7 2.9 -2.6
v 11.6 2.9 -2.5
v 11.6 2.8 -2.5
v 11.7 2.8 -2.5
v 11.7 2.9 -2.5
v 11.7 2.9 -2.6
v 11.7 2.8 -2.6
v 11.6 2.8 -2.6
v 11.6 2.9 -2.6
v 11.8 2.9 -2.6
v 11.8 2.8 -2.6
v 11.8 2.8 -2.5
v 11.8 2.9 -2.5
v 11.8 2.9 -2.5
v 11.8 2.8 -2.5
v 11.9 2.8 -2.5
v 11.9 2.9 -2.5
v 11.9 2.9 -2.6
v 11.9 2.8 -2.6
v 11.8 2.8 -2.6
v 11.8 2.9 -2.6
v 11.9 2.9 -2.5
v 11.9 2.8 -2.5
v 12 2.8 -2.5
v 12 2.9 -2.5
v 12 2.9 -2.6
v 12 2.8 -2.6
v 11.9 2.8 -2.6
v 11.9 2.9 -2.6
v 12.1 2.9 -2.5
v 12.1 2.8 -2.5
v 12.1 2.8 -2.6
v 12.1 2.9 -2.6
v 12 2.9 -2.5
v 12 2.8 -2.5
v 12.1 2.8 -2.5
v 12.1 2.9 -2.5
v 12.1 2.9 -2.6
v 12.1 2.8 -2.6
v 12 2.8 -2.6
v 12 2.9 -2.6
v 10.9 2.8 -2.6
v 10.9 2.7 -2.6
v 10.9 2.7 -2.5
v 10.9 2.8 -2.5
v 10.9 2.8 -2.5
v 10.9 2.7 -2.5
v 11 2.7 -2.5
v 11 2.8 -2.5
v 11 2.8 -2.6
v 11 2.7 -2.6
v 10.9 2.7 -2.6
v 10.9 2.8 -2.6
v 11 2.8 -2.5
v 11 2.7 -2.5
v 11.1 2.7 -2.5
v 11.1 2.8 -2.5
v 11.1 2.8 -2.6
v 11.1 2.7 -2.6
v 11 2.7 -2.6
v 11 2.8 -2.6
v 11.2 2.8 -2.5
v 11.2 2.7 -2.5
v 11.2 2.7 -2.6
v 11.2 2.8 -2.6
v 11.1 2.8 -2.5
v 11.1 2.7 -2.5
v 11.2 2.7 -2.5
v 11.2 2.8 -2.5
v 11.2 2.8 -2.6
v 11.2 2.7 -2.6
v 11.1 2.7 -2.6
v 11.1 2.8 -2.6
v 11.6 2.8 -2.6
v 11.6 2.7 -2.6
v 11.6 2.7 -2.5
v 11.6 2.8 -2.5
v 11.7 2.8 -2.5
v 11.7 2.7 -2.5
v 11.7 2.7 -2.6
v 11.7 2.8 -2.6
v 11.6 2.8 -2.5
v 11.6 2.7 -2.5
v 11.7 2.7 -2.5
v 11.7 2.8 -2.5
v 11.7 2.8 -2.6
v 11.7 2.7 -2.6
v 11.6 2.7 -2.6
v 11.6 2.8 -2.6
v 11.8 2.8 -2.6
v 11.8 2.7 -2.6
v 11.8 2.7 -2.5
v 11.8 2.8 -2.5
v 11.8 2.8 -2.5
v 11.8 2.7 -2.5
v 11.9 2.7 -2.5
v 11.9 2.8 -2.5
v 11.9 2.8 -2.6
v 11.9 2.7 -2.6
v 11.8 2.7 -2.6
v 11.8 2.8 -2.6
v 11.9 2.8 -2.5
v 11.9 2.7 -2.5
v 12 2.7 -2.5
v 12 2.8 -2.5
v 12 2.8 -2.6
v 12 2.7 -2.6
v 11.9 2.7 -2.6
v 11.9 2.8 -2.6
v 12.1 2.8 -2.5
v 12.1 2.7 -2.5
v 12.1 2.7 -2.6
v 12.1 2.8 -2.6
v 12 2.8 -2.5
v 12 2.7 -2.5
v 12.1 2.7 -2.5
v 12.1 2.8 -2.5
v 12.1 2.8 -2.6
v 12.1 2.7 -2.6
v 12 2.7 -2.6
v 12 2.8 -2.6
v 10.9 2.7 -2.6
v 10.9 2.6 -2.6
v 10.9 2.6 -2.5
v 10.9 2.7 -2.5
v 10.9 2.6 -2.5
v 10.9 2.6 -2.6
v 11 2.6 -2.6
v 11 2.6 -2.5
v 10.9 2.7 -2.5
v 10.9 2.6 -2.5
v 11 2.6 -2.5
v 11 2.7 -2.5
v 11 2.7 -2.6
v 11 2.6 -2.6
v 10.9 2.6 -2.6
v 10.9 2.7 -2.6
v 11 2.7 -2.5
v 11 2.6 -2.5
v 11.1 2.6 -2.5
v 11.1 2.7 -2.5
v 11.1 2.7 -2.6
v 11.1 2.6 -2.6
v 11 2.6 -2.6
v 11 2.7 -2.6
v 11.1 2.7 -2.5
v 11.1 2.6 -2.5
v 11.2 2.6 -2.5
v 11.2 2.7 -2.5
v 11.2 2.7 -2.6
v 11.2 2.6 -2.6
v 11.1 2.6 -2.6
v 11.1 2.7 -2.6
v 11.3 2.7 -2.5
v 11.3 2.6 -2.5
v 11.3 2.6 -2.6
v 11.3 2.7 -2.6
v 11.2 2.7 -2.6
v 11.2 2.7 -2.5
v 11.3 2.7 -2.5
v 11.3 2.7 -2.6
v 11.2 2.7 -2.5
v 11.2 2.6 -2.5
v 11.3 2.6 -2.5
v 11.3 2.7 -2.5
v 11.3 2.7 -2.6
v 11.3 2.6 -2.6
v 11.2 2.6 -2.6
v 11.2 2.7 -2.6
v 11.6 2.7 -2.6
v 11.6 2.6 -2.6
v 11.6 2.6 -2.5
v 11.6 2.7 -2.5
v 11.7 2.7 -2.5
v 11.7 2.6 -2.5
v 11.7 2.6 -2.6
v 11.7 2.7 -2.6
v 11.6 2.7 -2.5
v 11.6 2.6 -2.5
v 11.7 2.6 -2.5
v 11.7 2.7 -2.5
v 11.7 2.7 -2.6
v 11.7 2.6 -2.6
v 11.6 2.6 -2.6
v 11.6 2.7 -2.6
v 11.8 2.7 -2.6
v 11.8 2.6 -2.6
v 11.8 2.6 -2.5
v 11.8 2.7 -2.5
v 11.8 2.7 -2.5
v 11.8 2.6 -2.5
v 11.9 2.6 -2.5
v 11.9 2.7 -2.5
v 11.9 2.7 -2.6
v 11.9 2.6 -2.6
v 11.8 2.6 -2.6
v 11.8 2.7 -2.6
v 11.9 2.7 -2.5
v 11.9 2.6 -2.5
v 12 2.6 -2.5
v 12 2.7 -2.5
v 12 2.7 -2.6
v 12 2.6 -2.6
v 11.9 2.6 -2.6
v 11.9 2.7 -2.6
v 12.1 2.7 -2.5
v 12.1 2.6 -2.5
v 12.1 2.6 -2.6
v 12.1 2.7 -2.6
v 12 2.7 -2.5
v 12 2.6 -2.5
v 12.1 2.6 -2.5
v 12.1 2.7 -2.5
v 12.1 2.7 -2.6
v 12.1 2.6 -2.6
v 12 2.6 -2.6
v 12 2.7 -2.6
v 11 2.6 -2.6
v 11 2.5 -2.6
v 11 2.5 -2.5
v 11 2.6 -2.5
v 11 2.5 -2.5
v 11 2.5 -2.6
v 11.1 2.5 -2.6
v 11.1 2.5 -2.5
v 11 2.6 -2.5
v 11 2.5 -2.5
v 11.1 2.5 -2.5
v 11.1 2.6 -2.5
v 11.1 2.6 -2.6
v 11.1 2.5 -2.6
v 11 2.5 -2.6
v 11 2.6 -2.6
v 11.1 2.6 -2.5
v 11.1 2.5 -2.5
v 11.2 2.5 -2.5
v 11.2 2.6 -2.5
v 11.2 2.6 -2.6
v 11.2 2.5 -2.6
v 11.1 2.5 -2.6
v 11.1 2.6 -2.6
v 11.3 2.6 -2.5
v 11.3 2.5 -2.5
v 11.3 2.5 -2.6
v 11.3 2.6 -2.6
v 11.2 2.6 -2.5
v 11.2 2.5 -2.5
v 11.3 2.5 -2.5
v 11.3 2.6 -2.5
v 11.3 2.6 -2.6
v 11.3 2.5 -2.6
v 11.2 2.5 -2.6
v 11.2 2.6 -2.6
v 11.6 2.6 -2.6
v 11.6 2.5 -2.6
v 11.6 2.5 -2.5
v 11.6 2.6 -2.5
v 11.7 2.6 -2.5
v 11.7 2.5 -2.5
v 11.7 2.5 -2.6
v 11.7 2.6 -2.6
v 11.6 2.6 -2.5
v 11.6 2.5 -2.5
v 11.7 2.5 -2.5
v 11.7 2.6 -2.5
v 11.7 2.6 -2.6
v 11.7 2.5 -2.6
v 11.6 2.5 -2.6
v 11.6 2.6 -2.6
v 11.8 2.6 -2.6
v 11.8 2.5 -2.6
v 11.8 2.5 -2.5
v 11.8 2.6 -2.5
v 11.8 2.6 -2.5
v 11.8 2.5 -2.5
v 11.9 2.5 -2.5
v 11.9 2.6 -2.5
v 11.9 2.6 -2.6
v 11.9 2.5 -2.6
v 11.8 2.5 -2.6
v 11.8 2.6 -2.6
v 11.9 2.6 -2.5
v 11.9 2.5 -2.5
v 12 2.5 -2.5
v 12 2.6 -2.5
v 12 2.6 -2.6
v 12 2.5 -2.6
v 11.9 2.5 -2.6
v 11.9 2.6 -2.6
v 12.1 2.6 -2.5
v 12.1 2.5 -2.5
v 12.1 2.5 -2.6
v 12.1 2.6 -2.6
v 12 2.5 -2.5
v 12 2.5 -2.6
v 12.1 2.5 -2.6
v 12.1 2.5 -2.5
v 12 2.6 -2.5
v 12 2.5 -2.5
v 12.1 2.5 -2.5
v 12.1 2.6 -2.5
v 12.1 2.6 -2.6
v 12.1 2.5 -2.6
v 12 2.5 -2.6
v 12 2.6 -2.6
v 11.1 2.5 -2.6
v 11.1 2.4 -2.6
v 11.1 2.4 -2.5
v 11.1 2.5 -2.5
v 11.1 2.5 -2.5
v 11.1 2.4 -2.5
v 11.2 2.4 -2.5
v 11.2 2.5 -2.5
v 11.2 2.5 -2.6
v 11.2 2.4 -2.6
v 11.1 2.4 -2.6
v 11.1 2.5 -2.6
v 11.3 2.5 -2.5
v 11.3 2.4 -2.5
v 11.3 2.4 -2.6
v 11.3 2.5 -2.6
v 11.2 2.5 -2.5
v 11.2 2.4 -2.5
v 11.3 2.4 -2.5
v 11.3 2.5 -2.5
v 11.3 2.5 -2.6
v 11.3 2.4 -2.6
v 11.2 2.4 -2.6
v 11.2 2.5 -2.6
v 11.6 2.5 -2.6
v 11.6 2.4 -2.6
v 11.6 2.4 -2.5
v 11.6 2.5 -2.5
v 11.7 2.5 -2.5
v 11.7 2.4 -2.5
v 11.7 2.4 -2.6
v 11.7 2.5 -2.6
v 11.6 2.5 -2.5
v 11.6 2.4 -2.5
v 11.7 2.4 -2.5
v 11.7 2.5 -2.5
v 11.7 2.5 -2.6
v 11.7 2.4 -2.6
v 11.6 2.4 -2.6
v 11.6 2.5 -2.6
v 11.8 2.5 -2.6
v 11.8 2.4 -2.6
v 11.8 2.4 -2.5
v 11.8 2.5 -2.5
v 11.8 2.5 -2.5
v 11.8 2.4 -2.5
v 11.9 2.4 -2.5
v 11.9 2.5 -2.5
v 11.9 2.5 -2.6
v 11.9 2.4 -2.6
v 11.8 2.4 -2.6
v 11.8 2.5 -2.6
v 12 2.5 -2.5
v 12 2.4 -2.5
v 12 2.4 -2.6
v 12 2.5 -2.6
v 11.9 2.5 -2.5
v 11.9 2.4 -2.5
v 12 2.4 -2.5
v 12 2.5 -2.5
v 12 2.5 -2.6
v 12 2.4 -2.6
v 11.9 2.4 -2.6
v 11.9 2.5 -2.6
v 11.1 2.4 -2.6
v 11.1 2.3 -2.6
v 11.1 2.3 -2.5
v 11.1 2.4 -2.5
v 11.1 2.3 -2.5
v 11.1 2.3 -2.6
v 11.2 2.3 -2.6
v 11.2 2.3 -2.5
v 11.1 2.4 -2.5
v 11.1 2.3 -2.5
v 11.2 2.3 -2.5
v 11.2 2.4 -2.5
v 11.2 2.4 -2.6
v 11.2 2.3 -2.6
v 11.1 2.3 -2.6
v 11.1 2.4 -2.6
v 11.2 2.4 -2.5
v 11.2 2.3 -2.5
v 11.3 2.3 -2.5
v 11.3 2.4 -2.5
v 11.3 2.4 -2.6
v 11.3 2.3 -2.6
v 11.2 2.3 -2.6
v 11.2 2.4 -2.6
v 11.4 2.4 -2.5
v 11.4 2.3 -2.5
v 11.4 2.3 -2.6
v 11.4 2.4 -2.6
v 11.3 2.4 -2.6
v 11.3 2.4 -2.5
v 11.4 2.4 -2.5
v 11.4 2.4 -2.6
v 11.3 2.4 -2.5
v 11.3 2.3 -2.5
v 11.4 2.3 -2.5
v 11.4 2.4 -2.5
v 11.4 2.4 -2.6
v 11.4 2.3 -2.6
v 11.3 2.3 -2.6
v 11.3 2.4 -2.6
v 11.6 2.4 -2.6
v 11.6 2.3 -2.6
v 11.6 2.3 -2.5
v 11.6 2.4 -2.5
v 11.7 2.4 -2.5
v 11.7 2.3 -2.5
v 11.7 2.3 -2.6
v 11.7 2.4 -2.6
v 11.6 2.4 -2.5
v 11.6 2.3 -2.5
v 11.7 2.3 -2.5
v 11.7 2.4 -2.5
v 11.7 2.4 -2.6
v 11.7 2.3 -2.6
v 11.6 2.3 -2.6
v 11.6 2.4 -2.6
v 11.8 2.4 -2.6
v 11.8 2.3 -2.6
v 11.8 2.3 -2.5
v 11.8 2.4 -2.5
v 11.8 2.4 -2.5
v 11.8 2.3 -2.5
v 11.9 2.3 -2.5
v 11.9 2.4 -2.5
v 11.9 2.4 -2.6
v 11.9 2.3 -2.6
v 11.8 2.3 -2.6
v 11.8 2.4 -2.6
v 12 2.4 -2.5
v 12 2.3 -2.5
v 12 2.3 -2.6
v 12 2.4 -2.6
v 11.9 2.4 -2.5
v 11.9 2.3 -2.5
v 12 2.3 -2.5
v 12 2.4 -2.5
v 12 2.4 -2.6
v 12 2.3 -2.6
v 11.9 2.3 -2.6
v 11.9 2.4 -2.6
v 11.2 2.3 -2.6
v 11.2 2.2 -2.6
v 11.2 2.2 -2.5
v 11.2 2.3 -2.5
v 11.2 2.3 -2.5
v 11.2 2.2 -2.5
v 11.3 2.2 -2.5
v 11.3 2.3 -2.5
v 11.3 2.3 -2.6
v 11.3 2.2 -2.6
v 11.2 2.2 -2.6
v 11.2 2.3 -2.6
v 11.4 2.3 -2.5
v 11.4 2.2 -2.5
v 11.4 2.2 -2.6
v 11.4 2.3 -2.6
v 11.3 2.3 -2.5
v 11.3 2.2 -2.5
v 11.4 2.2 -2.5
v 11.4 2.3 -2.5
v 11.4 2.3 -2.6
v 11.4 2.2 -2.6
v 11.3 2.2 -2.6
v 11.3 2.3 -2.6
v 11.6 2.3 -2.6
v 11.6 2.2 -2.6
v 11.6 2.2 -2.5
v 11.6 2.3 -2.5
v 11.7 2.3 -2.5
v 11.7 2.2 -2.5
v 11.7 2.2 -2.6
v 11.7 2.3 -2.6
v 11.6 2.3 -2.5
v 11.6 2.2 -2.5
v 11.7 2.2 -2.5
v 11.7 2.3 -2.5
v 11.7 2.3 -2.6
v 11.7 2.2 -2.6
v 11.6 2.2 -2.6
v 11.6 2.3 -2.6
v 11.8 2.3 -2.6
v 11.8 2.2 -2.6
v 11.8 2.2 -2.5
v 11.8 2.3 -2.5
v 11.8 2.3 -2.5
v 11.8 2.2 -2.5
v 11.9 2.2 -2.5
v 11.9 2.3 -2.5
v 11.9 2.3 -2.6
v 11.9 2.2 -2.6
v 11.8 2.2 -2.6
v 11.8 2.3 -2.6
v 12 2.3 -2.5
v 12 2.2 -2.5
v 12 2.2 -2.6
v 12 2.3 -2.6
v 11.9 2.3 -2.5
v 11.9 2.2 -2.5
v 12 2.2 -2.5
v 12 2.3 -2.5
v 12 2.3 -2.6
v 12 2.2 -2.6
v 11.9 2.2 -2.6
v 11.9 2.3 -2.6
v 11.2 2.2 -2.6
v 11.2 2.1 -2.6
v 11.2 2.1 -2.5
v 11.2 2.2 -2.5
v 11.2 2.1 -2.5
v 11.2 2.1 -2.6
v 11.3 2.1 -2.6
v 11.3 2.1 -2.5
v 11.2 2.2 -2.5
v 11.2 2.1 -2.5
v 11.3 2.1 -2.5
v 11.3 2.2 -2.5
v 11.3 2.2 -2.6
v 11.3 2.1 -2.6
v 11.2 2.1 -2.6
v 11.2 2.2 -2.6
v 11.4 2.2 -2.5
v 11.4 2.1 -2.5
v 11.4 2.1 -2.6
v 11.4 2.2 -2.6
v 11.3 2.2 -2.5
v 11.3 2.1 -2.5
v 11.4 2.1 -2.5
v 11.4 2.2 -2.5
v 11.4 2.2 -2.6
v 11.4 2.1 -2.6
v 11.3 2.1 -2.6
v 11.3 2.2 -2.6
v 11.6 2.2 -2.6
v 11.6 2.1 -2.6
v 11.6 2.1 -2.5
v 11.6 2.2 -2.5
v 11.7 2.2 -2.5
v 11.7 2.1 -2.5
v 11.7 2.1 -2.6
v 11.7 2.2 -2.6
v 11.6 2.2 -2.5
v 11.6 2.1 -2.5
v 11.7 2.1 -2.5
v 11.7 2.2 -2.5
v 11.7 2.2 -2.6
v 11.7 2.1 -2.6
v 11.6 2.1 -2.6
v 11.6 2.2 -2.6
v 11.8 2.2 -2.6
v 11.8 2.1 -2.6
v 11.8 2.1 -2.5
v 11.8 2.2 -2.5
v 11.8 2.2 -2.5
v 11.8 2.1 -2.5
v 11.9 2.1 -2.5
v 11.9 2.2 -2.5
v 11.9 2.2 -2.6
v 11.9 2.1 -2.6
v 11.8 2.1 -2.6
v 11.8 2.2 -2.6
v 12 2.2 -2.5
v 12 2.1 -2.5
v 12 2.1 -2.6
v 12 2.2 -2.6
v 11.9 2.2 -2.5
v 11.9 2.1 -2.5
v 12 2.1 -2.5
v 12 2.2 -2.5
v 12 2.2 -2.6
v 12 2.1 -2.6
v 11.9 2.1 -2.6
v 11.9 2.2 -2.6
v 11.3 2.1 -2.6
v 11.3 2 -2.6
v 11.3 2 -2.5
v 11.3 2.1 -2.5
v 11.3 2.1 -2.5
v 11.3 2 -2.5
v 11.4 2 -2.5
v 11.4 2.1 -2.5
v 11.4 2.1 -2.6
v 11.4 2 -2.6
v 11.3 2 -2.6
v 11.3 2.1 -2.6
v 11.5 2.1 -2.5
v 11.5 2 -2.5
v 11.5 2 -2.6
v 11.5 2.1 -2.6
v 11.4 2.1 -2.6
v 11.4 2.1 -2.5
v 11.5 2.1 -2.5
v 11.5 2.1 -2.6
v 11.4 2.1 -2.5
v 11.4 2 -2.5
v 11.5 2 -2.5
v 11.5 2.1 -2.5
v 11.5 2.1 -2.6
v 11.5 2 -2.6
v 11.4 2 -2.6
v 11.4 2.1 -2.6
v 11.6 2.1 -2.6
v 11.6 2 -2.6
v 11.6 2 -2.5
v 11.6 2.1 -2.5
v 11.7 2.1 -2.5
v 11.7 2 -2.5
v 11.7 2 -2.6
v 11.7 2.1 -2.6
v 11.6 2 -2.5
v 11.6 2 -2.6
v 11.7 2 -2.6
v 11.7 2 -2.5
v 11.6 2.1 -2.5
v 11.6 2 -2.5
v 11.7 2 -2.5
v 11.7 2.1 -2.5
v 11.7 2.1 -2.6
v 11.7 2 -2.6
v 11.6 2 -2.6
v 11.6 2.1 -2.6
v 11.8 2.1 -2.6
v 11.8 2 -2.6
v 11.8 2 -2.5
v 11.8 2.1 -2.5
v 11.8 2.1 -2.5
v 11.8 2 -2.5
v 11.9 2 -2.5
v 11.9 2.1 -2.5
v 11.9 2.1 -2.6
v 11.9 2 -2.6
v 11.8 2 -2.6
v 11.8 2.1 -2.6
v 12 2.1 -2.5
v 12 2 -2.5
v 12 2 -2.6
v 12 2.1 -2.6
v 11.9 2.1 -2.5
v 11.9 2 -2.5
v 12 2 -2.5
v 12 2.1 -2.5
v 12 2.1 -2.6
v 12 2 -2.6
v 11.9 2 -2.6
v 11.9 2.1 -2.6
v 11.3 2 -2.6
v 11.3 1.9 -2.6
v 11.3 1.9 -2.5
v 11.3 2 -2.5
v 11.3 1.9 -2.5
v 11.3 1.9 -2.6
v 11.4 1.9 -2.6
v 11.4 1.9 -2.5
v 11.3 2 -2.5
v 11.3 1.9 -2.5
v 11.4 1.9 -2.5
v 11.4 2 -2.5
v 11.4 2 -2.6
v 11.4 1.9 -2.6
v 11.3 1.9 -2.6
v 11.3 2 -2.6
v 11.5 2 -2.5
v 11.5 1.9 -2.5
v 11.5 1.9 -2.6
v 11.5 2 -2.6
v 11.4 2 -2.5
v 11.4 1.9 -2.5
v 11.5 1.9 -2.5
v 11.5 2 -2.5
v 11.5 2 -2.6
v 11.5 1.9 -2.6
v 11.4 1.9 -2.6
v 11.4 2 -2.6
v 11.8 2 -2.6
v 11.8 1.9 -2.6
v 11.8 1.9 -2.5
v 11.8 2 -2.5
v 11.8 2 -2.5
v 11.8 1.9 -2.5
v 11.9 1.9 -2.5
v 11.9 2 -2.5
v 11.9 2 -2.6
v 11.9 1.9 -2.6
v 11.8 1.9 -2.6
v 11.8 2 -2.6
v 12 2 -2.5
v 12 1.9 -2.5
v 12 1.9 -2.6
v 12 2 -2.6
v 11.9 1.9 -2.5
v 11.9 1.9 -2.6
v 12 1.9 -2.6
v 12 1.9 -2.5
v 11.9 2 -2.5
v 11.9 1.9 -2.5
v 12 1.9 -2.5
v 12 2 -2.5
v 12 2 -2.6
v 12 1.9 -2.6
v 11.9 1.9 -2.6
v 11.9 2 -2.6
v 11.4 1.9 -2.6
v 11.4 1.8 -2.6
v 11.4 1.8 -2.5
v 11.4 1.9 -2.5
v 11.5 1.9 -2.5
v 11.5 1.8 -2.5
v 11.5 1.8 -2.6
v 11.5 1.9 -2.6
v 11.4 1.8 -2.5
v 11.4 1.8 -2.6
v 11.5 1.8 -2.6
v 11.5 1.8 -2.5
v 11.4 1.9 -2.5
v 11.4 1.8 -2.5
v 11.5 1.8 -2.5
v 11.5 1.9 -2.5
v 11.5 1.9 -2.6
v 11.5 1.8 -2.6
v 11.4 1.8 -2.6
v 11.4 1.9 -2.6
v 11.8 1.9 -2.6
v 11.8 1.8 -2.6
v 11.8 1.8 -2.5
v 11.8 1.9 -2.5
v 11.9 1.9 -2.5
v 11.9 1.8 -2.5
v 11.9 1.8 -2.6
v 11.9 1.9 -2.6
v 11.8 1.9 -2.5
v 11.8 1.8 -2.5
v 11.9 1.8 -2.5
v 11.9 1.9 -2.5
v 11.9 1.9 -2.6
v 11.9 1.8 -2.6
v 11.8 1.8 -2.6
v 11.8 1.9 -2.6
v 11.5 1.8 -2.6
v 11.5 1.7 -2.6
v 11.5 1.7 -2.5
v 11.5 1.8 -2.5
v 11.6 1.8 -2.5
v 11.6 1.7 -2.5
v 11.6 1.7 -2.6
v 11.6 1.8 -2.6
v 11.5 1.8 -2.6
v 11.5 1.8 -2.5
v 11.6 1.8 -2.5
v 11.6 1.8 -2.6
v 11.5 1.7 -2.5
v 11.5 1.7 -2.6
v 11.6 1.7 -2.6
v 11.6 1.7 -2.5
v 11.5 1.8 -2.5
v 11.5 1.7 -2.5
v 11.6 1.7 -2.5
v 11.6 1.8 -2.5
v 11.6 1.8 -2.6
v 11.6 1.7 -2.6
v 11.5 1.7 -2.6
v 11.5 1.8 -2.6
v 11.8 1.8 -2.6
v 11.8 1.7 -2.6
v 11.8 1.7 -2.5
v 11.8 1.8 -2.5
v 11.9 1.8 -2.5
v 11.9 1.7 -2.5
v 11.9 1.7 -2.6
v 11.9 1.8 -2.6
v 11.8 1.8 -2.5
v 11.8 1.7 -2.5
v 11.9 1.7 -2.5
v 11.9 1.8 -2.5
v 11.9 1.8 -2.6
v 11.9 1.7 -2.6
v 11.8 1.7 -2.6
v 11.8 1.8 -2.6
v 11.6 1.7 -2.6
v 11.6 1.6 -2.6
v 11.6 1.6 -2.5
v 11.6 1.7 -2.5
v 11.7 1.7 -2.5
v 11.7 1.6 -2.5
v 11.7 1.6 -2.6
v 11.7 1.7 -2.6
v 11.6 1.7 -2.6
v 11.6 1.7 -2.5
v 11.7 1.7 -2.5
v 11.7 1.7 -2.6
v 11.6 1.6 -2.5
v 11.6 1.6 -2.6
v 11.7 1.6 -2.6
v 11.7 1.6 -2.5
v 11.6 1.7 -2.5
v 11.6 1.6 -2.5
v 11.7 1.6 -2.5
v 11.7 1.7 -2.5
v 11.7 1.7 -2.6
v 11.7 1.6 -2.6
v 11.6 1.6 -2.6
v 11.6 1.7 -2.6
v 11.8 1.7 -2.6
v 11.8 1.6 -2.6
v 11.8 1.6 -2.5
v 11.8 1.7 -2.5
v 11.9 1.7 -2.5
v 11.9 1.6 -2.5
v 11.9 1.6 -2.6
v 11.9 1.7 -2.6
v 11.8 1.6 -2.5
v 11.8 1.6 -2.6
v 11.9 1.6 -2.6
v 11.9 1.6 -2.5
v 11.8 1.7 -2.5
v 11.8 1.6 -2.5
v 11.9 1.6 -2.5
v 11.9 1.7 -2.5
v 11.9 1.7 -2.6
v 11.9 1.6 -2.6
v 11.8 1.6 -2.6
v 11.8 1.7 -2.6
v 11.7 1.6 -2.6
v 11.7 1.5 -2.6
v 11.7 1.5 -2.5
v 11.7 1.6 -2.5
v 11.8 1.6 -2.5
v 11.8 1.5 -2.5
v 11.8 1.5 -2.6
v 11.8 1.6 -2.6
v 11.7 1.6 -2.6
v 11.7 1.6 -2.5
v 11.8 1.6 -2.5
v 11.8 1.6 -2.6
v 11.7 1.5 -2.5
v 11.7 1.5 -2.6
v 11.8 1.5 -2.6
v 11.8 1.5 -2.5
v 11.7 1.6 -2.5
v 11.7 1.5 -2.5
v 11.8 1.5 -2.5
v 11.8 1.6 -2.5
v 11.8 1.6 -2.6
v 11.8 1.5 -2.6
v 11.7 1.5 -2.6
v 11.7 1.6 -2.6

# faces
f 1/3/1 2/3/1 3/3/1 4/3/1
f 5/3/2 6/3/2 7/3/2 8/3/2
f 9/3/3 10/3/3 11/3/3 12/3/3
f 13/3/5 14/3/5 15/3/5 16/3/5
f 17/3/6 18/3/6 19/3/6 20/3/6
f 21/3/1 22/3/1 23/3/1 24/3/1
f 25/3/2 26/3/2 27/3/2 28/3/2
f 29/3/5 30/3/5 31/3/5 32/3/5
f 33/3/6 34/3/6 35/3/6 36/3/6
f 37/3/1 38/3/1 39/3/1 40/3/1
f 41/3/4 42/3/4 43/3/4 44/3/4
f 45/3/5 46/3/5 47/3/5 48/3/5
f 49/3/6 50/3/6 51/3/6 52/3/6
f 53/3/2 54/3/2 55/3/2 56/3/2
f 57/3/3 58/3/3 59/3/3 60/3/3
f 61/3/5 62/3/5 63/3/5 64/3/5
f 65/3/6 66/3/6 67/3/6 68/3/6
f 69/3/1 70/3/1 71/3/1 72/3/1
f 73/3/2 74/3/2 75/3/2 76/3/2
f 77/3/5 78/3/5 79/3/5 80/3/5
f 81/3/6 82/3/6 83/3/6 84/3/6
f 85/3/1 86/3/1 87/3/1 88/3/1
f 89/3/2 90/3/2 91/3/2 92/3/2
f 93/3/5 94/3/5 95/3/5 96/3/5
f 97/3/6 98/3/6 99/3/6 100/3/6
f 101/3/1 102/3/1 103/3/1 104/3/1
f 105/3/5 106/3/5 107/3/5 108/3/5
f 109/3/6 110/3/6 111/3/6 112/3/6
f 113/3/2 114/3/2 115/3/2 116/3/2
f 117/3/3 118/3/3 119/3/3 120/3/3
f 121/3/5 122/3/5 123/3/5 124/3/5
f 125/3/6 126/3/6 127/3/6 128/3/6
f 129/3/1 130/3/1 131/3/1 132/3/1
f 133/3/5 134/3/5 135/3/5 136/3/5
f 137/3/6 138/3/6 139/3/6 140/3/6
f 141/3/2 142/3/2 143/3/2 144/3/2
f 145/3/5 146/3/5 147/3/5 148/3/5
f 149/3/6 150/3/6 151/3/6 152/3/6
f 153/3/1 154/3/1 155/3/1 156/3/1
f 157/3/5 158/3/5 159/3/5 160/3/5
f 161/3/6 162/3/6 163/3/6 164/3/6
f 165/3/2 166/3/2 167/3/2 168/3/2
f 169/3/5 170/3/5 171/3/5 172/3/5
f 173/3/6 174/3/6 175/3/6 176/3/6
f 177/3/1 178/3/1 179/3/1 180/3/1
f 181/3/4 182/3/4 183/3/4 184/3/4
f 185/3/5 186/3/5 187/3/5 188/3/5
f 189/3/6 190/3/6 191/3/6 192/3/6
f 193/3/5 194/3/5 195/3/5 196/3/5
f 197/3/6 198/3/6 199/3/6 200/3/6
f 201/3/2 202/3/2 203/3/2 204/3/2
f 205/3/3 206/3/3 207/3/3 208/3/3
f 209/3/5 210/3/5 211/3/5 212/3/5
f 213/3/6 214/3/6 215/3/6 216/3/6
f 217/3/1 218/3/1 219/3/1 220/3/1
f 221/3/5 222/3/5 223/3/5 224/3/5
f 225/3/6 226/3/6 227/3/6 228/3/6
f 229/3/2 230/3/2 231/3/2 232/3/2
f 233/3/5 234/3/5 235/3/5 236/3/5
f 237/3/6 238/3/6 239/3/6 240/3/6
f 241/3/1 242/3/1 243/3/1 244/3/1
f 245/3/4 246/3/4 247/3/4 248/3/4
f 249/3/5 250/3/5 251/3/5 252/3/5
f 253/3/6 254/3/6 255/3/6 256/3/6
f 257/3/2 258/3/2 259/3/2 260/3/2
f 261/3/5 262/3/5 263/3/5 264/3/5
f 265/3/6 266/3/6 267/3/6 268/3/6
f 269/3/1 270/3/1 271/3/1 272/3/1
f 273/3/2 274/3/2 275/3/2 276/3/2
f 277/3/4 278/3/4 279/3/4 280/3/4
f 281/3/5 282/3/5 283/3/5 284/3/5
f 285/3/6 286/3/6 287/3/6 288/3/6
f 289/3/1 290/3/1 291/3/1 292/3/1
f 293/3/2 294/3/2 295/3/2 296/3/2
f 297/3/3 298/3/3 299/3/3 300/3/3
f 301/3/5 302/3/5 303/3/5 304/3/5
f 305/3/6 306/3/6 307/3/6 308/3/6
f 309/3/1 310/3/1 311/3/1 312/3/1
f 313/3/2 314/3/2 315/3/2 316/3/2
f 317/3/3 318/3/3 319/3/3 320/3/3
f 321/3/5 322/3/5 323/3/5 324/3/5
f 325/3/6 326/3/6 327/3/6 328/3/6
f 329/3/1 330/3/1 331/3/1 332/3/1
f 333/3/3 334/3/3 335/3/3 336/3/3
f 337/3/5 338/3/5 339/3/5 340/3/5
f 341/3/6 342/3/6 343/3/6 344/3/6
f 345/3/5 346/3/5 347/3/5 348/3/5
f 349/3/6 350/3/6 351/3/6 352/3/6
f 353/3/2 354/3/2 355/3/2 356/3/2
f 357/3/3 358/3/3 359/3/3 360/3/3
f 361/3/5 362/3/5 363/3/5 364/3/5
f 365/3/6 366/3/6 367/3/6 368/3/6
f 369/3/1 370/3/1 371/3/1 372/3/1
f 373/3/2 374/3/2 375/3/2 376/3/2
f 377/3/5 378/3/5 379/3/5 380/3/5
f 381/3/6 382/3/6 383/3/6 384/3/6
f 385/3/1 386/3/1 387/3/1 388/3/1
f 389/3/3 390/3/3 391/3/3 392/3/3
f 393/3/5 394/3/5 395/3/5 396/3/5
f 397/3/6 398/3/6 399/3/6 400/3/6
f 401/3/5 402/3/5 403/3/5 404/3/5
f 405/3/6 406/3/6 407/3/6 408/3/6
f 409/3/5 410/3/5 411/3/5 412/3/5
f 413/3/6 414/3/6 415/3/6 416/3/6
f 417/3/2 418/3/2 419/3/2 420/3/2
f 421/3/5 422/3/5 423/3/5 424/3/5
f 425/3/6 426/3/6 427/3/6 428/3/6
f 429/3/1 430/3/1 431/3/1 432/3/1
f 433/3/3 434/3/3 435/3/3 436/3/3
f 437/3/5 438/3/5 439/3/5 440/3/5
f 441/3/6 442/3/6 443/3/6 444/3/6
f 445/3/2 446/3/2 447/3/2 448/3/2
f 449/3/5 450/3/5 451/3/5 452/3/5
f 453/3/6 454/3/6 455/3/6 456/3/6
f 457/3/1 458/3/1 459/3/1 460/3/1
f 461/3/3 462/3/3 463/3/3 464/3/3
f 465/3/5 466/3/5 467/3/5 468/3/5
f 469/3/6 470/3/6 471/3/6 472/3/6
f 473/3/5 474/3/5 475/3/5 476/3/5
f 477/3/6 478/3/6 479/3/6 480/3/6
f 481/3/5 482/3/5 483/3/5 484/3/5
f 485/3/6 486/3/6 487/3/6 488/3/6
f 489/3/5 490/3/5 491/3/5 492/3/5
f 493/3/6 494/3/6 495/3/6 496/3/6
f 497/3/2 498/3/2 499/3/2 500/3/2
f 501/3/5 502/3/5 503/3/5 504/3/5
f 505/3/6 506/3/6 507/3/6 508/3/6
f 509/3/1 510/3/1 511/3/1 512/3/1
f 513/3/4 514/3/4 515/3/4 516/3/4
f 517/3/5 518/3/5 519/3/5 520/3/5
f 521/3/6 522/3/6 523/3/6 524/3/6
f 525/3/5 526/3/5 527/3/5 528/3/5
f 529/3/6 530/3/6 531/3/6 532/3/6
f 533/3/2 534/3/2 535/3/2 536/3/2
f 537/3/3 538/3/3 539/3/3 540/3/3
f 541/3/5 542/3/5 543/3/5 544/3/5
f 545/3/6 546/3/6 547/3/6 548/3/6
f 549/3/1 550/3/1 551/3/1 552/3/1
f 553/3/5 554/3/5 555/3/5 556/3/5
f 557/3/6 558/3/6 559/3/6 560/3/6
f 561/3/5 562/3/5 563/3/5 564/3/5
f 565/3/6 566/3/6 567/3/6 568/3/6
f 569/3/5 570/3/5 571/3/5 572/3/5
f 573/3/6 574/3/6 575/3/6 576/3/6
f 577/3/5 578/3/5 579/3/5 580/3/5
f 581/3/6 582/3/6 583/3/6 584/3/6
f 585/3/2 586/3/2 587/3/2 588/3/2
f 589/3/5 590/3/5 591/3/5 592/3/5
f 593/3/6 594/3/6 595/3/6 596/3/6
f 597/2/1 598/2/1 599/2/1 600/2/1
f 601/2/2 602/2/2 603/2/2 604/2/2
f 605/2/3 606/2/3 607/2/3 608/2/3
f 609/2/5 610/2/5 611/2/5 612/2/5
f 613/2/6 614/2/6 615/2/6 616/2/6
f 617/3/1 618/3/1 619/3/1 620/3/1
f 621/3/5 622/3/5 623/3/5 624/3/5
f 625/3/6 626/3/6 627/3/6 628/3/6
f 629/3/2 630/3/2 631/3/2 632/3/2
f 633/3/5 634/3/5 635/3/5 636/3/5
f 637/3/6 638/3/6 639/3/6 640/3/6
f 641/3/1 642/3/1 643/3/1 644/3/1
f 645/3/5 646/3/5 647/3/5 648/3/5
f 649/3/6 650/3/6 651/3/6 652/3/6
f 653/3/5 654/3/5 655/3/5 656/3/5
f 657/3/6 658/3/6 659/3/6 660/3/6
f 661/3/5 662/3/5 663/3/5 664/3/5
f 665/3/6 666/3/6 667/3/6 668/3/6
f 669/3/5 670/3/5 671/3/5 672/3/5
f 673/3/6 674/3/6 675/3/6 676/3/6
f 677/3/2 678/3/2 679/3/2 680/3/2
f 681/3/5 682/3/5 683/3/5 684/3/5
f 685/3/6 686/3/6 687/3/6 688/3/6
f 689/2/1 690/2/1 691/2/1 692/2/1
f 693/2/2 694/2/2 695/2/2 696/2/2
f 697/2/5 698/2/5 699/2/5 700/2/5
f 701/2/6 702/2/6 703/2/6 704/2/6
f 705/3/1 706/3/1 707/3/1 708/3/1
f 709/3/4 710/3/4 711/3/4 712/3/4
f 713/3/5 714/3/5 715/3/5 716/3/5
f 717/3/6 718/3/6 719/3/6 720/3/6
f 721/3/2 722/3/2 723/3/2 724/3/2
f 725/3/5 726/3/5 727/3/5 728/3/5
f 729/3/6 730/3/6 731/3/6 732/3/6
f 733/3/1 734/3/1 735/3/1 736/3/1
f 737/3/4 738/3/4 739/3/4 740/3/4
f 741/3/5 742/3/5 743/3/5 744/3/5
f 745/3/6 746/3/6 747/3/6 748/3/6
f 749/3/5 750/3/5 751/3/5 752/3/5
f 753/3/6 754/3/6 755/3/6 756/3/6
f 757/3/5 758/3/5 759/3/5 760/3/5
f 761/3/6 762/3/6 763/3/6 764/3/6
f 765/3/5 766/3/5 767/3/5 768/3/5
f 769/3/6 770/3/6 771/3/6 772/3/6
f 773/3/2 774/3/2 775/3/2 776/3/2
f 777/3/5 778/3/5 779/3/5 780/3/5
f 781/3/6 782/3/6 783/3/6 784/3/6
f 785/2/1 786/2/1 787/2/1 788/2/1
f 789/2/2 790/2/2 791/2/2 792/2/2
f 793/2/4 794/2/4 795/2/4 796/2/4
f 797/2/5 798/2/5 799/2/5 800/2/5
f 801/2/6 802/2/6 803/2/6 804/2/6
f 805/3/1 806/3/1 807/3/1 808/3/1
f 809/3/2 810/3/2 811/3/2 812/3/2
f 813/3/4 814/3/4 815/3/4 816/3/4
f 817/3/5 818/3/5 819/3/5 820/3/5
f 821/3/6 822/3/6 823/3/6 824/3/6
f 825/3/1 826/3/1 827/3/1 828/3/1
f 829/3/5 830/3/5 831/3/5 832/3/5
f 833/3/6 834/3/6 835/3/6 836/3/6
f 837/3/5 838/3/5 839/3/5 840/3/5
f 841/3/6 842/3/6 843/3/6 844/3/6
f 845/3/5 846/3/5 847/3/5 848/3/5
f 849/3/6 850/3/6 851/3/6 852/3/6
f 853/3/2 854/3/2 855/3/2 856/3/2
f 857/3/5 858/3/5 859/3/5 860/3/5
f 861/3/6 862/3/6 863/3/6 864/3/6
f 865/2/1 866/2/1 867/2/1 868/2/1
f 869/2/2 870/2/2 871/2/2 872/2/2
f 873/2/3 874/2/3 875/2/3 876/2/3
f 877/2/5 878/2/5 879/2/5 880/2/5
f 881/2/6 882/2/6 883/2/6 884/2/6
f 885/3/1 886/3/1 887/3/1 888/3/1
f 889/3/5 890/3/5 891/3/5 892/3/5
f 893/3/6 894/3/6 895/3/6 896/3/6
f 897/3/5 898/3/5 899/3/5 900/3/5
f 901/3/6 902/3/6 903/3/6 904/3/6
f 905/3/5 906/3/5 907/3/5 908/3/5
f 909/3/6 910/3/6 911/3/6 912/3/6
f 913/3/2 914/3/2 915/3/2 916/3/2
f 917/3/5 918/3/5 919/3/5 920/3/5
f 921/3/6 922/3/6 923/3/6 924/3/6
f 925/2/1 926/2/1 927/2/1 928/2/1
f 929/2/2 930/2/2 931/2/2 932/2/2
f 933/2/5 934/2/5 935/2/5 936/2/5
f 937/2/6 938/2/6 939/2/6 940/2/6
f 941/2/1 942/2/1 943/2/1 944/2/1
f 945/2/2 946/2/2 947/2/2 948/2/2
f 949/2/3 950/2/3 951/2/3 952/2/3
f 953/2/4 954/2/4 955/2/4 956/2/4
f 957/2/5 958/2/5 959/2/5 960/2/5
f 961/2/6 962/2/6 963/2/6 964/2/6
f 965/3/1 966/3/1 967/3/1 968/3/1
f 969/3/5 970/3/5 971/3/5 972/3/5
f 973/3/6 974/3/6 975/3/6 976/3/6
f 977/3/5 978/3/5 979/3/5 980/3/5
f 981/3/6 982/3/6 983/3/6 984/3/6
f 985/3/5 986/3/5 987/3/5 988/3/5
f 989/3/6 990/3/6 991/3/6 992/3/6
f 993/3/2 994/3/2 995/3/2 996/3/2
f 997/3/5 998/3/5 999/3/5 1000/3/5
f 1001/3/6 1002/3/6 1003/3/6 1004/3/6
f 1005/2/1 1006/2/1 1007/2/1 1008/2/1
f 1009/2/3 1010/2/3 1011/2/3 1012/2/3
f 1013/2/5 1014/2/5 1015/2/5 1016/2/5
f 1017/2/6 1018/2/6 1019/2/6 1020/2/6
f 1021/2/2 1022/2/2 1023/2/2 1024/2/2
f 1025/2/5 1026/2/5 1027/2/5 1028/2/5
f 1029/2/6 1030/2/6 1031/2/6 1032/2/6
f 1033/3/1 1034/3/1 1035/3/1 1036/3/1
f 1037/3/5 1038/3/5 1039/3/5 1040/3/5
f 1041/3/6 1042/3/6 1043/3/6 1044/3/6
f 1045/3/5 1046/3/5 1047/3/5 1048/3/5
f 1049/3/6 1050/3/6 1051/3/6 1052/3/6
f 1053/3/5 1054/3/5 1055/3/5 1056/3/5
f 1057/3/6 1058/3/6 1059/3/6 1060/3/6
f 1061/3/2 1062/3/2 1063/3/2 1064/3/2
f 1065/3/5 1066/3/5 1067/3/5 1068/3/5
f 1069/3/6 1070/3/6 1071/3/6 1072/3/6
f 1073/2/1 1074/2/1 1075/2/1 1076/2/1
f 1077/2/5 1078/2/5 1079/2/5 1080/2/5
f 1081/2/6 1082/2/6 1083/2/6 1084/2/6
f 1085/2/2 1086/2/2 1087/2/2 1088/2/2
f 1089/2/5 1090/2/5 1091/2/5 1092/2/5
f 1093/2/6 1094/2/6 1095/2/6 1096/2/6
f 1097/2/1 1098/2/1 1099/2/1 1100/2/1
f 1101/2/2 1102/2/2 1103/2/2 1104/2/2
f 1105/2/3 1106/2/3 1107/2/3 1108/2/3
f 1109/2/4 1110/2/4 1111/2/4 1112/2/4
f 1113/2/5 1114/2/5 1115/2/5 1116/2/5
f 1117/2/6 1118/2/6 1119/2/6 1120/2/6
f 1121/3/1 1122/3/1 1123/3/1 1124/3/1
f 1125/3/5 1126/3/5 1127/3/5 1128/3/5
f 1129/3/6 1130/3/6 1131/3/6 1132/3/6
f 1133/3/5 1134/3/5 1135/3/5 1136/3/5
f 1137/3/6 1138/3/6 1139/3/6 1140/3/6
f 1141/3/5 1142/3/5 1143/3/5 1144/3/5
f 1145/3/6 1146/3/6 1147/3/6 1148/3/6
f 1149/3/2 1150/3/2 1151/3/2 1152/3/2
f 1153/3/5 1154/3/5 1155/3/5 1156/3/5
f 1157/3/6 1158/3/6 1159/3/6 1160/3/6
f 1161/2/1 1162/2/1 1163/2/1 1164/2/1
f 1165/2/3 1166/2/3 1167/2/3 1168/2/3
f 1169/2/5 1170/2/5 1171/2/5 1172/2/5
f 1173/2/6 1174/2/6 1175/2/6 1176/2/6
f 1177/4/5 1178/4/5 1179/4/5 1180/4/5
f 1181/4/6 1182/4/6 1183/4/6 1184/4/6
f 1185/2/2 1186/2/2 1187/2/2 1188/2/2
f 1189/2/5 1190/2/5 1191/2/5 1192/2/5
f 1193/2/6 1194/2/6 1195/2/6 1196/2/6
f 1197/2/1 1198/2/1 1199/2/1 1200/2/1
f 1201/2/2 1202/2/2 1203/2/2 1204/2/2
f 1205/2/3 1206/2/3 1207/2/3 1208/2/3
f 1209/2/5 1210/2/5 1211/2/5 1212/2/5
f 1213/2/6 1214/2/6 1215/2/6 1216/2/6
f 1217/3/1 1218/3/1 1219/3/1 1220/3/1
f 1221/3/5 1222/3/5 1223/3/5 1224/3/5
f 1225/3/6 1226/3/6 1227/3/6 1228/3/6
f 1229/3/5 1230/3/5 1231/3/5 1232/3/5
f 1233/3/6 1234/3/6 1235/3/6 1236/3/6
f 1237/3/5 1238/3/5 1239/3/5 1240/3/5
f 1241/3/6 1242/3/6 1243/3/6 1244/3/6
f 1245/3/2 1246/3/2 1247/3/2 1248/3/2
f 1249/3/5 1250/3/5 1251/3/5 1252/3/5
f 1253/3/6 1254/3/6 1255/3/6 1256/3/6
f 1257/2/1 1258/2/1 1259/2/1 1260/2/1
f 1261/2/5 1262/2/5 1263/2/5 1264/2/5
f 1265/2/6 1266/2/6 1267/2/6 1268/2/6
f 1269/4/5 1270/4/5 1271/4/5 1272/4/5
f 1273/4/6 1274/4/6 1275/4/6 1276/4/6
f 1277/2/2 1278/2/2 1279/2/2 1280/2/2
f 1281/2/4 1282/2/4 1283/2/4 1284/2/4
f 1285/2/5 1286/2/5 1287/2/5 1288/2/5
f 1289/2/6 1290/2/6 1291/2/6 1292/2/6
f 1293/2/1 1294/2/1 1295/2/1 1296/2/1
f 1297/2/4 1298/2/4 1299/2/4 1300/2/4
f 1301/2/5 1302/2/5 1303/2/5 1304/2/5
f 1305/2/6 1306/2/6 1307/2/6 1308/2/6
f 1309/2/2 1310/2/2 1311/2/2 1312/2/2
f 1313/2/3 1314/2/3 1315/2/3 1316/2/3
f 1317/2/5 1318/2/5 1319/2/5 1320/2/5
f 1321/2/6 1322/2/6 1323/2/6 1324/2/6
f 1325/3/1 1326/3/1 1327/3/1 1328/3/1
f 1329/3/5 1330/3/5 1331/3/5 1332/3/5
f 1333/3/6 1334/3/6 1335/3/6 1336/3/6
f 1337/3/5 1338/3/5 1339/3/5 1340/3/5
f 1341/3/6 1342/3/6 1343/3/6 1344/3/6
f 1345/3/5 1346/3/5 1347/3/5 1348/3/5
f 1349/3/6 1350/3/6 1351/3/6 1352/3/6
f 1353/3/2 1354/3/2 1355/3/2 1356/3/2
f 1357/3/5 1358/3/5 1359/3/5 1360/3/5
f 1361/3/6 1362/3/6 1363/3/6 1364/3/6
f 1365/2/1 1366/2/1 1367/2/1 1368/2/1
f 1369/2/3 1370/2/3 1371/2/3 1372/2/3
f 1373/2/5 1374/2/5 1375/2/5 1376/2/5
f 1377/2/6 1378/2/6 1379/2/6 1380/2/6
f 1381/4/5 1382/4/5 1383/4/5 1384/4/5
f 1385/4/6 1386/4/6 1387/4/6 1388/4/6
f 1389/2/2 1390/2/2 1391/2/2 1392/2/2
f 1393/2/5 1394/2/5 1395/2/5 1396/2/5
f 1397/2/6 1398/2/6 1399/2/6 1400/2/6
f 1401/2/1 1402/2/1 1403/2/1 1404/2/1
f 1405/2/5 1406/2/5 1407/2/5 1408/2/5
f 1409/2/6 1410/2/6 1411/2/6 1412/2/6
f 1413/2/2 1414/2/2 1415/2/2 1416/2/2
f 1417/2/3 1418/2/3 1419/2/3 1420/2/3
f 1421/2/5 1422/2/5 1423/2/5 1424/2/5
f 1425/2/6 1426/2/6 1427/2/6 1428/2/6
f 1429/3/1 1430/3/1 1431/3/1 1432/3/1
f 1433/3/5 1434/3/5 1435/3/5 1436/3/5
f 1437/3/6 1438/3/6 1439/3/6 1440/3/6
f 1441/3/5 1442/3/5 1443/3/5 1444/3/5
f 1445/3/6 1446/3/6 1447/3/6 1448/3/6
f 1449/3/5 1450/3/5 1451/3/5 1452/3/5
f 1453/3/6 1454/3/6 1455/3/6 1456/3/6
f 1457/3/2 1458/3/2 1459/3/2 1460/3/2
f 1461/3/4 1462/3/4 1463/3/4 1464/3/4
f 1465/3/5 1466/3/5 1467/3/5 1468/3/5
f 1469/3/6 1470/3/6 1471/3/6 1472/3/6
f 1473/2/1 1474/2/1 1475/2/1 1476/2/1
f 1477/2/5 1478/2/5 1479/2/5 1480/2/5
f 1481/2/6 1482/2/6 1483/2/6 1484/2/6
f 1485/4/5 1486/4/5 1487/4/5 1488/4/5
f 1489/4/6 1490/4/6 1491/4/6 1492/4/6
f 1493/2/2 1494/2/2 1495/2/2 1496/2/2
f 1497/2/5 1498/2/5 1499/2/5 1500/2/5
f 1501/2/6 1502/2/6 1503/2/6 1504/2/6
f 1505/2/1 1506/2/1 1507/2/1 1508/2/1
f 1509/2/4 1510/2/4 1511/2/4 1512/2/4
f 1513/2/5 1514/2/5 1515/2/5 1516/2/5
f 1517/2/6 1518/2/6 1519/2/6 1520/2/6
f 1521/4/5 1522/4/5 1523/4/5 1524/4/5
f 1525/4/6 1526/4/6 1527/4/6 1528/4/6
f 1529/2/2 1530/2/2 1531/2/2 1532/2/2
f 1533/2/3 1534/2/3 1535/2/3 1536/2/3
f 1537/2/5 1538/2/5 1539/2/5 1540/2/5
f 1541/2/6 1542/2/6 1543/2/6 1544/2/6
f 1545/3/1 1546/3/1 1547/3/1 1548/3/1
f 1549/3/4 1550/3/4 1551/3/4 1552/3/4
f 1553/3/5 1554/3/5 1555/3/5 1556/3/5
f 1557/3/6 1558/3/6 1559/3/6 1560/3/6
f 1561/3/5 1562/3/5 1563/3/5 1564/3/5
f 1565/3/6 1566/3/6 1567/3/6 1568/3/6
f 1569/3/2 1570/3/2 1571/3/2 1572/3/2
f 1573/3/5 1574/3/5 1575/3/5 1576/3/5
f 1577/3/6 1578/3/6 1579/3/6 1580/3/6
f 1581/2/1 1582/2/1 1583/2/1 1584/2/1
f 1585/2/3 1586/2/3 1587/2/3 1588/2/3
f 1589/2/5 1590/2/5 1591/2/5 1592/2/5
f 1593/2/6 1594/2/6 1595/2/6 1596/2/6
f 1597/4/5 1598/4/5 1599/4/5 1600/4/5
f 1601/4/6 1602/4/6 1603/4/6 1604/4/6
f 1605/4/5 1606/4/5 1607/4/5 1608/4/5
f 1609/4/6 1610/4/6 1611/4/6 1612/4/6
f 1613/2/2 1614/2/2 1615/2/2 1616/2/2
f 1617/2/5 1618/2/5 1619/2/5 1620/2/5
f 1621/2/6 1622/2/6 1623/2/6 1624/2/6
f 1625/2/1 1626/2/1 1627/2/1 1628/2/1
f 1629/2/5 1630/2/5 1631/2/5 1632/2/5
f 1633/2/6 1634/2/6 1635/2/6 1636/2/6
f 1637/4/5 1638/4/5 1639/4/5 1640/4/5
f 1641/4/6 1642/4/6 1643/4/6 1644/4/6
f 1645/2/2 1646/2/2 1647/2/2 1648/2/2
f 1649/2/3 1650/2/3 1651/2/3 1652/2/3
f 1653/2/5 1654/2/5 1655/2/5 1656/2/5
f 1657/2/6 1658/2/6 1659/2/6 1660/2/6
f 1661/2/1 1662/2/1 1663/2/1 1664/2/1
f 1665/2/2 1666/2/2 1667/2/2 1668/2/2
f 1669/2/3 1670/2/3 1671/2/3 1672/2/3
f 1673/2/5 1674/2/5 1675/2/5 1676/2/5
f 1677/2/6 1678/2/6 1679/2/6 1680/2/6
f 1681/3/1 1682/3/1 1683/3/1 1684/3/1
f 1685/3/5 1686/3/5 1687/3/5 1688/3/5
f 1689/3/6 1690/3/6 1691/3/6 1692/3/6
f 1693/3/2 1694/3/2 1695/3/2 1696/3/2
f 1697/3/5 1698/3/5 1699/3/5 1700/3/5
f 1701/3/6 1702/3/6 1703/3/6 1704/3/6
f 1705/4/1 1706/4/1 1707/4/1 1708/4/1
f 1709/4/5 1710/4/5 1711/4/5 1712/4/5
f 1713/4/6 1714/4/6 1715/4/6 1716/4/6
f 1717/1/5 1718/1/5 1719/1/5 1720/1/5
f 1721/1/6 1722/1/6 1723/1/6 1724/1/6
f 1725/4/5 1726/4/5 1727/4/5 1728/4/5
f 1729/4/6 1730/4/6 1731/4/6 1732/4/6
f 1733/2/2 1734/2/2 1735/2/2 1736/2/2
f 1737/2/5 1738/2/5 1739/2/5 1740/2/5
f 1741/2/6 1742/2/6 1743/2/6 1744/2/6
f 1745/2/1 1746/2/1 1747/2/1 1748/2/1
f 1749/2/4 1750/2/4 1751/2/4 1752/2/4
f 1753/2/5 1754/2/5 1755/2/5 1756/2/5
f 1757/2/6 1758/2/6 1759/2/6 1760/2/6
f 1761/4/5 1762/4/5 1763/4/5 1764/4/5
f 1765/4/6 1766/4/6 1767/4/6 1768/4/6
f 1769/4/5 1770/4/5 1771/4/5 1772/4/5
f 1773/4/6 1774/4/6 1775/4/6 1776/4/6
f 1777/2/2 1778/2/2 1779/2/2 1780/2/2
f 1781/2/3 1782/2/3 1783/2/3 1784/2/3
f 1785/2/5 1786/2/5 1787/2/5 1788/2/5
f 1789/2/6 1790/2/6 1791/2/6 1792/2/6
f 1793/2/1 1794/2/1 1795/2/1 1796/2/1
f 1797/2/2 1798/2/2 1799/2/2 1800/2/2
f 1801/2/5 1802/2/5 1803/2/5 1804/2/5
f 1805/2/6 1806/2/6 1807/2/6 1808/2/6
f 1809/3/1 1810/3/1 1811/3/1 1812/3/1
f 1813/3/5 1814/3/5 1815/3/5 1816/3/5
f 1817/3/6 1818/3/6 1819/3/6 1820/3/6
f 1821/3/2 1822/3/2 1823/3/2 1824/3/2
f 1825/3/5 1826/3/5 1827/3/5 1828/3/5
f 1829/3/6 1830/3/6 1831/3/6 1832/3/6
f 1833/1/1 1834/1/1 1835/1/1 1836/1/1
f 1837/1/5 1838/1/5 1839/1/5 1840/1/5
f 1841/1/6 1842/1/6 1843/1/6 1844/1/6
f 1845/1/5 1846/1/5 1847/1/5 1848/1/5
f 1849/1/6 1850/1/6 1851/1/6 1852/1/6
f 1853/4/5 1854/4/5 1855/4/5 1856/4/5
f 1857/4/6 1858/4/6 1859/4/6 1860/4/6
f 1861/2/2 1862/2/2 1863/2/2 1864/2/2
f 1865/2/5 1866/2/5 1867/2/5 1868/2/5
f 1869/2/6 1870/2/6 1871/2/6 1872/2/6
f 1873/2/1 1874/2/1 1875/2/1 1876/2/1
f 1877/2/4 1878/2/4 1879/2/4 1880/2/4
f 1881/2/5 1882/2/5 1883/2/5 1884/2/5
f 1885/2/6 1886/2/6 1887/2/6 1888/2/6
f 1889/4/5 1890/4/5 1891/4/5 1892/4/5
f 1893/4/6 1894/4/6 1895/4/6 1896/4/6
f 1897/4/5 1898/4/5 1899/4/5 1900/4/5
f 1901/4/6 1902/4/6 1903/4/6 1904/4/6
f 1905/2/3 1906/2/3 1907/2/3 1908/2/3
f 1909/2/5 1910/2/5 1911/2/5 1912/2/5
f 1913/2/6 1914/2/6 1915/2/6 1916/2/6
f 1917/4/5 1918/4/5 1919/4/5 1920/4/5
f 1921/4/6 1922/4/6 1923/4/6 1924/4/6
f 1925/1/2 1926/1/2 1927/1/2 1928/1/2
f 1929/1/3 1930/1/3 1931/1/3 1932/1/3
f 1933/1/5 1934/1/5 1935/1/5 1936/1/5
f 1937/1/6 1938/1/6 1939/1/6 1940/1/6
f 1941/3/1 1942/3/1 1943/3/1 1944/3/1
f 1945/3/5 1946/3/5 1947/3/5 1948/3/5
f 1949/3/6 1950/3/6 1951/3/6 1952/3/6
f 1953/3/2 1954/3/2 1955/3/2 1956/3/2
f 1957/3/5 1958/3/5 1959/3/5 1960/3/5
f 1961/3/6 1962/3/6 1963/3/6 1964/3/6
f 1965/1/1 1966/1/1 1967/1/1 1968/1/1
f 1969/1/5 1970/1/5 1971/1/5 1972/1/5
f 1973/1/6 1974/1/6 1975/1/6 1976/1/6
f 1977/1/5 1978/1/5 1979/1/5 1980/1/5
f 1981/1/6 1982/1/6 1983/1/6 1984/1/6
f 1985/4/5 1986/4/5 1987/4/5 1988/4/5
f 1989/4/6 1990/4/6 1991/4/6 1992/4/6
f 1993/2/2 1994/2/2 1995/2/2 1996/2/2
f 1997/2/4 1998/2/4 1999/2/4 2000/2/4
f 2001/2/5 2002/2/5 2003/2/5 2004/2/5
f 2005/2/6 2006/2/6 2007/2/6 2008/2/6
f 2009/2/1 2010/2/1 2011/2/1 2012/2/1
f 2013/2/5 2014/2/5 2015/2/5 2016/2/5
f 2017/2/6 2018/2/6 2019/2/6 2020/2/6
f 2021/4/5 2022/4/5 2023/4/5 2024/4/5
f 2025/4/6 2026/4/6 2027/4/6 2028/4/6
f 2029/4/5 2030/4/5 2031/4/5 2032/4/5
f 2033/4/6 2034/4/6 2035/4/6 2036/4/6
f 2037/1/5 2038/1/5 2039/1/5 2040/1/5
f 2041/1/6 2042/1/6 2043/1/6 2044/1/6
f 2045/1/2 2046/1/2 2047/1/2 2048/1/2
f 2049/1/5 2050/1/5 2051/1/5 2052/1/5
f 2053/1/6 2054/1/6 2055/1/6 2056/1/6
f 2057/3/1 2058/3/1 2059/3/1 2060/3/1
f 2061/3/5 2062/3/5 2063/3/5 2064/3/5
f 2065/3/6 2066/3/6 2067/3/6 2068/3/6
f 2069/3/2 2070/3/2 2071/3/2 2072/3/2
f 2073/3/5 2074/3/5 2075/3/5 2076/3/5
f 2077/3/6 2078/3/6 2079/3/6 2080/3/6
f 2081/1/1 2082/1/1 2083/1/1 2084/1/1
f 2085/1/5 2086/1/5 2087/1/5 2088/1/5
f 2089/1/6 2090/1/6 2091/1/6 2092/1/6
f 2093/4/5 2094/4/5 2095/4/5 2096/4/5
f 2097/4/6 2098/4/6 2099/4/6 2100/4/6
f 2101/2/2 2102/2/2 2103/2/2 2104/2/2
f 2105/2/5 2106/2/5 2107/2/5 2108/2/5
f 2109/2/6 2110/2/6 2111/2/6 2112/2/6
f 2113/2/1 2114/2/1 2115/2/1 2116/2/1
f 2117/2/4 2118/2/4 2119/2/4 2120/2/4
f 2121/2/5 2122/2/5 2123/2/5 2124/2/5
f 2125/2/6 2126/2/6 2127/2/6 2128/2/6
f 2129/4/5 2130/4/5 2131/4/5 2132/4/5
f 2133/4/6 2134/4/6 2135/4/6 2136/4/6
f 2137/1/5 2138/1/5 2139/1/5 2140/1/5
f 2141/1/6 2142/1/6 2143/1/6 2144/1/6
f 2145/1/5 2146/1/5 2147/1/5 2148/1/5
f 2149/1/6 2150/1/6 2151/1/6 2152/1/6
f 2153/1/2 2154/1/2 2155/1/2 2156/1/2
f 2157/1/5 2158/1/5 2159/1/5 2160/1/5
f 2161/1/6 2162/1/6 2163/1/6 2164/1/6
f 2165/3/1 2166/3/1 2167/3/1 2168/3/1
f 2169/3/5 2170/3/5 2171/3/5 2172/3/5
f 2173/3/6 2174/3/6 2175/3/6 2176/3/6
f 2177/3/2 2178/3/2 2179/3/2 2180/3/2
f 2181/3/5 2182/3/5 2183/3/5 2184/3/5
f 2185/3/6 2186/3/6 2187/3/6 2188/3/6
f 2189/1/1 2190/1/1 2191/1/1 2192/1/1
f 2193/1/5 2194/1/5 2195/1/5 2196/1/5
f 2197/1/6 2198/1/6 2199/1/6 2200/1/6
f 2201/4/5 2202/4/5 2203/4/5 2204/4/5
f 2205/4/6 2206/4/6 2207/4/6 2208/4/6
f 2209/2/2 2210/2/2 2211/2/2 2212/2/2
f 2213/2/5 2214/2/5 2215/2/5 2216/2/5
f 2217/2/6 2218/2/6 2219/2/6 2220/2/6
f 2221/2/1 2222/2/1 2223/2/1 2224/2/1
f 2225/2/5 2226/2/5 2227/2/5 2228/2/5
f 2229/2/6 2230/2/6 2231/2/6 2232/2/6
f 2233/4/5 2234/4/5 2235/4/5 2236/4/5
f 2237/4/6 2238/4/6 2239/4/6 2240/4/6
f 2241/1/5 2242/1/5 2243/1/5 2244/1/5
f 2245/1/6 2246/1/6 2247/1/6 2248/1/6
f 2249/1/5 2250/1/5 2251/1/5 2252/1/5
f 2253/1/6 2254/1/6 2255/1/6 2256/1/6
f 2257/1/2 2258/1/2 2259/1/2 2260/1/2
f 2261/1/3 2262/1/3 2263/1/3 2264/1/3
f 2265/1/5 2266/1/5 2267/1/5 2268/1/5
f 2269/1/6 2270/1/6 2271/1/6 2272/1/6
f 2273/3/1 2274/3/1 2275/3/1 2276/3/1
f 2277/3/5 2278/3/5 2279/3/5 2280/3/5
f 2281/3/6 2282/3/6 2283/3/6 2284/3/6
f 2285/3/2 2286/3/2 2287/3/2 2288/3/2
f 2289/3/5 2290/3/5 2291/3/5 2292/3/5
f 2293/3/6 2294/3/6 2295/3/6 2296/3/6
f 2297/1/1 2298/1/1 2299/1/1 2300/1/1
f 2301/1/5 2302/1/5 2303/1/5 2304/1/5
f 2305/1/6 2306/1/6 2307/1/6 2308/1/6
f 2309/4/5 2310/4/5 2311/4/5 2312/4/5
f 2313/4/6 2314/4/6 2315/4/6 2316/4/6
f 2317/2/2 2318/2/2 2319/2/2 2320/2/2
f 2321/2/5 2322/2/5 2323/2/5 2324/2/5
f 2325/2/6 2326/2/6 2327/2/6 2328/2/6
f 2329/2/1 2330/2/1 2331/2/1 2332/2/1
f 2333/2/4 2334/2/4 2335/2/4 2336/2/4
f 2337/2/5 2338/2/5 2339/2/5 2340/2/5
f 2341/2/6 2342/2/6 2343/2/6 2344/2/6
f 2345/4/5 2346/4/5 2347/4/5 2348/4/5
f 2349/4/6 2350/4/6 2351/4/6 2352/4/6
f 2353/1/5 2354/1/5 2355/1/5 2356/1/5
f 2357/1/6 2358/1/6 2359/1/6 2360/1/6
f 2361/1/5 2362/1/5 2363/1/5 2364/1/5
f 2365/1/6 2366/1/6 2367/1/6 2368/1/6
f 2369/1/2 2370/1/2 2371/1/2 2372/1/2
f 2373/1/5 2374/1/5 2375/1/5 2376/1/5
f 2377/1/6 2378/1/6 2379/1/6 2380/1/6
f 2381/3/1 2382/3/1 2383/3/1 2384/3/1
f 2385/3/5 2386/3/5 2387/3/5 2388/3/5
f 2389/3/6 2390/3/6 2391/3/6 2392/3/6
f 2393/3/2 2394/3/2 2395/3/2 2396/3/2
f 2397/3/5 2398/3/5 2399/3/5 2400/3/5
f 2401/3/6 2402/3/6 2403/3/6 2404/3/6
f 2405/1/1 2406/1/1 2407/1/1 2408/1/1
f 2409/1/5 2410/1/5 2411/1/5 2412/1/5
f 2413/1/6 2414/1/6 2415/1/6 2416/1/6
f 2417/4/5 2418/4/5 2419/4/5 2420/4/5
f 2421/4/6 2422/4/6 2423/4/6 2424/4/6
f 2425/2/2 2426/2/2 2427/2/2 2428/2/2
f 2429/2/5 2430/2/5 2431/2/5 2432/2/5
f 2433/2/6 2434/2/6 2435/2/6 2436/2/6
f 2437/2/1 2438/2/1 2439/2/1 2440/2/1
f 2441/2/5 2442/2/5 2443/2/5 2444/2/5
f 2445/2/6 2446/2/6 2447/2/6 2448/2/6
f 2449/4/5 2450/4/5 2451/4/5 2452/4/5
f 2453/4/6 2454/4/6 2455/4/6 2456/4/6
f 2457/1/5 2458/1/5 2459/1/5 2460/1/5
f 2461/1/6 2462/1/6 2463/1/6 2464/1/6
f 2465/1/5 2466/1/5 2467/1/5 2468/1/5
f 2469/1/6 2470/1/6 2471/1/6 2472/1/6
f 2473/1/2 2474/1/2 2475/1/2 2476/1/2
f 2477/1/3 2478/1/3 2479/1/3 2480/1/3
f 2481/1/5 2482/1/5 2483/1/5 2484/1/5
f 2485/1/6 2486/1/6 2487/1/6 2488/1/6
f 2489/3/1 2490/3/1 2491/3/1 2492/3/1
f 2493/3/5 2494/3/5 2495/3/5 2496/3/5
f 2497/3/6 2498/3/6 2499/3/6 2500/3/6
f 2501/3/2 2502/3/2 2503/3/2 2504/3/2
f 2505/3/5 2506/3/5 2507/3/5 2508/3/5
f 2509/3/6 2510/3/6 2511/3/6 2512/3/6
f 2513/1/1 2514/1/1 2515/1/1 2516/1/1
f 2517/1/3 2518/1/3 2519/1/3 2520/1/3
f 2521/1/5 2522/1/5 2523/1/5 2524/1/5
f 2525/1/6 2526/1/6 2527/1/6 2528/1/6
f 2529/1/5 2530/1/5 2531/1/5 2532/1/5
f 2533/1/6 2534/1/6 2535/1/6 2536/1/6
f 2537/4/5 2538/4/5 2539/4/5 2540/4/5
f 2541/4/6 2542/4/6 2543/4/6 2544/4/6
f 2545/2/2 2546/2/2 2547/2/2 2548/2/2
f 2549/2/5 2550/2/5 2551/2/5 2552/2/5
f 2553/2/6 2554/2/6 2555/2/6 2556/2/6
f 2557/2/1 2558/2/1 2559/2/1 2560/2/1
f 2561/2/4 2562/2/4 2563/2/4 2564/2/4
f 2565/2/5 2566/2/5 2567/2/5 2568/2/5
f 2569/2/6 2570/2/6 2571/2/6 2572/2/6
f 2573/4/5 2574/4/5 2575/4/5 2576/4/5
f 2577/4/6 2578/4/6 2579/4/6 2580/4/6
f 2581/1/5 2582/1/5 2583/1/5 2584/1/5
f 2585/1/6 2586/1/6 2587/1/6 2588/1/6
f 2589/1/5 2590/1/5 2591/1/5 2592/1/5
f 2593/1/6 2594/1/6 2595/1/6 2596/1/6
f 2597/1/2 2598/1/2 2599/1/2 2600/1/2
f 2601/1/5 2602/1/5 2603/1/5 2604/1/5
f 2605/1/6 2606/1/6 2607/1/6 2608/1/6
f 2609/3/1 2610/3/1 2611/3/1 2612/3/1
f 2613/3/5 2614/3/5 2615/3/5 2616/3/5
f 2617/3/6 2618/3/6 2619/3/6 2620/3/6
f 2621/3/2 2622/3/2 2623/3/2 2624/3/2
f 2625/3/5 2626/3/5 2627/3/5 2628/3/5
f 2629/3/6 2630/3/6 2631/3/6 2632/3/6
f 2633/1/1 2634/1/1 2635/1/1 2636/1/1
f 2637/1/5 2638/1/5 2639/1/5 2640/1/5
f 2641/1/6 2642/1/6 2643/1/6 2644/1/6
f 2645/1/5 2646/1/5 2647/1/5 2648/1/5
f 2649/1/6 2650/1/6 2651/1/6 2652/1/6
f 2653/4/5 2654/4/5 2655/4/5 2656/4/5
f 2657/4/6 2658/4/6 2659/4/6 2660/4/6
f 2661/2/2 2662/2/2 2663/2/2 2664/2/2
f 2665/2/4 2666/2/4 2667/2/4 2668/2/4
f 2669/2/5 2670/2/5 2671/2/5 2672/2/5
f 2673/2/6 2674/2/6 2675/2/6 2676/2/6
f 2677/2/1 2678/2/1 2679/2/1 2680/2/1
f 2681/2/4 2682/2/4 2683/2/4 2684/2/4
f 2685/2/5 2686/2/5 2687/2/5 2688/2/5
f 2689/2/6 2690/2/6 2691/2/6 2692/2/6
f 2693/4/5 2694/4/5 2695/4/5 2696/4/5
f 2697/4/6 2698/4/6 2699/4/6 2700/4/6
f 2701/1/5 2702/1/5 2703/1/5 2704/1/5
f 2705/1/6 2706/1/6 2707/1/6 2708/1/6
f 2709/1/2 2710/1/2 2711/1/2 2712/1/2
f 2713/1/5 2714/1/5 2715/1/5 2716/1/5
f 2717/1/6 2718/1/6 2719/1/6 2720/1/6
f 2721/3/1 2722/3/1 2723/3/1 2724/3/1
f 2725/3/4 2726/3/4 2727/3/4 2728/3/4
f 2729/3/5 2730/3/5 2731/3/5 2732/3/5
f 2733/3/6 2734/3/6 2735/3/6 2736/3/6
f 2737/3/2 2738/3/2 2739/3/2 2740/3/2
f 2741/3/5 2742/3/5 2743/3/5 2744/3/5
f 2745/3/6 2746/3/6 2747/3/6 2748/3/6
f 2749/1/1 2750/1/1 2751/1/1 2752/1/1
f 2753/1/5 2754/1/5 2755/1/5 2756/1/5
f 2757/1/6 2758/1/6 2759/1/6 2760/1/6
f 2761/4/5 2762/4/5 2763/4/5 2764/4/5
f 2765/4/6 2766/4/6 2767/4/6 2768/4/6
f 2769/2/2 2770/2/2 2771/2/2 2772/2/2
f 2773/2/5 2774/2/5 2775/2/5 2776/2/5
f 2777/2/6 2778/2/6 2779/2/6 2780/2/6
f 2781/2/1 2782/2/1 2783/2/1 2784/2/1
f 2785/2/5 2786/2/5 2787/2/5 2788/2/5
f 2789/2/6 2790/2/6 2791/2/6 2792/2/6
f 2793/4/5 2794/4/5 2795/4/5 2796/4/5
f 2797/4/6 2798/4/6 2799/4/6 2800/4/6
f 2801/1/5 2802/1/5 2803/1/5 2804/1/5
f 2805/1/6 2806/1/6 2807/1/6 2808/1/6
f 2809/1/2 2810/1/2 2811/1/2 2812/1/2
f 2813/1/3 2814/1/3 2815/1/3 2816/1/3
f 2817/1/5 2818/1/5 2819/1/5 2820/1/5
f 2821/1/6 2822/1/6 2823/1/6 2824/1/6
f 2825/3/1 2826/3/1 2827/3/1 2828/3/1
f 2829/3/2 2830/3/2 2831/3/2 2832/3/2
f 2833/3/5 2834/3/5 2835/3/5 2836/3/5
f 2837/3/6 2838/3/6 2839/3/6 2840/3/6
f 2841/1/1 2842/1/1 2843/1/1 2844/1/1
f 2845/1/5 2846/1/5 2847/1/5 2848/1/5
f 2849/1/6 2850/1/6 2851/1/6 2852/1/6
f 2853/4/5 2854/4/5 2855/4/5 2856/4/5
f 2857/4/6 2858/4/6 2859/4/6 2860/4/6
f 2861/2/2 2862/2/2 2863/2/2 2864/2/2
f 2865/2/5 2866/2/5 2867/2/5 2868/2/5
f 2869/2/6 2870/2/6 2871/2/6 2872/2/6
f 2873/2/1 2874/2/1 2875/2/1 2876/2/1
f 2877/2/4 2878/2/4 2879/2/4 2880/2/4
f 2881/2/5 2882/2/5 2883/2/5 2884/2/5
f 2885/2/6 2886/2/6 2887/2/6 2888/2/6
f 2889/4/5 2890/4/5 2891/4/5 2892/4/5
f 2893/4/6 2894/4/6 2895/4/6 2896/4/6
f 2897/1/5 2898/1/5 2899/1/5 2900/1/5
f 2901/1/6 2902/1/6 2903/1/6 2904/1/6
f 2905/1/2 2906/1/2 2907/1/2 2908/1/2
f 2909/1/5 2910/1/5 2911/1/5 2912/1/5
f 2913/1/6 2914/1/6 2915/1/6 2916/1/6
f 2917/3/1 2918/3/1 2919/3/1 2920/3/1
f 2921/3/2 2922/3/2 2923/3/2 2924/3/2
f 2925/3/5 2926/3/5 2927/3/5 2928/3/5
f 2929/3/6 2930/3/6 2931/3/6 2932/3/6
f 2933/1/1 2934/1/1 2935/1/1 2936/1/1
f 2937/1/5 2938/1/5 2939/1/5 2940/1/5
f 2941/1/6 2942/1/6 2943/1/6 2944/1/6
f 2945/4/5 2946/4/5 2947/4/5 2948/4/5
f 2949/4/6 2950/4/6 2951/4/6 2952/4/6
f 2953/2/2 2954/2/2 2955/2/2 2956/2/2
f 2957/2/5 2958/2/5 2959/2/5 2960/2/5
f 2961/2/6 2962/2/6 2963/2/6 2964/2/6
f 2965/2/1 2966/2/1 2967/2/1 2968/2/1
f 2969/2/5 2970/2/5 2971/2/5 2972/2/5
f 2973/2/6 2974/2/6 2975/2/6 2976/2/6
f 2977/4/5 2978/4/5 2979/4/5 2980/4/5
f 2981/4/6 2982/4/6 2983/4/6 2984/4/6
f 2985/1/2 2986/1/2 2987/1/2 2988/1/2
f 2989/1/5 2990/1/5 2991/1/5 2992/1/5
f 2993/1/6 2994/1/6 2995/1/6 2996/1/6
f 2997/3/1 2998/3/1 2999/3/1 3000/3/1
f 3001/3/2 3002/3/2 3003/3/2 3004/3/2
f 3005/3/5 3006/3/5 3007/3/5 3008/3/5
f 3009/3/6 3010/3/6 3011/3/6 3012/3/6
f 3013/1/1 3014/1/1 3015/1/1 3016/1/1
f 3017/1/5 3018/1/5 3019/1/5 3020/1/5
f 3021/1/6 3022/1/6 3023/1/6 3024/1/6
f 3025/4/5 3026/4/5 3027/4/5 3028/4/5
f 3029/4/6 3030/4/6 3031/4/6 3032/4/6
f 3033/2/2 3034/2/2 3035/2/2 3036/2/2
f 3037/2/5 3038/2/5 3039/2/5 3040/2/5
f 3041/2/6 3042/2/6 3043/2/6 3044/2/6
f 3045/2/1 3046/2/1 3047/2/1 3048/2/1
f 3049/2/4 3050/2/4 3051/2/4 3052/2/4
f 3053/2/5 3054/2/5 3055/2/5 3056/2/5
f 3057/2/6 3058/2/6 3059/2/6 3060/2/6
f 3061/4/5 3062/4/5 3063/4/5 3064/4/5
f 3065/4/6 3066/4/6 3067/4/6 3068/4/6
f 3069/1/5 3070/1/5 3071/1/5 3072/1/5
f 3073/1/6 3074/1/6 3075/1/6 3076/1/6
f 3077/1/2 3078/1/2 3079/1/2 3080/1/2
f 3081/1/3 3082/1/3 3083/1/3 3084/1/3
f 3085/1/5 3086/1/5 3087/1/5 3088/1/5
f 3089/1/6 3090/1/6 3091/1/6 3092/1/6
f 3093/3/1 3094/3/1 3095/3/1 3096/3/1
f 3097/3/2 3098/3/2 3099/3/2 3100/3/2
f 3101/3/5 3102/3/5 3103/3/5 3104/3/5
f 3105/3/6 3106/3/6 3107/3/6 3108/3/6
f 3109/1/1 3110/1/1 3111/1/1 3112/1/1
f 3113/1/5 3114/1/5 3115/1/5 3116/1/5
f 3117/1/6 3118/1/6 3119/1/6 3120/1/6
f 3121/4/5 3122/4/5 3123/4/5 3124/4/5
f 3125/4/6 3126/4/6 3127/4/6 3128/4/6
f 3129/2/2 3130/2/2 3131/2/2 3132/2/2
f 3133/2/5 3134/2/5 3135/2/5 3136/2/5
f 3137/2/6 3138/2/6 3139/2/6 3140/2/6
f 3141/2/1 3142/2/1 3143/2/1 3144/2/1
f 3145/2/4 3146/2/4 3147/2/4 3148/2/4
f 3149/2/5 3150/2/5 3151/2/5 3152/2/5
f 3153/2/6 3154/2/6 3155/2/6 3156/2/6
f 3157/4/5 3158/4/5 3159/4/5 3160/4/5
f 3161/4/6 3162/4/6 3163/4/6 3164/4/6
f 3165/1/2 3166/1/2 3167/1/2 3168/1/2
f 3169/1/5 3170/1/5 3171/1/5 3172/1/5
f 3173/1/6 3174/1/6 3175/1/6 3176/1/6
f 3177/3/1 3178/3/1 3179/3/1 3180/3/1
f 3181/3/2 3182/3/2 3183/3/2 3184/3/2
f 3185/3/5 3186/3/5 3187/3/5 3188/3/5
f 3189/3/6 3190/3/6 3191/3/6 3192/3/6
f 3193/1/1 3194/1/1 3195/1/1 3196/1/1
f 3197/1/5 3198/1/5 3199/1/5 3200/1/5
f 3201/1/6 3202/1/6 3203/1/6 3204/1/6
f 3205/4/5 3206/4/5 3207/4/5 3208/4/5
f 3209/4/6 3210/4/6 3211/4/6 3212/4/6
f 3213/2/2 3214/2/2 3215/2/2 3216/2/2
f 3217/2/4 3218/2/4 3219/2/4 3220/2/4
f 3221/2/5 3222/2/5 3223/2/5 3224/2/5
f 3225/2/6 3226/2/6 3227/2/6 3228/2/6
f 3229/2/1 3230/2/1 3231/2/1 3232/2/1
f 3233/2/5 3234/2/5 3235/2/5 3236/2/5
f 3237/2/6 3238/2/6 3239/2/6 3240/2/6
f 3241/4/2 3242/4/2 3243/4/2 3244/4/2
f 3245/4/5 3246/4/5 3247/4/5 3248/4/5
f 3249/4/6 3250/4/6 3251/4/6 3252/4/6
f 3253/3/1 3254/3/1 3255/3/1 3256/3/1
f 3257/3/2 3258/3/2 3259/3/2 3260/3/2
f 3261/3/5 3262/3/5 3263/3/5 3264/3/5
f 3265/3/6 3266/3/6 3267/3/6 3268/3/6
f 3269/4/1 3270/4/1 3271/4/1 3272/4/1
f 3273/4/5 3274/4/5 3275/4/5 3276/4/5
f 3277/4/6 3278/4/6 3279/4/6 3280/4/6
f 3281/2/2 3282/2/2 3283/2/2 3284/2/2
f 3285/2/5 3286/2/5 3287/2/5 3288/2/5
f 3289/2/6 3290/2/6 3291/2/6 3292/2/6
f 3293/2/1 3294/2/1 3295/2/1 3296/2/1
f 3297/2/4 3298/2/4 3299/2/4 3300/2/4
f 3301/2/5 3302/2/5 3303/2/5 3304/2/5
f 3305/2/6 3306/2/6 3307/2/6 3308/2/6
f 3309/4/5 3310/4/5 3311/4/5 3312/4/5
f 3313/4/6 3314/4/6 3315/4/6 3316/4/6
f 3317/1/2 3318/1/2 3319/1/2 3320/1/2
f 3321/1/3 3322/1/3 3323/1/3 3324/1/3
f 3325/1/5 3326/1/5 3327/1/5 3328/1/5
f 3329/1/6 3330/1/6 3331/1/6 3332/1/6
f 3333/3/1 3334/3/1 3335/3/1 3336/3/1
f 3337/3/2 3338/3/2 3339/3/2 3340/3/2
f 3341/3/5 3342/3/5 3343/3/5 3344/3/5
f 3345/3/6 3346/3/6 3347/3/6 3348/3/6
f 3349/4/1 3350/4/1 3351/4/1 3352/4/1
f 3353/4/5 3354/4/5 3355/4/5 3356/4/5
f 3357/4/6 3358/4/6 3359/4/6 3360/4/6
f 3361/2/2 3362/2/2 3363/2/2 3364/2/2
f 3365/2/5 3366/2/5 3367/2/5 3368/2/5
f 3369/2/6 3370/2/6 3371/2/6 3372/2/6
f 3373/2/1 3374/2/1 3375/2/1 3376/2/1
f 3377/2/5 3378/2/5 3379/2/5 3380/2/5
f 3381/2/6 3382/2/6 3383/2/6 3384/2/6
f 3385/4/2 3386/4/2 3387/4/2 3388/4/2
f 3389/4/5 3390/4/5 3391/4/5 3392/4/5
f 3393/4/6 3394/4/6 3395/4/6 3396/4/6
f 3397/3/1 3398/3/1 3399/3/1 3400/3/1
f 3401/3/2 3402/3/2 3403/3/2 3404/3/2
f 3405/3/5 3406/3/5 3407/3/5 3408/3/5
f 3409/3/6 3410/3/6 3411/3/6 3412/3/6
f 3413/4/1 3414/4/1 3415/4/1 3416/4/1
f 3417/4/5 3418/4/5 3419/4/5 3420/4/5
f 3421/4/6 3422/4/6 3423/4/6 3424/4/6
f 3425/2/2 3426/2/2 3427/2/2 3428/2/2
f 3429/2/5 3430/2/5 3431/2/5 3432/2/5
f 3433/2/6 3434/2/6 3435/2/6 3436/2/6
f 3437/2/1 3438/2/1 3439/2/1 3440/2/1
f 3441/2/4 3442/2/4 3443/2/4 3444/2/4
f 3445/2/5 3446/2/5 3447/2/5 3448/2/5
f 3449/2/6 3450/2/6 3451/2/6 3452/2/6
f 3453/4/2 3454/4/2 3455/4/2 3456/4/2
f 3457/4/5 3458/4/5 3459/4/5 3460/4/5
f 3461/4/6 3462/4/6 3463/4/6 3464/4/6
f 3465/3/1 3466/3/1 3467/3/1 3468/3/1
f 3469/3/2 3470/3/2 3471/3/2 3472/3/2
f 3473/3/5 3474/3/5 3475/3/5 3476/3/5
f 3477/3/6 3478/3/6 3479/3/6 3480/3/6
f 3481/4/1 3482/4/1 3483/4/1 3484/4/1
f 3485/4/5 3486/4/5 3487/4/5 3488/4/5
f 3489/4/6 3490/4/6 3491/4/6 3492/4/6
f 3493/2/2 3494/2/2 3495/2/2 3496/2/2
f 3497/2/5 3498/2/5 3499/2/5 3500/2/5
f 3501/2/6 3502/2/6 3503/2/6 3504/2/6
f 3505/2/1 3506/2/1 3507/2/1 3508/2/1
f 3509/2/5 3510/2/5 3511/2/5 3512/2/5
f 3513/2/6 3514/2/6 3515/2/6 3516/2/6
f 3517/4/2 3518/4/2 3519/4/2 3520/4/2
f 3521/4/3 3522/4/3 3523/4/3 3524/4/3
f 3525/4/5 3526/4/5 3527/4/5 3528/4/5
f 3529/4/6 3530/4/6 3531/4/6 3532/4/6
f 3533/3/1 3534/3/1 3535/3/1 3536/3/1
f 3537/3/2 3538/3/2 3539/3/2 3540/3/2
f 3541/3/4 3542/3/4 3543/3/4 3544/3/4
f 3545/3/5 3546/3/5 3547/3/5 3548/3/5
f 3549/3/6 3550/3/6 3551/3/6 3552/3/6
f 3553/4/1 3554/4/1 3555/4/1 3556/4/1
f 3557/4/5 3558/4/5 3559/4/5 3560/4/5
f 3561/4/6 3562/4/6 3563/4/6 3564/4/6
f 3565/2/2 3566/2/2 3567/2/2 3568/2/2
f 3569/2/5 3570/2/5 3571/2/5 3572/2/5
f 3573/2/6 3574/2/6 3575/2/6 3576/2/6
f 3577/2/1 3578/2/1 3579/2/1 3580/2/1
f 3581/2/4 3582/2/4 3583/2/4 3584/2/4
f 3585/2/5 3586/2/5 3587/2/5 3588/2/5
f 3589/2/6 3590/2/6 3591/2/6 3592/2/6
f 3593/4/2 3594/4/2 3595/4/2 3596/4/2
f 3597/4/5 3598/4/5 3599/4/5 3600/4/5
f 3601/4/6 3602/4/6 3603/4/6 3604/4/6
f 3605/4/1 3606/4/1 3607/4/1 3608/4/1
f 3609/4/5 3610/4/5 3611/4/5 3612/4/5
f 3613/4/6 3614/4/6 3615/4/6 3616/4/6
f 3617/2/2 3618/2/2 3619/2/2 3620/2/2
f 3621/2/4 3622/2/4 3623/2/4 3624/2/4
f 3625/2/5 3626/2/5 3627/2/5 3628/2/5
f 3629/2/6 3630/2/6 3631/2/6 3632/2/6
f 3633/2/1 3634/2/1 3635/2/1 3636/2/1
f 3637/2/2 3638/2/2 3639/2/2 3640/2/2
f 3641/2/4 3642/2/4 3643/2/4 3644/2/4
f 3645/2/5 3646/2/5 3647/2/5 3648/2/5
f 3649/2/6 3650/2/6 3651/2/6 3652/2/6
f 3653/2/1 3654/2/1 3655/2/1 3656/2/1
f 3657/2/2 3658/2/2 3659/2/2 3660/2/2
f 3661/2/5 3662/2/5 3663/2/5 3664/2/5
f 3665/2/6 3666/2/6 3667/2/6 3668/2/6
f 3669/2/1 3670/2/1 3671/2/1 3672/2/1
f 3673/2/2 3674/2/2 3675/2/2 3676/2/2
f 3677/2/3 3678/2/3 3679/2/3 3680/2/3
f 3681/2/4 3682/2/4 3683/2/4 3684/2/4
f 3685/2/5 3686/2/5 3687/2/5 3688/2/5
f 3689/2/6 3690/2/6 3691/2/6 3692/2/6
f 3693/2/1 3694/2/1 3695/2/1 3696/2/1
f 3697/2/2 3698/2/2 3699/2/2 3700/2/2
f 3701/2/5 3702/2/5 3703/2/5 3704/2/5
f 3705/2/6 3706/2/6 3707/2/6 3708/2/6
f 3709/2/1 3710/2/1 3711/2/1 3712/2/1
f 3713/2/2 3714/2/2 3715/2/2 3716/2/2
f 3717/2/3 3718/2/3 3719/2/3 3720/2/3
f 3721/2/4 3722/2/4 3723/2/4 3724/2/4
f 3725/2/5 3726/2/5 3727/2/5 3728/2/5
f 3729/2/6 3730/2/6 3731/2/6 3732/2/6
f 3733/2/1 3734/2/1 3735/2/1 3736/2/1
f 3737/2/2 3738/2/2 3739/2/2 3740/2/2
f 3741/2/4 3742/2/4 3743/2/4 3744/2/4
f 3745/2/5 3746/2/5 3747/2/5 3748/2/5
f 3749/2/6 3750/2/6 3751/2/6 3752/2/6
f 3753/2/1 3754/2/1 3755/2/1 3756/2/1
f 3757/2/2 3758/2/2 3759/2/2 3760/2/2
f 3761/2/3 3762/2/3 3763/2/3 3764/2/3
f 3765/2/4 3766/2/4 3767/2/4 3768/2/4
f 3769/2/5 3770/2/5 3771/2/5 3772/2/5
f 3773/2/6 3774/2/6 3775/2/6 3776/2/6

