# generated by vox_to_obj_exporter
# scale=0.1 center=false ground=false y_up=true

mtllib Fight_201.mtl
usemtl palette

# normals
vn -1 0 0
vn 1 0 0
vn 0 1 0
vn 0 -1 0
vn 0 0 1
vn 0 0 -1

# texcoords
vt 0.236328125 0.5
vt 0.228515625 0.5
vt 0.232421875 0.5

# verts
v 1.4 11 -2.6
v 1.4 10.9 -2.6
v 1.4 10.9 -2.5
v 1.4 11 -2.5
v 1.5 11 -2.5
v 1.5 10.9 -2.5
v 1.5 10.9 -2.6
v 1.5 11 -2.6
v 1.4 11 -2.6
v 1.4 11 -2.5
v 1.5 11 -2.5
v 1.5 11 -2.6
v 1.4 11 -2.5
v 1.4 10.9 -2.5
v 1.5 10.9 -2.5
v 1.5 11 -2.5
v 1.5 11 -2.6
v 1.5 10.9 -2.6
v 1.4 10.9 -2.6
v 1.4 11 -2.6
v 1.3 10.9 -2.6
v 1.3 10.8 -2.6
v 1.3 10.8 -2.5
v 1.3 10.9 -2.5
v 1.3 10.9 -2.6
v 1.3 10.9 -2.5
v 1.4 10.9 -2.5
v 1.4 10.9 -2.6
v 1.3 10.9 -2.5
v 1.3 10.8 -2.5
v 1.4 10.8 -2.5
v 1.4 10.9 -2.5
v 1.4 10.9 -2.6
v 1.4 10.8 -2.6
v 1.3 10.8 -2.6
v 1.3 10.9 -2.6
v 1.5 10.9 -2.5
v 1.5 10.8 -2.5
v 1.5 10.8 -2.6
v 1.5 10.9 -2.6
v 1.4 10.8 -2.5
v 1.4 10.8 -2.6
v 1.5 10.8 -2.6
v 1.5 10.8 -2.5
v 1.4 10.9 -2.5
v 1.4 10.8 -2.5
v 1.5 10.8 -2.5
v 1.5 10.9 -2.5
v 1.5 10.9 -2.6
v 1.5 10.8 -2.6
v 1.4 10.8 -2.6
v 1.4 10.9 -2.6
v 1.3 10.8 -2.6
v 1.3 10.7 -2.6
v 1.3 10.7 -2.5
v 1.3 10.8 -2.5
v 1.4 10.8 -2.5
v 1.4 10.7 -2.5
v 1.4 10.7 -2.6
v 1.4 10.8 -2.6
v 1.3 10.8 -2.5
v 1.3 10.7 -2.5
v 1.4 10.7 -2.5
v 1.4 10.8 -2.5
v 1.4 10.8 -2.6
v 1.4 10.7 -2.6
v 1.3 10.7 -2.6
v 1.3 10.8 -2.6
v 1.2 10.7 -2.6
v 1.2 10.6 -2.6
v 1.2 10.6 -2.5
v 1.2 10.7 -2.5
v 1.2 10.7 -2.6
v 1.2 10.7 -2.5
v 1.3 10.7 -2.5
v 1.3 10.7 -2.6
v 1.2 10.7 -2.5
v 1.2 10.6 -2.5
v 1.3 10.6 -2.5
v 1.3 10.7 -2.5
v 1.3 10.7 -2.6
v 1.3 10.6 -2.6
v 1.2 10.6 -2.6
v 1.2 10.7 -2.6
v 1.4 10.7 -2.5
v 1.4 10.6 -2.5
v 1.4 10.6 -2.6
v 1.4 10.7 -2.6
v 1.3 10.6 -2.5
v 1.3 10.6 -2.6
v 1.4 10.6 -2.6
v 1.4 10.6 -2.5
v 1.3 10.7 -2.5
v 1.3 10.6 -2.5
v 1.4 10.6 -2.5
v 1.4 10.7 -2.5
v 1.4 10.7 -2.6
v 1.4 10.6 -2.6
v 1.3 10.6 -2.6
v 1.3 10.7 -2.6
v 1.1 10.6 -2.6
v 1.1 10.5 -2.6
v 1.1 10.5 -2.5
v 1.1 10.6 -2.5
v 1.1 10.6 -2.6
v 1.1 10.6 -2.5
v 1.2 10.6 -2.5
v 1.2 10.6 -2.6
v 1.1 10.6 -2.5
v 1.1 10.5 -2.5
v 1.2 10.5 -2.5
v 1.2 10.6 -2.5
v 1.2 10.6 -2.6
v 1.2 10.5 -2.6
v 1.1 10.5 -2.6
v 1.1 10.6 -2.6
v 1.3 10.6 -2.5
v 1.3 10.5 -2.5
v 1.3 10.5 -2.6
v 1.3 10.6 -2.6
v 1.2 10.6 -2.5
v 1.2 10.5 -2.5
v 1.3 10.5 -2.5
v 1.3 10.6 -2.5
v 1.3 10.6 -2.6
v 1.3 10.5 -2.6
v 1.2 10.5 -2.6
v 1.2 10.6 -2.6
v 1.1 10.5 -2.6
v 1.1 10.4 -2.6
v 1.1 10.4 -2.5
v 1.1 10.5 -2.5
v 1.1 10.5 -2.5
v 1.1 10.4 -2.5
v 1.2 10.4 -2.5
v 1.2 10.5 -2.5
v 1.2 10.5 -2.6
v 1.2 10.4 -2.6
v 1.1 10.4 -2.6
v 1.1 10.5 -2.6
v 1.3 10.5 -2.5
v 1.3 10.4 -2.5
v 1.3 10.4 -2.6
v 1.3 10.5 -2.6
v 1.2 10.4 -2.5
v 1.2 10.4 -2.6
v 1.3 10.4 -2.6
v 1.3 10.4 -2.5
v 1.2 10.5 -2.5
v 1.2 10.4 -2.5
v 1.3 10.4 -2.5
v 1.3 10.5 -2.5
v 1.3 10.5 -2.6
v 1.3 10.4 -2.6
v 1.2 10.4 -2.6
v 1.2 10.5 -2.6
v 1 10.4 -2.6
v 1 10.3 -2.6
v 1 10.3 -2.5
v 1 10.4 -2.5
v 1 10.4 -2.6
v 1 10.4 -2.5
v 1.1 10.4 -2.5
v 1.1 10.4 -2.6
v 1 10.4 -2.5
v 1 10.3 -2.5
v 1.1 10.3 -2.5
v 1.1 10.4 -2.5
v 1.1 10.4 -2.6
v 1.1 10.3 -2.6
v 1 10.3 -2.6
v 1 10.4 -2.6
v 1.2 10.4 -2.5
v 1.2 10.3 -2.5
v 1.2 10.3 -2.6
v 1.2 10.4 -2.6
v 1.1 10.4 -2.5
v 1.1 10.3 -2.5
v 1.2 10.3 -2.5
v 1.2 10.4 -2.5
v 1.2 10.4 -2.6
v 1.2 10.3 -2.6
v 1.1 10.3 -2.6
v 1.1 10.4 -2.6
v 0.9 10.3 -2.6
v 0.9 10.2 -2.6
v 0.9 10.2 -2.5
v 0.9 10.3 -2.5
v 0.9 10.3 -2.6
v 0.9 10.3 -2.5
v 1 10.3 -2.5
v 1 10.3 -2.6
v 0.9 10.3 -2.5
v 0.9 10.2 -2.5
v 1 10.2 -2.5
v 1 10.3 -2.5
v 1 10.3 -2.6
v 1 10.2 -2.6
v 0.9 10.2 -2.6
v 0.9 10.3 -2.6
v 1 10.3 -2.5
v 1 10.2 -2.5
v 1.1 10.2 -2.5
v 1.1 10.3 -2.5
v 1.1 10.3 -2.6
v 1.1 10.2 -2.6
v 1 10.2 -2.6
v 1 10.3 -2.6
v 1.2 10.3 -2.5
v 1.2 10.2 -2.5
v 1.2 10.2 -2.6
v 1.2 10.3 -2.6
v 1.1 10.3 -2.5
v 1.1 10.2 -2.5
v 1.2 10.2 -2.5
v 1.2 10.3 -2.5
v 1.2 10.3 -2.6
v 1.2 10.2 -2.6
v 1.1 10.2 -2.6
v 1.1 10.3 -2.6
v 1.5 10.3 -2.6
v 1.5 10.2 -2.6
v 1.5 10.2 -2.5
v 1.5 10.3 -2.5
v 1.6 10.3 -2.5
v 1.6 10.2 -2.5
v 1.6 10.2 -2.6
v 1.6 10.3 -2.6
v 1.5 10.3 -2.6
v 1.5 10.3 -2.5
v 1.6 10.3 -2.5
v 1.6 10.3 -2.6
v 1.5 10.3 -2.5
v 1.5 10.2 -2.5
v 1.6 10.2 -2.5
v 1.6 10.3 -2.5
v 1.6 10.3 -2.6
v 1.6 10.2 -2.6
v 1.5 10.2 -2.6
v 1.5 10.3 -2.6
v 0.9 10.2 -2.6
v 0.9 10.1 -2.6
v 0.9 10.1 -2.5
v 0.9 10.2 -2.5
v 0.9 10.2 -2.5
v 0.9 10.1 -2.5
v 1 10.1 -2.5
v 1 10.2 -2.5
v 1 10.2 -2.6
v 1 10.1 -2.6
v 0.9 10.1 -2.6
v 0.9 10.2 -2.6
v 1 10.2 -2.5
v 1 10.1 -2.5
v 1.1 10.1 -2.5
v 1.1 10.2 -2.5
v 1.1 10.2 -2.6
v 1.1 10.1 -2.6
v 1 10.1 -2.6
v 1 10.2 -2.6
v 1.2 10.2 -2.5
v 1.2 10.1 -2.5
v 1.2 10.1 -2.6
v 1.2 10.2 -2.6
v 1.1 10.1 -2.5
v 1.1 10.1 -2.6
v 1.2 10.1 -2.6
v 1.2 10.1 -2.5
v 1.1 10.2 -2.5
v 1.1 10.1 -2.5
v 1.2 10.1 -2.5
v 1.2 10.2 -2.5
v 1.2 10.2 -2.6
v 1.2 10.1 -2.6
v 1.1 10.1 -2.6
v 1.1 10.2 -2.6
v 1.4 10.2 -2.6
v 1.4 10.1 -2.6
v 1.4 10.1 -2.5
v 1.4 10.2 -2.5
v 1.4 10.2 -2.6
v 1.4 10.2 -2.5
v 1.5 10.2 -2.5
v 1.5 10.2 -2.6
v 1.4 10.2 -2.5
v 1.4 10.1 -2.5
v 1.5 10.1 -2.5
v 1.5 10.2 -2.5
v 1.5 10.2 -2.6
v 1.5 10.1 -2.6
v 1.4 10.1 -2.6
v 1.4 10.2 -2.6
v 1.6 10.2 -2.5
v 1.6 10.1 -2.5
v 1.6 10.1 -2.6
v 1.6 10.2 -2.6
v 1.5 10.1 -2.5
v 1.5 10.1 -2.6
v 1.6 10.1 -2.6
v 1.6 10.1 -2.5
v 1.5 10.2 -2.5
v 1.5 10.1 -2.5
v 1.6 10.1 -2.5
v 1.6 10.2 -2.5
v 1.6 10.2 -2.6
v 1.6 10.1 -2.6
v 1.5 10.1 -2.6
v 1.5 10.2 -2.6
v 0.8 10.1 -2.6
v 0.8 10 -2.6
v 0.8 10 -2.5
v 0.8 10.1 -2.5
v 0.8 10.1 -2.6
v 0.8 10.1 -2.5
v 0.9 10.1 -2.5
v 0.9 10.1 -2.6
v 0.8 10.1 -2.5
v 0.8 10 -2.5
v 0.9 10 -2.5
v 0.9 10.1 -2.5
v 0.9 10.1 -2.6
v 0.9 10 -2.6
v 0.8 10 -2.6
v 0.8 10.1 -2.6
v 0.9 10.1 -2.5
v 0.9 10 -2.5
v 1 10 -2.5
v 1 10.1 -2.5
v 1 10.1 -2.6
v 1 10 -2.6
v 0.9 10 -2.6
v 0.9 10.1 -2.6
v 1.1 10.1 -2.5
v 1.1 10 -2.5
v 1.1 10 -2.6
v 1.1 10.1 -2.6
v 1 10.1 -2.5
v 1 10 -2.5
v 1.1 10 -2.5
v 1.1 10.1 -2.5
v 1.1 10.1 -2.6
v 1.1 10 -2.6
v 1 10 -2.6
v 1 10.1 -2.6
v 1.3 10.1 -2.6
v 1.3 10 -2.6
v 1.3 10 -2.5
v 1.3 10.1 -2.5
v 1.3 10.1 -2.6
v 1.3 10.1 -2.5
v 1.4 10.1 -2.5
v 1.4 10.1 -2.6
v 1.3 10.1 -2.5
v 1.3 10 -2.5
v 1.4 10 -2.5
v 1.4 10.1 -2.5
v 1.4 10.1 -2.6
v 1.4 10 -2.6
v 1.3 10 -2.6
v 1.3 10.1 -2.6
v 1.5 10.1 -2.5
v 1.5 10 -2.5
v 1.5 10 -2.6
v 1.5 10.1 -2.6
v 1.4 10.1 -2.5
v 1.4 10 -2.5
v 1.5 10 -2.5
v 1.5 10.1 -2.5
v 1.5 10.1 -2.6
v 1.5 10 -2.6
v 1.4 10 -2.6
v 1.4 10.1 -2.6
v 0.7 10 -2.6
v 0.7 9.9 -2.6
v 0.7 9.9 -2.5
v 0.7 10 -2.5
v 0.7 10 -2.6
v 0.7 10 -2.5
v 0.8 10 -2.5
v 0.8 10 -2.6
v 0.7 10 -2.5
v 0.7 9.9 -2.5
v 0.8 9.9 -2.5
v 0.8 10 -2.5
v 0.8 10 -2.6
v 0.8 9.9 -2.6
v 0.7 9.9 -2.6
v 0.7 10 -2.6
v 0.8 10 -2.5
v 0.8 9.9 -2.5
v 0.9 9.9 -2.5
v 0.9 10 -2.5
v 0.9 10 -2.6
v 0.9 9.9 -2.6
v 0.8 9.9 -2.6
v 0.8 10 -2.6
v 0.9 10 -2.5
v 0.9 9.9 -2.5
v 1 9.9 -2.5
v 1 10 -2.5
v 1 10 -2.6
v 1 9.9 -2.6
v 0.9 9.9 -2.6
v 0.9 10 -2.6
v 1.1 10 -2.5
v 1.1 9.9 -2.5
v 1.1 9.9 -2.6
v 1.1 10 -2.6
v 1 9.9 -2.5
v 1 9.9 -2.6
v 1.1 9.9 -2.6
v 1.1 9.9 -2.5
v 1 10 -2.5
v 1 9.9 -2.5
v 1.1 9.9 -2.5
v 1.1 10 -2.5
v 1.1 10 -2.6
v 1.1 9.9 -2.6
v 1 9.9 -2.6
v 1 10 -2.6
v 1.2 10 -2.6
v 1.2 9.9 -2.6
v 1.2 9.9 -2.5
v 1.2 10 -2.5
v 1.2 10 -2.6
v 1.2 10 -2.5
v 1.3 10 -2.5
v 1.3 10 -2.6
v 1.2 10 -2.5
v 1.2 9.9 -2.5
v 1.3 9.9 -2.5
v 1.3 10 -2.5
v 1.3 10 -2.6
v 1.3 9.9 -2.6
v 1.2 9.9 -2.6
v 1.2 10 -2.6
v 1.3 10 -2.5
v 1.3 9.9 -2.5
v 1.4 9.9 -2.5
v 1.4 10 -2.5
v 1.4 10 -2.6
v 1.4 9.9 -2.6
v 1.3 9.9 -2.6
v 1.3 10 -2.6
v 1.5 10 -2.5
v 1.5 9.9 -2.5
v 1.5 9.9 -2.6
v 1.5 10 -2.6
v 1.4 10 -2.5
v 1.4 9.9 -2.5
v 1.5 9.9 -2.5
v 1.5 10 -2.5
v 1.5 10 -2.6
v 1.5 9.9 -2.6
v 1.4 9.9 -2.6
v 1.4 10 -2.6
v 0.6 9.9 -2.6
v 0.6 9.8 -2.6
v 0.6 9.8 -2.5
v 0.6 9.9 -2.5
v 0.6 9.9 -2.6
v 0.6 9.9 -2.5
v 0.7 9.9 -2.5
v 0.7 9.9 -2.6
v 0.6 9.9 -2.5
v 0.6 9.8 -2.5
v 0.7 9.8 -2.5
v 0.7 9.9 -2.5
v 0.7 9.9 -2.6
v 0.7 9.8 -2.6
v 0.6 9.8 -2.6
v 0.6 9.9 -2.6
v 0.7 9.9 -2.5
v 0.7 9.8 -2.5
v 0.8 9.8 -2.5
v 0.8 9.9 -2.5
v 0.8 9.9 -2.6
v 0.8 9.8 -2.6
v 0.7 9.8 -2.6
v 0.7 9.9 -2.6
v 0.8 9.9 -2.5
v 0.8 9.8 -2.5
v 0.9 9.8 -2.5
v 0.9 9.9 -2.5
v 0.9 9.9 -2.6
v 0.9 9.8 -2.6
v 0.8 9.8 -2.6
v 0.8 9.9 -2.6
v 1 9.9 -2.5
v 1 9.8 -2.5
v 1 9.8 -2.6
v 1 9.9 -2.6
v 0.9 9.9 -2.5
v 0.9 9.8 -2.5
v 1 9.8 -2.5
v 1 9.9 -2.5
v 1 9.9 -2.6
v 1 9.8 -2.6
v 0.9 9.8 -2.6
v 0.9 9.9 -2.6
v 1.1 9.9 -2.6
v 1.1 9.8 -2.6
v 1.1 9.8 -2.5
v 1.1 9.9 -2.5
v 1.1 9.9 -2.6
v 1.1 9.9 -2.5
v 1.2 9.9 -2.5
v 1.2 9.9 -2.6
v 1.1 9.9 -2.5
v 1.1 9.8 -2.5
v 1.2 9.8 -2.5
v 1.2 9.9 -2.5
v 1.2 9.9 -2.6
v 1.2 9.8 -2.6
v 1.1 9.8 -2.6
v 1.1 9.9 -2.6
v 1.2 9.9 -2.5
v 1.2 9.8 -2.5
v 1.3 9.8 -2.5
v 1.3 9.9 -2.5
v 1.3 9.9 -2.6
v 1.3 9.8 -2.6
v 1.2 9.8 -2.6
v 1.2 9.9 -2.6
v 1.3 9.9 -2.5
v 1.3 9.8 -2.5
v 1.4 9.8 -2.5
v 1.4 9.9 -2.5
v 1.4 9.9 -2.6
v 1.4 9.8 -2.6
v 1.3 9.8 -2.6
v 1.3 9.9 -2.6
v 1.5 9.9 -2.5
v 1.5 9.8 -2.5
v 1.5 9.8 -2.6
v 1.5 9.9 -2.6
v 1.4 9.8 -2.5
v 1.4 9.8 -2.6
v 1.5 9.8 -2.6
v 1.5 9.8 -2.5
v 1.4 9.9 -2.5
v 1.4 9.8 -2.5
v 1.5 9.8 -2.5
v 1.5 9.9 -2.5
v 1.5 9.9 -2.6
v 1.5 9.8 -2.6
v 1.4 9.8 -2.6
v 1.4 9.9 -2.6
v 0.6 9.8 -2.6
v 0.6 9.7 -2.6
v 0.6 9.7 -2.5
v 0.6 9.8 -2.5
v 0.6 9.8 -2.5
v 0.6 9.7 -2.5
v 0.7 9.7 -2.5
v 0.7 9.8 -2.5
v 0.7 9.8 -2.6
v 0.7 9.7 -2.6
v 0.6 9.7 -2.6
v 0.6 9.8 -2.6
v 0.7 9.8 -2.5
v 0.7 9.7 -2.5
v 0.8 9.7 -2.5
v 0.8 9.8 -2.5
v 0.8 9.8 -2.6
v 0.8 9.7 -2.6
v 0.7 9.7 -2.6
v 0.7 9.8 -2.6
v 0.8 9.8 -2.5
v 0.8 9.7 -2.5
v 0.9 9.7 -2.5
v 0.9 9.8 -2.5
v 0.9 9.8 -2.6
v 0.9 9.7 -2.6
v 0.8 9.7 -2.6
v 0.8 9.8 -2.6
v 0.9 9.8 -2.5
v 0.9 9.7 -2.5
v 1 9.7 -2.5
v 1 9.8 -2.5
v 1 9.8 -2.6
v 1 9.7 -2.6
v 0.9 9.7 -2.6
v 0.9 9.8 -2.6
v 1 9.8 -2.6
v 1 9.8 -2.5
v 1.1 9.8 -2.5
v 1.1 9.8 -2.6
v 1 9.8 -2.5
v 1 9.7 -2.5
v 1.1 9.7 -2.5
v 1.1 9.8 -2.5
v 1.1 9.8 -2.6
v 1.1 9.7 -2.6
v 1 9.7 -2.6
v 1 9.8 -2.6
v 1.1 9.8 -2.5
v 1.1 9.7 -2.5
v 1.2 9.7 -2.5
v 1.2 9.8 -2.5
v 1.2 9.8 -2.6
v 1.2 9.7 -2.6
v 1.1 9.7 -2.6
v 1.1 9.8 -2.6
v 1.2 9.8 -2.5
v 1.2 9.7 -2.5
v 1.3 9.7 -2.5
v 1.3 9.8 -2.5
v 1.3 9.8 -2.6
v 1.3 9.7 -2.6
v 1.2 9.7 -2.6
v 1.2 9.8 -2.6
v 1.4 9.8 -2.5
v 1.4 9.7 -2.5
v 1.4 9.7 -2.6
v 1.4 9.8 -2.6
v 1.3 9.8 -2.5
v 1.3 9.7 -2.5
v 1.4 9.7 -2.5
v 1.4 9.8 -2.5
v 1.4 9.8 -2.6
v 1.4 9.7 -2.6
v 1.3 9.7 -2.6
v 1.3 9.8 -2.6
v 0.5 9.7 -2.6
v 0.5 9.6 -2.6
v 0.5 9.6 -2.5
v 0.5 9.7 -2.5
v 0.5 9.7 -2.6
v 0.5 9.7 -2.5
v 0.6 9.7 -2.5
v 0.6 9.7 -2.6
v 0.5 9.7 -2.5
v 0.5 9.6 -2.5
v 0.6 9.6 -2.5
v 0.6 9.7 -2.5
v 0.6 9.7 -2.6
v 0.6 9.6 -2.6
v 0.5 9.6 -2.6
v 0.5 9.7 -2.6
v 0.6 9.7 -2.5
v 0.6 9.6 -2.5
v 0.7 9.6 -2.5
v 0.7 9.7 -2.5
v 0.7 9.7 -2.6
v 0.7 9.6 -2.6
v 0.6 9.6 -2.6
v 0.6 9.7 -2.6
v 0.7 9.7 -2.5
v 0.7 9.6 -2.5
v 0.8 9.6 -2.5
v 0.8 9.7 -2.5
v 0.8 9.7 -2.6
v 0.8 9.6 -2.6
v 0.7 9.6 -2.6
v 0.7 9.7 -2.6
v 0.8 9.7 -2.5
v 0.8 9.6 -2.5
v 0.9 9.6 -2.5
v 0.9 9.7 -2.5
v 0.9 9.7 -2.6
v 0.9 9.6 -2.6
v 0.8 9.6 -2.6
v 0.8 9.7 -2.6
v 0.9 9.7 -2.5
v 0.9 9.6 -2.5
v 1 9.6 -2.5
v 1 9.7 -2.5
v 1 9.7 -2.6
v 1 9.6 -2.6
v 0.9 9.6 -2.6
v 0.9 9.7 -2.6
v 1 9.7 -2.5
v 1 9.6 -2.5
v 1.1 9.6 -2.5
v 1.1 9.7 -2.5
v 1.1 9.7 -2.6
v 1.1 9.6 -2.6
v 1 9.6 -2.6
v 1 9.7 -2.6
v 1.1 9.7 -2.5
v 1.1 9.6 -2.5
v 1.2 9.6 -2.5
v 1.2 9.7 -2.5
v 1.2 9.7 -2.6
v 1.2 9.6 -2.6
v 1.1 9.6 -2.6
v 1.1 9.7 -2.6
v 1.2 9.7 -2.5
v 1.2 9.6 -2.5
v 1.3 9.6 -2.5
v 1.3 9.7 -2.5
v 1.3 9.7 -2.6
v 1.3 9.6 -2.6
v 1.2 9.6 -2.6
v 1.2 9.7 -2.6
v 1.4 9.7 -2.5
v 1.4 9.6 -2.5
v 1.4 9.6 -2.6
v 1.4 9.7 -2.6
v 1.3 9.6 -2.5
v 1.3 9.6 -2.6
v 1.4 9.6 -2.6
v 1.4 9.6 -2.5
v 1.3 9.7 -2.5
v 1.3 9.6 -2.5
v 1.4 9.6 -2.5
v 1.4 9.7 -2.5
v 1.4 9.7 -2.6
v 1.4 9.6 -2.6
v 1.3 9.6 -2.6
v 1.3 9.7 -2.6
v 0.4 9.6 -2.6
v 0.4 9.5 -2.6
v 0.4 9.5 -2.5
v 0.4 9.6 -2.5
v 0.4 9.6 -2.6
v 0.4 9.6 -2.5
v 0.5 9.6 -2.5
v 0.5 9.6 -2.6
v 0.4 9.6 -2.5
v 0.4 9.5 -2.5
v 0.5 9.5 -2.5
v 0.5 9.6 -2.5
v 0.5 9.6 -2.6
v 0.5 9.5 -2.6
v 0.4 9.5 -2.6
v 0.4 9.6 -2.6
v 0.5 9.6 -2.5
v 0.5 9.5 -2.5
v 0.6 9.5 -2.5
v 0.6 9.6 -2.5
v 0.6 9.6 -2.6
v 0.6 9.5 -2.6
v 0.5 9.5 -2.6
v 0.5 9.6 -2.6
v 0.6 9.6 -2.5
v 0.6 9.5 -2.5
v 0.7 9.5 -2.5
v 0.7 9.6 -2.5
v 0.7 9.6 -2.6
v 0.7 9.5 -2.6
v 0.6 9.5 -2.6
v 0.6 9.6 -2.6
v 0.7 9.6 -2.5
v 0.7 9.5 -2.5
v 0.8 9.5 -2.5
v 0.8 9.6 -2.5
v 0.8 9.6 -2.6
v 0.8 9.5 -2.6
v 0.7 9.5 -2.6
v 0.7 9.6 -2.6
v 0.8 9.6 -2.5
v 0.8 9.5 -2.5
v 0.9 9.5 -2.5
v 0.9 9.6 -2.5
v 0.9 9.6 -2.6
v 0.9 9.5 -2.6
v 0.8 9.5 -2.6
v 0.8 9.6 -2.6
v 0.9 9.6 -2.5
v 0.9 9.5 -2.5
v 1 9.5 -2.5
v 1 9.6 -2.5
v 1 9.6 -2.6
v 1 9.5 -2.6
v 0.9 9.5 -2.6
v 0.9 9.6 -2.6
v 1 9.6 -2.5
v 1 9.5 -2.5
v 1.1 9.5 -2.5
v 1.1 9.6 -2.5
v 1.1 9.6 -2.6
v 1.1 9.5 -2.6
v 1 9.5 -2.6
v 1 9.6 -2.6
v 1.1 9.6 -2.5
v 1.1 9.5 -2.5
v 1.2 9.5 -2.5
v 1.2 9.6 -2.5
v 1.2 9.6 -2.6
v 1.2 9.5 -2.6
v 1.1 9.5 -2.6
v 1.1 9.6 -2.6
v 1.3 9.6 -2.5
v 1.3 9.5 -2.5
v 1.3 9.5 -2.6
v 1.3 9.6 -2.6
v 1.2 9.6 -2.5
v 1.2 9.5 -2.5
v 1.3 9.5 -2.5
v 1.3 9.6 -2.5
v 1.3 9.6 -2.6
v 1.3 9.5 -2.6
v 1.2 9.5 -2.6
v 1.2 9.6 -2.6
v 0.4 9.5 -2.6
v 0.4 9.4 -2.6
v 0.4 9.4 -2.5
v 0.4 9.5 -2.5
v 0.4 9.5 -2.5
v 0.4 9.4 -2.5
v 0.5 9.4 -2.5
v 0.5 9.5 -2.5
v 0.5 9.5 -2.6
v 0.5 9.4 -2.6
v 0.4 9.4 -2.6
v 0.4 9.5 -2.6
v 0.5 9.5 -2.5
v 0.5 9.4 -2.5
v 0.6 9.4 -2.5
v 0.6 9.5 -2.5
v 0.6 9.5 -2.6
v 0.6 9.4 -2.6
v 0.5 9.4 -2.6
v 0.5 9.5 -2.6
v 0.6 9.5 -2.5
v 0.6 9.4 -2.5
v 0.7 9.4 -2.5
v 0.7 9.5 -2.5
v 0.7 9.5 -2.6
v 0.7 9.4 -2.6
v 0.6 9.4 -2.6
v 0.6 9.5 -2.6
v 0.7 9.5 -2.5
v 0.7 9.4 -2.5
v 0.8 9.4 -2.5
v 0.8 9.5 -2.5
v 0.8 9.5 -2.6
v 0.8 9.4 -2.6
v 0.7 9.4 -2.6
v 0.7 9.5 -2.6
v 0.8 9.5 -2.5
v 0.8 9.4 -2.5
v 0.9 9.4 -2.5
v 0.9 9.5 -2.5
v 0.9 9.5 -2.6
v 0.9 9.4 -2.6
v 0.8 9.4 -2.6
v 0.8 9.5 -2.6
v 0.9 9.5 -2.5
v 0.9 9.4 -2.5
v 1 9.4 -2.5
v 1 9.5 -2.5
v 1 9.5 -2.6
v 1 9.4 -2.6
v 0.9 9.4 -2.6
v 0.9 9.5 -2.6
v 1 9.5 -2.5
v 1 9.4 -2.5
v 1.1 9.4 -2.5
v 1.1 9.5 -2.5
v 1.1 9.5 -2.6
v 1.1 9.4 -2.6
v 1 9.4 -2.6
v 1 9.5 -2.6
v 1.1 9.5 -2.5
v 1.1 9.4 -2.5
v 1.2 9.4 -2.5
v 1.2 9.5 -2.5
v 1.2 9.5 -2.6
v 1.2 9.4 -2.6
v 1.1 9.4 -2.6
v 1.1 9.5 -2.6
v 1.3 9.5 -2.5
v 1.3 9.4 -2.5
v 1.3 9.4 -2.6
v 1.3 9.5 -2.6
v 1.2 9.5 -2.5
v 1.2 9.4 -2.5
v 1.3 9.4 -2.5
v 1.3 9.5 -2.5
v 1.3 9.5 -2.6
v 1.3 9.4 -2.6
v 1.2 9.4 -2.6
v 1.2 9.5 -2.6
v 0.3 9.4 -2.6
v 0.3 9.3 -2.6
v 0.3 9.3 -2.5
v 0.3 9.4 -2.5
v 0.3 9.4 -2.6
v 0.3 9.4 -2.5
v 0.4 9.4 -2.5
v 0.4 9.4 -2.6
v 0.3 9.4 -2.5
v 0.3 9.3 -2.5
v 0.4 9.3 -2.5
v 0.4 9.4 -2.5
v 0.4 9.4 -2.6
v 0.4 9.3 -2.6
v 0.3 9.3 -2.6
v 0.3 9.4 -2.6
v 0.4 9.4 -2.5
v 0.4 9.3 -2.5
v 0.5 9.3 -2.5
v 0.5 9.4 -2.5
v 0.5 9.4 -2.6
v 0.5 9.3 -2.6
v 0.4 9.3 -2.6
v 0.4 9.4 -2.6
v 0.5 9.4 -2.5
v 0.5 9.3 -2.5
v 0.6 9.3 -2.5
v 0.6 9.4 -2.5
v 0.6 9.4 -2.6
v 0.6 9.3 -2.6
v 0.5 9.3 -2.6
v 0.5 9.4 -2.6
v 0.6 9.4 -2.5
v 0.6 9.3 -2.5
v 0.7 9.3 -2.5
v 0.7 9.4 -2.5
v 0.7 9.4 -2.6
v 0.7 9.3 -2.6
v 0.6 9.3 -2.6
v 0.6 9.4 -2.6
v 0.7 9.4 -2.5
v 0.7 9.3 -2.5
v 0.8 9.3 -2.5
v 0.8 9.4 -2.5
v 0.8 9.4 -2.6
v 0.8 9.3 -2.6
v 0.7 9.3 -2.6
v 0.7 9.4 -2.6
v 0.8 9.4 -2.5
v 0.8 9.3 -2.5
v 0.9 9.3 -2.5
v 0.9 9.4 -2.5
v 0.9 9.4 -2.6
v 0.9 9.3 -2.6
v 0.8 9.3 -2.6
v 0.8 9.4 -2.6
v 0.9 9.4 -2.5
v 0.9 9.3 -2.5
v 1 9.3 -2.5
v 1 9.4 -2.5
v 1 9.4 -2.6
v 1 9.3 -2.6
v 0.9 9.3 -2.6
v 0.9 9.4 -2.6
v 1 9.4 -2.5
v 1 9.3 -2.5
v 1.1 9.3 -2.5
v 1.1 9.4 -2.5
v 1.1 9.4 -2.6
v 1.1 9.3 -2.6
v 1 9.3 -2.6
v 1 9.4 -2.6
v 1.1 9.4 -2.5
v 1.1 9.3 -2.5
v 1.2 9.3 -2.5
v 1.2 9.4 -2.5
v 1.2 9.4 -2.6
v 1.2 9.3 -2.6
v 1.1 9.3 -2.6
v 1.1 9.4 -2.6
v 1.3 9.4 -2.5
v 1.3 9.3 -2.5
v 1.3 9.3 -2.6
v 1.3 9.4 -2.6
v 1.2 9.3 -2.5
v 1.2 9.3 -2.6
v 1.3 9.3 -2.6
v 1.3 9.3 -2.5
v 1.2 9.4 -2.5
v 1.2 9.3 -2.5
v 1.3 9.3 -2.5
v 1.3 9.4 -2.5
v 1.3 9.4 -2.6
v 1.3 9.3 -2.6
v 1.2 9.3 -2.6
v 1.2 9.4 -2.6
v 0.2 9.3 -2.6
v 0.2 9.2 -2.6
v 0.2 9.2 -2.5
v 0.2 9.3 -2.5
v 0.2 9.3 -2.6
v 0.2 9.3 -2.5
v 0.3 9.3 -2.5
v 0.3 9.3 -2.6
v 0.2 9.3 -2.5
v 0.2 9.2 -2.5
v 0.3 9.2 -2.5
v 0.3 9.3 -2.5
v 0.3 9.3 -2.6
v 0.3 9.2 -2.6
v 0.2 9.2 -2.6
v 0.2 9.3 -2.6
v 0.3 9.3 -2.5
v 0.3 9.2 -2.5
v 0.4 9.2 -2.5
v 0.4 9.3 -2.5
v 0.4 9.3 -2.6
v 0.4 9.2 -2.6
v 0.3 9.2 -2.6
v 0.3 9.3 -2.6
v 0.4 9.3 -2.5
v 0.4 9.2 -2.5
v 0.5 9.2 -2.5
v 0.5 9.3 -2.5
v 0.5 9.3 -2.6
v 0.5 9.2 -2.6
v 0.4 9.2 -2.6
v 0.4 9.3 -2.6
v 0.5 9.3 -2.5
v 0.5 9.2 -2.5
v 0.6 9.2 -2.5
v 0.6 9.3 -2.5
v 0.6 9.3 -2.6
v 0.6 9.2 -2.6
v 0.5 9.2 -2.6
v 0.5 9.3 -2.6
v 0.6 9.3 -2.5
v 0.6 9.2 -2.5
v 0.7 9.2 -2.5
v 0.7 9.3 -2.5
v 0.7 9.3 -2.6
v 0.7 9.2 -2.6
v 0.6 9.2 -2.6
v 0.6 9.3 -2.6
v 0.7 9.3 -2.5
v 0.7 9.2 -2.5
v 0.8 9.2 -2.5
v 0.8 9.3 -2.5
v 0.8 9.3 -2.6
v 0.8 9.2 -2.6
v 0.7 9.2 -2.6
v 0.7 9.3 -2.6
v 0.8 9.3 -2.5
v 0.8 9.2 -2.5
v 0.9 9.2 -2.5
v 0.9 9.3 -2.5
v 0.9 9.3 -2.6
v 0.9 9.2 -2.6
v 0.8 9.2 -2.6
v 0.8 9.3 -2.6
v 0.9 9.3 -2.5
v 0.9 9.2 -2.5
v 1 9.2 -2.5
v 1 9.3 -2.5
v 1 9.3 -2.6
v 1 9.2 -2.6
v 0.9 9.2 -2.6
v 0.9 9.3 -2.6
v 1 9.3 -2.5
v 1 9.2 -2.5
v 1.1 9.2 -2.5
v 1.1 9.3 -2.5
v 1.1 9.3 -2.6
v 1.1 9.2 -2.6
v 1 9.2 -2.6
v 1 9.3 -2.6
v 1.2 9.3 -2.5
v 1.2 9.2 -2.5
v 1.2 9.2 -2.6
v 1.2 9.3 -2.6
v 1.1 9.3 -2.5
v 1.1 9.2 -2.5
v 1.2 9.2 -2.5
v 1.2 9.3 -2.5
v 1.2 9.3 -2.6
v 1.2 9.2 -2.6
v 1.1 9.2 -2.6
v 1.1 9.3 -2.6
v 0.2 9.2 -2.6
v 0.2 9.1 -2.6
v 0.2 9.1 -2.5
v 0.2 9.2 -2.5
v 0.2 9.1 -2.5
v 0.2 9.1 -2.6
v 0.3 9.1 -2.6
v 0.3 9.1 -2.5
v 0.2 9.2 -2.5
v 0.2 9.1 -2.5
v 0.3 9.1 -2.5
v 0.3 9.2 -2.5
v 0.3 9.2 -2.6
v 0.3 9.1 -2.6
v 0.2 9.1 -2.6
v 0.2 9.2 -2.6
v 0.3 9.1 -2.5
v 0.3 9.1 -2.6
v 0.4 9.1 -2.6
v 0.4 9.1 -2.5
v 0.3 9.2 -2.5
v 0.3 9.1 -2.5
v 0.4 9.1 -2.5
v 0.4 9.2 -2.5
v 0.4 9.2 -2.6
v 0.4 9.1 -2.6
v 0.3 9.1 -2.6
v 0.3 9.2 -2.6
v 0.4 9.1 -2.5
v 0.4 9.1 -2.6
v 0.5 9.1 -2.6
v 0.5 9.1 -2.5
v 0.4 9.2 -2.5
v 0.4 9.1 -2.5
v 0.5 9.1 -2.5
v 0.5 9.2 -2.5
v 0.5 9.2 -2.6
v 0.5 9.1 -2.6
v 0.4 9.1 -2.6
v 0.4 9.2 -2.6
v 0.5 9.1 -2.5
v 0.5 9.1 -2.6
v 0.6 9.1 -2.6
v 0.6 9.1 -2.5
v 0.5 9.2 -2.5
v 0.5 9.1 -2.5
v 0.6 9.1 -2.5
v 0.6 9.2 -2.5
v 0.6 9.2 -2.6
v 0.6 9.1 -2.6
v 0.5 9.1 -2.6
v 0.5 9.2 -2.6
v 0.6 9.1 -2.5
v 0.6 9.1 -2.6
v 0.7 9.1 -2.6
v 0.7 9.1 -2.5
v 0.6 9.2 -2.5
v 0.6 9.1 -2.5
v 0.7 9.1 -2.5
v 0.7 9.2 -2.5
v 0.7 9.2 -2.6
v 0.7 9.1 -2.6
v 0.6 9.1 -2.6
v 0.6 9.2 -2.6
v 0.7 9.2 -2.5
v 0.7 9.1 -2.5
v 0.8 9.1 -2.5
v 0.8 9.2 -2.5
v 0.8 9.2 -2.6
v 0.8 9.1 -2.6
v 0.7 9.1 -2.6
v 0.7 9.2 -2.6
v 0.8 9.2 -2.5
v 0.8 9.1 -2.5
v 0.9 9.1 -2.5
v 0.9 9.2 -2.5
v 0.9 9.2 -2.6
v 0.9 9.1 -2.6
v 0.8 9.1 -2.6
v 0.8 9.2 -2.6
v 0.9 9.2 -2.5
v 0.9 9.1 -2.5
v 1 9.1 -2.5
v 1 9.2 -2.5
v 1 9.2 -2.6
v 1 9.1 -2.6
v 0.9 9.1 -2.6
v 0.9 9.2 -2.6
v 1 9.2 -2.5
v 1 9.1 -2.5
v 1.1 9.1 -2.5
v 1.1 9.2 -2.5
v 1.1 9.2 -2.6
v 1.1 9.1 -2.6
v 1 9.1 -2.6
v 1 9.2 -2.6
v 1.2 9.2 -2.5
v 1.2 9.1 -2.5
v 1.2 9.1 -2.6
v 1.2 9.2 -2.6
v 1.1 9.2 -2.5
v 1.1 9.1 -2.5
v 1.2 9.1 -2.5
v 1.2 9.2 -2.5
v 1.2 9.2 -2.6
v 1.2 9.1 -2.6
v 1.1 9.1 -2.6
v 1.1 9.2 -2.6
v 0.1 9.1 -2.6
v 0.1 9 -2.6
v 0.1 9 -2.5
v 0.1 9.1 -2.5
v 0.2 9.1 -2.5
v 0.2 9 -2.5
v 0.2 9 -2.6
v 0.2 9.1 -2.6
v 0.1 9.1 -2.6
v 0.1 9.1 -2.5
v 0.2 9.1 -2.5
v 0.2 9.1 -2.6
v 0.1 9 -2.5
v 0.1 9 -2.6
v 0.2 9 -2.6
v 0.2 9 -2.5
v 0.1 9.1 -2.5
v 0.1 9 -2.5
v 0.2 9 -2.5
v 0.2 9.1 -2.5
v 0.2 9.1 -2.6
v 0.2 9 -2.6
v 0.1 9 -2.6
v 0.1 9.1 -2.6
v 0.7 9.1 -2.6
v 0.7 9 -2.6
v 0.7 9 -2.5
v 0.7 9.1 -2.5
v 0.7 9 -2.5
v 0.7 9 -2.6
v 0.8 9 -2.6
v 0.8 9 -2.5
v 0.7 9.1 -2.5
v 0.7 9 -2.5
v 0.8 9 -2.5
v 0.8 9.1 -2.5
v 0.8 9.1 -2.6
v 0.8 9 -2.6
v 0.7 9 -2.6
v 0.7 9.1 -2.6
v 0.8 9 -2.5
v 0.8 9 -2.6
v 0.9 9 -2.6
v 0.9 9 -2.5
v 0.8 9.1 -2.5
v 0.8 9 -2.5
v 0.9 9 -2.5
v 0.9 9.1 -2.5
v 0.9 9.1 -2.6
v 0.9 9 -2.6
v 0.8 9 -2.6
v 0.8 9.1 -2.6
v 0.9 9.1 -2.5
v 0.9 9 -2.5
v 1 9 -2.5
v 1 9.1 -2.5
v 1 9.1 -2.6
v 1 9 -2.6
v 0.9 9 -2.6
v 0.9 9.1 -2.6
v 1 9.1 -2.5
v 1 9 -2.5
v 1.1 9 -2.5
v 1.1 9.1 -2.5
v 1.1 9.1 -2.6
v 1.1 9 -2.6
v 1 9 -2.6
v 1 9.1 -2.6
v 1.1 9.1 -2.5
v 1.1 9 -2.5
v 1.2 9 -2.5
v 1.2 9.1 -2.5
v 1.2 9.1 -2.6
v 1.2 9 -2.6
v 1.1 9 -2.6
v 1.1 9.1 -2.6
v 1.3 9.1 -2.5
v 1.3 9 -2.5
v 1.3 9 -2.6
v 1.3 9.1 -2.6
v 1.2 9.1 -2.6
v 1.2 9.1 -2.5
v 1.3 9.1 -2.5
v 1.3 9.1 -2.6
v 1.2 9.1 -2.5
v 1.2 9 -2.5
v 1.3 9 -2.5
v 1.3 9.1 -2.5
v 1.3 9.1 -2.6
v 1.3 9 -2.6
v 1.2 9 -2.6
v 1.2 9.1 -2.6
v 0.9 9 -2.6
v 0.9 8.9 -2.6
v 0.9 8.9 -2.5
v 0.9 9 -2.5
v 0.9 8.9 -2.5
v 0.9 8.9 -2.6
v 1 8.9 -2.6
v 1 8.9 -2.5
v 0.9 9 -2.5
v 0.9 8.9 -2.5
v 1 8.9 -2.5
v 1 9 -2.5
v 1 9 -2.6
v 1 8.9 -2.6
v 0.9 8.9 -2.6
v 0.9 9 -2.6
v 1 8.9 -2.5
v 1 8.9 -2.6
v 1.1 8.9 -2.6
v 1.1 8.9 -2.5
v 1 9 -2.5
v 1 8.9 -2.5
v 1.1 8.9 -2.5
v 1.1 9 -2.5
v 1.1 9 -2.6
v 1.1 8.9 -2.6
v 1 8.9 -2.6
v 1 9 -2.6
v 1.1 9 -2.5
v 1.1 8.9 -2.5
v 1.2 8.9 -2.5
v 1.2 9 -2.5
v 1.2 9 -2.6
v 1.2 8.9 -2.6
v 1.1 8.9 -2.6
v 1.1 9 -2.6
v 1.2 9 -2.5
v 1.2 8.9 -2.5
v 1.3 8.9 -2.5
v 1.3 9 -2.5
v 1.3 9 -2.6
v 1.3 8.9 -2.6
v 1.2 8.9 -2.6
v 1.2 9 -2.6
v 1.4 9 -2.5
v 1.4 8.9 -2.5
v 1.4 8.9 -2.6
v 1.4 9 -2.6
v 1.3 9 -2.6
v 1.3 9 -2.5
v 1.4 9 -2.5
v 1.4 9 -2.6
v 1.3 9 -2.5
v 1.3 8.9 -2.5
v 1.4 8.9 -2.5
v 1.4 9 -2.5
v 1.4 9 -2.6
v 1.4 8.9 -2.6
v 1.3 8.9 -2.6
v 1.3 9 -2.6
v 1.1 8.9 -2.6
v 1.1 8.8 -2.6
v 1.1 8.8 -2.5
v 1.1 8.9 -2.5
v 1.1 8.8 -2.5
v 1.1 8.8 -2.6
v 1.2 8.8 -2.6
v 1.2 8.8 -2.5
v 1.1 8.9 -2.5
v 1.1 8.8 -2.5
v 1.2 8.8 -2.5
v 1.2 8.9 -2.5
v 1.2 8.9 -2.6
v 1.2 8.8 -2.6
v 1.1 8.8 -2.6
v 1.1 8.9 -2.6
v 1.2 8.8 -2.5
v 1.2 8.8 -2.6
v 1.3 8.8 -2.6
v 1.3 8.8 -2.5
v 1.2 8.9 -2.5
v 1.2 8.8 -2.5
v 1.3 8.8 -2.5
v 1.3 8.9 -2.5
v 1.3 8.9 -2.6
v 1.3 8.8 -2.6
v 1.2 8.8 -2.6
v 1.2 8.9 -2.6
v 1.4 8.9 -2.5
v 1.4 8.8 -2.5
v 1.4 8.8 -2.6
v 1.4 8.9 -2.6
v 1.3 8.9 -2.5
v 1.3 8.8 -2.5
v 1.4 8.8 -2.5
v 1.4 8.9 -2.5
v 1.4 8.9 -2.6
v 1.4 8.8 -2.6
v 1.3 8.8 -2.6
v 1.3 8.9 -2.6
v 1.3 8.8 -2.6
v 1.3 8.7 -2.6
v 1.3 8.7 -2.5
v 1.3 8.8 -2.5
v 1.3 8.7 -2.5
v 1.3 8.7 -2.6
v 1.4 8.7 -2.6
v 1.4 8.7 -2.5
v 1.3 8.8 -2.5
v 1.3 8.7 -2.5
v 1.4 8.7 -2.5
v 1.4 8.8 -2.5
v 1.4 8.8 -2.6
v 1.4 8.7 -2.6
v 1.3 8.7 -2.6
v 1.3 8.8 -2.6
v 1.5 8.8 -2.5
v 1.5 8.7 -2.5
v 1.5 8.7 -2.6
v 1.5 8.8 -2.6
v 1.4 8.8 -2.6
v 1.4 8.8 -2.5
v 1.5 8.8 -2.5
v 1.5 8.8 -2.6
v 1.4 8.7 -2.5
v 1.4 8.7 -2.6
v 1.5 8.7 -2.6
v 1.5 8.7 -2.5
v 1.4 8.8 -2.5
v 1.4 8.7 -2.5
v 1.5 8.7 -2.5
v 1.5 8.8 -2.5
v 1.5 8.8 -2.6
v 1.5 8.7 -2.6
v 1.4 8.7 -2.6
v 1.4 8.8 -2.6
v 1.5 8.7 -2.6
v 1.5 8.6 -2.6
v 1.5 8.6 -2.5
v 1.5 8.7 -2.5
v 1.6 8.7 -2.5
v 1.6 8.6 -2.5
v 1.6 8.6 -2.6
v 1.6 8.7 -2.6
v 1.5 8.7 -2.6
v 1.5 8.7 -2.5
v 1.6 8.7 -2.5
v 1.6 8.7 -2.6
v 1.5 8.6 -2.5
v 1.5 8.6 -2.6
v 1.6 8.6 -2.6
v 1.6 8.6 -2.5
v 1.5 8.7 -2.5
v 1.5 8.6 -2.5
v 1.6 8.6 -2.5
v 1.6 8.7 -2.5
v 1.6 8.7 -2.6
v 1.6 8.6 -2.6
v 1.5 8.6 -2.6
v 1.5 8.7 -2.6
v 1.7 8.6 -2.6
v 1.7 8.5 -2.6
v 1.7 8.5 -2.5
v 1.7 8.6 -2.5
v 1.8 8.6 -2.5
v 1.8 8.5 -2.5
v 1.8 8.5 -2.6
v 1.8 8.6 -2.6
v 1.7 8.6 -2.6
v 1.7 8.6 -2.5
v 1.8 8.6 -2.5
v 1.8 8.6 -2.6
v 1.7 8.5 -2.5
v 1.7 8.5 -2.6
v 1.8 8.5 -2.6
v 1.8 8.5 -2.5
v 1.7 8.6 -2.5
v 1.7 8.5 -2.5
v 1.8 8.5 -2.5
v 1.8 8.6 -2.5
v 1.8 8.6 -2.6
v 1.8 8.5 -2.6
v 1.7 8.5 -2.6
v 1.7 8.6 -2.6

# faces
f 1/2/1 2/2/1 3/2/1 4/2/1
f 5/2/2 6/2/2 7/2/2 8/2/2
f 9/2/3 10/2/3 11/2/3 12/2/3
f 13/2/5 14/2/5 15/2/5 16/2/5
f 17/2/6 18/2/6 19/2/6 20/2/6
f 21/2/1 22/2/1 23/2/1 24/2/1
f 25/2/3 26/2/3 27/2/3 28/2/3
f 29/2/5 30/2/5 31/2/5 32/2/5
f 33/2/6 34/2/6 35/2/6 36/2/6
f 37/2/2 38/2/2 39/2/2 40/2/2
f 41/2/4 42/2/4 43/2/4 44/2/4
f 45/2/5 46/2/5 47/2/5 48/2/5
f 49/2/6 50/2/6 51/2/6 52/2/6
f 53/2/1 54/2/1 55/2/1 56/2/1
f 57/2/2 58/2/2 59/2/2 60/2/2
f 61/2/5 62/2/5 63/2/5 64/2/5
f 65/2/6 66/2/6 67/2/6 68/2/6
f 69/2/1 70/2/1 71/2/1 72/2/1
f 73/2/3 74/2/3 75/2/3 76/2/3
f 77/2/5 78/2/5 79/2/5 80/2/5
f 81/2/6 82/2/6 83/2/6 84/2/6
f 85/2/2 86/2/2 87/2/2 88/2/2
f 89/2/4 90/2/4 91/2/4 92/2/4
f 93/2/5 94/2/5 95/2/5 96/2/5
f 97/2/6 98/2/6 99/2/6 100/2/6
f 101/2/1 102/2/1 103/2/1 104/2/1
f 105/2/3 106/2/3 107/2/3 108/2/3
f 109/2/5 110/2/5 111/2/5 112/2/5
f 113/2/6 114/2/6 115/2/6 116/2/6
f 117/2/2 118/2/2 119/2/2 120/2/2
f 121/2/5 122/2/5 123/2/5 124/2/5
f 125/2/6 126/2/6 127/2/6 128/2/6
f 129/2/1 130/2/1 131/2/1 132/2/1
f 133/2/5 134/2/5 135/2/5 136/2/5
f 137/2/6 138/2/6 139/2/6 140/2/6
f 141/2/2 142/2/2 143/2/2 144/2/2
f 145/2/4 146/2/4 147/2/4 148/2/4
f 149/2/5 150/2/5 151/2/5 152/2/5
f 153/2/6 154/2/6 155/2/6 156/2/6
f 157/2/1 158/2/1 159/2/1 160/2/1
f 161/2/3 162/2/3 163/2/3 164/2/3
f 165/2/5 166/2/5 167/2/5 168/2/5
f 169/2/6 170/2/6 171/2/6 172/2/6
f 173/2/2 174/2/2 175/2/2 176/2/2
f 177/2/5 178/2/5 179/2/5 180/2/5
f 181/2/6 182/2/6 183/2/6 184/2/6
f 185/2/1 186/2/1 187/2/1 188/2/1
f 189/2/3 190/2/3 191/2/3 192/2/3
f 193/2/5 194/2/5 195/2/5 196/2/5
f 197/2/6 198/2/6 199/2/6 200/2/6
f 201/3/5 202/3/5 203/3/5 204/3/5
f 205/3/6 206/3/6 207/3/6 208/3/6
f 209/2/2 210/2/2 211/2/2 212/2/2
f 213/2/5 214/2/5 215/2/5 216/2/5
f 217/2/6 218/2/6 219/2/6 220/2/6
f 221/2/1 222/2/1 223/2/1 224/2/1
f 225/2/2 226/2/2 227/2/2 228/2/2
f 229/2/3 230/2/3 231/2/3 232/2/3
f 233/2/5 234/2/5 235/2/5 236/2/5
f 237/2/6 238/2/6 239/2/6 240/2/6
f 241/2/1 242/2/1 243/2/1 244/2/1
f 245/2/5 246/2/5 247/2/5 248/2/5
f 249/2/6 250/2/6 251/2/6 252/2/6
f 253/3/5 254/3/5 255/3/5 256/3/5
f 257/3/6 258/3/6 259/3/6 260/3/6
f 261/2/2 262/2/2 263/2/2 264/2/2
f 265/2/4 266/2/4 267/2/4 268/2/4
f 269/2/5 270/2/5 271/2/5 272/2/5
f 273/2/6 274/2/6 275/2/6 276/2/6
f 277/2/1 278/2/1 279/2/1 280/2/1
f 281/2/3 282/2/3 283/2/3 284/2/3
f 285/2/5 286/2/5 287/2/5 288/2/5
f 289/2/6 290/2/6 291/2/6 292/2/6
f 293/2/2 294/2/2 295/2/2 296/2/2
f 297/2/4 298/2/4 299/2/4 300/2/4
f 301/2/5 302/2/5 303/2/5 304/2/5
f 305/2/6 306/2/6 307/2/6 308/2/6
f 309/2/1 310/2/1 311/2/1 312/2/1
f 313/2/3 314/2/3 315/2/3 316/2/3
f 317/2/5 318/2/5 319/2/5 320/2/5
f 321/2/6 322/2/6 323/2/6 324/2/6
f 325/3/5 326/3/5 327/3/5 328/3/5
f 329/3/6 330/3/6 331/3/6 332/3/6
f 333/2/2 334/2/2 335/2/2 336/2/2
f 337/2/5 338/2/5 339/2/5 340/2/5
f 341/2/6 342/2/6 343/2/6 344/2/6
f 345/2/1 346/2/1 347/2/1 348/2/1
f 349/2/3 350/2/3 351/2/3 352/2/3
f 353/2/5 354/2/5 355/2/5 356/2/5
f 357/2/6 358/2/6 359/2/6 360/2/6
f 361/2/2 362/2/2 363/2/2 364/2/2
f 365/2/5 366/2/5 367/2/5 368/2/5
f 369/2/6 370/2/6 371/2/6 372/2/6
f 373/2/1 374/2/1 375/2/1 376/2/1
f 377/2/3 378/2/3 379/2/3 380/2/3
f 381/2/5 382/2/5 383/2/5 384/2/5
f 385/2/6 386/2/6 387/2/6 388/2/6
f 389/3/5 390/3/5 391/3/5 392/3/5
f 393/3/6 394/3/6 395/3/6 396/3/6
f 397/3/5 398/3/5 399/3/5 400/3/5
f 401/3/6 402/3/6 403/3/6 404/3/6
f 405/2/2 406/2/2 407/2/2 408/2/2
f 409/2/4 410/2/4 411/2/4 412/2/4
f 413/2/5 414/2/5 415/2/5 416/2/5
f 417/2/6 418/2/6 419/2/6 420/2/6
f 421/2/1 422/2/1 423/2/1 424/2/1
f 425/2/3 426/2/3 427/2/3 428/2/3
f 429/2/5 430/2/5 431/2/5 432/2/5
f 433/2/6 434/2/6 435/2/6 436/2/6
f 437/3/5 438/3/5 439/3/5 440/3/5
f 441/3/6 442/3/6 443/3/6 444/3/6
f 445/2/2 446/2/2 447/2/2 448/2/2
f 449/2/5 450/2/5 451/2/5 452/2/5
f 453/2/6 454/2/6 455/2/6 456/2/6
f 457/2/1 458/2/1 459/2/1 460/2/1
f 461/2/3 462/2/3 463/2/3 464/2/3
f 465/2/5 466/2/5 467/2/5 468/2/5
f 469/2/6 470/2/6 471/2/6 472/2/6
f 473/3/5 474/3/5 475/3/5 476/3/5
f 477/3/6 478/3/6 479/3/6 480/3/6
f 481/3/5 482/3/5 483/3/5 484/3/5
f 485/3/6 486/3/6 487/3/6 488/3/6
f 489/2/2 490/2/2 491/2/2 492/2/2
f 493/2/5 494/2/5 495/2/5 496/2/5
f 497/2/6 498/2/6 499/2/6 500/2/6
f 501/2/1 502/2/1 503/2/1 504/2/1
f 505/2/3 506/2/3 507/2/3 508/2/3
f 509/2/5 510/2/5 511/2/5 512/2/5
f 513/2/6 514/2/6 515/2/6 516/2/6
f 517/3/5 518/3/5 519/3/5 520/3/5
f 521/3/6 522/3/6 523/3/6 524/3/6
f 525/3/5 526/3/5 527/3/5 528/3/5
f 529/3/6 530/3/6 531/3/6 532/3/6
f 533/2/2 534/2/2 535/2/2 536/2/2
f 537/2/4 538/2/4 539/2/4 540/2/4
f 541/2/5 542/2/5 543/2/5 544/2/5
f 545/2/6 546/2/6 547/2/6 548/2/6
f 549/2/1 550/2/1 551/2/1 552/2/1
f 553/2/5 554/2/5 555/2/5 556/2/5
f 557/2/6 558/2/6 559/2/6 560/2/6
f 561/3/5 562/3/5 563/3/5 564/3/5
f 565/3/6 566/3/6 567/3/6 568/3/6
f 569/3/5 570/3/5 571/3/5 572/3/5
f 573/3/6 574/3/6 575/3/6 576/3/6
f 577/2/5 578/2/5 579/2/5 580/2/5
f 581/2/6 582/2/6 583/2/6 584/2/6
f 585/2/3 586/2/3 587/2/3 588/2/3
f 589/2/5 590/2/5 591/2/5 592/2/5
f 593/2/6 594/2/6 595/2/6 596/2/6
f 597/3/5 598/3/5 599/3/5 600/3/5
f 601/3/6 602/3/6 603/3/6 604/3/6
f 605/3/5 606/3/5 607/3/5 608/3/5
f 609/3/6 610/3/6 611/3/6 612/3/6
f 613/2/2 614/2/2 615/2/2 616/2/2
f 617/2/5 618/2/5 619/2/5 620/2/5
f 621/2/6 622/2/6 623/2/6 624/2/6
f 625/2/1 626/2/1 627/2/1 628/2/1
f 629/2/3 630/2/3 631/2/3 632/2/3
f 633/2/5 634/2/5 635/2/5 636/2/5
f 637/2/6 638/2/6 639/2/6 640/2/6
f 641/3/5 642/3/5 643/3/5 644/3/5
f 645/3/6 646/3/6 647/3/6 648/3/6
f 649/3/5 650/3/5 651/3/5 652/3/5
f 653/3/6 654/3/6 655/3/6 656/3/6
f 657/2/5 658/2/5 659/2/5 660/2/5
f 661/2/6 662/2/6 663/2/6 664/2/6
f 665/2/5 666/2/5 667/2/5 668/2/5
f 669/2/6 670/2/6 671/2/6 672/2/6
f 673/3/5 674/3/5 675/3/5 676/3/5
f 677/3/6 678/3/6 679/3/6 680/3/6
f 681/1/5 682/1/5 683/1/5 684/1/5
f 685/1/6 686/1/6 687/1/6 688/1/6
f 689/3/5 690/3/5 691/3/5 692/3/5
f 693/3/6 694/3/6 695/3/6 696/3/6
f 697/2/2 698/2/2 699/2/2 700/2/2
f 701/2/4 702/2/4 703/2/4 704/2/4
f 705/2/5 706/2/5 707/2/5 708/2/5
f 709/2/6 710/2/6 711/2/6 712/2/6
f 713/2/1 714/2/1 715/2/1 716/2/1
f 717/2/3 718/2/3 719/2/3 720/2/3
f 721/2/5 722/2/5 723/2/5 724/2/5
f 725/2/6 726/2/6 727/2/6 728/2/6
f 729/3/5 730/3/5 731/3/5 732/3/5
f 733/3/6 734/3/6 735/3/6 736/3/6
f 737/1/5 738/1/5 739/1/5 740/1/5
f 741/1/6 742/1/6 743/1/6 744/1/6
f 745/3/5 746/3/5 747/3/5 748/3/5
f 749/3/6 750/3/6 751/3/6 752/3/6
f 753/2/5 754/2/5 755/2/5 756/2/5
f 757/2/6 758/2/6 759/2/6 760/2/6
f 761/3/5 762/3/5 763/3/5 764/3/5
f 765/3/6 766/3/6 767/3/6 768/3/6
f 769/1/5 770/1/5 771/1/5 772/1/5
f 773/1/6 774/1/6 775/1/6 776/1/6
f 777/3/5 778/3/5 779/3/5 780/3/5
f 781/3/6 782/3/6 783/3/6 784/3/6
f 785/2/2 786/2/2 787/2/2 788/2/2
f 789/2/5 790/2/5 791/2/5 792/2/5
f 793/2/6 794/2/6 795/2/6 796/2/6
f 797/2/1 798/2/1 799/2/1 800/2/1
f 801/2/5 802/2/5 803/2/5 804/2/5
f 805/2/6 806/2/6 807/2/6 808/2/6
f 809/3/5 810/3/5 811/3/5 812/3/5
f 813/3/6 814/3/6 815/3/6 816/3/6
f 817/1/5 818/1/5 819/1/5 820/1/5
f 821/1/6 822/1/6 823/1/6 824/1/6
f 825/3/5 826/3/5 827/3/5 828/3/5
f 829/3/6 830/3/6 831/3/6 832/3/6
f 833/3/5 834/3/5 835/3/5 836/3/5
f 837/3/6 838/3/6 839/3/6 840/3/6
f 841/1/5 842/1/5 843/1/5 844/1/5
f 845/1/6 846/1/6 847/1/6 848/1/6
f 849/1/5 850/1/5 851/1/5 852/1/5
f 853/1/6 854/1/6 855/1/6 856/1/6
f 857/3/5 858/3/5 859/3/5 860/3/5
f 861/3/6 862/3/6 863/3/6 864/3/6
f 865/2/2 866/2/2 867/2/2 868/2/2
f 869/2/5 870/2/5 871/2/5 872/2/5
f 873/2/6 874/2/6 875/2/6 876/2/6
f 877/2/1 878/2/1 879/2/1 880/2/1
f 881/2/3 882/2/3 883/2/3 884/2/3
f 885/2/5 886/2/5 887/2/5 888/2/5
f 889/2/6 890/2/6 891/2/6 892/2/6
f 893/3/5 894/3/5 895/3/5 896/3/5
f 897/3/6 898/3/6 899/3/6 900/3/6
f 901/1/5 902/1/5 903/1/5 904/1/5
f 905/1/6 906/1/6 907/1/6 908/1/6
f 909/1/5 910/1/5 911/1/5 912/1/5
f 913/1/6 914/1/6 915/1/6 916/1/6
f 917/3/5 918/3/5 919/3/5 920/3/5
f 921/3/6 922/3/6 923/3/6 924/3/6
f 925/1/5 926/1/5 927/1/5 928/1/5
f 929/1/6 930/1/6 931/1/6 932/1/6
f 933/1/5 934/1/5 935/1/5 936/1/5
f 937/1/6 938/1/6 939/1/6 940/1/6
f 941/1/5 942/1/5 943/1/5 944/1/5
f 945/1/6 946/1/6 947/1/6 948/1/6
f 949/3/5 950/3/5 951/3/5 952/3/5
f 953/3/6 954/3/6 955/3/6 956/3/6
f 957/2/2 958/2/2 959/2/2 960/2/2
f 961/2/4 962/2/4 963/2/4 964/2/4
f 965/2/5 966/2/5 967/2/5 968/2/5
f 969/2/6 970/2/6 971/2/6 972/2/6
f 973/2/1 974/2/1 975/2/1 976/2/1
f 977/2/3 978/2/3 979/2/3 980/2/3
f 981/2/5 982/2/5 983/2/5 984/2/5
f 985/2/6 986/2/6 987/2/6 988/2/6
f 989/3/5 990/3/5 991/3/5 992/3/5
f 993/3/6 994/3/6 995/3/6 996/3/6
f 997/1/5 998/1/5 999/1/5 1000/1/5
f 1001/1/6 1002/1/6 1003/1/6 1004/1/6
f 1005/1/5 1006/1/5 1007/1/5 1008/1/5
f 1009/1/6 1010/1/6 1011/1/6 1012/1/6
f 1013/1/5 1014/1/5 1015/1/5 1016/1/5
f 1017/1/6 1018/1/6 1019/1/6 1020/1/6
f 1021/1/5 1022/1/5 1023/1/5 1024/1/5
f 1025/1/6 1026/1/6 1027/1/6 1028/1/6
f 1029/1/5 1030/1/5 1031/1/5 1032/1/5
f 1033/1/6 1034/1/6 1035/1/6 1036/1/6
f 1037/1/5 1038/1/5 1039/1/5 1040/1/5
f 1041/1/6 1042/1/6 1043/1/6 1044/1/6
f 1045/3/5 1046/3/5 1047/3/5 1048/3/5
f 1049/3/6 1050/3/6 1051/3/6 1052/3/6
f 1053/2/2 1054/2/2 1055/2/2 1056/2/2
f 1057/2/5 1058/2/5 1059/2/5 1060/2/5
f 1061/2/6 1062/2/6 1063/2/6 1064/2/6
f 1065/2/1 1066/2/1 1067/2/1 1068/2/1
f 1069/2/4 1070/2/4 1071/2/4 1072/2/4
f 1073/2/5 1074/2/5 1075/2/5 1076/2/5
f 1077/2/6 1078/2/6 1079/2/6 1080/2/6
f 1081/3/4 1082/3/4 1083/3/4 1084/3/4
f 1085/3/5 1086/3/5 1087/3/5 1088/3/5
f 1089/3/6 1090/3/6 1091/3/6 1092/3/6
f 1093/1/4 1094/1/4 1095/1/4 1096/1/4
f 1097/1/5 1098/1/5 1099/1/5 1100/1/5
f 1101/1/6 1102/1/6 1103/1/6 1104/1/6
f 1105/1/4 1106/1/4 1107/1/4 1108/1/4
f 1109/1/5 1110/1/5 1111/1/5 1112/1/5
f 1113/1/6 1114/1/6 1115/1/6 1116/1/6
f 1117/1/4 1118/1/4 1119/1/4 1120/1/4
f 1121/1/5 1122/1/5 1123/1/5 1124/1/5
f 1125/1/6 1126/1/6 1127/1/6 1128/1/6
f 1129/1/5 1130/1/5 1131/1/5 1132/1/5
f 1133/1/6 1134/1/6 1135/1/6 1136/1/6
f 1137/1/5 1138/1/5 1139/1/5 1140/1/5
f 1141/1/6 1142/1/6 1143/1/6 1144/1/6
f 1145/1/5 1146/1/5 1147/1/5 1148/1/5
f 1149/1/6 1150/1/6 1151/1/6 1152/1/6
f 1153/3/5 1154/3/5 1155/3/5 1156/3/5
f 1157/3/6 1158/3/6 1159/3/6 1160/3/6
f 1161/2/2 1162/2/2 1163/2/2 1164/2/2
f 1165/2/5 1166/2/5 1167/2/5 1168/2/5
f 1169/2/6 1170/2/6 1171/2/6 1172/2/6
f 1173/2/1 1174/2/1 1175/2/1 1176/2/1
f 1177/2/2 1178/2/2 1179/2/2 1180/2/2
f 1181/2/3 1182/2/3 1183/2/3 1184/2/3
f 1185/2/4 1186/2/4 1187/2/4 1188/2/4
f 1189/2/5 1190/2/5 1191/2/5 1192/2/5
f 1193/2/6 1194/2/6 1195/2/6 1196/2/6
f 1197/1/1 1198/1/1 1199/1/1 1200/1/1
f 1201/1/4 1202/1/4 1203/1/4 1204/1/4
f 1205/1/5 1206/1/5 1207/1/5 1208/1/5
f 1209/1/6 1210/1/6 1211/1/6 1212/1/6
f 1213/1/4 1214/1/4 1215/1/4 1216/1/4
f 1217/1/5 1218/1/5 1219/1/5 1220/1/5
f 1221/1/6 1222/1/6 1223/1/6 1224/1/6
f 1225/1/5 1226/1/5 1227/1/5 1228/1/5
f 1229/1/6 1230/1/6 1231/1/6 1232/1/6
f 1233/1/5 1234/1/5 1235/1/5 1236/1/5
f 1237/1/6 1238/1/6 1239/1/6 1240/1/6
f 1241/3/5 1242/3/5 1243/3/5 1244/3/5
f 1245/3/6 1246/3/6 1247/3/6 1248/3/6
f 1249/2/2 1250/2/2 1251/2/2 1252/2/2
f 1253/2/3 1254/2/3 1255/2/3 1256/2/3
f 1257/2/5 1258/2/5 1259/2/5 1260/2/5
f 1261/2/6 1262/2/6 1263/2/6 1264/2/6
f 1265/1/1 1266/1/1 1267/1/1 1268/1/1
f 1269/1/4 1270/1/4 1271/1/4 1272/1/4
f 1273/1/5 1274/1/5 1275/1/5 1276/1/5
f 1277/1/6 1278/1/6 1279/1/6 1280/1/6
f 1281/1/4 1282/1/4 1283/1/4 1284/1/4
f 1285/1/5 1286/1/5 1287/1/5 1288/1/5
f 1289/1/6 1290/1/6 1291/1/6 1292/1/6
f 1293/1/5 1294/1/5 1295/1/5 1296/1/5
f 1297/1/6 1298/1/6 1299/1/6 1300/1/6
f 1301/3/5 1302/3/5 1303/3/5 1304/3/5
f 1305/3/6 1306/3/6 1307/3/6 1308/3/6
f 1309/2/2 1310/2/2 1311/2/2 1312/2/2
f 1313/2/3 1314/2/3 1315/2/3 1316/2/3
f 1317/2/5 1318/2/5 1319/2/5 1320/2/5
f 1321/2/6 1322/2/6 1323/2/6 1324/2/6
f 1325/1/1 1326/1/1 1327/1/1 1328/1/1
f 1329/1/4 1330/1/4 1331/1/4 1332/1/4
f 1333/1/5 1334/1/5 1335/1/5 1336/1/5
f 1337/1/6 1338/1/6 1339/1/6 1340/1/6
f 1341/3/4 1342/3/4 1343/3/4 1344/3/4
f 1345/3/5 1346/3/5 1347/3/5 1348/3/5
f 1349/3/6 1350/3/6 1351/3/6 1352/3/6
f 1353/2/2 1354/2/2 1355/2/2 1356/2/2
f 1357/2/5 1358/2/5 1359/2/5 1360/2/5
f 1361/2/6 1362/2/6 1363/2/6 1364/2/6
f 1365/3/1 1366/3/1 1367/3/1 1368/3/1
f 1369/3/4 1370/3/4 1371/3/4 1372/3/4
f 1373/3/5 1374/3/5 1375/3/5 1376/3/5
f 1377/3/6 1378/3/6 1379/3/6 1380/3/6
f 1381/2/2 1382/2/2 1383/2/2 1384/2/2
f 1385/2/3 1386/2/3 1387/2/3 1388/2/3
f 1389/2/4 1390/2/4 1391/2/4 1392/2/4
f 1393/2/5 1394/2/5 1395/2/5 1396/2/5
f 1397/2/6 1398/2/6 1399/2/6 1400/2/6
f 1401/2/1 1402/2/1 1403/2/1 1404/2/1
f 1405/2/2 1406/2/2 1407/2/2 1408/2/2
f 1409/2/3 1410/2/3 1411/2/3 1412/2/3
f 1413/2/4 1414/2/4 1415/2/4 1416/2/4
f 1417/2/5 1418/2/5 1419/2/5 1420/2/5
f 1421/2/6 1422/2/6 1423/2/6 1424/2/6
f 1425/2/1 1426/2/1 1427/2/1 1428/2/1
f 1429/2/2 1430/2/2 1431/2/2 1432/2/2
f 1433/2/3 1434/2/3 1435/2/3 1436/2/3
f 1437/2/4 1438/2/4 1439/2/4 1440/2/4
f 1441/2/5 1442/2/5 1443/2/5 1444/2/5
f 1445/2/6 1446/2/6 1447/2/6 1448/2/6

