# generated by vox_to_obj_exporter
# scale=0.1 center=false ground=false y_up=true

mtllib Fight_029.mtl
usemtl palette

# normals
vn -1 0 0
vn 1 0 0
vn 0 1 0
vn 0 -1 0
vn 0 0 1
vn 0 0 -1

# texcoords
vt 0.228515625 0.5
vt 0.232421875 0.5
vt 0.251953125 0.5
vt 0.205078125 0.5
vt 0.220703125 0.5
vt 0.236328125 0.5
vt 0.240234375 0.5
vt 0.224609375 0.5
vt 0.208984375 0.5
vt 0.212890625 0.5

# verts
v 3.9 6 -2.6
v 3.9 5.9 -2.6
v 3.9 5.9 -2.5
v 3.9 6 -2.5
v 4 6 -2.5
v 4 5.9 -2.5
v 4 5.9 -2.6
v 4 6 -2.6
v 3.9 6 -2.6
v 3.9 6 -2.5
v 4 6 -2.5
v 4 6 -2.6
v 3.9 5.9 -2.5
v 3.9 5.9 -2.6
v 4 5.9 -2.6
v 4 5.9 -2.5
v 3.9 6 -2.5
v 3.9 5.9 -2.5
v 4 5.9 -2.5
v 4 6 -2.5
v 4 6 -2.6
v 4 5.9 -2.6
v 3.9 5.9 -2.6
v 3.9 6 -2.6
v 4 5.9 -2.6
v 4 5.8 -2.6
v 4 5.8 -2.5
v 4 5.9 -2.5
v 4.1 5.9 -2.5
v 4.1 5.8 -2.5
v 4.1 5.8 -2.6
v 4.1 5.9 -2.6
v 4 5.9 -2.6
v 4 5.9 -2.5
v 4.1 5.9 -2.5
v 4.1 5.9 -2.6
v 4 5.9 -2.5
v 4 5.8 -2.5
v 4.1 5.8 -2.5
v 4.1 5.9 -2.5
v 4.1 5.9 -2.6
v 4.1 5.8 -2.6
v 4 5.8 -2.6
v 4 5.9 -2.6
v 7.1 5.9 -2.6
v 7.1 5.8 -2.6
v 7.1 5.8 -2.5
v 7.1 5.9 -2.5
v 7.2 5.9 -2.5
v 7.2 5.8 -2.5
v 7.2 5.8 -2.6
v 7.2 5.9 -2.6
v 7.1 5.9 -2.6
v 7.1 5.9 -2.5
v 7.2 5.9 -2.5
v 7.2 5.9 -2.6
v 7.1 5.8 -2.5
v 7.1 5.8 -2.6
v 7.2 5.8 -2.6
v 7.2 5.8 -2.5
v 7.1 5.9 -2.5
v 7.1 5.8 -2.5
v 7.2 5.8 -2.5
v 7.2 5.9 -2.5
v 7.2 5.9 -2.6
v 7.2 5.8 -2.6
v 7.1 5.8 -2.6
v 7.1 5.9 -2.6
v 4 5.8 -2.6
v 4 5.7 -2.6
v 4 5.7 -2.5
v 4 5.8 -2.5
v 4 5.7 -2.5
v 4 5.7 -2.6
v 4.1 5.7 -2.6
v 4.1 5.7 -2.5
v 4 5.8 -2.5
v 4 5.7 -2.5
v 4.1 5.7 -2.5
v 4.1 5.8 -2.5
v 4.1 5.8 -2.6
v 4.1 5.7 -2.6
v 4 5.7 -2.6
v 4 5.8 -2.6
v 4.2 5.8 -2.5
v 4.2 5.7 -2.5
v 4.2 5.7 -2.6
v 4.2 5.8 -2.6
v 4.1 5.8 -2.6
v 4.1 5.8 -2.5
v 4.2 5.8 -2.5
v 4.2 5.8 -2.6
v 4.1 5.8 -2.5
v 4.1 5.7 -2.5
v 4.2 5.7 -2.5
v 4.2 5.8 -2.5
v 4.2 5.8 -2.6
v 4.2 5.7 -2.6
v 4.1 5.7 -2.6
v 4.1 5.8 -2.6
v 6.8 5.8 -2.6
v 6.8 5.7 -2.6
v 6.8 5.7 -2.5
v 6.8 5.8 -2.5
v 6.8 5.8 -2.6
v 6.8 5.8 -2.5
v 6.9 5.8 -2.5
v 6.9 5.8 -2.6
v 6.8 5.7 -2.5
v 6.8 5.7 -2.6
v 6.9 5.7 -2.6
v 6.9 5.7 -2.5
v 6.8 5.8 -2.5
v 6.8 5.7 -2.5
v 6.9 5.7 -2.5
v 6.9 5.8 -2.5
v 6.9 5.8 -2.6
v 6.9 5.7 -2.6
v 6.8 5.7 -2.6
v 6.8 5.8 -2.6
v 7 5.8 -2.5
v 7 5.7 -2.5
v 7 5.7 -2.6
v 7 5.8 -2.6
v 6.9 5.8 -2.6
v 6.9 5.8 -2.5
v 7 5.8 -2.5
v 7 5.8 -2.6
v 6.9 5.7 -2.5
v 6.9 5.7 -2.6
v 7 5.7 -2.6
v 7 5.7 -2.5
v 6.9 5.8 -2.5
v 6.9 5.7 -2.5
v 7 5.7 -2.5
v 7 5.8 -2.5
v 7 5.8 -2.6
v 7 5.7 -2.6
v 6.9 5.7 -2.6
v 6.9 5.8 -2.6
v 4.1 5.7 -2.6
v 4.1 5.6 -2.6
v 4.1 5.6 -2.5
v 4.1 5.7 -2.5
v 4.1 5.6 -2.5
v 4.1 5.6 -2.6
v 4.2 5.6 -2.6
v 4.2 5.6 -2.5
v 4.1 5.7 -2.5
v 4.1 5.6 -2.5
v 4.2 5.6 -2.5
v 4.2 5.7 -2.5
v 4.2 5.7 -2.6
v 4.2 5.6 -2.6
v 4.1 5.6 -2.6
v 4.1 5.7 -2.6
v 4.3 5.7 -2.5
v 4.3 5.6 -2.5
v 4.3 5.6 -2.6
v 4.3 5.7 -2.6
v 4.2 5.7 -2.6
v 4.2 5.7 -2.5
v 4.3 5.7 -2.5
v 4.3 5.7 -2.6
v 4.2 5.7 -2.5
v 4.2 5.6 -2.5
v 4.3 5.6 -2.5
v 4.3 5.7 -2.5
v 4.3 5.7 -2.6
v 4.3 5.6 -2.6
v 4.2 5.6 -2.6
v 4.2 5.7 -2.6
v 6.5 5.7 -2.6
v 6.5 5.6 -2.6
v 6.5 5.6 -2.5
v 6.5 5.7 -2.5
v 6.5 5.7 -2.6
v 6.5 5.7 -2.5
v 6.6 5.7 -2.5
v 6.6 5.7 -2.6
v 6.5 5.7 -2.5
v 6.5 5.6 -2.5
v 6.6 5.6 -2.5
v 6.6 5.7 -2.5
v 6.6 5.7 -2.6
v 6.6 5.6 -2.6
v 6.5 5.6 -2.6
v 6.5 5.7 -2.6
v 6.6 5.7 -2.6
v 6.6 5.7 -2.5
v 6.7 5.7 -2.5
v 6.7 5.7 -2.6
v 6.6 5.6 -2.5
v 6.6 5.6 -2.6
v 6.7 5.6 -2.6
v 6.7 5.6 -2.5
v 6.6 5.7 -2.5
v 6.6 5.6 -2.5
v 6.7 5.6 -2.5
v 6.7 5.7 -2.5
v 6.7 5.7 -2.6
v 6.7 5.6 -2.6
v 6.6 5.6 -2.6
v 6.6 5.7 -2.6
v 6.8 5.7 -2.5
v 6.8 5.6 -2.5
v 6.8 5.6 -2.6
v 6.8 5.7 -2.6
v 6.7 5.7 -2.6
v 6.7 5.7 -2.5
v 6.8 5.7 -2.5
v 6.8 5.7 -2.6
v 6.7 5.6 -2.5
v 6.7 5.6 -2.6
v 6.8 5.6 -2.6
v 6.8 5.6 -2.5
v 6.7 5.7 -2.5
v 6.7 5.6 -2.5
v 6.8 5.6 -2.5
v 6.8 5.7 -2.5
v 6.8 5.7 -2.6
v 6.8 5.6 -2.6
v 6.7 5.6 -2.6
v 6.7 5.7 -2.6
v 4.2 5.6 -2.6
v 4.2 5.5 -2.6
v 4.2 5.5 -2.5
v 4.2 5.6 -2.5
v 4.2 5.6 -2.5
v 4.2 5.5 -2.5
v 4.3 5.5 -2.5
v 4.3 5.6 -2.5
v 4.3 5.6 -2.6
v 4.3 5.5 -2.6
v 4.2 5.5 -2.6
v 4.2 5.6 -2.6
v 4.4 5.6 -2.5
v 4.4 5.5 -2.5
v 4.4 5.5 -2.6
v 4.4 5.6 -2.6
v 4.3 5.6 -2.6
v 4.3 5.6 -2.5
v 4.4 5.6 -2.5
v 4.4 5.6 -2.6
v 4.3 5.6 -2.5
v 4.3 5.5 -2.5
v 4.4 5.5 -2.5
v 4.4 5.6 -2.5
v 4.4 5.6 -2.6
v 4.4 5.5 -2.6
v 4.3 5.5 -2.6
v 4.3 5.6 -2.6
v 6.2 5.6 -2.6
v 6.2 5.5 -2.6
v 6.2 5.5 -2.5
v 6.2 5.6 -2.5
v 6.2 5.6 -2.6
v 6.2 5.6 -2.5
v 6.3 5.6 -2.5
v 6.3 5.6 -2.6
v 6.2 5.6 -2.5
v 6.2 5.5 -2.5
v 6.3 5.5 -2.5
v 6.3 5.6 -2.5
v 6.3 5.6 -2.6
v 6.3 5.5 -2.6
v 6.2 5.5 -2.6
v 6.2 5.6 -2.6
v 6.3 5.6 -2.6
v 6.3 5.6 -2.5
v 6.4 5.6 -2.5
v 6.4 5.6 -2.6
v 6.3 5.6 -2.5
v 6.3 5.5 -2.5
v 6.4 5.5 -2.5
v 6.4 5.6 -2.5
v 6.4 5.6 -2.6
v 6.4 5.5 -2.6
v 6.3 5.5 -2.6
v 6.3 5.6 -2.6
v 6.4 5.6 -2.6
v 6.4 5.6 -2.5
v 6.5 5.6 -2.5
v 6.5 5.6 -2.6
v 6.4 5.5 -2.5
v 6.4 5.5 -2.6
v 6.5 5.5 -2.6
v 6.5 5.5 -2.5
v 6.4 5.6 -2.5
v 6.4 5.5 -2.5
v 6.5 5.5 -2.5
v 6.5 5.6 -2.5
v 6.5 5.6 -2.6
v 6.5 5.5 -2.6
v 6.4 5.5 -2.6
v 6.4 5.6 -2.6
v 6.6 5.6 -2.5
v 6.6 5.5 -2.5
v 6.6 5.5 -2.6
v 6.6 5.6 -2.6
v 6.5 5.5 -2.5
v 6.5 5.5 -2.6
v 6.6 5.5 -2.6
v 6.6 5.5 -2.5
v 6.5 5.6 -2.5
v 6.5 5.5 -2.5
v 6.6 5.5 -2.5
v 6.6 5.6 -2.5
v 6.6 5.6 -2.6
v 6.6 5.5 -2.6
v 6.5 5.5 -2.6
v 6.5 5.6 -2.6
v 4.2 5.5 -2.6
v 4.2 5.4 -2.6
v 4.2 5.4 -2.5
v 4.2 5.5 -2.5
v 4.2 5.4 -2.5
v 4.2 5.4 -2.6
v 4.3 5.4 -2.6
v 4.3 5.4 -2.5
v 4.2 5.5 -2.5
v 4.2 5.4 -2.5
v 4.3 5.4 -2.5
v 4.3 5.5 -2.5
v 4.3 5.5 -2.6
v 4.3 5.4 -2.6
v 4.2 5.4 -2.6
v 4.2 5.5 -2.6
v 4.3 5.5 -2.5
v 4.3 5.4 -2.5
v 4.4 5.4 -2.5
v 4.4 5.5 -2.5
v 4.4 5.5 -2.6
v 4.4 5.4 -2.6
v 4.3 5.4 -2.6
v 4.3 5.5 -2.6
v 4.4 5.5 -2.6
v 4.4 5.5 -2.5
v 4.5 5.5 -2.5
v 4.5 5.5 -2.6
v 4.4 5.5 -2.5
v 4.4 5.4 -2.5
v 4.5 5.4 -2.5
v 4.5 5.5 -2.5
v 4.5 5.5 -2.6
v 4.5 5.4 -2.6
v 4.4 5.4 -2.6
v 4.4 5.5 -2.6
v 4.5 5.5 -2.6
v 4.5 5.5 -2.5
v 4.6 5.5 -2.5
v 4.6 5.5 -2.6
v 4.5 5.5 -2.5
v 4.5 5.4 -2.5
v 4.6 5.4 -2.5
v 4.6 5.5 -2.5
v 4.6 5.5 -2.6
v 4.6 5.4 -2.6
v 4.5 5.4 -2.6
v 4.5 5.5 -2.6
v 4.7 5.5 -2.5
v 4.7 5.4 -2.5
v 4.7 5.4 -2.6
v 4.7 5.5 -2.6
v 4.6 5.5 -2.6
v 4.6 5.5 -2.5
v 4.7 5.5 -2.5
v 4.7 5.5 -2.6
v 4.6 5.5 -2.5
v 4.6 5.4 -2.5
v 4.7 5.4 -2.5
v 4.7 5.5 -2.5
v 4.7 5.5 -2.6
v 4.7 5.4 -2.6
v 4.6 5.4 -2.6
v 4.6 5.5 -2.6
v 5.7 5.5 -2.6
v 5.7 5.4 -2.6
v 5.7 5.4 -2.5
v 5.7 5.5 -2.5
v 5.7 5.5 -2.6
v 5.7 5.5 -2.5
v 5.8 5.5 -2.5
v 5.8 5.5 -2.6
v 5.7 5.5 -2.5
v 5.7 5.4 -2.5
v 5.8 5.4 -2.5
v 5.8 5.5 -2.5
v 5.8 5.5 -2.6
v 5.8 5.4 -2.6
v 5.7 5.4 -2.6
v 5.7 5.5 -2.6
v 5.8 5.5 -2.6
v 5.8 5.5 -2.5
v 5.9 5.5 -2.5
v 5.9 5.5 -2.6
v 5.8 5.5 -2.5
v 5.8 5.4 -2.5
v 5.9 5.4 -2.5
v 5.9 5.5 -2.5
v 5.9 5.5 -2.6
v 5.9 5.4 -2.6
v 5.8 5.4 -2.6
v 5.8 5.5 -2.6
v 5.9 5.5 -2.6
v 5.9 5.5 -2.5
v 6 5.5 -2.5
v 6 5.5 -2.6
v 5.9 5.5 -2.5
v 5.9 5.4 -2.5
v 6 5.4 -2.5
v 6 5.5 -2.5
v 6 5.5 -2.6
v 6 5.4 -2.6
v 5.9 5.4 -2.6
v 5.9 5.5 -2.6
v 6 5.5 -2.6
v 6 5.5 -2.5
v 6.1 5.5 -2.5
v 6.1 5.5 -2.6
v 6 5.5 -2.5
v 6 5.4 -2.5
v 6.1 5.4 -2.5
v 6.1 5.5 -2.5
v 6.1 5.5 -2.6
v 6.1 5.4 -2.6
v 6 5.4 -2.6
v 6 5.5 -2.6
v 6.1 5.5 -2.6
v 6.1 5.5 -2.5
v 6.2 5.5 -2.5
v 6.2 5.5 -2.6
v 6.1 5.5 -2.5
v 6.1 5.4 -2.5
v 6.2 5.4 -2.5
v 6.2 5.5 -2.5
v 6.2 5.5 -2.6
v 6.2 5.4 -2.6
v 6.1 5.4 -2.6
v 6.1 5.5 -2.6
v 6.2 5.4 -2.5
v 6.2 5.4 -2.6
v 6.3 5.4 -2.6
v 6.3 5.4 -2.5
v 6.2 5.5 -2.5
v 6.2 5.4 -2.5
v 6.3 5.4 -2.5
v 6.3 5.5 -2.5
v 6.3 5.5 -2.6
v 6.3 5.4 -2.6
v 6.2 5.4 -2.6
v 6.2 5.5 -2.6
v 6.4 5.5 -2.5
v 6.4 5.4 -2.5
v 6.4 5.4 -2.6
v 6.4 5.5 -2.6
v 6.3 5.4 -2.5
v 6.3 5.4 -2.6
v 6.4 5.4 -2.6
v 6.4 5.4 -2.5
v 6.3 5.5 -2.5
v 6.3 5.4 -2.5
v 6.4 5.4 -2.5
v 6.4 5.5 -2.5
v 6.4 5.5 -2.6
v 6.4 5.4 -2.6
v 6.3 5.4 -2.6
v 6.3 5.5 -2.6
v 4.3 5.4 -2.6
v 4.3 5.3 -2.6
v 4.3 5.3 -2.5
v 4.3 5.4 -2.5
v 4.3 5.3 -2.5
v 4.3 5.3 -2.6
v 4.4 5.3 -2.6
v 4.4 5.3 -2.5
v 4.3 5.4 -2.5
v 4.3 5.3 -2.5
v 4.4 5.3 -2.5
v 4.4 5.4 -2.5
v 4.4 5.4 -2.6
v 4.4 5.3 -2.6
v 4.3 5.3 -2.6
v 4.3 5.4 -2.6
v 4.4 5.4 -2.5
v 4.4 5.3 -2.5
v 4.5 5.3 -2.5
v 4.5 5.4 -2.5
v 4.5 5.4 -2.6
v 4.5 5.3 -2.6
v 4.4 5.3 -2.6
v 4.4 5.4 -2.6
v 4.5 5.4 -2.5
v 4.5 5.3 -2.5
v 4.6 5.3 -2.5
v 4.6 5.4 -2.5
v 4.6 5.4 -2.6
v 4.6 5.3 -2.6
v 4.5 5.3 -2.6
v 4.5 5.4 -2.6
v 4.6 5.4 -2.5
v 4.6 5.3 -2.5
v 4.7 5.3 -2.5
v 4.7 5.4 -2.5
v 4.7 5.4 -2.6
v 4.7 5.3 -2.6
v 4.6 5.3 -2.6
v 4.6 5.4 -2.6
v 4.7 5.4 -2.6
v 4.7 5.4 -2.5
v 4.8 5.4 -2.5
v 4.8 5.4 -2.6
v 4.7 5.4 -2.5
v 4.7 5.3 -2.5
v 4.8 5.3 -2.5
v 4.8 5.4 -2.5
v 4.8 5.4 -2.6
v 4.8 5.3 -2.6
v 4.7 5.3 -2.6
v 4.7 5.4 -2.6
v 4.8 5.4 -2.6
v 4.8 5.4 -2.5
v 4.9 5.4 -2.5
v 4.9 5.4 -2.6
v 4.8 5.4 -2.5
v 4.8 5.3 -2.5
v 4.9 5.3 -2.5
v 4.9 5.4 -2.5
v 4.9 5.4 -2.6
v 4.9 5.3 -2.6
v 4.8 5.3 -2.6
v 4.8 5.4 -2.6
v 4.9 5.4 -2.6
v 4.9 5.4 -2.5
v 5 5.4 -2.5
v 5 5.4 -2.6
v 4.9 5.4 -2.5
v 4.9 5.3 -2.5
v 5 5.3 -2.5
v 5 5.4 -2.5
v 5 5.4 -2.6
v 5 5.3 -2.6
v 4.9 5.3 -2.6
v 4.9 5.4 -2.6
v 5 5.4 -2.6
v 5 5.4 -2.5
v 5.1 5.4 -2.5
v 5.1 5.4 -2.6
v 5 5.4 -2.5
v 5 5.3 -2.5
v 5.1 5.3 -2.5
v 5.1 5.4 -2.5
v 5.1 5.4 -2.6
v 5.1 5.3 -2.6
v 5 5.3 -2.6
v 5 5.4 -2.6
v 5.1 5.4 -2.6
v 5.1 5.4 -2.5
v 5.2 5.4 -2.5
v 5.2 5.4 -2.6
v 5.1 5.4 -2.5
v 5.1 5.3 -2.5
v 5.2 5.3 -2.5
v 5.2 5.4 -2.5
v 5.2 5.4 -2.6
v 5.2 5.3 -2.6
v 5.1 5.3 -2.6
v 5.1 5.4 -2.6
v 5.2 5.4 -2.6
v 5.2 5.4 -2.5
v 5.3 5.4 -2.5
v 5.3 5.4 -2.6
v 5.2 5.4 -2.5
v 5.2 5.3 -2.5
v 5.3 5.3 -2.5
v 5.3 5.4 -2.5
v 5.3 5.4 -2.6
v 5.3 5.3 -2.6
v 5.2 5.3 -2.6
v 5.2 5.4 -2.6
v 5.3 5.4 -2.6
v 5.3 5.4 -2.5
v 5.4 5.4 -2.5
v 5.4 5.4 -2.6
v 5.3 5.4 -2.5
v 5.3 5.3 -2.5
v 5.4 5.3 -2.5
v 5.4 5.4 -2.5
v 5.4 5.4 -2.6
v 5.4 5.3 -2.6
v 5.3 5.3 -2.6
v 5.3 5.4 -2.6
v 5.4 5.4 -2.6
v 5.4 5.4 -2.5
v 5.5 5.4 -2.5
v 5.5 5.4 -2.6
v 5.4 5.4 -2.5
v 5.4 5.3 -2.5
v 5.5 5.3 -2.5
v 5.5 5.4 -2.5
v 5.5 5.4 -2.6
v 5.5 5.3 -2.6
v 5.4 5.3 -2.6
v 5.4 5.4 -2.6
v 5.5 5.4 -2.6
v 5.5 5.4 -2.5
v 5.6 5.4 -2.5
v 5.6 5.4 -2.6
v 5.5 5.4 -2.5
v 5.5 5.3 -2.5
v 5.6 5.3 -2.5
v 5.6 5.4 -2.5
v 5.6 5.4 -2.6
v 5.6 5.3 -2.6
v 5.5 5.3 -2.6
v 5.5 5.4 -2.6
v 5.6 5.4 -2.6
v 5.6 5.4 -2.5
v 5.7 5.4 -2.5
v 5.7 5.4 -2.6
v 5.6 5.4 -2.5
v 5.6 5.3 -2.5
v 5.7 5.3 -2.5
v 5.7 5.4 -2.5
v 5.7 5.4 -2.6
v 5.7 5.3 -2.6
v 5.6 5.3 -2.6
v 5.6 5.4 -2.6
v 5.7 5.4 -2.5
v 5.7 5.3 -2.5
v 5.8 5.3 -2.5
v 5.8 5.4 -2.5
v 5.8 5.4 -2.6
v 5.8 5.3 -2.6
v 5.7 5.3 -2.6
v 5.7 5.4 -2.6
v 5.8 5.4 -2.5
v 5.8 5.3 -2.5
v 5.9 5.3 -2.5
v 5.9 5.4 -2.5
v 5.9 5.4 -2.6
v 5.9 5.3 -2.6
v 5.8 5.3 -2.6
v 5.8 5.4 -2.6
v 5.9 5.4 -2.5
v 5.9 5.3 -2.5
v 6 5.3 -2.5
v 6 5.4 -2.5
v 6 5.4 -2.6
v 6 5.3 -2.6
v 5.9 5.3 -2.6
v 5.9 5.4 -2.6
v 6 5.3 -2.5
v 6 5.3 -2.6
v 6.1 5.3 -2.6
v 6.1 5.3 -2.5
v 6 5.4 -2.5
v 6 5.3 -2.5
v 6.1 5.3 -2.5
v 6.1 5.4 -2.5
v 6.1 5.4 -2.6
v 6.1 5.3 -2.6
v 6 5.3 -2.6
v 6 5.4 -2.6
v 6.2 5.4 -2.5
v 6.2 5.3 -2.5
v 6.2 5.3 -2.6
v 6.2 5.4 -2.6
v 6.1 5.3 -2.5
v 6.1 5.3 -2.6
v 6.2 5.3 -2.6
v 6.2 5.3 -2.5
v 6.1 5.4 -2.5
v 6.1 5.3 -2.5
v 6.2 5.3 -2.5
v 6.2 5.4 -2.5
v 6.2 5.4 -2.6
v 6.2 5.3 -2.6
v 6.1 5.3 -2.6
v 6.1 5.4 -2.6
v 4.4 5.3 -2.6
v 4.4 5.2 -2.6
v 4.4 5.2 -2.5
v 4.4 5.3 -2.5
v 4.4 5.3 -2.5
v 4.4 5.2 -2.5
v 4.5 5.2 -2.5
v 4.5 5.3 -2.5
v 4.5 5.3 -2.6
v 4.5 5.2 -2.6
v 4.4 5.2 -2.6
v 4.4 5.3 -2.6
v 4.5 5.3 -2.5
v 4.5 5.2 -2.5
v 4.6 5.2 -2.5
v 4.6 5.3 -2.5
v 4.6 5.3 -2.6
v 4.6 5.2 -2.6
v 4.5 5.2 -2.6
v 4.5 5.3 -2.6
v 4.6 5.3 -2.5
v 4.6 5.2 -2.5
v 4.7 5.2 -2.5
v 4.7 5.3 -2.5
v 4.7 5.3 -2.6
v 4.7 5.2 -2.6
v 4.6 5.2 -2.6
v 4.6 5.3 -2.6
v 4.7 5.3 -2.5
v 4.7 5.2 -2.5
v 4.8 5.2 -2.5
v 4.8 5.3 -2.5
v 4.8 5.3 -2.6
v 4.8 5.2 -2.6
v 4.7 5.2 -2.6
v 4.7 5.3 -2.6
v 4.8 5.3 -2.5
v 4.8 5.2 -2.5
v 4.9 5.2 -2.5
v 4.9 5.3 -2.5
v 4.9 5.3 -2.6
v 4.9 5.2 -2.6
v 4.8 5.2 -2.6
v 4.8 5.3 -2.6
v 4.9 5.3 -2.5
v 4.9 5.2 -2.5
v 5 5.2 -2.5
v 5 5.3 -2.5
v 5 5.3 -2.6
v 5 5.2 -2.6
v 4.9 5.2 -2.6
v 4.9 5.3 -2.6
v 5 5.3 -2.5
v 5 5.2 -2.5
v 5.1 5.2 -2.5
v 5.1 5.3 -2.5
v 5.1 5.3 -2.6
v 5.1 5.2 -2.6
v 5 5.2 -2.6
v 5 5.3 -2.6
v 5.1 5.3 -2.5
v 5.1 5.2 -2.5
v 5.2 5.2 -2.5
v 5.2 5.3 -2.5
v 5.2 5.3 -2.6
v 5.2 5.2 -2.6
v 5.1 5.2 -2.6
v 5.1 5.3 -2.6
v 5.2 5.3 -2.5
v 5.2 5.2 -2.5
v 5.3 5.2 -2.5
v 5.3 5.3 -2.5
v 5.3 5.3 -2.6
v 5.3 5.2 -2.6
v 5.2 5.2 -2.6
v 5.2 5.3 -2.6
v 5.3 5.3 -2.5
v 5.3 5.2 -2.5
v 5.4 5.2 -2.5
v 5.4 5.3 -2.5
v 5.4 5.3 -2.6
v 5.4 5.2 -2.6
v 5.3 5.2 -2.6
v 5.3 5.3 -2.6
v 5.4 5.3 -2.5
v 5.4 5.2 -2.5
v 5.5 5.2 -2.5
v 5.5 5.3 -2.5
v 5.5 5.3 -2.6
v 5.5 5.2 -2.6
v 5.4 5.2 -2.6
v 5.4 5.3 -2.6
v 5.5 5.3 -2.5
v 5.5 5.2 -2.5
v 5.6 5.2 -2.5
v 5.6 5.3 -2.5
v 5.6 5.3 -2.6
v 5.6 5.2 -2.6
v 5.5 5.2 -2.6
v 5.5 5.3 -2.6
v 5.6 5.3 -2.5
v 5.6 5.2 -2.5
v 5.7 5.2 -2.5
v 5.7 5.3 -2.5
v 5.7 5.3 -2.6
v 5.7 5.2 -2.6
v 5.6 5.2 -2.6
v 5.6 5.3 -2.6
v 5.7 5.3 -2.5
v 5.7 5.2 -2.5
v 5.8 5.2 -2.5
v 5.8 5.3 -2.5
v 5.8 5.3 -2.6
v 5.8 5.2 -2.6
v 5.7 5.2 -2.6
v 5.7 5.3 -2.6
v 5.8 5.2 -2.5
v 5.8 5.2 -2.6
v 5.9 5.2 -2.6
v 5.9 5.2 -2.5
v 5.8 5.3 -2.5
v 5.8 5.2 -2.5
v 5.9 5.2 -2.5
v 5.9 5.3 -2.5
v 5.9 5.3 -2.6
v 5.9 5.2 -2.6
v 5.8 5.2 -2.6
v 5.8 5.3 -2.6
v 6 5.3 -2.5
v 6 5.2 -2.5
v 6 5.2 -2.6
v 6 5.3 -2.6
v 5.9 5.2 -2.5
v 5.9 5.2 -2.6
v 6 5.2 -2.6
v 6 5.2 -2.5
v 5.9 5.3 -2.5
v 5.9 5.2 -2.5
v 6 5.2 -2.5
v 6 5.3 -2.5
v 6 5.3 -2.6
v 6 5.2 -2.6
v 5.9 5.2 -2.6
v 5.9 5.3 -2.6
v 4.4 5.2 -2.6
v 4.4 5.1 -2.6
v 4.4 5.1 -2.5
v 4.4 5.2 -2.5
v 4.4 5.1 -2.5
v 4.4 5.1 -2.6
v 4.5 5.1 -2.6
v 4.5 5.1 -2.5
v 4.4 5.2 -2.5
v 4.4 5.1 -2.5
v 4.5 5.1 -2.5
v 4.5 5.2 -2.5
v 4.5 5.2 -2.6
v 4.5 5.1 -2.6
v 4.4 5.1 -2.6
v 4.4 5.2 -2.6
v 4.5 5.2 -2.5
v 4.5 5.1 -2.5
v 4.6 5.1 -2.5
v 4.6 5.2 -2.5
v 4.6 5.2 -2.6
v 4.6 5.1 -2.6
v 4.5 5.1 -2.6
v 4.5 5.2 -2.6
v 4.6 5.2 -2.5
v 4.6 5.1 -2.5
v 4.7 5.1 -2.5
v 4.7 5.2 -2.5
v 4.7 5.2 -2.6
v 4.7 5.1 -2.6
v 4.6 5.1 -2.6
v 4.6 5.2 -2.6
v 4.7 5.2 -2.5
v 4.7 5.1 -2.5
v 4.8 5.1 -2.5
v 4.8 5.2 -2.5
v 4.8 5.2 -2.6
v 4.8 5.1 -2.6
v 4.7 5.1 -2.6
v 4.7 5.2 -2.6
v 4.8 5.2 -2.5
v 4.8 5.1 -2.5
v 4.9 5.1 -2.5
v 4.9 5.2 -2.5
v 4.9 5.2 -2.6
v 4.9 5.1 -2.6
v 4.8 5.1 -2.6
v 4.8 5.2 -2.6
v 4.9 5.2 -2.5
v 4.9 5.1 -2.5
v 5 5.1 -2.5
v 5 5.2 -2.5
v 5 5.2 -2.6
v 5 5.1 -2.6
v 4.9 5.1 -2.6
v 4.9 5.2 -2.6
v 5 5.2 -2.5
v 5 5.1 -2.5
v 5.1 5.1 -2.5
v 5.1 5.2 -2.5
v 5.1 5.2 -2.6
v 5.1 5.1 -2.6
v 5 5.1 -2.6
v 5 5.2 -2.6
v 5.1 5.2 -2.5
v 5.1 5.1 -2.5
v 5.2 5.1 -2.5
v 5.2 5.2 -2.5
v 5.2 5.2 -2.6
v 5.2 5.1 -2.6
v 5.1 5.1 -2.6
v 5.1 5.2 -2.6
v 5.2 5.2 -2.5
v 5.2 5.1 -2.5
v 5.3 5.1 -2.5
v 5.3 5.2 -2.5
v 5.3 5.2 -2.6
v 5.3 5.1 -2.6
v 5.2 5.1 -2.6
v 5.2 5.2 -2.6
v 5.3 5.2 -2.5
v 5.3 5.1 -2.5
v 5.4 5.1 -2.5
v 5.4 5.2 -2.5
v 5.4 5.2 -2.6
v 5.4 5.1 -2.6
v 5.3 5.1 -2.6
v 5.3 5.2 -2.6
v 5.4 5.2 -2.5
v 5.4 5.1 -2.5
v 5.5 5.1 -2.5
v 5.5 5.2 -2.5
v 5.5 5.2 -2.6
v 5.5 5.1 -2.6
v 5.4 5.1 -2.6
v 5.4 5.2 -2.6
v 5.5 5.2 -2.5
v 5.5 5.1 -2.5
v 5.6 5.1 -2.5
v 5.6 5.2 -2.5
v 5.6 5.2 -2.6
v 5.6 5.1 -2.6
v 5.5 5.1 -2.6
v 5.5 5.2 -2.6
v 5.6 5.1 -2.5
v 5.6 5.1 -2.6
v 5.7 5.1 -2.6
v 5.7 5.1 -2.5
v 5.6 5.2 -2.5
v 5.6 5.1 -2.5
v 5.7 5.1 -2.5
v 5.7 5.2 -2.5
v 5.7 5.2 -2.6
v 5.7 5.1 -2.6
v 5.6 5.1 -2.6
v 5.6 5.2 -2.6
v 5.8 5.2 -2.5
v 5.8 5.1 -2.5
v 5.8 5.1 -2.6
v 5.8 5.2 -2.6
v 5.7 5.1 -2.5
v 5.7 5.1 -2.6
v 5.8 5.1 -2.6
v 5.8 5.1 -2.5
v 5.7 5.2 -2.5
v 5.7 5.1 -2.5
v 5.8 5.1 -2.5
v 5.8 5.2 -2.5
v 5.8 5.2 -2.6
v 5.8 5.1 -2.6
v 5.7 5.1 -2.6
v 5.7 5.2 -2.6
v 4.5 5.1 -2.6
v 4.5 5 -2.6
v 4.5 5 -2.5
v 4.5 5.1 -2.5
v 4.5 5 -2.5
v 4.5 5 -2.6
v 4.6 5 -2.6
v 4.6 5 -2.5
v 4.5 5.1 -2.5
v 4.5 5 -2.5
v 4.6 5 -2.5
v 4.6 5.1 -2.5
v 4.6 5.1 -2.6
v 4.6 5 -2.6
v 4.5 5 -2.6
v 4.5 5.1 -2.6
v 4.6 5.1 -2.5
v 4.6 5 -2.5
v 4.7 5 -2.5
v 4.7 5.1 -2.5
v 4.7 5.1 -2.6
v 4.7 5 -2.6
v 4.6 5 -2.6
v 4.6 5.1 -2.6
v 4.7 5.1 -2.5
v 4.7 5 -2.5
v 4.8 5 -2.5
v 4.8 5.1 -2.5
v 4.8 5.1 -2.6
v 4.8 5 -2.6
v 4.7 5 -2.6
v 4.7 5.1 -2.6
v 4.8 5.1 -2.5
v 4.8 5 -2.5
v 4.9 5 -2.5
v 4.9 5.1 -2.5
v 4.9 5.1 -2.6
v 4.9 5 -2.6
v 4.8 5 -2.6
v 4.8 5.1 -2.6
v 4.9 5.1 -2.5
v 4.9 5 -2.5
v 5 5 -2.5
v 5 5.1 -2.5
v 5 5.1 -2.6
v 5 5 -2.6
v 4.9 5 -2.6
v 4.9 5.1 -2.6
v 5 5.1 -2.5
v 5 5 -2.5
v 5.1 5 -2.5
v 5.1 5.1 -2.5
v 5.1 5.1 -2.6
v 5.1 5 -2.6
v 5 5 -2.6
v 5 5.1 -2.6
v 5.1 5.1 -2.5
v 5.1 5 -2.5
v 5.2 5 -2.5
v 5.2 5.1 -2.5
v 5.2 5.1 -2.6
v 5.2 5 -2.6
v 5.1 5 -2.6
v 5.1 5.1 -2.6
v 5.2 5.1 -2.5
v 5.2 5 -2.5
v 5.3 5 -2.5
v 5.3 5.1 -2.5
v 5.3 5.1 -2.6
v 5.3 5 -2.6
v 5.2 5 -2.6
v 5.2 5.1 -2.6
v 5.3 5.1 -2.5
v 5.3 5 -2.5
v 5.4 5 -2.5
v 5.4 5.1 -2.5
v 5.4 5.1 -2.6
v 5.4 5 -2.6
v 5.3 5 -2.6
v 5.3 5.1 -2.6
v 5.4 5 -2.5
v 5.4 5 -2.6
v 5.5 5 -2.6
v 5.5 5 -2.5
v 5.4 5.1 -2.5
v 5.4 5 -2.5
v 5.5 5 -2.5
v 5.5 5.1 -2.5
v 5.5 5.1 -2.6
v 5.5 5 -2.6
v 5.4 5 -2.6
v 5.4 5.1 -2.6
v 5.6 5.1 -2.5
v 5.6 5 -2.5
v 5.6 5 -2.6
v 5.6 5.1 -2.6
v 5.5 5 -2.5
v 5.5 5 -2.6
v 5.6 5 -2.6
v 5.6 5 -2.5
v 5.5 5.1 -2.5
v 5.5 5 -2.5
v 5.6 5 -2.5
v 5.6 5.1 -2.5
v 5.6 5.1 -2.6
v 5.6 5 -2.6
v 5.5 5 -2.6
v 5.5 5.1 -2.6
v 4.6 5 -2.6
v 4.6 4.9 -2.6
v 4.6 4.9 -2.5
v 4.6 5 -2.5
v 4.6 5 -2.5
v 4.6 4.9 -2.5
v 4.7 4.9 -2.5
v 4.7 5 -2.5
v 4.7 5 -2.6
v 4.7 4.9 -2.6
v 4.6 4.9 -2.6
v 4.6 5 -2.6
v 4.7 5 -2.5
v 4.7 4.9 -2.5
v 4.8 4.9 -2.5
v 4.8 5 -2.5
v 4.8 5 -2.6
v 4.8 4.9 -2.6
v 4.7 4.9 -2.6
v 4.7 5 -2.6
v 4.8 5 -2.5
v 4.8 4.9 -2.5
v 4.9 4.9 -2.5
v 4.9 5 -2.5
v 4.9 5 -2.6
v 4.9 4.9 -2.6
v 4.8 4.9 -2.6
v 4.8 5 -2.6
v 4.9 5 -2.5
v 4.9 4.9 -2.5
v 5 4.9 -2.5
v 5 5 -2.5
v 5 5 -2.6
v 5 4.9 -2.6
v 4.9 4.9 -2.6
v 4.9 5 -2.6
v 5 5 -2.5
v 5 4.9 -2.5
v 5.1 4.9 -2.5
v 5.1 5 -2.5
v 5.1 5 -2.6
v 5.1 4.9 -2.6
v 5 4.9 -2.6
v 5 5 -2.6
v 5.1 5 -2.5
v 5.1 4.9 -2.5
v 5.2 4.9 -2.5
v 5.2 5 -2.5
v 5.2 5 -2.6
v 5.2 4.9 -2.6
v 5.1 4.9 -2.6
v 5.1 5 -2.6
v 5.2 5 -2.5
v 5.2 4.9 -2.5
v 5.3 4.9 -2.5
v 5.3 5 -2.5
v 5.3 5 -2.6
v 5.3 4.9 -2.6
v 5.2 4.9 -2.6
v 5.2 5 -2.6
v 5.4 5 -2.5
v 5.4 4.9 -2.5
v 5.4 4.9 -2.6
v 5.4 5 -2.6
v 5.3 4.9 -2.5
v 5.3 4.9 -2.6
v 5.4 4.9 -2.6
v 5.4 4.9 -2.5
v 5.3 5 -2.5
v 5.3 4.9 -2.5
v 5.4 4.9 -2.5
v 5.4 5 -2.5
v 5.4 5 -2.6
v 5.4 4.9 -2.6
v 5.3 4.9 -2.6
v 5.3 5 -2.6
v 4.6 4.9 -2.6
v 4.6 4.8 -2.6
v 4.6 4.8 -2.5
v 4.6 4.9 -2.5
v 4.6 4.8 -2.5
v 4.6 4.8 -2.6
v 4.7 4.8 -2.6
v 4.7 4.8 -2.5
v 4.6 4.9 -2.5
v 4.6 4.8 -2.5
v 4.7 4.8 -2.5
v 4.7 4.9 -2.5
v 4.7 4.9 -2.6
v 4.7 4.8 -2.6
v 4.6 4.8 -2.6
v 4.6 4.9 -2.6
v 4.7 4.9 -2.5
v 4.7 4.8 -2.5
v 4.8 4.8 -2.5
v 4.8 4.9 -2.5
v 4.8 4.9 -2.6
v 4.8 4.8 -2.6
v 4.7 4.8 -2.6
v 4.7 4.9 -2.6
v 4.8 4.9 -2.5
v 4.8 4.8 -2.5
v 4.9 4.8 -2.5
v 4.9 4.9 -2.5
v 4.9 4.9 -2.6
v 4.9 4.8 -2.6
v 4.8 4.8 -2.6
v 4.8 4.9 -2.6
v 4.9 4.9 -2.5
v 4.9 4.8 -2.5
v 5 4.8 -2.5
v 5 4.9 -2.5
v 5 4.9 -2.6
v 5 4.8 -2.6
v 4.9 4.8 -2.6
v 4.9 4.9 -2.6
v 5 4.9 -2.5
v 5 4.8 -2.5
v 5.1 4.8 -2.5
v 5.1 4.9 -2.5
v 5.1 4.9 -2.6
v 5.1 4.8 -2.6
v 5 4.8 -2.6
v 5 4.9 -2.6
v 5.1 4.9 -2.5
v 5.1 4.8 -2.5
v 5.2 4.8 -2.5
v 5.2 4.9 -2.5
v 5.2 4.9 -2.6
v 5.2 4.8 -2.6
v 5.1 4.8 -2.6
v 5.1 4.9 -2.6
v 5.3 4.9 -2.5
v 5.3 4.8 -2.5
v 5.3 4.8 -2.6
v 5.3 4.9 -2.6
v 5.2 4.8 -2.5
v 5.2 4.8 -2.6
v 5.3 4.8 -2.6
v 5.3 4.8 -2.5
v 5.2 4.9 -2.5
v 5.2 4.8 -2.5
v 5.3 4.8 -2.5
v 5.3 4.9 -2.5
v 5.3 4.9 -2.6
v 5.3 4.8 -2.6
v 5.2 4.8 -2.6
v 5.2 4.9 -2.6
v 4.7 4.8 -2.6
v 4.7 4.7 -2.6
v 4.7 4.7 -2.5
v 4.7 4.8 -2.5
v 4.7 4.7 -2.5
v 4.7 4.7 -2.6
v 4.8 4.7 -2.6
v 4.8 4.7 -2.5
v 4.7 4.8 -2.5
v 4.7 4.7 -2.5
v 4.8 4.7 -2.5
v 4.8 4.8 -2.5
v 4.8 4.8 -2.6
v 4.8 4.7 -2.6
v 4.7 4.7 -2.6
v 4.7 4.8 -2.6
v 4.8 4.8 -2.5
v 4.8 4.7 -2.5
v 4.9 4.7 -2.5
v 4.9 4.8 -2.5
v 4.9 4.8 -2.6
v 4.9 4.7 -2.6
v 4.8 4.7 -2.6
v 4.8 4.8 -2.6
v 4.9 4.8 -2.5
v 4.9 4.7 -2.5
v 5 4.7 -2.5
v 5 4.8 -2.5
v 5 4.8 -2.6
v 5 4.7 -2.6
v 4.9 4.7 -2.6
v 4.9 4.8 -2.6
v 5 4.8 -2.5
v 5 4.7 -2.5
v 5.1 4.7 -2.5
v 5.1 4.8 -2.5
v 5.1 4.8 -2.6
v 5.1 4.7 -2.6
v 5 4.7 -2.6
v 5 4.8 -2.6
v 5.2 4.8 -2.5
v 5.2 4.7 -2.5
v 5.2 4.7 -2.6
v 5.2 4.8 -2.6
v 5.1 4.7 -2.5
v 5.1 4.7 -2.6
v 5.2 4.7 -2.6
v 5.2 4.7 -2.5
v 5.1 4.8 -2.5
v 5.1 4.7 -2.5
v 5.2 4.7 -2.5
v 5.2 4.8 -2.5
v 5.2 4.8 -2.6
v 5.2 4.7 -2.6
v 5.1 4.7 -2.6
v 5.1 4.8 -2.6
v 4.8 4.7 -2.6
v 4.8 4.6 -2.6
v 4.8 4.6 -2.5
v 4.8 4.7 -2.5
v 4.8 4.7 -2.5
v 4.8 4.6 -2.5
v 4.9 4.6 -2.5
v 4.9 4.7 -2.5
v 4.9 4.7 -2.6
v 4.9 4.6 -2.6
v 4.8 4.6 -2.6
v 4.8 4.7 -2.6
v 4.9 4.7 -2.5
v 4.9 4.6 -2.5
v 5 4.6 -2.5
v 5 4.7 -2.5
v 5 4.7 -2.6
v 5 4.6 -2.6
v 4.9 4.6 -2.6
v 4.9 4.7 -2.6
v 5.1 4.7 -2.5
v 5.1 4.6 -2.5
v 5.1 4.6 -2.6
v 5.1 4.7 -2.6
v 5 4.7 -2.5
v 5 4.6 -2.5
v 5.1 4.6 -2.5
v 5.1 4.7 -2.5
v 5.1 4.7 -2.6
v 5.1 4.6 -2.6
v 5 4.6 -2.6
v 5 4.7 -2.6
v 4.8 4.6 -2.6
v 4.8 4.5 -2.6
v 4.8 4.5 -2.5
v 4.8 4.6 -2.5
v 4.8 4.5 -2.5
v 4.8 4.5 -2.6
v 4.9 4.5 -2.6
v 4.9 4.5 -2.5
v 4.8 4.6 -2.5
v 4.8 4.5 -2.5
v 4.9 4.5 -2.5
v 4.9 4.6 -2.5
v 4.9 4.6 -2.6
v 4.9 4.5 -2.6
v 4.8 4.5 -2.6
v 4.8 4.6 -2.6
v 4.9 4.6 -2.5
v 4.9 4.5 -2.5
v 5 4.5 -2.5
v 5 4.6 -2.5
v 5 4.6 -2.6
v 5 4.5 -2.6
v 4.9 4.5 -2.6
v 4.9 4.6 -2.6
v 5.1 4.6 -2.5
v 5.1 4.5 -2.5
v 5.1 4.5 -2.6
v 5.1 4.6 -2.6
v 5 4.5 -2.5
v 5 4.5 -2.6
v 5.1 4.5 -2.6
v 5.1 4.5 -2.5
v 5 4.6 -2.5
v 5 4.5 -2.5
v 5.1 4.5 -2.5
v 5.1 4.6 -2.5
v 5.1 4.6 -2.6
v 5.1 4.5 -2.6
v 5 4.5 -2.6
v 5 4.6 -2.6
v 4.9 4.5 -2.6
v 4.9 4.4 -2.6
v 4.9 4.4 -2.5
v 4.9 4.5 -2.5
v 5 4.5 -2.5
v 5 4.4 -2.5
v 5 4.4 -2.6
v 5 4.5 -2.6
v 4.9 4.4 -2.5
v 4.9 4.4 -2.6
v 5 4.4 -2.6
v 5 4.4 -2.5
v 4.9 4.5 -2.5
v 4.9 4.4 -2.5
v 5 4.4 -2.5
v 5 4.5 -2.5
v 5 4.5 -2.6
v 5 4.4 -2.6
v 4.9 4.4 -2.6
v 4.9 4.5 -2.6

# faces
f 1/5/1 2/5/1 3/5/1 4/5/1
f 5/5/2 6/5/2 7/5/2 8/5/2
f 9/5/3 10/5/3 11/5/3 12/5/3
f 13/5/4 14/5/4 15/5/4 16/5/4
f 17/5/5 18/5/5 19/5/5 20/5/5
f 21/5/6 22/5/6 23/5/6 24/5/6
f 25/8/1 26/8/1 27/8/1 28/8/1
f 29/8/2 30/8/2 31/8/2 32/8/2
f 33/8/3 34/8/3 35/8/3 36/8/3
f 37/8/5 38/8/5 39/8/5 40/8/5
f 41/8/6 42/8/6 43/8/6 44/8/6
f 45/4/1 46/4/1 47/4/1 48/4/1
f 49/4/2 50/4/2 51/4/2 52/4/2
f 53/4/3 54/4/3 55/4/3 56/4/3
f 57/4/4 58/4/4 59/4/4 60/4/4
f 61/4/5 62/4/5 63/4/5 64/4/5
f 65/4/6 66/4/6 67/4/6 68/4/6
f 69/1/1 70/1/1 71/1/1 72/1/1
f 73/1/4 74/1/4 75/1/4 76/1/4
f 77/1/5 78/1/5 79/1/5 80/1/5
f 81/1/6 82/1/6 83/1/6 84/1/6
f 85/2/2 86/2/2 87/2/2 88/2/2
f 89/2/3 90/2/3 91/2/3 92/2/3
f 93/2/5 94/2/5 95/2/5 96/2/5
f 97/2/6 98/2/6 99/2/6 100/2/6
f 101/4/1 102/4/1 103/4/1 104/4/1
f 105/4/3 106/4/3 107/4/3 108/4/3
f 109/4/4 110/4/4 111/4/4 112/4/4
f 113/4/5 114/4/5 115/4/5 116/4/5
f 117/4/6 118/4/6 119/4/6 120/4/6
f 121/4/2 122/4/2 123/4/2 124/4/2
f 125/4/3 126/4/3 127/4/3 128/4/3
f 129/4/4 130/4/4 131/4/4 132/4/4
f 133/4/5 134/4/5 135/4/5 136/4/5
f 137/4/6 138/4/6 139/4/6 140/4/6
f 141/6/1 142/6/1 143/6/1 144/6/1
f 145/6/4 146/6/4 147/6/4 148/6/4
f 149/6/5 150/6/5 151/6/5 152/6/5
f 153/6/6 154/6/6 155/6/6 156/6/6
f 157/3/2 158/3/2 159/3/2 160/3/2
f 161/3/3 162/3/3 163/3/3 164/3/3
f 165/3/5 166/3/5 167/3/5 168/3/5
f 169/3/6 170/3/6 171/3/6 172/3/6
f 173/4/1 174/4/1 175/4/1 176/4/1
f 177/4/3 178/4/3 179/4/3 180/4/3
f 181/4/5 182/4/5 183/4/5 184/4/5
f 185/4/6 186/4/6 187/4/6 188/4/6
f 189/4/3 190/4/3 191/4/3 192/4/3
f 193/4/4 194/4/4 195/4/4 196/4/4
f 197/4/5 198/4/5 199/4/5 200/4/5
f 201/4/6 202/4/6 203/4/6 204/4/6
f 205/4/2 206/4/2 207/4/2 208/4/2
f 209/4/3 210/4/3 211/4/3 212/4/3
f 213/4/4 214/4/4 215/4/4 216/4/4
f 217/4/5 218/4/5 219/4/5 220/4/5
f 221/4/6 222/4/6 223/4/6 224/4/6
f 225/7/1 226/7/1 227/7/1 228/7/1
f 229/7/5 230/7/5 231/7/5 232/7/5
f 233/7/6 234/7/6 235/7/6 236/7/6
f 237/4/2 238/4/2 239/4/2 240/4/2
f 241/4/3 242/4/3 243/4/3 244/4/3
f 245/4/5 246/4/5 247/4/5 248/4/5
f 249/4/6 250/4/6 251/4/6 252/4/6
f 253/4/1 254/4/1 255/4/1 256/4/1
f 257/4/3 258/4/3 259/4/3 260/4/3
f 261/4/5 262/4/5 263/4/5 264/4/5
f 265/4/6 266/4/6 267/4/6 268/4/6
f 269/4/3 270/4/3 271/4/3 272/4/3
f 273/4/5 274/4/5 275/4/5 276/4/5
f 277/4/6 278/4/6 279/4/6 280/4/6
f 281/4/3 282/4/3 283/4/3 284/4/3
f 285/4/4 286/4/4 287/4/4 288/4/4
f 289/4/5 290/4/5 291/4/5 292/4/5
f 293/4/6 294/4/6 295/4/6 296/4/6
f 297/9/2 298/9/2 299/9/2 300/9/2
f 301/9/4 302/9/4 303/9/4 304/9/4
f 305/9/5 306/9/5 307/9/5 308/9/5
f 309/9/6 310/9/6 311/9/6 312/9/6
f 313/4/1 314/4/1 315/4/1 316/4/1
f 317/4/4 318/4/4 319/4/4 320/4/4
f 321/4/5 322/4/5 323/4/5 324/4/5
f 325/4/6 326/4/6 327/4/6 328/4/6
f 329/9/5 330/9/5 331/9/5 332/9/5
f 333/9/6 334/9/6 335/9/6 336/9/6
f 337/4/3 338/4/3 339/4/3 340/4/3
f 341/4/5 342/4/5 343/4/5 344/4/5
f 345/4/6 346/4/6 347/4/6 348/4/6
f 349/4/3 350/4/3 351/4/3 352/4/3
f 353/4/5 354/4/5 355/4/5 356/4/5
f 357/4/6 358/4/6 359/4/6 360/4/6
f 361/4/2 362/4/2 363/4/2 364/4/2
f 365/4/3 366/4/3 367/4/3 368/4/3
f 369/4/5 370/4/5 371/4/5 372/4/5
f 373/4/6 374/4/6 375/4/6 376/4/6
f 377/4/1 378/4/1 379/4/1 380/4/1
f 381/4/3 382/4/3 383/4/3 384/4/3
f 385/4/5 386/4/5 387/4/5 388/4/5
f 389/4/6 390/4/6 391/4/6 392/4/6
f 393/4/3 394/4/3 395/4/3 396/4/3
f 397/4/5 398/4/5 399/4/5 400/4/5
f 401/4/6 402/4/6 403/4/6 404/4/6
f 405/4/3 406/4/3 407/4/3 408/4/3
f 409/4/5 410/4/5 411/4/5 412/4/5
f 413/4/6 414/4/6 415/4/6 416/4/6
f 417/4/3 418/4/3 419/4/3 420/4/3
f 421/4/5 422/4/5 423/4/5 424/4/5
f 425/4/6 426/4/6 427/4/6 428/4/6
f 429/4/3 430/4/3 431/4/3 432/4/3
f 433/4/5 434/4/5 435/4/5 436/4/5
f 437/4/6 438/4/6 439/4/6 440/4/6
f 441/9/4 442/9/4 443/9/4 444/9/4
f 445/9/5 446/9/5 447/9/5 448/9/5
f 449/9/6 450/9/6 451/9/6 452/9/6
f 453/9/2 454/9/2 455/9/2 456/9/2
f 457/9/4 458/9/4 459/9/4 460/9/4
f 461/9/5 462/9/5 463/9/5 464/9/5
f 465/9/6 466/9/6 467/9/6 468/9/6
f 469/4/1 470/4/1 471/4/1 472/4/1
f 473/4/4 474/4/4 475/4/4 476/4/4
f 477/4/5 478/4/5 479/4/5 480/4/5
f 481/4/6 482/4/6 483/4/6 484/4/6
f 485/9/5 486/9/5 487/9/5 488/9/5
f 489/9/6 490/9/6 491/9/6 492/9/6
f 493/9/5 494/9/5 495/9/5 496/9/5
f 497/9/6 498/9/6 499/9/6 500/9/6
f 501/9/5 502/9/5 503/9/5 504/9/5
f 505/9/6 506/9/6 507/9/6 508/9/6
f 509/4/3 510/4/3 511/4/3 512/4/3
f 513/4/5 514/4/5 515/4/5 516/4/5
f 517/4/6 518/4/6 519/4/6 520/4/6
f 521/4/3 522/4/3 523/4/3 524/4/3
f 525/4/5 526/4/5 527/4/5 528/4/5
f 529/4/6 530/4/6 531/4/6 532/4/6
f 533/4/3 534/4/3 535/4/3 536/4/3
f 537/4/5 538/4/5 539/4/5 540/4/5
f 541/4/6 542/4/6 543/4/6 544/4/6
f 545/4/3 546/4/3 547/4/3 548/4/3
f 549/4/5 550/4/5 551/4/5 552/4/5
f 553/4/6 554/4/6 555/4/6 556/4/6
f 557/4/3 558/4/3 559/4/3 560/4/3
f 561/4/5 562/4/5 563/4/5 564/4/5
f 565/4/6 566/4/6 567/4/6 568/4/6
f 569/4/3 570/4/3 571/4/3 572/4/3
f 573/4/5 574/4/5 575/4/5 576/4/5
f 577/4/6 578/4/6 579/4/6 580/4/6
f 581/4/3 582/4/3 583/4/3 584/4/3
f 585/4/5 586/4/5 587/4/5 588/4/5
f 589/4/6 590/4/6 591/4/6 592/4/6
f 593/4/3 594/4/3 595/4/3 596/4/3
f 597/4/5 598/4/5 599/4/5 600/4/5
f 601/4/6 602/4/6 603/4/6 604/4/6
f 605/4/3 606/4/3 607/4/3 608/4/3
f 609/4/5 610/4/5 611/4/5 612/4/5
f 613/4/6 614/4/6 615/4/6 616/4/6
f 617/4/3 618/4/3 619/4/3 620/4/3
f 621/4/5 622/4/5 623/4/5 624/4/5
f 625/4/6 626/4/6 627/4/6 628/4/6
f 629/9/5 630/9/5 631/9/5 632/9/5
f 633/9/6 634/9/6 635/9/6 636/9/6
f 637/9/5 638/9/5 639/9/5 640/9/5
f 641/9/6 642/9/6 643/9/6 644/9/6
f 645/9/5 646/9/5 647/9/5 648/9/5
f 649/9/6 650/9/6 651/9/6 652/9/6
f 653/9/4 654/9/4 655/9/4 656/9/4
f 657/9/5 658/9/5 659/9/5 660/9/5
f 661/9/6 662/9/6 663/9/6 664/9/6
f 665/9/2 666/9/2 667/9/2 668/9/2
f 669/9/4 670/9/4 671/9/4 672/9/4
f 673/9/5 674/9/5 675/9/5 676/9/5
f 677/9/6 678/9/6 679/9/6 680/9/6
f 681/4/1 682/4/1 683/4/1 684/4/1
f 685/4/5 686/4/5 687/4/5 688/4/5
f 689/4/6 690/4/6 691/4/6 692/4/6
f 693/9/5 694/9/5 695/9/5 696/9/5
f 697/9/6 698/9/6 699/9/6 700/9/6
f 701/10/5 702/10/5 703/10/5 704/10/5
f 705/10/6 706/10/6 707/10/6 708/10/6
f 709/9/5 710/9/5 711/9/5 712/9/5
f 713/9/6 714/9/6 715/9/6 716/9/6
f 717/9/5 718/9/5 719/9/5 720/9/5
f 721/9/6 722/9/6 723/9/6 724/9/6
f 725/9/5 726/9/5 727/9/5 728/9/5
f 729/9/6 730/9/6 731/9/6 732/9/6
f 733/9/5 734/9/5 735/9/5 736/9/5
f 737/9/6 738/9/6 739/9/6 740/9/6
f 741/9/5 742/9/5 743/9/5 744/9/5
f 745/9/6 746/9/6 747/9/6 748/9/6
f 749/9/5 750/9/5 751/9/5 752/9/5
f 753/9/6 754/9/6 755/9/6 756/9/6
f 757/9/5 758/9/5 759/9/5 760/9/5
f 761/9/6 762/9/6 763/9/6 764/9/6
f 765/9/5 766/9/5 767/9/5 768/9/5
f 769/9/6 770/9/6 771/9/6 772/9/6
f 773/9/5 774/9/5 775/9/5 776/9/5
f 777/9/6 778/9/6 779/9/6 780/9/6
f 781/9/5 782/9/5 783/9/5 784/9/5
f 785/9/6 786/9/6 787/9/6 788/9/6
f 789/10/5 790/10/5 791/10/5 792/10/5
f 793/10/6 794/10/6 795/10/6 796/10/6
f 797/10/4 798/10/4 799/10/4 800/10/4
f 801/10/5 802/10/5 803/10/5 804/10/5
f 805/10/6 806/10/6 807/10/6 808/10/6
f 809/10/2 810/10/2 811/10/2 812/10/2
f 813/10/4 814/10/4 815/10/4 816/10/4
f 817/10/5 818/10/5 819/10/5 820/10/5
f 821/10/6 822/10/6 823/10/6 824/10/6
f 825/4/1 826/4/1 827/4/1 828/4/1
f 829/4/4 830/4/4 831/4/4 832/4/4
f 833/4/5 834/4/5 835/4/5 836/4/5
f 837/4/6 838/4/6 839/4/6 840/4/6
f 841/9/5 842/9/5 843/9/5 844/9/5
f 845/9/6 846/9/6 847/9/6 848/9/6
f 849/10/5 850/10/5 851/10/5 852/10/5
f 853/10/6 854/10/6 855/10/6 856/10/6
f 857/10/5 858/10/5 859/10/5 860/10/5
f 861/10/6 862/10/6 863/10/6 864/10/6
f 865/10/5 866/10/5 867/10/5 868/10/5
f 869/10/6 870/10/6 871/10/6 872/10/6
f 873/10/5 874/10/5 875/10/5 876/10/5
f 877/10/6 878/10/6 879/10/6 880/10/6
f 881/10/5 882/10/5 883/10/5 884/10/5
f 885/10/6 886/10/6 887/10/6 888/10/6
f 889/10/5 890/10/5 891/10/5 892/10/5
f 893/10/6 894/10/6 895/10/6 896/10/6
f 897/10/5 898/10/5 899/10/5 900/10/5
f 901/10/6 902/10/6 903/10/6 904/10/6
f 905/10/5 906/10/5 907/10/5 908/10/5
f 909/10/6 910/10/6 911/10/6 912/10/6
f 913/10/5 914/10/5 915/10/5 916/10/5
f 917/10/6 918/10/6 919/10/6 920/10/6
f 921/10/5 922/10/5 923/10/5 924/10/5
f 925/10/6 926/10/6 927/10/6 928/10/6
f 929/10/4 930/10/4 931/10/4 932/10/4
f 933/10/5 934/10/5 935/10/5 936/10/5
f 937/10/6 938/10/6 939/10/6 940/10/6
f 941/10/2 942/10/2 943/10/2 944/10/2
f 945/10/4 946/10/4 947/10/4 948/10/4
f 949/10/5 950/10/5 951/10/5 952/10/5
f 953/10/6 954/10/6 955/10/6 956/10/6
f 957/4/1 958/4/1 959/4/1 960/4/1
f 961/4/4 962/4/4 963/4/4 964/4/4
f 965/4/5 966/4/5 967/4/5 968/4/5
f 969/4/6 970/4/6 971/4/6 972/4/6
f 973/9/5 974/9/5 975/9/5 976/9/5
f 977/9/6 978/9/6 979/9/6 980/9/6
f 981/10/5 982/10/5 983/10/5 984/10/5
f 985/10/6 986/10/6 987/10/6 988/10/6
f 989/10/5 990/10/5 991/10/5 992/10/5
f 993/10/6 994/10/6 995/10/6 996/10/6
f 997/10/5 998/10/5 999/10/5 1000/10/5
f 1001/10/6 1002/10/6 1003/10/6 1004/10/6
f 1005/10/5 1006/10/5 1007/10/5 1008/10/5
f 1009/10/6 1010/10/6 1011/10/6 1012/10/6
f 1013/10/5 1014/10/5 1015/10/5 1016/10/5
f 1017/10/6 1018/10/6 1019/10/6 1020/10/6
f 1021/10/5 1022/10/5 1023/10/5 1024/10/5
f 1025/10/6 1026/10/6 1027/10/6 1028/10/6
f 1029/10/5 1030/10/5 1031/10/5 1032/10/5
f 1033/10/6 1034/10/6 1035/10/6 1036/10/6
f 1037/10/4 1038/10/4 1039/10/4 1040/10/4
f 1041/10/5 1042/10/5 1043/10/5 1044/10/5
f 1045/10/6 1046/10/6 1047/10/6 1048/10/6
f 1049/10/2 1050/10/2 1051/10/2 1052/10/2
f 1053/10/4 1054/10/4 1055/10/4 1056/10/4
f 1057/10/5 1058/10/5 1059/10/5 1060/10/5
f 1061/10/6 1062/10/6 1063/10/6 1064/10/6
f 1065/4/1 1066/4/1 1067/4/1 1068/4/1
f 1069/4/5 1070/4/5 1071/4/5 1072/4/5
f 1073/4/6 1074/4/6 1075/4/6 1076/4/6
f 1077/9/5 1078/9/5 1079/9/5 1080/9/5
f 1081/9/6 1082/9/6 1083/9/6 1084/9/6
f 1085/10/5 1086/10/5 1087/10/5 1088/10/5
f 1089/10/6 1090/10/6 1091/10/6 1092/10/6
f 1093/10/5 1094/10/5 1095/10/5 1096/10/5
f 1097/10/6 1098/10/6 1099/10/6 1100/10/6
f 1101/10/5 1102/10/5 1103/10/5 1104/10/5
f 1105/10/6 1106/10/6 1107/10/6 1108/10/6
f 1109/10/5 1110/10/5 1111/10/5 1112/10/5
f 1113/10/6 1114/10/6 1115/10/6 1116/10/6
f 1117/10/5 1118/10/5 1119/10/5 1120/10/5
f 1121/10/6 1122/10/6 1123/10/6 1124/10/6
f 1125/10/2 1126/10/2 1127/10/2 1128/10/2
f 1129/10/4 1130/10/4 1131/10/4 1132/10/4
f 1133/10/5 1134/10/5 1135/10/5 1136/10/5
f 1137/10/6 1138/10/6 1139/10/6 1140/10/6
f 1141/4/1 1142/4/1 1143/4/1 1144/4/1
f 1145/4/4 1146/4/4 1147/4/4 1148/4/4
f 1149/4/5 1150/4/5 1151/4/5 1152/4/5
f 1153/4/6 1154/4/6 1155/4/6 1156/4/6
f 1157/9/5 1158/9/5 1159/9/5 1160/9/5
f 1161/9/6 1162/9/6 1163/9/6 1164/9/6
f 1165/10/5 1166/10/5 1167/10/5 1168/10/5
f 1169/10/6 1170/10/6 1171/10/6 1172/10/6
f 1173/10/5 1174/10/5 1175/10/5 1176/10/5
f 1177/10/6 1178/10/6 1179/10/6 1180/10/6
f 1181/10/5 1182/10/5 1183/10/5 1184/10/5
f 1185/10/6 1186/10/6 1187/10/6 1188/10/6
f 1189/10/5 1190/10/5 1191/10/5 1192/10/5
f 1193/10/6 1194/10/6 1195/10/6 1196/10/6
f 1197/10/2 1198/10/2 1199/10/2 1200/10/2
f 1201/10/4 1202/10/4 1203/10/4 1204/10/4
f 1205/10/5 1206/10/5 1207/10/5 1208/10/5
f 1209/10/6 1210/10/6 1211/10/6 1212/10/6
f 1213/4/1 1214/4/1 1215/4/1 1216/4/1
f 1217/4/4 1218/4/4 1219/4/4 1220/4/4
f 1221/4/5 1222/4/5 1223/4/5 1224/4/5
f 1225/4/6 1226/4/6 1227/4/6 1228/4/6
f 1229/9/5 1230/9/5 1231/9/5 1232/9/5
f 1233/9/6 1234/9/6 1235/9/6 1236/9/6
f 1237/10/5 1238/10/5 1239/10/5 1240/10/5
f 1241/10/6 1242/10/6 1243/10/6 1244/10/6
f 1245/10/5 1246/10/5 1247/10/5 1248/10/5
f 1249/10/6 1250/10/6 1251/10/6 1252/10/6
f 1253/10/2 1254/10/2 1255/10/2 1256/10/2
f 1257/10/4 1258/10/4 1259/10/4 1260/10/4
f 1261/10/5 1262/10/5 1263/10/5 1264/10/5
f 1265/10/6 1266/10/6 1267/10/6 1268/10/6
f 1269/4/1 1270/4/1 1271/4/1 1272/4/1
f 1273/4/5 1274/4/5 1275/4/5 1276/4/5
f 1277/4/6 1278/4/6 1279/4/6 1280/4/6
f 1281/9/5 1282/9/5 1283/9/5 1284/9/5
f 1285/9/6 1286/9/6 1287/9/6 1288/9/6
f 1289/10/2 1290/10/2 1291/10/2 1292/10/2
f 1293/10/5 1294/10/5 1295/10/5 1296/10/5
f 1297/10/6 1298/10/6 1299/10/6 1300/10/6
f 1301/4/1 1302/4/1 1303/4/1 1304/4/1
f 1305/4/4 1306/4/4 1307/4/4 1308/4/4
f 1309/4/5 1310/4/5 1311/4/5 1312/4/5
f 1313/4/6 1314/4/6 1315/4/6 1316/4/6
f 1317/9/5 1318/9/5 1319/9/5 1320/9/5
f 1321/9/6 1322/9/6 1323/9/6 1324/9/6
f 1325/10/2 1326/10/2 1327/10/2 1328/10/2
f 1329/10/4 1330/10/4 1331/10/4 1332/10/4
f 1333/10/5 1334/10/5 1335/10/5 1336/10/5
f 1337/10/6 1338/10/6 1339/10/6 1340/10/6
f 1341/4/1 1342/4/1 1343/4/1 1344/4/1
f 1345/4/2 1346/4/2 1347/4/2 1348/4/2
f 1349/4/4 1350/4/4 1351/4/4 1352/4/4
f 1353/4/5 1354/4/5 1355/4/5 1356/4/5
f 1357/4/6 1358/4/6 1359/4/6 1360/4/6

