# generated by vox_to_obj_exporter
# scale=0.1 center=false ground=false y_up=true

mtllib Fight_020.mtl
usemtl palette

# normals
vn -1 0 0
vn 1 0 0
vn 0 1 0
vn 0 -1 0
vn 0 0 1
vn 0 0 -1

# texcoords
vt 0.294921875 0.5

# verts
v 13 18.8 -2.6
v 13 18.7 -2.6
v 13 18.7 -2.5
v 13 18.8 -2.5
v 13 18.8 -2.6
v 13 18.8 -2.5
v 13.1 18.8 -2.5
v 13.1 18.8 -2.6
v 13 18.8 -2.5
v 13 18.7 -2.5
v 13.1 18.7 -2.5
v 13.1 18.8 -2.5
v 13.1 18.8 -2.6
v 13.1 18.7 -2.6
v 13 18.7 -2.6
v 13 18.8 -2.6
v 13.1 18.8 -2.6
v 13.1 18.8 -2.5
v 13.2 18.8 -2.5
v 13.2 18.8 -2.6
v 13.1 18.8 -2.5
v 13.1 18.7 -2.5
v 13.2 18.7 -2.5
v 13.2 18.8 -2.5
v 13.2 18.8 -2.6
v 13.2 18.7 -2.6
v 13.1 18.7 -2.6
v 13.1 18.8 -2.6
v 13.2 18.8 -2.6
v 13.2 18.8 -2.5
v 13.3 18.8 -2.5
v 13.3 18.8 -2.6
v 13.2 18.8 -2.5
v 13.2 18.7 -2.5
v 13.3 18.7 -2.5
v 13.3 18.8 -2.5
v 13.3 18.8 -2.6
v 13.3 18.7 -2.6
v 13.2 18.7 -2.6
v 13.2 18.8 -2.6
v 13.3 18.8 -2.6
v 13.3 18.8 -2.5
v 13.4 18.8 -2.5
v 13.4 18.8 -2.6
v 13.3 18.8 -2.5
v 13.3 18.7 -2.5
v 13.4 18.7 -2.5
v 13.4 18.8 -2.5
v 13.4 18.8 -2.6
v 13.4 18.7 -2.6
v 13.3 18.7 -2.6
v 13.3 18.8 -2.6
v 13.5 18.8 -2.5
v 13.5 18.7 -2.5
v 13.5 18.7 -2.6
v 13.5 18.8 -2.6
v 13.4 18.8 -2.6
v 13.4 18.8 -2.5
v 13.5 18.8 -2.5
v 13.5 18.8 -2.6
v 13.4 18.7 -2.5
v 13.4 18.7 -2.6
v 13.5 18.7 -2.6
v 13.5 18.7 -2.5
v 13.4 18.8 -2.5
v 13.4 18.7 -2.5
v 13.5 18.7 -2.5
v 13.5 18.8 -2.5
v 13.5 18.8 -2.6
v 13.5 18.7 -2.6
v 13.4 18.7 -2.6
v 13.4 18.8 -2.6
v 13.6 18.8 -2.6
v 13.6 18.7 -2.6
v 13.6 18.7 -2.5
v 13.6 18.8 -2.5
v 13.6 18.8 -2.6
v 13.6 18.8 -2.5
v 13.7 18.8 -2.5
v 13.7 18.8 -2.6
v 13.6 18.7 -2.5
v 13.6 18.7 -2.6
v 13.7 18.7 -2.6
v 13.7 18.7 -2.5
v 13.6 18.8 -2.5
v 13.6 18.7 -2.5
v 13.7 18.7 -2.5
v 13.7 18.8 -2.5
v 13.7 18.8 -2.6
v 13.7 18.7 -2.6
v 13.6 18.7 -2.6
v 13.6 18.8 -2.6
v 13.7 18.8 -2.6
v 13.7 18.8 -2.5
v 13.8 18.8 -2.5
v 13.8 18.8 -2.6
v 13.7 18.8 -2.5
v 13.7 18.7 -2.5
v 13.8 18.7 -2.5
v 13.8 18.8 -2.5
v 13.8 18.8 -2.6
v 13.8 18.7 -2.6
v 13.7 18.7 -2.6
v 13.7 18.8 -2.6
v 13.8 18.8 -2.6
v 13.8 18.8 -2.5
v 13.9 18.8 -2.5
v 13.9 18.8 -2.6
v 13.8 18.8 -2.5
v 13.8 18.7 -2.5
v 13.9 18.7 -2.5
v 13.9 18.8 -2.5
v 13.9 18.8 -2.6
v 13.9 18.7 -2.6
v 13.8 18.7 -2.6
v 13.8 18.8 -2.6
v 13.9 18.8 -2.6
v 13.9 18.8 -2.5
v 14 18.8 -2.5
v 14 18.8 -2.6
v 13.9 18.7 -2.5
v 13.9 18.7 -2.6
v 14 18.7 -2.6
v 14 18.7 -2.5
v 13.9 18.8 -2.5
v 13.9 18.7 -2.5
v 14 18.7 -2.5
v 14 18.8 -2.5
v 14 18.8 -2.6
v 14 18.7 -2.6
v 13.9 18.7 -2.6
v 13.9 18.8 -2.6
v 14.1 18.8 -2.5
v 14.1 18.7 -2.5
v 14.1 18.7 -2.6
v 14.1 18.8 -2.6
v 14 18.8 -2.6
v 14 18.8 -2.5
v 14.1 18.8 -2.5
v 14.1 18.8 -2.6
v 14 18.7 -2.5
v 14 18.7 -2.6
v 14.1 18.7 -2.6
v 14.1 18.7 -2.5
v 14 18.8 -2.5
v 14 18.7 -2.5
v 14.1 18.7 -2.5
v 14.1 18.8 -2.5
v 14.1 18.8 -2.6
v 14.1 18.7 -2.6
v 14 18.7 -2.6
v 14 18.8 -2.6
v 13 18.7 -2.6
v 13 18.6 -2.6
v 13 18.6 -2.5
v 13 18.7 -2.5
v 13 18.7 -2.5
v 13 18.6 -2.5
v 13.1 18.6 -2.5
v 13.1 18.7 -2.5
v 13.1 18.7 -2.6
v 13.1 18.6 -2.6
v 13 18.6 -2.6
v 13 18.7 -2.6
v 13.1 18.7 -2.5
v 13.1 18.6 -2.5
v 13.2 18.6 -2.5
v 13.2 18.7 -2.5
v 13.2 18.7 -2.6
v 13.2 18.6 -2.6
v 13.1 18.6 -2.6
v 13.1 18.7 -2.6
v 13.2 18.7 -2.5
v 13.2 18.6 -2.5
v 13.3 18.6 -2.5
v 13.3 18.7 -2.5
v 13.3 18.7 -2.6
v 13.3 18.6 -2.6
v 13.2 18.6 -2.6
v 13.2 18.7 -2.6
v 13.4 18.7 -2.5
v 13.4 18.6 -2.5
v 13.4 18.6 -2.6
v 13.4 18.7 -2.6
v 13.3 18.6 -2.5
v 13.3 18.6 -2.6
v 13.4 18.6 -2.6
v 13.4 18.6 -2.5
v 13.3 18.7 -2.5
v 13.3 18.6 -2.5
v 13.4 18.6 -2.5
v 13.4 18.7 -2.5
v 13.4 18.7 -2.6
v 13.4 18.6 -2.6
v 13.3 18.6 -2.6
v 13.3 18.7 -2.6
v 13.7 18.7 -2.6
v 13.7 18.6 -2.6
v 13.7 18.6 -2.5
v 13.7 18.7 -2.5
v 13.7 18.7 -2.5
v 13.7 18.6 -2.5
v 13.8 18.6 -2.5
v 13.8 18.7 -2.5
v 13.8 18.7 -2.6
v 13.8 18.6 -2.6
v 13.7 18.6 -2.6
v 13.7 18.7 -2.6
v 13.9 18.7 -2.5
v 13.9 18.6 -2.5
v 13.9 18.6 -2.6
v 13.9 18.7 -2.6
v 13.8 18.6 -2.5
v 13.8 18.6 -2.6
v 13.9 18.6 -2.6
v 13.9 18.6 -2.5
v 13.8 18.7 -2.5
v 13.8 18.6 -2.5
v 13.9 18.6 -2.5
v 13.9 18.7 -2.5
v 13.9 18.7 -2.6
v 13.9 18.6 -2.6
v 13.8 18.6 -2.6
v 13.8 18.7 -2.6
v 12.9 18.6 -2.6
v 12.9 18.5 -2.6
v 12.9 18.5 -2.5
v 12.9 18.6 -2.5
v 12.9 18.6 -2.6
v 12.9 18.6 -2.5
v 13 18.6 -2.5
v 13 18.6 -2.6
v 12.9 18.6 -2.5
v 12.9 18.5 -2.5
v 13 18.5 -2.5
v 13 18.6 -2.5
v 13 18.6 -2.6
v 13 18.5 -2.6
v 12.9 18.5 -2.6
v 12.9 18.6 -2.6
v 13 18.6 -2.5
v 13 18.5 -2.5
v 13.1 18.5 -2.5
v 13.1 18.6 -2.5
v 13.1 18.6 -2.6
v 13.1 18.5 -2.6
v 13 18.5 -2.6
v 13 18.6 -2.6
v 13.1 18.6 -2.5
v 13.1 18.5 -2.5
v 13.2 18.5 -2.5
v 13.2 18.6 -2.5
v 13.2 18.6 -2.6
v 13.2 18.5 -2.6
v 13.1 18.5 -2.6
v 13.1 18.6 -2.6
v 13.3 18.6 -2.5
v 13.3 18.5 -2.5
v 13.3 18.5 -2.6
v 13.3 18.6 -2.6
v 13.2 18.5 -2.5
v 13.2 18.5 -2.6
v 13.3 18.5 -2.6
v 13.3 18.5 -2.5
v 13.2 18.6 -2.5
v 13.2 18.5 -2.5
v 13.3 18.5 -2.5
v 13.3 18.6 -2.5
v 13.3 18.6 -2.6
v 13.3 18.5 -2.6
v 13.2 18.5 -2.6
v 13.2 18.6 -2.6
v 13.6 18.6 -2.6
v 13.6 18.5 -2.6
v 13.6 18.5 -2.5
v 13.6 18.6 -2.5
v 13.6 18.6 -2.6
v 13.6 18.6 -2.5
v 13.7 18.6 -2.5
v 13.7 18.6 -2.6
v 13.6 18.5 -2.5
v 13.6 18.5 -2.6
v 13.7 18.5 -2.6
v 13.7 18.5 -2.5
v 13.6 18.6 -2.5
v 13.6 18.5 -2.5
v 13.7 18.5 -2.5
v 13.7 18.6 -2.5
v 13.7 18.6 -2.6
v 13.7 18.5 -2.6
v 13.6 18.5 -2.6
v 13.6 18.6 -2.6
v 13.8 18.6 -2.5
v 13.8 18.5 -2.5
v 13.8 18.5 -2.6
v 13.8 18.6 -2.6
v 13.7 18.5 -2.5
v 13.7 18.5 -2.6
v 13.8 18.5 -2.6
v 13.8 18.5 -2.5
v 13.7 18.6 -2.5
v 13.7 18.5 -2.5
v 13.8 18.5 -2.5
v 13.8 18.6 -2.5
v 13.8 18.6 -2.6
v 13.8 18.5 -2.6
v 13.7 18.5 -2.6
v 13.7 18.6 -2.6
v 12.9 18.5 -2.6
v 12.9 18.4 -2.6
v 12.9 18.4 -2.5
v 12.9 18.5 -2.5
v 12.9 18.5 -2.5
v 12.9 18.4 -2.5
v 13 18.4 -2.5
v 13 18.5 -2.5
v 13 18.5 -2.6
v 13 18.4 -2.6
v 12.9 18.4 -2.6
v 12.9 18.5 -2.6
v 13 18.5 -2.5
v 13 18.4 -2.5
v 13.1 18.4 -2.5
v 13.1 18.5 -2.5
v 13.1 18.5 -2.6
v 13.1 18.4 -2.6
v 13 18.4 -2.6
v 13 18.5 -2.6
v 13.2 18.5 -2.5
v 13.2 18.4 -2.5
v 13.2 18.4 -2.6
v 13.2 18.5 -2.6
v 13.1 18.4 -2.5
v 13.1 18.4 -2.6
v 13.2 18.4 -2.6
v 13.2 18.4 -2.5
v 13.1 18.5 -2.5
v 13.1 18.4 -2.5
v 13.2 18.4 -2.5
v 13.2 18.5 -2.5
v 13.2 18.5 -2.6
v 13.2 18.4 -2.6
v 13.1 18.4 -2.6
v 13.1 18.5 -2.6
v 12.8 18.4 -2.6
v 12.8 18.3 -2.6
v 12.8 18.3 -2.5
v 12.8 18.4 -2.5
v 12.8 18.4 -2.6
v 12.8 18.4 -2.5
v 12.9 18.4 -2.5
v 12.9 18.4 -2.6
v 12.8 18.4 -2.5
v 12.8 18.3 -2.5
v 12.9 18.3 -2.5
v 12.9 18.4 -2.5
v 12.9 18.4 -2.6
v 12.9 18.3 -2.6
v 12.8 18.3 -2.6
v 12.8 18.4 -2.6
v 12.9 18.4 -2.5
v 12.9 18.3 -2.5
v 13 18.3 -2.5
v 13 18.4 -2.5
v 13 18.4 -2.6
v 13 18.3 -2.6
v 12.9 18.3 -2.6
v 12.9 18.4 -2.6
v 13.1 18.4 -2.5
v 13.1 18.3 -2.5
v 13.1 18.3 -2.6
v 13.1 18.4 -2.6
v 13 18.3 -2.5
v 13 18.3 -2.6
v 13.1 18.3 -2.6
v 13.1 18.3 -2.5
v 13 18.4 -2.5
v 13 18.3 -2.5
v 13.1 18.3 -2.5
v 13.1 18.4 -2.5
v 13.1 18.4 -2.6
v 13.1 18.3 -2.6
v 13 18.3 -2.6
v 13 18.4 -2.6
v 12.8 18.3 -2.6
v 12.8 18.2 -2.6
v 12.8 18.2 -2.5
v 12.8 18.3 -2.5
v 12.8 18.3 -2.5
v 12.8 18.2 -2.5
v 12.9 18.2 -2.5
v 12.9 18.3 -2.5
v 12.9 18.3 -2.6
v 12.9 18.2 -2.6
v 12.8 18.2 -2.6
v 12.8 18.3 -2.6
v 13 18.3 -2.5
v 13 18.2 -2.5
v 13 18.2 -2.6
v 13 18.3 -2.6
v 12.9 18.2 -2.5
v 12.9 18.2 -2.6
v 13 18.2 -2.6
v 13 18.2 -2.5
v 12.9 18.3 -2.5
v 12.9 18.2 -2.5
v 13 18.2 -2.5
v 13 18.3 -2.5
v 13 18.3 -2.6
v 13 18.2 -2.6
v 12.9 18.2 -2.6
v 12.9 18.3 -2.6
v 12.8 18.2 -2.6
v 12.8 18.1 -2.6
v 12.8 18.1 -2.5
v 12.8 18.2 -2.5
v 12.9 18.2 -2.5
v 12.9 18.1 -2.5
v 12.9 18.1 -2.6
v 12.9 18.2 -2.6
v 12.8 18.1 -2.5
v 12.8 18.1 -2.6
v 12.9 18.1 -2.6
v 12.9 18.1 -2.5
v 12.8 18.2 -2.5
v 12.8 18.1 -2.5
v 12.9 18.1 -2.5
v 12.9 18.2 -2.5
v 12.9 18.2 -2.6
v 12.9 18.1 -2.6
v 12.8 18.1 -2.6
v 12.8 18.2 -2.6
v 12.7 18.1 -2.6
v 12.7 18 -2.6
v 12.7 18 -2.5
v 12.7 18.1 -2.5
v 12.8 18.1 -2.5
v 12.8 18 -2.5
v 12.8 18 -2.6
v 12.8 18.1 -2.6
v 12.7 18.1 -2.6
v 12.7 18.1 -2.5
v 12.8 18.1 -2.5
v 12.8 18.1 -2.6
v 12.7 18 -2.5
v 12.7 18 -2.6
v 12.8 18 -2.6
v 12.8 18 -2.5
v 12.7 18.1 -2.5
v 12.7 18 -2.5
v 12.8 18 -2.5
v 12.8 18.1 -2.5
v 12.8 18.1 -2.6
v 12.8 18 -2.6
v 12.7 18 -2.6
v 12.7 18.1 -2.6
v 14 3.8 -2.6
v 14 3.7 -2.6
v 14 3.7 -2.5
v 14 3.8 -2.5
v 14.1 3.8 -2.5
v 14.1 3.7 -2.5
v 14.1 3.7 -2.6
v 14.1 3.8 -2.6
v 14 3.8 -2.6
v 14 3.8 -2.5
v 14.1 3.8 -2.5
v 14.1 3.8 -2.6
v 14 3.7 -2.5
v 14 3.7 -2.6
v 14.1 3.7 -2.6
v 14.1 3.7 -2.5
v 14 3.8 -2.5
v 14 3.7 -2.5
v 14.1 3.7 -2.5
v 14.1 3.8 -2.5
v 14.1 3.8 -2.6
v 14.1 3.7 -2.6
v 14 3.7 -2.6
v 14 3.8 -2.6
v 14.1 3.7 -2.6
v 14.1 3.6 -2.6
v 14.1 3.6 -2.5
v 14.1 3.7 -2.5
v 14.2 3.7 -2.5
v 14.2 3.6 -2.5
v 14.2 3.6 -2.6
v 14.2 3.7 -2.6
v 14.1 3.7 -2.6
v 14.1 3.7 -2.5
v 14.2 3.7 -2.5
v 14.2 3.7 -2.6
v 14.1 3.7 -2.5
v 14.1 3.6 -2.5
v 14.2 3.6 -2.5
v 14.2 3.7 -2.5
v 14.2 3.7 -2.6
v 14.2 3.6 -2.6
v 14.1 3.6 -2.6
v 14.1 3.7 -2.6
v 14.1 3.6 -2.6
v 14.1 3.5 -2.6
v 14.1 3.5 -2.5
v 14.1 3.6 -2.5
v 14.1 3.6 -2.5
v 14.1 3.5 -2.5
v 14.2 3.5 -2.5
v 14.2 3.6 -2.5
v 14.2 3.6 -2.6
v 14.2 3.5 -2.6
v 14.1 3.5 -2.6
v 14.1 3.6 -2.6
v 14.2 3.6 -2.6
v 14.2 3.6 -2.5
v 14.3 3.6 -2.5
v 14.3 3.6 -2.6
v 14.2 3.6 -2.5
v 14.2 3.5 -2.5
v 14.3 3.5 -2.5
v 14.3 3.6 -2.5
v 14.3 3.6 -2.6
v 14.3 3.5 -2.6
v 14.2 3.5 -2.6
v 14.2 3.6 -2.6
v 14.4 3.6 -2.5
v 14.4 3.5 -2.5
v 14.4 3.5 -2.6
v 14.4 3.6 -2.6
v 14.3 3.6 -2.6
v 14.3 3.6 -2.5
v 14.4 3.6 -2.5
v 14.4 3.6 -2.6
v 14.3 3.6 -2.5
v 14.3 3.5 -2.5
v 14.4 3.5 -2.5
v 14.4 3.6 -2.5
v 14.4 3.6 -2.6
v 14.4 3.5 -2.6
v 14.3 3.5 -2.6
v 14.3 3.6 -2.6
v 14.1 3.5 -2.6
v 14.1 3.4 -2.6
v 14.1 3.4 -2.5
v 14.1 3.5 -2.5
v 14.1 3.5 -2.5
v 14.1 3.4 -2.5
v 14.2 3.4 -2.5
v 14.2 3.5 -2.5
v 14.2 3.5 -2.6
v 14.2 3.4 -2.6
v 14.1 3.4 -2.6
v 14.1 3.5 -2.6
v 14.2 3.5 -2.5
v 14.2 3.4 -2.5
v 14.3 3.4 -2.5
v 14.3 3.5 -2.5
v 14.3 3.5 -2.6
v 14.3 3.4 -2.6
v 14.2 3.4 -2.6
v 14.2 3.5 -2.6
v 14.3 3.5 -2.5
v 14.3 3.4 -2.5
v 14.4 3.4 -2.5
v 14.4 3.5 -2.5
v 14.4 3.5 -2.6
v 14.4 3.4 -2.6
v 14.3 3.4 -2.6
v 14.3 3.5 -2.6
v 14.4 3.5 -2.6
v 14.4 3.5 -2.5
v 14.5 3.5 -2.5
v 14.5 3.5 -2.6
v 14.4 3.5 -2.5
v 14.4 3.4 -2.5
v 14.5 3.4 -2.5
v 14.5 3.5 -2.5
v 14.5 3.5 -2.6
v 14.5 3.4 -2.6
v 14.4 3.4 -2.6
v 14.4 3.5 -2.6
v 14.6 3.5 -2.5
v 14.6 3.4 -2.5
v 14.6 3.4 -2.6
v 14.6 3.5 -2.6
v 14.5 3.5 -2.6
v 14.5 3.5 -2.5
v 14.6 3.5 -2.5
v 14.6 3.5 -2.6
v 14.5 3.5 -2.5
v 14.5 3.4 -2.5
v 14.6 3.4 -2.5
v 14.6 3.5 -2.5
v 14.6 3.5 -2.6
v 14.6 3.4 -2.6
v 14.5 3.4 -2.6
v 14.5 3.5 -2.6
v 14.1 3.4 -2.6
v 14.1 3.3 -2.6
v 14.1 3.3 -2.5
v 14.1 3.4 -2.5
v 14.1 3.3 -2.5
v 14.1 3.3 -2.6
v 14.2 3.3 -2.6
v 14.2 3.3 -2.5
v 14.1 3.4 -2.5
v 14.1 3.3 -2.5
v 14.2 3.3 -2.5
v 14.2 3.4 -2.5
v 14.2 3.4 -2.6
v 14.2 3.3 -2.6
v 14.1 3.3 -2.6
v 14.1 3.4 -2.6
v 14.2 3.4 -2.5
v 14.2 3.3 -2.5
v 14.3 3.3 -2.5
v 14.3 3.4 -2.5
v 14.3 3.4 -2.6
v 14.3 3.3 -2.6
v 14.2 3.3 -2.6
v 14.2 3.4 -2.6
v 14.3 3.4 -2.5
v 14.3 3.3 -2.5
v 14.4 3.3 -2.5
v 14.4 3.4 -2.5
v 14.4 3.4 -2.6
v 14.4 3.3 -2.6
v 14.3 3.3 -2.6
v 14.3 3.4 -2.6
v 14.4 3.4 -2.5
v 14.4 3.3 -2.5
v 14.5 3.3 -2.5
v 14.5 3.4 -2.5
v 14.5 3.4 -2.6
v 14.5 3.3 -2.6
v 14.4 3.3 -2.6
v 14.4 3.4 -2.6
v 14.5 3.4 -2.5
v 14.5 3.3 -2.5
v 14.6 3.3 -2.5
v 14.6 3.4 -2.5
v 14.6 3.4 -2.6
v 14.6 3.3 -2.6
v 14.5 3.3 -2.6
v 14.5 3.4 -2.6
v 14.6 3.4 -2.6
v 14.6 3.4 -2.5
v 14.7 3.4 -2.5
v 14.7 3.4 -2.6
v 14.6 3.4 -2.5
v 14.6 3.3 -2.5
v 14.7 3.3 -2.5
v 14.7 3.4 -2.5
v 14.7 3.4 -2.6
v 14.7 3.3 -2.6
v 14.6 3.3 -2.6
v 14.6 3.4 -2.6
v 14.8 3.4 -2.5
v 14.8 3.3 -2.5
v 14.8 3.3 -2.6
v 14.8 3.4 -2.6
v 14.7 3.4 -2.6
v 14.7 3.4 -2.5
v 14.8 3.4 -2.5
v 14.8 3.4 -2.6
v 14.7 3.4 -2.5
v 14.7 3.3 -2.5
v 14.8 3.3 -2.5
v 14.8 3.4 -2.5
v 14.8 3.4 -2.6
v 14.8 3.3 -2.6
v 14.7 3.3 -2.6
v 14.7 3.4 -2.6
v 14.2 3.3 -2.6
v 14.2 3.2 -2.6
v 14.2 3.2 -2.5
v 14.2 3.3 -2.5
v 14.2 3.2 -2.5
v 14.2 3.2 -2.6
v 14.3 3.2 -2.6
v 14.3 3.2 -2.5
v 14.2 3.3 -2.5
v 14.2 3.2 -2.5
v 14.3 3.2 -2.5
v 14.3 3.3 -2.5
v 14.3 3.3 -2.6
v 14.3 3.2 -2.6
v 14.2 3.2 -2.6
v 14.2 3.3 -2.6
v 14.3 3.3 -2.5
v 14.3 3.2 -2.5
v 14.4 3.2 -2.5
v 14.4 3.3 -2.5
v 14.4 3.3 -2.6
v 14.4 3.2 -2.6
v 14.3 3.2 -2.6
v 14.3 3.3 -2.6
v 14.4 3.3 -2.5
v 14.4 3.2 -2.5
v 14.5 3.2 -2.5
v 14.5 3.3 -2.5
v 14.5 3.3 -2.6
v 14.5 3.2 -2.6
v 14.4 3.2 -2.6
v 14.4 3.3 -2.6
v 14.5 3.3 -2.5
v 14.5 3.2 -2.5
v 14.6 3.2 -2.5
v 14.6 3.3 -2.5
v 14.6 3.3 -2.6
v 14.6 3.2 -2.6
v 14.5 3.2 -2.6
v 14.5 3.3 -2.6
v 14.6 3.3 -2.5
v 14.6 3.2 -2.5
v 14.7 3.2 -2.5
v 14.7 3.3 -2.5
v 14.7 3.3 -2.6
v 14.7 3.2 -2.6
v 14.6 3.2 -2.6
v 14.6 3.3 -2.6
v 14.7 3.3 -2.5
v 14.7 3.2 -2.5
v 14.8 3.2 -2.5
v 14.8 3.3 -2.5
v 14.8 3.3 -2.6
v 14.8 3.2 -2.6
v 14.7 3.2 -2.6
v 14.7 3.3 -2.6
v 14.9 3.3 -2.5
v 14.9 3.2 -2.5
v 14.9 3.2 -2.6
v 14.9 3.3 -2.6
v 14.8 3.3 -2.6
v 14.8 3.3 -2.5
v 14.9 3.3 -2.5
v 14.9 3.3 -2.6
v 14.8 3.3 -2.5
v 14.8 3.2 -2.5
v 14.9 3.2 -2.5
v 14.9 3.3 -2.5
v 14.9 3.3 -2.6
v 14.9 3.2 -2.6
v 14.8 3.2 -2.6
v 14.8 3.3 -2.6
v 14.3 3.2 -2.6
v 14.3 3.1 -2.6
v 14.3 3.1 -2.5
v 14.3 3.2 -2.5
v 14.3 3.2 -2.5
v 14.3 3.1 -2.5
v 14.4 3.1 -2.5
v 14.4 3.2 -2.5
v 14.4 3.2 -2.6
v 14.4 3.1 -2.6
v 14.3 3.1 -2.6
v 14.3 3.2 -2.6
v 14.4 3.2 -2.5
v 14.4 3.1 -2.5
v 14.5 3.1 -2.5
v 14.5 3.2 -2.5
v 14.5 3.2 -2.6
v 14.5 3.1 -2.6
v 14.4 3.1 -2.6
v 14.4 3.2 -2.6
v 14.5 3.2 -2.5
v 14.5 3.1 -2.5
v 14.6 3.1 -2.5
v 14.6 3.2 -2.5
v 14.6 3.2 -2.6
v 14.6 3.1 -2.6
v 14.5 3.1 -2.6
v 14.5 3.2 -2.6
v 14.6 3.2 -2.5
v 14.6 3.1 -2.5
v 14.7 3.1 -2.5
v 14.7 3.2 -2.5
v 14.7 3.2 -2.6
v 14.7 3.1 -2.6
v 14.6 3.1 -2.6
v 14.6 3.2 -2.6
v 14.7 3.2 -2.5
v 14.7 3.1 -2.5
v 14.8 3.1 -2.5
v 14.8 3.2 -2.5
v 14.8 3.2 -2.6
v 14.8 3.1 -2.6
v 14.7 3.1 -2.6
v 14.7 3.2 -2.6
v 14.8 3.2 -2.5
v 14.8 3.1 -2.5
v 14.9 3.1 -2.5
v 14.9 3.2 -2.5
v 14.9 3.2 -2.6
v 14.9 3.1 -2.6
v 14.8 3.1 -2.6
v 14.8 3.2 -2.6
v 14.9 3.2 -2.6
v 14.9 3.2 -2.5
v 15 3.2 -2.5
v 15 3.2 -2.6
v 14.9 3.2 -2.5
v 14.9 3.1 -2.5
v 15 3.1 -2.5
v 15 3.2 -2.5
v 15 3.2 -2.6
v 15 3.1 -2.6
v 14.9 3.1 -2.6
v 14.9 3.2 -2.6
v 15.1 3.2 -2.5
v 15.1 3.1 -2.5
v 15.1 3.1 -2.6
v 15.1 3.2 -2.6
v 15 3.2 -2.6
v 15 3.2 -2.5
v 15.1 3.2 -2.5
v 15.1 3.2 -2.6
v 15 3.2 -2.5
v 15 3.1 -2.5
v 15.1 3.1 -2.5
v 15.1 3.2 -2.5
v 15.1 3.2 -2.6
v 15.1 3.1 -2.6
v 15 3.1 -2.6
v 15 3.2 -2.6
v 14.3 3.1 -2.6
v 14.3 3 -2.6
v 14.3 3 -2.5
v 14.3 3.1 -2.5
v 14.3 3 -2.5
v 14.3 3 -2.6
v 14.4 3 -2.6
v 14.4 3 -2.5
v 14.3 3.1 -2.5
v 14.3 3 -2.5
v 14.4 3 -2.5
v 14.4 3.1 -2.5
v 14.4 3.1 -2.6
v 14.4 3 -2.6
v 14.3 3 -2.6
v 14.3 3.1 -2.6
v 14.4 3.1 -2.5
v 14.4 3 -2.5
v 14.5 3 -2.5
v 14.5 3.1 -2.5
v 14.5 3.1 -2.6
v 14.5 3 -2.6
v 14.4 3 -2.6
v 14.4 3.1 -2.6
v 14.5 3.1 -2.5
v 14.5 3 -2.5
v 14.6 3 -2.5
v 14.6 3.1 -2.5
v 14.6 3.1 -2.6
v 14.6 3 -2.6
v 14.5 3 -2.6
v 14.5 3.1 -2.6
v 14.6 3.1 -2.5
v 14.6 3 -2.5
v 14.7 3 -2.5
v 14.7 3.1 -2.5
v 14.7 3.1 -2.6
v 14.7 3 -2.6
v 14.6 3 -2.6
v 14.6 3.1 -2.6
v 14.7 3.1 -2.5
v 14.7 3 -2.5
v 14.8 3 -2.5
v 14.8 3.1 -2.5
v 14.8 3.1 -2.6
v 14.8 3 -2.6
v 14.7 3 -2.6
v 14.7 3.1 -2.6
v 14.8 3.1 -2.5
v 14.8 3 -2.5
v 14.9 3 -2.5
v 14.9 3.1 -2.5
v 14.9 3.1 -2.6
v 14.9 3 -2.6
v 14.8 3 -2.6
v 14.8 3.1 -2.6
v 14.9 3.1 -2.5
v 14.9 3 -2.5
v 15 3 -2.5
v 15 3.1 -2.5
v 15 3.1 -2.6
v 15 3 -2.6
v 14.9 3 -2.6
v 14.9 3.1 -2.6
v 15 3.1 -2.5
v 15 3 -2.5
v 15.1 3 -2.5
v 15.1 3.1 -2.5
v 15.1 3.1 -2.6
v 15.1 3 -2.6
v 15 3 -2.6
v 15 3.1 -2.6
v 15.1 3.1 -2.6
v 15.1 3.1 -2.5
v 15.2 3.1 -2.5
v 15.2 3.1 -2.6
v 15.1 3.1 -2.5
v 15.1 3 -2.5
v 15.2 3 -2.5
v 15.2 3.1 -2.5
v 15.2 3.1 -2.6
v 15.2 3 -2.6
v 15.1 3 -2.6
v 15.1 3.1 -2.6
v 15.3 3.1 -2.5
v 15.3 3 -2.5
v 15.3 3 -2.6
v 15.3 3.1 -2.6
v 15.2 3.1 -2.6
v 15.2 3.1 -2.5
v 15.3 3.1 -2.5
v 15.3 3.1 -2.6
v 15.2 3.1 -2.5
v 15.2 3 -2.5
v 15.3 3 -2.5
v 15.3 3.1 -2.5
v 15.3 3.1 -2.6
v 15.3 3 -2.6
v 15.2 3 -2.6
v 15.2 3.1 -2.6
v 14.4 3 -2.6
v 14.4 2.9 -2.6
v 14.4 2.9 -2.5
v 14.4 3 -2.5
v 14.4 3 -2.5
v 14.4 2.9 -2.5
v 14.5 2.9 -2.5
v 14.5 3 -2.5
v 14.5 3 -2.6
v 14.5 2.9 -2.6
v 14.4 2.9 -2.6
v 14.4 3 -2.6
v 14.5 3 -2.5
v 14.5 2.9 -2.5
v 14.6 2.9 -2.5
v 14.6 3 -2.5
v 14.6 3 -2.6
v 14.6 2.9 -2.6
v 14.5 2.9 -2.6
v 14.5 3 -2.6
v 14.6 3 -2.5
v 14.6 2.9 -2.5
v 14.7 2.9 -2.5
v 14.7 3 -2.5
v 14.7 3 -2.6
v 14.7 2.9 -2.6
v 14.6 2.9 -2.6
v 14.6 3 -2.6
v 14.7 3 -2.5
v 14.7 2.9 -2.5
v 14.8 2.9 -2.5
v 14.8 3 -2.5
v 14.8 3 -2.6
v 14.8 2.9 -2.6
v 14.7 2.9 -2.6
v 14.7 3 -2.6
v 14.8 3 -2.5
v 14.8 2.9 -2.5
v 14.9 2.9 -2.5
v 14.9 3 -2.5
v 14.9 3 -2.6
v 14.9 2.9 -2.6
v 14.8 2.9 -2.6
v 14.8 3 -2.6
v 14.9 3 -2.5
v 14.9 2.9 -2.5
v 15 2.9 -2.5
v 15 3 -2.5
v 15 3 -2.6
v 15 2.9 -2.6
v 14.9 2.9 -2.6
v 14.9 3 -2.6
v 15 3 -2.5
v 15 2.9 -2.5
v 15.1 2.9 -2.5
v 15.1 3 -2.5
v 15.1 3 -2.6
v 15.1 2.9 -2.6
v 15 2.9 -2.6
v 15 3 -2.6
v 15.1 3 -2.5
v 15.1 2.9 -2.5
v 15.2 2.9 -2.5
v 15.2 3 -2.5
v 15.2 3 -2.6
v 15.2 2.9 -2.6
v 15.1 2.9 -2.6
v 15.1 3 -2.6
v 15.2 3 -2.5
v 15.2 2.9 -2.5
v 15.3 2.9 -2.5
v 15.3 3 -2.5
v 15.3 3 -2.6
v 15.3 2.9 -2.6
v 15.2 2.9 -2.6
v 15.2 3 -2.6
v 15.3 3 -2.6
v 15.3 3 -2.5
v 15.4 3 -2.5
v 15.4 3 -2.6
v 15.3 3 -2.5
v 15.3 2.9 -2.5
v 15.4 2.9 -2.5
v 15.4 3 -2.5
v 15.4 3 -2.6
v 15.4 2.9 -2.6
v 15.3 2.9 -2.6
v 15.3 3 -2.6
v 15.5 3 -2.5
v 15.5 2.9 -2.5
v 15.5 2.9 -2.6
v 15.5 3 -2.6
v 15.4 3 -2.6
v 15.4 3 -2.5
v 15.5 3 -2.5
v 15.5 3 -2.6
v 15.4 3 -2.5
v 15.4 2.9 -2.5
v 15.5 2.9 -2.5
v 15.5 3 -2.5
v 15.5 3 -2.6
v 15.5 2.9 -2.6
v 15.4 2.9 -2.6
v 15.4 3 -2.6
v 14.1 2.9 -2.6
v 14.1 2.8 -2.6
v 14.1 2.8 -2.5
v 14.1 2.9 -2.5
v 14.2 2.9 -2.5
v 14.2 2.8 -2.5
v 14.2 2.8 -2.6
v 14.2 2.9 -2.6
v 14.1 2.9 -2.6
v 14.1 2.9 -2.5
v 14.2 2.9 -2.5
v 14.2 2.9 -2.6
v 14.1 2.8 -2.5
v 14.1 2.8 -2.6
v 14.2 2.8 -2.6
v 14.2 2.8 -2.5
v 14.1 2.9 -2.5
v 14.1 2.8 -2.5
v 14.2 2.8 -2.5
v 14.2 2.9 -2.5
v 14.2 2.9 -2.6
v 14.2 2.8 -2.6
v 14.1 2.8 -2.6
v 14.1 2.9 -2.6
v 14.3 2.9 -2.6
v 14.3 2.8 -2.6
v 14.3 2.8 -2.5
v 14.3 2.9 -2.5
v 14.3 2.9 -2.6
v 14.3 2.9 -2.5
v 14.4 2.9 -2.5
v 14.4 2.9 -2.6
v 14.3 2.8 -2.5
v 14.3 2.8 -2.6
v 14.4 2.8 -2.6
v 14.4 2.8 -2.5
v 14.3 2.9 -2.5
v 14.3 2.8 -2.5
v 14.4 2.8 -2.5
v 14.4 2.9 -2.5
v 14.4 2.9 -2.6
v 14.4 2.8 -2.6
v 14.3 2.8 -2.6
v 14.3 2.9 -2.6
v 14.4 2.8 -2.5
v 14.4 2.8 -2.6
v 14.5 2.8 -2.6
v 14.5 2.8 -2.5
v 14.4 2.9 -2.5
v 14.4 2.8 -2.5
v 14.5 2.8 -2.5
v 14.5 2.9 -2.5
v 14.5 2.9 -2.6
v 14.5 2.8 -2.6
v 14.4 2.8 -2.6
v 14.4 2.9 -2.6
v 14.5 2.8 -2.5
v 14.5 2.8 -2.6
v 14.6 2.8 -2.6
v 14.6 2.8 -2.5
v 14.5 2.9 -2.5
v 14.5 2.8 -2.5
v 14.6 2.8 -2.5
v 14.6 2.9 -2.5
v 14.6 2.9 -2.6
v 14.6 2.8 -2.6
v 14.5 2.8 -2.6
v 14.5 2.9 -2.6
v 14.6 2.8 -2.5
v 14.6 2.8 -2.6
v 14.7 2.8 -2.6
v 14.7 2.8 -2.5
v 14.6 2.9 -2.5
v 14.6 2.8 -2.5
v 14.7 2.8 -2.5
v 14.7 2.9 -2.5
v 14.7 2.9 -2.6
v 14.7 2.8 -2.6
v 14.6 2.8 -2.6
v 14.6 2.9 -2.6
v 14.7 2.9 -2.5
v 14.7 2.8 -2.5
v 14.8 2.8 -2.5
v 14.8 2.9 -2.5
v 14.8 2.9 -2.6
v 14.8 2.8 -2.6
v 14.7 2.8 -2.6
v 14.7 2.9 -2.6
v 14.8 2.9 -2.5
v 14.8 2.8 -2.5
v 14.9 2.8 -2.5
v 14.9 2.9 -2.5
v 14.9 2.9 -2.6
v 14.9 2.8 -2.6
v 14.8 2.8 -2.6
v 14.8 2.9 -2.6
v 14.9 2.8 -2.5
v 14.9 2.8 -2.6
v 15 2.8 -2.6
v 15 2.8 -2.5
v 14.9 2.9 -2.5
v 14.9 2.8 -2.5
v 15 2.8 -2.5
v 15 2.9 -2.5
v 15 2.9 -2.6
v 15 2.8 -2.6
v 14.9 2.8 -2.6
v 14.9 2.9 -2.6
v 15 2.8 -2.5
v 15 2.8 -2.6
v 15.1 2.8 -2.6
v 15.1 2.8 -2.5
v 15 2.9 -2.5
v 15 2.8 -2.5
v 15.1 2.8 -2.5
v 15.1 2.9 -2.5
v 15.1 2.9 -2.6
v 15.1 2.8 -2.6
v 15 2.8 -2.6
v 15 2.9 -2.6
v 15.1 2.8 -2.5
v 15.1 2.8 -2.6
v 15.2 2.8 -2.6
v 15.2 2.8 -2.5
v 15.1 2.9 -2.5
v 15.1 2.8 -2.5
v 15.2 2.8 -2.5
v 15.2 2.9 -2.5
v 15.2 2.9 -2.6
v 15.2 2.8 -2.6
v 15.1 2.8 -2.6
v 15.1 2.9 -2.6
v 15.2 2.8 -2.5
v 15.2 2.8 -2.6
v 15.3 2.8 -2.6
v 15.3 2.8 -2.5
v 15.2 2.9 -2.5
v 15.2 2.8 -2.5
v 15.3 2.8 -2.5
v 15.3 2.9 -2.5
v 15.3 2.9 -2.6
v 15.3 2.8 -2.6
v 15.2 2.8 -2.6
v 15.2 2.9 -2.6
v 15.3 2.8 -2.5
v 15.3 2.8 -2.6
v 15.4 2.8 -2.6
v 15.4 2.8 -2.5
v 15.3 2.9 -2.5
v 15.3 2.8 -2.5
v 15.4 2.8 -2.5
v 15.4 2.9 -2.5
v 15.4 2.9 -2.6
v 15.4 2.8 -2.6
v 15.3 2.8 -2.6
v 15.3 2.9 -2.6
v 15.4 2.8 -2.5
v 15.4 2.8 -2.6
v 15.5 2.8 -2.6
v 15.5 2.8 -2.5
v 15.4 2.9 -2.5
v 15.4 2.8 -2.5
v 15.5 2.8 -2.5
v 15.5 2.9 -2.5
v 15.5 2.9 -2.6
v 15.5 2.8 -2.6
v 15.4 2.8 -2.6
v 15.4 2.9 -2.6
v 15.5 2.9 -2.6
v 15.5 2.9 -2.5
v 15.6 2.9 -2.5
v 15.6 2.9 -2.6
v 15.5 2.8 -2.5
v 15.5 2.8 -2.6
v 15.6 2.8 -2.6
v 15.6 2.8 -2.5
v 15.5 2.9 -2.5
v 15.5 2.8 -2.5
v 15.6 2.8 -2.5
v 15.6 2.9 -2.5
v 15.6 2.9 -2.6
v 15.6 2.8 -2.6
v 15.5 2.8 -2.6
v 15.5 2.9 -2.6
v 15.7 2.9 -2.5
v 15.7 2.8 -2.5
v 15.7 2.8 -2.6
v 15.7 2.9 -2.6
v 15.6 2.9 -2.6
v 15.6 2.9 -2.5
v 15.7 2.9 -2.5
v 15.7 2.9 -2.6
v 15.6 2.8 -2.5
v 15.6 2.8 -2.6
v 15.7 2.8 -2.6
v 15.7 2.8 -2.5
v 15.6 2.9 -2.5
v 15.6 2.8 -2.5
v 15.7 2.8 -2.5
v 15.7 2.9 -2.5
v 15.7 2.9 -2.6
v 15.7 2.8 -2.6
v 15.6 2.8 -2.6
v 15.6 2.9 -2.6
v 14.7 2.8 -2.6
v 14.7 2.7 -2.6
v 14.7 2.7 -2.5
v 14.7 2.8 -2.5
v 14.7 2.7 -2.5
v 14.7 2.7 -2.6
v 14.8 2.7 -2.6
v 14.8 2.7 -2.5
v 14.7 2.8 -2.5
v 14.7 2.7 -2.5
v 14.8 2.7 -2.5
v 14.8 2.8 -2.5
v 14.8 2.8 -2.6
v 14.8 2.7 -2.6
v 14.7 2.7 -2.6
v 14.7 2.8 -2.6
v 14.9 2.8 -2.5
v 14.9 2.7 -2.5
v 14.9 2.7 -2.6
v 14.9 2.8 -2.6
v 14.8 2.7 -2.5
v 14.8 2.7 -2.6
v 14.9 2.7 -2.6
v 14.9 2.7 -2.5
v 14.8 2.8 -2.5
v 14.8 2.7 -2.5
v 14.9 2.7 -2.5
v 14.9 2.8 -2.5
v 14.9 2.8 -2.6
v 14.9 2.7 -2.6
v 14.8 2.7 -2.6
v 14.8 2.8 -2.6

# faces
f 1/1/1 2/1/1 3/1/1 4/1/1
f 5/1/3 6/1/3 7/1/3 8/1/3
f 9/1/5 10/1/5 11/1/5 12/1/5
f 13/1/6 14/1/6 15/1/6 16/1/6
f 17/1/3 18/1/3 19/1/3 20/1/3
f 21/1/5 22/1/5 23/1/5 24/1/5
f 25/1/6 26/1/6 27/1/6 28/1/6
f 29/1/3 30/1/3 31/1/3 32/1/3
f 33/1/5 34/1/5 35/1/5 36/1/5
f 37/1/6 38/1/6 39/1/6 40/1/6
f 41/1/3 42/1/3 43/1/3 44/1/3
f 45/1/5 46/1/5 47/1/5 48/1/5
f 49/1/6 50/1/6 51/1/6 52/1/6
f 53/1/2 54/1/2 55/1/2 56/1/2
f 57/1/3 58/1/3 59/1/3 60/1/3
f 61/1/4 62/1/4 63/1/4 64/1/4
f 65/1/5 66/1/5 67/1/5 68/1/5
f 69/1/6 70/1/6 71/1/6 72/1/6
f 73/1/1 74/1/1 75/1/1 76/1/1
f 77/1/3 78/1/3 79/1/3 80/1/3
f 81/1/4 82/1/4 83/1/4 84/1/4
f 85/1/5 86/1/5 87/1/5 88/1/5
f 89/1/6 90/1/6 91/1/6 92/1/6
f 93/1/3 94/1/3 95/1/3 96/1/3
f 97/1/5 98/1/5 99/1/5 100/1/5
f 101/1/6 102/1/6 103/1/6 104/1/6
f 105/1/3 106/1/3 107/1/3 108/1/3
f 109/1/5 110/1/5 111/1/5 112/1/5
f 113/1/6 114/1/6 115/1/6 116/1/6
f 117/1/3 118/1/3 119/1/3 120/1/3
f 121/1/4 122/1/4 123/1/4 124/1/4
f 125/1/5 126/1/5 127/1/5 128/1/5
f 129/1/6 130/1/6 131/1/6 132/1/6
f 133/1/2 134/1/2 135/1/2 136/1/2
f 137/1/3 138/1/3 139/1/3 140/1/3
f 141/1/4 142/1/4 143/1/4 144/1/4
f 145/1/5 146/1/5 147/1/5 148/1/5
f 149/1/6 150/1/6 151/1/6 152/1/6
f 153/1/1 154/1/1 155/1/1 156/1/1
f 157/1/5 158/1/5 159/1/5 160/1/5
f 161/1/6 162/1/6 163/1/6 164/1/6
f 165/1/5 166/1/5 167/1/5 168/1/5
f 169/1/6 170/1/6 171/1/6 172/1/6
f 173/1/5 174/1/5 175/1/5 176/1/5
f 177/1/6 178/1/6 179/1/6 180/1/6
f 181/1/2 182/1/2 183/1/2 184/1/2
f 185/1/4 186/1/4 187/1/4 188/1/4
f 189/1/5 190/1/5 191/1/5 192/1/5
f 193/1/6 194/1/6 195/1/6 196/1/6
f 197/1/1 198/1/1 199/1/1 200/1/1
f 201/1/5 202/1/5 203/1/5 204/1/5
f 205/1/6 206/1/6 207/1/6 208/1/6
f 209/1/2 210/1/2 211/1/2 212/1/2
f 213/1/4 214/1/4 215/1/4 216/1/4
f 217/1/5 218/1/5 219/1/5 220/1/5
f 221/1/6 222/1/6 223/1/6 224/1/6
f 225/1/1 226/1/1 227/1/1 228/1/1
f 229/1/3 230/1/3 231/1/3 232/1/3
f 233/1/5 234/1/5 235/1/5 236/1/5
f 237/1/6 238/1/6 239/1/6 240/1/6
f 241/1/5 242/1/5 243/1/5 244/1/5
f 245/1/6 246/1/6 247/1/6 248/1/6
f 249/1/5 250/1/5 251/1/5 252/1/5
f 253/1/6 254/1/6 255/1/6 256/1/6
f 257/1/2 258/1/2 259/1/2 260/1/2
f 261/1/4 262/1/4 263/1/4 264/1/4
f 265/1/5 266/1/5 267/1/5 268/1/5
f 269/1/6 270/1/6 271/1/6 272/1/6
f 273/1/1 274/1/1 275/1/1 276/1/1
f 277/1/3 278/1/3 279/1/3 280/1/3
f 281/1/4 282/1/4 283/1/4 284/1/4
f 285/1/5 286/1/5 287/1/5 288/1/5
f 289/1/6 290/1/6 291/1/6 292/1/6
f 293/1/2 294/1/2 295/1/2 296/1/2
f 297/1/4 298/1/4 299/1/4 300/1/4
f 301/1/5 302/1/5 303/1/5 304/1/5
f 305/1/6 306/1/6 307/1/6 308/1/6
f 309/1/1 310/1/1 311/1/1 312/1/1
f 313/1/5 314/1/5 315/1/5 316/1/5
f 317/1/6 318/1/6 319/1/6 320/1/6
f 321/1/5 322/1/5 323/1/5 324/1/5
f 325/1/6 326/1/6 327/1/6 328/1/6
f 329/1/2 330/1/2 331/1/2 332/1/2
f 333/1/4 334/1/4 335/1/4 336/1/4
f 337/1/5 338/1/5 339/1/5 340/1/5
f 341/1/6 342/1/6 343/1/6 344/1/6
f 345/1/1 346/1/1 347/1/1 348/1/1
f 349/1/3 350/1/3 351/1/3 352/1/3
f 353/1/5 354/1/5 355/1/5 356/1/5
f 357/1/6 358/1/6 359/1/6 360/1/6
f 361/1/5 362/1/5 363/1/5 364/1/5
f 365/1/6 366/1/6 367/1/6 368/1/6
f 369/1/2 370/1/2 371/1/2 372/1/2
f 373/1/4 374/1/4 375/1/4 376/1/4
f 377/1/5 378/1/5 379/1/5 380/1/5
f 381/1/6 382/1/6 383/1/6 384/1/6
f 385/1/1 386/1/1 387/1/1 388/1/1
f 389/1/5 390/1/5 391/1/5 392/1/5
f 393/1/6 394/1/6 395/1/6 396/1/6
f 397/1/2 398/1/2 399/1/2 400/1/2
f 401/1/4 402/1/4 403/1/4 404/1/4
f 405/1/5 406/1/5 407/1/5 408/1/5
f 409/1/6 410/1/6 411/1/6 412/1/6
f 413/1/1 414/1/1 415/1/1 416/1/1
f 417/1/2 418/1/2 419/1/2 420/1/2
f 421/1/4 422/1/4 423/1/4 424/1/4
f 425/1/5 426/1/5 427/1/5 428/1/5
f 429/1/6 430/1/6 431/1/6 432/1/6
f 433/1/1 434/1/1 435/1/1 436/1/1
f 437/1/2 438/1/2 439/1/2 440/1/2
f 441/1/3 442/1/3 443/1/3 444/1/3
f 445/1/4 446/1/4 447/1/4 448/1/4
f 449/1/5 450/1/5 451/1/5 452/1/5
f 453/1/6 454/1/6 455/1/6 456/1/6
f 457/1/1 458/1/1 459/1/1 460/1/1
f 461/1/2 462/1/2 463/1/2 464/1/2
f 465/1/3 466/1/3 467/1/3 468/1/3
f 469/1/4 470/1/4 471/1/4 472/1/4
f 473/1/5 474/1/5 475/1/5 476/1/5
f 477/1/6 478/1/6 479/1/6 480/1/6
f 481/1/1 482/1/1 483/1/1 484/1/1
f 485/1/2 486/1/2 487/1/2 488/1/2
f 489/1/3 490/1/3 491/1/3 492/1/3
f 493/1/5 494/1/5 495/1/5 496/1/5
f 497/1/6 498/1/6 499/1/6 500/1/6
f 501/1/1 502/1/1 503/1/1 504/1/1
f 505/1/5 506/1/5 507/1/5 508/1/5
f 509/1/6 510/1/6 511/1/6 512/1/6
f 513/1/3 514/1/3 515/1/3 516/1/3
f 517/1/5 518/1/5 519/1/5 520/1/5
f 521/1/6 522/1/6 523/1/6 524/1/6
f 525/1/2 526/1/2 527/1/2 528/1/2
f 529/1/3 530/1/3 531/1/3 532/1/3
f 533/1/5 534/1/5 535/1/5 536/1/5
f 537/1/6 538/1/6 539/1/6 540/1/6
f 541/1/1 542/1/1 543/1/1 544/1/1
f 545/1/5 546/1/5 547/1/5 548/1/5
f 549/1/6 550/1/6 551/1/6 552/1/6
f 553/1/5 554/1/5 555/1/5 556/1/5
f 557/1/6 558/1/6 559/1/6 560/1/6
f 561/1/5 562/1/5 563/1/5 564/1/5
f 565/1/6 566/1/6 567/1/6 568/1/6
f 569/1/3 570/1/3 571/1/3 572/1/3
f 573/1/5 574/1/5 575/1/5 576/1/5
f 577/1/6 578/1/6 579/1/6 580/1/6
f 581/1/2 582/1/2 583/1/2 584/1/2
f 585/1/3 586/1/3 587/1/3 588/1/3
f 589/1/5 590/1/5 591/1/5 592/1/5
f 593/1/6 594/1/6 595/1/6 596/1/6
f 597/1/1 598/1/1 599/1/1 600/1/1
f 601/1/4 602/1/4 603/1/4 604/1/4
f 605/1/5 606/1/5 607/1/5 608/1/5
f 609/1/6 610/1/6 611/1/6 612/1/6
f 613/1/5 614/1/5 615/1/5 616/1/5
f 617/1/6 618/1/6 619/1/6 620/1/6
f 621/1/5 622/1/5 623/1/5 624/1/5
f 625/1/6 626/1/6 627/1/6 628/1/6
f 629/1/5 630/1/5 631/1/5 632/1/5
f 633/1/6 634/1/6 635/1/6 636/1/6
f 637/1/5 638/1/5 639/1/5 640/1/5
f 641/1/6 642/1/6 643/1/6 644/1/6
f 645/1/3 646/1/3 647/1/3 648/1/3
f 649/1/5 650/1/5 651/1/5 652/1/5
f 653/1/6 654/1/6 655/1/6 656/1/6
f 657/1/2 658/1/2 659/1/2 660/1/2
f 661/1/3 662/1/3 663/1/3 664/1/3
f 665/1/5 666/1/5 667/1/5 668/1/5
f 669/1/6 670/1/6 671/1/6 672/1/6
f 673/1/1 674/1/1 675/1/1 676/1/1
f 677/1/4 678/1/4 679/1/4 680/1/4
f 681/1/5 682/1/5 683/1/5 684/1/5
f 685/1/6 686/1/6 687/1/6 688/1/6
f 689/1/5 690/1/5 691/1/5 692/1/5
f 693/1/6 694/1/6 695/1/6 696/1/6
f 697/1/5 698/1/5 699/1/5 700/1/5
f 701/1/6 702/1/6 703/1/6 704/1/6
f 705/1/5 706/1/5 707/1/5 708/1/5
f 709/1/6 710/1/6 711/1/6 712/1/6
f 713/1/5 714/1/5 715/1/5 716/1/5
f 717/1/6 718/1/6 719/1/6 720/1/6
f 721/1/5 722/1/5 723/1/5 724/1/5
f 725/1/6 726/1/6 727/1/6 728/1/6
f 729/1/2 730/1/2 731/1/2 732/1/2
f 733/1/3 734/1/3 735/1/3 736/1/3
f 737/1/5 738/1/5 739/1/5 740/1/5
f 741/1/6 742/1/6 743/1/6 744/1/6
f 745/1/1 746/1/1 747/1/1 748/1/1
f 749/1/5 750/1/5 751/1/5 752/1/5
f 753/1/6 754/1/6 755/1/6 756/1/6
f 757/1/5 758/1/5 759/1/5 760/1/5
f 761/1/6 762/1/6 763/1/6 764/1/6
f 765/1/5 766/1/5 767/1/5 768/1/5
f 769/1/6 770/1/6 771/1/6 772/1/6
f 773/1/5 774/1/5 775/1/5 776/1/5
f 777/1/6 778/1/6 779/1/6 780/1/6
f 781/1/5 782/1/5 783/1/5 784/1/5
f 785/1/6 786/1/6 787/1/6 788/1/6
f 789/1/5 790/1/5 791/1/5 792/1/5
f 793/1/6 794/1/6 795/1/6 796/1/6
f 797/1/3 798/1/3 799/1/3 800/1/3
f 801/1/5 802/1/5 803/1/5 804/1/5
f 805/1/6 806/1/6 807/1/6 808/1/6
f 809/1/2 810/1/2 811/1/2 812/1/2
f 813/1/3 814/1/3 815/1/3 816/1/3
f 817/1/5 818/1/5 819/1/5 820/1/5
f 821/1/6 822/1/6 823/1/6 824/1/6
f 825/1/1 826/1/1 827/1/1 828/1/1
f 829/1/4 830/1/4 831/1/4 832/1/4
f 833/1/5 834/1/5 835/1/5 836/1/5
f 837/1/6 838/1/6 839/1/6 840/1/6
f 841/1/5 842/1/5 843/1/5 844/1/5
f 845/1/6 846/1/6 847/1/6 848/1/6
f 849/1/5 850/1/5 851/1/5 852/1/5
f 853/1/6 854/1/6 855/1/6 856/1/6
f 857/1/5 858/1/5 859/1/5 860/1/5
f 861/1/6 862/1/6 863/1/6 864/1/6
f 865/1/5 866/1/5 867/1/5 868/1/5
f 869/1/6 870/1/6 871/1/6 872/1/6
f 873/1/5 874/1/5 875/1/5 876/1/5
f 877/1/6 878/1/6 879/1/6 880/1/6
f 881/1/5 882/1/5 883/1/5 884/1/5
f 885/1/6 886/1/6 887/1/6 888/1/6
f 889/1/5 890/1/5 891/1/5 892/1/5
f 893/1/6 894/1/6 895/1/6 896/1/6
f 897/1/3 898/1/3 899/1/3 900/1/3
f 901/1/5 902/1/5 903/1/5 904/1/5
f 905/1/6 906/1/6 907/1/6 908/1/6
f 909/1/2 910/1/2 911/1/2 912/1/2
f 913/1/3 914/1/3 915/1/3 916/1/3
f 917/1/5 918/1/5 919/1/5 920/1/5
f 921/1/6 922/1/6 923/1/6 924/1/6
f 925/1/1 926/1/1 927/1/1 928/1/1
f 929/1/5 930/1/5 931/1/5 932/1/5
f 933/1/6 934/1/6 935/1/6 936/1/6
f 937/1/5 938/1/5 939/1/5 940/1/5
f 941/1/6 942/1/6 943/1/6 944/1/6
f 945/1/5 946/1/5 947/1/5 948/1/5
f 949/1/6 950/1/6 951/1/6 952/1/6
f 953/1/5 954/1/5 955/1/5 956/1/5
f 957/1/6 958/1/6 959/1/6 960/1/6
f 961/1/5 962/1/5 963/1/5 964/1/5
f 965/1/6 966/1/6 967/1/6 968/1/6
f 969/1/5 970/1/5 971/1/5 972/1/5
f 973/1/6 974/1/6 975/1/6 976/1/6
f 977/1/5 978/1/5 979/1/5 980/1/5
f 981/1/6 982/1/6 983/1/6 984/1/6
f 985/1/5 986/1/5 987/1/5 988/1/5
f 989/1/6 990/1/6 991/1/6 992/1/6
f 993/1/5 994/1/5 995/1/5 996/1/5
f 997/1/6 998/1/6 999/1/6 1000/1/6
f 1001/1/3 1002/1/3 1003/1/3 1004/1/3
f 1005/1/5 1006/1/5 1007/1/5 1008/1/5
f 1009/1/6 1010/1/6 1011/1/6 1012/1/6
f 1013/1/2 1014/1/2 1015/1/2 1016/1/2
f 1017/1/3 1018/1/3 1019/1/3 1020/1/3
f 1021/1/5 1022/1/5 1023/1/5 1024/1/5
f 1025/1/6 1026/1/6 1027/1/6 1028/1/6
f 1029/1/1 1030/1/1 1031/1/1 1032/1/1
f 1033/1/2 1034/1/2 1035/1/2 1036/1/2
f 1037/1/3 1038/1/3 1039/1/3 1040/1/3
f 1041/1/4 1042/1/4 1043/1/4 1044/1/4
f 1045/1/5 1046/1/5 1047/1/5 1048/1/5
f 1049/1/6 1050/1/6 1051/1/6 1052/1/6
f 1053/1/1 1054/1/1 1055/1/1 1056/1/1
f 1057/1/3 1058/1/3 1059/1/3 1060/1/3
f 1061/1/4 1062/1/4 1063/1/4 1064/1/4
f 1065/1/5 1066/1/5 1067/1/5 1068/1/5
f 1069/1/6 1070/1/6 1071/1/6 1072/1/6
f 1073/1/4 1074/1/4 1075/1/4 1076/1/4
f 1077/1/5 1078/1/5 1079/1/5 1080/1/5
f 1081/1/6 1082/1/6 1083/1/6 1084/1/6
f 1085/1/4 1086/1/4 1087/1/4 1088/1/4
f 1089/1/5 1090/1/5 1091/1/5 1092/1/5
f 1093/1/6 1094/1/6 1095/1/6 1096/1/6
f 1097/1/4 1098/1/4 1099/1/4 1100/1/4
f 1101/1/5 1102/1/5 1103/1/5 1104/1/5
f 1105/1/6 1106/1/6 1107/1/6 1108/1/6
f 1109/1/5 1110/1/5 1111/1/5 1112/1/5
f 1113/1/6 1114/1/6 1115/1/6 1116/1/6
f 1117/1/5 1118/1/5 1119/1/5 1120/1/5
f 1121/1/6 1122/1/6 1123/1/6 1124/1/6
f 1125/1/4 1126/1/4 1127/1/4 1128/1/4
f 1129/1/5 1130/1/5 1131/1/5 1132/1/5
f 1133/1/6 1134/1/6 1135/1/6 1136/1/6
f 1137/1/4 1138/1/4 1139/1/4 1140/1/4
f 1141/1/5 1142/1/5 1143/1/5 1144/1/5
f 1145/1/6 1146/1/6 1147/1/6 1148/1/6
f 1149/1/4 1150/1/4 1151/1/4 1152/1/4
f 1153/1/5 1154/1/5 1155/1/5 1156/1/5
f 1157/1/6 1158/1/6 1159/1/6 1160/1/6
f 1161/1/4 1162/1/4 1163/1/4 1164/1/4
f 1165/1/5 1166/1/5 1167/1/5 1168/1/5
f 1169/1/6 1170/1/6 1171/1/6 1172/1/6
f 1173/1/4 1174/1/4 1175/1/4 1176/1/4
f 1177/1/5 1178/1/5 1179/1/5 1180/1/5
f 1181/1/6 1182/1/6 1183/1/6 1184/1/6
f 1185/1/4 1186/1/4 1187/1/4 1188/1/4
f 1189/1/5 1190/1/5 1191/1/5 1192/1/5
f 1193/1/6 1194/1/6 1195/1/6 1196/1/6
f 1197/1/3 1198/1/3 1199/1/3 1200/1/3
f 1201/1/4 1202/1/4 1203/1/4 1204/1/4
f 1205/1/5 1206/1/5 1207/1/5 1208/1/5
f 1209/1/6 1210/1/6 1211/1/6 1212/1/6
f 1213/1/2 1214/1/2 1215/1/2 1216/1/2
f 1217/1/3 1218/1/3 1219/1/3 1220/1/3
f 1221/1/4 1222/1/4 1223/1/4 1224/1/4
f 1225/1/5 1226/1/5 1227/1/5 1228/1/5
f 1229/1/6 1230/1/6 1231/1/6 1232/1/6
f 1233/1/1 1234/1/1 1235/1/1 1236/1/1
f 1237/1/4 1238/1/4 1239/1/4 1240/1/4
f 1241/1/5 1242/1/5 1243/1/5 1244/1/5
f 1245/1/6 1246/1/6 1247/1/6 1248/1/6
f 1249/1/2 1250/1/2 1251/1/2 1252/1/2
f 1253/1/4 1254/1/4 1255/1/4 1256/1/4
f 1257/1/5 1258/1/5 1259/1/5 1260/1/5
f 1261/1/6 1262/1/6 1263/1/6 1264/1/6

