# generated by vox_to_obj_exporter
# scale=0.1 center=false ground=false y_up=true

mtllib Fight_109.mtl
usemtl palette

# normals
vn -1 0 0
vn 1 0 0
vn 0 1 0
vn 0 -1 0
vn 0 0 1
vn 0 0 -1

# texcoords
vt 0.224609375 0.5

# verts
v 15 11.5 -2.6
v 15 11.4 -2.6
v 15 11.4 -2.5
v 15 11.5 -2.5
v 15.1 11.5 -2.5
v 15.1 11.4 -2.5
v 15.1 11.4 -2.6
v 15.1 11.5 -2.6
v 15 11.5 -2.6
v 15 11.5 -2.5
v 15.1 11.5 -2.5
v 15.1 11.5 -2.6
v 15 11.5 -2.5
v 15 11.4 -2.5
v 15.1 11.4 -2.5
v 15.1 11.5 -2.5
v 15.1 11.5 -2.6
v 15.1 11.4 -2.6
v 15 11.4 -2.6
v 15 11.5 -2.6
v 14.9 11.4 -2.6
v 14.9 11.3 -2.6
v 14.9 11.3 -2.5
v 14.9 11.4 -2.5
v 14.9 11.4 -2.6
v 14.9 11.4 -2.5
v 15 11.4 -2.5
v 15 11.4 -2.6
v 14.9 11.3 -2.5
v 14.9 11.3 -2.6
v 15 11.3 -2.6
v 15 11.3 -2.5
v 14.9 11.4 -2.5
v 14.9 11.3 -2.5
v 15 11.3 -2.5
v 15 11.4 -2.5
v 15 11.4 -2.6
v 15 11.3 -2.6
v 14.9 11.3 -2.6
v 14.9 11.4 -2.6
v 15 11.3 -2.5
v 15 11.3 -2.6
v 15.1 11.3 -2.6
v 15.1 11.3 -2.5
v 15 11.4 -2.5
v 15 11.3 -2.5
v 15.1 11.3 -2.5
v 15.1 11.4 -2.5
v 15.1 11.4 -2.6
v 15.1 11.3 -2.6
v 15 11.3 -2.6
v 15 11.4 -2.6
v 15.2 11.4 -2.5
v 15.2 11.3 -2.5
v 15.2 11.3 -2.6
v 15.2 11.4 -2.6
v 15.1 11.4 -2.6
v 15.1 11.4 -2.5
v 15.2 11.4 -2.5
v 15.2 11.4 -2.6
v 15.1 11.3 -2.5
v 15.1 11.3 -2.6
v 15.2 11.3 -2.6
v 15.2 11.3 -2.5
v 15.1 11.4 -2.5
v 15.1 11.3 -2.5
v 15.2 11.3 -2.5
v 15.2 11.4 -2.5
v 15.2 11.4 -2.6
v 15.2 11.3 -2.6
v 15.1 11.3 -2.6
v 15.1 11.4 -2.6
v 15.6 11.4 -2.6
v 15.6 11.3 -2.6
v 15.6 11.3 -2.5
v 15.6 11.4 -2.5
v 15.7 11.4 -2.5
v 15.7 11.3 -2.5
v 15.7 11.3 -2.6
v 15.7 11.4 -2.6
v 15.6 11.4 -2.6
v 15.6 11.4 -2.5
v 15.7 11.4 -2.5
v 15.7 11.4 -2.6
v 15.6 11.4 -2.5
v 15.6 11.3 -2.5
v 15.7 11.3 -2.5
v 15.7 11.4 -2.5
v 15.7 11.4 -2.6
v 15.7 11.3 -2.6
v 15.6 11.3 -2.6
v 15.6 11.4 -2.6
v 15.5 11.3 -2.6
v 15.5 11.2 -2.6
v 15.5 11.2 -2.5
v 15.5 11.3 -2.5
v 15.5 11.3 -2.6
v 15.5 11.3 -2.5
v 15.6 11.3 -2.5
v 15.6 11.3 -2.6
v 15.5 11.2 -2.5
v 15.5 11.2 -2.6
v 15.6 11.2 -2.6
v 15.6 11.2 -2.5
v 15.5 11.3 -2.5
v 15.5 11.2 -2.5
v 15.6 11.2 -2.5
v 15.6 11.3 -2.5
v 15.6 11.3 -2.6
v 15.6 11.2 -2.6
v 15.5 11.2 -2.6
v 15.5 11.3 -2.6
v 15.7 11.3 -2.5
v 15.7 11.2 -2.5
v 15.7 11.2 -2.6
v 15.7 11.3 -2.6
v 15.6 11.2 -2.5
v 15.6 11.2 -2.6
v 15.7 11.2 -2.6
v 15.7 11.2 -2.5
v 15.6 11.3 -2.5
v 15.6 11.2 -2.5
v 15.7 11.2 -2.5
v 15.7 11.3 -2.5
v 15.7 11.3 -2.6
v 15.7 11.2 -2.6
v 15.6 11.2 -2.6
v 15.6 11.3 -2.6
v 15.4 11.2 -2.6
v 15.4 11.1 -2.6
v 15.4 11.1 -2.5
v 15.4 11.2 -2.5
v 15.5 11.2 -2.5
v 15.5 11.1 -2.5
v 15.5 11.1 -2.6
v 15.5 11.2 -2.6
v 15.4 11.2 -2.6
v 15.4 11.2 -2.5
v 15.5 11.2 -2.5
v 15.5 11.2 -2.6
v 15.4 11.1 -2.5
v 15.4 11.1 -2.6
v 15.5 11.1 -2.6
v 15.5 11.1 -2.5
v 15.4 11.2 -2.5
v 15.4 11.1 -2.5
v 15.5 11.1 -2.5
v 15.5 11.2 -2.5
v 15.5 11.2 -2.6
v 15.5 11.1 -2.6
v 15.4 11.1 -2.6
v 15.4 11.2 -2.6
v 15.2 11.1 -2.6
v 15.2 11 -2.6
v 15.2 11 -2.5
v 15.2 11.1 -2.5
v 15.3 11.1 -2.5
v 15.3 11 -2.5
v 15.3 11 -2.6
v 15.3 11.1 -2.6
v 15.2 11.1 -2.6
v 15.2 11.1 -2.5
v 15.3 11.1 -2.5
v 15.3 11.1 -2.6
v 15.2 11.1 -2.5
v 15.2 11 -2.5
v 15.3 11 -2.5
v 15.3 11.1 -2.5
v 15.3 11.1 -2.6
v 15.3 11 -2.6
v 15.2 11 -2.6
v 15.2 11.1 -2.6
v 15.1 11 -2.6
v 15.1 10.9 -2.6
v 15.1 10.9 -2.5
v 15.1 11 -2.5
v 15.1 11 -2.6
v 15.1 11 -2.5
v 15.2 11 -2.5
v 15.2 11 -2.6
v 15.1 11 -2.5
v 15.1 10.9 -2.5
v 15.2 10.9 -2.5
v 15.2 11 -2.5
v 15.2 11 -2.6
v 15.2 10.9 -2.6
v 15.1 10.9 -2.6
v 15.1 11 -2.6
v 15.2 11 -2.5
v 15.2 10.9 -2.5
v 15.3 10.9 -2.5
v 15.3 11 -2.5
v 15.3 11 -2.6
v 15.3 10.9 -2.6
v 15.2 10.9 -2.6
v 15.2 11 -2.6
v 15.3 11 -2.6
v 15.3 11 -2.5
v 15.4 11 -2.5
v 15.4 11 -2.6
v 15.3 11 -2.5
v 15.3 10.9 -2.5
v 15.4 10.9 -2.5
v 15.4 11 -2.5
v 15.4 11 -2.6
v 15.4 10.9 -2.6
v 15.3 10.9 -2.6
v 15.3 11 -2.6
v 15.5 11 -2.5
v 15.5 10.9 -2.5
v 15.5 10.9 -2.6
v 15.5 11 -2.6
v 15.4 11 -2.6
v 15.4 11 -2.5
v 15.5 11 -2.5
v 15.5 11 -2.6
v 15.4 10.9 -2.5
v 15.4 10.9 -2.6
v 15.5 10.9 -2.6
v 15.5 10.9 -2.5
v 15.4 11 -2.5
v 15.4 10.9 -2.5
v 15.5 10.9 -2.5
v 15.5 11 -2.5
v 15.5 11 -2.6
v 15.5 10.9 -2.6
v 15.4 10.9 -2.6
v 15.4 11 -2.6
v 15.1 10.9 -2.6
v 15.1 10.8 -2.6
v 15.1 10.8 -2.5
v 15.1 10.9 -2.5
v 15.1 10.9 -2.5
v 15.1 10.8 -2.5
v 15.2 10.8 -2.5
v 15.2 10.9 -2.5
v 15.2 10.9 -2.6
v 15.2 10.8 -2.6
v 15.1 10.8 -2.6
v 15.1 10.9 -2.6
v 15.2 10.8 -2.5
v 15.2 10.8 -2.6
v 15.3 10.8 -2.6
v 15.3 10.8 -2.5
v 15.2 10.9 -2.5
v 15.2 10.8 -2.5
v 15.3 10.8 -2.5
v 15.3 10.9 -2.5
v 15.3 10.9 -2.6
v 15.3 10.8 -2.6
v 15.2 10.8 -2.6
v 15.2 10.9 -2.6
v 15.4 10.9 -2.5
v 15.4 10.8 -2.5
v 15.4 10.8 -2.6
v 15.4 10.9 -2.6
v 15.3 10.9 -2.5
v 15.3 10.8 -2.5
v 15.4 10.8 -2.5
v 15.4 10.9 -2.5
v 15.4 10.9 -2.6
v 15.4 10.8 -2.6
v 15.3 10.8 -2.6
v 15.3 10.9 -2.6
v 15.7 10.9 -2.6
v 15.7 10.8 -2.6
v 15.7 10.8 -2.5
v 15.7 10.9 -2.5
v 15.8 10.9 -2.5
v 15.8 10.8 -2.5
v 15.8 10.8 -2.6
v 15.8 10.9 -2.6
v 15.7 10.9 -2.6
v 15.7 10.9 -2.5
v 15.8 10.9 -2.5
v 15.8 10.9 -2.6
v 15.7 10.8 -2.5
v 15.7 10.8 -2.6
v 15.8 10.8 -2.6
v 15.8 10.8 -2.5
v 15.7 10.9 -2.5
v 15.7 10.8 -2.5
v 15.8 10.8 -2.5
v 15.8 10.9 -2.5
v 15.8 10.9 -2.6
v 15.8 10.8 -2.6
v 15.7 10.8 -2.6
v 15.7 10.9 -2.6
v 15.1 10.8 -2.6
v 15.1 10.7 -2.6
v 15.1 10.7 -2.5
v 15.1 10.8 -2.5
v 15.2 10.8 -2.5
v 15.2 10.7 -2.5
v 15.2 10.7 -2.6
v 15.2 10.8 -2.6
v 15.1 10.8 -2.5
v 15.1 10.7 -2.5
v 15.2 10.7 -2.5
v 15.2 10.8 -2.5
v 15.2 10.8 -2.6
v 15.2 10.7 -2.6
v 15.1 10.7 -2.6
v 15.1 10.8 -2.6
v 15.3 10.8 -2.6
v 15.3 10.7 -2.6
v 15.3 10.7 -2.5
v 15.3 10.8 -2.5
v 15.3 10.7 -2.5
v 15.3 10.7 -2.6
v 15.4 10.7 -2.6
v 15.4 10.7 -2.5
v 15.3 10.8 -2.5
v 15.3 10.7 -2.5
v 15.4 10.7 -2.5
v 15.4 10.8 -2.5
v 15.4 10.8 -2.6
v 15.4 10.7 -2.6
v 15.3 10.7 -2.6
v 15.3 10.8 -2.6
v 15.4 10.8 -2.6
v 15.4 10.8 -2.5
v 15.5 10.8 -2.5
v 15.5 10.8 -2.6
v 15.4 10.7 -2.5
v 15.4 10.7 -2.6
v 15.5 10.7 -2.6
v 15.5 10.7 -2.5
v 15.4 10.8 -2.5
v 15.4 10.7 -2.5
v 15.5 10.7 -2.5
v 15.5 10.8 -2.5
v 15.5 10.8 -2.6
v 15.5 10.7 -2.6
v 15.4 10.7 -2.6
v 15.4 10.8 -2.6
v 15.6 10.8 -2.5
v 15.6 10.7 -2.5
v 15.6 10.7 -2.6
v 15.6 10.8 -2.6
v 15.5 10.8 -2.6
v 15.5 10.8 -2.5
v 15.6 10.8 -2.5
v 15.6 10.8 -2.6
v 15.5 10.7 -2.5
v 15.5 10.7 -2.6
v 15.6 10.7 -2.6
v 15.6 10.7 -2.5
v 15.5 10.8 -2.5
v 15.5 10.7 -2.5
v 15.6 10.7 -2.5
v 15.6 10.8 -2.5
v 15.6 10.8 -2.6
v 15.6 10.7 -2.6
v 15.5 10.7 -2.6
v 15.5 10.8 -2.6
v 15.1 10.7 -2.6
v 15.1 10.6 -2.6
v 15.1 10.6 -2.5
v 15.1 10.7 -2.5
v 15.1 10.7 -2.5
v 15.1 10.6 -2.5
v 15.2 10.6 -2.5
v 15.2 10.7 -2.5
v 15.2 10.7 -2.6
v 15.2 10.6 -2.6
v 15.1 10.6 -2.6
v 15.1 10.7 -2.6
v 15.3 10.7 -2.5
v 15.3 10.6 -2.5
v 15.3 10.6 -2.6
v 15.3 10.7 -2.6
v 15.2 10.7 -2.6
v 15.2 10.7 -2.5
v 15.3 10.7 -2.5
v 15.3 10.7 -2.6
v 15.2 10.6 -2.5
v 15.2 10.6 -2.6
v 15.3 10.6 -2.6
v 15.3 10.6 -2.5
v 15.2 10.7 -2.5
v 15.2 10.6 -2.5
v 15.3 10.6 -2.5
v 15.3 10.7 -2.5
v 15.3 10.7 -2.6
v 15.3 10.6 -2.6
v 15.2 10.6 -2.6
v 15.2 10.7 -2.6
v 15.6 10.7 -2.6
v 15.6 10.6 -2.6
v 15.6 10.6 -2.5
v 15.6 10.7 -2.5
v 15.7 10.7 -2.5
v 15.7 10.6 -2.5
v 15.7 10.6 -2.6
v 15.7 10.7 -2.6
v 15.6 10.7 -2.6
v 15.6 10.7 -2.5
v 15.7 10.7 -2.5
v 15.7 10.7 -2.6
v 15.6 10.6 -2.5
v 15.6 10.6 -2.6
v 15.7 10.6 -2.6
v 15.7 10.6 -2.5
v 15.6 10.7 -2.5
v 15.6 10.6 -2.5
v 15.7 10.6 -2.5
v 15.7 10.7 -2.5
v 15.7 10.7 -2.6
v 15.7 10.6 -2.6
v 15.6 10.6 -2.6
v 15.6 10.7 -2.6
v 15.1 10.6 -2.6
v 15.1 10.5 -2.6
v 15.1 10.5 -2.5
v 15.1 10.6 -2.5
v 15.2 10.6 -2.5
v 15.2 10.5 -2.5
v 15.2 10.5 -2.6
v 15.2 10.6 -2.6
v 15.1 10.5 -2.5
v 15.1 10.5 -2.6
v 15.2 10.5 -2.6
v 15.2 10.5 -2.5
v 15.1 10.6 -2.5
v 15.1 10.5 -2.5
v 15.2 10.5 -2.5
v 15.2 10.6 -2.5
v 15.2 10.6 -2.6
v 15.2 10.5 -2.6
v 15.1 10.5 -2.6
v 15.1 10.6 -2.6
v 15.5 10.6 -2.6
v 15.5 10.5 -2.6
v 15.5 10.5 -2.5
v 15.5 10.6 -2.5
v 15.6 10.6 -2.5
v 15.6 10.5 -2.5
v 15.6 10.5 -2.6
v 15.6 10.6 -2.6
v 15.5 10.6 -2.6
v 15.5 10.6 -2.5
v 15.6 10.6 -2.5
v 15.6 10.6 -2.6
v 15.5 10.6 -2.5
v 15.5 10.5 -2.5
v 15.6 10.5 -2.5
v 15.6 10.6 -2.5
v 15.6 10.6 -2.6
v 15.6 10.5 -2.6
v 15.5 10.5 -2.6
v 15.5 10.6 -2.6
v 15.4 10.5 -2.6
v 15.4 10.4 -2.6
v 15.4 10.4 -2.5
v 15.4 10.5 -2.5
v 15.4 10.5 -2.6
v 15.4 10.5 -2.5
v 15.5 10.5 -2.5
v 15.5 10.5 -2.6
v 15.4 10.4 -2.5
v 15.4 10.4 -2.6
v 15.5 10.4 -2.6
v 15.5 10.4 -2.5
v 15.4 10.5 -2.5
v 15.4 10.4 -2.5
v 15.5 10.4 -2.5
v 15.5 10.5 -2.5
v 15.5 10.5 -2.6
v 15.5 10.4 -2.6
v 15.4 10.4 -2.6
v 15.4 10.5 -2.6
v 15.6 10.5 -2.5
v 15.6 10.4 -2.5
v 15.6 10.4 -2.6
v 15.6 10.5 -2.6
v 15.5 10.4 -2.5
v 15.5 10.4 -2.6
v 15.6 10.4 -2.6
v 15.6 10.4 -2.5
v 15.5 10.5 -2.5
v 15.5 10.4 -2.5
v 15.6 10.4 -2.5
v 15.6 10.5 -2.5
v 15.6 10.5 -2.6
v 15.6 10.4 -2.6
v 15.5 10.4 -2.6
v 15.5 10.5 -2.6
v 15.3 10.4 -2.6
v 15.3 10.3 -2.6
v 15.3 10.3 -2.5
v 15.3 10.4 -2.5
v 15.4 10.4 -2.5
v 15.4 10.3 -2.5
v 15.4 10.3 -2.6
v 15.4 10.4 -2.6
v 15.3 10.4 -2.6
v 15.3 10.4 -2.5
v 15.4 10.4 -2.5
v 15.4 10.4 -2.6
v 15.3 10.3 -2.5
v 15.3 10.3 -2.6
v 15.4 10.3 -2.6
v 15.4 10.3 -2.5
v 15.3 10.4 -2.5
v 15.3 10.3 -2.5
v 15.4 10.3 -2.5
v 15.4 10.4 -2.5
v 15.4 10.4 -2.6
v 15.4 10.3 -2.6
v 15.3 10.3 -2.6
v 15.3 10.4 -2.6
v 15.7 10.3 -2.6
v 15.7 10.2 -2.6
v 15.7 10.2 -2.5
v 15.7 10.3 -2.5
v 15.8 10.3 -2.5
v 15.8 10.2 -2.5
v 15.8 10.2 -2.6
v 15.8 10.3 -2.6
v 15.7 10.3 -2.6
v 15.7 10.3 -2.5
v 15.8 10.3 -2.5
v 15.8 10.3 -2.6
v 15.7 10.3 -2.5
v 15.7 10.2 -2.5
v 15.8 10.2 -2.5
v 15.8 10.3 -2.5
v 15.8 10.3 -2.6
v 15.8 10.2 -2.6
v 15.7 10.2 -2.6
v 15.7 10.3 -2.6
v 15.1 10.2 -2.6
v 15.1 10.1 -2.6
v 15.1 10.1 -2.5
v 15.1 10.2 -2.5
v 15.2 10.2 -2.5
v 15.2 10.1 -2.5
v 15.2 10.1 -2.6
v 15.2 10.2 -2.6
v 15.1 10.2 -2.6
v 15.1 10.2 -2.5
v 15.2 10.2 -2.5
v 15.2 10.2 -2.6
v 15.1 10.2 -2.5
v 15.1 10.1 -2.5
v 15.2 10.1 -2.5
v 15.2 10.2 -2.5
v 15.2 10.2 -2.6
v 15.2 10.1 -2.6
v 15.1 10.1 -2.6
v 15.1 10.2 -2.6
v 15.6 10.2 -2.6
v 15.6 10.1 -2.6
v 15.6 10.1 -2.5
v 15.6 10.2 -2.5
v 15.6 10.2 -2.6
v 15.6 10.2 -2.5
v 15.7 10.2 -2.5
v 15.7 10.2 -2.6
v 15.6 10.1 -2.5
v 15.6 10.1 -2.6
v 15.7 10.1 -2.6
v 15.7 10.1 -2.5
v 15.6 10.2 -2.5
v 15.6 10.1 -2.5
v 15.7 10.1 -2.5
v 15.7 10.2 -2.5
v 15.7 10.2 -2.6
v 15.7 10.1 -2.6
v 15.6 10.1 -2.6
v 15.6 10.2 -2.6
v 15.8 10.2 -2.5
v 15.8 10.1 -2.5
v 15.8 10.1 -2.6
v 15.8 10.2 -2.6
v 15.7 10.1 -2.5
v 15.7 10.1 -2.6
v 15.8 10.1 -2.6
v 15.8 10.1 -2.5
v 15.7 10.2 -2.5
v 15.7 10.1 -2.5
v 15.8 10.1 -2.5
v 15.8 10.2 -2.5
v 15.8 10.2 -2.6
v 15.8 10.1 -2.6
v 15.7 10.1 -2.6
v 15.7 10.2 -2.6
v 15.1 10.1 -2.6
v 15.1 10 -2.6
v 15.1 10 -2.5
v 15.1 10.1 -2.5
v 15.2 10.1 -2.5
v 15.2 10 -2.5
v 15.2 10 -2.6
v 15.2 10.1 -2.6
v 15.1 10 -2.5
v 15.1 10 -2.6
v 15.2 10 -2.6
v 15.2 10 -2.5
v 15.1 10.1 -2.5
v 15.1 10 -2.5
v 15.2 10 -2.5
v 15.2 10.1 -2.5
v 15.2 10.1 -2.6
v 15.2 10 -2.6
v 15.1 10 -2.6
v 15.1 10.1 -2.6
v 15.2 10 -2.6
v 15.2 9.9 -2.6
v 15.2 9.9 -2.5
v 15.2 10 -2.5
v 15.3 10 -2.5
v 15.3 9.9 -2.5
v 15.3 9.9 -2.6
v 15.3 10 -2.6
v 15.2 10 -2.6
v 15.2 10 -2.5
v 15.3 10 -2.5
v 15.3 10 -2.6
v 15.2 9.9 -2.5
v 15.2 9.9 -2.6
v 15.3 9.9 -2.6
v 15.3 9.9 -2.5
v 15.2 10 -2.5
v 15.2 9.9 -2.5
v 15.3 9.9 -2.5
v 15.3 10 -2.5
v 15.3 10 -2.6
v 15.3 9.9 -2.6
v 15.2 9.9 -2.6
v 15.2 10 -2.6

# faces
f 1/1/1 2/1/1 3/1/1 4/1/1
f 5/1/2 6/1/2 7/1/2 8/1/2
f 9/1/3 10/1/3 11/1/3 12/1/3
f 13/1/5 14/1/5 15/1/5 16/1/5
f 17/1/6 18/1/6 19/1/6 20/1/6
f 21/1/1 22/1/1 23/1/1 24/1/1
f 25/1/3 26/1/3 27/1/3 28/1/3
f 29/1/4 30/1/4 31/1/4 32/1/4
f 33/1/5 34/1/5 35/1/5 36/1/5
f 37/1/6 38/1/6 39/1/6 40/1/6
f 41/1/4 42/1/4 43/1/4 44/1/4
f 45/1/5 46/1/5 47/1/5 48/1/5
f 49/1/6 50/1/6 51/1/6 52/1/6
f 53/1/2 54/1/2 55/1/2 56/1/2
f 57/1/3 58/1/3 59/1/3 60/1/3
f 61/1/4 62/1/4 63/1/4 64/1/4
f 65/1/5 66/1/5 67/1/5 68/1/5
f 69/1/6 70/1/6 71/1/6 72/1/6
f 73/1/1 74/1/1 75/1/1 76/1/1
f 77/1/2 78/1/2 79/1/2 80/1/2
f 81/1/3 82/1/3 83/1/3 84/1/3
f 85/1/5 86/1/5 87/1/5 88/1/5
f 89/1/6 90/1/6 91/1/6 92/1/6
f 93/1/1 94/1/1 95/1/1 96/1/1
f 97/1/3 98/1/3 99/1/3 100/1/3
f 101/1/4 102/1/4 103/1/4 104/1/4
f 105/1/5 106/1/5 107/1/5 108/1/5
f 109/1/6 110/1/6 111/1/6 112/1/6
f 113/1/2 114/1/2 115/1/2 116/1/2
f 117/1/4 118/1/4 119/1/4 120/1/4
f 121/1/5 122/1/5 123/1/5 124/1/5
f 125/1/6 126/1/6 127/1/6 128/1/6
f 129/1/1 130/1/1 131/1/1 132/1/1
f 133/1/2 134/1/2 135/1/2 136/1/2
f 137/1/3 138/1/3 139/1/3 140/1/3
f 141/1/4 142/1/4 143/1/4 144/1/4
f 145/1/5 146/1/5 147/1/5 148/1/5
f 149/1/6 150/1/6 151/1/6 152/1/6
f 153/1/1 154/1/1 155/1/1 156/1/1
f 157/1/2 158/1/2 159/1/2 160/1/2
f 161/1/3 162/1/3 163/1/3 164/1/3
f 165/1/5 166/1/5 167/1/5 168/1/5
f 169/1/6 170/1/6 171/1/6 172/1/6
f 173/1/1 174/1/1 175/1/1 176/1/1
f 177/1/3 178/1/3 179/1/3 180/1/3
f 181/1/5 182/1/5 183/1/5 184/1/5
f 185/1/6 186/1/6 187/1/6 188/1/6
f 189/1/5 190/1/5 191/1/5 192/1/5
f 193/1/6 194/1/6 195/1/6 196/1/6
f 197/1/3 198/1/3 199/1/3 200/1/3
f 201/1/5 202/1/5 203/1/5 204/1/5
f 205/1/6 206/1/6 207/1/6 208/1/6
f 209/1/2 210/1/2 211/1/2 212/1/2
f 213/1/3 214/1/3 215/1/3 216/1/3
f 217/1/4 218/1/4 219/1/4 220/1/4
f 221/1/5 222/1/5 223/1/5 224/1/5
f 225/1/6 226/1/6 227/1/6 228/1/6
f 229/1/1 230/1/1 231/1/1 232/1/1
f 233/1/5 234/1/5 235/1/5 236/1/5
f 237/1/6 238/1/6 239/1/6 240/1/6
f 241/1/4 242/1/4 243/1/4 244/1/4
f 245/1/5 246/1/5 247/1/5 248/1/5
f 249/1/6 250/1/6 251/1/6 252/1/6
f 253/1/2 254/1/2 255/1/2 256/1/2
f 257/1/5 258/1/5 259/1/5 260/1/5
f 261/1/6 262/1/6 263/1/6 264/1/6
f 265/1/1 266/1/1 267/1/1 268/1/1
f 269/1/2 270/1/2 271/1/2 272/1/2
f 273/1/3 274/1/3 275/1/3 276/1/3
f 277/1/4 278/1/4 279/1/4 280/1/4
f 281/1/5 282/1/5 283/1/5 284/1/5
f 285/1/6 286/1/6 287/1/6 288/1/6
f 289/1/1 290/1/1 291/1/1 292/1/1
f 293/1/2 294/1/2 295/1/2 296/1/2
f 297/1/5 298/1/5 299/1/5 300/1/5
f 301/1/6 302/1/6 303/1/6 304/1/6
f 305/1/1 306/1/1 307/1/1 308/1/1
f 309/1/4 310/1/4 311/1/4 312/1/4
f 313/1/5 314/1/5 315/1/5 316/1/5
f 317/1/6 318/1/6 319/1/6 320/1/6
f 321/1/3 322/1/3 323/1/3 324/1/3
f 325/1/4 326/1/4 327/1/4 328/1/4
f 329/1/5 330/1/5 331/1/5 332/1/5
f 333/1/6 334/1/6 335/1/6 336/1/6
f 337/1/2 338/1/2 339/1/2 340/1/2
f 341/1/3 342/1/3 343/1/3 344/1/3
f 345/1/4 346/1/4 347/1/4 348/1/4
f 349/1/5 350/1/5 351/1/5 352/1/5
f 353/1/6 354/1/6 355/1/6 356/1/6
f 357/1/1 358/1/1 359/1/1 360/1/1
f 361/1/5 362/1/5 363/1/5 364/1/5
f 365/1/6 366/1/6 367/1/6 368/1/6
f 369/1/2 370/1/2 371/1/2 372/1/2
f 373/1/3 374/1/3 375/1/3 376/1/3
f 377/1/4 378/1/4 379/1/4 380/1/4
f 381/1/5 382/1/5 383/1/5 384/1/5
f 385/1/6 386/1/6 387/1/6 388/1/6
f 389/1/1 390/1/1 391/1/1 392/1/1
f 393/1/2 394/1/2 395/1/2 396/1/2
f 397/1/3 398/1/3 399/1/3 400/1/3
f 401/1/4 402/1/4 403/1/4 404/1/4
f 405/1/5 406/1/5 407/1/5 408/1/5
f 409/1/6 410/1/6 411/1/6 412/1/6
f 413/1/1 414/1/1 415/1/1 416/1/1
f 417/1/2 418/1/2 419/1/2 420/1/2
f 421/1/4 422/1/4 423/1/4 424/1/4
f 425/1/5 426/1/5 427/1/5 428/1/5
f 429/1/6 430/1/6 431/1/6 432/1/6
f 433/1/1 434/1/1 435/1/1 436/1/1
f 437/1/2 438/1/2 439/1/2 440/1/2
f 441/1/3 442/1/3 443/1/3 444/1/3
f 445/1/5 446/1/5 447/1/5 448/1/5
f 449/1/6 450/1/6 451/1/6 452/1/6
f 453/1/1 454/1/1 455/1/1 456/1/1
f 457/1/3 458/1/3 459/1/3 460/1/3
f 461/1/4 462/1/4 463/1/4 464/1/4
f 465/1/5 466/1/5 467/1/5 468/1/5
f 469/1/6 470/1/6 471/1/6 472/1/6
f 473/1/2 474/1/2 475/1/2 476/1/2
f 477/1/4 478/1/4 479/1/4 480/1/4
f 481/1/5 482/1/5 483/1/5 484/1/5
f 485/1/6 486/1/6 487/1/6 488/1/6
f 489/1/1 490/1/1 491/1/1 492/1/1
f 493/1/2 494/1/2 495/1/2 496/1/2
f 497/1/3 498/1/3 499/1/3 500/1/3
f 501/1/4 502/1/4 503/1/4 504/1/4
f 505/1/5 506/1/5 507/1/5 508/1/5
f 509/1/6 510/1/6 511/1/6 512/1/6
f 513/1/1 514/1/1 515/1/1 516/1/1
f 517/1/2 518/1/2 519/1/2 520/1/2
f 521/1/3 522/1/3 523/1/3 524/1/3
f 525/1/5 526/1/5 527/1/5 528/1/5
f 529/1/6 530/1/6 531/1/6 532/1/6
f 533/1/1 534/1/1 535/1/1 536/1/1
f 537/1/2 538/1/2 539/1/2 540/1/2
f 541/1/3 542/1/3 543/1/3 544/1/3
f 545/1/5 546/1/5 547/1/5 548/1/5
f 549/1/6 550/1/6 551/1/6 552/1/6
f 553/1/1 554/1/1 555/1/1 556/1/1
f 557/1/3 558/1/3 559/1/3 560/1/3
f 561/1/4 562/1/4 563/1/4 564/1/4
f 565/1/5 566/1/5 567/1/5 568/1/5
f 569/1/6 570/1/6 571/1/6 572/1/6
f 573/1/2 574/1/2 575/1/2 576/1/2
f 577/1/4 578/1/4 579/1/4 580/1/4
f 581/1/5 582/1/5 583/1/5 584/1/5
f 585/1/6 586/1/6 587/1/6 588/1/6
f 589/1/1 590/1/1 591/1/1 592/1/1
f 593/1/2 594/1/2 595/1/2 596/1/2
f 597/1/4 598/1/4 599/1/4 600/1/4
f 601/1/5 602/1/5 603/1/5 604/1/5
f 605/1/6 606/1/6 607/1/6 608/1/6
f 609/1/1 610/1/1 611/1/1 612/1/1
f 613/1/2 614/1/2 615/1/2 616/1/2
f 617/1/3 618/1/3 619/1/3 620/1/3
f 621/1/4 622/1/4 623/1/4 624/1/4
f 625/1/5 626/1/5 627/1/5 628/1/5
f 629/1/6 630/1/6 631/1/6 632/1/6

