# generated by vox_to_obj_exporter
# scale=0.1 center=false ground=false y_up=true

mtllib Fight_704.mtl
usemtl palette

# normals
vn -1 0 0
vn 1 0 0
vn 0 1 0
vn 0 -1 0
vn 0 0 1
vn 0 0 -1

# texcoords
vt 0.044921875 0.5
vt 0.162109375 0.5
vt 0.197265625 0.5
vt 0.048828125 0.5
vt 0.181640625 0.5
vt 0.185546875 0.5
vt 0.201171875 0.5
vt 0.189453125 0.5
vt 0.158203125 0.5

# verts
v 8.6 7 -2.6
v 8.6 6.9 -2.6
v 8.6 6.9 -2.5
v 8.6 7 -2.5
v 8.7 7 -2.5
v 8.7 6.9 -2.5
v 8.7 6.9 -2.6
v 8.7 7 -2.6
v 8.6 7 -2.6
v 8.6 7 -2.5
v 8.7 7 -2.5
v 8.7 7 -2.6
v 8.6 7 -2.5
v 8.6 6.9 -2.5
v 8.7 6.9 -2.5
v 8.7 7 -2.5
v 8.7 7 -2.6
v 8.7 6.9 -2.6
v 8.6 6.9 -2.6
v 8.6 7 -2.6
v 8.6 6.9 -2.6
v 8.6 6.8 -2.6
v 8.6 6.8 -2.5
v 8.6 6.9 -2.5
v 8.7 6.9 -2.5
v 8.7 6.8 -2.5
v 8.7 6.8 -2.6
v 8.7 6.9 -2.6
v 8.6 6.9 -2.5
v 8.6 6.8 -2.5
v 8.7 6.8 -2.5
v 8.7 6.9 -2.5
v 8.7 6.9 -2.6
v 8.7 6.8 -2.6
v 8.6 6.8 -2.6
v 8.6 6.9 -2.6
v 8.6 6.8 -2.6
v 8.6 6.7 -2.6
v 8.6 6.7 -2.5
v 8.6 6.8 -2.5
v 8.6 6.8 -2.5
v 8.6 6.7 -2.5
v 8.7 6.7 -2.5
v 8.7 6.8 -2.5
v 8.7 6.8 -2.6
v 8.7 6.7 -2.6
v 8.6 6.7 -2.6
v 8.6 6.8 -2.6
v 8.8 6.8 -2.5
v 8.8 6.7 -2.5
v 8.8 6.7 -2.6
v 8.8 6.8 -2.6
v 8.7 6.8 -2.6
v 8.7 6.8 -2.5
v 8.8 6.8 -2.5
v 8.8 6.8 -2.6
v 8.7 6.8 -2.5
v 8.7 6.7 -2.5
v 8.8 6.7 -2.5
v 8.8 6.8 -2.5
v 8.8 6.8 -2.6
v 8.8 6.7 -2.6
v 8.7 6.7 -2.6
v 8.7 6.8 -2.6
v 8.2 6.7 -2.6
v 8.2 6.6 -2.6
v 8.2 6.6 -2.5
v 8.2 6.7 -2.5
v 8.2 6.7 -2.6
v 8.2 6.7 -2.5
v 8.3 6.7 -2.5
v 8.3 6.7 -2.6
v 8.2 6.7 -2.5
v 8.2 6.6 -2.5
v 8.3 6.6 -2.5
v 8.3 6.7 -2.5
v 8.3 6.7 -2.6
v 8.3 6.6 -2.6
v 8.2 6.6 -2.6
v 8.2 6.7 -2.6
v 8.4 6.7 -2.5
v 8.4 6.6 -2.5
v 8.4 6.6 -2.6
v 8.4 6.7 -2.6
v 8.3 6.7 -2.6
v 8.3 6.7 -2.5
v 8.4 6.7 -2.5
v 8.4 6.7 -2.6
v 8.3 6.7 -2.5
v 8.3 6.6 -2.5
v 8.4 6.6 -2.5
v 8.4 6.7 -2.5
v 8.4 6.7 -2.6
v 8.4 6.6 -2.6
v 8.3 6.6 -2.6
v 8.3 6.7 -2.6
v 8.6 6.7 -2.6
v 8.6 6.6 -2.6
v 8.6 6.6 -2.5
v 8.6 6.7 -2.5
v 8.6 6.6 -2.5
v 8.6 6.6 -2.6
v 8.7 6.6 -2.6
v 8.7 6.6 -2.5
v 8.6 6.7 -2.5
v 8.6 6.6 -2.5
v 8.7 6.6 -2.5
v 8.7 6.7 -2.5
v 8.7 6.7 -2.6
v 8.7 6.6 -2.6
v 8.6 6.6 -2.6
v 8.6 6.7 -2.6
v 8.8 6.7 -2.5
v 8.8 6.6 -2.5
v 8.8 6.6 -2.6
v 8.8 6.7 -2.6
v 8.7 6.7 -2.5
v 8.7 6.6 -2.5
v 8.8 6.6 -2.5
v 8.8 6.7 -2.5
v 8.8 6.7 -2.6
v 8.8 6.6 -2.6
v 8.7 6.6 -2.6
v 8.7 6.7 -2.6
v 8.1 6.6 -2.6
v 8.1 6.5 -2.6
v 8.1 6.5 -2.5
v 8.1 6.6 -2.5
v 8.1 6.6 -2.6
v 8.1 6.6 -2.5
v 8.2 6.6 -2.5
v 8.2 6.6 -2.6
v 8.1 6.6 -2.5
v 8.1 6.5 -2.5
v 8.2 6.5 -2.5
v 8.2 6.6 -2.5
v 8.2 6.6 -2.6
v 8.2 6.5 -2.6
v 8.1 6.5 -2.6
v 8.1 6.6 -2.6
v 8.2 6.6 -2.5
v 8.2 6.5 -2.5
v 8.3 6.5 -2.5
v 8.3 6.6 -2.5
v 8.3 6.6 -2.6
v 8.3 6.5 -2.6
v 8.2 6.5 -2.6
v 8.2 6.6 -2.6
v 8.4 6.6 -2.5
v 8.4 6.5 -2.5
v 8.4 6.5 -2.6
v 8.4 6.6 -2.6
v 8.3 6.6 -2.5
v 8.3 6.5 -2.5
v 8.4 6.5 -2.5
v 8.4 6.6 -2.5
v 8.4 6.6 -2.6
v 8.4 6.5 -2.6
v 8.3 6.5 -2.6
v 8.3 6.6 -2.6
v 8.7 6.6 -2.6
v 8.7 6.5 -2.6
v 8.7 6.5 -2.5
v 8.7 6.6 -2.5
v 8.7 6.6 -2.5
v 8.7 6.5 -2.5
v 8.8 6.5 -2.5
v 8.8 6.6 -2.5
v 8.8 6.6 -2.6
v 8.8 6.5 -2.6
v 8.7 6.5 -2.6
v 8.7 6.6 -2.6
v 8.9 6.6 -2.5
v 8.9 6.5 -2.5
v 8.9 6.5 -2.6
v 8.9 6.6 -2.6
v 8.8 6.6 -2.6
v 8.8 6.6 -2.5
v 8.9 6.6 -2.5
v 8.9 6.6 -2.6
v 8.8 6.6 -2.5
v 8.8 6.5 -2.5
v 8.9 6.5 -2.5
v 8.9 6.6 -2.5
v 8.9 6.6 -2.6
v 8.9 6.5 -2.6
v 8.8 6.5 -2.6
v 8.8 6.6 -2.6
v 8.1 6.5 -2.6
v 8.1 6.4 -2.6
v 8.1 6.4 -2.5
v 8.1 6.5 -2.5
v 8.1 6.4 -2.5
v 8.1 6.4 -2.6
v 8.2 6.4 -2.6
v 8.2 6.4 -2.5
v 8.1 6.5 -2.5
v 8.1 6.4 -2.5
v 8.2 6.4 -2.5
v 8.2 6.5 -2.5
v 8.2 6.5 -2.6
v 8.2 6.4 -2.6
v 8.1 6.4 -2.6
v 8.1 6.5 -2.6
v 8.2 6.5 -2.5
v 8.2 6.4 -2.5
v 8.3 6.4 -2.5
v 8.3 6.5 -2.5
v 8.3 6.5 -2.6
v 8.3 6.4 -2.6
v 8.2 6.4 -2.6
v 8.2 6.5 -2.6
v 8.3 6.5 -2.5
v 8.3 6.4 -2.5
v 8.4 6.4 -2.5
v 8.4 6.5 -2.5
v 8.4 6.5 -2.6
v 8.4 6.4 -2.6
v 8.3 6.4 -2.6
v 8.3 6.5 -2.6
v 8.5 6.5 -2.5
v 8.5 6.4 -2.5
v 8.5 6.4 -2.6
v 8.5 6.5 -2.6
v 8.4 6.5 -2.6
v 8.4 6.5 -2.5
v 8.5 6.5 -2.5
v 8.5 6.5 -2.6
v 8.4 6.5 -2.5
v 8.4 6.4 -2.5
v 8.5 6.4 -2.5
v 8.5 6.5 -2.5
v 8.5 6.5 -2.6
v 8.5 6.4 -2.6
v 8.4 6.4 -2.6
v 8.4 6.5 -2.6
v 8.7 6.5 -2.6
v 8.7 6.4 -2.6
v 8.7 6.4 -2.5
v 8.7 6.5 -2.5
v 8.7 6.5 -2.5
v 8.7 6.4 -2.5
v 8.8 6.4 -2.5
v 8.8 6.5 -2.5
v 8.8 6.5 -2.6
v 8.8 6.4 -2.6
v 8.7 6.4 -2.6
v 8.7 6.5 -2.6
v 8.9 6.5 -2.5
v 8.9 6.4 -2.5
v 8.9 6.4 -2.6
v 8.9 6.5 -2.6
v 8.8 6.5 -2.5
v 8.8 6.4 -2.5
v 8.9 6.4 -2.5
v 8.9 6.5 -2.5
v 8.9 6.5 -2.6
v 8.9 6.4 -2.6
v 8.8 6.4 -2.6
v 8.8 6.5 -2.6
v 8.2 6.4 -2.6
v 8.2 6.3 -2.6
v 8.2 6.3 -2.5
v 8.2 6.4 -2.5
v 8.2 6.4 -2.5
v 8.2 6.3 -2.5
v 8.3 6.3 -2.5
v 8.3 6.4 -2.5
v 8.3 6.4 -2.6
v 8.3 6.3 -2.6
v 8.2 6.3 -2.6
v 8.2 6.4 -2.6
v 8.3 6.4 -2.5
v 8.3 6.3 -2.5
v 8.4 6.3 -2.5
v 8.4 6.4 -2.5
v 8.4 6.4 -2.6
v 8.4 6.3 -2.6
v 8.3 6.3 -2.6
v 8.3 6.4 -2.6
v 8.4 6.4 -2.5
v 8.4 6.3 -2.5
v 8.5 6.3 -2.5
v 8.5 6.4 -2.5
v 8.5 6.4 -2.6
v 8.5 6.3 -2.6
v 8.4 6.3 -2.6
v 8.4 6.4 -2.6
v 8.6 6.4 -2.5
v 8.6 6.3 -2.5
v 8.6 6.3 -2.6
v 8.6 6.4 -2.6
v 8.5 6.4 -2.6
v 8.5 6.4 -2.5
v 8.6 6.4 -2.5
v 8.6 6.4 -2.6
v 8.5 6.4 -2.5
v 8.5 6.3 -2.5
v 8.6 6.3 -2.5
v 8.6 6.4 -2.5
v 8.6 6.4 -2.6
v 8.6 6.3 -2.6
v 8.5 6.3 -2.6
v 8.5 6.4 -2.6
v 8.7 6.4 -2.6
v 8.7 6.3 -2.6
v 8.7 6.3 -2.5
v 8.7 6.4 -2.5
v 8.7 6.3 -2.5
v 8.7 6.3 -2.6
v 8.8 6.3 -2.6
v 8.8 6.3 -2.5
v 8.7 6.4 -2.5
v 8.7 6.3 -2.5
v 8.8 6.3 -2.5
v 8.8 6.4 -2.5
v 8.8 6.4 -2.6
v 8.8 6.3 -2.6
v 8.7 6.3 -2.6
v 8.7 6.4 -2.6
v 8.8 6.4 -2.5
v 8.8 6.3 -2.5
v 8.9 6.3 -2.5
v 8.9 6.4 -2.5
v 8.9 6.4 -2.6
v 8.9 6.3 -2.6
v 8.8 6.3 -2.6
v 8.8 6.4 -2.6
v 9 6.4 -2.5
v 9 6.3 -2.5
v 9 6.3 -2.6
v 9 6.4 -2.6
v 8.9 6.4 -2.6
v 8.9 6.4 -2.5
v 9 6.4 -2.5
v 9 6.4 -2.6
v 8.9 6.4 -2.5
v 8.9 6.3 -2.5
v 9 6.3 -2.5
v 9 6.4 -2.5
v 9 6.4 -2.6
v 9 6.3 -2.6
v 8.9 6.3 -2.6
v 8.9 6.4 -2.6
v 8.2 6.3 -2.6
v 8.2 6.2 -2.6
v 8.2 6.2 -2.5
v 8.2 6.3 -2.5
v 8.2 6.2 -2.5
v 8.2 6.2 -2.6
v 8.3 6.2 -2.6
v 8.3 6.2 -2.5
v 8.2 6.3 -2.5
v 8.2 6.2 -2.5
v 8.3 6.2 -2.5
v 8.3 6.3 -2.5
v 8.3 6.3 -2.6
v 8.3 6.2 -2.6
v 8.2 6.2 -2.6
v 8.2 6.3 -2.6
v 8.3 6.3 -2.5
v 8.3 6.2 -2.5
v 8.4 6.2 -2.5
v 8.4 6.3 -2.5
v 8.4 6.3 -2.6
v 8.4 6.2 -2.6
v 8.3 6.2 -2.6
v 8.3 6.3 -2.6
v 8.4 6.3 -2.5
v 8.4 6.2 -2.5
v 8.5 6.2 -2.5
v 8.5 6.3 -2.5
v 8.5 6.3 -2.6
v 8.5 6.2 -2.6
v 8.4 6.2 -2.6
v 8.4 6.3 -2.6
v 8.6 6.3 -2.5
v 8.6 6.2 -2.5
v 8.6 6.2 -2.6
v 8.6 6.3 -2.6
v 8.5 6.3 -2.5
v 8.5 6.2 -2.5
v 8.6 6.2 -2.5
v 8.6 6.3 -2.5
v 8.6 6.3 -2.6
v 8.6 6.2 -2.6
v 8.5 6.2 -2.6
v 8.5 6.3 -2.6
v 8.8 6.3 -2.6
v 8.8 6.2 -2.6
v 8.8 6.2 -2.5
v 8.8 6.3 -2.5
v 8.8 6.3 -2.5
v 8.8 6.2 -2.5
v 8.9 6.2 -2.5
v 8.9 6.3 -2.5
v 8.9 6.3 -2.6
v 8.9 6.2 -2.6
v 8.8 6.2 -2.6
v 8.8 6.3 -2.6
v 9 6.3 -2.5
v 9 6.2 -2.5
v 9 6.2 -2.6
v 9 6.3 -2.6
v 8.9 6.3 -2.5
v 8.9 6.2 -2.5
v 9 6.2 -2.5
v 9 6.3 -2.5
v 9 6.3 -2.6
v 9 6.2 -2.6
v 8.9 6.2 -2.6
v 8.9 6.3 -2.6
v 8.3 6.2 -2.6
v 8.3 6.1 -2.6
v 8.3 6.1 -2.5
v 8.3 6.2 -2.5
v 8.3 6.2 -2.5
v 8.3 6.1 -2.5
v 8.4 6.1 -2.5
v 8.4 6.2 -2.5
v 8.4 6.2 -2.6
v 8.4 6.1 -2.6
v 8.3 6.1 -2.6
v 8.3 6.2 -2.6
v 8.4 6.2 -2.5
v 8.4 6.1 -2.5
v 8.5 6.1 -2.5
v 8.5 6.2 -2.5
v 8.5 6.2 -2.6
v 8.5 6.1 -2.6
v 8.4 6.1 -2.6
v 8.4 6.2 -2.6
v 8.5 6.2 -2.5
v 8.5 6.1 -2.5
v 8.6 6.1 -2.5
v 8.6 6.2 -2.5
v 8.6 6.2 -2.6
v 8.6 6.1 -2.6
v 8.5 6.1 -2.6
v 8.5 6.2 -2.6
v 8.7 6.2 -2.5
v 8.7 6.1 -2.5
v 8.7 6.1 -2.6
v 8.7 6.2 -2.6
v 8.6 6.2 -2.6
v 8.6 6.2 -2.5
v 8.7 6.2 -2.5
v 8.7 6.2 -2.6
v 8.6 6.2 -2.5
v 8.6 6.1 -2.5
v 8.7 6.1 -2.5
v 8.7 6.2 -2.5
v 8.7 6.2 -2.6
v 8.7 6.1 -2.6
v 8.6 6.1 -2.6
v 8.6 6.2 -2.6
v 8.8 6.2 -2.6
v 8.8 6.1 -2.6
v 8.8 6.1 -2.5
v 8.8 6.2 -2.5
v 8.8 6.2 -2.5
v 8.8 6.1 -2.5
v 8.9 6.1 -2.5
v 8.9 6.2 -2.5
v 8.9 6.2 -2.6
v 8.9 6.1 -2.6
v 8.8 6.1 -2.6
v 8.8 6.2 -2.6
v 8.9 6.2 -2.5
v 8.9 6.1 -2.5
v 9 6.1 -2.5
v 9 6.2 -2.5
v 9 6.2 -2.6
v 9 6.1 -2.6
v 8.9 6.1 -2.6
v 8.9 6.2 -2.6
v 9.1 6.2 -2.5
v 9.1 6.1 -2.5
v 9.1 6.1 -2.6
v 9.1 6.2 -2.6
v 9 6.2 -2.6
v 9 6.2 -2.5
v 9.1 6.2 -2.5
v 9.1 6.2 -2.6
v 9 6.2 -2.5
v 9 6.1 -2.5
v 9.1 6.1 -2.5
v 9.1 6.2 -2.5
v 9.1 6.2 -2.6
v 9.1 6.1 -2.6
v 9 6.1 -2.6
v 9 6.2 -2.6
v 8.3 6.1 -2.6
v 8.3 6 -2.6
v 8.3 6 -2.5
v 8.3 6.1 -2.5
v 8.3 6 -2.5
v 8.3 6 -2.6
v 8.4 6 -2.6
v 8.4 6 -2.5
v 8.3 6.1 -2.5
v 8.3 6 -2.5
v 8.4 6 -2.5
v 8.4 6.1 -2.5
v 8.4 6.1 -2.6
v 8.4 6 -2.6
v 8.3 6 -2.6
v 8.3 6.1 -2.6
v 8.4 6.1 -2.5
v 8.4 6 -2.5
v 8.5 6 -2.5
v 8.5 6.1 -2.5
v 8.5 6.1 -2.6
v 8.5 6 -2.6
v 8.4 6 -2.6
v 8.4 6.1 -2.6
v 8.5 6.1 -2.5
v 8.5 6 -2.5
v 8.6 6 -2.5
v 8.6 6.1 -2.5
v 8.6 6.1 -2.6
v 8.6 6 -2.6
v 8.5 6 -2.6
v 8.5 6.1 -2.6
v 8.6 6.1 -2.5
v 8.6 6 -2.5
v 8.7 6 -2.5
v 8.7 6.1 -2.5
v 8.7 6.1 -2.6
v 8.7 6 -2.6
v 8.6 6 -2.6
v 8.6 6.1 -2.6
v 8.7 6.1 -2.6
v 8.7 6.1 -2.5
v 8.8 6.1 -2.5
v 8.8 6.1 -2.6
v 8.7 6.1 -2.5
v 8.7 6 -2.5
v 8.8 6 -2.5
v 8.8 6.1 -2.5
v 8.8 6.1 -2.6
v 8.8 6 -2.6
v 8.7 6 -2.6
v 8.7 6.1 -2.6
v 8.8 6 -2.5
v 8.8 6 -2.6
v 8.9 6 -2.6
v 8.9 6 -2.5
v 8.8 6.1 -2.5
v 8.8 6 -2.5
v 8.9 6 -2.5
v 8.9 6.1 -2.5
v 8.9 6.1 -2.6
v 8.9 6 -2.6
v 8.8 6 -2.6
v 8.8 6.1 -2.6
v 8.9 6.1 -2.5
v 8.9 6 -2.5
v 9 6 -2.5
v 9 6.1 -2.5
v 9 6.1 -2.6
v 9 6 -2.6
v 8.9 6 -2.6
v 8.9 6.1 -2.6
v 9.1 6.1 -2.5
v 9.1 6 -2.5
v 9.1 6 -2.6
v 9.1 6.1 -2.6
v 9 6.1 -2.5
v 9 6 -2.5
v 9.1 6 -2.5
v 9.1 6.1 -2.5
v 9.1 6.1 -2.6
v 9.1 6 -2.6
v 9 6 -2.6
v 9 6.1 -2.6
v 7.7 6 -2.6
v 7.7 5.9 -2.6
v 7.7 5.9 -2.5
v 7.7 6 -2.5
v 7.8 6 -2.5
v 7.8 5.9 -2.5
v 7.8 5.9 -2.6
v 7.8 6 -2.6
v 7.7 6 -2.6
v 7.7 6 -2.5
v 7.8 6 -2.5
v 7.8 6 -2.6
v 7.7 6 -2.5
v 7.7 5.9 -2.5
v 7.8 5.9 -2.5
v 7.8 6 -2.5
v 7.8 6 -2.6
v 7.8 5.9 -2.6
v 7.7 5.9 -2.6
v 7.7 6 -2.6
v 7.9 6 -2.6
v 7.9 5.9 -2.6
v 7.9 5.9 -2.5
v 7.9 6 -2.5
v 8 6 -2.5
v 8 5.9 -2.5
v 8 5.9 -2.6
v 8 6 -2.6
v 7.9 6 -2.6
v 7.9 6 -2.5
v 8 6 -2.5
v 8 6 -2.6
v 7.9 5.9 -2.5
v 7.9 5.9 -2.6
v 8 5.9 -2.6
v 8 5.9 -2.5
v 7.9 6 -2.5
v 7.9 5.9 -2.5
v 8 5.9 -2.5
v 8 6 -2.5
v 8 6 -2.6
v 8 5.9 -2.6
v 7.9 5.9 -2.6
v 7.9 6 -2.6
v 8.4 6 -2.6
v 8.4 5.9 -2.6
v 8.4 5.9 -2.5
v 8.4 6 -2.5
v 8.4 6 -2.5
v 8.4 5.9 -2.5
v 8.5 5.9 -2.5
v 8.5 6 -2.5
v 8.5 6 -2.6
v 8.5 5.9 -2.6
v 8.4 5.9 -2.6
v 8.4 6 -2.6
v 8.5 6 -2.5
v 8.5 5.9 -2.5
v 8.6 5.9 -2.5
v 8.6 6 -2.5
v 8.6 6 -2.6
v 8.6 5.9 -2.6
v 8.5 5.9 -2.6
v 8.5 6 -2.6
v 8.6 6 -2.5
v 8.6 5.9 -2.5
v 8.7 5.9 -2.5
v 8.7 6 -2.5
v 8.7 6 -2.6
v 8.7 5.9 -2.6
v 8.6 5.9 -2.6
v 8.6 6 -2.6
v 8.8 6 -2.5
v 8.8 5.9 -2.5
v 8.8 5.9 -2.6
v 8.8 6 -2.6
v 8.7 6 -2.5
v 8.7 5.9 -2.5
v 8.8 5.9 -2.5
v 8.8 6 -2.5
v 8.8 6 -2.6
v 8.8 5.9 -2.6
v 8.7 5.9 -2.6
v 8.7 6 -2.6
v 8.9 6 -2.6
v 8.9 5.9 -2.6
v 8.9 5.9 -2.5
v 8.9 6 -2.5
v 8.9 6 -2.5
v 8.9 5.9 -2.5
v 9 5.9 -2.5
v 9 6 -2.5
v 9 6 -2.6
v 9 5.9 -2.6
v 8.9 5.9 -2.6
v 8.9 6 -2.6
v 9 6 -2.5
v 9 5.9 -2.5
v 9.1 5.9 -2.5
v 9.1 6 -2.5
v 9.1 6 -2.6
v 9.1 5.9 -2.6
v 9 5.9 -2.6
v 9 6 -2.6
v 9.2 6 -2.5
v 9.2 5.9 -2.5
v 9.2 5.9 -2.6
v 9.2 6 -2.6
v 9.1 6 -2.6
v 9.1 6 -2.5
v 9.2 6 -2.5
v 9.2 6 -2.6
v 9.1 6 -2.5
v 9.1 5.9 -2.5
v 9.2 5.9 -2.5
v 9.2 6 -2.5
v 9.2 6 -2.6
v 9.2 5.9 -2.6
v 9.1 5.9 -2.6
v 9.1 6 -2.6
v 7.7 5.9 -2.6
v 7.7 5.8 -2.6
v 7.7 5.8 -2.5
v 7.7 5.9 -2.5
v 7.7 5.8 -2.5
v 7.7 5.8 -2.6
v 7.8 5.8 -2.6
v 7.8 5.8 -2.5
v 7.7 5.9 -2.5
v 7.7 5.8 -2.5
v 7.8 5.8 -2.5
v 7.8 5.9 -2.5
v 7.8 5.9 -2.6
v 7.8 5.8 -2.6
v 7.7 5.8 -2.6
v 7.7 5.9 -2.6
v 7.9 5.9 -2.5
v 7.9 5.8 -2.5
v 7.9 5.8 -2.6
v 7.9 5.9 -2.6
v 7.8 5.9 -2.6
v 7.8 5.9 -2.5
v 7.9 5.9 -2.5
v 7.9 5.9 -2.6
v 7.8 5.8 -2.5
v 7.8 5.8 -2.6
v 7.9 5.8 -2.6
v 7.9 5.8 -2.5
v 7.8 5.9 -2.5
v 7.8 5.8 -2.5
v 7.9 5.8 -2.5
v 7.9 5.9 -2.5
v 7.9 5.9 -2.6
v 7.9 5.8 -2.6
v 7.8 5.8 -2.6
v 7.8 5.9 -2.6
v 8.4 5.9 -2.6
v 8.4 5.8 -2.6
v 8.4 5.8 -2.5
v 8.4 5.9 -2.5
v 8.4 5.9 -2.5
v 8.4 5.8 -2.5
v 8.5 5.8 -2.5
v 8.5 5.9 -2.5
v 8.5 5.9 -2.6
v 8.5 5.8 -2.6
v 8.4 5.8 -2.6
v 8.4 5.9 -2.6
v 8.5 5.9 -2.5
v 8.5 5.8 -2.5
v 8.6 5.8 -2.5
v 8.6 5.9 -2.5
v 8.6 5.9 -2.6
v 8.6 5.8 -2.6
v 8.5 5.8 -2.6
v 8.5 5.9 -2.6
v 8.6 5.9 -2.5
v 8.6 5.8 -2.5
v 8.7 5.8 -2.5
v 8.7 5.9 -2.5
v 8.7 5.9 -2.6
v 8.7 5.8 -2.6
v 8.6 5.8 -2.6
v 8.6 5.9 -2.6
v 8.7 5.9 -2.5
v 8.7 5.8 -2.5
v 8.8 5.8 -2.5
v 8.8 5.9 -2.5
v 8.8 5.9 -2.6
v 8.8 5.8 -2.6
v 8.7 5.8 -2.6
v 8.7 5.9 -2.6
v 8.8 5.9 -2.6
v 8.8 5.9 -2.5
v 8.9 5.9 -2.5
v 8.9 5.9 -2.6
v 8.8 5.9 -2.5
v 8.8 5.8 -2.5
v 8.9 5.8 -2.5
v 8.9 5.9 -2.5
v 8.9 5.9 -2.6
v 8.9 5.8 -2.6
v 8.8 5.8 -2.6
v 8.8 5.9 -2.6
v 8.9 5.9 -2.5
v 8.9 5.8 -2.5
v 9 5.8 -2.5
v 9 5.9 -2.5
v 9 5.9 -2.6
v 9 5.8 -2.6
v 8.9 5.8 -2.6
v 8.9 5.9 -2.6
v 9 5.9 -2.5
v 9 5.8 -2.5
v 9.1 5.8 -2.5
v 9.1 5.9 -2.5
v 9.1 5.9 -2.6
v 9.1 5.8 -2.6
v 9 5.8 -2.6
v 9 5.9 -2.6
v 9.2 5.9 -2.5
v 9.2 5.8 -2.5
v 9.2 5.8 -2.6
v 9.2 5.9 -2.6
v 9.1 5.9 -2.5
v 9.1 5.8 -2.5
v 9.2 5.8 -2.5
v 9.2 5.9 -2.5
v 9.2 5.9 -2.6
v 9.2 5.8 -2.6
v 9.1 5.8 -2.6
v 9.1 5.9 -2.6
v 7.9 5.8 -2.6
v 7.9 5.7 -2.6
v 7.9 5.7 -2.5
v 7.9 5.8 -2.5
v 7.9 5.8 -2.6
v 7.9 5.8 -2.5
v 8 5.8 -2.5
v 8 5.8 -2.6
v 7.9 5.7 -2.5
v 7.9 5.7 -2.6
v 8 5.7 -2.6
v 8 5.7 -2.5
v 7.9 5.8 -2.5
v 7.9 5.7 -2.5
v 8 5.7 -2.5
v 8 5.8 -2.5
v 8 5.8 -2.6
v 8 5.7 -2.6
v 7.9 5.7 -2.6
v 7.9 5.8 -2.6
v 8 5.8 -2.6
v 8 5.8 -2.5
v 8.1 5.8 -2.5
v 8.1 5.8 -2.6
v 8 5.7 -2.5
v 8 5.7 -2.6
v 8.1 5.7 -2.6
v 8.1 5.7 -2.5
v 8 5.8 -2.5
v 8 5.7 -2.5
v 8.1 5.7 -2.5
v 8.1 5.8 -2.5
v 8.1 5.8 -2.6
v 8.1 5.7 -2.6
v 8 5.7 -2.6
v 8 5.8 -2.6
v 8.2 5.8 -2.5
v 8.2 5.7 -2.5
v 8.2 5.7 -2.6
v 8.2 5.8 -2.6
v 8.1 5.8 -2.6
v 8.1 5.8 -2.5
v 8.2 5.8 -2.5
v 8.2 5.8 -2.6
v 8.1 5.8 -2.5
v 8.1 5.7 -2.5
v 8.2 5.7 -2.5
v 8.2 5.8 -2.5
v 8.2 5.8 -2.6
v 8.2 5.7 -2.6
v 8.1 5.7 -2.6
v 8.1 5.8 -2.6
v 8.4 5.8 -2.6
v 8.4 5.7 -2.6
v 8.4 5.7 -2.5
v 8.4 5.8 -2.5
v 8.4 5.7 -2.5
v 8.4 5.7 -2.6
v 8.5 5.7 -2.6
v 8.5 5.7 -2.5
v 8.4 5.8 -2.5
v 8.4 5.7 -2.5
v 8.5 5.7 -2.5
v 8.5 5.8 -2.5
v 8.5 5.8 -2.6
v 8.5 5.7 -2.6
v 8.4 5.7 -2.6
v 8.4 5.8 -2.6
v 8.5 5.8 -2.5
v 8.5 5.7 -2.5
v 8.6 5.7 -2.5
v 8.6 5.8 -2.5
v 8.6 5.8 -2.6
v 8.6 5.7 -2.6
v 8.5 5.7 -2.6
v 8.5 5.8 -2.6
v 8.6 5.8 -2.5
v 8.6 5.7 -2.5
v 8.7 5.7 -2.5
v 8.7 5.8 -2.5
v 8.7 5.8 -2.6
v 8.7 5.7 -2.6
v 8.6 5.7 -2.6
v 8.6 5.8 -2.6
v 8.7 5.8 -2.5
v 8.7 5.7 -2.5
v 8.8 5.7 -2.5
v 8.8 5.8 -2.5
v 8.8 5.8 -2.6
v 8.8 5.7 -2.6
v 8.7 5.7 -2.6
v 8.7 5.8 -2.6
v 8.8 5.8 -2.5
v 8.8 5.7 -2.5
v 8.9 5.7 -2.5
v 8.9 5.8 -2.5
v 8.9 5.8 -2.6
v 8.9 5.7 -2.6
v 8.8 5.7 -2.6
v 8.8 5.8 -2.6
v 8.9 5.8 -2.5
v 8.9 5.7 -2.5
v 9 5.7 -2.5
v 9 5.8 -2.5
v 9 5.8 -2.6
v 9 5.7 -2.6
v 8.9 5.7 -2.6
v 8.9 5.8 -2.6
v 9 5.8 -2.5
v 9 5.7 -2.5
v 9.1 5.7 -2.5
v 9.1 5.8 -2.5
v 9.1 5.8 -2.6
v 9.1 5.7 -2.6
v 9 5.7 -2.6
v 9 5.8 -2.6
v 9.1 5.8 -2.5
v 9.1 5.7 -2.5
v 9.2 5.7 -2.5
v 9.2 5.8 -2.5
v 9.2 5.8 -2.6
v 9.2 5.7 -2.6
v 9.1 5.7 -2.6
v 9.1 5.8 -2.6
v 9.3 5.8 -2.5
v 9.3 5.7 -2.5
v 9.3 5.7 -2.6
v 9.3 5.8 -2.6
v 9.2 5.8 -2.6
v 9.2 5.8 -2.5
v 9.3 5.8 -2.5
v 9.3 5.8 -2.6
v 9.2 5.8 -2.5
v 9.2 5.7 -2.5
v 9.3 5.7 -2.5
v 9.3 5.8 -2.5
v 9.3 5.8 -2.6
v 9.3 5.7 -2.6
v 9.2 5.7 -2.6
v 9.2 5.8 -2.6
v 8.1 5.7 -2.6
v 8.1 5.6 -2.6
v 8.1 5.6 -2.5
v 8.1 5.7 -2.5
v 8.1 5.6 -2.5
v 8.1 5.6 -2.6
v 8.2 5.6 -2.6
v 8.2 5.6 -2.5
v 8.1 5.7 -2.5
v 8.1 5.6 -2.5
v 8.2 5.6 -2.5
v 8.2 5.7 -2.5
v 8.2 5.7 -2.6
v 8.2 5.6 -2.6
v 8.1 5.6 -2.6
v 8.1 5.7 -2.6
v 8.3 5.7 -2.5
v 8.3 5.6 -2.5
v 8.3 5.6 -2.6
v 8.3 5.7 -2.6
v 8.2 5.7 -2.6
v 8.2 5.7 -2.5
v 8.3 5.7 -2.5
v 8.3 5.7 -2.6
v 8.2 5.7 -2.5
v 8.2 5.6 -2.5
v 8.3 5.6 -2.5
v 8.3 5.7 -2.5
v 8.3 5.7 -2.6
v 8.3 5.6 -2.6
v 8.2 5.6 -2.6
v 8.2 5.7 -2.6
v 8.5 5.7 -2.6
v 8.5 5.6 -2.6
v 8.5 5.6 -2.5
v 8.5 5.7 -2.5
v 8.5 5.7 -2.5
v 8.5 5.6 -2.5
v 8.6 5.6 -2.5
v 8.6 5.7 -2.5
v 8.6 5.7 -2.6
v 8.6 5.6 -2.6
v 8.5 5.6 -2.6
v 8.5 5.7 -2.6
v 8.6 5.7 -2.5
v 8.6 5.6 -2.5
v 8.7 5.6 -2.5
v 8.7 5.7 -2.5
v 8.7 5.7 -2.6
v 8.7 5.6 -2.6
v 8.6 5.6 -2.6
v 8.6 5.7 -2.6
v 8.7 5.7 -2.5
v 8.7 5.6 -2.5
v 8.8 5.6 -2.5
v 8.8 5.7 -2.5
v 8.8 5.7 -2.6
v 8.8 5.6 -2.6
v 8.7 5.6 -2.6
v 8.7 5.7 -2.6
v 8.8 5.7 -2.5
v 8.8 5.6 -2.5
v 8.9 5.6 -2.5
v 8.9 5.7 -2.5
v 8.9 5.7 -2.6
v 8.9 5.6 -2.6
v 8.8 5.6 -2.6
v 8.8 5.7 -2.6
v 8.9 5.6 -2.5
v 8.9 5.6 -2.6
v 9 5.6 -2.6
v 9 5.6 -2.5
v 8.9 5.7 -2.5
v 8.9 5.6 -2.5
v 9 5.6 -2.5
v 9 5.7 -2.5
v 9 5.7 -2.6
v 9 5.6 -2.6
v 8.9 5.6 -2.6
v 8.9 5.7 -2.6
v 9 5.7 -2.5
v 9 5.6 -2.5
v 9.1 5.6 -2.5
v 9.1 5.7 -2.5
v 9.1 5.7 -2.6
v 9.1 5.6 -2.6
v 9 5.6 -2.6
v 9 5.7 -2.6
v 9.1 5.7 -2.5
v 9.1 5.6 -2.5
v 9.2 5.6 -2.5
v 9.2 5.7 -2.5
v 9.2 5.7 -2.6
v 9.2 5.6 -2.6
v 9.1 5.6 -2.6
v 9.1 5.7 -2.6
v 9.3 5.7 -2.5
v 9.3 5.6 -2.5
v 9.3 5.6 -2.6
v 9.3 5.7 -2.6
v 9.2 5.7 -2.5
v 9.2 5.6 -2.5
v 9.3 5.6 -2.5
v 9.3 5.7 -2.5
v 9.3 5.7 -2.6
v 9.3 5.6 -2.6
v 9.2 5.6 -2.6
v 9.2 5.7 -2.6
v 8.2 5.6 -2.6
v 8.2 5.5 -2.6
v 8.2 5.5 -2.5
v 8.2 5.6 -2.5
v 8.3 5.6 -2.5
v 8.3 5.5 -2.5
v 8.3 5.5 -2.6
v 8.3 5.6 -2.6
v 8.2 5.6 -2.5
v 8.2 5.5 -2.5
v 8.3 5.5 -2.5
v 8.3 5.6 -2.5
v 8.3 5.6 -2.6
v 8.3 5.5 -2.6
v 8.2 5.5 -2.6
v 8.2 5.6 -2.6
v 8.5 5.6 -2.6
v 8.5 5.5 -2.6
v 8.5 5.5 -2.5
v 8.5 5.6 -2.5
v 8.5 5.5 -2.5
v 8.5 5.5 -2.6
v 8.6 5.5 -2.6
v 8.6 5.5 -2.5
v 8.5 5.6 -2.5
v 8.5 5.5 -2.5
v 8.6 5.5 -2.5
v 8.6 5.6 -2.5
v 8.6 5.6 -2.6
v 8.6 5.5 -2.6
v 8.5 5.5 -2.6
v 8.5 5.6 -2.6
v 8.6 5.6 -2.5
v 8.6 5.5 -2.5
v 8.7 5.5 -2.5
v 8.7 5.6 -2.5
v 8.7 5.6 -2.6
v 8.7 5.5 -2.6
v 8.6 5.5 -2.6
v 8.6 5.6 -2.6
v 8.7 5.6 -2.5
v 8.7 5.5 -2.5
v 8.8 5.5 -2.5
v 8.8 5.6 -2.5
v 8.8 5.6 -2.6
v 8.8 5.5 -2.6
v 8.7 5.5 -2.6
v 8.7 5.6 -2.6
v 8.9 5.6 -2.5
v 8.9 5.5 -2.5
v 8.9 5.5 -2.6
v 8.9 5.6 -2.6
v 8.8 5.6 -2.5
v 8.8 5.5 -2.5
v 8.9 5.5 -2.5
v 8.9 5.6 -2.5
v 8.9 5.6 -2.6
v 8.9 5.5 -2.6
v 8.8 5.5 -2.6
v 8.8 5.6 -2.6
v 9 5.6 -2.6
v 9 5.5 -2.6
v 9 5.5 -2.5
v 9 5.6 -2.5
v 9 5.6 -2.5
v 9 5.5 -2.5
v 9.1 5.5 -2.5
v 9.1 5.6 -2.5
v 9.1 5.6 -2.6
v 9.1 5.5 -2.6
v 9 5.5 -2.6
v 9 5.6 -2.6
v 9.1 5.6 -2.5
v 9.1 5.5 -2.5
v 9.2 5.5 -2.5
v 9.2 5.6 -2.5
v 9.2 5.6 -2.6
v 9.2 5.5 -2.6
v 9.1 5.5 -2.6
v 9.1 5.6 -2.6
v 9.3 5.6 -2.5
v 9.3 5.5 -2.5
v 9.3 5.5 -2.6
v 9.3 5.6 -2.6
v 9.2 5.6 -2.5
v 9.2 5.5 -2.5
v 9.3 5.5 -2.5
v 9.3 5.6 -2.5
v 9.3 5.6 -2.6
v 9.3 5.5 -2.6
v 9.2 5.5 -2.6
v 9.2 5.6 -2.6
v 8 5.5 -2.6
v 8 5.4 -2.6
v 8 5.4 -2.5
v 8 5.5 -2.5
v 8.1 5.5 -2.5
v 8.1 5.4 -2.5
v 8.1 5.4 -2.6
v 8.1 5.5 -2.6
v 8 5.5 -2.6
v 8 5.5 -2.5
v 8.1 5.5 -2.5
v 8.1 5.5 -2.6
v 8 5.5 -2.5
v 8 5.4 -2.5
v 8.1 5.4 -2.5
v 8.1 5.5 -2.5
v 8.1 5.5 -2.6
v 8.1 5.4 -2.6
v 8 5.4 -2.6
v 8 5.5 -2.6
v 8.2 5.5 -2.6
v 8.2 5.4 -2.6
v 8.2 5.4 -2.5
v 8.2 5.5 -2.5
v 8.2 5.4 -2.5
v 8.2 5.4 -2.6
v 8.3 5.4 -2.6
v 8.3 5.4 -2.5
v 8.2 5.5 -2.5
v 8.2 5.4 -2.5
v 8.3 5.4 -2.5
v 8.3 5.5 -2.5
v 8.3 5.5 -2.6
v 8.3 5.4 -2.6
v 8.2 5.4 -2.6
v 8.2 5.5 -2.6
v 8.4 5.5 -2.5
v 8.4 5.4 -2.5
v 8.4 5.4 -2.6
v 8.4 5.5 -2.6
v 8.3 5.5 -2.6
v 8.3 5.5 -2.5
v 8.4 5.5 -2.5
v 8.4 5.5 -2.6
v 8.3 5.5 -2.5
v 8.3 5.4 -2.5
v 8.4 5.4 -2.5
v 8.4 5.5 -2.5
v 8.4 5.5 -2.6
v 8.4 5.4 -2.6
v 8.3 5.4 -2.6
v 8.3 5.5 -2.6
v 8.6 5.5 -2.6
v 8.6 5.4 -2.6
v 8.6 5.4 -2.5
v 8.6 5.5 -2.5
v 8.6 5.5 -2.5
v 8.6 5.4 -2.5
v 8.7 5.4 -2.5
v 8.7 5.5 -2.5
v 8.7 5.5 -2.6
v 8.7 5.4 -2.6
v 8.6 5.4 -2.6
v 8.6 5.5 -2.6
v 8.7 5.5 -2.5
v 8.7 5.4 -2.5
v 8.8 5.4 -2.5
v 8.8 5.5 -2.5
v 8.8 5.5 -2.6
v 8.8 5.4 -2.6
v 8.7 5.4 -2.6
v 8.7 5.5 -2.6
v 8.9 5.5 -2.5
v 8.9 5.4 -2.5
v 8.9 5.4 -2.6
v 8.9 5.5 -2.6
v 8.8 5.5 -2.5
v 8.8 5.4 -2.5
v 8.9 5.4 -2.5
v 8.9 5.5 -2.5
v 8.9 5.5 -2.6
v 8.9 5.4 -2.6
v 8.8 5.4 -2.6
v 8.8 5.5 -2.6
v 9 5.5 -2.6
v 9 5.4 -2.6
v 9 5.4 -2.5
v 9 5.5 -2.5
v 9 5.4 -2.5
v 9 5.4 -2.6
v 9.1 5.4 -2.6
v 9.1 5.4 -2.5
v 9 5.5 -2.5
v 9 5.4 -2.5
v 9.1 5.4 -2.5
v 9.1 5.5 -2.5
v 9.1 5.5 -2.6
v 9.1 5.4 -2.6
v 9 5.4 -2.6
v 9 5.5 -2.6
v 9.1 5.5 -2.5
v 9.1 5.4 -2.5
v 9.2 5.4 -2.5
v 9.2 5.5 -2.5
v 9.2 5.5 -2.6
v 9.2 5.4 -2.6
v 9.1 5.4 -2.6
v 9.1 5.5 -2.6
v 9.2 5.5 -2.5
v 9.2 5.4 -2.5
v 9.3 5.4 -2.5
v 9.3 5.5 -2.5
v 9.3 5.5 -2.6
v 9.3 5.4 -2.6
v 9.2 5.4 -2.6
v 9.2 5.5 -2.6
v 9.4 5.5 -2.5
v 9.4 5.4 -2.5
v 9.4 5.4 -2.6
v 9.4 5.5 -2.6
v 9.3 5.5 -2.6
v 9.3 5.5 -2.5
v 9.4 5.5 -2.5
v 9.4 5.5 -2.6
v 9.3 5.5 -2.5
v 9.3 5.4 -2.5
v 9.4 5.4 -2.5
v 9.4 5.5 -2.5
v 9.4 5.5 -2.6
v 9.4 5.4 -2.6
v 9.3 5.4 -2.6
v 9.3 5.5 -2.6
v 8 5.4 -2.6
v 8 5.3 -2.6
v 8 5.3 -2.5
v 8 5.4 -2.5
v 8 5.3 -2.5
v 8 5.3 -2.6
v 8.1 5.3 -2.6
v 8.1 5.3 -2.5
v 8 5.4 -2.5
v 8 5.3 -2.5
v 8.1 5.3 -2.5
v 8.1 5.4 -2.5
v 8.1 5.4 -2.6
v 8.1 5.3 -2.6
v 8 5.3 -2.6
v 8 5.4 -2.6
v 8.2 5.4 -2.5
v 8.2 5.3 -2.5
v 8.2 5.3 -2.6
v 8.2 5.4 -2.6
v 8.1 5.4 -2.6
v 8.1 5.4 -2.5
v 8.2 5.4 -2.5
v 8.2 5.4 -2.6
v 8.1 5.4 -2.5
v 8.1 5.3 -2.5
v 8.2 5.3 -2.5
v 8.2 5.4 -2.5
v 8.2 5.4 -2.6
v 8.2 5.3 -2.6
v 8.1 5.3 -2.6
v 8.1 5.4 -2.6
v 8.3 5.4 -2.6
v 8.3 5.3 -2.6
v 8.3 5.3 -2.5
v 8.3 5.4 -2.5
v 8.3 5.4 -2.5
v 8.3 5.3 -2.5
v 8.4 5.3 -2.5
v 8.4 5.4 -2.5
v 8.4 5.4 -2.6
v 8.4 5.3 -2.6
v 8.3 5.3 -2.6
v 8.3 5.4 -2.6
v 8.5 5.4 -2.5
v 8.5 5.3 -2.5
v 8.5 5.3 -2.6
v 8.5 5.4 -2.6
v 8.4 5.4 -2.6
v 8.4 5.4 -2.5
v 8.5 5.4 -2.5
v 8.5 5.4 -2.6
v 8.4 5.4 -2.5
v 8.4 5.3 -2.5
v 8.5 5.3 -2.5
v 8.5 5.4 -2.5
v 8.5 5.4 -2.6
v 8.5 5.3 -2.6
v 8.4 5.3 -2.6
v 8.4 5.4 -2.6
v 8.6 5.4 -2.6
v 8.6 5.3 -2.6
v 8.6 5.3 -2.5
v 8.6 5.4 -2.5
v 8.6 5.4 -2.5
v 8.6 5.3 -2.5
v 8.7 5.3 -2.5
v 8.7 5.4 -2.5
v 8.7 5.4 -2.6
v 8.7 5.3 -2.6
v 8.6 5.3 -2.6
v 8.6 5.4 -2.6
v 8.7 5.4 -2.5
v 8.7 5.3 -2.5
v 8.8 5.3 -2.5
v 8.8 5.4 -2.5
v 8.8 5.4 -2.6
v 8.8 5.3 -2.6
v 8.7 5.3 -2.6
v 8.7 5.4 -2.6
v 8.9 5.4 -2.5
v 8.9 5.3 -2.5
v 8.9 5.3 -2.6
v 8.9 5.4 -2.6
v 8.8 5.4 -2.5
v 8.8 5.3 -2.5
v 8.9 5.3 -2.5
v 8.9 5.4 -2.5
v 8.9 5.4 -2.6
v 8.9 5.3 -2.6
v 8.8 5.3 -2.6
v 8.8 5.4 -2.6
v 9.1 5.4 -2.6
v 9.1 5.3 -2.6
v 9.1 5.3 -2.5
v 9.1 5.4 -2.5
v 9.1 5.3 -2.5
v 9.1 5.3 -2.6
v 9.2 5.3 -2.6
v 9.2 5.3 -2.5
v 9.1 5.4 -2.5
v 9.1 5.3 -2.5
v 9.2 5.3 -2.5
v 9.2 5.4 -2.5
v 9.2 5.4 -2.6
v 9.2 5.3 -2.6
v 9.1 5.3 -2.6
v 9.1 5.4 -2.6
v 9.2 5.4 -2.5
v 9.2 5.3 -2.5
v 9.3 5.3 -2.5
v 9.3 5.4 -2.5
v 9.3 5.4 -2.6
v 9.3 5.3 -2.6
v 9.2 5.3 -2.6
v 9.2 5.4 -2.6
v 9.4 5.4 -2.5
v 9.4 5.3 -2.5
v 9.4 5.3 -2.6
v 9.4 5.4 -2.6
v 9.3 5.4 -2.5
v 9.3 5.3 -2.5
v 9.4 5.3 -2.5
v 9.4 5.4 -2.5
v 9.4 5.4 -2.6
v 9.4 5.3 -2.6
v 9.3 5.3 -2.6
v 9.3 5.4 -2.6
v 8.1 5.3 -2.6
v 8.1 5.2 -2.6
v 8.1 5.2 -2.5
v 8.1 5.3 -2.5
v 8.1 5.3 -2.5
v 8.1 5.2 -2.5
v 8.2 5.2 -2.5
v 8.2 5.3 -2.5
v 8.2 5.3 -2.6
v 8.2 5.2 -2.6
v 8.1 5.2 -2.6
v 8.1 5.3 -2.6
v 8.2 5.3 -2.6
v 8.2 5.3 -2.5
v 8.3 5.3 -2.5
v 8.3 5.3 -2.6
v 8.2 5.3 -2.5
v 8.2 5.2 -2.5
v 8.3 5.2 -2.5
v 8.3 5.3 -2.5
v 8.3 5.3 -2.6
v 8.3 5.2 -2.6
v 8.2 5.2 -2.6
v 8.2 5.3 -2.6
v 8.3 5.3 -2.5
v 8.3 5.2 -2.5
v 8.4 5.2 -2.5
v 8.4 5.3 -2.5
v 8.4 5.3 -2.6
v 8.4 5.2 -2.6
v 8.3 5.2 -2.6
v 8.3 5.3 -2.6
v 8.5 5.3 -2.5
v 8.5 5.2 -2.5
v 8.5 5.2 -2.6
v 8.5 5.3 -2.6
v 8.4 5.3 -2.5
v 8.4 5.2 -2.5
v 8.5 5.2 -2.5
v 8.5 5.3 -2.5
v 8.5 5.3 -2.6
v 8.5 5.2 -2.6
v 8.4 5.2 -2.6
v 8.4 5.3 -2.6
v 8.6 5.3 -2.6
v 8.6 5.2 -2.6
v 8.6 5.2 -2.5
v 8.6 5.3 -2.5
v 8.6 5.3 -2.5
v 8.6 5.2 -2.5
v 8.7 5.2 -2.5
v 8.7 5.3 -2.5
v 8.7 5.3 -2.6
v 8.7 5.2 -2.6
v 8.6 5.2 -2.6
v 8.6 5.3 -2.6
v 8.7 5.3 -2.5
v 8.7 5.2 -2.5
v 8.8 5.2 -2.5
v 8.8 5.3 -2.5
v 8.8 5.3 -2.6
v 8.8 5.2 -2.6
v 8.7 5.2 -2.6
v 8.7 5.3 -2.6
v 8.9 5.3 -2.5
v 8.9 5.2 -2.5
v 8.9 5.2 -2.6
v 8.9 5.3 -2.6
v 8.8 5.3 -2.5
v 8.8 5.2 -2.5
v 8.9 5.2 -2.5
v 8.9 5.3 -2.5
v 8.9 5.3 -2.6
v 8.9 5.2 -2.6
v 8.8 5.2 -2.6
v 8.8 5.3 -2.6
v 9.2 5.3 -2.6
v 9.2 5.2 -2.6
v 9.2 5.2 -2.5
v 9.2 5.3 -2.5
v 9.2 5.2 -2.5
v 9.2 5.2 -2.6
v 9.3 5.2 -2.6
v 9.3 5.2 -2.5
v 9.2 5.3 -2.5
v 9.2 5.2 -2.5
v 9.3 5.2 -2.5
v 9.3 5.3 -2.5
v 9.3 5.3 -2.6
v 9.3 5.2 -2.6
v 9.2 5.2 -2.6
v 9.2 5.3 -2.6
v 9.3 5.3 -2.5
v 9.3 5.2 -2.5
v 9.4 5.2 -2.5
v 9.4 5.3 -2.5
v 9.4 5.3 -2.6
v 9.4 5.2 -2.6
v 9.3 5.2 -2.6
v 9.3 5.3 -2.6
v 9.5 5.3 -2.5
v 9.5 5.2 -2.5
v 9.5 5.2 -2.6
v 9.5 5.3 -2.6
v 9.4 5.3 -2.6
v 9.4 5.3 -2.5
v 9.5 5.3 -2.5
v 9.5 5.3 -2.6
v 9.4 5.3 -2.5
v 9.4 5.2 -2.5
v 9.5 5.2 -2.5
v 9.5 5.3 -2.5
v 9.5 5.3 -2.6
v 9.5 5.2 -2.6
v 9.4 5.2 -2.6
v 9.4 5.3 -2.6
v 7.6 5.2 -2.6
v 7.6 5.1 -2.6
v 7.6 5.1 -2.5
v 7.6 5.2 -2.5
v 7.7 5.2 -2.5
v 7.7 5.1 -2.5
v 7.7 5.1 -2.6
v 7.7 5.2 -2.6
v 7.6 5.2 -2.6
v 7.6 5.2 -2.5
v 7.7 5.2 -2.5
v 7.7 5.2 -2.6
v 7.6 5.1 -2.5
v 7.6 5.1 -2.6
v 7.7 5.1 -2.6
v 7.7 5.1 -2.5
v 7.6 5.2 -2.5
v 7.6 5.1 -2.5
v 7.7 5.1 -2.5
v 7.7 5.2 -2.5
v 7.7 5.2 -2.6
v 7.7 5.1 -2.6
v 7.6 5.1 -2.6
v 7.6 5.2 -2.6
v 8.1 5.2 -2.6
v 8.1 5.1 -2.6
v 8.1 5.1 -2.5
v 8.1 5.2 -2.5
v 8.1 5.2 -2.5
v 8.1 5.1 -2.5
v 8.2 5.1 -2.5
v 8.2 5.2 -2.5
v 8.2 5.2 -2.6
v 8.2 5.1 -2.6
v 8.1 5.1 -2.6
v 8.1 5.2 -2.6
v 8.2 5.1 -2.5
v 8.2 5.1 -2.6
v 8.3 5.1 -2.6
v 8.3 5.1 -2.5
v 8.2 5.2 -2.5
v 8.2 5.1 -2.5
v 8.3 5.1 -2.5
v 8.3 5.2 -2.5
v 8.3 5.2 -2.6
v 8.3 5.1 -2.6
v 8.2 5.1 -2.6
v 8.2 5.2 -2.6
v 8.3 5.1 -2.5
v 8.3 5.1 -2.6
v 8.4 5.1 -2.6
v 8.4 5.1 -2.5
v 8.3 5.2 -2.5
v 8.3 5.1 -2.5
v 8.4 5.1 -2.5
v 8.4 5.2 -2.5
v 8.4 5.2 -2.6
v 8.4 5.1 -2.6
v 8.3 5.1 -2.6
v 8.3 5.2 -2.6
v 8.4 5.2 -2.5
v 8.4 5.1 -2.5
v 8.5 5.1 -2.5
v 8.5 5.2 -2.5
v 8.5 5.2 -2.6
v 8.5 5.1 -2.6
v 8.4 5.1 -2.6
v 8.4 5.2 -2.6
v 8.5 5.2 -2.6
v 8.5 5.2 -2.5
v 8.6 5.2 -2.5
v 8.6 5.2 -2.6
v 8.5 5.2 -2.5
v 8.5 5.1 -2.5
v 8.6 5.1 -2.5
v 8.6 5.2 -2.5
v 8.6 5.2 -2.6
v 8.6 5.1 -2.6
v 8.5 5.1 -2.6
v 8.5 5.2 -2.6
v 8.6 5.2 -2.5
v 8.6 5.1 -2.5
v 8.7 5.1 -2.5
v 8.7 5.2 -2.5
v 8.7 5.2 -2.6
v 8.7 5.1 -2.6
v 8.6 5.1 -2.6
v 8.6 5.2 -2.6
v 8.7 5.2 -2.5
v 8.7 5.1 -2.5
v 8.8 5.1 -2.5
v 8.8 5.2 -2.5
v 8.8 5.2 -2.6
v 8.8 5.1 -2.6
v 8.7 5.1 -2.6
v 8.7 5.2 -2.6
v 8.9 5.2 -2.5
v 8.9 5.1 -2.5
v 8.9 5.1 -2.6
v 8.9 5.2 -2.6
v 8.8 5.2 -2.5
v 8.8 5.1 -2.5
v 8.9 5.1 -2.5
v 8.9 5.2 -2.5
v 8.9 5.2 -2.6
v 8.9 5.1 -2.6
v 8.8 5.1 -2.6
v 8.8 5.2 -2.6
v 9.3 5.2 -2.6
v 9.3 5.1 -2.6
v 9.3 5.1 -2.5
v 9.3 5.2 -2.5
v 9.3 5.1 -2.5
v 9.3 5.1 -2.6
v 9.4 5.1 -2.6
v 9.4 5.1 -2.5
v 9.3 5.2 -2.5
v 9.3 5.1 -2.5
v 9.4 5.1 -2.5
v 9.4 5.2 -2.5
v 9.4 5.2 -2.6
v 9.4 5.1 -2.6
v 9.3 5.1 -2.6
v 9.3 5.2 -2.6
v 9.5 5.2 -2.5
v 9.5 5.1 -2.5
v 9.5 5.1 -2.6
v 9.5 5.2 -2.6
v 9.4 5.2 -2.5
v 9.4 5.1 -2.5
v 9.5 5.1 -2.5
v 9.5 5.2 -2.5
v 9.5 5.2 -2.6
v 9.5 5.1 -2.6
v 9.4 5.1 -2.6
v 9.4 5.2 -2.6
v 7.7 5.1 -2.6
v 7.7 5 -2.6
v 7.7 5 -2.5
v 7.7 5.1 -2.5
v 7.7 5.1 -2.6
v 7.7 5.1 -2.5
v 7.8 5.1 -2.5
v 7.8 5.1 -2.6
v 7.7 5 -2.5
v 7.7 5 -2.6
v 7.8 5 -2.6
v 7.8 5 -2.5
v 7.7 5.1 -2.5
v 7.7 5 -2.5
v 7.8 5 -2.5
v 7.8 5.1 -2.5
v 7.8 5.1 -2.6
v 7.8 5 -2.6
v 7.7 5 -2.6
v 7.7 5.1 -2.6
v 7.9 5.1 -2.5
v 7.9 5 -2.5
v 7.9 5 -2.6
v 7.9 5.1 -2.6
v 7.8 5.1 -2.6
v 7.8 5.1 -2.5
v 7.9 5.1 -2.5
v 7.9 5.1 -2.6
v 7.8 5 -2.5
v 7.8 5 -2.6
v 7.9 5 -2.6
v 7.9 5 -2.5
v 7.8 5.1 -2.5
v 7.8 5 -2.5
v 7.9 5 -2.5
v 7.9 5.1 -2.5
v 7.9 5.1 -2.6
v 7.9 5 -2.6
v 7.8 5 -2.6
v 7.8 5.1 -2.6
v 8.1 5.1 -2.6
v 8.1 5 -2.6
v 8.1 5 -2.5
v 8.1 5.1 -2.5
v 8.2 5.1 -2.5
v 8.2 5 -2.5
v 8.2 5 -2.6
v 8.2 5.1 -2.6
v 8.1 5 -2.5
v 8.1 5 -2.6
v 8.2 5 -2.6
v 8.2 5 -2.5
v 8.1 5.1 -2.5
v 8.1 5 -2.5
v 8.2 5 -2.5
v 8.2 5.1 -2.5
v 8.2 5.1 -2.6
v 8.2 5 -2.6
v 8.1 5 -2.6
v 8.1 5.1 -2.6
v 8.4 5.1 -2.6
v 8.4 5 -2.6
v 8.4 5 -2.5
v 8.4 5.1 -2.5
v 8.4 5.1 -2.5
v 8.4 5 -2.5
v 8.5 5 -2.5
v 8.5 5.1 -2.5
v 8.5 5.1 -2.6
v 8.5 5 -2.6
v 8.4 5 -2.6
v 8.4 5.1 -2.6
v 8.5 5.1 -2.5
v 8.5 5 -2.5
v 8.6 5 -2.5
v 8.6 5.1 -2.5
v 8.6 5.1 -2.6
v 8.6 5 -2.6
v 8.5 5 -2.6
v 8.5 5.1 -2.6
v 8.6 5.1 -2.5
v 8.6 5 -2.5
v 8.7 5 -2.5
v 8.7 5.1 -2.5
v 8.7 5.1 -2.6
v 8.7 5 -2.6
v 8.6 5 -2.6
v 8.6 5.1 -2.6
v 8.7 5.1 -2.5
v 8.7 5 -2.5
v 8.8 5 -2.5
v 8.8 5.1 -2.5
v 8.8 5.1 -2.6
v 8.8 5 -2.6
v 8.7 5 -2.6
v 8.7 5.1 -2.6
v 8.9 5.1 -2.5
v 8.9 5 -2.5
v 8.9 5 -2.6
v 8.9 5.1 -2.6
v 8.8 5.1 -2.5
v 8.8 5 -2.5
v 8.9 5 -2.5
v 8.9 5.1 -2.5
v 8.9 5.1 -2.6
v 8.9 5 -2.6
v 8.8 5 -2.6
v 8.8 5.1 -2.6
v 9.4 5.1 -2.6
v 9.4 5 -2.6
v 9.4 5 -2.5
v 9.4 5.1 -2.5
v 9.4 5 -2.5
v 9.4 5 -2.6
v 9.5 5 -2.6
v 9.5 5 -2.5
v 9.4 5.1 -2.5
v 9.4 5 -2.5
v 9.5 5 -2.5
v 9.5 5.1 -2.5
v 9.5 5.1 -2.6
v 9.5 5 -2.6
v 9.4 5 -2.6
v 9.4 5.1 -2.6
v 9.6 5.1 -2.5
v 9.6 5 -2.5
v 9.6 5 -2.6
v 9.6 5.1 -2.6
v 9.5 5.1 -2.6
v 9.5 5.1 -2.5
v 9.6 5.1 -2.5
v 9.6 5.1 -2.6
v 9.5 5.1 -2.5
v 9.5 5 -2.5
v 9.6 5 -2.5
v 9.6 5.1 -2.5
v 9.6 5.1 -2.6
v 9.6 5 -2.6
v 9.5 5 -2.6
v 9.5 5.1 -2.6
v 7.6 5 -2.6
v 7.6 4.9 -2.6
v 7.6 4.9 -2.5
v 7.6 5 -2.5
v 7.7 5 -2.5
v 7.7 4.9 -2.5
v 7.7 4.9 -2.6
v 7.7 5 -2.6
v 7.6 5 -2.6
v 7.6 5 -2.5
v 7.7 5 -2.5
v 7.7 5 -2.6
v 7.6 4.9 -2.5
v 7.6 4.9 -2.6
v 7.7 4.9 -2.6
v 7.7 4.9 -2.5
v 7.6 5 -2.5
v 7.6 4.9 -2.5
v 7.7 4.9 -2.5
v 7.7 5 -2.5
v 7.7 5 -2.6
v 7.7 4.9 -2.6
v 7.6 4.9 -2.6
v 7.6 5 -2.6
v 7.9 5 -2.6
v 7.9 4.9 -2.6
v 7.9 4.9 -2.5
v 7.9 5 -2.5
v 7.9 5 -2.6
v 7.9 5 -2.5
v 8 5 -2.5
v 8 5 -2.6
v 7.9 4.9 -2.5
v 7.9 4.9 -2.6
v 8 4.9 -2.6
v 8 4.9 -2.5
v 7.9 5 -2.5
v 7.9 4.9 -2.5
v 8 4.9 -2.5
v 8 5 -2.5
v 8 5 -2.6
v 8 4.9 -2.6
v 7.9 4.9 -2.6
v 7.9 5 -2.6
v 8.1 5 -2.5
v 8.1 4.9 -2.5
v 8.1 4.9 -2.6
v 8.1 5 -2.6
v 8 5 -2.6
v 8 5 -2.5
v 8.1 5 -2.5
v 8.1 5 -2.6
v 8 4.9 -2.5
v 8 4.9 -2.6
v 8.1 4.9 -2.6
v 8.1 4.9 -2.5
v 8 5 -2.5
v 8 4.9 -2.5
v 8.1 4.9 -2.5
v 8.1 5 -2.5
v 8.1 5 -2.6
v 8.1 4.9 -2.6
v 8 4.9 -2.6
v 8 5 -2.6
v 8.4 5 -2.6
v 8.4 4.9 -2.6
v 8.4 4.9 -2.5
v 8.4 5 -2.5
v 8.4 4.9 -2.5
v 8.4 4.9 -2.6
v 8.5 4.9 -2.6
v 8.5 4.9 -2.5
v 8.4 5 -2.5
v 8.4 4.9 -2.5
v 8.5 4.9 -2.5
v 8.5 5 -2.5
v 8.5 5 -2.6
v 8.5 4.9 -2.6
v 8.4 4.9 -2.6
v 8.4 5 -2.6
v 8.5 5 -2.5
v 8.5 4.9 -2.5
v 8.6 4.9 -2.5
v 8.6 5 -2.5
v 8.6 5 -2.6
v 8.6 4.9 -2.6
v 8.5 4.9 -2.6
v 8.5 5 -2.6
v 8.6 5 -2.5
v 8.6 4.9 -2.5
v 8.7 4.9 -2.5
v 8.7 5 -2.5
v 8.7 5 -2.6
v 8.7 4.9 -2.6
v 8.6 4.9 -2.6
v 8.6 5 -2.6
v 8.7 5 -2.5
v 8.7 4.9 -2.5
v 8.8 4.9 -2.5
v 8.8 5 -2.5
v 8.8 5 -2.6
v 8.8 4.9 -2.6
v 8.7 4.9 -2.6
v 8.7 5 -2.6
v 8.9 5 -2.5
v 8.9 4.9 -2.5
v 8.9 4.9 -2.6
v 8.9 5 -2.6
v 8.8 5 -2.5
v 8.8 4.9 -2.5
v 8.9 4.9 -2.5
v 8.9 5 -2.5
v 8.9 5 -2.6
v 8.9 4.9 -2.6
v 8.8 4.9 -2.6
v 8.8 5 -2.6
v 9.5 5 -2.6
v 9.5 4.9 -2.6
v 9.5 4.9 -2.5
v 9.5 5 -2.5
v 9.6 5 -2.5
v 9.6 4.9 -2.5
v 9.6 4.9 -2.6
v 9.6 5 -2.6
v 9.5 4.9 -2.5
v 9.5 4.9 -2.6
v 9.6 4.9 -2.6
v 9.6 4.9 -2.5
v 9.5 5 -2.5
v 9.5 4.9 -2.5
v 9.6 4.9 -2.5
v 9.6 5 -2.5
v 9.6 5 -2.6
v 9.6 4.9 -2.6
v 9.5 4.9 -2.6
v 9.5 5 -2.6
v 7.7 4.9 -2.6
v 7.7 4.8 -2.6
v 7.7 4.8 -2.5
v 7.7 4.9 -2.5
v 7.7 4.9 -2.6
v 7.7 4.9 -2.5
v 7.8 4.9 -2.5
v 7.8 4.9 -2.6
v 7.7 4.8 -2.5
v 7.7 4.8 -2.6
v 7.8 4.8 -2.6
v 7.8 4.8 -2.5
v 7.7 4.9 -2.5
v 7.7 4.8 -2.5
v 7.8 4.8 -2.5
v 7.8 4.9 -2.5
v 7.8 4.9 -2.6
v 7.8 4.8 -2.6
v 7.7 4.8 -2.6
v 7.7 4.9 -2.6
v 7.9 4.9 -2.5
v 7.9 4.8 -2.5
v 7.9 4.8 -2.6
v 7.9 4.9 -2.6
v 7.8 4.9 -2.6
v 7.8 4.9 -2.5
v 7.9 4.9 -2.5
v 7.9 4.9 -2.6
v 7.8 4.8 -2.5
v 7.8 4.8 -2.6
v 7.9 4.8 -2.6
v 7.9 4.8 -2.5
v 7.8 4.9 -2.5
v 7.8 4.8 -2.5
v 7.9 4.8 -2.5
v 7.9 4.9 -2.5
v 7.9 4.9 -2.6
v 7.9 4.8 -2.6
v 7.8 4.8 -2.6
v 7.8 4.9 -2.6
v 8.5 4.9 -2.6
v 8.5 4.8 -2.6
v 8.5 4.8 -2.5
v 8.5 4.9 -2.5
v 8.5 4.9 -2.5
v 8.5 4.8 -2.5
v 8.6 4.8 -2.5
v 8.6 4.9 -2.5
v 8.6 4.9 -2.6
v 8.6 4.8 -2.6
v 8.5 4.8 -2.6
v 8.5 4.9 -2.6
v 8.6 4.9 -2.5
v 8.6 4.8 -2.5
v 8.7 4.8 -2.5
v 8.7 4.9 -2.5
v 8.7 4.9 -2.6
v 8.7 4.8 -2.6
v 8.6 4.8 -2.6
v 8.6 4.9 -2.6
v 8.7 4.9 -2.5
v 8.7 4.8 -2.5
v 8.8 4.8 -2.5
v 8.8 4.9 -2.5
v 8.8 4.9 -2.6
v 8.8 4.8 -2.6
v 8.7 4.8 -2.6
v 8.7 4.9 -2.6
v 8.9 4.9 -2.5
v 8.9 4.8 -2.5
v 8.9 4.8 -2.6
v 8.9 4.9 -2.6
v 8.8 4.9 -2.5
v 8.8 4.8 -2.5
v 8.9 4.8 -2.5
v 8.9 4.9 -2.5
v 8.9 4.9 -2.6
v 8.9 4.8 -2.6
v 8.8 4.8 -2.6
v 8.8 4.9 -2.6
v 9.6 4.9 -2.6
v 9.6 4.8 -2.6
v 9.6 4.8 -2.5
v 9.6 4.9 -2.5
v 9.7 4.9 -2.5
v 9.7 4.8 -2.5
v 9.7 4.8 -2.6
v 9.7 4.9 -2.6
v 9.6 4.9 -2.6
v 9.6 4.9 -2.5
v 9.7 4.9 -2.5
v 9.7 4.9 -2.6
v 9.6 4.9 -2.5
v 9.6 4.8 -2.5
v 9.7 4.8 -2.5
v 9.7 4.9 -2.5
v 9.7 4.9 -2.6
v 9.7 4.8 -2.6
v 9.6 4.8 -2.6
v 9.6 4.9 -2.6
v 8.5 4.8 -2.6
v 8.5 4.7 -2.6
v 8.5 4.7 -2.5
v 8.5 4.8 -2.5
v 8.5 4.8 -2.5
v 8.5 4.7 -2.5
v 8.6 4.7 -2.5
v 8.6 4.8 -2.5
v 8.6 4.8 -2.6
v 8.6 4.7 -2.6
v 8.5 4.7 -2.6
v 8.5 4.8 -2.6
v 8.6 4.8 -2.5
v 8.6 4.7 -2.5
v 8.7 4.7 -2.5
v 8.7 4.8 -2.5
v 8.7 4.8 -2.6
v 8.7 4.7 -2.6
v 8.6 4.7 -2.6
v 8.6 4.8 -2.6
v 8.7 4.8 -2.5
v 8.7 4.7 -2.5
v 8.8 4.7 -2.5
v 8.8 4.8 -2.5
v 8.8 4.8 -2.6
v 8.8 4.7 -2.6
v 8.7 4.7 -2.6
v 8.7 4.8 -2.6
v 8.9 4.8 -2.5
v 8.9 4.7 -2.5
v 8.9 4.7 -2.6
v 8.9 4.8 -2.6
v 8.8 4.8 -2.5
v 8.8 4.7 -2.5
v 8.9 4.7 -2.5
v 8.9 4.8 -2.5
v 8.9 4.8 -2.6
v 8.9 4.7 -2.6
v 8.8 4.7 -2.6
v 8.8 4.8 -2.6
v 9.6 4.8 -2.6
v 9.6 4.7 -2.6
v 9.6 4.7 -2.5
v 9.6 4.8 -2.5
v 9.7 4.8 -2.5
v 9.7 4.7 -2.5
v 9.7 4.7 -2.6
v 9.7 4.8 -2.6
v 9.6 4.7 -2.5
v 9.6 4.7 -2.6
v 9.7 4.7 -2.6
v 9.7 4.7 -2.5
v 9.6 4.8 -2.5
v 9.6 4.7 -2.5
v 9.7 4.7 -2.5
v 9.7 4.8 -2.5
v 9.7 4.8 -2.6
v 9.7 4.7 -2.6
v 9.6 4.7 -2.6
v 9.6 4.8 -2.6
v 8.5 4.7 -2.6
v 8.5 4.6 -2.6
v 8.5 4.6 -2.5
v 8.5 4.7 -2.5
v 8.5 4.6 -2.5
v 8.5 4.6 -2.6
v 8.6 4.6 -2.6
v 8.6 4.6 -2.5
v 8.5 4.7 -2.5
v 8.5 4.6 -2.5
v 8.6 4.6 -2.5
v 8.6 4.7 -2.5
v 8.6 4.7 -2.6
v 8.6 4.6 -2.6
v 8.5 4.6 -2.6
v 8.5 4.7 -2.6
v 8.6 4.7 -2.5
v 8.6 4.6 -2.5
v 8.7 4.6 -2.5
v 8.7 4.7 -2.5
v 8.7 4.7 -2.6
v 8.7 4.6 -2.6
v 8.6 4.6 -2.6
v 8.6 4.7 -2.6
v 8.7 4.7 -2.5
v 8.7 4.6 -2.5
v 8.8 4.6 -2.5
v 8.8 4.7 -2.5
v 8.8 4.7 -2.6
v 8.8 4.6 -2.6
v 8.7 4.6 -2.6
v 8.7 4.7 -2.6
v 8.9 4.7 -2.5
v 8.9 4.6 -2.5
v 8.9 4.6 -2.6
v 8.9 4.7 -2.6
v 8.8 4.7 -2.5
v 8.8 4.6 -2.5
v 8.9 4.6 -2.5
v 8.9 4.7 -2.5
v 8.9 4.7 -2.6
v 8.9 4.6 -2.6
v 8.8 4.6 -2.6
v 8.8 4.7 -2.6
v 9.7 4.7 -2.6
v 9.7 4.6 -2.6
v 9.7 4.6 -2.5
v 9.7 4.7 -2.5
v 9.8 4.7 -2.5
v 9.8 4.6 -2.5
v 9.8 4.6 -2.6
v 9.8 4.7 -2.6
v 9.7 4.7 -2.6
v 9.7 4.7 -2.5
v 9.8 4.7 -2.5
v 9.8 4.7 -2.6
v 9.7 4.7 -2.5
v 9.7 4.6 -2.5
v 9.8 4.6 -2.5
v 9.8 4.7 -2.5
v 9.8 4.7 -2.6
v 9.8 4.6 -2.6
v 9.7 4.6 -2.6
v 9.7 4.7 -2.6
v 8.3 4.6 -2.6
v 8.3 4.5 -2.6
v 8.3 4.5 -2.5
v 8.3 4.6 -2.5
v 8.4 4.6 -2.5
v 8.4 4.5 -2.5
v 8.4 4.5 -2.6
v 8.4 4.6 -2.6
v 8.3 4.6 -2.6
v 8.3 4.6 -2.5
v 8.4 4.6 -2.5
v 8.4 4.6 -2.6
v 8.3 4.5 -2.5
v 8.3 4.5 -2.6
v 8.4 4.5 -2.6
v 8.4 4.5 -2.5
v 8.3 4.6 -2.5
v 8.3 4.5 -2.5
v 8.4 4.5 -2.5
v 8.4 4.6 -2.5
v 8.4 4.6 -2.6
v 8.4 4.5 -2.6
v 8.3 4.5 -2.6
v 8.3 4.6 -2.6
v 8.6 4.6 -2.6
v 8.6 4.5 -2.6
v 8.6 4.5 -2.5
v 8.6 4.6 -2.5
v 8.6 4.6 -2.5
v 8.6 4.5 -2.5
v 8.7 4.5 -2.5
v 8.7 4.6 -2.5
v 8.7 4.6 -2.6
v 8.7 4.5 -2.6
v 8.6 4.5 -2.6
v 8.6 4.6 -2.6
v 8.7 4.6 -2.5
v 8.7 4.5 -2.5
v 8.8 4.5 -2.5
v 8.8 4.6 -2.5
v 8.8 4.6 -2.6
v 8.8 4.5 -2.6
v 8.7 4.5 -2.6
v 8.7 4.6 -2.6
v 8.8 4.6 -2.5
v 8.8 4.5 -2.5
v 8.9 4.5 -2.5
v 8.9 4.6 -2.5
v 8.9 4.6 -2.6
v 8.9 4.5 -2.6
v 8.8 4.5 -2.6
v 8.8 4.6 -2.6
v 9 4.6 -2.5
v 9 4.5 -2.5
v 9 4.5 -2.6
v 9 4.6 -2.6
v 8.9 4.6 -2.6
v 8.9 4.6 -2.5
v 9 4.6 -2.5
v 9 4.6 -2.6
v 8.9 4.6 -2.5
v 8.9 4.5 -2.5
v 9 4.5 -2.5
v 9 4.6 -2.5
v 9 4.6 -2.6
v 9 4.5 -2.6
v 8.9 4.5 -2.6
v 8.9 4.6 -2.6
v 9.7 4.6 -2.6
v 9.7 4.5 -2.6
v 9.7 4.5 -2.5
v 9.7 4.6 -2.5
v 9.8 4.6 -2.5
v 9.8 4.5 -2.5
v 9.8 4.5 -2.6
v 9.8 4.6 -2.6
v 9.7 4.5 -2.5
v 9.7 4.5 -2.6
v 9.8 4.5 -2.6
v 9.8 4.5 -2.5
v 9.7 4.6 -2.5
v 9.7 4.5 -2.5
v 9.8 4.5 -2.5
v 9.8 4.6 -2.5
v 9.8 4.6 -2.6
v 9.8 4.5 -2.6
v 9.7 4.5 -2.6
v 9.7 4.6 -2.6
v 8.6 4.5 -2.6
v 8.6 4.4 -2.6
v 8.6 4.4 -2.5
v 8.6 4.5 -2.5
v 8.6 4.4 -2.5
v 8.6 4.4 -2.6
v 8.7 4.4 -2.6
v 8.7 4.4 -2.5
v 8.6 4.5 -2.5
v 8.6 4.4 -2.5
v 8.7 4.4 -2.5
v 8.7 4.5 -2.5
v 8.7 4.5 -2.6
v 8.7 4.4 -2.6
v 8.6 4.4 -2.6
v 8.6 4.5 -2.6
v 8.7 4.5 -2.5
v 8.7 4.4 -2.5
v 8.8 4.4 -2.5
v 8.8 4.5 -2.5
v 8.8 4.5 -2.6
v 8.8 4.4 -2.6
v 8.7 4.4 -2.6
v 8.7 4.5 -2.6
v 8.8 4.5 -2.5
v 8.8 4.4 -2.5
v 8.9 4.4 -2.5
v 8.9 4.5 -2.5
v 8.9 4.5 -2.6
v 8.9 4.4 -2.6
v 8.8 4.4 -2.6
v 8.8 4.5 -2.6
v 9 4.5 -2.5
v 9 4.4 -2.5
v 9 4.4 -2.6
v 9 4.5 -2.6
v 8.9 4.5 -2.5
v 8.9 4.4 -2.5
v 9 4.4 -2.5
v 9 4.5 -2.5
v 9 4.5 -2.6
v 9 4.4 -2.6
v 8.9 4.4 -2.6
v 8.9 4.5 -2.6
v 9.8 4.5 -2.6
v 9.8 4.4 -2.6
v 9.8 4.4 -2.5
v 9.8 4.5 -2.5
v 9.9 4.5 -2.5
v 9.9 4.4 -2.5
v 9.9 4.4 -2.6
v 9.9 4.5 -2.6
v 9.8 4.5 -2.6
v 9.8 4.5 -2.5
v 9.9 4.5 -2.5
v 9.9 4.5 -2.6
v 9.8 4.5 -2.5
v 9.8 4.4 -2.5
v 9.9 4.4 -2.5
v 9.9 4.5 -2.5
v 9.9 4.5 -2.6
v 9.9 4.4 -2.6
v 9.8 4.4 -2.6
v 9.8 4.5 -2.6
v 8.5 4.4 -2.6
v 8.5 4.3 -2.6
v 8.5 4.3 -2.5
v 8.5 4.4 -2.5
v 8.6 4.4 -2.5
v 8.6 4.3 -2.5
v 8.6 4.3 -2.6
v 8.6 4.4 -2.6
v 8.5 4.4 -2.6
v 8.5 4.4 -2.5
v 8.6 4.4 -2.5
v 8.6 4.4 -2.6
v 8.5 4.4 -2.5
v 8.5 4.3 -2.5
v 8.6 4.3 -2.5
v 8.6 4.4 -2.5
v 8.6 4.4 -2.6
v 8.6 4.3 -2.6
v 8.5 4.3 -2.6
v 8.5 4.4 -2.6
v 8.7 4.4 -2.6
v 8.7 4.3 -2.6
v 8.7 4.3 -2.5
v 8.7 4.4 -2.5
v 8.7 4.4 -2.5
v 8.7 4.3 -2.5
v 8.8 4.3 -2.5
v 8.8 4.4 -2.5
v 8.8 4.4 -2.6
v 8.8 4.3 -2.6
v 8.7 4.3 -2.6
v 8.7 4.4 -2.6
v 8.8 4.4 -2.5
v 8.8 4.3 -2.5
v 8.9 4.3 -2.5
v 8.9 4.4 -2.5
v 8.9 4.4 -2.6
v 8.9 4.3 -2.6
v 8.8 4.3 -2.6
v 8.8 4.4 -2.6
v 9 4.4 -2.5
v 9 4.3 -2.5
v 9 4.3 -2.6
v 9 4.4 -2.6
v 8.9 4.4 -2.5
v 8.9 4.3 -2.5
v 9 4.3 -2.5
v 9 4.4 -2.5
v 9 4.4 -2.6
v 9 4.3 -2.6
v 8.9 4.3 -2.6
v 8.9 4.4 -2.6
v 9.8 4.4 -2.6
v 9.8 4.3 -2.6
v 9.8 4.3 -2.5
v 9.8 4.4 -2.5
v 9.9 4.4 -2.5
v 9.9 4.3 -2.5
v 9.9 4.3 -2.6
v 9.9 4.4 -2.6
v 9.8 4.3 -2.5
v 9.8 4.3 -2.6
v 9.9 4.3 -2.6
v 9.9 4.3 -2.5
v 9.8 4.4 -2.5
v 9.8 4.3 -2.5
v 9.9 4.3 -2.5
v 9.9 4.4 -2.5
v 9.9 4.4 -2.6
v 9.9 4.3 -2.6
v 9.8 4.3 -2.6
v 9.8 4.4 -2.6
v 8.5 4.3 -2.6
v 8.5 4.2 -2.6
v 8.5 4.2 -2.5
v 8.5 4.3 -2.5
v 8.6 4.3 -2.5
v 8.6 4.2 -2.5
v 8.6 4.2 -2.6
v 8.6 4.3 -2.6
v 8.5 4.2 -2.5
v 8.5 4.2 -2.6
v 8.6 4.2 -2.6
v 8.6 4.2 -2.5
v 8.5 4.3 -2.5
v 8.5 4.2 -2.5
v 8.6 4.2 -2.5
v 8.6 4.3 -2.5
v 8.6 4.3 -2.6
v 8.6 4.2 -2.6
v 8.5 4.2 -2.6
v 8.5 4.3 -2.6
v 8.7 4.3 -2.6
v 8.7 4.2 -2.6
v 8.7 4.2 -2.5
v 8.7 4.3 -2.5
v 8.7 4.3 -2.5
v 8.7 4.2 -2.5
v 8.8 4.2 -2.5
v 8.8 4.3 -2.5
v 8.8 4.3 -2.6
v 8.8 4.2 -2.6
v 8.7 4.2 -2.6
v 8.7 4.3 -2.6
v 8.8 4.3 -2.5
v 8.8 4.2 -2.5
v 8.9 4.2 -2.5
v 8.9 4.3 -2.5
v 8.9 4.3 -2.6
v 8.9 4.2 -2.6
v 8.8 4.2 -2.6
v 8.8 4.3 -2.6
v 9 4.3 -2.5
v 9 4.2 -2.5
v 9 4.2 -2.6
v 9 4.3 -2.6
v 8.9 4.3 -2.5
v 8.9 4.2 -2.5
v 9 4.2 -2.5
v 9 4.3 -2.5
v 9 4.3 -2.6
v 9 4.2 -2.6
v 8.9 4.2 -2.6
v 8.9 4.3 -2.6
v 9.9 4.3 -2.6
v 9.9 4.2 -2.6
v 9.9 4.2 -2.5
v 9.9 4.3 -2.5
v 10 4.3 -2.5
v 10 4.2 -2.5
v 10 4.2 -2.6
v 10 4.3 -2.6
v 9.9 4.3 -2.6
v 9.9 4.3 -2.5
v 10 4.3 -2.5
v 10 4.3 -2.6
v 9.9 4.3 -2.5
v 9.9 4.2 -2.5
v 10 4.2 -2.5
v 10 4.3 -2.5
v 10 4.3 -2.6
v 10 4.2 -2.6
v 9.9 4.2 -2.6
v 9.9 4.3 -2.6
v 8.6 4.2 -2.6
v 8.6 4.1 -2.6
v 8.6 4.1 -2.5
v 8.6 4.2 -2.5
v 8.6 4.2 -2.6
v 8.6 4.2 -2.5
v 8.7 4.2 -2.5
v 8.7 4.2 -2.6
v 8.6 4.2 -2.5
v 8.6 4.1 -2.5
v 8.7 4.1 -2.5
v 8.7 4.2 -2.5
v 8.7 4.2 -2.6
v 8.7 4.1 -2.6
v 8.6 4.1 -2.6
v 8.6 4.2 -2.6
v 8.7 4.2 -2.5
v 8.7 4.1 -2.5
v 8.8 4.1 -2.5
v 8.8 4.2 -2.5
v 8.8 4.2 -2.6
v 8.8 4.1 -2.6
v 8.7 4.1 -2.6
v 8.7 4.2 -2.6
v 8.8 4.2 -2.5
v 8.8 4.1 -2.5
v 8.9 4.1 -2.5
v 8.9 4.2 -2.5
v 8.9 4.2 -2.6
v 8.9 4.1 -2.6
v 8.8 4.1 -2.6
v 8.8 4.2 -2.6
v 9 4.2 -2.5
v 9 4.1 -2.5
v 9 4.1 -2.6
v 9 4.2 -2.6
v 8.9 4.2 -2.5
v 8.9 4.1 -2.5
v 9 4.1 -2.5
v 9 4.2 -2.5
v 9 4.2 -2.6
v 9 4.1 -2.6
v 8.9 4.1 -2.6
v 8.9 4.2 -2.6
v 9.9 4.2 -2.6
v 9.9 4.1 -2.6
v 9.9 4.1 -2.5
v 9.9 4.2 -2.5
v 10 4.2 -2.5
v 10 4.1 -2.5
v 10 4.1 -2.6
v 10 4.2 -2.6
v 9.9 4.1 -2.5
v 9.9 4.1 -2.6
v 10 4.1 -2.6
v 10 4.1 -2.5
v 9.9 4.2 -2.5
v 9.9 4.1 -2.5
v 10 4.1 -2.5
v 10 4.2 -2.5
v 10 4.2 -2.6
v 10 4.1 -2.6
v 9.9 4.1 -2.6
v 9.9 4.2 -2.6
v 8.6 4.1 -2.6
v 8.6 4 -2.6
v 8.6 4 -2.5
v 8.6 4.1 -2.5
v 8.6 4 -2.5
v 8.6 4 -2.6
v 8.7 4 -2.6
v 8.7 4 -2.5
v 8.6 4.1 -2.5
v 8.6 4 -2.5
v 8.7 4 -2.5
v 8.7 4.1 -2.5
v 8.7 4.1 -2.6
v 8.7 4 -2.6
v 8.6 4 -2.6
v 8.6 4.1 -2.6
v 8.7 4.1 -2.5
v 8.7 4 -2.5
v 8.8 4 -2.5
v 8.8 4.1 -2.5
v 8.8 4.1 -2.6
v 8.8 4 -2.6
v 8.7 4 -2.6
v 8.7 4.1 -2.6
v 8.8 4.1 -2.5
v 8.8 4 -2.5
v 8.9 4 -2.5
v 8.9 4.1 -2.5
v 8.9 4.1 -2.6
v 8.9 4 -2.6
v 8.8 4 -2.6
v 8.8 4.1 -2.6
v 9 4.1 -2.5
v 9 4 -2.5
v 9 4 -2.6
v 9 4.1 -2.6
v 8.9 4.1 -2.5
v 8.9 4 -2.5
v 9 4 -2.5
v 9 4.1 -2.5
v 9 4.1 -2.6
v 9 4 -2.6
v 8.9 4 -2.6
v 8.9 4.1 -2.6
v 8.7 4 -2.6
v 8.7 3.9 -2.6
v 8.7 3.9 -2.5
v 8.7 4 -2.5
v 8.7 4 -2.5
v 8.7 3.9 -2.5
v 8.8 3.9 -2.5
v 8.8 4 -2.5
v 8.8 4 -2.6
v 8.8 3.9 -2.6
v 8.7 3.9 -2.6
v 8.7 4 -2.6
v 8.8 4 -2.5
v 8.8 3.9 -2.5
v 8.9 3.9 -2.5
v 8.9 4 -2.5
v 8.9 4 -2.6
v 8.9 3.9 -2.6
v 8.8 3.9 -2.6
v 8.8 4 -2.6
v 9 4 -2.5
v 9 3.9 -2.5
v 9 3.9 -2.6
v 9 4 -2.6
v 8.9 4 -2.5
v 8.9 3.9 -2.5
v 9 3.9 -2.5
v 9 4 -2.5
v 9 4 -2.6
v 9 3.9 -2.6
v 8.9 3.9 -2.6
v 8.9 4 -2.6
v 8.7 3.9 -2.6
v 8.7 3.8 -2.6
v 8.7 3.8 -2.5
v 8.7 3.9 -2.5
v 8.7 3.9 -2.5
v 8.7 3.8 -2.5
v 8.8 3.8 -2.5
v 8.8 3.9 -2.5
v 8.8 3.9 -2.6
v 8.8 3.8 -2.6
v 8.7 3.8 -2.6
v 8.7 3.9 -2.6
v 8.8 3.9 -2.5
v 8.8 3.8 -2.5
v 8.9 3.8 -2.5
v 8.9 3.9 -2.5
v 8.9 3.9 -2.6
v 8.9 3.8 -2.6
v 8.8 3.8 -2.6
v 8.8 3.9 -2.6
v 9 3.9 -2.5
v 9 3.8 -2.5
v 9 3.8 -2.6
v 9 3.9 -2.6
v 8.9 3.9 -2.5
v 8.9 3.8 -2.5
v 9 3.8 -2.5
v 9 3.9 -2.5
v 9 3.9 -2.6
v 9 3.8 -2.6
v 8.9 3.8 -2.6
v 8.9 3.9 -2.6
v 8.7 3.8 -2.6
v 8.7 3.7 -2.6
v 8.7 3.7 -2.5
v 8.7 3.8 -2.5
v 8.7 3.7 -2.5
v 8.7 3.7 -2.6
v 8.8 3.7 -2.6
v 8.8 3.7 -2.5
v 8.7 3.8 -2.5
v 8.7 3.7 -2.5
v 8.8 3.7 -2.5
v 8.8 3.8 -2.5
v 8.8 3.8 -2.6
v 8.8 3.7 -2.6
v 8.7 3.7 -2.6
v 8.7 3.8 -2.6
v 8.8 3.8 -2.5
v 8.8 3.7 -2.5
v 8.9 3.7 -2.5
v 8.9 3.8 -2.5
v 8.9 3.8 -2.6
v 8.9 3.7 -2.6
v 8.8 3.7 -2.6
v 8.8 3.8 -2.6
v 9 3.8 -2.5
v 9 3.7 -2.5
v 9 3.7 -2.6
v 9 3.8 -2.6
v 8.9 3.8 -2.5
v 8.9 3.7 -2.5
v 9 3.7 -2.5
v 9 3.8 -2.5
v 9 3.8 -2.6
v 9 3.7 -2.6
v 8.9 3.7 -2.6
v 8.9 3.8 -2.6
v 8.8 3.7 -2.6
v 8.8 3.6 -2.6
v 8.8 3.6 -2.5
v 8.8 3.7 -2.5
v 8.8 3.7 -2.5
v 8.8 3.6 -2.5
v 8.9 3.6 -2.5
v 8.9 3.7 -2.5
v 8.9 3.7 -2.6
v 8.9 3.6 -2.6
v 8.8 3.6 -2.6
v 8.8 3.7 -2.6
v 9 3.7 -2.5
v 9 3.6 -2.5
v 9 3.6 -2.6
v 9 3.7 -2.6
v 8.9 3.7 -2.5
v 8.9 3.6 -2.5
v 9 3.6 -2.5
v 9 3.7 -2.5
v 9 3.7 -2.6
v 9 3.6 -2.6
v 8.9 3.6 -2.6
v 8.9 3.7 -2.6
v 8.8 3.6 -2.6
v 8.8 3.5 -2.6
v 8.8 3.5 -2.5
v 8.8 3.6 -2.5
v 8.8 3.5 -2.5
v 8.8 3.5 -2.6
v 8.9 3.5 -2.6
v 8.9 3.5 -2.5
v 8.8 3.6 -2.5
v 8.8 3.5 -2.5
v 8.9 3.5 -2.5
v 8.9 3.6 -2.5
v 8.9 3.6 -2.6
v 8.9 3.5 -2.6
v 8.8 3.5 -2.6
v 8.8 3.6 -2.6
v 9 3.6 -2.5
v 9 3.5 -2.5
v 9 3.5 -2.6
v 9 3.6 -2.6
v 8.9 3.6 -2.5
v 8.9 3.5 -2.5
v 9 3.5 -2.5
v 9 3.6 -2.5
v 9 3.6 -2.6
v 9 3.5 -2.6
v 8.9 3.5 -2.6
v 8.9 3.6 -2.6
v 8.9 3.5 -2.6
v 8.9 3.4 -2.6
v 8.9 3.4 -2.5
v 8.9 3.5 -2.5
v 9 3.5 -2.5
v 9 3.4 -2.5
v 9 3.4 -2.6
v 9 3.5 -2.6
v 8.9 3.5 -2.5
v 8.9 3.4 -2.5
v 9 3.4 -2.5
v 9 3.5 -2.5
v 9 3.5 -2.6
v 9 3.4 -2.6
v 8.9 3.4 -2.6
v 8.9 3.5 -2.6
v 8.9 3.4 -2.6
v 8.9 3.3 -2.6
v 8.9 3.3 -2.5
v 8.9 3.4 -2.5
v 9 3.4 -2.5
v 9 3.3 -2.5
v 9 3.3 -2.6
v 9 3.4 -2.6
v 8.9 3.3 -2.5
v 8.9 3.3 -2.6
v 9 3.3 -2.6
v 9 3.3 -2.5
v 8.9 3.4 -2.5
v 8.9 3.3 -2.5
v 9 3.3 -2.5
v 9 3.4 -2.5
v 9 3.4 -2.6
v 9 3.3 -2.6
v 8.9 3.3 -2.6
v 8.9 3.4 -2.6

# faces
f 1/2/1 2/2/1 3/2/1 4/2/1
f 5/2/2 6/2/2 7/2/2 8/2/2
f 9/2/3 10/2/3 11/2/3 12/2/3
f 13/2/5 14/2/5 15/2/5 16/2/5
f 17/2/6 18/2/6 19/2/6 20/2/6
f 21/2/1 22/2/1 23/2/1 24/2/1
f 25/2/2 26/2/2 27/2/2 28/2/2
f 29/2/5 30/2/5 31/2/5 32/2/5
f 33/2/6 34/2/6 35/2/6 36/2/6
f 37/2/1 38/2/1 39/2/1 40/2/1
f 41/2/5 42/2/5 43/2/5 44/2/5
f 45/2/6 46/2/6 47/2/6 48/2/6
f 49/5/2 50/5/2 51/5/2 52/5/2
f 53/5/3 54/5/3 55/5/3 56/5/3
f 57/5/5 58/5/5 59/5/5 60/5/5
f 61/5/6 62/5/6 63/5/6 64/5/6
f 65/2/1 66/2/1 67/2/1 68/2/1
f 69/2/3 70/2/3 71/2/3 72/2/3
f 73/2/5 74/2/5 75/2/5 76/2/5
f 77/2/6 78/2/6 79/2/6 80/2/6
f 81/5/2 82/5/2 83/5/2 84/5/2
f 85/5/3 86/5/3 87/5/3 88/5/3
f 89/5/5 90/5/5 91/5/5 92/5/5
f 93/5/6 94/5/6 95/5/6 96/5/6
f 97/2/1 98/2/1 99/2/1 100/2/1
f 101/2/4 102/2/4 103/2/4 104/2/4
f 105/2/5 106/2/5 107/2/5 108/2/5
f 109/2/6 110/2/6 111/2/6 112/2/6
f 113/5/2 114/5/2 115/5/2 116/5/2
f 117/5/5 118/5/5 119/5/5 120/5/5
f 121/5/6 122/5/6 123/5/6 124/5/6
f 125/9/1 126/9/1 127/9/1 128/9/1
f 129/9/3 130/9/3 131/9/3 132/9/3
f 133/9/5 134/9/5 135/9/5 136/9/5
f 137/9/6 138/9/6 139/9/6 140/9/6
f 141/2/5 142/2/5 143/2/5 144/2/5
f 145/2/6 146/2/6 147/2/6 148/2/6
f 149/5/2 150/5/2 151/5/2 152/5/2
f 153/5/5 154/5/5 155/5/5 156/5/5
f 157/5/6 158/5/6 159/5/6 160/5/6
f 161/5/1 162/5/1 163/5/1 164/5/1
f 165/5/5 166/5/5 167/5/5 168/5/5
f 169/5/6 170/5/6 171/5/6 172/5/6
f 173/6/2 174/6/2 175/6/2 176/6/2
f 177/6/3 178/6/3 179/6/3 180/6/3
f 181/6/5 182/6/5 183/6/5 184/6/5
f 185/6/6 186/6/6 187/6/6 188/6/6
f 189/9/1 190/9/1 191/9/1 192/9/1
f 193/9/4 194/9/4 195/9/4 196/9/4
f 197/9/5 198/9/5 199/9/5 200/9/5
f 201/9/6 202/9/6 203/9/6 204/9/6
f 205/2/5 206/2/5 207/2/5 208/2/5
f 209/2/6 210/2/6 211/2/6 212/2/6
f 213/5/5 214/5/5 215/5/5 216/5/5
f 217/5/6 218/5/6 219/5/6 220/5/6
f 221/5/2 222/5/2 223/5/2 224/5/2
f 225/5/3 226/5/3 227/5/3 228/5/3
f 229/5/5 230/5/5 231/5/5 232/5/5
f 233/5/6 234/5/6 235/5/6 236/5/6
f 237/5/1 238/5/1 239/5/1 240/5/1
f 241/5/5 242/5/5 243/5/5 244/5/5
f 245/5/6 246/5/6 247/5/6 248/5/6
f 249/6/2 250/6/2 251/6/2 252/6/2
f 253/6/5 254/6/5 255/6/5 256/6/5
f 257/6/6 258/6/6 259/6/6 260/6/6
f 261/2/1 262/2/1 263/2/1 264/2/1
f 265/2/5 266/2/5 267/2/5 268/2/5
f 269/2/6 270/2/6 271/2/6 272/2/6
f 273/5/5 274/5/5 275/5/5 276/5/5
f 277/5/6 278/5/6 279/5/6 280/5/6
f 281/6/5 282/6/5 283/6/5 284/6/5
f 285/6/6 286/6/6 287/6/6 288/6/6
f 289/5/2 290/5/2 291/5/2 292/5/2
f 293/5/3 294/5/3 295/5/3 296/5/3
f 297/5/5 298/5/5 299/5/5 300/5/5
f 301/5/6 302/5/6 303/5/6 304/5/6
f 305/6/1 306/6/1 307/6/1 308/6/1
f 309/6/4 310/6/4 311/6/4 312/6/4
f 313/6/5 314/6/5 315/6/5 316/6/5
f 317/6/6 318/6/6 319/6/6 320/6/6
f 321/8/5 322/8/5 323/8/5 324/8/5
f 325/8/6 326/8/6 327/8/6 328/8/6
f 329/8/2 330/8/2 331/8/2 332/8/2
f 333/8/3 334/8/3 335/8/3 336/8/3
f 337/8/5 338/8/5 339/8/5 340/8/5
f 341/8/6 342/8/6 343/8/6 344/8/6
f 345/2/1 346/2/1 347/2/1 348/2/1
f 349/2/4 350/2/4 351/2/4 352/2/4
f 353/2/5 354/2/5 355/2/5 356/2/5
f 357/2/6 358/2/6 359/2/6 360/2/6
f 361/5/5 362/5/5 363/5/5 364/5/5
f 365/5/6 366/5/6 367/5/6 368/5/6
f 369/6/5 370/6/5 371/6/5 372/6/5
f 373/6/6 374/6/6 375/6/6 376/6/6
f 377/6/2 378/6/2 379/6/2 380/6/2
f 381/6/5 382/6/5 383/6/5 384/6/5
f 385/6/6 386/6/6 387/6/6 388/6/6
f 389/8/1 390/8/1 391/8/1 392/8/1
f 393/8/5 394/8/5 395/8/5 396/8/5
f 397/8/6 398/8/6 399/8/6 400/8/6
f 401/8/2 402/8/2 403/8/2 404/8/2
f 405/8/5 406/8/5 407/8/5 408/8/5
f 409/8/6 410/8/6 411/8/6 412/8/6
f 413/5/1 414/5/1 415/5/1 416/5/1
f 417/5/5 418/5/5 419/5/5 420/5/5
f 421/5/6 422/5/6 423/5/6 424/5/6
f 425/6/5 426/6/5 427/6/5 428/6/5
f 429/6/6 430/6/6 431/6/6 432/6/6
f 433/8/5 434/8/5 435/8/5 436/8/5
f 437/8/6 438/8/6 439/8/6 440/8/6
f 441/6/2 442/6/2 443/6/2 444/6/2
f 445/6/3 446/6/3 447/6/3 448/6/3
f 449/6/5 450/6/5 451/6/5 452/6/5
f 453/6/6 454/6/6 455/6/6 456/6/6
f 457/8/1 458/8/1 459/8/1 460/8/1
f 461/8/5 462/8/5 463/8/5 464/8/5
f 465/8/6 466/8/6 467/8/6 468/8/6
f 469/3/5 470/3/5 471/3/5 472/3/5
f 473/3/6 474/3/6 475/3/6 476/3/6
f 477/8/2 478/8/2 479/8/2 480/8/2
f 481/8/3 482/8/3 483/8/3 484/8/3
f 485/8/5 486/8/5 487/8/5 488/8/5
f 489/8/6 490/8/6 491/8/6 492/8/6
f 493/5/1 494/5/1 495/5/1 496/5/1
f 497/5/4 498/5/4 499/5/4 500/5/4
f 501/5/5 502/5/5 503/5/5 504/5/5
f 505/5/6 506/5/6 507/5/6 508/5/6
f 509/6/5 510/6/5 511/6/5 512/6/5
f 513/6/6 514/6/6 515/6/6 516/6/6
f 517/8/5 518/8/5 519/8/5 520/8/5
f 521/8/6 522/8/6 523/8/6 524/8/6
f 525/8/5 526/8/5 527/8/5 528/8/5
f 529/8/6 530/8/6 531/8/6 532/8/6
f 533/6/3 534/6/3 535/6/3 536/6/3
f 537/6/5 538/6/5 539/6/5 540/6/5
f 541/6/6 542/6/6 543/6/6 544/6/6
f 545/8/4 546/8/4 547/8/4 548/8/4
f 549/8/5 550/8/5 551/8/5 552/8/5
f 553/8/6 554/8/6 555/8/6 556/8/6
f 557/3/5 558/3/5 559/3/5 560/3/5
f 561/3/6 562/3/6 563/3/6 564/3/6
f 565/8/2 566/8/2 567/8/2 568/8/2
f 569/8/5 570/8/5 571/8/5 572/8/5
f 573/8/6 574/8/6 575/8/6 576/8/6
f 577/1/1 578/1/1 579/1/1 580/1/1
f 581/1/2 582/1/2 583/1/2 584/1/2
f 585/1/3 586/1/3 587/1/3 588/1/3
f 589/1/5 590/1/5 591/1/5 592/1/5
f 593/1/6 594/1/6 595/1/6 596/1/6
f 597/9/1 598/9/1 599/9/1 600/9/1
f 601/9/2 602/9/2 603/9/2 604/9/2
f 605/9/3 606/9/3 607/9/3 608/9/3
f 609/9/4 610/9/4 611/9/4 612/9/4
f 613/9/5 614/9/5 615/9/5 616/9/5
f 617/9/6 618/9/6 619/9/6 620/9/6
f 621/6/1 622/6/1 623/6/1 624/6/1
f 625/6/5 626/6/5 627/6/5 628/6/5
f 629/6/6 630/6/6 631/6/6 632/6/6
f 633/8/5 634/8/5 635/8/5 636/8/5
f 637/8/6 638/8/6 639/8/6 640/8/6
f 641/8/5 642/8/5 643/8/5 644/8/5
f 645/8/6 646/8/6 647/8/6 648/8/6
f 649/6/2 650/6/2 651/6/2 652/6/2
f 653/6/5 654/6/5 655/6/5 656/6/5
f 657/6/6 658/6/6 659/6/6 660/6/6
f 661/8/1 662/8/1 663/8/1 664/8/1
f 665/8/5 666/8/5 667/8/5 668/8/5
f 669/8/6 670/8/6 671/8/6 672/8/6
f 673/8/5 674/8/5 675/8/5 676/8/5
f 677/8/6 678/8/6 679/8/6 680/8/6
f 681/8/2 682/8/2 683/8/2 684/8/2
f 685/8/3 686/8/3 687/8/3 688/8/3
f 689/8/5 690/8/5 691/8/5 692/8/5
f 693/8/6 694/8/6 695/8/6 696/8/6
f 697/4/1 698/4/1 699/4/1 700/4/1
f 701/4/4 702/4/4 703/4/4 704/4/4
f 705/4/5 706/4/5 707/4/5 708/4/5
f 709/4/6 710/4/6 711/4/6 712/4/6
f 713/4/2 714/4/2 715/4/2 716/4/2
f 717/4/3 718/4/3 719/4/3 720/4/3
f 721/4/4 722/4/4 723/4/4 724/4/4
f 725/4/5 726/4/5 727/4/5 728/4/5
f 729/4/6 730/4/6 731/4/6 732/4/6
f 733/6/1 734/6/1 735/6/1 736/6/1
f 737/6/5 738/6/5 739/6/5 740/6/5
f 741/6/6 742/6/6 743/6/6 744/6/6
f 745/8/5 746/8/5 747/8/5 748/8/5
f 749/8/6 750/8/6 751/8/6 752/8/6
f 753/3/5 754/3/5 755/3/5 756/3/5
f 757/3/6 758/3/6 759/3/6 760/3/6
f 761/8/5 762/8/5 763/8/5 764/8/5
f 765/8/6 766/8/6 767/8/6 768/8/6
f 769/8/3 770/8/3 771/8/3 772/8/3
f 773/8/5 774/8/5 775/8/5 776/8/5
f 777/8/6 778/8/6 779/8/6 780/8/6
f 781/8/5 782/8/5 783/8/5 784/8/5
f 785/8/6 786/8/6 787/8/6 788/8/6
f 789/3/5 790/3/5 791/3/5 792/3/5
f 793/3/6 794/3/6 795/3/6 796/3/6
f 797/8/2 798/8/2 799/8/2 800/8/2
f 801/8/5 802/8/5 803/8/5 804/8/5
f 805/8/6 806/8/6 807/8/6 808/8/6
f 809/4/1 810/4/1 811/4/1 812/4/1
f 813/4/3 814/4/3 815/4/3 816/4/3
f 817/4/4 818/4/4 819/4/4 820/4/4
f 821/4/5 822/4/5 823/4/5 824/4/5
f 825/4/6 826/4/6 827/4/6 828/4/6
f 829/1/3 830/1/3 831/1/3 832/1/3
f 833/1/4 834/1/4 835/1/4 836/1/4
f 837/1/5 838/1/5 839/1/5 840/1/5
f 841/1/6 842/1/6 843/1/6 844/1/6
f 845/2/2 846/2/2 847/2/2 848/2/2
f 849/2/3 850/2/3 851/2/3 852/2/3
f 853/2/5 854/2/5 855/2/5 856/2/5
f 857/2/6 858/2/6 859/2/6 860/2/6
f 861/5/1 862/5/1 863/5/1 864/5/1
f 865/5/4 866/5/4 867/5/4 868/5/4
f 869/5/5 870/5/5 871/5/5 872/5/5
f 873/5/6 874/5/6 875/5/6 876/5/6
f 877/6/5 878/6/5 879/6/5 880/6/5
f 881/6/6 882/6/6 883/6/6 884/6/6
f 885/8/5 886/8/5 887/8/5 888/8/5
f 889/8/6 890/8/6 891/8/6 892/8/6
f 893/3/5 894/3/5 895/3/5 896/3/5
f 897/3/6 898/3/6 899/3/6 900/3/6
f 901/8/5 902/8/5 903/8/5 904/8/5
f 905/8/6 906/8/6 907/8/6 908/8/6
f 909/3/5 910/3/5 911/3/5 912/3/5
f 913/3/6 914/3/6 915/3/6 916/3/6
f 917/7/5 918/7/5 919/7/5 920/7/5
f 921/7/6 922/7/6 923/7/6 924/7/6
f 925/3/5 926/3/5 927/3/5 928/3/5
f 929/3/6 930/3/6 931/3/6 932/3/6
f 933/8/2 934/8/2 935/8/2 936/8/2
f 937/8/3 938/8/3 939/8/3 940/8/3
f 941/8/5 942/8/5 943/8/5 944/8/5
f 945/8/6 946/8/6 947/8/6 948/8/6
f 949/2/1 950/2/1 951/2/1 952/2/1
f 953/2/4 954/2/4 955/2/4 956/2/4
f 957/2/5 958/2/5 959/2/5 960/2/5
f 961/2/6 962/2/6 963/2/6 964/2/6
f 965/5/2 966/5/2 967/5/2 968/5/2
f 969/5/3 970/5/3 971/5/3 972/5/3
f 973/5/5 974/5/5 975/5/5 976/5/5
f 977/5/6 978/5/6 979/5/6 980/5/6
f 981/6/1 982/6/1 983/6/1 984/6/1
f 985/6/5 986/6/5 987/6/5 988/6/5
f 989/6/6 990/6/6 991/6/6 992/6/6
f 993/8/5 994/8/5 995/8/5 996/8/5
f 997/8/6 998/8/6 999/8/6 1000/8/6
f 1001/3/5 1002/3/5 1003/3/5 1004/3/5
f 1005/3/6 1006/3/6 1007/3/6 1008/3/6
f 1009/3/5 1010/3/5 1011/3/5 1012/3/5
f 1013/3/6 1014/3/6 1015/3/6 1016/3/6
f 1017/7/4 1018/7/4 1019/7/4 1020/7/4
f 1021/7/5 1022/7/5 1023/7/5 1024/7/5
f 1025/7/6 1026/7/6 1027/7/6 1028/7/6
f 1029/7/5 1030/7/5 1031/7/5 1032/7/5
f 1033/7/6 1034/7/6 1035/7/6 1036/7/6
f 1037/3/5 1038/3/5 1039/3/5 1040/3/5
f 1041/3/6 1042/3/6 1043/3/6 1044/3/6
f 1045/8/2 1046/8/2 1047/8/2 1048/8/2
f 1049/8/5 1050/8/5 1051/8/5 1052/8/5
f 1053/8/6 1054/8/6 1055/8/6 1056/8/6
f 1057/5/1 1058/5/1 1059/5/1 1060/5/1
f 1061/5/2 1062/5/2 1063/5/2 1064/5/2
f 1065/5/5 1066/5/5 1067/5/5 1068/5/5
f 1069/5/6 1070/5/6 1071/5/6 1072/5/6
f 1073/6/1 1074/6/1 1075/6/1 1076/6/1
f 1077/6/4 1078/6/4 1079/6/4 1080/6/4
f 1081/6/5 1082/6/5 1083/6/5 1084/6/5
f 1085/6/6 1086/6/6 1087/6/6 1088/6/6
f 1089/8/5 1090/8/5 1091/8/5 1092/8/5
f 1093/8/6 1094/8/6 1095/8/6 1096/8/6
f 1097/3/5 1098/3/5 1099/3/5 1100/3/5
f 1101/3/6 1102/3/6 1103/3/6 1104/3/6
f 1105/7/2 1106/7/2 1107/7/2 1108/7/2
f 1109/7/5 1110/7/5 1111/7/5 1112/7/5
f 1113/7/6 1114/7/6 1115/7/6 1116/7/6
f 1117/7/1 1118/7/1 1119/7/1 1120/7/1
f 1121/7/5 1122/7/5 1123/7/5 1124/7/5
f 1125/7/6 1126/7/6 1127/7/6 1128/7/6
f 1129/3/5 1130/3/5 1131/3/5 1132/3/5
f 1133/3/6 1134/3/6 1135/3/6 1136/3/6
f 1137/8/2 1138/8/2 1139/8/2 1140/8/2
f 1141/8/5 1142/8/5 1143/8/5 1144/8/5
f 1145/8/6 1146/8/6 1147/8/6 1148/8/6
f 1149/4/1 1150/4/1 1151/4/1 1152/4/1
f 1153/4/2 1154/4/2 1155/4/2 1156/4/2
f 1157/4/3 1158/4/3 1159/4/3 1160/4/3
f 1161/4/5 1162/4/5 1163/4/5 1164/4/5
f 1165/4/6 1166/4/6 1167/4/6 1168/4/6
f 1169/5/1 1170/5/1 1171/5/1 1172/5/1
f 1173/5/4 1174/5/4 1175/5/4 1176/5/4
f 1177/5/5 1178/5/5 1179/5/5 1180/5/5
f 1181/5/6 1182/5/6 1183/5/6 1184/5/6
f 1185/6/2 1186/6/2 1187/6/2 1188/6/2
f 1189/6/3 1190/6/3 1191/6/3 1192/6/3
f 1193/6/5 1194/6/5 1195/6/5 1196/6/5
f 1197/6/6 1198/6/6 1199/6/6 1200/6/6
f 1201/8/1 1202/8/1 1203/8/1 1204/8/1
f 1205/8/5 1206/8/5 1207/8/5 1208/8/5
f 1209/8/6 1210/8/6 1211/8/6 1212/8/6
f 1213/3/5 1214/3/5 1215/3/5 1216/3/5
f 1217/3/6 1218/3/6 1219/3/6 1220/3/6
f 1221/7/2 1222/7/2 1223/7/2 1224/7/2
f 1225/7/5 1226/7/5 1227/7/5 1228/7/5
f 1229/7/6 1230/7/6 1231/7/6 1232/7/6
f 1233/7/1 1234/7/1 1235/7/1 1236/7/1
f 1237/7/4 1238/7/4 1239/7/4 1240/7/4
f 1241/7/5 1242/7/5 1243/7/5 1244/7/5
f 1245/7/6 1246/7/6 1247/7/6 1248/7/6
f 1249/7/5 1250/7/5 1251/7/5 1252/7/5
f 1253/7/6 1254/7/6 1255/7/6 1256/7/6
f 1257/3/5 1258/3/5 1259/3/5 1260/3/5
f 1261/3/6 1262/3/6 1263/3/6 1264/3/6
f 1265/8/2 1266/8/2 1267/8/2 1268/8/2
f 1269/8/3 1270/8/3 1271/8/3 1272/8/3
f 1273/8/5 1274/8/5 1275/8/5 1276/8/5
f 1277/8/6 1278/8/6 1279/8/6 1280/8/6
f 1281/1/1 1282/1/1 1283/1/1 1284/1/1
f 1285/1/4 1286/1/4 1287/1/4 1288/1/4
f 1289/1/5 1290/1/5 1291/1/5 1292/1/5
f 1293/1/6 1294/1/6 1295/1/6 1296/1/6
f 1297/4/2 1298/4/2 1299/4/2 1300/4/2
f 1301/4/3 1302/4/3 1303/4/3 1304/4/3
f 1305/4/5 1306/4/5 1307/4/5 1308/4/5
f 1309/4/6 1310/4/6 1311/4/6 1312/4/6
f 1313/6/1 1314/6/1 1315/6/1 1316/6/1
f 1317/6/5 1318/6/5 1319/6/5 1320/6/5
f 1321/6/6 1322/6/6 1323/6/6 1324/6/6
f 1325/6/2 1326/6/2 1327/6/2 1328/6/2
f 1329/6/3 1330/6/3 1331/6/3 1332/6/3
f 1333/6/5 1334/6/5 1335/6/5 1336/6/5
f 1337/6/6 1338/6/6 1339/6/6 1340/6/6
f 1341/8/1 1342/8/1 1343/8/1 1344/8/1
f 1345/8/5 1346/8/5 1347/8/5 1348/8/5
f 1349/8/6 1350/8/6 1351/8/6 1352/8/6
f 1353/3/5 1354/3/5 1355/3/5 1356/3/5
f 1357/3/6 1358/3/6 1359/3/6 1360/3/6
f 1361/7/2 1362/7/2 1363/7/2 1364/7/2
f 1365/7/5 1366/7/5 1367/7/5 1368/7/5
f 1369/7/6 1370/7/6 1371/7/6 1372/7/6
f 1373/7/1 1374/7/1 1375/7/1 1376/7/1
f 1377/7/4 1378/7/4 1379/7/4 1380/7/4
f 1381/7/5 1382/7/5 1383/7/5 1384/7/5
f 1385/7/6 1386/7/6 1387/7/6 1388/7/6
f 1389/3/5 1390/3/5 1391/3/5 1392/3/5
f 1393/3/6 1394/3/6 1395/3/6 1396/3/6
f 1397/8/2 1398/8/2 1399/8/2 1400/8/2
f 1401/8/5 1402/8/5 1403/8/5 1404/8/5
f 1405/8/6 1406/8/6 1407/8/6 1408/8/6
f 1409/1/1 1410/1/1 1411/1/1 1412/1/1
f 1413/1/5 1414/1/5 1415/1/5 1416/1/5
f 1417/1/6 1418/1/6 1419/1/6 1420/1/6
f 1421/4/3 1422/4/3 1423/4/3 1424/4/3
f 1425/4/5 1426/4/5 1427/4/5 1428/4/5
f 1429/4/6 1430/4/6 1431/4/6 1432/4/6
f 1433/6/5 1434/6/5 1435/6/5 1436/6/5
f 1437/6/6 1438/6/6 1439/6/6 1440/6/6
f 1441/8/2 1442/8/2 1443/8/2 1444/8/2
f 1445/8/5 1446/8/5 1447/8/5 1448/8/5
f 1449/8/6 1450/8/6 1451/8/6 1452/8/6
f 1453/8/1 1454/8/1 1455/8/1 1456/8/1
f 1457/8/5 1458/8/5 1459/8/5 1460/8/5
f 1461/8/6 1462/8/6 1463/8/6 1464/8/6
f 1465/3/5 1466/3/5 1467/3/5 1468/3/5
f 1469/3/6 1470/3/6 1471/3/6 1472/3/6
f 1473/7/2 1474/7/2 1475/7/2 1476/7/2
f 1477/7/5 1478/7/5 1479/7/5 1480/7/5
f 1481/7/6 1482/7/6 1483/7/6 1484/7/6
f 1485/7/1 1486/7/1 1487/7/1 1488/7/1
f 1489/7/4 1490/7/4 1491/7/4 1492/7/4
f 1493/7/5 1494/7/5 1495/7/5 1496/7/5
f 1497/7/6 1498/7/6 1499/7/6 1500/7/6
f 1501/3/5 1502/3/5 1503/3/5 1504/3/5
f 1505/3/6 1506/3/6 1507/3/6 1508/3/6
f 1509/8/2 1510/8/2 1511/8/2 1512/8/2
f 1513/8/3 1514/8/3 1515/8/3 1516/8/3
f 1517/8/5 1518/8/5 1519/8/5 1520/8/5
f 1521/8/6 1522/8/6 1523/8/6 1524/8/6
f 1525/4/1 1526/4/1 1527/4/1 1528/4/1
f 1529/4/2 1530/4/2 1531/4/2 1532/4/2
f 1533/4/3 1534/4/3 1535/4/3 1536/4/3
f 1537/4/4 1538/4/4 1539/4/4 1540/4/4
f 1541/4/5 1542/4/5 1543/4/5 1544/4/5
f 1545/4/6 1546/4/6 1547/4/6 1548/4/6
f 1549/4/1 1550/4/1 1551/4/1 1552/4/1
f 1553/4/5 1554/4/5 1555/4/5 1556/4/5
f 1557/4/6 1558/4/6 1559/4/6 1560/4/6
f 1561/1/4 1562/1/4 1563/1/4 1564/1/4
f 1565/1/5 1566/1/5 1567/1/5 1568/1/5
f 1569/1/6 1570/1/6 1571/1/6 1572/1/6
f 1573/6/4 1574/6/4 1575/6/4 1576/6/4
f 1577/6/5 1578/6/5 1579/6/5 1580/6/5
f 1581/6/6 1582/6/6 1583/6/6 1584/6/6
f 1585/8/5 1586/8/5 1587/8/5 1588/8/5
f 1589/8/6 1590/8/6 1591/8/6 1592/8/6
f 1593/8/3 1594/8/3 1595/8/3 1596/8/3
f 1597/8/5 1598/8/5 1599/8/5 1600/8/5
f 1601/8/6 1602/8/6 1603/8/6 1604/8/6
f 1605/3/5 1606/3/5 1607/3/5 1608/3/5
f 1609/3/6 1610/3/6 1611/3/6 1612/3/6
f 1613/7/5 1614/7/5 1615/7/5 1616/7/5
f 1617/7/6 1618/7/6 1619/7/6 1620/7/6
f 1621/7/2 1622/7/2 1623/7/2 1624/7/2
f 1625/7/5 1626/7/5 1627/7/5 1628/7/5
f 1629/7/6 1630/7/6 1631/7/6 1632/7/6
f 1633/3/1 1634/3/1 1635/3/1 1636/3/1
f 1637/3/4 1638/3/4 1639/3/4 1640/3/4
f 1641/3/5 1642/3/5 1643/3/5 1644/3/5
f 1645/3/6 1646/3/6 1647/3/6 1648/3/6
f 1649/8/2 1650/8/2 1651/8/2 1652/8/2
f 1653/8/5 1654/8/5 1655/8/5 1656/8/5
f 1657/8/6 1658/8/6 1659/8/6 1660/8/6
f 1661/1/1 1662/1/1 1663/1/1 1664/1/1
f 1665/1/3 1666/1/3 1667/1/3 1668/1/3
f 1669/1/4 1670/1/4 1671/1/4 1672/1/4
f 1673/1/5 1674/1/5 1675/1/5 1676/1/5
f 1677/1/6 1678/1/6 1679/1/6 1680/1/6
f 1681/4/2 1682/4/2 1683/4/2 1684/4/2
f 1685/4/3 1686/4/3 1687/4/3 1688/4/3
f 1689/4/4 1690/4/4 1691/4/4 1692/4/4
f 1693/4/5 1694/4/5 1695/4/5 1696/4/5
f 1697/4/6 1698/4/6 1699/4/6 1700/4/6
f 1701/4/1 1702/4/1 1703/4/1 1704/4/1
f 1705/4/2 1706/4/2 1707/4/2 1708/4/2
f 1709/4/4 1710/4/4 1711/4/4 1712/4/4
f 1713/4/5 1714/4/5 1715/4/5 1716/4/5
f 1717/4/6 1718/4/6 1719/4/6 1720/4/6
f 1721/8/1 1722/8/1 1723/8/1 1724/8/1
f 1725/8/5 1726/8/5 1727/8/5 1728/8/5
f 1729/8/6 1730/8/6 1731/8/6 1732/8/6
f 1733/3/5 1734/3/5 1735/3/5 1736/3/5
f 1737/3/6 1738/3/6 1739/3/6 1740/3/6
f 1741/7/5 1742/7/5 1743/7/5 1744/7/5
f 1745/7/6 1746/7/6 1747/7/6 1748/7/6
f 1749/7/5 1750/7/5 1751/7/5 1752/7/5
f 1753/7/6 1754/7/6 1755/7/6 1756/7/6
f 1757/7/2 1758/7/2 1759/7/2 1760/7/2
f 1761/7/5 1762/7/5 1763/7/5 1764/7/5
f 1765/7/6 1766/7/6 1767/7/6 1768/7/6
f 1769/3/1 1770/3/1 1771/3/1 1772/3/1
f 1773/3/4 1774/3/4 1775/3/4 1776/3/4
f 1777/3/5 1778/3/5 1779/3/5 1780/3/5
f 1781/3/6 1782/3/6 1783/3/6 1784/3/6
f 1785/8/2 1786/8/2 1787/8/2 1788/8/2
f 1789/8/3 1790/8/3 1791/8/3 1792/8/3
f 1793/8/5 1794/8/5 1795/8/5 1796/8/5
f 1797/8/6 1798/8/6 1799/8/6 1800/8/6
f 1801/4/1 1802/4/1 1803/4/1 1804/4/1
f 1805/4/2 1806/4/2 1807/4/2 1808/4/2
f 1809/4/3 1810/4/3 1811/4/3 1812/4/3
f 1813/4/4 1814/4/4 1815/4/4 1816/4/4
f 1817/4/5 1818/4/5 1819/4/5 1820/4/5
f 1821/4/6 1822/4/6 1823/4/6 1824/4/6
f 1825/4/1 1826/4/1 1827/4/1 1828/4/1
f 1829/4/3 1830/4/3 1831/4/3 1832/4/3
f 1833/4/4 1834/4/4 1835/4/4 1836/4/4
f 1837/4/5 1838/4/5 1839/4/5 1840/4/5
f 1841/4/6 1842/4/6 1843/4/6 1844/4/6
f 1845/1/2 1846/1/2 1847/1/2 1848/1/2
f 1849/1/3 1850/1/3 1851/1/3 1852/1/3
f 1853/1/4 1854/1/4 1855/1/4 1856/1/4
f 1857/1/5 1858/1/5 1859/1/5 1860/1/5
f 1861/1/6 1862/1/6 1863/1/6 1864/1/6
f 1865/8/1 1866/8/1 1867/8/1 1868/8/1
f 1869/8/4 1870/8/4 1871/8/4 1872/8/4
f 1873/8/5 1874/8/5 1875/8/5 1876/8/5
f 1877/8/6 1878/8/6 1879/8/6 1880/8/6
f 1881/3/5 1882/3/5 1883/3/5 1884/3/5
f 1885/3/6 1886/3/6 1887/3/6 1888/3/6
f 1889/7/5 1890/7/5 1891/7/5 1892/7/5
f 1893/7/6 1894/7/6 1895/7/6 1896/7/6
f 1897/7/5 1898/7/5 1899/7/5 1900/7/5
f 1901/7/6 1902/7/6 1903/7/6 1904/7/6
f 1905/7/2 1906/7/2 1907/7/2 1908/7/2
f 1909/7/5 1910/7/5 1911/7/5 1912/7/5
f 1913/7/6 1914/7/6 1915/7/6 1916/7/6
f 1917/3/1 1918/3/1 1919/3/1 1920/3/1
f 1921/3/2 1922/3/2 1923/3/2 1924/3/2
f 1925/3/4 1926/3/4 1927/3/4 1928/3/4
f 1929/3/5 1930/3/5 1931/3/5 1932/3/5
f 1933/3/6 1934/3/6 1935/3/6 1936/3/6
f 1937/4/1 1938/4/1 1939/4/1 1940/4/1
f 1941/4/3 1942/4/3 1943/4/3 1944/4/3
f 1945/4/4 1946/4/4 1947/4/4 1948/4/4
f 1949/4/5 1950/4/5 1951/4/5 1952/4/5
f 1953/4/6 1954/4/6 1955/4/6 1956/4/6
f 1957/1/2 1958/1/2 1959/1/2 1960/1/2
f 1961/1/3 1962/1/3 1963/1/3 1964/1/3
f 1965/1/4 1966/1/4 1967/1/4 1968/1/4
f 1969/1/5 1970/1/5 1971/1/5 1972/1/5
f 1973/1/6 1974/1/6 1975/1/6 1976/1/6
f 1977/8/1 1978/8/1 1979/8/1 1980/8/1
f 1981/8/5 1982/8/5 1983/8/5 1984/8/5
f 1985/8/6 1986/8/6 1987/8/6 1988/8/6
f 1989/3/5 1990/3/5 1991/3/5 1992/3/5
f 1993/3/6 1994/3/6 1995/3/6 1996/3/6
f 1997/7/5 1998/7/5 1999/7/5 2000/7/5
f 2001/7/6 2002/7/6 2003/7/6 2004/7/6
f 2005/7/2 2006/7/2 2007/7/2 2008/7/2
f 2009/7/5 2010/7/5 2011/7/5 2012/7/5
f 2013/7/6 2014/7/6 2015/7/6 2016/7/6
f 2017/8/1 2018/8/1 2019/8/1 2020/8/1
f 2021/8/2 2022/8/2 2023/8/2 2024/8/2
f 2025/8/3 2026/8/3 2027/8/3 2028/8/3
f 2029/8/5 2030/8/5 2031/8/5 2032/8/5
f 2033/8/6 2034/8/6 2035/8/6 2036/8/6
f 2037/8/1 2038/8/1 2039/8/1 2040/8/1
f 2041/8/5 2042/8/5 2043/8/5 2044/8/5
f 2045/8/6 2046/8/6 2047/8/6 2048/8/6
f 2049/3/5 2050/3/5 2051/3/5 2052/3/5
f 2053/3/6 2054/3/6 2055/3/6 2056/3/6
f 2057/7/5 2058/7/5 2059/7/5 2060/7/5
f 2061/7/6 2062/7/6 2063/7/6 2064/7/6
f 2065/7/2 2066/7/2 2067/7/2 2068/7/2
f 2069/7/5 2070/7/5 2071/7/5 2072/7/5
f 2073/7/6 2074/7/6 2075/7/6 2076/7/6
f 2077/3/1 2078/3/1 2079/3/1 2080/3/1
f 2081/3/2 2082/3/2 2083/3/2 2084/3/2
f 2085/3/4 2086/3/4 2087/3/4 2088/3/4
f 2089/3/5 2090/3/5 2091/3/5 2092/3/5
f 2093/3/6 2094/3/6 2095/3/6 2096/3/6
f 2097/8/1 2098/8/1 2099/8/1 2100/8/1
f 2101/8/4 2102/8/4 2103/8/4 2104/8/4
f 2105/8/5 2106/8/5 2107/8/5 2108/8/5
f 2109/8/6 2110/8/6 2111/8/6 2112/8/6
f 2113/3/5 2114/3/5 2115/3/5 2116/3/5
f 2117/3/6 2118/3/6 2119/3/6 2120/3/6
f 2121/7/5 2122/7/5 2123/7/5 2124/7/5
f 2125/7/6 2126/7/6 2127/7/6 2128/7/6
f 2129/7/2 2130/7/2 2131/7/2 2132/7/2
f 2133/7/5 2134/7/5 2135/7/5 2136/7/5
f 2137/7/6 2138/7/6 2139/7/6 2140/7/6
f 2141/8/1 2142/8/1 2143/8/1 2144/8/1
f 2145/8/2 2146/8/2 2147/8/2 2148/8/2
f 2149/8/3 2150/8/3 2151/8/3 2152/8/3
f 2153/8/5 2154/8/5 2155/8/5 2156/8/5
f 2157/8/6 2158/8/6 2159/8/6 2160/8/6
f 2161/8/1 2162/8/1 2163/8/1 2164/8/1
f 2165/8/2 2166/8/2 2167/8/2 2168/8/2
f 2169/8/3 2170/8/3 2171/8/3 2172/8/3
f 2173/8/4 2174/8/4 2175/8/4 2176/8/4
f 2177/8/5 2178/8/5 2179/8/5 2180/8/5
f 2181/8/6 2182/8/6 2183/8/6 2184/8/6
f 2185/8/1 2186/8/1 2187/8/1 2188/8/1
f 2189/8/5 2190/8/5 2191/8/5 2192/8/5
f 2193/8/6 2194/8/6 2195/8/6 2196/8/6
f 2197/3/5 2198/3/5 2199/3/5 2200/3/5
f 2201/3/6 2202/3/6 2203/3/6 2204/3/6
f 2205/7/5 2206/7/5 2207/7/5 2208/7/5
f 2209/7/6 2210/7/6 2211/7/6 2212/7/6
f 2213/7/2 2214/7/2 2215/7/2 2216/7/2
f 2217/7/3 2218/7/3 2219/7/3 2220/7/3
f 2221/7/5 2222/7/5 2223/7/5 2224/7/5
f 2225/7/6 2226/7/6 2227/7/6 2228/7/6
f 2229/3/1 2230/3/1 2231/3/1 2232/3/1
f 2233/3/2 2234/3/2 2235/3/2 2236/3/2
f 2237/3/4 2238/3/4 2239/3/4 2240/3/4
f 2241/3/5 2242/3/5 2243/3/5 2244/3/5
f 2245/3/6 2246/3/6 2247/3/6 2248/3/6
f 2249/8/1 2250/8/1 2251/8/1 2252/8/1
f 2253/8/4 2254/8/4 2255/8/4 2256/8/4
f 2257/8/5 2258/8/5 2259/8/5 2260/8/5
f 2261/8/6 2262/8/6 2263/8/6 2264/8/6
f 2265/3/5 2266/3/5 2267/3/5 2268/3/5
f 2269/3/6 2270/3/6 2271/3/6 2272/3/6
f 2273/7/5 2274/7/5 2275/7/5 2276/7/5
f 2277/7/6 2278/7/6 2279/7/6 2280/7/6
f 2281/7/2 2282/7/2 2283/7/2 2284/7/2
f 2285/7/5 2286/7/5 2287/7/5 2288/7/5
f 2289/7/6 2290/7/6 2291/7/6 2292/7/6
f 2293/8/1 2294/8/1 2295/8/1 2296/8/1
f 2297/8/2 2298/8/2 2299/8/2 2300/8/2
f 2301/8/3 2302/8/3 2303/8/3 2304/8/3
f 2305/8/5 2306/8/5 2307/8/5 2308/8/5
f 2309/8/6 2310/8/6 2311/8/6 2312/8/6
f 2313/8/1 2314/8/1 2315/8/1 2316/8/1
f 2317/8/2 2318/8/2 2319/8/2 2320/8/2
f 2321/8/3 2322/8/3 2323/8/3 2324/8/3
f 2325/8/5 2326/8/5 2327/8/5 2328/8/5
f 2329/8/6 2330/8/6 2331/8/6 2332/8/6
f 2333/8/1 2334/8/1 2335/8/1 2336/8/1
f 2337/8/5 2338/8/5 2339/8/5 2340/8/5
f 2341/8/6 2342/8/6 2343/8/6 2344/8/6
f 2345/3/5 2346/3/5 2347/3/5 2348/3/5
f 2349/3/6 2350/3/6 2351/3/6 2352/3/6
f 2353/7/2 2354/7/2 2355/7/2 2356/7/2
f 2357/7/5 2358/7/5 2359/7/5 2360/7/5
f 2361/7/6 2362/7/6 2363/7/6 2364/7/6
f 2365/3/1 2366/3/1 2367/3/1 2368/3/1
f 2369/3/2 2370/3/2 2371/3/2 2372/3/2
f 2373/3/4 2374/3/4 2375/3/4 2376/3/4
f 2377/3/5 2378/3/5 2379/3/5 2380/3/5
f 2381/3/6 2382/3/6 2383/3/6 2384/3/6
f 2385/8/1 2386/8/1 2387/8/1 2388/8/1
f 2389/8/2 2390/8/2 2391/8/2 2392/8/2
f 2393/8/4 2394/8/4 2395/8/4 2396/8/4
f 2397/8/5 2398/8/5 2399/8/5 2400/8/5
f 2401/8/6 2402/8/6 2403/8/6 2404/8/6
f 2405/8/1 2406/8/1 2407/8/1 2408/8/1
f 2409/8/5 2410/8/5 2411/8/5 2412/8/5
f 2413/8/6 2414/8/6 2415/8/6 2416/8/6
f 2417/3/5 2418/3/5 2419/3/5 2420/3/5
f 2421/3/6 2422/3/6 2423/3/6 2424/3/6
f 2425/7/2 2426/7/2 2427/7/2 2428/7/2
f 2429/7/5 2430/7/5 2431/7/5 2432/7/5
f 2433/7/6 2434/7/6 2435/7/6 2436/7/6
f 2437/8/1 2438/8/1 2439/8/1 2440/8/1
f 2441/8/2 2442/8/2 2443/8/2 2444/8/2
f 2445/8/3 2446/8/3 2447/8/3 2448/8/3
f 2449/8/5 2450/8/5 2451/8/5 2452/8/5
f 2453/8/6 2454/8/6 2455/8/6 2456/8/6
f 2457/8/1 2458/8/1 2459/8/1 2460/8/1
f 2461/8/3 2462/8/3 2463/8/3 2464/8/3
f 2465/8/5 2466/8/5 2467/8/5 2468/8/5
f 2469/8/6 2470/8/6 2471/8/6 2472/8/6
f 2473/3/5 2474/3/5 2475/3/5 2476/3/5
f 2477/3/6 2478/3/6 2479/3/6 2480/3/6
f 2481/7/5 2482/7/5 2483/7/5 2484/7/5
f 2485/7/6 2486/7/6 2487/7/6 2488/7/6
f 2489/7/2 2490/7/2 2491/7/2 2492/7/2
f 2493/7/5 2494/7/5 2495/7/5 2496/7/5
f 2497/7/6 2498/7/6 2499/7/6 2500/7/6
f 2501/3/1 2502/3/1 2503/3/1 2504/3/1
f 2505/3/2 2506/3/2 2507/3/2 2508/3/2
f 2509/3/4 2510/3/4 2511/3/4 2512/3/4
f 2513/3/5 2514/3/5 2515/3/5 2516/3/5
f 2517/3/6 2518/3/6 2519/3/6 2520/3/6
f 2521/8/1 2522/8/1 2523/8/1 2524/8/1
f 2525/8/4 2526/8/4 2527/8/4 2528/8/4
f 2529/8/5 2530/8/5 2531/8/5 2532/8/5
f 2533/8/6 2534/8/6 2535/8/6 2536/8/6
f 2537/3/5 2538/3/5 2539/3/5 2540/3/5
f 2541/3/6 2542/3/6 2543/3/6 2544/3/6
f 2545/7/5 2546/7/5 2547/7/5 2548/7/5
f 2549/7/6 2550/7/6 2551/7/6 2552/7/6
f 2553/7/2 2554/7/2 2555/7/2 2556/7/2
f 2557/7/5 2558/7/5 2559/7/5 2560/7/5
f 2561/7/6 2562/7/6 2563/7/6 2564/7/6
f 2565/8/1 2566/8/1 2567/8/1 2568/8/1
f 2569/8/5 2570/8/5 2571/8/5 2572/8/5
f 2573/8/6 2574/8/6 2575/8/6 2576/8/6
f 2577/3/5 2578/3/5 2579/3/5 2580/3/5
f 2581/3/6 2582/3/6 2583/3/6 2584/3/6
f 2585/7/2 2586/7/2 2587/7/2 2588/7/2
f 2589/7/5 2590/7/5 2591/7/5 2592/7/5
f 2593/7/6 2594/7/6 2595/7/6 2596/7/6
f 2597/8/1 2598/8/1 2599/8/1 2600/8/1
f 2601/8/5 2602/8/5 2603/8/5 2604/8/5
f 2605/8/6 2606/8/6 2607/8/6 2608/8/6
f 2609/3/5 2610/3/5 2611/3/5 2612/3/5
f 2613/3/6 2614/3/6 2615/3/6 2616/3/6
f 2617/7/2 2618/7/2 2619/7/2 2620/7/2
f 2621/7/5 2622/7/5 2623/7/5 2624/7/5
f 2625/7/6 2626/7/6 2627/7/6 2628/7/6
f 2629/8/1 2630/8/1 2631/8/1 2632/8/1
f 2633/8/4 2634/8/4 2635/8/4 2636/8/4
f 2637/8/5 2638/8/5 2639/8/5 2640/8/5
f 2641/8/6 2642/8/6 2643/8/6 2644/8/6
f 2645/3/5 2646/3/5 2647/3/5 2648/3/5
f 2649/3/6 2650/3/6 2651/3/6 2652/3/6
f 2653/7/2 2654/7/2 2655/7/2 2656/7/2
f 2657/7/5 2658/7/5 2659/7/5 2660/7/5
f 2661/7/6 2662/7/6 2663/7/6 2664/7/6
f 2665/8/1 2666/8/1 2667/8/1 2668/8/1
f 2669/8/5 2670/8/5 2671/8/5 2672/8/5
f 2673/8/6 2674/8/6 2675/8/6 2676/8/6
f 2677/3/2 2678/3/2 2679/3/2 2680/3/2
f 2681/3/5 2682/3/5 2683/3/5 2684/3/5
f 2685/3/6 2686/3/6 2687/3/6 2688/3/6
f 2689/8/1 2690/8/1 2691/8/1 2692/8/1
f 2693/8/4 2694/8/4 2695/8/4 2696/8/4
f 2697/8/5 2698/8/5 2699/8/5 2700/8/5
f 2701/8/6 2702/8/6 2703/8/6 2704/8/6
f 2705/3/2 2706/3/2 2707/3/2 2708/3/2
f 2709/3/5 2710/3/5 2711/3/5 2712/3/5
f 2713/3/6 2714/3/6 2715/3/6 2716/3/6
f 2717/8/1 2718/8/1 2719/8/1 2720/8/1
f 2721/8/2 2722/8/2 2723/8/2 2724/8/2
f 2725/8/5 2726/8/5 2727/8/5 2728/8/5
f 2729/8/6 2730/8/6 2731/8/6 2732/8/6
f 2733/8/1 2734/8/1 2735/8/1 2736/8/1
f 2737/8/2 2738/8/2 2739/8/2 2740/8/2
f 2741/8/4 2742/8/4 2743/8/4 2744/8/4
f 2745/8/5 2746/8/5 2747/8/5 2748/8/5
f 2749/8/6 2750/8/6 2751/8/6 2752/8/6

