# generated by vox_to_obj_exporter
# scale=0.1 center=false ground=false y_up=true

mtllib Fight_709.mtl
usemtl palette

# normals
vn -1 0 0
vn 1 0 0
vn 0 1 0
vn 0 -1 0
vn 0 0 1
vn 0 0 -1

# texcoords
vt 0.162109375 0.5
vt 0.111328125 0.5
vt 0.177734375 0.5

# verts
v 2.1 12.4 -2.6
v 2.1 12.3 -2.6
v 2.1 12.3 -2.5
v 2.1 12.4 -2.5
v 2.2 12.4 -2.5
v 2.2 12.3 -2.5
v 2.2 12.3 -2.6
v 2.2 12.4 -2.6
v 2.1 12.4 -2.6
v 2.1 12.4 -2.5
v 2.2 12.4 -2.5
v 2.2 12.4 -2.6
v 2.1 12.4 -2.5
v 2.1 12.3 -2.5
v 2.2 12.3 -2.5
v 2.2 12.4 -2.5
v 2.2 12.4 -2.6
v 2.2 12.3 -2.6
v 2.1 12.3 -2.6
v 2.1 12.4 -2.6
v 2 12.3 -2.6
v 2 12.2 -2.6
v 2 12.2 -2.5
v 2 12.3 -2.5
v 2 12.3 -2.6
v 2 12.3 -2.5
v 2.1 12.3 -2.5
v 2.1 12.3 -2.6
v 2 12.3 -2.5
v 2 12.2 -2.5
v 2.1 12.2 -2.5
v 2.1 12.3 -2.5
v 2.1 12.3 -2.6
v 2.1 12.2 -2.6
v 2 12.2 -2.6
v 2 12.3 -2.6
v 2.2 12.3 -2.5
v 2.2 12.2 -2.5
v 2.2 12.2 -2.6
v 2.2 12.3 -2.6
v 2.1 12.3 -2.5
v 2.1 12.2 -2.5
v 2.2 12.2 -2.5
v 2.2 12.3 -2.5
v 2.2 12.3 -2.6
v 2.2 12.2 -2.6
v 2.1 12.2 -2.6
v 2.1 12.3 -2.6
v 2 12.2 -2.6
v 2 12.1 -2.6
v 2 12.1 -2.5
v 2 12.2 -2.5
v 2 12.2 -2.5
v 2 12.1 -2.5
v 2.1 12.1 -2.5
v 2.1 12.2 -2.5
v 2.1 12.2 -2.6
v 2.1 12.1 -2.6
v 2 12.1 -2.6
v 2 12.2 -2.6
v 2.2 12.2 -2.5
v 2.2 12.1 -2.5
v 2.2 12.1 -2.6
v 2.2 12.2 -2.6
v 2.1 12.1 -2.5
v 2.1 12.1 -2.6
v 2.2 12.1 -2.6
v 2.2 12.1 -2.5
v 2.1 12.2 -2.5
v 2.1 12.1 -2.5
v 2.2 12.1 -2.5
v 2.2 12.2 -2.5
v 2.2 12.2 -2.6
v 2.2 12.1 -2.6
v 2.1 12.1 -2.6
v 2.1 12.2 -2.6
v 2 12.1 -2.6
v 2 12 -2.6
v 2 12 -2.5
v 2 12.1 -2.5
v 2.1 12.1 -2.5
v 2.1 12 -2.5
v 2.1 12 -2.6
v 2.1 12.1 -2.6
v 2 12.1 -2.5
v 2 12 -2.5
v 2.1 12 -2.5
v 2.1 12.1 -2.5
v 2.1 12.1 -2.6
v 2.1 12 -2.6
v 2 12 -2.6
v 2 12.1 -2.6
v 0.8 12 -2.6
v 0.8 11.9 -2.6
v 0.8 11.9 -2.5
v 0.8 12 -2.5
v 0.9 12 -2.5
v 0.9 11.9 -2.5
v 0.9 11.9 -2.6
v 0.9 12 -2.6
v 0.8 12 -2.6
v 0.8 12 -2.5
v 0.9 12 -2.5
v 0.9 12 -2.6
v 0.8 11.9 -2.5
v 0.8 11.9 -2.6
v 0.9 11.9 -2.6
v 0.9 11.9 -2.5
v 0.8 12 -2.5
v 0.8 11.9 -2.5
v 0.9 11.9 -2.5
v 0.9 12 -2.5
v 0.9 12 -2.6
v 0.9 11.9 -2.6
v 0.8 11.9 -2.6
v 0.8 12 -2.6
v 2 12 -2.6
v 2 11.9 -2.6
v 2 11.9 -2.5
v 2 12 -2.5
v 2.1 12 -2.5
v 2.1 11.9 -2.5
v 2.1 11.9 -2.6
v 2.1 12 -2.6
v 2 12 -2.5
v 2 11.9 -2.5
v 2.1 11.9 -2.5
v 2.1 12 -2.5
v 2.1 12 -2.6
v 2.1 11.9 -2.6
v 2 11.9 -2.6
v 2 12 -2.6
v 0.7 11.9 -2.6
v 0.7 11.8 -2.6
v 0.7 11.8 -2.5
v 0.7 11.9 -2.5
v 0.8 11.9 -2.5
v 0.8 11.8 -2.5
v 0.8 11.8 -2.6
v 0.8 11.9 -2.6
v 0.7 11.9 -2.6
v 0.7 11.9 -2.5
v 0.8 11.9 -2.5
v 0.8 11.9 -2.6
v 0.7 11.8 -2.5
v 0.7 11.8 -2.6
v 0.8 11.8 -2.6
v 0.8 11.8 -2.5
v 0.7 11.9 -2.5
v 0.7 11.8 -2.5
v 0.8 11.8 -2.5
v 0.8 11.9 -2.5
v 0.8 11.9 -2.6
v 0.8 11.8 -2.6
v 0.7 11.8 -2.6
v 0.7 11.9 -2.6
v 2 11.9 -2.6
v 2 11.8 -2.6
v 2 11.8 -2.5
v 2 11.9 -2.5
v 2.1 11.9 -2.5
v 2.1 11.8 -2.5
v 2.1 11.8 -2.6
v 2.1 11.9 -2.6
v 2 11.9 -2.5
v 2 11.8 -2.5
v 2.1 11.8 -2.5
v 2.1 11.9 -2.5
v 2.1 11.9 -2.6
v 2.1 11.8 -2.6
v 2 11.8 -2.6
v 2 11.9 -2.6
v 0.5 11.8 -2.6
v 0.5 11.7 -2.6
v 0.5 11.7 -2.5
v 0.5 11.8 -2.5
v 0.5 11.8 -2.6
v 0.5 11.8 -2.5
v 0.6 11.8 -2.5
v 0.6 11.8 -2.6
v 0.5 11.8 -2.5
v 0.5 11.7 -2.5
v 0.6 11.7 -2.5
v 0.6 11.8 -2.5
v 0.6 11.8 -2.6
v 0.6 11.7 -2.6
v 0.5 11.7 -2.6
v 0.5 11.8 -2.6
v 0.7 11.8 -2.5
v 0.7 11.7 -2.5
v 0.7 11.7 -2.6
v 0.7 11.8 -2.6
v 0.6 11.8 -2.6
v 0.6 11.8 -2.5
v 0.7 11.8 -2.5
v 0.7 11.8 -2.6
v 0.6 11.8 -2.5
v 0.6 11.7 -2.5
v 0.7 11.7 -2.5
v 0.7 11.8 -2.5
v 0.7 11.8 -2.6
v 0.7 11.7 -2.6
v 0.6 11.7 -2.6
v 0.6 11.8 -2.6
v 1.9 11.8 -2.6
v 1.9 11.7 -2.6
v 1.9 11.7 -2.5
v 1.9 11.8 -2.5
v 1.9 11.8 -2.6
v 1.9 11.8 -2.5
v 2 11.8 -2.5
v 2 11.8 -2.6
v 1.9 11.8 -2.5
v 1.9 11.7 -2.5
v 2 11.7 -2.5
v 2 11.8 -2.5
v 2 11.8 -2.6
v 2 11.7 -2.6
v 1.9 11.7 -2.6
v 1.9 11.8 -2.6
v 2.1 11.8 -2.5
v 2.1 11.7 -2.5
v 2.1 11.7 -2.6
v 2.1 11.8 -2.6
v 2 11.8 -2.5
v 2 11.7 -2.5
v 2.1 11.7 -2.5
v 2.1 11.8 -2.5
v 2.1 11.8 -2.6
v 2.1 11.7 -2.6
v 2 11.7 -2.6
v 2 11.8 -2.6
v 0.4 11.7 -2.6
v 0.4 11.6 -2.6
v 0.4 11.6 -2.5
v 0.4 11.7 -2.5
v 0.4 11.7 -2.6
v 0.4 11.7 -2.5
v 0.5 11.7 -2.5
v 0.5 11.7 -2.6
v 0.4 11.7 -2.5
v 0.4 11.6 -2.5
v 0.5 11.6 -2.5
v 0.5 11.7 -2.5
v 0.5 11.7 -2.6
v 0.5 11.6 -2.6
v 0.4 11.6 -2.6
v 0.4 11.7 -2.6
v 0.5 11.7 -2.5
v 0.5 11.6 -2.5
v 0.6 11.6 -2.5
v 0.6 11.7 -2.5
v 0.6 11.7 -2.6
v 0.6 11.6 -2.6
v 0.5 11.6 -2.6
v 0.5 11.7 -2.6
v 0.7 11.7 -2.5
v 0.7 11.6 -2.5
v 0.7 11.6 -2.6
v 0.7 11.7 -2.6
v 0.6 11.6 -2.5
v 0.6 11.6 -2.6
v 0.7 11.6 -2.6
v 0.7 11.6 -2.5
v 0.6 11.7 -2.5
v 0.6 11.6 -2.5
v 0.7 11.6 -2.5
v 0.7 11.7 -2.5
v 0.7 11.7 -2.6
v 0.7 11.6 -2.6
v 0.6 11.6 -2.6
v 0.6 11.7 -2.6
v 1.9 11.7 -2.6
v 1.9 11.6 -2.6
v 1.9 11.6 -2.5
v 1.9 11.7 -2.5
v 1.9 11.7 -2.5
v 1.9 11.6 -2.5
v 2 11.6 -2.5
v 2 11.7 -2.5
v 2 11.7 -2.6
v 2 11.6 -2.6
v 1.9 11.6 -2.6
v 1.9 11.7 -2.6
v 2 11.7 -2.5
v 2 11.6 -2.5
v 2.1 11.6 -2.5
v 2.1 11.7 -2.5
v 2.1 11.7 -2.6
v 2.1 11.6 -2.6
v 2 11.6 -2.6
v 2 11.7 -2.6
v 2.2 11.7 -2.5
v 2.2 11.6 -2.5
v 2.2 11.6 -2.6
v 2.2 11.7 -2.6
v 2.1 11.7 -2.6
v 2.1 11.7 -2.5
v 2.2 11.7 -2.5
v 2.2 11.7 -2.6
v 2.1 11.7 -2.5
v 2.1 11.6 -2.5
v 2.2 11.6 -2.5
v 2.2 11.7 -2.5
v 2.2 11.7 -2.6
v 2.2 11.6 -2.6
v 2.1 11.6 -2.6
v 2.1 11.7 -2.6
v 0.4 11.6 -2.6
v 0.4 11.5 -2.6
v 0.4 11.5 -2.5
v 0.4 11.6 -2.5
v 0.4 11.6 -2.5
v 0.4 11.5 -2.5
v 0.5 11.5 -2.5
v 0.5 11.6 -2.5
v 0.5 11.6 -2.6
v 0.5 11.5 -2.6
v 0.4 11.5 -2.6
v 0.4 11.6 -2.6
v 0.6 11.6 -2.5
v 0.6 11.5 -2.5
v 0.6 11.5 -2.6
v 0.6 11.6 -2.6
v 0.5 11.6 -2.5
v 0.5 11.5 -2.5
v 0.6 11.5 -2.5
v 0.6 11.6 -2.5
v 0.6 11.6 -2.6
v 0.6 11.5 -2.6
v 0.5 11.5 -2.6
v 0.5 11.6 -2.6
v 1.8 11.6 -2.6
v 1.8 11.5 -2.6
v 1.8 11.5 -2.5
v 1.8 11.6 -2.5
v 1.8 11.6 -2.6
v 1.8 11.6 -2.5
v 1.9 11.6 -2.5
v 1.9 11.6 -2.6
v 1.8 11.6 -2.5
v 1.8 11.5 -2.5
v 1.9 11.5 -2.5
v 1.9 11.6 -2.5
v 1.9 11.6 -2.6
v 1.9 11.5 -2.6
v 1.8 11.5 -2.6
v 1.8 11.6 -2.6
v 1.9 11.5 -2.5
v 1.9 11.5 -2.6
v 2 11.5 -2.6
v 2 11.5 -2.5
v 1.9 11.6 -2.5
v 1.9 11.5 -2.5
v 2 11.5 -2.5
v 2 11.6 -2.5
v 2 11.6 -2.6
v 2 11.5 -2.6
v 1.9 11.5 -2.6
v 1.9 11.6 -2.6
v 2 11.6 -2.5
v 2 11.5 -2.5
v 2.1 11.5 -2.5
v 2.1 11.6 -2.5
v 2.1 11.6 -2.6
v 2.1 11.5 -2.6
v 2 11.5 -2.6
v 2 11.6 -2.6
v 2.2 11.6 -2.5
v 2.2 11.5 -2.5
v 2.2 11.5 -2.6
v 2.2 11.6 -2.6
v 2.1 11.6 -2.5
v 2.1 11.5 -2.5
v 2.2 11.5 -2.5
v 2.2 11.6 -2.5
v 2.2 11.6 -2.6
v 2.2 11.5 -2.6
v 2.1 11.5 -2.6
v 2.1 11.6 -2.6
v 0.4 11.5 -2.6
v 0.4 11.4 -2.6
v 0.4 11.4 -2.5
v 0.4 11.5 -2.5
v 0.4 11.5 -2.5
v 0.4 11.4 -2.5
v 0.5 11.4 -2.5
v 0.5 11.5 -2.5
v 0.5 11.5 -2.6
v 0.5 11.4 -2.6
v 0.4 11.4 -2.6
v 0.4 11.5 -2.6
v 0.6 11.5 -2.5
v 0.6 11.4 -2.5
v 0.6 11.4 -2.6
v 0.6 11.5 -2.6
v 0.5 11.4 -2.5
v 0.5 11.4 -2.6
v 0.6 11.4 -2.6
v 0.6 11.4 -2.5
v 0.5 11.5 -2.5
v 0.5 11.4 -2.5
v 0.6 11.4 -2.5
v 0.6 11.5 -2.5
v 0.6 11.5 -2.6
v 0.6 11.4 -2.6
v 0.5 11.4 -2.6
v 0.5 11.5 -2.6
v 1.8 11.5 -2.6
v 1.8 11.4 -2.6
v 1.8 11.4 -2.5
v 1.8 11.5 -2.5
v 1.9 11.5 -2.5
v 1.9 11.4 -2.5
v 1.9 11.4 -2.6
v 1.9 11.5 -2.6
v 1.8 11.4 -2.5
v 1.8 11.4 -2.6
v 1.9 11.4 -2.6
v 1.9 11.4 -2.5
v 1.8 11.5 -2.5
v 1.8 11.4 -2.5
v 1.9 11.4 -2.5
v 1.9 11.5 -2.5
v 1.9 11.5 -2.6
v 1.9 11.4 -2.6
v 1.8 11.4 -2.6
v 1.8 11.5 -2.6
v 2 11.5 -2.6
v 2 11.4 -2.6
v 2 11.4 -2.5
v 2 11.5 -2.5
v 2 11.5 -2.5
v 2 11.4 -2.5
v 2.1 11.4 -2.5
v 2.1 11.5 -2.5
v 2.1 11.5 -2.6
v 2.1 11.4 -2.6
v 2 11.4 -2.6
v 2 11.5 -2.6
v 2.2 11.5 -2.5
v 2.2 11.4 -2.5
v 2.2 11.4 -2.6
v 2.2 11.5 -2.6
v 2.1 11.5 -2.5
v 2.1 11.4 -2.5
v 2.2 11.4 -2.5
v 2.2 11.5 -2.5
v 2.2 11.5 -2.6
v 2.2 11.4 -2.6
v 2.1 11.4 -2.6
v 2.1 11.5 -2.6
v 0.3 11.4 -2.6
v 0.3 11.3 -2.6
v 0.3 11.3 -2.5
v 0.3 11.4 -2.5
v 0.3 11.4 -2.6
v 0.3 11.4 -2.5
v 0.4 11.4 -2.5
v 0.4 11.4 -2.6
v 0.3 11.4 -2.5
v 0.3 11.3 -2.5
v 0.4 11.3 -2.5
v 0.4 11.4 -2.5
v 0.4 11.4 -2.6
v 0.4 11.3 -2.6
v 0.3 11.3 -2.6
v 0.3 11.4 -2.6
v 0.5 11.4 -2.5
v 0.5 11.3 -2.5
v 0.5 11.3 -2.6
v 0.5 11.4 -2.6
v 0.4 11.4 -2.5
v 0.4 11.3 -2.5
v 0.5 11.3 -2.5
v 0.5 11.4 -2.5
v 0.5 11.4 -2.6
v 0.5 11.3 -2.6
v 0.4 11.3 -2.6
v 0.4 11.4 -2.6
v 1.7 11.4 -2.6
v 1.7 11.3 -2.6
v 1.7 11.3 -2.5
v 1.7 11.4 -2.5
v 1.8 11.4 -2.5
v 1.8 11.3 -2.5
v 1.8 11.3 -2.6
v 1.8 11.4 -2.6
v 1.7 11.4 -2.6
v 1.7 11.4 -2.5
v 1.8 11.4 -2.5
v 1.8 11.4 -2.6
v 1.7 11.4 -2.5
v 1.7 11.3 -2.5
v 1.8 11.3 -2.5
v 1.8 11.4 -2.5
v 1.8 11.4 -2.6
v 1.8 11.3 -2.6
v 1.7 11.3 -2.6
v 1.7 11.4 -2.6
v 2 11.4 -2.6
v 2 11.3 -2.6
v 2 11.3 -2.5
v 2 11.4 -2.5
v 2 11.4 -2.5
v 2 11.3 -2.5
v 2.1 11.3 -2.5
v 2.1 11.4 -2.5
v 2.1 11.4 -2.6
v 2.1 11.3 -2.6
v 2 11.3 -2.6
v 2 11.4 -2.6
v 2.2 11.4 -2.5
v 2.2 11.3 -2.5
v 2.2 11.3 -2.6
v 2.2 11.4 -2.6
v 2.1 11.4 -2.5
v 2.1 11.3 -2.5
v 2.2 11.3 -2.5
v 2.2 11.4 -2.5
v 2.2 11.4 -2.6
v 2.2 11.3 -2.6
v 2.1 11.3 -2.6
v 2.1 11.4 -2.6
v 0.3 11.3 -2.6
v 0.3 11.2 -2.6
v 0.3 11.2 -2.5
v 0.3 11.3 -2.5
v 0.3 11.3 -2.5
v 0.3 11.2 -2.5
v 0.4 11.2 -2.5
v 0.4 11.3 -2.5
v 0.4 11.3 -2.6
v 0.4 11.2 -2.6
v 0.3 11.2 -2.6
v 0.3 11.3 -2.6
v 0.5 11.3 -2.5
v 0.5 11.2 -2.5
v 0.5 11.2 -2.6
v 0.5 11.3 -2.6
v 0.4 11.3 -2.5
v 0.4 11.2 -2.5
v 0.5 11.2 -2.5
v 0.5 11.3 -2.5
v 0.5 11.3 -2.6
v 0.5 11.2 -2.6
v 0.4 11.2 -2.6
v 0.4 11.3 -2.6
v 1.6 11.3 -2.6
v 1.6 11.2 -2.6
v 1.6 11.2 -2.5
v 1.6 11.3 -2.5
v 1.6 11.3 -2.6
v 1.6 11.3 -2.5
v 1.7 11.3 -2.5
v 1.7 11.3 -2.6
v 1.6 11.3 -2.5
v 1.6 11.2 -2.5
v 1.7 11.2 -2.5
v 1.7 11.3 -2.5
v 1.7 11.3 -2.6
v 1.7 11.2 -2.6
v 1.6 11.2 -2.6
v 1.6 11.3 -2.6
v 1.8 11.3 -2.5
v 1.8 11.2 -2.5
v 1.8 11.2 -2.6
v 1.8 11.3 -2.6
v 1.7 11.2 -2.5
v 1.7 11.2 -2.6
v 1.8 11.2 -2.6
v 1.8 11.2 -2.5
v 1.7 11.3 -2.5
v 1.7 11.2 -2.5
v 1.8 11.2 -2.5
v 1.8 11.3 -2.5
v 1.8 11.3 -2.6
v 1.8 11.2 -2.6
v 1.7 11.2 -2.6
v 1.7 11.3 -2.6
v 2 11.3 -2.6
v 2 11.2 -2.6
v 2 11.2 -2.5
v 2 11.3 -2.5
v 2 11.2 -2.5
v 2 11.2 -2.6
v 2.1 11.2 -2.6
v 2.1 11.2 -2.5
v 2 11.3 -2.5
v 2 11.2 -2.5
v 2.1 11.2 -2.5
v 2.1 11.3 -2.5
v 2.1 11.3 -2.6
v 2.1 11.2 -2.6
v 2 11.2 -2.6
v 2 11.3 -2.6
v 2.2 11.3 -2.5
v 2.2 11.2 -2.5
v 2.2 11.2 -2.6
v 2.2 11.3 -2.6
v 2.1 11.3 -2.5
v 2.1 11.2 -2.5
v 2.2 11.2 -2.5
v 2.2 11.3 -2.5
v 2.2 11.3 -2.6
v 2.2 11.2 -2.6
v 2.1 11.2 -2.6
v 2.1 11.3 -2.6
v 0.3 11.2 -2.6
v 0.3 11.1 -2.6
v 0.3 11.1 -2.5
v 0.3 11.2 -2.5
v 0.3 11.2 -2.5
v 0.3 11.1 -2.5
v 0.4 11.1 -2.5
v 0.4 11.2 -2.5
v 0.4 11.2 -2.6
v 0.4 11.1 -2.6
v 0.3 11.1 -2.6
v 0.3 11.2 -2.6
v 0.5 11.2 -2.5
v 0.5 11.1 -2.5
v 0.5 11.1 -2.6
v 0.5 11.2 -2.6
v 0.4 11.2 -2.5
v 0.4 11.1 -2.5
v 0.5 11.1 -2.5
v 0.5 11.2 -2.5
v 0.5 11.2 -2.6
v 0.5 11.1 -2.6
v 0.4 11.1 -2.6
v 0.4 11.2 -2.6
v 1.5 11.2 -2.6
v 1.5 11.1 -2.6
v 1.5 11.1 -2.5
v 1.5 11.2 -2.5
v 1.5 11.2 -2.6
v 1.5 11.2 -2.5
v 1.6 11.2 -2.5
v 1.6 11.2 -2.6
v 1.5 11.2 -2.5
v 1.5 11.1 -2.5
v 1.6 11.1 -2.5
v 1.6 11.2 -2.5
v 1.6 11.2 -2.6
v 1.6 11.1 -2.6
v 1.5 11.1 -2.6
v 1.5 11.2 -2.6
v 1.7 11.2 -2.5
v 1.7 11.1 -2.5
v 1.7 11.1 -2.6
v 1.7 11.2 -2.6
v 1.6 11.1 -2.5
v 1.6 11.1 -2.6
v 1.7 11.1 -2.6
v 1.7 11.1 -2.5
v 1.6 11.2 -2.5
v 1.6 11.1 -2.5
v 1.7 11.1 -2.5
v 1.7 11.2 -2.5
v 1.7 11.2 -2.6
v 1.7 11.1 -2.6
v 1.6 11.1 -2.6
v 1.6 11.2 -2.6
v 2.1 11.2 -2.6
v 2.1 11.1 -2.6
v 2.1 11.1 -2.5
v 2.1 11.2 -2.5
v 2.2 11.2 -2.5
v 2.2 11.1 -2.5
v 2.2 11.1 -2.6
v 2.2 11.2 -2.6
v 2.1 11.2 -2.5
v 2.1 11.1 -2.5
v 2.2 11.1 -2.5
v 2.2 11.2 -2.5
v 2.2 11.2 -2.6
v 2.2 11.1 -2.6
v 2.1 11.1 -2.6
v 2.1 11.2 -2.6
v 0.2 11.1 -2.6
v 0.2 11 -2.6
v 0.2 11 -2.5
v 0.2 11.1 -2.5
v 0.2 11.1 -2.6
v 0.2 11.1 -2.5
v 0.3 11.1 -2.5
v 0.3 11.1 -2.6
v 0.2 11.1 -2.5
v 0.2 11 -2.5
v 0.3 11 -2.5
v 0.3 11.1 -2.5
v 0.3 11.1 -2.6
v 0.3 11 -2.6
v 0.2 11 -2.6
v 0.2 11.1 -2.6
v 0.3 11.1 -2.5
v 0.3 11 -2.5
v 0.4 11 -2.5
v 0.4 11.1 -2.5
v 0.4 11.1 -2.6
v 0.4 11 -2.6
v 0.3 11 -2.6
v 0.3 11.1 -2.6
v 0.5 11.1 -2.5
v 0.5 11 -2.5
v 0.5 11 -2.6
v 0.5 11.1 -2.6
v 0.4 11.1 -2.5
v 0.4 11 -2.5
v 0.5 11 -2.5
v 0.5 11.1 -2.5
v 0.5 11.1 -2.6
v 0.5 11 -2.6
v 0.4 11 -2.6
v 0.4 11.1 -2.6
v 1.5 11.1 -2.6
v 1.5 11 -2.6
v 1.5 11 -2.5
v 1.5 11.1 -2.5
v 1.6 11.1 -2.5
v 1.6 11 -2.5
v 1.6 11 -2.6
v 1.6 11.1 -2.6
v 1.5 11.1 -2.5
v 1.5 11 -2.5
v 1.6 11 -2.5
v 1.6 11.1 -2.5
v 1.6 11.1 -2.6
v 1.6 11 -2.6
v 1.5 11 -2.6
v 1.5 11.1 -2.6
v 2.1 11.1 -2.6
v 2.1 11 -2.6
v 2.1 11 -2.5
v 2.1 11.1 -2.5
v 2.1 11.1 -2.5
v 2.1 11 -2.5
v 2.2 11 -2.5
v 2.2 11.1 -2.5
v 2.2 11.1 -2.6
v 2.2 11 -2.6
v 2.1 11 -2.6
v 2.1 11.1 -2.6
v 2.3 11.1 -2.5
v 2.3 11 -2.5
v 2.3 11 -2.6
v 2.3 11.1 -2.6
v 2.2 11.1 -2.6
v 2.2 11.1 -2.5
v 2.3 11.1 -2.5
v 2.3 11.1 -2.6
v 2.2 11.1 -2.5
v 2.2 11 -2.5
v 2.3 11 -2.5
v 2.3 11.1 -2.5
v 2.3 11.1 -2.6
v 2.3 11 -2.6
v 2.2 11 -2.6
v 2.2 11.1 -2.6
v 0.2 11 -2.6
v 0.2 10.9 -2.6
v 0.2 10.9 -2.5
v 0.2 11 -2.5
v 0.2 11 -2.5
v 0.2 10.9 -2.5
v 0.3 10.9 -2.5
v 0.3 11 -2.5
v 0.3 11 -2.6
v 0.3 10.9 -2.6
v 0.2 10.9 -2.6
v 0.2 11 -2.6
v 0.3 11 -2.5
v 0.3 10.9 -2.5
v 0.4 10.9 -2.5
v 0.4 11 -2.5
v 0.4 11 -2.6
v 0.4 10.9 -2.6
v 0.3 10.9 -2.6
v 0.3 11 -2.6
v 0.5 11 -2.5
v 0.5 10.9 -2.5
v 0.5 10.9 -2.6
v 0.5 11 -2.6
v 0.4 11 -2.5
v 0.4 10.9 -2.5
v 0.5 10.9 -2.5
v 0.5 11 -2.5
v 0.5 11 -2.6
v 0.5 10.9 -2.6
v 0.4 10.9 -2.6
v 0.4 11 -2.6
v 0.9 11 -2.6
v 0.9 10.9 -2.6
v 0.9 10.9 -2.5
v 0.9 11 -2.5
v 1 11 -2.5
v 1 10.9 -2.5
v 1 10.9 -2.6
v 1 11 -2.6
v 0.9 11 -2.6
v 0.9 11 -2.5
v 1 11 -2.5
v 1 11 -2.6
v 0.9 10.9 -2.5
v 0.9 10.9 -2.6
v 1 10.9 -2.6
v 1 10.9 -2.5
v 0.9 11 -2.5
v 0.9 10.9 -2.5
v 1 10.9 -2.5
v 1 11 -2.5
v 1 11 -2.6
v 1 10.9 -2.6
v 0.9 10.9 -2.6
v 0.9 11 -2.6
v 1.4 11 -2.6
v 1.4 10.9 -2.6
v 1.4 10.9 -2.5
v 1.4 11 -2.5
v 1.4 11 -2.6
v 1.4 11 -2.5
v 1.5 11 -2.5
v 1.5 11 -2.6
v 1.4 11 -2.5
v 1.4 10.9 -2.5
v 1.5 10.9 -2.5
v 1.5 11 -2.5
v 1.5 11 -2.6
v 1.5 10.9 -2.6
v 1.4 10.9 -2.6
v 1.4 11 -2.6
v 1.5 11 -2.5
v 1.5 10.9 -2.5
v 1.6 10.9 -2.5
v 1.6 11 -2.5
v 1.6 11 -2.6
v 1.6 10.9 -2.6
v 1.5 10.9 -2.6
v 1.5 11 -2.6
v 1.7 11 -2.5
v 1.7 10.9 -2.5
v 1.7 10.9 -2.6
v 1.7 11 -2.6
v 1.6 11 -2.6
v 1.6 11 -2.5
v 1.7 11 -2.5
v 1.7 11 -2.6
v 1.6 11 -2.5
v 1.6 10.9 -2.5
v 1.7 10.9 -2.5
v 1.7 11 -2.5
v 1.7 11 -2.6
v 1.7 10.9 -2.6
v 1.6 10.9 -2.6
v 1.6 11 -2.6
v 2.1 11 -2.6
v 2.1 10.9 -2.6
v 2.1 10.9 -2.5
v 2.1 11 -2.5
v 2.1 11 -2.5
v 2.1 10.9 -2.5
v 2.2 10.9 -2.5
v 2.2 11 -2.5
v 2.2 11 -2.6
v 2.2 10.9 -2.6
v 2.1 10.9 -2.6
v 2.1 11 -2.6
v 2.3 11 -2.5
v 2.3 10.9 -2.5
v 2.3 10.9 -2.6
v 2.3 11 -2.6
v 2.2 11 -2.5
v 2.2 10.9 -2.5
v 2.3 10.9 -2.5
v 2.3 11 -2.5
v 2.3 11 -2.6
v 2.3 10.9 -2.6
v 2.2 10.9 -2.6
v 2.2 11 -2.6
v 0.2 10.9 -2.6
v 0.2 10.8 -2.6
v 0.2 10.8 -2.5
v 0.2 10.9 -2.5
v 0.2 10.8 -2.5
v 0.2 10.8 -2.6
v 0.3 10.8 -2.6
v 0.3 10.8 -2.5
v 0.2 10.9 -2.5
v 0.2 10.8 -2.5
v 0.3 10.8 -2.5
v 0.3 10.9 -2.5
v 0.3 10.9 -2.6
v 0.3 10.8 -2.6
v 0.2 10.8 -2.6
v 0.2 10.9 -2.6
v 0.3 10.9 -2.5
v 0.3 10.8 -2.5
v 0.4 10.8 -2.5
v 0.4 10.9 -2.5
v 0.4 10.9 -2.6
v 0.4 10.8 -2.6
v 0.3 10.8 -2.6
v 0.3 10.9 -2.6
v 0.4 10.9 -2.5
v 0.4 10.8 -2.5
v 0.5 10.8 -2.5
v 0.5 10.9 -2.5
v 0.5 10.9 -2.6
v 0.5 10.8 -2.6
v 0.4 10.8 -2.6
v 0.4 10.9 -2.6
v 0.6 10.9 -2.5
v 0.6 10.8 -2.5
v 0.6 10.8 -2.6
v 0.6 10.9 -2.6
v 0.5 10.9 -2.6
v 0.5 10.9 -2.5
v 0.6 10.9 -2.5
v 0.6 10.9 -2.6
v 0.5 10.9 -2.5
v 0.5 10.8 -2.5
v 0.6 10.8 -2.5
v 0.6 10.9 -2.5
v 0.6 10.9 -2.6
v 0.6 10.8 -2.6
v 0.5 10.8 -2.6
v 0.5 10.9 -2.6
v 0.8 10.9 -2.6
v 0.8 10.8 -2.6
v 0.8 10.8 -2.5
v 0.8 10.9 -2.5
v 0.9 10.9 -2.5
v 0.9 10.8 -2.5
v 0.9 10.8 -2.6
v 0.9 10.9 -2.6
v 0.8 10.9 -2.6
v 0.8 10.9 -2.5
v 0.9 10.9 -2.5
v 0.9 10.9 -2.6
v 0.8 10.9 -2.5
v 0.8 10.8 -2.5
v 0.9 10.8 -2.5
v 0.9 10.9 -2.5
v 0.9 10.9 -2.6
v 0.9 10.8 -2.6
v 0.8 10.8 -2.6
v 0.8 10.9 -2.6
v 1 10.9 -2.6
v 1 10.8 -2.6
v 1 10.8 -2.5
v 1 10.9 -2.5
v 1 10.9 -2.6
v 1 10.9 -2.5
v 1.1 10.9 -2.5
v 1.1 10.9 -2.6
v 1 10.9 -2.5
v 1 10.8 -2.5
v 1.1 10.8 -2.5
v 1.1 10.9 -2.5
v 1.1 10.9 -2.6
v 1.1 10.8 -2.6
v 1 10.8 -2.6
v 1 10.9 -2.6
v 1.1 10.9 -2.6
v 1.1 10.9 -2.5
v 1.2 10.9 -2.5
v 1.2 10.9 -2.6
v 1.1 10.9 -2.5
v 1.1 10.8 -2.5
v 1.2 10.8 -2.5
v 1.2 10.9 -2.5
v 1.2 10.9 -2.6
v 1.2 10.8 -2.6
v 1.1 10.8 -2.6
v 1.1 10.9 -2.6
v 1.2 10.9 -2.6
v 1.2 10.9 -2.5
v 1.3 10.9 -2.5
v 1.3 10.9 -2.6
v 1.2 10.9 -2.5
v 1.2 10.8 -2.5
v 1.3 10.8 -2.5
v 1.3 10.9 -2.5
v 1.3 10.9 -2.6
v 1.3 10.8 -2.6
v 1.2 10.8 -2.6
v 1.2 10.9 -2.6
v 1.3 10.9 -2.6
v 1.3 10.9 -2.5
v 1.4 10.9 -2.5
v 1.4 10.9 -2.6
v 1.3 10.9 -2.5
v 1.3 10.8 -2.5
v 1.4 10.8 -2.5
v 1.4 10.9 -2.5
v 1.4 10.9 -2.6
v 1.4 10.8 -2.6
v 1.3 10.8 -2.6
v 1.3 10.9 -2.6
v 1.4 10.9 -2.5
v 1.4 10.8 -2.5
v 1.5 10.8 -2.5
v 1.5 10.9 -2.5
v 1.5 10.9 -2.6
v 1.5 10.8 -2.6
v 1.4 10.8 -2.6
v 1.4 10.9 -2.6
v 1.5 10.9 -2.5
v 1.5 10.8 -2.5
v 1.6 10.8 -2.5
v 1.6 10.9 -2.5
v 1.6 10.9 -2.6
v 1.6 10.8 -2.6
v 1.5 10.8 -2.6
v 1.5 10.9 -2.6
v 1.6 10.9 -2.5
v 1.6 10.8 -2.5
v 1.7 10.8 -2.5
v 1.7 10.9 -2.5
v 1.7 10.9 -2.6
v 1.7 10.8 -2.6
v 1.6 10.8 -2.6
v 1.6 10.9 -2.6
v 1.7 10.9 -2.6
v 1.7 10.9 -2.5
v 1.8 10.9 -2.5
v 1.8 10.9 -2.6
v 1.7 10.9 -2.5
v 1.7 10.8 -2.5
v 1.8 10.8 -2.5
v 1.8 10.9 -2.5
v 1.8 10.9 -2.6
v 1.8 10.8 -2.6
v 1.7 10.8 -2.6
v 1.7 10.9 -2.6
v 1.8 10.9 -2.6
v 1.8 10.9 -2.5
v 1.9 10.9 -2.5
v 1.9 10.9 -2.6
v 1.8 10.9 -2.5
v 1.8 10.8 -2.5
v 1.9 10.8 -2.5
v 1.9 10.9 -2.5
v 1.9 10.9 -2.6
v 1.9 10.8 -2.6
v 1.8 10.8 -2.6
v 1.8 10.9 -2.6
v 1.9 10.9 -2.6
v 1.9 10.9 -2.5
v 2 10.9 -2.5
v 2 10.9 -2.6
v 1.9 10.9 -2.5
v 1.9 10.8 -2.5
v 2 10.8 -2.5
v 2 10.9 -2.5
v 2 10.9 -2.6
v 2 10.8 -2.6
v 1.9 10.8 -2.6
v 1.9 10.9 -2.6
v 2 10.9 -2.6
v 2 10.9 -2.5
v 2.1 10.9 -2.5
v 2.1 10.9 -2.6
v 2 10.9 -2.5
v 2 10.8 -2.5
v 2.1 10.8 -2.5
v 2.1 10.9 -2.5
v 2.1 10.9 -2.6
v 2.1 10.8 -2.6
v 2 10.8 -2.6
v 2 10.9 -2.6
v 2.1 10.9 -2.5
v 2.1 10.8 -2.5
v 2.2 10.8 -2.5
v 2.2 10.9 -2.5
v 2.2 10.9 -2.6
v 2.2 10.8 -2.6
v 2.1 10.8 -2.6
v 2.1 10.9 -2.6
v 2.3 10.9 -2.5
v 2.3 10.8 -2.5
v 2.3 10.8 -2.6
v 2.3 10.9 -2.6
v 2.2 10.9 -2.5
v 2.2 10.8 -2.5
v 2.3 10.8 -2.5
v 2.3 10.9 -2.5
v 2.3 10.9 -2.6
v 2.3 10.8 -2.6
v 2.2 10.8 -2.6
v 2.2 10.9 -2.6
v 0.3 10.8 -2.6
v 0.3 10.7 -2.6
v 0.3 10.7 -2.5
v 0.3 10.8 -2.5
v 0.3 10.8 -2.5
v 0.3 10.7 -2.5
v 0.4 10.7 -2.5
v 0.4 10.8 -2.5
v 0.4 10.8 -2.6
v 0.4 10.7 -2.6
v 0.3 10.7 -2.6
v 0.3 10.8 -2.6
v 0.4 10.8 -2.5
v 0.4 10.7 -2.5
v 0.5 10.7 -2.5
v 0.5 10.8 -2.5
v 0.5 10.8 -2.6
v 0.5 10.7 -2.6
v 0.4 10.7 -2.6
v 0.4 10.8 -2.6
v 0.5 10.8 -2.5
v 0.5 10.7 -2.5
v 0.6 10.7 -2.5
v 0.6 10.8 -2.5
v 0.6 10.8 -2.6
v 0.6 10.7 -2.6
v 0.5 10.7 -2.6
v 0.5 10.8 -2.6
v 0.6 10.8 -2.6
v 0.6 10.8 -2.5
v 0.7 10.8 -2.5
v 0.7 10.8 -2.6
v 0.6 10.8 -2.5
v 0.6 10.7 -2.5
v 0.7 10.7 -2.5
v 0.7 10.8 -2.5
v 0.7 10.8 -2.6
v 0.7 10.7 -2.6
v 0.6 10.7 -2.6
v 0.6 10.8 -2.6
v 0.7 10.8 -2.6
v 0.7 10.8 -2.5
v 0.8 10.8 -2.5
v 0.8 10.8 -2.6
v 0.7 10.8 -2.5
v 0.7 10.7 -2.5
v 0.8 10.7 -2.5
v 0.8 10.8 -2.5
v 0.8 10.8 -2.6
v 0.8 10.7 -2.6
v 0.7 10.7 -2.6
v 0.7 10.8 -2.6
v 0.8 10.8 -2.5
v 0.8 10.7 -2.5
v 0.9 10.7 -2.5
v 0.9 10.8 -2.5
v 0.9 10.8 -2.6
v 0.9 10.7 -2.6
v 0.8 10.7 -2.6
v 0.8 10.8 -2.6
v 0.9 10.8 -2.6
v 0.9 10.8 -2.5
v 1 10.8 -2.5
v 1 10.8 -2.6
v 0.9 10.8 -2.5
v 0.9 10.7 -2.5
v 1 10.7 -2.5
v 1 10.8 -2.5
v 1 10.8 -2.6
v 1 10.7 -2.6
v 0.9 10.7 -2.6
v 0.9 10.8 -2.6
v 1 10.8 -2.5
v 1 10.7 -2.5
v 1.1 10.7 -2.5
v 1.1 10.8 -2.5
v 1.1 10.8 -2.6
v 1.1 10.7 -2.6
v 1 10.7 -2.6
v 1 10.8 -2.6
v 1.1 10.8 -2.5
v 1.1 10.7 -2.5
v 1.2 10.7 -2.5
v 1.2 10.8 -2.5
v 1.2 10.8 -2.6
v 1.2 10.7 -2.6
v 1.1 10.7 -2.6
v 1.1 10.8 -2.6
v 1.2 10.8 -2.5
v 1.2 10.7 -2.5
v 1.3 10.7 -2.5
v 1.3 10.8 -2.5
v 1.3 10.8 -2.6
v 1.3 10.7 -2.6
v 1.2 10.7 -2.6
v 1.2 10.8 -2.6
v 1.3 10.7 -2.5
v 1.3 10.7 -2.6
v 1.4 10.7 -2.6
v 1.4 10.7 -2.5
v 1.3 10.8 -2.5
v 1.3 10.7 -2.5
v 1.4 10.7 -2.5
v 1.4 10.8 -2.5
v 1.4 10.8 -2.6
v 1.4 10.7 -2.6
v 1.3 10.7 -2.6
v 1.3 10.8 -2.6
v 1.4 10.7 -2.5
v 1.4 10.7 -2.6
v 1.5 10.7 -2.6
v 1.5 10.7 -2.5
v 1.4 10.8 -2.5
v 1.4 10.7 -2.5
v 1.5 10.7 -2.5
v 1.5 10.8 -2.5
v 1.5 10.8 -2.6
v 1.5 10.7 -2.6
v 1.4 10.7 -2.6
v 1.4 10.8 -2.6
v 1.5 10.7 -2.5
v 1.5 10.7 -2.6
v 1.6 10.7 -2.6
v 1.6 10.7 -2.5
v 1.5 10.8 -2.5
v 1.5 10.7 -2.5
v 1.6 10.7 -2.5
v 1.6 10.8 -2.5
v 1.6 10.8 -2.6
v 1.6 10.7 -2.6
v 1.5 10.7 -2.6
v 1.5 10.8 -2.6
v 1.6 10.7 -2.5
v 1.6 10.7 -2.6
v 1.7 10.7 -2.6
v 1.7 10.7 -2.5
v 1.6 10.8 -2.5
v 1.6 10.7 -2.5
v 1.7 10.7 -2.5
v 1.7 10.8 -2.5
v 1.7 10.8 -2.6
v 1.7 10.7 -2.6
v 1.6 10.7 -2.6
v 1.6 10.8 -2.6
v 1.7 10.7 -2.5
v 1.7 10.7 -2.6
v 1.8 10.7 -2.6
v 1.8 10.7 -2.5
v 1.7 10.8 -2.5
v 1.7 10.7 -2.5
v 1.8 10.7 -2.5
v 1.8 10.8 -2.5
v 1.8 10.8 -2.6
v 1.8 10.7 -2.6
v 1.7 10.7 -2.6
v 1.7 10.8 -2.6
v 1.8 10.7 -2.5
v 1.8 10.7 -2.6
v 1.9 10.7 -2.6
v 1.9 10.7 -2.5
v 1.8 10.8 -2.5
v 1.8 10.7 -2.5
v 1.9 10.7 -2.5
v 1.9 10.8 -2.5
v 1.9 10.8 -2.6
v 1.9 10.7 -2.6
v 1.8 10.7 -2.6
v 1.8 10.8 -2.6
v 1.9 10.8 -2.5
v 1.9 10.7 -2.5
v 2 10.7 -2.5
v 2 10.8 -2.5
v 2 10.8 -2.6
v 2 10.7 -2.6
v 1.9 10.7 -2.6
v 1.9 10.8 -2.6
v 2 10.8 -2.5
v 2 10.7 -2.5
v 2.1 10.7 -2.5
v 2.1 10.8 -2.5
v 2.1 10.8 -2.6
v 2.1 10.7 -2.6
v 2 10.7 -2.6
v 2 10.8 -2.6
v 2.1 10.8 -2.5
v 2.1 10.7 -2.5
v 2.2 10.7 -2.5
v 2.2 10.8 -2.5
v 2.2 10.8 -2.6
v 2.2 10.7 -2.6
v 2.1 10.7 -2.6
v 2.1 10.8 -2.6
v 2.2 10.8 -2.5
v 2.2 10.7 -2.5
v 2.3 10.7 -2.5
v 2.3 10.8 -2.5
v 2.3 10.8 -2.6
v 2.3 10.7 -2.6
v 2.2 10.7 -2.6
v 2.2 10.8 -2.6
v 2.4 10.8 -2.5
v 2.4 10.7 -2.5
v 2.4 10.7 -2.6
v 2.4 10.8 -2.6
v 2.3 10.8 -2.6
v 2.3 10.8 -2.5
v 2.4 10.8 -2.5
v 2.4 10.8 -2.6
v 2.3 10.8 -2.5
v 2.3 10.7 -2.5
v 2.4 10.7 -2.5
v 2.4 10.8 -2.5
v 2.4 10.8 -2.6
v 2.4 10.7 -2.6
v 2.3 10.7 -2.6
v 2.3 10.8 -2.6
v 0.3 10.7 -2.6
v 0.3 10.6 -2.6
v 0.3 10.6 -2.5
v 0.3 10.7 -2.5
v 0.3 10.7 -2.5
v 0.3 10.6 -2.5
v 0.4 10.6 -2.5
v 0.4 10.7 -2.5
v 0.4 10.7 -2.6
v 0.4 10.6 -2.6
v 0.3 10.6 -2.6
v 0.3 10.7 -2.6
v 0.4 10.7 -2.5
v 0.4 10.6 -2.5
v 0.5 10.6 -2.5
v 0.5 10.7 -2.5
v 0.5 10.7 -2.6
v 0.5 10.6 -2.6
v 0.4 10.6 -2.6
v 0.4 10.7 -2.6
v 0.5 10.7 -2.5
v 0.5 10.6 -2.5
v 0.6 10.6 -2.5
v 0.6 10.7 -2.5
v 0.6 10.7 -2.6
v 0.6 10.6 -2.6
v 0.5 10.6 -2.6
v 0.5 10.7 -2.6
v 0.6 10.7 -2.5
v 0.6 10.6 -2.5
v 0.7 10.6 -2.5
v 0.7 10.7 -2.5
v 0.7 10.7 -2.6
v 0.7 10.6 -2.6
v 0.6 10.6 -2.6
v 0.6 10.7 -2.6
v 0.7 10.7 -2.5
v 0.7 10.6 -2.5
v 0.8 10.6 -2.5
v 0.8 10.7 -2.5
v 0.8 10.7 -2.6
v 0.8 10.6 -2.6
v 0.7 10.6 -2.6
v 0.7 10.7 -2.6
v 0.8 10.7 -2.5
v 0.8 10.6 -2.5
v 0.9 10.6 -2.5
v 0.9 10.7 -2.5
v 0.9 10.7 -2.6
v 0.9 10.6 -2.6
v 0.8 10.6 -2.6
v 0.8 10.7 -2.6
v 0.9 10.7 -2.5
v 0.9 10.6 -2.5
v 1 10.6 -2.5
v 1 10.7 -2.5
v 1 10.7 -2.6
v 1 10.6 -2.6
v 0.9 10.6 -2.6
v 0.9 10.7 -2.6
v 1 10.7 -2.5
v 1 10.6 -2.5
v 1.1 10.6 -2.5
v 1.1 10.7 -2.5
v 1.1 10.7 -2.6
v 1.1 10.6 -2.6
v 1 10.6 -2.6
v 1 10.7 -2.6
v 1.1 10.6 -2.5
v 1.1 10.6 -2.6
v 1.2 10.6 -2.6
v 1.2 10.6 -2.5
v 1.1 10.7 -2.5
v 1.1 10.6 -2.5
v 1.2 10.6 -2.5
v 1.2 10.7 -2.5
v 1.2 10.7 -2.6
v 1.2 10.6 -2.6
v 1.1 10.6 -2.6
v 1.1 10.7 -2.6
v 1.3 10.7 -2.5
v 1.3 10.6 -2.5
v 1.3 10.6 -2.6
v 1.3 10.7 -2.6
v 1.2 10.6 -2.5
v 1.2 10.6 -2.6
v 1.3 10.6 -2.6
v 1.3 10.6 -2.5
v 1.2 10.7 -2.5
v 1.2 10.6 -2.5
v 1.3 10.6 -2.5
v 1.3 10.7 -2.5
v 1.3 10.7 -2.6
v 1.3 10.6 -2.6
v 1.2 10.6 -2.6
v 1.2 10.7 -2.6
v 1.9 10.7 -2.6
v 1.9 10.6 -2.6
v 1.9 10.6 -2.5
v 1.9 10.7 -2.5
v 1.9 10.6 -2.5
v 1.9 10.6 -2.6
v 2 10.6 -2.6
v 2 10.6 -2.5
v 1.9 10.7 -2.5
v 1.9 10.6 -2.5
v 2 10.6 -2.5
v 2 10.7 -2.5
v 2 10.7 -2.6
v 2 10.6 -2.6
v 1.9 10.6 -2.6
v 1.9 10.7 -2.6
v 2 10.7 -2.5
v 2 10.6 -2.5
v 2.1 10.6 -2.5
v 2.1 10.7 -2.5
v 2.1 10.7 -2.6
v 2.1 10.6 -2.6
v 2 10.6 -2.6
v 2 10.7 -2.6
v 2.1 10.7 -2.5
v 2.1 10.6 -2.5
v 2.2 10.6 -2.5
v 2.2 10.7 -2.5
v 2.2 10.7 -2.6
v 2.2 10.6 -2.6
v 2.1 10.6 -2.6
v 2.1 10.7 -2.6
v 2.2 10.7 -2.5
v 2.2 10.6 -2.5
v 2.3 10.6 -2.5
v 2.3 10.7 -2.5
v 2.3 10.7 -2.6
v 2.3 10.6 -2.6
v 2.2 10.6 -2.6
v 2.2 10.7 -2.6
v 2.4 10.7 -2.5
v 2.4 10.6 -2.5
v 2.4 10.6 -2.6
v 2.4 10.7 -2.6
v 2.3 10.7 -2.5
v 2.3 10.6 -2.5
v 2.4 10.6 -2.5
v 2.4 10.7 -2.5
v 2.4 10.7 -2.6
v 2.4 10.6 -2.6
v 2.3 10.6 -2.6
v 2.3 10.7 -2.6
v 0.3 10.6 -2.6
v 0.3 10.5 -2.6
v 0.3 10.5 -2.5
v 0.3 10.6 -2.5
v 0.3 10.5 -2.5
v 0.3 10.5 -2.6
v 0.4 10.5 -2.6
v 0.4 10.5 -2.5
v 0.3 10.6 -2.5
v 0.3 10.5 -2.5
v 0.4 10.5 -2.5
v 0.4 10.6 -2.5
v 0.4 10.6 -2.6
v 0.4 10.5 -2.6
v 0.3 10.5 -2.6
v 0.3 10.6 -2.6
v 0.4 10.6 -2.5
v 0.4 10.5 -2.5
v 0.5 10.5 -2.5
v 0.5 10.6 -2.5
v 0.5 10.6 -2.6
v 0.5 10.5 -2.6
v 0.4 10.5 -2.6
v 0.4 10.6 -2.6
v 0.5 10.6 -2.5
v 0.5 10.5 -2.5
v 0.6 10.5 -2.5
v 0.6 10.6 -2.5
v 0.6 10.6 -2.6
v 0.6 10.5 -2.6
v 0.5 10.5 -2.6
v 0.5 10.6 -2.6
v 0.6 10.6 -2.5
v 0.6 10.5 -2.5
v 0.7 10.5 -2.5
v 0.7 10.6 -2.5
v 0.7 10.6 -2.6
v 0.7 10.5 -2.6
v 0.6 10.5 -2.6
v 0.6 10.6 -2.6
v 0.7 10.5 -2.5
v 0.7 10.5 -2.6
v 0.8 10.5 -2.6
v 0.8 10.5 -2.5
v 0.7 10.6 -2.5
v 0.7 10.5 -2.5
v 0.8 10.5 -2.5
v 0.8 10.6 -2.5
v 0.8 10.6 -2.6
v 0.8 10.5 -2.6
v 0.7 10.5 -2.6
v 0.7 10.6 -2.6
v 0.8 10.6 -2.5
v 0.8 10.5 -2.5
v 0.9 10.5 -2.5
v 0.9 10.6 -2.5
v 0.9 10.6 -2.6
v 0.9 10.5 -2.6
v 0.8 10.5 -2.6
v 0.8 10.6 -2.6
v 0.9 10.6 -2.5
v 0.9 10.5 -2.5
v 1 10.5 -2.5
v 1 10.6 -2.5
v 1 10.6 -2.6
v 1 10.5 -2.6
v 0.9 10.5 -2.6
v 0.9 10.6 -2.6
v 1.1 10.6 -2.5
v 1.1 10.5 -2.5
v 1.1 10.5 -2.6
v 1.1 10.6 -2.6
v 1 10.5 -2.5
v 1 10.5 -2.6
v 1.1 10.5 -2.6
v 1.1 10.5 -2.5
v 1 10.6 -2.5
v 1 10.5 -2.5
v 1.1 10.5 -2.5
v 1.1 10.6 -2.5
v 1.1 10.6 -2.6
v 1.1 10.5 -2.6
v 1 10.5 -2.6
v 1 10.6 -2.6
v 1.7 10.6 -2.6
v 1.7 10.5 -2.6
v 1.7 10.5 -2.5
v 1.7 10.6 -2.5
v 1.8 10.6 -2.5
v 1.8 10.5 -2.5
v 1.8 10.5 -2.6
v 1.8 10.6 -2.6
v 1.7 10.6 -2.6
v 1.7 10.6 -2.5
v 1.8 10.6 -2.5
v 1.8 10.6 -2.6
v 1.7 10.5 -2.5
v 1.7 10.5 -2.6
v 1.8 10.5 -2.6
v 1.8 10.5 -2.5
v 1.7 10.6 -2.5
v 1.7 10.5 -2.5
v 1.8 10.5 -2.5
v 1.8 10.6 -2.5
v 1.8 10.6 -2.6
v 1.8 10.5 -2.6
v 1.7 10.5 -2.6
v 1.7 10.6 -2.6
v 2 10.6 -2.6
v 2 10.5 -2.6
v 2 10.5 -2.5
v 2 10.6 -2.5
v 2 10.5 -2.5
v 2 10.5 -2.6
v 2.1 10.5 -2.6
v 2.1 10.5 -2.5
v 2 10.6 -2.5
v 2 10.5 -2.5
v 2.1 10.5 -2.5
v 2.1 10.6 -2.5
v 2.1 10.6 -2.6
v 2.1 10.5 -2.6
v 2 10.5 -2.6
v 2 10.6 -2.6
v 2.1 10.6 -2.5
v 2.1 10.5 -2.5
v 2.2 10.5 -2.5
v 2.2 10.6 -2.5
v 2.2 10.6 -2.6
v 2.2 10.5 -2.6
v 2.1 10.5 -2.6
v 2.1 10.6 -2.6
v 2.2 10.6 -2.5
v 2.2 10.5 -2.5
v 2.3 10.5 -2.5
v 2.3 10.6 -2.5
v 2.3 10.6 -2.6
v 2.3 10.5 -2.6
v 2.2 10.5 -2.6
v 2.2 10.6 -2.6
v 2.3 10.6 -2.5
v 2.3 10.5 -2.5
v 2.4 10.5 -2.5
v 2.4 10.6 -2.5
v 2.4 10.6 -2.6
v 2.4 10.5 -2.6
v 2.3 10.5 -2.6
v 2.3 10.6 -2.6
v 2.5 10.6 -2.5
v 2.5 10.5 -2.5
v 2.5 10.5 -2.6
v 2.5 10.6 -2.6
v 2.4 10.6 -2.6
v 2.4 10.6 -2.5
v 2.5 10.6 -2.5
v 2.5 10.6 -2.6
v 2.4 10.6 -2.5
v 2.4 10.5 -2.5
v 2.5 10.5 -2.5
v 2.5 10.6 -2.5
v 2.5 10.6 -2.6
v 2.5 10.5 -2.6
v 2.4 10.5 -2.6
v 2.4 10.6 -2.6
v 0.4 10.5 -2.6
v 0.4 10.4 -2.6
v 0.4 10.4 -2.5
v 0.4 10.5 -2.5
v 0.4 10.5 -2.5
v 0.4 10.4 -2.5
v 0.5 10.4 -2.5
v 0.5 10.5 -2.5
v 0.5 10.5 -2.6
v 0.5 10.4 -2.6
v 0.4 10.4 -2.6
v 0.4 10.5 -2.6
v 0.5 10.5 -2.5
v 0.5 10.4 -2.5
v 0.6 10.4 -2.5
v 0.6 10.5 -2.5
v 0.6 10.5 -2.6
v 0.6 10.4 -2.6
v 0.5 10.4 -2.6
v 0.5 10.5 -2.6
v 0.7 10.5 -2.5
v 0.7 10.4 -2.5
v 0.7 10.4 -2.6
v 0.7 10.5 -2.6
v 0.6 10.4 -2.5
v 0.6 10.4 -2.6
v 0.7 10.4 -2.6
v 0.7 10.4 -2.5
v 0.6 10.5 -2.5
v 0.6 10.4 -2.5
v 0.7 10.4 -2.5
v 0.7 10.5 -2.5
v 0.7 10.5 -2.6
v 0.7 10.4 -2.6
v 0.6 10.4 -2.6
v 0.6 10.5 -2.6
v 0.8 10.5 -2.6
v 0.8 10.4 -2.6
v 0.8 10.4 -2.5
v 0.8 10.5 -2.5
v 0.8 10.5 -2.5
v 0.8 10.4 -2.5
v 0.9 10.4 -2.5
v 0.9 10.5 -2.5
v 0.9 10.5 -2.6
v 0.9 10.4 -2.6
v 0.8 10.4 -2.6
v 0.8 10.5 -2.6
v 1 10.5 -2.5
v 1 10.4 -2.5
v 1 10.4 -2.6
v 1 10.5 -2.6
v 0.9 10.5 -2.5
v 0.9 10.4 -2.5
v 1 10.4 -2.5
v 1 10.5 -2.5
v 1 10.5 -2.6
v 1 10.4 -2.6
v 0.9 10.4 -2.6
v 0.9 10.5 -2.6
v 2.1 10.5 -2.6
v 2.1 10.4 -2.6
v 2.1 10.4 -2.5
v 2.1 10.5 -2.5
v 2.1 10.5 -2.5
v 2.1 10.4 -2.5
v 2.2 10.4 -2.5
v 2.2 10.5 -2.5
v 2.2 10.5 -2.6
v 2.2 10.4 -2.6
v 2.1 10.4 -2.6
v 2.1 10.5 -2.6
v 2.2 10.5 -2.5
v 2.2 10.4 -2.5
v 2.3 10.4 -2.5
v 2.3 10.5 -2.5
v 2.3 10.5 -2.6
v 2.3 10.4 -2.6
v 2.2 10.4 -2.6
v 2.2 10.5 -2.6
v 2.3 10.5 -2.5
v 2.3 10.4 -2.5
v 2.4 10.4 -2.5
v 2.4 10.5 -2.5
v 2.4 10.5 -2.6
v 2.4 10.4 -2.6
v 2.3 10.4 -2.6
v 2.3 10.5 -2.6
v 2.4 10.5 -2.5
v 2.4 10.4 -2.5
v 2.5 10.4 -2.5
v 2.5 10.5 -2.5
v 2.5 10.5 -2.6
v 2.5 10.4 -2.6
v 2.4 10.4 -2.6
v 2.4 10.5 -2.6
v 2.6 10.5 -2.5
v 2.6 10.4 -2.5
v 2.6 10.4 -2.6
v 2.6 10.5 -2.6
v 2.5 10.5 -2.6
v 2.5 10.5 -2.5
v 2.6 10.5 -2.5
v 2.6 10.5 -2.6
v 2.5 10.5 -2.5
v 2.5 10.4 -2.5
v 2.6 10.4 -2.5
v 2.6 10.5 -2.5
v 2.6 10.5 -2.6
v 2.6 10.4 -2.6
v 2.5 10.4 -2.6
v 2.5 10.5 -2.6
v 0.4 10.4 -2.6
v 0.4 10.3 -2.6
v 0.4 10.3 -2.5
v 0.4 10.4 -2.5
v 0.4 10.3 -2.5
v 0.4 10.3 -2.6
v 0.5 10.3 -2.6
v 0.5 10.3 -2.5
v 0.4 10.4 -2.5
v 0.4 10.3 -2.5
v 0.5 10.3 -2.5
v 0.5 10.4 -2.5
v 0.5 10.4 -2.6
v 0.5 10.3 -2.6
v 0.4 10.3 -2.6
v 0.4 10.4 -2.6
v 0.6 10.4 -2.5
v 0.6 10.3 -2.5
v 0.6 10.3 -2.6
v 0.6 10.4 -2.6
v 0.5 10.4 -2.5
v 0.5 10.3 -2.5
v 0.6 10.3 -2.5
v 0.6 10.4 -2.5
v 0.6 10.4 -2.6
v 0.6 10.3 -2.6
v 0.5 10.3 -2.6
v 0.5 10.4 -2.6
v 0.7 10.4 -2.6
v 0.7 10.3 -2.6
v 0.7 10.3 -2.5
v 0.7 10.4 -2.5
v 0.7 10.4 -2.6
v 0.7 10.4 -2.5
v 0.8 10.4 -2.5
v 0.8 10.4 -2.6
v 0.7 10.4 -2.5
v 0.7 10.3 -2.5
v 0.8 10.3 -2.5
v 0.8 10.4 -2.5
v 0.8 10.4 -2.6
v 0.8 10.3 -2.6
v 0.7 10.3 -2.6
v 0.7 10.4 -2.6
v 0.8 10.4 -2.5
v 0.8 10.3 -2.5
v 0.9 10.3 -2.5
v 0.9 10.4 -2.5
v 0.9 10.4 -2.6
v 0.9 10.3 -2.6
v 0.8 10.3 -2.6
v 0.8 10.4 -2.6
v 0.9 10.4 -2.5
v 0.9 10.3 -2.5
v 1 10.3 -2.5
v 1 10.4 -2.5
v 1 10.4 -2.6
v 1 10.3 -2.6
v 0.9 10.3 -2.6
v 0.9 10.4 -2.6
v 1.1 10.4 -2.5
v 1.1 10.3 -2.5
v 1.1 10.3 -2.6
v 1.1 10.4 -2.6
v 1 10.4 -2.6
v 1 10.4 -2.5
v 1.1 10.4 -2.5
v 1.1 10.4 -2.6
v 1 10.4 -2.5
v 1 10.3 -2.5
v 1.1 10.3 -2.5
v 1.1 10.4 -2.5
v 1.1 10.4 -2.6
v 1.1 10.3 -2.6
v 1 10.3 -2.6
v 1 10.4 -2.6
v 2.1 10.4 -2.6
v 2.1 10.3 -2.6
v 2.1 10.3 -2.5
v 2.1 10.4 -2.5
v 2.1 10.3 -2.5
v 2.1 10.3 -2.6
v 2.2 10.3 -2.6
v 2.2 10.3 -2.5
v 2.1 10.4 -2.5
v 2.1 10.3 -2.5
v 2.2 10.3 -2.5
v 2.2 10.4 -2.5
v 2.2 10.4 -2.6
v 2.2 10.3 -2.6
v 2.1 10.3 -2.6
v 2.1 10.4 -2.6
v 2.2 10.4 -2.5
v 2.2 10.3 -2.5
v 2.3 10.3 -2.5
v 2.3 10.4 -2.5
v 2.3 10.4 -2.6
v 2.3 10.3 -2.6
v 2.2 10.3 -2.6
v 2.2 10.4 -2.6
v 2.3 10.4 -2.5
v 2.3 10.3 -2.5
v 2.4 10.3 -2.5
v 2.4 10.4 -2.5
v 2.4 10.4 -2.6
v 2.4 10.3 -2.6
v 2.3 10.3 -2.6
v 2.3 10.4 -2.6
v 2.4 10.4 -2.5
v 2.4 10.3 -2.5
v 2.5 10.3 -2.5
v 2.5 10.4 -2.5
v 2.5 10.4 -2.6
v 2.5 10.3 -2.6
v 2.4 10.3 -2.6
v 2.4 10.4 -2.6
v 2.5 10.4 -2.5
v 2.5 10.3 -2.5
v 2.6 10.3 -2.5
v 2.6 10.4 -2.5
v 2.6 10.4 -2.6
v 2.6 10.3 -2.6
v 2.5 10.3 -2.6
v 2.5 10.4 -2.6
v 2.7 10.4 -2.5
v 2.7 10.3 -2.5
v 2.7 10.3 -2.6
v 2.7 10.4 -2.6
v 2.6 10.4 -2.6
v 2.6 10.4 -2.5
v 2.7 10.4 -2.5
v 2.7 10.4 -2.6
v 2.6 10.4 -2.5
v 2.6 10.3 -2.5
v 2.7 10.3 -2.5
v 2.7 10.4 -2.5
v 2.7 10.4 -2.6
v 2.7 10.3 -2.6
v 2.6 10.3 -2.6
v 2.6 10.4 -2.6
v 0.5 10.3 -2.6
v 0.5 10.2 -2.6
v 0.5 10.2 -2.5
v 0.5 10.3 -2.5
v 0.6 10.3 -2.5
v 0.6 10.2 -2.5
v 0.6 10.2 -2.6
v 0.6 10.3 -2.6
v 0.5 10.3 -2.5
v 0.5 10.2 -2.5
v 0.6 10.2 -2.5
v 0.6 10.3 -2.5
v 0.6 10.3 -2.6
v 0.6 10.2 -2.6
v 0.5 10.2 -2.6
v 0.5 10.3 -2.6
v 0.7 10.3 -2.6
v 0.7 10.2 -2.6
v 0.7 10.2 -2.5
v 0.7 10.3 -2.5
v 0.7 10.3 -2.5
v 0.7 10.2 -2.5
v 0.8 10.2 -2.5
v 0.8 10.3 -2.5
v 0.8 10.3 -2.6
v 0.8 10.2 -2.6
v 0.7 10.2 -2.6
v 0.7 10.3 -2.6
v 0.8 10.3 -2.5
v 0.8 10.2 -2.5
v 0.9 10.2 -2.5
v 0.9 10.3 -2.5
v 0.9 10.3 -2.6
v 0.9 10.2 -2.6
v 0.8 10.2 -2.6
v 0.8 10.3 -2.6
v 0.9 10.3 -2.5
v 0.9 10.2 -2.5
v 1 10.2 -2.5
v 1 10.3 -2.5
v 1 10.3 -2.6
v 1 10.2 -2.6
v 0.9 10.2 -2.6
v 0.9 10.3 -2.6
v 1 10.2 -2.5
v 1 10.2 -2.6
v 1.1 10.2 -2.6
v 1.1 10.2 -2.5
v 1 10.3 -2.5
v 1 10.2 -2.5
v 1.1 10.2 -2.5
v 1.1 10.3 -2.5
v 1.1 10.3 -2.6
v 1.1 10.2 -2.6
v 1 10.2 -2.6
v 1 10.3 -2.6
v 1.2 10.3 -2.5
v 1.2 10.2 -2.5
v 1.2 10.2 -2.6
v 1.2 10.3 -2.6
v 1.1 10.3 -2.6
v 1.1 10.3 -2.5
v 1.2 10.3 -2.5
v 1.2 10.3 -2.6
v 1.1 10.3 -2.5
v 1.1 10.2 -2.5
v 1.2 10.2 -2.5
v 1.2 10.3 -2.5
v 1.2 10.3 -2.6
v 1.2 10.2 -2.6
v 1.1 10.2 -2.6
v 1.1 10.3 -2.6
v 1.7 10.3 -2.6
v 1.7 10.2 -2.6
v 1.7 10.2 -2.5
v 1.7 10.3 -2.5
v 1.8 10.3 -2.5
v 1.8 10.2 -2.5
v 1.8 10.2 -2.6
v 1.8 10.3 -2.6
v 1.7 10.3 -2.6
v 1.7 10.3 -2.5
v 1.8 10.3 -2.5
v 1.8 10.3 -2.6
v 1.7 10.2 -2.5
v 1.7 10.2 -2.6
v 1.8 10.2 -2.6
v 1.8 10.2 -2.5
v 1.7 10.3 -2.5
v 1.7 10.2 -2.5
v 1.8 10.2 -2.5
v 1.8 10.3 -2.5
v 1.8 10.3 -2.6
v 1.8 10.2 -2.6
v 1.7 10.2 -2.6
v 1.7 10.3 -2.6
v 2.2 10.3 -2.6
v 2.2 10.2 -2.6
v 2.2 10.2 -2.5
v 2.2 10.3 -2.5
v 2.2 10.3 -2.5
v 2.2 10.2 -2.5
v 2.3 10.2 -2.5
v 2.3 10.3 -2.5
v 2.3 10.3 -2.6
v 2.3 10.2 -2.6
v 2.2 10.2 -2.6
v 2.2 10.3 -2.6
v 2.3 10.3 -2.5
v 2.3 10.2 -2.5
v 2.4 10.2 -2.5
v 2.4 10.3 -2.5
v 2.4 10.3 -2.6
v 2.4 10.2 -2.6
v 2.3 10.2 -2.6
v 2.3 10.3 -2.6
v 2.4 10.3 -2.5
v 2.4 10.2 -2.5
v 2.5 10.2 -2.5
v 2.5 10.3 -2.5
v 2.5 10.3 -2.6
v 2.5 10.2 -2.6
v 2.4 10.2 -2.6
v 2.4 10.3 -2.6
v 2.5 10.3 -2.5
v 2.5 10.2 -2.5
v 2.6 10.2 -2.5
v 2.6 10.3 -2.5
v 2.6 10.3 -2.6
v 2.6 10.2 -2.6
v 2.5 10.2 -2.6
v 2.5 10.3 -2.6
v 2.7 10.3 -2.5
v 2.7 10.2 -2.5
v 2.7 10.2 -2.6
v 2.7 10.3 -2.6
v 2.6 10.3 -2.5
v 2.6 10.2 -2.5
v 2.7 10.2 -2.5
v 2.7 10.3 -2.5
v 2.7 10.3 -2.6
v 2.7 10.2 -2.6
v 2.6 10.2 -2.6
v 2.6 10.3 -2.6
v 0.5 10.2 -2.6
v 0.5 10.1 -2.6
v 0.5 10.1 -2.5
v 0.5 10.2 -2.5
v 0.6 10.2 -2.5
v 0.6 10.1 -2.5
v 0.6 10.1 -2.6
v 0.6 10.2 -2.6
v 0.5 10.1 -2.5
v 0.5 10.1 -2.6
v 0.6 10.1 -2.6
v 0.6 10.1 -2.5
v 0.5 10.2 -2.5
v 0.5 10.1 -2.5
v 0.6 10.1 -2.5
v 0.6 10.2 -2.5
v 0.6 10.2 -2.6
v 0.6 10.1 -2.6
v 0.5 10.1 -2.6
v 0.5 10.2 -2.6
v 0.7 10.2 -2.6
v 0.7 10.1 -2.6
v 0.7 10.1 -2.5
v 0.7 10.2 -2.5
v 0.7 10.2 -2.5
v 0.7 10.1 -2.5
v 0.8 10.1 -2.5
v 0.8 10.2 -2.5
v 0.8 10.2 -2.6
v 0.8 10.1 -2.6
v 0.7 10.1 -2.6
v 0.7 10.2 -2.6
v 0.8 10.2 -2.5
v 0.8 10.1 -2.5
v 0.9 10.1 -2.5
v 0.9 10.2 -2.5
v 0.9 10.2 -2.6
v 0.9 10.1 -2.6
v 0.8 10.1 -2.6
v 0.8 10.2 -2.6
v 1 10.2 -2.5
v 1 10.1 -2.5
v 1 10.1 -2.6
v 1 10.2 -2.6
v 0.9 10.2 -2.5
v 0.9 10.1 -2.5
v 1 10.1 -2.5
v 1 10.2 -2.5
v 1 10.2 -2.6
v 1 10.1 -2.6
v 0.9 10.1 -2.6
v 0.9 10.2 -2.6
v 1.1 10.2 -2.6
v 1.1 10.1 -2.6
v 1.1 10.1 -2.5
v 1.1 10.2 -2.5
v 1.1 10.1 -2.5
v 1.1 10.1 -2.6
v 1.2 10.1 -2.6
v 1.2 10.1 -2.5
v 1.1 10.2 -2.5
v 1.1 10.1 -2.5
v 1.2 10.1 -2.5
v 1.2 10.2 -2.5
v 1.2 10.2 -2.6
v 1.2 10.1 -2.6
v 1.1 10.1 -2.6
v 1.1 10.2 -2.6
v 1.3 10.2 -2.5
v 1.3 10.1 -2.5
v 1.3 10.1 -2.6
v 1.3 10.2 -2.6
v 1.2 10.2 -2.6
v 1.2 10.2 -2.5
v 1.3 10.2 -2.5
v 1.3 10.2 -2.6
v 1.2 10.2 -2.5
v 1.2 10.1 -2.5
v 1.3 10.1 -2.5
v 1.3 10.2 -2.5
v 1.3 10.2 -2.6
v 1.3 10.1 -2.6
v 1.2 10.1 -2.6
v 1.2 10.2 -2.6
v 2.2 10.2 -2.6
v 2.2 10.1 -2.6
v 2.2 10.1 -2.5
v 2.2 10.2 -2.5
v 2.2 10.1 -2.5
v 2.2 10.1 -2.6
v 2.3 10.1 -2.6
v 2.3 10.1 -2.5
v 2.2 10.2 -2.5
v 2.2 10.1 -2.5
v 2.3 10.1 -2.5
v 2.3 10.2 -2.5
v 2.3 10.2 -2.6
v 2.3 10.1 -2.6
v 2.2 10.1 -2.6
v 2.2 10.2 -2.6
v 2.3 10.2 -2.5
v 2.3 10.1 -2.5
v 2.4 10.1 -2.5
v 2.4 10.2 -2.5
v 2.4 10.2 -2.6
v 2.4 10.1 -2.6
v 2.3 10.1 -2.6
v 2.3 10.2 -2.6
v 2.4 10.2 -2.5
v 2.4 10.1 -2.5
v 2.5 10.1 -2.5
v 2.5 10.2 -2.5
v 2.5 10.2 -2.6
v 2.5 10.1 -2.6
v 2.4 10.1 -2.6
v 2.4 10.2 -2.6
v 2.5 10.2 -2.5
v 2.5 10.1 -2.5
v 2.6 10.1 -2.5
v 2.6 10.2 -2.5
v 2.6 10.2 -2.6
v 2.6 10.1 -2.6
v 2.5 10.1 -2.6
v 2.5 10.2 -2.6
v 2.7 10.2 -2.5
v 2.7 10.1 -2.5
v 2.7 10.1 -2.6
v 2.7 10.2 -2.6
v 2.6 10.2 -2.5
v 2.6 10.1 -2.5
v 2.7 10.1 -2.5
v 2.7 10.2 -2.5
v 2.7 10.2 -2.6
v 2.7 10.1 -2.6
v 2.6 10.1 -2.6
v 2.6 10.2 -2.6
v 0.6 10.1 -2.6
v 0.6 10 -2.6
v 0.6 10 -2.5
v 0.6 10.1 -2.5
v 0.6 10.1 -2.6
v 0.6 10.1 -2.5
v 0.7 10.1 -2.5
v 0.7 10.1 -2.6
v 0.6 10 -2.5
v 0.6 10 -2.6
v 0.7 10 -2.6
v 0.7 10 -2.5
v 0.6 10.1 -2.5
v 0.6 10 -2.5
v 0.7 10 -2.5
v 0.7 10.1 -2.5
v 0.7 10.1 -2.6
v 0.7 10 -2.6
v 0.6 10 -2.6
v 0.6 10.1 -2.6
v 0.7 10.1 -2.5
v 0.7 10 -2.5
v 0.8 10 -2.5
v 0.8 10.1 -2.5
v 0.8 10.1 -2.6
v 0.8 10 -2.6
v 0.7 10 -2.6
v 0.7 10.1 -2.6
v 0.8 10.1 -2.5
v 0.8 10 -2.5
v 0.9 10 -2.5
v 0.9 10.1 -2.5
v 0.9 10.1 -2.6
v 0.9 10 -2.6
v 0.8 10 -2.6
v 0.8 10.1 -2.6
v 1 10.1 -2.5
v 1 10 -2.5
v 1 10 -2.6
v 1 10.1 -2.6
v 0.9 10.1 -2.5
v 0.9 10 -2.5
v 1 10 -2.5
v 1 10.1 -2.5
v 1 10.1 -2.6
v 1 10 -2.6
v 0.9 10 -2.6
v 0.9 10.1 -2.6
v 1.2 10.1 -2.6
v 1.2 10 -2.6
v 1.2 10 -2.5
v 1.2 10.1 -2.5
v 1.3 10.1 -2.5
v 1.3 10 -2.5
v 1.3 10 -2.6
v 1.3 10.1 -2.6
v 1.2 10.1 -2.5
v 1.2 10 -2.5
v 1.3 10 -2.5
v 1.3 10.1 -2.5
v 1.3 10.1 -2.6
v 1.3 10 -2.6
v 1.2 10 -2.6
v 1.2 10.1 -2.6
v 1.7 10.1 -2.6
v 1.7 10 -2.6
v 1.7 10 -2.5
v 1.7 10.1 -2.5
v 1.8 10.1 -2.5
v 1.8 10 -2.5
v 1.8 10 -2.6
v 1.8 10.1 -2.6
v 1.7 10.1 -2.6
v 1.7 10.1 -2.5
v 1.8 10.1 -2.5
v 1.8 10.1 -2.6
v 1.7 10.1 -2.5
v 1.7 10 -2.5
v 1.8 10 -2.5
v 1.8 10.1 -2.5
v 1.8 10.1 -2.6
v 1.8 10 -2.6
v 1.7 10 -2.6
v 1.7 10.1 -2.6
v 2.3 10.1 -2.6
v 2.3 10 -2.6
v 2.3 10 -2.5
v 2.3 10.1 -2.5
v 2.3 10.1 -2.5
v 2.3 10 -2.5
v 2.4 10 -2.5
v 2.4 10.1 -2.5
v 2.4 10.1 -2.6
v 2.4 10 -2.6
v 2.3 10 -2.6
v 2.3 10.1 -2.6
v 2.4 10.1 -2.5
v 2.4 10 -2.5
v 2.5 10 -2.5
v 2.5 10.1 -2.5
v 2.5 10.1 -2.6
v 2.5 10 -2.6
v 2.4 10 -2.6
v 2.4 10.1 -2.6
v 2.5 10.1 -2.5
v 2.5 10 -2.5
v 2.6 10 -2.5
v 2.6 10.1 -2.5
v 2.6 10.1 -2.6
v 2.6 10 -2.6
v 2.5 10 -2.6
v 2.5 10.1 -2.6
v 2.7 10.1 -2.5
v 2.7 10 -2.5
v 2.7 10 -2.6
v 2.7 10.1 -2.6
v 2.6 10.1 -2.5
v 2.6 10 -2.5
v 2.7 10 -2.5
v 2.7 10.1 -2.5
v 2.7 10.1 -2.6
v 2.7 10 -2.6
v 2.6 10 -2.6
v 2.6 10.1 -2.6
v 0.7 10 -2.6
v 0.7 9.9 -2.6
v 0.7 9.9 -2.5
v 0.7 10 -2.5
v 0.7 9.9 -2.5
v 0.7 9.9 -2.6
v 0.8 9.9 -2.6
v 0.8 9.9 -2.5
v 0.7 10 -2.5
v 0.7 9.9 -2.5
v 0.8 9.9 -2.5
v 0.8 10 -2.5
v 0.8 10 -2.6
v 0.8 9.9 -2.6
v 0.7 9.9 -2.6
v 0.7 10 -2.6
v 0.8 10 -2.5
v 0.8 9.9 -2.5
v 0.9 9.9 -2.5
v 0.9 10 -2.5
v 0.9 10 -2.6
v 0.9 9.9 -2.6
v 0.8 9.9 -2.6
v 0.8 10 -2.6
v 0.9 10 -2.5
v 0.9 9.9 -2.5
v 1 9.9 -2.5
v 1 10 -2.5
v 1 10 -2.6
v 1 9.9 -2.6
v 0.9 9.9 -2.6
v 0.9 10 -2.6
v 1.1 10 -2.5
v 1.1 9.9 -2.5
v 1.1 9.9 -2.6
v 1.1 10 -2.6
v 1 10 -2.6
v 1 10 -2.5
v 1.1 10 -2.5
v 1.1 10 -2.6
v 1 10 -2.5
v 1 9.9 -2.5
v 1.1 9.9 -2.5
v 1.1 10 -2.5
v 1.1 10 -2.6
v 1.1 9.9 -2.6
v 1 9.9 -2.6
v 1 10 -2.6
v 1.2 10 -2.6
v 1.2 9.9 -2.6
v 1.2 9.9 -2.5
v 1.2 10 -2.5
v 1.2 9.9 -2.5
v 1.2 9.9 -2.6
v 1.3 9.9 -2.6
v 1.3 9.9 -2.5
v 1.2 10 -2.5
v 1.2 9.9 -2.5
v 1.3 9.9 -2.5
v 1.3 10 -2.5
v 1.3 10 -2.6
v 1.3 9.9 -2.6
v 1.2 9.9 -2.6
v 1.2 10 -2.6
v 1.4 10 -2.5
v 1.4 9.9 -2.5
v 1.4 9.9 -2.6
v 1.4 10 -2.6
v 1.3 10 -2.6
v 1.3 10 -2.5
v 1.4 10 -2.5
v 1.4 10 -2.6
v 1.3 10 -2.5
v 1.3 9.9 -2.5
v 1.4 9.9 -2.5
v 1.4 10 -2.5
v 1.4 10 -2.6
v 1.4 9.9 -2.6
v 1.3 9.9 -2.6
v 1.3 10 -2.6
v 1.7 10 -2.6
v 1.7 9.9 -2.6
v 1.7 9.9 -2.5
v 1.7 10 -2.5
v 1.7 9.9 -2.5
v 1.7 9.9 -2.6
v 1.8 9.9 -2.6
v 1.8 9.9 -2.5
v 1.7 10 -2.5
v 1.7 9.9 -2.5
v 1.8 9.9 -2.5
v 1.8 10 -2.5
v 1.8 10 -2.6
v 1.8 9.9 -2.6
v 1.7 9.9 -2.6
v 1.7 10 -2.6
v 1.9 10 -2.5
v 1.9 9.9 -2.5
v 1.9 9.9 -2.6
v 1.9 10 -2.6
v 1.8 10 -2.6
v 1.8 10 -2.5
v 1.9 10 -2.5
v 1.9 10 -2.6
v 1.8 10 -2.5
v 1.8 9.9 -2.5
v 1.9 9.9 -2.5
v 1.9 10 -2.5
v 1.9 10 -2.6
v 1.9 9.9 -2.6
v 1.8 9.9 -2.6
v 1.8 10 -2.6
v 2.3 10 -2.6
v 2.3 9.9 -2.6
v 2.3 9.9 -2.5
v 2.3 10 -2.5
v 2.3 10 -2.5
v 2.3 9.9 -2.5
v 2.4 9.9 -2.5
v 2.4 10 -2.5
v 2.4 10 -2.6
v 2.4 9.9 -2.6
v 2.3 9.9 -2.6
v 2.3 10 -2.6
v 2.4 10 -2.5
v 2.4 9.9 -2.5
v 2.5 9.9 -2.5
v 2.5 10 -2.5
v 2.5 10 -2.6
v 2.5 9.9 -2.6
v 2.4 9.9 -2.6
v 2.4 10 -2.6
v 2.5 10 -2.5
v 2.5 9.9 -2.5
v 2.6 9.9 -2.5
v 2.6 10 -2.5
v 2.6 10 -2.6
v 2.6 9.9 -2.6
v 2.5 9.9 -2.6
v 2.5 10 -2.6
v 2.7 10 -2.5
v 2.7 9.9 -2.5
v 2.7 9.9 -2.6
v 2.7 10 -2.6
v 2.6 10 -2.5
v 2.6 9.9 -2.5
v 2.7 9.9 -2.5
v 2.7 10 -2.5
v 2.7 10 -2.6
v 2.7 9.9 -2.6
v 2.6 9.9 -2.6
v 2.6 10 -2.6
v 0.8 9.9 -2.6
v 0.8 9.8 -2.6
v 0.8 9.8 -2.5
v 0.8 9.9 -2.5
v 0.8 9.8 -2.5
v 0.8 9.8 -2.6
v 0.9 9.8 -2.6
v 0.9 9.8 -2.5
v 0.8 9.9 -2.5
v 0.8 9.8 -2.5
v 0.9 9.8 -2.5
v 0.9 9.9 -2.5
v 0.9 9.9 -2.6
v 0.9 9.8 -2.6
v 0.8 9.8 -2.6
v 0.8 9.9 -2.6
v 0.9 9.8 -2.5
v 0.9 9.8 -2.6
v 1 9.8 -2.6
v 1 9.8 -2.5
v 0.9 9.9 -2.5
v 0.9 9.8 -2.5
v 1 9.8 -2.5
v 1 9.9 -2.5
v 1 9.9 -2.6
v 1 9.8 -2.6
v 0.9 9.8 -2.6
v 0.9 9.9 -2.6
v 1 9.9 -2.5
v 1 9.8 -2.5
v 1.1 9.8 -2.5
v 1.1 9.9 -2.5
v 1.1 9.9 -2.6
v 1.1 9.8 -2.6
v 1 9.8 -2.6
v 1 9.9 -2.6
v 1.2 9.9 -2.5
v 1.2 9.8 -2.5
v 1.2 9.8 -2.6
v 1.2 9.9 -2.6
v 1.1 9.9 -2.6
v 1.1 9.9 -2.5
v 1.2 9.9 -2.5
v 1.2 9.9 -2.6
v 1.1 9.9 -2.5
v 1.1 9.8 -2.5
v 1.2 9.8 -2.5
v 1.2 9.9 -2.5
v 1.2 9.9 -2.6
v 1.2 9.8 -2.6
v 1.1 9.8 -2.6
v 1.1 9.9 -2.6
v 1.3 9.9 -2.6
v 1.3 9.8 -2.6
v 1.3 9.8 -2.5
v 1.3 9.9 -2.5
v 1.4 9.9 -2.5
v 1.4 9.8 -2.5
v 1.4 9.8 -2.6
v 1.4 9.9 -2.6
v 1.3 9.8 -2.5
v 1.3 9.8 -2.6
v 1.4 9.8 -2.6
v 1.4 9.8 -2.5
v 1.3 9.9 -2.5
v 1.3 9.8 -2.5
v 1.4 9.8 -2.5
v 1.4 9.9 -2.5
v 1.4 9.9 -2.6
v 1.4 9.8 -2.6
v 1.3 9.8 -2.6
v 1.3 9.9 -2.6
v 1.8 9.9 -2.6
v 1.8 9.8 -2.6
v 1.8 9.8 -2.5
v 1.8 9.9 -2.5
v 1.8 9.8 -2.5
v 1.8 9.8 -2.6
v 1.9 9.8 -2.6
v 1.9 9.8 -2.5
v 1.8 9.9 -2.5
v 1.8 9.8 -2.5
v 1.9 9.8 -2.5
v 1.9 9.9 -2.5
v 1.9 9.9 -2.6
v 1.9 9.8 -2.6
v 1.8 9.8 -2.6
v 1.8 9.9 -2.6
v 2 9.9 -2.5
v 2 9.8 -2.5
v 2 9.8 -2.6
v 2 9.9 -2.6
v 1.9 9.9 -2.6
v 1.9 9.9 -2.5
v 2 9.9 -2.5
v 2 9.9 -2.6
v 1.9 9.9 -2.5
v 1.9 9.8 -2.5
v 2 9.8 -2.5
v 2 9.9 -2.5
v 2 9.9 -2.6
v 2 9.8 -2.6
v 1.9 9.8 -2.6
v 1.9 9.9 -2.6
v 2.2 9.9 -2.6
v 2.2 9.8 -2.6
v 2.2 9.8 -2.5
v 2.2 9.9 -2.5
v 2.2 9.9 -2.6
v 2.2 9.9 -2.5
v 2.3 9.9 -2.5
v 2.3 9.9 -2.6
v 2.2 9.9 -2.5
v 2.2 9.8 -2.5
v 2.3 9.8 -2.5
v 2.3 9.9 -2.5
v 2.3 9.9 -2.6
v 2.3 9.8 -2.6
v 2.2 9.8 -2.6
v 2.2 9.9 -2.6
v 2.3 9.9 -2.5
v 2.3 9.8 -2.5
v 2.4 9.8 -2.5
v 2.4 9.9 -2.5
v 2.4 9.9 -2.6
v 2.4 9.8 -2.6
v 2.3 9.8 -2.6
v 2.3 9.9 -2.6
v 2.4 9.9 -2.5
v 2.4 9.8 -2.5
v 2.5 9.8 -2.5
v 2.5 9.9 -2.5
v 2.5 9.9 -2.6
v 2.5 9.8 -2.6
v 2.4 9.8 -2.6
v 2.4 9.9 -2.6
v 2.5 9.9 -2.5
v 2.5 9.8 -2.5
v 2.6 9.8 -2.5
v 2.6 9.9 -2.5
v 2.6 9.9 -2.6
v 2.6 9.8 -2.6
v 2.5 9.8 -2.6
v 2.5 9.9 -2.6
v 2.7 9.9 -2.5
v 2.7 9.8 -2.5
v 2.7 9.8 -2.6
v 2.7 9.9 -2.6
v 2.6 9.9 -2.5
v 2.6 9.8 -2.5
v 2.7 9.8 -2.5
v 2.7 9.9 -2.5
v 2.7 9.9 -2.6
v 2.7 9.8 -2.6
v 2.6 9.8 -2.6
v 2.6 9.9 -2.6
v 1 9.8 -2.6
v 1 9.7 -2.6
v 1 9.7 -2.5
v 1 9.8 -2.5
v 1 9.7 -2.5
v 1 9.7 -2.6
v 1.1 9.7 -2.6
v 1.1 9.7 -2.5
v 1 9.8 -2.5
v 1 9.7 -2.5
v 1.1 9.7 -2.5
v 1.1 9.8 -2.5
v 1.1 9.8 -2.6
v 1.1 9.7 -2.6
v 1 9.7 -2.6
v 1 9.8 -2.6
v 1.2 9.8 -2.5
v 1.2 9.7 -2.5
v 1.2 9.7 -2.6
v 1.2 9.8 -2.6
v 1.1 9.7 -2.5
v 1.1 9.7 -2.6
v 1.2 9.7 -2.6
v 1.2 9.7 -2.5
v 1.1 9.8 -2.5
v 1.1 9.7 -2.5
v 1.2 9.7 -2.5
v 1.2 9.8 -2.5
v 1.2 9.8 -2.6
v 1.2 9.7 -2.6
v 1.1 9.7 -2.6
v 1.1 9.8 -2.6
v 1.4 9.8 -2.6
v 1.4 9.7 -2.6
v 1.4 9.7 -2.5
v 1.4 9.8 -2.5
v 1.5 9.8 -2.5
v 1.5 9.7 -2.5
v 1.5 9.7 -2.6
v 1.5 9.8 -2.6
v 1.4 9.8 -2.6
v 1.4 9.8 -2.5
v 1.5 9.8 -2.5
v 1.5 9.8 -2.6
v 1.4 9.7 -2.5
v 1.4 9.7 -2.6
v 1.5 9.7 -2.6
v 1.5 9.7 -2.5
v 1.4 9.8 -2.5
v 1.4 9.7 -2.5
v 1.5 9.7 -2.5
v 1.5 9.8 -2.5
v 1.5 9.8 -2.6
v 1.5 9.7 -2.6
v 1.4 9.7 -2.6
v 1.4 9.8 -2.6
v 1.9 9.8 -2.6
v 1.9 9.7 -2.6
v 1.9 9.7 -2.5
v 1.9 9.8 -2.5
v 1.9 9.7 -2.5
v 1.9 9.7 -2.6
v 2 9.7 -2.6
v 2 9.7 -2.5
v 1.9 9.8 -2.5
v 1.9 9.7 -2.5
v 2 9.7 -2.5
v 2 9.8 -2.5
v 2 9.8 -2.6
v 2 9.7 -2.6
v 1.9 9.7 -2.6
v 1.9 9.8 -2.6
v 2.1 9.8 -2.5
v 2.1 9.7 -2.5
v 2.1 9.7 -2.6
v 2.1 9.8 -2.6
v 2 9.8 -2.6
v 2 9.8 -2.5
v 2.1 9.8 -2.5
v 2.1 9.8 -2.6
v 2 9.8 -2.5
v 2 9.7 -2.5
v 2.1 9.7 -2.5
v 2.1 9.8 -2.5
v 2.1 9.8 -2.6
v 2.1 9.7 -2.6
v 2 9.7 -2.6
v 2 9.8 -2.6
v 2.2 9.8 -2.6
v 2.2 9.7 -2.6
v 2.2 9.7 -2.5
v 2.2 9.8 -2.5
v 2.2 9.8 -2.5
v 2.2 9.7 -2.5
v 2.3 9.7 -2.5
v 2.3 9.8 -2.5
v 2.3 9.8 -2.6
v 2.3 9.7 -2.6
v 2.2 9.7 -2.6
v 2.2 9.8 -2.6
v 2.3 9.8 -2.5
v 2.3 9.7 -2.5
v 2.4 9.7 -2.5
v 2.4 9.8 -2.5
v 2.4 9.8 -2.6
v 2.4 9.7 -2.6
v 2.3 9.7 -2.6
v 2.3 9.8 -2.6
v 2.4 9.8 -2.5
v 2.4 9.7 -2.5
v 2.5 9.7 -2.5
v 2.5 9.8 -2.5
v 2.5 9.8 -2.6
v 2.5 9.7 -2.6
v 2.4 9.7 -2.6
v 2.4 9.8 -2.6
v 2.5 9.8 -2.5
v 2.5 9.7 -2.5
v 2.6 9.7 -2.5
v 2.6 9.8 -2.5
v 2.6 9.8 -2.6
v 2.6 9.7 -2.6
v 2.5 9.7 -2.6
v 2.5 9.8 -2.6
v 2.7 9.8 -2.5
v 2.7 9.7 -2.5
v 2.7 9.7 -2.6
v 2.7 9.8 -2.6
v 2.6 9.8 -2.5
v 2.6 9.7 -2.5
v 2.7 9.7 -2.5
v 2.7 9.8 -2.5
v 2.7 9.8 -2.6
v 2.7 9.7 -2.6
v 2.6 9.7 -2.6
v 2.6 9.8 -2.6
v 1.5 9.7 -2.6
v 1.5 9.6 -2.6
v 1.5 9.6 -2.5
v 1.5 9.7 -2.5
v 1.6 9.7 -2.5
v 1.6 9.6 -2.5
v 1.6 9.6 -2.6
v 1.6 9.7 -2.6
v 1.5 9.7 -2.6
v 1.5 9.7 -2.5
v 1.6 9.7 -2.5
v 1.6 9.7 -2.6
v 1.5 9.6 -2.5
v 1.5 9.6 -2.6
v 1.6 9.6 -2.6
v 1.6 9.6 -2.5
v 1.5 9.7 -2.5
v 1.5 9.6 -2.5
v 1.6 9.6 -2.5
v 1.6 9.7 -2.5
v 1.6 9.7 -2.6
v 1.6 9.6 -2.6
v 1.5 9.6 -2.6
v 1.5 9.7 -2.6
v 2 9.7 -2.6
v 2 9.6 -2.6
v 2 9.6 -2.5
v 2 9.7 -2.5
v 2.1 9.7 -2.5
v 2.1 9.6 -2.5
v 2.1 9.6 -2.6
v 2.1 9.7 -2.6
v 2 9.7 -2.5
v 2 9.6 -2.5
v 2.1 9.6 -2.5
v 2.1 9.7 -2.5
v 2.1 9.7 -2.6
v 2.1 9.6 -2.6
v 2 9.6 -2.6
v 2 9.7 -2.6
v 2.2 9.7 -2.6
v 2.2 9.6 -2.6
v 2.2 9.6 -2.5
v 2.2 9.7 -2.5
v 2.2 9.7 -2.5
v 2.2 9.6 -2.5
v 2.3 9.6 -2.5
v 2.3 9.7 -2.5
v 2.3 9.7 -2.6
v 2.3 9.6 -2.6
v 2.2 9.6 -2.6
v 2.2 9.7 -2.6
v 2.3 9.7 -2.5
v 2.3 9.6 -2.5
v 2.4 9.6 -2.5
v 2.4 9.7 -2.5
v 2.4 9.7 -2.6
v 2.4 9.6 -2.6
v 2.3 9.6 -2.6
v 2.3 9.7 -2.6
v 2.4 9.7 -2.5
v 2.4 9.6 -2.5
v 2.5 9.6 -2.5
v 2.5 9.7 -2.5
v 2.5 9.7 -2.6
v 2.5 9.6 -2.6
v 2.4 9.6 -2.6
v 2.4 9.7 -2.6
v 2.5 9.7 -2.5
v 2.5 9.6 -2.5
v 2.6 9.6 -2.5
v 2.6 9.7 -2.5
v 2.6 9.7 -2.6
v 2.6 9.6 -2.6
v 2.5 9.6 -2.6
v 2.5 9.7 -2.6
v 2.7 9.7 -2.5
v 2.7 9.6 -2.5
v 2.7 9.6 -2.6
v 2.7 9.7 -2.6
v 2.6 9.6 -2.5
v 2.6 9.6 -2.6
v 2.7 9.6 -2.6
v 2.7 9.6 -2.5
v 2.6 9.7 -2.5
v 2.6 9.6 -2.5
v 2.7 9.6 -2.5
v 2.7 9.7 -2.5
v 2.7 9.7 -2.6
v 2.7 9.6 -2.6
v 2.6 9.6 -2.6
v 2.6 9.7 -2.6
v 2 9.6 -2.6
v 2 9.5 -2.6
v 2 9.5 -2.5
v 2 9.6 -2.5
v 2 9.5 -2.5
v 2 9.5 -2.6
v 2.1 9.5 -2.6
v 2.1 9.5 -2.5
v 2 9.6 -2.5
v 2 9.5 -2.5
v 2.1 9.5 -2.5
v 2.1 9.6 -2.5
v 2.1 9.6 -2.6
v 2.1 9.5 -2.6
v 2 9.5 -2.6
v 2 9.6 -2.6
v 2.1 9.6 -2.6
v 2.1 9.6 -2.5
v 2.2 9.6 -2.5
v 2.2 9.6 -2.6
v 2.1 9.6 -2.5
v 2.1 9.5 -2.5
v 2.2 9.5 -2.5
v 2.2 9.6 -2.5
v 2.2 9.6 -2.6
v 2.2 9.5 -2.6
v 2.1 9.5 -2.6
v 2.1 9.6 -2.6
v 2.2 9.6 -2.5
v 2.2 9.5 -2.5
v 2.3 9.5 -2.5
v 2.3 9.6 -2.5
v 2.3 9.6 -2.6
v 2.3 9.5 -2.6
v 2.2 9.5 -2.6
v 2.2 9.6 -2.6
v 2.3 9.6 -2.5
v 2.3 9.5 -2.5
v 2.4 9.5 -2.5
v 2.4 9.6 -2.5
v 2.4 9.6 -2.6
v 2.4 9.5 -2.6
v 2.3 9.5 -2.6
v 2.3 9.6 -2.6
v 2.4 9.6 -2.5
v 2.4 9.5 -2.5
v 2.5 9.5 -2.5
v 2.5 9.6 -2.5
v 2.5 9.6 -2.6
v 2.5 9.5 -2.6
v 2.4 9.5 -2.6
v 2.4 9.6 -2.6
v 2.6 9.6 -2.5
v 2.6 9.5 -2.5
v 2.6 9.5 -2.6
v 2.6 9.6 -2.6
v 2.5 9.6 -2.5
v 2.5 9.5 -2.5
v 2.6 9.5 -2.5
v 2.6 9.6 -2.5
v 2.6 9.6 -2.6
v 2.6 9.5 -2.6
v 2.5 9.5 -2.6
v 2.5 9.6 -2.6
v 2.1 9.5 -2.6
v 2.1 9.4 -2.6
v 2.1 9.4 -2.5
v 2.1 9.5 -2.5
v 2.1 9.5 -2.5
v 2.1 9.4 -2.5
v 2.2 9.4 -2.5
v 2.2 9.5 -2.5
v 2.2 9.5 -2.6
v 2.2 9.4 -2.6
v 2.1 9.4 -2.6
v 2.1 9.5 -2.6
v 2.2 9.4 -2.5
v 2.2 9.4 -2.6
v 2.3 9.4 -2.6
v 2.3 9.4 -2.5
v 2.2 9.5 -2.5
v 2.2 9.4 -2.5
v 2.3 9.4 -2.5
v 2.3 9.5 -2.5
v 2.3 9.5 -2.6
v 2.3 9.4 -2.6
v 2.2 9.4 -2.6
v 2.2 9.5 -2.6
v 2.3 9.5 -2.5
v 2.3 9.4 -2.5
v 2.4 9.4 -2.5
v 2.4 9.5 -2.5
v 2.4 9.5 -2.6
v 2.4 9.4 -2.6
v 2.3 9.4 -2.6
v 2.3 9.5 -2.6
v 2.4 9.5 -2.5
v 2.4 9.4 -2.5
v 2.5 9.4 -2.5
v 2.5 9.5 -2.5
v 2.5 9.5 -2.6
v 2.5 9.4 -2.6
v 2.4 9.4 -2.6
v 2.4 9.5 -2.6
v 2.6 9.5 -2.5
v 2.6 9.4 -2.5
v 2.6 9.4 -2.6
v 2.6 9.5 -2.6
v 2.5 9.4 -2.5
v 2.5 9.4 -2.6
v 2.6 9.4 -2.6
v 2.6 9.4 -2.5
v 2.5 9.5 -2.5
v 2.5 9.4 -2.5
v 2.6 9.4 -2.5
v 2.6 9.5 -2.5
v 2.6 9.5 -2.6
v 2.6 9.4 -2.6
v 2.5 9.4 -2.6
v 2.5 9.5 -2.6
v 2.1 9.4 -2.6
v 2.1 9.3 -2.6
v 2.1 9.3 -2.5
v 2.1 9.4 -2.5
v 2.2 9.4 -2.5
v 2.2 9.3 -2.5
v 2.2 9.3 -2.6
v 2.2 9.4 -2.6
v 2.1 9.4 -2.5
v 2.1 9.3 -2.5
v 2.2 9.3 -2.5
v 2.2 9.4 -2.5
v 2.2 9.4 -2.6
v 2.2 9.3 -2.6
v 2.1 9.3 -2.6
v 2.1 9.4 -2.6
v 2.3 9.4 -2.6
v 2.3 9.3 -2.6
v 2.3 9.3 -2.5
v 2.3 9.4 -2.5
v 2.3 9.4 -2.5
v 2.3 9.3 -2.5
v 2.4 9.3 -2.5
v 2.4 9.4 -2.5
v 2.4 9.4 -2.6
v 2.4 9.3 -2.6
v 2.3 9.3 -2.6
v 2.3 9.4 -2.6
v 2.5 9.4 -2.5
v 2.5 9.3 -2.5
v 2.5 9.3 -2.6
v 2.5 9.4 -2.6
v 2.4 9.3 -2.5
v 2.4 9.3 -2.6
v 2.5 9.3 -2.6
v 2.5 9.3 -2.5
v 2.4 9.4 -2.5
v 2.4 9.3 -2.5
v 2.5 9.3 -2.5
v 2.5 9.4 -2.5
v 2.5 9.4 -2.6
v 2.5 9.3 -2.6
v 2.4 9.3 -2.6
v 2.4 9.4 -2.6
v 2.1 9.3 -2.6
v 2.1 9.2 -2.6
v 2.1 9.2 -2.5
v 2.1 9.3 -2.5
v 2.1 9.2 -2.5
v 2.1 9.2 -2.6
v 2.2 9.2 -2.6
v 2.2 9.2 -2.5
v 2.1 9.3 -2.5
v 2.1 9.2 -2.5
v 2.2 9.2 -2.5
v 2.2 9.3 -2.5
v 2.2 9.3 -2.6
v 2.2 9.2 -2.6
v 2.1 9.2 -2.6
v 2.1 9.3 -2.6
v 2.2 9.3 -2.6
v 2.2 9.3 -2.5
v 2.3 9.3 -2.5
v 2.3 9.3 -2.6
v 2.2 9.3 -2.5
v 2.2 9.2 -2.5
v 2.3 9.2 -2.5
v 2.3 9.3 -2.5
v 2.3 9.3 -2.6
v 2.3 9.2 -2.6
v 2.2 9.2 -2.6
v 2.2 9.3 -2.6
v 2.4 9.3 -2.5
v 2.4 9.2 -2.5
v 2.4 9.2 -2.6
v 2.4 9.3 -2.6
v 2.3 9.3 -2.5
v 2.3 9.2 -2.5
v 2.4 9.2 -2.5
v 2.4 9.3 -2.5
v 2.4 9.3 -2.6
v 2.4 9.2 -2.6
v 2.3 9.2 -2.6
v 2.3 9.3 -2.6
v 2.7 9.3 -2.6
v 2.7 9.2 -2.6
v 2.7 9.2 -2.5
v 2.7 9.3 -2.5
v 2.7 9.3 -2.6
v 2.7 9.3 -2.5
v 2.8 9.3 -2.5
v 2.8 9.3 -2.6
v 2.7 9.2 -2.5
v 2.7 9.2 -2.6
v 2.8 9.2 -2.6
v 2.8 9.2 -2.5
v 2.7 9.3 -2.5
v 2.7 9.2 -2.5
v 2.8 9.2 -2.5
v 2.8 9.3 -2.5
v 2.8 9.3 -2.6
v 2.8 9.2 -2.6
v 2.7 9.2 -2.6
v 2.7 9.3 -2.6
v 2.8 9.3 -2.6
v 2.8 9.3 -2.5
v 2.9 9.3 -2.5
v 2.9 9.3 -2.6
v 2.8 9.2 -2.5
v 2.8 9.2 -2.6
v 2.9 9.2 -2.6
v 2.9 9.2 -2.5
v 2.8 9.3 -2.5
v 2.8 9.2 -2.5
v 2.9 9.2 -2.5
v 2.9 9.3 -2.5
v 2.9 9.3 -2.6
v 2.9 9.2 -2.6
v 2.8 9.2 -2.6
v 2.8 9.3 -2.6
v 3 9.3 -2.5
v 3 9.2 -2.5
v 3 9.2 -2.6
v 3 9.3 -2.6
v 2.9 9.3 -2.6
v 2.9 9.3 -2.5
v 3 9.3 -2.5
v 3 9.3 -2.6
v 2.9 9.3 -2.5
v 2.9 9.2 -2.5
v 3 9.2 -2.5
v 3 9.3 -2.5
v 3 9.3 -2.6
v 3 9.2 -2.6
v 2.9 9.2 -2.6
v 2.9 9.3 -2.6
v 2.2 9.2 -2.6
v 2.2 9.1 -2.6
v 2.2 9.1 -2.5
v 2.2 9.2 -2.5
v 2.2 9.1 -2.5
v 2.2 9.1 -2.6
v 2.3 9.1 -2.6
v 2.3 9.1 -2.5
v 2.2 9.2 -2.5
v 2.2 9.1 -2.5
v 2.3 9.1 -2.5
v 2.3 9.2 -2.5
v 2.3 9.2 -2.6
v 2.3 9.1 -2.6
v 2.2 9.1 -2.6
v 2.2 9.2 -2.6
v 2.4 9.2 -2.5
v 2.4 9.1 -2.5
v 2.4 9.1 -2.6
v 2.4 9.2 -2.6
v 2.3 9.2 -2.5
v 2.3 9.1 -2.5
v 2.4 9.1 -2.5
v 2.4 9.2 -2.5
v 2.4 9.2 -2.6
v 2.4 9.1 -2.6
v 2.3 9.1 -2.6
v 2.3 9.2 -2.6
v 2.9 9.2 -2.6
v 2.9 9.1 -2.6
v 2.9 9.1 -2.5
v 2.9 9.2 -2.5
v 2.9 9.1 -2.5
v 2.9 9.1 -2.6
v 3 9.1 -2.6
v 3 9.1 -2.5
v 2.9 9.2 -2.5
v 2.9 9.1 -2.5
v 3 9.1 -2.5
v 3 9.2 -2.5
v 3 9.2 -2.6
v 3 9.1 -2.6
v 2.9 9.1 -2.6
v 2.9 9.2 -2.6
v 3.1 9.2 -2.5
v 3.1 9.1 -2.5
v 3.1 9.1 -2.6
v 3.1 9.2 -2.6
v 3 9.2 -2.6
v 3 9.2 -2.5
v 3.1 9.2 -2.5
v 3.1 9.2 -2.6
v 3 9.2 -2.5
v 3 9.1 -2.5
v 3.1 9.1 -2.5
v 3.1 9.2 -2.5
v 3.1 9.2 -2.6
v 3.1 9.1 -2.6
v 3 9.1 -2.6
v 3 9.2 -2.6
v 2.3 9.1 -2.6
v 2.3 9 -2.6
v 2.3 9 -2.5
v 2.3 9.1 -2.5
v 2.3 9 -2.5
v 2.3 9 -2.6
v 2.4 9 -2.6
v 2.4 9 -2.5
v 2.3 9.1 -2.5
v 2.3 9 -2.5
v 2.4 9 -2.5
v 2.4 9.1 -2.5
v 2.4 9.1 -2.6
v 2.4 9 -2.6
v 2.3 9 -2.6
v 2.3 9.1 -2.6
v 2.4 9.1 -2.6
v 2.4 9.1 -2.5
v 2.5 9.1 -2.5
v 2.5 9.1 -2.6
v 2.4 9 -2.5
v 2.4 9 -2.6
v 2.5 9 -2.6
v 2.5 9 -2.5
v 2.4 9.1 -2.5
v 2.4 9 -2.5
v 2.5 9 -2.5
v 2.5 9.1 -2.5
v 2.5 9.1 -2.6
v 2.5 9 -2.6
v 2.4 9 -2.6
v 2.4 9.1 -2.6
v 2.6 9.1 -2.5
v 2.6 9 -2.5
v 2.6 9 -2.6
v 2.6 9.1 -2.6
v 2.5 9.1 -2.6
v 2.5 9.1 -2.5
v 2.6 9.1 -2.5
v 2.6 9.1 -2.6
v 2.5 9 -2.5
v 2.5 9 -2.6
v 2.6 9 -2.6
v 2.6 9 -2.5
v 2.5 9.1 -2.5
v 2.5 9 -2.5
v 2.6 9 -2.5
v 2.6 9.1 -2.5
v 2.6 9.1 -2.6
v 2.6 9 -2.6
v 2.5 9 -2.6
v 2.5 9.1 -2.6
v 3 9.1 -2.6
v 3 9 -2.6
v 3 9 -2.5
v 3 9.1 -2.5
v 3 9.1 -2.5
v 3 9 -2.5
v 3.1 9 -2.5
v 3.1 9.1 -2.5
v 3.1 9.1 -2.6
v 3.1 9 -2.6
v 3 9 -2.6
v 3 9.1 -2.6
v 3.2 9.1 -2.5
v 3.2 9 -2.5
v 3.2 9 -2.6
v 3.2 9.1 -2.6
v 3.1 9.1 -2.6
v 3.1 9.1 -2.5
v 3.2 9.1 -2.5
v 3.2 9.1 -2.6
v 3.1 9.1 -2.5
v 3.1 9 -2.5
v 3.2 9 -2.5
v 3.2 9.1 -2.5
v 3.2 9.1 -2.6
v 3.2 9 -2.6
v 3.1 9 -2.6
v 3.1 9.1 -2.6
v 3 9 -2.6
v 3 8.9 -2.6
v 3 8.9 -2.5
v 3 9 -2.5
v 3 9 -2.5
v 3 8.9 -2.5
v 3.1 8.9 -2.5
v 3.1 9 -2.5
v 3.1 9 -2.6
v 3.1 8.9 -2.6
v 3 8.9 -2.6
v 3 9 -2.6
v 3.2 9 -2.5
v 3.2 8.9 -2.5
v 3.2 8.9 -2.6
v 3.2 9 -2.6
v 3.1 9 -2.5
v 3.1 8.9 -2.5
v 3.2 8.9 -2.5
v 3.2 9 -2.5
v 3.2 9 -2.6
v 3.2 8.9 -2.6
v 3.1 8.9 -2.6
v 3.1 9 -2.6
v 3 8.9 -2.6
v 3 8.8 -2.6
v 3 8.8 -2.5
v 3 8.9 -2.5
v 3 8.9 -2.5
v 3 8.8 -2.5
v 3.1 8.8 -2.5
v 3.1 8.9 -2.5
v 3.1 8.9 -2.6
v 3.1 8.8 -2.6
v 3 8.8 -2.6
v 3 8.9 -2.6
v 3.2 8.9 -2.5
v 3.2 8.8 -2.5
v 3.2 8.8 -2.6
v 3.2 8.9 -2.6
v 3.1 8.9 -2.5
v 3.1 8.8 -2.5
v 3.2 8.8 -2.5
v 3.2 8.9 -2.5
v 3.2 8.9 -2.6
v 3.2 8.8 -2.6
v 3.1 8.8 -2.6
v 3.1 8.9 -2.6
v 2.9 8.8 -2.6
v 2.9 8.7 -2.6
v 2.9 8.7 -2.5
v 2.9 8.8 -2.5
v 2.9 8.8 -2.6
v 2.9 8.8 -2.5
v 3 8.8 -2.5
v 3 8.8 -2.6
v 2.9 8.8 -2.5
v 2.9 8.7 -2.5
v 3 8.7 -2.5
v 3 8.8 -2.5
v 3 8.8 -2.6
v 3 8.7 -2.6
v 2.9 8.7 -2.6
v 2.9 8.8 -2.6
v 3 8.8 -2.5
v 3 8.7 -2.5
v 3.1 8.7 -2.5
v 3.1 8.8 -2.5
v 3.1 8.8 -2.6
v 3.1 8.7 -2.6
v 3 8.7 -2.6
v 3 8.8 -2.6
v 3.2 8.8 -2.5
v 3.2 8.7 -2.5
v 3.2 8.7 -2.6
v 3.2 8.8 -2.6
v 3.1 8.7 -2.5
v 3.1 8.7 -2.6
v 3.2 8.7 -2.6
v 3.2 8.7 -2.5
v 3.1 8.8 -2.5
v 3.1 8.7 -2.5
v 3.2 8.7 -2.5
v 3.2 8.8 -2.5
v 3.2 8.8 -2.6
v 3.2 8.7 -2.6
v 3.1 8.7 -2.6
v 3.1 8.8 -2.6
v 2.9 8.7 -2.6
v 2.9 8.6 -2.6
v 2.9 8.6 -2.5
v 2.9 8.7 -2.5
v 2.9 8.7 -2.5
v 2.9 8.6 -2.5
v 3 8.6 -2.5
v 3 8.7 -2.5
v 3 8.7 -2.6
v 3 8.6 -2.6
v 2.9 8.6 -2.6
v 2.9 8.7 -2.6
v 3.1 8.7 -2.5
v 3.1 8.6 -2.5
v 3.1 8.6 -2.6
v 3.1 8.7 -2.6
v 3 8.6 -2.5
v 3 8.6 -2.6
v 3.1 8.6 -2.6
v 3.1 8.6 -2.5
v 3 8.7 -2.5
v 3 8.6 -2.5
v 3.1 8.6 -2.5
v 3.1 8.7 -2.5
v 3.1 8.7 -2.6
v 3.1 8.6 -2.6
v 3 8.6 -2.6
v 3 8.7 -2.6
v 2.9 8.6 -2.6
v 2.9 8.5 -2.6
v 2.9 8.5 -2.5
v 2.9 8.6 -2.5
v 3 8.6 -2.5
v 3 8.5 -2.5
v 3 8.5 -2.6
v 3 8.6 -2.6
v 2.9 8.5 -2.5
v 2.9 8.5 -2.6
v 3 8.5 -2.6
v 3 8.5 -2.5
v 2.9 8.6 -2.5
v 2.9 8.5 -2.5
v 3 8.5 -2.5
v 3 8.6 -2.5
v 3 8.6 -2.6
v 3 8.5 -2.6
v 2.9 8.5 -2.6
v 2.9 8.6 -2.6
v 13 8.5 -2.6
v 13 8.4 -2.6
v 13 8.4 -2.5
v 13 8.5 -2.5
v 13 8.5 -2.6
v 13 8.5 -2.5
v 13.1 8.5 -2.5
v 13.1 8.5 -2.6
v 13 8.5 -2.5
v 13 8.4 -2.5
v 13.1 8.4 -2.5
v 13.1 8.5 -2.5
v 13.1 8.5 -2.6
v 13.1 8.4 -2.6
v 13 8.4 -2.6
v 13 8.5 -2.6
v 13.1 8.5 -2.6
v 13.1 8.5 -2.5
v 13.2 8.5 -2.5
v 13.2 8.5 -2.6
v 13.1 8.5 -2.5
v 13.1 8.4 -2.5
v 13.2 8.4 -2.5
v 13.2 8.5 -2.5
v 13.2 8.5 -2.6
v 13.2 8.4 -2.6
v 13.1 8.4 -2.6
v 13.1 8.5 -2.6
v 13.2 8.5 -2.6
v 13.2 8.5 -2.5
v 13.3 8.5 -2.5
v 13.3 8.5 -2.6
v 13.2 8.4 -2.5
v 13.2 8.4 -2.6
v 13.3 8.4 -2.6
v 13.3 8.4 -2.5
v 13.2 8.5 -2.5
v 13.2 8.4 -2.5
v 13.3 8.4 -2.5
v 13.3 8.5 -2.5
v 13.3 8.5 -2.6
v 13.3 8.4 -2.6
v 13.2 8.4 -2.6
v 13.2 8.5 -2.6
v 13.3 8.5 -2.6
v 13.3 8.5 -2.5
v 13.4 8.5 -2.5
v 13.4 8.5 -2.6
v 13.3 8.4 -2.5
v 13.3 8.4 -2.6
v 13.4 8.4 -2.6
v 13.4 8.4 -2.5
v 13.3 8.5 -2.5
v 13.3 8.4 -2.5
v 13.4 8.4 -2.5
v 13.4 8.5 -2.5
v 13.4 8.5 -2.6
v 13.4 8.4 -2.6
v 13.3 8.4 -2.6
v 13.3 8.5 -2.6
v 13.4 8.5 -2.6
v 13.4 8.5 -2.5
v 13.5 8.5 -2.5
v 13.5 8.5 -2.6
v 13.4 8.4 -2.5
v 13.4 8.4 -2.6
v 13.5 8.4 -2.6
v 13.5 8.4 -2.5
v 13.4 8.5 -2.5
v 13.4 8.4 -2.5
v 13.5 8.4 -2.5
v 13.5 8.5 -2.5
v 13.5 8.5 -2.6
v 13.5 8.4 -2.6
v 13.4 8.4 -2.6
v 13.4 8.5 -2.6
v 13.6 8.5 -2.5
v 13.6 8.4 -2.5
v 13.6 8.4 -2.6
v 13.6 8.5 -2.6
v 13.5 8.5 -2.6
v 13.5 8.5 -2.5
v 13.6 8.5 -2.5
v 13.6 8.5 -2.6
v 13.5 8.5 -2.5
v 13.5 8.4 -2.5
v 13.6 8.4 -2.5
v 13.6 8.5 -2.5
v 13.6 8.5 -2.6
v 13.6 8.4 -2.6
v 13.5 8.4 -2.6
v 13.5 8.5 -2.6
v 12.8 8.4 -2.6
v 12.8 8.3 -2.6
v 12.8 8.3 -2.5
v 12.8 8.4 -2.5
v 12.8 8.4 -2.6
v 12.8 8.4 -2.5
v 12.9 8.4 -2.5
v 12.9 8.4 -2.6
v 12.8 8.3 -2.5
v 12.8 8.3 -2.6
v 12.9 8.3 -2.6
v 12.9 8.3 -2.5
v 12.8 8.4 -2.5
v 12.8 8.3 -2.5
v 12.9 8.3 -2.5
v 12.9 8.4 -2.5
v 12.9 8.4 -2.6
v 12.9 8.3 -2.6
v 12.8 8.3 -2.6
v 12.8 8.4 -2.6
v 12.9 8.4 -2.6
v 12.9 8.4 -2.5
v 13 8.4 -2.5
v 13 8.4 -2.6
v 12.9 8.3 -2.5
v 12.9 8.3 -2.6
v 13 8.3 -2.6
v 13 8.3 -2.5
v 12.9 8.4 -2.5
v 12.9 8.3 -2.5
v 13 8.3 -2.5
v 13 8.4 -2.5
v 13 8.4 -2.6
v 13 8.3 -2.6
v 12.9 8.3 -2.6
v 12.9 8.4 -2.6
v 13 8.3 -2.5
v 13 8.3 -2.6
v 13.1 8.3 -2.6
v 13.1 8.3 -2.5
v 13 8.4 -2.5
v 13 8.3 -2.5
v 13.1 8.3 -2.5
v 13.1 8.4 -2.5
v 13.1 8.4 -2.6
v 13.1 8.3 -2.6
v 13 8.3 -2.6
v 13 8.4 -2.6
v 13.2 8.4 -2.5
v 13.2 8.3 -2.5
v 13.2 8.3 -2.6
v 13.2 8.4 -2.6
v 13.1 8.3 -2.5
v 13.1 8.3 -2.6
v 13.2 8.3 -2.6
v 13.2 8.3 -2.5
v 13.1 8.4 -2.5
v 13.1 8.3 -2.5
v 13.2 8.3 -2.5
v 13.2 8.4 -2.5
v 13.2 8.4 -2.6
v 13.2 8.3 -2.6
v 13.1 8.3 -2.6
v 13.1 8.4 -2.6
v 13.5 8.4 -2.6
v 13.5 8.3 -2.6
v 13.5 8.3 -2.5
v 13.5 8.4 -2.5
v 13.5 8.3 -2.5
v 13.5 8.3 -2.6
v 13.6 8.3 -2.6
v 13.6 8.3 -2.5
v 13.5 8.4 -2.5
v 13.5 8.3 -2.5
v 13.6 8.3 -2.5
v 13.6 8.4 -2.5
v 13.6 8.4 -2.6
v 13.6 8.3 -2.6
v 13.5 8.3 -2.6
v 13.5 8.4 -2.6
v 13.6 8.4 -2.6
v 13.6 8.4 -2.5
v 13.7 8.4 -2.5
v 13.7 8.4 -2.6
v 13.6 8.3 -2.5
v 13.6 8.3 -2.6
v 13.7 8.3 -2.6
v 13.7 8.3 -2.5
v 13.6 8.4 -2.5
v 13.6 8.3 -2.5
v 13.7 8.3 -2.5
v 13.7 8.4 -2.5
v 13.7 8.4 -2.6
v 13.7 8.3 -2.6
v 13.6 8.3 -2.6
v 13.6 8.4 -2.6
v 13.8 8.4 -2.5
v 13.8 8.3 -2.5
v 13.8 8.3 -2.6
v 13.8 8.4 -2.6
v 13.7 8.4 -2.6
v 13.7 8.4 -2.5
v 13.8 8.4 -2.5
v 13.8 8.4 -2.6
v 13.7 8.3 -2.5
v 13.7 8.3 -2.6
v 13.8 8.3 -2.6
v 13.8 8.3 -2.5
v 13.7 8.4 -2.5
v 13.7 8.3 -2.5
v 13.8 8.3 -2.5
v 13.8 8.4 -2.5
v 13.8 8.4 -2.6
v 13.8 8.3 -2.6
v 13.7 8.3 -2.6
v 13.7 8.4 -2.6

# faces
f 1/2/1 2/2/1 3/2/1 4/2/1
f 5/2/2 6/2/2 7/2/2 8/2/2
f 9/2/3 10/2/3 11/2/3 12/2/3
f 13/2/5 14/2/5 15/2/5 16/2/5
f 17/2/6 18/2/6 19/2/6 20/2/6
f 21/2/1 22/2/1 23/2/1 24/2/1
f 25/2/3 26/2/3 27/2/3 28/2/3
f 29/2/5 30/2/5 31/2/5 32/2/5
f 33/2/6 34/2/6 35/2/6 36/2/6
f 37/2/2 38/2/2 39/2/2 40/2/2
f 41/2/5 42/2/5 43/2/5 44/2/5
f 45/2/6 46/2/6 47/2/6 48/2/6
f 49/2/1 50/2/1 51/2/1 52/2/1
f 53/2/5 54/2/5 55/2/5 56/2/5
f 57/2/6 58/2/6 59/2/6 60/2/6
f 61/2/2 62/2/2 63/2/2 64/2/2
f 65/2/4 66/2/4 67/2/4 68/2/4
f 69/2/5 70/2/5 71/2/5 72/2/5
f 73/2/6 74/2/6 75/2/6 76/2/6
f 77/2/1 78/2/1 79/2/1 80/2/1
f 81/2/2 82/2/2 83/2/2 84/2/2
f 85/2/5 86/2/5 87/2/5 88/2/5
f 89/2/6 90/2/6 91/2/6 92/2/6
f 93/2/1 94/2/1 95/2/1 96/2/1
f 97/2/2 98/2/2 99/2/2 100/2/2
f 101/2/3 102/2/3 103/2/3 104/2/3
f 105/2/4 106/2/4 107/2/4 108/2/4
f 109/2/5 110/2/5 111/2/5 112/2/5
f 113/2/6 114/2/6 115/2/6 116/2/6
f 117/2/1 118/2/1 119/2/1 120/2/1
f 121/2/2 122/2/2 123/2/2 124/2/2
f 125/2/5 126/2/5 127/2/5 128/2/5
f 129/2/6 130/2/6 131/2/6 132/2/6
f 133/2/1 134/2/1 135/2/1 136/2/1
f 137/2/2 138/2/2 139/2/2 140/2/2
f 141/2/3 142/2/3 143/2/3 144/2/3
f 145/2/4 146/2/4 147/2/4 148/2/4
f 149/2/5 150/2/5 151/2/5 152/2/5
f 153/2/6 154/2/6 155/2/6 156/2/6
f 157/2/1 158/2/1 159/2/1 160/2/1
f 161/2/2 162/2/2 163/2/2 164/2/2
f 165/2/5 166/2/5 167/2/5 168/2/5
f 169/2/6 170/2/6 171/2/6 172/2/6
f 173/2/1 174/2/1 175/2/1 176/2/1
f 177/2/3 178/2/3 179/2/3 180/2/3
f 181/2/5 182/2/5 183/2/5 184/2/5
f 185/2/6 186/2/6 187/2/6 188/2/6
f 189/2/2 190/2/2 191/2/2 192/2/2
f 193/2/3 194/2/3 195/2/3 196/2/3
f 197/2/5 198/2/5 199/2/5 200/2/5
f 201/2/6 202/2/6 203/2/6 204/2/6
f 205/2/1 206/2/1 207/2/1 208/2/1
f 209/2/3 210/2/3 211/2/3 212/2/3
f 213/2/5 214/2/5 215/2/5 216/2/5
f 217/2/6 218/2/6 219/2/6 220/2/6
f 221/2/2 222/2/2 223/2/2 224/2/2
f 225/2/5 226/2/5 227/2/5 228/2/5
f 229/2/6 230/2/6 231/2/6 232/2/6
f 233/2/1 234/2/1 235/2/1 236/2/1
f 237/2/3 238/2/3 239/2/3 240/2/3
f 241/2/5 242/2/5 243/2/5 244/2/5
f 245/2/6 246/2/6 247/2/6 248/2/6
f 249/2/5 250/2/5 251/2/5 252/2/5
f 253/2/6 254/2/6 255/2/6 256/2/6
f 257/2/2 258/2/2 259/2/2 260/2/2
f 261/2/4 262/2/4 263/2/4 264/2/4
f 265/2/5 266/2/5 267/2/5 268/2/5
f 269/2/6 270/2/6 271/2/6 272/2/6
f 273/2/1 274/2/1 275/2/1 276/2/1
f 277/2/5 278/2/5 279/2/5 280/2/5
f 281/2/6 282/2/6 283/2/6 284/2/6
f 285/2/5 286/2/5 287/2/5 288/2/5
f 289/2/6 290/2/6 291/2/6 292/2/6
f 293/3/2 294/3/2 295/3/2 296/3/2
f 297/3/3 298/3/3 299/3/3 300/3/3
f 301/3/5 302/3/5 303/3/5 304/3/5
f 305/3/6 306/3/6 307/3/6 308/3/6
f 309/2/1 310/2/1 311/2/1 312/2/1
f 313/2/5 314/2/5 315/2/5 316/2/5
f 317/2/6 318/2/6 319/2/6 320/2/6
f 321/2/2 322/2/2 323/2/2 324/2/2
f 325/2/5 326/2/5 327/2/5 328/2/5
f 329/2/6 330/2/6 331/2/6 332/2/6
f 333/3/1 334/3/1 335/3/1 336/3/1
f 337/3/3 338/3/3 339/3/3 340/3/3
f 341/3/5 342/3/5 343/3/5 344/3/5
f 345/3/6 346/3/6 347/3/6 348/3/6
f 349/3/4 350/3/4 351/3/4 352/3/4
f 353/3/5 354/3/5 355/3/5 356/3/5
f 357/3/6 358/3/6 359/3/6 360/3/6
f 361/3/5 362/3/5 363/3/5 364/3/5
f 365/3/6 366/3/6 367/3/6 368/3/6
f 369/3/2 370/3/2 371/3/2 372/3/2
f 373/3/5 374/3/5 375/3/5 376/3/5
f 377/3/6 378/3/6 379/3/6 380/3/6
f 381/2/1 382/2/1 383/2/1 384/2/1
f 385/2/5 386/2/5 387/2/5 388/2/5
f 389/2/6 390/2/6 391/2/6 392/2/6
f 393/3/2 394/3/2 395/3/2 396/3/2
f 397/3/4 398/3/4 399/3/4 400/3/4
f 401/3/5 402/3/5 403/3/5 404/3/5
f 405/3/6 406/3/6 407/3/6 408/3/6
f 409/1/1 410/1/1 411/1/1 412/1/1
f 413/1/2 414/1/2 415/1/2 416/1/2
f 417/1/4 418/1/4 419/1/4 420/1/4
f 421/1/5 422/1/5 423/1/5 424/1/5
f 425/1/6 426/1/6 427/1/6 428/1/6
f 429/3/1 430/3/1 431/3/1 432/3/1
f 433/3/5 434/3/5 435/3/5 436/3/5
f 437/3/6 438/3/6 439/3/6 440/3/6
f 441/3/2 442/3/2 443/3/2 444/3/2
f 445/3/5 446/3/5 447/3/5 448/3/5
f 449/3/6 450/3/6 451/3/6 452/3/6
f 453/2/1 454/2/1 455/2/1 456/2/1
f 457/2/3 458/2/3 459/2/3 460/2/3
f 461/2/5 462/2/5 463/2/5 464/2/5
f 465/2/6 466/2/6 467/2/6 468/2/6
f 469/3/2 470/3/2 471/3/2 472/3/2
f 473/3/5 474/3/5 475/3/5 476/3/5
f 477/3/6 478/3/6 479/3/6 480/3/6
f 481/1/1 482/1/1 483/1/1 484/1/1
f 485/1/2 486/1/2 487/1/2 488/1/2
f 489/1/3 490/1/3 491/1/3 492/1/3
f 493/1/5 494/1/5 495/1/5 496/1/5
f 497/1/6 498/1/6 499/1/6 500/1/6
f 501/3/1 502/3/1 503/3/1 504/3/1
f 505/3/5 506/3/5 507/3/5 508/3/5
f 509/3/6 510/3/6 511/3/6 512/3/6
f 513/3/2 514/3/2 515/3/2 516/3/2
f 517/3/5 518/3/5 519/3/5 520/3/5
f 521/3/6 522/3/6 523/3/6 524/3/6
f 525/3/1 526/3/1 527/3/1 528/3/1
f 529/3/5 530/3/5 531/3/5 532/3/5
f 533/3/6 534/3/6 535/3/6 536/3/6
f 537/3/2 538/3/2 539/3/2 540/3/2
f 541/3/5 542/3/5 543/3/5 544/3/5
f 545/3/6 546/3/6 547/3/6 548/3/6
f 549/1/1 550/1/1 551/1/1 552/1/1
f 553/1/3 554/1/3 555/1/3 556/1/3
f 557/1/5 558/1/5 559/1/5 560/1/5
f 561/1/6 562/1/6 563/1/6 564/1/6
f 565/1/2 566/1/2 567/1/2 568/1/2
f 569/1/4 570/1/4 571/1/4 572/1/4
f 573/1/5 574/1/5 575/1/5 576/1/5
f 577/1/6 578/1/6 579/1/6 580/1/6
f 581/3/1 582/3/1 583/3/1 584/3/1
f 585/3/4 586/3/4 587/3/4 588/3/4
f 589/3/5 590/3/5 591/3/5 592/3/5
f 593/3/6 594/3/6 595/3/6 596/3/6
f 597/3/2 598/3/2 599/3/2 600/3/2
f 601/3/5 602/3/5 603/3/5 604/3/5
f 605/3/6 606/3/6 607/3/6 608/3/6
f 609/3/1 610/3/1 611/3/1 612/3/1
f 613/3/5 614/3/5 615/3/5 616/3/5
f 617/3/6 618/3/6 619/3/6 620/3/6
f 621/3/2 622/3/2 623/3/2 624/3/2
f 625/3/5 626/3/5 627/3/5 628/3/5
f 629/3/6 630/3/6 631/3/6 632/3/6
f 633/1/1 634/1/1 635/1/1 636/1/1
f 637/1/3 638/1/3 639/1/3 640/1/3
f 641/1/5 642/1/5 643/1/5 644/1/5
f 645/1/6 646/1/6 647/1/6 648/1/6
f 649/1/2 650/1/2 651/1/2 652/1/2
f 653/1/4 654/1/4 655/1/4 656/1/4
f 657/1/5 658/1/5 659/1/5 660/1/5
f 661/1/6 662/1/6 663/1/6 664/1/6
f 665/3/1 666/3/1 667/3/1 668/3/1
f 669/3/2 670/3/2 671/3/2 672/3/2
f 673/3/5 674/3/5 675/3/5 676/3/5
f 677/3/6 678/3/6 679/3/6 680/3/6
f 681/3/1 682/3/1 683/3/1 684/3/1
f 685/3/3 686/3/3 687/3/3 688/3/3
f 689/3/5 690/3/5 691/3/5 692/3/5
f 693/3/6 694/3/6 695/3/6 696/3/6
f 697/3/5 698/3/5 699/3/5 700/3/5
f 701/3/6 702/3/6 703/3/6 704/3/6
f 705/1/2 706/1/2 707/1/2 708/1/2
f 709/1/5 710/1/5 711/1/5 712/1/5
f 713/1/6 714/1/6 715/1/6 716/1/6
f 717/1/1 718/1/1 719/1/1 720/1/1
f 721/1/2 722/1/2 723/1/2 724/1/2
f 725/1/5 726/1/5 727/1/5 728/1/5
f 729/1/6 730/1/6 731/1/6 732/1/6
f 733/1/1 734/1/1 735/1/1 736/1/1
f 737/1/5 738/1/5 739/1/5 740/1/5
f 741/1/6 742/1/6 743/1/6 744/1/6
f 745/3/2 746/3/2 747/3/2 748/3/2
f 749/3/3 750/3/3 751/3/3 752/3/3
f 753/3/5 754/3/5 755/3/5 756/3/5
f 757/3/6 758/3/6 759/3/6 760/3/6
f 761/3/1 762/3/1 763/3/1 764/3/1
f 765/3/5 766/3/5 767/3/5 768/3/5
f 769/3/6 770/3/6 771/3/6 772/3/6
f 773/1/5 774/1/5 775/1/5 776/1/5
f 777/1/6 778/1/6 779/1/6 780/1/6
f 781/1/2 782/1/2 783/1/2 784/1/2
f 785/1/5 786/1/5 787/1/5 788/1/5
f 789/1/6 790/1/6 791/1/6 792/1/6
f 793/1/1 794/1/1 795/1/1 796/1/1
f 797/1/2 798/1/2 799/1/2 800/1/2
f 801/1/3 802/1/3 803/1/3 804/1/3
f 805/1/4 806/1/4 807/1/4 808/1/4
f 809/1/5 810/1/5 811/1/5 812/1/5
f 813/1/6 814/1/6 815/1/6 816/1/6
f 817/2/1 818/2/1 819/2/1 820/2/1
f 821/2/3 822/2/3 823/2/3 824/2/3
f 825/2/5 826/2/5 827/2/5 828/2/5
f 829/2/6 830/2/6 831/2/6 832/2/6
f 833/3/5 834/3/5 835/3/5 836/3/5
f 837/3/6 838/3/6 839/3/6 840/3/6
f 841/2/2 842/2/2 843/2/2 844/2/2
f 845/2/3 846/2/3 847/2/3 848/2/3
f 849/2/5 850/2/5 851/2/5 852/2/5
f 853/2/6 854/2/6 855/2/6 856/2/6
f 857/1/1 858/1/1 859/1/1 860/1/1
f 861/1/5 862/1/5 863/1/5 864/1/5
f 865/1/6 866/1/6 867/1/6 868/1/6
f 869/1/2 870/1/2 871/1/2 872/1/2
f 873/1/5 874/1/5 875/1/5 876/1/5
f 877/1/6 878/1/6 879/1/6 880/1/6
f 881/3/1 882/3/1 883/3/1 884/3/1
f 885/3/4 886/3/4 887/3/4 888/3/4
f 889/3/5 890/3/5 891/3/5 892/3/5
f 893/3/6 894/3/6 895/3/6 896/3/6
f 897/3/5 898/3/5 899/3/5 900/3/5
f 901/3/6 902/3/6 903/3/6 904/3/6
f 905/1/5 906/1/5 907/1/5 908/1/5
f 909/1/6 910/1/6 911/1/6 912/1/6
f 913/1/2 914/1/2 915/1/2 916/1/2
f 917/1/3 918/1/3 919/1/3 920/1/3
f 921/1/5 922/1/5 923/1/5 924/1/5
f 925/1/6 926/1/6 927/1/6 928/1/6
f 929/1/1 930/1/1 931/1/1 932/1/1
f 933/1/2 934/1/2 935/1/2 936/1/2
f 937/1/3 938/1/3 939/1/3 940/1/3
f 941/1/5 942/1/5 943/1/5 944/1/5
f 945/1/6 946/1/6 947/1/6 948/1/6
f 949/2/1 950/2/1 951/2/1 952/2/1
f 953/2/3 954/2/3 955/2/3 956/2/3
f 957/2/5 958/2/5 959/2/5 960/2/5
f 961/2/6 962/2/6 963/2/6 964/2/6
f 965/3/3 966/3/3 967/3/3 968/3/3
f 969/3/5 970/3/5 971/3/5 972/3/5
f 973/3/6 974/3/6 975/3/6 976/3/6
f 977/3/3 978/3/3 979/3/3 980/3/3
f 981/3/5 982/3/5 983/3/5 984/3/5
f 985/3/6 986/3/6 987/3/6 988/3/6
f 989/3/3 990/3/3 991/3/3 992/3/3
f 993/3/5 994/3/5 995/3/5 996/3/5
f 997/3/6 998/3/6 999/3/6 1000/3/6
f 1001/1/5 1002/1/5 1003/1/5 1004/1/5
f 1005/1/6 1006/1/6 1007/1/6 1008/1/6
f 1009/1/5 1010/1/5 1011/1/5 1012/1/5
f 1013/1/6 1014/1/6 1015/1/6 1016/1/6
f 1017/1/5 1018/1/5 1019/1/5 1020/1/5
f 1021/1/6 1022/1/6 1023/1/6 1024/1/6
f 1025/3/3 1026/3/3 1027/3/3 1028/3/3
f 1029/3/5 1030/3/5 1031/3/5 1032/3/5
f 1033/3/6 1034/3/6 1035/3/6 1036/3/6
f 1037/2/3 1038/2/3 1039/2/3 1040/2/3
f 1041/2/5 1042/2/5 1043/2/5 1044/2/5
f 1045/2/6 1046/2/6 1047/2/6 1048/2/6
f 1049/3/3 1050/3/3 1051/3/3 1052/3/3
f 1053/3/5 1054/3/5 1055/3/5 1056/3/5
f 1057/3/6 1058/3/6 1059/3/6 1060/3/6
f 1061/2/3 1062/2/3 1063/2/3 1064/2/3
f 1065/2/5 1066/2/5 1067/2/5 1068/2/5
f 1069/2/6 1070/2/6 1071/2/6 1072/2/6
f 1073/1/5 1074/1/5 1075/1/5 1076/1/5
f 1077/1/6 1078/1/6 1079/1/6 1080/1/6
f 1081/1/2 1082/1/2 1083/1/2 1084/1/2
f 1085/1/5 1086/1/5 1087/1/5 1088/1/5
f 1089/1/6 1090/1/6 1091/1/6 1092/1/6
f 1093/1/1 1094/1/1 1095/1/1 1096/1/1
f 1097/1/5 1098/1/5 1099/1/5 1100/1/5
f 1101/1/6 1102/1/6 1103/1/6 1104/1/6
f 1105/1/5 1106/1/5 1107/1/5 1108/1/5
f 1109/1/6 1110/1/6 1111/1/6 1112/1/6
f 1113/1/5 1114/1/5 1115/1/5 1116/1/5
f 1117/1/6 1118/1/6 1119/1/6 1120/1/6
f 1121/1/3 1122/1/3 1123/1/3 1124/1/3
f 1125/1/5 1126/1/5 1127/1/5 1128/1/5
f 1129/1/6 1130/1/6 1131/1/6 1132/1/6
f 1133/1/3 1134/1/3 1135/1/3 1136/1/3
f 1137/1/5 1138/1/5 1139/1/5 1140/1/5
f 1141/1/6 1142/1/6 1143/1/6 1144/1/6
f 1145/1/5 1146/1/5 1147/1/5 1148/1/5
f 1149/1/6 1150/1/6 1151/1/6 1152/1/6
f 1153/3/3 1154/3/3 1155/3/3 1156/3/3
f 1157/3/5 1158/3/5 1159/3/5 1160/3/5
f 1161/3/6 1162/3/6 1163/3/6 1164/3/6
f 1165/1/5 1166/1/5 1167/1/5 1168/1/5
f 1169/1/6 1170/1/6 1171/1/6 1172/1/6
f 1173/1/5 1174/1/5 1175/1/5 1176/1/5
f 1177/1/6 1178/1/6 1179/1/6 1180/1/6
f 1181/1/5 1182/1/5 1183/1/5 1184/1/5
f 1185/1/6 1186/1/6 1187/1/6 1188/1/6
f 1189/3/4 1190/3/4 1191/3/4 1192/3/4
f 1193/3/5 1194/3/5 1195/3/5 1196/3/5
f 1197/3/6 1198/3/6 1199/3/6 1200/3/6
f 1201/3/4 1202/3/4 1203/3/4 1204/3/4
f 1205/3/5 1206/3/5 1207/3/5 1208/3/5
f 1209/3/6 1210/3/6 1211/3/6 1212/3/6
f 1213/3/4 1214/3/4 1215/3/4 1216/3/4
f 1217/3/5 1218/3/5 1219/3/5 1220/3/5
f 1221/3/6 1222/3/6 1223/3/6 1224/3/6
f 1225/3/4 1226/3/4 1227/3/4 1228/3/4
f 1229/3/5 1230/3/5 1231/3/5 1232/3/5
f 1233/3/6 1234/3/6 1235/3/6 1236/3/6
f 1237/2/4 1238/2/4 1239/2/4 1240/2/4
f 1241/2/5 1242/2/5 1243/2/5 1244/2/5
f 1245/2/6 1246/2/6 1247/2/6 1248/2/6
f 1249/3/4 1250/3/4 1251/3/4 1252/3/4
f 1253/3/5 1254/3/5 1255/3/5 1256/3/5
f 1257/3/6 1258/3/6 1259/3/6 1260/3/6
f 1261/1/5 1262/1/5 1263/1/5 1264/1/5
f 1265/1/6 1266/1/6 1267/1/6 1268/1/6
f 1269/1/5 1270/1/5 1271/1/5 1272/1/5
f 1273/1/6 1274/1/6 1275/1/6 1276/1/6
f 1277/3/5 1278/3/5 1279/3/5 1280/3/5
f 1281/3/6 1282/3/6 1283/3/6 1284/3/6
f 1285/1/5 1286/1/5 1287/1/5 1288/1/5
f 1289/1/6 1290/1/6 1291/1/6 1292/1/6
f 1293/1/2 1294/1/2 1295/1/2 1296/1/2
f 1297/1/3 1298/1/3 1299/1/3 1300/1/3
f 1301/1/5 1302/1/5 1303/1/5 1304/1/5
f 1305/1/6 1306/1/6 1307/1/6 1308/1/6
f 1309/1/1 1310/1/1 1311/1/1 1312/1/1
f 1313/1/5 1314/1/5 1315/1/5 1316/1/5
f 1317/1/6 1318/1/6 1319/1/6 1320/1/6
f 1321/1/5 1322/1/5 1323/1/5 1324/1/5
f 1325/1/6 1326/1/6 1327/1/6 1328/1/6
f 1329/1/5 1330/1/5 1331/1/5 1332/1/5
f 1333/1/6 1334/1/6 1335/1/6 1336/1/6
f 1337/1/5 1338/1/5 1339/1/5 1340/1/5
f 1341/1/6 1342/1/6 1343/1/6 1344/1/6
f 1345/1/5 1346/1/5 1347/1/5 1348/1/5
f 1349/1/6 1350/1/6 1351/1/6 1352/1/6
f 1353/1/5 1354/1/5 1355/1/5 1356/1/5
f 1357/1/6 1358/1/6 1359/1/6 1360/1/6
f 1361/1/5 1362/1/5 1363/1/5 1364/1/5
f 1365/1/6 1366/1/6 1367/1/6 1368/1/6
f 1369/1/5 1370/1/5 1371/1/5 1372/1/5
f 1373/1/6 1374/1/6 1375/1/6 1376/1/6
f 1377/3/4 1378/3/4 1379/3/4 1380/3/4
f 1381/3/5 1382/3/5 1383/3/5 1384/3/5
f 1385/3/6 1386/3/6 1387/3/6 1388/3/6
f 1389/3/2 1390/3/2 1391/3/2 1392/3/2
f 1393/3/4 1394/3/4 1395/3/4 1396/3/4
f 1397/3/5 1398/3/5 1399/3/5 1400/3/5
f 1401/3/6 1402/3/6 1403/3/6 1404/3/6
f 1405/3/1 1406/3/1 1407/3/1 1408/3/1
f 1409/3/4 1410/3/4 1411/3/4 1412/3/4
f 1413/3/5 1414/3/5 1415/3/5 1416/3/5
f 1417/3/6 1418/3/6 1419/3/6 1420/3/6
f 1421/1/5 1422/1/5 1423/1/5 1424/1/5
f 1425/1/6 1426/1/6 1427/1/6 1428/1/6
f 1429/1/5 1430/1/5 1431/1/5 1432/1/5
f 1433/1/6 1434/1/6 1435/1/6 1436/1/6
f 1437/1/5 1438/1/5 1439/1/5 1440/1/5
f 1441/1/6 1442/1/6 1443/1/6 1444/1/6
f 1445/1/2 1446/1/2 1447/1/2 1448/1/2
f 1449/1/5 1450/1/5 1451/1/5 1452/1/5
f 1453/1/6 1454/1/6 1455/1/6 1456/1/6
f 1457/1/1 1458/1/1 1459/1/1 1460/1/1
f 1461/1/4 1462/1/4 1463/1/4 1464/1/4
f 1465/1/5 1466/1/5 1467/1/5 1468/1/5
f 1469/1/6 1470/1/6 1471/1/6 1472/1/6
f 1473/1/5 1474/1/5 1475/1/5 1476/1/5
f 1477/1/6 1478/1/6 1479/1/6 1480/1/6
f 1481/1/5 1482/1/5 1483/1/5 1484/1/5
f 1485/1/6 1486/1/6 1487/1/6 1488/1/6
f 1489/1/5 1490/1/5 1491/1/5 1492/1/5
f 1493/1/6 1494/1/6 1495/1/6 1496/1/6
f 1497/1/4 1498/1/4 1499/1/4 1500/1/4
f 1501/1/5 1502/1/5 1503/1/5 1504/1/5
f 1505/1/6 1506/1/6 1507/1/6 1508/1/6
f 1509/1/5 1510/1/5 1511/1/5 1512/1/5
f 1513/1/6 1514/1/6 1515/1/6 1516/1/6
f 1517/1/5 1518/1/5 1519/1/5 1520/1/5
f 1521/1/6 1522/1/6 1523/1/6 1524/1/6
f 1525/3/2 1526/3/2 1527/3/2 1528/3/2
f 1529/3/4 1530/3/4 1531/3/4 1532/3/4
f 1533/3/5 1534/3/5 1535/3/5 1536/3/5
f 1537/3/6 1538/3/6 1539/3/6 1540/3/6
f 1541/1/1 1542/1/1 1543/1/1 1544/1/1
f 1545/1/2 1546/1/2 1547/1/2 1548/1/2
f 1549/1/3 1550/1/3 1551/1/3 1552/1/3
f 1553/1/4 1554/1/4 1555/1/4 1556/1/4
f 1557/1/5 1558/1/5 1559/1/5 1560/1/5
f 1561/1/6 1562/1/6 1563/1/6 1564/1/6
f 1565/3/1 1566/3/1 1567/3/1 1568/3/1
f 1569/3/4 1570/3/4 1571/3/4 1572/3/4
f 1573/3/5 1574/3/5 1575/3/5 1576/3/5
f 1577/3/6 1578/3/6 1579/3/6 1580/3/6
f 1581/1/5 1582/1/5 1583/1/5 1584/1/5
f 1585/1/6 1586/1/6 1587/1/6 1588/1/6
f 1589/1/5 1590/1/5 1591/1/5 1592/1/5
f 1593/1/6 1594/1/6 1595/1/6 1596/1/6
f 1597/1/5 1598/1/5 1599/1/5 1600/1/5
f 1601/1/6 1602/1/6 1603/1/6 1604/1/6
f 1605/1/2 1606/1/2 1607/1/2 1608/1/2
f 1609/1/3 1610/1/3 1611/1/3 1612/1/3
f 1613/1/5 1614/1/5 1615/1/5 1616/1/5
f 1617/1/6 1618/1/6 1619/1/6 1620/1/6
f 1621/1/1 1622/1/1 1623/1/1 1624/1/1
f 1625/1/5 1626/1/5 1627/1/5 1628/1/5
f 1629/1/6 1630/1/6 1631/1/6 1632/1/6
f 1633/1/5 1634/1/5 1635/1/5 1636/1/5
f 1637/1/6 1638/1/6 1639/1/6 1640/1/6
f 1641/1/2 1642/1/2 1643/1/2 1644/1/2
f 1645/1/4 1646/1/4 1647/1/4 1648/1/4
f 1649/1/5 1650/1/5 1651/1/5 1652/1/5
f 1653/1/6 1654/1/6 1655/1/6 1656/1/6
f 1657/1/1 1658/1/1 1659/1/1 1660/1/1
f 1661/1/5 1662/1/5 1663/1/5 1664/1/5
f 1665/1/6 1666/1/6 1667/1/6 1668/1/6
f 1669/1/2 1670/1/2 1671/1/2 1672/1/2
f 1673/1/5 1674/1/5 1675/1/5 1676/1/5
f 1677/1/6 1678/1/6 1679/1/6 1680/1/6
f 1681/3/1 1682/3/1 1683/3/1 1684/3/1
f 1685/3/5 1686/3/5 1687/3/5 1688/3/5
f 1689/3/6 1690/3/6 1691/3/6 1692/3/6
f 1693/1/5 1694/1/5 1695/1/5 1696/1/5
f 1697/1/6 1698/1/6 1699/1/6 1700/1/6
f 1701/1/5 1702/1/5 1703/1/5 1704/1/5
f 1705/1/6 1706/1/6 1707/1/6 1708/1/6
f 1709/1/5 1710/1/5 1711/1/5 1712/1/5
f 1713/1/6 1714/1/6 1715/1/6 1716/1/6
f 1717/3/2 1718/3/2 1719/3/2 1720/3/2
f 1721/3/3 1722/3/3 1723/3/3 1724/3/3
f 1725/3/5 1726/3/5 1727/3/5 1728/3/5
f 1729/3/6 1730/3/6 1731/3/6 1732/3/6
f 1733/1/1 1734/1/1 1735/1/1 1736/1/1
f 1737/1/4 1738/1/4 1739/1/4 1740/1/4
f 1741/1/5 1742/1/5 1743/1/5 1744/1/5
f 1745/1/6 1746/1/6 1747/1/6 1748/1/6
f 1749/1/2 1750/1/2 1751/1/2 1752/1/2
f 1753/1/5 1754/1/5 1755/1/5 1756/1/5
f 1757/1/6 1758/1/6 1759/1/6 1760/1/6
f 1761/2/1 1762/2/1 1763/2/1 1764/2/1
f 1765/2/3 1766/2/3 1767/2/3 1768/2/3
f 1769/2/5 1770/2/5 1771/2/5 1772/2/5
f 1773/2/6 1774/2/6 1775/2/6 1776/2/6
f 1777/1/5 1778/1/5 1779/1/5 1780/1/5
f 1781/1/6 1782/1/6 1783/1/6 1784/1/6
f 1785/1/5 1786/1/5 1787/1/5 1788/1/5
f 1789/1/6 1790/1/6 1791/1/6 1792/1/6
f 1793/1/2 1794/1/2 1795/1/2 1796/1/2
f 1797/1/3 1798/1/3 1799/1/3 1800/1/3
f 1801/1/5 1802/1/5 1803/1/5 1804/1/5
f 1805/1/6 1806/1/6 1807/1/6 1808/1/6
f 1809/2/1 1810/2/1 1811/2/1 1812/2/1
f 1813/2/4 1814/2/4 1815/2/4 1816/2/4
f 1817/2/5 1818/2/5 1819/2/5 1820/2/5
f 1821/2/6 1822/2/6 1823/2/6 1824/2/6
f 1825/1/5 1826/1/5 1827/1/5 1828/1/5
f 1829/1/6 1830/1/6 1831/1/6 1832/1/6
f 1833/1/5 1834/1/5 1835/1/5 1836/1/5
f 1837/1/6 1838/1/6 1839/1/6 1840/1/6
f 1841/1/5 1842/1/5 1843/1/5 1844/1/5
f 1845/1/6 1846/1/6 1847/1/6 1848/1/6
f 1849/1/5 1850/1/5 1851/1/5 1852/1/5
f 1853/1/6 1854/1/6 1855/1/6 1856/1/6
f 1857/3/2 1858/3/2 1859/3/2 1860/3/2
f 1861/3/3 1862/3/3 1863/3/3 1864/3/3
f 1865/3/5 1866/3/5 1867/3/5 1868/3/5
f 1869/3/6 1870/3/6 1871/3/6 1872/3/6
f 1873/1/1 1874/1/1 1875/1/1 1876/1/1
f 1877/1/2 1878/1/2 1879/1/2 1880/1/2
f 1881/1/5 1882/1/5 1883/1/5 1884/1/5
f 1885/1/6 1886/1/6 1887/1/6 1888/1/6
f 1889/3/1 1890/3/1 1891/3/1 1892/3/1
f 1893/3/5 1894/3/5 1895/3/5 1896/3/5
f 1897/3/6 1898/3/6 1899/3/6 1900/3/6
f 1901/1/5 1902/1/5 1903/1/5 1904/1/5
f 1905/1/6 1906/1/6 1907/1/6 1908/1/6
f 1909/3/5 1910/3/5 1911/3/5 1912/3/5
f 1913/3/6 1914/3/6 1915/3/6 1916/3/6
f 1917/1/4 1918/1/4 1919/1/4 1920/1/4
f 1921/1/5 1922/1/5 1923/1/5 1924/1/5
f 1925/1/6 1926/1/6 1927/1/6 1928/1/6
f 1929/1/2 1930/1/2 1931/1/2 1932/1/2
f 1933/1/3 1934/1/3 1935/1/3 1936/1/3
f 1937/1/5 1938/1/5 1939/1/5 1940/1/5
f 1941/1/6 1942/1/6 1943/1/6 1944/1/6
f 1945/1/1 1946/1/1 1947/1/1 1948/1/1
f 1949/1/2 1950/1/2 1951/1/2 1952/1/2
f 1953/1/3 1954/1/3 1955/1/3 1956/1/3
f 1957/1/4 1958/1/4 1959/1/4 1960/1/4
f 1961/1/5 1962/1/5 1963/1/5 1964/1/5
f 1965/1/6 1966/1/6 1967/1/6 1968/1/6
f 1969/3/1 1970/3/1 1971/3/1 1972/3/1
f 1973/3/5 1974/3/5 1975/3/5 1976/3/5
f 1977/3/6 1978/3/6 1979/3/6 1980/3/6
f 1981/1/5 1982/1/5 1983/1/5 1984/1/5
f 1985/1/6 1986/1/6 1987/1/6 1988/1/6
f 1989/1/5 1990/1/5 1991/1/5 1992/1/5
f 1993/1/6 1994/1/6 1995/1/6 1996/1/6
f 1997/1/5 1998/1/5 1999/1/5 2000/1/5
f 2001/1/6 2002/1/6 2003/1/6 2004/1/6
f 2005/1/2 2006/1/2 2007/1/2 2008/1/2
f 2009/1/5 2010/1/5 2011/1/5 2012/1/5
f 2013/1/6 2014/1/6 2015/1/6 2016/1/6
f 2017/1/1 2018/1/1 2019/1/1 2020/1/1
f 2021/1/2 2022/1/2 2023/1/2 2024/1/2
f 2025/1/4 2026/1/4 2027/1/4 2028/1/4
f 2029/1/5 2030/1/5 2031/1/5 2032/1/5
f 2033/1/6 2034/1/6 2035/1/6 2036/1/6
f 2037/3/1 2038/3/1 2039/3/1 2040/3/1
f 2041/3/5 2042/3/5 2043/3/5 2044/3/5
f 2045/3/6 2046/3/6 2047/3/6 2048/3/6
f 2049/1/5 2050/1/5 2051/1/5 2052/1/5
f 2053/1/6 2054/1/6 2055/1/6 2056/1/6
f 2057/3/2 2058/3/2 2059/3/2 2060/3/2
f 2061/3/5 2062/3/5 2063/3/5 2064/3/5
f 2065/3/6 2066/3/6 2067/3/6 2068/3/6
f 2069/1/1 2070/1/1 2071/1/1 2072/1/1
f 2073/1/4 2074/1/4 2075/1/4 2076/1/4
f 2077/1/5 2078/1/5 2079/1/5 2080/1/5
f 2081/1/6 2082/1/6 2083/1/6 2084/1/6
f 2085/1/2 2086/1/2 2087/1/2 2088/1/2
f 2089/1/3 2090/1/3 2091/1/3 2092/1/3
f 2093/1/5 2094/1/5 2095/1/5 2096/1/5
f 2097/1/6 2098/1/6 2099/1/6 2100/1/6
f 2101/2/1 2102/2/1 2103/2/1 2104/2/1
f 2105/2/4 2106/2/4 2107/2/4 2108/2/4
f 2109/2/5 2110/2/5 2111/2/5 2112/2/5
f 2113/2/6 2114/2/6 2115/2/6 2116/2/6
f 2117/1/5 2118/1/5 2119/1/5 2120/1/5
f 2121/1/6 2122/1/6 2123/1/6 2124/1/6
f 2125/1/5 2126/1/5 2127/1/5 2128/1/5
f 2129/1/6 2130/1/6 2131/1/6 2132/1/6
f 2133/1/5 2134/1/5 2135/1/5 2136/1/5
f 2137/1/6 2138/1/6 2139/1/6 2140/1/6
f 2141/1/2 2142/1/2 2143/1/2 2144/1/2
f 2145/1/5 2146/1/5 2147/1/5 2148/1/5
f 2149/1/6 2150/1/6 2151/1/6 2152/1/6
f 2153/1/1 2154/1/1 2155/1/1 2156/1/1
f 2157/1/3 2158/1/3 2159/1/3 2160/1/3
f 2161/1/4 2162/1/4 2163/1/4 2164/1/4
f 2165/1/5 2166/1/5 2167/1/5 2168/1/5
f 2169/1/6 2170/1/6 2171/1/6 2172/1/6
f 2173/3/5 2174/3/5 2175/3/5 2176/3/5
f 2177/3/6 2178/3/6 2179/3/6 2180/3/6
f 2181/1/5 2182/1/5 2183/1/5 2184/1/5
f 2185/1/6 2186/1/6 2187/1/6 2188/1/6
f 2189/3/2 2190/3/2 2191/3/2 2192/3/2
f 2193/3/5 2194/3/5 2195/3/5 2196/3/5
f 2197/3/6 2198/3/6 2199/3/6 2200/3/6
f 2201/1/1 2202/1/1 2203/1/1 2204/1/1
f 2205/1/2 2206/1/2 2207/1/2 2208/1/2
f 2209/1/5 2210/1/5 2211/1/5 2212/1/5
f 2213/1/6 2214/1/6 2215/1/6 2216/1/6
f 2217/1/1 2218/1/1 2219/1/1 2220/1/1
f 2221/1/2 2222/1/2 2223/1/2 2224/1/2
f 2225/1/3 2226/1/3 2227/1/3 2228/1/3
f 2229/1/5 2230/1/5 2231/1/5 2232/1/5
f 2233/1/6 2234/1/6 2235/1/6 2236/1/6
f 2237/3/1 2238/3/1 2239/3/1 2240/3/1
f 2241/3/5 2242/3/5 2243/3/5 2244/3/5
f 2245/3/6 2246/3/6 2247/3/6 2248/3/6
f 2249/1/5 2250/1/5 2251/1/5 2252/1/5
f 2253/1/6 2254/1/6 2255/1/6 2256/1/6
f 2257/1/5 2258/1/5 2259/1/5 2260/1/5
f 2261/1/6 2262/1/6 2263/1/6 2264/1/6
f 2265/1/2 2266/1/2 2267/1/2 2268/1/2
f 2269/1/5 2270/1/5 2271/1/5 2272/1/5
f 2273/1/6 2274/1/6 2275/1/6 2276/1/6
f 2277/2/1 2278/2/1 2279/2/1 2280/2/1
f 2281/2/4 2282/2/4 2283/2/4 2284/2/4
f 2285/2/5 2286/2/5 2287/2/5 2288/2/5
f 2289/2/6 2290/2/6 2291/2/6 2292/2/6
f 2293/1/5 2294/1/5 2295/1/5 2296/1/5
f 2297/1/6 2298/1/6 2299/1/6 2300/1/6
f 2301/1/5 2302/1/5 2303/1/5 2304/1/5
f 2305/1/6 2306/1/6 2307/1/6 2308/1/6
f 2309/3/2 2310/3/2 2311/3/2 2312/3/2
f 2313/3/3 2314/3/3 2315/3/3 2316/3/3
f 2317/3/5 2318/3/5 2319/3/5 2320/3/5
f 2321/3/6 2322/3/6 2323/3/6 2324/3/6
f 2325/1/1 2326/1/1 2327/1/1 2328/1/1
f 2329/1/4 2330/1/4 2331/1/4 2332/1/4
f 2333/1/5 2334/1/5 2335/1/5 2336/1/5
f 2337/1/6 2338/1/6 2339/1/6 2340/1/6
f 2341/1/2 2342/1/2 2343/1/2 2344/1/2
f 2345/1/3 2346/1/3 2347/1/3 2348/1/3
f 2349/1/5 2350/1/5 2351/1/5 2352/1/5
f 2353/1/6 2354/1/6 2355/1/6 2356/1/6
f 2357/1/1 2358/1/1 2359/1/1 2360/1/1
f 2361/1/4 2362/1/4 2363/1/4 2364/1/4
f 2365/1/5 2366/1/5 2367/1/5 2368/1/5
f 2369/1/6 2370/1/6 2371/1/6 2372/1/6
f 2373/1/2 2374/1/2 2375/1/2 2376/1/2
f 2377/1/3 2378/1/3 2379/1/3 2380/1/3
f 2381/1/5 2382/1/5 2383/1/5 2384/1/5
f 2385/1/6 2386/1/6 2387/1/6 2388/1/6
f 2389/3/1 2390/3/1 2391/3/1 2392/3/1
f 2393/3/5 2394/3/5 2395/3/5 2396/3/5
f 2397/3/6 2398/3/6 2399/3/6 2400/3/6
f 2401/1/5 2402/1/5 2403/1/5 2404/1/5
f 2405/1/6 2406/1/6 2407/1/6 2408/1/6
f 2409/1/5 2410/1/5 2411/1/5 2412/1/5
f 2413/1/6 2414/1/6 2415/1/6 2416/1/6
f 2417/1/2 2418/1/2 2419/1/2 2420/1/2
f 2421/1/5 2422/1/5 2423/1/5 2424/1/5
f 2425/1/6 2426/1/6 2427/1/6 2428/1/6
f 2429/2/1 2430/2/1 2431/2/1 2432/2/1
f 2433/2/4 2434/2/4 2435/2/4 2436/2/4
f 2437/2/5 2438/2/5 2439/2/5 2440/2/5
f 2441/2/6 2442/2/6 2443/2/6 2444/2/6
f 2445/3/4 2446/3/4 2447/3/4 2448/3/4
f 2449/3/5 2450/3/5 2451/3/5 2452/3/5
f 2453/3/6 2454/3/6 2455/3/6 2456/3/6
f 2457/1/5 2458/1/5 2459/1/5 2460/1/5
f 2461/1/6 2462/1/6 2463/1/6 2464/1/6
f 2465/3/2 2466/3/2 2467/3/2 2468/3/2
f 2469/3/3 2470/3/3 2471/3/3 2472/3/3
f 2473/3/5 2474/3/5 2475/3/5 2476/3/5
f 2477/3/6 2478/3/6 2479/3/6 2480/3/6
f 2481/1/1 2482/1/1 2483/1/1 2484/1/1
f 2485/1/2 2486/1/2 2487/1/2 2488/1/2
f 2489/1/4 2490/1/4 2491/1/4 2492/1/4
f 2493/1/5 2494/1/5 2495/1/5 2496/1/5
f 2497/1/6 2498/1/6 2499/1/6 2500/1/6
f 2501/1/1 2502/1/1 2503/1/1 2504/1/1
f 2505/1/4 2506/1/4 2507/1/4 2508/1/4
f 2509/1/5 2510/1/5 2511/1/5 2512/1/5
f 2513/1/6 2514/1/6 2515/1/6 2516/1/6
f 2517/1/2 2518/1/2 2519/1/2 2520/1/2
f 2521/1/3 2522/1/3 2523/1/3 2524/1/3
f 2525/1/5 2526/1/5 2527/1/5 2528/1/5
f 2529/1/6 2530/1/6 2531/1/6 2532/1/6
f 2533/2/1 2534/2/1 2535/2/1 2536/2/1
f 2537/2/3 2538/2/3 2539/2/3 2540/2/3
f 2541/2/5 2542/2/5 2543/2/5 2544/2/5
f 2545/2/6 2546/2/6 2547/2/6 2548/2/6
f 2549/1/5 2550/1/5 2551/1/5 2552/1/5
f 2553/1/6 2554/1/6 2555/1/6 2556/1/6
f 2557/1/5 2558/1/5 2559/1/5 2560/1/5
f 2561/1/6 2562/1/6 2563/1/6 2564/1/6
f 2565/3/5 2566/3/5 2567/3/5 2568/3/5
f 2569/3/6 2570/3/6 2571/3/6 2572/3/6
f 2573/1/2 2574/1/2 2575/1/2 2576/1/2
f 2577/1/5 2578/1/5 2579/1/5 2580/1/5
f 2581/1/6 2582/1/6 2583/1/6 2584/1/6
f 2585/3/1 2586/3/1 2587/3/1 2588/3/1
f 2589/3/4 2590/3/4 2591/3/4 2592/3/4
f 2593/3/5 2594/3/5 2595/3/5 2596/3/5
f 2597/3/6 2598/3/6 2599/3/6 2600/3/6
f 2601/2/2 2602/2/2 2603/2/2 2604/2/2
f 2605/2/4 2606/2/4 2607/2/4 2608/2/4
f 2609/2/5 2610/2/5 2611/2/5 2612/2/5
f 2613/2/6 2614/2/6 2615/2/6 2616/2/6
f 2617/1/1 2618/1/1 2619/1/1 2620/1/1
f 2621/1/2 2622/1/2 2623/1/2 2624/1/2
f 2625/1/3 2626/1/3 2627/1/3 2628/1/3
f 2629/1/4 2630/1/4 2631/1/4 2632/1/4
f 2633/1/5 2634/1/5 2635/1/5 2636/1/5
f 2637/1/6 2638/1/6 2639/1/6 2640/1/6
f 2641/1/1 2642/1/1 2643/1/1 2644/1/1
f 2645/1/4 2646/1/4 2647/1/4 2648/1/4
f 2649/1/5 2650/1/5 2651/1/5 2652/1/5
f 2653/1/6 2654/1/6 2655/1/6 2656/1/6
f 2657/1/2 2658/1/2 2659/1/2 2660/1/2
f 2661/1/3 2662/1/3 2663/1/3 2664/1/3
f 2665/1/5 2666/1/5 2667/1/5 2668/1/5
f 2669/1/6 2670/1/6 2671/1/6 2672/1/6
f 2673/3/1 2674/3/1 2675/3/1 2676/3/1
f 2677/3/5 2678/3/5 2679/3/5 2680/3/5
f 2681/3/6 2682/3/6 2683/3/6 2684/3/6
f 2685/1/5 2686/1/5 2687/1/5 2688/1/5
f 2689/1/6 2690/1/6 2691/1/6 2692/1/6
f 2693/1/5 2694/1/5 2695/1/5 2696/1/5
f 2697/1/6 2698/1/6 2699/1/6 2700/1/6
f 2701/3/5 2702/3/5 2703/3/5 2704/3/5
f 2705/3/6 2706/3/6 2707/3/6 2708/3/6
f 2709/1/2 2710/1/2 2711/1/2 2712/1/2
f 2713/1/5 2714/1/5 2715/1/5 2716/1/5
f 2717/1/6 2718/1/6 2719/1/6 2720/1/6
f 2721/1/1 2722/1/1 2723/1/1 2724/1/1
f 2725/1/2 2726/1/2 2727/1/2 2728/1/2
f 2729/1/3 2730/1/3 2731/1/3 2732/1/3
f 2733/1/4 2734/1/4 2735/1/4 2736/1/4
f 2737/1/5 2738/1/5 2739/1/5 2740/1/5
f 2741/1/6 2742/1/6 2743/1/6 2744/1/6
f 2745/1/1 2746/1/1 2747/1/1 2748/1/1
f 2749/1/2 2750/1/2 2751/1/2 2752/1/2
f 2753/1/5 2754/1/5 2755/1/5 2756/1/5
f 2757/1/6 2758/1/6 2759/1/6 2760/1/6
f 2761/3/1 2762/3/1 2763/3/1 2764/3/1
f 2765/3/5 2766/3/5 2767/3/5 2768/3/5
f 2769/3/6 2770/3/6 2771/3/6 2772/3/6
f 2773/1/5 2774/1/5 2775/1/5 2776/1/5
f 2777/1/6 2778/1/6 2779/1/6 2780/1/6
f 2781/1/5 2782/1/5 2783/1/5 2784/1/5
f 2785/1/6 2786/1/6 2787/1/6 2788/1/6
f 2789/3/5 2790/3/5 2791/3/5 2792/3/5
f 2793/3/6 2794/3/6 2795/3/6 2796/3/6
f 2797/1/2 2798/1/2 2799/1/2 2800/1/2
f 2801/1/4 2802/1/4 2803/1/4 2804/1/4
f 2805/1/5 2806/1/5 2807/1/5 2808/1/5
f 2809/1/6 2810/1/6 2811/1/6 2812/1/6
f 2813/1/1 2814/1/1 2815/1/1 2816/1/1
f 2817/1/4 2818/1/4 2819/1/4 2820/1/4
f 2821/1/5 2822/1/5 2823/1/5 2824/1/5
f 2825/1/6 2826/1/6 2827/1/6 2828/1/6
f 2829/1/3 2830/1/3 2831/1/3 2832/1/3
f 2833/1/5 2834/1/5 2835/1/5 2836/1/5
f 2837/1/6 2838/1/6 2839/1/6 2840/1/6
f 2841/3/5 2842/3/5 2843/3/5 2844/3/5
f 2845/3/6 2846/3/6 2847/3/6 2848/3/6
f 2849/1/5 2850/1/5 2851/1/5 2852/1/5
f 2853/1/6 2854/1/6 2855/1/6 2856/1/6
f 2857/3/5 2858/3/5 2859/3/5 2860/3/5
f 2861/3/6 2862/3/6 2863/3/6 2864/3/6
f 2865/2/2 2866/2/2 2867/2/2 2868/2/2
f 2869/2/5 2870/2/5 2871/2/5 2872/2/5
f 2873/2/6 2874/2/6 2875/2/6 2876/2/6
f 2877/1/1 2878/1/1 2879/1/1 2880/1/1
f 2881/1/5 2882/1/5 2883/1/5 2884/1/5
f 2885/1/6 2886/1/6 2887/1/6 2888/1/6
f 2889/2/4 2890/2/4 2891/2/4 2892/2/4
f 2893/2/5 2894/2/5 2895/2/5 2896/2/5
f 2897/2/6 2898/2/6 2899/2/6 2900/2/6
f 2901/1/5 2902/1/5 2903/1/5 2904/1/5
f 2905/1/6 2906/1/6 2907/1/6 2908/1/6
f 2909/3/5 2910/3/5 2911/3/5 2912/3/5
f 2913/3/6 2914/3/6 2915/3/6 2916/3/6
f 2917/2/2 2918/2/2 2919/2/2 2920/2/2
f 2921/2/4 2922/2/4 2923/2/4 2924/2/4
f 2925/2/5 2926/2/5 2927/2/5 2928/2/5
f 2929/2/6 2930/2/6 2931/2/6 2932/2/6
f 2933/1/1 2934/1/1 2935/1/1 2936/1/1
f 2937/1/2 2938/1/2 2939/1/2 2940/1/2
f 2941/1/5 2942/1/5 2943/1/5 2944/1/5
f 2945/1/6 2946/1/6 2947/1/6 2948/1/6
f 2949/3/1 2950/3/1 2951/3/1 2952/3/1
f 2953/3/5 2954/3/5 2955/3/5 2956/3/5
f 2957/3/6 2958/3/6 2959/3/6 2960/3/6
f 2961/2/2 2962/2/2 2963/2/2 2964/2/2
f 2965/2/4 2966/2/4 2967/2/4 2968/2/4
f 2969/2/5 2970/2/5 2971/2/5 2972/2/5
f 2973/2/6 2974/2/6 2975/2/6 2976/2/6
f 2977/3/1 2978/3/1 2979/3/1 2980/3/1
f 2981/3/4 2982/3/4 2983/3/4 2984/3/4
f 2985/3/5 2986/3/5 2987/3/5 2988/3/5
f 2989/3/6 2990/3/6 2991/3/6 2992/3/6
f 2993/3/3 2994/3/3 2995/3/3 2996/3/3
f 2997/3/5 2998/3/5 2999/3/5 3000/3/5
f 3001/3/6 3002/3/6 3003/3/6 3004/3/6
f 3005/2/2 3006/2/2 3007/2/2 3008/2/2
f 3009/2/5 3010/2/5 3011/2/5 3012/2/5
f 3013/2/6 3014/2/6 3015/2/6 3016/2/6
f 3017/1/1 3018/1/1 3019/1/1 3020/1/1
f 3021/1/3 3022/1/3 3023/1/3 3024/1/3
f 3025/1/4 3026/1/4 3027/1/4 3028/1/4
f 3029/1/5 3030/1/5 3031/1/5 3032/1/5
f 3033/1/6 3034/1/6 3035/1/6 3036/1/6
f 3037/1/3 3038/1/3 3039/1/3 3040/1/3
f 3041/1/4 3042/1/4 3043/1/4 3044/1/4
f 3045/1/5 3046/1/5 3047/1/5 3048/1/5
f 3049/1/6 3050/1/6 3051/1/6 3052/1/6
f 3053/1/2 3054/1/2 3055/1/2 3056/1/2
f 3057/1/3 3058/1/3 3059/1/3 3060/1/3
f 3061/1/5 3062/1/5 3063/1/5 3064/1/5
f 3065/1/6 3066/1/6 3067/1/6 3068/1/6
f 3069/2/1 3070/2/1 3071/2/1 3072/2/1
f 3073/2/4 3074/2/4 3075/2/4 3076/2/4
f 3077/2/5 3078/2/5 3079/2/5 3080/2/5
f 3081/2/6 3082/2/6 3083/2/6 3084/2/6
f 3085/2/2 3086/2/2 3087/2/2 3088/2/2
f 3089/2/5 3090/2/5 3091/2/5 3092/2/5
f 3093/2/6 3094/2/6 3095/2/6 3096/2/6
f 3097/1/1 3098/1/1 3099/1/1 3100/1/1
f 3101/1/4 3102/1/4 3103/1/4 3104/1/4
f 3105/1/5 3106/1/5 3107/1/5 3108/1/5
f 3109/1/6 3110/1/6 3111/1/6 3112/1/6
f 3113/1/2 3114/1/2 3115/1/2 3116/1/2
f 3117/1/3 3118/1/3 3119/1/3 3120/1/3
f 3121/1/5 3122/1/5 3123/1/5 3124/1/5
f 3125/1/6 3126/1/6 3127/1/6 3128/1/6
f 3129/2/1 3130/2/1 3131/2/1 3132/2/1
f 3133/2/4 3134/2/4 3135/2/4 3136/2/4
f 3137/2/5 3138/2/5 3139/2/5 3140/2/5
f 3141/2/6 3142/2/6 3143/2/6 3144/2/6
f 3145/2/3 3146/2/3 3147/2/3 3148/2/3
f 3149/2/4 3150/2/4 3151/2/4 3152/2/4
f 3153/2/5 3154/2/5 3155/2/5 3156/2/5
f 3157/2/6 3158/2/6 3159/2/6 3160/2/6
f 3161/2/2 3162/2/2 3163/2/2 3164/2/2
f 3165/2/3 3166/2/3 3167/2/3 3168/2/3
f 3169/2/4 3170/2/4 3171/2/4 3172/2/4
f 3173/2/5 3174/2/5 3175/2/5 3176/2/5
f 3177/2/6 3178/2/6 3179/2/6 3180/2/6
f 3181/1/1 3182/1/1 3183/1/1 3184/1/1
f 3185/1/5 3186/1/5 3187/1/5 3188/1/5
f 3189/1/6 3190/1/6 3191/1/6 3192/1/6
f 3193/1/2 3194/1/2 3195/1/2 3196/1/2
f 3197/1/3 3198/1/3 3199/1/3 3200/1/3
f 3201/1/5 3202/1/5 3203/1/5 3204/1/5
f 3205/1/6 3206/1/6 3207/1/6 3208/1/6
f 3209/1/1 3210/1/1 3211/1/1 3212/1/1
f 3213/1/5 3214/1/5 3215/1/5 3216/1/5
f 3217/1/6 3218/1/6 3219/1/6 3220/1/6
f 3221/3/2 3222/3/2 3223/3/2 3224/3/2
f 3225/3/5 3226/3/5 3227/3/5 3228/3/5
f 3229/3/6 3230/3/6 3231/3/6 3232/3/6
f 3233/3/1 3234/3/1 3235/3/1 3236/3/1
f 3237/3/5 3238/3/5 3239/3/5 3240/3/5
f 3241/3/6 3242/3/6 3243/3/6 3244/3/6
f 3245/3/2 3246/3/2 3247/3/2 3248/3/2
f 3249/3/5 3250/3/5 3251/3/5 3252/3/5
f 3253/3/6 3254/3/6 3255/3/6 3256/3/6
f 3257/3/1 3258/3/1 3259/3/1 3260/3/1
f 3261/3/3 3262/3/3 3263/3/3 3264/3/3
f 3265/3/5 3266/3/5 3267/3/5 3268/3/5
f 3269/3/6 3270/3/6 3271/3/6 3272/3/6
f 3273/3/5 3274/3/5 3275/3/5 3276/3/5
f 3277/3/6 3278/3/6 3279/3/6 3280/3/6
f 3281/3/2 3282/3/2 3283/3/2 3284/3/2
f 3285/3/4 3286/3/4 3287/3/4 3288/3/4
f 3289/3/5 3290/3/5 3291/3/5 3292/3/5
f 3293/3/6 3294/3/6 3295/3/6 3296/3/6
f 3297/2/1 3298/2/1 3299/2/1 3300/2/1
f 3301/2/5 3302/2/5 3303/2/5 3304/2/5
f 3305/2/6 3306/2/6 3307/2/6 3308/2/6
f 3309/2/2 3310/2/2 3311/2/2 3312/2/2
f 3313/2/4 3314/2/4 3315/2/4 3316/2/4
f 3317/2/5 3318/2/5 3319/2/5 3320/2/5
f 3321/2/6 3322/2/6 3323/2/6 3324/2/6
f 3325/2/1 3326/2/1 3327/2/1 3328/2/1
f 3329/2/2 3330/2/2 3331/2/2 3332/2/2
f 3333/2/4 3334/2/4 3335/2/4 3336/2/4
f 3337/2/5 3338/2/5 3339/2/5 3340/2/5
f 3341/2/6 3342/2/6 3343/2/6 3344/2/6
f 3345/1/1 3346/1/1 3347/1/1 3348/1/1
f 3349/1/3 3350/1/3 3351/1/3 3352/1/3
f 3353/1/5 3354/1/5 3355/1/5 3356/1/5
f 3357/1/6 3358/1/6 3359/1/6 3360/1/6
f 3361/1/3 3362/1/3 3363/1/3 3364/1/3
f 3365/1/5 3366/1/5 3367/1/5 3368/1/5
f 3369/1/6 3370/1/6 3371/1/6 3372/1/6
f 3373/1/3 3374/1/3 3375/1/3 3376/1/3
f 3377/1/4 3378/1/4 3379/1/4 3380/1/4
f 3381/1/5 3382/1/5 3383/1/5 3384/1/5
f 3385/1/6 3386/1/6 3387/1/6 3388/1/6
f 3389/1/3 3390/1/3 3391/1/3 3392/1/3
f 3393/1/4 3394/1/4 3395/1/4 3396/1/4
f 3397/1/5 3398/1/5 3399/1/5 3400/1/5
f 3401/1/6 3402/1/6 3403/1/6 3404/1/6
f 3405/1/3 3406/1/3 3407/1/3 3408/1/3
f 3409/1/4 3410/1/4 3411/1/4 3412/1/4
f 3413/1/5 3414/1/5 3415/1/5 3416/1/5
f 3417/1/6 3418/1/6 3419/1/6 3420/1/6
f 3421/1/2 3422/1/2 3423/1/2 3424/1/2
f 3425/1/3 3426/1/3 3427/1/3 3428/1/3
f 3429/1/5 3430/1/5 3431/1/5 3432/1/5
f 3433/1/6 3434/1/6 3435/1/6 3436/1/6
f 3437/1/1 3438/1/1 3439/1/1 3440/1/1
f 3441/1/3 3442/1/3 3443/1/3 3444/1/3
f 3445/1/4 3446/1/4 3447/1/4 3448/1/4
f 3449/1/5 3450/1/5 3451/1/5 3452/1/5
f 3453/1/6 3454/1/6 3455/1/6 3456/1/6
f 3457/1/3 3458/1/3 3459/1/3 3460/1/3
f 3461/1/4 3462/1/4 3463/1/4 3464/1/4
f 3465/1/5 3466/1/5 3467/1/5 3468/1/5
f 3469/1/6 3470/1/6 3471/1/6 3472/1/6
f 3473/1/4 3474/1/4 3475/1/4 3476/1/4
f 3477/1/5 3478/1/5 3479/1/5 3480/1/5
f 3481/1/6 3482/1/6 3483/1/6 3484/1/6
f 3485/1/2 3486/1/2 3487/1/2 3488/1/2
f 3489/1/4 3490/1/4 3491/1/4 3492/1/4
f 3493/1/5 3494/1/5 3495/1/5 3496/1/5
f 3497/1/6 3498/1/6 3499/1/6 3500/1/6
f 3501/1/1 3502/1/1 3503/1/1 3504/1/1
f 3505/1/4 3506/1/4 3507/1/4 3508/1/4
f 3509/1/5 3510/1/5 3511/1/5 3512/1/5
f 3513/1/6 3514/1/6 3515/1/6 3516/1/6
f 3517/1/3 3518/1/3 3519/1/3 3520/1/3
f 3521/1/4 3522/1/4 3523/1/4 3524/1/4
f 3525/1/5 3526/1/5 3527/1/5 3528/1/5
f 3529/1/6 3530/1/6 3531/1/6 3532/1/6
f 3533/1/2 3534/1/2 3535/1/2 3536/1/2
f 3537/1/3 3538/1/3 3539/1/3 3540/1/3
f 3541/1/4 3542/1/4 3543/1/4 3544/1/4
f 3545/1/5 3546/1/5 3547/1/5 3548/1/5
f 3549/1/6 3550/1/6 3551/1/6 3552/1/6

