# generated by vox_to_obj_exporter
# scale=0.1 center=false ground=false y_up=true

mtllib Fight_723.mtl
usemtl palette

# normals
vn -1 0 0
vn 1 0 0
vn 0 1 0
vn 0 -1 0
vn 0 0 1
vn 0 0 -1

# texcoords
vt 0.134765625 0.5

# verts
v 3.2 7.3 -2.6
v 3.2 7.2 -2.6
v 3.2 7.2 -2.5
v 3.2 7.3 -2.5
v 3.3 7.3 -2.5
v 3.3 7.2 -2.5
v 3.3 7.2 -2.6
v 3.3 7.3 -2.6
v 3.2 7.3 -2.6
v 3.2 7.3 -2.5
v 3.3 7.3 -2.5
v 3.3 7.3 -2.6
v 3.2 7.3 -2.5
v 3.2 7.2 -2.5
v 3.3 7.2 -2.5
v 3.3 7.3 -2.5
v 3.3 7.3 -2.6
v 3.3 7.2 -2.6
v 3.2 7.2 -2.6
v 3.2 7.3 -2.6
v 3 7.2 -2.6
v 3 7.1 -2.6
v 3 7.1 -2.5
v 3 7.2 -2.5
v 3 7.2 -2.6
v 3 7.2 -2.5
v 3.1 7.2 -2.5
v 3.1 7.2 -2.6
v 3 7.2 -2.5
v 3 7.1 -2.5
v 3.1 7.1 -2.5
v 3.1 7.2 -2.5
v 3.1 7.2 -2.6
v 3.1 7.1 -2.6
v 3 7.1 -2.6
v 3 7.2 -2.6
v 3.1 7.2 -2.6
v 3.1 7.2 -2.5
v 3.2 7.2 -2.5
v 3.2 7.2 -2.6
v 3.1 7.2 -2.5
v 3.1 7.1 -2.5
v 3.2 7.1 -2.5
v 3.2 7.2 -2.5
v 3.2 7.2 -2.6
v 3.2 7.1 -2.6
v 3.1 7.1 -2.6
v 3.1 7.2 -2.6
v 3.3 7.2 -2.5
v 3.3 7.1 -2.5
v 3.3 7.1 -2.6
v 3.3 7.2 -2.6
v 3.2 7.1 -2.5
v 3.2 7.1 -2.6
v 3.3 7.1 -2.6
v 3.3 7.1 -2.5
v 3.2 7.2 -2.5
v 3.2 7.1 -2.5
v 3.3 7.1 -2.5
v 3.3 7.2 -2.5
v 3.3 7.2 -2.6
v 3.3 7.1 -2.6
v 3.2 7.1 -2.6
v 3.2 7.2 -2.6
v 2.8 7.1 -2.6
v 2.8 7 -2.6
v 2.8 7 -2.5
v 2.8 7.1 -2.5
v 2.8 7.1 -2.6
v 2.8 7.1 -2.5
v 2.9 7.1 -2.5
v 2.9 7.1 -2.6
v 2.8 7.1 -2.5
v 2.8 7 -2.5
v 2.9 7 -2.5
v 2.9 7.1 -2.5
v 2.9 7.1 -2.6
v 2.9 7 -2.6
v 2.8 7 -2.6
v 2.8 7.1 -2.6
v 2.9 7.1 -2.6
v 2.9 7.1 -2.5
v 3 7.1 -2.5
v 3 7.1 -2.6
v 2.9 7.1 -2.5
v 2.9 7 -2.5
v 3 7 -2.5
v 3 7.1 -2.5
v 3 7.1 -2.6
v 3 7 -2.6
v 2.9 7 -2.6
v 2.9 7.1 -2.6
v 3 7.1 -2.5
v 3 7 -2.5
v 3.1 7 -2.5
v 3.1 7.1 -2.5
v 3.1 7.1 -2.6
v 3.1 7 -2.6
v 3 7 -2.6
v 3 7.1 -2.6
v 3.2 7.1 -2.5
v 3.2 7 -2.5
v 3.2 7 -2.6
v 3.2 7.1 -2.6
v 3.1 7.1 -2.5
v 3.1 7 -2.5
v 3.2 7 -2.5
v 3.2 7.1 -2.5
v 3.2 7.1 -2.6
v 3.2 7 -2.6
v 3.1 7 -2.6
v 3.1 7.1 -2.6
v 2.6 7 -2.6
v 2.6 6.9 -2.6
v 2.6 6.9 -2.5
v 2.6 7 -2.5
v 2.6 7 -2.6
v 2.6 7 -2.5
v 2.7 7 -2.5
v 2.7 7 -2.6
v 2.6 7 -2.5
v 2.6 6.9 -2.5
v 2.7 6.9 -2.5
v 2.7 7 -2.5
v 2.7 7 -2.6
v 2.7 6.9 -2.6
v 2.6 6.9 -2.6
v 2.6 7 -2.6
v 2.7 7 -2.6
v 2.7 7 -2.5
v 2.8 7 -2.5
v 2.8 7 -2.6
v 2.7 7 -2.5
v 2.7 6.9 -2.5
v 2.8 6.9 -2.5
v 2.8 7 -2.5
v 2.8 7 -2.6
v 2.8 6.9 -2.6
v 2.7 6.9 -2.6
v 2.7 7 -2.6
v 2.8 7 -2.5
v 2.8 6.9 -2.5
v 2.9 6.9 -2.5
v 2.9 7 -2.5
v 2.9 7 -2.6
v 2.9 6.9 -2.6
v 2.8 6.9 -2.6
v 2.8 7 -2.6
v 2.9 7 -2.5
v 2.9 6.9 -2.5
v 3 6.9 -2.5
v 3 7 -2.5
v 3 7 -2.6
v 3 6.9 -2.6
v 2.9 6.9 -2.6
v 2.9 7 -2.6
v 3 7 -2.5
v 3 6.9 -2.5
v 3.1 6.9 -2.5
v 3.1 7 -2.5
v 3.1 7 -2.6
v 3.1 6.9 -2.6
v 3 6.9 -2.6
v 3 7 -2.6
v 3.2 7 -2.5
v 3.2 6.9 -2.5
v 3.2 6.9 -2.6
v 3.2 7 -2.6
v 3.1 7 -2.5
v 3.1 6.9 -2.5
v 3.2 6.9 -2.5
v 3.2 7 -2.5
v 3.2 7 -2.6
v 3.2 6.9 -2.6
v 3.1 6.9 -2.6
v 3.1 7 -2.6
v 2.4 6.9 -2.6
v 2.4 6.8 -2.6
v 2.4 6.8 -2.5
v 2.4 6.9 -2.5
v 2.4 6.9 -2.6
v 2.4 6.9 -2.5
v 2.5 6.9 -2.5
v 2.5 6.9 -2.6
v 2.4 6.9 -2.5
v 2.4 6.8 -2.5
v 2.5 6.8 -2.5
v 2.5 6.9 -2.5
v 2.5 6.9 -2.6
v 2.5 6.8 -2.6
v 2.4 6.8 -2.6
v 2.4 6.9 -2.6
v 2.5 6.9 -2.6
v 2.5 6.9 -2.5
v 2.6 6.9 -2.5
v 2.6 6.9 -2.6
v 2.5 6.9 -2.5
v 2.5 6.8 -2.5
v 2.6 6.8 -2.5
v 2.6 6.9 -2.5
v 2.6 6.9 -2.6
v 2.6 6.8 -2.6
v 2.5 6.8 -2.6
v 2.5 6.9 -2.6
v 2.6 6.9 -2.5
v 2.6 6.8 -2.5
v 2.7 6.8 -2.5
v 2.7 6.9 -2.5
v 2.7 6.9 -2.6
v 2.7 6.8 -2.6
v 2.6 6.8 -2.6
v 2.6 6.9 -2.6
v 2.7 6.9 -2.5
v 2.7 6.8 -2.5
v 2.8 6.8 -2.5
v 2.8 6.9 -2.5
v 2.8 6.9 -2.6
v 2.8 6.8 -2.6
v 2.7 6.8 -2.6
v 2.7 6.9 -2.6
v 2.8 6.9 -2.5
v 2.8 6.8 -2.5
v 2.9 6.8 -2.5
v 2.9 6.9 -2.5
v 2.9 6.9 -2.6
v 2.9 6.8 -2.6
v 2.8 6.8 -2.6
v 2.8 6.9 -2.6
v 2.9 6.9 -2.5
v 2.9 6.8 -2.5
v 3 6.8 -2.5
v 3 6.9 -2.5
v 3 6.9 -2.6
v 3 6.8 -2.6
v 2.9 6.8 -2.6
v 2.9 6.9 -2.6
v 3 6.9 -2.5
v 3 6.8 -2.5
v 3.1 6.8 -2.5
v 3.1 6.9 -2.5
v 3.1 6.9 -2.6
v 3.1 6.8 -2.6
v 3 6.8 -2.6
v 3 6.9 -2.6
v 3.2 6.9 -2.5
v 3.2 6.8 -2.5
v 3.2 6.8 -2.6
v 3.2 6.9 -2.6
v 3.1 6.9 -2.5
v 3.1 6.8 -2.5
v 3.2 6.8 -2.5
v 3.2 6.9 -2.5
v 3.2 6.9 -2.6
v 3.2 6.8 -2.6
v 3.1 6.8 -2.6
v 3.1 6.9 -2.6
v 2.2 6.8 -2.6
v 2.2 6.7 -2.6
v 2.2 6.7 -2.5
v 2.2 6.8 -2.5
v 2.2 6.8 -2.6
v 2.2 6.8 -2.5
v 2.3 6.8 -2.5
v 2.3 6.8 -2.6
v 2.2 6.8 -2.5
v 2.2 6.7 -2.5
v 2.3 6.7 -2.5
v 2.3 6.8 -2.5
v 2.3 6.8 -2.6
v 2.3 6.7 -2.6
v 2.2 6.7 -2.6
v 2.2 6.8 -2.6
v 2.3 6.8 -2.6
v 2.3 6.8 -2.5
v 2.4 6.8 -2.5
v 2.4 6.8 -2.6
v 2.3 6.8 -2.5
v 2.3 6.7 -2.5
v 2.4 6.7 -2.5
v 2.4 6.8 -2.5
v 2.4 6.8 -2.6
v 2.4 6.7 -2.6
v 2.3 6.7 -2.6
v 2.3 6.8 -2.6
v 2.4 6.8 -2.5
v 2.4 6.7 -2.5
v 2.5 6.7 -2.5
v 2.5 6.8 -2.5
v 2.5 6.8 -2.6
v 2.5 6.7 -2.6
v 2.4 6.7 -2.6
v 2.4 6.8 -2.6
v 2.5 6.8 -2.5
v 2.5 6.7 -2.5
v 2.6 6.7 -2.5
v 2.6 6.8 -2.5
v 2.6 6.8 -2.6
v 2.6 6.7 -2.6
v 2.5 6.7 -2.6
v 2.5 6.8 -2.6
v 2.6 6.8 -2.5
v 2.6 6.7 -2.5
v 2.7 6.7 -2.5
v 2.7 6.8 -2.5
v 2.7 6.8 -2.6
v 2.7 6.7 -2.6
v 2.6 6.7 -2.6
v 2.6 6.8 -2.6
v 2.7 6.8 -2.5
v 2.7 6.7 -2.5
v 2.8 6.7 -2.5
v 2.8 6.8 -2.5
v 2.8 6.8 -2.6
v 2.8 6.7 -2.6
v 2.7 6.7 -2.6
v 2.7 6.8 -2.6
v 2.8 6.8 -2.5
v 2.8 6.7 -2.5
v 2.9 6.7 -2.5
v 2.9 6.8 -2.5
v 2.9 6.8 -2.6
v 2.9 6.7 -2.6
v 2.8 6.7 -2.6
v 2.8 6.8 -2.6
v 2.9 6.8 -2.5
v 2.9 6.7 -2.5
v 3 6.7 -2.5
v 3 6.8 -2.5
v 3 6.8 -2.6
v 3 6.7 -2.6
v 2.9 6.7 -2.6
v 2.9 6.8 -2.6
v 3 6.7 -2.5
v 3 6.7 -2.6
v 3.1 6.7 -2.6
v 3.1 6.7 -2.5
v 3 6.8 -2.5
v 3 6.7 -2.5
v 3.1 6.7 -2.5
v 3.1 6.8 -2.5
v 3.1 6.8 -2.6
v 3.1 6.7 -2.6
v 3 6.7 -2.6
v 3 6.8 -2.6
v 3.2 6.8 -2.5
v 3.2 6.7 -2.5
v 3.2 6.7 -2.6
v 3.2 6.8 -2.6
v 3.1 6.7 -2.5
v 3.1 6.7 -2.6
v 3.2 6.7 -2.6
v 3.2 6.7 -2.5
v 3.1 6.8 -2.5
v 3.1 6.7 -2.5
v 3.2 6.7 -2.5
v 3.2 6.8 -2.5
v 3.2 6.8 -2.6
v 3.2 6.7 -2.6
v 3.1 6.7 -2.6
v 3.1 6.8 -2.6
v 2 6.7 -2.6
v 2 6.6 -2.6
v 2 6.6 -2.5
v 2 6.7 -2.5
v 2 6.7 -2.6
v 2 6.7 -2.5
v 2.1 6.7 -2.5
v 2.1 6.7 -2.6
v 2 6.7 -2.5
v 2 6.6 -2.5
v 2.1 6.6 -2.5
v 2.1 6.7 -2.5
v 2.1 6.7 -2.6
v 2.1 6.6 -2.6
v 2 6.6 -2.6
v 2 6.7 -2.6
v 2.1 6.7 -2.6
v 2.1 6.7 -2.5
v 2.2 6.7 -2.5
v 2.2 6.7 -2.6
v 2.1 6.7 -2.5
v 2.1 6.6 -2.5
v 2.2 6.6 -2.5
v 2.2 6.7 -2.5
v 2.2 6.7 -2.6
v 2.2 6.6 -2.6
v 2.1 6.6 -2.6
v 2.1 6.7 -2.6
v 2.2 6.7 -2.5
v 2.2 6.6 -2.5
v 2.3 6.6 -2.5
v 2.3 6.7 -2.5
v 2.3 6.7 -2.6
v 2.3 6.6 -2.6
v 2.2 6.6 -2.6
v 2.2 6.7 -2.6
v 2.3 6.7 -2.5
v 2.3 6.6 -2.5
v 2.4 6.6 -2.5
v 2.4 6.7 -2.5
v 2.4 6.7 -2.6
v 2.4 6.6 -2.6
v 2.3 6.6 -2.6
v 2.3 6.7 -2.6
v 2.4 6.7 -2.5
v 2.4 6.6 -2.5
v 2.5 6.6 -2.5
v 2.5 6.7 -2.5
v 2.5 6.7 -2.6
v 2.5 6.6 -2.6
v 2.4 6.6 -2.6
v 2.4 6.7 -2.6
v 2.5 6.7 -2.5
v 2.5 6.6 -2.5
v 2.6 6.6 -2.5
v 2.6 6.7 -2.5
v 2.6 6.7 -2.6
v 2.6 6.6 -2.6
v 2.5 6.6 -2.6
v 2.5 6.7 -2.6
v 2.6 6.7 -2.5
v 2.6 6.6 -2.5
v 2.7 6.6 -2.5
v 2.7 6.7 -2.5
v 2.7 6.7 -2.6
v 2.7 6.6 -2.6
v 2.6 6.6 -2.6
v 2.6 6.7 -2.6
v 2.7 6.7 -2.5
v 2.7 6.6 -2.5
v 2.8 6.6 -2.5
v 2.8 6.7 -2.5
v 2.8 6.7 -2.6
v 2.8 6.6 -2.6
v 2.7 6.6 -2.6
v 2.7 6.7 -2.6
v 2.8 6.6 -2.5
v 2.8 6.6 -2.6
v 2.9 6.6 -2.6
v 2.9 6.6 -2.5
v 2.8 6.7 -2.5
v 2.8 6.6 -2.5
v 2.9 6.6 -2.5
v 2.9 6.7 -2.5
v 2.9 6.7 -2.6
v 2.9 6.6 -2.6
v 2.8 6.6 -2.6
v 2.8 6.7 -2.6
v 3 6.7 -2.5
v 3 6.6 -2.5
v 3 6.6 -2.6
v 3 6.7 -2.6
v 2.9 6.6 -2.5
v 2.9 6.6 -2.6
v 3 6.6 -2.6
v 3 6.6 -2.5
v 2.9 6.7 -2.5
v 2.9 6.6 -2.5
v 3 6.6 -2.5
v 3 6.7 -2.5
v 3 6.7 -2.6
v 3 6.6 -2.6
v 2.9 6.6 -2.6
v 2.9 6.7 -2.6
v 1.8 6.6 -2.6
v 1.8 6.5 -2.6
v 1.8 6.5 -2.5
v 1.8 6.6 -2.5
v 1.8 6.6 -2.6
v 1.8 6.6 -2.5
v 1.9 6.6 -2.5
v 1.9 6.6 -2.6
v 1.8 6.6 -2.5
v 1.8 6.5 -2.5
v 1.9 6.5 -2.5
v 1.9 6.6 -2.5
v 1.9 6.6 -2.6
v 1.9 6.5 -2.6
v 1.8 6.5 -2.6
v 1.8 6.6 -2.6
v 1.9 6.6 -2.6
v 1.9 6.6 -2.5
v 2 6.6 -2.5
v 2 6.6 -2.6
v 1.9 6.6 -2.5
v 1.9 6.5 -2.5
v 2 6.5 -2.5
v 2 6.6 -2.5
v 2 6.6 -2.6
v 2 6.5 -2.6
v 1.9 6.5 -2.6
v 1.9 6.6 -2.6
v 2 6.6 -2.5
v 2 6.5 -2.5
v 2.1 6.5 -2.5
v 2.1 6.6 -2.5
v 2.1 6.6 -2.6
v 2.1 6.5 -2.6
v 2 6.5 -2.6
v 2 6.6 -2.6
v 2.1 6.6 -2.5
v 2.1 6.5 -2.5
v 2.2 6.5 -2.5
v 2.2 6.6 -2.5
v 2.2 6.6 -2.6
v 2.2 6.5 -2.6
v 2.1 6.5 -2.6
v 2.1 6.6 -2.6
v 2.2 6.6 -2.5
v 2.2 6.5 -2.5
v 2.3 6.5 -2.5
v 2.3 6.6 -2.5
v 2.3 6.6 -2.6
v 2.3 6.5 -2.6
v 2.2 6.5 -2.6
v 2.2 6.6 -2.6
v 2.3 6.6 -2.5
v 2.3 6.5 -2.5
v 2.4 6.5 -2.5
v 2.4 6.6 -2.5
v 2.4 6.6 -2.6
v 2.4 6.5 -2.6
v 2.3 6.5 -2.6
v 2.3 6.6 -2.6
v 2.4 6.6 -2.5
v 2.4 6.5 -2.5
v 2.5 6.5 -2.5
v 2.5 6.6 -2.5
v 2.5 6.6 -2.6
v 2.5 6.5 -2.6
v 2.4 6.5 -2.6
v 2.4 6.6 -2.6
v 2.5 6.6 -2.5
v 2.5 6.5 -2.5
v 2.6 6.5 -2.5
v 2.6 6.6 -2.5
v 2.6 6.6 -2.6
v 2.6 6.5 -2.6
v 2.5 6.5 -2.6
v 2.5 6.6 -2.6
v 2.6 6.5 -2.5
v 2.6 6.5 -2.6
v 2.7 6.5 -2.6
v 2.7 6.5 -2.5
v 2.6 6.6 -2.5
v 2.6 6.5 -2.5
v 2.7 6.5 -2.5
v 2.7 6.6 -2.5
v 2.7 6.6 -2.6
v 2.7 6.5 -2.6
v 2.6 6.5 -2.6
v 2.6 6.6 -2.6
v 2.8 6.6 -2.5
v 2.8 6.5 -2.5
v 2.8 6.5 -2.6
v 2.8 6.6 -2.6
v 2.7 6.5 -2.5
v 2.7 6.5 -2.6
v 2.8 6.5 -2.6
v 2.8 6.5 -2.5
v 2.7 6.6 -2.5
v 2.7 6.5 -2.5
v 2.8 6.5 -2.5
v 2.8 6.6 -2.5
v 2.8 6.6 -2.6
v 2.8 6.5 -2.6
v 2.7 6.5 -2.6
v 2.7 6.6 -2.6
v 1.6 6.5 -2.6
v 1.6 6.4 -2.6
v 1.6 6.4 -2.5
v 1.6 6.5 -2.5
v 1.6 6.5 -2.6
v 1.6 6.5 -2.5
v 1.7 6.5 -2.5
v 1.7 6.5 -2.6
v 1.6 6.5 -2.5
v 1.6 6.4 -2.5
v 1.7 6.4 -2.5
v 1.7 6.5 -2.5
v 1.7 6.5 -2.6
v 1.7 6.4 -2.6
v 1.6 6.4 -2.6
v 1.6 6.5 -2.6
v 1.7 6.5 -2.6
v 1.7 6.5 -2.5
v 1.8 6.5 -2.5
v 1.8 6.5 -2.6
v 1.7 6.5 -2.5
v 1.7 6.4 -2.5
v 1.8 6.4 -2.5
v 1.8 6.5 -2.5
v 1.8 6.5 -2.6
v 1.8 6.4 -2.6
v 1.7 6.4 -2.6
v 1.7 6.5 -2.6
v 1.8 6.5 -2.5
v 1.8 6.4 -2.5
v 1.9 6.4 -2.5
v 1.9 6.5 -2.5
v 1.9 6.5 -2.6
v 1.9 6.4 -2.6
v 1.8 6.4 -2.6
v 1.8 6.5 -2.6
v 1.9 6.5 -2.5
v 1.9 6.4 -2.5
v 2 6.4 -2.5
v 2 6.5 -2.5
v 2 6.5 -2.6
v 2 6.4 -2.6
v 1.9 6.4 -2.6
v 1.9 6.5 -2.6
v 2 6.5 -2.5
v 2 6.4 -2.5
v 2.1 6.4 -2.5
v 2.1 6.5 -2.5
v 2.1 6.5 -2.6
v 2.1 6.4 -2.6
v 2 6.4 -2.6
v 2 6.5 -2.6
v 2.1 6.5 -2.5
v 2.1 6.4 -2.5
v 2.2 6.4 -2.5
v 2.2 6.5 -2.5
v 2.2 6.5 -2.6
v 2.2 6.4 -2.6
v 2.1 6.4 -2.6
v 2.1 6.5 -2.6
v 2.2 6.5 -2.5
v 2.2 6.4 -2.5
v 2.3 6.4 -2.5
v 2.3 6.5 -2.5
v 2.3 6.5 -2.6
v 2.3 6.4 -2.6
v 2.2 6.4 -2.6
v 2.2 6.5 -2.6
v 2.3 6.5 -2.5
v 2.3 6.4 -2.5
v 2.4 6.4 -2.5
v 2.4 6.5 -2.5
v 2.4 6.5 -2.6
v 2.4 6.4 -2.6
v 2.3 6.4 -2.6
v 2.3 6.5 -2.6
v 2.4 6.4 -2.5
v 2.4 6.4 -2.6
v 2.5 6.4 -2.6
v 2.5 6.4 -2.5
v 2.4 6.5 -2.5
v 2.4 6.4 -2.5
v 2.5 6.4 -2.5
v 2.5 6.5 -2.5
v 2.5 6.5 -2.6
v 2.5 6.4 -2.6
v 2.4 6.4 -2.6
v 2.4 6.5 -2.6
v 2.6 6.5 -2.5
v 2.6 6.4 -2.5
v 2.6 6.4 -2.6
v 2.6 6.5 -2.6
v 2.5 6.4 -2.5
v 2.5 6.4 -2.6
v 2.6 6.4 -2.6
v 2.6 6.4 -2.5
v 2.5 6.5 -2.5
v 2.5 6.4 -2.5
v 2.6 6.4 -2.5
v 2.6 6.5 -2.5
v 2.6 6.5 -2.6
v 2.6 6.4 -2.6
v 2.5 6.4 -2.6
v 2.5 6.5 -2.6
v 1.4 6.4 -2.6
v 1.4 6.3 -2.6
v 1.4 6.3 -2.5
v 1.4 6.4 -2.5
v 1.4 6.4 -2.6
v 1.4 6.4 -2.5
v 1.5 6.4 -2.5
v 1.5 6.4 -2.6
v 1.4 6.4 -2.5
v 1.4 6.3 -2.5
v 1.5 6.3 -2.5
v 1.5 6.4 -2.5
v 1.5 6.4 -2.6
v 1.5 6.3 -2.6
v 1.4 6.3 -2.6
v 1.4 6.4 -2.6
v 1.5 6.4 -2.6
v 1.5 6.4 -2.5
v 1.6 6.4 -2.5
v 1.6 6.4 -2.6
v 1.5 6.4 -2.5
v 1.5 6.3 -2.5
v 1.6 6.3 -2.5
v 1.6 6.4 -2.5
v 1.6 6.4 -2.6
v 1.6 6.3 -2.6
v 1.5 6.3 -2.6
v 1.5 6.4 -2.6
v 1.6 6.4 -2.5
v 1.6 6.3 -2.5
v 1.7 6.3 -2.5
v 1.7 6.4 -2.5
v 1.7 6.4 -2.6
v 1.7 6.3 -2.6
v 1.6 6.3 -2.6
v 1.6 6.4 -2.6
v 1.7 6.4 -2.5
v 1.7 6.3 -2.5
v 1.8 6.3 -2.5
v 1.8 6.4 -2.5
v 1.8 6.4 -2.6
v 1.8 6.3 -2.6
v 1.7 6.3 -2.6
v 1.7 6.4 -2.6
v 1.8 6.4 -2.5
v 1.8 6.3 -2.5
v 1.9 6.3 -2.5
v 1.9 6.4 -2.5
v 1.9 6.4 -2.6
v 1.9 6.3 -2.6
v 1.8 6.3 -2.6
v 1.8 6.4 -2.6
v 1.9 6.4 -2.5
v 1.9 6.3 -2.5
v 2 6.3 -2.5
v 2 6.4 -2.5
v 2 6.4 -2.6
v 2 6.3 -2.6
v 1.9 6.3 -2.6
v 1.9 6.4 -2.6
v 2 6.4 -2.5
v 2 6.3 -2.5
v 2.1 6.3 -2.5
v 2.1 6.4 -2.5
v 2.1 6.4 -2.6
v 2.1 6.3 -2.6
v 2 6.3 -2.6
v 2 6.4 -2.6
v 2.1 6.4 -2.5
v 2.1 6.3 -2.5
v 2.2 6.3 -2.5
v 2.2 6.4 -2.5
v 2.2 6.4 -2.6
v 2.2 6.3 -2.6
v 2.1 6.3 -2.6
v 2.1 6.4 -2.6
v 2.2 6.3 -2.5
v 2.2 6.3 -2.6
v 2.3 6.3 -2.6
v 2.3 6.3 -2.5
v 2.2 6.4 -2.5
v 2.2 6.3 -2.5
v 2.3 6.3 -2.5
v 2.3 6.4 -2.5
v 2.3 6.4 -2.6
v 2.3 6.3 -2.6
v 2.2 6.3 -2.6
v 2.2 6.4 -2.6
v 2.4 6.4 -2.5
v 2.4 6.3 -2.5
v 2.4 6.3 -2.6
v 2.4 6.4 -2.6
v 2.3 6.3 -2.5
v 2.3 6.3 -2.6
v 2.4 6.3 -2.6
v 2.4 6.3 -2.5
v 2.3 6.4 -2.5
v 2.3 6.3 -2.5
v 2.4 6.3 -2.5
v 2.4 6.4 -2.5
v 2.4 6.4 -2.6
v 2.4 6.3 -2.6
v 2.3 6.3 -2.6
v 2.3 6.4 -2.6
v 1.2 6.3 -2.6
v 1.2 6.2 -2.6
v 1.2 6.2 -2.5
v 1.2 6.3 -2.5
v 1.2 6.3 -2.6
v 1.2 6.3 -2.5
v 1.3 6.3 -2.5
v 1.3 6.3 -2.6
v 1.2 6.3 -2.5
v 1.2 6.2 -2.5
v 1.3 6.2 -2.5
v 1.3 6.3 -2.5
v 1.3 6.3 -2.6
v 1.3 6.2 -2.6
v 1.2 6.2 -2.6
v 1.2 6.3 -2.6
v 1.3 6.3 -2.6
v 1.3 6.3 -2.5
v 1.4 6.3 -2.5
v 1.4 6.3 -2.6
v 1.3 6.3 -2.5
v 1.3 6.2 -2.5
v 1.4 6.2 -2.5
v 1.4 6.3 -2.5
v 1.4 6.3 -2.6
v 1.4 6.2 -2.6
v 1.3 6.2 -2.6
v 1.3 6.3 -2.6
v 1.4 6.3 -2.5
v 1.4 6.2 -2.5
v 1.5 6.2 -2.5
v 1.5 6.3 -2.5
v 1.5 6.3 -2.6
v 1.5 6.2 -2.6
v 1.4 6.2 -2.6
v 1.4 6.3 -2.6
v 1.5 6.3 -2.5
v 1.5 6.2 -2.5
v 1.6 6.2 -2.5
v 1.6 6.3 -2.5
v 1.6 6.3 -2.6
v 1.6 6.2 -2.6
v 1.5 6.2 -2.6
v 1.5 6.3 -2.6
v 1.6 6.3 -2.5
v 1.6 6.2 -2.5
v 1.7 6.2 -2.5
v 1.7 6.3 -2.5
v 1.7 6.3 -2.6
v 1.7 6.2 -2.6
v 1.6 6.2 -2.6
v 1.6 6.3 -2.6
v 1.7 6.3 -2.5
v 1.7 6.2 -2.5
v 1.8 6.2 -2.5
v 1.8 6.3 -2.5
v 1.8 6.3 -2.6
v 1.8 6.2 -2.6
v 1.7 6.2 -2.6
v 1.7 6.3 -2.6
v 1.8 6.3 -2.5
v 1.8 6.2 -2.5
v 1.9 6.2 -2.5
v 1.9 6.3 -2.5
v 1.9 6.3 -2.6
v 1.9 6.2 -2.6
v 1.8 6.2 -2.6
v 1.8 6.3 -2.6
v 1.9 6.3 -2.5
v 1.9 6.2 -2.5
v 2 6.2 -2.5
v 2 6.3 -2.5
v 2 6.3 -2.6
v 2 6.2 -2.6
v 1.9 6.2 -2.6
v 1.9 6.3 -2.6
v 2 6.2 -2.5
v 2 6.2 -2.6
v 2.1 6.2 -2.6
v 2.1 6.2 -2.5
v 2 6.3 -2.5
v 2 6.2 -2.5
v 2.1 6.2 -2.5
v 2.1 6.3 -2.5
v 2.1 6.3 -2.6
v 2.1 6.2 -2.6
v 2 6.2 -2.6
v 2 6.3 -2.6
v 2.2 6.3 -2.5
v 2.2 6.2 -2.5
v 2.2 6.2 -2.6
v 2.2 6.3 -2.6
v 2.1 6.2 -2.5
v 2.1 6.2 -2.6
v 2.2 6.2 -2.6
v 2.2 6.2 -2.5
v 2.1 6.3 -2.5
v 2.1 6.2 -2.5
v 2.2 6.2 -2.5
v 2.2 6.3 -2.5
v 2.2 6.3 -2.6
v 2.2 6.2 -2.6
v 2.1 6.2 -2.6
v 2.1 6.3 -2.6
v 3.2 6.3 -2.6
v 3.2 6.2 -2.6
v 3.2 6.2 -2.5
v 3.2 6.3 -2.5
v 3.2 6.3 -2.6
v 3.2 6.3 -2.5
v 3.3 6.3 -2.5
v 3.3 6.3 -2.6
v 3.2 6.3 -2.5
v 3.2 6.2 -2.5
v 3.3 6.2 -2.5
v 3.3 6.3 -2.5
v 3.3 6.3 -2.6
v 3.3 6.2 -2.6
v 3.2 6.2 -2.6
v 3.2 6.3 -2.6
v 3.3 6.3 -2.6
v 3.3 6.3 -2.5
v 3.4 6.3 -2.5
v 3.4 6.3 -2.6
v 3.3 6.3 -2.5
v 3.3 6.2 -2.5
v 3.4 6.2 -2.5
v 3.4 6.3 -2.5
v 3.4 6.3 -2.6
v 3.4 6.2 -2.6
v 3.3 6.2 -2.6
v 3.3 6.3 -2.6
v 3.5 6.3 -2.5
v 3.5 6.2 -2.5
v 3.5 6.2 -2.6
v 3.5 6.3 -2.6
v 3.4 6.3 -2.6
v 3.4 6.3 -2.5
v 3.5 6.3 -2.5
v 3.5 6.3 -2.6
v 3.4 6.3 -2.5
v 3.4 6.2 -2.5
v 3.5 6.2 -2.5
v 3.5 6.3 -2.5
v 3.5 6.3 -2.6
v 3.5 6.2 -2.6
v 3.4 6.2 -2.6
v 3.4 6.3 -2.6
v 1 6.2 -2.6
v 1 6.1 -2.6
v 1 6.1 -2.5
v 1 6.2 -2.5
v 1 6.2 -2.6
v 1 6.2 -2.5
v 1.1 6.2 -2.5
v 1.1 6.2 -2.6
v 1 6.2 -2.5
v 1 6.1 -2.5
v 1.1 6.1 -2.5
v 1.1 6.2 -2.5
v 1.1 6.2 -2.6
v 1.1 6.1 -2.6
v 1 6.1 -2.6
v 1 6.2 -2.6
v 1.1 6.2 -2.6
v 1.1 6.2 -2.5
v 1.2 6.2 -2.5
v 1.2 6.2 -2.6
v 1.1 6.2 -2.5
v 1.1 6.1 -2.5
v 1.2 6.1 -2.5
v 1.2 6.2 -2.5
v 1.2 6.2 -2.6
v 1.2 6.1 -2.6
v 1.1 6.1 -2.6
v 1.1 6.2 -2.6
v 1.2 6.2 -2.5
v 1.2 6.1 -2.5
v 1.3 6.1 -2.5
v 1.3 6.2 -2.5
v 1.3 6.2 -2.6
v 1.3 6.1 -2.6
v 1.2 6.1 -2.6
v 1.2 6.2 -2.6
v 1.3 6.2 -2.5
v 1.3 6.1 -2.5
v 1.4 6.1 -2.5
v 1.4 6.2 -2.5
v 1.4 6.2 -2.6
v 1.4 6.1 -2.6
v 1.3 6.1 -2.6
v 1.3 6.2 -2.6
v 1.4 6.2 -2.5
v 1.4 6.1 -2.5
v 1.5 6.1 -2.5
v 1.5 6.2 -2.5
v 1.5 6.2 -2.6
v 1.5 6.1 -2.6
v 1.4 6.1 -2.6
v 1.4 6.2 -2.6
v 1.5 6.2 -2.5
v 1.5 6.1 -2.5
v 1.6 6.1 -2.5
v 1.6 6.2 -2.5
v 1.6 6.2 -2.6
v 1.6 6.1 -2.6
v 1.5 6.1 -2.6
v 1.5 6.2 -2.6
v 1.6 6.2 -2.5
v 1.6 6.1 -2.5
v 1.7 6.1 -2.5
v 1.7 6.2 -2.5
v 1.7 6.2 -2.6
v 1.7 6.1 -2.6
v 1.6 6.1 -2.6
v 1.6 6.2 -2.6
v 1.7 6.2 -2.5
v 1.7 6.1 -2.5
v 1.8 6.1 -2.5
v 1.8 6.2 -2.5
v 1.8 6.2 -2.6
v 1.8 6.1 -2.6
v 1.7 6.1 -2.6
v 1.7 6.2 -2.6
v 1.8 6.1 -2.5
v 1.8 6.1 -2.6
v 1.9 6.1 -2.6
v 1.9 6.1 -2.5
v 1.8 6.2 -2.5
v 1.8 6.1 -2.5
v 1.9 6.1 -2.5
v 1.9 6.2 -2.5
v 1.9 6.2 -2.6
v 1.9 6.1 -2.6
v 1.8 6.1 -2.6
v 1.8 6.2 -2.6
v 2 6.2 -2.5
v 2 6.1 -2.5
v 2 6.1 -2.6
v 2 6.2 -2.6
v 1.9 6.1 -2.5
v 1.9 6.1 -2.6
v 2 6.1 -2.6
v 2 6.1 -2.5
v 1.9 6.2 -2.5
v 1.9 6.1 -2.5
v 2 6.1 -2.5
v 2 6.2 -2.5
v 2 6.2 -2.6
v 2 6.1 -2.6
v 1.9 6.1 -2.6
v 1.9 6.2 -2.6
v 3 6.2 -2.6
v 3 6.1 -2.6
v 3 6.1 -2.5
v 3 6.2 -2.5
v 3 6.2 -2.6
v 3 6.2 -2.5
v 3.1 6.2 -2.5
v 3.1 6.2 -2.6
v 3 6.2 -2.5
v 3 6.1 -2.5
v 3.1 6.1 -2.5
v 3.1 6.2 -2.5
v 3.1 6.2 -2.6
v 3.1 6.1 -2.6
v 3 6.1 -2.6
v 3 6.2 -2.6
v 3.1 6.2 -2.6
v 3.1 6.2 -2.5
v 3.2 6.2 -2.5
v 3.2 6.2 -2.6
v 3.1 6.2 -2.5
v 3.1 6.1 -2.5
v 3.2 6.1 -2.5
v 3.2 6.2 -2.5
v 3.2 6.2 -2.6
v 3.2 6.1 -2.6
v 3.1 6.1 -2.6
v 3.1 6.2 -2.6
v 3.2 6.2 -2.5
v 3.2 6.1 -2.5
v 3.3 6.1 -2.5
v 3.3 6.2 -2.5
v 3.3 6.2 -2.6
v 3.3 6.1 -2.6
v 3.2 6.1 -2.6
v 3.2 6.2 -2.6
v 3.3 6.2 -2.5
v 3.3 6.1 -2.5
v 3.4 6.1 -2.5
v 3.4 6.2 -2.5
v 3.4 6.2 -2.6
v 3.4 6.1 -2.6
v 3.3 6.1 -2.6
v 3.3 6.2 -2.6
v 3.4 6.2 -2.5
v 3.4 6.1 -2.5
v 3.5 6.1 -2.5
v 3.5 6.2 -2.5
v 3.5 6.2 -2.6
v 3.5 6.1 -2.6
v 3.4 6.1 -2.6
v 3.4 6.2 -2.6
v 3.5 6.2 -2.6
v 3.5 6.2 -2.5
v 3.6 6.2 -2.5
v 3.6 6.2 -2.6
v 3.5 6.2 -2.5
v 3.5 6.1 -2.5
v 3.6 6.1 -2.5
v 3.6 6.2 -2.5
v 3.6 6.2 -2.6
v 3.6 6.1 -2.6
v 3.5 6.1 -2.6
v 3.5 6.2 -2.6
v 3.6 6.2 -2.6
v 3.6 6.2 -2.5
v 3.7 6.2 -2.5
v 3.7 6.2 -2.6
v 3.6 6.2 -2.5
v 3.6 6.1 -2.5
v 3.7 6.1 -2.5
v 3.7 6.2 -2.5
v 3.7 6.2 -2.6
v 3.7 6.1 -2.6
v 3.6 6.1 -2.6
v 3.6 6.2 -2.6
v 3.8 6.2 -2.5
v 3.8 6.1 -2.5
v 3.8 6.1 -2.6
v 3.8 6.2 -2.6
v 3.7 6.2 -2.6
v 3.7 6.2 -2.5
v 3.8 6.2 -2.5
v 3.8 6.2 -2.6
v 3.7 6.2 -2.5
v 3.7 6.1 -2.5
v 3.8 6.1 -2.5
v 3.8 6.2 -2.5
v 3.8 6.2 -2.6
v 3.8 6.1 -2.6
v 3.7 6.1 -2.6
v 3.7 6.2 -2.6
v 0.8 6.1 -2.6
v 0.8 6 -2.6
v 0.8 6 -2.5
v 0.8 6.1 -2.5
v 0.8 6.1 -2.6
v 0.8 6.1 -2.5
v 0.9 6.1 -2.5
v 0.9 6.1 -2.6
v 0.8 6.1 -2.5
v 0.8 6 -2.5
v 0.9 6 -2.5
v 0.9 6.1 -2.5
v 0.9 6.1 -2.6
v 0.9 6 -2.6
v 0.8 6 -2.6
v 0.8 6.1 -2.6
v 0.9 6.1 -2.6
v 0.9 6.1 -2.5
v 1 6.1 -2.5
v 1 6.1 -2.6
v 0.9 6.1 -2.5
v 0.9 6 -2.5
v 1 6 -2.5
v 1 6.1 -2.5
v 1 6.1 -2.6
v 1 6 -2.6
v 0.9 6 -2.6
v 0.9 6.1 -2.6
v 1 6.1 -2.5
v 1 6 -2.5
v 1.1 6 -2.5
v 1.1 6.1 -2.5
v 1.1 6.1 -2.6
v 1.1 6 -2.6
v 1 6 -2.6
v 1 6.1 -2.6
v 1.1 6.1 -2.5
v 1.1 6 -2.5
v 1.2 6 -2.5
v 1.2 6.1 -2.5
v 1.2 6.1 -2.6
v 1.2 6 -2.6
v 1.1 6 -2.6
v 1.1 6.1 -2.6
v 1.2 6.1 -2.5
v 1.2 6 -2.5
v 1.3 6 -2.5
v 1.3 6.1 -2.5
v 1.3 6.1 -2.6
v 1.3 6 -2.6
v 1.2 6 -2.6
v 1.2 6.1 -2.6
v 1.3 6.1 -2.5
v 1.3 6 -2.5
v 1.4 6 -2.5
v 1.4 6.1 -2.5
v 1.4 6.1 -2.6
v 1.4 6 -2.6
v 1.3 6 -2.6
v 1.3 6.1 -2.6
v 1.4 6.1 -2.5
v 1.4 6 -2.5
v 1.5 6 -2.5
v 1.5 6.1 -2.5
v 1.5 6.1 -2.6
v 1.5 6 -2.6
v 1.4 6 -2.6
v 1.4 6.1 -2.6
v 1.5 6.1 -2.5
v 1.5 6 -2.5
v 1.6 6 -2.5
v 1.6 6.1 -2.5
v 1.6 6.1 -2.6
v 1.6 6 -2.6
v 1.5 6 -2.6
v 1.5 6.1 -2.6
v 1.6 6 -2.5
v 1.6 6 -2.6
v 1.7 6 -2.6
v 1.7 6 -2.5
v 1.6 6.1 -2.5
v 1.6 6 -2.5
v 1.7 6 -2.5
v 1.7 6.1 -2.5
v 1.7 6.1 -2.6
v 1.7 6 -2.6
v 1.6 6 -2.6
v 1.6 6.1 -2.6
v 1.8 6.1 -2.5
v 1.8 6 -2.5
v 1.8 6 -2.6
v 1.8 6.1 -2.6
v 1.7 6 -2.5
v 1.7 6 -2.6
v 1.8 6 -2.6
v 1.8 6 -2.5
v 1.7 6.1 -2.5
v 1.7 6 -2.5
v 1.8 6 -2.5
v 1.8 6.1 -2.5
v 1.8 6.1 -2.6
v 1.8 6 -2.6
v 1.7 6 -2.6
v 1.7 6.1 -2.6
v 2.8 6.1 -2.6
v 2.8 6 -2.6
v 2.8 6 -2.5
v 2.8 6.1 -2.5
v 2.8 6.1 -2.6
v 2.8 6.1 -2.5
v 2.9 6.1 -2.5
v 2.9 6.1 -2.6
v 2.8 6.1 -2.5
v 2.8 6 -2.5
v 2.9 6 -2.5
v 2.9 6.1 -2.5
v 2.9 6.1 -2.6
v 2.9 6 -2.6
v 2.8 6 -2.6
v 2.8 6.1 -2.6
v 2.9 6.1 -2.6
v 2.9 6.1 -2.5
v 3 6.1 -2.5
v 3 6.1 -2.6
v 2.9 6.1 -2.5
v 2.9 6 -2.5
v 3 6 -2.5
v 3 6.1 -2.5
v 3 6.1 -2.6
v 3 6 -2.6
v 2.9 6 -2.6
v 2.9 6.1 -2.6
v 3 6.1 -2.5
v 3 6 -2.5
v 3.1 6 -2.5
v 3.1 6.1 -2.5
v 3.1 6.1 -2.6
v 3.1 6 -2.6
v 3 6 -2.6
v 3 6.1 -2.6
v 3.1 6.1 -2.5
v 3.1 6 -2.5
v 3.2 6 -2.5
v 3.2 6.1 -2.5
v 3.2 6.1 -2.6
v 3.2 6 -2.6
v 3.1 6 -2.6
v 3.1 6.1 -2.6
v 3.2 6.1 -2.5
v 3.2 6 -2.5
v 3.3 6 -2.5
v 3.3 6.1 -2.5
v 3.3 6.1 -2.6
v 3.3 6 -2.6
v 3.2 6 -2.6
v 3.2 6.1 -2.6
v 3.3 6.1 -2.5
v 3.3 6 -2.5
v 3.4 6 -2.5
v 3.4 6.1 -2.5
v 3.4 6.1 -2.6
v 3.4 6 -2.6
v 3.3 6 -2.6
v 3.3 6.1 -2.6
v 3.4 6.1 -2.5
v 3.4 6 -2.5
v 3.5 6 -2.5
v 3.5 6.1 -2.5
v 3.5 6.1 -2.6
v 3.5 6 -2.6
v 3.4 6 -2.6
v 3.4 6.1 -2.6
v 3.5 6.1 -2.5
v 3.5 6 -2.5
v 3.6 6 -2.5
v 3.6 6.1 -2.5
v 3.6 6.1 -2.6
v 3.6 6 -2.6
v 3.5 6 -2.6
v 3.5 6.1 -2.6
v 3.6 6.1 -2.5
v 3.6 6 -2.5
v 3.7 6 -2.5
v 3.7 6.1 -2.5
v 3.7 6.1 -2.6
v 3.7 6 -2.6
v 3.6 6 -2.6
v 3.6 6.1 -2.6
v 3.7 6 -2.5
v 3.7 6 -2.6
v 3.8 6 -2.6
v 3.8 6 -2.5
v 3.7 6.1 -2.5
v 3.7 6 -2.5
v 3.8 6 -2.5
v 3.8 6.1 -2.5
v 3.8 6.1 -2.6
v 3.8 6 -2.6
v 3.7 6 -2.6
v 3.7 6.1 -2.6
v 3.9 6.1 -2.5
v 3.9 6 -2.5
v 3.9 6 -2.6
v 3.9 6.1 -2.6
v 3.8 6.1 -2.6
v 3.8 6.1 -2.5
v 3.9 6.1 -2.5
v 3.9 6.1 -2.6
v 3.8 6 -2.5
v 3.8 6 -2.6
v 3.9 6 -2.6
v 3.9 6 -2.5
v 3.8 6.1 -2.5
v 3.8 6 -2.5
v 3.9 6 -2.5
v 3.9 6.1 -2.5
v 3.9 6.1 -2.6
v 3.9 6 -2.6
v 3.8 6 -2.6
v 3.8 6.1 -2.6
v 0.6 6 -2.6
v 0.6 5.9 -2.6
v 0.6 5.9 -2.5
v 0.6 6 -2.5
v 0.6 6 -2.6
v 0.6 6 -2.5
v 0.7 6 -2.5
v 0.7 6 -2.6
v 0.6 6 -2.5
v 0.6 5.9 -2.5
v 0.7 5.9 -2.5
v 0.7 6 -2.5
v 0.7 6 -2.6
v 0.7 5.9 -2.6
v 0.6 5.9 -2.6
v 0.6 6 -2.6
v 0.7 6 -2.6
v 0.7 6 -2.5
v 0.8 6 -2.5
v 0.8 6 -2.6
v 0.7 6 -2.5
v 0.7 5.9 -2.5
v 0.8 5.9 -2.5
v 0.8 6 -2.5
v 0.8 6 -2.6
v 0.8 5.9 -2.6
v 0.7 5.9 -2.6
v 0.7 6 -2.6
v 0.8 6 -2.5
v 0.8 5.9 -2.5
v 0.9 5.9 -2.5
v 0.9 6 -2.5
v 0.9 6 -2.6
v 0.9 5.9 -2.6
v 0.8 5.9 -2.6
v 0.8 6 -2.6
v 0.9 6 -2.5
v 0.9 5.9 -2.5
v 1 5.9 -2.5
v 1 6 -2.5
v 1 6 -2.6
v 1 5.9 -2.6
v 0.9 5.9 -2.6
v 0.9 6 -2.6
v 1 6 -2.5
v 1 5.9 -2.5
v 1.1 5.9 -2.5
v 1.1 6 -2.5
v 1.1 6 -2.6
v 1.1 5.9 -2.6
v 1 5.9 -2.6
v 1 6 -2.6
v 1.1 6 -2.5
v 1.1 5.9 -2.5
v 1.2 5.9 -2.5
v 1.2 6 -2.5
v 1.2 6 -2.6
v 1.2 5.9 -2.6
v 1.1 5.9 -2.6
v 1.1 6 -2.6
v 1.2 6 -2.5
v 1.2 5.9 -2.5
v 1.3 5.9 -2.5
v 1.3 6 -2.5
v 1.3 6 -2.6
v 1.3 5.9 -2.6
v 1.2 5.9 -2.6
v 1.2 6 -2.6
v 1.3 6 -2.5
v 1.3 5.9 -2.5
v 1.4 5.9 -2.5
v 1.4 6 -2.5
v 1.4 6 -2.6
v 1.4 5.9 -2.6
v 1.3 5.9 -2.6
v 1.3 6 -2.6
v 1.4 5.9 -2.5
v 1.4 5.9 -2.6
v 1.5 5.9 -2.6
v 1.5 5.9 -2.5
v 1.4 6 -2.5
v 1.4 5.9 -2.5
v 1.5 5.9 -2.5
v 1.5 6 -2.5
v 1.5 6 -2.6
v 1.5 5.9 -2.6
v 1.4 5.9 -2.6
v 1.4 6 -2.6
v 1.6 6 -2.5
v 1.6 5.9 -2.5
v 1.6 5.9 -2.6
v 1.6 6 -2.6
v 1.5 5.9 -2.5
v 1.5 5.9 -2.6
v 1.6 5.9 -2.6
v 1.6 5.9 -2.5
v 1.5 6 -2.5
v 1.5 5.9 -2.5
v 1.6 5.9 -2.5
v 1.6 6 -2.5
v 1.6 6 -2.6
v 1.6 5.9 -2.6
v 1.5 5.9 -2.6
v 1.5 6 -2.6
v 2.6 6 -2.6
v 2.6 5.9 -2.6
v 2.6 5.9 -2.5
v 2.6 6 -2.5
v 2.6 6 -2.6
v 2.6 6 -2.5
v 2.7 6 -2.5
v 2.7 6 -2.6
v 2.6 6 -2.5
v 2.6 5.9 -2.5
v 2.7 5.9 -2.5
v 2.7 6 -2.5
v 2.7 6 -2.6
v 2.7 5.9 -2.6
v 2.6 5.9 -2.6
v 2.6 6 -2.6
v 2.7 6 -2.6
v 2.7 6 -2.5
v 2.8 6 -2.5
v 2.8 6 -2.6
v 2.7 6 -2.5
v 2.7 5.9 -2.5
v 2.8 5.9 -2.5
v 2.8 6 -2.5
v 2.8 6 -2.6
v 2.8 5.9 -2.6
v 2.7 5.9 -2.6
v 2.7 6 -2.6
v 2.8 6 -2.5
v 2.8 5.9 -2.5
v 2.9 5.9 -2.5
v 2.9 6 -2.5
v 2.9 6 -2.6
v 2.9 5.9 -2.6
v 2.8 5.9 -2.6
v 2.8 6 -2.6
v 2.9 6 -2.5
v 2.9 5.9 -2.5
v 3 5.9 -2.5
v 3 6 -2.5
v 3 6 -2.6
v 3 5.9 -2.6
v 2.9 5.9 -2.6
v 2.9 6 -2.6
v 3 6 -2.5
v 3 5.9 -2.5
v 3.1 5.9 -2.5
v 3.1 6 -2.5
v 3.1 6 -2.6
v 3.1 5.9 -2.6
v 3 5.9 -2.6
v 3 6 -2.6
v 3.1 6 -2.5
v 3.1 5.9 -2.5
v 3.2 5.9 -2.5
v 3.2 6 -2.5
v 3.2 6 -2.6
v 3.2 5.9 -2.6
v 3.1 5.9 -2.6
v 3.1 6 -2.6
v 3.2 6 -2.5
v 3.2 5.9 -2.5
v 3.3 5.9 -2.5
v 3.3 6 -2.5
v 3.3 6 -2.6
v 3.3 5.9 -2.6
v 3.2 5.9 -2.6
v 3.2 6 -2.6
v 3.3 6 -2.5
v 3.3 5.9 -2.5
v 3.4 5.9 -2.5
v 3.4 6 -2.5
v 3.4 6 -2.6
v 3.4 5.9 -2.6
v 3.3 5.9 -2.6
v 3.3 6 -2.6
v 3.4 6 -2.5
v 3.4 5.9 -2.5
v 3.5 5.9 -2.5
v 3.5 6 -2.5
v 3.5 6 -2.6
v 3.5 5.9 -2.6
v 3.4 5.9 -2.6
v 3.4 6 -2.6
v 3.5 5.9 -2.5
v 3.5 5.9 -2.6
v 3.6 5.9 -2.6
v 3.6 5.9 -2.5
v 3.5 6 -2.5
v 3.5 5.9 -2.5
v 3.6 5.9 -2.5
v 3.6 6 -2.5
v 3.6 6 -2.6
v 3.6 5.9 -2.6
v 3.5 5.9 -2.6
v 3.5 6 -2.6
v 3.7 6 -2.5
v 3.7 5.9 -2.5
v 3.7 5.9 -2.6
v 3.7 6 -2.6
v 3.6 5.9 -2.5
v 3.6 5.9 -2.6
v 3.7 5.9 -2.6
v 3.7 5.9 -2.5
v 3.6 6 -2.5
v 3.6 5.9 -2.5
v 3.7 5.9 -2.5
v 3.7 6 -2.5
v 3.7 6 -2.6
v 3.7 5.9 -2.6
v 3.6 5.9 -2.6
v 3.6 6 -2.6
v 0.4 5.9 -2.6
v 0.4 5.8 -2.6
v 0.4 5.8 -2.5
v 0.4 5.9 -2.5
v 0.4 5.9 -2.6
v 0.4 5.9 -2.5
v 0.5 5.9 -2.5
v 0.5 5.9 -2.6
v 0.4 5.9 -2.5
v 0.4 5.8 -2.5
v 0.5 5.8 -2.5
v 0.5 5.9 -2.5
v 0.5 5.9 -2.6
v 0.5 5.8 -2.6
v 0.4 5.8 -2.6
v 0.4 5.9 -2.6
v 0.5 5.9 -2.6
v 0.5 5.9 -2.5
v 0.6 5.9 -2.5
v 0.6 5.9 -2.6
v 0.5 5.9 -2.5
v 0.5 5.8 -2.5
v 0.6 5.8 -2.5
v 0.6 5.9 -2.5
v 0.6 5.9 -2.6
v 0.6 5.8 -2.6
v 0.5 5.8 -2.6
v 0.5 5.9 -2.6
v 0.6 5.9 -2.5
v 0.6 5.8 -2.5
v 0.7 5.8 -2.5
v 0.7 5.9 -2.5
v 0.7 5.9 -2.6
v 0.7 5.8 -2.6
v 0.6 5.8 -2.6
v 0.6 5.9 -2.6
v 0.7 5.9 -2.5
v 0.7 5.8 -2.5
v 0.8 5.8 -2.5
v 0.8 5.9 -2.5
v 0.8 5.9 -2.6
v 0.8 5.8 -2.6
v 0.7 5.8 -2.6
v 0.7 5.9 -2.6
v 0.8 5.9 -2.5
v 0.8 5.8 -2.5
v 0.9 5.8 -2.5
v 0.9 5.9 -2.5
v 0.9 5.9 -2.6
v 0.9 5.8 -2.6
v 0.8 5.8 -2.6
v 0.8 5.9 -2.6
v 0.9 5.9 -2.5
v 0.9 5.8 -2.5
v 1 5.8 -2.5
v 1 5.9 -2.5
v 1 5.9 -2.6
v 1 5.8 -2.6
v 0.9 5.8 -2.6
v 0.9 5.9 -2.6
v 1 5.9 -2.5
v 1 5.8 -2.5
v 1.1 5.8 -2.5
v 1.1 5.9 -2.5
v 1.1 5.9 -2.6
v 1.1 5.8 -2.6
v 1 5.8 -2.6
v 1 5.9 -2.6
v 1.1 5.9 -2.5
v 1.1 5.8 -2.5
v 1.2 5.8 -2.5
v 1.2 5.9 -2.5
v 1.2 5.9 -2.6
v 1.2 5.8 -2.6
v 1.1 5.8 -2.6
v 1.1 5.9 -2.6
v 1.2 5.8 -2.5
v 1.2 5.8 -2.6
v 1.3 5.8 -2.6
v 1.3 5.8 -2.5
v 1.2 5.9 -2.5
v 1.2 5.8 -2.5
v 1.3 5.8 -2.5
v 1.3 5.9 -2.5
v 1.3 5.9 -2.6
v 1.3 5.8 -2.6
v 1.2 5.8 -2.6
v 1.2 5.9 -2.6
v 1.4 5.9 -2.5
v 1.4 5.8 -2.5
v 1.4 5.8 -2.6
v 1.4 5.9 -2.6
v 1.3 5.8 -2.5
v 1.3 5.8 -2.6
v 1.4 5.8 -2.6
v 1.4 5.8 -2.5
v 1.3 5.9 -2.5
v 1.3 5.8 -2.5
v 1.4 5.8 -2.5
v 1.4 5.9 -2.5
v 1.4 5.9 -2.6
v 1.4 5.8 -2.6
v 1.3 5.8 -2.6
v 1.3 5.9 -2.6
v 2.4 5.9 -2.6
v 2.4 5.8 -2.6
v 2.4 5.8 -2.5
v 2.4 5.9 -2.5
v 2.4 5.9 -2.6
v 2.4 5.9 -2.5
v 2.5 5.9 -2.5
v 2.5 5.9 -2.6
v 2.4 5.9 -2.5
v 2.4 5.8 -2.5
v 2.5 5.8 -2.5
v 2.5 5.9 -2.5
v 2.5 5.9 -2.6
v 2.5 5.8 -2.6
v 2.4 5.8 -2.6
v 2.4 5.9 -2.6
v 2.5 5.9 -2.6
v 2.5 5.9 -2.5
v 2.6 5.9 -2.5
v 2.6 5.9 -2.6
v 2.5 5.9 -2.5
v 2.5 5.8 -2.5
v 2.6 5.8 -2.5
v 2.6 5.9 -2.5
v 2.6 5.9 -2.6
v 2.6 5.8 -2.6
v 2.5 5.8 -2.6
v 2.5 5.9 -2.6
v 2.6 5.9 -2.5
v 2.6 5.8 -2.5
v 2.7 5.8 -2.5
v 2.7 5.9 -2.5
v 2.7 5.9 -2.6
v 2.7 5.8 -2.6
v 2.6 5.8 -2.6
v 2.6 5.9 -2.6
v 2.7 5.9 -2.5
v 2.7 5.8 -2.5
v 2.8 5.8 -2.5
v 2.8 5.9 -2.5
v 2.8 5.9 -2.6
v 2.8 5.8 -2.6
v 2.7 5.8 -2.6
v 2.7 5.9 -2.6
v 2.8 5.9 -2.5
v 2.8 5.8 -2.5
v 2.9 5.8 -2.5
v 2.9 5.9 -2.5
v 2.9 5.9 -2.6
v 2.9 5.8 -2.6
v 2.8 5.8 -2.6
v 2.8 5.9 -2.6
v 2.9 5.9 -2.5
v 2.9 5.8 -2.5
v 3 5.8 -2.5
v 3 5.9 -2.5
v 3 5.9 -2.6
v 3 5.8 -2.6
v 2.9 5.8 -2.6
v 2.9 5.9 -2.6
v 3 5.9 -2.5
v 3 5.8 -2.5
v 3.1 5.8 -2.5
v 3.1 5.9 -2.5
v 3.1 5.9 -2.6
v 3.1 5.8 -2.6
v 3 5.8 -2.6
v 3 5.9 -2.6
v 3.1 5.9 -2.5
v 3.1 5.8 -2.5
v 3.2 5.8 -2.5
v 3.2 5.9 -2.5
v 3.2 5.9 -2.6
v 3.2 5.8 -2.6
v 3.1 5.8 -2.6
v 3.1 5.9 -2.6
v 3.2 5.9 -2.5
v 3.2 5.8 -2.5
v 3.3 5.8 -2.5
v 3.3 5.9 -2.5
v 3.3 5.9 -2.6
v 3.3 5.8 -2.6
v 3.2 5.8 -2.6
v 3.2 5.9 -2.6
v 3.3 5.8 -2.5
v 3.3 5.8 -2.6
v 3.4 5.8 -2.6
v 3.4 5.8 -2.5
v 3.3 5.9 -2.5
v 3.3 5.8 -2.5
v 3.4 5.8 -2.5
v 3.4 5.9 -2.5
v 3.4 5.9 -2.6
v 3.4 5.8 -2.6
v 3.3 5.8 -2.6
v 3.3 5.9 -2.6
v 3.5 5.9 -2.5
v 3.5 5.8 -2.5
v 3.5 5.8 -2.6
v 3.5 5.9 -2.6
v 3.4 5.8 -2.5
v 3.4 5.8 -2.6
v 3.5 5.8 -2.6
v 3.5 5.8 -2.5
v 3.4 5.9 -2.5
v 3.4 5.8 -2.5
v 3.5 5.8 -2.5
v 3.5 5.9 -2.5
v 3.5 5.9 -2.6
v 3.5 5.8 -2.6
v 3.4 5.8 -2.6
v 3.4 5.9 -2.6
v 0.2 5.8 -2.6
v 0.2 5.7 -2.6
v 0.2 5.7 -2.5
v 0.2 5.8 -2.5
v 0.2 5.8 -2.6
v 0.2 5.8 -2.5
v 0.3 5.8 -2.5
v 0.3 5.8 -2.6
v 0.2 5.8 -2.5
v 0.2 5.7 -2.5
v 0.3 5.7 -2.5
v 0.3 5.8 -2.5
v 0.3 5.8 -2.6
v 0.3 5.7 -2.6
v 0.2 5.7 -2.6
v 0.2 5.8 -2.6
v 0.3 5.8 -2.6
v 0.3 5.8 -2.5
v 0.4 5.8 -2.5
v 0.4 5.8 -2.6
v 0.3 5.8 -2.5
v 0.3 5.7 -2.5
v 0.4 5.7 -2.5
v 0.4 5.8 -2.5
v 0.4 5.8 -2.6
v 0.4 5.7 -2.6
v 0.3 5.7 -2.6
v 0.3 5.8 -2.6
v 0.4 5.8 -2.5
v 0.4 5.7 -2.5
v 0.5 5.7 -2.5
v 0.5 5.8 -2.5
v 0.5 5.8 -2.6
v 0.5 5.7 -2.6
v 0.4 5.7 -2.6
v 0.4 5.8 -2.6
v 0.5 5.8 -2.5
v 0.5 5.7 -2.5
v 0.6 5.7 -2.5
v 0.6 5.8 -2.5
v 0.6 5.8 -2.6
v 0.6 5.7 -2.6
v 0.5 5.7 -2.6
v 0.5 5.8 -2.6
v 0.6 5.8 -2.5
v 0.6 5.7 -2.5
v 0.7 5.7 -2.5
v 0.7 5.8 -2.5
v 0.7 5.8 -2.6
v 0.7 5.7 -2.6
v 0.6 5.7 -2.6
v 0.6 5.8 -2.6
v 0.7 5.8 -2.5
v 0.7 5.7 -2.5
v 0.8 5.7 -2.5
v 0.8 5.8 -2.5
v 0.8 5.8 -2.6
v 0.8 5.7 -2.6
v 0.7 5.7 -2.6
v 0.7 5.8 -2.6
v 0.8 5.8 -2.5
v 0.8 5.7 -2.5
v 0.9 5.7 -2.5
v 0.9 5.8 -2.5
v 0.9 5.8 -2.6
v 0.9 5.7 -2.6
v 0.8 5.7 -2.6
v 0.8 5.8 -2.6
v 0.9 5.8 -2.5
v 0.9 5.7 -2.5
v 1 5.7 -2.5
v 1 5.8 -2.5
v 1 5.8 -2.6
v 1 5.7 -2.6
v 0.9 5.7 -2.6
v 0.9 5.8 -2.6
v 1 5.7 -2.5
v 1 5.7 -2.6
v 1.1 5.7 -2.6
v 1.1 5.7 -2.5
v 1 5.8 -2.5
v 1 5.7 -2.5
v 1.1 5.7 -2.5
v 1.1 5.8 -2.5
v 1.1 5.8 -2.6
v 1.1 5.7 -2.6
v 1 5.7 -2.6
v 1 5.8 -2.6
v 1.2 5.8 -2.5
v 1.2 5.7 -2.5
v 1.2 5.7 -2.6
v 1.2 5.8 -2.6
v 1.1 5.7 -2.5
v 1.1 5.7 -2.6
v 1.2 5.7 -2.6
v 1.2 5.7 -2.5
v 1.1 5.8 -2.5
v 1.1 5.7 -2.5
v 1.2 5.7 -2.5
v 1.2 5.8 -2.5
v 1.2 5.8 -2.6
v 1.2 5.7 -2.6
v 1.1 5.7 -2.6
v 1.1 5.8 -2.6
v 2.2 5.8 -2.6
v 2.2 5.7 -2.6
v 2.2 5.7 -2.5
v 2.2 5.8 -2.5
v 2.2 5.8 -2.6
v 2.2 5.8 -2.5
v 2.3 5.8 -2.5
v 2.3 5.8 -2.6
v 2.2 5.8 -2.5
v 2.2 5.7 -2.5
v 2.3 5.7 -2.5
v 2.3 5.8 -2.5
v 2.3 5.8 -2.6
v 2.3 5.7 -2.6
v 2.2 5.7 -2.6
v 2.2 5.8 -2.6
v 2.3 5.8 -2.6
v 2.3 5.8 -2.5
v 2.4 5.8 -2.5
v 2.4 5.8 -2.6
v 2.3 5.8 -2.5
v 2.3 5.7 -2.5
v 2.4 5.7 -2.5
v 2.4 5.8 -2.5
v 2.4 5.8 -2.6
v 2.4 5.7 -2.6
v 2.3 5.7 -2.6
v 2.3 5.8 -2.6
v 2.4 5.8 -2.5
v 2.4 5.7 -2.5
v 2.5 5.7 -2.5
v 2.5 5.8 -2.5
v 2.5 5.8 -2.6
v 2.5 5.7 -2.6
v 2.4 5.7 -2.6
v 2.4 5.8 -2.6
v 2.5 5.8 -2.5
v 2.5 5.7 -2.5
v 2.6 5.7 -2.5
v 2.6 5.8 -2.5
v 2.6 5.8 -2.6
v 2.6 5.7 -2.6
v 2.5 5.7 -2.6
v 2.5 5.8 -2.6
v 2.6 5.8 -2.5
v 2.6 5.7 -2.5
v 2.7 5.7 -2.5
v 2.7 5.8 -2.5
v 2.7 5.8 -2.6
v 2.7 5.7 -2.6
v 2.6 5.7 -2.6
v 2.6 5.8 -2.6
v 2.7 5.8 -2.5
v 2.7 5.7 -2.5
v 2.8 5.7 -2.5
v 2.8 5.8 -2.5
v 2.8 5.8 -2.6
v 2.8 5.7 -2.6
v 2.7 5.7 -2.6
v 2.7 5.8 -2.6
v 2.8 5.8 -2.5
v 2.8 5.7 -2.5
v 2.9 5.7 -2.5
v 2.9 5.8 -2.5
v 2.9 5.8 -2.6
v 2.9 5.7 -2.6
v 2.8 5.7 -2.6
v 2.8 5.8 -2.6
v 2.9 5.8 -2.5
v 2.9 5.7 -2.5
v 3 5.7 -2.5
v 3 5.8 -2.5
v 3 5.8 -2.6
v 3 5.7 -2.6
v 2.9 5.7 -2.6
v 2.9 5.8 -2.6
v 3 5.8 -2.5
v 3 5.7 -2.5
v 3.1 5.7 -2.5
v 3.1 5.8 -2.5
v 3.1 5.8 -2.6
v 3.1 5.7 -2.6
v 3 5.7 -2.6
v 3 5.8 -2.6
v 3.1 5.7 -2.5
v 3.1 5.7 -2.6
v 3.2 5.7 -2.6
v 3.2 5.7 -2.5
v 3.1 5.8 -2.5
v 3.1 5.7 -2.5
v 3.2 5.7 -2.5
v 3.2 5.8 -2.5
v 3.2 5.8 -2.6
v 3.2 5.7 -2.6
v 3.1 5.7 -2.6
v 3.1 5.8 -2.6
v 3.3 5.8 -2.5
v 3.3 5.7 -2.5
v 3.3 5.7 -2.6
v 3.3 5.8 -2.6
v 3.2 5.7 -2.5
v 3.2 5.7 -2.6
v 3.3 5.7 -2.6
v 3.3 5.7 -2.5
v 3.2 5.8 -2.5
v 3.2 5.7 -2.5
v 3.3 5.7 -2.5
v 3.3 5.8 -2.5
v 3.3 5.8 -2.6
v 3.3 5.7 -2.6
v 3.2 5.7 -2.6
v 3.2 5.8 -2.6
v 0 5.7 -2.6
v 0 5.6 -2.6
v 0 5.6 -2.5
v 0 5.7 -2.5
v 0 5.7 -2.6
v 0 5.7 -2.5
v 0.1 5.7 -2.5
v 0.1 5.7 -2.6
v 0 5.7 -2.5
v 0 5.6 -2.5
v 0.1 5.6 -2.5
v 0.1 5.7 -2.5
v 0.1 5.7 -2.6
v 0.1 5.6 -2.6
v 0 5.6 -2.6
v 0 5.7 -2.6
v 0.1 5.7 -2.6
v 0.1 5.7 -2.5
v 0.2 5.7 -2.5
v 0.2 5.7 -2.6
v 0.1 5.7 -2.5
v 0.1 5.6 -2.5
v 0.2 5.6 -2.5
v 0.2 5.7 -2.5
v 0.2 5.7 -2.6
v 0.2 5.6 -2.6
v 0.1 5.6 -2.6
v 0.1 5.7 -2.6
v 0.2 5.7 -2.5
v 0.2 5.6 -2.5
v 0.3 5.6 -2.5
v 0.3 5.7 -2.5
v 0.3 5.7 -2.6
v 0.3 5.6 -2.6
v 0.2 5.6 -2.6
v 0.2 5.7 -2.6
v 0.3 5.7 -2.5
v 0.3 5.6 -2.5
v 0.4 5.6 -2.5
v 0.4 5.7 -2.5
v 0.4 5.7 -2.6
v 0.4 5.6 -2.6
v 0.3 5.6 -2.6
v 0.3 5.7 -2.6
v 0.4 5.7 -2.5
v 0.4 5.6 -2.5
v 0.5 5.6 -2.5
v 0.5 5.7 -2.5
v 0.5 5.7 -2.6
v 0.5 5.6 -2.6
v 0.4 5.6 -2.6
v 0.4 5.7 -2.6
v 0.5 5.7 -2.5
v 0.5 5.6 -2.5
v 0.6 5.6 -2.5
v 0.6 5.7 -2.5
v 0.6 5.7 -2.6
v 0.6 5.6 -2.6
v 0.5 5.6 -2.6
v 0.5 5.7 -2.6
v 0.6 5.7 -2.5
v 0.6 5.6 -2.5
v 0.7 5.6 -2.5
v 0.7 5.7 -2.5
v 0.7 5.7 -2.6
v 0.7 5.6 -2.6
v 0.6 5.6 -2.6
v 0.6 5.7 -2.6
v 0.7 5.7 -2.5
v 0.7 5.6 -2.5
v 0.8 5.6 -2.5
v 0.8 5.7 -2.5
v 0.8 5.7 -2.6
v 0.8 5.6 -2.6
v 0.7 5.6 -2.6
v 0.7 5.7 -2.6
v 0.8 5.6 -2.5
v 0.8 5.6 -2.6
v 0.9 5.6 -2.6
v 0.9 5.6 -2.5
v 0.8 5.7 -2.5
v 0.8 5.6 -2.5
v 0.9 5.6 -2.5
v 0.9 5.7 -2.5
v 0.9 5.7 -2.6
v 0.9 5.6 -2.6
v 0.8 5.6 -2.6
v 0.8 5.7 -2.6
v 1 5.7 -2.5
v 1 5.6 -2.5
v 1 5.6 -2.6
v 1 5.7 -2.6
v 0.9 5.6 -2.5
v 0.9 5.6 -2.6
v 1 5.6 -2.6
v 1 5.6 -2.5
v 0.9 5.7 -2.5
v 0.9 5.6 -2.5
v 1 5.6 -2.5
v 1 5.7 -2.5
v 1 5.7 -2.6
v 1 5.6 -2.6
v 0.9 5.6 -2.6
v 0.9 5.7 -2.6
v 2 5.7 -2.6
v 2 5.6 -2.6
v 2 5.6 -2.5
v 2 5.7 -2.5
v 2 5.7 -2.6
v 2 5.7 -2.5
v 2.1 5.7 -2.5
v 2.1 5.7 -2.6
v 2 5.7 -2.5
v 2 5.6 -2.5
v 2.1 5.6 -2.5
v 2.1 5.7 -2.5
v 2.1 5.7 -2.6
v 2.1 5.6 -2.6
v 2 5.6 -2.6
v 2 5.7 -2.6
v 2.1 5.7 -2.6
v 2.1 5.7 -2.5
v 2.2 5.7 -2.5
v 2.2 5.7 -2.6
v 2.1 5.7 -2.5
v 2.1 5.6 -2.5
v 2.2 5.6 -2.5
v 2.2 5.7 -2.5
v 2.2 5.7 -2.6
v 2.2 5.6 -2.6
v 2.1 5.6 -2.6
v 2.1 5.7 -2.6
v 2.2 5.7 -2.5
v 2.2 5.6 -2.5
v 2.3 5.6 -2.5
v 2.3 5.7 -2.5
v 2.3 5.7 -2.6
v 2.3 5.6 -2.6
v 2.2 5.6 -2.6
v 2.2 5.7 -2.6
v 2.3 5.7 -2.5
v 2.3 5.6 -2.5
v 2.4 5.6 -2.5
v 2.4 5.7 -2.5
v 2.4 5.7 -2.6
v 2.4 5.6 -2.6
v 2.3 5.6 -2.6
v 2.3 5.7 -2.6
v 2.4 5.7 -2.5
v 2.4 5.6 -2.5
v 2.5 5.6 -2.5
v 2.5 5.7 -2.5
v 2.5 5.7 -2.6
v 2.5 5.6 -2.6
v 2.4 5.6 -2.6
v 2.4 5.7 -2.6
v 2.5 5.7 -2.5
v 2.5 5.6 -2.5
v 2.6 5.6 -2.5
v 2.6 5.7 -2.5
v 2.6 5.7 -2.6
v 2.6 5.6 -2.6
v 2.5 5.6 -2.6
v 2.5 5.7 -2.6
v 2.6 5.7 -2.5
v 2.6 5.6 -2.5
v 2.7 5.6 -2.5
v 2.7 5.7 -2.5
v 2.7 5.7 -2.6
v 2.7 5.6 -2.6
v 2.6 5.6 -2.6
v 2.6 5.7 -2.6
v 2.7 5.7 -2.5
v 2.7 5.6 -2.5
v 2.8 5.6 -2.5
v 2.8 5.7 -2.5
v 2.8 5.7 -2.6
v 2.8 5.6 -2.6
v 2.7 5.6 -2.6
v 2.7 5.7 -2.6
v 2.8 5.7 -2.5
v 2.8 5.6 -2.5
v 2.9 5.6 -2.5
v 2.9 5.7 -2.5
v 2.9 5.7 -2.6
v 2.9 5.6 -2.6
v 2.8 5.6 -2.6
v 2.8 5.7 -2.6
v 2.9 5.6 -2.5
v 2.9 5.6 -2.6
v 3 5.6 -2.6
v 3 5.6 -2.5
v 2.9 5.7 -2.5
v 2.9 5.6 -2.5
v 3 5.6 -2.5
v 3 5.7 -2.5
v 3 5.7 -2.6
v 3 5.6 -2.6
v 2.9 5.6 -2.6
v 2.9 5.7 -2.6
v 3.1 5.7 -2.5
v 3.1 5.6 -2.5
v 3.1 5.6 -2.6
v 3.1 5.7 -2.6
v 3 5.6 -2.5
v 3 5.6 -2.6
v 3.1 5.6 -2.6
v 3.1 5.6 -2.5
v 3 5.7 -2.5
v 3 5.6 -2.5
v 3.1 5.6 -2.5
v 3.1 5.7 -2.5
v 3.1 5.7 -2.6
v 3.1 5.6 -2.6
v 3 5.6 -2.6
v 3 5.7 -2.6
v 0 5.6 -2.6
v 0 5.5 -2.6
v 0 5.5 -2.5
v 0 5.6 -2.5
v 0 5.6 -2.5
v 0 5.5 -2.5
v 0.1 5.5 -2.5
v 0.1 5.6 -2.5
v 0.1 5.6 -2.6
v 0.1 5.5 -2.6
v 0 5.5 -2.6
v 0 5.6 -2.6
v 0.1 5.6 -2.5
v 0.1 5.5 -2.5
v 0.2 5.5 -2.5
v 0.2 5.6 -2.5
v 0.2 5.6 -2.6
v 0.2 5.5 -2.6
v 0.1 5.5 -2.6
v 0.1 5.6 -2.6
v 0.2 5.6 -2.5
v 0.2 5.5 -2.5
v 0.3 5.5 -2.5
v 0.3 5.6 -2.5
v 0.3 5.6 -2.6
v 0.3 5.5 -2.6
v 0.2 5.5 -2.6
v 0.2 5.6 -2.6
v 0.3 5.6 -2.5
v 0.3 5.5 -2.5
v 0.4 5.5 -2.5
v 0.4 5.6 -2.5
v 0.4 5.6 -2.6
v 0.4 5.5 -2.6
v 0.3 5.5 -2.6
v 0.3 5.6 -2.6
v 0.4 5.6 -2.5
v 0.4 5.5 -2.5
v 0.5 5.5 -2.5
v 0.5 5.6 -2.5
v 0.5 5.6 -2.6
v 0.5 5.5 -2.6
v 0.4 5.5 -2.6
v 0.4 5.6 -2.6
v 0.5 5.6 -2.5
v 0.5 5.5 -2.5
v 0.6 5.5 -2.5
v 0.6 5.6 -2.5
v 0.6 5.6 -2.6
v 0.6 5.5 -2.6
v 0.5 5.5 -2.6
v 0.5 5.6 -2.6
v 0.6 5.5 -2.5
v 0.6 5.5 -2.6
v 0.7 5.5 -2.6
v 0.7 5.5 -2.5
v 0.6 5.6 -2.5
v 0.6 5.5 -2.5
v 0.7 5.5 -2.5
v 0.7 5.6 -2.5
v 0.7 5.6 -2.6
v 0.7 5.5 -2.6
v 0.6 5.5 -2.6
v 0.6 5.6 -2.6
v 0.8 5.6 -2.5
v 0.8 5.5 -2.5
v 0.8 5.5 -2.6
v 0.8 5.6 -2.6
v 0.7 5.5 -2.5
v 0.7 5.5 -2.6
v 0.8 5.5 -2.6
v 0.8 5.5 -2.5
v 0.7 5.6 -2.5
v 0.7 5.5 -2.5
v 0.8 5.5 -2.5
v 0.8 5.6 -2.5
v 0.8 5.6 -2.6
v 0.8 5.5 -2.6
v 0.7 5.5 -2.6
v 0.7 5.6 -2.6
v 1.8 5.6 -2.6
v 1.8 5.5 -2.6
v 1.8 5.5 -2.5
v 1.8 5.6 -2.5
v 1.8 5.6 -2.6
v 1.8 5.6 -2.5
v 1.9 5.6 -2.5
v 1.9 5.6 -2.6
v 1.8 5.6 -2.5
v 1.8 5.5 -2.5
v 1.9 5.5 -2.5
v 1.9 5.6 -2.5
v 1.9 5.6 -2.6
v 1.9 5.5 -2.6
v 1.8 5.5 -2.6
v 1.8 5.6 -2.6
v 1.9 5.6 -2.6
v 1.9 5.6 -2.5
v 2 5.6 -2.5
v 2 5.6 -2.6
v 1.9 5.6 -2.5
v 1.9 5.5 -2.5
v 2 5.5 -2.5
v 2 5.6 -2.5
v 2 5.6 -2.6
v 2 5.5 -2.6
v 1.9 5.5 -2.6
v 1.9 5.6 -2.6
v 2 5.6 -2.5
v 2 5.5 -2.5
v 2.1 5.5 -2.5
v 2.1 5.6 -2.5
v 2.1 5.6 -2.6
v 2.1 5.5 -2.6
v 2 5.5 -2.6
v 2 5.6 -2.6
v 2.1 5.6 -2.5
v 2.1 5.5 -2.5
v 2.2 5.5 -2.5
v 2.2 5.6 -2.5
v 2.2 5.6 -2.6
v 2.2 5.5 -2.6
v 2.1 5.5 -2.6
v 2.1 5.6 -2.6
v 2.2 5.6 -2.5
v 2.2 5.5 -2.5
v 2.3 5.5 -2.5
v 2.3 5.6 -2.5
v 2.3 5.6 -2.6
v 2.3 5.5 -2.6
v 2.2 5.5 -2.6
v 2.2 5.6 -2.6
v 2.3 5.6 -2.5
v 2.3 5.5 -2.5
v 2.4 5.5 -2.5
v 2.4 5.6 -2.5
v 2.4 5.6 -2.6
v 2.4 5.5 -2.6
v 2.3 5.5 -2.6
v 2.3 5.6 -2.6
v 2.4 5.6 -2.5
v 2.4 5.5 -2.5
v 2.5 5.5 -2.5
v 2.5 5.6 -2.5
v 2.5 5.6 -2.6
v 2.5 5.5 -2.6
v 2.4 5.5 -2.6
v 2.4 5.6 -2.6
v 2.5 5.6 -2.5
v 2.5 5.5 -2.5
v 2.6 5.5 -2.5
v 2.6 5.6 -2.5
v 2.6 5.6 -2.6
v 2.6 5.5 -2.6
v 2.5 5.5 -2.6
v 2.5 5.6 -2.6
v 2.6 5.6 -2.5
v 2.6 5.5 -2.5
v 2.7 5.5 -2.5
v 2.7 5.6 -2.5
v 2.7 5.6 -2.6
v 2.7 5.5 -2.6
v 2.6 5.5 -2.6
v 2.6 5.6 -2.6
v 2.7 5.5 -2.5
v 2.7 5.5 -2.6
v 2.8 5.5 -2.6
v 2.8 5.5 -2.5
v 2.7 5.6 -2.5
v 2.7 5.5 -2.5
v 2.8 5.5 -2.5
v 2.8 5.6 -2.5
v 2.8 5.6 -2.6
v 2.8 5.5 -2.6
v 2.7 5.5 -2.6
v 2.7 5.6 -2.6
v 2.9 5.6 -2.5
v 2.9 5.5 -2.5
v 2.9 5.5 -2.6
v 2.9 5.6 -2.6
v 2.8 5.5 -2.5
v 2.8 5.5 -2.6
v 2.9 5.5 -2.6
v 2.9 5.5 -2.5
v 2.8 5.6 -2.5
v 2.8 5.5 -2.5
v 2.9 5.5 -2.5
v 2.9 5.6 -2.5
v 2.9 5.6 -2.6
v 2.9 5.5 -2.6
v 2.8 5.5 -2.6
v 2.8 5.6 -2.6
v 0 5.5 -2.6
v 0 5.4 -2.6
v 0 5.4 -2.5
v 0 5.5 -2.5
v 0 5.5 -2.5
v 0 5.4 -2.5
v 0.1 5.4 -2.5
v 0.1 5.5 -2.5
v 0.1 5.5 -2.6
v 0.1 5.4 -2.6
v 0 5.4 -2.6
v 0 5.5 -2.6
v 0.1 5.5 -2.5
v 0.1 5.4 -2.5
v 0.2 5.4 -2.5
v 0.2 5.5 -2.5
v 0.2 5.5 -2.6
v 0.2 5.4 -2.6
v 0.1 5.4 -2.6
v 0.1 5.5 -2.6
v 0.2 5.5 -2.5
v 0.2 5.4 -2.5
v 0.3 5.4 -2.5
v 0.3 5.5 -2.5
v 0.3 5.5 -2.6
v 0.3 5.4 -2.6
v 0.2 5.4 -2.6
v 0.2 5.5 -2.6
v 0.3 5.5 -2.5
v 0.3 5.4 -2.5
v 0.4 5.4 -2.5
v 0.4 5.5 -2.5
v 0.4 5.5 -2.6
v 0.4 5.4 -2.6
v 0.3 5.4 -2.6
v 0.3 5.5 -2.6
v 0.4 5.4 -2.5
v 0.4 5.4 -2.6
v 0.5 5.4 -2.6
v 0.5 5.4 -2.5
v 0.4 5.5 -2.5
v 0.4 5.4 -2.5
v 0.5 5.4 -2.5
v 0.5 5.5 -2.5
v 0.5 5.5 -2.6
v 0.5 5.4 -2.6
v 0.4 5.4 -2.6
v 0.4 5.5 -2.6
v 0.6 5.5 -2.5
v 0.6 5.4 -2.5
v 0.6 5.4 -2.6
v 0.6 5.5 -2.6
v 0.5 5.4 -2.5
v 0.5 5.4 -2.6
v 0.6 5.4 -2.6
v 0.6 5.4 -2.5
v 0.5 5.5 -2.5
v 0.5 5.4 -2.5
v 0.6 5.4 -2.5
v 0.6 5.5 -2.5
v 0.6 5.5 -2.6
v 0.6 5.4 -2.6
v 0.5 5.4 -2.6
v 0.5 5.5 -2.6
v 1.6 5.5 -2.6
v 1.6 5.4 -2.6
v 1.6 5.4 -2.5
v 1.6 5.5 -2.5
v 1.6 5.5 -2.6
v 1.6 5.5 -2.5
v 1.7 5.5 -2.5
v 1.7 5.5 -2.6
v 1.6 5.5 -2.5
v 1.6 5.4 -2.5
v 1.7 5.4 -2.5
v 1.7 5.5 -2.5
v 1.7 5.5 -2.6
v 1.7 5.4 -2.6
v 1.6 5.4 -2.6
v 1.6 5.5 -2.6
v 1.7 5.5 -2.6
v 1.7 5.5 -2.5
v 1.8 5.5 -2.5
v 1.8 5.5 -2.6
v 1.7 5.5 -2.5
v 1.7 5.4 -2.5
v 1.8 5.4 -2.5
v 1.8 5.5 -2.5
v 1.8 5.5 -2.6
v 1.8 5.4 -2.6
v 1.7 5.4 -2.6
v 1.7 5.5 -2.6
v 1.8 5.5 -2.5
v 1.8 5.4 -2.5
v 1.9 5.4 -2.5
v 1.9 5.5 -2.5
v 1.9 5.5 -2.6
v 1.9 5.4 -2.6
v 1.8 5.4 -2.6
v 1.8 5.5 -2.6
v 1.9 5.5 -2.5
v 1.9 5.4 -2.5
v 2 5.4 -2.5
v 2 5.5 -2.5
v 2 5.5 -2.6
v 2 5.4 -2.6
v 1.9 5.4 -2.6
v 1.9 5.5 -2.6
v 2 5.5 -2.5
v 2 5.4 -2.5
v 2.1 5.4 -2.5
v 2.1 5.5 -2.5
v 2.1 5.5 -2.6
v 2.1 5.4 -2.6
v 2 5.4 -2.6
v 2 5.5 -2.6
v 2.1 5.5 -2.5
v 2.1 5.4 -2.5
v 2.2 5.4 -2.5
v 2.2 5.5 -2.5
v 2.2 5.5 -2.6
v 2.2 5.4 -2.6
v 2.1 5.4 -2.6
v 2.1 5.5 -2.6
v 2.2 5.5 -2.5
v 2.2 5.4 -2.5
v 2.3 5.4 -2.5
v 2.3 5.5 -2.5
v 2.3 5.5 -2.6
v 2.3 5.4 -2.6
v 2.2 5.4 -2.6
v 2.2 5.5 -2.6
v 2.3 5.5 -2.5
v 2.3 5.4 -2.5
v 2.4 5.4 -2.5
v 2.4 5.5 -2.5
v 2.4 5.5 -2.6
v 2.4 5.4 -2.6
v 2.3 5.4 -2.6
v 2.3 5.5 -2.6
v 2.4 5.5 -2.5
v 2.4 5.4 -2.5
v 2.5 5.4 -2.5
v 2.5 5.5 -2.5
v 2.5 5.5 -2.6
v 2.5 5.4 -2.6
v 2.4 5.4 -2.6
v 2.4 5.5 -2.6
v 2.5 5.4 -2.5
v 2.5 5.4 -2.6
v 2.6 5.4 -2.6
v 2.6 5.4 -2.5
v 2.5 5.5 -2.5
v 2.5 5.4 -2.5
v 2.6 5.4 -2.5
v 2.6 5.5 -2.5
v 2.6 5.5 -2.6
v 2.6 5.4 -2.6
v 2.5 5.4 -2.6
v 2.5 5.5 -2.6
v 2.7 5.5 -2.5
v 2.7 5.4 -2.5
v 2.7 5.4 -2.6
v 2.7 5.5 -2.6
v 2.6 5.4 -2.5
v 2.6 5.4 -2.6
v 2.7 5.4 -2.6
v 2.7 5.4 -2.5
v 2.6 5.5 -2.5
v 2.6 5.4 -2.5
v 2.7 5.4 -2.5
v 2.7 5.5 -2.5
v 2.7 5.5 -2.6
v 2.7 5.4 -2.6
v 2.6 5.4 -2.6
v 2.6 5.5 -2.6
v 0 5.4 -2.6
v 0 5.3 -2.6
v 0 5.3 -2.5
v 0 5.4 -2.5
v 0 5.4 -2.5
v 0 5.3 -2.5
v 0.1 5.3 -2.5
v 0.1 5.4 -2.5
v 0.1 5.4 -2.6
v 0.1 5.3 -2.6
v 0 5.3 -2.6
v 0 5.4 -2.6
v 0.1 5.4 -2.5
v 0.1 5.3 -2.5
v 0.2 5.3 -2.5
v 0.2 5.4 -2.5
v 0.2 5.4 -2.6
v 0.2 5.3 -2.6
v 0.1 5.3 -2.6
v 0.1 5.4 -2.6
v 0.2 5.3 -2.5
v 0.2 5.3 -2.6
v 0.3 5.3 -2.6
v 0.3 5.3 -2.5
v 0.2 5.4 -2.5
v 0.2 5.3 -2.5
v 0.3 5.3 -2.5
v 0.3 5.4 -2.5
v 0.3 5.4 -2.6
v 0.3 5.3 -2.6
v 0.2 5.3 -2.6
v 0.2 5.4 -2.6
v 0.4 5.4 -2.5
v 0.4 5.3 -2.5
v 0.4 5.3 -2.6
v 0.4 5.4 -2.6
v 0.3 5.3 -2.5
v 0.3 5.3 -2.6
v 0.4 5.3 -2.6
v 0.4 5.3 -2.5
v 0.3 5.4 -2.5
v 0.3 5.3 -2.5
v 0.4 5.3 -2.5
v 0.4 5.4 -2.5
v 0.4 5.4 -2.6
v 0.4 5.3 -2.6
v 0.3 5.3 -2.6
v 0.3 5.4 -2.6
v 1.4 5.4 -2.6
v 1.4 5.3 -2.6
v 1.4 5.3 -2.5
v 1.4 5.4 -2.5
v 1.4 5.4 -2.6
v 1.4 5.4 -2.5
v 1.5 5.4 -2.5
v 1.5 5.4 -2.6
v 1.4 5.4 -2.5
v 1.4 5.3 -2.5
v 1.5 5.3 -2.5
v 1.5 5.4 -2.5
v 1.5 5.4 -2.6
v 1.5 5.3 -2.6
v 1.4 5.3 -2.6
v 1.4 5.4 -2.6
v 1.5 5.4 -2.6
v 1.5 5.4 -2.5
v 1.6 5.4 -2.5
v 1.6 5.4 -2.6
v 1.5 5.4 -2.5
v 1.5 5.3 -2.5
v 1.6 5.3 -2.5
v 1.6 5.4 -2.5
v 1.6 5.4 -2.6
v 1.6 5.3 -2.6
v 1.5 5.3 -2.6
v 1.5 5.4 -2.6
v 1.6 5.4 -2.5
v 1.6 5.3 -2.5
v 1.7 5.3 -2.5
v 1.7 5.4 -2.5
v 1.7 5.4 -2.6
v 1.7 5.3 -2.6
v 1.6 5.3 -2.6
v 1.6 5.4 -2.6
v 1.7 5.4 -2.5
v 1.7 5.3 -2.5
v 1.8 5.3 -2.5
v 1.8 5.4 -2.5
v 1.8 5.4 -2.6
v 1.8 5.3 -2.6
v 1.7 5.3 -2.6
v 1.7 5.4 -2.6
v 1.8 5.4 -2.5
v 1.8 5.3 -2.5
v 1.9 5.3 -2.5
v 1.9 5.4 -2.5
v 1.9 5.4 -2.6
v 1.9 5.3 -2.6
v 1.8 5.3 -2.6
v 1.8 5.4 -2.6
v 1.9 5.4 -2.5
v 1.9 5.3 -2.5
v 2 5.3 -2.5
v 2 5.4 -2.5
v 2 5.4 -2.6
v 2 5.3 -2.6
v 1.9 5.3 -2.6
v 1.9 5.4 -2.6
v 2 5.4 -2.5
v 2 5.3 -2.5
v 2.1 5.3 -2.5
v 2.1 5.4 -2.5
v 2.1 5.4 -2.6
v 2.1 5.3 -2.6
v 2 5.3 -2.6
v 2 5.4 -2.6
v 2.1 5.4 -2.5
v 2.1 5.3 -2.5
v 2.2 5.3 -2.5
v 2.2 5.4 -2.5
v 2.2 5.4 -2.6
v 2.2 5.3 -2.6
v 2.1 5.3 -2.6
v 2.1 5.4 -2.6
v 2.2 5.4 -2.5
v 2.2 5.3 -2.5
v 2.3 5.3 -2.5
v 2.3 5.4 -2.5
v 2.3 5.4 -2.6
v 2.3 5.3 -2.6
v 2.2 5.3 -2.6
v 2.2 5.4 -2.6
v 2.3 5.3 -2.5
v 2.3 5.3 -2.6
v 2.4 5.3 -2.6
v 2.4 5.3 -2.5
v 2.3 5.4 -2.5
v 2.3 5.3 -2.5
v 2.4 5.3 -2.5
v 2.4 5.4 -2.5
v 2.4 5.4 -2.6
v 2.4 5.3 -2.6
v 2.3 5.3 -2.6
v 2.3 5.4 -2.6
v 2.5 5.4 -2.5
v 2.5 5.3 -2.5
v 2.5 5.3 -2.6
v 2.5 5.4 -2.6
v 2.4 5.3 -2.5
v 2.4 5.3 -2.6
v 2.5 5.3 -2.6
v 2.5 5.3 -2.5
v 2.4 5.4 -2.5
v 2.4 5.3 -2.5
v 2.5 5.3 -2.5
v 2.5 5.4 -2.5
v 2.5 5.4 -2.6
v 2.5 5.3 -2.6
v 2.4 5.3 -2.6
v 2.4 5.4 -2.6
v 0 5.3 -2.6
v 0 5.2 -2.6
v 0 5.2 -2.5
v 0 5.3 -2.5
v 0 5.2 -2.5
v 0 5.2 -2.6
v 0.1 5.2 -2.6
v 0.1 5.2 -2.5
v 0 5.3 -2.5
v 0 5.2 -2.5
v 0.1 5.2 -2.5
v 0.1 5.3 -2.5
v 0.1 5.3 -2.6
v 0.1 5.2 -2.6
v 0 5.2 -2.6
v 0 5.3 -2.6
v 0.2 5.3 -2.5
v 0.2 5.2 -2.5
v 0.2 5.2 -2.6
v 0.2 5.3 -2.6
v 0.1 5.2 -2.5
v 0.1 5.2 -2.6
v 0.2 5.2 -2.6
v 0.2 5.2 -2.5
v 0.1 5.3 -2.5
v 0.1 5.2 -2.5
v 0.2 5.2 -2.5
v 0.2 5.3 -2.5
v 0.2 5.3 -2.6
v 0.2 5.2 -2.6
v 0.1 5.2 -2.6
v 0.1 5.3 -2.6
v 1.2 5.3 -2.6
v 1.2 5.2 -2.6
v 1.2 5.2 -2.5
v 1.2 5.3 -2.5
v 1.2 5.3 -2.6
v 1.2 5.3 -2.5
v 1.3 5.3 -2.5
v 1.3 5.3 -2.6
v 1.2 5.3 -2.5
v 1.2 5.2 -2.5
v 1.3 5.2 -2.5
v 1.3 5.3 -2.5
v 1.3 5.3 -2.6
v 1.3 5.2 -2.6
v 1.2 5.2 -2.6
v 1.2 5.3 -2.6
v 1.3 5.3 -2.6
v 1.3 5.3 -2.5
v 1.4 5.3 -2.5
v 1.4 5.3 -2.6
v 1.3 5.3 -2.5
v 1.3 5.2 -2.5
v 1.4 5.2 -2.5
v 1.4 5.3 -2.5
v 1.4 5.3 -2.6
v 1.4 5.2 -2.6
v 1.3 5.2 -2.6
v 1.3 5.3 -2.6
v 1.4 5.3 -2.5
v 1.4 5.2 -2.5
v 1.5 5.2 -2.5
v 1.5 5.3 -2.5
v 1.5 5.3 -2.6
v 1.5 5.2 -2.6
v 1.4 5.2 -2.6
v 1.4 5.3 -2.6
v 1.5 5.3 -2.5
v 1.5 5.2 -2.5
v 1.6 5.2 -2.5
v 1.6 5.3 -2.5
v 1.6 5.3 -2.6
v 1.6 5.2 -2.6
v 1.5 5.2 -2.6
v 1.5 5.3 -2.6
v 1.6 5.3 -2.5
v 1.6 5.2 -2.5
v 1.7 5.2 -2.5
v 1.7 5.3 -2.5
v 1.7 5.3 -2.6
v 1.7 5.2 -2.6
v 1.6 5.2 -2.6
v 1.6 5.3 -2.6
v 1.7 5.3 -2.5
v 1.7 5.2 -2.5
v 1.8 5.2 -2.5
v 1.8 5.3 -2.5
v 1.8 5.3 -2.6
v 1.8 5.2 -2.6
v 1.7 5.2 -2.6
v 1.7 5.3 -2.6
v 1.8 5.3 -2.5
v 1.8 5.2 -2.5
v 1.9 5.2 -2.5
v 1.9 5.3 -2.5
v 1.9 5.3 -2.6
v 1.9 5.2 -2.6
v 1.8 5.2 -2.6
v 1.8 5.3 -2.6
v 1.9 5.3 -2.5
v 1.9 5.2 -2.5
v 2 5.2 -2.5
v 2 5.3 -2.5
v 2 5.3 -2.6
v 2 5.2 -2.6
v 1.9 5.2 -2.6
v 1.9 5.3 -2.6
v 2 5.3 -2.5
v 2 5.2 -2.5
v 2.1 5.2 -2.5
v 2.1 5.3 -2.5
v 2.1 5.3 -2.6
v 2.1 5.2 -2.6
v 2 5.2 -2.6
v 2 5.3 -2.6
v 2.1 5.2 -2.5
v 2.1 5.2 -2.6
v 2.2 5.2 -2.6
v 2.2 5.2 -2.5
v 2.1 5.3 -2.5
v 2.1 5.2 -2.5
v 2.2 5.2 -2.5
v 2.2 5.3 -2.5
v 2.2 5.3 -2.6
v 2.2 5.2 -2.6
v 2.1 5.2 -2.6
v 2.1 5.3 -2.6
v 2.3 5.3 -2.5
v 2.3 5.2 -2.5
v 2.3 5.2 -2.6
v 2.3 5.3 -2.6
v 2.2 5.2 -2.5
v 2.2 5.2 -2.6
v 2.3 5.2 -2.6
v 2.3 5.2 -2.5
v 2.2 5.3 -2.5
v 2.2 5.2 -2.5
v 2.3 5.2 -2.5
v 2.3 5.3 -2.5
v 2.3 5.3 -2.6
v 2.3 5.2 -2.6
v 2.2 5.2 -2.6
v 2.2 5.3 -2.6
v 1 5.2 -2.6
v 1 5.1 -2.6
v 1 5.1 -2.5
v 1 5.2 -2.5
v 1 5.2 -2.6
v 1 5.2 -2.5
v 1.1 5.2 -2.5
v 1.1 5.2 -2.6
v 1 5.2 -2.5
v 1 5.1 -2.5
v 1.1 5.1 -2.5
v 1.1 5.2 -2.5
v 1.1 5.2 -2.6
v 1.1 5.1 -2.6
v 1 5.1 -2.6
v 1 5.2 -2.6
v 1.1 5.2 -2.6
v 1.1 5.2 -2.5
v 1.2 5.2 -2.5
v 1.2 5.2 -2.6
v 1.1 5.2 -2.5
v 1.1 5.1 -2.5
v 1.2 5.1 -2.5
v 1.2 5.2 -2.5
v 1.2 5.2 -2.6
v 1.2 5.1 -2.6
v 1.1 5.1 -2.6
v 1.1 5.2 -2.6
v 1.2 5.2 -2.5
v 1.2 5.1 -2.5
v 1.3 5.1 -2.5
v 1.3 5.2 -2.5
v 1.3 5.2 -2.6
v 1.3 5.1 -2.6
v 1.2 5.1 -2.6
v 1.2 5.2 -2.6
v 1.3 5.2 -2.5
v 1.3 5.1 -2.5
v 1.4 5.1 -2.5
v 1.4 5.2 -2.5
v 1.4 5.2 -2.6
v 1.4 5.1 -2.6
v 1.3 5.1 -2.6
v 1.3 5.2 -2.6
v 1.4 5.2 -2.5
v 1.4 5.1 -2.5
v 1.5 5.1 -2.5
v 1.5 5.2 -2.5
v 1.5 5.2 -2.6
v 1.5 5.1 -2.6
v 1.4 5.1 -2.6
v 1.4 5.2 -2.6
v 1.5 5.2 -2.5
v 1.5 5.1 -2.5
v 1.6 5.1 -2.5
v 1.6 5.2 -2.5
v 1.6 5.2 -2.6
v 1.6 5.1 -2.6
v 1.5 5.1 -2.6
v 1.5 5.2 -2.6
v 1.6 5.2 -2.5
v 1.6 5.1 -2.5
v 1.7 5.1 -2.5
v 1.7 5.2 -2.5
v 1.7 5.2 -2.6
v 1.7 5.1 -2.6
v 1.6 5.1 -2.6
v 1.6 5.2 -2.6
v 1.7 5.2 -2.5
v 1.7 5.1 -2.5
v 1.8 5.1 -2.5
v 1.8 5.2 -2.5
v 1.8 5.2 -2.6
v 1.8 5.1 -2.6
v 1.7 5.1 -2.6
v 1.7 5.2 -2.6
v 1.8 5.2 -2.5
v 1.8 5.1 -2.5
v 1.9 5.1 -2.5
v 1.9 5.2 -2.5
v 1.9 5.2 -2.6
v 1.9 5.1 -2.6
v 1.8 5.1 -2.6
v 1.8 5.2 -2.6
v 1.9 5.1 -2.5
v 1.9 5.1 -2.6
v 2 5.1 -2.6
v 2 5.1 -2.5
v 1.9 5.2 -2.5
v 1.9 5.1 -2.5
v 2 5.1 -2.5
v 2 5.2 -2.5
v 2 5.2 -2.6
v 2 5.1 -2.6
v 1.9 5.1 -2.6
v 1.9 5.2 -2.6
v 2.1 5.2 -2.5
v 2.1 5.1 -2.5
v 2.1 5.1 -2.6
v 2.1 5.2 -2.6
v 2 5.1 -2.5
v 2 5.1 -2.6
v 2.1 5.1 -2.6
v 2.1 5.1 -2.5
v 2 5.2 -2.5
v 2 5.1 -2.5
v 2.1 5.1 -2.5
v 2.1 5.2 -2.5
v 2.1 5.2 -2.6
v 2.1 5.1 -2.6
v 2 5.1 -2.6
v 2 5.2 -2.6
v 0.8 5.1 -2.6
v 0.8 5 -2.6
v 0.8 5 -2.5
v 0.8 5.1 -2.5
v 0.8 5.1 -2.6
v 0.8 5.1 -2.5
v 0.9 5.1 -2.5
v 0.9 5.1 -2.6
v 0.8 5.1 -2.5
v 0.8 5 -2.5
v 0.9 5 -2.5
v 0.9 5.1 -2.5
v 0.9 5.1 -2.6
v 0.9 5 -2.6
v 0.8 5 -2.6
v 0.8 5.1 -2.6
v 0.9 5.1 -2.6
v 0.9 5.1 -2.5
v 1 5.1 -2.5
v 1 5.1 -2.6
v 0.9 5.1 -2.5
v 0.9 5 -2.5
v 1 5 -2.5
v 1 5.1 -2.5
v 1 5.1 -2.6
v 1 5 -2.6
v 0.9 5 -2.6
v 0.9 5.1 -2.6
v 1 5.1 -2.5
v 1 5 -2.5
v 1.1 5 -2.5
v 1.1 5.1 -2.5
v 1.1 5.1 -2.6
v 1.1 5 -2.6
v 1 5 -2.6
v 1 5.1 -2.6
v 1.1 5.1 -2.5
v 1.1 5 -2.5
v 1.2 5 -2.5
v 1.2 5.1 -2.5
v 1.2 5.1 -2.6
v 1.2 5 -2.6
v 1.1 5 -2.6
v 1.1 5.1 -2.6
v 1.2 5.1 -2.5
v 1.2 5 -2.5
v 1.3 5 -2.5
v 1.3 5.1 -2.5
v 1.3 5.1 -2.6
v 1.3 5 -2.6
v 1.2 5 -2.6
v 1.2 5.1 -2.6
v 1.3 5.1 -2.5
v 1.3 5 -2.5
v 1.4 5 -2.5
v 1.4 5.1 -2.5
v 1.4 5.1 -2.6
v 1.4 5 -2.6
v 1.3 5 -2.6
v 1.3 5.1 -2.6
v 1.4 5.1 -2.5
v 1.4 5 -2.5
v 1.5 5 -2.5
v 1.5 5.1 -2.5
v 1.5 5.1 -2.6
v 1.5 5 -2.6
v 1.4 5 -2.6
v 1.4 5.1 -2.6
v 1.5 5.1 -2.5
v 1.5 5 -2.5
v 1.6 5 -2.5
v 1.6 5.1 -2.5
v 1.6 5.1 -2.6
v 1.6 5 -2.6
v 1.5 5 -2.6
v 1.5 5.1 -2.6
v 1.6 5.1 -2.5
v 1.6 5 -2.5
v 1.7 5 -2.5
v 1.7 5.1 -2.5
v 1.7 5.1 -2.6
v 1.7 5 -2.6
v 1.6 5 -2.6
v 1.6 5.1 -2.6
v 1.7 5 -2.5
v 1.7 5 -2.6
v 1.8 5 -2.6
v 1.8 5 -2.5
v 1.7 5.1 -2.5
v 1.7 5 -2.5
v 1.8 5 -2.5
v 1.8 5.1 -2.5
v 1.8 5.1 -2.6
v 1.8 5 -2.6
v 1.7 5 -2.6
v 1.7 5.1 -2.6
v 1.9 5.1 -2.5
v 1.9 5 -2.5
v 1.9 5 -2.6
v 1.9 5.1 -2.6
v 1.8 5 -2.5
v 1.8 5 -2.6
v 1.9 5 -2.6
v 1.9 5 -2.5
v 1.8 5.1 -2.5
v 1.8 5 -2.5
v 1.9 5 -2.5
v 1.9 5.1 -2.5
v 1.9 5.1 -2.6
v 1.9 5 -2.6
v 1.8 5 -2.6
v 1.8 5.1 -2.6
v 0.6 5 -2.6
v 0.6 4.9 -2.6
v 0.6 4.9 -2.5
v 0.6 5 -2.5
v 0.6 5 -2.6
v 0.6 5 -2.5
v 0.7 5 -2.5
v 0.7 5 -2.6
v 0.6 5 -2.5
v 0.6 4.9 -2.5
v 0.7 4.9 -2.5
v 0.7 5 -2.5
v 0.7 5 -2.6
v 0.7 4.9 -2.6
v 0.6 4.9 -2.6
v 0.6 5 -2.6
v 0.7 5 -2.6
v 0.7 5 -2.5
v 0.8 5 -2.5
v 0.8 5 -2.6
v 0.7 5 -2.5
v 0.7 4.9 -2.5
v 0.8 4.9 -2.5
v 0.8 5 -2.5
v 0.8 5 -2.6
v 0.8 4.9 -2.6
v 0.7 4.9 -2.6
v 0.7 5 -2.6
v 0.8 5 -2.5
v 0.8 4.9 -2.5
v 0.9 4.9 -2.5
v 0.9 5 -2.5
v 0.9 5 -2.6
v 0.9 4.9 -2.6
v 0.8 4.9 -2.6
v 0.8 5 -2.6
v 0.9 5 -2.5
v 0.9 4.9 -2.5
v 1 4.9 -2.5
v 1 5 -2.5
v 1 5 -2.6
v 1 4.9 -2.6
v 0.9 4.9 -2.6
v 0.9 5 -2.6
v 1 5 -2.5
v 1 4.9 -2.5
v 1.1 4.9 -2.5
v 1.1 5 -2.5
v 1.1 5 -2.6
v 1.1 4.9 -2.6
v 1 4.9 -2.6
v 1 5 -2.6
v 1.1 5 -2.5
v 1.1 4.9 -2.5
v 1.2 4.9 -2.5
v 1.2 5 -2.5
v 1.2 5 -2.6
v 1.2 4.9 -2.6
v 1.1 4.9 -2.6
v 1.1 5 -2.6
v 1.2 5 -2.5
v 1.2 4.9 -2.5
v 1.3 4.9 -2.5
v 1.3 5 -2.5
v 1.3 5 -2.6
v 1.3 4.9 -2.6
v 1.2 4.9 -2.6
v 1.2 5 -2.6
v 1.3 5 -2.5
v 1.3 4.9 -2.5
v 1.4 4.9 -2.5
v 1.4 5 -2.5
v 1.4 5 -2.6
v 1.4 4.9 -2.6
v 1.3 4.9 -2.6
v 1.3 5 -2.6
v 1.4 5 -2.5
v 1.4 4.9 -2.5
v 1.5 4.9 -2.5
v 1.5 5 -2.5
v 1.5 5 -2.6
v 1.5 4.9 -2.6
v 1.4 4.9 -2.6
v 1.4 5 -2.6
v 1.5 4.9 -2.5
v 1.5 4.9 -2.6
v 1.6 4.9 -2.6
v 1.6 4.9 -2.5
v 1.5 5 -2.5
v 1.5 4.9 -2.5
v 1.6 4.9 -2.5
v 1.6 5 -2.5
v 1.6 5 -2.6
v 1.6 4.9 -2.6
v 1.5 4.9 -2.6
v 1.5 5 -2.6
v 1.7 5 -2.5
v 1.7 4.9 -2.5
v 1.7 4.9 -2.6
v 1.7 5 -2.6
v 1.6 4.9 -2.5
v 1.6 4.9 -2.6
v 1.7 4.9 -2.6
v 1.7 4.9 -2.5
v 1.6 5 -2.5
v 1.6 4.9 -2.5
v 1.7 4.9 -2.5
v 1.7 5 -2.5
v 1.7 5 -2.6
v 1.7 4.9 -2.6
v 1.6 4.9 -2.6
v 1.6 5 -2.6
v 0.4 4.9 -2.6
v 0.4 4.8 -2.6
v 0.4 4.8 -2.5
v 0.4 4.9 -2.5
v 0.4 4.9 -2.6
v 0.4 4.9 -2.5
v 0.5 4.9 -2.5
v 0.5 4.9 -2.6
v 0.4 4.9 -2.5
v 0.4 4.8 -2.5
v 0.5 4.8 -2.5
v 0.5 4.9 -2.5
v 0.5 4.9 -2.6
v 0.5 4.8 -2.6
v 0.4 4.8 -2.6
v 0.4 4.9 -2.6
v 0.5 4.9 -2.6
v 0.5 4.9 -2.5
v 0.6 4.9 -2.5
v 0.6 4.9 -2.6
v 0.5 4.9 -2.5
v 0.5 4.8 -2.5
v 0.6 4.8 -2.5
v 0.6 4.9 -2.5
v 0.6 4.9 -2.6
v 0.6 4.8 -2.6
v 0.5 4.8 -2.6
v 0.5 4.9 -2.6
v 0.6 4.9 -2.5
v 0.6 4.8 -2.5
v 0.7 4.8 -2.5
v 0.7 4.9 -2.5
v 0.7 4.9 -2.6
v 0.7 4.8 -2.6
v 0.6 4.8 -2.6
v 0.6 4.9 -2.6
v 0.7 4.9 -2.5
v 0.7 4.8 -2.5
v 0.8 4.8 -2.5
v 0.8 4.9 -2.5
v 0.8 4.9 -2.6
v 0.8 4.8 -2.6
v 0.7 4.8 -2.6
v 0.7 4.9 -2.6
v 0.8 4.9 -2.5
v 0.8 4.8 -2.5
v 0.9 4.8 -2.5
v 0.9 4.9 -2.5
v 0.9 4.9 -2.6
v 0.9 4.8 -2.6
v 0.8 4.8 -2.6
v 0.8 4.9 -2.6
v 0.9 4.9 -2.5
v 0.9 4.8 -2.5
v 1 4.8 -2.5
v 1 4.9 -2.5
v 1 4.9 -2.6
v 1 4.8 -2.6
v 0.9 4.8 -2.6
v 0.9 4.9 -2.6
v 1 4.9 -2.5
v 1 4.8 -2.5
v 1.1 4.8 -2.5
v 1.1 4.9 -2.5
v 1.1 4.9 -2.6
v 1.1 4.8 -2.6
v 1 4.8 -2.6
v 1 4.9 -2.6
v 1.1 4.9 -2.5
v 1.1 4.8 -2.5
v 1.2 4.8 -2.5
v 1.2 4.9 -2.5
v 1.2 4.9 -2.6
v 1.2 4.8 -2.6
v 1.1 4.8 -2.6
v 1.1 4.9 -2.6
v 1.2 4.9 -2.5
v 1.2 4.8 -2.5
v 1.3 4.8 -2.5
v 1.3 4.9 -2.5
v 1.3 4.9 -2.6
v 1.3 4.8 -2.6
v 1.2 4.8 -2.6
v 1.2 4.9 -2.6
v 1.3 4.8 -2.5
v 1.3 4.8 -2.6
v 1.4 4.8 -2.6
v 1.4 4.8 -2.5
v 1.3 4.9 -2.5
v 1.3 4.8 -2.5
v 1.4 4.8 -2.5
v 1.4 4.9 -2.5
v 1.4 4.9 -2.6
v 1.4 4.8 -2.6
v 1.3 4.8 -2.6
v 1.3 4.9 -2.6
v 1.5 4.9 -2.5
v 1.5 4.8 -2.5
v 1.5 4.8 -2.6
v 1.5 4.9 -2.6
v 1.4 4.8 -2.5
v 1.4 4.8 -2.6
v 1.5 4.8 -2.6
v 1.5 4.8 -2.5
v 1.4 4.9 -2.5
v 1.4 4.8 -2.5
v 1.5 4.8 -2.5
v 1.5 4.9 -2.5
v 1.5 4.9 -2.6
v 1.5 4.8 -2.6
v 1.4 4.8 -2.6
v 1.4 4.9 -2.6
v 0.2 4.8 -2.6
v 0.2 4.7 -2.6
v 0.2 4.7 -2.5
v 0.2 4.8 -2.5
v 0.2 4.8 -2.6
v 0.2 4.8 -2.5
v 0.3 4.8 -2.5
v 0.3 4.8 -2.6
v 0.2 4.8 -2.5
v 0.2 4.7 -2.5
v 0.3 4.7 -2.5
v 0.3 4.8 -2.5
v 0.3 4.8 -2.6
v 0.3 4.7 -2.6
v 0.2 4.7 -2.6
v 0.2 4.8 -2.6
v 0.3 4.8 -2.6
v 0.3 4.8 -2.5
v 0.4 4.8 -2.5
v 0.4 4.8 -2.6
v 0.3 4.8 -2.5
v 0.3 4.7 -2.5
v 0.4 4.7 -2.5
v 0.4 4.8 -2.5
v 0.4 4.8 -2.6
v 0.4 4.7 -2.6
v 0.3 4.7 -2.6
v 0.3 4.8 -2.6
v 0.4 4.8 -2.5
v 0.4 4.7 -2.5
v 0.5 4.7 -2.5
v 0.5 4.8 -2.5
v 0.5 4.8 -2.6
v 0.5 4.7 -2.6
v 0.4 4.7 -2.6
v 0.4 4.8 -2.6
v 0.5 4.8 -2.5
v 0.5 4.7 -2.5
v 0.6 4.7 -2.5
v 0.6 4.8 -2.5
v 0.6 4.8 -2.6
v 0.6 4.7 -2.6
v 0.5 4.7 -2.6
v 0.5 4.8 -2.6
v 0.6 4.8 -2.5
v 0.6 4.7 -2.5
v 0.7 4.7 -2.5
v 0.7 4.8 -2.5
v 0.7 4.8 -2.6
v 0.7 4.7 -2.6
v 0.6 4.7 -2.6
v 0.6 4.8 -2.6
v 0.7 4.8 -2.5
v 0.7 4.7 -2.5
v 0.8 4.7 -2.5
v 0.8 4.8 -2.5
v 0.8 4.8 -2.6
v 0.8 4.7 -2.6
v 0.7 4.7 -2.6
v 0.7 4.8 -2.6
v 0.8 4.8 -2.5
v 0.8 4.7 -2.5
v 0.9 4.7 -2.5
v 0.9 4.8 -2.5
v 0.9 4.8 -2.6
v 0.9 4.7 -2.6
v 0.8 4.7 -2.6
v 0.8 4.8 -2.6
v 0.9 4.8 -2.5
v 0.9 4.7 -2.5
v 1 4.7 -2.5
v 1 4.8 -2.5
v 1 4.8 -2.6
v 1 4.7 -2.6
v 0.9 4.7 -2.6
v 0.9 4.8 -2.6
v 1 4.8 -2.5
v 1 4.7 -2.5
v 1.1 4.7 -2.5
v 1.1 4.8 -2.5
v 1.1 4.8 -2.6
v 1.1 4.7 -2.6
v 1 4.7 -2.6
v 1 4.8 -2.6
v 1.1 4.7 -2.5
v 1.1 4.7 -2.6
v 1.2 4.7 -2.6
v 1.2 4.7 -2.5
v 1.1 4.8 -2.5
v 1.1 4.7 -2.5
v 1.2 4.7 -2.5
v 1.2 4.8 -2.5
v 1.2 4.8 -2.6
v 1.2 4.7 -2.6
v 1.1 4.7 -2.6
v 1.1 4.8 -2.6
v 1.3 4.8 -2.5
v 1.3 4.7 -2.5
v 1.3 4.7 -2.6
v 1.3 4.8 -2.6
v 1.2 4.7 -2.5
v 1.2 4.7 -2.6
v 1.3 4.7 -2.6
v 1.3 4.7 -2.5
v 1.2 4.8 -2.5
v 1.2 4.7 -2.5
v 1.3 4.7 -2.5
v 1.3 4.8 -2.5
v 1.3 4.8 -2.6
v 1.3 4.7 -2.6
v 1.2 4.7 -2.6
v 1.2 4.8 -2.6
v 0 4.7 -2.6
v 0 4.6 -2.6
v 0 4.6 -2.5
v 0 4.7 -2.5
v 0 4.7 -2.6
v 0 4.7 -2.5
v 0.1 4.7 -2.5
v 0.1 4.7 -2.6
v 0 4.7 -2.5
v 0 4.6 -2.5
v 0.1 4.6 -2.5
v 0.1 4.7 -2.5
v 0.1 4.7 -2.6
v 0.1 4.6 -2.6
v 0 4.6 -2.6
v 0 4.7 -2.6
v 0.1 4.7 -2.6
v 0.1 4.7 -2.5
v 0.2 4.7 -2.5
v 0.2 4.7 -2.6
v 0.1 4.7 -2.5
v 0.1 4.6 -2.5
v 0.2 4.6 -2.5
v 0.2 4.7 -2.5
v 0.2 4.7 -2.6
v 0.2 4.6 -2.6
v 0.1 4.6 -2.6
v 0.1 4.7 -2.6
v 0.2 4.7 -2.5
v 0.2 4.6 -2.5
v 0.3 4.6 -2.5
v 0.3 4.7 -2.5
v 0.3 4.7 -2.6
v 0.3 4.6 -2.6
v 0.2 4.6 -2.6
v 0.2 4.7 -2.6
v 0.3 4.7 -2.5
v 0.3 4.6 -2.5
v 0.4 4.6 -2.5
v 0.4 4.7 -2.5
v 0.4 4.7 -2.6
v 0.4 4.6 -2.6
v 0.3 4.6 -2.6
v 0.3 4.7 -2.6
v 0.4 4.7 -2.5
v 0.4 4.6 -2.5
v 0.5 4.6 -2.5
v 0.5 4.7 -2.5
v 0.5 4.7 -2.6
v 0.5 4.6 -2.6
v 0.4 4.6 -2.6
v 0.4 4.7 -2.6
v 0.5 4.7 -2.5
v 0.5 4.6 -2.5
v 0.6 4.6 -2.5
v 0.6 4.7 -2.5
v 0.6 4.7 -2.6
v 0.6 4.6 -2.6
v 0.5 4.6 -2.6
v 0.5 4.7 -2.6
v 0.6 4.7 -2.5
v 0.6 4.6 -2.5
v 0.7 4.6 -2.5
v 0.7 4.7 -2.5
v 0.7 4.7 -2.6
v 0.7 4.6 -2.6
v 0.6 4.6 -2.6
v 0.6 4.7 -2.6
v 0.7 4.7 -2.5
v 0.7 4.6 -2.5
v 0.8 4.6 -2.5
v 0.8 4.7 -2.5
v 0.8 4.7 -2.6
v 0.8 4.6 -2.6
v 0.7 4.6 -2.6
v 0.7 4.7 -2.6
v 0.8 4.7 -2.5
v 0.8 4.6 -2.5
v 0.9 4.6 -2.5
v 0.9 4.7 -2.5
v 0.9 4.7 -2.6
v 0.9 4.6 -2.6
v 0.8 4.6 -2.6
v 0.8 4.7 -2.6
v 0.9 4.6 -2.5
v 0.9 4.6 -2.6
v 1 4.6 -2.6
v 1 4.6 -2.5
v 0.9 4.7 -2.5
v 0.9 4.6 -2.5
v 1 4.6 -2.5
v 1 4.7 -2.5
v 1 4.7 -2.6
v 1 4.6 -2.6
v 0.9 4.6 -2.6
v 0.9 4.7 -2.6
v 1.1 4.7 -2.5
v 1.1 4.6 -2.5
v 1.1 4.6 -2.6
v 1.1 4.7 -2.6
v 1 4.6 -2.5
v 1 4.6 -2.6
v 1.1 4.6 -2.6
v 1.1 4.6 -2.5
v 1 4.7 -2.5
v 1 4.6 -2.5
v 1.1 4.6 -2.5
v 1.1 4.7 -2.5
v 1.1 4.7 -2.6
v 1.1 4.6 -2.6
v 1 4.6 -2.6
v 1 4.7 -2.6
v 0 4.6 -2.6
v 0 4.5 -2.6
v 0 4.5 -2.5
v 0 4.6 -2.5
v 0 4.6 -2.5
v 0 4.5 -2.5
v 0.1 4.5 -2.5
v 0.1 4.6 -2.5
v 0.1 4.6 -2.6
v 0.1 4.5 -2.6
v 0 4.5 -2.6
v 0 4.6 -2.6
v 0.1 4.6 -2.5
v 0.1 4.5 -2.5
v 0.2 4.5 -2.5
v 0.2 4.6 -2.5
v 0.2 4.6 -2.6
v 0.2 4.5 -2.6
v 0.1 4.5 -2.6
v 0.1 4.6 -2.6
v 0.2 4.6 -2.5
v 0.2 4.5 -2.5
v 0.3 4.5 -2.5
v 0.3 4.6 -2.5
v 0.3 4.6 -2.6
v 0.3 4.5 -2.6
v 0.2 4.5 -2.6
v 0.2 4.6 -2.6
v 0.3 4.6 -2.5
v 0.3 4.5 -2.5
v 0.4 4.5 -2.5
v 0.4 4.6 -2.5
v 0.4 4.6 -2.6
v 0.4 4.5 -2.6
v 0.3 4.5 -2.6
v 0.3 4.6 -2.6
v 0.4 4.6 -2.5
v 0.4 4.5 -2.5
v 0.5 4.5 -2.5
v 0.5 4.6 -2.5
v 0.5 4.6 -2.6
v 0.5 4.5 -2.6
v 0.4 4.5 -2.6
v 0.4 4.6 -2.6
v 0.5 4.6 -2.5
v 0.5 4.5 -2.5
v 0.6 4.5 -2.5
v 0.6 4.6 -2.5
v 0.6 4.6 -2.6
v 0.6 4.5 -2.6
v 0.5 4.5 -2.6
v 0.5 4.6 -2.6
v 0.6 4.6 -2.5
v 0.6 4.5 -2.5
v 0.7 4.5 -2.5
v 0.7 4.6 -2.5
v 0.7 4.6 -2.6
v 0.7 4.5 -2.6
v 0.6 4.5 -2.6
v 0.6 4.6 -2.6
v 0.7 4.5 -2.5
v 0.7 4.5 -2.6
v 0.8 4.5 -2.6
v 0.8 4.5 -2.5
v 0.7 4.6 -2.5
v 0.7 4.5 -2.5
v 0.8 4.5 -2.5
v 0.8 4.6 -2.5
v 0.8 4.6 -2.6
v 0.8 4.5 -2.6
v 0.7 4.5 -2.6
v 0.7 4.6 -2.6
v 0.9 4.6 -2.5
v 0.9 4.5 -2.5
v 0.9 4.5 -2.6
v 0.9 4.6 -2.6
v 0.8 4.5 -2.5
v 0.8 4.5 -2.6
v 0.9 4.5 -2.6
v 0.9 4.5 -2.5
v 0.8 4.6 -2.5
v 0.8 4.5 -2.5
v 0.9 4.5 -2.5
v 0.9 4.6 -2.5
v 0.9 4.6 -2.6
v 0.9 4.5 -2.6
v 0.8 4.5 -2.6
v 0.8 4.6 -2.6
v 0 4.5 -2.6
v 0 4.4 -2.6
v 0 4.4 -2.5
v 0 4.5 -2.5
v 0 4.5 -2.5
v 0 4.4 -2.5
v 0.1 4.4 -2.5
v 0.1 4.5 -2.5
v 0.1 4.5 -2.6
v 0.1 4.4 -2.6
v 0 4.4 -2.6
v 0 4.5 -2.6
v 0.1 4.5 -2.5
v 0.1 4.4 -2.5
v 0.2 4.4 -2.5
v 0.2 4.5 -2.5
v 0.2 4.5 -2.6
v 0.2 4.4 -2.6
v 0.1 4.4 -2.6
v 0.1 4.5 -2.6
v 0.2 4.5 -2.5
v 0.2 4.4 -2.5
v 0.3 4.4 -2.5
v 0.3 4.5 -2.5
v 0.3 4.5 -2.6
v 0.3 4.4 -2.6
v 0.2 4.4 -2.6
v 0.2 4.5 -2.6
v 0.3 4.5 -2.5
v 0.3 4.4 -2.5
v 0.4 4.4 -2.5
v 0.4 4.5 -2.5
v 0.4 4.5 -2.6
v 0.4 4.4 -2.6
v 0.3 4.4 -2.6
v 0.3 4.5 -2.6
v 0.4 4.5 -2.5
v 0.4 4.4 -2.5
v 0.5 4.4 -2.5
v 0.5 4.5 -2.5
v 0.5 4.5 -2.6
v 0.5 4.4 -2.6
v 0.4 4.4 -2.6
v 0.4 4.5 -2.6
v 0.5 4.4 -2.5
v 0.5 4.4 -2.6
v 0.6 4.4 -2.6
v 0.6 4.4 -2.5
v 0.5 4.5 -2.5
v 0.5 4.4 -2.5
v 0.6 4.4 -2.5
v 0.6 4.5 -2.5
v 0.6 4.5 -2.6
v 0.6 4.4 -2.6
v 0.5 4.4 -2.6
v 0.5 4.5 -2.6
v 0.7 4.5 -2.5
v 0.7 4.4 -2.5
v 0.7 4.4 -2.6
v 0.7 4.5 -2.6
v 0.6 4.4 -2.5
v 0.6 4.4 -2.6
v 0.7 4.4 -2.6
v 0.7 4.4 -2.5
v 0.6 4.5 -2.5
v 0.6 4.4 -2.5
v 0.7 4.4 -2.5
v 0.7 4.5 -2.5
v 0.7 4.5 -2.6
v 0.7 4.4 -2.6
v 0.6 4.4 -2.6
v 0.6 4.5 -2.6
v 0 4.4 -2.6
v 0 4.3 -2.6
v 0 4.3 -2.5
v 0 4.4 -2.5
v 0 4.4 -2.5
v 0 4.3 -2.5
v 0.1 4.3 -2.5
v 0.1 4.4 -2.5
v 0.1 4.4 -2.6
v 0.1 4.3 -2.6
v 0 4.3 -2.6
v 0 4.4 -2.6
v 0.1 4.4 -2.5
v 0.1 4.3 -2.5
v 0.2 4.3 -2.5
v 0.2 4.4 -2.5
v 0.2 4.4 -2.6
v 0.2 4.3 -2.6
v 0.1 4.3 -2.6
v 0.1 4.4 -2.6
v 0.2 4.4 -2.5
v 0.2 4.3 -2.5
v 0.3 4.3 -2.5
v 0.3 4.4 -2.5
v 0.3 4.4 -2.6
v 0.3 4.3 -2.6
v 0.2 4.3 -2.6
v 0.2 4.4 -2.6
v 0.3 4.3 -2.5
v 0.3 4.3 -2.6
v 0.4 4.3 -2.6
v 0.4 4.3 -2.5
v 0.3 4.4 -2.5
v 0.3 4.3 -2.5
v 0.4 4.3 -2.5
v 0.4 4.4 -2.5
v 0.4 4.4 -2.6
v 0.4 4.3 -2.6
v 0.3 4.3 -2.6
v 0.3 4.4 -2.6
v 0.5 4.4 -2.5
v 0.5 4.3 -2.5
v 0.5 4.3 -2.6
v 0.5 4.4 -2.6
v 0.4 4.3 -2.5
v 0.4 4.3 -2.6
v 0.5 4.3 -2.6
v 0.5 4.3 -2.5
v 0.4 4.4 -2.5
v 0.4 4.3 -2.5
v 0.5 4.3 -2.5
v 0.5 4.4 -2.5
v 0.5 4.4 -2.6
v 0.5 4.3 -2.6
v 0.4 4.3 -2.6
v 0.4 4.4 -2.6
v 0 4.3 -2.6
v 0 4.2 -2.6
v 0 4.2 -2.5
v 0 4.3 -2.5
v 0 4.3 -2.5
v 0 4.2 -2.5
v 0.1 4.2 -2.5
v 0.1 4.3 -2.5
v 0.1 4.3 -2.6
v 0.1 4.2 -2.6
v 0 4.2 -2.6
v 0 4.3 -2.6
v 0.1 4.2 -2.5
v 0.1 4.2 -2.6
v 0.2 4.2 -2.6
v 0.2 4.2 -2.5
v 0.1 4.3 -2.5
v 0.1 4.2 -2.5
v 0.2 4.2 -2.5
v 0.2 4.3 -2.5
v 0.2 4.3 -2.6
v 0.2 4.2 -2.6
v 0.1 4.2 -2.6
v 0.1 4.3 -2.6
v 0.3 4.3 -2.5
v 0.3 4.2 -2.5
v 0.3 4.2 -2.6
v 0.3 4.3 -2.6
v 0.2 4.2 -2.5
v 0.2 4.2 -2.6
v 0.3 4.2 -2.6
v 0.3 4.2 -2.5
v 0.2 4.3 -2.5
v 0.2 4.2 -2.5
v 0.3 4.2 -2.5
v 0.3 4.3 -2.5
v 0.3 4.3 -2.6
v 0.3 4.2 -2.6
v 0.2 4.2 -2.6
v 0.2 4.3 -2.6
v 0 4.2 -2.6
v 0 4.1 -2.6
v 0 4.1 -2.5
v 0 4.2 -2.5
v 0.1 4.2 -2.5
v 0.1 4.1 -2.5
v 0.1 4.1 -2.6
v 0.1 4.2 -2.6
v 0 4.1 -2.5
v 0 4.1 -2.6
v 0.1 4.1 -2.6
v 0.1 4.1 -2.5
v 0 4.2 -2.5
v 0 4.1 -2.5
v 0.1 4.1 -2.5
v 0.1 4.2 -2.5
v 0.1 4.2 -2.6
v 0.1 4.1 -2.6
v 0 4.1 -2.6
v 0 4.2 -2.6

# faces
f 1/1/1 2/1/1 3/1/1 4/1/1
f 5/1/2 6/1/2 7/1/2 8/1/2
f 9/1/3 10/1/3 11/1/3 12/1/3
f 13/1/5 14/1/5 15/1/5 16/1/5
f 17/1/6 18/1/6 19/1/6 20/1/6
f 21/1/1 22/1/1 23/1/1 24/1/1
f 25/1/3 26/1/3 27/1/3 28/1/3
f 29/1/5 30/1/5 31/1/5 32/1/5
f 33/1/6 34/1/6 35/1/6 36/1/6
f 37/1/3 38/1/3 39/1/3 40/1/3
f 41/1/5 42/1/5 43/1/5 44/1/5
f 45/1/6 46/1/6 47/1/6 48/1/6
f 49/1/2 50/1/2 51/1/2 52/1/2
f 53/1/4 54/1/4 55/1/4 56/1/4
f 57/1/5 58/1/5 59/1/5 60/1/5
f 61/1/6 62/1/6 63/1/6 64/1/6
f 65/1/1 66/1/1 67/1/1 68/1/1
f 69/1/3 70/1/3 71/1/3 72/1/3
f 73/1/5 74/1/5 75/1/5 76/1/5
f 77/1/6 78/1/6 79/1/6 80/1/6
f 81/1/3 82/1/3 83/1/3 84/1/3
f 85/1/5 86/1/5 87/1/5 88/1/5
f 89/1/6 90/1/6 91/1/6 92/1/6
f 93/1/5 94/1/5 95/1/5 96/1/5
f 97/1/6 98/1/6 99/1/6 100/1/6
f 101/1/2 102/1/2 103/1/2 104/1/2
f 105/1/5 106/1/5 107/1/5 108/1/5
f 109/1/6 110/1/6 111/1/6 112/1/6
f 113/1/1 114/1/1 115/1/1 116/1/1
f 117/1/3 118/1/3 119/1/3 120/1/3
f 121/1/5 122/1/5 123/1/5 124/1/5
f 125/1/6 126/1/6 127/1/6 128/1/6
f 129/1/3 130/1/3 131/1/3 132/1/3
f 133/1/5 134/1/5 135/1/5 136/1/5
f 137/1/6 138/1/6 139/1/6 140/1/6
f 141/1/5 142/1/5 143/1/5 144/1/5
f 145/1/6 146/1/6 147/1/6 148/1/6
f 149/1/5 150/1/5 151/1/5 152/1/5
f 153/1/6 154/1/6 155/1/6 156/1/6
f 157/1/5 158/1/5 159/1/5 160/1/5
f 161/1/6 162/1/6 163/1/6 164/1/6
f 165/1/2 166/1/2 167/1/2 168/1/2
f 169/1/5 170/1/5 171/1/5 172/1/5
f 173/1/6 174/1/6 175/1/6 176/1/6
f 177/1/1 178/1/1 179/1/1 180/1/1
f 181/1/3 182/1/3 183/1/3 184/1/3
f 185/1/5 186/1/5 187/1/5 188/1/5
f 189/1/6 190/1/6 191/1/6 192/1/6
f 193/1/3 194/1/3 195/1/3 196/1/3
f 197/1/5 198/1/5 199/1/5 200/1/5
f 201/1/6 202/1/6 203/1/6 204/1/6
f 205/1/5 206/1/5 207/1/5 208/1/5
f 209/1/6 210/1/6 211/1/6 212/1/6
f 213/1/5 214/1/5 215/1/5 216/1/5
f 217/1/6 218/1/6 219/1/6 220/1/6
f 221/1/5 222/1/5 223/1/5 224/1/5
f 225/1/6 226/1/6 227/1/6 228/1/6
f 229/1/5 230/1/5 231/1/5 232/1/5
f 233/1/6 234/1/6 235/1/6 236/1/6
f 237/1/5 238/1/5 239/1/5 240/1/5
f 241/1/6 242/1/6 243/1/6 244/1/6
f 245/1/2 246/1/2 247/1/2 248/1/2
f 249/1/5 250/1/5 251/1/5 252/1/5
f 253/1/6 254/1/6 255/1/6 256/1/6
f 257/1/1 258/1/1 259/1/1 260/1/1
f 261/1/3 262/1/3 263/1/3 264/1/3
f 265/1/5 266/1/5 267/1/5 268/1/5
f 269/1/6 270/1/6 271/1/6 272/1/6
f 273/1/3 274/1/3 275/1/3 276/1/3
f 277/1/5 278/1/5 279/1/5 280/1/5
f 281/1/6 282/1/6 283/1/6 284/1/6
f 285/1/5 286/1/5 287/1/5 288/1/5
f 289/1/6 290/1/6 291/1/6 292/1/6
f 293/1/5 294/1/5 295/1/5 296/1/5
f 297/1/6 298/1/6 299/1/6 300/1/6
f 301/1/5 302/1/5 303/1/5 304/1/5
f 305/1/6 306/1/6 307/1/6 308/1/6
f 309/1/5 310/1/5 311/1/5 312/1/5
f 313/1/6 314/1/6 315/1/6 316/1/6
f 317/1/5 318/1/5 319/1/5 320/1/5
f 321/1/6 322/1/6 323/1/6 324/1/6
f 325/1/5 326/1/5 327/1/5 328/1/5
f 329/1/6 330/1/6 331/1/6 332/1/6
f 333/1/4 334/1/4 335/1/4 336/1/4
f 337/1/5 338/1/5 339/1/5 340/1/5
f 341/1/6 342/1/6 343/1/6 344/1/6
f 345/1/2 346/1/2 347/1/2 348/1/2
f 349/1/4 350/1/4 351/1/4 352/1/4
f 353/1/5 354/1/5 355/1/5 356/1/5
f 357/1/6 358/1/6 359/1/6 360/1/6
f 361/1/1 362/1/1 363/1/1 364/1/1
f 365/1/3 366/1/3 367/1/3 368/1/3
f 369/1/5 370/1/5 371/1/5 372/1/5
f 373/1/6 374/1/6 375/1/6 376/1/6
f 377/1/3 378/1/3 379/1/3 380/1/3
f 381/1/5 382/1/5 383/1/5 384/1/5
f 385/1/6 386/1/6 387/1/6 388/1/6
f 389/1/5 390/1/5 391/1/5 392/1/5
f 393/1/6 394/1/6 395/1/6 396/1/6
f 397/1/5 398/1/5 399/1/5 400/1/5
f 401/1/6 402/1/6 403/1/6 404/1/6
f 405/1/5 406/1/5 407/1/5 408/1/5
f 409/1/6 410/1/6 411/1/6 412/1/6
f 413/1/5 414/1/5 415/1/5 416/1/5
f 417/1/6 418/1/6 419/1/6 420/1/6
f 421/1/5 422/1/5 423/1/5 424/1/5
f 425/1/6 426/1/6 427/1/6 428/1/6
f 429/1/5 430/1/5 431/1/5 432/1/5
f 433/1/6 434/1/6 435/1/6 436/1/6
f 437/1/4 438/1/4 439/1/4 440/1/4
f 441/1/5 442/1/5 443/1/5 444/1/5
f 445/1/6 446/1/6 447/1/6 448/1/6
f 449/1/2 450/1/2 451/1/2 452/1/2
f 453/1/4 454/1/4 455/1/4 456/1/4
f 457/1/5 458/1/5 459/1/5 460/1/5
f 461/1/6 462/1/6 463/1/6 464/1/6
f 465/1/1 466/1/1 467/1/1 468/1/1
f 469/1/3 470/1/3 471/1/3 472/1/3
f 473/1/5 474/1/5 475/1/5 476/1/5
f 477/1/6 478/1/6 479/1/6 480/1/6
f 481/1/3 482/1/3 483/1/3 484/1/3
f 485/1/5 486/1/5 487/1/5 488/1/5
f 489/1/6 490/1/6 491/1/6 492/1/6
f 493/1/5 494/1/5 495/1/5 496/1/5
f 497/1/6 498/1/6 499/1/6 500/1/6
f 501/1/5 502/1/5 503/1/5 504/1/5
f 505/1/6 506/1/6 507/1/6 508/1/6
f 509/1/5 510/1/5 511/1/5 512/1/5
f 513/1/6 514/1/6 515/1/6 516/1/6
f 517/1/5 518/1/5 519/1/5 520/1/5
f 521/1/6 522/1/6 523/1/6 524/1/6
f 525/1/5 526/1/5 527/1/5 528/1/5
f 529/1/6 530/1/6 531/1/6 532/1/6
f 533/1/5 534/1/5 535/1/5 536/1/5
f 537/1/6 538/1/6 539/1/6 540/1/6
f 541/1/4 542/1/4 543/1/4 544/1/4
f 545/1/5 546/1/5 547/1/5 548/1/5
f 549/1/6 550/1/6 551/1/6 552/1/6
f 553/1/2 554/1/2 555/1/2 556/1/2
f 557/1/4 558/1/4 559/1/4 560/1/4
f 561/1/5 562/1/5 563/1/5 564/1/5
f 565/1/6 566/1/6 567/1/6 568/1/6
f 569/1/1 570/1/1 571/1/1 572/1/1
f 573/1/3 574/1/3 575/1/3 576/1/3
f 577/1/5 578/1/5 579/1/5 580/1/5
f 581/1/6 582/1/6 583/1/6 584/1/6
f 585/1/3 586/1/3 587/1/3 588/1/3
f 589/1/5 590/1/5 591/1/5 592/1/5
f 593/1/6 594/1/6 595/1/6 596/1/6
f 597/1/5 598/1/5 599/1/5 600/1/5
f 601/1/6 602/1/6 603/1/6 604/1/6
f 605/1/5 606/1/5 607/1/5 608/1/5
f 609/1/6 610/1/6 611/1/6 612/1/6
f 613/1/5 614/1/5 615/1/5 616/1/5
f 617/1/6 618/1/6 619/1/6 620/1/6
f 621/1/5 622/1/5 623/1/5 624/1/5
f 625/1/6 626/1/6 627/1/6 628/1/6
f 629/1/5 630/1/5 631/1/5 632/1/5
f 633/1/6 634/1/6 635/1/6 636/1/6
f 637/1/5 638/1/5 639/1/5 640/1/5
f 641/1/6 642/1/6 643/1/6 644/1/6
f 645/1/4 646/1/4 647/1/4 648/1/4
f 649/1/5 650/1/5 651/1/5 652/1/5
f 653/1/6 654/1/6 655/1/6 656/1/6
f 657/1/2 658/1/2 659/1/2 660/1/2
f 661/1/4 662/1/4 663/1/4 664/1/4
f 665/1/5 666/1/5 667/1/5 668/1/5
f 669/1/6 670/1/6 671/1/6 672/1/6
f 673/1/1 674/1/1 675/1/1 676/1/1
f 677/1/3 678/1/3 679/1/3 680/1/3
f 681/1/5 682/1/5 683/1/5 684/1/5
f 685/1/6 686/1/6 687/1/6 688/1/6
f 689/1/3 690/1/3 691/1/3 692/1/3
f 693/1/5 694/1/5 695/1/5 696/1/5
f 697/1/6 698/1/6 699/1/6 700/1/6
f 701/1/5 702/1/5 703/1/5 704/1/5
f 705/1/6 706/1/6 707/1/6 708/1/6
f 709/1/5 710/1/5 711/1/5 712/1/5
f 713/1/6 714/1/6 715/1/6 716/1/6
f 717/1/5 718/1/5 719/1/5 720/1/5
f 721/1/6 722/1/6 723/1/6 724/1/6
f 725/1/5 726/1/5 727/1/5 728/1/5
f 729/1/6 730/1/6 731/1/6 732/1/6
f 733/1/5 734/1/5 735/1/5 736/1/5
f 737/1/6 738/1/6 739/1/6 740/1/6
f 741/1/5 742/1/5 743/1/5 744/1/5
f 745/1/6 746/1/6 747/1/6 748/1/6
f 749/1/4 750/1/4 751/1/4 752/1/4
f 753/1/5 754/1/5 755/1/5 756/1/5
f 757/1/6 758/1/6 759/1/6 760/1/6
f 761/1/2 762/1/2 763/1/2 764/1/2
f 765/1/4 766/1/4 767/1/4 768/1/4
f 769/1/5 770/1/5 771/1/5 772/1/5
f 773/1/6 774/1/6 775/1/6 776/1/6
f 777/1/1 778/1/1 779/1/1 780/1/1
f 781/1/3 782/1/3 783/1/3 784/1/3
f 785/1/5 786/1/5 787/1/5 788/1/5
f 789/1/6 790/1/6 791/1/6 792/1/6
f 793/1/3 794/1/3 795/1/3 796/1/3
f 797/1/5 798/1/5 799/1/5 800/1/5
f 801/1/6 802/1/6 803/1/6 804/1/6
f 805/1/5 806/1/5 807/1/5 808/1/5
f 809/1/6 810/1/6 811/1/6 812/1/6
f 813/1/5 814/1/5 815/1/5 816/1/5
f 817/1/6 818/1/6 819/1/6 820/1/6
f 821/1/5 822/1/5 823/1/5 824/1/5
f 825/1/6 826/1/6 827/1/6 828/1/6
f 829/1/5 830/1/5 831/1/5 832/1/5
f 833/1/6 834/1/6 835/1/6 836/1/6
f 837/1/5 838/1/5 839/1/5 840/1/5
f 841/1/6 842/1/6 843/1/6 844/1/6
f 845/1/5 846/1/5 847/1/5 848/1/5
f 849/1/6 850/1/6 851/1/6 852/1/6
f 853/1/4 854/1/4 855/1/4 856/1/4
f 857/1/5 858/1/5 859/1/5 860/1/5
f 861/1/6 862/1/6 863/1/6 864/1/6
f 865/1/2 866/1/2 867/1/2 868/1/2
f 869/1/4 870/1/4 871/1/4 872/1/4
f 873/1/5 874/1/5 875/1/5 876/1/5
f 877/1/6 878/1/6 879/1/6 880/1/6
f 881/1/1 882/1/1 883/1/1 884/1/1
f 885/1/3 886/1/3 887/1/3 888/1/3
f 889/1/5 890/1/5 891/1/5 892/1/5
f 893/1/6 894/1/6 895/1/6 896/1/6
f 897/1/3 898/1/3 899/1/3 900/1/3
f 901/1/5 902/1/5 903/1/5 904/1/5
f 905/1/6 906/1/6 907/1/6 908/1/6
f 909/1/2 910/1/2 911/1/2 912/1/2
f 913/1/3 914/1/3 915/1/3 916/1/3
f 917/1/5 918/1/5 919/1/5 920/1/5
f 921/1/6 922/1/6 923/1/6 924/1/6
f 925/1/1 926/1/1 927/1/1 928/1/1
f 929/1/3 930/1/3 931/1/3 932/1/3
f 933/1/5 934/1/5 935/1/5 936/1/5
f 937/1/6 938/1/6 939/1/6 940/1/6
f 941/1/3 942/1/3 943/1/3 944/1/3
f 945/1/5 946/1/5 947/1/5 948/1/5
f 949/1/6 950/1/6 951/1/6 952/1/6
f 953/1/5 954/1/5 955/1/5 956/1/5
f 957/1/6 958/1/6 959/1/6 960/1/6
f 961/1/5 962/1/5 963/1/5 964/1/5
f 965/1/6 966/1/6 967/1/6 968/1/6
f 969/1/5 970/1/5 971/1/5 972/1/5
f 973/1/6 974/1/6 975/1/6 976/1/6
f 977/1/5 978/1/5 979/1/5 980/1/5
f 981/1/6 982/1/6 983/1/6 984/1/6
f 985/1/5 986/1/5 987/1/5 988/1/5
f 989/1/6 990/1/6 991/1/6 992/1/6
f 993/1/5 994/1/5 995/1/5 996/1/5
f 997/1/6 998/1/6 999/1/6 1000/1/6
f 1001/1/4 1002/1/4 1003/1/4 1004/1/4
f 1005/1/5 1006/1/5 1007/1/5 1008/1/5
f 1009/1/6 1010/1/6 1011/1/6 1012/1/6
f 1013/1/2 1014/1/2 1015/1/2 1016/1/2
f 1017/1/4 1018/1/4 1019/1/4 1020/1/4
f 1021/1/5 1022/1/5 1023/1/5 1024/1/5
f 1025/1/6 1026/1/6 1027/1/6 1028/1/6
f 1029/1/1 1030/1/1 1031/1/1 1032/1/1
f 1033/1/3 1034/1/3 1035/1/3 1036/1/3
f 1037/1/5 1038/1/5 1039/1/5 1040/1/5
f 1041/1/6 1042/1/6 1043/1/6 1044/1/6
f 1045/1/3 1046/1/3 1047/1/3 1048/1/3
f 1049/1/5 1050/1/5 1051/1/5 1052/1/5
f 1053/1/6 1054/1/6 1055/1/6 1056/1/6
f 1057/1/5 1058/1/5 1059/1/5 1060/1/5
f 1061/1/6 1062/1/6 1063/1/6 1064/1/6
f 1065/1/5 1066/1/5 1067/1/5 1068/1/5
f 1069/1/6 1070/1/6 1071/1/6 1072/1/6
f 1073/1/5 1074/1/5 1075/1/5 1076/1/5
f 1077/1/6 1078/1/6 1079/1/6 1080/1/6
f 1081/1/3 1082/1/3 1083/1/3 1084/1/3
f 1085/1/5 1086/1/5 1087/1/5 1088/1/5
f 1089/1/6 1090/1/6 1091/1/6 1092/1/6
f 1093/1/3 1094/1/3 1095/1/3 1096/1/3
f 1097/1/5 1098/1/5 1099/1/5 1100/1/5
f 1101/1/6 1102/1/6 1103/1/6 1104/1/6
f 1105/1/2 1106/1/2 1107/1/2 1108/1/2
f 1109/1/3 1110/1/3 1111/1/3 1112/1/3
f 1113/1/5 1114/1/5 1115/1/5 1116/1/5
f 1117/1/6 1118/1/6 1119/1/6 1120/1/6
f 1121/1/1 1122/1/1 1123/1/1 1124/1/1
f 1125/1/3 1126/1/3 1127/1/3 1128/1/3
f 1129/1/5 1130/1/5 1131/1/5 1132/1/5
f 1133/1/6 1134/1/6 1135/1/6 1136/1/6
f 1137/1/3 1138/1/3 1139/1/3 1140/1/3
f 1141/1/5 1142/1/5 1143/1/5 1144/1/5
f 1145/1/6 1146/1/6 1147/1/6 1148/1/6
f 1149/1/5 1150/1/5 1151/1/5 1152/1/5
f 1153/1/6 1154/1/6 1155/1/6 1156/1/6
f 1157/1/5 1158/1/5 1159/1/5 1160/1/5
f 1161/1/6 1162/1/6 1163/1/6 1164/1/6
f 1165/1/5 1166/1/5 1167/1/5 1168/1/5
f 1169/1/6 1170/1/6 1171/1/6 1172/1/6
f 1173/1/5 1174/1/5 1175/1/5 1176/1/5
f 1177/1/6 1178/1/6 1179/1/6 1180/1/6
f 1181/1/5 1182/1/5 1183/1/5 1184/1/5
f 1185/1/6 1186/1/6 1187/1/6 1188/1/6
f 1189/1/5 1190/1/5 1191/1/5 1192/1/5
f 1193/1/6 1194/1/6 1195/1/6 1196/1/6
f 1197/1/4 1198/1/4 1199/1/4 1200/1/4
f 1201/1/5 1202/1/5 1203/1/5 1204/1/5
f 1205/1/6 1206/1/6 1207/1/6 1208/1/6
f 1209/1/2 1210/1/2 1211/1/2 1212/1/2
f 1213/1/4 1214/1/4 1215/1/4 1216/1/4
f 1217/1/5 1218/1/5 1219/1/5 1220/1/5
f 1221/1/6 1222/1/6 1223/1/6 1224/1/6
f 1225/1/1 1226/1/1 1227/1/1 1228/1/1
f 1229/1/3 1230/1/3 1231/1/3 1232/1/3
f 1233/1/5 1234/1/5 1235/1/5 1236/1/5
f 1237/1/6 1238/1/6 1239/1/6 1240/1/6
f 1241/1/3 1242/1/3 1243/1/3 1244/1/3
f 1245/1/5 1246/1/5 1247/1/5 1248/1/5
f 1249/1/6 1250/1/6 1251/1/6 1252/1/6
f 1253/1/5 1254/1/5 1255/1/5 1256/1/5
f 1257/1/6 1258/1/6 1259/1/6 1260/1/6
f 1261/1/5 1262/1/5 1263/1/5 1264/1/5
f 1265/1/6 1266/1/6 1267/1/6 1268/1/6
f 1269/1/5 1270/1/5 1271/1/5 1272/1/5
f 1273/1/6 1274/1/6 1275/1/6 1276/1/6
f 1277/1/5 1278/1/5 1279/1/5 1280/1/5
f 1281/1/6 1282/1/6 1283/1/6 1284/1/6
f 1285/1/5 1286/1/5 1287/1/5 1288/1/5
f 1289/1/6 1290/1/6 1291/1/6 1292/1/6
f 1293/1/5 1294/1/5 1295/1/5 1296/1/5
f 1297/1/6 1298/1/6 1299/1/6 1300/1/6
f 1301/1/5 1302/1/5 1303/1/5 1304/1/5
f 1305/1/6 1306/1/6 1307/1/6 1308/1/6
f 1309/1/4 1310/1/4 1311/1/4 1312/1/4
f 1313/1/5 1314/1/5 1315/1/5 1316/1/5
f 1317/1/6 1318/1/6 1319/1/6 1320/1/6
f 1321/1/2 1322/1/2 1323/1/2 1324/1/2
f 1325/1/3 1326/1/3 1327/1/3 1328/1/3
f 1329/1/4 1330/1/4 1331/1/4 1332/1/4
f 1333/1/5 1334/1/5 1335/1/5 1336/1/5
f 1337/1/6 1338/1/6 1339/1/6 1340/1/6
f 1341/1/1 1342/1/1 1343/1/1 1344/1/1
f 1345/1/3 1346/1/3 1347/1/3 1348/1/3
f 1349/1/5 1350/1/5 1351/1/5 1352/1/5
f 1353/1/6 1354/1/6 1355/1/6 1356/1/6
f 1357/1/3 1358/1/3 1359/1/3 1360/1/3
f 1361/1/5 1362/1/5 1363/1/5 1364/1/5
f 1365/1/6 1366/1/6 1367/1/6 1368/1/6
f 1369/1/5 1370/1/5 1371/1/5 1372/1/5
f 1373/1/6 1374/1/6 1375/1/6 1376/1/6
f 1377/1/5 1378/1/5 1379/1/5 1380/1/5
f 1381/1/6 1382/1/6 1383/1/6 1384/1/6
f 1385/1/5 1386/1/5 1387/1/5 1388/1/5
f 1389/1/6 1390/1/6 1391/1/6 1392/1/6
f 1393/1/5 1394/1/5 1395/1/5 1396/1/5
f 1397/1/6 1398/1/6 1399/1/6 1400/1/6
f 1401/1/5 1402/1/5 1403/1/5 1404/1/5
f 1405/1/6 1406/1/6 1407/1/6 1408/1/6
f 1409/1/5 1410/1/5 1411/1/5 1412/1/5
f 1413/1/6 1414/1/6 1415/1/6 1416/1/6
f 1417/1/4 1418/1/4 1419/1/4 1420/1/4
f 1421/1/5 1422/1/5 1423/1/5 1424/1/5
f 1425/1/6 1426/1/6 1427/1/6 1428/1/6
f 1429/1/2 1430/1/2 1431/1/2 1432/1/2
f 1433/1/4 1434/1/4 1435/1/4 1436/1/4
f 1437/1/5 1438/1/5 1439/1/5 1440/1/5
f 1441/1/6 1442/1/6 1443/1/6 1444/1/6
f 1445/1/1 1446/1/1 1447/1/1 1448/1/1
f 1449/1/3 1450/1/3 1451/1/3 1452/1/3
f 1453/1/5 1454/1/5 1455/1/5 1456/1/5
f 1457/1/6 1458/1/6 1459/1/6 1460/1/6
f 1461/1/3 1462/1/3 1463/1/3 1464/1/3
f 1465/1/5 1466/1/5 1467/1/5 1468/1/5
f 1469/1/6 1470/1/6 1471/1/6 1472/1/6
f 1473/1/5 1474/1/5 1475/1/5 1476/1/5
f 1477/1/6 1478/1/6 1479/1/6 1480/1/6
f 1481/1/5 1482/1/5 1483/1/5 1484/1/5
f 1485/1/6 1486/1/6 1487/1/6 1488/1/6
f 1489/1/5 1490/1/5 1491/1/5 1492/1/5
f 1493/1/6 1494/1/6 1495/1/6 1496/1/6
f 1497/1/5 1498/1/5 1499/1/5 1500/1/5
f 1501/1/6 1502/1/6 1503/1/6 1504/1/6
f 1505/1/5 1506/1/5 1507/1/5 1508/1/5
f 1509/1/6 1510/1/6 1511/1/6 1512/1/6
f 1513/1/5 1514/1/5 1515/1/5 1516/1/5
f 1517/1/6 1518/1/6 1519/1/6 1520/1/6
f 1521/1/5 1522/1/5 1523/1/5 1524/1/5
f 1525/1/6 1526/1/6 1527/1/6 1528/1/6
f 1529/1/4 1530/1/4 1531/1/4 1532/1/4
f 1533/1/5 1534/1/5 1535/1/5 1536/1/5
f 1537/1/6 1538/1/6 1539/1/6 1540/1/6
f 1541/1/2 1542/1/2 1543/1/2 1544/1/2
f 1545/1/4 1546/1/4 1547/1/4 1548/1/4
f 1549/1/5 1550/1/5 1551/1/5 1552/1/5
f 1553/1/6 1554/1/6 1555/1/6 1556/1/6
f 1557/1/1 1558/1/1 1559/1/1 1560/1/1
f 1561/1/3 1562/1/3 1563/1/3 1564/1/3
f 1565/1/5 1566/1/5 1567/1/5 1568/1/5
f 1569/1/6 1570/1/6 1571/1/6 1572/1/6
f 1573/1/3 1574/1/3 1575/1/3 1576/1/3
f 1577/1/5 1578/1/5 1579/1/5 1580/1/5
f 1581/1/6 1582/1/6 1583/1/6 1584/1/6
f 1585/1/5 1586/1/5 1587/1/5 1588/1/5
f 1589/1/6 1590/1/6 1591/1/6 1592/1/6
f 1593/1/5 1594/1/5 1595/1/5 1596/1/5
f 1597/1/6 1598/1/6 1599/1/6 1600/1/6
f 1601/1/5 1602/1/5 1603/1/5 1604/1/5
f 1605/1/6 1606/1/6 1607/1/6 1608/1/6
f 1609/1/5 1610/1/5 1611/1/5 1612/1/5
f 1613/1/6 1614/1/6 1615/1/6 1616/1/6
f 1617/1/5 1618/1/5 1619/1/5 1620/1/5
f 1621/1/6 1622/1/6 1623/1/6 1624/1/6
f 1625/1/5 1626/1/5 1627/1/5 1628/1/5
f 1629/1/6 1630/1/6 1631/1/6 1632/1/6
f 1633/1/4 1634/1/4 1635/1/4 1636/1/4
f 1637/1/5 1638/1/5 1639/1/5 1640/1/5
f 1641/1/6 1642/1/6 1643/1/6 1644/1/6
f 1645/1/2 1646/1/2 1647/1/2 1648/1/2
f 1649/1/4 1650/1/4 1651/1/4 1652/1/4
f 1653/1/5 1654/1/5 1655/1/5 1656/1/5
f 1657/1/6 1658/1/6 1659/1/6 1660/1/6
f 1661/1/1 1662/1/1 1663/1/1 1664/1/1
f 1665/1/3 1666/1/3 1667/1/3 1668/1/3
f 1669/1/5 1670/1/5 1671/1/5 1672/1/5
f 1673/1/6 1674/1/6 1675/1/6 1676/1/6
f 1677/1/3 1678/1/3 1679/1/3 1680/1/3
f 1681/1/5 1682/1/5 1683/1/5 1684/1/5
f 1685/1/6 1686/1/6 1687/1/6 1688/1/6
f 1689/1/5 1690/1/5 1691/1/5 1692/1/5
f 1693/1/6 1694/1/6 1695/1/6 1696/1/6
f 1697/1/5 1698/1/5 1699/1/5 1700/1/5
f 1701/1/6 1702/1/6 1703/1/6 1704/1/6
f 1705/1/5 1706/1/5 1707/1/5 1708/1/5
f 1709/1/6 1710/1/6 1711/1/6 1712/1/6
f 1713/1/5 1714/1/5 1715/1/5 1716/1/5
f 1717/1/6 1718/1/6 1719/1/6 1720/1/6
f 1721/1/5 1722/1/5 1723/1/5 1724/1/5
f 1725/1/6 1726/1/6 1727/1/6 1728/1/6
f 1729/1/5 1730/1/5 1731/1/5 1732/1/5
f 1733/1/6 1734/1/6 1735/1/6 1736/1/6
f 1737/1/5 1738/1/5 1739/1/5 1740/1/5
f 1741/1/6 1742/1/6 1743/1/6 1744/1/6
f 1745/1/4 1746/1/4 1747/1/4 1748/1/4
f 1749/1/5 1750/1/5 1751/1/5 1752/1/5
f 1753/1/6 1754/1/6 1755/1/6 1756/1/6
f 1757/1/2 1758/1/2 1759/1/2 1760/1/2
f 1761/1/4 1762/1/4 1763/1/4 1764/1/4
f 1765/1/5 1766/1/5 1767/1/5 1768/1/5
f 1769/1/6 1770/1/6 1771/1/6 1772/1/6
f 1773/1/1 1774/1/1 1775/1/1 1776/1/1
f 1777/1/3 1778/1/3 1779/1/3 1780/1/3
f 1781/1/5 1782/1/5 1783/1/5 1784/1/5
f 1785/1/6 1786/1/6 1787/1/6 1788/1/6
f 1789/1/3 1790/1/3 1791/1/3 1792/1/3
f 1793/1/5 1794/1/5 1795/1/5 1796/1/5
f 1797/1/6 1798/1/6 1799/1/6 1800/1/6
f 1801/1/5 1802/1/5 1803/1/5 1804/1/5
f 1805/1/6 1806/1/6 1807/1/6 1808/1/6
f 1809/1/5 1810/1/5 1811/1/5 1812/1/5
f 1813/1/6 1814/1/6 1815/1/6 1816/1/6
f 1817/1/5 1818/1/5 1819/1/5 1820/1/5
f 1821/1/6 1822/1/6 1823/1/6 1824/1/6
f 1825/1/5 1826/1/5 1827/1/5 1828/1/5
f 1829/1/6 1830/1/6 1831/1/6 1832/1/6
f 1833/1/5 1834/1/5 1835/1/5 1836/1/5
f 1837/1/6 1838/1/6 1839/1/6 1840/1/6
f 1841/1/5 1842/1/5 1843/1/5 1844/1/5
f 1845/1/6 1846/1/6 1847/1/6 1848/1/6
f 1849/1/4 1850/1/4 1851/1/4 1852/1/4
f 1853/1/5 1854/1/5 1855/1/5 1856/1/5
f 1857/1/6 1858/1/6 1859/1/6 1860/1/6
f 1861/1/2 1862/1/2 1863/1/2 1864/1/2
f 1865/1/4 1866/1/4 1867/1/4 1868/1/4
f 1869/1/5 1870/1/5 1871/1/5 1872/1/5
f 1873/1/6 1874/1/6 1875/1/6 1876/1/6
f 1877/1/1 1878/1/1 1879/1/1 1880/1/1
f 1881/1/3 1882/1/3 1883/1/3 1884/1/3
f 1885/1/5 1886/1/5 1887/1/5 1888/1/5
f 1889/1/6 1890/1/6 1891/1/6 1892/1/6
f 1893/1/3 1894/1/3 1895/1/3 1896/1/3
f 1897/1/5 1898/1/5 1899/1/5 1900/1/5
f 1901/1/6 1902/1/6 1903/1/6 1904/1/6
f 1905/1/5 1906/1/5 1907/1/5 1908/1/5
f 1909/1/6 1910/1/6 1911/1/6 1912/1/6
f 1913/1/5 1914/1/5 1915/1/5 1916/1/5
f 1917/1/6 1918/1/6 1919/1/6 1920/1/6
f 1921/1/5 1922/1/5 1923/1/5 1924/1/5
f 1925/1/6 1926/1/6 1927/1/6 1928/1/6
f 1929/1/5 1930/1/5 1931/1/5 1932/1/5
f 1933/1/6 1934/1/6 1935/1/6 1936/1/6
f 1937/1/5 1938/1/5 1939/1/5 1940/1/5
f 1941/1/6 1942/1/6 1943/1/6 1944/1/6
f 1945/1/5 1946/1/5 1947/1/5 1948/1/5
f 1949/1/6 1950/1/6 1951/1/6 1952/1/6
f 1953/1/5 1954/1/5 1955/1/5 1956/1/5
f 1957/1/6 1958/1/6 1959/1/6 1960/1/6
f 1961/1/4 1962/1/4 1963/1/4 1964/1/4
f 1965/1/5 1966/1/5 1967/1/5 1968/1/5
f 1969/1/6 1970/1/6 1971/1/6 1972/1/6
f 1973/1/2 1974/1/2 1975/1/2 1976/1/2
f 1977/1/4 1978/1/4 1979/1/4 1980/1/4
f 1981/1/5 1982/1/5 1983/1/5 1984/1/5
f 1985/1/6 1986/1/6 1987/1/6 1988/1/6
f 1989/1/1 1990/1/1 1991/1/1 1992/1/1
f 1993/1/3 1994/1/3 1995/1/3 1996/1/3
f 1997/1/5 1998/1/5 1999/1/5 2000/1/5
f 2001/1/6 2002/1/6 2003/1/6 2004/1/6
f 2005/1/3 2006/1/3 2007/1/3 2008/1/3
f 2009/1/5 2010/1/5 2011/1/5 2012/1/5
f 2013/1/6 2014/1/6 2015/1/6 2016/1/6
f 2017/1/5 2018/1/5 2019/1/5 2020/1/5
f 2021/1/6 2022/1/6 2023/1/6 2024/1/6
f 2025/1/5 2026/1/5 2027/1/5 2028/1/5
f 2029/1/6 2030/1/6 2031/1/6 2032/1/6
f 2033/1/5 2034/1/5 2035/1/5 2036/1/5
f 2037/1/6 2038/1/6 2039/1/6 2040/1/6
f 2041/1/5 2042/1/5 2043/1/5 2044/1/5
f 2045/1/6 2046/1/6 2047/1/6 2048/1/6
f 2049/1/5 2050/1/5 2051/1/5 2052/1/5
f 2053/1/6 2054/1/6 2055/1/6 2056/1/6
f 2057/1/5 2058/1/5 2059/1/5 2060/1/5
f 2061/1/6 2062/1/6 2063/1/6 2064/1/6
f 2065/1/4 2066/1/4 2067/1/4 2068/1/4
f 2069/1/5 2070/1/5 2071/1/5 2072/1/5
f 2073/1/6 2074/1/6 2075/1/6 2076/1/6
f 2077/1/2 2078/1/2 2079/1/2 2080/1/2
f 2081/1/4 2082/1/4 2083/1/4 2084/1/4
f 2085/1/5 2086/1/5 2087/1/5 2088/1/5
f 2089/1/6 2090/1/6 2091/1/6 2092/1/6
f 2093/1/1 2094/1/1 2095/1/1 2096/1/1
f 2097/1/3 2098/1/3 2099/1/3 2100/1/3
f 2101/1/5 2102/1/5 2103/1/5 2104/1/5
f 2105/1/6 2106/1/6 2107/1/6 2108/1/6
f 2109/1/3 2110/1/3 2111/1/3 2112/1/3
f 2113/1/5 2114/1/5 2115/1/5 2116/1/5
f 2117/1/6 2118/1/6 2119/1/6 2120/1/6
f 2121/1/5 2122/1/5 2123/1/5 2124/1/5
f 2125/1/6 2126/1/6 2127/1/6 2128/1/6
f 2129/1/5 2130/1/5 2131/1/5 2132/1/5
f 2133/1/6 2134/1/6 2135/1/6 2136/1/6
f 2137/1/5 2138/1/5 2139/1/5 2140/1/5
f 2141/1/6 2142/1/6 2143/1/6 2144/1/6
f 2145/1/5 2146/1/5 2147/1/5 2148/1/5
f 2149/1/6 2150/1/6 2151/1/6 2152/1/6
f 2153/1/5 2154/1/5 2155/1/5 2156/1/5
f 2157/1/6 2158/1/6 2159/1/6 2160/1/6
f 2161/1/5 2162/1/5 2163/1/5 2164/1/5
f 2165/1/6 2166/1/6 2167/1/6 2168/1/6
f 2169/1/5 2170/1/5 2171/1/5 2172/1/5
f 2173/1/6 2174/1/6 2175/1/6 2176/1/6
f 2177/1/4 2178/1/4 2179/1/4 2180/1/4
f 2181/1/5 2182/1/5 2183/1/5 2184/1/5
f 2185/1/6 2186/1/6 2187/1/6 2188/1/6
f 2189/1/2 2190/1/2 2191/1/2 2192/1/2
f 2193/1/4 2194/1/4 2195/1/4 2196/1/4
f 2197/1/5 2198/1/5 2199/1/5 2200/1/5
f 2201/1/6 2202/1/6 2203/1/6 2204/1/6
f 2205/1/1 2206/1/1 2207/1/1 2208/1/1
f 2209/1/5 2210/1/5 2211/1/5 2212/1/5
f 2213/1/6 2214/1/6 2215/1/6 2216/1/6
f 2217/1/5 2218/1/5 2219/1/5 2220/1/5
f 2221/1/6 2222/1/6 2223/1/6 2224/1/6
f 2225/1/5 2226/1/5 2227/1/5 2228/1/5
f 2229/1/6 2230/1/6 2231/1/6 2232/1/6
f 2233/1/5 2234/1/5 2235/1/5 2236/1/5
f 2237/1/6 2238/1/6 2239/1/6 2240/1/6
f 2241/1/5 2242/1/5 2243/1/5 2244/1/5
f 2245/1/6 2246/1/6 2247/1/6 2248/1/6
f 2249/1/5 2250/1/5 2251/1/5 2252/1/5
f 2253/1/6 2254/1/6 2255/1/6 2256/1/6
f 2257/1/4 2258/1/4 2259/1/4 2260/1/4
f 2261/1/5 2262/1/5 2263/1/5 2264/1/5
f 2265/1/6 2266/1/6 2267/1/6 2268/1/6
f 2269/1/2 2270/1/2 2271/1/2 2272/1/2
f 2273/1/4 2274/1/4 2275/1/4 2276/1/4
f 2277/1/5 2278/1/5 2279/1/5 2280/1/5
f 2281/1/6 2282/1/6 2283/1/6 2284/1/6
f 2285/1/1 2286/1/1 2287/1/1 2288/1/1
f 2289/1/3 2290/1/3 2291/1/3 2292/1/3
f 2293/1/5 2294/1/5 2295/1/5 2296/1/5
f 2297/1/6 2298/1/6 2299/1/6 2300/1/6
f 2301/1/3 2302/1/3 2303/1/3 2304/1/3
f 2305/1/5 2306/1/5 2307/1/5 2308/1/5
f 2309/1/6 2310/1/6 2311/1/6 2312/1/6
f 2313/1/5 2314/1/5 2315/1/5 2316/1/5
f 2317/1/6 2318/1/6 2319/1/6 2320/1/6
f 2321/1/5 2322/1/5 2323/1/5 2324/1/5
f 2325/1/6 2326/1/6 2327/1/6 2328/1/6
f 2329/1/5 2330/1/5 2331/1/5 2332/1/5
f 2333/1/6 2334/1/6 2335/1/6 2336/1/6
f 2337/1/5 2338/1/5 2339/1/5 2340/1/5
f 2341/1/6 2342/1/6 2343/1/6 2344/1/6
f 2345/1/5 2346/1/5 2347/1/5 2348/1/5
f 2349/1/6 2350/1/6 2351/1/6 2352/1/6
f 2353/1/5 2354/1/5 2355/1/5 2356/1/5
f 2357/1/6 2358/1/6 2359/1/6 2360/1/6
f 2361/1/5 2362/1/5 2363/1/5 2364/1/5
f 2365/1/6 2366/1/6 2367/1/6 2368/1/6
f 2369/1/4 2370/1/4 2371/1/4 2372/1/4
f 2373/1/5 2374/1/5 2375/1/5 2376/1/5
f 2377/1/6 2378/1/6 2379/1/6 2380/1/6
f 2381/1/2 2382/1/2 2383/1/2 2384/1/2
f 2385/1/4 2386/1/4 2387/1/4 2388/1/4
f 2389/1/5 2390/1/5 2391/1/5 2392/1/5
f 2393/1/6 2394/1/6 2395/1/6 2396/1/6
f 2397/1/1 2398/1/1 2399/1/1 2400/1/1
f 2401/1/5 2402/1/5 2403/1/5 2404/1/5
f 2405/1/6 2406/1/6 2407/1/6 2408/1/6
f 2409/1/5 2410/1/5 2411/1/5 2412/1/5
f 2413/1/6 2414/1/6 2415/1/6 2416/1/6
f 2417/1/5 2418/1/5 2419/1/5 2420/1/5
f 2421/1/6 2422/1/6 2423/1/6 2424/1/6
f 2425/1/5 2426/1/5 2427/1/5 2428/1/5
f 2429/1/6 2430/1/6 2431/1/6 2432/1/6
f 2433/1/4 2434/1/4 2435/1/4 2436/1/4
f 2437/1/5 2438/1/5 2439/1/5 2440/1/5
f 2441/1/6 2442/1/6 2443/1/6 2444/1/6
f 2445/1/2 2446/1/2 2447/1/2 2448/1/2
f 2449/1/4 2450/1/4 2451/1/4 2452/1/4
f 2453/1/5 2454/1/5 2455/1/5 2456/1/5
f 2457/1/6 2458/1/6 2459/1/6 2460/1/6
f 2461/1/1 2462/1/1 2463/1/1 2464/1/1
f 2465/1/3 2466/1/3 2467/1/3 2468/1/3
f 2469/1/5 2470/1/5 2471/1/5 2472/1/5
f 2473/1/6 2474/1/6 2475/1/6 2476/1/6
f 2477/1/3 2478/1/3 2479/1/3 2480/1/3
f 2481/1/5 2482/1/5 2483/1/5 2484/1/5
f 2485/1/6 2486/1/6 2487/1/6 2488/1/6
f 2489/1/5 2490/1/5 2491/1/5 2492/1/5
f 2493/1/6 2494/1/6 2495/1/6 2496/1/6
f 2497/1/5 2498/1/5 2499/1/5 2500/1/5
f 2501/1/6 2502/1/6 2503/1/6 2504/1/6
f 2505/1/5 2506/1/5 2507/1/5 2508/1/5
f 2509/1/6 2510/1/6 2511/1/6 2512/1/6
f 2513/1/5 2514/1/5 2515/1/5 2516/1/5
f 2517/1/6 2518/1/6 2519/1/6 2520/1/6
f 2521/1/5 2522/1/5 2523/1/5 2524/1/5
f 2525/1/6 2526/1/6 2527/1/6 2528/1/6
f 2529/1/5 2530/1/5 2531/1/5 2532/1/5
f 2533/1/6 2534/1/6 2535/1/6 2536/1/6
f 2537/1/5 2538/1/5 2539/1/5 2540/1/5
f 2541/1/6 2542/1/6 2543/1/6 2544/1/6
f 2545/1/4 2546/1/4 2547/1/4 2548/1/4
f 2549/1/5 2550/1/5 2551/1/5 2552/1/5
f 2553/1/6 2554/1/6 2555/1/6 2556/1/6
f 2557/1/2 2558/1/2 2559/1/2 2560/1/2
f 2561/1/4 2562/1/4 2563/1/4 2564/1/4
f 2565/1/5 2566/1/5 2567/1/5 2568/1/5
f 2569/1/6 2570/1/6 2571/1/6 2572/1/6
f 2573/1/1 2574/1/1 2575/1/1 2576/1/1
f 2577/1/5 2578/1/5 2579/1/5 2580/1/5
f 2581/1/6 2582/1/6 2583/1/6 2584/1/6
f 2585/1/5 2586/1/5 2587/1/5 2588/1/5
f 2589/1/6 2590/1/6 2591/1/6 2592/1/6
f 2593/1/4 2594/1/4 2595/1/4 2596/1/4
f 2597/1/5 2598/1/5 2599/1/5 2600/1/5
f 2601/1/6 2602/1/6 2603/1/6 2604/1/6
f 2605/1/2 2606/1/2 2607/1/2 2608/1/2
f 2609/1/4 2610/1/4 2611/1/4 2612/1/4
f 2613/1/5 2614/1/5 2615/1/5 2616/1/5
f 2617/1/6 2618/1/6 2619/1/6 2620/1/6
f 2621/1/1 2622/1/1 2623/1/1 2624/1/1
f 2625/1/3 2626/1/3 2627/1/3 2628/1/3
f 2629/1/5 2630/1/5 2631/1/5 2632/1/5
f 2633/1/6 2634/1/6 2635/1/6 2636/1/6
f 2637/1/3 2638/1/3 2639/1/3 2640/1/3
f 2641/1/5 2642/1/5 2643/1/5 2644/1/5
f 2645/1/6 2646/1/6 2647/1/6 2648/1/6
f 2649/1/5 2650/1/5 2651/1/5 2652/1/5
f 2653/1/6 2654/1/6 2655/1/6 2656/1/6
f 2657/1/5 2658/1/5 2659/1/5 2660/1/5
f 2661/1/6 2662/1/6 2663/1/6 2664/1/6
f 2665/1/5 2666/1/5 2667/1/5 2668/1/5
f 2669/1/6 2670/1/6 2671/1/6 2672/1/6
f 2673/1/5 2674/1/5 2675/1/5 2676/1/5
f 2677/1/6 2678/1/6 2679/1/6 2680/1/6
f 2681/1/5 2682/1/5 2683/1/5 2684/1/5
f 2685/1/6 2686/1/6 2687/1/6 2688/1/6
f 2689/1/5 2690/1/5 2691/1/5 2692/1/5
f 2693/1/6 2694/1/6 2695/1/6 2696/1/6
f 2697/1/5 2698/1/5 2699/1/5 2700/1/5
f 2701/1/6 2702/1/6 2703/1/6 2704/1/6
f 2705/1/4 2706/1/4 2707/1/4 2708/1/4
f 2709/1/5 2710/1/5 2711/1/5 2712/1/5
f 2713/1/6 2714/1/6 2715/1/6 2716/1/6
f 2717/1/2 2718/1/2 2719/1/2 2720/1/2
f 2721/1/4 2722/1/4 2723/1/4 2724/1/4
f 2725/1/5 2726/1/5 2727/1/5 2728/1/5
f 2729/1/6 2730/1/6 2731/1/6 2732/1/6
f 2733/1/1 2734/1/1 2735/1/1 2736/1/1
f 2737/1/4 2738/1/4 2739/1/4 2740/1/4
f 2741/1/5 2742/1/5 2743/1/5 2744/1/5
f 2745/1/6 2746/1/6 2747/1/6 2748/1/6
f 2749/1/2 2750/1/2 2751/1/2 2752/1/2
f 2753/1/4 2754/1/4 2755/1/4 2756/1/4
f 2757/1/5 2758/1/5 2759/1/5 2760/1/5
f 2761/1/6 2762/1/6 2763/1/6 2764/1/6
f 2765/1/1 2766/1/1 2767/1/1 2768/1/1
f 2769/1/3 2770/1/3 2771/1/3 2772/1/3
f 2773/1/5 2774/1/5 2775/1/5 2776/1/5
f 2777/1/6 2778/1/6 2779/1/6 2780/1/6
f 2781/1/3 2782/1/3 2783/1/3 2784/1/3
f 2785/1/5 2786/1/5 2787/1/5 2788/1/5
f 2789/1/6 2790/1/6 2791/1/6 2792/1/6
f 2793/1/5 2794/1/5 2795/1/5 2796/1/5
f 2797/1/6 2798/1/6 2799/1/6 2800/1/6
f 2801/1/5 2802/1/5 2803/1/5 2804/1/5
f 2805/1/6 2806/1/6 2807/1/6 2808/1/6
f 2809/1/5 2810/1/5 2811/1/5 2812/1/5
f 2813/1/6 2814/1/6 2815/1/6 2816/1/6
f 2817/1/5 2818/1/5 2819/1/5 2820/1/5
f 2821/1/6 2822/1/6 2823/1/6 2824/1/6
f 2825/1/5 2826/1/5 2827/1/5 2828/1/5
f 2829/1/6 2830/1/6 2831/1/6 2832/1/6
f 2833/1/5 2834/1/5 2835/1/5 2836/1/5
f 2837/1/6 2838/1/6 2839/1/6 2840/1/6
f 2841/1/5 2842/1/5 2843/1/5 2844/1/5
f 2845/1/6 2846/1/6 2847/1/6 2848/1/6
f 2849/1/4 2850/1/4 2851/1/4 2852/1/4
f 2853/1/5 2854/1/5 2855/1/5 2856/1/5
f 2857/1/6 2858/1/6 2859/1/6 2860/1/6
f 2861/1/2 2862/1/2 2863/1/2 2864/1/2
f 2865/1/4 2866/1/4 2867/1/4 2868/1/4
f 2869/1/5 2870/1/5 2871/1/5 2872/1/5
f 2873/1/6 2874/1/6 2875/1/6 2876/1/6
f 2877/1/1 2878/1/1 2879/1/1 2880/1/1
f 2881/1/3 2882/1/3 2883/1/3 2884/1/3
f 2885/1/5 2886/1/5 2887/1/5 2888/1/5
f 2889/1/6 2890/1/6 2891/1/6 2892/1/6
f 2893/1/3 2894/1/3 2895/1/3 2896/1/3
f 2897/1/5 2898/1/5 2899/1/5 2900/1/5
f 2901/1/6 2902/1/6 2903/1/6 2904/1/6
f 2905/1/5 2906/1/5 2907/1/5 2908/1/5
f 2909/1/6 2910/1/6 2911/1/6 2912/1/6
f 2913/1/5 2914/1/5 2915/1/5 2916/1/5
f 2917/1/6 2918/1/6 2919/1/6 2920/1/6
f 2921/1/5 2922/1/5 2923/1/5 2924/1/5
f 2925/1/6 2926/1/6 2927/1/6 2928/1/6
f 2929/1/5 2930/1/5 2931/1/5 2932/1/5
f 2933/1/6 2934/1/6 2935/1/6 2936/1/6
f 2937/1/5 2938/1/5 2939/1/5 2940/1/5
f 2941/1/6 2942/1/6 2943/1/6 2944/1/6
f 2945/1/5 2946/1/5 2947/1/5 2948/1/5
f 2949/1/6 2950/1/6 2951/1/6 2952/1/6
f 2953/1/5 2954/1/5 2955/1/5 2956/1/5
f 2957/1/6 2958/1/6 2959/1/6 2960/1/6
f 2961/1/4 2962/1/4 2963/1/4 2964/1/4
f 2965/1/5 2966/1/5 2967/1/5 2968/1/5
f 2969/1/6 2970/1/6 2971/1/6 2972/1/6
f 2973/1/2 2974/1/2 2975/1/2 2976/1/2
f 2977/1/4 2978/1/4 2979/1/4 2980/1/4
f 2981/1/5 2982/1/5 2983/1/5 2984/1/5
f 2985/1/6 2986/1/6 2987/1/6 2988/1/6
f 2989/1/1 2990/1/1 2991/1/1 2992/1/1
f 2993/1/3 2994/1/3 2995/1/3 2996/1/3
f 2997/1/5 2998/1/5 2999/1/5 3000/1/5
f 3001/1/6 3002/1/6 3003/1/6 3004/1/6
f 3005/1/3 3006/1/3 3007/1/3 3008/1/3
f 3009/1/5 3010/1/5 3011/1/5 3012/1/5
f 3013/1/6 3014/1/6 3015/1/6 3016/1/6
f 3017/1/5 3018/1/5 3019/1/5 3020/1/5
f 3021/1/6 3022/1/6 3023/1/6 3024/1/6
f 3025/1/5 3026/1/5 3027/1/5 3028/1/5
f 3029/1/6 3030/1/6 3031/1/6 3032/1/6
f 3033/1/5 3034/1/5 3035/1/5 3036/1/5
f 3037/1/6 3038/1/6 3039/1/6 3040/1/6
f 3041/1/5 3042/1/5 3043/1/5 3044/1/5
f 3045/1/6 3046/1/6 3047/1/6 3048/1/6
f 3049/1/5 3050/1/5 3051/1/5 3052/1/5
f 3053/1/6 3054/1/6 3055/1/6 3056/1/6
f 3057/1/5 3058/1/5 3059/1/5 3060/1/5
f 3061/1/6 3062/1/6 3063/1/6 3064/1/6
f 3065/1/5 3066/1/5 3067/1/5 3068/1/5
f 3069/1/6 3070/1/6 3071/1/6 3072/1/6
f 3073/1/4 3074/1/4 3075/1/4 3076/1/4
f 3077/1/5 3078/1/5 3079/1/5 3080/1/5
f 3081/1/6 3082/1/6 3083/1/6 3084/1/6
f 3085/1/2 3086/1/2 3087/1/2 3088/1/2
f 3089/1/4 3090/1/4 3091/1/4 3092/1/4
f 3093/1/5 3094/1/5 3095/1/5 3096/1/5
f 3097/1/6 3098/1/6 3099/1/6 3100/1/6
f 3101/1/1 3102/1/1 3103/1/1 3104/1/1
f 3105/1/3 3106/1/3 3107/1/3 3108/1/3
f 3109/1/5 3110/1/5 3111/1/5 3112/1/5
f 3113/1/6 3114/1/6 3115/1/6 3116/1/6
f 3117/1/3 3118/1/3 3119/1/3 3120/1/3
f 3121/1/5 3122/1/5 3123/1/5 3124/1/5
f 3125/1/6 3126/1/6 3127/1/6 3128/1/6
f 3129/1/5 3130/1/5 3131/1/5 3132/1/5
f 3133/1/6 3134/1/6 3135/1/6 3136/1/6
f 3137/1/5 3138/1/5 3139/1/5 3140/1/5
f 3141/1/6 3142/1/6 3143/1/6 3144/1/6
f 3145/1/5 3146/1/5 3147/1/5 3148/1/5
f 3149/1/6 3150/1/6 3151/1/6 3152/1/6
f 3153/1/5 3154/1/5 3155/1/5 3156/1/5
f 3157/1/6 3158/1/6 3159/1/6 3160/1/6
f 3161/1/5 3162/1/5 3163/1/5 3164/1/5
f 3165/1/6 3166/1/6 3167/1/6 3168/1/6
f 3169/1/5 3170/1/5 3171/1/5 3172/1/5
f 3173/1/6 3174/1/6 3175/1/6 3176/1/6
f 3177/1/5 3178/1/5 3179/1/5 3180/1/5
f 3181/1/6 3182/1/6 3183/1/6 3184/1/6
f 3185/1/4 3186/1/4 3187/1/4 3188/1/4
f 3189/1/5 3190/1/5 3191/1/5 3192/1/5
f 3193/1/6 3194/1/6 3195/1/6 3196/1/6
f 3197/1/2 3198/1/2 3199/1/2 3200/1/2
f 3201/1/4 3202/1/4 3203/1/4 3204/1/4
f 3205/1/5 3206/1/5 3207/1/5 3208/1/5
f 3209/1/6 3210/1/6 3211/1/6 3212/1/6
f 3213/1/1 3214/1/1 3215/1/1 3216/1/1
f 3217/1/3 3218/1/3 3219/1/3 3220/1/3
f 3221/1/5 3222/1/5 3223/1/5 3224/1/5
f 3225/1/6 3226/1/6 3227/1/6 3228/1/6
f 3229/1/3 3230/1/3 3231/1/3 3232/1/3
f 3233/1/5 3234/1/5 3235/1/5 3236/1/5
f 3237/1/6 3238/1/6 3239/1/6 3240/1/6
f 3241/1/5 3242/1/5 3243/1/5 3244/1/5
f 3245/1/6 3246/1/6 3247/1/6 3248/1/6
f 3249/1/5 3250/1/5 3251/1/5 3252/1/5
f 3253/1/6 3254/1/6 3255/1/6 3256/1/6
f 3257/1/5 3258/1/5 3259/1/5 3260/1/5
f 3261/1/6 3262/1/6 3263/1/6 3264/1/6
f 3265/1/5 3266/1/5 3267/1/5 3268/1/5
f 3269/1/6 3270/1/6 3271/1/6 3272/1/6
f 3273/1/5 3274/1/5 3275/1/5 3276/1/5
f 3277/1/6 3278/1/6 3279/1/6 3280/1/6
f 3281/1/5 3282/1/5 3283/1/5 3284/1/5
f 3285/1/6 3286/1/6 3287/1/6 3288/1/6
f 3289/1/5 3290/1/5 3291/1/5 3292/1/5
f 3293/1/6 3294/1/6 3295/1/6 3296/1/6
f 3297/1/4 3298/1/4 3299/1/4 3300/1/4
f 3301/1/5 3302/1/5 3303/1/5 3304/1/5
f 3305/1/6 3306/1/6 3307/1/6 3308/1/6
f 3309/1/2 3310/1/2 3311/1/2 3312/1/2
f 3313/1/4 3314/1/4 3315/1/4 3316/1/4
f 3317/1/5 3318/1/5 3319/1/5 3320/1/5
f 3321/1/6 3322/1/6 3323/1/6 3324/1/6
f 3325/1/1 3326/1/1 3327/1/1 3328/1/1
f 3329/1/3 3330/1/3 3331/1/3 3332/1/3
f 3333/1/5 3334/1/5 3335/1/5 3336/1/5
f 3337/1/6 3338/1/6 3339/1/6 3340/1/6
f 3341/1/3 3342/1/3 3343/1/3 3344/1/3
f 3345/1/5 3346/1/5 3347/1/5 3348/1/5
f 3349/1/6 3350/1/6 3351/1/6 3352/1/6
f 3353/1/5 3354/1/5 3355/1/5 3356/1/5
f 3357/1/6 3358/1/6 3359/1/6 3360/1/6
f 3361/1/5 3362/1/5 3363/1/5 3364/1/5
f 3365/1/6 3366/1/6 3367/1/6 3368/1/6
f 3369/1/5 3370/1/5 3371/1/5 3372/1/5
f 3373/1/6 3374/1/6 3375/1/6 3376/1/6
f 3377/1/5 3378/1/5 3379/1/5 3380/1/5
f 3381/1/6 3382/1/6 3383/1/6 3384/1/6
f 3385/1/5 3386/1/5 3387/1/5 3388/1/5
f 3389/1/6 3390/1/6 3391/1/6 3392/1/6
f 3393/1/5 3394/1/5 3395/1/5 3396/1/5
f 3397/1/6 3398/1/6 3399/1/6 3400/1/6
f 3401/1/5 3402/1/5 3403/1/5 3404/1/5
f 3405/1/6 3406/1/6 3407/1/6 3408/1/6
f 3409/1/4 3410/1/4 3411/1/4 3412/1/4
f 3413/1/5 3414/1/5 3415/1/5 3416/1/5
f 3417/1/6 3418/1/6 3419/1/6 3420/1/6
f 3421/1/2 3422/1/2 3423/1/2 3424/1/2
f 3425/1/4 3426/1/4 3427/1/4 3428/1/4
f 3429/1/5 3430/1/5 3431/1/5 3432/1/5
f 3433/1/6 3434/1/6 3435/1/6 3436/1/6
f 3437/1/1 3438/1/1 3439/1/1 3440/1/1
f 3441/1/3 3442/1/3 3443/1/3 3444/1/3
f 3445/1/5 3446/1/5 3447/1/5 3448/1/5
f 3449/1/6 3450/1/6 3451/1/6 3452/1/6
f 3453/1/3 3454/1/3 3455/1/3 3456/1/3
f 3457/1/5 3458/1/5 3459/1/5 3460/1/5
f 3461/1/6 3462/1/6 3463/1/6 3464/1/6
f 3465/1/5 3466/1/5 3467/1/5 3468/1/5
f 3469/1/6 3470/1/6 3471/1/6 3472/1/6
f 3473/1/5 3474/1/5 3475/1/5 3476/1/5
f 3477/1/6 3478/1/6 3479/1/6 3480/1/6
f 3481/1/5 3482/1/5 3483/1/5 3484/1/5
f 3485/1/6 3486/1/6 3487/1/6 3488/1/6
f 3489/1/5 3490/1/5 3491/1/5 3492/1/5
f 3493/1/6 3494/1/6 3495/1/6 3496/1/6
f 3497/1/5 3498/1/5 3499/1/5 3500/1/5
f 3501/1/6 3502/1/6 3503/1/6 3504/1/6
f 3505/1/5 3506/1/5 3507/1/5 3508/1/5
f 3509/1/6 3510/1/6 3511/1/6 3512/1/6
f 3513/1/5 3514/1/5 3515/1/5 3516/1/5
f 3517/1/6 3518/1/6 3519/1/6 3520/1/6
f 3521/1/4 3522/1/4 3523/1/4 3524/1/4
f 3525/1/5 3526/1/5 3527/1/5 3528/1/5
f 3529/1/6 3530/1/6 3531/1/6 3532/1/6
f 3533/1/2 3534/1/2 3535/1/2 3536/1/2
f 3537/1/4 3538/1/4 3539/1/4 3540/1/4
f 3541/1/5 3542/1/5 3543/1/5 3544/1/5
f 3545/1/6 3546/1/6 3547/1/6 3548/1/6
f 3549/1/1 3550/1/1 3551/1/1 3552/1/1
f 3553/1/5 3554/1/5 3555/1/5 3556/1/5
f 3557/1/6 3558/1/6 3559/1/6 3560/1/6
f 3561/1/5 3562/1/5 3563/1/5 3564/1/5
f 3565/1/6 3566/1/6 3567/1/6 3568/1/6
f 3569/1/5 3570/1/5 3571/1/5 3572/1/5
f 3573/1/6 3574/1/6 3575/1/6 3576/1/6
f 3577/1/5 3578/1/5 3579/1/5 3580/1/5
f 3581/1/6 3582/1/6 3583/1/6 3584/1/6
f 3585/1/5 3586/1/5 3587/1/5 3588/1/5
f 3589/1/6 3590/1/6 3591/1/6 3592/1/6
f 3593/1/5 3594/1/5 3595/1/5 3596/1/5
f 3597/1/6 3598/1/6 3599/1/6 3600/1/6
f 3601/1/5 3602/1/5 3603/1/5 3604/1/5
f 3605/1/6 3606/1/6 3607/1/6 3608/1/6
f 3609/1/4 3610/1/4 3611/1/4 3612/1/4
f 3613/1/5 3614/1/5 3615/1/5 3616/1/5
f 3617/1/6 3618/1/6 3619/1/6 3620/1/6
f 3621/1/2 3622/1/2 3623/1/2 3624/1/2
f 3625/1/4 3626/1/4 3627/1/4 3628/1/4
f 3629/1/5 3630/1/5 3631/1/5 3632/1/5
f 3633/1/6 3634/1/6 3635/1/6 3636/1/6
f 3637/1/1 3638/1/1 3639/1/1 3640/1/1
f 3641/1/5 3642/1/5 3643/1/5 3644/1/5
f 3645/1/6 3646/1/6 3647/1/6 3648/1/6
f 3649/1/5 3650/1/5 3651/1/5 3652/1/5
f 3653/1/6 3654/1/6 3655/1/6 3656/1/6
f 3657/1/5 3658/1/5 3659/1/5 3660/1/5
f 3661/1/6 3662/1/6 3663/1/6 3664/1/6
f 3665/1/5 3666/1/5 3667/1/5 3668/1/5
f 3669/1/6 3670/1/6 3671/1/6 3672/1/6
f 3673/1/5 3674/1/5 3675/1/5 3676/1/5
f 3677/1/6 3678/1/6 3679/1/6 3680/1/6
f 3681/1/4 3682/1/4 3683/1/4 3684/1/4
f 3685/1/5 3686/1/5 3687/1/5 3688/1/5
f 3689/1/6 3690/1/6 3691/1/6 3692/1/6
f 3693/1/2 3694/1/2 3695/1/2 3696/1/2
f 3697/1/4 3698/1/4 3699/1/4 3700/1/4
f 3701/1/5 3702/1/5 3703/1/5 3704/1/5
f 3705/1/6 3706/1/6 3707/1/6 3708/1/6
f 3709/1/1 3710/1/1 3711/1/1 3712/1/1
f 3713/1/5 3714/1/5 3715/1/5 3716/1/5
f 3717/1/6 3718/1/6 3719/1/6 3720/1/6
f 3721/1/5 3722/1/5 3723/1/5 3724/1/5
f 3725/1/6 3726/1/6 3727/1/6 3728/1/6
f 3729/1/5 3730/1/5 3731/1/5 3732/1/5
f 3733/1/6 3734/1/6 3735/1/6 3736/1/6
f 3737/1/4 3738/1/4 3739/1/4 3740/1/4
f 3741/1/5 3742/1/5 3743/1/5 3744/1/5
f 3745/1/6 3746/1/6 3747/1/6 3748/1/6
f 3749/1/2 3750/1/2 3751/1/2 3752/1/2
f 3753/1/4 3754/1/4 3755/1/4 3756/1/4
f 3757/1/5 3758/1/5 3759/1/5 3760/1/5
f 3761/1/6 3762/1/6 3763/1/6 3764/1/6
f 3765/1/1 3766/1/1 3767/1/1 3768/1/1
f 3769/1/5 3770/1/5 3771/1/5 3772/1/5
f 3773/1/6 3774/1/6 3775/1/6 3776/1/6
f 3777/1/4 3778/1/4 3779/1/4 3780/1/4
f 3781/1/5 3782/1/5 3783/1/5 3784/1/5
f 3785/1/6 3786/1/6 3787/1/6 3788/1/6
f 3789/1/2 3790/1/2 3791/1/2 3792/1/2
f 3793/1/4 3794/1/4 3795/1/4 3796/1/4
f 3797/1/5 3798/1/5 3799/1/5 3800/1/5
f 3801/1/6 3802/1/6 3803/1/6 3804/1/6
f 3805/1/1 3806/1/1 3807/1/1 3808/1/1
f 3809/1/2 3810/1/2 3811/1/2 3812/1/2
f 3813/1/4 3814/1/4 3815/1/4 3816/1/4
f 3817/1/5 3818/1/5 3819/1/5 3820/1/5
f 3821/1/6 3822/1/6 3823/1/6 3824/1/6

