# generated by vox_to_obj_exporter
# scale=0.1 center=false ground=false y_up=true

mtllib Fight_726.mtl
usemtl palette

# normals
vn -1 0 0
vn 1 0 0
vn 0 1 0
vn 0 -1 0
vn 0 0 1
vn 0 0 -1

# texcoords
vt 0.126953125 0.5
vt 0.142578125 0.5

# verts
v 6.7 11.8 -2.6
v 6.7 11.7 -2.6
v 6.7 11.7 -2.5
v 6.7 11.8 -2.5
v 6.7 11.8 -2.6
v 6.7 11.8 -2.5
v 6.8 11.8 -2.5
v 6.8 11.8 -2.6
v 6.7 11.7 -2.5
v 6.7 11.7 -2.6
v 6.8 11.7 -2.6
v 6.8 11.7 -2.5
v 6.7 11.8 -2.5
v 6.7 11.7 -2.5
v 6.8 11.7 -2.5
v 6.8 11.8 -2.5
v 6.8 11.8 -2.6
v 6.8 11.7 -2.6
v 6.7 11.7 -2.6
v 6.7 11.8 -2.6
v 6.8 11.8 -2.6
v 6.8 11.8 -2.5
v 6.9 11.8 -2.5
v 6.9 11.8 -2.6
v 6.8 11.7 -2.5
v 6.8 11.7 -2.6
v 6.9 11.7 -2.6
v 6.9 11.7 -2.5
v 6.8 11.8 -2.5
v 6.8 11.7 -2.5
v 6.9 11.7 -2.5
v 6.9 11.8 -2.5
v 6.9 11.8 -2.6
v 6.9 11.7 -2.6
v 6.8 11.7 -2.6
v 6.8 11.8 -2.6
v 7 11.8 -2.5
v 7 11.7 -2.5
v 7 11.7 -2.6
v 7 11.8 -2.6
v 6.9 11.8 -2.6
v 6.9 11.8 -2.5
v 7 11.8 -2.5
v 7 11.8 -2.6
v 6.9 11.7 -2.5
v 6.9 11.7 -2.6
v 7 11.7 -2.6
v 7 11.7 -2.5
v 6.9 11.8 -2.5
v 6.9 11.7 -2.5
v 7 11.7 -2.5
v 7 11.8 -2.5
v 7 11.8 -2.6
v 7 11.7 -2.6
v 6.9 11.7 -2.6
v 6.9 11.8 -2.6
v 7.3 11.8 -2.6
v 7.3 11.7 -2.6
v 7.3 11.7 -2.5
v 7.3 11.8 -2.5
v 7.3 11.8 -2.6
v 7.3 11.8 -2.5
v 7.4 11.8 -2.5
v 7.4 11.8 -2.6
v 7.3 11.7 -2.5
v 7.3 11.7 -2.6
v 7.4 11.7 -2.6
v 7.4 11.7 -2.5
v 7.3 11.8 -2.5
v 7.3 11.7 -2.5
v 7.4 11.7 -2.5
v 7.4 11.8 -2.5
v 7.4 11.8 -2.6
v 7.4 11.7 -2.6
v 7.3 11.7 -2.6
v 7.3 11.8 -2.6
v 7.5 11.8 -2.5
v 7.5 11.7 -2.5
v 7.5 11.7 -2.6
v 7.5 11.8 -2.6
v 7.4 11.8 -2.6
v 7.4 11.8 -2.5
v 7.5 11.8 -2.5
v 7.5 11.8 -2.6
v 7.4 11.7 -2.5
v 7.4 11.7 -2.6
v 7.5 11.7 -2.6
v 7.5 11.7 -2.5
v 7.4 11.8 -2.5
v 7.4 11.7 -2.5
v 7.5 11.7 -2.5
v 7.5 11.8 -2.5
v 7.5 11.8 -2.6
v 7.5 11.7 -2.6
v 7.4 11.7 -2.6
v 7.4 11.8 -2.6
v 7.5 11.7 -2.6
v 7.5 11.6 -2.6
v 7.5 11.6 -2.5
v 7.5 11.7 -2.5
v 7.5 11.7 -2.6
v 7.5 11.7 -2.5
v 7.6 11.7 -2.5
v 7.6 11.7 -2.6
v 7.5 11.6 -2.5
v 7.5 11.6 -2.6
v 7.6 11.6 -2.6
v 7.6 11.6 -2.5
v 7.5 11.7 -2.5
v 7.5 11.6 -2.5
v 7.6 11.6 -2.5
v 7.6 11.7 -2.5
v 7.6 11.7 -2.6
v 7.6 11.6 -2.6
v 7.5 11.6 -2.6
v 7.5 11.7 -2.6
v 7.6 11.7 -2.6
v 7.6 11.7 -2.5
v 7.7 11.7 -2.5
v 7.7 11.7 -2.6
v 7.6 11.6 -2.5
v 7.6 11.6 -2.6
v 7.7 11.6 -2.6
v 7.7 11.6 -2.5
v 7.6 11.7 -2.5
v 7.6 11.6 -2.5
v 7.7 11.6 -2.5
v 7.7 11.7 -2.5
v 7.7 11.7 -2.6
v 7.7 11.6 -2.6
v 7.6 11.6 -2.6
v 7.6 11.7 -2.6
v 7.7 11.7 -2.6
v 7.7 11.7 -2.5
v 7.8 11.7 -2.5
v 7.8 11.7 -2.6
v 7.7 11.6 -2.5
v 7.7 11.6 -2.6
v 7.8 11.6 -2.6
v 7.8 11.6 -2.5
v 7.7 11.7 -2.5
v 7.7 11.6 -2.5
v 7.8 11.6 -2.5
v 7.8 11.7 -2.5
v 7.8 11.7 -2.6
v 7.8 11.6 -2.6
v 7.7 11.6 -2.6
v 7.7 11.7 -2.6
v 7.9 11.7 -2.5
v 7.9 11.6 -2.5
v 7.9 11.6 -2.6
v 7.9 11.7 -2.6
v 7.8 11.7 -2.6
v 7.8 11.7 -2.5
v 7.9 11.7 -2.5
v 7.9 11.7 -2.6
v 7.8 11.6 -2.5
v 7.8 11.6 -2.6
v 7.9 11.6 -2.6
v 7.9 11.6 -2.5
v 7.8 11.7 -2.5
v 7.8 11.6 -2.5
v 7.9 11.6 -2.5
v 7.9 11.7 -2.5
v 7.9 11.7 -2.6
v 7.9 11.6 -2.6
v 7.8 11.6 -2.6
v 7.8 11.7 -2.6
v 7.9 11.6 -2.6
v 7.9 11.5 -2.6
v 7.9 11.5 -2.5
v 7.9 11.6 -2.5
v 7.9 11.6 -2.6
v 7.9 11.6 -2.5
v 8 11.6 -2.5
v 8 11.6 -2.6
v 7.9 11.5 -2.5
v 7.9 11.5 -2.6
v 8 11.5 -2.6
v 8 11.5 -2.5
v 7.9 11.6 -2.5
v 7.9 11.5 -2.5
v 8 11.5 -2.5
v 8 11.6 -2.5
v 8 11.6 -2.6
v 8 11.5 -2.6
v 7.9 11.5 -2.6
v 7.9 11.6 -2.6
v 8 11.6 -2.6
v 8 11.6 -2.5
v 8.1 11.6 -2.5
v 8.1 11.6 -2.6
v 8 11.5 -2.5
v 8 11.5 -2.6
v 8.1 11.5 -2.6
v 8.1 11.5 -2.5
v 8 11.6 -2.5
v 8 11.5 -2.5
v 8.1 11.5 -2.5
v 8.1 11.6 -2.5
v 8.1 11.6 -2.6
v 8.1 11.5 -2.6
v 8 11.5 -2.6
v 8 11.6 -2.6
v 8.2 11.6 -2.5
v 8.2 11.5 -2.5
v 8.2 11.5 -2.6
v 8.2 11.6 -2.6
v 8.1 11.6 -2.6
v 8.1 11.6 -2.5
v 8.2 11.6 -2.5
v 8.2 11.6 -2.6
v 8.1 11.5 -2.5
v 8.1 11.5 -2.6
v 8.2 11.5 -2.6
v 8.2 11.5 -2.5
v 8.1 11.6 -2.5
v 8.1 11.5 -2.5
v 8.2 11.5 -2.5
v 8.2 11.6 -2.5
v 8.2 11.6 -2.6
v 8.2 11.5 -2.6
v 8.1 11.5 -2.6
v 8.1 11.6 -2.6
v 8.3 11.5 -2.6
v 8.3 11.4 -2.6
v 8.3 11.4 -2.5
v 8.3 11.5 -2.5
v 8.4 11.5 -2.5
v 8.4 11.4 -2.5
v 8.4 11.4 -2.6
v 8.4 11.5 -2.6
v 8.3 11.5 -2.6
v 8.3 11.5 -2.5
v 8.4 11.5 -2.5
v 8.4 11.5 -2.6
v 8.3 11.4 -2.5
v 8.3 11.4 -2.6
v 8.4 11.4 -2.6
v 8.4 11.4 -2.5
v 8.3 11.5 -2.5
v 8.3 11.4 -2.5
v 8.4 11.4 -2.5
v 8.4 11.5 -2.5
v 8.4 11.5 -2.6
v 8.4 11.4 -2.6
v 8.3 11.4 -2.6
v 8.3 11.5 -2.6
v 4.3 10.1 -2.6
v 4.3 10 -2.6
v 4.3 10 -2.5
v 4.3 10.1 -2.5
v 4.4 10.1 -2.5
v 4.4 10 -2.5
v 4.4 10 -2.6
v 4.4 10.1 -2.6
v 4.3 10.1 -2.6
v 4.3 10.1 -2.5
v 4.4 10.1 -2.5
v 4.4 10.1 -2.6
v 4.3 10 -2.5
v 4.3 10 -2.6
v 4.4 10 -2.6
v 4.4 10 -2.5
v 4.3 10.1 -2.5
v 4.3 10 -2.5
v 4.4 10 -2.5
v 4.4 10.1 -2.5
v 4.4 10.1 -2.6
v 4.4 10 -2.6
v 4.3 10 -2.6
v 4.3 10.1 -2.6
v 4.2 10 -2.6
v 4.2 9.9 -2.6
v 4.2 9.9 -2.5
v 4.2 10 -2.5
v 4.3 10 -2.5
v 4.3 9.9 -2.5
v 4.3 9.9 -2.6
v 4.3 10 -2.6
v 4.2 10 -2.6
v 4.2 10 -2.5
v 4.3 10 -2.5
v 4.3 10 -2.6
v 4.2 9.9 -2.5
v 4.2 9.9 -2.6
v 4.3 9.9 -2.6
v 4.3 9.9 -2.5
v 4.2 10 -2.5
v 4.2 9.9 -2.5
v 4.3 9.9 -2.5
v 4.3 10 -2.5
v 4.3 10 -2.6
v 4.3 9.9 -2.6
v 4.2 9.9 -2.6
v 4.2 10 -2.6
v 4.1 9.9 -2.6
v 4.1 9.8 -2.6
v 4.1 9.8 -2.5
v 4.1 9.9 -2.5
v 4.2 9.9 -2.5
v 4.2 9.8 -2.5
v 4.2 9.8 -2.6
v 4.2 9.9 -2.6
v 4.1 9.9 -2.6
v 4.1 9.9 -2.5
v 4.2 9.9 -2.5
v 4.2 9.9 -2.6
v 4.1 9.9 -2.5
v 4.1 9.8 -2.5
v 4.2 9.8 -2.5
v 4.2 9.9 -2.5
v 4.2 9.9 -2.6
v 4.2 9.8 -2.6
v 4.1 9.8 -2.6
v 4.1 9.9 -2.6
v 4.1 9.8 -2.6
v 4.1 9.7 -2.6
v 4.1 9.7 -2.5
v 4.1 9.8 -2.5
v 4.2 9.8 -2.5
v 4.2 9.7 -2.5
v 4.2 9.7 -2.6
v 4.2 9.8 -2.6
v 4.1 9.7 -2.5
v 4.1 9.7 -2.6
v 4.2 9.7 -2.6
v 4.2 9.7 -2.5
v 4.1 9.8 -2.5
v 4.1 9.7 -2.5
v 4.2 9.7 -2.5
v 4.2 9.8 -2.5
v 4.2 9.8 -2.6
v 4.2 9.7 -2.6
v 4.1 9.7 -2.6
v 4.1 9.8 -2.6
v 4 9.7 -2.6
v 4 9.6 -2.6
v 4 9.6 -2.5
v 4 9.7 -2.5
v 4.1 9.7 -2.5
v 4.1 9.6 -2.5
v 4.1 9.6 -2.6
v 4.1 9.7 -2.6
v 4 9.7 -2.6
v 4 9.7 -2.5
v 4.1 9.7 -2.5
v 4.1 9.7 -2.6
v 4 9.6 -2.5
v 4 9.6 -2.6
v 4.1 9.6 -2.6
v 4.1 9.6 -2.5
v 4 9.7 -2.5
v 4 9.6 -2.5
v 4.1 9.6 -2.5
v 4.1 9.7 -2.5
v 4.1 9.7 -2.6
v 4.1 9.6 -2.6
v 4 9.6 -2.6
v 4 9.7 -2.6
v 3.9 9.6 -2.6
v 3.9 9.5 -2.6
v 3.9 9.5 -2.5
v 3.9 9.6 -2.5
v 4 9.6 -2.5
v 4 9.5 -2.5
v 4 9.5 -2.6
v 4 9.6 -2.6
v 3.9 9.6 -2.6
v 3.9 9.6 -2.5
v 4 9.6 -2.5
v 4 9.6 -2.6
v 3.9 9.6 -2.5
v 3.9 9.5 -2.5
v 4 9.5 -2.5
v 4 9.6 -2.5
v 4 9.6 -2.6
v 4 9.5 -2.6
v 3.9 9.5 -2.6
v 3.9 9.6 -2.6
v 3.9 9.5 -2.6
v 3.9 9.4 -2.6
v 3.9 9.4 -2.5
v 3.9 9.5 -2.5
v 4 9.5 -2.5
v 4 9.4 -2.5
v 4 9.4 -2.6
v 4 9.5 -2.6
v 3.9 9.4 -2.5
v 3.9 9.4 -2.6
v 4 9.4 -2.6
v 4 9.4 -2.5
v 3.9 9.5 -2.5
v 3.9 9.4 -2.5
v 4 9.4 -2.5
v 4 9.5 -2.5
v 4 9.5 -2.6
v 4 9.4 -2.6
v 3.9 9.4 -2.6
v 3.9 9.5 -2.6
v 3.8 9.4 -2.6
v 3.8 9.3 -2.6
v 3.8 9.3 -2.5
v 3.8 9.4 -2.5
v 3.9 9.4 -2.5
v 3.9 9.3 -2.5
v 3.9 9.3 -2.6
v 3.9 9.4 -2.6
v 3.8 9.4 -2.6
v 3.8 9.4 -2.5
v 3.9 9.4 -2.5
v 3.9 9.4 -2.6
v 3.8 9.3 -2.5
v 3.8 9.3 -2.6
v 3.9 9.3 -2.6
v 3.9 9.3 -2.5
v 3.8 9.4 -2.5
v 3.8 9.3 -2.5
v 3.9 9.3 -2.5
v 3.9 9.4 -2.5
v 3.9 9.4 -2.6
v 3.9 9.3 -2.6
v 3.8 9.3 -2.6
v 3.8 9.4 -2.6
v 3.7 9.3 -2.6
v 3.7 9.2 -2.6
v 3.7 9.2 -2.5
v 3.7 9.3 -2.5
v 3.8 9.3 -2.5
v 3.8 9.2 -2.5
v 3.8 9.2 -2.6
v 3.8 9.3 -2.6
v 3.7 9.3 -2.6
v 3.7 9.3 -2.5
v 3.8 9.3 -2.5
v 3.8 9.3 -2.6
v 3.7 9.2 -2.5
v 3.7 9.2 -2.6
v 3.8 9.2 -2.6
v 3.8 9.2 -2.5
v 3.7 9.3 -2.5
v 3.7 9.2 -2.5
v 3.8 9.2 -2.5
v 3.8 9.3 -2.5
v 3.8 9.3 -2.6
v 3.8 9.2 -2.6
v 3.7 9.2 -2.6
v 3.7 9.3 -2.6
v 10.2 7.7 -2.6
v 10.2 7.6 -2.6
v 10.2 7.6 -2.5
v 10.2 7.7 -2.5
v 10.3 7.7 -2.5
v 10.3 7.6 -2.5
v 10.3 7.6 -2.6
v 10.3 7.7 -2.6
v 10.2 7.7 -2.6
v 10.2 7.7 -2.5
v 10.3 7.7 -2.5
v 10.3 7.7 -2.6
v 10.2 7.7 -2.5
v 10.2 7.6 -2.5
v 10.3 7.6 -2.5
v 10.3 7.7 -2.5
v 10.3 7.7 -2.6
v 10.3 7.6 -2.6
v 10.2 7.6 -2.6
v 10.2 7.7 -2.6
v 10.2 7.6 -2.6
v 10.2 7.5 -2.6
v 10.2 7.5 -2.5
v 10.2 7.6 -2.5
v 10.3 7.6 -2.5
v 10.3 7.5 -2.5
v 10.3 7.5 -2.6
v 10.3 7.6 -2.6
v 10.2 7.6 -2.5
v 10.2 7.5 -2.5
v 10.3 7.5 -2.5
v 10.3 7.6 -2.5
v 10.3 7.6 -2.6
v 10.3 7.5 -2.6
v 10.2 7.5 -2.6
v 10.2 7.6 -2.6
v 10.2 7.5 -2.6
v 10.2 7.4 -2.6
v 10.2 7.4 -2.5
v 10.2 7.5 -2.5
v 10.3 7.5 -2.5
v 10.3 7.4 -2.5
v 10.3 7.4 -2.6
v 10.3 7.5 -2.6
v 10.2 7.5 -2.5
v 10.2 7.4 -2.5
v 10.3 7.4 -2.5
v 10.3 7.5 -2.5
v 10.3 7.5 -2.6
v 10.3 7.4 -2.6
v 10.2 7.4 -2.6
v 10.2 7.5 -2.6
v 10.2 7.4 -2.6
v 10.2 7.3 -2.6
v 10.2 7.3 -2.5
v 10.2 7.4 -2.5
v 10.3 7.4 -2.5
v 10.3 7.3 -2.5
v 10.3 7.3 -2.6
v 10.3 7.4 -2.6
v 10.2 7.4 -2.5
v 10.2 7.3 -2.5
v 10.3 7.3 -2.5
v 10.3 7.4 -2.5
v 10.3 7.4 -2.6
v 10.3 7.3 -2.6
v 10.2 7.3 -2.6
v 10.2 7.4 -2.6
v 10.2 7.3 -2.6
v 10.2 7.2 -2.6
v 10.2 7.2 -2.5
v 10.2 7.3 -2.5
v 10.3 7.3 -2.5
v 10.3 7.2 -2.5
v 10.3 7.2 -2.6
v 10.3 7.3 -2.6
v 10.2 7.2 -2.5
v 10.2 7.2 -2.6
v 10.3 7.2 -2.6
v 10.3 7.2 -2.5
v 10.2 7.3 -2.5
v 10.2 7.2 -2.5
v 10.3 7.2 -2.5
v 10.3 7.3 -2.5
v 10.3 7.3 -2.6
v 10.3 7.2 -2.6
v 10.2 7.2 -2.6
v 10.2 7.3 -2.6
v 10.1 7.2 -2.6
v 10.1 7.1 -2.6
v 10.1 7.1 -2.5
v 10.1 7.2 -2.5
v 10.2 7.2 -2.5
v 10.2 7.1 -2.5
v 10.2 7.1 -2.6
v 10.2 7.2 -2.6
v 10.1 7.2 -2.6
v 10.1 7.2 -2.5
v 10.2 7.2 -2.5
v 10.2 7.2 -2.6
v 10.1 7.2 -2.5
v 10.1 7.1 -2.5
v 10.2 7.1 -2.5
v 10.2 7.2 -2.5
v 10.2 7.2 -2.6
v 10.2 7.1 -2.6
v 10.1 7.1 -2.6
v 10.1 7.2 -2.6
v 10.1 7.1 -2.6
v 10.1 7 -2.6
v 10.1 7 -2.5
v 10.1 7.1 -2.5
v 10.2 7.1 -2.5
v 10.2 7 -2.5
v 10.2 7 -2.6
v 10.2 7.1 -2.6
v 10.1 7.1 -2.5
v 10.1 7 -2.5
v 10.2 7 -2.5
v 10.2 7.1 -2.5
v 10.2 7.1 -2.6
v 10.2 7 -2.6
v 10.1 7 -2.6
v 10.1 7.1 -2.6
v 10.1 7 -2.6
v 10.1 6.9 -2.6
v 10.1 6.9 -2.5
v 10.1 7 -2.5
v 10.2 7 -2.5
v 10.2 6.9 -2.5
v 10.2 6.9 -2.6
v 10.2 7 -2.6
v 10.1 6.9 -2.5
v 10.1 6.9 -2.6
v 10.2 6.9 -2.6
v 10.2 6.9 -2.5
v 10.1 7 -2.5
v 10.1 6.9 -2.5
v 10.2 6.9 -2.5
v 10.2 7 -2.5
v 10.2 7 -2.6
v 10.2 6.9 -2.6
v 10.1 6.9 -2.6
v 10.1 7 -2.6
v 10 6.8 -2.6
v 10 6.7 -2.6
v 10 6.7 -2.5
v 10 6.8 -2.5
v 10.1 6.8 -2.5
v 10.1 6.7 -2.5
v 10.1 6.7 -2.6
v 10.1 6.8 -2.6
v 10 6.8 -2.6
v 10 6.8 -2.5
v 10.1 6.8 -2.5
v 10.1 6.8 -2.6
v 10 6.8 -2.5
v 10 6.7 -2.5
v 10.1 6.7 -2.5
v 10.1 6.8 -2.5
v 10.1 6.8 -2.6
v 10.1 6.7 -2.6
v 10 6.7 -2.6
v 10 6.8 -2.6
v 10 6.7 -2.6
v 10 6.6 -2.6
v 10 6.6 -2.5
v 10 6.7 -2.5
v 10.1 6.7 -2.5
v 10.1 6.6 -2.5
v 10.1 6.6 -2.6
v 10.1 6.7 -2.6
v 10 6.7 -2.5
v 10 6.6 -2.5
v 10.1 6.6 -2.5
v 10.1 6.7 -2.5
v 10.1 6.7 -2.6
v 10.1 6.6 -2.6
v 10 6.6 -2.6
v 10 6.7 -2.6
v 10 6.6 -2.6
v 10 6.5 -2.6
v 10 6.5 -2.5
v 10 6.6 -2.5
v 10.1 6.6 -2.5
v 10.1 6.5 -2.5
v 10.1 6.5 -2.6
v 10.1 6.6 -2.6
v 10 6.5 -2.5
v 10 6.5 -2.6
v 10.1 6.5 -2.6
v 10.1 6.5 -2.5
v 10 6.6 -2.5
v 10 6.5 -2.5
v 10.1 6.5 -2.5
v 10.1 6.6 -2.5
v 10.1 6.6 -2.6
v 10.1 6.5 -2.6
v 10 6.5 -2.6
v 10 6.6 -2.6
v 9.9 6.5 -2.6
v 9.9 6.4 -2.6
v 9.9 6.4 -2.5
v 9.9 6.5 -2.5
v 10 6.5 -2.5
v 10 6.4 -2.5
v 10 6.4 -2.6
v 10 6.5 -2.6
v 9.9 6.5 -2.6
v 9.9 6.5 -2.5
v 10 6.5 -2.5
v 10 6.5 -2.6
v 9.9 6.5 -2.5
v 9.9 6.4 -2.5
v 10 6.4 -2.5
v 10 6.5 -2.5
v 10 6.5 -2.6
v 10 6.4 -2.6
v 9.9 6.4 -2.6
v 9.9 6.5 -2.6
v 9.9 6.4 -2.6
v 9.9 6.3 -2.6
v 9.9 6.3 -2.5
v 9.9 6.4 -2.5
v 10 6.4 -2.5
v 10 6.3 -2.5
v 10 6.3 -2.6
v 10 6.4 -2.6
v 9.9 6.4 -2.5
v 9.9 6.3 -2.5
v 10 6.3 -2.5
v 10 6.4 -2.5
v 10 6.4 -2.6
v 10 6.3 -2.6
v 9.9 6.3 -2.6
v 9.9 6.4 -2.6
v 9.9 6.3 -2.6
v 9.9 6.2 -2.6
v 9.9 6.2 -2.5
v 9.9 6.3 -2.5
v 10 6.3 -2.5
v 10 6.2 -2.5
v 10 6.2 -2.6
v 10 6.3 -2.6
v 9.9 6.2 -2.5
v 9.9 6.2 -2.6
v 10 6.2 -2.6
v 10 6.2 -2.5
v 9.9 6.3 -2.5
v 9.9 6.2 -2.5
v 10 6.2 -2.5
v 10 6.3 -2.5
v 10 6.3 -2.6
v 10 6.2 -2.6
v 9.9 6.2 -2.6
v 9.9 6.3 -2.6
v 9.8 6.2 -2.6
v 9.8 6.1 -2.6
v 9.8 6.1 -2.5
v 9.8 6.2 -2.5
v 9.9 6.2 -2.5
v 9.9 6.1 -2.5
v 9.9 6.1 -2.6
v 9.9 6.2 -2.6
v 9.8 6.2 -2.6
v 9.8 6.2 -2.5
v 9.9 6.2 -2.5
v 9.9 6.2 -2.6
v 9.8 6.1 -2.5
v 9.8 6.1 -2.6
v 9.9 6.1 -2.6
v 9.9 6.1 -2.5
v 9.8 6.2 -2.5
v 9.8 6.1 -2.5
v 9.9 6.1 -2.5
v 9.9 6.2 -2.5
v 9.9 6.2 -2.6
v 9.9 6.1 -2.6
v 9.8 6.1 -2.6
v 9.8 6.2 -2.6
v 9.7 6.1 -2.6
v 9.7 6 -2.6
v 9.7 6 -2.5
v 9.7 6.1 -2.5
v 9.8 6.1 -2.5
v 9.8 6 -2.5
v 9.8 6 -2.6
v 9.8 6.1 -2.6
v 9.7 6.1 -2.6
v 9.7 6.1 -2.5
v 9.8 6.1 -2.5
v 9.8 6.1 -2.6
v 9.7 6.1 -2.5
v 9.7 6 -2.5
v 9.8 6 -2.5
v 9.8 6.1 -2.5
v 9.8 6.1 -2.6
v 9.8 6 -2.6
v 9.7 6 -2.6
v 9.7 6.1 -2.6
v 9.7 6 -2.6
v 9.7 5.9 -2.6
v 9.7 5.9 -2.5
v 9.7 6 -2.5
v 9.8 6 -2.5
v 9.8 5.9 -2.5
v 9.8 5.9 -2.6
v 9.8 6 -2.6
v 9.7 5.9 -2.5
v 9.7 5.9 -2.6
v 9.8 5.9 -2.6
v 9.8 5.9 -2.5
v 9.7 6 -2.5
v 9.7 5.9 -2.5
v 9.8 5.9 -2.5
v 9.8 6 -2.5
v 9.8 6 -2.6
v 9.8 5.9 -2.6
v 9.7 5.9 -2.6
v 9.7 6 -2.6
v 9.6 5.9 -2.6
v 9.6 5.8 -2.6
v 9.6 5.8 -2.5
v 9.6 5.9 -2.5
v 9.7 5.9 -2.5
v 9.7 5.8 -2.5
v 9.7 5.8 -2.6
v 9.7 5.9 -2.6
v 9.6 5.9 -2.6
v 9.6 5.9 -2.5
v 9.7 5.9 -2.5
v 9.7 5.9 -2.6
v 9.6 5.8 -2.5
v 9.6 5.8 -2.6
v 9.7 5.8 -2.6
v 9.7 5.8 -2.5
v 9.6 5.9 -2.5
v 9.6 5.8 -2.5
v 9.7 5.8 -2.5
v 9.7 5.9 -2.5
v 9.7 5.9 -2.6
v 9.7 5.8 -2.6
v 9.6 5.8 -2.6
v 9.6 5.9 -2.6
v 9.5 5.8 -2.6
v 9.5 5.7 -2.6
v 9.5 5.7 -2.5
v 9.5 5.8 -2.5
v 9.6 5.8 -2.5
v 9.6 5.7 -2.5
v 9.6 5.7 -2.6
v 9.6 5.8 -2.6
v 9.5 5.8 -2.6
v 9.5 5.8 -2.5
v 9.6 5.8 -2.5
v 9.6 5.8 -2.6
v 9.5 5.8 -2.5
v 9.5 5.7 -2.5
v 9.6 5.7 -2.5
v 9.6 5.8 -2.5
v 9.6 5.8 -2.6
v 9.6 5.7 -2.6
v 9.5 5.7 -2.6
v 9.5 5.8 -2.6
v 9.5 5.7 -2.6
v 9.5 5.6 -2.6
v 9.5 5.6 -2.5
v 9.5 5.7 -2.5
v 9.6 5.7 -2.5
v 9.6 5.6 -2.5
v 9.6 5.6 -2.6
v 9.6 5.7 -2.6
v 9.5 5.6 -2.5
v 9.5 5.6 -2.6
v 9.6 5.6 -2.6
v 9.6 5.6 -2.5
v 9.5 5.7 -2.5
v 9.5 5.6 -2.5
v 9.6 5.6 -2.5
v 9.6 5.7 -2.5
v 9.6 5.7 -2.6
v 9.6 5.6 -2.6
v 9.5 5.6 -2.6
v 9.5 5.7 -2.6
v 9.4 5.6 -2.6
v 9.4 5.5 -2.6
v 9.4 5.5 -2.5
v 9.4 5.6 -2.5
v 9.5 5.6 -2.5
v 9.5 5.5 -2.5
v 9.5 5.5 -2.6
v 9.5 5.6 -2.6
v 9.4 5.6 -2.6
v 9.4 5.6 -2.5
v 9.5 5.6 -2.5
v 9.5 5.6 -2.6
v 9.4 5.5 -2.5
v 9.4 5.5 -2.6
v 9.5 5.5 -2.6
v 9.5 5.5 -2.5
v 9.4 5.6 -2.5
v 9.4 5.5 -2.5
v 9.5 5.5 -2.5
v 9.5 5.6 -2.5
v 9.5 5.6 -2.6
v 9.5 5.5 -2.6
v 9.4 5.5 -2.6
v 9.4 5.6 -2.6
v 9.3 5.5 -2.6
v 9.3 5.4 -2.6
v 9.3 5.4 -2.5
v 9.3 5.5 -2.5
v 9.4 5.5 -2.5
v 9.4 5.4 -2.5
v 9.4 5.4 -2.6
v 9.4 5.5 -2.6
v 9.3 5.5 -2.6
v 9.3 5.5 -2.5
v 9.4 5.5 -2.5
v 9.4 5.5 -2.6
v 9.3 5.4 -2.5
v 9.3 5.4 -2.6
v 9.4 5.4 -2.6
v 9.4 5.4 -2.5
v 9.3 5.5 -2.5
v 9.3 5.4 -2.5
v 9.4 5.4 -2.5
v 9.4 5.5 -2.5
v 9.4 5.5 -2.6
v 9.4 5.4 -2.6
v 9.3 5.4 -2.6
v 9.3 5.5 -2.6
v 9.2 5.4 -2.6
v 9.2 5.3 -2.6
v 9.2 5.3 -2.5
v 9.2 5.4 -2.5
v 9.3 5.4 -2.5
v 9.3 5.3 -2.5
v 9.3 5.3 -2.6
v 9.3 5.4 -2.6
v 9.2 5.4 -2.6
v 9.2 5.4 -2.5
v 9.3 5.4 -2.5
v 9.3 5.4 -2.6
v 9.2 5.3 -2.5
v 9.2 5.3 -2.6
v 9.3 5.3 -2.6
v 9.3 5.3 -2.5
v 9.2 5.4 -2.5
v 9.2 5.3 -2.5
v 9.3 5.3 -2.5
v 9.3 5.4 -2.5
v 9.3 5.4 -2.6
v 9.3 5.3 -2.6
v 9.2 5.3 -2.6
v 9.2 5.4 -2.6
v 9.1 5.3 -2.6
v 9.1 5.2 -2.6
v 9.1 5.2 -2.5
v 9.1 5.3 -2.5
v 9.2 5.3 -2.5
v 9.2 5.2 -2.5
v 9.2 5.2 -2.6
v 9.2 5.3 -2.6
v 9.1 5.3 -2.6
v 9.1 5.3 -2.5
v 9.2 5.3 -2.5
v 9.2 5.3 -2.6
v 9.1 5.2 -2.5
v 9.1 5.2 -2.6
v 9.2 5.2 -2.6
v 9.2 5.2 -2.5
v 9.1 5.3 -2.5
v 9.1 5.2 -2.5
v 9.2 5.2 -2.5
v 9.2 5.3 -2.5
v 9.2 5.3 -2.6
v 9.2 5.2 -2.6
v 9.1 5.2 -2.6
v 9.1 5.3 -2.6
v 9 5.2 -2.6
v 9 5.1 -2.6
v 9 5.1 -2.5
v 9 5.2 -2.5
v 9.1 5.2 -2.5
v 9.1 5.1 -2.5
v 9.1 5.1 -2.6
v 9.1 5.2 -2.6
v 9 5.2 -2.6
v 9 5.2 -2.5
v 9.1 5.2 -2.5
v 9.1 5.2 -2.6
v 9 5.1 -2.5
v 9 5.1 -2.6
v 9.1 5.1 -2.6
v 9.1 5.1 -2.5
v 9 5.2 -2.5
v 9 5.1 -2.5
v 9.1 5.1 -2.5
v 9.1 5.2 -2.5
v 9.1 5.2 -2.6
v 9.1 5.1 -2.6
v 9 5.1 -2.6
v 9 5.2 -2.6
v 8.8 5.1 -2.6
v 8.8 5 -2.6
v 8.8 5 -2.5
v 8.8 5.1 -2.5
v 8.8 5.1 -2.6
v 8.8 5.1 -2.5
v 8.9 5.1 -2.5
v 8.9 5.1 -2.6
v 8.8 5 -2.5
v 8.8 5 -2.6
v 8.9 5 -2.6
v 8.9 5 -2.5
v 8.8 5.1 -2.5
v 8.8 5 -2.5
v 8.9 5 -2.5
v 8.9 5.1 -2.5
v 8.9 5.1 -2.6
v 8.9 5 -2.6
v 8.8 5 -2.6
v 8.8 5.1 -2.6
v 9 5.1 -2.5
v 9 5 -2.5
v 9 5 -2.6
v 9 5.1 -2.6
v 8.9 5.1 -2.6
v 8.9 5.1 -2.5
v 9 5.1 -2.5
v 9 5.1 -2.6
v 8.9 5 -2.5
v 8.9 5 -2.6
v 9 5 -2.6
v 9 5 -2.5
v 8.9 5.1 -2.5
v 8.9 5 -2.5
v 9 5 -2.5
v 9 5.1 -2.5
v 9 5.1 -2.6
v 9 5 -2.6
v 8.9 5 -2.6
v 8.9 5.1 -2.6
v 8.7 5 -2.6
v 8.7 4.9 -2.6
v 8.7 4.9 -2.5
v 8.7 5 -2.5
v 8.8 5 -2.5
v 8.8 4.9 -2.5
v 8.8 4.9 -2.6
v 8.8 5 -2.6
v 8.7 5 -2.6
v 8.7 5 -2.5
v 8.8 5 -2.5
v 8.8 5 -2.6
v 8.7 4.9 -2.5
v 8.7 4.9 -2.6
v 8.8 4.9 -2.6
v 8.8 4.9 -2.5
v 8.7 5 -2.5
v 8.7 4.9 -2.5
v 8.8 4.9 -2.5
v 8.8 5 -2.5
v 8.8 5 -2.6
v 8.8 4.9 -2.6
v 8.7 4.9 -2.6
v 8.7 5 -2.6
v 8.5 4.9 -2.6
v 8.5 4.8 -2.6
v 8.5 4.8 -2.5
v 8.5 4.9 -2.5
v 8.5 4.9 -2.6
v 8.5 4.9 -2.5
v 8.6 4.9 -2.5
v 8.6 4.9 -2.6
v 8.5 4.8 -2.5
v 8.5 4.8 -2.6
v 8.6 4.8 -2.6
v 8.6 4.8 -2.5
v 8.5 4.9 -2.5
v 8.5 4.8 -2.5
v 8.6 4.8 -2.5
v 8.6 4.9 -2.5
v 8.6 4.9 -2.6
v 8.6 4.8 -2.6
v 8.5 4.8 -2.6
v 8.5 4.9 -2.6
v 8.7 4.9 -2.5
v 8.7 4.8 -2.5
v 8.7 4.8 -2.6
v 8.7 4.9 -2.6
v 8.6 4.9 -2.6
v 8.6 4.9 -2.5
v 8.7 4.9 -2.5
v 8.7 4.9 -2.6
v 8.6 4.8 -2.5
v 8.6 4.8 -2.6
v 8.7 4.8 -2.6
v 8.7 4.8 -2.5
v 8.6 4.9 -2.5
v 8.6 4.8 -2.5
v 8.7 4.8 -2.5
v 8.7 4.9 -2.5
v 8.7 4.9 -2.6
v 8.7 4.8 -2.6
v 8.6 4.8 -2.6
v 8.6 4.9 -2.6
v 8.4 4.8 -2.6
v 8.4 4.7 -2.6
v 8.4 4.7 -2.5
v 8.4 4.8 -2.5
v 8.5 4.8 -2.5
v 8.5 4.7 -2.5
v 8.5 4.7 -2.6
v 8.5 4.8 -2.6
v 8.4 4.8 -2.6
v 8.4 4.8 -2.5
v 8.5 4.8 -2.5
v 8.5 4.8 -2.6
v 8.4 4.7 -2.5
v 8.4 4.7 -2.6
v 8.5 4.7 -2.6
v 8.5 4.7 -2.5
v 8.4 4.8 -2.5
v 8.4 4.7 -2.5
v 8.5 4.7 -2.5
v 8.5 4.8 -2.5
v 8.5 4.8 -2.6
v 8.5 4.7 -2.6
v 8.4 4.7 -2.6
v 8.4 4.8 -2.6
v 8.1 4.7 -2.6
v 8.1 4.6 -2.6
v 8.1 4.6 -2.5
v 8.1 4.7 -2.5
v 8.1 4.7 -2.6
v 8.1 4.7 -2.5
v 8.2 4.7 -2.5
v 8.2 4.7 -2.6
v 8.1 4.6 -2.5
v 8.1 4.6 -2.6
v 8.2 4.6 -2.6
v 8.2 4.6 -2.5
v 8.1 4.7 -2.5
v 8.1 4.6 -2.5
v 8.2 4.6 -2.5
v 8.2 4.7 -2.5
v 8.2 4.7 -2.6
v 8.2 4.6 -2.6
v 8.1 4.6 -2.6
v 8.1 4.7 -2.6
v 8.2 4.7 -2.6
v 8.2 4.7 -2.5
v 8.3 4.7 -2.5
v 8.3 4.7 -2.6
v 8.2 4.6 -2.5
v 8.2 4.6 -2.6
v 8.3 4.6 -2.6
v 8.3 4.6 -2.5
v 8.2 4.7 -2.5
v 8.2 4.6 -2.5
v 8.3 4.6 -2.5
v 8.3 4.7 -2.5
v 8.3 4.7 -2.6
v 8.3 4.6 -2.6
v 8.2 4.6 -2.6
v 8.2 4.7 -2.6
v 8.4 4.7 -2.5
v 8.4 4.6 -2.5
v 8.4 4.6 -2.6
v 8.4 4.7 -2.6
v 8.3 4.7 -2.6
v 8.3 4.7 -2.5
v 8.4 4.7 -2.5
v 8.4 4.7 -2.6
v 8.3 4.6 -2.5
v 8.3 4.6 -2.6
v 8.4 4.6 -2.6
v 8.4 4.6 -2.5
v 8.3 4.7 -2.5
v 8.3 4.6 -2.5
v 8.4 4.6 -2.5
v 8.4 4.7 -2.5
v 8.4 4.7 -2.6
v 8.4 4.6 -2.6
v 8.3 4.6 -2.6
v 8.3 4.7 -2.6
v 7.8 4.6 -2.6
v 7.8 4.5 -2.6
v 7.8 4.5 -2.5
v 7.8 4.6 -2.5
v 7.8 4.6 -2.6
v 7.8 4.6 -2.5
v 7.9 4.6 -2.5
v 7.9 4.6 -2.6
v 7.8 4.5 -2.5
v 7.8 4.5 -2.6
v 7.9 4.5 -2.6
v 7.9 4.5 -2.5
v 7.8 4.6 -2.5
v 7.8 4.5 -2.5
v 7.9 4.5 -2.5
v 7.9 4.6 -2.5
v 7.9 4.6 -2.6
v 7.9 4.5 -2.6
v 7.8 4.5 -2.6
v 7.8 4.6 -2.6
v 7.9 4.6 -2.6
v 7.9 4.6 -2.5
v 8 4.6 -2.5
v 8 4.6 -2.6
v 7.9 4.5 -2.5
v 7.9 4.5 -2.6
v 8 4.5 -2.6
v 8 4.5 -2.5
v 7.9 4.6 -2.5
v 7.9 4.5 -2.5
v 8 4.5 -2.5
v 8 4.6 -2.5
v 8 4.6 -2.6
v 8 4.5 -2.6
v 7.9 4.5 -2.6
v 7.9 4.6 -2.6
v 8.1 4.6 -2.5
v 8.1 4.5 -2.5
v 8.1 4.5 -2.6
v 8.1 4.6 -2.6
v 8 4.6 -2.6
v 8 4.6 -2.5
v 8.1 4.6 -2.5
v 8.1 4.6 -2.6
v 8 4.5 -2.5
v 8 4.5 -2.6
v 8.1 4.5 -2.6
v 8.1 4.5 -2.5
v 8 4.6 -2.5
v 8 4.5 -2.5
v 8.1 4.5 -2.5
v 8.1 4.6 -2.5
v 8.1 4.6 -2.6
v 8.1 4.5 -2.6
v 8 4.5 -2.6
v 8 4.6 -2.6
v 7.4 4.5 -2.6
v 7.4 4.4 -2.6
v 7.4 4.4 -2.5
v 7.4 4.5 -2.5
v 7.5 4.5 -2.5
v 7.5 4.4 -2.5
v 7.5 4.4 -2.6
v 7.5 4.5 -2.6
v 7.4 4.5 -2.6
v 7.4 4.5 -2.5
v 7.5 4.5 -2.5
v 7.5 4.5 -2.6
v 7.4 4.4 -2.5
v 7.4 4.4 -2.6
v 7.5 4.4 -2.6
v 7.5 4.4 -2.5
v 7.4 4.5 -2.5
v 7.4 4.4 -2.5
v 7.5 4.4 -2.5
v 7.5 4.5 -2.5
v 7.5 4.5 -2.6
v 7.5 4.4 -2.6
v 7.4 4.4 -2.6
v 7.4 4.5 -2.6
v 7.6 4.5 -2.6
v 7.6 4.4 -2.6
v 7.6 4.4 -2.5
v 7.6 4.5 -2.5
v 7.6 4.5 -2.6
v 7.6 4.5 -2.5
v 7.7 4.5 -2.5
v 7.7 4.5 -2.6
v 7.6 4.4 -2.5
v 7.6 4.4 -2.6
v 7.7 4.4 -2.6
v 7.7 4.4 -2.5
v 7.6 4.5 -2.5
v 7.6 4.4 -2.5
v 7.7 4.4 -2.5
v 7.7 4.5 -2.5
v 7.7 4.5 -2.6
v 7.7 4.4 -2.6
v 7.6 4.4 -2.6
v 7.6 4.5 -2.6
v 7.8 4.5 -2.5
v 7.8 4.4 -2.5
v 7.8 4.4 -2.6
v 7.8 4.5 -2.6
v 7.7 4.5 -2.6
v 7.7 4.5 -2.5
v 7.8 4.5 -2.5
v 7.8 4.5 -2.6
v 7.7 4.4 -2.5
v 7.7 4.4 -2.6
v 7.8 4.4 -2.6
v 7.8 4.4 -2.5
v 7.7 4.5 -2.5
v 7.7 4.4 -2.5
v 7.8 4.4 -2.5
v 7.8 4.5 -2.5
v 7.8 4.5 -2.6
v 7.8 4.4 -2.6
v 7.7 4.4 -2.6
v 7.7 4.5 -2.6
v 7.2 4.4 -2.6
v 7.2 4.3 -2.6
v 7.2 4.3 -2.5
v 7.2 4.4 -2.5
v 7.2 4.4 -2.6
v 7.2 4.4 -2.5
v 7.3 4.4 -2.5
v 7.3 4.4 -2.6
v 7.2 4.3 -2.5
v 7.2 4.3 -2.6
v 7.3 4.3 -2.6
v 7.3 4.3 -2.5
v 7.2 4.4 -2.5
v 7.2 4.3 -2.5
v 7.3 4.3 -2.5
v 7.3 4.4 -2.5
v 7.3 4.4 -2.6
v 7.3 4.3 -2.6
v 7.2 4.3 -2.6
v 7.2 4.4 -2.6
v 7.4 4.4 -2.5
v 7.4 4.3 -2.5
v 7.4 4.3 -2.6
v 7.4 4.4 -2.6
v 7.3 4.4 -2.6
v 7.3 4.4 -2.5
v 7.4 4.4 -2.5
v 7.4 4.4 -2.6
v 7.3 4.3 -2.5
v 7.3 4.3 -2.6
v 7.4 4.3 -2.6
v 7.4 4.3 -2.5
v 7.3 4.4 -2.5
v 7.3 4.3 -2.5
v 7.4 4.3 -2.5
v 7.4 4.4 -2.5
v 7.4 4.4 -2.6
v 7.4 4.3 -2.6
v 7.3 4.3 -2.6
v 7.3 4.4 -2.6

# faces
f 1/2/1 2/2/1 3/2/1 4/2/1
f 5/2/3 6/2/3 7/2/3 8/2/3
f 9/2/4 10/2/4 11/2/4 12/2/4
f 13/2/5 14/2/5 15/2/5 16/2/5
f 17/2/6 18/2/6 19/2/6 20/2/6
f 21/1/3 22/1/3 23/1/3 24/1/3
f 25/1/4 26/1/4 27/1/4 28/1/4
f 29/1/5 30/1/5 31/1/5 32/1/5
f 33/1/6 34/1/6 35/1/6 36/1/6
f 37/1/2 38/1/2 39/1/2 40/1/2
f 41/1/3 42/1/3 43/1/3 44/1/3
f 45/1/4 46/1/4 47/1/4 48/1/4
f 49/1/5 50/1/5 51/1/5 52/1/5
f 53/1/6 54/1/6 55/1/6 56/1/6
f 57/1/1 58/1/1 59/1/1 60/1/1
f 61/1/3 62/1/3 63/1/3 64/1/3
f 65/1/4 66/1/4 67/1/4 68/1/4
f 69/1/5 70/1/5 71/1/5 72/1/5
f 73/1/6 74/1/6 75/1/6 76/1/6
f 77/1/2 78/1/2 79/1/2 80/1/2
f 81/1/3 82/1/3 83/1/3 84/1/3
f 85/1/4 86/1/4 87/1/4 88/1/4
f 89/1/5 90/1/5 91/1/5 92/1/5
f 93/1/6 94/1/6 95/1/6 96/1/6
f 97/1/1 98/1/1 99/1/1 100/1/1
f 101/1/3 102/1/3 103/1/3 104/1/3
f 105/1/4 106/1/4 107/1/4 108/1/4
f 109/1/5 110/1/5 111/1/5 112/1/5
f 113/1/6 114/1/6 115/1/6 116/1/6
f 117/1/3 118/1/3 119/1/3 120/1/3
f 121/1/4 122/1/4 123/1/4 124/1/4
f 125/1/5 126/1/5 127/1/5 128/1/5
f 129/1/6 130/1/6 131/1/6 132/1/6
f 133/1/3 134/1/3 135/1/3 136/1/3
f 137/1/4 138/1/4 139/1/4 140/1/4
f 141/1/5 142/1/5 143/1/5 144/1/5
f 145/1/6 146/1/6 147/1/6 148/1/6
f 149/1/2 150/1/2 151/1/2 152/1/2
f 153/1/3 154/1/3 155/1/3 156/1/3
f 157/1/4 158/1/4 159/1/4 160/1/4
f 161/1/5 162/1/5 163/1/5 164/1/5
f 165/1/6 166/1/6 167/1/6 168/1/6
f 169/2/1 170/2/1 171/2/1 172/2/1
f 173/2/3 174/2/3 175/2/3 176/2/3
f 177/2/4 178/2/4 179/2/4 180/2/4
f 181/2/5 182/2/5 183/2/5 184/2/5
f 185/2/6 186/2/6 187/2/6 188/2/6
f 189/2/3 190/2/3 191/2/3 192/2/3
f 193/2/4 194/2/4 195/2/4 196/2/4
f 197/2/5 198/2/5 199/2/5 200/2/5
f 201/2/6 202/2/6 203/2/6 204/2/6
f 205/2/2 206/2/2 207/2/2 208/2/2
f 209/2/3 210/2/3 211/2/3 212/2/3
f 213/2/4 214/2/4 215/2/4 216/2/4
f 217/2/5 218/2/5 219/2/5 220/2/5
f 221/2/6 222/2/6 223/2/6 224/2/6
f 225/2/1 226/2/1 227/2/1 228/2/1
f 229/2/2 230/2/2 231/2/2 232/2/2
f 233/2/3 234/2/3 235/2/3 236/2/3
f 237/2/4 238/2/4 239/2/4 240/2/4
f 241/2/5 242/2/5 243/2/5 244/2/5
f 245/2/6 246/2/6 247/2/6 248/2/6
f 249/1/1 250/1/1 251/1/1 252/1/1
f 253/1/2 254/1/2 255/1/2 256/1/2
f 257/1/3 258/1/3 259/1/3 260/1/3
f 261/1/4 262/1/4 263/1/4 264/1/4
f 265/1/5 266/1/5 267/1/5 268/1/5
f 269/1/6 270/1/6 271/1/6 272/1/6
f 273/1/1 274/1/1 275/1/1 276/1/1
f 277/1/2 278/1/2 279/1/2 280/1/2
f 281/1/3 282/1/3 283/1/3 284/1/3
f 285/1/4 286/1/4 287/1/4 288/1/4
f 289/1/5 290/1/5 291/1/5 292/1/5
f 293/1/6 294/1/6 295/1/6 296/1/6
f 297/1/1 298/1/1 299/1/1 300/1/1
f 301/1/2 302/1/2 303/1/2 304/1/2
f 305/1/3 306/1/3 307/1/3 308/1/3
f 309/1/5 310/1/5 311/1/5 312/1/5
f 313/1/6 314/1/6 315/1/6 316/1/6
f 317/1/1 318/1/1 319/1/1 320/1/1
f 321/1/2 322/1/2 323/1/2 324/1/2
f 325/1/4 326/1/4 327/1/4 328/1/4
f 329/1/5 330/1/5 331/1/5 332/1/5
f 333/1/6 334/1/6 335/1/6 336/1/6
f 337/1/1 338/1/1 339/1/1 340/1/1
f 341/1/2 342/1/2 343/1/2 344/1/2
f 345/1/3 346/1/3 347/1/3 348/1/3
f 349/1/4 350/1/4 351/1/4 352/1/4
f 353/1/5 354/1/5 355/1/5 356/1/5
f 357/1/6 358/1/6 359/1/6 360/1/6
f 361/1/1 362/1/1 363/1/1 364/1/1
f 365/1/2 366/1/2 367/1/2 368/1/2
f 369/1/3 370/1/3 371/1/3 372/1/3
f 373/1/5 374/1/5 375/1/5 376/1/5
f 377/1/6 378/1/6 379/1/6 380/1/6
f 381/2/1 382/2/1 383/2/1 384/2/1
f 385/2/2 386/2/2 387/2/2 388/2/2
f 389/2/4 390/2/4 391/2/4 392/2/4
f 393/2/5 394/2/5 395/2/5 396/2/5
f 397/2/6 398/2/6 399/2/6 400/2/6
f 401/2/1 402/2/1 403/2/1 404/2/1
f 405/2/2 406/2/2 407/2/2 408/2/2
f 409/2/3 410/2/3 411/2/3 412/2/3
f 413/2/4 414/2/4 415/2/4 416/2/4
f 417/2/5 418/2/5 419/2/5 420/2/5
f 421/2/6 422/2/6 423/2/6 424/2/6
f 425/2/1 426/2/1 427/2/1 428/2/1
f 429/2/2 430/2/2 431/2/2 432/2/2
f 433/2/3 434/2/3 435/2/3 436/2/3
f 437/2/4 438/2/4 439/2/4 440/2/4
f 441/2/5 442/2/5 443/2/5 444/2/5
f 445/2/6 446/2/6 447/2/6 448/2/6
f 449/2/1 450/2/1 451/2/1 452/2/1
f 453/2/2 454/2/2 455/2/2 456/2/2
f 457/2/3 458/2/3 459/2/3 460/2/3
f 461/2/5 462/2/5 463/2/5 464/2/5
f 465/2/6 466/2/6 467/2/6 468/2/6
f 469/2/1 470/2/1 471/2/1 472/2/1
f 473/2/2 474/2/2 475/2/2 476/2/2
f 477/2/5 478/2/5 479/2/5 480/2/5
f 481/2/6 482/2/6 483/2/6 484/2/6
f 485/2/1 486/2/1 487/2/1 488/2/1
f 489/2/2 490/2/2 491/2/2 492/2/2
f 493/2/5 494/2/5 495/2/5 496/2/5
f 497/2/6 498/2/6 499/2/6 500/2/6
f 501/2/1 502/2/1 503/2/1 504/2/1
f 505/2/2 506/2/2 507/2/2 508/2/2
f 509/2/5 510/2/5 511/2/5 512/2/5
f 513/2/6 514/2/6 515/2/6 516/2/6
f 517/2/1 518/2/1 519/2/1 520/2/1
f 521/2/2 522/2/2 523/2/2 524/2/2
f 525/2/4 526/2/4 527/2/4 528/2/4
f 529/2/5 530/2/5 531/2/5 532/2/5
f 533/2/6 534/2/6 535/2/6 536/2/6
f 537/2/1 538/2/1 539/2/1 540/2/1
f 541/2/2 542/2/2 543/2/2 544/2/2
f 545/2/3 546/2/3 547/2/3 548/2/3
f 549/2/5 550/2/5 551/2/5 552/2/5
f 553/2/6 554/2/6 555/2/6 556/2/6
f 557/2/1 558/2/1 559/2/1 560/2/1
f 561/2/2 562/2/2 563/2/2 564/2/2
f 565/2/5 566/2/5 567/2/5 568/2/5
f 569/2/6 570/2/6 571/2/6 572/2/6
f 573/2/1 574/2/1 575/2/1 576/2/1
f 577/2/2 578/2/2 579/2/2 580/2/2
f 581/2/4 582/2/4 583/2/4 584/2/4
f 585/2/5 586/2/5 587/2/5 588/2/5
f 589/2/6 590/2/6 591/2/6 592/2/6
f 593/2/1 594/2/1 595/2/1 596/2/1
f 597/2/2 598/2/2 599/2/2 600/2/2
f 601/2/3 602/2/3 603/2/3 604/2/3
f 605/2/5 606/2/5 607/2/5 608/2/5
f 609/2/6 610/2/6 611/2/6 612/2/6
f 613/2/1 614/2/1 615/2/1 616/2/1
f 617/2/2 618/2/2 619/2/2 620/2/2
f 621/2/5 622/2/5 623/2/5 624/2/5
f 625/2/6 626/2/6 627/2/6 628/2/6
f 629/2/1 630/2/1 631/2/1 632/2/1
f 633/2/2 634/2/2 635/2/2 636/2/2
f 637/2/4 638/2/4 639/2/4 640/2/4
f 641/2/5 642/2/5 643/2/5 644/2/5
f 645/2/6 646/2/6 647/2/6 648/2/6
f 649/2/1 650/2/1 651/2/1 652/2/1
f 653/2/2 654/2/2 655/2/2 656/2/2
f 657/2/3 658/2/3 659/2/3 660/2/3
f 661/2/5 662/2/5 663/2/5 664/2/5
f 665/2/6 666/2/6 667/2/6 668/2/6
f 669/2/1 670/2/1 671/2/1 672/2/1
f 673/2/2 674/2/2 675/2/2 676/2/2
f 677/2/5 678/2/5 679/2/5 680/2/5
f 681/2/6 682/2/6 683/2/6 684/2/6
f 685/1/1 686/1/1 687/1/1 688/1/1
f 689/1/2 690/1/2 691/1/2 692/1/2
f 693/1/4 694/1/4 695/1/4 696/1/4
f 697/1/5 698/1/5 699/1/5 700/1/5
f 701/1/6 702/1/6 703/1/6 704/1/6
f 705/1/1 706/1/1 707/1/1 708/1/1
f 709/1/2 710/1/2 711/1/2 712/1/2
f 713/1/3 714/1/3 715/1/3 716/1/3
f 717/1/4 718/1/4 719/1/4 720/1/4
f 721/1/5 722/1/5 723/1/5 724/1/5
f 725/1/6 726/1/6 727/1/6 728/1/6
f 729/1/1 730/1/1 731/1/1 732/1/1
f 733/1/2 734/1/2 735/1/2 736/1/2
f 737/1/3 738/1/3 739/1/3 740/1/3
f 741/1/5 742/1/5 743/1/5 744/1/5
f 745/1/6 746/1/6 747/1/6 748/1/6
f 749/1/1 750/1/1 751/1/1 752/1/1
f 753/1/2 754/1/2 755/1/2 756/1/2
f 757/1/4 758/1/4 759/1/4 760/1/4
f 761/1/5 762/1/5 763/1/5 764/1/5
f 765/1/6 766/1/6 767/1/6 768/1/6
f 769/1/1 770/1/1 771/1/1 772/1/1
f 773/1/2 774/1/2 775/1/2 776/1/2
f 777/1/3 778/1/3 779/1/3 780/1/3
f 781/1/4 782/1/4 783/1/4 784/1/4
f 785/1/5 786/1/5 787/1/5 788/1/5
f 789/1/6 790/1/6 791/1/6 792/1/6
f 793/2/1 794/2/1 795/2/1 796/2/1
f 797/2/2 798/2/2 799/2/2 800/2/2
f 801/2/3 802/2/3 803/2/3 804/2/3
f 805/2/5 806/2/5 807/2/5 808/2/5
f 809/2/6 810/2/6 811/2/6 812/2/6
f 813/1/1 814/1/1 815/1/1 816/1/1
f 817/1/2 818/1/2 819/1/2 820/1/2
f 821/1/4 822/1/4 823/1/4 824/1/4
f 825/1/5 826/1/5 827/1/5 828/1/5
f 829/1/6 830/1/6 831/1/6 832/1/6
f 833/2/1 834/2/1 835/2/1 836/2/1
f 837/2/2 838/2/2 839/2/2 840/2/2
f 841/2/3 842/2/3 843/2/3 844/2/3
f 845/2/4 846/2/4 847/2/4 848/2/4
f 849/2/5 850/2/5 851/2/5 852/2/5
f 853/2/6 854/2/6 855/2/6 856/2/6
f 857/2/1 858/2/1 859/2/1 860/2/1
f 861/2/2 862/2/2 863/2/2 864/2/2
f 865/2/3 866/2/3 867/2/3 868/2/3
f 869/2/4 870/2/4 871/2/4 872/2/4
f 873/2/5 874/2/5 875/2/5 876/2/5
f 877/2/6 878/2/6 879/2/6 880/2/6
f 881/2/1 882/2/1 883/2/1 884/2/1
f 885/2/2 886/2/2 887/2/2 888/2/2
f 889/2/3 890/2/3 891/2/3 892/2/3
f 893/2/4 894/2/4 895/2/4 896/2/4
f 897/2/5 898/2/5 899/2/5 900/2/5
f 901/2/6 902/2/6 903/2/6 904/2/6
f 905/2/1 906/2/1 907/2/1 908/2/1
f 909/2/2 910/2/2 911/2/2 912/2/2
f 913/2/3 914/2/3 915/2/3 916/2/3
f 917/2/4 918/2/4 919/2/4 920/2/4
f 921/2/5 922/2/5 923/2/5 924/2/5
f 925/2/6 926/2/6 927/2/6 928/2/6
f 929/2/1 930/2/1 931/2/1 932/2/1
f 933/2/2 934/2/2 935/2/2 936/2/2
f 937/2/3 938/2/3 939/2/3 940/2/3
f 941/2/4 942/2/4 943/2/4 944/2/4
f 945/2/5 946/2/5 947/2/5 948/2/5
f 949/2/6 950/2/6 951/2/6 952/2/6
f 953/2/1 954/2/1 955/2/1 956/2/1
f 957/2/3 958/2/3 959/2/3 960/2/3
f 961/2/4 962/2/4 963/2/4 964/2/4
f 965/2/5 966/2/5 967/2/5 968/2/5
f 969/2/6 970/2/6 971/2/6 972/2/6
f 973/2/2 974/2/2 975/2/2 976/2/2
f 977/2/3 978/2/3 979/2/3 980/2/3
f 981/2/4 982/2/4 983/2/4 984/2/4
f 985/2/5 986/2/5 987/2/5 988/2/5
f 989/2/6 990/2/6 991/2/6 992/2/6
f 993/2/1 994/2/1 995/2/1 996/2/1
f 997/2/2 998/2/2 999/2/2 1000/2/2
f 1001/2/3 1002/2/3 1003/2/3 1004/2/3
f 1005/2/4 1006/2/4 1007/2/4 1008/2/4
f 1009/2/5 1010/2/5 1011/2/5 1012/2/5
f 1013/2/6 1014/2/6 1015/2/6 1016/2/6
f 1017/2/1 1018/2/1 1019/2/1 1020/2/1
f 1021/2/3 1022/2/3 1023/2/3 1024/2/3
f 1025/2/4 1026/2/4 1027/2/4 1028/2/4
f 1029/2/5 1030/2/5 1031/2/5 1032/2/5
f 1033/2/6 1034/2/6 1035/2/6 1036/2/6
f 1037/2/2 1038/2/2 1039/2/2 1040/2/2
f 1041/2/3 1042/2/3 1043/2/3 1044/2/3
f 1045/2/4 1046/2/4 1047/2/4 1048/2/4
f 1049/2/5 1050/2/5 1051/2/5 1052/2/5
f 1053/2/6 1054/2/6 1055/2/6 1056/2/6
f 1057/2/1 1058/2/1 1059/2/1 1060/2/1
f 1061/2/2 1062/2/2 1063/2/2 1064/2/2
f 1065/2/3 1066/2/3 1067/2/3 1068/2/3
f 1069/2/4 1070/2/4 1071/2/4 1072/2/4
f 1073/2/5 1074/2/5 1075/2/5 1076/2/5
f 1077/2/6 1078/2/6 1079/2/6 1080/2/6
f 1081/2/1 1082/2/1 1083/2/1 1084/2/1
f 1085/2/3 1086/2/3 1087/2/3 1088/2/3
f 1089/2/4 1090/2/4 1091/2/4 1092/2/4
f 1093/2/5 1094/2/5 1095/2/5 1096/2/5
f 1097/2/6 1098/2/6 1099/2/6 1100/2/6
f 1101/2/3 1102/2/3 1103/2/3 1104/2/3
f 1105/2/4 1106/2/4 1107/2/4 1108/2/4
f 1109/2/5 1110/2/5 1111/2/5 1112/2/5
f 1113/2/6 1114/2/6 1115/2/6 1116/2/6
f 1117/1/2 1118/1/2 1119/1/2 1120/1/2
f 1121/1/3 1122/1/3 1123/1/3 1124/1/3
f 1125/1/4 1126/1/4 1127/1/4 1128/1/4
f 1129/1/5 1130/1/5 1131/1/5 1132/1/5
f 1133/1/6 1134/1/6 1135/1/6 1136/1/6
f 1137/1/1 1138/1/1 1139/1/1 1140/1/1
f 1141/1/3 1142/1/3 1143/1/3 1144/1/3
f 1145/1/4 1146/1/4 1147/1/4 1148/1/4
f 1149/1/5 1150/1/5 1151/1/5 1152/1/5
f 1153/1/6 1154/1/6 1155/1/6 1156/1/6
f 1157/1/3 1158/1/3 1159/1/3 1160/1/3
f 1161/1/4 1162/1/4 1163/1/4 1164/1/4
f 1165/1/5 1166/1/5 1167/1/5 1168/1/5
f 1169/1/6 1170/1/6 1171/1/6 1172/1/6
f 1173/1/2 1174/1/2 1175/1/2 1176/1/2
f 1177/1/3 1178/1/3 1179/1/3 1180/1/3
f 1181/1/4 1182/1/4 1183/1/4 1184/1/4
f 1185/1/5 1186/1/5 1187/1/5 1188/1/5
f 1189/1/6 1190/1/6 1191/1/6 1192/1/6
f 1193/1/1 1194/1/1 1195/1/1 1196/1/1
f 1197/1/2 1198/1/2 1199/1/2 1200/1/2
f 1201/1/3 1202/1/3 1203/1/3 1204/1/3
f 1205/1/4 1206/1/4 1207/1/4 1208/1/4
f 1209/1/5 1210/1/5 1211/1/5 1212/1/5
f 1213/1/6 1214/1/6 1215/1/6 1216/1/6
f 1217/1/1 1218/1/1 1219/1/1 1220/1/1
f 1221/1/3 1222/1/3 1223/1/3 1224/1/3
f 1225/1/4 1226/1/4 1227/1/4 1228/1/4
f 1229/1/5 1230/1/5 1231/1/5 1232/1/5
f 1233/1/6 1234/1/6 1235/1/6 1236/1/6
f 1237/1/2 1238/1/2 1239/1/2 1240/1/2
f 1241/1/3 1242/1/3 1243/1/3 1244/1/3
f 1245/1/4 1246/1/4 1247/1/4 1248/1/4
f 1249/1/5 1250/1/5 1251/1/5 1252/1/5
f 1253/1/6 1254/1/6 1255/1/6 1256/1/6
f 1257/1/1 1258/1/1 1259/1/1 1260/1/1
f 1261/1/3 1262/1/3 1263/1/3 1264/1/3
f 1265/1/4 1266/1/4 1267/1/4 1268/1/4
f 1269/1/5 1270/1/5 1271/1/5 1272/1/5
f 1273/1/6 1274/1/6 1275/1/6 1276/1/6
f 1277/1/2 1278/1/2 1279/1/2 1280/1/2
f 1281/1/3 1282/1/3 1283/1/3 1284/1/3
f 1285/1/4 1286/1/4 1287/1/4 1288/1/4
f 1289/1/5 1290/1/5 1291/1/5 1292/1/5
f 1293/1/6 1294/1/6 1295/1/6 1296/1/6

