# generated by vox_to_obj_exporter
# scale=0.1 center=false ground=false y_up=true

mtllib Fight_727.mtl
usemtl palette

# normals
vn -1 0 0
vn 1 0 0
vn 0 1 0
vn 0 -1 0
vn 0 0 1
vn 0 0 -1

# texcoords
vt 0.177734375 0.5

# verts
v 3.1 2.2 -2.6
v 3.1 2.1 -2.6
v 3.1 2.1 -2.5
v 3.1 2.2 -2.5
v 3.2 2.2 -2.5
v 3.2 2.1 -2.5
v 3.2 2.1 -2.6
v 3.2 2.2 -2.6
v 3.1 2.2 -2.6
v 3.1 2.2 -2.5
v 3.2 2.2 -2.5
v 3.2 2.2 -2.6
v 3.1 2.1 -2.5
v 3.1 2.1 -2.6
v 3.2 2.1 -2.6
v 3.2 2.1 -2.5
v 3.1 2.2 -2.5
v 3.1 2.1 -2.5
v 3.2 2.1 -2.5
v 3.2 2.2 -2.5
v 3.2 2.2 -2.6
v 3.2 2.1 -2.6
v 3.1 2.1 -2.6
v 3.1 2.2 -2.6
v 2.7 2.1 -2.6
v 2.7 2 -2.6
v 2.7 2 -2.5
v 2.7 2.1 -2.5
v 2.8 2.1 -2.5
v 2.8 2 -2.5
v 2.8 2 -2.6
v 2.8 2.1 -2.6
v 2.7 2.1 -2.6
v 2.7 2.1 -2.5
v 2.8 2.1 -2.5
v 2.8 2.1 -2.6
v 2.7 2 -2.5
v 2.7 2 -2.6
v 2.8 2 -2.6
v 2.8 2 -2.5
v 2.7 2.1 -2.5
v 2.7 2 -2.5
v 2.8 2 -2.5
v 2.8 2.1 -2.5
v 2.8 2.1 -2.6
v 2.8 2 -2.6
v 2.7 2 -2.6
v 2.7 2.1 -2.6
v 3 2.1 -2.6
v 3 2 -2.6
v 3 2 -2.5
v 3 2.1 -2.5
v 3.1 2.1 -2.5
v 3.1 2 -2.5
v 3.1 2 -2.6
v 3.1 2.1 -2.6
v 3 2.1 -2.6
v 3 2.1 -2.5
v 3.1 2.1 -2.5
v 3.1 2.1 -2.6
v 3 2 -2.5
v 3 2 -2.6
v 3.1 2 -2.6
v 3.1 2 -2.5
v 3 2.1 -2.5
v 3 2 -2.5
v 3.1 2 -2.5
v 3.1 2.1 -2.5
v 3.1 2.1 -2.6
v 3.1 2 -2.6
v 3 2 -2.6
v 3 2.1 -2.6
v 2.6 2 -2.6
v 2.6 1.9 -2.6
v 2.6 1.9 -2.5
v 2.6 2 -2.5
v 2.7 2 -2.5
v 2.7 1.9 -2.5
v 2.7 1.9 -2.6
v 2.7 2 -2.6
v 2.6 2 -2.6
v 2.6 2 -2.5
v 2.7 2 -2.5
v 2.7 2 -2.6
v 2.6 1.9 -2.5
v 2.6 1.9 -2.6
v 2.7 1.9 -2.6
v 2.7 1.9 -2.5
v 2.6 2 -2.5
v 2.6 1.9 -2.5
v 2.7 1.9 -2.5
v 2.7 2 -2.5
v 2.7 2 -2.6
v 2.7 1.9 -2.6
v 2.6 1.9 -2.6
v 2.6 2 -2.6
v 2.9 2 -2.6
v 2.9 1.9 -2.6
v 2.9 1.9 -2.5
v 2.9 2 -2.5
v 3 2 -2.5
v 3 1.9 -2.5
v 3 1.9 -2.6
v 3 2 -2.6
v 2.9 2 -2.6
v 2.9 2 -2.5
v 3 2 -2.5
v 3 2 -2.6
v 2.9 1.9 -2.5
v 2.9 1.9 -2.6
v 3 1.9 -2.6
v 3 1.9 -2.5
v 2.9 2 -2.5
v 2.9 1.9 -2.5
v 3 1.9 -2.5
v 3 2 -2.5
v 3 2 -2.6
v 3 1.9 -2.6
v 2.9 1.9 -2.6
v 2.9 2 -2.6
v 2.4 1.9 -2.6
v 2.4 1.8 -2.6
v 2.4 1.8 -2.5
v 2.4 1.9 -2.5
v 2.4 1.9 -2.6
v 2.4 1.9 -2.5
v 2.5 1.9 -2.5
v 2.5 1.9 -2.6
v 2.4 1.9 -2.5
v 2.4 1.8 -2.5
v 2.5 1.8 -2.5
v 2.5 1.9 -2.5
v 2.5 1.9 -2.6
v 2.5 1.8 -2.6
v 2.4 1.8 -2.6
v 2.4 1.9 -2.6
v 2.6 1.9 -2.5
v 2.6 1.8 -2.5
v 2.6 1.8 -2.6
v 2.6 1.9 -2.6
v 2.5 1.9 -2.6
v 2.5 1.9 -2.5
v 2.6 1.9 -2.5
v 2.6 1.9 -2.6
v 2.5 1.9 -2.5
v 2.5 1.8 -2.5
v 2.6 1.8 -2.5
v 2.6 1.9 -2.5
v 2.6 1.9 -2.6
v 2.6 1.8 -2.6
v 2.5 1.8 -2.6
v 2.5 1.9 -2.6
v 2.7 1.9 -2.6
v 2.7 1.8 -2.6
v 2.7 1.8 -2.5
v 2.7 1.9 -2.5
v 2.7 1.9 -2.6
v 2.7 1.9 -2.5
v 2.8 1.9 -2.5
v 2.8 1.9 -2.6
v 2.7 1.9 -2.5
v 2.7 1.8 -2.5
v 2.8 1.8 -2.5
v 2.8 1.9 -2.5
v 2.8 1.9 -2.6
v 2.8 1.8 -2.6
v 2.7 1.8 -2.6
v 2.7 1.9 -2.6
v 2.9 1.9 -2.5
v 2.9 1.8 -2.5
v 2.9 1.8 -2.6
v 2.9 1.9 -2.6
v 2.8 1.9 -2.6
v 2.8 1.9 -2.5
v 2.9 1.9 -2.5
v 2.9 1.9 -2.6
v 2.8 1.8 -2.5
v 2.8 1.8 -2.6
v 2.9 1.8 -2.6
v 2.9 1.8 -2.5
v 2.8 1.9 -2.5
v 2.8 1.8 -2.5
v 2.9 1.8 -2.5
v 2.9 1.9 -2.5
v 2.9 1.9 -2.6
v 2.9 1.8 -2.6
v 2.8 1.8 -2.6
v 2.8 1.9 -2.6
v 2.3 1.8 -2.6
v 2.3 1.7 -2.6
v 2.3 1.7 -2.5
v 2.3 1.8 -2.5
v 2.3 1.8 -2.6
v 2.3 1.8 -2.5
v 2.4 1.8 -2.5
v 2.4 1.8 -2.6
v 2.3 1.8 -2.5
v 2.3 1.7 -2.5
v 2.4 1.7 -2.5
v 2.4 1.8 -2.5
v 2.4 1.8 -2.6
v 2.4 1.7 -2.6
v 2.3 1.7 -2.6
v 2.3 1.8 -2.6
v 2.4 1.8 -2.5
v 2.4 1.7 -2.5
v 2.5 1.7 -2.5
v 2.5 1.8 -2.5
v 2.5 1.8 -2.6
v 2.5 1.7 -2.6
v 2.4 1.7 -2.6
v 2.4 1.8 -2.6
v 2.5 1.8 -2.5
v 2.5 1.7 -2.5
v 2.6 1.7 -2.5
v 2.6 1.8 -2.5
v 2.6 1.8 -2.6
v 2.6 1.7 -2.6
v 2.5 1.7 -2.6
v 2.5 1.8 -2.6
v 2.6 1.8 -2.6
v 2.6 1.8 -2.5
v 2.7 1.8 -2.5
v 2.7 1.8 -2.6
v 2.6 1.8 -2.5
v 2.6 1.7 -2.5
v 2.7 1.7 -2.5
v 2.7 1.8 -2.5
v 2.7 1.8 -2.6
v 2.7 1.7 -2.6
v 2.6 1.7 -2.6
v 2.6 1.8 -2.6
v 2.8 1.8 -2.5
v 2.8 1.7 -2.5
v 2.8 1.7 -2.6
v 2.8 1.8 -2.6
v 2.7 1.7 -2.5
v 2.7 1.7 -2.6
v 2.8 1.7 -2.6
v 2.8 1.7 -2.5
v 2.7 1.8 -2.5
v 2.7 1.7 -2.5
v 2.8 1.7 -2.5
v 2.8 1.8 -2.5
v 2.8 1.8 -2.6
v 2.8 1.7 -2.6
v 2.7 1.7 -2.6
v 2.7 1.8 -2.6
v 2.2 1.7 -2.6
v 2.2 1.6 -2.6
v 2.2 1.6 -2.5
v 2.2 1.7 -2.5
v 2.2 1.7 -2.6
v 2.2 1.7 -2.5
v 2.3 1.7 -2.5
v 2.3 1.7 -2.6
v 2.2 1.7 -2.5
v 2.2 1.6 -2.5
v 2.3 1.6 -2.5
v 2.3 1.7 -2.5
v 2.3 1.7 -2.6
v 2.3 1.6 -2.6
v 2.2 1.6 -2.6
v 2.2 1.7 -2.6
v 2.3 1.7 -2.5
v 2.3 1.6 -2.5
v 2.4 1.6 -2.5
v 2.4 1.7 -2.5
v 2.4 1.7 -2.6
v 2.4 1.6 -2.6
v 2.3 1.6 -2.6
v 2.3 1.7 -2.6
v 2.4 1.7 -2.5
v 2.4 1.6 -2.5
v 2.5 1.6 -2.5
v 2.5 1.7 -2.5
v 2.5 1.7 -2.6
v 2.5 1.6 -2.6
v 2.4 1.6 -2.6
v 2.4 1.7 -2.6
v 2.5 1.6 -2.5
v 2.5 1.6 -2.6
v 2.6 1.6 -2.6
v 2.6 1.6 -2.5
v 2.5 1.7 -2.5
v 2.5 1.6 -2.5
v 2.6 1.6 -2.5
v 2.6 1.7 -2.5
v 2.6 1.7 -2.6
v 2.6 1.6 -2.6
v 2.5 1.6 -2.6
v 2.5 1.7 -2.6
v 2.7 1.7 -2.5
v 2.7 1.6 -2.5
v 2.7 1.6 -2.6
v 2.7 1.7 -2.6
v 2.6 1.6 -2.5
v 2.6 1.6 -2.6
v 2.7 1.6 -2.6
v 2.7 1.6 -2.5
v 2.6 1.7 -2.5
v 2.6 1.6 -2.5
v 2.7 1.6 -2.5
v 2.7 1.7 -2.5
v 2.7 1.7 -2.6
v 2.7 1.6 -2.6
v 2.6 1.6 -2.6
v 2.6 1.7 -2.6
v 2 1.6 -2.6
v 2 1.5 -2.6
v 2 1.5 -2.5
v 2 1.6 -2.5
v 2 1.6 -2.6
v 2 1.6 -2.5
v 2.1 1.6 -2.5
v 2.1 1.6 -2.6
v 2 1.6 -2.5
v 2 1.5 -2.5
v 2.1 1.5 -2.5
v 2.1 1.6 -2.5
v 2.1 1.6 -2.6
v 2.1 1.5 -2.6
v 2 1.5 -2.6
v 2 1.6 -2.6
v 2.1 1.6 -2.6
v 2.1 1.6 -2.5
v 2.2 1.6 -2.5
v 2.2 1.6 -2.6
v 2.1 1.6 -2.5
v 2.1 1.5 -2.5
v 2.2 1.5 -2.5
v 2.2 1.6 -2.5
v 2.2 1.6 -2.6
v 2.2 1.5 -2.6
v 2.1 1.5 -2.6
v 2.1 1.6 -2.6
v 2.2 1.6 -2.5
v 2.2 1.5 -2.5
v 2.3 1.5 -2.5
v 2.3 1.6 -2.5
v 2.3 1.6 -2.6
v 2.3 1.5 -2.6
v 2.2 1.5 -2.6
v 2.2 1.6 -2.6
v 2.3 1.6 -2.5
v 2.3 1.5 -2.5
v 2.4 1.5 -2.5
v 2.4 1.6 -2.5
v 2.4 1.6 -2.6
v 2.4 1.5 -2.6
v 2.3 1.5 -2.6
v 2.3 1.6 -2.6
v 2.5 1.6 -2.5
v 2.5 1.5 -2.5
v 2.5 1.5 -2.6
v 2.5 1.6 -2.6
v 2.4 1.5 -2.5
v 2.4 1.5 -2.6
v 2.5 1.5 -2.6
v 2.5 1.5 -2.5
v 2.4 1.6 -2.5
v 2.4 1.5 -2.5
v 2.5 1.5 -2.5
v 2.5 1.6 -2.5
v 2.5 1.6 -2.6
v 2.5 1.5 -2.6
v 2.4 1.5 -2.6
v 2.4 1.6 -2.6
v 1.9 1.5 -2.6
v 1.9 1.4 -2.6
v 1.9 1.4 -2.5
v 1.9 1.5 -2.5
v 1.9 1.5 -2.6
v 1.9 1.5 -2.5
v 2 1.5 -2.5
v 2 1.5 -2.6
v 1.9 1.5 -2.5
v 1.9 1.4 -2.5
v 2 1.4 -2.5
v 2 1.5 -2.5
v 2 1.5 -2.6
v 2 1.4 -2.6
v 1.9 1.4 -2.6
v 1.9 1.5 -2.6
v 2 1.5 -2.5
v 2 1.4 -2.5
v 2.1 1.4 -2.5
v 2.1 1.5 -2.5
v 2.1 1.5 -2.6
v 2.1 1.4 -2.6
v 2 1.4 -2.6
v 2 1.5 -2.6
v 2.1 1.5 -2.5
v 2.1 1.4 -2.5
v 2.2 1.4 -2.5
v 2.2 1.5 -2.5
v 2.2 1.5 -2.6
v 2.2 1.4 -2.6
v 2.1 1.4 -2.6
v 2.1 1.5 -2.6
v 2.2 1.5 -2.5
v 2.2 1.4 -2.5
v 2.3 1.4 -2.5
v 2.3 1.5 -2.5
v 2.3 1.5 -2.6
v 2.3 1.4 -2.6
v 2.2 1.4 -2.6
v 2.2 1.5 -2.6
v 2.4 1.5 -2.5
v 2.4 1.4 -2.5
v 2.4 1.4 -2.6
v 2.4 1.5 -2.6
v 2.3 1.4 -2.5
v 2.3 1.4 -2.6
v 2.4 1.4 -2.6
v 2.4 1.4 -2.5
v 2.3 1.5 -2.5
v 2.3 1.4 -2.5
v 2.4 1.4 -2.5
v 2.4 1.5 -2.5
v 2.4 1.5 -2.6
v 2.4 1.4 -2.6
v 2.3 1.4 -2.6
v 2.3 1.5 -2.6
v 1.8 1.4 -2.6
v 1.8 1.3 -2.6
v 1.8 1.3 -2.5
v 1.8 1.4 -2.5
v 1.8 1.4 -2.6
v 1.8 1.4 -2.5
v 1.9 1.4 -2.5
v 1.9 1.4 -2.6
v 1.8 1.4 -2.5
v 1.8 1.3 -2.5
v 1.9 1.3 -2.5
v 1.9 1.4 -2.5
v 1.9 1.4 -2.6
v 1.9 1.3 -2.6
v 1.8 1.3 -2.6
v 1.8 1.4 -2.6
v 1.9 1.4 -2.5
v 1.9 1.3 -2.5
v 2 1.3 -2.5
v 2 1.4 -2.5
v 2 1.4 -2.6
v 2 1.3 -2.6
v 1.9 1.3 -2.6
v 1.9 1.4 -2.6
v 2 1.4 -2.5
v 2 1.3 -2.5
v 2.1 1.3 -2.5
v 2.1 1.4 -2.5
v 2.1 1.4 -2.6
v 2.1 1.3 -2.6
v 2 1.3 -2.6
v 2 1.4 -2.6
v 2.1 1.3 -2.5
v 2.1 1.3 -2.6
v 2.2 1.3 -2.6
v 2.2 1.3 -2.5
v 2.1 1.4 -2.5
v 2.1 1.3 -2.5
v 2.2 1.3 -2.5
v 2.2 1.4 -2.5
v 2.2 1.4 -2.6
v 2.2 1.3 -2.6
v 2.1 1.3 -2.6
v 2.1 1.4 -2.6
v 2.3 1.4 -2.5
v 2.3 1.3 -2.5
v 2.3 1.3 -2.6
v 2.3 1.4 -2.6
v 2.2 1.3 -2.5
v 2.2 1.3 -2.6
v 2.3 1.3 -2.6
v 2.3 1.3 -2.5
v 2.2 1.4 -2.5
v 2.2 1.3 -2.5
v 2.3 1.3 -2.5
v 2.3 1.4 -2.5
v 2.3 1.4 -2.6
v 2.3 1.3 -2.6
v 2.2 1.3 -2.6
v 2.2 1.4 -2.6
v 1.7 1.3 -2.6
v 1.7 1.2 -2.6
v 1.7 1.2 -2.5
v 1.7 1.3 -2.5
v 1.7 1.3 -2.6
v 1.7 1.3 -2.5
v 1.8 1.3 -2.5
v 1.8 1.3 -2.6
v 1.7 1.3 -2.5
v 1.7 1.2 -2.5
v 1.8 1.2 -2.5
v 1.8 1.3 -2.5
v 1.8 1.3 -2.6
v 1.8 1.2 -2.6
v 1.7 1.2 -2.6
v 1.7 1.3 -2.6
v 1.8 1.3 -2.5
v 1.8 1.2 -2.5
v 1.9 1.2 -2.5
v 1.9 1.3 -2.5
v 1.9 1.3 -2.6
v 1.9 1.2 -2.6
v 1.8 1.2 -2.6
v 1.8 1.3 -2.6
v 1.9 1.3 -2.5
v 1.9 1.2 -2.5
v 2 1.2 -2.5
v 2 1.3 -2.5
v 2 1.3 -2.6
v 2 1.2 -2.6
v 1.9 1.2 -2.6
v 1.9 1.3 -2.6
v 2.1 1.3 -2.5
v 2.1 1.2 -2.5
v 2.1 1.2 -2.6
v 2.1 1.3 -2.6
v 2 1.2 -2.5
v 2 1.2 -2.6
v 2.1 1.2 -2.6
v 2.1 1.2 -2.5
v 2 1.3 -2.5
v 2 1.2 -2.5
v 2.1 1.2 -2.5
v 2.1 1.3 -2.5
v 2.1 1.3 -2.6
v 2.1 1.2 -2.6
v 2 1.2 -2.6
v 2 1.3 -2.6
v 1.5 1.2 -2.6
v 1.5 1.1 -2.6
v 1.5 1.1 -2.5
v 1.5 1.2 -2.5
v 1.5 1.2 -2.6
v 1.5 1.2 -2.5
v 1.6 1.2 -2.5
v 1.6 1.2 -2.6
v 1.5 1.2 -2.5
v 1.5 1.1 -2.5
v 1.6 1.1 -2.5
v 1.6 1.2 -2.5
v 1.6 1.2 -2.6
v 1.6 1.1 -2.6
v 1.5 1.1 -2.6
v 1.5 1.2 -2.6
v 1.6 1.2 -2.6
v 1.6 1.2 -2.5
v 1.7 1.2 -2.5
v 1.7 1.2 -2.6
v 1.6 1.2 -2.5
v 1.6 1.1 -2.5
v 1.7 1.1 -2.5
v 1.7 1.2 -2.5
v 1.7 1.2 -2.6
v 1.7 1.1 -2.6
v 1.6 1.1 -2.6
v 1.6 1.2 -2.6
v 1.7 1.2 -2.5
v 1.7 1.1 -2.5
v 1.8 1.1 -2.5
v 1.8 1.2 -2.5
v 1.8 1.2 -2.6
v 1.8 1.1 -2.6
v 1.7 1.1 -2.6
v 1.7 1.2 -2.6
v 1.8 1.2 -2.5
v 1.8 1.1 -2.5
v 1.9 1.1 -2.5
v 1.9 1.2 -2.5
v 1.9 1.2 -2.6
v 1.9 1.1 -2.6
v 1.8 1.1 -2.6
v 1.8 1.2 -2.6
v 2 1.2 -2.5
v 2 1.1 -2.5
v 2 1.1 -2.6
v 2 1.2 -2.6
v 1.9 1.1 -2.5
v 1.9 1.1 -2.6
v 2 1.1 -2.6
v 2 1.1 -2.5
v 1.9 1.2 -2.5
v 1.9 1.1 -2.5
v 2 1.1 -2.5
v 2 1.2 -2.5
v 2 1.2 -2.6
v 2 1.1 -2.6
v 1.9 1.1 -2.6
v 1.9 1.2 -2.6
v 1.4 1.1 -2.6
v 1.4 1 -2.6
v 1.4 1 -2.5
v 1.4 1.1 -2.5
v 1.4 1.1 -2.6
v 1.4 1.1 -2.5
v 1.5 1.1 -2.5
v 1.5 1.1 -2.6
v 1.4 1.1 -2.5
v 1.4 1 -2.5
v 1.5 1 -2.5
v 1.5 1.1 -2.5
v 1.5 1.1 -2.6
v 1.5 1 -2.6
v 1.4 1 -2.6
v 1.4 1.1 -2.6
v 1.5 1.1 -2.5
v 1.5 1 -2.5
v 1.6 1 -2.5
v 1.6 1.1 -2.5
v 1.6 1.1 -2.6
v 1.6 1 -2.6
v 1.5 1 -2.6
v 1.5 1.1 -2.6
v 1.6 1.1 -2.5
v 1.6 1 -2.5
v 1.7 1 -2.5
v 1.7 1.1 -2.5
v 1.7 1.1 -2.6
v 1.7 1 -2.6
v 1.6 1 -2.6
v 1.6 1.1 -2.6
v 1.7 1 -2.5
v 1.7 1 -2.6
v 1.8 1 -2.6
v 1.8 1 -2.5
v 1.7 1.1 -2.5
v 1.7 1 -2.5
v 1.8 1 -2.5
v 1.8 1.1 -2.5
v 1.8 1.1 -2.6
v 1.8 1 -2.6
v 1.7 1 -2.6
v 1.7 1.1 -2.6
v 1.9 1.1 -2.5
v 1.9 1 -2.5
v 1.9 1 -2.6
v 1.9 1.1 -2.6
v 1.8 1 -2.5
v 1.8 1 -2.6
v 1.9 1 -2.6
v 1.9 1 -2.5
v 1.8 1.1 -2.5
v 1.8 1 -2.5
v 1.9 1 -2.5
v 1.9 1.1 -2.5
v 1.9 1.1 -2.6
v 1.9 1 -2.6
v 1.8 1 -2.6
v 1.8 1.1 -2.6
v 1.3 1 -2.6
v 1.3 0.9 -2.6
v 1.3 0.9 -2.5
v 1.3 1 -2.5
v 1.3 1 -2.6
v 1.3 1 -2.5
v 1.4 1 -2.5
v 1.4 1 -2.6
v 1.3 1 -2.5
v 1.3 0.9 -2.5
v 1.4 0.9 -2.5
v 1.4 1 -2.5
v 1.4 1 -2.6
v 1.4 0.9 -2.6
v 1.3 0.9 -2.6
v 1.3 1 -2.6
v 1.4 1 -2.5
v 1.4 0.9 -2.5
v 1.5 0.9 -2.5
v 1.5 1 -2.5
v 1.5 1 -2.6
v 1.5 0.9 -2.6
v 1.4 0.9 -2.6
v 1.4 1 -2.6
v 1.5 1 -2.5
v 1.5 0.9 -2.5
v 1.6 0.9 -2.5
v 1.6 1 -2.5
v 1.6 1 -2.6
v 1.6 0.9 -2.6
v 1.5 0.9 -2.6
v 1.5 1 -2.6
v 1.7 1 -2.5
v 1.7 0.9 -2.5
v 1.7 0.9 -2.6
v 1.7 1 -2.6
v 1.6 0.9 -2.5
v 1.6 0.9 -2.6
v 1.7 0.9 -2.6
v 1.7 0.9 -2.5
v 1.6 1 -2.5
v 1.6 0.9 -2.5
v 1.7 0.9 -2.5
v 1.7 1 -2.5
v 1.7 1 -2.6
v 1.7 0.9 -2.6
v 1.6 0.9 -2.6
v 1.6 1 -2.6
v 1.2 0.9 -2.6
v 1.2 0.8 -2.6
v 1.2 0.8 -2.5
v 1.2 0.9 -2.5
v 1.2 0.9 -2.6
v 1.2 0.9 -2.5
v 1.3 0.9 -2.5
v 1.3 0.9 -2.6
v 1.2 0.9 -2.5
v 1.2 0.8 -2.5
v 1.3 0.8 -2.5
v 1.3 0.9 -2.5
v 1.3 0.9 -2.6
v 1.3 0.8 -2.6
v 1.2 0.8 -2.6
v 1.2 0.9 -2.6
v 1.3 0.9 -2.5
v 1.3 0.8 -2.5
v 1.4 0.8 -2.5
v 1.4 0.9 -2.5
v 1.4 0.9 -2.6
v 1.4 0.8 -2.6
v 1.3 0.8 -2.6
v 1.3 0.9 -2.6
v 1.4 0.8 -2.5
v 1.4 0.8 -2.6
v 1.5 0.8 -2.6
v 1.5 0.8 -2.5
v 1.4 0.9 -2.5
v 1.4 0.8 -2.5
v 1.5 0.8 -2.5
v 1.5 0.9 -2.5
v 1.5 0.9 -2.6
v 1.5 0.8 -2.6
v 1.4 0.8 -2.6
v 1.4 0.9 -2.6
v 1.6 0.9 -2.5
v 1.6 0.8 -2.5
v 1.6 0.8 -2.6
v 1.6 0.9 -2.6
v 1.5 0.8 -2.5
v 1.5 0.8 -2.6
v 1.6 0.8 -2.6
v 1.6 0.8 -2.5
v 1.5 0.9 -2.5
v 1.5 0.8 -2.5
v 1.6 0.8 -2.5
v 1.6 0.9 -2.5
v 1.6 0.9 -2.6
v 1.6 0.8 -2.6
v 1.5 0.8 -2.6
v 1.5 0.9 -2.6
v 1 0.8 -2.6
v 1 0.7 -2.6
v 1 0.7 -2.5
v 1 0.8 -2.5
v 1 0.8 -2.6
v 1 0.8 -2.5
v 1.1 0.8 -2.5
v 1.1 0.8 -2.6
v 1 0.8 -2.5
v 1 0.7 -2.5
v 1.1 0.7 -2.5
v 1.1 0.8 -2.5
v 1.1 0.8 -2.6
v 1.1 0.7 -2.6
v 1 0.7 -2.6
v 1 0.8 -2.6
v 1.1 0.8 -2.6
v 1.1 0.8 -2.5
v 1.2 0.8 -2.5
v 1.2 0.8 -2.6
v 1.1 0.8 -2.5
v 1.1 0.7 -2.5
v 1.2 0.7 -2.5
v 1.2 0.8 -2.5
v 1.2 0.8 -2.6
v 1.2 0.7 -2.6
v 1.1 0.7 -2.6
v 1.1 0.8 -2.6
v 1.2 0.8 -2.5
v 1.2 0.7 -2.5
v 1.3 0.7 -2.5
v 1.3 0.8 -2.5
v 1.3 0.8 -2.6
v 1.3 0.7 -2.6
v 1.2 0.7 -2.6
v 1.2 0.8 -2.6
v 1.4 0.8 -2.5
v 1.4 0.7 -2.5
v 1.4 0.7 -2.6
v 1.4 0.8 -2.6
v 1.3 0.7 -2.5
v 1.3 0.7 -2.6
v 1.4 0.7 -2.6
v 1.4 0.7 -2.5
v 1.3 0.8 -2.5
v 1.3 0.7 -2.5
v 1.4 0.7 -2.5
v 1.4 0.8 -2.5
v 1.4 0.8 -2.6
v 1.4 0.7 -2.6
v 1.3 0.7 -2.6
v 1.3 0.8 -2.6
v 0.9 0.7 -2.6
v 0.9 0.6 -2.6
v 0.9 0.6 -2.5
v 0.9 0.7 -2.5
v 0.9 0.7 -2.6
v 0.9 0.7 -2.5
v 1 0.7 -2.5
v 1 0.7 -2.6
v 0.9 0.7 -2.5
v 0.9 0.6 -2.5
v 1 0.6 -2.5
v 1 0.7 -2.5
v 1 0.7 -2.6
v 1 0.6 -2.6
v 0.9 0.6 -2.6
v 0.9 0.7 -2.6
v 1 0.7 -2.5
v 1 0.6 -2.5
v 1.1 0.6 -2.5
v 1.1 0.7 -2.5
v 1.1 0.7 -2.6
v 1.1 0.6 -2.6
v 1 0.6 -2.6
v 1 0.7 -2.6
v 1.1 0.6 -2.5
v 1.1 0.6 -2.6
v 1.2 0.6 -2.6
v 1.2 0.6 -2.5
v 1.1 0.7 -2.5
v 1.1 0.6 -2.5
v 1.2 0.6 -2.5
v 1.2 0.7 -2.5
v 1.2 0.7 -2.6
v 1.2 0.6 -2.6
v 1.1 0.6 -2.6
v 1.1 0.7 -2.6
v 1.3 0.7 -2.5
v 1.3 0.6 -2.5
v 1.3 0.6 -2.6
v 1.3 0.7 -2.6
v 1.2 0.6 -2.5
v 1.2 0.6 -2.6
v 1.3 0.6 -2.6
v 1.3 0.6 -2.5
v 1.2 0.7 -2.5
v 1.2 0.6 -2.5
v 1.3 0.6 -2.5
v 1.3 0.7 -2.5
v 1.3 0.7 -2.6
v 1.3 0.6 -2.6
v 1.2 0.6 -2.6
v 1.2 0.7 -2.6
v 0.8 0.6 -2.6
v 0.8 0.5 -2.6
v 0.8 0.5 -2.5
v 0.8 0.6 -2.5
v 0.8 0.6 -2.6
v 0.8 0.6 -2.5
v 0.9 0.6 -2.5
v 0.9 0.6 -2.6
v 0.8 0.6 -2.5
v 0.8 0.5 -2.5
v 0.9 0.5 -2.5
v 0.9 0.6 -2.5
v 0.9 0.6 -2.6
v 0.9 0.5 -2.6
v 0.8 0.5 -2.6
v 0.8 0.6 -2.6
v 0.9 0.6 -2.5
v 0.9 0.5 -2.5
v 1 0.5 -2.5
v 1 0.6 -2.5
v 1 0.6 -2.6
v 1 0.5 -2.6
v 0.9 0.5 -2.6
v 0.9 0.6 -2.6
v 1.1 0.6 -2.5
v 1.1 0.5 -2.5
v 1.1 0.5 -2.6
v 1.1 0.6 -2.6
v 1 0.5 -2.5
v 1 0.5 -2.6
v 1.1 0.5 -2.6
v 1.1 0.5 -2.5
v 1 0.6 -2.5
v 1 0.5 -2.5
v 1.1 0.5 -2.5
v 1.1 0.6 -2.5
v 1.1 0.6 -2.6
v 1.1 0.5 -2.6
v 1 0.5 -2.6
v 1 0.6 -2.6
v 0.7 0.5 -2.6
v 0.7 0.4 -2.6
v 0.7 0.4 -2.5
v 0.7 0.5 -2.5
v 0.7 0.5 -2.6
v 0.7 0.5 -2.5
v 0.8 0.5 -2.5
v 0.8 0.5 -2.6
v 0.7 0.5 -2.5
v 0.7 0.4 -2.5
v 0.8 0.4 -2.5
v 0.8 0.5 -2.5
v 0.8 0.5 -2.6
v 0.8 0.4 -2.6
v 0.7 0.4 -2.6
v 0.7 0.5 -2.6
v 0.8 0.4 -2.5
v 0.8 0.4 -2.6
v 0.9 0.4 -2.6
v 0.9 0.4 -2.5
v 0.8 0.5 -2.5
v 0.8 0.4 -2.5
v 0.9 0.4 -2.5
v 0.9 0.5 -2.5
v 0.9 0.5 -2.6
v 0.9 0.4 -2.6
v 0.8 0.4 -2.6
v 0.8 0.5 -2.6
v 1 0.5 -2.5
v 1 0.4 -2.5
v 1 0.4 -2.6
v 1 0.5 -2.6
v 0.9 0.4 -2.5
v 0.9 0.4 -2.6
v 1 0.4 -2.6
v 1 0.4 -2.5
v 0.9 0.5 -2.5
v 0.9 0.4 -2.5
v 1 0.4 -2.5
v 1 0.5 -2.5
v 1 0.5 -2.6
v 1 0.4 -2.6
v 0.9 0.4 -2.6
v 0.9 0.5 -2.6
v 0.6 0.4 -2.6
v 0.6 0.3 -2.6
v 0.6 0.3 -2.5
v 0.6 0.4 -2.5
v 0.6 0.4 -2.6
v 0.6 0.4 -2.5
v 0.7 0.4 -2.5
v 0.7 0.4 -2.6
v 0.6 0.3 -2.5
v 0.6 0.3 -2.6
v 0.7 0.3 -2.6
v 0.7 0.3 -2.5
v 0.6 0.4 -2.5
v 0.6 0.3 -2.5
v 0.7 0.3 -2.5
v 0.7 0.4 -2.5
v 0.7 0.4 -2.6
v 0.7 0.3 -2.6
v 0.6 0.3 -2.6
v 0.6 0.4 -2.6
v 0.8 0.4 -2.5
v 0.8 0.3 -2.5
v 0.8 0.3 -2.6
v 0.8 0.4 -2.6
v 0.7 0.3 -2.5
v 0.7 0.3 -2.6
v 0.8 0.3 -2.6
v 0.8 0.3 -2.5
v 0.7 0.4 -2.5
v 0.7 0.3 -2.5
v 0.8 0.3 -2.5
v 0.8 0.4 -2.5
v 0.8 0.4 -2.6
v 0.8 0.3 -2.6
v 0.7 0.3 -2.6
v 0.7 0.4 -2.6
v 0.5 0.3 -2.6
v 0.5 0.2 -2.6
v 0.5 0.2 -2.5
v 0.5 0.3 -2.5
v 0.6 0.3 -2.5
v 0.6 0.2 -2.5
v 0.6 0.2 -2.6
v 0.6 0.3 -2.6
v 0.5 0.3 -2.6
v 0.5 0.3 -2.5
v 0.6 0.3 -2.5
v 0.6 0.3 -2.6
v 0.5 0.2 -2.5
v 0.5 0.2 -2.6
v 0.6 0.2 -2.6
v 0.6 0.2 -2.5
v 0.5 0.3 -2.5
v 0.5 0.2 -2.5
v 0.6 0.2 -2.5
v 0.6 0.3 -2.5
v 0.6 0.3 -2.6
v 0.6 0.2 -2.6
v 0.5 0.2 -2.6
v 0.5 0.3 -2.6

# faces
f 1/1/1 2/1/1 3/1/1 4/1/1
f 5/1/2 6/1/2 7/1/2 8/1/2
f 9/1/3 10/1/3 11/1/3 12/1/3
f 13/1/4 14/1/4 15/1/4 16/1/4
f 17/1/5 18/1/5 19/1/5 20/1/5
f 21/1/6 22/1/6 23/1/6 24/1/6
f 25/1/1 26/1/1 27/1/1 28/1/1
f 29/1/2 30/1/2 31/1/2 32/1/2
f 33/1/3 34/1/3 35/1/3 36/1/3
f 37/1/4 38/1/4 39/1/4 40/1/4
f 41/1/5 42/1/5 43/1/5 44/1/5
f 45/1/6 46/1/6 47/1/6 48/1/6
f 49/1/1 50/1/1 51/1/1 52/1/1
f 53/1/2 54/1/2 55/1/2 56/1/2
f 57/1/3 58/1/3 59/1/3 60/1/3
f 61/1/4 62/1/4 63/1/4 64/1/4
f 65/1/5 66/1/5 67/1/5 68/1/5
f 69/1/6 70/1/6 71/1/6 72/1/6
f 73/1/1 74/1/1 75/1/1 76/1/1
f 77/1/2 78/1/2 79/1/2 80/1/2
f 81/1/3 82/1/3 83/1/3 84/1/3
f 85/1/4 86/1/4 87/1/4 88/1/4
f 89/1/5 90/1/5 91/1/5 92/1/5
f 93/1/6 94/1/6 95/1/6 96/1/6
f 97/1/1 98/1/1 99/1/1 100/1/1
f 101/1/2 102/1/2 103/1/2 104/1/2
f 105/1/3 106/1/3 107/1/3 108/1/3
f 109/1/4 110/1/4 111/1/4 112/1/4
f 113/1/5 114/1/5 115/1/5 116/1/5
f 117/1/6 118/1/6 119/1/6 120/1/6
f 121/1/1 122/1/1 123/1/1 124/1/1
f 125/1/3 126/1/3 127/1/3 128/1/3
f 129/1/5 130/1/5 131/1/5 132/1/5
f 133/1/6 134/1/6 135/1/6 136/1/6
f 137/1/2 138/1/2 139/1/2 140/1/2
f 141/1/3 142/1/3 143/1/3 144/1/3
f 145/1/5 146/1/5 147/1/5 148/1/5
f 149/1/6 150/1/6 151/1/6 152/1/6
f 153/1/1 154/1/1 155/1/1 156/1/1
f 157/1/3 158/1/3 159/1/3 160/1/3
f 161/1/5 162/1/5 163/1/5 164/1/5
f 165/1/6 166/1/6 167/1/6 168/1/6
f 169/1/2 170/1/2 171/1/2 172/1/2
f 173/1/3 174/1/3 175/1/3 176/1/3
f 177/1/4 178/1/4 179/1/4 180/1/4
f 181/1/5 182/1/5 183/1/5 184/1/5
f 185/1/6 186/1/6 187/1/6 188/1/6
f 189/1/1 190/1/1 191/1/1 192/1/1
f 193/1/3 194/1/3 195/1/3 196/1/3
f 197/1/5 198/1/5 199/1/5 200/1/5
f 201/1/6 202/1/6 203/1/6 204/1/6
f 205/1/5 206/1/5 207/1/5 208/1/5
f 209/1/6 210/1/6 211/1/6 212/1/6
f 213/1/5 214/1/5 215/1/5 216/1/5
f 217/1/6 218/1/6 219/1/6 220/1/6
f 221/1/3 222/1/3 223/1/3 224/1/3
f 225/1/5 226/1/5 227/1/5 228/1/5
f 229/1/6 230/1/6 231/1/6 232/1/6
f 233/1/2 234/1/2 235/1/2 236/1/2
f 237/1/4 238/1/4 239/1/4 240/1/4
f 241/1/5 242/1/5 243/1/5 244/1/5
f 245/1/6 246/1/6 247/1/6 248/1/6
f 249/1/1 250/1/1 251/1/1 252/1/1
f 253/1/3 254/1/3 255/1/3 256/1/3
f 257/1/5 258/1/5 259/1/5 260/1/5
f 261/1/6 262/1/6 263/1/6 264/1/6
f 265/1/5 266/1/5 267/1/5 268/1/5
f 269/1/6 270/1/6 271/1/6 272/1/6
f 273/1/5 274/1/5 275/1/5 276/1/5
f 277/1/6 278/1/6 279/1/6 280/1/6
f 281/1/4 282/1/4 283/1/4 284/1/4
f 285/1/5 286/1/5 287/1/5 288/1/5
f 289/1/6 290/1/6 291/1/6 292/1/6
f 293/1/2 294/1/2 295/1/2 296/1/2
f 297/1/4 298/1/4 299/1/4 300/1/4
f 301/1/5 302/1/5 303/1/5 304/1/5
f 305/1/6 306/1/6 307/1/6 308/1/6
f 309/1/1 310/1/1 311/1/1 312/1/1
f 313/1/3 314/1/3 315/1/3 316/1/3
f 317/1/5 318/1/5 319/1/5 320/1/5
f 321/1/6 322/1/6 323/1/6 324/1/6
f 325/1/3 326/1/3 327/1/3 328/1/3
f 329/1/5 330/1/5 331/1/5 332/1/5
f 333/1/6 334/1/6 335/1/6 336/1/6
f 337/1/5 338/1/5 339/1/5 340/1/5
f 341/1/6 342/1/6 343/1/6 344/1/6
f 345/1/5 346/1/5 347/1/5 348/1/5
f 349/1/6 350/1/6 351/1/6 352/1/6
f 353/1/2 354/1/2 355/1/2 356/1/2
f 357/1/4 358/1/4 359/1/4 360/1/4
f 361/1/5 362/1/5 363/1/5 364/1/5
f 365/1/6 366/1/6 367/1/6 368/1/6
f 369/1/1 370/1/1 371/1/1 372/1/1
f 373/1/3 374/1/3 375/1/3 376/1/3
f 377/1/5 378/1/5 379/1/5 380/1/5
f 381/1/6 382/1/6 383/1/6 384/1/6
f 385/1/5 386/1/5 387/1/5 388/1/5
f 389/1/6 390/1/6 391/1/6 392/1/6
f 393/1/5 394/1/5 395/1/5 396/1/5
f 397/1/6 398/1/6 399/1/6 400/1/6
f 401/1/5 402/1/5 403/1/5 404/1/5
f 405/1/6 406/1/6 407/1/6 408/1/6
f 409/1/2 410/1/2 411/1/2 412/1/2
f 413/1/4 414/1/4 415/1/4 416/1/4
f 417/1/5 418/1/5 419/1/5 420/1/5
f 421/1/6 422/1/6 423/1/6 424/1/6
f 425/1/1 426/1/1 427/1/1 428/1/1
f 429/1/3 430/1/3 431/1/3 432/1/3
f 433/1/5 434/1/5 435/1/5 436/1/5
f 437/1/6 438/1/6 439/1/6 440/1/6
f 441/1/5 442/1/5 443/1/5 444/1/5
f 445/1/6 446/1/6 447/1/6 448/1/6
f 449/1/5 450/1/5 451/1/5 452/1/5
f 453/1/6 454/1/6 455/1/6 456/1/6
f 457/1/4 458/1/4 459/1/4 460/1/4
f 461/1/5 462/1/5 463/1/5 464/1/5
f 465/1/6 466/1/6 467/1/6 468/1/6
f 469/1/2 470/1/2 471/1/2 472/1/2
f 473/1/4 474/1/4 475/1/4 476/1/4
f 477/1/5 478/1/5 479/1/5 480/1/5
f 481/1/6 482/1/6 483/1/6 484/1/6
f 485/1/1 486/1/1 487/1/1 488/1/1
f 489/1/3 490/1/3 491/1/3 492/1/3
f 493/1/5 494/1/5 495/1/5 496/1/5
f 497/1/6 498/1/6 499/1/6 500/1/6
f 501/1/5 502/1/5 503/1/5 504/1/5
f 505/1/6 506/1/6 507/1/6 508/1/6
f 509/1/5 510/1/5 511/1/5 512/1/5
f 513/1/6 514/1/6 515/1/6 516/1/6
f 517/1/2 518/1/2 519/1/2 520/1/2
f 521/1/4 522/1/4 523/1/4 524/1/4
f 525/1/5 526/1/5 527/1/5 528/1/5
f 529/1/6 530/1/6 531/1/6 532/1/6
f 533/1/1 534/1/1 535/1/1 536/1/1
f 537/1/3 538/1/3 539/1/3 540/1/3
f 541/1/5 542/1/5 543/1/5 544/1/5
f 545/1/6 546/1/6 547/1/6 548/1/6
f 549/1/3 550/1/3 551/1/3 552/1/3
f 553/1/5 554/1/5 555/1/5 556/1/5
f 557/1/6 558/1/6 559/1/6 560/1/6
f 561/1/5 562/1/5 563/1/5 564/1/5
f 565/1/6 566/1/6 567/1/6 568/1/6
f 569/1/5 570/1/5 571/1/5 572/1/5
f 573/1/6 574/1/6 575/1/6 576/1/6
f 577/1/2 578/1/2 579/1/2 580/1/2
f 581/1/4 582/1/4 583/1/4 584/1/4
f 585/1/5 586/1/5 587/1/5 588/1/5
f 589/1/6 590/1/6 591/1/6 592/1/6
f 593/1/1 594/1/1 595/1/1 596/1/1
f 597/1/3 598/1/3 599/1/3 600/1/3
f 601/1/5 602/1/5 603/1/5 604/1/5
f 605/1/6 606/1/6 607/1/6 608/1/6
f 609/1/5 610/1/5 611/1/5 612/1/5
f 613/1/6 614/1/6 615/1/6 616/1/6
f 617/1/5 618/1/5 619/1/5 620/1/5
f 621/1/6 622/1/6 623/1/6 624/1/6
f 625/1/4 626/1/4 627/1/4 628/1/4
f 629/1/5 630/1/5 631/1/5 632/1/5
f 633/1/6 634/1/6 635/1/6 636/1/6
f 637/1/2 638/1/2 639/1/2 640/1/2
f 641/1/4 642/1/4 643/1/4 644/1/4
f 645/1/5 646/1/5 647/1/5 648/1/5
f 649/1/6 650/1/6 651/1/6 652/1/6
f 653/1/1 654/1/1 655/1/1 656/1/1
f 657/1/3 658/1/3 659/1/3 660/1/3
f 661/1/5 662/1/5 663/1/5 664/1/5
f 665/1/6 666/1/6 667/1/6 668/1/6
f 669/1/5 670/1/5 671/1/5 672/1/5
f 673/1/6 674/1/6 675/1/6 676/1/6
f 677/1/5 678/1/5 679/1/5 680/1/5
f 681/1/6 682/1/6 683/1/6 684/1/6
f 685/1/2 686/1/2 687/1/2 688/1/2
f 689/1/4 690/1/4 691/1/4 692/1/4
f 693/1/5 694/1/5 695/1/5 696/1/5
f 697/1/6 698/1/6 699/1/6 700/1/6
f 701/1/1 702/1/1 703/1/1 704/1/1
f 705/1/3 706/1/3 707/1/3 708/1/3
f 709/1/5 710/1/5 711/1/5 712/1/5
f 713/1/6 714/1/6 715/1/6 716/1/6
f 717/1/5 718/1/5 719/1/5 720/1/5
f 721/1/6 722/1/6 723/1/6 724/1/6
f 725/1/4 726/1/4 727/1/4 728/1/4
f 729/1/5 730/1/5 731/1/5 732/1/5
f 733/1/6 734/1/6 735/1/6 736/1/6
f 737/1/2 738/1/2 739/1/2 740/1/2
f 741/1/4 742/1/4 743/1/4 744/1/4
f 745/1/5 746/1/5 747/1/5 748/1/5
f 749/1/6 750/1/6 751/1/6 752/1/6
f 753/1/1 754/1/1 755/1/1 756/1/1
f 757/1/3 758/1/3 759/1/3 760/1/3
f 761/1/5 762/1/5 763/1/5 764/1/5
f 765/1/6 766/1/6 767/1/6 768/1/6
f 769/1/3 770/1/3 771/1/3 772/1/3
f 773/1/5 774/1/5 775/1/5 776/1/5
f 777/1/6 778/1/6 779/1/6 780/1/6
f 781/1/5 782/1/5 783/1/5 784/1/5
f 785/1/6 786/1/6 787/1/6 788/1/6
f 789/1/2 790/1/2 791/1/2 792/1/2
f 793/1/4 794/1/4 795/1/4 796/1/4
f 797/1/5 798/1/5 799/1/5 800/1/5
f 801/1/6 802/1/6 803/1/6 804/1/6
f 805/1/1 806/1/1 807/1/1 808/1/1
f 809/1/3 810/1/3 811/1/3 812/1/3
f 813/1/5 814/1/5 815/1/5 816/1/5
f 817/1/6 818/1/6 819/1/6 820/1/6
f 821/1/5 822/1/5 823/1/5 824/1/5
f 825/1/6 826/1/6 827/1/6 828/1/6
f 829/1/4 830/1/4 831/1/4 832/1/4
f 833/1/5 834/1/5 835/1/5 836/1/5
f 837/1/6 838/1/6 839/1/6 840/1/6
f 841/1/2 842/1/2 843/1/2 844/1/2
f 845/1/4 846/1/4 847/1/4 848/1/4
f 849/1/5 850/1/5 851/1/5 852/1/5
f 853/1/6 854/1/6 855/1/6 856/1/6
f 857/1/1 858/1/1 859/1/1 860/1/1
f 861/1/3 862/1/3 863/1/3 864/1/3
f 865/1/5 866/1/5 867/1/5 868/1/5
f 869/1/6 870/1/6 871/1/6 872/1/6
f 873/1/5 874/1/5 875/1/5 876/1/5
f 877/1/6 878/1/6 879/1/6 880/1/6
f 881/1/2 882/1/2 883/1/2 884/1/2
f 885/1/4 886/1/4 887/1/4 888/1/4
f 889/1/5 890/1/5 891/1/5 892/1/5
f 893/1/6 894/1/6 895/1/6 896/1/6
f 897/1/1 898/1/1 899/1/1 900/1/1
f 901/1/3 902/1/3 903/1/3 904/1/3
f 905/1/5 906/1/5 907/1/5 908/1/5
f 909/1/6 910/1/6 911/1/6 912/1/6
f 913/1/4 914/1/4 915/1/4 916/1/4
f 917/1/5 918/1/5 919/1/5 920/1/5
f 921/1/6 922/1/6 923/1/6 924/1/6
f 925/1/2 926/1/2 927/1/2 928/1/2
f 929/1/4 930/1/4 931/1/4 932/1/4
f 933/1/5 934/1/5 935/1/5 936/1/5
f 937/1/6 938/1/6 939/1/6 940/1/6
f 941/1/1 942/1/1 943/1/1 944/1/1
f 945/1/3 946/1/3 947/1/3 948/1/3
f 949/1/4 950/1/4 951/1/4 952/1/4
f 953/1/5 954/1/5 955/1/5 956/1/5
f 957/1/6 958/1/6 959/1/6 960/1/6
f 961/1/2 962/1/2 963/1/2 964/1/2
f 965/1/4 966/1/4 967/1/4 968/1/4
f 969/1/5 970/1/5 971/1/5 972/1/5
f 973/1/6 974/1/6 975/1/6 976/1/6
f 977/1/1 978/1/1 979/1/1 980/1/1
f 981/1/2 982/1/2 983/1/2 984/1/2
f 985/1/3 986/1/3 987/1/3 988/1/3
f 989/1/4 990/1/4 991/1/4 992/1/4
f 993/1/5 994/1/5 995/1/5 996/1/5
f 997/1/6 998/1/6 999/1/6 1000/1/6

